<svg xmlns="http://www.w3.org/2000/svg" viewBox="0 0 864 1214" fill="currentColor"><path d="M236.5 15.6c1.1.9 4 2.7 6.5 4.2 6.7 3.8 27.9 18.2 28.6 19.3 1 1.6.1 1.9-8.2 2.9-8.5 1-30.3 6.3-42.4 10.3-2.5.8-7.6 2.5-11.5 3.6-3.8 1.2-7.9 2.6-9 3.1s-4.9 1.8-8.5 3-8.4 3-10.7 4.1c-2.4 1-4.7 1.9-5.1 1.9-1.3 0-28.8 11.7-35.7 15.2-6 3-13.2 9.4-15.4 13.6-2 3.8-.5 3.6 1.8-.2 1.2-1.9 3.8-4.9 5.9-6.7 3.9-3.5 20-11.4 34.2-16.8 4.7-1.8 9.4-3.7 10.5-4.2 9.2-3.9 36.9-13.2 54.5-18.3 10.2-2.9 26.5-6.5 34.8-7.6l8.3-1.1 6.8 6c12 10.7 27 27 36.2 39.4 7 9.5 10.1 12.8 13.7 14.8 8.8 4.7 14.7 8.3 20.4 12.1 3.1 2.1 5.9 3.8 6.3 3.8.6 0 14.3 9.3 22.5 15.4 14.6 10.7 33 32.8 33 39.6 0 2.3-2.2.7-3.6-2.5-.8-2-4.2-5.8-8.2-9-3.8-3.2-6.7-6.4-6.7-7.5 0-1-3-5.2-6.7-9.3-5.7-6.4-7.3-7.5-10.9-8.1-2.5-.4-4.6-.2-5.4.4-1.1.9-3.8-.5-11.9-5.9-5.8-3.9-16.2-10.5-23.2-14.6l-12.7-7.6-5.4 3.6c-8.3 5.5-22.1 12.9-33.5 17.9-2.1.9-5.3 2.2-7 3-1.8.8-6.4 2.6-10.3 4.1-3.8 1.5-9.9 3.8-13.5 5.2s-8.5 3.1-11 3.9-5.4 1.9-6.5 2.4c-2.5 1.1-26.5 8.5-32.5 10-2.5.7-6.7 1.8-9.5 2.6-13.6 3.7-21.3 4.8-35.5 4.7-20.2-.1-31.2-2.7-51-12.1-5.8-2.7-14.8-6.9-20-9.2-5.2-2.4-9.9-4.6-10.3-5-.9-.7 2.3-7.6 13.1-28.4 6-11.5 6.2-12.1 6.2-19.5 0-6.8-.3-8.2-2.9-12.2-1.6-2.4-3.8-5.4-5-6.6-4.6-4.8-34.6-24.2-35.7-23-.3.2 2.4 2.1 6 4.1C72.2 61 85.1 70.1 90.7 75.9c8 8.1 8.4 19.2 1.3 33.2-2.3 4.6-5 9.5-5.9 10.9-1 1.4-3.3 6-5.1 10.3-1.9 4.3-3.7 8-4.1 8.3-.9.5-19-8.9-28.7-14.8-3.4-2.1-6.6-3.8-7-3.8-.8 0 4 3.9 4.9 4 .4 0 3.6 1.7 7 3.8 3.5 2.1 10 5.8 14.4 8.2 4.4 2.3 8.1 4.4 8.3 4.5.1.1-.7 2.4-1.8 5s-1.8 5-1.6 5.2c.5.5 3.6-6.3 3.6-7.8 0-1.8 3.8-.8 10.9 2.6 3.9 1.9 7.3 3.5 7.6 3.5s20.6 9.4 26 12.1c2.4 1.2 10.8 3.6 19.3 5.5 6.5 1.4 23.4 2.2 33.7 1.5 5.4-.4 6.6-.1 11.5 2.9 3 1.8 6.9 4.1 8.5 5 19.3 11.1 58.2 37.4 67.4 45.5 4.3 3.8 9.1 11.2 9.1 14.1 0 2.6-2.1 3-20.7 4-15.3.8-18.2 2-20 7.8-2 6.6 2.2 14.8 9.7 18.6 3.3 1.7 5.9 2 16.9 2 7.1 0 15.1-.4 17.8-1 2.6-.5 8.9-1.7 13.8-2.6 8-1.5 9.4-2.1 12.5-5.4 3.4-3.5 6-9.7 6-14 0-1.2-.7-3.4-1.5-5.1-1.5-2.7-1.4-3 .2-3.6 1-.3 3.4-1.2 5.3-2 9.5-3.9 17-6.1 17.6-5.2.3.5 1 3.8 1.5 7.2.9 6.3-.4 18.2-2.2 20.1-.5.6-.9 1.8-.9 2.8 0 2.1-3.6 3.7-16 7.4-27.6 8.2-51.5 11.2-67.6 8.4-15.6-2.8-20.1-3.8-25.9-6-4-1.6-8.2-2.9-18.2-6-5.7-1.7-10.3-3.6-10.3-4.2 0-3.1-9.8-20.8-16.3-29.5-8.9-11.7-16.5-19.1-26.7-26-9.8-6.5-14-8.6-22.6-11.2-17-5.1-31-.6-37.4 11.9l-2.1 4.1-4.2-2.6c-2.3-1.4-7.5-4.4-11.5-6.7-6.4-3.8-7.2-4.6-6.8-6.8.4-2.3.3-2.3-.9-.6-1.3 1.7-2 1.4-12.5-4.8-6.1-3.6-11.4-6.6-11.8-6.6-.9.1 4.1 3.9 5.1 4 .5 0 2.8 1.3 5.2 3 2.4 1.6 4.6 3 4.9 3 .4 0 2.2 1 4.1 2.2 2.8 1.9 3.5 3 3.6 5.8.1 3.2.2 3.3.8 1 .4-1.4 1.2-2.4 1.7-2.3s5.9 3.1 11.9 6.7l11 6.6 2.4-4.7c4.9-9.7 11.4-13.3 23.7-13.3 12.8 0 25.6 5.2 39.9 15.9 6 4.6 19.7 19.7 24.6 27.1 7 10.7 13.5 24 11.7 24-.2 0-3.6-1.1-7.6-2.5-4.1-1.4-8-2.5-8.7-2.5s-4.4-3.7-8.3-8.3c-3.8-4.6-10.5-11.5-14.8-15.3-4.4-3.8-8.1-7.2-8.4-7.5-2-2.4-14.9-10.1-20.6-12.3-8.6-3.2-15.7-3.4-21.9-.5-5.1 2.4-9.1 8.1-10 14-.4 3.2-.4 3.1.9-.7 3.3-9.9 8.5-13.4 19.3-13.3 6.8.1 13.4 1.7 14 3.5.1.5-3.3 2.6-7.6 4.7-12.3 5.9-16.4 11.7-19.2 27.5l-1.2 7.4-1.8-4.9c-1-2.6-2.4-7.1-3.2-9.8-1.5-5-1.5-5-1-.5.4 2.5 1.5 6.5 2.5 8.9s1.6 4.6 1.4 4.9c-.3.2-6.5-4-13.8-9.5S58.7 229.6 54 226.2s-8.9-6.5-9.5-6.9c-3.4-2.8-7.7-5.4-8.1-5-.2.2.8 1.2 2.3 2.2 2.4 1.6 11.5 8.2 35.3 25.9 3 2.3 5.7 4.4 6 4.7s3.3 2.5 6.7 4.8c3.7 2.5 6.3 5.1 6.6 6.4.2 1.2.5-1.3.6-5.7.2-11.8 2.8-19.9 8.4-26.3 3.4-3.9 16.5-10.6 20.8-10.6 3.2 0 8.9 3.8 19.9 13.6 13.5 11.8 20 19.6 31.7 38.2 3.1 4.9 7 12.8 10.8 21.9 3.4 8.3 4.6 10.2 7.3 11.5 1.7.9 3.2 2.1 3.2 2.7 0 3-14.7 14.5-24 18.7-5.1 2.3-14.4 3.9-21.8 3.8-16.1-.2-36.3-16.3-46.2-36.6-1.8-3.6-3.4-6.4-3.7-6.1-.6.6 3.6 9 8.1 16 7.1 11.2 20.9 22.7 32 26.7 15.3 5.6 38.4-1.8 53.6-17.3 3.7-3.7 5.3-4.8 6.2-4 2.2 1.8 19 6.9 30.4 9.3 15.7 3.2 39.6 3.3 54.4.1 21-4.6 38.7-10.7 57.2-19.8 12.6-6.1 18.6-9.6 17.1-10.1-.5-.2-4.3 1.5-8.4 3.8-19.9 11.3-39.5 18.5-67.4 24.6-13.4 3-47.5 2-60-1.8-1.6-.5-6.8-2-11.5-3.4-4.7-1.3-11.4-3.9-14.9-5.7-6.2-3.1-6.6-3.6-8.8-9.3-2.9-7.5-14.5-30.5-15.3-30.5-1 0-3.2-5.2-2.5-5.8.3-.3 7.8 1.9 16.8 4.8 40.9 13.5 44.1 14.3 59.5 16.1 15.1 1.7 32-.3 55.2-6.4 9-2.4 19.2-5.7 23.5-7.6 8.9-3.8 32.9-15.8 33.7-16.9 1.6-1.8.2-2.7-1.6-.9-2.1 2.1-28.6 15-29.3 14.3-.4-.3 0-2.5.7-4.8.7-2.4 1.4-4.9 1.6-5.6s1.4-1.6 2.6-2.1c12.3-4.9 27.6-11.7 28.8-12.8 2.4-2.2-.6-1.5-6.8 1.6-4.5 2.3-22.9 10.1-23.7 10.1-.1 0-.5-3.3-.8-7.3-.4-3.9-.9-8.2-1.3-9.4-.5-1.7-.1-2.4 1.2-2.9 2.3-.7 7.8-3.1 11.8-5 1.6-.8 3.2-1.4 3.7-1.4 1.7 0 15.9-7.2 15.9-8.1 0-1.3 0-1.3-7.9 2.6-3.9 1.9-7.3 3.5-7.5 3.5-.3 0-3.4 1.3-6.8 2.9-3.5 1.5-12.6 5.2-20.3 8-7.7 2.9-14.9 5.6-16 6s-3.6.6-5.7.3c-2-.2-8.4.4-14.3 1.3s-10.8 1.5-10.9 1.3-1.1-2.5-2.1-5.2-3.4-6.7-5.3-8.8c-5.6-6.2-39-29.8-58.9-41.7-10.3-6.1-10.6-6.7-3.6-8.1 3.2-.7 7.6-1.8 9.8-2.5s7.4-2.2 11.5-3.4c19.7-5.8 27.2-8.3 45-15.2 7.9-3 32.4-13.4 38-16.2 5.3-2.5 21.7-12.1 25.8-15 4.2-3 4.3-3 7.7-1.4 4.4 2.1 25.5 16 25.5 16.8 0 .7-7.4 2.4-17.5 3.9-4.4.7-8.6 1.5-9.4 1.9-1.1.5-1.3 3.9-1.2 15.9l.1 15.2 5.2 6.6c5.9 7.4 4.3 7 18.8 3.8 4.1-.9 13.4-2.8 20.5-4.3l13-2.6.3-7.9c.3-7.4.1-8.1-2.4-10.7-2.1-2.2-2.4-2.9-1.2-2.9.9 0 1.8.4 2 .8s3.1 2.9 6.6 5.6c8.7 6.6 11.1 12.6 7.1 17.6-1.1 1.4-3.7 5-5.8 8-3.5 5-4.9 6.1-14.9 11-6.1 3-11.1 5.9-11.1 6.4-.1.4.6.6 1.4.3 2.2-.9 2.6.5 2.6 10.6 0 9.4-1.6 18.7-3.2 18.7-.5 0-.9.7-.9 1.6 0 1.3.4 1.3 2.8-.4 1.5-1 3.2-2.1 3.7-2.3.6-.2 5.5-3.1 10.9-6.4s11-6.7 12.4-7.6c4-2.3 10-10.8 10.7-15.1.4-2.1 1-3.8 1.4-3.8 1.5 0 5.9 5.6 7 8.9 1.5 4.6 1.4 9.2-.5 16.5-4.7 18.4-14.7 29.2-39.6 42.6-4.3 2.3-7.8 4.6-7.8 5.1 0 1.2 8.6-3.2 16-8 3-2 6.8-4.3 8.4-5.1 4.6-2.4 15.1-13.1 17.7-18 10-19 11-31.4 3.4-39.9-3-3.4-3.2-4.2-3.8-13.1-.4-5.2-1.5-12.3-2.7-15.7-1.8-5.6-7.4-17-8.9-18.3-.3-.3-2.7-3.1-5.4-6.2-5.6-6.7-17.9-17.1-27.5-23.3-.9-.6-2.1-1.3-2.6-1.8-2.9-2.1-22.7-14.7-23.2-14.7-.3 0-3.3-1.8-6.7-4s-7.6-4.6-9.5-5.2c-2.4-.9-5.5-4.2-11.9-12.8-4.8-6.3-10.1-13.1-11.8-15-8.4-9.7-24-25-32.5-31.8-5.2-4.2-9.7-7.9-10-8.3-.8-1-15.9-10.9-16.6-10.9-.3 0-1.8-.8-3.2-1.9-6.1-4.3-14.5-8.2-9.7-4.5m94.3 98.6c2.3 1.3 4.2 2.6 4.2 3 0 1.8-5.8 5.7-21 14.1-21.3 11.9-79.2 33.4-106.5 39.8-2.7.6-6 1.5-7.3 2-4.1 1.6-7.5 1-12.9-2.3-2.9-1.8-5.3-3.5-5.3-3.8s4.4-1.6 9.8-2.9c23.6-5.5 66-19.8 87.7-29.5 2.7-1.2 6.6-2.9 8.5-3.6 5.1-2 24.7-12.1 30.5-15.8 6-3.8 6.8-3.8 12.3-1m52.7 35.1c10.6 8.8 7.2 7.5-4.5-1.6-.9-.7-3.7-2.8-6.2-4.7-2.6-1.9-4.8-3.9-4.8-4.3 0-1.1 8 4.4 15.5 10.6m-8.2-10.2c3.2 1.7 10.9 8 10.4 8.6-.4.3-11.6-7.3-13.6-9.3-.9-.8 1.1-.4 3.2.7m13.7 10.4c1.1 1.3 1 1.4-.4.9-.9-.3-1.6-1-1.6-1.5 0-1.3.6-1.1 2 .6m26.5 28.2c1 2.6 1.9 17.7 1.2 20.5-.4 1.4-2.9 4.8-5.7 7.6-4.1 4.2-5.8 5.2-8.4 5.2-4.8 0-6-2-5.3-8.6.6-5.8 3.9-11.6 12.6-22.2 3.9-4.7 4.6-5 5.6-2.5m-20.1 23.8c-.7 5.2.6 9.4 3.7 11.4 2.8 1.7 7.1 0 12.2-4.8l3.8-3.6-1.2 3.4c-.7 1.9-2.9 5-4.9 7-3.9 3.8-25.3 17.1-27.5 17.1-1.1 0-1.1-.8-.3-3.7.5-2.1.8-8.3.6-14l-.3-10.3 6.9-3.5c3.8-1.9 7.1-3.5 7.3-3.5s.1 2-.3 4.5m-94 36.6c2.2 1.7 2.6 2.8 2.6 7.2-.1 5.9-2.4 11.2-6 13.9-7.1 5.2-49.2 9.1-58.1 5.4s-12.8-14.4-7.3-19.9c3.1-3.1 5.4-3.4 25.9-4.1 13.7-.4 23.3-1.5 32.5-3.6 5.7-1.3 7.6-1.1 10.4 1.1"/><path d="M122 103.6c-.6 1.6-2.2 5.8-3.5 9.4-6.7 17.9-7.7 26.9-3.4 30.9 7.9 7.3 37.2 16.1 53.7 16.1 14.5 0 47.2-9.6 93.7-27.5 24.1-9.2 58.5-25.5 58.5-27.6 0-1.3-.4-1.2-5.7 1.9-8.3 4.8-25.4 13-38.3 18.3-11.8 4.8-15.8 6.4-35.5 13.7-10.3 3.8-24 8.3-33.5 11.1-4.1 1.2-10.4 3-14 4.1-18.6 5.6-37.5 5.3-56.4-1.1-10.1-3.4-15.6-6-20.5-9.7-3.3-2.5-3.3-2.5-2.8-9.1.5-6.8 2.4-13.5 7.2-25.4 1.5-3.7 2.5-7.1 2.2-7.4-.4-.3-1.1.7-1.7 2.3M71 153.5c0 .3.2.5.5.5s.5-.2.5-.5-.2-.5-.5-.5-.5.2-.5.5M66.2 167.3c-2.3 6.9-4.2 13.4-4.1 14.4 0 1 2-4.3 4.5-11.7 2.4-7.4 4.2-13.9 4.1-14.4-.1-.4-2.2 4.8-4.5 11.7M60.7 185.6c-.4.4-.7 1.4-.7 2.3 0 1.1.3 1.2 1.1.4.6-.6 1-1.6.7-2.3-.2-.6-.7-.8-1.1-.4M369.4 189.2c1.1 5.2.8 58.3-.4 69.8-.6 5.8-1.7 18.4-2.5 28s-2 21.5-2.5 26.5c-.5 4.9-1.4 13.5-2 19-.5 5.5-1.3 12.8-1.6 16.3l-.7 6.3 4.9-.3 4.9-.3.6-20.5c.4-11.3 1.2-39.2 1.8-62 1.5-50.8.6-86-2.2-86-.5 0-.7 1.3-.3 3.2M56.6 208.8c-.4 2.9-.5 5.6-.2 5.9 1.2 1.3 1.7-.6 1.4-5.8l-.3-5.4zM37.5 209c.3.5 1 1 1.5 1 .4 0 4.1 2 8.1 4.5 7.3 4.5 9.9 5.4 9.9 3.4 0-.5-.4-.8-.9-.5-.5.4-4.6-1.6-9.1-4.4-7.9-4.9-10.8-6.1-9.5-4M129 222.8c0 .5 2.5 2.6 5.5 4.7 12.9 8.8 26.2 27.7 32.5 46.1 3.3 9.4 4.3 14.3 5 24.4l.7 9.5.1-8c.3-18.3-8.4-40.6-23-59.2-6-7.6-20.8-20.1-20.8-17.5M85.2 230c0 1.4.2 1.9.5 1.2.2-.6.2-1.8 0-2.5-.3-.6-.5-.1-.5 1.3M122.5 245.5c-.5.2-2.3.6-3.8.9-2.8.7-6.7 5.7-6.7 8.6.1.8 1-.2 2.1-2.3s3.2-4.3 4.7-4.8c11.9-4.6 28.7 11.1 33.7 31.6.9 3.3 1.3 4.1 1.4 2.4.3-7-8.5-23.4-15.6-29.2-1.3-1-2.9-2.4-3.6-3.1-2.5-2.6-9.5-4.9-12.2-4.1M111 258c0 .7.3 1 .7.7.3-.4.3-1 0-1.4-.4-.3-.7 0-.7.7M94.1 263.7c-.1 1.8.4 3.3.9 3.3 1.2 0 1.2-1.7 0-4.5-.7-1.7-.9-1.5-.9 1.2M95 269c0 .7.3 1 .7.7.3-.4.3-1 0-1.4-.4-.3-.7 0-.7.7M96 271.5c0 .3.2.5.5.5s.5-.2.5-.5-.2-.5-.5-.5-.5.2-.5.5M96.5 275c1.4 4.7 2.6 7.3 3 6.9.5-.6-1.9-7.6-2.9-8.6-.5-.5-.5.3-.1 1.7M190.5 274.9c-1.2 1.1-.3 5.9 1.3 7.3 2.5 2.2 10.5 5.1 10 3.7-.2-.6-2.1-1.7-4.2-2.4-4.7-1.6-7.1-3.8-6.3-5.8.5-1.3 2-1 9.4 1.5 4.8 1.7 9.6 3.8 10.6 4.6 2.6 2.3 2.1 4.2-1 4.2-2.5.1-2.6.2-1 1.1 3.9 2.3 6.5-2.4 3.5-6.3-1.3-1.7-21.5-8.8-22.3-7.9M154.2 288c0 1.9.2 2.7.5 1.7.2-.9.2-2.5 0-3.5-.3-.9-.5-.1-.5 1.8M152.6 294.3c-1.1 3.8-6.1 7.7-9.9 7.7-3.2 0-9.3-2.6-13.4-5.6-1.3-.9-2.3-1.2-2.3-.6 0 1.4 7.2 5.6 12.1 7.1 2.8.9 4.3.8 7.1-.4 4.1-1.7 8.1-6.7 7.5-9.3-.3-1.3-.6-1-1.1 1.1M170.6 310.2c-.3 1.3-.1 2.7.4 3.2.7.7 1-.1 1-2.2 0-3.7-.5-4.1-1.4-1M709.5 325.9c-3.6 1-16.4 7.7-18.5 9.7-1.3 1.2-1.2 1.8.4 4.7 3.3 5.8 4.2 6 10.5 2.6 3.1-1.7 6.1-3.4 6.6-3.9 2-1.6 10.6-2.7 14.8-1.9 4 .7 6.5 2 23 11.5 3.4 2 8.7 5 11.7 6.7 3 1.6 6 3.3 6.5 3.7.6.4 2.7 1.7 4.8 2.9 15 8.4 29.1 16.9 31.7 18.9 2.4 2 2.5 2 .6 4.1-1.6 1.8-7.7 5.5-22.6 13.8-2.5 1.4-5.2 3.1-6 3.7s-3.3 2.1-5.5 3.3c-6.6 3.5-11.9 6.5-13 7.3-.5.4-3.6 2.1-6.7 3.9-15.1 8.2-17.5 9.5-19.8 11.1-4 2.6-22.6 13-23.3 13-.4 0-.7-6.7-.7-14.9 0-8.9-.4-15.2-1-15.6-.7-.4-1 5.1-1 15.9v16.5l-4.7 2.7c-9.3 5.2-24 13.8-39.6 23-8.7 5.2-16 9.4-16.3 9.4-.8 0-14.8 9.3-15.7 10.5-2.3 3.1 2.7 11 6.1 9.7 2.8-1 12.2-6.2 20.5-11.4 4.3-2.6 8-4.8 8.1-4.8.2 0 5.7-3.2 12.2-7.2 6.6-3.9 13.3-7.9 14.9-8.8 1.7-1 7.1-4.1 12-7 5-2.9 11.9-7 15.5-9s12.1-7 19-11c13.3-7.8 18.2-10.6 38-21.8 6.9-3.8 16.1-9.2 20.5-11.9 4.4-2.6 9.7-5.7 11.8-6.8s5.6-3.9 7.8-6.2c3.1-3.4 3.9-5 3.9-8.1 0-7.1-4.9-11.7-22.5-21.2-2.7-1.5-8-4.5-11.8-6.8-3.7-2.3-7-4.2-7.2-4.2-.3 0-6-3.3-12.8-7.3-6.7-4.1-15.1-9-18.7-10.9s-8.3-4.6-10.4-5.8c-3.1-1.9-5.6-2.4-12-2.6-4.5-.2-9.4.1-11.1.5m15.9 1.6c1.6.4 4.1 1.4 5.5 2.1 1.4.8 3.1 1.4 3.8 1.4.6 0 1.3.5 1.5 1.2.2.6 1.5 1.3 2.8 1.5s2.7.7 3 1.1 2.2 1.6 4.3 2.6c2 1.1 3.7 2.3 3.7 2.8 0 .4.7.8 1.5.8s1.5.8 1.5 1.7c0 1.5.2 1.6 1 .3.7-1 1.2-1.1 1.8-.4.4.6 1.4 1.3 2.2 1.7s3.3 1.8 5.5 3.2c2.2 1.3 5 2.9 6.3 3.5 1.2.5 2.2 1.4 2.2 2 0 .5.7 1 1.5 1s1.5.5 1.5 1.1c0 .5.4.7 1 .4.8-.5 8.1 3.6 10 5.5.4.5 9.6 5.3 15.7 8.4 1.3.6 2.3 1.4 2.3 1.8 0 .5.6.8 1.3.8s3 1.5 5.1 3.3c5.2 4.7 6 9.9 2 14.6-3.3 4-10.2 8.5-12.6 8.3-1 0-1.8.6-1.8 1.4s-1 1.9-2.2 2.4c-1.3.5-5.2 2.7-8.8 4.9s-8.1 4.8-10 5.7c-1.9 1-4.6 2.5-6 3.4-2.7 1.8-11.4 6.7-19.5 10.9-2.7 1.4-5.2 2.9-5.5 3.2-.6.7-8.4 5.2-14.9 8.6-2.5 1.3-5.2 2.9-6 3.6-2.5 2.2-17.9 10.7-19.2 10.7-.6 0-1.7.6-2.3 1.4s-5.5 4-11 7.1c-7.7 4.5-10 5.4-10.7 4.4-.6-1-.9-.8-.9.7s-1 2.6-3.2 3.5c-1.8.7-5.4 2.8-8.1 4.6s-5.3 3.3-5.9 3.3c-.5 0-2.2.9-3.7 1.9-1.5 1.1-3.4 2.1-4.2 2.3s-1.8.9-2.4 1.6c-1.3 1.5-17.6 11.2-19 11.2-1-.1-5.1-7.9-4.4-8.4 3.1-2.1 14.8-8.6 15.6-8.6.5 0 1.8-.9 2.8-2s2.2-2 2.6-2 4.4-2.3 8.9-5c4.5-2.8 8.6-5 9.1-5s.9-.3.9-.8c0-.8 4.9-3.2 6.7-3.2.7 0 1.3-.4 1.3-.9s1.5-1.6 3.3-2.5c1.7-.9 6.6-3.7 10.7-6.3 4.1-2.5 9.8-5.7 12.5-7.1 2.8-1.4 6.1-3.3 7.5-4.2 1.4-1 4.8-3 7.5-4.5 16.6-9.3 20.6-11.5 21.2-11.5.3 0 1.4-.6 2.2-1.4.9-.8 3.3-2.3 5.4-3.5 2-1.2 5.3-3 7.2-4.1 2-1.1 4.2-2 4.9-2 .8 0 1.6-.3 1.8-.8.2-.4 1.7-1.7 3.4-2.9 2.3-1.6 3.4-1.9 4.3-1 .8.8 1.1.7 1.1-.6 0-1.1 2.1-2.7 5.8-4.5 7.2-3.6 10.1-5.3 12.6-7.4 3.1-2.8 5.6-3.2 7.2-1.1 1.3 1.7 1.4 1.6.8-.9-.5-2.1-.1-2.9 1.8-3.9 3.6-1.9 8-7 7.3-8.6-.3-.8-.5-2.1-.5-2.9s-.5-1.4-1.1-1.4c-.7 0-.9 1-.5 2.5.4 1.4.2 2.5-.4 2.5-.5 0-1-.4-1-.9 0-1-1.6-2-10.8-6.6-2.9-1.5-5.6-3.3-5.9-4.1s-1.4-1.4-2.4-1.4-1.9-.5-1.9-1c0-.6-.7-1-1.5-1s-4.1-1.7-7.2-3.7c-3.2-2-7.9-4.8-10.5-6.1-2.7-1.3-4.8-3.1-4.8-3.9 0-.9-.6-1.3-1.4-1-2.1.8-9.6-3.5-9.6-5.4 0-1.2-.7-1.5-2.4-1.2-1.5.3-3.1-.2-4.3-1.4-1-1-3.4-2.5-5.2-3.2-1.8-.8-3.9-2-4.6-2.8-.8-.7-3.3-1.5-5.6-1.8s-4.5-.8-4.9-1c-1.2-.8-10.5 2.2-15.4 4.9-2.7 1.5-5 2.6-5.1 2.4-.6-.7-3.5-6.7-3.5-7.3 0-.3.9-.5 1.9-.5s2.1-.7 2.5-1.5c.3-.8 1-1.5 1.6-1.5.5 0 1 .7 1 1.5s.5 1.5 1.1 1.5c.5 0 .9-1 .7-2.3-.2-1.6.2-2.2 1.5-2.1.9.1 1.7-.3 1.7-.8 0-.6 1.1-.7 2.5-.4 1.5.4 2.9.1 3.7-.8 1.4-1.4 6.1-1.5 11.2-.1m-31.4 8.9c0 .3-.4.8-1 1.1-.5.3-1 .1-1-.4 0-.6.5-1.1 1-1.1.6 0 1 .2 1 .4m2 1.1c0 .3-.2.5-.5.5s-.5-.2-.5-.5.2-.5.5-.5.5.2.5.5m-1.3 3.7c-.3.8-.6.5-.6-.6-.1-1.1.2-1.7.5-1.3.3.3.4 1.2.1 1.9m3.3.7c0 .6-.4 1.3-1 1.6-.5.3-1-.1-1-.9 0-.9.5-1.6 1-1.6.6 0 1 .4 1 .9m-68 150.6c0 .8-.4 1.5-1 1.5-.5 0-1-.7-1-1.5s.5-1.5 1-1.5c.6 0 1 .7 1 1.5m2 3c0 .8-.4 1.5-.9 1.5-1.3 0-2.2-1.6-1.4-2.4 1.1-1.1 2.3-.6 2.3.9"/><path d="M713 330.9c0 .6.4 1.3 1 1.6s.7-.1.4-.9c-.7-1.8-1.4-2.1-1.4-.7M719 331c0 .5.5 1 1 1 .6 0 1-.5 1-1 0-.6-.4-1-1-1-.5 0-1 .4-1 1M722 331.5c0 .3.2.5.5.5s.5-.2.5-.5-.2-.5-.5-.5-.5.2-.5.5M728.5 332c-.3.5-.1 1 .4 1 .6 0 1.1-.5 1.1-1 0-.6-.2-1-.4-1-.3 0-.8.4-1.1 1M706.8 332.7c.7.3 1.6.2 1.9-.1.4-.3-.2-.6-1.3-.5-1.1 0-1.4.3-.6.6M734.5 338c.3.5.8 1 1.1 1 .2 0 .4-.5.4-1 0-.6-.5-1-1.1-1-.5 0-.7.4-.4 1M743 339.5c0 .3.2.5.5.5s.5-.2.5-.5-.2-.5-.5-.5-.5.2-.5.5M746 341.1c0 .5.5.7 1 .4.6-.3 1-.8 1-1.1 0-.2-.4-.4-1-.4-.5 0-1 .5-1 1.1M750 347c0 .5.5 1 1 1 .6 0 1-.5 1-1 0-.6-.4-1-1-1-.5 0-1 .4-1 1M755 346.5c0 .3.2.5.5.5s.5-.2.5-.5-.2-.5-.5-.5-.5.2-.5.5M758 347.5c0 .3.2.5.5.5s.5-.2.5-.5-.2-.5-.5-.5-.5.2-.5.5M762.1 351.6c0 1.1.3 1.4.6.6.3-.7.2-1.6-.1-1.9-.3-.4-.6.2-.5 1.3M768.3 354.7c.4.3 1 .3 1.4 0 .3-.4 0-.7-.7-.7s-1 .3-.7.7M776 361.5c0 .3.2.5.5.5s.5-.2.5-.5-.2-.5-.5-.5-.5.2-.5.5M778 362.5c0 .3.2.5.5.5s.5-.2.5-.5-.2-.5-.5-.5-.5.2-.5.5M793.6 367.9c-.4.7-.5 1.5-.2 1.8.9.9 1.9-.4 1.4-1.8-.4-1.1-.6-1.1-1.2 0M799 371.5c0 .3.2.5.5.5s.5-.2.5-.5-.2-.5-.5-.5-.5.2-.5.5M799 374.5c0 .3.2.5.5.5s.5-.2.5-.5-.2-.5-.5-.5-.5.2-.5.5M807 387.8c0 1.2 1.9 2.6 2.6 1.9.2-.2-.2-1-1.1-1.7-.9-.8-1.5-.8-1.5-.2M800.5 391c-.3.5.1 1 .9 1 .9 0 1.6-.5 1.6-1 0-.6-.4-1-.9-1-.6 0-1.3.4-1.6 1M791.6 396.5c-.3.8-.1 1.5.3 1.5.5 0 1.1-.7 1.5-1.5.3-.8.1-1.5-.3-1.5-.5 0-1.1.7-1.5 1.5M786.4 400.2c-.4.7-.3.8.4.4s1.2-.9 1.2-1.2c0-.8-.9-.4-1.6.8M792 401.5c0 .3.2.5.5.5s.5-.2.5-.5-.2-.5-.5-.5-.5.2-.5.5M783.6 403.5c.4.8.8 1.5 1 1.5s.4-.7.4-1.5-.4-1.5-1-1.5c-.5 0-.7.7-.4 1.5M774 405c0 .5.5 1 1 1 .6 0 1-.5 1-1 0-.6-.4-1-1-1-.5 0-1 .4-1 1M766.5 409.3c-.4 1-.5 2.1-.1 2.4 1 1 1.8-.4 1.3-2.4-.4-1.7-.4-1.7-1.2 0M761 415.5c0 .3.2.5.5.5s.5-.2.5-.5-.2-.5-.5-.5-.5.2-.5.5M767 416.5c0 .3.2.5.5.5s.5-.2.5-.5-.2-.5-.5-.5-.5.2-.5.5M748 420.1c0 .5.5.7 1 .4.6-.3 1-.8 1-1.1 0-.2-.4-.4-1-.4-.5 0-1 .5-1 1.1M760 419.5c0 .3.2.5.5.5s.5-.2.5-.5-.2-.5-.5-.5-.5.2-.5.5M731 429.5c0 .3.2.5.5.5s.5-.2.5-.5-.2-.5-.5-.5-.5.2-.5.5M737 429.5c0 .3.2.5.5.5s.5-.2.5-.5-.2-.5-.5-.5-.5.2-.5.5M727 432.5c0 .3.2.5.5.5s.5-.2.5-.5-.2-.5-.5-.5-.5.2-.5.5M695.2 453c0 1.4.2 1.9.5 1.2.2-.6.2-1.8 0-2.5-.3-.6-.5-.1-.5 1.3M701 452.1c0 .5.5.7 1 .4.6-.3 1-.8 1-1.1 0-.2-.4-.4-1-.4-.5 0-1 .5-1 1.1M679 461.5c0 .3.2.5.5.5s.5-.2.5-.5-.2-.5-.5-.5-.5.2-.5.5M664 472.5c0 .3.2.5.5.5s.5-.2.5-.5-.2-.5-.5-.5-.5.2-.5.5M656 479c0 .7.3 1 .7.7.3-.4.3-1 0-1.4-.4-.3-.7 0-.7.7M644.3 482.7c.4.3 1 .3 1.4 0 .3-.4 0-.7-.7-.7s-1 .3-.7.7M648 483c0 .5.5 1 1 1 .6 0 1-.5 1-1 0-.6-.4-1-1-1-.5 0-1 .4-1 1M638 485.5c0 .3.2.5.5.5s.5-.2.5-.5-.2-.5-.5-.5-.5.2-.5.5M485 339.4c-1.6 2.1-.5 6.3 2 7.1 1.1.4 1.7 1.2 1.3 2.1-.4 1.1-.8 1.2-1.9.3-2-1.7-3.1-.2-1.3 1.7 2.3 2.2 4.8.7 5.5-3.3 1.2-6.6-2.4-11.7-5.6-7.9m4 3.2c0 .8-.7 1.4-1.5 1.4-1.5 0-2.1-2.1-.9-3.3 1-.9 2.4.2 2.4 1.9M494 340c-1.4 2.7-.4 5.7 2.1 6.5 1.9.6 2.4 1.7 1.2 2.8-.3.4-1.2.2-1.9-.4s-1.4-.6-1.8-.1c-.3.6.1 1.6 1 2.3 2.7 2.2 4.9-.1 5.2-5.5.4-6.8-3.3-10.3-5.8-5.6m4 2.6c0 1.4-1.2 1.9-2.3.8-.9-.9.4-3.5 1.4-2.8.5.3.9 1.2.9 2M503.2 340.4c-1.2 2.7.8 6.6 3.5 6.6 1.3 0 1.3.3.3 1.5-.9 1.1-1.6 1.2-2.5.5-1.6-1.3-2.8 0-1.4 1.7 2.9 3.4 7-.8 6.3-6.5-.8-6.2-4.1-8.2-6.2-3.8m4.6 2.4c.2.7-.3 1.2-1.2 1.2s-1.6-.7-1.6-1.6c0-1.7 2.2-1.4 2.8.4M522 339.9c-1.5 2.8-1.2 8.4.4 10.7 2.4 3.1 5 .7 5.4-5 .4-6.7-3.3-10.3-5.8-5.7m3.8 5.7c-.2 2.2-.7 3.9-1.3 3.9-1.2 0-1.9-6-1-8.3 1-2.8 2.7.3 2.3 4.4M541.1 339.4c-1.8 2.2-1 10.7 1.2 12 2.8 1.7 5-1.8 4.4-7.3s-3.2-7.6-5.6-4.7m3.4 6.1c0 2.2-.5 4-1.2 4.2-.9.3-1.3-.9-1.3-4.2s.4-4.5 1.3-4.3c.7.3 1.2 2.1 1.2 4.3M551.2 339.2c-1.9 1.9-1.6 11.7.4 12.5.8.3 2.3-.1 3.1-1 2.1-2 1-6.3-1.8-7-1.2-.3-1.8-1-1.4-1.7.4-.6 1.5-.8 2.6-.5 1 .4 1.9.2 1.9-.2 0-1-2.1-3.3-3-3.3-.3 0-1.1.5-1.8 1.2m2.8 8.9c0 2.4-2.3 2.1-2.8-.4-.2-1 .3-1.7 1.2-1.7 1 0 1.6.9 1.6 2.1M514.1 342.6c-2.6 4.4-2.7 6.4-.2 6.4 1.1 0 2.2.6 2.4 1.2.4 1 .8 1 1.4.1 1-1.4.4-11.3-.7-11.3-.4 0-1.7 1.6-2.9 3.6m1.5 5.1c-1.1 1.1-1.9-.6-1.1-2.4.8-1.7.8-1.7 1.2 0 .3 1 .2 2.1-.1 2.4M559.1 340.9c-1.4 2.6-1.4 5.4.1 8.6 2.6 5.8 8.1-.1 6.2-6.8-1.2-3.9-4.7-4.9-6.3-1.8m4.7 3.7c.3 3.4-1.1 6-2.7 5-1.2-.8-1.5-6.8-.4-8 1.3-1.3 2.8.1 3.1 3M569.3 339.7c-.7.2-1.3 1.2-1.3 2 0 1.3.3 1.3 1.5.3 2.1-1.7 3.2-.4 1.7 2-.7 1.2-.8 2-.2 2 .5 0 1 .9 1 2 0 2.2-1.6 2.7-2.3.7-.2-.6-.7-.9-1.1-.6-1.4 1.3.7 4 2.8 3.7 1.7-.2 2.2-1.2 2.7-5.2.7-6-1.1-8.5-4.8-6.9M686.8 344.8c-2.7 1.6-3.7 3.2-2 3.2.4 0 2.1-1.1 3.7-2.5 3.4-2.8 2.3-3.3-1.7-.7M456.5 348.1c-2.7 2.3-5.9 4.8-7 5.7-1.1 1-3.6 2.8-5.5 4.2-1.9 1.3-3.7 2.7-4 3s-3.3 2.7-6.8 5.3c-6 4.7-6.3 4.8-9.8 3.7-3.8-1.3-9-.7-11.4 1.3-1.8 1.4-7 11.3-7 13.1 0 2 3.4 5.4 6.4 6.6 3.6 1.3 11.2 1.3 13.9-.1 6.5-3.4 8.3-7.8 4.7-11.7-2.3-2.4-2.6-6-.6-7.6.7-.6 6.9-5.3 13.7-10.5s12.6-9.7 12.9-10 1.9-1.6 3.7-2.9c2.7-1.9 4.5-2.2 11.8-2.2 5 0 8.5-.4 8.5-1s-3.7-1-9.2-.9c-9.3 0-9.3 0-14.3 4m-37.8 23.6c-.4.3-1 .3-1.4 0-.3-.4 0-.7.7-.7s1 .3.7.7m-3.5 1.5c-1.5 1.5-1.6 4.8-.2 4.8.6 0 1 .4 1 1s-1 .5-2.5-.2c-3.7-1.7-3.1-6.8.8-6.8 1.6 0 1.8.3.9 1.2m9.2-.6c2.6 1 1.9 4.9-1 6.3-3.2 1.4-4.2.8-2-1.4 2-2 2-2 0-3.9-1.3-1.4-1.3-1.6-.1-1.6.9 0 2.2.3 3.1.6m-4.4 2.9c0 .8-.9 1.5-2 1.5s-2-.7-2-1.5.9-1.5 2-1.5 2 .7 2 1.5m-6 8c0 1.4-.3 2.5-.6 2.5-1.3 0-3.4-3-3.4-5 0-1.8.3-1.9 2-1 1.2.6 2 2.1 2 3.5m13-2.7c0 .5-.7 1.7-1.5 2.8-1.4 1.8-1.4 1.8-1.5-.9 0-1.7.5-2.7 1.5-2.7.8 0 1.5.4 1.5.8m-15.5 5.4c4.2 4.2 15.6 2.2 16.3-3 .4-3 2.2-2.8 2.2.2 0 1.8-1 2.9-4.5 4.5-2.5 1.2-5.8 2.1-7.4 2.1-6.3 0-13.4-5-11.5-8.2.5-.7 1.1-.5 2 .8.7 1 2 2.6 2.9 3.6m10.3-2c-.2 1.7-1.1 2.4-3 2.6-2.4.3-2.8 0-2.8-2.2s.4-2.6 3.1-2.6c2.6 0 3 .3 2.7 2.2M532 346c0 .5 1.1 1 2.5 1s2.5-.5 2.5-1c0-.6-1.1-1-2.5-1s-2.5.4-2.5 1M673 352.7c-1.9 1.3-3.7 2.9-3.9 3.4-.4 1.2 7.5-2.6 8.3-4 1.3-2-1.1-1.7-4.4.6M657.4 362.2c-4.6 3.4-4.9 3.8-3.3 3.8 1.8 0 7.6-4.6 6.8-5.4-.3-.4-1.9.4-3.5 1.6M663.6 361.7c-1.4 1.4-3.6 7.5-3.6 10 0 2.3 2.5 7.1 4.4 8.5 1.9 1.3 1.7.1-.3-3.3-2.6-4.3-2.6-7.5-.1-11.7 1.1-1.8 2-3.5 2-3.7 0-.8-1.6-.6-2.4.2M689.1 364.1c-2.5 2.3-2.7 3.9-.6 3.9.8 0 1.5-.7 1.5-1.5 0-2 2.9-1.9 3.7.1.3.9-.6 2.8-2.6 4.8-1.7 1.7-3.1 4-3.1 5 0 1.4.8 1.7 5.3 1.6 2.8-.1 6.2.1 7.3.5 1.5.5 2.7.1 4.1-1.4 1.9-2 1.9-2 3.6-.1 2.4 2.9 4.3 2.4 6.5-1.5 1.1-1.9 1.1-1.9 1.2.2 0 2.7 2 3.2 2 .5.1-1.6.1-1.6 1.1 0 1.4 2.4 2.7 2.2 3.2-.5.4-2.2.4-2.2.6 0 .1 1.7.7 2.3 2.6 2.3 1.7 0 2.5-.6 2.6-1.8 0-1.6.1-1.6.8.1.9 2.5 2.5 2.3 3.3-.5.6-2.3.6-2.3.7-.1.1 1.3.6 2.3 1.1 2.3.6 0 1-3 1-7 0-5.6-.3-7-1.5-7-1 0-1.5 1-1.5 2.7 0 1.6-.4 3.4-.9 4.2-.7 1-1.2.2-1.8-3-.7-3.4-1.3-4.4-2.8-4.4-3 0-4.5 1.5-4.5 4.6 0 4.3-1.7 4.3-2.4-.1s-2.5-6.2-3.3-3.2c-.5 2-.6 2-2.8-.6-2.3-2.6-2.3-2.7-4.4-.8-1.1 1-2.4 3.4-2.7 5.3-.4 2.2-1 3.1-1.6 2.5s-.6-1.7.1-3.1c.9-1.7.8-2.4-.9-4.1-3.3-3.3-7.6 0-6.3 4.8.2 1.1 0 2.3-.6 2.6-.6.4-1.1 1.6-1.1 2.7 0 1.5-.7 1.9-3.2 1.9h-3.2l3.2-3.3c3.9-4 4.2-7.9.8-9.5-1.9-.9-2.8-.7-4.5.9m13.9 2.3c0 2-1.9 3.1-3.2 1.8-.6-.6-.7-1.5-.4-2.1 1-1.6 3.6-1.3 3.6.3m9.8 4.5c.3 4.6.1 5.2-1.5 4.9-1.3-.2-1.9-1.4-2.1-4.2-.4-4.6.4-6.9 2.1-6.4.7.3 1.3 2.6 1.5 5.7m-9.3 3.1c0 .8-1 1.6-2.2 1.8-1.8.3-2.3-.2-2.3-1.8s.5-2.1 2.3-1.8c1.2.2 2.2 1 2.2 1.8M738.5 365c2.2 4.2 1.9 10.2-.6 13.4-2 2.5-1.6 3.4.7 1.8 2-1.3 3.4-5 3.4-8.7 0-3.9-2.4-9.5-4.1-9.5-.5 0-.3 1.3.6 3M668 370.5c0 7.5 0 7.5 4 7.5 2.2 0 4-.5 4-1 0-.6-1.3-1-3-1-3 0-3 0-3-6.5 0-3.7-.4-6.5-1-6.5s-1 3.2-1 7.5M678 369c0 .5 1.8 1 4 1s4-.5 4-1c0-.6-1.8-1-4-1s-4 .4-4 1M244.8 371.7c-3.4 1.7-3.5 3.8-.6 9.7 1.4 3 3.3 5.1 5.4 6.1 3.9 1.9 5.2 1.9 8.6.1 2.4-1.3 2.8-1.2 4.4.6 1 1 4 3.1 6.6 4.6s4.8 3 4.8 3.3c0 .8-4 3.5-10.5 6.9-2.7 1.5-8.7 4.8-13.2 7.4-8.3 4.7-8.3 4.7-8.3 10.2v5.4h-22c-15.7 0-22 .3-22 1.1s5.8 1 21 .7c20-.4 21-.4 20.4 1.4-1.2 3.8.8 3.7 8.9-.4 4.5-2.3 9.7-4.3 11.4-4.4 1.8-.2 5.6-1.6 8.5-3.2s7.8-4.3 10.8-6 7.5-4.2 10-5.6c5-2.8 3.6-3.3 29.5 11.4 5.5 3.2 12 6.8 14.5 8.2 6 3.4 12.2 6.8 26 14.6 6.3 3.6 12.8 7.2 14.4 8 2.9 1.5 2.9 1.5.2 3.7-1.5 1.2-5.5 3.7-8.9 5.5-7 3.8-8.6 5.4-8.6 9 0 3.1 1.4 5 6 7.8 3.5 2.1 3.7 2.4 4.1 9.5.7 10.2 4.9 18.7 9.2 18.7 1.8 0 13.7-6.3 30.6-16.3 1.9-1.1 4.7-2.7 6.2-3.4 3-1.6 4.5-3.3 2.8-3.3-.9 0-4 1.7-10.5 5.7-9.6 5.9-26.7 15.3-28 15.3-1.7 0-6.7-13.3-6.5-17.2.5-9.2.4-9.6-5.6-12.9-3.1-1.8-5.8-3.8-6.1-4.6-.6-1.6 1.3-4.2 4.2-5.4 1.1-.5 4.3-2.2 7-3.9 9.3-5.7 8.5-5.6 15.9-1.4 3.6 2.1 6.6 4.1 6.6 4.5 0 1-1.8 2.3-8 5.6-9.2 5-12.2 7.1-11.3 7.6.6.4 2.5-.4 4.4-1.7 1.9-1.2 6.1-3.7 9.4-5.5s6.5-3.7 7.2-4.3c.9-.7 2.1-.4 4 1 1.5 1 5.6 3.3 9.1 5 10.9 5.5 21.7 3.9 25.7-3.8 1.5-2.9 1.5-3.4-.2-6.8-2.2-4.5-10.3-10.3-10.3-7.5 0 .5 1.7 1.7 3.7 2.8 11.1 6 6.3 16.5-7.5 16.5-5.8 0-8.9-1.3-25.2-10.8-5.2-3-11.4-6.5-13.7-7.8-13.3-7.4-12.4-6.9-34.3-19.2-12-6.7-17.2-9.6-24.2-13.6-2.4-1.3-6.8-3.8-9.8-5.6s-8.4-4.9-12-6.8-9.8-5.5-13.7-7.9c-4-2.3-7.5-4.3-7.8-4.3-1.3 0-14.7-9.2-15.1-10.5-.7-1.8-3.1-2-3.6-.4-.6 1.7-8.2 1.6-10.2-.1-1-.7-2.7-3.2-3.8-5.4-2-4-2-4 .2-5.8 3.2-2.6 4.4-2.3 6.4 1.8 1.6 3.6 1.7 3.6 6.2 2.9 5.6-.8 9.3.6 11.5 4.3 1.5 2.5 5.2 4.9 24.9 15.5 4.1 2.2 8.7 4.8 10.2 5.9 1.4 1 2.9 1.8 3.2 1.8s2.8 1.4 5.7 3c2.8 1.7 9.5 5.4 14.8 8.2s10.1 5.5 10.6 5.9c1.5 1.1 37.3 21.1 48.5 27 2.5 1.3 4.7 2.7 4.8 3.1.2.5.8.8 1.2.8.5 0 5.3 2.5 10.6 5.6s11.2 5.8 13 6.1c4.8.8 9.4-1.3 9.4-4.3 0-1.2-.4-2.6-1-2.9-.5-.3-1 .3-1 1.4 0 1.2-.7 2.1-1.5 2.1s-1.5.5-1.5 1.1c0 .8-1.3.9-4 .5-5-.8-11-3.6-11-5.2 0-1.7 2.9-2.5 5-1.4 2.4 1.3 3 1.3 3 0 0-.6-.5-1-1.1-1s-3-1.2-5.3-2.8c-2.2-1.5-5.2-3.3-6.6-4-5-2.6-7.3-4.9-6.7-6.6 1.1-2.7 3.8-3.1 7.6-.9 2 1.1 5.7 3.2 8.4 4.7 2.6 1.4 4.7 2.2 4.7 1.7s-2.5-2.3-5.6-4.1l-5.7-3.2 4.4-2.9c2.4-1.6 4.9-3.1 5.4-3.3.6-.2.7-.7.3-1.1s-3.3.9-6.5 2.9c-3.8 2.4-6.1 3.2-6.7 2.6-1.7-1.7-5.5-1.1-6.6.9-2 3.9-1.2 6 3.8 9.1 8.3 5.1 8.9 5.7 7.4 7.2-1.1 1.1-2.4.7-7.8-2.2-7.3-3.9-8.3-4.8-6.3-6.1 2.2-1.3.3-2.1-2.3-.8-2 .9-3 .8-4.9-.4-2.2-1.4-13.5-7.7-38.9-21.7-17.4-9.6-20.5-11.3-21.5-12-.5-.5-3.7-2.3-7-4.1s-7.3-4-8.9-4.8c-1.6-.9-2.8-2.1-2.8-2.6 0-.6 3.9-3 8.5-5.5 4.7-2.5 9.5-5.4 10.6-6.4 2.5-2.3 2.7-6.8.5-9.1-2.9-2.9-9.5-5.7-12-5.1-1.3.4-8 4-14.9 8.1-8.4 5-13.1 7.2-14.3 6.8-4.5-1.7-13.2-7.6-13.2-8.9 0-.8-1.5-2.3-3.2-3.5-3.2-1.9-7.2-2.1-10.8-.5-1.1.4-2.3-.6-4-3.4-2.7-4.3-3.1-4.5-7.2-2.3m74.7 7.6c5.6 3.2 5.5 4.9-.2 8-2.6 1.4-8.4 4.5-12.8 7l-8 4.4-5.7-2.8c-6-3-7.1-4.5-4-5.6.9-.4 4.4-2.3 7.8-4.4 9.1-5.5 15.7-8.9 17.4-8.9.8 0 3.3 1.1 5.5 2.3m3.5 8.7c0 .5-2.6 2.3-5.7 4-3.2 1.6-7.8 4.1-10.2 5.5s-4.8 2.4-5.4 2.2 2.5-2.3 6.9-4.7c4.3-2.4 9.3-5.2 10.9-6.2 3.6-2.1 3.5-2 3.5-.8m-42.7 11.3c8.5 5.2 8.1 4.6 5.5 6.6-1.3 1-7.8 4.7-14.6 8.1l-12.3 6.4-5.5-2.8c-2.9-1.5-5.4-3.1-5.4-3.4 0-.8 1.9-1.9 13.8-8.3 4.2-2.3 8.8-5 10.2-6 3-2.2 5.3-2.4 8.3-.6m10.2 7.6c-.6.4-3.7 2.3-7 4.1-23.9 13.1-24.2 13.2-31.4 9.5-5.6-2.8-5.5-2.8-6.5 3.6-.6 3.6-3.7 7.5-4.9 6.3-.3-.4.3-1.8 1.4-3.2 1.6-2.1 1.8-3.4 1.3-6.9-.6-3.9-.4-4.3 1.5-4.3 1.2 0 4.3 1.1 6.9 2.5 5.3 2.8 8.5 3.1 12.4 1.1 11.5-6 15.9-8.4 19.7-10.8 4.2-2.6 8.8-3.9 6.6-1.9m-40.2 13.8c.4.3.2 1.2-.5 2-1 1.2-.7 1.3 1.7.7 2-.5 2.6-.4 2.1.5-.8 1.2-6.6 4.5-7.1 3.9-.1-.2 0-2 .3-4.1.4-3.4 1.9-4.7 3.5-3m118.1 58.8c.3 1.1.6 4.1.6 6.8 0 2.6.9 7.3 2 10.4 2.3 6.6 2 8-.6 2.6-.9-2.1-2-7.2-2.3-11.3-.4-4.1-1-8-1.4-8.7s-2.5-2.2-4.7-3.4-3.7-2.6-3.4-3c.7-1.3 9.2 4.4 9.8 6.6M642.6 370.9c-.3.5-2.1 1.6-4.1 2.5-1.9.9-3.5 2.1-3.5 2.6 0 .6 2 0 4.5-1.2s4.5-2.8 4.5-3.5c0-1.5-.6-1.7-1.4-.4M678 373c0 .5 1.8 1 4 1s4-.5 4-1c0-.6-1.8-1-4-1s-4 .4-4 1M623.2 382.5c-4.1 2.8-4.8 3.5-3.6 3.5 1.7 0 8.7-4.7 7.8-5.2-.5-.3-2.4.4-4.2 1.7M662.6 384l-8 .5.3 11.5c.1 6.3.4 11.6.6 11.8.5.6 87.8.2 88.7-.4.5-.3.7-5.8.5-12.2l-.3-11.7h-37c-20.3 0-40.5.2-44.8.5m79.4 11.5V406h-84v-5.4c0-2.9-.3-7.4-.6-9.9l-.7-4.7 19.4-.3c10.7-.1 29.9-.3 42.7-.5l23.2-.2z"/><path d="M665.6 388.3c-3.3 2.4-1.4 8.5 3.2 10.3.1.1 0 .9-.4 1.8-.5 1.3-.9 1.4-2.1.4-1.3-1-1.5-.9-1.2.7.3 1.2 1.2 2 2.4 2 1.8 0 2-.8 2.3-7.1.3-7.9-1-10.4-4.2-8.1m2.9 3.7c.7 2.3-.2 4.3-1.6 3.5-1.2-.8-1.2-5.5 0-5.5.5 0 1.2.9 1.6 2M677.3 387.7c-.7.3-1.3 1.1-1.3 1.9s.6 1.1 1.5.8c1.8-.7 2.1 3.1.4 4.2-.8.5-.6 1 .5 1.6 1.7 1 2.2 4.3.7 5.3-.6.3-1.4-.3-2-1.2-.5-1-1.2-1.5-1.6-1.1-1 1 1.4 4.8 2.9 4.8 1.8 0 3.7-5.3 2.5-7.1-.5-.8-.7-2.5-.4-3.9.6-2.8-1.3-6-3.2-5.3M698.7 387.7c-.4.3-.7 2.4-.7 4.5 0 3.1.3 3.8 1.7 3.6 1.9-.3 2.9 2.3 1.9 4.9-.5 1.3-.9 1.4-1.8.5-1.9-1.9-3-1.4-1.8.8 1.4 2.7 3.4 2.5 4.9-.4 1.8-3.2 1-6.9-1.6-8.1-2.8-1.2-3-3.5-.4-3.5s3.5-1.6 1.5-2.4-2.9-.8-3.7.1M710.8 387.6c-.5.4-.8 4.3-.8 8.6 0 5.8.3 7.8 1.3 7.8 2 0 2.8-1.2 1.7-2.4-.5-.7-1-4.2-1.2-8-.2-3.7-.6-6.4-1-6M719.9 388.7c-2.8 3.2-1 14.3 2.2 14.3 2 0 3.7-5.6 3-9.6-1.2-6.5-2.7-7.8-5.2-4.7m4.1 6.7c0 1.7-.5 3.8-1 4.6-.9 1.3-1.1 1.3-2 0-1.1-1.7-1.3-9.3-.3-10.4 1.2-1.2 3.3 2.6 3.3 5.8M731.2 392.6c-2.3 4.6-2.2 6.4.4 6.4.8 0 1.4.9 1.4 2s.6 2 1.3 2 1.2-1.2 1.1-3c-.1-1.7-.2-5-.3-7.5 0-2.5-.5-4.5-.9-4.5s-1.8 2.1-3 4.6m1.4 4.1c-1.1 1.1-1.7-.4-.9-2.3.7-1.8.8-1.8 1.1-.1.2 1 .1 2.1-.2 2.4M687.2 394.8c-2.5.8-1.1 2.2 2.3 2.2 1.9 0 3.5-.4 3.5-.9 0-1-4-1.9-5.8-1.3M605.3 392.8c-1.8.9-3.3 2-3.3 2.4 0 1.3 1.3.9 5.5-1.7 4.5-2.7 2.8-3.3-2.2-.7M418.3 402.5c0 2.7.2 3.8.4 2.2.2-1.5.2-3.7 0-5-.2-1.2-.4 0-.4 2.8M591.6 400.8c-.3.5-2.1 1.7-4.1 2.6-1.9.9-3.5 2.1-3.5 2.6 0 1.5 1.6 1.2 3-.5.7-.8 1.8-1.5 2.5-1.5 1.5 0 4-2.8 3.2-3.6-.3-.3-.8-.1-1.1.4M568.3 414.7c-2.4 1.4-4.3 2.9-4.3 3.5 0 .9 6.1-2.2 8.4-4.3 2.3-2-.3-1.5-4.1.8M418.3 417.5c0 2.2.2 3 .4 1.7.2-1.2.2-3 0-4-.3-.9-.5.1-.4 2.3M112.8 415.8l-4.8.3v10.8c0 7.9.4 11.2 1.4 12 .9.8 10.2 1 32.2.7 17-.2 36.2-.5 42.7-.5l11.8-.1-.3-11.8-.3-11.7h-39c-21.4-.1-41.1.1-43.7.3m80.6 2.9c.2 1 .4 5.6.3 10.3l-.2 8.5-41.2.3-41.3.2v-8.4c0-4.6-.3-9.1-.6-10-.7-1.8 2.1-2 49.8-2.4 30.6-.2 32.7-.2 33.2 1.5"/><path d="M118 420.8c0 .9.6 1.2 1.6.8.9-.3 2-.6 2.5-.6.6 0 .8-.4.4-.9-.8-1.5-4.5-.9-4.5.7M129.2 420.2c-1.7 1.7-1.6 12.3.2 13.7 2.3 1.9 4.6.2 4.6-3.4 0-2.5-.7-3.9-2.7-5.3-2.4-1.7-2.6-2.3-1.4-3.4 1.1-1 1.4-1 1.8 0 .3.6.9.9 1.4.6.6-.3.5-1.1-.2-2-1.4-1.7-2.1-1.8-3.7-.2m3.2 8.3c.7 1.8-.2 4.5-1.5 4.5s-2.2-2.7-1.5-4.5c.3-.8 1-1.5 1.5-1.5s1.1.7 1.5 1.5M151 420c-2.1 1.3-2 12.7 0 14 2.2 1.4 2.6 1.3 3.8-1.5 2.7-5.9-.1-14.9-3.8-12.5m2.8 7.6c-.2 2.7-.7 4.9-1.3 4.9-1.1 0-1.9-7.9-1-10.3 1.1-3 2.6.5 2.3 5.4M160.9 420.6c-1.2 1.5-1.1 1.6.9 1 1.8-.6 2.2-.4 2.2 1.3 0 1.1-.5 2.3-1.1 2.6-.7.5-.5 1.3.6 2.5.8.9 1.3 2.4.9 3.4-.8 2-1.4 2-3-.2-1.2-1.5-1.3-1.5-1.4-.1 0 2.3 2.4 4.1 4.4 3.3 1.4-.5 1.6-1.7 1.3-6.9-.6-8.5-1.9-10.4-4.8-6.9M171.2 421c-3 4.8.1 15.4 3.8 13 1-.6 1.5-2.7 1.5-7s-.5-6.4-1.5-7c-2.1-1.3-2.4-1.3-3.8 1m3.6 6.6c-.2 2.7-.7 4.9-1.3 4.9-1.1 0-1.9-7.9-1-10.3 1.1-3 2.6.5 2.3 5.4M117.7 425.4c.3 1.4 1.1 2.3 2.1 2.2 1.2-.1 1.7.7 1.7 2.4 0 2-.5 2.5-2.2 2.3-1.6-.2-2.1.1-1.6 1.3.3.8 1.5 1.4 2.7 1.2 1.6-.2 2.2-1.1 2.4-3.9.3-3.1-.2-4-2.6-5.8-2.9-2-2.9-2-2.5.3M139.8 427.7c1.2.2 3 .2 4 0 .9-.3-.1-.5-2.3-.4-2.2 0-3 .2-1.7.4M548.8 425.8c-4.3 2.6-3.3 3.5 1.2 1.2 2.2-1.1 4-2.3 4-2.5 0-1-2.5-.3-5.2 1.3M418.3 430.5c0 2.7.2 3.8.4 2.2.2-1.5.2-3.7 0-5-.2-1.2-.4 0-.4 2.8M422 430.8c0 .4 1.7 1.4 3.8 2.2 9.1 3.3 12.5 7.6 11.5 14.6-.4 2.2-1.4 3.5-4 4.9-1.9 1.1-3 2.1-2.4 2.3.7.2 2.3-.3 3.6-1.2s2.6-1.6 2.9-1.6c.5 0 4.6 12 4.6 13.6 0 1.3-2.1 2.7-13.3 8.8-3.7 2.1-6.5 4.1-6.2 4.6s3.3-.8 6.8-2.8c3.4-2.1 7.3-4.3 8.7-5 6.6-3.4 6.6-3.3 3.6-12.1-1.5-4.7-2.6-10.3-2.6-13.4 0-6.4-1.2-8-9.1-12.5-5.7-3.2-7.9-3.9-7.9-2.4M533.3 434.7c-2.9 1.4-4.4 3.3-2.8 3.3 1.4 0 6.5-3.2 6.5-4 0-1.2.3-1.2-3.7.7M418 444.3c0 3 .4 4.6 1 4.2 1.3-.8 1.3-5.5 0-7.5-.7-1.1-1-.2-1 3.3"/><path d="M428.1 443c-5.5 3.7-6.2 4.4-3.1 3.5 3-1 9-4.7 9-5.8 0-1.2-1.3-.7-5.9 2.3M627.7 440.6c-.2.2-16.9.4-37.2.4-20.4.1-38.3.4-39.8.7-2.8.6-2.8.6-2.6 11.4.2 7.7.6 11.3 1.6 12 1.3 1.2 74.1.5 83.1-.7l4.3-.6-.3-11.2-.3-11.1-4.3-.6c-2.3-.3-4.4-.4-4.5-.3M634 453v10l-19.2.2c-10.6.1-29.2.2-41.3.2l-22 .1-.3-9.7-.3-9.7 5.8-.3c3.2-.2 21.9-.4 41.6-.6l35.7-.3z"/><path d="M622 452.1c0 8 0 8 2.8 7.7 2.6-.3 2.7-.5 2.9-6.8.1-4.9-.3-6.7-1.5-7.7-3.6-2.7-4.2-1.6-4.2 6.8m4-3c0 1-.4 1.9-1 1.9-.5 0-1-1.2-1-2.6s.4-2.3 1-1.9c.6.3 1 1.5 1 2.6m.8 6.6c.2 1.1-.4 2.3-1.2 2.6-1.2.5-1.6-.1-1.6-2.4 0-3.5 2.3-3.6 2.8-.2M559.1 445.9c-2.1 1.3-2.6 11.1-.8 13.5 1.6 2.1 4.4 1.7 5.3-.9 1-2.5-.5-6.3-2.6-7-2.7-.9-2.7-3.9.1-3.2 1.5.4 1.9.1 1.7-1-.4-2-1.9-2.5-3.7-1.4m2.7 10.5c.3 2 0 2.7-1 2.4-.7-.3-1.4-1.7-1.6-3.2-.3-2 0-2.7 1-2.4.7.3 1.4 1.7 1.6 3.2M569 446.9c-1.4 2.8-1.2 10.4.4 12.6 1.7 2.3 4.2 1.4 4.8-1.7.6-3.5-.1-5.6-2.3-6.3-1.9-.6-2.7-4.5-.9-4.5.6 0 1 .4 1 1 0 .5.5 1 1 1 1.6 0 1.1-2.7-.6-3.4-2.2-.8-2.2-.8-3.4 1.3m3.5 9.1c0 1.3-.6 2.5-1.2 2.7-.9.3-1.3-.6-1.3-2.7s.4-3 1.3-2.8c.6.3 1.2 1.5 1.2 2.8M590.4 446.1c-1.4 2.3-1.2 12 .3 13.5 1.6 1.6 2.3 1.7 4 .6 1.5-.9 1.6-12.1.1-14-1.3-1.5-3.5-1.6-4.4-.1m3.6 3.5c0 2.6-1.7 3.3-2.6.9-.8-2 .3-4.8 1.6-4 .5.3 1 1.7 1 3.1m.5 6.9c0 2.8-2.9 2.5-3.3-.3-.3-1.9 0-2.3 1.5-2 1 .2 1.8 1.2 1.8 2.3M600 447.7c.1 2.7.1 2.7 1.5.9 2.3-3 2.9-1.2 1.7 5-.7 3.1-.9 6.1-.5 6.8.4.6 1.1-.7 1.4-2.9s1-5.9 1.4-8.3c.8-4.2.8-4.2-2.4-4.2-2.7 0-3.1.3-3.1 2.7M611.7 445.7c-.4.3-.7 2.1-.7 4 0 2.7.5 3.5 2.5 4.3 3.1 1.2 3.5 4.5.5 3.7-1.2-.3-2 0-2 .8 0 1.9 2.7 2.6 4 1 1.6-1.9 2-9.4.7-12.3-1-2.1-3.6-2.9-5-1.5m3.7 1.9c1 2.6.7 4.4-.8 4.4-1.7 0-2.8-2.4-2-4.5.8-1.9 2-1.9 2.8.1M579.5 453c-.4.6.7 1 2.5 1s2.9-.4 2.5-1c-.3-.6-1.5-1-2.5-1s-2.2.4-2.5 1M516.2 445.1c-1.8 1.2-3.1 2.3-2.9 2.6.6.5 6.7-3 6.7-4s-.1-1-3.8 1.4M418 458.5c0 2.8.4 4.4 1 4 .6-.3 1-2.1 1-4s-.4-3.7-1-4c-.6-.4-1 1.2-1 4M497.8 455.8c-4 2.4-3.4 3.5.7 1.5 1.9-.9 3.5-2 3.5-2.5 0-1.1-1.1-.9-4.2 1M483 465c-1.4 1.1-2 2-1.4 2 1.4 0 5-2.7 4.4-3.3-.3-.3-1.6.3-3 1.3M593.6 479.7c.2 6.5.6 14.6.9 18 .4 6.2.4 6.3-3 8.9-1.9 1.4-3.5 3.2-3.5 3.9s-1.6 2.3-3.5 3.6c-4 2.7-4.2 3.8-1.7 6.9 1.7 2.1 2.2 2.2 5.3 1.1 1.9-.7 4.6-1.5 6.2-1.7 1.5-.2 4.1-1.1 5.7-1.9 2.7-1.4 3.2-1.4 6.7.5 4.7 2.5 6.9 2.5 8.3.1 1.6-3 1.2-5.9-1-7.1-2.5-1.4-1.7-3.4 2.6-5.9 2.6-1.6 3.4-2.7 3.4-4.9 0-5.2-3.3-6.6-7.9-3.3-1.6 1.2-3.6 1.8-4.8 1.5-1.1-.3-3.9.4-6.1 1.5-2.3 1.2-4.3 2.1-4.5 2.1-.3 0-.8-7.9-1.2-17.5s-1.1-17.5-1.6-17.5c-.4 0-.6 5.3-.3 11.7m24.9 20.5c.6 1.6.1 2.6-1.6 3.9-3.2 2.5-3.8 2.4-5-.8-.8-2.2-.7-3 .7-4 2.7-1.9 5.2-1.6 5.9.9m-7.8 4.3c1.3 2.8 1.4 3.8.5 4.7-1.4 1.4-4.9-.2-4.4-2.1.1-.6-.2-1.1-.8-1.1-.5 0-1 .9-1 1.9 0 1.3 1.1 2.4 3.5 3.2 3.8 1.4 4.2 2.4 2 5.3-1.2 1.6-1.9 1.8-3.9.8-1.3-.6-2.6-2.1-2.8-3.4-.4-2.2-.5-2.2-1.3-.3-1 2.4-3.7 4.5-4.7 3.9-.5-.3-.8-1.3-.8-2.3s-.9-2.9-1.9-4.3c-2.4-3-1.9-3.9 4.4-7.1 7-3.6 9.2-3.5 11.2.8m-17.2 6.5c.8 1.3-.5 1.3-2.5 0-1.3-.8-1.3-1 .2-1 .9 0 2 .4 2.3 1m-.9 3.7c.8 2.9-1.7 5.6-4.6 5.1-2.2-.5-2.5-4.7-.3-6.3 2.7-2.1 4.2-1.8 4.9 1.2m3.2 1.9c-.3 1.4-.5 1.2-1-.9-.3-1.9-.2-2.5.4-1.9s.8 1.8.6 2.8m-11.8.9c0 .3-.2.5-.5.5s-.5-.2-.5-.5.2-.5.5-.5.5.2.5.5m29 .9c0 .3-.4.8-1 1.1-.5.3-1 .1-1-.4 0-.6.5-1.1 1-1.1.6 0 1 .2 1 .4M396.1 474c-3.4 2.2-6.6 4-7.1 4-.6 0-1 .4-1 1 0 .5-.4 1-.9 1-.7 0-13.6 7.4-15 8.6-.2.2-.2.7.2 1 .3.3 1.9-.3 3.5-1.5 1.7-1.2 3.3-2.1 3.7-2.1s2.6-1.3 4.9-2.8c2.2-1.5 7.6-4.8 11.8-7.2 7-4.1 9.3-6 7-6-.5 0-3.7 1.8-7.1 4M472.3 471.3c-2.2.9-3.2 2.7-1.5 2.7 1.1-.1 4.6-2.9 4.1-3.4-.2-.2-1.4.1-2.6.7M721.4 475.8c-4.6 3-4.4 16.8.2 18.6 1.8.7 1.7-.4-.1-2.8-2-2.6-1.9-10.6.1-13.4 1.7-2.4 1.6-3.6-.2-2.4M785 475.6c0 .5.7 1.9 1.5 3 1.9 2.5 1.9 9.7-.1 13.5-2.2 4.3-1 4.9 1.5.8 3-4.9 2.8-12-.4-15.6-1.3-1.5-2.5-2.3-2.5-1.7M348 479.2c-4.8 3.2-24.4 14.8-35 20.8-3.6 2-10.5 6.1-15.5 9-4.9 2.9-13.4 7.8-18.8 10.8l-9.8 5.4-8.2-5.5c-4.5-3.1-13.4-9.2-19.7-13.7l-11.5-8-14 .2-14 .2 13.4.3c12.8.3 13.6.5 17.5 3.2 2.3 1.5 9.2 6.4 15.5 10.7 6.2 4.3 12.9 8.9 14.7 10.2 4.4 2.9 4.3 4.4-.3 6.6-3.8 1.8-20.4 11.4-36.6 21.3-4.9 2.9-9.1 5.3-9.3 5.3-1 0-26.1 15.4-28.2 17.4-1.3 1.1-3.3 3.8-4.3 5.8-1.7 3.4-1.9 6.1-1.9 28.3 0 13.5.3 24.5.8 24.5.4 0 .6-9.8.4-21.7-.2-12 0-23.8.3-26.2.9-5.9 6.1-10.9 20-19.1 15.2-9 17.6-9.7 15.6-4.9-.5 1.3-1.2 4.1-1.6 6.1-.3 2.1-1.2 4.3-1.9 5-8.5 8.6-1.2 18.8 13.5 18.8 5.9 0 5.9 0 5.9 4.5 0 5 1.8 9.7 3.4 8.9.6-.3-.2.6-1.9 2-3.1 2.7-2.8 3.4.5 1.6 1.5-.8 2.1-.6 2.9.7 1 1.7 1.2 1.7 4.1 0 3.9-2.1 6-2.2 6-.2 0 .8 1.4 2.1 3 3 1.7.9 3 1.2 3 .7s-1.1-1.4-2.5-2c-2-.9-2.5-1.9-2.5-5 0-4.3-2.3-8.2-4.9-8.2-1 0-3 .9-4.4 2s-2.9 2-3.5 2c-.5 0-1.2-3-1.6-6.7-.9-8.4.2-10 9.9-15.2 3.9-2.1 8.7-4.8 10.8-5.9 5.4-3.2 10.2-5.9 14.5-8.3 2-1.2 7.4-4.3 12-7 4.5-2.7 8.4-4.9 8.6-4.9s3.3-1.7 6.7-3.8c14.9-9 20-11.3 22.9-10.7 3.9.8 10.5 4.1 15.8 7.7 4.2 2.9 4.2 2.9 4.2 9.7 0 4.3.5 7.2 1.3 7.9 1 .8 1.2-.5.9-6.6-.3-7.3-.5-7.9-3.6-10.7-3.7-3.3-17.2-10.5-19.7-10.5-1.5 0-7.2 2.7-13.9 6.7-12.9 7.6-23 13.4-33 19-6.3 3.6-12.6 7.1-13.9 8-1.2.8-4.8 2.8-7.8 4.5-5.3 2.9-5.5 2.9-6 .9-.8-3.1-2-2.5-1.5.8.3 2-.1 3-1.3 3.5-1.7.6-1.7-.5.1-6.7.3-.9.1-1.7-.5-1.7s-1.1-1.2-1.1-2.8c-.1-3.8-2.4-12-3.7-13.3-.7-.7-2.8-1.9-4.8-2.8l-3.6-1.6 3.8-2c3.8-2 8-4.5 29.1-16.9 6.2-3.6 11.5-6.6 11.7-6.6.3 0 3.4-1.8 7-4s6.7-4 6.9-4 3.4-1.8 7-4 7-4 7.6-4c.5 0 1-.5 1-1 0-.6.5-1 1-1 .6 0 4-1.8 7.6-4s6.8-4 6.9-4c.2 0 4.1-2.3 8.7-5.1 4.6-2.9 9.9-6.1 11.8-7.1 11.8-6.6 14-8 14-8.9 0-1.4-1.1-1-6 2.3m-110.7 75.6c3.4 3.5-.8 7.2-8.2 7.2s-10.6-5.9-4.8-8.8c3-1.6 10.8-.6 13 1.6m-11.1 8.5c2.6 1.1 6.8.5 11.9-1.7 1.4-.6 1.8.3 2.4 6.3.4 3.8.4 7.9 0 9-1.3 4.3-16.3 5.4-20.6 1.5-2.2-2-2.4-5.1-.8-12.4.9-4.2 1.4-5 2.7-4.4 1 .3 2.9 1.1 4.4 1.7m-5.6 17.4c2 1.3 4.6 1.8 9.1 1.7 7.4-.1 8.3 1.9 1 2.4-9 .6-16.7-3.1-16.7-8 0-3.8 1.2-4.2 2.6-.9.7 1.6 2.5 3.8 4 4.8m-1.2 3.8c3.5 1.7 6.6 2.5 10.3 2.5 3.8 0 5.2.3 4.7 1.1-.9 1.5-11.5.4-15.2-1.5-2.5-1.3-6.1-4.6-5.1-4.6.2 0 2.6 1.1 5.3 2.5m29.2 16.1c.5 1.8.1 2.9-1.2 3.9-2.6 2-3.1 1.9-5-1-1.3-2-1.4-2.8-.4-4 2.1-2.5 5.9-1.9 6.6 1.1M438 476.5c0 .3 2.4 1.9 5.4 3.6 6 3.3 6.3 4.7 1.3 7.2-2.8 1.5-12.7 7.1-18.2 10.4-1.1.6-1.7 1.4-1.4 1.7.7.7 22.2-11.3 22.7-12.6.2-.4 1-.8 1.8-.8 1.1 0 1.4 1.6 1.4 6.7 0 6.8 0 6.8-8.8 12-4.8 2.8-9.9 5.7-11.4 6.4-1.6.7-2.8 1.6-2.8 2.1 0 1.3 1.2 1 5-1.4 1.9-1.1 6-3.5 9-5.1 10.1-5.5 11-6.4 11-10.8v-4l5.8 3.2c3.1 1.7 8.2 4.5 11.2 6.2s9.6 5.5 14.5 8.4c5 2.9 11.3 6.5 14.2 8 5.3 2.7 6.8 4.6 7.7 9.8.6 2.9.3 3.2-9 8.5-5.3 3-12.1 7-15.3 8.9-3.1 1.8-7 4.1-8.7 5.1s-6.4 3.8-10.5 6.3c-8.6 5.1-25.7 15.1-31.1 18-2.1 1.2-3.8 2.5-3.8 2.9 0 .9 12.3-5.5 15.1-7.9.8-.7 1.9-1.3 2.2-1.3.7 0 7.3-3.8 32.2-18.6 8.2-4.9 15.3-9.1 15.7-9.2.5-.2 3.4-1.9 6.5-3.8s6-3.4 6.5-3.4c.4 0 .8 12.4.8 27.5s.3 27.5.8 27.5c.4 0 .6-14.1.6-31.3-.2-37.1.2-35.5-10.4-41.3-3-1.7-7.7-4.3-10.5-5.9-13.1-7.4-28.3-15.9-30.7-17.2-3.1-1.6-3.7-3.8-1.3-4.7 2-.7 1.9-3.9-.3-6.6-1.5-1.9-2.1-2-4.3-1-2.3 1-3.2.8-6.7-1.4-3.9-2.4-6.2-3.2-6.2-2.1m17.1 6.6c.9 1.7.8 2.3-.2 3-1.5.9-3.9-1.4-3.9-3.8 0-2.1 2.8-1.5 4.1.8M746.6 478.2c-3 4.3-.8 9.2 3.6 8.1 1.7-.5 2-.3 1.5 1.1-.4 1-.7 2-.7 2.2s-.9.4-2 .4-2-.5-2-1.1c0-.5-.5-.7-1-.4-.7.4-.6 1.3.1 2.6 1.4 2.6 5.1 2.1 6.4-.9.5-1.2 1.2-2.2 1.5-2.2s1 1 1.5 2.2c1.5 3.5 5.1 3.5 6.9.1 1.5-2.8 1.5-2.8 1.6-.1 0 3 2 4 2 1 .1-1.6.1-1.6 1.1.1 1.4 2.3 2.9 1.3 3-2.1.1-2.7.1-2.7.8.3.8 3.8 4.2 4.2 5.2.5.6-2.5.6-2.5 1 0 .5 3.1 2.2 2.9 3.1-.2.5-2.1.6-2 .7.6.1 2.1.4 2.7 1.1 2 1.3-1.3.9-14.3-.5-14.7-.5-.1-1.2 1.5-1.6 3.6-1 6.2-1.7 5.9-3.3-1.5-.5-2.2-1.1-2.6-3.4-2.5-2.2.2-2.8.8-3 3.2-.5 5.6-1.4 6.1-2.6 1.5-1.2-4.8-2.7-5.5-3.8-1.8-.3 1.3-.6 1.6-.7.7s-1-2.4-2.1-3.4c-1.9-1.7-2.1-1.7-4 0-1.1 1-2 2.5-2 3.4s-.9.2-2-1.7c-2.3-3.8-4.3-4.1-6.4-1m5.1 4.3c-.2.5-1.3 1.1-2.5 1.3-2.5.4-3.1-2.5-1-4.6 1-1 1.5-.9 2.6.5.7.9 1.1 2.2.9 2.8m9.1 2.3c.3 4.7.1 5.2-1.7 5.2-2.1 0-2.7-1.7-2.2-6.5.5-6.7 3.5-5.7 3.9 1.3m12.9.4c-.2 1.3-.4.5-.4-1.7-.1-2.2.1-3.2.4-2.3.2 1 .2 2.8 0 4M726 484.4c0 7.3 0 7.3 3.1 8 3.2.6 4.9.1 4.9-1.5 0-.5-1.3-.9-3-.9-3 0-3 0-3-6.5 0-3.7-.4-6.5-1-6.5s-1 3.1-1 7.4M418 482c0 2.2.5 4 1 4 .6 0 1-1.8 1-4s-.4-4-1-4c-.5 0-1 1.8-1 4M459 479.5c-1.6 1.9 0 1.9 2.6 0 1.6-1.2 1.6-1.4.3-1.5-.9 0-2.2.7-2.9 1.5M735 483c0 .5 2 1 4.5 1s4.5-.5 4.5-1c0-.6-2-1-4.5-1s-4.5.4-4.5 1M137.5 487l-26 .5-.1 8.7c-.2 16.6-5.2 14.8 42.6 14.8 23 0 42.5-.3 43.4-.6 2.2-.8 2.4-21.5.2-23.3-1.4-1.2-3.8-1.2-60.1-.1m58.5 11.5V509l-30.2.1c-16.7 0-35.1.3-41 .5l-10.8.5v-10.5c0-7.4.4-10.6 1.3-10.9.6-.3 19.1-.5 41-.6l39.7-.2z"/><path d="M132 491.6c-.7.7-1 2.6-.7 4.1s.1 3.6-.4 4.5c-1.3 2.4.6 5.8 3.1 5.8 2.7 0 4.4-3.4 3-6-.6-1.1-.8-2.5-.5-3.1 1-1.5-.3-5.6-1.9-6.2-.8-.3-2 .1-2.6.9m3.5 3.4c0 2.7-2.2 3.9-3.1 1.6-.8-2.2.3-4.9 1.9-4.3.6.2 1.2 1.4 1.2 2.7m0 7c0 2.7-2.2 3.9-3.1 1.6-.8-2.2.3-4.9 1.9-4.3.6.2 1.2 1.4 1.2 2.7M152.4 491.4c-1.1 2.9 0 7.1 1.8 6.8.9-.1 1.9.6 2.3 1.8.7 2.3-.9 5.9-1.9 4.1-1.1-1.7-2.6-1.3-1.9.5.3.8 1.5 1.4 2.7 1.2 3.1-.4 3.6-7.2.7-9-2.7-1.6-2.7-3.4 0-4.1 1.2-.3 1.8-1 1.4-1.6-.9-1.6-4.5-1.3-5.1.3M163.6 492.1c-.8 1.2-1.2 2.7-.9 3.2.3.6 1 0 1.5-1.2.9-2.5 2.8-2 2.8.7-.1.9-.9 3.5-2 5.7-2.5 5.3-2.5 5.5 1 5.5 2.5 0 3-.4 2.9-2.3 0-1.2-.3-1.6-.6-1-.5 1.3-3.3 1.9-3.3.8 0-.4.7-2 1.6-3.6 1.7-3.3 1.6-9-.3-9.6-.6-.2-1.8.6-2.7 1.8M122.2 498.5c.1 4.4.6 7.5 1.2 7.5.7 0 1-2.7.8-7.5-.2-4.1-.8-7.5-1.3-7.5-.6 0-.9 3.2-.7 7.5M173.4 494.7c-1.5 7.8 2.8 14.6 5.4 8.8 1.5-3.3 1.5-6.7 0-10-1.7-3.8-4.6-3.2-5.4 1.2m4.2-.3c.8 3.5.1 8.9-1.3 9.4-1 .3-1.3-1.3-1.3-5.7 0-6.1 1.4-8.2 2.6-3.7M142 499c0 .5 1.4 1 3 1 1.7 0 3-.5 3-1 0-.6-1.3-1-3-1-1.6 0-3 .4-3 1M735 487c0 .5 2 1 4.5 1s4.5-.5 4.5-1c0-.6-2-1-4.5-1s-4.5.4-4.5 1M418.7 493.7c-1.1 1-.8 6.1.3 6.8.6.4 1-1 1-3.4 0-4.2-.2-4.6-1.3-3.4M710.2 511.2l.3 12.3 42.4.3c27.7.1 42.8-.1 43.6-.8.9-.7 1.2-4.5 1.1-12.3l-.1-11.2-43.8-.3-43.8-.2zm74.9-10.2h9.9v21h-81.8l-.6-4.8c-.2-2.6-.4-7.2-.3-10.2l.2-5.5 30-.5c16.5-.3 30.6-.4 31.3-.3.8.2 5.8.3 11.3.3"/><path d="M731.2 503.2c-.7.7-1.2 1.8-1.2 2.6 0 1.2.3 1.2 1.5.2 2.2-1.8 3-.4 1.6 2.7-.9 1.9-.9 2.9-.2 3.1 1.2.4 1.6 5.2.5 5.2-.4 0-1.3-.8-2-1.8-1.2-1.6-1.3-1.6-1.4.4 0 1.2.6 2.7 1.4 3.3 2.4 2 6.1-5 3.9-7.3-.4-.4-.6-2.2-.5-4 .4-3.8-1.7-6.3-3.6-4.4M751.5 504.3c-1 3.9-.2 7.2 1.6 6.9 1.9-.3 3.1 2.1 2.3 4.3-.4 1-1.3 1.3-2.5 1-2.1-.7-2.5.5-.7 2.3.9.9 1.6.8 3-.5 2.7-2.4 2.3-6.9-.7-8.9s-3.2-3.4-.5-4.1c2.4-.6 2.1-2.6-.3-3.1-1-.2-1.9.6-2.2 2.1M719.7 503.7c-.9.9-.9 6.5.1 7.9.4.6 1.5 1.4 2.5 1.7 2.5.9 1.6 3.3-1.1 3-1.5-.2-2 .2-1.6 1.2.9 2.4 4.3 1.8 4.8-.8 1.2-5.9 1.3-8.1.3-10.8-1.1-2.7-3.5-3.8-5-2.2m4.1 4.6c.2 1.9-.1 2.7-1.2 2.7-1.7 0-3.1-3.4-2.1-5 1.1-1.8 3-.5 3.3 2.3M763.9 503.6c-.6 7.5-.2 15.4.8 15.4.9 0 1.1-2.1.8-7.6-.2-4.2-.6-7.9-.9-8.2s-.6-.1-.7.4M773.2 504.2c-1.7 1.7-1.5 11 .3 13.4 1.5 1.9 1.5 1.9 3 0 2.7-3.6 1.6-14.6-1.5-14.6-.3 0-1.1.5-1.8 1.2m3.1 3c.6 4-.3 9.8-1.4 9.8-.5 0-.9-2.9-.9-6.5 0-6.8 1.4-8.8 2.3-3.3M784.3 508.1c-2.3 5.3-2.3 6.9.3 6.9.8 0 1.4.9 1.4 2 0 3 1.8 2.4 2.2-.8.4-4-.3-13.2-1-13.2-.4 0-1.7 2.3-2.9 5.1m1.3 4.6c-1.1 1.1-1.9-.6-1.1-2.4.8-1.7.8-1.7 1.2 0 .3 1 .2 2.1-.1 2.4M740.5 511c-.4.6.7 1 2.4 1s3.1-.5 3.1-1c0-.6-1.1-1-2.4-1-1.4 0-2.8.4-3.1 1M418 503.8c-3.9 1.1-4 2.5-3.9 40.1.1 20.1.5 47.4.8 60.6.7 24 .7 24 .9-12.3l.2-36.2h8.3l-.6 72.1c-.4 39.6-.9 72.4-1.2 72.8-.8 1.4 1.9 8.2 3.6 9.2 1.4.7 2.4.3 4.1-1.5 2.3-2.5 2.3-2.5 5.1 0 2.9 2.4 2.9 2.4-.3 5.4-3.6 3.4-9.1 4-12.6 1.5-4.5-3.1-5.4-7.1-5.5-25.7-.1-9.5-.5-25.4-.9-35.3-.6-14.6-.7-11.3-.6 18 .2 38.4.3 39.2 5.3 43.8 5.6 5 11.4 3.9 17.5-3.4 4-4.7 4.5-6.4 2.5-9-2.5-3.2-4.6-3-8.8.8-3.2 2.9-4.4 3.5-5.7 2.6-1.6-.9-1.7-4.4-1.3-38.9.2-20.8.6-38.1 1-38.4.3-.4 11.9-5 25.6-10.4 13.8-5.4 26.8-10.6 29-11.6 10.6-4.6 25.6-10.2 26-9.8.3.3.8 7.4 1.1 15.9s.8 15.6 1 15.8.4-7.2.4-16.6c0-17 0-17 2.8-18.3 1.5-.7 9.2-1.6 17.2-2.1 8-.4 14.8-.8 15.3-.8.4-.1.7-.5.7-1.1s-4.9-.8-13.7-.4c-11.5.5-14.7 1-19.2 3-2.9 1.3-5.7 2.4-6.2 2.4s-3.1 1-5.7 2.1c-8.3 3.7-10.5 4.6-23.7 9.9-7.1 2.8-15.5 6.2-18.5 7.5-8.1 3.4-31.6 12.5-32.4 12.5-.4 0-.6-26.9-.5-59.8.1-32.8-.1-60.7-.5-61.8-.7-2.2-3.9-3.4-6.6-2.6m4.5 3.2c0 1.8-3.4 2.4-5.5 1-1.3-.9-1.3-1.1 0-2 2.1-1.4 5.5-.8 5.5 1m.5 4c0 1.5-1.8 2.1-4.5 1.4-3.6-.9-3.1-2 1-2.1 1.9-.1 3.5.3 3.5.7m0 4.8c0 .9-1 1.2-3.2 1-4.5-.4-4.8-2.6-.4-2.5 2.3.1 3.6.6 3.6 1.5m-1.7 3.2c1.9 0 2 .1.5 1.6-1.2 1.3-2 1.4-3.7.5-2.4-1.3-2.9-3.6-.5-2.7.9.3 2.5.6 3.7.6m2.2 5c-.3.5-1.9 1-3.5 1s-3.2-.5-3.5-1c-.4-.6 1-1 3.5-1s3.9.4 3.5 1m-1.9 3c1.5 0 2.4.6 2.4 1.6 0 2.4-7.4 1.5-7.8-1-.3-1.4 0-1.7 1.3-1.2.9.3 2.8.6 4.1.6m2.2 6.2c-.3.7-2 1.3-3.8 1.3s-3.5-.6-3.7-1.3c-.3-.8.8-1.2 3.7-1.2s4 .4 3.8 1.2m-.3 4.9c0 2-6.9 1.9-7.3-.1-.2-1.1.7-1.5 3.5-1.4 2.5.1 3.8.6 3.8 1.5m.2 4.3c-.5 1.4-6.9 1.5-7.4.1-.2-.6 1.5-1.1 3.7-1.1 2.6-.1 3.9.3 3.7 1m.1 5.3c-.2 1.3-1.3 1.8-3.8 1.8s-3.6-.5-3.8-1.8c-.3-1.4.4-1.7 3.8-1.7s4.1.3 3.8 1.7m-2.2 4.3c1.3 0 2.4.5 2.4 1.1 0 1.5-7.3.6-7.8-1-.3-1 0-1.2 1.2-.8 1 .4 2.9.7 4.2.7m17.2 152.2c1.4 1.4 1.6 4.8.3 4.8-1.1 0-4.1-2.8-4.1-3.9 0-2.1 2.1-2.6 3.8-.9M357.5 512.6c-3.8 2.5-7.7 4.8-8.5 5.1s-2.7 1.5-4.2 2.5c-2.7 1.8-2.8 2.3-2.8 9.9 0 5.1.5 8.5 1.3 9.2 3.8 3.6 19.5 12.2 20.5 11.3.7-.8 1.3-.4-9.9-6.5-9.6-5.3-9.6-5.3-10.3-10.4-1.3-10.9-1.4-10.7 13.9-19.1 5.8-3.1 10.5-5.9 10.5-6.2 0-1.4-4.4.4-10.5 4.2M394.9 515.8C372 529.1 368 531.5 368 532.2c0 1.1 1.8 1 2.4-.1.3-.5 2.8-2 5.4-3.4s6.4-3.4 8.3-4.5c16.6-9.5 24.9-14.4 24.9-14.8 0-1.2-3.7.4-14.1 6.4M683 512.7c-1.4.9-2.7 1.9-3 2.3-.3.3-2.5 2.1-5 4s-5.1 4-5.8 4.8c-.8.7-3 2.5-5 4-2.1 1.5-4.5 3.4-5.5 4.4-1.8 1.5-2.2 1.4-6.5-1.2-12.3-7.2-23.1-13-24.4-13-2 0-4.5 2.9-5.3 6.1-.6 2.2-.1 3.1 2.7 5.1 1.8 1.4 5.3 3.6 7.8 4.9s4.7 2.7 5 3 3 1.9 6 3.6 11.3 6.3 18.3 10.2c7 4 13.6 7.1 14.5 6.9s2.6-2 3.7-4.1c2-3.9 2-3.9-1.3-6.6-1.8-1.5-6.8-4.8-11.2-7.2s-8-5.1-8-5.9 1.5-2.5 3.3-3.7c1.8-1.3 4.2-3.1 5.3-4 1-1 5.1-4.4 9-7.6 7.1-5.7 7.1-5.7 18.8-5.7 7.1 0 11.6-.4 11.6-1s-4.4-1-11.3-1c-8.9 0-11.8.3-13.7 1.7m-52 9.3c0 1.1.5 2 1 2 .6 0 1-.4 1-1s1-.5 2.5.2c1.4.6 2.5 1.5 2.5 2 0 .4.7.8 1.5.8s1.5.4 1.5 1c0 .5.6 1 1.3 1 1.6 0 16.5 7.8 17.2 9.1.4.5 2.2 1.6 4.1 2.4s3.4 1.9 3.4 2.5.6 1 1.3.8c1.6-.3 7.7 3 7.7 4.1 0 .5-.8 2.4-1.7 4.3-1 1.8-1.9 3.4-2 3.6 0 .2-1.9-.8-4.2-2.2-2.2-1.4-4.3-2.6-4.5-2.6-.5 0-10.8-6.2-11.6-7-.3-.3-3-1.7-6.1-3.3-3.2-1.5-6.2-3.4-6.9-4.2s-1.9-1.5-2.6-1.5c-.8 0-3.9-1.6-6.9-3.6-5.6-3.8-6.9-6.6-4.3-9.2 2-2 5.8-1.5 5.8.8m49 28.1c0 .5-.8.9-1.7.7-1-.2-1.9.4-2.1 1.4-.2 1.1.3 1.8 1.3 1.8.9 0 1.3.4 1 1-.9 1.5-4.5 1.2-4.5-.4 0-1.9 4-6.7 5.1-6.1.5.4.9 1.1.9 1.6m-2 2.4c0 .3-.2.5-.5.5s-.5-.2-.5-.5.2-.5.5-.5.5.2.5.5"/><path d="M628.3 522.7c.4.3 1 .3 1.4 0 .3-.4 0-.7-.7-.7s-1 .3-.7.7M628 525.5c0 .3.2.5.5.5s.5-.2.5-.5-.2-.5-.5-.5-.5.2-.5.5M628.3 528.7c.4.3 1 .3 1.4 0 .3-.4 0-.7-.7-.7s-1 .3-.7.7M635 528.5c0 .3.2.5.5.5s.5-.2.5-.5-.2-.5-.5-.5-.5.2-.5.5M631.3 529.7c.4.3 1 .3 1.4 0 .3-.4 0-.7-.7-.7s-1 .3-.7.7M637.4 530.2c-.4.7-.3.8.4.4s1.2-.9 1.2-1.2c0-.8-.9-.4-1.6.8M646 532.5c0 .3.2.5.5.5s.5-.2.5-.5-.2-.5-.5-.5-.5.2-.5.5M647 538.5c0 .3.2.5.5.5s.5-.2.5-.5-.2-.5-.5-.5-.5.2-.5.5M652 540.1c0 .5.5.7 1 .4.6-.3 1-.8 1-1.1 0-.2-.4-.4-1-.4-.5 0-1 .5-1 1.1M660.5 542c.3.5 1.1 1 1.6 1 .6 0 .7-.5.4-1-.3-.6-1.1-1-1.6-1-.6 0-.7.4-.4 1M668 550.5c0 .3.2.5.5.5s.5-.2.5-.5-.2-.5-.5-.5-.5.2-.5.5M347.5 524.6c5.1 3.8 14.7 9.4 14.3 8.3-.5-1.4-13.7-9.8-15.3-9.8-.5 0-.1.7 1 1.5M488.5 531.6c-7.7 4.6-15.1 9.1-16.5 10-1.4.8-3.3 1.8-4.2 2.1-1 .3-1.8.9-1.8 1.4s-.4.9-.9.9-7.8 4.1-16.3 9.1c-19.5 11.6-20.1 11.9-19.4 12.6.3.3 1.1.1 1.8-.4.7-.6 3.8-2.4 6.8-4 8-4.4 12.8-7.1 15.7-9 1.3-.9 3.8-2.4 5.3-3.2 11.5-6.4 45-26.7 45-27.4 0-1.3-1.4-.6-15.5 7.9M403 527.4c-3 1.8-12.1 7.2-20.2 12-8.2 4.8-14.8 9.1-14.8 9.6 0 1.2 1.7 1.3 2.2.2.3-.8 5.7-4.1 14.8-9.2 11.6-6.4 24.9-14.6 25-15.3 0-1.3-1.5-.7-7 2.7M364 542c0 3.3.4 6 1 6s1-2.7 1-6-.4-6-1-6-1 2.7-1 6M740.7 547.3c-1.5 1.1-1.7 2.7-1.5 12.2l.3 11 39.5.1c21.7.1 41.2-.1 43.3-.3 3.8-.5 3.8-.5 3.5-12.2l-.3-11.6-41.5-.3c-32.5-.2-42 .1-43.3 1.1m83.3 10.6c0 5.5-.4 10.2-.9 10.5-.4.3-18.8.6-40.7.6l-39.9.1-.3-10.5-.3-10.6H824z"/><path d="M759.1 552.4c-1 1.7-1 2.9-.2 4.3.7 1.4.7 2.3-.1 3.1-.6.6-.8 2.2-.4 3.7.5 2.1 1.2 2.6 3.4 2.3 2.6-.3 2.7-.5 2.9-6.8.1-6.4-.8-9-3.2-9-.6 0-1.7 1.1-2.4 2.4m3.7 2.1c-.2 1.4-.7 2.6-1.3 2.6-.5 0-1.1-1.2-1.3-2.6-.2-1.8.1-2.5 1.3-2.5s1.5.7 1.3 2.5m.7 7.5c0 3.6-2.9 3.3-3.3-.3-.3-2.3 0-2.8 1.5-2.5 1.2.2 1.8 1.2 1.8 2.8M780.7 550.7c-.4.3-.7 2.4-.7 4.5 0 3.4.3 3.9 1.9 3.3 1.4-.4 2.1 0 2.6 1.4.9 2.8-.3 4.3-2.7 3.5-1.5-.4-1.9-.2-1.6.7.6 1.9 3.9 2.4 4.9.7 1.6-2.4 1-6.7-1.1-8-2.7-1.7-2.6-4.8.1-4.8 1.1 0 1.7-.5 1.4-1-.7-1.1-3.8-1.3-4.8-.3M791.1 551.9c-1.4 2.5-1.4 4.1-.1 4.1.6 0 1-.9 1-2s.5-2 1-2c1.6 0 1.2 4.5-1 9.4-1.9 4.6-1.9 4.6.9 4.6 2.1 0 3-.6 3.4-2.1.5-1.7.3-1.8-.9-.8-2.3 1.9-2.7.4-.9-3.1 2-3.9 1.6-9.4-.7-9.8-.9-.2-2.1.6-2.7 1.7M802 550.7c0 .4.9 1.4 2.1 2.1 1.8 1.2 2 1.1 1.7-.5-.3-1.7-3.8-3.2-3.8-1.6M750 558.5c0 5.3.4 7.5 1.3 7.5s1.1-2 .9-7.5c-.5-9.7-2.2-9.8-2.2 0M800.9 556.5c-.6 5.3.8 9.5 3.1 9.5 1.2 0 2.1-1 2.5-2.9.7-3.3-.9-7.1-3-7.1-.7 0-1.5-.8-1.8-1.8-.2-.9-.6.1-.8 2.3m4.1 4.5q0 3-1.5 3t-1.5-3 1.5-3 1.5 3M769.4 558.7c1.2 1.2 5.4 1.4 6.1.3.4-.6-.8-1-3.1-1-2.1 0-3.4.3-3 .7M331.1 554.1c-3.4 2.1-6.5 3.9-6.7 3.9s-2.7 1.4-5.6 3.1c-2.9 1.8-6.8 4-8.5 5-1.8 1.1-5 2.9-7 4.1-2.1 1.2-6.7 3.8-10.3 5.8s-8.9 5.1-11.8 6.8c-2.9 1.8-5.5 3.2-5.7 3.2-1.3 0-12.5 7.3-12.5 8.2 0 .5 1.2.2 2.8-.8 1.5-1 5.6-3.4 9.2-5.4 10-5.6 27.6-15.7 36.8-21.1 4.5-2.7 8.4-4.9 8.6-4.9.6 0 18.1-10.2 19.1-11.1 2.4-2.3-2.6-.4-8.4 3.2M686.6 556.6c-3 2.9-1.5 5.6 5.4 10.1 3.6 2.3 7.7 5.2 9.3 6.5 1.5 1.3 4 3 5.5 3.8 14.2 8 17.2 10.2 17.2 12.5 0 1.3.5 2.7 1 3 .6.3 1 1.9 1 3.4 0 4.2 3.2 7.5 10.6 11.1 9.9 4.8 13 3.4 14.7-6.4 1.1-6.6 1.1-6.8-1.3-8.7-1.4-1-3-1.9-3.6-1.9-.7 0-1.5-1.1-1.8-2.4-.5-2.1-2-3.4-9.7-8.1-.9-.6-3.6-2.1-6-3.4-5.7-3-9.9-6-9.9-7 0-.4 1.6-2.4 3.5-4.4 3-3.2 4.1-3.7 7.9-3.7 2.5 0 4.8-.5 5.1-1 .4-.6-1.4-1-4.7-1-5 0-5.5.2-9.1 4.5-4.4 5.1-5.3 5.3-9.9 2.5-1.8-1.1-4.3-2-5.5-2s-2.4-.4-2.8-.9c-.6-1.1-10.7-6.7-13.5-7.6-1-.3-2.5.2-3.4 1.1m9.2 3.1c7.4 4.2 7.3 4.1 5.7 7.4-1.6 3-1.5 3.1-14.4-5-2-1.2-.4-5.1 2-5.1 1.1 0 4.1 1.2 6.7 2.7m15.5 7.7c2.3 1.3 6.7 3.8 9.7 5.6s6.4 3.8 7.5 4.4c14.3 8.1 15.5 9.2 15.5 13.5 0 2.5-1.1 3.2-5.1 3.3-2 .1-3.7-.6-4.8-1.9-.9-1.1-8.5-5.9-16.8-10.8-13.7-7.8-15.3-9.1-15.3-11.4 0-2.9 1.6-5.1 3.8-5.1.7 0 3.2 1.1 5.5 2.4m18.5 23c1.5.8 3.5 2.4 4.4 3.5 2.3 2.7 7.2 2.7 9.9 0 2.3-2.3 4.7-2.2 6.3.3 1.8 2.9-.4 5.3-5.2 5.6-4.4.3-13.6-3.7-17.9-7.7-3.6-3.4-2.4-4.2 2.5-1.7m.6 8.1c1.5 3.5 5 4.9 5.8 2.4.3-.9.9-.9 2.5 0 1.2.6 4 1.1 6.3 1.1 3.9 0 4.1.1 3.8 2.7-.2 2.3-.8 2.9-3.4 3.1-6.2.6-17.4-6.1-17.4-10.4 0-3.3.7-3 2.4 1.1m3.6 1.1c0 .8-.4 1.2-1 .9-.5-.3-1-1-1-1.6 0-.5.5-.9 1-.9.6 0 1 .7 1 1.6M339.5 564.9c-.8.8-57.3 33.4-72.5 41.9-5.5 3.1-5.5 3.1-4.8 3.8.4.3 2.4-.6 4.7-2 2.2-1.4 4.3-2.6 4.6-2.6.2 0 4.9-2.6 10.2-5.8 5.4-3.2 18.8-10.9 29.8-17.1 27.2-15.4 30.5-17.4 30.5-18.3 0-1.1-1.4-1-2.5.1"/><path d="M406.7 579.6c-2.1 1.4-5.2 3.3-7 4.3s-8.8 5.1-15.7 9.1-14 8.1-15.7 9.1c-1.8 1.1-5 2.9-7 4.1-8.8 5-38.6 21.8-38.8 21.8-.1 0-5.8 3.1-12.6 7-8.4 4.8-13.4 7-15.7 7-3 0-5.5-1.2-21.2-10.3-4.7-2.7-9.7-5.5-21-11.7-5.2-2.9-11-6.1-12.7-7.2-1.8-1.1-3.3-1.5-3.3-1 0 .6 1.2 1.7 2.7 2.5 1.6.8 6.2 3.3 10.3 5.7 4.1 2.3 10 5.6 13 7.3 3 1.6 6.7 3.8 8.2 4.9 1.4 1 2.9 1.8 3.2 1.8s4 2.1 8.3 4.6c11.4 6.7 13.6 6.7 24.8.1 2.2-1.3 6.5-3.7 9.5-5.4 9.4-5.1 15.3-8.4 22-12.3 3.6-2 8.5-4.8 11-6.2 8.2-4.6 13.4-7.5 18-10 2.5-1.4 12.2-7.1 21.6-12.6s18.5-10.7 20.3-11.6c1.7-.9 3.1-2.1 3.1-2.6 0-1.5-1.1-1.1-5.3 1.6M548.4 579.3c-.2.7-.3 6.2-.2 12.3l.3 10.9 23.5-.2c12.9-.1 32.6-.2 43.8-.2l20.2-.1v-24h-43.5c-35.1 0-43.7.3-44.1 1.3M634 590v10l-27.2.2c-15 .1-33.6.2-41.3.2l-14 .1-.3-10.3-.3-10.2H634z"/><path d="M556.7 584c-.6 2.4.8 3.6 1.7 1.4 1.2-3 2.4-.4 1.5 3.3-1.1 4.9-1.1 9.3 0 9.3.4 0 1.1-2.9 1.5-6.5s.9-7.2 1.2-8c.5-1.1-.1-1.5-2.4-1.5-2.1 0-3.1.6-3.5 2M569.2 583.2c-1.8 1.8-1.5 12.3.3 13.8 1.2 1 1.8 1 3 0 2.9-2.4 1.6-15-1.5-15-.3 0-1.1.5-1.8 1.2m2.8 6.8c0 3.3-.4 6-1 6s-1-2.7-1-6 .4-6 1-6 1 2.7 1 6M589.4 584.4c-.9 3.7-.1 6 2.4 7.1 2.2 1 2.8 2.5 1.5 3.8-.3.4-1.3.1-2.1-.5-1.2-1-1.4-.9-1.1.7.6 3.1 3.7 3.1 4.9 0 1.3-3.4 1.3-9.1 0-11.6-1.5-2.7-4.8-2.4-5.6.5m4.6 2.6q0 3-1.5 3t-1.5-3 1.5-3 1.5 3M600.5 583.2c-.9 2.9-1.1 10.4-.4 12.5.5 1.4 1.7 2.3 2.9 2.3 3.4 0 4.3-4.8 2.4-13.8-.5-2.4-4.2-3.1-4.9-1m3.5 3.3c0 1.4-.4 2.5-.9 2.5-1.2 0-2.3-2.9-1.5-4.1 1-1.8 2.4-.9 2.4 1.6m.8 6.7c-.2 1.3-1 2.3-1.8 2.3s-1.6-1-1.8-2.3c-.3-1.7.2-2.2 1.8-2.2s2.1.5 1.8 2.2M611 586c0 3.3.3 4 2 4 1.5 0 2 .7 2 2.4 0 2.7-2.1 4.7-2.8 2.8-.2-.7-.8-.9-1.3-.6-1.3.8.9 3.4 2.7 3.4 1.9 0 3.7-4.8 2.9-7.7-.3-1.4-1.3-2.3-2.5-2.3-2.6 0-2.6-3 0-3.7 2.8-.7 2.5-2.3-.5-2.3-2.2 0-2.5.4-2.5 4M622 587.7c-.6 3.2-1.4 6.8-1.7 8-.3 1.3-.1 2.3.5 2.3s1.2-1.2 1.4-2.8.9-2.7 1.8-2.7 1.6 1.1 1.8 2.7c.3 2.7 2.2 4 2.2 1.5s-3.3-14.7-4-14.7c-.4 0-1.3 2.6-2 5.7m2.5 1.3c.3.5.1 1-.4 1-.6 0-1.1-.5-1.1-1 0-.6.2-1 .4-1 .3 0 .8.4 1.1 1M580 590c-2.1.6-2.2.8-.8 1.4 2.1 1 5.2.4 5.1-.9-.2-1.3-1.3-1.4-4.3-.5M187 584.4c.8.7 4 2.7 7 4.3 3 1.7 11.4 6.5 18.7 10.7 13.5 7.8 15.5 8.7 13.3 6.1-.7-.8-1.7-1.5-2.2-1.5-.6 0-2.2-.8-3.6-1.8-1.5-1.1-5.2-3.2-8.2-4.9s-9.9-5.5-15.2-8.7c-9.8-5.6-12.5-6.8-9.8-4.2M238 586.4c0 .5 12.6 7.6 13.4 7.6.3 0 .6-.5.6-1 0-.6-.4-1-1-1-.5 0-3.2-1.4-6-3-4.7-2.8-7-3.6-7-2.6M404.5 590.2c-15.8 9.3-31.4 18.3-37.5 21.6-5.4 3-16.9 9.4-46.5 26.2-2.2 1.3-7.4 4.1-11.5 6.3-4.1 2.1-7.9 4.3-8.5 4.8-1.8 1.8-11.3 1-15.2-1.3-8.2-4.7-35.5-19.8-35.8-19.8-.2 0-3.3-1.8-6.9-4s-6.9-4-7.3-4c-.5 0-1.9-.9-3.3-2-2.7-2.1-4-2.5-4-1.2 0 .5 1.5 1.6 3.3 2.5 1.7.9 4.6 2.5 6.2 3.5 3.4 1.9 13.8 7.8 20.5 11.5 2.5 1.3 6.8 3.7 9.5 5.2 2.8 1.5 5.5 3 6 3.5.6.4 4.5 2.6 8.8 4.9 11 6 13.4 5.8 26.7-1.7 5.8-3.2 15.7-8.8 22-12.4s13.8-7.7 16.5-9.3c2.8-1.5 12-6.7 20.5-11.5 23.3-13.1 40.2-22.9 43-25.1 4.3-3.2.8-2-6.5 2.3M187 593.4c0 .5 16.1 10.2 24 14.4 3.6 1.9 7.1 3.9 7.9 4.6 1.1.8 1.3.8 1-.3-.3-.7-2.5-2.5-4.9-3.8-2.5-1.4-9.5-5.4-15.7-8.9-10.8-6.1-12.3-6.9-12.3-6M257.8 598.7c-.8 1.4.3 10.3 1.3 10.3.4 0 .5-2.4.2-5.3-.6-5.6-.8-6.3-1.5-5M226.3 611.2c-2 1-3.2 2.8-1.8 2.8 1.2 0 5.5-2.4 5.5-3.2 0-1-.9-.9-3.7.4M211.1 620.1c-1.8 1.1-3.1 2.3-2.8 2.6.6.5 7.7-3.4 7.7-4.3s-1.6-.3-4.9 1.7M198.3 627.4c-2 .9-3.1 2.6-1.8 2.6 1.2 0 5.5-2.4 5.5-3.2 0-1-.8-.9-3.7.6M415.2 633c0 1.9.2 2.7.5 1.7.2-.9.2-2.5 0-3.5-.3-.9-.5-.1-.5 1.8M185.3 635.1c-1.8 1.2-3.3 2.5-3.3 3 0 .9 6.7-2.8 7.6-4.2.9-1.5-.9-1-4.3 1.2M508.3 637.5c0 2.7.2 3.8.4 2.2.2-1.5.2-3.7 0-5-.2-1.2-.4 0-.4 2.8M699.2 642.2c-1.7 1.7-1.5 9.3.3 10.8.8.7 2.2 1 3 .6 2.2-.8 2.1-11.1-.1-12-2-.8-1.8-.8-3.2.6m3.4 3.2c.7 3.1.2 5.8-1.2 6.3-1.6.5-2.4-2.2-1.7-5.7.7-3.6 2-3.9 2.9-.6M717.5 642.6c-1.7 1.8-1.9 3-.5 3.9.6.4.5 1.3-.3 2.5-1.6 2.7 1.4 6 4.1 4.4 1.5-1 1.9-4.5 1.3-10.5-.2-1.5-3.2-1.7-4.6-.3m3.3 2.2c.2.7-.3 1.2-1.2 1.2s-1.6-.7-1.6-1.6c0-1.7 2.2-1.4 2.8.4m.2 5.8c0 .8-.7 1.4-1.5 1.4-1.5 0-2.1-2.1-.9-3.3 1-.9 2.4.2 2.4 1.9M727.2 641.9c-.9.5-1.2 2.5-1 6.2.3 4.7.6 5.4 2.5 5.7 1.7.3 2.4-.3 2.9-2.2.7-2.9-.9-5.6-3.3-5.6-.8 0-1.3-.6-1-1.3.2-.6 1.4-1.1 2.6-1 2.4.3 2.8-1.2.5-2.1-1.9-.7-1.6-.7-3.2.3m3.3 8.1c0 2.2-2.9 1.8-3.3-.3-.3-1.4.1-1.8 1.5-1.5 1 .2 1.8 1 1.8 1.8M745.5 642.6c-1.8 1.8-2 8.5-.3 10.2 3.2 3.2 6.5-1.2 5.4-7.1-.8-4-2.9-5.3-5.1-3.1m3.3 5.2c.2 3.3 0 4.2-1.2 4.2s-1.6-1.1-1.6-4.6c0-5.9 2.4-5.5 2.8.4M755.3 641.7c-2 .7-1.7 11.2.3 12 .8.3 2.3-.1 3.2-1 1.3-1.3 1.3-2.1.4-4.2-.6-1.4-1.9-2.5-2.8-2.5-.8 0-1.4-.6-1.1-1.3.2-.6 1.4-1.1 2.6-1 2.4.3 2.8-1.2.5-2.1-.9-.3-1.6-.6-1.7-.5-.1 0-.8.3-1.4.6m2.7 8.3c0 1.1-.7 2-1.5 2s-1.5-.9-1.5-2 .7-2 1.5-2 1.5.9 1.5 2M170.5 644c-2.3 2.6-.8 2.6 2.5 0 1.8-1.4 2.1-2 .9-2-.9 0-2.4.9-3.4 2M689.4 643.4c-.9 2.3.3 4.7 2.6 5.3 3.1.8 2.6 3.6-.5 3-1.6-.3-2.4 0-2.2.7.2.6 1.3 1.2 2.5 1.4 2.5.4 3.5-2.4 3-7.9-.2-2.6-.8-3.5-2.6-3.7-1.3-.2-2.5.3-2.8 1.2m4.3 1.2c.9 2.3-1.1 3.8-2.6 2-1.3-1.6-.7-3.6 1-3.6.5 0 1.2.7 1.6 1.6M708.8 642.7c1.9.4 2.3.9 1.7 2.6-.4 1.2-.9 3.8-1.1 5.7-.4 3.4-.4 3.3 1-.8.8-2.3 1.9-4.9 2.5-5.6 1.5-1.8.3-2.6-3.3-2.5-2.5.1-2.7.3-.8.6M764.4 643.2c-.4.6-.2 1.4.4 1.6.7.2 1.2 2.3 1.2 5 0 3 .3 4.3 1 3.6 1.1-1.1.1-11.4-1.1-11.4-.4 0-1.1.5-1.5 1.2M772.7 642.7c-.4.3-.7 1.3-.7 2.2.1 1.4.2 1.4 1.4-.2.7-.9 1.6-1.7 2-1.7 1.3 0 .5 3.6-1.4 6-2.8 3.6-2.5 5 1.1 5 1.7 0 2.8-.4 2.4-1-.3-.5-1.2-.7-2-.3-2.1.8-1.8-1.3.6-4.7 1.2-1.6 1.9-3.6 1.6-4.4-.6-1.6-3.8-2.2-5-.9"/><path d="M182.5 682.7c.8 54.1 1.1 59.9 3.5 63.4 1.1 1.5 5.1 4.4 8.8 6.5s8.3 4.6 10.2 5.7c8 4.6 20 11.2 27 15 4.1 2.2 10.1 5.5 13.3 7.4 3.2 1.8 6 3.3 6.2 3.3s2.8 1.4 5.7 3.1c5 3 6.6 3.9 15.3 8.9 1.9 1.1 5.1 2.9 7 4s5.2 2.9 7.2 4.1c8.2 4.6 12.5 3.2 41.1-14 5.6-3.3 10.4-6.1 10.6-6.1s3.3-1.7 6.7-3.8c3.5-2.1 10-5.8 14.4-8.2 4.4-2.3 8.5-4.6 9-5 .9-.7 3.2-2 17.7-9.9 2.6-1.4 11.3-6.4 19.5-11 8.1-4.6 17.7-9.9 21.3-11.9 3.6-1.9 9.4-5.2 13-7.2 6.6-3.8 10.5-6 24.5-13.8 17.9-10 34.2-19.5 37.3-21.9 6-4.5 6.2-5.3 6.9-26.9.3-11 .2-19.5-.3-19.1s-.9 4-.9 8c-.3 30.1-.3 30.5-3.2 33.6-2.3 2.4-18.4 13.1-19.8 13.1-.2 0-2.8 1.4-5.7 3.2-7.2 4.3-17.8 10.2-26.8 15.1-4.1 2.2-8.7 4.8-10.2 5.9-1.4 1-2.9 1.8-3.2 1.8-.2 0-3.1 1.5-6.3 3.4-3.2 1.8-7.9 4.5-10.5 6-2.7 1.4-6.9 3.8-9.5 5.2-2.7 1.5-7.7 4.4-11.3 6.4-3.6 2.1-12.8 7.2-20.5 11.5s-15.6 8.7-17.5 9.8-6.4 3.6-10 5.5-7.2 4-8 4.6c-.8.7-2.8 1.8-4.5 2.6-1.6.8-8.6 4.8-15.5 8.9-21.3 12.5-27.5 15.4-31.5 14.8-3-.5-29.1-14.6-47.8-25.8-2.7-1.6-5.1-2.9-5.3-2.9-.5 0-14.9-7.9-28.9-15.7-3.3-1.9-6.8-3.7-7.7-4-1-.3-1.8-.9-1.8-1.4s-.4-.9-.9-.9c-.6 0-3.7-1.6-7-3.5-10-5.9-9.5-2.7-9.9-58.3-.3-29.8-.8-48.2-1.4-48.2s-.7 14.3-.3 38.7M671.5 647.1c-5.5.4-16.8.7-25.2.8-15.2.1-15.2.1-20 4.2-9.7 8.3-16.9 13.9-17.7 13.9-.3 0-.6-1-.6-2.3 0-5.5-8.9-9.3-14.8-6.3-2.3 1.2-3.3 2.5-3.8 5.3-.4 2-1.3 4.7-2 6.1-1.9 3.6 0 8.1 4.2 9.8 3.3 1.4 3.4 1.6 3.4 7.2 0 3.2.5 6.3 1.2 7 1.8 1.8 5.6 1.4 7.8-.8 1.6-1.6 1.8-2.8 1.3-6.9-.5-4.7-.4-5.2 2.7-8.1 2.8-2.6 3.1-3.4 2.6-6.4-.5-2.5-.3-3.7.7-4.3.8-.4 3.4-2.4 5.8-4.5 15.2-12.7 11.9-11.4 32.1-12.1 10-.4 21.6-.7 26-.7 4.3 0 7.8-.4 7.8-.9 0-1.6-1-1.7-11.5-1m-69 11.9c5.8 2.2 3.3 6.9-3.8 7-4.8 0-7.7-1.5-7.7-4.1 0-3.3 6.3-4.9 11.5-2.9m-8.5 10.7c0 2.2-.2 2.4-1.5 1.3-.8-.7-1.5-2.1-1.5-3.1 0-1.2.5-1.6 1.5-1.3.8.4 1.5 1.7 1.5 3.1m12.6-2.1c-.3.9-.6 2-.6 2.5s-.4.9-1 .9c-.5 0-1-1.1-1-2.5 0-1.6.6-2.5 1.6-2.5 1.1 0 1.4.5 1 1.6m-4.2 2c.9 2.3-.2 3.4-3.5 3.4-2.4 0-2.9-.4-2.9-2.5s.5-2.5 2.9-2.5c1.7 0 3.1.6 3.5 1.6m-11.3 1.8c3.6 4.5 12.3 4.2 16.1-.7 1.8-2.2 1.8-2.2 1.8.4 0 3.1-1.2 4.2-6.2 5.8-6.6 2.2-14.8-1.2-14.8-6.1 0-2.4.8-2.3 3.1.6m10.4 9.6c-.3.5-1.2 1-2 1s-1.7-.5-2-1c-.4-.6.5-1 2-1s2.4.4 2 1m2 3.1c-.9 1.3-6.2 1.1-7.1-.3-.5-.7-.1-.9 1.3-.6 1.2.3 2.7.2 3.4-.3 1.6-.9 3.2-.2 2.4 1.2m0 3c-.4.5-2.2.9-4.1.9-4.6 0-3.7-1.4 1-1.7 2-.1 3.4.3 3.1.8m-1 3.9c-.3.5-1.7 1-3.1 1-1.3 0-2.4-.5-2.4-1 0-.6 1.4-1 3.1-1s2.8.4 2.4 1M737.3 648.7c.9.2 2.3.2 3 0 .6-.3-.1-.5-1.8-.5-1.6 0-2.2.2-1.2.5M156.3 651.7c-3.4 2.3-2.8 3.7.7 1.6 1.7-.9 3-2.1 3-2.5 0-1.2-1.2-.9-3.7.9"/><path d="M293.4 656.9c.3.4.7 22.1.8 48.2.5 83.7.8 97.9 2 97.9.8 0 .9-3.2.5-10.8-.4-5.9-.8-35-.9-64.7-.3-61.8-.6-71.5-1.9-71.5-.6 0-.8.4-.5.9M141.3 660.7c-1.8.9-3.3 2-3.3 2.5 0 1.2.5 1 4.4-1.3 5.5-3.2 4.6-4-1.1-1.2M127.2 669.2c-3.5 2.2-3.9 2.8-1.9 2.8 1.6-.1 6.3-3.7 5.7-4.4-.3-.3-2 .4-3.8 1.6M113 678c-1.4 1.1-2.2 2-1.8 2 1.4 0 5.8-2.3 5.8-3.2 0-1.3-1.3-.9-4 1.2M100.3 685.2c-1.3.6-2.3 1.5-2.3 2 0 1.3 1.3.9 4-1.2s1.8-2.5-1.7-.8M87 693.5c-1.9 2.3-.8 2.6 2 .5 1.9-1.5 2.1-2 .9-2-.9 0-2.2.7-2.9 1.5M600.2 699c0 1.9.2 2.7.5 1.7.2-.9.2-2.5 0-3.5-.3-.9-.5-.1-.5 1.8M74.5 701c-1.6 1.1-2.6 2-2.2 2 1.1 0 6.7-2.9 6.7-3.5 0-1-1.6-.4-4.5 1.5"/><path d="M57.5 703.9c-10 4.8-14.9 12.5-11.7 18.7 1.9 3.8 5.2 7.4 6.8 7.4.7 0 1.4.4 1.6.8.2.5 2.8 2.2 5.8 3.9 8.2 4.6 26.6 15 34.3 19.6 6.7 3.9 6.8 4.1 6.3 7.6-.3 2-.1 10.1.3 18.1l.8 14.5.1-17.3c.1-10.8.6-17.2 1.2-17.2s6.2 3.1 12.6 7c6.4 3.8 11.8 7 12 7 .3 0 2.6 1 5.2 2.2 3.5 1.8 6.4 2.3 11.7 2.2 6.6 0 7.7-.4 20-6.7 14.5-7.4 16.3-9.2 14.1-13.5-3.3-6.3-3.1-6.3-19.1 1.4-9.3 4.5-10.6 4.9-17.6 4.9-6.9 0-8-.3-13.5-3.6-3.2-2-7.9-4.8-10.4-6.1-5.8-3.2-9.4-5.3-20.5-11.8-4.9-2.9-10.6-6.1-12.5-7.2C66 725 57.1 719 57.6 717.6c.3-.7 3.2-2.5 6.5-3.9 5.2-2.3 5.9-2.9 5.9-5.4-.1-6.7-4.5-8.3-12.5-4.4m10.5 1c2.2 4.2.7 5.6-13.2 11.9-.4.2-.8-.9-1.1-2.5-.4-2.7-.4-2.7-.6-.2 0 1.6.9 3.4 2.7 5 2.2 2.2 25.1 16.2 35.7 22 1.7.9 2.9 2.4 2.9 3.3-.2 1.9 1.2 2.2 1.9.3.3-.9.9-.8 2.3.4 1 .9 4.2 2.9 6.9 4.3 9.3 4.9 16 8.9 20.5 12.1 8.7 6.1 17.7 6.9 27.4 2.5 3.6-1.7 9.6-4.4 13.2-6 7.7-3.5 7.2-3.5 9.6-1.3 3.5 3.1 1.2 7.2-5.7 10.2-1.6.7-3.9 1.8-5 2.4-13.3 7.3-12.7 7.1-21.5 7.1-9.1.1-7.4.7-26.5-9.8-1.1-.6-4.6-2.8-7.8-4.9-3.1-2-5.9-3.7-6.2-3.7s-3.4-1.8-7-4-6.8-4-7-4c-.3 0-3.5-1.8-7.1-4s-6.7-4-6.9-4-3.3-1.8-6.9-4-6.8-4-7.1-4c-1.4 0-11.6-7.3-13.4-9.6-4.8-6.1-1.1-13.7 9.1-18.8 6.3-3.1 9.4-3.3 10.8-.7"/><path d="M56.3 709.7c.4.3 1 .3 1.4 0 .3-.4 0-.7-.7-.7s-1 .3-.7.7M57 727.5c0 .3.2.5.5.5s.5-.2.5-.5-.2-.5-.5-.5-.5.2-.5.5M172 757.5c0 .3.2.5.5.5s.5-.2.5-.5-.2-.5-.5-.5-.5.2-.5.5M120.3 760.7c.4.3 1 .3 1.4 0 .3-.4 0-.7-.7-.7s-1 .3-.7.7M166 761c0 .7.3 1 .7.7.3-.4.3-1 0-1.4-.4-.3-.7 0-.7.7M168 761c0 .5.5 1 1 1 .6 0 1-.5 1-1 0-.6-.4-1-1-1-.5 0-1 .4-1 1M162.3 764.7c.4.3 1 .3 1.4 0 .3-.4 0-.7-.7-.7s-1 .3-.7.7M142.5 769c-.3.5-.1 1 .4 1 .6 0 1.1-.5 1.1-1 0-.6-.2-1-.4-1-.3 0-.8.4-1.1 1M600 712c0 2.2.5 4 1 4 .6 0 1-1.8 1-4s-.4-4-1-4c-.5 0-1 1.8-1 4M600 725.4c0 1.9.5 3.8 1 4.1.6.4 1-1 1-3.4 0-2.3-.4-4.1-1-4.1-.5 0-1 1.5-1 3.4M447.2 726c.2.6 7.5 4.9 16.3 9.4s18.9 9.8 22.5 11.8c3.6 1.9 9.9 5.3 14 7.3 12.1 6.1 16 9.2 16 12.3-.1 2.8-1.4 3.9-20 15.7-4.1 2.6-12.3 7.9-18.2 11.7-5.9 3.9-11.2 6.7-11.7 6.3-.6-.3-3.1 1.2-5.5 3.5s-7.1 5.8-10.3 7.8-17.3 10.8-31.3 19.7c-14 8.8-30 18.7-35.5 21.9-5.5 3.3-14 8.3-19 11.2-9.9 5.7-15.6 8.5-22.5 10.7-8.9 3-28.6 11.2-35.7 14.9-4 2.1-8.3 3.8-9.5 3.8-1.3 0-8.4-3.1-15.8-6.8-7.4-3.8-23.6-12-36-18.2-12.4-6.3-22.7-11.7-23-12s-3-1.8-6-3.3-9.5-5-14.5-7.7c-4.9-2.8-10.9-6-13.2-7.2-12.1-6.2-4.9-10.7 37.5-23.9 1.8-.6 6.2-2.8 9.8-5.1 7.3-4.4 9.1-5.4 20.8-11.8 4.4-2.4 7.5-4.5 6.9-4.7-1.1-.4-12.2 5.3-17.3 8.7-1.4 1-4.7 2.9-7.5 4.4-2.7 1.5-6.8 3.8-9 5.1-2.2 1.4-5.1 2.4-6.5 2.4-2.1 0-1.8-.3 1.4-1.5 2.1-.8 4.4-1.8 5-2.3.6-.4 3.4-2.1 6.1-3.6 2.8-1.6 8.2-4.6 12-6.8 3.9-2.2 8.3-4.7 10-5.5 1.6-.9 2.4-1.7 1.7-2-.7-.2-2.9.6-5 1.8-2 1.3-5.2 3.1-7 4.2-1.8 1-6.6 3.7-10.5 6-11.2 6.4-12.2 6.8-18.4 7.9-3.2.5-7.8 1.4-10.3 1.9-2.5.4-7 1.3-10 1.8-7.2 1.3-8.9 2.1-18.9 8.4-9.7 6.1-11.2 8.6-8.6 14.1.9 1.9 3.2 4.3 5.4 5.5 3.8 2.2 3.9 2.3 4.6 9.8.4 4.1.5 7.7.2 8-.2.2-7 .5-15.1.5-8 .1-14.9.6-15.2 1-.3.5 6.7.9 15.4.9 13 0 16.2.3 17.2 1.5.7.9 6.7 4.4 13.4 7.9 6.6 3.5 15.7 8.3 20.1 10.6s13.6 7.2 20.5 10.8c6.9 3.5 16.3 8.5 21 11s14.6 7.6 22 11.4c15.6 7.9 18.7 8.4 26.5 4 2.8-1.6 7.3-4.1 10-5.6 2.8-1.6 7-4.1 9.5-5.6 4.7-2.9 21.3-12.5 29-16.8 2.5-1.3 7-3.9 10-5.7s8.9-5.2 13-7.5c4.1-2.4 8.6-5 10-5.9 1.4-.8 4.1-2.4 6-3.4 6.8-3.8 47-27.9 61.3-36.8 4.2-2.7 11.4-7.2 16-10.1 7.3-4.5 24.5-15.5 33.3-21.2 4.7-3 5.5-4.9 6.1-14.9.6-8.7.8-9.3 4-12.3 2.6-2.5 3.3-3.9 3.3-7.1 0-5-2.7-7.7-13-13.1-23.3-12.2-29.9-15.6-43.4-22.7-8.2-4.2-14.7-7.2-14.4-6.5m64.8 49.1c-4.2 3.7-19.1 13.2-19.6 12.6-.3-.2 2.8-2.5 6.8-5s7.8-5 8.3-5.4c6.9-5.7 10.4-7.3 4.5-2.2m-2.9 12.7c-.1 3.7-.4 7.5-.7 8.5-.5 1.7-17.5 13.4-37.3 25.7-4 2.5-10.2 6.5-13.9 8.9-9 5.8-71 43.1-71.8 43.1-.3 0-1.8.8-3.2 1.8-1.5 1.1-5.2 3.2-8.2 4.9-10.7 5.9-15.6 8.6-22.9 13-4.1 2.5-8.8 5.3-10.5 6.3-1.7.9-7.1 4.1-11.9 6.9-4.9 2.8-9.1 5.1-9.4 5.1s-1.7.8-3.1 1.8c-7.3 5.1-14.5 8.2-18.9 8.2-4.6 0-10.5-2.6-39.3-17.7-6.3-3.3-16-8.4-21.5-11.3s-15.6-8.2-22.5-11.9c-6.9-3.6-16.1-8.4-20.5-10.7-10.5-5.4-11.7-7.1-11.3-16.1l.3-7.2 10 5.5c10.9 6 31.3 16.7 55.6 29.2 8.6 4.4 21.7 11.2 29.2 15.1 20 10.5 21.6 10.3 49.7-6.1 5.2-3 11.5-6.6 14-8s10.4-5.8 17.5-9.8c7.2-4 14.1-8 15.5-9 1.4-.9 3.2-2 4-2.3.8-.4 3.2-1.7 5.2-2.9 2-1.3 8.8-5.4 15-9.2 9.8-6 17.5-10.8 43.3-27.1 2.8-1.7 8.8-5.5 13.5-8.5 4.7-2.9 13.5-8.5 19.5-12.3 6.1-3.9 13.3-8.5 16-10.3 2.8-1.7 7.9-5 11.4-7.3s6.7-3.9 6.9-3.6c.3.3.4 3.5.3 7.3M489 790c-3.8 3-9 6-9 5.2.1-.7 10-7.2 11-7.2.3 0-.6.9-2 2m-10.5 6.9c-.6.5-4.6 3.2-9 5.9-4.4 2.8-8.4 5.5-9 6-.5.4-4.6 2.9-9 5.6-7.6 4.5-12.6 7.6-34.5 21.6-16.1 10.3-21.3 13.5-26 16.1-2.5 1.3-4.7 2.6-5 2.9-.7.8-17.3 10.7-24 14.3-3 1.7-6.7 3.8-8.2 4.9-1.4 1-2.9 1.8-3.2 1.8s-4.7 2.4-9.8 5.3c-5.1 3-11.8 6.7-14.8 8.2-3 1.6-6.2 3.4-7 4.1s-4.7 2.8-8.6 4.8c-6.1 3.1-8.1 3.6-13.9 3.6-5.9 0-7.6-.5-13.6-3.7-3.8-2-6.7-3.9-6.4-4.1.2-.2 3 1.1 6.2 2.9 5.2 3 6.6 3.4 13.8 3.4 8.6 0 8.8-.1 24.5-9.5 3-1.8 8-4.6 11-6.3s6.7-3.8 8.2-4.9c1.4-1 5.1-3.1 8.1-4.7 14.6-7.7 49.3-28 58.4-34.2 2.3-1.6 4.4-2.9 4.8-2.9.3 0 3.2-1.7 6.3-3.9 5.3-3.5 17.1-10.9 21.7-13.5 3.3-1.9 10.5-6.5 18.2-11.7 4-2.7 7.5-4.9 7.7-4.9.3 0 3.3-1.8 6.7-4 5.9-3.8 8.4-5 6.4-3.1m-258.6 17.6c-.3.2-5.2 2-11 3.9-5.7 1.9-12.1 4.1-14.1 5-4.8 2-12.5 7.3-13.1 8.8-.6 1.8 1 5.8 2.4 5.8.6 0 2.3.8 3.7 1.9 3.6 2.4 33.7 18.7 45.2 24.4 2.5 1.2 4.7 2.4 5 2.7s12.7 6.7 27.7 14.2c21.1 10.7 28 13.8 31.1 13.8 2.6 0 6.6-1.4 12.3-4.4 4.7-2.4 10.5-5.1 12.9-5.9 2.5-.9 7.1-2.7 10.3-4.1 7.7-3.5 9.2-3.3 3.4.4-2.6 1.6-5 3-5.3 3-.2 0-3.7 2-7.7 4.4-11.8 7.2-21.2 11.6-24.6 11.6-3.1 0-14.6-3.4-16.6-5-.5-.4-9.1-4.9-19-10-42.2-21.8-61.8-32.1-63.5-33.5-.8-.6-4.4-2.6-8-4.5-3.6-1.8-7.6-4.1-9-5-1.4-1-4.4-2.7-6.7-3.9-6.4-3.2-5.9-5.8 2-10.9 10-6.6 15.6-8.8 26.2-10.6 5.5-1 10.2-1.9 10.4-2.2.2-.2 1.8-.4 3.4-.4 1.7 0 2.8.2 2.6.5m-32.9 32c12.5 7 20 11.1 36.3 19.7 1 .5 1.7 1.2 1.4 1.4-.3.3-2.4-.6-4.8-1.9-3.8-2.1-11.9-6.4-33.9-17.9-7.6-4.1-14-8.2-14-9 0-.4 1.7.2 3.8 1.3 2 1.2 7.1 4 11.2 6.4m54.7 29.2c20.2 10.5 29 15.3 27.9 15.3-1 0-41.8-20.9-43-22.1-2-1.9.6-.7 15.1 6.8m32.8 17.3c.3.5.4 1 .1 1s-.8-.5-1.1-1c-.3-.6-.4-1-.1-1s.8.4 1.1 1"/><path d="M297.1 913.7c0 3.5.2 6.3.7 6.3.4 0 .6-2.1.4-4.8-.5-7.5-1-8.2-1.1-1.5M438.4 729.9c.3.4 9.9 5.6 21.3 11.4 11.5 5.8 23.7 12.1 27.3 14.1s8.9 4.9 11.8 6.3c2.9 1.5 5.2 3.4 5.2 4.3 0 .8-2.8 3.3-6.3 5.5-3.4 2.2-7.9 5.5-10 7.4-2.7 2.4-4 3.1-5 2.3-.6-.6-8.2-4.6-16.7-9-8.5-4.3-23.5-12-33.3-17.1-9.7-5.1-18.2-9.1-18.8-8.9s5.8 3.9 14.3 8.2c45.2 23.3 53.8 27.9 53.8 29 0 .5-1 1.8-2.3 3-11.5 10.4-13.9 12.8-13.4 13.3.4.3 5.2-3.7 10.9-8.8 5.6-5.2 11.1-10.2 12.3-11.3 1.1-1 5.3-4 9.3-6.7 10-6.9 9.8-7.9-3.4-14.9-13.8-7.4-56.1-29-56.8-29-.4 0-.5.4-.2.9M601.3 740.5c0 2.2.2 3 .4 1.7.2-1.2.2-3 0-4-.3-.9-.5.1-.4 2.3M601 754.3c0 2 .4 3.7 1 3.7.5 0 .7-1.4.3-3.3-.8-4.5-1.3-4.7-1.3-.4M556.1 765.8c-2.3 2.5-8.5 13.6-16.7 30.3-7.3 14.5-13.7 27.7-14.3 29.2-2.1 5.4-1.4 10 2.8 16.3 6.5 10 10.5 13.2 21.4 17 3.7 1.3 4.3 1.3 7.6-.7 2-1.2 6.1-3.5 9.1-5.2s6.6-3.7 8-4.6 3.8-2.3 5.4-3.1 4-2.9 5.3-4.7c2.7-3.5 12.6-9.7 15.8-9.9 1.1-.1 4.7-1.8 8-3.9 18.3-11.6 19.6-12.6 20.1-15.4.6-2.8.6-2.8 29.6-3.4 19.1-.4 29.5-1 30.2-1.7.8-.8-6.8-.9-28.1-.4-29.2.7-29.2.7-35.5-2.6-8.3-4.5-11.7-7.7-15.3-14.7-1.7-3.5-3.1-5.1-3.3-4.2-.8 4.4 9 16.4 16.3 19.9 3 1.5 4.5 2.8 4.5 4.1 0 2.7-.9 2.4-8.4-2.1-3.6-2.2-6.9-4-7.3-4-.3 0-1.5-.7-2.5-1.7-1-.9-1.8-1.1-1.8-.5 0 1.3 3.4 3.7 12.3 8.6 3.7 2 6.7 3.8 6.7 4 0 .4-6.8 4.9-16.3 10.8-7.9 4.8-7.9 4.8-10.5 3-1.5-1-6.3-3.8-10.7-6.2-4.4-2.3-9.3-5.6-10.8-7.2-3.8-3.9-6.7-10.4-6.7-15.1 0-2.5-.4-3.6-1.1-3.1-1.5.9-.3 7.6 2.3 12.7 3.1 6.1 7.3 9.9 16.3 14.6 4.4 2.3 8.4 4.6 8.8 5.1.8.7-9.2 8.2-12.8 9.6-2.5 1-20.1-8.3-23.5-12.4-3.9-4.8-7-11.4-7-15.2 0-1.6-.4-3-1-3-3.2 0 1.6 13.1 7.1 19.3 2.9 3.3 6.6 5.9 13.6 9.3 9.7 4.7 9.7 4.7 6.8 7-1.5 1.2-4 2.8-5.4 3.6-1.4.7-6.6 3.7-11.4 6.6-4.9 3-8.9 5.2-9.1 5-.1-.1-.7-1.5-1.3-2.9-.7-1.7-3.7-4.1-8-6.5-7.5-4.1-7.7-4.3-11.5-9.4-2.6-3.4-2.7-3.8-1.7-10.3.7-5.6 2.7-10.4 11.3-27.5 9.4-18.5 10.5-20.2 10.8-17.1.2 2.8.7 3.5 2.9 3.7 4.1.5 8.9-7.1 6.9-10.9-1.5-2.8-5.5-2.4-8 .8-2.1 2.8-2.1 2.8-1.4.3 1.6-6 3.4-9 5.8-9.6 2.5-.6 7.1 1.6 29.6 14 4.5 2.5 8.7 4.6 9.3 4.6 1.7 0-.2-1.4-6.3-4.7-3-1.7-8.6-4.8-12.5-7-3.8-2.1-9.6-5.2-12.8-6.8-5.7-3-5.7-3-2-3.3 5.8-.5 11.1 1.2 25.7 8.4 7.1 3.5 9.2 4.1 8.1 2.4-1.1-1.8-21.9-11.1-26.9-12.1-9.6-1.8-12.5-1.3-16.5 2.9m3.6-.1c-.4.3-1 .3-1.4 0-.3-.4 0-.7.7-.7s1 .3.7.7m-6.8 10.5c-1.1 2.9-6.5 14.2-12 25.1-8.4 16.5-10.1 20.8-10.8 26.5-.7 5.4-.6 7.2.7 9.2 3 4.8 7.9 9.2 14.3 12.9 4.4 2.5 6.5 4.4 6.7 5.9.2 1.2.1 2.2-.3 2.2-.3 0-4-1.8-8.3-3.9-7.1-3.6-8.3-4.6-12.6-11.1-4.6-6.8-4.8-7.4-4.4-12.9.3-4.9 2-8.9 10.7-26.2 9.6-19.2 14.6-28.8 16.4-31.7 1.7-2.6 1.6-1-.4 4m9.1 2.5c0 2.9-2.5 6.3-4.7 6.3s-1.6-6 .8-8.1c2.6-2.3 3.9-1.6 3.9 1.8"/><path d="M601 769.9c0 1.7.5 3.3 1 3.6.6.4 1-.8 1-2.9 0-2-.4-3.6-1-3.6-.5 0-1 1.3-1 2.9M601.7 780.7c-.7 1.2-.3 7.1.6 7.9.4.4.7-1.4.7-3.9 0-4.5-.4-5.6-1.3-4M692 804.4c0 10.4.3 12.5 1.6 13 .9.3 20.7.6 44 .6H780v-24.8l-5.2-.4c-2.9-.3-22.7-.6-44-.7l-38.8-.2zm81.3-9.7 4.7.5V816l-41.2-.2-41.3-.3-.3-9.4c-.1-5.2 0-10.1.2-10.8.5-1.1 7.1-1.3 36.8-1.2 20 .1 38.4.4 41.1.6"/><path d="M701.4 797.3c-.3.9-.4 2.8-.2 4.4.2 2 .8 2.8 2.3 2.8 2.1 0 3.1 2.5 2.1 5.2-.5 1.3-.9 1.4-1.8.5-1.6-1.6-2.8-1.5-2.8.2 0 2.4 4.1 3.1 5.7 1 2-2.7 1.6-5.2-1.2-8-3-3-3.2-4.4-.4-4.4 2.7 0 1.9-2.4-.9-2.8-1.3-.2-2.5.3-2.8 1.1M713.2 797.2c-1.7 1.7-1.6 13.3.2 14.7 2.5 2.1 4.6.2 4.6-4 0-2.8-.6-4.2-2-5.1-1.1-.7-2-2.1-2-3 0-2.1 1.6-2.4 2.3-.6.2.7.8 1 1.2.6.8-.8-1.2-3.8-2.4-3.8-.4 0-1.2.5-1.9 1.2m2.8 10.9c0 1.6-.4 2.9-1 2.9-.5 0-1-1.6-1-3.6 0-2.1.4-3.3 1-2.9.6.3 1 1.9 1 3.6M734.7 798.1c-2.7 3.8-2 13.2 1.1 14.4 4.1 1.6 5.6-9.9 1.8-15-1.2-1.7-1.4-1.7-2.9.6m2.8 6.7c0 7-1.9 6.7-2.3-.4-.2-4.3 0-5.5 1-5.2.8.3 1.3 2.3 1.3 5.6M745 797.5c-.7.9-.9 1.9-.5 2.3s1 .1 1.2-.6c.3-.6.9-1.2 1.4-1.2 1.3 0 1.1 4.4-.3 5.8-.9.9-.8 1.5.6 2.5 1.1.8 1.5 1.9 1 3-.8 2.1-2.4 2.2-2.4.2 0-.8-.4-1.5-1-1.5-1.6 0-1.2 3.7.5 4.4 3.6 1.3 4.5-.4 4.2-7.3-.4-8.8-1.8-11.1-4.7-7.6M755.6 798.2c-1.8 2.5-2 3.8-.7 3.8.5 0 1.2-1 1.6-2.3.7-2 .8-1.9 1.2 1.1.3 1.9-.3 4.9-1.1 6.7-2.3 4.7-2 5.7 1.2 5.3 2-.2 2.8-.9 3-2.8.3-2.4.3-2.4-1.1-.6-2 2.7-2.9.5-1.1-2.8 1.8-3.6 1.8-8 0-9.5-1.1-1-1.7-.7-3 1.1M722 805c0 .5 1.6 1 3.5 1s3.5-.5 3.5-1c0-.6-1.6-1-3.5-1s-3.5.4-3.5 1M375.4 795.9c-5 1.3-9.3 4.3-10.9 7.8-2.3 4.9 0 9.2 6.4 12.3 13.7 6.4 32.2-1.7 28.2-12.3-2.3-5.9-14.9-10.1-23.7-7.8m17 3.6c5.7 2.4 7.5 8.5 3.6 12-1.8 1.6-2.5 1.7-8 .5s-12.3-1-17.6.6c-2.8.7-5.4-1.9-5.4-5.6 0-3.1 4.5-7.6 8.3-8.5 1.2-.2 3.1-.6 4.2-.9 3.1-.7 11 .3 14.9 1.9m-2.7 14.9c1.4 1.3-1.1 1.9-8 1.9-8.1 0-11.9-1.2-7.7-2.5 2.8-.8 14.8-.4 15.7.6M136.7 796.6c-.3.2-60.8 1.4-72.5 1.4h-9.3l.3 12.2.3 12.3 20 .2c11 .2 31 0 44.5-.5l24.5-.7-.1-7c-.3-18.9 0-17.2-3.9-17.7-2-.2-3.7-.3-3.8-.2m5.1 12.7.3 10.7-18.8.1c-10.3.1-20.1.3-21.8.4-1.6.1-12.2.4-23.5.5l-20.5.4-.3-10.6-.3-10.6 8.3-.4c4.6-.2 22.9-.5 40.8-.7 17.9-.1 32.7-.4 32.9-.7 1.8-1.8 2.6 1.5 2.9 10.9"/><path d="M98.1 802.4c-.8 1-.9 1.6-.1 2.1.5.3 1 .1 1-.4 0-.6.5-1.1 1.1-1.1.7 0 .9 1.2.5 3.5-.4 2.2-.3 3.5.4 3.5 1.3 0 1.3 4.7 0 5.5-.6.3-1.3-.1-1.6-.9-.3-.9-1-1.3-1.6-1-.9.6 1.8 4.4 3.2 4.4 1.6 0 3-5.1 1.9-7.2-.6-1.1-.8-3.1-.4-4.5.5-2.3-.8-5.3-2.5-5.3-.4 0-1.3.6-1.9 1.4M119.6 802.5c-.8 2.1-.8 10.8 0 12.9.9 2.4 4.2 1.9 5-.7 1.1-3.2.6-4.9-2.3-7.3-2.6-2.2-2.4-5 .4-4 .9.4 1.3.1 1.1-.6-.7-2-3.5-2.1-4.2-.3m3.9 10c0 1.6-.5 3-1.2 3.2-1.4.5-2.8-4-1.8-5.7 1.2-1.9 3-.4 3 2.5M64.6 803.6c-.9 2.3-.7 3.4.4 3.4.6 0 1-.7 1-1.5s.5-1.5 1-1.5c1.2 0 1.3 5.3.1 6.5-.5.6-1.2 2.5-1.6 4.2-.6 3.1-.5 3.3 1.9 3.3 2 0 2.6-.5 2.6-2.3 0-1.7-.2-1.9-1-.7-1.8 2.8-2.2 0-.6-4.6 1.1-3.3 1.3-5.2.5-6.5-1.2-2.3-3.5-2.5-4.3-.3M75.6 804.2c-.3 1.3-.5 3.9-.4 5.8.1 3.2.2 3.1.7-1 .4-3.1 1.1-4.5 2.1-4.5 1.1 0 1.6 1.3 1.8 4.9.3 5.2-1.2 8.2-2.8 5.6-.5-.8-1-1-1-.4s.7 1.7 1.6 2.5c1.3 1 1.7 1 2.5-.2 1-1.6 1.2-10.9.3-13.3s-4.1-1.9-4.8.6M110.2 805.4c-2.8 4.7-2.9 7.6-.2 7.6 1.5 0 2 .7 2 2.5 0 1.4.5 2.5 1 2.5 1.1 0 1.2-10.1.1-13.9-.7-2.5-.7-2.4-2.9 1.3m1.8 4.1c0 .8-.4 1.5-1 1.5-.5 0-1-.7-1-1.5s.5-1.5 1-1.5c.6 0 1 .7 1 1.5M86 810c0 .5 1.4 1 3 1 1.7 0 3-.5 3-1 0-.6-1.3-1-3-1-1.6 0-3 .4-3 1M589.2 800.6c-4 2.5-7.2 5-7.2 5.6s1 .4 2.3-.4c1.2-.8 3.3-2.1 4.7-2.9s2.7-1.7 3-2 2-1.4 3.8-2.3c1.7-.9 3.2-1.9 3.2-2.1 0-1.4-3.4 0-9.8 4.1M602.1 799.4c-.1 2.6.2 3.7.9 3 .6-.6.6-2.1.1-3.9-.9-3-.9-3-1 .9M273.9 807.8c-2.4 1.6-9.3 6-15.4 9.7-38.5 23.8-46.5 29-46.5 29.8 0 .5.3.6.8.4 3-1.8 23.8-14.7 28.7-17.8 3.3-2.1 12.4-7.7 20.2-12.4 14.5-8.8 19.7-12.4 17.7-12.5-.6 0-3 1.3-5.5 2.8M602 808c0 1-.9 2.4-2.1 3-2.8 1.5-2.2 5.4 1 5.8 1.2.2 3.4.1 4.7-.2 3-.8 3.2-4.2.4-5.1-1.3-.4-2-1.5-2-3.1 0-1.3-.4-2.4-1-2.4-.5 0-1 .9-1 2m3.8 6.2c-.7 2-5.8 2.3-5.8.4 0-1.1 1-1.6 3.1-1.6q3 0 2.7 1.2M567.1 814.5c-1.9 1.4-4 2.6-4.5 2.8-.6.3-.8.8-.4 1.2.8.9 9.8-4.2 9.8-5.5 0-1.5-1.2-1.1-4.9 1.5M575.5 822.4c-4.2 2.5-5.1 5.2-2.4 6.9 2.2 1.4 6.2.2 9.6-2.7 2.3-2 2.6-2.8 1.7-4.3-1.6-2.6-4.3-2.5-8.9.1m7.5 1.5c0 1.5-4.8 4.1-7.5 4.1-3.3 0-3.2-1.1.3-3.2 2.9-1.9 7.2-2.4 7.2-.9M546.5 827.6c-2.7 1.9-5.8 3.7-6.7 4-1 .3-1.8 1.2-1.8 2 0 1.3 8.1-3.1 14.3-7.8 4.2-3.3-.6-1.8-5.8 1.8M550.8 838.8c-7.1 4.3-2.1 10.2 5.5 6.6 4.6-2.2 6.1-4.8 4.1-6.9-2-1.9-6.1-1.8-9.6.3m8.1 1.1c1.1.7.7 1.4-2 3-3.6 2.2-7 2.4-7.6.4-.5-1.3 4.2-4.2 6.7-4.2.8-.1 2.1.3 2.9.8M302.7 841.3c-13.9 4.4-14.3 15.6-.6 20 6.4 2.1 9.4 2.1 15.7.1 7.4-2.4 10.2-5.2 10.2-10.2 0-3.5-.5-4.5-3.2-6.6-5.9-4.4-14.4-5.6-22.1-3.3m18.8 3.2c5 2.5 6.7 6.4 4.4 10.3-1.6 2.9-1 2.8-14.2 1.6-4-.4-7-.1-9.7 1-3.8 1.5-4 1.5-6-.6-4.4-4.8-1.5-11.4 6-13.7 5.2-1.5 14.9-.8 19.5 1.4m-3.1 14.4c.6 1-4.1 2.1-8.8 2.1-4.3 0-7.7-1-7-2.1.7-1.2 15.1-1.2 15.8 0M139.9 850.5c-.3.2-18.3.7-40 1.1-21.7.3-40 .7-40.7 1-.9.3-1.2 3.1-1 11.6l.3 11.3H89c16.8 0 36.4-.2 43.5-.5l13-.5.3-11.3c.3-11.2.3-11.2-2.3-12.2-3-1.2-3-1.2-3.6-.5m3.4 5.8c.2 1.7.5 6.1.6 9.8l.2 6.7-11.3.4c-6.2.3-24.8.5-41.4.7l-30.1.2-.7-4.7c-.3-2.6-.6-7.1-.6-10V854l14.3-.1c7.8-.1 25.5-.5 39.2-.8 13.8-.3 26-.4 27.2-.3 1.5.3 2.2 1.3 2.6 3.5"/><path d="M99.3 857.3c-.7 1.5-.7 2.9-.2 4 .6 1 .6 2.4.1 3.4-1.4 2.6.3 6.3 2.8 6.3 2.4 0 4.2-3.7 2.9-6.1-.4-.9-.6-2.5-.3-3.6.7-2.5-1.1-6.3-3-6.3-.7 0-1.8 1-2.3 2.3m4.1.6c.9 1.4-.4 4.1-2 4.1-.8 0-1.4-1-1.4-2.5 0-2.5 2.3-3.5 3.4-1.6m.4 8.8c-.2 1.7-.9 2.8-1.8 2.8s-1.6-1.1-1.8-2.8c-.3-2.2.1-2.7 1.8-2.7s2.1.5 1.8 2.7M111.1 855.9c-2.1 1.4-1.9 11.7.3 13.9 1.6 1.6 1.8 1.6 3.2-.2.8-1.1 1.4-2.6 1.4-3.4 0-2.3-2-5.2-3.6-5.2-.9 0-1.4-.7-1.2-1.8.2-1 1.1-1.6 2.3-1.4 1.6.3 1.7.2.6-1.2-.8-.9-1.4-1.6-1.5-1.6 0 0-.7.4-1.5.9m2.9 10.2c0 3.8-2.4 3.5-2.8-.4-.2-1.9.1-2.7 1.2-2.7s1.6 1 1.6 3.1M120.9 856.6c-1.2 1.5-1.1 1.6.9 1 1.8-.6 2.2-.4 2.2 1.3 0 1.1-.5 2.3-1.1 2.6-.6.5-.4 1.1.6 1.9 1.9 1.4 1.7 4.7-.2 5.4-.7.2-1.3-.4-1.3-1.3s-.5-1.3-1.1-1c-1.5 1 1.9 4.5 3.7 3.8 1-.4 1.3-2.1 1.1-6.7-.3-8.3-1.9-10.5-4.8-7M67.5 857c-.4.6.5 1 1.9 1s2.6-.5 2.6-1c0-.6-.9-1-1.9-1-1.1 0-2.3.4-2.6 1M78.1 858.2c-1.3 3.7.1 12.2 2.1 12.6 2.1.4 4.4-3.9 3.4-6.3-.3-.9-1.5-1.9-2.6-2.2-2.3-.6-2.7-4.3-.5-4.3.8 0 1.5-.5 1.5-1 0-2-3.1-1-3.9 1.2m3.9 8.9q0 3-1.2 2.7c-1.5-.5-2.2-3.3-1.4-5.4.9-2.4 2.6-.6 2.6 2.7M132.2 859.6c-2.1 8-2.4 10.4-1.3 10.4.6 0 1.1-1.2 1.1-2.6 0-3.3 3.3-3 3.8.4.2 1.2.8 2.2 1.4 2.2s.8-.9.3-2.3c-.3-1.2-1.1-4-1.6-6.2-1.5-5.8-2.6-6.3-3.7-1.9m1.5 3.6c-.3.7-.5.2-.5-1.2s.2-1.9.5-1.3c.2.7.2 1.9 0 2.5M67 862c0 1.5.7 2 2.6 2 2.2 0 2.5.4 2.2 2.7-.2 2.3-.7 2.8-2.8 2.5-2.4-.3-2.4-.2-.7 1.5s1.9 1.7 3.3-.1c2.6-3.6 1.7-7.1-2.3-9.4-2.1-1.1-2.3-1-2.3.8M88.4 863.8c.6 1 4.2.9 5.2-.1.4-.4-.7-.7-2.5-.7s-3 .4-2.7.8M457.5 938c-2.1 2.3-1.4 5 1.6 5.7 2.4.7 2.1 3.9-.4 3.7-2.1-.2-2.3 1.2-.2 2 3.9 1.4 6.3-8.4 2.9-11.8-1.9-2-1.7-2-3.9.4m3.5 2.6c0 .8-.7 1.4-1.5 1.4-1.5 0-2.1-2.1-.9-3.3 1-.9 2.4.2 2.4 1.9M467.1 937.4c-.7.8-1.1 3.6-.9 6.3.3 4.4.5 4.8 2.8 4.8s2.5-.4 2.8-4.8c.3-4.5-.9-7.7-2.8-7.7-.4 0-1.3.6-1.9 1.4m2.9 5.7c0 3.1-.4 4.8-1 4.4-.5-.3-1-2.6-1-5.1 0-2.4.5-4.4 1-4.4.6 0 1 2.3 1 5.1M485.3 937.2c-1.1 1.8-1.2 9.1 0 10.5 1.4 1.9 4.4 1.6 4.9-.5.8-3.7-.7-10.7-2.4-11-.9-.2-2 .3-2.5 1m2.9 2.3c0 .5-.5 1.1-1.1 1.3s-1.1-.4-1.1-1.3.5-1.5 1.1-1.3 1.1.8 1.1 1.3m.8 6.1c0 .8-.7 1.4-1.5 1.4-1.5 0-2.1-2.1-.9-3.3 1-.9 2.4.2 2.4 1.9M494.1 937.9c-2.7 5-.3 11.9 3.8 10.6 3-.9 2.5-5.6-.7-7-2.7-1.2-2.3-3.1.7-2.7 2.9.3 2.2-2.2-.7-2.6-1.3-.2-2.5.4-3.1 1.7m3.9 7.1c0 1.1-.4 2-.9 2-1.4 0-2.3-1.8-1.6-3 1-1.7 2.5-1.1 2.5 1M513.2 937.2c-1.7 1.7-1.5 9.3.3 10.8 3.5 2.9 6.6-2.3 4.8-8.3-.9-3.4-3.1-4.5-5.1-2.5m3.3 5.1c0 5.2-1.9 5.1-2.3-.2-.2-3.2 0-4.2 1-3.9.8.3 1.3 2 1.3 4.1M522.6 936.9c-.3.5-.7 3-.8 5.5-.2 5.4 1.3 7.6 4 6 2.5-1.6 2.2-5.7-.6-6.9-2.5-1.1-2.4-3.1.2-2.9.9.1 1.6-.4 1.6-1.2 0-1.5-3.6-1.9-4.4-.5m3.4 8.2c0 2.4-2.3 2.1-2.8-.4-.2-1 .3-1.7 1.2-1.7 1 0 1.6.9 1.6 2.1M540.6 937.6c-.4.9-.3 2 0 2.3.4.3.9 0 1.1-.7.3-.6.9-1.2 1.4-1.2 1.6 0 1 3-1.2 5.9-2.5 3.4-1.8 5.2 1.9 5 2.4-.2 2.4-.2.5-.6-2.8-.5-2.9-2.4-.3-4.8 2.3-2 2.6-4.5.8-6.3-1.7-1.7-3.5-1.5-4.2.4M476.8 938c2.2.9 2.2 1.1.7 4.7-.9 2-1.3 4.4-1 5.2.4 1 1.3-.4 2.5-3.9 2.5-7.2 2.5-7-1.2-6.9-3 0-3.1.1-1 .9M532.4 938.2c-.4.6-.2 1.4.4 1.6.7.2 1.2 2.3 1.2 5 0 3.4.3 4.3 1.1 3.5.7-.7.9-2.9.4-6.2-.7-5-1.7-6.3-3.1-3.9M438 943c-3.8.5-5.3 1.4-9.5 5.8-5 5.2-5 5.2-9.1 3.7-6.6-2.3-13.4.3-13.4 5.1 0 1.3-.4 2.4-.8 2.4-.5 0-1.4 1.1-2 2.5-1.5 3.2-.2 6.8 3.3 9.1 2.1 1.4 2.5 2.4 2.5 6.4 0 2.6.3 8.1.6 12.3.6 7.1.8 7.6 3.5 8.8 2.3.9 3.6.9 5.9-.1 3-1.2 3-1.2 3-13.5 0-12 0-12.2 2.5-13.3 2.8-1.3 4.9-5.5 4-8.2-.3-1-1.4-2.5-2.5-3.5s-2-2.3-2-3c0-.6 2.4-3.7 5.3-6.8 5.2-5.7 5.2-5.7 12.7-5.9 8.3-.2 10.3-.6 9.4-1.9-.5-.9-5.5-.8-13.4.1m-17.6 11.6c.9.3 1.6 1.6 1.6 2.9 0 2.7-1.7 3.5-7 3.5-2.1 0-4.5-.3-5.4-.6-1.9-.7-2.1-3.5-.4-5.2 1.3-1.3 8.5-1.6 11.2-.6m-11.4 8.5c0 .5-.4.9-1 .9-.5 0-1-.7-1-1.6 0-.8.5-1.2 1-.9.6.3 1 1 1 1.6m13.7 1.1c-.3.7-.5.2-.5-1.2s.2-1.9.5-1.3c.2.7.2 1.9 0 2.5m-2.7.3c0 1.7-.7 2.6-2.3 3-3.1.8-7.7-1.1-7.7-3.1 0-1.3.7-1.6 3.3-1.1 1.9.3 4 .1 4.8-.4 1.9-1.2 1.9-1.2 1.9 1.6m6.8 1.6c-.8 5.5-12.7 7.8-18.9 3.6-1.9-1.2-3.5-3.3-3.7-4.5-.4-2.7.9-2.9 2.5-.2 2 3.1 7.1 5.3 10.8 4.6 3.3-.7 5.7-2.7 6.9-6 .9-2.6 2.9-.6 2.4 2.5m-6.8 10.3c0 1.6-.7 2.6-2.1 2.9-3.2.8-6.9-.9-6.9-3.3 0-1.7.6-2 4.5-2 4.1 0 4.5.2 4.5 2.4m0 5.7c0 1.8-.5 2-4.2 1.7-2.4-.2-4.3-.9-4.6-1.7-.3-1 .3-1.2 2.4-.7 1.6.3 3.6.2 4.4-.4 2-1.3 2-1.3 2 1.1m-.2 5.1c-.6 1.6-3.2 2.2-6.4 1.4-4-1-2.7-2.6 2.2-2.6 3.2 0 4.4.4 4.2 1.2m.2 4.4c0 1.7-4.7 2.6-7 1.4-3.3-1.7-2.3-2.8 2.5-2.6 2.6 0 4.5.6 4.5 1.2m0 4.6c0 1.4-2.8 2.1-5.5 1.4-3.8-1-3-2.3 1.5-2.3 2.2 0 4 .4 4 .9M504.5 943c-.4.6.5 1 2 1s2.4-.4 2-1c-.3-.6-1.2-1-2-1s-1.7.4-2 1M94.4 954.4c-3.8 1.7-6.4 5.2-6.3 8.6 0 2.3.2 2.2 1.3-.9 2.4-6.8 8.2-8.8 15.4-5.4 3 1.3 32.4 17.5 50.2 27.6 1.9 1.1 5.5 3.1 8 4.5 2.5 1.3 7 3.9 10 5.7 6.9 4.1 31.5 17.7 43.5 24 5 2.6 11 5.9 13.5 7.3 2.5 1.3 9.2 4.9 15 8 5.8 3 11.6 6.1 12.9 7 3.1 1.9 12.6 6.9 26 13.8 10.6 5.3 10.8 5.4 19.7 5.4 9.9 0 16.9-1.7 22.6-5.5 2.1-1.4 3.9-2.5 4.1-2.5s9.8-5.6 21.2-12.5c11.5-6.9 21.2-12.5 21.7-12.5.4 0 .8 5.5.9 12.2.1 17.5 1 23.7 3.8 25.9 2.5 2.1 4.1 2.4 4.1 1 0-.5-.9-1.2-1.9-1.6-3.4-1.1-3.8-3.2-4-24.3-.1-11.7-.4-14.4-1.6-14.8-1.3-.5-11.2 3.8-12.5 5.5-.3.4-2.6 1.8-5.2 3.1-2.7 1.4-4.8 2.8-4.8 3.2 0 .5-.4.8-1 .8-.5 0-7.6 4-15.7 8.8-16.5 9.9-22.8 11.9-35.2 11-6-.5-8.3-1.3-21.2-8-14.9-7.8-36.9-19.5-47.4-25.3-3.3-1.8-10.7-5.7-16.5-8.8-5.8-3-13.8-7.4-17.9-9.6-4.1-2.3-7.6-4.1-7.8-4.1-.3 0-1.7-.8-3.1-1.8-1.5-1.1-5.2-3.3-8.2-4.9-3-1.7-8.9-5-13-7.3-21.9-12.4-39.3-22-39.8-22-.2 0-1.6-.8-3-1.8-5.3-3.7-18-9.9-21.3-10.5-2-.4-4.7-.1-6.5.7M88 968c0 .7.3 1 .7.7.3-.4.3-1 0-1.4-.4-.3-.7 0-.7.7M88.3 976c0 3 .2 4.3.4 2.7.2-1.5.2-3.9 0-5.5-.2-1.5-.4-.2-.4 2.8M99.8 983.6c-2.7 1.3-4.8 2.8-4.8 3.3s-.3 1.6-.6 2.5-.1 1.6.5 1.6 1.1-.9 1.1-2c0-1.7 2.6-4 4.5-4 1.1 0-2.6 6.1-4.1 6.7-.7.3-1.4 1.6-1.4 2.9 0 2.3.3 2.4 6.4 2.4 6.8 0 8.4-.9 6.7-3.7-.9-1.6-1-1.6-1.1.4 0 2.1-.5 2.3-4.8 2.3-2.7 0-5.1-.3-5.4-.6-1-.9 6.3-10.9 7.8-10.8 1.5.2 2-2.1.7-2.9-.5-.3-2.9.6-5.5 1.9M81.8 985.9c-3.1 2-8.3 5.2-11.6 7.3-5.7 3.4-10.2 8.2-8.9 9.5.4.3 1.1-.6 1.8-1.9 1-2.2 5-5 19.4-13.5 3.4-2.1 5.9-4.2 5.4-4.7-.2-.2-3 1.3-6.1 3.3M90 984.8c0 1.2 1.9 2.6 2.6 1.9.2-.2-.2-1-1.1-1.7-.9-.8-1.5-.8-1.5-.2"/><path d="M106 988c0 1.1.4 2 .9 2s.7-.9.4-2-.7-2-.9-2-.4.9-.4 2M114.9 999.8c3.7 2.6 17.5 10.1 18.6 10.1 1 .1-3.5-3.8-4.6-3.9-.3 0-3.9-1.8-7.9-4-7.6-4.2-10.2-5.1-6.1-2.2M77 1002c-3.5.8-3.3 4.2.3 5.4 3.3 1.2 6.2-.2 6.2-2.9 0-2.2-3.1-3.4-6.5-2.5m3.4 1.6c2.6 1 1.8 2.4-1.4 2.4-2.9 0-3.8-.9-2.3-2.3.8-.9 1.7-.9 3.7-.1M415 1004c0 1.1.2 2 .4 2s.6-.9.9-2 .1-2-.4-2-.9.9-.9 2M62 1008.2c0 2.2 3.8 5.4 9.5 7.9 4.4 2.1 6.2 2.3 16 1.9 19.4-.6 30.4-.4 34.2.8 2.1.6 7.2 2.1 11.3 3.3s8 2.6 8.5 3c1 .7 3.2 1.9 19 10.4 5 2.7 10.2 5.7 11.7 6.7 1.4 1 2.8 1.8 3.1 1.8s5.4 2.7 11.3 6 10.9 6 11 6 5.8 3.2 12.6 7.1c6.7 3.9 13.8 8 15.6 9 5.2 3 8.8 5.1 25 14.4l15.2 8.7v7.8c0 12.8 1.3 35 2 35 .4 0 .5-9.2.2-20.5-.3-11.6-.1-20.5.4-20.5s2.9 1.2 5.4 2.6c2.5 1.5 6 3.5 7.8 4.5 4.8 2.8 16.9 5.9 22.6 5.9 11.7 0 20.9-2.7 30.1-9 4.6-3.1 6-3.7 13.3-5.6 7.2-1.9 12.1-1.8 23.2.6 14.2 3 20.7 2.5 27.6-2.2 8.2-5.7 7-13.8-3.2-20.3-3.1-2-5.9-3.4-6.2-3-.6.6 2 2.7 5.8 4.7 4.1 2.1 7 6 7 9.5 0 3.7-3.9 7.4-9.6 9.3-4.2 1.4-18 .7-23.3-1.1-2-.7-7.2-1-13.4-.7-10.8.5-16.5 2.3-22.9 7.2-8.5 6.4-25.1 9.4-37.8 6.7-4.8-1-16.4-6.1-21-9.1-.8-.6-8.7-5-17.5-9.8-20.3-11.3-23.7-13.2-36.5-20.5-11.6-6.7-13.9-8-28.5-15.9-5.5-3-12.5-6.8-15.5-8.5-5.7-3.1-12.2-6.7-22.5-12.3-3.3-1.8-7.4-4.1-9-5.1-1.7-1-8.5-3.5-15-5.5-12.9-4-15.7-4.2-42.5-3.3-10.5.4-11.9.2-16.2-1.9-2.7-1.3-5.7-3.5-6.8-4.9-1.3-1.6-2-2-2-1.1M415 1013.4c0 2 .5 3.6 1 3.6.6 0 1-1.3 1-2.9 0-1.7-.4-3.3-1-3.6-.6-.4-1 .8-1 2.9M141 1012.9c0 1.1 6.9 3.5 7.7 2.7.3-.3-.3-.8-1.3-1.2-1-.3-2.9-1-4.1-1.5-1.4-.5-2.3-.5-2.3 0M132.6 1015.5c-1.1.8-1.7 1.7-1.4 2s1.6-.3 2.9-1.4c2.7-2.3 1.4-2.8-1.5-.6"/><path d="M146 1020c-1.4 1.1-2.2 2-1.8 2 1.4 0 5.8-2.3 5.8-3.2 0-1.3-1.3-.9-4 1.2M155.6 1018.9c2.3 2.1 37.4 20.4 38 19.8s-6.4-4.5-25-14.1c-12.6-6.5-15-7.5-13-5.7M415 1026.9c0 2.2.5 4.3 1 4.6.6.4 1-1.2 1-3.9 0-2.5-.4-4.6-1-4.6-.5 0-1 1.8-1 3.9M202.3 1038c-4.1 1.8-4.3 2.1-4.3 6.3 0 6 1.3 6.8 8.6 5.9 5.9-.8 5.9-.8 5.6-4.2-.4-5.7-2.2-10-4-9.9-.9 0-3.6.9-5.9 1.9m1.1 4.9c-3.3 4.9-4.4 5.2-4.4 1.1 0-2.4.6-3.2 3.3-4.4 1.7-.7 3.3-1.2 3.5-1.1.1.1-1 2.1-2.4 4.4m7.2.2c.7 2.1.9 4.1.5 4.3-.3.2-2.8.7-5.5 1.1-5.4.9-5.4 1.3-.3-6.3 1.6-2.4 3.2-4 3.5-3.7.4.4 1.2 2.4 1.8 4.6M415.7 1036.7c-1.1 1-.8 5.1.3 5.8.6.4 1-.8 1-2.9 0-3.7-.2-4.1-1.3-2.9M386 1041.9c-1.3 2.5-1.3 4.1 0 4.1.6 0 1-.9 1-2 0-1.6.7-2 3-2 1.7 0 3-.5 3-1 0-1.9-5.9-1.1-7 .9M399.5 1045.4c3.7 2.4 5.5 3.1 5.5 2.2 0-.7-4.5-3.3-7-4-1.8-.5-1.3 0 1.5 1.8M414.7 1048.4c-.6 1.5-1.4 1.7-4 1.2-3-.5-3.1-.5-1.3.9 2.4 1.8 2.7 1.8 5 .2 1.1-.8 1.7-2 1.4-2.7-.3-1-.6-.9-1.1.4M217 1050.8c0 .5 3 2.6 6.8 4.6 3.7 2 8.5 4.7 10.7 5.9 2.2 1.3 6.5 3.7 9.5 5.4 3 1.6 7.7 4.2 10.3 5.7 2.7 1.5 5.1 2.6 5.3 2.3.6-.6-1.3-2-7.7-5.5-3.2-1.6-6.8-3.7-8-4.5-1.3-.8-5.3-3-8.9-4.9s-9.1-4.9-12.2-6.7c-3.2-1.8-5.8-2.8-5.8-2.3M384 1054.4c0 1.9.5 3.8 1 4.1.6.4 1-1 1-3.4 0-2.3-.4-4.1-1-4.1-.5 0-1 1.5-1 3.4M357 1070.6c-8 4.7-15.6 9.2-17 10s-4.1 2.4-6 3.6c-12.6 7.6-14.8 8.2-27 8.1-11.6 0-12.6-.3-22.8-5-1.8-.9-3.5-1.3-3.8-1-1.1 1 12.2 6.6 18.5 7.7 6.7 1.2 16 .7 22.1-1.2 1.9-.6 6.4-2.8 9.9-5 3.4-2.1 6.4-3.8 6.6-3.8s4-2.3 8.4-5c4.4-2.8 8.3-5 8.5-5 .3 0 4.1-2.3 8.6-5 4.5-2.8 8.5-5 9-5s1.2-.5 1.5-1c1.5-2.5-3.1-.4-16.5 7.6M384.7 1063.7c-1.1 1-.8 7.1.3 7.8.6.4 1-1.2 1-3.9 0-4.7-.2-5.1-1.3-3.9"/><path d="M305.4 1072.9c.3 5.2.6 11.1.6 13.3 0 2.1.4 3.8 1 3.8 1.2 0 .1-24.2-1.3-25.5q-.9-1.05-.3 8.4M268.8 1075c-3.9 2.1-5.2 4.8-4.6 9.1.3 2.2.8 2.4 6 2.4 3.1 0 6.1-.5 6.6-1 1.4-1.5-1-11.9-2.8-12.2-.8-.1-3.2.7-5.2 1.7m3.2.7c0 .5-1.4 2.4-3 4.3-2.9 3.4-3 3.5-3 1 0-1.7.9-3.1 2.8-4.2 3.1-2 3.2-2 3.2-1.1m3.4 4.4c.3 1.7.3 3.5 0 4-.6 1.1-7.4 1.2-7.4.1 0-1 5.2-7.2 6.1-7.2.3 0 .9 1.4 1.3 3.1M384.8 1075.6c-1.1 1.6.5 5.9 2.1 5.9 2.5 0 2.3 2.4-.3 3.1-3.4.8-4.7-.2-4-3.2.5-1.9.3-2.3-.9-1.8-2.5.9-2.8 3.3-.7 5.4 2.3 2.3 3.7 2.4 7.5 1 3.3-1.3 3.2-5.3-.2-5.8-1.5-.2-2.3-1.1-2.5-3-.2-1.5-.6-2.2-1-1.6M254.5 1141c-17 .3-31.1.7-31.2.8-.2.1-.3 5.6-.3 12.2 0 12 0 12 3.8 12.1 20.2.3 83.9-.4 84.5-1 .4-.4.6-6.1.5-12.7l-.3-11.9h-13c-7.1-.1-26.9.2-44 .5m54.6 11.5c.3 5.5.3 10.3 0 10.6-.3.4-19 .8-41.6 1l-41 .4-.3-10.3c-.1-5.6-.1-10.3 0-10.4.5-.3 52.7-1.4 67.8-1.3h14.5z"/><path d="M277.2 1145.2c-1.8 1.8-1.4 3 .8 2.3 2.3-.7 2.6.6.8 3.6-1 1.7-1 2.3 0 2.6 1.3.5 1.7 4.5.5 5.6-.3.4-1.2-.1-1.9-1.1-1.1-1.4-1.3-1.5-1.4-.2 0 2.9 2.2 4.2 4.2 2.3 2-1.8 2.4-5.8.8-6.8-.6-.4-.8-2.1-.5-3.9.8-3.8-1.3-6.4-3.3-4.4M287 1145.5c-1.7 2-.5 3.2 1.5 1.5 1.3-1.1 1.5-.9 1.5 1.3 0 1.4-.5 2.9-1.1 3.3-.8.4-.8.9 0 1.7 1.4 1.4 1.4 5.7.1 5.7-.5 0-1-.7-1-1.5s-.4-1.5-1-1.5c-1.5 0-1.2 2.6.5 4 3.1 2.6 4.5.5 4.3-6.7-.2-8.6-1.9-11.3-4.8-7.8M233 1147.4c-1.2 3.2-.2 6.7 1.9 6.4 1-.2 1.7.5 1.9 2.1.5 3-1.5 5.2-2.8 3.1-.5-.8-1.2-1.1-1.6-.7-.9.9 1.5 3.7 3.2 3.7 1.9 0 3.6-4.5 2.8-7.6-.4-1.5-1.3-2.4-2.6-2.4-1.4 0-1.9-.6-1.6-2.3.2-1.2.9-2.2 1.7-2.2s1.6-.6 1.9-1.3c.8-2.4-3.8-1.3-4.8 1.2M244 1147.5c-1.6 4.2-1.2 10 .9 12.6 1.8 2.3 1.8 2.3 3.5-.3 2.2-3.3 1.3-7.2-2.1-8.7-2-.9-2.3-1.4-1.3-2.6.6-.7 1.8-1.1 2.7-.8 1.1.4 1.4.2 1.1-.8-.8-2.5-3.7-2.2-4.8.6m3.8 8.4c.2 1.3-.1 2.8-.6 3.3-1.3 1.3-3.4-2.5-2.6-4.7.9-2.2 2.8-1.3 3.2 1.4M265.1 1148.1c-1.5 4.3-1.4 6.4.4 9.9 2.9 5.6 5.5 3 5.5-5.3 0-7.4-3.9-10.4-5.9-4.6m4.5 4.5c.6 4.6-1 7.8-2.6 5.4-1.1-1.7-1.3-9.3-.3-10.4 1.2-1.1 2.4 1 2.9 5M254 1154c0 .5 1.4.7 3.3.3 4.5-.8 4.7-1.3.4-1.3-2 0-3.7.4-3.7 1"/></svg>