<svg xmlns="http://www.w3.org/2000/svg" viewBox="0 0 992 1402" fill="currentColor"><path d="M364.9 184.1c-1.6 1.7-2.9 3.7-2.9 4.4 0 .8-.9 1.6-2 2-1 .3-3.4 3.2-5.1 6.3-6.5 11.5-12.3 20.8-15.2 24.6-2.8 3.5-17.6 15.3-31.3 24.9-8 5.6-10.2 11.3-7 17.6 1.5 2.8 3.3 4.3 10.3 8.2 2.1 1.2 5.2 3 6.8 4 4.7 2.8 13.7 8 16.8 9.6 2.2 1.2 2.7 2.1 2.7 5.3 0 2.1.5 4.2 1 4.5.6.4 1-.8 1-2.9 0-2 .3-3.6.6-3.6.7 0 8.5 4.5 37.9 22 30.1 17.9 63.6 37.6 73.3 43.1 6.4 3.7 10 5.8 25.7 14.9 8.8 5.1 17.4 10.1 19 11 1.7 1 7.1 4.1 12 7 5 2.9 10.6 6.2 12.5 7.2 1.9 1.1 4.7 2.9 6.2 3.9 1.4 1.1 2.9 1.9 3.3 1.9s1.9.8 3.3 1.8c1.5 1.1 5.2 3.2 8.2 4.9 3 1.6 10.1 5.8 15.8 9.1 5.6 3.4 10.5 6.2 10.7 6.2.3 0 2.3 1.2 4.5 2.6 2.9 1.9 4 3.4 4.1 5.3 0 2.5.1 2.5 1.1.5 1-2.1 1.1-2.1 7.6 1.9 21.2 12.8 39.6 15.2 58.2 7.3 10.9-4.6 28.1-10.9 32.3-11.6 5.4-1.1 24.8-3.4 42.2-5 17.2-1.7 29.6-4.5 32.4-7.6 1.7-1.8 1.5-1.8-3.3.2-1 .4-1.8-.6-2.6-3.1-1.1-3.3-1-4 .7-6.3 4.1-5.4 8.3-5.6 8.3-.2 0 3.4-1.5 4.1-2.3 1-.7-2.8-3.5-2.5-4.9.5-.9 1.9-.9 2.8 0 3.7s1.2.6 1.2-1.4c0-1.5.5-3 1.2-3.4.8-.5.9-.2.5.9s.3 2.3 2 3.7c1.4 1.1 2.8 2 3.2 2 .8 0 .6-8-.2-10.6-.4-1.2-1.9-2.6-3.3-3.3-3.1-1.4-6.2.2-9 4.4-.9 1.4-2.2 2.5-2.9 2.5-.6 0-1.9.8-2.9 1.8-2.1 2.4-9.3 3.6-35.1 6.2-11 1.1-22.5 2.5-25.5 3.1-5 .9-26.7 7.8-31.5 9.9-9.9 4.4-23.9 6.1-33.2 4-5.2-1.1-17.7-7.1-23.5-11.1-1.4-1.1-2.8-1.9-3.1-1.9-.5 0-10.5-5.8-35.2-20.4-6.6-3.9-13.6-8-15.6-9.1s-9.7-5.6-17.2-10l-13.7-8v-20.3c0-12.8-.4-20.2-1-20.2s-1 7-1 19c0 11.4-.4 19-1 19-.5 0-3.3-1.4-6.2-3.1-5-3-6.6-3.9-15.3-8.9-4.8-2.7-7.9-4.6-22.5-13-6.9-4-13.8-8-15.5-9-1.6-.9-5.5-3.2-8.5-5-6.1-3.6-7.2-4.3-21.5-12.5-5.5-3.1-11.6-6.7-13.5-8-1.9-1.2-9.1-5.5-16-9.5s-15-8.7-18-10.5-7.5-4.4-10-5.7c-22.1-12.3-30.9-17.4-33.2-18.9-1.4-1.1-3.1-1.9-3.6-1.9-.6 0-1.4-1-1.8-2.2-.7-2.2 2.1-5.3 8.6-9.6 6.4-4.2 22.8-16.8 25.5-19.6 3.7-3.8 7.6-10.2 15-24.5 2.3-4.4 4.6-7.6 6-8.1 2.7-1 5.9-5.4 6.9-9.3.5-2.1.1-3.3-1.8-5.2-3.3-3.3-6.2-3.1-9.7.6m2.5 3.3c-1.9 3.4-2.4 5.3-1.9 7.9.6 3-.3 5.1-6.6 16.6-4 7.2-8.9 14.7-10.8 16.6-1.9 2-10.4 8.8-18.9 15.2-8.4 6.4-15.6 12.2-15.9 13-1 2.6.7 5.9 3.9 7.6 1.8 1 6.2 3.5 9.8 5.6s8.8 5 11.5 6.6c2.8 1.5 7.5 4.2 10.5 6s8.7 5 12.5 7.2c8 4.6 34.8 20.2 41.5 24.3 3.8 2.3 25.2 14.9 50 29.5 3 1.8 7.5 4.4 10 5.7 2.5 1.4 8.6 4.9 13.5 7.8 5 2.9 10.4 6 12 7 1.7.9 7.1 4.1 12 7 5 2.9 10.4 6 12.1 7s6.4 3.8 10.5 6.3c8.2 4.9 24.9 14.6 31.9 18.4 2.5 1.4 6.5 3.8 9 5.3s7.9 4.7 12 7.1 8.7 5 10.1 5.9c19.4 11.3 23.8 13 35.4 13 8.5 0 12-.9 34.5-9.1 13.5-4.8 20.2-6.2 40.5-8.4 35-3.7 37.7-4.1 40.3-6.6 1.2-1 2.9-1.9 3.8-1.9 1.3 0 1.5.6 1 3.1-.3 1.7-.6 3.8-.6 4.5 0 2.4-3.2 3.2-20 4.8-9.1.9-19.4 2.1-23 2.6s-10.5 1.5-15.5 2.1c-5.7.7-12.3 2.4-18 4.6-29.1 11.4-32.2 12.3-42.7 12.3-11 0-22.9-3.7-34.3-10.7-4.4-2.7-11.8-7-16.5-9.7-10.1-5.8-29.6-17.2-39.9-23.4-4.1-2.4-8.9-5.3-10.7-6.3-8.1-4.6-10.5-6-20.4-11.9s-12.3-7.3-20.4-11.9c-1.8-1.1-6.4-3.8-10.1-6-3.7-2.3-6.9-4.1-7.1-4.1-.3 0-4.3-2.3-26.1-15.2-4.9-2.8-10.8-6.2-13.3-7.6-2.5-1.3-6.5-3.7-9-5.2s-12.4-7.4-22-13-19.2-11.3-21.3-12.7c-2.1-1.3-5.2-3.2-7-4.2s-8.8-5.1-15.5-9c-6.8-3.9-12.8-7.1-13.3-7.1s-.9-.5-.9-1c0-.6-.4-1-.9-1-1.1 0-24-13-28.2-16.1-2.5-1.8-2.9-2.7-2.9-7 0-5.6 1.7-7.7 12-14.9 1.9-1.3 3.7-2.7 4-3s4.2-3.2 8.8-6.5c12.6-9 15.1-12.1 29.6-37.8 1.5-2.6 3.3-4.7 4.1-4.7s2.1-1.3 3-2.9c.8-1.6 2.2-3.6 3-4.5 3-3 3.4-1.6.9 2.8m7.4.1c.2 2.5.1 2.7-.8 1.2-1.4-2.3-3.7-2.2-5 .2-1.6 3.1-1.2 5.1 1.1 5.1 1.1 0 1.7.4 1.4 1-1 1.6-4.2 1.2-4.9-.6-.6-1.4 1.4-6.3 3.7-9.2 1.7-2.2 4.2-.9 4.5 2.3m-2.5 3.4c.3 1.4.1 1.8-.9 1.4-.8-.3-1.4-1.1-1.4-1.9 0-2.1 1.7-1.7 2.3.5m373.6 212.8c-1.3 1.6-2.5 3-2.6 3.2-.2.2-.5.2-.8-.1-.7-.7 3.4-5.8 4.7-5.8.7 0 .1 1.2-1.3 2.7m-1.9 11c0 2-.3 2.4-1.1 1.6-.7-.7-.9-1.9-.6-2.7 1-2.4 1.7-1.9 1.7 1.1M339.1 301.7c-.1 2.4.4 4.3.9 4.3 1.2 0 1.2-2.4 0-6-.7-2.1-.8-1.9-.9 1.7"/><path d="M459 302.9c-2.5.7-2.5.7-2.2 12.1.2 6.3.7 11.8 1.1 12.3.4.4 20.3.6 44.2.5l43.4-.3-.3-12c-.3-7.7-.8-12.3-1.5-12.7-1.5-1-81.3-.8-84.7.1m83.2 9.8c.6 14.8 5.6 13.2-41.3 13.3H460v-21h81.8z"/><path d="M509.7 306.6c-.4.4-.7 2.7-.7 5.1 0 4 .2 4.4 2 3.8 2.2-.7 3.6 1.4 2.6 4-.5 1.3-1 1.4-2.7.5-1.8-1-2-.9-1.7.7.2 1.1 1.2 1.8 2.7 1.8 4.5 0 4.7-8.6.2-10-2.8-.8-2.7-2.3.2-2.7 2.8-.4 2.9-3.2.2-3.6-1.2-.2-2.4 0-2.8.4M466.4 308.5c-.4.9-.3 1.9.1 2.3s1 .1 1.2-.6c.3-.6.9-1.2 1.4-1.2 1.3 0 1.1 3.4-.3 4.9-1 1.1-1 1.4 0 1.8.6.3 1.2 1.7 1.2 3.1-.1 2.5-.2 2.5-1.4.9-.7-.9-1.6-1.7-2-1.7-1.2 0-.6 3.8 1 5 2.1 1.8 4.7-.9 4.5-4.7-.1-1.5-.3-4.6-.4-6.8-.2-3.3-.6-4.1-2.5-4.3-1.3-.2-2.5.3-2.8 1.3M478.6 311.8c-3.1 6.1-3.2 7.2-.7 7.2 1.2 0 2.1.8 2.3 2s.7 2.2 1.2 2.3c1.4.3 2.7-5.5 1.5-6.9-.5-.7-.7-2.3-.4-3.7.4-1.4.2-3.3-.3-4.3-.8-1.5-1.4-1-3.6 3.4m2.4 3.1c0 .6-.4 1.3-1 1.6-.5.3-1-.1-1-.9 0-.9.5-1.6 1-1.6.6 0 1 .4 1 .9M500 314.9c0 8.2.5 9.6 3 8.1 1.2-.7 1.2-1.2.2-2.2-.7-.7-1.2-3.8-1.2-7.5 0-3.5-.4-6.3-1-6.3s-1 3.3-1 7.9M522 307.2c-.1.2-.1 3.9-.2 8.3-.1 6.3.2 8 1.3 8 .8 0 1.4-.6 1.3-1.3-.1-.6-.2-4.4-.2-8.2-.1-3.9-.6-7-1.2-7-.5 0-1 .1-1 .2M487.5 315c-.8 1.2 1.7 2.3 4.1 1.8 1-.1 1.9-.9 2.2-1.6.5-1.5-5.4-1.7-6.3-.2M340.1 313.6c-.1 2.3.6 4.8 1.5 6 1.4 1.8 1.5 1.8.8-.6-.4-1.4-1.1-4.1-1.5-6-.7-3.5-.7-3.5-.8.6M344 324.7c.1 1.3 5.1 4.6 5.8 3.8.4-.3-.4-1.5-1.8-2.5-2.6-2.1-4-2.5-4-1.3M354.5 331.6c3.3 2.5 5.5 3.6 5.5 2.6 0-1.2-4.5-4.2-6.2-4.2-.8.1-.5.7.7 1.6M363 335.9c0 .5 1.8 1.8 4 3 4.9 2.5 5.3 1.1.6-1.8-3.7-2.3-4.6-2.5-4.6-1.2M375.5 343.5c3.1 2.6 4.5 3.1 4.5 1.7 0-.9-5.3-4.2-6.7-4.2-.4.1.6 1.2 2.2 2.5M382 347c0 1.1 5.9 4.4 6.7 3.7.4-.5-5-4.7-6.1-4.7-.3 0-.6.4-.6 1M391 352.4c0 .8 7.1 4.8 7.6 4.3.6-.6-5-4.7-6.5-4.7-.6 0-1.1.2-1.1.4M401 358.4c0 .8 7.1 4.8 7.6 4.3.6-.6-5-4.7-6.5-4.7-.6 0-1.1.2-1.1.4M412.5 365.6c3.3 2.5 5.5 3.6 5.5 2.6 0-1.2-4.5-4.2-6.2-4.2-.8.1-.5.7.7 1.6M674 367c0 .5.8 1 1.8 1s2.3.5 3 1.2 1.2.8 1.2.2c0-1.6-2.2-3.4-4.2-3.4-1 0-1.8.4-1.8 1M669 371.1c-1 2.2-1 3.3-.1 4.2.8.8 1.1.5 1.1-1.2 0-1.2.5-3.1 1-4.2.6-1 .7-1.9.2-1.9s-1.5 1.4-2.2 3.1M421 369.8c0 .6 1.6 2 3.6 3.1 2 1.2 3.4 1.7 3.2 1.1-.5-1.5-6.8-5.4-6.8-4.2M681 369.7c0 1 8 5.6 8.7 5 .5-.6-6.7-5.7-7.9-5.7-.5 0-.8.3-.8.7M431 375.8c0 1.1 3.4 3.4 6.4 4.5 1.5.6 1.6.5.8-.5-1.6-2-7.2-5-7.2-4M691.5 376c1 1.5 8.5 5.2 8.5 4.1s-6.2-5.1-7.9-5.1c-.7 0-.9.5-.6 1M668 382c0 2.2.5 4 1 4 .6 0 1-1.8 1-4s-.4-4-1-4c-.5 0-1 1.8-1 4M702.5 382c.9 1.5 6.6 4.3 7.3 3.6.3-.3.3-.7.1-.9-5.8-3.4-8.5-4.4-7.4-2.7M441.1 382.4c.9.9 8 5.6 8.4 5.6 1.5 0 0-1.8-3-3.8-2.9-1.9-6.8-3.1-5.4-1.8M712.4 387.9c1 1.5 8.6 5.1 8.6 4.1 0-.5-1.8-1.9-4-3-4.3-2.2-5.4-2.5-4.6-1.1M452.6 388.7c-.6.7 6 5.3 7.6 5.3 1.7 0-1-2.8-4.2-4.4-1.6-.8-3.1-1.2-3.4-.9M668 393.5c0 2.5.5 4.5 1 4.5.6 0 1-2 1-4.5s-.4-4.5-1-4.5c-.5 0-1 2-1 4.5M723 393.8c0 1 6.9 4.7 7.6 4 .3-.3-1-1.5-2.9-2.7-3.7-2.3-4.7-2.5-4.7-1.3M463.4 395.8c.9 1.5 8.6 5.3 8.6 4.3 0-1.1-3.7-3.6-6.9-4.6-1.5-.4-2.1-.3-1.7.3M732 398.6c0 1.1 3.4 3.3 5 3.3 1 .1.6-.6-1-1.9-2.6-2-4-2.5-4-1.4M668.7 400.7c-1.1 1-.8 9.3.3 9.3.6 0 1-2.3 1-5 0-5.1-.1-5.5-1.3-4.3M474 401.7c0 1 8 5.6 8.7 5 .5-.6-6.7-5.7-7.9-5.7-.5 0-.8.3-.8.7M486.5 409.6c3.1 2.4 7.5 4.5 7.5 3.7 0-1.1-6.7-5.3-8.2-5.3-.8 0-.4.7.7 1.6M668 413c0 .5.5 1 1.1 1 .5 0 .7-.5.4-1-.3-.6-.8-1-1.1-1-.2 0-.4.4-.4 1M758 413.9c0 .9 6.1 5.1 7.4 5.1 1.7 0 .2-1.7-3.4-3.8-2.2-1.2-4-1.8-4-1.3M496 414.7c0 .9 8.1 5.5 8.7 5 .4-.5-7-5.7-8-5.7-.4 0-.7.3-.7.7M767 419.4c0 .4 6.8 4.6 7.6 4.6 1.4 0 0-1.8-2.5-3.3-2.7-1.6-5.1-2.2-5.1-1.3M507.1 420.9c.3.7 2.2 2.2 4.4 3.4s4.2 2.5 4.3 3c.2.4.8.4 1.3.1.9-.5-1.7-2.4-9-6.8-.9-.6-1.2-.5-1 .3M778.1 424.6c-2.5 3.2-2.6 3.8-.5 5.5 1.8 1.5 2.5 1.9 11.3 6.8q6.15 3.45 5.7 4.8c-.9 2.2 2.2 7.3 4.4 7.3 1.9 0 2 .7 2 17.5 0 12.1.3 17.5 1.1 17.5s1-5.1.8-17c-.4-17-.4-17 2.3-17 3.4 0 7.8-5.1 7.8-9 0-1.6-.9-3.7-1.9-4.7s-2.1-2.7-2.3-3.8c-.3-1.6-1.1-2-3.8-1.9-1.9 0-4.2.4-5.1.8-1 .4-4.2-1.1-9.2-4.4-4.3-2.7-8.4-5-9.2-5-.7 0-2.3 1.2-3.4 2.6m3.9.1c-.1 1.1-2.6 4.3-3.4 4.3-1 0-.7-2.5.6-3.8s2.8-1.6 2.8-.5m2 3.2c-1.1 2.1-3 2.9-3 1.2 0-1.2 3.1-4.3 3.7-3.7.3.2 0 1.4-.7 2.5m1.9 2.3c-.8 1.4-1.4 1.8-1.7 1-.4-1.3 1.7-4.6 2.5-3.8.3.2-.1 1.5-.8 2.8m2.9 1.3c-1.2 2.7-2.8 3.4-2.8 1.2 0-1.4 2-3.7 3.2-3.7.4 0 .2 1.1-.4 2.5m4.2-1c0 1.2-2.4 5.5-3.2 5.5-1.1 0-1-1.7.2-4.1.9-1.7 3-2.7 3-1.4m13.8 1.4c1 .6.6 1-1.4 1.5-5.1 1.3-8.3 6.9-6.9 12.3.6 2.4.5 2.5-1 1.3-1.7-1.4-1.7-5.6 0-10.5.7-2 .6-2-.9-.1-1.7 2.1-2.2 1.1-.6-1.4.5-.8 1.2-1.2 1.5-.8.4.4 2.1-.2 3.8-1.3 3.6-2.2 3.7-2.2 5.5-1m-12.6 3.3c-1.3 2.6-1.7 2.9-2 1.5-.2-1 .2-2.4.8-3.2 2.2-2.6 2.9-1.6 1.2 1.7m13.8.8c0 1.3-1.1 1.3-3 0-1.2-.8-1.1-1 .8-1 1.2 0 2.2.4 2.2 1m-3.5 2c.6 1-1.5 5-2.8 5-1.4 0-1.9-3-.7-4.5 1.4-1.7 2.6-1.9 3.5-.5m7.5 2.4c0 2.8-5.4 9-7.2 8.3-1.7-.6-1.3-5 .7-8.1 2.3-3.5 6.5-3.6 6.5-.2m-10 4.6c0 .5-.4 1-1 1-.5 0-1-.5-1-1 0-.6.5-1 1-1 .6 0 1 .4 1 1M520 428.7c0 1.3 7.1 5.5 8.3 5 .7-.2-.5-1.2-2.5-2.2-2.1-1.1-3.8-2.2-3.8-2.7 0-.4-.4-.8-1-.8-.5 0-1 .3-1 .7M577.3 438c0 2.5.2 3.5.4 2.2.2-1.2.2-3.2 0-4.5-.2-1.2-.4-.2-.4 2.3M532 435.9c0 .7.8 1.5 1.8 1.8.9.4 2.8 1.5 4.1 2.5 2.7 2.1 5.3 2.5 3.1.5-2.8-2.6-9-5.9-9-4.8M668 439.4c0 2.5.5 4.6 1 4.6.6 0 1-1.8 1-3.9 0-2.2-.4-4.3-1-4.6-.6-.4-1 1.2-1 3.9M544 442.8c0 1.1 7.1 5.3 8.3 4.9.6-.2-1-1.5-3.6-2.9-2.6-1.5-4.7-2.4-4.7-2M576.7 445.7c-1.1 1-.8 6.3.3 6.3.6 0 1-1.6 1-3.5 0-3.6-.2-4-1.3-2.8M668 451.5c0 2.5.5 4.5 1 4.5.6 0 1-2 1-4.5s-.4-4.5-1-4.5c-.5 0-1 2-1 4.5M555 449.4c0 .7 7.3 5.6 8.3 5.6.4 0 .5-.5.2-1-.7-1.1-8.5-5.3-8.5-4.6M576 459.9c0 2.3.5 4.1 1 4.1.6 0 1-1.5 1-3.4s-.4-3.8-1-4.1c-.6-.4-1 1-1 3.4M568 457.4c0 .3 1.2 1.7 2.6 3.1 2.7 2.7 4.6 2.7 2.4 0-1.4-1.7-5-3.9-5-3.1M668 464c0 2.7.5 5 1 5 .6 0 1-2.3 1-5 0-2.8-.4-5-1-5-.5 0-1 2.2-1 5M575.6 468.5c.8 3.5 1 3.9 1.7 2.8.3-.5-.1-1.9-.9-3.3-1.4-2.5-1.4-2.5-.8.5M444.5 471.3c-.7 2.5-1.3 22.4-.7 23.4.5.7 14.5 1.2 44.2 1.4l43.5.4.3-5.8c.3-5.7.3-5.7 5.5-5.7 3.4 0 6.4.7 8.7 2 1.9 1.1 5.4 3 7.8 4.2 4.2 2.2 4.2 2.2 4.2 7.8 0 7 1.9 9.2 7.6 8.9 4.6-.3 8.1 1.6 8.9 4.8.6 2.7 6.6 5.7 9.4 4.8 3-.9 7.9-7 9-11.2 1.4-4.9 1.4-11.9.1-14.4-.7-1.2-2.1-1.9-4.1-1.9-1.7 0-4.4-.9-6-2.1-1.6-1.1-2.9-1.6-2.9-1 0 1.6 5.6 5.1 8.2 5.1 2.2.1 2.2.1.3 1.2-1.1.6-2.3 1.6-2.7 2.1-.4.7-1.6.4-3.3-.7-3.1-2-5-1.1-2.1 1 2 1.4 2 1.4 0 2.8-1.7 1.3-1.9 1.3-2.2-.2-.5-2.4-11.1-8.4-14.7-8.4-3 .1-3 .1-.5-1.8 3.1-2.5 3.6-2.4 6.7 0 1.5 1.1 2.9 1.8 3.2 1.4.3-.3-.5-1.4-1.8-2.5-2.3-1.9-2.3-2-.5-3.4 1-.8 2.3-1.5 2.7-1.5.5 0 .5-.5.2-1-.4-.7-1.1-.8-1.8-.2s-3.4 2.2-6.2 3.7c-2.7 1.5-5.7 3.5-6.6 4.5-1.8 2.1-1.7 2.1-11.7-3.8-4-2.4-6.5-3.2-10.2-3.2-5 0-5 0-5-5v-5h-12.7c-7.1 0-18.6-.3-25.8-.5-34.3-1.3-48.6-1.3-49-.2m55.3 2.4 29.2.6V494l-32.7-.1c-38.7-.2-49-.7-49.6-2.3-.2-.6-.2-5 .1-9.9l.5-8.7h11.6c6.4 0 24.8.3 40.9.7m64.2 23.7c0 3 .3 6.1.6 7 .4 1.1.1 1.6-1 1.6-1.3 0-1.6-1.2-1.6-7 0-4 .4-7 1-7s1 2.4 1 5.4m6.9-2.9c3.7 2.5 3.8 2.7 3.3 7.8-.2 2.9-.6 5.3-.7 5.5-.2.2-1.9-.7-3.8-2-3.3-2.1-3.6-2.7-3.9-8-.2-3.2 0-5.8.5-5.8.4 0 2.5 1.1 4.6 2.5M592 500c0 6.8-1.6 10.8-5.6 13.9-3.2 2.5-6 2.7-6.8.5-.3-.9-.6-4.2-.6-7.4 0-5.8 0-5.8 5.8-9.4 3.1-1.9 6-3.6 6.5-3.6.4 0 .7 2.7.7 6m-14.2 8.7c-.3 6.4-1.8 5.2-1.8-1.5 0-4.1.3-5.3 1-4.2.6.8.9 3.4.8 5.7"/><path d="M454.1 475.3c-.6.6-1.1 1.7-1.1 2.5 0 1.1.3 1.2 1.4.3.9-.7 1.7-.8 2-.2.8 1.2-.3 4.1-1.5 4.1-.5 0-.9.4-.9 1 0 .5.7 1 1.5 1 1.6 0 2.1 3.5.6 4.5-.6.3-1.4-.3-2-1.2-1.1-2.1-2.6-1.1-1.7 1.2.9 2.5 3.7 3 5.2 1.1 1.1-1.6 1.2-3.4.5-13.2-.1-1.7-2.7-2.4-4-1.1M486.9 475c0 .3-.1 4.2-.2 8.8-.2 6.7.1 8.2 1.3 8.2 1.3 0 1.5-1.3 1.2-7.8-.2-4.2-.8-8.1-1.3-8.7-.5-.5-.9-.7-1-.5M496 479.5c0 3.8.3 4.5 2 4.5 2 0 2.5 1.5 1.4 4.4-.5 1.3-.9 1.4-2 .5-1.8-1.5-2.7-.7-1.8 1.5 1 2.6 4 1.9 5.4-1.3 1.4-3.6.6-6.8-2.1-7.6-2.5-.8-2.5-3.5 0-3.5 2.6 0 3.5-1.6 1.5-2.4-3.6-1.4-4.4-.7-4.4 3.9M507 477c-.6 1.1-1 4.8-.8 8.3.2 5.1.6 6.2 2.2 6.5 2.5.5 3.7-1 3.8-4.8.1-2.3-.6-3.9-2-5.1-2.2-1.8-2.9-3.9-1.3-3.9.5 0 1.1.6 1.4 1.2.3.9.7.7 1.2-.6.5-1.1.3-2.1-.6-2.7-2.1-1.3-2.7-1.1-3.9 1.1m3 10c0 1.6-.4 3-.9 3-1 0-2.1-4.7-1.3-5.5 1.3-1.3 2.2-.3 2.2 2.5M464.7 480.6c-2.9 4.9-2.8 6.4.4 6.4 1.5 0 1.9.6 1.7 2.2-.2 1.5.2 2.3 1.1 2.3 1 0 1.4-1 1.4-3-.1-9.5-.4-12.5-1-12.5-.5 0-2 2.1-3.6 4.6m1.9 4.1c-1 1-1.9-.5-1-1.8.6-1.1.8-1.1 1.2 0 .2.7.1 1.5-.2 1.8M473.5 483c-.3.5 0 1.3.9 1.6 2.1.8 6.1.1 6.1-1.1 0-1.4-6.2-1.9-7-.5M584 503.7c-2.4 3.1-2.3 7.6.2 8.1 3.1.6 7.2-6 6-9.6-.7-2.1-4-1.3-6.2 1.5m5 .6c0 1.7-2.9 5.7-4.1 5.7-1.3 0-1.1-4.4.3-5.8 1.6-1.6 3.8-1.5 3.8.1M668 476.9c0 2.8.5 5.1 1 5.1.6 0 1-2 1-4.4 0-2.5-.4-4.8-1-5.1-.6-.4-1 1.3-1 4.4M576 477c0 1.8.4 2.9 1 2.5.6-.3 1-1.5 1-2.5s-.4-2.2-1-2.5c-.6-.4-1 .7-1 2.5M575 487.4c0 2 .5 3.6 1 3.6.6 0 1-1.1 1-2.5s0-2.8.1-3.2c0-.4-.4-.9-1-1.1-.7-.2-1.1 1.1-1.1 3.2M668 490.5c0 3.5.4 5.4 1 5 .6-.3 1-2.6 1-5s-.4-4.7-1-5c-.6-.4-1 1.5-1 5M757.2 487.2c-1.7 1.7-1.5 5.3.5 6.9.9.8 1.8 1.3 2 1.1.5-.3.5.7 0 2.1-.3.9-.8.9-2-.2-1.5-1.2-1.7-1.1-1.7.3 0 2.2 2.7 3.1 4.5 1.6 2.8-2.3 1.5-13-1.5-13-.3 0-1.1.5-1.8 1.2m3.2 2.4c.7 1.8 0 3.4-1.5 3.4-.5 0-.9-1.1-.9-2.5 0-2.8 1.5-3.4 2.4-.9M766 488.5c-1.4 3.8-.1 6.1 3.3 5.6.4 0 .7.8.7 2 0 1.8-.4 2-2.5 1.5-1.9-.5-2.3-.3-1.9.9.7 1.8 3.5 2 5.2.3 1.9-1.9 1.5-9.2-.6-11.1-2.5-2.3-3.1-2.1-4.2.8m3.6 3.1c-.5 1.3-1 1.4-1.8.6-.6-.6-.8-1.8-.4-2.8.5-1.3 1-1.4 1.8-.6.6.6.8 1.8.4 2.8M785.9 487.3c-2.1 1.6-2.3 10.1-.2 11.8 2.6 2.3 4.8-.2 4.8-5.5.1-5.5-2-8.2-4.6-6.3m2.9 2.9c-.6 1.8-2.8 2.1-2.8.4 0-.9.7-1.6 1.6-1.6s1.4.5 1.2 1.2m.2 5.8c0 1.1-.7 2-1.5 2s-1.5-.9-1.5-2 .7-2 1.5-2 1.5.9 1.5 2M775 487.5c0 .3.9.9 2 1.3 1.8.7 1.9.9.5 3.6-1.7 3.2-2 7.6-.5 7.6.6 0 1-1.2 1-2.8.1-1.5.7-3.8 1.5-5.2 2.2-3.8 1.8-5-1.5-5-1.6 0-3 .2-3 .5M823.3 487.7c-1.5.5-1.8 9-.4 11.1.5.8 1.7 1.2 2.7 1 1.5-.2 2-1.4 2.2-5.7.4-6.1-.9-7.9-4.5-6.4m3.2 5.8c0 2.2-.5 4-1.2 4.2-.9.3-1.3-.9-1.3-4.2s.4-4.5 1.3-4.3c.7.3 1.2 2.1 1.2 4.3M841.1 488.3c-.6.6-1.1 2.2-1.1 3.5 0 1.9.4 2.3 2 1.9 2.7-.7 4.7 1.8 3 3.8-1 1.2-1.6 1.3-2.6.4-1.1-.9-1.4-.8-1.4.4 0 2 1.4 2.9 3.4 2.1 3.4-1.3 3.1-8.4-.5-8.4-2.7 0-2.4-2.8.4-3.2 2.2-.3 2.2-.3 0-1-1.2-.3-2.6-.1-3.2.5M795.5 491.9c-1.8 4.1-1.4 6.1 1.1 6.1.8 0 1.4.5 1.4 1.1 0 .5.5.7 1 .4.6-.3 1-3.1 1-6.1 0-6.6-1.9-7.2-4.5-1.5m2.1 3.8c-1.1 1.1-1.9-.6-1.1-2.4.8-1.7.8-1.7 1.2 0 .3 1 .2 2.1-.1 2.4M814.4 489.1c-.3.6-.2 1.4.4 1.8.6.3 1.2 2.7 1.5 5.1.3 3.8.4 3.6.5-1.8.2-5.8-.7-7.7-2.4-5.1M833.8 490.2c-3.1 4.8-3.1 6.5.1 8.1 3.5 1.8 3.9 1.2 3.3-5.6-.4-5.2-1.3-5.8-3.4-2.5m2.2 3.8c0 1.1-.7 2-1.5 2-1.7 0-1.8-.2-.9-2.4.9-2.3 2.4-2 2.4.4M804 494c0 .5 1.2 1 2.6 1s2.3-.4 1.9-1c-.3-.6-1.5-1-2.6-1-1 0-1.9.4-1.9 1M668 505.5c0 3.2.2 5.6.4 5.4.8-.7 1-9.8.3-10.5-.4-.4-.7 1.9-.7 5.1M667.7 519.2c-.3 2.9-.1 5.7.4 6.2.5.6.9-1.5.9-5.2 0-3.4-.2-6.2-.4-6.2s-.6 2.4-.9 5.2M576 526.4c0 3.1.5 5.6 1 5.6.6 0 1-2.2 1-4.9 0-2.8-.4-5.3-1-5.6-.6-.4-1 1.5-1 4.9M667 535.5c0 3.7.4 6.5 1 6.5s1-2.8 1-6.5-.4-6.5-1-6.5-1 2.8-1 6.5M584 534.6c-2.7 1.8-5 4.3-5 5.4 0 .4 2.5 2.4 5.5 4.4 5.5 3.6 5.5 3.6 5.5 9.5 0 5.4-.3 6.3-3.4 9.5-2.3 2.5-4.2 3.6-6.1 3.6-2.8 0-2.8 0-2.1-10.5.5-7.2.4-10.5-.3-10.5-.6 0-1.1 1.8-1.1 4s-.4 4-.9 4-3.5-1.6-6.7-3.5-6.2-3.5-6.7-3.5-2.5 1-4.4 2.1c-3.3 2-4.3 2.1-15.8 1.5-7.5-.4-12.6-.3-12.9.3-.8 1.2 4.6 2 15.2 2.3 7.1.2 8.2.5 8.2 2.1 0 .9 1.8 3 4 4.5 3.6 2.5 3.9 3.1 4 7.5 0 3 .4 4.6 1 4.2.6-.3 1-2.6 1-5.1 0-5.5 1.7-5.8 8.9-1.3 6.3 3.9 12.7 5.3 15.8 3.4 1.4-.9 2-2.1 1.6-3.4-.2-1 .2-3.2 1.1-4.9s1.6-5 1.6-7.4c0-3.9.3-4.5 3.8-6.3 3.2-1.7 3.7-2.5 4-6s-.1-4.2-2.7-5.8c-3.7-2.2-9.9-2.2-13.1-.1m13.7 2.6c2.4 1.9 1.5 5.6-1.7 7.3-1.6.8-3.5 1.5-4.3 1.5-1.7 0-10.7-5.7-10.7-6.8 0-.8 5.3-3.4 9-4.5 1.7-.5 5.7.8 7.7 2.5M568.8 552c2.8 1.7 5.2 3.4 5.2 3.9 0 1.9-5.2 4.1-9.7 4.1-5.4 0-9.7-2.6-9.2-5.5.3-1.5 6.1-5.5 7.9-5.5.3 0 2.9 1.4 5.8 3m7.2 9.5c0 3.9-.6 4.2-3.9 1.9-2.4-1.7-2.4-1.7 0-3.5 3.4-2.6 3.9-2.4 3.9 1.6m10.7 6.2c-.4.3-.7 0-.7-.7s.3-1 .7-.7c.3.4.3 1 0 1.4"/><path d="M589 537.5c-1 1.2-1 1.8 0 3 1.6 2 4.4 1.9 6.1-.1 1.1-1.4 1-1.8-.6-3-2.4-1.8-3.9-1.8-5.5.1m5 1.5c0 .5-.9 1-2.1 1-1.1 0-1.7-.5-1.4-1 .3-.6 1.3-1 2.1-1s1.4.4 1.4 1M558.9 553.6c-1.1 1.4-1 1.8.6 3 2.3 1.7 2.7 1.7 5 0 2.4-1.7 1.3-4.6-1.8-4.6-1.4 0-3.1.7-3.8 1.6m5.1 1.4c0 .5-.7 1-1.5 1s-1.5-.5-1.5-1c0-.6.7-1 1.5-1s1.5.4 1.5 1M575.6 539c-.3 2.3-.3 4.7.1 5.3.5.7 1-.7 1.4-3.3.4-2.5.3-4.9-.1-5.3-.4-.5-1 1-1.4 3.3M440 549.9v12l15.8.3c8.6.2 28.3.3 43.7.3h28l.3-12.3.3-12.2H440zm85.5.6v10l-4.5-.2c-2.5-.1-21-.2-41.2-.2L443 560v-20l41.3.2 41.2.3z"/><path d="M493.3 541.7c-.8.3-1.3 2.3-1.3 5 0 4 .2 4.4 2 3.8 1.7-.5 2-.2 2 2.4 0 1.7-.4 3.1-1 3.1-.5 0-1-.5-1-1 0-.6-.4-1-1-1-1.6 0-1.2 3 .5 3.6 4.1 1.6 6.3-6.4 2.5-8.8-2.3-1.5-2.7-3.8-.6-3.8s3.1-2.1 1.5-3.1c-1.5-1-1.8-1-3.6-.2M450.1 544.2c0 1.3.3 1.7.6 1 .2-.6.9-1.2 1.4-1.2 1.4 0 1.1 3.8-.3 4.4-.9.3-.8.8.5 1.6 1.8 1.2 2.3 4.5.8 5.5-.6.3-1.4-.3-2-1.2-.5-1-1.3-1.4-1.7-1-1.1 1 .9 4.1 2.8 4.5 1.7.3 4.1-4.4 3.1-6.1-.4-.7-.7-3-.8-5.2 0-3.4-.4-4.1-2.2-4.3-1.8-.3-2.3.1-2.2 2M461.5 547c-2.7 5.4-2.6 7 .6 7 1.6 0 1.9.5 1.4 2-.4 1.4-.2 2 .9 2 1.2 0 1.4-1.5 1.4-7.5-.1-4.2-.5-7.8-.9-8.1-.5-.2-2 1.8-3.4 4.6m2.5 2.4c0 1.7-1.4 2.9-2.3 2-.8-.8.3-3.4 1.4-3.4.5 0 .9.6.9 1.4M484 542.5c-.1.5-.1 3.8 0 7.2.1 4-.2 6.3-.9 6.3-.6 0-1.1.4-1.1 1 0 .5.8 1 1.8 1 1.6 0 1.8-.8 1.4-6.8-.3-7-.8-10.4-1.2-8.7M503 546.4c0 3.6.3 4.4 1.5 4 1.7-.7 3 1.9 2.1 4.2-.5 1.3-.9 1.4-2 .5-.9-.7-1.7-.8-2-.3-.8 1.4 2.1 3.5 3.9 2.9 1.7-.7 3-5 2.1-7.3-.3-.9-1.5-1.8-2.6-2.1-2.7-.7-2.5-3.1.3-3.5 2.9-.4 2.4-2.2-.8-2.6-2.4-.3-2.5-.1-2.5 4.2M470.5 550c-.4.6.8 1 3 1s3.4-.4 3-1c-.3-.6-1.7-1-3-1s-2.7.4-3 1M667 550.5c0 3 .5 5.5 1 5.5.6 0 1-2.5 1-5.5s-.4-5.5-1-5.5c-.5 0-1 2.5-1 5.5M667 564c0 3.2.4 4.9 1 4.5.6-.3 1-2.4 1-4.5s-.4-4.2-1-4.5c-.6-.4-1 1.3-1 4.5M667.3 576.5c0 2.7.2 3.8.4 2.2.2-1.5.2-3.7 0-5-.2-1.2-.4 0-.4 2.8M559.2 576.2c-.7.7-1.2 4.2-1.2 8.5 0 4.2-.4 7.3-1 7.3-.5 0-2 1-3.2 2.2-2 2-3 2.1-12 1.9-5.6-.1-9.8.1-9.8.7 0 .5 4.6 1.2 10.2 1.6s10.5.9 11 1.2c.4.3.8 1.5.8 2.8 0 3.4 3.1 5.6 7.6 5.6 4.6 0 8.4-2.3 8.4-5.1 0-1.1.5-3 1.1-4.2 1-1.8.8-2.4-1.5-4.4-2.4-2.1-2.8-3.3-3.3-10.1-.3-4.2-1.1-8-1.7-8.4-1.7-1.1-4.1-.9-5.4.4m4.5 1.4c-.3.3-1.2.4-1.9.1-.8-.3-.5-.6.6-.6 1.1-.1 1.7.2 1.3.5m.8 3.4c-.3.5-1.5 1-2.6 1-1 0-1.9-.5-1.9-1 0-.6 1.2-1 2.6-1s2.3.4 1.9 1m0 4c-.3.5-1.5 1-2.6 1-1 0-1.9-.5-1.9-1 0-.6 1.2-1 2.6-1s2.3.4 1.9 1m0 4c-.3.5-1.5 1-2.6 1-1 0-1.9-.5-1.9-1 0-.6 1.2-1 2.6-1s2.3.4 1.9 1m.5 3.5c0 .9-.9 1.5-2.5 1.5-2.9 0-3.4-1.6-.7-2.3 3-.8 3.2-.7 3.2.8m-7 3.4c0 3.9 6.6 4.3 8 .5.9-2.2 1.3-2.4 2.5-1.4 3.6 3 .4 6-6.5 6-6.7 0-9.9-2.7-6.8-5.8 1.7-1.7 2.8-1.5 2.8.7m5.2 1.3c-.9.9-1.5.9-2.4 0s-.7-1.2 1.2-1.2 2.1.3 1.2 1.2m-4.8 7.9c-.8 1.3-2.4.1-2.4-1.8 0-1.3.3-1.3 1.5-.3.8.7 1.2 1.6.9 2.1m9.6-1.5c0 .8-.5 1.2-1 .9-.6-.4-.8-1.1-.5-1.6.9-1.4 1.5-1.1 1.5.7m-3 1.5c0 .5-1.1.9-2.5.9-2.8 0-3.4-1.6-.7-2.3 2-.4 3.2.1 3.2 1.4M667.3 589c0 3 .2 4.3.4 2.7.2-1.5.2-3.9 0-5.5-.2-1.5-.4-.2-.4 2.8M437 591c-1.4 2.6.3 6 3 6 1.3 0 1.8.5 1.3 1.5-.3.9-1.3 1.5-2.3 1.3-.9-.2-1.9.1-2.1.7-.6 1.5 4.3 1.9 5.2.3 1.3-2 1.1-9.2-.3-10.6-1.8-1.8-3.6-1.5-4.8.8m5 3.1c0 .5-.9.9-2 .9-1.9 0-2.7-2-1.3-3.3.7-.8 3.3 1.1 3.3 2.4M447.2 589.9c-.8.5-1.2 2.1-1 3.7.2 2.1.9 3 2.6 3.2 2.9.4 2.3 2.7-.7 2.6-2.5-.1-2.8 2.1-.4 3s4.4-1.5 5-6.1c.4-2.9.1-4.4-1.2-5.6-1.9-1.9-2.4-2-4.3-.8m3.2 2.7c.9 2.2.8 2.4-.9 2.4-.8 0-1.5-.9-1.5-2 0-2.4 1.5-2.7 2.4-.4M455.4 590.2c-.4.5.4 1.2 1.6 1.5 1.5.4 1.9 1.1 1.5 2.2-1.4 3.5-1.8 8.1-.6 8.1.6 0 1.1-1.2 1.1-2.8.1-1.5.7-3.8 1.5-5.2s1.4-2.8 1.5-3.1c0-1.1-6-1.6-6.6-.7M465.6 590.9c-1.1 1.2-1.5 2.5-1 3.3.5.7.7 2.5.5 4-.3 3.7 3 5.5 5.4 2.9 1.2-1.5 1.4-2.4.6-3.8-.5-1.1-.6-2.5-.1-3.3.6-1 .3-2.1-.7-3.2-2-2.3-2.6-2.2-4.7.1m3.9 1.2c1 1.5-.1 2.3-2 1.5-.9-.3-1.3-1-1-1.6.8-1.3 2.2-1.3 3 .1m0 6c1 1.5-.1 2.3-2 1.5-.9-.3-1.3-1-1-1.6.8-1.3 2.2-1.3 3 .1M475 590.9c-2.6 4.9.3 13.4 3.9 11.2 2.2-1.4 2.6-9.4.6-11.4-2.1-2.2-3.2-2.1-4.5.2m4 5.2c0 2.8-.4 3.9-1.5 3.9s-1.5-1.1-1.5-3.8c0-2.1.3-4.2.6-4.5 1.4-1.3 2.4.6 2.4 4.4M494.6 590.6c-2.6 2.6-1.8 10.7 1.2 11.9 2.4.9 4.2-2.2 4.2-7 0-5.8-2.4-8-5.4-4.9m3.4 5.5c0 2.8-.4 3.9-1.5 3.9s-1.5-1.1-1.5-3.8c0-2.1.3-4.2.6-4.5 1.4-1.3 2.4.6 2.4 4.4M504.2 590.2c-.5.7-1 3.4-1 6-.1 3.7.3 5 1.7 5.8 2.5 1.3 5.7-2.1 4.3-4.6-.5-.9-.7-2.5-.5-3.5.5-1.9-1.2-4.9-2.7-4.9-.4 0-1.2.6-1.8 1.2m3.8 2.9c0 .5-.9.9-2 .9-1.9 0-2.6-1.1-1.4-2.3.8-.8 3.4.3 3.4 1.4m0 5.4c0 .8-.9 1.5-2 1.5-2 0-2.6-1.1-1.3-2.3 1.2-1.3 3.3-.7 3.3.8M513 591.1c-.7 1.1-.8 2.4-.4 2.7.4.4.9.1 1.1-.6.5-1.4 3.3-1.7 3.3-.3 0 .5-.6 1.6-1.3 2.3-.8.7-2 2.4-2.6 3.7-1.1 1.9-1.1 2.5 0 3.2 1.9 1.2 4.9 1.1 4.9-.1 0-.6-.7-1-1.5-1-2.1 0-1.9-1.7.5-4.7 2.4-3.1 2.5-3.7.4-5.7-2.1-2.1-3.1-2-4.4.5M523.2 589.8c-1.9 1.3-1.9 9.9 0 11.9 2.7 2.6 4.8.1 4.8-5.6 0-5.8-1.8-8.2-4.8-6.3m3.5 6c.1 1.8-.3 3.5-.9 3.8-1.4.9-2.8-1.6-2.3-4.1.2-1.1.4-2.4.4-2.8.1-.5.7-.7 1.4-.5.6.3 1.3 1.9 1.4 3.6M484.5 597c.3.5 1.7 1 3.1 1 1.3 0 2.4-.5 2.4-1 0-.6-1.4-1-3.1-1s-2.8.4-2.4 1M667.3 602c0 3 .2 4.3.4 2.7.2-1.5.2-3.9 0-5.5-.2-1.5-.4-.2-.4 2.8M667.3 614c0 2.5.2 3.5.4 2.2.2-1.2.2-3.2 0-4.5-.2-1.2-.4-.2-.4 2.3M667.3 626c0 2.5.2 3.5.4 2.2.2-1.2.2-3.2 0-4.5-.2-1.2-.4-.2-.4 2.3M667.3 638.5c0 2.7.2 3.8.4 2.2.2-1.5.2-3.7 0-5-.2-1.2-.4 0-.4 2.8M666.9 646.2c-.8 2.4-.8 9.8 0 10.3.7.4 1.1-1.3 1.1-4.9 0-3.1-.2-5.6-.5-5.6s-.5.1-.6.2M574.2 652c-1.2.5-2.7 2.1-3.4 3.5-1.1 2.5-1.1 2.5-16 2.5-19.4 0-19.9 1.8-.5 2.2 13.9.3 14.2.3 14.5 2.6.2 1.2 1.8 3.2 3.6 4.4s3.7 3.1 4.2 4.2c1.2 2.9 6.4 3.3 8.7.8 1.6-1.8 1.6-1.9-.8-3.2-2.9-1.6-3.1-2.7-.9-5.8 1.1-1.6 2.2-2.1 3.5-1.7 2.3.8 2.6-1.3.3-2.2-1.9-.7-6 3.1-6.9 6.4-.6 2.6 1.1 5.7 2.6 4.7.5-.3.9 0 .9.5 0 .6-1.3 1.1-3 1.1-2.9 0-3-.1-3-4.7 0-6.4 3.7-11.3 8.6-11.3 3.2 0 3.4.2 3.4 3.4 0 1.9.5 3.8 1 4.1.6.4 1-1 1-3.4 0-4.6-2.9-7.4-6.6-6.5-1.2.3-3.6-.1-5.2-1-1.7-.9-3.2-1.6-3.4-1.5-.2 0-1.3.4-2.6.9m5.8 2c.8.5 1.1 1.2.7 1.6s-1.5 0-2.4-.9c-1.8-1.8-.8-2.3 1.7-.7m-1.6 5.4c-.7 2.4-2.3 4.6-3.3 4.6-.3 0-1.6-.8-2.8-1.8-2.3-1.7-2.3-1.7-.3-5 2-3.2 2.1-3.2 4.5-1.6 1.9 1.2 2.4 2.2 1.9 3.8m-4.9 5.6c.3.5.1 1-.4 1-.6 0-1.1-.5-1.1-1 0-.6.2-1 .4-1 .3 0 .8.4 1.1 1M445.5 654c-.9 2.9.3 5.7 2.7 6.3 1.8.5 1.9.8.8 2.2-1 1.2-1.6 1.3-2.6.4-.9-.7-1.4-.7-1.4-.1 0 .5.6 1.5 1.4 2.1 2.2 1.8 5.6-2 5.6-6.2-.1-5.6-5-9.3-6.5-4.7m4.3 2.3c.2 1-.3 1.7-1.2 1.7-1 0-1.6-.9-1.6-2.1 0-2.4 2.3-2.1 2.8.4M455 654c-1.5 2.8-.3 6 2.1 6 1 0 1.9.6 1.9 1.3 0 2.1-1.2 2.8-2.7 1.5-2-1.6-3 0-1.1 1.8 1.2 1.3 2 1.4 3.7.5s2.1-2.1 2.1-5.9c0-6.7-3.6-9.7-6-5.2m4 2.6c0 .8-.7 1.4-1.5 1.4-1.5 0-2.1-2.1-.9-3.3 1-.9 2.4.2 2.4 1.9M464.6 653.6c-1.2 3.1-.6 5.6 1.4 6.1 1.1.3 2 1.4 2 2.4 0 2.2-1.1 2.4-2.8.7-.9-.9-1.2-.8-1.2.4 0 .9.8 1.9 1.7 2.3 2.3.8 5.3-2.8 5.3-6.4 0-5.1-4.9-9.3-6.4-5.5m3.4 2.4c0 1.1-.4 2-1 2-.5 0-1-.9-1-2s.5-2 1-2c.6 0 1 .9 1 2M483.2 654c-1.8 2.9-1.5 7.5.8 10.1 2 2.4 2 2.4 4 0 2.4-2.8 2.6-6.8.4-9.9-1.9-2.7-3.5-2.8-5.2-.2m4.4 2.4c.8 3.4.1 6.1-1.6 6.1-1.6 0-2.6-4.5-1.6-7.1.8-2.2 2.5-1.7 3.2 1M512 653.9c-1.5 2.8-1.2 8.4.4 10.7 2.4 3.1 5 .7 5.4-5 .4-6.7-3.3-10.3-5.8-5.7m3.8 5.7c-.2 2.2-.7 3.9-1.3 3.9-1.2 0-1.9-6-1-8.3 1-2.8 2.7.3 2.3 4.4M521.6 653.6c-.3.9-.6 3.3-.6 5.4 0 5 .8 7 2.9 7 2 0 4.1-3.9 4.1-7.3 0-4.8-5-8.7-6.4-5.1m4.4 5.3c0 4.4-.8 5.5-2.7 4-1.6-1.4-1.7-6.1-.1-7.7 1.8-1.8 2.8-.4 2.8 3.7"/><path d="M531.2 653.2c-1.5 1.5-1.6 8.2-.2 10.9.6 1 1.7 1.9 2.5 1.9 3.4 0 4.9-9.5 1.9-12.4-1.9-1.9-2.6-2-4.2-.4m3.6 7.1c-.2 1.7-.7 3.2-1.3 3.2-1.2 0-1.9-6-1-8.3.6-1.6.7-1.5 1.6.1.6.9.9 3.2.7 5M475 657c-2.1 4.2-2 6 .5 6 .8 0 1.8.7 2.3 1.6.7 1.3 1 1.3 1.4.2.8-2-.3-11.8-1.3-11.8-.5 0-1.8 1.8-2.9 4m3 2.5c0 .8-.4 1.5-1 1.5-.5 0-1-.7-1-1.5s.5-1.5 1-1.5c.6 0 1 .7 1 1.5M503.1 654.3c-.9 1.2-.8 1.6.5 2.1 1 .4 1.5 1.7 1.4 3.8-.3 5.4-.1 6.3 1.1 5.1 1.3-1.3.8-11.5-.7-12-.6-.2-1.6.3-2.3 1M493 660c0 .5 1.1 1 2.4 1 1.4 0 2.8-.5 3.1-1 .4-.6-.7-1-2.4-1s-3.1.4-3.1 1M666 665.6c0 3.4.4 5.3 1 4.9.6-.3 1-2.8 1-5.6 0-2.7-.4-4.9-1-4.9-.5 0-1 2.5-1 5.6M587.5 667.5c2.7 2.2 5.5 3.3 5.5 2.1 0-.7-6.6-4.6-7.6-4.6-.5.1.5 1.2 2.1 2.5M596 671.9c0 1 4.5 4.1 6 4.1.6 0 .8-.5.5-1-.9-1.5-6.5-4.2-6.5-3.1M666 680.6c0 3.4.4 5.3 1 4.9.6-.3 1-2.8 1-5.6 0-2.7-.4-4.9-1-4.9-.5 0-1 2.5-1 5.6M605 677.4c0 .7 7.2 4.7 7.7 4.3.6-.7-4.8-4.7-6.3-4.7-.8 0-1.4.2-1.4.4M624.6 682c-7.4 6.8-8.7 15.8-2.9 19.5 3.2 2 3.2 2 3.3 36.6v34.6l-5.2 3.9c-4.7 3.5-5.3 4.4-5.6 8.1-.4 5.3 2.5 11 7.5 15.2 4.3 3.5 6.5 3.8 10.8 1 1.7-1 4-2.4 5.1-3 2.4-1.2 4.4-4.9 4.4-8 0-2.2-3.8-10.6-5.1-11.5-.5-.3-.9-6.5-.9-13.8v-13.3l4.3-.8 4.2-.8-4-.6-4-.6-.3-22.4c-.2-19.5 0-22.6 1.4-24.2.9-1 1.3-2.3.9-2.8-.9-1.6.8-1.3 3.1.4 2.5 1.9 3.5 1.9 2.8 0-.4-.8-1.2-1.5-1.9-1.5s-1.8-.7-2.5-1.5c-1.1-1.3-1-1.4.3-.9 2.1.8 3.7-2.5 3.7-7.5 0-3.8-.4-4.3-4.7-7.1-6.6-4.1-9.4-3.9-14.7 1m10.8-1.1c.3.5-1 2.1-2.9 3.5-3.6 2.8-7.5 9.1-7.5 12.3 0 1-.4 2.4-.9 3.2-1.6 2.5-4.1-.6-4.1-4.9 0-4.8 2.3-9.3 6.3-12.5 3.2-2.4 8.1-3.3 9.1-1.6m6 3.7c1.8 1.7 2.1 5 .6 5.9-.5.3-1 0-1-.8s-.7-2-1.5-2.7c-3.4-2.8-10.5 4.5-10.5 10.8 0 2.1.7 3.6 2.2 4.6 2.2 1.6 2.2 1.6-.4 1.6-2.8 0-4.8-2.3-4.8-5.4 0-3.4 4.4-10.8 7.9-13.2 4.2-2.8 5.4-3 7.5-.8m-3.4 3.9c0 .3-.2.5-.5.5s-.5-.2-.5-.5.2-.5.5-.5.5.2.5.5m-3.2 6c-.6 1.4-1.3 2.3-1.6 2.1-.7-.7.9-4.6 1.8-4.6.5 0 .4 1.1-.2 2.5m5.2-1.7c0 .4-.9 1.3-2.1 2-1.4.9-1.8 1.9-1.4 3.2.4 1.2.2 2-.4 2-1.6 0-1.3-3.2.5-5.8 1.5-2.1 3.4-3 3.4-1.4m-8.4 2.8c-.3.8-.1 2.5.5 3.6.9 1.6.8 1.9-.3 1.6-2.1-.7-2.4-6.8-.2-6.8.3 0 .3.7 0 1.6m3.1 39.1c-.4 16.4-.7 33.1-.7 37 0 4.2-.4 7.3-1 7.3-1.1 0-1.5-72.2-.3-73.3 2.4-2.4 2.6.9 2 29m-4.6 7.8c-.1 19.8-.4 36.1-.6 36.3s-.8.1-1.4-.3c-.8-.4-1.1-12.2-1.1-36.6 0-33.2.1-36 1.7-35.7 1.5.3 1.6 3.3 1.4 36.3m-3.3 36.6c2.5 2.8 3.1 3 5.1 2 4.7-2.5 8.1 1.4 8.1 9.3 0 4.4 0 4.3-6.2 7.4-.5.2-.8-.8-.8-2.3 0-4.1-3.6-10.9-7.5-14.4-2-1.7-3.3-3.6-3-4.1.9-1.5 1.3-1.3 4.3 2.1m-2.6 2.7c1.2 1.4 1 1.4-1.1.2-2.2-1.1-2.7-1-4.4 1.1-2.5 3.2-1.5 8.4 2.6 12.6 3.5 3.7 7.2 4.3 9.3 1.5 1.3-1.5 1.3-1.4.5.8-1.4 4.1-5.2 3.8-9.9-.7-4.6-4.3-6.8-10.6-5.3-14.6 1.5-3.8 5.5-4.3 8.3-.9m1.6 4.2c3.5 3.3 5 7.5 3.5 9.8-1.3 2.2-3.3 2.7-3.3.8 0-.9.5-1.6 1-1.6 1.8 0 1.1-4.6-1.1-7.4-1.1-1.4-2.9-2.6-4-2.6-1 0-1.9-.5-1.9-1 0-1.9 2.7-1 5.8 2m-4.8 2c0 .5-.4 1-1 1-.5 0-1-.5-1-1 0-.6.5-1 1-1 .6 0 1 .4 1 1m5 2.8c0 1.3-.3 1.2-1.5-.4-1.9-2.5-1.9-4 0-2.4.8.7 1.5 2 1.5 2.8m-2 3.2c0 .5-.4 1-.9 1-.6 0-1.3-.5-1.6-1-.3-.6.1-1 .9-1 .9 0 1.6.4 1.6 1M614.5 683c.3.5 1.1 1 1.6 1 .6 0 .7-.5.4-1-.3-.6-1.1-1-1.6-1-.6 0-.7.4-.4 1M666.3 692c0 2.5.2 3.5.4 2.2.2-1.2.2-3.2 0-4.5-.2-1.2-.4-.2-.4 2.3M665.1 703.5c.1 4 .1 4 1 1 .5-1.8.5-3.3-.1-3.9-.7-.7-1 .4-.9 2.9M646 701.4c0 .5 6.5 4.6 7.4 4.6 1.6 0 .3-1.7-2.5-3.3-2.9-1.6-4.9-2.2-4.9-1.3M656 707.5c0 .9 4.4 2.3 5.4 1.7.5-.3.1-.9-1-1.3-2.3-.9-4.4-1.1-4.4-.4M647.3 737.1c-.9.9-1.3 4.8-1.3 12 0 8.8.3 10.8 1.6 11.3.9.3 20.6.6 43.8.6h42.3l.7-11.6c.4-6.4.4-11.9.1-12.3-.4-.3-19.9-.7-43.3-.9-33.2-.2-43 0-43.9.9m83.4 1.6c.9.4 1.3 3.2 1.3 10.4v9.9l-41.2-.2-41.3-.3-.1-8.5c0-4.7.1-9.3.4-10.3.4-1.7 2.7-1.8 40-1.6 21.8 0 40.2.3 40.9.6"/><path d="M656.7 740.7c-.4.3-.7 1.3-.7 2.2 0 1.2.3 1.2 1.2.3 2.8-2.8 3.9-.1 1.2 3-1.6 1.6-1.6 1.8 0 2.4 1.8.7 2.2 3.9.6 4.9-.6.3-1.3-.1-1.6-.9-.3-.9-1-1.3-1.5-1-1.3.8.9 4.4 2.7 4.4 2.3 0 4.1-4.7 2.6-7.1-.8-1.3-.9-2.5-.3-3.7 1.6-3-1.9-6.8-4.2-4.5M690 746.4c0 3.5-.3 7.1-.6 8-.4 1.1-.1 1.6 1 1.6 1.3 0 1.6-1.3 1.6-7.4 0-4.1-.4-7.8-1-8.1-.6-.4-1 1.8-1 5.9M698.7 740.7c-1.6 1.5-.6 3.1 1.5 2.5 1.9-.5 2.1-.3 1.4 2.9-1.7 7.8-1.8 9.9-.8 9.9.5 0 1.2-2.1 1.5-4.8.3-2.6.9-6.2 1.2-8 .7-2.9.5-3.2-1.7-3.2-1.4 0-2.8.3-3.1.7M710.1 741.3c-2.9 3.6-1.8 14.7 1.5 14.7 2.9 0 4.6-9.9 2.4-14.1-1.3-2.2-2.3-2.4-3.9-.6m2.7 7.3c-.2 2.7-.7 4.9-1.3 4.9-1.1 0-1.9-7.9-1-10.3 1.1-3 2.6.5 2.3 5.4M667.7 745.9c-2.6 4.9-2.6 4.9 0 5.5 1.9.5 2.4 1.2 2 2.6-.3 1.3 0 2 .8 2 1 0 1.4-1.9 1.3-7.5 0-4.1-.3-7.5-.7-7.5s-1.9 2.2-3.4 4.9m2.3 2.6c0 .8-.4 1.5-1 1.5-.5 0-1-.7-1-1.5s.5-1.5 1-1.5c.6 0 1 .7 1 1.5M721.7 741.7c-1.6 2.6-3.6 13.8-2.7 14.7.7.7 1 0 1-2.2 0-2.5.4-3.2 2-3.2 1.5 0 2 .7 2 2.4 0 1.4.5 2.8 1 3.1 1.3.8 1.3-.8-.1-8.1-1.2-6-2.3-8.3-3.2-6.7m1 6.5c-.3.8-.6.5-.6-.6-.1-1.1.2-1.7.5-1.3.3.3.4 1.2.1 1.9M676.5 748c-.4.6.8 1 3 1s3.4-.4 3-1c-.3-.6-1.7-1-3-1s-2.7.4-3 1M182.6 785.2l-25.8 14.1.7 7.8c.3 4.4 1 9.3 1.5 10.9.5 1.7 1.2 6.3 1.5 10.3.8 8.9 2.9 15.1 6.1 17.6 1.3 1 2.7 3.2 3 4.9.8 4.2 4.2 14 4.3 12.4.1-.7-.8-4.5-1.9-8.4-2.4-8.6-2.4-8.8-.6-8.8.8 0 1.7 1.4 2.1 3.2 1.2 5.7 5.7 19.9 6.2 19.4s-3-14-4.8-18.4c-1.8-4.7-1.5-4.9 10.6-6.2 6.4-.7 11.7-1.1 11.9-.9s2.2 6.2 4.5 13.3c3.6 11 4.2 13.8 3.7 18-.4 3.2-.1 7.2.8 10.6 2 7.7 5 24 4.5 24.3-.2.2-4.4.1-9.3-.2-10-.7-9.6-.4-12.2-9.6-.9-3.3-2.5-8.7-3.5-12s-2.6-8.7-3.5-12-1.9-5.5-2.1-4.8c-.4 1.2 2.9 13.1 7.9 28.3 1.1 3.6 2.2 9.2 2.3 12.5.7 18.1 2.7 21.7 17 31.3 6.1 4 11.7 7.6 12.5 8 4.3 2 14 8.9 14 9.9 0 2.2-2.9 1.5-8.8-2.1-11.2-6.6-19.8-12-26.9-16.7-7.8-5.3-7.4-4.4-9.3-18.9-1.3-9.4-6.1-31.2-9-40.5-1.1-3.3-2.7-8.7-3.6-12s-1.9-5.4-2.1-4.7c-.3.6.5 4.2 1.6 8 1.2 3.7 2.5 8.3 3.1 10.2.5 1.9 1.8 6.4 2.8 10 2.7 9 2.8 9.7 5.2 25.9 1.2 7.9 2.5 15.4 3 16.7.8 2.1 11.3 9.7 21.1 15.4 12.3 7.1 18.9 11.6 18.9 12.8 0 .8-.8 2.2-1.7 3.1-1 .9-4 4-6.8 6.9-4.6 4.9-4.8 5.3-3.2 6.9 1.3 1.3 1.9 1.4 2.9.5 1.8-1.8 4.8-1.5 9.6 1 2.8 1.5 4.5 3.2 4.8 4.8 1 4.5 1.3 5 3.2 5 2.2 0 16.7-7.3 19.4-9.7 1-.9 2.4-1.3 3.5-.9 1 .4 12 6.9 24.5 14.4 23.7 14.3 24.7 14.9 40.6 24.8 5.3 3.3 11.2 6.9 13 8 1.7 1 3.2 2.1 3.2 2.4s-12.8.4-28.5.2c-25.2-.3-28.5-.1-28.5 1.3 0 1.3 3.7 1.5 31 1.5h31l8.7 5.2c12.8 7.5 12.4 6.5 6.2 14.2-3 3.8-6 6.6-7.1 6.6-1 0-1.8.4-1.8 1 0 1.6 4 3.2 6.8 2.6 3.6-.8 8.4 2.4 9.8 6.6 1.5 4.6 3.5 5.5 8.6 4 2.4-.7 5.9-1.7 7.8-2.1 4.4-1 11-4.2 11-5.3 0-1.9 3.6-.5 10.8 4.3 10.1 6.8 9.8 6.3 7.2 9.9-2.3 3.2-2.3 3.2-.2 5.2 2 2.1 3.3 2.2 12.2 1.7 3.3-.1 5.8.5 9.5 2.4 2.7 1.5 5.8 2.7 6.7 2.7 3.5 0 13.2-3 15-4.7 1.9-1.7 2.1-1.7 5 0 1.6.9 4.2 1.7 5.7 1.7 5.1 0 9.1-5.9 7.7-11.5-.4-1.4-.4-2.5-.2-2.5.3 0 2.7 1.4 5.3 3 2.6 1.7 5.8 3 7.2 3 6.9-.1 10.2-8.8 6.6-17.3-.8-2-1.5-6.2-1.5-9.3 0-5.6 0-5.6 7.3-12.6 3.9-3.8 9.3-8.3 12-10 2.6-1.8 4.6-3.6 4.4-4.2-.4-1.1-5.9-5.2-7.9-5.8-2-.7 1.4-8.1 5.7-12.3 2.2-2.2 5.9-5 8-6.1 2.2-1.2 7.6-4.1 12-6.4s10.4-5.6 13.4-7.3c4.7-2.6 5.3-2.8 4.7-1.1-.5 1-1.2 3.1-1.8 4.6-.5 1.4-2.2 3.2-3.9 3.8-3.1 1.3-4.2 4.4-1.1 3.3 1.6-.6 1.6-.5 0 1.4-2.9 3.2-2.2 4.7 1.2 2.7 1.6-1 3.1-1.6 3.2-1.3.2.2 1.3 1.8 2.4 3.4 2.5 3.7 7.4 13.7 7.4 15.3 0 .7-.9 1.2-2 1.2-1.5 0-2-.7-2-2.8 0-3.5-4-11.1-6.2-11.8-2-.6-5.8 1.2-5.8 2.7 0 .6.6.9 1.3.6.6-.3 2-.8 2.9-1.2 1.2-.5 2-.1 2.5 1.1.4 1.1 1.5 3.1 2.6 4.6q1.95 2.7 1.2 4.5c-.7 1.5-.9 1.4-1.4-1.1-.9-4.4-9.1-8.4-9.1-4.5 0 .5.8.9 1.8.9 2.2 0 6.2 2.7 6.2 4.2 0 .6-1.1.1-2.4-1.2-2.3-2.1-5.6-2.2-5.6-.2 0 1.8 4 4.4 5.9 3.9 1.2-.3 2.2.1 2.5.9s1.3 1.4 2.3 1.4c1.5 0 1.6.2.3 1-.8.5-3.9.7-6.9.5-4.3-.4-5.2-.2-4.3.7.6.6 3.2 1.3 5.7 1.4 3.5.2 5.1-.2 6.5-1.6 1.1-1.1 2.7-2 3.5-2s1.5-.4 1.5-.9c0-.4 2-1.9 4.5-3.2s4.5-2.7 4.5-3.1c0-.5 2.2-.8 4.9-.8 4.5 0 5-.2 6.1-3.1.8-1.8 1.8-2.8 2.6-2.5s1.4-.5 1.6-2.2c.3-2.6-3.2-9-7.4-13.6-5-5.5-2.5-9.1 5.7-8.2 19 2.3 26.6 1.4 29.5-3.7 1.4-2.4 1.3-2.8-.5-4.6-1.1-1-5.5-3.7-9.8-6-7.8-4.2-7.8-4.2-15-2.6-4 .9-10.8 2-15.2 2.5-4.4.4-8.7 1-9.6 1.4-1.1.5-3.2-.4-6-2.4-7.4-5.4-21.2-13.1-24.5-13.7-2.9-.5-9.9 2.7-40.4 18.6-1.9 1-8.9 4.2-15.5 7.2-6.6 2.9-13.9 6.6-16.3 8.2-2.3 1.5-8.1 7.6-12.8 13.5s-8.9 10.8-9.3 11c-.4.1-3.4-1.3-6.6-3.3-3.2-1.9-6.7-3.7-7.7-4.1-2-.6-2.4-1.9-.8-2.9 2.6-1.6.3-2.1-7.6-1.7-15.4.8-17.4 0-52.4-21.1-11.8-7.1-22.8-13.7-24.5-14.7-8.2-4.7-14.3-8.5-18.2-11.1-2.3-1.6-4.4-2.9-4.7-2.9-1 0-14.6-9.3-14.6-9.9 0-.7 2.4-4.3 4.7-7.1 1.7-2.2 14-17.8 17.6-22.5 3.8-4.9 3.5-4.7 19.3-13.9 31.4-18.4 33.4-19.7 33.4-22.2 0-.8 1.7-3 3.8-5.1 3.8-3.8 12.2-19.3 12.2-22.6 0-1-.8-2.1-1.7-2.4-1-.4-2-.9-2.3-1.2-.6-.8-3.7-2.4-11.1-6.2-6-3.1-6-3.1-10.4-.9-4.2 2-4.5 2.5-4.5 6.1 0 3.9 0 3.9-8.7 3.7-8.8-.2-8.8-.2-20.8 6-13 6.7-22.7 9.7-34.7 10.8-6.4.6-7.8.4-7.8-.8 0-.8-1.2-3.2-2.7-5.5-2.6-4.1-2.6-4.1-19.2-4.5-9.5-.2-17.5-.9-18.6-1.5-2-1.1-3.8-6.2-10.8-30.3-1.4-4.8-2.8-12.6-3.1-17.8-.6-9.5-2.5-15-6.2-18.3-1.1-.9-5.2-3.3-9.2-5.3-5.2-2.6-7.6-4.4-8.3-6.4-1.9-4.9-3.4-7.5-4.4-7.8-.5-.2-12.6 6-26.9 13.8m28.6-9.7c1.4 3.1.4 4.3-2.3 2.7-1.7-1.1-2.8-.8-7.7 1.9-3.1 1.7-8.2 4.5-11.2 6.2s-7.3 4.1-9.5 5.4c-2.2 1.2-6.8 3.7-10.2 5.5s-6.5 3.9-6.8 4.7 0 5 .7 9.5c1.8 11.8 1.7 17-.3 17.4-1.3.2-1.9-1-2.8-6-1.7-9.8-3.3-21.9-2.9-22.2.8-.6 11.2-6.4 20.8-11.6 25.8-14 29.5-15.9 30.3-16 .4 0 1.3 1.1 1.9 2.5m-.2 5.7c3.8 2.3 8.1 4.7 14.5 8.1 7.8 4.2 10.5 9.2 10.5 19.1 0 6.2 2.6 17.2 9.4 39.5 1.4 4.7 2.6 8.9 2.6 9.5s-2 2.2-4.5 3.5c-2.7 1.4-4.7 3.2-4.9 4.5-.2 1.2-.9 4.6-1.5 7.6s-1.6 9.3-2.2 14c-1.2 8.3-5.8 19.5-7.2 17.3-.3-.5-1.3-4.3-2.2-8.4s-2-8.5-2.5-9.9c-.4-1.4-1.4-5.1-2-8.2-1.6-6.9-3.3-8.7-9.5-9.6-4.4-.7-4.8-1-6-4.7-5.2-15.9-7.5-24.7-7.5-28.5-.1-13.2-5.7-23.6-15.9-29.6-8.1-4.8-8.1-4.8-8.1-3.7 0 .6 1.2 1.6 2.8 2.4 13.6 7 18.3 14 19.7 29.2l.7 7.3-12.3 1.3c-12.2 1.2-12.2 1.2-14.8-1.5-2.2-2.5-2.6-3.8-2.8-10.4-.1-4.1-.6-10.4-1.2-14s-1.1-8.2-1.1-10.2c0-4.2-2.4-2.6 25-17.7 9.1-5 16.7-9.1 17-9.1s2.1 1 4 2.2m-45 52.5c0 1.6.9 4.3 2 6.1 2.4 3.9 2.5 5.2.5 5.2-1.9 0-6.5-8-6.5-11.3 0-2 .5-2.7 2-2.7s2 .7 2 2.7M384.8 849c3.9 2.3 7.2 4.8 7.2 5.6 0 2.6-8.2 17.7-10.6 19.7-1.4 1-3.3 3.6-4.4 5.7-1.5 3-4.1 5-12.7 10.1-5.9 3.5-11.9 7-13.3 7.7s-7.1 4-12.6 7.3c-10.7 6.3-10.3 5.9-26.3 26.9-3.6 4.7-7.1 9.1-7.8 9.8-.7.8-1.8 2.3-2.4 3.4-1 1.9-1.2 1.9-2.7.4-1.1-1.1-1.3-1.9-.7-2.4.6-.4 2.6-2.7 4.5-5.2s3.9-5 4.5-5.7c.5-.6 5.5-6.8 10.9-13.7 10.2-13 12.9-15.2 29.6-24.2 1.9-1.1 8.4-4.9 14.4-8.4 10.9-6.5 10.9-6.5 14.8-14.7 2.4-4.8 3.7-8.9 3.4-10-.6-1.7-6.1-5.1-11.7-7.2-3.9-1.4-4.8-6-1.7-8.4 3.4-2.8 9-1.7 17.6 3.3m-27 8.2c2.3 1.3 4.2 2.6 4.2 2.9 0 .6-2.1 1.7-15.5 8.9-12.2 6.5-19.2 10.2-28.6 15.3-11.1 6.1-13.6 6.1-19.4.2-6.7-6.6-6.2-8.1 3-8.8 10.7-.9 23.5-4.2 28.1-7.2 1.2-.7 2.4-2.6 2.7-4.2.4-2.3 1.8-3.5 6.9-6 7.6-3.9 12.7-4.2 18.6-1.1m14.6.2c2.2.9 3.7 1.8 3.5 2s-3.4.2-7-.1c-4.4-.4-7.4-1.2-9-2.5-2.4-1.9-2.4-1.9 3.1-1.5 3 .2 7.3 1.1 9.4 2.1M263 861.1c4.7.6 10 .8 11.8.5 1.7-.2 3.2-.2 3.2.2-.1.4-2.6 2.2-5.8 4-5.1 3-6.3 3.3-11.2 2.9-9.5-.8-19-3.1-19-4.6s7.7-4.9 10-4.5c1.4.3 6.3.9 11 1.5m24.3 1.6c1.9 2.1 3.9 8.1 6.1 18.3.9 4.1 2.1 9.5 2.7 12s1.9 8.1 2.9 12.5c3.1 12.9 3.8 15.6 4.4 16.2.3.3-.9 2.4-2.7 4.6-1.7 2.1-3.9 4.8-4.8 6-1.6 2-1.7 1.9-8.1-2.7-3.6-2.5-6.8-4.6-7.2-4.6-1.9 0-8.6-5.5-8.6-7.1 0-1-.4-2.8-.9-4.1s-2.6-9.4-4.6-18c-3.5-14.6-3.6-16-2.4-20 1.2-3.7 2.3-4.8 9.9-9.4 9.4-5.8 11-6.2 13.3-3.7m90.7-.8c0 .4-1.6 2.2-3.5 4.1-3.4 3.3-3.5 3.3-5 1.4-.8-1-1.5-2.2-1.5-2.6 0-.3-.3-1.3-.6-2.2-.5-1.3.3-1.6 5-1.5 3.1.1 5.6.5 5.6.8m-11 4.1c2.2 4.2 2 5.7-.9 6.8-.9.4-8.8 4.7-17.4 9.7-8.7 4.9-17.2 9.8-19 10.8-3.3 1.9-6.3 4.9-12.6 12.7-2 2.5-4.2 5.1-4.9 5.8-.7.8-2.4 2.9-3.8 4.8-1.5 1.9-3 3.4-3.4 3.4-.3 0-1.4-3-2.4-6.8-5.3-20.5-6.5-25.8-6.6-27 0-.8 1.6-.1 3.7 1.7 2.3 1.9 4.9 3.1 6.7 3.1 2.6 0 9.8-3.4 25.6-12.2 2.5-1.4 8.3-4.6 13-7 4.7-2.5 10.5-5.7 13-7.1 2.5-1.5 5.1-2.6 5.7-2.7.7 0 2.2 1.8 3.3 4m-37-.6c0 2.1-8.8 5.1-20 6.9-13.2 2.2-16.2 2.4-16.7 1-.3-.7 1.9-1.4 6.4-1.8 7.9-.8 20.2-3.7 25.3-5.9 4.4-1.9 5-1.9 5-.2m45 7.1c-1.8 3.6-3.7 6.5-4.2 6.5-.6 0-2.2.8-3.6 1.9-1.5 1-4.5 2.9-6.7 4.1-13.9 7.6-34.4 20.6-35.6 22.5-.8 1.2-2.8 4-4.6 6.1-1.8 2.2-5.5 6.8-8.3 10.4s-5.6 7.2-6.3 8-2.7 3.4-4.5 5.8c-3.7 4.7-5.2 4.7-5.2-.1 0-3 2.3-6.7 9.3-14.7 1.2-1.4 3.8-4.5 5.7-7s3.7-4.7 4-5 2.1-2.5 4.1-5 4.5-5.5 5.6-6.7c2.3-2.6 16.1-10.8 36.2-21.4 3.5-1.9 8.7-5.5 11.5-8.1 2.8-2.5 5.3-4.4 5.5-4.2s-1.1 3.3-2.9 6.9m-120.8-2.9c9.6 1.8 9.7 1.9 9.1 4.4-1.5 6.4-2.2 6.9-14.4 13-6.7 3.3-12.4 5.8-12.7 5.5s-.1-3.8.6-7.8c.6-3.9 1.5-9.6 1.8-12.5.7-5.1.8-5.4 3.3-4.9 1.4.3 7 1.4 12.3 2.3m-37.3 2.3c1.1 1.1 2.9 6.3 4.5 13.2 1.4 6.3 3 12.7 3.6 14.4.5 1.6 1.2 4.8 1.5 7 .5 3.2.4 3.6-.5 2.2-1.3-2.1-4.6-2.3-5.3-.3-.8 2 1.7 10.9 4.2 15 1.9 3 5.6 5.8 20.3 15.4 2 1.3 4.7 2.2 6 2 4.6-.6 2.9-3.2-6-9-12.8-8.3-14.4-9.9-15.9-15.8-.7-2.9-1.1-5.6-.8-6 .3-.5 2.3-.1 4.5.7 3.1 1.2 4.4 2.6 6.4 6.7 3.4 6.7 8.9 12.4 18.1 18.6 4.1 2.7 7.7 5 8 5 1.9 0 9.5 6.4 9.5 7.9 0 1 .9 2.8 2 4.1 1.9 2.2 2.6 4 1.5 4-.7 0-9.9-5.5-16.3-10-4.3-2.9-6.9-4-8.4-3.7-1.9.5-9.7-3.5-23-11.9-2.1-1.3-4.2-2.4-4.7-2.4-2.3 0-6.1-6.3-6.7-11.1-.7-5.1-2.4-7.9-4.9-7.9-.7 0-1.6-1.5-2-3.3-.3-1.7-1.5-6.8-2.5-11.2-2.8-12-3.3-16.2-2.5-21.1.6-4.2.8-4.4 4.1-4.4 2 0 4.2.8 5.3 1.9m46 14.8c3.7 13.9 7.2 29.4 6.9 30.4-.4 1.2-15.2-8.5-17.6-11.5-1.1-1.5-2.8-4.7-3.8-7.2-1.5-3.9-2-4.4-4.7-4.4-2.3 0-2.8-.3-2-1.1 1.1-1.1 18.1-9.7 19.5-9.8.4-.1 1.2 1.6 1.7 3.6m-17.9 8.9c0 .4-1 2.3-2.2 4.3-1.3 2-3 4.9-3.9 6.6-1.3 2.3-2.3 3-4.4 2.8-1.5-.1-3.3-.7-4.1-1.4-1.2-1-1.2-1.5.3-3.8.9-1.4 2.2-3.5 2.7-4.6 2.3-4.1 2.8-4.5 7.2-4.5 2.4 0 4.4.3 4.4.6m3 5c1 3.9 4.3 8 8.8 11.2 6.3 4.4 23.1 15.2 23.7 15.2.5 0 5.5 3.4 10.3 6.9 1.7 1.4 3.2 3.3 3.2 4.3 0 4.4 3.9 9 11.5 13.5 7.4 4.4 54.7 32.9 57.5 34.8 1.9 1.2 6.9 4.2 11 6.6s7.7 4.6 8 4.9 2.3 1.5 4.5 2.7c2.2 1.1 5.6 3 7.6 4.1 4.6 2.5 12.5 4.2 19.9 4.2 3.3 0 6 .4 6 1 0 .5-.5 1-1.1 1s-3.8 1.8-7 4c-6.2 4.2-7.8 4.6-10.9 3-1-.5-6.3-1.1-11.7-1.2-8.6-.2-10.3-.5-13.8-2.7-2.2-1.4-4.9-3.1-6-3.7-5.4-3-9.8-5.6-16-9.3-3.7-2.3-6.9-4.1-7.1-4.1-.3 0-2.1-1.1-4.2-2.4-2-1.3-9.3-5.6-16.2-9.6s-15.8-9.3-19.7-11.7c-4-2.3-7.5-4.3-7.9-4.3-.3 0-1.8-.9-3.2-1.9-1.5-1-5.2-3.2-8.2-4.9-3.8-2.1-5.7-3.8-6.2-5.7-.4-1.5-1.5-3.6-2.4-4.6-1-1.1-1.8-2.9-1.9-3.9-.1-1.1-.4-2.2-.6-2.4-.5-.4-12.6-8.1-19.7-12.5-6.2-3.9-13.8-12.1-16.2-17.5-2-4.2-1.7-5.2 3-13.3 2.6-4.5 4.1-5 5-1.7m-23.3 9.6c.6.7 1.6 3.1 2.3 5.3 2 6.4 4.6 9.2 14.3 15.7 11.2 7.4 11.7 7.8 9 7.8-2.9 0-19.3-11-23-15.4-2.9-3.5-5.3-9.4-5.3-13 0-1.9 1.4-2.1 2.7-.4m-15.4 1.5c3.8.3 7 1.1 7.2 1.7 2.3 8.1 4 12.4 5.3 13.9.9 1 6.3 4.5 12.1 7.8s11.5 6.7 12.5 7.5c2.1 1.5 2.6.6-8.4 13.6-.8 1-1.8 1.8-2.3 1.8-2.6 0-38.4-23.6-39.8-26.3-1.9-3.5-3.9-11.9-3.9-16.5 0-4.2 0-4.2 5.3-4.2 2.8 0 8.3.3 12 .7m49.4 35c1.3.9 2.2 2.1 1.9 2.8-.2.7.1 1.8.7 2.4.8.8 0 2.3-3.3 5.8-2.5 2.6-4.9 5.2-5.5 5.9-9.4 11.1-17.1 19.4-18.1 19.4-1.5 0-11.4-6-11.4-6.9.1-.3 2-2.7 4.3-5.3 2.3-2.5 8.2-9.3 13.1-15 8.1-9.4 9.3-10.4 12.5-10.5 1.9-.1 4.5.6 5.8 1.4m12.7 8.3c2 1.1 5.3 2.9 7.4 4.1 2 1.2 4.2 2.5 4.7 2.9 1 .8 3.4 2.2 15.5 9 3.6 2 9 5.2 12 7s7 4.1 8.8 5.1c4.2 2.5 7.4 4.3 21.7 12.6 6.6 3.8 17.4 10.2 24 14.2s13.6 8.2 15.5 9.3c6.6 3.7 6.6 3.8 1 10.9-2.8 3.5-6 7.5-7 8.8-1.9 2.4-1.9 2.4-8.7-1.6-3.7-2.2-7.9-4.6-9.3-5.4s-2.7-1.6-3-1.9-1.6-1.1-3-1.9-6.1-3.7-10.5-6.4c-4.4-2.8-10-6.2-12.5-7.7s-10.6-6.5-18-11-14.8-9-16.5-10c-1.6-.9-5.7-3.5-9.1-5.6-3.3-2.1-8.8-5.5-12.2-7.4-5.2-2.9-6.1-3.8-5.6-5.5 1.5-4.7 1.6-12 .2-15-.8-1.6-2-4.5-2.6-6.3-1.1-3.4-1.1-3.4 1.3-1.8 1.3.9 4 2.5 5.9 3.6m-14 19.6c-6.2 7.4-21.4 15.2-21.4 11.1 0-.6 1.2-2.6 2.8-4.2 2.8-3.2 14.8-16.7 19.8-22.4l2.9-3.3.3 6.7c.3 6.7.3 6.7-4.4 12.1m8.6-8.5c0 4.8-1.2 6.4-2.4 3.3-.3-.9-.6-3.6-.6-6.1 0-3.9.2-4.4 1.5-3.3 1 .8 1.5 3 1.5 6.1m279.6 1.6c5.7 3.2 10.2 6.2 10.1 6.8-.2.5-2.8 2.3-5.8 3.8-15.3 8-26.5 14.1-27.6 14.9-1.3 1-4.6-.4-14.9-6.3-2.1-1.2-5.6-3.1-7.7-4.2-2-1.2-3.4-2.4-3-2.8 2-2 34.1-17.8 36.2-17.9 1.3 0 7.1 2.6 12.7 5.7M265 972.9c0 .3-1.8 2.6-3.9 5.1-2.8 3.2-4.2 4.2-5 3.4-1.5-1.4 5.5-10.5 7.5-9.7.8.3 1.4.8 1.4 1.2m339.8 4.2c9.2 4.8 9.6 5.2 8.8 7.6-.8 2.5-6 4.3-12.7 4.3-4.5 0-6-.5-8.9-2.9-3.8-3-7.2-4.3-16.2-6.1-6.9-1.4-8-3.6-1.3-2.6 2.7.5 5.3.3 6.6-.5 2.7-1.4 10.6-3.6 13.7-3.8 1.2 0 5.7 1.7 10 4m-44.4.6c.4.9.3 2-.1 2.3-1.8 1.7-33.7 19-34.9 19-.7 0-1.8-.8-2.3-1.9-.9-1.6 0-2.3 6.7-5.9 4.2-2.2 12.2-6.5 17.7-9.6 5.5-3 10.5-5.5 11.1-5.5.7-.1 1.5.7 1.8 1.6m-294 .2c.4.5 3.7 2.7 7.4 4.9 3.7 2.1 12.8 7.6 20.2 12.2 7.4 4.5 14.9 9.1 16.7 10.1 1.7 1 5.6 3.3 8.5 5.2 12.2 7.8 21.8 13.8 30.2 18.8 19.1 11.5 22.1 13.5 21.9 14.4-.5 2.4-3.9 1.1-15-5.6-6.5-3.9-12.9-7.8-14.3-8.6s-6.3-3.9-11-6.8c-4.7-3-16.6-10.3-26.5-16.3-30.2-18.4-42-25.5-42.4-25.8-.6-.5 2-3.4 3-3.4.4 0 1 .4 1.3.9m-43.9 2.2c-.8 1.2-3.5 1.2-3.5 0 0-1.1 2.2-2 3.3-1.4.4.2.5.9.2 1.4m343.5-.8c0 .8-1.6 3.1-3.5 5.3-1.9 2.1-3.2 3.1-2.9 2.1 1-2.9 2.6-3.6-30.1 13.8-4.9 2.6-11 6.6-13.4 8.9-2.5 2.3-3.8 3.2-3.1 2.1 3.1-4.2 7-6.8 22.5-15.2 18.6-10 25.3-14 27.8-16.5 2.1-2.1 2.7-2.2 2.7-.5m8.6 4.3c1.9 1.5 3.4 3.2 3.4 3.8 0 .7-2.4 2.4-5.2 3.9-5.9 3.1-13.1 7.1-16.6 9.4-1.3.8-2.9 1.2-3.5 1-.7-.2.2-1.3 2-2.3 3.3-2 5.3-5.1 5.3-8.4 0-1.1.4-2 1-2 .5 0 2.2-1.8 3.6-4 3.1-4.7 5.2-5 10-1.4m-319.6-.7c0 1-13.5 8.1-15.5 8.1-3.1 0-1.2-1.7 5.8-5.2 7.4-3.8 9.7-4.5 9.7-2.9m243 .7c2.2.9 4 1.9 4 2.3 0 .3 1.5 1.3 3.2 2 1.8.8 6.3 3.2 10 5.4 5.4 3 6.8 4.4 6.8 6.2 0 1.4-.7 2.6-1.9 3-2.7.8-15 14.2-15.7 17-.3 1.4-1.5 2.7-2.5 3-1 .4-1.9 1.1-1.9 1.6s-.6.9-1.3.9-2.5 1.2-3.9 2.7c-2.2 2.5-16.2 22.7-28.5 41.3-9.7 14.8-12.4 18-14.8 18-2.3 0-9.4-4.1-25.5-14.5-19.9-12.8-19-12.3-19-10.8 0 .5 2.1 2.1 4.8 3.7 5.7 3.6 19.3 12.3 28.4 18.3 3.7 2.5 8 4.8 9.5 5.3 2.8.7 2.8.7 0 1.9-5.1 2-6.4 1.7-15.8-3.6-7-4.1-7.8-4.7-8.1-7.3-.2-2-.9-2.6-3.6-2.8-3-.3-19.2-9.8-20.6-12.1-.3-.4 1-2.6 2.8-4.7s3.8-4.9 4.4-6.1c1.7-3.1 1.5-9-.4-11.9-2-3-1.1-4.3 1.8-2.5 2.6 1.6 6.3 3.7 16.3 9.1 4.4 2.4 9.1 5.1 10.5 6 5.5 3.8 7.5 3.5 11.4-2.2.8-1.1 2.1-1.8 2.9-1.5.7.3 3.6 4.4 6.3 9.1 4.4 7.8 6.4 10.1 6.4 7.7 0-.4-2.5-4.6-5.5-9.2s-5.5-9.2-5.5-10.2c0-2 5.1-12.1 8-15.7 1.8-2.2 1.9-2.9.8-5.6-1-2.7-.9-3.6.5-5.7.9-1.4 2.5-4.1 3.6-5.9 7.9-13.7 16.7-27.6 18.5-29.1 2.1-1.8 7.4-4.6 8.8-4.7.4 0 2.6.7 4.8 1.6m88.7 1.5c4.6 2.2 6 4.5 1.7 2.9-1.4-.6-3.5-1-4.7-1s-3.3-.9-4.7-2c-2.5-2-2.5-2 .4-2 1.6 0 4.9.9 7.3 2.1M479 990.9c-2.5 5-3.1 5.3-6.9 4-4.1-1.4-3.9-2.5.7-4.4 2-.8 4.4-1.9 5.2-2.4 2.8-1.8 3-1.1 1 2.8m79 2c0 1.9-2.6 4.8-3.6 3.9-.7-.7 1.7-5.8 2.8-5.8.4 0 .8.8.8 1.9m18 1.7c0 .9.8 2.4 1.8 3.3 2.3 2 8.2 10.6 8.2 11.9 0 .5-.9 1.2-1.9 1.5-1.1.2-2.1 1.5-2.3 2.8-.3 2.2-.8 2.4-5.2 2.4-3.1 0-5.1.5-5.4 1.3-.4 1.3-5.3 4.2-7 4.2-.5 0-2-2.3-3.2-5.2-1.2-2.8-3.1-6.4-4.2-7.9-1.1-1.4-1.8-3.4-1.6-4.4.1-.9 3.8-3.6 8-5.9s8-4.5 8.4-4.9c1.4-1.3 4.4-.7 4.4.9m-102 3.7c0 .4-.7 2.1-1.5 3.7-1.5 3-2.9 3.7-3.9 2.2-.3-.4-2.8-1.4-5.5-2.2-5.6-1.5-5.7-1.6-3.8-3.4 4.2-4.1 5.7-4.5 10.3-2.8 2.4.9 4.4 2 4.4 2.5m-13 4.7c2.2 1.1 4.6 2 5.4 2 3 0 2.6 2.3-1.8 9.9-2.5 4.3-4.6 8.2-4.6 8.8 0 .5-.9 1.8-1.9 2.7-1.8 1.7-2.2 1.6-8.8-2-3.7-2-7-3.8-7.2-4-.3-.3 3.7-6.3 4.9-7.4.3-.3 2.1-2.5 4-5 4.3-5.6 5.4-6.9 5.8-7 .1 0 2 .9 4.2 2m-27.3 14.6c6.5 3.7 13.5 7.6 15.6 8.6 2 1.1 3.9 2.4 4.2 2.8.7 1.1-5.6 4.9-8 4.9-1.1-.1-4.9.2-8.5.6-6.5.7-6.5.7-17.7-5.9-6.2-3.7-11.5-7.1-11.8-7.5-.4-.7 12-9.9 13.7-10 .3-.1 6 2.9 12.5 6.5m75.2 3c-2.2 2.7-3.4-.2-1.3-3.3 1.9-2.8 1.9-2.8 2.2-.5.2 1.3-.2 3-.9 3.8m-108.4 1.1c-1.6 1.5-12.2 1.4-13.5-.2-.8-.9.7-1.2 6.8-1.1 6 .1 7.6.4 6.7 1.3m149.5-.2c0 .3-.2.5-.5.5s-.5-.2-.5-.5.2-.5.5-.5.5.2.5.5m-131.5 8.4c7.4 4.5 12.9 7.1 14.9 7.2l3.1.1-3.1 1c-2.8.9-3.8.6-10-3.3-3.8-2.3-9.4-5.7-12.4-7.6-5.9-3.6-8.7-6-5.9-5 .9.3 6.9 3.7 13.4 7.6m-18.8-3.7c.9.7 1 1.5.4 2.1s-2.3-.1-4.8-1.8c-3.8-2.7-3.8-2.7-.4-2.1 1.9.3 4 1.1 4.8 1.8m15 5.2c10.4 6.5 11.8 7.7 11.8 10.1 0 2.8-.3 2.5 12.8 9.8 3.1 1.7 4 1.9 4.6.8.6-.9 1.1-1 1.5-.2.4.6.2 1.1-.4 1.1s-.8.5-.5 1c1.3 2.2-2.6 2.1-6.2-.1-2.1-1.3-5.9-3.5-8.4-4.9-19.1-10.3-22.9-12.6-22.9-13.8 0-.7-1.1-2.3-2.3-3.5-2.5-2.3-4.4-7.7-2.8-7.7.5 0 6.2 3.3 12.8 7.4m93.8-6.4c1.8 3-12.7 20.2-15.6 18.4-1.1-.6-1.2-4.1-.1-4.6.4-.2 2.3-2.7 4.2-5.6 1.8-2.9 4.7-6.1 6.4-7.2 3.5-2.2 4.2-2.4 5.1-1m-115.5 2c1.4 1.1 3.1 2 3.8 2 2.4 0 1.1 2.5-7.5 13.8-15.2 19.9-17.2 22.7-17.2 23.7 0 1.5 3-2.2 17.8-21.8 5.7-7.6 10.9-13.6 11.5-13.4.7.2 1.2 4.2 1.3 10 .3 9.6.3 9.6-4.8 15.7-4.3 5.1-6.8 6.9-15 11.1-5.4 2.7-10 4.9-10.3 4.9-.2 0-.6-1.4-1-3-.4-2.3-1.8-3.9-5.6-6.2-2.7-1.7-5-3.4-5-3.8 0-.6 2.4-3.9 7.3-10 .7-.8 2.8-3.5 4.7-6s4.2-5.3 5.1-6.3c.8-.9 3.3-4.2 5.5-7.2 4.3-5.9 5.6-6.5 9.4-3.5m117 4.9c-3.8 7.6-16 18.3-16 14.1 0-.6.4-1 .9-1 2 0 10.5-8.8 13.4-13.8 3.5-6.2 5-5.6 1.7.7m-21.2 10.6c-5.1 7.5-10.4 15.4-11.8 17.5-1.4 2.2-4.1 6.3-6.1 9.2s-5.5 8.4-7.9 12.1c-4.1 6.5-9.2 11.3-7.6 7.2.3-.9 1.5-2.9 2.7-4.4 1.1-1.4 5.2-7.6 9.1-13.6 4-6.1 7.4-11.2 7.8-11.5.3-.3 4.8-6.8 9.9-14.5 10.5-15.7 12.4-18.1 12.9-16.6.2.6-3.9 7.1-9 14.6m25.6-11.1c-2.4 1.8-2.9 1.4-1.4-1.4.9-1.6 1.5-1.9 2.3-1.1s.6 1.5-.9 2.5M461 1030c0 2.1-4.5 5-7.9 5-3.8 0-3.7-.2 1.1-3.6 3.4-2.4 6.8-3.1 6.8-1.4m-55 8.5c0 1.9.5 3.7 1 4 .6.3 1 2.6 1 5.1 0 3.8-.3 4.5-1.7 4.2-1.5-.3-1.8-1.7-2.1-9.1-.2-6 .1-8.7.8-8.2.5.3 1 2.1 1 4m50-1c0 1-5.7 10.7-6.3 10.6-1.8-.2-14.7-7.2-14.7-8 0-.4 2.4-1.3 5.3-1.8 5.5-1.1 15.7-1.6 15.7-.8m-16.4 7.4c4.7 2.7 8.2 5.1 7.7 5.4-1.1.7-17.3-8.1-17.3-9.4 0-1.4.5-1.2 9.6 4m-7.6-.4c1.7.9 3 1.8 3 2.1 0 .4-5.9-2.3-6.9-3.2s1.3-.3 3.9 1.1m60.4 1.7c.3 1.3.6 5.3.6 8.9 0 4.6.7 8.1 2.1 11.4 2.3 5.2 2 9.6-.8 12.7-2.5 2.7-5.9 2.2-12.4-2-5.4-3.4-5.8-4-5.8-7.5-.1-4.4 1.3-7.4 8.2-18 5.3-8 7.1-9.2 8.1-5.5m-53.9 1.8c.3.5.2 1-.4 1-.5 0-1.3-.5-1.6-1-.3-.6-.2-1 .4-1 .5 0 1.3.4 1.6 1m3 2c.3.5.4 1 .1 1s-.8-.5-1.1-1c-.3-.6-.4-1-.1-1s.8.4 1.1 1m-35.1 3.9c.6.8-8.2 12.1-9.4 12.1-.3 0-1.1-.4-1.9-.9-1.1-.7-.4-2.1 3.4-6.5 4.5-5.4 6.7-6.7 7.9-4.7m-46.7 9.8c-.4.3-.7 0-.7-.7s.3-1 .7-.7c.3.4.3 1 0 1.4m34.8 3.2c.7 1.2-3.1 3.3-6.7 3.7-1.6.2-4.2 1.1-5.9 1.9-1.7.9-3.8 1.5-4.7 1.3-1-.2 1.4-1.9 5.8-4.1 7.7-3.7 10.5-4.4 11.5-2.8m81.1 14.3c1 6.2-1 4.3-2.9-2.8-1.4-5.3-1.5-7-.5-8.7 1.3-2.3 1.3-2.3 3.4 11.5m-3.9-.8c.8 2.7 1.2 5 1 5.2-.8.8-5.5-8-5-9.4 1-2.4 2.6-.7 4 4.2m-52 .3c-.4.3-.7 0-.7-.7s.3-1 .7-.7c.3.4.3 1 0 1.4m4.8-.7c.3.5.1 1-.4 1-.6 0-1.1-.5-1.1-1 0-.6.2-1 .4-1 .3 0 .8.4 1.1 1m42 2c.3.5.1 1-.4 1-.6 0-1.1-.5-1.1-1 0-.6.2-1 .4-1 .3 0 .8.4 1.1 1m-45.5 2c0 .5-.7 1-1.5 1s-1.5-.5-1.5-1c0-.6.7-1 1.5-1s1.5.4 1.5 1m4 0c0 .5-.7 1-1.5 1s-1.5-.5-1.5-1c0-.6.7-1 1.5-1s1.5.4 1.5 1m45.2 2.5c.6 3-.9 3.2-5.3 1-3.4-1.8-3.1-3.5.6-2.7 1.5.2 2.5 0 2.5-.7 0-2.1 1.7-.2 2.2 2.4m-50.7.3c-.7.8-3.5-.7-3.5-1.8 0-.6.7-.6 2 .2 1 .7 1.7 1.4 1.5 1.6m8.5-.8c0 .5-.7 1-1.6 1-.8 0-1.2-.5-.9-1 .3-.6 1-1 1.6-1 .5 0 .9.4.9 1"/><path d="M204.5 784.4c-2.7 1.9-1.3 4.6 2.5 4.6 2.2 0 3-.5 3-1.8 0-1.7-1.8-4.2-3-4.2-.3 0-1.5.6-2.5 1.4m4 1.6c.3.5-.3 1-1.5 1s-1.8-.5-1.5-1c.3-.6 1-1 1.5-1s1.2.4 1.5 1M205.1 792.3c-1.3 1.6-.5 2.7 2 2.7 2.4 0 3.5-2 1.8-3.1-1.9-1.2-2.5-1.1-3.8.4M224.5 793.9c-.6.4-3.5 2.2-6.5 3.8-8.7 4.7-23 13.4-23.6 14.4-1.1 1.8 1 .8 11.5-5.4 5.8-3.5 13-7.6 15.9-9.2 2.8-1.5 5.2-3.2 5.2-3.7 0-1-1.3-1-2.5.1M180.8 795.1c-2.3 1.3-2.3 3.6 0 4.8 2.6 1.4 6-1.3 4.6-3.6-1.4-2.2-2.5-2.5-4.6-1.2m2.7 1.9c.3.6-.4 1-1.7 1-1.8 0-2-.2-.8-1 1.9-1.2 1.8-1.2 2.5 0M194.3 797.6c-.9 2.3 1.9 3.7 3.7 1.8 1.3-1.3 1.3-1.6 0-2.4-2.1-1.4-3-1.2-3.7.6M204.2 798.2c-1.9 1.9-1.4 2.8 1.2 2.8 3.2 0 4.2-1.6 1.8-2.9-1.3-.7-2.2-.7-3 .1M368.4 848.5c-.9 2.2.9 3.7 3.7 3.3 1.6-.2 2.4-1 2.4-2.3 0-2.6-5.2-3.5-6.1-1m4.1 1.5c-.3.5-1 1-1.6 1-.5 0-.9-.5-.9-1 0-.6.7-1 1.6-1 .8 0 1.2.4.9 1M383.6 855.1c-1.4 1.1-2.6 2.4-2.6 2.9 0 1.1 6.9-3.2 7-4.3 0-1.3-1.7-.8-4.4 1.4M348 859c0 2.2 2 2.6 3.8.8 1.9-1.9 1.4-2.8-1.3-2.8-1.8 0-2.5.5-2.5 2M274.7 872.7c-1.3 1.2-.7 6.1.8 6.7 2.4.9 4.5-.4 4.5-2.8 0-3.4-3.4-5.9-5.3-3.9m3.3 3.4c0 2.4-2.3 2.1-2.8-.4-.2-1 .3-1.7 1.2-1.7 1 0 1.6.9 1.6 2.1M279 894c-1.4 2.6.3 6 3 6 2.3 0 3.5-3.3 2-6-1.4-2.6-3.6-2.6-5 0m4.5 2c0 .8-.8 1.6-1.7 1.8-1.3.2-1.8-.3-1.8-1.8s.5-2 1.8-1.8c.9.2 1.7 1 1.7 1.8M283.2 908.2c-1.7 1.7-1.5 6.4.4 8.3 2.5 2.5 3.8.4 3-4.9-.8-4.8-1.4-5.4-3.4-3.4m2.8 4.9c0 1-.4 1.9-1 1.9-.5 0-1-1.2-1-2.6s.4-2.3 1-1.9c.6.3 1 1.5 1 2.6M247.1 953.1c-2.4 2.2-2.3 2.1-1.5 4.3.8 2.1 5.4 2 6.9-.1 2.8-3.8-2-7.4-5.4-4.2m4 2.4c0 .5-.9 1.1-2.1 1.3-2 .3-2.7-.8-1.3-2.2 1-.9 3.4-.3 3.4.9M238 967.5c0 1 .7 1.5 1.8 1.3 2.1-.4 1.9-2.2-.2-2.6-1-.2-1.6.3-1.6 1.3M229.8 973c-1.9 1.5-2.1 2.2-1.2 3.7 2.2 3.6 7.4 2.3 7.4-1.8 0-3.1-3.4-4.2-6.2-1.9m4.2 2.6c0 .8-.9 1.4-2 1.4-2.2 0-2.8-2.6-.7-3.3 1.6-.6 2.7.1 2.7 1.9M539.5 972.6c-2.8 2.8 1.8 6 6.3 4.3 2.7-1 2.9-3.5.3-4.9-2.8-1.4-4.7-1.3-6.6.6m6.5 1.4c0 .5-1.1 1-2.5 1s-2.5-.5-2.5-1c0-.6 1.1-1 2.5-1s2.5.4 2.5 1M518 974c0 1.6.5 2.1 2.3 1.8 1.2-.2 2.2-1 2.2-1.8s-1-1.6-2.2-1.8c-1.8-.3-2.3.2-2.3 1.8M529 973c-1.3.8-1.3 1.1.1 2.5 1.7 1.7 4.9 1.1 4.9-1 0-.7-.7-1.6-1.6-1.9-1.9-.7-1.6-.8-3.4.4M519.5 979c-.4.7-.3 1.6.3 2.2 1.4 1.4 4.7.6 4.7-1.2s-4-2.6-5-1M518.3 984.2c-3 1.4-2.9 3.6.2 5 3 1.3 7.5-.3 7.5-2.7 0-1.2-4.2-3.9-5.3-3.4-.1 0-1.2.5-2.4 1.1m5.1 1.7c.8 1.2-2 2.2-3.9 1.5-1.9-.8-.9-2.4 1.5-2.4 1 0 2.1.4 2.4.9M601.8 982.4c-2.5 1.8-2.2 3.4.7 4.8 2.8 1.2 7.5-.2 7.5-2.3 0-1.5-3.1-3.8-5-3.8-.8 0-2.3.6-3.2 1.3m5.7 1.6c.8 1.3-2 2.4-4.1 1.6-2-.8-.9-2.6 1.6-2.6 1 0 2.2.5 2.5 1M569.5 985.9c-1 1.7.4 3.1 3.1 3.1 1.9 0 2.5-.5 2.2-1.8-.4-1.9-4.3-2.9-5.3-1.3M490.1 992.7c-1.6 1-2.1 2.5-2.1 5.5 0 3.6.6 4.7 4.5 8.5 5.2 4.9 7.1 5.2 12 2 8.3-5.3 4.1-13.8-8.2-16.5-3.2-.7-4.7-.6-6.2.5m2.3 2.8c-.4.8-1 1.5-1.5 1.5s-.9-.7-.9-1.5.7-1.5 1.5-1.5c.9 0 1.2.6.9 1.5m10 .7c3 1.3 5.8 5.2 5.1 7-.8 2-7.2 6-9.1 5.6-1-.1-1.9-.9-2.2-1.7-.3-1 0-1.2 1.3-.7 4.3 1.6 6-4.3 2.4-8.8-2.2-2.8-1.5-3.3 2.5-1.4m-6.4.3c0 .3-.2.5-.5.5s-.5-.2-.5-.5.2-.5.5-.5.5.2.5.5m4 5.4c-.1 2.9-1.1 1.7-2.5-2.9-.7-2.2-.6-2.3.9-1.1.9.7 1.6 2.5 1.6 4m-4-2.4c.6.8 1 2 .8 2.6s-1.2 0-2.1-1.5c-1.8-2.7-.8-3.7 1.3-1.1m-4 2.7c0 1.9-.2 2-1 .8-1.3-1.9-1.3-3 0-3 .6 0 1 1 1 2.2M479 996.9c0 1.5 13.9 26.9 15.1 27.7 1.7 1 .8-1.1-5.8-13-7.9-14.2-9.3-16.5-9.3-14.7M467.4 1026.4c-1.5 3.9 2.6 9.5 5.7 7.6 1.8-1.2.2-5.8-2.8-7.7-2-1.4-2.3-1.4-2.9.1m2.7 3.8c1.1 2.1 1.1 2.2-.4.9-1-.7-1.7-1.7-1.7-2.2 0-1.5.9-1 2.1 1.3M568.8 1000.9c-1.8 1.8-2.8 3.8-2.8 5.7 0 2.4.7 3.2 3.9 4.6 4.6 2.2 5.1 2.2 5.1.3 0-.8-1.2-2.1-2.7-2.9-2.4-1.3-2.5-1.5-.7-1.6 2.7 0 4.4 1.9 4.4 5.1 0 2.4 2.5 4.7 3.8 3.5 1.1-1.1.6-8.6-.8-11.2-3.3-6.4-6.4-7.4-10.2-3.5m8.8 4.6c.8 1.9 1.3 4.5 1.3 5.7-.1 2.1-.2 2.1-.6.3-.9-3.7-4.6-6.7-7.5-6.3-3.4.5-3.6-.7-.6-3.2 2.9-2.3 5.4-1.1 7.4 3.5M386.4 1032.5c-.4.9-.2 2.1.4 2.7 1.6 1.6 4.7.5 4.7-1.7 0-2.6-4.2-3.4-5.1-1m3.3 1.2c-.4.3-1 .3-1.4 0-.3-.4 0-.7.7-.7s1 .3.7.7M374 1049.5c0 .8.7 1.5 1.5 1.5s1.5-.7 1.5-1.5-.7-1.5-1.5-1.5-1.5.7-1.5 1.5M367 1056.5c-1.1 1.3-1.1 1.8.2 3.1 2 2 5 .7 4.6-2-.4-2.6-3-3.2-4.8-1.1m3 1.5c0 .5-.4 1-1 1-.5 0-1-.5-1-1 0-.6.5-1 1-1 .6 0 1 .4 1 1M484.8 1060.7c-1.7.3-3 1.4-3.8 3.2-1.5 3.8-1 8.6 1.1 8.6.9 0 2.4.8 3.3 1.8 1 .9 2.3 1.7 3.1 1.7.7 0 1.5.7 1.9 1.5.8 2.3 3.3 1.8 4-.8.9-3.5.7-6-.9-9.1-.8-1.5-1.5-3.4-1.5-4.2 0-1.1-3.3-3.7-4.2-3.3-.2.1-1.5.4-3 .6m6.6 6.3c2 3.8 2.4 5.4 1.6 7.2-.8 2.1-.9 2-.9-1-.1-4-5-9.6-7.5-8.6-.9.3-1.6.1-1.6-.4 0-.6 1.2-1.3 2.8-1.5 1.5-.2 2.8-.5 2.8-.6.1 0 1.4 2.1 2.8 4.9m-2.8 1.4c.8.8 1.4 1.8 1.4 2.2 0 .5-.5.3-1.2-.4s-2-1.2-3-1.2-1.8-.5-1.8-1c0-1.5 2.9-1.2 4.6.4m-.6 4.2c0 1.4-.3 1.4-1.5.4-.8-.7-1.5-1.4-1.5-1.6s.7-.4 1.5-.4 1.5.7 1.5 1.6M626 811.5c0 3.1.4 5.4.8 5.1 1.2-.7 1.2-9.5.1-10.2-.5-.3-.9 2-.9 5.1M625.8 824.6c-.1 3.1 0 6.1.4 6.7.4.7.8-1.8.8-5.6 0-8.1-.7-8.8-1.2-1.1M625.9 835.2c0 .2-.3 2.9-.6 6-.3 3.8-.1 5.8.6 5.8s1.1-2.4 1.1-6c0-3.3-.2-6-.5-6s-.5.1-.6.2M625.7 850.7c-1.1 1-.8 12.3.3 12.3.6 0 1-2.8 1-6.5 0-6.5-.1-7.1-1.3-5.8M625.7 866.7c-1.1 1-.8 13.3.3 13.3.6 0 1-3 1-7 0-7-.1-7.6-1.3-6.3M192.7 867.6c-1.3 1.4-.7 5.1 1.1 6.7 2.3 2.1 3.8 2.1 4.6.1 1.3-3.4-3.4-9-5.7-6.8m2.3 1.8c0 .3-.4.8-1 1.1-.5.3-1 .1-1-.4 0-.6.5-1.1 1-1.1.6 0 1 .2 1 .4m2 3.1c0 .8-.4 1.5-1 1.5-.5 0-.7-.7-.4-1.5.4-.8.8-1.5 1-1.5s.4.7.4 1.5M625 891c0 5.2.4 7.9 1 7.5.6-.3 1-3.7 1-7.5s-.4-7.2-1-7.5c-.6-.4-1 2.3-1 7.5M625 909c0 4.5.4 6.9 1 6.5.6-.3 1-3.3 1-6.5s-.4-6.2-1-6.5c-.6-.4-1 2-1 6.5M625 927.2c0 4.8.3 6.8.9 5.9 1.2-1.9 1.2-11.9 0-12.6-.5-.4-.9 2.4-.9 6.7M625.1 943.2c-.1 3.9.3 6.8.9 6.8 1.2 0 1.2-8.7 0-11.5-.6-1.4-.9.1-.9 4.7M625 961.5c0 4.8.4 7.4 1 7 .6-.3 1-3.5 1-7s-.4-6.7-1-7c-.6-.4-1 2.2-1 7M625 978.4c0 3.7.4 6.6 1 6.6s1-2.6 1-5.9-.4-6.3-1-6.6c-.6-.4-1 1.8-1 5.9M625 996c0 4 .4 7 1 7s1-3 1-7-.4-7-1-7-1 3-1 7M603 996.6c0 1.4.4 2.3 1 1.9.6-.3 1-1.5 1-2.6 0-1-.4-1.9-1-1.9-.5 0-1 1.2-1 2.6M542.7 998.7c-1.1 1-.8 4.3.3 4.3.6 0 1-1.1 1-2.5 0-2.6-.2-2.9-1.3-1.8M601.2 1003c-.6 1.1-1.2 4.9-1.2 8.5 0 5.3-.3 6.7-1.7 7.2-3.9 1.5-5.8 6.2-3.3 7.8.6.3 1 3.5 1 7 0 5.9-.4 6.9-5.2 14.7-2.8 4.6-9.4 15.3-14.6 23.8-5.1 8.5-13 21.1-17.4 28-13 20.1-14.1 21.8-22.3 35.5-4.3 7.1-8.5 13.9-9.3 15-1.5 2-2.4 2.1-19.4 1.7-15.5-.4-17.8-.2-17.8 1.1s2.6 1.6 18 1.7l18 .1 4-6.3c2.2-3.5 4.3-6.8 4.7-7.3.5-.6 1.6-2.4 2.6-4 2.7-4.7 12.4-20.4 16.6-27 6.8-10.8 14.3-22.8 22.1-35.5 22.1-36 21-34.5 26.2-34.1 7.4.4 8.8-.9 8.8-7.9 0-3.2.5-6.2 1-6.5 1.9-1.2 1-5.4-1.5-7.1-2.2-1.5-2.5-2.3-2.5-8.3-.1-6.7-1.4-10.1-4.1-10.1-.8 0-2 .9-2.7 2m4.3 1c.3.6-.1 1.3-1 1.6-1.9.8-3 0-2-1.5.8-1.4 2.2-1.4 3-.1m0 4c-.3.5-1.3 1-2.1 1s-1.4-.5-1.4-1c0-.6.9-1 2.1-1 1.1 0 1.7.4 1.4 1m-2.5 2.5c0 .3-.2.5-.5.5s-.5-.2-.5-.5.2-.5.5-.5.5.2.5.5m2.7.2c-.4.3-1 .3-1.4 0-.3-.4 0-.7.7-.7s1 .3.7.7m.3 3.3c0 .5-.9 1-2 1s-2-.5-2-1c0-.6.9-1 2-1s2 .4 2 1m-.7 3.7c-.7.2-1.9.2-2.5 0-.7-.3-.2-.5 1.2-.5s1.9.2 1.3.5m-5.3 4.3c0 4.6 7.5 4.6 8.2-.1.3-1.8.5-1.9 2.3-.5 4.4 3.3-2.7 7.4-10.2 5.8-4.1-.8-5.4-3.2-3.3-5.7 1.7-2.1 3-1.9 3 .5m5.3-1.3c-.7.2-1.9.2-2.5 0-.7-.3-.2-.5 1.2-.5s1.9.2 1.3.5m4.7 11.5c0 1.1-6.7 2.1-9.5 1.4-4.4-1.1-2.7-2.1 3.5-2.1 3.3-.1 6 .3 6 .7m-10 4.3c0 .8-.4 1.5-1 1.5-.5 0-1-.7-1-1.5s.5-1.5 1-1.5c.6 0 1 .7 1 1.5m10-.1c0 .8-.4 1.8-1 2.1-.5.3-1-.3-1-1.4 0-1.2.5-2.1 1-2.1.6 0 1 .6 1 1.4m-4 1.1c0 .9-.9 1.5-2.5 1.5s-2.5-.6-2.5-1.5.9-1.5 2.5-1.5 2.5.6 2.5 1.5M542.3 1006.6c-.3 1-1.9 2.9-3.5 4.4-1.5 1.5-2.8 3-2.8 3.4s-1.5 2.9-3.2 5.4c-4.4 6.2-5 7-7.1 9.1-1.2 1.2-1.5 2.1-.8 2.5 2 1.3 6.2-.7 9-4.1 2.6-3.1 3-3.3 5.5-2.2 1.7.8 2.6 2 2.6 3.6 0 1.2.5 2.3 1 2.3.6 0 1-2.7 1-6s-.4-6-1-6c-.5 0-1 1.4-1 3.2 0 3.2 0 3.2-2.1 1.1-2-2-2-2.2-.4-4.7 1-1.4 2.4-2.6 3.1-2.6 1 0 1.4-1.5 1.4-5.5 0-5.6-.6-6.8-1.7-3.9m-.3 6c0 1.4-.4 2.3-.8 2-.5-.3-1.9 1.4-3.2 3.7s-2.6 4.4-2.9 4.7c-.4.3-1.4 1.7-2.4 3.2-1 1.6-2.5 2.8-3.4 2.8-1.4 0-1.4-.3.3-2.3 1.1-1.2 4.2-5.5 6.9-9.5 2.7-3.9 5-7.2 5.2-7.2s.3 1.2.3 2.6M625 1013.5c0 4.3.4 7.5 1 7.5s1-3.2 1-7.5-.4-7.5-1-7.5-1 3.2-1 7.5M521 1014.6c0 3.4.4 5.3 1 4.9.6-.3 1-2.8 1-5.6 0-2.7-.4-4.9-1-4.9-.5 0-1 2.5-1 5.6M196 1031.9c0 11.8 0 11.8 3 12.4 1.6.4 21.3.5 43.7.4l40.8-.2.3-11.4c.2-8.5-.1-11.7-1-12.3-.7-.4-20.5-.8-44-.8H196zm84.8-8.9c.1 0 .2 4.5.2 10v10l-41.2-.2-41.3-.3-.3-10.4-.3-10.4 41.3.6c22.7.3 41.4.6 41.6.7"/><path d="M206.2 1024.2c-1.7 1.7-1.5 2.9.4 2.6 2.3-.4 2.8 1.6.9 3.6-1.5 1.5-1.5 1.7-.1 2.2 1.7.7 2.2 3.9.7 4.9-.6.3-1.4-.2-1.9-1.1s-1.2-1.2-1.5-.7c-1 1.7 1.7 4.5 3.6 3.7 1.6-.6 2.2-2.3 1.8-5.4-.1-.8-.2-3.1-.2-5.1.1-4.2-1.8-6.6-3.7-4.7M237 1026c-.7 1.4-.8 2.6 0 3.9.7 1.3.7 2.2 0 2.6-1.5.9-1.2 5.1.5 6.5.8.6 2.2 1 3.2.8 1.5-.3 1.8-1.4 1.9-6.3 0-3.3-.3-6.8-.8-7.8-1.2-2.3-3.5-2.2-4.8.3m4 2.6c0 3.1-2.3 2.8-2.8-.4-.2-1.5.2-2.2 1.2-2.2 1.1 0 1.6.9 1.6 2.6m.4 5.3c.9 1.4-.4 4.1-2 4.1-.8 0-1.4-1-1.4-2.5 0-2.5 2.3-3.5 3.4-1.6M247.9 1026.7c-1.3 3.3-.6 11 1.1 12.6 1.6 1.7 5-2.6 5-6.5 0-3.3-2.5-8.8-4.1-8.8-.5 0-1.4 1.2-2 2.7m3.9 5.9c-.2 2.7-.7 4.9-1.3 4.9-1.1 0-1.9-7.9-1-10.3 1.1-3 2.6.5 2.3 5.4M259.2 1025.2c-1.8 1.8-1.5 12.3.3 13.8 1.2 1 1.8 1 3 0 2.7-2.2 1.5-15-1.3-15-.5 0-1.3.5-2 1.2m3.2 2.5c.9 2.1-.4 10.3-1.5 10.3-.5 0-.9-2.7-.9-6 0-5.8 1.1-7.8 2.4-4.3M217.1 1029.1c-2.3 4.4-2.2 6.9.4 6.9.8 0 1.5.9 1.5 2s.4 2 .9 2c.8 0 .4-13.9-.4-14.8-.1-.2-1.2 1.6-2.4 3.9m1.5 4.6c-1.1 1.1-1.9-.6-1.1-2.4.8-1.7.8-1.7 1.2 0 .3 1 .2 2.1-.1 2.4M226 1032c0 .5 1.4 1 3.1 1s2.8-.4 2.4-1c-.3-.6-1.7-1-3.1-1-1.3 0-2.4.4-2.4 1M521.1 1027.7c0 4.2.3 5.2.9 3.8 1.2-2.8 1.2-9.5 0-9.5-.6 0-1 2.5-.9 5.7M625 1030.4c0 3.6.5 6.8 1 7.1.6.4 1-2 1-6.4 0-4.1-.4-7.1-1-7.1s-1 2.8-1 6.4M709.1 1032.3c-.6.6-1.1 2.4-1.1 3.9 0 2.5.9 3.3 3.3 2.9.4 0 .7.9.7 2 0 1.6-.5 2-2 1.6-1.3-.3-2 0-2 .9 0 1.9 4.6 1.8 5.4-.2 1.4-3.5.6-9.9-1.3-11.1-1.4-.9-2.1-.9-3 0m3.1 4.9c-1.6 1.6-3.5-.3-2.6-2.6.6-1.6.8-1.6 2.2-.2 1.3 1.2 1.4 1.8.4 2.8M542.7 1032.7c-1.1 1-.8 10.3.3 10.3.6 0 1-2.5 1-5.5 0-5.6-.1-6-1.3-4.8M699 1033.5c-1.7 2.1-.8 5 1.8 5.3 1.4.2 2.2 1 2.2 2.4 0 1.7-.4 1.9-2.6 1.4-1.9-.5-2.5-.3-2.2.6.7 2.1 4 2.2 5.5.2 3.7-5.1-.7-14.7-4.7-9.9m3.4 1.1c1 2.5.7 3.4-.9 3.4-.9 0-1.5-.9-1.5-2.5 0-2.8 1.5-3.4 2.4-.9M717.5 1033.9c-.8 2.6.3 4.8 2.7 5.4 2.6.7 1.8 3.2-1.1 3.1-2.6-.1-2.2 1.9.4 2.5 3.7.7 5.9-6.4 3.5-11-1.4-2.4-4.7-2.5-5.5 0m4.2 2.5c-.4.9-1.1 1.6-1.7 1.6-1.1 0-1.4-3.3-.3-4.4 1.1-1 2.6 1.1 2 2.8M728.1 1036.6c-2.1 3.8-2.2 4.7-1 5.5.8.5 2 .9 2.7.9.6 0 1.2.6 1.2 1.2 0 .9.3.8.9-.2.9-1.7.3-12-.7-12-.4 0-1.8 2.1-3.1 4.6m2.9 2.4c0 1.1-.7 2-1.5 2-1.7 0-1.8-.2-.9-2.4.9-2.3 2.4-2 2.4.4M736.4 1033.4c-.3.7-.4 3.3-.2 5.6.3 4.7 2.8 7.4 4.8 5.4 1.5-1.5 1.9-7.3.9-10.2-.9-2.5-4.7-3-5.5-.8m4.2 2c.8 3.3.2 6.9-1.3 7.3-1.6.5-2.7-3.9-1.9-7.2.8-3.2 2.4-3.2 3.2-.1M765.2 1035c-1.5 4 .2 10 2.8 10 2.9 0 4.4-6.8 2.5-11.3-1.1-2.7-4.2-2.1-5.3 1.3m4.3 3.6c0 2.8-.4 3.9-1.5 3.9-1.6 0-2.6-4.5-1.6-7.2 1.1-2.8 3.1-.7 3.1 3.3M775.2 1033.2c-1.5 1.5-1.6 7.2-.2 9.9 2.2 4 6 1 6-4.6 0-5.3-3-8.1-5.8-5.3m3.8 5.4c0 3.2-.4 4.4-1.5 4.4s-1.5-1.1-1.5-4.3c0-2.4.3-4.7.6-5 1.4-1.4 2.4.6 2.4 4.9M784.4 1033.4c-1.1 2.9.1 9.9 1.9 11 2.4 1.5 3.7-.6 3.7-6.5 0-3.4-.5-4.9-1.6-5.3-2.4-.9-3.4-.7-4 .8m3.6 4.6c0 5.3-1.5 6.7-2.6 2.5-.7-3 .2-7.5 1.6-7.5.6 0 1 2.2 1 5M756.5 1033.9c-.3.5-.1 1.2.5 1.6.5.3 1 2.6 1 5.1 0 2.4.5 4.4 1 4.4.6 0 1-2.7 1-6 0-4.6-.3-6-1.4-6-.8 0-1.7.4-2.1.9M520.8 1039c-.2 2.3 0 4.6.4 5.3s.8-1.2.8-4.1c0-6.2-.6-6.8-1.2-1.2M677 1038c-3.5.5-3.5.5-3.8 19-.2 17.8-.3 18.6-2.5 20.2-1.2 1-3.6 1.8-5.2 1.8-1.7 0-3.6.5-4.3 1.2-1.4 1.4-1.6 7.8-.2 7.8.6 0 1-1.5 1-3.4 0-8 10.3-3.3 12.4 5.7 1.1 4.5-.1 6.7-3.4 6.7-1.6 0-3.2-.5-3.5-1-.3-.6-1.2-1-1.8-1-.7.1-.1 1 1.2 2.1 3.1 2.6 7.2 2.1 8.7-.9.6-1.3 2.3-3.6 3.8-5.1 3.9-4.1 3.2-9.1-2.1-13.6-2.3-2-2.3-2.4-2.3-20.3V1039h10.1c6.7 0 9.8-.3 9.4-1-.7-1.1-10.3-1-17.5 0m-4.4 41.5c-1.1.8-2.2 1.2-2.5.9-.6-.6 1.9-2.4 3.4-2.4.6.1.1.7-.9 1.5m6 1.2c1.5 2.1 1.9 6.3.5 6.3-.5 0-1.6.3-2.4.6-1 .3-2-.6-3.1-2.7-.9-1.8-1.5-3.3-1.4-3.4.7-.5 4.4-2.4 4.7-2.5.2 0 1 .8 1.7 1.7m.4 8.7c0 .3-.5.8-1.2 1.2s-.8.3-.4-.4c.7-1.2 1.6-1.6 1.6-.8M747 1039c0 .5 1.2 1 2.6 1s2.3-.4 1.9-1c-.3-.6-1.5-1-2.6-1-1 0-1.9.4-1.9 1M625 1047.9c0 3.9.5 7.3 1 7.6.6.4 1-2.2 1-6.9 0-4.4-.4-7.6-1-7.6s-1 3-1 6.9M542 1049.9c0 2.8.5 5.1 1 5.1.6 0 1-2 1-4.4 0-2.5-.4-4.8-1-5.1-.6-.4-1 1.3-1 4.4M520.7 1047.7c-1.1 1-.8 9.3.3 9.3.6 0 1-2.3 1-5 0-5.1-.1-5.5-1.3-4.3M542 1059.2c0 1.3-.3 3.4-.6 4.8-.5 1.7-.3 2.2.4 1.5 1.5-1.5 2.5-7.2 1.3-8-.7-.4-1.1.3-1.1 1.7M520 1064.1c0 3.1.4 4.8 1 4.4.6-.3 1-2.6 1-5.1 0-2.4-.4-4.4-1-4.4-.5 0-1 2.3-1 5.1M625.7 1059.7c-1.1 1-.8 10.1.3 10.8.6.4 1-1.7 1-5.4 0-6.2-.1-6.6-1.3-5.4M534.5 1071.5c-1.6 1.3-2.6 2.4-2.2 2.5 1.5 0 6.7-3.1 6.7-4 0-1.6-1.3-1.2-4.5 1.5M520 1076.2c0 3.8.3 4.9 1 3.8 1.3-2 1.3-9 0-9-.5 0-1 2.4-1 5.2M735.5 1073.9c-.6.5-3.9 2.5-7.5 4.4-3.6 2-7.3 4.7-8.4 6-1.6 2.2-1.7 2.9-.6 6.3.7 2.2 2.1 4.8 3.2 6 1.9 2.1 1.9 2.1-7.4 5.3-9.8 3.4-22.3 8.5-27.3 11.2-11.4 6.1-19.2 10.4-21.9 12.3-3.5 2.4-10.8 7.8-11.6 8.6-.6.6-7.8 6.1-9.4 7.2-.6.4-.7 1-.4 1.4.4.4 5.1-2.7 10.5-6.8 19-14.5 43.6-27.2 64.5-33.2 7.1-2 6.9-2 6.3.7-.7 2.7 1.8 5.3 5.5 5.9 2.4.3 2.4.3-1 2.4-1.9 1.1-14 8.3-26.9 16-18.8 11.2-24.8 15.3-30.7 21-8.3 8.1-12.3 15.2-13.1 23.1-.7 6-1.4 6.2-8 1.7-2-1.3-4-2.4-4.5-2.4-1.3 0-8.1 4.5-9.7 6.4-1.8 2.2-4.4 2-5.9-.4-.7-1.1-1.7-2-2.2-2-.6 0-1 .9-1 2s.6 2 1.3 2c1.1 0 3.7 4.3 3.7 6.2 0 .5-.9.4-2-.2s-2-1.7-2-2.5c0-2-5.8-5.8-7.7-5.1-1.2.5-1.3 1-.5 1.8s.7 1.5-.6 2.4c-2.7 2.1-3.9 1.7-5.2-1.9-.7-1.7-1.9-4.7-2.7-6.5-.8-1.9-1.3-3.6-1-3.8.2-.3 2.5.5 5.1 1.6 5.4 2.3 5.6 2.3 5.6 1.2 0-.5-1-1.4-2.2-2.1-2.3-1.2-2.3-1.2 0-.7 1.4.3 2.2 0 2-.6-.3-.8-17.6-7.7-19.5-7.8-.2 0-.3-.3-.3-.8 0-.4 2-1.8 4.5-3.1 3.4-1.8 4.8-2.1 5.8-1.2 2 1.6 10.7 2.7 10.7 1.2 0-.6-1.1-1.1-2.4-1.1-1.9 0-2.7-.8-3.6-3.5-1.2-3.7-7.4-9.5-10.2-9.5-.9 0-2.6 1.3-3.8 3-1.2 1.6-2.5 3-3 3-.4 0-3.7 1.7-7.1 3.9-5.4 3.2-6.4 4.3-6.7 6.9-.6 5.5 4.8 13.2 9.1 13.2 1.4 0 2.9-.5 3.2-1 .9-1.5 5.4 2 9.5 7.5 1.9 2.5 3.6 4.2 3.8 3.6.3-1-2.2-4.4-7.6-10-1.8-1.8-3-3.6-2.7-3.9.8-.8 8.1 6.5 11.6 11.5 1.8 2.6 3.8 4.3 4.9 4.3s2 .6 2 1.4.9 1.8 2 2.1 2 1.1 2 1.6.5.9 1.1.9 2.9 1.3 5.2 2.8c5.6 3.7 19.5 10.8 23 11.6 2 .5 2.7 1.2 2.7 3.1 0 3-.3 3.1-3.5.3-1.3-1.2-8.5-5.3-16-9.2-7.4-3.9-14.3-7.8-15.3-8.7-3.6-3.1-4.5-3.4-3.2-.8 1.3 2.3 1.2 2.4-.7.6-3.5-3.1-3.6-1.8-.2 2.3 1.9 2.2 4.8 5.6 6.4 7.7 3.4 4.1 14.5 9.8 21.4 10.9 2.5.4 5.8 1.9 8 3.8 2 1.7 5.3 4 7.3 5 3.6 1.9 3.6 1.9 6.9-.2 3.2-2 3.3-2.2 3-7.9-.1-3.2-.7-6.3-1.3-7-1.1-1.4-.3-3.3 1.5-3.3.6 0 3.5 1 6.4 2.2 4.3 1.8 5.3 2.6 5.3 4.6 0 1.9.5 2.3 2.3 2 1.9-.3 2.2-.8 1.9-3.8-.3-3.5-3.5-8-5.8-8-.7 0-2.6-1.7-4.1-3.8-4.1-5.4-4.6-5.9-8.7-7.6-3.4-1.4-3.6-1.7-3.6-6.4 0-2.7.7-6.5 1.4-8.4 2.1-5 8.9-13.2 13.8-16.8 6.2-4.4 34.7-23 35.4-23 .2 0 1-.5 1.7-1 2.4-2.1 19.8-13 20.8-13 .5 0 .9-.3.9-.8 0-.4 2-1.8 4.4-3 9.6-5.1 12.8-12.5 9.1-20.8-2.7-6.2-3.3-7.7-4.5-11.6-1.1-3.7-6.9-9.8-9.3-9.8-.7 0-1.7.4-2.2.9m7.4 4.8c3.1 3.8 4 6.3 2.1 6.3-.5 0-1-.3-1-.8 0-.4-.9-2.1-2-3.9-1.9-3.2-1.9-3.2-6-1.1-3.6 1.9-4.1 2.6-3.8 5.3.2 2.2 1.3 3.6 4.1 5.4 3.9 2.6 5 6.4 2.2 7.5-1.2.4-1.4 0-.9-2.2.6-2.7.6-2.7-1-.5-2.3 3.1-4.6 2.9-4.6-.3 0-3.1-1.5-6-4.7-9.6-2.8-3-3.4-2.2 5.7-7.6 5-2.9 6.5-2.7 9.9 1.5m-3.9 6.6c-3.2 3.2-5 2.9-5-.8 0-1.6.9-2.9 2.8-3.9 2.4-1.3 2.8-1.3 3.9.1s.8 2.1-1.7 4.6m-13.5.1c1.9 1.3 1.8 1.4-.6.9-3.3-.6-4.3 2.2-2.2 6.5 2.4 4.9 5.5 5.2 7.4.8.7-1.7.8-1.5.6 1.4-.3 5.1-3.5 5.3-7.6.3-5.5-6.6-3.6-14.3 2.4-9.9m20.2 1.8c5 5.5 5.6 10.3 1.8 13.8-2.5 2.3-2.5 2.3-6.3.6-3.7-1.8-3.7-1.8-1.4-3.3 2.7-1.9 2.8-5.2.3-8-1.8-1.9-1.8-2.2-.3-3.7 2.2-2.2 3.5-2 5.9.6m-19.5 1.5c1.7 1.5 2.6 6.3 1.1 6.3-1.6 0-4.3-3.5-4.3-5.7 0-2.7.7-2.9 3.2-.6m11.3 13.7c2.1 1.5 1.5 4.6-.9 4.6-.9 0-1.3-.6-1-1.4.3-.9-.3-1.7-1.5-2.1-2.6-.8-4.4.2-3.7 2.1s-1.8 1.8-3.4-.1c-2.8-3.4 6.4-6.1 10.5-3.1m12.9.2c1.4.5 1.4.9.1 3.3-1.6 3.3-.4 2.4-38 26.2-9.9 6.2-18.4 11.7-19 12.1-.5.5-4.6 3.1-9 6-7.8 5-10 6.9-15.2 13.6-3.7 4.7-4 3.1-.5-2.1 3.6-5.1 14.7-15.6 18.8-17.7 1.6-.8 6.1-3.5 9.9-6 8.3-5.5 12.3-8.1 15-9.6 6.8-3.8 31.5-19.1 34.3-21.2 1.7-1.3 3.2-2.9 3.2-3.4 0-.6-1.5.1-3.2 1.4-3 2.3-14.6 9.4-22.2 13.8-4.6 2.6-17.9 10.8-28.1 17.4-4.9 3.2-10.1 6.5-11.5 7.4-5 3.1-11.2 8.8-14.9 13.7-4.1 5.3-8.1 14.8-8.1 19.3 0 2.1-.2 2.4-1 1.2-3.2-5 1.6-16.6 10.9-26.3 6-6.3 13.8-11.7 35.6-24.7 7.7-4.6 17.8-10.7 22.5-13.6 4.7-2.8 10.4-6.2 12.8-7.4 2.3-1.2 4.5-2.6 4.8-3.1.6-1.1.8-1.1 2.8-.3m-8.4 1.4c0 .5-.4 1-1 1-.5 0-1-.5-1-1 0-.6.5-1 1-1 .6 0 1 .4 1 1m-131.4 42.6c2.6 1.8 6 7.2 5 8.1-.5.5-9.6-8.5-9.6-9.4 0-.8 2.3-.1 4.6 1.3m-1.8 3.6c2.1 2.1 1.3 3.4-3.9 5.8-6 2.8-6.3 3.3-4.9 6 .6 1.2.9 2.6.7 3.3s-1.4-.7-2.5-3c-1.2-2.3-3.2-4.7-4.3-5.4-2.2-1.2-2-1.4 6.6-6.6 2.6-1.6 6.8-1.6 8.3-.1m-16.5 7.5c.4.3-.3 1.1-1.6 1.8-1.5.7-2.1 1.8-2 3.5.3 2.5.3 2.5-.7.1-.6-1.3-.8-3.2-.5-4.2.6-1.8 3.5-2.6 4.8-1.2m2.6 6c.8 1.8.9 2.9.2 3.6-1.4 1.4-5.1-1.9-5.1-4.5 0-2.8 3.5-2.2 4.9.9m3.5 2.5c.8 3.5-1.7 6.2-4.5 4.8-2.5-1.4-2.4-1.7.4-1.6 1.9.1 2.2-.4 2.1-3.7-.2-4.1 1-3.9 2 .5m9.2 1.6c1.2 1.5 2.4 3.8 2.8 5.2.6 2.1 0 1.7-3.9-2.3-2.5-2.6-4.3-5.1-4-5.7.8-1.3 2.7-.3 5.1 2.8m2.9-1.8c.3.6-.1.7-.9.4-1.8-.7-2.1-1.4-.7-1.4.6 0 1.3.4 1.6 1m5.5 2c1.3.9 1.3 1 0 1-.8 0-2.2-.5-3-1-1.3-.9-1.3-1 0-1 .8 0 2.2.5 3 1m34.5 6.6c2.2 1.6 2 1.8-3.7 4.9-3.4 1.9-5.2 1.9-6.7.1-.9-1.1-.5-1.9 2.1-4 3.8-2.9 5.5-3.2 8.3-1m7 4.3c3.1 1.8 7.4 9.5 6.1 10.8-.4.4-2 0-3.6-.9-1.9-1.1-3.1-1.3-3.8-.6s-1.6-.1-2.7-2.8c-.9-2.1-2.1-4.2-2.8-4.6-.9-.5-.6-1.1.8-2.2 2.5-1.9 2.4-1.9 6 .3m-30.1 4.3c1.5 5.7-.7 7.7-4.6 4.1-2.4-2.2-2.3-4.2.5-5.3 3.2-1.3 3.4-1.2 4.1 1.2m9-1.6c1 .4 1.6 1.8 1.6 3.5 0 3.2 3.7 6.4 14.8 12.6 5.1 2.9 5.4 3.3 2.8 3.3-1.5 0-7.1-2.2-12.2-4.9-8.7-4.6-11.1-5.2-8.2-2.3.9.9.4.9-2 0-3.6-1.4-3.7-2.8-.3-4.3 1.9-.9 2.2-1.5 1.7-4.8-.7-3.9-.6-4 1.8-3.1m15.8 4.4c1 2.1 1.3 3.9.7 4.4-.5.6-.9 1.9-.8 3 0 1.2.3 1.5.6.8 1.1-2.8 5.8.1 5.1 3.1-.2 1.1-2.1.3-7.3-2.8-5.8-3.6-7.1-4.8-7.7-7.6-.8-3.9.3-5 4.7-4.7 2.3.2 3.4 1.1 4.7 3.8m-10.2 1.2c0 .5-.4.8-1 .8-.5 0-1-1-1-2.3 0-1.8.2-1.9 1-.7.5.8 1 1.8 1 2.2m-10.5.8c-.3.5-1 1-1.6 1-.5 0-.9-.5-.9-1 0-.6.7-1 1.6-1 .8 0 1.2.4.9 1m30 3.9c4.6 2.9 4.6 3.9.3 5.4-1.3.5-1.8.1-1.8-1.3 0-1.1-.9-2.4-2-3s-2-1.7-2-2.5c0-2 .2-1.9 5.5 1.4m8.5-1.6c1.8 1.4 5 5.8 5 6.8 0 .4-3.8 2.6-8.3 4.9-8.1 4.1-8.5 4.2-11.3 2.7-2.9-1.6-2.9-1.6.8-1.7 5 0 15.8-5.6 15.8-8.2 0-1.7-.4-1.6-3.1 1.1-1.7 1.7-3.6 3.1-4.2 3.1-.7 0-.1-.9 1.2-1.9 1.9-1.5 2.2-2.3 1.6-4.9-.7-3.4 0-3.9 2.5-1.9m-4 1.2c0 .3-.2.5-.5.5s-.5-.2-.5-.5.2-.5.5-.5.5.2.5.5m-43.5 2.5c.3.5.4 1 .1 1s-.8-.5-1.1-1c-.3-.6-.4-1-.1-1s.8.4 1.1 1m3.2 1.7c-.4.3-1 .3-1.4 0-.3-.4 0-.7.7-.7s1 .3.7.7m19.6 3.2c3.7 1.8 6.6 3.6 6.3 3.8-.5.6-12.6-5.4-14.1-6.9-1.3-1.4-.6-1.1 7.8 3.1m.2 10.1c.3.5.4 1 .1 1-1 0-10.1-3.1-12.6-4.3-3.5-1.6-10-6.7-10-7.8s21.5 9.5 22.5 11.1m-14.8-10.3c-.4.3-1 .3-1.4 0-.3-.4 0-.7.7-.7s1 .3.7.7m32.3.8c0 .3-.2.5-.5.5s-.5-.2-.5-.5.2-.5.5-.5.5.2.5.5m17 1q4.5 2.4 2.1 3.9c-.8.5-3.4-.5-6.9-2.7-1.3-.9-.7-2.7.9-2.7.6 0 2.3.7 3.9 1.5m-12 6.9c0 3.4-1.5 4-4.6 2-2.5-1.7-2.5-1.8-.8-3.1 2.9-2.1 5.4-1.6 5.4 1.1m-14.9 4.1c3.9 3.5 7.4 5.7 9.6 6.1 2.4.5 3.1 1 2.4 1.7-1.7 1.7-8.3-2-14.2-7.9-6.9-7-5.7-6.9 2.2.1m31.6-4.8c-.4.3-1 .3-1.4 0-.3-.4 0-.7.7-.7s1 .3.7.7m-24.5 5.8c-.6 3.3-2.2 2.1-2.2-1.7 0-2.5.3-2.8 1.4-1.9.7.6 1.1 2.2.8 3.6m5.8 2c0 1.5-.6 2.5-1.4 2.5-.9 0-1.3-1-1.2-2.5.1-3.3 2.6-3.3 2.6 0m1.7.2c-.4.3-.7 0-.7-.7s.3-1 .7-.7c.3.4.3 1 0 1.4"/><path d="M654.4 1180.4c-.6 1.6 1.1 4.6 2.7 4.6 1.5 0 1-3.7-.6-5-1.2-1-1.6-.9-2.1.4M645.6 1184.9c-1 1.6.5 4.1 2.5 4.1 2.2 0 2.3-.4.9-3.1-1.1-2-2.5-2.5-3.4-1M526.8 1075.8c-2.7 1.6-3.7 3.2-2 3.2.4 0 2.1-1.1 3.7-2.5 3.4-2.8 2.3-3.3-1.7-.7M625.2 1081.5c.1 3.6.6 6.5 1 6.5.5 0 .8-2.9.8-6.5 0-3.9-.4-6.5-1.1-6.5-.6 0-.9 2.4-.7 6.5M520.6 1083.5c-.3.9-.6 2.9-.5 4.3.1 2.2.3 1.9 1-1.2 1-4 .6-6-.5-3.1M663.6 1084.6c-.9 2.5-.7 2.7 1 1.3 1.4-1.1 2-1 4 1.4 2.8 3.3 3 4.5.9 5.3-2 .8-1.9 2.4 0 2.4 3.5 0 3-6.5-.7-10-2.6-2.4-4.4-2.6-5.2-.4"/><path d="M661.6 1090.9c-4.6 2.6-4.3 4.4.3 1.9 2.3-1.2 4.1-2.5 4.1-3 0-1.2-1.1-.9-4.4 1.1M625.6 1091.8c-.9 1.4-.5 13.2.5 13.2.5 0 .9-3.2.9-7 0-6.7-.3-8-1.4-6.2M519.7 1093.7c-.4.3-.7 1.9-.7 3.4 0 2.1-.4 2.6-1.8 2.2-3.8-1-9.3 6.3-6.2 8.2 1.6 1 1.2 6.5-.7 8.3-1.3 1.4-3.7 1.7-11.7 1.8-6.7 0-10.1.5-10.4 1.2-.3.9 2.6 1.2 10.1 1.2 9.1 0 10.6-.2 12.2-2 1.5-1.7 2.6-1.9 7.1-1.4 6.7.8 10.4-1.2 10.4-5.6 0-1.6.5-3.2 1-3.5 1.9-1.2 1-4.4-1.9-6.4-3.3-2.4-5.3-2.7-5-.9.4 3.4-.2 4.8-2.1 4.8-2.4 0-2.5-.6-.5-2.6.8-.9 1.5-3.3 1.5-5.5 0-4-.2-4.4-1.3-3.2m-2.7 8.8c-1.8 2.1.5 4.7 3.9 4.3 2-.2 2.6-.8 2.5-2.6-.1-2.3.4-2.6 3-1.6 2.1.8 2 3.4-.1 5-3.9 2.9-14.3.9-14.3-2.7 0-1.9 2.5-3.8 4.9-3.9 1.1 0 1.1.3.1 1.5m-1 9.1c0 1.7-2.2 1.4-2.8-.4-.2-.7.3-1.2 1.2-1.2s1.6.7 1.6 1.6m10-.2c0 .8-.4 1.8-1 2.1-.5.3-1-.3-1-1.4 0-1.2.5-2.1 1-2.1.6 0 1 .6 1 1.4m-4 1.6c0 1.5-.7 2-2.5 2s-2.5-.5-2.5-2 .7-2 2.5-2 2.5.5 2.5 2M650.5 1097.1c-1.6 1-3.4 2.1-4 2.3-.5.2-.7.6-.3 1 .9 1.1 9-3.3 8.3-4.4-.4-.6-.7-1-.8-.9-.1 0-1.5.9-3.2 2M640.6 1103.6c-1.8 1.7-2.2 7.4-.6 7.4.6 0 1-1.2 1-2.7 0-1.4.7-3.5 1.7-4.5 2-2.2.1-2.4-2.1-.2M398.4 1107.3c-.2.7-.3 6.2-.2 12.3l.3 10.9 44.1.3 44 .2v-12.2l-.1-12.3-43.8-.3c-35.6-.2-43.8 0-44.3 1.1m85.4 11.5.3 10.2-41.3-.2-41.3-.3-.1-9.5c0-5.2.2-9.9.4-10.3.2-.5 18.7-.7 41.1-.5l40.6.4z"/><path d="M451.7 1110.8c-2.6 2.8-2.1 6.7 1 9 1.6 1.1 2.3 2.4 1.9 3.1-.6.9-1.1.9-2.1.1-2.1-1.7-2.7.5-.6 2.4 1.7 1.5 1.9 1.5 3.2 0 2-2.4 1.9-12.9-.2-14.9-1.4-1.4-1.7-1.4-3.2.3m3.1 4.5c.2 1.9-.1 2.7-1.2 2.7s-1.6-1-1.6-3.1c0-3.8 2.4-3.5 2.8.4M408.3 1111.5c-.3.9-.2 1.9.2 2.3s1 .1 1.2-.6c.3-.6.9-1.2 1.4-1.2 1.4 0 1.1 2.2-.7 4.2-1.6 1.6-1.6 1.8 0 2.4.9.3 1.6 1.7 1.6 3 0 2.8-1.5 3.2-2.8.8-.5-1-1.2-1.2-1.5-.7-.4.6 0 1.9.8 2.9 1.1 1.5 1.7 1.7 3.2.8 1.4-.9 1.8-2.4 1.8-6.5 0-3-.4-6.2-.8-7.2-1-2.1-3.6-2.2-4.4-.2M420.7 1114.1c-3.2 5.5-3.5 7.9-.7 7.9 1.3 0 2 .7 2 2 0 1.1.4 2 .9 2 1.3 0 1.8-3.9 1.1-10.5l-.5-6zm1.3 4.4c0 .8-.4 1.5-1 1.5-.5 0-1-.7-1-1.5s.5-1.5 1-1.5c.6 0 1 .7 1 1.5M440.9 1111.7c-1.9 2.2-1.8 11.5.1 13.7 1.3 1.7 1.5 1.7 3.2-.4 3.1-3.8 2.1-15-1.3-15-.4 0-1.3.7-2 1.7m3.1 6.9c0 5.6-1.5 7.3-2.6 2.9-.8-3.2.4-9.7 1.7-9 .5.4.9 3.1.9 6.1M463.5 1110.6c-1.6.6-1 15.8.7 16.2 1.1.2 1.4-1.4 1.3-7.7 0-8.1-.2-9.1-2-8.5M428.5 1118c-.3.5 0 1.3.9 1.6 2.1.8 6.1.1 6.1-1.1 0-1.4-6.2-1.9-7-.5M625 1115.6c0 4.7.4 7.3 1 6.9.6-.3 1-3.7 1-7.6s-.4-6.9-1-6.9-1 3.2-1 7.6M703 1110c-7.3 1.8-33.7 16-42 22.7-.8.6-5.2 4.2-9.8 7.8-4.6 3.7-8.1 6.9-7.8 7.2.4.4 8.5-5.5 10.6-7.7 1.1-1.2 14.8-10.7 20-13.9 7.3-4.4 26.6-14.1 28.1-14.1 1.9 0 .2 1.3-5.6 4.5-12.7 7-14.5 8.6-44.9 40.4-4.3 4.5-7.6 8.5-7.2 8.8.3.4 4.8-3.8 9.8-9.3 23.9-25.6 30.4-31.4 43.4-38.6 3.3-1.7 6.5-4 7.2-5 .8-1.1 2.3-1.8 3.5-1.6 3.9.6 2.8 2.6-3 5.4-14.3 6.8-23.6 14.7-50.6 43.1-3.8 4-8.2 7.8-9.8 8.5s-2.9 1.6-2.9 2c0 3 8.3-3.2 17-12.7 20.9-22.7 32.5-32.4 47.3-39.4 7.1-3.4 8.6-6 4.8-8.1-2.2-1.1-3.2-1.1-8.1 0M640.3 1119c0 3 .2 4.3.4 2.7.2-1.5.2-3.9 0-5.5-.2-1.5-.4-.2-.4 2.8M625 1133.1c0 4.4.4 6.8 1 6.4.6-.3 1-3.5 1-7.1s-.4-6.4-1-6.4-1 3-1 7.1M640.3 1131.5c0 2.7.2 3.8.4 2.2.2-1.5.2-3.7 0-5-.2-1.2-.4 0-.4 2.8M640 1144c0 3.2.4 4.9 1 4.5.6-.3 1-2.4 1-4.5s-.4-4.2-1-4.5c-.6-.4-1 1.3-1 4.5M398.7 1141.7c-.4.3-.7 5.7-.7 11.8 0 11.2 0 11.2 3 11.9 2.4.4 45.1.8 80.8.6h5.2v-25h-43.8c-24.1 0-44.2.3-44.5.7m85.3 12.1v10.2l-41.2-.2-41.3-.3-.3-9c-.1-4.9 0-9.6.3-10.3.4-1.2 7.3-1.4 41.5-1.1l41 .4z"/><path d="M408.4 1146.5c-.4.9-.3 1.9.1 2.3s1 .1 1.2-.6c.3-.6.9-1.2 1.4-1.2 1.4 0 1.1 2.2-.7 4.2-1.6 1.6-1.6 1.8 0 2.4.9.3 1.6 1.7 1.6 3 0 2.7-1.5 3.2-2.4.8-.3-.8-1-1.2-1.6-.9-1.3.8.6 4.5 2.4 4.5 2.9 0 3.7-2.6 2.9-9.1-.6-4.9-1.2-6.5-2.6-6.7-.9-.2-2 .4-2.3 1.3M420.2 1149.5c-2.7 5.7-2.8 7.5-.1 7.5 1.5 0 2 .5 1.7 2.2-.2 1.5.2 2.3 1.1 2.3 1 0 1.4-1 1.4-3-.1-10.4-.4-13.5-1.1-13.5-.4 0-1.8 2-3 4.5m1.4 5.2c-1.1 1.1-1.9-.6-1.1-2.4.8-1.7.8-1.7 1.2 0 .3 1 .2 2.1-.1 2.4M440 1148c-1.5 3.7-.5 11.9 1.6 12.7 2.7 1 4.4-1.7 4.4-6.9 0-8.4-3.5-11.8-6-5.8m4 5.6c0 5.2-1.1 7.1-2.4 3.8-.8-2-.8-6.8 0-8.8 1.2-3 2.4-.5 2.4 5M450.4 1147.4c-.8 3.4.3 7.6 2.1 7.6 1.7 0 2.8 1.7 2 3-.5.8-1.1.8-2 0-1-.8-1.5-.8-2.1.1-.9 1.5 2.3 4 4.1 3.2 1.9-.6 3-8.6 1.8-12.6-1.2-4.2-4.9-5-5.9-1.3m4.4 2.9c.2 1.9-.1 2.7-1.2 2.7s-1.6-1-1.6-3.1c0-3.8 2.4-3.5 2.8.4M460 1145.5c0 .2.7 2.2 1.6 4.4 1.4 3.6 1.4 4.2 0 7-1.8 3.4-2 5.1-.7 5.1.5 0 1.1-1 1.3-2.2.4-2.8 2.8-3.6 2.8-.9 0 2 1.7 3.8 2.7 2.8.3-.3-.3-2.6-1.2-5.1-1.6-4.1-1.6-4.7-.1-7.7 2-3.9 2-3.9.1-3.9-.8 0-1.5.9-1.5 2s-.4 2-1 2c-.5 0-1-.9-1-2s-.7-2-1.5-2-1.5.2-1.5.5M428.5 1152.8c-1 1.1.8 2.2 3.5 2.2 2.6 0 5.4-1.8 3.3-2.1-2.4-.4-6.4-.4-6.8-.1M625 1150c0 4.5.4 6.9 1 6.5.6-.3 1-3.3 1-6.5s-.4-6.2-1-6.5c-.6-.4-1 2-1 6.5M632.7 1150.8c-5.2 5.3-6.3 9.2-2.4 9.2 2.9 0 6.2 2.4 5.3 3.8-.4.6-2.2 1.4-4.1 1.8-2.6.5-3.5 1.1-3.5 2.6 0 1.8.5 1.9 5.3 1.3 4.8-.5 5.1-.5 3.3 1-1.1.8-3.5 1.5-5.3 1.5s-3.3.4-3.3 1c0 .5 1.1 1 2.4 1s2.6.6 2.9 1.2c.6 2.1 7.7-5.6 7.7-8.4-.1-2-.2-2.1-1.3-.8-.7.9-2 1.4-3 1.2-1.7-.3-1.7-.5-.2-2.2 2.2-2.4.3-5.6-3.9-6.5l-3.1-.6 3-1.6c3.6-1.9 5.9-4.2 5.2-5-.3-.3-1.3.2-2.2 1.1s-2.2 1.6-2.8 1.6c-.7 0 .3-1.4 2.1-3.1 1.8-1.6 3.2-3.4 3-4-.2-.5-2.5 1.2-5.1 3.9M834 1146.8c-5.4 1.9-5.3 15.1.2 16.5 3.2.9 5.8-2.6 5.8-7.9 0-6.7-2.2-9.9-6-8.6m3.5 8.2c0 4.8-.2 5.5-2 5.5-1.6 0-2.1-.8-2.3-4.4-.4-5.4.3-7.3 2.5-6.9 1.5.3 1.8 1.4 1.8 5.8M844 1148c-1.5 1.5-2 3.3-2 6.7.1 5 1.3 7.5 4.3 8.6 5.1 1.9 8.1-10.4 3.7-15.1-2.6-2.7-3.5-2.7-6-.2m4.8 2.2c1.8 1.8 1.5 9.7-.3 10.4-2.5 1-4.5-1.6-4.5-5.5 0-3.3 1.4-6.1 3-6.1.3 0 1.1.5 1.8 1.2M808.2 1148.2c-1.5 1.5-1.6 3.8-.2 3.8.6 0 1.3-.7 1.6-1.5.4-.8 1.5-1.5 2.5-1.5 2.4 0 2.6 3.5.2 4.5-1.6.6-1.6.8.5 2.4 1.5 1.1 2.1 2.3 1.6 3.4-.7 1.8-4.4 2.4-4.4.7 0-.6-.7-1-1.5-1-2.1 0-1.9 1.6.6 3.3 4 2.8 8.8-.9 7.3-5.6-.4-1.2-.8-3.8-.8-5.7-.1-3.1-.4-3.5-3.1-3.8-1.7-.2-3.6.3-4.3 1M823.2 1149.1c-2.3 3.7-5.2 8.9-5.2 9.4 0 .3 1.4.5 3.1.5 2.3 0 3.2.5 3.6 2 .3 1.2 1 1.9 1.5 1.8.5-.2.8-.6.6-.9s.3-1.3 1-2.2c.9-1.1 1-1.7.2-2.2-.7-.4-1-2.7-.9-5.3.4-5.3-1.6-6.8-3.9-3.1m1.8 4.9c0 2.3-.4 3-2 3-2.3 0-2.4-.1-.8-3.5 1.5-3.4 2.8-3.2 2.8.5M698 1151c-5.7 1.5-10.6 3.2-10.8 3.9-.3.8 4.4 1.2 16.7 1.3 9.4.1 18.5.2 20.3.2 1.7.1 3.3-.5 3.6-1.2.3-.9-1.9-1.2-8.8-1.2-9.1 0-9.1 0-8.8-2.6.2-1.5-.1-2.8-.7-2.9-.5-.2-5.7 1-11.5 2.5M784 1150c-.8.5-2.5 1-3.6 1-2.2 0-3.4 2.7-2.7 6 .4 1.9 8.2 4.4 10.6 3.4 1-.3 2.5-2 3.3-3.6.9-1.7 2.2-2.7 3.1-2.6 2.9.5 2.5-2.1-.6-3.6-3.4-1.8-7.9-2-10.1-.6m9.5 2c.3.5 0 1-.7 1-.8 0-1.9 1.3-2.5 3-.8 2.2-1.8 3-3.6 3-7.1 0-10.5-4.8-4.9-6.8 3.6-1.4 10.9-1.5 11.7-.2M640 1156.5c0 2.5.5 4.5 1 4.5.6 0 1-2 1-4.5s-.4-4.5-1-4.5c-.5 0-1 2-1 4.5M734 1155.4c0 1.2.9 1.5 4 1.3 5.4-.4 5.6-2.1.3-2.5-3.3-.2-4.3 0-4.3 1.2M749.7 1154.6c-1.3 1.3.5 2.4 3.8 2.4 3.7 0 5.4-1.4 2.9-2.4-2.1-.8-5.9-.8-6.7 0M762.4 1154.9c-1.4 1.4.3 2.1 5.6 2.1 3.3 0 6-.4 6-.9 0-.9-10.8-2-11.6-1.2M622.8 1159.6c-1.4 1.3-.9 5.4.7 6 1.1.4 1.5 2.1 1.5 5.6 0 3 .4 4.7 1 4.3.6-.3 1-4 1-8.1 0-4.3-.4-7.4-1-7.4-.5 0-1.1 1-1.1 2.2-.1 1.9-.2 1.8-.8-.5-.3-1.6-.9-2.5-1.3-2.1M610.5 1187.1c-1.6 1.1-3.4 2.1-4 2.3-.5.2-.7.6-.3 1 .7.8 6.3-1.8 7.3-3.5 1.2-1.8.1-1.7-3 .2M600.5 1193.1c-1.6 1-3.4 2.1-4 2.3-.5.2-.7.6-.4 1 .8.8 7.9-3.2 7.9-4.5 0-1.1.1-1.2-3.5 1.2M588.8 1199.8c-2.7 1.6-3.7 3.2-2 3.2.4 0 2.1-1.1 3.7-2.5 3.4-2.8 2.3-3.3-1.7-.7M575.7 1206c-9.1 5.7-12.6 7.1-16.1 6.4-2.9-.5-3.6-.2-4.7 1.7-2.6 4.9-4.8 5.8-14.1 5.9-10.4 0-12.1 1.9-2 2.2 3.7.1 7.6.2 8.7.2 1.2.1 3.5 1.6 5.1 3.5 3 3.3 3.3 3.4 6.2 2.2 1.7-.7 3.5-1.1 3.9-.8 1.7 1.1 3.6-1.1 4.2-4.8.4-2.3 1.4-4.2 2.6-4.9 1.1-.6 2.2-1.4 2.5-1.7s3.1-2 6.3-3.8c5.7-3.2 7-5.4 4.5-7.9-1.6-1.6-1.8-1.6-7.1 1.8m6.3.6c0 .8-.4 1.2-1 .9-.5-.3-1-1-1-1.6 0-.5.5-.9 1-.9.6 0 1 .7 1 1.6m-2 1c0 .3-.7 1.2-1.6 2.1-1.1 1.2-1.8 1.3-2.7.4-.8-.8-.7-1.1.6-1.1.9 0 1.7-.5 1.7-1 0-.6.5-1 1-1 .6 0 1 .3 1 .6m-5.2 4.2c.2.7-.3 1.2-1.2 1.2s-1.6-.7-1.6-1.6c0-1.7 2.2-1.4 2.8.4m-3.8 1.8c0 2.2-4.7 4.1-6.3 2.4-.8-.9-.9-1.4-.1-1.7.6-.2 2-1 3-1.7 2.1-1.6 3.4-1.2 3.4 1m-9.9 1.4c3.2 1.8 6.5 10 4 10-.5 0-1.1-1.3-1.4-2.9-.4-1.6-1.9-4.1-3.4-5.5-2.9-2.7-2.6-3.3.8-1.6m-4.4 2.7c-.4.3-1 .3-1.4 0-.3-.4 0-.7.7-.7s1 .3.7.7m3.7.9c1.4.5 2.4 3.4 1.2 3.4-.2 0-1.1.3-1.9.6-1.5.5-3.1-2.1-2.1-3.7.6-1.1.8-1.1 2.8-.3m-2.4 7c0 1.9-1.9 1.8-4.2-.3-1.9-1.7-2.4-4.4-1.1-5.7 1-.9 5.3 4 5.3 6m3.2-.4c-.7.7-1.2.8-1.2.2 0-1.4 1.2-2.6 1.9-1.9.2.3-.1 1.1-.7 1.7M437.2 1214.2c-.7.7-1.2 2.2-1.2 3.4 0 2.3 2.2 4.8 3.3 3.7.4-.3.7.3.7 1.5 0 2.5-1 2.8-2.8 1-.9-.9-1.2-.8-1.2.4 0 2.1 2.9 3.1 4.6 1.7 2.7-2.2 1.4-12.9-1.6-12.9-.3 0-1.1.5-1.8 1.2m2.8 3.3c0 2.5-1.4 3.4-2.4 1.6-.8-1.2.3-4.1 1.5-4.1.5 0 .9 1.1.9 2.5M446 1215c-1.8 3.4-.1 6.7 3.3 6.1.5-.1.7.6.5 1.6-.3 1.2-1.1 1.7-2.8 1.5-2.4-.3-2.4-.2-.7 1.5 2.8 2.8 5.1.6 5.5-5.1.4-6.8-3.3-10.3-5.8-5.6m4 3.1c0 2-1.5 2.6-2.5.9-.9-1.5.3-4.3 1.5-3.5.5.3 1 1.5 1 2.6M465.2 1214.2c-1.7 2.1-1 10.9 1 12.1 2.9 1.9 4.8-.8 4.4-6.3-.2-2.6-.6-5.3-1-5.9-.9-1.5-3.1-1.4-4.4.1m3.3 2.6c0 1.8-2 1.5-2.3-.4-.3-1 .1-1.5 1-1.2.7.3 1.3 1 1.3 1.6m.3 5.9c-.4 2.2-2.2 2-2.6-.1-.2-1 .3-1.6 1.3-1.6s1.5.7 1.3 1.7M503.2 1214.2c-2.6 2.6-.8 12.8 2.2 12.8 1.6 0 3.6-3.6 3.6-6.6 0-6.1-2.9-9.1-5.8-6.2m3.6 5.8c-.5 4.9-2.8 5.1-2.8.2 0-2.1.3-4.2.7-4.6 1.3-1.2 2.4 1.2 2.1 4.4M523.3 1214.1c-3.1 1.1-3.4 6.4-.3 5.4 2.3-.7 3.6 1.4 2.6 4.1-.5 1.3-.9 1.4-2.1.4-2.2-1.8-3.2-.3-1.2 1.7 1.5 1.6 1.8 1.5 3.7-.2 1.1-1 2-2.6 2-3.5 0-2-3.3-5.3-4.3-4.3-.4.3-.7.1-.7-.5 0-.7.6-1.2 1.4-1.2 1.7 0 3-1.6 1.9-2.3-.5-.3-1.8-.1-3 .4M456.3 1215.5c1.7 1.2 1.7 1.8.6 4.8-.7 2-.9 4.2-.4 5.3.7 1.6.9 1.3 1.5-1.6.3-1.9 1.2-4.5 1.8-5.7 1.9-3.4 1.4-4.3-2-4.3-3 .1-3.2.2-1.5 1.5M477.4 1215.2c-3.8 5.9-4.3 8.8-1.5 8.8 1.1 0 2.1.6 2.4 1.2.9 2.7 2.1-.4 1.8-5-.2-5.1-1.4-7.2-2.7-5m.6 5.8c0 1.1-.4 2-1 2-.5 0-1-.9-1-2s.5-2 1-2c.6 0 1 .9 1 2M494.1 1215.3c-.9 1.2-.8 1.6.4 2.1 1 .4 1.5 2 1.5 5.3s.3 4.4 1.1 3.6c1.3-1.3.8-11.5-.7-12-.6-.2-1.6.3-2.3 1M513.7 1217.5c-2.2 4.7-2.1 6.5.3 6.5 1.1 0 2 .4 2 1 0 .5.5 1 1 1 1.4 0 .9-11.2-.6-11.7-.5-.2-1.8 1.3-2.7 3.2m2.3 3c0 .8-.4 1.5-1 1.5-.5 0-1-.7-1-1.5s.5-1.5 1-1.5c.6 0 1 .7 1 1.5M484 1221c0 .5 1.1 1 2.4 1 1.4 0 2.8-.5 3.1-1 .4-.6-.7-1-2.4-1s-3.1.4-3.1 1M177 1247.9c-2.5 1.5-7.4 4.3-11 6.1-3.6 1.9-7.7 4.2-9.2 5.2-3.5 2.4-3.8 2.3-3.8-1.5 0-2.1-.8-4.1-2-5.2-1.9-1.7-2-1.7-2.7.1-.4 1.1-2.9 5.4-5.5 9.7s-4.8 8.1-4.8 8.3c0 .3-1.3 2.5-3 4.9-1.6 2.4-3 5-3 5.7s1.7 2.4 3.8 3.7c9.4 6.2 16.4 10.2 17 9.6.3-.3.5-2.5.3-4.9-.3-4.9-.4-4.8 10.4-10.6 18.9-10.1 21.1-11.3 22.8-12.8 1.4-1.2 1.7-3.2 1.7-9.8 0-7.4-.2-8.4-2.2-9.8-2.9-2.1-3.4-2-8.8 1.3m9 8.9c0 9 .9 8.1-17 17.1-5.8 3-10.9 5.7-11.4 6.2-1.8 1.6-3.6.9-3.6-1.3 0-1.2 1.2-3.2 2.8-4.4 1.5-1.2 2.4-2.6 1.9-3-.4-.4-1.3-.2-1.9.4-1.6 1.6-2.8 1.5-2.8-.3 0-.9 1.3-2.4 3-3.3 1.6-.9 3-2 3-2.5 0-1.1-1.1-.8-4.5 1.2-2.6 1.5-3 2.4-3.3 7-.2 2.9.2 5.9.8 6.6.8.9.8 1.5 0 2-.5.3-1 2.5-1 4.9 0 2.3-.3 4.5-.6 4.8-.3.4-4-1.5-8.2-4.2-5.3-3.3-7.6-5.3-7.4-6.4.2-1 2.8-5.6 5.9-10.4s6.2-9.7 7-11c1.7-2.8 3.3-2 3.3 1.9 0 1.6.4 2.9 1 2.9.5 0 3.3-1.4 6.2-3.1 14.2-8.5 25-13.9 26-13.2.5.2.8 3.9.8 8.1"/><path d="M177.2 1254.6c-1.8 1.3-2.2 2.5-2.2 7.4 0 5.3.2 5.8 2 5.3 3.7-1 7-5 7-8.6 0-5.4-2.7-7-6.8-4.1m4.8 3.6c0 3-2.3 6.8-4.2 6.8-.9 0-1.1-8.4-.1-9.3.3-.4 1.5-.7 2.5-.7 1.4 0 1.8.8 1.8 3.2M171.8 1258.3c-.5 1-.8 3-.8 4.4 0 2.1-.2 2.4-1.5 1.3-.8-.7-1.5-1.9-1.5-2.7s-.4-1.1-1-.8c-.5.3-1 1.6-1 2.9 0 3.4-1.2 4-2.7 1.4-1.3-2.1-1.3-1.8-.8 2.7.4 2.7.9 5.3 1.2 5.8.9 1.4 2.3-.4 2.3-3.1 0-3.8 1.3-5.7 2.7-4 .5.7 1.4 2.2 1.8 3.3.6 1.6 1 1.2 1.7-2.5 1-5.4.7-11.5-.4-8.7"/></svg>