<svg xmlns="http://www.w3.org/2000/svg" viewBox="0 0 992 1402" fill="currentColor"><path d="M641.8 292.9c-6.9.3-12.9.9-13.2 1.2s-.3 5.8.1 12.2l.6 11.7 15.1-.1c27.9-.1 70.7-1.6 71.6-2.5.5-.5.6-6 .3-12.2l-.6-11.2-30.6.2c-16.8.1-36.3.4-43.3.7m72.2 11v9.8l-24.2.7c-13.4.3-31.8.9-40.9 1.2l-16.6.7-.6-6.4c-.3-3.5-.5-8.2-.4-10.4l.2-4 16.5-.3c9.1-.1 17.2-.4 18-.6s12-.4 24.8-.5l23.2-.1z"/><path d="M649.1 297.4c-.7.8-1.1 3-.9 4.8.2 2.8.7 3.3 2.6 3 1.8-.3 2.2.2 2.2 2.2 0 2.7-1.5 4.3-2.5 2.6-.9-1.5-2.5-1.2-2.5.4 0 1.3 2 2.6 4 2.6 1.7 0 3.1-4.1 2.5-7-.4-1.6-1.5-3.2-2.6-3.5-2.6-.8-2.4-3.5.2-3.5 1.2 0 1.9-.5 1.7-1.3-.7-1.8-3.3-2-4.7-.3M670 300.6c0 4.1.2 4.5 2 3.9 1.7-.5 2-.2 2 2.4 0 3.3-.8 3.9-2.8 1.9-.9-.9-1.2-.7-1.2.9 0 2.6 2.3 3.6 4.5 1.9 2.5-1.8 1.7-7.8-1.2-9.1-2.8-1.2-3-3.5-.3-3.5 1.1 0 2-.7 2-1.5 0-.9-.9-1.5-2.5-1.5-2.3 0-2.5.4-2.5 4.6M683.1 296c-.1.3-.3 4-.4 8.3-.2 6.9 0 7.7 1.7 7.7 1.4 0 1.6-.4 1-1.8-.4-.9-1.1-4.6-1.4-8.2-.4-3.6-.8-6.3-.9-6M691.6 297.6c-1 2.5-.7 10.4.4 12.5 1.5 2.7 3.7 2.4 4.5-.9 1.3-4.6 1.3-6.5-.2-9.9-1.4-3.5-3.7-4.3-4.7-1.7m4 3.9c.7 3.8-.1 8.5-1.5 8.5-.5 0-1.2-1.8-1.6-4-1.2-7 1.8-11.4 3.1-4.5M639.3 302.2c-2.3 5.1-2.3 6.8.2 6.8.7 0 1.5.9 1.7 2 .2 1.2.8 2.1 1.3 2 1.1 0 .9-14.1-.3-15.2-.4-.3-1.7 1.6-2.9 4.4m1.7 3.4c0 .8-.5 1.2-1 .9-.6-.4-.8-1.1-.5-1.6.9-1.4 1.5-1.1 1.5.7M659 305c0 .5 1.4 1 3 1 1.7 0 3-.5 3-1 0-.6-1.3-1-3-1-1.6 0-3 .4-3 1M670.4 372.7c.4 29.1.9 54.7 1.2 57 .7 5.9-.6 5.7-14.5-2.6-14.2-8.4-33.1-19.1-33.8-19.1-.3 0-1.7-.8-3.1-1.8-1.5-1.1-5.2-3.2-8.2-4.9-3-1.6-9.3-5.3-14-8-10.4-6.2-13.7-6.8-23-4.7-3.9.9-8.3 1.3-9.7.9-1.5-.3-6.1-2.7-10.2-5.2-8.6-5.2-35.8-21-44.1-25.6-3-1.7-8.4-4.8-11.9-6.9-3.4-2.1-6.5-3.8-6.7-3.8s-2.7-1.4-5.6-3.2c-9.3-5.5-17.1-9.8-22.8-12.6-5.5-2.7-5.5-2.7-43.5-2.4-24.4.3-38.7.8-40 1.5-5.3 2.8-5.5 6.1-2 29.2 1.4 8.8 3.4 22.3 4.5 30 2.6 18.7 4.4 24.1 10.5 31.4 2.1 2.4 2.7 4.3 3 9.2.3 6.1 2.3 9.9 5.2 9.9.8 0 2.7.9 4.2 2.1 2.3 1.7 3.3 1.9 4.9 1 2.7-1.4 3.2-1.4 3.2.2 0 .8.9 2.2 2 3.2 2.8 2.6 2.7-.2-.2-3.2-1.7-1.8-1.9-2.6-1-3.5 1.6-1.6 1.5-4.3-.3-5.8-.9-.8-1.3-2.1-.9-3.5.8-3.3-2.2-7.5-5.5-7.5-3.2-.1-6.9-3.1-10.8-9-4.9-7.4-5.4-9.9-10.3-46.5-.6-4.4-1.5-10.9-2.1-14.5s-.9-8.5-.7-11c.3-4.5.3-4.5 4.8-5.1 2.5-.4 19.6-.6 38-.5 33.4.1 33.5.1 37.5 2.5 4.2 2.5 5.9 3.4 17 9.7 3.9 2.1 8.4 4.7 10 5.7 1.7 1 3.8 2 4.8 2.3.9.4 1.7 1 1.7 1.5s.5.9 1 .9c.6 0 4 1.8 7.6 4s6.8 4 7 4 7.2 4.1 15.6 9.1c8.4 5.1 16.9 10.1 18.8 11.1 1.9 1.1 5.8 3.3 8.5 4.9 6.6 3.7 11.5 4.4 19.7 2.6 8.3-1.7 9.4-1.3 23.8 6.9 10.2 5.9 15.6 8.9 25 14.2 2.5 1.3 7 3.9 10 5.7 18.1 10.6 23.8 14 26.5 15.5 1.7 1 8.6 5 15.5 9 6.8 4 13.8 8.1 15.5 9 1.6.9 7.7 4.6 13.5 8 5.8 3.5 13.4 8 17 10s10.6 6.1 15.5 9c13.4 7.8 15.4 9 22.5 13 21.4 12.1 21.8 12.4 34.5 29.5 4.9 6.6 9.2 12.2 9.5 12.5s1.7 2.1 3 4 12.4 16.8 24.6 33.1 22.7 30.6 23.4 31.8c2.7 5.1.7 7.9-18.3 26.7-17.3 17.1-18.7 18.2-29.2 23.7-6 3.1-13.2 7.1-16 8.7-4.5 2.6-5.7 2.9-11.4 2.5-5.3-.4-6.8-.1-9.5 1.7-1.7 1.2-3.2 2.2-3.4 2.3-.1.1-.4 1.7-.7 3.5-.2 1.8-1.3 3.9-2.4 4.7-1.2.8-2.1 2.1-2.1 2.9s-1.6 2.2-3.5 3.1-3.5 2-3.5 2.5c0 1.3 1.2 1 4.6-1.1 2.2-1.3 3.5-1.6 4.2-.9s2.1.6 4.5-.3c2.8-1 3.9-1 5 0 2.7 2.2 8.8-1.3 12.2-7.1 2.5-4.2 4.2-5.6 10-8.6 3.9-2 7.2-3.9 7.5-4.2s4.3-2.5 9-4.9c10.7-5.5 15.1-9.1 33-27.4 23-23.6 22.9-22.2 4.3-46.5-5.2-6.8-9.2-12.6-8.9-12.9s3.3-.1 6.6.4c6.1 1 7.5.2 4.8-2.5-1-1-.4-2 2.7-4.6l3.9-3.4-4.2-4.3-4.3-4.2-3.2 3.1c-3.7 3.6-5.2 4-6.1 1.6-1.3-3.3-2.4-.1-1.9 5.1 1 9.5.8 9.3-22.7-23-5.2-7.2-9.7-13.2-10-13.5s-3.8-5-7.7-10.5c-11.1-15.4-13.8-17.9-27.8-25.5-4.4-2.4-12.4-6.9-17.8-10.2-5.3-3.2-9.9-5.8-10.1-5.8s-5.6-3.2-12-7c-6.4-3.9-11.8-7-12-7-.3 0-4.1-2.3-8.6-5-4.5-2.8-8.3-5-8.4-5-.2 0-6.3-3.6-13.6-8-7.4-4.4-13.7-8.1-14.1-8.2-.9-.4-2.9-63.9-2.9-93.1 0-17.3-.3-24.7-1.1-24.7s-.9 14.7-.5 52.7m-208.6-39.3c2.2.8 10 4.9 17.3 9.2 7.4 4.2 16.3 9.4 19.9 11.4s8.5 4.9 11 6.3c2.5 1.5 8.3 4.8 13 7.4s8.7 5 8.8 5.5c.2.4.8.8 1.3.8s6.4 3.3 13.2 7.4c6.7 4 13.6 8.1 15.4 9 3.7 1.8 8.9 2.1 13 .5 1.5-.6 5.1-1.1 7.8-1.2 4.2 0 6.2.6 12.5 4.2 4.1 2.4 9.3 5.3 11.5 6.6 7.3 4 26.8 15.1 39.5 22.5 14.4 8.3 17.7 10.3 22.3 12.9 1.7 1 7.3 4.2 12.2 7.1 29.7 17.5 43.5 25.6 47.5 28 2.5 1.5 6.8 4 9.5 5.5 5.9 3.3 19.9 11.4 34.4 19.9 5.7 3.4 12.3 7.9 14.7 10.1s9.9 11.6 16.8 21c21.2 28.8 30 40.6 33.1 44.6 1.7 2.1 4.6 6 6.5 8.6s5.8 7.7 8.6 11.3c9.2 11.6 10.4 13.8 10.4 19.2 0 5 0 5-11.2 16.5-23.1 23.8-25.9 26.2-35.8 31.4-3.6 1.8-6.7 3.6-7 3.9s-3 1.8-6 3.4-7.4 3.9-9.8 5.2c-4.6 2.6-7.6 3.1-7 1.2.4-1.2 2.5-2.5 12.3-7.8 22.8-12.2 24.9-13.8 43.8-32.8 15.6-15.8 16.7-17.1 16.7-20.6 0-2-.5-4.7-1.1-5.9-1-2-8.7-12.5-9.9-13.7-.6-.5-32.1-42.7-35.3-47-8.5-12.1-25.9-34.9-27.8-36.6-2-1.8-13.8-9.2-26.4-16.4-17.3-10-28.1-16.3-33.9-19.8-3.7-2.3-7-4.2-7.2-4.2s-5-2.8-10.6-6.1c-5.7-3.4-11.7-7-13.4-7.9-1.7-1-6.4-3.8-10.5-6.2-16.2-9.7-30.7-18.3-37.1-22-3.8-2.1-10.1-5.7-14-7.9-4-2.3-10.2-5.7-13.8-7.7-3.6-1.9-9.8-5.5-13.8-7.9s-10-5.8-13.4-7.5c-6-3-6-3-13.9-1.3-7.4 1.6-12.9 1.4-15.4-.5-.5-.4-3.5-2.1-6.5-3.7s-11.6-6.6-19-11c-12.2-7.3-28.1-16.4-40-23.1-4.5-2.4-9.9-5.6-21.5-12.4-13.4-7.9-9.4-7.3-47-7.6-18.7-.2-35.8-.1-38.1.3-7.4 1.1-7.6 3.6-2.7 35.5.8 5.2 1.9 13.1 2.4 17.5 1.9 16.4 3.9 22.7 9.6 30.2 2.4 3.1 2.4 5.3 0 5.3-1.2 0-3.9-3.8-7.7-10.5-1-1.8-2.4-6.2-3-9.7-.6-3.4-1.5-8.6-2-11.3-.5-2.8-1.4-8.4-2-12.5-2.1-15.8-4.1-28.4-4.5-29-.2-.4-.5-3.9-.7-7.9-.4-11.7-2.8-11.1 42.3-11.1 29.9 0 38.5.3 41.7 1.4M404 425.9c0 1.3-5 4.4-5.8 3.6-.4-.4.4-1.5 1.7-2.6 2.5-2 4.1-2.4 4.1-1m6.5 1.1c.3.5.1 1-.4 1-.6 0-1.1-.5-1.1-1 0-.6.2-1 .4-1 .3 0 .8.4 1.1 1m-2.5 1.2c0 1.5-6.5 5.9-7.4 5.1-1.2-1.3-.5-2.4 2.7-4.3 3.7-2.3 4.7-2.5 4.7-.8m4 2.8c0 .5-.9 1-2.1 1-1.1 0-1.7-.5-1.4-1 .3-.6 1.3-1 2.1-1s1.4.4 1.4 1m-7.7 4.5c-1.5 1.9-3 3-3.2 2.3-.2-.6.8-2.2 2.3-3.5q5.7-4.95.9 1.2m-4.3-.5c0 .5-.4 1-1 1-.5 0-1-.5-1-1 0-.6.5-1 1-1 .6 0 1 .4 1 1m7.7 1c-1.4 1.1-2.9 2-3.3 2s.1-.9 1.1-2 2.5-2 3.3-2c.9 0 .6.7-1.1 2m2.3 3c-2.1 1.8-3.7 2.5-3.9 1.8-.5-1.4 3.5-4.8 5.8-4.8 1.1 0 .5 1-1.9 3m2.1 2.1c-1.3 1.1-2.7 1.7-3 1.4-.3-.4.5-1.5 1.9-2.5 3.2-2.4 4.2-1.4 1.1 1.1m364 231.8c-3.6 3.3-3.7 3.8-1.5 7 1.4 2 2.2 2.2 5.7 1.7 3.5-.6 3.9-.5 2.7.9-.7.8-2.5 1.5-4.1 1.5-2.2 0-3.4-.8-4.9-3.3-3.5-5.7-2.2-10.7 2.8-10.7 2.4 0 2.4 0-.7 2.9m7.9-.1c0 1 .5 2.3 1.2 3 2 2-.1 2.6-2.2.7-2.3-2.1-2.7-5.5-.5-5.5.8 0 1.5.8 1.5 1.8m-4 1.6c0 .7.7 1.9 1.5 2.6 1.5 1.2 1.2 3-.5 3-1.5 0-4.3-4.8-3.5-6 .9-1.5 2.5-1.2 2.5.4m-10 1.8c0 1.6-.3 1.9-1.1 1.1-.6-.6-.8-1.6-.5-2.2 1.1-1.7 1.6-1.3 1.6 1.1m7.7 4.5c-.8.8-3.8-3.7-3.2-4.7.5-.7 1.2-.1 2.1 1.6.8 1.5 1.3 2.9 1.1 3.1m-5.3-.1c.9 2.4.7 3.4-.8 3.4-1.3 0-2.6-2-2.6-4.1 0-1.5 2.7-1 3.4.7m-6.4 3.9c0 .3-.2.5-.5.5s-.5-.2-.5-.5.2-.5.5-.5.5.2.5.5m10.5.5c.3.5-.1 1-.9 1-.9 0-1.6-.5-1.6-1 0-.6.4-1 .9-1 .6 0 1.3.4 1.6 1"/><path d="M533.7 427.8c-3.7 4-.7 10.3 4 8.5 3.8-1.4 4.4-5.2 1.3-8.3-2.5-2.5-3.2-2.5-5.3-.2m5.1 3.9c.3 1.9-.1 2.3-2.2 2.3s-2.6-.5-2.6-2.6.4-2.5 2.3-2.2c1.4.2 2.3 1.1 2.5 2.5"/><path d="M519 428.5c-1.1 1.3-1.1 5.3.1 9.5.3 1.3-1.4 1.5-10.8 1.8l-11.3.3v23.7l6.3.4c3.4.2 23.4.5 44.5.6l38.3.4-.3-12.4-.3-12.3-13.8-.3c-12.7-.2-13.8-.4-13.1-2 1.6-3.7 1.6-8.8 0-10.1-1.4-1.2-1.5-1-1 1.7.4 1.7.3 4.7 0 6.7l-.7 3.6-17.9-.2c-17.8-.1-17.8-.1-18.5-3.6-.3-1.9-.3-4.8 0-6.4.7-3.2.3-3.6-1.5-1.4m64.7 21.5c.1 4.1 0 8.7-.3 10.2-.5 2.6-.5 2.6-10.7 2.4-5.6-.2-24.5-.4-41.9-.5L499 462v-20.2l42.3.4 42.2.3z"/><path d="M507.6 449c-2.8 5.4-2.7 7 .5 7 1.6 0 1.9.5 1.4 2-.4 1.3-.2 2 .8 2s1.3-1.7 1.2-7.5c-.1-4.1-.4-7.8-.7-8-.3-.3-1.7 1.7-3.2 4.5m2.4 2.4c0 .8-.4 1.8-1 2.1-.5.3-1-.3-1-1.4 0-1.2.5-2.1 1-2.1.6 0 1 .6 1 1.4M518.9 444.7c-.1.5-.1 1.2 0 1.7.7 3.8.7 10.7 0 11.2-1.6 1-.9 2.4 1.2 2.4 1.5 0 1.9-.4 1.5-1.6-.3-.9-.6-4.5-.6-8 0-3.6-.4-6.4-1-6.4-.5 0-1.1.3-1.1.7M539.7 445.4c-.8 2 .4 2.8 2 1.5 1-.9 1.3-.7 1.3.9 0 1.2-.5 2.4-1.1 2.7-.7.5-.5 1.3.7 2.6 2.1 2.3 1.2 5.8-1.1 3.9-1.9-1.6-2.8-.9-1.9 1.4.9 2.4 3.9 1.9 5.2-1 .9-1.8.9-3.1.2-4.5-.6-1.1-.8-2.4-.5-3 .4-.5.4-2.1.1-3.5-.7-2.6-4-3.3-4.9-1M550.4 446.2c-1.1 3.5-.8 11.8.5 13.1 1.7 1.7 4.5-.5 4.9-3.9.3-2.1-.3-3.4-2.2-4.9s-2.3-2.4-1.6-3.5c.9-1.3 1.1-1.3 1.9 0 1.2 1.8 2.6.7 1.8-1.5-.9-2.3-4.5-1.8-5.3.7m3.6 8.8c0 3.2-1.4 4-2.4 1.4-1-2.7-.7-4.4.9-4.4q1.5 0 1.5 3M561.2 446c-1.5 2.4-1.6 9.4-.2 12.1 3.4 6.2 7.9-4.1 5-11.5-1.1-3.1-3.1-3.3-4.8-.6m3.6 4.4c.4 3.6-.5 7.6-1.8 7.6-.6 0-1-2.5-1-5.6 0-4 .4-5.5 1.3-5.2.6.3 1.3 1.7 1.5 3.2M528.2 452.2c.7 2 5.8 2.3 5.8.4 0-1.1-1-1.6-3.1-1.6q-3 0-2.7 1.2M522 431.5c0 2.5.5 4.5 1 4.5.6 0 1-.9 1-2s.3-2 .8-2c.4 0 1.3.9 2 2 2 3.2 3.2 2.3 3.2-2.5 0-2.5-.4-4.5-1-4.5-.5 0-1 1.2-1 2.7-.1 2.8-.1 2.8-1.6 0-2.3-4.3-4.4-3.5-4.4 1.8M551.3 427.7c-.7.2-1.3 1.2-1.3 2.1 0 1.2.3 1.3 1.2.4 1.6-1.6 2.8-1.5 2.8.1 0 .7-.9 1.8-2 2.5-2.8 1.7-2.6 4.2.4 4.2 1.4 0 2.8-.5 3.1-1 .3-.6.1-1-.4-1-.6 0-1.1-.7-1.1-1.5s.5-1.5 1-1.5c1.6 0 1.1-3.7-.6-4.4-.9-.3-1.6-.6-1.7-.5-.1 0-.8.3-1.4.6M542 435c0 .5.5 1 1 1 .6 0 1-.5 1-1 0-.6-.4-1-1-1-.5 0-1 .4-1 1M445.5 442c-1.6 1-3.8 1.9-4.8 1.9-2 .1-8.1 3.2-18.2 9.4l-7 4.2-1 10.5c-.5 5.8-1.4 11.1-1.9 11.8-1.3 2 .1 2.6 1.9.8.9-.9 2.1-1.6 2.6-1.6s1.4-1.1 1.9-2.5c.9-2.5 3-3.5 3-1.5 0 1.9 5.7-1.9 6.3-4.2.5-1.7.9-2 1.8-1.1 1.6 1.6 6.9-1.6 6.6-4.1-.1-1.3 1.3-2.8 4.5-4.7 4.8-2.8 4.8-2.8 9.8-.1 5.7 3.1 7 2.4 7-3.6 0-3.2 0-3.2 18.5-3.2 11.7 0 18.5-.4 18.5-1s-6.7-1-18-1c-18 0-18 0-18-2.9 0-1.6-.6-3.3-1.2-3.9-1.4-1.1-8.7-5.2-9.1-5.1-.1 0-1.5.9-3.2 1.9m8.2 3.2c3.5 2.1 3.5 2.1 2.8 8.2-.3 3.3-.9 6.4-1.1 6.8-1.1 1.7-2.3-.4-1.8-3 .4-1.9 0-3.2-.9-4.1-1.3-1-1.8-.8-3.1 1.6-1.6 3-1.9 2.7-1.7-2.7.2-4.5 1.1-9 1.8-9 .3 0 2.1 1 4 2.2m-7.1 1.9c-.3 1.7-.6 4.5-.6 6 0 2.2-.8 3.4-3.2 4.9-5.3 3.2-5.6 2.8-3.7-5.9.8-3.9 1.7-5.4 3.7-6.5 4-2.1 4.5-1.9 3.8 1.5m-9.3 6.1c-.3 3.5-.9 7.2-1.4 8.4-.4 1.2-4.9 4.6-10.1 7.7-9.3 5.6-9.3 5.6-9.6 2.9-.4-3.1 1.9-5.2 5.7-5.2 4.3 0 12.1-6.2 12.1-9.5 0-3-5.5-1.7-10.3 2.5-5.3 4.7-6.7 5-6.7 1.2 0-2.5 1.1-3.4 9.8-8.4 5.3-3.1 10-5.7 10.4-5.7.4-.1.5 2.7.1 6.1m14.4 3.5c-.4.3-.7 0-.7-.7s.3-1 .7-.7c.3.4.3 1 0 1.4m-19.7 1.9c0 1-5.3 5.3-7.3 6-3.4 1.1-3.2-.8.3-3.7 3.1-2.6 7-3.9 7-2.3"/><path d="M450.6 446.9c-.8 1.3 2 4.5 3.3 3.7.8-.5.8-1.3.1-2.7-1.1-2-2.5-2.5-3.4-1M442.2 462.2c-1.7 1.1-3 2.4-2.7 2.9.6.9 7.5-3.1 7.5-4.4 0-1.1-1.2-.7-4.8 1.5M450 477c-1.2 1.6-2.9 3-3.8 3-.8 0-3.5.9-5.8 2-3.6 1.8-4.3 2.7-5.3 6.5-.6 2.4-1.1 6.4-1.1 8.8 0 3.7.5 4.8 2.5 6.1 3.2 2.1 4.5 1.3 4.5-2.5 0-2.4.4-2.9 2.5-2.9 1.6 0 4.2-1.5 6.9-4 4.3-4 4.3-4 24.5-4 11.7 0 20.1-.4 20.1-.9 0-.6-9.4-1.1-22.2-1.3-21.9-.3-22.4-.3-25.1 1.9-3.7 3-5.9 3-5.5.1.2-1.4 1.4-2.5 3.5-3.2 4.2-1.4 9.5-7.2 9.1-9.9-.5-3.2-2.4-3.1-4.8.3m-1.6 6.5c-2 1.5-5.4 2-5.4.7.1-1.1 6.4-3.8 6.9-2.9.1.5-.5 1.5-1.5 2.2M442 485c0 1.2-2.8 2.5-3.6 1.7-.9-.9.6-2.7 2.2-2.7.8 0 1.4.5 1.4 1m-2 9.4c0 5.5-1.1 8.3-2.9 7.2-1.1-.7-1.5-9.3-.5-12 .3-.8 1.2-1.2 2-.9 1 .3 1.4 2.1 1.4 5.7m12-4.9c0 .3-.2.5-.5.5s-.5-.2-.5-.5.2-.5.5-.5.5.2.5.5m-3 3.5c0 1.2-3.3 3-5.4 3-2.3 0-2-1.4.7-2.6 2.9-1.5 4.7-1.6 4.7-.4M497.7 476.6c-.4.4-.7 5.8-.7 12.1 0 8.2.3 11.5 1.3 11.8 1.9.6 80.9 1.1 84 .5 2.9-.5 2.9-.5 2.9-11.7-.1-6.2-.3-11.7-.6-12.2-.7-1.1-85.8-1.6-86.9-.5m84.1 2.9c.1.1.3 4.4.5 9.6l.2 9.4-41.2.1-41.3.2v-20.4l40.8.4c22.4.2 40.8.5 41 .7"/><path d="M507.8 485.4c-2.8 5.6-2.7 6.6.4 6.6 1.5 0 1.8.5 1.3 2-.5 1.4-.2 2 .9 2 1 0 1.6-.9 1.7-2.3.2-5.3-.3-12.3-1-12.9-.4-.5-1.9 1.6-3.3 4.6m2.2 3.1c0 .8-.4 1.5-1 1.5-.5 0-1-.7-1-1.5s.5-1.5 1-1.5c.6 0 1 .7 1 1.5M517.7 480.7c-1.6 1.5-.7 3.4 1.3 2.8 2.4-.8 2.6.7.4 2.9-1.4 1.5-1.4 1.7 0 2.2.9.3 1.6 1.7 1.6 3 0 2.8-1.5 3.2-2.4.7-.5-1.2-1-1.3-1.8-.5s-.8 1.5.2 2.7c1.7 2 4.7 1.9 5.4-.3.6-2.1 0-11.8-.9-13.2-.7-1.1-2.8-1.3-3.8-.3M539.3 482c-3.1 4.9-.7 15.9 3.1 14.4 3.2-1.2 1.9-10.4-1.4-10.4-.6 0-1-.7-1-1.6 0-1.1.6-1.4 2.1-.9 1.7.6 2 .3 1.7-1.1-.5-2.6-3.1-2.8-4.5-.4m3.2 9.5c0 1-.6 2-1.2 2.2-.8.3-1.3-.5-1.3-2.2s.5-2.5 1.3-2.3c.6.3 1.2 1.3 1.2 2.3M549.6 481.6c-.9 2.4-.8 2.6 1.4 1.9 2.3-.7 2.8 1.3.8 3.3-.9.9-.9 1.5 0 2.4 1.4 1.4 1.6 4.8.2 4.8-.5 0-1.3-.7-1.8-1.6-.7-1.2-1.1-1.3-1.7-.4-.4.7.1 2.1 1.4 3.4 2.2 2 2.2 2.1 3.6.2 1.5-1.9 1.5-12.2.1-14.5-1-1.6-3.3-1.3-4 .5M559.7 482.2c-.9 3.5.3 6.8 2.4 6.8 1.4 0 1.9.7 1.9 2.6 0 2.3-.3 2.5-2.5 2-2.7-.7-3.2.3-1.3 2.2 1.6 1.6 2.3 1.5 4.2-.4 2.4-2.3 1.9-6-.9-8.2-3-2.4-3.2-4.2-.5-4.2 1.1 0 2-.7 2-1.5 0-2.5-4.7-1.9-5.3.7M527 489c0 .5 1.6 1 3.5 1s3.5-.5 3.5-1c0-.6-1.6-1-3.5-1s-3.5.4-3.5 1M389.3 484.9c-1.8 1.5-3.3 3.3-3.3 3.9 0 .8-4.5 1.2-14.7 1.4-19.7.4-19.6 2.2.1 2.3 14.9 0 14.9 0 16.5 2.9 2.5 4.5 4.3 5.2 9.3 3.6 5.6-1.7 7-3.4 5.7-6.8-1.3-3.5-.6-4.8 3.5-6.7 2-1 3.6-2.1 3.6-2.6 0-1.6-2.3-.9-5.7 1.7s-3.4 2.6-5.4 0c-2.6-3.3-5.6-3.2-9.6.3m9.1 2.2c2.4 2.8 4.4 7.5 3.5 8.3-.2.2-1.4.7-2.6 1-2.6.8-3.3-1.1-.8-2 2.2-.9 1.8-2.4-.6-2.1-2.8.3-5-3-2.9-4.3.8-.5 1.1-1.2.7-1.6-.3-.4-1.3-.2-2 .4-1.6 1.4-2.8.6-2-1.4.9-2.3 4-1.6 6.7 1.7m-4.6 5.7c2.1 3.7 2.1 4.3.8 4.8-.9.3-2.4.3-3.3-.1-1.7-.8-1.7-.8 0-1.2.9-.3 1.7-1.1 1.7-1.8 0-.9-.7-1.2-1.7-.9-1.5.5-1.6.4-.3-.5 1.2-.8 1.2-1.3.2-2.3s-1.5-1-2.2.2c-1.1 1.8-2.5.6-1.6-1.5 1-2.7 3.9-1.2 6.4 3.3M263 487c-1.4 2.6.3 6 3 6 1.1 0 2 .4 2 .9 0 1.4-2.8 3.3-4 2.6-.5-.3-1-.1-1 .4 0 1.7 4.7 1.3 5.4-.5 2.6-6.7-2.3-15.2-5.4-9.4m4.5 1c.8 1.3-1.4 4.2-2.6 3.4-.5-.3-.9-1.4-.9-2.5 0-2 2.4-2.6 3.5-.9M273.2 486.2c-2.1 2.1-1.4 5.4 1.4 6.6 2.8 1.3 2.4 3.2-.7 3.2-1.1 0-1.7.4-1.4 1 1 1.6 4.2 1.2 4.9-.6 1.6-4.2.1-11.4-2.4-11.4-.3 0-1.1.5-1.8 1.2m3.4 1.9c.8 1.4-1.1 3.3-2.5 2.5-1.1-.7-.4-3.6.9-3.6.5 0 1.2.5 1.6 1.1M283.3 485.7c-.7.2-1.3 1.8-1.3 3.5 0 2.2.6 3.1 2 3.5 2.5.7 2.2 3.9-.3 3.5-.9-.2-1.7.2-1.7.8 0 1.4 3.3 1.3 4.8-.2s1.6-7.2.2-9.9c-1.1-1.9-1.6-2.1-3.7-1.2m2.7 3.9c0 1.6-1.6 1.9-2.5.4-.8-1.3.4-3.2 1.6-2.5.5.4.9 1.3.9 2.1M301.2 486.2c-1.3 1.3-1.6 7.5-.6 10.2 1 2.5 4.3 1.9 5-.9s-1-5.5-3.3-5.5c-.8 0-1.3-.6-1-1.3.2-.6 1.4-1.1 2.6-.9 1.5.1 2.1-.3 1.9-1-.6-1.8-3.1-2.1-4.6-.6m3.4 6.9c1 1.7-1.3 3.6-2.7 2.2-1.2-1.2-.4-3.3 1.1-3.3.5 0 1.2.5 1.6 1.1M320 486.9c-2.1 4-.5 11.1 2.5 11.1.8 0 1.9-.9 2.5-1.9 2.1-4 .5-11.1-2.5-11.1-.8 0-1.9.9-2.5 1.9m3.8 4.9c.2 3.3 0 4.2-1.2 4.2s-1.6-1.1-1.6-4.6c0-5.9 2.4-5.5 2.8.4M328.9 487.3c-.8 1.7-.8 3.5.1 6.5 1.1 4.3 2.9 5.3 5 2.7 1.7-2 .9-4.8-1.8-6-3.2-1.4-2.9-3.9.4-3.1 1.9.5 2.5.3 2.2-.6-.8-2.4-4.7-2.1-5.9.5m4.1 6.8c0 2.4-2.3 2.1-2.8-.4-.2-1 .3-1.7 1.2-1.7 1 0 1.6.9 1.6 2.1M339 486.9c-1.4 2.7-1.2 7.2.4 9.3 1.7 2.3 3.3 2.3 4.6-.1 2.1-4 .5-11.1-2.5-11.1-.8 0-1.9.9-2.5 1.9m4 4.7c0 3.2-.4 4.4-1.2 4.2-1.4-.5-2.3-5.1-1.4-7.4 1.1-3 2.6-1.2 2.6 3.2"/><path d="M349.1 486.9c-2.2 3.9-.2 11.5 2.8 10.9 1.8-.4 3-6 2.1-9.8-.7-3.1-3.5-3.8-4.9-1.1m3.7 4.9c.2 3.3 0 4.2-1.2 4.2s-1.6-1.1-1.6-4.6c0-5.9 2.4-5.5 2.8.4M292.3 488.1c.4 1.3.7 3.6.7 5.1 0 1.6.5 2.8 1.1 2.8 1.6 0 .7-9.3-1-9.8-1-.4-1.2.1-.8 1.9M312.3 492.7c.9.2 2.3.2 3 0 .6-.3-.1-.5-1.8-.5-1.6 0-2.2.2-1.2.5M452 497c0 .8.9 2.6 2 4 1.3 1.7 2 2 2 1 0-.8-.9-2.6-2-4-1.3-1.7-2-2-2-1M458 505.5c0 .5 1.1 2.3 2.5 4 1.3 1.6 2.4 2.5 2.5 1.8 0-.7-1.1-2.5-2.5-4-1.3-1.5-2.4-2.4-2.5-1.8M462.8 513.9c-3.1 2.8-3.1 2.8-1 5.9 1.2 1.6 1.9 3.7 1.6 4.5-.6 1.7 1.2 5.7 2.5 5.7s14.4 13.8 21.4 22.5c8.7 10.8 16.7 18 26.2 23.5 16 9.2 23.6 18.8 29.4 37.1 3.1 9.8-.1 20.4-7.4 24.4-5 2.7-15.1 5.8-16.3 5.1-.6-.3-2.4-.1-4.2.5-2.3.9-3.4.9-4.3 0-.6-.6-2.2-1.1-3.6-1.1-2.8 0-9.1 3.4-9.1 4.9 0 .5-1 1.1-2.2 1.3-1.4.2-2.9 1.5-3.8 3.5-1 2.1-2.5 3.4-4.2 3.8-1.5.4-3 1.1-3.3 1.6-.9 1.3 3.9 1.1 5.3-.3.9-.9 1.6-.7 2.9.9 1.5 1.6 3.1 2 8.3 2 6.4.1 13-1.7 13-3.5 0-1 14.3-6.9 19-7.9 3-.6 3-.6 3 14.1v14.7l-18.2-.2h-22l-3.8.1v25l43.8-.2 43.7-.3.3-12.3.3-12.2H538v-15.5c0-12.5.3-15.5 1.4-15.5 2.2 0 9.3-7.3 11.1-11.5 2.1-4.9 2.4-16.7.5-24.5-1.7-7.4-7.9-19.1-14.1-26.8-5.3-6.6-12.5-12.2-23.1-18.2-10.4-5.9-24.8-21.3-30.3-32.5-1-2.2-2.7-5.2-3.7-6.7-1-1.4-1.8-3.5-1.8-4.5 0-2.3-3-5.3-5.2-5.3-.9 0-2.3-1.1-3.2-2.5-2.1-3.2-2.9-3.1-6.8.4m3.2 2.6c-.7.9-1.5 1.3-1.9 1-.3-.3.1-1 .9-1.5 2.1-1.4 2.4-1.2 1 .5m2.1 2.6c-1.3 1.1-2.7 1.7-3 1.3-.7-.7 2.8-3.4 4.3-3.4.6.1 0 1-1.3 2.1m1.9 3.4c-2.4 2-4.4 3.4-4.7 3.2-.8-.9.9-3.4 3.5-5 4.8-2.9 5.5-1.8 1.2 1.8m7.8 3.5c.1.8-1.2 2.4-3 3.5-4.8 2.9-4.8 2.9-4.8.1 0-4.2 7-7.5 7.8-3.6m.1 7.9c-1.3 1.1-2.6 1.8-2.8 1.5-.7-.7 2.1-3.4 3.6-3.4 1 0 .8.6-.8 1.9m4.1 2.5c0 .3-.4.8-1 1.1-.5.3-1 .1-1-.4 0-.6.5-1.1 1-1.1.6 0 1 .2 1 .4m5.3 5.5c1.5 2.2 2.7 4.2 2.7 4.5s1.8 2.3 4 4.5 4 4.4 4 5c0 .5.8 1.2 1.8 1.5 2.7.9 11.3 9.1 10.5 10.1-.5.4-.1.6.8.3 2.2-.8 7.9 1.8 7.9 3.6 0 1 .6 1.3 1.5.9 1-.3 1.5-.1 1.3.8-.2.7.6 1.3 1.8 1.3 3.6.1 11.9 8.7 19.3 20.1 2.3 3.6 3 5.7 2.6 7.5s-.3 2.1.4 1c.9-1.3 1-1.3 1.4 0 2.4 7.9 3.3 13.7 3.2 20-.3 9.3-.3 9.2-1.3 8.6-.5-.3-1.3 1.5-2 3.8-.7 2.6-1.9 4.6-2.9 4.9s-3.8 1.8-6.3 3.3c-2.6 1.5-4.6 2.2-4.8 1.5-.2-.6-1.2-.2-2.5.9-1.4 1.4-2.3 1.7-2.8.9s-1.4-.5-3 1c-2.4 2.2-5.9 2.5-6.6.6-.5-1.6 13-8 14.7-7 .6.3 1 .2 1-.3 0-.4 1.6-1.6 3.5-2.5 2-.9 4-2.8 4.7-4.2 1-2.3 1.2-2.3 2.4-.7s1.3 1.5 1.4-.5c0-1.2-.5-2.5-1-2.8-.7-.4-.6-1.3.1-2.7.7-1.3.8-4.1.4-7.4-.5-4.1-.3-5.4.7-5.4.9-.1.9-.4-.3-1.3-1.4-1.1-3.2-5.5-3.4-8.3 0-1.2-2.6-6.5-3.5-7.4-1.2-1.2-3-5.1-3-6.5 0-.8-.6-1.5-1.2-1.5-2.3-.1-5-4.9-4.4-7.6.4-1.4.2-2.4-.4-2.4s-.9.3-.7.7c.3.5-.2 1.4-1 2.2-1.3 1.2-1.5 1.2-1.1 0 .6-1.8-1.3-3.8-3.1-3.1-.8.3-1.2.1-.8-.5s.1-1.6-.7-2.2c-1.1-.9-1.5-.9-1.9.1q-.6 1.35-.6-.3c-.1-1-1-1.5-2.3-1.5-1.7.1-2.2-.4-2-1.7.3-1.9-1.4-2.3-2.1-.5q-.6 1.2-.6-.3c-.1-1-.9-1.6-1.8-1.5-1 0-1.7-.5-1.5-1.2.1-.8-.2-1.1-.8-.7-1.5.9-8.2-4.4-7.4-5.7.5-.7.1-.9-.9-.5-1.1.4-1.7.1-1.7-.7 0-.7-1.1-1.9-2.5-2.6s-2.5-1.7-2.5-2.2c0-.4-1.6-2.5-3.6-4.5-2-2.1-4.7-5.4-6-7.5-1.3-2-2.8-3.9-3.4-4.3-.8-.5-.8-1.1.1-2.1 1.8-2.2 3.2-1.6 6.2 2.5m19.4 103.5c-1 .8-2.2 2.7-2.7 4.3-.8 2.8-.8 2.8-.9-.3-.1-3.3 1.4-5.4 3.9-5.4 1.2.1 1.2.3-.3 1.4m-4.7 1.1c0 .3-.2.5-.5.5s-.5-.2-.5-.5.2-.5.5-.5.5.2.5.5m12.7 2.5c.9 2.4.9 3-.2 3-1.3 0-2.5-2.1-2.5-4.6 0-2.4 1.5-1.5 2.7 1.6m-3.4.7c.3 1.6.3 3 .1 3.3-.7.7-2.4-2.3-2.4-4.3 0-2.7 1.7-2 2.3 1m6.1-1.2c.3.8.1 1.5-.4 1.5-.6 0-1-.7-1-1.5s.2-1.5.4-1.5.6.7 1 1.5m-9.4 2.7c0 2.5-.3 2.9-1 1.8-1.3-2-1.3-5 0-5 .6 0 1 1.5 1 3.2m-6 .4c1.4 3.5 1.3 4.4-.5 4.4-1.7 0-3.9-4.6-2.9-6.1 1-1.6 2.4-.9 3.4 1.7m-5 3.7c0 .5-.4.5-1 .2-.5-.3-1-1.4-1-2.3 0-1.5.2-1.5 1-.2.5.8 1 1.9 1 2.3m-3.2.2c-.3.3-.9-.2-1.2-1.2-.6-1.4-.5-1.5.5-.6.7.7 1 1.5.7 1.8m11.2-2c0 .3-.2.5-.5.5s-.5-.2-.5-.5.2-.5.5-.5.5.2.5.5m4.1 3.3c-.7.2-1.8-.1-2.3-.6-.8-.8-.4-.9 1.3-.5 1.3.4 1.8.8 1 1.1m-3.4.9c-.4.3-1 .3-1.4 0-.3-.4 0-.7.7-.7s1 .3.7.7m45.1 21.2 26.2.1v21h-82v-20.9l12.8-.3c7-.2 13.6-.2 14.7-.1s13.8.2 28.3.2"/><path d="M504 565c0 .7.3 1 .7.7.3-.4.3-1 0-1.4-.4-.3-.7 0-.7.7M514 570.5c0 .3.2.5.5.5s.5-.2.5-.5-.2-.5-.5-.5-.5.2-.5.5M524.5 577c.3.5 1.1 1 1.6 1 .6 0 .7-.5.4-1-.3-.6-1.1-1-1.6-1-.6 0-.7.4-.4 1M531.3 584.7c.4.3 1 .3 1.4 0 .3-.4 0-.7-.7-.7s-1 .3-.7.7M540 595.1c0 .5.5.7 1 .4.6-.3 1-.8 1-1.1 0-.2-.4-.4-1-.4-.5 0-1 .5-1 1.1M543 598.5c0 .3.2.5.5.5s.5-.2.5-.5-.2-.5-.5-.5-.5.2-.5.5M544.3 606.7c.4.3 1 .3 1.4 0 .3-.4 0-.7-.7-.7s-1 .3-.7.7M545 610.5c0 .3.2.5.5.5s.5-.2.5-.5-.2-.5-.5-.5-.5.2-.5.5M546 629c0 .7.3 1 .7.7.3-.4.3-1 0-1.4-.4-.3-.7 0-.7.7M543 638c0 .7.3 1 .7.7.3-.4.3-1 0-1.4-.4-.3-.7 0-.7.7M529 644.5c0 .3.2.5.5.5s.5-.2.5-.5-.2-.5-.5-.5-.5.2-.5.5M514 680.5c-.5 11.5-.2 17 1 17 1 0 1.3-1.9 1.1-8-.1-4.4-.7-8.4-1.2-9q-.9-.9-.9 0M534.2 681.2c-1.8 1.8-1.4 3.1.8 2.5 2.4-.6 2.7 1.5.5 3.6-1.3 1.3-1.2 1.7.8 3 1.9 1.2 2 1.6.8 3.1-1.3 1.5-1.5 1.5-2.7-.1-1.2-1.7-1.3-1.6-1.4.4 0 1.2.9 2.7 2 3.3 2.7 1.5 3.9-1.1 3.8-8.5-.2-7.6-1.8-10.1-4.6-7.3M544.6 682.2c-.9 1.2-1.3 3.2-1 4.4s.1 3-.4 4.1c-1.2 2.2 0 5.8 2.3 6.7 3.1 1.2 4.4-1.1 4.3-8.2 0-8.8-2-11.5-5.2-7m3.4 2.8c0 2.5-1.8 3.6-2.6 1.6-.8-2.1.3-4.9 1.6-4.1.5.3 1 1.5 1 2.5m0 7.6c0 3.1-2.3 2.8-2.8-.4-.2-1.5.2-2.2 1.2-2.2 1.1 0 1.6.9 1.6 2.6M555.6 682.1c-2.2 3.2-2.1 11.1.2 13.9 1.7 2.1 1.9 2.1 3.2.5 2.1-2.5 2-13-.1-15.1-1.5-1.5-1.8-1.4-3.3.7m3 3.4c.8 3.1-.3 9.5-1.6 9.5-.6 0-1-2.7-1-6 0-6.1 1.4-8.1 2.6-3.5M502.7 685.8c-2.8 5.3-2.8 7.2-.2 7.2.7 0 1.5.9 1.7 2 .4 2.5 2.3 2.7 2.3.2 0-.9.4-2.3.8-3 .5-.7.4-1.2-.2-1.2-.5 0-1.1-2.4-1.3-5.3l-.3-5.2zm1.3 3.2c0 .5-.5 1-1.1 1-.5 0-.7-.5-.4-1 .3-.6.8-1 1.1-1 .2 0 .4.4.4 1M522.5 689c-.4.6.8 1 3 1s3.4-.4 3-1c-.3-.6-1.7-1-3-1s-2.7.4-3 1M380 533.9c-1.4 2.7-1.3 7.4.3 9.4 1 1.5 1.2.7 1.2-4.8 0-3.6-.1-6.5-.2-6.5s-.7.9-1.3 1.9M383.7 532.7c-1.1 1-.8 8.1.3 8.8.6.4 1-.6 1-2.2.1-2.8.1-2.8 2.3-.1 1.3 1.6 2.6 2.8 3 2.8s.7-2.3.7-5.1c0-3.1-.4-4.8-1-4.4-.5.3-1 1.8-1 3.3 0 2.7 0 2.7-2.1-.6-2.3-3.5-2.3-3.5-3.2-2.5M393.5 534.6c-1.5 2.3-1.5 2.7 0 5 2.7 4.1 8.5 2.7 8.5-2.1 0-2.5-2.9-5.5-5.2-5.5-.9 0-2.3 1.2-3.3 2.6m6.3 2.7c.3 2.3 0 2.7-2.1 2.7-2.9 0-4.3-2.6-2.6-4.7 1.8-2.1 4.4-1.1 4.7 2M418.5 538.5c0 4.3.3 6.1 1 5.4.6-.6 1-3 1-5.4s-.4-4.9-1-5.4c-.7-.7-1 1.1-1 5.4M412.1 533.9c-1.1.7-1.1 1 .2 1.7.8.5 1.4 1.8 1.3 2.9 0 1.1.3 2.1.8 2.3 1.3.3 1.4-7 .1-7.4-.5-.2-1.6 0-2.4.5M859.8 538.3c-3 2.5-5.8 7.6-5.8 10.5 0 3.6 2.9 9 6 11.2 3.8 2.7 10.7 2.9 14.5.4 7.4-4.8 7.3-16.5-.1-22.3-3.7-2.9-11-2.9-14.6.2m14.5 1.7c3 2.4 4.6 7.2 3.9 11.8-1.3 8.9-14.2 12-19.7 4.7-4-5.2-3.2-12.7 1.9-16.7 3-2.5 10.6-2.4 13.9.2"/><path d="M863.3 544.7c-2.6 1-1.2 1.9 2.2 1.5 1.9-.2 3.5 0 3.5.5s-1.6 1.5-3.5 2.2c-2.7.9-3.5 1.8-3.5 3.7 0 2.4.2 2.5 5.3 2.1 5.2-.5 5.2-.5 4.9-3.8-.6-5.1-1.9-6.9-5-6.8-1.5 0-3.3.3-3.9.6m6.5 6.5c-.3.7-2 1.4-3.8 1.6-3 .3-3.2.2-2.1-1.2 1.6-1.9 6.5-2.2 5.9-.4M404 541c0 .5.5 1 1.1 1 .5 0 .7-.5.4-1-.3-.6-.8-1-1.1-1-.2 0-.4.4-.4 1M356.2 547.8c-.9.6-1.2 3.8-1 12.3l.3 11.4 20.8.3 20.7.2v24.9l7.8 9.3c4.2 5.1 8.7 10.4 9.8 11.8 1.9 2.2 12.8 15 18.8 22 5 5.9 9.6 11.9 9.6 12.4 0 .3-2.8 2-6.2 3.7-9.2 4.6-9 4.3-6.2 10.2 2.9 6.2 3 7.7.6 7.7-1 0-2.7.7-3.8 1.5-1.7 1.2-1.7 1.4-.2 1.5.9 0 2.8-.4 4.3-1 5.6-2.1 3.8 5.8-2 8.6-3.7 1.7-3.7 1.7-3.3 10 .3 8.3.3 8.3-3.2 7.8-2.7-.4-4-.1-5 1.1-1.2 1.5-1.2 1.9.2 2.9.9.6 2.5 3.2 3.7 5.6 2.9 6 4 7.4 7.6 9.3 2.4 1.2 3.4 1.2 4.6.4 2.3-1.8 3.9-5.2 3.9-8.6 0-3.7 2.1-5 6.9-4.4 3.3.4 4.2-.1 10.1-5.9 3.6-3.5 9.4-8.9 12.9-12.1 5.3-4.8 6.4-6.4 6.5-9.1.1-1.9.7-4.1 1.4-4.9 1.5-1.7 1.4-1.9-8.4-22.5-3-6.1-5.7-11.2-6-11.2s-3.2 1.5-6.3 3.4c-9.9 5.7-8.5 6.3-21.7-9.2-6.6-7.6-13.9-16.2-16.4-19.2s-7.5-8.9-11.2-13.3l-6.8-7.8V572h45l.1-6.8c.1-3.7.2-9.2.3-12.2l.1-5.5-43.5-.2c-23.9-.2-44.1.1-44.8.5m84.6 2c.9.2 1.2 2.9 1.2 10.2v10h-84v-19.9l9.3-.3c9.1-.3 71-.2 73.5 0m24.5 103.7c2 4.2 3.7 7.7 3.7 7.9 0 .1-1.8.9-4 1.6s-4 1.7-4 2.2c0 1.2 1.6 1 5.5-.6 3.9-1.7 3.6-1.8 6.4 5.1 2.3 5.8 2.5 5.4-5.9 10-13.6 7.5-22 11.4-22.9 10.9-1.7-1.1-13.1-26-13.1-28.6 0-1.1 9.3-6 11.4-6 1.8 0 2.5 3 1.9 8-.7 4.8 1 9.3 4.5 12 3.4 2.7 6.7 2.5 9.1-.6 4.1-5.2 2-13.5-4.2-17.2-4.3-2.5-5.3-5.8-2.4-7.6 3.7-2.3 8.1-4.5 9.2-4.6.6 0 2.7 3.4 4.8 7.5m-16.5 2.3c.2 1.4-.2 2.2-1.1 2.2-1.9 0-4-2.6-3.2-4 1.1-1.8 4-.6 4.3 1.8m6.1 5.8c2.7 2.2 3.1 3.3 3.1 7.3 0 5.1-1.3 7.1-4.4 7.1-4.4-.1-7.6-4.6-7.6-10.7 0-6.7 3.6-8.2 8.9-3.7m18.1 20.3c0 2.5-24.2 25.1-26.9 25.1-5.1 0-6.6-1.6-10.5-11.5-3.8-9.8-3.8-9.8-1.3-12.3s2.5-2.5 5.7 3.9c4 7.9 3.7 7.6 6.3 5.9 1.2-.7 6.5-3.6 11.7-6.3s9.9-5.3 10.5-5.8c1.7-1.6 4.5-1 4.5 1m-38.5 14.7c3.4 8.7 3.7 9.9 2.6 13.4-.6 2-1.1 4.9-1.1 6.3 0 2-.6 2.8-2.5 3.3-3.5.9-6.8-1.6-9.4-7-3-6.5-2.8-8 .9-7.3 3 .6 3 .6 3-8.8 0-12.5 1.5-12.5 6.5.1m-13.5 7.9c0 .3-.2.5-.5.5s-.5-.2-.5-.5.2-.5.5-.5.5.2.5.5"/><path d="M377.9 551c0 .3-.1 4.2-.2 8.8-.2 6.7.1 8.2 1.2 8s1.4-2 1.2-7.8c-.1-4.1-.7-7.9-1.2-8.5-.5-.5-.9-.7-1-.5M399.3 551.7c-1.5.6-1.7 3.3-.3 3.3.6 0 1-.5 1-1.2 0-.9.3-.9 1.2 0 1 1 1 1.7-.1 3.4-1 1.6-1 2.3-.2 2.6 1.3.4 1.5 5.2.2 5.2-.5 0-1.1-.6-1.4-1.3-.2-.6-.8-.8-1.3-.4-1.1 1 .9 4.2 2.7 4.2 2 0 3.6-5.2 2.2-7.4-.7-1.1-.8-2.3-.2-3.4s.6-2.4-.1-3.7c-1.1-2-1.6-2.2-3.7-1.3M410.1 552.9c-1.7 3.1-1.4 11.7.5 13.5 2 2.1 2.1 2.1 3.8-1.1 1.2-2.4 1.2-3.2 0-5.4-.7-1.5-2-2.9-2.8-3.2-.9-.4-1.3-1.3-1-2.2.5-1.3.9-1.3 2.1-.3 1.3 1 1.5.9 1.2-.6-.6-2.7-2.6-3.1-3.8-.7m3.4 9.1c0 2.7-2.2 3.9-3.1 1.6-.8-2.2.3-4.9 1.9-4.3.6.2 1.2 1.4 1.2 2.7M421.4 551.8c-1.7 1-2.6 6.5-1.9 10.5.8 4.1 3.4 5.6 5.2 3.1 1.6-2.1 1.7-9.8.3-12.5-1.2-2-1.9-2.3-3.6-1.1m2.6 7.8c0 5.2-1.1 7.1-2.4 3.8-.8-2-.8-6.8 0-8.8 1.2-3 2.4-.5 2.4 5M366.2 556.5c-2.7 5.6-2.7 6.5-.2 6.5 1.5 0 2 .7 2 2.5 0 3.4 1.8 3.2 2.2-.3.5-4.1-.3-13.2-1.1-13.2-.4 0-1.7 2-2.9 4.5m1.8 3c0 .8-.4 1.5-1 1.5-.5 0-1-.7-1-1.5s.5-1.5 1-1.5c.6 0 1 .7 1 1.5M386.5 560c.3.5 1.7 1 3 1s2.7-.5 3-1c.4-.6-.8-1-3-1s-3.4.4-3 1M451.3 667.2c-3.2 1.1-4.5 2.8-2.1 2.8 2 0 7.8-2.4 7.8-3.2 0-1-1.6-.9-5.7.4M427.7 709.7c-2.3 2.2 1 9.3 4.2 9.3 2.6 0 3.2-3.2 1.4-6.9-1.4-2.9-4.1-4-5.6-2.4m4.3 3.2c1.3 2.6 1.3 4.1-.1 4.1s-3.8-3-3.9-4.8c0-1.9 2.8-1.4 4 .7M303.9 596.2c-.2 1.3-.3 6.7-.1 12l.3 9.8H344v10.5c0 10.5 0 10.5 4.3 15.3 5.8 6.4 12.8 14.1 15.2 16.6 1.1 1.2 5.2 5.8 9.2 10.4 5.6 6.5 7.1 9 7.1 11.3-.1 1.7.4 3.5 1 4.1.7.7 1.2 2.6 1.2 4.3 0 2 .9 3.9 3 5.8 3.5 3.3 3.8 4.7 1 4.7-1.1 0-2 .4-2 1 0 2.1 4.2.8 13.7-4.1 12.9-6.7 12.6-6.5 10.8-10-1.9-3.7-2-3.5 1.6-4.8 1.7-.6 2.8-1.5 2.4-2.1s-1.3-.6-2.5 0c-1.1.6-2.8 1.4-3.9 1.9-2.3 1.2-4.1-.4-4.1-3.6s-2.7-8.3-4.4-8.3c-2.4 0-3.9 2.6-2.7 4.9.6 1.1 1.1 3.5 1.1 5.5 0 1.9.5 3.8 1 4.1 1.4.9 1.3 4.8-.2 6.3-3.1 3.1-8.8-.1-8.8-5 0-2.4-4-7.9-6.5-8.9-.5-.2-2.3-2-3.9-3.9-2.9-3.5-7.1-8.2-18-20-14.9-16-13.6-13.6-13.6-25.5V618h45.1l-.3-11.8-.3-11.7-43.1-.3c-43.2-.2-43.2-.2-43.5 2M389 606v10h-83v-20h83zm11 69c0 .5-.9 1-2 1s-2-.5-2-1c0-.6.9-1 2-1s2 .4 2 1m.6 5.2c.3 1.3 1.3 3.1 2.1 4 1.6 1.8 1 3.8-1.1 3.8-1.7 0-4.9-6.7-4.2-8.6.8-2.1 2.4-1.7 3.2.8m-16 2.9c.3.6.1 1.6-.5 2.2-.9.9-1.4.8-2.1-.3-.5-.8-1-1.8-1-2.3 0-1.1 2.8-.8 3.6.4m2.9 7.2c1.1 1.7 2.1 3.5 2.3 3.8.1.4-.5.9-1.4 1.3-2.9 1.1-7-5.5-4.7-7.7 1.1-1.2 1.7-.8 3.8 2.6m19.9-1.4c.7 1.1-.6 2.2-5.9 5.1-2.2 1.2-5.7 3.1-7.8 4.3-2.7 1.5-4 1.8-4.8 1-1.6-1.6-.3-3 3.4-3.8 1.7-.4 4.3-1.7 5.7-3 4.5-4 8.3-5.5 9.4-3.6"/><path d="M314.1 603.1c-2.4 4.7-2.3 6.4.2 6.4.7 0 1.3 1 1.5 2.2.2 1.3.8 2.3 1.3 2.3 1 0 1-14.8 0-15.5-.3-.2-1.7 1.9-3 4.6m1.5 4.6c-1.1 1.1-1.9-.6-1.1-2.4.8-1.7.8-1.7 1.2 0 .3 1 .2 2.1-.1 2.4M324 599.5c0 .9.6 1.2 1.5.9 1.9-.8 2.1 3.2.3 4-.9.3-.8.8.5 1.6 1.7 1.1 2.3 4.1 1 5.3-.3.4-1.5 0-2.5-1-1.6-1.4-1.8-1.4-1.8-.1 0 2.6 2.7 4.3 4.5 2.8 1.3-1 1.6-7.8.6-14.3-.2-1.4-4.1-.7-4.1.8M345.1 599.9c-.6 1.1-1.1 3.9-1.1 6.3.1 6.7 4 10.4 5.9 5.5 1.3-3.5.2-7.7-2-7.7-1.3 0-1.9-.7-1.9-2.1 0-1.6.4-1.9 2.1-1.4 1.5.5 2 .3 1.7-.6-.7-2.2-3.6-2.2-4.7 0m3.9 7.5c0 2.4-1.2 4.6-2.1 4-1.5-.9-1-5.4.6-5.4.8 0 1.5.6 1.5 1.4M355.6 599.6c-.4 1.2-.1 1.4 1.4.9s2-.2 2 1.4c0 1.1-.5 2.3-1.1 2.6-.6.5-.4 1.2.7 2 1 .7 1.5 1.9 1.1 2.9-.7 1.7-2.7 2.2-2.7.6 0-.6-.4-1-1-1-1.7 0-1.1 2.9.9 3.9 1.4.8 2.2.7 3.1-.3 1.1-1.5 1.2-2.6.6-8.6-.3-1.9-.5-4.1-.5-4.8-.1-1.7-3.8-1.5-4.5.4M366 602c0 3.3.3 4 2 4 1.5 0 2 .7 2 2.6 0 2.1-.4 2.4-2 1.9-2.4-.8-2.6.7-.4 2.6 1.4 1.1 1.8 1 3-.6 2.3-3.2 1.8-7.4-1.1-8.5-3-1.1-3.3-3-.5-3.7s2.5-2.3-.5-2.3c-2.2 0-2.5.4-2.5 4M378 600.2c0 1.3-.7 4.7-1.4 7.5-.8 3.1-1 5.5-.5 5.9.5.3.9-.6.9-2s.5-2.8 1-3.1c1.3-.8 4.1 1.4 3.8 2.9-.2.6 0 1.3.5 1.4.4.1.7-.1.7-.6.1-.7-1.7-9.1-2.7-12.5-.6-2.5-2.3-2.1-2.3.5m1.6 5.5c-1 1-1.9-.5-1-1.8.6-1.1.8-1.1 1.2 0 .2.7.1 1.5-.2 1.8M334 606c0 .5 1.4 1 3 1 1.7 0 3-.5 3-1 0-.6-1.3-1-3-1-1.6 0-3 .4-3 1M475.8 659.3c-2.6 1-3.8 2.7-1.9 2.7s7.1-2.3 7.1-3.1c0-1.1-1.7-1-5.2.4M418.3 678c-2.8 1.2-3.1 3.4-.3 2.6 1.1-.3 2.9-.9 4-1.2s2-1 2-1.5c0-1.1-2.8-1.1-5.7.1M359 690.9c-.8.5-3.9.9-6.9.8-4.7-.1-5.7.3-7.7 2.7-1.3 1.5-2.4 3.3-2.4 4.1 0 .7-2.2 2.1-4.9 3-9.9 3.2-11.4 8.3-6.1 19.9 1.8 3.8 3.4 9.4 3.7 12.3.6 5.3.5 5.6-5.3 14.1-3.2 4.8-7.3 10.6-9.1 13s-3.7 5.1-4.2 6c-1.7 2.9-2.8.3-5.5-13.3-1.5-7.2-3-14.6-3.6-16.5-.5-1.9-1.4-6.4-2-10-2-11.6-1.5-11.1-12.7-10.8-6.6.2-9.8.7-10.1 1.5-.3 1 2.1 1.3 9.6 1.3 9.9 0 9.9 0 10.5 3.2.4 1.8 2 9.8 3.7 17.8s3.8 17.9 4.7 22.1 1.3 8.7 1 10-2.8 4.9-5.5 7.9l-4.9 5.5-14.9.5c-20.1.7-20.9 1.2-25.9 15.4-3.5 10-7.4 17.4-11.6 22-2.1 2.3-2.9 2.6-4.5 1.7-5-2.8-5-2.6-.1-9.8 13-19 13.8-41.4 1.8-48.1-2.1-1.2-5.5-2.2-7.5-2.2-2.6 0-3.9-.5-4.3-1.7-1-2.6-4.9-6.2-7.8-7.3-7-2.7-15.1.5-24 9.5-10.7 10.7-16.7 25.5-16.8 41-.1 7.4.3 10 2.1 13.5 2 4.1 2 4.4.4 5.6-.9.8-2 1.4-2.3 1.4s-1.6 2.1-3 4.7c-2.2 4.5-2.4 6-2.7 23.3-.3 16.7-.6 18.7-2.3 20.3-2.3 2.2-2.6 8.9-.4 10.7.8.7 1.5 2.1 1.5 3.1 0 2.6 2.7 4.9 5.9 4.9s5.1-1.6 5.1-4.3c0-1 .7-2.5 1.5-3.3 2.3-2.3 2-9.1-.5-10.6-1.9-1.2-2-2.4-2-18.5 0-9.4.4-18.3 1-19.7.5-1.4 2.1-3.3 3.5-4.2 2.4-1.6 2.9-1.6 6-.1 1.8.9 4.9 1.9 6.8 2.2 1.9.4 4.5 1.8 5.8 3.1 2.2 2.3 2.2 2.4.4 4.4-1 1.1-1.3 2-.7 2s1.4-.5 1.7-1c.9-1.5 4.9-1.2 7.1.6 1.8 1.4 1.8 1.5-.6.9-2.3-.6-2.3-.5-.7.8 1.3 1.1 1.7 2.9 1.7 8.1 0 8.1 1.6 8.8 9.1 4 3.3-2.1 3.9-3 3.9-5.9 0-3.3.2-3.5 3.5-3.5 5.4 0 14.5-6.7 14.5-10.7 0-1.3 1.9-4.7 4.1-7.6 5.2-6.5 11.4-19 13-26.2.7-3 1.9-6.1 2.7-6.8 1-.8 6.6-1.4 16.1-1.7 17-.6 19-1.3 25.9-10 5.4-7 5-6.4 10.2-14 2.5-3.5 5.1-7.1 5.7-8 2.8-3.4 9.4-12.8 11.9-16.8 3.7-6.1 3.7-15.3-.1-24.3-4.2-9.9-4.2-11.2-.5-12.6 2.5-.9 3.6-.9 5.1 0 1 .6 1.9 1.5 1.9 1.9 0 2.7 10.5-1 11.4-4 .4-1 2.4-2.7 4.6-3.7 3.7-1.7 4-2.1 4-5.7 0-6.8-4.3-10.6-9-7.9m4.2 2.3c-1.8 1.8-1.4 4.6.8 6 2.4 1.5 2.6 2.8.4 2.8s-4.3-2.9-4.4-6.1c0-2.9.7-3.9 2.9-3.9 1.2 0 1.2.3.3 1.2m-11.2.8c0 .5-.3 1-.8 1-.4 0-1.3.9-2 2-1 1.6-1 2.7.2 5.4 1.6 3.8 4 5.6 6.7 4.9 1.1-.3 1.9 0 1.9.6s-1.5 1.1-3.4 1.1c-4 0-6.2-2.7-7.2-8.8-.4-2.9-.2-4.3 1.1-5.5 1.8-1.9 3.5-2.2 3.5-.7m8.3 6.8c.5.7.7 1.6.3 2-1 .9-4.6-3.6-4.6-5.7 0-3.1 1.4-3.3 2.4-.4.5 1.5 1.3 3.4 1.9 4.1m-15.1-3.6c-.7.7-1.2.8-1.2.2 0-1.4 1.2-2.6 1.9-1.9.2.3-.1 1.1-.7 1.7m20.5.4c-.9.9-2.8-.6-2.1-1.8.4-.6 1-.6 1.7.1.6.6.8 1.3.4 1.7m-10.7.2c0 1 .7 2.8 1.6 4 1.9 2.7 1 4.3-1.1 2.1-1.9-1.9-3.1-7.9-1.6-7.9.6 0 1.1.8 1.1 1.8m-2.8 1.9c.3 1.6.8 3.7 1.2 4.8.7 1.7.5 1.7-1.3-.4-2.1-2.3-2.9-7.1-1.2-7.1.5 0 1.1 1.2 1.3 2.7m-5.2 4c1.5 4.3 1.5 4.6.1 5.1-1.1.4-2.5-2.1-3.5-6.1-1-4.2 1.7-3.4 3.4 1m-4.2 1.5c.2 1.2-.8 2.2-3.2 3.2-4.4 1.8-4.6 4.1-1.1 11.5 3.2 6.6 4.8 14.4 3.9 19.6-.6 4.2-2.4 7.1-19.5 31-12.9 18-14 19.2-19.6 21.7-3.7 1.6-6 1.8-14.6 1.4-6.4-.3-11.7 0-14.2.8-3.9 1.1-4.1 1.3-7.2 10.6-1.7 5.2-4.4 11.7-5.8 14.4-3 5.5-8.7 13.5-9.6 13.6-.4 0-1.4-1.2-2.4-2.6-1.6-2.5-1.6-2.7 1.4-6.5 3.9-4.8 9.6-16.6 11.8-24.2 1.2-4.5 2.4-6.4 5.1-8.5 3.4-2.6 4.1-2.7 15.6-2.7 16.8 0 19.6-1.1 26.2-9.7 2.4-3.2 4.4-6.2 4.4-6.7s.3-1.1.8-1.3c2-.8 20.5-28.4 21.3-31.6 1.1-4.8-.5-12.1-4.2-20.3-3.9-8.5-3.5-10.9 2.3-13.8 5-2.4 8.1-2.3 8.6.1m8.2 5.3c0 .3-.2.5-.5.5s-.5-.2-.5-.5.2-.5.5-.5.5.2.5.5m-124.7 48c3.6 1.5 8 6.1 7.2 7.5-1.2 1.9-4.6 1.7-6.3-.4-2.5-3.3-4.4-3.6-8.8-1.7-13 5.8-24.8 26.5-24.8 43.6 0 9.5 1.6 13.2 7.6 17.5 4 2.9 7.3 7.6 6 8.4-.4.2-2.3-.1-4.3-.8-11.6-4-16.9-14.5-15.4-30.9 1.7-19.9 13.7-37.9 29.1-43.5 4-1.5 5.6-1.4 9.7.3m-.9 8.1c.9.8 1.6 1.8 1.6 2.1s-2 2.4-4.6 4.6c-6.8 6-12.1 14.2-17.2 26.8-.6 1.5-1.4 5.9-1.8 9.8-.7 7.2-2 9.5-5.1 8.9-2.1-.4-3.1-3.6-3.2-10.8-.3-14.5 8.9-32.2 20.5-39.9 5.3-3.5 7.5-3.8 9.8-1.5m20 2.4c11.6 4.4 8.8 32.8-4.7 48.5-3.3 3.8-3.6 3.9-6.1 2.6-1.4-.8-2.6-1.8-2.6-2.3 0-.4 1.6-2.9 3.6-5.4 11.5-15.2 14.6-35.6 5.8-37.8-6.3-1.6-18.4 8.2-25.2 20.6-2.8 5-6.2 16.7-6.2 21.4 0 4.3 4 13.6 7.3 17.2 3.6 3.9 7.5 5.4 13.1 5 4.9-.3 5.1-.2 5.4 2.4.3 2.8.3 2.8-5.3 2.8-10.5 0-18.2-5-22.8-14.8-4-8.7-4.4-13.9-1.7-24.6 3.4-13.7 12.6-27.2 22.9-33.8 4.8-3 11.5-3.7 16.5-1.8m-1.3 10.7c3 7.8-3.7 25.5-13.7 36-.6.6-2.1.9-3.3.6-1.1-.3-3.2.2-4.5 1.1-5.3 3.4-9.4 5.4-10 4.8-.4-.3 1.1-2.4 3.3-4.6 8.9-9.3 16.9-24.1 18.6-34.6 1-5.9 1-6 5.1-6 2.8 0 3.6.5 4.5 2.7M231 790.1c-4 10.1-15.5 27.9-18.1 27.9-1.7 0-.9-7.6.9-9.6 4.7-5.1 11.2-16.7 12.8-22.8.3-1.4 1.8-3.6 3.3-4.7 2.6-2.1 2.6-2.1 2.9.8.2 1.6-.7 5.4-1.8 8.4m-7-1.5c0 .9-5.8 11.5-7.5 13.8-2.1 2.7-2.8 1.5-1.3-2 2.8-6.5 8.8-14.5 8.8-11.8m7.5 31.5c2.2 1.2 6 3.2 8.5 4.6 10.1 5.4 13.2 13.6 6.7 18-4.2 2.9-4.7 2.9-4.7-.2 0-5.6-4.2-9.9-15.2-15.7-4.3-2.2-7.8-4.3-7.8-4.7 0-1 5.3-4 7-4.1.8 0 3.3 1 5.5 2.1m-27.5 2.5c0 1.6-.9 1.8-3 .4-1.3-.9-1.3-1.1 0-1.9 1.7-1.2 3-.5 3 1.5m15.3 1.6c1.2.7 2.4 1.5 2.7 1.8s3.1 1.9 6.3 3.5c7.6 3.9 10.4 6.7 11.8 11.5 1.1 3.5 1 4.3-.3 5.7-1.1 1-2.1 1.2-3.3.6-1.5-.9-1.5-1.1-.1-2.2q3-2.55 0-6.9c-1.3-1.9-2.1-2.1-5.4-1.6q-9 1.5-9-3.3c0-3.1-2.6-6.3-5.1-6.3-2.1 0-3.3-1.5-2.4-3 .8-1.3 2.1-1.3 4.8.2m-26.3 4.3c1.1 1.3.8 2.1-1.8 4.6-3.2 3.2-4 6-4.5 17-.2 5.4-.3 5.6-2.4 4.8s-2.3-1.4-2.3-9.2c0-6 .5-9.2 1.8-11.8 3.5-6.8 6.6-8.6 9.2-5.4m27.7 3.1c.9 2.4-.5 2.9-2.7.9-2.8-2.5-2.7-5 .1-3.5 1.1.6 2.3 1.8 2.6 2.6m11.2 15.3c.9.6 1.1 2 .7 4.7-.5 2.9-1.5 4.4-3.7 5.7-5.1 2.9-5.9 2.3-5.9-3.6 0-2.9.5-5.8 1.2-6.5 1.4-1.4 5.7-1.6 7.7-.3M186.1 857c.5 0 .9 3.6.9 8 0 7.9 0 8-2.5 8s-2.5-.1-2.5-8.6c0-7.4.2-8.5 1.6-8 .9.3 2 .6 2.5.6m2.2 19.5c-.2.5-2.1 1-4.2 1-2.2 0-4.3.3-4.7.7-.4.5-1.2.8-1.8.8s0-.9 1.4-2c2.6-2.1 9.7-2.4 9.3-.5m2.4 2.2c-.4.3-.7 0-.7-.7s.3-1 .7-.7c.3.4.3 1 0 1.4m-1.2 1.5c2.4 1.1 3.2 2.8 1.9 4-.3.3-1.6-.5-2.9-1.8-3.1-3.1-5-3-8 .1-1.6 1.9-2.5 2.2-3.1 1.4-1-1.7 3.2-4.9 6.7-4.9 1.5 0 4 .5 5.4 1.2m-3.2 2.5c-.7.2-2.1.2-3 0-1-.3-.4-.5 1.2-.5 1.7 0 2.4.2 1.8.5m2.7 3.2c0 .5-2 .9-4.5.9s-4.5-.4-4.5-.9 2-.9 4.5-.9 4.5.4 4.5.9m-1.7 2.8c.3.5-1 .8-2.8.9-1.9 0-3.2-.3-2.9-.8.6-1 5.1-1.1 5.7-.1m-1.1 3.5c-.9.9-1.5.9-2.4 0s-.7-1.2 1.2-1.2 2.1.3 1.2 1.2"/><path d="M226.6 849.6c-1.9 1.8-2.1 4-.4 5 1.5.9 4.9-3.2 4.1-5.1-.7-1.9-1.8-1.9-3.7.1m1.8 1.9c-.4.8-1 1.2-1.5.9-1.1-.6-.2-2.4 1.1-2.4.5 0 .7.7.4 1.5M748.5 693c-2 1.3-2.4 2-1.4 2 1.8 0 7.1-3.9 5.4-4-.5 0-2.3.9-4 2M737.8 698.6c-1.6.8-2.8 1.7-2.8 1.9 0 1.2 3 .3 5.1-1.5 2.8-2.3 1.5-2.5-2.3-.4M726.3 704.7c-1.3.8-2.3 2-2.3 2.5 0 1 2.3-.1 5.5-2.6 2.8-2.1-.2-2.1-3.2.1M207.3 704.8l-15.3.3V729l43.8-.2 43.7-.3v-11.3c0-7.4-.4-11.7-1.1-12.3-1.1-.9-26.6-.9-71.1-.1M277 717v10h-83v-20h83z"/><path d="M234.2 709.2c-1.8 1.8-1.5 2.7.8 2.1s2.5 0 1 2.7c-.7 1.4-.7 2.5.1 3.8.7 1.1.9 2.8.5 3.8-.7 1.8-.8 1.8-2.2 0-1.1-1.6-1.4-1.7-1.4-.4 0 2.3 2.3 3.9 4 2.8 1-.6 1.4-2.6 1.2-7.2-.3-6.7-1.9-9.7-4-7.6M243.6 709.5c-.9 2.3-.8 2.4 1.5 1.8 2.1-.6 2.2.5.3 9.4-.2 1.3 0 2.3.5 2.3.7 0 2.2-8.1 2.5-13.5.1-1.7-4.1-1.7-4.8 0M255.3 709.1c-1.9 1.9-1.7 12.3.2 13.9 2.5 2.1 4.5-.5 4.5-6 0-5.6-2.6-10-4.7-7.9m2.7 7.5c0 4-.4 5.5-1.2 5.2-1.4-.5-2.3-7-1.4-9.4 1.2-3.2 2.6-1.1 2.6 4.2M202.5 713.9c-2.5 5.1-2.5 5.1 0 6.1 2.1.8 2.5 1.4 2 3.1-.5 1.5-.3 2 .6 1.7 1-.3 1.3-2.4 1.1-7.9-.2-4-.5-7.5-.7-7.7s-1.5 1.9-3 4.7m2.5 2.5c0 1.6-1.8 3.1-2.7 2.2-.8-.8.5-3.6 1.7-3.6.5 0 1 .6 1 1.4M213.5 717c0 6.1.3 8 1.4 8 .9 0 1.1-.7.7-2.3-.3-1.2-.6-4.8-.6-8 0-3.1-.3-5.7-.7-5.7-.5 0-.8 3.6-.8 8M222 717c0 .5 1.4 1 3 1 1.7 0 3-.5 3-1 0-.6-1.3-1-3-1-1.6 0-3 .4-3 1M715.7 712.4c-2.5 3.2-4.6 8.6-3.3 8.6.3 0 1.3-1.6 2.1-3.6s2.7-4.7 4.3-6c2-1.8 2.3-2.4 1.1-2.4-.9 0-2.8 1.5-4.2 3.4M712.1 730.8c-.1 3.3.3 5.1.9 4.7 1.2-.7 1.2-5.2 0-8-.6-1.5-.9-.6-.9 3.3M203.1 733.3c-1.5 1.5-1.4 10 .1 11.5 1.7 1.7 4.8-.4 4.8-3.3 0-1.8-.7-2.6-2.6-3.1-3.2-.8-2.9-4 .4-3.7 1.2.2 2.2-.1 2.2-.6 0-1.4-3.7-2-4.9-.8m2.9 8.2c0 2.6-1.4 3.3-2.5 1.5-.9-1.4.1-4 1.5-4 .5 0 1 1.1 1 2.5M231.5 733.6c-3.3 3.3-.8 13.2 3 11.8 3.2-1.3 2.3-7.4-1.1-7.4-.9 0-1.4-.7-1.2-1.8.2-1 1.1-1.6 2.1-1.4 2.1.4 2.3-1.4.2-2.2-.8-.3-2.1.2-3 1m3 7.7c0 2.6-2 2.5-2.3-.2-.3-1.6.1-2.2 1-1.9.7.3 1.3 1.2 1.3 2.1M250.5 733.7c-2 1.9-1.6 10 .6 11.3 1.6 1 3.6.3 4.3-1.7.8-2-2.1-6.6-3.5-5.7-.7.4-.9-.1-.7-1.2.3-1.3 1.1-1.8 2.6-1.7 2.7.3 2.8-.3.3-1.7-1.5-.8-2.4-.6-3.6.7m3 7.6c0 2.6-2 2.5-2.3-.2-.3-1.6.1-2.2 1-1.9.7.3 1.3 1.2 1.3 2.1M164.4 735.4c-.7 2.9.9 5.6 3.3 5.6.8 0 1.3.6 1 1.2-.2.7-1.4 1.2-2.6 1.1-1.1-.2-2.1.2-2.1.7 0 .6 1.4 1 3 1 3.1 0 3.1 0 2.8-5.8-.3-5-.6-5.7-2.5-6-1.7-.3-2.4.3-2.9 2.2m4.4 1.3c-.5 2.5-2.8 2.8-2.8.4 0-1.2.6-2.1 1.6-2.1.9 0 1.4.7 1.2 1.7M174 735c-.9 1.7-.6 2.5 1.5 4.6 2.6 2.5 2.5 5-.1 4-1.6-.6-1.9 1-.3 1.9 1.7 1.1 4.9-2.6 4.9-5.7 0-6-3.8-9-6-4.8m4 2c0 1.1-.7 2-1.5 2s-1.5-.9-1.5-2 .7-2 1.5-2 1.5.9 1.5 2M183.5 734c.3.5 1.2 1 2 1 1.1 0 1.2.6.4 2.9-.6 1.7-.9 4-.6 5.3.4 2 .4 1.9.6-.5 0-1.5.8-4.1 1.6-5.6.8-1.6 1.1-3.1.8-3.5-1.1-1-5.5-.7-4.8.4M192.7 733.7c-1 1.7 0 10.5 1.3 11.3 2.8 1.8 4 0 3.8-5.9-.3-4.9-.6-5.6-2.5-5.9-1.1-.2-2.3 0-2.6.5m4.1 2.5c-.6 1.8-2.8 2.1-2.8.4 0-.9.7-1.6 1.6-1.6s1.4.5 1.2 1.2m-.3 5.8c0 .7-.6 1.5-1.2 1.7-.8.3-1.3-.4-1.3-1.7s.5-2 1.3-1.8c.6.3 1.2 1.1 1.2 1.8M221.7 733.7c-.4.3-.7 2.8-.7 5.4 0 3.7.4 5.1 1.8 5.8 1.3.7 2.3.6 3-.1 1.3-1.3 1.6-7.6.6-10.2-.6-1.6-3.5-2.2-4.7-.9m3.8 5.8c0 2.9-.4 4-1.5 4s-1.6-1.3-1.8-4.3c-.3-3.8-.1-4.3 1.5-4 1.4.2 1.8 1.3 1.8 4.3M242.1 734.4c-.8 1-.9 1.6-.2 2.1.6.3.9 2.1.6 4-.2 1.9 0 3.7.5 4 .6.4 1-1.9 1-5.4 0-3.4-.2-6.1-.4-6.1s-.9.6-1.5 1.4M150.6 736.8c-.5.8.2 9.1 2.4 29.7.5 4.9 1.4 14.6 2 21.5s1.5 16.5 2 21.5c2.1 21 2.1 21.5.1 21.5-1 0-3.3 1.3-5 2.9-4 3.8-4.3 9-.6 12.6 2.4 2.5 6.5 3.4 6.5 1.5 0-1.5 6.3-1.2 10.4.5 5 2.1 4.9-.1-.4-4.9-2.6-2.3-4-4.5-4-6 0-1.4-.7-3.2-1.6-4.1-1.5-1.5-3.2-14.2-6.4-49.5-2.6-28.4-3-33-3.6-39.3l-.7-6.7h4.7c2.9 0 4.5-.4 4.1-1-.7-1.2-9.2-1.3-9.9-.2m3.9 99.8c-1.4 2-2.5 4.5-2.5 5.5 0 1.1-.4 1.9-1 1.9-1.7 0-1.1-5.1 1.1-8.1 3.1-4.5 5.4-3.8 2.4.7m7.5-1c0 1-.6 1.4-1.4 1.1-3.1-1.2-5.8 4.6-4.1 8.5.5 1.3.3 1.8-.9 1.8-3.5 0-3.3-5.6.5-10.3 2.3-3 5.9-3.6 5.9-1.1m-2 3.1c0 .5-.7 1.7-1.5 2.7-1.5 2-2 1-.9-1.8.6-1.6 2.4-2.2 2.4-.9m1.1 4.6c-1.6 1.6-2.6 0-1-1.9.9-1.1 1.5-1.2 1.7-.4.2.6-.1 1.7-.7 2.3m2.5 1.4c-1 1-1.9-.5-1-1.8.6-1.1.8-1.1 1.2 0 .2.7.1 1.5-.2 1.8m2.1 1c-.4.3-.7 0-.7-.7s.3-1 .7-.7c.3.4.3 1 0 1.4M212 740c0 .5 1.1 1 2.5 1s2.5-.5 2.5-1c0-.6-1.1-1-2.5-1s-2.5.4-2.5 1M712 745c0 3.2.4 4.9 1 4.5.6-.3 1-2.4 1-4.5s-.4-4.2-1-4.5c-.6-.4-1 1.3-1 4.5M712 759.6c0 3.4.4 5.3 1 4.9.6-.3 1-2.8 1-5.6 0-2.7-.4-4.9-1-4.9-.5 0-1 2.5-1 5.6M712 774c0 3.2.4 4.9 1 4.5.6-.3 1-2.4 1-4.5s-.4-4.2-1-4.5c-.6-.4-1 1.3-1 4.5M712 787.5c0 3.2.2 5.6.4 5.4.8-.7 1-9.8.3-10.5-.4-.4-.7 1.9-.7 5.1M712.3 801.5c0 3.3.2 4.5.4 2.7s.2-4.5 0-6-.4 0-.4 3.3M662.8 803.4c-11.4 3.8-18.7 11.6-18.8 20.1 0 5.6 3.4 14.2 7 18 1.6 1.7 3 3.5 3 4.1 0 1.9 9.2 29 11.5 34 1.4 3 2.2 6 1.8 7.3-.4 1.5-3.9 4.1-11.2 8.2-18.7 10.7-19.5 11.3-20.7 15-.7 1.9-.9 4.9-.7 6.6.7 4.1-.1 4.1-7.9.3-3.3-1.7-6.2-3-6.3-3-.2 0-.5 1.7-.7 3.7-.3 3.6-.5 3.8-3.8 3.9-5.6.2-6.2.3-5.5 1.4.4.7 5 .8 12.8.4 12.2-.7 12.2-.7 14.7 3.1 2.9 4.5 11.2 10.5 14.4 10.5 2.3 0 4-.8 17.6-8.5 4.7-2.6 11.7-6.4 15.5-8.5 11.6-6.2 30.9-17.1 32.3-18.2.7-.6 5.9-1 12.2-.9 10.4.1 11.3 0 17.1-2.9 6.5-3.3 6.8-3.8 15.6-24 .8-1.9 2.3-5.1 3.1-7 3.6-7.7.1-18.4-7.1-21.8-1.6-.8-9.8-1.8-19.1-2.4-16.3-1-16.3-1-21.7 1.7-7.2 3.6-10.7 7.1-12 11.8-.6 2.2-1.4 3.6-1.9 3.1s-2.7-6.5-5-13.4c-3.5-10.7-4-13.2-3.4-18 .7-6.7-1.6-15.6-5.2-20-2.9-3.4-11.9-7-17.2-6.9-2 0-6.7 1-10.4 2.3m17.7.7c13 3.5 16 15 6.6 24.6-5.9 6.2-12.1 8.6-22.1 8.7-10.6.1-16.3-2.4-18.7-8.2-6-14.4 15.6-30.2 34.2-25.1m14.2 21.4c-.8 5.6-3.7 9.7-9.7 13.5-12.3 7.9-26 8-34.2.3-3.9-3.7-2.6-4.4 2.9-1.6 4.2 2.2 5.7 2.4 12.5 2 6.1-.4 8.9-1.1 13.8-3.8 6.3-3.3 11.6-8.7 12.6-12.7 1.1-4.2 2.7-2.4 2.1 2.3m2.8 19.6c1.8 5.7 4.8 14.2 6.4 18.9 3.6 10 3.7 12 1.2 14.8-7.2 8.4-33 8.4-38.5 0-2.4-3.6-11.4-32.3-10.5-33.3.3-.2 2.4.1 4.8.7 8.6 2.2 23.4-2.6 30-9.6 1.4-1.4 2.6-2.4 2.8-2.3.2.2 1.9 5.1 3.8 10.8m45-.1c16.2 1.2 18.2 1.8 21.5 7.3 2.9 4.7 2.5 10.5-1.2 18.4-9.1 19.5-11.4 23.7-13.5 24.4-2.1.8-2.1.6-1.2-1.9 1-2.6 5.8-13.6 10-22.9 2.4-5.4 2.4-7.3-.2-12.8-3.6-7.7-6.2-8.8-22.9-9.9-8-.5-14.7-1.1-15-1.3-.8-.8 2.5-2.3 5-2.3 1.4 0 9.2.5 17.5 1m-6.5 4.6c12.1.6 16.6 2 18.9 5.6 1.3 2.1 1.3 2.1-1.4 0-3.5-2.8-4.3-2.8-5.6.2-1.5 3.2 1.4 9.4 4.8 10.2 3.1.8 3.7.1 3.6-4.1-.1-1.9.3-3.2.8-2.9s.9 2.5.9 4.8c0 4.2-.9 6.5-8.6 23.4-1.9 4.1-3.4 7.8-3.4 8.2 0 2.4-4.8 4-11.7 4h-7.2l1.6-3.7c4.8-11.6-7.8-32.3-19.6-32.3-3.3 0-3.3 0-2.7-3.8 1.4-7.6 6.3-11.5 13.6-10.8 2.5.3 9.7.8 16 1.2m16.1 6.7c2.6 2 4.2 5.8 3.1 6.9-.6.6-1.7.8-2.6.5-2.2-.9-4.9-5.4-4.2-7.2s1.6-1.9 3.7-.2m-34 12.6c5.8 5.1 9.9 13.4 9.9 20 0 5.8-.7 8.1-2.5 8.1-1 0-1.1-.7-.5-2.9 2.5-8.7-7.4-25-16.1-26.8-4.2-.8-3.6-2.3 1-2.3 3 0 4.7.8 8.2 3.9m-3.1 3.8c6.9 5.9 11 17.7 8 23.3-.5 1-4 3.5-7.7 5.6-3.8 2.1-8.4 4.6-10.3 5.7-21.1 12-28.3 15.8-28.7 15.3-1-.9 1.8-3.6 3.8-3.6 1 0 3.3-1.3 5.1-2.9 3-2.7 3.3-3.4 3.3-8.8 0-4.7-.5-6.6-2.8-10-3.2-4.7-8.6-7.7-13.4-7.5-3 .1-3.3-.1-3.3-2.8 0-3.5-.1-3.5 4.8-1.4 5.8 2.4 18.5 2.2 24.6-.5 6.4-2.8 9.9-6.7 9.8-11.1 0-.3-.3-1.5-.7-2.8-1-3.5 2.4-2.8 7.5 1.5M681.5 895c2.6 2.4 2.6 2.4.1 4.3-3.6 2.6-3.2 4 .4 1.9 3-1.6 3.2-1.6 4.5.2 4 5.4-.1 14.7-6.9 16-10.2 1.9-19.9-11.1-15.2-20.5 1.7-3.4 1.4-5.1-.6-3.1-.7.7-1.9 1.2-2.7 1.2-1-.1-.7-.6.9-1.4 1.5-.9 5.2-1.3 9.6-1.3 6.2.2 7.6.6 9.9 2.7m-19.7 6.5c-.1 7.6 5.3 15.5 11.8 17.1 1.4.4 2.2 1.1 1.9 1.8-.3.6-.8 1.8-1.1 2.6-.6 1.8-1.1 2.1-11.6 7.8-7.7 4.3-11.4 5-14.9 3.2-3.1-1.7-2.2-3.3 1.6-2.8 4 .5 4.8-.8 1.1-1.8-1.6-.4-2.6-1.5-3-3.6-.3-1.6-2.1-4.5-4-6.4-2.4-2.4-3.3-4.1-3-5.7.3-1.3-.1-.9-1 1-.8 1.8-2 3.3-2.6 3.3-1.4 0-1.2-7.2.3-9 3.2-3.9 4.3-4.2 8.3-2 7.4 4.2 12.4 11.7 12.4 18.6 0 1.9.5 3.4 1.1 3.4.8 0 .9-1.3.5-4-.6-3.7.4-5.4 1.8-3.1.8 1.2 6.6 3.2 6.6 2.3 0-.4-2-1.8-4.5-3.1-6.2-3.3-7.9-6.3-8-13.8 0-3.3-.3-5.9-.7-5.6-.5.2-.8 2.2-.8 4.4 0 4.4-.7 4.8-4 1.9-1.2-1.1-3.1-2.2-4.1-2.5-2.6-.8-1.6-2.1 3.4-4.7 3.5-1.8 7.1-2.9 11.9-3.7.4 0 .7 1.9.6 4.4m-18.1 19.7c3 2.8 3.3 8.8.4 8.8-2.5 0-6.1-5-6.1-8.4 0-3.3 2.5-3.4 5.7-.4"/><path d="M665.5 806.7c-3.3.7-9.8 5.6-12.3 9.3-3.3 4.9-3.6 7.3-1.6 11.5 2 4.3 7.7 7.4 13.6 7.5 8.3 0 18.4-6.2 21-13 3.5-9.3-8.1-18-20.7-15.3m13.8 4.4c5.2 6.4-3 15.9-13.6 15.9-4 0-5.4-.5-7.8-2.9-3.2-3.2-3.5-4.7-1.7-8.5 2.2-5 8.7-7.8 16.3-7.1 3.5.3 5.5 1.1 6.8 2.6m5.1 3.5c1.6 4.3-.1 9.7-4.4 13.2-10.8 8.9-28 5.9-28-5 0-4.4 1.5-5.1 2.3-1 .7 3.6 4.8 6.3 10.2 6.9 8.1 1 17.8-6.1 17.8-12.8 0-3.2 1.1-3.8 2.1-1.3M712.3 857c0 3 .2 4.3.4 2.7.2-1.5.2-3.9 0-5.5-.2-1.5-.4-.2-.4 2.8M717.6 856.7c-.3 1-.8 2.3-1.1 2.9-.3.7.5 1.4 1.8 1.8 3.7.9 11.3 8.1 13.5 13 3.1 6.5 3.9 13.9 1.7 17.2-.9 1.4-1.3 2.9-.9 3.2.4.4.9.1 1.2-.7 1-2.9 4-5 6.4-4.4 1.6.4 2 .2 1.3-.5-.5-.5-1.9-1.2-3-1.4-1.5-.2-2.1-1.4-2.7-5.1-1.2-8.4-8.6-19.4-14.7-21.8-1.8-.7-2.2-1.4-1.7-3.4.7-2.8-.8-3.5-1.8-.8"/><path d="M722 857.9c0 .5 1.1 1.2 2.5 1.5 7.1 1.8 14.4 13 14.5 22.1.1 4.1.3 4.7 1.1 3.1 2.3-3.9-1.6-15.7-7.2-21.5-1.6-1.7-4.5-3.7-6.5-4.6-4.3-1.8-4.4-1.8-4.4-.6M712 875.1c0 1.1.5 1.7 1 1.4.6-.3 1-1.3 1-2.1s-.4-1.4-1-1.4c-.5 0-1 .9-1 2.1M708.7 883.2c-1.5 1.7-2.5 3.3-2.2 3.6.6.7 4.4-2.7 5.6-5 1.5-2.8-.3-2-3.4 1.4M698.8 889.8c-2.4 1.4-3.7 3.2-2.5 3.2 1 0 6.7-3.2 7.2-4.1 1-1.5-1.8-1-4.7.9M689.9 894.9c-3.2 2.6-2 3.5 1.5 1.2 1.5-1 2.3-2.1 1.8-2.5-.5-.3-2.1.3-3.3 1.3M671.9 897.9c-3.4 2.7-3.2 8.6.5 11.7 5 4.4 10.7 2.2 10.5-3.9-.2-2.8-.2-2.9-.6-.7-.7 3.5-2.1 5-4.9 5-3.6 0-6.6-3.5-6.2-7.3.3-2.9.7-3.2 4.3-3.7 3.8-.5 3.9-.6 1.8-1.8-2.8-1.5-2.7-1.5-5.4.7M644.5 912.9c-.3.6.4 1.5 1.7 2 3.4 1.3 5.6 4.2 6.7 8.7.9 3.7.9 3.7 1 .8.2-5-7.5-14.4-9.4-11.5M712.3 815c0 3 .2 4.3.4 2.7.2-1.5.2-3.9 0-5.5-.2-1.5-.4-.2-.4 2.8M712.3 828c0 3 .2 4.3.4 2.7.2-1.5.2-3.9 0-5.5-.2-1.5-.4-.2-.4 2.8M281.5 834.5c-5.8 3.1-6 3.4-6.3 7.6-.3 4.6-3.3 8.9-6.1 8.9-2.5.1-5.2 2.6-6 5.7-.5 1.8-2.3 3.8-5.4 5.7-4.6 2.8-4.6 2.8-8.2.8-4-2.4-4.9-1.1-1 1.4 2.2 1.5 2.5 2.3 2.5 8 0 5.8.2 6.5 3.3 9.3 1.7 1.7 3.7 3.1 4.3 3.1.5 0 3.1-1.4 5.7-3 2.6-1.7 5.1-3 5.5-3s1.8-.9 3.2-2 2.8-2 3.3-2c.4 0 .7 5.4.7 12 0 7.3.4 12 1 12s1-5.9 1-15.8c0-8.7.3-16.1.6-16.5.9-.9 3.4.4 3.4 1.8s3.2 4.5 4.6 4.5c1.9-.1 6.2-8.7 6.8-13.9.7-5 .5-5.6-1.9-7.5-2.3-1.9-2.6-3-3.2-10.9-.3-4.8-.9-8.9-1.2-9.2-.4-.2-3.3 1.1-6.6 3m6.3 5.3c.2 2.9 0 5.2-.4 5.2-1 0-9.3-5.4-9.4-6.2 0-.9 7.3-4.7 8.5-4.4.6.1 1.1 2.6 1.3 5.4m-8 2.8c5 2.5 14.6 12.3 13.4 13.7-.6.7-1 2.9-.9 4.9.1 2.9-.5 4.3-2.7 6.3-2.8 2.6-2.8 2.6-6-.9-8-8.7-7.6-7.9-7.6-17.1 0-4.7.2-8.5.3-8.5.2 0 1.8.7 3.5 1.6M275 855c0 2.2-.2 4-.4 4s-2.2-1-4.5-2.2c-4.1-2.2-4.5-3.8-1.1-3.8 1 0 2.2-.5 2.5-1 .3-.6 1.3-1 2.1-1 1 0 1.4 1.2 1.4 4m-3.5 4.2c2.4 1.3 4.5 2.7 4.5 3.3.1 3.1-3.6 9.6-6.1 10.9-3.4 1.7-4.1 1.2-2.7-2 1-2 .8-2.8-1.2-4.9-1.3-1.4-3.2-2.5-4.1-2.5-5 0-8.1 9.6-3.9 12.2 1.1.7 2 1.8 2 2.4 0 1.6-3.4 2.8-3.8 1.5-.2-.6-.9-1.1-1.6-1.1-1.9 0-3-10.1-1.3-11.7.6-.7 3.2-2.3 5.7-3.6 2.9-1.5 4.6-3.1 4.8-4.5.4-2.8 2.1-2.8 7.7 0m7.5 4.8c0 2-3.3 9-4.2 9-.6 0-.7-.8-.3-1.8.4-.9 1.1-3.2 1.7-5 .8-2.9 2.8-4.5 2.8-2.2m-17.3 2.7c-.4.3-.7 0-.7-.7s.3-1 .7-.7c.3.4.3 1 0 1.4m-1.4.9c.9 1-.4 3.4-1.9 3.4-1.6 0-1.6-.2-.8-2.4.6-1.7 1.6-2 2.7-1m5.7 3c0 2.7-3.5 6.8-5 5.9-.6-.4-1-1.1-1-1.6 0-.6.5-.7 1-.4.6.4 1-.5 1-2 0-2.1.4-2.6 1.6-2.1s1.4.1.9-1.5c-.5-1.5-.4-1.9.4-1.5.6.4 1.1 1.8 1.1 3.2m6 4.9c-.7.8-1.6 1.5-2.1 1.5s-3 1.3-5.6 3c-4.5 2.9-7.8 4.1-5.7 2.1 1.5-1.5 12.7-8.1 13.7-8.1.5 0 .4.7-.3 1.5"/><path d="M280.2 850.2c-1.8 1.8-1.4 5.2 1.1 8.9 2.9 4.4 7.3 5.2 8.2 1.6.8-3-1.6-7.9-4.7-10.1-2.7-1.9-3.1-1.9-4.6-.4m4.8 2.3c1.1 1.3 1 1.8-.6 3-2.5 1.9-3.1 1.8-3.8-.1-.6-1.6.9-4.4 2.4-4.4.4 0 1.3.7 2 1.5m3 6.5c0 1.3-.7 2-1.9 2-2.2 0-3.5-1.5-2.6-3 1.2-1.9 4.5-1.1 4.5 1M712.3 840.5c0 2.7.2 3.8.4 2.2.2-1.5.2-3.7 0-5-.2-1.2-.4 0-.4 2.8M210 851c0 1.1.5 2 1 2 .6 0 1-.9 1-2s-.4-2-1-2c-.5 0-1 .9-1 2M176.3 851.7c.9.9 2 1.3 2.4.9s.1-1.1-.7-1.6c-2.5-1.6-3.5-1.1-1.7.7M210 858.9c0 1.1.5 2.3 1 2.6.6.4 1-.5 1-1.9s-.4-2.6-1-2.6c-.5 0-1 .9-1 1.9M238 857.9c0 1.1 3.1 2.4 3.9 1.6.3-.3-.1-1-.9-1.5-1.9-1.2-3-1.2-3-.1M191.3 860.7c.9.9 1.9 1.4 2.3 1.1 1-1-.6-2.8-2.4-2.8-1.5 0-1.5.1.1 1.7M196.5 863c-.4.6-.4 1-.1 1 .2 0 1.1.3 2 .6s1.6.2 1.6-.4c0-1.4-2.8-2.3-3.5-1.2M203.6 867.3c.6 1.7 5.7 3.2 7.4 2.2 1.3-.8 1.3-3.5 0-3.5-.5 0-1 .5-1 1.1 0 1.1-1.6.9-5.3-.6-1.3-.5-1.6-.3-1.1.8M184.2 899c0 1.9.2 2.7.5 1.7.2-.9.2-2.5 0-3.5-.3-.9-.5-.1-.5 1.8M234.7 901.7c-.4.3-.7 5.2-.7 10.8 0 7.3.4 10.6 1.3 11.4 1.5 1.1 81.7 1.6 86.3.5 2.4-.6 2.4-.8 2.4-12V901h-44.3c-24.4 0-44.7.3-45 .7m87.1 11-.3 9.8-42.2.3-42.3.2v-20h85.1z"/><path d="M289.3 904.7c-.7.2-1.3 2.2-1.3 4.3 0 3 .5 4 2 4.5 1.1.3 2 1.5 2 2.6 0 2.2-1.1 2.4-2.8.7-.9-.9-1.2-.8-1.2.4 0 2.4 3.2 3.2 4.7 1.2 1.8-2.5 1.7-10.9-.3-12.8-.8-.9-1.6-1.6-1.7-1.5-.1 0-.8.3-1.4.6m2.7 4.3c0 3.1-1.6 4.1-2.6 1.5-.8-1.9.2-4.5 1.6-4.5.5 0 1 1.3 1 3M299.5 906.4c-3.2 4.8.2 16.3 3.7 12.8 1.9-1.9 1.6-11.9-.4-13.8-1.5-1.5-1.7-1.4-3.3 1m3.3 6.2c-.2 2.7-.7 4.9-1.3 4.9-1.1 0-1.9-7.9-1-10.3 1.1-3 2.6.5 2.3 5.4M247.5 906.1c-.6.8-1.8 3.1-2.8 5.2-1.7 3.8-1.7 3.8.8 4.7 1.6.6 2.3 1.5 1.9 2.5-.3.8-.2 1.5.4 1.5 1.4 0 1.8-3.5 1.2-9.9-.4-4.1-.8-5.1-1.5-4m.5 6.4c0 .8-.7 1.5-1.5 1.5-1.6 0-2-1.2-.8-2.3 1.1-1.2 2.3-.8 2.3.8M257.1 911.1c.1 3.6-.1 7.1-.5 7.7-.6 1.1 0 1.4 2.2 1.1.4-.1.6-.4.5-.8-.1-.3-.4-3.5-.8-7.1-.9-8.6-1.7-9.1-1.4-.9M278 906.5c0 .9.6 1.2 1.5.9 1.8-.7 2 1.7.3 3.4-.9.9-.8 1.5.7 2.6 1.2.9 1.6 1.9 1.1 3.1-.5 1.4-.9 1.6-1.8.7-1.9-1.9-3-1.4-1.8.8 1.3 2.5 3.7 2.6 4.4.2.3-.9.3-3.7.1-6.2s-.4-5.1-.4-5.8c-.1-1.7-4.1-1.5-4.1.3M266.4 912.9c.5.8 5.6.3 5.6-.5 0-.2-1.4-.4-3.1-.4-1.6 0-2.8.4-2.5.9M183.8 909.5c-.6 3-.3 4.3.8 3.3.3-.4.4-1.9.2-3.5-.3-2.8-.3-2.8-1 .2M524.7 918.7c-5.4 8.6-5.4 9.3-.5 9.3 1.8 0 2.8.5 2.8 1.5 0 .8.6 1.5 1.3 1.5 1.5 0 3.7-4.6 2.6-5.7-.4-.4-.9-2.8-1.1-5.2-.4-5.7-2.1-6.2-5.1-1.4m2.3 4.3c0 1.1-.7 2-1.5 2-1.5 0-2.1-2.1-.8-3.3 1.2-1.3 2.3-.7 2.3 1.3M549.2 919.2c-4.4 6.4-4.5 8.2-.4 8.6 2 .2 3.2.9 3.2 1.8 0 2.2 2 1.6 2.9-.9 1-2.9-.1-12.9-1.6-13.4-.6-.2-2.5 1.5-4.1 3.9m2.8 3.3c0 1.6-.6 2.5-1.5 2.5-1.8 0-2-2.1-.3-3.8s1.8-1.6 1.8 1.3M559.6 917.2c-1.9 2.7-2 9.6-.2 12 1.5 2.1 5.6 2.4 7.4.6 1.9-1.9 1.5-11.8-.5-13.4-2.6-2-5-1.7-6.7.8m5.8 2.4c1.7 4.4 0 10.1-2.8 9.1-1.1-.5-1.6-1.9-1.6-5 0-2.4.3-4.7.7-5 1.1-1.2 3.1-.7 3.7.9M536.3 917.4c-2.8 1.3-3 3.6-.3 3.6 1.7 0 2 .7 2 5.1 0 3.6.4 4.9 1.3 4.6.6-.2 1.2-.9 1.1-1.5-.1-.7-.2-3.9-.2-7.2-.2-6.3-.3-6.4-3.9-4.6M496.7 920.1c-.9.5-2.2.7-2.7.4-1.4-.8-2.8 3.2-2.2 6.2.4 2.2.8 2.4 6.6 2.1 5.5-.3 6.2-.6 7.4-3.1.8-1.6 2.1-2.7 3.3-2.7 1 0 1.9-.5 1.9-1 0-2.6-10.7-4-14.3-1.9m8 .5c2.1.6 2.1.6.1 4-2.1 3.6-2.7 3.8-7.7 2.8-2.4-.5-3.1-1.2-3.1-2.9 0-1.8.8-2.5 3.8-3.3 4.8-1.3 4.4-1.3 6.9-.6M183 923.5c0 1.9.2 3.5.4 3.5s.6-1.6.8-3.5 0-3.5-.4-3.5-.8 1.6-.8 3.5M598.8 921.7c-7.2.6-5.8 2.3 1.8 2.3 4.8 0 6.5-.3 6.2-1.3-.5-1.4-1.5-1.5-8-1M576.5 923c-.7 1.1-.5 1.2 3 1.2 8.2 0 10.6-.3 10-1.2-.3-.6-3.3-1-6.5-1s-6.2.4-6.5 1M183.1 935.2c0 2.8.2 3 .9 1.3 1.2-2.8 1.2-4.5 0-4.5-.5 0-1 1.5-.9 3.2M136.4 944.7c-2.4 1.8-4.4 6-4.4 9.5 0 3 .6 4.1 2.8 5.5 1.5 1 3.3 2.4 4.1 3.1 1.3 1.3 4.7.8 6.6-.9 1.2-1.2 4.2-1.1 5 .1.6.9-1.4 15.9-3.6 27.5-2.3 12.1-5 31.6-4.7 32.7.3.7 1-2.1 1.7-6.2.6-4.1 1.6-10 2.1-13 .6-3 1.7-10.2 2.5-16 2.3-16.9 3.7-23 5.2-23 .7 0 2.9.9 4.9 1.9 2.9 1.6 4.1 1.7 6 .9 3.1-1.4 3.3-1.1 4.1 5.1.8 6.7 2.2 7.6 1.5 1-.5-5-.5-5 2.2-4.3 3.8.9 3.2-.3-1.4-2.6-2.3-1.2-4.5-3.2-5-4.5-.6-1.7-3.2-3.5-8.5-5.9-5.7-2.7-7.5-3.9-7.5-5.5 0-1.1-1-2.7-2.2-3.5-2.8-1.7-9.9-2.9-11.4-1.9m4 .9c.9.3 1.4 1 1.1 1.5-.7 1-3.5 0-3.5-1.2 0-1.1.3-1.1 2.4-.3m-1.8 4.8c-.3 1.1-.6 2.4-.6 2.8 0 .5-.9.8-2 .8-2.2 0-2.8-3.8-.9-5.7 1.8-1.8 4.1-.3 3.5 2.1m9.4-1.4c0 1.4-.6 1.9-2.2 1.7-3.3-.3-5.2 4-3.2 7.1 1.8 2.7.7 4.6-2.2 4-3.5-.6-3.1-7.4.7-12.1 2.5-3.3 6.9-3.7 6.9-.7m-3.7 5c-.3 1.2-.8 1.9-1.1 1.6-.5-.6.5-3.6 1.2-3.6.2 0 .2.9-.1 2m4 1c-.6 2.2-2.1 3.5-3 2.7-.2-.3-.2-1.5.2-2.6.8-2.8 3.5-2.8 2.8-.1m3.7.3c0 1.9-2.7 5.3-3.6 4.5-.9-1 1.2-5.8 2.6-5.8.5 0 1 .6 1 1.3m-15.5.7c1.1 1.7-.5 3.2-2.1 1.9-.7-.6-1.1-1.5-.8-2 .7-1.2 2.1-1.1 2.9.1m18.5.9c0 1.7-1.2 4.1-2.1 4.1-1 0-1.2-3.3-.2-4.3.9-1 2.3-.9 2.3.2m2.6 3.6c-.7 2.9-2.6 3.4-2.6.7 0-1.8 2-4.5 2.8-3.7.2.2.2 1.6-.2 3m4.4-1c0 1.2-2.4 5.5-3.2 5.5-.9 0-1.1-2.2-.2-4.4.5-1.4 3.4-2.4 3.4-1.1m3 2.9c0 1.6-2.8 4.2-3.6 3.3-.3-.3-.3-1.5.1-2.6.7-2.3 3.5-2.9 3.5-.7M183.1 946.7c0 2.5.1 2.6.9.8 1.2-2.7 1.2-3.5 0-3.5-.5 0-1 1.2-.9 2.7M183.4 958c.1 3.9 1.6 3.9 1.6 0 0-1.7-.4-3-.9-3-.4 0-.8 1.3-.7 3"/><path d="M258.8 959.8c-4.6 2.5-4.7 2.5-8.5.9-5.6-2.6-10.8-2.5-13.6.1-1.3 1.2-3.3 2.2-4.5 2.2s-2.9 1.1-3.8 2.5-2.6 2.5-3.8 2.5c-1.1 0-4.8 1.9-8.1 4.1-5.2 3.4-6.5 3.9-9.8 3.3-3.3-.5-4.1-.2-6.2 2.3-1.5 1.6-2.5 4.1-2.5 5.8 0 2.2-.7 3.3-2.5 4.1-2.9 1.4-3.5.9-3.5-3 0-3.8-.6-4.7-4.5-6.6-2.6-1.4-3.4-1.4-6-.1-3.6 1.7-5.4 3.9-5.5 6.5 0 1.9-.1 1.9-2-.2-1.2-1.2-2.6-2.2-3.1-2.2-2.3 0-8 3.4-9.9 5.8-3.2 4-2.3 4.5 1.3.7 3.9-4.3 8.4-5.4 11.2-2.8 3.3 2.9 9.8 13.1 9.1 14.1-.7 1.1-9.2 3.2-13 3.2-1.8 0-3.2-1.3-5.6-5-1.8-2.8-3.4-5-3.6-5-.6 0 1.4 3.8 3.7 7.2 1.1 1.4 1.9 3.2 1.9 4 0 1 1 1.3 3.4 1 4-.5 7.1 2 10.5 8.4 1.1 2.1 2 3.3 2.1 2.6 0-1.6-2.6-5.9-5.8-9.4-1.9-2.1-2.2-2.8-1.1-3.2.8-.2 3.4-.9 5.9-1.6 6.1-1.6 11-5.4 11-8.5 0-1.7.9-2.9 3-4 3.7-1.9 4-1.9 4 .3 0 .9 1.6 4 3.5 6.9 3.8 5.7 5.3 11.9 3.6 15-.9 1.7-19.7 13.3-21.5 13.3-.3 0-.6-.9-.6-2s-.4-2-1-2c-.5 0-1 1.3-1 2.9 0 3.9-2.9 4.9-7 2.4-1.6-.9-3-2.1-3-2.5s-.6-.8-1.2-.8c-2.3.1 5.5 6 7.9 6 1.2 0 4.8-1.5 8-3.4 12.7-7.3 15.6-8.7 16.2-7.7.4.5 1.2-.3 2-2 2.3-5.3 3.5-3.7 4.7 6.3.3 3.2.2 5.8-.2 5.8-1.9 0-3.3-1.7-4.2-5-.7-2.5-1-2.8-1.1-1.3-.2 4.1 1.9 7 5.9 8.2 4.6 1.4 7.7 1.4 8.5.1 1.2-1.9 3.1-1 8.2 3.9s5.1 4.9 6.4 2.3c.9-1.6 1-2.7.4-2.9-.5-.2-3.2-1.6-6-3.1-4.9-2.7-5-2.7-6.2-9.7-1.7-10.2-1.7-11.5.7-11.5 2.6 0 11.2-4.3 12.9-6.4.8-.9 1.9-1.6 2.6-1.6.8 0 2.2-1.1 3.3-2.5 1.2-1.5 3-2.5 4.5-2.5 1.4 0 3.2-.6 4-1.4s3-2.1 5-3c4-1.6 7.7-7.6 7.7-12.4 0-2.2 1-3.5 4.6-6.1 4.4-3 4.6-3.4 4.1-6.8-.6-3.6-2.9-6.8-5.7-8.2-.9-.5-3.3.2-6.2 1.7m7.3.5c2.1 1.6 3.9 5.1 3.9 7.6 0 1.4-1.3 2.7-4 4.1q-6 3.15-6-.3c0-.7-.9-2.3-2-3.7-2.7-3.5-2.5-4.7 1.3-7 3.7-2.3 4.6-2.4 6.8-.7m-18.5 1.6c4 2.4 7.8 7.5 9.5 12.6 1.5 4.5 2.9 6.7 2.9 4.4 0-.7-1.5-4.4-3.4-8.1-3.7-7.4-3.1-8.3.8-1.5 2.8 4.9 4.4 11.7 2.7 11.7-.6 0-1.1 1.1-1.1 2.4 0 3-4.2 8.2-5.8 7.2-.9-.5-.9-1.3-.2-2.6 1.5-2.9 1.2-7-1.1-12-2.6-5.7-5.3-8.6-10.4-11.2s-5.2-2.7-3.5-3.8c2.4-1.5 6.3-1.1 9.6.9m-5 6.7c7.1 7.2 10.5 19 6.8 24.2-.8 1.2-2.3 2.2-3.3 2.2-1.5 0-1.8-.9-1.8-5.8 0-8.6-5.2-16.7-12.5-19.7-3.3-1.3-3.8-1.8-2.8-3 .8-.9 3-1.5 5.6-1.5 3.7 0 4.9.6 8 3.6m-12 3.3c6.9 4.2 13 18.6 10.3 24.4-2.1 4.7-3.6 4-4.2-2-.3-3.1-1.1-6.1-1.7-6.7-.8-.8-.9-.3-.3 1.9 1.5 5.6.9 10.6-1.6 12.6-3.1 2.6-3.8 2.4-3.4-.9.3-1.5 0-3.8-.6-5.2-.8-2.1-1-1.7-1 3-.1 6.2-1.3 8-5 8-2.6-.1-2.6-.1.2-2.1 1.5-1.1 2.7-2.6 2.7-3.2s-1-.1-2.2 1c-1.3 1.1-3.1 2.3-4.1 2.6-1.2.5-1.6 1.4-1.2 2.9.2 1.3.9 5.7 1.4 9.8 1.1 8.5 0 11-5 11-2.5 0-2.8-.4-3.8-5.3-2.3-11.9-3.1-17.3-3.1-21.5 0-3.4-.3-4.3-1.4-3.9-.9.4-2.4-.9-4-3.3-2.1-3.1-2.6-5.2-2.6-9.8 0-3.2.5-6.3 1.2-7 1.5-1.5 5.2-1.5 8.1 0 1.2.6 2.9 1.4 3.7 1.8s1.8 2.2 2.1 4.1c.6 3.1.6 3.1.8.6 0-1.5.5-2.7 1-2.7 1.5 0 7.1 7.3 7.1 9.2 0 .9.5 2 1.1 2.4.9.5 1-.1.5-2.2-.6-2.9-.6-2.9.9-.4 2.2 3.8 1.8 1.5-.6-3.2-2.3-4.5-5-7.5-9.2-10.3-2.2-1.4-2.5-2-1.5-3.2 2.7-3.3 11.6 1.4 15.8 8.2 1.2 2 2.4 3.4 2.7 3.1 1-1-5.3-8.8-9.3-11.5-2.4-1.5-4.1-3.1-3.7-3.5 1.3-1.2 6.9-.5 9.9 1.3m20 3.3c.8 1.6 1.4 3.6 1.2 4.3-.2.8-1.6-1.1-3.1-4.2-1.8-3.7-2.3-5.2-1.2-4.3.9.7 2.3 2.7 3.1 4.2m-8.6 7.6c1.2 3 1.9 6.2 1.7 7.1-.2 1-.7.5-1.2-1.4-1-3.9-5.2-12.2-6.5-13-.5-.3-1-1.1-1-1.7 0-2.6 5.1 4 7 9m-25.4-3c-.4.3-1.4-.2-2.4-1.2-1.6-1.8-1.6-1.8.6-.6 1.3.6 2.1 1.4 1.8 1.8m-27.3.6c1.3 1 1.7 2.8 1.7 7.9 0 5.9-.3 6.8-2.6 8.6-3.4 2.7-3.6 2.6-5.6-.7-.9-1.5-2.6-3.8-3.8-5.2-1.7-1.9-2-3.2-1.5-6 .3-1.9 1.4-4.1 2.3-4.8 2.1-1.6 7.2-1.5 9.5.2"/><path d="M205.5 982.2c-1 2.5-1.1 4.6-.3 8.8 1.4 7.9 2 7.5 1.2-.8-.6-6.2-.4-7.5 1.1-9.2 1.1-1.2 1.3-2 .6-2s-1.8 1.5-2.6 3.2M209.7 982.7c-.4.3-.7 1.5-.7 2.7 0 2 0 2 1.5 0 .8-1 1.5-2.2 1.5-2.7 0-.9-1.4-.9-2.3 0M216.5 993.8c.3 3.5.9 7.1 1.5 8 .6 1.2.7 0 .3-3.8-.9-8.4-2.4-11.7-1.8-4.2M226.2 997.5c0 1.6.2 2.2.5 1.2.2-.9.2-2.3 0-3-.3-.6-.5.1-.5 1.8M214.2 1022.7c-1 1.9-.6 4.3.7 4.3.4 0 .8-1.4.8-3 0-3.5-.3-3.7-1.5-1.3M183.7 966.7c-1.1 1-.8 5.3.3 5.3.6 0 1-1.4 1-3 0-3.1-.2-3.5-1.3-2.3M188.5 975c.9 1.4 7.6 4.1 8.9 3.7.6-.2-1-1.4-3.6-2.5-5.2-2.5-6.2-2.7-5.3-1.2M170.1 988.7c0 1 .4 2.7.9 3.8.7 1.6.9 1.3.9-1.8.1-2-.3-3.7-.9-3.7-.5 0-1 .8-.9 1.7M172 996.9c0 1.1.4 2.2.9 2.5.4.3.6-.6.3-1.9-.5-3-1.2-3.3-1.2-.6M179 1006.5c0 .2 1.8 1.4 4 2.5s4 1.7 4 1.2-1.6-1.6-3.5-2.5c-3.8-1.8-4.5-2-4.5-1.2M165 1010c0 .7.3 1 .7.7.3-.4.3-1 0-1.4-.4-.3-.7 0-.7.7M191.2 1012.2c.5 1.4 6.8 4.2 6.8 3 0-.5-1.6-1.6-3.6-2.5-2.4-1.2-3.5-1.4-3.2-.5M166 1015.4c0 1.1 3 6.6 3.6 6.6.2 0-.3-1.5-1.2-3.3-1.9-3.6-2.4-4.4-2.4-3.3M140.8 1027c-.4 1.9-1 6-1.2 9-.6 5.5-.6 5.5 1-1 .8-3.6 1.3-7.6 1.2-9-.3-2.1-.4-2-1 1M137 1050.6c-.7 4.7-1 8.7-.7 9 .2.3.9-2.8 1.5-6.9s1.4-8.1 1.8-9c.3-1 .2-1.7-.3-1.7-.6 0-1.6 3.8-2.3 8.6M236 1042.6c0 1.3 5.8 6.9 6.5 6.3.2-.3-1.1-2.1-3-3.9-1.9-1.9-3.5-2.9-3.5-2.4M249 1055.5c1.9 1.9 3.8 3.5 4.4 3.5.5 0-.5-1.6-2.4-3.5s-3.8-3.5-4.4-3.5c-.5 0 .5 1.6 2.4 3.5M134.8 1063.5c-.6 3-.3 4.3.8 3.3.3-.4.4-1.9.2-3.5-.3-2.8-.3-2.8-1 .2M256 1061.6c0 1.3 5.8 6.9 6.5 6.3.2-.3-1.1-2.1-3-3.9-1.9-1.9-3.5-2.9-3.5-2.4M185.6 1065.5c-.9.9-1.6 2.1-1.6 2.6 0 2.3 2.2 4.9 4 4.9 2.4 0 2.6 1.3.4 3.1-1.3 1-1.7 1-2.5-.2-.5-.8-.9-.9-.9-.3s.6 1.7 1.3 2.3c1.1.8 1.8.6 3.2-.9 2.1-2.3 1.6-9.3-.8-11.7-1.2-1.3-1.6-1.2-3.1.2m3.8 4.6c-.3.5-1.2.9-2 .9-1.4 0-2-3.1-.7-4.4.9-.9 3.4 2.4 2.7 3.5M195 1065.9c-.5 1.1-1 3.4-1 5.1 0 6.1 3.7 9.2 6 5 1.3-2.4-.3-6-2.5-6-.9 0-1.5-.9-1.5-2.1 0-1.6.5-2 2-1.6 2.4.6 2.7-.8.4-1.7-2.2-.8-2.2-.8-3.4 1.3m3.5 7.9c0 3.1-1.9 2.8-2.3-.4-.3-1.8 0-2.5 1-2.2.7.3 1.3 1.4 1.3 2.6M215 1065.9c-.5 1.1-1 3.4-1 5.1 0 6.2 3.7 9.2 6.1 4.9 1.5-2.8.3-10.5-1.7-11.3-2.2-.8-2.2-.8-3.4 1.3m4.2 3.7c.9 3.5.2 6.4-1.6 6.4-1.4 0-2.9-7.6-1.9-9.3.9-1.5 2.7-.1 3.5 2.9M225.4 1064.8c-.6.4-1.1 3.1-1 6.1.1 4 .6 5.7 1.9 6.5 2.8 1.7 4.6-1.4 3.9-7.2-.4-4.1-1.5-6.2-3.2-6.2-.3 0-1 .4-1.6.8m3.6 2.7c0 .8-.7 1.5-1.5 1.5s-1.5-.7-1.5-1.5.7-1.5 1.5-1.5 1.5.7 1.5 1.5m-.2 6.2c-.5 2.5-2.8 2.8-2.8.4 0-1.2.6-2.1 1.6-2.1.9 0 1.4.7 1.2 1.7M235.3 1064.7c-.7.2-1.3 1.2-1.3 2 0 1.2.3 1.3 1.5.3 2.7-2.2 4.7.7 2.2 3.2-.8.7-2 2.4-2.6 3.7-1.1 1.9-1.1 2.5 0 3.2 1.9 1.2 4.9 1.1 4.9-.1 0-.6-.9-1-2-1-2.5 0-2.5-.8 0-4 2.4-3 2.6-6.6.4-7.4-.9-.3-1.6-.6-1.7-.5-.1 0-.8.3-1.4.6M244.7 1064.7c-1.4 1.3-.7 10.1.9 11.8 2.6 2.6 4.4.1 4.4-6 0-3.9-.4-5.4-1.6-5.9-2-.8-2.9-.8-3.7.1m4.1 6.2c.3 3.7.1 4.2-1.5 3.9-1.9-.3-3-4.6-1.9-7.5 1.1-2.8 3.1-.7 3.4 3.6M156 1066.5c-1.8 2.1-.4 6.5 2 6.5 1.4 0 2 .7 2 2.1 0 1.7-.5 2-2.5 1.7-2-.4-2.3-.3-1.4.8 2.9 3.5 6-.6 5.1-6.6-.7-5.6-2.8-7.4-5.2-4.5m4 2.4c0 1.1-.4 2.2-.8 2.5-1.4.9-3.5-1.2-2.9-2.8.9-2.3 3.7-2 3.7.3M165.5 1067c-1 3 .4 6 2.6 6 1.4 0 1.9.5 1.7 1.7-.2 1.1-1.2 1.8-2.5 1.7-1.3 0-1.9.4-1.6 1.3.7 1.8 2.8 1.6 4.4-.3 1.2-1.5 1.4-7 .3-10.7-.7-2.3-4.1-2.2-4.9.3m4.5 1.8c0 2.4-.8 3.2-2.6 2.5-2.2-.8-1.7-4.3.6-4.3 1.3 0 2 .7 2 1.8M175 1066c0 .5.9 1 2 1 2.4 0 2.4.1.5 4.7-.9 2-1.3 4.4-.9 5.2.5 1.1.9.5 1.4-1.9.4-1.9 1.1-5 1.5-6.8.7-3 .6-3.2-1.9-3.2-1.4 0-2.6.4-2.6 1M358.7 1072.2c-5.5 7.4-5.9 9.8-1.7 9.8q3 0 3 1.5c0 2.6 3.7 1.7 4.2-1 .3-1.4.1-2.8-.3-3.1-.5-.3-.9-2.5-.9-4.9 0-5.7-1.3-6.3-4.3-2.3m2.3 4.8c0 1.1-.7 2.3-1.5 2.7-2.1.8-2.8-.1-2-2.6.8-2.7 3.5-2.7 3.5-.1M372.1 1070.3c-.7 1-2 1.7-2.7 1.7-.8 0-1.4.7-1.4 1.5s.9 1.5 2 1.5c1.7 0 2 .7 2 4.9 0 2.8.4 5.2.9 5.6 1.6.9 1.8-.7 1.2-8.9-.5-6.9-.8-7.7-2-6.3M382.4 1073.5c-3.7 6.4-3.6 7.9.4 8.3 2 .2 3.2.9 3.2 1.8 0 2.2 1.4 1.6 2.7-1.1.6-1.4.7-2.7.2-3.1-.5-.3-.9-2.7-.9-5.5 0-6.4-2-6.5-5.6-.4m3.6 3.5c0 2.3-1.2 3.1-2.9 2.1-1-.7-1.1-1.3-.2-3 1.4-2.4 3.1-1.9 3.1.9M393.2 1070.3c-1.2 1.3-1.6 4.5-1.4 9.4.2 3.6 3.8 6.8 6.4 5.8 3.6-1.4 4.8-8.6 2.3-13.5-1.7-3.2-5.4-4.1-7.3-1.7m5.3 7.2c0 4.3-.3 5-2 5-1.6 0-2.1-.8-2.3-3.9-.4-4.9.3-6.8 2.5-6.4 1.4.3 1.8 1.4 1.8 5.3M134 1071.7c0 .9 2.2 1.3 7.5 1.3 9.8 0 9.7-1.7 0-2.2-5.5-.2-7.5 0-7.5.9M206 1072c0 .5.9 1 2 1s2-.5 2-1c0-.6-.9-1-2-1s-2 .4-2 1M269 1075.5c4.3 4.4 4.7 4.6 9.5 4.3 6.6-.4 6-2.2-.8-2.6-4.5-.2-5.9-.8-8.2-3.2-1.6-1.7-3.3-3-3.9-3s1 2 3.4 4.5M330.7 1073.7c-.4.3-1.7.7-3 .8-1.9.1-2.2.7-2.2 4.1 0 3.7.1 3.9 4 4.6 5.6.9 8.1.1 9.5-3.3.7-1.7 1.9-2.8 2.8-2.7 2.7.5 2.5-2.2-.3-3.2-3-1.1-9.8-1.3-10.8-.3m9.1 1.2c1.1.7 1.1.9-.1 1.4-.9.3-1.7 1.6-1.9 2.9-.3 2.1-.8 2.3-5.2 2.1-4.8-.1-6.9-1.5-6-3.8 1-2.6 10.4-4.4 13.2-2.6M288.7 1077.6c-1.4 1.5.7 2.4 5.3 2.4 5.5 0 8.3-.8 7.4-2.1-.6-1-11.7-1.2-12.7-.3M306.5 1077.9c-.3.5-.1 1.2.5 1.6 1.4.9 13.1-.6 12.4-1.6-.7-1.2-12.1-1.1-12.9 0M823.9 1107.4c-.2.2-22 .6-48.4.9s-48 .6-48 .6c-.4.6.7 171.3 1.1 172.9.4 2.2.4 2.2 66.2 2.2 36.1 0 68.6-.3 72.1-.7l6.3-.6-.7-80c-.4-44-1-83.4-1.4-87.6l-.6-7.6-23.1-.3c-12.7-.1-23.2-.1-23.5.2m45.9 17.3.3 15.3h-67.4l4.1-2.9c8.7-6.4 7.5-18.9-2.3-23.5-8.5-4.1-17.5 2.4-17.5 12.4 0 5 2 8.7 6.3 11.7 3.2 2.3 3.2 2.3-30.6 2.3H729v-28.9l12.3-.3c6.7-.2 31.1-.5 54.1-.6 23.1-.1 42.2-.4 42.4-.7.2-.2 7.4-.3 16.1-.2l15.6.2zm-63.2-8.2c3.3 2.1 4.7 6 4.1 11.3-1 9.6-13 13.4-19.1 6.1-5-5.8-4.6-11.1 1-16.7 3.1-3.1 3.9-3.4 7.5-2.9 2.2.3 5.1 1.3 6.5 2.2m63.1 25.9c.4.3 1.3 43.9 1.8 91.8l.6 46.8h-14.8c-8.1 0-39.9.3-70.5.7-46.8.5-55.8.3-56.2-.8-.3-.8-.6-32.1-.8-69.6l-.4-68.2 16.1-.3c8.8-.2 36.9-.4 62.5-.6 25.5-.2 46.7-.6 47-.8.4-.5 14.1.5 14.7 1"/><path d="M795 1122.4c-1.4 1.8-.7 2 2 .6 2-1.1 5-.4 5 1.1 0 .5-1.1.9-2.3.9-3 0-6.2 3.4-5.3 5.6.5 1.4 1.5 1.5 5.8 1 2.9-.4 5.4-.8 5.5-1 .1-.1-.4-2.2-1.1-4.6-1.2-4.1-1.6-4.5-4.8-4.8-2.2-.2-3.9.3-4.8 1.2m7.8 5.8c-.5 1.5-6.8 2.4-6.8 1 0-1.5 1.3-2.2 4.3-2.2 1.8 0 2.7.4 2.5 1.2M781.5 1150l-23 .5v24l21.1.3 21.1.2.2 14c.2 14 .2 14-3.8 17.8-4.7 4.5-4.9 5.3-1.8 8.3 2.2 2.1 2.2 2.1-2.2-.1-4.7-2.3-6-1.9-6.6 2.1-1.8 10.6-2.6 12.1-8.5 15.1-4.9 2.4-6 4-6 8.2 0 3.9.3 4.3 5.3 7.1 2.8 1.6 7 3.2 9.2 3.5 3.4.4 4 .9 4.1 3 0 1.4.9 4.4 1.8 6.7 1.4 3.4 2.7 4.6 7.3 6.8 4.5 2.3 5.9 2.5 7.9 1.6 1.3-.6 2.4-1.6 2.4-2.3 0-3.5 5.7-15.2 8.3-17.2 1.6-1.1 3.5-3.3 4.3-4.8 1.6-3.1 1.9-9.4.5-10.3-.5-.3-.7-3-.4-6 .6-5.3.5-5.6-3.1-8.8-2-1.9-4.1-4.9-4.6-6.8-.8-2.7-2-3.9-6.1-5.9-2.8-1.4-5.2-2.7-5.4-3s-.6-6.9-1-14.8l-.7-14.2h19c10.4 0 20.4-.3 22.1-.6 3.1-.7 3.1-.7 3.1-12.5 0-10.6-.2-11.9-1.7-12-5-.4-42.6-.3-62.8.1m-6 3c2.8.4 4.4.8 3.8.9-.8.1-1.3 1.8-1.3 4.7 0 4.1.2 4.5 2 3.9 1.7-.5 2-.2 2 2.4 0 3.3-.8 3.9-2.8 1.9-.9-.9-1.2-.8-1.2.5 0 2.3 2.6 3.3 4.5 1.7 2.4-2 1.9-6.7-1-8.6-3-2-3.2-3.4-.4-4.1 1.1-.3 1.8-1.1 1.5-1.8-.5-1.4 5.5-2.5 14-2.5 5.8 0 6.2.3 3.9 2.6-2.8 2.9-1.3 8.3 2.7 9.6.7.3.9 1.2.5 2.2-.6 1.5-1 1.6-2.2.6s-1.5-1-1.5.3c0 2.4 2 3.1 3.7 1.4 2-2 2.3-8.2.6-12.6-.7-1.8-1.3-3.5-1.3-3.7 0-.3 9.1-.3 20.3-.2l20.2.3v20l-41.2.3-41.3.3-.1-3.8c-.1-2.1-.3-6.5-.4-9.8s0-6.3.2-6.8c.5-.9 8.2-.8 14.8.3m28.5 6c0 3.5-1.4 3.9-3 1-1.2-2.3-.6-4 1.6-4 .9 0 1.4 1.1 1.4 3m8 52.2c0 .4-.8 1.2-1.8 1.7-1.4.7-3.2.3-7-1.6-2.9-1.4-5.2-2.9-5.2-3.3s1-1.1 2.2-1.7c1.7-.8 3.3-.4 7 1.6 2.6 1.4 4.8 2.9 4.8 3.3m-10 1.3c4.5 2.3 6.2 4.6 4.2 5.8-.9.6-8.2-2.8-10.1-4.7-1.2-1.2-.9-3.6.5-3.6.3 0 2.7 1.1 5.4 2.5m12 6.8c0 3.5.3 6.6.6 7 .4.3 1.7-.1 3-.9 1.3-.9 2.8-1.3 3.4-.9 1.3.8 1.3 3.5 0 5.5-.9 1.3-1.2 1.3-2-.2-.9-1.4-1.5-1.5-3.5-.6-3.3 1.5-4 .6-3.7-5.2.2-4.4 0-5-1.8-5-1.1 0-2-.6-2-1.4 0-1.3 3.6-4.4 5.3-4.5.4-.1.7 2.8.7 6.2m-20.2-2.3c2.3 1.1 4.2 2.7 4.2 3.5s-.3 1.5-.7 1.5c-1.6-.1-8.7-4.5-9.1-5.8-.5-1.7.8-1.5 5.6.8m10.5 2.7c5.1 2.9 6.3 4.3 4.6 5.4-2 1.3-2.9 1.1-2.9-.6 0-.8-1.7-2.6-3.7-4-4.3-2.8-2.7-3.4 2-.8m11.7-1.2c0 .3-.2.5-.5.5s-.5-.2-.5-.5.2-.5.5-.5.5.2.5.5m-21.6 4c4.2 2.5 4.3 2.6 3.2 6-1.4 4.4-4.1 4.3-4.2-.1s-1.2-5.7-4.5-5c-3.1.6-3.7-.2-1.7-2.2 1.7-1.7 2.4-1.5 7.2 1.3m8.5-.1c.8.9 1 2.8.5 5-.5 2.9-.3 3.6 1 3.6.8 0 2-.9 2.6-2 1.5-2.8 2.5-2.5 2.7.9.2 2.3-.4 3.1-2.5 4-7 2.9-18.7 10.9-19 12.9-.5 3.2-2.2 2.7-2.2-.6 0-2 .9-3.3 3.5-5 1.9-1.2 3.8-2.2 4.3-2.2 2.1 0 4.9-4 4.5-6.3-.3-1.4.1-3.5.8-4.8s1.2-3.4 1-4.7c-.3-2.5 1.1-2.9 2.8-.8m17.1-.5c0 1.1-3.9 2.5-4.7 1.8-.3-.3-.2-1 .2-1.6.8-1.3 4.5-1.5 4.5-.2m-29 3.3c-.1.7-2.3 3.8-5 6.8-2.8 3-5 5.8-5 6.2 0 .5-.7.8-1.5.8s-1.5-.7-1.5-1.5c0-.9-.6-1.2-1.5-.9-.8.4-1.5.1-1.5-.6s.8-1 2-.7c1.5.4 3.3-.9 7.2-5.4 5.1-5.9 6.8-7 6.8-4.7m15 2.8c0 .5-.5 1-1.1 1-.5 0-.7-.5-.4-1 .3-.6.8-1 1.1-1 .2 0 .4.4.4 1m-14 3.4c0 .7-1.6 2-3.6 2.9-3.8 1.8-3.8 1.1-.1-3 2-2.3 3.7-2.2 3.7.1m26.3 2.8c1.7 2.3 1.8 3.1.8 5.6-1.6 3.8-7.8 7.2-14.4 7.8-5.8.6-12.7-.6-12.9-2.1-.1-.6 3.9-3.3 8.8-6 4.9-2.8 10-5.8 11.4-6.8 3-2.1 3.8-1.9 6.3 1.5m-22.5.9c-.5 1.5-9.8 6.8-12 6.9-3.6 0-1.7-2.8 3.5-5.3 5.6-2.8 9.1-3.4 8.5-1.6m27.2 3.7c0 6.5-10.1 12.2-21.5 12.2-5.7 0-11.5-1.6-11.5-3.2 0-.6.7-.7 1.8-.2 3.3 1.6 16.5 1.6 20.2 0 6.1-2.5 8.5-5.2 8.5-9.7 0-3.5.1-3.8 1.2-2.3.7 1 1.3 2.4 1.3 3.2m-41.5 3.8c1.5 1 2.5 2.6 2.5 4 0 1.3-.2 2.4-.4 2.4-1.8 0-10.6-6.6-10.6-8 0-2.6 1.2-3.1 3.7-1.5 1.3.8 3.4 2.2 4.8 3.1m17.7 15.9c2.5 4.8 3.5 8.5 2.2 8.5-1.6 0-6.5-4.4-7.8-7.2-2.3-4.6-2.1-7 .7-6.6 1.5.2 3.1 1.9 4.9 5.3m11.8-4c0 3.1-2.2 11.5-3.2 12.1-1.1.7-.3-11 .8-12.8.8-1.3 2.4-.9 2.4.7m3-1.1c0 .3-.4.8-1 1.1-.5.3-1 .1-1-.4 0-.6.5-1.1 1-1.1.6 0 1 .2 1 .4m-9.7 3c1.6 2.3 2.1 10.6.8 10.6-1 0-6-11.3-5.4-12.3.9-1.4 3.1-.7 4.6 1.7m2.4-.7c-.4.3-.7 0-.7-.7s.3-1 .7-.7c.3.4.3 1 0 1.4"/><path d="M821.1 1155.9c-1.5 3.4-.3 6.4 3 8.1 1.6.9 1.8 1.4.8 2.6-.9 1.1-1.5 1.2-2.6.2-1.3-1-1.5-.9-1.2.6.5 2.3 1.9 2.9 3.7 1.7 1.8-1.1 2.4-10.2.9-13.1-1.7-3.4-3.3-3.5-4.6-.1m3.7 3c.3 2.4 0 3.2-1 2.9-.7-.3-1.4-1.9-1.6-3.7-.3-2.4 0-3.2 1-2.9.7.3 1.4 1.9 1.6 3.7M831.6 1155.2c-2.2 3.1-2 10 .3 12.9 1.9 2.3 1.9 2.4 4 .5 1.2-1.1 2.1-2.4 2.1-2.9 0-.6-.9-.2-1.9.7-2.9 2.6-4.1 1.2-4.1-4.9 0-5.8 1.5-7.9 3.7-5 1 1.5 1.3 1.5 1.3.4 0-1.6-1.9-3.9-3.1-3.9-.5 0-1.5 1-2.3 2.2M811.9 1154.4c-1 1 .3 15.6 1.4 15.6.8 0 1.1-2.2.9-7.2-.3-6.6-1.1-9.6-2.3-8.4M769.8 1157.2c-2.2 3.7-3.7 7.6-3.1 8.2.4.3 1.5.6 2.5.6 1.1 0 1.8.7 1.8 2 0 1.1.4 2 .9 2 .7 0 .4-14-.4-14.8-.1-.1-.9.8-1.7 2m1.2 4.7c0 1.2-2 2.5-2.7 1.8s.6-2.7 1.8-2.7c.5 0 .9.4.9.9M788 1162c0 .5 1.6 1 3.6 1 2.1 0 3.3-.4 2.9-1-.3-.6-1.9-1-3.6-1-1.6 0-2.9.4-2.9 1M182.6 1246.5c-7.6 4.7-14.2 8.5-14.7 8.5s-.9-1.6-.9-3.5c0-2.5-.6-3.7-2.1-4.6-1.2-.6-2.5-.7-2.9-.2-.4.4-3.2 5.5-6.2 11.3s-6.9 13-8.6 16.2l-3.2 5.6 4.3 2.5c6.7 4 18.4 9.7 19.7 9.7.9 0 1-1.5.6-5-.7-5.8-2.3-4.4 19.4-17.3l15.5-9.3-.3-9.9c-.1-5.5-.6-10.3-1-10.7-.4-.3-1.8-.9-3.2-1.2-1.9-.4-5.7 1.4-16.4 7.9m18.4-.6c0 2.1.3 5.8.6 8.2.5 4.4.5 4.4-5.7 8.4-3.5 2.2-7.2 4.5-8.4 5.1-1.1.6-6.3 3.6-11.5 6.6-9.5 5.6-9.5 5.6-9.6 9.7 0 2.3-.3 4.4-.7 4.7-1.1 1.1-15.7-7-15.7-8.7 0-1 1.7-4.6 3.8-8 2.2-3.5 5.4-9.2 7.2-12.6 3.6-6.7 5-7.2 5-1.7 0 1.9.5 3.4 1 3.4.9 0 11.8-6.5 27-16.1 6-3.8 7-3.7 7 1"/><path d="M192.8 1247.8c-2.6 1.5-2.8 2.1-2.8 8.4 0 7.9.7 8.3 6.3 3.7 3.4-2.8 3.8-3.6 3.5-7.2-.4-5.4-3.1-7.3-7-4.9m5 4.3c.3 2.5-3 7.9-4.9 7.9-1.4 0-1.1-8.4.3-9.8 1.9-1.9 4.3-1 4.6 1.9M186.5 1252.2c-.2.7-.6 2.6-.8 4.3-.4 2.8-.5 2.9-1.2.7-1.1-3.4-3.9-2.3-4.6 1.8-.6 3.1-.7 3.3-1.4 1.2-.4-1.2-1.2-2.2-1.7-2.2-.6 0-.8 1-.5 2.2.3 1.3 1 3.9 1.4 5.8 1.3 5.1 3.7 4.6 4.1-.8.4-4.8 1.4-5.3 3.1-1.5 1.7 3.7 2.8 1.9 3.6-6 .5-4.8.4-6.7-.4-6.7-.6 0-1.4.6-1.6 1.2M169.7 1262.6c-2.6 1.7-3.7 3-3.3 4 .3.9.6 3.8.6 6.5 0 5.3 1.4 5.9 2.3 1 .4-1.8 1.4-3.2 2.7-3.6 1.1-.3 2-1.3 2-2.1 0-1.7-.5-1.7-3.1-.4-3.3 1.8-2.3-2.3 1.1-4.3 1.7-1 3-2.2 3-2.8 0-1.4-1.1-1-5.3 1.7"/></svg>