<svg xmlns="http://www.w3.org/2000/svg" viewBox="0 0 992 1402" fill="currentColor"><path d="M665 174.1c-238.2 1.3-383 2.6-386.9 3.6-2.3.6-2.3.6-1.7 49.2.3 26.7.9 81.6 1.2 121.8l.6 73.3h-10.6c-6.4 0-10.6.4-10.6 1s4.2 1 10.5 1H278l.1 11.2c.1 6.2.2 12.6.4 14.3.1 1.6.3 14.2.4 28 .1 13.7.5 26 .8 27.3.5 2.2.5 2.2 131.7 1.7 72.1-.3 145.1-.7 162.1-1 17.1-.3 92.7-.7 168-1.1 75.4-.3 137.6-.7 138.3-1 1.4-.4 1.4 1.6-.3-99.9-1.2-75-1.5-95.9-2.1-160.5-.3-37.7-.8-68.9-1.1-69.3-.2-.4-22.8-.7-50.1-.5s-99.9.6-161.2.9m210.1 26.6c0 26.7 1.4 164.7 2.5 251.5l.7 49.8h-73.9c-40.7 0-80.9.2-89.4.4-8.5.3-76.5.7-151 1-74.5.4-168.4.9-208.6 1.2l-73.2.5-.6-12.8c-.6-11.8-2.2-159.8-2.8-267.3l-.3-45.5 19-.5c10.5-.3 56.4-.7 102-.8 45.7-.2 84.4-.5 86-.7 1.7-.2 75.9-.7 165-1.1s162.2-.8 162.4-1 14.3-.4 31.3-.4H875z"/><path d="M676.8 209.3c-.7.7-5.1 3.8-9.8 6.8l-8.6 5.6-17.9.6c-9.9.4-21.3.7-25.2.7-4.7 0-7.3.4-7.3 1.1 0 .8 6.7.9 23.9.4 20.5-.6 24-.5 24.7.7.5.9 2.2 2.2 3.8 3 2.8 1.4 3.1 1.3 10.3-3 4.1-2.4 7.6-4.2 7.8-4s.2 1.3-.1 2.5c-.4 1.4-1.8 2.3-4.6 2.9-5.4 1.2-7.1 3.9-4 6.4 1.2 1 2.8 2 3.4 2.2.9.3.8 1.6-.2 5.3-1.3 4.6-1.2 4.9.9 6.6 1.2 1 3.9 2.1 5.8 2.5 3 .6 4 .3 5.4-1.5 1-1.2 2.1-3.8 2.5-5.7.6-3.5 1-3.7 7.2-5.9.7-.3 1.1-.9.8-1.3-.3-.5-3.1-.3-6.2.5-3 .8-5.8 1.2-6.1.9s.4-3.5 1.6-7.2 2.1-7.3 2.1-7.9c0-1.3 6.3-3.5 10-3.5 1.9 0 2.1.4 1.6 2.6-1.7 6.6-1.9 8.9-.7 7.8s4.6-12.4 3.9-12.8c-.2-.2-3-1.9-6.3-3.9-5.1-3.1-6.9-3.7-11.7-3.7-3.2 0-6.2.5-7 1.3m11.6 3.3c.5 1.3.9 1.4 2.2.4 1-.9 1.8-1 2.5-.3s-1.1 1.6-5.6 2.7c-6.1 1.5-6.7 1.5-9 0-3-2-2.7-2.5 2.2-3.4 6-1.2 7-1.1 7.7.6M678 218c0 .6-13.4 9-14.4 9-.3 0-.3-.7 0-1.5.4-.9 0-1.5-.9-1.5-.8 0-1.7.6-2 1.2-.2.7-.7 1-1.1.7-1.4-1.3.8-3.6 7.2-7.5 6.2-3.8 6.9-4 9-2.6 1.2.8 2.2 1.8 2.2 2.2m6.7 1.7c-.4.3-1 .3-1.4 0-.3-.4 0-.7.7-.7s1 .3.7.7m-1.2 3.1c-.3.3-1.1 0-1.8-.7-.9-1-.8-1.1.6-.5 1 .3 1.5.9 1.2 1.2m-.5 3.2c0 .5-.4 1-.9 1-.6 0-1.3-.5-1.6-1-.3-.6.1-1 .9-1 .9 0 1.6.4 1.6 1m-7 5c0 3.1 0 3.1-3.2 1.4-3-1.6-3.1-1.7-1.3-3 3-2.2 4.5-1.7 4.5 1.6m5.5-2c.3.5-.1 1-.9 1-.9 0-1.6-.5-1.6-1 0-.6.4-1 .9-1 .6 0 1.3.4 1.6 1m-.5 3.6c0 .2-.7.4-1.5.4s-1.5-.4-1.5-1c0-.5.7-.7 1.5-.4.8.4 1.5.8 1.5 1m1.9 6.4c3.5 0 3.7.4 1.6 5.4-1.7 4.1-4.8 4.8-8.4 1.8-1.9-1.5-2-2.1-1-5.4 1-3.1 1.5-3.6 3-2.8 1 .6 3.1 1 4.8 1M531.5 211l-14 .5v24h7.5c4.1-.1 24.1-.5 44.3-.9l36.8-.9-.5-9.6c-.3-5.3-.5-10.6-.5-11.9-.1-2.2-.1-2.2-29.8-2-16.4.1-36.1.5-43.8.8m70.5 11v10l-6.7.1c-3.8 0-9.3.2-12.3.3-3 .2-18.3.4-34 .6l-28.5.4-.3-10.2-.3-10.1 12.3-.4c6.8-.1 25.2-.4 41.1-.5l28.7-.2z"/><path d="M527.7 215.8c-2.1 2.4-2.4 12.4-.3 14.1 1.8 1.5 4.3.5 4.9-2.1.8-2.8-.9-6.8-2.8-6.8-.8 0-1.5-.9-1.5-2s.5-2 1-2c.6 0 1 .5 1 1.2 0 .9.3.9 1.2 0 1-1 .9-1.5-.3-2.7-1.4-1.4-1.7-1.4-3.2.3m2.3 9.8c0 2.1-.4 3.3-1 2.9-.5-.3-1-1.9-1-3.6 0-1.6.5-2.9 1-2.9.6 0 1 1.6 1 3.6M537.6 216.2c-2.3 3.3-2.1 10.3.4 12.8 2.3 2.3 3.7 1.9 4.9-1.4 1-2.6-.6-6.4-3.1-7.1-2-.7-2.2-1.3-.8-3.5.6-1 1-1.1 1-.3 0 .7.7 1.3 1.5 1.3 1.8 0 1.9-1.2.3-2.8-1.7-1.7-2.5-1.5-4.2 1m3.4 8.8c0 1.6-.4 3-.9 3-1 0-2.2-4-1.5-5.2 1.1-1.8 2.4-.6 2.4 2.2M558.5 216.2c-.4 1.3-.5 4.9-.3 7.9.3 5 .5 5.4 3 5.7 3.3.4 3.9-1.4 3-9.3-.6-5.2-1-6-2.9-6.3-1.6-.2-2.4.3-2.8 2m3.9 1.4c.7 1.8 0 3.4-1.5 3.4-.5 0-.9-1.1-.9-2.5 0-2.8 1.5-3.4 2.4-.9m.4 8.2c.2 1.5-.2 2.2-1.2 2.2-1.1 0-1.6-.9-1.6-2.6 0-3.1 2.3-2.8 2.8.4M570.2 219.3c-2.7 6.3-2.7 6.7-.2 6.7 1.3 0 2 .7 2 2 0 1.2.7 2 1.6 2 1.1 0 1.4-.5 1-1.6-.4-.9-.1-2.3.5-3 .8-1 .8-1.4 0-1.4-.7 0-1.1-2-1.1-5 0-2.8-.3-5-.7-5-.5 0-1.8 2.4-3.1 5.3m1.4 4.4c-1 1-1.9-.5-1-1.8.6-1.1.8-1.1 1.2 0 .2.7.1 1.5-.2 1.8M580 216.6c-2.9 7.6 1.5 17.8 5 11.5 2.2-4.3.4-14.1-2.7-14.1-.7 0-1.8 1.2-2.3 2.6m4 5.1c0 4.4-1 6.9-2.1 5.1-1-1.6-1.2-9.2-.2-10.1 1.1-1.1 2.3 1.5 2.3 5M547.5 223c.3.5 1.7 1 3 1s2.7-.5 3-1c.4-.6-.8-1-3-1s-3.4.4-3 1M688.7 226.7c-.9.9-.9 5.3.1 5.4.4 0 2.2.2 4 .3 3.1.4 4.2-.6 2.2-1.9-.5-.3-1-1.5-1-2.6 0-1.3-.7-1.9-2.3-1.9-1.3 0-2.7.3-3 .7m3.3 2.3c0 .5-.4 1-1 1-.5 0-1-.5-1-1 0-.6.5-1 1-1 .6 0 1 .4 1 1M698 233.4c0 1.5 2.9 5.5 3.4 4.7.8-1.3-1.1-5.1-2.4-5.1-.6 0-1 .2-1 .4M698.1 242.8c-1.4 2.6-.7 4.2 1 2.5.6-.6.9-1.9.7-2.9-.3-1.7-.5-1.7-1.7.4M765 244.5c-1.1 2-1.1 2.7 0 4 .7.8 1.9 1.5 2.6 1.5.8 0 1.4.6 1.4 1.3 0 2.1-1.2 2.8-2.6 1.6-.7-.6-1.4-.6-1.8-.1-1.1 1.8 2.1 3.4 4.3 2.2 1.7-.8 2.1-2 2.1-5.8 0-7-3.4-9.6-6-4.7m4 2.1c0 .8-.7 1.4-1.5 1.4-1.5 0-2.1-2.1-.9-3.3 1-.9 2.4.2 2.4 1.9M775.2 243.2c-2.2 2.2-1.4 5.8 1.4 6.8 2.2.9 2.4 1.3 1.4 2.5s-1.6 1.3-2.6.4c-1.6-1.3-1.9.2-.3 1.8 1.5 1.5 4.9.4 5-1.6.4-4.8 0-8.3-1.1-9.6-1.5-1.8-2.2-1.9-3.8-.3m3.2 2.4c.9 2.2.8 2.4-.9 2.4-.8 0-1.5-.9-1.5-2 0-2.4 1.5-2.7 2.4-.4M784.3 243.2c-1.5 2.4-1.1 9.6.6 11.2 2.7 2.4 5-.2 4.9-5.5-.2-4.7-1.2-6.9-3.4-6.9-.7 0-1.6.6-2.1 1.2m3.1 2.9c-.3.5-1 .7-1.5.3-.5-.3-.7-1-.3-1.5.3-.5 1-.7 1.5-.3.5.3.7 1 .3 1.5m.6 5.5c0 1.7-2.2 1.4-2.8-.4-.2-.7.3-1.2 1.2-1.2s1.6.7 1.6 1.6M793.7 242.7c-.4.3-.7 1.3-.7 2.1 0 1.2.3 1.2 1.5.2 2-1.7 3.2-.4 1.9 1.8-.8 1.2-.8 2.2 0 3.4 1.3 2.2.1 3.5-1.9 1.8-1.2-1-1.5-1-1.5.3 0 .8.6 2 1.4 2.6 1 .9 1.9.7 3.7-.8 2-1.6 2.2-2.3 1.2-3.9-.6-1-.8-2.5-.3-3.2 1.7-2.7-3.1-6.6-5.3-4.3M803.2 243.2c-1.9 1.9-1.5 9.2.7 11.2 1.7 1.6 2 1.6 3.5.1 3.1-3.1 1.7-12.5-1.9-12.5-.6 0-1.6.5-2.3 1.2m3.4 3.2c.8 3.2.2 5.8-1.3 6.4-.9.2-1.3-1-1.3-4.2 0-4.9 1.6-6.2 2.6-2.2M822.2 243.2c-1.9 1.9-1.5 10.7.4 11.5 2.7 1 4.9-1.1 5.2-5 .5-6-2.5-9.6-5.6-6.5m3.3 5.3c0 2.2-.5 4-1.2 4.2-.9.3-1.3-.9-1.3-4.2s.4-4.5 1.3-4.3c.7.3 1.2 2.1 1.2 4.3M849.2 244.5c-1.5 3.4-1.5 6.6.2 8.7 2.8 3.7 6.6 1.4 6.6-4 0-6.8-4.5-9.8-6.8-4.7m4.6 4.3c.2 3.3 0 4.2-1.2 4.2s-1.6-1.1-1.6-4.6c0-5.9 2.4-5.5 2.8.4M832 247c-2.1 4.1-2 6 .5 6 .7 0 1.5.6 1.8 1.2.3.9.8 1 1.5.3 1.2-1.2.4-11.5-.9-11.5-.5 0-1.8 1.8-2.9 4m2 2.5c0 .8-.4 1.5-1 1.5-.5 0-.7-.7-.4-1.5.4-.8.8-1.5 1-1.5s.4.7.4 1.5M841 244.5c-.9 1-.9 1.5-.1 1.5.6 0 1.1 1.8 1.1 4.5 0 5.1 1.5 6.1 2.2 1.5.6-3.7-.2-9-1.2-9-.4 0-1.3.7-2 1.5M813.5 249c-.4.6.6 1 2.2 1 2.2 0 2.5-.2 1.3-1-1.9-1.2-2.7-1.2-3.5 0M695 252.4c-1.2 3.3-1.3 4.6-.1 4.6.9 0 2.4-6 1.6-6.8-.2-.3-.9.7-1.5 2.2M809.8 271.5l-.3 13.6-13 5.8c-7.1 3.2-15.1 6.7-17.7 7.9s-5.5 2.2-6.5 2.2-2.8.7-3.9 1.5c-1.9 1.3-2.7 1.1-8.5-2-7.1-3.8-9.9-3.4-9.9 1.3 0 2.3 1.1 3.3 6.5 6.6 4.3 2.5 6.5 4.5 6.5 5.7 0 2.8 3.1 4 7.1 2.6 6-2.1 6.2-2.4 5.5-8.8-.3-3.5-.2-5.9.4-5.9.5 0 5.7-2.3 11.5-5 5.8-2.8 10.8-5 11-5s3.4-1.3 7-3l6.5-3v-13.4c0-18.1-1.9-19-2.2-1.1m-56.7 30.8c-.8.8-1.1.7-1.1-.4 0-2 1.3-3.4 1.8-1.9.3.7-.1 1.7-.7 2.3m3.9 1.2c-.7.9-1.5 1.3-1.7 1.1-.7-.7.7-2.6 1.9-2.6.6 0 .6.6-.2 1.5m3.4 2c-.4.8-1 1.5-1.5 1.5s-.9-.7-.9-1.5.7-1.5 1.5-1.5c.9 0 1.2.6.9 1.5m12.6-.9c0 .3-1.1 1.5-2.5 2.6-1.8 1.4-2.5 2.9-2.5 5.4 0 3.5-1.3 4.6-2.4 1.8s-.6-5.1 1.5-7.8c1.8-2.3 5.9-3.7 5.9-2m-9.4 4.1c-1.1 1.1-1.9-.6-1.1-2.4.8-1.7.8-1.7 1.2 0 .3 1 .2 2.1-.1 2.4m10.2 2.5c-.4 2.9-3.8 3.8-3.8 1 0-2.2.8-3.2 2.7-3.2.9 0 1.3.8 1.1 2.2M691.5 264.1c-.9 3.9.1 5 1.5 1.5 1.2-3.4 1.3-4.6.1-4.6-.5 0-1.2 1.4-1.6 3.1M597.9 264.5c-.3.2-15.3.5-33.4.7-18.2.1-36.9.4-41.7.6l-8.8.3V290h19.8c10.9 0 30.7-.3 44-.7l24.2-.6v-11.8c0-9.7-.3-11.8-1.6-12.3-1.9-.7-1.9-.7-2.5-.1m1.1 12.4v10l-8.7.3c-4.9.2-23.3.5-41 .6l-32.3.3v-20l10.8-.4c5.9-.1 24.3-.4 41-.5l30.2-.2z"/><path d="M577.1 269.3c-1.7 1.7-1.3 2.9.9 2.2 1.5-.5 2-.2 2 1.2 0 1.1-.6 2.5-1.2 3.2-1 1.1-1 1.4 0 1.8.6.3 1.2 1.7 1.2 3.1-.1 2.5-.2 2.5-1.4.9-1.6-2.1-2.6-2.2-2.6-.3 0 2 2.5 3.7 4.4 3 1.4-.5 1.6-1.8 1.2-7.8-.2-3.9-.5-7.2-.5-7.2-.5-.9-3.1-1-4-.1M524.8 274.1c-3.3 6.7-3.4 6.9-.8 6.9 1.5 0 2 .7 2 2.6 0 1.6.5 2.4 1.3 2.1.6-.2 1.2-1.1 1.2-2 0-.8.4-1.9.8-2.3s.3-1.2-.2-1.8c-.6-.6-1.1-3.4-1.3-6.1l-.3-5zm1.2 3.9c0 .5-.5 1-1.1 1-.5 0-.7-.5-.4-1 .3-.6.8-1 1.1-1 .2 0 .4.4.4 1M555.4 271.5c-2 3-1.4 9.9 1 12.4 1.5 1.4 1.8 1.4 3.3-.2 3.1-3.1 1.6-14.7-1.8-14.7-.5 0-1.6 1.1-2.5 2.5m3.6 5.5c0 3.3-.4 6-1 6-1.3 0-2.4-6.4-1.6-9.5 1.2-4.6 2.6-2.6 2.6 3.5M566 270.9c-1.4 2.8-1.2 10.4.4 12.6 1.5 2 4.3 1.5 5.2-1 1-2.5-.6-6.7-2.6-7.2-2.2-.6-2.5-2-1-4.3.6-1 1-1.1 1-.3 0 .7.7 1.3 1.6 1.3 1.4 0 1.4-.3.4-1.5-1.7-2.1-3.7-1.9-5 .4m4 9.2c0 3.8-2.4 3.5-2.8-.4-.2-1.9.1-2.7 1.2-2.7s1.6 1 1.6 3.1M535.2 274.5c-2.7 5.6-2.7 6.5-.1 6.5 1.5 0 2 .5 1.7 2.2-.2 1.5.2 2.3 1.2 2.3s1.5-1 1.4-3c-.3-10.2-.5-12.5-1.2-12.5-.4 0-1.8 2-3 4.5m1.8 3c0 .8-.4 1.5-1 1.5-.5 0-.7-.7-.4-1.5.4-.8.8-1.5 1-1.5s.4.7.4 1.5M545.3 277.7c.9.2 2.5.2 3.5 0 .9-.3.1-.5-1.8-.5s-2.7.2-1.7.5M689 272.9c-1.2 2.4-1.4 6.9-.1 5.5.9-1 2.3-7.4 1.6-7.4-.2 0-.9.9-1.5 1.9M717 282.5c-.7.9-.9 2.2-.5 3.2.7 1.6.8 1.6 1.2.2.2-1 1.3-1.9 2.5-2.2 1.1-.3 1.7-1 1.3-1.6-.9-1.6-3-1.4-4.5.4M685.1 285.2c-.7 1.9-.8 3.5-.2 4.1.5.5 1.1.2 1.4-.9s.8-2.9 1.2-4.2c1-3.4-1.2-2.6-2.4 1M724 284.8c0 1.1 5.1 3.5 5.8 2.7.7-.7-2.9-3.4-4.5-3.5-.7 0-1.3.4-1.3.8"/><path d="M643.8 288c-2.7.5-8.5 2.8-13 5.3-14.5 7.7-20.2 11-23 12.9-1.4 1-2.9 1.8-3.2 1.8-.4 0-3.6 1.8-7.2 4s-6.8 4-6.9 4c-.9 0-12.6 7.2-14 8.7-2 2-1.3 5.8 1.7 9 2.7 2.9 3.1 2.8 9.8-.6 7.9-4 22.8-11.9 27.5-14.6 2.9-1.6 6.4-2.4 13.2-2.9 9.3-.7 9.3-.7 12.2 4.1 1.7 2.6 3.4 5.3 3.9 5.9 3.5 4.1 3.5 5.3-.7 13.4-2.3 4.3-4.1 8.7-4.1 9.8 0 3.1 2.5 4.5 6.6 3.7 3.7-.6 3.7-.6 3.2 6.2-.7 8.2-.3 9.3 2.7 9.3 2.3 0 5-2.2 3.9-3.3-.3-.3-.1-1.4.5-2.5 1.4-2.7-1.1-5.1-3.4-3.2-1.2 1-1.3.6-.8-2.4.8-4.8-1.1-7-5.2-6.3-5.8 1-6.3-.4-2.7-7.8 3.7-7.4 3-7.5 9.2 1.4 2.3 3.3 2.3 3.3.1 2.6-3.1-1-2.6.8.9 2.8 3 1.8 3 1.8 3-1-.1-1.6-1.3-4.3-3-6.3-4-4.6-3.8-5.2 1-3.1 2.8 1.2 5.1 3.5 8 7.9 4.3 6.4 6 8.2 6 6.2 0-1.3-5.9-10.2-7.4-11.2-.8-.5-.7-1.4.2-2.8 2.1-3.3 1.4-6-1.9-7.8-6.3-3.5-6.2-3.3-4.2-8.4 2.2-5.8 7.8-13.8 9.5-13.8 1.8 0 4.8 7.2 4.8 11.5 0 3.7 2.9 6.3 5.4 4.8 3.2-1.9 11.6-10.3 11.6-11.6 0-1 1.7-1.9 5-2.6 7.9-1.7 9.4-1.5 8.6 1.1-2.4 8.3-1.5 11.5 1.1 4 1.8-5.2 1.6-8-.7-9.4-2.4-1.5-2.8-5.3-.5-4.4.8.3 2.2.9 3 1.2 2.7 1.1 1.6-1.1-1.5-3-1.7-.9-4.1-2.9-5.5-4.3-2-2.2-2.6-2.4-3.9-1.4-.9.8-1.6 2.2-1.6 3.2 0 1.9.9 2.3 4.3 2 2-.3 2.3 2.2.5 3.7-1.3 1-12 3.3-12.6 2.7-.7-.6 2.2-8 4.1-10.5 3.9-5.2 9.1-6.5 10.1-2.5.7 2.9 2.6 3.4 2.6.6 0-2.7-2.6-5.1-5.5-5.1-1.3 0-4.4 1.6-6.9 3.5-3.6 2.7-4.6 3.1-4.6 1.8s-.3-1.4-1.2-.5c-.6.6-1.1 3.2-1.1 5.6 0 6.7-2 6.7-8.6-.3-8.5-9-18.7-12.8-29.3-11.1m3.7 2.6c-11.1 4.2-20.5 9.6-26.2 15-.6.6-1.3 2.9-1.5 5-.3 3.4-.8 4.2-4.3 5.9-2.2 1.2-9.4 5-16 8.5-6.6 3.6-12.3 6.5-12.8 6.5-.4 0-1.9-1.9-3.2-4.2l-2.5-4.1 11.2-6.3c6.2-3.4 15.6-8.7 20.8-11.7 26-15 27.6-15.7 36-16 1.9-.1 1.6.3-1.5 1.4m15.7 2.8c5.5 2.3 13.4 11.6 15.2 18 2.1 7.2 2 8.1-1.1 10.6-2.9 2.3-4.3 1.4-4.3-2.9 0-2.7-4.9-14.1-6.1-14.1-1 0-3.3 2.4-6.7 6.8-1.5 2.1-3 3.9-3.3 4.2s-1.4 2.6-2.4 5.2c-1 2.7-2.1 4.8-2.6 4.8-.4 0-2.2-1.9-3.9-4.3-2.6-3.7-3.1-5.4-3.5-11.9-.2-4.2-.7-8.8-1.1-10.2-.9-3.8-2.7-3.2-2.1.6.4 1.8.9 6.1 1.3 9.6.7 6.2.7 6.2-2.2 4.7-2.3-1.2-4.6-1.4-10.6-.9-7.8.6-7.8.6-7.8-2.9 0-3 .6-4.1 3.8-6.4 2-1.5 3.9-3.1 4.2-3.4.7-.9 10.8-5.9 15-7.5 4.7-1.7 14-1.7 18.2 0m31.8 4.1c0 .3-.2.5-.5.5s-.5-.2-.5-.5.2-.5.5-.5.5.2.5.5m-1 11.1c-5.3 1.6-7 1.7-7 .5 0-.9 3.6-1.6 9.5-1.9 1.1 0 0 .6-2.5 1.4m-9 5.5c-.9 1.6-3 2.7-3 1.5 0-.2-.3-1.2-.7-2.2-.5-1.3-.3-1.6 1-1.1.9.3 1.7.2 1.7-.4s.5-.7 1-.4c.7.4.7 1.3 0 2.6m-34.8 13.4c2.5 2.6 5.9 8.5 5 8.5-1.6-.1-3.2-1.9-7.6-9.2-5-8.3-6.2-11.7-1.9-5.3 1.5 2.2 3.5 4.9 4.5 6m-71.2-1.1c0 .3-.4.8-1 1.1-.5.3-1 .1-1-.4 0-.6.5-1.1 1-1.1.6 0 1 .2 1 .4m3 1.1c0 .3-.2.5-.5.5s-.5-.2-.5-.5.2-.5.5-.5.5.2.5.5m79.5 6.5c.3.5.2 1.7-.3 2.6-.7 1.3-1.3 1-3.5-2-1.5-1.9-2.7-3.7-2.7-4.1 0-.8 5.7 2.3 6.5 3.5m-78.5-1c0 .5-.8 1-1.7 1-1.5 0-1.6-.2-.3-1 1.9-1.2 2-1.2 2 0m71 32.1c0 .5-.4.9-1 .9-.5 0-1-.7-1-1.6 0-.8.5-1.2 1-.9.6.3 1 1 1 1.6M716.6 289.7c-1.3 1.3-.6 6.3.9 6.3 1 0 1.5-1 1.5-2.9 0-3-1.2-4.6-2.4-3.4M734 290.9c0 .9 2.4 2.1 4.2 2.1.6 0 .6-.6-.2-1.5-1.4-1.6-4-2-4-.6M555.8 310.9c.4 19.4.3 20-1.7 21-1.8 1-2.1 2.1-2.1 8.6 0 6.9.2 7.5 3.1 10.4 2.3 2.4 4 3.1 6.8 3.1 4.3 0 6.1-1.4 6.1-4.8 0-1.3.7-3.1 1.6-3.9 3.7-3.7-2.3-14.3-8-14.3-1.4 0-2.7-.4-3-.9-.5-.8-1.5-21.6-1.6-34.4 0-2.6-.3-4.7-.7-4.7-.5 0-.6 9-.5 19.9m5.2 22.6c0 .3-.2.5-.5.5s-.5-.2-.5-.5.2-.5.5-.5.5.2.5.5m-6 1c0 .3-.2.5-.5.5s-.5-.2-.5-.5.2-.5.5-.5.5.2.5.5m12.4 1.7c.9 1.2 1.6 3.6 1.6 5.3-.1 3-.1 3-1.4-.8-.8-2-1.9-4.4-2.6-5.2-.8-1-.9-1.5-.2-1.5.6 0 1.8 1 2.6 2.2m-4.9.8c.3.5.4 1 .1 1s-.8-.5-1.1-1c-.3-.6-.4-1-.1-1s.8.4 1.1 1m-6.8 3.1c.1 1.8 1 4 1.9 5 1.7 1.9.9 2.4-2 1.3-1.1-.4-1.6-1.9-1.6-5 0-5 1.4-6 1.7-1.3m5.3-1.2c.5 1.1 1 3.5 1 5.3-.1 3.3-.1 3.3-2.5.5-2.8-3.1-3.4-7.7-1-7.7.8 0 1.9.9 2.5 1.9m.8 10.8c1.3.3 2.1 1.1 1.9 1.7-.7 2.1-3.5 1.7-6.3-.9-2.9-2.7-2.9-2.7-.4-2 1.4.4 3.5.9 4.8 1.2M742.6 294.9c-.7 1.1 1.1 2.6 4.2 3.5 3 1 2.8.1-.7-2.4-1.6-1.1-3.2-1.6-3.5-1.1M716.5 301.9c-.6 2.1.3 5.1 1.6 5.1.5 0 .9-1.6.9-3.5 0-3.7-1.5-4.7-2.5-1.6M710.5 307.5c3.2 2.6 4.5 3.1 4.5 1.6 0-1.3-4.1-4.1-6-4.1-1 .1-.4.9 1.5 2.5M717 314c0 1.6.5 3 1 3 .6 0 1-1.4 1-3 0-1.7-.4-3-1-3-.5 0-1 1.3-1 3M721 312.8c0 1.3 5.8 4.3 6.4 3.3.4-.5-.8-1.7-2.5-2.5-3.7-1.8-3.9-1.9-3.9-.8"/><path d="M691 317.5c-2.1 2.5-.8 5 2.7 5 1.8.1 3.8.6 4.5 1.3s1.9 1.2 2.8 1.2c1 0 .5-1-1.6-2.8-1.7-1.5-3.4-3.5-3.7-4.5-.8-2.1-3-2.2-4.7-.2m3 1.5c0 .5-.5 1-1.1 1-.5 0-.7-.5-.4-1 .3-.6.8-1 1.1-1 .2 0 .4.4.4 1M731 318.8c0 1.1 5.1 3.5 5.8 2.7.7-.7-2.9-3.4-4.5-3.5-.7 0-1.3.4-1.3.8M717 323c0 1.6.5 3 1 3 .6 0 1-1.4 1-3 0-1.7-.4-3-1-3-.5 0-1 1.3-1 3M740 324c0 1.1 3.3 3 5.2 3 .7-.1.3-.9-1.1-2-2.5-2.2-4.1-2.6-4.1-1M688.9 332.5c-5.7 5.6-6.9 7.4-8.7 13.3-3.1 9.9-3.5 12.2-2.4 12.2 1.2 0 2.2-2.4 2.2-5 0-1.1 1.6-3.6 3.5-5.7 2-2.1 4.9-6.5 6.6-9.8 1.6-3.3 4.2-7.2 5.6-8.7 1.8-1.9 2.2-2.8 1.2-2.8-.8 0-4.4 2.9-8 6.5m-.9 4.7c0 .7-1.2 2.6-2.6 4.3-2.4 2.9-2.5 2.9-1.8.5.6-2.2 3.1-6 4.1-6 .1 0 .3.6.3 1.2M706 327.9c1.3 1.1 2.8 1.7 3.3 1.4 1.1-.6-2.3-3.2-4.3-3.2-1-.1-.7.6 1 1.8M679 329c-.9 1.6-.9 2.5-.1 3.3 1.6 1.6 4.6-.4 4.6-2.9 0-2.7-3.1-2.9-4.5-.4m3 .5c0 .3-.2.5-.5.5s-.5-.2-.5-.5.2-.5.5-.5.5.2.5.5M717 329c0 .5-.9 1-2 1s-2 .4-2 1c0 1.4 3.3 1.3 4.8-.2s1.6-2.8.2-2.8c-.5 0-1 .4-1 1M748.3 332.7c-.2 3.6-.2 3.6 1.9 1.5 1.8-1.7 1.9-2.3.8-3.6-1.9-2.4-2.5-1.9-2.7 2.1M741.2 337.1c-1.8 1.2-3.1 2.4-2.8 2.6.9.9 6.6-2.1 6.6-3.4 0-1.6.1-1.7-3.8.8M646 345c0 3.2.9 3.7 2.8 1.8s1.5-4.8-.8-4.8c-1.6 0-2 .7-2 3M730.3 343.2c-1.3.6-2.3 1.7-2.3 2.5 0 1.5 1.7.8 5.5-2.1 2.4-1.8.3-2.1-3.2-.4M358.2 343.7c-2.2.4-2.3.7-2 12.1l.3 11.7h88v-24l-42-.1c-23.1-.1-43 .1-44.3.3m83.6 11.5-.3 10.3-40.7.3-40.8.2v-19.9l4.8-.3c2.6-.2 21-.5 41-.6l36.3-.2z"/><path d="M367.6 351.9c-3.1 6.1-3.2 7.1-.5 7.1 1.5 0 1.9.5 1.7 2.2-.2 1.5.3 2.4 1.4 2.6 1.4.3 1.5-.7 1.1-8-.3-4.6-.6-8.5-.8-8.6-.2-.2-1.5 1.9-2.9 4.7m1.4 3.6c0 .8-.4 1.5-1 1.5-.5 0-.7-.7-.4-1.5.4-.8.8-1.5 1-1.5s.4.7.4 1.5M378.3 351.8c-2.8 5.9-2.9 7.2-.2 7.2 1.5 0 1.9.5 1.7 2.2-.2 1.1.3 2.3 1 2.5 1.3.5 1.5-1.4 1.2-10.2-.1-2.8-.5-5.3-.8-5.7-.4-.4-1.7 1.5-2.9 4m1.3 4.9c-1 1-1.9-.5-1-1.8.6-1.1.8-1.1 1.2 0 .2.7.1 1.5-.2 1.8M397.9 349.7c-1.3 3.3-.6 11 1 12.6 2.3 2.3 4.6-.6 4.9-6.1.5-8.2-3.5-12.6-5.9-6.5m4.1 5.3c0 4.9-1.3 7.3-2.4 4.4-.8-2-.8-6.8 0-8.8 1.1-2.9 2.4-.5 2.4 4.4M409.3 347.7c-1.4.5-1.8 3.3-.5 3.3.4 0 1.3-.5 2-1.2.9-.9 1.2-.8 1.2.8 0 1.1-.5 2.5-1.2 3.2-.9.9-.8 1.5.6 2.5 1.5 1.1 1.7 1.8.8 3.3-1 1.8-1.1 1.8-1.7.1-.9-2.2-2.5-2.2-2.5.1 0 .9.9 2.3 1.9 2.9 3 1.9 4.1-.4 3.8-8.3-.2-6.9-1-8.2-4.4-6.7M419.7 347.7c-.4.3-.7 1.3-.7 2.1 0 1.2.3 1.2 1.5.2 1.3-1.1 1.5-.8 1.5 1.4 0 1.4-.6 2.6-1.2 2.6-.8.1-.6.6.5 1.4 1.9 1.5 2.3 4.1.7 5.1-.6.3-1.3-.1-1.6-.9-.3-.9-1-1.3-1.5-1-1.5.9 1 4.4 3.1 4.4 2.4 0 3-2.2 2.5-8.5-.2-2.8-.4-5.6-.5-6.3 0-1.3-3.2-1.7-4.3-.5M387.8 355.7c1.2.2 3.2.2 4.5 0 1.2-.2.2-.4-2.3-.4s-3.5.2-2.2.4M719.3 349.7c-3.5 2.4-2.7 3.5 1.2 1.6 3.5-1.7 4.6-3.3 2.3-3.2-.7 0-2.3.7-3.5 1.6M662 352.8c0 .8 4.3 3.2 5.5 3.2 1.5 0 .1-1.9-2-2.8-3.1-1.4-3.5-1.5-3.5-.4M531.5 354c-1.1.5-4.2 2.9-6.8 5.3-4.6 4.2-15.4 11.1-25.7 16.5-8.8 4.7-20.5 11.6-21.2 12.7-2.5 3.5 1.4 4.2 7 1.4 2.6-1.3 4.9-2.7 5-3.2.2-.4.7-.7 1.2-.7s6.5-3.2 13.4-7c6.9-3.9 13.3-7.3 14.1-7.6 1.3-.5 1.5 2.8 1.5 27.4 0 18.6.4 28.3 1.1 28.7.7.5 1-8.4.8-28.9l-.1-29.5 4.8-4.2c7.3-6.3 8.4-6.6 13.5-3.5 8.6 5 10.1 6.9 9.7 12.3-.3 4.3-.1 4.8 1.9 5.1 2.1.3 3-1.3 4.7-8.7.6-2.8-1.9-5.4-11.9-12.5-6.3-4.5-9.1-5.3-13-3.6m11 4.5c2.8 1.9 6.5 4.5 8.3 5.8 3.1 2 3.3 2.5 2.9 6.5-.3 2.4-1 4.9-1.6 5.5-.7.7-.9-.4-.4-4.1.3-2.9.2-5.2-.3-5.2s-2-1-3.4-2.3-4.6-3.6-7.2-5.1c-4.4-2.6-4.8-2.6-8-1.2-1.8.8-5.1 3.1-7.2 5.1-3.5 3.2-14.8 10.5-16.2 10.5-.3 0-1.8.8-3.2 1.9-1.5 1-6.1 3.6-10.3 5.8-4.1 2.2-8.8 4.8-10.3 5.8-1.4 1-2.9 1.5-3.3 1.1-.9-.8-1.2-.6 11.7-7.8 15.2-8.5 24.8-14.4 28.8-17.6 12-9.7 12.5-9.8 19.7-4.7M709.6 355.5c-1 .8-2.4 1.6-3 1.8s-.8.7-.4 1.1c.8.9 6.8-2.1 6.8-3.4 0-1.4-1.2-1.2-3.4.5M659.1 357.9c-1.4 2.5-.1 3.5 1.5 1.3 1.6-2 1.7-3.2.4-3.2-.5 0-1.4.8-1.9 1.9M674 360c2.8 2.2 4 2.5 4 1 0-1.1-3.3-3-5.2-3-.7 0-.2.9 1.2 2M698 362c-1.4 1-2.2 2.2-1.8 2.5.7.8 5.7-2.5 5.8-3.8 0-1.2-1.4-.8-4 1.3M658 362.8c0 .7 1.7 1.8 6.3 4 .4.2.7-.1.7-.7 0-.5-1.4-1.7-3.2-2.5-3.6-1.8-3.8-1.9-3.8-.8M682 363.8c0 .5 1.8 1.7 4 2.7 3 1.4 4 2.4 4 4.2 0 1.4.6 2.3 1.5 2.3.8 0 1.5-.7 1.5-1.5 0-1.4.3-1.4 3 0 1.8.9 3 1.1 3 .5s-1.1-1.6-2.5-2.2-2.5-1.7-2.5-2.5c0-.7-1.1-1.3-2.7-1.3-1.6-.1-3.9-.7-5.3-1.5-2.9-1.7-4-1.8-4-.7M670 369.4c0 1.1 3.9 3.6 5.5 3.6 1.5 0 .1-1.7-2.5-3.2-2.2-1.3-3-1.4-3-.4M400.8 399.1c-.3 28-.4 29.2-2.3 30.3-8.8 4.9-10.5 8.4-6 12.6 3 2.8 4.3 2.5 14.1-3.1 6.8-3.9 7.4-4.5 7.4-7.5 0-4.1-4.2-7.9-7-6.4-1 .6-2.1 1-2.3 1-.3 0-.8-12.6-1.2-28s-1.1-28-1.6-28-1 13.1-1.1 29.1m9.8 28.6c2 2.7 1.7 5.6-.7 7.2-4.2 2.6-9 5.1-9.7 5.1-.8 0-4.2-5.7-4.2-7.1 0-.5.6-.9 1.3-1 .6 0 3.2-1.3 5.7-2.9 5.4-3.4 5.9-3.5 7.6-1.3m-15.2 8.9c2 2 2.1 5.4.1 5.4-1.6 0-3.5-3-3.5-5.4 0-2 1.4-2 3.4 0M679 374.8c0 1.1 5.1 3.5 5.8 2.7.7-.7-2.9-3.4-4.5-3.5-.7 0-1.3.4-1.3.8M704.7 375.8c1.2.9 3.1 2.8 4.2 4.2 1.5 1.9 2 2.1 2.1.9 0-2.1-4.8-6.9-6.9-6.9-1.3 0-1.1.4.6 1.8M692 377.5c0 .8-.9 1.5-2 1.5s-2 .4-2 .9c0 1.2 3.7 2.4 5 1.6s1.3-5.5 0-5.5c-.5 0-1 .7-1 1.5M710.7 385.7c-1.1 1-.8 10.3.3 10.3.6 0 1-2.5 1-5.5 0-5.6-.1-6-1.3-4.8M299.8 393.8l-4.8.3.4 11.2c.2 6.2.5 11.5.5 12 .1.4 19.8.6 43.9.5l43.7-.3v-24H344c-21.7 0-41.6.1-44.2.3m80.2 11.1c0 7-.4 10-1.2 10.3-.7.3-19 .6-40.5.7l-39.3.2V395h81z"/><path d="M337.2 399c-2.4 3.9-.7 14 2.4 14 3 0 4.5-8 2.4-13.4-1.1-3.1-3.1-3.3-4.8-.6m3.8 6c0 4.9-1.3 7.3-2.4 4.4-.8-2.1-.8-8.9 0-9.7 1.5-1.4 2.4.7 2.4 5.3M348.7 397.6c-.4.4-.7 1.4-.7 2.2 0 1.2.3 1.2 1.5.2 1.3-1 1.5-.9 1.5.8 0 1.2-.4 2.4-1 2.7-1.5.9-1.2 2.5.5 2.5 1.6 0 2.1 3.5.6 4.5-.6.3-1.4-.3-2-1.2-1.1-2.1-2.6-1.1-1.7 1.2 1.6 4.3 7.5 1.5 6.1-3-.4-1.1-.8-3.8-.8-6-.2-3.8-2.1-5.7-4-3.9M306.2 402.5c-2.7 5.6-2.7 6.5-.3 6.5 1.2 0 2.1.8 2.3 2 .5 3.3 2.3 2.8 2.2-.5-.3-10.2-.5-12.5-1.2-12.5-.4 0-1.8 2-3 4.5m1.4 4.2c-1 1-1.9-.5-1-1.8.6-1.1.8-1.1 1.2 0 .2.7.1 1.5-.2 1.8M316.9 403c-2.8 5.2-2.7 6 .4 6 1.4 0 1.8.5 1.4 2s0 2 1.3 2c1.4 0 1.8-.7 1.6-3.3-.2-1.7-.4-5.1-.5-7.5 0-2.3-.4-4.2-.8-4.2-.5 0-2 2.2-3.4 5m1.7 3.7c-1 1-1.9-.5-1-1.8.6-1.1.8-1.1 1.2 0 .2.7.1 1.5-.2 1.8M359.2 402.6c-2.3 4.6-2.2 6.4.4 6.4.8 0 1.4.9 1.4 2s.7 2 1.5 2c1.3 0 1.5-1.2 1.3-7.2-.2-3.9-.8-7.3-1.3-7.5-.6-.2-2.1 1.7-3.3 4.3m1.8 2.9c0 .8-.4 1.5-1 1.5-.5 0-.7-.7-.4-1.5.4-.8.8-1.5 1-1.5s.4.7.4 1.5M326 405c0 .5 1.4 1 3 1 1.7 0 3-.5 3-1 0-.6-1.3-1-3-1-1.6 0-3 .4-3 1M710.2 404.2c.2 2.9.8 5.2 1.3 5.1 2.2-.5 1.6-10.3-.6-10.3-.6 0-.9 2.1-.7 5.2M446.3 401.3c-1.3.7-2.3 1.4-2.3 1.7s1 1 2.3 1.5c1.3.6 2.3 2 2.5 3.5.3 2.4.1 2.3-2.7-1-3-3.5-3-3.5-5.8-1.7-1.5 1-3.6 2.1-4.5 2.4-1 .3-1.8.9-1.8 1.3s-1 1.1-2.2 1.4c-2.3.7-2.3.7-.1 1.6 2.7 1.1 4.5 4.3 3.6 6.6-.4 1.2-.3 1.5.5 1 1.7-1 1.5-5.2-.4-7.1-2.3-2.3-.8-3.2 1.7-1 1.4 1.3 1.8 2.6 1.4 4.2-.3 1.3-.1 2.3.4 2.3 1.8 0 2.1-3.3.6-6.3-1.7-3.4-1.3-4.6 1-2.7.8.7 1.5 2.5 1.5 4.1s.4 2.9 1 2.9 1.1 9.5 1.2 25c.2 16 .7 24.9 1.3 24.8 1.3-.4.8-48.5-.6-51.8-.6-1.4-1.7-3.7-2.4-5.3-1.6-3.1-.6-3.6 1.9-.8 1.1 1.3 1.5 2.7 1.1 4-.8 2.5 1 2.8 2.3.5.5-.9 1.3-1.5 1.8-1.5 1.6.3 1.6-4.6 0-6.2-2-1.9-2-2.7-.1-2.7s3.8 3.6 3 6c-.4 1.1-.2 2 .4 2 2.1 0 2.3-4.2.3-6.9-2.2-3-3.7-3.4-6.9-1.8"/><path d="M426.9 413.1c-1.1.7-1 .9.6.9 2.5 0 4.8 3.5 4 6.1-.8 2.3 1.3 2.6 2.2.3.7-1.8-1.5-6.2-3.7-7.4-.9-.5-2.2-.5-3.1.1M710.4 413.3c-.9 2.5 0 9 1.4 9.5.8.2 1.2-1.1 1.2-4.7 0-4.9-1.5-7.6-2.6-4.8"/><path d="M423 415.9c0 .5 1.1 1.2 2.5 1.5 2 .5 2.5 1.3 2.5 3.6 0 1.7.5 3 1 3 1.7 0 1.1-5.6-.8-7.3-2-1.8-5.2-2.3-5.2-.8M419.3 417.7c-1.7.6-1.6 4.3.1 6.5.7 1 2.4 1.9 3.7 2 1.9.2 2.5-.2 2.7-2.4.2-1.7-.4-3.4-1.7-4.7-2.2-2.2-2.7-2.3-4.8-1.4m3.5 2.5c1.3 1.3 1.6 4.8.4 4.8-1.4 0-3.2-2.3-3.2-4.2 0-2.1 1.1-2.3 2.8-.6M340 421.2c-.1.7-.1 8.4 0 17 .1 15.8.1 15.8-3.2 17.8-7.6 4.6-8.8 6.6-8.8 15.4 0 7.1 1.4 11.4 4.7 14.2 6.1 5.3 11.4 4.8 14.3-1.4 2.7-5.6 31.6-23.2 38.1-23.2 3.6 0 5.3-4.2 4.7-12-.5-6.8-2.9-10.2-8.4-12-3.7-1.2-7.2 0-27.1 9.6-6.1 3-11.4 5.4-11.7 5.4s-.6-7.2-.6-16c0-10-.4-16-1-16-.5 0-1 .6-1 1.2m43 18.5c4.1 2.4 5.1 5.1 4.8 12.3-.3 6.4-.3 6.4-4.2 7.2-7.5 1.6-35.3 18.6-37.3 22.9-.7 1.5-2 3.2-2.8 3.9-2.4 2-8 .4-10.9-3.1-2.3-2.7-2.6-3.9-2.6-10.7 0-10.1.6-10.9 5.5-8.2 2 1.1 4 1.8 4.4 1.5.3-.4-.1-1-.9-1.5-5.6-3.2-5.6-3.5-.9-6.7 4.4-3 26.4-13.9 32.9-16.3 1.9-.7 3.9-1.7 4.5-2.2 1.4-1.3 4.4-.9 7.5.9"/><path d="M366.5 450.3c-16.2 8.4-24.1 13-22.8 13.4.6.2 3-.8 5.4-2.2s10.8-5.8 18.7-9.6c7.8-3.9 14.2-7.2 14.2-7.5 0-1.4-4.9.5-15.5 5.9M332.7 467.7c-1.1 1-.7 4.7.6 6.4 2.7 3.4 6.7 2.8 6.7-1.1 0-3.4-5.4-7.3-7.3-5.3m4.7 3.6c1.2 1.9.3 3.2-1.9 2.4-1.7-.7-2.1-5.1-.3-4.5.6.2 1.6 1.2 2.2 2.1M341.7 474.5c.3 4.4.9 8.4 1.4 8.9 1 1.1 1.2.2.9-6.9-.1-2.7-.8-6.1-1.5-7.5-1.2-2.2-1.3-1.6-.8 5.5M710.8 425.7c-.8 2.1-.2 8.7 1 9 .8.3 1.2-.9 1.2-4.1 0-4-1.3-6.9-2.2-4.9M481.8 429.8c-3.8.3-3.8.3-3.8 12.3V454l44.2-.2 44.2-.3.2-10.7c.1-5.8-.2-11.1-.5-11.7-.5-.8-13-1.2-40.7-1.4-21.9-.1-41.6-.1-43.6.1m81 11.9.3 10.3H482v-20.6h40.3l40.2.1z"/><path d="M519.4 436.5c-2.7 6.6 1.7 15.8 5.2 11 2.8-3.8.8-14.5-2.7-14.5-.6 0-1.7 1.6-2.5 3.5m4 6.6c-.4 2.1-1 3.6-1.5 3.3-1.1-.6-1.2-9.8-.2-10.8 1.3-1.2 2.3 3.4 1.7 7.5M531.3 433.7c-2.2.8-1.5 3.5.7 2.8 2.3-.7 2.7 1.3.8 3.4-1 1.1-1 1.4 0 1.8 1.2.5 1.8 5.3.6 5.3-.4 0-1.3-.8-2-1.8-1.2-1.6-1.3-1.6-1.4.4 0 3 2.5 5 4.5 3.4 1-.8 1.4-3 1.3-7.3-.2-7.6-1.2-9.4-4.5-8M541.2 434.2c-1.5 1.5-1.6 4.8-.2 4.8.6 0 1.5-1 2-2.3.8-2 .9-1.9.9 1 .1 1.7-.9 4.8-2 6.8-2.4 4.1-1.7 5.9 2.2 5.3 1.6-.2 2.5-1.1 2.7-2.6.3-2.1.1-2.3-1.9-1.7-2.3.8-2.3.7-.6-1.8 2.2-3.4 2.3-9.3.1-10.1-2-.8-1.8-.8-3.2.6M489.3 438c-2.9 4.9-2.9 6.6-.2 7.3 1.5.4 2 1.1 1.6 2.1-.4.9-.2 1.6.3 1.6.6 0 1.3.1 1.7.2.3.2.6-1.1.6-2.7-.1-9.5-.4-12.5-1-12.5-.5 0-1.8 1.8-3 4m1.7 3.5c0 .8-.4 1.5-1 1.5-.5 0-.7-.7-.4-1.5.4-.8.8-1.5 1-1.5s.4.7.4 1.5M499.6 438.4c-3.2 5.4-3.2 6.4-.3 6.8 1.2.2 2.2 1 2.2 1.8s.5 1.6 1 1.8c1.2.3 1.8-13.5.6-14.3-.5-.3-2.1 1.5-3.5 3.9m2.4 3.1c0 .8-.4 1.5-1 1.5-.5 0-1-.7-1-1.5s.5-1.5 1-1.5c.6 0 1 .7 1 1.5M508.8 441.1c-.8.6.1.9 2.5.9 2 0 3.7-.2 3.7-.4 0-.9-5-1.2-6.2-.5M711 443c0 2.7.5 5 1 5 .6 0 1-2.3 1-5 0-2.8-.4-5-1-5-.5 0-1 2.2-1 5M711.7 451.7c-1.1 1-.8 9.3.3 9.3.6 0 1-2.3 1-5 0-5.1-.1-5.5-1.3-4.3M711.7 465.7c-1.1 1-.8 10.3.3 10.3.6 0 1-2.5 1-5.5 0-5.6-.1-6-1.3-4.8M402.2 468.8c-.9.6-1.2 3.8-1 12.3l.3 11.4h43c23.7.1 43.5-.1 44.2-.3.8-.3 1.1-3.7 1-12l-.2-11.7-43-.2c-23.6-.2-43.6.1-44.3.5m83.8 11.7V491l-40.7-.2-40.8-.3-.3-9.7c-.3-9.4-.2-9.7 2-10 1.3-.2 19.7-.5 41.1-.7l38.7-.2z"/><path d="M412.2 477.3c-2.7 6.4-2.7 6.7-.1 6.7 1.5 0 2 .5 1.7 2.2-.2 1.5.2 2.3 1.2 2.3 1.2 0 1.4-1.4 1.2-7.5-.1-4.1-.6-7.8-1-8.2s-1.7 1.7-3 4.5m1.4 4.4c-1 1-1.9-.5-1-1.8.6-1.1.8-1.1 1.2 0 .2.7.1 1.5-.2 1.8M422.7 477.6c-1.5 3-2.7 5.7-2.7 5.9 0 .3 1.1.5 2.5.5 2 0 2.4.5 2.2 2.2-.1 1.4.3 2.3 1.2 2.3.8 0 1.5-1.3 1.6-3.3.2-1.7-.1-3.2-.5-3.2s-.8-2.1-.8-4.6c-.1-2.6-.3-4.8-.5-5s-1.5 2.1-3 5.2m1.9 4.1c-1.1 1.1-1.7-.4-.9-2.3.7-1.8.8-1.8 1.1-.1.2 1 .1 2.1-.2 2.4M443.1 473.4c-1.9 2.2-1 12.6 1.1 14 2.5 1.5 3.9-.3 4.5-5.8.4-3.3.1-5.3-1.1-7.1-1.9-2.9-2.9-3.1-4.5-1.1m3.2 4.3c.7 4.2 0 8.3-1.4 8.3-.5 0-.9-2.7-.9-6 0-6.7 1.4-8 2.3-2.3M453.6 473.6c-.9 2.4-.8 2.6 1.4 1.9s2.8 1.3.9 3.2c-.8.8-.8 1.3 0 1.7 1.3.9 1.5 5.6.2 5.6-.5 0-1.2-.7-1.5-1.6-.3-.8-1-1.3-1.6-.9-1.4.9 1.1 4.5 3.3 4.5 2.5 0 4.4-4.5 2.7-6.5-.7-.8-1-2.5-.6-3.9.3-1.3.3-3.2 0-4-.8-2.1-4-2.1-4.8 0M465.9 472.2c0 .2-.1 3.8-.2 8.1-.2 6.9 0 7.7 1.7 7.7 1.2 0 1.6-.5 1.2-1.6-.3-.9-.6-4.5-.6-8 0-3.6-.4-6.4-1-6.4-.5 0-1 .1-1.1.2M431.5 481c.3.5 1.9 1 3.6 1 1.6 0 2.9-.5 2.9-1 0-.6-1.6-1-3.6-1-2.1 0-3.3.4-2.9 1M712.1 480c-.8 2.2-.8 10-.1 10.5 1.6 1 1.9-1 1.1-6.1-.5-2.7-.9-4.7-1-4.4M712 497.5c0 2.2.4 3.4 1 3 .6-.3 1-1.7 1-3s-.4-2.7-1-3c-.6-.4-1 .8-1 3M166.7 410.7c-.4.3-.7 6-.7 12.5V435l44.8-.2 44.7-.3.3-10c.5-16.4 6.2-14.5-44.7-14.5-24.1 0-44.1.3-44.4.7m85.3 11.1v9.9l-10.7.6c-5.8.4-24.5.7-41.5.7H169v-9.8c0-5.4.3-10.2.7-10.5.3-.4 19-.7 41.5-.7H252z"/><path d="M176.8 419.5c-2.8 5.6-2.7 6.5.4 6.5 1.4 0 1.8.6 1.6 2.2-.2 1.5.2 2.3 1.2 2.3 1.2 0 1.4-1.3 1.2-6.9-.4-9.7-1.2-10.5-4.4-4.1m1.8 4.2c-1 1-1.9-.5-1-1.8.6-1.1.8-1.1 1.2 0 .2.7.1 1.5-.2 1.8M188.3 418.8c-2.8 5.9-2.9 7.2-.2 7.2 1.6 0 2 .5 1.6 2-.4 1.4 0 2 1.2 2 1.5 0 1.7-.9 1.3-7.3-.2-3.9-.6-7.5-1-7.9s-1.7 1.5-2.9 4m1.3 4.9c-1 1-1.9-.5-1-1.8.6-1.1.8-1.1 1.2 0 .2.7.1 1.5-.2 1.8M209 416.6c-1.3 3.3-1.3 9 0 11.5 2.3 4.3 6 1 6-5.5 0-4.7-1.6-8.6-3.5-8.6-.9 0-2 1.2-2.5 2.6m3.6 2.9c.7 4.1-.2 8.8-1.6 8-1.3-.8-1.3-11.5 0-11.5.5 0 1.2 1.6 1.6 3.5M220.9 414.2c0 .2-.1 3.8-.2 8.1-.2 6.9 0 7.7 1.7 7.7s1.8-.5 1.2-4.6c-.3-2.6-.6-6.2-.6-8 0-1.9-.4-3.4-1-3.4-.5 0-1 .1-1.1.2M230 416.6c-1.3 3.4-1.3 7.7.2 10.9 2.4 5.3 5.8 2.2 5.8-5.5 0-5.5-1.1-8-3.7-8-.8 0-1.8 1.2-2.3 2.6m4 5.4c0 3.3-.4 6-1 6-1.3 0-2.4-6.4-1.6-9.5 1.2-4.6 2.6-2.6 2.6 3.5M197.5 423c.3.5 1.7 1 3 1s2.7-.5 3-1c.4-.6-.8-1-3-1s-3.4.4-3 1M218.8 438.7c-2.7.2-4.8.9-4.8 1.5s1.5 3.1 3.3 5.7c8.9 12.5 23.8 39.3 29.1 52.6 3.9 9.8 9.9 28.9 12.5 39.5 4.3 18.3 5.2 22.6 8.1 41.2 3.7 24 5.3 57.9 4.8 102.4-.3 22-.1 38.1.4 37.6 1.1-1.1 3.8-55.4 3.8-77.2 0-24.7-2.9-64.7-5.9-81-.5-3-1.7-9.6-2.6-14.5-5.3-30-13.6-55.9-26.1-81.1-8.4-17.2-14.8-27.5-16.6-27.2-.7.1-3.4.3-6 .5M712 511.5c0 2.8.4 4.4 1 4 .6-.3 1-2.1 1-4s-.4-3.7-1-4c-.6-.4-1 1.2-1 4M712 523.4c0 2.5.5 4.6 1 4.6.6 0 1-1.8 1-3.9 0-2.2-.4-4.3-1-4.6-.6-.4-1 1.2-1 3.9M712 535.4c0 3.1.5 5.6 1 5.6.6 0 1-2.2 1-4.9 0-2.8-.4-5.3-1-5.6-.6-.4-1 1.5-1 4.9M861.8 539.1c-2.1 1.2-2.5 8.8-.6 10.7 1.5 1.5 4.5 1.6 5.3.1 1.3-2-.4-5.9-2.6-5.9-1.4 0-1.9-.5-1.7-1.8.3-1.1 1.2-1.6 2.7-1.4 2 .2 2.2 0 1.1-1.3-1.5-1.7-1.9-1.8-4.2-.4m2.8 9.6c-.7 1.7-.8 1.7-1.7 0-1.2-2.1-.2-4.4 1.3-2.9.6.6.8 1.9.4 2.9M814.5 540.7c-2.5 2.4-1.6 10.6 1.2 11.7 4.3 1.7 6-5.7 1.8-7.6-2.7-1.2-2.4-2.8.6-2.8 2.5 0 2.5-1.6-.1-2.3-1.1-.3-2.7.1-3.5 1m3.5 7.9c0 .8-.4 1.4-1 1.4-.5 0-1-.9-1-2.1 0-1.1.5-1.7 1-1.4.6.3 1 1.3 1 2.1M833.2 540.2c-.7.7-1.2 3-1.2 5.3 0 4.4 1.3 6.5 4.1 6.5 2.1 0 2.9-2 2.9-6.9 0-3.7-1.4-6.1-3.5-6.1-.6 0-1.6.5-2.3 1.2m3.8 5.9c0 2.8-.4 3.9-1.2 3.7-1.4-.5-2.3-5.1-1.4-7.4 1-2.7 2.6-.4 2.6 3.7M842.7 539.7c-.3.5-.5 3.1-.5 6-.1 4.4.2 5.3 2 5.9 3.1 1 4.7-1.8 4-6.9-.3-2.3-1-4.5-1.6-4.9-1.4-1-3.4-1-3.9-.1m3.3 2.8c0 .8-.4 1.5-1 1.5-.5 0-1-.7-1-1.5s.5-1.5 1-1.5c.6 0 1 .7 1 1.5m0 5.5c0 1.1-.4 2-1 2-.5 0-1-.9-1-2s.5-2 1-2c.6 0 1 .9 1 2M776.5 542.4c-1.8 2.7-1.1 5.3 1.6 6.1 1 .4 1.9 1.3 1.9 2.1 0 1.1-.6 1.3-2.1.9-1.5-.5-2-.3-1.7.6.6 1.7 2.8 2.2 4.6 1.1 2.2-1.4 2.7-7.8.8-10.7-2-3.1-3.1-3.1-5.1-.1m3.5 2.1c0 .8-.4 1.5-1 1.5-.5 0-1-.7-1-1.5s.5-1.5 1-1.5c.6 0 1 .7 1 1.5M785.6 541.6c-1.2 3.2-.6 5.5 1.9 6.4 1.4.5 2.5 1.5 2.5 2.1 0 .7-.9.9-2.5.5-2.8-.7-3.3.5-1 2.4 3.9 3.3 7.8-7.8 4.1-11.6-1.9-1.9-4.2-1.8-5 .2m4.2 3.2c.2.7-.3 1.2-1.2 1.2s-1.6-.7-1.6-1.6c0-1.7 2.2-1.4 2.8.4M794.5 541c-.3.5.4 1 1.6 1 1.8 0 2 .4 1.4 2.2-1.4 4.5-1.7 8.6-.6 9.2.7.5 1.1-.2 1.1-1.7 0-1.4.7-4.1 1.5-6 .8-2 1.5-4.1 1.5-4.7 0-1.3-5.7-1.3-6.5 0M804.7 540.7c-.3.5-.5 3.1-.5 6-.1 4.3.2 5.3 1.9 5.8 3.2 1.1 4.8-1.1 4.4-6.1-.2-2.4-.7-4.8-1-5.4-.7-1.2-4.2-1.3-4.8-.3m3.5 2.8c0 .5-.5 1.1-1.1 1.3s-1.1-.4-1.1-1.3.5-1.5 1.1-1.3 1.1.8 1.1 1.3m.3 5.5c0 .7-.6 1.5-1.2 1.7-.8.3-1.3-.4-1.3-1.7s.5-2 1.3-1.8c.6.3 1.2 1.1 1.2 1.8M852 541.5c0 .8.5 1.5 1 1.5.6 0 1 2 1 4.5s.5 4.5 1 4.5c.6 0 1-2.7 1-6 0-5.3-.2-6-2-6-1.1 0-2 .7-2 1.5M712 549c0 2.7.5 5 1 5 .6 0 1-2.3 1-5 0-2.8-.4-5-1-5-.5 0-1 2.2-1 5M309.4 547.3c-.2.7-.3 6.2-.2 12.3l.3 10.9 24-.2c13.2-.1 32.9-.2 43.8-.2l19.7-.1v-24h-43.5c-35.1 0-43.7.3-44.1 1.3m84.4 10.9-.3 10.3-40.7.3-40.8.3V548h82.1z"/><path d="M319.7 555.4c-2.7 5.6-2.6 6.6.5 6.6 1.5 0 1.8.5 1.3 2-.4 1.4-.2 2 .8 2 1.5 0 2.9-4.8 1.9-6.5-.3-.5-.5-2.6-.3-4.6.4-5.6-1.2-5.4-4.2.5m1.9 4.3c-1 1-1.9-.5-1-1.8.6-1.1.8-1.1 1.2 0 .2.7.1 1.5-.2 1.8M332 551.7c0 1-.9 2.9-2 4.3-2.6 3.3-2.6 6 0 6 1.3 0 2 .7 2 2 0 1.1.6 2 1.4 2 .9 0 1.3-1 1.1-3.3-.2-1.7-.3-5.3-.4-8-.1-2.6-.5-4.7-1.1-4.7-.5 0-1 .8-1 1.7m-.4 8c-1 1-1.9-.5-1-1.8.6-1.1.8-1.1 1.2 0 .2.7.1 1.5-.2 1.8M350.3 552.7c-2.2 6.6.7 15.2 4.1 12.3 1.9-1.5 2.2-12 .4-13.8-1.9-1.9-3.5-1.4-4.5 1.5m3.7 5.3c0 3.3-.4 6-1 6s-1-2.7-1-6 .4-6 1-6 1 2.7 1 6M361 551.9c-1.4 2.7-1.3 11.4.2 12.9 1.9 1.9 3.8 1.4 4.8-1.3 1.2-3.1-.3-7.5-2.5-7.5-.8 0-1.5-.9-1.5-2s.5-2 1-2c.6 0 1 .4 1 1 0 .5.5 1 1 1 .6 0 1-.9 1-2 0-2.6-3.6-2.7-5-.1m3.8 8.8c-.4 3.9-2.8 4.2-2.8.4 0-2.1.5-3.1 1.6-3.1s1.4.8 1.2 2.7M373 550.2c-.1.2-.2 3.8-.3 8.1-.2 6.9 0 7.7 1.7 7.7 1.4 0 1.7-.5 1.2-2.3-.3-1.2-.6-4.8-.6-8 0-3.1-.4-5.7-1-5.7-.5 0-1 .1-1 .2M383.6 551.7c-.3 1-1 3.8-1.5 6.3-.4 2.5-1 5.1-1.2 5.9-.2.7.2 1.6.9 1.8.7.3 1.3-.1 1.1-.8-.3-2.8.1-3.9 1.6-3.9.9 0 1.5.9 1.5 2.5s.6 2.5 1.6 2.5 1.4-.6 1-1.8c-.2-.9-1-4.3-1.7-7.5-1.3-6.2-2.4-7.8-3.3-5m1.1 6.5c-.3.8-.6.5-.6-.6-.1-1.1.2-1.7.5-1.3.3.3.4 1.2.1 1.9M340.8 558.7c1.2.2 3 .2 4 0 .9-.3-.1-.5-2.3-.4-2.2 0-3 .2-1.7.4M824 547c0 .5 1.1 1 2.4 1 1.4 0 2.8-.5 3.1-1 .4-.6-.7-1-2.4-1s-3.1.4-3.1 1M822 559.8c0 5.6-.2 6-2.7 7-1.6.5-5.3 1.9-8.3 3.1-3 1.1-10.4 3.8-16.5 6-6 2.1-15.6 5.5-21.3 7.6-11.2 4.1-12.5 3.9-13.5-1.5-.9-4.1-4.1-5.6-7.4-3.5-2.5 1.6-2.8 1.6-10.3-1.9-8-3.8-10.5-3.9-11.6-.4-.8 2.6.8 4.1 8.7 8.3 4.7 2.4 6.5 3.9 6.7 5.7.6 3.5 2.2 5 4.9 4.3 1.3-.3 3.3-.1 4.4.5 1.7 1 2.5.6 5.4-2.6 2.5-2.7 5.5-4.4 11.2-6.4 4.3-1.5 14.3-5.1 22.3-8s18-6.4 22.2-7.9c7.7-2.6 7.7-2.6 8.4-6.7.7-5.2.3-8.6-1.3-9.2-1-.3-1.3 1.3-1.3 5.6m-87.4 17.8c-.5 1.4-.9 1.5-1.9.5-.9-.9-.9-1.4.3-2.1 1.8-1.1 2.4-.6 1.6 1.6m3.8 1.9c-.4.8-1 1.5-1.5 1.5s-.9-.7-.9-1.5.7-1.5 1.5-1.5c.9 0 1.2.6.9 1.5m4.6.2c0 .5-.4 1.5-1 2.3-1.1 1.8-2.5.7-1.7-1.5.6-1.5 2.7-2.1 2.7-.8m14 1.1c0 .4-1.3 1.3-3 1.9-3.1 1.2-5.4 5.2-4.4 7.8.4.8.1 1.5-.5 1.5-2.7 0-.6-8.1 2.8-10.7 1.8-1.4 5.1-1.7 5.1-.5m-9.5 1.2c.8 1.3-1.4 4.2-2.6 3.4-.5-.3-.9-1.4-.9-2.5 0-2 2.4-2.6 3.5-.9m6.5 5c0 .5-.4 1-1 1-.5 0-1-.5-1-1 0-.6.5-1 1-1 .6 0 1 .4 1 1m6 1.3c0 2.5-1.7 4.7-3.7 4.7-1.8 0-1.6-3 .4-5.2 2.2-2.4 3.3-2.3 3.3.5M712.2 559.9c.2 2.6.9 4.6 1.6 4.9 1 .3 1.2-.5.6-3.4-1-5.8-2.6-6.8-2.2-1.5M174.3 560.7c-3.7.3-5.3.8-5.5 2-.2.8-.2 6.2 0 11.9l.3 10.4 43.7-.2 43.7-.3v-24l-38.5-.1c-21.2 0-40.8.1-43.7.3m79.5 11.5-.3 10.3-40.7.3-40.8.2v-19.9l7.3-.3c3.9-.2 22.4-.5 41-.6l33.8-.3z"/><path d="M211.8 572c-.2 6.6 0 8 1.2 8s1.4-1.4 1.2-8c-.2-4.4-.7-8-1.2-8s-1 3.6-1.2 8M221.2 565.2c-.6.7-.9 4.2-.9 7.8.2 6.2.3 6.5 2.9 6.8 1.8.2 2.8-.2 3.2-1.5.7-2.4.2-11.6-.8-13.1-.9-1.6-3.1-1.5-4.4 0m2.8 3.3c0 1.4-.4 2.5-1 2.5-.5 0-1-1.1-1-2.5s.5-2.5 1-2.5c.6 0 1 1.1 1 2.5m.8 7.3c.2 1.5-.2 2.2-1.2 2.2-1.1 0-1.6-.9-1.6-2.6 0-3.1 2.3-2.8 2.8.4M230.3 565.6c-.3.8-.1 2 .6 2.7.8.8 1.1.8 1.1-.1 0-.7.6-1.2 1.4-1.2 1 0 1.2.9.5 4.2-1.1 5.7-1.1 9 0 8.4.4-.3 1.1-2.7 1.5-5.3.3-2.6.9-6 1.2-7.6.6-2.5.4-2.7-2.5-2.7-2 0-3.4.6-3.8 1.6M179.5 570c-2.5 5-2.6 5.2-.6 5.7 1.1.3 2.1 1.4 2.3 2.4.2 1.1.8 2 1.3 1.9 1.3-.1 2.6-4.8 1.5-5.5-.4-.3-.6-2.2-.3-4.4.8-5.9-1.3-5.9-4.2-.1m1.5 2.5c0 .8-.4 1.5-1 1.5-.5 0-.7-.7-.4-1.5.4-.8.8-1.5 1-1.5s.4.7.4 1.5M190.3 569.8c-2.8 5.8-2.8 6.2-.4 6.2 1.2 0 2.1.8 2.3 2 .3 2.2 2.3 2.8 2.3.7 0-.6.4-1.7.8-2.4.4-.6.3-1.4-.3-1.8-.5-.3-1-2.6-1-5.1 0-2.4-.3-4.4-.7-4.4-.5 0-1.8 2.2-3 4.8m1.3 3.9c-1 1-1.9-.5-1-1.8.6-1.1.8-1.1 1.2 0 .2.7.1 1.5-.2 1.8M199 573c0 .5 1.3 1 2.9 1 1.7 0 3.3-.5 3.6-1 .4-.6-.8-1-2.9-1-2 0-3.6.4-3.6 1M715.5 567c-.6 1 7.4 5.5 8.3 4.6.6-.7.7-.7-4-3.4-2.1-1.1-4-1.7-4.3-1.2M352.9 572.7c0 .4-.1 8.8-.2 18.6l-.2 17.8-10 5.3c-8.7 4.6-15.6 8.2-33.3 17.7-8.6 4.6-10.7 9.2-5.6 12.5 2.4 1.7 2.7 1.6 8.7-1.7 12.5-6.7 13.5-7.1 16.9-6.4 1.8.4 4.7 2.3 6.6 4.2 1.8 1.9 3.6 3.2 4 2.8s-1.2-2.4-3.5-4.6c-3.6-3.3-4.9-3.9-8.5-3.9-4.3 0-5.1.3-14.1 5.4-2.7 1.5-5.1 2.5-5.5 2.2-.7-.8-.8-.7 7.1-4.9 5.4-2.9 8-3.7 12.1-3.7 2.9 0 5.7.5 6.4 1.2.6.6 1.5.9 1.9.5 1-1.1-2.8-3.5-6.6-4.2-2.9-.5-5.2.2-13.5 4.3-7 3.5-10.5 4.7-11.3 4-1.2-.9-.7-3.8.6-3.8.4 0 4.9-2.3 10.1-5.1 28.5-15.5 38-20 39.4-18.7.7.7 2.2 1.9 3.2 2.6 1.1.7 4.1 2.8 6.8 4.7s5.4 3.5 5.9 3.5c1.7 0-1.4-2.9-8.4-7.6-3.8-2.6-6.7-4.9-6.5-5.2.3-.2 4.2 2.2 8.7 5.3l8.3 5.6-.3 7.6c-.3 6.9-1.5 11.3-3.2 11.3-.3 0-2.7-2.7-5.4-5.9-5-6.4-7.9-7.8-13.7-6.6-5 1-7.8 2.6-7.8 4.7 0 1.1 2.1 4.5 4.6 7.6s5.2 6.6 6.1 7.7 2.9 3.5 4.5 5.4c2.1 2.4 2.6 3.7 1.9 4.4-.8.8-3-.9-7.7-6.1-11.3-12.4-14.5-15.5-15.1-14.8-.4.4 2.3 3.7 6 7.4s6.7 7.2 6.7 7.7c0 .6-1.8-1-4-3.4s-4.3-4.1-4.6-3.8c-.7.7 17.6 20.7 18.9 20.7.5 0 .7-1 .4-2.1-.3-1.2.1-3.2 1-4.5.8-1.3 1.3-3.4 1-4.6-.7-3 3.4-10.3 5.8-10.3.9 0 2.8-1.6 4.1-3.5 1.9-2.7 2.4-4.8 2.4-9.7 0-5.9.2-6.3 2.3-6.3 2.2 0 2.2 0-.3-2-1.4-1.1-6.7-4.8-11.7-8.3l-9.3-6.2v-17.2c0-10.4-.4-17.4-1-17.8-.5-.3-1-.3-1.1.2m8.3 61.4c2.6 2.8 4.8 5.6 4.8 6.2 0 .7-1.4-.4-3-2.3s-3-3.7-3-4-1.3-1.4-3-2.3c-3.4-2-9.1-1.5-11.7 1.1-1.4 1.4-1.5 1.4-1.2-.3.4-2.1 3.5-3.2 8.8-3.4 2.9-.1 4.2.7 8.3 5m-4.6-.7c1.1.8 3.3 3.2 4.8 5.4 2.7 3.9 2.7 4.1 1.1 6.6-1 1.4-2.1 2.6-2.6 2.6-1 0-7-6.5-10.7-11.4-2.3-3.1-2.3-3.1.5-3.7 4.4-1 4.7-1 6.9.5m-51.6 9.1c0 .3-.2.5-.5.5s-.5-.2-.5-.5.2-.5.5-.5.5.2.5.5m48 1c0 .3-.2.5-.5.5s-.5-.2-.5-.5.2-.5.5-.5.5.2.5.5m2.1 3.2c1.3 1.6 1.2 1.7-.3.4-1-.7-1.8-1.5-1.8-1.7 0-.8.8-.3 2.1 1.3m2.9 2.8c0 .3-.2.5-.5.5s-.5-.2-.5-.5.2-.5.5-.5.5.2.5.5m-4.4 6.7 2.9 3.3-3.2-2.9c-3.1-2.8-3.8-3.6-3-3.6.2 0 1.6 1.5 3.3 3.2M396.4 579.3c-.2.7-.3 6.2-.2 12.3l.3 10.9 43.8.2c24 .2 43.7-.1 43.7-.5.5-9.1.6-22 .3-23-.8-1.8-87.1-1.8-87.9.1m84.6 11.1v10.4l-39.9-.2c-22 0-40.2-.3-40.4-.6-.6-.6-1-9.3-.8-15.8l.1-4.2h81z"/><path d="M409.3 583.2c-2.2 2.8-4.4 8.1-3.9 9.4.3.8 1.3 1.4 2.1 1.4 1.2 0 1.5.6 1 2-.5 1.5-.2 2 1.3 2 1.8 0 1.9-.6 1.5-7.8-.3-4.2-.6-7.8-.8-8-.1-.1-.7.3-1.2 1m-.7 8.5c-1.1 1.1-1.7-.4-.9-2.3.7-1.8.8-1.8 1.1-.1.2 1 .1 2.1-.2 2.4M417.7 587.1c-2.9 5.3-2.8 6.9.4 6.9 1.6 0 1.9.5 1.4 2-.5 1.4-.2 2 .9 2 1.7 0 1.9-1.6 1.6-10-.1-2.5-.5-4.8-.8-5.2-.4-.4-2 1.6-3.5 4.3m1.9 4.6c-1.1 1.1-1.9-.6-1.1-2.4.8-1.7.8-1.7 1.2 0 .3 1 .2 2.1-.1 2.4M438 584.6c-2 5.1-.5 13.4 2.3 13.4 1.7 0 3.7-4.2 3.7-8 0-7-4-10.7-6-5.4m4 4.8c0 5.5-1.2 8-2.4 5-.8-2-.8-6.8 0-8.8 1.3-3.3 2.4-1.4 2.4 3.8M448.6 583.6c-.3.9-.6 4.2-.6 7.5 0 6.8 2 8.9 5 5.1 2.2-2.6 1.5-7.3-1.1-7.9-1.1-.3-1.9-1.4-1.9-2.4 0-2.1 1.6-2.6 2.3-.7.2.7.8 1 1.2.6 1.3-1.2-.3-3.8-2.4-3.8-1 0-2.2.7-2.5 1.6m3.4 9.4c0 1.6-.4 3-1 3-.5 0-1-1.4-1-3 0-1.7.5-3 1-3 .6 0 1 1.3 1 3M458.9 584.1c-.7 1.4-.7 2.5-.1 3.1.7.7 1.2.3 1.7-1.1.3-1.2 1.1-2.1 1.6-2.1 1.6 0 1 3.3-1.5 8.2-1.3 2.6-2.1 4.9-1.8 5.2.3.4 1.8.6 3.4.6 2.1 0 2.8-.5 2.8-1.9s-.5-1.8-2.1-1.4c-2.1.6-2.1.6.1-3.7 2.5-4.9 2.1-9-1-9-1.1 0-2.4.9-3.1 2.1M427 590c0 .5 1.4 1 3.1 1s2.8-.4 2.4-1c-.3-.6-1.7-1-3.1-1-1.3 0-2.4.4-2.4 1M212.8 586.6c-.3.3-.4 7.8-.1 16.7.4 15.8 1.3 21.4 5.3 34.7 3.5 11.7 7.1 24.4 8.7 30.7 1.6 6.2 1.6 6.2-1.6 9.8-1.7 2-2.9 4.1-2.5 4.7.4.7-.4.8-2.5.3-1.7-.4-3.1-.4-3.1-.1 0 .7 5.8 3.7 6.5 3.4.4-.2 4.8 5.5 9.9 12.7 7.9 11.2 9.6 13 12.2 13.3 3.7.4 8.4-3.1 8.4-6.2 0-1.2-.9-3.2-2-4.4s-2-2.5-2-3.1c0-.5-.4-1.1-.8-1.3-.5-.2-4-5-7.9-10.8s-8-11-9.1-11.7c-1-.6-2.2-2.2-2.5-3.5s-1.9-7-3.7-12.8c-10.7-35.6-11-37.4-11-55.9 0-15.4-.4-18.4-2.2-16.5m19.9 93.1c-.4.3-.7 0-.7-.7s.3-1 .7-.7c.3.4.3 1 0 1.4m-3.7.8c0 .3-.2.5-.5.5s-.5-.2-.5-.5.2-.5.5-.5.5.2.5.5m13.3 10.8c9.7 14.5 10.3 15.6 7.1 11.8-2.5-3-12.4-16.9-14.8-20.9-.4-.6-.4-1.2.1-1.2.4 0 3.9 4.6 7.6 10.3m.8 6.2c6.5 9.4 7.9 13 5.2 13-1.1 0-16.8-21.2-18.1-24.4-.2-.7.1-1.7.9-2.2 1.7-1 2.4-.2 12 13.6m-5.8 2c7.7 10.9 8.1 11.5 6.9 11.5-.8 0-16.4-22.4-17-24.5-.4-1.4 2.6 2.5 10.1 13M438.8 630.4l-.3 26.6-9-6.1c-4.9-3.3-10.1-6.3-11.4-6.6-2.6-.7-8.2 1-12.1 3.7-1.4.9-6.3 3.7-11 6.2-27 14.4-28.4 15.5-26.2 20.3 1.3 2.9 2.2 3 6.2 1 3-1.6 3-1.6 3 2.4 0 3.1-.4 4-2.1 4.4-2 .5-2 .7-.6 2.1 2.7 2.7 4.2 2.3 22.6-6.1 3.3-1.5 3.5-1.5 5.4.8 1 1.3 2.8 3.5 4 4.9s3.7 4.3 5.6 6.5c18.4 21.9 20.8 24.4 24.6 25.1 6.4 1.2 14.3-4.2 20.7-14 3.8-5.9 4.5-7.6 3-7.6-.4 0-1.8 2-3.1 4.6-5 9.3-16 16.8-21.9 15-1.1-.4-7.1-6.6-13.3-13.9-6.3-7.2-12-13.8-12.7-14.5-2.1-2.3-6.2-7.9-6.2-8.5 0-.4 1.2-.7 2.8-.7 2 .1 3.7 1.4 7 5.3 2.3 2.9 5.2 6.4 6.5 7.8 1.2 1.5 5.5 6.6 9.5 11.3 7 8.2 7.5 8.6 11.4 8.6 6.6 0 14.9-7.2 17.3-15 .7-2.2.6-2.3-.9-1.1-.9.7-1.6 2-1.6 2.8 0 2.3-9.3 10.9-12.5 11.5-4 .8-6.3-.6-11.5-6.9-2.5-3-5.2-6.2-6-7.2-.8-.9-3.9-4.6-6.9-8.1-8.3-9.9-9.6-11-13.4-11-1.8 0-3.7.3-4 .6-.3.4-5 2.6-10.4 4.9-9.4 4-9.8 4.1-10.1 2.1-.9-7.5-1.4-8.6-4.2-10.3-1.7-.9-3-2.2-3-2.8s1.9-2.1 4.3-3.3c2.3-1.3 6-3.3 8.2-4.6 2.2-1.2 7.6-4.2 12-6.6s9.4-5.2 11-6.2c4.7-2.8 9-2.3 15.1 1.8 5.9 3.9 6.9 5 2.6 2.8-6.1-3-8.2-2.8-17.2 1.9-18.2 9.4-28 14.9-28 15.8 0 .5 2.4-.3 5.3-1.9 2.8-1.6 11-6 18.2-9.7 12.8-6.7 12.9-6.8 17.3-5.6 3.6.9 9.4 4.1 11.2 6.2.3.3 4.7 3.4 9.8 6.8 13.7 9.4 15.2 11 15.2 16.4 0 4.9 1.6 7.2 2.3 3.5.4-2 .4-1.9.6.4.2 4.7 2.1 3.1 2.1-1.7 0-8.6-3.3-13-16.1-21.2l-5.9-3.8-.2-15c-.1-8.3-.2-20.6-.3-27.4-.1-8.6-.5-12.6-1.3-12.9-.9-.3-1.2 6.3-1.4 26.2m-6.3 24.6c.3.5.4 1 .1 1s-.8-.5-1.1-1c-.3-.6-.4-1-.1-1s.8.4 1.1 1m16.5 11.7c0 .9-13.6-8.2-14.6-9.9-.4-.6 2.7 1.2 6.9 4.1 4.2 3 7.7 5.5 7.7 5.8m3.5 2.3c.3.5.4 1 .1 1s-.8-.5-1.1-1c-.3-.6-.4-1-.1-1s.8.4 1.1 1m-77.5 3.9c0 .8-2.3 2.1-3.6 2.1-.2 0-.4-1.1-.4-2.5 0-2.3.2-2.4 2-1.5 1.1.6 2 1.5 2 1.9m83-.4c0 .3-.2.5-.5.5s-.5-.2-.5-.5.2-.5.5-.5.5.2.5.5m3 4c0 .3-.2.5-.5.5s-.5-.2-.5-.5.2-.5.5-.5.5.2.5.5M115.7 616.2c-.3 6.2-.3 11.6.1 12 .4.3 20.5.8 44.7 1l44 .3.5-11.3c.3-6.2.4-11.7.2-12.2-.2-.6-16.7-1-44.6-1h-44.3zm64.6-9.3 21.7.1v21.1l-41.7-.3c-48.1-.3-43 1.3-41.8-13.6l.7-8.3 19.6.5c10.9.2 29.5.5 41.5.5"/><path d="M169.7 610.3c-2 3.3-1.6 12.7.5 14.1 1.4.8 2.2.6 3.9-1 1.7-1.8 1.9-2.5 1-4.2-.6-1.1-.8-2.8-.5-3.6.9-2.3-.3-6.3-2.1-7-.9-.3-2 .3-2.8 1.7m3.3 2.7c0 1-.5 2.2-1 2.5-1.3.8-2.4-2-1.6-4.1.8-2 2.6-.9 2.6 1.6m.7 6.6c.6 1.6-1.5 3.7-2.9 2.8-.4-.3-.8-1.4-.8-2.5 0-2.3 2.8-2.6 3.7-.3M180.5 610.4c-2.1 3.1-1.3 7.2 1.5 8.1 2 .6 2.6 2.5 1.3 3.8-.3.4-1.2.2-2-.4-1-.9-1.3-.8-1.3.5 0 2.5 3.1 3.2 4.6 1.1 2.2-2.9 1.8-11.8-.5-13.9-1.9-1.7-2-1.7-3.6.8m3.5 3.7q0 3-1.2 2.7c-1.5-.5-2.2-3.3-1.4-5.4.9-2.4 2.6-.6 2.6 2.7M126.6 613.9c-3.1 6.1-3.1 6.1-.6 6.1 1.5 0 2 .7 2 2.6 0 1.6.5 2.4 1.3 2.1.8-.2 1.2-2.6 1.1-7.6-.1-4-.4-7.4-.7-7.7-.2-.3-1.6 1.8-3.1 4.5m1.4 3.1c0 .5-.5 1-1.1 1-.5 0-.7-.5-.4-1 .3-.6.8-1 1.1-1 .2 0 .4.4.4 1M137.8 613.9c-3.4 5.9-3.4 5.9-.5 6.3 1.6.2 2.1.9 2 2.6-.2 1.4.3 2.2 1.2 2.2 1.2 0 1.5-1.6 1.5-8 0-4.4-.3-8-.7-8-.5 0-2 2.2-3.5 4.9m2.2 2.6c0 .8-.4 1.5-1 1.5-.5 0-1-.7-1-1.5s.5-1.5 1-1.5c.6 0 1 .7 1 1.5M160 617c0 6.7.3 8 1.6 8 1.2 0 1.5-.6 1-2.3-.3-1.2-.6-4.8-.6-8 0-3.1-.4-5.7-1-5.7s-1 3.3-1 8M147 617c0 .5 1.4 1 3 1 1.7 0 3-.5 3-1 0-.6-1.3-1-3-1-1.6 0-3 .4-3 1M486.1 630.2c-1 2.7.3 5.8 2.4 5.8.8 0 1.5.6 1.5 1.3 0 2.1-1.2 2.8-2.7 1.6-1-.9-1.3-.8-1.3.5s.7 1.7 2.8 1.4c2.5-.3 2.7-.7 3-5.1.3-5-.9-7.7-3.5-7.7-.7 0-1.7 1-2.2 2.2m3.9 1.8c0 1.9-1.1 2.6-2.3 1.4-.8-.8.3-3.4 1.4-3.4.5 0 .9.9.9 2M495.6 630.1c-1.7 2.5-.3 5.9 2.6 5.9 2.1 0 2.3 1.3.5 2.9-1 .8-1.7.7-2.6-.2-1.1-1-1.3-.9-.9.3.7 2.2 4 2.5 5.5.4 2.5-3.4 1-11.4-2.2-11.4-.8 0-2.1 1-2.9 2.1m4.2 2.2c.2 1-.3 1.7-1.2 1.7-1 0-1.6-.9-1.6-2.1 0-2.4 2.3-2.1 2.8.4M505.3 629.2c-1.7 2.1-1 9.9.9 11.1 2.7 1.7 4.7-.8 4.6-5.6-.1-4.5-1.2-6.7-3.3-6.7-.7 0-1.7.6-2.2 1.2m3.5 2c-.6 1.8-2.8 2.1-2.8.4 0-.9.7-1.6 1.6-1.6s1.4.5 1.2 1.2m-.6 7c-1.5 1.5-2.6.4-1.8-1.8.5-1.3.9-1.5 1.8-.6s.9 1.5 0 2.4M514.7 628.6c-1.1 1.1-.8 11.2.3 11.9.6.3 1.9.3 3 0 2.8-.9 2.8-6.1 0-7-2.7-.9-2.7-3.9.1-3.2 1.3.3 1.9.1 1.6-.6-.4-1.4-3.9-2.1-5-1.1m3.3 8.4c0 2.1-1.5 2.7-2.5 1-.7-1.2.2-3 1.6-3 .5 0 .9.9.9 2M523.6 629.6c-.8 2.2.3 3.2 1.4 1.4.7-1.1 1.2-1.2 2.1-.3s.6 1.9-1.5 4.4c-3.2 3.8-2.9 5.3 1 5.6 2.7.3 2.7.2.7-.7-2.8-1.2-2.8-1.1.2-4.6 2.8-3.2 3-4.5 1.3-6.2s-4.5-1.5-5.2.4M542.6 629.6c-1.7 4.3-.1 11.4 2.5 11.4 3.2 0 5-7 2.9-11.1-1.3-2.3-4.6-2.5-5.4-.3m4.2 2.8c.5 2.6-.7 6.8-1.8 6.1-1.5-.9-1.3-8.8.3-8.3.6.3 1.4 1.3 1.5 2.2M552 629.5c-1.9 2.2-.8 5.1 1.8 4.7 1.6-.2 2.2.2 2.2 1.6 0 2.6-1.1 3.4-2.7 2.1-1-.9-1.3-.8-1.3.5 0 2.2 2.7 3.1 4.6 1.5 2.2-1.8 1.4-6.2-1.3-7.4-2.8-1.2-3-2.5-.3-2.5 1.1 0 2-.5 2-1 0-1.5-3.6-1.2-5 .5M561.3 630c-.7 1-.9 2.2-.4 2.4.5.3 1.1-.1 1.5-.9.3-.8 1-1.5 1.6-1.5 1.7 0 1.1 2.9-1.2 6-2.5 3.5-1.5 5.4 2.3 4.8 2.4-.5 2.4-.5.1-1.4-2.2-1-2.2-1 .2-4.3 2-2.6 2.3-3.8 1.5-5.2-1.3-2.5-4.1-2.4-5.6.1M571.2 629.2c-1.9 1.9-1.5 8.2.7 10.2 1.7 1.6 2 1.6 3.5.1 2.7-2.8 1.7-11.5-1.3-11.5-.9 0-2.2.5-2.9 1.2m3.6 5.4c-.2 2.2-.7 3.9-1.3 3.9-1.2 0-1.9-6-1-8.3 1-2.8 2.7.3 2.3 4.4M580.7 628.7c-.4.3-.7 3-.7 5.9 0 5.5 1 6.7 4.9 5.7 1.8-.4 2-1.2 1.8-5.2-.2-2.5-.6-5.2-1.1-5.9-.8-1.3-3.8-1.6-4.9-.5m4.1 2.5c-.6 1.8-2.8 2.1-2.8.4 0-.9.7-1.6 1.6-1.6s1.4.5 1.2 1.2m0 5.6c.2 1.5-.2 2.2-1.2 2.2-1.1 0-1.6-.9-1.6-2.6 0-3.1 2.3-2.8 2.8.4M161 640.5c0 8.5 0 8.5-3.7 11.8-3.7 3.4-3.7 3.4-1.7 6.7 1.4 2.4 3.1 3.6 6.4 4.6 2.4.7 4.6 1.1 4.8.9s-.1-2-.8-4c-1.5-4.5-1.1-4.9 2.6-3 3.4 1.7 4.8.7 3.5-2.6-1.2-3.2-6.9-9.1-8.1-8.4-.6.4-1-2.4-1-6.9 0-4.4-.4-7.6-1-7.6s-1 3.5-1 8.5m5 12.6c0 1.7-3.1 3-5.9 2.4-3-.6-3-.6.2-3.5 2.9-2.6 3.3-2.8 4.5-1.3.6.9 1.2 2 1.2 2.4m4 1.5c0 .8-.4 1.2-1 .9-.5-.3-1-1.3-1-2.1s.5-1.2 1-.9c.6.3 1 1.3 1 2.1m-11.3 5.6c-.3.8-.6.5-.6-.6-.1-1.1.2-1.7.5-1.3.3.3.4 1.2.1 1.9m5.2.4c.3 1.6.1 1.7-1.3.5-1.9-1.6-2.1-3.4-.3-2.9.6.3 1.4 1.3 1.6 2.4M534 635c-1.1.7-.7 1 1.8 1 2 0 3.1-.4 2.7-1-.8-1.3-2.6-1.3-4.5 0M535 652.9c0 9.5-.4 10.3-9.9 21.6-3.4 4-7.4 9.1-15.5 19.5-7.7 9.9-10.5 13-11.6 13-.5 0-3.3-1.3-6.2-2.9-5.4-2.9-14.6-5.6-15.6-4.6-.9.9 5.8 7.4 12.1 11.6 3.1 2.2 5.7 4.6 5.7 5.4 0 1.7 3.1 3.5 6 3.5 2.8 0 7-4.3 7-7.3 0-1.3-.9-3.6-2-4.9-1.9-2.5-1.9-2.5 3.7-9.9 3.2-4.1 6-7.6 6.3-7.9s1.7-2.1 3.2-4.2c1.5-2 3.3-4.2 4-5 .8-.7 2.9-3.3 4.8-5.8s3.7-4.7 4-5 1.8-2.1 3.2-4c2.2-3 2.6-4.7 3-12.8.3-7.1.1-9.2-.9-9.2s-1.3 2.2-1.3 8.9m-51 50.6c0 .8-.4 1.5-.9 1.5s-1.1-.7-1.5-1.5c-.3-.9 0-1.5.9-1.5.8 0 1.5.7 1.5 1.5m4 1.9c0 .8-.4 1.7-.9 2.1-1.2.7-2.4-1.2-1.6-2.5.9-1.5 2.5-1.2 2.5.4m4 2c0 .8-.4 1.7-.9 2.1-1.2.7-2.4-1.2-1.6-2.5.9-1.5 2.5-1.2 2.5.4m2.9 3.2c-1.4 1.8-2.4 1.1-1.5-1.1.3-.9 1.1-1.3 1.6-1 .8.5.7 1.1-.1 2.1m9.2-.9c1.1 1.3 1.1 1.7.2 2-.7.3-1.3 1.1-1.3 1.9s-.4 1.4-1 1.4c-.5 0-1 .9-1 2 0 2.2-2 2.6-3.8.8-2.8-2.8-.1-9.8 3.8-9.8 1 0 2.4.7 3.1 1.7M176.5 661.5c3.2 2.7 4.5 3.1 4.5 1.5 0-.9-5.2-4-6.7-4-.4.1.6 1.2 2.2 2.5M185 665.8c0 .8 1.4 1.6 6.3 4 .4.2.7 0 .7-.5 0-.8-5.2-4.3-6.4-4.3-.3 0-.6.4-.6.8M196.5 672c.9 1.4 6.5 4.2 6.5 3.2 0-.8-5.2-4.2-6.5-4.2-.3 0-.3.5 0 1M431 674c-1.3 2.5-.5 4 2 4 2.1 0 4-2.8 3.3-4.8-.7-1.9-4.1-1.4-5.3.8m3 1c0 .5-.4 1-1 1-.5 0-1-.5-1-1 0-.6.5-1 1-1 .6 0 1 .4 1 1M209.4 679.5c1.7 1.3 3.4 2.1 3.9 1.8s-.4-1.4-2-2.4c-4-2.7-5.3-2.3-1.9.6M439 679c3.4 2.7 6.3 2.6 3.1 0-1.3-1.1-3.1-2-4-2-1.2 0-1 .5.9 2M446 682.7c.1 1 7.1 4.5 7.7 3.9.5-.5-5.6-4.6-6.9-4.6-.5 0-.8.3-.8.7M457 688.8c0 .4 1.4 1.6 3 2.5 3.6 2.2 4.1.6.5-1.7-2.7-1.8-3.5-2-3.5-.8M467 694.8c0 .4 1.4 1.6 3 2.5 3.5 2.1 4.1.6.8-1.7-2.5-1.8-3.8-2-3.8-.8M252.8 716c.9 1.6 2.3 3 3 3 .8 0 .5-1.1-1-3-2.8-3.9-4.2-3.9-2 0M259 723.4c0 1.3 3.4 6.6 4.2 6.6 1.5 0 .8-2.1-1.7-4.8-1.4-1.5-2.5-2.3-2.5-1.8M279 729.2c-5.5 2.1-8.4 3.7-7.7 4.5.2.2 3.4-.8 7.1-2.2 3.6-1.4 8.3-2.5 10.4-2.4 4.1 0 3.2.6-4.5 3-5.2 1.5-10.3 4.5-10.3 5.9 0 .6 2.4-.2 5.3-1.8 9.9-5.4 20.5-6.7 26.3-3.2 5.4 3.4 13.2 13.2 15.1 19 1.7 5.3 1.7 5.3-1.5 8.1-4.2 3.8-5.2 3.7-5.2-.8 0-3.3-5.4-14.3-7-14.3-2.5.1-9.6 9.7-12.4 17-1.7 4.2-1.7 4.5.1 5.7 1 .7 2.3 1.6 2.9 2.1.5.5 2 1.5 3.2 2.1s2.2 1.8 2.2 2.7c0 1.9-2.8 3-4.3 1.5-.6-.6-1.7-1.1-2.5-1.1-1.7 0-5.2-3.7-5.2-5.4 0-.6.4-.4 1 .4.5.8 1.2 1.1 1.6.7 1.2-1.1-4.5-7.7-6.1-7.1-1.9.8-1.9 1.9 0 4.7 1.4 2.1 1.2 2.8-2.5 9.7-2.2 4.1-4 8.5-4 9.6 0 3.2 2.4 4.7 6.5 4 3.5-.7 3.5-.7 3.2 7.1-.2 6.9 0 7.8 1.7 8.1 3.1.6 6.2-1.7 8.5-6.4 1.3-2.4 2.5-4.4 2.7-4.4.3 0 2.8 1 5.6 2.2 4.5 1.9 5.3 2 7.6.7 1.6-.9 3-3.1 4.1-6.4.8-2.7 2.7-6.2 4.1-7.6 2.6-2.8 7-10.3 7-12.1 0-.6 1.9-3.1 4.3-5.7 6.5-7.4 9.9-20.3 5.6-21.6-1.9-.6-2-1.2-1.4-6.5.6-5.1.4-6.1-1.4-7.9-5.1-5.1-13.7.2-16.3 10.1-1.3 5.4-1.9 5.8-4 2.5-.9-1.2-3.8-4.5-6.6-7.2-8.9-8.8-21.8-11.6-33.2-7.3m58.5 2.8c.3.5-.1 1-.9 1-2 0-3.7 3.2-2.6 4.9.4.8 1.5 1.1 2.4.8 1.2-.5 1.6 0 1.6 1.8 0 2.5-1.2 3-10.9 5-3.3.7-3.4.7-2.7-2.1.4-1.6 1.4-4.3 2.2-5.9 2.2-4.7 9.2-8.2 10.9-5.5m-.5 3.4c0 .3-.4.8-1 1.1-.5.3-1 .1-1-.4 0-.6.5-1.1 1-1.1.6 0 1 .2 1 .4m2 10.4c0 1.1-10.3 3.6-12.1 2.9-1.6-.5-1-.8 5.6-2.5 5.4-1.3 6.5-1.4 6.5-.4m-29.1 6.3c1.3 2.3 2.1 4.9 1.8 6.1-.9 3.3.9 6.8 3.6 6.8 2.6 0 11-8.1 12.1-11.7.7-2.1 6.8-4.3 12-4.3 3 0 2.9-.1 1.3 6-1.8 6.6-3.1 8.5-10.8 15.7-3.9 3.7-7.2 7.7-7.5 9.2-1.1 4.9-4.7 15.6-5.7 16.8-1.2 1.6-2.7 1.7-2.7.3 0-1.9-10.8-17.2-11.4-16.2-.3.6.8 3.2 2.6 5.7 5.2 7.4 6.7 9.9 6.4 10.3-.2.2-2.2-.6-4.4-1.7-2.5-1.3-5.1-3.9-7.2-7.1-1.8-2.9-3.9-5.7-4.5-6.4-.7-.6-1.8-2.2-2.5-3.5-1.4-2.6-1.7-2.7 5.2.3 3.3 1.4 3.8 1.4 5.2 0 3-2.9 2-6-2.9-9.1-2.5-1.5-4.5-3.4-4.5-4.1 0-3.3 8.8-17.2 10.9-17.2.4 0 1.8 1.8 3 4.1m15.1.5c0 2.1-2 3.7-2 1.6 0-.4-.3-1.7-.6-3-.5-1.8-.3-2.1 1-1.6.9.3 1.6 1.7 1.6 3m3.4 24.1c-.3 1-1.4 2.9-2.4 4.3-1.7 2.2-2 2.3-2 .6 0-1.1 1-3 2.2-4.3 2.6-2.8 2.7-2.8 2.2-.6m-34.4 6.1c6.6 9.8 7.2 11.1 6.5 13.9-.5 2-.8 2.3-2 1.3-.8-.7-2.2-1-3-.6-1.7.6-2.1 5.6-.5 5.6.6 0 1 .4 1 1 0 1.6-3 1.1-3.7-.6-.3-.8-.1-3.3.6-5.4.9-2.9.8-4.5-.1-6.5-1.1-2.4-1.5-2.5-5-2-3.7.7-3.8.6-3.8-2.2 0-2.6 3.9-11.3 5-11.3.3 0 2.5 3.1 5 6.8"/><path d="M331.1 757.6c-1.3 3-.7 4.4 1.9 4.4 2.3 0 3.9-2.6 3.3-5.1-.8-2.7-3.8-2.3-5.2.7m3.9.3c0 1.2-2 2.5-2.7 1.8s.6-2.7 1.8-2.7c.5 0 .9.4.9.9M320.6 767.2c-1.4 2-1.4 2.4-.1 3.7 1.3 1.4 1.7 1.3 3.1-.1 1-1 1.4-2.3.9-3.7-.8-2.7-2-2.7-3.9.1m2.4 1.3c0 .3-.2.5-.5.5s-.5-.2-.5-.5.2-.5.5-.5.5.2.5.5M287.6 782.9c-2.5 2.7-1.4 5.6 1.4 4.1q3.15-1.65 1.2-4.8c-.7-.9-1.3-.8-2.6.7m1.4 1.6c0 .3-.2.5-.5.5s-.5-.2-.5-.5.2-.5.5-.5.5.2.5.5M266 733.7c0 .5 1.1 2.1 2.5 3.8 1.5 1.9 2.4 2.4 2.4 1.5 0-.8-.8-2.5-1.8-3.8-2-2.2-3.1-2.8-3.1-1.5M254.5 742.2c-4.9 2.8-12.1 6.9-16 9.1-3.8 2.1-9.5 5.3-12.5 7-6.9 3.8-8.8 5.4-9.2 7.9-.2 1.1-2.1 3-4.2 4.2-5 2.8-6.4 4.9-4.7 7 1.2 1.4 1.9 1.3 6.5-1.2 4.1-2.3 5.6-2.6 7.7-1.9 2.6 1 6-.5 20.9-9s19.2-10.3 25.5-11.2c3.7-.6 7-1.2 7.3-1.5 1.3-1.4-1-1.7-5.9-.7-5.9 1-6.5.8-7.4-3.1-.6-2.3-.3-2.9 1.9-3.9 1.4-.7 2.6-1.6 2.6-2.1 0-1.2-.8-1-4.1.9-2.7 1.6-2.9 2.2-2.4 5.4.7 4.3-.3 5.2-12 11.3-3.8 2-9.9 5.2-13.4 7.1-6.3 3.4-8.1 3.6-8.1 1.1 0-.7-.9-2.5-2-3.9-2-2.5-2-2.5 3.8-5.8 3.1-1.9 6.2-3.6 6.7-3.9.6-.3 3-1.7 5.5-3.2 5.6-3.3 16.4-9.3 20.8-11.5 2.9-1.5 4.3-3.4 2.5-3.3-.5.1-4.8 2.4-9.8 5.2m-29.9 25.3c1.8 2.8 1.3 5.5-1.2 5.5-1 0-1.4-.5-1-1.5.7-2 .2-1.9-5 1-5 2.8-5.4 2.9-5.4 1.6 0-.5 2.1-2.2 4.7-3.7s4.2-2.9 3.5-3.2c-1.9-.6-1.4-2.2.8-2.2 1.1 0 2.7 1.1 3.6 2.5M548.7 737.6c-1.3 1.3-.7 7.4.9 10 1.5 2.2 1.5 2.6.1 4.2-.9 1-1.7 4.3-2 8.2-.2 3.6-.7 8.1-1.1 10-1.6 9.4-1.7 13.7-.1 15 1.7 1.4 2.1 5.6.5 6.2-.6.2-.6 4.5.1 12.3.8 9.3.7 12.4-.2 14.3-1 1.8-1 2.8-.1 4.2 1.1 1.9-.3 18.1-2.7 29-3.4 15.8-4.4 20-5.8 24-.8 2.5-2.1 6.9-2.9 9.9-2.4 9-9 25-16.9 40.7-11.8 23.6-13.3 26.1-16.1 26.8-3.6.9-3.2 4.2.6 5 3.9.7 4.8 3.1 2.7 6.8q-2.7 4.8-.9 4.8c.4 0 1.5-1.8 2.6-4 1-2.1 2.5-4.1 3.3-4.5 1-.3 1.3-1.3.9-2.9s.5-4.1 3-8.2c4.1-6.7 16.4-31.4 20.8-41.7l2.9-6.7h27.8c17.9 0 27.9-.4 27.9-1s-9.8-1-27.5-1c-15.1 0-27.5-.2-27.5-.5s.7-2.2 1.5-4.3c2.2-5.2 9-29.5 10.5-37.2 2.1-11.3 2.9-16.3 4.1-25.3.6-4.8 1.5-9 2-9.3s.7-2 .4-3.7c-.6-3.2 1.6-16.3 3.8-22.4.8-2.5.8-3.6-.1-4.5-1.7-1.7-1.5-4.3.4-5.9 1.3-1 1.5-2.7 1-8.3-.9-12.3-2.6-23.7-3.8-25.6-1-1.5-.9-2.3.6-3.8 1.2-1.4 1.6-3.3 1.4-6.3-.3-4.4-.3-4.4-5.8-4.7-3.1-.2-5.9 0-6.3.4m9.3 2.4c0 .5-1.3 1-2.9 1-1.7 0-3.3-.5-3.6-1-.4-.6.8-1 2.9-1 2 0 3.6.4 3.6 1m-2 7c0 2.9-.4 4-1.5 4s-1.5-1.1-1.5-4 .4-4 1.5-4 1.5 1.1 1.5 4m-1 7c0 .5-.4 1-1 1-.5 0-1-.5-1-1 0-.6.5-1 1-1 .6 0 1 .4 1 1m-4 .5c0 .3-.2.5-.5.5s-.5-.2-.5-.5.2-.5.5-.5.5.2.5.5m6.7 1.2c-.4.3-.7 0-.7-.7s.3-1 .7-.7c.3.4.3 1 0 1.4m0 2.8c.2.6-1.4 1-3.7 1-2.7 0-4-.4-4-1.3 0-1.6 7.2-1.3 7.7.3m-.6 3.5c.5 0 .9.4.9.9 0 .4-1.8.8-4 .8s-4-.3-4-.8c0-1 3.1-1.8 4.8-1.3.8.2 1.8.4 2.3.4m1.3 4.6c3.3 1.3 1.4 2.2-3.9 2.1s-6.3-.6-4.8-2c.8-.9 6.6-.9 8.7-.1m1.3 5.9c.2.6-2.1 1-5.7 1-5.8 0-6.8-.4-5.3-1.9 1.1-1 10.6-.3 11 .9m.1 3.7c2.1 2.1 1.3 2.7-1.9 1.6-1.6-.6-4.8-.8-6.9-.4-3.3.5-3.8.4-3.4-.9.8-1.9 10.4-2.1 12.2-.3m-1.4 3.8c1.4.5 2.6 1.6 2.6 2.5 0 1.9-1.4 1.9-3 0-1.6-2-6.4-1.9-8 0-1 1.2-1.6 1.3-2.4.5s-.6-1.5.8-2.6c2.3-1.6 6.4-1.8 10-.4m-3.1 3.7c-.7.2-1.9.2-2.5 0-.7-.3-.2-.5 1.2-.5s1.9.2 1.3.5m-1.6 4c-.4.3-.7 0-.7-.7s.3-1 .7-.7c.3.4.3 1 0 1.4m3.6 4.5c1.5 1.1.9 1.3-3.8 1.3-5.2 0-7-.7-4.2-1.8 2.3-1 6.3-.7 8 .5m.4 4.4c.6 1.7-1.5 16-2.8 18.6-.6 1-1.6 1.4-2.9 1.1-1.5-.4-2-1.4-2-4.2 0-2-.3-6.6-.7-10.4-.6-6.7-.6-6.7 3.6-6.7 2.9 0 4.4.5 4.8 1.6m-4 22c2 .6 2.1.8.9 2.8-.8 1.1-1.7 5.9-2.1 10.6-1.6 20.7-9.2 52.1-17.5 72.1-7.1 17-24.2 49.9-26 49.9-2.4 0-1.7-2.9 2.6-10.8 8.9-16.2 22.4-45.3 22.4-48.3 0-.5.4-1.7 1-2.7 1.8-3.4 8.4-26.9 11-39.7 1.5-7.3 4-25.5 4-29.3 0-1.9-.5-3.2-1.2-3.2-.9 0-.8-.4.2-1 1.8-1.1 1.8-1.1 4.7-.4M508 956.2c2.9 3.1 1.8 3.3-2.5.3-3.1-2-3.4-2.5-1.7-2.5 1.2 0 3 1 4.2 2.2M281.5 741c1.3 6.7 2.8 11 3.8 11 .5 0 .6-1 .3-2.3-.4-1.2-1-3.9-1.3-5.9-.3-2.1-1.2-4.3-2.1-5-1.3-1.1-1.4-.8-.7 2.2M274 744c0 .8.9 2.6 2 4 1.3 1.7 2 2 2 1 0-.8-.9-2.6-2-4-1.3-1.7-2-2-2-1M280 752.4c0 1.3 4.3 7.6 5.3 7.6.4 0 .7-.4.7-.8 0-1.1-5.9-7.9-6-6.8M317.9 805.8c.5 1 1.7 2.4 2.5 3.2 2.4 1.9 2.1-1.2-.2-3.3-2.4-2.2-3.5-2.1-2.3.1M324.9 815.8c1.2 2.3 4.1 4.8 4.1 3.5 0-.5-.7-1.9-1.6-3.1-1.9-2.7-3.9-3-2.5-.4M331.9 825.8c.5 1 1.7 2.4 2.5 3.2 2.4 1.9 2.1-1.2-.2-3.3-2.4-2.2-3.5-2.1-2.3.1M411.4 831.8c-3 2-2.1 8.2 1.1 8.2.8 0 1.5.7 1.5 1.6 0 1.1-.6 1.5-2 1.1-1.3-.3-2 0-2 .9 0 1.7 3.2 1.8 4.8.2 1.9-1.9 1.5-9.2-.6-11.1-.9-.9-2.2-1.3-2.8-.9m2.6 4.8c0 1.6-1.6 1.9-2.5.4-.8-1.3.4-3.2 1.6-2.5.5.4.9 1.3.9 2.1M419.7 833.1c-1.8 2.5-1 6 1.5 6.6 1 .3 1.8 1.2 1.8 2 0 1.1-.7 1.4-2.1 1-1.3-.3-1.9-.1-1.6.6.6 1.8 3.8 2.1 4.8.5 1.3-2 1.1-10.2-.3-11.6-1.7-1.7-2.5-1.5-4.1.9m3.6 2.4c.8 1.8-1.1 3.1-2.5 1.7-1.1-1.1-.3-3.2 1.2-3.2.4 0 1 .7 1.3 1.5M438.7 832.8c-2 2.3-1.7 10.2.5 11.5 2.7 1.8 4.6-.7 4.6-6.2 0-5.6-2.5-8.2-5.1-5.3m3.3 2.7c0 .8-.4 1.5-1 1.5-.5 0-1-.7-1-1.5s.5-1.5 1-1.5c.6 0 1 .7 1 1.5m0 6.1c0 .8-.4 1.4-1 1.4-.5 0-1-.9-1-2.1 0-1.1.5-1.7 1-1.4.6.3 1 1.3 1 2.1M448.1 832.9c-2.4 2.4-2.7 7.7-.7 10.3 1.6 2.2 3.3 2.3 5.3.2 1.2-1.2 1.3-2 .5-4-.7-1.3-1.8-2.4-2.7-2.4-.8 0-1.5-.6-1.5-1.3 0-2.1 1.2-2.8 2.7-1.6.8.7 1.3.8 1.3.1 0-.5-.6-1.5-1.4-2.1-1.2-1-1.9-.8-3.5.8m2.9 8.1c0 1.1-.4 2-1 2-.5 0-1-.9-1-2s.5-2 1-2c.6 0 1 .9 1 2M428.5 833c-.3.5.3 1 1.4 1 2.2 0 2.8 1.4 1.1 2.5-1.2.8-1.3 8.5-.1 8.5.5 0 1.1-1.7 1.4-3.8.3-2 .9-4.9 1.2-6.5.7-2.4.5-2.7-1.8-2.7-1.4 0-2.9.4-3.2 1M466.4 833.1c-.8 1.3-.7 9.6.1 10.9 1 1.6 4.3 1.1 5.3-.7 1.2-2 .3-9.5-1.2-10.5-1.6-1.1-3.4-1-4.2.3m3.6 5.4c0 2.5-.4 4.5-.9 4.5-1.2 0-2.1-4.1-1.4-6.8.9-3.8 2.3-2.4 2.3 2.3M475.5 833.2c-.5 1.5-.4 6.4.1 9.5.5 2.5 3.5 3.1 5.2 1 1.3-1.5 1.2-8.8-.1-10.5-.5-.6-1.8-1.2-2.9-1.2-1 0-2.1.6-2.3 1.2m3.7 2.3c0 .5-.5 1.1-1.1 1.3s-1.1-.4-1.1-1.3.5-1.5 1.1-1.3 1.1.8 1.1 1.3m.8 6.1c0 .8-.7 1.4-1.5 1.4-1.5 0-2.1-2.1-.9-3.3 1-.9 2.4.2 2.4 1.9M495.2 832.9c-.9.5-1.2 2.5-1 6.2.3 4.7.6 5.4 2.5 5.7 2.7.4 4.4-2.5 3.2-5.6-.5-1.2-1.5-2.2-2.4-2.2-.8 0-1.5-.7-1.5-1.5 0-1.2.7-1.4 2.8-.9 2.4.7 2.6.6 1.3-.9-1.5-1.9-2.9-2.1-4.9-.8m2.8 8.1c0 1.1-.4 2-1 2-.5 0-1-.9-1-2s.5-2 1-2c.6 0 1 .9 1 2M338 833.6c0 .3.9 1.9 2 3.5 2.1 2.8 2.1 2.8-.6 6.8-3.7 5.6-4.2 11.8-1.5 16.8 3.7 6.4 9.1 8.9 18.4 8.4 4.1-.2 11.3-7.7 12.2-12.8.7-4.3-1.1-10.1-4.3-13.6-4.2-4.7-13.6-7.1-18.2-4.7-1.5.8-2.3.4-4.4-2q-3.6-4.35-3.6-2.4m19.4 6.8c5.3 2.2 8.6 7.3 8.6 13.5 0 8.8-4.6 13.1-14.1 13.1-6.5 0-10.9-3-12.8-8.8-2.4-7.3.7-14.9 7.3-17.8 4-1.7 6.9-1.7 11 0"/><path d="M347.3 844.7c-1.4.5-1.8 3.3-.5 3.3.4 0 1.3-.5 1.9-1.1s2.4-.9 4.1-.7c3.1.3 3.1.3-1.8 7.1-2.8 3.7-5 6.9-5 7.2 0 .7 7.2.6 10.9-.1 2.5-.5 3.1-1.1 3.1-3.2 0-2.3-.2-2.4-1.2-1-1.4 1.7-7.8 3.5-7.8 2.2 0-1.1 5.9-10.1 7.6-11.4.7-.7 1.4-1.6 1.4-2.1 0-.9-10.6-1.1-12.7-.2M486.7 833.7c-.7 1.4.5 11.3 1.3 11.3 1.5 0 1.9-4.4 1.1-11-.1-1.2-1.8-1.3-2.4-.3M458.3 839.7c.9.2 2.3.2 3 0 .6-.3-.1-.5-1.8-.5-1.6 0-2.2.2-1.2.5M455.4 866.7l.7 19.6 11.7 12.5c11.7 12.5 11.7 12.5 11.5 17.5-.1 4.6.1 5 2.8 6 1.6.6 2.9 1.7 2.9 2.4 0 2.8 3.3 10.9 5 12.4 1 .9 2.2 3.1 2.7 4.8.5 1.8 1.3 3.1 1.8 3.1.6-.1.8-.7.6-1.3-.2-.7-.5-4-.7-7.5-.2-3.4-.6-6.8-1-7.4-1.7-2.7-2.1-7.8-.8-8.9 2-1.6 1.7-4.3-.6-6.4-1.1-1-2-2.4-2-3 0-1.8-2.8-2.6-6.4-1.9-3.1.5-3.8-.1-14.4-11.2L458 885.6l-.1-13c-.1-7.2-.3-14-.4-15.1s-.2-3.9-.3-6.3-.7-4.2-1.3-4.2c-.9 0-1 5.2-.5 19.7m32.4 44.5c-.5 1.5-5.8 2.4-5.8 1 0-1.5 1.2-2.2 3.8-2.2 1.4 0 2.2.5 2 1.2m1.2 3.3c0 .3-.2.5-.5.5s-.5-.2-.5-.5.2-.5.5-.5.5.2.5.5m-2.5 1.5c.3.5.1 1-.4 1-.6 0-1.1-.5-1.1-1 0-.6.2-1 .4-1 .3 0 .8.4 1.1 1m-3.5.5c0 .3-.2.5-.5.5s-.5-.2-.5-.5.2-.5.5-.5.5.2.5.5m7.1 2.6c-2.4 2-7.6 2.6-8.5 1-.3-.5 1-.9 2.9-.8 2.1.1 4.2-.6 5.2-1.6.9-.9 1.9-1.4 2.2-1.1s-.5 1.4-1.8 2.5m-.9 5.1c-.6.6-1.6.7-2.2.3-.9-.6-.9-.9.1-1.6 1.7-1 3.4 0 2.1 1.3m.8 2.8c0 .5-.5 1-1.1 1-.5 0-.7-.5-.4-1 .3-.6.8-1 1.1-1 .2 0 .4.4.4 1m.7 3.7c-.4.3-1 .3-1.4 0-.3-.4 0-.7.7-.7s1 .3.7.7m1.3 3.9c0 .8-.5 1.2-1 .9-.6-.4-.8-1.1-.5-1.6.9-1.4 1.5-1.1 1.5.7M631.8 885.8l-35.8.2v25l43.8-.2 43.7-.3.3-12.3c.3-12.2.3-12.2-3-12.3-1.8 0-5.5-.2-8.3-.2-2.7-.1-21.1-.1-40.7.1m48.3 5.9c.2 2.1.2 6.8.1 10.5l-.4 6.8-40.1-.3-40.2-.2-.3-10.3-.3-10.2h80.9z"/><path d="M606.6 894.9c-2.7 5.2-2.7 7.1 0 7.1.8 0 1.4.9 1.4 2 0 3.2 2.7 2.3 3.2-1 .3-1.7.1-3.3-.3-3.6-.5-.3-.6-1.8-.3-3.3.4-1.6.2-3.7-.4-4.7-.8-1.5-1.4-1-3.6 3.5m1.1 4.3c-.3.8-.6.5-.6-.6-.1-1.1.2-1.7.5-1.3.3.3.4 1.2.1 1.9M617.5 894.9c-2.6 5.3-2.6 7.1.2 7.1 1 0 1.4.6 1 2-.4 1.5 0 2 1.3 2 1.6 0 1.8-.7 1.3-7.8-.3-4.2-.6-7.9-.8-8-.2-.2-1.5 1.9-3 4.7m1.5 3.1c0 1.1-.4 2-.9 2s-.7-.9-.4-2 .7-2 .9-2 .4.9.4 2M638.7 894.8c-2.8 5.3-2.9 7.6-.2 6.5 1.1-.4 1.5.2 1.5 2.1 0 1.7.5 2.6 1.6 2.6s1.3-.6.9-1.9c-.3-1.1-.1-2.2.5-2.6.7-.4.8-1.1.1-1.9-.5-.6-1.1-3.2-1.3-5.6l-.3-4.5zm1.3 3.8c0 .8-.5 1.2-1 .9-.6-.4-.8-1.1-.5-1.6.9-1.4 1.5-1.1 1.5.7M649.9 890.2c0 .2-.1 3.8-.2 8.1-.2 6.3.1 7.7 1.3 7.7s1.4-1.4 1.2-8c-.2-4.4-.8-8-1.3-8s-.9.1-1 .2M659.2 891.2c-1.7 1.7-1.6 12.3.2 13.7 3.4 2.8 5.7-1.4 5-9.2-.5-5.1-2.7-7-5.2-4.5m2.8 6.9c0 3.7-.4 5.8-1 5.4-.5-.3-1-3.1-1-6.1s.5-5.4 1-5.4c.6 0 1 2.7 1 6.1M626 898c0 .5 1.4 1 3 1 1.7 0 3-.5 3-1 0-.6-1.3-1-3-1-1.6 0-3 .4-3 1M857.7 920c-.3 1 .1 2.7.9 3.7.7 1 1.4 2.5 1.4 3.4 0 2.1-4.1 11.9-5 11.9-.3 0-1.7 2.1-3 4.7-1.3 2.7-3.6 6.4-5.1 8.3s-4.1 6.1-5.9 9.3c-2.4 4.6-2.8 6.2-1.9 7.3 1.4 1.7-.6 7.4-2.7 7.4-1.5 0-3.7 3.4-2.8 4.3.3.3-.5 3.6-1.9 7.4-1.4 3.7-3.3 9-4.2 11.8-3.4 9.5-8 17.5-14.7 25-3 3.5-3 3.5-30.3 3.5-16.9 0-27.6.4-28 1s9 1.1 26.2 1.2l26.8.3-6.1 6c-7.3 7.2-19.1 15.8-29.4 21.3-12.8 6.9-33.9 14.6-48 17.7-4.1.9-9.4 2.1-11.8 2.7-3.6.9-4.5.8-6-.6-1.6-1.4-2.1-1.4-3.8-.1-1 .8-3.7 1.5-5.9 1.5-5.5.1-20.2 2.3-21.1 3.2-.3.4-3.3 1-6.5 1.4s-6.4 1.3-7 2c-.6.8-1.9 1.4-2.8 1.4s-3.6.7-6.1 1.6c-16.7 5.8-74.8 5.8-87 0-6.5-3.1-7.7-6-5.6-14.5 1.9-7.9 2-9.2.4-14.4-3.2-10.8-17.6-20.1-34.1-22.1-8.9-1.1-8.9-1.1-11.7-7.1-1.5-3.3-3.7-7-4.8-8.2-6.5-6.6-16.4-11.1-26.4-12-3.8-.3-6.8-.8-6.8-1 0-1 9.6-9.3 10.8-9.3.8 0 3.9 1.6 7 3.5 7.3 4.4 19.9 6.9 21.4 4.2.5-1 1.9-1.7 3.1-1.7 1.8 0 2.5-.8 3.4-4.1 1-3.7.9-4.2-.8-4.6-1-.3-1.9-1.4-1.9-2.4 0-1.2-1.2-2.1-3.7-2.8-4.7-1.3-5.3-1.3-5.3-.2 0 .5 1.4 1.2 3 1.6 1.7.4 3 1.3 3 2 0 .8.9 1.9 2.1 2.5 2.8 1.5 2.2 5.4-.9 5.8-1.3.2-2.6 1-2.9 1.8-.6 1.7-4.2 1.8-9.4.2-3.9-1.1-3.9-1.1-3.9-8 0-4.8.4-6.8 1.3-6.8.6 0-.7-1.2-3-2.6-4.7-2.8-5.2-4.2-2.4-6.8 2-1.8 3.4-5.6 2.1-5.6-.4 0-1.5 1.2-2.5 2.6-1.7 2.6-1.7 2.6-3.9.5-1.2-1.2-2.7-2.1-3.4-2.1-2.4 0-2.1-2.2.9-6.7 1.8-2.7 3.7-5.1 4.2-5.4.5-.4.8-1.2.5-2-.4-1.1-9.8 10-9.8 11.6 0 .9-10.3 15.9-11.2 16.3-.5.2-.8 1.2-.8 2.1 0 1-.9 3-2 4.4s-2 3.3-2 4.2c0 3.2-6.8 10.2-11.8 12-11.2 4.2-20.2 14-20.2 21.9.1 4.8 1.6 7.2 5.2 8.1 4.2 1.1 9.3-2.1 14.3-8.9 2.4-3.3 5.2-7 6.1-8.1.8-1.1 2.2-3.2 3.1-4.6 1.4-2.3 2.5-2.8 8.3-3.3 7.4-.8 14.1.4 20 3.4 4.6 2.4 11 9.6 11 12.5 0 1.9-.9 2.3-8.2 3.5-8.7 1.4-16.3 3.6-24.3 7-2.6 1.1-5.7 2-7 2s-2.7.5-3.1 1.1c-.4.7-2.2.9-5 .4-4.2-.6-4.4-.5-6.9 3.4-1.4 2.2-2.5 4.7-2.5 5.6 0 1.1-1.1 1.5-4.1 1.5-3.6 0-7.5 1.3-8.9 2.9-.8 1-6.3 4.2-8.2 4.8-1 .3-2.3 2.3-2.9 4.6-1.1 4.2-5.5 9.1-9 10.2-1.4.5-2.6-.1-4-1.9-2.4-3-5.9-3.4-8.2-.8-1.3 1.4-1.7 3.7-1.7 8.9 0 6.4.2 7.1 2.5 8.3 1.8 1 2.5 2.2 2.5 4.2 0 1.8.4 2.7 1.1 2.2.6-.3.8-1.7.5-3-.5-1.7-.2-2.4.8-2.4 1.9 0 4.6-3.9 4.6-6.6 0-1.6 1.4-3 5.4-5.3 3-1.6 6.4-3 7.7-3s3.6-.1 5-.1c3.6 0 17.9-8.7 17.9-10.9 0-.9.6-2.5 1.2-3.4 1.7-2.1 5.6-1.2 6 1.4.4 2.4 2.4 2.1 2.1-.4-.2-1.3.4-1.7 2.5-1.7 3.4 0 5.2-1.6 5.2-4.7 0-1.5 1-2.8 2.9-3.7 1.6-.9 3.1-2.2 3.5-3.1.8-2.3 9.7-5.9 20.4-8.4 13.2-3 13.4-2.9 12.6 1.6-.3 2.1-1.7 5.7-3 7.9-2.6 4.5-5.1 5.8-12.3 5.8-4.1.1-4.6.4-6.7 4.1-1.3 2.2-2.3 5.2-2.4 6.6 0 2.6-.1 2.6-6.9 2.3-5.5-.3-7.4 0-9.3 1.5-3.8 2.9-5.6 3.2-6 1-.5-3.3-2.3-2.6-2.6.9-.2 1.8-.9 3.5-1.7 3.8-.7.3-2.3 2.9-3.5 5.8-1.7 4.4-2.8 5.6-6.6 7.4-4.5 2.2-4.5 2.2-5.4-.2-1-2.8-3.8-3.9-7.3-3.1-2 .5-2.6 1.5-3.1 5.2-1.5 10.8-.9 12.1 5.7 14.3 2.9.9 4.1.9 5.2 0 1.6-1.4 3.5-.5 3.5 1.6 0 .8.5 1.4 1 1.4.6 0 1-.9 1-2 0-1.5-.9-2.2-3.1-2.7-2.1-.4-2.8-1-2.5-2 .4-.8.6-2.3.6-3.4 0-1 .4-1.9 1-1.9.5 0 3.1-1.3 5.7-2.9 3.8-2.3 5.7-2.8 9.5-2.5 4 .2 5.8-.3 12.1-4 8-4.5 13.7-9.5 13.7-12 0-2.3 1.5-2.7 4.3-1.3 1.6.9 4.2 1.1 6.9.8 3.6-.5 4.6-1.1 5.9-3.7.8-1.8 2.3-3.9 3.2-4.8 6.6-6.7 11.4-14.5 13.8-22.9.7-2.6 1.7-4.7 2.1-4.7 2.2 0 15.2 3.2 18.7 4.6 5.1 2 11.7 9.3 12.5 13.8.4 2 0 6.2-1 10.1-2 7.9-.9 12.6 4 18 7.6 8.1 17 9.9 51.1 10 14.3 0 28.6-.3 31.9-.8 5.5-.7 5.8-.6 5.3 1.2-.3 1.4.1 2.2 1.4 2.6 1.1.4 1.8 1.4 1.7 2.3-.2 1.2 1.1 1.9 5.6 2.8 5.8 1.2 5.8 1.2 14.8-4 4.9-2.8 10.4-6.3 12.1-7.9 1.8-1.6 6.1-3.6 10.1-4.8 3.9-1.1 8.4-2.4 10-3 1.6-.5 4.4-.9 6.2-.9s3.7-.6 4.1-1.4c.5-.8 4.6-2.1 9.8-3.1 5-.9 10.4-2 12-2.5 1.7-.5 6.2-1.9 10-3 17.3-5.1 33.3-12.5 46.5-21.3 18.1-12.1 30.4-24.2 41.3-40.5 3.7-5.5 7.3-10.5 8.2-11.2.8-.7 1.3-1.6 1-2s1.3-4 3.5-8 4-7.6 4-7.9.9-1.2 2.1-1.9c1.3-.9 1.9-2.2 1.8-4-.4-5.8.1-7.3 2.9-8.3 3.5-1.2 5.7-5.4 7.8-14.9.9-4.1 2-7.9 2.5-8.5.5-.5.9-2.9.9-5.5 0-4.7 1.9-11.3 3.7-13.1.7-.7 1.7-.8 3-.1 2.4 1.3 5.3-.7 5.3-3.6 0-1.5-1.8-3.3-6.2-6.2-7-4.4-9.3-4.9-10.1-2m10.6 4.5c2 1.4 3.7 3.2 3.7 4 0 2.3-3.8 1.8-5.1-.6-1.4-2.7-2.2-1.7-4.3 5.3-1.1 3.5-2.3 5.8-3.2 5.8-1.8 0-1.8-.3.6-5.2 1.1-2.3 2-4.7 2-5.4 0-.6.7-1.7 1.5-2.4 2-1.6 1.9-2.7-.2-3.3q-1.95-.45-.3-.6c.9 0 3.2 1 5.3 2.4m-10.6 18.2c-.4.3-.7 0-.7-.7s.3-1 .7-.7c.3.4.3 1 0 1.4m.7 3.8c1.1.8 1.7 1.8 1.3 2.1-.9.9-6-1-6.5-2.4-.5-1.7 2.9-1.4 5.2.3m-1.7 4c.8.9 1.3 1.8 1 2.1-.5.6-6.7-2.3-6.7-3.1 0-1.2 4.3-.4 5.7 1m-2.7 3c1.7.9 3 2 3 2.5 0 1.2-1.7 1.3-2.4.1-.3-.4-1.9-1.1-3.6-1.5-1.8-.3-2.9-1-2.5-1.6.9-1.4 2.1-1.3 5.5.5m-1.4 4.1c1.9.9 3.4 2.3 3.4 3 0 1.8-.5 1.7-3.8 0-1.5-.8-3.5-1.7-4.4-2-2.2-.7-2.4-2.6-.2-2.6.9 0 3.1.7 5 1.6m-2 4c2.1 1 3.4 2.4 3.4 3.5s-.2 1.9-.5 1.9c-.4 0-9-3.9-10.4-4.7-.1-.1 0-.6.4-1.2.9-1.5 3.1-1.4 7.1.5m-1.5 5.5c1.6 1.1 2.9 2.7 2.9 3.5 0 2-.8 1.8-4.2-1.2-1.7-1.4-3.7-2.3-4.5-2-1.8.7-3.5-.2-2.8-1.5 1-1.6 5.6-1 8.6 1.2m-2.6 4c1.1 1.7.2 1.8-2.5.4-2.4-1.4-2.4-1.4-.3-1.5 1.2 0 2.5.5 2.8 1.1m-2.9 5.6c-1 1-1.9-.5-1-1.8.6-1.1.8-1.1 1.2 0 .2.7.1 1.5-.2 1.8m-351.8 2.9c1.2.8 2.2 2 2.2 2.6s-1 .2-2.2-.9c-1.3-1.1-3-2.3-3.8-2.6-1.3-.5-1.3-.6 0-.6.9-.1 2.6.6 3.8 1.5m351.3.1c1.6 1 2.9 2.4 2.9 3.2 0 1.1-.6.8-2.4-.8-1.3-1.2-3.6-2.6-5.2-3.1-2.6-.7-2.7-.8-.6-.9 1.3-.1 3.7.7 5.3 1.6m-353.7 1.9c3.5 1.4 3.7 4 .5 8.3-3 4.2-3 4.2-6.7 2-2-1.2-3.9-2.4-4.1-2.6-.2-.1.8-2.1 2.3-4.3 2.6-3.9 4.5-4.7 8-3.4m351.9.8c.9.7 1.7 1.9 1.7 2.7 0 1.9-7.3 15.2-8.6 15.6-.5.2-1.8-.3-2.8-1-1.8-1.3-1.6-2.2 3.6-16 1.1-2.9 3.3-3.4 6.1-1.3m-343.8 6.2c2.2 1.4 2.5 2.4 2.5 7.5 0 3.2-.4 6.1-1 6.4-1 .6-9.5-3.9-10.6-5.6-.5-.8 5.1-9.9 6.2-9.9.3 0 1.6.7 2.9 1.6m-14.1 5.5c1.4 1.1 2.6 2.5 2.6 3.1s-.8.4-1.8-.5c-.9-.8-3.1-2.3-4.7-3.1-2.5-1.3-2.7-1.6-.9-1.6 1.2 0 3.3.9 4.8 2.1m-2.1 2.3c2 1.5 2.2 3.7.6 5.3-.9.9-2 .6-4.3-1-1.7-1.2-3.3-2.3-3.5-2.4s.2-.9.9-1.8c1.5-1.8 3.9-1.9 6.3-.1m-4.3 6.1c1.6 1.5 1.6 1.8-.9 4.4-2.2 2.4-9.1 5-9.1 3.5 0-.3 1.1-2 2.5-3.8s2.5-3.8 2.5-4.4c0-1.7 3-1.5 5 .3m355.8-.6c1 .6.5 2.2-2.4 7.2-8.4 14.5-21.2 29.5-31.9 37.4-2.2 1.6-4.2 3.2-4.5 3.6-3.2 3.7-34.4 20.9-37.9 20.9-.9 0-2.1.4-2.6.9-2.5 2.3-32.3 10.5-40.9 11.3-6 .5-5.6-1.8.6-3.1 11.3-2.5 14.5-3.3 21.3-5.3 13.2-3.8 33.4-12 41-16.7 5.7-3.5 11.7-7.4 13.5-8.8 7.8-6 16.6-13.9 21.4-19.3 6.9-7.7 17.2-22.7 18.2-26.4.6-2.7 1.9-3.2 4.2-1.7m-338 12.5c8.9 3.3 14.4 7.9 18.4 15.6 3.5 6.8 3.3 18.5-.4 26-1.5 3-3.8 6.8-5.1 8.4-2.3 2.8-2.3 2.8-4.1.1-1-1.5-1.4-3-1-3.4 2.2-1.6 5.6-9.7 6.1-14.5 1-9.5-.3-13.9-5.5-19.7-6.7-7.4-13.2-10.2-24.3-10.2-11.3 0-20.7 3.1-26.5 8.9-4 3.9-7 9.9-5.5 10.8.4.3 1.3-1.2 2.1-3.2.7-2 2.6-5 4.2-6.5 2.8-2.7 10.8-7 11.6-6.2.5.4-1.4 4-3.1 5.7-.7.7-2.4 2.9-3.7 4.8-4.7 6.7-8.3 10-11.7 10.6-4.7.9-6.3-.8-6.3-6.6 0-4.4.5-5.3 5-10.3 5.1-5.5 12.2-9.8 19.5-11.6 5.7-1.4 25.1-.6 30.3 1.3m12.6 26.2c.4.9.5 1.8.4 1.9-.2.1-4.5.9-9.6 1.9s-12.9 3.1-17.4 4.7c-6.3 2.3-8.4 2.6-9 1.7-1.3-2.1-1-2.6 2.5-4.2 13.4-6.1 31.8-9.4 33.1-6m28.2.4c13.1 4.2 21.2 11.1 23.3 19.7 1 3.8.9 6-.5 12.4-1.9 8.9-1.1 12.6 3.5 15.8 10.8 7.6 63.9 8.4 93.9 1.4 1.9-.4 2.2-.1 2.2 2.5 0 2.9-.1 3-7.5 4.1-16.8 2.5-32.7 3.3-52.5 2.8-30.6-.8-39.4-3.1-45.3-11.7-1.9-2.7-2.2-10.4-.8-17.8 1.7-8.6-2.7-16.8-11.1-20.9-6.3-3.1-7.6-3.5-15.3-4.7-6.1-1-7-1.5-7.3-3.4-.3-2.1 0-2.2 5.6-2.2 3.2 0 8.6.9 11.8 2m-65.6 9.9c1.8 3.4 1.2 5.1-1.6 5.1-2.3 0-2.5-.2-1.4-1.6 1.1-1.3 1-1.6-.8-2-1.2-.4-1.9-1.1-1.5-2 .8-2 4.1-1.7 5.3.5m-9.6 1.6c2.7 2.7 4.8 8.7 3.9 11.1-1 2.7-3.1 1.4-3.7-2.5-.4-2.6-1.6-4.7-3.6-6.4-1.6-1.4-3-3-3-3.6 0-2 3.9-1.1 6.4 1.4m-3.5 5.1c3 3.8 2.8 7.4-.4 7.4-2.5 0-3.3-1.4-1.5-2.5 2.1-1.3 1-2.5-1.2-1.4-1.9.9-2.1.9-1-.2 1.7-1.8 1.5-3-.3-2.3-1 .4-1.5 0-1.5-1.5 0-3 3.4-2.7 5.9.5m-10.8 5.6c1 1.3 1.8 3.4 1.8 4.8 0 2.5 0 2.5-1 0-.6-1.4-2-3.5-3.1-4.7-1.3-1.4-1.7-2.3-.9-2.3.7 0 2.1 1 3.2 2.2m3.6-.7c.9 2.5-.4 2.9-1.7.6-.7-1.5-.7-2.1 0-2.1.6 0 1.3.7 1.7 1.5m-7.8 1.4c2.9 2.5 4.7 7.9 3.2 9.4-.8.8-1.1.5-1.1-1.3 0-1.3-1.1-3.8-2.5-5.6-3.6-4.7-3.4-5.8.4-2.5m59.3.8c2.2 2 2.4 5.3.2 5.3-1 0-1.4-.5-1-1.5.3-.9-.1-1.8-.9-2.1-1.5-.6-2.1-3.4-.8-3.4.3 0 1.5.7 2.5 1.7m-6.8 2.4c2.8 3.3 4 6.6 3.4 9.5-.6 3.2-2.5 2.5-3.7-1.5-.6-2.2-2.5-5.1-4.2-6.5s-2.7-3-2.4-3.6c1.2-1.9 4.3-1 6.9 2.1m-54.4.1c1.1 1.2 2 3.5 2 5.2-.1 3.1-.1 3.1-2-.8-1.1-2.1-2.4-4.4-3.1-5.2-1.9-2.4.8-1.6 3.1.8m-2.5 3.2c1 1.7 1.5 4.1 1.3 5.1-.4 1.6-.7 1.4-2-1.5-.8-1.9-2.2-4.1-3.1-4.9-2.3-1.8-2.1-3 .2-2.4 1 .3 2.7 1.9 3.6 3.7m-3.5 1.8c2.4 4 2.6 7.8.4 7.8-1.1 0-1.4-.5-1-1.6.7-1.9-3-7.4-5-7.4-.8 0-1.4-.5-1.4-1 0-.6 1.1-1 2.5-1 1.8 0 3.1 1 4.5 3.2m55.9-.6c2.7 3.4 2.9 8.7.4 8.2-1-.2-1.7-1.1-1.7-2.1.2-2-.8-2.1-3.9-.6-2.1 1-2.1 1-.3-.5 1.1-.9 2.3-1.6 2.8-1.6.4 0 .8-.5.8-1.1s-.9-.8-2-.4c-1.5.5-2 .2-2-1.3 0-4 3-4.3 5.9-.6m-59.1 3.4c1.7 2.7.5 4.7-1.4 2.3-1.5-2-1.8-4.3-.6-4.3.4 0 1.3.9 2 2m-2.8 3.5c0 .7-1.2 1.6-2.7 2-1.5.3-3.8 1.4-5.2 2.4-3.2 2.2-6.1 3.3-6.1 2.3 0-.4 2.5-2.1 5.5-3.7 3.6-2 5.5-3.6 5.5-4.9 0-1.5.3-1.6 1.5-.6.8.7 1.5 1.8 1.5 2.5m47 1.7c1.1 1.8 2 4.2 2 5.3-.1 1.6-.4 1.4-1.7-1-.8-1.7-2.5-4-3.6-5.3-1.8-1.9-1.8-2.2-.4-2.2 1 0 2.6 1.5 3.7 3.2m5.4-1.6c1 2.6.7 4.4-.8 4.4-.7 0-1.6-.8-2-1.8-.3-.9-.9-2.3-1.2-3s.2-1.2 1.4-1.2c1.1 0 2.3.7 2.6 1.6m-11.3.4c3.2 1.8 6.5 10 4 10-.5 0-1.4-1.3-2.1-2.9-.6-1.6-2-3.7-3.1-4.7-3.1-2.8-2.4-4.3 1.2-2.4m-58.3 1.7c.2.9-.7 1.3-2.7 1.3-3 0-4.6-1.1-3.4-2.4 1.1-1.1 5.6-.2 6.1 1.1m295.2 1.6c0 3.3-.1 3.4-7.7 5.6-13.1 3.8-12 3.9-12.5-1.1-.3-2.3-.3-4.5-.1-4.7.2-.3 4.2-.7 8.8-.9 4.7-.3 8.8-.8 9.1-1.3 1.2-2 2.4-.7 2.4 2.4m-238.1 1.6c2.2 3.1 2.7 6.6 1.1 7.6-.5.3-1-.2-1-1.3s-1.1-3.6-2.5-5.6c-3-4.5-.7-5.2 2.4-.7m-3.9 1.3c1.1 1.2 2 3.5 2 5.2-.1 3.1-.1 3.1-2-.8-1.1-2.1-2.4-4.4-3.1-5.2-1.9-2.4.8-1.6 3.1.8m216.9 1.1c.7 1.9.8 4.3.4 5.3-.6 1.5-.9 1.3-1.4-1.6-.3-1.9-1-4.3-1.4-5.3s-.3-1.7.3-1.7 1.5 1.5 2.1 3.3m3 1.7c-.1 2.5-.1 2.5-.9 0-.4-1.4-.8-3.2-.9-4-.1-1.3 0-1.3.9 0 .5.8.9 2.6.9 4m-272.1 1.2c-.3 5.3-.3 5.3-3.8 5.3s-3.5 0-3.8-5.3c-.3-5.2-.3-5.2 3.8-5.2s4.1 0 3.8 5.2m49.1-1.6c2.2 2.8 2.8 6.9 1.1 7.9-.6.4-1-.5-1-1.9 0-2.6-3.1-6.6-5-6.6-.5 0-1-.5-1-1 0-2 3.9-.9 5.9 1.6m216.5-1c.3.9.6 2.6.6 3.9 0 1.8-.7 2.4-3.6 3-2 .3-3.7.5-3.8.3s-.7-2-1.3-4c-1.2-4.2-.8-4.6 4.3-4.7 2-.1 3.4.5 3.8 1.5m-10.6 1.9c1.4 3.1 1.5 6.2.3 6.9-.5.4-.7-.3-.4-1.3.3-1.1-.2-3.4-1-5-.9-1.7-1.2-3.1-.8-3.1s1.3 1.1 1.9 2.5m-2.4 2.7c1.1 3.1.9 3.5-1.8 4-1.4.2-2.1-.5-2.7-2.6-.5-1.6-.6-3.3-.3-3.8 1.1-1.7 3.9-.3 4.8 2.4m-206-.6c1.1 2.8.6 3.9-.9 2-.8-1.1-1.5-2.3-1.5-2.8 0-1.4 1.8-.9 2.4.8m-2.6 2.7c.2 1-.3 1.7-1.2 1.7-1.5 0-7.9 3.2-10.3 5.2-.7.5-1.8.8-2.5.5-.7-.2 1.5-1.8 5-3.6 3.6-1.8 6.2-3.8 6.2-4.7 0-2 2.4-1.2 2.8.9m-18 2.4c.2.9-.7 1.3-2.7 1.3-2.1 0-3.1-.5-3.1-1.6 0-1.9 5.1-1.6 5.8.3m235.7 2.8c-1.6 1.4-3.4 2.5-3.8 2.5s-2.5 1.1-4.5 2.5c-5 3.4-5.7 3.1-2.8-1.2 2.8-4 6.5-6.1 11.1-6.2h3zm-11.8.9c-.3.8-1.8 3.3-3.2 5.6-1.8 2.9-3.1 4-4.3 3.6-.9-.3-2.9-.8-4.4-1.2-1.8-.4-2.8-1.3-2.8-2.5 0-1-.7-1.9-1.5-1.9-1.8 0-1.9-1.4-.2-2.8 1.6-1.3 4.9-1.9 11.6-2.1 4.2-.1 5.2.2 4.8 1.3m-223.4.8c.5 1.5.1 6.3-.7 8.5-.4.9-1.6 1.3-3.3 1.1-2.6-.3-2.8-.7-3.1-5.6-.3-5.2-.3-5.2 3.1-5.2 1.9 0 3.7.6 4 1.2"/><path d="M652.4 1101.4c-1.8 1.4-1.8 1.6-.3 3.1 1.3 1.4 2.1 1.5 3.8.6 2.5-1.4 2.8-3.6.5-4.5-2-.8-1.7-.8-4 .8m3.1 1.6c-.3.5-1 1-1.6 1-.5 0-.9-.5-.9-1 0-.6.7-1 1.6-1 .8 0 1.2.4.9 1M315.4 947.5c-1.3 2-1.4 2.8-.4 4 .7.8 1.9 1.5 2.6 1.5.8 0 1.4.9 1.4 2.1 0 1.8-.4 2-2.7 1.4-2.3-.5-2.5-.4-1.4.9 1.9 2.3 3.8 2 5.6-.8 1.3-2 1.4-3.2.5-6.4-1.3-5-3.4-6-5.6-2.7m3.6 2.6c0 2-1.5 2.6-2.5.9-.9-1.5.3-4.3 1.5-3.5.5.3 1 1.5 1 2.6M325 946.4c-1.9 2.3-.8 6.1 1.8 6.4 3.3.5 2.5 3.8-.8 3.4-2.3-.2-2.3-.1-.9 1.3 1.8 1.8 4.9 1 5-1.4.5-8.7-1.9-13.4-5.1-9.7m3.4 2.2c.7 1.8 0 3.4-1.5 3.4-.5 0-.9-1.1-.9-2.5 0-2.8 1.5-3.4 2.4-.9M344.2 946.3c-.6.7-1 2.6-1 4.3.1 1.7-.2 3.6-.5 4.1-.4.6.3 1.9 1.4 2.9 1.9 1.7 2 1.7 4.1-.3 1.4-1.5 1.8-2.7 1.3-4-.5-1-.7-2.6-.6-3.6.2-1.8-1.5-4.7-2.9-4.7-.4 0-1.2.6-1.8 1.3m2.8 2.1c0 .8-.4 1.7-.9 2.1-1.2.7-2.4-1.2-1.6-2.5.9-1.5 2.5-1.2 2.5.4m.4 5.5c.3.5-.1 1.4-.9 2.1s-1.5 1-1.5.7-.3-1.2-.6-2.1c-.7-1.7 2-2.3 3-.7M353.2 946.2c-.7.7-1.2 3.3-1.2 5.9 0 4 .3 4.9 2.2 5.5 2 .6 4.8-1.5 4.8-3.7 0-1.4-3.1-3.9-4.1-3.4-.5.4-.9-.3-.9-1.5 0-1.7.4-2 2-1.5 2.4.7 2.7-1 .4-1.9-2-.8-1.8-.8-3.2.6m3.3 8.1c0 2.6-2 2.5-2.3-.2-.3-1.6.1-2.2 1-1.9.7.3 1.3 1.2 1.3 2.1M372.1 946.4c-.7.8-1.1 3.6-.9 6.3.3 4.4.5 4.8 2.8 4.8s2.5-.4 2.8-4.8c.3-4.5-.9-7.7-2.8-7.7-.4 0-1.3.6-1.9 1.4m3.7 6c-.4 4-3.2 4.2-3.6.3-.2-1.6-.1-3.6.2-4.4 1.1-2.7 3.7.6 3.4 4.1M381.2 946.2c-.6.6-1.2 3.3-1.2 5.9 0 4 .3 4.9 2.2 5.5 2.6.8 4.8-1.7 4.1-4.6-.5-1.8-1.5-2.4-3.5-2.1-.5 0-.8-.9-.8-2 0-1.7.5-2 2.1-1.6 1.3.3 1.9.1 1.6-.6-.5-1.7-3-2-4.5-.5m3.3 7.8c0 .7-.6 1.5-1.2 1.7-.8.3-1.3-.4-1.3-1.7s.5-2 1.3-1.8c.6.3 1.2 1.1 1.2 1.8M400.2 946.2c-.7.7-1.2 1.9-1.2 2.7.1 1.4.3 1.3 1.4-.2.7-.9 1.6-1.7 2-1.7 1.3 0 .5 3.3-1.4 5.7-2.9 3.8-2.6 5.3 1.3 5.2 2.3-.1 2.6-.3 1-.6-2.8-.5-2.9-1.3-.3-4.6 1.1-1.4 2-3.1 2-3.9 0-1.4-1.9-3.8-3-3.8-.3 0-1.1.5-1.8 1.2M335.7 947c2.1.9 2.1 1.1.8 3.7-1.7 3.2-2 7.3-.5 7.3.6 0 1-1 1-2.3 0-1.2.7-3.5 1.5-5.1 1.8-3.4 1.2-4.6-2.3-4.5-2.6 0-2.6.1-.5.9M390.5 948c-.3.5-.1 1 .4 1 .6 0 1.1 1.8 1.1 3.9 0 2.2.5 4.3 1 4.6.6.4 1-1.5 1-4.9 0-4.2-.4-5.6-1.4-5.6-.8 0-1.8.4-2.1 1M495.9 949.5c-.8.8.1 5.4 1.2 6.1.5.3.9-.3.8-1.3-.1-2.5-1.3-5.5-2-4.8M363 952.8c0 .4.9.8 2 .8s2-.4 2-.8-.9-.8-2-.8-2 .4-2 .8M498 960.9c0 1.8 2.1 6.4 2.6 5.8.9-.8-.6-6.7-1.7-6.7-.5 0-.9.4-.9.9M360 961.7c-.1.4 0 16.9 0 36.6.1 35.7.1 35.7-2.5 36.7-1.5.6-2.5 1.7-2.5 3 0 1.1-.7 3.2-1.6 4.5-1.5 2.2-1.4 2.5.5 4.2 1.6 1.3 2.1 2.9 2.1 6.3 0 6.4 2.3 14.4 4.2 14.8 2.1.4 2.9-2 3.3-11.1.4-6.6.8-8.1 2.6-9.6 2.2-1.8 2.2-1.8 0-6.4-1.3-2.6-2.7-4.9-3.2-5.3-.5-.3-.9-16-.9-36.9 0-23.2-.4-36.6-1-37-.5-.3-1-.3-1 .2m2.6 75.3c.8 0 1.4.4 1.4 1 0 1.4-5 2.4-6.2 1.2-1.4-1.4 0-3.5 1.9-2.8.8.3 2.1.6 2.9.6m-1.6 6c0 .5-.4 1-1 1-.5 0-1-.5-1-1 0-.6.5-1 1-1 .6 0 1 .4 1 1m3-.5c0 .3-.2.5-.5.5s-.5-.2-.5-.5.2-.5.5-.5.5.2.5.5m-4.2 3.2c1.2.3 2.9 0 3.7-.7.9-.7 1.9-1 2.2-.6 1.2 1.2-2 2.6-5.8 2.6-2.2 0-4.2-.7-5-1.7-1.2-1.5-1.2-1.6.6-.9 1.1.5 3 1.1 4.3 1.3m1 4.4c-.2.6-.8 1-1.3 1s-1.1-.4-1.3-1 .4-1.1 1.3-1.1 1.5.5 1.3 1.1m.2 3.9c0 .5-.7 1-1.5 1s-1.5-.5-1.5-1c0-.6.7-1 1.5-1s1.5.4 1.5 1m0 4c0 .5-.4 1-1 1-.5 0-1-.5-1-1 0-.6.5-1 1-1 .6 0 1 .4 1 1m-.3 3.7c-.4.3-1 .3-1.4 0-.3-.4 0-.7.7-.7s1 .3.7.7M501.4 972.2c.3 1.3.6 3.1.6 4s1.3 2.3 3 3.1c3.4 1.7 5.2.4 1.9-1.3-1.1-.7-2.7-2.7-3.5-4.6-1.6-3.8-3-4.6-2-1.2M490 974.8c0 .9 4.4 3.2 5.8 3.2 1-.1-3.8-4-4.9-4-.5 0-.9.4-.9.8M258.9 982.8c-17.7.2-23.8.5-24.1 1.5-.1.6-.2 6.1 0 12l.3 10.8 43.7-.3 43.7-.3.3-11.4c.2-8.5-.1-11.7-1-12.3-.7-.5-9.8-.8-20.3-.6-10.4.2-29.6.4-42.6.6m60.6 11.7v10l-40.7.3-40.8.2v-9.9c0-10 0-10 2.8-10.3 1.5-.2 19.8-.3 40.7-.3h38z"/><path d="M287.7 986.6c-.4.4-.7 1.4-.7 2.2 0 1.2.3 1.2 1.5.2 1.3-1.1 1.5-.8 1.5 1.4 0 1.4-.4 2.6-1 2.6-.5 0-1 .4-1 1 0 .5.7 1 1.5 1 1.6 0 2.1 3.5.6 4.5-.6.3-1.4-.2-1.9-1.1-.7-1.2-1.1-1.3-1.6-.5-.9 1.4 1.1 4.1 3 4.1 2.4 0 3.4-3.5 2.6-9.6-.5-4.1-1.2-6-2.3-6.2-.8-.1-1.8 0-2.2.4M298.2 987.2c-2.2 2.8-1.3 8.8 1.3 8.8 1.7 0 2.8 1.7 2 3-.5.8-1.1.7-2.1-.1-1.1-.9-1.4-.8-1.4.5 0 2.1 2.8 3.2 4.2 1.8s1.8-9 .6-12.4c-1.1-3-2.9-3.6-4.6-1.6m3 3.8c.5 3-.3 4.6-1.6 3.3-.9-1-.7-6.3.3-6.3.5 0 1.1 1.4 1.3 3M246.1 990.8c-2.6 5.1-2.6 6.8-.1 7.5 1.3.3 1.8 1.1 1.4 2-.7 1.8 1.2 3.2 2.2 1.6s.6-13.1-.5-14.2c-.6-.6-1.8.7-3 3.1m.6 4.4c-.3.8-.6.5-.6-.6-.1-1.1.2-1.7.5-1.3.3.3.4 1.2.1 1.9M256.3 991.8c-2.8 5.8-2.8 6.2-.4 6.2 1.2 0 2.1.8 2.3 2 .3 2.2 2.3 2.8 2.3.7 0-.6.4-1.7.8-2.4.4-.6.3-1.4-.3-1.8-.5-.3-1-2.6-1-5.1 0-2.4-.3-4.4-.7-4.4-.5 0-1.8 2.2-3 4.8m1.7 2.7c0 .8-.4 1.5-1 1.5-.5 0-.7-.7-.4-1.5.4-.8.8-1.5 1-1.5s.4.7.4 1.5M279.4 988.2c-2.5 3.6-4.4 7.9-3.9 8.8.3.6 1.5 1 2.6 1 1.6 0 1.9.5 1.4 2-.5 1.4-.2 2 1 2 1.5 0 1.6-.9 1.1-7.1-.6-7.8-.8-8.6-2.2-6.7m.6 6.9c0 .5-.4.9-1 .9-.5 0-1-.7-1-1.6 0-.8.5-1.2 1-.9.6.3 1 1 1 1.6M265 994.4c0 .9 3.7 1.2 5.5.5 1.5-.6 1.1-.8-1.7-.8-2.1-.1-3.8.1-3.8.3M504 982.9c0 1.8 2.1 6.4 2.6 5.8.9-.8-.6-6.7-1.7-6.7-.5 0-.9.4-.9.9M512 982.8c0 .9 4.3 4.2 5.5 4.2 1.5 0 .2-1.8-2.5-3.3-1.6-1-3-1.4-3-.9M522 990c0 .5 1.4 1.8 3 3 2.1 1.5 3 1.7 3 .8 0-.7-1.4-2.1-3-3-1.7-.9-3-1.3-3-.8M506.8 991.6c-.4.3-.2 1.7.4 3 .8 1.8.8 2.7-.3 4-1.1 1.4-1.1 1.8.5 3 1.3.9 2.4 1 3.7.3 2.2-1.2 2.4-2.3.5-4.1-.7-.8-2-2.6-2.8-4.1-.7-1.5-1.7-2.5-2-2.1m4.2 7.8c0 1.1-1.9 1.5-2.5.6-.3-.5.1-1 .9-1 .9 0 1.6.2 1.6.4M532 997.4c0 .8 7.1 4.8 7.6 4.3.6-.6-5-4.7-6.5-4.7-.6 0-1.1.2-1.1.4M546 1007c2.6 2 4 2.5 4 1.4s-3.4-3.3-5-3.3c-1-.1-.6.6 1 1.9M278.6 1008.8c-.9 1.5.7 18.3 1.8 19.5.6.7 2.2 2.5 3.5 4.2 1.2 1.6 3.9 4.8 5.9 7 2.1 2.2 5.7 6.5 8.2 9.5s4.7 5.7 5 6 2.5 3 5 6 4.7 5.7 5 6 2.5 3 5 6 4.7 5.7 5 6 2.5 3 5 6 5.7 6.8 7.2 8.5c1.6 1.6 2.8 3.4 2.8 4 0 .5-2.5 2.3-5.6 4-7.6 4.1-8.4 5.2-5.4 7.6 2.2 1.6 2.6 1.7 3.6.4.6-.9 1.8-1.3 2.6-1 1 .4 1.7-.1 2.1-1.4.3-1.2 1.2-2.1 2-2.1 1.8 0 5.7 4.6 5.7 6.6 0 2.1 3.6 5 11.1 8.9l6.9 3.6 7.1-3.8c3.9-2.2 7.1-4.3 7.2-4.8 0-.6-2.7-2.5-6.1-4.3s-6.2-2.9-6.2-2.5c0 .5 2 1.9 4.5 3.3s4.5 2.9 4.5 3.5-2.4 2.3-5.4 3.8c-5.5 2.8-5.5 2.8-11.3-.2-9.4-4.9-9.2-4.5-3.2-8 7.7-4.5 9.9-6.6 9.9-9.5 0-1.4-.4-2.6-1-2.6-.5 0-1 .8-1 1.7 0 1.2-.9.6-3.1-2-3.5-4.3-5.9-4.6-10.8-1.6-3.4 2.1-3.4 2.1-6.5-1.3-1.7-1.8-5.1-5.8-7.6-8.8s-4.7-5.7-5-6-2.5-3-5-6-4.7-5.7-5-6-2.5-3-5-6-4.7-5.7-5-6-5.1-5.9-10.7-12.5-11.3-13.3-12.7-14.9c-2.4-2.7-2.6-3.7-2.6-11.7 0-7.9-.9-11.4-2.4-9.1m77.4 91.4c1.1 1.8 2 3.9 2 4.5 0 1.3-9.6 7.3-11.7 7.3-.6 0-1.4-.9-1.8-1.9-.3-1-1.7-3-3.1-4.4s-2.1-2.8-1.5-3.1c1.2-.8 4.1.3 4.1 1.5s2.4 1.1 5.5-.3c2.4-1.1 3.6-4.8 1.5-4.8-.5 0-1-.5-1-1 0-2.4 4.2-.8 6 2.2m-6.3.5c.5 1.5-3.6 2.8-4.9 1.5-.6-.6-.7-1.5-.3-2.2.9-1.4 4.7-.9 5.2.7m-13.2 2c-2.2 1.5-4.1 2.6-4.2 2.5-.8-.6.5-1.9 3.2-3.4 4.7-2.7 5.4-2.1 1 .9m-6.5 3.2c0 .6-.4 1.3-1 1.6-.5.3-1-.1-1-.9 0-.9.5-1.6 1-1.6.6 0 1 .4 1 .9M557.9 1015c1.3 1.1 2.8 2 3.5 2 .6-.1 0-1-1.3-2-1.3-1.1-2.8-2-3.5-2-.6.1 0 1 1.3 2M664 1027v12l38.8.1c21.3 0 41.2.1 44.2.2l5.5.1.3-9.9c.5-16.4 6.2-14.5-44.8-14.5h-44zm85 .6v10.6l-39.2-.6c-21.6-.3-39.9-.6-40.5-.6-1 0-1.3-2.7-1.3-10v-10h81z"/><path d="M677.4 1020.2c-4.4 6.3-5.2 10.8-1.9 10.8.8 0 1.5.9 1.5 2s.6 2 1.4 2c1.1 0 1.3-1.6.9-7.8-.3-4.2-.6-7.8-.8-8-.1-.1-.6.3-1.1 1m-.8 7.4c-.4.9-.9 1.5-1.1 1.2-.3-.3-.3-1.3.1-2.2s.9-1.5 1.1-1.2c.3.3.3 1.3-.1 2.2M685.8 1024.4c-2.8 5.6-2.7 6.6.4 6.6 1.5 0 1.8.5 1.3 2-.5 1.4-.2 2 .9 2 1 0 1.7-.9 1.7-2.3.3-4.6-.3-12.2-1-12.9-.4-.5-1.9 1.6-3.3 4.6m1.4 3.8c-.7.7-1.2.8-1.2.2 0-1.4 1.2-2.6 1.9-1.9.2.3-.1 1.1-.7 1.7M707.2 1023.7c-2.7 5.9-2.8 7.3-.1 7.3 1.6 0 1.9.4 1.4 2-.5 1.5-.2 2 1.3 2 1.6 0 1.9-.6 1.7-3.3-.2-1.7-.3-5.3-.4-8-.1-2.6-.4-4.7-.9-4.7-.4 0-1.7 2.1-3 4.7m1.8 3.4c0 1.1-.4 1.8-1 1.4-.5-.3-.7-1.2-.3-2 .7-2.1 1.3-1.9 1.3.6M718 1027c0 6.7.3 8 1.6 8 1.1 0 1.4-.5 1-1.6-.3-.9-.6-4.5-.6-8 0-3.6-.4-6.4-1-6.4s-1 3.3-1 8M727.2 1021.5c-2.4 5.2-.6 13.5 2.9 13.5 2.9 0 4-7.9 1.8-13.7-1.1-3-3.3-2.9-4.7.2m3.8 5.5c0 2.7-.4 5.1-.9 5.5-1.3.7-2.5-5.8-1.7-9 1-4 2.6-1.9 2.6 3.5M739.7 1019.7c-.5.8-3.7 13.7-3.7 14.9 0 .2.4.4.9.4s1.1-1 1.3-2.2c.5-3.4 3.8-3.7 3.8-.4 0 1.7.5 2.6 1.6 2.6s1.4-.5.9-1.7c-.3-1-1.1-4-1.7-6.8-1.2-5.8-2.3-8.2-3.1-6.8m1 8c-.4.3-.7 0-.7-.7s.3-1 .7-.7c.3.4.3 1 0 1.4M695 1027c-1.1.7-.5 1 2.3 1 2.3 0 3.6-.4 3.2-1-.8-1.3-3.5-1.3-5.5 0M568.5 1022.5c1.6 1.3 3.2 2.2 3.5 1.9.7-.7-3.9-4.4-5.4-4.4-.6.1.2 1.2 1.9 2.5M576 1027.4c0 .8 7.1 4.8 7.6 4.3.6-.6-5-4.7-6.5-4.7-.6 0-1.1.2-1.1.4M588 1035.8c0 1 6 4.5 6.6 3.9s-4.5-4.7-5.7-4.7c-.5 0-.9.4-.9.8M600 1043.7c0 1.1 6.3 5.3 6.9 4.7.3-.3-.8-1.6-2.4-2.9-3.1-2.5-4.5-3.1-4.5-1.8M200.2 1061.2l.3 12.3 44.8.3 44.8.2-.3-12.2-.3-12.3-44.8-.3-44.8-.2zm65.1-10.2h21.8l-.3 10.2-.3 10.3-37.5.3c-20.6.2-39.4 0-41.7-.3-4.3-.6-4.3-.6-4.3-10.5 0-11.7-2.4-10.6 23.5-10.3 9.4.1 26.8.2 38.8.3"/><path d="M213.4 1054.2c-4.5 6.3-5.2 10.8-1.8 10.8 1.1 0 1.5.6 1.1 2s0 2 1.3 2c1.6 0 1.7-.8 1.3-7.8-.3-4.2-.6-7.8-.8-8-.1-.1-.6.3-1.1 1m-.8 8.5c-1.1 1.1-1.7-.4-.9-2.3.7-1.8.8-1.8 1.1-.1.2 1 .1 2.1-.2 2.4M222.6 1057.6c-3.1 5.6-3.3 7.4-.6 7.4 1.3 0 2 .7 2 2 0 1.1.6 2 1.4 2 1.1 0 1.3-1.6.9-7.8-.3-4.2-.6-7.8-.8-8-.1-.2-1.4 1.8-2.9 4.4m1 5.1c-1 1-1.9-.5-1-1.8.6-1.1.8-1.1 1.2 0 .2.7.1 1.5-.2 1.8M244.9 1053c0 .3-.1 4-.2 8.3-.2 6.3.1 7.7 1.3 7.7 1.3 0 1.5-1.2 1.2-7.3-.2-3.9-.8-7.6-1.3-8.2-.5-.5-.9-.7-1-.5M253.5 1054.9c-1 3.4.4 6.9 2.6 6.4 1.5-.4 1.9 0 1.9 2 0 2.8-1.5 4.4-2.5 2.7-.9-1.5-2.5-.2-1.8 1.5.7 1.9 3.7 1.9 5.2.1 1.9-2.3.9-7-1.7-8.1-2.8-1.2-2.5-3.9.6-4.3 2.9-.4 1.8-2.2-1.3-2.2-1.5 0-2.6.7-3 1.9M265.2 1054.2c-1.8 1.8-1.5 12.3.3 13.8q4.5 3.75 4.5-6.3c0-5.6-1.1-8.7-3-8.7-.3 0-1.1.5-1.8 1.2m3.3 2.8c.8 2.6-.4 10-1.6 10-.5 0-.9-2.7-.9-6 0-5.9 1.3-7.9 2.5-4M233.3 1061.7c.9.2 2.5.2 3.5 0 .9-.3.1-.5-1.8-.5s-2.7.2-1.7.5M612.2 1052.1c.5 1.6 4.8 4.4 4.8 3.1 0-.5-1.2-1.7-2.6-2.7-1.7-1.1-2.5-1.3-2.2-.4M622 1059.2c.1 1.6 6.8 6 7.5 4.8.3-.5-.7-1.7-2.2-2.8-4.6-3.1-5.3-3.4-5.3-2M633 1066.7c0 1 5.2 5.4 5.8 4.8.3-.2-.1-1.2-.8-2-1.6-2-5-3.9-5-2.8M360 1073.4c0 2 .5 3.6 1 3.6.6 0 1-1.3 1-2.9 0-1.7-.4-3.3-1-3.6-.6-.4-1 .8-1 2.9M145.3 1074.7c-3.6.7-8.9 6.8-10.3 11.7-2.2 8.1 2.6 16 11.7 19 4.4 1.5 5.4 1.5 9.1.2 4.1-1.5 4.2-1.4 6.2 1.1 2.5 3.3 3.8 2.4 1.5-1.1-1.6-2.4-1.6-2.7.7-5.8 3.3-4.7 3.2-14.7-.3-18.4-5.4-5.8-11.9-8.2-18.6-6.7m11.3 2.9c7.1 3.4 10.4 12.7 6.9 19.5-2.2 4.2-3.9 5.5-9.1 6.8-9.9 2.5-19.6-6.1-17.9-16 1.6-9.5 11.3-14.4 20.1-10.3"/><path d="M145.3 1082.7c-.7.2-1.3 1.1-1.3 1.9 0 1.1.4 1.2 1.9.4 1.1-.5 3.4-1 5-1 2.9 0 3 .1 1.9 2.2-.7 1.3-1.5 2.5-1.8 2.8s-2 2.4-3.9 4.7l-3.3 4.3h7c5.6 0 7.1-.3 7.6-1.6.8-2.2 0-3-1.6-1.7-1.9 1.5-6.6 2.4-7.2 1.4-.3-.5 1.4-3.6 3.9-7s4.5-6.3 4.5-6.6c0-.6-11.1-.5-12.7.2M644 1074.8c0 1.4 4.9 5.6 5.7 4.9.3-.4-.4-1.8-1.7-3.2-2.4-2.5-4-3.2-4-1.7M245.9 1076.5c0 .6 0 30.8.1 67.2.1 43.3-.2 66.3-.9 66.3-1.4 0-3.6-2.4-8.8-9.8-2.6-3.7-6.5-9.2-8.7-12.3-2.3-3.1-6.7-9.2-9.9-13.7-3.2-4.4-6.4-8.3-7.2-8.6-.9-.3-1.5-1.8-1.5-3.7 0-2.4-1.2-4.2-5.5-8.5-3-3-5.5-5.9-5.5-6.4s-.8-1.1-1.7-1.4c-1-.3-4.6-4.6-8.1-9.5-8-11.4-8.3-11.6-11.1-9-1.2 1.2-2 2.6-1.8 3.3.3.6 3.1 4.7 6.2 9.1 3.2 4.4 6.4 9.6 7.2 11.5.9 1.9 2.4 4.7 3.4 6.2 1.1 1.4 1.9 3.1 1.9 3.7 0 2.1 4.4 7.1 6.2 7.1 1.1 0 2.3 1.1 2.8 2.5.9 2.4 16.1 24 27.7 39.4 6.1 8.2 11.3 11 20 11.1 6.6 0 10.8-1.5 23-8.4 5-2.8 6.9-3.3 10-2.9 3.5.5 4.4.1 9-3.8 2.9-2.4 8.2-5.9 12-7.8 6.6-3.4 12-7.3 18.7-13.7 5.3-5.1 12.4-8.5 16.6-7.8 5.2.9 15.3-4.9 20.5-11.7 2.2-2.8 5.4-5.9 7-6.8 9.5-5.1 14.5-8.2 14.5-9.2 0-.5-1.1-2.1-2.5-3.5-2.8-2.8-1.2-3.4-18.5 6.4-4.4 2.5-6.7 3.2-11.3 3.2-5 0-6 .3-6.4 1.9-.3 1.1-2.2 3.1-4.2 4.5-2.1 1.5-4.7 3.9-5.9 5.5-2.4 3.3-10.5 8.1-13.6 8.1-1.2 0-3.9.9-6.1 2s-5.2 2-6.7 2c-1.8 0-3.3.8-4.4 2.4-2.5 3.9-7.8 6.6-11.6 6-4.5-.7-9.4 2.8-12.7 9.1-3.8 7.1-16.2 14.4-25.2 14.8l-4.4.2-.3-67c-.1-42.6-.6-67.3-1.2-67.9s-1-.6-1.1-.1m-66.4 52.4c-.3.6-1.1 1.1-1.7 1.1s-.6-.6.2-1.5c1.4-1.7 2.6-1.3 1.5.4m3.1 3.5c1.8 1.9 1.8 3.6-.1 3.6-.9 0-1.2-.6-.9-1.5.4-1 0-1.5-1.1-1.5-.9 0-1.3-.5-1-1 .8-1.3 1.4-1.3 3.1.4m3.4 5.1c0 .8-.7 1.5-1.6 1.5-1.4 0-1.4-.3-.4-1.5.7-.8 1.4-1.5 1.6-1.5s.4.7.4 1.5m1.6 4.2c-1 1-1.9-.5-1-1.8.6-1.1.8-1.1 1.2 0 .2.7.1 1.5-.2 1.8m2.9 2.3c-.3.5-1.3 1-2.1 1s-1.2-.5-.9-1c.3-.6 1.3-1 2.1-1s1.2.4.9 1m1.7 3.2c-.6.6-1.5.8-1.9.4s-.1-1.1.7-1.6c1.9-1.2 2.7-.3 1.2 1.2m186.2-.3c1.6 1.8 1.6 2-1.2 4-1.7 1.2-3.3 2.1-3.6 2.1-.4 0-2.4 1.2-4.6 2.6-2.2 1.5-4.1 2.5-4.3 2.3-2.7-4.7-2.8-4.4 4.1-8.7 3.7-2.2 7-4.1 7.3-4.1.3-.1 1.4.8 2.3 1.8m-181.4 1.9c0 1.4-2.3 3.2-4.2 3.2-2.3 0-2.3-1.6 0-2.9 2.1-1.3 4.2-1.4 4.2-.3m4.3 5.2c2.8 2.9 2.8 2.9.7 5-2.9 2.9-5.2 2.5-7.3-1.2-1.8-3.2-1.8-3.2.5-5 3-2.3 2.8-2.3 6.1 1.2m160.6 3.6c.3 1.6.1 1.7-1.3.5-1.9-1.6-2.1-3.4-.3-2.9.6.3 1.4 1.3 1.6 2.4m-13.9.4c0 .5-.4 1-.9 1-.6 0-1.3-.5-1.6-1-.3-.6.1-1 .9-1 .9 0 1.6.4 1.6 1m8.5 3.3c2.5 4.6 1.8 5.9-5 9.7-5.3 3-6.5 3-6.5.1 0-1-1.1-3.1-2.5-4.6-1.7-2.1-2.1-3.2-1.4-4.2.9-1 1.6-.9 3.4.3 3.1 2 6.5.4 6.5-3.2 0-3.7 3.1-2.7 5.5 1.9m2.5-2.8c.6.8 1 2.1.8 2.9-.2 1.1-.8.7-2-1.4-1.8-3.1-1-4.1 1.2-1.5m-152 2.5c0 2.6-2.7 5-5.5 5-2.6 0-4.6-2.1-2.6-2.8.7-.2 2.4-1.4 3.9-2.7 2.9-2.5 4.2-2.4 4.2.5m141 .4c-.7.7-1.3.7-2 0-.6-.6-.3-1 1-1s1.6.4 1 1m-7.4 5.1c2.5 2.5 3.9 7.6 2.3 8.5-1.7 1.1-2.9.3-2.9-1.9 0-1-.9-3-2-4.4s-2-2.8-2-3.1c0-1.2 3.2-.6 4.6.9m-131.2 1.8c.8 1.3.7 2-.4 2.7-2.1 1.3-2.3 1.3-3.9-1.1-1.1-1.8-1.1-2.3.1-3 1.7-1.1 2.9-.7 4.2 1.4m128.4 3.8c.2 2.3.2 2.3-1.3.5-1.8-2.4-2-3.9-.2-3.4.6.3 1.3 1.5 1.5 2.9m-122.3 1.9c11.5 16.9 26.4 36.4 28.6 37.6 3.9 2 12.6 1.7 17.4-.5 2.2-1 8.6-4.6 14.3-8 5.6-3.3 10.7-6.1 11.3-6.1s.9-.7.5-1.5c-.3-.9 0-1.5.9-1.5 2.4 0 1.7 4.3-1.2 7.8-3.3 3.7-22.6 14.6-29.6 16.7-5.4 1.6-12.5 1.1-17-1.2-2.8-1.4-9.7-8.1-9.7-9.4 0-.4-.6-1.4-1.3-2.1s-3.3-4.2-5.7-7.8c-2.5-3.5-5-7.1-5.7-8-.7-.8-3.5-4.6-6.3-8.5-5.1-6.9-5.1-6.9-2.8-8.7 3.1-2.4 4-2.2 6.3 1.2m119.3-.8c.2 1.2-1.2 2.5-4.7 4.3-4.9 2.4-5.1 2.4-6.1.6-.8-1.7-.4-2.3 3.3-4.4 4.7-2.8 7-3 7.5-.5m-14.2 3.6c.6.4 1.7 1.8 2.3 3.1 1.1 1.9 1 2.6-.3 3.9-1.4 1.4-1.6 1.4-2.2-.4-.4-1-1.4-2.7-2.1-3.6-2.2-2.5-.4-4.8 2.3-3m-3 4.7c1.5 2.3 1.5 2.7 0 5-2.1 3.3-3.1 3.2-4.6-.5-.7-1.7-1.6-3-2.1-3-1.7 0-.9-2.9.9-3.3 3.4-.9 4.2-.7 5.8 1.8m-8.2 2.6c1.5 1.8 2.6 4.3 2.6 6 0 3.7-1.4 3.7-3 0-.6-1.6-2.2-3.9-3.5-5.1-1.4-1.3-2.2-2.7-1.9-3.1 1-1.7 3.3-.9 5.8 2.2m-3 4.4c2.4 3.7 2 5.3-2.5 8-6.3 4.1-6.5 4-6.1-.5.2-2.3-.1-4.7-.8-5.5-1.5-1.8-1.5-1.7 2.5-3.8 3.4-1.7 4.8-1.4 6.9 1.8m-13.6 4.4c.4 3.6-1.2 8.4-3.4 10.2-.7.6-.3-.7.9-3 1.7-3.2 2-4.4 1.1-5.8-1.9-3-4.3-2.7-8 1.2-3.8 4.1-5.7 4.1-3 .1 3-4.7 5.9-6.7 9.1-6.4 2.6.3 3 .7 3.3 3.7m3.2 2.4c0 3.3-.7 5.1-3.1 8-3.8 4.6-5.1 4.2-1.5-.5 1.4-1.9 2.8-5.3 3.2-7.6.8-5.4 1.4-5.4 1.4.1M360 1083.5c0 2.2.4 3.4 1 3 .6-.3 1-1.7 1-3s-.4-2.7-1-3c-.6-.4-1 .8-1 3M507.5 1082c-1.6 1.1-4.2 2-5.6 2s-3.5 1.1-4.8 2.3c-1.9 2.1-2 2.5-.6 3.7.8.7 1.5 2.3 1.5 3.5 0 1.3.5 2.5 1.1 2.7s2.8 4.8 5 10.3c6.1 15.2 13.6 34.5 19.6 49.9 2.9 7.7 5.8 14.5 6.5 15.3.7.9 2.5 1.2 5.2.9 2.3-.2 13.2-.5 24.4-.5 12.9-.1 20.2-.5 20.2-1.1 0-.7-8.5-1-24.1-.9-13.3 0-24.5-.3-24.8-.8-.4-.4-1.7-3.5-3-6.8-1.2-3.3-3.1-8-4.1-10.5-4.9-11.9-21-53.2-21.6-55.4-.4-1.8-.1-2.7 1.5-3.6 2.3-1.2 2.8-3.9 1-5.7-1.1-1.1 1.7-3.4 5.9-4.7 2.1-.7 2.3-.5 2 1.6-.2 1.5-1.1 2.4-2.5 2.6-2.7.4-3.1 2.2-.5 2.2 2.7 0 5.4-3.4 5-6.2-.4-3-3.4-3.3-7.3-.8m-3.5 7.9c-.1 1.3-.3 1.3-1.5-.3-1.9-2.6-1.9-4.2 0-2.6.8.7 1.5 2 1.5 2.9m-3 1.5c-.1 2-.2 2-1.5-.4-1.9-3.3-1.9-4.6 0-3 .8.7 1.5 2.2 1.5 3.4M649.8 1081.6c-.8.7.3 5.4 1.3 5.4 1.2 0 1.2-4.7 0-5.4-.4-.3-1-.3-1.3 0M492 1088.6c0 2.1.4 3.3 1 2.9.6-.3 1-1.9 1-3.6 0-1.6-.4-2.9-1-2.9-.5 0-1 1.6-1 3.6M360 1092.5c0 2.2.4 3.4 1 3 .6-.3 1-1.7 1-3s-.4-2.7-1-3c-.6-.4-1 .8-1 3M484.8 1092.7c-2.1.5-2.4 2.3-.5 2.3 1.7 0 4.2 4.5 3.3 5.9-.4.6-.2 1.1.4 1.1 1.9 0 2.2-2.8.6-5.2-2.1-3-2-3.7.6-3 1.4.3 1.9.2 1.4-.6-.7-1.2-2.6-1.4-5.8-.5M495.3 1095c0 1.7.4 3 .9 3 1.1 0 1.1-4.7 0-5.4-.5-.3-.9.8-.9 2.4"/><path d="M474.5 1098.5c-3.3 1.9-7.5 4.2-9.2 5.1-1.9 1-3.3 2.6-3.3 3.6s-.4 1.8-.8 1.8c-.5 0-1.5 1.2-2.3 2.6-.7 1.4-2.4 3-3.6 3.5-1.3.5-2.3 1.4-2.3 2 0 .7.7.8 1.8.4.9-.4 3.3-.7 5.2-.6 2.6.1 4.5-.6 7-2.8 3.5-2.9 3.5-2.9 1.8-6.5-1.8-3.6-1.3-4.7 1-2.4.7.7 1.2 2.2 1.2 3.5s.5 2.3 1.1 2.3c1.2 0 .8-3.9-.6-7.5-.8-1.8-.7-1.8.8-.6.9.7 1.7 2.6 1.7 4.2 0 2.7.1 2.8 2.3 1.7 1.2-.7 2.4-1.6 2.7-1.9s1.3-.8 2.3-1.2c2.3-.8 2.2-2.8-.4-6.1-1.5-1.9-1.7-2.6-.7-2.6 2.2 0 3.8 2.2 3.8 5.3 0 1.6.4 2.6 1 2.2 1.7-1 1.1-5.4-1-7.5-2.5-2.5-2.2-2.5-9.5 1.5m5.5 2.4c.5 1.1 1 2.4 1 3 0 1.7-1.7 1.3-2.4-.7-.3-.9-.9-2.3-1.2-3-.9-2 1.4-1.4 2.6.7m-3 2.1c.6 1.1.8 2.5.4 3.1-.5.8-3.4-3.2-3.4-4.7 0-1.2 2.1-.1 3 1.6m-9.9 4.6c1.6 2 .5 3.8-3.9 6.6-3.4 2.1-3.4 2.1-3-.3.2-2 .8-2.4 3.2-2.2 2.2.2 2.6-.1 1.8-.9-1.4-1.4-1.6-4.8-.3-4.8.5 0 1.4.7 2.2 1.6M492 1099.6c0 2.1.4 3.3 1 2.9.6-.3 1-1.9 1-3.6 0-1.6-.4-2.9-1-2.9-.5 0-1 1.6-1 3.6M457.6 1098.9c-.4.6-.3 1.8.2 2.7.8 1.5 1 1.4 1.6-.2.8-2-.8-4.2-1.8-2.5M406.8 1107c-.2 1.8-1 2.6-2.8 2.8-2.4.3-2.4.3-.5-1.1 3.3-2.5 1-3-2.9-.6-2 1.1-3.3 2.5-3 3 .3.6.1 1.6-.6 2.4-.8 1-.6 1.8 1 3.3 2.1 1.9 2.1 1.9 0 2.5-1.1.3-2 1.2-2 2 0 1.6 6.5 5.1 7.9 4.2.5-.3 1.3 0 1.6.6.9 1.3-2.3 3.8-5 3.9-3 .1-19.9 10.4-20.3 12.3-.2.9.6 2.6 1.7 3.8 2 2.2 2 2.2 11.9-3.5 5.5-3.1 10.2-6.2 10.5-7 .8-2.1 6.9-4.8 8.1-3.6.5.5 2.1 1 3.6 1 2.9.1 5.3 1.7 6.3 4.2.3 1 1.1 1.8 1.8 1.8.6 0 2.4.9 4 2.1 4 2.8 7.3 2.2 7.7-1.4.2-1.5-.1-2.7-.7-2.7s-1.1-.5-1.1-1c0-.6.6-1 1.4-1 1.9 0 .8-4.8-1.5-6-1-.6-1.6-1.6-1.3-2.4.3-.7-.3-2.2-1.3-3.1-1.3-1.3-1.4-2-.5-2.3 2.3-.7 1.2-2.4-1.2-1.8-1.4.3-2.8.1-3.1-.5-.4-.6-1.7-1.4-2.8-1.8-2.1-.8-2.1-.8 0-2 1.8-.9 3-.8 6 .6 2.1 1 4 2.1 4.1 2.6.7 1.5 2.2-.5 2.2-2.9 0-2.7-.3-2.9-2.9-1.2-1.4.9-2.3.8-4-.4-1.2-.9-3.1-1.4-4.1-1.1-1.4.4-2.2-.2-2.9-2-1.1-2.9-5.8-5.4-11.3-5.9-3.3-.4-3.7-.1-4 2.2m10.5 1.5c1.6 1.1 1.6 1.3-.7 2.9-1.4.9-2.7 1.6-3 1.6-1.2 0-5.7-5-5.2-5.8.7-1.1 6.6-.3 8.9 1.3m-7.3 3.4c0 .6-.4 1.2-.8 1.5-1.3.8-5.2-.5-4.6-1.5.7-1.2 5.4-1.2 5.4 0m11 1.5c0 1.9-1.4 2.8-3.4 2-2.9-1.1-1.7-2.6 2.7-3.3.4 0 .7.5.7 1.3m-13.6 2.5c.6.9-1.6 2.1-3.8 2.1-.7 0-2.1-.7-3.2-1.5-1.8-1.3-1.6-1.4 2.3-1.5 2.3 0 4.4.4 4.7.9m5.6 1.9c-.1 1.6-1.7 3.1-4.3 3.7-3.6 1-3.7-1.5 0-3.7 2.6-1.5 4.3-1.5 4.3 0m3-.3c0 .3-.2.5-.5.5s-.5-.2-.5-.5.2-.5.5-.5.5.2.5.5m8.8 2.7c-.3.7-1.5 1.3-2.8 1.3s-2.5-.6-2.7-1.3q-.45-1.2 2.7-1.2c2.1 0 3 .4 2.8 1.2m-7.8 1.3c.7.8 1.9 1.5 2.6 1.5.8 0 1.4.4 1.4 1 0 1.6-6.6 1.1-8.1-.6-1-1.3-1-1.7.2-2.5 1.9-1.2 2.5-1.1 3.9.6m-12.7 1c-.3 1.7-2.7 1.7-4.8 0-1.9-1.5-1.8-1.5 1.5-1.3 1.9.2 3.4.7 3.3 1.3m5.7 1.5c0 .5-.9 1-2 1s-2-.5-2-1c0-.6.9-1 2-1s2 .4 2 1m13.9 4.1c-1.3 1-2.8 1.7-3.4 1.5-1.9-.5-1-2.6 2-4.5 2.6-1.5 3-1.6 3.4-.3.2.9-.7 2.3-2 3.3m-9.9-1.3c0 .4-2.2 1.9-5 3.4-3.3 1.8-5 2.3-5 1.4 0-.7 1.9-2.2 4.3-3.4 4.5-2.3 5.7-2.6 5.7-1.4m17.7 2.4c1.3 1.2 2.3 2.5 2.3 3 0 1.4-3.9.9-6.6-.9-2.5-1.6-2.5-1.7-.8-3 2.3-1.7 2.4-1.7 5.1.9m-14.7.8c0 .5-.7 1-1.5 1s-1.5-.5-1.5-1c0-.6.7-1 1.5-1s1.5.4 1.5 1m7.4 1.6c2 .8 2.1 3.4.2 3.4-1.7 0-3.8-2.4-2.9-3.3.8-.8.8-.8 2.7-.1m-22.6 2.5c.4 2.1-14.3 11.1-17.2 10.7q-6.6-.9 5.7-8.1c8.4-4.8 10.9-5.4 11.5-2.6m30.4 2.6c2 1.8 2.4 4.3.8 4.3-1.7 0-7-3-7-3.9 0-2.5 3.6-2.8 6.2-.4M457.6 1104.9c-.4.6-.3 1.9.3 2.8.9 1.7 1 1.7 1.7 0 .8-2.1-1-4.5-2-2.8M492 1109.5c0 1.9.5 3.5 1 3.5.6 0 1-1.6 1-3.5s-.4-3.5-1-3.5c-.5 0-1 1.6-1 3.5M360 1110.5c0 1.4-.4 2.5-1 2.5-.5 0-1 .9-1 2 0 1.5.7 2 2.6 2 2 0 2.5-.4 2-1.6-.3-.9-.6-2.9-.6-4.5s-.4-2.9-1-2.9c-.5 0-1 1.1-1 2.5M166 1111.5c0 .3.7 1.7 1.6 3 2.3 3.6 3.9 3.1 1.7-.5-1.5-2.7-3.3-4-3.3-2.5M445.8 1119.2c1.7 1.7 2.5 1.9 3.4 1s.5-1.4-1.6-2.2c-4-1.5-4.3-1.3-1.8 1.2M492 1120.5c0 1.9.5 3.5 1 3.5.6 0 1-1.6 1-3.5s-.4-3.5-1-3.5c-.5 0-1 1.6-1 3.5M457.4 1119.3c-.7 2-.2 4.7 1.1 5 1.4.3 1.9-4.3.6-5.6-.7-.7-1.2-.6-1.7.6M173.6 1122.5c.9 1.4 1.9 2.4 2.1 2.1.7-.7-1.6-4.6-2.8-4.6-.5 0-.2 1.1.7 2.5M344.7 1120.7c-.8 1.5 0 5.7 1.1 6.1.8.2 1.2-.8 1.2-2.7 0-2.9-1.4-4.9-2.3-3.4M437.5 1121c-.3.5.1 1 1 1 3 0 7.5 3 7.5 5 0 1.7-3.4 5-5.2 5-.5 0-.8-1.3-.8-2.9 0-1.7-.5-3.3-1.1-3.6-1.6-1-1.7-.5-1 5 .4 2.7.2 6-.3 7.3-1.7 4 .6 4.5 5.8 1.2 4.7-3 4.7-3 4.4-8.7-.3-5.3-.6-5.9-3.7-8-3.7-2.5-5.6-2.9-6.6-1.3m7.5 12.9c0 1-1.2 2.6-2.6 3.6-2.6 1.6-2.6 1.6-1.9-.7.6-1.9 3.1-4.8 4.2-4.8.2 0 .3.8.3 1.9"/><path d="M434 1123c0 1.1.5 2 1 2 .6 0 1-.9 1-2s-.4-2-1-2c-.5 0-1 .9-1 2M457.4 1129.4c-.8 2.1-.1 4.9 1.4 5.4q1.2.3 1.2-2.7c0-3.3-1.7-5.1-2.6-2.7M492 1131c0 1.6.5 3 1 3 .6 0 1-1.4 1-3 0-1.7-.4-3-1-3-.5 0-1 1.3-1 3M345 1135.5c0 1.9.5 3.5 1 3.5.6 0 1-1.6 1-3.5s-.4-3.5-1-3.5c-.5 0-1 1.6-1 3.5M492.7 1137.7c-1.1 1-.8 8.3.3 8.3.6 0 1-2 1-4.5 0-4.6-.2-5-1.3-3.8M457.6 1138.7c-1.2 1.2-.6 4.1 1.3 6.4 1.1 1.4 2.3 2 2.8 1.5.4-.5.2-1.1-.4-1.3-.7-.3-1.3-1.8-1.3-3.3 0-2.9-1.2-4.5-2.4-3.3M345 1147.5c0 1.9.5 3.5 1 3.5.6 0 1-1.6 1-3.5s-.4-3.5-1-3.5c-.5 0-1 1.6-1 3.5M465.6 1149.5c1 .8 2.6 1.4 3.4 1.4 1.1 0 1-.3-.4-1.4-1.1-.8-2.7-1.5-3.5-1.5-1.1 0-1 .4.5 1.5M492 1151.9c0 1.7.5 3.3 1 3.6.6.4 1-.8 1-2.9 0-2-.4-3.6-1-3.6-.5 0-1 1.3-1 2.9M472.5 1152.9c-.3.5-.1 1.2.5 1.6.5.3 1 3.3 1 6.6 0 3.4.4 5.9 1 5.9s1-1.8.9-4.3c-.1-2.3.1-5.2.5-6.4.5-1.6.2-2.5-1.3-3.2-1.2-.7-2.2-.7-2.6-.2M481 1158c0 .9 3.1 3 4.4 3 1.6 0 .3-1.8-1.9-2.8-1.4-.7-2.5-.8-2.5-.2M492.4 1159.8c-.4 1.2-1.3 2.2-2.2 2.2-1.1 0-1.3.3-.6 1 1.3 1.3 4.1.3 4.9-1.7.3-.9.1-2.1-.5-2.7-.8-.8-1.2-.4-1.6 1.2M581.7 1158.7c-.4.3-.7 6-.7 12.5v11.8l44-.2 44.1-.3.1-11.4c.2-10.5 0-11.5-1.8-12.2-2.3-.9-84.8-1.1-85.7-.2m83.6 2.3c.4 0 .7 4.5.7 10v10h-82v-9.8c0-5.4.3-10.1.6-10.5.5-.4 68.7-.2 80.7.3"/><path d="M592.2 1166.9c-2.7 6-2.8 7.1-.1 7.1 1.5 0 2 .5 1.7 2.2-.2 1.5.2 2.3 1.2 2.3 1.2 0 1.4-1.4 1.2-7.5-.2-4.1-.6-7.8-1-8.2s-1.7 1.4-3 4.1m1.4 4.8c-1 1-1.9-.5-1-1.8.6-1.1.8-1.1 1.2 0 .2.7.1 1.5-.2 1.8M602.9 1162.5c0 .6-.1 4.4-.1 8.5 0 5.5.4 7.6 1.4 7.8 1.1.2 1.3-1.4 1-7.5-.2-4.3-.8-8.2-1.3-8.8-.6-.6-.9-.6-1 0M623.6 1163.5c-2.3 2.4-2.2 11.7.2 13.8q4.2 3.9 4.2-6.9c0-7-1.6-9.6-4.4-6.9m2.4 6.5c0 3.3-.4 6-1 6-1.1 0-1.4-10.3-.3-11.3 1.2-1.2 1.3-.8 1.3 5.3M634.1 1162.9c-2.1 1.3-2.6 13.5-.6 15.1.8.7 2.2 1 3 .6 2.1-.8 3.5-4.8 2.3-6.3-.6-.7-.7-2.4-.4-3.8.6-2.5-.7-6.5-2.2-6.5-.4 0-1.3.4-2.1.9m2.9 4.2c0 2-1.5 2.6-2.5.9-.9-1.5.3-4.3 1.5-3.5.5.3 1 1.5 1 2.6m-.2 6.4c-.2 1.4-.7 2.6-1.3 2.6-.5 0-1.1-1.2-1.3-2.6-.2-1.8.1-2.5 1.3-2.5s1.5.7 1.3 2.5M645.9 1162.1c0 .2-.1 4.1-.2 8.7-.1 5.4.2 8.2.9 8.2 1.2 0 1.2-15.5 0-16.7-.3-.3-.6-.4-.7-.2M655 1167.2c-.5 2.4-1.4 5.7-1.9 7.5s-.6 3.4-.3 3.7c1.2 1.3 2.1.5 2.4-2.2.4-3.4 3.3-3.7 3.3-.3 0 1.4.7 2.7 1.4 2.9 1 .3 1.2-.2.8-1.9-.3-1.3-1.1-5-1.7-8.2-.6-3.1-1.5-5.7-2-5.7s-1.4 1.9-2 4.2m2.5 2.8c.3.5.1 1-.4 1-.6 0-1.1-.5-1.1-1 0-.6.2-1 .4-1 .3 0 .8.4 1.1 1M611 1170.4c0 .8 6.1 1.2 6.6.4.3-.4-1.1-.8-3-.8-2 0-3.6.2-3.6.4M468.7 1166.2c-1.3 1-1.9 3.4-2.3 9.8-.2 4.7-.7 9.9-.9 11.7-.3 3 0 3.5 5.1 6.3l5.4 3.1v27.5c0 17.6.4 27.4 1 27.4s1-9.5 1-26.4v-26.5l3.3.6c2.4.3 3.7 0 4.7-1.2 1.2-1.5 1.2-1.9-.5-3.2-1.8-1.2-2-2.5-1.8-10.7.1-8.3-.1-9.5-2.2-12.2-1.3-1.6-2.6-2.6-3-2.2-1 1-2.4 8.5-2.5 13 0 2.1-.4 3.8-.9 3.8-2.3 0-3.1-3.2-2.9-11.3.3-9.2-.6-11.6-3.5-9.5m1 4c-.3.8-.6.5-.6-.6-.1-1.1.2-1.7.5-1.3.3.3.4 1.2.1 1.9m.3 7.2c0 2.5-.4 4.8-1 5.1-.6.4-1-1.3-1-4.4 0-2.8.5-5.1 1-5.1.6 0 1 2 1 4.4m11.4-2.8c.4.9.4 1.9.2 2.1-.8.8-2.6-.8-2.6-2.3 0-1.9 1.6-1.8 2.4.2m0 6.2c-.1.6-.2 2.8-.2 4.7-.2 2.4-.7 3.5-1.7 3.5-1.1 0-1.5-1.2-1.5-5.1 0-4.3.3-5 1.8-4.7.9.2 1.7.9 1.6 1.6m-7.9 6.7c2.2 1.1 4.2 2.3 4.3 2.7.2.5 1 .8 1.8.8s1.4.7 1.4 1.6c0 1.3-.4 1.3-3.2-.4-1.8-1-4.8-2.8-6.5-3.8-1.8-1-3.3-2.2-3.3-2.7s.3-.7.8-.5c.4.2 2.5 1.2 4.7 2.3m1.7 5.2c3.4 2 5.7 3.8 5.1 4-1 .4-13.3-6.3-13.3-7.2 0-1.2 2.3-.2 8.2 3.2m8.8 4.8c0 .3-.2.5-.5.5s-.5-.2-.5-.5.2-.5.5-.5.5.2.5.5M433.4 1256.3c-.2.7-.3 6.2-.2 12.3l.3 10.9 43.8.3 43.8.2-.3-12.2-.3-12.3-43.3-.3c-35.2-.2-43.3 0-43.8 1.1m84.4 11.3-.3 10.5H509c-4.7.1-23 0-40.7 0l-32.3-.1v-9.8c0-5.4.3-10.2.7-10.5.3-.4 18.8-.7 41-.7h40.4z"/><path d="M453.6 1260.6c-.9 2.3 0 2.9 1.9 1.4 1.3-1 1.5-.9 1.5.7 0 1-.5 2.4-1.1 3-.8.8-.8 1.3 0 1.7 1.4.9 1.5 5.6.1 5.6-.5 0-1-.5-1-1 0-.6-.4-1-1-1-1.7 0-1.1 2.9.9 3.9 1.3.8 2.2.7 2.9-.2 1.7-2.1 2.3-5.5 1.2-6.2-.7-.4-.9-1.8-.5-3.2.3-1.4.3-3.3 0-4.4-.8-2.3-4.1-2.5-4.9-.3M475 1260.9c-1.5 2.9-1.3 12.6.4 14 2.4 2 4.6.2 4.6-3.9 0-2.7-.6-4.1-2.2-5.2s-1.9-1.9-1.4-3.4c.6-1.2 1-1.5 1.3-.7.6 1.7 2.3 1.6 2.3-.1 0-.8-.7-1.7-1.6-2-2.2-.8-2.2-.8-3.4 1.3m3.5 9.1c0 1.3-.6 2.5-1.2 2.7-.9.3-1.3-.6-1.3-2.7s.4-3 1.3-2.8c.6.3 1.2 1.5 1.2 2.8M485.6 1260.6c-.9 2.4-.8 2.6 1.4 1.9 2.5-.8 2.7 1.1.3 3.7-1.5 1.7-1.5 1.8 0 1.8 1.1 0 1.7.8 1.7 2.5 0 2.7-.9 3.2-2.8 1.3-.9-.9-1.2-.8-1.2.4 0 2.6 2.7 4.3 4.5 2.8 1.1-.9 1.4-2.9 1.2-7.4-.2-3.4-.7-6.8-1.1-7.4-1-1.7-3.3-1.5-4 .4M496 1263.5c0 4.2.2 4.6 2 4 1.7-.5 2-.2 2 2.3 0 3.5-.9 4.5-2.7 3.1-1-.9-1.3-.8-1.3.4 0 2.3 1.6 3 4 1.7 3.1-1.6 2.8-7.3-.5-9-3.1-1.7-3.2-3.8-.2-4.2 2.9-.4 2.4-2.2-.8-2.6-2.4-.3-2.5-.1-2.5 4.3M444.2 1264.1c-2.7 5.1-2.8 6.9-.1 6.9 1.5 0 1.9.5 1.7 2.2-.2 1.1.2 2.3.9 2.5s1.3-.8 1.5-2.4c.5-4.2-.3-13.3-1.1-13.3-.4 0-1.7 1.8-2.9 4.1m1.4 4.6c-1 1-1.9-.5-1-1.8.6-1.1.8-1.1 1.2 0 .2.7.1 1.5-.2 1.8M463.5 1268c.3.5 1.9 1 3.6 1 1.6 0 2.9-.5 2.9-1 0-.6-1.6-1-3.6-1-2.1 0-3.3.4-2.9 1M164.5 1292.6c-4.4 2.6-10.2 6-12.8 7.5-6.4 3.8-7.7 3.7-7.7-.5 0-3.2-2-5.3-4-4.1-.7.5-15.4 26.7-16.5 29.6-.4 1.2 1 2.4 5.7 4.9 3.5 1.9 8.3 4.6 10.7 6.2 2.5 1.5 4.9 2.8 5.3 2.8s.8-2.6.8-5.8c0-5.8 0-5.8 4.8-8.6 2.6-1.5 9.9-5.8 16.2-9.5l11.5-6.8.3-8.6c.2-6.7-.1-8.8-1.3-10.1-2.5-2.4-4.3-2-13 3m12.3 6.6c-.3 8.3-.3 8.3-7.3 12.5-3.8 2.4-8.1 4.9-9.5 5.6-1.4.8-4.3 2.4-6.5 3.7s-5.2 2.9-6.7 3.7c-3.2 1.6-4.2 4.2-3.3 8.3.4 2 .3 3-.5 3-2.2 0-15-8.1-15-9.5 0-2.1 12.3-24 14.1-25.1.5-.3.9 1.1.9 3s.3 3.7.8 3.9c.4.2 4.5-1.8 9.2-4.6 4.7-2.7 11-6.3 14-8 3-1.6 5.9-3.4 6.5-3.8.5-.5 1.5-.9 2.2-.9 1.1 0 1.3 1.9 1.1 8.2"/><path d="M168.7 1296.6c-2.5 1.4-2.7 1.9-2.7 7.9 0 3.6.2 6.5.4 6.5 1.6 0 7.5-4.4 8.6-6.4 2.8-5.4-1.3-10.6-6.3-8m4.1 1.6q2.7 2.7-.9 7.2c-2.9 3.7-3.9 3.3-3.9-1.7 0-3.8 1.3-6.7 3-6.7.3 0 1.1.5 1.8 1.2M162.5 1301.2c-.2.7-.6 2.4-.8 3.8-.4 2.5-.4 2.5-1.2.2-1-3-2.9-2.3-3.3 1.1-.3 2.8-2.2 3.8-2.2 1.2 0-.8-.4-1.5-1-1.5-1.2 0-1.2-.2.1 6 1.1 5 3.1 6.4 3.7 2.4.1-1 .5-3 .8-4.4.6-2.5.6-2.5 2 .2 1.7 3.2 3.4 3.7 3.4.9 0-1 .3-3.9.6-6.5.5-3.2.3-4.6-.5-4.6-.6 0-1.4.6-1.6 1.2M146.8 1309.8c-2.6 1.5-2.8 2.2-2.8 7.9 0 3.5.4 6.3 1 6.3s1-1.1 1-2.5c0-1.5.9-3.1 2.5-4.1 1.4-.9 2.2-2.1 1.9-2.6-.4-.6-1-.6-1.7.1-1.7 1.7-2.7 1.3-2.7-.8 0-1.1.9-2.2 1.9-2.6 1.1-.3 2.5-1.2 3.1-2 1.8-2.1-.7-1.9-4.2.3"/></svg>