<svg xmlns="http://www.w3.org/2000/svg" viewBox="0 0 992 1402" fill="currentColor"><path d="M144.4 209.3c-6.3 3.6-15.4 10.1-15.4 11.1 0 .6 2.1 4.2 4.6 8.1 2.5 3.8 5.2 8.2 6 9.6 2.4 4.7 6.4 8.8 7.9 8.2.9-.3 1.5-1.8 1.5-3.4 0-3.4 1.5-3.7 5-.9 1.4 1.1 2.8 2 3.2 2 .3 0 5 2.5 10.3 5.6 7.3 4.2 10.3 5.4 12.1 5 2.4-.6 2.5-.8 2.2-9.7l-.3-9-10-5.4c-5.5-2.9-12.9-6.8-16.5-8.7-6.5-3.4-6.5-3.4-6.8-8.6-.3-5.5-.5-5.7-3.8-3.9m.8 6.8c.3 4.4-2.2 2.7 24.8 17.3l7.5 4.1.3 7.8c.2 4.2 0 7.7-.4 7.7-.6 0-5.8-2.7-18.6-9.9-3.2-1.7-7.6-3.8-9.8-4.6-4.1-1.5-4.1-1.5-4 1.3.3 4.6 0 4.8-2.2 1.2-1.2-1.9-4.6-7.2-7.5-11.8-2.9-4.5-5.3-8.5-5.3-8.8 0-.8 12.2-8.4 13.6-8.4.8 0 1.4 1.6 1.6 4.1"/><path d="M146 229.5c0 3 .5 5.5 1 5.5.6 0 1-.9 1-1.9 0-1.5.5-1.8 2.3-1.4 2.2.5 2.2.5 0-1.5-1.3-1.1-2.3-2.5-2.3-3.2s.9-.9 2.3-.5c2.1.6 2.1.6.3-.9-3.6-2.9-4.6-2-4.6 3.9M154.4 230.2c.3 1.3.8 4 1.1 6 .6 4.1 2 5 2.8 1.8.8-3 2.7-2.4 2.7.7 0 1.6.4 3.5 1 4.3 1.1 1.7 1.4.9 2.5-5.4.6-3.5.5-3.8-.9-2.7-1.3 1.1-1.7.9-2.7-1.5-1-2.3-1.3-2.5-1.6-1.2-.7 2.8-2.3 2.1-2.9-1.2-.4-1.7-1.1-3-1.5-3-.5 0-.7 1-.5 2.2M167.7 235.7c-1.2 1.1-.8 8.8.6 10.5 2.9 3.7 7.7 2.5 7.7-2 0-1.6-.6-3.5-1.2-4.4-1.9-2.3-6.4-4.9-7.1-4.1m4.6 3.7c1.8 1.4 2.3 6.1.8 7-2.2 1.4-4.1-.7-4.1-4.5 0-4.2.5-4.6 3.3-2.5M403.8 439.8c-2.8.3-2.8.3-2.8 12.3 0 11.6 0 11.9 2.3 12 4.5.3 84.2-.3 84.7-.6.3-.2.3-5.6 0-12.2l-.5-11.8H447c-22.3 0-41.7.1-43.2.3m81.7 11.7v10l-40.7.3-40.8.2v-20l33.8-.2c18.5-.2 36.9-.3 40.7-.3h7z"/><path d="M411.2 443.9c-.8.5-1.2 2.3-1 4.7.2 3.1.7 3.9 2.3 3.9 2.2 0 3 2.3 1.5 4.5-.9 1.3-1.1 1.3-1.9 0-1.2-1.8-2.6-.7-1.8 1.5 1.1 2.7 4.4 1.8 5.6-1.6 1.2-3.5 0-6.9-2.4-6.9-.8 0-1.5-.9-1.5-2 0-1.3.7-2 2-2 2.4 0 2.7-1.5.4-2.4-1.9-.7-1.6-.7-3.2.3M421.9 444.6c-1.9 2.3-1.8 12 .2 13.9.9 1 1.9 1.1 2.9.5 2.1-1.3 2.1-12.4-.1-14.5-1.4-1.5-1.7-1.5-3 .1m3.1 7c0 4-.4 5.5-1.2 5.2-1.4-.5-2.3-7-1.4-9.4 1.2-3.2 2.6-1.1 2.6 4.2M443.3 443.7c-.7.2-1.3 1.7-1.3 3.1.1 2.5.2 2.5 1.4.9 3.1-4.1 3.5-.5.6 5.3-2.8 5.5-2.6 7 1 7 2.6 0 3-.4 3-2.6 0-2.1-.3-2.4-1.3-1.5-2.3 1.9-2.5.2-.4-4 1.6-3.2 1.8-4.5.9-6.5-1.2-2.4-1.7-2.7-3.9-1.7M453 444.5c-.6.8-.9 1.9-.5 2.5.5.7 1.2.5 2.1-.7 1.2-1.7 1.3-1.6 1.4.9 0 1.4-.6 2.9-1.2 3.2-.9.3-.8.9.6 2 1 .9 1.6 2.2 1.3 3.1-.8 2-2.5 1.9-3-.3-.4-1.6-.4-1.6-1.2.1-.5 1.3-.2 2.4.9 3.5 1.6 1.6 1.9 1.6 3.6-.6 1.5-1.8 1.8-3.3 1.3-7.5-.8-7.1-2.7-9.4-5.3-6.2M463 446c-1.5 3.5-.8 10.6 1.2 12.6 2.2 2.2 4 0 4.5-5.2.8-8.8-3.1-13.8-5.7-7.4m3.8 5c-.4 6-2.2 7.1-2.6 1.6-.4-4.3.2-6.6 1.8-6.6.7 0 1 1.9.8 5M431 452c0 .5 1.3 1 2.9 1 1.7 0 3.3-.5 3.6-1 .4-.6-.8-1-2.9-1-2 0-3.6.4-3.6 1M174.5 463.4c-2.2 1.6-1.6 4.8 1.3 6.1 3.1 1.4 2.8 2.9-.5 2-2.7-.6-2.7-.6-1 1.2 2.6 2.6 5.1.6 5.5-4.3.3-4.7-2.3-7.2-5.3-5m3.3 2.9c.2 1.2-.3 1.7-1.7 1.7-1.2 0-2.1-.6-2.1-1.3 0-3.1 3.2-3.4 3.8-.4M191.2 463.2c-.7.7-1.2 2.9-1.2 5 0 4.9 3 6.8 6 3.8 1.1-1.1 2.9-2 4-2s2-.5 2-1c0-.6-1.1-1-2.5-1-1.8 0-2.5-.5-2.5-2 0-1-.9-2.4-1.9-3-2.4-1.3-2.4-1.3-3.9.2m4.3 2.8c.8 2.6-.3 6-2 6-.8 0-1.7-.9-2-2-.8-2.6.3-6 2-6 .8 0 1.7.9 2 2M204 463.9c-2.6 4.9.2 11.1 4.1 9.1 1.4-.8 1.9-2.1 1.9-4.8 0-5.7-3.8-8.4-6-4.3m4.5 2.1c.7 2.2-.2 6-1.4 6-1.8 0-3.3-3.1-2.7-5.5.8-3 3.2-3.3 4.1-.5M213.1 463.4c-.7.8-1.1 3.2-.9 5.3.3 3.3.7 3.8 2.9 4.1 1.8.2 2.9-.3 3.3-1.4 1-2.6-.3-5.4-2.5-5.4-1 0-1.9-.5-1.9-1.1 0-.7.9-.9 2.1-.6 1.3.3 1.9.1 1.6-.6-.6-1.8-3.2-2-4.6-.3m3.9 6c0 2.1-2.1 3.1-3 1.5-.5-.7-.6-1.7-.4-2.1.9-1.4 3.4-.9 3.4.6M221.2 463.2c-.7.7-1.2 2.9-1.2 5 0 3.2.4 3.9 2.4 4.4 3.5.8 4.6-.2 4.6-4.5 0-3.7-1.4-6.1-3.5-6.1-.6 0-1.6.5-2.3 1.2m4.6 3.6c.4 2.5-1.5 5.5-2.9 4.6-.5-.3-.9-2.1-.9-4 0-2.8.4-3.5 1.8-3.2.9.2 1.8 1.4 2 2.6M229.2 463.2c-1.9 1.9-1.4 2.9.8 1.6 2.4-1.5 3.7-.4 2 1.7-1 1.2-1 1.5.4 1.5.9 0 1.6.7 1.6 1.5 0 2.1-3 3.1-4 1.4-.5-.7-1.2-1-1.7-.6-.9 1 1.5 2.7 3.8 2.7 2.6 0 4.4-2.7 2.9-4.5-.6-.8-.9-1.8-.6-2.4 1.8-2.9-2.6-5.5-5.2-2.9M157.2 463.9c-.8.4-1.2 1.9-1 3.2.2 1.8 1.1 2.5 3.3 2.9 2 .4 2.6.8 1.7 1.3-.7.5-2.2.5-3.5.2-2.1-.7-2.1-.6-.5 1 3.4 3.6 7.4-1.4 5.6-6.7-1-2.8-3.1-3.5-5.6-1.9m4.6 2.8c.2.8-.5 1.3-1.7 1.3s-2.1-.6-2.1-1.6c0-1.8 3.1-1.5 3.8.3M164.9 464.6c-1.6 2-.2 4.6 3.2 5.5 2 .5 2.1.7.7 1.4-.9.4-2.2.4-2.7 0-.7-.4-.8 0-.5 1 .9 2.3 3.6 1.4 5.3-1.7 2.9-5.1-2.4-10.6-6-6.2m4.9 1.7c.2 1.2-.3 1.7-1.7 1.7-1.2 0-2.1-.6-2.1-1.3 0-3.1 3.2-3.4 3.8-.4M183.2 466.2c-2.3 3.6-2.1 4.8.9 4.8 1 0 1.9.6 1.9 1.2.1.9.4.8.9-.2 1-1.8.2-9-.9-9-.4 0-1.7 1.4-2.8 3.2m2.8 1.3c0 .8-.7 1.5-1.6 1.5-1.4 0-1.4-.3-.4-1.5.7-.8 1.4-1.5 1.6-1.5s.4.7.4 1.5M144.6 468.2c-.3.7-.6 29.2-.8 63.3s-.1 53.4.3 43c.3-10.5 1-38.5 1.4-62.3l.8-43.2h3.3c1.8 0 3.6-.5 3.9-1 .4-.6-1.2-1-4-1s-4.7.5-4.9 1.2M445 474.4v7.6l-40.2.1c-22.2.1-85.8.2-141.5.3s-101.4.4-101.5.6c-.2.3 0 41.4.3 91.5.8 116.5 1.9 299.8 2 358.7.2 45.5.2 45.6 2.3 46.2 2.7.8 182.8.7 261.6 0 61.5-.6 61.5-.6 66.5-3.4 2.8-1.5 12.2-6.8 21-11.7 8.8-5 25.2-14.2 36.5-20.5s22.6-12.7 25.3-14.1c2.6-1.5 6.8-3.9 9.5-5.3 2.6-1.5 7.6-4.4 11.2-6.4s8.5-4.9 11-6.2c2.5-1.4 8.6-4.9 13.5-7.8 5-2.9 10.4-6 12-7 1.7-.9 9.2-5.4 16.9-9.9 7.6-4.4 14-8.1 14.2-8.1.3 0 3.7-2 7.7-4.4 7.9-4.7 24.3-14.3 32.2-18.7 2.8-1.5 10-5.6 16-9.1l11-6.4-.3-128.9c-.2-129.8-1.1-227.4-1.9-228.8-.2-.4-64.3-.7-142.3-.7H446l.6-6.9c.3-4.3.1-7.2-.6-7.6-.6-.4-1 2-1 6.9m285.2 156.1c.3 80.3.8 159.8 1.1 176.7.5 34.3 1 31.5-6.8 35.8-13.5 7.4-39.8 22.5-50.5 28.9-6.9 4.1-15 8.8-18 10.4-3 1.7-8.6 4.9-12.5 7.2-3.8 2.3-11.5 6.8-17 10s-12.5 7.2-15.5 9c-6.7 4-13.4 7.7-22 12.3-3.6 1.9-8.5 4.7-11 6.2-3.9 2.4-9.3 5.4-31 17.2-4.1 2.3-20.8 11.7-48 27l-10.5 5.9-161.2.6-161.3.6-.1-25.9c0-14.2-.2-39.9-.4-56.9-.1-17.1-.6-99-.9-182-.3-83.1-.9-168.4-1.2-189.7l-.6-38.8 133.3-.2c73.4-.2 200.9-.3 283.4-.3h150z"/><path d="M275.2 513.2c-.9.9-1.2 7.6-1.2 24 0 22.8 0 22.8 2.8 22.9 1.5.1 17.6.1 35.7 0 18.2 0 36.7-.1 41.3-.1h8.2v-22.8c0-16.4-.3-23.1-1.2-24-1.7-1.7-83.9-1.7-85.6 0m83.6 23 .2 21.8h-82l-.1-4.8c-.1-7.9-.1-28.4 0-33.4l.1-4.7 14.3-.3c7.8-.2 26.1-.3 40.7-.3h26.5z"/><path d="M284.1 517.3c-.6.7-.9 2.8-.8 4.5.2 2.6.6 3.2 2.5 3.2 1.7 0 2.2.6 2.2 2.5 0 2.4-.9 2.9-3.7 2.6-.8-.1-1 .5-.7 1.4 1 2.4 4 1.8 5.3-1.1 1.4-3.2.7-6-2-7.4-2.5-1.4-2.4-3.6.2-4.3 1.2-.3 1.8-1 1.4-1.6-.9-1.5-3-1.4-4.4.2M295.1 517.4c-1.9 2.3-1.6 12.5.4 14.5 1.5 1.5 1.8 1.4 3.1-.3 3.4-4.7.1-18.5-3.5-14.2m2.9 7.2c0 4-.4 5.5-1.2 5.2-1.5-.5-2.2-5-1.4-8.4 1.1-4.3 2.6-2.5 2.6 3.2M316 517.9c-1.5 3-1.2 4.9.5 2.7 2.6-3.5 3-.6.8 5.5-1.9 5.1-2 6.1-.8 6.6 2.1.7 4.5-.4 4.5-2.1 0-1-.6-1.3-1.5-1-1.9.8-1.9-.4 0-4.9 2.3-5.7-.8-11.8-3.5-6.8M325.6 517.6c-1.1 2.7-.7 3.7.9 2.4 2.3-1.9 2.7-.8 1.6 5.6-.5 3.3-.6 6.3-.2 6.7.5.4 1.1-1.8 1.4-5 .4-3.2 1-7 1.3-8.6.6-2.4.3-2.7-1.9-2.7-1.4 0-2.8.7-3.1 1.6M337.2 517.2c-1.9 1.9-1.6 13.3.4 14.9 1.4 1.1 1.8 1 3-.6 1.8-2.4 1.8-11.4 0-13.8-1.6-2-1.8-2.1-3.4-.5m3 4.9c.6 3.8-.1 7.9-1.3 7.9-.5 0-.9-2.5-.9-5.5 0-5.9 1.5-7.5 2.2-2.4M304 525c0 .5 1.4 1 3 1 1.7 0 3-.5 3-1 0-.6-1.3-1-3-1-1.6 0-3 .4-3 1M284 540.9c-1.5 2.9-.2 7.1 2.1 7.1 1.4 0 1.9.7 1.9 2.6 0 2.3-.3 2.5-2.6 2-2.9-.8-3 1-.1 2.8 2 1.2 3.2 0 4.4-4.3.5-1.9 0-2.9-2-4.6-3.2-2.5-3.5-4.5-.6-4.5 1.2 0 1.9-.5 1.7-1.3-.7-2-3.6-1.9-4.8.2M295.1 540.9c-1.6 2.9-1.4 12.6.3 14 3.9 3.3 6.6-10.8 2.7-14.3-1.9-1.7-2-1.7-3 .3m2.9 6.6c0 5.7-1.3 7.4-2.4 3.1-.7-2.9.3-8.6 1.5-8.6.5 0 .9 2.5.9 5.5M316 540.9c-1.5 3-1.2 4.9.5 2.7 2.6-3.5 3-.6.8 5.5-1.9 5.1-2 6.1-.8 6.6 2.1.7 4.5-.4 4.5-2.1 0-1-.6-1.3-1.5-1-1.9.8-1.9-.4.1-5.1 2.4-5.7-.8-11.6-3.6-6.6M325.7 539.7c-.4.3-.7 1.5-.7 2.7 0 1.5.3 1.7 1.2.8 2.3-2.3 2.9-1.1 2.4 5.5s-.5 6.7.5 1.8c.5-2.8 1.3-6.2 1.8-7.7s.6-2.9.3-3.2c-.8-.8-4.7-.7-5.5.1M337 540.9c-1.5 2.9-1.2 11.3.5 13.5 1.5 2 1.5 2 3 0 2.6-3.5 1.5-15.4-1.5-15.4-.5 0-1.4.9-2 1.9m3.4 2.7c1.3 3.4.3 9.4-1.5 9.4-.5 0-.9-2.5-.9-5.5 0-5.3 1.1-7.2 2.4-3.9M346.7 539.7c-.4.3-.7 1.3-.7 2.1 0 1.2.3 1.2 1.5.2 3-2.5 3.4.1.9 6.5-1.3 3.6-2.4 6.8-2.4 7 0 .3 1.3.5 3 .5 1.9 0 3.3-.7 4-2 1.2-2.2.1-2.7-1.7-.9-.6.6-1.6.8-2.1.5-.7-.4-.1-2.9 1.4-6.8 1.3-3.4 2.4-6.5 2.4-7 0-1-5.4-1.1-6.3-.1M304 548c0 .5 1.4 1 3 1 1.7 0 3-.5 3-1 0-.6-1.3-1-3-1-1.6 0-3 .4-3 1M318 572.2v10.3H177.5l.3 184.5c.2 101.5.5 187.1.8 190.2l.6 5.8H383v-4.8c.2-42.6-.2-162-.6-175.2-.2-9.6-.1-20.4.3-24l.8-6.5 14-8.2c7.7-4.5 16-9.3 18.5-10.7 2.5-1.3 11.9-6.9 21-12.4l16.5-9.9-.2-63.3c-.1-40.9-.5-63.6-1.1-64.2-.7-.7-24-1-66.6-1.1l-65.6-.1v-9.7c0-5.5-.4-10.1-1-10.4-.6-.4-1 3.1-1 9.7m67.8 12.8H452v62.7l-.1 62.8-8.7 4.9c-4.8 2.7-16.5 9.6-25.9 15.3-9.5 5.7-17.5 10.3-17.7 10.3s-4.3 2.4-9.2 5.3c-8.7 5.2-8.9 5.4-9.5 9.8-.4 2.4-.5 16.5-.3 31.4.1 14.8.6 60 .9 100.2l.7 73.3H180v-42.8c0-23.5-.2-65.4-.5-93.2-1.3-134.2-1.5-239.8-.5-240.2.5-.1 32.4-.2 70.7 0 38.4.1 99.6.3 136.1.2"/><path d="M313.4 621.3c-.2.7-.3 6.2-.2 12.3l.3 10.9h87v-24l-43.3-.3c-35.2-.2-43.3 0-43.8 1.1m84.6 10.6v10l-21.2.3c-11.7.2-30.2.2-41 0l-19.8-.3v-19.4l41-.3 41-.3z"/><path d="M322.7 624.7c-.4.3-.7 2.4-.7 4.5 0 3.5.2 3.9 2 3.3 1.7-.5 2-.2 2 2.4 0 3.1-1.4 4.2-2.3 1.8-.2-.6-.8-.9-1.2-.5-1.3 1.2.3 3.8 2.4 3.8 3.5 0 4.4-7.2 1.1-9.2-1.1-.7-2-1.8-2-2.4 0-.7.9-1.4 2-1.7s2-1 2-1.6c0-1.2-4.2-1.5-5.3-.4M333.3 626c-2.7 4.2-.7 14.4 2.6 13.8 2.2-.4 3.7-7 2.5-11.5-1-4.3-3.3-5.3-5.1-2.3m3.7 5c0 4.6-.9 7.2-2.1 6.4-1-.6-1.2-9.7-.3-10.7 1.4-1.3 2.4.6 2.4 4.3M354.4 625.4c-.3.8-.4 2.3-.1 3.3.4 1.6.6 1.5 1.2-.5.4-1.2 1.1-2.2 1.6-2.2 1.5 0 1 3.9-1.1 8-2.7 5.2-2.5 6 1 6 2.6 0 3-.4 3-2.7 0-2.6-.1-2.6-1.5-.7-1.9 2.5-1.9.4.1-4.5 1.2-3 1.3-4.4.4-6-1.2-2.4-3.8-2.8-4.6-.7M365.2 625.2c-1 1.3-1.3 8.4-.6 12.5.5 2.8 5 3.2 5.8.5.7-2.3.2-11.5-.8-13-.9-1.6-3.1-1.5-4.4 0m3.3 3.3c0 1-.6 2-1.2 2.2-.8.3-1.3-.5-1.3-2.2s.5-2.5 1.3-2.3c.6.3 1.2 1.3 1.2 2.3m.9 5.4c.9 1.4-.4 4.1-2 4.1-.8 0-1.4-1-1.4-2.5 0-2.5 2.3-3.5 3.4-1.6M374.7 627.2c.9 1.7 1.8 5.3 2.1 8 .6 5.8 2.2 6.4 2.2.8 0-2.2.7-5.7 1.5-7.7 1.8-4.2 1.8-4.3.6-4.3-.5 0-1.2 1.3-1.6 3-.4 1.6-1 3-1.5 3s-1.1-1.4-1.5-3c-.4-1.7-1.3-3-2-3-1.1 0-1 .6.2 3.2M343 631.9c-1.2.9-1.2 1.1.2 1.6 2.3.9 6.3.2 6.1-1-.3-1.4-4.5-1.7-6.3-.6M355.8 654.6l-.3 7.7-9.5 6.9q-19.35 14.1-23.7 11.7c-1.2-.6-2.9-.9-3.7-.6-1.7.7-2.2 3.7-.6 3.7 1.8 0 1.1 1.5-1.3 2.6-1.2.6-4.3 2.3-6.9 3.8-4.8 2.7-4.8 2.7-8.9.6-2.2-1.2-4.7-1.9-5.5-1.6-2.6 1-1.4 3.5 2.6 5.6 3.6 1.9 4 2.4 4 6 0 4.3 2.9 7.1 5.3 5.2 1.2-1 3.8-2.4 17.2-9.7 3.9-2.1 7.3-3.9 7.7-4.2.4-.2.1-1.5-.8-2.8-2.5-3.8.1-8.4 7.8-13.6 6.1-4.2 13.5-9.5 17.1-12.5 1.3-1.1 1.7-2.9 1.7-8.3 0-9.7-1.8-10.1-2.2-.5m-30.6 30.7c-2.9 1.8-5 3.6-4.7 3.9.4.3.1.9-.6 1.4-.8.5-1 .3-.4-.6 1.1-1.8-3.5-.2-6.1 2.1-1.1 1.1-2.7 1.9-3.5 1.9-2.6.1-5 2.7-4.7 5.1.2 1.3-.1 2.6-.7 2.9-.5.3-1.1-.9-1.3-2.5-.3-3.2 1-4.3 11.2-10 2.2-1.3 6.1-3.5 8.6-4.9 6.6-3.8 8.3-3.2 2.2.7m3.8.2c0 .3-.2.5-.5.5s-.5-.2-.5-.5.2-.5.5-.5.5.2.5.5m-2.7 3.5c.3 1.3 0 2-.9 2-.8 0-1.4-.9-1.4-2s.4-2 .9-2 1.1.9 1.4 2m1.7-.5c0 .3-.2.5-.5.5s-.5-.2-.5-.5.2-.5.5-.5.5.2.5.5m-5 2c0 .3-.2.5-.5.5s-.5-.2-.5-.5.2-.5.5-.5.5.2.5.5m4.5 2.5c-1.6 1.1-6.6 3.9-11 6.1-4.4 2.3-8.6 4.6-9.2 5.1-.9.7-1.3.7-1.3 0 0-.5 1.5-1.7 3.3-2.6 1.9-.9 2.5-1.6 1.5-1.6s-1.8-.2-1.8-.4-.3-1.1-.6-2c-.4-1.1-.1-1.6 1-1.6.9 0 1.6.3 1.6.7 0 .5.4 1.4.9 2.1.6 1.1 1.6.9 4.7-.8 6.4-3.6 7.6-5.7 1.4-2.5-2.9 1.5-3 1.5-3-1 0-1.4.5-2.5 1-2.5.6 0 1 .4 1 .9 0 1.2 7.2.7 9.6-.7 3.3-2 4-1.3.9.8m-24.5 1c0 .5-.7 1-1.5 1s-1.5-.5-1.5-1c0-.6.7-1 1.5-1s1.5.4 1.5 1m10.2 2.2c-.7.7-1.2.8-1.2.2 0-1.4 1.2-2.6 1.9-1.9.2.3-.1 1.1-.7 1.7m-5.2 3.3c0 .3-.2.5-.5.5s-.5-.2-.5-.5.2-.5.5-.5.5.2.5.5M276.2 681.6c-1.2.8-2.2 2.3-2.2 3.2.1 1.5.2 1.5 1.1-.1.6-1 2-2.2 3.2-2.6 1.1-.4 1.6-1.1 1-1.4-.5-.3-1.9.1-3.1.9M287 685.9c2.7 2.2 4 2.6 4 1.2 0-.5-.8-1.1-1.7-1.5-1-.3-2.5-.9-3.3-1.2s-.4.4 1 1.5M274.3 693.5c0 2.7.2 3.8.4 2.2.2-1.5.2-3.7 0-5-.2-1.2-.4 0-.4 2.8M274.3 704.5c0 2.7.2 3.8.4 2.2.2-1.5.2-3.7 0-5-.2-1.2-.4 0-.4 2.8M181 704.5c0 .8 6.1 3.7 6.7 3.1.3-.2-.9-1.2-2.6-2-3.1-1.7-4.1-1.9-4.1-1.1M233.7 714.4c-8.1 4.7-15.5 9-16.3 9.6-1.8 1.6-1.9 12.2-.2 15 1 1.5 1 2.2 0 3.2-1.6 1.6-1.6 8.5.1 9.1 1 .3 1 .9 0 2.6-2.2 3.6-1.5 7.5 2.1 11.6 3.3 3.9 3.3 3.9 7.4 2.1 3.9-1.8 4.3-1.8 6.8-.1 3.8 2.5 7.4.7 7.4-3.7 0-3.6-1.6-2.8-2.3 1.2-.4 2.2-.4 2.1-.6-.6-.1-2.1.5-3.4 1.5-3.8 2.2-.9 2.4-.8 2.4.9 0 3.1 2.9 1.3 5.9-3.5 1.7-2.8 2.7-5 2.2-5s-6.4 3.1-13.1 7c-6.7 3.8-12.4 7-12.6 7s-.4-.9-.4-2c0-1.3 2-3 6.8-5.6 9.3-5.1 14.5-8.5 13.9-9.1-.3-.3-3.2 1-6.4 2.9-8.4 4.9-9.1 5.1-8.5 2.2.2-1.3.8-2.4 1.3-2.4.4 0 3.1-1.4 6-3 3.1-1.9 5.8-2.8 7-2.5 1.5.5 1.9.1 1.9-1.5 0-1.7-.4-2.1-1.7-1.6-.9.4-1.9.2-2.3-.4-.4-.7-3.6.6-8.5 3.4-4.3 2.5-8.2 4.3-8.7 4-1.9-1.2-.6-4.6 2.3-6.2 7.3-4.1 9.3-5.5 8.2-5.9-.6-.2-3 .8-5.3 2.3-2.2 1.5-4.4 2.3-4.8 1.9s-.2-.9.3-1.1c2.5-1 7.7-4.6 7.2-5.1-.3-.3-1.6.2-2.9 1.1-3.3 2.3-3.8 2-3.8-2.3 0-3.9 0-4 4.5-4.7 3.4-.5 5.1-1.4 7-3.8s2.7-2.8 3.7-1.8c.9.9.9 1.2-.5 1.2-.9 0-1.7.4-1.7 1 0 .5 1.1 1 2.5 1s2.5-.5 2.5-1c0-1.6 2.7-1.2 3.4.6.4 1.2.1 1.4-1.4.9-1.1-.4-2-.2-2 .3s-1.2 1.5-2.7 2.2c-1.7.7-2.3 1.4-1.5 1.7.7.3 2.4-.3 3.8-1.2s2.8-1.4 3.1-1.2c.3.3-1 1.3-2.9 2.3-1.8.9-2.8 1.9-2.1 2.1s2.1-.1 3.2-.6c1.7-.9 2.2-.8 3.1.9.6 1.1.9 2.4.6 2.9s.1 1.4.9 2.1c1.3 1 1.5.9 1.5-1 0-1.3-.7-3.1-1.5-4-2-2.2-.8-5.7 2.5-7.3 1.4-.7 2.6-2.2 2.8-3.4q.3-2.1 4.5-3.9c2.3-1 4.5-2 5-2.2.4-.2.7 1 .7 2.7 0 2.4-.8 3.6-4.5 6.1-3.2 2.2-4.7 4.1-5.5 6.8-1.3 4.7-1.3 9.2 0 9.2.6 0 1-1.5 1-3.4 0-3.4 0-3.4 3-2 2.2 1.2 3.4 1.2 5 .4 2.9-1.5 2.5-3.2-.5-1.8-1.9.9-2.9.8-5-.6-1.4-.9-2.5-2.1-2.5-2.6s2.3-2.5 5-4.2c5.5-3.6 6.7-6.2 5.4-11.1-.7-2.5-2.1-3.8-6.2-5.8-3-1.5-6.2-3.6-7.3-4.8-1.1-1.1-2.5-2.1-3.2-2.1s-7.9 3.8-16 8.4m18.3-5.1c0 .6-2.1 2.5-4.6 4-4 2.4-4.5 3.1-4 5.2.7 2.7-1 3.3-4.3 1.6-1.2-.7-3.5 0-8.5 2.5-6.3 3.2-9.6 3.8-9.6 1.6 0-.8 8.4-5.8 22.5-13.4 5.4-3 8.5-3.5 8.5-1.5m4.9 3.6c1.2.8 1.3 1.2.1 2.6-1.1 1.3-1 1.8.6 3 1.9 1.3 1.9 1.4 0 2.1s-7.7-.9-11-3.2c-1.7-1.1-1.5-1.4 2-3.3 4.3-2.2 6.2-2.5 8.3-1.2m2.8 3.8c-.4.3-1 .3-1.4 0-.3-.4 0-.7.7-.7s1 .3.7.7m4.3-.2c0 .3-.2.5-.5.5s-.5-.2-.5-.5.2-.5.5-.5.5.2.5.5m-14.2 4.1c3.3 1.6 4.8 3.2 3.9 4.1-.7.7-8.7-3.8-8.7-4.9 0-1.2 1.3-1 4.8.8m-8.5 1.6c1.5.7 2.7 1.6 2.7 2 0 1.1-1.4 1-2.6-.2-.5-.5-2.2-1.1-3.6-1.2-1.5-.1-2.4-.6-2.2-1 .7-1.1 2.6-1 5.7.4m7.3 2.5c-.8.8-3.6-.5-3.6-1.7 0-.7.6-.7 2.1 0 1.1.7 1.8 1.4 1.5 1.7m-14.6-.3c0 .8.2 2 .5 2.8.8 2-8.1 4-9.7 2.1-.6-.7-.9-1.5-.7-1.6 1.6-1 8.5-4.5 9.2-4.6.4-.1.7.5.7 1.3m3 0c0 .3-.4.8-1 1.1-.5.3-1 .1-1-.4 0-.6.5-1.1 1-1.1.6 0 1 .2 1 .4m-14.8 3.9c2.5 3.3 2.6 3.7 1.8 10.3-.5 3.8-1 11.8-1 17.9v11l-3-3.4c-3.3-3.7-3.8-6.6-1.5-7.5.8-.3 1.5-1.5 1.5-2.6 0-1.2-.7-2.8-1.5-3.6-2-2-2-4.8 0-4 2.6.9 2.8-1.9.6-6.7-2.7-6-2.8-14.7-.2-14.7.3 0 1.8 1.5 3.3 3.3m29.3-1.3c-.3.5-1.3 1-2.1 1s-1.2-.5-.9-1c.3-.6 1.3-1 2.1-1s1.2.4.9 1M241 745.5c0 .3-.2.5-.5.5s-.5-.2-.5-.5.2-.5.5-.5.5.2.5.5m-3 2c0 .6-7.6 4.5-8.7 4.5-.9 0 6.8-4.8 8-4.9.4-.1.7.1.7.4m-10.5 6.5c-.3.5-1 1-1.6 1-.5 0-.9-.5-.9-1 0-.6.7-1 1.6-1 .8 0 1.2.4.9 1m-1.1 3.6c1.3.5 1.4.9.5 2-1.3 1.6-2.9.9-2.9-1.2 0-1.6.2-1.6 2.4-.8m19.6.3c0 .5-.7 1.4-1.5 2.1-1.2 1-1.5 1-1.5-.2 0-.8.3-1.8.7-2.1.9-1 2.3-.9 2.3.2m-9.6 6.7c.8 2.2.8 2.4-.8 2.4-1.5 0-2.8-2.4-1.9-3.4 1.1-1 2.1-.7 2.7 1M192 711c2.7 2.1 4 2.5 4 1.2 0-.9-4.4-3.2-5.8-3.2-.4 0 .4.9 1.8 2M274.1 718.4c0 3.5.3 5.6.8 5 .4-.5.5-3.2.1-5.9-.7-5-.7-5-.9.9M200 718c0 1.6.5 3 1.1 3s.8-.9.4-2c-.7-2.2.5-2.6 2.3-.8.9.9 1.2.9 1.2 0 0-1-3-3.2-4.4-3.2-.3 0-.6 1.3-.6 3M209 719.9c0 1.3 2.8 3.3 4.1 2.9.6-.2 0-1.2-1.5-2.1-1.4-1-2.6-1.3-2.6-.8M268 719.7c0 .5.9 1.4 2 2.1s2 .8 2 .2c0-.5-.9-1.4-2-2s-2-.7-2-.3M204.9 724c1.3 1.1 2.8 2 3.5 2 .6-.1 0-1-1.3-2-1.3-1.1-2.8-2-3.5-2-.6.1 0 1 1.3 2M278 725.9c0 .5.6 1.1 1.3 1.4.9.3.9.7-.2 2-1.7 2.1-.2 2.2 3.4.3 2.7-1.4 2.7-1.4-.3-3-3.6-1.8-4.2-1.9-4.2-.7M211.5 728c.3.5 1 1 1.6 1 .5 0 .9-.5.9-1 0-.6-.7-1-1.6-1-.8 0-1.2.4-.9 1M274 730.5c0 1.5-.6 2.5-1.4 2.5-.7 0-1.9.7-2.7 1.6-1.1 1.3-.9 1.4 1.4.9 1.7-.5 2.7-.3 2.7.4 0 .6.5 1.1 1 1.1.6 0 1-2 1-4.5s-.4-4.5-1-4.5c-.5 0-1 1.1-1 2.5M288.5 732c.3.5 1.3 1 2.1 1s1.4.4 1.4 1c0 .5.7 1 1.7 1 1.4 0 1.4-.2-.2-2-1.8-2-6.2-2.9-5-1"/><path d="M251 733.5c.7.9 1.5 1.3 1.7 1.1.7-.7-.7-2.6-1.9-2.6-.6 0-.6.6.2 1.5M303.5 733c-3.3 1.3-4.9 3.8-3.6 5.3.8 1 .7 1.7-.1 2.5-.9.9-.8 1.2.3 1.2.9 0 2.5 1.1 3.7 2.5 2.7 3.1 6.6 3.2 8.6.3 1.4-2 1.8-2.1 4.3-.7 6.3 3.2 11.2 7.1 11.6 9.2.4 2 .4 2 .5-.3.2-3.5-.5-4.3-7-7.9-3.1-1.8-5.5-3.8-5.3-4.4.7-1.7-.4-3-5-6-4.2-2.9-4.9-3-8-1.7m6.5 2.5c3.6 1.9 3.8 3.2.6 4.6-1.8.9-3 .7-5.5-.5-3.4-1.8-3.7-2.6-1.9-4.4 1.6-1.6 3.3-1.5 6.8.3m3 6c-.7.8-1.8 1.5-2.4 1.5s-.2-.7.8-1.5c2.5-1.9 3.2-1.9 1.6 0m-6.5.5c.3.5.2 1-.4 1-.5 0-1.3-.5-1.6-1-.3-.6-.2-1 .4-1 .5 0 1.3.4 1.6 1"/><path d="M306.4 736.4c-.8 2.2.3 3.3 1.8 1.8.9-.9.9-1.5 0-2.4s-1.3-.7-1.8.6M232 733.9c0 1.3 4.1 4.1 6 4.1 1.1-.1 1-.4-.5-1.6-3.4-2.6-5.5-3.6-5.5-2.5M242 739.8c0 .5 1.8 1.8 4 3.1 4.9 2.7 5.3 1.5.5-1.7-3.8-2.4-4.5-2.6-4.5-1.4M274 743.5c0 1.9.5 3.5 1 3.5.6 0 1-1.6 1-3.5s-.4-3.5-1-3.5c-.5 0-1 1.6-1 3.5M252 746c0 .5.5 1 1 1 .6 0 1 .4 1 1 0 1.5-2.8 1.2-3.2-.4-.2-.8-1-1.1-2.2-.7-1.7.6-1.6.9.9 2.5 2.3 1.5 3.1 1.6 5 .6 1.3-.7 2.8-.9 3.4-.6.6.4 1.1.3 1.1-.3 0-.5-1.4-1.7-3.2-2.5-3.7-1.9-3.8-1.9-3.8-.6M261 751.1c0 1 4 3.2 4.7 2.5.3-.2.2-.9-.1-1.4-.8-1.3-4.6-2.2-4.6-1.1M274.1 751.3c-.1 1-1.3 2.2-2.7 2.7-1.4.6-2.2 1.4-1.9 2 .4.7 1.3.6 2.6-.1 2.3-1.2 3.3-3.2 2.6-5.1-.3-.8-.6-.6-.6.5M256 751.8c0 1 2.2 3.2 3.2 3.2 1.5 0 .8-1.5-1.2-2.8-1.1-.7-2-.9-2-.4M262.2 756.7c.9 1 1.9 2.8 2.3 4.1.3 1.2 1 2 1.5 1.7 1.3-.8-2.1-7.5-3.8-7.5-1.3 0-1.3.2 0 1.7M284 769v12h88v-24h-88zm85 0v10h-82v-9.3c0-5.2.3-9.7.7-10 .3-.4 18.8-.7 41-.7H369z"/><path d="M293.8 763.2c-.6 4.3.2 6.6 2.3 6.1 1.5-.4 1.9 0 1.9 2 0 3-1.8 4.6-3.1 2.6-1.1-1.8-2.1-.6-1.3 1.5 1 2.6 4.3 1.9 5.5-1.1 1.3-3.6.8-5.6-1.9-6.8s-2.9-3.5-.2-4.2c2.8-.7 2.5-2.3-.4-2.3-1.8 0-2.6.6-2.8 2.2M305.2 762.2c-1.6 1.6-1.5 11 .2 13.3 1.2 1.6 1.6 1.7 3 .6 3-2.5 1.8-15.1-1.4-15.1-.3 0-1.1.5-1.8 1.2m2.8 6.8c0 3.3-.4 6-1 6s-1-2.7-1-6 .4-6 1-6 1 2.7 1 6M325.6 762.6c-.4.9-.3 2 0 2.3.4.3.9 0 1.1-.7.3-.6.9-1.2 1.4-1.2 1.3 0 1.1 3.8-.3 4.6-.8.5-.6 1.1.6 2 1.2.8 1.6 1.9 1.1 3.3-.7 2.4-2.5 2.8-2.5.6 0-.8-.4-1.5-1-1.5-1.4 0-1.3 2.3.2 3.8 1.9 1.9 3.4 1.4 4.6-1.4.9-1.8.9-3.1.1-4.5-.6-1.1-.8-2.8-.5-3.6 1-2.4-.3-5.3-2.4-5.3-1 0-2.1.7-2.4 1.6M336.7 761.7c-.4.3-.7 1.3-.7 2.2 0 1.2.3 1.2 1.2.3.7-.7 1.6-1.2 2-1.2 1.3 0 .9 3.8-.4 4.3-1 .4-1 .7 0 1.8 1.2 1.3 1.7 5.9.6 5.9-.4 0-1.3-.8-2-1.8-1.2-1.5-1.3-1.5-1.4-.1 0 2.7 2.7 4.4 4.5 2.9 1.2-1 1.4-2.7 1.2-7-.3-3.2-.7-6.3-1.1-6.9-.8-1.2-2.9-1.5-3.9-.4M346.7 761.7c-.4.3-.7 2.1-.7 3.9 0 2.6.4 3.3 2.2 3.6 2.5.3 3.3 2.5 1.8 4.8-.9 1.3-1.1 1.3-1.9 0-.6-.8-1.3-1.1-1.7-.7-1.2 1.2 2.1 3.8 3.8 3.2 3.5-1.4 2.9-9.5-.7-9.5-.8 0-1.5-.9-1.5-2 0-1.3.7-2 2-2 1.1 0 2-.5 2-1 0-1.1-4.3-1.4-5.3-.3M314.6 768.9c-.3.5.8 1.1 2.5 1.3 2.9.5 4.5-.3 3.2-1.6-.9-.9-5.1-.7-5.7.3M246 766.9c0 .6 1.4 1.7 3 2.6 1.7.9 3 1.1 3 .6 0-.6-1.3-1.7-3-2.6-1.6-.9-3-1.1-3-.6M265 769.5c0 1.4.5 2.5 1 2.5.6 0 1-1.1 1-2.5s-.4-2.5-1-2.5c-.5 0-1 1.1-1 2.5M255 771.9c0 .6 1.4 1.7 3 2.6 1.7.9 3 1.1 3 .6 0-.6-1.3-1.7-3-2.6-1.6-.9-3-1.1-3-.6M264 777.4c0 .2 2 1.6 4.5 2.9 5.3 3 6.2 1.9.9-1.2-3.3-2-5.4-2.6-5.4-1.7M236.3 780.2c-2.5 1.2-5.7 7.3-5 9.3.3.7-.8 2.5-2.4 4.1-2.9 2.8-2.9 2.8-2.9 27.8 0 13.7.3 24.7.6 24.4s.5-11.3.4-24.5c0-23.9 0-23.9 2.4-26.2 1.7-1.6 3.1-2.1 4.5-1.6 2.9.9 10-1.5 11.2-3.7.6-1.1.8-3.6.5-5.6s-.5-3.8-.6-4c0-.1-1.1 0-2.5.4-1.5.4-2.5.2-2.5-.5 0-1.3-.8-1.3-3.7.1m1.3 3.3c-.9.9-1.6 3.2-1.6 5.1s-.4 3.4-1 3.4c-.5 0-1-2-1-4.3 0-3.6.4-4.6 2.3-5.4 2.8-1.3 3.4-.8 1.3 1.2m6.4 1.9c0 2.5-.7 3.9-2.2 5-3.3 2.3-3.8 2-3.8-2.2 0-3 .5-4.1 2.3-5 3.4-1.6 3.7-1.5 3.7 2.2"/><path d="M239.7 786.5c-.8 1.9 1.3 3.1 2.3 1.4.9-1.4.4-2.9-1-2.9-.4 0-1 .7-1.3 1.5M265.1 785.4c-.1 2.9.2 3.7 1 2.9s.8-1.9.1-4c-1-2.8-1-2.8-1.1 1.1M276 783.8c0 1 7 4.5 7.7 3.9.4-.4-6.3-4.7-7.3-4.7-.2 0-.4.4-.4.8M287 790c0 .5 1.8 1.9 4 3 6.9 3.5 6.7 2-.2-1.9-2.1-1.1-3.8-1.6-3.8-1.1M265 796c0 1.6.5 3 1 3 .6 0 1-1.4 1-3 0-1.7-.4-3-1-3-.5 0-1 1.3-1 3M299 796.7c0 .5 1.8 1.8 4 3.1 2.2 1.2 4 1.8 4 1.3 0-.6-1.8-2-4-3.1s-4-1.7-4-1.3M266.1 804.5c0 1.1.8 3.1 1.9 4.5 2.5 3.2 2.5 1.5 0-3-1.4-2.6-1.9-3-1.9-1.5M311 803.4c0 .8 7.1 4.8 7.6 4.3.3-.2-1.1-1.4-3.1-2.6-3.6-2.1-4.5-2.4-4.5-1.7M324 810.8c0 1.2 6.2 5.2 8.1 5.2 1.6 0 .5-1-4.3-3.9-2.1-1.3-3.8-1.8-3.8-1.3M273.5 813.5c2.5 1.8 6.5 5.8 6.5 6.5 0 .3-3.2 2.2-7.1 4.3-7.1 3.7-7.1 3.7-10.3 1.8-3.5-2.1-5.6-1.8-5.6.9 0 1.1 1.6 2.8 4 4.1 3.4 1.9 4 2.8 4 5.5 0 2.2.7 3.6 2.4 4.7 2.1 1.4 2.6 1.4 5.4-.4 3.5-2.1 2.7-2.7 7.7 5.5.8 1.4 2.4 4.1 3.5 6 3.8 6.8 5.8 10.1 14.4 24.6l8.6 14.4V924h-43v11.9c0 11.8 0 11.8 3.8 12.5 2 .3 21.8.6 44 .6H352v-24l-6.7-.1c-3.8-.1-13.5-.2-21.8-.3l-15-.1V908c0-18.2.8-15.3-9.9-33.5-4.8-8.3-17-29.1-18.7-32.3-2.5-4.3-2.4-4.7.9-6.1 1.5-.7 5.1-2.6 8-4.4 5.2-3.1 5.2-3.1 5.2-10.9 0-8.5-.5-9-5.1-5.7-2.9 2-2.9 2-5.6.1-1.6-1-4.8-2.2-7.3-2.6-4.1-.5-4.3-.5-2.5.9m6.5 2c0 .3-.2.5-.5.5s-.5-.2-.5-.5.2-.5.5-.5.5.2.5.5m1.7 2.2c-.4.3-.7 0-.7-.7s.3-1 .7-.7c.3.4.3 1 0 1.4m9 2.4c-2.3 1.3-2.2 4.6.3 5.4 1.1.4 1.8 1 1.5 1.5-.9 1.5-20.8 13-22.5 13-1.6 0 .4-1.4 12-8 4.1-2.4 7-4.5 6.4-4.7-1-.3-7.7 3.2-16.9 9-4.5 2.9-5.5 2.7-5.5-1.2 0-2 .7-3.1 2.5-3.9 2-.9 2.5-.9 2.5.3 0 2.3 1.9 2.8 4.6 1 2-1.3 2.3-1.9 1.3-3.1-.9-1.1-.9-1.7.1-2.9 1.8-2.1.7-1.9-4.6 1.1-2.5 1.4-4.4 2.2-4.1 1.7.7-1.2 16.3-10.3 17.4-10.3 1.4.1-3.8 4-5.3 4-.7 0-1.6.5-2 1.1-.4.7 0 .9 1.4.5 1.4-.5 2.1-.1 2.5 1.4.5 1.9.8 2 2.7 1 1.6-.9 2-1.8 1.6-3.5-.5-1.9-.1-2.7 2.1-3.9 3-1.5 4.9-1.1 2 .5m1.3 2.9c0 .5-.4 1-1 1-.5 0-1-.5-1-1 0-.6.5-1 1-1 .6 0 1 .4 1 1m-6.5 2c-.3.5-1.1 1-1.6 1-.6 0-.7-.5-.4-1 .3-.6 1.1-1 1.6-1 .6 0 .7.4.4 1m-22.8 4.7c-.4.3-.7 0-.7-.7s.3-1 .7-.7c.3.4.3 1 0 1.4m2.3.8c0 .3-.2.5-.5.5s-.5-.2-.5-.5.2-.5.5-.5.5.2.5.5m11-.1c0 .2-.7.7-1.6 1-.8.3-1.2.2-.9-.4.6-1 2.5-1.4 2.5-.6m72.8 106.3-.3 9.8h-82l-.3-9.8-.3-9.7h83.2z"/><path d="M278.5 827.1c-1 1.5.3 2.5 1.6 1.2.7-.7.7-1.3.1-1.7-.6-.3-1.4-.1-1.7.5M268 834.6c0 .8.5 1.2 1 .9.6-.3 1-1 1-1.6 0-.5-.4-.9-1-.9-.5 0-1 .7-1 1.6M273.7 928.6c-.4.4-.7 2.5-.7 4.6 0 3.5.2 3.9 2 3.3 1.6-.5 2-.2 2 1.9 0 3.1-1.6 4.2-2.8 2-.6-1-1.2-1.2-1.6-.6-.3.5.2 1.9 1.2 3.1 2.2 2.7 4.1 1.5 4.9-3.1.4-3.1.2-3.8-2.1-5.3-3.2-2.1-3.3-3.3-.3-3.7 1.2-.2 2.2-.8 2.2-1.3 0-1.2-3.8-1.9-4.8-.9M285.1 928.9c-3.1 2-2.1 15.1 1.2 15.1 1.8 0 3.7-4.3 3.7-8.4s-2.9-8-4.9-6.7m2.9 7.1c0 4.9-1.3 7.3-2.4 4.4-1.4-3.6-.3-10.9 1.5-9.8.5.3.9 2.7.9 5.4M306.2 929.2c-.7.7-1.2 2.1-1.2 3.2.1 2 .1 2 1.3-.2 3-5.2 3 1.2.1 6.7-2 3.7-1.7 4.8 1.1 5.3 2.9.6 3.5.2 3.5-2.5 0-1.6-.3-1.7-1.5-.7-1.3 1-1.5.9-1.5-.8 0-1.2.4-2.3.9-2.6 1.4-.9 2-5.9 1-7.8-1.1-2.1-2.1-2.2-3.7-.6M316.7 929.1c-1.2.7-1.7 2.1-1.6 4.7.1 2-.1 4.4-.4 5.2-.4.8.2 2.6 1.2 4 1.9 2.4 2 2.4 3.9.7 1.6-1.4 1.9-3 1.8-7.2-.2-6.2-2-9-4.9-7.4m3.1 3.7c.2 1.5-.2 2.2-1.2 2.2-1.1 0-1.6-.9-1.6-2.6 0-3.1 2.3-2.8 2.8.4m0 7c.2 1.4-.2 2.2-1.2 2.2-1.9 0-2.9-1.7-2.2-3.6.8-2.2 3-1.2 3.4 1.4M325.7 928.6c-.3.4.1 2.3.9 4.4 1.4 3.5 1.4 4-.5 7.3-1.8 3.2-1.8 4.7-.1 4.7.4 0 1-1.4 1.4-3.1.6-3.2 2.6-3.1 2.6.1 0 2 1.3 3.3 2.3 2.3.4-.3 0-1.8-.8-3.4-1.7-3.2-2-7.5-.5-8.4.6-.3 1-1.5 1-2.6s-.4-1.7-1-1.4c-.5.3-1 1.5-1 2.6 0 1-.4 1.9-1 1.9-.5 0-1-.9-1-1.9 0-2.1-1.3-3.5-2.3-2.5M294.5 936c-.3.5-.5 1-.3 1.1 3.7.8 5.8.6 5.8-.7 0-1.6-4.5-2-5.5-.4M338 819.4c0 .5 6.5 4.6 7.4 4.6 1.6 0 .3-1.7-2.5-3.3-2.9-1.6-4.9-2.2-4.9-1.3M350.2 826.2c.6 1.6 6.7 5 8.1 4.5.6-.2-1.1-1.5-3.7-3-2.6-1.4-4.6-2.1-4.4-1.5M362 833.4c0 1 7.1 4.7 8.2 4.4.6-.2-.5-1.4-2.6-2.6-3.5-2.1-5.6-2.7-5.6-1.8M375 841c1.4 1.1 3.2 2 4 2 1 0 .7-.7-1-2-1.4-1.1-3.2-2-4-2-1 0-.7.7 1 2M184.5 848.1c-.9 1.4-1 22.7-.2 23.6 1 1 81.7 1.5 85.2.5 3-.8 3-.8 3-12.8v-11.9l-43.7-.3c-30.3-.1-43.9.1-44.3.9m85.5 11.6V870h-84v-20.5h84z"/><path d="M193.7 851.7c-.4.3-.7 2.4-.7 4.5 0 3.1.3 3.8 1.7 3.6 1.9-.3 2.9 2.3 1.8 5-.6 1.6-.7 1.6-2-.1-.7-1-1.6-1.4-1.9-.8-.9 1.3 2.2 4.1 3.8 3.5 3.2-1.2 2.8-8.9-.5-9.9-2.5-.8-2.4-3.5.1-3.5 1.1 0 2-.7 2-1.5 0-1.5-3.1-2.1-4.3-.8M205.2 852.3c-2.6 3.1-2.2 13.4.6 14.4 3.5 1.4 5.6-7.5 3-13.2-1.3-2.8-2.1-3.1-3.6-1.2m2.8 7.3c0 5.6-1.5 7.3-2.6 2.9-.8-3.2.4-9.7 1.7-9 .5.4.9 3.1.9 6.1M227 852.5c-.7.9-.9 1.9-.5 2.3s1 .1 1.2-.6c.3-.6.9-1.2 1.4-1.2 1.3 0 1.1 3.4-.3 4.9-1 1.1-1 1.4 0 1.8 1.4.6 1.7 5.3.2 5.3-.5 0-1-.5-1-1 0-.6-.4-1-1-1-1.4 0-1.3 2.3.2 3.8.7.7 1.7.8 2.9.1 1.5-.7 1.8-2.1 1.7-7.2-.2-8-1.9-10.6-4.8-7.2M238.2 852.2c-1.7 1.7-1.5 3.3.2 1.9 2.2-1.8 3.1.6 1.2 3.4-1.3 2-1.3 2.4-.1 2.9 1.9.7 2 4.6.1 4.6-.8 0-1.6-.6-1.9-1.3-.2-.6-.8-.9-1.3-.4-.4.4.1 1.6 1.2 2.7 3.3 3.3 4.9 1.1 4.6-6.2-.3-6.7-1.9-9.7-4-7.6M247.6 852.5c-.3.9-.6 3-.6 4.6 0 2.6.3 3 2.3 2.7 1.7-.2 2.3.3 2.5 2.1.5 3-1.5 5.2-2.8 3.1-.5-.8-1.2-1.1-1.6-.7s0 1.5 1 2.5c1.6 1.6 1.8 1.6 3.7-.7 2.5-3.1 2.4-4.7-.6-7.7s-3.2-4.4-.4-4.4c2.6 0 2-2.4-.8-2.8-1.2-.2-2.3.4-2.7 1.3M214 860c0 .5 1.6 1 3.5 1s3.5-.5 3.5-1c0-.6-1.6-1-3.5-1s-3.5.4-3.5 1M633.4 689.3c-.2.7-.3 6.2-.2 12.3l.3 10.9 43.8.3 43.8.2-.2-10.7c-.1-6-.3-11.6-.6-12.6-.4-1.6-3.3-1.7-43.4-1.7-34.6 0-43.1.3-43.5 1.3m84.6 11.2V711l-21.7-.4c-12-.3-30.5-.5-41-.5L636 710v-20h82z"/><path d="M642 696.6c0 4.1.2 4.5 2 3.9 1.7-.5 2-.2 2 2s-.3 2.5-2 2c-1.4-.4-2-.2-2 .9 0 2 1.6 2.9 4 2.1 2.9-.9 2.9-8.5 0-9.2-2.5-.7-2.8-4.5-.4-4.1 1 .2 1.9-.3 2.1-1 .3-.8-.6-1.2-2.6-1.2-3 0-3.1.1-3.1 4.6M653 695.6c-1.4 4.1-.6 9.6 1.6 11.5 2.3 1.9 4.4-1.3 4.4-6.9 0-8.1-3.9-11.1-6-4.6m4 4.5c0 3.6-.4 4.9-1.2 4.7-1.5-.5-2.2-5-1.3-8.5.9-3.9 2.5-1.6 2.5 3.8M674.6 693.6c-.9 2.4-.7 4.4.4 4.4.6 0 1-.9 1-2s.5-2 1-2c1.7 0 1.1 4.8-1 8.2-2.9 4.7-2.6 6 1.2 5.6q3.3-.3 3.6-2.1c.3-1.5 0-1.8-1.7-1.2-2.5.7-2.7-.3-.6-3.1 2.6-3.4 1.6-9.4-1.5-9.4-1 0-2.1.7-2.4 1.6M685.2 694.5c-.7 1.4-1.2 4.2-1.2 6.1 0 6.8 3.9 9.9 6.2 4.9 1.3-3-.3-7.5-2.7-7.5-.8 0-1.5-.6-1.5-1.3 0-2.1 1.2-2.8 2.7-1.6 1 .9 1.3.7 1.3-1 0-3-3.4-2.7-4.8.4m3.6 8c-.2 1.4-.7 2.6-1.3 2.6-.5 0-1.1-1.2-1.3-2.6-.2-1.8.1-2.5 1.3-2.5s1.5.7 1.3 2.5M696 693.9c-.5 1.1-1 3.8-1 6.1 0 7.3 3.5 10.6 5.8 5.5 1.5-3.2 1.5-6.3.1-10.4-1.2-3.5-3.3-4-4.9-1.2m4 6.2c0 3.7-.4 4.9-1.5 4.9s-1.5-1.2-1.5-4.8c0-2.7.3-5.2.6-5.5 1.5-1.4 2.4.7 2.4 5.4M706 698.4c0 3.5-.3 7.1-.6 8-.5 1.2 0 1.6 1.9 1.6 3.5 0 5.1-2.5 5.1-8 0-5.2-1.6-8-4.5-8-1.7 0-1.9.8-1.9 6.4m4.3-.2c.6 4.3-.7 8.3-2.4 7.3-1.5-1-1.1-11.5.5-11.5.8 0 1.5 1.6 1.9 4.2M663.5 700c-.4.6.8 1 3 1s3.4-.4 3-1c-.3-.6-1.7-1-3-1s-2.7.4-3 1M612.2 692.3c-1.2 1.3-2.2 3.4-2.2 4.8 0 1.9-1.4 3.2-7.1 6.4-10 5.6-17.4 10.8-28.3 19.7-10.2 8.3-26.9 19.9-36.9 25.4-9.7 5.4-52.9 26.4-54.3 26.4-.2 0-3.2 1.3-6.6 2.8-3.5 1.6-9.1 4-12.5 5.3-3.5 1.3-6.3 2.7-6.3 3.1 0 1.1.2 1.1 6.7-1.3 5.9-2.2 39.9-17.1 43-18.9 1-.5 5.9-2.9 10.8-5.3 16.2-7.9 43-23.6 45.5-26.7.3-.3 2.5-2.1 5-3.8s6.1-4.5 8-6.1c3.5-2.9 3.5-2.9 4-.8.8 3 4.9 3.3 8.3.7 3.1-2.5 3.4-4.5 1-5.9-1.3-.7-2.7-.4-5 1.1-1.8 1.1-3.3 1.6-3.3 1.2 0-1 6.6-6.6 10.3-8.6 3-1.7 3.1-1.7 4.5.3 1.1 1.7 2.1 2 4.6 1.5 3.1-.6 3.1-.6-1.9 4.1-10.5 9.9-28.1 22.2-47 32.8-11.2 6.3-18.8 10.5-19 10.5s-.1-.9.2-2c.4-1.4 0-2-1-2-2 0-3.5 2.2-1.9 2.8.7.2 1.2.7 1.2 1.2 0 .7-15.8 8.8-30.5 15.5-14.5 6.7-18.8 8.5-19.7 8.5-.5 0-2.8.9-5 2-4.4 2.1-7.3 2.6-6.3 1.1.9-1.5-1.6-2.4-2.8-1.1-.9 1-.9 1.4.1 1.7 2 .7 1.4 2-1.2 2.7-1.3.3-3.1.8-3.9 1.2-.9.3-1.6-.3-2-1.5-.3-1.2-1-2.1-1.7-2.1s-.9.8-.4 2.2c.6 2 .5 2.1-.8 1-1.3-1-1.9-1-3.3.4-1.2 1.2-1.9 1.4-2.7.6s-.4-1.4 1.5-2.1c2.2-.9 2.7-1.7 2.7-4.6 0-2.2-.4-3.4-1-3-.5.3-1 1.7-1 3.1s-.4 2.3-.9 1.9c-.6-.3-3.6.4-6.8 1.5-3.1 1.1-7.8 2-10.3 2-3.3 0-7 1.2-13.8 4.5-7.9 3.8-10.3 4.5-15.3 4.5-4.2 0-7.3.7-10.4 2.2-4 2.1-6 4.8-3.6 4.8.5 0 1.2.9 1.6 2 .8 2.6 6.1 5.6 11.3 6.4 3.1.5 6.5 0 13-2 12.1-3.6 12.7-3.7 15-2.5 2.6 1.4 8.2-.4 8.2-2.7s9.5-5.5 12.1-4.2c2.8 1.6 7.3.1 9-2.9 1-1.7 3.1-3.2 6-4.1 2.4-.7 4.9-1.7 5.4-2 .6-.4 3.5-1.6 6.5-2.8 16.9-6.2 55.4-24.1 69.5-32.2 2.2-1.3 6.9-4 10.6-6 3.6-2 11.2-6.8 17-10.8 7.2-4.9 11.1-7 12.5-6.6 2.7.7 7.4-3.1 7.4-6s4.2-6.9 6.8-6.4c2.7.4 7.2-3.9 7.2-6.9 0-3.2 9.7-14.3 12.5-14.3 3.1 0 6.5-1.1 6.5-2.1 0-.5-1.3-.9-2.8-.9-2.3 0-3.3-.8-5.1-4-1.2-2.2-3.5-4.7-5.1-5.5-3.6-1.9-3.3-1.9-5.8.8m6.2 1.3c.9.3 1.6 1.1 1.6 1.6 0 1.8-11.1 13.8-12.1 13.2-.6-.3-.2-1.2.8-1.9 2.4-1.8.8-3.3-1.7-1.7-1.1.7-2 .8-2 .3s1.6-1.8 3.5-3c2.7-1.6 3.5-2.7 3.5-4.9 0-1.6.3-3.2.7-3.5.8-.9 3.6-.9 5.7-.1m3.6 8.4c-.6 1.2-6.6 7.6-13.3 14.3-14.4 14.5-27.5 24.6-44.7 34.6-4.1 2.4-9.5 5.6-12.1 7.1-13.3 7.9-53.6 26.7-77.4 36-22.1 8.7-60.6 21.1-65.1 20.9-1.7 0-1.7-.1.1-.9 1.1-.4 3.8-1.3 6-1.8 2.2-.6 12.8-3.9 23.5-7.3 17.9-5.7 24.4-8 32.5-11.4 1.7-.7 4.1-1.6 5.5-2s4.3-1.6 6.5-2.5c2.2-1 8.9-3.9 14.9-6.5 30.4-13 69.4-34.3 86.5-47.2 9.8-7.3 31.2-27.7 34.8-33.1 1.9-2.8 3.8-2.9 2.3-.2m-16.5 5.9c.3.5.1 1.2-.4 1.5s-1.1-.1-1.5-.9c-.6-1.6.9-2.1 1.9-.6m-5.1 2.6c-.6 1.6-2.4 2.1-2.4.7 0-1.1 1.1-2.2 2.1-2.2.5 0 .6.7.3 1.5m7.6 1.9c0 .3-.5.8-1.2 1.2s-.8.3-.4-.4c.7-1.2 1.6-1.6 1.6-.8m2 7.5c-1.2 2.3-2.9 3.5-3.7 2.7-.4-.3.4-1.5 1.7-2.6 2.9-2.5 3.3-2.5 2-.1m-20 1.1c0 .5-.2 1-.4 1-.3 0-.8-.5-1.1-1-.3-.6-.1-1 .4-1 .6 0 1.1.4 1.1 1m-5.5 2c.3.5.1 1-.4 1-.6 0-1.1-.5-1.1-1 0-.6.2-1 .4-1 .3 0 .8.4 1.1 1m10.5 10.5c-.7.8-1.7 1.5-2.2 1.5-.6 0-.5-.7.2-1.5s1.7-1.5 2.2-1.5c.6 0 .5.7-.2 1.5m-145 59.4c0 1 .8 2.2 1.8 2.6 1.7.8-7.6 4.2-26.8 10.1-19.6 5.9-19 5.8-23.7 3.2-2.4-1.2-4.3-2.6-4.3-3 0-1.6 4.2-2.8 9.8-2.8 3.3 0 7.2-.7 9-1.6 2.3-1.1 3.6-1.2 5.1-.5 2.1 1.2 3.8 0 2.6-1.8-1.2-2 1.7-2.2 3.1-.2 1.7 2.3 5 2.7 8.9.9 2.7-1.2 3.2-2.7 1.3-4.6-.9-.9-.7-1.2 1.3-1.3 1.3 0 4-.7 5.9-1.4 4.9-1.9 6-1.8 6 .4m-14.2 4c.3.8-.1 1.2-.9.9-.7-.2-1.5-1-1.7-1.7-.3-.8.1-1.2.9-.9.7.2 1.5 1 1.7 1.7m26.2-1.5c0 .2-2 1.1-4.5 1.9-5.1 1.8-5.8 1.5-1.7-.7 2.5-1.4 6.2-2.1 6.2-1.2m-30 1.1c0 .3-.2.5-.5.5s-.5-.2-.5-.5.2-.5.5-.5.5.2.5.5m-2 1.5c0 .5-.4 1-1 1-.5 0-1-.5-1-1 0-.6.5-1 1-1 .6 0 1 .4 1 1m20 1.5c0 .3-.2.5-.5.5s-.5-.2-.5-.5.2-.5.5-.5.5.2.5.5m11 2.4c0 1-2.4 2.1-4.3 2.1-.7 0-.3-.7.7-1.5 2.2-1.7 3.6-1.9 3.6-.6m-60.6 8.2c2 1.2 3.6 2.7 3.6 3.5s-.2 1.4-.5 1.4c-1.2 0-7.5-4.6-7.9-5.8q-1.2-2.7 4.8.9m38.6-.1c-1.9 1.2-4 1.3-4 .1 0-.9 4-2 5-1.3.2.2-.2.7-1 1.2"/><path d="M614 697c0 .5.7 1 1.5 1s1.5-.5 1.5-1c0-.6-.7-1-1.5-1s-1.5.4-1.5 1M444.5 795.1c-1 1.5.1 2.3 2 1.5.9-.3 1.3-1 1-1.6-.8-1.3-2.2-1.3-3 .1M403.2 806.1c.2.6.8 1 1.3 1s1.1-.4 1.3-1-.4-1.1-1.3-1.1-1.5.5-1.3 1.1M168.8 698c1.8 1.1 3.6 2 4 2 1.4-.1-4.3-4-5.8-4-.8 0 0 .9 1.8 2M481.8 700.8l-7.8.3v11.8c0 11.8 0 11.9 2.5 12.5 2.4.6 83.5-.3 84.6-.9.6-.4 0-21.3-.6-23.3-.4-1-7.6-1.2-35.7-1-19.4.2-38.8.4-43 .6m76.2 11.8V723h-82v-20l35.8-.2c19.6-.2 38.1-.4 41-.4l5.2-.2z"/><path d="M483.1 705.4c-2 2.4-1 7 1.7 7.4 1.5.2 2.2 1 2.2 2.6 0 3-1 3.9-2.7 2.4-2.1-1.7-2.9 0-1 2 1.3 1.3 2.1 1.4 3.5.6 3.2-2.1 2.7-8.8-.8-9.9-2.7-.9-2.5-3.3.3-3.7 1.2-.2 2.2-.8 2.2-1.3 0-1.6-4.1-1.7-5.4-.1M495.2 704.8c-3 1.9-2.6 14.7.4 15.9 2.3.9 4.3-2.7 4.4-7.8 0-5.2-2.6-9.5-4.8-8.1m2.8 6.6c0 5.6-.9 8.3-2.1 6.4-1-1.6-1.2-9.2-.2-10.1 1.5-1.6 2.3-.4 2.3 3.7M515 705.9c-1.3 2.5-1.3 4.1 0 4.1.6 0 1-.7 1-1.5s.5-1.5 1-1.5c1.6 0 1.1 4.3-1 8.8-1.1 2.2-2 4.4-2 4.7s1.6.5 3.5.5c3.3 0 3.5-.2 3.5-3.3 0-2.3-.3-2.8-1-1.7-.5.8-1.2 1.1-1.7.7-.4-.4-.2-1.7.5-2.7 1.8-2.9 1.5-8.7-.4-9.4-2.2-.8-2.2-.8-3.4 1.3M525.7 705.8c-3.2 3.5-1.3 15.2 2.4 15.2 1.7 0 3.9-2.7 3.9-4.7-.1-1.7-.1-1.7-1.5.1-2.4 3.1-4.5 1.3-4.5-3.9 0-3.4.4-4.7 1.7-5.2.9-.4 1.9-.1 2.1.5.6 1.9 2.2 1.4 2.2-.7 0-1.7-1.8-3.1-3.9-3.1-.4 0-1.5.8-2.4 1.8M536.9 705.7c-2 2.4-1.8 11.8.3 13.9 1.4 1.4 2 1.5 3.2.4 2.5-2 2-6.8-.9-9.5-1.8-1.6-2.2-2.5-1.4-3 .6-.4 1.5-.2 1.9.5.5.9.9.8 1.3-.3.5-1.4-1-3.7-2.4-3.7-.4 0-1.3.7-2 1.7m3.1 9.9c0 3.1-2.3 2.8-2.8-.4-.2-1.5.2-2.2 1.2-2.2 1.1 0 1.6.9 1.6 2.6M506.3 711.8c-3.4.5-2.8 2.2.7 2.2 1.7 0 3-.4 3-.9 0-1.4-1.1-1.8-3.7-1.3M591.5 715.9c-.7 1.2 1.2 2.4 2.5 1.6 1.1-.7.4-2.5-1-2.5-.5 0-1.1.4-1.5.9M624.5 718.2c-1.1.5-4 3.4-6.4 6.4-2.5 2.9-5.9 7-7.8 9.1-1.8 2.1-3.5 4.5-3.8 5.3s-3.2 3.2-6.5 5.4c-3.3 2.1-6 4.5-6 5.2 0 .8-2.8 3.2-6.2 5.4-3.5 2.1-7.6 4.9-9.2 6.2-2.9 2.2-5.6 3.9-18.1 10.8-3.3 1.8-6.1 3.7-6.3 4.2-.2.4-.9.8-1.5.8-2 0-19.9 9.3-20.4 10.6-.3.8-1.5 1.3-2.6 1.2-1.2-.1-4.7 1-7.7 2.4-11.5 5.4-16.9 7.7-27.5 11.8-6.1 2.4-12.1 5.1-13.5 6-1.4 1-3.6 1.8-5 1.8s-5.3 1.2-8.8 2.6c-3.6 1.6-7.2 2.4-8.5 2.1-1.3-.4-6 .7-11.1 2.5-6 2.1-9.7 2.9-11.7 2.5-2.1-.5-5.5.5-13.6 4-8.7 3.8-12.8 5-21 6-10.8 1.4-17.3 4.1-17.3 7.3.1 5.4 4.8 19.5 8.1 24.3 3.3 4.7 13.9 7.3 30.1 7.4 12.8 0 13.7.1 14.4 2 .6 1.9.7 1.9 1.1-.3.3-1.6 1.1-2.2 3.1-2.2 2.3 0 2.7.4 2.8 3 .1 1.7-.3 3-.8 3s-.8 1-.6 2.2c.3 2.1 4.9 5.6 7.6 5.7 2.1.1.5-1.5-3.3-3.3-2-1-3.3-2.1-3-2.5.2-.5 5.7-1.1 12.2-1.4 12.7-.6 13.8-.9 34.3-8.5 23.9-8.9 26.4-9.9 54-22.9 18.7-8.8 37.3-20 52.6-31.9 9.7-7.5 13.9-12.5 16.3-19.4 1-2.8 3.4-6.8 5.3-8.8 7-7.4 7.8-9.3 12.7-29.5 1.4-6.2 1.4-26.1-.1-32.6-1.2-5.3-2.3-6-6.3-3.9m5.3 11.7c.4 9.4-1.6 16.2-4.9 16.9-2 .4-14.3-7.1-14.7-8.9-.1-.8 1-2.8 2.6-4.4 1.5-1.7 4.5-5.2 6.7-7.9 4.1-5.1 7.3-7 9-5.4.6.5 1.2 4.8 1.3 9.7m-21.5 15.2c-.7.7-2 .8-3 .5-1.7-.7-1.7-.8.1-2.2 2.3-1.7 4.8-.2 2.9 1.7m21.4 5.6c-2 20.7-7.9 30.8-25.7 43.4-34.3 24.4-61.7 39-106.8 57-32.6 13-46.3 16.1-71.7 16.2-14.9.1-17.9-.2-24.2-2.1-7.2-2.3-7.2-2.3-10.1-8.5-3-6.2-5.9-16.4-5-17.3.3-.2 2.5.4 5 1.5 7.2 3.1 15.5 4.4 27.6 4.5 8.5 0 11.2.3 11.2 1.3 0 1.9 2.3 1.6 4.3-.7 1-1.2 2.9-2 4.9-2 1.8 0 5.8-.7 8.7-1.5 4.2-1.1 5.8-1.2 6.9-.2 1.1.9 1.8.7 3.2-1.1 1-1.2 2.4-2.2 3.1-2.2.6 0 4.3-.9 8.1-2.1 5.6-1.6 7.2-1.8 8.4-.8s1.6.9 2-.9c.3-1.1 1.8-2.5 3.2-3 1.5-.6 5.2-2 8.3-3.2s6.3-2.1 7-2c2.8.4 3.9 0 3.9-1.5 0-.9 1.2-2 2.6-2.5 1.4-.6 5.1-2.2 8.2-3.6s7.2-2.9 9.1-3.2c2-.3 3.5-1.2 3.8-2.2.6-2.2 20.7-12.2 22-10.9s4.3.1 4.3-1.7c0-1.4 3.3-3.7 11.8-8.4 3.5-2 4.5-2.2 5.1-1.1 1.1 1.7 3.1.5 3.1-1.9 0-1.2 2.4-3.3 7.3-6.2 3.9-2.4 8.2-5.1 9.5-5.9 2-1.2 2.4-1.2 3.2 0 .7 1.2 1.1 1.2 2.4.2.9-.8 1.6-2.1 1.6-3 .1-2.1 12.2-10.3 13.4-9.1 1.3 1.3 3.6-.7 3.6-3s8.2-9 10.9-9c1.5 0 2.1-.6 2.1-2.1 0-1.9 2.9-7.9 3.9-7.9.2 0 .1 3-.2 6.7m-12.6-2.6 5.1 3.2-4.4 3.8c-4.9 4.3-5.7 4.5-9.8 2.4-3.4-1.7-3.7-2.7-1.5-4.5.8-.7 1.5-2.2 1.5-3.4 0-2.2 1.7-4.6 3.2-4.6.4 0 3.1 1.4 5.9 3.1m-14.6-1c.4.6 1.3.8 2.1.5 2-.8 1.8 2.3-.3 4.6-.9 1-1.9 1.8-2.3 1.8s-3.8 2-7.4 4.5c-5.4 3.6-7.6 4.5-10.9 4.5-4.2 0-4.2 0-1.7-2 2.9-2.2 3.6-2.4 4.5-1 1.3 2.2 3.5 1 3.5-1.9 0-2.1.6-3.2 2-3.6 1.1-.4 2.7-1.9 3.5-3.5 2.1-4.1 5.7-6.1 7-3.9m1.1 13c1.9 1.1 3.4 2.4 3.4 2.7 0 1-6 5.9-9.5 7.8-3.1 1.6-3.3 1.6-7.8-1.1-2.6-1.5-4.7-2.8-4.7-3s2.4-1.5 5.3-3c2.8-1.5 6.1-3.4 7.2-4.1 2.5-1.8 2.1-1.8 6.1.7m5.4.4c0 .3-.2.5-.5.5s-.5-.2-.5-.5.2-.5.5-.5.5.2.5.5m1.7 2.2c-.4.3-.7 0-.7-.7s.3-1 .7-.7c.3.4.3 1 0 1.4m-30.2 3.3c.3.5 3.5 2.6 7 4.6 3.6 1.9 6.5 4.2 6.5 5.1 0 1.1-.8.8-3-1.1-1.7-1.3-5.3-3.7-8-5.2-2.8-1.5-5-3.1-5-3.6 0-1.1 1.7-1 2.5.2m1.8 5.2c6.9 4.1 6.9 4.1 4.5 6-1.2.9-2.7 1.8-3.1 1.8s-3.1 1.6-6 3.5c-2.8 1.9-5.6 3.5-6 3.5-1.7 0-14.8-8.3-14.5-9.2.4-1.1 14.9-9.6 16.7-9.7.8-.1 4.6 1.8 8.4 4.1M559 781c1.4 1.1 2.1 2 1.5 2-.5 0-2.1-.9-3.5-2s-2-2-1.5-2c.6 0 2.1.9 3.5 2m.1 3.2c3.8 2.3 6.8 4.6 6.6 5.1-.1.5-3.3 2.5-7 4.5-6.1 3.3-7 3.5-9 2.2-1.2-.7-4.8-2.7-7.9-4.4-3.2-1.6-5.8-3.4-5.8-3.8 0-.5 2.1-1.8 4.8-3.1 2.6-1.2 4.9-2.5 5.2-2.8.6-.8 3.1-1.7 4.8-1.8.7-.1 4.4 1.8 8.3 4.1m4.4-.2c.3.5.4 1 .1 1s-.8-.5-1.1-1c-.3-.6-.4-1-.1-1s.8.4 1.1 1m6.5 4.2c0 1.3-.9 1-3.3-1.3-2.2-2.1-2.2-2.1.6-.8 1.5.7 2.7 1.6 2.7 2.1m-31 3.8c2.8 1.6 5.5 3 6 3 .6 0 1 .4 1 .8 0 .5 1.1 1.4 2.5 2s2.5 1.6 2.5 2.2c0 1.6-1.9 1.2-4.1-.9-1.2-1.1-4.7-3.3-8-5.1-3.2-1.7-5.9-3.5-5.9-4.1 0-1.3.4-1.2 6 2.1m-4.1 1.8c2.5 1.5 5.8 3.4 7.4 4.1 1.5.8 2.7 1.8 2.7 2.2s-4.1 2.8-9.1 5.4c-6.6 3.4-9.7 4.5-11.5 4.1-2.8-.7-16.4-8.7-16.4-9.6s18.1-8.7 20.4-8.9c1 0 4 1.1 6.5 2.7m77.1-2.3c0 2.2-3.7 7.5-5.2 7.5-3.3 0-7.8 4.1-7.8 7 0 2.2-1.6 3.8-9.7 9.6-5.4 3.8-10.8 7.4-12 8.1-1.3.6-3.3 1.9-4.5 2.7-1.9 1.4-2.3 1.4-3.4-.2-1-1.4-1.5-1.5-2.5-.5-2 1.9-2.9 1.6-2.9-1.1 0-1.7 1.1-3.1 3.8-4.7 5.8-3.5 21.6-13.3 22.7-14.2 6.7-5 20.2-14.5 20.8-14.6.4-.1.7.1.7.4m-6 10.5c0 .5-.4 1-1 1-.5 0-1-.5-1-1 0-.6.5-1 1-1 .6 0 1 .4 1 1m-97.5 1c.3.6-.1.7-.9.4-1.8-.7-2.1-1.4-.7-1.4.6 0 1.3.4 1.6 1m.7 3.1c7.2 4.2 10.8 6.9 10.8 7.9 0 .4-1.1 1.1-2.4 1.4-1.4.3-5.4 2-9 3.6l-6.5 3.1-9.7-5.8c-8.7-5.1-9.4-5.8-7.8-7 1-.7 3.4-1.8 5.4-2.3 1.9-.6 4.6-1.7 6-2.5 3.9-2.2 7.4-1.8 13.2 1.6m4.4.7c-.4.3-1.4-.2-2.4-1.2-1.6-1.8-1.6-1.8.6-.6 1.3.6 2.1 1.4 1.8 1.8M602 805c0 .5-.5 1-1.1 1-.5 0-.7-.5-.4-1 .3-.6.8-1 1.1-1 .2 0 .4.4.4 1m-85.5 3c.3.5.4 1 .1 1s-.8-.5-1.1-1c-.3-.6-.4-1-.1-1s.8.4 1.1 1m4 2c.3.5.2 1-.4 1-.5 0-1.3-.5-1.6-1-.3-.6-.2-1 .4-1 .5 0 1.3.4 1.6 1m3.5 3.1c0 .6-.4.7-1 .4-.5-.3-1-1.1-1-1.6 0-.6.5-.7 1-.4.6.3 1 1.1 1 1.6m-37 2.5c0 .2-1.3-.2-3-1.1-1.6-.9-3-1.8-3-2.1 0-.2 1.4.2 3 1.1 1.7.9 3 1.8 3 2.1m-.1 2.6c5 2.9 9 5.6 9.1 5.9 0 .9-12.6 5.9-14.8 5.9-1.8 0-20.2-10.9-20.2-12 0-.7 11.8-4.6 14.7-4.8 1.2-.1 6.2 2.2 11.2 5m2.1-1.7c0 .3-.2.5-.5.5s-.5-.2-.5-.5.2-.5.5-.5.5.2.5.5m-31 2.4c0 2.8-1.9 3.6-3.5 1.5-1-1.4-1-2.1-.2-2.6 2.1-1.4 3.7-.8 3.7 1.1m37 1.7c0 .2-.9 0-2-.6s-2-1.3-2-1.6c0-.2.9 0 2 .6s2 1.3 2 1.6m-42.7.4c.6 2.4 1 2.2-8.3 5.5-5.6 2-9.8 2.8-16.7 3-5.1.2-9.3 0-9.3-.5 0-.4 3.3-2.2 7.3-3.9 5.3-2.2 8.3-2.9 10.8-2.5 2.2.4 5.2-.1 8.4-1.4 6.5-2.6 7.2-2.6 7.8-.2m9.2 0c.3.5.4 1 .1 1s-.8-.5-1.1-1c-.3-.6-.4-1-.1-1s.8.4 1.1 1m35.5.5c0 .3-.2.5-.5.5s-.5-.2-.5-.5.2-.5.5-.5.5.2.5.5m-32 4.6c1.4.8 2.7 1.7 3 2s2 1.4 3.8 2.3c1.7.9 3.2 1.8 3.2 2 0 .7-12.8 4.6-14.9 4.6-2 0-12.6-5.3-14.9-7.5-1.1-1-.4-1.6 4.2-3 3.1-1 6.4-2.4 7.3-3.1 1.5-1 2.2-1 3.8 0 1.1.7 3.1 1.9 4.5 2.7m35-2c0 .6-.4.7-1 .4-.5-.3-1-1.1-1-1.6 0-.6.5-.7 1-.4.6.3 1 1.1 1 1.6m62 1.5c0 1.1-.5 1.4-1.6 1-.8-.3-2.4-.1-3.5.4-1 .6-1.9.8-1.9.6 0-.6 5.1-3.5 6.3-3.6.4 0 .7.7.7 1.6m-89 3c0 .2-.9 0-2-.6s-2-1.3-2-1.6c0-.2.9 0 2 .6s2 1.3 2 1.6m81-.1c0 .3-.2.5-.5.5s-.5-.2-.5-.5.2-.5.5-.5.5.2.5.5m6 2.7c0 2.8-.6 3.6-3.6 5-3.5 1.8-3.5 1.8-4.5-.8-1.1-3.1-1.2-2.9 3.3-5.4 4.5-2.6 4.8-2.5 4.8 1.2m-117-.7c0 .3-.2.5-.5.5s-.5-.2-.5-.5.2-.5.5-.5.5.2.5.5m120.2 1.7c-.7.7-1.2.8-1.2.2 0-1.4 1.2-2.6 1.9-1.9.2.3-.1 1.1-.7 1.7m-147.4.2c.4-.5 6.1-1 12.7-1.1 11.5-.1 12.2 0 16 2.6 2.2 1.5 4.8 3 5.8 3.4 3.1 1.2 1.8 2.6-3 3.2-2.7.4-6.5 1.1-8.7 1.5-4.1.9-3.9.9-15.4-5.9-5.4-3.2-7.8-3.9-6.6-2 .4.7-.1.7-1.6-.1-1.2-.6-2.4-1-2.6-.7-.5.5 7.1 5.7 8.3 5.7.5 0 1.9 1 3.3 2.1 2.5 2 2.5 2-10 1.6-10-.3-13.8-.8-19.4-2.8-3.7-1.3-6.9-2.8-7-3.4-.2-1.8 7.7-3.6 16.1-3.8 4.6-.1 8.3-.6 8.3-1.1s.7-.3 1.6.5 1.8.9 2.2.3m62.7-.3c1.1 1.7-.1 2.1-1.5.4-.8-.9-.8-1.5-.2-1.5s1.4.5 1.7 1.1m70.5.4c0 2.1-4 4.1-5.1 2.4-.4-.8-.1-1.8.9-2.6 2.3-1.7 4.2-1.6 4.2.2m-99 2c0 .3-.2.5-.5.5s-.5-.2-.5-.5.2-.5.5-.5.5.2.5.5m2 1c0 .3-.2.5-.5.5s-.5-.2-.5-.5.2-.5.5-.5.5.2.5.5m90 2c0 .8-.2 1.5-.4 1.5s-.6-.7-1-1.5c-.3-.8-.1-1.5.4-1.5.6 0 1 .7 1 1.5m8 .7c0 1.8-.2 2-.9.8-.6-.8-.7-1.8-.5-2.2.9-1.4 1.4-.9 1.4 1.4m-93 2c0 .6-.7.5-1.5-.2s-1.5-1.7-1.5-2.2c0-.6.7-.5 1.5.2s1.5 1.7 1.5 2.2m-30.5-.2c.3.5.4 1 .1 1s-.8-.5-1.1-1c-.3-.6-.4-1-.1-1s.8.4 1.1 1m114 1c.3 1.1.3 2.4 0 3-1.2 1.9-2.2 1-2.2-2 0-3.4 1.3-4 2.2-1m5.5-.5c0 .8-.4 1.5-1 1.5-.5 0-1-.7-1-1.5s.5-1.5 1-1.5c.6 0 1 .7 1 1.5m-15.6.1c2.4.9 1.9 2-1.4 3.4-3 1.2-3.4 1.9-3.1 5.1.1 1-1.1 2.2-3.1 2.9-1.8.8-5.6 2.4-8.3 3.6-2.8 1.2-6.9 2.9-9 3.7-2.2.8-7.1 2.7-11 4.2-14.8 5.6-27.2 9.3-33.2 9.8-6.1.5-6.3.4-6.3-1.9 0-1.3-.4-2.4-1-2.4-2.5 0-.7-1.8 2.3-2.3 4.4-.6 14.2-3.4 20.2-5.6 2.8-1 8.8-3.3 13.5-5.1 4.7-1.7 10.8-4.1 13.5-5.2 2.8-1.2 6.4-2.7 8-3.3 1.7-.7 5.5-2.4 8.5-3.7 3-1.4 6.2-2.8 7-3.1s1.6-.6 1.7-.6c.1-.1.8.2 1.7.5m-101.4.9c0 .3-.2.5-.5.5s-.5-.2-.5-.5.2-.5.5-.5.5.2.5.5m107 1.5c0 1.1 0 2.3.1 2.7 0 .4-.4.9-.9 1.1-1.1.3-2.4-3.7-1.6-5 1-1.5 2.4-.8 2.4 1.2m-103 1.5c0 .8-.4 1.5-.9 1.5s-1.1-.7-1.5-1.5c-.3-.9 0-1.5.9-1.5.8 0 1.5.7 1.5 1.5m98.7 2.7c-.3.8-.6.5-.6-.6-.1-1.1.2-1.7.5-1.3.3.3.4 1.2.1 1.9m-84.6 24.1c-.1.4-.1 1.5-.1 2.4 0 1.6-.1 1.6-1.6.1-.9-.9-1.3-2.1-.9-2.8.7-1.2 2.7-1 2.6.3m6.4-.3c.7 1.2-1.2 4-2.6 4-.5 0-.9-1.1-.9-2.5 0-2.5 2.3-3.5 3.5-1.5"/><path d="M390 848.8c0 1 6.9 4.7 7.6 4 .3-.3-1-1.5-2.9-2.7-3.7-2.3-4.7-2.5-4.7-1.3M401 855c0 .9 3.1 3 4.4 3 1.6 0 .3-1.8-1.9-2.8-1.4-.7-2.5-.8-2.5-.2M416.5 856.1c-1 1.5.3 2.5 1.6 1.2.7-.7.7-1.3.1-1.7-.6-.3-1.4-.1-1.7.5M411 858c-.8.5-1.1 1.2-.7 1.6s1.5 0 2.4-.9c1.8-1.8.8-2.3-1.7-.7M419.5 860c.3.5.8 1 1.1 1 .2 0 .4-.5.4-1 0-.6-.5-1-1.1-1-.5 0-.7.4-.4 1M414 861.6c0 .8.5 1.2 1 .9.6-.3 1 .2 1 1.1 0 1 .3 1.5.6 1.1.4-.3 1.9 0 3.5.9 1.7.9 2.9 1 2.9.4s-1.1-1.6-2.5-2.2-2.5-1.7-2.5-2.5c0-.7-.9-1.3-2-1.3s-2 .7-2 1.6M432 826.5c0 .8.9 1.5 2 1.5s2-.7 2-1.5-.9-1.5-2-1.5-2 .7-2 1.5M555 832.5c-.7.9-1 1.8-.7 2.1 1 1.1 3.7-.5 3.7-2.1 0-1.9-1.4-1.9-3 0M517 730.9c0 3.2-.4 4-2.2 4.4-3.8 1-33.7 3.2-42.7 3.2-8.5 0-8.5 0-11.2-3.9-1.5-2.2-3.5-4.3-4.5-4.7-2.7-.9-7.1 1.6-7.8 4.6-.4 1.4-1.1 2.5-1.6 2.5-1.7 0-1.1 4.8.8 6.2 1.9 1.3 4.2 10.3 4.2 16 0 2.6.3 2.9 2.8 2.6s2.7-.7 2.9-4.8c.4-5.8 2.3-12.2 4.3-13.7 1.7-1.4 3.5-1.5 40-4.3 8-.6 15.1-1.3 15.8-1.5 1.5-.5 1.7-10.5.2-10.5-.5 0-1 1.8-1 3.9m-58.5 3.1c0 1.8-6.2 2.7-7.7 1.2-1.8-1.8.3-3.3 4-3 2.5.2 3.7.8 3.7 1.8m1.5 3.4c0 .3-.4.8-1 1.1-.5.3-1 .1-1-.4 0-.6.5-1.1 1-1.1.6 0 1 .2 1 .4m-9 1.1c0 .3-.2.5-.5.5s-.5-.2-.5-.5.2-.5.5-.5.5.2.5.5m5 .4c0 1.4-1.8 2.3-3 1.6-.6-.4-.8-1.1-.5-1.6.8-1.2 3.5-1.2 3.5 0m5 3.5c-1.8 1.8-10.6 1.4-12.7-.6-2.5-2.6-1-3.2 2.7-.9 2.6 1.5 3.8 1.7 6 .9 1.6-.5 3.2-1.7 3.6-2.6.6-1.5.8-1.5 1.1.2.3 1 0 2.3-.7 3m-3.2 4.8c-.2 1.7-1.1 2.4-3 2.6-2.4.3-2.8 0-2.8-2.2s.4-2.6 3.1-2.6c2.6 0 3 .3 2.7 2.2m-2.1 5.5c-.4.3-1 .3-1.4 0-.3-.4 0-.7.7-.7s1 .3.7.7m0 3c-.4.3-1 .3-1.4 0-.3-.4 0-.7.7-.7s1 .3.7.7m0 2c-.4.3-1 .3-1.4 0-.3-.4 0-.7.7-.7s1 .3.7.7m0 3c-.4.3-1 .3-1.4 0-.3-.4 0-.7.7-.7s1 .3.7.7M575 729.5c-1 1.2-.9 1.6.5 2.1 1.9.8 4-.9 3.1-2.5-1-1.5-2.1-1.4-3.6.4M558.3 741.6c-.7 1.9.2 2.8 2.2 2.1 1.9-.8 1.9-2.3 0-3.1-.9-.3-1.8.1-2.2 1M454.7 763.7c-1.1 1-.8 6.3.3 6.3.6 0 1-1.6 1-3.5 0-3.6-.2-4-1.3-2.8M454 775.9c0 1.7.5 3.3 1 3.6.6.4 1-.8 1-2.9 0-2-.4-3.6-1-3.6-.5 0-1 1.3-1 2.9M497 774c-1.2.7-1.2 1.2-.2 2.2.9.9 1.5.9 2.4 0 1.6-1.6-.2-3.4-2.2-2.2M431 871.9c0 .8 6.4 5.1 7.6 5.1.2 0 .4-.4.4-1 0-.5-1.8-1.9-4-3s-4-1.6-4-1.1M454 885.4c0 .4 8.9 5.6 9.6 5.6 1.6 0-.2-2.2-3.2-3.9-3.2-1.9-6.4-2.7-6.4-1.7M467.3 890.7c-.7.2-1.3 1.7-1.3 3.1 0 2.2.9 3.2 4.4 5.1 2.5 1.2 4.7 2.9 5 3.7s1.6 1.8 2.9 2.3c1.6.6 2.6 2 3 4 .5 2.2 1.4 3.2 3.2 3.7 2.2.5 2.5 1.1 2.3 4.2-.2 2.1.2 3.7 1 3.9.8.3 1.2-.8 1.2-3.6 0-3.5.3-4.1 2.1-4.1 3.6 0 7.5-5.6 6.5-9.4-.9-3.5-6.4-7-10.7-6.7-2.1.1-4-.3-4.4-.9-.3-.5-1.4-1-2.5-1-1 0-3.8-1.1-6.1-2.5-4.6-2.6-4.7-2.6-6.6-1.8m.7 2.8c0 .3-.2.5-.5.5s-.5-.2-.5-.5.2-.5.5-.5.5.2.5.5m2.2 1.7c-.7.7-1.2.8-1.2.2s.3-1.4.7-1.7c.3-.4.9-.5 1.2-.2.2.3-.1 1.1-.7 1.7m3.8.2c0 .3-.4.8-1 1.1-.5.3-1 .1-1-.4 0-.6.5-1.1 1-1.1.6 0 1 .2 1 .4m1.2 2.8c-.7.7-1.2.8-1.2.2s.3-1.4.7-1.7c.3-.4.9-.5 1.2-.2.2.3-.1 1.1-.7 1.7m7.7.2c1.3 1.5-.1 5.6-1.8 5.6-2.1 0-5.2-3.6-4.6-5.3.9-2.1 4.8-2.3 6.4-.3m9.1 2.6c0 .5-.2 1-.4 1-.3 0-.8-.5-1.1-1-.3-.6-.1-1 .4-1 .6 0 1.1.4 1.1 1m-2.6 1.8c.2.4-.2 1.5-.9 2.5-1.5 2-3.1.6-2.1-1.8.6-1.6 2.2-2 3-.7m-4.4.7c0 .3-.2.5-.5.5s-.5-.2-.5-.5.2-.5.5-.5.5.2.5.5m11 1.8c0 2.7-4.3 7.2-5.9 6.2-2.7-1.6.5-8.5 4-8.5 1.3 0 1.9.7 1.9 2.3m-12.3 3.4c-.3 1-.5.4-.5-1.2 0-1.7.2-2.4.5-1.8.2.7.2 2.1 0 3m3.3.3c0 .5-.2 1-.4 1-.3 0-.8-.5-1.1-1-.3-.6-.1-1 .4-1 .6 0 1.1.4 1.1 1M443.7 922.6c-.4.7-.3 21.2.2 23.6 0 .5 19.6.8 43.5.8h43.4l.4-11.3c.3-6.1.2-11.5-.2-12-.9-1.1-86.6-2.2-87.3-1.1m84.3 12.5c0 8.8-.2 10-1.6 9.5-.9-.3-19.3-.6-41-.6H446l.1-9.5.1-9.5H528z"/><path d="M452.4 927.4c-1.1 2.8 0 7.1 1.8 7.1 2.4 0 3.1 1.1 2.3 3.5-.5 1.6-1 1.9-1.8 1.1-1.5-1.5-2.7-1.4-2.7.3 0 2.4 4.1 3.1 5.7 1 .7-1 1.3-2.4 1.3-3.2 0-2.3-2-5.2-3.5-5.2-.8 0-1.5-.7-1.5-1.5s.9-1.5 2-1.5 2-.7 2-1.5c0-1.9-4.9-2-5.6-.1M463.9 927.7c-2 2.4-1.8 10.8.3 13 2.3 2.3 3.8.8 4.8-4.8.6-3.1.4-5.1-.6-7.1-1.7-3.2-2.6-3.5-4.5-1.1m3.1 6.3c0 4.9-1.2 6.6-2.4 3.4-.8-2.1.3-8.4 1.5-8.4.5 0 .9 2.2.9 5M485.2 927.2c-1.5 1.5-1.6 4.8-.2 4.8.6 0 1-.7 1-1.5s.5-1.5 1-1.5c1.6 0 1.1 3.7-1 7.2-2.7 4.5-2.5 5.8.9 5.8s4.4-1.1 3.5-3.5c-.5-1.3-.9-1.4-1.5-.4-.4.8-1.1 1-1.5.7-.4-.4.1-1.9 1-3.2 2.1-3.2 2.1-8.2 0-9-2-.8-1.8-.8-3.2.6M494.4 929.6c-3.3 7.8 2.3 16.8 6.4 10.3 1.7-2.7.8-3.6-1.3-1.5-2.4 2.4-3.5 1.1-3.5-4.3 0-5.7.7-6.7 3.3-4.4 1.8 1.7 1.9 1.7 1.6-.7-.3-1.7-1.1-2.6-2.7-2.8-1.8-.3-2.6.4-3.8 3.4M507.1 926.9c-2.2 1.4-2.8 12.3-.7 14 1.8 1.5 4.4.8 5.2-1.4 1-2.5-.5-6.3-2.6-7-1.1-.3-2-1.3-2-2.2 0-1 .6-1.3 1.6-.9 2.3.9 3.7-.3 2.3-2-1.3-1.6-1.9-1.7-3.8-.5M510 937c0 2.5-1.8 3.6-2.6 1.6-.8-2.1.3-4.9 1.6-4.1.5.3 1 1.5 1 2.5M473.5 933.9c-.7 1.3 1.7 2.4 4 1.9.9-.1 1.6-.8 1.6-1.3 0-1.4-4.8-1.9-5.6-.6M142.1 617.7c-.1 11.5-.4 28.6-.7 38-.7 17.2-.7 17.3-3 17.3-3 0-6.4 3.7-6.4 6.8 0 2.5 5.2 8.2 7.5 8.2.7 0 2.5-1.4 3.9-3.1 3.3-3.8 3.5-9.1.5-11.2-1.9-1.4-2-2.1-1.5-15.8 1.5-38.7 1.7-60.9.8-60.9-.7 0-1.1 7.4-1.1 20.7M139 675c0 .5-.2 1-.4 1-.3 0-.8-.5-1.1-1-.3-.6-.1-1 .4-1 .6 0 1.1.4 1.1 1m5.7 3.5c.1 1.7-.1 2.2-.4 1.2-.6-2.2-3.2-1.9-4.7.5-1.5 2.5.7 4.7 2.9 2.8.8-.7 1.5-.8 1.5-.3 0 1.6-2.4 3.3-4.7 3.3-1.9 0-2.3-.5-2.3-2.9 0-3.4 3.6-8.3 5.9-7.9 1 .2 1.7 1.4 1.8 3.3m-7.4-1.9c1.1 1.1-.5 3.4-2.4 3.4-2.1 0-2.2-.1-1.3-2.4.6-1.6 2.5-2.1 3.7-1m5.7 3.9c0 .3-.2.5-.5.5s-.5-.2-.5-.5.2-.5.5-.5.5.2.5.5m-8 2c0 .3-.2.5-.5.5s-.5-.2-.5-.5.2-.5.5-.5.5.2.5.5M147 684.7c0 .5.9 1.4 2 2.1s2 .8 2 .2c0-.5-.9-1.4-2-2s-2-.7-2-.3M156.4 690.5c1.1.8 2.5 1.5 3 1.5.6 0 .2-.7-.8-1.5-1.1-.8-2.5-1.5-3-1.5-.6 0-.2.7.8 1.5M777.5 842.6c-.6.2-.9 5.1-.8 12.1l.2 11.8h87.6v-24l-43-.2c-23.6-.1-43.4 0-44 .3m84.5 12.1V865h-82l-.1-4.3c-.1-2.3-.3-6.7-.4-9.7-.2-3-.1-5.8.2-6.3.2-.4 18.8-.6 41.4-.5l40.9.3z"/><path d="M786 850.5c0 4.2.2 4.6 2 4 1.7-.5 2-.2 2 2.4 0 3.3-.8 3.9-2.8 1.9-.9-.9-1.2-.8-1.2.5 0 2.3 2.6 3.3 4.5 1.7 2.4-2 1.9-6.7-1-8.6-3.1-2-3.2-3.2-.2-3.6 2.9-.4 2.4-2.2-.8-2.6-2.4-.3-2.5-.1-2.5 4.3M797.2 848c-2.8 4.6-.6 15.1 3 13.7 3.1-1.1 3.4-13 .4-14.9-1.6-1.1-2-1-3.4 1.2m3.6 7.3c-.2 2.3-.7 4.2-1.3 4.2-1.2 0-1.9-8-1-10.4 1.1-2.8 2.7 1.3 2.3 6.2M819.2 847.2c-1.7 2.3-2.4 5.8-1.7 9.8.7 4.4 3.3 6 5.2 3.4 1.8-2.5 1.7-10.9-.3-12.8-1.9-1.9-1.9-1.9-3.2-.4m2.8 7.4c0 4-.4 5.5-1.2 5.2-1.5-.5-2.2-5.9-1.3-9.5 1-4.1 2.5-1.5 2.5 4.3M828.9 847.6c-1.7 2.1-1.7 10.8.1 12.9 1.3 1.5 5.7 1.8 5.3.3-.1-.4.2-2.1.7-3.8.7-2.3.5-3-.6-3-.9 0-1.4 1.1-1.4 3 0 3.2-2.3 4.2-3.4 1.4-.9-2.3-.7-7.7.3-9.3.8-1.2 1.2-1.3 2.5-.1.9.7 2 1 2.4.6.7-.7-2.4-3.6-3.9-3.6-.3 0-1.2.7-2 1.6M840.1 847.4c-.7.8-1.1 3-.9 4.8.2 2.5.8 3.4 2.6 3.6 1.2.2 2.2 1 2.2 1.7 0 1.9-2.1 3-3 1.5-.4-.7-1-.8-1.3-.3-.9 1.5.9 3.5 2.9 3.1 1.6-.3 2-1.4 2.2-6.6.4-7.9-1.8-11.4-4.7-7.8m3.7 3.9c.2 1.9-.1 2.7-1.3 2.7-1.9 0-3-2.4-2.1-4.6.9-2.3 3.1-1.1 3.4 1.9M850.7 853.2c-.8 3.5-1.6 6.7-1.8 7.3-.2.5 0 1.1.6 1.2.5.2 1-.3 1.1-1 .3-3.3.5-3.7 1.9-3.7s1.6.4 1.9 3.7c.1 1.4 2.1 1.8 2.1.5 0-2.4-3-14.2-3.6-14.2-.4 0-1.4 2.8-2.2 6.2m2.7.3c.3.8.1 1.5-.4 1.5-.6 0-1-.7-1-1.5s.2-1.5.4-1.5.6.7 1 1.5M807.2 853.7c-2 .8-.3 2.3 2.8 2.3 3.3 0 4.8-1.5 2.4-2.4-1.8-.7-3.3-.7-5.2.1M821.1 888.5c-.1 11-.5 20.5-.9 21-.4.6-5.4 4.1-11.2 7.9-24.8 16.4-23.7 15.8-22.7 13.2.4-.9.1-1.3-.6-1-1.2.4-4.2-5.5-3.3-6.4.8-.8 4.6 1.9 4.6 3.3 0 1.7.9 1.9 3 .5 1.3-.9 1.2-1.2-.4-2.5-3.2-2.4-.5-4.2 2.8-2 1.5 1 3 1.4 3.4 1s.1-1-.6-1.3c-.8-.2-2.8-1.6-4.5-3.1-5.4-4.4-9.5-7.1-11.1-7.1-3.5 0-5 7.8-1.7 8.7 1.9.5 4.7 6.1 3.6 7.1-.2.3-2.2-.6-4.2-2-5.6-3.7-11-5.4-13-4.2-.9.5-1.5 1.3-1.4 1.7 0 .4.1 2.5.1 4.7 0 3.7.3 4.1 4.3 5.9 5 2.3 14.9 9.6 19 14 1.6 1.7 3.5 3.1 4.2 3.1s1.8 1.3 2.4 3c.6 1.6 1.6 4.3 2.2 6 1.1 2.9 3.3 4.2 7.5 4.4 2.8.2 13.4 6.7 13.4 8.3 0 1.2-11.2 8.3-13.1 8.3-.5 0-.9.4-.9.9s-1.7 1.6-3.7 2.5c-2.1.8-7.8 3.8-12.8 6.6-4.9 2.7-13.2 7-18.2 9.6-5.1 2.6-9.3 5.1-9.3 5.5 0 .5.2.9.5.9.7 0 16.3-8 24.5-12.6 3.6-1.9 8.8-4.8 11.5-6.3 11.5-6.4 15.1-8.5 17-9.7 2.7-1.9 4.5-1.7 4.5.3 0 1.1-2.6 3.5-6.2 6-5.1 3.4-6.4 3.9-7.1 2.8-.4-.8-1.2-1.5-1.7-1.5-1.5 0-1.2 3 .3 3 1.7.1-1.8 2.7-7.7 5.7-4.1 2.1-5.3 2.3-6.9 1.3-2.3-1.4-3.4-.6-1.8 1.4 1.4 1.7-.4 2.8-17.4 11.5-11 5.5-11.3 5.5-11.4-1.7-.1-1.7-.6-3.2-1.2-3.2-.7 0-1 1.5-.7 4 .2 2.2 0 4-.3 4-.4 0-.5.8-.2 1.8.4 1.8-4.1 4.3-23.5 12.9-3.1 1.4-7.5 3.4-9.6 4.4-2.2 1-4.3 1.9-4.8 1.9-.4 0-3.1 1.1-6 2.3-2.9 1.3-7.5 3.2-10.3 4.1-2.7 1-5.9 2.2-7 2.6-5.4 2.4-25.8 8.9-29.9 9.5-3.9.6-4.6.5-4.6-.9 0-.9.6-1.6 1.4-1.6.7 0 4.6-1.4 8.7-3 6.2-2.6 7.4-2.8 8.1-1.6 1 1.9 3.9.9 3.6-1.1-.2-1 3.7-3.1 13.2-6.8 7.4-3 14.3-5.9 15.2-6.5 2.4-1.4 5.5-1.3 6.1.2.2.7.8 1 1.2.6s.2-1.4-.4-2.2c-1-1.2-.8-1.6 1.1-2.2 1.2-.4 5.4-2.1 9.3-3.9 9.8-4.5 11.5-5 11.5-3.1 0 .9.7 1.6 1.5 1.6 1.8 0 2-2.6.3-3.3-.7-.3 1.7-1.9 5.5-3.6 3.7-1.7 6.7-3.6 6.7-4.1 0-1.4.5-1.5-11.6 4.1-11.5 5.3-16.7 7.7-22.4 10.2-1.9.8-6 2.6-9 3.9-3 1.4-7.1 3-9 3.7-1.9.8-4.8 1.9-6.5 2.6-1.6.7-6.1 2.5-10 4-3.8 1.5-7.9 3.1-9 3.5-12 5.1-30.4 9.4-45.7 10.8-4 .3-14.3-1.2-39.8-5.9-2.5-.4-9.4-1.6-15.5-2.5-13.3-1.9-21.5-5.5-21.5-9.2 0-1.3-.4-2.1-.8-1.8-.5.3-.7 1.8-.4 3.4.3 2.1 1.3 3.3 3.5 4.3 3.5 1.6 3.9 3.2.7 3.7-1.3.2-2-.2-2-1.2 0-1.7-3.6-2.3-4.2-.7-.4 1.2-5.8.2-5.8-1 0-.5.8-.9 1.8-.9.9 0 2.6-.8 3.7-1.6 1.9-1.5 1.8-1.6-2.3-1.1-7.3.9-7.8 2.2-3.2 7.6 9.1 10.4 17.6 24.9 22 37.4 2.9 8.2 6.3 12 12.8 14.3 4.9 1.8 4.9 1.8 4.4 6.2-.4 3.4-.2 4.3.8 3.7.7-.5 1-1.8.6-3.7-.7-3.5-1.6-3.5 13.4.5 11.6 3.1 19.5 4.3 36.6 5.7 23.3 2 49.9-2 70.3-10.4 3.6-1.4 6.8-2.6 7.3-2.6.8 0 35.1-16.4 41.9-20.1 3.3-1.7 5.8-1.9 23.8-1.9H796l-.3 4.7-.2 4.8 43.8.3 43.7.2v-11.9c0-8.5-.4-12.2-1.2-12.8-1.4-.9-83.4-1.4-85.6-.6-1 .4-1.3 2.3-1.1 6.7l.3 6.1-18 .2-17.9.3 5-2.8c13.5-7.7 24.1-14.2 36-22.3 24.4-16.7 23.7-16.1 26.2-21.7 2.5-5.3 3.9-6.2 6.2-3.9 1 1 1.8.6 4.1-2.1 7.7-9.2 11.2-22.2 11.4-42.7.1-14.4 0-15.2-2.4-19.2-2.6-4.3-9.8-10.6-19-16.4-24.4-15.7-25-16-25-14.2 0 .5 2.3 2.1 5.1 3.8 14.8 8.9 32.2 21 35.3 24.7 9.4 10.9 1.1 21.2-33.9 42.6-3.8 2.4-9.9 6.1-13.4 8.3-3.4 2.1-6.5 3.9-6.8 3.9s-1.7.8-3.1 1.9c-4.2 2.9-9.3 5.7-28.7 15.5-16.8 8.5-22.8 11.4-33 15.6-2.2.9-5.6 2.3-7.5 3.2-10.6 4.8-37 14.3-43.9 15.9-8.8 2-22.6 3.9-29.3 3.9-11.1 0-30.7-3.6-46.8-8.6-17.4-5.4-30.6-9.3-32.4-9.6-1.1-.2-2.1-.9-2.3-1.5-.3-.9.4-1.1 2.4-.8 18.8 3.1 29.4 4.9 37.3 6.4 28.5 5.6 37.3 6.3 51.9 4.2 9.3-1.4 36.7-10.1 56.5-18.1 12.2-4.9 12.9-5 14.7-3.4 1.1.9 2.2 1.4 2.6 1.1.4-.4-.2-1.3-1.2-2.1-1.8-1.3-1.4-1.6 4.9-4.5 3.8-1.7 7.1-3.1 7.3-3.1 1.1 0 34-16.5 43.6-21.9 6-3.4 11.3-6.1 11.8-6.1s.9-.4.9-.9.8-1.1 1.8-1.5c3.1-1 15.4-9 27.7-17.8 12.9-9.4 14-18.5 3.3-26.9-2.4-1.9-4.9-3.9-5.6-4.6-.8-.7-4.4-3.4-8-6-3.7-2.6-6.9-5-7.2-5.3s-2.2-1.8-4.3-3.4c-2.8-2-4.2-2.5-5-1.7-.7.7-.3 1.6 1.7 3.2 2.5 1.9 2.6 2.3 1.2 3.8-.9 1-1.6 2.5-1.6 3.3 0 1.6 5.4 6.8 7 6.8.5 0 1.5.6 2.2 1.3 5.3 5.1 11.3 7.2 12.4 4.2.8-2.1 2.4-1.9 5.6.8 2.8 2.2 2.8 2.2 1 8.1-1.1 3.8-2.7 6.6-4.4 7.9-2.5 1.9-2.5 1.9-7.5-1.7-2.8-2-5.4-3.6-5.8-3.6-.5 0-2.3-1.1-4.1-2.5-3.6-2.7-5-5.5-7.9-15-2.3-7.4-5.2-13.5-6.5-13.5-2.2 0-.8-2.1 2.8-3.9 2-1.1 9.7-6 17.1-10.9l13.3-8.9-.2-10.9c-.1-6-.5-15.4-1-20.9-.6-8.9-.7-7.8-.9 10m-40.5 27.1c-.3.9-.6 2-.6 2.5s-.4.9-1 .9c-1.1 0-1.4-3.3-.3-4.3 1.2-1.3 2.5-.7 1.9.9m6.4 3c0 1.7-1.7 2.7-3.5 2-2.2-.8-.7-4.5 1.6-3.9 1 .3 1.9 1.1 1.9 1.9m-18.8 6.3c.3-.9.9-.9 2.6 0 1.3.7 1.9 1.7 1.6 2.6-.4.8-1 1.2-1.5.9s-.9 0-.9.5c0 1.6 1.6 1.3 3.4-.5 1.4-1.4 2.1-1.2 7.1 2.1 3 2 5.5 4.4 5.5 5.2s.4 1.2.9.9 1.1.1 1.5.9c.3.8 1.3 1.5 2.1 1.5 1.3 0 1.5.9 1.3 4.2-.2 2.4-.9 4.3-1.7 4.6s-1.1 0-.7-.6-.9-1.8-2.9-2.8c-2.3-1.1-3.4-2.2-3.1-3.1.3-.8 0-1.3-.7-1.2-2.3.4-4.6-1.2-4-2.8.4-1 .2-1.4-.5-1-1.5 1-6.4-1.4-5.8-2.8.2-.6-.5-1.1-1.8-1.1-1.2.1-2-.4-1.8-1.2.2-.9-.4-1.2-1.7-.7-1.5.5-2.1 0-2.6-2.4-.8-3.9.3-6.1 2.1-3.7.8 1.1 1.3 1.3 1.6.5m38.4 15.8c2.7 1.5 5.1 2.9 5.4 3.2.3.4 2.2 1.9 4.2 3.4 2.4 1.7 3.5 3.3 3.2 4.2-.9 2.4-3.1 1.8-9.4-2.5-3.2-2.2-6.2-4-6.5-4-2.3 0-4.4-4.8-2.8-6.3.8-.9.4-1.1 5.9 2m-10.8 12.1c-.4 2.7-.4 2.7-1.6-.2-1.5-3.5-.7-7.2.9-4.3.6 1 .9 3 .7 4.5m3.9 6.7c.3.9.3 1.9-.1 2.2-.7.7-3.6-1.6-3.6-2.8 0-1.5 3-1 3.7.6m32.3 3.6c0 2.2-.5 2.9-2 2.9-1.9 0-2.4.9-2.1 3.6.1 1.1-7.5 8.4-8.8 8.4-.3 0-1.3-.5-2.1-1-1.3-.9-1.3-1.1 0-1.9 6.6-4 8.4-5.9 9.8-10.1.7-2.5 1.6-5.1 1.8-5.9.7-2.3 3.4.8 3.4 4m0 6.2c0 .2-1.2 1.4-2.7 2.8-2.6 2.4-2.6 2.4-.7-.3 1.6-2.3 3.4-3.6 3.4-2.5m14 12.7c-.6 1.5-3 4.5-5.3 6.8-3.9 3.8-33.5 23.9-45.7 31-3 1.8-6.2 3.7-7 4.2-3.7 2.3-13.3 7.7-22 12.2-8.4 4.4-13.8 7-36 17.1-6.9 3.2-25.2 10.5-30.5 12.2-25.9 8.4-37.1 10.5-55.9 10.6-17.5 0-26.9-1.8-51.6-10.1-5-1.7-5.5-2.1-5.2-4.5.3-1.8 0-2.5-.7-2.1-.6.4-1.1 1.4-1.1 2.2 0 2.1-1.3 1.8-19-4-13-4.3-16.8-6-19.1-8.4-1.6-1.7-2.9-3.3-2.9-3.6 0-.9 2.9-.7 4.8.4.9.5 4.9 1.8 8.7 2.9 3.9 1 12.4 3.5 19 5.6 6.6 2 13.4 4.1 15 4.5 1.7.5 6.2 1.8 10 3 29 8.9 55 9.1 79.5.5 16.6-5.9 34.2-12.7 43.8-17.1 2.9-1.3 5.5-2.4 5.8-2.4s8.7-4 18.7-8.9c17.5-8.6 37-19.3 48-26.4 2.8-1.9 8.1-5.1 11.7-7.2 18.4-10.9 32.5-21.9 35.8-27.9 1.7-3.1 1.7-3.1 2 1.8.2 2.7-.2 6.1-.8 7.6m0 4.3c0 .2-1 1.2-2.2 2.3-2.3 1.9-2.3 1.9-.4-.4 1.8-2.1 2.6-2.7 2.6-1.9m-1 12.1c-.7 3.3-2.5 8.9-4.1 12.4-2.7 6.1-3 6.3-5.7 5.7-2.5-.5-3.4 0-6.1 3-1.7 2-3.1 4.2-3.1 4.9 0 4.1-15.7 15.8-47 35.3-24 14.9-57.1 31.4-77.6 38.7-24.6 8.7-52.6 12.5-70.8 9.6-3.4-.5-11.5-1.7-18-2.6s-16-2.8-21-4.3c-8.4-2.4-9.1-2.8-9.4-5.4-.2-1.5.1-2.7.7-2.7s1.1-.5 1.1-1.1c0-.8-.5-.8-1.5.1-.8.7-1.5 2.1-1.5 3.1 0 2.4-.3 2.4-6.1-.3-4.7-2-7.1-5.3-10-13.3-2.5-7-3.7-9.7-7.1-15.9-2.1-3.8-3.7-7.1-3.5-7.3.7-.6 9.7 2.9 9.7 3.8 0 .4.6.6 1.3.3.7-.2 11.4 2.9 23.8 6.9 26.7 8.9 28.3 9.3 42.2 10.7 27.2 2.7 59.8-4.3 95.5-20.6 2.9-1.3 5.5-2.4 5.8-2.4.8 0 38.4-18.7 46.9-23.3 22.3-12.2 55.6-34 62-40.7 4.7-4.9 5.3-4 3.5 5.4m-4-7.1c0 .2-1 1.2-2.2 2.3-2.3 1.9-2.3 1.9-.4-.4 1.8-2.1 2.6-2.7 2.6-1.9m-5.1 5c-.2.1-2 1.2-3.9 2.5l-3.5 2.3 3.4-3c1.9-1.7 3.7-2.8 4-2.6.2.3.2.6 0 .8m-8.4 5.6c-2.4 2.1-25.7 17.2-26.1 16.8-.5-.5 24.7-17.5 26.1-17.6.6-.1.6.2 0 .8m7.5 17.6c0 .8-.6 1.5-1.4 1.5-1.7 0-2.8-1.4-1.9-2.4 1.2-1.2 3.3-.6 3.3.9m-35-.1c0 .5-8.1 5.6-14.5 9.1-3.7 2-4.4 2.2-2.5.6 1.4-1.1 3.9-2.7 5.5-3.5 1.7-.8 4.6-2.6 6.5-4 3.3-2.4 5-3.1 5-2.2m-20 12c0 .2-.7.7-1.6 1-.8.3-1.2.2-.9-.4.6-1 2.5-1.4 2.5-.6m-4 2c0 .3-.4.8-1 1.1-.5.3-1 .1-1-.4 0-.6.5-1.1 1-1.1.6 0 1 .2 1 .4m-3 2.1c0 .3-.2.5-.5.5s-.5-.2-.5-.5.2-.5.5-.5.5.2.5.5m-4 1.9c0 .2-.7.7-1.6 1-.8.3-1.2.2-.9-.4.6-1 2.5-1.4 2.5-.6m-4.5 2.6c-.3.5-1.4 1-2.3 1-1.5 0-1.5-.2-.2-1 2-1.3 3.3-1.3 2.5 0m-4.8 2.7c-.4.3-1 .3-1.4 0-.3-.4 0-.7.7-.7s1 .3.7.7m-5.6 2.4c-1.8 1.1-3.5 1.8-3.8 1.5-.5-.5 4.6-3.5 6.2-3.6.6 0-.5.9-2.4 2.1m-195.1.4c0 .3-.2.5-.5.5s-.5-.2-.5-.5.2-.5.5-.5.5.2.5.5m189.5 2.5c-.3.5-1.1 1-1.6 1-.6 0-.7-.5-.4-1 .3-.6 1.1-1 1.6-1 .6 0 .7.4.4 1m-3.5 1.4c0 .2-.9.6-2 .9s-1.8.1-1.4-.4c.5-.9 3.4-1.3 3.4-.5m-91 2.5c0 1.2-3.4 2-12.1 2.6-8 .6-7.2-.6 1.6-2.3 6.8-1.3 10.5-1.4 10.5-.3m85.5.1c-.3.5-1.1 1-1.6 1-.6 0-.7-.5-.4-1 .3-.6 1.1-1 1.6-1 .6 0 .7.4.4 1m-6.8 3.1c-2.2 1.1-4.1 1.8-4.4 1.5s1-1.2 2.8-2c5-2.1 6-1.8 1.6.5m-6.7 2.4c0 .6-7.8 4.1-11 4.9-1.4.4.2-.7 3.5-2.3 6.1-3 7.5-3.5 7.5-2.6m154.5 15v10l-41.2.3-41.2.2-.3-10.1c-.2-5.5-.1-10.3.1-10.5.3-.2 18.9-.3 41.5-.2l41.1.3zm-169-8.5c-.3.5-1.1 1-1.6 1-.6 0-.7-.5-.4-1 .3-.6 1.1-1 1.6-1 .6 0 .7.4.4 1m-4.5 2c-.8.5-2.2 1-3 1-1.3 0-1.3-.1 0-1 .8-.5 2.2-1 3-1 1.3 0 1.3.1 0 1m-6 2c-.8.5-2.2.9-3 .9-1 0-.8-.3.5-.9 2.7-1.2 4.3-1.2 2.5 0m-5.3 1.7c-.4.3-1 .3-1.4 0-.3-.4 0-.7.7-.7s1 .3.7.7m-5.7 1.8c0 .3-.2.5-.5.5s-.5-.2-.5-.5.2-.5.5-.5.5.2.5.5m-5 1c0 .3-.2.5-.5.5s-.5-.2-.5-.5.2-.5.5-.5.5.2.5.5m-3.3 1.2c-.4.3-1 .3-1.4 0-.3-.4 0-.7.7-.7s1 .3.7.7"/><path d="M775.5 930c-.3.5-.1 1 .4 1 .6 0 1.1-.5 1.1-1 0-.6-.2-1-.4-1-.3 0-.8.4-1.1 1M777.8 933.2c-1.4 1.4-1.5 1.8-.4 1.8.8 0 1.7-.7 2-1.6.9-2.3.4-2.4-1.6-.2M781 933.5c0 .3.2.5.5.5s.5-.2.5-.5-.2-.5-.5-.5-.5.2-.5.5M783 936.5c0 .3.2.5.5.5s.5-.2.5-.5-.2-.5-.5-.5-.5.2-.5.5M780.3 938.7c.4.3 1 .3 1.4 0 .3-.4 0-.7-.7-.7s-1 .3-.7.7M787.5 941.1c-2.2.8-2.1.9 1.3 1.3 1.2.2 2.2-.1 2.2-.5 0-1.3-1.4-1.7-3.5-.8M737 1041.9c0 1.2 3.9 3.5 4.6 2.8.3-.2-.7-1.2-2.1-2.1s-2.5-1.2-2.5-.7M799.6 1028.5c-.3.8-1.2 1.2-2.1.9-1.1-.5-1.5.1-1.5 2.5 0 2.5-.7 3.6-3.2 5.1-1.8 1.1-3.7 2.2-4.3 2.4-.5.2-.7.6-.3 1 .3.4 2.5-.4 4.7-1.8 3.2-2 4.1-3.3 4.1-5.4s.2-2.4 1-1.2c.8 1.3 1.1 1.2 2.4-.5 1.8-2.3 1.9-3.2.7-3.9-.5-.3-1.1.1-1.5.9M777.8 1040.4c-1 .7-1.8 2.3-1.8 3.4s-.4 2.4-1 2.7c-.5.3-1 1-1 1.6 0 1.8 1.6.8 3.4-2.2 1.2-2 2.5-3 3.9-2.8 3.6.2 4.7 0 4.7-1.2 0-.7-.9-.9-2.1-.6s-2.2 0-2.6-.9c-.6-1.7-1.3-1.7-3.5 0M768.5 1050c-.3.5.1 1 .9 1s1.8-.5 2.1-1c.3-.6-.1-1-.9-1s-1.8.4-2.1 1M751.5 1051c.3.5 1 1 1.6 1 .5 0 .9-.5.9-1 0-.6-.7-1-1.6-1-.8 0-1.2.4-.9 1M757.4 1051.5c-1.2.8-2.4 2.6-2.6 4-.6 3 1.1 3.4 1.9.5.3-1.1 1.6-2.3 3-2.6 1.3-.4 2.2-1.1 2-1.7-.5-1.7-2.1-1.8-4.3-.2M764 1052.6c0 .8.5 1.2 1 .9.6-.3 1-1 1-1.6 0-.5-.4-.9-1-.9-.5 0-1 .7-1 1.6M749.4 1059.5c-1.7 1.3-1.7 1.4-.2 1.5.9 0 2-.5 2.3-1.1 1.1-1.7 0-2-2.1-.4M743.4 1062.4c-1 .8-1.7 1.7-1.4 1.9.3.3 1.4-.1 2.4-.9 1.1-.7 1.7-1.6 1.5-1.9-.3-.3-1.4.2-2.5.9M734 1064.5c-1.3 3.4-1.4 3.3 1.5 2.7 3.3-.6 3.6-1.3 1.3-3.5-1.8-1.7-1.9-1.6-2.8.8M730.4 1066.4c-.3 1.3-1.5 2.8-2.7 3.4-2.2 1.1-2.2 1.1-.1 1.1 1.2.1 2.6-.5 3.1-1.2 1.4-1.8 2.3-5.7 1.2-5.7-.5 0-1.1 1.1-1.5 2.4M568 1067.8c0 4.2 2.6 5.9 15.3 10.3 11.9 4.1 14.7 4.2 14.7.5-.1-3.8-2.4-5.3-14.2-9.5-14.1-5-15.8-5.1-15.8-1.3m7.1.3c1.9.6 4.3 1.4 5.4 1.9s3 1.1 4.1 1.5c1.3.3 2.1 1.3 1.9 2.3-.1.9 0 1.1.2.3.5-1.5 5.7-.9 8 1 1.2 1.1 1.9 4.9.8 4.9-1 0-21.1-7.1-23.2-8.2-1.3-.6-2.3-2-2.3-3 0-2.1.5-2.2 5.1-.7M720.4 1073.5c-1.5 1.1-1.6 1.4-.4 1.5 2.1 0 4.4-1.6 3.3-2.3-.6-.4-1.9 0-2.9.8M708.6 1075.5c-2.4 2.4-2.2 4.9.4 3.5 1.1-.6 2-1.6 2-2.2 0-.7.4-.7 1.3 0 1.2 1 4.7-.1 3.7-1.2-1.6-1.5-5.9-1.6-7.4-.1M702 1082c0 1.3 1.1 1.3 3 0 1.2-.8 1.1-1-.7-1-1.3 0-2.3.4-2.3 1M568.2 1084.7c.2 1.4 1.1 1.7 3.3 1.5 3.7-.5 4.2-.9 2.7-2.4-.8-.8-1.5-.8-2.7.2-1 .8-1.5.9-1.5.1 0-.6-.5-1.1-1.1-1.1s-.9.8-.7 1.7M586 1086.9c0 2.3.5 4.1 1 4.1.6 0 1-1.5 1-3.4s-.4-3.8-1-4.1c-.6-.4-1 1-1 3.4M696 1084.5c-1.6 1.9 0 1.9 2.6 0 1.6-1.2 1.6-1.4.3-1.5-.9 0-2.2.7-2.9 1.5M579.1 1088c1.3 1.6 2.5 2.8 2.7 2.5.9-.9-2.1-5.5-3.5-5.5-1 0-.7.9.8 3M571.3 1088.7c-2.3.9-1.4 2 1.2 1.5 1.4-.2 2.2-.8 1.9-1.3-.6-1-1.2-1-3.1-.2M576.5 1091c.3.5 1.1 1 1.6 1 .6 0 .7-.5.4-1-.3-.6-1.1-1-1.6-1-.6 0-.7.4-.4 1M588.4 1093.5c-.4 1-1.3 1.3-2.6.9-1.4-.4-1.8-.2-1.4.5 1 1.6 4.6 1.4 5.2-.3.3-.9 1.2-1.2 2.1-.9 1.1.4 1.4.2.9-.5-1-1.7-3.6-1.5-4.2.3M593.1 1094.9c-1.6 1.2-2 2-1.2 2.5.6.4 1.4 0 1.7-.8.9-2.4 2.3-1.9 3.6 1.1.9 2.4 1.2 2.5 1.6.9.2-1-.4-2.7-1.5-3.7-1.7-1.7-1.9-1.8-4.2 0M601 1100c0 .5.7 1 1.6 1 .8 0 1.2-.5.9-1-.3-.6-1-1-1.6-1-.5 0-.9.4-.9 1M805.7 1064.2c-1.2.6-1.7 2.2-1.7 4.8 0 3.5.3 3.9 2.2 3.7 2.5-.2 3.7 2.8 1.9 4.6-.9.9-1.4.8-2.1-.3-1.1-1.8-2.5-.6-1.6 1.5.3 1 1.5 1.5 2.8 1.3 1.9-.2 2.4-1 2.6-4.6.3-3.7 0-4.4-1.7-4.9-2.8-.7-2.8-4.3-.1-4.3 1.1 0 2-.4 2-.9 0-1.4-2.5-2-4.3-.9M837.7 1064.8c-1.8 2-2.2 4.2-.8 4.2.5 0 1.2-1 1.6-2.3.7-2 .8-1.9 1.2 1 .3 1.9-.4 4.7-1.6 7.2-2.7 5.2-2.7 5.3 1.1 4.9q3.3-.3 3.6-2.1c.3-1.5 0-1.8-1.7-1.2-2.4.7-2.6 0-.6-3.5 3.1-5.3.7-12.1-2.8-8.2M815.4 1066.2c-1.2 3.7-.5 11.1 1.2 12.8 1.4 1.3 1.7 1.3 3-.4 1.6-2.3 1.9-9.8.4-12.7-1.4-2.6-3.7-2.4-4.6.3m4 1.4c1.5 3.9-.3 11.2-2.5 9.9-1-.7-1.3-9.8-.2-10.8q1.65-1.65 2.7.9M847.2 1066.5c-.6 1.4-.8 2.5-.3 2.5s1.1-.7 1.5-1.5c.3-.8 1-1.5 1.6-1.5 1.4 0 1.2 3.6-.4 6.8-.7 1.5-1.7 3.7-2 4.9-.7 2-.4 2.3 2.2 2.3 1.8 0 3.2-.6 3.6-1.6.8-2.1-.4-4-1.5-2.3-1.3 2.2-2.3.1-1.2-2.4 1.9-3.7 2.1-5.1 1.2-7.5-1.1-2.9-3.3-2.8-4.7.3M860 1064c-.1.3-.2 4-.3 8.3-.2 6.3.1 7.7 1.3 7.7s1.4-1.3 1.2-7.2c-.2-4-.8-7.7-1.3-8.3-.5-.5-.9-.7-.9-.5M825.5 1072c-.4.6.8 1 3 1s3.4-.4 3-1c-.3-.6-1.7-1-3-1s-2.7.4-3 1M710.8 870.8c-2.8.3-2.8.3-2.8 12.6v12.3l4.3.5c2.3.3 22.4.4 44.7.4l40.5-.1.3-12.8.3-12.7h-28.8c-15.8 0-34.9-.1-42.3-.3-7.4-.1-14.7-.1-16.2.1m84.8 12.2c.1 5.2-.1 10.1-.4 10.8-.3.9-1.6 1.2-4.1.8-2-.3-20.8-.5-41.8-.6H711v-21l42.3.2 42.2.3z"/><path d="M719.8 874.8c-1.4.3-1.8 1.4-1.8 4.7 0 3.8.2 4.3 2 3.8 1.6-.4 2 0 2 2 0 2.7-2.1 4.9-2.8 2.9-.5-1.7-2.2-1.5-2.2.3 0 .8.9 1.9 2 2.5 1.6.8 2.2.6 3.6-1.4 2.1-3.3 1.1-8.6-1.7-8.6-1.2 0-1.9-.7-1.9-2s.7-2 1.9-2c1.1 0 2.2-.4 2.5-.9.7-1.1-1.3-1.9-3.6-1.3M729.1 876.9c-.6 1.1-1.1 3.9-1.1 6.3.1 8 5.2 10.6 6.6 3.2 1.4-7.6-2.7-14.7-5.5-9.5m3.7 4.1c.4 4.2-.6 8.3-1.8 7.5-1.5-1-1.3-11.8.3-11.3.6.3 1.3 1.9 1.5 3.8M751.2 877.5c-1.6 3.5-1.5 8 .3 11.5 2 3.9 4 2.9 5.4-2.7 2.1-8.3-2.6-15.5-5.7-8.8m3.9 1.2c.3 2.9-.3 9.8-.8 10.3-1.6 1.7-3.1-6.9-1.7-10.4.8-2.1 2.4-2 2.5.1M762 877c0 1.1.5 2 1 2 .6 0 1-.5 1-1 0-.6.5-1 1-1 1.5 0 1.2 2.1-.6 4.2-1.6 1.6-1.6 1.8 0 2.4.9.3 1.6 1.7 1.6 3 0 2.8-1.5 3.2-2.8.8-1.1-2-2.5-.3-1.6 1.9.8 2.3 3.2 2.8 4.9 1.1 1.8-1.8 2-5.5.4-7.1-.7-.7-.8-1.7-.1-3 1.3-2.4-.2-5.3-2.8-5.3-1.3 0-2 .7-2 2M773 876.9c-1.4 2.7-1.3 11.4.3 13.5.7 1 1.9 1.5 2.9 1.1 3.3-1.3 2.7-10.5-.7-10.5-.8 0-1.5-.9-1.5-2 0-2.2 1.6-2.7 2.3-.8.2.7.8 1 1.2.6 1.1-1.1-.2-3.8-1.9-3.8-.9 0-2 .9-2.6 1.9m3.8 9.4c.2 1.9-.1 2.7-1.2 2.7s-1.6-1-1.6-3.1c0-3.8 2.4-3.5 2.8.4M783.2 877c-1.9 3.1-1.5 10.4.7 13.1 2 2.4 2 2.4 4.2.2 1.3-1.2 1.9-2.6 1.5-3-.5-.5-1.1-.2-1.3.4-.3.7-1.3 1.3-2.4 1.3-1.6 0-1.9-.7-1.9-5.4 0-5.8 1.5-8 3.6-5.2 1.4 2 2.7.6 1.8-1.8-.9-2.2-4.7-2-6.2.4M739.7 882.6c-1.2 1.2.4 2.4 3.4 2.4 1.9 0 2.9-.5 2.9-1.5 0-1.5-5-2.2-6.3-.9M752 921.1c0 21.5-.1 23.3-2 25.6-1.2 1.6-1.8 3.4-1.4 4.7.3 1.4-.3 3.2-1.6 4.9-2.4 3.1-2 5.6 1 6.4 1.1.3 2 1.1 2 1.9 0 3.1 2.4 6.4 4.7 6.4 2.8 0 4.7-4.1 3.9-8.3-.5-2.3-.1-2.9 1.9-3.7 1.4-.5 3.2-.7 4-.4 2.7 1.1 1.6-2.5-1.5-4.8-1.7-1.2-2.9-2.7-2.7-3.3.7-1.7-1.3-4.5-3.9-5.5-2.4-1-2.4-1-2.4-24 0-14.7-.4-23-1-23s-1 8.4-1 23.1m4.9 25.8c.7.5 1 1.4.7 2-.9 1.4-5.3 1.5-6.1.1-1.5-2.5 2.4-4 5.4-2.1m1.1 5.3c0 .5-1.5.8-3.4.8s-3.7-.3-4-.8c-.2-.4 1.3-.7 3.5-.7 2.1 0 3.9.3 3.9.7m-.4 3.3c-2 1.5-3.6 1.9-3.6 1 0-.5 3.8-2.3 5-2.4.3 0-.4.6-1.4 1.4m1.1 2.6c-2.2 1.1-4.1 1.8-4.4 1.6-.6-.7 4.8-3.6 6.7-3.6.8 0-.2.9-2.3 2m-6.7-.1c0 .5-.4 1-.9 1-.6 0-1.3-.5-1.6-1-.3-.6.1-1 .9-1 .9 0 1.6.4 1.6 1m-1.5 2.1c.4.6.5 1.2.2 1.5-.7.7-3.7-.7-3.7-1.7 0-1.3 2.7-1.1 3.5.2m6.3 4.1q-.3 3.3-2.1 3.6c-2.5.5-3.2-2.5-1.2-4.8q3.9-4.35 3.3 1.2M608 940.5c-1.8 2.2-.4 6.5 2.1 6.5 1.2 0 1.9.5 1.6 1.2-.2.7-1.4 1.2-2.6 1.1-2.5-.3-2.7.9-.6 2.7 2.5 2.1 5.5-1.4 5.5-6.5 0-5.8-3.1-8.4-6-5m4 3.1c0 .8-.7 1.4-1.5 1.4-1.5 0-2.1-2.1-.9-3.3 1-.9 2.4.2 2.4 1.9M616.8 941.5c-1.2 2.7.2 5.5 2.8 5.5.8 0 1.4.7 1.4 1.6 0 1.2-.6 1.5-2.5 1-2.9-.7-3.2.1-.8 1.9 3.1 2.3 5.3.1 5.3-5.3 0-7-3.8-9.9-6.2-4.7m4.2 2.1c0 .8-.7 1.4-1.5 1.4-1.5 0-2.1-2.1-.9-3.3 1-.9 2.4.2 2.4 1.9M626.4 941.5c-.9 3.4.1 5.5 2.7 5.5 1.2 0 1.9.5 1.6 1.2-.2.7-1.4 1.2-2.6 1.1-2.5-.3-2.7.9-.5 2.8 1.4 1.1 1.9 1 3.5-1 2.1-2.6 2.4-5.7.9-9.5-1.3-3.4-4.7-3.5-5.6-.1m4 1.1c.9 2.2.8 2.4-.9 2.4-.8 0-1.5-.9-1.5-2 0-2.4 1.5-2.7 2.4-.4M645.2 941c-2.5 4.1-.8 11 2.8 11s5.1-5.6 2.8-10.5c-1.3-3-3.8-3.3-5.6-.5m4.1 2c.3 1.1.2 3.3-.2 4.8-.8 2.7-.8 2.7-2 .4-1.3-2.4-.8-7.2.8-7.2.5 0 1.1.9 1.4 2M664 941.4c-.5 1.5-.6 4.2-.2 6.4.7 3.1 1.2 3.7 3.2 3.7 2.4 0 2.5-.3 2.5-6 0-5.5-.2-6-2.2-6.3-1.7-.3-2.6.3-3.3 2.2m4 4.1c0 4.5-1.2 6-2.4 2.9-.8-2.1-.8-5.9.1-6.7 1.6-1.6 2.3-.4 2.3 3.8M673.7 939.7c-.4.3-.7 1.9-.7 3.5 0 2.3.4 2.8 2.6 2.8 1.9 0 2.5.4 2.2 1.7-.2 1.2-1.1 1.7-2.6 1.5-2.7-.4-2.9 1.4-.3 2.7 1.4.8 2.2.6 3.6-.8 2.2-2.6 1.6-6.3-1.5-7.8-2.5-1.3-2.5-1.3-.3-1.9 1.3-.4 2-1 1.7-1.5-.6-1.1-3.8-1.2-4.7-.2M683.2 940.2c-1.5 1.5-1.6 7.2-.2 9.9 1.4 2.6 4.7 2.4 5.6-.4 2.2-6.5-1.6-13.3-5.4-9.5m3.6 2.1c1.3 1.5.1 7.2-1.4 7.2-.5 0-1-1.9-1.2-4.3-.3-4.2.6-5.3 2.6-2.9M692.7 939.6c-.4.4-.7 1.7-.7 2.8.1 2 .2 2 1.4.3 1.7-2.2 2.6-2.2 2.6.3 0 1.1-.4 2-.9 2-.9 0-3.6 5.8-3 6.4 1.1 1 5.3 1 5.6-.1.2-.6-.6-1.3-1.7-1.5-2.2-.3-2.2-.3 0-3 2.6-3.4 2.3-7.2-.5-7.6-1.2-.2-2.4 0-2.8.4M637 941.1c-1.1.8-1.2 1.2-.2 1.6.7.3 1.2 2.3 1.2 4.9 0 2.4.5 4.4 1 4.4.6 0 1-2.7 1-6 0-6.1-.4-6.8-3-4.9M654.5 946c-.7 1.1 3.9 2.5 5.5 1.5.5-.3.8-1.1.5-1.6-.8-1.2-5.2-1.2-6 .1M598.7 947.5c-.9.8-2.1 4.1-2.7 7.3-.6 3.1-2.5 11.5-4.2 18.7-4.2 18-6.9 30.5-7.5 34-.3 1.6-1.5 3.9-2.8 5-1.3 1.2-2.6 3.7-3 6.1-.6 4-.5 4.2 2.9 5.8s3.8 1.6 7.2 0 3.5-1.9 2.9-5.3c-.9-4.6-1.2-5.1-3.5-5.1-1 0-2-.6-2.3-1.4-.6-1.6 1.8-14.2 6.8-35.1 2-8.3 4.3-18 5.2-21.8 1.4-6 1.8-6.7 4-6.7 1.5 0 2.3-.5 2.1-1.3-.7-1.8-3.4-2-5.1-.2m-13.3 67c.3.9-.1 1.8-1 2.2-1.9.7-2.8-.2-2.1-2.2.8-1.9 2.3-1.9 3.1 0m3.7 4.8c-1.3 1.3-2.6.3-1.6-1.2.3-.6 1.1-.8 1.7-.5.6.4.6 1-.1 1.7m-5.5 3.4c-.8.8-3.6-.5-3.6-1.7 0-.7.6-.7 2.1 0 1.1.7 1.8 1.4 1.5 1.7m5.9-.7c-.3.5-1.1 1-1.6 1-.6 0-.7-.5-.4-1 .3-.6 1.1-1 1.6-1 .6 0 .7.4.4 1M639.3 960.8l-10.3.3V985h88v-11.4c0-6.6-.4-11.7-1-12.1-1.1-.7-59.4-1.2-76.7-.7M714 973v10h-82v-20h82z"/><path d="M639.2 964.9c-2 1.3-1.2 8.7.9 8.3 1.9-.3 3.1 2.1 2.3 4.3-.7 1.8-2.1 2-2.7.2-.2-.6-.8-.9-1.2-.5-1.3 1.2.4 3.8 2.5 3.8 4.2 0 5-9.2.9-10.5-2.6-.8-2.4-3.5.2-3.5 1.2 0 1.9-.5 1.7-1.3-.6-1.5-2.9-2-4.6-.8M650 965.6c-1.8 2.1-2.3 9.5-.8 12.3 1.9 3.5 3.5 3.6 5.1.4 3.2-6.3-.6-17.3-4.3-12.7m3 6.9c0 3-.4 5.5-1 5.5-1.2 0-2.4-6.3-1.5-8.9 1.2-3.9 2.5-2.1 2.5 3.4M671 965.4c-.6.8-1 2.5-.7 3.8.4 2.3.4 2.3 1.2 0 .4-1.2 1.1-2.2 1.6-2.2 1.5 0 1 3.4-1.1 7.8-2.7 5.6-2.6 6.4 1.3 6 2.4-.2 3.3-.8 3.5-2.6.4-2.4-.7-2.9-2.6-1-1.6 1.6-1.5-.1.3-3.2s1.9-7.2.3-8.8-2.3-1.5-3.8.2M703.1 965c-3.1 1.9-2.9 11.6.3 14.8 1.2 1.3 1.8 1.3 3 .2.9-.7 1.6-2 1.6-2.9-.1-1.4-.2-1.4-1.4.1-.7 1-1.6 1.8-1.8 1.8-1.4 0-2.9-6.2-2.3-8.9.7-3.2 2.3-3.9 4.3-1.9.9.9 1.2.7 1.2-.9 0-2.2-2.9-3.6-4.9-2.3M681.1 966.3c-1.4 1.8-.2 3 1.6 1.6 1-.9 1.3-.7 1.3.9 0 1.1-.6 2.3-1.2 2.6-.9.3-.8.8.5 1.6 1.8 1.2 2.4 5 .7 5-.5 0-1.3-.7-1.8-1.6-.6-1.1-1.2-1.3-1.6-.6-.8 1.4 1.4 5.2 3 5.2 2.3 0 3.3-2.7 2.9-8-.2-3-.4-6.1-.5-6.8 0-1.6-3.5-1.5-4.9.1M691.7 966.3c-.8 2.1.3 2.9 2 1.6 1-.9 1.3-.7 1.3.9 0 1.1-.6 2.3-1.2 2.6-.9.3-.8.8.5 1.6.9.6 1.7 2 1.7 3 0 2.3-1 2.6-2.8.8-.6-.6-1.4-.9-1.8-.6-.9.9 1.5 4.8 3 4.8 1.9 0 4-4.5 3.1-6.7-.5-1-.9-3.4-.9-5.3-.1-2.8-.5-3.6-2.2-3.8-1.2-.2-2.4.3-2.7 1.1M659 973c0 .5 1.6 1 3.5 1s3.5-.5 3.5-1c0-.6-1.6-1-3.5-1s-3.5.4-3.5 1M754 976c0 1.6.5 3 1 3 .6 0 1-1.4 1-3 0-1.7-.4-3-1-3-.5 0-1 1.3-1 3M754 986c0 2.2.5 4 1 4 .6 0 1-1.8 1-4s-.4-4-1-4c-.5 0-1 1.8-1 4M514.5 987.6c-.5.1-18.2.4-39.2.6-21.1.3-38.4.6-38.6.9-.2.2-.1 6 .1 12.8l.4 12.4 43.1-.7c23.6-.4 43.3-.9 43.8-1.2.8-.5.5-23.1-.3-23.9-.6-.6-7.9-1.3-9.3-.9m-13.5 3.3c0 .5-.7 1.4-1.5 2.1-1.6 1.3-2.1 5-.6 5 .5 0 1.2-1 1.6-2.3.7-2 .8-1.9 1.2 1.1.3 2.2-.3 4.5-1.7 6.9q-3.45 6 2.1 5.1c1.8-.2 2.5-1 2.7-3.3.2-2.2 0-2.6-.7-1.5-1.5 2.2-2.7.2-1.3-2 1.5-2.4 1.6-8.6.2-9.5-2.8-1.7-.1-2.5 8.4-2.5h9.4l.4 9.2c.3 5.1.3 9.9 0 10.5-.3 1-9.4 1.3-40.8 1.3H440v-20h25.2c19.6 0 24.9.3 24 1.2-2 2-1.5 4 .8 3.3 2.4-.8 2.9 2.2.5 3.1-.8.4-1.5 1-1.5 1.5s.7.9 1.5.9c.9 0 1.5.9 1.5 2.5 0 1.4-.4 2.5-1 2.5-.5 0-1-.7-1-1.5s-.4-1.5-1-1.5c-1.5 0-1.2 3.6.5 5 1.2 1 1.8 1 3 0 2-1.6 1.8-13.5-.2-15.2-1.3-1-1.2-1.3.4-1.9 2.6-1.1 8.3-1.1 8.3 0"/><path d="M509.7 991.7c-.4.3-.7 4.4-.7 9 0 8.1.1 8.3 2.4 8.3 1.3 0 2.9-.6 3.5-1.3 1.4-1.8.8-13.1-.9-15.1-1.3-1.7-3.2-2.1-4.3-.9m3.8 4.6c0 2.6-2 2.5-2.3-.2-.3-1.6.1-2.2 1-1.9.7.3 1.3 1.2 1.3 2.1m.3 7.2c-.2 1.4-.7 2.6-1.3 2.6-.5 0-1.1-1.2-1.3-2.6-.2-1.8.1-2.5 1.3-2.5s1.5.7 1.3 2.5M446.7 992.7c-.4.3-.7 2.5-.7 4.9 0 3.7.2 4.2 2 3.7 1.6-.4 2 0 2 2 0 1.4-.4 2.9-1 3.2-.5.3-1 .1-1-.4 0-.6-.7-1.1-1.6-1.1-1.9 0-1.4 2 .8 3.4 2.6 1.6 5-1.1 4.6-5.3-.2-2.6-.9-3.9-2.5-4.6-2.8-1.2-3-3.5-.4-3.5s3.5-1.6 1.5-2.4-2.9-.8-3.7.1M457 993.9c-1.5 2.8-1.2 11.4.4 13.6 1.2 1.6 1.6 1.7 3 .6 1.2-1 1.6-3.1 1.6-7.7 0-5.3-.3-6.5-2-7.4-1.5-.8-2.1-.6-3 .9m3.4 2.7c1.3 3.4.3 9.4-1.5 9.4-.5 0-.9-2.5-.9-5.5 0-5.3 1.1-7.2 2.4-3.9M478 994.6c-2 5.2-.5 14.4 2.3 14.4 3.4 0 5-10.7 2.1-14.8-2-2.9-3.2-2.8-4.4.4m3.8 4.4c.4 4.2-.6 8.3-1.8 7.5-1.5-1-1.3-11.8.3-11.3.6.3 1.3 1.9 1.5 3.8M466.7 999.6c-1.5 1.6-.5 2.4 2.9 2.4 2.4 0 3.4-.4 3.2-1.3-.5-1.3-5-2.2-6.1-1.1M673.7 987.8c-.5.7-.6 4.4-.3 8.2.4 4.5.3 7.1-.4 7.5-.6.4-1.5 1.8-2.1 3.2-.7 1.9-.5 3.1 1 5.1 1 1.5 2.2 4.6 2.6 6.9.4 2.4 1.1 4.5 1.6 4.9.5.3 2.3-.6 4-2 3.2-2.7 4.9-3.2 6.5-1.7 1.6 1.6 8.4 5.1 9.8 5.1 1.7 0 4.6-3.2 4.6-5.2 0-.8-1.1-2.5-2.5-3.8-1.9-1.8-2.5-3.4-2.5-6.6 0-4.9-1.7-6-7.8-4.9-2.6.4-4.3.1-5.7-.9-1.1-.9-3-1.6-4.2-1.6-2.6 0-3.1-1.6-3.5-10-.2-3.4-.6-5-1.1-4.2m.1 18.8c-.7 1.5-1.4 2.1-1.6 1.5-.2-.7.2-1.8.8-2.6 1.8-2.2 2.1-1.8.8 1.1m7.2-1.6c0 .5-.6.7-1.4.4-1.8-.7-4.5 3.2-3.9 5.7.3 1 0 1.9-.6 1.9-1.8 0-1.2-4.5.9-6.8s5-3 5-1.2m-2 2.9c0 .6-.4 1.3-1 1.6-.5.3-1-.1-1-.9 0-.9.5-1.6 1-1.6.6 0 1 .4 1 .9m5 .6c-3.3 1.9-4.6 1.9-3 0 .7-.8 2.2-1.5 3.4-1.5 2 .1 2 .2-.4 1.5m10.8 1.8c.2 1.5-.1 2.7-.5 2.7-1.5 0-3.3-2.3-3.3-4.3 0-3 3.4-1.6 3.8 1.6m-4.8-1.3c0 .5-.7 1-1.6 1-.8 0-1.2-.5-.9-1 .3-.6 1-1 1.6-1 .5 0 .9.4.9 1m-6 2.9c-.5 1.1-1 2.9-1 4 0 3-1.7 2.6-2.4-.5-.4-1.5-.6-2.7-.4-2.9.5-.4 4.3-2.4 4.6-2.5.1 0-.2.9-.8 1.9m8.8 2.1c3.2 2 3.2 2.1 1.6 4.5-2 3-1.7 3-6.5.3-4.1-2.3-4.7-3.6-2.7-5.6 1.7-1.7 3.8-1.5 7.6.8m-13.6 5.9c-.4 1-.7 1-1.4-.4-.5-.9-.7-2.4-.3-3.3.6-1.5.8-1.5 1.5.3.4 1.1.5 2.6.2 3.4m18.4 0c1.8-1.4 3.2-.3 1.7 1.2-1.4 1.4-4.3.5-4.2-1.3q0-1.5.6 0c.4 1 .8 1 1.9.1M754 997.5c0 1.9.5 3.5 1 3.5.6 0 1-1.6 1-3.5s-.4-3.5-1-3.5c-.5 0-1 1.6-1 3.5M546.6 1001.5c-1.1 1.1-3.9 1.5-11 1.5-7.9 0-9.6.3-9.6 1.5s1.7 1.5 9.5 1.5c8.8 0 9.5.1 9.5 2 0 1-.9 2.4-2 3-3 1.6-2.4 5.1 1.4 8.7 5.4 5.3 10.4 4.1 14.5-3.5.9-1.7.6-2.4-1.4-4.4-1.4-1.2-2.5-3.4-2.5-4.8 0-5.6-5-8.8-8.4-5.5m5.9 7.4c0 4.3-.4 6.6-1.2 6.8-.7.3-1.6-.4-1.9-1.4s-1-2.6-1.5-3.5c-1.1-2.1-1.2-7.2-.2-8.2.4-.4 1.6-.6 2.8-.4 1.8.3 2 1 2 6.7m-6.5 5.1c0 3.9 7.3 4.7 8.5.9.7-2.1 2-2.5 3.1-.8 1.1 1.8-3.7 4.9-7.7 4.9s-7.5-2.9-6.6-5.5c.9-2.2 2.7-1.9 2.7.5M769.5 1003.9c-.6 1.1.9 2.3 1.9 1.4.9-.9.7-2.3-.3-2.3-.6 0-1.2.4-1.6.9M328 1041v24l43.8-.2 43.7-.3-.4-23c-.2-12.7-.5-23.3-.8-23.8-.2-.4-19.7-.7-43.4-.7H328zm84-18.3c0 2.1.3 12 .7 22l.5 18.3H330v-44h82z"/><path d="M336.6 1022.6c-.3.9-.6 2.9-.6 4.5 0 2.4.4 2.8 2.3 2.6 1.8-.2 2.3.4 2.5 2.7.3 2.6.1 2.8-2.2 2.2-2.8-.7-3.4.5-1.2 2.3 2.6 2.1 4.6.2 4.6-4.4 0-3.5-.4-4.5-2-5-1.1-.3-2-1.2-2-2 0-.7.9-1.5 2-1.8s2-1 2-1.6c0-1.7-4.7-1.3-5.4.5M348 1022.9c-1.5 2.9-1.2 11.4.5 13.7 1.5 1.9 1.5 1.9 3 0 2.7-3.5 1.5-15.6-1.5-15.6-.5 0-1.4.9-2 1.9m3.8 7c-.2 3.3-.7 4.6-1.8 4.6-1.7 0-2.5-5.2-1.5-9.2.5-2.1.8-2.3 2.1-1.2 1 .8 1.4 2.7 1.2 5.8M369.2 1022.2c-1.5 1.5-1.6 4.8-.2 4.8.6 0 1-.9 1-2s.5-2 1-2c1.6 0 1.1 5.4-.9 9.6-1.1 2.1-1.7 4.2-1.4 4.6.8 1.4 5.1.8 5.7-.8.9-2.4.8-2.6-1.5-1.9-1.8.6-2 .4-1.4-1.7.4-1.2 1.1-2.7 1.6-3.3 2-2.1.4-8.5-2.1-8.5-.3 0-1.1.5-1.8 1.2M379.2 1023c-1.4 2.3-.7 4.4 2.7 7.4 2.7 2.4 2.7 4.6.1 4.6-1.1 0-2-.5-2-1 0-.6-.4-1-1-1-1.8 0-1 2.9 1.1 4 1.6.9 2.5.8 4-.6 2.6-2.4 2.4-3.8-1.1-7.1-1.6-1.5-3-3.3-3-4 0-2.1 2.1-2.5 3.6-.7 1.4 1.8 1.4 1.8 1.2-.6-.4-3.2-3.8-3.8-5.6-1M391.2 1026.8c-2.7 5.7-2.7 6.2-.2 6.2 1.5 0 2 .7 2 2.6 0 1.6.5 2.4 1.2 2.2.7-.3 1.2-1.8 1.2-3.4-.1-8.6-.5-12.4-1.1-12.4-.5.1-1.8 2.2-3.1 4.8m1.8 3.4c0 1.6-.3 1.9-1.1 1.1-.6-.6-.8-1.6-.5-2.2 1.1-1.7 1.6-1.3 1.6 1.1M358 1030c0 .5 1.4 1 3 1 1.7 0 3-.5 3-1 0-.6-1.3-1-3-1-1.6 0-3 .4-3 1M337 1046.4c-1.2 3.3-.2 6.6 2.1 6.6 1.4 0 1.9.7 1.9 2.6 0 2.1-.4 2.5-2 2.1-2.3-.6-2.6.5-.6 2.2 2.3 1.9 4.3-1.8 3.8-7.1-.1-.9-1.1-2-2.2-2.3s-2-1.3-2-2.1.9-1.4 2-1.4 2-.7 2-1.5c0-2.5-4-1.8-5 .9M348 1046.6c-2.1 5.4-.6 13.4 2.4 13.4 1.8 0 2.6-2.2 2.6-7.6 0-7.5-3.1-11-5-5.8m4 5.3c0 5.1-1.5 7.5-3.1 5-1-1.6-1.2-8.3-.2-9.2.3-.4 1.2-.7 2-.7.9 0 1.3 1.5 1.3 4.9M368.9 1046.1c-.8 1.5-.8 2.4 0 3.2s1.1.6 1.1-.6c0-.9.5-1.7 1-1.7 1.6 0 1.2 4.3-.9 8.6-1.1 2.1-1.7 4.2-1.4 4.6.8 1.4 5.1.8 5.7-.8.9-2.4.8-2.6-1.5-1.9-1.8.6-2 .4-1.4-1.7.4-1.2 1.1-2.7 1.6-3.3 1.3-1.3 1.1-5.9-.3-7.3-1.7-1.7-2.6-1.5-3.9.9M379.6 1046.2c-1.7 2.4-.8 5 2.4 7.1 2.6 1.6 2.6 4.7 0 4.7-1.1 0-2-.5-2-1.1 0-.5-.4-.8-1-.4-1.4.8-.1 3.2 2 3.8 1.9.5 5-2 5-4.1 0-.6-1.3-2.5-3-4.2-3.5-3.6-3.8-5-1-5 1.1 0 2 .5 2 1.2 0 .9.3.9 1.3-.1s.8-1.5-.7-2.7c-2.6-1.9-3.2-1.8-5 .8M391.8 1049.1c-3.4 6.8-3.4 6.7-.5 7.1 1.4.2 2.2 1 2.2 2.3 0 2.5 1.9 1.7 2-.8.1-1.1-.1-4.7-.4-8l-.6-6.2zm2.2 3.3c0 1.7-1.4 2.9-2.3 2-.8-.8.3-3.4 1.4-3.4.5 0 .9.6.9 1.4M401 1052c-1.3 7.7-1.3 8-.2 8 .4-.1.6-1 .4-2.1-.4-2.3 2.6-3.8 3.9-1.8.5.8.6 2.2.3 3.1-.3 1-.1 1.8.4 1.8 1.7 0 2-1.1 1.1-4.3-.5-1.8-1.4-5.1-1.9-7.5-.6-2.3-1.5-4.2-1.9-4.2-.5 0-1.4 3.1-2.1 7m2.6.7c-1 1-1.9-.5-1-1.8.6-1.1.8-1.1 1.2 0 .2.7.1 1.5-.2 1.8M358 1053c0 .5 1.1 1 2.5 1s2.5-.5 2.5-1c0-.6-1.1-1-2.5-1s-2.5.4-2.5 1M446.7 1017.7c-.4.3-.7 3.5-.7 6.9 0 3.5-.4 6.6-1 6.9-.5.3-1 3.1-1 6.1 0 5.4-.1 5.5-2.7 5.4-8.4-.6-23.3.1-23.3 1 0 .7 4.6 1 13.3.9 13.3-.1 18.7 1 18.7 3.7 0 .7.9 1.6 2 1.9s3.3 2.6 5 5c1.6 2.4 6.8 7.8 11.5 12.1s9.1 8.9 9.8 10.3 1.8 3.5 2.4 4.6 1.7 3.5 2.3 5.2c1.2 3.2 1.5 3.3 6.6 3.3 2.9 0 5.5-.3 5.7-.8.3-.4-.1-2.1-.9-3.7-1.4-3-1.4-3-.9-.3.7 3.7-2.2 3.9-3.1.3-.3-1.4-1-2.5-1.4-2.5s-.5 1.1-.2 2.5c.3 2 0 2.5-1.7 2.5-2.4 0-4.2-3.1-2.2-3.8.9-.3.9-.7 0-1.8-1.6-2-.2-3.1 2.1-1.6 2.4 1.5 8 1.6 8 .2 0-.6-1.5-1-3.3-1-2.7 0-3.4-.5-4.6-3.3-2.3-5.2-7.3-11.6-10.8-13.8-2.7-1.7-3.6-3.4-5.9-10.5-2.3-7.2-3.3-8.9-6.2-10.9-1.8-1.3-4-3.2-4.7-4.2-1.7-2.5-3.2-17.3-1.8-17.3 1.8 0 3 2.4 3.8 7.4.7 4.8 3.3 10.5 6.1 13.3 4.3 4.3 13.1 17.6 17.7 26.6 6.1 12 5.6 11.2 6.3 10.5.7-.8-7-16-11.9-23.3-2.2-3.3-6.6-9.4-9.8-13.5-5-6.5-5.9-8.4-6.8-13.9-1.1-6.5-1.4-7-6.3-9.6-2.8-1.5-8.9-2-10.1-.8m7.7 1.9c1.7.7 2.1 2.9.7 3.8-.5.3-2.3.3-4 0-2.1-.5-3.1-1.2-3.1-2.5 0-2 3.1-2.6 6.4-1.3m-2.1 6.4c1.3.1-2.2 3-3.5 3-.4 0-.8-.9-.8-2.1 0-1.5.4-1.9 1.6-1.5.9.3 2.1.6 2.7.6m3.7 5.3c0 2.7-.7 3.7-4.7 6.4-4.7 3.1-4.8 3.1-5.5.9-1.2-4.1-.8-5.6 2.2-7.1 2.9-1.5 3-1.5 3 .6 0 2.9 2.5 1.8 2.6-1.2.2-3.7.3-4.1 1.4-3.4.6.3 1 2.1 1 3.8m2.8 7.7c1.1 1.8.8 2.3-2.8 4.6-3.6 2.4-4.3 2.5-7 1.4-1.6-.7-3-1.5-3-1.9 0-.7 9.1-6 10.5-6.1.6 0 1.6.9 2.3 2m5 5.6c-.2.9-1.9 2.6-3.9 3.7-2.8 1.6-4.2 1.9-5.9 1.1-2.2-1-2.1-1 1.6-3.6 4.5-3.1 8.7-3.7 8.2-1.2m3.6 3.2c.2.4.7 2.3 1.1 4.2.6 3.3.4 3.6-3 5.5-3.7 1.9-3.7 1.9-5.6-.5-2.7-3.6-2.3-5.5 1.4-7.9 3.4-2.2 5.3-2.6 6.1-1.3m3.6 12.3c.7 1.7 2.7 4 4.5 5.2 4.4 3 11.7 12.2 10.3 13.1-.2.1-1.1.7-2 1.4-1.4 1.2-2.1.7-4.8-3.5-1.8-2.6-5.9-6.8-9.1-9.3s-5.9-5-5.9-5.6c0-1.1 3.7-4.2 5.1-4.3.4-.1 1.2 1.3 1.9 3"/><path d="M464.4 1051.4c-.4 1-.2 2.2.4 2.8.8.8 1.3.7 1.8-.6.4-1 .2-2.2-.4-2.8-.8-.8-1.3-.7-1.8.6M703.9 1024.1c1.3 1.1 2.7 1.7 3 1.3.7-.7-2.8-3.4-4.3-3.4-.6.1 0 1 1.3 2.1M549 1027.4c0 1.4.5 2.8 1 3.1.6.4 1-.7 1-2.4s-.4-3.1-1-3.1c-.5 0-1 1.1-1 2.4M584.7 1027.7c-1.1 1-.8 6.1.3 6.8.6.4 1-1 1-3.4 0-4.2-.2-4.6-1.3-3.4M718 1028.5c0 .8.5 1.5 1 1.5.6 0 1-.7 1-1.5s-.4-1.5-1-1.5c-.5 0-1 .7-1 1.5M701.7 1034.7c-1.2 1.1-.8 2.3.8 2.3.8 0 1.5-.7 1.5-1.5 0-1.6-1.2-2-2.3-.8M728.5 1038c.3.5 1.3 1 2.1 1s1.2-.5.9-1c-.3-.6-1.3-1-2.1-1s-1.2.4-.9 1M584.7 1038.7c-1.1 1-.8 5.1.3 5.8.6.4 1-.8 1-2.9 0-3.7-.2-4.1-1.3-2.9M585.3 1052.7c.4.3 1 .3 1.4 0 .3-.4 0-.7-.7-.7s-1 .3-.7.7M550 1065c0 1.6.5 3 1 3 .6 0 1-1.4 1-3 0-1.7-.4-3-1-3-.5 0-1 1.3-1 3M550.7 1070.7c-1.1 1-.8 7.1.3 7.8.6.4 1-1.2 1-3.9 0-4.7-.2-5.1-1.3-3.9M437.9 1074.3c-6.5 3-8 7.9-3.4 11.6 2.6 2 2.6 2-2.2 10.5s-4.8 8.5-11.8 8.8c-8.4.4-9 2.2-.9 2.4 7.3.2 9.4-.4 10.5-3 .5-1.1 2.2-4.4 3.9-7.1 1.7-2.8 3.3-5.8 3.7-6.8.3-.9 1.5-1.7 2.7-1.7s3.2-.9 4.4-2c1.4-1.3 3.5-2 6-2 2.7 0 4.5-.7 5.8-2.1 2.8-3.1.8-5.3-5.1-5.7-2.9-.2-5.5-1-6.8-2.3-2.3-2.2-3.1-2.2-6.8-.6m5.8 2.4c.2.6-.5 1.4-1.6 1.8-2.7.8-2.7 4-.1 5.8 2.2 1.5 1.7 2.7-1.1 2.7-3.4 0-5.4-8.1-2.7-10.8 1.5-1.5 5-1.2 5.5.5m-7.7 3.8c0 .8-.7 1.5-1.5 1.5-1.6 0-2-1.2-.8-2.3 1.1-1.2 2.3-.8 2.3.8m9.6 2.2c-1.1 1.1-1.9-.6-1.1-2.4.8-1.7.8-1.7 1.2 0 .3 1 .2 2.1-.1 2.4m3.7-2.2c.4.8.2 1.7-.3 2-.6.4-1-.3-1-1.4 0-2.5.6-2.7 1.3-.6m2.7.7c0 1.8-.2 2-.9.8-.6-.8-.7-1.8-.5-2.2.9-1.4 1.4-.9 1.4 1.4m4-.2c0 1.1-.4 2-1 2-.5 0-1-.9-1-2s.5-2 1-2c.6 0 1 .9 1 2m-13.3 1.2c-.3.8-.6.5-.6-.6-.1-1.1.2-1.7.5-1.3.3.3.4 1.2.1 1.9M461 1081c0 .5 1.1 1 2.5 1s2.5-.5 2.5-1c0-.6-1.1-1-2.5-1s-2.5.4-2.5 1M471 1081c0 .5 1.1 1 2.5 1s2.5-.5 2.5-1c0-.6-1.1-1-2.5-1s-2.5.4-2.5 1M500 1082c0 .5 1.8 1 4.1 1 2.4 0 3.8-.4 3.4-1-.3-.6-2.2-1-4.1-1s-3.4.4-3.4 1M512 1083c0 .5 1.8 1 4 1s4-.5 4-1c0-.6-1.8-1-4-1s-4 .4-4 1M525 1082.9c0 .8 8 2.2 8.9 1.5.1-.1 0-.7-.4-1.3-.8-1.3-8.5-1.5-8.5-.2M538 1084c0 .5 2.3 1 5 1 2.8 0 5-.5 5-1 0-.6-2.2-1-5-1-2.7 0-5 .4-5 1M552 1083.9c0 .9 7 1.9 8.9 1.3.6-.2.9-.8.5-1.3-.7-1.2-9.4-1.2-9.4 0M551.3 1092.5c0 2.2.2 3 .4 1.7.2-1.2.2-3 0-4-.3-.9-.5.1-.4 2.3M334.3 1100.7c-2.2.8-1.5 3.2.7 2.6 2-.5 2.8 1.1 1 2.2-.6.4-.5 1.3.2 2.5 1.5 2.4.4 3.7-1.7 2-2-1.7-3.2-.5-1.5 1.5s4.8 1.9 5.3-.3c.4-1.4.3-5.8-.2-9.1-.1-1.2-2.3-1.9-3.8-1.4M362.2 1101.2c-1.3 1.3-1.6 7.5-.6 10.2.7 1.9 3.5 2.1 5.2.4 1.9-1.9 1.5-8.2-.6-10.1-2.2-2-2.5-2-4-.5m3.6 5.8c-.5 4.9-2.8 5.1-2.8.2 0-2.1.3-4.2.7-4.6 1.3-1.2 2.4 1.2 2.1 4.4M371.4 1101.5c-1.6 4.1-.3 11.5 2 11.5 1.9 0 3.8-2.6 3.4-4.7-.2-1-1.3-2.2-2.6-2.8-2.7-1.2-2.3-3.1.7-2.7 3 .3 2.2-2.2-.7-2.6-1.4-.2-2.5.3-2.8 1.3m4 6.3c.8 1.3-1.1 3.5-2.3 2.8-1.6-1-1.4-3.6.3-3.6.8 0 1.7.4 2 .8M390.5 1101.2c-1.4 4.2-.8 10.5 1.1 11.2 4.3 1.6 5.8-5.1 1.6-6.9-2.7-1.2-2.3-3.1.7-2.7 1.5.1 2.1-.3 1.9-1-.6-1.8-4.7-2.2-5.3-.6m3.5 7.8c0 1.1-.4 2-1 2-.5 0-1-.2-1-.4s-.3-1.1-.6-2c-.4-1.1-.1-1.6 1-1.6.9 0 1.6.8 1.6 2M400.7 1100.7c-.4.3-.7 3.3-.7 6.5 0 5.9 0 5.9 2.8 5.6 2.5-.3 2.7-.6 3-5.7.2-3.7-.1-5.7-1-6.2-1.6-1.1-3.2-1.1-4.1-.2m3.3 2.8c0 .8-.7 1.5-1.5 1.5-1.6 0-2-1.2-.8-2.3 1.1-1.2 2.3-.8 2.3.8m0 5.5c0 1.1-.7 2-1.5 2s-1.5-.9-1.5-2 .7-2 1.5-2 1.5.9 1.5 2M305.2 1102.2c-.7.7-1.2 1.8-1.2 2.6 0 1.6 2.4 4.2 4 4.2.6 0 1 .6.7 1.2-.2.7-1.4 1.2-2.6 1.1-2.4-.3-2.8 1.2-.5 2.1 2.1.8 2 .8 3.8-1s2.1-6.6.6-9.5c-1.2-2.2-3-2.5-4.8-.7m3.8 2.8c0 1.1-.7 2-1.5 2s-1.5-.9-1.5-2 .7-2 1.5-2 1.5.9 1.5 2M314.4 1102.3c-.3.8-.4 3.4-.2 5.8.3 3.9.6 4.4 2.8 4.4 2.4 0 2.5-.3 2.5-5.5 0-4.9-.2-5.5-2.3-5.8-1.2-.2-2.4.3-2.8 1.1m4.1 2.7c.8 2.6-.3 6.2-1.8 5.7-.7-.2-1.3-1.4-1.5-2.6-.7-4.5 2-7.1 3.3-3.1M323 1102c0 .5.9 1 2.1 1 1.6 0 1.9.4 1.4 1.7-1.2 2.7-1.9 8.9-.9 8 .7-.7 3.2-8.9 3.4-11 0-.4-1.3-.7-3-.7-1.6 0-3 .4-3 1M345.3 1102.3c-3.5 4.9-3.9 8.7-.7 8.7.8 0 1.4.4 1.4 1 0 .5.5 1 1 1 1.2 0 1.3-10.7.1-11.4-.5-.3-1.3 0-1.8.7m.3 6.4c-1 1-1.9-.5-1-1.8.6-1.1.8-1.1 1.2 0 .2.7.1 1.5-.2 1.8M381.4 1102.2c-.4.6-.2 1.4.4 1.6.7.2 1.2 2.3 1.2 4.8 0 2.8.4 4.3 1 3.9.8-.5.9-5.1.1-10.8-.2-1.1-1.9-.8-2.7.5M551.3 1105c0 2.5.2 3.5.4 2.2.2-1.2.2-3.2 0-4.5-.2-1.2-.4-.2-.4 2.3M353.3 1106.7c-2.4.9-1.3 2.3 1.8 2.3 2 0 2.9-.4 2.7-1.3-.5-1.3-2.6-1.8-4.5-1M586 1108.5c0 1.4.5 2.5 1 2.5.6 0 1-1.1 1-2.5s-.4-2.5-1-2.5c-.5 0-1 1.1-1 2.5M581.1 1112.2c.1.7.5 2.4.9 3.8.7 2.2.8 2.1.9-1.3.1-2-.3-3.7-.9-3.7-.5 0-1 .6-.9 1.2M551.3 1118c0 2.5.2 3.5.4 2.2.2-1.2.2-3.2 0-4.5-.2-1.2-.4-.2-.4 2.3M586 1116.4c0 1.4.5 2.8 1 3.1.6.4 1-.7 1-2.4s-.4-3.1-1-3.1c-.5 0-1 1.1-1 2.4M582 1123.4c0 .9.5 1.6 1 1.6.6 0 1-.4 1-.9 0-.6-.4-1.3-1-1.6-.5-.3-1 .1-1 .9M586.7 1123.7c-1.1 1-.8 5.1.3 5.8.6.4 1-.8 1-2.9 0-3.7-.2-4.1-1.3-2.9M621.7 1126.7c-4.4 2.3-5.8 5.2-4.9 10.3.7 4 1.1 4.5 3.2 4.3 5.3-.4 15.5-2.7 16.1-3.5.3-.5 5.1-1.2 10.5-1.4 15.9-.8 16.7-.9 17.2-2.2.3-.9-2.6-1.1-12.7-.6-11.1.6-13.4.5-14.9-.9-.9-.8-2.8-1.7-4.2-1.9-1.5-.2-3-1.4-3.8-3.1-1.5-3-2.4-3.2-6.5-1m0 6.5c-.3.8-.6.5-.6-.6-.1-1.1.2-1.7.5-1.3.3.3.4 1.2.1 1.9m5.9 1.3c-.1 4.1-1.6 4.8-1.6.7 0-2.4.7-4.2 1.5-4.2.1 0 .1 1.6.1 3.5m-3.1.4c0 1.6-.3 2.7-.7 2.4-.5-.2-.8-1.5-.8-2.9 0-1.3.3-2.4.8-2.4.4 0 .7 1.3.7 2.9m-5.4 4.4c-.8.8-1.1 0-1-2.9.1-3.9.1-3.9 1.1-1.1.7 2.1.7 3.2-.1 4m12.9-4.3c0 1.1-.6 2-1.4 2-1.8 0-2.9-1.6-2.1-3 1.1-1.8 3.5-1.1 3.5 1m-10.3 3.7c-.4.3-.7 0-.7-.7s.3-1 .7-.7c.3.4.3 1 0 1.4M677.6 1126.9c-2.2 2.5-1.7 5.3 1.2 6.6 2.7 1.2 2.3 3.1-.7 2.7-3-.3-2.2 2.2.7 2.6s4.7-3.5 3.8-8.1c-.9-4.8-2.8-6.2-5-3.8m2.9 2.9c0 1.8-2 1.5-2.3-.4-.3-1 .1-1.5 1-1.2.7.3 1.3 1 1.3 1.6M686.5 1127.3c-1.3 2-1.4 3-.5 4.6.6 1.2 1.7 2.1 2.5 2.1s1.5.7 1.5 1.6c0 1.1-.6 1.5-2 1.1-1.3-.3-2 0-2 .9 0 1.7 3.2 1.8 4.8.2 2-2 1.5-9.2-.7-11.2-1.9-1.7-2-1.7-3.6.7m3.5 2.7c0 2.1-1.5 2.7-2.5 1-.7-1.2.2-3 1.6-3 .5 0 .9.9.9 2M705.7 1126.8c-2.4 2.6-2 10 .6 11.6 4.1 2.5 6.5-7 2.9-11.4-1.7-2.1-1.8-2.1-3.5-.2m2.8 5.7c0 2.2-.5 4-1.2 4.2-.9.3-1.3-.9-1.3-4.2s.4-4.5 1.3-4.3c.7.3 1.2 2.1 1.2 4.3M551.3 1130c0 2.5.2 3.5.4 2.2.2-1.2.2-3.2 0-4.5-.2-1.2-.4-.2-.4 2.3M667.4 1128.7c-.6 2.1-.2 3.1 2.2 4.9 2.4 1.9 2.6 2.4 1.2 2.9-1 .4-2.2.3-2.9-.1s-1-.2-.7.7c.8 2.6 4.4 2.2 5.6-.6 1.7-3.8-.1-10.5-2.8-10.5-1.3 0-2.2.9-2.6 2.7m4.1 1.3c0 .7-.6 1.5-1.2 1.7-.8.3-1.3-.4-1.3-1.7s.5-2 1.3-1.8c.6.3 1.2 1.1 1.2 1.8M724.2 1127.2c-1.3 1.3-1.6 7.5-.6 10.2.8 2.2 4.1 2 5.4-.3 1.4-2.8 1.2-6.3-.6-8.9-1.7-2.5-2.5-2.7-4.2-1m3.6 5.7c.3 3.7.1 4.2-1.5 3.9-1.9-.3-3-4.6-1.9-7.5 1.1-2.8 3.1-.7 3.4 3.6M733.2 1127.2c-1.5 1.5-1.6 7.2-.2 9.9 1.5 2.8 4.8 2.4 5.6-.6.7-2.7-1-5.5-3.2-5.5-.8 0-1.4-.7-1.4-1.6 0-1.1.6-1.5 2-1.1 1.3.3 2 0 2-.9 0-1.7-3.2-1.8-4.8-.2m3.8 7.8c0 1.1-.7 2-1.5 2s-1.5-.9-1.5-2 .7-2 1.5-2 1.5.9 1.5 2M743.3 1126.7c-1.5.5-1.8 9-.4 11.1.5.8 1.7 1.2 2.7 1 1.5-.2 2-1.4 2.2-5.7.4-6.1-.9-7.9-4.5-6.4m3.2 5.9c0 2.8-.4 3.9-1.5 3.9-1.6 0-2.6-4.5-1.6-7.2 1.1-2.8 3.1-.7 3.1 3.3M752.7 1126.7c-1.4 1.3-.6 2.4 1.3 1.8 1.4-.4 2-.2 2 .9 0 .8-.4 1.8-1 2.1-.6.4-.5 1.3.2 2.5 1.5 2.4.4 3.7-1.7 2-1.2-1-1.5-1-1.5.4 0 2.2 2.6 3.1 4.4 1.7 1.5-1.2 1.6-8.7.2-11-.8-1.2-2.9-1.5-3.9-.4M696.4 1128.2c-.4.6-.2 1.4.4 1.6.7.2 1.2 2.3 1.2 4.8 0 3 .4 4.3 1.1 3.9.8-.6.8-6.5-.1-11.3-.1-.7-2 0-2.6 1M582 1130.2c0 2.3 2.6 4 5.2 3.6 2.2-.4 2.2-.5.3-1.3-1.1-.4-2.8-1.5-3.7-2.3-1.6-1.3-1.8-1.3-1.8 0M714.5 1133c-.3.4.7 1 2 1.3 1.4.2 2.8.1 3-.3.3-.4-.7-1-2-1.3-1.4-.2-2.8-.1-3 .3M592.5 1134c.3.5 1.9 1 3.6 1 1.6 0 2.9-.5 2.9-1 0-.6-1.6-1-3.6-1-2.1 0-3.3.4-2.9 1M603 1134c0 .5 1.6 1 3.5 1s3.5-.5 3.5-1c0-.6-1.6-1-3.5-1s-3.5.4-3.5 1M612 1134c0 .5.7 1 1.5 1s1.5-.5 1.5-1c0-.6-.7-1-1.5-1s-1.5.4-1.5 1M586.3 1137.6c-.3.8-.1 2 .6 2.7.8.8 1.1.4 1.1-1.6 0-3-.7-3.5-1.7-1.1M551.1 1140.2c-.1 2.1.4 3.8.9 3.8 1.1 0 1.1-1.4 0-5-.7-2.2-.8-2.1-.9 1.2M587.3 1148c0 2.5.2 3.5.4 2.2.2-1.2.2-3.2 0-4.5-.2-1.2-.4-.2-.4 2.3M550.4 1154.5c-.3 2.5-1.5 5.6-2.5 6.9-2.1 2.7-2.4 4.7-.9 6.2s0 2.5-11.9 7.2c-9 3.7-11.3 4.2-18.2 4.2-4.6 0-7.9.4-7.9 1s3.9 1 9.6 1c5.3 0 13.8.5 18.8 1 5 .6 12.7 1.5 17.1 2s12.7 1.4 18.5 2c5.8.7 10.9 1.6 11.5 2.1 1.3 1.3 7.1 1.1 8.2-.4.5-.6 1.4-2.4 2.1-4 1-2.4.9-3-1.2-4.8-1.3-1.1-2.6-3.7-3-5.7-.7-4.1-2.2-7-3.1-6-.4.4-1.1 2.6-1.6 5-.6 2.4-2 5.3-3.1 6.5-1.2 1.3-1.8 2.9-1.4 3.9.6 1.5-.2 1.6-8.1 1-4.9-.4-12.2-1.1-16.3-1.6s-11.3-1.2-16-1.6c-4.7-.3-8.9-.9-9.4-1.2-1.6-1 17.4-8.3 19.2-7.3 2.7 1.4 6.1-.5 7.9-4.5 1.7-3.5 1.7-3.6-.5-5.4-1.2-1-2.2-2.7-2.2-3.8 0-2.4-2.8-8.2-4-8.2-.5 0-1.2 2-1.6 4.5m2.3 1.2c-.4.3-.7 0-.7-.7s.3-1 .7-.7c.3.4.3 1 0 1.4m1.3 3.3c0 .5-.4 1-.9 1-.6 0-1.3-.5-1.6-1-.3-.6.1-1 .9-1 .9 0 1.6.4 1.6 1m0 3c0 .5-.4 1-1 1-.5 0-1-.5-1-1 0-.6.5-1 1-1 .6 0 1 .4 1 1m-3.7 3c.3 1.3 0 2-.9 2-.8 0-1.4-.9-1.4-2s.4-2 .9-2 1.1.9 1.4 2m7.7 0c0 1.4-.6 2-2.2 1.9-1.3 0-1.7-.3-1-.6.6-.2 1.2-1.1 1.2-1.9s.5-1.4 1-1.4c.6 0 1 .9 1 2m-4.3-.3c-.4.3-1 .3-1.4 0-.3-.4 0-.7.7-.7s1 .3.7.7m1.4 5.2c-1.2.8-5.1.4-5.1-.5 0-.2 1.5-.4 3.3-.4q3.3 0 1.8.9m32.9 1.6c0 .3-.2.5-.5.5s-.5-.2-.5-.5.2-.5.5-.5.5.2.5.5m.7 4.2c-.4.3-1 .3-1.4 0-.3-.4 0-.7.7-.7s1 .3.7.7m.3 2.3c0 .5-.4 1-1 1-.5 0-1-.5-1-1 0-.6.5-1 1-1 .6 0 1 .4 1 1m-.1 5c1.2 0 2.1-.6 2.1-1.6 0-1.7 2.1-1.5 2.7.3.6 1.7-6.5 3.5-8.8 2.2q-3-1.5-1.2-3.3c.4-.4 1.3 0 1.9.8.6.9 2.1 1.6 3.3 1.6m.1-1.5c0 .3-.2.5-.5.5s-.5-.2-.5-.5.2-.5.5-.5.5.2.5.5m1.3 5.2c-.7.2-2.1.2-3 0-1-.3-.4-.5 1.2-.5 1.7 0 2.4.2 1.8.5M587.3 1159c0 2.5.2 3.5.4 2.2.2-1.2.2-3.2 0-4.5-.2-1.2-.4-.2-.4 2.3M501.1 1174.9c-1.7 1.1-1.9 9.5-.2 11.5 1 1.2 1.8 1.3 3.3.5 2.6-1.4 2.1-6.1-1-7.4-2.7-1.2-2.3-3.1.7-2.7 1.5.1 2.1-.3 1.9-1-.6-1.6-2.9-2.1-4.7-.9m2.9 8.1c0 1.1-.4 2-.9 2-1.4 0-2.3-1.8-1.6-3 1-1.7 2.5-1.1 2.5 1M416 1177c-1.3 2.4.3 6 2.5 6 .8 0 1.5.6 1.5 1.3 0 2.1-1.2 2.8-2.7 1.6-1-.9-1.3-.8-1.3.5 0 1.9 3.1 2.1 4.8.4 1.6-1.6 1.6-9 0-10.6-1.8-1.8-3.6-1.5-4.8.8m4 2c0 1.1-.4 2-.9 2-1.4 0-2.3-1.8-1.6-3 1-1.7 2.5-1.1 2.5 1M425.7 1175.7c-.4.3-.7 2.8-.7 5.3 0 5 1.8 7.7 4.4 6.7 2-.8 3.1-7.3 1.7-10.3-1-2.3-4-3.2-5.4-1.7m4.1 5.5c-.4 5.1-3.1 6.1-3.6 1.5-.4-3.7.4-5.7 2.3-5.7 1.3 0 1.5.9 1.3 4.2M434.9 1175.7c-1.1 9.8.3 13.9 3.9 11.6 1.6-1 2.4-7.7 1.4-11.1-.4-1.3-5.1-1.7-5.3-.5m3.9 2.5c-.6 1.8-2.8 2.1-2.8.4 0-.9.7-1.6 1.6-1.6s1.4.5 1.2 1.2m-.3 5.8c0 .7-.6 1.5-1.2 1.7-.8.3-1.3-.4-1.3-1.7s.5-2 1.3-1.8c.6.3 1.2 1.1 1.2 1.8M444 1180.9c0 4.3.4 6 1.5 6.5 4.7 1.7 6.5-5.3 2-7.6-1.7-1-2.2-1.7-1.5-2.7.7-1.2 1.1-1.2 2.4-.2 1.3 1.1 1.6 1.1 1.6-.3 0-1.1-.9-1.6-3-1.6-3 0-3 0-3 5.9m4 3.2c0 2.1-1.6 2.6-2.3.6-.6-1.7.3-3.8 1.4-3.1.5.3.9 1.4.9 2.5M453.7 1175.7c-1.4 1.4-.6 2.4 1.4 1.8 1.9-.6 2.1-.4 1.6 1.6-.3 1.3-.1 2.9.5 3.6.8 1 .8 1.7 0 2.5-.9.9-1.6.7-2.7-.8-1.5-1.8-1.6-1.8-1.3 0 .4 2.8 3.6 4.5 4.8 2.6 1-1.5 1.1-7 .3-10.3-.4-1.7-3.3-2.3-4.6-1M472 1180.3c0 6.2 1.6 8.5 4.4 6.4 1.3-1 1.7-2.4 1.4-6.2-.3-4.6-.5-5-3-5.3-2.8-.3-2.8-.2-2.8 5.1m4 .8c0 2.8-.4 3.9-1.5 3.9s-1.5-1.1-1.5-3.8c0-2.1.3-4.2.6-4.5 1.4-1.3 2.4.6 2.4 4.4M481 1178.4c0 2.9.3 3.3 2 2.9 1.2-.3 2.2.1 2.6 1 .9 2.5-.4 3.9-2.7 2.7-2.2-1.2-2.6.2-.6 1.8 1 .9 1.9.7 3.6-.4 2.8-2 2.4-5.5-.6-6.9-2.6-1.1-3-2.5-.8-2.5.8 0 1.5-.5 1.5-1 0-.6-1.1-1-2.5-1-2.2 0-2.5.4-2.5 3.4M492 1176.5c-.9 1-.9 1.5-.1 1.5.6 0 1.1 1.7 1.1 3.9s.5 4.3 1 4.6c.6.4 1-1.7 1-5.4 0-6.2-.7-7.3-3-4.6M463.5 1182c-.4.6.5 1 1.9 1s2.6-.5 2.6-1c0-.6-.9-1-1.9-1-1.1 0-2.3.4-2.6 1"/></svg>