<svg xmlns="http://www.w3.org/2000/svg" viewBox="0 0 864 1214" fill="currentColor"><path d="M764 79.3c-9.4 4.2-27.2 13.4-34 17.6-4.5 2.8-8.3 5.1-8.5 5.1-.6 0-14.3 8.5-22.7 14.2-4.8 3.2-9.3 5.8-10.1 5.8-.7 0-4.6-1.1-8.5-2.5s-8.4-2.5-9.9-2.5c-5.2 0-17.3 8-30.8 20.2-3 2.7-3 2.7-4.3 0-4.9-9.5-8.6-11.6-11.9-6.5-2.1 3.2-2.4 12.3-.4 17 1.3 3.1 1.3 3.1-12.3 16.7-7.4 7.5-13.9 13.6-14.5 13.6-.5 0-4.6 2.2-9.1 5-4.5 2.7-8.4 5-8.6 5-.4 0-5.3 3.3-17.8 12-3.6 2.5-22.1 16.3-22.6 16.9-.3.3-4.3 4-9 8.1-15.7 13.9-24.2 22.9-39.8 42.6-3.6 4.6-8.1 14.4-9.2 20.3-1.5 7.8-1.2 20.6.6 28.1 1.7 7.5 7.3 19.6 13.4 29 2.4 3.6 4.5 6.7 4.9 7 .3.3 1.9 2.3 3.6 4.4 8.7 11.7 24.9 22.5 43.5 29 2.5.8 6.5 2.3 9 3.1 4.5 1.7 11.2 3.6 21 6 6.6 1.7 13.8 1.9 21.1.5 3-.6 14.3-1.2 25.3-1.5 17.4-.4 20.2-.7 22.9-2.4 3.1-1.9 3.1-1.9 6.6.7 2 1.5 3.8 2.9 4.1 3.2 1.2 1.4 8.1 4.9 13.4 6.9 10.1 3.7 16.4 2.6 26.7-4.9 6.4-4.6 12.7-12.1 17.2-20.2 2.7-4.9 7.7-18.7 7.7-21.3 0-1 1-1.5 2.9-1.5 2 0 4.7-1.7 9.7-6.1 6.7-5.9 13.6-10.8 31.2-21.7 4.5-2.9 11.7-7.4 16-10.1 4.2-2.7 13.7-8.5 20.9-13.1 7.3-4.5 13.6-8.7 13.9-9.2.4-.6.3-.9-.2-.6-2.7 1.5-19 11.3-19.4 11.8-.3.3-1.6 1.2-3 1.9-1.4.8-7.4 4.5-13.5 8.2-6 3.8-15.6 9.6-21.2 13-11.3 6.9-19.1 12.6-25.2 18.2-2.2 2-4.3 3.7-4.6 3.7-.4 0-.4-1.5-.1-3.3.6-3.2.6-3.2-.9-.2-.8 1.6-1.4 3.6-1.5 4.2 0 .7-1.1 1.3-2.4 1.3-2.4 0-2.4 0-1-4.7 1.7-5.6 1.8-17.7.2-22.4-1.4-4.2-4.6-8.9-6-8.9-.6 0-.4.8.4 1.7 3.2 3.6 4.8 8.4 5.4 15.6.5 5.1.3 7.6-.5 8.1-.7.5-1.1-.1-1.1-1.6-.1-4.4-3.7-10.3-9.9-16.1-3.4-3.1-6.6-5.7-7.2-5.7-2.3 0-.5-1.6 3.1-2.8 2.8-.9 4.6-.9 6-.2 1 .5 2.6.7 3.4.4 1.5-.6 5.9 1.6 8.1 4.1 2.6 2.8 3.7 6.3 4.2 13.1.3 4.1.8 7.4 1 7.4s3.2-2.4 6.6-5.3c8-6.7 9.6-7.8 18.9-13.5 4.3-2.6 17.8-11 30-18.6 12.3-7.6 24.2-15.1 26.5-16.5s4.2-2.9 4.3-3.3c0-.8-7 3.2-15.5 8.7-2.7 1.8-8.4 5.3-12.5 7.7-4.1 2.5-12.7 7.8-19 11.8-15.7 10-21.2 13.2-21.6 12.7-.2-.2.5-2.9 1.6-6.1 1.1-3.1 2.1-8.4 2.3-11.8.2-6.2.2-6.2 8.7-11.5 4.7-2.9 12.2-7.7 16.8-10.6 24.8-15.7 33-20.8 36-22.4 1.7-.9 3.2-2.1 3.2-2.5 0-.5-.6-.6-1.2-.2-1.3.8-22.3 13.7-40.8 25.2-5.8 3.6-13.1 8.3-16.3 10.4-3.9 2.7-5.9 3.5-6.1 2.6-.3-.7-.7-5.2-1-10-.4-5.7-1.6-11.6-3.6-17.5-1.6-4.8-3-10.4-3-12.4 0-3.1.4-3.9 2.8-4.8 8-3.2 22.5-10.7 33-17.3 2.6-1.6 3.1-1.7 2.6-.4-1.4 3.6 6.4 3.6 10.4 0 1.1-.9.7-1.3-2.1-1.8-5-.9-7.1-3.8-7.4-9.9-.4-8.5-1.8-18.6-2.7-19.4-.5-.4-.6 1.4-.2 4.2.3 2.7.9 8.4 1.3 12.5.3 4.1 1 8.3 1.4 9.2.7 1.3-.6 2.6-7.4 6.6-9.4 5.7-29.5 15.7-30.1 15.1-.2-.2 1.6-5.3 4-11.4 4.6-11.4 5.1-13 3.4-12-.5.3-1 .2-1-.4 0-.9.5-2.3 3.1-8.6.4-1.1 1.8-4.9 2.9-8.5 1.2-3.6 2.6-7.4 3.1-8.5.4-1.1 1.8-5.2 2.9-9 1.2-3.9 2.6-8 3.1-9.3 1.3-3.4 1-8.4-.6-10.6-5.1-6.7-90.3-51.6-97.9-51.6-.9 0-1.6-.5-1.6-1 0-1.9 8-1 14.7 1.6 14.4 5.6 51.9 23.9 58.5 28.5 1.4 1.1 2.8 1.9 3.1 1.9.8 0 27.6 16.5 29.7 18.3 2.3 1.9 2.7 6.2.7 7.4-3.1 1.9-6.1 8.4-12.7 27.4-3.8 11.2-6.7 20.5-6.5 20.7.3.3.7-.4 1.1-1.4.8-2.5 4.2-12 5.9-16.4.8-1.9 2.6-7.3 4-12 3.2-10.3 6.9-16.9 9.6-17 .7 0 2.6 7.9 3.4 14.4.4 2.7 1.1 5.8 1.6 7 .6 1.5.8.8.4-2.4-.9-6.7-3.5-22.1-4.3-25-.7-2.2-9.8-9.4-16.9-13.3-1.2-.7-8.5-4.9-16.4-9.5-11.1-6.4-36.4-19.5-48.8-25.2-.8-.3-1.6-1.1-1.8-1.6-.3-1 22.5-16.1 32.7-21.7 8.5-4.6 24.2-9.4 35.6-10.8 9.5-1.2 18.7-.3 28.3 2.6 2.5.7 7.1 2.1 10.1 3s7.4 2.5 9.7 3.6c5.5 2.5 8 2.4 3-.1-5.6-2.8-20.7-7.7-26.1-8.5-5.5-.9-5.1-1.8 2.3-5.9 5-2.7 5-2.7 12.8-.7 4.3 1 9.3 2.4 11.2 3 2.4.7 3.1.7 2.4 0-1.2-1.2-14.1-5-19.5-5.6-4-.5-4.9-1.7-2.2-2.7.9-.4 1.4-.9 1.1-1.2s-5.2 1.9-10.9 4.9c-9.5 5-11 5.4-19.3 6.1-4.9.4-12.8 1.8-17.4 3.2-4.7 1.3-8.6 2.2-8.8 2-.4-.4 11.3-6.6 23.2-12.3 5-2.4 8.3-4.3 7.5-4.2-.8 0-2.6.5-4 1.2m26 3.4c0 1-12.1 7.4-13.7 7.3-2.7 0-1-1.6 5-4.7 6.2-3.2 8.7-3.9 8.7-2.6m-119.5 43.7c6.8 2.6 40.3 18.8 44.5 21.6 1.4.9 5.7 3.4 9.5 5.4 16.6 8.9 30.8 17.2 34 19.9 3 2.4 3.5 3.4 3.5 7.2 0 2.3-1.1 7.6-2.4 11.6-1.3 4.1-3.6 11.2-5 15.9-1.5 4.7-3.1 9.4-3.6 10.5s-3.2 7.9-5.9 15.1c-2.8 7.1-6.4 15.1-8.1 17.7-3 4.7-3 4.7-9.8 4.7-24.1 0-67-13.4-97.2-30.3-15.3-8.5-27.1-21.4-33.2-36.5-1.8-4.2-1.8-4.2 1.9-8.5 6.2-7.1 31.4-31.9 39.3-38.7 4.1-3.6 8.2-7.2 9-8 4.2-4.2 12.4-9.1 16.7-10 .2 0 3.2 1.1 6.8 2.4m-39.2 7.3c4.3 6.8 4.3 7.5-1.3 12.2-3.3 2.8-5.2 3.8-5.4 2.9-2.3-7.2-2.6-11.5-1.1-15.1 2-4.9 4.7-4.9 7.8 0m-36.6 48c-.4.3-.7 0-.7-.7s.3-1 .7-.7c.3.4.3 1 0 1.4m-.7 1.8c0 .3-.2.5-.5.5s-.5-.2-.5-.5.2-.5.5-.5.5.2.5.5m-6 4.5c0 2.6-.7 3.3-5.2 5.6-6.3 3.2-15.7 9.2-25.3 16.4-3.8 2.8-8.3 6.1-10 7.3-17.6 13.1-56.1 49.2-57.3 54-.2.6 1.3-.6 3.4-2.8 10.9-11.7 16.8-17.5 18-17.5 3.2 0 22.4 9.2 22.4 10.8 0 1.5-23.9 27.9-25.4 28.1-.5.1-5.1-3-10.2-6.9-8.8-6.6-9.2-7.1-9-10.4.3-3 3.2-7.7 8.1-13.2.5-.7 2.6-3.1 4.5-5.5 4.9-6.1 19.1-20.3 28-28 4.1-3.5 7.7-6.6 8-6.9s2.5-2.1 5-4 4.7-3.7 5-4c1.9-2 28.2-20.1 34.4-23.7 5.3-2.9 5.6-2.9 5.6.7m4.4-.5c-.4.8-1.1 1.5-1.6 1.5-.6 0-.5-.6.2-1.5.7-.8 1.4-1.5 1.6-1.5s.1.7-.2 1.5m3.6 4c0 .5-.5.3-1-.5s-1-2-1-2.5c0-.6.5-.3 1 .5s1 1.9 1 2.5m-5.7 6.3c3.1.4 3.3.9 1.1 3.3-1.5 1.7-1.4 2.1 1.2 6.3 1.6 2.5 3.5 4.5 4.3 4.6.7 0 4.6 3.1 8.6 6.9 16.4 15.5 38 26.5 75 38 1.7.5 4.4 1.2 6.1 1.6 2 .4 3.4 1.4 3.7 2.5.7 2.8 5.4 3.6 9.1 1.6s6.9-1.2 6.1 1.4c-.4 1.3.1 1.9 2 2.4 1.4.4 3.1.4 3.7 0 .7-.4.8-.3.4.4-.3.6-7.5 5.7-15.9 11.3-12.8 8.7-30.9 21.6-36.7 26.2-.8.7-3.5 2.8-6 4.7s-5.8 4.7-7.5 6.2c-3.3 3.1-6 3.5-8.4 1.4-3.2-2.7-22-13.6-23.5-13.6-1.9 0-12.5 9.1-23.1 19.8-8.9 9.1-7.8 8.9-18.5 4-26.1-11.9-61-32.2-61-35.5 0-1.4 5.9-8.3 17.1-20 4.4-4.5 7.9-8.7 7.9-9.3 0-2.3-3-4.2-13.5-8.4-7.5-3.1-9.5-4.1-9.5-4.7 0-.3 3.3-3.5 7.3-7 3.9-3.5 7.4-6.6 7.7-6.9s3-2.5 6-5 5.7-4.7 6-5 3.4-2.7 7-5.4c3.6-2.6 7.6-5.6 9-6.6 12.3-9.2 16.7-12.3 17.9-12.8.8-.3 3.9-2.1 7-3.9 5.6-3.4 5.6-3.4 6.1-1.1.4 1.6 1.4 2.4 3.3 2.6m8.7-.8c1.1 2.1 2 4.3 2 4.7-.1 1-5-6.9-5-8 0-1.6 1.1-.5 3 3.3m34 32.5c0 .3-.2.5-.5.5s-.5-.2-.5-.5.2-.5.5-.5.5.2.5.5m114.9 11.2c-4 10.2-5.9 14-5.9 11.7 0-1 3.3-9.6 6.5-16.9.7-1.7 1.6-3.9 1.9-4.9.4-1 .9-1.6 1.2-1.3s-1.3 5.4-3.7 11.4M640.5 233c.3.5.2 1-.4 1-.5 0-1.3-.5-1.6-1-.3-.6-.2-1 .4-1 .5 0 1.3.4 1.6 1m147.9.6c2.2.9 1 2.4-2 2.4-2.3 0-3.1-1-1.7-2.3.8-.9 1.7-.9 3.7-.1M645 235.5c0 .3-.2.5-.5.5s-.5-.2-.5-.5.2-.5.5-.5.5.2.5.5m12 5c0 .3-.2.5-.5.5s-.5-.2-.5-.5.2-.5.5-.5.5.2.5.5m86 17.3c0 2.1 1.1 7 2.4 10.8 2.7 7.5 4.6 18.5 4.6 26.1 0 4.7-.1 4.9-4.4 7.1-2.4 1.3-5.2 3.1-6.3 4.1-1 .9-3.4 2.7-5.3 4.1-1.9 1.3-3.8 2.8-4.1 3.3-.4.6-2 .1-3.6-1.1-3-2.1-8.3-3.9-8.3-2.8 0 .3 1.8 1.3 3.9 2.2 3.9 1.5 5.8 3.8 4.1 4.9-.5.3-2.7-.4-5-1.6-9.9-5.2-27.1 1.4-40.6 15.7-4.8 5.1-7.8 9.4-12.8 18.6-2 3.7-4.5 7.2-5.5 7.8-1.1.5-7.2 2.8-13.7 5-13.5 4.5-12.3 4.8-18.8-4.8-2.6-3.8-6.3-7.4-11.8-11.4-1.6-1.2-.9-2.2 7.5-10.4 5-5 12.1-11.5 15.7-14.5s6.7-5.6 7-5.9 2.5-2.1 5-4 4.7-3.7 5-4 2.1-1.7 4-3c1.9-1.4 4.2-3 5-3.7 2.9-2.4 12.6-9.2 25.5-17.9 7.2-4.8 13.2-9 13.5-9.3.3-.4 3-2.4 6-4.6 5.5-3.9 7.6-4.3 14-3 2 .4 3.6-.3 7-3.2 4.2-3.7 4.3-3.8 1.9-4.4-2.3-.6-2.3-.7-.4-1.3 1.1-.4 2.7-1.1 3.5-1.6 3.5-2 5-1.2 5 2.8m-22.5 2.3c-.3.8-1.5 2-2.7 2.8-2 1.2-2 1.1.3-1.7 2.5-3.1 3.3-3.4 2.4-1.1m2.2-.4c-.4.3-.7 0-.7-.7s.3-1 .7-.7c.3.4.3 1 0 1.4m-7.7 4.7c0 .3-.5.8-1.2 1.2s-.8.3-.4-.4c.7-1.2 1.6-1.6 1.6-.8m-225.8 12.8c3 3 10.6 9 12.7 10.2.9.5 1.8 1.2 2.1 1.6.7 1 20.3 14 29.2 19.4 8.9 5.3 33.2 17.9 42.8 22 3.6 1.6 8.9 3.9 11.8 5.2s5.8 2.4 6.5 2.4 1.7.4 2.2.9c.6.4 3.3 1.6 6 2.6 14.8 5.3 23.2 11 26.8 18.1.9 1.7 2.3 3.6 3.1 4.3.9.8 1.6 1.7 1.6 2.1 0 .8-12.5 3.3-25.4 5.1-7.1 1-10.7 1-17.9 0-34.7-5-66.2-18.6-88.3-38.4-4.2-3.7-12.4-13.7-12.4-15.1 0-.3 1.1-.4 2.5 0 3 .8 6.5-1.9 6.5-4.9 0-1.1-2.5-4.7-5.6-8s-6.1-7.1-6.7-8.4c-.5-1.2-1.3-2.3-1.7-2.3-1.6 0-3.2-6.1-2.5-9.7.6-3.6 3.1-9.3 4-9.3.2 0 1.5 1 2.7 2.2m-4.8 18.3c1.5 2.4 5 7 7.9 10.1 6.1 6.6 6.3 7 4.7 8.9-3.1 3.8-8-.2-12.6-10.3-2.5-5.4-4.3-13.2-3.1-13.2.3 0 1.7 2 3.1 4.5m-.9 11.5c1.4 3.8 4.4 9.7 6.6 13 3.7 5.7 13.6 16.4 18.4 20 19.6 14.4 35.3 21.8 61 28.8 12.5 3.4 13.7 3.5 30.5 3.6 16 0 18.4-.2 28.5-2.8 11-2.8 27.4-8 30.8-9.8 1-.5 2-.8 2.2-.6.3.2-2.7 6.4-6.5 13.8-3.9 7.4-7 13.7-7 14s-1.1 1.3-2.4 2.2c-2 1.4-5.7 1.8-22.8 2.3-11.3.3-22.9 1-25.8 1.5-2.9.6-7.7 1-10.7 1-5 0-5.3-.1-4.8-2.3.6-2.6-4-8.9-5.2-7.1-.6.8-2.4.6-6.3-.6-3-1-8.6-2.7-12.5-3.9-8.7-2.7-8.8-2.7-21-8.5-10-4.8-22.2-12.4-24.7-15.3-.7-.9.9-.4 3.7 1.2 14.7 8.3 27.2 13.8 42 18.5 5.5 1.7 11.7 4.2 13.7 5.6 4 2.6 4.8 2.8 4.8 1.6 0-1.6-9.2-6.4-16.7-8.6-15.9-4.8-35.1-13.3-46.5-20.7-3.5-2.3-10.8-8.8-16.4-14.5-8.6-9-10.3-11.3-12.1-16.7-1.2-3.4-2.4-8.5-2.8-11.2-.3-2.8-.8-6.5-1.1-8.3-.8-5 .2-3.8 3.1 3.8m266.2 1.3c-.3 3.4-1.5 8.7-2.7 11.8-1.8 4.6-3.4 6.6-9.1 11.3-3.8 3.1-7.1 5.6-7.3 5.6s-.6-2.9-.8-6.5c-.3-3.6-1.3-7.7-2.3-9.1-1.7-2.6-1.6-2.7.6-4.9 3.8-3.7 19.3-14.5 20.8-14.5 1.1 0 1.3 1.3.8 6.3m-131.2-1.6c1.9.9 3.5 2 3.5 2.5 0 .4.6.8 1.3.9 1.3 0 15 9 15.1 9.9.1.3-5.4 5.8-12.1 12.4l-12.2 11.8-14.3-5.7c-7.9-3.1-14.7-6-15.1-6.4-1.1-1.1 26.1-27.1 28.3-27.1 1.1 0 3.5.8 5.5 1.7m86 13.9c2.7 2.3 2.8 2.5.8 2.1-6.3-1.4-19.4 6-27 15.2-6.6 7.9-6.9 8.1-4.2 3.3 4.3-7.9 21.1-22.9 25.9-23.1.8-.1 2.9 1.1 4.5 2.5m4.9 4.8c3.7 1.6 8 6.6 9.7 11.5 1.6 4.6.4 5-1.7.6-3.5-7.4-13.1-9.7-22.1-5.4C681 339 668 361.5 668 379.2c0 13.9 5.1 20.8 15.7 20.8 3.9.1 4.5.3 3 1.1-3 1.8-13.1 1.3-16.1-.7-7.6-4.9-10-21-5.4-35.9 3.9-12.8 14.9-28.8 23.5-34.3 9.1-5.9 14.9-7.2 20.7-4.8m-1.5 6.2c4.3.9 8.8 5.5 10.2 10.6.7 2.6.9 7.5.6 12.7-.6 7.4-1.2 9.6-5.3 17.9-8.1 16.2-19 25.2-30.5 25.2-6.1 0-8.5-1.5-11.6-7.3-2.1-3.9-2.3-17.1-.4-23.2 5.4-17.1 16.5-31 28-35.1 4.2-1.5 4.9-1.6 9-.8M510 356c4.2 4.1 10.7 9.3 14.6 11.6 11.8 6.9 21 10.5 50.9 19.8 2.2.7 4.1 2 4.3 2.9.3 1.4-.2 1.4-4.5.2-11.8-3.3-21.3-6.4-29.3-9.5-7.5-2.9-23.3-11-24.2-12.4-.6-.8-1.1-.7-1.7.4-.8 1.2-1.3 1.2-3-.4-1.1-1-1.8-2.2-1.6-2.6.3-.4-1.2-2.1-3.3-3.6-2-1.6-5.2-4.3-7-6.2-4.1-4-14.2-18-14.2-19.5 0-.7 2.6 1.7 5.7 5.3s9.1 9.9 13.3 14m162-9.5c0 .3-.2.5-.5.5s-.5-.2-.5-.5.2-.5.5-.5.5.2.5.5m-3 5c0 .3-.2.5-.5.5s-.5-.2-.5-.5.2-.5.5-.5.5.2.5.5m-1.9 4.2c-6 10.8-7.7 31.2-3.3 38.6 1.2 2.1 2.2 4 2.2 4.3 0 1-7.7-3.5-11-6.5-1.9-1.7-3.8-3.1-4.2-3.1-1.7 0-.6-3.4 4.1-12.3 2.7-5.1 6.5-12.5 8.5-16.6 2.1-4 4-7.1 4.2-6.8.3.3.1 1.3-.5 2.4M524 372.5c0 .3-.2.5-.5.5s-.5-.2-.5-.5.2-.5.5-.5.5.2.5.5m13 6.5c.8.5 1.1 1 .5 1-.5 0-1.7-.5-2.5-1s-1-1-.5-1c.6 0 1.7.5 2.5 1m5 2c1.3.8 1.3 1-.2 1-.9 0-2-.5-2.3-1-.8-1.3.5-1.3 2.5 0m5 2.5c0 .3-.2.5-.5.5s-.5-.2-.5-.5.2-.5.5-.5.5.2.5.5m3.7 1.2c-.4.3-1 .3-1.4 0-.3-.4 0-.7.7-.7s1 .3.7.7m6.3 1.8c0 .3-.2.5-.5.5s-.5-.2-.5-.5.2-.5.5-.5.5.2.5.5"/><path d="M725 278.2c-3.6 2.2-8.1 4.9-10 6s-4.6 2.8-6 3.8-7.1 4.5-12.6 7.8c-13.7 8.1-26.5 16.4-57.3 37.2-10.4 7-11.5 7.9-10.9 8.5.3.3 3.2-1.2 6.4-3.5 6.9-4.7 8-5.5 11.5-7.8 1.5-.9 8.4-5.6 15.5-10.3s15.6-10.3 18.9-12.4 8.3-5.3 11-7c2.8-1.8 8.4-5.3 12.5-7.7 11.7-7.1 29.5-18 29.9-18.4.2-.2-.2-.4-1-.3-.8 0-4.3 1.8-7.9 4.1M569.7 353.8c-1 1-1.7 3-1.7 4.5 0 3.4 2.8 4.8 15 7.7 5.2 1.2 10.6 2.6 12 3.1 3.3 1.2 8.3 1.5 9.8.5 2.5-1.5 1.3-5.3-2-6.9-3.1-1.4-30-10.7-31-10.7-.3 0-1.2.8-2.1 1.8m19.8 5.9c7.2 2.5 13.6 5 14.2 5.5 3.4 2.7-2.3 3.6-10.5 1.7-7-1.7-18.3-4.9-21.4-6.1-4.8-1.8-2.8-7.5 2.2-6.3 1.4.3 8.4 2.6 15.5 5.2M633 370.3c-7.9 2-8.5 2.4-8.8 4.9s0 2.8 2.8 2.8c1.7 0 5-.4 7.3-.9 2.3-.6 5.4-1.2 6.9-1.6 3.4-.7 5.5-4 3.7-6.1-1.4-1.7-1.4-1.7-11.9.9m11 .6c0 1.6-2.5 2.9-7.8 4-7 1.5-10.5 1.4-10-.1.3-.7 3.6-2 7.4-2.9 8.2-2 10.4-2.2 10.4-1M607.3 382.7c-7.1.2-11.3.8-11.3 1.4 0 .7 6 1 18.5.7 11.7-.2 18.4-.7 18.2-1.3-.4-1.1-7.8-1.3-25.4-.8M692.9 340.9c-10.6 6.7-19 22-19.2 35.1-.2 14.6 9.1 20.3 20.8 12.9s19.5-21.4 19.6-35.1c0-6.9-.9-9.7-4.4-13.6-3.1-3.4-10.9-3.1-16.8.7m16.8 2c8.7 10.1-1.5 37.3-16.8 45.1-15.6 8-23.1-7.7-13.5-28.4 3.8-8.2 7.2-12.5 13-16.5 6.8-4.7 13.5-4.8 17.3-.2M807.7 210c-6.3 4.8-6.7 4.9-11.6 4.3-3.7-.4-6-.1-8.6 1.2-2 .9-3.4 1.9-3.2 2.2.3.2 1.4 0 2.5-.6 3.5-1.9 14.1-1.3 18.7.9 4.4 2.1 7 6 6 9-.6 2-5.8 4.3-11.7 5.4-2.1.4-3.8 1.2-3.8 1.9 0 1.2-3.3 3.4-33 21.5-8.5 5.2-14.4 9.1-13 8.7 1.4-.5 5.9-2.8 10-5.3 9.1-5.4 25.1-15.4 26.5-16.5 4.2-3.2 13.9-8.6 17.9-10 5.4-1.8 8.6-4.2 8.6-6.4 0-.7.7-1.6 1.5-1.9.8-.4 1.5-1.1 1.5-1.7 0-.8-.3-.8-1.1 0-.9.9-2 .2-4.5-2.4-1.9-2-3.4-3.7-3.4-3.9s2.1-1.7 4.6-3.4c2.5-1.8 4.3-3.4 4.1-3.7-.3-.2-2.8 1.2-5.6 3.2-6.6 4.8-9 4-2.5-.8 8.3-6.3 8.8-6.7 7.8-6.7-.6 0-4.1 2.2-7.7 5M496 389.2c0 .9.4 1.9.9 2.2 1.8 1.1 2.2 7.4.7 11.7-1.8 5.1-1.6 5.6 1 2.8 2.9-3.2 2.7-13.1-.3-16.1-1.9-1.9-2.3-2-2.3-.6M440 392.2c-1.1 1.8-2 4.6-2 6.3 0 3.2 3.3 9.5 5 9.5.5 0 1-.5 1-1 0-.6-.4-1-.8-1-.5 0-1.4-1.7-2-3.8-1.2-4-.4-9.1 1.9-11.8.8-1 .8-1.4 0-1.4-.6 0-2 1.5-3.1 3.2M455.5 391c-.4.6.6 1 2.3 1 4.1 0 4.3.6 2.1 5.7-2 4.7-2.5 8.3-1.1 8.3.7 0 5.2-12.9 5.2-15 0-1.3-7.7-1.3-8.5 0M466.2 391.2c-1.6 1.6-1.5 2.8.3 2.8.8 0 1.5-.5 1.5-1 0-1.4 2.7-1.3 3.6.2.4.7-.2 1.8-1.4 2.6-2.2 1.4-2.2 1.4 0 3.2 2 1.6 2.1 2 .8 3.5s-1.5 1.5-3.1-.7c-2-2.6-3.1-2.2-2.2 1 .8 3.3 5.2 4.1 7.4 1.3 1.4-1.7 1.6-2.8.8-4.8-.5-1.4-.7-3.4-.3-4.5 1.2-3.8-4.4-6.6-7.4-3.6"/><path d="M475.6 391.6c-.3.9-.6 2.3-.6 3.2.1 1.4.4 1.3 1.9-.6 1.1-1.2 2.4-2.2 3-2.2 2.1 0 1.1 3.7-1.9 7.1-4 4.6-3.6 6.3 1.8 6.7 3.3.2 4.2 0 4.2-1.2 0-1.1-1-1.6-3.1-1.6h-3.1l3.1-3.5c3.3-3.8 3.9-6.3 1.9-8.3-1.7-1.7-6.5-1.5-7.2.4"/><path d="M487.2 394.9c-3.9 6-4 7.1-.6 7.1 1.5 0 3.3.8 4 1.7 2 2.8 2.8.8 2.6-5.9-.4-9.5-1.3-10-6-2.9m2.4 3.8c-1 1-1.9-.5-1-1.8.6-1.1.8-1.1 1.2 0 .2.7.1 1.5-.2 1.8M446 398.5c0 1.3.9 1.6 4.3 1.3 2.3-.2 4.2-.8 4.2-1.3 0-.6-1.9-1.1-4.2-1.3-3.4-.3-4.3 0-4.3 1.3M464.7 411.1c-13.9.3-27.4.7-30 .8l-4.8.1.3 10.7.3 10.8h15c24.5-.1 57.7-.7 61.8-1.2 3.7-.5 3.7-.5 3.7-10.3 0-7.2-.4-10.1-1.4-10.9-.9-.8-4.6-1.1-10.6-.9-5 .2-20.5.6-34.3.9m44.1 10.1.3 8.6-21.3.6c-11.7.4-28.9.8-38.3.9l-17 .2-.3-8.8-.3-8.7h10.8c16.9 0 62.8-1.2 63.2-1.7 1.7-1.4 2.6 1.4 2.9 8.9"/><path d="M473.7 414.8c-2.8.3-2.8.4-2.5 7 .3 6.7.3 6.7 4.1 6.6 4.6-.2 7.3-2.4 6.2-5.1-.5-1-.9-2.9-.9-4.2-.1-2.9-3.2-4.8-6.9-4.3m4.3 3.7c0 .9-.9 1.5-2.5 1.5-2.4 0-3.2-1-1.8-2.3 1.2-1.3 4.3-.7 4.3.8m1 6c0 .9-.9 1.5-2.5 1.5s-2.5-.6-2.5-1.5.9-1.5 2.5-1.5 2.5.6 2.5 1.5M446.6 416.5c-5.3 5.4-1 16.9 4.5 11.9 2.8-2.5 2.3-10.1-.7-12.1-1.9-1.2-2.4-1.2-3.8.2m4 3.9c1.3 5.2-1.4 8.7-3.6 4.6-1.4-2.7-.5-7 1.5-7 .8 0 1.7 1.1 2.1 2.4M462.6 416.6c-2.4 2.3-2.9 5.9-1.4 9.1 1.6 3.4 5.4 3.8 7.4.8 1.2-1.8 1.1-2.4-.2-4.3-.8-1.2-2.4-2.2-3.5-2.2-1 0-1.9-.5-1.9-1.1 0-.7 1.1-.9 3-.6 3.4.7 4-.7 1.1-2.3-2.5-1.3-2.7-1.3-4.5.6m4.1 7c.8 2.1-1.3 4.2-2.8 2.7-1.3-1.3-.5-4.3 1.1-4.3.6 0 1.3.7 1.7 1.6M484.2 416.2c-1.4 1.4-1.6 3.8-.2 3.8.5 0 1.3-.8 1.9-1.8.8-1.3 1.2-1.4 2.2-.5 1 1 .9 1.6-.6 2.7-1.8 1.3-1.8 1.4.3 2 3 1 2.8 3.6-.3 3.6-1.4 0-2.5-.5-2.5-1 0-.6-.5-1-1.1-1-1.8 0-.5 3.2 1.6 4 1.1.4 3 .4 4.3-.1 2.1-.8 2.2-1.3 1.8-6-.3-2.9-1.1-5.6-1.8-6-1.9-1.2-4.2-1.1-5.6.3M435.5 417.5c-.3.8-.7 2.2-1 3.1-.8 2.5.4 3.5 2.6 2.1 1.6-1 2.1-.9 2.8.2 1.6 2.5.1 4.3-3 3.6-3.6-.8-3.8.7-.4 2.5 2.2 1.2 2.7 1.1 4.5-.5 1.1-1 2-2.6 2-3.5 0-1.9-3-5-4.9-5-.7 0-.9-.5-.6-1 .3-.6 1.5-1 2.6-1 1 0 1.9-.5 1.9-1 0-1.6-6-1.2-6.5.5M454.5 423c-.8 1.2 2 2.4 3.5 1.5.5-.3 1-1 1-1.6 0-1.2-3.7-1.2-4.5.1M470.1 453.5c.1 10.7 0 19.6-.2 19.8l-4.4 2.2c-4.7 2.4-5.3 4.7-2.5 9.3 2 3.2 2.2 3.3 4.3 1.9s6-2.5 11.7-3.4c3.8-.6 15.3-.8 16.9-.3.9.3 1.8-.5 2.5-2.2.8-2.3.6-3.2-1.4-5.3-3.4-3.6-8.2-4.9-16.5-4.2l-7.2.7-.7-7.7c-.3-4.2-.6-12.7-.6-19 0-7.2-.4-11.3-1.1-11.3s-.9 6.4-.8 19.5m14.2 21.5c.6 2.2-.8 2.8-1.6.7-.3-.8-.9-.7-1.9.7-1.6 2.1-5.3 1.8-5.3-.4 0-.9 1.3-1.7 3.5-2.1 1.9-.4 3.8-.7 4.1-.8.4 0 .9.8 1.2 1.9m-10.3.2c0 2.4-1.7 3.9-4.6 4.2-1.7.2-3 1-3.2 2-.5 2.2-1.9 2-2.5-.5-.3-1.3-.1-1.9.6-1.6.7.2 1.7-.2 2.4-.9s2.2-1 3.3-.7 2 0 2-.6-.6-1.1-1.2-1.1c-.9 0-.8-.4.2-1 2-1.3 3-1.2 3 .2m16-.1c0 .6.7.9 1.5.6 1.7-.7 3 .9 1.5 1.8-.6.4-1.7.2-2.4-.4-.8-.7-1.9-1-2.6-.9-.7.2-1.5-.3-1.7-1-.3-.7.4-1.2 1.6-1.2s2.1.5 2.1 1.1M565.4 460.3c-.2.7-.3 6.5-.2 12.8l.3 11.4h88v-25l-43.8-.3c-35.5-.2-43.9 0-44.3 1.1m85.4 11.5.3 10.2-30.8.2c-16.9 0-35.1.2-40.3.2-5.2.1-10.1 0-10.7-.2-.9-.3-1.3-3.3-1.3-10.3V462l40.3-.2c22.1-.2 40.7-.3 41.2-.2.6 0 1.1 4.4 1.3 10.2"/><path d="M575.7 463.6c-.4.4-.7 2.6-.7 5 0 3.7.2 4.2 2 3.7 1.6-.4 2 0 2 2 0 2.8-1.5 4.4-2.5 2.7-.9-1.5-2.5-.2-1.8 1.5.9 2.5 4.8 1.8 6.1-1 1.4-3.1-.1-7.2-3-8.1-2.5-.7-1.8-2.8 1.1-3.2 1.2-.2 2-.9 1.8-1.5-.4-1.4-3.9-2.1-5-1.1M587.1 463.9c-1.8 1.1-2.6 9.8-1.2 13.3 2.3 6 6.1 2.2 6.1-6 0-5.3-2.4-8.8-4.9-7.3m2.9 8.1c0 4.9-1.3 7.3-2.4 4.4-.8-2.1-.8-8.9 0-9.7 1.5-1.4 2.4.7 2.4 5.3M608 464.5c-1.7 2.1-2.4 9.5-1.1 12.7 1.3 3.4 4.4 3.7 5.7.5 1.5-3.3.5-6.7-2.2-7.9-2.6-1.2-3-2.3-1.3-3.4.6-.3 1.5-.1 1.9.6.6.9.9.9 1.5.1.7-1.2-1.1-4.1-2.5-4.1-.4 0-1.3.7-2 1.5m3 10.1c0 3.1-2.3 2.8-2.8-.4-.2-1.5.2-2.2 1.2-2.2 1.1 0 1.6.9 1.6 2.6M617.4 471.5c.1 8.5.1 8.5 2.9 8.5 3.3 0 5.5-3.6 3.9-6.6-.6-1.1-.8-3.2-.5-4.7.6-3.3-1.1-5.7-4.2-5.7-2.2 0-2.3.3-2.1 8.5m4.6-3.5c0 1.1-.4 2-1 2-.5 0-1-.9-1-2s.5-2 1-2c.6 0 1 .9 1 2m0 7.6c0 1.3-.4 2.4-1 2.4-.5 0-1-1.4-1-3.1s.4-2.8 1-2.4c.6.3 1 1.7 1 3.1M630 463.7c-.7 14.8-.5 16.3 1.8 16.3 2.2 0 2.8-1 1.5-2.4-.9-.9-.9-1.3-1.1-8.9-.1-3.1-.6-5.7-1.2-5.7-.5 0-1 .3-1 .7M638.5 471.5c0 8.5 0 8.5 2.6 8.5 3.6 0 5.3-2.3 4.4-5.7-.5-1.6-.7-4.1-.6-5.6.3-3.4-1.4-5.7-4.3-5.7-2 0-2.1.5-2.1 8.5m4.5-3.4c0 1-.4 1.9-1 1.9-.5 0-1-1.2-1-2.6s.4-2.3 1-1.9c.6.3 1 1.5 1 2.6m.7 8.3c-1.1 2.7-2.7 1.7-2.7-1.6 0-3 .1-3.1 1.6-1.6.9.9 1.4 2.4 1.1 3.2M596.2 472.2c.5 1.5 5.7 1.8 6.1.3.1-.6-1.3-1.1-3.2-1.3-2.4-.3-3.2 0-2.9 1M506.6 475.7c-.3.4-.6 1.3-.6 2.1 0 .7-.9 2.1-2.1 3.1-2 1.6-2 1.7-.2 3.3 1 .9 20.5 11 43.3 22.6 54.9 27.7 80.7 41.4 116.5 62 11 6.3 23.6 13.5 28 16 4.4 2.4 11.2 6.3 15 8.5 14.6 8.6 14.7 8.7 17.7 7.1 2.2-1.1 2.8-2.2 2.8-4.7 0-3.4-1-4.1-15.5-12.3-1.1-.6-3.8-2.1-6-3.4-2.2-1.2-6-3.4-8.5-4.8s-10.6-6-18-10.2c-18.4-10.5-29.2-16.5-44.5-24.5-7.1-3.8-15.2-8.1-18-9.6l-5-2.8-.5-20c-.3-11.3-.9-20-1.4-19.9-.5.2-.8 8.5-.7 19 .2 15 0 18.8-1.1 18.8-.7 0-5.8-2.5-11.3-5.5-19.2-10.5-89.3-45.4-89.9-44.8m44.1 23.3c22.9 11.6 42.1 21.4 42.7 21.9s7.4 4 15.1 7.9c11.9 6 43 22.7 56.9 30.6 18.1 10.3 30.5 17.2 32.3 18 1.3.6 2.3 1.4 2.3 1.8 0 .5.4.8.9.8 1.2 0 22.2 11.9 24.1 13.6 1 1 1.1 1.7.3 2.5-.9.9-2 .6-4.5-.8-3.3-2.1-8.5-5-18.8-10.6-3-1.7-6.7-3.8-8.2-4.9-1.4-1-2.8-1.8-3.1-1.8s-6.1-3.2-12.9-7.1c-6.7-4-14.8-8.5-17.8-10.2-3-1.6-6.7-3.8-8.2-4.9-1.4-1-2.9-1.8-3.2-1.8s-2.8-1.4-5.7-3c-2.8-1.7-9.5-5.4-14.8-8.2s-12.1-6.4-15.1-8.1c-3-1.6-9.1-4.9-13.5-7.2s-11.6-6.1-16-8.5c-13.8-7.4-41.3-21.6-58.7-30.2-9.2-4.6-16.8-8.9-16.8-9.6 0-.6.2-1.2.5-1.2s19.3 9.5 42.2 21m-19.4-4.9c13.3 6.7 27.4 13.9 31.2 15.9 3.9 2 13.3 7 21 11s16.5 8.6 19.5 10.3c3 1.6 8.9 4.8 13 7s10.9 5.9 15 8.2 9.8 5.5 12.5 7c11.8 6.6 18.6 10.5 27.5 15.7 10.1 5.9 16.1 9.3 25 14.1 3 1.6 8 4.4 11 6.2s7.9 4.5 10.8 6c2.8 1.6 5.2 3.2 5.2 3.8 0 1.4-1.1.8-19.6-9.9-9.3-5.3-18.7-10.7-20.9-11.8-2.2-1.2-4.2-2.4-4.5-2.7-.5-.5-18.9-11.1-29.5-16.9-3.3-1.8-8-4.4-10.5-5.8-7-3.9-13.5-7.4-26-13.9-6.3-3.4-15.3-8.1-20-10.5-4.7-2.5-13.4-7.1-19.5-10.3-6-3.2-22.9-11.8-37.5-19.1s-27.4-14-28.5-14.8c-5.2-3.9 2.5-.7 24.8 10.5M475.7 486c-4.6 1.8-18.4 12-36.2 26.9-9.2 7.8-12.3 10.5-21 18.5l-5 4.5-23.2.1c-14.9 0-23.3.4-23.3 1 0 .5.1 1 .3 1 .1 0 9.4.3 20.7.6 11.3.4 20.6.8 20.8.9.1.1-5.8 6.2-13.1 13.6S378.6 570.8 374 576c-4.7 5.2-8.7 9.7-9 10-3 2.9-6 7.6-6 9.5 0 3 4.5 6.1 6.5 4.5.8-.7 1.8-.9 2.3-.6 1.1.7 18.7-18.2 17.8-19.1-.6-.6-5.8 4.7-12.3 12.4-1.9 2.4-4 4.3-4.5 4.3-.6 0 2.7-4.1 7.3-9.2 10.3-11.2 29.9-31.2 27.3-27.8-1 1.4-2.1 2.7-2.4 3-7.5 7.5-15.2 16.1-14.8 16.6.3.3 8.6-7.5 18.4-17.3 9.9-9.8 21.7-21.2 26.4-25.3s8.7-7.7 9-8 3-2.5 6-5 6.1-5.1 6.8-5.8c.8-.7 3-2.5 5-4 2.1-1.5 3.9-2.9 4.2-3.2 1.4-1.5 13.9-10.9 15.9-11.9 2.6-1.4 5.4-.9 12.1 2.1 10.6 4.7 92 45.9 94.5 47.8 1.1.9 2.5 1.6 19.5 11 6.3 3.5 12.6 7.1 14 8s5 3.1 8 4.7c5.8 3.2 15.6 9 30.3 18 4.8 2.9 12.9 7.8 18 10.9 15.5 9.5 25.1 15.8 26.4 17.4.7.8 1.2 2.6 1.3 4 0 2.3-6.7 23.7-9 28.5-.5 1.1-1.6 4-2.4 6.5-4.1 12.9-18.1 45.4-30.6 71.4-6.1 12.6-6 14.1 1.1 14.1 4.4 0 4.4 0 8.9-9.1 15-30.2 29.5-64.8 41.9-100.2 4.1-11.6 2.7-22.8-3.6-28.7-3.9-3.6-20.5-13.8-54.3-33.5-6.9-4-14.5-8.5-17-10s-7.4-4.4-11-6.3-9.4-5.2-13-7.1c-3.6-2-9.9-5.4-14-7.5-4.1-2.2-10-5.3-13-7-11.7-6.6-87.9-44.3-95.2-47.1-9-3.5-8.8-3.5-15.1-1m23.3 6.7c14.9 7.1 76.4 37.8 83 41.4 3 1.7 8.9 4.8 13 6.9 4.1 2.2 10.4 5.6 14 7.6 3.6 1.9 9.4 5.2 13 7.1 5.8 3.2 17.5 10 57.5 33.6 22.9 13.5 28.1 17.3 30.4 22 2 4.1 2.8 10.7 1.5 12-.5.5-7 18.5-9.4 25.9-1 3.1-10.3 26.2-13.1 32.5-4.2 9.5-6 13.5-8 18-6.4 14.8-20.5 42.3-21.5 42.3-.7 0-1.6-.4-1.9-1-.6-.9.1-2.5 8.8-21 2.4-5.2 5.9-12.9 7.7-17s4-9.3 5-11.5c7.9-17.5 24.1-62.5 25.5-70.7 1.1-6-1.4-9.6-10.5-15.3-4.5-2.8-8.6-5.5-9.3-6-1.2-1-44.5-27.2-52.3-31.6-2.1-1.2-5.2-3-6.9-4-3.1-1.9-15-8.6-22.2-12.6-2.4-1.2-6.4-3.5-9-5-15.5-8.7-60.5-31.8-93.2-47.8-15.7-7.6-19.8-8.7-25.4-6.6-3.3 1.3-25.9 19.2-41.1 32.6-4.4 3.8-9.8 8.6-12 10.5-6.6 5.6-35.4 34.6-44.6 45-4.7 5.2-9.7 10.8-11.2 12.5-1.6 1.6-2.8 3.3-2.8 3.7 0 .5-.7.8-1.5.8-2.7 0-1.6-3.9 2.3-8.2 20.2-22.8 55.4-57.5 71.2-70.4 1.9-1.6 4.1-3.5 4.8-4.2.8-.7 3-2.5 5-4 2.1-1.5 4.6-3.5 5.7-4.5s5.2-4.3 9.2-7.3c3.9-3 7.8-6 8.5-6.7s2.9-2 4.8-3c5.8-2.9 12.8-1.8 25 4m-25.3 7c-.4.3-.7 0-.7-.7s.3-1 .7-.7c.3.4.3 1 0 1.4m-1.7.7c0 .3-1.5 1.5-3.2 2.7-3.3 2.2-3.3 2.2-.8-.4 2.3-2.4 4-3.3 4-2.3m-9 4.1c0 .3-.2.5-.5.5s-.5-.2-.5-.5.2-.5.5-.5.5.2.5.5m45.5.5c.3.5.4 1 .1 1s-.8-.5-1.1-1c-.3-.6-.4-1-.1-1s.8.4 1.1 1m6.1 3.1c.4.8.1.8-1.4 0-1.2-.6-2.4-1.6-2.8-2.2-.4-.8-.1-.8 1.4 0 1.2.6 2.4 1.6 2.8 2.2m-54.6-1.6c0 .3-.2.5-.5.5s-.5-.2-.5-.5.2-.5.5-.5.5.2.5.5m4-.1c0 .3-.5.8-1.2 1.2s-.8.3-.4-.4c.7-1.2 1.6-1.6 1.6-.8m-7 3.1c0 .3-.2.5-.5.5s-.5-.2-.5-.5.2-.5.5-.5.5.2.5.5m61 0c0 .3-.2.5-.5.5s-.5-.2-.5-.5.2-.5.5-.5.5.2.5.5m-59 1.5c0 .5-.5 1-1.1 1-.5 0-.7-.5-.4-1 .3-.6.8-1 1.1-1 .2 0 .4.4.4 1m-5 .5c0 .3-.2.5-.5.5s-.5-.2-.5-.5.2-.5.5-.5.5.2.5.5m70.7 1.2c-.4.3-1 .3-1.4 0-.3-.4 0-.7.7-.7s1 .3.7.7m-73 1c-.4.3-1 .3-1.4 0-.3-.4 0-.7.7-.7s1 .3.7.7m81.4 2.9c2.8 1.4 4.9 2.7 4.7 3-.5.4-10.8-4.5-10.8-5.2 0-.8 1.1-.4 6.1 2.2m-85.6.4c-1 1.1-2.2 2-2.8 2-.5 0 .1-.9 1.4-2 3.1-2.5 3.7-2.5 1.4 0m4.5-.5c0 .3-.2.5-.5.5s-.5-.2-.5-.5.2-.5.5-.5.5.2.5.5m93.1 6.1c2.8 1.4 4.9 2.7 4.7 3-.5.4-10.8-4.5-10.8-5.2 0-.8 1.1-.4 6.1 2.2M442 521.5c0 .3-.2.5-.5.5s-.5-.2-.5-.5.2-.5.5-.5.5.2.5.5m4 0c0 .3-.2.5-.5.5s-.5-.2-.5-.5.2-.5.5-.5.5.2.5.5m-3 1.9c0 .2-.8 1-1.7 1.7-1.6 1.3-1.7 1.2-.4-.4s2.1-2.1 2.1-1.3m99.7 1.3c-.4.3-1 .3-1.4 0-.3-.4 0-.7.7-.7s1 .3.7.7m18.9 6.4c18.2 9.5 34.8 18.4 47.2 25.6 5.2 2.9 9.6 5.3 9.9 5.3s1.7.8 3.1 1.9c1.5 1 4.3 2.8 6.2 3.8 7.7 4.4 54.8 32.7 58.5 35.3 2.2 1.4 4.7 2.9 5.5 3.2 2.5 1 10 6.8 10 7.8 0 .5-3.5-1.5-7.7-4.4-4.3-2.9-24.7-15.4-45.3-27.8-38.4-22.9-42.6-25.4-56.5-32.8-4.4-2.4-10.5-5.7-13.5-7.5-3-1.7-10.2-5.5-16-8.4-9.7-4.9-13.3-7.1-11.8-7.1.3 0 5 2.3 10.4 5.1M438 528.6c-.8.8-2.3 2-3.4 2.6-1.4.6-1.1.1.8-1.6 3.2-2.9 4.5-3.4 2.6-1m110-1.1c0 .3-.2.5-.5.5s-.5-.2-.5-.5.2-.5.5-.5.5.2.5.5m-114 1c0 .3-.2.5-.5.5s-.5-.2-.5-.5.2-.5.5-.5.5.2.5.5m116 0c0 .3-.2.5-.5.5s-.5-.2-.5-.5.2-.5.5-.5.5.2.5.5m2 1c0 .3-.2.5-.5.5s-.5-.2-.5-.5.2-.5.5-.5.5.2.5.5m-121 1c0 .3-.2.5-.5.5s-.5-.2-.5-.5.2-.5.5-.5.5.2.5.5m-.5 4.5c-1 1.1-2.1 1.8-2.3 1.5-.3-.3.3-1.2 1.4-2 2.7-2 3-1.8.9.5m-3.5-.5c0 .3-.2.5-.5.5s-.5-.2-.5-.5.2-.5.5-.5.5.2.5.5m134.7.2c-.4.3-1 .3-1.4 0-.3-.4 0-.7.7-.7s1 .3.7.7M425 539.4c0 .2-.8 1-1.7 1.7-1.6 1.3-1.7 1.2-.4-.4s2.1-2.1 2.1-1.3m-4 4.1c0 .3-.2.5-.5.5s-.5-.2-.5-.5.2-.5.5-.5.5.2.5.5m-4 4c-1.3 1.4-2.6 2.3-2.8 2-.5-.5 3.6-4.5 4.6-4.5.3 0-.5 1.1-1.8 2.5m-4.5 4.4c-.3.6-1.1 1.1-1.7 1.1s-.6-.6.2-1.5c1.4-1.7 2.6-1.3 1.5.4m-4 4c-.3.6-1.1 1.1-1.7 1.1s-.6-.6.2-1.5c1.4-1.7 2.6-1.3 1.5.4m301.1 80.2c-6.3 19-14.3 39.4-25.1 63.4-1.2 2.7-3 7-4.1 9.5-2.1 5-15.4 32.3-16 32.9-.2.2-.7.2-1-.1-.3-.4 2.1-6.2 5.4-13 5.9-12.1 12.4-26 15.5-32.8 11.4-25.7 14.6-33.8 26.4-66.8.8-2.4 1.7-4.1 1.9-3.9s-1.1 5.1-3 10.8M783 516.9c0 .5.7 1.4 1.5 2.1 1.7 1.4 2.1 12.5.5 13.5-.5.3-1 1.1-1 1.8 0 .6 1 .2 2.2-1 2.8-2.8 3-10.8.5-14.7-1.7-2.5-3.7-3.5-3.7-1.7M728.1 519.8c-3 4.2-2.8 10.8.3 14.7 1.3 1.6 2.7 2.7 3.1 2.3s-.2-1.9-1.4-3.4c-2.5-3.2-2.7-8.3-.5-12.5 2.1-4.1 1.1-4.8-1.5-1.1M743.7 518.6c-1.2 1.2.4 2.4 3.3 2.4 2.8 0 2.8 0 .9 5-2 5.3-2.4 8-1.1 8 .6 0 5.3-13.5 5.2-15.3 0-.9-7.4-1-8.3-.1M754 520c-1.2 2.3-.8 2.5 2 .7 1.7-1 2.2-.9 3 .3.7 1.1.4 1.9-1.2 3.1-2.1 1.7-2.1 1.7 0 2.8 2.5 1.3 2.9 3.9.7 4.7-.9.4-2.3-.4-3.5-1.7-1.5-1.9-1.9-2.1-2-.7 0 3.7 5.2 6.2 7.8 3.6 1.5-1.5 1.6-5 .2-6.4-1.5-1.5-.2-4.4 1.7-3.7.9.4 1.9-.1 2.5-1 .5-1 1.6-1.7 2.3-1.7 2.5 0 1.7 3.6-1.5 7-3.8 4.1-3.6 6.5.5 6.6 1.7 0 3.6-.1 4.2-.4 2-.7.4-2.2-2.3-2.2-3 0-3-.7 0-3.9 4-4.3 3.4-9.1-1.1-9.1-1.4 0-3.2.8-3.9 1.7-1.3 1.7-1.5 1.7-2.8 0-1.8-2.3-5.3-2.2-6.6.3"/><path d="M775 522.7c-3.8 5.9-3.8 7.3-.1 7.3 1.7 0 3.1.6 3.5 1.6.3.8 1.1 1.2 1.7.9.5-.4.8-1 .5-1.3s-.1-1.1.5-1.8c.7-.8.7-1.4-.1-1.9-.5-.3-1-2.6-1-5.1 0-2.4-.5-4.4-1-4.4-.6 0-2.4 2.1-4 4.7m3 2.8c0 1.6-.6 2.5-1.5 2.5-1.8 0-1.8-.5-.5-3.1 1.4-2.6 2-2.4 2 .6M275.4 525.3c-.2.7-.3 6.2-.2 12.3l.3 10.9H307c17.3 0 37.7-.1 45.3-.3l13.8-.3-.3-11.7-.3-11.7-44.8-.3c-36.4-.2-44.8 0-45.3 1.1M362 536v10l-36 .2c-19.8.1-38.6.2-41.7.3h-5.8l-.3-8.9c-.2-4.9-.1-9.5.2-10.2.4-1.1 9.1-1.3 42.1-1.4H362z"/><path d="M284.8 528.7c-.3.4-.4 2.4-.3 4.3.1 3 .5 3.5 2.3 3.3s2.2.2 2.2 2.7c0 3-1.3 4-2.5 2-.9-1.5-2.5-.2-1.8 1.5.9 2.6 5.2 1.8 5.9-1 1-3.8-.3-7.5-2.6-7.5-2.8 0-2.5-2.8.3-3.2 1.2-.2 2.1-.8 2-1.3-.3-1.2-5-1.9-5.5-.8M296.9 529.7c-2 2.3-1.8 10.8.3 12.9 2.9 2.9 4.8.2 4.8-6.5 0-7.3-2.2-10-5.1-6.4m3.1 6.9c0 3-.4 5.4-.9 5.4-1.1 0-2.1-7.3-1.4-10 1-3.6 2.3-1 2.3 4.6M318 532.5c0 4 .2 4.5 2.2 4.2 2.5-.2 3.4 1.9 1.8 4.3-.9 1.3-1.1 1.3-1.9 0-1.2-1.8-2.6-.7-1.8 1.5 1 2.5 4.6 1.8 5.8-1.2 1.2-3.2-.2-7.3-2.6-7.3-.8 0-1.5-.9-1.5-2 0-1.3.7-2 2-2 1.1 0 2-.5 2-1 0-.6-1.3-1-3-1-2.9 0-3 .2-3 4.5M329 530.6c-1.9 4.9-.4 12.1 2.7 13.1 2.8 1 4.8-7.3 3-12.5-1.4-3.9-4.3-4.3-5.7-.6m4 5.5c0 4.8-1.2 6.5-2.4 3.3-.8-2-.8-5.8 0-7.8 1.1-2.9 2.4-.5 2.4 4.5M341.9 528.2c0 .2-.1 3.8-.2 8.1-.2 6.9 0 7.7 1.7 7.7 1.2 0 1.6-.5 1.2-1.6-.3-.9-.6-4.5-.6-8 0-3.6-.4-6.4-1-6.4-.5 0-1 .1-1.1.2M350.7 535.2c-2.1 8.8-2.1 8.8-.2 8.8 1.1 0 1.4-.7.9-2.5-.5-2.1-.3-2.5 1.6-2.5s2.1.4 1.6 2.5-.3 2.5 1.4 2.5c1.6 0 2-.5 1.6-1.8-.3-.9-1-3.7-1.6-6.2-2.6-10.4-3.1-10.5-5.3-.8m3.3-.2c0 .5-.4 1-1 1-.5 0-1-.5-1-1 0-.6.5-1 1-1 .6 0 1 .4 1 1M306.5 536c-.3.5 0 1.3.9 1.6 2.1.8 6.1.1 6.1-1.1 0-1.4-6.2-1.9-7-.5M734.7 525.7c-1.6 1.5-.5 2.3 3.3 2.3 4.3 0 5.4-1.4 1.8-2.4-3-.8-4.3-.7-5.1.1M791.9 538.4c-.2.2-10.7.7-23.4 1-33.5.9-50.8 1.6-51.7 2.2-1.4.9-1 19 .5 20.2 1.2 1 57.9 0 73.4-1.3l7.3-.7-.6-8.6c-.7-11.7-1.1-13.2-3.3-13.2-1 0-2 .2-2.2.4m3.4 10.8c.3 4.6.3 8.6-.1 9-.7.7-75.2 2.7-76.4 2.1-1.4-.7-.9-17.3.5-17.4 2.3-.3 48.1-1.5 61.8-1.7l13.6-.2z"/><path d="M758.4 544.4c-.3.7-.4 3.8-.2 6.7.3 5.2.4 5.4 3.4 5.7 1.9.2 3.9-.4 5.5-1.7 2.1-1.7 2.2-2.2 1.2-4-.7-1.1-1-2.7-.7-3.6.4-.8.1-2.2-.6-3-1.6-1.9-7.9-2-8.6-.1m7.4 2.3c.2.9-.7 1.3-2.7 1.3-2.1 0-3.1-.5-3.1-1.6 0-1.9 5.1-1.6 5.8.3m.2 5.8q0 1.5-3 1.5t-3-1.5 3-1.5 3 1.5M771.2 544.2c-1.4 1.4-1.6 3.8-.3 3.8.5 0 1.1-.7 1.5-1.5.7-1.9 3.6-2 3.6-.1 0 .8-.8 1.7-1.7 2.1-1.6.6-1.5.8.5 1.6 3 1.1 2.9 3.9-.2 3.9-1.3 0-2.6-.6-2.9-1.3-.2-.6-.8-.9-1.2-.5s-.5 1.4-.2 2.3c.9 2.1 7.3 2 8.1-.1s-.5-9.7-1.8-10.6c-1.7-1.1-4.1-.9-5.4.4M724.3 545c-1.7.7-2.3 1.8-2.3 4 0 2.7.2 3 2.5 2.4 1.8-.4 2.7-.1 3.1 1.1 1 2.6-1.2 4.2-3.7 2.7-1.8-1.2-2-1.1-1.7.5.4 2.2 4.3 2.9 6.4 1.3 3-2.5 1.1-8-2.8-8-2.5 0-2.3-1.8.2-2.2 1.2-.2 2.1-.7 2.1-1.3.1-1.3-1.2-1.5-3.8-.5M732.9 545.6c-1.8 2.2-1.5 9.2.4 11.2 1.4 1.4 2 1.4 4.2.2 2.1-1.1 2.5-2 2.5-6 0-2.5-.5-5.1-1.2-5.8-1.7-1.7-4.3-1.5-5.9.4m4.9 5.2c.3 3.7.1 4.2-1.7 4.2s-2.1-.6-2.1-4.6c0-3.8.3-4.5 1.8-4.2 1.2.2 1.8 1.5 2 4.6M749.2 545.2c-1.7 1.7-1.5 9.3.3 10.8 2 1.7 6.2.5 7-2.1.9-2.6-2.2-6.2-4.8-5.5-1.1.3-1.7 0-1.4-.7.2-.7 1.6-1.1 3.1-1 1.7.1 2.6-.2 2.3-1-.5-1.7-5-2-6.5-.5m4.6 7.6c.2 1.4-.2 2.2-1.2 2.2-1.9 0-2.9-1.7-2.2-3.6.8-2.2 3-1.2 3.4 1.4M742 551.4c0 1 .9 1.6 2.1 1.6 2.4 0 2.1-2.3-.4-2.8-1-.2-1.7.3-1.7 1.2M756.1 584.2l.4 21.2-5 2.8c-13 7-15.7 8.1-16.6 6.7-.5-.8-.9-2.5-.9-3.9-.1-4.4-2.3-6.2-6.7-5.4-2.1.4-4.6 1.1-5.5 1.6-1.6.8-1.7 1.1-.3 3.2 2.3 3.5 3 13.3 1.2 18.4-.8 2.3-1.1 4.5-.6 4.8s2.9.2 5.4-.2c5.2-.7 6.2-2 7.3-9.5.7-5.3.7-5.3 11.7-10.8 6.1-3.1 11.3-6 11.6-6.4.4-.5.5-3.2.4-6.1-.2-2.8-.3-12.4-.4-21.4-.1-11.3-.4-16.2-1.2-16.2s-1.1 5.9-.8 21.2m-24.2 25c.5 1.3.7 2.7.4 3.1s0 1.3.5 2c1 1.3.9 11.4-.2 12.4-.4.4-1.2.1-1.9-.6-.9-.9-.9-1.4 0-1.9 1.3-.8 1.1-3.8-.6-11.2-1.3-5.7-1.3-6-.1-6 .6 0 1.4 1 1.9 2.2m-3.9 3.3c0 1.9.4 3.5.9 3.5s.9 1.2.9 2.7c.1 3.5-2 11.3-3 11.3-1.2 0-1-5.8.2-6.5.6-.3 1-1.1 1-1.6 0-.6-.5-.7-1.2-.3-.8.5-.9 0-.6-1.4.4-1.2.2-2.5-.3-2.8-.6-.3-.7-1.5-.4-2.6.4-1.2 0-2.7-1.1-3.9-1.6-1.8-1.6-1.9.9-1.9 2.4 0 2.7.4 2.7 3.5m4 16.3c0 1.3-1.2 2.2-2.2 1.6s-.1-2.4 1.3-2.4c.5 0 .9.4.9.8M236.3 700.6c-1 .4-1.3 4-1.3 13V726l44.3-.2 44.2-.3.3-11.4c.1-6.4-.2-11.9-.7-12.4-1-1-84.6-2.1-86.8-1.1m83.7 12.9v10.6l-39.2-.2c-21.6-.1-40.1-.4-41-.6-1.6-.4-1.8-1.7-1.8-10.4V703h82z"/><path d="M245.3 704.7c-.8.3-1.3 2.3-1.3 5 0 4 .2 4.4 2 3.8 1.7-.5 2-.2 2 2.4 0 3.1-1.4 4.2-2.3 1.8-.2-.6-.8-.9-1.2-.5-1.5 1.4.5 3.9 2.7 3.6 1.9-.2 2.4-1 2.6-4.5.3-3.4-.1-4.4-1.7-5.3-2.7-1.4-2.7-3-.1-3 1.3 0 2-.7 2-2 0-2-1.9-2.5-4.7-1.3M255.6 706.9c-2.8 5.3-1.6 14.1 1.9 14.1 3.8 0 5-12.3 1.6-15.4-1.9-1.7-2-1.7-3.5 1.3m3.4 6.2c0 3.6-.4 4.9-1.2 4.7-1.4-.5-2.3-7-1.4-9.5 1.1-2.8 2.6-.1 2.6 4.8M276.5 704.8c-.3.3-.5 1.6-.5 3 0 2.1.2 2.3 1.5 1.2 2.2-1.8 3-.5 1.7 2.5-1.4 3.1-1.6 9.5-.3 9.5.5 0 1.1-2.1 1.4-4.8.3-2.6.9-6.1 1.2-7.8.6-2.8.4-3.2-1.9-3.6-1.4-.3-2.8-.3-3.1 0M287 707.4c-1.2 3.2.3 7.6 2.5 7.6.8 0 1.5.7 1.5 1.6 0 1.1-.6 1.4-2.1.9-1.7-.6-2-.3-1.7 1.2.2 1.2 1.2 1.8 2.8 1.8 2.1 0 2.7-.7 3.4-3.8 1.4-5.3-.2-11.1-3.1-11.5-1.7-.3-2.6.3-3.3 2.2m4.5.6c.9 1.4-.4 5.2-1.6 4.5-1.2-.8-1.2-5.5 0-5.5.6 0 1.3.5 1.6 1M299.9 705.5c0 .3-.1 4-.1 8.2-.1 5.3.3 7.8 1.1 7.8.6 0 1.1-.3 1.1-.8v-8.2c0-4.3-.4-7.5-1-7.5-.5 0-1 .2-1.1.5M264.5 713c-.4.6.7 1 2.4 1s3.4 0 3.8.1c.4 0 .9-.4 1.1-1 .5-1.4-6.5-1.5-7.3-.1M278 738.2v10.1l-70.9-.6c-61.6-.6-71-.5-72.1.8-.9 1.1-1.1 8.7-.6 31.7.3 16.7.8 88.1 1.2 158.8s.7 128.6.8 128.7 433.5.6 438.9.4l3.7-.1-.2-51.2c-.1-28.2-.4-58.8-.6-67.9l-.3-16.7-9.2-3.7c-5.1-2.1-11.7-4.8-14.7-6-3-1.3-17.6-7.1-32.5-13-14.8-5.9-28.3-11.3-30-12-3.2-1.3-15.9-6.5-23.5-9.5-10.8-4.3-20.7-8.3-23.7-9.6-1.7-.8-3.4-1.4-3.8-1.4-.3 0-3-1.1-5.8-2.3-2.9-1.3-9.1-3.9-13.9-5.8l-8.8-3.4v-28c0-36.7-1.1-86.8-1.9-87.7s-41.7-1.7-90.8-1.7L280 748v-10c0-6-.4-10-1-10s-1 4.1-1 10.2m130.1 13.6c.8.8 1.9 55.5 1.9 90.8v24.1l4.8 1.8c4.2 1.6 18.9 7.7 26.7 11 1.7.7 8.4 3.4 15 6a1702 1702 0 0 1 16 6.4c2.2 1 26.4 10.7 53.7 21.6l49.7 19.8.3 11.1c.2 6.1.5 36 .6 66.4l.3 55.2H138v-54.3c0-29.8-.2-64.3-.4-76.7-.3-12.4-.8-59.1-1.2-103.9l-.7-81.4 135.9.7c74.7.4 136.2 1 136.5 1.4"/><path d="m315.3 768.8-17.3.2v25h43.9c27.8 0 44.1-.4 44.3-1 .2-.5.2-6.1 0-12.4l-.3-11.5-26.7-.3c-14.7-.2-34.5-.2-43.9 0m67.9 11c.3 4.8.3 9.4 0 10.4-.3 1.5-4 1.6-41 1.5l-40.7-.2-.3-10.3-.3-10.2h40.9l41 .1z"/><path d="M308.8 773.1c-1.2.7-1.8 2.2-1.8 4.9 0 3.5.3 3.9 2.2 3.7 2.5-.2 3.4 2 1.7 4.3-.8 1.1-1.2 1.2-1.6.2-.6-1.6-2.3-1.6-2.3.1 0 4.4 5.3 3.7 6.4-.9.8-2.9-1.8-7.9-3.4-6.9-.6.4-1 0-1-.8s.9-1.7 2.1-2 1.9-1.1 1.7-1.8c-.6-1.7-2-2-4-.8M319 773.5c-2.1 2.6-1.9 12 .3 14.2 1.8 1.7 1.9 1.7 3.3-.1 2-2.8 1.8-10.9-.4-13.6-1.7-2.1-1.9-2.1-3.2-.5m3 7.5c0 2.7-.4 5.1-.9 5.4-1.2.8-2.3-5.7-1.5-8.8 1-4 2.4-2 2.4 3.4M339.7 772.7c-.4.3-.7 1.8-.6 3.2 0 1.4.3 2 .6 1.3.2-.6 1.2-1.2 2-1.2.9 0 1.3.6.9 1.5-1.2 3.2-1.8 11.5-.8 11.5.5 0 1.3-2.6 1.7-5.8.4-3.1 1.1-6.5 1.6-7.5.8-1.4.5-1.9-1.6-2.7-3.1-1.2-3-1.2-3.8-.3M351 773.5c-2.1 2.5-2 12.3.1 14.8 1.6 2 1.9 2 3.3.7 1.7-1.7 1.9-2.8 1.7-9.5-.1-3.8-.6-5.3-2-6.2-1.5-1-2.2-.9-3.1.2m3 4c0 2.6-1.4 3.3-2.5 1.5-.9-1.4.1-4 1.5-4 .5 0 1 1.1 1 2.5m0 7c0 2.6-1.4 3.3-2.5 1.5-.9-1.4.1-4 1.5-4 .5 0 1 1.1 1 2.5M362 780.9c0 7.5 1.1 10.6 2.9 8.5 1.2-1.5-.3-15.7-1.6-16.2-1-.3-1.3 1.7-1.3 7.7M328 781c0 .5 1.6 1 3.6 1 2.1 0 3.3-.4 2.9-1-.3-.6-1.9-1-3.6-1-1.6 0-2.9.4-2.9 1M341.9 824.5c.1 15.7 0 28.5-.4 28.5-.6 0-8.5-6-22.5-17.3-.8-.7-3.5-2.8-6-4.7-8.7-6.8-16-13.2-27.8-24.5-4.6-4.4-8.9-8.1-9.5-8.2-.7-.2-2 .9-3.1 2.3-1.8 2.6-1.8 2.6 3.5 8.1 10.2 10.4 21.2 19.8 21.6 18.5.3-.6.9-.9 1.5-.6.6.4.5 1-.3 1.5-.7.4-1.1.9-.9 1.1.3.2 4.3 3.6 9 7.5 8.3 6.9 36.3 28.1 47.1 35.6 13.5 9.4 30.5 20 49.4 30.6 18.1 10.1 63.4 31.8 72.4 34.6 2.1.6 2.3.5 1.6-1.1-.4-1.1-1-2.9-1.2-4.2-.3-1.2-.9-2.2-1.4-2.2s-.8-.5-.7-1.1c.4-1.4-.5-1.8-12.2-6.9-5.2-2.3-12.2-5.4-15.4-6.8-10.3-4.7-39.5-19.2-44.4-22.1-2.6-1.5-10.3-6.1-17.2-10.2-6.9-4-12.7-7.6-13-7.9s-3-2.1-6-4-6.1-4-6.8-4.7-1.7-1.3-2.1-1.3c-.5 0-2.4-1.3-4.2-3-1.9-1.6-3.7-3-4-3s-1.5-.8-2.7-1.8c-2-1.7-2.1-2.9-2.3-21.2-.2-23-.9-40-1.8-40-.3 0-.4 12.8-.2 28.5m-64.6-18c2.3 3.2 1.7 3.2-1.3 0-1.3-1.4-1.9-2.5-1.4-2.5s1.7 1.2 2.7 2.5m5.1 5.1c.3.8.2 1.2-.4.9s-1-1-1-1.6c0-1.4.7-1.1 1.4.7m5.6-.1c0 .3-.2.5-.5.5s-.5-.2-.5-.5.2-.5.5-.5.5.2.5.5m-2.3 3.2c-.4.3-1 .3-1.4 0-.3-.4 0-.7.7-.7s1 .3.7.7m4.3 4.5c0 .6-.7.5-1.5-.2s-1.5-1.7-1.5-2.2c0-.6.7-.5 1.5.2s1.5 1.7 1.5 2.2m17 9.3c0 .3-.2.5-.5.5s-.5-.2-.5-.5.2-.5.5-.5.5.2.5.5m-3.3 2.2c-.4.3-1 .3-1.4 0-.3-.4 0-.7.7-.7s1 .3.7.7m4.3.8c0 .3-.2.5-.5.5s-.5-.2-.5-.5.2-.5.5-.5.5.2.5.5m2.5 4.5c.3.5.4 1 .1 1s-.8-.5-1.1-1c-.3-.6-.4-1-.1-1s.8.4 1.1 1m7 1c1 1.1 1.6 2 1.3 2s-1.3-.9-2.3-2-1.6-2-1.3-2 1.3.9 2.3 2m-3.5 2.5c0 .3-.2.5-.5.5s-.5-.2-.5-.5.2-.5.5-.5.5.2.5.5m7 5.7c0 .6-.6.5-1.5-.2-.8-.7-1.5-1.4-1.5-1.6s.7-.1 1.5.2c.8.4 1.5 1.1 1.5 1.6m5-1.7c0 .3-.2.5-.5.5s-.5-.2-.5-.5.2-.5.5-.5.5.2.5.5m0 5c0 .3-.2.5-.5.5s-.5-.2-.5-.5.2-.5.5-.5.5.2.5.5m7 0c0 .3-.2.5-.5.5s-.5-.2-.5-.5.2-.5.5-.5.5.2.5.5m2.5 2.5c.3.5.4 1 .1 1s-.8-.5-1.1-1c-.3-.6-.4-1-.1-1s.8.4 1.1 1m-5 1c.3.6-.1.7-.9.4-1.8-.7-2.1-1.4-.7-1.4.6 0 1.3.4 1.6 1m3.5 2.5c0 .3-.2.5-.5.5s-.5-.2-.5-.5.2-.5.5-.5.5.2.5.5m2 2c0 .3-.2.5-.5.5s-.5-.2-.5-.5.2-.5.5-.5.5.2.5.5m3.7.2c-.4.3-1 .3-1.4 0-.3-.4 0-.7.7-.7s1 .3.7.7m1.8 4.1c-.3.3-1.1 0-1.8-.7-.9-1-.8-1.1.6-.5 1 .3 1.5.9 1.2 1.2m6.5 4.7c0 .3-.2.5-.5.5s-.5-.2-.5-.5.2-.5.5-.5.5.2.5.5m9.5 4.3c-.3.3-1.1 0-1.8-.7-.9-1-.8-1.1.6-.5 1 .3 1.5.9 1.2 1.2m11.2 5.9c-.4.3-.7 0-.7-.7s.3-1 .7-.7c.3.4.3 1 0 1.4m13.3 7.8c0 .3-.2.5-.5.5s-.5-.2-.5-.5.2-.5.5-.5.5.2.5.5m8 5c0 .3-.2.5-.5.5s-.5-.2-.5-.5.2-.5.5-.5.5.2.5.5m7.7 4.2c-.4.3-1 .3-1.4 0-.3-.4 0-.7.7-.7s1 .3.7.7"/><path d="M252.9 811.6c-1.5.8-3.2 2.1-3.9 2.9-1.7 2.1-.5 7.8 2.6 11.4 2.5 3 2.5 3-1 6.5-2 1.9-3.6 3.9-3.6 4.6 0 .6 1.8 3 3.9 5.3 3.2 3.4 4.2 4 5.2 2.9 1.9-1.7 3.2-1.5 4.7.9 1.1 1.8 1.1 2.4-.2 3.8-2.1 2.4-2 3 .9 5.3 1.4 1.1 2.5 2.5 2.5 3.2 0 1.8 6.3 7.6 8.3 7.6 1 0 2.6-.5 3.6-1.2 1.6-1 2.9-.4 8.7 3.9 8.8 6.4 19.2 13.6 27.4 18.9 3.6 2.4 7 4.8 7.7 5.3.7.6 1.5 1.1 1.8 1.1.4 0 2.5 1.3 4.8 2.9 2.3 1.5 6.1 3.8 8.5 5s5.2 3.8 6.7 6.1c2.2 3.6 3 4 6.5 4 2.6 0 5.7 1 9 3 2.8 1.6 5.3 3 5.5 3s2.7 1.4 5.6 3c2.8 1.7 5.4 2.8 5.7 2.5.9-.9-.8-2.1-12-7.9-7-3.7-11.8-5.6-14.1-5.6-3 0-4.7-1.3-4.7-3.5 0-.1 1.7.3 3.8 1.1 2 .7 4.7 1.3 5.9 1.4 1.3 0 5.3 1.6 9 3.6 19.4 10.3 23.6 12.4 24.1 12 .3-.3 0-1.1-.5-1.8-.6-.7-1.3-2.5-1.7-4.1-.5-2.2-2.5-3.7-11.4-8.2-5.9-3-12-6.3-13.7-7.3-1.6-1-5-3-7.5-4.4-4-2.4-5-2.6-8-1.7-3.2 1-4 .8-10.5-3.2-11-6.6-33.2-21.6-41.7-28.1l-7.8-5.9v-17l9.3 7.8c5 4.3 9.4 8 9.7 8.4.3.3 5.3 4.2 11.2 8.7 16.2 12.3 39.5 27.6 57.8 37.7 6.6 3.6 48.5 24.4 57.3 28.4 16 7.2 20.7 9.2 34.5 14.6 6.7 2.7 11.9 5.2 11.5 5.6-.5.4-4.1 1.2-8.2 1.8-7.1 1.1-7.5 1.1-11-1.3-2-1.4-4.8-3-6.3-3.7-1.5-.6-2.5-1.6-2.2-2.1.9-1.4-.7-4.8-2.3-4.8-.8 0-1.7.9-2 2-.6 2.2-1.5 2.5-4.1 1.1-.9-.6-4.8-2.2-8.7-3.7-12.2-4.7-13.5-5.5-12.9-8 .4-1.6-.2-3.1-2-4.9-2.6-2.6-4.6-3-4.9-1 0 .6.8 1.2 1.9 1.4 2.2.4 3.4 1.9 3.4 4.3 0 1.6-.3 1.6-4-.1-5.2-2.3-5.5-2.7-4-4.6 1.7-2.1-.6-5.1-2.6-3.4-.7.6-2.6.8-4.3.4-1.6-.3-3.2-.2-3.5.3-.9 1.5 2.3 3.8 10.7 7.7 4.2 2.1 7.7 4.3 7.7 5.1 0 1.8-.1 1.8-4.7-.5-2.1-1.1-8.2-4-13.5-6.5-9.7-4.4-12.2-6.3-7.3-5.4 1.7.4 2.5.1 2.5-.8s-1.1-1.4-3-1.4c-1.6 0-3 .4-3 .9s-.8 1.1-1.7 1.3c-1.1.3 2.5 2.6 9.2 5.9 11.3 5.7 44.1 19.8 50.7 21.9 3.3 1 3.7 1.5 4 4.8.4 4.5 3.6 6.4 11.7 6.8 4.5.3 5.7 0 6.8-1.6 1.8-2.5 8.1-2.8 9-.4.3.9 0 2-.7 2.4-1.7 1-.5 4 1.6 4 .9 0 2.7.9 4.1 2s3.5 2 4.5 2c1.1 0 2.2.9 2.5 2 .4 1.6 1.4 2 4.3 2 3.2 0 3.9.4 5 3 1.7 4 2.6 3 1.1-1.2-1-2.7-.9-3.5.6-5 1.6-1.5 2.5-1.6 7.3-.8 3 .6 8.1 1.3 11.2 1.6 5.8.7 5.8.7 10.3-4.2 5.8-6.2 7-8.3 5.3-8.9-.7-.2-5.3-1.5-10.3-2.9-15.4-4.1-26.9-7.6-29.2-8.8-2.6-1.3-4.5-.2-2.3 1.2.8.6 4 1.7 7 2.6 14.2 4.1 22.4 6.9 21 7.2-.9.1-7-1.3-13.5-3.2-6.6-1.9-12.4-3.1-12.8-2.6-.5.4 1.7 1.5 5 2.4 3.2.9 7.2 2 8.8 2.5 1.7.5 6.3 1.7 10.3 2.6 3.9.9 7.2 2.1 7.2 2.6s-.6.9-1.2.9c-1.8 0-18.9-3.7-20.9-4.5-1.1-.4-3.4 1.1-7.2 4.4-3.4 3.2-6.4 5.1-7.9 5.1-3.4 0-4.1-1-2.2-3.2 2.1-2.3.4-4.8-3.4-4.8-1.3 0-3.2-.8-4.1-1.9-2.3-2.6-7.2-3.5-9.6-1.7-1.1.9-3.4 1.6-5.2 1.6-1.7 0-3.5.4-3.8 1-.8 1.3-4.2 1.3-5 0-1.1-1.8 7.2-6.2 13.7-7.1 13.4-1.9 14.9-2.2 15.4-3 .3-.5.1-.9-.5-.9s-5.4-1.8-10.8-4.1c-5.4-2.2-12-5-14.8-6.1-2.7-1.2-7.2-3.1-10-4.3-2.7-1.2-6-2.5-7.2-2.9s-5.3-2.2-9.2-4.1c-4-1.9-7.4-3.5-7.7-3.5-.2 0-11.4-5.4-24.7-12-26.5-13.2-43.4-22.7-60.2-34-10-6.7-34.3-24.4-35.5-25.9-.3-.3-3.4-3.1-7-6.1-15.7-13.2-41-38.1-39.4-38.7.7-.2 7 5.4 14 12.4 30 29.9 64.8 56.1 101.9 76.8 11 6.1 53.8 26.9 68 32.9 11.4 4.9 20.5 8.6 21 8.6.4 0 2.1.6 3.8 1.4 7.9 3.4 14.1 5.6 16 5.6 3.4 0 .8-1.4-8.8-4.9-9.2-3.3-10.5-3.8-16.5-6.4-1.9-.9-5.7-2.4-8.5-3.5-2.7-1.1-7.7-3.2-11-4.7s-7.6-3.4-9.5-4.2c-9.6-4.1-56.6-27.9-64.5-32.6-10.7-6.4-28.9-18.3-36.2-23.8-2.9-2.1-7.9-5.8-11-8.2-13-9.6-29.9-24.4-44.5-39-7-7-13.1-12.7-13.5-12.6-.5.1-2 .7-3.4 1.5m14.5 16.1 13.6 13.2v8.4c0 8.5 0 8.5-3.1 7.4-2.8-1.1-3.3-1-5 1.2-1 1.3-1.9 3.2-1.9 4.4 0 2 0 2-2.1.1-2.5-2.3-4.9-7.7-4.9-11.4 0-2.9-5.2-11.5-8-13-1.1-.6-2.3-.5-3.7.5-1.1.8-2.3 1.1-2.7.8-1.5-1.5-.3-3.6 4.4-8 2.8-2.6 5-5 5-5.4s-1.8-2.9-4-5.4c-4.1-4.8-5-6.9-2.6-6.3.7.2 7.5 6.2 15 13.5m-13.2-6c3 2.9 3.7 5.3 1.4 5.3-1.7 0-5.6-4.6-5.6-6.6s1.1-1.7 4.2 1.3m2.8 19.7c0 .8-.5 1.8-1 2.1-1.3.8-4.2-1.4-3.4-2.6.9-1.5 4.4-1 4.4.5m5 11.1c0 .3-.2.5-.5.5s-.5-.2-.5-.5.2-.5.5-.5.5.2.5.5m26.1 13.3c16.5 12.4 49.6 34.2 51.9 34.2 1.1 0 3.4 3 2.8 3.6-.3.3-5.2-2.2-10.8-5.5-5.6-3.4-10.4-6.1-10.6-6.1-.3 0-1-.5-1.7-1-.7-.6-6.1-4.3-12.2-8.2-6-3.9-11.2-7.4-11.5-7.7-.3-.4-5.1-3.9-10.7-8-5.7-4-10.3-7.7-10.3-8.2 0-2.2 3.4-.4 13.1 6.9m-13.1-3.3c0 .8-.4 1.5-1 1.5-.5 0-1-.7-1-1.5s.5-1.5 1-1.5c.6 0 1 .7 1 1.5m77.5 39.2c9.8 5.2 12.8 7.4 11.6 8.6-1.5 1.5-7.8-1.8-8.6-4.4-.7-2-3.4-2.9-7.4-2.6-1.4.1-2.9-.6-3.8-2.1-1.5-2.1-1.4-2.2.8-2.2 1.3 0 4.7 1.2 7.4 2.7m1 4.3c.4.6-.5 1-1.9 1s-2.6-.5-2.6-1c0-.6.9-1 1.9-1 1.1 0 2.3.4 2.6 1m23.3 9.3c4.9 3 6.5 4.7 4.1 4.7-1.6 0-13.9-6.1-13.9-6.9 0-1.4 1.4-2.2 2.9-1.6.9.3 4 2 6.9 3.8M404 931c0 .5-.4 1-.9 1-.6 0-1.3-.5-1.6-1-.3-.6.1-1 .9-1 .9 0 1.6.4 1.6 1m29.2 16.1c8.4 3.3 15.6 6.3 16.1 6.6 1.5.9-.4 2.2-2.1 1.4-.9-.5-8-3.4-15.7-6.4-7.6-3-14.1-5.9-14.3-6.6-.2-.6-.1-1.1.2-1.1s7.4 2.7 15.8 6.1m21.9 10.5c1.1 1.4 1 1.9-1 3.5-3.2 2.6-4.1 2.4-4.1-.9 0-4.4 2.5-5.7 5.1-2.6m70.4 7.4c.7 1.2-.2 1.2-3 0-1.9-.8-1.9-.9.2-.9 1.2-.1 2.5.3 2.8.9m4.5 2.2c0 1.4-5 6.8-6.2 6.8-1.6 0-.8-2.6 1.7-5.3 2.7-2.9 4.5-3.5 4.5-1.5m-17.6 1.8c7.6 1.8 9.6 3 9.6 5.7 0 1.6-.6 1.6-10.5.1-9-1.3-10.5-2-10.5-5.4 0-2.9 1-3 11.4-.4m-30.4 0c0 .5-1.1 1-2.5 1s-2.5-.5-2.5-1c0-.6 1.1-1 2.5-1s2.5.4 2.5 1m15.3 6.5c-2.6 2.3-7.3 3.4-7.3 1.8 0-.4 1.9-2.7 4.2-5 4.3-4.4 4.3-4.4 5.1-1.8.8 2.2.4 3-2 5"/><path d="M256 832.4c0 3.2 2.4 5 5.5 4.2 4.7-1.2 2.5-6.6-2.7-6.6-2.3 0-2.8.4-2.8 2.4m5.7.3c-.4.3-1 .3-1.4 0-.3-.4 0-.7.7-.7s1 .3.7.7m-1 1.9c-.3.3-1.2.4-1.9.1-.8-.3-.5-.6.6-.6 1.1-.1 1.7.2 1.3.5M289.6 860.5c-.6 1.8 1.6 3 3.9 2.1 2-.7.8-3.6-1.5-3.6-1 0-2.1.7-2.4 1.5M289.7 875.7c-1.1 1-.8 6.1.3 6.8.6.4 1-1 1-3.4 0-4.2-.2-4.6-1.3-3.4M325.7 884.6c-1.6 1.6-.6 3.4 1.9 3.4 1.9 0 2.5-.5 2.2-1.7-.3-1.9-2.9-2.9-4.1-1.7M289 890.5c0 2.5.5 4.5 1 4.5.6 0 1-2 1-4.5s-.4-4.5-1-4.5c-.5 0-1 2-1 4.5M466 892.7c0 1.2.5 2.5 1 2.8 1.3.8 1.3-1.5 0-3.5-.8-1.2-1-1.1-1 .7M289 904.2c0 4.9.5 4.7 1.3-.5.3-2 .2-3.7-.4-3.7-.5 0-.9 1.9-.9 4.2M469.5 902.2c.7 3.7 2.3 7.8 3 7.8.8 0-.6-5.2-2.2-8-1.4-2.5-1.4-2.5-.8.2M310 912c-1.1 1.1-2.3 3.2-2.6 4.6-.9 3.5 2 9 5.1 9.8 2.1.5 2.2 1.2 2.8 14.8.4 7.9.7 17.1.7 20.5v6.3h-25c-16 0-25 .4-25 1 0 1.6 51 1.3 51.1-.3.1-.6.2-10.4.3-21.5l.1-20.4 3.9-2.2c4.3-2.4 6.7-7.3 4-8.3-.8-.3-1.4-1.3-1.4-2.3 0-3.8-10.7-5.3-14-2m9 1.9c2.4 4.6-.2 11.1-4.5 11.1-3.3 0-5.5-2.6-5.5-6.5 0-1.8.7-4.1 1.6-4.9 2.2-2.3 7.1-2 8.4.3m2.7 4.3c-.3.8-.6.5-.6-.6-.1-1.1.2-1.7.5-1.3.3.3.4 1.2.1 1.9m2.7 2.3c-.4.8-.8 1.5-1 1.5s-.4-.7-.4-1.5.4-1.5 1-1.5c.5 0 .7.7.4 1.5M288.7 913.7c-1.1 1-.8 8.3.3 8.3.6 0 1-2 1-4.5 0-4.6-.2-5-1.3-3.8"/><path d="M333.5 915.4c-3.8 3.8-3.1 10.2 1.5 12.6 1.6.8 2.7.7 5-.7 1.6-.9 3.2-1.5 3.4-1.2.5.4.7 28.1.6 63.4v11l-38 .3c-20.9.1-38 .6-38 1s17.5.8 39 1l39 .2v-76.7l6.5-.6c3.6-.4 7.3-1.1 8.3-1.6 1.4-.8.9-1.3-3.3-3.1-2.8-1.2-7.2-2.4-9.8-2.7-2.9-.4-5.3-1.3-6-2.3-2.2-3.1-5.4-3.4-8.2-.6m6.3 1.2c3.1 2.1 3 6.9-.3 9-1.3.8-2.9 1.3-3.5.9-1.2-.8-1.3-4.5-.1-4.5.5 0 .7-.9.4-2-.4-1.6-.8-1.8-1.9-.9-2.4 1.9-2.7.2-.5-2 2.5-2.5 3-2.6 5.9-.5m6 5.1c-.5 2.5-2.8 2.8-2.8.4 0-1.2.6-2.1 1.6-2.1.9 0 1.4.7 1.2 1.7m3.5.8c-.3.8-.9 1.5-1.4 1.5-1 0-1.2-2.4-.3-3.3 1.1-1.1 2.4.3 1.7 1.8m4.7 0c0 .8-.7 1.5-1.5 1.5s-1.5-.7-1.5-1.5.7-1.5 1.5-1.5 1.5.7 1.5 1.5m-20 .5c0 .5-.2 1-.4 1-.3 0-.8-.5-1.1-1-.3-.6-.1-1 .4-1 .6 0 1.1.4 1.1 1m23.7.7c-.4.3-1 .3-1.4 0-.3-.4 0-.7.7-.7s1 .3.7.7M473.3 914.2c.3.9 1.1 3.4 1.8 5.7s1.6 4.1 2.2 4.1c.5 0 .6-.8.2-1.8-.4-.9-1.1-3.1-1.6-4.9-.6-1.8-1.5-3.5-2.1-3.9-.7-.5-.9-.2-.5.8M175.4 920.3c-.2.7-.3 6.2-.2 12.3l.3 10.9h88l.3-11.6c.3-11.6.3-11.6-2.9-12.3-1.7-.3-21.6-.6-44.1-.6-32.8 0-41 .3-41.4 1.3m49.7 1.7H260v20h-82v-19.9l4.8-.4c2.6-.2 5.3-.2 6 0 .8.2 17.1.3 36.3.3"/><path d="M184.7 923.6c-.4.4-.7 2.5-.7 4.7 0 3.4.3 3.9 2 3.4 2.1-.5 2.9.8 2.2 3.5-.5 1.9-2.2 2.5-2.2.8 0-.6-.4-1-1-1-1.3 0-1.3 2.3.1 3.7 1.6 1.6 3.9.5 4.9-2.2 1.2-3.1.2-6.3-2.1-7-2.6-.8-2.4-3.5.2-3.5 1.2 0 1.9-.5 1.7-1.3-.5-1.4-4-2.1-5.1-1.1M196.1 924.3c-1.9 2.3-2.4 7.3-1.1 11.1 2.1 6.4 6 4 6-3.7 0-7.1-2.2-10.5-4.9-7.4m2.7 6.7c-.4 6-2.2 7.1-2.6 1.6-.4-4.3.2-6.6 1.8-6.6.7 0 1 1.9.8 5M217.2 924.3c-1.6 1.9-1.8 12.3-.2 14.2s2.5 1.9 4.3 0c2-1.9 1.7-13.3-.4-14.6-1.9-1.2-2.5-1.1-3.7.4m3.3 3.2c0 1-.6 2-1.2 2.2-.8.3-1.3-.5-1.3-2.2s.5-2.5 1.3-2.3c.6.3 1.2 1.3 1.2 2.3m.2 6.1c.8 2.2-1.5 4.4-2.6 2.5-1-1.6-.4-4.1 1-4.1.5 0 1.2.7 1.6 1.6M227.7 923.7c-.4.3-.7 2.4-.7 4.6 0 3.1.3 3.8 1.5 3.3 1.8-.7 3 1.6 2.1 4-.5 1.3-.9 1.4-2.1.4s-1.5-1-1.5.3c0 1.9 2.3 3.8 3.6 2.9.6-.4 1.6-1.7 2.3-3 1-1.9 1-2.8-.4-4.8-.8-1.3-2-2.4-2.5-2.4-1.9 0-1-2.8 1.1-3.3 1.2-.3 1.8-1 1.4-1.6-.7-1.2-3.8-1.5-4.8-.4M238.9 929c-2.8 5.2-2.7 6 .3 6 1.4 0 1.8.6 1.6 2.2-.2 1.5.2 2.3 1.2 2.3s1.5-1 1.4-3c-.3-10.1-.5-12.5-1.1-12.5-.5 0-2 2.2-3.4 5m1.8 3.2c-.3.8-.6.5-.6-.6-.1-1.1.2-1.7.5-1.3.3.3.4 1.2.1 1.9M248.7 931.2c-1.2 4.9-1.4 7.5-.7 8.2 1 1 1.1.9 1.4-2.9.2-3.1 3-2.4 3.4.7.3 2.8 1.6 3.6 2.6 1.9.3-.5.2-2.2-.3-3.7-.5-1.6-1.4-4.8-2-7.2-.7-2.3-1.5-4.2-1.9-4.2-.5 0-1.6 3.2-2.5 7.2m3.3-.2c0 .5-.4 1-1 1-.5 0-1-.5-1-1 0-.6.5-1 1-1 .6 0 1 .4 1 1M205.2 931.6c1 1 5.8 1.2 6.4.3.3-.5-1.2-.9-3.2-.9-2.1 0-3.5.3-3.2.6M364.6 923.8c-.3.6.1 1.3 1 1.6 2.4.9 5.4.7 5.4-.4 0-.6-.6-1-1.4-1s-2.1-.3-2.9-.6-1.8-.1-2.1.4M374.5 925.1c-.5.7 2.9 1.9 5.8 1.9.9 0 1.7-.4 1.7-.9 0-1.1-6.9-2-7.5-1M287 928.1c0 1.6-.4 1.9-2.1 1.4-1.4-.5-2.5-.2-3 .6-.6 1-2.9 1.3-8.3 1-10.2-.4-9.9 1.5.3 2.4 6.6.6 8 1 8.4 2.6.3 1 2.1 2.6 4 3.5 3 1.4 4 1.5 6.6.4 2.8-1.1 3.1-1.7 3.1-5.6s-.4-4.7-3.2-6.4c-4.2-2.5-5.8-2.5-5.8.1m5.5 1.5c2.5 1.6 3.3 4.8 1.6 5.8-1.1.7-6.1-4.2-6.1-6s1.5-1.8 4.5.2m-5.3 3.1c2.4 2.2 2.5 6.5.1 5.6-2.7-.9-4.2-3.1-3.6-5.3.6-2.4 1.1-2.5 3.5-.3m5.8 5.4c0 .5-.4.9-1 .9-.5 0-1-.7-1-1.6 0-.8.5-1.2 1-.9.6.3 1 1 1 1.6M478.3 929.2c.2.7 1.3 3.9 2.3 7 1 3.2 2.1 5.8 2.6 5.8 1.2 0 1-1-1.3-7.8-1.1-3.4-2.5-6.2-3.1-6.2s-.8.6-.5 1.2M483.5 931.7c.5 1 1 3.2 1.3 5 .5 3.6.3 3.5 17.2 8.7 33.1 10 36.7 10.8 39.4 8 3.4-3.4 1.6-4.9-9.9-7.9-10.5-2.7-31.6-9.1-35-10.5-1.1-.5-3.8-1.4-6-2.1-2.2-.6-4.4-1.5-4.9-2-1.7-1.5-2.9-1-2.1.8M540 951c0 .5-.4 1-1 1-.5 0-1-.5-1-1 0-.6.5-1 1-1 .6 0 1 .4 1 1M484 945c0 2.1 2.5 9 3.2 9 1.2 0 .9-2.7-.6-6.5-1.5-3.4-2.6-4.5-2.6-2.5M415 949.5c0 1.4.5 2.5 1 2.5.6 0 1-1.1 1-2.5s-.4-2.5-1-2.5c-.5 0-1 1.1-1 2.5M415 958.4c0 2 .5 3.6 1 3.6.6 0 1-1.3 1-2.9 0-1.7-.4-3.3-1-3.6-.6-.4-1 .8-1 2.9M176.7 956.7c-.4.3-.7 5.7-.7 12V980h14.3c7.8.1 27.7.2 44.2.3l30 .2v-24l-43.6-.3c-23.9-.1-43.9.1-44.2.5m85.1 11.5-.3 10.3-23.5-.1c-12.9-.1-31.3-.2-40.7-.3L180 978v-20h82.1z"/><path d="M186 964c0 3.3.3 4 2 4 1.5 0 2 .7 2 2.4 0 1.4-.4 2.8-1 3.1-.5.3-1 .1-1-.4 0-.6-.7-1.1-1.6-1.1-1.9 0-1.4 2 .8 3.4 2.3 1.4 4.8-.9 4.8-4.4q0-2.85-2.7-4.8c-2.8-2.1-2.4-4.2.8-4.2 1.1 0 1.7-.5 1.4-1-.3-.6-1.7-1-3.1-1-2.1 0-2.4.4-2.4 4M197.1 961.9c-2.2 4.1-.4 14.7 2.3 13.8.6-.2 1.7-1.6 2.5-3.2 2.9-6.1-1.7-16.4-4.8-10.6m3.9 5.8c0 3.9-.9 6.5-2.1 5.7-1-.6-1.2-9.7-.2-10.7 1.1-1.1 2.3 1.5 2.3 5M217.4 961.5c-.9 2.4.6 3.9 2 1.9 1.8-2.4 2.9-.2 1.6 3.1-1.2 3.2-1.3 9.8-.1 9.1.5-.3 1.1-2.9 1.4-5.8s.8-6.3 1.2-7.6c.7-2 .4-2.2-2.4-2.2-1.8 0-3.4.6-3.7 1.5M229.1 961.4c-1.9 2.3-.9 7 1.7 8.1 2.3 1 2.9 2.9 1.2 4-.5.3-1 .1-1-.4 0-.6-.4-1.1-1-1.1-1.6 0-1.2 3 .5 3.6 2.8 1.1 4.5-1.6 4.5-6.8 0-7.6-2.8-11.1-5.9-7.4m3.9 3.6q0 3-1.5 3t-1.5-3 1.5-3 1.5 3M240.2 961.2c-.7.7-1.2 3.7-1.2 6.8 0 5.5 1.1 8 3.7 8 .8 0 1.8-1.2 2.4-2.7 1.2-3.2-.2-7.3-2.6-7.3-.8 0-1.5-.6-1.5-1.4 0-2 1.7-2.9 2.3-1.4.2.7.7 1 1.1.7 1-.9-.4-3.9-1.8-3.9-.7 0-1.7.5-2.4 1.2m3.3 9.8c0 1.3-.6 2.5-1.2 2.7-.9.3-1.3-.6-1.3-2.7s.4-3 1.3-2.8c.6.3 1.2 1.5 1.2 2.8M250 968c0 7.8.1 8 2.4 8 3.3 0 3.9-1.3 3.7-7.8-.2-6-1.3-8.2-4.2-8.2-1.7 0-1.9.8-1.9 8m4-3.5c0 1.4-.4 2.5-1 2.5-.5 0-1-1.1-1-2.5s.5-2.5 1-2.5c.6 0 1 1.1 1 2.5m.5 7c0 1-.6 2-1.2 2.2-.8.3-1.3-.5-1.3-2.2s.5-2.5 1.3-2.3c.6.3 1.2 1.3 1.2 2.3M207.2 967.7c-2 .8-.3 2.3 2.8 2.3 3.3 0 4.8-1.5 2.4-2.4-1.8-.7-3.3-.7-5.2.1M488.5 958.2c.3 1.3.9 3.3 1.2 4.6.4 1.7 1 2.1 2.4 1.7 2.1-.7 2.6.9.7 2.1-.6.4-1.9-.2-2.9-1.5-1.8-2.2-3.3-1.4-2.3 1.2.8 2.2 3 2.8 5.9 1.7 3.5-1.3 3.2-4.6-.5-6.5-1.8-.9-3-2.3-3-3.5 0-1.1-.5-2-1.1-2-.7 0-.9.8-.4 2.2M415.1 967.5c.1 4 .1 4 1.1 1.2.7-2.1.7-3.2-.1-4s-1.1 0-1 2.8M415 976.5c0 1.5.4 2.4 1 2 .6-.3 1-1.2 1-2s-.4-1.7-1-2c-.6-.4-1 .5-1 2M429.2 982.2c-.7.7-1.2 2.2-1.2 3.4 0 1.7-.7 2.4-2.7 2.7-2.7.4-2.7.4-.5 1.2 1.2.4 2.2 1.6 2.2 2.6 0 1.1 1.7 3 3.9 4.4 3.2 2.2 3.9 3.3 4.4 6.9.3 2.3.4 5.2.1 6.3s-.1 2.4.5 2.7c.8.5 1.1-1.3 1.1-5.6.1-6.6 2.1-10.8 5.4-10.8 1.8 0 4.6-3.7 4.6-6.2 0-2.6-4-5.8-7.4-5.8-1.7 0-4-.7-5-1.5-2.4-1.8-3.8-1.9-5.4-.3m3.2 2.4c1.5.6 1.5.8-.1 2-1.7 1.3-1.7 1.3 0 1.4 1.2 0 1.7.6 1.5 1.7-.2 1-1 1.7-1.6 1.5-1.5-.3-1.6 1.4-.2 2.3 2 1.2 4.2-1.7 3.6-4.7-.5-2.6-.4-2.8 1.4-1.8 2.1 1.1 2.6 3.5 1 4.5-.5.3-1 1.7-1 3.1 0 2.9-1.3 3-5.6.3-3.5-2.1-4.1-3.3-2.4-4.4.6-.3 1-1.9 1-3.6 0-3.1.1-3.2 2.4-2.3m10.5 8.5c-1.9 1.2-2.4.2-.8-1.7.9-1.1 1.4-1.3 1.7-.4.3.7-.2 1.6-.9 2.1M415 982.6c0 1.5 3.7 6.1 4.3 5.4.3-.3-.6-1.9-1.9-3.5-1.3-1.7-2.4-2.5-2.4-1.9M500 991.7c0 1.2.5 2.5 1 2.8 1.3.8 1.3-1.5 0-3.5-.8-1.2-1-1.1-1 .7M174 995.5c-1.5 1.8-.5 6.5 1.5 6.5 1.9 0 2.9 2 1.7 3.2-.8.8-1.6.7-2.8-.3-1.6-1.2-1.7-1.2-1.1.4.4 1 .7 2.1.7 2.3s.7.4 1.6.4c4.2 0 6.1-9.2 2.6-12.3-2.3-2.1-2.6-2.1-4.2-.2m3.8 2.8c.2 1-.3 1.7-1.2 1.7-1 0-1.6-.9-1.6-2.1 0-2.4 2.3-2.1 2.8.4M182.8 996.6c-1.1 2.4-1 2.9 1.7 5 2.5 1.9 2.7 2.6 1.6 3.6s-1.4 1-1.8 0c-.3-.6-.9-.9-1.4-.6-1.3.7.9 3.4 2.7 3.4s3.4-3.2 3.4-7c0-6.5-4-9.3-6.2-4.4m4.2 2c0 .8-.7 1.4-1.5 1.4-1.5 0-2.1-2.1-.9-3.3 1-.9 2.4.2 2.4 1.9M193.2 995.2c-1.6 2-1.3 10.4.4 11.8 1.1 1 1.8.9 3.3-.4 1.5-1.4 1.8-2.6 1.4-5.9-.6-4.1-1.8-6.7-3.3-6.7-.4 0-1.2.6-1.8 1.2m2.8 2.3c0 .8-.4 1.5-1 1.5-.5 0-1-.7-1-1.5s.5-1.5 1-1.5c.6 0 1 .7 1 1.5m.5 6.5c0 .7-.6 1.5-1.2 1.7-.8.3-1.3-.4-1.3-1.7s.5-2 1.3-1.8c.6.3 1.2 1.1 1.2 1.8M202 996.6c-2 5.1-.6 11.4 2.5 11.4 1.6 0 3.5-3 3.5-5.5 0-.8-1.1-2.1-2.5-2.7-3.1-1.4-2.7-3.4.5-3 1.9.2 2.1 0 1-1.3-1.9-2.2-3.9-1.8-5 1.1m3.8 7.1c-.4 2.2-2.2 2-2.6-.1-.2-1 .3-1.6 1.3-1.6s1.5.7 1.3 1.7M231.2 995.2c-1.7 1.7-1.5 10.3.3 11.8 2.3 1.9 4.3.5 5-3.4 1.2-6.4-2.1-11.6-5.3-8.4m3.2 2.4c.9 2.3.7 5.7-.4 7.4-.7 1.1-1.1.9-1.9-1.4-1.1-2.8-.5-7.6.9-7.6.4 0 1.1.7 1.4 1.6M259.2 995.2c-1.3 1.3-1.7 3.8-.6 3.8.4 0 1.3-.8 2-1.8 1.2-1.6 1.3-1.6 2 .1.4 1.3-.2 2.7-2.1 4.7-3.2 3.3-2.8 6 1 6 3 0 3.4-1.7.4-2.2-2-.3-1.9-.4.5-3.7 1.8-2.4 2.3-3.9 1.7-5.5-1-2.5-3.1-3.2-4.9-1.4M213 999c-2.2 4.3-2.2 4.3.1 6.1 4 3.1 4.2 2.8 3.9-4.6-.2-5.8-1.5-6.3-4-1.5m1.6 4.7c-1.1 1.1-1.9-.6-1.1-2.4.8-1.7.8-1.7 1.2 0 .3 1 .2 2.1-.1 2.4M241.4 998.7c-1 2.1-1.9 4.1-2.1 4.5-.4.9 5.6 3.8 6.1 3 .9-1.5 0-10.6-1.1-10.9-.6-.2-1.9 1.3-2.9 3.4m2.6 2.7c0 .8-.4 1.8-1 2.1-.5.3-1-.3-1-1.4 0-1.2.5-2.1 1-2.1.6 0 1 .6 1 1.4M250.5 996c-.4.7-.2 1.7.4 2.3s1.1 3.1 1.1 5.6c0 3.2.3 4.2 1.1 3.4 1.3-1.3.7-11.5-.8-12-.6-.2-1.4.1-1.8.7M502 997.2c0 .9.5 2 1 2.3 1.3.8 1.3-.5 0-2.5-.8-1.3-1-1.3-1 .2M221 1002c0 .5 1.4 1 3 1 1.7 0 3-.5 3-1 0-.6-1.3-1-3-1-1.6 0-3 .4-3 1M504 1004.5c0 .2.4 1.4.9 2.7s1.2 3.2 1.5 4.2c.4 1 .9 1.7 1.2 1.4.7-.7-1.9-8.8-2.8-8.8-.5 0-.8.2-.8.5M391.8 1014.7c-1.6.4-1.8 1.8-1.8 12.4 0 11.5.1 11.9 2.3 12.3 1.2.3 21 .7 44 1l41.7.5.1-4.2c0-2.3.1-7.7.3-12 .1-4.3-.1-8-.5-8.2-.4-.3-17.8-.7-38.6-1s-39.6-.7-41.8-.9-4.8-.1-5.7.1m31.2 2.8c10.7.2 27.1.5 36.3.5h16.8l-.5 6.7c-.3 3.8-.5 8.5-.5 10.7-.1 3.9-.1 3.9-5.3 3.3-2.9-.4-21.4-.7-41-.7l-35.8-.1v-10.4c0-11.5 0-11.5 7.5-10.8 1.7.1 11.8.5 22.5.8"/><path d="M400 1020c-1.7 3.3-.9 7.5 1.5 7.5 1.3 0 2 .7 2 2 0 1.5-.6 1.9-2.3 1.7-1.8-.1-2.3.2-2 1.5.5 2.5 3.9 2.9 5.5.7 2-2.7 1.6-5.2-1.2-8-2.6-2.6-2.5-4.4.1-4.4 2 0 1.2-2.4-.9-2.8-.8-.2-2.1.6-2.7 1.8M411.3 1020.2c-4.3 5.4-1.1 18 3.4 13.6 1.8-1.9 2-12.7.2-13.9-1.9-1.2-2.5-1.1-3.6.3m2.7 6.3c0 3-.4 5.5-1 5.5-1.1 0-1.4-9.3-.3-10.3 1.2-1.2 1.3-.8 1.3 4.8M432.1 1020.4c-.6.7-1.1 2.9-1.1 4.7v5.8c-.1 3.4 2.5 5.9 4.8 4.5 1.3-.8 1.7-2.6 1.8-7 .2-8.3-2.3-11.9-5.5-8m3.6 4c-.4.9-1.1 1.6-1.7 1.6-1.1 0-1.4-3.3-.3-4.4 1.1-1 2.6 1.1 2 2.8m-.2 6.6c0 1.3-.5 2.5-1.2 2.7-1.3.5-2.7-3.2-1.8-4.7 1.1-1.8 3-.5 3 2M443.8 1024.4c-3.4 5.3-3.5 6.2-.4 7 1.8.4 2.3 1.1 1.9 2.6-.4 1.4 0 2 1 2s1.7-1.1 1.9-2.8c.4-3.9-.3-13.2-1-13.2-.4 0-1.9 2-3.4 4.4m2.2 3c0 .3-.4.8-1 1.1-.5.3-1 .1-1-.4 0-.6.5-1.1 1-1.1.6 0 1 .2 1 .4M455 1020.2c-.1.2-.2 3.8-.3 8.1-.2 6.9 0 7.7 1.7 7.7 1.2 0 1.6-.5 1.2-1.6-.3-.9-.6-4.5-.6-8 0-3.6-.4-6.4-1-6.4-.5 0-1 .1-1 .2M463.2 1022.5c-.7 1.4-1.2 3.9-1.2 5.5 0 5 2 8 5.2 8 2.5 0 2.8-.3 2.8-3.5v-4.3c0-.4-.6-.7-1.2-.7-.7 0-1.2.8-1 1.9.2 1 .1 2.5-.2 3.3-.5 1.2-.9 1.3-2.1.3-1.5-1.3-2-6.5-.9-9.4.7-1.7 3.4-2.2 3.4-.6 0 .5.5 1 1 1 .6 0 1-.9 1-2 0-3.2-5.3-2.7-6.8.5M420.5 1027.1c-.4.5.3 1 1.4 1 1.2.1 2.6.2 3.1.3.6.1 1.1-.3 1.3-.8.3-1.2-5.1-1.7-5.8-.5M509 1018.1c0 1.5 3.3 9.9 3.7 9.5.6-.6-1.6-7.8-2.8-9.1-.5-.5-.9-.7-.9-.4M514 1032c0 2.2 2.5 9 3.4 9 .4 0 .5-.8.1-1.8-.3-.9-.9-2.9-1.2-4.5-.6-2.7-2.3-4.8-2.3-2.7M519 1045.5c0 2.3 3.5 12.5 4.3 12.5.5 0 .6-.8.2-1.8-.4-.9-1.3-3.7-2.2-6.2-1.5-4.6-2.3-6-2.3-4.5M524.5 1062.9c-.3.5-.1 1.2.5 1.6.5.3 1-.1 1-.9 0-1.8-.6-2.1-1.5-.7M484 817.9c0 11.9 0 11.9 2.8 12.5 1.5.3 21.7.8 45 1.1l42.2.7v-25l-5.7-.5c-3.2-.2-23.5-.5-45-.6L484 806zm69.8-8.9H571v10.6c0 9-.2 10.5-1.5 10-.8-.3-18-.6-38.2-.7-20.3-.1-38.5-.4-40.5-.6-3.8-.5-3.8-.5-3.8-10.5v-10.1l24.8.6c13.6.4 32.5.7 42 .7"/><path d="M493.4 811.4c-.3.8-.4 2.7-.2 4.3.2 2.3.7 2.7 2.6 2.5 1.8-.3 2.2.2 2.2 2.2 0 2.9-1.9 4.4-3.1 2.5-1.1-1.8-2.1-.6-1.3 1.5.8 2 3.7 2.1 5.3.2 1.9-2.3.9-7-1.7-8.1-2.3-1-2.6-3.9-.4-4.1.6-.1 1.7-.2 2.3-.3.5 0 .7-.6.4-1.1-.9-1.5-5.5-1.2-6.1.4M505.3 812c-1.8 2.8-1.7 11.5.2 13 2.3 1.9 4.3.5 5.1-3.6 1.4-7.6-2.4-14.2-5.3-9.4m3.7 5c0 4.6-.9 7.2-2.1 6.4-1-.6-1.2-9.7-.3-10.7 1.4-1.3 2.4.6 2.4 4.3M526.7 812c-.3 1.1-.1 2.3.4 2.6s.9 0 .9-.5c0-.6.5-1.1 1.1-1.1 1.1 0 1 1.9-.7 9.9-.5 2.6-.4 3.3.6 2.9.8-.2 1.5-2 1.7-3.9s.8-5 1.3-6.9c1.4-4.9 1.3-5-1.9-5-2 0-3 .6-3.4 2M538 812.6c-1.3 3.4-.3 7.1 2.1 7.7 1 .3 1.9 1.2 1.9 2.1 0 1.9-1.1 2.1-2.8.4-.9-.9-1.2-.7-1.2.9 0 2.7 2.5 3.6 4.5 1.7 1.7-1.8 2.1-10.5.5-13.5-1.5-2.7-3.9-2.4-5 .7m4 3c0 1.3-.4 2.4-.9 2.4-1.3 0-2.4-3.7-1.6-5 1-1.6 2.5-.1 2.5 2.6M548.7 810.7c-.4.3-.7 1.8-.7 3.2 0 2.4.1 2.4 1.4.5 2.2-2.9 3-1 1.7 4-1.3 5.4-1.4 7.6-.2 7.6.9 0 4-14.8 3.2-15.5-.7-.7-4.7-.6-5.4.2M559.6 817.7c-1.9 7.9-2 9.3-.6 9.3.6 0 1-1.1 1-2.5 0-1.8.5-2.5 2-2.5s2 .7 2 2.5c0 1.4.5 2.5 1 2.5 1.2 0 1.3-2.4.1-7-.5-1.9-1.2-4.7-1.5-6.3-1-4.4-2.2-3.2-4 4m2.9.3c.3.5.1 1-.4 1-.6 0-1.1-.5-1.1-1 0-.6.2-1 .4-1 .3 0 .8.4 1.1 1M515.7 817.6c-1.2 1.3.4 2.4 3.4 2.4 2 0 2.9-.4 2.7-1.3-.5-1.3-5-2.2-6.1-1.1M432 813c-1.8 1.6-2.4 3.1-2.4 7.1-.1 5.9.9 6.9 6.5 6.2 2.9-.4 4.1-.1 5.5 1.6 2.4 2.7 3.5 2.7 6.8-.4 2.1-2 2.5-2.9 1.7-4.4-.6-1-.7-2.1-.4-2.5.3-.3 7.8-.6 16.6-.6 12.2 0 15.8-.3 15.4-1.3-.3-.9-4.4-1.2-16.3-1.2-15.4 0-16-.1-18.4-2.3-4.9-4.6-11.2-5.5-15-2.2m12.9 2.4c1.2 1.3 1.3 2 .5 3.4-2.3 3.6-8.5 4.1-12.8.9-2.2-1.6-1.5-5.3 1.2-6.1 3-.8 9.4.2 11.1 1.8m3.1 5.5c0 1.2-2.1 2.8-5 3.5-2.4.7-2.4.7-.5-.8 1.1-.8 2.5-2 3-2.5 1.3-1.3 2.5-1.4 2.5-.2M447.5 835.9c-3.1.9-5.1 2.4-6.4 4.9-1 1.9-.8 2.6 1.3 4.7 1.4 1.4 2.9 2.5 3.4 2.5.6 0 2 2.1 3.2 4.7 2.4 5.2 5.7 8.6 7.2 7.7.6-.4.8-2.7.4-5.5l-.7-4.9H469c8 0 13-.4 13-1s-5.3-1-13.9-1c-14.9 0-16.1-.4-13.3-4.8 2.8-4.3-1.7-8.8-7.3-7.3m6.2 3.7c.7 2-3.4 6.4-6 6.4-2.7 0-5.7-2.8-5-4.7.5-1.2.7-1.2 1.5-.1.7 1 1.1 1 1.5 0 .2-.6 1.3-1.2 2.4-1.2 1 0 1.9-.5 1.9-1 0-1.6 3-1.2 3.7.6m-2.6 9.7c-.8.8-1.1.7-1.1-.4 0-2 1.3-3.4 1.8-1.9.3.7-.1 1.7-.7 2.3m2.4 2.7c-.3.5-1 1-1.6 1-.5 0-.9-.5-.9-1 0-.6.7-1 1.6-1 .8 0 1.2.4.9 1m1 3c-.3.5-1 1-1.6 1-.5 0-.9-.5-.9-1 0-.6.7-1 1.6-1 .8 0 1.2.4.9 1M483.8 848.3c-.2 6.5-.1 12.2.2 12.7.3.4 20.1.9 44 1.1l43.5.4.3-12.2.3-12.1-8.3-.6c-4.6-.3-24.4-.7-44-.9l-35.7-.3zm75-8.3H569v20l-37.2-.1c-20.5-.1-39.2-.4-41.5-.6-4.3-.5-4.3-.5-4.2-9.7.1-5 .4-9.5.7-10s13.3-.6 31.1-.3c16.8.4 35.2.7 40.9.7"/><path d="M493.1 841.4c-.7.8-1.1 3-.9 4.8.2 2.8.7 3.3 2.6 3 1.8-.3 2.2.2 2.2 2.2 0 3.1-1.6 4.2-2.8 2-.7-1.2-1.1-1.3-1.6-.5-.9 1.4 1.1 4.1 3 4.1 1.6 0 3.4-3.1 3.4-5.9 0-1.1-1.2-2.9-2.6-4-2.6-2-2.5-4.1.2-4.1.8 0 1.4-.7 1.4-1.5 0-1.9-3.4-2-4.9-.1M505 841.2c-.1.2-.2 3.8-.3 8-.2 6.7 0 7.8 1.6 8.2 1.5.4 1.8 0 1.3-1.7-.3-1.2-.6-5-.6-8.5 0-3.4-.4-6.2-1-6.2-.5 0-1 .1-1 .2M524 849.5c0 5 .4 8.5 1 8.5s1-1.8 1-4 .5-4 1-4c.6 0 1 .8 1 1.8 0 2.4 2.6 5.9 3.6 4.9.5-.4.2-1.7-.5-2.8-.8-1.4-1-3.5-.6-6 .8-4.6-.6-6.9-4.1-6.9-2.3 0-2.4.2-2.4 8.5m4.5-4c0 1-.6 2-1.2 2.2-.8.3-1.3-.5-1.3-2.2s.5-2.5 1.3-2.3c.6.3 1.2 1.3 1.2 2.3M535.6 843.2c-2.2 3.2-2.1 10 .3 12.9 2 2.4 2 2.4 4.2.2 1.3-1.2 2-2.6 1.5-3-.4-.4-1.1-.1-1.6.6-.4.8-1.5 1.1-2.4.8-1.2-.5-1.6-2-1.6-5.6 0-5.3 1.6-7.4 3.5-4.8 1.7 2.4 2.7 2.1 2.3-.6-.4-3.1-4.2-3.5-6.2-.5M546.9 842.6c-2 2.4-1.8 11.9.3 14 2.4 2.4 4.8.3 4.8-4.2 0-2.5-.6-3.6-2.5-4.6-1.8-1-2.2-1.7-1.5-2.8.8-1.2 1.1-1.3 1.9-.1.6.9 1 1 1.6.2.7-1.2-1.1-4.1-2.5-4.1-.4 0-1.3.7-2.1 1.6m3.1 10c0 3.1-2.3 2.8-2.8-.4-.2-1.5.2-2.2 1.2-2.2 1.1 0 1.6.9 1.6 2.6M513.5 849c-.3.5 0 1 .7 1s2.3.3 3.6.6c1.6.5 2.2.2 2.2-1 0-1.8-5.4-2.3-6.5-.6M456 864.2c.1.7.7 2.4 1.5 3.8 1.5 2.6 1.9 1.2.9-2.8-.7-2.3-2.4-3.1-2.4-1M460.5 877.2c.3 1.3.9 3.3 1.2 4.5.5 2 2.3 3.3 2.3 1.7 0-2.1-2.5-8.4-3.3-8.4-.5 0-.6 1-.2 2.2M530.8 1081.5c.9 2.4 1.8 4.3 2 4.1.7-.7-1.9-8.6-2.8-8.6-.5 0-.2 2 .8 4.5M533 1088.3c0 1.6 3.4 9.7 4 9.7 1.1 0-1.8-8.8-3.1-9.6-.5-.3-.9-.3-.9-.1M538 1101.9c0 .5.5 2.2 1 3.7.9 2.2.8 2.9-.5 3.7-1 .5-1.4 1.6-1 2.8.5 1.3.2 1.9-1 1.9-2.6 0-3.1-3.1-.7-5.1 2.6-2 2.8-2.9.8-2.9-1.7 0-4.6 3.8-4.6 6 0 .9 1.2 2.3 2.8 3.2 1.5.9 3.3 3.3 4.1 5.5 2.1 5.8 4.9 9.3 7.5 9.3 3.6 0 4.9-2.3 4.2-7.5l-.7-4.4 9.7-.3c6.2-.2 9.9-.7 10.1-1.4.3-.9-2.4-1-9.7-.7-10 .5-10 .5-10-2.1s-4-5.6-7.5-5.6c-.9 0-1.8-1.2-2.2-3-.5-2.9-2.3-5.2-2.3-3.1m10 11.6c0 1.5-3 3.5-5.2 3.5-.7 0-.2-.7 1-1.6 1.2-.8 2.2-2.2 2.2-3s.5-1.2 1-.9c.6.3 1 1.3 1 2m-5 0c0 .3-.2.5-.5.5s-.5-.2-.5-.5.2-.5.5-.5.5.2.5.5m5 7.1c0 3.2-4.7 4.5-6.7 1.9-2.2-3.1-1.5-4 2.7-4.1 3.6-.1 4 .1 4 2.2m.2 6.6c-.6.6-1.9.7-2.9.4-1.6-.7-1.6-.9.7-2.1 2.6-1.4 4.1-.2 2.2 1.7M572.7 1103.7c-.4.3-.7 5.9-.7 12.4v11.7l14.3.7c7.8.3 27.6.5 44 .3l29.8-.3.1-11.8c.1-6.4-.1-11.9-.3-12.1-.8-.6-86.6-1.6-87.2-.9m84.2 2.9c1 .3 1.2 2.5.8 10-.3 5.3-.8 9.8-1.1 10.1-.5.5-23.4.3-34.6-.2-3-.2-14.8-.3-26.2-.4l-20.8-.1v-9.8c0-5.4.2-10.1.5-10.3.5-.6 79.5.1 81.4.7"/><path d="M581.4 1109.4c-.9 3.8-.1 6.1 2.4 6.4 3.3.5 2.7 4.8-.6 4.5-2.4-.3-2.8.7-1 2.5s3.3 1.4 4.8-1.2c1.6-3.1.5-7.6-2-8.3-2.7-.7-2.5-3.1.3-3.5 2.9-.4 2.4-2.2-.7-2.6-2-.3-2.7.2-3.2 2.2M593.2 1108.2c-1.8 1.8-1.6 13.3.3 14.8 2.8 2.3 4.5-.5 4.5-7.4 0-5.5-1.1-8.6-3-8.6-.3 0-1.1.5-1.8 1.2m2.8 7.3c0 3-.4 5.5-1 5.5-.5 0-1-2.5-1-5.5s.5-5.5 1-5.5c.6 0 1 2.5 1 5.5M613.7 1107.6c-.4.4-.7 1.9-.7 3.3 0 2.3.1 2.4 1.3.6 2.1-2.7 2.9-.4 1.7 4.7-1.2 5.4-1.3 7.8-.1 7.8.5 0 1.3-2.6 1.7-5.8.3-3.1 1.1-6.5 1.6-7.5s.8-2 .6-2.2c-.8-.9-5.4-1.5-6.1-.9M625 1108.5c-1.3 1.5-1.6 6.6-.6 8.4.4.6 1.4 1.1 2.2 1.1s1.4.9 1.4 2.1c0 1.8-.2 1.9-1.5.9-1.9-1.5-3-.7-2.1 1.5.3 1 1.5 1.5 2.8 1.3 2-.3 2.4-1.1 2.9-5.8.3-3 .2-6.5-.2-7.6-1-2.7-3.4-3.7-4.9-1.9m3 4.5c0 1.6-.4 3-1 3-.5 0-1-1.4-1-3 0-1.7.5-3 1-3 .6 0 1 1.3 1 3M635.2 1109.7c-.5 1-.8 4.5-.8 7.8.1 5.7.2 6 2.7 6.3 1.9.2 2.8-.3 3.7-2.2.8-1.8.8-2.7.1-3.2-.6-.4-.8-2-.5-3.9.4-1.8.4-4 0-4.9-.8-2.1-4.1-2.1-5.2.1m3.8 2.3c0 1.1-.7 2-1.5 2s-1.5-.9-1.5-2 .7-2 1.5-2 1.5.9 1.5 2m-.3 6.1c1.4 1.4.6 3.9-1.3 3.9-.8 0-1.4-1-1.4-2.5 0-2.7.9-3.2 2.7-1.4M602 1116c0 .5 1.6 1 3.5 1s3.5-.5 3.5-1c0-.6-1.6-1-3.5-1s-3.5.4-3.5 1"/></svg>