<svg xmlns="http://www.w3.org/2000/svg" viewBox="0 0 864 1214" fill="currentColor"><path d="M707 199.5c-1.5 1.9-.5 6.5 1.5 6.5.8 0 1.5.9 1.5 2 0 2.3-1 2.6-2.8.8-.9-.9-1.2-.9-1.2-.1 0 1.7 1.8 2.5 4 1.8 1.6-.5 2-1.5 2-5.4 0-6.2-2.3-8.8-5-5.6m3 3.1c0 1.4-.4 2.3-1 1.9-.5-.3-1-1.5-1-2.6 0-1 .5-1.9 1-1.9.6 0 1 1.2 1 2.6M716 200c-1.3 2.4.3 6 2.6 6 .9 0 1.4.7 1.2 1.7-.3 1.2-1.2 1.7-2.8 1.5-1.9-.2-2.2 0-1.3.9.7.7 2.3.9 3.7.5 2.3-.6 2.6-1.1 2.6-5.4 0-6.7-3.6-9.7-6-5.2m3.8 2.2c-.2 1.3-.7 2.3-1.3 2.3-.5 0-1.1-1-1.3-2.3-.2-1.5.2-2.2 1.3-2.2s1.5.7 1.3 2.2M725.5 200c-1 3 .4 6 2.6 6 1.4 0 1.9.5 1.7 1.7-.3 1.2-1.2 1.7-2.6 1.6-1.2-.2-2.2.2-2.2.7 0 .6 1.1 1 2.5 1 4.2 0 6-6.4 2.9-10.8-1.9-2.7-4.1-2.8-4.9-.2m4 2.3c0 2.6-2 2.5-2.3-.2-.3-1.6.1-2.2 1-1.9.7.3 1.3 1.2 1.3 2.1M735.2 200c-1.5 2.5-1.6 8.2 0 9.8 3.1 3.1 5.8.8 5.8-4.9 0-6-3.3-8.8-5.8-4.9m3.6 5.6c-.2 2.2-.7 3.9-1.3 3.9-1.2 0-1.9-6-1-8.3 1-2.8 2.7.3 2.3 4.4M783.6 199.9c-3.2 3.6-.8 12.9 3 11.4.7-.3 1.6-2 2-3.9 1.2-6.7-1.7-11.1-5-7.5m3.4 6.3c0 2.7-.4 3.8-1.5 3.8s-1.5-1.1-1.5-4.3c0-2.4.3-4.7.7-5 1.1-1.2 2.3 1.6 2.3 5.5M746 200.5c-.9 1-.9 1.5-.1 1.5.6 0 1.1 1.9 1.1 4.6s.4 4.3 1 3.9c1.2-.8 1.3-10.2.1-10.9-.5-.3-1.4.1-2.1.9M765.7 199.7c-.7 1.5.5 11.3 1.4 11.3 1.2 0 1.2-10.7 0-11.5-.5-.3-1.1-.2-1.4.2M773 200.9c-1.5 3-1.2 6.6.9 9.2 1.5 1.9 2.1 2.1 3.4 1.1 2-1.7 2.9-6.6 1.7-9.7-1.1-3-4.5-3.3-6-.6m4.8 5q-.3 3.6-1.8 3.6c-1.7 0-2.5-3.5-1.5-7.2.9-3.9 3.7-1 3.3 3.6M792.7 199.6c-1.4 1.4-.7 10.1.8 11.4 2.7 2.3 4.6-.6 4.3-6.4-.3-4.3-.6-5.1-2.3-5.4-1.2-.2-2.4 0-2.8.4m3.6 4c.6 3.7.1 6.4-1.3 6.4-.9 0-1.9-6.9-1.2-8.8.8-2.3 1.9-1.2 2.5 2.4M802.7 199.7c-.4.3-.7 3.3-.7 6.5 0 6 .6 6.7 4.4 5.2 1.2-.5 1.6-2 1.6-5.9s-.4-5.4-1.6-5.9c-2-.8-2.9-.8-3.7.1m3.2 5.8c0 5.3-1.2 7.4-2.1 3.7-.6-2.4.3-9.2 1.2-9.2.4 0 .8 2.5.9 5.5M755.5 206c.3.5 1.3 1 2.1 1s1.4-.5 1.4-1c0-.6-.9-1-2.1-1-1.1 0-1.7.4-1.4 1M611.7 212.1c-1 .6-3.1.7-4.7.4-2.7-.6-3-.4-3 1.7 0 1.3-.4 2.8-.9 3.3-.5.6-1.1 2.1-1.3 3.5s-1 2.5-1.8 2.5c-3.3.1-8 2.8-8 4.6 0 1.2-1 2.1-2.6 2.5-1.5.4-21.3.4-44 0-28.7-.5-41.4-.4-41.4.3s5.9 1.1 17.3 1.1c9.4 0 28.7.3 42.6.7 24.3.6 25.7.7 30.3 3 4.2 2.1 4.8 2.8 4.8 5.5 0 1.7.3 2.9.6 2.5.3-.3.6-2.1.6-4 0-3 .4-3.5 3.7-4.7 6.6-2.4 10.1-5.2 10.1-8.3 0-3.3 2.4-3.6 7.5-.7 3.6 2 3.6 2 7.5-.6 2.2-1.5 4-3 4-3.4 0-1.3-4.4-4.3-11.2-7.7-1.5-.8-3-1.8-3.3-2.4-.8-1.2-4.5-1.1-6.8.2m11.8 4.6c3.5 2.1 6.6 4.4 6.9 5.1.8 1.9-4.5 3.7-5.9 2-.5-.8-3-2.6-5.5-4.1-6.9-4.1-7.3-4.4-6.6-5.6 1.3-2 4.5-1.2 11.1 2.6m-4.8 5c.2.5-1.6.8-4 .7-5-.2-10.1-3-9.3-5.1.4-.8.6-1.9.6-2.3 0-1.1 12.3 5.4 12.7 6.7m-10.9.3c2.8 1.4 4.2 2.7 4.2 4 0 2.5-.4 2.5-5.1-.2-2.3-1.3-3.9-2.9-3.9-4 0-2.2-.3-2.2 4.8.2m-4.8 8.5c-1.6 1.9-3 1.9-3 0 0-.8.4-1.5 1-1.5.5 0 .6-.8.3-1.8-.6-1.6-.6-1.6 1.1.1 1.4 1.4 1.6 2 .6 3.2m6.5-2.1c1.8 1.3 1.5 1.6-4.7 4.7-6 2.9-6.9 3.1-9.7 1.9-1.7-.7-3.1-1.9-3.1-2.6 0-1.8.4-1.7 4 .1 2.7 1.4 3.3 1.4 6.1-.1 1.7-.8 3.4-2.4 3.6-3.5.6-2.3 1.3-2.4 3.8-.5m-11.8 1.1c.3.9.3 1.8.1 2.1-.9.9-3.8-.8-3.8-2.2 0-1.9 2.9-1.8 3.7.1M756 236.7v22.8l-17.7 17.7c-16.8 16.8-17.7 17.6-20.9 17.1-4.3-.7-9.4 2.7-9.4 6.3 0 3.7 2.6 8.1 5.8 9.8 2.4 1.3 3.1 1.2 6.4-.6 4.5-2.5 5.2-4.8 3.1-10.1-1.7-4.1-1.7-4.1 16.5-21.7l18.2-17.6v-23.2c0-14.8-.4-23.2-1-23.2s-1 8.2-1 22.7M716 296c0 .5-.4 1-1 1-.5 0-1-.5-1-1 0-.6.5-1 1-1 .6 0 1 .4 1 1m5 2.5c1.3 1.6 1 4.7-.6 5.2-1.4.5-3.8-4.2-3-5.6 1-1.5 2.1-1.4 3.6.4m-6.6 1.1c.4 1.1.2 1.5-.8 1.1-.7-.3-1.9 0-2.5.6-.8.8-1.1.5-1.1-1.1 0-2.6 3.4-3.1 4.4-.6m-.4 5.5c0 .6-.4.7-1 .4-.5-.3-1-1.1-1-1.6 0-.6.5-.7 1-.4.6.3 1 1.1 1 1.6m4 1.9c0 2.3-.4 3-2 3-2.3 0-2.7-1.5-.5-2.4.8-.3 1.5-1.2 1.5-2.1 0-.8.2-1.5.5-1.5s.5 1.3.5 3m5-1.6c0 1.6-1.8 3.1-2.7 2.2-.8-.8.5-3.6 1.7-3.6.5 0 1 .6 1 1.4M412.8 216.5c-.7.7-.1 21.2.7 22.5.4.6 16.2 1 44.5 1 40.9 0 43.9-.1 44.3-1.8.3-.9.4-6.2.3-11.7l-.1-10-44.6-.3c-24.5-.1-44.8 0-45.1.3m87 11.3.3 10.2-42.3-.2-42.3-.3-.1-9.5c-.1-5.2.1-9.9.3-10.3.3-.5 19.2-.7 42.1-.5l41.7.3z"/><path d="M422.7 219.7c-.4.3-.7 2.1-.7 4 0 2.6.4 3.3 1.9 3.3 2.5 0 3.4 1.5 2.6 4.1-.5 1.4-1.2 1.8-2.6 1.4-2.2-.7-2.6 1-.4 1.9 2.9 1.1 4.5-.5 4.5-4.4 0-3-.5-4-2-4.5-2.7-.9-2.7-4.5.1-4.5 1.1 0 1.7-.5 1.4-1-.7-1.1-3.8-1.3-4.8-.3M435.9 219.2c0 .2-.1 3.8-.2 8.1-.2 5.6.1 7.7 1.1 7.7 1.5 0 1.7-14.6.2-15.5-.5-.3-1-.5-1.1-.3M457.1 220.4c-1.7 2-1.9 12.2-.3 13.8 1.8 1.8 4.6-.2 5-3.4.3-2.5-1.5-5.2-4-6-.7-.3-.9-1.2-.5-2.2.6-1.6 1-1.6 2.3-.5 1.4 1.2 1.6 1.1 1.3-.5-.5-2.5-2.3-3-3.8-1.2m2.9 9.5c0 3.4-1.5 4.9-2.4 2.5-1.1-2.8-.6-5.4.9-5.4 1 0 1.5 1 1.5 2.9M466 227.1c0 8 0 8 3.2 7.7 1.7-.2 3.3-1 3.6-1.8.4-1.2.2-1.3-.9-.3-2.3 2.2-3.9 1.5-3.9-1.7q0-3 1.5-3c.8 0 1.5-.5 1.5-1 0-.6-.7-1-1.5-1-1 0-1.5-1-1.5-2.6 0-2.1.4-2.5 2-2.1 1.3.3 2 0 2-.9s-1.1-1.4-3-1.4c-3 0-3 0-3 8.1M478.2 220.2c-.7.7-1.2 2.1-1.2 3.2 0 2 .2 1.9 2-.4 2-2.5 2-2.5 2 .5 0 1.7-.6 3.9-1.4 5-.7 1.1-1.7 3-2.1 4.3-.6 2.2-.4 2.3 2.6 2 1.8-.2 3.4-.9 3.7-1.7.3-.9-.2-1.1-1.7-.6-2.5.8-2.7-.8-.6-4.5.8-1.4 1.4-3.5 1.5-4.7 0-2.7-3.2-4.7-4.8-3.1M446.3 227.7c.9.2 2.3.2 3 0 .6-.3-.1-.5-1.8-.5-1.6 0-2.2.2-1.2.5M641.3 237.7c-.7.2-1.3 1.8-1.3 3.4 0 2.2.5 2.9 2 2.9 1.4 0 2 .7 2 2.1 0 1.6-.5 2-2 1.6-1.1-.3-2-.1-2 .4 0 1.6 2.9 2.2 4.5.9 1.8-1.5 2-9.1.3-10.8-1.3-1.3-1.6-1.3-3.5-.5m2.7 3.3c0 2.1-1.5 2.7-2.5 1-.7-1.2.2-3 1.6-3 .5 0 .9.9.9 2M650 238.5c-1.6 1.9.2 6.5 2.5 6.5.8 0 1.5.7 1.5 1.5s-.9 1.5-2 1.5-2 .4-2 1c0 1.6 3.2 1.1 4.6-.8 1.8-2.4 1.7-7.7-.2-9.6-1.9-2-2.8-2-4.4-.1m4 3.2c0 1.6-2.6 1.7-3.5.3-.4-.6-.1-1.8.6-2.6 1-1.2 1.4-1.2 2-.2.5.7.9 1.9.9 2.5M659 238.9c-1.3 2.5-.4 4.8 2.1 5.6 2.7.9 2.5 3.9-.2 3.2-1.3-.3-1.9-.1-1.6.6.8 2.4 3.7 1.9 4.7-.8 1.4-3.8 1.2-7.1-.6-8.9-2-2.1-3.1-2-4.4.3m4 2.2c0 1-.7 1.9-1.5 1.9-1.5 0-2.1-3.1-.9-4.3 1.1-1 2.4.3 2.4 2.4M668.5 238c.3.5 1.2 1 1.9 1 1.1 0 1.1.7.1 3.7-.7 2-1 4.4-.7 5.3.4 1 .8.6 1.2-1.5.4-1.7 1.2-4 1.9-5.3 1.5-2.8.7-4.2-2.5-4.2-1.4 0-2.2.4-1.9 1M706.7 237.6c-1.4 1.4-.7 10.1.8 11.4 2.7 2.3 4.6-.6 4.3-6.4-.3-4.3-.6-5.1-2.3-5.4-1.2-.2-2.4 0-2.8.4m3.3 5.4c0 2.7-.4 5-1 5-.5 0-1-.3-1.1-.8 0-.4-.2-1.8-.4-3.2-.4-3.1.3-6 1.6-6 .5 0 .9 2.2.9 5M715.4 239.5c-.8 3.4.3 9.2 2 9.8 3.5 1.4 6.4-8.1 3.4-11.1-2-2-4.7-1.4-5.4 1.3m4.6 4.1c0 3.2-.4 4.4-1.2 4.2-1.4-.5-2.3-6.1-1.4-8.5 1.1-2.7 2.6-.2 2.6 4.3M725 239.5c-1.1 3-.3 8 1.6 9.5 1.8 1.6 5.4-2.2 5.4-5.6 0-6-5.1-8.9-7-3.9m4.8 4.4c-.4 4.8-3.2 5-3.6.3-.5-4.9.4-6.8 2.4-5.1 1 .8 1.4 2.5 1.2 4.8M735.3 237.6c-1.9.8-1.7 9.8.3 11.5 2.9 2.4 4.9-.1 4.9-6.2 0-4.7-.3-5.4-2-5.6-1.1-.1-2.6.1-3.2.3m3.7 2.4c0 1.1-.7 2-1.5 2-1.5 0-2.1-2.1-.8-3.3 1.2-1.3 2.3-.7 2.3 1.3m.8 5.8c.3 1.7-.2 2.2-1.7 2.2q-2.1 0-2.1-1.8c0-3.8 3.3-4.1 3.8-.4M678.5 238.9c-.3.5-.1 1.2.5 1.6.5.3 1 2.4 1 4.6 0 2.4.4 3.8 1 3.4.6-.3 1-2.8 1-5.6 0-3.6-.4-4.9-1.4-4.9-.8 0-1.7.4-2.1.9M698.4 240.2c.3 1.3.6 3.8.6 5.6 0 2 .4 3.1 1 2.7.6-.3 1-2.8 1-5.6 0-3.8-.3-4.9-1.6-4.9-1.2 0-1.5.6-1 2.2M689 244c-1.2.8-1.1 1 .8 1 1.2 0 2.2-.5 2.2-1 0-1.3-1.1-1.3-3 0M599 250.8c0 2.3.3 4.2.8 4.2.9 0 .8-6.8-.2-7.7-.3-.3-.6 1.2-.6 3.5M689 281.2c.1 16.1.1 30.2 0 31.2-.2 3.2 1.7 4.2 4 2.1 1.6-1.4 2.2-1.5 3.5-.5 2.2 1.8 1.8 3.8-.7 4.2-3.4.5-3.4 3.3.1 4.7 5.6 2.4 9.9-2.9 7-8.7-2-4.1-6.1-8.2-8-8.2-1 0-2-.4-2.3-.8-.3-.5-.6-10.9-.7-23.3-.1-24.4-.5-29.9-2.1-29.9-.7 0-.9 9.9-.8 29.2m8.9 29.2c2.9 3.1 4 10.3 1.7 11.2-.9.3-2.4.3-3.3-.1-1.6-.6-1.6-.8.3-1.5 3.1-1.2 3.6-2.5 2.3-5.4-1.5-3.3-4.8-4.4-6.4-2.2-.7.9-1.5 1.6-1.9 1.6-.8 0-.8-4.5.1-5.3 1.4-1.5 5.1-.6 7.2 1.7M599 263.5c0 2.8.4 4.4 1 4 .6-.3 1-2.1 1-4s-.4-3.7-1-4c-.6-.4-1 1.2-1 4M599 275c0 1.8-.6 3.3-1.5 3.6-.8.4-1.5 1.2-1.5 1.9s.7 1.5 1.5 1.9c.8.3 1.5 1.7 1.5 3.1s.5 2.5 1.1 2.5.9-1 .8-2.3c-.1-1.2.1-3 .6-4 .4-1 .2-2.3-.5-3.2-.7-.8-1-2.4-.7-3.5s.1-2.3-.4-2.6-.9.9-.9 2.6m1 6c0 .5-.4 1-1 1-.5 0-1-.5-1-1 0-.6.5-1 1-1 .6 0 1 .4 1 1"/><path d="M590 277.1c-6.6 4.3-6.8 5.4-1.8 8.5 9.8 6 9.1 5.2 8.4 9.7-1.6 10.1-7.2 30.4-8.8 32.1-1.4 1.5-1.8 3.5-1.7 8 .2 9.7.9 11.5 5.7 14.3 2.3 1.4 4.2 2.1 4.2 1.5 0-.5-1.4-1.5-3.1-2.2-3.7-1.6-4.9-4.4-4.9-11.5v-5.4l5 2.9c2.8 1.7 5.5 3 5.9 3 1.7 0 3.4 3 2.4 4.2-.7.9-.6 3 .2 6.3 1.3 5.1 1.9 5.2 1.5.2-.2-3 .6-3.3 3.3-1.3 1 .8 1.7 2.7 1.8 4.7.1 1.9.5 4.5.9 5.9.6 2 .8 1.5.9-2.5.1-5.1.1-5.1 5.7-7.8 6.6-3.3 8.4-2.6 8.4 3.3 0 6.6 1.1 7 22.2 7s21.5-.1 20.4-7c-1-6.2.1-9 3.5-9 6.6 0 10.3 11.2 9.7 28.7-.3 7.2-.5 7.8-2.5 8.1-1.2.2-4.2-.8-6.7-2.2-4.3-2.4-5.3-2.5-24.5-2.8-18.3-.3-20.1-.2-20.1 1.4 0 2.9-1.5 2.8-6.4-.2-3.7-2.4-4.6-3.5-4.6-5.9 0-1.6-.6-3.1-1.4-3.4-1.1-.4-1.2.2-.5 3.1.5 2 .9 4 .9 4.3 0 .4 1.3 1.2 3 1.9 2.7 1.1 2.9 1.7 3.2 6.8.3 5.5.3 5.5 6 8.6 3.1 1.7 5.9 2.8 6.3 2.4s1.2-4.3 1.7-8.7l1-8 8.2-.3c4.4-.2 8.9-.1 9.9.1 1.7.3 5.4 5.9 12 18.1 1.6 3 3.5 6.1 4.1 6.8 1.3 1.3 9.3 2 24.4 2.1l9.2.1v7.7c0 14.1-5.1 12.7 43.9 12 23.4-.4 43.6-.7 44.9-.7 2.2 0 2.2 0 2-22.8l-.3-22.7-44.5-.3c-39.7-.2-44.6-.1-45.7 1.4-.8 1-1 4.9-.6 12.2l.5 10.7-15.8-.3c-8.8-.2-16.3-.8-16.9-1.3-1.9-1.9-12.5-21.2-12.5-22.9 0-2.1 7-.9 12.8 2.1 6 3.1 6.2 3.2 8.8 1.4 2.7-1.7 2.7-1.7 2.1-13.4-.3-6.4-1.1-13.4-1.8-15.6-2.1-7.4-10.1-12.9-13.7-9.3-.7.7-1.2 4-1.2 7.9v6.8l-18.2.3c-10.1.2-18.8.2-19.5 0-.6-.2-1.4-2.6-1.8-5.3-.8-5.6-2.8-7.9-9.8-11.8-4.2-2.3-4.5-2.3-7.7-.7-5.2 2.5-6.8 1.6-3.3-2 1.4-1.3 1.8-3.7 1.9-11.3.1-6.3.9-12.6 2.3-18.1 5.1-19.6 5.5-21.9 4.2-24.4-1.2-2.2-9.8-7.2-10.8-6.2-.2.2 1.8 1.6 4.6 3.2 6.7 3.6 6.7 2.5-.1 28.9-1.3 5-2.1 11.5-2.2 17.3-.1 9.3-.8 11.1-4.4 11.2-1.9 0-11.4-5.3-11.9-6.8-.3-.7.2-1.8 1.1-2.5 1-.7 2.7-5.4 4.1-11.7 4.2-17.8 4.6-18.9 6.1-18.3 1 .4 1.4-.3 1.4-2.2 0-3.1-2.1-5.1-9.8-9.5-5.3-3.1-5.4-3.2-3.5-5.2 1-1.1 3.5-2.9 5.6-3.9 2-1.1 3.7-2.2 3.7-2.4 0-1.2-2.8-.1-7 2.6m26.1 63.6c3.7 2.2 3.6 3.4-.2 5.5-3.9 2.3-5.7 2.2-9.6-.2-4-2.4-4.1-3.5-.5-5.4 3.6-2 6.8-2 10.3.1m13.1 35.8c0 .5-.5 1.1-1.1 1.3s-1.1-.4-1.1-1.3.5-1.5 1.1-1.3 1.1.8 1.1 1.3m4.4 2.7c-.4 1.3-.9 4.4-1.3 7-.7 5.6-1.6 5.9-7.3 2.3-3.6-2.3-3.8-2.7-3.3-6.2.7-4.7.7-4.7 3.2-3.3 1.7.8 2.6.8 4.3-.5 3.3-2.3 5.2-2 4.4.7m156.8 0c.8 3.5 1.4 40.8.7 41.2-.3.2-19.5.5-42.6.7l-42 .4-.5-16.4c-.3-8.9-.3-18.7-.2-21.7l.4-5.4 34.1-.2c18.8-.2 37.7-.4 41.9-.6 7.4-.2 7.8-.1 8.2 2"/><path d="M712.4 381.4c-.3.8-.4 2.7-.2 4.3.2 2 .8 2.8 2.3 2.8 1.3 0 2.1.8 2.3 2.4.5 2.9-1.5 5.2-2.4 2.8-.3-.9-1-1.5-1.5-1.2-.4.3-.6 1.2-.2 2 .8 2.4 4.2 1.7 5.5-1 .9-1.9.8-2.9-.6-5-.9-1.4-2.1-2.5-2.6-2.5-1.9 0-1-2.8 1-3.3 1.1-.3 2-1 2-1.6 0-1.6-5-1.3-5.6.3M726 380.2c-.1.2-.2 3.8-.3 8.1-.2 6.3.1 7.7 1.3 7.7s1.4-1.4 1.2-8c-.2-4.4-.8-8-1.3-8s-.9.1-.9.2M747.2 381.2c-1.8 1.8-1.5 12.3.3 13.8 2.4 2 4.5.4 4.5-3.5 0-2.4-.6-3.9-2-4.7-2.1-1.3-2.8-4.8-1-4.8.6 0 1 .5 1 1.2 0 .9.3.9 1.1.1 1.3-1.3.4-3.3-1.5-3.3-.6 0-1.7.5-2.4 1.2m2.8 9.8c0 1.6-.4 3-1 3-.5 0-1-1.4-1-3 0-1.7.5-3 1-3 .6 0 1 1.3 1 3M756.8 382.5c-.9 1.9-.8 2.9.6 5 .9 1.4 2.3 2.5 3.1 2.5 1.8 0 1.9.9.4 3-.8 1.1-1.2 1.2-1.6.2-.2-.6-.9-.9-1.4-.6-1.2.7.8 3.4 2.6 3.4s2.5-2.3 2.5-8c0-2.7-.3-5.5-.6-6.4-.9-2.4-4.3-1.9-5.6.9m4.9 1.5c.2.8-.2 2.2-.7 3-.9 1.3-1.1 1.3-2 0-1.6-2.5-1.2-5.2.7-4.8 1 .2 1.9 1 2 1.8M770.2 383.3c-3.4 5.8-3.6 7.5-1 7.9 1.7.2 2.2.9 2.1 2.6-.2 1.4.3 2.2 1.3 2.2 1.4 0 1.5-1.1.9-7.8-.4-4.2-.9-7.8-1-8s-1.2 1.3-2.3 3.1m1.8 4.1c0 1.5-1.8 3.1-2.6 2.3-.7-.7.7-3.7 1.7-3.7.5 0 .9.6.9 1.4M736.3 388.7c.9.2 2.3.2 3 0 .6-.3-.1-.5-1.8-.5-1.6 0-2.2.2-1.2.5M714.8 402.7c-1.4.3-1.8 1.5-1.8 4.4 0 3.5.3 4 1.9 3.4 1.3-.4 2 0 2.4 1.7.8 2.9-1.1 5.3-2.9 3.7-1.1-.9-1.4-.8-1.4.4 0 2.1 2.5 2.8 4.5 1.3 2.4-1.7 1.6-6.8-1.2-8.1-2.9-1.2-3.1-4.5-.3-4.5 1.1 0 2-.4 2-.9 0-1.3-1.2-1.8-3.2-1.4M747.2 404.5c-2.6 5.6-.9 13.5 2.8 13.5 3.8 0 3.8-8.3 0-9.5-1.1-.3-2-1.3-2-2 0-1.9 1.7-2.8 2.3-1.3.2.7.8 1 1.2.6 1.1-1-.2-3.8-1.8-3.8-.8 0-1.9 1.1-2.5 2.5m3.8 8.5q0 3-1.5 3t-1.5-3 1.5-3 1.5 3M757.4 404.6c-.8 3.1 1 7.4 3.1 7.4.8 0 1.5.9 1.5 2.1 0 1.6-.4 1.9-2 1.4-2.3-.7-2.8 1.3-.5 2.1 3.9 1.5 6-6.5 3.5-13-1.3-3.5-4.7-3.5-5.6 0m4.6 2.4q0 3-1.5 3t-1.5-3 1.5-3 1.5 3M770.2 406.5c-2.7 5.6-2.8 7.5-.2 7.5 1.3 0 2 .7 2 2 0 2.8 2 2.5 2.1-.3.3-4.6-.3-12.2-1-13-.4-.4-1.7 1.3-2.9 3.8m1.4 5.2c-1.1 1.1-1.9-.6-1.1-2.4.8-1.7.8-1.7 1.2 0 .3 1 .2 2.1-.1 2.4M780.6 404.1c-1 4.6-2.6 13-2.6 13.4 0 .3.5.5 1 .5.6 0 1-1.2 1-2.6 0-3.3 3.3-3 3.8.4.3 2.1 2.2 3.2 2.2 1.2 0-1.9-3.3-13.5-4.1-14.4-.4-.5-1 .2-1.3 1.5m2.4 6c0 .5-.4.9-1 .9-.5 0-1-.7-1-1.6 0-.8.5-1.2 1-.9.6.3 1 1 1 1.6M726 411.1c0 6 .3 8 1.3 7.6.6-.2 1.2-.9 1.1-1.5-.1-.7-.2-4.1-.2-7.7-.3-9.5-2.2-8.1-2.2 1.6M735 411c0 .5 1.3 1 2.9 1 1.7 0 3.3-.5 3.6-1 .4-.6-.8-1-2.9-1-2 0-3.6.4-3.6 1M549 283.7c0 1.1 6.1 4.5 6.8 3.8.3-.3.3-.6.1-.8-4-2.4-6.9-3.6-6.9-3M544.6 285.6c-.9 2.4-.7 6.4.3 6.4.5 0 1.1-1.8 1.3-4 .4-4-.5-5.3-1.6-2.4M560 290.5c0 .8 6.1 3.7 6.7 3.1.3-.2-.9-1.2-2.6-2-3.1-1.7-4.1-1.9-4.1-1.1M570 295.7c0 1 6.8 4.8 7.4 4.2.3-.2-1.3-1.5-3.5-2.7-2.1-1.2-3.9-1.9-3.9-1.5M542.6 297.3c-1.5 1.1-1.8 2.6-1.7 7.9.1 5-.3 7-1.8 8.6-1.7 2.1-2.7 2.2-17.9 2.2-9.6 0-16.3.4-16.7 1-.4.7 5.3 1 16.5 1 17.1 0 17.1 0 17.6 3 .4 1.6 1.2 3.4 2 4 1.8 1.5 7.5.8 8.4-1 .4-.8 1.2-2.5 1.9-3.8 1.2-2.4.7-6.2-.9-6.2-.5 0-1-3.4-1.2-7.6-.3-6.4-.6-7.9-2.4-9-1.7-1.2-2.3-1.2-3.8-.1m3.4 1.7c0 .5-.7 1-1.5 1s-1.5-.5-1.5-1c0-.6.7-1 1.5-1s1.5.4 1.5 1m-.5 3c.3.5-.1 1-.9 1s-1.8-.5-2.1-1c-.3-.6.1-1 .9-1s1.8.4 2.1 1m.5 3c0 .5-.7 1-1.5 1s-1.5-.5-1.5-1c0-.6.7-1 1.5-1s1.5.4 1.5 1m.3 3c.8 0 .8.3 0 1.1-1.3 1.3-4.3.5-4.3-1.2 0-.6.7-.8 1.6-.5s2.1.6 2.7.6m.5 4.2c-.3.7-1.3 1.3-2.3 1.3s-2-.6-2.2-1.3c-.3-.7.5-1.2 2.2-1.2s2.5.5 2.3 1.2m-1.1 6.1c1-.4 2.1-1.1 2.5-1.7 1-1.5 2.2 0 1.5 1.9-.8 2-7.6 2-10.3 0-1.5-1.2-1.6-1.6-.5-2.4.9-.6 1.9-.3 3.2 1 1.1 1.1 2.5 1.6 3.6 1.2m.8-2.3c-.3.5-1.2 1-2 1s-1.7-.5-2-1c-.4-.6.5-1 2-1s2.4.4 2 1m-5.8 6.7c-.4.3-.7 0-.7-.7s.3-1 .7-.7c.3.4.3 1 0 1.4m5.3.9c0 1.6-2.6 1.9-3.5.4-.3-.6-.4-1.4 0-2 .8-1.3 3.5-.1 3.5 1.6M581 301.9c0 1 6.5 5.1 8.2 5.1 1.2 0-2.6-3.1-5.9-4.9-1.3-.6-2.3-.7-2.3-.2M598.8 305.7c-.3 2.1-.3 4-.1 4.3.8.9 2.3-2.5 2.3-5.3 0-4-1.7-3.3-2.2 1M399 311.5c-2 2.4-.5 5.5 3.8 7.1.1.1 0 .9-.4 1.8-.5 1.3-.9 1.4-2 .5-.8-.7-1.8-.9-2.1-.5-.7.7 1.4 2.6 2.9 2.6 1.7 0 3.8-3.4 3.8-6.1 0-5.8-3.2-8.7-6-5.4m4 2.5c0 1.1-.7 2-1.5 2s-1.5-.9-1.5-2 .7-2 1.5-2 1.5.9 1.5 2M408.6 311.6c-1.2 3.2-.6 10.4.9 11 2.5 1 4.5-1.6 4.5-5.6 0-5.1-.8-7-3-7-1 0-2.1.7-2.4 1.6m3.4 5q0 4.5-1.2 4.2c-1.4-.5-2-3.5-1.3-6.6.9-3.9 2.5-2.4 2.5 2.4M418 311.2c0 .4.7.8 1.6.8 1.2 0 1.5.5.9 2.2-1.5 4.6-1.8 9.1-.6 8.4.6-.4 1.1-1.7 1.1-2.9s.7-3.5 1.5-5.1c1.9-3.6 2-3.3-1.5-3.8-1.6-.3-3-.1-3 .4M428.2 311.2c-.7.7-1.2 1.9-1.2 2.7.1 1.3.2 1.3 1.1-.2.5-.9 1.4-1.7 1.9-1.7 1.7 0 1.1 3-1.1 6-1.2 1.6-1.9 3.6-1.6 4.4.7 1.7 4.7 2.2 4.7.6 0-.6-.7-1-1.5-1-2 0-1.9-1.2.5-4.3 1.1-1.4 2-3.1 2-3.9 0-1.4-1.9-3.8-3-3.8-.3 0-1.1.5-1.8 1.2M437.2 312c-1.8 3-1.5 8.4.7 10.4 1.7 1.6 2 1.6 3.5.1 2.2-2.3 2.1-8.7-.2-10.8s-2.5-2.1-4 .3m3.6 5.6c-.2 2.2-.7 3.9-1.3 3.9-1.2 0-1.9-6-1-8.3 1-2.8 2.7.3 2.3 4.4M455.9 313.4c-1.5 3.1-.3 9.5 1.8 10.3 2.2.9 4.3-2.4 4.3-6.7 0-5.8-4-8.2-6.1-3.6m4.1 4.2c0 3.2-.4 4.4-1.2 4.2-1.4-.5-2.3-6.1-1.4-8.5 1.1-2.7 2.6-.2 2.6 4.3M465.5 312.7c-1.4 3.3-1.5 6.8-.3 9 1.5 3.1 4.6 3 5.4-.2.7-2.7-1-5.5-3.2-5.5-1.8 0-1.8-1.4-.1-2.9 1-.8 1.7-.7 2.6.2 1.1 1 1.3.9.9-.3-.7-2.2-4.4-2.4-5.3-.3m3.5 7.4c0 2.4-2.3 2.1-2.8-.4-.2-1 .3-1.7 1.2-1.7 1 0 1.6.9 1.6 2.1M475.2 312.2c-.7.7-1.2 1.9-1.2 2.7.1 1.3.4 1.2 1.5-.3s1.8-1.7 2.6-.9.4 2-1.5 4.6c-3.4 4.5-3.3 5.7.7 5.6 2.9 0 3-.1.9-.9-2-.8-2.1-1.2-1-3 .7-1.1 1.6-2 1.9-2 1.3 0 1.9-3.2.9-5.1-1.2-2.2-3-2.5-4.8-.7M485.1 312c-1.4.8-1.8 9.1-.6 11 1 1.6 4.2 1.2 4.9-.6.3-.9.6-3.3.6-5.4 0-4.2-2.4-6.6-4.9-5m2.9 6.1c0 2.8-.4 3.9-1.2 3.6-1.2-.3-1.4-2.4-.9-7.3.3-3.2 2.1-.1 2.1 3.7M493.6 314.2c-.3 1.3-.4 3.9-.3 5.8.2 3.2.5 3.5 3.5 3.8 3.3.3 3.3.3 3-5.5-.3-5.5-.4-5.8-3-6.1-2.2-.3-2.8.1-3.2 2m4.7.3c.8 1.8-1.1 3.1-2.5 1.7-1.1-1.1-.3-3.2 1.2-3.2.4 0 1 .7 1.3 1.5m.1 4.4c.9 1.4-.4 4.1-2 4.1-.8 0-1.4-1-1.4-2.5 0-2.5 2.3-3.5 3.4-1.6M448.3 318.7c.9.2 2.3.2 3 0 .6-.3-.1-.5-1.8-.5-1.6 0-2.2.2-1.2.5M687.3 319.7c-1.8.9-3.3 2-3.3 2.5 0 1.2 1 1 4.6-1.3 5.3-3.2 4.3-4-1.3-1.2M677.5 325.4c-1.1.6-2.9 1.6-4 2.3-1.1.6-1.7 1.4-1.3 1.8.7.7 7.8-3.6 7.8-4.8 0-.8.1-.8-2.5.7M661.8 334.4c-4.3 2.4-5.2 4.4-1 2.2 3.5-1.9 7-4.6 5.7-4.5-.5.1-2.7 1.1-4.7 2.3M649.2 341.5c-4.4 2.4-4.7 3.7-.4 1.6 2.3-1.2 4.2-2.4 4.2-2.6 0-.8-1.3-.4-3.8 1M635.7 349.1c-2.2 1.1-3.7 2.2-3.5 2.5.5.5 8.8-3.4 8.8-4.1 0-.9-1.4-.4-5.3 1.6M669.2 348.3c-1.3 1.5.8 4.7 3.2 4.7 1.8 0 2-1.3.6-4.1-1.2-2.2-2.3-2.4-3.8-.6m2.5 2.4c-.4.3-.7 0-.7-.7s.3-1 .7-.7c.3.4.3 1 0 1.4M598.5 353.3c1.1.7 3.6 2.9 5.6 4.9 2 2.1 3.9 3.8 4.3 3.8 1.4 0-5.2-7.2-7.9-8.6-3.3-1.7-4.8-1.8-2-.1M615.2 357.3c-1.4 1.6-.6 2.8 1.4 2 .8-.3 1.4 0 1.4.6s-.5 1.1-1.2 1.1c-.9 0-.9.3-.1 1.1 1.3 1.3 3.3.4 3.3-1.5 0-.7-.8-2-1.9-3-1.5-1.4-2-1.4-2.9-.3M664 365.2c0 3.9.4 6.8 1 6.8 1.3 0 1.3-10 0-12-.7-1.1-1 .5-1 5.2M628.1 365.7c-.1 3.6.3 6.3.9 6.3 1.2 0 1.2-6.4 0-10-.6-1.9-.8-.9-.9 3.7M609.7 363.6c-1.6.9-2.7 1.8-2.4 2.1.6.5 6.7-2.4 6.7-3.2s-1.4-.5-4.3 1.1M598.5 369.2c-2.1 1.2-3.5 2.8-3.5 4 0 .4.8.1 1.8-.7.9-.8 2.6-2.1 3.7-2.9 2.3-1.8.9-2.1-2-.4M592 382.6c0 2.7.4 4.3 1 3.9.6-.3 1-2.4 1-4.6 0-2.1-.4-3.9-1-3.9-.5 0-1 2.1-1 4.6M592 397c0 2.7.5 5 1 5 .6 0 1-2.3 1-5 0-2.8-.4-5-1-5-.5 0-1 2.2-1 5M592 411c0 2.7.5 5 1 5 .6 0 1-2.3 1-5 0-2.8-.4-5-1-5-.5 0-1 2.2-1 5M184.4 420.3c-.2.7-.3 6.2-.2 12.3l.3 10.9 43.8.3c43.7.2 43.7.2 43.8-2.5v-21.8l-43.6-.3c-35.4-.2-43.6 0-44.1 1.1m85.4 11.4.3 10.3H187v-21l41.3.2 41.2.3z"/><path d="M194.1 423.4c-2 2.4-1 7 1.7 7.4 1.6.2 2.2 1 2.2 2.7 0 2.6-2.1 4.6-2.8 2.7-.2-.7-.8-1-1.2-.7-1.5.9.1 3.5 2.1 3.5 4.5 0 4.9-8.3.4-10-3-1.2-3.2-3-.5-3.7 1.2-.3 1.9-1 1.7-1.6-.5-1.7-2.3-1.9-3.6-.3M236 422.4c-.3.2-.4 4.1-.2 8.5.4 8.1.4 8.1 3.2 8.1 1.6 0 3.2-.5 3.5-1.1 1-1.6-.4-2.4-1.7-1.1-1.8 1.8-2.5 1.4-3-1.7-.3-2.2 0-3.1 1.4-3.4 1-.3 1.8-1.1 1.8-1.7 0-.7-.7-1-1.5-.7-1.9.8-2.8-.8-2-3.4.5-1.5 1.3-1.9 2.7-1.6 1.2.3 1.8.1 1.5-.6-.4-1.2-4.9-2.2-5.7-1.3M245.8 422.6c-.4.3.3 2.6 1.4 5.1 1.4 3.1 1.8 5.5 1.3 7.9-.4 2.4-.2 3.4.7 3.4.8 0 1.4-1.6 1.6-4.6.1-2.5.9-6.1 1.7-7.9.7-1.9 1-3.7.6-4-1.2-.7-2.1.6-2.1 3.1 0 3.8-1.9 3.7-2.6-.1-.6-3.3-1.4-4.2-2.6-2.9M205.9 423.4c-.2.2-.3 3.8-.1 8 .3 6 .7 7.6 1.9 7.6 1 0 1.3-.6.9-1.6-.3-.9-.6-4.5-.6-8 0-5.6-.6-7.4-2.1-6M226.1 424.9c-1.4 2.5-1.4 9.6-.1 12.2 1.5 2.6 3.9 2.4 5-.5 1.2-3.2.2-6.4-2.1-7.1-1-.4-1.9-1.5-1.9-2.6 0-1.6.4-1.9 2.1-1.4 1.5.5 2 .3 1.7-.6-.7-2.2-3.6-2.2-4.7 0m3.9 8c0 2.8-1.1 5.2-2.1 4.5-1.6-.9-1.1-6.4.6-6.4.8 0 1.5.9 1.5 1.9M215.5 431c-.4.6.5 1 1.9 1s2.6-.5 2.6-1c0-.6-.9-1-1.9-1-1.1 0-2.3.4-2.6 1M592 424.4c0 2.5.5 4.8 1 5.1.6.4 1-1.3 1-4.4 0-2.8-.4-5.1-1-5.1-.5 0-1 2-1 4.4M592.7 433.7c-1.1 1-.8 7.1.3 7.8.6.4 1-1.2 1-3.9 0-4.7-.2-5.1-1.3-3.9M328.1 451c-6.8 3.8-12.5 7-12.6 7s-5.6 3.2-12.1 7.2c-14.2 8.5-23.3 13.6-44.4 24.8-5.2 2.8-13.3 7.3-18 10.1-10.5 6.1-12.9 7.3-13.4 6.8-.5-.4-1.5-32.6-1.5-49.2-.1-6.4-.5-10.6-1-10.2-.6.3-.7 12.6-.4 30.8l.5 30.4-3.8 2.3c-2.2 1.3-5.9 3.5-8.4 4.8-9.1 4.9-22.8 12.6-34 19.2-11.1 6.5-20.6 12-41 23.8-32 18.5-72.9 41.6-82.6 46.7-4.9 2.6-9.6 5.6-10.5 6.6-1.5 1.6-1.6 16.3-1.5 169.4.1 146.3.3 167.7 1.6 168.5.8.5 7.3.8 14.5.8 7.1-.1 56.4.1 109.5.5s148.3.9 211.5 1.2c63.3.3 137.6.8 165.3 1.1 37.1.5 50.2.4 50.2-.5 0-.8-20.3-1.1-76.7-1.2-42.3-.1-82.9-.3-90.3-.5s-77.8-.5-156.5-.9c-156.4-.6-225.6-1.2-226.4-2.1-.3-.3-.7-75.8-.9-167.8-.3-167.3-.3-167.3 2.2-168.9 1.4-1 4.5-2.8 6.8-4.1 11.7-6.4 15.8-8.7 21.8-12.1 9.6-5.5 31.8-18 43-24.3 2.5-1.3 9.7-5.5 16-9.2 16.4-9.6 30.6-17.8 37-21.3 3-1.6 6-3.3 6.5-3.8 1.6-1.2 25.6-14.9 26.2-14.9.3 0 1.7-.8 3.1-1.8 1.5-1.1 6.1-3.7 10.2-5.9 12.9-6.9 42.6-23.4 46.3-25.7 1.2-.7 5.6-3.2 9.7-5.4s10.4-5.7 14-7.7c3.6-2.1 8.5-4.9 11-6.3 2.5-1.3 7.7-4.4 11.5-6.7 3.9-2.3 12.5-7.2 19.3-10.9l12.3-6.8 97.9.4c53.9.1 98 0 98-.5 0-.4-44.4-.7-98.8-.7h-98.7zM541 445c2 1.3 48 1.3 48 0 0-.6-8.9-1-24.7-1-16.4 0-24.3.4-23.3 1M601.4 445.2c-.3.4 2.3.8 5.7.8s5.9-.3 5.6-.7c-1-.9-10.7-1-11.3-.1M618.3 445.7c.4.3 1 .3 1.4 0 .3-.4 0-.7-.7-.7s-1 .3-.7.7M653.3 445.7c14.8.2 38.6.2 53 0 14.4-.1 2.4-.2-26.8-.2-29.1 0-40.9.1-26.2.2M735 445.7c0 .5 1.8.8 4.1.9 2.5.1 3.6-.2 2.7-.7-1.6-1.1-6.8-1.2-6.8-.2M744.4 446.1c-.3.5.9.9 2.5.9 1.7 0 3.1-.2 3.1-.4 0-.8-5.1-1.3-5.6-.5M755.1 446.4c.2.2 10.9.6 23.6.8 12.8.2 23.4.6 23.7.9.7.8 2.5 496.5 1.7 504.7-.1 1.1-5 1.3-25.1 1-13.8-.2-25 0-25 .4 0 .5 11.6.8 25.9.8 25.9 0 25.9 0 26.4-2.2.4-1.2.4-38.3.2-82.3-.3-44-.7-157.1-1-251.4s-.8-171.8-1.1-172.3c-.3-.4-11.6-.8-25.1-.8-13.6 0-24.4.2-24.2.4M592.7 451.7c-1.1 1-.8 8.1.3 8.8.6.4 1-1.3 1-4.4 0-5.2-.1-5.6-1.3-4.4M592.7 467.7c-1.1 1-.8 9.1.3 9.8.6.4 1-1.5 1-4.9 0-5.7-.1-6.1-1.3-4.9"/><path d="M489 473c-2.6 4.8.9 13.5 4.1 10.3 2-2 2.3-8.8.4-10.6-2.2-2.2-3.2-2.1-4.5.3m3.8 5.6c-.2 2.2-.7 3.9-1.3 3.9-1.2 0-1.9-6-1-8.3 1-2.8 2.7.3 2.3 4.4M403.8 474.5c-1.2 2.7.2 5.5 2.8 5.5.8 0 1.4.6 1.4 1.3 0 2.1-1.2 2.8-2.7 1.6-.9-.9-1.3-.8-1.3 0 0 1.8 2.9 2.5 4.5 1.1 1.8-1.5 2-9.1.3-10.8-1.9-1.9-3.7-1.4-5 1.3m4.2 1.5c0 1.1-.7 2-1.5 2s-1.5-.9-1.5-2 .7-2 1.5-2 1.5.9 1.5 2M413.5 474c-.9 3 .4 6 2.6 6 1 0 1.9.6 1.9 1.4 0 2.2-1.9 3-3.5 1.6-.9-.7-1.5-.8-1.5-.2 0 1.9 3.3 2.3 5.1.6 2.3-2.1 2.4-6.2.3-9.2-1.9-2.7-4.1-2.8-4.9-.2m4.3 2.3c.2 1-.3 1.7-1.2 1.7-1 0-1.6-.9-1.6-2.1 0-2.4 2.3-2.1 2.8.4M423 473.5c-1.6 2 .2 6.5 2.6 6.5.8 0 1.4.6 1.1 1.2-.2.7-1.2 1.2-2.1 1.2-1.8-.2-1.7 1.7.1 2.3s4.3-2.7 4.3-5.8c0-5.9-3.2-8.7-6-5.4m4 2.5c0 1.1-.7 2-1.5 2s-1.5-.9-1.5-2 .7-2 1.5-2 1.5.9 1.5 2M432.4 473.3c-.3.8-.4 3.4-.2 5.8.3 3.9.6 4.4 2.8 4.4 2.4 0 2.5-.3 2.5-5.5 0-4.9-.2-5.5-2.3-5.8-1.2-.2-2.4.3-2.8 1.1m4.2 3.1c.7 3.1.2 5.8-1.3 6.3s-2.6-3.2-1.9-6.3c.8-3.1 2.4-3.1 3.2 0M460.7 472.6c-1 1-.9 8.6.2 10.2.5.8 1.7 1.2 2.7 1 1.6-.3 1.9-1.2 1.9-5.8 0-4.8-.3-5.5-2-5.8-1.2-.2-2.4 0-2.8.4m4.1 5.9c-.4 5.6-2.8 5.8-2.8.2 0-2.4.3-4.7.7-5 1.3-1.4 2.4 1.1 2.1 4.8M470.2 473.2c-.5.7-.7 3.3-.3 5.8.5 4 .9 4.5 3.1 4.5 2.3 0 2.5-.4 2.5-4.5.1-4.7-.9-7-3-7-.7 0-1.7.6-2.3 1.2m3.3 2.8c-.5.8-1.1.8-1.7.2s-.7-1.6-.3-2.2c.5-.8 1.1-.8 1.7-.2s.7 1.6.3 2.2m.5 5.1c0 2.4-2.3 2.1-2.8-.4-.2-1 .3-1.7 1.2-1.7 1 0 1.6.9 1.6 2.1M479.6 473.5c-1.1 3-.6 8.2.9 9.5 3.4 2.8 6.6-2.3 4.8-7.7-1.1-3.2-4.7-4.3-5.7-1.8m3.9 4.3c0 5.9-1.9 5.7-2.3-.2-.2-3.6 0-4.7 1-4.4.8.3 1.3 2.1 1.3 4.6M498.7 472.7c-1 1-.8 8.6.3 10.3.7 1.1 1 .7 1.1-2 .1-1.9 0-4.6-.1-5.9-.1-1.5.3-2.2 1.2-1.9.8.3 1.3 2.2 1.3 5.6 0 2.9.3 5.2.7 5.2 1.6 0 2-8.4.5-10.8-.9-1.3-3.9-1.6-5-.5M443.1 473.9c-.9.6-1 1.1-.2 1.5.6.4 1.1 2.5 1.1 4.7 0 2.1.5 3.9 1 3.9.6 0 1-2.5 1-5.5 0-5.6-.4-6.2-2.9-4.6M452 479c0 .5.9 1 2 1s2-.5 2-1c0-.6-.9-1-2-1s-2 .4-2 1M592.7 483.7c-1 1-.8 5.6.3 7.3.7 1.1 1 .2 1-3.3 0-4.8-.1-5.2-1.3-4M454.1 523.4c.1 20.6.4 38.6.6 40 .5 2.6 2 3.7 15.8 11.1 3.9 2.1 8.2 4.6 9.7 5.7 1.4 1 3 1.8 3.6 1.8 2.3 0 3.4 2.9 2.3 6.1-1.3 3.8-.2 6.3 3.9 8.4 3.5 1.8 5.8 1 8.4-2.9 3.7-5.7.7-10.8-6.7-11.1-4-.2-6-1.1-19.7-8.9-3-1.7-6.6-3.7-8-4.4-7.1-3.7-6.7-2.2-7.4-29.2-.3-13.5-.6-31.1-.6-39.3 0-9.6-.4-14.7-1.1-14.7s-1 11.8-.8 37.4m39.4 60.6c.3.5.1 1-.4 1-.6 0-1.1-.5-1.1-1 0-.6.2-1 .4-1 .3 0 .8.4 1.1 1m-1.8 2.6c.2.5-.3 1.9-1.1 2.9-2.1 2.8-4.3.7-2.6-2.5 1.1-2.1 3.1-2.3 3.7-.4m6.3.9c0 .9-.6 1.2-1.5.9-.8-.4-2.2-.1-3 .6-1.8 1.5-2 .5-.2-1.5 1.6-1.9 4.7-1.9 4.7 0m-2 3.4c0 .6-.4 1.3-1 1.6-.5.3-1-.1-1-.9 0-.9.5-1.6 1-1.6.6 0 1 .4 1 .9m-2.4 3.1c.8 0 1.4.4 1.4 1 0 .5-.9 1-2 1-1.5 0-2-.6-1.9-2.8.1-1.6.3-2 .6-1 .2 1 1.1 1.8 1.9 1.8m-4.1-1c.3.5.2 1-.4 1-.5 0-1.3-.5-1.6-1-.3-.6-.2-1 .4-1 .5 0 1.3.4 1.6 1M593.3 502.5c0 2.7.2 3.8.4 2.2.2-1.5.2-3.7 0-5-.2-1.2-.4 0-.4 2.8M327.3 514.2c.4 5.7.7 11.1.7 12 0 1.7 2.8 1.8 43.9 1.8 24.2 0 44.1-.3 44.3-.8.2-.4.2-5.8 0-12l-.4-11.2h-89zm86-4c.4 2.9.7 7.7.7 10.6v5.2l-41.7-.2-41.8-.3-.3-9.7-.3-9.7 4.3-.3c2.4-.2 21-.4 41.4-.6l37.1-.3z"/><path d="M337.1 509.2c-.4 1.1-.6 3.2-.3 4.5.3 1.8.9 2.2 2.3 1.8 1.6-.5 1.9-.1 1.9 2.3q0 5.25-2.7 3c-.7-.6-1.7-.8-2-.4-.8.8 1.5 2.6 3.4 2.6s3.5-3.9 2.9-6.6c-.4-1.5-1.4-2.4-2.6-2.4-1.3 0-2-.7-2-2s.7-2 2-2c1.1 0 2-.7 2-1.5 0-2.3-4-1.8-4.9.7M369.5 509.9c-3.6 7.1.8 17.3 4.8 11 1.4-2.3 0-6.7-2.4-7.4-2.8-.9-2.1-4.1.9-3.7 2.7.4 2.8-.4.2-1.8-1.6-.9-2.2-.6-3.5 1.9m3.5 8.1c0 1.6-.5 3-1 3-1.4 0-2.4-2.6-1.6-4.5 1-2.6 2.6-1.6 2.6 1.5M381 508c-1.6 1-2.2 10.5-.8 13.3.6 1.1 1.8 1.7 3.1 1.5 2-.3 2.2-.9 2.4-7.1.1-5.5-.2-6.9-1.6-7.6-1-.6-2.3-.6-3.1-.1m3 3.5c0 1.6-.6 2.5-1.5 2.5s-1.5-.9-1.5-2.5.6-2.5 1.5-2.5 1.5.9 1.5 2.5m.4 6c.7 2-.4 4.7-1.8 4.2-1.7-.6-2-5.7-.3-5.7.8 0 1.7.7 2.1 1.5M391.1 508.9c-2.4 4.5-.8 14.1 2.4 14.1 3.9 0 4.3-8.3.5-9.5-2-.6-2.6-2.5-1.3-3.8.3-.4 1.3-.1 2.1.5 1.2 1 1.4.9 1.1-.7-.6-2.7-3.5-3.1-4.8-.6m3.9 8c0 2.8-1.1 5.2-2.1 4.5-1.6-.9-1.1-6.4.6-6.4.8 0 1.5.9 1.5 1.9M349.2 515.5c.2 5.5.7 7.5 1.7 7.5.8 0 1.1-.6.7-1.6-.3-.9-.6-4.2-.6-7.5 0-3.4-.4-5.9-1-5.9-.7 0-1 2.8-.8 7.5M359.3 515.7c.9.2 2.5.2 3.5 0 .9-.3.1-.5-1.8-.5s-2.7.2-1.7.5M469.3 505.7c-2.2.8-1.6 6.1.7 6.8 2 .6 2.6 2.5 1.3 3.8-.3.4-1.2.2-2-.4-.9-.9-1.3-.8-1.3 0 0 1.8 2.9 2.5 4.5 1.1 1.8-1.5 2-9.1.3-10.8-1.3-1.3-1.6-1.3-3.5-.5m2.7 3.8c0 1.4-.4 2.5-1 2.5-.5 0-1-1.1-1-2.5s.5-2.5 1-2.5c.6 0 1 1.1 1 2.5M478.5 506.6c-.9.9-1.4 2.3-1.1 3.1s.6 1.7.6 1.9.4.4 1 .4c.5 0 .9-.8.7-1.8-.1-.9.3-1.9.8-2.2.6-.3 1.1 1.3 1.2 3.7.1 3.6-.2 4.3-1.8 4.3-1 0-1.9.4-1.9 1 0 1.4 3.3 1.3 4.8-.2 1.7-1.7 1.5-8.4-.4-10.2-1.9-2-1.9-2-3.9 0M487.6 506.9c-1.9 2.1-1.2 4.8 1.5 5.6 2.5.8 2.1 4.1-.4 3.7-.9-.2-1.7.2-1.7.8 0 1.4 3.3 1.3 4.8-.2 1.7-1.7 1.5-8.4-.4-10.2-1.9-2-1.7-2-3.8.3m3 3.7c-.5 1.3-1 1.4-1.8.6-.6-.6-.8-1.8-.4-2.8.5-1.3 1-1.4 1.8-.6.6.6.8 1.8.4 2.8M507.2 506.2c-.7.7-1.2 1.6-1.2 2.2s.5.5 1.2-.2c2.1-2.1 2.6-1.3 2.6 3.3s-.5 5.4-2.6 3.3c-1.4-1.4-1.6 0-.3 2.1.5.8 1.6 1.1 2.9.7 1.7-.6 2.1-1.5 2-5.7 0-3.6-.4-5.2-1.7-5.9-1.2-.6-2.2-.5-2.9.2M527.4 505.8c-2.5 1.6-3.3 4.9-2.3 8.6 1.6 5.9 6.9 4.4 6.9-2 0-3.6-2.9-7.8-4.6-6.6m2.6 6.2c0 2.1-.4 4.1-.9 4.5-1.3.7-3.2-2.9-2.6-4.9.3-.9.7-2.3 1-3.2.9-2.7 2.5-.4 2.5 3.6M535.9 506.6c-1.6 2-2 8.4-.7 10.1 1.1 1.4 4.7 1.8 4.9.5.7-5.4.3-9.4-1.2-10.7-1.4-1.4-1.8-1.4-3 .1m3.1 3c0 1.6-1.6 1.9-2.5.4-.8-1.3.4-3.2 1.6-2.5.5.4.9 1.3.9 2.1m.2 6.6c-.9.9-1.5.9-2.3.1-.7-.7-.9-2-.5-2.9.6-1.6.8-1.6 2.3-.1 1.3 1.3 1.5 1.9.5 2.9M496.5 507c.3.5 1.3 1 2.2 1 1.1 0 1.3.5.8 1.7-1.4 3.2-1.8 8.3-.6 8.3.6 0 1.1-1.5 1.1-3.4s.5-3.8 1-4.1c.6-.3 1-1.5 1-2.6 0-1.5-.7-1.9-3.1-1.9-1.7 0-2.8.4-2.4 1M544.4 507.4c-.3.7-.4 3.3-.2 5.7.3 3.9.6 4.4 2.8 4.4s2.6-.5 3-4c.3-2.2.2-4.8-.2-5.8-1-2-4.6-2.3-5.4-.3m4.1 5.1c0 2.2-.5 4-1.2 4.2-.9.3-1.3-.9-1.3-4.2s.4-4.5 1.3-4.3c.7.3 1.2 2.1 1.2 4.3M553.9 508.4c-.7 1.4-.9 4-.5 6.1.6 3.2 1 3.6 3.4 3.3s2.7-.8 3-4.6c.5-6.6-3.6-9.9-5.9-4.8m4.1 4.2c0 5.9-2.4 5.5-2.8-.4-.2-3.3 0-4.2 1.2-4.2s1.6 1.1 1.6 4.6M564.7 506.7c-.4.3-.7 3-.7 6 0 5.2 0 5.3 3 5.3 2.9 0 3-.1 3-4.8s-1.2-7.2-3.5-7.2c-.7 0-1.5.3-1.8.7m3.6 2.8c.1.5-.6 1.1-1.5 1.3-1.1.2-1.8-.3-1.8-1.3 0-1.7 3-1.8 3.3 0m.1 4.1c.8 2-.1 3.4-2 3.4-.8 0-1.4-.8-1.4-1.8 0-3.3 2.3-4.4 3.4-1.6M516.5 513c.3.5 1.5 1 2.5 1s2.2-.5 2.5-1c.4-.6-.7-1-2.5-1s-2.9.4-2.5 1M593.3 517c0 3 .2 4.3.4 2.7.2-1.5.2-3.9 0-5.5-.2-1.5-.4-.2-.4 2.8M515.7 520.7c-.4.6-.7 16.6-.6 35.5s.1 35 0 35.9c0 .9-1.2 2.1-2.7 2.7-2.9 1.4-5.8 7.4-4.9 10.3 1 3.2 5.5 2.1 8.2-2 2.3-3.4 2.3-3.8 2.2-32.5-.2-32.4-1-51.7-2.2-49.9m.3 76.2c0 1.4-.5 1.8-2 1.4-2.3-.6-2.6-1.9-.7-2.6 2.2-.9 2.7-.7 2.7 1.2m-2 3.6c0 .8-.4 1.5-1 1.5-.5 0-1-.7-1-1.5s.5-1.5 1-1.5c.6 0 1 .7 1 1.5m-2.4 5.2c-1.1 1.1-2.6-1-2.6-3.5 0-2.7 0-2.7 1.5.2.9 1.6 1.3 3.1 1.1 3.3M593 534.7c0 4.1.3 5.4 1 4.3 1.3-2 1.3-8.7 0-9.5-.6-.4-1 1.6-1 5.2M374 561.9c0 29.1-.1 30-2 30.6-1.1.3-2 1.5-2 2.5s-1.2 2.7-2.6 3.7c-2.3 1.7-2.5 2.3-1.5 4.1 1.3 2.5 1.7 10.2.6 15.9-.7 3.6-.5 4.2 1.5 5.3 1.9 1 2.1 1.8 1.7 4.8-.6 3.4-.5 3.5.8 1.8.8-1.1 1.5-2.8 1.5-3.8s.7-1.8 1.5-1.8c1.9 0 4.5-5.1 4.5-8.8 0-1.6.7-3.5 1.5-4.2s1.5-1.8 1.5-2.4c0-.7 1.1-2.3 2.5-3.6 2.5-2.3 2.5-2.3 5 0 3 2.9 3.3 6.6.5 7.5-2.9.9-4.2 3.9-3.1 6.8 1 2.6 6.9 7.7 9 7.7s2.4 3 .5 4.5q-1.8 1.35-.6 1.5c.7 0 2.4-1.2 3.8-2.7s3.8-3.3 5.2-4c2.6-1.2 2.6-1.2-.9-.7-4 .6-9.1-1.5-12.1-4.9-2.5-2.8-2.2-4.4 1.1-6.2 1.6-.8 3.2-2.4 3.6-3.5.9-2.8-2.6-7.4-8.1-10.6-2.4-1.4-4.4-3.2-4.4-4s-1.6-2.4-3.5-3.6l-3.5-2.3v-29.8c0-19.1-.4-29.7-1-29.7s-1 10.6-1 29.9m3.5 32.3c2.5 1.1 3.4 2.8 1.4 2.8-1.7 0-4.9-2-4.9-3 0-1.3.4-1.2 3.5.2m0 6.8c-.4 1.4-1.1 2.7-1.6 2.8-.5.2-.7.8-.3 1.3.8 1.3-1.2 1.1-5.1-.5-1.9-.8-3.5-2.2-3.5-3 0-2.1.6-2 4.1.5 3.3 2.4 4 1.6.8-1-1.8-1.5-2-2.1-1-3.9 1.2-2.2 1.3-2.2 4.2-.5 2.5 1.5 2.9 2.2 2.4 4.3m2.9 2.2c-.3.4.2.8 1.1.8s1.3.4 1 1c-1.3 2.1-3.1.9-3.3-2.3-.1-2.3.1-2.8.7-1.7.5.8.7 1.8.5 2.2m4.1-2.2c.3.5.2 1-.4 1-.5 0-1.3-.5-1.6-1-.3-.6-.2-1 .4-1 .5 0 1.3.4 1.6 1m9.5 9.6c0 1.3-.5 2.6-1.2 3-.7.5-.9 0-.6-1.4.3-1.1-.3-3.5-1.4-5.4-2-3.3-2-3.3.6-.9 1.4 1.4 2.6 3.5 2.6 4.7m-20.2-4c2.3.7 2.7 2 1.2 4.4-.7 1.2-1.2 1.2-3.4 0-1.4-.7-2.6-2.2-2.6-3.2 0-1.9 1-2.2 4.8-1.2m4.3 4.7c-1.7 1.7-2.4.1-1-2.5 1.2-2.1 1.4-2.1 1.7-.4.2 1-.1 2.3-.7 2.9m-3.8 2.3c2.2.8 2.4 7.6.3 9.4-2.6 2.1-6.1.8-6.4-2.4-.4-3.5 1.7-8.9 3.2-8.1.6.3 1.9.8 2.9 1.1m14.7 1.9c0 .3-.2.5-.5.5s-.5-.2-.5-.5.2-.5.5-.5.5.2.5.5M593 551c0 2.7.5 5 1 5 .6 0 1-2.3 1-5 0-2.8-.4-5-1-5-.5 0-1 2.2-1 5M593 568c0 3.3.4 6 1 6s1-2.7 1-6-.4-6-1-6-1 2.7-1 6M593 584.5c0 2.5.5 4.5 1 4.5.6 0 1-2 1-4.5s-.4-4.5-1-4.5c-.5 0-1 2-1 4.5M593 602.1c0 3.1.4 4.8 1 4.4.6-.3 1-2.6 1-5.1 0-2.4-.4-4.4-1-4.4-.5 0-1 2.3-1 5.1M520.4 605.5c1.1.8 2.7 1.5 3.5 1.5 1.1 0 1-.4-.5-1.5-1-.8-2.6-1.4-3.4-1.4-1.1 0-1 .3.4 1.4M528 608.8c0 .5 1.7 1.6 3.8 2.5 3.7 1.7 3.7 1.7.7-.8-3.1-2.6-4.5-3.1-4.5-1.7M592 611.4c0 .7-.9 2.5-2.1 4-1.1 1.4-1.6 2.6-1 2.6 1.1 0 5.1-5.7 5.1-7.3 0-.4-.4-.7-1-.7-.5 0-1 .6-1 1.4M550.3 615.2c-2 1-5.3 6.3-5.3 8.5 0 .5 1.8 3.2 4 6.2 2.2 2.9 4 5.9 4 6.6s3.5 3 7.7 5.1c5.6 2.9 7.9 4.6 8.4 6.4.4 1.4 2 6.5 3.4 11.5 1.5 4.9 3.4 11.5 4.2 14.5 1.7 5.9 3.9 13.4 7.2 24.5 1.1 3.8 2.7 9.5 3.6 12.5.8 3 1.9 6 2.3 6.7 1.1 1.7 83.2 3.1 83.2 1.5 0-.9-9.1-1.2-34.2-1.3-43.9-.2-46.5-.2-47.4-1.2-.4-.4-1.6-3.6-2.5-7s-4.5-15.7-7.9-27.2c-10.4-35.3-10.5-36-10.9-44.3 0-1.7-.6-3.2-1.1-3.2-.7 0-.8 1.4-.4 3.7.6 3.8.6 3.8-3.9-1.2-2.6-2.8-4.6-5.5-4.7-6 0-1.9 4-7.5 5.5-7.5 2.3 0 1.8 1.5-1 3-2.4 1.3-3.5 5-1.5 5 .6 0 1-.9 1-2s.5-2 1-2c.6 0 1 .5 1 1.1 0 1.5 4.1 4.8 6 4.9.9 0 .4-.9-1.4-2.3-2.4-2-2.7-2.7-1.8-4.3 1-1.8 1.1-1.7 2.1.8 1.2 3.2 2.3 3.5 4.1 1.3 1-1.3 1-1.9-.5-3.5-1-1.1-2.7-2-3.7-2-1.1 0-2.7-.9-3.6-1.9-1.7-1.8-12.7-8.2-14-8-.4 0-1.7.5-2.9 1.1m2.7 2.3c0 .8-.7 1.5-1.5 1.5-1.4 0-1.4.3 0 2.3.8 1.3 2.6 2.9 4 3.5 3 1.4 3.3.2.5-1.6-2-1.2-2.8-6.2-1-6.2 2.4 0 9 3.6 9 4.9 0 1.8-5.5 7.1-7.4 7.1-.8 0-1.7-.8-1.9-1.8-.3-.9-.5-.2-.6 1.5 0 1.8-.3 3.3-.6 3.3-1.6 0-6.4-6.8-6.3-9 .1-2.3.1-2.4.5-.3.3 1.3 1.2 2.3 2.1 2.3 1.3 0 1.4-.2.4-.8-.7-.5-1-1.6-.6-2.5.4-1 .1-1.7-.6-1.7-.9 0-.7-.7.5-2 2.2-2.4 3.5-2.6 3.5-.5m21 9.5c0 .5-.4 1-1 1-.5 0-1-.5-1-1 0-.6.5-1 1-1 .6 0 1 .4 1 1m-14.1 7.4c1.8 3.8 0 5.7-2.9 3.1-2-1.8-2.6-4.5-1.3-5.9 1.2-1.1 2.7-.1 4.2 2.8m5.6 5.7c1 1.5-.1 2.3-2 1.5-.9-.3-1.3-1-1-1.6.8-1.3 2.2-1.3 3 .1M540.6 616.5c1 .8 2.6 1.4 3.4 1.4 1.1 0 1-.3-.4-1.4-1.1-.8-2.7-1.5-3.5-1.5-1.1 0-1 .4.5 1.5M579.5 622.1c-1.6 1-2.4 1.9-1.7 1.9 1.5 0 7.2-2.8 7.2-3.5 0-1-2.6-.3-5.5 1.6M367.6 637.2c-.3 1.3-.6 3-.6 3.7 0 2.3 1.6 0 2.4-3.2s-.9-3.7-1.8-.5"/><path d="M578 636.8c0 1 5 3.5 5.7 2.8.3-.2-.9-1.2-2.6-2.1-1.7-.8-3.1-1.2-3.1-.7M229.4 638.3c-.2.7-.3 6-.2 11.8l.3 10.4h87v-23l-43.3-.3c-35.2-.2-43.3 0-43.8 1.1m84.4 10.4-.3 10.8h-8.7c-4.9 0-23.2-.2-40.8-.3l-32-.2v-21h82.1z"/><path d="M238.8 641.2c-.8 2.4.7 7.3 2.2 7.3 1.8 0 2.6 3.3 1.1 4.8-.9.9-1.4.8-2-.2-.5-.7-1.1-.9-1.4-.4-.9 1.5.9 3.5 2.8 3.1 3.6-.6 3.6-9.8 0-9.8-2.2 0-1.8-3.1.5-3.7 1.1-.3 2-.9 2-1.4 0-1.4-4.7-1.1-5.2.3M271.5 642c-2.2 2.4-1.7 11.8.7 13.4 2 1.2 3.2.3 4.2-3.1.5-1.7 0-2.9-1.8-4.8-2.6-2.6-3.4-5.5-1.6-5.5.6 0 1 .4 1 1 0 .5.5 1 1 1 1.5 0 1.2-2.7-.4-3.3-.8-.3-2.2.3-3.1 1.3m3 9c0 1.3-.6 2.5-1.2 2.7-.9.3-1.3-.6-1.3-2.7s.4-3 1.3-2.8c.6.3 1.2 1.5 1.2 2.8M280.8 640.7c-.3.5-.5 4.1-.6 8-.3 7.2-.2 7.3 2.2 7.3 2.7 0 5.6-4.1 5.6-7.7 0-4.3-5.9-10.4-7.2-7.6m4 2.5c2.4 2.4.7 12.8-1.9 11.3-1.1-.7-1.2-12.5-.1-12.5.4 0 1.3.5 2 1.2M251 648.5c0 6.2.3 7.5 1.6 7.5 1.1 0 1.4-.5 1-1.6-.3-.9-.6-4.2-.6-7.5s-.4-5.9-1-5.9-1 3.2-1 7.5M293.5 648.5c0 5.4.4 7.5 1.3 7.5s1.1-1.6.8-6.3c-.2-3.4-.5-6.8-.5-7.5-.1-.6-.4-1.2-.8-1.2-.5 0-.8 3.4-.8 7.5M261.3 648.7c.9.2 2.5.2 3.5 0 .9-.3.1-.5-1.8-.5s-2.7.2-1.7.5M590 644c2.3 1.8 5 2.6 5 1.5 0-.6-5.6-3.5-6.7-3.5-.4 0 .3.9 1.7 2M365.2 648.9c-1.4 4.6-1.5 5.1-.4 5.1.5 0 1.3-2 1.9-4.5 1.3-5.5.1-6-1.5-.6M601 650c2.3 1.8 5 2.6 5 1.6 0-.5-6-3.6-6.9-3.6-.3 0 .5.9 1.9 2M610.6 653.6c-3.3 3.3-1.7 5.1 10.2 11.5 3.9 2.1 6.2 3.9 6.2 5 0 2.1 5 5.9 7.7 5.9 2.4 0 4.5-2.3 6.3-6.8 1.2-3.2 1.2-3.2 16.6-3.2 22.1 0 20.7-1.8-1.8-2.3-19.1-.4-24.9-1.2-29.5-4.2-2.8-1.9-13.2-7.5-13.8-7.5-.2 0-1.1.7-1.9 1.6m3.4 1.4c0 .5.7 1 1.6 1s1.4.7 1.2 1.7c-.5 2.5-2.8 2.8-2.8.4 0-1.2-.4-2.1-1-2.1-.5 0-1 .5-1 1.1 0 .5-.4.8-1 .4-1.3-.8-.1-3.5 1.6-3.5.8 0 1.4.4 1.4 1m7 3.4c0 1.6-1.4 3.6-2.6 3.6-1.4 0-1.9-2.2-.7-3.3.7-.8 3.3-1 3.3-.3m4 2c0 1.6-1.4 3.6-2.6 3.6-1.4 0-1.9-2.2-.7-3.3.7-.8 3.3-1 3.3-.3m3 3c0 1.6-1.8 3.1-2.7 2.2-.8-.8.5-3.6 1.7-3.6.5 0 1 .6 1 1.4m5.5 1.6c.8 1.2-1.6 5-3.2 5-1.4 0-1.7-1.9-.7-4.4.7-1.8 3-2.1 3.9-.6m6.3 2.7c.2 1.1-.8 3.3-2.1 4.9-2.1 2.4-2.7 2.6-4.1 1.5-1.4-1.2-1.4-1.6.1-4.5 2.6-5 5.5-5.9 6.1-1.9M631 672c0 .5-.2 1-.4 1-.3 0-.8-.5-1.1-1-.3-.6-.1-1 .4-1 .6 0 1.1.4 1.1 1"/><path d="M676.5 658c-.7 2.3 1 5 3.2 5 .8 0 1.3.7 1.1 1.7-.3 1.2-1.2 1.7-2.6 1.6-1.4-.2-2.1.1-1.7.7.9 1.4 4.2 1.3 5.1-.2 1.1-1.8 1.3-7.1.2-9.1-1.2-2.3-4.5-2.2-5.3.3m4.1 2.6c-.5 1.3-1 1.4-1.8.6-.6-.6-.8-1.8-.4-2.8.5-1.3 1-1.4 1.8-.6.6.6.8 1.8.4 2.8M686.7 656.6c-1.5 1.6-.7 5.6 1.3 6.1 1.1.3 2 1.4 2 2.5 0 1.5-.5 1.8-2 1.3-1.2-.4-2-.2-2 .5 0 .6 1.2 1 2.8.8 2.6-.3 2.7-.5 2.7-5.8 0-4.8-.3-5.5-2-5.8-1.2-.2-2.4 0-2.8.4m3.3 2.9c0 2.6-1.4 3.3-2.5 1.5-.9-1.4.1-4 1.5-4 .5 0 1 1.1 1 2.5M695.9 657c-.5 3.7-.6 7.8-.2 9.2.5 2.1 3.6 2.4 5.1.5 1.1-1.4 1-7.6-.1-9.5-1-1.4-4.6-1.6-4.8-.2m3.6 3c-.5.8-1.1.8-1.7.2s-.7-1.6-.3-2.2c.5-.8 1.1-.8 1.7-.2s.7 1.6.3 2.2m.1 5.6c-.5 1.3-1 1.4-1.8.6-.6-.6-.8-1.8-.4-2.8.5-1.3 1-1.4 1.8-.6.6.6.8 1.8.4 2.8M705.2 657.2c-2.8 2.8-.5 10.8 3.1 10.8 1.8 0 2.7-2.1 2.7-6 0-5.6-2.7-7.9-5.8-4.8m3.8 4.9c0 2.8-.4 3.9-1.5 3.9s-1.5-1.1-1.5-3.8c0-2.1.3-4.2.6-4.5 1.4-1.3 2.4.6 2.4 4.4M716.8 656.6c-.8 1.5.4 11.4 1.3 11.4 1.1 0 1.2-9 0-10.9-.5-.7-1-.9-1.3-.5M734 657.9c-2.2 4.1-.4 10.1 2.9 10.1 2.1 0 3.1-1.9 3.1-6 0-1.6-.3-3.5-.6-4.4-.8-2.2-4.1-2-5.4.3m3.8 4.3c-.2 2.4-.7 4.3-1.3 4.3-.5 0-1.1-1.9-1.3-4.3-.3-3.3 0-4.2 1.3-4.2s1.6.9 1.3 4.2M743.5 657.2c-.2.7-.3 3.3-.2 5.8.2 3.7.6 4.6 2.3 4.8 2.9.4 4.8-2.1 3.5-4.6-.7-1.3-.7-2.2.1-3s.8-1.5-.2-2.7c-1.5-1.8-4.9-2-5.5-.3m3.7 3c-.9.9-1.5.9-2.4 0-1-1-1-1.5.2-2.2.9-.6 1.9-.5 2.4 0 .7.7.6 1.4-.2 2.2m.4 3.9c1 1.7-1.3 3.6-2.7 2.2-1.2-1.2-.4-3.3 1.1-3.3.5 0 1.2.5 1.6 1.1M755.2 659.1c-2.8 4.5-2.8 6.9-.2 6.9 1.1 0 2 .5 2 1.2 0 .8.3.8.9.2.6-.5.7-3.3.3-6.4l-.7-5.5zm1.4 4.4c-.3.9-1.1 1.3-1.6 1-.8-.5-.7-1.1.1-2.1 1.4-1.8 2.4-1.1 1.5 1.1M763.2 657.2c-1.4 1.4-1.6 7.6-.3 9.6 1.3 2.2 4.5 1 5.5-2.1 1.9-5.2-2-10.7-5.2-7.5m3.3 5.1c0 5.2-1.9 5.1-2.3-.2-.2-3.2 0-4.2 1-3.9.8.3 1.3 2 1.3 4.1M773.3 656.7c-.8.3-1.3 2.5-1.3 5.9 0 5.3.1 5.4 2.9 5.4 3.5 0 4-1.1 3.2-7-.6-4.4-1.9-5.6-4.8-4.3m3.5 5.8c0 3.2-.4 4.5-1.4 4.5s-1.4-1.3-1.4-4.5c0-3.1.4-4.5 1.3-4.5 1 0 1.4 1.4 1.5 4.5M363 658.9c-1.2 2.4-1.4 7.9-.1 6.5.9-.9 2.3-8.4 1.6-8.4-.2 0-.9.9-1.5 1.9M427.2 658.6c-1.5 1.1-2.2 2.5-2.2 5 0 2.3-1.1 5-3.5 8.4-3.6 5.1-4.5 9.6-2.3 11.8.6.6 1.3 4.8 1.5 9.4.7 13.2 1.4 14 20.2 26.1l9.1 5.8v37.4c0 24.3.4 37.5 1 37.5s1-12.8 1-36.5c0-20.1.2-36.5.6-36.5.3 0 4.8 2.5 10.1 5.5 5.3 3.1 10.2 5.4 10.9 5.1 1.5-.6 10.9 3.3 10.1 4.1-.3.2-2.4-.5-4.7-1.7s-4.4-1.9-4.6-1.7c-.5.4 17 9.3 26.8 13.6 4.7 2 4.9 2 8 .3 3.9-2.2 5.8-5.4 5.8-9.9 0-4.4.9-6.3 3.1-6.3 1.3 0 1.9-.7 1.9-2.4 0-1.4.5-2.8 1-3.1.6-.3 1 0 1 .8s.7 2.9 1.6 4.7c2.1 4.1 3 7.9 4.9 20.5 1.7 11.2 5.9 24.5 10.1 31.9 1.5 2.6 6.7 8.8 11.5 13.6 4.9 4.8 8.9 9.2 8.9 9.8s1.2 2.5 2.7 4.3c1.6 1.8 2.8 4.5 2.8 6.3.1 1.7.2 18.5.3 37.3.1 22.1.6 34.3 1.2 34.3s1-13.3 1-37.9v-38l4.3.3c2.3.2 6.7 1.1 9.7 2.1 6.6 2.1 16.9 1.7 22.1-.8 4.2-2.1 9.7-7 12.2-11 1.8-2.8 1.8-2.8 4.5-.9 1.5 1 4.4 2.7 6.5 3.7 2.1 1.1 9.1 5.2 15.5 9l11.7 7 .3 15.8c.1 9.3.6 15.7 1.2 15.7 1.2 0 1.4-29.9.2-31.6-.7-1.1-10.9-7.4-20.2-12.6-2.5-1.4-7.4-4.2-10.9-6.3-6.3-3.7-6.3-3.7-5.5-7.4.4-2 .8-7.8.9-12.9.1-6.9.5-9.7 1.7-10.8 1.4-1.4 1.5-1.1 1.1 3.3-.5 4.5-.3 5 2.2 6.3 2.2 1.2 3 1.2 4.7.1s2.2-1 2.9.1c.5.7.9 1.6.9 1.9s1.1 1.1 2.5 1.7c2.1 1 3.2.9 5.5-.3 1.8-.9 2.7-2.1 2.4-2.9s.4-1.9 1.6-2.6c2-1 2.1-1.7 1.5-5.8-.6-4.4-3.7-9.2-5.8-9.2-.5 0-2.1-.8-3.5-1.9-4.4-3.1-6.6-3.3-9.2-1.1-1.3 1.1-2.9 2-3.6 2-3.8 0-12.4 16.3-13.8 26-.8 5.5-4.1 11.6-7.8 14.3-3.4 2.5-11.3 3.6-18.1 2.6-4-.7-5.7-1.6-7.9-4.1-1.5-1.8-2.8-3.6-2.8-4 0-1.5-6-3.8-9.7-3.8-3.4 0-4.6-.7-9.9-6.3-7.4-7.5-9.5-10.6-12.1-17.7-3.5-9.5-4.2-12.3-5.3-21.5-1.6-13.6-4.3-22.4-9.8-32.5-2.7-4.9-9.9-15.3-12.9-18.5-1-1.1-2.3-3.1-2.9-4.5-5.9-13.2-9.9-20.3-12.8-22.5-2-1.5-3.6-3.8-4-5.5-.4-2.4-1.1-3-3-3-1.4 0-2.7.4-3.1.9-1 1.7-8.7-3.2-9.7-6.2-1.1-2.9-4.4-3.7-6.5-1.6-.9.9-2.3.9-5.5.1-5.8-1.4-18.4-2.5-14.5-1.3 1.5.5 5.6 1.3 9.1 1.6 9.1 1 9.7 1.6 6 6.2-1.7 2.1-3.8 3.9-4.7 4.1s-7.4-2.5-14.4-6c-9.1-4.5-12.1-6.4-10.5-6.6 3.9-.6 1.3-2.2-3.6-2.2-2.7 0-5.7.7-7 1.6m13.5 4.9c5.4 2.5 10.6 5 11.6 5.6 1 .5 4.1 2.2 7 3.8 17.7 9.6 38.8 22.9 44.9 28.3 5.2 4.6 6.1 8.6 5.9 27.7-.1 21.1-1.5 25.6-7.1 22.1-1.6-1-1.5-1.1 1.5-2.9 1.9-1.1 1.9-1.2-.2-.6-2.3.6-2.3.6-1.7-15.7.5-14.6.4-16.7-1.3-19.8-2.3-4.3-14.1-12.9-15.3-11-.5.8-1 .8-1.4.2-.3-.6-.1-1.2.5-1.4 1-.3-9-6.8-21.6-13.8-6-3.4-24.3-12.5-30-14.9-4.4-1.9-7.5-5.3-7.5-8.2 0-1.1 3-3.9 4-3.9.5 0 5.3 2 10.7 4.5m36.3 1.6c0 .5-.9.9-2 .9-1.9 0-2.6-1.1-1.4-2.3.8-.8 3.4.3 3.4 1.4m-5 2.6c0 1-1.1 2.3-2.5 3-3 1.3-3.1 1-.7-2.2 2-2.9 3.2-3.2 3.2-.8m10.6.9c1.9.9 3.4 2.3 3.4 3 0 2.3-4.3 8.3-6.4 9-2.2.7-13.6-4.4-13.6-6 0-.9 11.3-7.5 12.8-7.6.2 0 1.9.7 3.8 1.6m-53.1 2.4c.3.6-.5 1-1.8 1-2.8 0-3.7 1.6-3.7 6.3 0 1.8-.5 3.9-1 4.7-1.1 1.8-1.4-4.8-.4-9.9.5-2.6 1.1-3.1 3.5-3.1 1.5 0 3.1.4 3.4 1m62.5 2c.8.5 1.1 1.2.8 1.6-1 .9-3.8-.3-3.8-1.6 0-1.2 1-1.3 3 0m-47.2 7.1c7 3.4 13.9 7 15.4 8 2.7 1.9 6 2.7 4.3 1-.6-.5-5.2-3-10.3-5.6-5.2-2.6-9.1-4.9-8.9-5.2.9-.8 20.7 10.2 20.3 11.3-.3.7 3.1 3.3 7.5 5.9 7.5 4.4 11.6 7.8 7.3 6.1-1-.5-2.8-1-3.9-1.3-2.9-.6 9.5 5.2 12.9 6.1 1.6.4 4.2 2.1 5.8 3.8 2.8 3 2.8 3 2.8 18.3 0 11.9-.3 15.4-1.4 15.8-1.3.5-17.7-6.6-23.9-10.3-3.5-2.2-6.2-2.6-5.1-.9.4.8 0 .8-1.5 0-2.4-1.3-2.8-2.3-.6-1.5 3.1 1.2 1.3-.5-3.2-3-2.6-1.5-5.3-2.4-6-2.1-.8.2-1.1.1-.8-.5.3-.5-1.6-2.1-4.2-3.6-10.3-5.9-22-14.3-23.8-17.1-1.5-2.1-2-5.1-2.3-13.1-.2-5.6-.1-12.3.3-14.8.6-4.5.8-4.6 3.6-4 1.6.3 8.7 3.3 15.7 6.7M437 674c.8.5 1.1 1 .5 1-.5 0-1.7-.5-2.5-1s-1-1-.5-1c.6 0 1.7.5 2.5 1m52 3.1c0 1-4 3.3-4.6 2.6-.3-.2.1-1.6.7-3.1.9-2 1.5-2.3 2.6-1.5.7.6 1.3 1.5 1.3 2m-45.5-.1c.3.5.2 1-.4 1-.5 0-1.3-.5-1.6-1-.3-.6-.2-1 .4-1 .5 0 1.3.4 1.6 1m57 3.6c4.5 5.9 10.5 21.4 12.1 31.4 1.7 10.1 1.7 12 .4 12-.5 0-1-2.4-1-5.3 0-6.4-1.6-12.3-4.3-16.1-1.1-1.6-5.9-5.3-10.6-8.4-14.5-9.3-15.1-9.7-15.1-10.7 0-1.4 11.1-7.3 13.5-7.1 1 0 3.3 2 5 4.2m-77.8 6.1c-.4.3-.7 0-.7-.7s.3-1 .7-.7c.3.4.3 1 0 1.4m.9 9.4c.3 4.1 1.2 7.2 2.6 9.1 2.4 3.4 1.9 4.7-.7 1.8-1.9-2.1-3.4-8.2-3.5-14.4 0-6 1.1-3.6 1.6 3.5m46.4-4.6c0 .3-.2.5-.5.5s-.5-.2-.5-.5.2-.5.5-.5.5.2.5.5m5 3c0 .3-.2.5-.5.5s-.5-.2-.5-.5.2-.5.5-.5.5.2.5.5m4.5 2.5c.3.5.4 1 .1 1s-.8-.5-1.1-1c-.3-.6-.4-1-.1-1s.8.4 1.1 1m9 6c.3.5.4 1 .1 1s-.8-.5-1.1-1c-.3-.6-.4-1-.1-1s.8.4 1.1 1m34.3 15c7.1 11.8 10.6 21.2 11.7 31.5 1 9.7 1.7 13.1 4.2 20.5 3.9 11.9 7.1 17.6 13.4 23.8 3.2 3.1 5.9 5.9 5.9 6.2-.1.3-.7 1.3-1.5 2.4-1.3 1.8-1.6 1.7-5.6-1.7-4.7-4-11.6-12.8-13.1-16.7-4.2-10.7-5.9-16.7-7.4-26.4-2-13.7-4.1-20.1-11-33.8-3.7-7.4-5.4-11.9-5.4-14.5v-3.8l2.5 3c1.3 1.6 4.2 5.9 6.3 9.5m-24.8-8.5c0 .3-.2.5-.5.5s-.5-.2-.5-.5.2-.5.5-.5.5.2.5.5m2 3c0 .3-.2.5-.5.5s-.5-.2-.5-.5.2-.5.5-.5.5.2.5.5m1.2 19.2-.9 10.8-.1-14.5c0-11.4.2-13.7 1-10.8.6 2.5.7 7.5 0 14.5m16.3-8.7c2 3.9 1.9 4.7-.5 2.5-1.1-1-2-2.6-2-3.7 0-2.6.7-2.2 2.5 1.2m-2.5 3.4c0 .3-.4.8-1 1.1-.5.3-1 .1-1-.4 0-.6.5-1.1 1-1.1.6 0 1 .2 1 .4m3 2.6c0 .5-.7 1-1.5 1s-1.5-.5-1.5-1c0-.6.7-1 1.5-1s1.5.4 1.5 1m-4.5 1.1c1.1 1.7-.1 2.1-1.5.4-.8-.9-.8-1.5-.2-1.5s1.4.5 1.7 1.1m4.1 4.6c-1.1 1.1-1.9-.6-1.1-2.4.8-1.7.8-1.7 1.2 0 .3 1 .2 2.1-.1 2.4m-46.1.3c.3.6-.1.7-.9.4-1.8-.7-2.1-1.4-.7-1.4.6 0 1.3.4 1.6 1m42.5 0c0 .5-.7 1-1.6 1-.8 0-1.2-.5-.9-1 .3-.6 1-1 1.6-1 .5 0 .9.4.9 1m-.6 7.7c-.3 2.1-1.1 4.2-1.7 4.8-.6.7-.8.2-.3-1.5.3-1.4.6-3.5.6-4.8 0-1.2.5-2.2 1-2.2.7 0 .8 1.4.4 3.7m-21.5 1.9c3.4 1.4 4.7 1.5 6.2.6 1.7-1.1 1.9-.9 1.9 1.3 0 1.4-.6 2.5-1.2 2.5-1.8 0-13.8-5.8-13.8-6.6 0-.3.6-.4 1.3-.1.6.3 3.2 1.3 5.6 2.3m145.2 25.1c5.3 2.8 5.7 3.4 3.4 5.3-1.1 1-2.5.6-7-2-5.5-3.2-6.5-4.4-4.2-5.3 2.1-.9 2.8-.8 7.8 2m-2.8 5c2.2 1.4 3.7 3.1 3.7 4.3 0 2.6-1.6 2.5-3.8-.2-.9-1.2-3-3.4-4.7-5-3.5-3.4-1.4-3 4.8.9m-10.3-1.3c0 .2-.7.7-1.6 1-.8.3-1.2.2-.9-.4.6-1 2.5-1.4 2.5-.6m6 2.1c.8.9.8 1.5.2 1.5-1.8 0-4.2-1.2-4.2-2.1 0-1.4 2.6-1 4 .6m14 1.6c0 1.1.4 2.9 1 3.9.8 1.5.4 2.2-2.6 4-4.2 2.7-5.2 2-3.6-2.3.7-1.9 1.2-4.1 1.2-4.9 0-1.5 1.2-2.5 3.3-2.7.4-.1.7.8.7 2m-17.5.9c.4.6.2 1.7-.4 2.4s-.8 1.6-.4 1.9c.3.4.1.7-.5.7s-1.4-.5-1.7-1c-.3-.6-.2-1 .3-1 .6 0 .8-.9.5-2-.6-2.1 1.1-2.8 2.2-1m4.9 3.1c-.3.5-1.3.9-2.2.8-1.1 0-1.2-.2-.4-.6.6-.2 1-.9.7-1.4-.4-.5.1-.6.9-.3.9.3 1.3 1 1 1.5m4.3 2.4c.3.9.3 1.8.1 2.1-.9.9-3.8-.8-3.8-2.2 0-1.9 2.9-1.8 3.7.1m-8.7 2c1.4 1.6 1 1.8-1.4.9-.9-.3-1.6-1-1.6-1.5 0-1.4 1.6-1.1 3 .6m2.7-.8c-.4.3-1 .3-1.4 0-.3-.4 0-.7.7-.7s1 .3.7.7m-11.7.8c0 .3-.2.5-.5.5s-.5-.2-.5-.5.2-.5.5-.5.5.2.5.5m23.5 3.6c-.8 1.2-3.5 1.2-3.5 0 0-1.1 2.2-2 3.3-1.4.4.2.5.9.2 1.4m-23.5 4c0 10.5-5.4 19.7-14.7 25-3.1 1.8-5.3 2.2-11.8 2.2-9.9-.2-19-2.9-19-5.7 0-3.3 2.7-4.1 8.3-2.3 16.5 5.4 28.9-1.7 31.7-18.2.6-3.5 1-4.1 3.1-4.1 2 0 2.4.5 2.4 3.1m-54.6 11.3c-.6 2-.6 2 1.3.4 1.4-1.3 2.6-1.5 4.8-1 2.5.7 2.7.9 1 1.5-1 .5-2.1.3-2.5-.4-.8-1.2-5 3.5-5 5.7 0 .7-.5 1.6-1.1 2-.9.5-1-.1-.5-2.1.6-2.3.4-2.7-1-2.1-1.4.5-1.6.1-1-2.6.5-3.1.5-3.2-.9-1.4-1.6 2.1-1.9 1.8-1-.7.3-.7 1.9-1.4 3.6-1.4 2.5 0 2.8.3 2.3 2.1m2.7 5c-.9 1.8-1.8 3.2-2 3-.6-.5 2-6.4 2.9-6.4.4 0 0 1.5-.9 3.4m5.9-2.8c0 .3-.9 1.7-2 3.1s-2 3.4-2 4.4c0 1.1-.2 1.9-.4 1.9s-1.1.3-2 .6c-1.1.4-1.6 0-1.6-1.2 0-1.6.2-1.7 1-.4.7 1.2 1 .8 1-1.4 0-1.7 1-4 2.2-5.3 2-2.2 3.8-3 3.8-1.7m1.2 3.4c-2.2 2.1-2.6 3-2.3 6.5.2 1.7 0 1.7-.8.5-1.7-2.5 1.4-9 4.2-9 .6 0 .1.9-1.1 2"/><path d="M429 664.5c-.8.9-.8 1.5-.2 1.5 1.2 0 2.6-1.9 1.9-2.6-.2-.2-1 .2-1.7 1.1M435.6 664.7c-.5.5 12.8 7.3 14.2 7.3 1.2-.1-4.3-4-5.5-4-.7 0-2.8-.9-4.7-1.9-1.9-1.1-3.7-1.7-4-1.4M457.3 676c3.8 2.2 7 4 7.2 4 1.3 0 30.5 18.6 35.3 22.6 5.6 4.6 6.2 6.7 6.4 23.9.1 8.6.6 15.9 1 16.1 1.2.7 1-28.5-.2-32.5-1.3-4.5-4-7.3-12.5-13.1-8.1-5.4-20.4-13-21.3-13-.3 0-1.3-.6-2.1-1.4-2-1.6-18.7-10.6-19.8-10.6-.4 0 2.3 1.8 6 4M438 698c-4.7 1-8.7 2.6-9.5 3.9-.6 1.1 2.1.5 4-.9 1.6-1.2 7.4-2.1 18.5-2.9l10.5-.8h-10c-5.5 0-11.6.3-13.5.7M442.3 658.7c.4.3 1 .3 1.4 0 .3-.4 0-.7-.7-.7s-1 .3-.7.7M446 659c0 .5.7 1 1.6 1 .8 0 1.2-.5.9-1-.3-.6-1-1-1.6-1-.5 0-.9.4-.9 1M725 663c0 .5 1.1 1 2.5 1s2.5-.5 2.5-1c0-.6-1.1-1-2.5-1s-2.5.4-2.5 1M272.8 663.5c-.3.6-.7 21.5-.9 46.5-.1 25-.4 45.8-.6 46.2s-2.4-.2-4.8-1.3c-4.6-2-8.5-1.8-8.5.5 0 .7-1.3 3-3 5.2-2.2 2.9-3 5-3 8.2 0 3.5-.4 4.4-2.5 5.4-1.4.6-2.5 1.5-2.5 2s.9.4 2-.2 2-.9 2.1-.8c0 .2.2 5.9.5 12.7.6 15.2 1.8 17.8 10.7 23.6 3.3 2.2 7 4.5 8.2 5.1 1.1.5 3.1 1.7 4.5 2.6 4.3 2.8 20.9 11.5 36.5 19.2 12.6 6.2 16 7.5 21.5 7.9 3.6.3 7.2.2 7.9-.2.7-.5 1.7-2.8 2.2-5.2 1.3-7.1 1-28.8-.5-34.9-4.7-18.5-5.8-21.1-11.9-27.7-4.8-5.2-12.5-10.8-13.5-9.8-.4.3.1 1.1 1.1 1.7 3.9 2.2 12.3 9.6 14.5 12.8 2.1 3.2 2.2 6.2.2 8.4-.5.4-2.8-.5-5.2-2.1-2.3-1.7-5.8-3.8-7.5-4.7-4-2-4.1-2.9-.8-4.4 1.4-.6 2.5-2 2.5-3 0-2.3-3.4-5.6-5.2-5-.8.3-.5.9 1 1.7 1.2.6 2.2 1.8 2.2 2.6 0 1.8-.8 1.9-4.3.2-2.4-1-2.7-1.6-2.2-4.5.4-1.9.2-3.2-.5-3.2-.5 0-1 1-1 2.2 0 3.8-1.2 4.7-4.9 3.9-4.8-.9-5.3-3.1-.7-3.1 2 0 3.6-.5 3.6-1 0-1.3-5.6-1.3-7.8.1-1.4.9-2.7.6-6.5-1.5-2.6-1.4-6.8-3.8-9.4-5.2-2.7-1.4-5.2-3-5.7-3.5-2.6-2.4 17.8.7 26.2 4 3.2 1.3 5.2 1.7 5 1-.4-1.1-2.8-2.2-10.9-4.8-2.1-.6-6.7-1.4-10.3-1.8-3.7-.3-6.9-.9-7.1-1.4-.3-.4.8-1.6 2.5-2.5 1.6-1 3-2.2 3-2.6 0-1.6-1.8-.7-5 2.2-2.3 2.1-4.2 3-6.6 3H274l-.2-47.8c-.2-26.2-.6-47.2-1-46.7m3.6 97.4c8.8 4.3 18.7 9.7 31.5 17.2 2.7 1.6 3.6 1.8 4.3.7.6-1 .8-.8.6.5-.2 1.4 2.4 3.6 10.5 8.6 5.9 3.8 12.1 8.1 13.7 9.6 4 3.8 5 9.6 5 28.4 0 14.6-.2 16.1-2.1 18.2-1.4 1.7-2.2 2-2.5 1.1-.3-.6-1.4-1.2-2.5-1.2-1.7 0-1.8-.7-1.2-12.8.7-16.6-.5-23.6-5-27.7-7.1-6.7-48.7-31.7-64.9-39.2-5.7-2.6-6.7-3.6-4.8-4.8.6-.3 1-1.5 1-2.7 0-1.8.4-2 3.2-1.4 1.7.3 7.6 2.8 13.2 5.5m-10.2 5.9c30 15.7 61.3 35.6 63.8 40.7 1.6 3.4 2.7 24.6 1.5 32.1-.5 3.9-.9 4.4-3.1 4.4-2.5 0-22.7-9.5-35.4-16.5-3.6-2-9.4-5.3-12.9-7.2-6.5-3.6-17.9-10.6-21.7-13.3-4.3-3.1-4.8-5.6-4.8-23.5-.1-9.4.2-17.8.6-18.8 1.1-2.6 3.9-2.1 12 2.1m70.8 25.1c.9 3.2 0 4.1-1.8 1.8-.6-.7-.9-2.3-.5-3.5.7-2.7 1.1-2.4 2.3 1.7"/><path d="M263.5 759c.3.5 1.2 1 1.9 1 2 0 24.5 11.4 33.6 17 4.7 2.9 9.9 6 11.5 7 1.7.9 5.9 3.6 9.5 5.9s7.4 4.7 8.5 5.4c1.1.6 3.7 2.9 5.8 5 3.7 3.8 3.7 3.8 3.9 15 .1 6.2 0 14.4-.1 18.3-.2 4.4.1 7.4.8 7.8.8.5 1.1-4.3 1.1-16.7 0-20.2-.7-23-7.3-27.7-13.9-10.2-40-25.6-56.9-33.8-10.6-5.2-13.5-6.1-12.3-4.2M360.9 670.5c-.4.5-.9 3-1.3 5.5-.6 4.5-.6 4.5 1 1.1 1.4-3.1 1.7-8.8.3-6.6M410.2 684.6c-2.4 1.4-4.1 2.8-3.8 3.1.6.7 8.6-3.8 8.6-4.9s.1-1.1-4.8 1.8M357.6 684.8c-.2.4-.7 2.5-1.1 4.6-.6 2.8-.5 3.7.4 3.2.6-.4 1.1-1.6 1.1-2.7s.5-2.9 1-4c1-1.8-.3-2.9-1.4-1.1M397.1 692.1c-1.8 1.1-3.1 2.2-2.8 2.5.4.5 7.7-3.4 7.7-4.2 0-.9-1.6-.3-4.9 1.7M143.4 692.3c-.2.7-.3 6-.2 11.8l.3 10.4 42.9.3c25.3.1 43.3-.2 44-.7.7-.6 1.1-5 1.1-11.8v-10.8l-43.8-.3c-35.6-.2-43.8 0-44.3 1.1m84.9 3.4c.4 3 .3 15.1-.2 17.3-.1.3-18.4.5-40.9.5h-40.7l-.3-9.4c-.1-5.2-.1-10 .2-10.8.4-1 8.3-1.3 41-1.3h40.4z"/><path d="M153.1 695.4c-1.9 2.3-1 7.1 1.4 7.1 2.1 0 3.1 2.5 2.1 5.2-.5 1.2-.9 1.3-2.1.3-1.7-1.4-3.1-.8-2 .9.3.6 1.7 1.1 3 1.1 4 0 4.4-8.3.4-9.5-2.6-.8-2.4-3.5.2-3.5 1.2 0 1.9-.5 1.7-1.3-.7-1.8-3.3-2-4.7-.3M166 694.7c-.5 11.2-.4 15.3.7 15.3 1.4 0 1.6-14.7.2-15.5-.5-.4-.9-.3-.9.2M185.6 696.1c-1.8 2.6-2.1 9.1-.6 12 1.5 2.7 5 2.5 5.1-.4.2-3.9-.2-5.2-2.3-6.9-1.3-1.2-1.8-2.4-1.4-3.5.6-1.5.8-1.5 1.6-.3.5.8 1.2 1.1 1.6.7s.1-1.5-.8-2.3c-1.4-1.4-1.7-1.4-3.2.7m3.2 9.2c.2 1.9-.1 2.7-1.2 2.7s-1.6-1-1.6-3.1c0-3.8 2.4-3.5 2.8.4M196 696c-.6 1.2-.8 2.9-.5 4s.2 2.7-.3 3.7c-1.3 2.5.3 6.3 2.7 6.3 2.8 0 3.9-2.6 3.5-8.3-.4-6.9-3.2-9.8-5.4-5.7m4 2.5c0 2.5-2.3 3.5-3.5 1.5-1-1.6.2-4 2-4 .9 0 1.5.9 1.5 2.5m-.4 6c.4.8.4 2.2 0 3-.7 1.9-3.6.8-3.6-1.4 0-3.2 2.6-4.3 3.6-1.6M205.7 694.6c-1.8 1.8-.6 3.4 2 2.8 2.3-.6 2.5-.5 1.8 1.2-1.3 3.2-1.9 11.8-.8 11.1.6-.4 1.3-3.2 1.6-6.4s.7-6.5.8-7.3c.4-1.6-4-2.7-5.4-1.4M216.7 694.7c-.4.3-.7 3.9-.7 8 0 7.3 0 7.3 2.9 7.3 3.5 0 4-1.2 3.7-8.8-.1-3.4-.7-5.7-1.7-6.3-1.7-1-3.3-1.2-4.2-.2m3.8 3.6c0 2.6-2 2.5-2.3-.2-.3-1.6.1-2.2 1-1.9.7.3 1.3 1.2 1.3 2.1m.3 7.8c-.1 1.3-.7 2.3-1.3 2.2-1.3-.3-1.8-3-1.1-5 1-2.4 2.9-.1 2.4 2.8M174.5 703c.3.5 1.5 1 2.5 1s2.2-.5 2.5-1c.4-.6-.7-1-2.5-1s-2.9.4-2.5 1M385.5 698.5c-2.2 1.3-3.6 2.5-3.2 2.5 1.1 0 8.7-3.9 8.7-4.5 0-1-1.6-.4-5.5 2M354 699.4c0 .7-.3 2.9-.6 4.7-.5 2.4-.3 3.1.4 2.4 1.6-1.5 2.7-8.5 1.3-8.5-.6 0-1.1.6-1.1 1.4M372.7 705.2c-2.1 1.1-3.6 2.3-3.3 2.6.7.6 7.3-2.5 8.1-3.8.9-1.5-.6-1.1-4.8 1.2M676.7 708.7c-.4.3-.7 5.7-.7 11.9V732l42.3.2c23.2.2 43.2.2 44.5 0 2.1-.3 2.2-.7 2.2-11.7 0-9.4-.3-11.4-1.6-11.9-2.1-.8-85.9-.8-86.7.1m85.3 11.9v10.6l-41.2-.4-41.3-.3-.3-10.3-.3-10.2H762z"/><path d="M685.7 712.7c-.4.3-.7 2.1-.7 4 0 2.9.3 3.3 2.6 3.3 2.2 0 2.5.4 2.2 2.7-.2 2.2-.8 2.8-2.5 2.6-1.6-.2-2.1.2-1.7 1.2.9 2.3 4 1.8 5.2-1 1.3-2.9-.2-7.5-2.5-7.5-.7 0-1.3-.9-1.3-2 0-1.3.7-2 2-2 1.1 0 2-.5 2-1 0-1.1-4.3-1.4-5.3-.3M698 720c0 6.7.3 8 1.6 8 1.1 0 1.4-.5 1-1.6-.3-.9-.6-4.5-.6-8 0-3.6-.4-6.4-1-6.4s-1 3.3-1 8M718.5 712.9c-.3.6-.8 3.2-1.2 5.9-.6 5.2.8 9.2 3.2 9.2 3.8 0 4.1-8.3.4-9.5-1-.4-1.9-1.5-1.9-2.6 0-2.2 1-2.4 2.9-.7 1 1.1 1.2.9.9-.7-.4-2.2-3.2-3.2-4.3-1.6M722 723q0 3-1.5 3t-1.5-3 1.5-3 1.5 3M728.7 719.2c-2 8.4-2 8.8-.7 8.8.6 0 1-1.2 1-2.6 0-3.3 3.3-3 3.8.4.2 1.2 1 2.2 1.8 2.2 1.1 0 1.2-.5.5-1.8-.5-.9-1.2-3.8-1.6-6.4s-1.2-5.4-1.9-6.3c-.9-1.2-1.4-.2-2.9 5.7m3.3.4c0 .8-.4 1.4-1 1.4-.5 0-1-.9-1-2.1 0-1.1.5-1.7 1-1.4.6.3 1 1.3 1 2.1M739.5 713.7c-1.2 2.8-1.3 11.7-.3 13 1.7 2.1 4.8 1.5 6-1.2.8-1.8.8-2.8-.1-3.9-.7-.8-.9-2.5-.5-4 1.1-4.4-3.5-7.8-5.1-3.9m3.5 2.9c0 3.1-2.3 2.8-2.8-.4-.2-1.5.2-2.2 1.2-2.2 1.1 0 1.6.9 1.6 2.6m.5 6.9c0 1.1-.8 2.1-1.7 2.3-1.4.3-1.8-.3-1.8-2.3s.4-2.6 1.8-2.3c.9.2 1.7 1.2 1.7 2.3M707.8 720.7c1.2.2 3 .2 4 0 .9-.3-.1-.5-2.3-.4-2.2 0-3 .2-1.7.4M360.2 712.2c-1.8 1.1-3.1 2.3-2.8 2.5.5.5 7.6-3.5 7.6-4.3s-1.5-.2-4.8 1.8M351.6 711.8c-.3.5-.8 2.9-1.1 5.3-.8 5.3.9 3.3 1.9-2.4.7-3.5.3-4.7-.8-2.9M182 759c0 28-.3 43-1 43-.6 0-1 3.2-1 7.7 0 6.6.3 8.1 2.5 10.9 1.4 1.8 2.5 4.6 2.5 6.3 0 3.4.3 3.6 3 2.1 2.6-1.4 4.2-6.5 3-9.6-.6-1.4-1-5.6-1-9.4 0-6.6-.1-7-3-8.7-3-1.7-3-1.7-3-43.5 0-27.2-.3-41.8-1-41.8s-1 15-1 43m5.6 44.1c.9 1.6-1.5 5.6-3.7 6.2-1.6.4-1.9-.1-1.9-2.7 0-1.8.3-3.6.7-3.9 1-1.1 4.1-.8 4.9.4m.1 7.6c-.4.3-.7 0-.7-.7s.3-1 .7-.7c.3.4.3 1 0 1.4m-2.7.8c0 .3-.2.5-.5.5s-.5-.2-.5-.5.2-.5.5-.5.5.2.5.5m0 6.6c0 1-.4 1.9-.8 1.9-1.1 0-3.2-4.6-3.2-6.8.1-2.5 4 2.4 4 4.9m3.5-1.5c1.8 4.4 1.9 8.6.3 10.2-2.3 2.3-2.8 1.2-2.8-6.3 0-4.1.2-7.5.5-7.5s1.2 1.6 2 3.6M338.7 724.1c-2.2 1.1-3.7 2.3-3.4 2.6.6.6 7.5-2.6 8.3-3.8.8-1.4-.8-1-4.9 1.2M348 727.7c0 1-.3 2.9-.6 4.3-.5 1.8-.4 2.2.4 1.5 1.7-1.5 2.7-7.5 1.3-7.5-.6 0-1.1.8-1.1 1.7M330 728.8c0 .4-1.4 1.3-3.1 2.1-1.6.7-2.8 1.5-2.6 1.8.7.6 7.7-2.9 7.7-3.9 0-.4-.4-.8-1-.8-.5 0-1 .3-1 .8M59.4 735.4c-.3.8-.4 6.1-.2 11.8l.3 10.3h87l.3-11.8.3-11.7h-43.6c-37.1 0-43.6.2-44.1 1.4m84.6 11.1V757H62v-21h82z"/><path d="M68 740c0 1.1.5 2 1 2 .6 0 1-.5 1-1 0-.6.9-1 2-1s2-.5 2-1c0-.6-1.3-1-3-1-2.3 0-3 .4-3 2M81.3 746c-.1 6.6.1 8 1.4 8 1 0 1.3-.6.9-1.6-.3-.9-.6-4.5-.6-8s-.4-6.4-.8-6.4-.8 3.6-.9 8M101.2 739.2c-1.8 1.8-1.5 12.3.3 13.8 1.2 1 1.8 1 3 0 2.5-2.1 1.7-9-1.1-9-.8 0-1.4-.9-1.4-2.1 0-1.6.4-1.9 2-1.4 1.5.5 1.8.3 1.4-.9-.7-1.9-2.5-2.1-4.2-.4m2.8 9.3c0 1.9-.4 3.5-1 3.5-.5 0-1-1.6-1-3.5s.5-3.5 1-3.5c.6 0 1 1.6 1 3.5M111 739.9c-1.6 3-1.2 4.8 1.5 6.9 1.4 1.1 2.5 2.7 2.5 3.6 0 1.9-1.6 2.1-2.3.3-.2-.6-.8-.9-1.3-.4-.4.4 0 1.5 1 2.5 1.6 1.6 1.8 1.6 3.2-.2 1.4-2 1.9-10.1.8-13-.8-2.2-4.1-2-5.4.3m4 3.2c0 1.9-.5 2.9-1.5 2.9-1.5 0-2.2-5-.9-6.3 1.2-1.2 2.4.4 2.4 3.4M121.4 740.5c-.8 3.4.1 5.5 2.6 5.5 2.2 0 2.7 2.4 1 5-.9 1.3-1.1 1.3-1.9 0-.6-.8-1.3-1.1-1.7-.7-1.1 1.1 2.2 4.1 3.6 3.2 3.1-1.9 2.6-9.5-.7-9.5-.7 0-1.3-.9-1.3-2s.6-2 1.4-2 1.8-.5 2.1-1c.4-.6-.5-1-1.9-1-1.9 0-2.7.7-3.2 2.5M133.8 740.2c-.2 1.3.3 2.8 1.1 3.4 1.7 1.3.6 3.5-1.4 2.7-.9-.3-1.5.1-1.5.8 0 .8-.3 2.4-.6 3.6-.4 1.3-.2 2.3.4 2.3s1.2-1 1.4-2.2c.5-3.4 2.7-3.4 3.4.2.5 2 1 2.8 1.7 2.1.6-.6.4-2.6-.7-5.7-.9-2.6-1.6-5.5-1.6-6.5 0-2.7-1.8-3.2-2.2-.7M68.6 743.7c-1.2 1.2-.6 2.3 1.4 2.3 1.6 0 2 .7 2 3 0 3-1.4 4.1-2.3 1.7-.2-.6-.8-.9-1.3-.4-.4.4 0 1.5.9 2.4 2.2 2.3 4.7.1 4.7-4.2 0-2.4-.6-3.4-2.4-4.3-1.3-.6-2.7-.8-3-.5M90.4 746.1c-.3.5.6.9 2 .9 3.1 0 3.4-.6.6-1.3-1.1-.3-2.3-.1-2.6.4M316.8 736.3c-2.1 1.1-3.5 2.3-3.3 2.6.7.7 7.5-3 7.5-4.1 0-1 .3-1.1-4.2 1.5M342.3 738.4c-1.8 1.1-3.3 2.4-3.3 2.9 0 1 5.7-1.9 6.5-3.4 1.2-1.9.1-1.7-3.2.5M308 740.8c0 .5-1.2 1.4-2.6 2.1-1.5.6-2.4 1.4-2.1 1.7s1.9-.2 3.6-1.2c3.1-1.8 4-3.4 2.1-3.4-.5 0-1 .4-1 .8M331.3 744.2c-4.7 2.8-4.1 4.1.7 1.5 2.2-1.2 4-2.5 4-3 0-1.1-1.2-.7-4.7 1.5M295 748.6c-4 2.8-3 3.1 1.9.5 1.9-1 3-2 2.5-2.3s-2.5.5-4.4 1.8M319.3 751.4c-4 3.5-2.5 4 1.7.5 1.9-1.5 3-2.9 2.3-2.9s-2.5 1.1-4 2.4M315 758.3c0 .1-.4 1.7-.9 3.5-.7 2.5-.7 3.2.2 2.9 1.4-.4 2.8-6.7 1.6-6.7-.5 0-.9.1-.9.3M103.2 779.9l.3 17.9 16 16.1c12.3 12.4 16.1 16.8 16.3 19 .5 4.2 4.6 8.3 8 7.9 1.9-.2 2.8-.9 3-2.5.2-1.4 1.9-3.1 4.3-4.5 4.2-2.3 7.4-6.2 6.4-7.8-.7-1.2-8.4-.2-10.4 1.4-.7.6-3.4 1.1-6 1.1-4.4 0-4.9-.3-11.7-7-3.9-3.8-11-11.1-15.7-16.2l-8.7-9.1v-17.1c0-11.4-.4-17.1-1.1-17.1s-.9 5.7-.7 17.9m49.6 49.8c-.5.7-1.4 1-1.9.7-1.6-1-.9-2.3 1-2.1 1.5.1 1.7.4.9 1.4m-9.2 1.8c3.2 3.2 3 7.8-.3 8.3-2.4.4-3.2-1.3-1-2.1.7-.3.5-.6-.5-.6-1.1-.1-1.8-.9-1.8-2.2 0-1.1-.4-1.7-1-1.4-1.1.7-1.4-2.8-.3-3.8 1.1-1.2 2.3-.8 4.9 1.8m6.1-1c.9 2.5-.4 2.9-1.7.6-.7-1.5-.7-2.1 0-2.1.6 0 1.3.7 1.7 1.5m-1.7 2.6c0 .5-.4.9-1 .9-.5 0-1-.7-1-1.6 0-.8.5-1.2 1-.9.6.3 1 1 1 1.6M239.8 779.6c-1.6.8-2.8 1.7-2.8 1.9 0 1.2 3 .3 5.1-1.5 2.8-2.3 1.5-2.5-2.3-.4M229.7 785.2c-2.1 1.1-3.6 2.3-3.3 2.6.8.7 7.6-2.7 7.6-3.8 0-1.2.3-1.3-4.3 1.2M218.7 791.1c-2.2 1.1-3.6 2.3-3.3 2.6.8.8 7.6-2.6 7.6-3.7 0-1.2.2-1.3-4.3 1.1M207.3 797.7c-1.8.9-3.3 2-3.3 2.5s1.8-.1 4-1.2 4-2.3 4-2.5c0-.8-1.3-.5-4.7 1.2M196.8 803.8c-4 2.4-3.4 3.5.7 1.5 1.9-.9 3.5-2 3.5-2.5 0-1.1-1.1-.9-4.2 1M405.4 803.3c-.2.7-.3 6.2-.2 12.3l.3 10.9h89v-24l-44.3-.2c-35.5-.2-44.4 0-44.8 1m86.6 11.2v10.4l-22.2.3c-12.3.2-31.2.2-42 0L408 825v-21h84z"/><path d="M414.4 809.4c-.7 4.2 0 5.6 2.6 4.9 1.7-.5 2 0 2 2.6 0 2.1-.5 3.1-1.5 3.1-.8 0-1.5-.5-1.5-1.1 0-.5-.5-.7-1-.4-1.4.8.6 3.5 2.6 3.5 3.8 0 4.1-8.3.4-9.5-2.7-.8-2.7-4.5 0-4.5 1.1 0 2-.5 2-1 0-.6-1.1-1-2.5-1-2 0-2.5.6-3.1 3.4M427.8 813.9c-.2 6.7 0 8.1 1.2 8.1s1.4-1.3 1.2-7.2c-.5-10.2-2-10.7-2.4-.9M449.2 807.2c-1.2 1.2-1.7 10.4-.6 13.2.3.9 1.4 1.6 2.4 1.6 3.4 0 4.2-7.2 1-9.2-2.1-1.3-2.8-4.8-1-4.8.6 0 1 .5 1 1.1 0 .5.5.7 1 .4.8-.5.7-1.1-.1-2.1-1.4-1.7-2.1-1.8-3.7-.2m2.8 9.8c0 1.6-.4 3-1 3-.5 0-1-1.4-1-3 0-1.7.5-3 1-3 .6 0 1 1.3 1 3M459.2 807.2c-1 1.3-1.3 8.5-.6 12.6.4 1.9 1 2.3 3.2 2 2.6-.3 2.7-.5 2.8-6.3 0-3.3-.4-6.8-.8-7.8-1-2-3.1-2.2-4.6-.5m3.6 3c-.5 3.2-2.8 3.5-2.8.4 0-1.7.5-2.6 1.6-2.6 1 0 1.4.7 1.2 2.2m.2 7.3c0 1.6-.6 2.5-1.5 2.5s-1.5-.9-1.5-2.5.6-2.5 1.5-2.5 1.5.9 1.5 2.5M471.9 806.2c0 .2-.1 3.8-.2 8.1-.2 5.6.1 7.7 1.1 7.7 1.5 0 1.7-14.6.2-15.5-.5-.3-1-.5-1.1-.3M481 811.7c-.6 3.2-1.4 6.8-1.7 8-.3 1.3 0 2.3.6 2.3s1.1-1.2 1.1-2.6c0-3.3 3.3-3 3.8.4.3 1.8 2.2 3.3 2.2 1.6 0-2.1-3.3-14.5-4-14.9-.5-.3-1.4 2.1-2 5.2m3 1.8c0 .8-.4 1.5-1 1.5-.5 0-1-.7-1-1.5s.5-1.5 1-1.5c.6 0 1 .7 1 1.5M437 814.4c0 .9 4 1.3 4.6.5.3-.5-.6-.9-2-.9s-2.6.2-2.6.4M610.7 860.6c-.4.4-.7 5.8-.7 12 0 11.2 0 11.2 2.9 11.6 1.6.2 21.5.4 44.2.4l41.4-.1.2-10c0-5.5-.1-10.8-.4-11.7-.4-1.6-2.8-1.8-29.6-1.8-16.1 0-35.5-.3-43.2-.6-7.8-.3-14.4-.2-14.8.2m81.6 2.4c3.8 0 3.8 0 3.5 10.2l-.3 10.3-16 .2c-8.8.2-27.2 0-41-.5l-25-.7-.3-8.9c-.2-4.9 0-9.6.3-10.4.5-1.3 5.5-1.4 37.8-.9 20.4.4 38.9.7 41 .7"/><path d="M619.4 866.5c-.8 3.4.1 5.5 2.6 5.5 1.6 0 2 .7 2 3q0 3-1.5 3c-.8 0-1.5-.5-1.5-1.1 0-.5-.4-.8-1-.4-1.5.9 0 3.5 2.1 3.5 2.9 0 4.4-4.6 2.4-7.6-.8-1.3-2-2.4-2.5-2.4-.6 0-1-.9-1-2 0-1.3.7-2 2-2 1.1 0 2-.5 2-1 0-.6-1.1-1-2.5-1-1.8 0-2.6.7-3.1 2.5M632.8 864.6c-1.4 1.3-.9 15.4.5 15.4.8 0 1.1-1.7.9-5.7-.4-9.1-.6-10.5-1.4-9.7M653.3 865.2c-1.9 2.3-2.5 5.9-1.8 10.4.5 3.4 1 4.4 2.5 4.4 2.4 0 4.2-3.2 3.4-5.7-.4-1-1.6-2.5-2.7-3.4-1.3-1.1-1.8-2.3-1.3-3.4.5-1.4.9-1.5 2.1-.5.8.7 1.5.8 1.5.2 0-1.9-2.7-3.3-3.7-2m2.5 10.9c-.1 1.3-.7 2.3-1.3 2.2-1.3-.3-1.8-3-1.1-5 1-2.4 2.9-.1 2.4 2.8M663.2 865.2c-.9 1.2-1.7 8.6-1.3 12.9.1 2 2.5 3.1 4.6 2.3 1.1-.5 1.5-2.3 1.5-7.3 0-7.8-2.1-11.2-4.8-7.9m2.8 3.8c0 1.6-.4 3-.9 3-1 0-2.2-4-1.5-5.2 1.1-1.8 2.4-.6 2.4 2.2m.4 5.5c.7 1.8-.2 4.5-1.5 4.5-.5 0-1.2-.7-1.5-1.5-.7-1.8.2-4.5 1.5-4.5.5 0 1.1.7 1.5 1.5M673.3 866.2c-.5.7-.9 3.9-.9 7.2.1 4.3.5 6.2 1.8 6.9 3.1 2 4.8-.8 4.4-7.3-.2-3.2-.7-6.3-1-6.9-.9-1.5-3.1-1.4-4.3.1m3.2 2.6c0 3.1-1.9 2.8-2.3-.4-.3-1.8 0-2.5 1-2.2.7.3 1.3 1.4 1.3 2.6m.5 7.7c0 1.6-.6 2.5-1.5 2.5s-1.5-.9-1.5-2.5.6-2.5 1.5-2.5 1.5.9 1.5 2.5M685.6 865.9c-1.5 2.4-3.4 13.6-2.5 14.5.5.6.9-.1.9-1.7 0-2 .5-2.7 2-2.7s2 .7 2 2.5c0 1.4.5 2.5 1 2.5 1.5 0 1.2-3.8-.8-10.5-1.2-3.9-2.1-5.5-2.6-4.6m1.4 6.6c0 .8-.4 1.5-1 1.5-.5 0-1-.7-1-1.5s.5-1.5 1-1.5c.6 0 1 .7 1 1.5M641 873c0 .5 1.4 1 3 1 1.7 0 3-.5 3-1 0-.6-1.3-1-3-1-1.6 0-3 .4-3 1M522 907.9v12l43.3.3c23.7.2 43.9.2 44.7 0 1.2-.2 1.5-2.3 1.5-11.2 0-5.9-.2-11.1-.5-11.4-.9-.9-15-1.2-15-.4 0 .4 2.7.8 6 .8h6v21.3l-41.2-.6c-22.7-.4-41.4-.7-41.5-.7-.2 0-.3-4.5-.3-10v-10h6.4c3.6 0 6.8-.5 7.1-1 .4-.6-2.5-1-7.9-1H522z"/><path d="M542 897c.8.5 12.7.9 27 .9 16.8.1 25-.3 24-.9-.9-.6-12.3-1-27-1-16.5 0-25 .4-24 1M532 904c0 3.3.3 4 1.7 3.8 1.9-.3 2.9 2.3 1.9 4.9-.5 1.2-.9 1.3-2.1.3s-1.5-1-1.5.3c0 2.7 2.2 3.1 4.2.7 2.4-3 2.3-4.7-.7-7.4-2.8-2.6-3.2-4.6-1.1-4.6.8 0 1.8-.5 2.1-1 .4-.6-.5-1-1.9-1-2.4 0-2.6.4-2.6 4M544 908c0 6.7.3 8 1.6 8 1.1 0 1.4-.5 1-1.6-.3-.9-.6-4.5-.6-8 0-3.6-.4-6.4-1-6.4s-1 3.3-1 8M564.5 901c-1.3 2-1 12.9.3 14.2 2.1 2.1 4.7-.3 4.7-4.3 0-2.6-.6-3.6-2.2-4.4-3-1.3-3.2-5-.2-4.2 1.3.3 1.9.1 1.6-.6-.5-1.6-3.4-2.1-4.2-.7m3.5 10.1c0 3.8-2.4 3.5-2.8-.4-.2-1.9.1-2.7 1.2-2.7s1.6 1 1.6 3.1M585.9 902.7c-1.2 3.2.2 7.3 2.6 7.3.8 0 1.5.9 1.5 2 0 2.3-1 2.6-2.8.8-.9-.9-1.2-.7-1.2 1 0 1.5.6 2.2 2 2.2 2.4 0 4-2.8 4-7.4 0-7.7-3.9-11.5-6.1-5.9m4.1 2.3q0 3-1.5 3t-1.5-3 1.5-3 1.5 3M575.2 907c-.7 3.4-1.5 6.7-1.9 7.5-.3.8 0 1.5.5 1.5.6 0 1.2-1 1.4-2.2.5-3.4 3.8-3.7 3.8-.4 0 1.7.6 2.6 1.6 2.6 1.1 0 1.4-.6.8-2.3-.4-1.2-1.2-4.4-1.8-7.1s-1.6-5.1-2.2-5.3c-.5-.2-1.6 2.4-2.2 5.7m2.8.5c0 .8-.4 1.5-1 1.5-.5 0-1-.7-1-1.5s.5-1.5 1-1.5c.6 0 1 .7 1 1.5M553.8 908.7c1.2.2 3 .2 4 0 .9-.3-.1-.5-2.3-.4-2.2 0-3 .2-1.7.4M598 953c0 .7 11.1.9 32.8.8 25.6-.1 30-.3 20.2-.8-20-1.2-53-1.2-53 0M700 953.1c-2.5.3 8.3.6 24 .6s27.2-.2 25.5-.3c-5.9-.7-45.1-.9-49.5-.3M665.3 953.7c.9.2 2.5.2 3.5 0 .9-.3.1-.5-1.8-.5s-2.7.2-1.7.5M680.8 953.7c2.9.2 7.4.2 10 0s.2-.3-5.3-.3-7.6.1-4.7.3M115.1 1122.1c-10.7 6.3-24.4 13-25.1 12.2-.5-.4-1-2.2-1.2-3.8-.2-2.2-.9-3.1-2.5-3.3-1.3-.2-2.3.1-2.3.6s-3.8 7.3-8.5 15.2c-9.6 16-9.6 14.3-.5 19.7 2.5 1.4 6.6 3.9 9.1 5.5 2.5 1.5 4.9 2.8 5.2 2.8.4 0 .7-2.6.7-5.8 0-5.8 0-5.8 11.7-12.2 6.5-3.6 13.1-7.3 14.8-8.3 1.6-.9 4-2.2 5.3-2.9 2-1 2.2-1.8 2.2-10.1 0-7.4-.3-9.2-1.7-10.3-2.3-1.7-3.1-1.7-7.2.7m6.7 9.6c-.3 7.6-.6 8.9-2.3 9.8-1.1.6-5.1 2.7-9 4.8-3.8 2-9.7 5.3-13 7.2-3.3 2-6.8 3.8-7.7 4.2-1.4.4-1.8 1.7-1.8 5.4 0 2.7-.4 4.9-1 4.9-.5 0-4.1-1.9-8-4.2-4.6-2.7-7-4.8-7-6 0-1 1.5-4.2 3.4-7.1 1.8-2.8 5.1-8 7.2-11.4 2.1-3.5 4.2-6.3 4.7-6.3.4 0 .7 1.6.7 3.5 0 3.5 1.5 4.6 3.5 2.6.6-.5 3.7-2.4 7-4.2 17.8-9.6 22.1-11.8 22.8-11.9.4 0 .6 3.9.5 8.7"/><path d="M113.8 1129.4c-1.4 1-1.8 2.8-1.8 7 0 3.1.3 5.6.8 5.6 2.1 0 7.2-4.3 7.8-6.5 1.4-5.6-2.7-9.3-6.8-6.1m5.2 3.4c0 2.9-2.4 7.2-4.1 7.2-.5 0-.9-2.3-.9-5 0-4.7.2-5 2.5-5 2.1 0 2.5.5 2.5 2.8M108 1135.4c0 4.3-1.7 5.6-2.6 2.1-.8-3.2-2.8-2.7-3.2.8-.3 2.8-2.2 3.8-2.2 1.2 0-.8-.5-1.5-1.1-1.5-.7 0-.9 1-.5 2.7.4 1.6 1 4 1.3 5.5.9 4.7 3.3 2.7 3.3-2.7 0-3.5 1.8-4 3-.9 1.5 3.8 2.7 2.1 3.5-4.9.5-3.9.4-5.7-.4-5.7-.6 0-1.1 1.5-1.1 3.4M91.8 1141.7c-2.6 1.3-2.8 1.8-2.8 7.9 0 4.1.4 6.3 1 5.9.6-.3 1-1.6 1-2.9 0-1.4 1-2.8 2.5-3.6 1.4-.7 2.5-1.7 2.5-2.2 0-1.1-1.8-1-2.5.2-1 1.7-2.5 1.1-2.5-1 0-1.2 1-2.5 2.5-3.2 1.4-.6 2.5-1.5 2.5-2 0-1.1-.9-.9-4.2.9"/></svg>