<svg xmlns="http://www.w3.org/2000/svg" viewBox="0 0 864 1214" fill="currentColor"><path d="M204.5 20.5c-7.1 1.3-16.8 3.2-21.5 4.3-4.7 1.2-13 2.8-18.5 3.7s-14.3 2.8-19.5 4.2-10.4 2.8-11.5 3c-1.1.3-2.9.8-4 1.3-1.1.4-6 2.2-11 4-16.3 5.9-41.3 18.1-45.5 22.2-4.3 4.2-6.4 9.6-6.8 17.6-.7 11.7 1 18.9 8 34 3 6.7 3.8 9.6 3.8 14.3 0 8.8 2.9 20.9 7.2 29.9 1.8 3.6 8.8 14 11.7 17.2 3.7 4.3 12.2 9.5 17.3 10.8 6.7 1.7 17.4-1.4 29.4-8.5 3.1-1.9 3.1-1.9 21.5 7.4 18.1 9.3 29.7 15.6 43.4 24.1 3.9 2.3 9.2 5.6 11.8 7.1 7 4.2 55.7 36.8 56.7 38 .3.3 2.8 2.1 5.5 4 13.5 9.2 12.9 8.5 15.2 18.2 2.1 8.8 8.9 24.7 10.5 24.7.4 0 .8.5.8 1.1 0 1.5 5.7 8.6 11.7 14.5 6 5.8 14.9 10.9 21 11.9 12.1 2 38.9-11 44.9-21.8 1-1.7 1.8-1.6 15 1.6 21.1 5.3 30.3 6.3 42.4 4.9 5.6-.7 12.3-1.9 15-2.7 2.8-.8 7.4-2.2 10.3-3 8.3-2.5 32.1-11.9 31-12.2-.6-.2-4.8 1.2-9.4 3.1-12 4.9-33.2 11.3-41.6 12.5-14.6 2.2-28.8.8-51.3-4.9-15.8-4-15.8-4-22-16.2-5-9.8-11.4-20-15.2-24.2-2.4-2.6-1.5-3.1 2.9-1.8 2.1.7 10.3 3 18.3 5.2s15.9 4.4 17.5 4.9c13.3 4.2 20.5 5.4 33.5 5.4 14.4.1 19.7-.8 37-6.2 14.4-4.4 35-12.8 35-14.3 0-.4-1.1-.2-2.5.4-3.2 1.5-3.5 1.1-2.8-3.8.4-3.4 1.1-4.5 3.7-5.8l3.1-1.6-3.1.5c-3.1.6-3.1.6-3.7-4.7-.3-2.9-.8-6.3-1.2-7.6-.7-2-.1-2.5 4.9-4.7 3.1-1.4 5.6-2.9 5.6-3.5 0-.7-.6-.7-1.7 0-2.4 1.3-13.9 6.3-18.3 7.9q-7.05 2.55-10.2 4.2c-1 .5-3.7.9-6 1-2.4 0-8.5.8-13.6 1.8l-9.2 1.8-2-4.4c-1.1-2.5-3.4-5.9-5.2-7.7-5.3-5.3-51-35-58.4-38.1-1.8-.7-1.8-.7.1-1.5 1.1-.5 4.7-1.6 8-2.6 17.1-4.8 26.2-7.9 36-12.4 2.3-1 6.6-2.8 9.5-4 11.6-4.6 60.9-30.2 65.6-34.1.8-.6 3.3.4 7.8 3.1 3.6 2.2 6.8 4 7 4 1 0 31.6 20.6 38.7 26.2 11.3 8.7 12.5 13.9 4.9 21.3-2.2 2.2-4 4.5-4 5.1 0 2.1-10.2 8.5-27 17-6.6 3.4-6.9 4.6-.3 1.9 1.9-.8 3.9-1.5 4.4-1.5 1.2 0 1.2 10.2 0 13.2-.5 1.3-3.5 3.8-7 5.7-3.3 1.9-6.1 3.8-6.1 4.3 0 1.2.3 1.1 6.6-2.7 6.9-4.2 7.7-4.2 9.7-1.1 1.9 2.8 2.3 2.4-8.3 8.6-9 5.3-8.5 4.9-7.8 5.6.3.3 3.7-1.4 7.5-3.7 17.8-11 22-13.7 25.3-15.6q17.4-10.65 19.5-20.1c.3-1.7 1-3.2 1.4-3.2s2.1 1.5 3.7 3.2c2.7 3.1 2.9 3.9 2.8 10.8-.1 9.6-3.8 20.5-9.1 26.5-3.6 4-28.9 21.3-43.3 29.6-4.1 2.3-7 4.4-6.4 4.6 1.4.5 31.9-17.9 34.4-20.8.3-.3 3.4-2.5 7-4.9 9.6-6.4 13.1-10.9 16.8-21.5 4.6-13 3.9-20.5-2.3-26.5-3-2.9-3.5-4-3.5-8 0-5.5-1.9-16.1-3.1-17.4-.5-.6-.9-1.8-.9-2.7 0-3.2-10.1-16.8-16.8-22.6-3.6-3.2-7.6-6.6-8.7-7.6-8.9-8-31.6-22.3-48.7-30.6-5.9-2.8-11-5.6-11.3-6.1-.4-.6-1-.8-1.5-.5-1 .6-6.5-1.3-21.5-7.6-1.9-.8-4.4-1.8-17.5-6.8-3-1.2-6.4-2.6-7.5-3-1.1-.5-6-2.6-11-4.6-18.3-7.6-18.5-7.7-14.5-9 1.1-.3 2-1.1 2-1.6 0-1.2-.7-1.1-4.4.6-3.2 1.5-3.6 1.5-10.8-1.8-15.5-7.1-24.9-10.9-25.5-10.3-.3.3.7 1 2.3 1.6 1.5.6 5.7 2.5 9.3 4.1 3.7 1.7 8.9 4 11.6 5.1 6.6 2.6 7.4 3.5 4.2 4.7-1.5.6-2.7 1.3-2.7 1.6 0 1.2 4 .4 5.4-1.1 1.4-1.4 2.4-1.2 10.1 2 18.8 7.9 26 10.9 49.3 20.1 19.7 7.9 24.2 10.1 24.2 11.6 0 1 .7 1.9 1.5 1.9s2.2 1.1 3.1 2.5c1.4 2.1 1.5 3 .5 4.8-1.1 2-10.1 8.7-11.7 8.7-.3 0-1.8.8-3.2 1.8-6.5 4.5-29.2 16.1-47.6 24.2-21.2 9.3-38.5 15.2-58.6 19.7-13.5 3.1-33.7 3.7-43 1.5-18.1-4.5-48-17.1-48-20.3 0-1 .5-2.1 1-2.4 1.2-.7 1.3-2.5.2-2.5-.5 0-1.5 1.1-2.2 2.5-1.5 2.9-2 2.8-11.6-1.6-19.5-8.9-48.9-24-51.4-26.4-1.2-1.3-1-2.3 1.9-8.3 3.1-6.4 13.9-25.2 15.1-26.2.9-.9 5-6.9 5-7.4 0-.3-.9-1-2-1.6-2.6-1.4-8.3 0-17.5 4.5-3.8 1.8-12.3 5.8-18.8 8.9-6.5 3-12.7 6.6-13.7 7.8-1.5 1.9-2 2-3.4.9-.9-.7-1.4-1.7-1.1-2.1.4-.7 14.8-7.9 36.8-18.5 5.6-2.7 12.4-5.2 16.1-5.8 5.8-1 6.5-.9 9.4 1.1 3.2 2.3 5.2 2.8 5.2 1.3 0-.5-1.5-1.4-3.2-2.2-1.8-.7-3.4-1.4-3.6-1.5s2.4-2.9 5.8-6.3c7.5-7.2 19.2-15.2 31.8-21.5 8.8-4.4 10.1-4.8 21-5.7 6.4-.6 16.7-.8 22.7-.5l11 .6 8.4-6c10.4-7.6 13.2-9 17.3-9 3.2 0 3 .2-3.2 3.8-8.2 4.6-13.4 8.6-15.5 11.9-2.4 3.6-1.7 4.1 18.5 14.5 9.5 4.9 9.5 4.9 11.3 2.7 1.4-1.8 1.7-4.2 1.7-14.4 0-13.6-.6-15.1-5.7-13.9-5 1.2-15.9 7.2-19.8 10.9-2.1 1.9-4.2 3.5-4.6 3.5-2 0-.6-2.1 4.5-6.8 6.2-5.6 16.9-11.2 21.5-11.2 5.9 0 3.1-1.8-3.8-2.5-7.1-.7-19.1-.1-27.1 1.5-18.6 3.5-17.7 3.5-27-.8-8.6-4.1-21.5-8.8-28-10.3-1.9-.4-7.3-1.7-12-2.9-15.3-3.9-18.3-4.3-36.5-4.5-15-.2-20.1.1-31 2m18 1.6c-6.4 1.7-25.7 2.8-24.3 1.3 1.1-1.1 16.5-3.2 23.8-3.2h7.5zm36-.7c22.3 4.6 37.4 9.2 50.8 15.3 7.4 3.5 10.1 5.6 4.1 3.2-1.6-.6-6.5-1.7-10.9-2.4-6.7-1.1-9.5-1.1-17 .1-12 1.8-27.7 4.9-34.5 6.7-11.1 3-13.4 3.1-19.7.4-5.8-2.5-13.7-5.4-20.4-7.6-5.5-1.7-20.6-2.4-28.5-1.3-12.8 1.8-17.9 5.9-13.5 10.6 2.5 2.7 17.7 10.7 23.9 12.6 2.3.7 4.2 1.6 4.2 1.9s-3.9 2.1-8.8 4C163.5 74.5 158 78.6 158 87.5c0 3.6 0 3.6-2.7 2.1-3.1-1.7-13.6-6.5-28.5-13-3.2-1.4-11.9-4.8-22.8-8.9-3-1.1-5.9-2.4-6.4-2.8-1.2-1.1 6.4-4.8 22.4-11.1 2.5-1 2.5-1-.3-2.4-1.6-.9-5.8-1.6-9.7-1.6-3.9-.1-7-.3-7-.5 0-.7 10.5-5.1 22-9 15.6-5.5 23.3-7.3 51.5-12.4 2.8-.5 13.1-1.3 23-1.8s20-1.4 22.5-2.1c2.5-.6 6-1.4 7.8-1.7s3.5-.9 3.8-1.4c.8-1.4 17.2-1 24.9.5M215 40c7.2 2.4 10.2 3.6 20.8 8.7 3.9 2 7.2 3.9 7.2 4.4s-.1.9-.2.9c-.2 0-4.8 1.6-10.3 3.6-16.6 6-16.3 5.9-24.6 4-14.8-3.5-28.2-9.1-36-14.9-3.6-2.6-3.7-4.2-.4-6.3 6-3.9 32-4.2 43.5-.4m134.3-.2c-13.3 10.4-12.2 10-34 10.4-11.1.2-19.6 0-19-.3.7-.4 5.4-2.1 10.5-3.9 9.1-3.1 13.4-4.1 25.7-6.1 3.3-.5 6.5-1.1 7-1.3.6-.3 3.5-.5 6.5-.5 5.4 0 5.5 0 3.3 1.7m-38.8.9c1.9 1.1 1.9 1.2-.5 2.1-1.4.6-9.5 1.5-18.1 2.1-13.9 1-22.1 2.2-34.4 5.2-8.4 2-10.6 2.1-13.5.9-3.7-1.5-3.8-2.6-.2-3.3 1.5-.3 11-2.4 21.2-4.6 17-3.7 19.5-4 31-3.8 6.9.2 13.4.8 14.5 1.4M372 55.9c0 7.7-.4 13.2-1 13.6-.6.3-4.7-1.3-9.3-3.6-4.5-2.3-9.5-4.9-11-5.7-1.6-.8-3.1-2.1-3.4-3-.8-2 4.5-6.3 12.2-10 13.1-6.4 12.5-6.8 12.5 8.7m-78-9c-.8.5-4 1.4-7 2.1-16.1 3.8-38.9 11.1-58.3 18.9-10 4-25.4 11.7-27.3 13.6-.9.8-2 1.5-2.5 1.5s-5 4-9.9 8.9c-12.4 12.3-11.9 15.2 1.7 9 3.8-1.7 9.3-4.2 12.3-5.6s7.8-3.5 10.5-4.8c2.8-1.3 9.5-4.4 15-6.9s12.7-6.5 16.1-9c3.3-2.4 7.8-5.5 10-6.7 2.1-1.3 4.1-2.6 4.4-2.9 1.2-1.3 29-14.3 29.5-13.8.3.2-3.8 2.6-9 5.2-13 6.7-23.8 14-31.4 21.3-3.5 3.5-7.1 6.3-8 6.3-4.9 0-18 5.2-37.6 14.9-18.3 9.1-22.3 10.7-24 9.9-2.9-1.5-3.5-2.8-3.5-7.1 0-9.2 7.5-17.5 24.5-27.2 8.5-4.9 22-11.4 27.1-13 2.7-.9 5.8-2 6.9-2.5s5.2-1.9 9-3c3.9-1.1 8.4-2.5 10-3 5.9-1.8 33.9-6.4 41-6.8 1.6-.1 1.7 0 .5.7m-177.2 5c1 .6-1 1.8-6.5 4.1-4.3 1.7-9.5 4-11.6 5.1-3.2 1.6-5 1.8-11.7 1.3-4.4-.4-7.7-1-7.5-1.4.7-1.2 15.5-8.2 18.9-9.1 4.4-1 16.8-1 18.4 0m159 2.6c-.3.3-4.2 2.3-8.6 4.5-7.4 3.6-19 10.4-20.2 11.9-2.1 2.5-10.2 7-26.5 14.5-25.9 11.9-28.4 13.1-32.7 15.1-2.1.9-4.2 1.5-4.9 1.3-1.3-.4 9.4-11.8 15.6-16.5 9.8-7.4 38.6-19.9 63-27.3 3.9-1.2 7.9-2.5 9-3 2.2-1 6.1-1.3 5.3-.5m-68.1 8.7c2.9.7 5.3 1.5 5.3 1.8s-3 2.1-6.8 4c-10.1 5.2-23.4 14.2-26.6 18.1-5.9 7-7.9 15-5.2 21.1.7 1.5.3 1.8-1.6 1.8-7.4 0-15.1 5.2-18.3 12.4-2.7 6-5 18.6-4.1 22.7.7 3.7-.2 3.7-7.2-.2-9.4-5.1-10.1-5.9-14.8-16.9-2.4-5.8-5.4-12.5-6.6-15-1.1-2.5-3.1-6.8-4.3-9.5-4.4-9.7-13.4-19.7-21.2-23.5-9.7-4.6-18.6-1-22.9 9.2-3 7.1-5.4 3.5-5.4-8 0-7.3.3-8.4 3.3-12.8 3.2-4.9 3.2-4.9 11.1-4.7 6.1.1 9.7.9 15.7 3.2 4.4 1.7 11.6 4.5 16.2 6.3 4.5 1.7 11 4.4 14.5 6 3.4 1.5 6.5 2.8 6.8 2.8 1.2 0 24.3 11.4 28.6 14.2 2.6 1.6 5.2 2.8 5.8 2.6s-1.3-1.9-4.2-3.8c-4.9-3.2-5.3-3.8-5.6-7.8-.5-6.2 2.2-9.3 12.1-14 4.5-2.1 10.7-4.8 13.7-5.8s7.1-2.7 9-3.6c4.2-2.1 5.9-2.2 12.7-.6M96.5 82c8.1 3.9 16.2 13.9 21.9 27 1.6 3.6 3.6 8.3 4.6 10.5s3 6.9 4.6 10.5c4.2 9.7 5.5 11.1 14.8 16 6.7 3.5 8.8 5.1 9.2 7 1.3 6.2 3 11 6.2 17.7 3.7 7.6 7.2 12 11.9 14.3 1.5.8 5.3 2.9 8.3 4.6s7.5 4.3 10 5.6c2.5 1.4 6.3 3.5 8.5 4.8s6.5 3.6 9.5 5.3 6.7 3.8 8.2 4.9c1.4 1 2.8 1.8 3.1 1.8s3.5 1.8 7.2 4.1c3.7 2.2 8.2 4.9 9.9 5.9 1.7.9 7.2 4.1 12.1 7 5 2.9 10.8 6.3 12.9 7.6 2.2 1.2 4.3 2.1 4.8 1.8.4-.3.8-4.5.8-9.4 0-11.8.3-12.5 4.4-10.3 1.7 1 3.8 2.3 4.6 2.9s4.1 2.5 7.3 4.3l5.8 3.2 1.4-3.5c1.8-4.4 6.9-10.3 10.4-12.1 15-7.7 42.4 4.8 60.7 27.8 6.4 8 14.4 21.2 14.4 23.7 0 .8-.8 1-2.2.5-1.3-.3-5-1.4-8.3-2.2-3.3-.9-6.3-2.1-6.7-2.7s-1-.8-1.3-.4c-.3.3 1.9 4.1 5 8.4 6.4 8.9 10.6 15.8 15.5 25.8 2.3 4.8 4.4 7.5 6.7 8.8 3.3 2 3.3 2 1.5 5-4.4 7.6-17.8 15.2-34.3 19.6-16.1 4.3-39.6-16.7-48.7-43.4-7.6-22.4-3.9-39.7 10.3-47.9 6.3-3.6 9.9-4 14-1.5 4 2.5 4.4 3 1.5 2.3-3.7-1-2.1.7 2.6 2.7 9.4 4.1 19.2 14.7 25.9 28 4.3 8.5 6.3 14.7 8 24.2 1.3 7.8 1.4 10.8 0 18.6-.4 2.5-.3 4.2.3 4.2 1.1 0 2.2-7.1 2.2-14.2 0-10-5.1-27.6-11-37.5-1.3-2.2-1.5-3.3-.7-3.7 1.7-.6-16.5-18.3-23.8-23.2-8-5.3-17.3-9.4-23.2-10-3.8-.5-5.7-.1-9.2 1.8-8.7 4.7-11.2 15.5-6.7 28.7 1.4 4.1 2.4 7.7 2.2 7.8-.2.2-1.6-.7-3.2-2-3.8-3.1-25.9-18.4-28.7-19.8-1.2-.7-2.4-1.5-2.7-1.9-.5-.7-27.5-18.5-39-25.7-17-10.6-33.8-20-57.5-32.3-16.6-8.6-19.3-10.5-24.4-17.3-4.2-5.7-5.5-8.2-12.5-23.1-6.8-14.4-18.8-34.4-23.8-39.5-5.7-5.8-13.4-10.1-18-10.1-5.1 0-9.6 3.9-10.4 9.1-.6 3.5-.8 3.7-1.8 2.2-1.5-2.3-3.9-10.3-3.3-11 .3-.2 1.5 0 2.6.7 1.8.9 2.2.8 2.7-.7 1.8-5.6 3-7.6 6.1-10.3 4.1-3.7 10.5-4.1 16.8-1M236 93.1c0 .6-2.1 4.3-4.7 8.2-5.7 8.9-10.5 17.5-14 24.9-1.4 3.2-3.1 5.8-3.8 5.8-.6 0-5.3-2.7-10.5-6.1-5.2-3.3-10.7-6.8-12.2-7.7-4.9-3-3.4-5.9 5.2-9.9 29.3-14 34.4-16.2 37.8-16.3 1.2 0 2.2.5 2.2 1.1M93.8 98.3c2.3 1.5 4.2 3.1 4.2 3.6s-2.4 1.9-5.2 3.1c-6.5 2.7-10 5.9-12.4 11.1-1.8 4-1.8 4-3.1 1.6-4-7.7-3.5-18 1-21.2 3.1-2.3 10.2-1.5 15.5 1.8m9.3 7.9c1.1 1.3 2.7 3.6 3.6 5.3 1.6 3 1.6 3-2 .2-2.1-1.6-3.8-2.3-4.2-1.7-.3.5-.2 1 .3 1 .6 0 3.1 1.9 5.6 4.1 5.5 4.9 11.1 14 19.6 31.5 5.7 11.6 6.3 13.5 6.4 19.4.1 3.6-.2 7.7-.7 9.2-.4 1.7-.3 2.8.3 2.8 1.2 0 2.2-3.9 2.4-9.1 0-2.1.3-3.9.6-3.9s2.6 2.5 5.3 5.5c5.3 6 5.6 4.9-2.6 9.9-3.5 2.1-15.9 5.6-19.9 5.6-13 0-27.5-15.8-35.3-38.5-2.3-6.7-3.2-24.3-1.5-28.7 2.4-6 5-8.7 11.3-11.7 7.5-3.7 8.3-3.7 10.8-.9m78 6.4c1.3 1.6 24.3 17.4 25.4 17.4.2 0 2.8 1.5 5.7 3.4 11.8 7.4 38.3 21.2 57.5 29.8l8.2 3.7-2.3 5.3c-4.8 10.8-9 25.5-10.2 35.6-.4 2.9-1 5.4-1.4 5.7-.3.2-7.3-3.7-15.6-8.6-8.2-5-17.1-10.3-19.9-11.8-2.7-1.6-6.8-3.8-9-5.1s-6.9-4-10.5-6c-9.1-5.1-27.2-15.5-35-20-3.6-2.1-9-5.1-12-6.7-11.2-6-10.3-4.6-9.7-14.8.8-13.3 4.9-23.4 10.8-26.5 5.3-2.9 16.1-3.7 18-1.4m323.2 13.2c25.3 13.1 52.3 34 60.9 47.1 4.5 6.9 6 11.1 3.9 11.1-.5 0-1.2-.9-1.6-2-.9-2.8-7.9-8.2-26.5-20.7-15.1-10.1-36.3-23.3-37.5-23.3-.4 0-6.8-3.9-9.4-5.7-.2-.2.1-1.4.7-2.7.8-1.9.7-3-.9-5.5-3.3-5.4-3.5-5.5 10.4 1.7m-6.4 10.4c2.3 1.2 4.1 2.5 4.1 2.9 0 1.1-2 2.4-14.6 9.6-32.8 18.9-70.2 34.8-99.1 42.3-8.2 2.1-8.2 2.1-13.8-1.1-3.1-1.7-5.4-3.3-5.2-3.5s4.1-1.3 8.8-2.4c16.7-4.1 31-9.1 51.3-17.7 8.6-3.7 41.4-20.3 47.8-24.2 3.7-2.3 7.1-4.1 7.5-4.1.5 0 1.9-.9 3.3-2 3.2-2.5 4.9-2.5 9.9.2M180 167c6.9 4 14.5 8.4 17 9.8s10.4 5.9 17.5 10c7.2 4.1 14.4 8.3 16.1 9.2 1.7 1 6.2 3.7 9.9 5.9 3.7 2.3 6.9 4.1 7.2 4.1.2 0 2.4 1.3 4.8 3 2.4 1.6 4.7 3 5.2 3 .4 0 2 1 3.4 2.3 2.6 2.2 2.6 2.4 2.2 11.9-.3 5.4-.9 9.8-1.3 9.8s-3.8-1.8-7.5-4.1c-3.7-2.2-8.3-4.9-10.1-6-9.1-5.1-14.7-8.4-25.9-14.9-8.5-5-11.4-6.6-21.7-12.4-2.4-1.3-6.1-3.3-8.3-4.6-8.8-5-16.2-9.2-19-10.6-4.5-2.3-13.3-15.6-13.4-20.5-.1-.8-.5-1.9-1-2.5-.5-.5-1.2-2.6-1.5-4.7l-.7-3.9 7.3 4c4 2.2 12.9 7.3 19.8 11.2m104.7 3c2.1 1.1 6.3 3 9.3 4.4 27.1 12 45.1 15.9 62.8 13.6 9.1-1.2 9.1-1.2 15.2 2.4 3.4 2 6.4 3.6 6.7 3.6.7 0 14.2 7.9 28.8 16.8C417.7 217 431.3 226 432 227c.3.4 1.6 1.3 2.9 2 5.7 3 12.1 11.1 12.1 15.3 0 1.7-4.2 2.5-18.2 3.7-6.2.5-10.7 1.4-12.6 2.5-8.6 5.1-2.1 20.3 9.4 22.1 5.7.8 24.3-.2 29.9-1.6 15-3.9 19.6-6.5 22.1-12.7 1.8-4.2 1.8-9.4 0-11.9-1.6-2.1-.5-4.4 2-4.4 1.2 0 7.6-2.6 12.6-5.1 4.7-2.4 5.8 0 5.8 13.1 0 8.9-1.4 14-3.9 14-.9 0-2.1.4-2.7.9-1.2 1.1-22.9 8.5-33.4 11.3-7.2 1.9-10.9 2.3-24.5 2.3-10 0-17.5-.5-20-1.2-2.2-.7-11.2-3.3-19.9-5.8-8.7-2.4-16-4.6-16.1-4.7-.1-.2-2.1-3.9-4.5-8.3-12-22.4-31.2-40-51-46.9-6.5-2.3-18.1-2.1-22.9.3-4.2 2.2-10.5 8.7-11.6 12-.9 2.9-2.3 2.7-9.6-1.7-3.5-2.1-7.7-4.4-9.2-5.2-2.7-1.3-2.8-1.6-2.1-6.5 2.1-15.9 10.6-42.5 13.5-42.5.4 0 2.4.9 4.6 2m289 27c.6 8.6-1 13.1-6.8 18.8-5.9 5.8-9.9 3.5-9.9-5.8 0-5.4 1.1-7.8 6.4-13.5 2.5-2.8 4.6-5.4 4.6-5.8s.8-1.9 1.7-3.3c1.7-2.6 1.7-2.6 2.5-.3.5 1.3 1.2 5.7 1.5 9.9m-18.3 11.5c-1 4 .5 9.4 3 11 3.1 2 6.4.8 11.1-4.2 1.9-2 3.5-3.2 3.5-2.7 0 1.9-5.6 8.9-9.6 12.1-5.3 4.1-17.9 12.3-19 12.3-.5 0-.9-5.5-.8-12.1l.1-12.2 5.4-3.3c6.4-4.1 7.1-4.2 6.3-.9M542 226.2c0 9.8-.7 11.9-3.2 9.4-2-2-1.8-19.4.2-20.6 2.4-1.5 3 .9 3 11.2m-229.4 2.9c2.4.6 4.4 1.5 4.4 1.9s-1.6 1.6-3.7 2.5c-5 2.4-12.1 9.1-14.5 13.8-1 2.1-2.3 6.7-2.7 10.1l-.7 6.1-2.2-5.8c-3-7.8-3-17.5-.1-22.7 3.6-6.3 10-8.3 19.5-5.9m163 17.4c1.2 1.9 1.5 3.9 1.2 7.7-.8 7.4-4.7 10.6-16.5 13.6-9.1 2.3-22.7 4.2-29.7 4.2-5.3 0-12.4-3.5-14.7-7.4-4.5-7.4-.9-14.6 7.4-14.6 6.4 0 31.4-3.1 36.5-4.5 2.6-.7 6.8-1.3 9.4-1.4 4-.1 5 .3 6.4 2.4m-122.6 12c0 .3-.2.5-.5.5s-.5-.2-.5-.5.2-.5.5-.5.5.2.5.5"/><path d="M320 257.3c-5.2 2.4-7 6.4-7 15.2 0 13.4 9 29.4 19.5 34.5 5.4 2.6 8.1 2.5 12.1-.5 4.3-3.3 5.8-8.2 5.1-16.6-1.5-18.4-19.1-37.6-29.7-32.6m9.8 2.6c4.8 2.4 11.4 9.6 13.7 14.7.9 2.1 2.2 5 2.9 6.3.6 1.3 1.1 6.6 1.1 11.7 0 8.4-.2 9.5-2.4 11.8-4.6 4.9-13.6 2.5-20.3-5.4-10.5-12.2-13.8-32.3-6.3-38.7 3.2-2.8 6.4-2.9 11.3-.4M96.7 130c-4.1 3.3-5.1 7.7-3.2 15.2 3 11.8 10.9 20.9 18.2 20.8 5.4-.1 8.3-4.2 8.3-11.9 0-9.2-7.4-21.7-14.7-24.7-4.3-1.9-5.6-1.8-8.6.6m12.9 4.6c2.5 2.5 5.4 6.5 6.5 9 2.4 5.3 2.8 15 .8 18.1-4.2 6.8-14.1 1.4-19.7-10.7-5.2-11.2-3.2-21 4.3-21 2.9 0 4.4.9 8.1 4.6M375.5 38c-.3.4.5 1 1.8 1.4 3.2.8 4.9.7 4.3-.3-.8-1.2-5.5-2-6.1-1.1M385 40.8c0 1.1 5.1 3.5 5.8 2.7.3-.3.1-.9-.4-1.4-1.4-1.4-5.4-2.3-5.4-1.3M394 44.5c0 .5 5.5 3.5 6.5 3.5 1.5 0 .2-1.8-2-2.8-2.7-1.3-4.5-1.5-4.5-.7M407 50.9c4.1 2.4 6 2.7 4 .7-.8-.8-2.8-1.7-4.5-2.1-3-.6-3-.6.5 1.4M415 54.7c0 .5 1.8 1.8 4 3.1 4.9 2.8 5.3 1.6.5-1.6-3.7-2.4-4.5-2.6-4.5-1.5M428.4 63.6c1.5 1.4 3.1 2.2 3.5 1.9.7-.7-3.9-4.5-5.4-4.4-.5 0 .3 1.1 1.9 2.5M436 68.8c0 1 6 4.5 6.6 3.9.5-.5-4.9-4.7-6-4.7-.3 0-.6.4-.6.8M439.5 75c-1.6.7-1.2.9 1.9.9 2.6.1 4.8.8 6.3 2.3 1.3 1.2 2.6 1.8 3 1.4 1.2-1.2-4.5-5.6-7-5.5-1.2 0-3.1.4-4.2.9M429.2 76.7c-.6.2-1 .8-.7 1.3.6 1 5.5 0 5.5-1.1 0-1-2.7-1.1-4.8-.2M421 79.6c-2.5 1.5-2.5 1.5 0 1 1.4-.3 2.8-.6 3.3-.6.4 0 .7-.5.7-1 0-1.4-1-1.2-4 .6M454.1 82.7c0 1.2 5.9 5.6 5.9 4.6 0-1.1-4.3-5.3-5.3-5.3-.4 0-.7.3-.6.7M392.3 89.2c-1.9.9-3.2 2.8-1.9 2.8 1.5 0 6.6-2.4 6.6-3.1 0-1.2-1.9-1-4.7.3M462.7 89.8c-.8 1.1 4 5.8 5 4.8.4-.3-.5-1.8-1.9-3.2s-2.8-2.2-3.1-1.6M253 90.9c0 1.4 2.8 3.3 4.4 2.9 1.1-.2.7-.8-1.4-2-1.7-.9-3-1.3-3-.9M381.4 93.6c-1.8 1.5-1.8 1.5 1.1.9 3.7-.8 5.7-2.5 2.9-2.5-1.1 0-2.9.7-4 1.6M261.6 95.9c-.3.4 1.1 1.5 3 2.4 4 1.9 4.4 2 4.4.9 0-1.2-6.8-4.3-7.4-3.3M372.3 97c-3.7 1.5-2.6 2.8 1.2 1.6 1.9-.6 3.5-1.4 3.5-1.8 0-1-1.9-.9-4.7.2M472 100.5c1.3 1.4 2.6 2.3 2.8 2 .7-.7-2.9-4.5-4.1-4.5-.6 0 0 1.1 1.3 2.5M362.3 101.2c-1.3.6-2.3 1.5-2.3 2 0 1.1 1.7 1 2.5-.2.3-.6 1.5-1 2.6-1 1 0 1.9-.5 1.9-1 0-1.3-1.9-1.2-4.7.2M274.5 103.5c3.1 2.6 4.5 3.1 4.5 1.7 0-.9-5.3-4.2-6.7-4.2-.4.1.6 1.2 2.2 2.5M352.7 105.7c-1.6.8-2.6 1.7-2.3 2 .7.8 6.6-1.7 6.6-2.8 0-1.2-.9-1-4.3.8M478 106.8c0 1 3.3 4.2 4.4 4.2.9 0-2.7-4.9-3.6-5-.5 0-.8.4-.8.8M283 108c0 .5 1.4 1.6 3 2.5 3.5 1.8 4.1.4.8-1.9-2.6-1.8-3.8-2-3.8-.6M343.3 110.2c-2 1-3.2 2.8-1.8 2.8 1.2 0 5.5-2.4 5.5-3.2 0-1-.9-.9-3.7.4M291 114.5c0 .2.8 1.8 1.8 3.5 1.9 3 3.6 3.2 2.4.2-.9-2.6-4.2-5.5-4.2-3.7M333 116c-1.4 1.1-2 2-1.4 2 1.3 0 7.4-2.9 7.4-3.6 0-1.1-3.8-.1-6 1.6M326.1 120.1c-1.2 1.2-2 2.3-1.8 2.6.8.7 4.7-2.1 4.7-3.4 0-1.7-.2-1.7-2.9.8M295.7 123.7c-1.1 1-.8 8.3.3 8.3.6 0 1-2 1-4.5 0-4.6-.2-5-1.3-3.8M319.7 126.9c-1.9 3.3-2.1 4.1-.9 4.1.8 0 1.6-1.4 4-6.3.2-.4 0-.7-.5-.7s-1.6 1.3-2.6 2.9M485.2 126c-.7 1.1-.9 2-.4 2 1 0 3.2-2.2 3.2-3.2 0-1.5-1.5-.8-2.8 1.2M478.1 133.1c-1.3 1.1-2.1 2.3-1.7 2.6.4.4 1.9-.5 3.4-2 3.1-3.1 1.9-3.6-1.7-.6M315.5 134.5c-.3.8-.7 2.2-1 3-.2.8 0 1.7.5 2 .6.4 1 .5 1 .3s.4-1.8.9-3.6c1-3.2-.4-4.8-1.4-1.7M292.8 136.8c-.9 1.7-1.3 3.4-.9 3.7 1.1.6 3.4-4 2.9-5.6-.3-.8-1.1 0-2 1.9M469.8 138.6c-1.6.8-2.8 1.7-2.8 1.9 0 1.2 3 .3 5.1-1.5 2.8-2.3 1.5-2.5-2.3-.4M312.6 143.2c-.3 1.3-.5 3.2-.5 4.3 0 1.6.4 1.3 1.4-1 .8-1.7 1.4-3.6 1.5-4.3 0-2.1-1.7-1.3-2.4 1M460.3 143.4c-2.1 1-3.1 2.6-1.8 2.6 1 0 6.5-3 6.5-3.5 0-.8-2.3-.4-4.7.9M289 145.1c-.6 1.1-.9 2.5-.7 3.2s1.1-.3 2.1-2.1c.9-1.7 1.2-3.2.7-3.2-.6 0-1.5.9-2.1 2.1M450.3 148.2c-2.1 1-3.2 2.8-1.8 2.8 1 0 6.5-3 6.5-3.5 0-.8-2.3-.4-4.7.7M284.6 153.7c-.9 1.8-1.2 3.3-.7 3.3 1.3 0 3.3-3.8 2.8-5.3-.2-.7-1.1.3-2.1 2M310.1 152.8c-1.3 2.5-1.4 5.2-.2 5.2.9 0 2.4-6 1.7-6.7-.2-.3-.9.4-1.5 1.5M440.8 152.2c-1.6.5-2.8 1.4-2.8 1.9 0 1.1 0 1.1 3.9-.2 1.7-.6 3.1-1.5 3.1-2 0-1.1-.7-1-4.2.3M429 158c-1.4 1.1-2.1 2-1.7 2 1.3 0 7.7-2.8 7.7-3.4 0-1.3-3.7-.4-6 1.4M420.3 161.2c-2.1 1-3.2 2.8-1.8 2.8 1 0 6.5-3 6.5-3.5 0-.8-2.3-.4-4.7.7M309 164c0 1.6.5 3 1 3 .6 0 1-1.4 1-3 0-1.7-.4-3-1-3-.5 0-1 1.3-1 3M409.3 165.2c-1.9.9-3.2 2.8-1.9 2.8.9 0 7.6-3.1 7.6-3.5 0-.8-3.4-.4-5.7.7M311 168.6c0 1 3.3 3.3 4.8 3.4 1.8 0 1.5-1.7-.5-2.4-1-.3-2.4-.9-3-1.2-.7-.3-1.3-.2-1.3.2M399.3 169.2c-3.5 1.7-2.7 2.7 1.2 1.5 1.9-.6 3.5-1.4 3.5-1.9 0-1.1-2-.9-4.7.4M387.2 173.3c-1.2.7-2 1.6-1.6 1.9.6.7 6.4-1 7.9-2.3 1.4-1.4-3.7-1-6.3.4M320.5 174.4c1.1.7 3.1 1.6 4.5 2 2.5.7 2.5.7.1-1.3-1.3-1.2-3.3-2.1-4.4-2.1-2.1 0-2.1 0-.2 1.4M375.3 177c-3.9 1.6-2.6 2.9 1.6 1.6 2.2-.6 4.3-1.5 4.7-1.9 1-1-3.6-.8-6.3.3M331.4 178.5c2.2 1.7 4.6 2 4.6.6 0-.5-1-1.1-2.2-1.5-3.7-.9-4.4-.6-2.4.9M365 178.7c-3.6.7-5 2.3-1.9 2.3 3.7 0 6.9-1.1 6.3-2.1-.3-.5-.8-.8-1.2-.8-.4.1-1.8.4-3.2.6M339.6 179.8c-.8 1.3 5.6 2.3 6.9 1.1.5-.6.3-.9-.5-.9s-2.5-.3-3.6-.6c-1.2-.3-2.4-.1-2.8.4M350.5 181c.3.5 1.9 1 3.5 1s3.2-.5 3.5-1c.4-.6-1-1-3.5-1s-3.9.4-3.5 1M518.3 213.7c-6.9 3.5-9.5 5.3-10.3 7.4-1.3 3-.7 4.9 1.4 4.9 1.6 0 16.6-7.7 18.9-9.7 2-1.8 2.3-7.3.5-7.2-.7 0-5.4 2.1-10.5 4.6M518.6 228.2c-.2 1.8-1 7.3-1.6 12.3-.7 4.9-1.4 9.7-1.7 10.5-.2.8-1.8 8.7-3.4 17.5-4 22.3-6.3 33.4-11 54.5-1.1 5.2-2.5 11.3-2.9 13.5-.5 2.2-2 8.2-3.3 13.3s-2 9.5-1.6 9.8c.4.2 4.2.4 8.4.3 8.4-.2 7.8.5 9-9.4 1.6-13.3 2.4-21.4 3.9-37.5.9-9.6 2-21.3 2.6-26 1-8.3 2.3-28 3.5-50.8.4-7.2.3-11.2-.4-11.2-.6 0-1.2 1.5-1.5 3.2M379 282.8c0 3.2 1.3 4.1 10.4 7.2 7.7 2.6 11.6 2.6 11.6.1s-1.4-3.5-9-6c-3.6-1.2-7.3-2.6-8.2-3.1q-4.8-2.7-4.8 1.8m12.3 2.7c4.8 1.7 7.7 3.2 7.7 4.1 0 1.6-1.5 1.4-11.2-2-4.3-1.4-6.4-2.7-6.6-4-.3-1.2.1-1.7 1-1.3.7.3 4.8 1.7 9.1 3.2M449.1 366.9c-.8.5-1.1 3.9-.9 10.7l.3 9.9 39.5-.3c21.7-.2 39.6-.5 39.7-.6.7-.6 1.2-16.2.7-18.3-.6-2.4-.6-2.4-39.4-2.2-21.3 0-39.3.4-39.9.8m77.5 9.8.1 8.3-20.1.1c-11.1 0-28.3.2-38.3.5l-18.3.4v-16.9l7.8-.3c4.2-.2 21.4-.3 38.2-.3h30.5z"/><path d="M490.5 371.6c-.9 1-1.3 2.4-.9 3.9.8 3.1-.9 3.9-3.1 1.5-1-1.1-2.4-2-3.2-2-.7 0-1.3-.5-1.3-1 0-.6.9-1 2-1s2-.5 2-1c0-.6-1.3-1-2.9-1-3 0-4.1 1.4-4.1 5.1 0 1.6.5 1.9 2 1.4 2.8-.9 5.4 1.3 3.9 3.1-1.5 1.9-3.6 1.8-4.7-.2-.5-.9-1.2-1.2-1.5-.7-1.9 3 4.2 5 7.3 2.5 2.3-1.8 2.4-1.8 4.2 0 1 1 2.3 1.8 2.8 1.8 1.7 0 5.1-4 4.4-5.2-.4-.6-.7-2.4-.8-4.1-.1-3.7-3.7-5.5-6.1-3.1m4.3 2.6c-.3.7-1.1 1.3-1.8 1.3s-1.5-.6-1.7-1.3c-.3-.7.4-1.2 1.7-1.2s2 .5 1.8 1.2m0 5.5c-.2 1-1 1.8-1.8 1.8s-1.6-.8-1.8-1.8c-.2-1.2.3-1.7 1.8-1.7s2 .5 1.8 1.7M501.8 370.7c-2.3.6-3.4 6.6-1.9 9.9 1.5 3.5 6.2 3 7.5-.7 1.8-5.2-1.3-10.2-5.6-9.2m3.6 3.9c1 2.7.7 5.1-1 6.5-1.9 1.6-3.4-.2-3.4-4.2s3.1-5.6 4.4-2.3M453.7 371.7c-.4.3-.7 1.9-.7 3.5 0 2.5.3 2.8 2.5 2.2 1.8-.4 2.7-.1 3.1 1.1 1 2.6-1.2 4.2-3.7 2.7-2.7-1.7-4-.5-1.5 1.4 2.5 1.8 3.7 1.8 6.1 0 1.6-1.2 1.8-1.9 1-4.3-.7-1.7-1.9-2.9-3.3-3.1-3-.5-2.8-2.2.3-2.2 1.4 0 2.5-.5 2.5-1 0-1.1-5.3-1.4-6.3-.3M465 373c-2 1.6-2.2 2-.7 2 1.3 0 1.7.9 1.7 3.9 0 3.9 1.6 6.4 2.5 3.9.2-.7.1-3.6-.3-6.5-.7-5.2-.7-5.2-3.2-3.3M472.5 377.9c-.3.5-.1 1.2.5 1.6 1.4.9 5.2-.4 4.5-1.6-.8-1.2-4.2-1.2-5 0M539.6 366.7c-1.3 1.4-3.6 7.5-3.6 9.7 0 2.4 3.5 8.6 4.9 8.6.5 0 .2-1.5-.7-3.2-2-4.1-1.9-8.5.2-12.7 1.5-2.8 1-4.2-.8-2.4M594 367.2c0 .8.5 1.9 1.2 2.6 1.7 1.7 1.4 9.7-.6 12.6-1.4 2.2-1.4 2.6-.2 2.6.8 0 2.2-2 3.1-4.4 1.3-3.5 1.5-5.1.6-8.3-1.2-4.2-4.1-7.9-4.1-5.1M555.8 368.7c-.9 1-1.8 2.7-2 3.8-.3 1.6-1.2 2-4.8 2.1-6.4.1-6.5 2.4-.1 2.4 4.2 0 5.1.3 5.1 1.8 0 4.3 4.9 5.6 7.4 2 1.6-2.2 1.6-2.2 3.2 0 2 2.9 5 2.8 6.7-.4 1.3-2.5 1.3-2.5 2.5 0 1.6 3.5 5.5 3.5 7 .1 2.2-4.8.8-11.9-2.4-13.2-2.3-.9-5.4 3.1-5.4 6.8 0 1.8-.5 2.9-1.4 2.9-.7 0-1.6.9-1.9 2s-1.2 2-2.1 2c-2.1 0-3-5.7-1.6-9.5 1.2-3 1.2-3 3-.8 1 1.3 2.1 2.3 2.4 2.3 1.4 0 .5-2.8-1.5-4.6-2.7-2.4-5-1-6.4 4.1-1 3.2-1.3 3.5-2.4 2.1-.7-.9-2.2-1.6-3.2-1.6-2.1 0-2.3-.8-.9-3 .7-1.2 1.2-1.2 2.9.4 1.7 1.5 2.1 1.6 2.1.5 0-1.8-1.9-3.9-3.5-3.9-.7 0-1.9.8-2.7 1.7M580 375c0 1.4-.7 3.5-1.5 4.6-1.3 1.6-1.6 1.7-2.5.4-1.4-2.1-1.2-8.4.2-9.8 1.7-1.7 3.8 1.1 3.8 4.8m-20 3.1c0 2.4-.4 3-1.7 2.7-1.1-.2-1.9-1.4-2.1-3.1-.3-2.2.1-2.7 1.7-2.7 1.7 0 2.1.6 2.1 3.1M585.5 368.6c-1.4 1.1-1.6 1.8-.7 2.1.7.3 1.2 2.5 1.2 5.8 0 3 .5 5.7 1 6 .6.4 1-2.3 1-7.4 0-4.5-.1-8.1-.2-8.1-.2 0-1.2.8-2.3 1.6M484 399.5v9.5h-56.7c-59.3.1-115.8.8-118.2 1.6-1.1.3-1.2 20.7-.6 124.7.6 89.6 1.1 124.4 1.9 125 .6.4 18.2.6 39.1.3s97.9-.8 171-1.1c73.2-.3 145.5-.8 160.8-1.1l27.8-.6-.7-124.2c-.3-68.2-1-124.5-1.4-125-.7-.7-74.5-.7-202-.2l-18.5.1-.3-9.3c-.4-12.2-2.2-12-2.2.3m221.4 10.6c.2.2.7 55.6 1.1 123.1l.7 122.8-8.8.1c-4.9.1-12 .2-15.9.4-8.9.3-289.3 2-336 2h-35l-.9-122.8c-.4-67.6-.6-123-.5-123.2.7-.6 106.5-1.5 247.9-2.1 78.4-.4 142.6-.7 142.7-.9.5-.3 4.2.1 4.7.6"/><path d="M502.2 414.6c-1.5 1-2.2 2.5-2.2 4.8 0 3.9 1.5 5.6 5 5.6s5-1.7 5-5.6c0-2.9-2.7-6.4-5-6.4-.3 0-1.6.7-2.8 1.6m5.1 3.6c1.2 1.9-.6 4.8-2.9 4.8-1.6 0-2.9-4.3-1.9-6 .9-1.5 3.5-.9 4.8 1.2M485 415.9c-1.4 2.8-1.2 8.3.5 10.5 2 2.7 2.7 1.6 1.4-2.3-1.1-3-1-4.6.6-8.4 1-2.4-1.2-2.2-2.5.2M489.4 415.4c-.3.8-.4 3.1-.2 5.2.4 4.8 2.8 5.9 2.8 1.2v-3.3l2 3.2c2.8 4.7 4 4.1 4-2.2 0-3-.4-5.5-1-5.5-.5 0-1 1.1-1 2.5s-.4 2.5-.8 2.5c-.5 0-1.4-1.1-2-2.5-1.3-2.8-3-3.3-3.8-1.1M517.3 414.7c-.7.2-1.3 1.4-1.3 2.5 0 1.7.2 1.8 1.5.8 2.8-2.3 3 0 .3 2.5-1.6 1.5-3.3 2.2-4.2 1.9-1.1-.4-1.6 0-1.6 1 0 1.3 1.1 1.6 5.5 1.6 3 0 5.5-.5 5.5-1 0-.6-.7-1-1.5-1s-1.5-.5-1.5-1c0-.6.4-1 .9-1s1.3-1 1.7-2.2c.4-1.5.1-2.5-1.2-3.5-1.9-1.4-2.2-1.4-4.1-.6M524.7 418.8c.3 2.9.1 5.8-.6 7-.7 1.4-.8 2.3-.1 2.7.6.4 1.8-1.1 2.6-3.1 1.3-3.2 1.4-4.4.3-7.6-1.7-5.3-2.9-4.7-2.2 1M535.5 418.6c-7.4 5.1-6.7 5.9 5.3 6.2l10.2.3V437h-9.5c-7.8 0-9.5.3-9.5 1.5s1.7 1.5 8.9 1.5c4.9 0 9.6-.3 10.5-.6 1.3-.5 1.6-2.2 1.6-8.5V423h-4.9c-5 0-5 0-5.3-3.7-.2-2-.7-3.7-1.3-3.9-.5-.1-3.2 1.3-6 3.2"/><path d="M486.9 431.6c-1.5 1.8-1.8 7.8-.6 11 .6 1.8.3 2.2-2.4 2.8-1.7.3-6 .6-9.4.6-4.8 0-6.4.4-6.9 1.6-.8 2.1-.8 9.9.1 15.9l.6 4.8 21.1-.6c11.6-.4 29.5-.7 39.9-.7H548v-22h-10.4c-10.4 0-10.4 0-9.4-3.5.7-2.2.8-4.6.2-6.6-1.5-5.4-2.9-4.4-2.6 1.8.1 3.2-.1 6.3-.5 7-.6.8-6.1 1.2-18.2 1.4-20.1.2-19.7.4-18.8-9.2.3-3.3.4-5.9.2-5.9-.1 0-.9.7-1.6 1.6m59.1 24.3v9.1h-10.2c-5.7 0-22.8.3-38 .7l-27.8.6V448l23.8-.2c13-.2 30.1-.4 38-.6l14.2-.3z"/><path d="M499.7 450.8c-3.4 3.7-1.2 12.2 3.1 12.2 1.7 0 4.2-4.2 4.2-7 0-3-2.5-7-4.4-7-.7 0-2 .8-2.9 1.8m4.3 2.8c1.3 3.4.2 7.6-1.9 7.2-1-.2-1.7-1.5-1.9-3.7-.6-6 2-8.4 3.8-3.5M508.7 449.7c-1.5 1.4-.6 2.3 2.3 2.3 3 0 3 0 .8 4.5-1.6 3.3-1.9 4.8-1.1 5.6s1.4 0 2.3-2.8c.7-2.1 1.9-4.7 2.6-5.8 2.3-3.3 1.7-4.5-2.4-4.5-2.1 0-4.2.3-4.5.7M519.6 451.2c-.9 1.2-1.6 3.4-1.6 4.8 0 3 2.5 7 4.5 7 4 0 6-9.3 2.7-12.3-2.5-2.3-3.8-2.1-5.6.5m5 2.3c.7 3-.2 7.5-1.6 7.5-.6 0-1.6-1.1-2.2-2.5-1.2-2.7.2-7.5 2.2-7.5.5 0 1.2 1.1 1.6 2.5M529 455.3c0 3.8.4 6.7 1 6.7s1-1.1 1-2.4c0-3.9 1.6-3.9 4.5-.1 1.5 1.9 3.1 3.2 3.6 2.9s-.2-2-1.6-3.8c-3-4-3.1-4.4-.3-7.3 3-3.3.3-2.9-3 .4-2.5 2.5-2.7 2.6-3 .8-.9-5-2.2-3.4-2.2 2.8M472.7 450.7c-.4.3-.7 1.9-.7 3.5 0 2.5.3 2.8 2.8 2.6 2.1-.2 2.8.2 3 1.9.4 2.6-2.5 3.2-4.7 1-1-1-1.2-.8-.9.8.4 2.3 4.2 3.2 6.4 1.5 3-2.5 1.1-8-2.8-8-1 0-1.8-.5-1.8-1 0-.6 1.4-1 3-1 1.7 0 3-.5 3-1 0-1.1-6.3-1.4-7.3-.3M484.8 451.1c-2.2 1.2-2.3 2.9-.3 2.9 1.1 0 1.5 1.2 1.5 4.5 0 2.5.5 4.5 1 4.5.6 0 1-2.8 1-6.5 0-6.7-.3-7.2-3.2-5.4M492 457.5c0 1.1.7 1.5 2.3 1.3 1.2-.2 2.2-.8 2.2-1.3 0-.6-1-1.1-2.2-1.3-1.6-.2-2.3.2-2.3 1.3M497.6 431.1c-.3.8-.7 2.3-.9 3.4-.3 1.8-.5 1.7-1.7-.8-2.2-4.5-4.5-3.1-4.5 2.7 0 5.7 2.2 7.6 2.7 2.4l.3-3.3 1.8 3.3c2.4 4.5 4.1 3.6 4.5-2.3.3-4.7-1.2-8.4-2.2-5.4M505 430.7c-2.2.8-4 3.4-4 5.9 0 4.9 6.1 7.2 9.3 3.6 2.3-2.5 2.1-5.4-.3-8-2.2-2.3-2.5-2.4-5-1.5m3.8 4.9c.3 2.3-2.1 4.9-3.8 3.9-.5-.3-1-2-1-3.6 0-2.6.3-3 2.3-2.7 1.3.2 2.3 1.1 2.5 2.4M518.6 432.5c-1.7 1.3-1.7 1.5-.3 2.1 1.1.4 1.7 1.8 1.7 4 0 1.9.5 3.4 1 3.4.6 0 1-2.5 1-5.5 0-5.8-.4-6.3-3.4-4M513.5 440.1c-1 1.5.3 2.5 1.6 1.2.7-.7.7-1.3.1-1.7-.6-.3-1.4-.1-1.7.5M581.6 456.7c-1.1 1.1-.6 2.3.9 2.3 2.8 0 1.5 1.5-3.8 4.4-2.8 1.5-9.4 5.3-14.5 8.4-9.4 5.5-9.4 5.5-17.5 4.2-10-1.5-28.7-.9-37.7 1.3-3.6.8-9.2 2.7-12.4 4.1-6 2.7-6 2.7-14.1.1-4.5-1.4-9-2.5-10.1-2.5-2.6 0-5.8 5.2-8.3 13.5-3.5 11.2-2.8 20.5 1.5 20.5 1.8 0 1.8.3-1.1 8.8-1.4 4.1-2.5 8-2.5 8.8 0 1.3-3.5 3.8-11.8 8.6-12.5 7.2-11.8 6.9-14.6 5.7-2.2-1-2.9-.9-4.6.6-1.1 1-2.2 2.6-2.5 3.6-.4 1.1-1.2 1.6-2.1 1.2-.7-.3-1.4 0-1.4.6s.5 1.1 1 1.1c.6 0 1 4.7 1 12.1 0 6.6.4 12.9 1 13.9 1.4 2.7 11.6 8.1 13.7 7.3 1-.4 5.4-2.9 9.7-5.5 7.8-4.8 7.9-4.9 11.1-3.3 4 1.9 5 1.9 6.7.1.8-.7 3.4-2.4 5.9-3.6 2.4-1.3 4.6-2.5 4.9-2.9.8-1 6.3-4.2 8.3-4.8.9-.3 1.7-.9 1.7-1.4s.5-.9 1-.9c.6 0 4.5-2.2 8.8-4.8 4.2-2.7 8.2-5.1 8.7-5.3.6-.2 5.4-3.1 10.8-6.4 11.6-7.1 14-8.6 18.7-11.2 1.9-1.1 8.2-4.9 14-8.3 10.3-6.2 13.1-7.8 20.8-12.1 5.6-3.2 6.2-3.9 6.2-7.3 0-2.7.7-3.7 4.1-5.9 2.2-1.5 4.4-2.7 4.7-2.7.4 0 2.1-1.1 3.7-2.4 3-2.4 3-2.4 3.4-15 .5-18.3.2-19-6.8-22.6-3.2-1.6-6.1-2.6-6.5-2.3m7.2 4.2c1.4.8.1 1.9-7 5.9-1.8 1.1-10.2 6-18.6 11.1-8.4 5-15.4 9.1-15.6 9.1s-5.6 3.1-11.9 7c-10.1 6.1-36.4 21.4-46.7 27.3-1.9 1-4.7 2.8-6.2 3.8-1.4 1.1-2.8 1.9-3.1 1.9-.9 0-37.2 22.1-39 23.8-3.5 3.2-4.2 5.7-4.7 18.4l-.5 12.7-3.2-2c-3.3-2.1-3.3-2.1-3.3-15 0-15.5 1.3-19.6 5.8-18.4 1.5.4 3.2.8 3.7.8.9 0 21.6-12 32.5-18.8 7.9-4.9 6.6-4.1 31-18.2 8.5-4.9 19.6-11.3 24.5-14.2 5-2.9 12.2-7.2 16-9.4 3.9-2.3 7.2-4.4 7.5-4.8.3-.3 1-.8 1.6-1 1.8-.7 23.1-13.1 29.2-17.1 6.3-4.2 6.2-4.1 8-2.9m4 16.2c.1 7.4.1 14.3-.2 15.4-.6 2.3-10.8 8.9-12.8 8.3-.7-.3.8-1.7 3.4-3.2 5.1-3 5.6-4.6 5-14.3-.4-5.7-2.3-7.4-6.1-5.3-1.7.8-2.5.6-4.1-1-1.1-1.1-2.4-2-3-2-2.1 0-.8-1.6 4-4.8 2.7-1.7 5.3-3.2 5.7-3.2.5 0 1.9-.9 3.3-2s3-1.8 3.5-1.6c.6.1 1.1 5.9 1.3 13.7m-17.9-.7c1 1.2.3 1.9-3.6 4.2-2.6 1.5-6.7 4-9 5.6-3.8 2.5-6.6 3.8-5 2.1.4-.3-.1-1.2-1.1-2-.9-.8-1.3-1.6-.7-1.9s4.2-2.5 8-4.9c7.6-4.7 9.6-5.3 11.4-3.1m-26.9 1.4c4.5.7 4.5.7 2 2.4-2.6 1.7-19.4 11.6-44.5 26.3-8.2 4.8-20.8 12.3-28 16.5-9 5.3-13.1 7.3-13.3 6.3-.5-2.1 4.5-16.1 8.3-23.2 4.2-7.8 3.9-9.5-.4-1.9-5 8.8-4.4 8.2-7 6.8-2.2-1.1-2.3-1.6-1.7-7.4.7-6.8 2.5-13.2 5.2-18.9 2.1-4.3 3.6-4.6 12.2-2.1 6.1 1.7 8.6 3.3 6.5 4.1-.7.3-1.3.9-1.3 1.5 0 .5 1.4 0 3-1.2 4.3-3.1 14.5-7 22-8.5 7-1.4 29.6-1.8 37-.7m30 16.6v15.5l-12.2 7.2c-6.8 4-19.9 11.8-29.2 17.3-9.3 5.6-18.8 11.2-21 12.5-2.3 1.3-5.3 3.2-6.8 4.2-1.4 1.1-2.9 1.9-3.3 1.9-.3 0-2.6 1.3-5 3-2.4 1.6-4.8 3-5.4 3s-1.1.4-1.1.8c0 .5-2.2 1.9-5 3.2-2.7 1.3-5 2.7-5 3.1 0 .3-.8.9-1.7 1.3-1.9.6-6.3 3-10.7 5.9-1.4.9-3 1.7-3.6 1.7-.7 0-1-5.1-.8-15.6l.3-15.6 14-8.5c7.7-4.6 16.2-9.7 19-11.2 2.7-1.6 7.5-4.3 10.5-6.1 6.3-3.8 8.2-4.9 20.5-11.9 5-2.8 9.7-5.5 10.5-6.1.8-.5 5.8-3.4 11-6.5 5.2-3 12.7-7.5 16.5-9.9 3.9-2.4 7.3-4.4 7.8-4.5.4-.1.7 6.8.7 15.3m6-15c0 .2-.7.7-1.6 1-.8.3-1.2.2-.9-.4.6-1 2.5-1.4 2.5-.6m3 4.4c-.1 2.3-.2 2.5-1.1.9-.5-.9-1.8-1.7-2.7-1.7-1.5-.1-1.5-.2.2-1.5 2.4-1.8 3.6-1.1 3.6 2.3m-2.6 1.8c.8 2.2-1.5 6.8-3.7 7.2-2.3.5-2.3-4.4 0-7 2-2.2 2.9-2.3 3.7-.2M554 488c0 .5-.4 1-1 1-.5 0-1-.5-1-1 0-.6.5-1 1-1 .6 0 1 .4 1 1m-2.5 2.4c1.8 1.3 1.7 1.4-1.5 3.1-5.6 2.9-19.8 11.2-48.9 28.6-10.4 6.1-11.6 6.6-12.8 5.1-.7-.9-1.3-2-1.3-2.4 0-.7 6.7-4.7 18-11 5.3-3 24.5-14.3 34.5-20.3 7.7-4.8 9.2-5.1 12-3.1m35.1 1.9c-.6 2.5-6.1 5.6-7.4 4.2-.4-.4 0-1 .8-1.3s2.6-1.7 4-3.1c2.9-3.1 3.5-3.1 2.6.2m-100 36.1c1.2 1.3.5 2-5.8 5.7-4 2.3-9 5.2-11 6.5-3.2 2.1-4.1 2.2-5.8 1.2-1.1-.7-2-1.6-2-2 0-.6 5.7-4.2 14.6-9.3 3-1.6 3.8-1.7 5.6-.6 1.5.9 2.3 1 3.1.2s.8-1.1-.1-1.1c-.7 0-1.2-.5-1.2-1 0-1.4.9-1.2 2.6.4M458 546.5c0 4.1-.3 4.8-3.1 6.3-1.7.9-4.9 2.9-7 4.5-3.9 2.7-3.9 2.7-3.9 10 0 6.7.2 7.5 2.4 8.6 2.1 1.2 2.9 1 7-1.4 6-3.5 7.1-2.6 1.4 1.2-8 5.4-13.9 8.5-15.4 7.9-2-.8-2-24.5 0-28.4 1.4-2.5 5-6.2 6.2-6.2.2 0 2.8-1.6 5.7-3.5 2.8-1.9 5.5-3.5 5.9-3.5.5 0 .8 2 .8 4.5m5.1-3.5c1.8 1 1.9 2.3 1.9 16.6 0 13.9-.2 15.5-1.6 15.2-2.3-.4-4.3-3.9-2.6-4.5 1.5-.6 1.7-19.3.2-19.3-.5 0-1-2-1-4.5 0-4.9.1-5 3.1-3.5m-8.1 12.5c0 .3-.2.5-.5.5s-.5-.2-.5-.5.2-.5.5-.5.5.2.5.5m5.4 1.3c-.1.7-.2 3.6-.2 6.5-.2 5.3-.2 5.3-5.5 8.5-2.9 1.8-5.6 3.2-6 3.2s-.7-2.1-.6-4.8c0-2.6.3-4 .6-3.2 1.8 4.8 6 4.1 8.6-1.2 1.8-3.7 1.2-6.5-1.6-7.4-2-.6-2-.7.4-2 2.7-1.5 4.5-1.3 4.3.4m-7.4-.3c0 .3-.2.5-.5.5s-.5-.2-.5-.5.2-.5.5-.5.5.2.5.5m-3 2c0 .3-.2.5-.5.5s-.5-.2-.5-.5.2-.5.5-.5.5.2.5.5m-2 1.9c0 .3-.4.8-1 1.1-.5.3-1 .1-1-.4 0-.6.5-1.1 1-1.1.6 0 1 .2 1 .4m1.6 2.8c-1.1 1.5-1.6 1.8-1.6.7 0-1.6 2.1-4.2 2.8-3.4.2.2-.3 1.4-1.2 2.7m3.4.8c-.6 1.2-1.4 1.9-1.7 1.7-.2-.3.1-1.5.7-2.7s1.4-1.9 1.7-1.7c.2.3-.1 1.5-.7 2.7m4-1.6c0 1.8-4.9 7.6-5 5.8 0-.6.4-1.2.9-1.2s1.4-1.4 2-3c1.1-3.2 2.1-3.9 2.1-1.6"/><path d="M561.5 490.8c-3.8 2.1-8.8 4.9-11 6.2-2.2 1.2-6 3.4-8.5 4.8-5 2.8-19.1 11.1-26 15.2-2.5 1.5-6.5 3.9-9 5.2-14.1 7.8-27.9 16.6-30.8 19.6-3.5 3.8-5.5 7.6-7.1 13.6-1.8 6.9 2.8 13.7 8.2 12.1 1.2-.4 18.9-10.6 39.2-22.7 20.4-12.2 40.2-23.9 44-26.2 10.4-6 14.4-11.4 15.3-20.8.4-4.2.1-5-2.6-7.8-1.7-1.6-3.4-3-3.9-3-.4 0-3.9 1.8-7.8 3.8m10.5.2c1.3 1.3 2 3.3 2 5.7 0 4.3-3.7 13-6.6 15.4-2.6 2.3-57.2 34.9-58.3 34.9-.5 0-1.1.3-1.3.7-.4 1-5.7 4.2-8 5-1 .3-1.8.9-1.8 1.4s-.5.9-1.1.9-2.4.9-3.9 2c-5.3 3.8-15.2 9-17.1 9-2.5 0-5.9-3.8-5.9-6.7 0-4.7 4.2-13.3 8.6-17.8 2.5-2.5 4.9-4.5 5.4-4.5s4.4-2.2 8.8-4.9 10.4-6.2 13.3-7.8c9.2-5.1 13.2-7.4 18.9-10.8 14.9-8.8 14.8-8.8 21.4-7.5 6.8 1.3 15.2 3.4 17.9 4.5.9.4 1.7.3 1.7-.3 0-.5-2.1-1.5-4.7-2.2-2.7-.6-5.9-1.6-7.3-2.1-1.4-.4-4.2-1.1-6.2-1.5-2.1-.3-3.8-.9-3.8-1.3 0-.3 1.7-1.5 3.7-2.6 2.1-1.1 7.4-4.1 11.8-6.7 4.4-2.7 8.6-4.8 9.3-4.8.6 0 2.1.9 3.2 2M445.3 457.8c-.6.4-2.1 3.9-3.3 7.7-3.4 11.3-3.6 11.5-7 11.5-1.7 0-3.9-.4-4.8-.9s-3.8-1.1-6.3-1.5c-4.1-.6-5-.4-7.8 1.9-3.6 3.1-3.8 4.7-1.1 8.5 1.6 2.2 3.4 3.1 7.8 4 3.6.8 6.7 2.1 8.5 3.8 3.8 3.7 10.4 3.8 14.1.3 3.8-3.6 3.6-9.8-.4-14.1-3.6-3.8-3.6-4.3-1-13.1l2.1-6.9h9.4c5.7 0 9.5-.4 9.5-1 0-1.2-17.9-1.4-19.7-.2m-16.2 19.8c.8.5-1.5 10.5-2.4 10.5-3.2-.2-5.7-1.6-5.7-3.2 0-1.2-.7-1.9-2-1.9-2.3 0-2.4-.7-1-4.5 1-2.6 1.3-2.7 5.8-2 2.6.4 5 .9 5.3 1.1m14.6 2.2c1.1.9 2.3 2.9 2.6 4.4 2.1 8.5-7.9 13.4-14.5 7.1-2.4-2.3-2.8-3.3-2.2-5.8 1.5-6.8 1.9-7.2 7.2-7.3 3.4-.1 5.6.4 6.9 1.6m-27.7.7c0 .3-.2.5-.5.5s-.5-.2-.5-.5.2-.5.5-.5.5.2.5.5M388 460.1c-1 1.7-1.7 2-5.1 1.4-3.8-.7-3.9-.6-4.6 2.5-.5 3-.8 3.1-3.7 2.5-1.7-.4-5.1-.7-7.5-.8-4.3-.2-4.6 0-8.9 5.5-4.5 6-5.4 6.4-9.6 4.8-1.8-.7-2.6-1.7-2.6-3.4 0-1.8-.9-3-3-4.1-7.1-3.7-10-.9-10 9.5 0 5.9 0 6 3.6 7.5 5 2.1 5.7 1.9 7.8-1.5 1.6-2.8 2.1-3 6.8-2.9 4.8.2 5.3 0 8.2-3.6 7.5-9.5 6.4-8.9 12.9-6.4 5.5 2.1 5.7 2.3 5.7 5.7 0 2.7-1.5 5.9-5.9 12.7-5.9 9-5.9 9-6.3 18-.2 5.3.1 9.2.7 9.5s1.2-3.3 1.5-9.5c.5-10 .5-10 6.3-18.2 3.2-4.6 6.2-8.5 6.7-8.8 1.5-.9 4 .7 4 2.6s2.8 3.9 5.5 3.9c.9 0 2.4.9 3.3 1.9 4.7 5.3 11.6 1.9 15.2-7.6 3.3-8.9 2.1-18.6-2.6-20.4-1.4-.5-2.9-.7-3.4-.4s-3.4-.2-6.6-1c-7.3-1.9-7.1-1.9-8.4.6m9.6.9c.8 0 1.4.7 1.4 1.5 0 1.8-1.2 1.9-6.3.4-4.4-1.2-4-3.4.5-2.5 1.7.3 3.7.6 4.4.6m7.4 1.5c0 .3-.7 1.6-1.5 2.8-2 3.1-5.1 13.2-6 19.5-.4 2.8-1.1 4.9-1.6 4.6-2.6-1.6.7-18.5 4.9-25.2 1.3-1.9 4.2-3.1 4.2-1.7m-20.6 1.1c.9.3 1.6 1 1.6 1.4 0 1-4.9 0-5.6-1.1-.6-1 1.7-1.2 4-.3m23.6.9c0 .8-.7 1.5-1.6 1.5-1.4 0-1.4-.3-.4-1.5.7-.8 1.4-1.5 1.6-1.5s.4.7.4 1.5m-11.1 1.1c1.3 1.2-1.1 1.2-5-.1l-4.4-1.4 4.5.5c2.5.4 4.7.8 4.9 1m-22.5 2.9c5.2 2.2 3.9 3-1.8 1.1-6.5-2.2-7.1-2.1-10.3 2-6.3 8.2-7 8.6-12.7 7.9-6.4-.9-6.6-1-6.5-4.3.1-2.2.3-2.3.6-.6.3 1.6 1.4 2.3 4.1 2.8 6.4 1 7 .7 11.8-5.5 5.2-6.8 6.3-7 14.8-3.4m9.5-1.6c1.6.9 1.7 1.6.7 6.3-1.2 6.4-1 6-2.9 5.2-2-.7-3.1-5.4-2.2-9.4.7-3.2 1.5-3.6 4.4-2.1m11.4 2c1.1 1.1-2.2 13.1-3.7 13.1-4.2-.1-5.6-1.3-5.6-4.9 0-2 .5-5.3 1-7.3 1-3.5 1.2-3.6 4.2-2.7 1.7.5 3.6 1.3 4.1 1.8m9.7 4.5c-1.1 2.6-2 5.7-2 6.9s-.5 2.9-1 3.7c-1.4 2.2-1.3-4.8.1-9.1 1.2-3.4 3.9-7.3 4.6-6.5.2.2-.6 2.4-1.7 5m-62.5-2.4c0 1.1-1 1.5-3.3 1.3-3.8-.1-4.7-.7-3.7-2.3 1-1.7 7-.8 7 1m66.2-.3c-.4.3-.7 0-.7-.7s.3-1 .7-.7c.3.4.3 1 0 1.4m-70.3 3.3c2.3.8 2.6 1.5 2.6 6 0 5.1-.7 5.8-4.4 4.4-1.2-.5-1.6-2-1.6-6 0-3 .2-5.4.4-5.4.3 0 1.6.4 3 1m69.2 4.5c-.4 1.9-1.1 3.5-1.7 3.5-.8 0-.6-2.9.7-6.9.9-2.7 1.6-.1 1 3.4m-63.9 3.7c-.3.8-.6.5-.6-.6-.1-1.1.2-1.7.5-1.3.3.3.4 1.2.1 1.9m47.7 1.4c.9.3 1.6 1 1.6 1.4 0 1-4.9 0-5.6-1.1-.6-1 1.7-1.2 4-.3m13.3 2.1c-.4.3-.7 0-.7-.7s.3-1 .7-.7c.3.4.3 1 0 1.4m-3.5 2.8c0 .5-.5 1.1-1.1 1.3s-1.1-.4-1.1-1.3.5-1.5 1.1-1.3 1.1.8 1.1 1.3M605 503.2c-1.9 1.2-6.1 3.6-9.2 5.5-23.1 13.3-23.9 13.8-28.3 16.3-1.9 1-5.1 3-7.2 4.3s-11 6.7-19.8 11.9c-29.1 17.4-34 20.6-35.2 22.9-1.8 3.5-1.6 12.4.2 14.3 1.2 1.2 1.5 3.3 1.3 8.8l-.3 7.3-26.5.6c-14.6.4-27.7.7-29.2.8-2.8.1-2.8.1-2.8 10.6V617h-9.5c-5.7 0-9.5.4-9.5 1s3.8 1 9.5 1h9.5v11.4c0 9.5.3 11.5 1.6 12 2.6 1 17.4.7 17.4-.4 0-.5-3.7-1-8.2-1.2l-8.3-.3-.3-21.3-.2-21.2 11.2-.2c6.2 0 18.5-.2 27.3-.2 16-.1 16-.1 16.3 3.1.3 3.5 1 4 12.5 10.2l7.7 4.2 7.8-4.1c4.2-2.3 8.2-4.6 8.7-5 .6-.4 2.6-1.7 4.5-2.8 10.7-6 29.6-17.1 45-26.4 9.6-5.8 19.5-11.6 22-13 11.4-6.5 16.6-10.1 17.9-12.5 1.1-2.1 1.2-6.3.8-20.7-.7-20.4-.2-19.2-10.2-24.6-3.3-1.7-6.4-3.6-6.9-4.1-1.7-1.5-5.9-1-9.6 1.3m12.2 2.1c3 1.9 6.2 3.7 7.1 4 1 .4 1.7 1.1 1.7 1.6 0 .8-7.1 5.4-18.5 12.1-1.6.9-8.2 4.8-14.5 8.5-6.3 3.8-14.1 8.3-17.3 10.2-3.3 1.8-7.2 4.2-8.7 5.3s-3 2-3.3 2c-.2 0-5.7 3.1-12.1 7-6.4 3.8-11.8 7-12.1 7s-4 2.3-8.2 5.1c-8.6 5.6-8 5.6-17.1-.4-2.4-1.6-4.6-2.6-5-2.2-.4.3 0 1 .8 1.5s4 2.4 7 4.2l5.5 3.3.3 18.8c.1 10.3 0 18.7-.2 18.7-.6 0-5.1-2.5-12.3-6.7-3.7-2.1-4.3-3-4.3-5.8 0-2 .6-3.5 1.5-3.9 2.1-.8 2.1-13 0-17-1.8-3.4-2-12.6-.2-14.8 1.1-1.4 10.4-7.3 25.7-16.4 3-1.8 7.3-4.3 9.5-5.7 2.2-1.3 10.5-6.2 18.5-10.9s22.2-13.1 31.5-18.6c9.4-5.6 17.5-10.2 18.1-10.2.5 0 3.5 1.5 6.6 3.3m12.8 26.5c0 10.3-.4 19.2-.8 19.8-.6 1-13.9 9.4-14.8 9.4-.2 0 1.4-2.3 3.5-5.1 2.5-3.3 4.7-7.9 6.1-12.7 2-6.7 2.1-8.2 1.1-12.2-1.5-5.7-3.9-8.1-8.7-8.9-3.9-.6-3.9-.6 4.1-5.3 4.3-2.6 8.3-4.4 8.7-4.2.4.3.8 8.9.8 19.2m-12.1-7.4c1.6 2 2.4 10.5 1.2 14.1-.8 2.6-.9 2.7-1 .7-.2-3.7-1.9-6-6-8.2-3.9-1.9-3.9-1.9-9.2.8-6.9 3.6-57.9 34-60 35.8-2.9 2.6-3.3 1.4-.5-1.5 1.5-1.6 7.4-5.7 12.9-9.1 5.6-3.5 11.4-7.1 12.9-8.1 1.5-1.1 3-1.9 3.3-1.9.4 0 2.6-1.4 5-3 2.4-1.7 4.7-3 5-3 .4 0 3-1.5 5.8-3.4 7-4.5 19-11.4 23-13.1 4.1-1.8 6.2-1.8 7.6-.1m6.1 10c0 7.8-4.6 18.1-11 24.7-4.1 4.2-15.8 11.9-18.1 11.9-.5 0-.9.4-.9 1 0 .5-.5 1-1.1 1s-2.9 1.3-5.2 2.9c-2.3 1.5-6 3.8-8.2 5s-5.3 3-7 4c-1.6 1-4.6 2.7-6.5 3.8s-7.5 4.4-12.4 7.2c-4.9 2.9-9.8 5.1-10.9 4.9-1.4-.2 2.3-2.8 11.4-8.1 7.4-4.4 14.6-8.7 16.1-9.8 1.5-1 3-1.9 3.2-1.9 1.7 0 33.7-20 36.8-23 2-2 5.4-7.1 7.4-11.4 3.1-6.4 3.8-9.1 3.8-14.2.1-5.5.3-6 1.3-4.1.7 1.2 1.2 4 1.3 6.1m-16.5-1.8c-1.1.8-15.7 9.7-32.4 19.7-33.8 20.3-36.5 22.5-37.7 31.9-.5 3.9-.9 4.7-1.6 3.3-.6-.9-.7-3.6-.3-6 1.1-7.7 5.2-10.9 39.5-31.5 17.3-10.5 32.2-19 33-19 1.1.1 1 .4-.5 1.6m7.3 1.6c2.1 2.1 1.4 9.7-1.3 14.3-2.1 3.6-5 5.8-19.7 14.5-9.5 5.7-18.5 11.1-20 12.1-1.5 1.1-3 1.9-3.3 1.9s-5.8 3.2-12.3 7.1c-6.4 3.9-12.9 7.3-14.3 7.6-3.8.7-5.3-1.7-4.6-7.7 1-8.1 3.5-10.5 22.8-22 3.3-2 23.6-14.3 36.9-22.4 10.7-6.5 13.7-7.5 15.8-5.4m-6.8 23.9c-1.9 1.7-5.5 4.1-8 5.5-2.5 1.3-8.5 4.9-13.4 7.9s-9.3 5.5-9.7 5.5c-.5 0-.9.4-.9 1 0 .5-.4 1-1 1-.5 0-5.6 2.8-11.2 6.2-18.2 10.9-23.9 13.8-27.4 13.8-2.9 0-3.4-.4-4.2-3.4-1-3.6-.5-12.3.8-13.1.4-.3.8.1.7.8-.1 4.1.6 5.8 3.5 7.8 4.5 3.2 8.3 2.7 16.2-2.1 3.8-2.3 8.3-5 10-6 1.7-.9 5.4-3.1 8.1-4.7 2.8-1.7 8.4-5 12.5-7.4s7.7-4.6 8-4.9 2.5-1.6 5-2.9c2.5-1.4 6.3-3.7 8.5-5.3 5.3-3.7 6.9-3.5 2.5.3m-68 7.5c0 .3-1.3 2.3-2.9 4.3-4.1 5.3-7.1 14.1-7.1 21.2 0 5.4.3 6.4 2.9 9 2 2 4 2.9 6.3 3 3.3 0 3.3 0 .9 1.7-3.8 2.7-13.5 8.1-14.6 8.2-.7 0-1.1-6.9-1.3-18.8-.3-21.4-.9-19.5 8.9-25.7 5.5-3.4 6.9-4 6.9-2.9"/><path d="M599.6 514.5c-3.4 2.6.3 4.7 4.5 2.4 1.6-.8 1.8-1.3.8-2.5-1.4-1.7-2.9-1.7-5.3.1m3.4.9c0 .3-.4.8-1 1.1-.5.3-1 .1-1-.4 0-.6.5-1.1 1-1.1.6 0 1 .2 1 .4M531.8 554.4c-4 3-.9 5.3 3.6 2.5 2.7-1.7 2.8-1.7.8-2.8-2.5-1.3-2.3-1.3-4.4.3m2.2 1c0 .3-.5.8-1.2 1.2s-.8.3-.4-.4c.7-1.2 1.6-1.6 1.6-.8M330.4 521.3c-.3.8-.6 5.4-.7 10.2-.2 8.9-.2 8.9 3.3 9.6 1.9.4 20.1.7 40.5.6l37-.2.3-9.4c.2-6-.1-9.8-.9-10.7-1.7-2-78.7-2.1-79.5-.1m78.1 9.7v8.5h-77l-.3-8.8-.3-8.7 38.8.2 38.8.3z"/><path d="M335 527.5c0 1.4-.1 2.8-.2 3.2-.2.4 1 .7 2.7.8 1.9 0 3.1.6 3.3 1.6.4 2.2-2.4 3.2-5 1.8-1.6-.9-1.9-.8-1.6.3.3.7 1.9 1.4 3.6 1.6 2.3.2 3.3-.2 4.2-1.7 1.3-2.5-.6-6.1-3.2-6.1-1 0-1.8-.5-1.8-1 0-.6.9-1 1.9-1 1.1 0 2.3-.5 2.6-1 .4-.6-.8-1-2.9-1-3.2 0-3.6.3-3.6 2.5M346.8 526.4c-2.2 1.6-2.3 2.6-.3 2.6 1.1 0 1.5 1.1 1.5 4 0 2.2.5 4 1 4 .6 0 1-2.7 1-6 0-6.3-.4-6.8-3.2-4.6M361 528.5c0 3.3.1 3.4 3 2.8 2.6-.5 3-.3 3 1.6 0 2.6-2.5 3.8-4.5 2.1-1.2-1-1.5-1-1.5.3 0 2.1 3.4 3.1 6 1.7 3.6-1.9 2-8-2.2-8-1 0-1.8-.5-1.8-1 0-.6 1.1-1 2.4-1 1.4 0 2.8-.5 3.1-1 .4-.6-1-1-3.4-1-4 0-4.1.1-4.1 3.5M371.7 525.7c-.2.4-.5 3.1-.6 5.9 0 4.5.2 5.3 2.1 5.7 2.3.6 5.8-.8 5.8-2.3 0-1.2 6.3 0 7.2 1.4.5.7 1.2.4 2.2-.9.8-1.1 1-2.2.5-2.3-.5-.2-.9-2.1-.9-4.3 0-2.1-.4-3.9-.9-3.9s-2.2 1.8-3.8 4c-1.5 2.2-3.1 4-3.5 4s-.8-1.7-1-3.8c-.3-3.3-.6-3.7-3.5-4-1.7-.2-3.3.1-3.6.5m4.9 1.4c1 1.7-1.3 3.6-2.7 2.2-1.2-1.2-.4-3.3 1.1-3.3.5 0 1.2.5 1.6 1.1m9.4 3.9c0 1.1-.7 2-1.5 2-1.8 0-1.9-1.2-.3-2.8s1.8-1.5 1.8.8m-9.2 2.7c-.2 1-1 1.8-1.8 1.8s-1.6-.8-1.8-1.8c-.2-1.2.3-1.7 1.8-1.7s2 .5 1.8 1.7M354 532c0 .5 1.1 1 2.5 1s2.5-.5 2.5-1c0-.6-1.1-1-2.5-1s-2.5.4-2.5 1M415 548.9c-1.3 2.5-1.3 3.1 0 3.1.6 0 1-.7 1-1.5 0-1 1-1.5 3.1-1.5 1.7 0 2.8-.4 2.4-1-1.1-1.7-5.4-1.1-6.5.9M654.5 549.4c-1.6.7-9.1 5.1-16.5 9.6-7.4 4.6-14.4 8.8-15.5 9.4-17.1 9.5-34.3 20.7-37.6 24.5-7.3 8.1-11.9 20.8-9.8 27.2 1.1 3.5 7.3 9.9 9.4 9.9.7 0 1.7.6 2.3 1.3.9 1 .1 2.3-3.2 5.6-4.3 4.2-4.3 4.2-15.9 4-6.5-.1-11.8.3-11.9.7-.2.5 5.3 1 12 1.2l12.4.3 5.9-6c3.2-3.3 6.8-6.2 7.9-6.6 1.2-.4 7.6-3.8 14.3-7.7 18.5-10.7 18.9-10.9 23.6-13.6 13.6-7.6 29.8-17.8 32.4-20.4 8.4-8.2 12.8-22.5 9.6-31.6-1.3-3.7-7.9-8.3-12.8-8.8-2-.2-4.9.2-6.6 1m7.8.2c.3.4-2.4 2.2-6.1 4.1-3.7 2-7.8 4.3-9.2 5.3-2.5 1.7-21.6 13.3-25.5 15.4-15 8.2-29.3 17.7-32.9 22.1-6.7 7.9-10.3 17.9-9.1 25.3.6 3.5.5 3.6-.9 1.8-2.8-3.5-3-8.2-.7-15.3 4.1-12.5 7.7-16.1 28.5-28.5 19.3-11.4 28-16.6 38.1-22.9 11.9-7.3 16.1-9 17.8-7.3m8.9 5.7c3.3 4.2 2.7 15-1.3 22.9-4.6 9-9.2 12.9-27.9 23.4-3 1.7-8.4 4.8-12 6.9s-9.4 5.4-13 7.5c-3.6 2-9.5 5.4-13.1 7.7-11.8 7.2-15.6 7.8-20.1 3.2-2.9-2.9-3-3.3-2.6-9.2.7-8 4.4-16 10.1-21.7 3.7-3.7 30.1-20.4 48.7-30.8 1.9-1.1 7.1-4.2 11.6-7 4.4-2.7 8.9-5.2 10-5.5 3.4-.9 7.8.3 9.6 2.6"/><path d="M650.6 566c-4.2 2.7-7.9 5-8.1 5-.3 0-7.2 4-15.5 9-8.3 4.9-15.2 9-15.4 9-.8 0-16.7 10-18 11.2-2.8 3-5.4 7.6-6.3 11.5-.9 3.5-.8 4.7.8 7.2 2.2 3.6 5.7 4.1 9.7 1.3 1.5-1.1 9-5.4 16.7-9.7 7.7-4.4 19.2-11 25.5-14.8s13.1-7.8 15-8.9c8.1-4.6 12.1-10.7 12.2-18.6 0-8.9-5.2-9.6-16.6-2.2m10.4.3c0 5-4.5 13.1-7.9 14.2-1.2.3-2.1 1.1-2.1 1.6s-.5.9-1.2.9c-.6 0-1.9.6-2.7 1.4-.9.7-3.6 2.5-6.1 3.8-5.7 3.2-9.3 5.3-20.5 11.8-4.9 2.9-11.5 6.6-14.5 8.3-3 1.6-7.6 4.3-10.3 5.9-7.6 4.9-9.4 2.4-5-7 1.7-3.5 7.4-8.9 12-11.2 1.5-.8 5.7-3.2 9.3-5.4 6.3-3.8 8.6-5.1 16.8-9.7 2-1.2 4.9-3 6.4-4 1.4-1.1 2.8-1.9 3.1-1.9s5.2-2.9 10.9-6.5c5.7-3.5 10.6-6.5 11.1-6.5.4 0 .7 1.9.7 4.3m4.6-.8c.8 3.4-.2 8.3-2.6 12.3-1.9 3-9.8 8.7-20 14.4-2.5 1.4-8.3 4.8-13 7.5-31.2 18.4-39 22.3-39 19.5 0-.5 1.5-1.6 3.3-2.5 1.7-.9 5.9-3.2 9.2-5.1s8-4.6 10.5-5.9c5.8-3.2 24.3-14.1 34.3-20.3 10.3-6.3 14.7-12.1 14.7-19.5 0-3.6 1.7-3.8 2.6-.4M414 564.5c0 3 .5 5.5 1 5.5.6 0 1-2.5 1-5.5s-.4-5.5-1-5.5c-.5 0-1 2.5-1 5.5M414 582.5c0 2.5.5 4.5 1 4.5.6 0 1-2 1-4.5s-.4-4.5-1-4.5c-.5 0-1 2-1 4.5M414 599.5c0 2.5.5 4.5 1 4.5.6 0 1-2 1-4.5s-.4-4.5-1-4.5c-.5 0-1 2-1 4.5M376.3 606.8l-29.3.2v21h80.1l-.3-10.8-.3-10.7H416c-5.8 0-23.7.1-39.7.3m48.7 10.1v9.1h-76v-16.9l15.3-.3c8.3-.2 25.4-.4 38-.6l22.7-.4z"/><path d="M353 612.9c-1.8 3.5-1.3 5.2 1.8 4.9 2.1-.2 2.8.2 3 1.9.3 1.7-.2 2.3-1.7 2.3-1.1 0-2.3-.5-2.6-1-.4-.6-1.1-.8-1.6-.4-1.7 1 1.1 3.4 4.1 3.4 1.8 0 3-.7 3.7-2.3 1.3-2.9-.5-5.7-3.6-5.7-2.9 0-2.2-2.4.7-2.8 3-.5 2.8-2.2-.3-2.2-1.4 0-2.9.8-3.5 1.9M364.7 612.4c-2.1 1.6-2.2 2.6-.2 2.6 1.1 0 1.5 1.2 1.5 4.6 0 2.7.4 4.3 1 3.9 1.2-.7 1.4-11.2.2-11.9-.4-.2-1.5.1-2.5.8M379.7 611.7c-.4.3-.7 1.9-.7 3.5 0 2.5.3 2.8 2.5 2.2 1.8-.4 2.7-.1 3.1 1.1 1 2.6-1.2 4.2-3.7 2.7-2.5-1.6-3.7-.8-1.9 1.3 1.6 1.9 5.4 1.9 7 0 1.8-2.2.4-6.2-2.5-6.9-3.2-.8-3.2-2.6 0-2.6 1.4 0 2.5-.5 2.5-1 0-1.1-5.3-1.4-6.3-.3M389.7 611.7c-.4.3-.7 3-.7 5.9 0 4.9.2 5.4 2.5 6 3.7.9 5.4-1 5.2-5.9-.2-2.3-.6-4.8-1.1-5.5-.8-1.3-4.8-1.7-5.9-.5m5.3 2.4c0 1.2-2.9 2.4-3.7 1.6-.3-.4-.3-1.3 0-2.1.6-1.6 3.7-1.1 3.7.5m0 5.9c0 1.3-.7 2-2 2s-2-.7-2-2 .7-2 2-2 2 .7 2 2M399.3 612.5c-.8 2.3.5 3.1 2 1.2.9-1.2 1.6-1.4 2.7-.7 1.3.9 1.3 1.2-.2 2.4-2.2 1.6-2.3 2.6-.3 2.6.8 0 1.5.9 1.5 2 0 2.1-3.3 2.9-4.5 1-1-1.6-2.5-1.2-1.9.5.8 2.1 5.1 3 6.9 1.5 1.7-1.4 1.8-10.1.1-11.2-1.9-1.3-5.6-.9-6.3.7M372.7 617.7c-1.3 1.2-.7 2.3 1.2 2.3 2.6 0 3.5-1.6 1.5-2.4-1.9-.7-1.9-.7-2.7.1M414.4 630.3c-.9 2.5 0 9 1.4 9.5.8.2 1.2-1.1 1.2-4.7 0-4.9-1.5-7.6-2.6-4.8M482.5 631l-12 .5v20l40.3.3 40.3.2-.3-10.7-.3-10.8h-28c-15.4 0-33.4.2-40 .5m66.5 9.9v9.1h-37.9c-43.2 0-39.1 1.1-39.1-10.1V633l22.8-.2c12.5-.2 29.8-.4 38.5-.6l15.7-.3z"/><path d="M476.7 635.7c-.4.3-.7 1.9-.7 3.5 0 2.4.4 2.8 3 2.8 2.3 0 3 .4 3 2 0 2.1-3.3 2.9-4.5 1-.9-1.5-2.5-.2-1.8 1.5.3.9 1.8 1.5 3.9 1.5 2.8 0 3.5-.5 4-2.5.9-3.6-.2-5.5-3.1-5.5-3.1 0-3.3-1.7-.3-2.2 3.4-.5 3.5-2.8.1-2.8-1.7 0-3.3.3-3.6.7M488.5 636.7c-1.4 1.1-1.6 1.7-.7 2 .7.3 1.2 2.2 1.2 4.3 0 4.1 1.6 6.2 2.6 3.5.4-.9.3-3.8-.2-6.5-.9-4.7-1-4.8-2.9-3.3M503.2 636.2c-.6.6-1.2 2.3-1.2 3.5 0 2 .5 2.3 2.8 2.1 2.1-.2 2.8.2 3 1.9.3 1.7-.2 2.3-1.5 2.3-1.1 0-2.4-.5-3.1-1.2-.9-.9-1.2-.8-1.2.5 0 2.2 2.2 3.1 5.5 2.3 2.1-.5 2.5-1.2 2.5-4.1 0-3.2-.2-3.5-3.1-3.5-2 0-2.9-.4-2.6-1.3.2-.6 1.3-1.2 2.5-1.2s2.2-.5 2.2-1c.1-1.5-4.3-1.8-5.8-.3M513.3 636.2c-1.5 2.1-1.4 9.5.2 10.8.8.7 2.6.9 3.9.6 2.3-.6 2.5-1.1 2.4-5.9-.1-2.8-.6-5.5-1.2-5.9-1.7-1.2-4.3-.9-5.3.4m4.7 2.3c0 .8-.9 1.5-2 1.5s-2-.7-2-1.5.9-1.5 2-1.5 2 .7 2 1.5m0 5.5c0 1.3-.7 2-2 2s-2-.7-2-2 .7-2 2-2 2 .7 2 2M523.2 636.2c-1.4 1.4-1.6 3.8-.2 3.8.6 0 1-.7 1-1.5s.9-1.5 2-1.5c2.9 0 2.4 2.6-1 5-1.6 1.2-3 3-3 4.1 0 1.6.7 1.9 3.9 1.9 2.2 0 4.3-.5 4.6-1 .4-.6-.8-1-2.9-1-4.4 0-4.5-1-.5-3.2 2.4-1.4 3-2.3 2.7-4.5-.2-2.1-.9-2.9-2.8-3.1-1.4-.2-3.1.3-3.8 1M495.5 643c.3.5 1.5 1 2.6 1 1 0 1.9-.5 1.9-1 0-.6-1.2-1-2.6-1s-2.3.4-1.9 1M415 649.4c0 2 .2 3.6.4 3.6.8 0 1.2-6.1.4-6.6-.4-.3-.8 1.1-.8 3M478.3 719.5l.7 54.5h-3.5c-3.9 0-4.3.6-1.7 2.9.9.9 2.9 3.2 4.3 5.1 1.5 1.9 3.9 4.8 5.3 6.5l2.6 3 2.5-3c1.3-1.7 4.4-5.6 7-8.8l4.6-5.7h-3.5c-1.9 0-3.7-.4-4-.9-.3-.4-.6-20.3-.7-44.2s-.4-48-.6-53.7l-.5-10.2h-13.1zm7.2-50.3c3.7 4.4 4.7 7.5 3.4 10-.8 1.4-.8 2.3 0 3.1 1.2 1.2 1.5 5.7.4 5.7-.5 0-2.7-2.2-5-4.9-3.2-3.7-4.3-5.8-4.3-8.3.1-3.3.1-3.3 4 1.2 5.2 5.9 5.2 4.2 0-2-4.1-4.9-5.1-8-2.6-8 .8 0 2.6 1.4 4.1 3.2m3.5-.5c0 2.6-.1 2.6-1.5.7-1.9-2.5-1.9-3.4 0-3.4 1 0 1.5 1 1.5 2.7m1 25.5c0 3.7-1.4 3.5-4.1-.5-1.3-1.7-3.1-3.9-4.1-4.8-1.1-1-1.8-3-1.8-5 0-3.4 0-3.4 5 2.1 3.4 3.7 5 6.4 5 8.2m-4.2 1.3c3.7 4.8 5.7 10.6 3.5 10.4-1.8-.1-9.3-11-9.3-13.3 0-1.4.3-2.6.8-2.5.4 0 2.6 2.4 5 5.4m-.8 7.7c1.9 2.4 3.8 4.4 4.2 4.6s.8 2 .8 4c0 3.7 0 3.7-5-1.8-3.3-3.7-4.9-6.4-5-8.3 0-3.7 1.1-3.4 5 1.5m.9 9.5c2.9 3.4 4.1 5.6 4.1 7.8-.1 3-.1 3-5-2.4-3-3.3-5-6.4-5-7.8 0-3.4 1.3-2.9 5.9 2.4m-3.6 4.6c5.8 6.1 7.7 9 7.7 12 0 3.2 0 3.2-5-2.3-3.3-3.7-4.9-6.4-5-8.3 0-3 .5-3.3 2.3-1.4M486 730c3.3 3.9 4.1 5.6 3.8 8.1-.3 3.2-.3 3.2-5-2.5-4.4-5.3-6.3-10.6-3.9-10.6.5 0 2.8 2.2 5.1 5m-.1 8.7c3.1 3.6 4.1 5.6 4.1 8.2 0 3.5 0 3.5-3.6-.8-2-2.3-3.9-4-4.1-3.7-.3.3 1.4 2.7 3.7 5.4 3.3 4 4.1 5.7 3.8 8.1-.3 3.2-.3 3.2-4.6-2.3-4.1-5.4-5.2-8.5-3.8-11.7.4-1 .3-2-.3-2.4-1.3-.8-1.5-5.5-.2-5.5.5 0 2.7 2.1 5 4.7m.1 17.7c3.2 4.2 4.1 6.3 4 8.8-.3 4.7 1 9.8 2.6 9.8.7 0 1.5.4 1.8.9.7 1.1-.3 4.1-1.3 4.1-1.7 0-12.1-14.4-12.1-16.6 0-3.3 1-3 4.3 1.2 1.6 1.9 3.1 3.3 3.4 3s-1.3-2.7-3.6-5.4c-2.9-3.4-4.1-5.7-4.1-8 0-1.8.2-3.2.4-3.2s2.2 2.5 4.6 5.4m-.3 17.3c1.5 2.1 3.6 4.7 4.5 5.7 1.3 1.5 1.5 2.3.7 3.3-1.8 2.1-2.5 1.6-6.3-3.7-5.6-7.8-4.5-12.8 1.1-5.3m-1.4 7.2c4.2 5.5 4.6 7.1 1.7 7.1-1.1 0-2-.4-2-.9 0-.4-1.8-2.9-4-5.4s-4-4.8-4-5.1 1-.6 2.3-.6c1.6 0 3.5 1.5 6 4.9M415.1 671.2c0 3.1.3 3.7.8 2.4.7-1.8.3-6.6-.5-6.6-.2 0-.4 1.9-.3 4.2M379 674.5c-1.4.7-3.3 2.9-4.3 4.8-1.8 3.4-2 3.4-10 4.1-4.5.3-11.7.6-16 .6-5 0-7.6.4-7.2 1s6.7 1 15.5 1c15 0 15 0 15.6 2.5.3 1.4 1.9 3.2 3.5 4.1 1.6.8 2.9 1.8 2.9 2.3 0 1 6.2 4.1 8.3 4.1s7.2-4.9 9.6-9.3c4.3-7.8 1.7-12.6-8.3-15.2-6.8-1.8-6.4-1.8-9.6 0m6.7 1.1c-.3.3-1.2.4-1.9.1-.8-.3-.5-.6.6-.6 1.1-.1 1.7.2 1.3.5m-3 1.9c.3.9-.2 2.3-1 3.3-.9.9-2 3-2.6 4.5-.9 2.4-1.4 2.6-3.1 1.7-2.5-1.4-2.5-2.3.2-7.1 2.2-4 5.4-5.2 6.5-2.4m4.2 2.2c-3.9 4.3-5.7 7.7-6.2 11.4-.4 3.4-.4 3.4-.5-.4-.1-2.1.3-4.8.9-6 1.5-2.9 6-7.7 7.3-7.7.5 0-.2 1.2-1.5 2.7m8.9-.5c4.5 4.5-3.1 18.4-9.6 17.6-2.4-.3-2.7-.8-3-4.5-.6-8.4 8.2-17.5 12.6-13.1M377 689.5c1 1.2 1 1.5-.3 1.5-.8 0-1.7-.7-2.1-1.5-.3-.8-.2-1.5.3-1.5s1.4.7 2.1 1.5"/><path d="M387.5 685.1c-2.9 3.5-2.9 5.6-.2 7.3 1.5.9 2.3.6 4.3-1.7 2.6-3.1 3.1-5.6 1.2-7.5-1.8-1.8-2.3-1.5-5.3 1.9m4.5.5c0 2.4-1.9 5.4-3.5 5.4-1.9 0-1.9-2 .1-4.8 1.8-2.6 3.4-2.9 3.4-.6M259 679.5c-1.7 2-.9 4.8 1.8 6.1 2.5 1.3 1.4 2.8-1.2 1.8-.9-.3-1.6-.2-1.6.4 0 .5.7 1.3 1.6 1.6 2.1.8 2 .8 3.8-1 1.9-1.9 2-6.3.2-8.7-1.6-2.1-3-2.2-4.6-.2m3.8 2.8c.2 1-.3 1.7-1.2 1.7-1 0-1.6-.9-1.6-2.1 0-2.4 2.3-2.1 2.8.4M267.5 679.6c-2.1 2.1-1.6 4.6 1.3 5.9 3.1 1.4 2.8 2.8-.5 2.1-2.6-.6-2.7-.5-.9.8 1.4 1.1 2.4 1.2 3.7.5 3.2-1.7 2.1-10.9-1.2-10.9-.4 0-1.5.7-2.4 1.6m3.5 2.4c0 1.1-.7 2-1.5 2-1.5 0-2.1-2.1-.8-3.3 1.2-1.3 2.3-.7 2.3 1.3M275.6 679.6c-1.9 1.8-1.9 2-.6 4.5.6 1 1.7 1.9 2.5 1.9s1.5.5 1.5 1.1-.9.8-2 .4c-2.4-.8-2.7 1-.3 1.9 3.7 1.5 6.3-6.3 3.2-10-1.5-1.8-2.4-1.8-4.3.2m3.4 2.4c0 1.1-.7 2-1.5 2-1.5 0-2.1-2.1-.8-3.3 1.2-1.3 2.3-.7 2.3 1.3M292.3 680c-2.8 4.4 0 11 3.8 8.9 1.1-.5 1.9-1.6 1.9-2.4 0-1.8 6.1-.9 7.3 1.2s4.7 1.6 5.6-.9c1.7-4.6-1.4-10.3-4.4-7.8-.8.6-1.7 2-2 3.1-1 3-5.1 2.5-6.7-.8-1.6-3.4-3.9-4-5.5-1.3m4 2c.7 2.7-.3 6.2-1.7 5.7-1.8-.6-2-7.7-.3-7.7.8 0 1.7.9 2 2m13.2 0c.7 2.3-.2 6-1.5 6s-2.4-4.6-1.6-6.5c.8-2.1 2.3-1.9 3.1.5M314.1 679.4c-.7.8-1.1 3.2-.9 5.3.3 3.3.7 3.8 3 4.1 1.9.2 2.8-.2 3.3-1.8.7-2.3-.9-5-3.1-5-.8 0-1.4-.5-1.4-1.1 0-.7 1-.9 2.7-.4 2.3.5 2.5.4 1.4-.9-1.7-2-3.5-2-5-.2m3.7 6.3c-.5 2.5-2.8 2.8-2.8.4 0-1.2.6-2.1 1.6-2.1.9 0 1.4.7 1.2 1.7M322.1 679.4c-.7.8-1.1 3.2-.9 5.3.3 3.5.5 3.8 3.3 3.8s3-.3 3.3-3.8c.3-3.9-1-6.7-3.3-6.7-.7 0-1.8.6-2.4 1.4m3.7 4.9c.2 2.8-.1 3.7-1.2 3.7-1.2 0-1.6-1.1-1.6-4.1 0-5.2 2.4-4.8 2.8.4M330.2 680c-.7 1.2-.8 2-.2 2 .5 0 1-.5 1-1 0-1.4 2.7-1.3 3.6.1.4.7-.7 2.2-2.5 3.6-4.1 3.2-3.9 4.3.7 4.2q3.45-.15 1.5-.6c-2.9-.6-2.9-1 .3-4 2.5-2.3 2.5-2.5.9-4.4-2.3-2.4-3.7-2.4-5.3.1M285.1 681.6c-2.6 3.4-2.7 5.4-.1 5.4 1.1 0 2 .4 2 1 0 .5.5 1 1 1 .6 0 1-2.3 1-5 0-5.6-.9-6.2-3.9-2.4m1.9 2.4c0 .5-.4 1-1 1-.5 0-1-.5-1-1 0-.6.5-1 1-1 .6 0 1 .4 1 1M415 684c0 2.5.4 3.9 1 3.5.6-.3 1-1.9 1-3.5s-.4-3.2-1-3.5c-.6-.4-1 1-1 3.5M399 692.8c0 .7 4.2 3.2 5.5 3.2s.3-1.8-1.2-2.4c-1-.3-2.4-.9-3-1.2-.7-.3-1.3-.2-1.3.4M414.5 695.3c-.6 1.4-1.8 2.2-3.3 2.1-2.5-.1-2.9 1.1-.6 2 1.9.7 5-.8 5.8-3 1-2.6-.8-3.7-1.9-1.1M467.4 796.9c-.2.2-.1.8.2 1.2.7 1.2 12.1 1.1 12.8 0 .6-.9-12.1-2-13-1.2M495.5 797.1c-3.3.3-5.8.7-5.5.8 1.4.6 13.9.6 15.6.1 3-1.1-3-1.6-10.1-.9M516.4 797.1c-.3.5 3 .9 7.2.9 4.3 0 7.4-.3 7-.7-1-1.1-13.5-1.2-14.2-.2M540 797c0 .6 3.5 1 8.6 1 5.4 0 8.3-.4 7.9-1-.3-.6-4.2-1-8.6-1-4.6 0-7.9.4-7.9 1M565 797c-1 .7.9 1 6.3 1 5 0 7.6-.4 7.2-1-.8-1.3-11.5-1.3-13.5 0M588 797c0 .6 3 1 7 1s7-.4 7-1-3-1-7-1-7 .4-7 1M613.5 797c-.4.6 2.6 1 8.2 1 6 0 8.3-.3 7.3-1-2-1.3-14.7-1.3-15.5 0M637.5 797c-.4.6 2.2 1 6.9 1 4.4 0 7.6-.4 7.6-1s-3-1-6.9-1-7.3.4-7.6 1M662 797c0 .6 3.2 1 7.5 1s7.5-.4 7.5-1-3.2-1-7.5-1-7.5.4-7.5 1M687 797c0 .6 3 1 7 1s7-.4 7-1-3-1-7-1-7 .4-7 1M711 797c0 .6 3 1 7 1s7-.4 7-1-3-1-7-1-7 .4-7 1M370.5 798c-.3.6 0 1.3.8 1.6 2.2.8 12.8 0 12.5-1-.4-1.2-12.6-1.8-13.3-.6M394.5 798c-.9 1.5 1.7 2.1 7.5 1.8 3.2-.2 5.5-.8 5.8-1.6.5-1.5-12.3-1.7-13.3-.2M417 798c0 .6 3 1 7.1 1 4.4 0 6.8-.4 6.4-1-.3-.6-3.5-1-7.1-1s-6.4.4-6.4 1M441 798c0 .6 3.2 1 7.5 1s7.5-.4 7.5-1-3.2-1-7.5-1-7.5.4-7.5 1M733 798c0 .6 1.1 1.5 2.5 2 2.4.9 5.5 5.6 5.5 8.5 0 .8.5 1.5 1 1.5 2.8 0-.4-7.6-4.6-10.9-2.9-2.3-4.4-2.7-4.4-1.1M236.7 798.6c-1.4 1.5.6 2.4 5.3 2.4 2.7 0 5.2-.5 5.5-1 .3-.6 0-1-.7-1.1-.7 0-3.1-.2-5.4-.5-2.2-.2-4.3-.2-4.7.2M255.7 798.6c-1.5 1.6.9 2.4 6.9 2.4 5 0 6.4-.3 6.4-1.5s-1.4-1.5-6.3-1.5c-3.5 0-6.7.3-7 .6M279.5 798.9c-.3.5-.2 1.1.2 1.3 1.6.8 13.3-.4 13.3-1.3 0-1.2-12.7-1.2-13.5 0M303 799c0 .6 3 1 7 1s7-.4 7-1-3-1-7-1-7 .4-7 1M327 799c0 .6 3 1 7 1s7-.4 7-1-3-1-7-1-7 .4-7 1M347.5 799c.3.5 3.3 1 6.5 1s6.2-.5 6.5-1c.4-.6-2-1-6.5-1s-6.9.4-6.5 1M222.1 802.7c-1.7 1.6-3.3 4-3.7 5.5-.9 3.9 1 3.5 2.1-.5.7-2.1 2.1-3.8 4.3-4.9 4.4-2.2 5-2.8 2.4-2.8-1.2 0-3.5 1.2-5.1 2.7M242.4 809.8c-1.9 1.2-3.4 5-3.4 8.7 0 3.8 2.4 9.5 4 9.5 1.4 0 1.2-1.2-.5-3.4-2-2.6-1.9-9.6.1-12.4 1.7-2.4 1.6-3.6-.2-2.4M298.1 812.7c2.3 4.5 2.4 7.8.4 11.7-1.7 3.3-1.8 3.6-.6 3.6s4.1-6.4 4.1-9.2c0-2.7-3.1-9-4.8-9.6-.6-.2-.2 1.4.9 3.5M248.6 811.9c-2.2 2.4-2.6 10.2-.7 12.5s6.2 2.1 6.8-.4c.3-1.1.9-2 1.3-2 .5 0 1.2.9 1.5 2 .8 2.7 5 2.6 6.9-.1 1.4-2.1 1.4-2.1 2.5 0 1.5 2.7 5.7 2.8 7.1.2 1.7-3.3 1.2-10.6-.8-12.4-1-1-2.4-1.7-3-1.7-1.7 0-4.2 4.2-4.2 7.2 0 1.7-.5 2.8-1.4 2.8-.7 0-1.6.9-1.9 2s-1.2 2-2.1 2c-1.3 0-1.6-1.1-1.6-5.4 0-3.2.5-5.8 1.2-6.2.6-.4 1.3-.3 1.5.2.8 2.2 2.2 3.8 2.9 3.1 1.3-1.2-1.5-5.7-3.5-5.7-2.2 0-5.1 3.5-5.1 6.2 0 2-1.5 2.4-2.6.7-.3-.6-1.5-.9-2.5-.6-1.4.4-1.9 0-1.9-1.3 0-2.8 1.9-3.4 4.1-1.4 1.5 1.4 1.9 1.4 1.9.3 0-1.8-1.9-3.9-3.5-3.9-.7 0-2 .9-2.9 1.9m24.4 6.8c0 3.1-.5 4.5-1.6 5-3.1 1.1-4.6-5.5-2.3-9.8 1.7-3.2 3.9-.5 3.9 4.8m-20.2 2.6c.3 2.2-.1 2.7-1.7 2.7-1.5 0-2.1-.6-2.1-2.3 0-4.6 3.3-4.9 3.8-.4M278.5 811.6c-1.4 1-1.6 1.7-.8 2.2.6.4 1.3 3.1 1.5 6 .4 7.4 2.2 7 2.6-.6.4-7.7-.5-9.7-3.3-7.6M740.8 815.7c-.4 1.7.7 9.4 1.2 8.3.8-1.9 1-10 .2-10-.5 0-1.1.8-1.4 1.7M286.7 817.7c-3 .8-.8 2.3 3.3 2.3s6.1-1.4 3.4-2.4c-1.7-.7-3.9-.6-6.7.1M218 824.9c0 3.8.5 7.3 1 7.6.6.4 1-2 1-6.4 0-3.8-.4-7.3-1-7.6-.6-.4-1 2-1 6.4M445 839v11h39v15.9l-58.6.1c-32.3 0-59 .3-59.5.6-.9.5-.2 205.8.7 210.1.4 2.3.4 2.3 136.2 2.3 77.3 0 136.3-.4 137.1-.9 1.2-.8 1.3-16.4.7-106.2-.4-58-1-105.6-1.3-105.9-.2-.3-34.9-.5-76.9-.5H486V850l19.8-.2 19.7-.3.3-10.8.3-10.7H445zm79 0v9h-77v-18h77zm114 28.5s.3 47.1.7 104.6l.6 104.6-135.6.2-135.7.2v-57.3c0-31.5-.3-78.6-.7-104.5l-.6-47.3 63.4-.2c34.9-.2 95.9-.3 135.6-.3z"/><path d="M450.6 834.2c-1.1 4.2-.8 4.8 2.4 4.1 2.7-.5 3-.3 3 2.1 0 2.8-2.6 3.6-4.8 1.4-.9-.9-1.2-.8-1.2.4 0 3.2 7.1 3.5 8.3.4 1.1-2.8-.5-5.7-3.4-6.3-3.4-.6-2.9-2.3.7-2.3 1.3 0 2.4-.5 2.4-1 0-.6-1.5-1-3.4-1-2.6 0-3.5.5-4 2.2M462.8 833.4c-2.2 1.6-2.3 2.6-.3 2.6 1.1 0 1.5 1.1 1.5 4 0 2.2.5 4 1 4 .6 0 1-2.7 1-6 0-6.3-.4-6.8-3.2-4.6M476.6 834.2c-1.1 4.2-.8 4.8 2.4 4.1 2.7-.5 3-.3 3 2.1 0 2.7-1.8 3.4-3.8 1.4-.6-.6-1.5-.8-1.9-.5-.4.4 0 1.5.9 2.4 2.1 2 6.4 1 7.3-1.7.8-2.6-1.1-6-3.5-6-1.1 0-2-.5-2-1 0-.6 1.1-1 2.5-1s2.5-.5 2.5-1c0-.6-1.5-1-3.4-1-2.6 0-3.5.5-4 2.2M487.5 833c-.4.6-.8 2.8-1 5-.6 5.9 3.3 9 6.9 5.5 1.3-1.4 1.4-5.9 0-10.3-.4-1.4-5-1.6-5.9-.2m4.5 2.6c0 .8-.7 1.4-1.5 1.4-1.5 0-2.1-2.1-.9-3.3 1-.9 2.4.2 2.4 1.9m.8 5.1c.5 1.7-2.6 2.9-4 1.5-.6-.6-.7-1.5-.3-2.2.9-1.4 3.7-.9 4.3.7M497 833.9c-2.7 5.1.5 12 4.9 10.6 2.5-.8 3.8-6.6 2.2-10.1-1.3-3-5.6-3.3-7.1-.5m5.4 1.3c1.3 5 0 8.3-2.7 7.2-3-1.1-1.7-9.4 1.4-9.4.4 0 .9 1 1.3 2.2M470.3 839.2c.2.7 1 1.3 1.7 1.3s1.5-.6 1.8-1.3c.2-.7-.5-1.2-1.8-1.2s-2 .5-1.7 1.2M386.1 876.4c-1.8 2.1-2.5 8.1-1.2 10.4 1.5 2.7 7.1 5.6 8.5 4.2s3.7-1.2 6 .5c1.8 1.4 1.7 1.7-2.3 6.8-2.2 3-4.1 5.7-4.1 6.1 0 1.2 2.2 2.9 6.5 5.3 3.3 1.8 4.1 2.8 4.3 5.7.2 2.6 1.1 4.1 3.2 5.6 2.9 2.1 2.9 2.1 3.2 15.6.4 17.1 2.1 17.9 2.8 1.2.4-8.8.8-11.4 1.4-9.3 1.6 6.2 5 8.5 12.6 8.5 4.5 0 5.6-.4 8.5-3.3 1.9-1.9 3.8-5.2 4.5-7.7 1-3.8.9-4.6-.9-7.1-1.2-1.6-2.1-3.3-2.1-3.8s-1.2-1.9-2.7-3.1c-2.2-1.7-3.7-2.1-6.9-1.6-3.3.4-4.8 0-7.8-2-2.9-2-4-2.3-5.1-1.4-.9.8-2.2.9-3.2.4-1-.4-3.7-.8-6-.9-7.6-.2-8.5-2.8-2.9-8.7 3.8-4 3.4-6.4-1.9-9.6-3.8-2.3-4.5-3.2-4.5-5.9 0-2.5-.7-3.6-3.4-5.2-3.9-2.5-5-2.6-6.5-.7m4.6 1.3c-.4.3-1 .3-1.4 0-.3-.4 0-.7.7-.7s1 .3.7.7m-.7 7.4c0 2.4-.4 3-1.7 2.7-1.3-.2-1.9-1.4-2.1-4.1-.3-3.6-.2-3.8 1.7-2.7 1.4.7 2.1 2.1 2.1 4.1m3.6-.3c-1.5 1.5-1.6 1.4-1.6-.9 0-1.4.3-2.9.7-3.3.4-.3 1.1.1 1.6 1 .6 1.1.4 2.1-.7 3.2m-.9 4.4c-.3.8-.6.5-.6-.6-.1-1.1.2-1.7.5-1.3.3.3.4 1.2.1 1.9M404 893c0 .4-1.8 2.9-3.9 5.5-4.4 5.3-4.4 6.7 0 8.5 1.6.7 2.9 1.7 2.9 2.2s-1.8-.1-4-1.3c-2.2-1.3-4-2.9-4-3.7s1.6-3.2 3.6-5.4c2.8-3.2 3.4-4.5 2.9-6.6-.5-2.2-.4-2.4.9-1.3.9.8 1.6 1.7 1.6 2.1m8 16.5c1.7 2-.9 2.1-3.6 0-1.9-1.4-1.9-1.4.2-1.5 1.2 0 2.7.7 3.4 1.5m-3.5 1.7c1.8.8 2.4 1.6 1.9 2.7-.4.9-.9 2.6-1.1 3.8-.5 2.3-1.8 3-2.7 1.5-.8-1.4-1.9-9.2-1.3-9.2.3 0 1.8.5 3.2 1.2m10.9.3c2.5 1.9.9 1.9-2.4 0-1.4-.8-1.9-1.4-1-1.4.8 0 2.4.6 3.4 1.4m4.7 3.7c-2.4 2.3-4.6 5.9-5.3 8.2-.7 2.6-1.3 3.4-1.5 2.4-.7-2.8 3.9-10.9 7.2-13 4.2-2.5 4.2-2.3-.4 2.4m-5.7-1.1c.9.8-1.9 8.5-3.5 9.5-1.9 1.1-3.9-1-3.9-4.2 0-6.3 3.6-8.9 7.4-5.3m16-.3c.3.5-1.1.8-2.9.8-1.9-.1-3.5-.4-3.5-.9 0-1 5.8-.9 6.4.1m-1.4 3c0 .5-1.2 1.9-2.6 3.3-3.3 3.1-5.4 7.1-5.4 10.4 0 2.8-1.5 3.4-2.4.9-1.5-3.9-.6-8.4 2.5-11.9 2.8-3.2 7.9-4.9 7.9-2.7m5 2.7c1 1.2.7 1.4-1.9 1.2-3.4-.2-4.1-1.3-1.3-2 .9-.3 1.8-.5 1.8-.6.1 0 .7.6 1.4 1.4m-7 6.6c-.7 1.1-1.4 1.8-1.7 1.5s0-1.2.7-2.1c1.8-2.1 2.3-1.9 1 .6m5 .2c0 2.2-3.1 5.7-5.1 5.7-2.4 0-2.4-.4.3-4 2.2-3.1 4.8-4 4.8-1.7m-12 8.8c0 1.4-1.1 1.1-3.2-.8-2.7-2.4-2.2-3.6.7-1.7 1.4.9 2.5 2 2.5 2.5m7.8-1c1.3 0 1.3.2-.3.8-2.3.9-4.5.4-4.5-1.1 0-.6.7-.7 1.6-.4s2.3.6 3.2.7M503 880.9c-1.4 2.7-1.3 9.6.3 10.9.9.8 1.2-.5 1.2-5.9 0-3.8-.1-6.9-.2-6.9s-.7.9-1.3 1.9M507.7 879.6c-1.1 1.1-.8 10.4.2 10.4.6 0 1.1-1.5 1.3-3.3l.4-3.2 1.9 3.2c2.9 4.8 4.5 4.2 4.5-1.7 0-2.8-.4-5-1-5-.5 0-1 1.1-1 2.5s-.4 2.5-1 2.5c-.5 0-1-.3-1-.8-.1-1.4-3.6-5.3-4.3-4.6M520.9 879.7c-.9.2-2.1 1.6-2.8 3-.9 2.1-.9 3 .4 5 2.2 3.3 4.1 3.8 7 1.9 3.1-2 3.3-5.8.5-8.6-2-2-2.3-2.1-5.1-1.3m3.9 5.1c.3 2.8 0 3.2-2.2 3.2s-2.6-.5-2.6-2.9c0-5.1 4.3-5.3 4.8-.3M533.7 881.4c-.7 1.8.8 3.1 1.8 1.6.3-.5 1-1 1.6-1 1.7 0 .9 2.1-1.8 4.4-3.1 2.7-2.4 4.6 1.8 4.6 3.1 0 4.3-3 1.2-3-1.7-.1-1.7-.2 0-1.5 2.8-2 1.9-5.9-1.4-6.3-1.7-.2-2.9.3-3.2 1.2M542.2 884.7c.1 2.7-.1 5.8-.6 7-1.1 3.4 1.2 2.9 2.5-.5 1.1-3 .3-11.2-1.1-11.2-.5 0-.8 2.1-.8 4.7M529.5 888.9c-.6 1.1.9 2.3 1.9 1.4.9-.9.7-2.3-.3-2.3-.6 0-1.2.4-1.6.9M497.3 897.8l-13.3.3v21l35.3-.2c19.3-.1 37.3-.4 40-.6l4.7-.5v-20.9l-26.7.3c-14.8.2-32.8.4-40 .6M562 908v9h-75.7l-.6-8.2c-.3-4.5-.3-8.6-.1-9 .3-.5 17.6-.8 38.5-.8H562z"/><path d="M516.2 902.6c-2.9 2-3 7.6-.1 10.5 2.4 2.4 4 2.1 5.6-1.2 1.3-2.5.8-7.4-.9-9.7-1.3-1.6-1.9-1.5-4.6.4m3.8 5.3c0 4.4-.8 5.5-2.7 4-1.7-1.4-1.7-7.6 0-8.2 2-.7 2.7.3 2.7 4.2M524.7 901.6c-1.5 1.5-.6 2.4 2.2 2.4 2.9 0 2.9 0 1 4-2 4.2-2.4 6-1.1 6 .4 0 1.4-1.7 2.1-3.8.8-2 2-4.5 2.9-5.5.8-.9 1.3-1.9 1.1-2.1-.9-.9-7.5-1.7-8.2-1M535.7 902.8c-2.3 2.5-2.1 7.8.3 10.2 1.7 1.7 2.3 1.8 4 .8 2.5-1.6 3.5-4.8 2.5-8.5-1.1-4.5-4.1-5.6-6.8-2.5m4.9 2.6c.9 3.7.1 6.1-2.1 6.1-1.5 0-2.1-.8-2.3-2.8-.2-1.6-.1-3.5.2-4.3.9-2.3 3.5-1.6 4.2 1M544.8 902.7c-.2.9-.1 3.6.1 6 .3 4.5 1.7 5.8 2.3 2.1.4-3.1 2.2-3.3 3.8-.4 1.3 2.5 4 4.3 4 2.7 0-.4-1.1-2.1-2.5-3.7-2.4-2.8-2.4-2.8.2-5.6 2-2.1 2.3-2.8 1.1-2.8-.9 0-2.5 1.1-3.6 2.5-2.3 3-4.2 3.3-3.5.6.3-1 0-2.2-.5-2.5-.6-.3-1.2.1-1.4 1.1M488.6 903.6c-.3.9-.6 2.4-.6 3.5 0 1.5.5 1.7 3 1.2 2.7-.5 3-.3 3 2.1 0 1.9-.5 2.6-1.9 2.6-1.1 0-2.1-.6-2.4-1.3-.2-.6-.8-.9-1.2-.5-1.1 1 1.4 3.8 3.4 3.8 2.3 0 4.1-2 4.1-4.5 0-2.6-1.8-4.5-4.2-4.5-1 0-1.8-.5-1.8-1 0-.6 1.4-1 3-1 1.7 0 3-.5 3-1 0-1.7-6.7-1.2-7.4.6M500.6 903.5c-1.7 1.3-1.7 1.5-.3 2.1 1.2.4 1.7 1.8 1.7 4.5 0 2.1.5 3.9 1 3.9.6 0 1-2.7 1-6 0-6.3-.4-6.8-3.4-4.5M508 909c0 .5.9 1 2 1s2-.5 2-1c0-.6-.9-1-2-1s-2 .4-2 1M465 910.6c-.6 1.4-1 4-1 5.7 0 3.4-1.7 15.3-2.5 17.6-.4.9-.9 1-1.8.3-8.7-7.1-18.7-6.6-18.7.9 0 3.4 1.5 5.1 8.2 8.8 3.2 1.8 7 4.7 8.5 6.5 1.6 1.9 4.3 4.1 6.2 5.1 3.2 1.6 3.5 1.6 6.8-.2 4.3-2.2 6.6-6.4 5.8-10.3-.8-3.6-5.1-8-7.9-8-4.7 0-4.9-.8-3.4-14.1 1.5-13.8.3-12.5 12.6-12.8 6.5-.2 2-2.1-4.9-2.1-6.5 0-7 .2-7.9 2.6m-12.7 21c1.8.9 3.4 1.8 3.6 2 .1.1-.6 1.3-1.8 2.5-1.2 1.3-2.1 3.1-2.1 4 0 1-.4 2-1 2.4-1.4.9-5.1-1.8-4.5-3.3.3-.8-.3-1.6-1.5-1.9-2.4-.6-2.5-2.1-.4-5.1 1.8-2.6 3.4-2.7 7.7-.6m12.4 5.9c1.9.8 4.4 1.5 5.4 1.5 3.6 0 6.1 6.7 4.3 11.5-.7 1.8-5.5 4.5-7.9 4.5-2.2 0-13.5-10.9-13.5-12.9 0-2.9 3-6.1 5.6-6.1 1.4 0 4.1.7 6.1 1.5"/><path d="M458 938.6c-.9.3-2.1 1.4-2.8 2.5-1.1 1.6-1 2 .5 2.6 1 .3 2.7 1.4 3.9 2.5 2 1.8 2.1 1.8 5-.7 1.6-1.4 3.4-2.5 3.9-2.5 2.1 0-2.1-2-4.3-2-1.2 0-2.5-.7-2.8-1.5-.6-1.5-.8-1.6-3.4-.9m6 4.4c0 .5-.7 1-1.5 1s-1.8 0-2.2.1c-.4 0-.9-.4-1.1-1s.8-1.1 2.2-1.1 2.6.4 2.6 1M581 915c0 .5.7 1.3 1.6 1.8 1.2.7.8 1.4-2.5 3.5-2.2 1.5-4.3 2.7-4.6 2.7-.2 0-3.4 1.8-7 4s-6.7 4-6.9 4-3.4-1.8-7-4c-4-2.4-7.8-4-9.7-4-2.9 0-20 9.3-36.1 19.6-4.4 2.8-6 3-9.3.8-2.3-1.5-2.7-1.4-7.7 1.2-11 5.8-13.5 8-14.2 12.3-.6 3.6-1.1 4.2-8.8 8.8-13.7 8-14.2 8.3-17.4 9.9-4.8 2.5-6.8 6.8-7.4 15.9-.5 7.6-.6 8.1-3.4 9.3-2.2 1.1-3.4 1.2-5.4.3-2.1-1-2.8-.9-4.4.8-3.1 3.4-3.8 6.8-3.8 19 0 12.7.2 13.2 6.8 16.8 1.2.7 3 1.8 4 2.4 1.5.9 3.4.3 10.7-3.9 8.3-4.7 8.9-4.9 10.6-3.3 1.8 1.6 4.2 3 15.1 8.8 5.2 2.7 4.1 3.1 18.8-5.7 6.8-4 11-6.5 17.5-10 2.8-1.5 9.5-5.4 15-8.7s12.7-7.4 16-9.2 6.5-3.6 7-4.1c.6-.4 4.4-2.5 8.5-4.8 4.1-2.2 10.4-5.7 14-7.6 3.6-2 7.9-4.4 9.7-5.3 4.5-2.3 5.3-5 5.3-17.6 0-11.2 0-11.2 3.6-13.5 4.7-3 5.4-5.5 5.4-18.1 0-15.7-.3-16.5-6.6-20.1-5.6-3.1-7.4-3.6-7.4-2m7.8 3.9c1.4.9.2 1.8-10.3 7.6-8.7 4.9-10 5.5-11.2 5.5-2.7 0-1.1-2 3.5-4.6 2.6-1.5 7.2-4.2 10.2-6 6.2-3.7 6-3.7 7.8-2.5m4.4 14.8c.3 13.9-.6 18.4-4.2 20.3-3.4 1.8-3.4.5 0-2.8 2.6-2.7 3-3.8 3-8.5 0-3.9-.5-6.1-1.9-7.8-2-2.4-2-2.4-7.4.4s-5.5 2.8-9.1 1.1c-5.2-2.6-5-3 4.4-8.1 3-1.6 7.1-4 9-5.1 1.9-1.2 4-2.2 4.7-2.2.8 0 1.3 3.7 1.5 12.7m-39.4-5.6c2.9 1.8 5.2 3.5 5.2 3.8 0 .6-17 11-30.5 18.6-21.7 12.2-28.8 16.4-36.8 21.2-4.9 2.9-9.1 5.3-9.4 5.3-.2 0-5.4 3-11.3 6.6l-10.9 6.5-6.1-3.5c-3.3-1.9-6-3.2-6-2.7 0 .4 2.3 2 5 3.5 2.8 1.5 4.8 3.1 4.5 3.6-.6 1-9.4 6-10.6 6s-1.1-11.1.1-14.6c1-2.9 1.9-3.7 8.4-7.4 7.8-4.4 20.7-12 27-15.8 3.7-2.3 7-4.2 7.2-4.2s5.2-2.9 11.1-6.4c42.7-25.1 42.2-24.8 45.4-24.2 1.4.3 4.9 1.9 7.7 3.7m19.3 9.5c8.9 5.3 9 4.6-1.5 10.3-3.2 1.7-7.8 4.5-10.1 6.1-2.4 1.7-4.6 3-4.9 3-.4 0-3.6 1.8-7.2 4s-6.8 4-7 4-3.7 2-7.7 4.4c-13.3 8-30.3 17.7-41.9 23.9-3.7 2-8.6 4.8-10.8 6.2s-4.5 2.5-5.2 2.5-3.9-1.6-7.1-3.5c-6.2-3.8-6.7-3.9-6.7-2.7 0 .5 2.9 2.4 6.5 4.3l6.5 3.4v18.8c0 10.4-.3 18.7-.8 18.5-.4-.2-4-2.1-7.9-4.3-7-3.9-7.3-4.1-7.3-7.8 0-2 .5-3.7 1-3.7.6 0 1-3.5 1-8.4 0-4.7-.4-8.8-1-9.1-.5-.3-1-3.4-1-6.9 0-4.7.4-6.7 1.8-7.9 1.5-1.3 6-4 22.7-13.7 1.7-.9 5.5-3.2 8.5-5 5.5-3.3 14.6-8.5 25-14.3 3-1.6 7.4-4.3 9.7-5.9 2.3-1.5 4.4-2.8 4.6-2.8.3 0 3.6-1.9 7.3-4.2 3.8-2.3 9.4-5.5 12.4-7.1 3-1.7 6.6-3.8 8-4.8s3.1-1.9 3.9-1.9 4.9 2.1 9.2 4.6m12.9-2.2c0 .3-.5.8-1.2 1.2s-.8.3-.4-.4c.7-1.2 1.6-1.6 1.6-.8m4 7c0 4.5-.5 6.7-1.5 7.6-2.4 2-3.1.3-1.2-2.9 2.4-4 2.2-7.2-.4-7.8-2.1-.6-2.1-.7-.4-2 3.1-2.2 3.5-1.6 3.5 5.1m-7.5-4.4c-.3.5-1.2 1-1.8 1-.7 0-.6-.4.3-1 1.9-1.2 2.3-1.2 1.5 0m2.5 3.5c0 .3-.2.5-.5.5s-.5-.2-.5-.5.2-.5.5-.5.5.2.5.5m3 .8c0 .7-.7 2.2-1.6 3.3-1.4 1.7-1.5 1.7-1 .1.3-1 .6-2.5.6-3.3s.5-1.4 1-1.4c.6 0 1 .6 1 1.3m-88.6 3c1.7 1.2 1.2 1.8-5.9 6-6.7 4-8 4.4-10.1 3.5-1.4-.6-2.3-1.5-2.2-1.9.5-1.3 13.1-8.8 14.9-8.9.8 0 2.3.6 3.3 1.3m84.6 17.4c0 15.9-.2 18.9-1.7 20.5-.9 1-2 1.8-2.4 1.8-.5 0-3 1.3-5.6 3-5.9 3.7-7.2 3.8-3.8.2 3.7-3.8 7-10.7 8.5-17.3 1.1-5 1-6.2-.5-10.3-1.9-4.8-3.8-6.5-9-7.6-2.9-.6-2.7-.7 4.5-4.7 4.1-2.3 8.1-4.2 8.8-4.3.9 0 1.2 4.4 1.2 18.7m-101.7-7c.8.7-1.1 3.3-2.4 3.3-.5 0-.9-.9-.9-2 0-1.9 2-2.7 3.3-1.3m90.6 2.4c1.3 3.7 1.3 9.5.1 12.4-.8 1.8-.9 1.6-.9-.8-.1-1.9-1.2-3.9-3.2-5.8-4.9-4.5-7.8-4-22.1 4.2-17.2 9.9-17.6 10.2-25.9 15.1-4.1 2.5-10.5 6.2-14.4 8.3-3.8 2.1-8.5 4.9-10.2 6.2-1.8 1.3-3.3 2-3.3 1.5 0-1.5 6.3-6.7 11.7-9.8 11.2-6.3 18.6-10.6 31.6-18.3 7.5-4.4 13.9-8.1 14.1-8.1s3.3-1.8 6.7-3.9c4.7-2.9 7.5-4 10.6-4 3.7-.1 4.2.2 5.2 3m4.8 10.7c-.7 6.8-4.7 14.8-10 20-2.3 2.2-11.4 8.2-20.2 13.3-20.4 11.7-19.5 11.1-36.2 20.8-10.4 6.1-14.9 8.2-17 7.9-2.8-.3-2.8-.3 1.2-2.2 2.2-1.1 5.1-2.7 6.5-3.6 1.4-1 5.7-3.4 9.5-5.4 3.9-2.1 9.9-5.5 13.5-7.7 3.6-2.1 12.8-7.3 20.5-11.6 15.4-8.6 22.7-14.8 26.3-22.5 2.9-6.3 4.4-13.2 3.7-17.6l-.5-3.7 1.6 3.5c1.1 2.5 1.5 5.1 1.1 8.8m-15.7-5.4c0 .2-3 2.1-6.7 4.2-3.8 2.1-8.1 4.5-9.8 5.4-1.6.9-7 4.1-12 7-21.4 12.6-25.6 15-26 15-1.7 0-10.2 6.6-12.5 9.7-2.5 3.4-4.7 9.5-4.2 11.5.1.5-.3.8-.8.8-1.3 0-1.3-6.1 0-9.4 1-2.7 7.7-10.6 9-10.6.9 0 23.3-12.6 40-22.5 18.8-11.2 19.4-11.5 21.3-11.5.9 0 1.7.2 1.7.4m6.1 1.6c1.4.8 1.9 2.1 1.9 5.6 0 5-1.6 8.8-5.2 12.1-2.4 2.2-14 9-17 10-1 .3-1.8.9-1.8 1.4s-.4.9-.9.9-6.5 3.2-13.3 7.2c-6.7 3.9-15.2 8.8-18.8 10.8s-8.1 4.6-10 5.8-4.7 2.2-6.1 2.2c-8.8 0-4.7-15.7 5.5-21.4 2.3-1.3 8.8-5 14.6-8.3 5.8-3.4 12.1-7 14-8.1s7.6-4.3 12.5-7.2c13-7.6 20.9-11.9 21.8-12 .5 0 1.7.5 2.8 1m-6.1 23.4c-1.4 1.3-5 3.7-8 5.3-13.4 7.3-17.7 9.7-20 11.3-1.4.9-5 3.1-8 4.7-3 1.7-10.9 6.1-17.5 9.9-18.6 10.7-20.8 11.4-22.6 6.6-1.2-3-.5-15 1-16.5.5-.5.7.2.4 1.7-.9 4.6.5 7.2 5.1 9.7 5.4 2.8 2.9 3.9 35.6-15.1 6.9-4 15-8.6 18-10.3s8-4.5 11-6.3c6.5-3.9 8.4-4.3 5-1m-103.4 6.3c-.3 1-1.6 2.3-2.8 2.9-7.6 3.6-12.8 7-16 10.6-3.8 4.1-3.8 4.1-3.8 16.4 0 6.8-.4 12.4-.9 12.4-.4 0-2-.9-3.5-2.1-2.6-2-2.6-2.2-2.6-15 0-15.7 1-18.2 6.9-17.3 3.7.6 9.8-2.1 19-8.2 3.8-2.6 4.6-2.5 3.7.3m33.5 2.8c-6.8 7.8-10.4 20.5-7.9 28 1 3.2 2.2 4.4 5.7 6.1l4.4 2.1-6 3.6c-11.2 6.5-10.3 7.8-10.3-14.5 0-19.4 0-19.4 3.3-21.3 3.9-2.4 13.1-7.4 13.6-7.5.1 0-1.1 1.6-2.8 3.5m-34.1 4.9c0 4.4 0 4.4-6.7 8.3-6.8 3.9-6.8 3.9-7.1 11.6-.3 7.4-.2 7.8 2.2 8.9 2.2.9 3.1.7 6.6-1.6 4.6-3 5-3.1 5-1.1 0 .8-.4 1.5-.8 1.5s-4.1 2-8.2 4.5c-11.3 6.8-11 7-11-9.3 0-13.8 0-13.8 3-16.7 2.3-2.2 14.9-10 16.8-10.4.1-.1.2 1.9.2 4.3m34-.9c0 .3-.2.5-.5.5s-.5-.2-.5-.5.2-.5.5-.5.5.2.5.5m-33 6.9c0 .2-1.6 1.3-3.5 2.5-1.9 1.1-3.5 1.8-3.5 1.6 0-.5 6.1-4.5 6.8-4.5.1 0 .2.2.2.4m1 8.6c0 7 0 7-5.2 10-2.9 1.6-5.6 3-6 3-.5 0-.8-1.7-.8-3.7 0-3.3.1-3.5 1.3-1.9s1.7 1.7 3.8.6c3.4-1.8 4.8-4 4.9-7.3 0-2.1-.6-3-2.1-3.4-1.9-.5-1.9-.7.8-2.4 1.5-1.1 2.9-1.9 3.1-1.9.1 0 .2 3.1.2 7m-9-3.5c0 .3-.2.5-.5.5s-.5-.2-.5-.5.2-.5.5-.5.5.2.5.5m-3 2c-.7.9-1.5 1.3-1.9 1-.3-.3.1-1 .9-1.5 2.1-1.4 2.4-1.2 1 .5m1.6 3.2c-1.3 2.4-1.5 2.5-1.6.7 0-1.1.5-2.5 1.2-3.2 1.9-1.9 2.1-.6.4 2.5m4.4-.9c0 1.1-2.2 3.2-3.2 3.2-.5 0-.4-.9.2-2 1.1-2 3-2.8 3-1.2m2 1c0 2.3-2.6 5.9-3.6 5-.4-.5 0-1.6.9-2.6 1-1 1.7-2.4 1.7-3 0-.7.2-1.2.5-1.2s.5.8.5 1.8"/><path d="M554.3 945.2c-4.5 2.2-1.2 5 3.4 2.9 2.1-.9 2.3-1.4 1.3-2.6-1.4-1.7-1.7-1.7-4.7-.3m2.2 1.8c-.3.5-1.1 1-1.6 1-.6 0-.7-.5-.4-1 .3-.6 1.1-1 1.6-1 .6 0 .7.4.4 1M484 985c-1.3.8-1.3 1.1.2 2.6 1.6 1.6 1.8 1.6 4.3 0 1.4-.9 2.3-2.1 2-2.6-.8-1.3-4.6-1.3-6.5 0m4 1c0 .5-.4 1-1 1-.5 0-1-.5-1-1 0-.6.5-1 1-1 .6 0 1 .4 1 1M372.2 953.8c-.9.6-1.2 3.5-1 10.8l.3 9.9h80v-21l-39-.2c-21.4-.2-39.6.1-40.3.5M450 964v9h-77v-18h77z"/><path d="M377 958.9c-.5 1.1-1 2.9-1 4 0 1.7.5 2 2.9 1.5 3.5-.7 5 1.1 2.7 3.4-1.3 1.4-2 1.4-3.6.4-2.3-1.4-2.7 0-.5 1.8 1.7 1.5 5.2.5 6.5-1.9 1.2-2.3-1.3-6.1-4.1-6.1-2.7 0-1.9-2.4.9-2.8 3-.5 2.8-2.2-.3-2.2-1.4 0-2.9.8-3.5 1.9M403.7 957.7c-.3.5-.7 2.1-.8 3.8-.4 2.7-.2 3 2.3 2.7 3.3-.4 4.6 1.5 2.4 3.6-1.2 1.3-1.8 1.3-2.8.4-1.4-1.4-2.8-1.6-2.8-.2 0 .5.9 1.4 2.1 2 2.6 1.4 6.9-1.1 6.9-4 0-2-3.8-5.3-5.2-4.4-.4.3-.8-.2-.8-1 0-1 .9-1.6 2.6-1.6 1.4 0 2.3-.4 1.9-1-.7-1.2-5.2-1.4-5.8-.3M414.4 957.8c-.7.4-1.4 2.9-1.5 5.6-.3 4-.1 5.1 1.7 6.2 1.9 1.3 2.4 1.2 4.4-.4 1.7-1.4 2.1-2.4 1.5-3.8-.4-1-.7-2.3-.6-2.8.9-4-2.4-6.8-5.5-4.8m3.6 2.7c0 .8-.7 1.5-1.5 1.5s-1.5-.7-1.5-1.5.7-1.5 1.5-1.5 1.5.7 1.5 1.5m1 6c0 1.5-2.7 2.8-4.1 1.9-1.3-.8-1.1-3.2.4-3.7 1.8-.6 3.7.3 3.7 1.8M388.6 959.3c-1.7 1.2-1.7 1.4-.2 2 1.1.4 1.6 1.9 1.6 4.7 0 2.2.5 4 1 4 .6 0 1-2.7 1-6 0-6.3-.4-6.9-3.4-4.7M424.6 961.3c-3.3 4.3-3.3 5.7-.1 5.7 1.6 0 2.5.6 2.5 1.5 0 .8.5 1.5 1 1.5.6 0 1-.7 1-1.5s.5-1.5 1.2-1.5c.9 0 .9-.3 0-1.2-.7-.7-1.2-2.7-1.2-4.5 0-4.2-1.2-4.2-4.4 0m2 3.4c-1 1-1.9-.5-1-1.8.6-1.1.8-1.1 1.2 0 .2.7.1 1.5-.2 1.8M396.5 965c-.3.5.3 1 1.4 1 1.2 0 2.1-.5 2.1-1 0-.6-.6-1-1.4-1s-1.8.4-2.1 1M598 986.2c-6.9 3.9-14.5 8.2-17 9.6-2.5 1.3-5.8 3.2-7.5 4.2-1.6 1-5 2.9-7.5 4.2-2.5 1.4-6.3 3.6-8.5 4.8-2.2 1.3-5.8 3.3-7.9 4.4-10.2 5.5-17.6 15.3-20.7 27.4-1.2 4.7-1.1 5.9.4 10 1.7 4.7 1.7 4.7-.9 6.9-2.1 1.9-3.7 2.3-9.4 2.3-3.8 0-7.2.4-7.5 1-.4.6 2.2 1 7 1 6.7 0 8.1-.3 11.1-2.7 3.5-2.6 3.5-2.6 7.3-.5 2.1 1.2 4.9 2.2 6.1 2.2 2 0 12.6-4.8 15.5-7 1-.7 9.5-5.5 18-10 2.8-1.5 9.5-5.4 15-8.7 5.5-3.2 12.7-7.4 16-9.3 10.3-5.7 16.2-12.4 19.7-22.5 3.6-10.1 1.5-18-6-22.1-6.6-3.7-9.2-3.1-23.2 4.8m14.3-2.7c-2.8 1.3-8.5 4.4-12.7 6.9s-7.8 4.6-8.2 4.6c-.3 0-1.8.8-3.2 1.8-1.5 1.1-5.6 3.5-9.2 5.4-19.1 10.5-30.8 17.6-35.1 21.5-2.1 2-5.3 6.5-7.1 10.1-2.7 5.5-3.2 7.6-3.3 13.9 0 7.2 0 7.3-1.7 5.2-4.4-5.3-1-19.7 6.7-28.7 3.1-3.5 13.3-11.2 15-11.2.2 0 2.8-1.4 5.7-3.2 2.9-1.7 8.2-4.7 11.8-6.6s10.8-6 16-9 12-6.8 15-8.5c3-1.6 5.9-3.4 6.5-3.8.5-.5 2.7-.9 5-.8 4 0 4 0-1.2 2.4m11.6 1.4c3.4 3.4 4.3 8.9 2.6 15.5-1.9 7.3-3.4 10.1-8.3 15.6-3.4 3.9-12.7 10.2-24.2 16.4-3.5 1.8-6.1 3.3-19.5 10.9-3.8 2.2-9.9 5.6-13.5 7.7-3.6 2-8.1 4.6-10 5.8-3.9 2.4-10.5 2.9-13.2.9-3-2.3-4-8.8-2.4-15.6 2.5-10.7 8.5-18.2 19.6-24.3 2.5-1.4 7-4 10-5.8s8-4.6 11-6.3 6.7-3.8 8.2-4.9c1.4-1 2.9-1.8 3.2-1.8.4 0 3.9-2 7.9-4.4 11.6-7 21-11.6 24-11.6 1.5 0 3.6.9 4.6 1.9"/><path d="M606.5 995.1c-3.8 2.3-8.9 5.2-11.2 6.5-2.4 1.3-6.2 3.5-8.5 4.8-2.4 1.3-9.9 5.6-16.8 9.6s-14.2 8.2-16.4 9.4c-6.1 3.3-11 8.8-12.4 14-1.6 6.1-1.5 6.9.8 9.4 2.8 3 5.8 2.8 12.3-1.1 5.3-3.1 8.2-4.7 22.7-12.8 11.4-6.4 31.4-18 35.5-20.8 5-3.3 9.9-12.2 9-16.5-.7-3.8-3.2-6.6-5.9-6.6-1.2 0-5.2 1.9-9.1 4.1m8.5.9c0 4.1-2.3 9.4-5.4 12.5-1.4 1.4-2.7 2.5-3 2.5s-2.9 1.4-5.8 3.2c-2.9 1.7-8.4 4.9-12.3 7.1-3.8 2.2-9.9 5.6-13.5 7.7-3.6 2-8.7 4.9-11.5 6.5-2.7 1.5-8.4 4.7-12.6 7.1s-7.9 4.4-8.2 4.4c-1 0-.8-4 .3-8 1.4-4.9 6-9.6 13.5-13.6 6.2-3.3 24.4-13.7 30.5-17.4 8.1-4.9 26.4-15 27.3-15 .4 0 .7 1.4.7 3m4.7 3.8c-.8 7.6-4.6 11.6-19.2 20-7.1 4.1-14.6 8.4-16.5 9.5s-5.5 3.1-8 4.5c-2.5 1.3-5.8 3.2-7.5 4.2-1.6 1-5 2.9-7.5 4.3-2.5 1.3-6.6 3.7-9.3 5.2s-5.4 2.4-6.4 2.1c-2.4-.9-1.6-1.5 16.2-11.4 22.7-12.6 25-13.9 34.5-19.5 15-8.8 15.6-9.3 18.4-14.8 1.4-2.9 2.6-6.6 2.6-8.2 0-2.6.2-2.8 1.6-1.6 1.2 1 1.5 2.5 1.1 5.7M411.6 1000.2c-.8 1.2-1.2 2.6-.9 3.1.3.6 1 .1 1.4-1.1.5-1.4 1.7-2.2 3.1-2.2 1.9 0 2-.2.8-1-2.2-1.4-2.7-1.3-4.4 1.2M421.4 1003.5c1.1.8 2.5 1.5 3 1.5.6 0 .2-.7-.8-1.5-1.1-.8-2.5-1.5-3-1.5-.6 0-.2.7.8 1.5M410 1014.5c0 1.9.5 3.5 1 3.5.6 0 1-1.6 1-3.5s-.4-3.5-1-3.5c-.5 0-1 1.6-1 3.5M410 1028.9c0 2.2.5 4.3 1 4.6.6.4 1-1.2 1-3.9 0-2.5-.4-4.6-1-4.6-.5 0-1 1.8-1 3.9M410 1044.4c0 1.9.5 3.8 1 4.1.6.4 1-1 1-3.4 0-2.3-.4-4.1-1-4.1-.5 0-1 1.5-1 3.4M444.5 1051l-16 .5-.1 9.2c0 5 .2 9.7.6 10.3.4.7 12.9.9 40.1.8l39.4-.3v-21h-24c-13.2 0-31.2.2-40 .5m62.5 10v9h-77v-8.3c0-4.6.3-8.7.6-9 .4-.3 17.7-.7 38.5-.7H507z"/><path d="M471.6 1055.3c-1.8 1.3-2.8 6.7-1.9 9.9.3 1.2 1.4 1.8 3.2 1.8 3.4 0 5.6-2.3 4.6-4.7-.5-1-.7-2.8-.6-4 .3-2.9-3-4.7-5.3-3m3.2 2.5c.2.7-.3 1.2-1.2 1.2s-1.6-.7-1.6-1.6c0-1.7 2.2-1.4 2.8.4m0 4.4c1.9 1.9 1.4 2.8-1.3 2.8-2.4 0-3.4-1.8-1.8-3.3.9-1 1.7-.9 3.1.5M433.6 1056.6c-.3.9-.6 2.4-.6 3.5 0 1.5.5 1.7 3 1.2 2.6-.5 3-.2 3 1.5 0 2.7-1.5 3.5-4 2.2-1.6-.9-2-.8-2 .5 0 .8.4 1.5.9 1.5s1.6.3 2.4.6c.9.3 2.5-.4 3.6-1.5 1.8-1.8 1.9-2.5.9-4.6-.7-1.6-1.9-2.5-3.5-2.5-1.2 0-2.3-.5-2.3-1 0-.6 1.1-1 2.4-1 1.4 0 2.8-.5 3.1-1 .4-.6-.8-1-2.8-1-2.3 0-3.7.6-4.1 1.6M445.8 1056.4c-2.2 1.6-2.3 2.6-.3 2.6 1.1 0 1.5 1.1 1.5 4 0 2.2.5 4 1 4 .6 0 1-2.7 1-6 0-6.3-.4-6.8-3.2-4.6M460 1057.5c0 3.6.3 4 2.8 3.7 1.7-.3 2.2.2 2.2 1.9 0 1.9-.4 2.1-3 1.5-3.4-.6-4 .8-.9 2.4 1.6.9 2.6.8 4.5-.5 1.3-.8 2.4-2 2.4-2.6 0-2.5-2.2-4.9-4.6-4.9-1.4 0-2.2-.4-1.9-1s1.5-1 2.5-1 2.2-.5 2.5-1c.4-.6-.8-1-2.9-1-3.2 0-3.6.3-3.6 2.5M480 1056.5c-.7.9-1 1.9-.6 2.3s1.2-.1 1.7-1.1c1.1-1.9 3.4-2.3 4.5-.6.4.6-.9 2.6-3 4.5-2 1.8-3.6 3.8-3.6 4.3 0 .6 2 1.1 4.6 1.1 2.7 0 4.3-.4 3.9-1-.3-.6-1.7-1-3.1-1-2.9 0-3.2-1.6-.4-2.5s4.5-4.2 2.9-6.1c-1.5-1.8-5.3-1.8-6.9.1M453.5 1062c-.4.6.5 1 2 1s2.4-.4 2-1c-.3-.6-1.2-1-2-1s-1.7.4-2 1M410.7 1057.7c-1.1 1-.8 9.3.3 9.3.6 0 1-2.3 1-5 0-5.1-.1-5.5-1.3-4.3M741 838c0 4 .4 7 1 7s1-3 1-7-.4-7-1-7-1 3-1 7M218 848.5c0 3 .5 5.5 1 5.5.6 0 1-2.5 1-5.5s-.4-5.5-1-5.5c-.5 0-1 2.5-1 5.5M741 861.5c0 3.7.4 6.5 1 6.5s1-2.8 1-6.5-.4-6.5-1-6.5-1 2.8-1 6.5M218.8 866.6c-1.1 1.1-1 12.2.1 12.9.5.3 1.1.2 1.3-.2.6-1.5-.7-13.5-1.4-12.7M741 885.4c0 3.6.5 6.8 1 7.1.6.4 1-2 1-6.4 0-4.1-.4-7.1-1-7.1s-1 2.8-1 6.4M218.9 891.9c-.3 7.6-.1 10.1.7 10.3 1.2.4 1.5-11 .3-11.7-.5-.4-.9.3-1 1.4M741.9 904.5c-.7 1.3.1 12.5.9 12.5.4 0 .6-2.1.4-4.8-.5-7.5-.7-8.8-1.3-7.7M219 922.6c0 4.7.4 7.3 1 6.9.6-.3 1-3.7 1-7.6s-.4-6.9-1-6.9-1 3.2-1 7.6M742 937.5c0 3.7.4 6.5 1 6.5s1-2.8 1-6.5-.4-6.5-1-6.5-1 2.8-1 6.5M219 947c0 4 .4 7 1 7s1-3 1-7-.4-7-1-7-1 3-1 7M742 962c0 4 .4 7 1 7s1-3 1-7-.4-7-1-7-1 3-1 7M219 971.5c0 3.7.4 6.5 1 6.5s1-2.8 1-6.5-.4-6.5-1-6.5-1 2.8-1 6.5M742.7 981.7c-1.1 1-.8 12.6.3 14.3.7 1 1-1.1 1-6.8 0-8.2-.1-8.8-1.3-7.5M219.7 987.7c-1.1 1-.8 12.1.3 12.8.6.4 1-2 1-6.4 0-7.1-.1-7.7-1.3-6.4M743 1015c0 4.5.4 6.9 1 6.5.6-.3 1-3.3 1-6.5s-.4-6.2-1-6.5c-.6-.4-1 2-1 6.5M219 1019.9c0 3.9.5 7.3 1 7.6.6.4 1-2.2 1-6.9 0-4.4-.4-7.6-1-7.6s-1 3-1 6.9M743 1039.9c0 4.1.4 7.1 1 7.1s1-2.8 1-6.4-.4-6.8-1-7.1c-.6-.4-1 2-1 6.4M219.9 1039c-.5 7-.2 11.5.6 11.8 1.4.3 1.9-10.8.6-12.1-.8-.8-1.1-.7-1.2.3M743 1069c0 4 .4 7 1 7s1-3 1-7-.4-7-1-7-1 3-1 7M220 1071c0 3.3.4 6 1 6s1-2.7 1-6-.4-6-1-6-1 2.7-1 6M410.8 1083.7c-.2.5-.1 2.4.3 4.3.6 3.5.6 3.5.8-.8.1-3.9-.3-5.2-1.1-3.5M743 1094c0 4 .4 7 1 7s1-3 1-7-.4-7-1-7-1 3-1 7M220 1096.5c0 3.7.4 6.5 1 6.5s1-2.8 1-6.5-.4-6.5-1-6.5-1 2.8-1 6.5M376.1 1100.6c-1.7 2.1-3.1 4.4-3.1 5.1 0 .9-3.4 1.3-12.5 1.5-6.9.2-12.5.7-12.5 1.1 0 .5 5.3 1 11.8 1 11.3.2 11.7.3 12 2.4.4 2.5 9.2 10 12.8 10.9 3.5.9 8.9-2.9 11.3-8 4.1-8.4 2-14-5.9-15.8-10.6-2.3-10.4-2.3-13.9 1.8m8.7-.8c.2.7-.2 1-1.2.6-.9-.3-1.6-1.1-1.6-1.6 0-1.3 2.3-.5 2.8 1m-2.9 1.1c1.1.7 1 1.4-.6 3.7-1.1 1.6-2.3 3.9-2.7 5-.5 1.6-1.2 2-2.7 1.7-1.8-.5-2-1.1-1.6-4.1.6-3.6 3.2-7.2 5.1-7.2.6 0 1.7.4 2.5.9m5.6 1.9c-3.4 2.9-4.7 5.1-6.6 10.5-1.3 4-1.8 4.6-1.8 2.5-.2-5.4 5.4-14.8 8.7-14.8 1.5.1 1.5.3-.3 1.8m8.6 1.3c2.4 4.5-1.6 13.3-7.5 16.4-2.9 1.6-3.7 1.7-5 .6-3.1-2.6-1.6-10.6 2.9-15.5 3.8-4.2 7.8-4.8 9.6-1.5m-19.1 10.6c0 1.3-.3 1.3-1.5.3-.8-.7-1.5-1.6-1.5-2.1s.7-.6 1.5-.3c.8.4 1.5 1.3 1.5 2.1"/><path d="M387.4 1108.5c-2.8 2.8-3.2 7.3-.8 8.2 2.2.8 4.6-.7 6.2-3.9 2.5-5.2-1.4-8.3-5.4-4.3m4.2.9c.7 1.9-1.3 5.6-3.1 5.6-1.7 0-1.9-2.3-.5-5.1 1.3-2.2 2.8-2.5 3.6-.5M411.3 1103c0 2.5.2 3.5.4 2.2.2-1.2.2-3.2 0-4.5-.2-1.2-.4-.2-.4 2.3M274.2 1104.8c-2.5 2.5-1.9 5 1.4 5.8 1.3.3 2.1 1 1.8 1.5-.3.6-1.4.7-2.5.4-2.4-.8-2.5 1-.2 2 1.2.4 2.4-.1 3.5-1.5 2.3-2.8 2.3-5.2 0-8-1.9-2.3-1.9-2.3-4-.2m3.4 1.3c1 1.7-1.3 3.6-2.7 2.2-1.2-1.2-.4-3.3 1.1-3.3.5 0 1.2.5 1.6 1.1M282.7 1104.2c-2.5 1.4-2 4.6.9 6.1q2.7 1.35 1.5 2.1c-.7.4-1.8.2-2.6-.4-.9-.7-1.5-.8-1.5-.2 0 .5.6 1.5 1.4 2.1 1.2 1 1.9.8 3.5-.8 2.2-2.2 2.4-3.2 1.5-6.8-.7-2.6-2.4-3.4-4.7-2.1m3.1 3.1c.2 1-.3 1.7-1.2 1.7-1 0-1.6-.9-1.6-2.1 0-2.4 2.3-2.1 2.8.4M298.4 1105.6c-3.1 4.7 1.1 10.7 5.1 7.4 1.9-1.6 1.9-5-.1-7.8s-3-2.8-5 .4m4.1 3.5c0 2.4-.5 3.4-1.5 3.4-1.6 0-2.5-3.7-1.6-6.2 1-2.6 3.1-.8 3.1 2.8M312.2 1104.2c-.7.7-1.2 2-1.2 3 0 1.3-.8 1.8-2.6 1.8-1.5 0-2.3.4-1.9 1s1.5.8 2.6.5c1.3-.4 1.9-.2 1.9.9 0 2.4 4.1 3.1 5.7 1 2.2-3 .3-9.3-2.7-9.4-.4 0-1.1.5-1.8 1.2m3.3 4.8c0 1.8-.6 3.5-1.2 3.7-.9.3-1.3-.8-1.3-3.7s.4-4 1.3-3.8c.6.3 1.2 2 1.2 3.8M320.3 1104.5c-1.6 1.8-1.7 6.7-.1 8.3 1.7 1.7 4.5 1.5 5.8-.6 1-1.6 1-1.6 2 0 1.7 2.7 4.9 2.2 6.1-.9 1.9-5.1-2.7-10.6-5.6-6.7-.8 1.1-1.5 2.8-1.5 3.9-.1 1.8-.1 1.9-1.1.2-.5-.9-1.9-1.7-2.9-1.7-1.1 0-2-.5-2-1 0-.6.9-1 2.1-1 1.1 0 1.7-.5 1.4-1-.9-1.4-2.8-1.2-4.2.5m12.5 3.5c.1 1.4-.2 3.1-.7 3.9-1.4 2.2-3.1.3-3.1-3.5 0-2.8.4-3.5 1.8-3.2 1 .2 1.8 1.4 2 2.8m-7.8 1.9c0 .3-.5 1.3-1 2.1-1.2 1.9-3.5-.2-2.7-2.4.6-1.5 3.7-1.2 3.7.3M336.3 1104.5c-.3.9-.3 1.9.1 2.2.3.4.6.1.6-.5 0-.7.9-1.2 2-1.2 2.8 0 2.5 2.4-.5 4.4-3.5 2.3-3.2 4.6.5 4.6 1.7 0 3-.5 3-1 0-.6-1-1-2.2-1-2.2 0-2.2-.1.5-2.5 3-2.9 3.2-3.6 1.5-5.3s-4.8-1.5-5.5.3M265.1 1105.4c-1.7 2-.7 4.6 1.9 5.3 1.1.3 2 1 2 1.5 0 .6-.9.8-2 .5-2.3-.6-2.7 1.1-.5 1.9 2.7 1.1 4.6-1.6 4.3-6-.2-3.3-.7-4.2-2.4-4.4-1.1-.2-2.6.4-3.3 1.2m3.9 1.6c0 1.1-.7 2-1.5 2-1.5 0-2.1-2.1-.8-3.3 1.2-1.3 2.3-.7 2.3 1.3M291 1107c-2.2 3.1-2 5.3.4 4.4.7-.3 1.7.3 2.1 1.3.7 1.7.7 1.7 1.4 0 .9-2.3.2-8.7-.9-8.7-.5 0-1.8 1.3-3 3m1.6 2.7c-1 1-1.9-.5-1-1.8.6-1.1.8-1.1 1.2 0 .2.7.1 1.5-.2 1.8M743.7 1112.7c-1.1 1-.8 11.1.3 11.8.6.4 1-1.8 1-5.9 0-6.6-.1-7.2-1.3-5.9M221 1121c0 5.2.4 7.9 1 7.5.6-.3 1-3.7 1-7.5s-.4-7.2-1-7.5c-.6-.4-1 2.3-1 7.5M410.8 1118.2c-.2 1.6-1.2 2.4-3.3 2.8-2.8.5-2.9.6-.7 1.2 3.5 1 8-4 5.3-5.7-.5-.3-1.1.5-1.3 1.7M398 1117.5c0 .2 1 1 2.3 1.6 2 1.1 2.1 1.1.8-.4-1.3-1.6-3.1-2.3-3.1-1.2M743.5 1134.9c-.7 1.2.1 15.1.9 15.9.3.3.6-3.4.6-8.1 0-8.4-.2-9.7-1.5-7.8M221 1147.1c0 3.7.4 5.8 1 5.4.6-.3 1-3.1 1-6.1s-.4-5.4-1-5.4-1 2.7-1 6.1M743.9 1158.5c-.3.5-.9 2.2-1.2 3.6-.8 3-3.4 6.2-6.2 7.3-1.3.6-1.6 1-.7 1.3 3.3 1.3 9.7-6.5 9-11-.2-1.2-.6-1.8-.9-1.2M221 1163.5c0 1.3 2.9 6.1 4.6 7.7 2.2 1.9 7.4 3.4 7.4 2.1 0-.5-1.5-1.3-3.2-1.8-2.3-.7-3.9-2.2-5.3-4.7-1.7-3.3-3.5-4.9-3.5-3.3M625.5 1171c-.7 1.1-.4 1.2 2.5 1.2 1.1 0 4.3 0 7.1-.1 7.4-.2 5.1-2.1-2.6-2.1-3.5 0-6.7.4-7 1M652 1171c0 .6 2.8 1 6.5 1s6.5-.4 6.5-1-2.8-1-6.5-1-6.5.4-6.5 1M677.5 1171c2.8 1.2 11.5 1.2 11.5 0 0-.6-2.9-1-6.7-.9-4.7 0-6.2.3-4.8.9M697 1171c0 .6 2.8.9 7 .8 3.9-.1 7-.5 7-1 0-.4-3.1-.8-7-.8-4 0-7 .4-7 1M722.3 1170.7c1.5.2 3.7.2 5 0 1.2-.2 0-.4-2.8-.4-2.7 0-3.8.2-2.2.4M472.5 1171.9c-2.8.5-3.5 1-2.4 1.5 2.3 1 12.9.3 13.2-.9s-5.4-1.5-10.8-.6M494.5 1172c-.4.6 2.3 1 7.5 1s7.9-.4 7.5-1c-.3-.6-3.7-1-7.5-1s-7.2.4-7.5 1M520 1172c0 .6 3 1 7 1s7-.4 7-1-3-1-7-1-7 .4-7 1M546 1172c0 .6 3.2 1 7.5 1s7.5-.4 7.5-1-3.2-1-7.5-1-7.5.4-7.5 1M573.5 1172c.3.5 3.7 1 7.6 1s6.9-.4 6.9-1-3.2-1-7.6-1c-4.7 0-7.3.4-6.9 1M600 1172c0 .6 2.8 1 6.4 1s6.8-.5 7.1-1c.4-.6-2-1-6.4-1-4.1 0-7.1.4-7.1 1M338.5 1172.9c-.3.2-.2.8.1 1.2.7 1.3 14.4 1.1 14.4-.1 0-.6-1.2-1-2.7-1.1-1.6 0-4.7-.1-7.1-.3-2.4-.1-4.5 0-4.7.3M363.5 1173c-.8 1.3.3 1.5 7.5 1.5 3.6 0 6.7-.5 7-1 .6-1.3-13.7-1.8-14.5-.5M389 1173c0 .6 3.4 1 8.1 1 5.1 0 7.8-.4 7.4-1-.3-.6-4-1-8.1-1-4.3 0-7.4.4-7.4 1M415 1173c0 .6 3.5 1 8.6 1 5.4 0 8.3-.4 7.9-1-.3-.6-4.2-1-8.6-1-4.6 0-7.9.4-7.9 1M441.5 1173c-.4.6 2.5 1 7.9 1 4.7 0 8.8-.5 9.1-1 .4-.6-2.5-1-7.9-1-4.7 0-8.8.4-9.1 1M241 1174c0 .6 3 1 7 1s7-.4 7-1-3-1-7-1-7 .4-7 1M265 1174c0 .6 3 1 7 1s7-.4 7-1-3-1-7-1-7 .4-7 1M290 1174c0 .6 3 1 7 1s7-.4 7-1-3-1-7-1-7 .4-7 1M314 1174c0 .6 3.2 1 7.5 1s7.5-.4 7.5-1-3.2-1-7.5-1-7.5.4-7.5 1"/></svg>