<svg xmlns="http://www.w3.org/2000/svg" viewBox="0 0 864 1214" fill="currentColor"><path d="M274.3 133.1c-1.7.5-8.7 4.2-15.5 8.2-19.1 11.2-19.5 11.4-21.9 9.9-10.4-6.5-15.6-8.6-22.9-9-4.1-.2-9.3.1-11.5.7s-17.2 8.9-33.3 18.6c-16.2 9.6-29.5 17.5-29.7 17.5-1.3 0-12.5 7.4-12.5 8.3 0 .5.8.3 1.8-.5.9-.8 2.4-1.8 3.2-2.2.8-.3 3.1-1.6 5-2.7 37.6-22.6 62.3-36.9 65.4-37.9 2.3-.7 6.7-1.1 11-.8 6.3.4 8.4 1.1 17.1 5.8 5.5 2.9 10.4 5.7 11 6.1 1.6 1.5 2.8 1 1.5-.6-.7-.9-1.1-1.7-.9-1.9.7-.7 21-12.6 21.5-12.6.2 0 2.6-1.4 5.2-3 3.9-2.4 6-3 10.5-3 6.4 0 7.7.5 20.7 7.9 13.2 7.5 14.3 8.1 34 19.4 9.6 5.5 19.5 11.1 22 12.5 42.1 23.4 58 33.1 59.1 35.9.5 1.3.9 6.2.9 10.9v8.4l-6.5-4c-3.6-2.2-6.7-4-6.9-4-.4 0-13.4-7.2-27.1-15-2.2-1.2-13.2-7.4-24.5-13.8-22.9-12.9-33.2-18.7-43.5-24.5-21.1-12-25.5-13.6-31.8-11.9-3.1.9-61.2 34.9-79.9 46.9L189 207v-11.4c0-12.4 0-12.5 7-16.3 12.8-7.2 25.8-14.7 28.1-16.4 1.5-1 3-1.9 3.4-1.9s2-.9 3.6-2.1c2.7-1.9 3.1-1.9 6.1-.5 3.6 1.9 5.1 1.4 1.6-.5-2.5-1.3-5.1-2.8-14-7.8-7.2-4.1-14.3-5-22.1-2.7-3.1.9-6.2 2.3-7.1 3.1-.8.8-1.7 1.5-2 1.5-.2 0-4 2.2-8.3 4.9-4.3 2.6-14.2 8.5-22.1 13.1-7.9 4.5-14.1 8.4-13.9 8.7.3.2 5.6-2.6 11.8-6.3 6.3-3.7 13.4-7.8 15.9-9.2s8.5-5 13.3-7.9c10.2-6.3 13.1-7.3 21.1-7.4 4.8-.1 7.2.6 13.2 3.6 4.1 2 7.4 4.3 7.4 5.1 0 .7-.4 1.4-.9 1.4-.6 0-7.7 4-15.8 8.8-8.2 4.8-17 9.8-19.6 11.1-8.3 4-8.8 5.2-8 21 .3 7.5 1 14.4 1.5 15.4 1 1.9 4.8 4.5 15.1 10.1 10.6 5.9 8.8 3.7-2.4-2.8-14.4-8.3-15.6-11.2-7.2-16.8 4.6-3.2 22.2-13.8 22.8-13.8.2 0 2.3-1.2 4.7-2.8 2.4-1.5 5.2-3.2 6.3-3.9 1.1-.6 10.7-6.4 21.3-12.8s20.8-12.3 22.7-13.1c7.6-3.1 13.7-1.4 32 9 2.2 1.2 7.2 4 11 6.1 3.9 2.1 8.7 4.9 10.7 6.2 2.1 1.3 4 2.3 4.2 2.3s3.7 1.9 7.8 4.3c4 2.4 10 5.9 13.3 7.7 5 2.8 43.8 24.6 58.3 32.8 5.6 3.2 7.1 6.2 4.8 9.7-.9 1.4-2 2.5-2.5 2.5s-4.9 2.3-9.8 5.1c-55.5 32.3-51.6 29.9-50.9 30.6.3.3 2.4-.6 4.6-2.1 2.2-1.4 4.2-2.6 4.6-2.6.3 0 1.8-.8 3.2-1.9 1.5-1 5-3.1 7.7-4.6 2.8-1.5 10.2-5.7 16.5-9.4s15.2-8.9 19.8-11.5c5.6-3.3 8.4-5.5 8.8-7.1.3-1.3.4-8 .2-15-.3-12.2-.4-12.7-2.8-14.5-7-5.2-6.7-4.8-4.8-6.2.9-.7 5.6-4.7 10.4-8.8l8.7-7.5 40.1-.5 40.1-.5-40.2-.3-40.2-.2-11.2 9.5c-11.1 9.5-11.1 9.5-14.3 7.6-3.9-2.3-46.1-26.3-53.6-30.4-3-1.7-8.3-4.8-11.8-6.9-3.4-2.1-6.4-3.8-6.5-3.8-.2 0-9.3-5.2-20.3-11.5-18.1-10.6-27.1-14.7-31.3-14.4-.9 0-3 .5-4.8 1"/><path d="M276 161.1c-3.4.6-13.3 6.1-37.8 20.9-16.7 10.2-23 14-28.8 17.4-9.8 5.8-15.5 9.7-16.1 11.2-.8 2.2 1.1 3.9 9.5 8.6 9.2 5.1 9.7 5.3 8.8 4-.3-.5-2.9-2.2-5.8-3.7-11.3-5.9-13.2-8.6-8-11.6 1.5-.9 4.5-2.7 6.7-3.9 3.6-2.2 3.8-2.2 2.3-.4-1 1.2-1.8 3.7-1.8 5.7 0 4.1-.5 4.4-3.8 2.1-1.3-.9-2.6-1.4-2.8-1.1-.7.7 11 7.7 12.7 7.7.8-.1.2-.7-1.2-1.5-3.9-2.1-4.3-4.2-1.2-7.1 2.7-2.5 2.5-3.1-.8-1.4-2.4 1.3-2.7-1.1-.4-3.4 4.5-4.4 17.5-2.2 17.5 3.1 0 1.1-.5 1-2.4-.3-1.4-.8-3.5-1.4-4.8-1.2-1.8.3-1.4.6 2.2 1.8 5.4 1.8 6.1 4 2.4 7.5-3 2.8-2.1 3.4 1.4.9 3-2.1 3.2-10.2.3-12.8-2.6-2.4-8.6-3.6-12.2-2.6-1.6.5-2.9.7-2.9.5s7.5-4.9 16.8-10.5c9.2-5.6 17.4-10.6 18.2-11.1 26.3-15.9 30.4-17.9 36.8-17.9 4.8 0 5.7.4 47.7 24 10.5 5.9 21.7 12.2 25 14s9.4 5.2 13.5 7.5 10.7 5.9 14.5 8c3.9 2.1 8.7 4.9 10.7 6.2 2.1 1.3 4 2.3 4.4 2.3s3.3 1.6 6.5 3.6c8 4.8 8 6.7-.3 11.3-4.1 2.2-4.4 2.1-2.7-.8.7-1.1.9-3.2.5-5.5-1.3-6.6-9-9.4-17-6.1-4 1.7-5.2 4.5-4.2 10.1.6 2.9 1.4 3.8 4.4 5.1 2.2.9 5.3 1.3 7.9 1 2.4-.2 4.3-.3 4.3-.2 0 .3-21.2 12.9-29.5 17.5-13.9 7.8-19.7 11.4-18.8 11.7.6.2 7.1-3.2 14.4-7.5 7.4-4.3 21-12.3 30.2-17.6 9.2-5.4 17.2-10.7 17.7-11.7 1.9-3.4.1-5.1-11.5-11.4-8.3-4.5-33.8-18.6-63.5-35.2-31.3-17.5-30.9-17.3-38-21.1-3.6-1.9-7.1-3.9-7.8-4.5-1.9-1.5-9.1-2.4-13.2-1.6m121.1 67.5c1 .9 1.6 3.1 1.7 6 0 4.3-.2 4.7-3.4 6-4.3 1.8-6.8 1.8-11-.2-3.3-1.6-4.5-4.6-2.4-5.9 1.6-1 1.2-2.5-.5-1.9-1.8.7-1.9-.6-.2-2.9 2.6-3.6 12.1-4.2 15.8-1.1"/><path d="M390.6 230.9c.5.5 2.5 1.2 4.4 1.5 3.5.6 3.5.6.5-.9-3.4-1.6-6.4-2-4.9-.6M384.9 235.1c-.8 1.5-.8 2.4 0 3.2s1.1.5 1.1-1c0-2.4 2.9-3.8 6-2.8 2.5.8 2.6 3 .3 4.5-1.7 1-1.7 1.1.1.8 2.8-.4 4.3-3.3 2.7-5.2-2.1-2.5-8.8-2.1-10.2.5M245.5 183.3c-9.3 5.7-17 10.7-17 11.2 0 .6 4.4 3.6 9.8 6.8 9.3 5.6 9.7 6 9.7 9.4 0 3.6 1.5 7.3 2.9 7.3.5 0 6.8 3.4 14.1 7.5s13.4 7.5 13.5 7.5c.2 0 3.8 2.1 8.1 4.6 7.8 4.6 7.8 4.6 14.7 3.9 6.7-.6 7.1-.5 12.7 2.9 3.2 2 6 3.6 6.2 3.6s5.5 2.9 11.8 6.5c11.3 6.5 11.3 6.5 14.4 4.6 12-7.3 28.5-16.8 30.1-17.5 1.1-.5 1.5-1 .9-1.2-.8-.4-11.9 5.6-21.4 11.6-.8.5-4.2 2.3-7.6 4.1-6 3.2-6 3.2-10.2.5-2.3-1.4-4.4-2.6-4.7-2.6-.2 0-2.6-1.3-5.2-2.9-2.7-1.5-7.9-4.5-11.6-6.5l-6.8-3.8 8.8-5.2 8.8-5.1-.4-7.8c-.1-4.2 0-7.7.4-7.7s1.9.7 3.4 1.6c2.7 1.6 3 1.5 7.5-1.1 7.2-4.2 6.5-5.9-5.3-12.6l-9.9-5.7-5.1 2.6c-6 3.1-6.8 6.1-2.3 8.3 10.9 5.5 10.7 5.2 10.4 13.9-.4 7.9-.4 7.9-7.6 12.3-5.9 3.6-8.7 4.6-15.4 5.6-8.3 1.2-8.3 1.2-16.5-3.5-4.5-2.6-11.6-6.6-15.7-8.8s-10.6-5.8-14.5-8.1c-6.7-3.9-7-4.3-7.3-8.2-.3-4.1-.3-4.1 9.2-9.7l9.4-5.7 14.4.7c14.3.7 14.3.7 21.5 5 4 2.4 7.3 3.9 7.3 3.5 0-.5-4.9-3.6-10.9-7-6.1-3.3-11.3-6.5-11.6-7.1-.6-.9 11-8.9 13-9 .6 0 7.8 3.9 16 8.6 8.3 4.7 20 11.4 26 14.8 6.1 3.5 13.2 7.6 15.8 9.2 4.5 2.9 4.7 3.1 3 4.6-1 .9-4.1 2.8-6.9 4.3l-5.2 2.8-6.6-3.6c-3.6-1.9-6.6-3.2-6.6-2.8 0 1 11.5 7.1 13.3 7.1.9 0 5-2.1 9.2-4.6 9.9-6 10.1-7.8 1.3-12.9-3.5-1.9-7-4-7.8-4.5-1.7-1-25.5-14.9-40.2-23.4-5.3-3.1-10.3-5.6-11.2-5.6-.8 0-4.7 2-8.5 4.5s-7.2 4.5-7.5 4.5-5.4-2.7-11.3-6-11-6-11.3-6-8.1 4.7-17.5 10.3m22.2-6.7c17.1 9.4 17 9.4 17.6 12.3.4 2 1.7 3.3 4.1 4.5 2 .9 3.6 1.9 3.6 2.2s-5.7.2-12.8-.2l-12.7-.7-9.4 5.7c-5.1 3.2-9.9 5.5-10.5 5.2-3.7-1.6-16.9-10.3-16.9-11 .1-.7 30.1-20 32-20.5.1-.1 2.4 1.1 5 2.5m54.8 12c9.4 5.4 18.7 10.8 20.7 12.1 2.1 1.2 3.9 2.3 4.2 2.3.4 0 11 6.3 16.5 9.7 1.5.9 2 1.8 1.4 2.4-.7.7-5.1-1.4-12.2-5.5-6.2-3.7-13.1-7.7-15.4-8.9-30.8-17.3-35.7-20.3-35.7-22.2 0-1.1.4-1.3 1.8-.5.9.5 9.4 5.3 18.7 10.6m-21.5-9.3c0 1.1-12.9 9.7-14.5 9.7-.3 0-.5-.7-.5-1.4 0-1.3 12.3-9.6 14.3-9.6.4 0 .7.6.7 1.3m40.4 29.8c2.4 2.2-.9 2-5.2-.3-2.6-1.4-6.6-3.7-8.9-5-2.4-1.2-4.3-2.9-4.3-3.6 0-.9 3.1.3 8.8 3.3 4.8 2.6 9.1 5.1 9.6 5.6m-19.4-8.4c0 1-5.8 4.3-7.3 4.3-1.6-.1 4.4-5 6.1-5 .6 0 1.2.3 1.2.7m3.8 4c.2.7-.3 1.3-1.1 1.3s-2 .7-2.7 1.5c-1.6 1.9-.1 1.9 2.4 0 2.1-1.6 4.6-2 4.6-.8 0 .5-1.3 1.5-2.8 2.4-2.7 1.5-3.1 1.5-6.7-.3-3.8-2-3.8-2-.9-3.9 3.1-2.1 6.5-2.2 7.2-.2m5.7 4.9c-3.5 2.7-5.3 3.5-6 2.5-.7-1.3 3.4-4.1 6-4.1 2 .1 2 .1 0 1.6m4 .4c.7 1.1-5.1 4.3-6.7 3.8-.6-.2.4-1.4 2.3-2.6 4-2.5 3.6-2.4 4.4-1.2m3.9 3.1c-.9 1.4-6.1 3.9-6.8 3.2-1.2-1.2-.6-2.2 2.1-3.7 2.8-1.4 5.7-1.1 4.7.5M106.2 179.4c-4.5 2.9-8.7 5.7-9.2 6.2-1.6 1.6 0 13.5 1.9 14.2.9.3 3.9 2 6.6 3.7 13.4 8.5 11.4 8.3 21.5 2.4 5-2.8 9.3-5.5 9.5-6 1.2-1.8 1.5-11.3.4-11.9-.6-.5 1.2-2 4.5-3.9 3-1.8 5.8-3.7 6.2-4.3.4-.5-1.3.1-3.7 1.5s-6.5 3.7-9.1 5.2c-4.8 2.6-6.8 4.5-5 4.5.5 0 1.5-.7 2.2-1.5 2.5-3 4-1.7 4 3.5 0 2.7-.3 5-.6 5s-4.2-2-8.7-4.5c-4.4-2.5-8.2-4.4-8.4-4.2-.4.5 11.5 7.7 12.6 7.7.5 0 1.5.7 2.2 1.6 1.5 1.8 2 1.2-8.1 7.1-3 1.8-6.2 3.2-7 3.2-2 0-17.2-9.1-17.3-10.4 0-.6 3-2.7 6.7-4.9 3.7-2.1 6.5-4 6.3-4.2-.5-.5-11.5 5.5-12.2 6.7-.4.5-1.2.9-2 .9-.9 0-1.4-1.7-1.7-5.1-.1-2.8-.1-5.4.2-5.8.9-1.2 16.2-10.1 17.4-10.1.3 0 .7 2.4.9 5.2l.3 5.3.2-5.3.2-5.4 6.6 3.6c3.6 2 6.3 3.2 5.9 2.6-.7-1.2-12.9-8-14.1-7.9-.5 0-4.6 2.4-9.2 5.3M519 182c0 .7.3 1 .7.7.3-.4.3-1 0-1.4-.4-.3-.7 0-.7.7M524 181.5c0 .3.2.5.5.5s.5-.2.5-.5-.2-.5-.5-.5-.5.2-.5.5M526 181.5c0 .3.2.5.5.5s.5-.2.5-.5-.2-.5-.5-.5-.5.2-.5.5M528 181.5c0 .3.2.5.5.5s.5-.2.5-.5-.2-.5-.5-.5-.5.2-.5.5M531.3 181.7c.4.3 1 .3 1.4 0 .3-.4 0-.7-.7-.7s-1 .3-.7.7M564.3 181.7c23.4.3 30.9.6 31.2 1.6.2.6.6 26.3.9 56.9l.6 55.8-32.7.1c-18.1.1-33.9.5-35.3 1-1.5.5 6.4.7 20 .4 12.4-.3 28.5-.5 35.8-.5H598v-54.9l12.8-.4 12.7-.3-12.7-.2-12.8-.2-.1-6c-.1-3.3-.3-6.5-.4-7-.1-.6-.3-11.4-.4-24l-.1-23-31.7.2-31.8.3zM522 182.5c0 .3.2.5.5.5s.5-.2.5-.5-.2-.5-.5-.5-.5.2-.5.5M211.3 209.6c-.7.3-1.3 1.6-1.3 2.9 0 2.4 1.6 4.2 2.8 3 .3-.3 0-1-.8-1.5-2.3-1.4.7-4.2 4.4-3.8 2.2.2 3.2 1 3.8 2.8.6 2.3.7 2.3.5-.5s-.5-3-4.2-3.2c-2.2-.1-4.6 0-5.2.3"/><path d="M215.2 214c0 1.9.2 2.7.5 1.7.2-.9.2-2.5 0-3.5-.3-.9-.5-.1-.5 1.8M215.3 224c0 3 .2 4.3.4 2.7.2-1.5.2-3.9 0-5.5-.2-1.5-.4-.2-.4 2.8M219 222.7c0 .5 2.4 2.1 5.3 3.6 5.2 2.6 10.6 5.7 22.7 12.7 3.6 2.1 8.1 4.6 10 5.7s6.6 3.7 10.4 5.8 6.6 3.3 6.2 2.7c-.4-.7-2.9-2.4-5.6-3.7-2.7-1.4-10.8-5.9-17.9-10s-14.5-8.3-16.3-9.3c-1.8-1.1-5.9-3.4-9-5.1-3.2-1.8-5.8-2.9-5.8-2.4M358 226.2c2.1 2.1 19 11 19 10.1 0-.5-4.6-3.2-10.3-6.2-5.6-2.9-9.5-4.7-8.7-3.9M222 230c1.4 1.1 3.4 2.3 4.4 2.6 1.1.4 4.8 2.4 8.2 4.4 5.3 3.3 11 6.5 36.4 20.8 2.5 1.4 8.9 5.2 14.3 8.4 5.5 3.2 10 5.8 10.2 5.8s4.9 2.7 10.5 6.1c5.5 3.3 10.6 5.9 11.3 5.6.6-.2-.8-1.4-3.2-2.6-2.4-1.3-13.5-7.5-24.5-13.9-11.1-6.3-21.9-12.5-24.1-13.8-2.2-1.2-13.2-7.4-24.3-13.8-20.1-11.4-24.1-13.4-19.2-9.6M626 241v12h83v-24h-83zm81-.6V251h-79v-19.9l6.3-.3c3.4-.2 21.2-.4 39.5-.6l33.2-.4z"/><path d="M643.1 236.1c-1.7 1.4-1.9 1.9-.8 1.9 1.2 0 1.7 1.2 1.9 4.7.4 6.6 2.2 5.6 2.6-1.3.4-6.7-.5-7.9-3.7-5.3M658.8 235.1c-1.9 1.1-2.5 3.9-.8 3.9.6 0 1-.7 1-1.5s.9-1.5 2-1.5c2.4 0 2.6 2.5.3 3.8-1.4.9-1.4 1 .5 1.6 1.2.4 2.2 1.4 2.2 2.2 0 2.2-3.1 3-4.5 1.1-1.5-2.1-2.5-2.2-2.5-.2 0 .8.9 1.9 2.1 2.5 3.5 1.9 9.3-3.4 6-5.4-.5-.3-.7-1.6-.4-2.8.4-1.4 0-2.6-1.2-3.4-2.2-1.6-2.5-1.7-4.7-.3M670 236c-2 1.6-2.2 2-.7 2 1.4 0 1.7.9 1.7 4.4 0 2.5.5 4.8 1 5.1.6.4 1-2 1-6.4 0-3.9-.1-7.1-.2-7.1-.2 0-1.4.9-2.8 2M678.6 236.2c-.9 1.2-1.6 3.5-1.6 5 0 2.7 3 6.8 4.9 6.8 4.1 0 5.9-11 2.2-13-2.8-1.5-3.8-1.3-5.5 1.2m4.9 4.7c0 4.9-1.7 6.4-3.5 3.1-1.6-2.9-.3-8.2 1.8-7.8 1.3.2 1.7 1.4 1.7 4.7M631 238.4c0 3 .2 3.3 2.5 2.8 2.8-.5 4.5 2.2 2.6 4.1-.9.9-1.6.9-3.1-.1-2.6-1.6-3.1-1.5-2.4.3.9 2.4 4.3 2.9 6.5.9 3.2-2.9 1.8-7.4-2.3-7.4-2.9 0-2.1-2.8 1-3.3 2.2-.3 2-.4-1-.6-3.7-.1-3.8 0-3.8 3.3M651 242c0 .5.9 1 2 1s2-.5 2-1c0-.6-.9-1-2-1s-2 .4-2 1M215.1 237.6c.1 4.5.3 5.3.9 3.3.8-2.7.6-7.7-.4-8.7-.3-.3-.6 2.1-.5 5.4M219 232.4c0 .3 2.8 2 6.3 3.9 3.4 1.9 8.2 4.6 10.7 6 6.7 3.7 41.4 23.7 58.3 33.6 8.1 4.7 16.6 9.6 19 10.8 4.5 2.4 12.5 3.1 14.4 1.2.7-.7 2.6-.1 6.2 2 2.9 1.7 5.4 3.1 5.6 3.1s3 1.5 6.2 3.4c3.2 1.8 9.4 5.2 13.7 7.5 7.4 3.8 8.4 4 13.5 3.4 6.7-.7 9.5-1.9 8.7-3.9-1.9-4.7-3.8-4.4 27.3-4.4 16 0 29.1-.4 29.1-.8s-13.2-.6-29.3-.4l-29.2.4-2.5-3.7c-2.5-3.8-5.3-5.6-23.5-15.4-4.4-2.4-8.4-4.7-9-5.1-.5-.4-4.1-2.4-7.8-4.4-6.4-3.5-7.2-3.6-12.7-3-3.3.4-6.3 1.2-6.8 1.8s0 3.8 1.1 7.5c1.6 5.2 2.5 6.7 5.5 8.4 3.4 2 3.5 2.1 1.1 2.9-3.1 1.2-10.4-.6-14.9-3.7-3.9-2.6-19-11.5-19.5-11.5-.2 0-4.3-2.3-9.2-5.1-4.8-2.9-11.3-6.5-14.3-8.2s-8.3-4.8-11.8-6.9c-3.4-2.1-6.4-3.8-6.6-3.8s-4.3-2.3-9.2-5.1c-14.1-8.2-15.7-9.1-18.1-10-1.3-.5-2.3-.7-2.3-.5m112.5 36.7c1.2 1.9-.5 7.6-3 10.3-3.8 4.1-6.5 3.2-8.6-2.9-1-2.8-1.8-5.5-1.8-6.2-.2-2 12.3-3.1 13.4-1.2m4.6 1.9c2.5 1.4 2.5 5.4-.1 9.5-2.5 4.1-6.2 5.8-8.6 4.1-1.7-1.3-1.6-1.4.4-2.5 2.7-1.4 5.2-6.1 5.2-9.6 0-2.8.3-2.9 3.1-1.5m7.4 3.8c1.7 1 5.5 3.2 8.5 4.9 18.6 10.1 18.7 10.3 17.6 14.7-.8 3.3-5.4 8.6-7.4 8.6s-25.6-12.3-30.1-15.7c-.3-.2.5-1 1.7-1.9 2.8-1.9 5.2-6.5 5.2-9.9 0-3 .5-3.1 4.5-.7m31.4 18.5c2.2 4.2-2.8 12.7-7.5 12.7-3.5 0-3.6-1.3-.3-4.4 1.8-1.8 3.1-4.2 3.5-6.7.7-4.4 2.5-5 4.3-1.6m5.1 10.4c0 1.2-5.7 2.9-6.7 1.9-.4-.3.1-1.4.9-2.3.8-1 1.8-2.7 2.2-3.8.7-1.9.8-1.9 2.1.5.8 1.4 1.4 3 1.5 3.7M382.6 246.8c-.2.4-2.4 1.8-4.8 3-2.4 1.3-5 2.7-5.8 3.2s-5.3 3.1-10 5.8-10.7 6.1-13.3 7.6c-2.7 1.5-4.6 3-4.3 3.3s2-.4 3.8-1.5 5.3-3.1 7.8-4.4c5.8-3.3 29.4-16.9 29.9-17.4.2-.2-.3-.4-1.2-.4s-1.8.4-2.1.8M215 253.4c0 3.3.4 5.5.9 5.1 1.1-.6.9-9.1-.2-10.2-.4-.3-.7 1.9-.7 5.1"/><path d="M275 254.4c0 .3 7.9 4.9 31.3 18.4 4.3 2.4 8 4.2 8.3 4 .4-.5-11-7.8-12.1-7.8-.2 0-3.8-2-7.9-4.5-4.2-2.5-7.9-4.5-8.1-4.5-.3 0-2.7-1.4-5.3-3-4.6-2.8-6.2-3.5-6.2-2.6M215 268.6c0 2.7.4 4.3 1 3.9.6-.3 1-2.4 1-4.6 0-2.1-.4-3.9-1-3.9-.5 0-1 2.1-1 4.6M158.7 268.2c-.5 2-.4 2.1.6.7.7-.9 2.1-1.9 3.2-2.2 1.6-.4 1.4-.5-.6-.6s-2.8.5-3.2 2.1M166 267.8c0 .9 11.1 7.4 11.7 6.9.2-.3-2.4-2-5.7-4s-6-3.3-6-2.9M158.3 280c0 4.7.2 6.6.4 4.2.2-2.3.2-6.1 0-8.5-.2-2.3-.4-.4-.4 4.3M215 281.4c0 3.3.4 5.6 1 5.6 1.3 0 1.1-9.8-.2-10.6-.4-.3-.8 2-.8 5M182 277.5c0 .2 2.3 1.6 5 3 6.2 3.1 6.5 2.6.6-.9-4.4-2.6-5.6-3-5.6-2.1M195 284.7c0 .8 4.8 3.7 8.5 5.1 1.9.8-.9-1.4-4.7-3.7-2.1-1.3-3.8-1.9-3.8-1.4M463.8 285.8l-22.8.2v24.3l38.3-.6c21-.4 39.7-.7 41.5-.7 3.2 0 3.2 0 3.2-11.9v-11.8l-18.7.1c-10.4.1-29 .2-41.5.4m58.2 11.7V308h-79v-21h79z"/><path d="M448.9 291.7c-1 .2-2 1.4-2.3 2.6-1.1 4.1-.8 4.7 2.4 4 2.6-.5 3-.3 3 1.6 0 2.5-2.6 3.9-4.3 2.2-.6-.6-1.6-1.1-2.1-1.1-.6.1-.1.9 1.1 1.9 2.9 2.4 6.1 1.6 6.9-1.5.7-2.8-1.1-5.4-3.7-5.4-1.1 0-1.9-.7-1.9-1.5 0-1 1-1.5 3.1-1.5 1.7 0 2.8-.4 2.4-1-.6-1-1.7-1.1-4.6-.3M458.6 293.1c-1.7 1.7-1.8 1.9-.3 1.9 1.3 0 1.7 1 1.7 4.5 0 2.5.5 4.5 1 4.5.6 0 1-2.8 1-6.5 0-3.6-.3-6.5-.7-6.4-.5 0-1.7.9-2.7 2M477.2 291.6c-.1.7-1.2 1.5-2.4 1.8-2.3.7-2.3.7 0 1.6 2 .8 2.2 1.5 1.7 4.4-.4 1.9-.2 3.6.3 4 1.6 1 1.8-.3 1.1-6.9-.3-3.3-.6-5.5-.7-4.9M484 293c-2 1.6-2.2 2-.7 2 1.4 0 1.7.9 1.7 4.5 0 2.5.5 4.5 1 4.5.6 0 1-2.8 1-6.5 0-3.6-.1-6.5-.2-6.5-.2 0-1.4.9-2.8 2M492.4 293.5c-2.4 3.6-1.2 9.3 2.2 10.1 3.4.9 5.4-1.2 5.4-5.5-.1-6.7-4.5-9.4-7.6-4.6m5.4 3.9c.4 4.2-1.3 6.3-3.5 4.4-2.5-2.1-1.2-9.1 1.6-8.6 1.1.2 1.7 1.6 1.9 4.2M507 296.4c0 4.5-.3 5.6-1.6 5.6-.9 0-2.3-.8-3-1.8-1.2-1.6-1.3-1.5-1.4.5 0 3.1 4.7 4.4 6.7 1.8 1.5-2.2 1.8-10.1.3-11-.6-.4-1 1.5-1 4.9M466 299c0 .5 1.1 1 2.5 1s2.5-.5 2.5-1c0-.6-1.1-1-2.5-1s-2.5.4-2.5 1M215 290.1c0 .7-.8 1.8-1.7 2.6-1.6 1.3-1.5 1.3.6.1 2.7-1.6 3.9-3.8 2.2-3.8-.6 0-1.1.5-1.1 1.1M206.4 291.5c1.1.8 2.4 1.5 3 1.5.5 0 .1-.7-1-1.5-1-.8-2.3-1.4-2.9-1.4-.5 0-.1.6.9 1.4M158.3 299c0 3.6.2 5 .4 3.2.2-1.7.2-4.7 0-6.5-.2-1.7-.4-.3-.4 3.3M263.9 304.9c-5.2 3.2-11.8 7.1-14.5 8.6-4.2 2.4-34.1 19.6-47.4 27.4-2.5 1.5-6.3 3.5-8.4 4.6s-5.3 3.4-7.1 5c-3.3 3-3.3 3-3.4 13.9-.3 15.4.3 16.5 10.6 22.6 4.7 2.7 8.6 5 8.8 5s5.9 3.3 12.7 7.3c6.7 4.1 14.3 8.5 16.8 9.9 5.1 2.8 28.5 16.3 57 32.8 10.7 6.3 21.6 12.4 24.2 13.7q10.2 4.95 20.1-.6c2.9-1.5 8.4-4.5 12.2-6.6 3.9-2.1 8.7-4.9 10.7-6.2 2.1-1.3 3.9-2.3 4.1-2.3s7-3.8 15.2-8.5c8.1-4.7 15.1-8.5 15.5-8.5s1.8-.8 3.1-1.9c1.3-1 4.9-3.2 7.9-4.8 11.4-6.2 18.5-10.5 19.2-11.6.4-.7.8-4.7.8-9V388h21.3c24.3 0 58-1 58.7-1.7.3-.3-17.5-.4-39.5-.2l-40 .4-.3-4c-.5-8.6-.7-8.8-14.2-16.2-5.5-3-20.7-11.4-29-16.1-6.9-3.8-23.7-13.1-31-17-3.6-2-15.7-8.7-27-15.1-35.7-20-33.7-19-41-19-6.2 0-7 .3-16.1 5.8m27.6-1.4c3.9 1.9 9.5 4.8 12.5 6.6 3 1.7 14.5 8.1 25.5 14.2 11 6 22 12.1 24.5 13.5 2.5 1.3 8.6 4.7 13.5 7.5 5 2.7 11 6.1 13.5 7.5s11.7 6.5 20.5 11.4 16.7 9.5 17.5 10.4c1 1 1.6 4.4 1.8 12.1.4 10.6.4 10.6-2.4 8.6-2.5-1.7-19.8-11.5-37.4-21-3-1.7-8-4.4-11-6-3-1.7-8.6-4.7-12.5-6.8-3.8-2.1-8.7-4.9-10.7-6.2-2.1-1.3-4-2.3-4.3-2.3s-2.2-1-4.3-2.3c-2-1.3-6.6-4-10.2-5.9-3.6-2-13.8-7.7-22.7-12.6-8.8-5-17.9-9.6-20.1-10.2-5.6-1.5-11.4 0-20.3 5.3-4.1 2.4-9.6 5.6-12.4 7.1-2.7 1.6-14.9 8.6-27 15.6s-24 13.9-26.5 15.2c-2.5 1.4-6.6 3.7-9.2 5.1L185 373v-9.9c0-8.1.3-10.1 1.8-11.3 1.7-1.5 27-16.8 27.8-16.8.2 0 6.4-3.5 13.7-7.8 23.6-14 40.1-23.5 43.7-25.4 5.6-2.8 11.5-2.3 19.5 1.7m-2.7 21.2c2.1.9 9.5 5 16.5 9 7.1 4 13 7.3 13.2 7.3s3.8 2 7.9 4.5c4.2 2.5 7.9 4.5 8.1 4.5s3.9 2 8.1 4.5c4.1 2.5 7.7 4.5 7.9 4.5s2.8 1.4 5.7 3.1 7.9 4.6 11.3 6.4c54.1 29.4 54.7 29.8 52.3 35.1-.6 1.2-2.4 2.8-4.1 3.7-3.8 1.9-11.2 6.1-22.5 12.8-4.6 2.7-8.5 4.9-8.7 4.9s-4.9 2.7-10.5 6-10.3 6-10.6 6c-.2 0-4.1 2.2-8.6 4.9-18.2 10.7-26.8 14.6-32.2 14.6-6.1 0-5.2.4-40.6-20-15.1-8.7-29.5-16.9-32-18.3s-4.9-2.8-5.5-3.2c-.5-.4-10.1-6-21.2-12.3-11.1-6.4-21.7-12.6-23.5-13.7s-5.4-3.1-8-4.5c-8.4-4.4-8.7-8.8-1-13.1 6.1-3.5 21.3-12.2 32.7-18.9 5-2.9 11-6.3 13.5-7.7s9-5.1 14.5-8.3c21.4-12.5 23.3-13.4 28.8-13.4 2.7-.1 6.5.7 8.5 1.6"/><path d="M280.4 335.1c.4 5.7.9 10.5 1.1 10.8.3.2.5-4.1.5-9.7 0-6.5-.4-10.3-1.1-10.8-.9-.5-1 2-.5 9.7M300.9 348.7c-3 3-6.7 6.1-8.2 6.9s-2.5 1.9-2.2 2.3c.2.5 6 3.9 12.7 7.6 6.8 3.8 13.9 7.7 15.8 8.8 8.7 4.9 27.3 15.4 35.5 19.9 4.9 2.8 10 5.7 11.3 6.6 1.8 1.2 3 1.3 5.7.5 2.9-.9 3.9-.7 7.5 1.4 2.3 1.4 4.4 2.3 4.7 2 .5-.5-4.8-4.2-7.2-5-.5-.2 1.1-2.9 3.8-5.9 2.6-3.1 4.7-6 4.7-6.5 0-1.1-.5-1.4-24.7-14.7-11.4-6.3-27.5-15.2-35.8-19.8-8.2-4.6-15.7-8.7-16.6-9-1.1-.4-3.3 1.1-7 4.9m11.8-1.1c2.6 1.5 5.3 3 5.8 3.4.6.4 4.2 2.4 8 4.5 3.9 2.1 10.9 6 15.6 8.6 8.6 4.9 14.4 8 31.7 17.4 5 2.7 9.2 5.4 9.2 6 0 1.7-10.1 12.5-11.6 12.5-3 0-1.2-3.2 3.7-6.1 6.3-3.9 5.8-4.9-.7-1.3-4.8 2.7-4.8 2.7-8.7.5-2.1-1.3-4.1-2-4.4-1.8-.2.3 1.4 1.6 3.6 2.9 2.3 1.3 4.1 3.1 4.1 4 0 2.3-1.7 2.2-5.5-.3-1.6-1-3.7-2.2-4.5-2.6s-4.8-2.6-8.8-5c-4.1-2.4-7.5-4.3-7.7-4.3s-3.6-1.9-7.7-4.3c-4-2.4-8-4.6-8.8-5s-3.3-1.8-5.5-3c-2.2-1.3-6.9-3.9-10.5-5.9-19-10.3-17.7-9.5-16.3-10.9.9-.9 2.4-.5 5.7 1.4 2.5 1.4 4.6 2.2 4.6 1.8s-1.6-1.6-3.5-2.7c-1.9-1-3.5-2.1-3.5-2.3 0-.8 9.4-10.1 10.2-10.1.4 0 2.9 1.2 5.5 2.6"/><path d="M313.2 356.4c-3.6 1.7-4.7 3.5-3.8 6.9.4 1.8 5.3 4.9 20.8 13.4 11.2 6.1 21.5 11.4 23 11.8 1.7.4 4.2 0 7.2-1.4 4-1.7 4.6-2.4 4.6-5 0-3.5-1.7-4.8-16.8-12.8-4.8-2.6-12-6.6-16.1-9-8.4-5-13.9-6.1-18.9-3.9M334 363c30.8 16.9 30.5 16.7 29.5 20.1-.8 2.3-4.2 3.9-8.5 3.9-2.9 0-12.7-4.8-33-16.2-9.7-5.5-11.5-6.8-11.5-8.9 0-3.2 5.7-6.2 10-5.3 1.7.3 7.7 3.2 13.5 6.4M263 357.7c-8.5 5.2-16.2 9.7-17 10-.8.4-3.3 1.8-5.5 3.2-6.1 3.9-7 4.4-12 7.1-2.6 1.3-4.2 2.6-3.6 2.8 1 .3 55.1-31.4 55.1-32.3 0-1.1-2.2.1-17 9.2M285 350.1c3.4 2.3 7 3.9 7 3.1 0-.5-1.6-1.6-3.5-2.5-4-1.9-5.8-2.2-3.5-.6M268.5 358.3c-5.5 3.5-16.7 10.3-24.8 15.2-8.1 4.8-14.6 9-14.3 9.2.4.4 48.3-28 50.1-29.8 2.5-2.5-1.9-.3-11 5.4M257.2 369.6c-13.4 8-24.1 14.8-23.9 15 .3.3 5.7-2.7 12.1-6.6 6.4-3.8 11.9-7 12.1-7s3.5-1.9 7.2-4.3 8.4-5.1 10.5-6.2c4.4-2.3 8.7-5.5 7.3-5.5-.5 0-11.9 6.6-25.3 14.6M265.5 369.6c-10.4 6.3-20.5 12.4-22.4 13.5-1.8 1.1-3.1 2.2-2.9 2.5.5.4 40.2-22.8 44.3-26 1.1-.8 1.6-1.5 1-1.5-.5 0-9.5 5.1-20 11.5M280.5 365c-2.2 1.6-4.3 2.9-4.7 3-.4 0-3.2 1.6-6.2 3.5-3.1 1.9-7.7 4.8-10.3 6.3-8.9 5.1-11.3 6.7-11.3 7.4 0 .4 2.4-.7 5.4-2.5 2.9-1.7 11.4-6.8 18.9-11.2s13.6-8.3 13.7-8.8c0-1.3-1.4-.7-5.5 2.3M274.2 372.2c-.6.7-3.5 2.6-6.6 4.2s-5.6 3.3-5.6 3.8c0 .6 1.7-.1 3.8-1.3 10.6-6.5 12.6-7.9 11.1-7.9-.9 0-2.1.6-2.7 1.2M271.4 377.6c-1.8 1.4-1.8 1.5.4.4 1.2-.6 2.2-1.3 2.2-1.5 0-.8-.5-.6-2.6 1.1M190 379.9c1.4.8 25.1 4.1 29.4 4.1 4.5 0 .3-.9-10.9-2.4-20.2-2.7-20.1-2.7-18.5-1.7M225 385.5c0 .2 2.1 1.6 4.8 3.1 8.2 4.7 23.5 13.6 29.2 16.9 3 1.8 8.4 4.8 12 6.8 3.6 1.9 8.9 4.9 11.8 6.6s5.5 3.1 5.7 3.1c.3 0 3.9 2 8.1 4.5 4.1 2.5 7.7 4.5 8 4.5.2 0 3.8 2 8 4.5s8.1 4.4 8.6 4.3c.8-.3-12-7.9-27-16-2.9-1.6-8.1-4.5-25.7-14.3-7.9-4.4-37.9-21.7-39-22.5-1.4-1-4.5-2-4.5-1.5M409 402c-1.9.5-7.7 1.4-12.7 2.1-5.1.6-9.3 1.5-9.3 2s1 .7 2.3.4c1.2-.2 7.4-1.2 13.7-2.1s11.9-2 12.5-2.5c1.1-1.1-1.6-1-6.5.1M365.5 416.2c-8.2 4.9-17 10.1-19.5 11.5-13.2 7.4-20.1 11.6-19.7 12 .3.2 2.7-.9 5.4-2.5s7.1-4.2 9.8-5.7c9.8-5.4 38-21.8 40-23.1 1.3-1 1.5-1.4.5-1.3-.8 0-8.2 4.1-16.5 9.1M323.3 449c0 4.1.2 5.8.4 3.7.2-2 .2-5.4 0-7.5-.2-2-.4-.3-.4 3.8M158.3 315.5c0 3.8.2 5.3.4 3.2.2-2 .2-5.2 0-7-.2-1.7-.4-.1-.4 3.8M158.3 331.5c0 3.8.2 5.3.4 3.2.2-2 .2-5.2 0-7-.2-1.7-.4-.1-.4 3.8M158.3 348c0 3.6.2 5 .4 3.2.2-1.7.2-4.7 0-6.5-.2-1.7-.4-.3-.4 3.3M158.3 366c0 4.1.2 5.8.4 3.7.2-2 .2-5.4 0-7.5-.2-2-.4-.3-.4 3.8M504 386v12l41.3-.2 41.2-.3.3-11.8.3-11.7H504zm80.8-.3.3 10.3H505v-20l18.3-.2c10-.2 27.9-.3 39.7-.3h21.5z"/><path d="M521.1 381.1c-1.7 1.4-1.9 1.9-.7 1.9s1.6 1 1.6 4.5c0 5.2 1.5 6 2.4 1.2.5-2.6 0-8.6-.7-9.3-.1-.1-1.3.6-2.6 1.7M548 381c-2 1.6-2.2 2-.7 2 1.4 0 1.7.9 1.7 4.5 0 2.5.5 4.5 1 4.5.6 0 1-2.8 1-6.5 0-3.6-.1-6.5-.2-6.5-.2 0-1.4.9-2.8 2M557 381c-2 1.6-2.2 2-.7 2 1.4 0 1.7.9 1.7 4.5 0 2.5.5 4.5 1 4.5.6 0 1-2.8 1-6.5 0-3.6-.1-6.5-.2-6.5-.2 0-1.4.9-2.8 2M566.8 383.3c-2.5 6.4-3 8.7-2 8.7.5 0 1.2-.9 1.5-2 .3-1.3 1.4-2 3-2 1.7 0 2.8.7 3.2 2 .9 2.8 2.8 2.5 2-.3-1.5-5.2-4.1-10.7-5-10.7-.5 0-1.8 1.9-2.7 4.3m4.2 1.9c0 .5-.7.8-1.5.8-1.5 0-2-2.1-.8-3.3.7-.7 2.3 1.1 2.3 2.5M509 383.4c0 3 .2 3.3 2.5 2.8 2.8-.5 4.5 2.2 2.6 4.1-.9.9-1.7.8-3.2-.1-2.3-1.5-3.9-.8-2.2.9 1.5 1.5 6.4.7 7.7-1.4 1.5-2.4-.4-5.1-3.8-5.5-3.5-.4-2.9-2.5 1-3.3 2.7-.6 2.7-.7-.8-.8-3.7-.1-3.8 0-3.8 3.3M537 383.8c-3.5 5.2-3.5 5.2-.1 5.2 2.1 0 3.1.5 3.1 1.5 0 .8.5 1.5 1 1.5.6 0 1-.7 1-1.5s.5-1.5 1.2-1.5c.9 0 .9-.3 0-1.2-.7-.7-1.2-2.7-1.2-4.5 0-4.4-1.9-4.2-5 .5m3 1.2c0 1.1-.7 2-1.5 2-1.3 0-1.4-.4-.5-2 .6-1.1 1.3-2 1.5-2 .3 0 .5.9.5 2M529 387c0 .5.9 1 2 1s2-.5 2-1c0-.6-.9-1-2-1s-2 .4-2 1M158.3 383c0 3.6.2 5 .4 3.2.2-1.7.2-4.7 0-6.5-.2-1.7-.4-.3-.4 3.3M158.3 402.5c0 3.8.2 5.3.4 3.2.2-2 .2-5.2 0-7-.2-1.7-.4-.1-.4 3.8M158.3 420.5c0 3.3.2 4.5.4 2.7s.2-4.5 0-6-.4 0-.4 3.3M155.1 430.9c-1.8 3.5-2.1 5.9-2.1 17.6 0 11.8-.3 14.1-2.1 17.7-2.7 5.3-1.6 8.2 4 9.9 4 1.2 4 1.2 4.4 13.8l.3 12.6.2-12.6c.2-12.7.2-12.7 3.4-13.3 6.9-1.4 8.7-6.4 4.3-12.2-2.4-3.1-2.5-4-2.5-15.6 0-7.4-.4-12.8-1.1-13.5-.5-.5-1.8-2.5-2.7-4.3-2.4-4.7-3.8-4.7-6.1-.1m4.5-.2c2 2.7 1.7 3.3-1.6 3.3-2.8 0-2.9-.1-1.8-2.5 1.3-3 1.7-3 3.4-.8m3.4 5.8c.7.8 1.1 1.5.9 1.5-4.6.6-9.9.6-9.9.1 0-3 6.8-4.2 9-1.6m-.9 3.5c3.5 2 2.2 3.5-3.1 3.5-5.4 0-6.8-1.8-2.7-3.5 3-1.2 3.5-1.2 5.8 0m-.7 5c4.5 1.7 3.2 3.6-2.4 3.6-6.4 0-6.5-2.3-.3-4.5.1-.1 1.3.3 2.7.9m.7 5c1 .6 1.9 1.8 1.9 2.8 0 1.4-1 1.7-5 1.7-5.5 0-6.5-1.4-2.8-3.9 2.6-1.9 3.3-1.9 5.9-.6m.3 5.6c.9.3 1.6 1.4 1.6 2.3 0 1.2-1 1.6-4.5 1.6-5.1-.1-6.3-.8-4.5-3 1.3-1.5 4.6-2 7.4-.9m1.9 7.1c1.5 1.7 1.2 1.8-4.8 1.8s-6.3-.1-4.8-1.7c2.1-2.3 7.5-2.3 9.6-.1m-.2 3.5c4.8 1.4 6 4.2 3 7.2s-12.1 3-15.1 0c-2.6-2.6-1.7-5.2 2.4-7 3.9-1.7 4.9-1.7 9.7-.2"/><path d="M159.1 468.2c-.1 1.4-1 1.8-3.7 1.8-2.1 0-3.3.4-2.9 1 .3.5 1.9 1 3.5 1 1.5 0 3.1.6 3.3 1.2q.6 1.5.6 0c.1-.7 1.5-1.2 3.6-1.2 1.9 0 3.5-.5 3.5-1 0-.6-1.5-1-3.4-1-2.4 0-3.6-.5-3.9-1.8-.4-1.6-.5-1.6-.6 0M477 465.9c0 .6-3.1 4.4-7 8.5-3.8 4.2-7 8.1-7 8.8s.7 3.5 1.6 6.3c5.8 19.1 10.7 41.3 13.6 62.5 3.1 22.4 3 75.2-.1 105-4.5 42.4-11.2 76.9-22.8 118-6.2 22-18.3 59.5-23.8 74-1.8 4.7-4.8 12.5-6.6 17.3-2.9 7.6-3.7 8.7-5.4 8.3-1.1-.3-5.1-1.4-9-2.6-14.5-4.3-22.4-5.4-38.5-5.4-8.5 0-17.3.6-19.5 1.2-4 1.2-4 1.2.7.8 2.6-.2 4.6 0 4.3.4-.9 1.4-13 4.2-17 3.8-4-.3-4-.3 1.9-1.8 3.3-.7 5.4-1.6 4.8-1.8-1.7-.5-42.3 11.3-53.1 15.5-9.8 3.9-26.4 12.7-36.7 19.6-7.6 5.1-9.4 8.5-9.3 17 .1 8.8.8 10.7 3.7 9.6 1.2-.5 2.2-1.5 2.2-2.2 0-.8 1.2-3.2 2.6-5.3 2.2-3.2 2.3-3.6.5-2-1.1 1-2.6 3.4-3.3 5.2-.7 1.9-1.5 3.4-2 3.4-3.3 0-3.6-14.4-.4-19.2 1.7-2.5 2.4-2.8 7.7-2.8 5.6 0 9.7 1 26.8 6.7 4 1.3 7.5 2.2 7.8 1.9s-4.8-2.1-11.3-4.2c-14.3-4.4-13.8-4.2-12.2-6.2 1.2-1.3 1-1.4-.9-.4-1.2.7-4.8 1.2-8 1.2-5.8 0-5.8 0-3.3-2 7.8-6 21.1-9.8 24.5-7 .9.7 1.8 1 2.2.6 1.3-1.3-1-2.1-6.3-2.1-6.5 0-5.8-.8 5.6-6.2 16.8-8 40.9-15 54.3-15.9 7.8-.5 22.7-4.4 25.5-6.7 3.2-2.6 33.5 1.3 49.4 6.4 5.7 1.8 6.7 2.4 6.4 4.2-.1 1.2-.9 2.3-1.7 2.5-.8.3-2.9 1.1-4.6 1.9-1.9.9-4 1.2-5 .8-2.2-1-3.9-.8-13.3 1.2-4.1.9-7 1.8-6.4 2s3.7-.3 6.9-1.2c3.3-.8 7.3-1.5 9-1.4 2.2 0 .8.8-5.5 3-10.1 3.5-21.2 8.1-20.7 8.6.2.2 3.6-1 7.5-2.7 8.6-3.7 11.2-3.8 5.4-.3-2.4 1.4-4.1 2.7-3.8 3 .2.2 2.5-.9 5.1-2.5 3-1.9 4.2-3.1 3.4-3.5-.8-.3-.6-.5.6-.4 1.1 0 3.1-.3 4.5-.8 1.4-.4-1.7 2-6.8 5.4s-12.3 9.2-16 12.9c-5 5.1-7.9 7.2-11.2 8.2-2.5.7-4 1.5-3.3 1.7s2.1 0 3.2-.6 2.7-1.1 3.6-1.1 4.9-3.3 8.8-7.3c8.7-8.9 16.9-15.1 18.4-13.6.6.6 4-.7 9.7-3.7 8.6-4.5 9.1-4.7 19.9-5.2 8.2-.4 11.4-.9 12.6-2.1 7.3-7.2 16.1-12.2 16.1-9.1 0 .7.6.7 1.9 0 2.8-1.4 5.6-1.3 7.1.4.6.8 1.5 4.6 2 8.3l.9 6.8-.3-6.7c-.3-10.1-1.6-11.2-13.1-10.5-4.9.4-10.3 1.1-12 1.7-2.7.9-2.6 1 1.5.5l4.5-.5-5.5 5c-5.4 4.9-5.6 5-12.2 5-6.4 0-6.6-.1-6-2.3.3-1.2 1-2.5 1.5-2.8.5-.4 0-1-1.2-1.4-2.7-.8-2.7-.9 1-9.6 6.6-15.8 8.2-19.9 13.9-34.9 7.7-20.6 19.9-57.4 24.5-74.1 2-7.4 4.3-15.4 5-17.9 3.8-12.4 11.5-46.6 14.5-63.9 8-45.7 11.1-100.2 8-137.6-1.3-16.6-6.1-49.3-7.5-51.5-.3-.6-1-3.1-1.5-5.8-1.5-8-4.2-17.2-5.1-17.2-.5 0-.9.4-.9.9m-54 412.6c0 .3-.2.5-.5.5s-.5-.2-.5-.5.2-.5.5-.5.5.2.5.5M179.6 489.6c-1.4 3.7-.4 11.4 1.5 11.4.6 0 .5-1-.2-2.1-.7-1.3-.9-4-.5-6.5.6-4.5.3-5.6-.8-2.8M184.3 488.7c-.7.2-1.3 1.2-1.3 2.1 0 1.2.3 1.3 1.2.4.7-.7 1.8-1.2 2.5-1.2 2.2 0 1.5 2.7-1.2 4.4-3.5 2.3-3.2 4.6.5 4.6 1.7 0 3-.5 3-1 0-.6-1-1-2.2-1-2.3-.1-2.3-.1 0-1.9 2.6-2.2 2.9-5.6.6-6.5-.9-.3-1.6-.6-1.7-.5-.1 0-.8.3-1.4.6M191.5 494.5c0 4.2.3 6.1 1 5.4 1.2-1.2 1.1-8-.1-10.2q-.9-1.65-.9 4.8M116 505.5c-1.7 2.1-.8 5 1.8 5.3 2.3.3 2.9 1.6 1.3 2.7-.5.3-1.2.1-1.6-.5-1-1.6-2.5-1.2-1.9.5.7 1.8 3.5 2 5.2.3.7-.7 1.2-2.6 1.2-4.3 0-4.9-3.4-7.2-6-4m4 2.6c0 1-.7 1.9-1.5 1.9-1.5 0-2.1-3.1-.9-4.3 1.1-1 2.4.3 2.4 2.4M123.9 505.6c-1.7 2-.1 4.8 3 5.2 1.8.3 2 .6 1 1.8-.9 1.2-1.5 1.2-2.7.2-1.3-1.1-1.4-1-1 .2.2.8 1.4 1.6 2.5 1.8 1.5.2 2.4-.6 3.3-2.8 2.4-5.7-2.4-10.8-6.1-6.4m5.1 1.9c0 1.9-2 2.9-3.2 1.7-1.5-1.5-.2-4.3 1.7-3.6.8.3 1.5 1.2 1.5 1.9M132.7 504.7c-.2.5-.5 2.7-.5 5-.2 3.4.2 4.3 1.9 4.8 4 1.3 5.1-1.5 4-9.8-.1-.4-1.2-.7-2.5-.7-1.4 0-2.7.3-2.9.7m4.3 2.4c0 .5-.7.9-1.5.9-1.5 0-2-1.2-.9-2.3.8-.8 2.4.1 2.4 1.4m.5 3.8c.3.5.1 1.3-.5 1.6-1.5.9-4.3-.3-3.5-1.5.8-1.3 3.2-1.3 4-.1M141.2 505.2c-3.1 3.1-.3 10.6 3.7 9.3 3.1-.9 2.6-5.9-.6-6.3-2.4-.4-3-1.6-1.3-2.7.6-.4 1.8-.1 2.7.7 1.4 1.1 1.6 1.1 1.1-.2-.6-1.9-4-2.4-5.6-.8m4.3 5.8c0 .8-.8 1.6-1.7 1.8-1.3.2-1.8-.3-1.8-1.8s.5-2 1.8-1.8c.9.2 1.7 1 1.7 1.8M149.7 504.7c-1.4 1.3-.6 2.5.8 1.3 1.2-1 1.9-1 2.7-.2s.7 1.3-.5 1.8c-2.1.8-2.2 2.4-.2 2.4.8 0 1.5.7 1.5 1.5 0 1.8-3.6 2-4.3.2-.2-.6-.8-.9-1.2-.5-1.1 1.1 1.4 3.8 3.5 3.8 1 0 2.2-.6 2.8-1.3 1.1-1.3 1-6.6-.2-8.5-.8-1.3-3.9-1.6-4.9-.5M162.6 505.6c-1.3 3.3-.6 7.3 1.4 8.4 1.1.6 2.5.8 3.1.4 3.6-2.2 2.4-10.4-1.6-10.4-1.3 0-2.6.7-2.9 1.6m5.2 4.3c-.2 1.5-1 2.7-2 2.9-1.4.3-1.8-.4-1.8-3.1 0-1.8.3-3.7.7-4 1.2-1.3 3.4 1.6 3.1 4.2M171 506.9c0 2.5.3 2.8 2.5 2.3 2.1-.3 2.5 0 2.5 1.8s-.4 2.1-2.5 1.8c-1.4-.3-2.5-.2-2.5.2 0 1.2 2.8 2 4.4 1.4 3.3-1.2 2.8-6.4-.5-6.4-2.7 0-2.4-2.8.4-3.3 1.6-.3 1.3-.5-1-.6-3-.1-3.3.2-3.3 2.8M179.7 504.7c-.4.3-.7 1.3-.7 2.2 0 1.1.3 1 1.4-.5 1.2-1.6 1.7-1.7 2.8-.6s.9 1.7-1.1 3.3c-3.1 2.5-2.1 3.6 1.3 1.4 2.7-1.8 3-2.4 2-4.9-.6-1.6-4.5-2.2-5.7-.9M188 506.8c0 2.3.4 2.8 2.3 2.8 1.3-.1 2.2.5 2.2 1.4 0 1-.9 1.4-3 1.3-2.8-.2-2.9-.1-1 1.3 2.2 1.7 3.4 1.4 4.9-.9 1.4-2.1-.4-5.3-2.8-4.9-.9.2-1.6-.4-1.6-1.2s1.2-1.6 2.8-1.9c2.5-.4 2.5-.4-.5-.6-3-.1-3.3.2-3.3 2.7M157.5 510c-.3.5.3 1 1.5 1s1.8-.5 1.5-1c-.3-.6-1-1-1.5-1s-1.2.4-1.5 1M178.4 513.2c-.9 1.4 2.4 2 5.3 1 2.8-.9 2.8-.9-1-1.4-2.1-.2-4 0-4.3.4"/><path d="M431.5 876.5c-2.2.8-3.3 1.4-2.5 1.4s3.5-.6 6-1.3c2.5-.8 3.6-1.4 2.5-1.4s-3.8.6-6 1.3M450.3 877.9c-4 2.9-8.3 7.7-8.3 9.2 0 .9 17 9.2 17.6 8.6.2-.2-2.7-1.8-6.6-3.6-3.8-1.8-7-3.7-7-4.2 0-2.3 11.8-10.9 15.1-10.9 1.1 0 1.9 1.1 2.3 3.1 1 5 .7 15.7-.4 16.2-.6.3-.5.4.2.3 1.5-.3 2.3-11.9 1.3-17.4-.4-2.4-1.1-3.2-2.7-3.2-3 0-10.7 4.7-14.5 8.8-2.9 3-3.3 3.2-3.3 1.4 0-1.2 1.5-3.3 3.6-4.9 6.7-5.2 7.9-6.2 7.3-6.3-.3 0-2.4 1.3-4.6 2.9M388 881.1c-7.4 2.3-15.2 4.6-17.2 5.2-3 .9-4.8.8-9.3-.7-3.1-1-5.9-1.6-6.1-1.3-.3.3.7.8 2.1 1.1 5.7 1.4 13.6 4.8 13.3 5.7-.2.6-4.3 2.8-9.2 4.9-8 3.6-9.5 3.9-14.5 3.4-10.7-1.2-29.1-8-29.1-10.8 0-.8 1-2.2 2.2-3 1.6-1.2 1.8-1.6.7-1.6-1.8 0-4.9 3.1-4.9 4.8 0 1.4 9.4 6.2 16.8 8.6 2.8 1 5.2 1.9 5.2 2.2 0 .2-4 2.4-8.9 4.9-9.8 4.8-16.1 9.7-16.1 12.4 0 1.1.6.7 1.9-1.3 2.4-3.5 5.3-5.5 16.8-11.1 8.9-4.4 14.2-5.5 17.2-3.6 1.1.7.7 1.3-1.5 2.7-8 5.1-17.5 12.9-19.9 16.4-3 4.3-4.5 12.3-2.6 13.4 2 1.3 1.2 2.4-2.4 3-8.3 1.6-13 10.2-12.2 22.4.4 5.8 2.5 14 2.6 10.4.1-1.9 1.4-1.5 11.7 3.3 5.3 2.5 9.8 4.4 10.1 4.2.4-.5-8.4-4.9-16.7-8.3-5.5-2.3-5.5-2.3-6.4-7.6-1.2-7.4.7-15.9 4.3-19.5 1.5-1.6 4.9-3.4 7.5-4.1 4.6-1.2 4.7-1.2 11 2.8 7 4.4 31.6 16.4 32.2 15.7.3-.2-2-1.6-5-3L356 950l2.1-4.7c1.1-2.7 4.2-9.2 6.9-14.6 2.8-5.4 5-10.2 5-10.7 0-.6-1.2-.9-2.7-.9-2.3.1-2.4.2-.6.6 2.5.5 2.3 1.6-1.2 7.3-1.9 3.2-5.1 10.1-9 19.4l-1.6 3.7-9.9-5.3c-6.7-3.5-9.9-5.8-9.8-6.8.2-.8 6.8-5.2 14.8-9.7 8-4.6 13.9-8.3 13.3-8.3-.7 0-4.2 1.8-7.7 4-3.6 2.2-9.2 5.3-12.5 7-3.3 1.6-6.9 4-8.1 5.2-1.5 1.6-2.3 1.9-3.1 1.1s3-3.6 14.5-10.4c8.6-5 15.4-9.4 15.2-9.6s-7.2 3.7-15.6 8.6c-8.3 5-16 9.1-17 9.1-4.8 0-4.8-8.2 0-14.8 2.8-4 13.7-12.6 22.5-17.8 5.5-3.3 19.5-9.5 29.5-13 3.6-1.2 5.7-2.3 4.7-2.3-1-.1-3.4.6-5.4 1.4-4.1 1.7-8.9 2-9.8.5-.8-1.2 1.4-2.1 18.2-7 12-3.4 16.6-5.1 13.7-5-.5.1-7 1.9-14.4 4.1M416.3 877.7c.4.3 1 .3 1.4 0 .3-.4 0-.7-.7-.7s-1 .3-.7.7"/><path d="M327.2 882.2c-6.7 1.5-4.2 2.1 2.7.7 5.6-1.1 10.8-.9 21.1.5 2.3.4 1.7 0-1.5-.8-5.8-1.6-16.1-1.8-22.3-.4M468.2 893.7c-.2 4 0 4.4 3.1 5.7 7.2 2.9 42.7 13.9 43.3 13.3.4-.4-16.1-5.8-29.3-9.6-4-1.2-9.2-3-11.7-4-4-1.8-4.5-2.4-4.9-5.8-.4-3.8-.4-3.8-.5.4M363.5 901.9c-14 7.3-18.7 10.3-24.2 15.4-5.6 5.1-10.8 12.6-9.7 13.7 1.3 1.2 40-20.6 46.5-26.2 2.9-2.6 6.5-5.6 7.9-6.8 2.5-2.2 2.5-2.2-.5-.4-1.6.9-3.9 2.6-5 3.6-4 3.8-12.1 9.6-17.5 12.6-3 1.6-10.3 5.7-16.2 9s-11.4 6.2-12.2 6.5c-3.6 1.4-1.1-2.3 6.7-9.8 7.2-7 10-8.9 22.7-15.4 15.7-7.9 16-8.1 13.9-8-.8 0-6.3 2.6-12.4 5.8M276.2 901.7c-2.4 1.4-4.1 2.7-3.9 2.9.4.5 9.7-4.5 9.7-5.2 0-.8-1.5-.2-5.8 2.3M516.3 913.7c.4.3 1 .3 1.4 0 .3-.4 0-.7-.7-.7s-1 .3-.7.7M519.1 914.4c.4.4 31.7 10.4 35.4 11.3 1.9.4 1.9.4.2-.7-1-.7-7.8-2.9-15-5-7.3-2.1-14.5-4.3-16-4.9-2.8-1.1-5.4-1.5-4.6-.7M295.1 917.4c1 1 14.1 5.7 14.5 5.3.3-.3-2.6-1.7-6.3-3.1-6.3-2.4-9.3-3.2-8.2-2.2M261.2 918.8c-.9.6.2.9 3 .9 7.6 0 14.7 5.8 21 17 1.7 3 3.3 5.2 3.5 4.9.3-.3-1.1-3.2-3.1-6.4-3.9-6.4-9.6-12.5-13.6-14.7-3.5-1.8-9.2-2.7-10.8-1.7M312 919.5c0 .3.2.5.5.5s.5-.2.5-.5-.2-.5-.5-.5-.5.2-.5.5M312.3 922.5c-.8.9.2 1.8 4.3 3.8 3 1.5 5.4 2.2 5.4 1.7s-1.1-1.2-2.5-1.6c-1.4-.3-3.3-1.6-4.3-2.9-1.3-1.7-2-1.9-2.9-1M557.3 926.7c.4.3 1 .3 1.4 0 .3-.4 0-.7-.7-.7s-1 .3-.7.7M553.7 928.4c1.6 2.8-.1 5.7-5 8.9-4.6 2.9-10.1 7.3-7.7 6.1.8-.4 4.1-2.6 7.2-4.8 5.8-4 5.8-4 9.3-2.3 1.9.9 3.5 2 3.5 2.4 0 .5-1.9 2-4.3 3.5-2.3 1.5-5.5 3.9-7.2 5.3l-3 2.6 3-1.8c1.7-.9 5.3-3.5 8.2-5.6 4.5-3.3 5.5-3.7 7.3-2.7 1.2.6 2.4.9 2.7.6.3-.2-2.5-1.8-6.1-3.5-6-2.7-6.6-3.2-6.1-5.4.4-1.6.1-2.8-1.1-3.8-1.6-1.3-1.7-1.2-.7.5"/><path d="M569 931.9c23.6 11.9 41.9 26.9 41.9 34.1 0 1-.7.6-2.2-1.1-2.4-2.9-16.6-12.4-17.3-11.6-.3.2 1.7 1.7 4.3 3.2 7.4 4.2 11.3 7.4 13.4 10.9 1 1.7 1.9 2.5 1.9 1.8 0-2.6 1.7-1 2.8 2.7 1.9 6.1 1.5 11-1.4 15.8-2.1 3.7-3 4.4-5.2 4.1-2.5-.3-2.7-.7-3-5.7-.3-4.7.1-6 2.8-9.8 1.8-2.4 3-4.6 2.8-4.9-.3-.2-2 2-3.8 4.9-1.8 2.8-4.3 6.1-5.4 7.2-1.2 1.1-1.7 1.7-1.2 1.2 1.8-1.3 2.4-.8 3 2.8.7 3.5 2.9 6.5 4.8 6.5.6 0 2.6-1.6 4.4-3.6 1.9-1.9 3.4-3.1 3.4-2.6 0 2-6.1 9-11.8 13.6-3.4 2.7-6.2 5.1-6.2 5.3 0 1 7.1-4.7 12.7-10.2 4.6-4.6 6.2-7 6.5-9.4.3-3.3.3-3.3 3.3-1.1s3 2.2-.1-.8c-2.6-2.4-3.2-3.9-3.6-8.4-1-12.3-9.6-23.3-27.5-35-9.3-6.1-25.7-14.8-27.9-14.8-.5 0 3.4 2.2 8.6 4.9M258.5 930.2c-2.6 1.5-3.3 2.5-4.6 7.1-.9 3.5-.7 4.3 2 8.8 1.8 2.9 3.1 6.3 3.1 8.2 0 5.7 6.5 23.7 8.5 23.7.3 0-.6-2.2-1.9-4.8-3.5-7-5.9-16.9-5.3-22.5.5-5.9 3-9.4 8.6-12.6 4.2-2.3 4.2-2.3 6.7 0 2.9 2.7 3.2 4.4.4 2.9-3.4-1.8-2.2-.4 1.9 2.3 2.1 1.4 6 5.7 8.6 9.6 2.5 3.9 4.9 7.1 5.1 7.1.9 0-2-4.6-8.7-14.1-6.7-9.3-11.4-13.7-17.2-15.8-3.5-1.4-4.7-1.3-7.2.1m8.5 1.4c2.2.9 4 2.2 4 3 0 .7-1.8 2.3-4 3.4-2.6 1.3-4.7 3.4-6 6-1.1 2.2-2.3 4-2.6 4-1 0-3.4-7-3.4-10 0-3.3 3.8-8 6.4-8 .9 0 3.4.7 5.6 1.6M250 934.1c0 .8.7 2.4 1.5 3.5 1.8 2.4 1.9.7 0-2.6q-1.35-2.4-1.5-.9"/><path d="M569.6 941.9c.5.4 4.1 2.5 7.9 4.6 3.9 2.1 7.5 4.1 8 4.5 1.3.9 4.5 2 4.5 1.6 0-.6-6.9-4.7-14-8.3-6.7-3.4-8.1-3.9-6.4-2.4M289 943.5c0 .9 7.4 14 8.9 15.8 1.3 1.6 9.4 5.8 11 5.7.3-.1-1.9-1.4-5-3-5.1-2.6-6-3.6-9.8-10.9-3.7-7.1-5.1-9.2-5.1-7.6M527 951.1c-12.1 7.4-14.8 9.3-9 6.4 8.7-4.4 23.6-14 20.8-13.4-.2 0-5.5 3.2-11.8 7M542.9 951.7c-1.3 1.5-1.2 1.5.9.4 2.3-1.2 2.8-2.1 1.3-2.1-.5 0-1.5.7-2.2 1.7M272.7 954.3c-1 .6-2 3-2.2 5.2-.4 3.7-.4 3.8.4.8 1.3-4.9 3-6.5 6-5.8 6.4 1.6 12.5 11.4 11.9 19.1-.7 8.8-10.4 5.7-15.4-5-1.3-2.8-2.4-4.2-2.4-3.1 0 2.7 5.8 10.9 9.1 12.9 3.6 2.1 6.2 2 8.4-.4 1.4-1.6 1.7-3 1.2-7.5-.7-6.6-3.6-11.6-8.5-15-4.1-2.8-6-3.1-8.5-1.2M530.3 958.9c-5.6 3.3-13.9 7.9-18.3 10.2s-7.8 4.4-7.6 4.7c.3.2 6-2.6 12.8-6.4 6.8-3.7 13.9-7.6 15.8-8.6 3.7-2 8.9-5.7 8-5.8-.3 0-5.1 2.7-10.7 5.9M368.5 956.8c1.1 1.2 19.5 8.5 20.1 8 .2-.2-3.8-2.1-8.9-4.2-12.9-5.3-12.3-5-11.2-3.8"/><path d="M508.7 961.4c-5.7 3.5-5.9 4.3-.2 1.1 5.8-3.2 6.2-3.5 4.9-3.5-.5 0-2.6 1.1-4.7 2.4M292.2 961.7c.2.5 2.1 4.3 4.2 8.6 3.2 6.5 3.8 8.5 3.3 12.2-.2 2.5-.1 4.2.4 3.9s.9-2.4.9-4.7v-4.2l3.8 3.8c3.7 3.8 3.7 3.8 1.2 5.7-3.8 3-11.1 6.2-15.2 6.7-5.2.8-11.7-2.7-17.9-9.5-2.8-3.2-4.7-4.8-4.1-3.7 2 3.7 9.5 10.7 13.6 12.6 2.3 1 5.6 1.9 7.3 1.9 3.6 0 14.3-4.7 18.2-8.1 2.5-2 2.5-2-2.7-7-3.1-3-6.6-7.8-8.7-11.9-1.9-3.9-3.8-7-4.1-7s-.4.3-.2.7M390 965.3c0 .3 2.4 1.3 5.3 2.2 7.9 2.6 7.9 2.7 5.1 12.4-1.3 4.6-2.3 9.7-2.3 11.5.1 2.2.4 1.6 1-2.2.5-2.9 1.8-8 2.9-11.3 1.2-3.4 1.9-6.7 1.6-7.4-.2-.7-2.9-2.1-5.8-3-2.9-1-5.9-2-6.5-2.3-.7-.2-1.3-.2-1.3.1"/><path d="M497.5 967.2c-2.2 1.2-8.3 3.9-13.5 5.9-5.2 2.1-8.9 3.8-8.3 3.8.7.1 4.7-1.3 8.8-2.9 8.3-3.3 19.6-8.9 18-8.9-.5 0-2.8.9-5 2.1M313 971.4c-.1 1.8 5.3 11.7 7.6 13.9 4.4 4.1 2.5 4.9-4.1 1.7-4.3-2.1-7.3-2.7-4.1-.8 2.2 1.2 13.7 5.8 14.5 5.8.3-.1-.5-.7-1.9-1.5s-1.9-1.4-1-1.4c2.1 0 6.9 2.8 5 2.9-.9 0-.5.6 1 1.5 1.4.8 3.3 1.2 4.3.9s1.6-.1 1.5.6c-.2.7 2.9 2.6 6.7 4.4 3.9 1.7 12.8 6.1 20 9.8 7.1 3.7 13.1 6.5 13.3 6.4.1-.2-2.9-2-6.8-4-3.9-2.1-6.8-4.1-6.5-4.6s-.3-1.4-1.4-1.9c-2.5-1.4-3.4-1.4-2.5 0 .4.7.2 1-.5.8-.7-.3-1.2-.9-1.1-1.4.3-1.4-10.3-6.4-12.4-5.8-1.1.3-1.6.1-1.2-.5.3-.5-4-3.2-9.7-6-11.4-5.6-13.2-7.1-17.5-15.7-1.7-3.3-3.1-5.6-3.2-5.1m20 21.6c.8.5 1.1 1 .5 1-.5 0-1.7-.5-2.5-1s-1-1-.5-1c.6 0 1.7.5 2.5 1m5 2.5c0 .3-.2.5-.5.5s-.5-.2-.5-.5.2-.5.5-.5.5.2.5.5m2 1c0 .3-.2.5-.5.5s-.5-.2-.5-.5.2-.5.5-.5.5.2.5.5m2 1c0 .3-.2.5-.5.5s-.5-.2-.5-.5.2-.5.5-.5.5.2.5.5m6 2.5c.8.5 1.1 1 .5 1-.5 0-1.7-.5-2.5-1s-1-1-.5-1c.6 0 1.7.5 2.5 1m6.9 3.6c1.4 1.2-1.9.1-3.5-1.2-1.8-1.4-1.8-1.4.6-.3 1.4.6 2.7 1.3 2.9 1.5m5.8 3.1c-.4.3-1 .3-1.4 0-.3-.4 0-.7.7-.7s1 .3.7.7M407 972c.8.5 2 1 2.5 1 .6 0 .3-.5-.5-1s-1.9-1-2.5-1c-.5 0-.3.5.5 1M415.5 975c2.8 1 5.7 1.8 6.5 1.8s-.7-.8-3.5-1.8c-2.7-1-5.7-1.8-6.5-1.8s.8.8 3.5 1.8M495.5 977c-3.3 1.6-5.3 2.9-4.5 2.9s4-1.3 7-2.9c7-3.7 5.3-3.7-2.5 0M356.9 987.6c11.8 5.7 21.6 10.3 21.8 10.1.4-.5-41.3-20.7-42.4-20.6-.4 0 8.8 4.7 20.6 10.5M426.9 978.5c1.8.8 4.1 1.5 5 1.4.9 0 0-.7-1.9-1.4-4.7-1.8-7.4-1.8-3.1 0M468.6 978.5c-3 1.3-3 1.3.3 3 1.8.9 3.5 1.4 3.8 1.2.2-.3-.5-.8-1.6-1.2-2.9-.9-2.6-2.1.7-3.3 1.5-.6 2-1 1.2-1s-2.8.5-4.4 1.3M436 981c2.5.8 8.7 1.3 7.9.6-.2-.2-2.6-.6-5.4-.9-3.4-.4-4.2-.3-2.5.3M460.8 980.5c-.3.3-4.1 1-8.4 1.5l-7.9.9 7.5-.4c6.6-.3 15.3-2.3 10.9-2.4-.9-.1-1.8.1-2.1.4M484.5 981.5c-1.6.8-2.3 1.4-1.5 1.4s2.6-.6 4-1.4c3.2-1.8 1.5-1.8-2.5 0M474.3 983.6c.1.1 7.8 4.1 17.2 8.9 22.5 11.5 31.6 17 34.3 20.8 1.2 1.8 2.2 2.7 2.2 2.1 0-4-13.4-12.5-43.9-27.9-3.2-1.6-4.9-3-4.3-3.4.7-.4-.4-.7-2.3-.7s-3.3.1-3.2.2M590.3 990.3c-3.5 2.2-6.1 4.3-5.8 4.5.2.3 1.1-.1 2-.8 2-1.6 2.1-1.4 2.9 4.2.7 5 .8 4.9-5.4 9.9-2.9 2.4-.8 1.5 3.3-1.4 2.7-1.8 3-1.9 4.5-.3 1.6 1.6 1.5 1.9-1.8 4.7-1.9 1.7-2.6 2.6-1.5 2 4.6-2.4 6.8-4.9 6.9-7.9.1-1.6-.2-2.8-.6-2.5-.5.2-.8 1.4-.8 2.6 0 1.8-.2 1.9-1.4.7-2-2.2-2.9-14.7-1.1-15.4 1.5-.5 1.7.1 2.9 6.4.3 1.4.3.2.1-2.5-.2-3.5.1-5.5 1.2-6.8 2.2-2.3 1.7-2.1-5.4 2.6M622.4 996.1c-.1 3.8-.9 8.7-1.8 10.9-2 4.9-2 6.1-.3 3.5 1.9-2.8 3.7-10.5 3.7-15.9 0-7.3-1.5-6-1.6 1.5M397.2 997.5c0 1.6.2 2.2.5 1.2.2-.9.2-2.3 0-3-.3-.6-.5.1-.5 1.8M575.7 999.2c-3.7 2.3-6.5 4.3-6.3 4.5.4.5 12.5-6.6 13.2-7.8.8-1.3.6-1.2-6.9 3.3M381.6 999.5c1 .8 2.3 1.5 2.8 1.5.6 0 .1-.7-1-1.5-1-.8-2.3-1.5-2.8-1.5-.6 0-.1.7 1 1.5M427.8 1000.7c1.7.2 4.7.2 6.5 0 1.7-.2.3-.4-3.3-.4s-5 .2-3.2.4"/><path d="M594 1000.5c0 .3.2.5.5.5s.5-.2.5-.5-.2-.5-.5-.5-.5.2-.5.5M387.5 1002.3c2.3 1.6 5.5 2.8 5.5 2.2s-5.6-3.5-6.7-3.5c-.4 0 .1.6 1.2 1.3M418.8 1004.1l-3.3 3.1 4-2.8c2.2-1.6 4.2-2.9 4.4-3.1s-.1-.3-.7-.3c-.7 0-2.6 1.4-4.4 3.1M440.9 1002.5c1.8.8 3.6 1.5 4 1.5 1.3-.1-4.5-2.9-5.9-2.9-.8 0 0 .6 1.9 1.4M446 1004.5c0 .3.2.5.5.5s.5-.2.5-.5-.2-.5-.5-.5-.5.2-.5.5M567 1004.5c0 .3.2.5.5.5s.5-.2.5-.5-.2-.5-.5-.5-.5.2-.5.5M448 1005.4c0 .2 1.7 1.4 3.8 2.5 3.7 2.1 3.7 2.1.7-.4-2.8-2.3-4.5-3.1-4.5-2.1M557 1009.5c-5.1 2.6-9.9 4.4-12.1 4.4-2 .1-6.2 1-9.4 2.1-3.1 1.1-6.1 1.7-6.6 1.4s-.9 0-.9.5c0 1.4 1 1.4 5.7-.3 6.7-2.3 11.7-2.7 14.3-.9 2.1 1.5 2.2 1.5 1.6-.4-.5-1.5.5-2.4 5.9-5.1 7.2-3.5 6.8-3.6 8.6 3.2.7 2.4.8 2.1.4-1.8-.3-2.9 0-5.5.6-6.2 1.5-1.8 1.8-1.9-8.1 3.1M366 1008.5c1.4.8 3 1.4 3.5 1.4.6 0-.1-.6-1.5-1.4s-2.9-1.4-3.5-1.4c-.5 0 .1.6 1.5 1.4M413.8 1010.6c-1.2 2.5-1.6 2.6-6.3.9-1.3-.4-1.2-.1.5.9 3.7 2.3 5.4 1.9 6.7-1.4 1.4-3.7.7-4-.9-.4M372.4 1011.5c1.1.8 2.4 1.5 3 1.5.5 0 .1-.7-1-1.5-1-.8-2.3-1.4-2.9-1.4-.5 0-.1.6.9 1.4M462.5 1017c3.9 4.1 7.1 7.6 7.3 7.9.1.2.4.2.7 0 .5-.5-7.6-9.3-12-12.9-1.7-1.3.2.9 4 5M573.7 1014.2c-3.7 2.3-6.6 4.3-6.4 4.5.5.5 12.5-6.6 13.3-7.8.7-1.2.9-1.3-6.9 3.3M426.3 1012.7c.9.2 2.5.2 3.5 0 .9-.3.1-.5-1.8-.5s-2.7.2-1.7.5M377 1013.5c0 .3.2.5.5.5s.5-.2.5-.5-.2-.5-.5-.5-.5.2-.5.5M418.9 1015.9c-2.5 2.5-2.9 3.7-2.9 8.3.1 2.9.8 6.6 1.6 8.3.8 1.6 1.1 2.1.8 1-.4-1.1-.9-4.7-1.2-8.1-.4-5.7-.2-6.2 2.8-9.2 1.7-1.8 2.9-3.2 2.5-3.2s-2 1.3-3.6 2.9M433.3 1013.7c2.4.6 2.1 1.5-1.5 3.8-4.8 3.1-8.8 8.7-9.3 13.1-.5 3.9-.5 3.9.6-.5 1.2-4.9 8.1-12.6 12.4-13.7 2.5-.6 9.9 1.6 7.7 2.4-.7.2 1 1.5 3.7 2.9 7 3.4 14.2 11.8 19.6 22.4 2.5 5 4.5 8.6 4.5 7.9 0-1.3-6.6-14.8-8.2-16.8-.7-.7-.7-1.2-.1-1.2s3.8 3.8 7.3 8.5 6.5 8.5 6.7 8.5c.6 0-7.6-11.8-8.7-12.5-2.2-1.4-.8-2.4 2.8-2 3.3.4 3.2.3-1-.8-3.2-.8-6.6-2.9-10.9-6.7-10-8.8-22.3-16.3-26.2-15.9-.7.1-.4.3.6.6M614.1 1017.1c-2.4 2.1-4.2 4.1-3.9 4.4.2.3 2.4-1.6 4.8-4 5.4-5.5 5-5.8-.9-.4M379 1014.6c0 .7 5.2 2.5 5.7 2 .2-.2-1-.8-2.6-1.4-1.7-.6-3.1-.9-3.1-.6M584.5 1015c-.3.5-.1 1 .4 1 .6 0 1.1-.5 1.1-1 0-.6-.2-1-.4-1-.3 0-.8.4-1.1 1M273.5 1017c.3.5.8 1 1.1 1s.2-.5-.1-1c-.3-.6-.8-1-1.1-1s-.2.4.1 1M377 1016.4c0 .7 9.3 5.7 9.8 5.2.2-.3-1.9-1.6-4.7-3-2.8-1.5-5.1-2.4-5.1-2.2M579.2 1018.4c-4.6 3.3-5.3 4.3-1.4 2 1.9-1 3.8-2.5 4.4-3.2 1.5-1.7.8-1.4-3 1.2M565.2 1020c0 1.4.2 1.9.5 1.2.2-.6.2-1.8 0-2.5-.3-.6-.5-.1-.5 1.3M517.5 1020.5c-4 .9-5 1.3-3 1.4 1.7 0 5.3-.6 8-1.3 6.2-1.8 3.1-1.8-5-.1M550.2 1022c0 1.9.2 2.7.5 1.7.2-.9.2-2.5 0-3.5-.3-.9-.5-.1-.5 1.8M388 1022.4c0 .5 12.8 7.9 14.5 8.4.6.2-2.1-1.7-6-4.2-6.5-4.2-8.5-5.2-8.5-4.2M505 1024c-2.7 2.7-2.5 6.2.5 9.8 4.1 4.9 7.4 5.7 17.5 4.4 13.6-1.8 27-7.5 27-11.5 0-.5-.9.2-2.1 1.6-2.5 3.3-18.1 8.3-28.4 9.3-6.3.5-7.3.4-10.5-1.8-6.1-4.2-6.5-9.6-.9-12.5 1.8-1 2-1.3.7-1.3-1 0-2.7.9-3.8 2M567.5 1025.6c-3.3 1.9-9.5 5.1-13.8 7.1-4.2 2-7.5 3.8-7.2 4.1.6.6 25.3-11.8 26.6-13.5 1.5-1.8 1.3-1.7-5.6 2.3M603.5 1026.6c-4.3 4-4.5 4.2-.9 1.5 3.8-2.8 7.2-6.1 6.3-6.1-.2 0-2.6 2.1-5.4 4.6M473 1029.3c1.2 2 2.7 4 3.2 4.4 1.4.8-2.3-5.5-4-7-.8-.6-.4.6.8 2.6M404 1031.4c0 .3.9 1 2 1.6s2 .8 2 .6c0-.3-.9-1-2-1.6s-2-.8-2-.6M594 1034.1c-3.5 3.1-3.5 3.1-.3.9 1.8-1.1 3.5-2.5 3.8-3 1-1.6.2-1.1-3.5 2.1"/><path d="M437 1035c-1.1 1.1-2 2.5-2 3.1 0 .7.9 0 2-1.4 1.2-1.6 3.3-2.7 5.3-3l3.2-.4-3.2-.1c-2.1-.1-4 .5-5.3 1.8M409 1034.4c0 .3.9 1 2 1.6s2 .8 2 .6c0-.3-.9-1-2-1.6s-2-.8-2-.6M449.4 1037.1c2.1 1.8 5.1 5.3 6.7 7.8s2.9 4.1 2.9 3.5c0-2.8-9.9-14.3-12.5-14.4-.5 0 .8 1.4 2.9 3.1M422 1035.5c0 .3.2.5.5.5s.5-.2.5-.5-.2-.5-.5-.5-.5.2-.5.5M476.2 1036.5c-1.1 1.3-1 1.5.7 1.5q2.1 0 1.5-1.5c-.7-1.8-.6-1.8-2.2 0M419.4 1038.4c.2 1.5 1.1 3.5 2 4.4 1.7 1.6 1.8 1.6 1.1-.8-.4-1.4-1.4-3.4-2.1-4.4-1.2-1.8-1.3-1.7-1 .8M415.2 1038.6c1 1 2 1.6 2.2 1.3.3-.3-.5-1.1-1.7-1.8-2.1-1.3-2.1-1.2-.5.5M536.5 1039.7c-5.2 1.9-10.2 2.7-19.5 3.2l-12.5.8 10.2.1c11.4.2 18.4-1 25.8-4.4 6.4-2.9 4.9-2.8-4 .3M587.9 1038.7c-1.3 1.6-1.2 1.7.4.4.9-.7 1.7-1.5 1.7-1.7 0-.8-.8-.3-2.1 1.3M482 1039c1.4.4 3.6.8 5 .8 2.2 0 2.2-.1-.5-.8-1.6-.4-3.9-.8-5-.8-1.6 0-1.5.2.5.8M434.2 1043c0 1.9.2 2.7.5 1.7.2-.9.2-2.5 0-3.5-.3-.9-.5-.1-.5 1.8M494.5 1041.5c6.8 1.8 10.3 1.7 4-.1-2.7-.7-5.9-1.3-7-1.3-1.1.1.3.7 3 1.4M581.7 1042.5c-2 1.4-3.7 2.8-3.7 3.1 0 .7 5.9-2.9 7.2-4.4 1.6-1.8.7-1.5-3.5 1.3M423.1 1046c0 .8.4 2.4.9 3.5.5 1.3.9 1.4.9.5 0-.8-.4-2.4-.9-3.5-.5-1.3-.9-1.4-.9-.5M572 1049c-2.5 1.6-4.2 3-3.7 3 1 0 8.7-4.9 8.7-5.5 0-.7 0-.7-5 2.5M481 1048.3c0 1.6 2 3.7 3.5 3.7.5 0 .2-.5-.7-1.1-3-1.7-2.1-3.1 1.5-2.5 2.4.5 2.7.4 1.2-.3-2.9-1.4-5.5-1.3-5.5.2M435 1048.7c0 2.9 5.4 12.3 8.8 15.4l3.7 3.4-3.2-3.5c-1.7-1.9-4.5-6.4-6.2-10s-3.1-5.9-3.1-5.3M491.9 1050.4c1.9.7 3.7 1.8 3.9 2.6.3.9-.1 1.1-1.1.7-.9-.3-3.3-.8-5.4-1.1-3.2-.5-3-.4 1.2.9 6.2 1.8 6.5 1.8 6.5.1 0-1.9-3.9-4.6-6.5-4.5-1.3 0-.9.5 1.4 1.3M459.4 1052c1.9 8 1.8 9.9-.4 13.6-1.2 2.1-1.5 3.2-.7 2.6 3.7-3.1 4.6-12.9 1.6-17.2-.8-1.2-.9-.9-.5 1M425 1052.2c0 1.6 4.2 9.7 5.6 10.9 1 .8.2-1.3-1.6-4.6-3.7-6.6-4-7.1-4-6.3M479 1055.8c2.3 4.3 5.6 8.2 7 8.2 1.7 0 1.1 2.6-1.1 5.4-1.2 1.5-1.9 2.9-1.7 3.1.2.3 1.5-1.3 2.9-3.6 2.1-3.5 2.7-3.9 5.4-3.4 6.8 1.4 10.7 1.4 4.5 0-3.6-.8-7.5-1.7-8.8-2-1.2-.3-3.8-2.9-5.8-6-4.3-6.4-5.2-7.1-2.4-1.7M564 1053.5c-1.4.8-2 1.4-1.4 1.5.5 0 1.9-.7 3-1.5 2.4-1.8 1.6-1.9-1.6 0M471.6 1058.5c.4 2.7.8 7 .7 9.5-.1 4.1 0 4.2.8 1.5.8-2.9-.4-14.1-1.7-15.4-.3-.3-.2 1.6.2 4.4M555.2 1057.7c-2.9 1.4-5.1 2.7-4.9 2.9.4.5 10.7-4.4 10.7-5.1s.3-.8-5.8 2.2M540.1 1063.6c-4.1 1.4-11.9 3.1-17.5 3.8-8 1.1-9 1.4-5 1.5 2.8.1 7.7-.4 11-1 5.6-1 20.4-5.7 20.4-6.5 0-.6-1-.4-8.9 2.2M432 1065.5c0 .3.2.5.5.5s.5-.2.5-.5-.2-.5-.5-.5-.5.2-.5.5M435 1069.5c1.3 1.4 2.6 2.5 2.8 2.5.3 0-.5-1.1-1.8-2.5s-2.6-2.5-2.8-2.5c-.3 0 .5 1.1 1.8 2.5M450 1068.5c1.4.8 3.4 1.4 4.5 1.4s.2-.6-2-1.4c-5-1.8-5.7-1.8-2.5 0M504 1067.4c0 .2 1.8.6 4 .8s4 0 4-.4c0-.5-1.8-.8-4-.8s-4 .2-4 .4M439 1074c0 .5.5 1 1.1 1 .5 0 .7-.5.4-1-.3-.6-.8-1-1.1-1-.2 0-.4.4-.4 1M479.9 1074.7c-1.3 1.6-1.2 1.7.4.4s2.1-2.1 1.3-2.1c-.2 0-1 .8-1.7 1.7M442 1076.4c0 .2.8 1 1.8 1.7 1.5 1.3 1.6 1.2.3-.4s-2.1-2.1-2.1-1.3M472.5 1079.1c-2.7 1.6-4.6 2.9-4.2 2.9 1.3 0 8.5-3.9 9.2-5 .8-1.3 1-1.3-5 2.1M447.4 1080.4c1.1.9 2.4 1.6 3 1.6 1.2 0 .7-.5-2.4-1.9-2.4-1.1-2.4-1.1-.6.3M453 1083c.8.5 2.4 1 3.4 1 2.6 0 1.8-.6-1.9-1.4-2.2-.5-2.6-.4-1.5.4M462.5 1083c-1.3.6-1.5.9-.5.9.8 0 2.2-.4 3-.9 1.8-1.2.2-1.2-2.5 0"/></svg>