<svg xmlns="http://www.w3.org/2000/svg" viewBox="0 0 864 1214" fill="currentColor"><path d="m574.5 210-35 .5v25l24.5-.1c13.5 0 33.4-.1 44.3-.2l19.8-.2-.3-12.8-.3-12.7h-9c-4.9 0-24.7.2-44 .5m49.9 6.6c.3 2.6.6 7.1.6 10v5.4l-15.7.2c-8.7.1-17.4.3-19.3.4s-13.2.3-25 .4l-21.5.2-.3-9.8c-.2-6.7.1-10 .9-10.5.7-.4 18.8-.8 40.4-.8l39.2-.2z"/><path d="M581.3 213.6c-.7.3-1.3 2-1.3 3.7.1 3 .1 3.1 1.5 1.3 2.1-2.8 2.8-1.4 1.6 3.1-1.5 5.2-1.4 8.3.3 8.3.9 0 1.5-1.9 1.9-6.3.4-3.4.8-7.1.9-8.2.3-2-2.3-3-4.9-1.9M591.4 215.5c-1.4 2.1-1.4 3-.4 5.5.7 1.7 1.9 3 2.6 3 .8 0 1.4 1 1.4 2.2 0 1.7-.3 1.9-.9.9-1.1-1.7-3.2-.5-2.5 1.4.9 2.1 3.2 2.6 4.9.9 2-2.1 2-11.2-.1-14.2-2-2.8-3-2.8-5 .3m3.6 3.6c0 1.7-.4 2.8-1 2.4-.5-.3-1-1.7-1-3.1 0-1.3.5-2.4 1-2.4.6 0 1 1.4 1 3.1M602.7 213.6c-.4.4-.7 2.7-.7 5.1 0 4 .2 4.4 2 3.8 1.7-.5 2-.2 2 2.4 0 3-1.4 4.3-2.2 1.9-.2-.6-.9-.8-1.6-.4-1.9 1.2-.1 3.6 2.8 3.6 2.2 0 2.9-.5 3.3-2.7.6-3.3-.7-7.1-2.8-7.9-2.2-.9-1.8-3.4.6-3.4 1.2 0 1.9-.5 1.7-1.3-.5-1.4-4-2.1-5.1-1.1M612.9 213.7c-.1.5-.2 4.3-.3 8.5-.1 7.8-.1 7.8 2.5 7.8 1.5 0 3.1-.6 3.7-1.3 1.4-1.7.8-12.3-.8-14.2-1.3-1.6-4.9-2.1-5.1-.8m4.1 4.3c0 1.1-.4 2-1 2-.5 0-1-.9-1-2s.5-2 1-2c.6 0 1 .9 1 2m.7 8.4c-1.1 2.7-2.7 1.7-2.7-1.6 0-3 .1-3.1 1.6-1.6.9.9 1.4 2.4 1.1 3.2M548.4 215.3c-.3.8-.4 3-.2 4.9.2 2.8.7 3.3 2.6 3 1.8-.3 2.2.2 2.2 2.2 0 2.8-.9 3.3-2.8 1.4-.9-.9-1.3-.7-1.8.6-.9 2.3 2.4 4.8 4.7 3.5 3.8-2 2.8-10.2-1.3-11.2-2.5-.7-1.4-2.7 1.3-2.7 3 0 1.7-2.4-1.4-2.8-1.7-.2-2.9.2-3.3 1.1M559.6 215.5c-1.3 3.5-.6 13.2 1 14.6 2.6 2.1 4.9-.1 4.9-4.7 0-3.1-.5-4.1-2.2-4.9-3-1.3-3.1-3.9-.2-3 1.7.6 2 .3 1.7-1.2-.4-2.3-4.3-2.9-5.2-.8m4.4 9.5c0 2.5-1.8 3.6-2.6 1.6-.8-2.1.3-4.9 1.6-4.1.5.3 1 1.5 1 2.5M569.7 221.6c-1.6 1.7-.5 2.5 3.1 2.2 2-.2 3.7-.8 3.7-1.3 0-1.2-5.7-1.9-6.8-.9M317 222c-19.5.3-35.7.7-35.8.8-.2.1-.1 2.8.2 5.9.3 3.2.5 8.9.5 12.7l.1 6.9 44.3-.7c24.3-.4 44.6-1.1 45-1.6.5-.4.5-6.1 0-12.6l-.8-11.9h-9c-4.9-.1-25 .2-44.5.5m51 12v10l-13.7.2c-7.6.1-15.5.3-17.5.4-2 0-14.4.3-27.5.5l-23.8.4-.3-10.2-.3-10.2 10.3-.3c5.7-.2 24.4-.4 41.6-.6l31.2-.3z"/><path d="M291.7 226.6c-.4.4-.7 2.7-.7 5.1 0 4 .2 4.4 2 3.8 2.3-.7 3.6 1.5 2.6 4.2-.5 1.2-.9 1.4-1.8.5-1.6-1.6-2.8-1.5-2.8.3 0 .8.8 1.9 1.9 2.4 1.4.8 2.2.6 3.5-.8 2.4-2.6 2-6.6-.9-8.9-3-2.4-3.2-4.2-.4-4.2 1.2 0 1.9-.5 1.7-1.3-.5-1.4-4-2.1-5.1-1.1M302.1 228.2c-.9 2.6-.3 5.1 1 4.2.5-.3.9-1.2.9-2s.5-1.4 1-1.4c1.5 0 1.2 2.4-1 7.5-2.7 6.2-2.6 6.7 1.3 6.3 2.4-.2 3.3-.8 3.5-2.6.4-2.3-1.3-3.1-2.1-1-.2.7-.7 1-1.1.6-.4-.3 0-2 .8-3.7 1.9-3.6 2.1-7.2.4-8.9-1.9-1.9-3.8-1.4-4.7 1M323.7 227.5c-.8 1.8 1.3 3.2 2.3 1.5.6-.9.9-.9 1.5 0 .4.6 0 1.9-.9 2.9-2 2.2-2 3.1-.1 3.1.9 0 1.5.9 1.5 2.5 0 2.8-1.5 3.3-2.4.8-.5-1.1-1-1.3-1.7-.6-2.3 2.3 2.1 6.4 4.7 4.2 1.6-1.3 1.7-12.7.1-14.7-1.3-1.7-4.4-1.5-5 .3M335.9 227c0 .5 0 4.3-.1 8.2 0 6.5.2 7.3 1.8 7.3 1.7 0 1.9-.7 1.5-7.5-.1-4.1-.5-7.8-.8-8.3-.6-1-2.3-.9-2.4.3M345 227.9c-2.4 4.5-.3 14.1 3 14.1 3.4 0 5-7 2.9-12.9-1.3-3.6-4.2-4.2-5.9-1.2m4 6.2c0 2.7-.4 4.9-1 4.9-1.2 0-2.4-6.3-1.5-8.9 1.1-3.5 2.5-1.3 2.5 4M314.3 233.8c-3.8.6-2.6 2.2 1.7 2.2 2.2 0 4-.4 4-.9 0-1.1-2.8-1.8-5.7-1.3M486.5 231.9c-1.6 1-3 2.3-2.9 2.9.1.7.2 2.2.3 3.5 0 1.5 1.3 2.9 3.7 4.2 1.9 1 4 2.7 4.5 3.7s1.9 1.8 3.1 1.8c1.1 0 5.7 2 10.2 4.4s10.4 5.6 13.3 7.1c2.8 1.6 5.4 3.7 5.6 4.7.4 1.4 1.2 1.7 2.9 1.3 2.6-.6 19.9 8.4 20.7 10.7.8 2.8 2.2 3.7 3.9 2.7 1.3-.8 3.3-.2 8.7 2.8 3.9 2.1 9.1 4.9 11.8 6.3 2.6 1.4 4.7 3 4.7 3.6 0 1.8 2.7 3.7 3.4 2.5.8-1.2 1.4-1 15.4 6.2 8.6 4.5 11.3 6.4 11.8 8.3.6 2.5 2.3 3.1 3.9 1.5.6-.5 4.7 1.2 10 4.1 5 2.8 10.7 5.9 12.8 7 2 1.1 3.7 2.6 3.7 3.4s1 1.4 2.5 1.4c3 0 28.3 13.5 30.6 16.3 1.6 1.9 1.6 1.9 4.3-.8 2-2 2.4-3.1 1.7-3.8-.6-.6-1.1-2.1-1.1-3.3 0-3-.3-3.2-19-13.4-12.3-6.7-19.4-10.6-29-16-4.7-2.6-12.1-6.7-16.5-9-4.4-2.4-11.6-6.2-16-8.6l-8-4.3-.3-23.1c-.2-17.8-.5-23.1-1.5-22.7-.9.3-1.3 5.9-1.5 22l-.2 21.6-8.8-4.6c-4.8-2.5-13.6-7.3-19.7-10.6-6-3.3-12.8-7-15-8.1-2.2-1.2-4.2-2.3-4.5-2.6-.9-.9-4.5-2.9-9.5-5.3-2.8-1.3-9.8-5.1-15.5-8.4-15.4-8.8-20-11.3-20.8-11.2-.4 0-2 .8-3.7 1.8m8.9 3.2c2 1.2 3.6 2.5 3.6 3.1 0 .9-6.1-2.3-8.4-4.4-1.9-1.6 1.3-.8 4.8 1.3m-4.4 1.4c0 .3-.2.5-.5.5s-.5-.2-.5-.5.2-.5.5-.5.5.2.5.5m-1 3.5c0 1.4-.9 1.2-2.6-.4-2-2.1-1.7-2.8.6-1.6 1.1.6 2 1.5 2 2m19.3 2.7c1.7 1 1.8 1.3.5 1.3-2.2 0-9.8-4.1-9.2-5.1.4-.7 2.3.2 8.7 3.8m-14.3-3.2c0 .3-.2.5-.5.5s-.5-.2-.5-.5.2-.5.5-.5.5.2.5.5m-1.2 2.4c.3.8-.1 1.2-.9.9-.7-.2-1.5-1-1.7-1.7-.3-.8.1-1.2.9-.9.7.2 1.5 1 1.7 1.7m4.1 1.5c.9 1.1.9 1.6 0 2.1-1 .7-2.8-1-2.9-2.8 0-1.2 1.7-.8 2.9.7m6.9 3.6c1.7.8 3.2 2 3.2 2.7 0 1.7-1.5 1.6-3-.2-.7-.8-2.1-1.5-3.1-1.5-1.1 0-1.9-.7-1.9-1.6s.3-1.4.8-1.2c.4.3 2.2 1.1 4 1.8m14.3 1.6c.6.8 2 1.4 2.9 1.4 1 0 2 .3 2.2.7.2.5 2.1 1.7 4.2 2.8 2.9 1.5 3.5 2.1 2.1 2.4-1 .1-2.2-.4-2.7-1.3s-1.7-1.6-2.6-1.6c-1 0-3.3-1.1-5.2-2.4s-4.5-2.6-5.7-3c-1.3-.4-2.3-1.1-2.3-1.6 0-1.2 5.6.8 7.1 2.6m-7.3 3.2c.6 1.8-1.5 1.4-2.2-.4-.4-1-.1-1.4.6-1.2.6.2 1.4 1 1.6 1.6m5.2 2.2c.8.5 1.1 1.2.8 1.6-1 .9-3.8-.3-3.8-1.6 0-1.2 1-1.3 3 0m7 3.5c1.7.9 3 2 3 2.6s-.3.9-.7.7c-.5-.3-2.3-1-4-1.7-1.8-.7-3.3-1.7-3.3-2.2 0-1.3 1.7-1.1 5 .6m14.3 2.2c-1.5.5-5.3-1.4-5.3-2.7 0-.4 1.4-.1 3.2.8 1.8.8 2.7 1.7 2.1 1.9m5.1 1.8c1.1.8 1.7 1.7 1.4 2.1-.7.6-4.8-1.7-4.8-2.8 0-1.2 1.3-.9 3.4.7m-10.3 1.2c2.8 1.7 4.1 4 1.7 3-4.1-1.7-6.8-3.3-6.8-4 0-1.2 2-.8 5.1 1m17 2.3c1 .6 1.9 1.5 1.9 2.1 0 .5-1.3.3-3-.6-1.6-.9-3-1.8-3-2 0-.8 2-.6 4.1.5m-9.6 2c.3.5-.1 1-.9 1s-1.8-.5-2.1-1c-.3-.6.1-1 .9-1s1.8.4 2.1 1m6.3 3c2 1.1 4.4 2.4 5.2 2.9s3.6 2 6.3 3.2c2.6 1.3 4.7 2.7 4.7 3.1 0 .5.7.8 1.5.8s1.5.4 1.5 1c0 1.6-1.4 1.2-5.4-1.5-2-1.4-3.9-2.5-4.2-2.5-1.3 0-8-3.5-8.9-4.6-.5-.7-1.9-1.4-2.9-1.6-1.1-.1-2.1-.9-2.4-1.6-.5-1.7.3-1.5 4.6.8m7.2-1.5c0 .3-.2.5-.5.5s-.5-.2-.5-.5.2-.5.5-.5.5.2.5.5m4 .9c0 .3-.4.8-1 1.1-.5.3-1 .1-1-.4 0-.6.5-1.1 1-1.1.6 0 1 .2 1 .4m4.6 3.3c-.8.8-3.6-.5-3.6-1.7 0-.7.6-.7 2.1 0 1.1.7 1.8 1.4 1.5 1.7m2.9 1.3c.3.5.1 1-.4 1-.6 0-1.1-.5-1.1-1 0-.6.2-1 .4-1 .3 0 .8.4 1.1 1m4.9 2.5c1.1.8 1.7 1.7 1.4 2s-1.6-.3-2.9-1.4c-2.7-2.3-1.4-2.8 1.5-.6m5.1 2.5c.3.5.1 1-.4 1-.6 0-1.1-.5-1.1-1 0-.6.2-1 .4-1 .3 0 .8.4 1.1 1m8.1 4c.6 0 1.7.7 2.4 1.5 1 1.2 1 1.5-.3 1.5-.8 0-2-.6-2.7-1.4-.6-.8-2.1-1.6-3.2-1.8-1.2-.2-2.3-.9-2.5-1.5-.3-.9.3-.8 2.4.2 1.5.8 3.3 1.5 3.9 1.5m-10.1 1.2c2.5 1.2 4.5 2.9 4.5 3.7 0 1.2-.3 1.1-1.8-.2-1-1-2.4-1.7-3-1.7-.7 0-1.2-.5-1.2-1 0-.6-.9-1-1.9-1-1.1 0-2.3-.5-2.6-1-1-1.6 1.1-1.2 6 1.2m17.9 3.3c.8.8 2.1 1.5 3 1.5 1.5 0 3.2 1.8 2.3 2.6-.6.6-8.7-3.8-8.7-4.8 0-1.3 1.7-.9 3.4.7M582 289c0 .5.8 1 1.8 1 1.9 0 4.2 1.8 4.2 3.2 0 .5-.8.4-1.7-.1-1-.5-3-1.4-4.5-2.1s-2.5-1.7-2.2-2.2c.7-1.1 2.4-1 2.4.2m11.7 3.7c-.4.3-1 .3-1.4 0-.3-.4 0-.7.7-.7s1 .3.7.7m6.3.3c0 .5-.2 1-.4 1-.3 0-.8-.5-1.1-1-.3-.6-.1-1 .4-1 .6 0 1.1.4 1.1 1m10.6 5.1c.3.5 0 .9-.7.9-1.6 0-7.9-4.2-7.9-5.2 0-.9 7.8 3 8.6 4.3M592 295c0 .5-.4 1-1 1-.5 0-1-.5-1-1 0-.6.5-1 1-1 .6 0 1 .4 1 1m5-.5c0 .3-.2.5-.5.5s-.5-.2-.5-.5.2-.5.5-.5.5.2.5.5m1.1 3.1c1.9 2.3-1.5 1.8-3.5-.5-1.7-1.9-1.7-1.9.3-1.4 1.1.3 2.6 1.1 3.2 1.9m6.9.9c0 .3-.2.5-.5.5s-.5-.2-.5-.5.2-.5.5-.5.5.2.5.5m-3 .9c0 .3-.4.8-1 1.1-.5.3-1 .1-1-.4 0-.6.5-1.1 1-1.1.6 0 1 .2 1 .4m16 2.8c0 .3 1.3.9 2.9 1.3 1.6.3 3.5 1.3 4.2 2.1.6.8 1.7 1.4 2.3 1.4 1.2.1 7.6 5 6.4 5-.6 0-5.8-2.7-16.3-8.6-4.5-2.5-6.2-5-2.1-3.1 1.4.7 2.6 1.5 2.6 1.9m-9.6 1.9c-.7 1.2-4.5-1-5.2-3-.3-.9.5-.8 2.7.4 1.8.9 2.9 2 2.5 2.6m1.6-2.6c0 .3-.2.5-.5.5s-.5-.2-.5-.5.2-.5.5-.5.5.2.5.5m4.5 2.5c.3.5.4 1 .1 1s-.8-.5-1.1-1c-.3-.6-.4-1-.1-1s.8.4 1.1 1m-2.5 1c0 .5.6 1 1.3 1 1.8 0 5.3 2.7 4.5 3.5-.3.3-2.2-.4-4.2-1.7-3.5-2.3-4.6-3.8-2.6-3.8.6 0 1 .4 1 1m8.5 2c.3.6-.1.7-.9.4-1.8-.7-2.1-1.4-.7-1.4.6 0 1.3.4 1.6 1m4.5 2.5c0 .3-.2.5-.5.5s-.5-.2-.5-.5.2-.5.5-.5.5.2.5.5m-3 1.5c0 .5.7 1 1.6 1 1.7 0 8.8 4 8.2 4.6-.6.5-11.8-5-11.8-5.9 0-.4.5-.7 1-.7.6 0 1 .4 1 1m8 1.5c0 .3-.2.5-.5.5s-.5-.2-.5-.5.2-.5.5-.5.5.2.5.5m9.1.5c2.8 1.6 2.3 3.2-.6 1.8-1.4-.6-2.5-1.5-2.5-2 0-1.1.7-1 3.1.2m-1.4 3.7c-.4.3-1 .3-1.4 0-.3-.4 0-.7.7-.7s1 .3.7.7m7.3.3c0 .5.9 1 1.9 1 1.1 0 2.3.5 2.6 1.1.4.5 1.8 1.5 3.2 2s2.3 1.2 2 1.6c-.7.6-11.5-4.5-12.3-5.9-.3-.4.2-.8 1-.8.9 0 1.6.4 1.6 1m-8 1.5c1.7.9 3 2 3 2.5 0 .6.7 1 1.5 1 2 0 8.5 3.2 8.5 4.2 0 1.2-.3 1.1-6-2-7.5-3.9-9-4.8-10.3-6.1-1.5-1.5-.1-1.4 3.3.4m6.6 1.1c1.8 1.4 1.8 1.4-.6.3-3.1-1.4-3.6-1.9-2.4-1.9.6 0 1.9.7 3 1.6m5.9 3.4c.3.5.4 1 .1 1s-.8-.5-1.1-1c-.3-.6-.4-1-.1-1s.8.4 1.1 1m15.3 4.3c2.8 1.7 5.2 3.5 5.2 3.9s-2.4-.6-5.2-2.3c-2.9-1.6-6.1-3.2-7-3.5-1-.4-1.8-1.1-1.8-1.6 0-1.3 2.4-.4 8.8 3.5m-10.8-1.8c0 .3-.2.5-.5.5s-.5-.2-.5-.5.2-.5.5-.5.5.2.5.5m9.9 8c1.9.8 3.2 1.8 2.9 2-.7.7-5.5-1.1-6.3-2.4-.3-.6-1.5-1.1-2.6-1.1-1 0-1.9-.5-1.9-1 0-.6-.9-1-2-1s-2-.7-2-1.5c0-1.2.9-1.1 4.3.9 2.3 1.4 5.7 3.2 7.6 4.1m-5.4-5.5c.3.5.4 1 .1 1s-.8-.5-1.1-1c-.3-.6-.4-1-.1-1s.8.4 1.1 1m5.2 2.7c-.4.3-1 .3-1.4 0-.3-.4 0-.7.7-.7s1 .3.7.7m4.8 2.3c.3.5.1 1-.4 1-.6 0-1.1-.5-1.1-1 0-.6.2-1 .4-1 .3 0 .8.4 1.1 1m4.5-.5c0 .3-.2.5-.5.5s-.5-.2-.5-.5.2-.5.5-.5.5.2.5.5m1 4.6c0 .6-.4.7-1 .4-.5-.3-1-1.1-1-1.6 0-.6.5-.7 1-.4.6.3 1 1.1 1 1.6m-3.2.7c.2.7-.2 1-1.2.6-.9-.3-1.6-1.1-1.6-1.6 0-1.3 2.3-.5 2.8 1M400.8 242.8c-11.7 6-22.9 11.8-24.8 12.9-19.9 11.6-32.1 19-40.2 24.4-3.1 2.2-6.2 3.9-6.7 3.9-.7 0-1.1-5.9-1.1-17.6 0-13-.3-17.5-1.2-17.2-.8.3-1.1 5.5-.9 18.9l.2 18.5-5.3 3.6c-9 6-33.8 24.7-43.3 32.7-15.3 12.9-17.5 15.2-17.5 18 0 2.9-1.5 1.9 26.8 17.2 7.9 4.3 9.7 6.1 8.4 8.6-.9 1.7-6.3 6.7-17.2 15.9-4.5 3.9-19.4 16.5-25 21.3-9.5 8.1-10.9 9.5-11.5 12.2-.6 2.4.1 3.3 7.2 8.6 10.6 8.1 26.9 19.7 37.9 27.1 31.8 21.2 79.4 44.9 98 48.7 2.5.5 3.7.1 5.6-1.7 2-2 12.4-11.3 24.8-22.4 1.9-1.8 7.8-6.8 13-11.2 8.1-6.9 9.7-7.9 11-6.8 2.8 2.4 4 2.8 4 1.2 0-.9-.7-1.6-1.5-1.6-2.5 0-1.7-1.9 1.1-2.6 5.8-1.5 11.9.4 29.4 8.9 24.1 11.7 32.9 15.7 34.6 15.7.8 0 4.7-2.2 8.7-4.8 3.9-2.7 18.7-12.5 32.7-21.8 26.2-17.5 30.1-20.1 45.5-29.7 5-3.1 9.5-6 10-6.5 1.3-.9 16.3-10.3 19-11.8 1.1-.6 3.6-2 5.5-3.1 10-5.8 37.3-21.4 43-24.5 13.3-7.3 15-8.3 15.5-9.7.8-2.1-1.4-4.1-4.5-4.1-1.5 0-8.8-.9-16.1-2-42.9-6.5-83.9-18.8-121.7-36.7-6.2-2.9-11.7-5.3-12.3-5.3-.5 0-1.7-.4-2.7-1-.9-.5-4.8-2.3-8.7-4-8.8-3.9-17.1-8.2-25.4-13.2-3.4-2.1-6.5-3.8-6.8-3.8-1.1 0-28.5-19.4-33-23.5-12.2-10.9-21.6-23.1-27.8-36.2-1.7-3.5-3.5-6.3-4.2-6.3s-10.8 4.9-22.5 10.8m25.7-1.6c9.8 19.6 23.1 33.3 48.3 50 6.2 4.2 8.8 6.4 8 7-2.3 1.4-3.4.9-11.4-4.9-16-11.5-29.4-23.4-35.2-31.2-1.5-2-2.9-3.8-3.2-4.1-3.4-3-12.4-20.6-11.6-22.6.3-.8.8-1.4 1-1.4.3 0 2.1 3.2 4.1 7.2m-4.1 2.8c2 3.9 3.4 7.5 3.1 8-.4.6-2 1.7-3.7 2.6-1.8.9-6.1 3.7-9.7 6.3s-10.6 7.6-15.6 11.1c-9.8 6.9-19.7 14.2-20.5 15-.3.3-2.1 1.7-4 3-1.9 1.4-4.2 3-5 3.7-19.9 16-26.1 21-31.3 25.6-3.4 3-7.8 6.7-9.6 8.3-1.9 1.6-4.4 3.8-5.6 4.9s-6.3 5.8-11.5 10.5c-5.1 4.7-10.6 9.7-12.3 11.2-1.6 1.6-3.2 2.8-3.6 2.8s-4.8-2.5-9.9-5.5-9.5-5.5-9.7-5.5c-.3 0-3-1.6-6.1-3.6-6.4-4.1-6.8-3.1 4.6-12.4 3-2.5 5.7-4.7 6-5s3-2.5 6-5 5.7-4.7 6-5.1c.3-.3 1.2-1 2.1-1.5s3.2-2.1 5-3.6c1.9-1.5 7.5-5.6 12.4-9.2 5-3.6 9.5-6.9 10-7.3 5-4 33.5-21.9 48-30.4 13.1-7.5 48.5-25.8 50.2-25.9.6 0 2.7 3.2 4.7 7m9.2 15.2c5.1 7.2 14.4 16.8 22.9 23.6 3.8 3.1 7.5 6.2 8.1 6.8.7.6 3.9 2.8 7.3 5 3.3 2.1 6.1 4.2 6.1 4.6 0 .3-2.1 1.4-4.7 2.2-2.7.9-7.5 3.1-10.8 4.9-14.9 8.3-18.2 10.1-20.7 11.9-1.4 1-2.9 1.8-3.2 1.8-.5 0-5.5 2.8-27.6 15.8-25.7 15.1-33.7 34-20.7 48.8 6.8 7.7 17.3 11 32.2 10.1 9.5-.5 19.5-3.2 28-7.5 5-2.5 9.5-5.1 45-26.2 10.5-6.2 21.5-12.7 24.5-14.3 7.9-4.3 10.9-6.5 16.1-11.4l4.5-4.4 6 3c16.5 8.2 55.6 22.2 76.4 27.4l5.5 1.3-4.2 2.7c-2.4 1.5-4.4 2.7-4.7 2.7-.2 0-3.3 1.7-6.7 3.9-3.5 2.1-10.7 6.1-15.9 8.9s-12.4 6.6-16 8.6c-9.7 5.3-68.4 34.7-77 38.5-9.3 4.2-16.3 7.3-23.7 10.7-3.2 1.4-8 3.5-10.7 4.6-2.7 1-6.9 2.8-9.2 3.9-3.2 1.4-5.4 1.8-8.4 1.3-6.5-1-12.2 1.2-20.3 7.9-3.9 3.3-7.4 6.3-7.7 6.6s-2.3 2.1-4.5 4c-6.3 5.4-19.5 17.1-25.6 22.8-3.1 2.9-6 5.3-6.6 5.3-7.3 0-52.2-20.4-72.8-33-3.9-2.3-8.6-5.2-10.5-6.3-9-5.4-30.6-20.6-52-36.7-7.1-5.4-6.7-4.8-4.6-6.4 1-.8 3.5-3 5.5-4.8s6.1-5.3 9.1-7.8 6-4.9 6.6-5.5c.6-.5 6.2-5.3 12.5-10.5 19.2-16.1 21-18.6 17.7-24.1-1.2-1.8-.7-2.5 4.8-7.7 7.4-7 20.5-18.7 25.9-23.3 2.2-1.9 4.2-3.6 4.5-3.9 5.2-5.2 26.5-22.5 43.1-34.9 7.4-5.5 13.9-10.4 14.4-10.9.6-.4 3.9-2.8 7.4-5.1 3.5-2.4 7.1-5 8-5.7 3.4-2.9 20.7-14.3 21.8-14.3.6-.1 2.8 2.3 4.9 5.1m65.7 46.2c5.1 3 12.2 6.8 15.7 8.4 12.9 5.9 17.6 7.9 21.3 9.3 9.2 3.3 2.4 10.5-24.8 26.3-5.5 3.2-11.7 6.9-13.7 8.2-2.1 1.3-3.9 2.4-4.2 2.4-.2 0-3.5 1.9-7.2 4.2-3.8 2.3-10.7 6.4-15.4 9.1s-10.1 5.9-12 7c-16.2 9.5-24.8 12.1-41 12.1-11.9 0-12.8-.1-18.4-2.9-16.4-8.2-18.1-26.1-3.9-40.2 4.6-4.6 22.6-15.9 45.8-28.8 2.8-1.6 8.6-4.9 13-7.3 7.4-4.2 15.1-8.2 20-10.4 2.3-1 9.9-2.5 13.3-2.7 1.3-.1 6.5 2.3 11.5 5.3m49.5 23.6c3.4 1.6 6.5 3 6.7 3 .3 0 2.4.9 4.8 1.9 10.7 4.8 26.9 10.6 46.6 16.6 7.9 2.4 31.3 8.1 40.6 9.9 4.4.9 10.3 2 13 2.6 2.8.6 9.1 1.6 14 2.3 8.1 1.2 8.8 1.4 6.7 2.6-1.9 1-4.8.9-15.5-.3-13.2-1.6-34.7-5.7-42.2-8.1-2.2-.7-5.8-1.7-8-2.3-17.1-4.8-41.7-13.4-56-19.7-14.1-6.2-17.5-8.1-17.5-9.7 0-1 .1-1.8.3-1.8s3.1 1.3 6.5 3m-275.7 17.6c4.4 2.6 7.9 4.9 7.9 5.1 0 .6-15.1-7.5-16.4-8.8-2.3-2.1 1.2-.6 8.5 3.7m11.9 6.9c0 .3-.2.5-.5.5s-.5-.2-.5-.5.2-.5.5-.5.5.2.5.5m2 1c0 .3-.2.5-.5.5s-.5-.2-.5-.5.2-.5.5-.5.5.2.5.5M634.6 365c3.6 1.1 29.5 5 33.9 5 4.8 0 4.9 1.1.2 3.5-2.3 1.2-11.4 6.3-20.2 11.2s-18.2 10.2-21 11.8c-19.6 11-38.1 22.5-71 44.5-45.4 30.4-46.4 31-47 32.1-1 1.6-3.9 1-10.6-2.2-3.5-1.7-9.1-4.4-12.4-5.9s-11.4-5.3-18-8.5c-10.9-5.2-11.8-5.8-10-7.1 1-.8 2.3-1.4 2.7-1.4.5 0 4.7-1.8 9.4-4s8.8-4 9-4c.4 0 7.7-3.3 21.9-9.8 9.7-4.4 68.6-33.9 77-38.5 3.3-1.8 10.3-5.6 15.5-8.4 8.7-4.7 16.9-9.2 27.5-15.2 2.2-1.3 4.4-2.7 5-3.2 1.2-1.2 4.5-1.1 8.1.1m49.3 3.4c-.2.2-5.8 3.4-12.4 7.2-6.6 3.7-14.9 8.4-18.5 10.4-9.3 5.2-14.8 8.4-20 11.2-6.1 3.3-25.7 15.3-35.2 21.4-15.2 9.8-42.3 27.4-43.3 28.1-4.1 3.2-19.8 13.3-20.6 13.3-.5 0-.9-.3-.9-.8 0-.7 45.2-30.8 63-41.9 13.7-8.6 46.6-27.6 65.5-37.8 3.3-1.8 9.6-5.3 14-7.8 4.4-2.4 8.2-4.3 8.4-4.1s.2.6 0 .8M254 423.9c1.9 1.4 3.7 2.8 4 3.1 1.5 1.6 26.9 19.7 35 24.9 5.2 3.3 10 6.4 10.6 6.8 1.1.9 3.7 2.4 9.3 5.5 2 1.1 4.1 2.4 4.6 2.8 4.1 3.2 38.9 19.9 51 24.5 19.7 7.5 22.3 9.4 5 3.7-3.3-1.1-8.5-3-11.5-4.3-7.8-3.4-43.6-21.4-49.1-24.6-2.5-1.6-6.7-4.1-9.5-5.7-6.9-4.2-27.9-18.1-33.9-22.5-2.7-2.1-9.8-7.3-15.7-11.6-6-4.4-10.8-8.6-10.8-9.3 0-1 1.2-.5 3.8 1.4 2 1.5 5.3 3.9 7.2 5.3m214.3 34.6c8.4 4 20.3 9.6 26.5 12.6 6.1 2.9 11.2 5.6 11.2 6.1 0 .4-.2.8-.4.8-.6 0-13.6-6.1-34.5-16.2-10.2-4.8-20.1-9.1-22-9.4-4.7-.8-12.8 2.9-19.5 8.8-19.1 16.7-31.8 28-36.1 32-2.7 2.6-5.3 4.8-5.7 4.8-1.5 0-.8-1.9 1.2-3.3 1.2-.8 5.1-4.3 8.8-7.8s9.6-8.9 13.2-11.9c3.5-3 7.1-6.2 8-7.1.8-.9 4.2-3.8 7.5-6.6 16.6-13.8 18.7-13.9 41.8-2.8M532 461c0 1.2-22.9 16.5-23.6 15.7-.3-.3 3-2.9 7.3-5.8s8.3-5.7 8.8-6.2c.9-.8 6.7-4.5 7.3-4.6.1-.1.2.3.2.9"/><path d="M280 332.8c0 .4.5 1.3 1.2 2 .9.9.9 1.2 0 1.2-.7 0-1.2.4-1.2 1 0 1.6 3 1.2 3.6-.5.4-.8.1-2.2-.6-3-1.3-1.6-3-2-3-.7M275.7 334.6c-.8.8.1 2.4 1.4 2.4.5 0 .9-.7.9-1.5 0-1.5-1.2-2-2.3-.9M278.7 339.7c-1.1 1-.8 6.1.3 6.8.6.4 1-1 1-3.4 0-4.2-.2-4.6-1.3-3.4M448.8 292.2c-2.8 2.8-1.9 5 2.2 5.4 1.9.2 4.4.5 5.5.6 1.6.2 2-.3 2.1-2.7.1-4.5-.3-5.1-4.2-5.2-2.3-.1-4.3.6-5.6 1.9m7 2c-.3.7-1 1.3-1.6 1.2-.7-.1-2.1-.2-3.3-.3-3.1-.2-1.2-2.1 2.2-2.1q3 0 2.7 1.2M544.6 344.7c-1.1 1.2-.6 7.3.7 7.4 6.3.5 10-1.2 9.5-4.5-.2-1.7-1-2.1-3.8-2.1-1.9-.1-4-.4-4.6-.8-.6-.3-1.4-.4-1.8 0m8.4 3.9c0 .9-1.2 1.4-3.5 1.4-2.2 0-3.5-.5-3.5-1.3s1.3-1.3 3.5-1.4c2.4-.1 3.5.3 3.5 1.3M294 377.7c0 .5 3.2 2.5 7.1 4.6s6.9 3.3 6.7 2.5c-.2-.7-3.1-2.7-6.4-4.5-6.1-3.4-7.4-3.8-7.4-2.6M311 386.9c0 1.1 10.9 6.5 11.6 5.8.3-.3-.5-1.1-1.8-1.8-1.2-.7-3.8-2.1-5.6-3.1-3.7-2-4.2-2.2-4.2-.9M328 396.1c0 .5.8 1.2 1.8 1.6.9.3 2.9 1.5 4.4 2.5 2.8 2 3.8 2.2 3.8 1 0-.8-5.1-4.1-8.2-5.4-1-.4-1.8-.3-1.8.3M342 403.8c0 .4 2.7 2.2 6 4 3.3 1.9 6 2.9 6 2.4 0-.6-2.5-2.4-5.5-4.1-5.8-3.3-6.5-3.5-6.5-2.3M258 408.6c0 .4.8 1.3 1.8 2 1 .8 1.2 1.3.5 1.4-1.8 0-1.6 2 .2 2 2 0 2-4.6-.1-5.4-2-.8-2.4-.8-2.4 0M254.5 410.9c-.3.5-.1 1.2.5 1.6.5.3 1-.1 1-.9 0-1.8-.6-2.1-1.5-.7M358 412.7c0 .5 2.4 2.1 5.3 3.8 6.6 3.8 6.7 3.8 6.7 2.8 0-.9-10-7.3-11.3-7.3-.4 0-.7.3-.7.7M257 419c0 1.6.5 3 1 3 .6 0 1-1.4 1-3 0-1.7-.4-3-1-3-.5 0-1 1.3-1 3M374 421.9c0 1 12 7.5 12.6 6.8.6-.6-1.4-2.1-6.8-5.1-5.1-2.8-5.8-3-5.8-1.7M391 431.4c0 .5 10.5 6.6 11.4 6.6 1.9 0 0-2-4.4-4.3-4.7-2.5-7-3.3-7-2.3M406 439.7c0 .7 9.4 6.3 10.5 6.3 1.9 0-.3-2.1-4.4-4.3-5.2-2.9-6.1-3.2-6.1-2M420.5 448c.6 1 7.8 5 9 5 1.6 0 0-1.8-3.5-3.8-4.1-2.3-6.5-2.9-5.5-1.2M377 481.7c0 2.3 1.5 3.9 2.4 2.5.3-.5-.1-1.8-.9-2.8-1.4-1.8-1.4-1.8-1.5.3M381.4 482c0 1.1.6 2 1.3 2s1.3-.9 1.3-2-.6-2-1.3-2-1.3.9-1.3 2M379.5 488c-.4.6-.3 1.6.3 2.2s1.2.6 1.7-.2c.4-.6.3-1.6-.3-2.2s-1.2-.6-1.7.2M507.3 460.2c.2.7-.3 1.8-1.2 2.5-1.4 1.1-1.3 1.2.5 1.3 2 0 3.4-1.7 3.4-4.1 0-.5-.7-.9-1.6-.9s-1.4.6-1.1 1.2M503 461.6c0 1.4.3 1.4 1.5.4.8-.7 1.5-1.4 1.5-1.6s-.7-.4-1.5-.4-1.5.7-1.5 1.6M505.4 467.4c-.4 1-.2 2.2.4 2.8.8.8 1.3.7 1.8-.6.4-1 .2-2.2-.4-2.8-.8-.8-1.3-.7-1.8.6M278 358.9c0 1.7.5 3.3 1 3.6.6.4 1-.8 1-2.9 0-2-.4-3.6-1-3.6-.5 0-1 1.3-1 2.9M747.9 364c-.8.5-1.5 2.7-1.6 5-.2 4.8 2.2 6.8 5.3 4.5 2.2-1.7 7.4-2 7.4-.5 0 .6.6.5 1.4-.2.9-.8 1.1-1.7.5-2.3-.5-.5-.9-2.2-.9-3.7 0-3.2-.7-3.5-2.6-1.1-1.8 2.4-1.7 3.4.1 2.7.8-.4 1.5-.1 1.5.6 0 .6-.8 1-1.7.8-1-.1-2.4.1-3 .5-1.3.8-1.7-.2-1.4-3.5.3-2.1-3-4-5-2.8m3.1 2.5c0 .8-.7 1.5-1.5 1.5-1.6 0-2-1.2-.8-2.3 1.1-1.2 2.3-.8 2.3.8m.8 4.7c-.7 1.9-3.8 2.2-3.8.4 0-1 .9-1.6 2.1-1.6s1.9.5 1.7 1.2M769.1 364.4c-.7.8-1.1 3.2-.9 5.3.2 3.1.7 3.9 2.6 4.1 1.4.2 2.9-.4 3.6-1.4 1.2-1.5 1.3-1.5 1.9 0 .7 1.9 5 2.1 6.5.3 1.5-1.9.2-7.6-2-8.8-2.4-1.3-5.1.7-4.5 3.3.3 1 .1 2.1-.4 2.4s-.9-.6-.9-2c0-1.5-.8-3-1.9-3.6-2.5-1.3-2.6-1.3-4 .4m4.3 2.9c.8 1.2.8 2.2 0 3.4-2.1 3.3-3.4 2.6-3.4-1.7s1.3-5 3.4-1.7m7.6-.7c0 1.7-2.2 1.4-2.8-.4-.2-.7.3-1.2 1.2-1.2s1.6.7 1.6 1.6m1 4.4c0 .5-.5 1.2-1.1 1.6-1.4.8-3.3-1.1-2.5-2.5.7-1.1 3.6-.4 3.6.9M785.5 365c-1.9 2.1-.7 2.8 1.3.8.9-.9 1.5-.9 2.4 0 1 1 .5 1.9-2 4.2-1.8 1.6-3.2 3.1-3.2 3.4s1.9.5 4.3.5c2.9-.2 3.4-.3 1.5-.6-3.5-.5-3.5-1.6-.3-3.7 3-2 3.2-4.1.6-5.6-2.6-1.3-2.5-1.3-4.6 1"/><path d="M794.3 364.2c-1.9 2.5-2.2 4.8-1.1 7.4.9 1.9 1.8 2.4 3.7 2.2 2.2-.3 2.6-.9 2.9-4.1.5-5.5-2.9-8.8-5.5-5.5m3.7 4.8c0 4.1-.7 4.9-2.8 2.8-1.3-1.3-1.6-5-.5-6.1 1.9-1.9 3.3-.5 3.3 3.3M721.4 365.4c-1 2.6.1 5.1 2.4 5.4 1.2.2 2.2.8 2.2 1.4s-1.1.8-2.7.3c-2.7-.6-2.7-.6-1 1.2 1.3 1.4 2.1 1.5 3.5.7 2.1-1.3 2.8-7 1.1-9-1.5-1.8-4.8-1.8-5.5 0m4.6 2.2c0 .9-.7 1.4-1.7 1.2-2.5-.5-2.8-2.8-.4-2.8 1.2 0 2.1.6 2.1 1.6M729.4 366.5c-1.3 5.1 1.4 9.3 5 7.9 2-.8 3-5.8 1.6-8.3-1.6-3.1-5.8-2.8-6.6.4m5.4 3.4c-.2 1.5-.9 2.6-1.8 2.6-1.6 0-2.5-3.7-1.6-6.2 1-2.5 3.8.5 3.4 3.6M739.8 364.7c2.3.5 2.9 2.2 1.3 3.8-1.5 1.7-2.3 5.5-1.1 5.5.6 0 1.3-1.3 1.6-3 .4-1.6 1.3-3.5 2-4.1 2.4-2 1.6-2.9-2.3-2.8q-3.6.15-1.5.6M279 366.6c0 1.9 5.8 7.9 6.7 7 .4-.4-.5-1.8-2-3.2s-2.7-3.1-2.7-3.9-.4-1.5-1-1.5c-.5 0-1 .7-1 1.6M763 370c0 .5.7 1 1.5 1s1.5-.5 1.5-1c0-.6-.7-1-1.5-1s-1.5.4-1.5 1M758.9 378.4c-.2.3 0 6.8.4 14.6.5 7.8.6 14.4.3 14.7-.2.3-3.1.7-6.4 1-5.6.5-6 .4-6.7-1.8-1-3.1-2.2-3.9-6.1-3.9s-6 2.3-6.8 7.5c-.6 3.4-.3 4.4 1.3 6 1.7 1.4 2.1 3 2.1 7.6 0 3.2.5 6.1 1 6.4.6.3 1 1.7 1 3.1 0 1.3.5 2.4 1 2.4.6 0 1-1.1 1-2.4s.7-2.9 1.5-3.6q1.5-1.2 1.5-6.9c0-4.5.4-5.9 2-6.9 1.1-.7 2-2.1 2-3.1 0-1.5 1-1.9 6.1-2.4 3.4-.3 6.5-.9 7-1.4 1-1 0-31.3-1.1-31.3-.4 0-.9.2-1.1.4M744.5 407c0 1.8-6.2 2.7-7.7 1.2-1.8-1.8.3-3.3 4-3 2.5.2 3.7.8 3.7 1.8m-2.5 5c0 .5-.4 1-.9 1-.6 0-1.3-.5-1.6-1-.3-.6.1-1 .9-1 .9 0 1.6.4 1.6 1m2.9 3.1c-2.2 1.4-8.5 1-9.9-.6-1-1.2-.5-1.3 3.8-.8 3.5.4 5.2.2 5.7-.8.7-1.1.9-1.1 1.3 0 .2.7-.2 1.7-.9 2.2M742 419c0 .5-.6 1-1.4 1s-1.8-.5-2.1-1c-.3-.6.3-1 1.4-1 1.2 0 2.1.4 2.1 1m-.3 3.6c-.3.3-1.2.4-1.9.1-.8-.3-.5-.6.6-.6 1.1-.1 1.7.2 1.3.5m0 3c-.3.3-1.2.4-1.9.1-.8-.3-.5-.6.6-.6 1.1-.1 1.7.2 1.3.5m.3 3c0 .2-.7.4-1.5.4s-1.5-.4-1.5-1c0-.5.7-.7 1.5-.4.8.4 1.5.8 1.5 1M688.3 389.1c-2.9 1.3-4.3 2.6-4.3 3.9 0 1-.5 2.2-1.1 2.6-.6.3-.9 1.5-.6 2.5s.1 2.1-.3 2.4c-.5.3-8.2.8-17.2 1.1s-16.9.7-17.5.9c-1.5.5-1.8 13.5-.3 13.5.5 0 1-2.6 1.2-5.8l.3-5.7 15.5-.5c13.8-.4 15.7-.3 17.3 1.2 1 1 3.1 2.5 4.6 3.3 2.8 1.4 3.3 1.3 9.5-1.6s8-4.9 5.6-6.4c-.5-.3-1-2.2-1-4.2 0-4-3.3-9.3-5.8-9.2-.9 0-3.6.9-5.9 2m8.1 1.5c.8 2.1.1 3.1-3 3.8-2.5.7-5.4-.7-5.4-2.6 0-1 3.7-2.6 6.1-2.7.9-.1 2 .6 2.3 1.5m-8.9 3.4c.3.5.1 1-.4 1-.6 0-1.1-.5-1.1-1 0-.6.2-1 .4-1 .3 0 .8.4 1.1 1m10.5 2.5c0 .8-.7 1.5-1.5 1.5-2.2 0-3 2.7-1.4 4.6 1 1.3 1 1.7-.2 2.5-2.5 1.5-2.9 1-2.9-3.6 0-3.8.4-4.7 2.3-5.5 3.2-1.3 3.7-1.2 3.7.5m-11.5 1.5c-.3.5-1 1-1.6 1-.5 0-.9-.5-.9-1 0-.6.7-1 1.6-1 .8 0 1.2.4.9 1m3.2 1.7c-.4.3-.7 0-.7-.7s.3-1 .7-.7c.3.4.3 1 0 1.4m-1.7 1.2c0 .6-.4 1.3-1 1.6-.5.3-1-.1-1-.9 0-.9.5-1.6 1-1.6.6 0 1 .4 1 .9m11 .6c1.4 1.6 1 1.8-1.4.9-.9-.3-1.6-1-1.6-1.5 0-1.4 1.6-1.1 3 .6m-15 2.1c0 .8-.4 1.2-1 .9-.5-.3-1-1-1-1.6 0-.5.5-.9 1-.9.6 0 1 .7 1 1.6m4 .9c0 .3-.2.5-.5.5s-.5-.2-.5-.5.2-.5.5-.5.5.2.5.5m2.6 2.1c-.4.9-.9 1.5-1.1 1.2-.3-.3-.3-1.3.1-2.2s.9-1.5 1.1-1.2c.3.3.3 1.3-.1 2.2M704 404.8c0 1.3 2.3 3.2 3.9 3.2 1.1 0 1-.4-.4-2-1.9-2.1-3.5-2.6-3.5-1.2M710.5 408.9c-.3.5.4 1.3 1.6 1.6 2.8.9 3.6-.1 1-1.4-1.2-.7-2.2-.7-2.6-.2M717 412.4c0 1.4 3.8 7.5 4.3 6.9.7-.7-1.8-5.9-3.3-6.8-.5-.3-1-.4-1-.1M671.9 418.4c-.3.3-15.5.8-33.9 1.1-18.4.4-34.1.8-34.8 1.1-1 .3-1.2 3.3-1 12.6l.3 12.3h17c20.3 0 56.5-.7 65.3-1.3l6.2-.4v-11.3c0-6.2-.3-12-.6-12.9-.5-1.3-2.3-1.6-9.3-1.6-4.8 0-9 .2-9.2.4m16.1 13.1V442l-18.7.2c-19.6.1-20.7.2-47 1.3l-16.3.6V422l26.3-.3c14.4-.1 32.8-.3 41-.5l14.7-.2z"/><path d="M644 424.5c-.7.8-.9 2.2-.6 3.1.6 1.6.8 1.5 2-.2 2.1-2.8 2.9-1.2 1.7 3.3-1.3 4.6-1.4 9.3-.2 9.3 1 0 3.4-14.8 2.5-16.1-.8-1.4-4-1.1-5.4.6M655.8 424c-1.2.8-1.6 2.4-1.6 6.8 0 7.9.5 9.2 3.4 9.2 3 0 5.1-3.8 3.6-6.6-.6-1.1-.8-3.2-.5-4.7s0-3.4-.7-4.2c-1.4-1.7-1.9-1.8-4.2-.5m3.2 4.1c0 1-.7 1.9-1.5 1.9-1.5 0-2.1-3.1-.9-4.3 1.1-1 2.4.3 2.4 2.4m.7 6.4c.5 1.6-1.4 3.8-2.6 3.1-1.8-1.2-1.3-4.8.6-4.4.9.2 1.8.7 2 1.3M666 424.5c-.7.8-1 2.7-.7 4.2s.1 3.5-.4 4.5c-2.1 3.9 3.1 8.9 5.9 5.5 1.1-1.3 1-12.6-.2-14.5-1-1.6-3.1-1.5-4.6.3m3.5 3c0 1-.6 2-1.2 2.2-.8.3-1.3-.5-1.3-2.2s.5-2.5 1.3-2.3c.6.3 1.2 1.3 1.2 2.3m.3 8.1c-.5 2.8-2.8 2.9-2.8.1 0-1.3.3-2.7.7-3 1-1.1 2.5.9 2.1 2.9M612 429.1c0 4.6.2 5 2 4.4 1.6-.5 2-.2 2 1.8 0 3.2-1 4-2.5 2-1.1-1.4-1.2-1.4-1.8 0-.6 1.6 1.6 4.7 3.2 4.7 1.7 0 3.4-3.2 3.4-6.2 0-2-.8-3.7-2.1-4.9-2.7-2.2-2.8-3.9-.2-3.9 1.1 0 2-.7 2-1.5q0-1.5-3-1.5c-2.9 0-3 .1-3 5.1M623.2 426.5c-1.6 3.5-1.5 10.7.2 13 1.6 2.3 4.2 1.4 5.8-1.9.9-2 .8-3-.6-5.1-.9-1.4-2.3-2.5-3.1-2.5s-1.5-.6-1.5-1.4c0-1.9 1.7-3 2.2-1.4.2.6.9.8 1.6.4 1.6-1 .3-3.6-1.7-3.6-1 0-2.3 1.1-2.9 2.5m3.8 9.1c0 2.6-1.7 3.3-2.6.9-.8-2 .3-4.8 1.6-4 .5.3 1 1.7 1 3.1M633.2 431.7c-2.3.9-.1 2.3 3.4 2.3 2.2 0 3.4-.4 3.2-1.1-.4-1.3-4.4-2-6.6-1.2M720 426c0 2.5.4 3.9 1 3.5.6-.3 1-1.9 1-3.5s-.4-3.2-1-3.5c-.6-.4-1 1-1 3.5M258.3 437.5c0 2.2.2 3 .4 1.7.2-1.2.2-3 0-4-.3-.9-.5.1-.4 2.3M720 437.6c0 2.1.4 3.3 1 2.9.6-.3 1-1.9 1-3.6 0-1.6-.4-2.9-1-2.9-.5 0-1 1.6-1 3.6"/><path d="M735.5 437.1c-.4.5-1.3.8-2.1.5-1.7-.7-9.4 2.2-9.4 3.5 0 .5.6.9 1.3.9.6 0 .4.5-.5 1.1-2.5 1.4-2.3 3.3.1 1.9 1.1-.5 2.2-1 2.5-1 1.1 0 .6 3.6-.6 4.9-1.1 1.1-.9 1.3 1 .8 2.8-.7 2.9.9 0 1.9-1.6.5-2.7.1-4-1.6-1-1.2-1.8-2.8-1.8-3.6s-.5-1.4-1.1-1.4c-1.1 0-.9 1.6.5 5.1.5 1.1.1 1.8-1.1 2.2-1 .2-5.3 2.1-9.6 4.1-10 4.6-9.5 2.5.8-3.4 4.3-2.4 7.3-4.6 6.7-4.8s-3.5 1-6.4 2.6c-8.3 4.5-9.8 5.6-10.4 7.4-.3 1-1 1.8-1.5 1.8s-2.6 1.1-4.7 2.5c-3 1.9-4.3 2.3-6.7 1.7-3-.8-3-.9-.7-2.1 1.2-.6 2.2-1.9 2.2-2.9 0-.9 2.1-2.9 4.6-4.5 3.6-2.1 5.4-2.6 7.9-2.1 2.5.4 3.6.2 4.6-1.4.8-1 3.6-2.9 6.2-4.1 5.8-2.6 5.6-4.1-.2-1.8-2.7 1.1-4.8 1.4-6.8.8-3.6-1.1-6.5 0-8.1 3.1-1.6 2.9-8.7 6.7-12.4 6.6-1.7 0-3.5.8-4.8 2.3-2.5 3-2.5 4 0 4.6 1.6.4 2 1.4 2 4.4 0 2.1.5 4.1 1 4.4.6.3.7 1.7.4 3.1-.3 1.3-.3 3.2.2 4.1.5 1.3 1 .5 1.6-3.2.5-2.8.9-6 .9-7.3.1-2 .5-2.2 2.8-1.7 1.9.4 3.6-.1 6.1-2 1.8-1.4 4.1-2.5 5-2.5 1 0 6.2-2.1 11.6-4.7s10.3-4.9 10.8-5.2c.4-.2.5 1.1.1 2.8-.6 2.7-.2 3.6 2.5 6.1 3.8 3.6 5.8 3.7 9.5.8 1.6-1.2 4.2-2.9 5.9-3.8 1.7-.8 3.5-2.5 4.1-3.8.9-2 1.7-2.2 8.2-2.2h7.3v13.4c0 8.2.4 13.7 1 14.1.7.4 1-4.2.8-14.2l-.3-14.8-7.4-.3c-6.1-.2-7.7-.7-9.2-2.5-2-2.4-2.4-4.8-1-6.3 1.1-1.1-.4-5.4-2-5.4-.6 0-.9.7-.6 1.5.4.8.2 1.7-.3 2-.6.4-1 .1-1-.6 0-1-.3-1-1.1-.2-.7.7-.9 2-.5 3 .6 1.5.8 1.5 1.6.3.7-1.1 1-.8 1 1.4 0 1.6.7 3.4 1.6 4.1 1.2.8 1.5 2 .9 4.3-.8 3.9-3.7 5.7-6.5 4.2-2.1-1.1-2.7-4.4-1.1-5.5 1.1-.6 1-4.5-.1-4.5-.4 0-.8-.5-.8-1.1 0-.5.5-.7 1-.4.6.4 1-1 1-3.4 0-4-1.3-6.1-2.5-4m-1.5 4.6c-.1 1.9-2.7 6-3.4 5.2-1.5-1.7-1.5-4.9.1-5.8 2.6-1.5 3.3-1.3 3.3.6m-29.6 5.9c2.5.9 1.9 2.4-.9 2.4-2.4 0-3.2-1-1.8-2.3.8-.8.8-.8 2.7-.1m30.6 2.5c0 1.1-.4 1.7-1 1.4-.5-.3-1-1.5-1-2.6s.5-1.7 1-1.4c.6.3 1 1.5 1 2.6m-3.4 4.6c-1.1 1.1-1.9-.6-1.1-2.4.8-1.7.8-1.7 1.2 0 .3 1 .2 2.1-.1 2.4m-4.4 2.5c-.6.6-1.4.9-1.7.6s-.3-1.3.1-2.2c.5-1.2 1-1.4 1.7-.7.8.8.8 1.4-.1 2.3m9.3-.2c.3.5.2 1-.4 1-.5 0-1.3-.5-1.6-1-.3-.6-.2-1 .4-1 .5 0 1.3.4 1.6 1m-49 1c.3.5-.3 1-1.4 1-1.2 0-2.1-.5-2.1-1 0-.6.6-1 1.4-1s1.8.4 2.1 1m45.5 0c1.1.6 1.7 1.7 1.4 2.5-.8 1.9-4.8 1.9-6.4 0-1.5-1.8.1-2 1.8-.3s2.8.2 1.2-1.7c-1.4-1.7-.7-1.9 2-.5M258 446.8c0 2.9 4.3 8.2 5.3 6.5.3-.5-.3-1.6-1.4-2.3-1-.8-1.9-2.4-1.9-3.7 0-1.2-.4-2.5-1-2.8-.6-.4-1 .6-1 2.3"/><path d="M739.7 445.7c-.3.4-.7 2.6-.8 4.8-.3 3.1 0 4 1.3 4.3 1.6.3 1.7-.3 1.1-4.5-.6-5.3-.9-5.8-1.6-4.6M265 454.4c0 .5 6.5 4.6 7.4 4.6 1.6 0 .3-1.7-2.5-3.3-2.9-1.6-4.9-2.2-4.9-1.3M276.2 460.1c.2.7 2.8 2.6 5.7 4.2 3 1.7 5.2 2.5 5 1.8-.2-.6-2.8-2.5-5.8-4.2-2.9-1.7-5.1-2.5-4.9-1.8M445.5 461.9c.7 1.3 9.7 6.2 10.3 5.7q1.2-1.35-4.8-4.5c-4.3-2.2-6.5-2.7-5.5-1.2M291 468.4c0 .5 10.7 6.6 11.5 6.6 1.8 0-.2-1.9-4.4-4.3-4.5-2.5-7.1-3.3-7.1-2.3M459 468.8c0 1.1 6.4 5.2 8.1 5.2.5 0 .9-.4.9-.8 0-.7-3-2.5-8.2-5-.5-.2-.8.1-.8.6M472 476c0 .9 7.9 6 9.3 6 1.8 0 .3-1.8-3.7-4.3-4.7-2.9-5.6-3.2-5.6-1.7M307 476.8c0 .5 2.3 2.1 5 3.6 6.1 3.3 6.7 1.7.7-1.9-4.7-2.7-5.7-3-5.7-1.7M735.7 481.8l-19.7.2.2 23.3.3 23.2 19-.1c10.5 0 30.4-.1 44.3-.2l25.4-.2-.3-22.3c-.2-12.2-.5-22.8-.8-23.6-.3-1.1-4.8-1.3-24.5-1-13.3.2-33 .5-43.9.7m66.1 22.9.2 21.3-35.2.1c-19.4.1-38 .2-41.3.3-6 .1-6 .1-6.1-3.4-.1-1.9-.3-11.4-.5-21l-.4-17.5 31.5-.5c17.3-.3 36-.6 41.5-.5h10z"/><path d="M779 487.5c-1.5 4-1.2 9 .8 11.5 1.6 2 1.9 2 3.1.6 1.9-2.2 2.4-8.7.9-11.5-1.8-3.5-3.6-3.7-4.8-.6m4 5.2c0 3.9-.9 6.5-2.1 5.7-1-.6-1.2-9.7-.2-10.7 1.1-1.1 2.3 1.5 2.3 5M725 490c0 3.6.3 4 2.5 4 2 0 2.5.5 2.5 2.3 0 3.1-1 4-2.7 2.5-1.8-1.5-2.9-.2-1.3 1.7 1.7 2.1 2.7 1.9 4.6-1 1.4-2.1 1.5-3.1.6-5-.7-1.4-1.8-2.5-2.7-2.5-.8 0-1.5-.9-1.5-2 0-1.3.7-2 2-2 1.1 0 2-.5 2-1 0-.6-1.3-1-3-1-2.8 0-3 .2-3 4M736.7 486.7c-.4.3-.7 1.6-.7 2.7.1 2 .2 2 1.4.3 3.1-4.1 3.5-.5.6 5.3-2.8 5.5-2.6 7 1 7 2.4 0 3-.4 3-2.1 0-1.5-.5-1.9-1.5-1.5-1.9.7-1.9-.7.1-4.6 1.9-3.6 1.1-7.8-1.5-7.8-1 0-2.1.3-2.4.7M758.8 490.9c-2.8 5.2-2.7 6.1.5 6.1 1.4 0 1.8.5 1.4 2-.5 2.1.8 3.7 1.7 2.1.3-.5.6-2 .6-3.3.1-7.7-.2-11.8-.8-11.8-.4 0-1.9 2.2-3.4 4.9m1.8 3.8c-1 1-1.9-.5-1-1.8.6-1.1.8-1.1 1.2 0 .2.7.1 1.5-.2 1.8M769.9 486.5c0 .3 0 3.8-.1 7.7 0 5.5.3 7.3 1.3 7.3.8 0 1.4-.6 1.3-1.3-.1-.6-.2-4.1-.2-7.7-.1-3.6-.6-6.5-1.2-6.5-.5 0-1 .2-1.1.5M746.5 493.9c.6 1 5.1.8 6.2-.2.3-.4-1-.7-3.1-.7-2 0-3.5.4-3.1.9M769.6 508.5c-2.2 2.2-2.2 12.7-.1 14.5 2.9 2.4 6-2.4 4.4-6.8-.5-1.2-1.5-2.2-2.4-2.2-.8 0-1.5-.9-1.5-2.1 0-1.6.4-1.9 2-1.4 2.3.7 2.7-.7.6-2.4-1.1-.9-1.8-.8-3 .4m3.4 8.9c0 2.2-1.1 4.6-2.1 4.6-.5 0-.9-1.4-.9-3q0-3 1.5-3c.8 0 1.5.6 1.5 1.4M779.5 510c-1.8 3.5-1.9 5.6-.4 9.9 2.8 7.9 7.6-.8 5.3-9.6-.9-3.4-3.2-3.6-4.9-.3m4 2.1c1 2.9-.4 9.1-1.8 8.6-1.3-.4-2.2-7-1.3-9.3.8-2.1 2.4-1.7 3.1.7M725.5 509.9c-.3 1.1-.3 3.1.1 4.5.5 2 1.1 2.5 2.5 2.1 1.6-.5 1.9-.1 1.9 2.4 0 3-1.3 4.1-2.5 2.1-.9-1.5-2.5-.2-1.8 1.5.7 1.9 3.7 1.9 5.2.1 1.9-2.3.9-7-1.7-8.1-2.3-1-2.6-3.9-.4-4.1.6-.1 1.7-.2 2.3-.3 2-.2-.2-2.1-2.6-2.1-1.5 0-2.6.7-3 1.9M736.4 510.5c-.3 1.4-.3 2.9 0 3.3.4.3.9-.4 1.3-1.6.3-1.2.9-2.2 1.4-2.2 1.5 0 1 4.5-1.1 8.8-2.5 5.2-2.6 5.2 1 5.2 2.4 0 3-.4 3-2.1 0-1.8-.2-1.9-1.5-.9-2 1.7-2-.1.1-4.1 2.1-4.2 1.5-8.3-1.3-8.7-1.7-.3-2.4.3-2.9 2.3M759.1 512.9c-2.4 5.2-2.2 7.1.9 7.1 1.3 0 1.7.5 1.3 2-.4 1.3 0 2 1 2s1.4-.9 1.2-3.3c-.2-1.7-.3-5.3-.4-8-.1-2.6-.4-4.7-.9-4.7-.4 0-1.8 2.2-3.1 4.9m1.9 3.2c0 1.1-.4 1.8-1 1.4-.5-.3-.7-1.2-.3-2 .7-2.1 1.3-1.9 1.3.6M746.5 516c-.4.6.8 1 3 1s3.4-.4 3-1c-.3-.6-1.7-1-3-1s-2.7.4-3 1M486 483.5c0 1.1 6.9 5.5 8.5 5.5 1.8 0-.2-2.2-4-4.3-3.1-1.8-4.5-2.2-4.5-1.2M506 484.5c0 1.4.5 2.5 1 2.5.6 0 1-1.1 1-2.5s-.4-2.5-1-2.5c-.5 0-1 1.1-1 2.5M685 485.5c0 1.5.4 2.4 1 2 .6-.3 1-1.2 1-2s-.4-1.7-1-2c-.6-.4-1 .5-1 2M322 485c0 .5 2.3 2.1 5 3.5 6.2 3.1 6.6 1.6.6-1.9-4.9-2.9-5.6-3.1-5.6-1.6M506 491.1c0 2-.1 2.1-2.5.5-2.5-1.7-5.5-2.1-5.5-.9 0 .5 2 1.8 4.3 2.9 2.8 1.4 4.3 2.9 4.5 4.4.6 4.1 1.7.3 1.4-4.4-.4-4.5-2.2-6.6-2.2-2.5M680.5 492.4c-1.4 1.4-2.2 3.1-1.9 3.9.4 1.1-.5 1.7-3.3 2.1-3.3.5-29.8 3.6-30.9 3.6-.9 0-.3 15.9.6 16.5.6.4 1-2.1 1-6.8v-7.5l10.3-1.1c5.6-.7 13.1-1.6 16.7-2.2 5.9-1 6.6-.9 8.1.9 1.8 2.3 4.3 2.9 8.1 1.9 2.7-.7 3.1-1.4 4.3-7.4.5-2.5.2-3.4-1.7-4.7-3.4-2.4-8.5-2-11.3.8m3 1.5q-.6 1.95 1.2 3c1.7 1 1.6 1-.3 1.1-1.2 0-2.8-.7-3.5-1.6-1.1-1.4-1-1.8.6-3 2.5-1.8 2.8-1.8 2 .5m8.5.4c0 1.5-2 3.7-3.3 3.7-.5 0-.4-.7.3-1.5.6-.8.9-1.9.5-2.5-.3-.5.1-1 .9-1 .9 0 1.6.6 1.6 1.3m-4 .7c0 .5-.7 1-1.5 1s-1.5-.5-1.5-1c0-.6.7-1 1.5-1s1.5.4 1.5 1m.8 5.8c.2.7-.6 1.2-1.7 1.2-2.1 0-2.7-1.1-1.4-2.4.9-.9 2.6-.2 3.1 1.2m1.9-.1c-.4.3-.7 0-.7-.7s.3-1 .7-.7c.3.4.3 1 0 1.4m-7.7-.2c0 .3-.2.5-.5.5s-.5-.2-.5-.5.2-.5.5-.5.5.2.5.5M336 492.7c0 .5 1.8 1.8 4 3 4.8 2.6 5.4 1.1.8-1.7-3.5-2.1-4.8-2.5-4.8-1.3M348 498.9c0 .9 5 4.1 8.3 5.4 3.5 1.3 1.2-1.5-3.1-3.9-4.7-2.7-5.2-2.8-5.2-1.5M380 503.5c0 1.4.5 2.5 1 2.5.6 0 1-1.1 1-2.5s-.4-2.5-1-2.5c-.5 0-1 1.1-1 2.5M507 504c0 1.1-.6 2-1.4 2-2.1 0-3.3 2.1-4 7.2-.6 3.8-.4 5 1.2 6.5 3.8 3.8 5.2 7.2 5.2 12.8 0 4.4.3 5.5 1.6 5.5 1.4 0 1.5-.8.9-5.5-.6-5.5.4-8 5.4-13.4.9-1 1.1-2.7.7-5.3-.9-5.2-2.6-7.8-5.3-7.8-1.6 0-2.3-.6-2.3-2 0-1.1-.4-2-1-2-.5 0-1 .9-1 2m.8 6.3c.2 1.2-.3 1.7-1.7 1.7-2.3 0-2.4-.1-1.5-2.5.8-1.9 2.8-1.5 3.2.8m3.2-.3c0 1.1-.4 2-.8 2s-.8-.9-.9-2 .2-2 .8-2c.5 0 .9.9.9 2m3 .5c0 .3-.2.5-.5.5s-.5-.2-.5-.5.2-.5.5-.5.5.2.5.5m.6 4.3c-.2 3.7-5.7 6.7-8 4.4-.4-.4-1.3-.7-1.9-.7-.7 0-1.3-1-1.5-2.3-.4-2.4 1.6-3 3.6-1 .9.9 1.2.9 1.2.1 0-.7 1.5-1.4 3.3-1.6 1.7-.2 3.3-.5 3.3-.5.1-.1.1.6 0 1.6m-4.4 8.4c-.9.9-1.5.9-2.4 0s-.7-1.2 1.2-1.2 2.1.3 1.2 1.2"/><path d="M508 518c0 .7.3 1 .7.7.3-.4.3-1 0-1.4-.4-.3-.7 0-.7.7M361 506.4c0 .4 8.9 5.6 9.6 5.6.2 0 .4-.4.4-1 0-.5-1.8-1.9-4-3-3.7-1.9-6-2.5-6-1.6M380 509.9c0 1.1.5 2.3 1 2.6.6.4 1-.5 1-1.9s-.4-2.6-1-2.6c-.5 0-1 .9-1 1.9M373 512.8c0 .4 1.5 1.6 3.3 2.7 1.7 1 3.6 2.5 4 3.2 1.2 2 2.5.7 2-2.2-.3-1.3-.9-2.2-1.5-1.9-.5.3-2-.1-3.3-1-2.6-1.7-4.5-2.1-4.5-.8M167.8 519.7c-2.1.5-2.4 3.9-.5 4.6.7.3 2.4.3 3.8.1 1.9-.4 2.9.3 4.8 3 1.3 2 5.8 6.6 10 10.3s7.8 7 8.1 7.3c.6.6 15.4 12.5 19.3 15.5 1.4 1.1 7.6 5.4 13.8 9.5 6.1 4.1 13.5 9.2 16.3 11.3l5.1 3.7.5 17.2c.4 13 .8 17.2 1.8 17.6 1.1.3 1.2-2.6.6-16.2-.4-9.8-.3-16.6.2-16.6s3.2 1.5 5.9 3.3c2.8 1.9 7.6 4.8 10.8 6.5 14.7 8.2 17.5 9.7 21.2 11.9 6.6 3.9 49.4 24.8 58.2 28.4 7.9 3.3 8.2 3.5 8.5 6.9.4 5 3.1 5.2 5.1.3 1.6-4.1.9-6.9-2.1-8-10.7-3.9-53.3-24.2-67.2-32-1.9-1.1-7.1-3.9-11.5-6.3s-10.6-6.1-13.8-8.2-6.1-3.8-6.3-3.8c-1 0-25.1-16.7-31.8-22-3.9-3.1-11.4-8.5-16.6-12s-9.7-6.6-10-6.9-4.4-3.9-9.2-7.9c-4.8-4.1-10.4-9.6-12.3-12.2-4.4-5.9-6.7-6.9-12.7-5.3m9.5 4c3.8 4.6 11 11.6 17.7 17.3 3.6 3 7.1 6.1 7.8 6.7.7.7 3.9 2.9 7 5s5.9 4 6.2 4.3 2.4 1.8 4.7 3.4c3.7 2.5 4.8 4.6 2.4 4.6-1.1 0-13.6-9.3-23.1-17-13.4-11-20.8-17.9-22.8-21.2-1-1.7-2.8-3.2-4.4-3.5-3.5-.7-3.6-2.3-.2-2.3 1.6 0 3.4 1 4.7 2.7m65.3 52.7c14.2 9.7 32.3 20.8 45.4 27.8 24.7 13.2 58.1 29.4 69.5 33.8 1.8.7 2.5 1.7 2.5 3.5 0 3.2-.8 3.2-2 0-.5-1.4-2.1-3-3.5-3.5-1.5-.6-5-2.1-7.8-3.4-2.9-1.3-7.7-3.4-10.7-4.7-15.3-6.4-56.7-28.2-72-37.8-1.4-.9-3.5-2.1-4.7-2.8-1.3-.7-3.3-1.9-4.5-2.6-2.7-1.5-7.9-4.8-9.3-6-.5-.5-2.2-1.6-3.6-2.5-10.1-6.6-16.8-11.6-16.3-12.4.3-.5 1.4-.4 2.4.4 1 .7 7.6 5.3 14.6 10.2M381 524c0 1.1.5 2 1 2 .6 0 1-.9 1-2s-.4-2-1-2c-.5 0-1 .9-1 2M657.1 523.9c-1.8 1.1-2.2 7.9-.5 9.5.7.8 2.3 1.2 3.3.9 1.7-.4 2-1.3 1.9-4.9-.1-4.6-2.1-7-4.7-5.5m2.9 2.6c0 .8-.4 1.5-.9 1.5-1.3 0-2.2-1.6-1.4-2.4 1.1-1.1 2.3-.6 2.3.9m.6 3.6c1 1.7-1.3 3.6-2.7 2.2-1.2-1.2-.4-3.3 1.1-3.3.5 0 1.2.5 1.6 1.1M665.4 523.8c-1.8 1.2-2.5 4.8-1.5 7.6 1.4 3.6 5.6 3.6 6.5 0 1-3.8-.9-8.4-3.4-8.4-.3 0-1 .4-1.6.8m3.1 5.3c0 2.4-.5 3.4-1.5 3.4-1.6 0-2.5-3.7-1.6-6.2 1-2.6 3.1-.8 3.1 2.8M600.1 525.8c-1.2 2.3 1.1 6.2 3.7 6.2 1.2 0 1.3.3.4 1.2-.8.8-1.5.8-2.8-.3-1.5-1.2-1.7-1.2-1.2.1.8 2.6 5.1 1.8 6.2-1.2 1.9-5.5-3.7-10.8-6.3-6m4.9 1.6c0 2.1-2.1 3.1-3 1.5-.5-.7-.6-1.7-.4-2.1.9-1.4 3.4-.9 3.4.6M608.7 524.7c-1.4 1.3-.6 5.3 1.2 6.2 1 .6 2.1.7 2.5.4.3-.3.6-.1.6.5 0 1.6-1.7 2.4-2.5 1.2-.8-1.3-2.5-1.3-2.5-.1 0 1.6 4 2.3 5.5 1.1 1.5-1.3 2-5.6.9-8.4-.6-1.6-4.5-2.2-5.7-.9m4.3 3.3c0 1.1-.7 2-1.5 2s-1.5-.9-1.5-2 .7-2 1.5-2 1.5.9 1.5 2M617.1 525.4c-1.7 2 .3 5.6 2.9 5.6 1.1 0 2 .5 2 1.1 0 .7-1 .9-2.5.6-1.6-.3-2.4 0-2.2.7.6 1.8 4.6 1.9 5.3.2.7-1.9 6-2.2 6.7-.4.8 2.4 2.1-.3 1.9-4-.4-5.1-1.7-5.9-3.8-2.3-2.1 3.5-3.4 4-3.4 1.3 0-3.8-4.6-5.6-6.9-2.8m4.7 2.3c-.2 1-1 1.8-1.8 1.8s-1.6-.8-1.8-1.8c-.2-1.2.3-1.7 1.8-1.7s2 .5 1.8 1.7m6.8 3c-1 1-1.9-.5-1-1.8.6-1.1.8-1.1 1.2 0 .2.7.1 1.5-.2 1.8M633.7 526.9c-1.1 5.4 1.1 8.9 4.8 7.5.8-.4 1.5-1.2 1.5-2 0-2.1 5.7-1.7 8 .6 3.5 3.5 7.1-.5 5.6-6.5-.9-3.6-5.3-3.5-6.9.2-1.7 4-5.2 4.2-6.5.3-1.5-4.2-5.7-4.3-6.5-.1m17.8 2.2c0 2.4-.5 3.4-1.5 3.4-1.6 0-2.5-3.7-1.6-6.2 1-2.6 3.1-.8 3.1 2.8m-13 .4c0 4.3-2.9 4-3.3-.3-.3-2.8 0-3.3 1.5-3 1.3.2 1.8 1.2 1.8 3.3M671.6 525.5c-.7 1.8.5 2 2.2.3.9-.9 1.5-.9 2.4 0 .8.8.3 1.8-2 4.1-1.8 1.6-3.2 3.2-3.2 3.5s1.7.5 3.8.5q3.45-.15 1.5-.6c-2.9-.6-2.9-1.3.3-3.8 1.7-1.4 2.3-2.6 1.9-3.8-.9-2.1-6-2.3-6.9-.2M378.3 529.2c-1.8.9-2.3 1.9-2.3 5.2 0 2.3-.3 5.1-.6 6.3-.4 1.3.1 2.8 1.3 4 3.1 3.2 5.3 7.1 5.3 9.8 0 1.4.5 2.5 1 2.5.6 0 1-1.6 1-3.5s.3-3.5.8-3.5c.4 0 1.8-2 3.1-4.5 2.2-4.2 2.3-5 1.2-9.7-.6-2.8-1.6-5.7-2.2-6.5-1.3-1.5-5.5-1.6-8.6-.1m6.7 1.6c0 1.4-2.3 3.2-4.2 3.2-2 0-2.1-.1-1.2-2.4.6-1.6 5.4-2.3 5.4-.8m2.2 7.7c.3 1.4.1 2.5-.4 2.5-.6 0-.8.7-.4 1.5.4 1.1-.1 1.5-1.9 1.5-1.4 0-2.5-.6-2.5-1.3 0-.8-.3-.8-.9.2-.8 1.2-1.1 1.2-2.3 0-1.4-1.5-1.7-5.3-.5-6.5.4-.4.7 0 .7.9s.5 1.9 1.1 2.3c.7.4.9 0 .5-1.4-.6-1.7-.2-2.1 2.1-2.4 3.7-.5 4-.3 4.5 2.7M385 547c0 .5-1 1-2.2.9-2.2 0-2.2-.1-.3-.9 1.1-.5 2.1-.9 2.3-.9.1-.1.2.3.2.9"/><path d="M179 539.6c0 2.7.4 4.3 1 3.9.6-.3 1-2.4 1-4.6 0-2.1-.4-3.9-1-3.9-.5 0-1 2.1-1 4.6M497.5 540c-17 .3-31.1.7-31.3.8-.1.1-.1 5.7 0 12.4l.3 12.3 42.5-.2c23.3-.1 43.5-.4 44.7-.8 2.3-.5 2.3-.7 1.7-11.8-.3-6.1-.7-11.8-1-12.5-.3-1-3.3-1.3-13.1-1-7.1.2-26.7.5-43.8.8m54.5 11.8v9.9l-22.7.7c-12.6.3-31 .9-41 1.3l-18.3.6v-21.2l9.3-.3c5-.2 23.5-.5 41-.6l31.7-.2z"/><path d="M519.7 544.4c-2.1 2.2-2.1 14.3 0 15.4 3.8 2.2 7.6-2.5 5.4-6.6-.5-1-.6-2.4-.2-3.1 2.2-3.4-2.4-8.4-5.2-5.7m3.3 3.6c0 1.1-.7 2-1.5 2s-1.5-.9-1.5-2 .7-2 1.5-2 1.5.9 1.5 2m0 7.5c0 2.6-1.4 3.3-2.5 1.5-.9-1.4.1-4 1.5-4 .5 0 1 1.1 1 2.5M530.5 544.6c-1 1-1.5 3.4-1.5 6.9 0 6.9.7 8.5 3.6 8.5 4.2 0 4.6-9.2.4-10.5-2-.6-2.8-3.5-1-3.5.6 0 1 .4 1 1 0 .5.5 1 1 1 1.6 0 1.2-3.7-.5-4.4-.8-.3-2.1.2-3 1m3.3 9.9c-.2 1.4-.7 2.6-1.3 2.6-.5 0-1.1-1.2-1.3-2.6-.2-1.8.1-2.5 1.3-2.5s1.5.7 1.3 2.5M475.7 546.9c-.9 4.3.2 7.3 2.4 6.6 1.5-.5 1.9-.1 1.9 1.9q0 4.2-2.7 1.5c-1.7-1.7-2.4 1.6-.8 3.8 1.1 1.4 1.8 1.6 3.1.7 3.9-2.3 3.4-10.1-.6-11.1-2.6-.7-2-2.7.8-3.1 3.3-.5 2.7-3.2-.7-3.2-2.3 0-3 .5-3.4 2.9M487 545.9c-1.7 3.3-1.3 12.6.8 14.4 2.1 1.9 3.7 1.1 5-2.3 1.2-3.2-.2-7-2.8-7.7-1.1-.3-2-1.2-2-1.9 0-1 .7-1.3 2.5-.8 2.7.7 3.3-.4 1.3-2.4-1.8-1.8-3.6-1.5-4.8.7m4 9.7c0 3.1-2.3 2.8-2.8-.4-.2-1.5.2-2.2 1.2-2.2 1.1 0 1.6.9 1.6 2.6M507.7 544.7c-1 1-.8 4.3.2 4.3.5 0 1.1-.6 1.4-1.3 1-2.9 1.6.3.8 4.9-.7 5.1.1 10.5 1.2 7.4.3-.8.8-3.3 1-5.5.3-2.2.9-5.5 1.2-7.3.7-3 .6-3.2-2.2-3.2-1.6 0-3.3.3-3.6.7M496 553c0 .5 1.8 1 4 1s4-.5 4-1c0-.6-1.8-1-4-1s-4 .4-4 1M179.3 551.5c0 2.7.2 3.8.4 2.2.2-1.5.2-3.7 0-5-.2-1.2-.4 0-.4 2.8M353.4 558.8c-10.6.2-15.5.6-16.1 1.5-.5.6-.7 6.3-.5 12.4l.4 11.3h38.6c21.3 0 41.7-.3 45.5-.7l6.7-.6v-24.8l-29.7.3c-16.4.2-36.6.4-44.9.6m71 7.3c.8 8.2.8 13.7-.2 14.2-.4.3-19.5.8-42.5 1.2l-41.7.8V562h5.8c10.7 0 67.7-1.3 68-1.5.1-.1 2.4-.3 5.1-.4 4.8-.1 4.8-.1 5.5 6"/><path d="M379.6 564.6c-.8 3.2.2 4.6 1.5 2.1 1.5-2.6 3-1.1 1.9 1.9-1.2 3.1-1.3 10.4-.1 10.4.7 0 3.1-11.7 3.1-15.4 0-1.1-.9-1.6-2.9-1.6-2.3 0-3 .5-3.5 2.6M391.1 563.7c-1 2.1-.9 12.2.2 14 1.1 1.7 4.2 1.7 5.5 0 1.4-1.7.8-12.3-.8-14.2-1.7-2-3.7-1.9-4.9.2m3.9 3.3c0 1.1-.4 2-.9 2-1.4 0-2.3-1.8-1.6-3 1-1.7 2.5-1.1 2.5 1m.5 7.5c0 2.8-2.9 2.5-3.3-.3-.3-1.9 0-2.3 1.5-2 1 .2 1.8 1.2 1.8 2.3M401 565c0 1.6.5 3 1 3 .6 0 1-.7 1-1.5s.5-1.5 1.1-1.5c.7 0 .8 1.6.3 4.7-1.1 7-1 8.6.3 9 .7.3 1.3-1.5 1.6-4.9.3-2.9.9-6.8 1.2-8.6.7-3.1.7-3.2-2.9-3.2-3.3 0-3.6.2-3.6 3M412.1 570.1c.2 4.4.7 8.3 1.1 8.6.5.2 2 .2 3.3-.1 2.9-.7 4.3-4.9 2.5-7.1-.8-.9-.8-1.9-.2-3.1 1.6-2.9-.6-6.4-4-6.4-2.9 0-2.9 0-2.7 8.1m4-2.4c-.9 1.6-1 1.4-1.1-1.2 0-2.1.3-2.6 1.1-1.8s.8 1.6 0 3m1.3 7.4c-1.1 1.8-2.4.8-2.4-1.9.1-2.6.1-2.6 1.5-.8.8 1 1.2 2.3.9 2.7M346.7 563.7c-.4.3-.7 2.4-.7 4.5 0 3.4.3 3.8 2.5 3.8 1.8 0 2.5.5 2.5 1.8 0 2.5-1.1 3.4-2.6 2.1-1.7-1.4-2.9.8-1.4 2.6 1.8 2.2 3.9 1.8 5.1-.9 1.5-3.2.3-7.7-2.1-8.3-2.6-.7-2.6-3.3 0-3.3 1.1 0 2-.7 2-1.5 0-1.5-4-2.1-5.3-.8M358 565.6c-1.6 4.1-1.2 10 .9 12.5 1.6 2 2.1 2.1 3.5 1 2.5-2.1 2-7.6-.9-9.8-1.8-1.3-2.2-2.2-1.5-3.3.6-1 1-1.1 1-.3 0 .7.7 1.3 1.5 1.3 1.8 0 1.9-1.2.3-2.8-1.9-1.9-3.8-1.4-4.8 1.4m4 8.4c0 1-.4 2.1-.9 2.4-1 .7-2.3-3.3-1.5-4.6s2.4.1 2.4 2.2M368 571c0 1.6 2.7 2.3 5.5 1.6 3.9-1 2.9-2.6-1.5-2.6-2.2 0-4 .5-4 1M178.7 559.7c-1.1 1-.8 7.3.3 7.3.6 0 1-1.8 1-4 0-4.1-.2-4.5-1.3-3.3M178.8 569.5c-.7 1.2-.4 6.1.6 9.1.4 1.3 1.8 2.4 3.6 2.8 2.1.4 3 1.1 3 2.5 0 2.7-1.3 3.3-4.7 2-2.5-1-2.6-1.2-.8-1.8 1.6-.7 1.3-1.2-2.8-3.5-5.6-3.3-7.4-2.9-8.2 1.8-1.1 5.5-2.9 6.5-13 6.8-6 .2-9 .7-9.3 1.5-.3 1 1.9 1.3 8.6 1.3 7.5 0 9.2.3 10.6 1.9 1 1.1 3.3 2.7 5.2 3.6s3.9 2.6 4.3 3.9c.5 1.2 1.6 2.8 2.5 3.5 2.4 2 7.2-.3 8.1-3.7 1.1-4.5 3.4-7.2 6-7.2 3.7 0 3.2-3-1-6.3-2.7-2.1-3.5-3.5-3.5-6 0-2.7-.6-3.5-3.7-5.2-2.8-1.4-3.9-2.8-4.3-5-.3-1.7-.8-2.6-1.2-2m6.2 9.9c0 .2-.9.2-2-.1s-2-.9-2-1.5c0-.5.9-.4 2 .2s2 1.2 2 1.4m-8.7 2.2c2 .7 2 1.1.6 7-1.3 4.9-1.5 5.1-4.7 2.8-2-1.4-2.3-2.1-1.7-5.8.9-5 1.3-5.9 2.8-5.2.7.4 2 .9 3 1.2m5.7 6.4c.8.5 1.2 1.1.9 1.4s-1.4-.1-2.5-.9c-2.1-1.6-.8-2 1.6-.5m7 0c0 1.2-2.8 2.5-3.6 1.7-.9-.9.6-2.7 2.2-2.7.8 0 1.4.5 1.4 1m-13.7 6.8c2.6 1.1 3.7 3.2 1.7 3.2-2.1 0-9.5-4.9-9.9-6.5-.3-1.6-.1-1.6 2.5.2 1.6 1 4.1 2.4 5.7 3.1m7.3-3.6c.7 1-2 3.8-3.8 3.8-.4 0-.8-1.1-.8-2.5 0-1.8.5-2.5 1.9-2.5 1.1 0 2.3.5 2.7 1.2m10.1.5c-.4.3-1 .3-1.4 0-.3-.4 0-.7.7-.7s1 .3.7.7m-2.7.7c0 .3-.5.8-1.2 1.2s-.8.3-.4-.4c.7-1.2 1.6-1.6 1.6-.8m-3.5 2.6c-.3.5-1.1 1-1.6 1-.6 0-.7-.5-.4-1 .3-.6 1.1-1 1.6-1 .6 0 .7.4.4 1m-4.8 2.7c-.4.3-1 .3-1.4 0-.3-.4 0-.7.7-.7s1 .3.7.7m4.3 1.1c0 .5-.7 1.7-1.5 2.8-1.4 1.9-1.4 1.9-1.5-.2 0-1.1.3-2.4.7-2.7.9-1 2.3-.9 2.3.1m-6.3 3.4c-.3.8-.6.5-.6-.6-.1-1.1.2-1.7.5-1.3.3.3.4 1.2.1 1.9m2.3-1.7c0 .3-.2.5-.5.5s-.5-.2-.5-.5.2-.5.5-.5.5.2.5.5M76.3 577.8 55 578v24h44.3c24.3 0 44.7-.4 45.2-.8.7-.4.9-4.9.5-12.2l-.5-11.5H121c-12.9 0-33.1.1-44.7.3M142 590v10h-41c-22.6 0-41.3.1-41.7.2-.5.2-.9-4.3-1.1-10l-.3-10.2H142z"/><path d="M97.7 581.6c-.4.4-.7 2.5-.7 4.6 0 3.4.3 3.8 2.5 3.8 2.5 0 3.1 1.3 1.9 4.4-.5 1.3-.9 1.4-2 .5-1.8-1.5-2.7-.7-1.8 1.5.9 2.3 3 2 4.8-.6 2.3-3.2 2-5.5-.9-7.4-3-2-3.3-4.4-.4-4.4 1.2 0 1.9-.5 1.7-1.3-.5-1.4-4-2.1-5.1-1.1M64.4 583.4c-.3.8-.4 2.7-.2 4.3.2 2.3.7 2.7 2.6 2.5 1.7-.3 2.2.2 2.2 2.1 0 3.1-1 4-2.7 2.5-1.8-1.5-2.9-.2-1.3 1.7 1.8 2.2 3.9 1.8 5.1-.9 1.6-3.4.4-7.6-2.1-7.6-1.3 0-2-.7-2-2s.7-2 2-2c1.1 0 2-.5 2-1 0-1.5-5-1.2-5.6.4M75.5 583.9c-1 3.3.6 4.8 2.1 2 1.3-2.4 1.3-2.4 1.4.4 0 1.5-.9 4.6-2 6.8-1.8 3.3-1.8 4-.6 4.5 2.7 1 5.1-.1 5.4-2.6.4-2.1.2-2.2-1.2-1.1-2.4 2-3 .7-1.1-2.2 2.3-3.6 1.7-9.1-1.2-9.5-1.4-.2-2.3.3-2.8 1.7M109.7 589.6c.1 4.2.4 7.8.7 8.1s1.3.3 2.2-.1c1.3-.5 1.5-.9.6-1.8-.7-.7-1.2-4-1.2-7.5 0-4.4-.4-6.3-1.2-6.3-1 0-1.3 2.1-1.1 7.6M120.2 586.2c-2.7 5.3-2.8 6.8-.2 6.8 1.5 0 2 .7 2 2.6 0 1.6.5 2.4 1.3 2.2.6-.3 1.2-1.8 1.1-3.4-.3-10.1-.5-12.4-1.2-12.4-.4 0-1.7 1.9-3 4.2m1.4 4.5c-1 1-1.9-.5-1-1.8.6-1.1.8-1.1 1.2 0 .2.7.1 1.5-.2 1.8M86 590c0 .5 1.6 1 3.5 1s3.5-.5 3.5-1c0-.6-1.6-1-3.5-1s-3.5.4-3.5 1M204.7 622.7c-.4.3-.7 6-.7 12.5V647l44.8-.2 44.7-.3-.3-11.5c-.2-6.3-.6-11.8-.9-12.2-.5-1-86.7-1.1-87.6-.1m85.3 11.6v10.3h-41.2l-41.3-.1-.3-9.7-.3-9.7 7.8-.3c4.3-.2 23-.4 41.6-.6l33.7-.3z"/><path d="M214 630.5c0 3.8.3 4.5 1.8 4.3 1.2-.2 1.8.5 2 2.4.2 2-.1 2.8-1.2 2.8-.8 0-1.6-.5-1.8-1.2-.3-.9-.6-.9-1.1-.1-1 1.6 2 4.3 3.8 3.6 3.4-1.2 3.2-8.3-.3-9.8-2.7-1.2-2.9-3.1-.2-3.8 2.8-.7 2.5-2.7-.5-2.7-2.3 0-2.5.4-2.5 4.5M225.2 627.2c-1.4 1.4-1.6 4.8-.2 4.8.6 0 1-.9 1-2s.5-2 1-2c1.7 0 1.1 4.9-1.1 9.2-2.3 4.5-1.6 6.2 2.2 5.6 1.6-.2 2.5-1.1 2.7-2.6.4-2.3-1.3-3.1-2.1-1-.2.7-.8 1-1.1.6-.4-.3 0-2.2.9-4.1 2.9-6.1.5-12.3-3.3-8.5M246 630.5c0 4.2.2 4.6 2 4 1.7-.5 2-.2 2 2.4 0 3.3-.8 3.9-2.8 1.9-.9-.9-1.2-.7-1.2.9 0 2.6 2.3 3.6 4.5 1.9 2.5-1.8 1.7-7.8-1.2-9.1-1.3-.5-2.3-1.5-2.3-2.2 0-.6 1-1.3 2.3-1.5 2.9-.4 2.4-2.2-.8-2.6-2.4-.3-2.5-.1-2.5 4.3M258 634.6c0 7.6.2 8.5 1.7 8.2 1.6-.3 1.7-1.3 1.4-7.8-.3-7.8-.6-9-2.2-9-.5 0-.9 3.9-.9 8.6M267.2 628.5c-2.4 5.2-.6 13.5 2.8 13.5 2.5 0 4.4-5.2 3.5-9.7-1.2-6.5-4.3-8.3-6.3-3.8m3.8 5.5c0 5.7-1.1 7.8-2.4 4.4-1.4-3.5-.4-10.4 1.5-10.4.5 0 .9 2.7.9 6M235.3 633.7c-2.7 1-1.1 2.3 2.7 2.3 4 0 5.3-1.3 2.4-2.4-1.8-.7-3.3-.7-5.1.1M355.3 650.2c-1.6 2.1-2.3 4.7-1.4 5.3.5.2 1.4-.9 2.1-2.5 1.4-3.3.9-4.9-.7-2.8M350.6 660.2c-1.4 3.3-1.2 5.3.5 4.3.5-.4.9-1.4.9-2.4 0-.9.5-2.2 1.1-2.8.8-.8.8-1.3 0-1.8-.7-.4-1.7.7-2.5 2.7M327.9 666.7c-2.3 5.4-3.5 12.9-2.5 16.6.4 1.8 1.7 2.9 4.1 3.7 2.2.7 3.5 1.8 3.5 2.9 0 2.3 2.8 6.1 4.6 6.1 1.5 0 9.6-5.7 10.2-7.3.2-.4 2.6-.7 5.3-.7 3.8 0 4.9-.4 4.9-1.6s-1-1.5-4.5-1.3c-3.7.3-4.8-.1-6.1-1.9-.8-1.2-2.8-2.9-4.5-3.7-2-1.1-2.9-2.3-2.9-4 0-1.3-.7-2.8-1.6-3.3-1.3-.7-1.4-1.3-.5-3 1.4-2.7.6-4.6-2.5-6.1-4.2-1.9-5.4-1.3-7.5 3.6m5.6-1.7c.3.5.1 1-.4 1-.6 0-1.1-.5-1.1-1 0-.6.2-1 .4-1 .3 0 .8.4 1.1 1m2.4 3.6c.2.2-.2 1-.8 1.8-1 1.2-1.8 1.3-3.7.4-2.4-1.1-2.9-2-1.8-3.1.6-.6 5.3.1 6.3.9m-3.4 4.7c2.4 1.8 1.2 3.6-2 2.9-1.6-.3-2.5-1.1-2.5-2.3 0-2.2 1.9-2.5 4.5-.6m5.5 4.2c0 .8-.7 1.5-1.5 1.5-1.6 0-2-1.2-.8-2.3 1.1-1.2 2.3-.8 2.3.8m-4.3 4.2c1.2 1.5 1.4 1.5 3.2-.1 1.7-1.6 2.2-1.6 5.4-.2 4.2 1.7 5.7 5.1 3.3 7.4-1.5 1.5-1.6 1.4-1.6-1.1 0-1.8-.9-3.2-2.6-4.4-2.6-1.6-2.7-1.6-4.4.5-1 1.2-2.7 2.2-3.7 2.2-2.8 0-6.3-2.9-6.3-5.2 0-1.7.4-1.9 2.8-1.4 1.5.4 3.3 1.4 3.9 2.3m4.7 6c.4.5 1.3.8 1.9.8.7 0 1.3.8 1.5 1.7.2 1-.1 1.8-.7 1.8s-1.1-.4-1.1-.9-.9-1.1-2-1.4-2-1-2-1.6c0-1.3 1.3-1.5 2.4-.4m-.3 4.6c-.1 1.2-1.5.9-1.9-.4-.3-.6.1-1 .8-.8.6.3 1.1.8 1.1 1.2"/><path d="M345.9 670.2c-.7 1.8-1.4 3.6-1.7 4-.2.5.1.8.7.8 1.1 0 4.1-5.1 4.1-7 0-2.2-1.9-.8-3.1 2.2M45.2 671.9c-2.2 1.3-1.1 5.6 1.6 5.9 1.2.2 2.2.8 2.2 1.4s-1.1.8-2.5.5c-1.6-.3-2.4 0-2.2.7.5 1.6 3.6 2 5.2.6 1.8-1.5 2-7.1.3-8.8-1.4-1.4-2.8-1.5-4.6-.3m3.8 2.7c0 .8-.9 1.4-2 1.4-2.2 0-2.6-1-.8-2.8 1.3-1.3 2.8-.7 2.8 1.4M54.3 672.2c-3.1 4.1-1.9 9.8 2.1 9.8 2.6 0 3.6-1.6 3.6-5.9s-3.5-6.7-5.7-3.9m3.5 4.5c-.3 4.3-3.1 5.4-3.6 1.5-.5-3.2.4-5.2 2.3-5.2 1.3 0 1.5.9 1.3 3.7M62 672c0 .5.9 1 2 1 2 0 2 0 0 4-2.2 4.3-2.4 5-1.2 5 1.1 0 5.2-9.1 4.6-10.2-.7-1.1-5.4-1-5.4.2M69.7 672.7c-.4.3-.7 1.1-.7 1.7s.5.5 1.2-.2c1.8-1.8 3.8-1.4 3.8.7 0 1.1-.9 2.2-1.9 2.6-1.6.5-3.7 3.4-2.9 4 1.2.9 5.8 1.3 6.3.5.3-.5-.3-1-1.4-1-2.7 0-2.7-1.6-.1-3 1.2-.6 2-2.1 2-3.5 0-2.1-.5-2.5-2.8-2.5-1.6 0-3.2.3-3.5.7M79 673.9c-2.5 4.7 0 9.8 4.3 8.7 2.3-.5 2.7-1.2 2.7-4 0-1.9-.3-4.1-.6-5-.9-2.2-5.1-2-6.4.3m5 3.7c0 2.8-.4 3.5-1.7 3.2-2.2-.4-3-5.7-1.2-6.9 2-1.2 2.9-.1 2.9 3.7M92.7 672.7c-.4.3-.7 1.7-.7 2.9 0 1.7-.7 2.4-2.7 2.7-2.8.4-2.8.4 0 .6 1.6 0 2.7.7 2.7 1.5 0 1.8 3.1 2.9 5.4 2 1.6-.6 2.2-5.6 1-8.8-.6-1.6-4.5-2.2-5.7-.9m4.8 4.8c0 1.9-.6 3.1-1.6 3.3-2 .4-3-1.8-2.2-4.8.9-3.2 3.8-2.1 3.8 1.5M101 675c-2.3 5.6 2.4 10.8 6 6.5 1.8-2.2.3-5.5-2.6-5.5-1.6 0-2.3-.4-1.8-1.1.3-.6 1.5-.8 2.6-.6 1.2.4 1.8.1 1.5-.6-.2-.7-1.3-1.3-2.4-1.5-1.5-.2-2.4.6-3.3 2.8m5 4.6c0 .8-.9 1.4-2 1.4-2.2 0-2.8-2.6-.7-3.3 1.6-.6 2.7.1 2.7 1.9M119.3 672.8c-1.8 1.1-2.6 5.8-1.3 8.1 1.3 2.5 5.5 2.8 6.4.5 1.1-2.9-.3-5.4-3-5.4-1.6 0-2.3-.4-1.8-1.1.3-.6 1.5-.9 2.5-.6 2.3.6 2.6-.8.3-1.7-1.9-.7-1.6-.7-3.1.2m3.5 6.9c-.2 1-1 1.8-1.8 1.8s-1.6-.8-1.8-1.8c-.2-1.2.3-1.7 1.8-1.7s2 .5 1.8 1.7M367.6 672.7l-8.9.4.7 6.7c.3 3.7.6 9.3.6 12.4v5.8l37.3-.1c20.4-.1 40.6-.4 44.7-.8l7.5-.6-.2-11.5c-.2-6.3-.3-11.8-.3-12.3 0-.7-62.5-.7-81.4 0m65.9 2.3c.3.5.3 1-.2 1-.4 0-.8 3.8-.8 8.5 0 8.6 0 8.6 4 8.3 3.3-.2 4.1-.7 4.3-2.6.4-2.4-.7-2.9-2.5-1.1-1.3 1.3-3.3.4-3.3-1.7 0-.8.9-1.4 2-1.4 1.3 0 2-.7 2-2s-.7-2-2-2c-1.1 0-2-.6-2-1.4 0-1.9 2.3-3.3 2.8-1.8.6 1.9 2.2 1.4 2.2-.8 0-1.3-.7-2-2-2-1.1 0-2-.5-2-1 0-.6 2-1 4.5-1h4.5v20.7l-19.2.1c-10.6.1-29.1.5-41 .8l-21.8.7v-10.2c0-10.1 0-10.1 2.8-10.1 2.6 0 2.8.3 2.4 3-.3 1.8 0 3 .7 3 .6 0 1.1-.5 1.1-1 0-.6.5-1 1.1-1 .7 0 .8 2.1.4 6.5-.9 8.5.9 8.7 2.2.2.6-3.4 1.4-7 1.8-8 .6-1.4.1-1.9-2.6-2.5-2-.4 7.6-.9 22.6-1.2 14.3-.3 28.6-.6 31.7-.8 3.1-.1 5.9.2 6.3.8"/><path d="M380.6 678.2c-2 2.9-2.1 10.7 0 13.6 1.2 1.8 1.9 2 3.5 1.2 2.7-1.5 2.7-8.5-.1-10.2-1.1-.7-2-1.9-2-2.7 0-1.1.3-1.1 1.5-.1 2 1.6 3.3.4 1.9-1.7-1.6-2.6-3.1-2.6-4.8-.1m3.4 9.3c0 1.4-.4 2.5-.9 2.5-1.2 0-2.3-2.9-1.5-4.1 1-1.8 2.4-.9 2.4 1.6M402.6 681.5c-2.9 5.6-2.8 7.5.4 7.5 1.3 0 1.7.5 1.3 2s0 2 1.6 2c2 0 2-.4 1.5-7.8-.3-4.2-.9-8-1.3-8.4-.3-.4-1.9 1.7-3.5 4.7m2.4 3.5c0 .5-.5 1-1.1 1-.5 0-.7-.5-.4-1 .3-.6.8-1 1.1-1 .2 0 .4.4.4 1M413 677.5c-1.7 2-1.4 12.5.3 14.3 4.6 4.6 7.9-9 3.5-14.6-1.4-1.6-2.3-1.5-3.8.3m3 7c0 3-.4 5.5-1 5.5-.5 0-1-2.5-1-5.5s.5-5.5 1-5.5c.6 0 1 2.5 1 5.5M423 677.5c-1.4 1.7-.5 3.6 1.5 2.8 1.8-.6 2.1 2.3.3 3.1-1 .3-.8.9.5 1.9 1.8 1.5 2.3 3.7.8 3.7-.6 0-1.3-.5-1.7-1.1-.9-1.6-2.6.4-1.9 2.4.8 1.9 3 2.8 4.9 2.1 2-.8 2.9-5 1.6-7.4-.6-1.1-.8-2.5-.5-3.1.4-.5.4-2.1.1-3.5-.7-2.7-3.7-3.2-5.6-.9M389.5 685c-.4.6 1.2 1 3.9 1 2.5 0 4.6-.5 4.6-1 0-.6-1.8-1-3.9-1-2.2 0-4.3.4-4.6 1M111 674.1c-1.1.8-1.2 1.2-.2 1.6.6.2 1.2 2 1.2 3.9s.5 3.4 1 3.4c.6 0 1-2.3 1-5 0-5.2-.4-5.7-3-3.9M488.8 681c-2.2.6-2.3.9-2.3 12.5v12h87l.3-12.3c.3-12.2.3-12.2-2.5-12.2-1.5 0-20.2-.1-41.5-.3-21.3-.1-39.7 0-41 .3m82.2 12v10h-81v-20h81z"/><path d="M506.7 684.6c-.4.4-.7 2.7-.7 5.1 0 4 .2 4.4 2 3.8 1.6-.5 2-.2 2 1.9 0 1.4-.4 2.6-1 2.6-.5 0-1-.5-1-1 0-.6-.5-1-1.1-1-2.1 0-.4 4.5 1.8 4.8 4.6.7 5.3-8.7.8-10.4-2.1-.9-1.9-2.1.6-2.7 1.2-.3 1.9-1.2 1.7-1.9-.5-1.5-4-2.3-5.1-1.2M528.6 685.5c-2.5 2.5-2 7.2.9 9.1 3 1.9 3.3 3.5.6 3.1-2.4-.2-2.8 1.4-.8 2.7 2.8 1.8 4.7-1.1 4.7-7.4 0-4.3-.5-6.1-1.9-7.4-1.7-1.6-2-1.6-3.5-.1m3.2 4c-.2 1.4-.7 2.6-1.3 2.6-.5 0-1.1-1.2-1.3-2.6-.2-1.8.1-2.5 1.3-2.5s1.5.7 1.3 2.5M549.8 685.1c-2.8 1.6-2.4 7.5.7 9.5 2.4 1.6 2.5 3.7.2 3.2-1.8-.4-2 1.6-.3 2.7 2.4 1.5 3.9-.8 4.4-6.7.3-4.2 0-5.8-1.4-7.5-1.5-1.8-2.3-2-3.6-1.2m2.7 4.7c0 3.1-1.9 2.8-2.3-.4-.3-1.8 0-2.5 1-2.2.7.3 1.3 1.4 1.3 2.6M499.3 686.2c-1.4 1.9-4.3 8.4-4.3 9.7 0 .6.9 1.1 2.1 1.1 1.6 0 1.9.4 1.4 2-.5 1.5-.2 2 1.3 2 1.9 0 2-.5 1.5-7.8-.3-4.2-.6-7.8-.7-8-.2-.1-.8.3-1.3 1m-.6 7.5c-.4.3-.7 0-.7-.7s.3-1 .7-.7c.3.4.3 1 0 1.4M539.9 685.5c0 .3-.1 4-.1 8.2-.1 6.1.2 7.8 1.3 7.8.8 0 1.4-.6 1.3-1.3-.1-.6-.2-4.4-.2-8.2-.1-3.9-.6-7-1.2-7-.5 0-1 .2-1.1.5M560.6 686.1c-.2.8-1.1 4.4-1.9 8.1-1.2 5.7-1.2 6.8-.1 6.8.8 0 1.4-1.1 1.4-2.6 0-1.9.4-2.5 1.8-2.2 1.1.3 1.6 1.2 1.5 2.6-.2 1.4.3 2.2 1.2 2.2 1.8 0 1.8-.9 0-8.4-1.5-6.3-3.1-9-3.9-6.5m1.1 6.6c-.4.3-.7 0-.7-.7s.3-1 .7-.7c.3.4.3 1 0 1.4M516.3 693.2c.2.7 1.9 1.3 3.7 1.3s3.5-.6 3.8-1.3c.2-.8-.9-1.2-3.8-1.2s-4 .4-3.7 1.2M86.7 690.7c-.4 1.6-5.5 8.6-11.4 15.6-11.9 14.1-18.6 19.2-22.3 16.9-3-1.8-4.5-1.5-6 1.4-.8 1.4-2.2 3-3.2 3.5-4.3 2.3.8 11.9 5.5 10.4 1.2-.4 3.5-.8 5-.8 3-.2 4.7-2 4.7-5.3 0-1.5 1.5-2.9 5.5-4.9 6.2-3.3 6.8-4.2 5-7.4-1.1-2.2-.5-3.2 9.1-14.7 7.1-8.5 10.4-13.2 10.4-14.9 0-3.4-1.6-3.2-2.3.2M68.5 721c.3.5.4 1 .1 1s-.8-.5-1.1-1c-.3-.6-.4-1-.1-1s.8.4 1.1 1m-1.7 2.5c-.3.3-.9-.2-1.2-1.2-.6-1.4-.5-1.5.5-.6.7.7 1 1.5.7 1.8m-1.9 1.1c.3 1.6.1 1.7-1.3.5-1.9-1.6-2.1-3.4-.3-2.9.6.3 1.4 1.3 1.6 2.4m-11.8.7c2.2 1.7 3.9 5.2 3.9 7.9-.1 1.9-.3 1.7-1.6-1.2-.8-1.9-2.7-4.5-4.2-5.7-2.8-2.4-1.1-3.3 1.9-1m8.9.2c0 .8-.4 1.5-.9 1.5s-1.1-.7-1.5-1.5c-.3-.9 0-1.5.9-1.5.8 0 1.5.7 1.5 1.5m-3 2.1c0 1.4-.3 1.4-1.5.4-.8-.7-1.5-1.4-1.5-1.6s.7-.4 1.5-.4 1.5.7 1.5 1.6m-10-.1c0 .3-.2.5-.5.5s-.5-.2-.5-.5.2-.5.5-.5.5.2.5.5m5 3.6c0 .5-.9.9-2 .9-1.9 0-2.7-2-1.3-3.3.7-.8 3.3 1.1 3.3 2.4m-5.4.6c1.8 2.4 1.8 5.3 0 5.3-2.1 0-4.6-2.8-4.6-5.1 0-2.4 2.8-2.5 4.6-.2m5.4 2.7c0 .3-.4.8-1 1.1-.5.3-1 .1-1-.4 0-.6.5-1.1 1-1.1.6 0 1 .2 1 .4M138 708.9c-.5 1.1-1 2.8-1 3.9 0 1-1.1 2.9-2.5 4.2-2.3 2.2-2.5 2.2-5 .6-2.1-1.4-2.9-1.5-4.1-.5-1.6 1.3-1.9 4.9-.4 4.9.6 0 1-.7 1-1.5 0-2 2.4-1.9 4.1.1 1.1 1.3 1.1 1.5-.2 1.3-1.9-.4-5.9 2.2-5.9 4 0 1.1.5 1 2.5-.3 2.2-1.4 2.5-1.5 2.5-.1 0 .8-.7 1.5-1.5 1.5-1.7 0-1.9 1.2-.4 2.7.5.5 1 4.2 1.1 8.2 0 5.2.4 7.1 1.4 7.1.7 0 1.6-.5 1.9-1 .7-1.2 2.5-1.3 2.5-.3 0 .5-.7 1.7-1.5 2.7-1.2 1.6-1.7 1.7-3 .6-1.2-1-1.5-1-1.5.4 0 3.2 3.2 3.1 5.9-.2 3.4-4.2 4.2-4 4.1.5-.1 6.7.1 7.3 2.2 8.4 1.1.6 2.9.8 4 .6 1-.3 3.2.2 4.8 1.1 2.6 1.5 3.1 1.5 6.5-.1 2-.9 4.6-1.5 5.9-1.1 2.1.5 2.4.2 2.9-4.8.4-2.9 1.6-6.5 2.7-8 2.5-3.5 2.6-6.4 0-7.8-4.1-2.2-1.8-3 8.5-3 8.7 0 10.5-.3 10.5-1.5 0-1.3-2.2-1.5-13.7-1.5-15-.1-16.5-.5-17.7-5.5-1-4-3.3-6.4-5.6-5.8-1.5.4-1.8.1-1.3-1.7.4-1.5-.3-3-2.3-5.1-4.3-4.6-6.1-5.3-7.4-3m5.8 3.6c2.7 2.5 2.7 2.5.4 4-1.8 1.3-2.2 2.6-2.2 7.1 0 4.1-.4 5.4-1.5 5.4-1.2 0-1.5-1.7-1.5-9.5 0-5.9.4-9.5 1-9.5s2.3 1.1 3.8 2.5m-6.8 9.9c0 8-1.3 15.6-2.7 15.6-.7 0-1.8 1.1-2.3 2.5s-1.1 2.5-1.3 2.5c-.8 0-.3-16.7.6-18.5 1.3-2.7 3.8-5.5 4.9-5.5.4 0 .8 1.5.8 3.4m15.3.8c.8 2.8-.4 4.7-1.4 2.2-1.1-2.7-1.1-4.4 0-4.4.5 0 1.1 1 1.4 2.2m-3.8-.3c.3.6-.3 1.4-1.2 2-1.5.8-1.6 1.3-.5 3 1.7 2.9 1.5 4.1-.8 4.1-1.7 0-2-.7-2-5s.3-5 1.9-5c1.1 0 2.2.4 2.6.9m9.6 8.7c3.3 1.9 5.9 3.9 5.9 4.3 0 2.6-7.5 5.1-11.2 3.9-3.5-1.2-3.6-2.6-.3-3.8 3-1.1 3.2-3.1.5-4.8-1.9-1.1-2.8-3.2-1.4-3.2.4 0 3.3 1.6 6.5 3.6m-14.6 1.6c2 .9 3.1.8 5-.2 1.4-.7 2.8-1.1 3.1-.7 1 .9-.6 2.7-3.2 3.7-1.5.6-2.2 1.5-1.8 2.5.3.8.1 1.5-.5 1.5s-1.1-.6-1.1-1.4-.9-2.4-1.9-3.7c-1.9-2.3-1.9-2.4-4-.5s-2.1 1.9-2.1-.2c0-2.5 2.4-2.9 6.5-1m-1.8 4.5c-.4.3-1 .3-1.4 0-.3-.4 0-.7.7-.7s1 .3.7.7m-2.7.8c0 .3-.2.5-.5.5s-.5-.2-.5-.5.2-.5.5-.5.5.2.5.5m28 1c0 .8-.2 1.5-.4 1.5s-.6-.7-1-1.5c-.3-.8-.1-1.5.4-1.5.6 0 1 .7 1 1.5m-30.3 1.2c-.4.3-.7 0-.7-.7s.3-1 .7-.7c.3.4.3 1 0 1.4m5.8.3c.3.5-.1 1-.9 1-.9 0-1.6-.5-1.6-1 0-.6.4-1 .9-1 .6 0 1.3.4 1.6 1m9.3 2.5c.2 1.6.1 5.3-.3 8.2-.5 3.9-1 5.1-2.1 4.6-.8-.3-1.4-1.7-1.4-3.2 0-3.2-2.5-7.1-4.6-7.1-2.3 0-1.6-1.3 1.9-3.7 4.2-2.9 6.1-2.5 6.5 1.2m12-2.2c.8.9.7 2.4-.3 5.2-.8 2.2-1.4 4.8-1.5 5.7 0 1-.4 1.8-1 1.8-1.1 0-1.4-12.3-.3-13.3 1-1 1.9-.8 3.1.6m-6.8 6.2c-1 1.2-.9 1.6.4 2.1.9.3 1.6 1.6 1.6 2.8-.1 1.9-.2 1.9-1.1.3-1.4-2.5-2.9-2.1-2.9.8 0 1.4-.4 2.5-1 2.5-1.3 0-1.3-4.3.1-5.7.8-.8.8-1.7 0-3.1-1.6-3-1.4-4 1.2-4.4s3.6 2.4 1.7 4.7m-11.2 4.3c-.2 1.8-1 2.8-2.3 3-1.6.3-1.8.1-.7-.9 1.8-2 1.5-3.9-.8-3.9-1.3 0-2-.7-2-1.9 0-1.8.2-1.9 3.1-.4 2.4 1.2 2.9 2 2.7 4.1M529.7 708.7c-.4.3-.7 8.1-.7 17.3 0 11-.4 17-1.1 17.7s-1.1 4.2-1 8.4c.1 4-.5 11.3-1.3 16.3s-2 12.1-2.5 15.9c-.9 6.4-1.2 6.9-6.3 11.5-12.4 11-13.7 12.6-14 16.2-.3 3.3 0 3.6 5.1 6.2 3 1.6 6.2 2.8 7.1 2.8 1.6 0 14.2-9.8 22-17.3 5.7-5.5 15.4-23.6 14.7-27.5-.2-1.5-1.9-6.5-3.7-11.2-4.5-11.9-4.4-11.6-2.1-14.9 2.7-3.8 2.7-5.7-.4-7.7-2.3-1.5-2.7-1.5-4.9-.1-2.2 1.5-2.7 1.4-5.8-.2-3.5-1.7-3.5-1.7-3.7-17.7-.1-8.7-.4-16-.5-16.1-.1-.2-.6 0-.9.4m7.7 37.5c.8 1.3 2.2 4.3 3.1 6.8 1 2.5 2.3 5.9 3.1 7.7 1.9 4.1 1.8 4.6-.7 3.8-1.5-.5-2-.3-1.7.6.3.8 1.3 1.6 2.4 1.7 1 .2 2.3.8 2.8 1.2.4.5-1.9 6.1-5.3 12.7-6.3 11.9-12.3 19-23.1 27.1-1.9 1.5-3.8 3.1-4.1 3.6-.9 1.1-7.9-1.5-7.9-3 0-.7.4-1.4.9-1.6 1.1-.4 8.1-6.1 13.4-10.9 3.8-3.4 4.1-4.1 5.3-12 .7-4.6 1.5-9.5 1.8-10.9s.8-4.6 1.1-7.3c.4-3.3 1.1-4.7 2.2-4.7 1.3 0 1.4.8.8 5.2-2.3 16.2-2.4 19.8-.7 19.8.7 0 1.5-1.6 5.2-11.5 1.3-3.3 2.7-6.4 3.2-7 1.3-1.5.9-4.6-1.4-10.7-2.5-6.3-4-6.9-4.8-1.9-.3 1.7-.8 3.2-1.2 3.1H530c-1.1 0-1.4-12.3-.3-13.3 1.5-1.6 6.3-.6 7.7 1.5m7.9-1.6c.3.4-.1 2.1-1 3.8-1.6 3-1.6 3-2.6.9-1.6-3.6 1.1-7.1 3.6-4.7m-7.4 18.9c0 1.1-.9 3.8-1.9 6l-1.9 4V769c0-2.5.2-6.2.6-8.4.6-3.8.6-3.8 1.9-1.5.7 1.3 1.3 3.3 1.3 4.4m11.5 12c.5 1.5-3.2 9.5-4.5 9.5-.3 0-1.1-.6-1.7-1.3-.8-.9-.4-2.4 1.4-5.5 2.7-4.5 3.8-5.1 4.8-2.7m-5.8 11.6c.7 1.1-3.4 9.9-4.6 9.9-.4 0-1.3-.6-1.9-1.4-.9-1-.6-2.3 1.1-5.5 2.1-4.1 4-5.1 5.4-3m-8 12.4c.6 1.6-3.1 5.4-5.3 5.5-2.3 0-2.5-2.2-.2-4.6 2.6-2.7 4.7-3.1 5.5-.9M524.5 810c-.3.6-1 1-1.6 1-1 0-1.2-3.3-.2-4.4.9-.9 2.6 2.2 1.8 3.4m3.5-3c0 .5-.2 1-.4 1-.3 0-.8-.5-1.1-1-.3-.6-.1-1 .4-1 .6 0 1.1.4 1.1 1m-19 5.5c1.8.9 3 2.4 3 3.5 0 2.4.1 2.4-3.8.4-1.9-.9-3.2-2.3-3.2-3.5 0-2.3.3-2.3 4-.4m12 0c0 .8-.4 1.5-1 1.5-.5 0-1-.7-1-1.5s.5-1.5 1-1.5c.6 0 1 .7 1 1.5m-4 4.1c-.7.7-1.6 1.4-2.1 1.4-1.3 0-1.1-3.4.3-4.8 1.8-1.8 3.4 1.4 1.8 3.4"/><path d="M526.6 792.8c-.2.4.4 1.3 1.4 2 1.1.7 2.1.8 2.5.2.3-.5-.3-1.4-1.4-2-1.1-.5-2.2-.6-2.5-.2M794.3 714.1c-2.4 2.8-4.3 6.2-4.3 7.4 0 1.4-.7 2.6-1.7 2.9-3.3 1.1-8.3 6.3-8.3 8.6 0 2.8-3.5 5.9-7.3 6.7-1.6.3-4.6 2.2-6.7 4.2-2.2 2-4.6 4.2-5.5 4.9-2.2 1.9-16.4 8.8-21 10.2-2.2.7-4.9 1.6-6 2.1-1.1.4-3.6 1.1-5.5 1.5-4.3.8-11.2 4.2-19.9 9.9-18.5 11.9-31.3 20.1-33 21-5.2 2.9-6.1 4.8-3.8 8 1.3 1.7 1.9 1.5 10.3-3.7 4.9-3 14.8-9.3 21.9-14 14.5-9.5 21.3-13.2 26.5-14.3 10.7-2.3 24.7-8.4 33.9-14.8 2.5-1.7 5.6-3.7 6.8-4.2 1.2-.6 3.9-2.6 6-4.6 5.1-4.7 7.5-5.9 10.2-5.2 2.2.6 7.7-2.5 9.4-5.4 1.1-1.8 2.9-1.6 7.7.9 4.2 2.3 4.2 2.3 6-.2 1.1-1.4 2.2-4.3 2.6-6.5.3-2.2 1.7-5.3 3.1-6.9 2.9-3.4 2.1-4.7-4.7-8.1-2.5-1.2-5.8-3-7.5-3.9-1.6-.9-3.4-1.6-4-1.6-.5 0-2.9 2.3-5.2 5.1m12.7.4c3.9 1.9 7 3.8 7 4.1 0 .2-1.1 1.7-2.4 3.1-2.4 2.6-2.4 2.6-9.1-.8-3.6-1.8-6.8-3.6-7.1-4-.4-.7 3.3-5.9 4.2-5.9.2 0 3.6 1.6 7.4 3.5m-10 6.4c0 1-4.8 3.6-5.5 2.9-.3-.3-.1-1.7.5-3.2.8-2.3 1.3-2.5 3-1.6 1.1.6 2 1.4 2 1.9m6.9 2.7c2.9 1.4 3.1 1.9 2.5 4.8-.9 4.3-1.3 4.7-3.3 3.7-1.3-.7-1.6-1.8-1.3-3.9.2-1.6-.1-3.3-.7-3.6-1-.7-1.6-2.6-.8-2.6.2 0 1.8.7 3.6 1.6m-4.1 3.2c.2 1.3-.2 3-.9 3.8-1.1 1.3-1.5 1.1-3.5-1.3-1.6-2.1-1.9-3.1-1.1-4.1 1.6-2 5.2-1 5.5 1.6m10.8 2.4c-.7 4.4-2.3 7.1-3.6 6.3-1.4-.9 2-10.5 3.8-10.5.2 0 .2 1.9-.2 4.2m-23.6-.7c0 .3-.2.5-.5.5s-.5-.2-.5-.5.2-.5.5-.5.5.2.5.5m5 2.4c.7 1.4.7 2.2 0 2.6-1.3.8-4-1.3-4-3.1 0-2.1 2.8-1.7 4 .5m-4 2.3c2.2 2.4 2.3 4.9.2 5.6-.7.2-1-.2-.6-1.2.8-2.2-1.5-4.8-3.8-4.3-1.1.3-1.8 0-1.8-.9 0-2.2 3.7-1.7 6 .8m6.7-.5c-.4.3-.7 0-.7-.7s.3-1 .7-.7c.3.4.3 1 0 1.4m-8.7 3.4c0 .5-.4.7-1 .4-.5-.3-1 .2-1 1.1 0 1.4-.3 1.5-1.2.6-1-1-1-1.5.2-2.2 2-1.3 3-1.2 3 .1m6.7.6c-.4.3-.7 0-.7-.7s.3-1 .7-.7c.3.4.3 1 0 1.4m-11.2 2.3c.3.5.1 1-.4 1-.6 0-1.1-.5-1.1-1 0-.6.2-1 .4-1 .3 0 .8.4 1.1 1m-2.8 2.7c-.4.3-.7 0-.7-.7s.3-1 .7-.7c.3.4.3 1 0 1.4m-2.2.3c.3.5.1 1-.4 1-.6 0-1.1-.5-1.1-1 0-.6.2-1 .4-1 .3 0 .8.4 1.1 1m-2.5.8c0 .4-.5 1.3-1.2 2-.9.9-.9 1.2.1 1.2.7 0 .9.5.5 1.1-.4.8-.9.7-1.6-.2-.7-1.1-1.1-1.1-1.5-.1-.2.6-.9 1-1.4.6-.5-.3-.9.1-.9.8s-2 2.7-4.3 4.4c-8.7 6.4-19.2 11.1-32.2 14.4-2.7.7-7 2.2-9.5 3.4-4 1.8-20.6 12.1-23.7 14.6-.7.5-1.5 1-1.8 1s-5.3 3.1-11 7c-5.7 3.8-10.9 7-11.4 7-2.8 0 1-4.1 7.7-8.4 4.2-2.7 11.3-7.2 15.7-10.1 21.5-13.9 24.6-15.5 36.5-18.7 7.9-2 23.3-9.2 28.7-13.4 1.7-1.3 3.6-2.4 4.2-2.4s1.1-.5 1.1-1.2c0-.6.3-.8.7-.5.3.4 1.2-.2 2-1.3 1.4-2 3.3-2.7 3.3-1.2M76.3 715.7c-1.2.2-2.7 1.1-3.3 1.9-1.1 1.2-.5 1.3 3.6.8 2.7-.4 5.1-.9 5.4-1.1.5-.4-2.2-2.4-3-2.1-.3 0-1.5.3-2.7.5M86 720c1.4 1.1 3.4 2 4.5 2 1.8 0 1.8-.2-.5-2-1.4-1.1-3.4-2-4.5-2-1.8 0-1.8.2.5 2M191.3 718.8c-3.3.3-3.3.3-3.3 12.3V743l45.2-.2 45.2-.3-.2-11.5c-.1-6.3-.2-11.9-.2-12.3 0-.8-79-.6-86.7.1m83.7 11.7v9.5h-14.2c-7.9 0-26.7.1-41.8.3l-27.5.2-.3-8.4c-.2-4.6-.1-9 .2-9.8.4-1 8.4-1.3 42.1-1.3H275z"/><path d="M198.2 723.2c-.7.7-1.2 2.9-1.2 5 0 3.6.2 3.8 2.5 3.2 2.2-.5 2.5-.3 2.5 2 0 2.8-1.8 3.4-3.8 1.4-.9-.9-1.2-.9-1.2.3 0 1.6 1.9 3.9 3.1 3.9 1.6 0 3.9-3.3 3.9-5.5 0-1.3-1.1-3.2-2.5-4.3-3-2.4-3.1-3.2-.7-3.2 2.6 0 3.4-1.1 2.1-2.7-1.4-1.6-3.1-1.7-4.7-.1M209.6 723.9c-2.1 2.3-2.2 11.4-.1 13.5 1.8 1.8 4.2 1.1 5-1.4.9-2.8-.5-6.9-2.6-7.5-2.1-.7-2.5-2-.9-3 .6-.3 1-.1 1 .4 0 .6.5 1.1 1 1.1 1.5 0 1.2-3.7-.4-4.3-.8-.3-2.1.2-3 1.2m2.9 9.6c0 1-.6 2-1.2 2.2-.8.3-1.3-.5-1.3-2.2s.5-2.5 1.3-2.3c.6.3 1.2 1.3 1.2 2.3M231.2 724c-1.3 2.1-1.6 9.7-.6 12.4s5.3 2 6-1c.8-3.1-1-7.4-3.1-7.4-.8 0-1.5-.7-1.5-1.5s.5-1.5 1-1.5c.6 0 1 .4 1 1 0 .5.5 1 1 1 1.6 0 1.1-3.7-.6-4.4-.9-.3-1.6-.6-1.7-.6s-.8.9-1.5 2m3.6 9.2c-.5 3.2-2.8 3.5-2.8.4 0-1.7.5-2.6 1.6-2.6 1 0 1.4.7 1.2 2.2M242.2 723.2c-1.5 1.5-1.6 4.8-.2 4.8.6 0 1-.7 1-1.5s.5-1.5 1-1.5c1.6 0 1.1 3.8-1 8-1.1 2.2-2 4.2-2 4.5s1.6.5 3.5.5c2.9 0 3.5-.4 3.5-2.1 0-1.6-.4-1.9-2.1-1.4-2 .7-2 .7.1-3.5 2-3.9 2-4.3.5-6.6-1.7-2.7-2.6-2.9-4.3-1.2M253 723.5c-1.2 1.5-1.6 11.7-.4 13.6.3.5 1.4.9 2.5.9 3.5 0 5.1-8 2.6-12.9-1.5-3.1-3-3.6-4.7-1.6m3.3 2.9c.8 1.9-.4 9.6-1.4 9.6-.5 0-.9-2.5-.9-5.5 0-5.2 1.1-7.2 2.3-4.1M219 731c0 .5 1.6 1 3.5 1s3.5-.5 3.5-1c0-.6-1.6-1-3.5-1s-3.5.4-3.5 1M94 723.4c0 1.1 3.9 3.6 5.5 3.6 1.5 0 .1-1.7-2.5-3.2-2.2-1.3-3-1.4-3-.4M119.7 727.4c-1.8 1.4-2.2 2.6-.9 2.6 1.5 0 4.5-2.7 3.6-3.3-.5-.3-1.7 0-2.7.7M102 728c0 1.3 2.8 2.5 3.8 1.6.3-.4 0-1.1-.8-1.6-2-1.3-3-1.2-3 0M108 730.7c0 .8 1.5 1.3 4.1 1.3s3.9-.4 3.7-1.1c-.5-1.6-7.8-1.7-7.8-.2M123 746.9c-1.7 1.4-2 2-1 2.1 2.2 0 4.3-1.6 3.8-3-.2-.8-1.1-.5-2.8.9M114.4 751.5c-1.5 1.1-1.6 1.4-.3 1.5.8 0 2.4-.7 3.5-1.5 1.5-1.1 1.6-1.4.3-1.5-.8 0-2.4.7-3.5 1.5M239 753l-15.5.5.2 10c.1 5.5.2 11.1.2 12.4.1 2.4.1 2.4 44.4 1.7 24.3-.4 44.6-1.1 45-1.5s.6-5.9.5-12.2l-.3-11.4H284c-16.2-.1-36.5.2-45 .5m71.1 7.7c.1 3.8.2 8.4.3 10.3l.1 3.5-41.7.3-41.6.4-.7-7.4c-1.3-13.7-6-12.2 40.5-12.8 22.3-.3 41.1-.6 41.8-.8.8-.1 1.2 1.8 1.3 6.5"/><path d="M233.7 756.6c-.4.4-.7 2.7-.7 5.1 0 4 .2 4.4 2 3.8 1.4-.4 2.2-.1 2.6 1 1 2.5-1.1 4.1-3.2 2.5-1.4-1.2-1.6-1.1-1.2 1 .4 3 3 3.7 5.2 1.5 2.4-2.4 2-6.2-.9-8.1-3.1-2-3.2-3-.4-3.7 1.2-.3 1.9-1.2 1.7-1.9-.5-1.5-4-2.3-5.1-1.2M266.6 758.2c-2.6 3.7-1.9 13.1 1.1 14.2 2.6 1 4.4-1.4 4.1-5.2-.3-3.1-.9-3.9-4.7-5.9-.1-.1 0-.7.4-1.3.5-.8 1-.8 2 0 1.8 1.5 3.1-.6 1.5-2.5-1.7-2-2.6-1.9-4.4.7m3.4 8.8c0 1.6-.4 3-.9 3-1.2 0-2.4-3.7-1.6-5 1.2-2 2.5-1 2.5 2M277.3 757.5c-1.9 2-1.6 2.8.7 2.2 1.5-.4 2 0 2 1.3 0 1-.6 2.1-1.2 2.4-.9.3-.8.8.5 1.6.9.6 1.7 2 1.7 3 0 2.4-1.5 2.6-2.4.5-.3-.8-1-1.5-1.6-1.5-1.6 0-1.2 2.5.8 4.3 1.5 1.4 2.1 1.5 3.4.4 1.9-1.4 2.5-4.4 1.3-7-.4-.9-.4-2.4-.1-3.3.7-1.9-1-5.4-2.7-5.4-.7.1-1.8.7-2.4 1.5M289.1 757.4c-.7.8-.8 1.7-.3 2s.9 3.3.8 6.6c0 3.3.2 6 .7 6 .4 0 1 .1 1.4.2 1 .4.4-14.5-.6-15.5-.4-.4-1.3-.1-2 .7M244.7 757.7c-.4.3-.7 3.4-.7 6.8 0 6.5 1.4 9.1 4.3 7.9 3.2-1.2 2.6-8.7-.8-10-.8-.4-1.5-1.2-1.5-2 0-1.7 1.7-1.8 2.3-.2.2.7.8 1 1.2.6 1.3-1.2-.3-3.8-2.3-3.8-1 0-2.2.3-2.5.7m3.3 9.9c0 1.3-.4 2.4-1 2.4-.5 0-1-1.4-1-3.1s.4-2.8 1-2.4c.6.3 1 1.7 1 3.1M254 765c0 .5 1.5 1 3.4 1s3.8-.5 4.1-1c.4-.6-1-1-3.4-1-2.3 0-4.1.4-4.1 1M92.9 755.4c-.6 1.3-2 2.7-3 2.9-3.2.9-2.6 7.3 1.1 10.7 2.9 2.7 3 3 3 12.3 0 5.3.4 9.9 1 10.2.6.4 1-3.3 1-10.4 0-11 0-11 3.5-11.7 1.9-.3 3.9-1.2 4.6-2 1.7-2.1.2-7.9-3-11.3-3.5-3.8-6.7-4-8.2-.7m5.7.4c2.2 1.5 4.4 5.7 4.3 8.2-.1 2-.2 2.1-.6.5-.3-1.1-1.8-3.7-3.4-5.8-2.8-3.4-2.9-4.7-.3-2.9m-2.9 2.9c-.4.3-1 .3-1.4 0-.3-.4 0-.7.7-.7s1 .3.7.7m-4.9 3.3c-1.4 2.2-2.4 1.9-1.5-.5.4-.8 1.1-1.5 1.7-1.5s.6.7-.2 2m9-.3c.5 1.8-2.8 2.9-3.8 1.2-.5-.7-.6-1.7-.3-2.2.7-1.2 3.5-.5 4.1 1m-5.8 3.4c0 .5-.4.9-1 .9-.5 0-1-.7-1-1.6 0-.8.5-1.2 1-.9.6.3 1 1 1 1.6m5.2 2.1c-.7.7-1.2.8-1.2.2 0-1.4 1.2-2.6 1.9-1.9.2.3-.1 1.1-.7 1.7m-3.2.3c0 .8-.7 1.5-1.6 1.5-1.4 0-1.4-.3-.4-1.5.7-.8 1.4-1.5 1.6-1.5s.4.7.4 1.5M106.6 755.5c-1.1.8-1.7 1.7-1.4 2.1.8.8 4.8-1.4 4.8-2.6 0-1.4-1.2-1.2-3.4.5M169.9 756.6c-1.8 4.8 1.5 10.7 7.8 13.9 2.1 1 4.9 2.7 6.3 3.6s4.6 1.9 7.2 2.1c3.9.5 5.5.1 9.7-2.3 3.4-2 5.1-3.6 5.1-4.9 0-1.7.9-1.9 7.8-2.2 9.9-.4 9.7-2.3-.3-2.3-7.4 0-7.4 0-7.7-3.5-.3-3.3-.6-3.5-4-3.8-3.3-.3-3.8 0-3.8 1.9s-.4 2.1-3.4 1.5c-3.7-.7-5.7.7-3.7 2.7 1.9 1.9 1.3 4.7-.9 4.7-3.2 0-6.9-2.9-9-7.1-3.5-6.8-9.2-9-11.1-4.3m6.3.8c1 .7 2.4 2.9 3.3 4.8.8 2.1 2.9 4.4 5 5.6 2.2 1.3 3.5 2.9 3.5 4.2 0 2.5-.8 2.5-4 0-1.4-1.1-2.9-2-3.4-2-1.9 0-7.8-5.3-8.7-7.7-1.1-2.9-.3-6.3 1.4-6.3.7 0 2 .7 2.9 1.4M204 765c0 4.3-.4 5.2-2.7 6.7-3.6 2.4-11.3 2.7-11.3.4 0-.9.9-2.2 2-2.9s2-1.8 2-2.6c0-.7.7-1.9 1.5-2.6 1.3-1.1 1.5-.7 1.5 2.4 0 3.9.2 4.1 3.1 2.6 1.4-.8 1.9-2.1 1.9-5 0-2.2.5-4 1-4 .6 0 1 2.2 1 5m-3.9 1.7c-.9 1.6-1 1.5-1.1-.8 0-1.4.3-2.9.8-3.3 1.2-1.2 1.4 2.2.3 4.1M734.5 788.2c-6.1 3.1-7.5 4.7-7.5 8.5 0 4.7 2.5 8.1 6.5 8.9 4.5.8 6.3 3.9 6.7 11 .2 3.3.7 5.9 1.2 5.9s.8-3 .7-6.8c-.2-5.7 0-6.8 1.6-7.4 1-.3 2.5-1.2 3.3-1.9s2.6-1.4 4-1.6c2.7-.3 2.7-.3 1.3-10.8-.8-5.4-.8-5.5-4.2-5.6-1.9-.1-3.7-.6-3.9-1.3-.6-1.7-5.3-1.2-9.7 1.1m9.2 1.4c.6 1.7-.8 3.1-4.5 4-3.6 1-4-.6-.7-3.2 3.5-2.8 4.4-2.9 5.2-.8m-7.5 6.1c1.1 1.2 1.8 2.8 1.5 3.5-.3.9-.7.7-1.3-.7-1.4-3.5-3.6-4.6-5.6-2.8-1.6 1.4-1.8 1.4-1.8.1 0-2 4.3-5 4.9-3.4.2.6 1.2 2.1 2.3 3.3m13.8-1.6c0 1.5-.4 1.9-1.9 1.4-2.4-.7-3.7 1.1-2.1 3 1 1.2.9 1.5-.4 1.5-1.2 0-1.5.8-1.4 3.1.2 1.9-.2 3.4-.9 3.6-1 .3-1.3-1.1-1.3-5.1 0-5.3.2-5.8 3.3-7.6 4-2.5 4.7-2.5 4.7.1m2 6.9c0 1.1-.5 2-1.1 2-.5 0-.8-.4-.5-.9s-.1-1.4-.9-2.1c-2.2-1.8-1.8-3.2.5-2 1.1.6 2 2 2 3m-17-1.4c0 1.7-2.2 1.4-2.8-.4-.2-.7.3-1.2 1.2-1.2s1.6.7 1.6 1.6m4.7 1.6c-.3.7-.5.2-.5-1.2s.2-1.9.5-1.3c.2.7.2 1.9 0 2.5m-4 1c.6-1.7 2.3-1.5 2.3.3 0 2.1-4.8 2-7.2-.2-3-2.7-2-3.5 1.3-1.1 2.3 1.6 3.3 1.9 3.6 1m12.3.3c0 .3-.2.5-.5.5s-.5-.2-.5-.5.2-.5.5-.5.5.2.5.5m-8.3 2.7c-.3.8-.6.5-.6-.6-.1-1.1.2-1.7.5-1.3.3.3.4 1.2.1 1.9M225.6 790.6c-3.5 3.4-1.2 7.4 4.1 7.4 4.5 0 8.8 2.3 14 7.6 2.7 2.6 6.5 5.1 10 6.4 16.9 6.3 45.7 27.1 53.4 38.5 6.7 9.9 30.7 21.3 51.4 24.5 14.9 2.3 24.2 3.9 28.5 4.9 21.6 5.2 33.6 3.2 50.2-8 6.2-4.3 12.5-7.2 17.6-8.3 3.2-.7 3.2-.7 3.4 19.1.3 16.8.5 19.8 1.8 19.8.9 0 1.4-.8 1.3-2-.1-1.1-.5-10.2-.9-20.1-.7-18.1-.7-18.1 2.7-19.2 4.7-1.4 12.1-2.2 27.4-2.7 13.7-.5 21.2-1.8 36-6 9.5-2.7 20.9-3.3 46.1-2.6 15.4.5 14.9.7 60.4-23.6 10-5.4 13.5-7.3 21.5-12.2 3.7-2.3 6.9-4.1 7.1-4.1 1.1 0 8.4-5.4 8.4-6.2 0-2.8-5.4-4.9-7.5-2.9-.6.4-3.7 2.3-7 4.1s-8.4 4.7-11.3 6.4-7 4-9 5.1C619.6 825 614 828 610.6 830c-7.4 4.1-19.1 9.8-23.1 11.1-3 1.1-9.3 1.3-25 1.1-20.8-.3-26.4.3-39 3.8-14.6 4.1-25.7 5.7-40.5 5.9-18.6.3-33.8 4.2-46.6 12.2-3.8 2.3-8.9 5.3-11.4 6.6-9.6 4.9-23.4 5.4-40.2 1.4-4.6-1.1-11.4-2.5-15.3-3.1-20.7-3.3-24.9-4.3-34.8-8.6-9.7-4.3-17.1-9.7-25-18-8.1-8.7-13.7-13.1-28.7-23.1-18.9-12.5-30.2-18.8-35.5-19.8s-11.3-4.2-12.7-6.9c-2-3.9-4.6-4.6-7.2-2m4.8 1c.9.3 1.6 1.5 1.6 2.5 0 1.4-.7 1.9-3 1.9-2.2 0-3-.5-3-1.8 0-3 1.3-3.8 4.4-2.6m17 10.3c.9 1.5-2.3 3.6-3.6 2.3-.5-.5-.7-1.5-.4-2.1.9-1.3 3.3-1.4 4-.2M666 804c0 1.1-.4 2-.9 2s-4.9 2.4-9.8 5.4c-10.5 6.3-15 8.8-28.1 15.8-5.3 2.8-14.6 7.7-20.5 10.9-17.6 9.4-17.5 9.4-45.7 9.4-24.9.1-29.2.6-41 4.5-8.2 2.7-17.4 4-29.1 4-22.2.1-41.8 5.3-56.4 15-10.7 7.2-16.6 9-28.8 9-5.6-.1-12.9-.7-16.2-1.5-10.1-2.5-19.7-4.3-26.5-5-21.1-2.1-43.4-11.5-52.7-22.4-5.1-5.8-13.2-14.1-16.6-16.9-4.6-3.8-22.7-15.6-29.4-19.3-6.6-3.6-8.6-6.7-3.5-5.5 1.5.4 3.9 1.6 5.4 2.6 1.5 1.1 3 2 3.3 2 .7 0 20.6 13.3 23.9 16 5.8 4.6 11 9.4 18.1 16.6 4.4 4.4 10 9.3 12.5 10.7 11.4 6.6 27.9 11.7 44 13.7 5.2.7 13.7 2.3 18.9 3.6 9.6 2.5 20.3 3.2 27.6 1.9 4.5-.8 16.1-5.8 18.5-7.9 2.1-1.9 14-8.1 18.1-9.5 9.2-3 22.8-5.1 33.3-5.1 11 0 25.9-1.9 32.6-4 15.7-5 24.6-6.1 47.5-5.8 24.5.4 21.9 1.1 52-15.2 3.3-1.8 9.8-5.3 14.5-7.8s11.9-6.5 16-9c10.1-6.1 17.3-10.1 18.3-10.2.4 0 .7.9.7 2m-412.5.2c2.6 1.2 2.9 1.7 1.9 4.2-.8 2.1-2.3 2-5.3-.3-1.6-1.2-2.2-2.4-1.8-3.5.8-1.9 1.7-2 5.2-.4M112.8 793.7c-3.6 4.1-2.9 10.3 1.2 10.3 2.7 0 3.8-4.5 1.6-6.9-2-2.2-2-3.1 0-3.1.8 0 1.2-.5.9-1-.9-1.5-2-1.2-3.7.7m2.2 6.3c0 2.1-1.5 2.7-2.5 1-.7-1.2.2-3 1.6-3 .5 0 .9.9.9 2M121.2 793.2c-2 2-1.5 8.1.9 9.6 1.8 1.1 2.4 1.1 4-.4 2.2-2 2.4-4.2.7-7.9-1.2-2.7-3.6-3.3-5.6-1.3m4.3 2.8c.8 2.6-.3 6.2-1.8 5.7-.7-.2-1.3-2-1.5-4-.2-2.8.1-3.7 1.2-3.7.8 0 1.8.9 2.1 2M130.5 793c-.4.6.5 1 1.9 1 3.2 0 3.3.9.1 4.6-1.4 1.6-2.5 3.2-2.5 3.5 0 1 6 1.7 6.6.7.3-.4-.4-.8-1.5-.8-2.7 0-2.6-.4.4-4.4 1.9-2.5 2.2-3.5 1.3-4.4-1.5-1.5-5.5-1.6-6.3-.2M140.4 793.4c-.3.8-.4 3.1-.2 5.2.2 3.2.7 4 2.6 4.2 3.6.5 5.1-1.4 4.5-5.6-.3-2-1.1-4-1.7-4.4-1.8-1.2-4.6-.9-5.2.6m4.6 1.6c0 .5-.7 1-1.5 1s-1.5-.5-1.5-1c0-.6.7-1 1.5-1s1.5.4 1.5 1m.5 5c0 .8-.8 1.6-1.7 1.8-1.3.2-1.8-.3-1.8-1.8s.5-2 1.8-1.8c.9.2 1.7 1 1.7 1.8M72.6 794.6c-2 1.9-2.1 7.7-.2 9.3 1 .9 1.9.7 3.7-.9 2.4-2 2.4-2 .2-3.9-2.8-2.3-2.8-3-.5-4.7 1.6-1.2 1.6-1.3 0-1.4-.9 0-2.4.7-3.2 1.6m2.9 6.4c0 .7-.6 1.5-1.2 1.7-.8.3-1.3-.4-1.3-1.7s.5-2 1.3-1.8c.6.3 1.2 1.1 1.2 1.8M81.1 794.4c-1.7 2-1 7.7 1.2 9 3.8 2.4 7.3-3.6 4.7-8.4-1.2-2.3-4.2-2.6-5.9-.6m4.9 4.7c0 2.2-.5 2.9-2 2.9-1.6 0-2-.7-2-3.3 0-1.9.3-3.7.7-4 1.2-1.3 3.3 1.5 3.3 4.4M100.6 794.6c-1.8 4.6 0 9.4 3.6 9.4 3.3 0 5.2-7.2 2.6-9.8-1.7-1.7-5.5-1.5-6.2.4m5.2 4.3c-.2 1.5-1 2.7-2 2.9-1.4.3-1.8-.4-1.8-3.1 0-1.8.3-3.7.7-4 1.2-1.3 3.4 1.6 3.1 4.2M40.6 795.6c-.8 2.2-.9 2.1 1.7 4.4 2.2 2.1 2.2 2.1.2 3.7-2 1.5-2 1.5 0 1.1 2.5-.4 4.9-5.2 4.1-8.4-.7-2.8-5-3.4-6-.8m4.4 2c0 .8-.7 1.4-1.5 1.4-1.5 0-2.1-2.1-.9-3.3 1-.9 2.4.2 2.4 1.9M50.1 795.6c-.2 4.3 1.1 8.5 2.5 8 .7-.3 1.7 0 2 .6 1 1.6 2.2-1.8 2.3-6.3.1-2.8-.3-3.5-1.7-3.4-.9 0-2.3.4-2.9.8s-1.4.1-1.6-.5c-.3-.7-.6-.3-.6.8M62.6 795.2c-.3.7-.9 2.8-1.5 4.7-1 3.1-.4 6.3.6 3.3.3-.6 1.3-1.2 2.3-1.2s2 .6 2.3 1.2c.2.7.7 1.1 1 .8s-.1-2.7-1-5.3c-1.5-4.6-3-6-3.7-3.5m1.9 3.7c.3.5.1 1.2-.5 1.6-.5.3-1-.1-1-.9 0-1.8.6-2.1 1.5-.7M91.5 800c-.8 1.3 2 2.4 4.1 1.6 2-.8.9-2.6-1.6-2.6-1 0-2.2.5-2.5 1M729.5 825l-32 .5v24l33.5.1c18.4.1 38.2-.2 44-.5l10.5-.6.3-10.9c.2-7.3-.1-11.3-.9-12.2-.9-1.2-3.6-1.4-12.3-1.2-6.1.2-25.5.5-43.1.8m52.5 12v10h-19.7c-10.9 0-29.4.3-41 .7l-21.3.6v-20.2l7.3-.4c3.9-.1 22.4-.4 41-.5l33.7-.2z"/><path d="M761.2 828.9c-2.2 1.4-1.8 7.3.6 8.9 1.2.8 2.2 2.1 2.2 2.8 0 1.7-1.2 1.8-2.8.2-.9-.9-1.2-.9-1.2.3 0 2.5 2.1 3.9 4.2 2.8 1.4-.8 1.8-2.2 1.8-7.2 0-7.4-1.6-9.9-4.8-7.8m2.8 4.7c0 2.3-1.4 3.2-2.4 1.6-.8-1.3.5-5.2 1.5-4.6.5.3.9 1.6.9 3M707 830.9c-.5 1.1-1 3.8-1 6.1 0 7.4 3.8 10.7 6.2 5.5 1.3-3-.3-7.5-2.7-7.5-.8 0-1.5-.6-1.5-1.4 0-2 1.7-2.9 2.3-1.4.2.7.8 1 1.2.6 1.1-1.1-.2-3.8-1.9-3.8-.9 0-2 .9-2.6 1.9m3.5 8.9c0 3.1-1.9 2.8-2.3-.4-.3-1.8 0-2.5 1-2.2.7.3 1.3 1.4 1.3 2.6M716.3 830.6c-.3.8-.1 2 .6 2.7.8.8 1.1.8 1.1-.1 0-.7.7-1.2 1.6-1.2 1.1 0 1.4.5.9 1.7-1.3 3.4-1.8 11.3-.7 11.3.5 0 1.3-2.4 1.7-5.3.3-2.8.8-6.4 1.1-8 .5-2.5.3-2.7-2.6-2.7-1.9 0-3.3.6-3.7 1.6M738.2 833.2c.3 3.8.6 4.3 2.6 4 1.7-.3 2.2.2 2.2 2.1 0 3.1-1 4-2.7 2.5-2-1.6-3 0-1.1 1.9 2.1 2 4.6 1.1 5.4-2.2s-.1-5.6-2.6-6.2c-2.6-.7-2.6-3.3 0-3.3 1.1 0 2-.7 2-1.5 0-1-1-1.5-3.1-1.5-2.9 0-3 .1-2.7 4.2M750.8 829.5c-.2.3-.1 3.1.3 6.2.5 3.5.4 6.2-.2 6.9-1.3 1.6.6 2.8 2.8 2 1.2-.5 1.4-.9.5-1.8-.7-.7-1.2-4-1.2-7.5 0-5.6-.6-7.3-2.2-5.8M727 837c0 .5 1.6 1 3.5 1s3.5-.5 3.5-1c0-.6-1.6-1-3.5-1s-3.5.4-3.5 1M485.7 904.7c-.1.1-12.1.3-26.7.5-14.6.1-30.5.4-35.3.6l-8.8.3.3 12.2.3 12.2 19.5-.1c10.7-.1 31.1-.2 45.3-.3l25.7-.1v-25l-4.7-.1c-11.7-.3-15.5-.4-15.6-.2m16.8 11.7c.4 5.2.4 10 0 10.6-.4.7-14.4 1-42.6 1H418v-20l30.8-.2c16.9-.2 35.7-.4 41.8-.6l11.2-.3z"/><path d="M425.7 909.6c-.4.4-.7 2.7-.7 5.1 0 4 .2 4.4 2 3.8 1.6-.5 2-.2 2 2s-.3 2.5-2.5 1.9c-2.7-.7-3.3.4-1.3 2.4s4.8 1.4 5.8-1.4c1.6-4 1.2-5.4-2-7.2s-3.5-3.7-.4-3.7c2.6 0 2.4-2.9-.1-3.3-1.2-.2-2.4 0-2.8.4M437.1 910.3c-1.4 1.8-2.1 9.1-1.2 12.6.6 1.9 1.4 2.6 3.2 2.6 2.2 0 2.4-.5 2.7-4.7.3-3.9 0-4.7-1.7-5.3-1.2-.3-2.1-1.3-2.1-2.1 0-1.7 1.7-1.9 2.3-.2.2.7.8.9 1.3.5.9-.9-.6-3.9-2.3-4.4-.5-.2-1.5.3-2.2 1m2.9 10.2c0 1.4-.4 2.5-1 2.5-.5 0-1-1.1-1-2.5s.5-2.5 1-2.5c.6 0 1 1.1 1 2.5M457.5 911c-.9 2.8 0 3.6 2 2 2.1-1.8 2.8-.8 1.5 2.4-1.2 3.3-1.3 10.6-.1 10.6.4 0 1.4-3.3 2-7.3.6-3.9 1.3-7.7 1.4-8.2.1-.6-1.2-1.1-3-1.3-2.5-.2-3.3.1-3.8 1.8M470.9 909c0 .3-.1 4.2-.2 8.8-.2 7.7-.1 8.3 1.7 8s1.9-1 1.7-7.3c-.1-4.5-.8-7.5-1.7-8.5-.8-.8-1.4-1.2-1.5-1M480 911.6c-1.7 4.2-1.2 10 1 12.5 2 2.4 2 2.4 3.5.5 1.8-2.4 2-12.7.3-14.4-1.9-1.9-3.8-1.4-4.8 1.4m4 5.9c0 5.6-1.4 7.5-2.2 3.1-.6-3.2.2-8.6 1.3-8.6.5 0 .9 2.5.9 5.5M446.7 916.6c-1.6 1.6-.5 2.4 3.4 2.4 2.8 0 3.9-.4 3.7-1.3-.5-1.3-6-2.2-7.1-1.1M115.5 1099.7c-1.6.9-6.3 3.6-10.4 6-9.1 5.5-14 8.3-14.6 8.3-.3 0-.5-1.3-.5-2.8 0-3.1-3.2-6.8-4.9-5.7-.6.3-1.1 1-1.1 1.5 0 1-13.7 25.1-15.1 26.5-1.6 1.6-1 3 2.4 4.9 7.5 4.4 17.5 9.6 18.5 9.6.6 0 1.2-2.3 1.4-5.2.3-5.7.5-5.8 15.3-13.8 9.4-5 17.4-10 18.2-11.3.4-.6.6-4.8.4-9.2-.3-10.5-2.6-12.6-9.6-8.8m6.9 3.5c1.2 4.7.6 13.1-1.1 15-.9 1-2 1.8-2.5 1.8-.4 0-4.2 2-8.3 4.5s-8.2 4.8-9.2 5.2-4.2 2.2-7 4c-5.1 3.2-5.3 3.5-5.3 7.8 0 2.5-.2 4.5-.5 4.5-.5 0-15.2-7.7-16.3-8.6-.6-.4 3.7-8.2 8.8-16 2.8-4.2 5-8 5-8.5s.5-.9 1-.9c.6 0 1 1.3 1 2.9 0 3.3 1.5 4.8 3.3 3.3.7-.5 3.2-2.1 5.7-3.4 2.5-1.4 8.8-5.1 14-8.1 5.2-3.1 9.8-5.6 10.1-5.7.4 0 .9 1 1.3 2.2"/><path d="M114.7 1106.8c-2.4 1.5-2.7 2.2-2.7 7.4 0 3.1.4 5.9.8 6.2 1.3.8 8-4.1 8.7-6.5 1.8-5.6-2.2-9.8-6.8-7.1m5.1 3.8c.3 2.1-3.2 7.4-4.9 7.4-1.1 0-1.2-8.3-.2-9.4 1.4-1.4 4.8-.1 5.1 2M108.5 1111.2c-.2.7-.6 2.4-.8 3.8-.4 2.5-.4 2.5-1.2.2-.9-2.9-2.9-2.3-3.3.9-.5 3.4-1.9 4.5-2.7 2-.3-1.2-1.1-2.1-1.7-2.1-.5 0-.7.6-.4 1.2.2.7 1 3.2 1.7 5.6 1.4 5.3 3.3 5 3.7-.6.4-4.8 1.4-5.3 3-1.7 1.7 3.8 3.2 3 3.2-1.8 0-2.3.3-5.2.6-6.5.7-2.3-1.3-3.2-2.1-1M92.8 1119.8c-3.4 2.1-3.5 2.4-3 8.9.4 5.2 2.2 6.6 2.2 1.7 0-1.4.6-2.4 1.4-2.4 1.9 0 4-2.6 2.7-3.4-.5-.4-1.2-.2-1.6.4-.9 1.5-3.5 1.2-3.5-.5 0-.8 1.4-2.1 3-3 1.7-.9 3-2 3-2.5 0-1.3-1-1.1-4.2.8"/></svg>