<svg xmlns="http://www.w3.org/2000/svg" viewBox="0 0 992 1402" fill="currentColor"><path d="M256.5 212.4c-12.6 7-14.5 8.1-14.5 8.9 0 1 13.7 21.6 16.3 24.4 3 3.4 5.7 3 5.7-.7 0-1.7.4-3 1-3 .5 0 7.4 3.3 15.2 7.4 18.4 9.5 19 9.4 18.6-3l-.3-8.6-10.5-5.5c-26.3-13.9-24.5-12.6-24.5-18.3.1-2.7-.2-5-.5-5s-3.2 1.5-6.5 3.4m3.5 5.1c0 4.4.1 4.6 4.8 6.8 2.6 1.2 4.9 2.5 5 2.9.2.5 1.2.8 2.2.8s2 .3 2.2.7c.2.5 4.8 3.1 10.3 5.9l10 5.1.3 7.2c.2 5.3 0 7.1-1 7.1-.7 0-8.5-3.6-17.3-8-16-8.1-16-8.1-16.3-4.5-.2 1.9-.7 3.5-1.3 3.5-.5 0-.9-.4-.9-.9s-3.2-5.7-7.1-11.6c-3.8-5.9-6.8-10.9-6.5-11.2 1.3-1.3 13.2-8.1 14.4-8.2.8-.1 1.2 1.4 1.2 4.4"/><path d="M261 230.9c0 3.3.5 6.3 1 6.6.6.4 1-.5 1-2 0-2.2.3-2.5 2-2 1.1.3 2 .3 2-.2 0-.4-.9-1.4-2-2.1-2.9-1.8-2.5-3.3.8-2.6 2.7.6 2.7.6-.3-1.5-1.6-1.1-3.3-2.1-3.7-2.1-.5 0-.8 2.7-.8 5.9M270.4 233.7c.3 2.1.6 4.8.6 6 0 1.4.6 2.3 1.5 2.3.8 0 1.5-.9 1.5-2s.5-2 1-2c1.1 0 1.4.7 2.5 5.4.8 3.9 2.1 2.2 2.8-3.9.6-4.3.5-4.8-.7-3.3-1.2 1.6-1.4 1.6-2.5-1-1.2-2.4-1.4-2.5-2.5-1-1.5 2.1-2.6 1.3-2.6-1.9 0-1.3-.5-2.3-1.1-2.3-.8 0-1 1.3-.5 3.7M283.6 237.8c-.3.3-.6 2.7-.6 5.3 0 4.4.3 5 3 6.4 2.8 1.4 3.1 1.4 5.1-.6 2.5-2.5 1.9-6.5-1.4-9.1-2.5-1.9-5.3-2.9-6.1-2m6 4.7c2.1 3.1 1.2 5.7-1.8 5.3-1.9-.2-2.4-1-2.6-4.1-.4-4.5 1.8-5.1 4.4-1.2M422.5 356.2c-.3.8-.4 6.3-.3 12.4l.3 10.9 16 .5c8.8.3 28.8.5 44.5.5h28.5l.3-11.4c.1-6.3-.1-11.8-.6-12.3s-20.5-1.2-44.5-1.5c-37.9-.5-43.7-.4-44.2.9m67.2 1.8H508v20.8l-40.2-.5c-22.2-.2-40.8-.6-41.3-.8-.6-.1-.9-2.7-.8-5.6 0-3 .2-7.6.2-10.3l.1-4.9 22.7.6c12.4.4 30.9.7 41 .7"/><path d="M432 363.6c0 4.1.2 4.5 2 3.9 1.7-.5 2-.2 2 2.4 0 3.3-.8 3.9-2.8 1.9-.9-.9-1.2-.7-1.2.9 0 2.6 2 3.5 4.3 1.8 2.5-1.8 2.3-8.2-.3-9-1.1-.3-2-1.2-2-2 0-.7.9-1.5 2-1.8 3.1-.8 2.4-2.7-1-2.7-2.9 0-3 .2-3 4.6M443 360.9c-1.2 2.4-1.3 4.1-.1 4.1.5 0 1.2-1 1.6-2.3.7-2.1.8-2 1.2.7.3 1.9-.3 4.4-1.7 6.9-2.5 4.3-1.8 6.1 2.1 5.5 1.9-.2 2.4-1 2.6-3.3.1-1.7 0-2.4-.3-1.8-.3.7-1.3 1.3-2.1 1.3-1.3 0-1.3-.3.2-2.6 1.7-2.7 2.3-7.3 1.1-9.3-1.1-1.7-3.4-1.3-4.6.8M464.1 361.7c0 1.6.3 2.2.6 1.5.2-.6 1.2-1.2 2-1.2 1 0 1.3.6.9 1.6-1.3 3.5-1.9 12.4-.7 12.4.6 0 1.1-1.6 1.1-3.9 0-2.1.6-5.7 1.4-7.9 1.7-4.6 1.4-5.2-2.6-5.2-2.4 0-2.8.4-2.7 2.7M475.2 362.5c-2.4 5.3-.8 13.5 2.7 13.5 2.5 0 4.2-4.6 2.8-7.8-.6-1.2-1.6-2.2-2.3-2.2-1.9 0-2.8-2-1.5-3.3.9-.9 1.4-.9 2 .2.6.9 1.1 1 1.5.2.4-.6.4-1.6.1-2.1-1.2-1.9-4.2-1-5.3 1.5m3.8 8.1c0 3.1-2.3 2.8-2.8-.4-.2-1.5.2-2.2 1.2-2.2 1.1 0 1.6.9 1.6 2.6M487.7 360.7c-.2.5-.3 3.5-.2 6.8s-.3 6.6-.8 7.2c-.7 1-.2 1.3 1.8 1.3 2.1 0 2.6-.4 2.1-1.6-.3-.9-.6-4.5-.6-8 0-5.5-1-8.1-2.3-5.7M452.5 367c-.4.6 0 1.3.9 1.6 2 .8 6.1.1 6.1-1 0-1.2-6.3-1.8-7-.6M321.6 382.9c-.2.3-.5 5.7-.7 12-.4 11.4-.4 11.4 2.4 12.2 1.6.4 20 .8 40.9.9 21 0 38.5.3 39 .6s2.4.3 4.3 0c3.4-.7 3.4-.7 3.2-12.4l-.2-11.7-5.5-.6c-7-.9-83-1.7-83.4-1m45.9 2.7c20.9.3 38.6.8 39.3 1 1.1.3 1.2 2.5.8 10-.3 5.3-.6 9.7-.8 9.8-.4.1-79.7-1.1-81.5-1.3-1-.1-1.3-2.8-1.3-9.9 0-5.4.3-10.2.7-10.6s1.7-.5 2.8-.2 19.1.8 40 1.2"/><path d="M330.7 386.7c-.4.3-.7 2.6-.7 5 0 3.8.2 4.3 2.2 4 1.5-.1 2.3.4 2.6 1.7.5 2.2-1.8 4.8-2.5 2.8-.6-1.6-2.3-1.5-2.3.2 0 3.5 5.9 2.7 6.1-.8.2-3.8-.2-5.1-2.2-6.8-2.5-2.1-2.4-3.8.1-3.8 1.1 0 2-.7 2-1.5 0-1.5-4-2.1-5.3-.8M342.6 388.2c-1.8 2.5-2.1 9.9-.6 12.9 2.5 4.6 7.4-.7 5.2-5.6-.6-1.4-1.8-2.5-2.7-2.5-1.7 0-2.1-2.5-.5-3.5.6-.3 1-.1 1 .4 0 .6.5 1.1 1 1.1 1.5 0 1.2-2.6-.4-3.9-1.1-1-1.7-.7-3 1.1m3.4 9.2c0 3.3-1.6 4.2-3 1.6-1.2-2.3-.6-4 1.6-4 .8 0 1.4 1 1.4 2.4M364 388.5c-.7.8-1 2.7-.7 4.2s0 3.4-.6 4.4c-.8 1.3-.6 2.3.6 4.3 3.5 5.2 6.6 2.6 6.5-5.4-.1-8.2-2.6-11.4-5.8-7.5m3.5 3c0 1-.6 2-1.2 2.2-.8.3-1.3-.5-1.3-2.2s.5-2.5 1.3-2.3c.6.3 1.2 1.3 1.2 2.3m.3 7.3c.2 1.4-.2 2.2-1.2 2.2-1.9 0-2.9-1.7-2.2-3.6.8-2.2 3-1.2 3.4 1.4M374.9 388.6c-.7.9-1.3 3.9-1.3 7 0 9.8 5.5 11.3 7 1.9 1-6.9-2.6-12.6-5.7-8.9m3.1 6.9c0 3-.4 5.5-1 5.5-.5 0-1-2.5-1-5.5s.5-5.5 1-5.5c.6 0 1 2.5 1 5.5M385.5 388.2c-1.4 4.3-.8 7.8 1.5 7.8 1.5 0 2 .7 2 2.4 0 3-1.5 4.2-2.4 1.9-.5-1.2-1-1.3-1.8-.5s-.8 1.5.2 2.7c2.7 3.2 6 .5 6-5 0-1.7-.8-2.9-2.5-3.7-3.3-1.5-3.2-3.8.1-3.8 1.6 0 2.4-.5 2.2-1.3-.6-1.7-4.7-2.1-5.3-.5M396.1 393.7c-.6 3.2-1.4 6.8-1.7 8-.4 1.4-.2 2.3.5 2.3.6 0 1.1-1.1 1.1-2.5 0-1.8.5-2.5 2-2.5s2 .7 2 2.5c0 1.6.6 2.5 1.5 2.5.8 0 1.5-.1 1.5-.3-.9-5-3.9-15.2-4.7-15.4-.6-.2-1.5 2.2-2.2 5.4m2.6 2c-.4.3-.7 0-.7-.7s.3-1 .7-.7c.3.4.3 1 0 1.4M352 395c0 .5 1.6 1 3.6 1 2.1 0 3.3-.4 2.9-1-.3-.6-1.9-1-3.6-1-1.6 0-2.9.4-2.9 1M465.6 382.8c-.4.8-.5 11.8-.1 24.5l.7 23.2-10.7 7.5c-5.9 4.1-14.5 10.2-19.1 13.5s-11.8 8.4-16.1 11.4-8.9 6.6-10.3 8.2c-1.5 1.6-14.6 8.8-33 18l-30.4 15.2-27.3-.7c-24-.6-27.3-.5-27.3.9 0 1.3 3.5 1.5 24.8 1.7l24.7.3-17.5 8.8c-9.6 4.9-18 9.3-18.7 9.9-2 1.7-1.5 5 1.2 7.8 2.4 2.5 2.6 6 .4 6-.5 0-.9 1.1-.9 2.5 0 2.7 4.7 6.6 5.8 4.8.4-.5 1.5-1.2 2.5-1.6.9-.3 1.7-1.3 1.7-2.2 0-1.5-5.6-8.4-9.4-11.6-1.1-.9-1.7-2.3-1.3-3.1.3-.9 12.2-7.3 26.4-14.2 14.2-7 32.5-16.1 40.6-20.2 15.5-7.8 17.6-8.2 7.9-1.4-23.2 16.3-30.3 21.1-42 29.1-13.4 9-13.4 9-16.8 7.4-1.9-.9-3.4-2-3.4-2.5 0-1.9 10.4-7 14.3-7 2 0 3.7-.5 3.7-1 0-.6-1.7-1-3.8-1-4.6 0-16.2 6.5-16.2 9 0 1 1.9 2.7 4.4 4 4.4 2.4 4.4 2.4 13.7-4 5.2-3.5 11-7.5 12.9-8.9s4.2-3.1 5.1-3.6c.9-.6 5.9-4 11-7.6 5.2-3.6 13.2-9.2 17.9-12.4 4.7-3.3 10-7.4 11.9-9.1 3.7-3.4 26.3-15.2 94-48.7 6.8-3.4 12.9-7 13.5-7.9 1.5-2.4-1.6-5.2-7.3-6.6-4.2-1-4.9-.9-10.8 2.4-7.1 4-8.2 6.4-2.9 6.4 1.9 0 3.8-.5 4.1-1 .3-.6-.3-1-1.4-1-3.2 0-2.5-1.3 1.9-3.4 2.9-1.4 5.1-1.7 8.5-1.2 9.7 1.3 8.8 3.4-3.9 9.5l-10.4 5.1-3.8-3.8c-2.2-2.2-4.5-4.1-5.1-4.3-.9-.3-1.5-6.9-2-24.4-.5-14.1-1.2-23.5-1.7-22.7m7.9 52.3c1.4 1.8 2.2 3.5 1.8 4-1.6 1.5-60.5 31-61 30.6-.2-.3.8-1.4 2.4-2.4 3-1.9 35.2-24.7 36.8-26 3.6-3 14.3-9.3 15.7-9.3.9 0 2.8 1.4 4.3 3.1M313 539.5c.6.8 1 2 .7 2.7-.4.8-.6.7-.6-.4-.1-.9-.9-2.2-1.8-2.7-1-.6-1.3-1.1-.7-1.1s1.7.7 2.4 1.5m-2.2 3.4c.3 1.6-.1 2.2-1 1.9-.7-.3-1.5-1.5-1.6-2.7-.3-1.6.1-2.2 1-1.9.7.3 1.5 1.5 1.6 2.7"/><path d="M366 420.4c0 5.9-.4 10.8-1 11.1-.5.3-1 2.3-1 4.3 0 3.1-.6 4.1-3.4 5.9-3.3 2.1-3.4 2.4-2.3 5.3s1 3.3-1.6 5.2c-3.2 2.4-3.6 6.2-.7 7.8 2.3 1.2 2.7 5.9.8 7.8-.8.8-.9 1.5-.1 2.3.7.7 1.5.6 2.6-.5.9-.9 2.3-1.3 3.2-1 2 .8 9.2-2.3 9.9-4.3.3-.8.1-2.3-.5-3.5-.8-1.5-.7-2.2.6-3.2 1.5-1.1 1.5-1.6.5-3.3-1.1-1.8-1-2.5 1-5.3 1.9-2.7 2.1-3.6 1.2-5.1-2-3.2-1.5-8.7.8-9.4 1.1-.3 2-1.5 2-2.5 0-2.5-4.3-5.4-6.9-4.5-1.7.5-2 0-2.6-5.8-.4-3.5-.5-7.4-.3-8.7.1-1.3-.3-2.5-.9-2.7-1-.4-1.3 2.1-1.3 10.1m8.9 9.5c2 1.3-2.3 3.4-5.1 2.5-2.1-.6-2.1-.7-.3-2 2.2-1.6 3.4-1.7 5.4-.5m-7.4 3c.3.5.1 1.2-.5 1.6-.5.3-1-.1-1-.9 0-1.8.6-2.1 1.5-.7m4.3 7c.3 3.1-.9 5-3 5.1-.5 0-.8-2.1-.8-4.6 0-3.8.3-4.5 1.8-4.2 1.1.2 1.8 1.4 2 3.7m-7.8 5.6c0 1.9-.4 3.5-.9 3.5-1.1 0-2.4-4.8-1.6-6 1.3-2.1 2.5-.8 2.5 2.5m10-.2c0 .8-1.1 1.9-2.5 2.5-3.1 1.4-3.5 1.5-3.5.3 0-.8 3-2.8 5.8-4 .1-.1.2.5.2 1.2m-8.3 3.4c-.4.3-.7 0-.7-.7s.3-1 .7-.7c.3.4.3 1 0 1.4m-2.4 3c-2.5.5-3.2 4-1.1 6.1.8.8.8 1.5-.1 2.6-.7.8-.9 2.5-.5 4.3.4 1.9.3 2.5-.4 1.8-1-1-1.6-7-1.3-12.8.1-2.3.5-2.7 2.9-2.6 2.3.2 2.4.2.5.6m6.7 2.2c0 .5-1.2 1.6-2.6 2.6-2 1.3-2.8 1.4-4 .4-2.2-1.8-1.7-2.7 1.9-3.2 1.7-.2 3.5-.5 4-.5.4-.1.7.2.7.7m-12.5 4.1c.3.5.1 1-.4 1-.6 0-1.1-.5-1.1-1 0-.6.2-1 .4-1 .3 0 .8.4 1.1 1m12.5 3.7c0 1.9-4.6 4.6-6.1 3.7-1.7-1-.9-3.5 1.4-4.4 3.4-1.4 4.7-1.2 4.7.7M661.7 422.7c-1.4 1.3-.6 2.1 1.4 1.6 1.5-.4 2.7.1 4 1.8 1.4 1.8 1.9 2 1.9.8 0-3.1-5.4-6.2-7.3-4.2M655.4 426.5c-1.7 1.3-1.7 1.4-.2 1.5.9 0 2-.5 2.3-1.1 1.1-1.7 0-2-2.1-.4M646.3 431.4c-2 .9-3.1 2.6-1.8 2.6 1.2 0 5.5-2.4 5.5-3.2 0-1-.8-.9-3.7.6M668 433.4c0 3.1-.3 3.6-1.8 3.2-2.6-.9-5.5 5.4-4.6 10 .8 4.4 2.5 5.6 7.5 5.6 4.6-.1 6.9-1.5 6.9-4.4 0-1.9.6-2 9.2-1.7 6.6.3 9.2.1 9.5-.9.4-.9-1.8-1.2-8.9-1.2-9.1 0-9.3-.1-10.5-2.7-.7-1.5-1.3-3.3-1.3-4s-.6-1.3-1.4-1.3c-.9 0-1.2.7-.9 2 .4 1.6 0 2-1.8 2-1.9 0-2.1-.2-.9-1 1-.6 1.4-2.1 1.2-4.2-.5-4.9-2.2-6-2.2-1.4m-1.5 5.6c.3.5.4 1 .1 1s-.8-.5-1.1-1c-.3-.6-.4-1-.1-1s.8.4 1.1 1m4.8 3.2c-.6 1.1-5.1 1-5.7 0-.3-.5 1-.8 2.9-.8 1.8.1 3.1.4 2.8.8m-5.3 2.3c.7.8.8 1.5.2 1.5-.5 0-1.5-.7-2.2-1.5s-.8-1.5-.2-1.5c.5 0 1.5.7 2.2 1.5m7.6 1.2c-1 1-1.9-.5-1-1.8.6-1.1.8-1.1 1.2 0 .2.7.1 1.5-.2 1.8m-3.1-.7c.3.5-.1 1-.9 1-.9 0-1.6-.5-1.6-1 0-.6.4-1 .9-1 .6 0 1.3.4 1.6 1m.3 3.2c1.7-.1 3.2.3 3.2.8 0 .6-2.2 1-4.9 1-3.5 0-5.1-.4-5.5-1.6-.5-1.2-.1-1.4 1.7-.8 1.2.4 3.7.6 5.5.6M699.2 433.2c-.8.8-1.2 4.9-1.2 11.9 0 9.1.2 10.8 1.7 11.3.9.4 20.5 1 43.5 1.3l41.8.6V434h-7.7c-4.3 0-14.1-.2-21.8-.5-42-1.4-55.1-1.5-56.3-.3m45.7 2.3c20 .2 36.5.6 36.7.7.4.5.7 6.4.6 13.1l-.2 6.9-39.7-.7c-21.9-.4-40.1-.9-40.5-1.2-.9-.5-1.1-18.7-.2-19.6.3-.3 2-.4 3.7-.2 1.8.3 19.6.7 39.6 1"/><path d="M707.6 438.4c-.8 3.1.4 6.1 2.4 6.1.9 0 1.5.9 1.5 2.5 0 2-.4 2.5-2.3 2.2-1.5-.1-2.2.2-2 1 .3.7 1.6 1.3 2.9 1.3 1.8 0 2.5-.6 2.7-2.4.5-3.5-.7-7.1-2.3-7.1-2.3 0-1.8-2.7.6-3.3 2.4-.7 1.6-2.7-1.1-2.7-1.1 0-2 1-2.4 2.4M719.8 437.1c-1.4.8-1.8 2.4-1.8 7.8 0 7.4 1.5 9.5 4.5 6.5 2.8-2.8 1.3-8.3-2.5-9.6-.6-.2-.8-1.1-.4-2.1.5-1.4.9-1.5 2-.6 2 1.6 3.1.2 1.3-1.6-1-1-1.9-1.1-3.1-.4m2 10.1c-.3 3.4-2 4.2-2.6 1.3-.5-2.2.5-4.5 1.8-4.5.7 0 1 1.4.8 3.2M740.1 438.4c-1.7 2.1-2.5 10-1.2 12.5 1.6 2.9 3.9 2.6 5.1-.5 1.4-3.6 1.3-4.2-1.6-6.9-2.8-2.6-2.5-5.6.3-3.3 1.3 1 1.5.9 1.2-.6-.5-2.5-2.3-3.1-3.8-1.2m2.7 9.7c-.1 1.3-.7 2.3-1.3 2.2-1.3-.3-1.8-3-1.1-5 1-2.4 2.9-.1 2.4 2.8M751.8 437.7c-.2.4-.5 3.7-.7 7.3-.1 3.5-.5 6.8-.7 7.2-.3.4.3.8 1.3.8 1.6 0 1.8-.9 1.6-7.6-.2-7.3-.6-9.5-1.5-7.7M760 441.5c0 4.2.2 4.6 2 4 1.7-.5 2-.2 2 2.4 0 3.1-2.3 4.4-3.3 1.8-.3-.6-.6-.2-.6.9-.1 2.9 2.3 3.7 4.3 1.5 2.5-2.8 2-6.9-.9-8.3-3.1-1.4-3.2-3.6-.2-4 2.9-.4 2.4-2.2-.8-2.6-2.4-.3-2.5-.1-2.5 4.3M769 444.4c0 3.5-.3 7.2-.7 8.2-.4 1.2-.2 1.5.8 1.2.9-.3 1.3-1.7 1.1-4.4-.4-4.6 1.4-3.6 2 1.1.4 3 .4 3 1.5-.5l1.1-3.5.1 3.7c.1 2.1.6 3.8 1.1 3.8.6 0 1-3.3 1-8 0-8.5-1.4-10.7-2.5-4-.7 4.4-2.5 5.5-2.5 1.6 0-3.1-1-5.6-2.1-5.6-.5 0-.9 2.9-.9 6.4M728 445c0 .5 1.4 1 3 1 1.7 0 3-.5 3-1 0-.6-1.3-1-3-1-1.6 0-3 .4-3 1M635.8 437.6c-1.6.8-2.8 1.9-2.8 2.4 0 1.1 6.9-2.1 7-3.3 0-1-1.1-.8-4.2.9M480 442.1c0 .8-.9 2-2 2.7s-2 2-2 3c0 2 3.9 6.2 5.8 6.2 1.8 0 4.5-4.8 3.9-7-.3-1.1-.1-1.8.4-1.4.5.3.9 1.6.9 3s.4 2.2 1 1.9c1.7-1 1.1-4.3-1.2-6.4-1.1-1.1-2.5-1.8-3-1.5s-1.5 0-2.3-.6c-1.2-1-1.5-1-1.5.1m4 6.5c0 .6-.7 1.7-1.5 2.4-1.2 1-1.8 1-3 0-2-1.7-1.9-4 .2-5.5 1.4-1.1 2-1 3 .4.7.9 1.3 2.1 1.3 2.7"/><path d="M479.4 447.4c-.9 2.4 1.2 4.4 2.8 2.8 1-1 .8-1.6-.5-2.9-1.5-1.5-1.7-1.5-2.3.1M553.4 443.8c-1 .9-3.9 3.3-6.4 5.2s-4.7 3.7-5 4c-.6.7-12.7 9.7-16 12-1.2.8-3.2 2.2-4.4 3.1-4.4 3.4-32.4 21.7-39.1 25.6-23.8 14.1-65.5 34.6-90 44.3-4.4 1.8-9.9 4.1-12.1 5.1-5.6 2.5-43.3 14.7-60.2 19.5-1.9.6-1.1 2.3 1.8 3.9 1.4.8 15.1 7.7 30.5 15.3 15.4 7.7 29.8 15 32 16.2 2.2 1.3 7.2 4 11 6.1 3.9 2 14.2 8.1 23 13.4 8.8 5.4 17.2 10.5 18.7 11.4 2.7 1.5 3.7 3.1 2 3.1-.4 0-4.4-2.3-8.7-5.1s-9.2-5.9-10.9-6.9-10.1-5.9-18.6-10.9c-13-7.7-80.3-42.1-82.4-42.1-2.2 0 .3 1.9 5.7 4.4 11.3 5.3 48.1 23.5 56.5 28 17 9.2 49.2 28.3 52.8 31.4.5.5 2.1 1.5 3.4 2.2 3.4 1.8 4.8 3 9.8 8 4.8 4.9 6.6 7.9 9.2 15.4 1.7 5.1 1.7 5.1 6.4 5 4.4 0 4.8.2 5.3 2.8.3 1.5 1 2.5 1.5 2.2.6-.4.8-1.9.5-3.4-.6-2.7-.4-2.8 8.1-5.3 4.8-1.4 12.5-3.7 17.2-5.1 10-3 11.8-3.1 14.8-1 2.2 1.5 3.2 1.1 24.5-9.5 12.2-6.1 24-12.1 26.2-13.4s6.5-3.7 9.5-5.4c3-1.6 7.6-4.2 10.2-5.7 5.7-3.2 5.8-3.2 5.8-.2 0 1.4.5 2.8 1 3.1.6.4 1-1 1-3.3 0-4.3-.5-3.8 13.5-11.8 3.2-1.8 11.4-6.7 20.5-12.4 4.7-2.9 10.1-6.2 12-7.4 1.9-1.1 4-2.5 4.6-3.1.6-.5 4.4-3 8.3-5.5 4-2.5 9.5-6.2 12.3-8.3 2.9-2 5.4-3.7 5.8-3.7.3 0 1.2-2.2 1.9-4.9s2-5.7 2.9-6.7c1-1.1 4.2-4.8 7.2-8.4s5.7-6.7 6-7c2.3-2.3 5-7.4 5-9.4 0-2.5 0-2.5 11.5-2.8 15.8-.4 15.1-2.2-1-2.6-9.5-.2-12.5-.6-12.5-1.6 0-4.2-28.6-25.5-52-38.6-5.2-2.9-10.6-6.1-12-7-2.3-1.6-5.4-3.3-22.2-12.4-24-12.9-41.3-21.6-43-21.6-.8 0-2.3.8-3.4 1.8m14.6 5.1c21.5 11 37.7 19.5 40.2 21.3 1.4 1 2.8 1.8 3.1 1.8s5 2.5 10.4 5.6c34.4 19.8 59.1 37.3 62.8 44.4 3.4 6.6 2.1 9.5-10.5 24-6.1 7-9 11.7-9 14.8 0 1.4-5.1 5.4-18.7 14.4-10.4 6.8-20.2 13.3-22 14.4-1.8 1-7.2 4.3-12 7.3s-11.3 6.8-14.3 8.4-5.9 3.4-6.5 3.8c-1.5 1.4-3.5 1-3.5-.7 0-.8-.5-1.2-1-.9-.6.4-.8 1.4-.5 2.3.5 1.8-.3 2.5-7.9 6.7-17.9 9.9-34.3 18.7-46.6 24.8-14.5 7.2-14.5 7.2-22.2 6.9-5.5-.2-9.1.3-13 1.6-2.9 1.1-7.3 2.5-9.8 3.2s-6.5 1.9-9 2.7c-7.5 2.5-14.4 4.2-15.1 3.7-.4-.2-1-1.6-1.4-3.1-1.2-5.1-5.7-13.2-9.7-17.8-5.7-6.4-18.3-14.6-53.8-35-14.9-8.5-72.6-37.5-74.7-37.5-2.5 0-1.3-1.9 2-2.8 1.7-.6 7.9-2.5 13.7-4.2 17.7-5.3 40.1-13.1 47.5-16.5 1.7-.7 5.5-2.3 8.5-3.5s7.9-3.3 11-4.6c3-1.4 8.2-3.7 11.5-5.2 15.7-7 61.1-30.7 67.3-35 1.6-1.2 3.3-2.2 3.6-2.2.4 0 3.9-2.1 7.9-4.7 3.9-2.5 9-5.8 11.2-7.2s4.2-2.8 4.5-3.1 4.8-3.4 10-7c5.2-3.5 9.7-6.7 10-7s2.1-1.7 4-3c1.9-1.4 4.4-3.2 5.5-4.1 1.1-1 4.7-4 8-6.8 3.3-2.7 6.7-5 7.5-5.1.9 0 5.8 2.2 11 4.9M445.1 634.5c1.9 1.4 4.7 4 6.2 5.8 3.9 4.5 8.9 15 8.5 17.8-.2 1.6-1.1.3-3.3-5-3.1-7.4-10.9-17.5-14.5-18.6-1.1-.4-2-1.1-2-1.6 0-1.5 1.4-1 5.1 1.6"/><path d="M555.3 452.7c-2.9 1.1.4 5.8 3.5 5 1.4-.4 1.4-.6-.5-1.2-2.3-.7-3.2-2.5-1.3-2.5.6 0 1-.5 1-1 0-1.1-.7-1.2-2.7-.3M559 452.9c0 1.3 2.9 3.5 3.7 2.8.7-.8-1.5-3.7-2.8-3.7-.5 0-.9.4-.9.9M557.7 460.7c-.3.5-.2 1.5.2 2.2.7 1 1 1 1.6.1.4-.6.3-1.6-.3-2.2-.5-.5-1.2-.6-1.5-.1M587.9 465c-1.3 1-2.1 1.9-1.7 2 1.4 0 5.8-2.3 5.8-3.2 0-1.4-1.6-.9-4.1 1.2M557.4 468.3c-.3.9-.3 2.5.1 3.4.6 1.6.8 1.5 1.6-.6.6-1.6.6-2.8 0-3.4-.7-.7-1.2-.5-1.7.6M579.6 469.5c-1 .8-2.4 1.6-3 1.8s-.8.8-.4 1.2c.6.7 7.8-3.1 7.8-4.1 0-.9-2.6-.3-4.4 1.1M568 476c-1.4 1.1-2 2-1.4 2 1.3 0 7.4-2.9 7.4-3.6 0-1.1-3.8-.1-6 1.6M557 478.8c0 2-.8 3.2-3 4.5-1.6 1-3 2.2-3 2.8 0 1 11.7-4.7 12.6-6.3 1-1.6-.5-2.2-2.1-.8-1.3 1-1.5.9-1.5-.9 0-1.2-.6-2.1-1.5-2.1-1 0-1.5 1-1.5 2.8M544 488.9c0 .5-1.3 1.4-3 2.1-1.6.7-3 1.6-3 2.1 0 1.3.2 1.2 5.4-1.7 5.1-2.9 5.5-3.4 2.6-3.4-1.1 0-2 .4-2 .9M528.1 497.8c-2.5 1.4-4 2.7-3.4 2.9 1.5.5 9.3-3.5 9.3-4.7 0-1.4-.9-1.1-5.9 1.8M516.2 504.6c-2.4 1.4-4.1 2.8-3.8 3.1.7.7 9.6-3.9 9.6-4.9 0-1.3-1.3-.9-5.8 1.8M504.3 511.2c-1.8 1.1-3.3 2.4-3.3 2.9 0 1.1 7.5-2.6 8.5-4.1 1-1.6-1.7-1-5.2 1.2M491.1 518.8c-2.5 1.4-4 2.7-3.3 3 1.2.4 10.2-4.4 10.2-5.3 0-1.1-2.8-.2-6.9 2.3M665 521c0 .5.7 1 1.6 1 .8 0 1.2-.5.9-1-.3-.6-1-1-1.6-1-.5 0-.9.4-.9 1M661.8 522.2c-.6 1.7.1 3.8 1.3 3.8.5 0 .9-1.1.9-2.5 0-2.6-1.4-3.4-2.2-1.3M667.6 524.1c-1.9 1.9-1.9 1.9.2 1.9 1.5 0 2.2-.6 2.2-2 0-2.4 0-2.4-2.4.1M477.8 526.4c-2.1 1.2-3.5 2.6-3.1 2.9.5.6 6.4-2.4 8.8-4.5 2-1.7-2.2-.6-5.7 1.6M666 530.5c0 1.5.4 2.4 1 2 .6-.3 1-1.2 1-2s-.4-1.7-1-2c-.6-.4-1 .5-1 2M465.8 533c-3.4 1.8-5.8 4-4.3 4 1.2 0 8.4-4 9-5 .9-1.5-.5-1.2-4.7 1M666 537.5c0 1.4.5 2.5 1 2.5.6 0 1-1.1 1-2.5s-.4-2.5-1-2.5c-.5 0-1 1.1-1 2.5M451.6 541.1c-2.7 1.6-4.6 3.2-4.3 3.5.7.8 9.7-4.5 9.7-5.7 0-1.3-.1-1.2-5.4 2.2M639 553.2c-8 5.4-15.2 10.2-16 10.5-.8.4-4.7 2.8-8.6 5.3-3.9 2.6-9.1 5.8-11.5 7.1s-4.6 2.6-4.9 2.9-1.9 1.3-3.5 2.2c-1.7.9-10 5.5-18.5 10.3-16 8.9-53.5 27.9-65 33-15.1 6.6-23.2 10.6-22.7 11.2.7.7 4-.6 15.5-5.9 4.6-2.1 8.6-3.8 8.8-3.8 2.2 0 74.3-37.7 80.6-42.1 1.4-1.1 2.8-1.9 3.1-1.9 2.2 0 58.7-36.8 58.7-38.2s-1.2-.7-16 9.4M666 546.5c0 2.2.4 3.4 1 3 .6-.3 1-1.7 1-3s-.4-2.7-1-3c-.6-.4-1 .8-1 3M438.5 548.2c-2.2 1.2-3.4 2.3-2.8 2.5 1.2.4 8.3-3.3 8.3-4.3 0-.8-1.5-.3-5.5 1.8M426.2 555.2c-2.9 1.7-5.1 3.3-4.7 3.6.6.7 9.2-3.5 10.1-4.9 1.2-2.1-.3-1.7-5.4 1.3M411.8 563c-3.4 1.8-5.8 4-4.3 4s8.5-4.1 8.5-5c0-1.2.2-1.3-4.2 1M350.9 562.2c-.8 1.8-.3 5.1.7 5.5.8.3 1.4 1.1 1.4 1.9 0 2.4 1.5 1.5 2.7-1.6 1.6-4.2 1.6-4.4.4-4.8-.6-.2-.8.3-.5 1.2.4 1.1 0 1.6-1.4 1.6-2.4 0-3.8-1.6-2-2.2.9-.3.9-.6 0-1.2-.7-.4-1.3-.6-1.3-.4M398.9 570.2c-4.2 2.5-4.4 2.7-3.7 3.3.3.3 2.4-.5 4.8-1.9 2.3-1.3 3.8-2.6 3.3-2.9s-2.5.3-4.4 1.5M353 576c0 1.1.5 2 1 2 .6 0 1-.9 1-2s-.4-2-1-2c-.5 0-1 .9-1 2M386.5 577.1c-1.6 1-3.4 2.1-4 2.3-.5.2-.7.6-.4 1 .8.9 8.9-3.3 8.9-4.5 0-1.3-1.1-1-4.5 1.2"/><path d="M585.6 578.5c.9 3 2.4 4.2 2.4 1.9 0-1.1.5-2.5 1.1-3.1.8-.8.4-1.1-1.5-1-2.1.2-2.5.6-2 2.2M374.1 584.1c-1.8 1.1-3.1 2.2-2.8 2.5.7.8 7.7-2.6 7.7-3.7 0-1.4-1.2-1.1-4.9 1.2M573 584c-1.3.9-1.3 1.1 0 1.9 1.7 1.2 3 .5 3-1.5 0-1.6-.9-1.8-3-.4M586 591.9c0 1.1.5 2.3 1 2.6.6.4 1-.5 1-1.9s-.4-2.6-1-2.6c-.5 0-1 .9-1 1.9M586 600.4c0 1.4.5 2.8 1 3.1.6.4 1-.7 1-2.4s-.4-3.1-1-3.1c-.5 0-1 1.1-1 2.4M464.7 629.7c-1.3 1.2-.7 4.1.9 4.7 1.2.4 1.4.1.9-1.4-.5-1.4-.2-2 .9-2 .9 0 1.6-.5 1.6-1 0-1.1-3.3-1.4-4.3-.3M470 632c-.9 1.6-.8 2 .5 2 .8 0 1.5-.9 1.5-2s-.2-2-.5-2c-.2 0-.9.9-1.5 2M467.6 636.7c-.3.3-.6 2.2-.6 4 0 4.5 2.3 3.9 2.4-.6.1-3.3-.6-4.6-1.8-3.4M467.4 648.3c-.8 2.2-.1 7 1.1 7.4.6.2 1-1.5 1-3.6-.1-4.3-1.1-6.3-2.1-3.8M623.7 444.3c-2.1 1.3-3.5 2.6-3.1 2.9.7.8 7.4-3.3 7.4-4.5 0-1 0-1-4.3 1.6M613.3 450.3c-4.6 3.1-4.1 4.3.7 1.6 2.2-1.3 4-2.6 4-3.1 0-1.3-1.2-.9-4.7 1.5M601.2 457.1c-1.8 1.2-3.1 2.4-2.8 2.7.8.7 7.6-2.7 7.6-3.8 0-1.5-1.2-1.2-4.8 1.1M203.4 489.8c-3.1.3-3.1.3-3.6 11.5-.3 6.2-.3 11.5.1 11.9.6.6 56.6 2.3 79.1 2.3h10.5l.2-11.8c.2-8.7-.1-11.9-1-12.3-1.5-.5-80.7-2-85.3-1.6m69.1 3.1 14 .6v20l-18-.4c-9.9-.2-19.8-.5-22-.6-2.2-.2-13.1-.3-24.2-.4L202 512v-20l28.3.1c15.5.1 34.5.4 42.2.8"/><path d="M209.7 493.6c-.4.4-.7 2.5-.7 4.6 0 3.2.3 3.8 2 3.8 2.6 0 3.6 2.5 2 4.5-1 1.2-1.6 1.3-2.6.4-.9-.7-1.4-.7-1.4-.1 0 .5.6 1.5 1.4 2.1 1.8 1.5 4.6-1.1 4.6-4.4 0-2.4-2.3-5.5-4.1-5.5-.5 0-.9-.7-.9-1.5 0-.9 1-1.5 2.6-1.5s2.4-.5 2.2-1.3c-.5-1.4-4-2.1-5.1-1.1M221.2 494.2c-.7.7-1.2 2.1-1.2 3.2.1 2 .1 2 1.4.3 3.1-4.1 3.6.5.6 5.5-2.9 4.8-2.7 7 .7 6.6 1.8-.2 2.9-1 3.1-2.1.3-1.5 0-1.8-1.7-1.2-2.6.8-2.6.4-.1-3.7 1.1-1.8 2-4.3 2-5.5 0-2.7-3.2-4.7-4.8-3.1M241.7 494.7c-.4.3-.7 1.5-.7 2.6 0 1.6.2 1.7 1.5.7 2.3-1.9 2.7-.7 1.6 5.1-.5 3-.6 5.8-.2 6.2s1.3-2 1.9-5.5c.5-3.5 1.3-7.1 1.7-8.1.6-1.4.2-1.7-2.2-1.7-1.6 0-3.3.3-3.6.7M252.7 494.6c-.4.4-.7 1.6-.7 2.7 0 1.6.2 1.7 1.5.7 2.4-2 3-.3 1.7 4.5-1.4 5.3-1.5 7.5-.3 7.5.4 0 1.3-2.8 1.9-6.3.5-3.4 1.2-6.9 1.4-7.7.3-1.6-4.1-2.7-5.5-1.4M265.6 501.4c.3 3.9 0 6.7-.6 7.1-1.3.8-.3 2.5 1.4 2.5 1.6 0 1.6-15.2 0-15.7-.9-.3-1.1 1.5-.8 6.1M230.5 502c-.4.6.8 1 3 1s3.4-.4 3-1c-.3-.6-1.7-1-3-1s-2.7.4-3 1M714.5 511.9c-.2.4-.5 5.9-.6 12.1-.1 11.5-.1 11.5 3 12.1 1.7.4 21.4.6 43.8.5l40.8-.1.3-11.8c.2-8.9 0-11.8-1-12.2-2.3-.7-85.8-1.3-86.3-.6m84.5 12.8v10.6l-27.2-.6c-14.9-.4-33.5-.7-41.3-.7h-14.2l.2-7c.3-14.7-5.2-13 41.5-13h41z"/><path d="M723.2 516.2c-.7.7-1.2 2.7-1.2 4.5 0 2.9.3 3.3 2.5 3.3 2.6 0 3.3 2.2 1.6 4.9-.7 1.1-1 1-1.8-.4-.7-1.2-1.2-1.4-1.7-.6-.9 1.4 1.1 4.1 3 4.1 2 0 3.8-4.4 3-7.4-.3-1.3-1.5-2.8-2.6-3.1-2.6-.8-2.6-3.5 0-3.5 1.1 0 2-.7 2-1.5 0-1.8-3.1-2-4.8-.3M733.7 516.7c-.4.3-.7 1.6-.7 2.7.1 2 .2 2 1.4.3.7-.9 1.6-1.7 2-1.7 1.1 0 .6 4.5-.8 6.5-.7 1.1-1.6 3.2-2 4.7-.6 2.6-.4 2.8 2.4 2.8 3.1 0 4.8-1.9 3.5-4.1-.6-.8-1-.8-1.6.2-1.7 2.8-2.1-.2-.4-3.6 2-4.3 1.3-8.5-1.4-8.5-1 0-2.1.3-2.4.7M755 518.6c-3 7.8 1.5 18 5 11.3 1.6-2.9.3-7.9-2.1-7.9-1.2 0-1.9-.7-1.9-2 0-2.3 1-2.6 2.8-.8.9.9 1.2.7 1.2-1 0-3.2-3.8-2.9-5 .4m3.8 7.9c-.2 1.4-.7 2.6-1.3 2.6-.5 0-1.1-1.2-1.3-2.6-.2-1.8.1-2.5 1.3-2.5s1.5.7 1.3 2.5M767.6 522.4c.3 3.8 0 6.7-.6 7.1-1.7 1.1-1.1 2.5 1 2.5 1.9 0 2.1-.5 1.8-7.7-.2-4.6-.8-7.8-1.4-8-.9-.3-1.1 1.5-.8 6.1M777.2 517.2c-1.8 1.8-1.5 12.3.4 13.8 2.5 2.1 4.5-.8 4.6-6.8.2-6.6-2.2-9.8-5-7m2.8 6.8c0 3.3-.4 6-1 6s-1-2.7-1-6 .4-6 1-6 1 2.7 1 6M743.5 524c-.4.6.8 1 2.9 1 2 0 3.6-.5 3.6-1 0-.6-1.3-1-2.9-1-1.7 0-3.3.4-3.6 1M671.3 559.4c.4.9.1 1.6-.6 1.6-1.4 0-1.7 3.8-.4 5.7.4.6.1 1.3-.5 1.6-.9.3-.8.9.6 1.9 2.2 1.7 1.8 5.1-.7 5.6-1.4.3-1.7-.4-1.7-3.7 0-6.2-1.9-4.9-2.2 1.5-.3 5.6-.3 5.6-19.3 17.6-18.7 11.7-34.3 21.1-50 30.1-7.3 4.2-8 4.5-8.3 2.7-.4-2.6-2.2-1.5-2.2 1.3 0 1.8-2 3.3-10.3 7.6-24.5 13-49.3 25.2-65.7 32.4-2.5 1.1-7 3.1-10 4.5-17.5 8-19.1 8.4-29 8.6-8.8.1-16.6-1.3-19.5-3.6-2-1.6-22.1-14.5-24.4-15.8-1.4-.7-3-1.7-3.5-2.2-1.4-1.1-19-12.4-23.1-14.8-1.6-1-6.7-4-11.3-6.9-4.6-2.8-8.5-5.1-8.7-5.1s-4.5-2.4-9.7-5.3c-5.1-3-13.8-7.8-19.3-10.7s-10.4-5.6-10.8-6c-.8-.7 10.5-4.6 18.6-6.6 3.7-.9 3.5-2.5-.3-1.8-4.4.9-3.6-.3 1-1.6 2.2-.6 4-1.6 4-2.1 0-.6-.7-.8-1.6-.5s-2.8.9-4.2 1.2c-1.5.3-3.6 1-4.7 1.5-4.2 1.9-17.5 5.9-19.4 5.9-1.2 0-2.1-.5-2.1-1 0-.6.9-1 1.9-1 1.1 0 2.1-.5 2.3-1 .2-.6 1.9-1.1 3.8-1.3 1.9-.1 3.8-.6 4.2-1.1.3-.5 2.2-1 4.2-1 2.7-.1 3.6-.5 3.6-1.9 0-2.1.6-2.1-6 .3-5.6 2-10.5 2.7-6 .8 3.4-1.4 6.1-2.5 8.5-3.3 1.1-.4 1.5-.9.8-1.2-.6-.2-3.7.4-7 1.5-3.2 1-8 2.5-10.7 3.3-6.7 1.9-8.4 4.6-6.5 10.2 1.6 5 3.9 7.2 11 11.1 11.4 6.1 27.6 15.3 39.4 22.3 15.6 9.3 30 18.3 37.5 23.3 4.7 3.1 9.2 5.9 10 6.3s4.2 2.6 7.5 5l6 4.4.5 23.9c.3 13.1.7 23.7.9 23.4s.5-10.3.6-22.3c.2-12 .5-22.1.8-22.3.3-.3 3 1.1 6 3.1 5.6 3.7 10 5.3 17.2 6.2 2.2.3 4.6 1.2 5.3 2.1 1.1 1.4 1.2 1.4 1.2-.1 0-1.3.9-1.7 3.8-1.7 4.3 0 13.5-2.8 21.7-6.6 3-1.3 5.6-2.4 5.9-2.4.2 0 3.9-1.6 8-3.5 4.2-1.9 7.8-3.5 8.1-3.5.9 0 9-3.8 35.4-16.7 25.5-12.4 45.2-22.8 59-31.1 7-4.2 8.8-5.2 17.9-10.3 2-1.2 4.8-2.9 6.2-3.8s3.4-2.1 4.5-2.8c6.8-4.1 20.5-12.6 23.3-14.4 3.2-2.1 3.2-2.1 3.2 1.6 0 2.4.4 3.4 1.1 2.9.6-.3.9-1.9.5-3.5-.6-3.1 1.5-5.8 6.6-8.5 5-2.6 7.3-10.6 5.9-19.7-.8-4.7-3.6-8.8-7.5-10.9-1.6-.8-1.8-.7-1.3.6m5.1 4.8c2.3 3.3 1.9 7.9-1 11.2-3.1 3.5-4.3 2.7-1.6-1.1 1.1-1.6 2.1-3.5 2.2-4.3.3-2.1-1.1-6-2.1-6-.5 0-.9-.5-.9-1 0-1.7 1.8-1.1 3.4 1.2m-3.7 1.5c-.4.3-1 .3-1.4 0-.3-.4 0-.7.7-.7s1 .3.7.7m5.4 12.6c-1 2.6-4.8 5.4-5.8 4.3-.3-.3-1.4.4-2.4 1.5-.9 1.1-2 1.6-2.3 1-.8-1.2 5.1-5.4 6.4-4.6.6.4.9.3.8-.2-.3-.9 3.4-5.5 3.9-4.9.2.2-.1 1.5-.6 2.9m-8.8 1.9c-1.3 1.2-2.6 1.9-2.9 1.5-.4-.4.1-1.4 1.2-2.2 2.9-2.2 4.1-1.8 1.7.7M662 585c0 .5-.7 1-1.6 1-.8 0-1.2-.5-.9-1 .3-.6 1-1 1.6-1 .5 0 .9.4.9 1m12.6 1.5c-3 2.6-4.6 3.1-4.6 1.6 0-1.2 4.1-4 6-4 .9-.1.4.9-1.4 2.4m-8.6.4c0 .9-14 10.1-15.3 10.1-2 0-.3-3 2.3-3.9 1.7-.5 3-1.5 3-2.2 0-.6.8-.9 2-.6 1.3.3 2 0 2-.9 0-.8.9-1.4 2-1.4s2-.5 2-1c0-.6.5-1 1-1 .6 0 1 .4 1 .9m-8.3.8c-.4.3-1 .3-1.4 0-.3-.4 0-.7.7-.7s1 .3.7.7m11.3 1.7c0 1.4-10.9 9.1-11.7 8.2-1.1-1.1.7-3.6 2.7-3.6 1.1 0 2-.5 2-1 0-.6.8-1 1.8-1 .9 0 2.3-.9 3-2 1.4-2.3 2.2-2.6 2.2-.6m-15 .4c0 .4-1.3 1.6-3 2.5-1.6 1-3 1.4-3 .8s1.2-1.7 2.8-2.5c3.2-1.8 3.2-1.8 3.2-.8m-7.5 5.2c-.3.5-1.3 1-2.1 1s-1.2-.5-.9-1c.3-.6 1.3-1 2.1-1s1.2.4.9 1m2.5 3.2c0 .5-.7.8-1.5.4-.9-.3-1.5 0-1.5.9 0 .8-.6 1.5-1.4 1.5-.7 0-1.9.7-2.6 1.5-.7.9-1.9 1.4-2.7 1.1-.7-.3-1.3.1-1.3.8 0 .8-1.3 1.9-3 2.5-1.6.5-3 1.4-3 1.8s-2.1 1.9-4.7 3.3c-2.7 1.3-5 2.7-5.3 3.1-1.3 1.6-9.1 5.2-9.7 4.5-.9-.9 2.6-3.8 3.7-3.1.5.3 1-.1 1.3-.8.3-.6 2.2-2.1 4.3-3.2 2.2-1.1 4.1-2.2 4.4-2.6.3-.3 3.4-2.3 7-4.5 3.6-2.1 8.3-5.1 10.5-6.6 3.9-2.6 5.5-2.8 5.5-.6m-7-.8c0 .3-.4.8-1 1.1-.5.3-1 .1-1-.4 0-.6.5-1.1 1-1.1.6 0 1 .2 1 .4m11.9 2.7c-1.3 1-3.2 1.9-4.1 1.9-1 0-1.8.4-1.8 1 0 .5-.6 1-1.4 1s-1.6.7-2 1.5c-.3.8-1.5 1.5-2.6 1.5s-2 .5-2 1c0 .6-.8 1.4-1.7 1.7-1 .4-2.7 1.5-3.7 2.5-1.1 1-2.6 1.8-3.3 1.8s-1.3.4-1.3.9-.9 1.3-2.1 1.6c-1.2.4-6.1 3.1-11 6.1-9.3 5.7-9.9 6-9.9 4.5 0-1 3.8-3.4 7.3-4.7.9-.3 1.7-1 1.7-1.5s.8-.9 1.9-.9c1 0 2.4-.7 3.1-1.5s4.4-3.4 8.4-5.8c3.9-2.4 10.2-6.3 13.9-8.6s7.2-3.9 7.7-3.6c.6.4 1 0 1-.9 0-1.6 2-2.6 3.4-1.8.5.3-.2 1.3-1.5 2.3m-322.1 1c-2.3 1.9-2.3 1.9.1 3.9 3 2.6 1.5 2.6-2.6 0-3.7-2.2-4.2-3.8-1.5-4.6.9-.3 2.4-.9 3.2-1.4 2.6-1.4 3.1.1.8 2.1m4.9-2.4c-.4.3-1 .3-1.4 0-.3-.4 0-.7.7-.7s1 .3.7.7m301.3 1.2c0 .5-.7 1.1-1.5 1.5-1.5.5-2-.5-.8-1.7.9-1 2.3-.9 2.3.2M354 601c0 .5-.4 1-1 1-.5 0-1-.5-1-1 0-.6.5-1 1-1 .6 0 1 .4 1 1m-4.3 1.7c-.4.3-1 .3-1.4 0-.3-.4 0-.7.7-.7s1 .3.7.7m283.3.3c0 .5-.7 1-1.5 1s-1.5.4-1.5 1c0 .5-.4 1-1 1-1.8 0-1-1.7 1.3-2.8 2.8-1.4 2.7-1.4 2.7-.2m-287.3.7c-.4.3-1 .3-1.4 0-.3-.4 0-.7.7-.7s1 .3.7.7m-4.2 1.3c-.3.5-1.8 1-3.3.9-2.4 0-2.5-.1-.7-.9 2.8-1.2 4.7-1.2 4 0m-6.5 6c0 .6-1.8.1-4-1s-4-2.5-4-3c0-.6 1.8-.1 4 1s4 2.5 4 3m290-2.5c-.7.8-2 1.5-2.9 1.5-1.2 0-1-.5.9-2 2.8-2.1 3.9-1.8 2 .5m-288.5-.5c.3.5.1 1-.4 1-.6 0-1.1-.5-1.1-1 0-.6.2-1 .4-1 .3 0 .8.4 1.1 1m3.5 2c0 .5-.2 1-.4 1-.3 0-.8-.5-1.1-1-.3-.6-.1-1 .4-1 .6 0 1.1.4 1.1 1m278.2 2.2c-.7.7-1.2.8-1.2.2 0-1.4 1.2-2.6 1.9-1.9.2.3-.1 1.1-.7 1.7M339 612c.8.5 1.1 1.2.8 1.6-1 .9-3.8-.3-3.8-1.6 0-1.2 1-1.3 3 0m5 0c0 .5-.4 1-1 1-.5 0-1-.5-1-1 0-.6.5-1 1-1 .6 0 1 .4 1 1m-11 1c0 .5-.4 1-.9 1-.6 0-1.3-.5-1.6-1-.3-.6.1-1 .9-1 .9 0 1.6.4 1.6 1m28.6 8.7c-.7.7-15.6-7-15.6-8 0-.4 3.6 1.1 8.1 3.4 4.4 2.3 7.8 4.4 7.5 4.6m252.6-6.5c-.6.6-1.5.8-1.9.4s-.1-1.1.7-1.6c1.9-1.2 2.7-.3 1.2 1.2m-277.7-.2c.3.5-.1 1-.9 1-.9 0-1.6-.5-1.6-1 0-.6.4-1 .9-1 .6 0 1.3.4 1.6 1m14.8 3.8c4.8 2.7 8.4 5.2 8.1 5.5-.5.4-5.4-1.8-11.4-5.2-.8-.5-2.7-1.4-4.2-2.1s-2.5-1.7-2.2-2.2c.7-1.1.1-1.4 9.7 4m-9.4-1.2c1.7.8 2.8 2 2.5 2.5-.4.6-1.3.4-2.3-.5s-2.3-1.6-2.9-1.6c-.7 0-1.2-.5-1.2-1 0-1.3.1-1.3 3.9.6m269.1-1.2c0 .3-.4.8-1 1.1-.5.3-1 .1-1-.4 0-.6.5-1.1 1-1.1.6 0 1 .2 1 .4m-4 2c0 .4-11.9 7.6-12.6 7.6-1.4 0-.1-2 1.7-2.5 1.2-.4 3.7-1.8 5.6-3.1 3.3-2.2 5.3-3 5.3-2m4 2.1c0 .9-1.2 2.1-2.7 2.7-1.6.7-4.7 2.5-7 4-2.3 1.6-4.8 2.5-5.7 2.2-1-.4-1.6-.1-1.6.9 0 1.3-9.6 6.7-12 6.7-.5 0-1.3.6-1.7 1.4-.4.7-3.5 2.6-6.8 4.1s-6.7 3.1-7.5 3.6c-5.5 3.1-11.6 5.9-12.7 5.9-.7 0-1.3.4-1.3 1 0 .5-.8 1-1.9 1-1 0-2.4.7-3.1 1.5-1.4 1.7-4 2-4 .5 0-.5 5.7-3.7 12.8-7.1 7-3.4 13.4-6.5 14.2-7s2.9-1.6 4.5-2.5c1.7-.8 5.7-3 9-4.9s8.5-4.6 11.5-6.1c3-1.6 6-3.4 6.5-4 .8-.9 8.1-5.1 9.3-5.4.1 0 .2.7.2 1.5m-263 1.1c0 .8-.4 1.2-1 .9-.5-.3-1-1-1-1.6 0-.5.5-.9 1-.9.6 0 1 .7 1 1.6m3.8 2.2c.2.7-.2 1-1.2.6-.9-.3-1.6-1.1-1.6-1.6 0-1.3 2.3-.5 2.8 1m12.9-.1c-.4.3-1 .3-1.4 0-.3-.4 0-.7.7-.7s1 .3.7.7m3.4 4.6c2.3 1.3 4.5 2.9 4.7 3.6s-1.5.2-3.9-1.3c-2.4-1.4-5.4-3-6.7-3.6-1.3-.5-2-1.5-1.7-2 .5-.8 1.1-.8 2 0 .7.6 3.2 2.1 5.6 3.3m3.9-1.1c0 1.2-1.3.9-3.2-.6-2.6-1.9-2.2-2.6.7-1.3 1.4.7 2.5 1.5 2.5 1.9m-15.5-1.2c.3.5-.1 1-.9 1s-1.8-.5-2.1-1c-.3-.6.1-1 .9-1s1.8.4 2.1 1m235.5.9c0 .5-.8 1.1-1.7 1.4-1 .4-2.8 1.4-4 2.3-1.3.9-2.3 1.2-2.3.7s1.7-1.9 3.8-3.1c4.3-2.5 4.2-2.5 4.2-1.3m-232 1c0 .5 1.1 1.2 2.5 1.5 1.4.4 2.5 1.1 2.5 1.6 0 1.3-.1 1.3-3.8-.6-3.1-1.5-4.3-3.4-2.2-3.4.6 0 1 .4 1 .9m244.6 1.6c-2.1 1.6-3.2 1.3-2.1-.4.3-.6 1.4-1.1 2.3-1.1 1.5.1 1.5.2-.2 1.5M376 630c0 .5-.2 1-.4 1-.3 0-.8-.5-1.1-1-.3-.6-.1-1 .4-1 .6 0 1.1.4 1.1 1m7 3.5c1.9 1.4 3 2.5 2.4 2.5-1.1 0-7.4-3.8-7.4-4.5 0-1.1 1.8-.4 5 2m217-1.6c0 .5-.7 1.1-1.5 1.5-1.5.5-2-.5-.8-1.7.9-1 2.3-.9 2.3.2m-230.4 1.6c.4.8 1.5 1.5 2.5 1.5s1.9.4 1.9 1c0 1.3-.3 1.3-4.5-.7-3.7-1.7-4.6-3.3-2-3.3.9 0 1.8.7 2.1 1.5m212.4-.8c-.1 1.1-9.1 5.5-9.8 4.9-.3-.3-.3-.7-.1-.9 2.4-1.5 8.6-4.7 9.2-4.7.4 0 .7.3.7.7M377 634c0 .5-.4 1-.9 1-.6 0-1.3-.5-1.6-1-.3-.6.1-1 .9-1 .9 0 1.6.4 1.6 1m213 3.8c-8.1 4.7-10.3 5.6-9.8 4 .3-.7 1.4-1.4 2.6-1.6s2.2-.8 2.2-1.3.9-.9 2-.9c1 0 2.3-.6 2.7-1.4.9-1.4 2.9-2.4 5.3-2.5.8 0-1.4 1.6-5 3.7m-205.2.2c2.8 1.7 5.2 3.5 5.2 4 0 1.4-.5 1.3-4.7-1.5-9.3-6-9.7-7.7-.5-2.5m-.8 4.9c0 1.2-.3 1.1-1.7-.1-1-.9-2.8-1.9-4-2.2-1.3-.4-2.3-1.3-2.3-2.1 0-1 1-.8 4 .8 2.2 1.2 4 2.8 4 3.6m5-5.4c0 .3-.2.5-.5.5s-.5-.2-.5-.5.2-.5.5-.5.5.2.5.5m3 1.5c0 .5-.4 1-1 1-.5 0-1-.5-1-1 0-.6.5-1 1-1 .6 0 1 .4 1 1m178.5 0c-.3.5-1.1 1-1.6 1-.6 0-.7-.5-.4-1 .3-.6 1.1-1 1.6-1 .6 0 .7.4.4 1m-174 3c.3.5.2 1-.4 1-.5 0-1.3-.5-1.6-1-.3-.6-.2-1 .4-1 .5 0 1.3.4 1.6 1m168-.1c-.5.9-6.3 4.1-7.4 4.1-1 0 1.4-1.9 4.4-3.4 3.5-1.9 3.8-1.9 3-.7m-162.6 7.3c.1 1.4-1.4.8-6.3-2.2-2.6-1.7-4.5-3.4-4.1-3.9.5-1 10.3 4.8 10.4 6.1m174.4-4.5c-1.7.7-3.4 1.7-3.8 2.3-.3.5-1.6 1-2.8 1-1.6 0-.9-.8 2.8-2.9 2.8-1.5 5.4-2.5 6-2.2.5.2-.5 1.1-2.2 1.8m-186.7 1.5c.8-.6 2.9.5 2.3 1.2-1.1 1.1-5.9-1.6-5.9-3.3.1-1.3.4-1.2 1.6.4.8 1.1 1.7 1.9 2 1.7M401 645c0 .5-.2 1-.4 1-.3 0-.8-.5-1.1-1-.3-.6-.1-1 .4-1 .6 0 1.1.4 1.1 1m4 2c0 .5-.4 1-.9 1-.6 0-1.3-.5-1.6-1-.3-.6.1-1 .9-1 .9 0 1.6.4 1.6 1m149.7.7c-.4.3-1 .3-1.4 0-.3-.4 0-.7.7-.7s1 .3.7.7m-156.8 2.5c2 1.2 3.8 2.6 3.9 3 .2.4 1 .8 1.7.8.8 0 1.8.6 2.2 1.2.4.7 3.4 2.6 6.5 4.3 3.2 1.6 5.8 3.5 5.8 4.2s-.7 1-1.5.7c-.8-.4-1.5-1-1.5-1.5s-.5-.9-1-.9c-.6 0-2.3-.8-3.8-1.8-7.4-5-12-7.9-14.4-9.2-1.6-.7-2.8-1.7-2.8-2.2 0-1.3 1-1 4.9 1.4m10.6-1.2c.3.5-.1 1-.9 1-.9 0-1.6-.5-1.6-1 0-.6.4-1 .9-1 .6 0 1.3.4 1.6 1m142.5 0c0 .5-.8 1-1.7 1-1.5 0-1.6-.2-.3-1 1.9-1.2 2-1.2 2 0m15.7.7c-.4.3-.7 0-.7-.7s.3-1 .7-.7c.3.4.3 1 0 1.4m-159.9 1.9c1.8.8 3.2 2.2 3.2 2.9 0 1.1-.8.9-3.5-.6-1.9-1.2-3.5-2.5-3.5-3 0-1.2.2-1.2 3.8.7M564 651c0 .5-.4 1-1 1-.5 0-1-.5-1-1 0-.6.5-1 1-1 .6 0 1 .4 1 1m-152 1c0 .5-.2 1-.4 1-.3 0-.8-.5-1.1-1-.3-.6-.1-1 .4-1 .6 0 1.1.4 1.1 1m133.5 0c-.3.5-1.1 1-1.6 1-.6 0-.7-.5-.4-1 .3-.6 1.1-1 1.6-1 .6 0 .7.4.4 1m14.5 1c0 .5-.7 1-1.6 1-.8 0-1.2-.5-.9-1 .3-.6 1-1 1.6-1 .5 0 .9.4.9 1m-143 1.5c1.4 1.6 1 1.8-1.4.9-.9-.3-1.6-1-1.6-1.5 0-1.4 1.6-1.1 3 .6m122.5.5c-.3.5-1.3 1-2.1 1s-1.2-.5-.9-1c.3-.6 1.3-1 2.1-1s1.2.4.9 1m15.5 0c0 .5-.5 1-1.1 1-.5 0-.7-.5-.4-1 .3-.6.8-1 1.1-1 .2 0 .4.4.4 1m-135.1 5c4 2.7 7.6 5 7.9 5 .4.1 2 1.2 3.7 2.5 4.7 3.9 2.1 4-3.4.1-2.8-2-5.5-3.6-5.9-3.6-.5 0-1.7-.9-2.6-1.9-1-1.1-3.3-2.7-5.2-3.6s-3.4-2-3.4-2.5c0-1.8 1.6-1.1 8.9 4m132.1-3.1c0 .5-.8 1.1-1.7 1.5-1 .3-2.4.9-3 1.2-.7.3-1.3.1-1.3-.4s1-1.4 2.3-2c2.8-1.3 3.7-1.4 3.7-.3M422 658c0 .5-.7.7-1.5.4-.8-.4-1.5-.8-1.5-1s.7-.4 1.5-.4 1.5.4 1.5 1m111.7-.3c-.4.3-1 .3-1.4 0-.3-.4 0-.7.7-.7s1 .3.7.7m8.3.4c0 .6-.6.9-1.4.6s-2.2.3-3.1 1.3c-1 1.1-2.2 1.7-2.6 1.4-1.6-1-.9-2.2 1.9-3.2 3.7-1.4 5.2-1.4 5.2-.1M426 660c.8.5 1.1 1.2.7 1.6s-1.5 0-2.4-.9c-1.8-1.8-.8-2.3 1.7-.7m104-.6c0 .2-.7.6-1.5 1-.8.3-1.5.1-1.5-.4 0-.6.7-1 1.5-1s1.5.2 1.5.4m14.5 1.6c-.3.5-1.2 1-2 1s-3 1-5 2.1c-2 1.2-3.8 1.9-4.1 1.6s.5-1.1 1.8-1.8c1.2-.8 3.2-1.9 4.3-2.5 2.5-1.5 5.8-1.7 5-.4m-20.5.5c0 .3-.2.5-.5.5s-.5-.2-.5-.5.2-.5.5-.5.5.2.5.5m9 .5c0 .6-.8 1.3-1.7 1.6-2.3.8-6.4 2.4-8.5 3.5-1 .5-2.5.9-3.3.9s-1.5.4-1.5.8c0 1.1-5.1 3.5-5.8 2.8-.7-.8 1.8-3.6 3.2-3.6.6-.1 4.3-1.6 8.1-3.5 7.5-3.6 9.5-4.1 9.5-2.5m-102.5 1c.3.5-.1 1-.9 1-.9 0-1.6-.5-1.6-1 0-.6.4-1 .9-1 .6 0 1.3.4 1.6 1m90.2.7c-.4.3-1 .3-1.4 0-.3-.4 0-.7.7-.7s1 .3.7.7m-97.5 2.6c.7.7 2.1 1.6 3.1 2 .9.3 1.7 1.1 1.7 1.7 0 1.5-.6 1.3-5.2-2-2.2-1.7-3.4-3-2.5-3 .8 0 2.2.6 2.9 1.3m13.1.3c.9.4 1.7 1 1.7 1.5 0 1.4-1.3 1-4-1.2-1.4-1.1-1.8-1.8-1-1.5s2.3.9 3.3 1.2m80.7-1.1c0 .3-.2.5-.5.5s-.5-.2-.5-.5.2-.5.5-.5.5.2.5.5m-3 .9c0 .3-.4.8-1 1.1-.5.3-1 .1-1-.4 0-.6.5-1.1 1-1.1.6 0 1 .2 1 .4m17.5.6c-.3.5-1 1-1.6 1-.5 0-.9-.5-.9-1 0-.6.7-1 1.6-1 .8 0 1.2.4.9 1m-21.5 1.5c0 .3-.2.5-.5.5s-.5-.2-.5-.5.2-.5.5-.5.5.2.5.5m17 0c0 .5-5.5 3.5-6.5 3.5-1.3 0-.3-1.6 1.8-2.6 2.4-1.3 4.7-1.7 4.7-.9m-85 2.5c0 .5-.4 1-1 1-.5 0-1-.5-1-1 0-.6.5-1 1-1 .6 0 1 .4 1 1m63.7-.3c-.4.3-1 .3-1.4 0-.3-.4 0-.7.7-.7s1 .3.7.7m-73.9 2.2c.3.8-.1 1.2-.9.9-.7-.2-1.5-1-1.7-1.7-.3-.8.1-1.2.9-.9.7.2 1.5 1 1.7 1.7m12.1 2.4c8.4 5.5 12.6 7.4 17.9 8.3 4.6.7 5.7 2.4 1.7 2.4-1.4 0-2.5-.3-2.5-.8 0-.4-1.9-.8-4.3-.9-2.3-.2-4.3-.7-4.5-1.3-.2-.5-.8-1-1.3-1-1.1 0-15.9-9.8-15.9-10.5 0-1.3 2.9-.1 8.9 3.8M502 672c0 .5-.6 1-1.2 1-.7 0-2.6.7-4.2 1.5-1.6.9-3.1 1.3-3.4 1-.3-.2 1.5-1.4 3.9-2.5 5.2-2.3 4.9-2.3 4.9-1m8.8.1c-.5 1.5-11.8 6.1-13.8 5.6-1.1-.3-1-.6.5-1.2 1.1-.4 4.3-1.8 7-3.1 5.7-2.6 6.8-2.9 6.3-1.3m-64.7 1.6c1.3 1.5 1.2 1.5-.8.4-2.4-1.2-2.9-2.1-1.4-2.1.5 0 1.5.7 2.2 1.7m71.9-1.3c0 .3-.4.8-1 1.1-.5.3-1 .1-1-.4 0-.6.5-1.1 1-1.1.6 0 1 .2 1 .4m-82.5 2.6c.3.5.2 1-.4 1-.5 0-1.3-.5-1.6-1-.3-.6-.2-1 .4-1 .5 0 1.3.4 1.6 1m78 0c-.3.5-1.3 1-2.1 1s-1.2-.5-.9-1c.3-.6 1.3-1 2.1-1s1.2.4.9 1m-73.1 4.1c-.4.6-1.1.6-2-.2-2.1-1.7-1.7-3.1.6-1.9 1.1.6 1.8 1.5 1.4 2.1m9.6-2.6c0 .3-.2.5-.5.5s-.5-.2-.5-.5.2-.5.5-.5.5.2.5.5m41-.1c0 .3-.4.8-1 1.1-.5.3-1 .1-1-.4 0-.6.5-1.1 1-1.1.6 0 1 .2 1 .4m17.5.6c-.3.5-1.1 1-1.6 1-.6 0-.7-.5-.4-1 .3-.6 1.1-1 1.6-1 .6 0 .7.4.4 1m-53.5 1.6c0 .2-.7.4-1.5.4s-1.5-.4-1.5-1c0-.5.7-.7 1.5-.4.8.4 1.5.8 1.5 1m31-.1c0 .3-.2.5-.5.5s-.5-.2-.5-.5.2-.5.5-.5.5.2.5.5m9 .4c0 1.2-2.8 2.2-3.4 1.2-.3-.5-.3-1.1.1-1.5.9-.9 3.3-.7 3.3.3m9-.5c0 .8-13.3 6.7-14.4 6.3-.6-.3.3-1 1.9-1.7 1.7-.7 4.8-2.1 7-3.1 4-1.8 5.5-2.2 5.5-1.5m-40.4 3.4c-2.3.5-6.6-.6-6.6-1.7 0-.4 1.9-.3 4.2.3s3.4 1.2 2.4 1.4m19.4-2.3c0 .3-.2.5-.5.5s-.5-.2-.5-.5.2-.5.5-.5.5.2.5.5m-38.5 1.5c.3.5-.1 1-.9 1-.9 0-1.6-.5-1.6-1 0-.6.4-1 .9-1 .6 0 1.3.4 1.6 1m35 0c-.3.5-1 1-1.6 1-.5 0-.9-.5-.9-1 0-.6.7-1 1.6-1 .8 0 1.2.4.9 1m10.5-.1c0 1.2-2.8 2.2-3.4 1.2-.3-.5-.3-1.1.1-1.5.9-.9 3.3-.7 3.3.3m-22 .6c0 .3-.2.5-.5.5s-.5-.2-.5-.5.2-.5.5-.5.5.2.5.5m4.7.1c-.3.3-1.2.4-1.9.1-.8-.3-.5-.6.6-.6 1.1-.1 1.7.2 1.3.5m3 .1c-.4.3-1 .3-1.4 0-.3-.4 0-.7.7-.7s1 .3.7.7m-27.7 1.9c0 .8-.4 1.2-1 .9-.5-.3-1-1-1-1.6 0-.5.5-.9 1-.9.6 0 1 .7 1 1.6m37-.6c0 .5-.2 1-.4 1-.3 0-.8-.5-1.1-1-.3-.6-.1-1 .4-1 .6 0 1.1.4 1.1 1m-3 .9c0 .9-4.8 2.1-8.6 2.1-4.4 0-2.4-1.9 2.4-2.3 2.6-.2 5-.4 5.5-.5.4-.1.7.2.7.7m-11.6 4.3c4.7-.2 7.6-.1 7.3.5-.8 1.3-18.4 1.7-19.2.3-.3-.5-1-.8-1.5-.5s-1.7.1-2.7-.4-2.6-1.2-3.6-1.5-1.6-1-1.3-1.5 3.4.1 6.9 1.4c5.1 1.7 7.8 2.1 14.1 1.7m-.4-3.2c0 .5-.4 1-1 1-.5 0-1-.5-1-1 0-.6.5-1 1-1 .6 0 1 .4 1 1m18 .5c0 .3-.2.5-.5.5s-.5-.2-.5-.5.2-.5.5-.5.5.2.5.5m-4.4 2c-2.2 1.7-4.6 2-4.6.6 0-1 2.2-1.8 5-2 1.1 0 1 .4-.4 1.4M353.5 587.9c-.3.5-.1 1.2.5 1.6.5.3 1-.1 1-.9 0-1.8-.6-2.1-1.5-.7"/><path d="M360.4 592.1c-.3.6-1.9.9-3.5.5-3-.6-3.7.2-1.8 2.1.9.9 1.9.8 4-.2 3-1.6 4.7-3.5 3-3.5-.5 0-1.3.5-1.7 1.1M367 600.5c0 2.2.4 3.4 1 3 .6-.3 1-1.7 1-3s-.4-2.7-1-3c-.6-.4-1 .8-1 3M662.5 606.1c-1.6 1-3.4 2.1-4 2.3-.5.2-.7.6-.3 1 .3.4 2 0 3.7-.8 4-2.1 4.1-2.1 4.1 1.1 0 1.9.3 2.4 1.1 1.6 1.3-1.3.8-6.5-.6-6.9-.5-.1-2.3.6-4 1.7M367 614c0 3.2.4 4.9 1 4.5.6-.3 1-2.4 1-4.5s-.4-4.2-1-4.5c-.6-.4-1 1.3-1 4.5M649.3 613.6c-2.4 1.4-4.3 3-4.3 3.6 0 1.1 7.6-3 9.2-4.9 1.6-2-.3-1.5-4.9 1.3M666 618.9c0 2.3.5 4.1 1 4.1.6 0 1-1.5 1-3.4s-.4-3.8-1-4.1c-.6-.4-1 1-1 3.4M634.8 621.8c-4.6 2.6-6 4.2-3.7 4.2 1.1 0 9.9-5.8 9.9-6.5 0-.9-1.6-.3-6.2 2.3M622 629.5c-1.9 1.3-4.1 2.4-4.7 2.4-.7.1-1.3.8-1.3 1.6 0 1.2 1.1.9 5-1.3 2.7-1.5 5-3.3 5-4 0-1.5.2-1.6-4 1.3M666 631.6c0 2.7.4 4.3 1 3.9.6-.3 1-2.4 1-4.6 0-2.1-.4-3.9-1-3.9-.5 0-1 2.1-1 4.6M605.6 639.1c-2.7 1.6-4.6 3.2-4.3 3.5.7.7 10.7-4.8 10.7-5.9 0-1.3-1.5-.7-6.4 2.4M696.8 637.5c-.5.5-.8 6.1-.8 12.6v11.8l18.3.3c10 .2 29.7.3 43.7.3h25.5l.3-12.3c.3-12.2.3-12.2-3-12.2-1.8 0-21.3-.3-43.3-.6-22-.4-40.3-.3-40.7.1m52.4 2.5H781v21.2l-13.2-.6c-7.3-.3-25.8-.5-41-.5L699 660v-9.9c0-11.6-.4-11.2 10.9-10.5 4.1.2 21.7.4 39.3.4"/><path d="M705 645.4c0 3.9.3 4.6 2 4.6 1.5 0 2 .7 2 2.5 0 2.7-.9 3.2-2.7 1.4-1.7-1.7-2.3.4-.7 2.6 2.2 3 4.9.8 4.9-4.1 0-3.1-.5-4.1-2.2-4.9-1.3-.5-2.3-1.5-2.3-2.2 0-.6 1-1.3 2.3-1.5 2.9-.4 2.4-2.2-.8-2.6-2.4-.3-2.5-.1-2.5 4.2M717.1 641.9c-1.8 1.1-2.6 9.8-1.2 13.3 1.3 3.4 3.3 3.6 5.1.4 1.6-3.1.6-7.3-2-8.1-1.1-.3-2-1.3-2-2.1 0-1.7 1.6-1.9 2.6-.3.4.8.9.7 1.5-.2.4-.8.3-1.9-.3-2.6-1.2-1.5-1.8-1.6-3.7-.4m2.9 10.7c0 3.1-2.3 2.8-2.8-.4-.2-1.5.2-2.2 1.2-2.2 1.1 0 1.6.9 1.6 2.6M748.5 642.6c-1.1 1.1-1.4 2.6-.9 4.9.3 1.8.1 3.5-.4 3.9-1.6.9.9 6.6 2.9 6.6.9 0 2.2-.6 2.8-1.3 1-1.3 1.3-9.3.4-12.9-.6-2.4-3-3-4.8-1.2m3.5 3.4c0 1.1-.7 2-1.5 2s-1.5-.9-1.5-2 .7-2 1.5-2 1.5.9 1.5 2m0 7.6c0 3.1-2.3 2.8-2.8-.4-.2-1.5.2-2.2 1.2-2.2 1.1 0 1.6.9 1.6 2.6M736.3 643.5c-.8 2.1.6 3.3 1.7 1.5 1.7-2.8 2.3 0 1.1 5.7-.7 3.6-.8 6-.2 6.6 1 1 1.5-.5 2.5-8 .3-2.3.9-4.8 1.2-5.7.5-1.3-.1-1.6-2.5-1.6-1.9 0-3.4.6-3.8 1.5M758.6 643.6c-.3.9-.6 3.7-.6 6.4s.3 5.5.6 6.4c1 2.5 4.3 1.9 5.4-.9 1.2-3.1-.3-7.5-2.5-7.5-.8 0-1.5-.9-1.5-2 0-2.2 1.6-2.7 2.3-.8.2.7.8 1 1.2.6 1.3-1.2-.3-3.8-2.4-3.8-1 0-2.2.7-2.5 1.6m3.9 7.4c.8 1.3-.4 5-1.6 5-.5 0-.9-1.4-.9-3 0-3 1.3-4 2.5-2M770.5 644.6c-.4 1.6-1.1 4.5-1.6 6.4-1.2 4.6-1.1 7 .1 7 .6 0 1-1.2 1-2.6 0-1.9.4-2.5 1.8-2.2 1 .2 1.7 1.2 1.6 2.6 0 1.3.5 2.2 1.4 2.2 1.1 0 1.3-.7.8-2.8-.4-1.5-1.1-4.6-1.5-7-1.1-5.7-2.8-7.4-3.6-3.6m2 4.3c.3.5.1 1.2-.5 1.6-.5.3-1-.1-1-.9 0-1.8.6-2.1 1.5-.7M726 650c0 .5 1.4 1 3 1 1.7 0 3-.5 3-1 0-.6-1.3-1-3-1-1.6 0-3 .4-3 1M663.3 638.7c-.7.2-1.3 1.1-1.3 1.9s-.4 1.4-1 1.4c-.5 0-1.6 1-2.5 2.3-1.3 2.1-1.3 2.9.2 8.2 2.2 8 3.6 9.5 9 9.5s8.3-2.6 8.3-7.5c0-3.5 0-3.5 9-3.5 5.3 0 9-.4 9-1s-3.7-1-9-1c-8.4 0-9-.1-9-2.1s-2.1-4.9-3.7-4.9c-.4 0-1.4-.9-2.1-2-1.1-1.9-4.2-2.5-6.9-1.3m5.7 2.2c0 .5-1.1.8-2.5.8s-2.5-.3-2.5-.8 1.1-.9 2.5-.9 2.5.4 2.5.9m1.3 4.6c-.7 1.9-4.3 2-4.3.1 0-.8.8-1.6 1.8-1.9 2.4-.5 3.2.1 2.5 1.8m-8 1.7c1.5 2.5 1.6 2.8.2 2.8-1.6 0-3.6-3.9-2.8-5.3.3-.5.6-.7.7-.5s1 1.5 1.9 3m11.7-1.1c0 1.4-2.6 3.9-3.9 3.9-1.6 0-1.3-1.7.4-2.4.8-.3 1.5-1.3 1.5-2.1 0-.9.5-1.3 1-1 .6.3 1 1.1 1 1.6m-9.5-.1c.3.5.4 1 .1 1s-.8-.5-1.1-1c-.3-.6-.4-1-.1-1s.8.4 1.1 1m2.2 3.7c-.4.3-1 .3-1.4 0-.3-.4 0-.7.7-.7s1 .3.7.7m1 3.7c-.4 1 0 1.4 1.2 1.3 1.1-.1 1.7-.7 1.4-1.4-.3-.8.3-1.3 1.6-1.3 1.2 0 2.1.4 2.1 1 0 .5-.4 1-1 1-.5 0-1 1.3-1 2.9 0 2.8-.2 3-4 2.9-2.2 0-4.5-.7-5.1-1.4-.6-.8-.8-1.4-.5-1.4.4 0 0-.7-.8-1.6-2.2-2.2-1.1-3.4 3.1-3.4 2.6 0 3.4.4 3 1.4m6.3 2.1c0 .3-.2.5-.5.5s-.5-.2-.5-.5.2-.5.5-.5.5.2.5.5"/><path d="M665 657c0 .7.3 1 .7.7.3-.4.3-1 0-1.4-.4-.3-.7 0-.7.7M366.4 643.6c-.4 2.9-.2 5 .5 5.7.8.8 1.1.2 1.1-2.4 0-1.8.3-4.4.6-5.7.4-1.2.2-2.2-.4-2.2s-1.4 2.1-1.8 4.6M586.4 644.1c-.3.6-.1 1.6.5 2.2.8.8 1.1.5 1.1-1.1 0-2.4-.5-2.8-1.6-1.1M592.1 646.6c-4.8 2.5-8.2 5.4-6.4 5.4 1.4 0 10.1-4.9 10.9-6.1 1.1-1.9-.1-1.7-4.5.7M577.1 655c-1.9 1.1-4.2 2.6-5 3.5-2.2 2.2.4 2 3.7-.3 1.5-1 3.5-2.2 4.5-2.5.9-.4 1.7-1.1 1.7-1.7 0-1.4-.9-1.2-4.9 1M366.9 654.2c-.8 2.4-.8 9.8 0 10.3.7.4 1.1-1.3 1.1-4.9 0-3.1-.2-5.6-.5-5.6s-.5.1-.6.2M586.9 655.2c-.6 2.4-.5 5.9.2 6.3.5.4.9-1 .9-2.9 0-2-.2-3.6-.5-3.6s-.5.1-.6.2M561.3 664.2c-2.9 1.6-5.1 3.4-4.8 3.8.7 1.2 11.4-4.2 11.4-5.8.1-1.7-.7-1.5-6.6 2M586.5 666.2c-.4 1-.4 2.6 0 3.5.8 1.7.8 1.7 1.2 0 .3-.9.3-2.5 0-3.5-.4-1.6-.4-1.6-1.2 0M366 673.6c0 3.4.4 5.3 1 4.9.6-.3 1-2.8 1-5.6 0-2.7-.4-4.9-1-4.9-.5 0-1 2.5-1 5.6M563 668.5c0 .3.2.5.5.5s.5-.2.5-.5-.2-.5-.5-.5-.5.2-.5.5M467.4 671.4c-.7 2.9.4 6.9 1.7 6.1 1.2-.8 1.2-7.2-.1-8-.5-.3-1.2.5-1.6 1.9M546 672.7c-3.2 2-4 2.8-2.8 3.1 1 .2 3.1-.6 4.7-1.7 1.6-1.2 3.4-2.1 4-2.1s1.1-.5 1.1-1c0-1.7-2.3-1.1-7 1.7M586.7 679.2c.8 5.9 1.3 6.1 1.3.5 0-2.6-.4-4.7-.9-4.7s-.7 1.9-.4 4.2M532.1 680.5c-5 2.7-6.7 4.2-5.9 5 .5.6 12.8-6.2 12.8-7 0-1.1-2.8-.3-6.9 2M118.1 684.8c-1.2 2.3.4 5.2 3 5.2 1.2 0 1.7.4 1.3 1.1-.3.6-1.5.8-2.6.6-1.2-.4-1.8-.1-1.5.6.7 2.2 4.1 1.2 5.4-1.5 2.6-5.2-2.9-11.1-5.6-6m4.7 1.5c.2 1.2-.3 1.7-1.7 1.7-1.2 0-2.1-.6-2.1-1.3 0-3.1 3.2-3.4 3.8-.4M127.2 683.9c-2.2 1.3-1.1 5.6 1.6 5.9 3.1.5 2.8 2-.5 2.4-2.5.4-2.6.5-.9 1.3 3.9 1.7 7.3-3.6 5.3-8.3-1.1-2.3-3.2-2.8-5.5-1.3m3.8 1.6c1.4 1.6.6 3.5-1.6 3.5-.8 0-1.4-1-1.4-2.5 0-2.8 1.2-3.2 3-1M135.5 684c.3.5 1.5 1 2.5 1 1.9 0 1.9.1 0 3.2-2.2 3.6-2.6 5.8-1 5.8.6 0 1-.8 1-1.8 0-.9.9-3.1 1.9-4.9 1.1-1.7 1.7-3.4 1.4-3.7-1.1-1-6.5-.7-5.8.4M144.6 684.6c-.9.8-1.6 2.2-1.6 2.9 0 1.7 3 3.4 4.9 2.7.8-.3 1.2.1.9.9s-1.5 1.4-2.7 1.3c-2.3-.1-2.9 1.2-.8 1.9 2.7 1 4.7-1.3 4.7-5.3 0-4.8-2.8-7-5.4-4.4m3.9 2.4c0 .8-.8 1.6-1.7 1.8-1.3.2-1.8-.3-1.8-1.8s.5-2 1.8-1.8c.9.2 1.7 1 1.7 1.8M366.7 683.7c-1.1 1-.8 10.3.3 10.3.6 0 1-2.5 1-5.5 0-5.6-.1-6-1.3-4.8M152.6 685.6c-2 5.1.8 10.9 4.2 8.7 2.6-1.6 2.2-5.7-.6-6.1-2.9-.4-2.2-2.8.7-2.5 1.3.2 2-.1 1.6-.7-1-1.6-5.2-1.2-5.9.6m4.9 5.4c0 .8-.8 1.6-1.7 1.8-1.3.2-1.8-.3-1.8-1.8s.5-2 1.8-1.8c.9.2 1.7 1 1.7 1.8M165.9 686.7c-1.4 3.8.2 7.8 3.2 7.8 1.7 0 2.6-.8 3.3-2.7 2.1-6-4.2-11.1-6.5-5.1m4.9 3c-.2 2.6-.8 3.8-1.8 3.8s-1.6-1.2-1.8-3.8c-.3-3.2 0-3.7 1.8-3.7s2.1.5 1.8 3.7M175.2 686c-1.9 3-1.5 7.3.8 8.8 1.7 1 2.3.9 4-.8s1.8-2.3.8-4c-.7-1.1-2.1-2-3-2-1 0-1.8-.5-1.8-1.1 0-.7 1-.9 2.5-.5 1.9.5 2.3.3 1.9-.9-.9-2.1-3.7-1.9-5.2.5m4.3 6c0 2.2-2.9 1.8-3.3-.3-.3-1.4.1-1.8 1.5-1.5 1 .2 1.8 1 1.8 1.8M185 686.1c-1.1.8-1.2 1.2-.2 1.6.6.2 1.2 2 1.2 3.9 0 2.1.4 3.3 1 2.9 1.2-.7 1.4-9.5.3-9.5-.5 0-1.5.5-2.3 1.1M192.3 685.7c-.7.2-1.3 1.2-1.3 2.1 0 1.2.3 1.3 1.2.4.7-.7 1.8-1.2 2.5-1.2 2.3 0 1.4 2.6-1.7 4.9-3.7 2.7-3.1 4.1 1.6 4.1 2.1 0 3.3-.4 2.9-1-.3-.6-1.6-1-2.8-1-2.1-.1-2.1-.2.6-2.1 4.8-3.6 2.4-8.4-3-6.2M586.7 686.7c-1.1 1-.8 6.3.3 6.3.6 0 1-1.6 1-3.5 0-3.6-.2-4-1.3-2.8M517.1 689c-4.2 2.3-5.7 3.8-4.8 4.6.3.3 1.9-.3 3.5-1.5 1.7-1.2 3.4-2.1 4-2.1.5 0 1.5-.7 2.2-1.5 1.8-2.2-.6-1.9-4.9.5M160.5 691c.3.5 1.3 1 2.1 1s1.4-.5 1.4-1c0-.6-.9-1-2.1-1-1.1 0-1.7.4-1.4 1M503.8 696.5c-5.2 2.7-7.5 5.2-3.8 4 3.4-1.1 9-4.6 9-5.6 0-1.1.3-1.2-5.2 1.6M161.2 704.2l-.2 8.6 7.3.6c3.9.3 11.9.8 17.5 1.1 10.4.6 10.4.6 14.5 4.6 4.3 4.1 5.2 4.5 6.2 2.9 1.1-1.7 3.1-1.1 9.9 3 3.6 2.2 7.2 4 7.9 4 1.7 0 4.2-4.4 3.3-5.8-.4-.6-4-2.9-8.1-5.2-6-3.3-7.4-4.6-7.7-6.8-.3-2.4-.9-2.8-5.2-3.6-4.8-.9-5.1-.8-7.6 2.3-2.6 3.1-2.6 3.1-19.6 1.8l-16.9-1.2-.6-7.5-.5-7.5zm43.5 5.5c-.4.3-1 .3-1.4 0-.3-.4 0-.7.7-.7s1 .3.7.7m-2.2 2.4c0 .7-.8 1.5-1.7 1.7-1.8.3-2.5-1.8-1.1-3.2 1-1 2.8-.1 2.8 1.5m7.9-1.2c.3.5-.7 1.1-2.3 1.4-3.3.7-4.9 4-3 6.3 1.6 1.9.4 3-1.6 1.4s-1.9-2.8.5-6.8c1.9-3.1 5.2-4.3 6.4-2.3m.9 4.4c1.5 1 1.6 1.5.4 3-1.2 1.8-1.4 1.8-3.7-.1-3.7-3-.6-5.8 3.3-2.9m-10.8.7c.3.5.1 1-.4 1-.6 0-1.1-.5-1.1-1 0-.6.2-1 .4-1 .3 0 .8.4 1.1 1m15.5 1.7c0 1.4-1.9 3.8-2.5 3.2-.8-.8.5-3.9 1.6-3.9.5 0 .9.3.9.7m1.1 4.6c-.8.8-1.1.7-1.1-.4 0-2 1.3-3.4 1.8-1.9.3.7-.1 1.7-.7 2.3m3.9-.6c0 .5-.4 1.5-1 2.3-1.1 1.8-2.5.7-1.7-1.5.6-1.5 2.7-2.1 2.7-.8m3.4 1.9c1.7.7 2.2 3.4.6 3.4-.5 0-1-.7-1-1.6 0-1.4-.3-1.4-1.5-.4s-1.5 1-1.5-.4c0-1.7.9-2 3.4-1M467.6 697.5c-.9 2.6-.7 8.3.4 9s1.1.6 1.4-4.7c.3-4.3-.8-6.9-1.8-4.3M586 700c0 1.6.5 3 1 3 .6 0 1-1.4 1-3 0-1.7-.4-3-1-3-.5 0-1 1.3-1 3M366 703.1c0 3.1.4 4.8 1 4.4.6-.3 1-2.6 1-5.1 0-2.4-.4-4.4-1-4.4-.5 0-1 2.3-1 5.1M488.3 705.2c-4.5 2.5-6.7 4.8-4.8 4.8 1.6 0 11.4-6.3 10.9-7.1-.6-1.1.1-1.4-6.1 2.3M249.8 707.1c-3.7 1.9-3.8 2.1-3.8 7.2 0 2.9.5 5.8 1.1 6.4.8.8.6 1.9-.9 4-2.5 3.4-3.9 7.9-2.3 6.9.6-.4 1.1-1.3 1.1-2 0-.8.9-2.4 2.1-3.7 2.3-2.7 2.3-2.1-.3 5.3-1.4 4.1-2.3 4.5-5.2 2.3-2.2-1.6-3.6-1.9-3.6-.7 0 .4 1.5 1.6 3.4 2.6 3.2 1.7 3.6 1.7 5 .3.9-.9 1.6-2.4 1.6-3.4 0-2.3 2.6-6.1 3.5-5.1.4.3.2 1.5-.4 2.6-.6 1.2-1.1 3.3-1 4.9.1 2.7.1 2.7.9-.5.8-3.6 1.7-4.9 2.6-4 .3.4.1 1.5-.5 2.6-1.4 2.6-1.4 5.2-.1 5.2.6 0 1-1.1 1-2.5 0-3.4 1.1-3.1 3.9 1.2 2.2 3.4 2.3 3.8.8 6.2-.9 1.4-2.3 2.5-3.1 2.3-1-.2-.5 1.4 1.6 5.5 3.7 7 6.5 9.8 12.1 12.3 4.9 2.2 2.6 2.7-2.6.5-4.6-1.9-9.8-8.1-12.1-14.4-1-2.8-2.2-5.1-2.7-5.1-.8 0 1.9 7.9 4.1 12 1.5 2.8 7.8 7.9 11.7 9.5 4.8 2 7.6 1.9 10.4-.5 2.4-1.9 2.4-1.9-1.4-2-5.1 0-9.9-2.2-13.6-6.1-3-3.1-3.1-3.3-1.4-5.2s1.7-1.9-.4-1.3c-2.8.9-3.8-.8-2.3-4.4.9-2.1 3-3.8 7.8-6.1 3.7-1.8 7-3.8 7.4-4.3 1-1.5 5.8 1.4 5.8 3.6 0 1-.4 1.8-.8 1.8s-1.6 1.3-2.5 3c-1.1 1.7-2.7 3-3.8 3s-1.7.4-1.4 1c.3.5 1.6.9 2.8.8 1.2 0 3.1.3 4.2.7 1.9.8 2 .8.2-1.2-1.6-1.8-1.6-2.2-.4-3 .8-.4 1.6-1.7 1.8-2.8.5-2.5 8-6.8 9.4-5.4 1.1 1.1-1.9 3.9-4.2 3.9-.7 0-1.3.5-1.3 1.1s.8.8 1.9.4c1.3-.4 2.3 0 3 1.3 1.5 2.9 10.3 2.1 14.7-1.3 4.3-3.3 5.8-5.9 4.1-7.3-2.4-1.9-5.7-2.1-6.7-.4-.8 1.4-.9 1.2-1-1 0-3.8-8.3-9.7-11.1-7.9-1 .6-3.8 1.1-6.1 1.1-3.2 0-4.6.5-5.6 2-1.6 2.7-2.5 2.5-3.9-.8-7.3-17.1-7.5-17.3-14.7-20.8-2.8-1.3-5-2.4-5-2.4-.1.1-1.8 1-3.8 2.1m3.2 2c0 1.8-.2 2-1.5.9s-1.3-1.5-.3-2.1c1.8-1.2 1.8-1.2 1.8 1.2m4-.1c0 .5-.4 1-1 1-.5 0-1-.5-1-1 0-.6.5-1 1-1 .6 0 1 .4 1 1m5.5 2.4c2.1 1.5 3.6 4.2 8.5 15 2 4.3 2.8 7.2 2.2 7.8-2 2-4.4.1-6.9-5.5-2.2-4.8-2.4-6.2-1.5-7.7.7-1.2.8-2.1.2-2.5-.6-.3-1-1.5-1-2.5s-1.2-2.8-2.7-3.9c-3.1-2.3-1.9-2.9 1.2-.7m-11 .8c2.2 1 2.4 1.6 1.9 4.4-.8 4.3 2.5 8 5.7 6.3 2.6-1.3 2.6-1.2 5.6 5.8 3.8 9 3.8 8.9.4 10.1-2.9 1-3.1.9-7.4-5.1-8.1-11.5-9.7-14.5-9.7-18.7 0-4.5-.1-4.4 3.5-2.8m5.5.3c0 .3-.2.5-.5.5s-.5-.2-.5-.5.2-.5.5-.5.5.2.5.5m5.4 2.2c1 2.5-1 3.9-2.3 1.5-1-1.9-.6-3.2 1-3.2.4 0 1 .8 1.3 1.7m-4.4 5.4c0 1.1-.4 1.9-1 1.9-1.3 0-3.2-3.8-2.5-5.1 1-1.4 3.5.9 3.5 3.2m2-2c0 .6-.4.7-1 .4-.5-.3-1-1.1-1-1.6 0-.6.5-.7 1-.4.6.3 1 1.1 1 1.6m4 1.4c0 .3-.2.5-.5.5s-.5-.2-.5-.5.2-.5.5-.5.5.2.5.5m31.1 10.2c3.2 2.1 4 3.2 3.6 4.9-.7 3.6.8 5.2 3 3.2 1.3-1.2 2.3-1.4 3.3-.8 1.2.8 1 1.4-1.3 3.6-2.3 2.1-4 2.7-7.9 2.8-5.4.1-6.7-.7-4.8-2.9.7-.8 1-2.2.6-3-.3-.9 0-1.5.9-1.5.7 0 1.7-.5 2-1 .9-1.5-1.4-4-3.6-4-2.1 0-3.3-1.5-2.4-3 1-1.5 2.2-1.2 6.6 1.7m-8.9 2.4c.7 4.9-2.7 6.4-7.1 3-1.7-1.3-2.2-2.4-1.7-3.9.6-1.6 1.5-2.1 4.6-2 3.4 0 3.9.3 4.2 2.9m5.6.8c1.1.6.9.9-.7 1.4-1.1.3-2.5-.1-3.2-.9-.9-1.1-.8-1.4.7-1.4 1.1 0 2.5.4 3.2.9"/><path d="M280.2 732.1c.2.6.8 1 1.3 1s1.1-.4 1.3-1-.4-1.1-1.3-1.1-1.5.5-1.3 1.1M586 712c0 2.2.5 4 1 4 .6 0 1-1.8 1-4s-.4-4-1-4c-.5 0-1 1.8-1 4M467 711.9c0 5 2.2 5.7 8.4 2.8 5.3-2.5 7.9-4.7 5.6-4.7-.6 0-3.1 1.2-5.5 2.6-4.9 2.8-6.5 2.5-6.5-1.2 0-1.3-.4-2.4-1-2.4-.5 0-1 1.3-1 2.9M366 713c0 1.1.5 2 1 2 .6 0 1-.9 1-2s-.4-2-1-2c-.5 0-1 .9-1 2M366.8 718.6c-.5.4-.8 2.1-.8 3.8 0 2.1.3 2.7 1.1 1.9.6-.6.9-2.3.7-3.8s-.6-2.3-1-1.9M586 724c0 2.2.5 4 1 4 .6 0 1-1.8 1-4s-.4-4-1-4c-.5 0-1 1.8-1 4M677.4 721.1c-3.7 1.3-3.5 2.6.4 2.5 3.7-.1 3.7-.1 4.2 5.4l.6 5.5.4-4.8c.8-7.5-1.1-10.3-5.6-8.6M667.9 726.7c-1.3 1.5-1.2 1.5 1.1.3 3.4-1.7 3.6-2 1.8-2-.9 0-2.2.7-2.9 1.7M229 727.7c0 .8 5.2 4.3 6.4 4.3.3 0 .6-.4.6-.8 0-.8-1.4-1.6-6.2-4-.5-.2-.8 0-.8.5M361.6 730.7c-1.6 1.9-2.7 3.6-2.4 3.8.7.7 6.1-5.2 5.7-6.2-.2-.5-1.7.6-3.3 2.4M395.4 729.5c-.3.6-.3 6-.2 12.1l.3 10.9 42.7.9c23.5.5 43.4.6 44.3.3 1.2-.5 1.5-2.7 1.5-12.2 0-8.4-.3-11.7-1.2-12-.7-.2-20.6-.5-44.1-.8-31.6-.2-43-.1-43.3.8m75.6 2.4 9.5.6.1 6.1c0 3.4-.2 7.8-.4 9.9-.4 3.7-.4 3.7-10.1 3.1-5.3-.3-23.7-.6-40.8-.6H398v-20l31.8.1c17.4.1 36 .4 41.2.8"/><path d="M404.7 732.7c-.4.3-.7 2.4-.7 4.5 0 3.5.2 3.9 2 3.3 1.7-.5 2-.2 2 2.4 0 3.1-1.4 4.2-2.3 1.8-.2-.6-.8-.8-1.3-.4-.9.9.6 3.9 2.4 4.5.6.2 1.8-.8 2.7-2.1 1.9-3 1.1-7.4-1.6-8.2-2.5-.8-2.4-3.5.1-3.5 1.1 0 2-.7 2-1.5 0-1.5-4-2.1-5.3-.8M415 735.6c-1.3 3.4-1.3 7.7.2 10.9 1.4 3.2 3.5 3.2 4.9.1 1.5-3.2.4-7.3-2.1-8.1-2.2-.7-2.6-2-.9-3.1.6-.3 1.5-.1 1.9.6.5.9.9.9 1.4.1 1-1.6-.2-3.1-2.5-3.1-1.2 0-2.3 1-2.9 2.6m4 7.9c0 1.6-.6 2.5-1.5 2.5s-1.5-.9-1.5-2.5.6-2.5 1.5-2.5 1.5.9 1.5 2.5M436.6 734.6c-1.2 3.1-.6 6.4 1.4 7.6 1.1.7 2 2.1 2 3.2 0 1.5-.3 1.6-1.5.6-2.2-1.9-3.2-.3-1.1 1.8 1.6 1.6 1.8 1.6 3.7-.7s2.5-7.4 1.3-11.9c-.7-2.6-4.8-3.1-5.8-.6m3.4 3.4c0 1.6-.4 3-1 3-.5 0-1-1.4-1-3 0-1.7.5-3 1-3 .6 0 1 1.3 1 3M447.2 735.5c-1.3 2.9.2 7.5 2.5 7.5.7 0 1.3.7 1.3 1.6 0 1.1-.6 1.4-2.2.9-1.7-.6-2-.4-1.5 1 .4.9.7 1.9.7 2.1s.8.4 1.8.4c2.4 0 4.2-4 4.2-9.3 0-6.6-4.5-9.3-6.8-4.2m3.8 2.5c0 1.6-.4 3-1 3-.5 0-1-1.4-1-3 0-1.7.5-3 1-3 .6 0 1 1.3 1 3M460 739.4c0 3.5-.3 7.1-.6 8-.4 1.2 0 1.6 1.6 1.6s2-.4 1.6-1.6c-.3-.9-.6-4.5-.6-8 0-3.6-.4-6.4-1-6.4s-1 2.8-1 6.4M468 740.9c0 8.1 0 8.1 3.4 8.1 3.3 0 5.6-2.3 3.6-3.5-.6-.4-1-.1-1 .4 0 .6-.9 1.1-2 1.1-1.5 0-2-.7-2-2.6s.4-2.5 1.5-2c1 .4 1.5-.1 1.5-1.4 0-1.1-.7-2-1.5-2-.9 0-1.5-.9-1.5-2.1 0-1.8.4-2 2.6-1.5 1.9.5 2.5.3 2.2-.6-.3-.7-1.9-1.4-3.6-1.6-3.2-.3-3.2-.3-3.2 7.7M425 741c0 .5 1.6 1 3.5 1s3.5-.5 3.5-1c0-.6-1.6-1-3.5-1s-3.5.4-3.5 1M660.8 730.1c-3.1 1.7-1.9 3 1.2 1.4 1.7-.9 3-1.8 3-2 0-.8-2.4-.5-4.2.6M586 734.5c0 1.9.5 3.5 1 3.5.6 0 1-1.6 1-3.5s-.4-3.5-1-3.5c-.5 0-1 1.6-1 3.5M653 734.5c-1.9 2.3-.9 2.5 2.5.4 2.6-1.7 2.7-1.9.9-1.9-1.2 0-2.7.7-3.4 1.5M351.6 736.5c-1 .8-2.4 1.6-3 1.8s-.8.7-.4 1.1c.8.9 6.8-2.1 6.8-3.4 0-1.4-1.2-1.2-3.4.5M646.3 738.2c-1.3.6-2.3 1.5-2.3 2 0 1.3 1.3.9 4-1.2s1.8-2.5-1.7-.8M682.2 740c0 1.9.2 2.7.5 1.7.2-.9.2-2.5 0-3.5-.3-.9-.5-.1-.5 1.8M242 739.9c0 1.1 3.5 10.1 6.8 17.4 1.6 3.4 2.2 6 1.6 6.5-.5.5-4.4 3.6-8.6 7-7.6 6.2-7.6 6.2-15.8 6.2-5.2 0-7.9.4-7.5 1 .3.5 4.1 1 8.3 1 6.6 0 8.1-.4 10.7-2.5 12.2-9.8 14.4-11.5 15.1-11.5.4 0 1.4.8 2.3 1.8 3.9 4.4 8.3 6.4 14.6 7 3.5.2 7.1.2 8-.2 3-1.1-.1-3.3-5.4-3.9-9.5-1.1-15.9-7.4-21-20.6-1.5-3.9-3.1-7.4-3.5-7.8-1.2-1.1.2 3.3 2.5 8.4 1 2.4 1.9 4.8 1.9 5.4 0 1.5 3.8 6.8 7.3 10.2 3.2 2.9 7.2 5 12.7 6.6 3.5.9 3.5.9.2 1-7.7.2-17.4-5.8-20.9-13-3.3-7-5.4-12.4-6.5-16.4-.7-2.5-1.6-4.5-2-4.5s-.8.4-.8.9M250 739.7c0 .9 4.8 3.3 6.4 3.3 1.5-.1-3.6-4-5.1-4-.7 0-1.3.3-1.3.7M269.7 739.7c-1.1 1.9-1.7 6.3-.8 6.3.5 0 1.1-1.5 1.4-3.3.5-3.3.3-4.5-.6-3M339.5 743.1c-1.6 1-3.4 2.1-4 2.3-.5.2-.7.6-.4 1 .7.7 8.9-3.5 8.9-4.7 0-1.1-1.2-.7-4.5 1.4M281 744.5c0 1.4.5 2.5 1 2.5.6 0 1-1.1 1-2.5s-.4-2.5-1-2.5c-.5 0-1 1.1-1 2.5M638.4 743c-2.3.9-4.1 3-2.7 3 .4 0 2.2-.9 3.8-2 3.1-2.1 2.6-2.5-1.1-1M586 746c0 1.6.5 3 1 3 .6 0 1-1.4 1-3 0-1.7-.4-3-1-3-.5 0-1 1.3-1 3M261.1 745.4c-.7.8-.8 1.7-.3 2 .6.3 1.3-.1 1.6-1 .9-2.3.2-2.8-1.3-1M681.8 748.6c-.2 1.9 0 3.7.4 4s.8-1.3.8-3.5c0-5.1-.6-5.3-1.2-.5M629.9 747.9c-1.3 1.1-1.9 2-1.3 2.1 1.5 0 5-2.7 4.3-3.4-.3-.4-1.7.2-3 1.3M264 747.8c0 .5 1.6 1.6 3.5 2.5 4.2 2 4.7.4.5-1.8-3.3-1.7-4-1.8-4-.7M329.1 750.6c-1.1 1.5-2.1 3.4-2.1 4.3s1.1-.1 2.6-2.2c3-4.5 2.6-6.1-.5-2.1M281.5 751.3c-.4 1-.5 2.1-.1 2.4 1 1 1.8-.4 1.3-2.4-.4-1.7-.4-1.7-1.2 0M298.4 752.6c-6 3-8.9 5.2-8.1 6 .3.3 1.6-.1 2.9-1 3.4-2.4 10.8-1.9 10.8.7 0 .6.7 1.9 1.7 2.9 1.5 1.7 1.5 1.8 0 1.8-1 0-1.7-.5-1.7-1.1 0-1.2-5.9-.3-7.4 1.1-.5.5-1.5.6-2.2.3-2.6-1-1.4.4 2.7 3.1 2.2 1.5 4.3 2.5 4.6 2.2.7-.7-2.3-3.6-3.7-3.6-.6 0-.8-.5-.5-1 .4-.6 1.1-.7 1.7-.4 2.3 1.4 7.4 1.3 10.4-.3 3-1.5 3.4-1.5 7 .4 2.2 1.1 4.5 3.1 5.1 4.5 2.4 4.8 3.7 5.2 8.2 2.3 4.6-2.8 5.1-4.4 2.1-6.3-2.2-1.3-2.7-.3-.8 1.6.9.9.9 1.5 0 2.4-1.7 1.7-2.4.6-2.9-4.7-.6-5.3-2.3-6.1-2.3-1.1 0 1.9-.3 4.1-.6 5-.4 1.1-.1 1.6 1.1 1.6.9 0 1.3.4 1 1-.3.5-1.3 1-2 1-1.9 0-3.2-5-1.6-5.9 1.8-1.1.4-3.6-3.2-5.5-1.8-.9-5-3-7.2-4.6-6.3-4.8-9.4-5.2-15.1-2.4m12.1 2.1c3.7 1.8 4.3 3.1 2.3 5.1-2.2 2.2-5.6 1.4-7.5-1.8-.9-1.7-2.3-3-3-3-.6 0-1.5-.5-1.8-1-1-1.6 6.1-1.2 10 .7m10 6.8c1.7 1.3 2.5 2.4 1.8 2.5-2.1 0-8.2-3.3-7.7-4.2.9-1.4 2.8-.9 5.9 1.7"/><path d="M308.6 756.7c-1.1 1.1-.6 2.3.9 2.3.8 0 1.5-.4 1.5-.9 0-1.3-1.6-2.2-2.4-1.4M274 752.5c0 .8.4 1.5 1 1.5.5 0 .7.6.4 1.4-.4 1.1.2 1.4 2.5 1.4 3.5-.1 4.1-1.3 1.1-2.1-1.1-.3-2-1.2-2-2.1s-.7-1.6-1.5-1.6-1.5.7-1.5 1.5M621.8 752.6c-1.6.8-2.8 1.7-2.8 1.9 0 1.1 2.7.3 5-1.5 2.9-2.3 1.7-2.6-2.2-.4M586 756.5c0 1.9.5 3.5 1 3.5.6 0 1-1.6 1-3.5s-.4-3.5-1-3.5c-.5 0-1 1.6-1 3.5M681.7 754.7c-.9 1.5-.5 12.3.4 12.3.5 0 .9-2.9.9-6.5 0-6.1-.3-7.5-1.3-5.8M127.7 755.6c-.9 1-.9 44.2.1 44.7.4.3 20.4.8 44.5 1.2l43.7.8.2-18.9c.1-10.4.2-20.7.2-22.9 0-4 0-4-6.4-4.6-9.5-.9-81.5-1.1-82.3-.3m80.3 1.8 5.5.2.3 21.4.2 21.3-26.7-.6c-14.8-.4-33.9-.7-42.7-.7h-15.8l.5-21.3c.4-11.6.6-21.3.7-21.4 0-.2 70.9.7 78 1.1"/><path d="M137.7 758.6c-1.4 1.4-.6 2.4 1.9 2.4 1.6 0 2.4-.5 2.2-1.3-.5-1.4-3.1-2.1-4.1-1.1M149.3 758.7c-.7.3-1.3 1.4-1.3 2.6 0 2 0 2 1.4.1 2.5-3.4 3 .8.7 5.7-2.8 5.8-2.7 7.1.6 6.7 3.2-.4 4.4-2.8 1.4-2.8-2.4 0-2.5-.6-.6-4 2.6-4.5 1.2-9.5-2.2-8.3M169.3 760.5c-.3.9-.3 1.9.1 2.2.3.4.6.1.6-.5 0-.7.7-1.2 1.5-1.2 1.6 0 1.6 1-.2 10.4-.3 1.7-.1 2.6.5 2.3.5-.4 1.2-3 1.5-5.9s.8-6.1 1.2-7.1c.6-1.3.2-1.7-1.9-1.7-1.5 0-2.9.7-3.3 1.5M181.8 766.6c-.2 5.6.1 7.8 1 8.2.7.2 1.4.3 1.5.1.6-1.1-.6-15.9-1.3-15.9-.5 0-1 3.4-1.2 7.6M190.9 762.9c-1.6 5.2.2 12.4 2.9 11.9 2.4-.4 3.8-6.8 2.6-11.5-1.3-5.4-3.9-5.5-5.5-.4m3.9 4.7c-.2 2.7-.7 4.9-1.3 4.9-1.1 0-1.9-7.9-1-10.3 1.1-3 2.6.5 2.3 5.4M137 764.9c0 .5.9 1.1 2.1 1.4 3.2.9 2.2 5.3-1.1 4.9-2.3-.2-2.3-.1-.9 1.3 3 3 5.7 0 4.9-5.5-.3-2.4-5-4.4-5-2.1M159.5 767c2.8 1.2 4.5 1.2 4.5 0 0-.6-1.5-1-3.2-.9-2.8 0-3 .2-1.3.9M137 781.5c0 1.1.7 1.5 2.3 1.3 1.2-.2 2.2-.8 2.2-1.3 0-.6-1-1.1-2.2-1.3-1.6-.2-2.3.2-2.3 1.3M149.4 780.8c-.6.4-1.4 1.8-1.8 3.2-.6 2.3-.6 2.3.7.7 3.2-4 3.7-.1.7 6.4-1.9 4.4-1.9 4.4.3 5 2.7.7 3.7.3 3.7-1.6 0-.9-.6-1.2-1.5-.9-1.9.8-1.9-1.3 0-4.6.8-1.4 1.4-3.2 1.5-4.1 0-2.2-2.3-5-3.6-4.1M169 783.2c0 1.8.2 2 1 .8 1.7-2.8 3.1.2 1.9 4.3-.6 2.1-.9 5-.7 6.5.2 1.8.8.5 1.6-4 .7-3.7 1.5-7.5 1.8-8.3.5-1.1-.1-1.5-2.5-1.5-2.6 0-3.1.4-3.1 2.2M180.4 782.4c-.3.8-.4 2.3-.1 3.3.4 1.6.6 1.5 1.2-.5.4-1.2 1.1-2.2 1.6-2.2 1.6 0 .9 4.9-1.1 8.2-2.8 4.5-2.5 5.8 1 5.8 2.4 0 3-.4 3-2.1 0-1.8-.2-1.9-1.5-.9-2.5 2.1-2.7.6-.6-4 1.2-2.8 1.6-5 1.1-6.4-.9-2.6-3.8-3.3-4.6-1.2M191.2 783.5c-2.3 4.9-.7 13.5 2.5 13.5 2.9 0 4.3-8.5 2-12.9q-2.55-5.1-4.5-.6m3.6 6c-.4 7-2.8 7.2-2.8.2 0-2.9.3-5.7.7-6 1.4-1.5 2.4 1.2 2.1 5.8M136.2 786.8c.2.9 1.2 1.7 2.3 1.7 1.5 0 2 .7 2 2.5 0 2-.5 2.5-2.2 2.3-1.3-.2-2.3.1-2.3.7 0 1.5 1.9 2.2 4 1.5 1.5-.5 2-1.5 2-4 0-2.7-.6-3.6-3.1-4.9-2.8-1.4-3-1.4-2.7.2M158 789c0 .5 1.4 1 3 1 1.7 0 3-.5 3-1 0-.6-1.3-1-3-1-1.6 0-3 .4-3 1M612.9 758c-1.3 1-1.9 1.9-1.3 2 .7 0 2.2-.9 3.5-2 1.3-1 1.9-1.9 1.3-2-.7 0-2.2.9-3.5 2M284.6 759.5c1.8 1.4 1.7 1.5-1.8 1.9-1.6.1-2.4 5.6-.9 5.6.6 0 1.1-.8 1.1-1.8 0-2.3 3.2-4.2 6.1-3.5 2.2.4 2.1.3-.6-1.6-3.5-2.4-7.1-3-3.9-.6M605.8 761.8c-3.8 2.3-3.6 3.6.2 1.7 1.7-.9 3-2 3-2.5 0-1.3 0-1.3-3.2.8M586 765.9c0 3.4 3.3 6.3 5.9 5.3 1.2-.5 1.1-.7-.9-1.2-1.9-.4-2.6-1.3-2.8-3.8-.4-4-2.2-4.2-2.2-.3M287.7 766.7c-1.6.8-2.6 1.7-2.3 2 .7.8 6.6-1.7 6.6-2.8 0-1.2-.9-1-4.3.8M596.8 766.8c-4 2.4-3.4 3.5.7 1.5 1.9-.9 3.5-2 3.5-2.5 0-1.1-1.1-.9-4.2 1M288.8 769.1c-4.7 2.4-4.9 3.1-.5 1.7 1.7-.5 4-1.2 5-1.5 1.9-.6 2.3-2.4.5-2.2-.7.1-3 1-5 2M305.5 770.9c.7 1.2 6.7 4.2 7.2 3.7.4-.4-6-4.6-7.1-4.6-.4 0-.5.4-.1.9M281 773.5c0 1.4.5 2.5 1 2.5.6 0 1-1.1 1-2.5s-.4-2.5-1-2.5c-.5 0-1 1.1-1 2.5M681 776c0 1.6.5 3 1 3 .6 0 1-1.4 1-3 0-1.7-.4-3-1-3-.5 0-1 1.3-1 3M326 778c0 1.6.5 3 1 3 .6 0 1-1.4 1-3 0-1.7-.4-3-1-3-.5 0-1 1.3-1 3M317 777.5c0 .7 6.1 3.7 6.7 3.2.2-.3-1-1.2-2.8-2.1-3.5-1.7-3.9-1.9-3.9-1.1M281 783.6c0 2.1.3 3.4.7 3.1 1-1.1 1.2-5.6.2-6.2-.5-.4-.9 1.1-.9 3.1M327.5 783.9c.3.5.1 1.2-.5 1.6-1.3.8-1.3 8.5 0 8.5.6 0 1-2.1 1-4.6 0-3.3.4-4.5 1.3-4.1.6.3 2 .8 3 1.2 2.8 1.2 1.9-.9-1-2.3-3.2-1.4-4.6-1.6-3.8-.3M681 786.6c0 2.1.4 3.3 1 2.9.6-.3 1-1.9 1-3.6 0-1.6-.4-2.9-1-2.9-.5 0-1 1.6-1 3.6M343.3 787.5c-1.9 1.5-3.4 2.1-3.8 1.5-.3-.5-1.4-1-2.3-.9-1.3 0-1.1.3.6 1.1 1.5.8 2.1 1.6 1.6 2.7-1.4 3.3-1.5 6.7-.2 7.7.7.6 3.2 1.6 5.6 2.3l4.2 1.2v22.1c0 14.6-.3 21.9-1 21.2-.5-.5-2.5-3.4-4.3-6.4-1.9-3-5.2-8.5-7.4-12.1-4-6.4-4.1-6.7-3-11.3 1.3-5.8-.1-7.6-6.5-8.3-5.3-.6-8.4 1.6-7.3 5.1.4 1.2.8 2.9.9 3.9.4 3 3.3 5 7 4.9 3.2-.1 3.8.3 6.3 4.6 1.5 2.6 5.5 9.1 9 14.4 6.3 9.7 6.3 9.7 6.3 18.8 0 5.8.4 8.9 1 8.5s1-12.8 1-34c0-19.7.4-33.6.9-34 1.4-.8 4.1-6.6 3.6-7.5-1.5-2.5-7-8-7.9-8-.6 0-2.5 1.2-4.3 2.5m1.8 2.2c-2.4 2.1-3.3 3.7-3.3 6-.1 4.1-1.8 4.4-1.8.4 0-3.3 4.3-9.1 6.8-9.1 1.1 0 .6.9-1.7 2.7m4.9-.2c0 .9-4.3 5.5-5.2 5.5-1.7 0-.7-3.2 1.2-3.7 1.1-.3 2-.9 2-1.4s.5-.9 1-.9c.6 0 1 .2 1 .5m3.6 3.7c.5.8.2.9-1.1.5-.9-.4-2.4-.2-3.1.4-1.7 1.4-1.8 4.6-.1 5.2.6.2.9.8.5 1.2-1 1.1-3.8-.2-3.8-1.8 0-2 3.9-6.7 5.5-6.7.8 0 1.7.5 2.1 1.2m-1.6 2.7c0 1.2-2 2.5-2.7 1.8s.6-2.7 1.8-2.7c.5 0 .9.4.9.9m-7 2.2c0 .5-.4.9-1 .9-.5 0-1-.7-1-1.6 0-.8.5-1.2 1-.9.6.3 1 1 1 1.6m-21.5 13.1c-.8 2.1 1.1 4 3.6 3.6 1.7-.2 2.4-.9 2.3-2.4 0-1.4.4-2 1.3-1.7 2.2.8 1.5 4.3-1.1 5.4-4.5 2.1-12.4-2.7-8.6-5.1 2.1-1.3 3-1.2 2.5.2m4.2 1.4c-.3.3-1.2.4-1.9.1-.8-.3-.5-.6.6-.6 1.1-.1 1.7.2 1.3.5m-5 6.1c-.4.3-.7 0-.7-.7s.3-1 .7-.7c.3.4.3 1 0 1.4m5.3.8c0 .8-.7 1.5-1.5 1.5s-1.5-.7-1.5-1.5.7-1.5 1.5-1.5 1.5.7 1.5 1.5m2.7.2c-.4.3-.7 0-.7-.7s.3-1 .7-.7c.3.4.3 1 0 1.4M281.1 793.7c0 2.5.1 2.6.9.8 1.2-2.7 1.2-3.5 0-3.5-.5 0-1 1.2-.9 2.7M681 795.4c0 2 .5 3.6 1 3.6.6 0 1-1.3 1-2.9 0-1.7-.4-3.3-1-3.6-.6-.4-1 .8-1 2.9"/><path d="M326 802c0 2.2.5 4 1 4 .6 0 1-1.8 1-4s-.4-4-1-4c-.5 0-1 1.8-1 4M281 800.1c0 .5.5.7 1 .4.6-.3 1-.8 1-1.1 0-.2-.4-.4-1-.4-.5 0-1 .5-1 1.1M681 804.5c0 1.4.5 2.5 1 2.5.6 0 1-1.1 1-2.5s-.4-2.5-1-2.5c-.5 0-1 1.1-1 2.5M279.2 804.2c-.6.6-1.2 1.9-1.2 2.8s-.9 2.5-2 3.5c-1.3 1.1-2 3.1-2 5.3 0 3.4 0 3.4-12.7 3.1-18.4-.6-17.8 1.4.7 2.3 8 .3 16.7 1 19.3 1.3 3.8.6 5.2.4 6.8-1 2.4-2.3 2.5-6.9 0-10.4-1-1.4-2.1-3.7-2.2-5.1-.4-2.8-4.5-4-6.7-1.8m4.3.8c.3.5-.1 1-.9 1-.9 0-1.6-.5-1.6-1 0-.6.4-1 .9-1 .6 0 1.3.4 1.6 1m-.5 3c1.2.8 1.1 1-.7 1-1.3 0-2.3-.5-2.3-1 0-1.3 1.1-1.3 3 0m2.4 3.1c-.7 1.2-4.5 1.1-6.4-.1-1-.6-.2-.9 2.8-.8 2.3 0 3.9.4 3.6.9m-3.6 3.6c1.2.3 2.9 0 3.7-.7 1.9-1.6 2.8-.9 1.9 1.4-1.1 2.8-11.4 1.8-11.4-1.1 0-1.1.5-1.3 1.8-.8.9.4 2.7 1 4 1.2m1.7 4c4.2-.6 5.9.3 3.4 1.8-3.1 2-10.9 0-10.9-2.7 0-.6.7-.5 1.5.2 1 .8 3.1 1.1 6 .7"/><path d="M154.7 806.5c-.4.9-.7 6.3-.7 12 0 9.8.1 10.3 2.3 10.9 1.2.3 15 .8 30.7 1.1s34.9.7 42.7 1c7.8.2 14.4.1 14.7-.3s.7-6 1-12.4l.6-11.5-13.7-.7c-7.6-.3-28-.9-45.4-1.2-29.2-.6-31.6-.5-32.2 1.1m56.4 2.1 31.7.6-.3 9.7-.3 9.6-11.3.3c-6.3.2-25.5 0-42.6-.3l-31.3-.7v-9.7c0-5.4.3-10.1.7-10.4.3-.4 5.4-.5 11.2-.2s24.8.8 42.2 1.1"/><path d="M164.7 809.6c-.4.4-.7 2.5-.7 4.6 0 3.5.2 3.9 2 3.3 1.7-.5 2-.2 2 2.4 0 3.3-.8 3.9-2.8 1.9-.9-.9-1.2-.7-1.2.9 0 2.7 2.5 3.6 4.5 1.6 2.3-2.3 1.6-7.6-1.2-8.8-1.3-.5-2.3-1.5-2.3-2.2 0-.6 1-1.3 2.3-1.5 1.2-.2 2.2-.8 2.2-1.3 0-1.2-3.8-1.9-4.8-.9M176.6 810.8c-3.9 4.4-1.2 18.3 2.8 14.2 2.9-3 2.4-7.7-.9-9.2-3-1.3-2.7-3.4.4-3.1 2.4.3 2.8-.9.8-2.6-1.1-.8-1.8-.7-3.1.7m2.9 8.3c.8 2.3-.7 4.5-2.4 3.5-1.2-.8-1.5-3.9-.4-4.9 1.2-1.2 2.2-.7 2.8 1.4M198.4 811.1c-.3.6-.8 3.7-1 6.9-.4 6.4 1 8.7 4.5 7.5 1.7-.5 2-1.5 1.9-6.8 0-3.4-.5-6.8-1-7.5-1.3-1.5-3.5-1.6-4.4-.1m3.6 3.5c0 2.6-1.7 3.3-2.6.9-.8-2 .3-4.8 1.6-4 .5.3 1 1.7 1 3.1m.4 5.3c.9 1.4-.4 4.1-1.9 4.1s-2.4-1.9-1.7-3.8c.5-1.4 2.8-1.6 3.6-.3M209 812.6c-1.6 4-1.2 10 .8 12.4 1.7 2.1 1.9 2.1 3.2.5 2-2.4 2-13.3 0-14.5-2.3-1.5-3-1.2-4 1.6m4 4.4c0 4.4-.8 7-2.1 7-1 0-1.2-10.3-.3-11.3 1.4-1.3 2.4.6 2.4 4.3M221.8 817c.3 3.6 0 6.5-.7 7.3-1.2 1.5-.5 2.7 1.6 2.7 1 0 1.3-2 1.3-8 0-5.9-.3-8-1.3-8s-1.2 1.5-.9 6M186 818c0 .5 1.6 1 3.6 1 2.1 0 3.3-.4 2.9-1-.3-.6-1.9-1-3.6-1-1.6 0-2.9.4-2.9 1M681 813c0 1.8.4 2.9 1 2.5.6-.3 1-1.5 1-2.5s-.4-2.2-1-2.5c-.6-.4-1 .7-1 2.5M681 822.5c0 2.2.4 3.4 1 3 .6-.3 1-1.7 1-3s-.4-2.7-1-3c-.6-.4-1 .8-1 3M681 831.9c0 1.7.5 3.1 1 3.1.6 0 1-1.1 1-2.4 0-1.4-.4-2.8-1-3.1-.6-.4-1 .7-1 2.4M712.3 829.7c-2.2.4-2.3.8-2.3 11.9 0 8.3.3 11.6 1.3 11.9.6.2 20.4.6 44 1l42.7.6V843c0-8.8-.3-12.2-1.2-12.5-1.8-.5-81.7-1.3-84.5-.8m83.2 12.7v10l-40.5-.3c-22.2-.1-40.8-.5-41.2-.7-.5-.3-.8-4.8-.8-10v-9.5l41.3.3 41.2.3z"/><path d="M720.2 834.2c-.6.6-1.2 2.7-1.2 4.6 0 2.9.3 3.3 2.3 3 1.8-.2 2.2.2 2.2 2.2s-.5 2.5-2.2 2.3c-1.6-.2-2.1.1-1.6 1.3.9 2.5 4.6 1.2 5.8-2 .8-2.5.6-3.1-1.8-5.2-2.8-2.4-2.9-4.4-.1-4.4 1.9 0 1.3-2.4-.7-2.8-.8-.1-2 .3-2.7 1M731.7 834.1c-2.6 1.5-2.5 13.4.2 14.8 2.6 1.4 4.3-.8 3.9-5.1-.2-2.1-1-3.6-2.5-4.3-2.5-1.3-1.6-3.9 1-2.9 2 .7 2.3-.9.4-2.4-.8-.7-1.8-.7-3-.1m2.3 9.9c0 1.6-.4 3-1 3-.5 0-1-1.4-1-3 0-1.7.5-3 1-3 .6 0 1 1.3 1 3M751.6 836.2c-.2 1.3-.5 3.4-.5 4.8s-.1 3.4-.1 4.4c-.1 3 2.7 5.3 4.8 4 1.3-.8 1.7-2.5 1.7-6.5 0-3-.3-6.2-.8-7.2-1.1-2.5-4.6-2.2-5.1.5m3.9.8c.7 2.3-.2 4.3-1.6 3.5-1.2-.8-1.2-5.5 0-5.5.5 0 1.2.9 1.6 2m.5 7.8c0 2.6-1.1 3.4-2.7 2.1-2-1.7-1.6-3.9.7-3.9 1.3 0 2 .7 2 1.8M762.5 835.2c-.2.7-.6 3.6-.9 6.5-.5 3.9-.3 5.5.9 6.7 2.7 2.7 5.5 1.4 5.5-2.5v-6.3c.1-3.8-1.1-5.6-3.8-5.6-.7 0-1.4.6-1.7 1.2m3.5 3.3c0 1.4-.4 2.5-1 2.5-.5 0-1-1.1-1-2.5s.5-2.5 1-2.5c.6 0 1 1.1 1 2.5m.8 6.7c-.2 1.3-1 2.3-1.8 2.3s-1.6-1-1.8-2.3c-.3-1.7.2-2.2 1.8-2.2s2.1.5 1.8 2.2M772.9 836.7c-1.3 3.4-.6 10.1 1.3 11.9 2.6 2.6 4.3 0 4.3-6.6 0-4.3-.4-6.3-1.5-7-2.3-1.5-3-1.2-4.1 1.7m4.1 5.4c0 3.7-.4 4.9-1.5 4.9s-1.5-1.2-1.5-4.8c0-2.7.3-5.2.6-5.5 1.5-1.4 2.4.7 2.4 5.4M740 842c0 .5 1.6 1 3.5 1s3.5-.5 3.5-1c0-.6-1.6-1-3.5-1s-3.5.4-3.5 1M680.8 840.2c-.2.5-2.8 1.1-5.8 1.2-7.8.2-11.6 2.6-14.5 9.1-1.4 2.9-2.5 5.8-2.5 6.4 0 .5 1.4 1.8 3 2.8 1.7.9 3 2.3 3 3 0 1.1 9.4 7.3 11.1 7.3 1.3 0 5.9-7.7 5.9-9.8 0-1.2 1.9-4.9 4.1-8.2l4.2-6h9.3c5.6 0 9.4-.4 9.4-1s-3.7-1-9.1-1c-7.7 0-9.6-.4-13.4-2.4-2.5-1.5-4.5-2-4.7-1.4m-8.3 3.8c.3.5-.3 1-1.4 1-1.2 0-2.1-.5-2.1-1 0-.6.6-1 1.4-1s1.8.4 2.1 1m7.7.2c-1.9 1.9-1.4 2.8 1.4 2.8 2.2 0 2.5-.4 2.1-2.1-.4-1.5-.1-1.9 1.1-1.7 2.6.5 2.5 3-.2 6.7-2.5 3.4-2.5 3.4-3.5.8-.6-1.4-1.9-3.1-3-3.6-2.9-1.6-3.9-1.3-1.7.4 1.8 1.3 1.8 1.5.3 1.5-1 0-2-.7-2.3-1.5-.9-2.2 1.4-4.5 4.4-4.5 2 0 2.3.3 1.4 1.2m-10.4 2.6c.2.7-.6 1.2-1.7 1.2-2.1 0-2.7-1.1-1.4-2.4.9-.9 2.6-.2 3.1 1.2m-5.8.7c0 .3-.2.5-.5.5s-.5-.2-.5-.5.2-.5.5-.5.5.2.5.5m10 3c0 .8-.6 1.5-1.4 1.5-1.7 0-2.8-1.4-1.9-2.4 1.2-1.2 3.3-.6 3.3.9m-3.4 2.3c3.9 2.5 4.3 3 3 4.2-2.3 1.8-10.3 2.5-12.1 1-2.2-1.8-1.8-4.6.7-6.4 2.9-2.1 3.1-2.1 8.4 1.2m8.9-.8c-.3.5-1.3 1-2.1 1s-1.4-.5-1.4-1c0-.6.9-1 2.1-1 1.1 0 1.7.4 1.4 1m-.8 4.7c-.4.3-1 .3-1.4 0-.3-.4 0-.7.7-.7s1 .3.7.7M675 861c-1.3 2.4-2.3 2.5-3.9.6-1.3-1.5-.2-2.4 3.2-2.5 1.5-.1 1.6.2.7 1.9m4-.1c0 1-.8 2.9-1.8 4.1-2.1 2.6-5.4 2.3-9.3-.9-3.4-2.8-1.8-3.6 2.4-1.1 3.2 1.9 3.6 1.9 5.1.5.9-.9 1.6-2.3 1.6-3.1s.5-1.4 1-1.4c.6 0 1 .9 1 1.9"/><path d="M663.7 853.6c-1.6 1.6-.6 3.5 1.6 3.2 1.2-.2 2.2-1 2.2-1.8 0-1.6-2.6-2.5-3.8-1.4M682 859c0 1.1.5 2 1 2 .6 0 1-.9 1-2s-.4-2-1-2c-.5 0-1 .9-1 2M682 864.9c0 .6.5 1.3 1 1.6.6.3 1-.1 1-.9 0-.9-.4-1.6-1-1.6-.5 0-1 .4-1 .9M681.2 869.3c-.6.6-1.3 2.9-1.7 4.9-.4 2.1-1.1 3.8-1.6 3.8-.4 0-1.3.9-1.9 1.9-1.4 2.6 1.3 8.8 4.5 10.3s8.5-.6 8.5-3.4c0-1.1.4-2.8 1-3.8.7-1.4.6-2.3-.5-3.4-.8-.8-1.5-1.7-1.5-2s5-.6 11-.6c6.7 0 11-.4 11-1s-4.6-1-11.9-1c-11.9 0-11.9 0-13.1-3-1.5-3.7-2.5-4.4-3.8-2.7m2.8 4.1c0 1.1-1.9 1.5-2.5.6-.3-.5.1-1 .9-1 .9 0 1.6.2 1.6.4m0 3c0 1.1-1.9 1.5-2.5.6-.3-.5.1-1 .9-1 .9 0 1.6.2 1.6.4m0 3.6c0 .5-.7 1-1.5 1s-1.5-.5-1.5-1c0-.6.7-1 1.5-1s1.5.4 1.5 1m4.5 1.6c0 4.1-10.5 4.3-11.3.1-.4-2.1 1.4-2.2 3.4-.2 1.2 1.1 2 1.2 3.5.5 1-.6 1.9-1.5 1.9-2.1s.6-.9 1.3-.7c.6.3 1.2 1.3 1.2 2.4m-4.5 5.9c0 .8-.7 1.5-1.5 1.5s-1.5-.7-1.5-1.5.7-1.5 1.5-1.5 1.5.7 1.5 1.5m3.7-.8c-.4.3-1 .3-1.4 0-.3-.4 0-.7.7-.7s1 .3.7.7M668 871.6c0 1.4.4 2.3 1 1.9.6-.3 1-1.5 1-2.6 0-1-.4-1.9-1-1.9-.5 0-1 1.2-1 2.6M712.5 870.9c-.8 2.5.3 4.9 2.6 5.6 1 .4 1.9 1 1.9 1.5 0 1.6-2.1 2.2-3.5 1-1.2-1-1.5-.9-1.5.4 0 .9.2 1.6.4 1.6s1.1.3 1.9.6c3.4 1.3 6.1-5.9 4.1-11-.9-2.2-5.1-2-5.9.3m4.5 2.2c0 1-.7 1.9-1.5 1.9-1.5 0-2.1-3.1-.9-4.3 1.1-1 2.4.3 2.4 2.4M722.2 870.2c-2.7 2.7-.6 11.8 2.7 11.8 2 0 3.2-3.2 2.9-7.7-.2-3.9-.7-4.9-2.3-5.1-1.1-.1-2.6.3-3.3 1m3.8 4.9c0 2.8-.4 3.9-1.2 3.7-2.4-.8-2.2-7.8.2-7.8.5 0 1 1.8 1 4.1M731 870c0 .5.9 1 2 1 2.4 0 2.4-.2.4 4.5-1.5 3.8-1.2 7.1.6 6 .5-.3 1-1.7 1-3.1s.7-3.8 1.5-5.3c.8-1.6 1.1-3.1.8-3.5-1-1-6.3-.7-6.3.4M741.3 870.2c-1.6 2.4-1 10 1 11.2 1.5.9 2.2.7 3.8-1.3 1.5-1.8 1.7-2.7.8-3.7-.8-1-.8-1.8-.1-2.7.7-.8.7-1.7-.2-3-1.5-2-4-2.2-5.3-.5m3.7 2.4c0 1.7-2.2 1.4-2.8-.4-.2-.7.3-1.2 1.2-1.2s1.6.7 1.6 1.6m0 4.8c0 .8-.4 1.7-.9 2.1-1.2.7-2.4-1.2-1.6-2.5.9-1.5 2.5-1.2 2.5.4M750.6 870.6c-1.3 3.3-.6 10.2 1 10.8 2.6 1 3.4.7 4.3-1.7 1-2.6-.3-5.7-2.4-5.7-.8 0-1.5-.7-1.5-1.6 0-1.1.6-1.5 2-1.1 1.3.3 2 0 2-.9 0-1.9-4.6-1.8-5.4.2m3.9 7.4c0 .7-.6 1.5-1.2 1.7-.8.3-1.3-.4-1.3-1.7s.5-2 1.3-1.8c.6.3 1.2 1.1 1.2 1.8M770.3 870.2c-1.6 2.1-2.4 7.8-1.3 9.9 2.3 4.3 7 1.5 7-4.1-.1-5.4-3.4-8.8-5.7-5.8m3.2 5.4c0 2.8-.4 3.9-1.5 3.9-1.5 0-2.2-4.4-1.2-7.3.9-2.6 2.7-.4 2.7 3.4M779 870.9c-1.6 3.1-1.2 8.6.8 10.4 2.4 2.2 2.9 2.1 4.2-.3 1.5-2.8.3-6-2.1-6-1.4 0-1.9-.5-1.7-1.8.2-1.1 1.1-1.6 2.6-1.4 1.6.2 2-.1 1.6-1.2-.9-2.2-4.1-2-5.4.3m3.6 8.7c-.5 1.3-1 1.4-1.8.6-.6-.6-.8-1.8-.4-2.8.5-1.3 1-1.4 1.8-.6.6.6.8 1.8.4 2.8M798.5 870.6c-2.2 2.2-1.7 10.3.7 11.8 1.4.8 2.1.7 3.4-.6 2.2-2.2 1.1-6.8-1.6-6.8-1.1 0-2-.6-2-1.4 0-2.1 2.1-3.1 3.1-1.5.4.7 1.1 1 1.5.6.7-.7-1.4-3.7-2.7-3.7-.4 0-1.5.7-2.4 1.6m3.1 9c-.5 1.3-1 1.4-1.8.6-.6-.6-.8-1.8-.4-2.8.5-1.3 1-1.4 1.8-.6.6.6.8 1.8.4 2.8M789.3 871.6c-.3.9 0 1.9.6 2.4.7.4 1.2 2.3 1.1 4.1-.3 5.5.3 5.8.9.4.7-5.6.3-8.5-1-8.5-.6 0-1.2.7-1.6 1.6M307.2 874.2c-.7.7-1.2 2-1.2 2.9 0 2.1 2.6 4.3 4 3.4.5-.3 1-.2 1 .4 0 1.7-2 2.3-3.5 1.1-1-.8-1.5-.9-1.5-.2 0 .6.8 1.6 1.9 2.1 1.4.8 2.2.6 3.5-.8 2.9-3.2 1.6-10.1-1.9-10.1-.6 0-1.6.5-2.3 1.2m4.1 1.4c.9 1-.4 3.4-1.9 3.4-.8 0-1.4-.9-1.4-2 0-1.9 1.9-2.7 3.3-1.4M315.2 874.2c-2.7 2.7 0 7.7 3.4 6.4 1-.4 1.4-.2 1.1.6-.2.7-1.4 1.3-2.6 1.2-2-.1-2.1.1-.6 1.5 1.5 1.5 1.8 1.4 3.6-.8 2.1-2.6 2.4-5.3.9-8.2-1.2-2.1-4-2.5-5.8-.7m4.8 2.8c0 1.3-.7 2-2 2s-2-.7-2-2 .7-2 2-2 2 .7 2 2M324.6 874.3c-2.3 1.7-1.7 4.9 1.2 6.2 3.1 1.4 2.8 2.9-.5 2-2.7-.6-2.7-.6-1 1.2 1.3 1.4 2.1 1.5 3.5.7 2.1-1.3 2.8-7.9 1.1-10-1.4-1.7-2-1.8-4.3-.1m3.7 2.1c.7 1.6-.1 2.6-2 2.6-.7 0-1.3-.9-1.3-2 0-2.3 2.5-2.7 3.3-.6M334.1 876.9c-2.6 3.7-2.7 5.1-.1 5.1 1.1 0 2 .4 2 1 0 .5.5 1 1 1 1.3 0 1.3-8.7.1-9.5-.5-.3-1.9.8-3 2.4m1.5 3.8c-1.1 1.1-1.9-.6-1.1-2.4.8-1.7.8-1.7 1.2 0 .3 1 .2 2.1-.1 2.4M341 875.9c-1.4 2.6-1.3 6.4.2 7.9 1.8 1.8 4.6 1.4 5.8-.7.6-1.2 1.7-1.7 2.9-1.4 1 .3 2.2 0 2.5-.6.5-.7-.2-1.1-1.6-1.1-1.7 0-2.7-.8-3.5-3-1.3-3.5-4.7-4.1-6.3-1.1m4.8 3.4c.3 3.2 0 3.7-1.7 3.7s-2.1-.6-2.1-3.3c0-6.1 3.3-6.3 3.8-.4M355.7 875.1c-2.5 1.4-2.3 8.5.2 9.9 1.5.7 2.3.6 3.5-.6.9-.8 1.6-1.9 1.6-2.4s1.1.2 2.5 1.6c2 2 2.8 2.3 4.5 1.4 3.5-1.9 1.9-7-2.3-7-1 0-1.5-.5-1.2-1 .3-.6 1.7-.7 3.1-.4 2.9.7 3.2-.1.4-1.6-1.6-.8-2.4-.6-4.2 1.2-1.4 1.4-2.3 1.8-2.6 1-.6-2-3.6-3.1-5.5-2.1m4.1 3.7c.4 2.3-1.3 5.2-2.9 5.2-.5 0-.9-1.8-.9-4.1 0-3.3.3-4 1.8-3.7.9.2 1.8 1.4 2 2.6m8.2 2.6c0 .8-.5 1.8-1.1 2.2-1.4.8-3.3-1.1-2.5-2.5 1-1.6 3.6-1.3 3.6.3M371.4 877.4c-1.3 5.3 1.4 9.4 5.1 7.9 1.2-.4 1.5-1.7 1.3-5.2-.3-4.2-.6-4.6-3-4.9-2.2-.3-2.9.2-3.4 2.2m5.1 2.7c0 2.4-.5 3.4-1.5 3.4-1.6 0-2.5-3.7-1.6-6.2 1-2.6 3.1-.8 3.1 2.8M380.3 876.5c-.3.9-.3 1.9.1 2.2.3.4.6.1.6-.5 0-.7.9-1.2 2-1.2 2.4 0 2.6 1.4.5 3.2-3.8 3.2-4.5 4-4 4.9.4.5 2 .9 3.6.9 1.8 0 2.8-.4 2.4-1-.3-.6-1.6-1-2.8-1-2.1 0-2.1-.1.3-1.7 3.5-2.3 4-3.4 2.9-5.5-1.2-2.2-4.7-2.4-5.6-.3M760.5 876c-.4.6.7 1 2.5 1s2.9-.4 2.5-1c-.3-.6-1.5-1-2.5-1s-2.2.4-2.5 1M668 880.6c0 2.1.4 3.3 1 2.9.6-.3 1-1.9 1-3.6 0-1.6-.4-2.9-1-2.9-.5 0-1 1.6-1 3.6M668 890.5c0 1.9.5 3.5 1 3.5.6 0 1-1.6 1-3.5s-.4-3.5-1-3.5c-.5 0-1 1.6-1 3.5M668 901.4c0 1.9.5 3.8 1 4.1.6.4 1-1 1-3.4 0-2.3-.4-4.1-1-4.1-.5 0-1 1.5-1 3.4M770 900.7c-.8.3-3.4 1.9-5.9 3.5-2.5 1.5-5.6 2.8-6.9 2.8s-3.6.8-5 1.9c-1.5 1-6.3 3.7-10.7 6.1s-11.6 6.4-16 8.9c-7.9 4.6-8 4.7-10.3 11.1-5.9 17-5.3 16.5-12.3 12.8-4.1-2.1-4.1-2.1-8.7.1-4.4 2.2-4.7 2.2-5.9.4-1.2-1.5-1.1-2 1.2-3.6 2.1-1.6 2.5-2.7 2.5-6.7 0-6.4-1.8-8-5.9-5.1-1.6 1.2-3.9 2.1-5.1 2.1-1.8 0-2.1-.4-1.6-2.8 1.7-8.9 1.7-12.9.1-14.6-2.1-2-3-2-6.5.1-3 1.7-5 5.1-5 8.3 0 2-6.3 9-8 9-2.5 0 .2-3.9 4.1-6 2.5-1.4 2.4-3.2-.1-4.8-1.7-1-2.5-.9-5.5 1-3 2-3.8 3.6-7 13.3-3.7 11.8-3.9 12.5-2.7 12.5.4 0 1.3-1.9 2-4.3 5.1-16.6 5.6-17.8 8.3-19.8 4.2-2.9 6-1.3 2.2 2-2 1.7-3.6 4.6-4.8 8.4-1.6 5.4-1.6 5.9 0 8.3.9 1.4 1.5 2.7 1.3 2.8-6 3.7-7.8 5.9-7.8 9.6 0 4.3-1.8 9.2-3.1 8.4s-1.1-4.6.5-9.3c1.4-3.9 1.4-4.1-.7-5.6-3.1-2.2-4.6-1.8-1.9.5 2.2 1.8 2.2 2 .7 6.2-.8 2.4-1.5 5.2-1.5 6.3 0 2.5 5.3 5.9 8.1 5.2 1.8-.5 1.9.1 1.9 9.4v9.9h-10c-6 0-10 .4-10 1 0 1.6 22 1.3 22.1-.3.5-3.8.7-8 .8-14.7.1-7.5.1-7.5 7.2-12.2 5.9-3.9 7.5-4.6 9.1-3.7 1.5.8 3 .5 7.1-1.6 3.2-1.8 5.3-2.3 5.5-1.6.6 1.8 1.8 1.3 3-1.4 1.6-3.4 8.5-6.8 12.3-6 1.6.4 2.9 1 2.9 1.4s1.2 1.3 2.7 2c3.3 1.5 3.4 1.4 8.5-12.3 2-5.5 4.5-10.4 5.5-11 2.9-1.8 13.3-7.6 20.3-11.4 3.6-2 8.2-4.6 10.2-5.9 2.1-1.3 4.5-2.3 5.3-2.3s5.1-1.8 9.6-4.1c6.5-3.3 8.3-3.9 9.5-2.8 1.6 1.3 3 .6 1.9-1-.7-1.2-5-1.3-7.5-.4m-93 18.8c-.7.8-2.1 1.5-3.2 1.5-1.7 0-1.8-.3-.8-1.5.7-.8 2.1-1.5 3.2-1.5 1.7 0 1.8.3.8 1.5m1.5 6.7c-.4 2.9-1 6.8-1.5 8.5-.8 3.1.3 5.7 1.3 3.1.7-2.1 1.6-.5 2.3 4.1.7 4.2.6 4.3-1.7 3.6-4-1.2-5.1-2.5-3.7-4.2 1-1.2.9-1.7-.6-2.5-1.5-.9-1.7-1.8-1.1-7.1.7-6.2 2.6-10.7 4.6-10.7.7 0 .9 1.8.4 5.2m-6.2-.1c-.1 1.9-.4 5.4-.8 7.7-.6 4-.8 4.3-3.1 3.8-1.3-.4-2.4-.3-2.4.1-.1.5-1.6 2.6-3.5 4.8-2.9 3.3-3.7 3.7-4.5 2.5-1.4-2.1-1.2-4 .3-3.4.7.2 2.8-.9 4.5-2.6 1.8-1.6 3.7-3 4.3-3 .7 0 .9-.9.6-2.3-.3-1.2.1-3.1.9-4.1.8-1.1 1.4-3.3 1.4-4.9 0-1.9.4-2.7 1.3-2.4.7.2 1.1 1.9 1 3.8m17.7 9.4c0 .8-.8 1.5-1.8 1.5-2.3 0-4.2 1.9-4.2 4.2 0 2.1 3 2.4 4.8.6.7-.7 1.2-.9 1.2-.5 0 1.1-5.3 5.6-6.6 5.7-.6 0-1.1-2.2-1.3-4.9-.2-4.5.1-5.1 2.6-6.5 3.6-2 5.3-2 5.3-.1m-25 0c0 .3-.2.5-.5.5s-.5-.2-.5-.5.2-.5.5-.5.5.2.5.5m-4 2.3c0 1.3-1.2 2.2-2.2 1.6s-.1-2.4 1.3-2.4c.5 0 .9.4.9.8m12 2.2c0 .5-.7 1-1.6 1-.8 0-1.2-.5-.9-1 .3-.6 1-1 1.6-1 .5 0 .9.4.9 1m15 0c0 .5-.4 1-1 1-.5 0-1-.5-1-1 0-.6.5-1 1-1 .6 0 1 .4 1 1m-21 2.5c0 1.5-.6 2.5-1.4 2.5-2.2 0-2.8 1.7-1.6 3.9.7 1.4.7 2.2-.1 2.6-.6.4-.8 1.3-.5 2.1s.1 1.4-.3 1.4c-.5 0-1.1-1.8-1.3-4.1-.3-3.1.2-4.8 2.1-7.5 1.3-1.9 2.6-3.4 2.8-3.4.1 0 .3 1.1.3 2.5m3.9 3.7c-1.1 2.1-3.6 3.4-4.6 2.4-.3-.3.1-1.4 1-2.4 1-1 1.7-2.4 1.7-3.2 0-1 .3-1 1.5 0 1.1.9 1.2 1.7.4 3.2m4.5-.3c.3.4-.3 1.6-1.4 2.6-2 1.8-2.5 1.1-1.4-1.9.7-1.8 2-2.1 2.8-.7m6.6 4.7c0 1.1-.4 1.2-2 .4-1.5-.8-2.4-.5-4.4 1.7-1.4 1.5-2.9 2.3-3.3 1.9-.4-.5-.2-1.1.5-1.3.6-.3 1.2-1.1 1.2-1.8 0-.8 1-2.1 2.2-2.9 2.4-1.7 5.8-.6 5.8 2m-22 2c0 1.9-.4 2.5-1.5 2-1.8-.7-4.5 1.9-4.5 4.5 0 2.2 2.9 2.6 4.8.7.9-.9 1.2-.9 1.2 0 0 1.5-5.7 4.5-7 3.7-.6-.3-1-2.3-1-4.3 0-3 .6-4.2 3.2-6.4 4.1-3.4 4.8-3.5 4.8-.2m9.6 1.1c-1.1 1.1-1.9-.6-1.1-2.4.8-1.7.8-1.7 1.2 0 .3 1 .2 2.1-.1 2.4m18.4-2.5c0 1-13.1 7-13.9 6.3-1.5-1.5 5.7-5.2 9.2-4.6.4 0 .7-.5.7-1.2s.9-1.3 2-1.3 2 .4 2 .8m-21.5 4.8c-.3.5-1.1 1-1.6 1-.6 0-.7-.5-.4-1 .3-.6 1.1-1 1.6-1 .6 0 .7.4.4 1m3.5.5c0 .9-8 5.8-8.6 5.2-.3-.3 1.1-1.7 3.3-3.1 3.7-2.4 5.3-3.1 5.3-2.1m-12 1.5c0 .5-.4 1-1 1-.5 0-1-.5-1-1 0-.6.5-1 1-1 .6 0 1 .4 1 1m-3.7 8.7c-2.2 1.7-4.3 1.6-4.3-.1 0-.8 1.1-1.3 3-1.2 2.7.1 2.8.2 1.3 1.3M792.2 909.1c-2.6 1.5-3.6 1.7-5.1.7-1.5-.9-2.5-.7-5.2.9-3.3 1.9-4.1 4.1-2.8 8.1.2.8-1.5 2.4-4.1 3.9-2.5 1.4-12.1 6.8-21.5 12.1-40.6 22.8-37 20.3-37.3 26.1-.2 2.9.1 5.1.7 5.1.5 0 1.1-2.1 1.3-4.7.3-5.1-.1-4.8 14.8-13 3-1.6 7.3-4 9.5-5.3s6.5-3.6 9.5-5.3 6.7-3.8 8.2-4.9c1.4-1 2.8-1.8 3.1-1.8s4.4-2.3 9.2-5c4.8-2.8 8.8-5 9.1-5 .2 0 .4.9.4 2s.3 2 .6 2c1.1 0 8.8-4.5 10.5-6.1.9-1 2.7-1.5 4-1.3 3.3.6 5.8-1.1 4.1-2.8-.6-.6-1.2-2.1-1.2-3.3 0-2.3-1.8-4.5-3.4-4.4-.6 0-2.6.9-4.4 2m2.9 2c-1.2 1.2-2 2.7-1.7 3.5s.1 1.4-.4 1.4c-1.4 0-1.2-4.4.2-5.8.7-.7 1.9-1.2 2.7-1.2 1.1 0 .8.6-.8 2.1m-8.6.9c-.3.5-1.3 1-2.1 1s-1.4-.5-1.4-1c0-.6.9-1 2.1-1 1.1 0 1.7.4 1.4 1m11.9.6c.9 2.5.7 3.4-.8 3.4-1.9 0-2.9-1.7-2.2-3.5.7-2 2.2-1.9 3 .1m-8.4.6c0 .7.3 2.2.6 3.4.4 1.6-.2 2.6-2.9 4.2-3.9 2.3-4.7 2-4.7-1.7 0-1.5 1.1-3.4 2.8-4.8 3.1-2.6 4.2-2.8 4.2-1.1m-8 3.3c0 1.4-.4 2.5-1 2.5-.5 0-1-1.1-1-2.5s.5-2.5 1-2.5c.6 0 1 1.1 1 2.5M668 913c0 2.2.5 4 1 4 .6 0 1-1.8 1-4s-.4-4-1-4c-.5 0-1 1.8-1 4M814.7 921.1c-3.5 2-3.9 5.6-1.4 11.2 3 6.5 5.2 17.4 3.9 19-3.6 4.5-.9 9.7 4.9 9.7 1.9-.1 5.1-.7 7.2-1.4 3.7-1.4 7.7-1.1 7.7.4 0 .4-2.1 2.6-4.7 4.9-3.8 3.3-4.5 4.3-3.3 5.1 1.2.7 1.2 1.2 0 3.4-.7 1.4-1.1 2.9-.8 3.2s2.7-3.1 5.4-7.5c2.6-4.5 5.1-8.1 5.6-8.1.4 0 1.3.9 2 2.1 1.5 2.4 7.8 5.9 10.7 5.9 2.1 0 6.7-4.9 8.1-8.6.5-1.2.6-3.1.3-4.3-.7-2.6-8-7.1-11.6-7.1-3.4 0-3.9-1-2.4-4.9 1.1-3 1-3.4-1.3-5.2-2-1.6-3.9-1.9-9.5-1.8-3.8.1-7.8.1-8.7 0-1.8-.1-5.8-7.8-5.9-11.5 0-2.1 0-2.1-.9 0-.4 1.1-2 2.8-3.4 3.7-2.5 1.7-2.6 1.7-3.2-.7-.9-3.7 1.3-6.9 4.2-6.3 1.6.3 2.3 0 2.1-.7-.5-1.5-2.8-1.8-5-.5m7.3 11.5c0 .7-.9 1.8-2.1 2.4-1.1.7-1.8 1.4-1.6 1.7.3.2 1.5 0 2.6-.7 2.9-1.5 2.6.1-.4 3-2.1 2-2.5 2.1-2.5.6 0-.9-.8-2.8-1.7-4.2-1.6-2.5-1.6-2.7.7-4.4 2.6-1.9 5-1.2 5 1.6m4 6.9c0 .8-.3 1.5-.7 1.5-.5 0-1.7 1.4-2.8 3s-2.3 3-2.7 3c-1.5 0-.8-3.8 1.3-6.4 2.2-2.9 4.9-3.5 4.9-1.1m3.8 2.2c-1.8 1.6-4 3.7-4.9 4.8s-2.6 3.1-3.8 4.4c-1.1 1.3-2.3 3.2-2.6 4.2-.6 1.8-2.5 2.7-2.5 1.1 0-3.5 12.1-17.2 15.2-17.2 1.6 0 1.4.5-1.4 2.7m15.7-.8c.6 1.1-1.5 6.1-2.7 6.1-1.1 0-1-1.7.2-2.5.6-.3 1-1 1-1.6 0-1.5-2.2-1-3.6.8-1 1.5-1.5 1.6-2.5.5-3.6-3.5-9.9.9-9.9 6.9 0 2.4.5 3.9 1.5 4.3 2.9 1.1 1.5 2.4-3.7 3.5-6.6 1.5-8 .4-5.5-4.2 1.9-3.5 9.7-12 12.5-13.6 2.2-1.3 11.9-1.4 12.7-.2m-4.5 6.4c1.9 1.1 3.8 2.1 4.2 2.4.6.3-1.6 4.5-4.9 9.2-.4.6-8.4-3.1-9.9-4.7-2.1-2-1.7-5 1-7.7s3.5-2.6 9.6.8m12.5 4.7c.4.6-.5 2-1.9 3.1s-3.2 4-3.9 6.5c-1.2 4.3-1.3 4.4-3.5 2.8-1.2-.8-2.2-2.2-2.2-3 0-2.2 3.7-9.1 5.2-9.7 2.3-.9 5.7-.7 6.3.3m5.2 5c.1 1.6 0 1.8-.3.7-.8-2.5-4.3-1.8-6.6 1.3-2.4 3.3-1.5 6.4 1.9 5.7 1.9-.3 2.1-.2 1.2.9-.6.8-2.2 1.4-3.5 1.4-2.1 0-2.4-.5-2.4-3.4 0-7 9.2-13.3 9.7-6.6m-2 3.2c-.3.7-.5.2-.5-1.2s.2-1.9.5-1.3c.2.7.2 1.9 0 2.5m-4 2c-.3.8-.6.5-.6-.6-.1-1.1.2-1.7.5-1.3.3.3.4 1.2.1 1.9"/><path d="M821.4 955.4c-.8 2.2.3 3.3 1.8 1.8.9-.9.9-1.5 0-2.4s-1.3-.7-1.8.6M814.7 924.5c-.7 1.6.8 2.9 2.3 2s1.2-3.5-.4-3.5c-.8 0-1.6.7-1.9 1.5M619.8 934.7c-.8 1-1.8 2.6-2.1 3.5-.7 1.9-.9 1.9-14.6 2.2-5.5.2-8.6.7-8.9 1.4-.3.9 3 1.2 12.1 1.2 12.5 0 12.5 0 14.5 2.7 1.9 2.6 2.3 2.7 5.2 1.6 2.7-1 3.8-1 6.1.2 3.7 2 7.9 1.9 7.9 0 0-.8-1.8-2.8-4-4.3-2.1-1.5-3.9-3.4-4-4.2 0-.9-.7-2.6-1.6-3.8-1.1-1.7-1.9-2-3.3-1.3-1 .6-2.3.6-3.2 0-2-1.2-2.4-1.1-4.1.8m10.2 2.9c0 1-.6 1.4-1.5 1-.8-.3-2.1.2-3 1-1.7 1.8-1.9 3-.5 3.9 1.5.9 1.2 2.5-.4 2.5-3.2 0-3.2-5.3 0-8.4 2-2.1 5.4-2.1 5.4 0m-8 .4c0 .5-.4 1-1 1-.5 0-1-.5-1-1 0-.6.5-1 1-1 .6 0 1 .4 1 1m-2 3.5c0 .3-.2.5-.5.5s-.5-.2-.5-.5.2-.5.5-.5.5.2.5.5m7 0c0 .3-.2.5-.5.5s-.5-.2-.5-.5.2-.5.5-.5.5.2.5.5m2.6 2.2c-1 1-1.9-.5-1-1.8.6-1.1.8-1.1 1.2 0 .2.7.1 1.5-.2 1.8m3.4.3c0 .5-.4 1-1 1-.5 0-1-.5-1-1 0-.6.5-1 1-1 .6 0 1 .4 1 1m3.5 2c.3.5-.1 1-.9 1-.9 0-1.6-.5-1.6-1 0-.6.4-1 .9-1 .6 0 1.3.4 1.6 1M511.1 936.8c-1.2 2.3.4 5.2 2.9 5.2 1.1 0 2 .5 2 1.1 0 .7-1 .9-2.5.6-1.6-.3-2.4 0-2.2.7.5 1.6 3.6 2 5.2.6 1.8-1.5 2-7.1.3-8.8-1.8-1.8-4.6-1.5-5.7.6m4.7 1.9c-.2 1-1 1.8-1.8 1.8s-1.6-.8-1.8-1.8c-.2-1.2.3-1.7 1.8-1.7s2 .5 1.8 1.7M520.1 936.9c-2.3 4.2 0 10.9 3.3 9.8 2.4-.8 4.1-5.4 3-8.4-1.2-3.5-4.8-4.3-6.3-1.4m3.9 4.2c0 5.2-2.4 4.8-2.8-.4-.2-2.8.1-3.7 1.2-3.7 1.2 0 1.6 1.1 1.6 4.1M528 936c0 .5.9 1 2 1 2.4 0 2.4.3.4 4.1-.8 1.7-1.4 3.8-1.2 4.7.2 1.1 1.4-.4 2.9-3.8 1.5-3 2.4-5.8 2.2-6.3-.6-1.1-6.3-.9-6.3.3M537.4 936.4c-.9.7-1.5 2-1.2 2.8.4.8.2 2.1-.2 2.8-1.3 2.1.8 5 3.5 5s3.6-2 3-6.5c-.2-1.7-.4-3.3-.4-3.6-.2-1.4-3-1.7-4.7-.5m3.6 2.1c0 .8-.7 1.5-1.5 1.5s-1.5-.7-1.5-1.5.7-1.5 1.5-1.5 1.5.7 1.5 1.5m0 5c0 .8-.6 1.5-1.4 1.5-1.7 0-2.8-1.4-1.9-2.4 1.2-1.2 3.3-.6 3.3.9M793.2 937c-3.9 3.7-3.9 6.6.2 10.3 3.6 3.2 3.6 3.2 2.5 9.7-.5 3.6-1.4 9.4-1.9 13-1 7.3-2.5 18.5-4 29.2-.6 4-1.6 10.4-2.3 14.3-1.2 7-1.2 7-4.9 7.3-5.3.4-4.8 2.2.6 2.2 4.5 0 4.5 0 5.5-5.3.5-2.8 1.5-9.3 2.1-14.2.6-5 1.5-10.8 2-13 .4-2.2 1.8-12 3.1-21.9 2.1-15.5 2.6-18 4.4-19.2 1.7-1.1 2.8-1.1 5.2-.2 1.6.6 3.8.8 4.8.4 1.6-.6 1.5-1-1.3-3.9-1.8-1.8-3.2-4-3.2-4.8 0-2.2-2.1-3.9-4.6-3.9-1.3 0-2.6-.5-2.9-1-1-1.6-2.9-1.2-5.3 1m4.8 1c0 .5-.2 1-.4 1-.3 0-.8-.5-1.1-1-.3-.6-.1-1 .4-1 .6 0 1.1.4 1.1 1m-2 2.6c0 .9-.7 1.4-1.7 1.2-2.5-.5-2.8-2.8-.4-2.8 1.2 0 2.1.6 2.1 1.6m8-.6c0 .5-1.1 1-2.4 1-2.9 0-4 2.4-2.4 5 1.4 2.2.6 3.5-1.7 2.7-1.9-.8-1.9-4.6.1-7.5 1.5-2.2 6.4-3.1 6.4-1.2m-10 4c0 .5-.4 1-1 1-.5 0-1-.5-1-1 0-.6.5-1 1-1 .6 0 1 .4 1 1m10-.6c0 .3-.4.8-1 1.1-.5.3-1 .1-1-.4 0-.6.5-1.1 1-1.1.6 0 1 .2 1 .4m2 2.7c0 .5.4.8.9.4.5-.3 1.2-.1 1.6.5.7 1.1-.5 1.3-2.9.4-1.8-.7-2.2-2.4-.6-2.4.6 0 1 .5 1 1.1M545.1 937.9c-1.5 2.6-1.4 6.4.1 7.9 1.8 1.8 4.6 1.5 5.7-.6.7-1.4 1.8-1.8 4-1.4 1.7.2 3.1 1 3.1 1.7 0 1.6 2.5 2.6 4.4 1.9.8-.3 1.9-1.8 2.5-3.2.8-2.4 1-2.4 1-.6.2 4.3 6 5.7 7.5 1.8.7-1.8-3-5.7-4.6-4.8-.6.4-.9.1-.6-.7s1.5-1.3 2.7-1.2c1.3.2 2-.1 1.6-.7-1.1-1.7-4.3-1.1-5.8 1.1-1.5 2.1-1.5 2.1-2.1.1-1.3-4-6-3.8-7 .3-.8 3-5.8 3.9-7.5 1.3-.6-1-1.9-1.8-2.8-1.8-1.3 0-1.4-.3-.5-1.2.8-.8 1.5-.8 2.8.3 1.5 1.2 1.7 1.2 1.2-.1-.7-2.3-4.5-2.4-5.7-.1m17.4 4.1c0 1.8-.5 3.5-1.1 3.7-1.3.4-2.5-4.3-1.7-6.4 1-2.5 2.8-.7 2.8 2.7m-12.7 1.3c.2 1.2-.3 1.7-1.7 1.7-1.2 0-2.1-.6-2.1-1.3 0-3.1 3.2-3.4 3.8-.4m21.2.7c0 1.1-.7 2-1.5 2s-1.5-.9-1.5-2 .7-2 1.5-2 1.5.9 1.5 2M577.1 938.4c-.7.8-.8 1.7-.3 2s.7 1.8.4 3.4c-.2 1.6.1 3.3.6 3.6.7.4 1.3-1.2 1.8-4 .7-5-.5-7.5-2.5-5M584 938.5c-3.5 4.2-.1 11.7 4.2 9.4 2.8-1.5 2.1-6.3-.9-6.7-1.3-.2-2.3-.8-2.3-1.4s1-.8 2.6-.4c1.9.5 2.5.3 2.2-.6-.7-1.9-4.3-2.1-5.8-.3m4 6.5c0 1.1-.7 2-1.5 2s-1.5-.9-1.5-2 .7-2 1.5-2 1.5.9 1.5 2M672.7 968.6c-.4.4-.7 6-.7 12.5v11.8l4.3.5c2.3.3 22.1.8 44 1.1l39.7.6v-12.6c0-9.2-.3-12.7-1.2-13-2.5-.7-85.3-1.6-86.1-.9m70.3 2.7 13.5.2v21l-23-.4c-12.6-.2-24.1-.5-25.5-.6s-9.3-.3-17.6-.4l-15.1-.1.2-6.3c.2-3.4.3-8 .4-10.2l.1-4 26.7.3c14.8.1 32.9.3 40.3.5"/><path d="M682 973.3c0 .8-.3 2.9-.6 4.6-.6 2.8-.4 3.1 2 3.1 2.1 0 2.6.5 2.6 2.4 0 3.1-1.6 4.2-2.8 2-.6-1-1.2-1.3-1.6-.6-1 1.7.5 4.2 2.5 4.2 4.3 0 5-9.6.9-10.7-2.7-.7-2.5-3.1.3-3.5 2.9-.4 2.4-2.2-.8-2.6-1.7-.2-2.5.1-2.5 1.1M693.2 973.2c-2 2-1.5 7.6.8 9 1.1.7 2 1.9 2 2.6 0 .9-.7 1.1-2 .7-1.4-.5-2-.2-2 1 0 2.2 2.9 3.1 4.6 1.3 2-2 2.3-13.6.3-14.9-1.9-1.2-2.3-1.1-3.7.3m2.8 4.4c0 2.1-.4 3.3-1 2.9-.5-.3-1-1.9-1-3.6 0-1.6.5-2.9 1-2.9.6 0 1 1.6 1 3.6M714 975.1c0 1.8.2 1.9 1.5.9 1.2-1 1.5-.9 1.5.7 0 1-.6 2.5-1.2 3.2-1.1 1-1 1.4.5 2.2.9.6 1.7 1.6 1.7 2.4 0 2.3-2 2.8-3.5.9-.8-1.1-1.5-1.4-1.5-.7-.1 4.6 4.4 6 6 1.7.6-1.4.7-3.1.3-3.7-.4-.7-.7-3-.8-5.2 0-3.4-.4-4.1-2.2-4.3-1.8-.3-2.3.2-2.3 1.9M726 973.2c-.1.2-.1 3.9-.2 8.3-.1 5.5.2 8 1 8 .7 0 1.2-.3 1.2-.8v-8.2c0-4.3-.4-7.5-1-7.5-.5 0-1 .1-1 .2M734.7 973.7c-.4.3-.7 2.4-.7 4.5 0 3.5.2 3.9 2 3.3 1.7-.5 2-.2 2 2.4 0 1.7-.4 3.1-1 3.1-.5 0-1-.5-1-1 0-.6-.4-1-1-1-1.6 0-1.2 3.7.5 4.4 2.4.9 4.3-.3 4.8-3.2.6-3.4-.8-7.2-2.8-7.2-.8 0-1.5-.7-1.5-1.5s.9-1.5 2-1.5 2-.7 2-1.5c0-1.5-4-2.1-5.3-.8M702 981c0 .5 1.6 1 3.5 1s3.5-.5 3.5-1c0-.6-1.6-1-3.5-1s-3.5.4-3.5 1M544 988.9v13.1h10.3c5.6 0 25.3.1 43.7.2l33.5.2.3-12.7.3-12.7h-20.3c-11.2 0-31-.3-44-.7l-23.8-.6zm49.6-9.9H629v21h-14.7c-8.2 0-26.6-.3-41-.7l-26.3-.6v-19.6l4.3-.4c2.3-.2 4.8-.2 5.5 0 .8.2 17.3.3 36.8.3"/><path d="M553.7 980.6c-.4.4-.7 2.5-.7 4.6 0 3.1.4 3.8 1.9 3.8 2.4 0 3.2 1.9 1.9 4.4-.8 1.4-1.2 1.6-1.8.6-.4-.7-1.3-.9-1.9-.5-1.7 1 .5 3.5 3 3.5 4.3 0 5-9.2.9-10.5-2.7-.9-2.5-3.3.3-3.7 1.2-.2 2.1-.8 2-1.3-.3-1.2-4.6-1.9-5.6-.9M565.2 980.8c-1.7 1.2-2.6 10.1-1.3 13.5.8 2.1 1.7 2.8 3.4 2.5 1.8-.2 2.3-1 2.5-4.5.3-3.4-.1-4.4-1.7-5.3-1.2-.6-2.1-1.7-2.1-2.5 0-1.8 1.7-2 2.3-.3.3.9.7.7 1.2-.6 1.1-2.6-1.7-4.4-4.3-2.8m2.8 10.6c0 1.4-.4 2.8-1 3.1-.5.3-1 0-1-.9 0-.8-.3-2.1-.6-3-.4-1.1-.1-1.6 1-1.6 1 0 1.6.9 1.6 2.4M585.5 982c-1.4 1.5-1.6 2.5-.8 4.2.6 1.5.6 3.1-.1 4.9-1.3 3.5.7 6.1 4.3 5.7 2.5-.3 2.6-.6 2.7-6.8.1-4.5-.3-7-1.4-8.3-1.9-2.2-2.5-2.1-4.7.3m3.5 3c0 1.1-.4 2-1 2-.5 0-1-.9-1-2s.5-2 1-2c.6 0 1 .9 1 2m.7 6.6c.8 2.1-1.3 4.2-2.8 2.7-1.3-1.3-.5-4.3 1.1-4.3.6 0 1.3.7 1.7 1.6M597.3 981.2c-1.7 2.2-2.2 4.7-1.2 5.4.6.3 1.3-.3 1.6-1.5s.9-2.1 1.4-2.1c1.6 0 1 3.3-1.6 8.7-2.4 5.3-2.4 5.3 0 5.3 1.4 0 2.8.1 3.1.2 1 .4 2.9-3 2.1-3.8-.3-.4-1.3-.1-2.2.6-2 1.7-2-.5 0-4 1.8-3.1 1.9-7.2.3-8.8-1.5-1.5-2.3-1.5-3.5 0M607.6 982.2c-3.3 4.7-1.2 16 2.7 14.5 3.2-1.2 3.4-13 .3-15.6-1.1-.9-1.8-.7-3 1.1m3.2 8.1c-.2 2.3-.7 4.2-1.3 4.2-1.2 0-1.9-5.9-1-9.4.6-2.3.8-2.4 1.6-.8.6.9.9 3.6.7 6M574 989c0 .5.9 1.1 2 1.1 1.1.1 2.5.2 3.2.3.6.1 1.3-.5 1.6-1.2.2-.8-.8-1.2-3.2-1.2-2 0-3.6.4-3.6 1M823.7 981.4c-.9 1.4-2.4 3.7-3.3 5.1s-1.2 2.5-.6 2.5c1.3 0 6.4-7.9 6-9.2-.2-.6-1.2.1-2.1 1.6M813.3 996.9c-1.7 2.7-2.9 5.2-2.6 5.5.6.5 7.3-8.6 7.3-9.9 0-1.6-1.9.1-4.7 4.4M804.9 1009.7c-1.3 2.1-2.7 4.4-3.2 5-.5.8-.3 1.3.5 1.3 1.2 0 6.8-7.8 6.8-9.4 0-1.7-2.1-.2-4.1 3.1M693.5 1019c-.7 2.3.9 5 3.1 5 .8 0 1.4.5 1.4 1.1 0 .7-1 .9-2.7.4-2.6-.6-2.7-.5-1.2 1 1.4 1.4 2.1 1.5 3.8.5 1.8-.9 2.2-1.9 1.9-5.3-.3-3.7-.6-4.2-3-4.5-1.9-.2-2.8.2-3.3 1.8m4.5 1.6c0 .8-.7 1.4-1.5 1.4-1.5 0-2.1-2.1-.9-3.3 1-.9 2.4.2 2.4 1.9M701.9 1018.6c-1.6 2-.2 4.6 3.2 5.5 2 .5 2.1.7.7 1.4-.9.4-2.2.3-2.9-.1s-1-.2-.7.7c.6 1.7 2.8 2.2 4.7 1 1.3-.9 1.8-7.1.6-9-.9-1.6-4.1-1.3-5.6.5m5.1 1.9c0 .8-.9 1.5-2 1.5s-2-.7-2-1.5.9-1.5 2-1.5 2 .7 2 1.5M710 1018c0 .5.9 1 2 1 2.4 0 2.4-.1.5 4.3-1.8 4.3-1.8 4.7-.5 4.7.6 0 1-.6 1-1.3s.9-2.9 2-5c1.1-2 2-3.9 2-4.2s-1.6-.5-3.5-.5-3.5.4-3.5 1M719.2 1018.2c-.7.7-1.2 2-1.2 2.9 0 2.1 2.6 4.3 4 3.4.5-.3 1-.2 1 .4 0 1.7-2 2.3-3.5 1.1-1-.8-1.5-.9-1.5-.2 0 .6.8 1.6 1.9 2.1 1.4.8 2.2.6 3.5-.8 2.9-3.2 1.6-10.1-1.9-10.1-.6 0-1.6.5-2.3 1.2m3.8 2.8c0 1.1-.7 2-1.5 2s-1.5-.9-1.5-2 .7-2 1.5-2 1.5.9 1.5 2M741.2 1018.2c-.5.7-1.2 2.2-1.4 3.3-.2 1.5-1 1.9-3.1 1.7-1.5-.2-2.7.1-2.7.7s1.2 1.1 2.6 1.1c1.5 0 3.4 1 4.4 2.2 2.6 3.2 5.4 1.4 5.8-3.6.5-5.4-2.9-8.6-5.6-5.4m3.8 4.8c0 2.8-.4 4-1.4 4-1.8 0-2.5-2-1.9-5.3.8-4.3 3.3-3.4 3.3 1.3M749.6 1019.2c-2.1 3-2 6.1.3 8.2 2 1.8 4.6 1.3 5.5-1 .8-2.1-1.5-5.4-3.7-5.4-1 0-1.5-.5-1.2-1 .4-.6 1.6-.8 2.8-.4 1.9.6 2 .5.8-1-1.8-2.1-2.7-2-4.5.6m4.2 6.1c.2 1.2-.3 1.7-1.7 1.7-1.2 0-2.1-.6-2.1-1.3 0-3.1 3.2-3.4 3.8-.4M728.2 1021c-2.5 3.2-2.2 5 .9 5 1 0 1.9.6 1.9 1.2.1.9.4.8.9-.2.9-1.6.3-9-.8-8.9-.3 0-1.6 1.3-2.9 2.9m2.8 1.5c0 .8-.7 1.5-1.6 1.5-1.4 0-1.4-.3-.4-1.5.7-.8 1.4-1.5 1.6-1.5s.4.7.4 1.5M759 1019.5c-.9 1-.9 1.5-.1 1.5.6 0 1.1 1.7 1.1 4.1s.4 3.8 1 3.4c1.2-.8 1.3-9.2.1-9.9-.5-.3-1.4.1-2.1.9M766 1019.9c-2.4 4.6-.3 9.7 3.7 8.9 2.6-.5 3-5.4.5-6.7-1.1-.6-2.2-.7-2.6-.4-.3.3-.6.1-.6-.5 0-1.8 2.2-2.6 3.1-1.1.4.7 1.1 1 1.6.6.8-.9-1.5-2.7-3.4-2.7-.7 0-1.7.9-2.3 1.9m4 5.1c0 1.1-.7 2-1.5 2-1.5 0-2.1-2.1-.8-3.3 1.2-1.3 2.3-.7 2.3 1.3M797.4 1021.5c-1 1.7-2.7 3.9-3.6 4.9-1.9 2.1-2.5 5.1-.8 4.1 1.9-1.1 7.1-9.6 6.7-10.8-.2-.6-1.2.2-2.3 1.8M785.7 1038.6c-2.1 3.1-3.6 6.1-3.5 6.6.3.9 8.8-10.5 8.8-11.7 0-1.7-2 .3-5.3 5.1M775.2 1054.1c-3.3 5.1-3.9 6.4-2.2 5.4 1.8-1.1 7-9.4 6.2-9.8-.4-.3-2.2 1.7-4 4.4M765.1 1068.9c-1.9 2.8-3.2 5.4-2.9 5.6.7.7 6.9-8.6 6.6-9.7-.2-.6-1.9 1.2-3.7 4.1M840 1076.5c-2.1 2.6-2.5 10.1-.6 13s5.6 3.3 8 .9c2.1-2 2.1-10.2 0-13.2-1.7-2.5-5.6-2.9-7.4-.7m5.8 7.2c-.3 5-.6 5.8-2.3 5.8-1.6 0-2.1-.8-2.3-4.4-.4-5.5.2-7.1 2.8-7.1 1.9 0 2.1.5 1.8 5.7M853.3 1076.5c-1.6 1.8-1.7 6.7-.1 8.3.7.7 2.5 1.2 4 1.2 1.8 0 2.8.5 2.8 1.5 0 2.1-2.9 3.1-5.1 1.7-2.4-1.5-2.9-1.5-2.9.2 0 1.6 3.5 3.2 6 2.7 2.7-.4 4-3.4 4-8.6 0-3.8-.5-5.6-1.8-6.8-2.2-2.1-5.3-2.1-6.9-.2m5.7 2c1.9 2.3.8 5-2 5-1.6 0-2.6-.6-2.8-1.8-.4-1.8 1.4-4.7 2.8-4.7.4 0 1.3.7 2 1.5M866.8 1076.7c-2.5 2.9-3.1 7.7-1.4 11.7 1.2 3 2 3.6 4.5 3.6 3.8 0 5.1-2.3 5.1-8.8 0-7.1-4.5-10.7-8.2-6.5m5.6 4.7c.9 4.8-.2 8.6-2.5 8.6-2.1 0-3.5-5.4-2.5-9.5 1-3.9 4.2-3.3 5 .9M879.7 1076.8c-2 2.2-2.3 12.2-.5 14 .7.7 2.4 1.2 3.8 1.2 3.9 0 5-1.8 5-8 0-4.2-.5-6.1-1.8-7.3-2.4-2.2-4.5-2.1-6.5.1m6.1 6.8c.2 4.1-.1 5.3-1.4 5.8-2.7 1-4.4-1.3-4.4-5.9 0-4.8.6-5.7 3.5-5.3 1.7.3 2 1.1 2.3 5.4M757.7 1079.8c-1 1-1.7 2.2-1.7 2.5 0 .4 3.2.7 7 .7 4 0 7-.4 7-1s-2.5-1-5.5-1c-4.4 0-5.3-.3-4.9-1.5.8-2 .1-1.9-1.9.3M816 1079.5c-1.4.8-2 1.4-1.5 1.4.6 0 2.1-.6 3.5-1.4s2.1-1.4 1.5-1.4c-.5 0-2.1.6-3.5 1.4M824.8 1080.1c1.8.5 3 1.4 2.7 1.9-.4.6.1 1 .9 1 .9 0 1.6-.4 1.6-.8 0-1.1-4.6-3.2-6.8-3.1-.9 0-.2.5 1.6 1"/><path d="M809.8 1082.5c-1.6 3.5-.1 5.7 4.3 6.7 5.5 1.2 8.6.1 9.8-3.4 1.5-4.2.7-4.7-.9-.7-1.3 3-1.6 3.1-5.8 2.6-5.5-.6-7.1-2-5.4-4.7.7-1.2.8-2.1.2-2.5-.6-.3-1.5.6-2.2 2M774.5 1082c-.4.6 1.7 1 5.5 1s5.9-.4 5.5-1c-.3-.6-2.8-1-5.5-1s-5.2.4-5.5 1M790.6 1081.9c-.4.5 2.1 1.1 5.5 1.3 5.8.3 7.6-.2 6.2-1.6-1-.9-11.1-.7-11.7.3"/></svg>