<svg xmlns="http://www.w3.org/2000/svg" viewBox="0 0 992 1402" fill="currentColor"><path d="M491.7 305.7c-.2 1-.3 6.3-.3 11.8l.1 10 10 .5c5.5.3 25.5.3 44.5 0l34.5-.5V318c0-5.2-.1-10.5-.3-11.8-.4-2.2-.4-2.2-44.2-2.2-41 0-43.9.1-44.3 1.7m86.3 10.4v9.9h-84v-20l41.3-.2c22.6-.2 41.5-.2 42 0 .4.2.7 4.8.7 10.3"/><path d="M512.9 308.6c-2.1 2.6-1.8 11.9.4 14.1 1.8 1.7 1.9 1.7 3.3-.1 2.1-3 1.9-11.9-.5-14-1.7-1.5-1.9-1.5-3.2 0m3.1 6.9c0 3-.4 5.5-.9 5.5-1.6 0-2.1-4.8-1.2-10.3 0-.4.6-.7 1.1-.7.6 0 1 2.5 1 5.5M545.3 307.7c-1.5.5-1.8 4.3-.4 4.3.5 0 1.1-.6 1.4-1.3.2-.6.8-.9 1.2-.5s.3 3.3-.4 6.5c-.7 3.6-.8 6-.2 6.6 1.1 1.1 1.3.2 2.8-9.6.5-3.1.7-5.9.5-6.2-.6-.6-3.3-.5-4.9.2M555.7 309.5c-.7 3.9.3 6.5 2.4 6.5 1.3 0 1.9.7 1.9 2.3 0 3.1-1 4-2.7 2.5-.7-.6-1.7-.8-2.1-.4s.2 1.4 1.3 2.2c1.8 1.3 2.2 1.3 3.8-.7 2.4-3 2.1-5.4-.8-7.7-3-2.4-3.2-4.2-.4-4.2 2.6 0 2-2.4-.8-2.8-1.5-.2-2.2.4-2.6 2.3M501.2 310c-1.9 3.1-1.5 9.4.8 12.1 2 2.4 2 2.4 3.5.5 2.6-3.4 1.8-7.6-1.7-8.9-1-.3-1.8-1.3-1.8-2.2 0-1.8 1.2-1.9 2.8-.3.9.9 1.2.7 1.2-1 0-2.8-3.1-2.9-4.8-.2m3.6 8.5c-.2 1.4-.7 2.6-1.3 2.6-.5 0-1.1-1.2-1.3-2.6-.2-1.8.1-2.5 1.3-2.5s1.5.7 1.3 2.5M534.6 309.6c-1.1 2.9-.6 10.9.9 12.8 2.4 3.2 4.5.4 4.5-5.9 0-6.6-.7-8.5-3-8.5-1 0-2.1.7-2.4 1.6m3.8 2c.8 2-.4 9.4-1.5 9.4-.5 0-.9-2.5-.9-5.5 0-5.3 1.1-7.2 2.4-3.9M522.5 316c-.4.6.8 1 2.9 1 2 0 3.6-.5 3.6-1 0-.6-1.3-1-2.9-1-1.7 0-3.3.4-3.6 1M535 345.9c0 9-.4 16.1-.9 16.1-2.1 0-15.6 8.6-18.6 11.9l-3.3 3.5 4 7.6c2.2 4.1 5.1 8.9 6.4 10.7 3.2 4.3 3 5.5-1.4 7.6-11.2 5.4-12.9 7-9.9 9.6.8.6 2.6 3.5 4.1 6.6 1.6 3 4.4 6.9 6.3 8.5 3 2.7 4 3 10.1 3 8.5 0 14.9-2.9 17.4-8 2.3-4.4 1.4-13.8-1.4-15.8-3.2-2.3-2.1-4.6 3.2-7.3 5.5-2.7 5.6-2.7 6.5-12 .6-6.6.6-6.6-2.4-7.8-1.7-.8-3.4-2.5-4.2-4.4-1.9-4.7-6.6-10.2-10.5-12.3-3.4-1.9-3.4-1.9-3.4-17.1 0-9-.4-15.4-1-15.8-.7-.4-1 5-1 15.4m4.1 19.2c3.6 1.9 6 4.3 8.6 8.7 1.4 2.4 2.4 4.4 2.2 4.6-.2.1-2 1.2-4 2.4-3.6 2.2-3.6 2.2-7.5-3-2.2-2.9-5.4-6.2-7.1-7.3-1.8-1.1-3.2-2.2-3.3-2.5 0-.9 5.4-3.8 7.3-3.9 1-.1 2.7.4 3.8 1m-10.3 5.8c.8.5-.4.7-2.9.7-3.6-.1-4.5.3-5.5 2.3-1.2 2.4-4.1 4.7-4.9 3.9-.2-.2 1.1-2 3-4.1 3.4-3.7 7.3-4.8 10.3-2.8m-4.2 3.6c-2.1 1.6-3.2 1.3-2.1-.4.3-.6 1.4-1.1 2.3-1.1 1.5.1 1.5.2-.2 1.5m8.6 3.2c1.4 1.6 3.1 3.8 3.7 5 1.3 2.5 1.5 7.3.3 7.3s-4.6-3.9-7.1-8c-3.9-6.6-1.8-9.5 3.1-4.3m-9.2-.2c0 .3-.2.5-.5.5s-.5-.2-.5-.5.2-.5.5-.5.5.2.5.5m-2 .9c0 .3-.4.8-1 1.1-.5.3-1 .1-1-.4 0-.6.5-1.1 1-1.1.6 0 1 .2 1 .4m6.4 4.6c.9 2.2 3.5 5.5 5.8 7.4 4.5 3.9 4.3 5.6-.7 5.6-2.7 0-4.1-.8-7.3-4.5-4.9-5.5-6.1-9.4-3.6-11.2 2.8-2.1 3.9-1.6 5.8 2.7m-7.4 3.5c4.5 9.4 12 14.3 16.8 10.9 1.7-1.1 2.2-2.5 2.2-5.7 0-4.9 1.7-3.9 2.2 1.3.2 2.7.7 3.4 2.1 3.2 1-.2 1.7.3 1.7 1.3 0 1.7-.5 1.8-3.5.5-1.4-.5-2.6-.2-4.2 1.3-2.2 2-2.3 2-7 .2-2.6-1-5.8-3-7.1-4.4-2.3-2.7-6.2-10.3-6.2-12.1 0-.5-.4-1-1-1-.5 0-1-.5-1-1 0-2.8 2.2-.3 5 5.5m31.7-4.9c.3 1-5.7 4.4-7.7 4.4-2.2 0-.8-2.8 2.3-4.3 3.4-1.7 4.9-1.7 5.4-.1m-13 2.1c-.4.3-.7 0-.7-.7s.3-1 .7-.7c.3.4.3 1 0 1.4m14.7 2.8c-2.5 1.8-5.3 2.5-5.9 1.5-.3-.4 1.2-1.7 3.3-2.8 3.9-2 5.8-1.1 2.6 1.3m-9 1.3c.3.5.2 2.2-.3 3.8-.8 2.9-.8 2.9-1.2-.9-.5-3.4.3-4.8 1.5-2.9m9.6 4.1c0 1.9-.8 3.4-2.5 4.5-3.5 2.3-4.5 2-4.5-1.4 0-2.2.7-3.3 2.8-4.4 3.8-2.1 4.2-2 4.2 1.3m-11.6 9c.3.5-.1 1.2-1 1.5-2.2.9-2.4.8-2.4-.9 0-1.6 2.5-2.1 3.4-.6m-12 1.1c1.4.5 2.6 1.4 2.6 2 0 1.6-1.5 1.2-4.1-1-2.7-2.2-2.2-2.5 1.5-1m6.6 2c0 .5-.4 1-1 1-.5 0-1-.5-1-1 0-.6.5-1 1-1 .6 0 1 .4 1 1m5 1c0 1.3-5.8 4.2-7.3 3.7-.7-.2.6-1.3 2.8-2.5 4.8-2.5 4.5-2.4 4.5-1.2m-14.9 2c2.4 1.1 5.5 3.1 6.8 4.5s2.7 2.5 3.2 2.5.9.4.9 1c0 .5-.7.7-1.5.4-1.5-.6-2.1 1.1-2.8 7.1-.4 3.4-1.2 2-2.2-3.8-.6-4-5.4-10.2-8.6-11.2-1.3-.5-3.4.2-5.9 1.9-4.4 2.9-5 3.1-5 1.6 0-.6.5-1 1-1 .6 0 2.2-1.1 3.6-2.5 3-3 4.8-3.1 10.5-.5m3.9-.5c0 .3-.2.5-.5.5s-.5-.2-.5-.5.2-.5.5-.5.5.2.5.5m14 2.8c0 1.9-4.8 3.9-7.3 3.1-2-.6-2-.7.4-2.5 2.8-2.2 6.9-2.5 6.9-.6m-24.8 3.3c-1.2.8-2.8 1.2-3.4.8-.9-.6-.5-1 1.2-1.5 4.1-1.1 4.6-1 2.2.7m26.8 1.7c0 2.6-.6 3.6-2.5 4.5-3.7 1.7-4.5 1.5-4.5-1.2q0-2.4 3.3-4.5c1.7-1.1 3.3-2.1 3.5-2.1.1 0 .2 1.5.2 3.3m-22-.1c0 .7 1.2 2.4 2.6 3.9 1.8 1.9 2.4 3.3 1.9 4.8-1.2 4-6.2 1.9-10-4.1-1.5-2.5-1.5-2.7.7-4.2 2.7-1.9 4.8-2.1 4.8-.4m-8 3.3c0 .6 1.5 2.9 3.3 5 3 3.4 3.7 3.8 8.4 3.8 2.8.1 5.9-.5 6.7-1.2 1.4-1.2 1.6-1.1 1.6.7 0 1.6-.9 2.1-5.4 2.6-6.1.8-7.8.2-11.6-4.1-3.2-3.5-7-11.4-4.6-9.4.9.8 1.6 1.9 1.6 2.6m11-3c0 .3-.2.5-.5.5s-.5-.2-.5-.5.2-.5.5-.5.5.2.5.5m17.5 9.6c-.8 1.3-5.6 3.1-6.3 2.4-.3-.2 1-1.1 2.9-1.9 4.2-1.8 4.2-1.9 3.4-.5M537.5 448.7c-3.3.8-3.5 1.6-1.9 6.3 2.3 6.5 8.8 32.4 11.8 47 3.6 17.8 5.6 33.6 5.6 44.5 0 6.5.4 9.5 1.2 9.5 1.3 0 .5-29.2-1.2-40.5-3.2-20.9-6.3-38.6-9-51.4-1.6-7.9-3-14.7-3-15.2 0-.9-.3-1-3.5-.2"/><path d="M355 473.4c-8.2 1.5-12.8 3.7-18.9 9.2-9.3 8.4-15.5 21.3-20.2 42.4-.5 2.5-1.4 6.3-1.9 8.5-3.4 14.7-6 41.2-6 62.5 0 32.8 4.2 55.5 14 75 3.3 6.7 10 18.1 11.1 19 .3.3 1.2 1.6 1.9 3 2.3 4.4 12.5 16.3 20 23.4 7.1 6.7 16.2 13.2 22.1 15.8 2.9 1.3 2.9 1.3 2.9 25 0 15.5.4 23.9 1.1 24.3.7.5.9-6.6.7-23-.3-23.7-.3-23.7 2.2-23.1 16.1 3.2 22.8 3.7 35.5 2.6 19.1-1.6 27.2-3.9 43.5-12 9.5-4.7 12-6.1 21.8-11.9 2.9-1.7 5.5-3.1 5.8-3.1s2.4-1.3 4.7-2.8c2.3-1.6 8.7-5.3 14.2-8.2s17.4-9.6 26.5-14.8 21.7-12.4 28-15.9c6.3-3.6 12.4-7 13.5-7.7s5.8-3.4 10.5-5.9c14.8-8 24.1-10.1 43-10.1 17.2 0 28.4 2.6 39.5 9.1 8 4.7 18.2 9.1 26.5 11.3 8.6 2.3 12.6 2.6 53.9 3.6 10.2.3 14.7.8 19 2.4 6.9 2.4 11.6 2.5 15.6.1 4.3-2.5 5.6-5.7 5.2-12.5-.3-5.2-.7-6.3-3.7-8.9s-3.8-2.9-8.6-2.5c-3.4.3-6.6 1.4-9.2 3-2.7 1.8-5.7 2.8-9.8 3.1-6.6.5-21.1 3.3-23.4 4.5-.8.4-8.5.5-17 .1-13.8-.6-16.4-1-24.3-3.8-4.8-1.8-11.1-4.5-14-6.2-4.5-2.5-13.3-6.9-20.2-9.9-8.6-3.8-29.5-5.4-43.5-3.4-15.1 2.3-22.3 4.9-35.8 12.9-5.1 3-9.5 5.5-9.8 5.5s-1.8.8-3.2 1.8c-1.5 1.1-5.2 3.3-8.2 4.9-3 1.7-11.1 6.3-18 10.3s-15 8.6-18 10.3-6.7 3.8-8.2 4.9c-1.4 1-2.8 1.8-3.1 1.8-.6 0-24.3 13-34.7 19-3.6 2.1-8.5 4.9-11 6.3-10.9 6.2-21.1 10.8-29.5 13.3-8.1 2.4-10.7 2.7-25.5 2.8-17.3.1-23.4-.8-32-4.7-12.7-5.9-34.4-27.9-42.6-43.2-.5-1.1-2.6-4.9-4.6-8.5-4.6-8.3-9.2-19.7-11.1-28-3.9-16.8-4.2-19.6-4.2-45 0-28.6 1.4-44.7 6.1-69 1.4-7.4 6.3-23.7 8.4-28.3 6.7-14.2 22.5-22.9 36.1-19.7 7.2 1.7 17.1 6.5 30.4 14.9 24.4 15.4 39.7 24.8 79 48.5 16.5 9.9 30.2 18.3 30.5 18.6s2.5 1.6 5 2.9c2.5 1.4 4.7 2.7 5 3.1 1.1 1.3 14.8 8.7 20 10.7 12.7 5 29.9 5.6 41.7 1.4 5.8-2.1 6.4-2.1 8.5-.7 5.5 3.9 11.2.8 13-7 1-4.3 1.9-5.6 5-7.5 2.1-1.3 12.9-11.4 23.9-22.4 22.6-22.5 31.1-30.5 32.6-30.5.5 0 1.8-.9 2.8-2s2.5-2 3.4-2c1.5 0 17.1-14.5 17.1-16 0-1.2-6.2-10-7.1-10-.4 0-2.4-1.4-4.2-3-1.9-1.7-4.3-3-5.4-3-1 0-4.8 2.9-8.3 6.5s-6.9 6.5-7.4 6.5c-1.2 0-4.6 4-4.6 5.6 0 .7 1.1 2.1 2.4 3.1 2.3 1.7 2.3 1.8.5 5-1 1.8-3.6 5.1-5.9 7.4-2.2 2.3-4 4.6-4 5.1 0 .9-6 7.4-28 30.1-5.2 5.4-11 10.7-12.7 11.8-3.3 2.1-3.3 2.1-8.9 0-4.1-1.4-6.2-1.7-7.5-1-2.5 1.3-4.9 6.1-4.9 9.7 0 1.6-.6 3.4-1.2 3.9-4.4 3.3-20.7 4.3-30.9 1.9-6.9-1.7-16.7-6-23.4-10.2-2.7-1.8-6.9-4.3-9.2-5.6-2.3-1.2-12.9-7.6-23.5-14-10.6-6.5-20.6-12.6-22.3-13.5-1.6-1-3.2-2-3.5-2.3s-1.6-1.1-3-1.9-6.1-3.7-10.5-6.4c-4.4-2.8-13.6-8.5-20.5-12.7-17.9-11-32.4-20.1-37.3-23.3-7.5-4.9-20.1-10.5-25.2-11.1-2.7-.4-5.7-.9-6.5-1.1-.8-.1-4.4.2-8 .9m15.9 2.6c6.8 1.3 13.7 4.4 22.7 10.2 6.5 4.3 21.9 13.7 27.4 16.9 1.4.8 2.7 1.6 3 1.9s3.9 2.6 8 5 10.1 6.1 13.2 8.2 5.9 3.8 6.2 3.8 4.3 2.4 8.8 5.3c4.6 3 13.9 8.8 20.8 12.9 6.9 4.2 16.3 9.9 21 12.8 28.1 17.3 33.9 20.4 43.3 22.9 13.9 3.8 27.6 2.6 37.9-3.1 3.1-1.8 4-1.9 5.3-.8 2.3 1.9 1.8 3.3-1.8 5.6-11.4 7.3-32.1 8.3-48.2 2.3-2.9-1.1-17.4-9.2-32.1-18.1-14.8-8.8-28.2-16.9-29.9-17.8-1.6-1-9.1-5.5-16.5-10-7.4-4.6-14.6-8.9-16-9.7s-4.4-2.6-6.7-4.1c-2.4-1.5-8-4.9-12.5-7.7-4.6-2.7-8.7-5.3-9.3-5.7-.5-.5-5-3.4-10-6.5-4.9-3.1-11.5-7.2-14.5-9.2-7.5-4.8-19.3-9.8-25.2-10.6-8.6-1.2-19.9 2.7-26.4 9.2-4 4-9.3 12.8-11.4 18.9-2 5.8-6.7 25.5-8.1 33.9-5.2 31.1-5.5 75.6-.8 98 4.8 22.7 18.7 48.2 36.2 66.2 11.6 12 19.5 17.7 30 21.5 7.8 2.9 9.1 3.1 24.2 3.2 16.4.1 21-.5 33-4.6 9-3.1 14.3-5.5 21.5-9.7 17.2-10.1 26.2-15.2 33.5-19.1 14.8-8 37.6-20.8 53.5-30 6.3-3.7 13.6-7.9 16.1-9.2 2.5-1.4 7.9-4.6 12-7 13-7.9 18.5-10.3 29.4-12.7 24.6-5.4 48.9-2.1 67.5 9.2 7.6 4.7 13.6 7.4 20.5 9.4 7.8 2.2 22.3 4.3 30.3 4.3 7.1 0 7.2 0 7.2 2.6 0 2.7 0 2.7-14.7 2.1-8.2-.4-17.5-1.3-20.8-2-7.7-1.8-18.9-6.3-24-9.7-5.8-3.8-12.4-6.7-21.2-9.2-6.6-1.9-10.2-2.2-22.8-2.2-13 .1-16.3.4-24.3 2.7-8.3 2.3-23.7 9.6-34.1 16.1-2 1.3-5.6 3.4-8.1 4.8-5.3 3-8.3 4.7-21 12.1-10.4 6-30 17.1-39.5 22.2-3.3 1.8-10 5.6-14.8 8.4-4.9 2.8-9.1 5.1-9.4 5.1s-1.7.8-3.1 1.9c-2.8 1.9-18.2 9.8-24.2 12.4-5.6 2.4-9.8 3.5-21.9 5.7-23.6 4.2-44.5 1.5-58.7-7.6-20.6-13.2-38.6-35.3-50.5-61.9-8.4-18.9-10.9-35-10.9-69.1-.1-36.3 1.8-50.7 10.8-84 4.2-15.7 14.2-29.3 24.9-34 5.5-2.5 15.3-4.5 18.3-3.8.8.2 3.9.8 6.9 1.4m295.6 9.2c-5.4 6.1-7.3 7.8-8.5 7.8-2.1 0-.8-1.9 4.6-6.9 6.7-6.2 9.1-6.7 3.9-.9m5-.5c-.4 1.6-.8 3.8-1.1 5-.3 1.7-1.1 2.3-3.1 2.3-1.5 0-4.4 1.5-7 3.6-2.4 2-4.7 3.3-5.1 3-.3-.4.9-1.9 2.8-3.4s5.7-5 8.4-7.9 5.1-5.3 5.3-5.3.1 1.2-.2 2.7m4.9 3.4c1.4 1.1 3.3 3.4 4.2 5.1 1.7 3.3 1.6 3.5-4 9.5-3.4 3.8-5.2 4.1-6.1 1.3-.3-1.1-2.3-3.3-4.3-5-3.6-2.9-3.6-3-1.1-3 3.2 0 8.2-5.5 7.3-8.2-.7-2.4.7-2.3 4 .3m5.2 2.4c1.5 2 2.5 3.8 2.2 4-.3.3-1.7-1.3-3.2-3.5-3.3-4.9-2.7-5.2 1-.5m-26.9 5.2c-.9.9-1.9 1.4-2.3 1.1-1-1 .6-2.8 2.4-2.8 1.5 0 1.5.1-.1 1.7m11.2 5c3.9 3.9 5.4 6.6 4.3 7.7-.3.4-1.3-.8-2.2-2.6-.8-1.8-2.9-4.2-4.7-5.3-3.3-2-4.2-3.5-2.2-3.5.6 0 2.7 1.7 4.8 3.7M653 499c0 .5-.2 1-.4 1-.3 0-.8-.5-1.1-1-.3-.6-.1-1 .4-1 .6 0 1.1.4 1.1 1m11.4 4.1c3 3.5 3.2 5.1 1 7-1.4 1.1-1.8 1-3-.6-2.8-3.9-4.4-5.5-5.4-5.5-.6 0-.8.4-.5 1 .3.5.1 1-.4 1-1.3 0-1.3-.2-.1-3.4 1.4-3.7 5.1-3.4 8.4.5m-6.6 5.5c3.1 2.2 2.7 4.8-1.4 9.4-3.5 3.8-3.8 4-5.5 2.4-2.6-2.4-2.4-3.5 1.6-7.4 1.9-1.8 3.2-3.6 3-3.9-.3-.2-2.3 1.3-4.5 3.4-5.2 5-6 4.1-1.2-1.3 4.1-4.7 4.8-4.9 8-2.6m-9.8 10.6c1.1 1.2 2 2.6 2 3.1 0 1.1-5-3.4-5-4.6s.8-.8 3 1.5m-1.2 2c.7.7 1.2 1.7 1.2 2.3 0 1.4-34.9 36.8-40.6 41.3-4.9 3.7-5.5 3.9-7.1 1.3-1.1-1.8-.9-2.3 1.9-4.3 3.7-2.5 13.3-12.2 29.7-29.7 6.2-6.6 11.9-12.1 12.5-12.1.7 0 1.7.5 2.4 1.2m-54.4 41.9c5 3.9 8.6 14.6 5.6 16.4-.6.3-1-.4-1-1.7-.1-4.3-3.8-10.6-8.1-13.7-3.9-2.9-4-3.1-1.7-3.1 1.4 0 3.7.9 5.2 2.1m-1 5.3c2.3 2.8 3 4.7 3 8.3.1 3.8-.3 4.8-1.7 5.1-1 .2-2.5-.2-3.3-.9-1.3-1-1.2-1.5.6-3.4s1.9-2.6.9-4.8c-1.4-3.2-4.1-4.2-6.9-2.7-1.8 1-2 .8-2-2.4 0-5.8 4.4-5.4 9.4.8m8.6 1c0 1.2-.5.7-1.9-2.4-1.1-2.4-1.1-2.4.3-.6.9 1.1 1.6 2.4 1.6 3m185.8 82.2c1.2.8 2.2 2 2.2 2.5 0 .6-1.2.1-2.6-1-3.6-2.8-6-2.6-8.9.5-6.6 7.1.5 19.7 8.6 15.3 1.4-.7 1.8-1.6 1.4-3-.5-1.4-.2-1.9 1.4-1.9 1.8 0 1.9.3.9 2.6-1.1 2.4-5.4 5.4-7.8 5.4-.7 0-2.5-.9-4-2-1.8-1.3-3.1-1.6-3.5-1-.8 1.3-4.5 1.3-4.5 0 0-.6 1.2-1 2.6-1 2.1 0 2.5-.4 1.9-1.8-.4-.9-.9-3.1-1.2-4.9-.5-2.9-.8-3.1-3.4-2.6-1.9.4-2.9.1-2.9-.7s1.2-1.1 3.4-.8c3 .3 3.6.1 4.1-2.1.4-1.5.1-2.8-.7-3.3q-1.35-.9.9-.3c1.2.3 2.4.1 2.8-.5.9-1.5 6.8-1.2 9.3.6m-2.8 1.9c.7.9 1 1.8.7 2.2-.8.7-3.7-1.5-3.7-2.8 0-1.4 1.6-1.1 3 .6m-11 .5c0 .5-1 1-2.2 1-1.9 0-2-.2-.8-1 1.9-1.3 3-1.3 3 0m-7.1 5.2c-.1 1.8.3 4.8.9 6.5 1.1 3.4.3 4.3-1.6 2-1.8-2.1-2.4-6.2-1.3-9 1.4-3.6 2.1-3.4 2 .5m13.1-2.7c0 .3-.2.5-.5.5s-.5-.2-.5-.5.2-.5.5-.5.5.2.5.5m-19.2 3c-.8 1.9-.8 3.1 0 5 1.6 3.5 1.7 3.5-2.7 3.5s-6.3-1.7-6.3-5.7c0-3.3 2.6-5.3 6.9-5.3 3.1 0 3.2.1 2.1 2.5m30 .3c.3 2.1-.5 2.7-3.5 2.3-.6-.1-1.4.3-1.8.9-.3.5-2.1 1-3.9 1-2.6 0-3.5-.5-3.9-2.2-.8-3-.1-3.8 3.9-3.8 2.5 0 3.4.4 3.5 1.7 0 1.4.3 1.2 1-.5 1.1-2.9 4.3-2.6 4.7.6m-27.2 1.7c-.1 4.1-1.6 4.8-1.6.7 0-2.4.7-4.2 1.5-4.2.1 0 .1 1.6.1 3.5m-13.4 1.4c.4 4.3-.6 5.1-6.4 5.1-4.5 0-5.8-1-5.8-4.5 0-3.6.8-4 8.6-4.4 3-.1 3.2.1 3.6 3.8M771 661c0 .5-1.1 1-2.5 1s-2.5-.5-2.5-1c0-.6 1.1-1 2.5-1s2.5.4 2.5 1m1 4c0 .5-1.1 1-2.5 1s-2.5-.5-2.5-1c0-.6 1.1-1 2.5-1s2.5.4 2.5 1m12.4 1.5c-.6 1.6-2.4 2.1-2.4.7 0-1.1 1.1-2.2 2.1-2.2.5 0 .6.7.3 1.5m-5.4 0c0 .3-.2.5-.5.5s-.5-.2-.5-.5.2-.5.5-.5.5.2.5.5m2 0c0 .3-.2.5-.5.5s-.5-.2-.5-.5.2-.5.5-.5.5.2.5.5m-5 4.5c0 .5-.7 1-1.6 1-.8 0-1.2-.5-.9-1 .3-.6 1-1 1.6-1 .5 0 .9.4.9 1"/><path d="M653.6 516.6c-1.6 2-2.3 3.5-1.6 3.2 1.6-.5 6.6-6.8 5.4-6.8-.5 0-2.2 1.6-3.8 3.6M687.7 670c-.8 1.2-5 5.8-9.3 10.3-20.3 21.2-32 36.5-45.9 59.9-7.5 12.6-17.8 33.7-20.8 42.6-1.4 4-2.7 7.5-2.9 7.7-.3.3-2.4-4.1-4.7-9.8-8.6-20.4-20.2-41-32.2-57-7.9-10.5-10.9-13.8-20.9-23.5-13.3-13-16.8-14-4.8-1.3 14.9 15.6 27.7 35.9 37.5 59.6 6.3 15.2 8.3 21.2 11.4 33.4 1 4.4 1 4.4 5.6 3.7 2.5-.3 7.4-.6 10.8-.6 6.2 0 6.2 0 7.5-4.3 5.7-18.8 14.1-38.7 22.7-53.7 9.8-17.1 17.1-28.2 27.7-41.9 5.6-7.3 6.7-8.7 15.4-18.7 3.4-4 6.2-7.6 6.2-7.9 0-1.2-2-.3-3.3 1.5M336.3 785.6c-.2.6-.5 6-.6 12l-.2 10.9 11.5.6c9.1.5 68.5 1.2 76.3 1 1.5-.1 1.7-1.4 1.7-12.1 0-8.8-.3-12.2-1.2-12.5-.7-.2-20.6-.5-44.2-.7-30.2-.2-43 0-43.3.8m57 1.4H422v21.8l-11.2-.4c-6.2-.2-25.1-.7-42-1l-30.8-.6v-21l13.3.5c7.2.4 26.1.7 42 .7"/><path d="M345.6 790.2c-2.9 4.1-1.3 14.8 2.1 14.8 1.9 0 3.7-4.4 2.9-7.4-.3-1.3-1.5-2.8-2.6-3.1s-2-1.3-2-2c0-1.9 1.7-2.8 2.3-1.3.2.7.8 1 1.2.6 1-.9-.1-3.8-1.4-3.8-.5 0-1.7 1-2.5 2.2m2.9 9.1c0 3.9-1.9 3.8-2.3-.2-.3-2.4 0-3.2 1-2.9.7.3 1.3 1.7 1.3 3.1M356.9 789.6c-2 2.5-1.8 12 .4 14.1 1.8 1.7 1.9 1.7 3.3-.1 1.9-2.7 1.9-12-.2-14-1.9-2-1.9-2-3.5 0m3.1 6.9c0 5.4-1.2 7.9-2.4 4.9-1.4-3.7-.3-12 1.5-10.8.5.3.9 2.9.9 5.9M379.2 790.2c-1.6 1.6-1.5 11 .2 13.3 1.2 1.6 1.6 1.7 3 .6 3-2.5 1.8-15.1-1.4-15.1-.3 0-1.1.5-1.8 1.2m3.2 2.4c1.4 3.5.4 10.4-1.5 10.4-.5 0-.9-2.7-.9-6 0-5.7 1.1-7.8 2.4-4.4M388.6 790.6c-.4.9-.3 2 0 2.3.4.3.9 0 1.1-.7.3-.6.9-1.2 1.5-1.2.7 0 .8 1.7.4 4.7-1.1 8.1-1.1 8.6 0 9 .7.2 1.3-2 1.7-5.9.3-3.5.9-7.1 1.2-8.1.6-1.4.2-1.7-2.3-1.7-1.8 0-3.2.6-3.6 1.6M400.6 789.9c-1.3 2-1.7 9.8-.7 12.3 2.1 5.4 6.1 2.3 6.1-4.6 0-6-3.5-10.9-5.4-7.7m3.4 7.1c0 4.7-.3 6-1.5 6-1.1 0-1.5-1.3-1.5-5.3 0-3 .3-5.7.7-6 1.7-1.7 2.3-.2 2.3 5.3M366.5 797c-.4.6.8 1 2.9 1 2 0 3.6-.5 3.6-1 0-.6-1.3-1-2.9-1-1.7 0-3.3.4-3.6 1M588.7 805.1c-4.9 2.6-5.5 4.3-2.8 7.9 1.1 1.6 2.1 3.8 2.1 4.8 0 1.9 3.4 6.2 5 6.2.5 0 1.7-1.1 2.6-2.5 3-4.7 8-2 9.1 4.9.5 3.5-.8 6.6-2.9 6.6-1.8 0-2-3.1-.2-4.5 1.8-1.3 1.8-1.4-.7-2.5-2.1-1-3.1-.8-6.2 1-3.7 2.2-8.7 9.2-8.7 12.2 0 .8 1.2 2.1 2.6 2.8 2.1 1.2 2.7 1.2 3.4.1.4-.8 1.5-1.1 2.5-.8 1.5.6 1.5.9.1 2.9-2.1 3-2 4.1.7 7.5 2.1 2.5 2.3 3.1 1.2 5.8-1.2 2.7-1 3.5 2.2 9.5 4.8 8.9 5.3 9.3 9.7 8.4 5.3-.9 10.1-5.8 12-12.2 1.4-4.8 1.4-5.6-.1-8.7-1.9-3.9-1.3-6.2 2-7.4 1.4-.5 2.7-1.7 3.1-2.7.6-1.5 2.1-1.6 16.1-1.2 8.6.3 15.7.2 16-.2.8-1.3-5.4-2-18.6-2-14.7 0-14.6.1-17.4-10.1-3.6-12.6-4.8-16-6.1-17.4-.8-.7-1.4-2.2-1.4-3.3 0-3-2.3-4.4-4.6-2.8-1 .7-3.5 1.6-5.5 2-3.4.6-3.8.4-5.8-2.9-2.3-4-4-4.3-9.4-1.4m7.3.7c0 1.4-2.3 3.2-4.2 3.2-2 0-2.5-2.6-.5-3.3 2-.8 4.7-.8 4.7.1m-6 5.7c.9 3.4 3 6.2 3.6 4.7.3-.6 1.6-1.2 2.9-1.2 1.2 0 2.8-.7 3.5-1.5 1.1-1.3 1.5-1.1 3.1 1.7 3.8 6.9 4.7 9.6 7 21 2.6 13.1 2.1 16-2.2 11.5-4.1-4.2-13.8-8.9-17-8.2-2 .5-2.9.3-2.9-.6 0-1.4 4.9-8.9 5.8-8.9.3 0 2.3 1.2 4.3 2.6 3 2 4.1 2.3 5.7 1.5 5.2-2.8 1.9-16.2-4.2-16.9-2-.3-3.2.3-4.3 1.7-2.5 3.6-5.3 2.1-5.3-2.8 0-1-.9-2.6-2-3.6-2.4-2.2-2.6-3.8-.3-3.3.9.2 2 1.2 2.3 2.3m8-1.1c0 1.5-4.8 3.1-5.9 2.1-.7-.8 2.8-3.5 4.6-3.5.7 0 1.3.6 1.3 1.4m14-.5c0 .6-.4 1.3-1 1.6-.5.3-1-.1-1-.9 0-.9.5-1.6 1-1.6.6 0 1 .4 1 .9m-6.4 3.6c-.2.7.6 2.3 1.9 3.5 1.5 1.4 2.9 4.4 3.6 7.9 1.6 7.5 3.6 15.2 4.4 17.3.8 2-.9 2.5-2.1.7-.6-1-2.4-9.6-3.8-18-.4-1.9-1.7-5.1-3.1-6.9-2.5-3.4-3.5-7.7-1.4-6.5.6.4.8 1.3.5 2m6.2 1c2.4-.7 3.6 1.7 6.2 11.6 1.2 4.6 2.7 9.4 3.2 10.6.6 1.3.9 2.6.5 2.9-1 1-3.5-5.5-5.2-13.8-.9-4.2-2.3-8.5-3.2-9.5-1.7-2.1-2-3.5 2.8 14.1 1.6 6 2.7 11.1 2.5 11.4-1.2 1.1-2.4-1.3-3.6-7-2-10.1-3.8-15.7-6-18.7-1.1-1.6-2-3.5-2-4.2 0-.8.7-.3 1.6.9 1 1.4 2.2 2.1 3.2 1.7m-13.1 14.2c-.4.3-1 .3-1.4 0-.3-.4 0-.7.7-.7s1 .3.7.7m25.1 13.9c-.4 2.2-8.8 7.1-8.8 5.1 0-1.3 6.5-6.5 8.3-6.6.5-.1.7.6.5 1.5m-21 3.4c1.7 1.1 3.2 2.4 3.2 3 0 1.9 5.1 3.2 8.2 2.1 2.7-1 3.9.1 1.7 1.5-4.7 2.9-16.2 1.9-19.1-1.7-2.2-2.6-2.2-3.3-.2-5.3s2.2-2 6.2.4m14.9 8.7c-.4.3-1 .3-1.4 0-.3-.4 0-.7.7-.7s1 .3.7.7m-16.7 1.5c0 1.9-1.8 4.3-2.5 3.6-.9-.9.4-4.8 1.6-4.8.5 0 .9.6.9 1.2m4 3.4c0 1.4.5 3.4 1.1 4.5.5 1.1.9 3.2.7 4.6-.3 2.3-.6 2.1-3-2.5-2.3-4.2-2.6-5.6-1.8-7.7 1.2-3.1 3-2.4 3 1.1m6-.9c0 1.6-.5 3.5-1 4.3-.9 1.3-1.1 1.3-2 0-1.4-2.1-1.2-5.7.3-6.3 2.3-1 2.7-.7 2.7 2m4.8 1.2c.4 3.6-3.1 11.6-5.3 12.5-2.2.8-1.9-4.3.5-7.9 1.1-1.7 2-4.3 2-5.8 0-4 2.4-2.9 2.8 1.2m1.7 5.2c-.8 1.9-1.3 2.6-1 1.6s.8-3.7 1.2-6c.6-3.4.8-3.7 1.1-1.6.2 1.5-.4 4.2-1.3 6m-14.5 3.1c1.8 3.5 2.6 5.7 1.7 5-2-1.7-7-11.2-5.9-11.2.4 0 2.3 2.8 4.2 6.2"/><path d="M591.7 833.7c-1.3 1.2-.7 2.3 2.4 3.9 2.6 1.3 3.3 1.4 4 .2 1.3-2 1.1-2.4-1.6-3.6-3-1.4-3.9-1.5-4.8-.5m4.3 2.3c0 .5-.2 1-.4 1-.3 0-.8-.5-1.1-1-.3-.6-.1-1 .4-1 .6 0 1.1.4 1.1 1M602.6 837.4c-2.9 2.2-2.9 2.2.5 4.3 3.9 2.5 4.9 2.2 4.9-1.6 0-4.4-2.1-5.4-5.4-2.7m3.4 2.1c0 .8-.4 1.5-.9 1.5-1.3 0-2.2-1.6-1.4-2.4 1.1-1.1 2.3-.6 2.3.9M660 842.7v12l26.8.7c37.1.9 58.8 1 60.1.2.7-.5 1.1-4.8 1.1-11.5 0-10.9 0-10.9-2.7-11.5-1.6-.3-21.4-.9-44-1.3l-41.3-.6zm71.8-8.9 13.2.3v21.1l-9.2-.6c-5.1-.3-23.6-.9-41-1.2l-31.8-.6v-19.9l27.8.3c15.2.1 33.7.4 41 .6"/><path d="M669.5 837.5c-.3 1.4-.7 3.6-1 5-.6 2.7 1.9 8.5 3.5 8.5 1.7 0 3.3-4.6 2.6-7.3-.3-1.4-1.5-2.7-2.7-3-2.4-.7-2-3.3.5-3.1.9.1 1.6-.4 1.6-1.2 0-2.6-3.9-1.6-4.5 1.1m3.5 8.6c0 3.8-2.4 3.5-2.8-.4-.2-1.9.1-2.7 1.2-2.7s1.6 1 1.6 3.1M680 837.6c-1.5 3.8-1.2 8.7.6 11.2 2 2.8 2.8 2.8 4.2-.3 2.3-4.9.6-13.5-2.5-13.5-.7 0-1.8 1.2-2.3 2.6m3.8 4.9c-.4 6.6-2.2 7.8-2.6 1.6-.4-4.9.2-7.1 1.8-7.1.7 0 1 2 .8 5.5M702 836.9c-1.1 2.1-1.4 10-.4 12.5.8 2.2 3.1 2 4.4-.3 2.1-4 .7-14.1-2-14.1-.5 0-1.4.9-2 1.9m3.5 2.1c.9 3-.4 10.2-1.8 9.7-1.3-.4-2.2-8-1.3-10.3.8-2 2.4-1.7 3.1.6M711.6 836.6c-1.1 2.7-.7 3.7.9 2.4 2.3-1.9 2.7-.8 1.7 5.4-.5 3.1-.6 5.9-.1 6.2.4.2 1.1-1.7 1.4-4.3.4-2.7 1-6 1.5-7.5.5-1.4.6-2.9.3-3.2-1.3-1.2-5.1-.5-5.7 1M724 844.1c0 5.3.4 7.9 1.1 7.7.6-.2 1-.7 1-1.1-.1-.4-.1-3.9-.1-7.7 0-4-.4-7-1-7s-1 3.4-1 8.1M733.1 837.9c-2.2 4-.8 14.1 1.9 14.1 1.3 0 4-3 4-4.3 0-.7-.5-.4-1.1.5-3.1 5.4-6.4-2.1-3.9-8.8 1-2.6 1.1-2.6 3.1-.8 2.1 1.9 2.1 1.9 1.8-.1-.6-2.8-4.5-3.2-5.8-.6M691 843c-1.1.7-.7 1 1.8 1 1.7 0 3.2-.5 3.2-1 0-1.3-3-1.3-5 0M270.6 1103c-7.7 3.9-14.5 7-15.3 7s-1.3-1.3-1.3-3.5c0-1.9-.4-3.6-1-3.7-.5 0-1.4-.1-1.9-.2-1.1-.1-19.1 27-19.1 28.7 0 .6 1.7 2.3 3.8 3.6 8.1 5.3 16.2 10.1 17.2 10.1.5 0 1-2.4 1-5.3v-5.2l17.5-9c9.6-4.9 17.5-9.2 17.5-9.5s.3-4.2.6-8.6c.6-7.7.5-8.2-1.7-9.8-1.3-.9-2.6-1.6-2.9-1.6s-6.8 3.2-14.4 7m17.2 4.1-.3 8.2-17.7 9.1c-17.8 9.1-17.8 9.1-17.8 13.9 0 2.7-.3 4.7-.8 4.5-4.5-2-15.2-9.4-15.2-10.5 0-1.8 14.9-24.3 16.1-24.3.5 0 .9 1.6.9 3.5s.3 3.5.8 3.5c.4 0 7.7-3.6 16.2-7.9 8.5-4.4 16.1-8 16.8-8 1-.1 1.2 1.9 1 8"/><path d="M280 1104.5c-2.1 1.1-2.6 2.2-3 7.4-.4 4.8-.2 6 .8 5.6.8-.3 1.7-.5 2.1-.5.5 0 2-1.1 3.5-2.5 3.1-2.8 3.5-7.4.9-9.8-1.5-1.3-2.2-1.4-4.3-.2m3.8 4.1c.3 3.1-3.1 7.9-4.9 6.9-1.4-.9-.8-6.7 1-8.8 2-2.4 3.5-1.6 3.9 1.9M273 1109.6c-.6 1.4-1 3.2-1 4s-.4 1.2-1 .9c-.5-.3-1-1.5-1-2.6 0-3.2-1.9-2.1-2.6 1.6-.6 3.4-2.4 4.9-2.4 2.1 0-.8-.5-1.8-1.1-2.2-1.1-.7-.7 3.9.8 9 .5 1.9.6 1.9 1.9.1.8-1 1.4-2.9 1.4-4.1 0-3.6 1.7-3.7 2.9-.2 1.5 4.3 2.7 2.6 3.5-5 .7-6.5.2-7.9-1.4-3.6M256.8 1116.7c-1.8.9-2.8 2.2-2.8 3.6 0 1.2-.3 3.9-.6 5.9-.5 2.5-.3 3.8.5 3.8.6 0 1.1-.8 1.1-1.8 0-.9 1.4-2.9 3.2-4.4 2.4-2 2.8-2.8 1.6-2.8-.9 0-2 .5-2.3 1-.7 1.1-2.5.4-2.5-1 0-.5 1.4-1.7 3-2.7 1.7-.9 3-2.1 3-2.5 0-1.1-1-.9-4.2.9"/></svg>