<svg xmlns="http://www.w3.org/2000/svg" viewBox="0 0 864 1214" fill="currentColor"><path d="M51.3 15.6c-2.4 3.8-2.4 11 .2 14.8 1 1.6 2.1 2.4 2.3 1.8s-.4-2.2-1.2-3.4c-2-2.9-2-7.1 0-11.4 2.1-4.3 1.2-5.5-1.3-1.8M84.5 22.5c-4.9 4.7-8.6 8.7-8.4 9 .3.2 4.5-3.3 9.4-8 4.9-4.6 8.7-8.6 8.4-8.9s-4.5 3.3-9.4 7.9M56.3 17.7c1.7 8.5 3 12.3 4.2 12.3 1.3 0 3.5-5.6 3.5-8.8 0-.6.5-1.2 1-1.2.6 0 1 .6 1 1.2 0 3.2 2.2 8.8 3.4 8.8 1.8 0 5.9-13.1 4.6-14.4-.6-.6-1.1-.4-1.4.5-.2.8-1 3.1-1.6 5.2-1.4 4.4-2.1 4.1-3.5-1.6-1.4-5.5-3.1-5.8-4.6-.5-1.8 6.3-2.4 6.4-3.9.8-1.4-5.2-3.6-7.1-2.7-2.3M101 19.2c-.7 1.8-1.9 4.7-2.6 6.5-.8 1.7-1.4 3.6-1.4 4.2 0 2 1.7 1.2 2.8-1.4.9-1.9 1.9-2.5 4.2-2.5s3.1.5 3.6 2.5c.3 1.4 1.2 2.5 1.9 2.5 1.5 0 .7-3.8-1.9-9.2-.9-1.7-1.6-3.7-1.6-4.5 0-2.7-3.8-1.3-5 1.9m5 4c0 .4-.9.8-2 .8-2.1 0-2.4-.8-1.3-3.6.6-1.6.7-1.6 2 .2.7 1 1.3 2.1 1.3 2.6M122 23.4c0 4.4.4 7.6 1 7.6.9 0 1.1-1.9 1.3-11.9.1-1.4-.4-2.6-1.1-2.9-.9-.3-1.2 1.7-1.2 7.2M137.1 17.4c-1.6 1.9-1 12.8.7 13.4q1.2.3 1.2-2.7c0-4.1 2.2-4 5.1.1 1.2 1.8 2.4 3.5 2.5 3.7.2.1.8 0 1.4-.4.7-.4.3-1.6-1-3.5-2.1-2.9-2.1-2.9 0-5 1.6-1.6 1.8-2.5 1.1-3.9-1.8-3.3-8.8-4.4-11-1.7m8.2 1.5c.4.1.7.8.7 1.6 0 1-1.1 1.5-3.5 1.5-2.3 0-3.5-.5-3.5-1.3 0-1.9.7-2.4 3.2-2.1 1.3.1 2.6.3 3.1.3M176.6 16.8c-.3.5-.6 4-.8 7.8l-.3 6.9h5.4c6.3 0 8.5-2 6.3-5.6-1-1.5-1-2.4-.2-3.4.6-.7.8-1.9.4-2.8-1-2.6-9.6-4.9-10.8-2.9m7.9 4.2c0 1-1.2 1.6-3.2 1.8-2.8.3-3.3 0-3.3-1.8s.5-2.1 3.3-1.8c2 .2 3.2.8 3.2 1.8m.2 5.1c2 2 .3 3.9-3.3 3.9-3 0-3.4-.3-3.4-2.5 0-2.1.5-2.5 2.8-2.5 1.5 0 3.3.5 3.9 1.1M232.5 19c1.9 3.7 1.9 10 0 12.6-1.8 2.4-1.9 3.5-.1 2.8 3.6-1.4 4.8-11.6 2-15.9-2.3-3.5-3.8-3.1-1.9.5M199.3 18.2c-.5.7-2 3.9-3.3 7.1-2.4 6-2.1 8.7.6 4.9 2-2.9 7-3 7.9-.2.3 1.1 1.3 2 2.1 2 1.8 0 1.9.5-1.4-7.5-2.9-7.1-4.2-8.5-5.9-6.3m3 4.8c.4 1.5 0 2-1.4 2-2.1 0-2.2-.1-1.3-2.4.8-2.2 2.1-2 2.7.4M216.1 18.7c-3.1 2.5-3.8 8.2-1.4 11.1 1.8 2.2 3.4 2.6 9.1 2.4 3.1-.2 3.3-.4 3-3.5-.2-2.5-.8-3.3-2.7-3.5-3.4-.5-5 1.5-2.1 2.6 2.3.9 2.3.9.5 1.9-3.8 2-6.5-.2-6.5-5.4 0-2.2.6-3.6 2-4.3 2.2-1.2 6-.5 6 1.1 0 .5.5.9 1 .9 1.8 0 1.1-2.9-.9-4-2.9-1.5-5.6-1.2-8 .7M78.3 58.3C72.7 61.7 68.1 65 68 65.7c0 .7.8 2.7 1.9 4.5 16.3 28.7 15.1 27 17.5 25.5 1.2-.9 2.2-2.7 2.4-4.6.3-3.1.3-3.1 3.2-1.1 1.5 1.1 3 2 3.3 2s4.1 2.1 8.4 4.8c18.3 11.1 18.7 11 19.1-2.5l.3-9-6.8-4.3c-3.7-2.4-9.2-5.8-12-7.7-2.9-1.8-5.5-3.3-5.8-3.3s-2.3-1.2-4.5-2.6c-4-2.6-4-2.7-4-9 0-4.5-.4-6.4-1.2-6.4-.7 0-5.9 2.9-11.5 6.3m19.2 14.9c6.1 3.7 11.5 7.1 12 7.5.6.5 3.1 2.1 5.8 3.6 4.7 2.8 4.7 2.8 4.7 10.7 0 5-.4 8-1.1 8-.5 0-7.3-3.8-15.1-8.5-7.7-4.7-14.4-8.5-14.9-8.5-1.2 0-1.1-1.7.1-2.5.6-.3 1-1.5 1-2.6 0-1.7.3-1.8 2-.9 1.6.8 2 .8 2-.4 0-.8-.9-1.8-2-2.1s-2-1.3-2-2.2c0-.8.5-1.2 1.3-.9.6.3 1.9.9 2.8 1.2 1.1.4 1.8 2.3 2.3 5.9 1 9 2.7 11.1 4.2 5.2.8-3.2.8-3.2 1.2.3.3 3.3 1.7 6 3.1 6 1.2 0 3.1-10.4 2.2-11.3-.6-.6-1.3.1-1.7 1.9-.7 2.9-.7 2.9-1.8-1-1.3-4.6-3.6-6-3.6-2.2 0 1.4-.4 2.6-1 2.6-.5 0-1-1.6-1-3.5 0-2.9-.6-3.8-4.4-6.5-6.4-4.4-6.8-4.1-6.4 4 .2 3.9 0 7-.4 7-.5 0-.8 2.1-.8 4.7 0 6.2-.5 5.6-9.8-11.7-1.9-3.6-4.1-7.5-4.8-8.7-1.5-2.5-2.4-1.7 10.6-9.8 3.5-2.2 3.5-2.2 4 2.9.5 5 .5 5 11.5 11.8"/><path d="M109.6 83.7c-.3.3-.6 3.2-.6 6.4 0 5.5.2 5.9 3.1 7.4 1.7.9 3.7 1.4 4.5 1.1 1.7-.6 1.9-6.5.3-9.9-1.2-2.6-6.2-6.1-7.3-5m5.4 5.2c1.8 3.4 1.3 7.1-1 7.1-1.7 0-2-.7-2-4.5 0-4.7 1.2-5.8 3-2.6M398.4 239.3c-.2.7-.3 5.8-.2 11.3l.3 9.9 19.8.3 19.7.2.2 4.8c.1 5.2.1 11.3-.1 24.5l-.1 8.8-75.2-.5c-224.3-1.7-307.8-1.8-308.2-.4-.2.7-.7 74.9-1 164.8-.8 201-2.3 444.3-3.2 500.2-.5 34.9-.4 41.8.7 42.2 3 1 46.4 1.5 178.7 2.1 75.8.4 138.3.8 139 1.1.7.2 102 .7 225.1 1l223.9.7.5-2.9c.3-1.6.9-92.5 1.3-201.9.3-109.5.8-199.2.9-199.5.2-.4.7-69 1.1-152.7l.7-152.1-12.9-.4c-7.1-.2-64.9-.4-128.4-.6-126.9-.3-239.1-1.1-240.2-1.9-.9-.5-1-31.8-.2-35 .6-2.2.9-2.3 20.3-2.5l19.6-.3v-22l-40.8-.3c-33.2-.2-40.8 0-41.3 1.1m81.4 10.1c.2 5.4-.1 9.2-.8 9.6-.5.3-6.1.5-12.3.4-6.1-.2-23.7-.3-38.9-.4H400v-19l39.8.2 39.7.3zM398 300.6c104.8.3 199.5.7 210.5.9s63.2.4 115.9.4l95.9.1-.6 165.7c-.4 91.2-.9 175.9-1.2 188.3-.5 22.9-1.5 230.8-1.5 309.8v43.3l-121.2-.5c-186.5-.9-301.3-1.6-334.8-2.1-16.8-.3-84.9-.8-151.5-1.1-66.5-.4-122.1-.8-123.5-.9s-9.7-.3-18.4-.3l-15.9-.2.7-77c.4-42.3.9-90.3 1.1-106.7s.7-95.7 1.1-176.3c.3-80.6.8-153.3.9-161.5.2-8.3.4-53 .4-99.4l.1-84.3 75.8.6c41.6.3 161.4.9 266.2 1.2"/><path d="M408.2 244.6c-2.5 1.7-3.1 8.1-1 10.2 1.9 1.9 5.6 1.4 6.8-.8 1.5-2.8-.4-6-3.5-6-1.4 0-2.5-.5-2.5-1 0-1.7 2.9-2.3 4.5-1 1.2 1 1.5 1 1.5-.3 0-.8-.7-1.8-1.6-2.1-2-.8-1.6-.9-4.2 1m3.8 7.4c0 1.3-.7 2-2 2s-2-.7-2-2 .7-2 2-2 2 .7 2 2M418.1 244.7c-1.5 1-2.1 2.5-2.1 5.2 0 4.4 1.8 6.4 5.2 5.9 1.9-.2 2.3-.9 2.3-3.8 0-3.1-.3-3.5-2.7-3.8-1.6-.2-2.8-.7-2.8-1.2 0-1.4 3.2-2.1 4.6-.9 1.1.9 1.4.8 1.4-.4 0-2.1-3.5-2.7-5.9-1m3.9 7.3c0 1.3-.7 2-2 2s-2-.7-2-2 .7-2 2-2 2 .7 2 2M436 245c0 .5-.8 1-1.7 1-1.7.1-1.7.1 0 1.4 1.1.8 1.7 2.7 1.7 5 0 2 .5 3.6 1 3.6.6 0 1-2.7 1-6s-.4-6-1-6c-.5 0-1 .4-1 1M445 245.7c-1 1.2-1.1 1.8-.2 2.1.7.2 1.2 2.1 1.2 4.3 0 2.1.5 3.9 1 3.9.6 0 1-2.7 1-6 0-6.3-.5-7-3-4.3M453.2 246c-2.8 4.5.4 11.4 4.8 10.3 3.2-.8 4.3-7.9 1.8-11.1-1.6-1.8-5.2-1.4-6.6.8m5.8 4.1c0 3.6-.2 4-2.2 3.7-4-.5-3.7-7.8.2-7.8 1.7 0 2 .6 2 4.1M426.5 251c-.3.5.3 1 1.4 1 1.2 0 2.1-.5 2.1-1 0-.6-.6-1-1.4-1s-1.8.4-2.1 1M295.5 367.2c-.3 1.8-.5 6.9-.3 11.3l.3 8 19.8.3 19.7.2v33.5c0 18.4-.4 33.5-.8 33.5s-1.2-.4-1.8-.9c-.5-.5-2.4-1.2-4.2-1.6-2.5-.5-3.3-.3-3.8 1-.8 1.9-8.7 7.5-10.6 7.5-.8 0-3.3-.9-5.6-2-5.3-2.6-8.2-2.5-13.4.3-8.4 4.7-22.4 12.1-28.3 15.1-3.2 1.7-7.4 4.6-9.2 6.4-3.1 3.1-3.3 3.6-3.3 10.5 0 4 .4 7.8.8 8.4 1.1 1.8 12.1 7.3 14.5 7.3 1.8 0 10.1-4.2 23.8-11.9 3-1.6 7-3.2 8.9-3.3 3.4-.3 3.4-.3 4.2 5.7.5 3.3.7 8.5.6 11.5l-.3 5.5-9.5 1.3c-13.1 1.8-28.3-.3-47-6.5-8.9-2.9-24.6-10.9-31.2-15.8-14.2-10.4-32.6-42.9-31.1-54.7.9-7.1 4.9-12.8 9.4-13.5 1.1-.2 4.6-1.6 7.9-3.3 4.2-2.1 6.7-2.8 8.8-2.4 2.2.4 4.6-.4 10.1-3.4 4-2.1 8.1-4.6 9.2-5.5 2.3-2 2.4-5 .3-7.2-1.5-1.5-1.5-1.7.1-3.5 1.2-1.3 1.5-2.8 1.1-4.7-1.1-4.5-2.8-8.3-3.7-8.3-.5 0-.9-1.4-.9-3 0-4.2-4.2-8.4-7.5-7.6-2.9.7-6.5-1.2-6.5-3.4 0-2.1-2-4-4.1-4-2.3 0-17 7.9-19.1 10.3-1 1.1-2 2.7-2.3 3.6s-3.5 3.3-7.3 5.3c-3.7 2-7.6 4.7-8.8 6s-3 2.8-4 3.4c-1.6.9-2 2.6-2.3 9.9-.2 4.8.2 11.5.9 14.9 1.1 5.8 2.3 8.6 8.4 20.4 4.4 8.5 2.3 8.4-2.5-.1-2.4-4.3-6.8-11.4-9.6-15.8-2.9-4.4-5.3-8.2-5.3-8.5s-.9-1.8-2-3.2c-1.5-1.8-1.9-3.4-1.5-5.4.9-4.1-1.9-8-8.3-11.3-4.5-2.4-5.8-3.6-6.2-5.9-.4-2.2-1.8-3.5-6.5-6.1-3.3-1.9-6.4-3-7-2.6-.5.4-2.6 1.4-4.5 2.1-4.8 1.8-10 5.8-10 7.6 0 .8-.7 2.5-1.6 3.9-1.4 2.1-1.4 2.6.1 5.4.8 1.7 1.9 3.1 2.4 3.1s2.6 1.6 4.7 3.5c3.6 3.1 5.4 4 7.7 3.6 1.3-.2 7.5 1.9 13.7 4.8 6.2 2.8 12.9 7.9 17.5 13.1 1.6 1.9 4.2 4.6 5.7 6 3.8 3.6 9.2 11 10.7 14.7.7 1.8 1.7 3.3 2.2 3.3.4 0 1 .8 1.3 1.8.4 1 2.2 3.6 4.1 5.7 2 2.1 5 6.4 6.6 9.4 3.7 6.7 8.5 13.2 19.9 26.9 12.6 15.1 16.8 22.7 22.1 40.2 1.5 4.9 1.9 24.2.6 27.4-.7 1.7-1 1.6-2.8-1.5-2.6-4.6-6.9-13.7-6.9-14.9s-5.5-5-7.3-5c-.8 0-2.7 1.4-4.1 3.1-1.6 1.8-3.3 2.9-4.3 2.7-1.7-.4-6.7 1.9-17.1 8-8.2 4.7-3.3 3.3 6.1-1.7 9.8-5.3 13.4-5.8 12.1-1.7-1 3.2.8 1 3.1-3.7 1.1-2.3 2.7-4.3 3.7-4.5 1.3-.2.9 1.1-1.9 6.3-1.9 3.7-4.3 6.9-5.2 7.2-.9.4-3.5 1.9-5.8 3.5-5 3.4-5.6 3.4-9.2.7-3.6-2.6-6.2-1.5-8.7 3.6-1.8 3.9-2.6 4.2-4.4 2-.7-.8-1.7-1.2-2.2-.9-1.1.7 3.9 4.4 6 4.4.6 0 1.2-1 1.2-2.3s1-3.3 2.3-4.5c3.2-3 4.3-2.8 1.8.4-2 2.5-2.1 3.9-2.1 28.1 0 16.7-.3 25.2-1 24.8-.5-.3-1-2.1-1-3.8 0-2.2-.7-3.7-2.1-4.7-7.7-5.3-7-3-6.7-25.1.2-11 0-19.9-.3-19.9-1.5 0-1.9 3.8-1.9 16.1v13l-10.7-.3-10.8-.3-.3-4.8-.3-4.7h-11.2c-6.2 0-24.4-.3-40.4-.7-34.1-.7-30.7-2.1-30.8 12.7v9.5l39.8.8c21.9.5 40.5.6 41.3.3.9-.3 1.4-2 1.4-4.4 0-2.2.6-4.4 1.3-4.9.6-.5 5.6-.7 11-.5l9.7.4v4.3c0 4 .3 4.5 4.5 7.2 2.6 1.6 4.8 3.8 5 5 .3 1.3.7 3.4 1 4.7.3 1.4 1.7 2.8 3.5 3.6 2.6 1.1 3.3 1 5-.5 1.1-1 2.4-3.1 3-4.9 2.2-6.8 15.9-10.2 18.7-4.6.7 1.4 1.3 1.8 1.3 1 0-3.3-3-6-6.7-6-4.9 0-14.3 5.4-14.3 8.3 0 2 0 2-1.4.2-1.2-1.6-1.6-1.7-3-.6-1.5 1.2-1.6-.6-1.6-21.2 0-21.9.1-22.5 2-22 1.4.4 2.3-.2 3-1.9.7-1.3 2.4-2.9 3.8-3.6 9.1-3.9 16.2-9.5 16.2-13 0-1.2.3-1.3 1.2-.4 2.9 2.9 6.8-1 4.8-4.8-.6-1.1-.9-2-.6-2 .6 0 10.6 20.4 10.6 21.8s-2.6 1.6-3.5.2c-.3-.6-2-1-3.7-1-4.8 0-11.4 7.3-12.4 13.6-.7 4.6-.5 4.9 2.6 7.6 3.8 3.1 7.7 4.2 10.7 3.1 2.4-.9 12.1-9.7 14.6-13.3.9-1.3 1.7-3.1 1.7-4 0-.8-1.3.4-2.8 2.7-1.5 2.4-3 4.3-3.4 4.3-1.4 0-1.3-11.6.1-15.7 1.5-4.2 1.5-4.2 3.3-1.3.9 1.6 3.5 3.8 5.8 5 3.8 2 4 2.2 4 6.8 0 4.8 0 4.8-9.1 10.2-5 3-10 6.4-11.1 7.4-2.1 2-2.1 2 .6 4.3 3.1 2.6 3.3 2.2-4.4 11.8-16.4 20.4-32.9 46.4-37.9 59.7-1.1 2.8-1.1 2.8-17 2.8h-16l-.3-4.7c-.3-4-.6-4.7-2.8-5.3-1.4-.3-19.8-.5-41-.5H68.5v22h82l.3-4.8.3-4.8 15.2.3c12.6.3 15.1.5 14.9 1.7-.6 2.7.7 5.7 3.7 8.9 3.9 4 12.6 6.5 15.7 4.4 1.8-1.2 9.9-11.6 13.9-17.8 2.1-3.2 4.8-7.5 6.1-9.4 1.2-1.9 2.8-4.7 3.5-6.3q1.95-4.5 6.3-1.2c1.7 1.3 1.8 1.6.3 4.7-5.4 11.7-5.8 14.1-2.3 16.3 2.2 1.5 2.7 1.5 5.5.1 1.6-.9 3.4-2.3 3.9-3.1.7-1.4 1.7-1.1 6.6 1.9 4 2.4 6.6 3.4 8.5 3 1.7-.3 4.5.7 8.6 3 5.8 3.2 6 3.5 6.3 7.8.3 4.4.3 4.4 7.7 8.2l7.5 3.7v7.4c0 6.5.3 7.6 2.2 8.9 2.6 1.8 6.1 2 8.9.6 1.6-.9 1.9-2.2 1.9-9 0-7 .2-7.9 2-8.5s2-1.5 2-9.7c0-6.8-.4-9.6-1.5-10.8-1.4-1.5-1.1-2 3.7-5 5-3.2 5.8-3.4 14.5-3.4 5.1-.1 9.6-.6 10.2-1.1.7-.7-1.9-.9-7.7-.7-10.6.4-13.3-1-18.8-9.3-3.7-5.6-3.7-5.6-8-4.9-4.1.6-4.2.5-7.4-4-3.1-4.5-3.1-4.7-.8-4.1 1.7.4 3-.1 4.7-1.9 1.3-1.4 3-2.2 3.8-1.9 1.8.7 8.3-5.4 8.3-7.9 0-1 .9-3.2 1.9-4.9 1.9-3.1 1.9-3.1 2.3 4.8.6 13.9 5.9 20.3 16.9 20.3 3.2 0 6-.3 6.2-.8.3-.4-2.6-.7-6.3-.7-6.2 0-7.2-.3-9.9-2.9-3.8-3.7-3.9-4.3-.3-4.3 6-.1 16.4-1.1 16.9-1.7.4-.3-.4-.6-1.6-.6-4.5 0-8.9-3-10.5-7.1-2-4.9-2-14.1-.1-19.4 1.7-4.7 1.7-4.5.7-4.5-.8 0-2.5 5.5-3.7 11.8-.9 4.7.3 10.6 3.1 14.7 1.3 2 2.4 3.8 2.4 4.1 0 .2-2.1-.7-4.6-2.1-5.7-3.2-7-2.6-1.7.6l3.8 2.4-3.9.3c-2.2.2-4.2-.2-4.6-.8-.4-.7-1-5.4-1.4-10.5-.8-11 .7-24 3.5-30.4 1.1-2.4 1.7-4.6 1.4-4.9-1.2-1.2-4.9 10.1-5.9 17.9-.9 7.1-1.3 8.4-2.4 7.3-.7-.8-2.3-1.1-4-.8-2.4.5-3.1-.1-7-6.1-4.5-6.9-6.8-8.7-8.3-6.4-1 1.7-1.2 1.5-8.3-8.1l-5.5-7.5 3.6-3.8c2.1-2 4-3.7 4.5-3.7.4 0 2.6 1.8 4.9 4.1 4 3.9 4 4.1 2.3 6s-1.8 1.9-5-.6c-4.1-3.1-5.4-3.2-2.6-.2 1.7 1.8 2.1 3.1 1.6 5.3-.8 4 1.5 6.1 4.5 4.2 2.1-1.3 2.8-2.8 1.3-2.8-.4 0-1.3.5-2 1.2-1.8 1.8-3.6-.4-2.7-3.2.5-1.7.9-1.9 1.5-.9.7 1.1 1.2 1 2.8-.4 1-.9 2.4-1.7 3.1-1.7 2.1 0 5.1 4.3 4.5 6.4-.4 1.2-.2 1.6.5 1.2 1.7-1.1 1.3-3.4-1.1-6.6-2.1-2.9-2.1-2.9 1.2-6 4-3.7 3.6-4.9-.4-1.5-3.6 3.1-3.9 3.1-7.1-.1-2.2-2.1-2.4-2.8-1.3-4.1.7-.8 2.1-1.8 3.1-2.2 1.8-.7 1.7-.9-.8-2.5-2.9-1.9-4.5-1.5-2.7.7.9 1 .8 1.7 0 2.5-1.5 1.5-3.8 1.6-3.8.2 0-1.9-2.3-1-6.2 2.5-5.6 5.1-8.1 2.5-3.8-4 1.1-1.7 2-4.4 2-6.1s.9-4.3 2-5.7c2.2-2.8 2.5-3.7 1.1-3.7-1.2 0-5.1 8.5-5.1 11.2 0 1.3-.9 3.4-2 4.8-1.9 2.5-1.9 2.5-5.4-.9-2-1.9-3.6-4.4-3.6-5.5 0-1.6-2.3-3.3-9.8-7.2-11.6-6.2-13.9-8.7-12.3-13.6.6-1.8 2.5-5 4.2-7.1 5.2-6.3 10.2-4.9 32.8 9.6 6.3 4.1 6.3 4.1 4.1 5.9-3 2.4-1.9 3.4 1.4 1.3 2.4-1.6 2.8-1.6 5.2 0 1.4.9 2.8 1.4 3.2 1.1.7-.8-2.8-3.5-4.5-3.6-.7 0-1.3-.4-1.3-.8s-2.5-2.3-5.5-4.1-5.5-3.7-5.5-4.1c0-.5 2.4-2.2 5.3-3.7 7.9-4.4 14.9-8.4 18.2-10.3 1.7-1 5.7-3.2 9-5 13.8-7.5 26.4-14.6 34.3-19.3 4.3-2.6 3.9-2.8-1.7-1.1-1.3.4-2.8-.2-4.5-1.9-2.1-2.1-2.5-3.2-1.9-5.9 1.9-10.4 9.1-14.7 16.8-10 2.6 1.6 6.1 3.5 21 11.6 1.1.6 2.2 1.3 2.5 1.6s2 1.6 3.8 2.9l3.4 2.3-3.5 2.9c-1.9 1.6-4.2 4.6-5 6.7-1.2 2.9-2.8 4.5-6.8 6.7-2.9 1.6-4.8 3-4.2 3.2.7.3 3.3-.8 5.8-2.3 3.3-1.9 5.2-3.9 6.7-7 3.2-7 9.8-10.5 12.8-6.9 1.2 1.5 5.3 1.2 7.6-.6 1.2-1 21.7 9.3 26.1 13 7.5 6.5 11.9 10.7 13 12.7.7 1.1 1.5 5 1.9 8.6.6 6.3.6 6.5-2.4 9-10.2 8.6-20.9 6.7-21.9-3.8-.6-5.8 2.1-14.5 6.1-19.7 3.4-4.5 3.3-5.8-.2-2.4-2.7 2.6-2.7 2.6-10-1.3-3.9-2.2-7.2-3.5-7.2-3s.9 1.4 2.1 2c2 1.1 2 1.2.3 3.1-2 2.2-1.5 2.4 1.9.8 1.9-.9 3.1-.7 5.6.5 3.5 1.9 3.5 2 1.9 6.6-1 3.1-1.2 3.2-1.9 1.2-1.2-3.1-6.4-5.5-8.9-4.2-1.1.6-4.3 5.6-7 11-4 8-5 11-5 15 0 7.6-4.2 17-7.7 17-1 0-1.3-2.2-1.3-9.8 0-9.6-.1-9.8-4-16.2-2.2-3.6-4-7.3-4-8.3s-1.1-2.2-2.4-2.7-3.6-2.5-5.1-4.5c-1.5-1.9-3.5-3.4-4.3-3.3-.9.2-2.1-.8-2.8-2.1-2-3.9-4-4.5-7.3-2.2-1.6 1.2-3.5 2.1-4.3 2.1s-1.8.4-2.3.9c-1.1 1-6.8 4.3-13.2 7.6-2.3 1.2-4.8 2.7-5.5 3.2-.7.6-4.8 3-9.2 5.2-9.8 5.3-15.6 8.9-15.6 9.9 0 .4.9 1.3 2 2 2.6 1.6 2.5 2.8-.6 6.9-1.4 1.9-2.4 3.6-2.1 3.9.2.3 1.6-1 3-2.8 6.2-7.8 16.6-18.7 21.1-22.1 6.2-4.7 9.1-5.5 11.6-3.2 2.6 2.4 2.5 3-.9 5.2-3.9 2.4-28.3 26.4-27.6 27.1.3.3 5.6-4.5 11.7-10.6 6.2-6.1 12.7-12.1 14.3-13.4 1.7-1.2 3.8-3 4.8-3.9 2.4-2.2 14.5-3.4 18.1-1.8 2.4 1.1 2.6 1.7 2.6 7.7 0 5.4-.2 6.3-1.6 5.8-.9-.3-1.8-.6-2-.6s-.4-2.5-.4-5.5-.4-5.5-1-5.5c-.5 0-1 2.2-1 4.9 0 4.5-.2 4.9-2.7 5.6-9.5 2.3-23.9 13.6-28.6 22.6-1.8 3.4-1.8 3.4 1.4-.6 1.8-2.2 5.6-6.3 8.4-9.1 4.5-4.7 5.6-5.3 10.6-5.9 6.1-.8 11 .8 14.5 4.6 2.3 2.6.1 2.5-3.7-.2-1.6-1.1-3.4-1.9-4-1.7-.7.2 1.8 2.1 5.5 4.3 3.6 2.1 6.6 4.2 6.6 4.7s-.9.4-1.9-.2c-4.2-2.2-13.4-.1-18.7 4.4-1 .8-2.8 2.2-3.9 3s-1.7 1.7-1.4 2c.3.4 2.3-.8 4.5-2.5 8.4-6.6 17.2-7.9 22.4-3.2 2.3 2.2 3.2 4.1 3.9 8.8.5 3.3.7 6.5.4 7.1-.5 1.5-11-4.7-13.5-7.9-1.5-1.9-1.8-2-1.8-.4 0 1.1 2.9 3.6 7.8 6.8 4.2 2.8 7.9 5.5 8 6 .5 1.2-2.5 1.2-3.3-.1-.3-.6-1.9-1-3.6-1-3.3 0-4 2.3-1.1 3.9 1.5.9 1.3 1.4-1.9 4.8-2 2.1-4.6 6.4-5.9 9.5-1.9 5-2.5 5.6-4 4.8-4.8-2.6-5.6 1.7-1 5.2 1.7 1.2 3 2.8 3 3.5 0 1.7-1.2 1.6-3.6-.2-2.5-1.9-3.5-1.9-2.7.1.3.9 0 2-.8 2.6q-1.5.9 1.8.3c2-.4 4.3-.1 6.2 1 2.7 1.3 3.1 2.1 3.1 5.5 0 3.5-.6 4.4-6 9.1-3.3 2.9-5.7 5.5-5.5 5.7.2.3 3.1-1.8 6.3-4.6 4.2-3.7 6.4-5 7.9-4.6 3.1.9 8-2.2 10.9-6.8 1.4-2.2 4.1-5.6 5.9-7.4 3.2-3.2 3.6-3.3 7.9-2.5 2.5.4 4.8.6 5.1.3s1.7.5 3 1.8c2.1 2 2.9 2.2 4.3 1.3 1-.6 1.6-2.2 1.5-3.6-.1-2.4.1-2.5 3.5-2 2 .4 5.1 1.2 6.8 1.9 2.8 1.2 3.2 1.8 3.6 6.5.8 7.9 6.1 11.2 11.6 7.3 1.9-1.3 2.2-2.4 2.2-7.7 0-4.3.6-7.4 2-10 1.8-3.3 2-5.6 2-20.1 0-15.9-.4-19.6-2-19.6-1.9 0-16.1-9.4-15.7-10.4.3-.6 1.7-3.9 3.2-7.3 2.7-6.2 2.7-6.2 7.5-5.6 6.1.7 10.5-.8 15.7-5.4 4.3-3.8 4.3-3.8 3.2-11.2-1.2-8.7-1.9-9.9-10.4-17.1-3.5-3-6.4-5.8-6.4-6.2-.1-.9 10.3-13.3 16.8-20.1 2.5-2.6 5.4-4.7 6.4-4.7 3.3 0 7.7 2.9 7.7 5.1 0 3.3 6.2 8.7 16.6 14.4 34.4 19 39.5 21.6 52.4 26.6 5.8 2.2 14.9 5.8 20.4 8 9.8 3.8 9.8 3.8 12.6 1.6 4.6-3.6 7-8.8 7-14.9 0-5.4 0-5.4-13.2-11.9-7.3-3.6-14.7-7.2-16.5-8-4-1.7-3.9-1.1-3.5-39.2l.3-27.7h41l-.3-11.3-.3-11.2h-82v22l19.5.5 19.5.5.3 30.9c.1 17-.1 31.3-.5 31.7-.5.4-4.8-1.1-9.8-3.5-14.2-6.8-22.8-10.4-34.5-14.5-14.5-5-16.1-5.4-21.1-4.8-3.1.4-6.4.1-9-.8-2.3-.8-5.9-1.5-8-1.5-4.9 0-8.2 2.9-19.9 17.4-4.7 5.8-9.1 10.5-9.8 10.6-1.4 0-14-6.5-22.2-11.5-4.7-2.8-6.2-3.3-10-2.8-4.1.4-5.5-.1-15.3-5.6-6-3.4-11.2-6.1-11.5-6.1-.4 0-1.8-.9-3.2-2-3.8-3-8.1-2.5-12.2 1.2-6.2 5.6-7.7 14.2-3.1 17.8 3 2.3 2.8 2.7-4 6.4-2.6 1.4-5.8 3.2-7 4-1.2.7-5.1 2.9-8.7 4.8-10.4 5.6-18.4 10-19.5 10.8-.5.4-4.6 2.6-9 5s-9.3 5.2-10.8 6.3c-2.8 1.9-2.8 1.9-7.2-.4-4.1-2.2-4.6-2.9-6.5-9.2-2.1-6.9-8.6-20.1-12.1-24.5-1.1-1.4-1.8-2.7-1.6-2.9s3.1.5 6.4 1.6c12.3 3.9 23.3 5.5 39.3 5.5 9.7 0 17.1-.4 19.7-1.2 3.7-1.1 4.6-1 6.8.4 2.3 1.5 2.8 1.5 7-.2 2.5-1.1 4.5-2.2 4.5-2.7 0-1.2-2.3-.8-4.4.8-2.4 1.8-6.9 2-6.4.3.2-.6 2.5-1.7 5.1-2.5 5.6-1.6 6.2-2.7 1-1.9l-3.8.5 3.4-1.5c3.2-1.4 3.3-1.6 1.7-3.2-1.3-1.4-2-1.4-3.6-.4-2.3 1.4-3 1.5-3 .4 0-.4 1.4-1.3 3.2-2 1.7-.6 2.9-1.4 2.6-1.8-.4-.3-1.5-.1-2.6.5-1.8 1-3.5 1.4-10.5 2.3-1.5.3-1.8-.7-2.2-7.2-.2-4.1-.7-9.2-1.1-11.3-.4-2.5-.2-3.7.6-3.7 1.7 0 5.2 1.9 7.8 4.3s3 .7.5-1.9c-3-3-8.2-4.6-12.5-3.9-2.2.4-10.4 4-18.3 8.1-7.8 4.1-14.7 7.4-15.3 7.4s-.8-2.2-.5-5.9c.4-3.8.2-6.1-.6-6.5-.8-.5-1.1 1.2-1.1 5.8 0 3.6-.2 6.6-.5 6.6-1.4 0-10.4-5.1-11.1-6.2-.9-1.4-.7-14.8.2-15.7.3-.3.8 0 1.2.6.9 1.3 7.4 5.3 8.7 5.3 1.4-.1-3.7-3.9-5.1-4-2 0-3.8-3-2.6-4.2 1.1-1.1 19.8-11.3 34.9-19l8.2-4.2 6.8 3.2c6.7 3.1 6.8 3.2 7.6 7.9 1.1 6.4 2.3 7.6 6.8 6.9 3.7-.6 16.9-7.5 16.9-8.8 0-.4-4 1.4-9 4-10.3 5.4-12.3 5.2-12.8-1.4-.2-2.1-.8-4.3-1.3-4.9-1.7-1.7-.9-3 3.4-5.3s4.3-2.3 10.2.8c3.2 1.7 6.3 2.9 6.9 2.7s-1.9-1.8-5.6-3.6c-4.8-2.2-6.6-3.6-6.1-4.6.3-.8.7-1.5.9-1.5s3.7 1.7 7.9 3.7c4.4 2.2 7.5 4.4 7.5 5.3s.9 1.5 2.3 1.5c1.2 0 6.6 3.2 12 7 11.4 8.2 11.3 7.7 5.4 21.2-2 4.6-3.3 8.3-2.8 8.3s2.7-4.5 4.9-10.1c3.3-8.1 3.9-10.4 3.1-12.2-1.1-2.2-17.7-14.3-25.7-18.7l-4.2-2.4.2-34 .3-34.1 20.3-.3 20.3-.2-.3-11.3-.3-11.2-40.7-.3-40.7-.2zm80.5 8.9v10.2l-21.7-.6c-12-.4-29.8-.7-39.5-.7H297v-19h79zm-162.9-5.6c0 1.3-15 9.4-17.3 9.5-3.7.1-1.5-1.9 7-6.4 8.6-4.5 10.4-5 10.3-3.1m1.9 2.9c0 .2-3.3 2.3-7.2 4.7-4 2.3-8.1 4.9-9 5.7-2.1 1.8-6.8.8-6.8-1.4 0-1.2.6-1.5 2.6-1 1.4.4 3.1.3 3.7-.2 1.7-1.4 15-8.2 15.9-8.2.4 0 .8.2.8.4m3 3.5c0 .4-1.2 1.4-2.7 2.2-1.6.7-4.7 2.6-7 4.1-4 2.7-8.3 3.7-8.3 2 0-1.3 15.4-9.9 16.8-9.4.6.2 1.2.7 1.2 1.1m7.3 1.6c-.2 1.2-15 9.5-16.9 9.5-3.4 0-1.7-2.1 5.4-6.3 7.1-4.3 12-5.7 11.5-3.2m2.5 4.2c-.2 2.1-1.7 3.4-8.3 6.9-4.4 2.4-8.4 4.4-8.8 4.4-.5 0-.7-1-.5-2.2.2-1.6 2.7-3.6 8.3-6.9 4.4-2.6 8.4-4.8 8.8-4.8.5-.1.7 1.1.5 2.6m-93.1 4c5 2.7 6.5 4.2 5.7 5.5-.7 1-11.1 5.8-12.7 5.8-1.7-.1-11-5.4-11.4-6.6-.3-.8 10.8-7.2 12.9-7.3.4-.1 2.9 1.1 5.5 2.6m66.2.8c.6.3 1.1 1 1.1 1.6 0 1.2-4.7 1.2-5.5-.1-1.1-1.8-3.8-1-10.7 3.1-3.8 2.3-7.1 3.9-7.4 3.6-1.1-1 .5-2.5 5.8-5.2 2.9-1.5 5.7-3.1 6.3-3.6 1-1 8.6-.6 10.4.6m28 1.1c-.6.8-1.5 1.4-2 1.4-.4 0-3 1.3-5.7 2.9-5.6 3.3-9.2 4.6-9.2 3.4 0-.7 3.6-2.9 14.5-8.9 2.5-1.4 4-.7 2.4 1.2m-22.5 0c.9.4 1.6 1.8 1.6 3.3s.9 3.7 2 4.9 2 2.8 2 3.6.5 1.8 1 2.1c.6.3 1 3.8 1 7.7 0 7.5-1.2 8.7-1.6 1.6-.2-3.7-.9-5.9-3.5-11-.9-1.7-4.9-12-4.9-12.6 0-.4.7-.2 2.4.4M196 391c0 .5-2.1 2.4-4.7 4.1-2.7 1.8-4.9 3.6-5.1 4.1-.6 1.3-3.9.9-5.2-.7-1-1.2-.9-1.6.6-2.2 1.1-.4 3.9-1.9 6.3-3.5 4.5-2.8 8.1-3.6 8.1-1.8m36-.2c0 .7-16.2 9.2-17.5 9.2-1.9 0 .3-2 4.8-4.2 2.8-1.5 6.1-3.4 7.2-4.2 2.1-1.6 5.5-2.1 5.5-.8m-30 1.3c-.8.5-3.7 2.1-6.5 3.5-4.1 2-4.5 2.1-2.5.5 2.8-2.3 8-5.1 9.5-5.1.6 0 .3.5-.5 1.1m-21.8 7.9c2.6 2.2 4.9 2.5 6.5.9.7-.7 1.2-.2 1.8 1.8.3 1.5 1.2 3.5 1.9 4.3 2 2.3 2.7 7.5 1.5 11-1.8 5-3.1 3.6-2.3-2.7.6-5.5.6-5.6-1.6-5-1.8.5-2.1.2-1.7-1.3.7-2.8-.8-4.7-2.7-3.1s-3.4.7-4.7-2.6c-.5-1.5-1.5-2.3-2.3-2-.7.3-1.9 0-2.5-.6-1-.9-1.6-.7-2.8.8-1.5 1.9-1.5 1.9-.8-1 .3-1.7 1.1-3.2 1.7-3.4s1.8-1.1 2.7-2c1.5-1.5 1.6-1.5 2.3.6.3 1.3 1.7 3.2 3 4.3m24.8-4.2c0 1.1-2.3 2.9-6.2 5-7.1 3.7-8.8 3.9-8.8 1.4 0-1.1 2.4-3 6.8-5.3 7-3.8 8.2-3.9 8.2-1.1m-82.6 1.3c3.1 1.6 5.6 2.7 5.6 2.3 0-.5.5-.3 1.1.3 1.4 1.4-.9 11.3-2.7 11.3-1.4 0-6.7-4.1-6.1-4.7.3-.2 1.4.1 2.5.8s2.7.9 3.6.6c2.6-1 1.5-4.7-1.9-6.6-1.7-.9-3.7-2.2-4.5-2.9s-2.4-1.9-3.5-2.7c-3.6-2.6.2-1.6 5.9 1.6m109.5-2.8c-.8.8-13.5 7.3-15.4 8.1-3.4 1.3-.6-.8 6.3-4.6 3.7-2 7.3-3.7 8.1-3.7.8-.1 1.2.1 1 .2m-88.9 2.2c.7.8 1.6 1.5 2.1 1.5 1.9 0 8.9 5.1 8.4 6-.4.6-2 1.7-3.7 2.6-2.9 1.5-3.3 1.5-7.2-.5-2.2-1.1-5.8-2.7-7.8-3.5-2.1-.8-3.8-2-3.8-2.5 0-1.2 6.8-5 9.1-5.1.9 0 2.2.7 2.9 1.5m-25 2c0 .2-.7.2-1.5-.1-.8-.4-1.5-.1-1.5.5s1.2 1.3 2.8 1.7c5 1.1 8.2 2.6 8.2 4 0 1.6-3.6 1.9-4.5.4-.3-.6-1.9-1-3.5-1-3.3 0-5.5-2.9-4.5-6 .5-1.6 1-1.8 2.6-1 1 .6 1.9 1.3 1.9 1.5m113.7.3c-2.1 2.3-2.2 4.1-.2 4.8 2.4 1 1.7 4.1-1.2 6.2-2.9 2-12.8 7.2-13.8 7.2-.3 0-.5-2.8-.5-6.3 0-6.3 0-6.3 8.3-10.4 4.5-2.2 8.4-3.9 8.6-3.7s-.3 1.2-1.2 2.2m-29.7 2.7c0 .3-.2.5-.5.5s-.5-.2-.5-.5.2-.5.5-.5.5.2.5.5m6 1.2c0 1.2-2.5 3.1-7.1 5.6-6.7 3.7-7 3.7-6.7 1.6.2-1.6 2.1-3.3 6.3-5.6 7-3.8 7.5-3.9 7.5-1.6m-8.5.3c-.3.5-1.1 1-1.6 1-.6 0-.7-.5-.4-1 .3-.6 1.1-1 1.6-1 .6 0 .7.4.4 1m-25.5 3.9c0 2.2-.4 4.3-1 4.6-.6.4-1-1.2-1-3.9 0-2.5.5-4.6 1-4.6.6 0 1 1.8 1 3.9m2.6 3.6c-1.1 12.1 1.2 25.5 6.1 34.7.2.5 0 .8-.6.8s-2.2-2.6-3.7-5.8c-2.3-4.9-2.7-7.4-3.2-17.8-.4-11.5.2-19.4 1.5-19.4.3 0 .3 3.4-.1 7.5m-42.6-3.8c0 1.6-.4 3.4-.9 4.2-1.4 2.2-3.1.3-3.1-3.5 0-2.7.4-3.4 2-3.4 1.5 0 2 .7 2 2.7m62-2.2c0 .2-1 1-2.2 1.6-2.1 1.1-2.2 1.1-.9-.4 1.3-1.6 3.1-2.3 3.1-1.2m-59.9 7.8c-.8.8-1.1.1-1.1-2.4 0-4.6 1.4-6 1.8-1.9.2 1.8-.1 3.7-.7 4.3m9.7.5c.3 2.8 0 3.2-2 3.2-4.1-.1-6-2.4-5.2-6.4.6-3.6.6-3.6 3.8-1.8 2.3 1.3 3.2 2.6 3.4 5m9.2-5c0 1.1-.9 2.7-1.9 3.6-1.5 1.4-2.4 1.5-4 .6-2.8-1.4-2.7-1.7 1.2-4 4-2.5 4.7-2.5 4.7-.2m14.7-.1c-.4.3-.7 0-.7-.7s.3-1 .7-.7c.3.4.3 1 0 1.4m39.8-.7c-.4.6-3 2.3-5.8 3.8-7.2 3.7-8.7 4.3-8.7 3.2 0-.5 3-2.5 6.8-4.4 7.1-3.7 8.7-4.2 7.7-2.6m-30.4 7.3c-1.3 1.3-1.5-1.5-.3-5.3.7-2.4.7-2.3 1 .9.2 1.8-.1 3.8-.7 4.4m4.8-1c-.8 4.7.3 24.5 1.7 29.4.7 2.7-1 3.1-2.1.5-1.3-3.1-1.8-29.5-.6-32.6 1.6-4.1 2.1-2.9 1 2.7m27.1-.3c0 2.4-.8 3.3-5.2 5.8-2.9 1.6-6.3 3.3-7.5 3.7-2.1.6-2.3.3-2.3-2.7s.5-3.6 6.8-6.9c3.7-2 7-3.4 7.5-3.2.4.2.7 1.7.7 3.3m-39.1 4.1c.5 3.5 1.2 8 1.5 9.9l.6 3.5-1.6-3.4c-1.5-3.3-3.3-18.2-2.1-17 .4.3 1.1 3.4 1.6 7m-8.2 9.2c10.8 17.5 13 21.5 10.8 19.7-.9-.7-2.3-2.7-3.2-4.4s-5.1-8.4-9.4-14.8c-4.4-6.5-7.9-12.2-7.9-12.8 0-2.7 2.1 0 9.7 12.3m23.4-1.8c-.6 9.8-.7 10.5-1.4 6-.4-2.8-.2-7.7.3-11s1-6.2 1-6.4.2-.2.3 0c.2.2.1 5.3-.2 11.4m-36.6-9.9c1.3.6 9.9 12.1 12.9 17.4 1.6 2.9-5-4.5-8.3-9.3-1.8-2.6-4.1-5.3-5.2-6-3-1.9-2.6-3.3.6-2.1m.5 4.9c.7.8.8 1.5.2 1.5-.5 0-1.5-.7-2.2-1.5s-.8-1.5-.2-1.5c.5 0 1.5.7 2.2 1.5m40.9 6.1c-2.5 2.7-4.1 2.4-1.7-.3.9-1 1.9-2.9 2.4-4.3.8-2.5.8-2.5 1.2-.2.2 1.5-.5 3.3-1.9 4.8m-12.2 4.1c-.2 1.6-.4.3-.4-2.7s.2-4.3.4-2.8c.2 1.6.2 4 0 5.5m10.3-7.2c0 .3-.2.5-.5.5s-.5-.2-.5-.5.2-.5.5-.5.5.2.5.5m340.3 16.4 31.7.1v19h-79v-19.8l7.8.3c4.2.1 22 .3 39.5.4m-341.9 11.3c4.9 11.6 6.6 15 11 21.8 5.5 8.5 7.7 11.2 15 19 10 10.5 19.6 24.7 19.6 28.8 0 .5.8 2.6 1.9 4.8 1 2.1 2.4 7.2 3.2 11.2 1.1 6.7 2.9 10.7 2.9 6.6 0-2.3-3.7-16-5.5-20.7-.4-.9-.3-1.7.2-1.7 1.7 0 15.3 22.8 15.3 25.7 0 .5-1.5.7-3.4.5-2.6-.3-4.1.3-6.8 2.7-2 1.7-4.2 4.5-5 6.1-1.5 3.1-1.5 3-2.2-5.2-.4-4.9-1.9-11.8-3.6-16.8-5.6-16.5-8.3-21-22.1-37.7-13-15.7-17.3-22.2-22.7-34-4.7-10.2-5-11.8-2.4-13.2 2.6-1.6 3.1-1.4 4.6 2.1m-9.8-.4c1.6 1 5.7 9.3 5 10-.3.3-.8.3-.9.1-1.5-1.7-6.7-9.9-6.7-10.3 0-.8 1.3-.7 2.6.2m47.9 49.2c7.9 5.3 28.3 13.4 41 16.1 9 2 33.4 1.7 41.5-.4 6.2-1.7 6.5-1.7 7.8 0 2 2.8 1 4.4-3.5 5.9-5.2 1.8-19 3.2-26.3 2.8-10.2-.6-18.5-1.5-21.5-2.4-1.6-.5-7-1.9-12-3.1-4.9-1.2-11.9-3.5-15.5-5.1-5.4-2.5-7.3-4-11.3-9.4-5-6.8-5.1-7.6-.2-4.4m222.2 3.1c4.7 2 5.5 4.2 2.3 5.9-1.7.9-2.8.7-5.4-.9-6.3-4-8.6-3.1-17.3 6.6-15.7 17.5-14.6 16.4-16.7 14.8-1.9-1.4-1.9-1.5 0-3.2 1.1-1 2.7-2.7 3.5-3.9 5.1-7.4 16.8-20.4 19.4-21.5s8.8-.1 14.2 2.2m5.1 7.2c-2.3 4.1-4.7 5.4-5.5 3-.2-.6.6-1.5 1.9-1.8 2.9-.9 3.8-2.3 3.8-5.6s1.4-4.8 1.8-2c.2 1.2-.7 4-2 6.4m20.5-3.2c11.3 3.8 17 6.2 31.5 13.1 6.3 3 6.3 3 5.7 7.1-1 6-3.8 11.8-7.3 15-3.5 3.4-.7 4.4-26.2-9.5-18-9.9-26-14.8-26-16.1 0-.5.8-2.1 1.9-3.5 1-1.5 2.4-4.4 3-6.5 1.6-4.8 2.4-4.7 17.4.4m-229.1 15.7c2 3.2 4.6 7.5 5.7 9.7 3 5.8 7.2 17.5 6.3 17.5-1.7-.1-3-1.8-5.2-7.4-2.7-6.8-10.7-19.3-15.6-24.5-1.8-2-3.4-3.9-3.4-4.3s1.9.2 4.3 1.3c3 1.5 5.3 3.7 7.9 7.7m139.8-6.1c2.7 1.6 5 3.1 5 3.4 0 1.6-5.3 1.9-6.9.4-1-.8-2.2-1.5-2.7-1.5s-2.2-1.1-3.9-2.5l-3-2.4 3.2-.1c1.8 0 5.5 1.2 8.3 2.7m-63-1.3c0 .3-.5.8-1.2 1.2s-.8.3-.4-.4c.7-1.2 1.6-1.6 1.6-.8m202.5 13.4c16.3 7.7 28.9 14.1 27.7 14.1-.7.1-3.4-.9-6-2-2.6-1.2-6.3-2.8-8.2-3.7-1.9-.8-5.7-2.6-8.5-3.9-9.4-4.6-10.3-4.7-14.1-.6-5.8 6.1-5.4 12.9.9 14.9 1 .3 7 3 13.1 5.8 6.1 2.9 12.6 5.8 14.4 6.5 3.3 1.4 4.6 3.7 1.5 2.8-1-.3-7.6-2.9-14.8-5.7-7.1-2.8-16-6.3-19.7-7.7-3.8-1.4-6.8-3.1-6.8-3.8 0-.6 1.2-2.2 2.6-3.6 3.4-3.2 5-6.4 5.9-11.9 1.1-7-.1-6.8 12-1.2m5.1 6.4c4.9 2.3 12.5 5.6 16.9 7.4 8 3.3 8 3.3 7.8 7.3-.2 4.3-3.5 10.1-5.7 10.1-2.4 0-35.6-15.6-35.6-16.7 0-1.8 5.6-12.2 6.6-12.2.6-.1 5.1 1.8 10 4.1m-177 7.8c2 2.2 3.9 3.8 4.3 3.6.9-.6 3.7 1.1 3 1.8-.2.3-2.4-.1-4.7-.7-3-.9-6.7-1.1-12.4-.5-4.5.4-8.3.6-8.5.4s1.1-1.1 2.9-2 5.1-2.7 7.3-4c2.2-1.4 4.1-2.5 4.3-2.5.1-.1 1.8 1.7 3.8 3.9m46.4 5.4c-.6.9-1.3 3.7-1.3 6.4-.2 4.3-.4 4.8-2.3 4.4-1.7-.3-2.6.7-4.9 5.7-2.8 5.9-4.5 7.6-4.5 4.7 0-2.8 10.3-22.5 11.9-22.9 2.3-.5 2.6 0 1.1 1.7m-43.9.6c2 .6 3.9 1.8 4.3 2.8.8 2.4 2.9 5.6 4.4 6.5 3.4 2.2-.9 10.7-5.4 10.7-2.3 0-2.4-.3-2.4-6 0-5.3.2-6 2-6 1.1 0 2-.5 2-1 0-.6-1.4-1-3-1-1.7 0-4.4-.7-5.9-1.4-2.2-1.2-4.2-1.3-9.2-.6-5.2.7-6.8.6-8.7-.6-1.3-.9-2.1-1.8-1.8-2.1.6-.6 10.8-1.9 16.6-2.2 1.9 0 5.1.4 7.1.9m48.9-.2c0 .4-.9.8-2 .9s-1.8-.2-1.5-.8c.7-1.1 3.5-1.2 3.5-.1m-186.8 4.4c-.7.7-1.2.8-1.2.2 0-1.4 1.2-2.6 1.9-1.9.2.3-.1 1.1-.7 1.7m147.4-.7c1.5 1.1 1.6 1.4.3 1.5-.8 0-2.4-.7-3.5-1.5-1.5-1.1-1.6-1.4-.3-1.5.8 0 2.4.7 3.5 1.5m39.4.6c0 2-2.1 4.9-3.5 4.9-1.6 0-1.9-1.8-.9-4.4.7-1.8 4.4-2.2 4.4-.5m-37.5 3.7c.6.4 2.5 3.2 4.4 6.2 3.4 5.5 3.4 5.5 3.4 20.3.1 10.1-.3 15.1-1.1 15.9-1.5 1.5-1.6 9.4-.2 10.3 1.2.8 1.3 13.2.1 13.9-.5.3-1.4-.1-2.1-.9-1.1-1.3-1-1.8.4-2.8 1.3-.9 1.6-2 1.1-4-.7-2.6-2-3.5-2.7-1.9-.1.4-1.4.2-2.8-.6-2.5-1.4-2.5-1.4.3-.8 2.5.6 3.5-.2 2.1-1.7-.3-.3-.7-6.1-.8-12.9-.1-10.7-.5-13.1-2.7-18.3-1.7-4-3-5.9-4-5.6-3.1.8-4.3.5-4.6-.9-.2-1 .8-2 3-2.8s3.9-2.4 5-4.7c2.1-4.4 2.1-5.4 0-7.7-1.6-1.8-.8-2.5 1.2-1m38.6 7.5c-.4.4-1.6-.2-2.6-1.3-1.8-2-1.8-2.1.1-3.9 1.9-1.7 1.9-1.7 2.6 1.3.4 1.7.3 3.4-.1 3.9m-97.8.7c-3.5 3.4-5.7 4.8-6.8 4.4-2.5-1-1.3-2.6 4.5-6.2 7.6-4.5 8.3-4 2.3 1.8m92.6-1.9c2.4 1.9 2.4 1.9-3.9 15.4-3.5 7.4-6.6 13.5-7 13.5-.3 0-1.6-.7-2.8-1.6-1.3-.9-2.6-1.3-3-1-.3.4.4 1.4 1.7 2.2 3.6 2.6 1 4.1-3.3 2-4.7-2.2-5-3.1-2-5.1 1.4-.9 3.2-3.3 4-5.3 3.7-9.2 10.9-22.2 12.4-22.2.8.1 2.6 1 3.9 2.1m7.1 4.4c0 .3-.2.5-.5.5s-.5-.2-.5-.5.2-.5.5-.5.5.2.5.5m-1.7 1.7c1.2.7 2.3 1.4 2.5 1.4.3.1-11 24.5-12.7 27.4-.5.9-1.9 1.4-3.5 1.2-1.5-.2-3.4.2-4.2.8-2.7 2.3-1.6-2.9 1.1-5.3 2.2-1.9 11.6-19.8 13.2-25 .6-2 .7-2 3.6-.5m-52.6 2.7c1.3 2.8 3.7 4.3 6.7 4.5 1.7.1 2.2 1.2 3.2 6.6.7 3.6 1.3 9 1.3 12 0 5.7-.4 5.4-2.9-2.5-1.6-5-8.4-14.9-11.8-17.4-1.5-1-4.5-2.2-6.7-2.6-4-.7-4-.7-1-2 4.7-2.1 9.7-1.5 11.2 1.4M192 569.4c0 .3-.4.8-1 1.1-.5.3-1 .1-1-.4 0-.6.5-1.1 1-1.1.6 0 1 .2 1 .4m28.6 4.8c-3.6 3.4-4.9 5.4-5.9 9.5s-1.6 5-2.5 4.1c-1.7-1.7-1.5-6.7.4-10.3 2.7-5.2 5.5-7.5 9.2-7.5 3.4 0 3.4 0-1.2 4.2m135.1-2.5c-.4.3-.7 0-.7-.7s.3-1 .7-.7c.3.4.3 1 0 1.4M229.5 573c.8 1.3-.5 1.3-2.5 0-1.3-.8-1.3-1 .2-1 .9 0 2 .4 2.3 1m22.8 2.6c5.9 3 6.1 3.6 2 5-4.4 1.6-7.3 1.8-7.3.5 0-1.7 1.3-7.1 1.7-7.1.2 0 1.8.7 3.6 1.6m-23.6 0c1.3.4 2 1.1 1.6 2-.3.9-1.3 1.2-2.3.9-1.3-.4-1.9.2-2.3 2.5-.4 1.8-1.5 3.4-2.8 3.8-2 .8-1.9.9.8 2.1s2.7 1.3.8 2.7c-2.8 2.1-7.9 1.4-8.3-1.1-.4-2-.4-2 1.1 0 .9 1.1 1.9 1.6 2.4 1.1.4-.5.2-1.1-.4-1.3-2.7-1-1.1-6.5 3-11.1 2.2-2.3 2.9-2.5 6.4-1.6M367 589.3c1.1 7.6.6 18.2-1 19.2-1.7 1-2-1.4-.9-7.1 1-5.4.4-14.2-1.7-22.9-.4-1.5-.1-1.4 1 .5.7 1.4 1.9 6 2.6 10.3m-137-7.2c0 1.7-2 4.9-3 4.9-1.5 0-1.2-4.7.3-5.3 2-.9 2.7-.8 2.7.4m32.5 5.1c2.5 2.9 5.3 6.6 6.2 8.3 1.4 2.7 9 13.3 10.4 14.5.6.5 10.4 14.7 12.9 18.6 1.3 2.1 1.3 2.5-.2 4-2 2-2.7 1.6-6.4-3.8-1.6-2.4-5.7-8.3-9.3-13.3-3.5-4.9-6.8-10.3-7.4-12-.6-1.6-2.4-4.4-4.1-6.1s-4.1-4.6-5.4-6.3c-3.3-4.4-6.5-4.1-9.8.9-2.5 3.7-5.6 5.2-6.8 3.2-.9-1.5 5.8-11.2 8.4-12.1 5-1.9 6.7-1.2 11.5 4.1m-16.7-2.5c-2 4.7-5.6 9.3-7.2 9.3-1.1 0-2.7.7-3.7 1.6-1.8 1.6-6.9 1.3-6.9-.4 0-.4 2.6-2.3 5.8-4.2 3.1-1.9 6.8-4.2 8.1-5.2 2.4-1.8 4.5-2.4 3.9-1.1m-99.8 2.1c4 .4 4 .4 4 9.8v9.4H70v-20.2l36 .3c19.8.2 37.8.5 40 .7m265.3 4.8c7.5 4.5 7.7 4.7 7.2 7.8-.4 1.7-.9 7.1-1.3 12-.5 5.7-1.1 9.1-1.9 9.4-1 .3-1.3-1.8-1.3-8.1 0-8.5 0-8.6-3.2-10.8-1.8-1.2-3.5-2.4-3.7-2.6-.3-.2.5-1.7 1.8-3.3 2.7-3.7 1-4-1.8-.4-2.8 3.5-2.7 4 1.4 6.6 3.2 2.1 3.5 2.7 3.5 7.5 0 2.9-.4 5.3-1 5.3s-1 4-1 10c0 6.4-.4 10-1.1 10-.5 0-.7-.5-.4-1.1.4-.6-1.4-4.2-3.9-8-4-5.9-4.3-6.9-2.7-6.9 4.7 0 6.6-5.7 3-8.8-1.1-.9-2.7-3.2-3.6-5-.8-1.7-2.2-3.2-2.9-3.2-1.9 0-2.9-2.7-1.7-4.3.5-.6 1.7-3.3 2.7-6 1-2.6 2.3-4.7 3-4.7.6 0 4.6 2.1 8.9 4.6M260 594.3c2.2 3 4 6.5 4 7.8 0 1.6-2 4.3-6.6 8.6-3.7 3.5-7.1 6.3-7.5 6.3-1.5 0-1-6.8.6-8.4.9-.8 3.8-2.7 6.5-4.2 2.8-1.5 5-3.1 5-3.5 0-.8-5.4-4.9-6.4-4.9-1.5 0-.4 1.8 2 3 2.5 1.4 2.5 1.4.2 3.2-1.3 1-2.7 1.8-3.3 1.8-.5 0-2.3 1.2-4 2.6-3 2.6-3 2.6-3.3 17-.3 10.9-.7 14.6-1.7 15-1.8.7-9.5-3.3-9.5-5.1 0-.7 2.7-7.6 6-15.2 4.3-9.7 6-14.8 5.8-17-.3-2.5.1-3.4 1.9-4.4 1.3-.7 2.8-2.7 3.5-4.6.7-1.8 1.5-3.3 2-3.3.4 0 2.5 2.4 4.8 5.3m-9.4-.5c-1.8 1.6-1.8 1.6-.6-.6.6-1.3 1.4-2.1 1.8-1.8.3.4-.2 1.4-1.2 2.4m130.2.2c2.4 1.5 3.2 2.7 3.2 4.9 0 3.5 1.3 4.7 3 2.6 1.6-1.9 6.6-2 7.3-.1.3.9-.4 2.1-1.9 3.1-1.5.9-2.9 3.3-3.6 6-.7 2.4-1.5 4.2-1.9 3.9-.4-.2-1 0-1.3.5s2.1 4.8 5.4 9.7c3.3 4.8 5.7 9 5.4 9.3s-1.4-.5-2.6-1.9c-2-2.5-2-2.5-1.5-.2.4 1.5.1 2.2-.6 1.9-.7-.2-1.3-2.3-1.5-4.7-.3-4.3-2.9-9.2-6.5-12-4.4-3.4-9-8.6-10-11.4-.4-1-.4-2.9-.1-4.2.6-2.2 1.1-2.4 3.8-1.9 3.1.5 3.1.5.9-1.1-2.1-1.5-3.3-6.4-1.5-6.4.4 0 2.2.9 4 2m-137.7 3.1c4.8 2.5 3.8 7.3-6.6 30.4-.7 1.6-2.6 6.1-4.1 10-1.5 3.8-4.1 9.3-5.7 12.1l-2.9 5-5.2-5.1c-4.4-4.5-6.1-5.5-11.3-6.6l-6.2-1.4 3.4-5c1.9-2.8 4.2-6.1 5.2-7.4 7.7-10.6 10.8-14.7 11.3-15.1.3-.3 2.1-2.5 4-5 9.4-12.3 13-14.7 18.1-11.9m24.1 10c-.6 1.9-1.8 5.8-2.6 8.8-1.5 5.1-9.3 19.3-12.6 22.9-7.6 8.3-17 21.8-18.8 27.1-1.9 5.4-1.4 5.7 2.3 2.1 3.5-3.4 3.5-3.4 3.5-.7 0 3.4-5.5 8.9-8.4 8.5-3.2-.5-3.1-4.7.2-12.1 2.5-5.4 8.4-14.5 12.7-19.3 10.1-11.5 21.5-33.6 21.5-41.6 0-2 .1-2.1 1.6-.6 1.3 1.3 1.4 2.2.6 4.9m132.3-2.1c.4.6-.5 1-2.1 1-4.4 0-7.2 5.8-4.2 8.8.9.9.7 1.2-1 1.2-5.5 0-.5-11.9 5-12 .9 0 2 .4 2.3 1m20.2 8.2c-.2 1.8-.4.6-.4-2.7s.2-4.8.4-3.3.2 4.2 0 6m-146.9-.2c3.3 5.2 3.9 7 2.2 7-2.1 0-.8 3.4 4 10.6 2.8 4.1 4.8 8 4.4 8.6s-1 2.5-1.3 4.1c-.6 2.9-.7 2.9-5.2-3.9-6.9-10.4-7.3-11.2-5.7-13.1 1.1-1.4 1-1.5-.9-.9-1.7.5-2.6.1-3.9-1.9-1.5-2.4-1.5-2.7 0-4.4.9-.9 1.6-2.5 1.6-3.4 0-2 1.1-2.2 2.8-.5.9.9.8 1.6-.6 3.1-1.2 1.5-1.3 1.9-.3 1.5.8-.2 1.9-1.2 2.5-2.2.9-1.4.6-2.2-1.6-4.1-2.6-2.2-3.8-5.5-2-5.5.4 0 2.2 2.3 4 5m128.1-3.6c1.3 1.6-.4 6.6-2.3 6.6-2.3-.1-4.6-2.8-4.6-5.4 0-2.2.4-2.6 2.9-2.6 1.6 0 3.4.6 4 1.4m-139.9 3c-2.5 6.6-10.9 21.6-12 21.6-.3 0-.4-3-.2-6.8.3-6.7.3-6.7 6-11.9 6.4-5.9 7.6-6.4 6.2-2.9m94.7-1.7c-.4.3-1 .3-1.4 0-.3-.4 0-.7.7-.7s1 .3.7.7m-65 7c2 3.2 4.1 6.1 4.7 6.4 1 .8.1 3.9-1.2 3.9-1.1 0-10.2-13.1-10.2-14.8 0-2.9 3.2-.8 6.7 4.5m75.1-4.1c2.6.5 3 3.2.5 3-2.7-.2-2.9 4-.4 5.6 2.6 1.6 2.6 3.8 0 9-1.5 2.9-1.7 4.3-.9 4.8s.6 1.1-.5 2c-1.3 1.1-1.5 1-.9-.4.3-.9.2-1.6-.4-1.6-.5 0-1.3.7-1.6 1.5-.4 1.2-1.4 1.4-4 .9-4.3-.7-6.2.2-4.5 2.2.9 1.1.7 1.4-1.4 1.4-1.8 0-3.1-1-4.7-3.5-1.2-1.9-2.9-3.9-3.8-4.5-1.4-.8-1.3-.9.7-.7 2.5.2 2.9-.3 5.7-7.2 1-2.4 3.1-5.7 4.6-7.3 1.5-1.7 2.8-3.8 2.8-4.7 0-1.8 2.2-1.9 8.8-.5m40.2-.2c0 1.6-2.8 4.2-3.6 3.3-.3-.3-.3-1.5.1-2.6.7-2.3 3.5-2.9 3.5-.7m-27.4 1.3c.9 1.2 1.3 4.9 1.4 10.5 0 8.8 0 8.8-2.9 8.8-4.7 0-5.3-1.8-3.1-9.1 1.1-3.5 2-7.6 2-9.2 0-3.1.7-3.4 2.6-1m-7.6.8c0 .3-.2.5-.5.5s-.5-.2-.5-.5.2-.5.5-.5.5.2.5.5m-179 1.9c0 .3-.4.8-1 1.1-.5.3-1 .1-1-.4 0-.6.5-1.1 1-1.1.6 0 1 .2 1 .4m209.9 7.5c5 7.4 5 7.4 2.8 9.7-1.1 1.2-2.6 2-3.1 1.8-.6-.3-3.3-3.7-5.9-7.7-2.6-3.9-5.4-8.1-6.2-9.2-1.4-2-1.3-2.1 3-2 4.5 0 4.5 0 9.4 7.4M368 620c.9 1.6.8 1.8-.5 1.4-.8-.4-1.5-1.2-1.5-2 0-2 .7-1.7 2 .6m-85.5 6.9c4.1 6.1 5 9.1 2.7 9.1-1.5 0-9.4-12.9-8.9-14.4.4-.9.8-1.6 1.1-1.6s2.6 3.1 5.1 6.9m136.5-1.1c0 5.3-.2 5.9-2.9 7.5-1.6.9-3.2 1.7-3.5 1.7s-.6-3-.5-6.8c0-3.7.3-6.2.5-5.6.4.9 1.1.9 2.9 0 1.4-.6 2.5-1.4 2.5-1.9 0-.4.2-.7.5-.7s.5 2.6.5 5.8m-230-4.3c0 .3-.2.5-.5.5s-.5-.2-.5-.5.2-.5.5-.5.5.2.5.5m194.3 7.2c-.5 5.6-.3 7.4.5 6.9.7-.4 1.3-2.6 1.4-4.9l.1-4.2.4 4c.3 2.2.9 4.4 1.4 4.9 1.4 1.5 1.1 4.6-.5 4.6-3 0-4.6-4.2-4.6-11.7 0-4.1.4-7.3 1-7.3s.7 2.8.3 7.7m-116.9-3.4c.5 1.2 2.6 4.4 7.3 11.8 1.3 1.9 2.7 4.1 3.3 4.9 5.2 7.6 7 11.2 5.3 10.5-3.7-1.5-7.4-1.1-10.8 1.2-1.8 1.2-3.6 2.3-3.9 2.3s-3.1 1.8-6.2 4c-5.4 3.8-8.4 4.9-8.4 3.2 0-.4 5.7-3.9 12.5-7.7 6.9-3.9 12-7.2 11.5-7.3-.6-.2-4.2 1.5-8.1 3.7-3.9 2.3-7.2 4.1-7.5 4.1-.2 0-2.5 1.3-5.1 3-5.6 3.6-11.8 4-15.4 1.1-2.3-1.9-2.3-1.9 2.1-7.7 2.4-3.3 6.6-8.6 9.3-11.9s6.2-8.6 7.8-11.7c2.8-5.6 4.8-6.6 6.3-3.5m122.1 3.7c.6 5.3 0 4.4-1.4-1.9-.5-2.4-.6-3.9-.1-3.5.5.5 1.1 2.9 1.5 5.4m-19.5 2c-1.2 2.3-2.4 4-2.6 3.7-.3-.3.1-1.6.9-2.9.8-1.2 1.8-3.7 2.2-5.3.6-2 1-2.4 1.2-1.3.2.9-.5 3.5-1.7 5.8m-66.5-5.1c.7 1.2-1.5 6.1-2.7 6.1-.5 0-1.6-.7-2.5-1.5-1.4-1.4-1.4-1.8.2-3.5 1.9-2.1 4-2.6 5-1.1m-3.6 8.2c1.1 1.9.9 2.5-1.5 5-3.4 3.6-4.7 3.6-6.3.3-1.1-2.4-.9-3 1.5-5.5 2.9-3 4.3-3 6.3.2m41.1-1.6c0 .3-.2.5-.5.5s-.5-.2-.5-.5.2-.5.5-.5.5.2.5.5m34 2.5c1.3.8 1.3 1-.2 1-.9 0-2-.5-2.3-1-.8-1.3.5-1.3 2.5 0m-6 2.9c-.6 1.2-1.5 2.1-2.1 2.1-.5 0-.2-1.1.7-2.5 2-3 3.1-2.6 1.4.4m-128.5.3c4.5 2.2 5.3 3.2 3.5 4.3-1.4.9-9-3.3-9-5 0-1.9.1-1.9 5.5.7m139.8-1.5c-.7.2-1.9.2-2.5 0-.7-.3-.2-.5 1.2-.5s1.9.2 1.3.5m36.7 5.8c0 6.9-1 8.5-5.5 8.5s-5.5-1.6-5.5-8.5v-6.1h5.5l5.5.1zm-126.6-3.2c1.2 1.9.1 4.3-2.7 6.1-2.9 1.9-4.1-.6-2.3-4.9 1.6-3.8 3.2-4.2 5-1.2m-48.6 5.5c-.2.4-1.4 2.4-2.8 4.5-3.3 4.9-5.4 4.5-5.8-1.1-.3-4.2-.3-4.3 2.5-3.7 1.5.3 2.1.2 1.3-.1-2.6-1.1-4-2.6-3.4-3.5.6-1 8.7 2.8 8.2 3.9m116.9-4.2c-.3.3-1.2.4-1.9.1-.8-.3-.5-.6.6-.6 1.1-.1 1.7.2 1.3.5m-8.3 1.9c1.6 1.2 1.7 1.5.4 1.5-.8 0-2.1-.7-2.8-1.5-1.6-1.9-.1-1.9 2.4 0m13.6.4c0 .5-.7 1.4-1.5 2.1s-1.5 1.8-1.5 2.5c0 .6-.9 2-2 3-1.6 1.5-2.2 1.5-3.5.5s-1.5-.9-1.5 1c0 3.7-2.5 1.7-2.8-2.3-.3-3.5-.2-3.7 2.7-3.7 1.6 0 3.4-.6 3.8-1.4 1.3-2.1 6.3-3.5 6.3-1.7m-151.7 2.7c6.3 3.2 11.3 9.6 10.1 12.8-.7 1.8-2.4 2.2-2.4.6 0-2.6-2.2-.2-7.9 8.3-6.3 9.7-7.9 13.4-3.4 8.2 2.6-3 2.6-3 .4.8-1.1 2.1-2.1 4.4-2.1 5.2 0 3-2.3 2.5-5.6-1.3-3.8-4.4-10.9-7.8-14.3-6.7-1.2.3-2.1.4-2.1 0 0-1 8-16.7 11.8-23.2 3.6-6.1 3.8-6.3 8-6.3 2.4 0 5.7.7 7.5 1.6m19.3 3c-.3.8.2 2.6 1.1 4 1.6 2.5 1.6 2.5-1.1 1.3-2.8-1.3-3.4-3.7-1.4-5.7 1.6-1.6 2.1-1.5 1.4.4m48.4 6c4.6 1.8 4.8 2.4 2 4.9-1.1 1-2.5 3.3-3.2 5.1-1.4 3.9-2.1 4.1-6.5 1.4-4.3-2.6-4.4-6.1-.4-10.1 3.5-3.4 3-3.3 8.1-1.3m6 .9c0 .3-.2.5-.5.5s-.5-.2-.5-.5.2-.5.5-.5.5.2.5.5m12.7 3.7c1.7 2.4 1.9 3.4 1 4s-.8 1 .3 1.8c.8.5 2 1 2.6 1s2.1 1.1 3.3 2.4c2.2 2.3 2.2 2.3-3.5 5.6-5.7 3.2-5.7 3.2-10.6.9-2.6-1.2-4.8-2.6-4.8-3.1s.7-2.3 1.6-4c1-1.9 1.4-4.4 1.1-6.3-.5-3.1.4-3.9 6.3-5.3.3-.1 1.5 1.3 2.7 3m-31.4 1.8c-.6 2.1 3 7 5.1 7 .6 0 2.2.9 3.6 2 3.3 2.6 3.8 2.5 3.3-.4-.3-1.3.2-3.7 1.1-5.4 2.8-5.5 8.6-6.8 8.6-2-.1 2-.2 2.1-1.1.5-.5-.9-1.5-1.7-2.1-1.7-2.2 0-4.8 3.3-4.8 6.2 0 3.6 2.2 3.7 4.9.2 1.2-1.5 2.1-2.2 2.1-1.7 0 .6-.9 2.2-2 3.6-2.3 2.8-2.5 2.5 5 6.7 2.5 1.4 5.3 2.9 6.2 3.5 1.8 1.1 2.3 4.6 2 13.7-.2 5.2-.4 5.7-3.6 7.6-1.9 1.1-3.7 1.8-4 1.5-.3-.4-.6-3.8-.6-7.7.1-6.3.2-6.9 1.4-5.3 2.2 2.9 5.6.6 5.6-3.8 0-2.8-.6-3.9-3.7-6-4.4-3-4.7-3-6.8-.9-1.5 1.5-1.4 1.9 1.7 4.6 3.2 2.9 3.2 2.9.3 1-5-3.1-5.5-3.4-5.5-2.3 0 .6 1.4 1.7 3 2.6 3 1.5 3 1.6 3 10.1v8.5l-6.2-3.4c-14.3-7.8-13.3-6.8-13.6-12.8-.2-4.2-.8-5.8-2.5-7.1-3.4-2.7-4.6-2.1-1.2.7 1.7 1.3 2.7 2.4 2.3 2.5-1.6 0-10.7-5.6-11-6.7-.2-1-.9-1-3 .1-3.1 1.6-3.8 1.2-3.8-2.1 0-2.5.7-2.8 2.9-1.4.9.6 2.9.4 5.4-.5 3.8-1.4 4.2-1.3 9.3 1.6 3 1.6 5.7 3 6 3 1.7 0-2.1-2.9-6.6-5-4.3-2-5.6-2.2-8.1-1.3-2.3.9-2.9.9-2.9-.2 0-.7-.3-2-.6-2.8-.4-1.1 1.1-2.7 4.8-5.1 6.1-4.2 6.8-4.3 6.1-1.6m-27.3.3c0 .8-1.2 2.4-2.6 3.8-2.6 2.4-2.6 2.4-.8-1.4 1.8-3.7 3.4-4.9 3.4-2.4m-19 .2c0 .3-.2.5-.5.5s-.5-.2-.5-.5.2-.5.5-.5.5.2.5.5m28.9 2.5c3.5 0 5.1 1.7 5.1 5.2 0 3-.9 3.5-2.8 1.6-.9-.9-1.4-.5-2.3 1.9-1 3.1-1 3.1-4.5 1.1-3.1-1.8-3.4-2.4-3.4-6.9 0-4.8 0-4.8 2.6-3.9 1.4.6 3.8 1 5.3 1m35.1 2.5c-.7.8-1.6 1.5-2.1 1.5-1.5 0-1-2.2.9-4.3 1.5-1.7 1.7-1.7 2-.3.2.9-.2 2.3-.8 3.1m-134.9-1.8c.2 2.3.3 11.4.1 15.1l-.2 4.3-35.2-.2c-19.4-.1-37.2-.5-39.5-.7-4.3-.4-4.3-.4-4.3-9.8V664h39.5c21.7 0 39.5.3 39.6.7m63.9 4.2c-.5 1.1-1.5 2.3-2.1 2.7-.6.3-.3-.5.6-2 2-3 3-3.5 1.5-.7m-16.8 9.2c5.9 4.2 7.3 8.7 3.5 10.8-5.4 2.9-16.7-3.9-16.7-9.8 0-2 .6-3.1 1.8-3.4 2.9-.9 8.5.4 11.4 2.4m96.9 2.6c3.2 1.9 4 6.2 1.6 8.2-1.7 1.4-2.7.4-2.7-2.5 0-1.4-1-3-2.5-4-1.4-.9-2.2-2-1.9-2.5.8-1.3 2.2-1.1 5.5.8m-.6 22.5c2.6-1.2 2.6-1.2 2.3 6.1-.3 7.2-.3 7.2-4.1 7.5-5.6.5-6.7-1-6.7-8.3 0-6.3 0-6.3 2.9-5.2 2.2.8 3.6.8 5.6-.1"/><path d="M305.3 369.8c-.6.4-1.7 2.1-2.3 3.7-1.6 4.3.3 8.5 4 8.5 3.9 0 5.6-2.3 4.1-5.6-.9-2.1-1.7-2.5-3.6-2.1-1.7.3-2.5 0-2.5-1 0-1.9 2.8-2.8 4.5-1.3 1 .8 1.5.9 1.5.2 0-.6-.9-1.6-1.9-2.2-2.3-1.2-2.3-1.2-3.8-.2m4.5 8.3c.3 1.7-2.3 3.3-3.9 2.3-.5-.3-.9-1.4-.9-2.5 0-1.5.6-2 2.2-1.7 1.3.2 2.4 1 2.6 1.9M314.7 370.8c-1.7 1.9-2.2 6.7-1.1 9.6.8 2.1 5.7 2.1 7.4.1 2.1-2.5-.4-6.9-3.5-6.2-1.7.3-2.5 0-2.5-1 0-1.9 2.8-2.8 4.5-1.3 1 .8 1.5.9 1.5.2 0-1-3-3.2-4.3-3.2-.2 0-1.1.8-2 1.8m5.3 7.1c0 2-2.5 3.5-4.1 2.5-.5-.3-.9-1.4-.9-2.5 0-1.4.7-1.9 2.5-1.9s2.5.5 2.5 1.9M352 369.8c-1.9.6-3 2.3-2.4 3.4.3.5 1.2.1 2.1-.8 2.1-2 4.2-.2 2.3 2-1 1.3-.9 1.7.4 2.2.9.3 1.6 1.2 1.6 1.9 0 1.7-3.1 2.8-4.4 1.5s-2.6-1.3-2.6 0c0 .5.9 1.4 2.1 2 2.7 1.5 7.4-1.3 6.3-3.8-.3-.9-.6-2.9-.5-4.4.1-2.9-2.3-4.9-4.9-4M362.3 369.8c-3.5 2.2-3.4 9.4.2 11.8 2.6 1.7 6.8.6 7.8-2 .8-2 0-2-1.9-.1-3.9 3.8-8.9-1-6.5-6.2 1.2-2.5 4.9-3.1 6.9-1.1.9.9 1.2.8 1.2-.4 0-2.5-5-3.8-7.7-2M331.7 371.4c-1.5 1.2-1.6 1.4-.2 2 1 .3 1.5 1.9 1.5 4.6 0 2.2.5 4 1 4 .6 0 1-2.4.8-6-.1-3.3-.5-6-.8-6s-1.3.7-2.3 1.4M340.7 370.6c-.4.4-.7 1.4-.7 2.2 0 1.3.2 1.3 1.8 0 1.9-1.7 4.2-1.3 4.2.7 0 .7-1.1 2-2.5 2.9-1.3.9-2.9 2.5-3.5 3.6-1 1.9-.8 2 3.2 1.9 2.4 0 3.6-.3 2.8-.6-.8-.2-2.1-.7-2.9-.9-1-.3-.4-1.3 2-3.4 2.8-2.4 3.2-3.1 2.3-4.7-1.1-1.9-5.4-2.9-6.7-1.7M323.5 377c-.3.5.3 1 1.5 1s1.8-.5 1.5-1c-.3-.6-1-1-1.5-1s-1.2.4-1.5 1M490 444c-2.2 2.2-2.6 6-1 9.1 1.4 2.5 6.5 2.6 7.9.1.9-1.6 1.1-1.6 2.3-.1 2.2 2.7 4.7 3 6.7 1 2.7-2.7 1.6-6-2-6.8-1.6-.3-2.9-1-2.9-1.5 0-1.5 3-2.1 4.5-.8.8.7 1.5.8 1.5.2 0-.5-.7-1.5-1.5-2.2-2.4-2-6.2.2-7 4.1-.6 2.7-.9 2.9-1.7 1.6-.5-1-2.1-1.7-3.8-1.7-2.2 0-2.8-.4-2.4-1.5.7-1.8 3.5-2 5.2-.3.7.7 1.2.8 1.2.2 0-1.4-2.2-3.4-3.7-3.4-.7 0-2.2.9-3.3 2m5 7c0 1.3-.7 2-1.9 2-2.2 0-3.5-1.5-2.6-3 1.2-1.9 4.5-1.1 4.5 1m10-.1c0 2.7-1.9 3.6-3.7 1.8s-.9-3.7 1.8-3.7c1.2 0 1.9.7 1.9 1.9M527.2 443.2c-.7.7-1.2 1.9-1.2 2.7.1 1.3.3 1.2 1.5-.3 1.5-2 4.5-1.6 4.5.7 0 .7-1.2 2-2.6 2.7-2.6 1.4-5 4.7-4.1 5.7 1.1 1.1 7 .7 7.4-.5q.45-1.2-2.4-1.2c-2.8-.1-2.8-.1.5-2.8 3.7-3.1 3.9-4.2 1.4-6.5-2.2-2-3.4-2.1-5-.5M537.4 442.8c-.6.4-1.4 2.8-1.7 5.3-.5 3.7-.3 5 1.2 6.3 2.3 2.1 3.4 2 5.4-.2 1.2-1.3 1.5-2.8 1-5.7-.9-5.8-2.9-7.8-5.9-5.7m3.6 2.6c0 2.1-2.1 3.1-3 1.5-.5-.7-.6-1.7-.4-2.1.9-1.4 3.4-.9 3.4.6m1 6.1c0 .9-.9 1.5-2.5 1.5s-2.5-.6-2.5-1.5.9-1.5 2.5-1.5 2.5.6 2.5 1.5M546 448.4c0 5.6.2 6.4 2.1 6.9 1.1.3 3.3.1 4.9-.5 2.8-.9 2.9-1.2 2.5-5.9-.5-6.4-.9-6.9-5.6-6.9-3.9 0-3.9 0-3.9 6.4m7.7-2.8c.5 1.4-2.2 2.5-4.2 1.8-.8-.4-1.5-1.3-1.5-2.1 0-1.7 5.1-1.4 5.7.3m.1 5.6c.3 1.4-.3 1.8-2.7 1.8-2.5 0-3.1-.4-3.1-2.1 0-1.6.5-2 2.7-1.7 1.7.2 2.9 1 3.1 2M517.6 444.3c-1.7 1.2-1.7 1.4-.2 2 1.1.4 1.6 1.9 1.6 4.7 0 2.5.4 3.9 1 3.5 1.2-.7 1.4-11.5.2-11.5-.5 0-1.6.6-2.6 1.3M509.8 450.7c.6.2 1.8.2 2.5 0 .6-.3.1-.5-1.3-.5s-1.9.2-1.2.5M77.1 591.4c-.7.8-1.1 3.3-.9 5.7.4 5.3 3.6 7.1 6.9 3.8 1.9-1.9 1.9-2.3.6-4.2-.8-1.2-2.4-2.2-3.6-2.1-1.2 0-2.1-.6-2.1-1.3 0-2 2.8-2.7 4.7-1.2 1.4 1.2 1.6 1.2 1.1-.1-.6-2-5.2-2.5-6.7-.6m5.4 7.1c0 1.3-.8 2.1-2.2 2.3-1.9.3-2.3-.1-2.3-2.3s.4-2.6 2.3-2.3c1.4.2 2.2 1 2.2 2.3M87.2 591.2c-1.3 1.3-1.6 7.6-.4 9.5 1.5 2.4 6.8 2 7.5-.6.7-2.8-2.1-6.4-4.4-5.8-1.3.3-1.9 0-1.9-1 0-1.1.8-1.4 3-1.1 1.9.3 2.9.1 2.7-.6-.5-1.6-5-1.9-6.5-.4m5.2 6.4c.7 1.9-.1 3.4-1.9 3.4s-2.8-1.7-2.1-3.5c.7-2 3.2-1.9 4 .1M105 591.7c-1 1.2-1.1 1.8-.2 2.1.7.2 1.2 2.1 1.2 4.3 0 2.1.5 3.9 1 3.9.6 0 1-2.7 1-6 0-6.3-.5-7-3-4.3M113.6 591.6c-.4.9-.3 2 0 2.3.4.3.9 0 1.1-.7.8-2.1 4.3-1.4 4.3.8 0 1.1-.4 2-.9 2-1.5 0-6.2 5-5.6 6 .8 1.3 7.5 1.3 7.5 0 0-.6-1.1-1-2.5-1-2.9 0-2.5-2.1.8-3.5 2.6-1.2 3.4-4 1.7-6s-5.6-1.9-6.4.1M123.6 591.6c-.9 2.4-.7 2.9.6 1.6.7-.7 2-1.2 3-1.2 2.6 0 2.3 3.7-.4 5.1s-4.8 4.1-4.2 5.1c.7 1.2 7.2 1 7.9-.2.4-.6-.7-1-2.7-1l-3.3-.1 3.3-2.7c3.4-2.8 4-5 2-7-1.7-1.7-5.5-1.5-6.2.4M96.5 598c.3.5 1.3 1 2.1 1s1.4-.5 1.4-1c0-.6-.9-1-2.1-1-1.1 0-1.7.4-1.4 1M262.8 636c-3.5 1.9-5.7 4-4.2 4 1 0 9.4-5 9.4-5.5 0-.9-1.5-.4-5.2 1.5M261.8 643.9c-.5 1.8-.8 4.6-.8 6.1 0 2.2-.9 3.4-3.6 5-4.2 2.7-3.9 3.8.5 1.6 4.1-2.2 5.3-4.7 4.9-10.9-.3-4.9-.3-5-1-1.8M196.7 651.2c-1.4 2.4-4.2 7.8-6.4 12-3.7 7.1-3.8 7.7-1.9 7.4 1.1-.1 2.8-1.6 3.7-3.2 2-3.3 2.4-5.8.8-4.9-.5.4.4-2 2.1-5.4 1.6-3.4 3.3-6.1 3.5-6.1.3 0-.6 2.3-2.1 5.1-1.4 2.8-2.3 5.3-2.1 5.6.7.6 5.8-8.8 6.4-12 .8-4.1-1.3-3.3-4 1.5M203.3 650.7c-1 1.6-2 3-2.3 3.3-.8.7-9 16.7-9 17.5 0 .4.6.2 1.4-.4 1-.9 1.5-.9 1.8 0 .2.6 1-.2 1.8-1.8.8-1.5 3.6-6.3 6.2-10.6 2.7-4.3 4.8-8.5 4.8-9.3 0-2.4-2.9-1.6-4.7 1.3m-2.3 8.5c-2.9 4.6-5 7.5-4.6 6.5 1-3.2 8.8-15.9 9.3-15.3.3.3-1.8 4.2-4.7 8.8m-5 9.3c0 .3-.2.5-.5.5s-.5-.2-.5-.5.2-.5.5-.5.5.2.5.5M204.7 658.2c-.8 1.3-2.8 4.9-4.6 8-3.1 5.8-3.1 5.8-.7 6.4 1.3.3 2.8 1.5 3.3 2.6.9 2.1.7 2.3 9.1-10.9.8-1.3 1.1-3 .8-3.9-.9-2.3-2.8-.5-6.6 6.3-1.7 3-3.3 5.3-3.6 5-.5-.4 1.1-3.6 3.8-7.7 2.6-3.9 3.3-8 1.4-8-.8 0-2.2 1-2.9 2.2m-.7 6.7c-1.8 3.4-3.6 6.4-4.1 6.7-1.5.9-1-.9 1.1-4.1 1.2-1.7 2.8-4.5 3.7-6.3.8-1.8 1.8-3.1 2-2.8.2.2-1 3.2-2.7 6.5m6-.4c0 .3-.2.5-.5.5s-.5-.2-.5-.5.2-.5.5-.5.5.2.5.5m-1 2c0 .3-.2.5-.5.5s-.5-.2-.5-.5.2-.5.5-.5.5.2.5.5M263.4 673.8c.4.7 4.3 3.3 8.7 5.8 7.9 4.6 7.9 4.6 7.9 9.5 0 2.7.5 4.9 1 4.9.6 0 1-2.2 1-4.9 0-4.3-.4-5.2-2.7-6.9-5-3.4-16.7-9.6-15.9-8.4M76.7 668.7c-1.2 2.3-1.6 6.5-.7 8.8.8 2.1 1.6 2.6 3.6 2.3 5.6-.7 5.7-6.9.1-7.6-1.8-.2-2.4-.8-2-1.8.4-1.1 1.4-1.3 3.6-.8 2 .4 2.7.3 2.3-.5-.8-1.2-6.2-1.5-6.9-.4M82 676c0 2.4-2.6 3.8-4.2 2.2s-.2-4.2 2.2-4.2c1.3 0 2 .7 2 2M85.9 670.7c-.6 1.7-.7 4-.2 5.8.7 2.4 1.5 3.1 4 3.3 2.8.3 3.3-.1 3.9-2.3.8-3.2-1-5.5-4.3-5.5-2.1 0-2.3-.2-1.3-1.5.8-1 2.1-1.3 3.8-.8q2.55.6 1.8-.6c-.4-.6-2.1-1.1-3.7-1.1-2.3 0-3.2.6-4 2.7M92 676c0 2.4-2.6 3.8-4.2 2.2s-.2-4.2 2.2-4.2c1.3 0 2 .7 2 2M104.6 669.6c-1.7 1.2-1.7 1.4-.3 2 1.2.4 1.7 1.8 1.7 4.6 0 2.3.4 3.7 1 3.3 1.2-.7 1.4-10.2.2-10.9-.4-.2-1.6.2-2.6 1M113 669.5c-.7.9-.9 1.9-.5 2.3s1 .1 1.2-.6c.5-1.4 5.3-1.7 5.3-.2 0 .5-1.6 2.4-3.5 4.1-1.9 1.8-3.5 3.6-3.5 4.1 0 .4 1.9.7 4.3.6 3.8-.1 3.9-.2.8-.5l-3.3-.4 3.6-3.4c3.2-2.9 3.6-3.7 2.6-5.4-1.3-2.5-5.2-2.8-7-.6M123 669.9q-1.05 2.1 0 2.1c.5 0 1-.5 1-1 0-.6 1.1-1 2.5-1 3.5 0 3.1 2-1 5.3-1.9 1.5-3.5 3.2-3.5 3.7 0 .6 1.9.9 4.3.9 4.2-.2 4.2-.2.7-.8l-3.5-.6 3.3-2.4c2.5-1.8 3.2-2.9 3-5-.4-3.5-5.1-4.3-6.8-1.2M133 674c0 6 0 6 4.4 6 3.6 0 4.6-.4 5.1-2 .3-1.1.3-2.5-.1-3.2-.5-.7-.7-2.5-.5-4 .2-2.7.1-2.8-4.3-2.8-4.6 0-4.6 0-4.6 6m7-3c0 1.5-.7 2-2.5 2s-2.5-.5-2.5-2 .7-2 2.5-2 2.5.5 2.5 2m.5 5.5c0 1.4-.8 2.1-2.7 2.3-2.4.3-2.8 0-2.8-2.3s.4-2.6 2.8-2.3c1.9.2 2.7.9 2.7 2.3M96.8 675.7c.6.2 1.8.2 2.5 0 .6-.3.1-.5-1.3-.5s-1.9.2-1.2.5M238.7 430c-1.4 1.1-3 3.4-3.6 5.1-.9 2.7-.8 3.3 1.4 5.5 1.8 1.8 3.1 2.2 5.3 1.8 2.1-.4 4.1.2 7.7 2.5 7.7 4.9 14.5 6.4 14.5 3.2 0-2-5.3-7.1-10.6-10-3-1.8-6-4.2-6.5-5.5-1.8-3.8-5.3-4.9-8.2-2.6m.5 3.2c-.7.7-1.2 2-1.2 3s-.5 1.8-1.1 1.8-.8-.9-.3-2.3c.8-2.7 2.5-4.9 3.2-4.2.3.3 0 1.1-.6 1.7m5.8-1.6c0 .4-1.1 1.7-2.4 2.9-1.7 1.6-2.3 3-1.9 4.4.4 1.5.1 2.1-1.1 2.1-2.2 0-2-1.5.6-6.1 1.8-3.3 4.8-5.3 4.8-3.3m-.4 6.5c-1.4 2-1.6 2.1-2.2.5-.4-1.1 0-2.2 1.2-3.1 2.4-1.7 3-.2 1 2.6m5.4-.4c-.1 1.1-2.6 4.3-3.4 4.3s-.8-3.5.1-4.3c.9-.9 3.3-.9 3.3 0m3.4 2.1c.7 1.2-2.2 4.5-3.3 3.7-.8-.4-.8-1.2-.1-2.6 1.1-2 2.5-2.5 3.4-1.1m2.6 4.7c-.7.8-1.6 1.5-2.1 1.5-1.3 0-1.1-2.4.3-3.8 1.8-1.8 3.5.3 1.8 2.3m5 1c1.7 2.1.7 2.9-2.5 2.1-2.2-.6-2.5-.9-1.5-2.1 1.6-1.9 2.4-1.9 4 0M266.1 451.3c2.1 1.6 7.9 4.5 7.9 3.9 0-1-5.4-4.2-7.1-4.2-.7 0-1 .1-.8.3M278 457.9c0 .5 1.4 1.6 3 2.5 1.7.8 3 1.1 3 .7s-1.3-1.5-3-2.4c-1.6-1-3-1.4-3-.8M298.5 472.1c-6.6 3.8-14.5 8.2-17.5 9.8-6.2 3.3-10 6-8.5 6.1.6 0 5.1-2.3 10-5.2 5-2.8 13.2-7.5 18.4-10.4 9.1-5.1 12.5-7.5 10.6-7.3-.6 0-6.4 3.2-13 7M315.2 478.2c-1.7 1.7-1.5 5.8.3 5.8s4.9-4.5 4-6c-.8-1.3-2.8-1.3-4.3.2m2.8 1.8c0 1.1-.7 2-1.5 2-1.8 0-1.9-1.2-.3-2.8s1.8-1.5 1.8.8M346 519.9c0 .5.8 1.2 1.8 1.5.9.4 4.7 2.5 8.4 4.7 3.7 2.3 7.3 3.9 8 3.7.7-.3-.1-1.1-1.7-2-1.7-.8-5.9-3.1-9.3-5.2-7-3.9-7.2-4-7.2-2.7M375.1 523.6c-3.3 2.4-5.3 7.7-4.1 10.9 2.7 7.1 13.9-3 11.5-10.5-.8-2.5-4.2-2.6-7.4-.4m5.8.8c1.6 1.9-.9 8-3.9 9.6-5.4 2.9-6.8-2.8-2-7.9 3.4-3.5 4.2-3.7 5.9-1.7M395.1 528.4c-1.4 1.5-4.9 4-7.8 5.6-6 3.4-9.3 7.9-9.3 12.7 0 1.7-.4 3.5-1 3.8-2 1.2-.9 3.5 2.7 6 2.1 1.4 4.4 2.5 5.3 2.5.8 0-.4-1.3-2.7-2.8-4.2-2.7-5.3-4.5-3.3-5.7.6-.3 1-2.3 1-4.3.1-4.8 2.1-7.2 9.6-11.6 6.5-3.8 8.8-5.9 8.2-7.6-.2-.6-1.4 0-2.7 1.4M132.4 531.2c-3.8 1.8-5.8 9-3.2 11.6.7.7 2.9 1.2 5 1.2 2.4 0 6 1.3 10.3 3.6 4.7 2.6 7.2 3.4 9 3 4.9-1.2 2.3-6-5.6-10.4-6.7-3.7-7.9-4.7-7.9-6.3 0-1.2-4.1-4.2-5.3-3.8-.1 0-1.2.5-2.3 1.1m-1.2 4.7c-.9 1.6-1.8 2.8-2.1 2.6-.4-.5 2.7-5.5 3.4-5.5.2 0-.4 1.3-1.3 2.9m6.8-1.9c0 .5-.7 1-1.5 1-2 0-3.5 3.2-2.8 5.8.3 1.3.1 2.2-.6 2.2-1.7 0-1.3-6.1.6-8.2 1.7-1.9 4.3-2.4 4.3-.8m0 2.9c0 1.7-1.2 4.1-2.1 4.1-1 0-1.2-3.3-.2-4.3.9-1 2.3-.9 2.3.2m4.4 2c.3.4-.1 1.7-.9 2.7-1.1 1.5-1.6 1.6-2.6.7-1-1-.9-1.5.1-2.8 1.4-1.7 2.6-1.9 3.4-.6m3.6 2.3c0 .7-.7 2.2-1.5 3.2-1.3 1.7-1.5 1.7-2.1.3-.3-.9 0-2.3.8-3.1 1.6-1.9 2.8-2 2.8-.4m4 2c0 .7-.7 2.2-1.5 3.2-1.3 1.7-1.5 1.8-2.1.2s1.1-4.6 2.7-4.6c.5 0 .9.6.9 1.2m3.8 4.1c.2 1.2-.3 1.7-1.7 1.7-1.2 0-2.1-.6-2.1-1.3 0-3.1 3.2-3.4 3.8-.4M158 550.7c0 .5 1.8 1.8 4.1 3 4.6 2.5 4.9.8.3-1.8-3.3-2-4.4-2.3-4.4-1.2"/><path d="M381 551.5c0 .2 1.4 1.1 3 2 1.7.9 3 1.2 3 .7s-1.1-1.4-2.5-2c-2.8-1.3-3.5-1.4-3.5-.7M170.5 558c.9 1.4 6.6 4.3 7.2 3.6.6-.5-5.6-4.6-7-4.6-.5 0-.5.5-.2 1M181.5 564c.3.5.8 1 1.1 1s.2-.5-.1-1c-.3-.6-.8-1-1.1-1s-.2.4.1 1M277 572c-3.3 3.6-4.6 8.1-3 10.9 1.1 2.1 4 2.9 4 1.1 0-.6-.6-1-1.4-1-3.5 0-2.4-6.7 1.6-10.2 2.8-2.4 4.2-2.3 7.5.7 1.5 1.3 3.2 2.8 3.8 3.3s2.6-.1 4.9-1.7c2.1-1.4 3.4-2.7 2.8-2.9s-2.2.4-3.6 1.3c-2.7 1.8-5.4 1-8.9-2.6-2.5-2.7-4.5-2.4-7.7 1.1"/><path d="M282 577.7c0 1 6.8 4.8 7.4 4.2.3-.2-1.3-1.5-3.5-2.7-2.1-1.2-3.9-1.9-3.9-1.5M330.6 587.5c-5 4.1-8.7 8.5-7.1 8.5.3 0 2.2-1.7 4.3-3.8 2-2.1 5.3-5 7.2-6.4 1.9-1.5 3-2.7 2.3-2.8-.6 0-3.6 2-6.7 4.5M293 584.4c0 .6 6.5 4.6 7.4 4.6 1.5 0-.6-1.9-3.6-3.4-3.3-1.7-3.8-1.8-3.8-1.2M304 590.7c0 .5 1.8 1.8 4 3 4.9 2.6 5.3 1.6.5-1.5-3.7-2.4-4.5-2.6-4.5-1.5M563.8 595.6c-.5.4-.8 2.9-.8 5.5v4.8l-15.7.3-15.7.3-7.3 9.5c-4.1 5.2-7.9 10.2-8.6 11-.7.9-4.1 5.4-7.7 10-3.5 4.7-6.7 8.7-7 9s-3.2 4-6.4 8.3c-6 7.8-6 7.8-9.9 7.2-2.2-.4-5.5-1.8-7.5-3.1-4-2.8-3.7-2.7-8-1.4-3.2.8-3.4.7-4.8-2.3-2.6-6-6.8-9.5-11.9-9.8-4-.3-7 .7-13.1 4.3-3.9 2.3-5.1 3.7-5.1 5.4 0 2.7.7 3 2.6 1.1 1.1-1 1.2-.9.6.3-.5.8-1.8 2.8-3 4.5-2.1 2.9-5.1 10.1-7.5 17.8-1.2 4-1.6 18.3-.5 21.7.3 1.1.2 2-.3 2-1.9 0-4.2-3.8-5.3-9-1.9-9.1 1.9-21.1 9.8-30.8 4.6-5.6 3.6-6.6-1.1-1.1-2 2.4-3.6 3.8-3.6 3.3s1.8-3 3.9-5.4c2.2-2.5 3.7-4.7 3.5-5-1.9-1.8-15.4 20.7-15.4 25.6 0 1.5.2 1.6.9.5.5-.8.7 1.1.4 5-.3 3.5 0 8.2.6 10.3 1.2 4.7.8 5.8-1 2.4-.7-1.3-1.2-5.4-1.2-9.2.1-4.4-.2-6.4-.8-5.5-1.6 2.5-1 10.8 1.2 15.3 2.2 4.9 4.4 6.6 10.2 8.5 2 .7 3.7 1.6 3.7 1.9 0 1.4 5.5 3.2 9.4 3.2 3.7.1 4.4.5 6.5 3.9 3.1 5.1 6.2 6.6 13 6.6 4.3-.1 6.8-.7 10.3-2.8 6.6-3.8 15.4-14 19.6-22.7 3.4-6.9 3.7-8.2 3.7-16.5 0-7.8-.3-9.6-2.5-13.3-1.5-2.7-2.1-4.6-1.4-5 .5-.4 2.1-2.3 3.4-4.2s2.7-3.7 3-4 3.4-4.3 7-9c3.5-4.7 6.7-8.7 7-9s1.7-2.1 3-4c1.4-1.9 3-4.2 3.7-5 2.3-2.8 10.8-13.7 13.2-16.9s2.4-3.2 17.2-3l14.8.2.3 5.1.3 5.1h82l.3-10.8c.1-5.9.1-10.7 0-10.8-2.9-.5-81.5-.9-82-.3m80 11.1.3 9.3H565v-19.1l39.3.3 39.2.3zm-195.9 40.7c-2 1.6-11.9 6.3-10.9 5.1 1.3-1.6 8.6-5.4 10.4-5.5.5 0 .7.2.5.4m10.5 1.7c2.8 2.2 6.1 7.7 5.2 8.6-.3.3-1-.6-1.5-2-4.8-12.4-19.2-6.7-28.2 11.1-1.7 3.4-3.7 8.4-4.4 11s-1.4 3.7-1.4 2.5c-.1-2.2 3-11.5 5.3-15.6 4.7-8.7 11-14.8 17.4-16.7 4.1-1.3 4.7-1.2 7.6 1.1m-.7 2.4c1.2.8 2.7 3.1 3.4 5.2 1 3.2.9 3.8-.8 5.2-8.1 6.6-16.3 22.8-16.3 32.2 0 3.4-.4 3.9-4.5 5.8-2.5 1.2-5.1 2.1-5.9 2.1-4.4 0-5.5-17.4-1.7-27.5 4.3-11.6 9.6-18.6 16.6-22.3 4.8-2.5 6.4-2.7 9.2-.7m10.3 8.6c-2.4 1.1-5.1 2.5-6 3.2-.8.6-.6.2.4-1.1 1.1-1.2 3.3-2.6 5-3.1 5.1-1.5 5.4-1.1.6 1m7.5-1.1c.3.5.2 1-.4 1-.5 0-1.3-.5-1.6-1-.3-.6-.2-1 .4-1 .5 0 1.3.4 1.6 1m2.5 1.5c0 .3-.2.5-.5.5s-.5-.2-.5-.5.2-.5.5-.5.5.2.5.5m-7.2 3.5c-5.7 3.5-5.8 3.6-5.8 1 0-2.5 2.6-3.9 7-4 3.5 0 3.5 0-1.2 3m15.9 0c15.1 9.1 3.9 44-17.6 55.1-6.1 3.1-13.4 3.1-16.4-.1-2.2-2.3-2.2-2.3.3-.6 3.6 2.4 11 2.1 15.7-.7 5.3-3 9.7-6.6 9-7.3-.3-.3-1.6.4-2.9 1.6-6.5 6.2-17.9 8.1-22.5 3.8-2.8-2.6-3.1-5.8-.5-5.8 3.2 0 13.4-7.3 19-13.6 7.2-7.9 11.1-15.8 11.9-24 .3-3.5.9-6.4 1.2-6.4s2 1.2 3.6 2.6c2.9 2.5 3 2.8 3 11.2 0 8.1-.3 9.3-3.8 16.3-2.1 4.2-4.9 8.8-6.3 10.2-2.5 2.7-2.9 3.7-1.6 3.7.4 0 1.8-1.7 3.2-3.8 1.4-2 2.7-3.9 3-4.2 3.3-3.3 7.2-15.2 7.3-22.5.1-7.1-2-11.8-6.3-14-3.8-1.9-4.9-1.9-11.3.5-8.5 3.2-16.2 11.5-21.6 23.3-1.7 3.7-3.1 7.6-3.1 8.7s-.4 2-1 2c-4.5 0 8.7-24.5 16.3-30.3 5.4-4.1 12.7-7.7 15.6-7.7 1.4 0 4 .9 5.8 2m-62.2 5c-.9 1.8-1.9 3-2.1 2.7-.3-.3.2-1.9 1.1-3.7s1.9-3 2.1-2.7c.3.3-.2 1.9-1.1 3.7m39.2-.8c-.3.7-.5.2-.5-1.2s.2-1.9.5-1.3c.2.7.2 1.9 0 2.5m17.5 6.3c-.6 2.9-2.1 7.4-3.3 10.1-2.8 5.9-13.9 18-15 16.3-.5-.9-1.5-.7-3.5.7-2.8 1.9-9.9 5.4-10.9 5.4-1.2 0-.3-4.8.9-5.3.8-.3 1.7-2.1 2.1-3.9s2.4-5.8 4.4-8.8c2.1-3 4.1-6.7 4.5-8.3 1.2-5.1 12-13.7 17.1-13.7 1.6 0 1.7.7 1.2 5.8-.8 7.2-4.5 14.6-11.1 21.8-2.6 3-4.3 5.4-3.7 5.4 2 0 11.6-12.8 13.9-18.4 1.3-3.3 2.2-7.8 2.2-10.9.1-4.2.3-4.8 1.1-3.3.8 1.3.8 3.3.1 7.1m-23.7 1.4c-2 2.8-4.8 7.2-6.1 9.8-2.4 4.6-2.5 4.6-1.8 1.3 1-5.2 4.7-13.1 8-17 2.6-3.1 2.9-3.2 3.2-1.3.2 1.2-1.2 4.3-3.3 7.2m-36.4.2c-.5 1.3-1 1.9-1 1.2-.1-1.5 1-4.5 1.5-4 .3.2 0 1.5-.5 2.8m28.9 4.6c-1 2.7-2.3 6.4-2.9 8.3l-1.1 3.5.4-3.7c.4-3.6 4-12.8 5-12.8.3 0-.3 2.1-1.4 4.7m-19.6 19.6c2.5 5.1 7 8.7 10.9 8.7 2.5.1 2.9.3 1.5 1-2.4 1.5-7.5.1-10.7-2.9-3.3-3.1-5.2-10.2-4.9-18.9.1-5.7.1-5.7.7 1.3.4 3.8 1.5 8.7 2.5 10.8m15.3 1.4c-.2 1.6-.4.3-.4-2.7s.2-4.3.4-2.8c.2 1.6.2 4 0 5.5m-18.1 3c-.7.8-5.9-2.1-6.4-3.5-.2-.7 1.1-.4 3.3.9 2 1.2 3.4 2.4 3.1 2.6m12.4-2.2c-1.4.8-3.2 1.4-4 1.4s-.1-.7 1.5-1.4c3.9-1.8 5.7-1.8 2.5 0m22-.1c0 .3-.5.8-1.2 1.2s-.8.3-.4-.4c.7-1.2 1.6-1.6 1.6-.8m-18 3.1c0 2-.5 2.5-2.4 2.5-3.3 0-4.4-2-2.1-3.7 2.8-2 4.5-1.6 4.5 1.2m15-1.1c0 .3-.5.8-1.2 1.2s-.8.3-.4-.4c.7-1.2 1.6-1.6 1.6-.8m-5 3.1c-1.4.8-3.2 1.4-4 1.4s-.1-.6 1.5-1.4c4-1.8 5.7-1.8 2.5 0m-7.3 2.2c-.4.3-.7 0-.7-.7s.3-1 .7-.7c.3.4.3 1 0 1.4m3.3 5.8c0 .3-.2.5-.5.5s-.5-.2-.5-.5.2-.5.5-.5.5.2.5.5"/><path d="M573.2 601.5c-4.7 3.4-3.3 11.5 2 11.5 2.1 0 2.9-.6 3.4-2.5.8-3.1-1.3-5.8-3.8-5.2-1.1.3-1.8 0-1.8-.9 0-2 2.7-2.9 4.5-1.4 1 .8 1.5.9 1.5.2 0-2.2-3.6-3.2-5.8-1.7m3.8 7.4c0 2.7-1.9 3.6-3.7 1.8s-.9-3.7 1.8-3.7c1.2 0 1.9.7 1.9 1.9M583.3 601.5c-2.4 1.7-3.5 6-2.3 9.1s4.7 3.7 7.1 1.3c1.9-1.9 1.9-2.3.6-4.2-.8-1.2-2.4-2.2-3.6-2.1-1.2 0-2.1-.6-2.1-1.3 0-2 2.8-2.7 4.5-1.3 1 .8 1.5.9 1.5.2 0-2.2-3.6-3.2-5.7-1.7m4.2 6.5c.8 1.3-1.3 4-3.1 4-.8 0-1.4-1-1.4-2.5 0-1.8.5-2.5 1.9-2.5 1.1 0 2.3.5 2.6 1M628 606.4c0 6 .1 6.4 2.6 7 4.3 1.1 9.8-3.8 6.5-5.8-.5-.3-.7-1.6-.4-2.8.7-2.6-1.9-4.8-5.9-4.8-2.8 0-2.8.1-2.8 6.4m7-2.4c0 1.5-.7 2-2.5 2s-2.5-.5-2.5-2 .7-2 2.5-2 2.5.5 2.5 2m.8 5.7c-.2 1.1-1.4 1.9-3.1 2.1-2.2.3-2.7-.1-2.7-1.7 0-1.7.6-2.1 3.1-2.1 2.4 0 3 .4 2.7 1.7M599.5 602.6c-1.4 1.1-1.6 1.8-.7 2.1.6.3 1.2 1.7 1.2 3.1 0 1.5.5 3.4 1 4.2.7 1.1 1-.3 1-4.8 0-3.4-.1-6.2-.2-6.2-.2 0-1.2.8-2.3 1.6M608 603c-1.3 2.5.5 2.7 1.9.2.9-1.6 1.1-1.6 2.8.1 1.7 1.8 1.7 1.9-.1 3-3.2 2-5.7 4.8-5.4 5.9.5 1.3 6.6 1.9 7.4.7.3-.5-1-.9-2.8-.9h-3.3l3.8-3.5c3.2-3 3.6-3.8 2.7-5.5-1.4-2.6-5.6-2.6-7 0M619.4 603.2c-.4.6-.2 1.4.4 1.6.7.2 1.2 2.2 1.2 4.3 0 2.2.4 3.8.9 3.5 1.5-.9 1.1-10.6-.5-10.6-.7 0-1.6.5-2 1.2M591.5 609c.3.5 1.2.7 2 .3 2.1-.7 1.9-1.3-.6-1.3-1.1 0-1.8.4-1.4 1M316 597.7c0 1 6.8 4.8 7.4 4.2.3-.2-1.3-1.5-3.5-2.7-2.1-1.2-3.9-1.9-3.9-1.5M336.5 600.6c-3.1 2.6-2.8 2.7 1.8.5 1.5-.8 2.7-1.8 2.7-2.3 0-1.4-1.4-.9-4.5 1.8M317.2 603.2c-3 3.8-7 15.2-7.4 21.5-.4 7 .9 5.9 1.6-1.4.5-4.5 1.8-8.9 4.1-13.7 3.3-6.6 4-9.1 1.7-6.4M328 604.7c0 .5 1.4 1.6 3 2.5 2.5 1.4 3 2.4 3 5.3 0 2.2.4 3.4 1 3 .6-.3 1-1.9 1-3.5 0-2.1-.9-3.6-3.3-5.4-3.5-2.7-4.7-3.1-4.7-1.9M326.2 612.7c-2.3 4.6-3.8 13.3-2.3 13.3.6 0 1.1-1.7 1.1-3.8 0-2 .9-5.7 2-8.1 2.5-5.5 1.8-6.7-.8-1.4M334 624.6c0 2.7.4 4.3 1 3.9.6-.3 1-2.4 1-4.6 0-2.1-.4-3.9-1-3.9-.5 0-1 2.1-1 4.6M326.5 633.5c5 1.8 5 1.8 3.5 0-.7-.8-2.7-1.5-4.4-1.5-3.1.1-3.1.1.9 1.5M334 637.5c0 2.8.4 4.4 1 4 .6-.3 1-2.1 1-4s-.4-3.7-1-4c-.6-.4-1 1.2-1 4M334.3 650.5c0 2.7.2 3.8.4 2.2.2-1.5.2-3.7 0-5-.2-1.2-.4 0-.4 2.8M634 659.8v11.1l9.8.3c5.3.2 23.4.4 40.2.3h30.5l.3-10.8.3-10.7h-9.8c-5.4 0-23.6-.3-40.5-.7l-30.8-.6zm51.8-7.8H713v18.3l-29.7-.6c-16.4-.4-33.7-.7-38.5-.7H636v-18.3l11.3.6c6.1.4 23.5.7 38.5.7"/><path d="M640.1 654.7c-1.6 1-2.1 2.5-2.1 5.7 0 5 1.8 7.1 5.4 6.2 4.5-1.1 4-7.4-.6-8.3-2.1-.4-2.6-.9-1.8-1.7.7-.7 1.6-.7 3 .2 1.7 1 2 1 2-.7 0-2.4-3.3-3.3-5.9-1.4m3.7 8.1c.2 1.4-.2 2.2-1.2 2.2-1.9 0-2.9-1.7-2.2-3.6.8-2.2 3-1.2 3.4 1.4M649.3 655.5c-1.6 1.8-1.7 8.7-.1 10.3 2.6 2.6 7.8.7 7.8-2.8 0-2.2-3.1-5-5.5-5-1.5 0-1.6-.3-.7-1.2 1-1 1.7-1 3.1-.1 2.1 1.3 3.2.8 2.4-1.3-.7-1.8-5.4-1.7-7 .1m5.2 7.5c0 2.2-3.9 1.9-4.3-.3-.3-1.5.1-1.8 2-1.5 1.2.2 2.3 1 2.3 1.8M667.5 655.7c-1.4 1.1-1.6 1.7-.7 2 .7.3 1.2 2.2 1.2 4.3 0 6.4 1.8 5.5 2.2-1.1.1-3.3.1-6.2-.2-6.4s-1.4.4-2.5 1.2M675.3 655.9c-1.6 2.5-.4 3.5 1.8 1.5 1.9-1.7 3.9-1.2 3.9 1 0 .7-1.2 1.9-2.6 2.6-2.3 1.3-5 4.7-4.2 5.5.2.2 1.9.5 3.8.7 4.3.4 5.5-1.5 1.4-2.2-2.9-.6-2.9-.6-.4-2 3.9-2.1 4.9-4 3.7-6.7-1.3-2.9-5.7-3.1-7.4-.4M686.8 655.7c-3.5 4.1-2.8 10.5 1.4 11.9 2.1.6 5.8-2 5.8-4.3 0-2.1-3.8-5.3-5.5-4.7-1.1.5-1.3.2-.9-1 .7-1.9 3-2.1 3.7-.4.2.7.7 1 1.1.7 1.1-1.1-.6-3.9-2.4-3.9-.9 0-2.4.8-3.2 1.7m4.2 7.2c0 1.1-.5 2.3-1.1 2.7-1.5.9-3.3-1.2-2.6-3 .9-2.3 3.7-2 3.7.3M659.3 660.7c-2.2.8-1.4 2.3 1.3 2.3 1.5 0 2.4-.5 2.2-1.2-.5-1.4-1.8-1.8-3.5-1.1M593.6 660.9c-1.9 1.6-7.7 6.6-12.8 11.3s-11.3 10.2-13.8 12.4c-2.4 2.1-6.2 5.6-8.5 7.6-2.2 2.1-4.7 3.8-5.6 3.8-1.9 0-6.9-4.7-6.9-6.4 0-.7-1.2-2.4-2.7-3.8-10.9-10.2-23.5-7.7-38.8 7.7-8.1 8.1-12.1 14.7-16 26-2.5 7-2.6 20.8-.3 25.5 4.2 8.3 9.9 12 18.5 12 2.7 0 5.7.6 6.8 1.3 4.1 2.8 8.1 3.5 13.1 2.5 2.7-.6 5.3-1.4 5.8-1.9 1.7-1.6 4.6-1 10.9 2.3 3.4 1.8 6.4 3.6 6.7 3.9s2.3 1.2 4.5 1.9 4.2 1.6 4.5 1.9c.8 1.1 11.1 3.2 12.1 2.5 1.2-.7 1.1-4.1-.2-6.6-.6-1.1-.7-2.3-.2-2.7.5-.3 2.2-2.4 3.9-4.6 7.6-10 10.1-22.3 5.8-29.1-.7-1.2-5.3-4.6-10.3-7.5-8.9-5.3-8.9-5.3-9.6-10.4-.3-2.8-1.6-6.9-2.9-9.2l-2.4-4.1 6.2-5.4c3.3-2.9 8.1-7.1 10.6-9.4 2.5-2.2 6.3-5.6 8.4-7.5 2.2-1.9 6.6-5.8 9.8-8.7l5.8-5.2h17.4c10.6 0 17.7-.4 18.1-1s-3.1-1-9.7-1.1c-5.7 0-13.5-.2-17.5-.4-6.6-.4-7.4-.2-10.7 2.4m-55.8 22.5c3.3 1.7 6.8 5.4 5.9 6.2-.3.4-2.2-.3-4.2-1.5-2-1.1-5.3-2.1-7.4-2.1-3.7 0-6.8-1.9-5.4-3.3 1.1-1.2 8.3-.7 11.1.7m-12.3 1.8c1.4.6 2.5 1.4 2.5 1.7 0 .4 1.3 1.4 2.8 2.4 4.5 2.6 3.2 7.1-3.6 13.2-14.3 12.8-22.9 36.7-17.8 49 1.3 2.9 1.3 3.5.1 3.5-2.1 0-9.7-6.2-12.3-10-2.2-3.2-2.4-4.3-1.9-12.5.8-14.5 5.5-24.4 17.1-35.7 6.6-6.4 6.6-8 0-2-11.7 10.7-18.5 24.9-18.7 39.1-.1 5.3.4 8.5 1.6 10.7 1.6 3 6 7.3 9.5 9.3 3 1.7.4 2.5-3.7 1.1-8.3-2.7-11-7.5-11.2-19.9-.1-5.3-.3-6.9-.9-5.1-.7 2.3-.8 2.2-.9-1.1-.3-10.2 10.9-30.9 20.4-37.9 1.9-1.4 1.9-1.3-.1 1-1.1 1.4-3.3 3.8-4.8 5.5-5.9 6.5-13.7 22.8-13.5 28.2 0 1 1.3-1.8 2.8-6.3 3.1-8.9 10.4-20.7 15.7-25.4 2-1.7 3.2-3.5 2.8-4.2s-.3-.8.5-.4c.6.4 2.5-.2 4.1-1.4 3-2.1 3-2.1 3 .3 0 1.7 1.2 3.2 4 5.1 4.2 2.8 5 3.1 5 1.8 0-.4-1.8-1.8-4-3.2-4.3-2.7-4.5-3.1-3-6.1 1.3-2.2 1.2-2.2 4.5-.7m15.8 5.5c5.2 2.7 5.2 2.7 2.1 3.3-1.7.4-3.6 1-4.2 1.4-.7.4-1.2.1-1.2-.8 0-.8-1.2-2.7-2.7-4.1-3.8-3.5-1-3.4 6 .2m-6.2 5.6c-.8.8-1.1.7-1.1-.4 0-.9.3-1.9.7-2.3s.9-.2 1.1.4c.3.7-.1 1.7-.7 2.3m16.8 1.1c2.1 1.2 1.8 1.2-3.1.8-4.1-.3-6.4.1-9.8 1.7-5.7 2.7-8.5 4.9-7.7 5.8.4.3 1.5-.1 2.4-.9 6-5.3 16.7-6.5 21.6-2.5 2.2 1.7 3 3.4 3.4 7.1l.6 4.8-5.9-3q-11.55-5.7-17.4-2.7c-1.7.9-3 1.9-3 2.4s-1.8 3.3-4.1 6.2c-6.6 8.8-8.4 13.4-8.4 21.6 0 8.1 1.1 9.8 9.2 15 4.5 2.8 4.5 2.8 1.6 4-6.2 2.7-12.9.4-15.6-5.3-2.2-4.4-2.2-15.9-.2-20.8.8-2 1.1-3.6.6-3.6-1.3 0-4.1 10-4.1 14.7 0 5 2.1 10.7 5 13.8 2.6 2.8 1.6 3.3-1.7 1-3.7-2.6-5.3-7.2-5.3-15.4 0-13.4 5-25.1 15-35.2 3.6-3.6 8.5-7.5 11-8.7 5.1-2.5 12.2-2.8 15.9-.8m-7 13.3c1.8 1.2 2.5 1.2 3.1.3.5-.9.9-.9 1.4-.1.4.6.2 1.1-.4 1.1-2.3 0 .1 1.7 8.5 6.1 8.9 4.5 12.5 7.2 12.5 9.1 0 .7-1.3.8-3.7.4-2.1-.3-4.8-.6-5.9-.6-1.2 0-2.4-.8-2.6-1.8-.3-.9-4.7-4.1-9.9-6.9-13.2-7.4-12.5-6.9-10.9-8.7 1.4-1.8 3.9-1.4 7.9 1.1m12.8 4.4c6.5 3.5 10.1 5.9 9 5.9-.9 0-13.8-6.9-15.1-8.1-1.9-1.7.4-.9 6.1 2.2m-16.7 1c3.3 1.7 6.3 3.6 6.7 4.2.3.6.1.7-.5.3-.7-.4-1.2-.3-1.2.2s2.9 2.4 6.5 4.2 6.5 3.6 6.5 4.1c0 .4-.6 1.4-1.4 2.2-2.6 2.6-7.6 11.1-7.6 12.9 0 1.1-.7 1.8-1.9 1.8-2.3 0-3.6 5.4-2.6 11.1.6 3.5.5 3.8-1.2 3.2-3.4-1.3-15.5-8.8-19.1-11.9-3.5-3-3.6-3.3-3.6-10 .1-5.3.7-8 2.7-11.9 2.6-5.3 8.7-13.4 10-13.4.4-.1 3.5 1.3 6.7 3m9 5.4c0 .3-.2.5-.5.5s-.5-.2-.5-.5.2-.5.5-.5.5.2.5.5m27.7 5.9c2.6 2.3 2.8 2.9 2.8 10.5 0 5.6-.4 8.4-1.4 9.3-1.2 1.1-1.3 1-.7-.7 1.5-4 1.7-12 .4-14.5-.7-1.4-2.8-3.1-4.6-3.9-1.7-.8-3.2-1.8-3.2-2.3 0-1.7 4-.7 6.7 1.6M565 729c1.2.8 1.1 1-.7 1-1.2 0-2.5-.5-2.8-1-.8-1.3 1.5-1.3 3.5 0m3 .5c0 .3-.2.5-.5.5s-.5-.2-.5-.5.2-.5.5-.5.5.2.5.5m7.8 1.1c1.8 1.3 2.2 2.5 2.2 7.3 0 7.3-1.9 12-7.3 17.8-7.1 7.8-14.3 9.1-18.7 3.6-2.1-2.7-2.8-9.7-1-10.8.6-.4 2.1-2.8 3.5-5.4 1.3-2.7 3.6-6.2 5-8 2.3-2.6 3.4-3.1 7.1-3.1 3 0 4.6-.5 5-1.5.8-1.9 1.4-1.9 4.2.1m-18.5 5.6c-4.8 7-5.9 8.1-3.8 3.8 2.3-4.5 5.6-9 6.7-9 .4 0-.9 2.4-2.9 5.2m-8.2 21.4c.2.7 0 1.3-.6 1.3-.5.1-1.1-2.5-1.1-5.6-.2-5.7-.2-5.7.5-1.3.4 2.5 1 5 1.2 5.6m28.9-8.1c0 .3-.2.5-.5.5s-.5-.2-.5-.5.2-.5.5-.5.5.2.5.5m-5.4 8.2c-3 3.9-3.6 5.2-3 7.7.6 2.7.5 2.8-1.7 2.2-1.3-.4-4.4-1-6.9-1.2-6.8-.8-9-1.3-9-2.4 0-.5 2.1-.7 4.8-.3 3.5.4 5.8.1 8.1-1.1 3.4-1.8 10.1-8.4 10.1-10 0-.5.3-.6.6-.3.4.4-1 2.8-3 5.4m-21.9 4c-.4.3-1 .3-1.4 0-.3-.4 0-.7.7-.7s1 .3.7.7m13 6.9c-.3.3-1.2.4-1.9.1-.8-.3-.5-.6.6-.6 1.1-.1 1.7.2 1.3.5M334.3 664c0 2.5.2 3.5.4 2.2.2-1.2.2-3.2 0-4.5-.2-1.2-.4-.2-.4 2.3M334.3 677c0 2.5.2 3.5.4 2.2.2-1.2.2-3.2 0-4.5-.2-1.2-.4-.2-.4 2.3M334.3 690c0 2.5.2 3.5.4 2.2.2-1.2.2-3.2 0-4.5-.2-1.2-.4-.2-.4 2.3M334.3 703c0 2.5.2 3.5.4 2.2.2-1.2.2-3.2 0-4.5-.2-1.2-.4-.2-.4 2.3"/><path d="M664.8 714c-4.5 5.1-6.1 6.3-10.7 7.5-14.7 3.8-30.3 15.2-43.5 31.7-3 3.8-4.5 4.8-6.8 4.8-6.3 0-10.3 5.1-7.3 9.6 2.2 3.4 2 4-3.1 6.3-3.3 1.6-4.9 3.1-6 5.7-1.7 4-1.3 5.1 2.3 6.5 2.1.8 2.4 1.4 1.9 3.7-.3 1.5-1.3 6.3-2.2 10.7-2 9.7-2.4 10.6-7.4 17.5-2.2 3-4.2 7-4.6 8.9-.6 2.9-.3 3.7 2 5.3 3.2 2.4 3.3 4.2.4 8.8-7.3 11.8-7.9 13.9-8.5 26.5l-.5 12 7.4 7.7c4 4.3 7.9 7.8 8.5 7.8s2.6 2.4 4.4 5.2c1.8 2.9 3.9 5.7 4.6 6.1s2 2.2 2.9 4 2 3.4 2.4 3.7c1.3 1 8.8 12.6 11.4 17.9 3.6 7 3.1 8.1-4.1 8.1-7.6 0-19.7-4.5-26.7-9.9-2.9-2.3-5.6-4.1-5.9-4.1-.6 0-3.9-1.5-28.2-13-4.9-2.3-12.3-5.3-16.3-6.6-8.1-2.7-10.4-4-18.8-10.3-9.8-7.4-13.5-12.6-17-24.1-1.3-4.1-4-10.2-6-13.5s-4.3-7.1-5-8.5c-1.6-3.1-12.1-14-13.4-14-.6 0-1-1.5-1-3.4 0-2.5-.5-3.6-1.8-4-1-.3-2.2-2-2.7-3.7-.7-2.3-2.4-3.9-6.3-6-3-1.6-5.8-2.6-6.4-2.3-.6.4-2.5.8-4.3.9s-4.5 1.1-6.1 2.2-3.7 2.3-4.6 2.6c-1 .4-1.8 1.3-1.8 2.1s-1 2.2-2.2 3c-1.6 1.2-2.2 2.8-2.5 6.8-.2 2.9 0 5.8.4 6.3.4.6 3.6 2.5 7 4.3 5.3 2.8 6.5 3.1 8.7 2.1 2-1 3.2-.8 6.3.6 2.1 1 4.7 2 5.8 2.1 1.2.1 3.7 1.2 5.6 2.3 2 1.2 4.7 2 6.2 1.9 3.6-.3 7.6 2.1 8.4 5 .3 1.3 2.1 4.9 3.9 8 1.9 3.1 3.4 6.1 3.4 6.6 0 .6 1.3 3.9 3 7.3 1.6 3.5 2.7 6.3 2.4 6.3s-2-.6-3.7-1.4c-1.8-.8-5-2-7.2-2.7-4.4-1.3-10-4.9-16-10.4-2.2-2-5.3-4.3-7-5.2-1.6-.8-5.2-3.2-8-5.3-2.7-2.1-6.3-4.4-8-5.1C438 855 431 848 431 845.3c0-2.6-1-3.6-6.4-6.6-2.2-1.2-4.6-3.6-5.5-5.3-1.3-2.6-9.4-8.7-16.8-12.8-.6-.3-5 1.9-9.7 4.9-8.6 5.6-8.6 5.6-8.6 10.3 0 5.1-.5 4.5 10 11 5.8 3.5 12.3 6.2 15.3 6.2 1 0 3.9 1.1 6.6 2.5 2.7 1.3 5.1 2.1 5.4 1.8.7-.6 9.7 2 13.5 3.9 1.2.6 2.2 1.7 2.2 2.4 0 .6.6 1.4 1.3 1.7.8.3 5.6 3.3 10.8 6.6 10.1 6.5 10.3 6.7 19.4 13.3 5.2 3.8 9.1 5.7 20.7 10 1.5.5 3.4 1.8 4.4 2.9.9 1 2.1 1.9 2.7 1.9.5 0 4.7 1.8 9.3 4s11.2 4.9 14.6 6.1c4.7 1.5 7.5 3.4 11.3 7.1 8.6 8.7 13.9 11.6 25 14 4.8 1 6.9 2.1 10.5 5.6 7.6 7.3 29.1 17.4 37.5 17.4 6.2.1 17.9-3.8 21.1-7 2.4-2.4 4-8 3.1-10.4-.3-.7-.6 0-.6 1.7-.2 5.5-3.2 8.8-10.2 11.3-10.1 3.5-15.5 3.8-21.9 1.2-18.1-7.5-29.4-14.2-28.7-17.2.1-.6-3.8-2.1-8.8-3.5-11.7-3.2-15.3-4.9-21.9-10.3-5-4.1-5.5-4.8-4.9-7.5.3-1.7.7-3.3.9-3.7.4-.6 5.2 1.4 21.9 9.2 4.4 2 10.3 4.7 13 6 2.8 1.2 6.1 2.7 7.5 3.3 1.4.7 4.5 2.9 6.9 4.9 2.4 2.1 5 3.8 5.7 3.8.8 0 1.4.4 1.4 1 0 .5.9 1 2 1s4.3.9 7.2 2c6.3 2.4 12.2 2.6 17.1.5 3.6-1.5 6.7-4.5 3.3-3.2-1.1.4-1.9.1-2.3-1.1-1.4-3.5-10.4-18.5-13.3-22-1.7-2-3-4.4-3-5.2 0-2 3.6-6 5.4-6 1.3 0 4.7 3.4 8.4 8.7 2.6 3.6 2.8 4.7.7 3.9-.8-.3-1.5-.1-1.5.4s.9 1.1 2 1.5c2.1.7 8.1 8.4 11.1 14.3 1 2 1.8 3.1 1.9 2.4 0-1.4-3.8-9.4-4.9-10.2-1.4-1.1-5.1-6.9-5.1-8 0-2.2-9.4-13.8-11.7-14.4-1.2-.3-4.4-3.2-7-6.3-2.6-3.2-8-8.9-11.9-12.8-7-7-7-7-6.8-14.1.1-5.6.8-8.2 3.2-13 1.7-3.3 3.8-6.6 4.7-7.4 1.4-1.2 1.9-1 3.8 1.3 2.5 3 11.4 8.7 13.5 8.7 1.4 0 8.8 3.5 16.5 7.9 4.7 2.6 6.4 2.6 15.5.1 11.4-3.2 23.6-9.9 29.3-16.2 2.5-2.8 2.9-2.2 2.9 3.7 0 8-3.5 14.3-13.4 24-8.6 8.4-10.6 12.2-10.6 19.9 0 4.7 2.2 8.9 7.6 14.8 2.4 2.6 4.4 5.4 4.4 6.1 0 1.3 1.8 2.3 7.3 4.1 1.3.4 1.7 1.6 1.7 5.8-.1 2.9-.7 6.4-1.5 7.8-2.1 3.6-1.9 10.4.3 12.1 3.5 2.8 6.3 3.9 8.6 3.3 2-.5 2.5 0 3.4 2.5.8 2.4 2.7 3.8 8.9 7 7.5 3.7 8 3.8 11.1 2.5 1.9-.7 3.6-1.3 4-1.3 2.4.4 4.2-.3 4.2-1.5 0-.8 1.8-2.5 4-3.7 2.9-1.6 4-2.9 4-4.6 0-2.5.3-2.7 2.8-1.4 1.2.6 3 .3 5.6-1 2.2-1 4.8-1.9 5.9-1.9 3 0 9.7-7.5 9.7-10.8 0-3.9-1.5-5.4-9-9.4-3.6-2-10.2-5.6-14.8-8.2-6.8-3.8-9.2-4.6-13-4.5-2.6 0-6-.2-7.7-.6-3.2-.8-10.5-1.5-14.4-1.5-1.3 0-4.5-1.3-7.1-3-2.6-1.6-5.4-3-6.3-3-3.1 0-6-5.8-6-12 0-5.8 0-5.8 8-13.6 10.8-10.5 13.4-15.7 14.4-28.3.8-10.5.4-14.5-1.7-16.2-2-1.7-1.8-2.4 2.4-8.4l3.7-5.4 19.3-.1H725v11h82v-23h-81.9l-.3 4.7-.3 4.8-17.7.3c-9.8.1-17.8 0-17.8-.2s2-4.2 4.3-8.8c2.4-4.6 5-10.1 5.7-12.3s1.6-4.5 2-5c1.3-1.6 4.1-16.4 4.7-24.6.7-9-1-19.6-3.9-25.7-3.6-7.2-8.1-11.5-17.2-16.2-4.7-2.5-8.6-4.8-8.6-5.3 0-.4-.9-.3-2.1.3-1.8 1-7.9.5-7.9-.6 0-1.6 6.5-9.7 8.3-10.3 2-.8 2-.9-1-2.4-3.1-1.7-3.1-1.7-8.5 4.3m7.2-3.4c0 .3-1.3 2.3-2.9 4.3-3.7 4.8-5.3 7.9-4.6 9.1.3.6 2.8 1 5.5 1s6.1.5 7.7 1.2c2.6 1.1 2.4 1.2-4 2-29.5 3.6-59.5 37.1-70.4 78.6-1.2 4.7-1.7 10.3-1.7 18.7.1 13.2 2 20.5 7.4 27.5 4.4 5.8 4.6 6.4 1.2 4.6-1.7-.9-3.9-1.6-4.9-1.6s-2.9-.9-4.3-1.9c-2.1-1.7-2.2-2.1-1.1-3.5 1.3-1.5 1.6-1.5 3.6.4 3.8 3.6 4 2.1.3-1.8-6.2-6.3-9.1-14.1-9.6-25.5-.3-7.1-.8-9.7-1.7-9.7-1.6 0-9.7 9.5-11.3 13.2-1.4 3.4-3.6 3.8-2.7.5 1.1-3.3 2.6-6 6.9-12.2 3.1-4.4 4.1-6.8 4.7-11.8 1-7.8 3.1-14.3 4.7-14 1.9.4 1.4-1.1-.8-2.7-1.1-.8-2-2.3-2-3.4 0-2.2 2.7-5.6 4.4-5.6.6 0 2.4-1.1 4.1-2.4 2.9-2.3 2.9-2.4 1.1-5.1-1.5-2.3-1.6-3.1-.6-5.6 1.1-2.6 1.7-2.9 5.6-2.9 2.4 0 4.4-.5 4.4-1 0-.6-.9-1-2.1-1-1.8 0-1.6-.5 1.7-4.8 5.5-6.9 18.3-19.3 23.8-23 8.4-5.7 18.6-10.2 23.3-10.2 1.3 0 3.6-1.8 6-4.6 2.1-2.5 4.4-5.2 5.1-6 1.4-1.4 3.2-1.9 3.2-.8m16.9 21.3c4.8 2.5 9.8 8.1 12.4 14 4.2 9.4 3.4 33.1-1.5 47.6-2.4 7-10.9 24.7-12.8 26.5-.3.3-2.3 3.1-4.4 6.2-2.2 3.2-4.2 5.8-4.6 5.8s-1.6-1.1-2.9-2.4c-2.2-2.3-2.2-2.3 3.2-10.2 10.9-15.9 16-30.3 16.1-45.9.1-11.7-1.4-17.8-5.7-23-3.5-4.3-12-8.5-17.2-8.5-6.1 0-21.3 7-27.8 12.7-2.5 2.2-12.7 14.2-14.7 17.3-.8 1.2-2.2 3.2-3.2 4.4-7.8 10.3-14.3 33.7-13.1 47.6.8 10.2 5.3 18.3 12.3 22.4 5.6 3.3 15.9 2.8 23.8-1.2 7.1-3.6 7.9-3.8 11.8-1.7 1.6.8 3.9 1.5 5.2 1.5 2.4 0 2.9 1.5 1 3.3-12.5 11.9-34 20.3-43 16.8-4.7-1.8-13.9-12.4-17.9-20.6-2.2-4.6-2.4-6.2-2.4-19.5.1-12.8.4-15.5 2.8-23.5 8.4-28 28.8-55.3 49.2-65.8 8.5-4.5 12.7-5.6 21.3-5.6 6.3-.1 9.2.4 12.1 1.8m-8.1 14c19 9.7 16.3 45.6-5.6 75.5-3.7 5-3.7 5-4.2 2.1-.4-2.6-1-3-4-3.3-1.9-.2-3.9-.7-4.4-1.2-.8-.8-3.6.5-9.4 4.1-1.2.8-2.6 2.6-3.3 4-.6 1.5-2.1 3.7-3.5 5-2.5 2.3-3.1 6.3-1.4 8.9.8 1.3 1.3 1.3 3.9-.1 1.7-1 3.4-1.3 4.2-.9.9.6-.6 1.7-4.7 3.7-4.9 2.3-7.2 2.8-13.5 2.8-6.6 0-8-.3-11-2.6-1.9-1.5-4.8-5.1-6.4-8-2.8-5.1-3-6-2.9-16.4.2-12.1 1.2-17.6 5.1-27.5 5.8-14.4 19.6-32.9 29.7-39.6 12.2-8 23.7-10.4 31.4-6.5m-78.6 15.3c-1.3.7-2.6 2.4-2.9 4.1-.4 2-.8 2.5-1.4 1.5-2-3 .6-6.9 4.4-6.7 2.2 0 2.2 0-.1 1.1M601 773c0 .5-2 1.9-4.4 3.1-2.9 1.3-4.8 3.1-5.6 5-1.4 3.2-3 3.9-3 1.1 0-2.9 1.7-4.6 7.2-7.3 2.9-1.5 5.4-2.7 5.6-2.8.1-.1.2.3.2.9m199.3 39.8 5.7.4V832h-80v-9.3c0-5.2.3-9.7.7-10.1.7-.7 62.8-.6 73.6.2m-207.1 18.7c.6 3.3 2.2 8 3.6 10.4 2 3.6 2.2 4.8 1.3 6.8-1.6 3.4-2.9 2-3.7-3.8-.4-2.7-1.1-5.2-1.5-5.5-.5-.3-.9-1.8-.9-3.5 0-3-1.7-3.8-3.8-1.7-.9.9-1.3.7-1.8-.5-.3-.9-1.5-1.7-2.5-1.7-1.3 0-1.9-.7-1.9-2.2 0-2 .1-2 1.3-.4 1.5 2 4.3 1.3 5-1.4.7-2.5-.8-4.4-2.8-3.6-1.6.6-1.6.4-.4-1.1.7-1 2.4-3.1 3.8-4.6 2.6-2.9 2.6-2.9 2.8 2 .2 2.6.8 7.5 1.5 10.8m-139-10.3c2.9 1.8 5.5 3.6 5.6 4 .5 1.1 2.2 1 2.2-.2 0-.5-1.8-2-4-3.2-2.2-1.3-4-2.7-4-3.1 0-.5.3-.7.8-.5 6.6 3.2 8.3 4.5 8.9 6.8.3 1.4 1.5 3.3 2.7 4.2 3.1 2.5 1.4 3.1-2.8 1.1-3-1.4-4-1.5-5.4-.5-.9.7-2.7 1.6-3.9 2.2-1.3.5-2.3 1.4-2.3 2 0 1.5.7 1.3 4.7-1.4 3.4-2.3 3.7-2.4 6-.8 2.4 1.5 2.4 1.6.7 2.9-1 .7-2.4 1.3-3.1 1.3s-1.3.7-1.3 1.5c0 1.2.6 1.2 3.7-.5 2.1-1.1 4.2-2 4.8-2 .5.1-.8 1-3 2.2s-3.5 2.3-2.8 2.5c.6.2 2.5-.3 4.2-1.2 3.3-1.7 5.5-1.1 8.1 2 1.2 1.5 1.2 1.8-.3 2.6-.9.6-1.7 1.8-1.7 2.8 0 1.1-.7 2.1-1.5 2.5-.8.3-1.5 1.2-1.5 2.1 0 2-.4 1.9-5-1-2.2-1.4-4-3.3-4.1-4.3 0-1.4-.2-1.4-.9.3-.8 1.9-.9 1.9-.9-.3-.1-2.4-2.1-3.1-2.1-.7 0 .8-.6 1.5-1.3 1.5-2.1 0-3.7-2.2-3.7-5.2 0-3.9-1.8-3.5-2.2.4-.2 1.7-.9 3.3-1.5 3.6-1.8.5-1.7-6.2.1-7.7.8-.7 1.7-2.3 2-3.6s2.3-3.4 4.3-4.6c2-1.3 3.2-2.4 2.6-2.6-2.1-.7-8.1 4.1-8.7 6.9-.7 3.6-2.4 3.5-8.6-.3l-5-3.1 2.7-3.4c2-2.7 9.2-7.6 12-8.4.1 0 2.6 1.5 5.5 3.2m208.3-.1c.4.6 2.1.9 3.8.7 2.4-.2 3.3.1 3.5 1.4.4 2-1 2.3-3.9.8-1.5-.9-3.1-.4-7.6 2.3-5.1 2.9-5.9 3.8-6.8 7.7-1.2 4.9-4 7.4-5.5 5-1.4-2.2-1.3-2.7 2-6.2 1.7-1.7 3-3.7 3-4.4 0-1.3 8.6-8.3 10.2-8.4.4 0 1 .5 1.3 1.1m-254.6 4.6c3.3 2.1 6 4.2 6.1 4.8 0 1.1-11.8 7.5-13.9 7.5-1.7 0-13.1-6.1-13.1-7 0-.3 1.9-1.7 4.3-3 2.3-1.3 5.3-3.2 6.6-4.2s2.7-1.8 3.2-1.8c.4 0 3.5 1.7 6.8 3.7m261 1.4c5.8 3 7 4.8 4.6 6.5-1.1.8-3.6 1.9-5.6 2.5-3.1 1-4.2.8-8.7-1.5-2.9-1.5-5.2-3-5.2-3.5s1.6-1.6 3.5-2.5 3.7-2.1 4-2.6c.9-1.5 3.1-1.2 7.4 1.1m-82.4.8c-.3.6-1.1 1.1-1.7 1.1s-.6-.6.2-1.5c1.4-1.7 2.6-1.3 1.5.4M416 833c0 .5-.5 1-1.1 1-.5 0-.7-.5-.4-1 .3-.6.8-1 1.1-1 .2 0 .4.4.4 1m23.9 2.5c3.5 2.2 4.1 3 4.1 6 0 1.9-.3 3.5-.6 3.5-.4 0-2.8-1.2-5.5-2.7-4.6-2.4-4.9-2.9-4.9-6.6 0-4.4.3-4.4 6.9-.2m-39.9 8.7c0 4.3-.5 4.5-4 1.8-1.4-1.1-2.8-2-3.3-2-1.9 0-7.7-4.7-7.7-6.2 0-4.7.9-4.8 8.1-1.1 6.7 3.6 6.9 3.8 6.9 7.5m12.5-9.2c-.3.5-1.2 1-1.8 1-.7 0-.6-.4.3-1 1.9-1.2 2.3-1.2 1.5 0m173.5 1.1c0 .5-.4.9-1 .9-.5 0-1-.7-1-1.6 0-.8.5-1.2 1-.9.6.3 1 1 1 1.6m73.4.5c3 1.7 4.6 3.2 4.6 4.5 0 2.4-.1 2.4-6-.6-3.5-1.8-5-3.1-5-4.5 0-2.6.8-2.5 6.4.6M419 836c0 .5-1.8 1.9-4.1 3-5.2 2.7-4.3 3.9 1.1 1.5 4.1-1.8 4.2-1.8 8.8.4 5.1 2.5 5.1 2.5-1.7 6.3-2.4 1.3-3.1 2.4-3.1 4.8 0 1.6-.2 3-.5 3-1.8 0-8.5-4.3-8.5-5.4 0-.8-.9-1.6-2-1.9-1.3-.3-2 0-2 .9 0 .8-.7 1.4-1.5 1.4s-1.5-.7-1.5-1.6c0-.8-.5-1.2-1.1-.9-.7.5-.9-.8-.7-3.7.3-3.7.6-4.3 2.4-4.1 1.2.1 4.4-.9 7-2.2 5.2-2.7 7.4-3.1 7.4-1.5m-10 .4c0 .3-.5.8-1.2 1.2s-.8.3-.4-.4c.7-1.2 1.6-1.6 1.6-.8m270.5 1.9c1.2 1.8 1.4 4.5 1 13-.8 14.8-2.6 18.5-14.9 30.4-8.6 8.3-11.5 11.6-8.6 9.8.6-.4 1 1 1 3.6 0 2.3.9 5.7 2.1 7.8 2.1 3.7 2.1 3.7-.2 7.6l-2.3 3.8-4.7-5.1c-5.9-6.4-7.1-11.7-4.4-19 1.7-4.3 8-11.7 13-15.3 5.1-3.5 10.5-15.1 10.5-22.4 0-2.4-.8-5-2-6.5-2.9-3.8-2.5-6.4 1.3-8.2 4.6-2.2 6.5-2.1 8.2.5m-91.5-.8c0 .3-.2.5-.5.5s-.5-.2-.5-.5.2-.5.5-.5.5.2.5.5m79 1c0 .3-.2.5-.5.5s-.5-.2-.5-.5.2-.5.5-.5.5.2.5.5m-80.2 1.1c3.2.9 2.8 3.3-2.3 11.8-2.5 4.2-4.5 8.3-4.5 9.1s-.4 1.5-.8 1.5c-1.1 0-3.5 5.1-2.8 5.8.3.3.8-.3 1.2-1.2 1.4-3.7 2.5-1.3 1.8 4.2-.6 5.9-.6 5.9 3.5 9.1 4.7 3.8 19.1 20.4 19.1 22.1 0 1.6-2.6 4-4.2 4-.8 0-2.6-1.9-4.1-4.3-3.9-6-7.4-9.7-9.2-9.7-.8 0-1.5-.4-1.5-.8s-1.5-2.3-3.2-4.2c-8.1-8.7-8-8.4-7.3-20 .4-6 1.4-12 2.3-14 2-4.3 8.3-14 9.1-14 .3 0 1.6.3 2.9.6m5.2 1.8c0 .8.3 2.3.6 3.3.5 1.2.4 1.5-.3.8-1.6-1.5-2.6-5.5-1.4-5.5.6 0 1.1.6 1.1 1.4m-113.6 3.8c1 1 1 1.7-.3 4-1.7 3-4.8 3.7-5.7 1.4-.6-1.5 2.4-6.5 3.9-6.6.4 0 1.4.5 2.1 1.2m-47.8 4.3c1.1 1.1 1.2 1.9.5 3.2-2.5 4.4-2.8 4.6-5 3.4-2.5-1.4-2.7-3.8-.4-6.3 2-2.2 3-2.3 4.9-.3m-7.8 2c-.6 1.4-1.3 2.4-1.4 2.2-.6-.6.9-4.7 1.7-4.7.5 0 .3 1.1-.3 2.5m61.1 1c1.1 1.9 1.8 3.5 1.5 3.5-.7 0-5.3-5.4-5.4-6.3 0-1.8 2-.4 3.9 2.8m-2.3 2c.9 1.4 1.4 2.8 1.1 3.2-.7.6-4.6-3.6-4.7-5 0-1.6 2-.6 3.6 1.8m-45.1.5c1 1.1 1.5 2 1.1 2-1.4 0-4.6-2.1-4.6-3 0-1.6 1.6-1.1 3.5 1m-1.5 3c2.8 2.2 2.4 2.5-1.4 1-1.4-.5-2.6-1.4-2.6-2 0-1.5 1.2-1.2 4 1m54.4 3.2c1.3 2.4 3.4 7.4 4.6 11.3 1.2 3.8 2.9 8.2 3.6 9.7 1.3 2.5 1.3 2.8-.5 3.7-1.5.9-2.2.6-3.5-1.4-.9-1.3-1.6-2.9-1.6-3.5 0-.5-.4-1-1-1-.5 0-1.2-1.7-1.6-3.8-.4-2-2.2-6.3-4.2-9.5-3.5-5.7-3.5-5.7-1.2-7.7 1.3-1.1 2.4-2 2.6-2s1.4 1.9 2.8 4.2m-42.9 0c2.6 1.8 6.9 4.6 9.4 6.1 2.5 1.6 7.1 5 10.1 7.6 7.4 6.4 13.9 10.4 17.4 10.7 2.7.2 6.7 1.8 9.3 3.7.9.7 1 1.5.2 2.8-1 2-3.8 2.5-5.5 1-.5-.5-3.2-1.6-6.1-2.5-2.8-1-7.1-3.2-9.5-5s-10.9-7.7-19.1-13.1c-8.1-5.3-14.7-10.1-14.7-10.5 0-1.9 1.3-4 2.4-4 .7 0 3.4 1.5 6.1 3.2m57.1 28.9c4.7 5 18.1 14.7 22.2 16 4.7 1.5 5.6 2.3 4.8 4.4-.4 1.2-1 1.4-1.9.7-.6-.5-3.6-1.5-6.6-2.2s-10.5-3.7-16.8-6.7c-11.9-5.8-12.7-6.7-10.2-11.6 2.5-4.6 4.5-4.7 8.5-.6M667 908.5c0 .2-1.1 2.1-2.5 4.1s-2.5 4.3-2.5 5.1-.6 1.3-1.2 1c-1.8-.6-1.3-6.5.8-8.8 1.5-1.7 5.4-2.7 5.4-1.4m5.5 3.7c2.6 2.1 2.7 2.2.9 3.5-1.1.8-3 2.3-4.2 3.4-4.7 4.1-7.3-1.2-3.1-6.5 2.5-3.2 2.9-3.2 6.4-.4m9.5 2.4c0 .4-.8 1.3-1.7 2-3 2.2.5 1.7 3.7-.6 3.2-2.2 6.9-1.8 4.9.6-.9 1.1-.8 1.4.4 1.4.9 0 1.9-.5 2.2-1 .3-.6 1.5-1 2.6-1 1 0 1.9.4 1.9 1 0 .5-.3 1-.8 1-.4 0-6.3 3.1-13.1 7-6.8 3.8-12.8 7-13.3 7-.4 0-.8-2.3-.8-5.1 0-4.7.2-5 2.1-4.4 1.7.6 2 .4 1.5-1.3-.5-1.4.3-2.5 3.1-4.5 3.6-2.4 7.3-3.5 7.3-2.1m27.3 3.7c3.4 2.1 3.7 2.5 2.3 3.6-.9.8-1.6 1.9-1.6 2.7 0 1 9.8 7.3 15.5 9.8.6.3 0 1.4-1.2 2.4-3.4 3-2.8 3.4 1.2 1.1 1.9-1.2 3.8-3.2 4.1-4.6.5-1.7 1-2.1 1.7-1.4.6.6 1.9 1.1 2.9 1.1 1.4 0 1.8.8 1.8 3.6 0 4-4.4 9.4-7.7 9.4-1 .1-2.9.7-4.3 1.5-3.5 2-4 1.9-4-1 0-1.4-.4-2.5-1-2.5-.5 0-1 1.1-1 2.5 0 3.2-2.7 3.3-4 .1-.5-1.5-3.5-3.8-8.1-6.3-4-2.1-7.4-4.3-7.6-4.9s.8-1.6 2.2-2.2c2.2-1 2.5-.9 2.5.8 0 1 .5 2.2 1 2.5.6.4 1-.5 1-2 0-2.5 0-2.5 5 0 2.7 1.4 5.2 2.5 5.5 2.5 1.6 0-1-2-5.6-4.5-5.1-2.6-5.1-2.6-9.5-.6-2.4 1.2-4.4 2.7-4.4 3.4 0 .6 3.8 3.4 8.5 6 7.8 4.4 8.5 5.1 8.5 7.9 0 3.3-2.4 6.8-4.6 6.8-.7 0-2.1 1.1-3.1 2.4-1 1.4-3.3 2.6-5.4 3-3.5.6-3.7.5-4.1-2.5-.4-2.6 0-3.4 2.8-5.2 2.9-1.9 5.7-5.8 5.9-7.9 0-.7-16.4-10.8-17.5-10.8-.3 0-1.1.4-1.8.9-2.9 1.8-.6 4.5 7.3 8.7 4.3 2.3 8.1 4.6 8.2 5.1.2.5-1.2 1.8-3.1 2.8-3.5 1.9-3.5 1.9-10.3-1.4-8.2-4-8.1-4-6.3-5.1 1.1-.7 1.1-1.1.1-2.4-.8-.9-2.1-1.6-3-1.6-1.4.1-1.3.3.2 1.5 1.8 1.3 1.8 1.4 0 3.9-2 2.8-5.4 3.3-9.6 1.3-2.2-1-2.7-1.9-2.7-5 0-3.8.8-4.5 2.7-2.6.6.6 1.7.9 2.5.6s.3-.9-1.4-1.5c-5.7-2.3-4.8-4 4.7-9.2 3.3-1.7 6.5-3.5 7-4 .6-.4 3.7-2.2 7-4 14.8-8.2 14.9-8.2 20.8-4.7m12.8 7.3c3.8 2 6.9 4 6.9 4.6 0 .9-12.5-5.4-14.4-7.3-1.9-1.7.5-.9 7.5 2.7m-1.6 2.5c4.1 2.2 7.5 4.5 7.5 5.1 0 1.2.3 1.3-8.7-3.7-4-2.2-7.3-4.3-7.3-4.8 0-1.2.8-.9 8.5 3.4m-31 10.1c2.5 1.1 3 1.9 1.9 3.1-1 .9-5.4-1.5-5.4-3 0-1.6.2-1.6 3.5-.1m3.5 4.3c0 .3-.2.5-.5.5s-.5-.2-.5-.5.2-.5.5-.5.5.2.5.5m4 2c0 .3-.2.5-.5.5s-.5-.2-.5-.5.2-.5.5-.5.5.2.5.5m-3 14.7c0 1.6-.5 2.8-1.1 2.8s-3.9-1.6-7.4-3.5c-4.8-2.7-6.4-4.2-6.8-6.3-.3-1.5-.3-3-.1-3.4.2-.3 3.8 1.2 7.9 3.5 6.5 3.6 7.5 4.6 7.5 6.9"/><path d="M602 766.5c0 2.9 1.5 3.3 2.9.6 1.1-2 .5-3.1-1.6-3.1-.7 0-1.3 1.1-1.3 2.5M606.6 766.2c-.9 1.2-1.6 2.9-1.6 3.8 0 .8 1 0 2.1-1.8 2.4-3.7 2-5.5-.5-2M594 782c-1.3 2.4-.8 3.6 2 4.3 1.5.4 2.4-.2 3.6-2.5 1.6-3.1 1-5.4-.6-2.8-.7 1-1 1.1-1 .2 0-1.9-2.8-1.4-4 .8m1.7 1.7c-.4.3-.7 0-.7-.7s.3-1 .7-.7c.3.4.3 1 0 1.4M656 737.3c-1.9 1.1-3.7 2.2-3.9 2.4-.2.1.4 1.5 1.4 3 1.8 2.7 1.8 2.7 4.1-.2 2.5-3.1 3.6-6.2 2.5-6.9-.4-.3-2.2.5-4.1 1.7m1.6 2.3c-.3.9-.6 1.8-.6 2s-.7.4-1.5.4c-1.8 0-1.9-1.2-.3-2.8 1.7-1.7 3.1-1.5 2.4.4M662.5 747.7c-15 5.4-29.3 19.6-39 38.8-5.4 10.6-7.5 19.3-7.5 31.3 0 14.5 2.1 16.4 9.1 8.3 4.3-4.9 4.3-4.9 4.1-13.3-.1-4.6.1-8.8.5-9.4s2.7-2.3 5-3.8c3.1-1.9 5.1-4.3 7.2-8.5 3.1-6.1 7.6-12.1 9.2-12.1 1.2 0-.1 3.1-2.8 6.4-4.4 5.3-6.3 10.2-6.3 16.4 0 6.3 1.2 8.3 6 9.7 1.4.4 3 1.2 3.6 1.7.7.5 2.2.4 3.8-.3 1.9-.9 2.6-2 2.6-4.1 0-1.5.4-2.8.8-2.8 1.5 0 7.1-10.5 7.7-14.5.4-2.2.2-5.2-.4-6.7-1-2.7-8.7-8.5-10.6-7.9-.5.1-.5-.3.1-.9s2.9-1.4 5-1.7c3.3-.4 4.4-.1 6.7 2.2 2.2 2.3 2.7 3.7 2.7 7.9 0 7.5.4 7.7 10.1 7.4 8.2-.3 8.4-.4 9.8-3.3 2-4 2.7-19.3 1.2-25.1-3.5-13.7-15.6-20.3-28.6-15.7m16.8 1.5c3.6 2.1 7.5 6.5 9.3 10.5 1.8 4.2 2.2 21.4.6 26.8-.8 3-.9 3-9 3.3l-8.2.3v-4.6c0-4.8-1.2-7.8-4.4-10.8-3.1-2.8-6-3-10.9-.7-6.8 3.2-12.3 8.7-16.1 15.9-1.8 3.6-4.1 7-5.2 7.5-7.6 4.2-7.4 3.9-7.4 14.2 0 9.5 0 9.5-3.7 13.4-2 2.2-4.2 4-4.8 4-1.7 0-2.6-11.1-1.5-19.6 3-24.1 22.9-51.7 42.9-59.5 5.4-2.1 15.1-2.4 18.4-.7M664 783.4c.8 1.1 1.1 3.5.8 7-.3 4.2-1.3 6.6-4.6 11.5-2.3 3.3-4.2 6.7-4.2 7.5 0 1.7-3.3 3.1-3.8 1.7-.2-.6-1.7-1.1-3.2-1.1-7.9 0-7.9-13-.1-22.8 1.7-2.2 3.1-4.5 3.1-5.2s.7-1.8 1.6-2.5c1.4-.9 2.4-.8 5.4.6 2 1 4.2 2.5 5 3.3"/><path d="M653.1 757.6c-1.5 3.3-1.1 3.7 2.3 2.5 2.9-1.2 3.5-3.6 1-4.5-2.1-.8-1.9-.9-3.3 2m2.9-.1c0 .3-.2.5-.5.5s-.5-.2-.5-.5.2-.5.5-.5.5.2.5.5M775 815.7c-4.3 1.7-3.8 5.1 1 7 2.7 1.1 4 2.2 3.8 3.2-.5 2.3-3.6 2.6-5.9.5-1.6-1.4-1.9-1.5-1.9-.2 0 .8 1.1 2 2.5 2.6 3.4 1.6 7.5-.3 7.5-3.4 0-1.9-.8-2.5-4.1-3.4-2.9-.8-3.9-1.6-3.7-2.8.4-2.3 3.2-2.6 5.2-.6.9.9 2 1.3 2.4.9s-.4-1.5-1.7-2.6c-2.5-2-2.7-2.1-5.1-1.2M733.7 817.8c-2 2.1-2.3 8.2-.5 10 1.9 1.9 5.6 1.4 6.8-.8 1.6-3-.5-6.3-3.6-5.7-1.9.3-2.4.1-2.2-1.2.2-1 1.3-1.6 3.1-1.6 1.5.1 2.6-.4 2.4-1-.6-1.8-4.3-1.6-6 .3m4.8 7.3c0 1.7-.6 2.4-2 2.4-2.3 0-3.3-3.4-1.3-4.6 2-1.3 3.3-.5 3.3 2.2M743.6 818.2c-3.1 4.3-1.3 10.8 2.8 10.8 3.6 0 5.2-2.5 3.7-5.6-.9-2.1-1.7-2.5-3.7-2.1-1.9.3-2.4.1-2.2-1.2.3-1.2 1.3-1.5 3.7-1.3 2.9.2 3.2 0 2.1-1.3-1.8-2.2-4.6-1.9-6.4.7m5.2 7.2c-.2 1.3-1 2.1-2.3 2.1-2.3 0-3.3-3.4-1.4-4.5 2-1.3 4 .1 3.7 2.4M759.6 818.2c-3.3 4.6-.7 10.8 4.4 10.8 2.8 0 6-2.2 6-4.1 0-1.6-1.5-1-2.8 1.1-1.5 2.5-4 2.6-5.8.2-1.8-2.3-1.7-5.7.2-7.6 2-2 3.8-2 5.9 0 2 2 3.3 1.1 1.5-1.1-1.9-2.3-7.6-1.9-9.4.7M785.6 817.6c-1 .9-1.6 3.3-1.6 5.9 0 5.1 2 6.9 5.7 5.2 1.9-.8 2.3-1.8 2.3-5.2 0-2.8-.6-4.7-1.8-5.8-2.3-2.1-2.7-2.1-4.6-.1m3.9 5.5c0 3.2-.4 4.4-1.5 4.4-1.6 0-2.6-5.4-1.6-8.2 1.2-3 3.1-.6 3.1 3.8M753 824c0 .5.7 1 1.5 1s1.5-.5 1.5-1c0-.6-.7-1-1.5-1s-1.5.4-1.5 1M441.2 831.5c4.1 2.7 4.8 3 4.8 1.5 0-1.1-5.2-4-7.2-4-.7 0 .4 1.1 2.4 2.5M670 926.4c0 .9.5 1.6 1 1.6.6 0 1-.4 1-.9 0-.6-.4-1.3-1-1.6-.5-.3-1 .1-1 .9M702.5 923.2c-2.7 1.7-7.2 4.3-10 5.9-2.7 1.5-5.1 3.2-5.3 3.9-.2.6 1.6-.1 4-1.5 2.3-1.3 7.3-4.2 11-6.2 3.8-2.1 6.8-4.1 6.8-4.6 0-1.2-1.2-.7-6.5 2.5M333.9 716c-.7 3.5-.4 4.8.7 3.8.3-.4.4-2.1.2-4l-.3-3.3zM671.5 716c-1 3.1.4 4.4 2.6 2.4 1-.9 1.9-2.3 1.9-3.1 0-2.1-3.8-1.5-4.5.7m2.5 1c0 .5-.5 1-1.1 1-.5 0-.7-.5-.4-1 .3-.6.8-1 1.1-1 .2 0 .4.4.4 1M678.1 719.3c2.1 1.6 7.9 4.5 7.9 3.9 0-1-5.4-4.2-7.1-4.2-.7 0-1 .1-.8.3M690.5 726c.9 1.4 6.5 4.2 6.5 3.2 0-.5-1.6-1.6-3.6-2.5-1.9-1-3.3-1.3-2.9-.7M333.6 728.8c-.4 1.8-.5 3.6-.2 3.9 1.1 1.2 1.7-.5 1.4-3.9l-.3-3.3zM704 734c2.3 1.8 5 2.6 5 1.5 0-.6-5.6-3.5-6.7-3.5-.4 0 .3.9 1.7 2M713 738.8c.1 1 7 4.4 7 3.4 0-.5-1.6-1.6-3.5-2.5s-3.5-1.3-3.5-.9M333 742.5c0 2.2.4 3.4 1 3 .6-.3 1-1.7 1-3s-.4-2.7-1-3c-.6-.4-1 .8-1 3M725.4 745.1c-1.2 2 5.2 8.3 12.2 12 4.8 2.6 7.1 4.4 7.7 6.3 1.9 5.8 10.7 1.4 10.7-5.4 0-3.4-2.2-5.4-5-4.5-1.5.5-3.9-.4-8-2.9-5.7-3.6-12.9-6.6-15.6-6.6-.7 0-1.6.5-2 1.1m6.1 1.9c.3.5 1.5 1 2.6 1 2.2 0 2.4.8.4 3.4-1.7 2.3-3.8 1.1-2.9-1.7.5-1.8.4-2-.7-1-1.3 1.3-3.9.1-3.9-1.8 0-1.2 3.7-1.1 4.5.1m8.5 3.9c-.1.3-.6 1.6-1.4 2.9-1.1 2-1.4 2.1-2.5.8-1.6-1.9.2-5.8 2.4-5 .8.4 1.5.9 1.5 1.3m4 2.3c0 2.3-1.8 4.1-3.3 3.5-2.2-.8-1-4.7 1.4-4.7 1.1 0 1.9.6 1.9 1.2m3 3.8c-1.2 2.3-3 2.7-3 .7 0-1.7 1-2.7 2.7-2.7 1.1 0 1.1.5.3 2m7-1.6c0 .2.3 1.2.6 2 .5 1.2.2 1.5-1.2.9-1.4-.5-1.6-.3-1.1 1.1.4 1 .1 1.9-.8 2.2-.8.4-1.3 1-1 1.4.9 1.5-1.5 2.2-3 1-1.9-1.6-1.9-1.9.5-5.8 1.2-1.9 2.8-3.2 4-3.2 1.1 0 2 .2 2 .4M333.3 756c0 2.5.2 3.5.4 2.2.2-1.2.2-3.2 0-4.5-.2-1.2-.4-.2-.4 2.3M333.3 769c0 2.5.2 3.5.4 2.2.2-1.2.2-3.2 0-4.5-.2-1.2-.4-.2-.4 2.3M333.3 782.5c0 2.7.2 3.8.4 2.2.2-1.5.2-3.7 0-5-.2-1.2-.4 0-.4 2.8M333.3 795.5c0 2.7.2 3.8.4 2.2.2-1.5.2-3.7 0-5-.2-1.2-.4 0-.4 2.8M333.3 809.5c0 2.7.2 3.8.4 2.2.2-1.5.2-3.7 0-5-.2-1.2-.4 0-.4 2.8M333.3 822.5c0 2.7.2 3.8.4 2.2.2-1.5.2-3.7 0-5-.2-1.2-.4 0-.4 2.8M332.6 835.3c-.5 2.1-.6 4.1-.2 4.4 1.2 1.2 1.7-.5 1.4-4.3l-.4-3.9zM332.7 844.7c-1.1 1-.8 8.1.3 8.8.6.4 1-1.3 1-4.4 0-5.2-.1-5.6-1.3-4.4M332 861.9c0 2.2.5 4.3 1 4.6.6.4 1-1.2 1-3.9 0-2.5-.4-4.6-1-4.6-.5 0-1 1.8-1 3.9M332.7 871.7c-1.1 1-.8 8.3.3 8.3.6 0 1-2 1-4.5 0-4.6-.2-5-1.3-3.8M332.7 884.7c-1.1 1-.8 8.1.3 8.8.6.4 1-1.3 1-4.4 0-5.2-.1-5.6-1.3-4.4M332 902.5c0 2.5.5 4.5 1 4.5.6 0 1-2 1-4.5s-.4-4.5-1-4.5c-.5 0-1 2-1 4.5M332 916c0 2.2.5 4 1 4 .6 0 1-1.8 1-4s-.4-4-1-4c-.5 0-1 1.8-1 4M332 929c0 2.2.5 4 1 4 .6 0 1-1.8 1-4s-.4-4-1-4c-.5 0-1 1.8-1 4M332 942c0 2.2.5 4 1 4 .6 0 1-1.8 1-4s-.4-4-1-4c-.5 0-1 1.8-1 4M332 955.5c0 2.8.4 4.4 1 4 .6-.3 1-2.1 1-4s-.4-3.7-1-4c-.6-.4-1 1.2-1 4M332.1 968.5c.1 5 .1 5 1.1 1.2.7-2.8.7-4.2-.1-5s-1.1.2-1 3.8M332 981.9c0 2.3.3 4 .8 3.8.9-.6.8-6.4-.1-7.4-.4-.3-.7 1.3-.7 3.6M332.3 995c0 2.5.2 3.5.4 2.2.2-1.2.2-3.2 0-4.5-.2-1.2-.4-.2-.4 2.3M332.3 1024c0 2.5.2 3.5.4 2.2.2-1.2.2-3.2 0-4.5-.2-1.2-.4-.2-.4 2.3M332.2 1037.2c-.2 4.3 0 4.7 3.4 6.7 4.7 2.8 5.6 2 1-.8-2.9-1.9-3.6-2.9-3.9-6.4-.4-4.2-.4-4.2-.5.5M344.5 1049c.3.5.8 1 1.1 1 .2 0 .4-.5.4-1 0-.6-.5-1-1.1-1-.5 0-.7.4-.4 1M349 1050.4c-2.7 3.4-.8 5.9 9.2 11.6 7.3 4.1 10 6.3 11.2 8.7 2 4.2 4.5 4.2 8.3.3 2.8-3 2.8-3 22.2-3 10.7 0 19.1-.3 18.8-.6-.6-.6-14.9-1.3-30.4-1.4-6.3 0-7.3-.2-7.3-1.8 0-2.7-2-4.2-5.5-4.2-1.7 0-5.1-1.2-7.6-2.8-7.2-4.4-14.6-8.2-16.2-8.2-.8 0-2 .7-2.7 1.4m5.3.2c.3.4-.1 2-.9 3.7-1.4 2.6-1.7 2.8-3.1 1.4-1.2-1.1-1.3-1.9-.4-3.6 1.1-2 3.1-2.7 4.4-1.5m4.2 2.4c.8 1.2-2.5 6.1-3.6 5.4-1.3-.8-1.1-3.8.3-5.2 1.5-1.5 2.5-1.5 3.3-.2m3.8 2.6c.7.8-2.2 5.4-3.4 5.4-1.3 0-1.1-3.4.3-4.8 1.3-1.3 2.2-1.5 3.1-.6m4.2 2.3c.9 1.6-1.6 6-3.1 5.4-1.7-.6-1.8-3.5-.2-5.1q2.1-2.1 3.3-.3m5 3.1c.3.5 0 1.8-.7 3-2.3 3.6-5.9 1.8-3.8-2 1.1-2.1 3.5-2.7 4.5-1m7.9 2.3c1.3 2-.1 3.7-1.5 1.7-.8-1.2-1-1-.6.9.4 1.7.1 2.5-1.4 2.8-1.6.4-1.7.8-.8 1.4 1.7 1-1.4 2.4-3.6 1.5-2.4-.9-1.8-4.1 1.5-7.6 3.1-3.3 4.7-3.5 6.4-.7M422.9 1064.6c-1.6 2-.2 4.6 3.2 5.5 2 .5 2.1.7.7 1.4-.9.4-2.2.4-2.8 0-.5-.3-1-.2-1 .3 0 1.3 2.9 2.4 4.2 1.6 1.8-1.1 2.8-5.3 1.8-7.9-1.1-2.9-4.1-3.3-6.1-.9m4.9 1.7c.2 1.2-.3 1.7-1.7 1.7-1.2 0-2.1-.6-2.1-1.3 0-3.1 3.2-3.4 3.8-.4M431.1 1064.8c-1.2 2.2 1.2 5.7 3.4 4.9.9-.4 1.5-.1 1.5.9 0 1.2-.7 1.5-2.5 1.2-2-.4-2.3-.3-1.4.8 2 2.4 5.9-1 5.9-5.1 0-1.8-2.8-4.5-4.5-4.5-.8 0-1.9.8-2.4 1.8m4.7 1.5c.2 1.2-.3 1.7-1.7 1.7-1.2 0-2.1-.6-2.1-1.3 0-3.1 3.2-3.4 3.8-.4M440.7 1063.7c-.2.5-.7 2.4-1.1 4.4-.8 4.5 1.1 6.7 4.3 5 3.1-1.7 2-10.1-1.4-10.1-.8 0-1.6.3-1.8.7m3.3 1.8c0 .8-.7 1.5-1.5 1.5-1.6 0-2-1.2-.8-2.3 1.1-1.2 2.3-.8 2.3.8m0 5.1c0 1.4-2.1 1.9-3.3.7-.9-.9 1.3-3.4 2.4-2.7.5.3.9 1.2.9 2M449 1064c-.8.5-1.2 1.2-.9 1.5.4.3 1.2-.1 1.9-1 1.4-1.7 1.1-1.9-1-.5M470.6 1064.6c-2.1 2.1-1.7 7.3.6 8.8 1.4.8 2.1.6 3.2-.9 2.1-2.7 2-5.9-.3-7.9-1.7-1.6-2-1.6-3.5 0m3.4 4c0 2.8-.4 3.5-1.7 3.2-2.2-.4-2.9-4.4-1.3-6.3 1.8-2.2 3-.9 3 3.1M451.9 1066.1c-.1 1.3 0 3.3.1 4.3.1 1.4-.3 1.8-1.9 1.3-2.4-.6-2.9 1.1-.6 1.9 2.5 1 4.4-1.4 4.2-5.1-.3-4-1.7-5.9-1.8-2.4M458.3 1066.2c-2.8 3-2.9 4.8-.4 4.8 1.1 0 2.1.6 2.4 1.2 1 2.6 1.9-2.3 1.1-5.3-.9-3.1-.9-3.1-3.1-.7m1.3 3.5c-1.1 1.1-1.9-.6-1.1-2.4.8-1.7.8-1.7 1.2 0 .3 1 .2 2.1-.1 2.4M480.5 1065c-.3.5-.1 1 .4 1 .6 0 1.1.9 1.1 2 0 1.2-.7 2-1.6 2-1 0-1.4-.5-1-1.6.3-.8.2-1.2-.4-.9-1.7 1.1-1.1 3 1.5 4.1 2.8 1.4 3.2.7 2.7-4.2-.4-3.4-1.5-4.3-2.7-2.4M487.7 1064.7c-.7 1.3.5 8.3 1.4 8.3.5 0 .9-2 .9-4.5 0-4-1.1-5.8-2.3-3.8M494.7 1064.6c-1.3 1.3-.7 7.1.8 8.4 2.7 2.3 4.6.4 4.3-4.2-.2-3.4-.7-4.4-2.3-4.6-1.2-.2-2.4 0-2.8.4m4.1 4.2c.3 2.7 0 3.2-1.7 3.2-1.6 0-2.1-.6-2.1-2.8 0-5.3 3.3-5.6 3.8-.4M464.8 1069.7c.7.3 1.6.2 1.9-.1.4-.3-.2-.6-1.3-.5-1.1 0-1.4.3-.6.6"/></svg>