<svg xmlns="http://www.w3.org/2000/svg" viewBox="0 0 992 1402" fill="currentColor"><path d="M142.5 251.3c-3.3 1.7-6.2 3.4-6.5 3.8-.3.3-2 1.4-3.7 2.3-1.8.9-3.3 2.1-3.3 2.7 0 1.2 10.9 17.7 12.3 18.6 1.3.8.5-.6-5.2-9-6.9-10.2-6.7-9.9-5.5-10.4.7-.2 4.1-2.2 7.7-4.3 3.6-2.2 6.8-4 7.1-4 .4 0 .6 1.7.6 3.8 0 4.1 1 5.4 6.5 8.3 1.7.9 5.5 3 8.5 4.6 3 1.7 8.8 4.7 12.8 6.8 7.2 3.7 7.2 3.7 7.2 10.6 0 3.7-.4 7.1-1 7.4-.9.5-8.4-3.2-23-11.3-7-3.9-10.5-4.5-10.5-1.7 0 1.1-.4 2.6-.8 3.3-1.1 1.7 1 4.3 2.9 3.5.8-.3 1.4-1.8 1.4-3.4 0-3.5 1.5-3.7 6.7-.7 8.4 4.8 17 9.5 20.6 11.2 3.6 1.6 4 1.6 6.4.1 1.8-1.2 2.3-2.2 1.9-3.8-.3-1.2-.6-4.7-.6-7.7 0-5.6 0-5.6-5.2-8.3-30.2-15.4-29.3-14.8-29.6-20.5-.2-2.8-.6-5.2-1-5.1-.4 0-3.4 1.5-6.7 3.2"/><path d="M148.1 269.7c.1 3.2.3 5 .6 4 .2-.9 1.3-1.7 2.4-1.7 2.5 0 2.4-.8-.3-3-2.7-2.1-1.6-4 1.2-2.2 2.5 1.5 2.6.4.3-1.4-3.5-2.6-4.3-1.7-4.2 4.3M156.4 269.7c.2 1 .8 3.7 1.1 6 .7 4.6 1.9 5.6 2.8 2.2.7-2.8 2.3-1.7 3 2.1.9 4.2 2.1 3.7 3.4-1.2 1-3.9.7-7.1-.4-4.1-.7 2-2.3 1.5-2.3-.6 0-2.6-1.8-3.7-2.6-1.7-1 2.5-2.2 1.9-2.9-1.4-.4-1.7-1.1-3-1.6-3-.6 0-.8.8-.5 1.7M170 281.5c0 5 .2 5.6 2.6 6.5 3.2 1.3 3 1.3 4.8-.6 2.4-2.4 1.9-5.3-1.5-8.5-4.7-4.4-5.9-3.9-5.9 2.6m6.4-.2c1.9 2.5 1.9 2.8.4 4.3-2.7 2.7-4.8 1-4.8-3.7 0-4.6 1.2-4.8 4.4-.6M142.5 281c.3.5.8 1 1.1 1 .2 0 .4-.5.4-1 0-.6-.5-1-1.1-1-.5 0-.7.4-.4 1M530.7 500.6c-.4.4-.7 6-.7 12.4v11.7l5.8.6c9.4.8 82.2.9 82.2 0 0-.4.1-6 .2-12.2.2-11.5.2-11.5-2.4-12.2-3.4-.9-84.2-1.2-85.1-.3m85.1 12.6.3 9.8H534v-20l40.8.2 40.7.3z"/><path d="M540.4 506.5c-1.2 1.8-1.5 3.9-1.2 7.6.6 5.5 2.1 7.3 5.1 5.8 2.7-1.5 2-8-1.1-9.4-2.7-1.2-2.3-3.1.7-2.8 2.3.3 2.7-.7.9-2.5-1.7-1.7-2.6-1.5-4.4 1.3m3.6 9.1c0 3.1-2.3 2.8-2.8-.4-.2-1.5.2-2.2 1.2-2.2 1.1 0 1.6.9 1.6 2.6M550 507.2c0 3 .1 3.1 1.4 1.2 2.1-2.8 2.9-1.2 1.7 3.3-1.3 4.6-1.4 9.3-.2 9.3.7 0 3.1-11.7 3.1-15.4 0-1.1-1-1.6-3-1.6-2.7 0-3 .3-3 3.2M572.6 506.2c-4 5.7.1 18.7 4.1 13.2 1.7-2.3 1.6-11.4-.1-13.7-1.7-2.2-2.2-2.2-4 .5m3.2 6.9c-.2 2.4-.7 4.4-1.3 4.4-1.2 0-1.9-6.9-1-9.3 1.1-2.9 2.6.4 2.3 4.9M583 505.5c-1 1.2-1 1.9-.2 2.7.9.9 1.2.9 1.2 0 0-.7.5-1.2 1-1.2.6 0 1 .9 1 2s-.4 2-1 2c-.5 0-1 .7-1 1.5s.5 1.5 1 1.5c.6 0 1 .9 1 2 0 2.2-1.6 2.7-2.3.7-.2-.6-.8-.8-1.3-.4-.9.8.6 3.9 2.2 4.4 1.7.5 3.4-1.3 3.4-3.8.1-8.1-.2-10.4-1.1-11.6-1.5-1.7-2.4-1.6-3.9.2M593.9 505.6c-2.1 2.6-1.8 11.9.4 14.1 1.8 1.7 1.9 1.7 3.3-.1 2.1-3 1.9-11.9-.5-14-1.7-1.5-1.9-1.5-3.2 0m3.1 7c0 4-.4 5.5-1.2 5.2-1.4-.5-2.3-7-1.4-9.4 1.2-3.2 2.6-1.1 2.6 4.2M560 513c0 .5 1.8 1 4 1s4-.5 4-1c0-.6-1.8-1-4-1s-4 .4-4 1M574.1 565c.1 21.2.4 54 .8 72.9l.6 34.5-3.9 3.5c-6.9 6.3-11.7 11.5-16.4 17.6-16.9 22.1-37.7 33.7-69.2 38.5-7.9 1.2-20.9 4.8-22.4 6.1-.5.4.4 1.4 2 2 1.6.7 3.6 1.9 4.4 2.6 1.3 1 2.7.9 7.4-.3 9.6-2.5 11-1.5 3.7 2.8-5.9 3.5-6.4 3.6-8 2.1-4-4.1-13.4-9.1-19.8-10.6-21-5-49.4-6.9-64.4-4.3-9.6 1.6-19.9 4.5-24 6.6-3.7 2-1.3 2.1 3.2.2 9.5-4.1 22.3-6.2 37.5-6.2 8 0 17.5.4 21.2 1 3.7.5 11.3 1.7 16.9 2.5s11.2 1.9 12.5 2.4c2.1.8 2 1-2.5 3-2.6 1.2-4.7 2.5-4.7 2.9 0 .5-2.7.6-6.1.4-10-.7-23.5 2.1-33.9 7.1-15.1 7.2-36 28.7-43.6 44.9-1 2.1-2.1 3.8-2.6 3.8-1.3 0-1-1.2 1.2-4.8 2.3-3.7 2.8-6.4.8-4.4-.7.7-1.8 1.2-2.5 1.2-1.1 0-1.1-.5 0-2.8 3-5.8 4-15.1 2.9-27.2-1.2-13.1-.3-16.8 4.6-19.4 4.9-2.5 10.7-3.1 13.3-1.2 2.5 1.7 8.7 2 20.2.9 6.5-.6 6.7-.7 6.7-3.4 0-2.5-.4-2.8-5.4-3.9-3.6-.7-6.8-.8-9.7-.1-2.4.5-7.1 1.5-10.4 2.1-20.8 4-22.1 5.6-20.9 27.8.6 13.4.3 16.9-2.6 23.7-.4 1.1-1.1 2.8-1.4 3.7-.9 3.1-5.6 5.1-14.9 6.3-11.4 1.4-19 .7-19.5-1.8-.2-1 .4-2 1.5-2.3 8-2.7 9-4.2 4.7-7.1-2.5-1.6-2.7-1.6-4 .2-1.2 1.6-1.4 1.6-1.4.2 0-1.7 2.3-11 3.5-14 1.1-2.6 4.5-2.2 4.5.6 0 1.3-.6 2.9-1.2 3.6-2 1.9 2.5 5.1 7.3 5.1 3.5 0 4.2-.5 9.4-6.9 6.7-8.3 6.5-10.4-1.1-11.6-4.3-.6-4.9-.4-7.5 2.4-2.1 2.3-3.7 3.1-6.3 3.1-3 0-3.4-.3-2.9-1.8 1.7-4.6 12.7-16.8 18.6-20.7 1.5-1 2.5-2 2.3-2.2-.9-1-12.6 9-16.6 14.2-4.1 5.3-9.4 16.9-10.6 23.1-.8 4.3-4.3 6.3-9.6 5.6-3.8-.4-4.3.1-3.8 3.7.3 2.4 7.6 8.1 10.3 8.1 1 0 1.6 1.6 2 5.2.4 2.9.9 6.3 1.3 7.6.5 1.7.3 2.1-.8 1.7-.9-.4-3.1.3-4.9 1.3-1.9 1.1-7.4 4.3-12.2 7.1-4.9 2.8-9.2 5.1-9.5 5.1-.4 0-2.9 2-5.7 4.5-4.9 4.4-4.9 4.4-2.5 6.9 1.3 1.5 2.8 2.6 3.3 2.6s2.6-1.5 4.7-3.4c2-1.8 9.4-6.4 16.4-10.2 12.4-6.8 12.6-6.9 12.1-9.9-.5-2.5-.1-2.2 2.2 2 1.6 2.7 4.2 7 5.9 9.5s4.1 7.9 5.4 12c3.8 12.7 5.4 16.4 7.8 17.5 2.9 1.3 2.8 2.3-.4 3.1-3.4.9-7.4-.5-8.8-3.1-5.7-10.4-13-14.1-18.8-9.5-3.2 2.5-6 10.7-5.2 15 .6 3 .5 3.1-2.1 2.8-1.8-.2-3.4-1.3-4.4-3-.9-1.5-3.5-5.1-5.8-8.1-2.4-3-4.3-6-4.3-6.8s2.6-2.8 5.8-4.5c14.5-7.8 28.2-15.8 28.2-16.5s-2.2.4-24.2 12.8c-10.7 6-10.7 6-13.4 3.2-3.5-3.7-5.6-3.8-2.3-.2 1.4 1.6 4.1 5.2 5.9 8.1 1.8 3 3.8 5.9 4.4 6.5 2.4 2.5 5.8 7.8 5.3 8.3-1.1 1.1-4.7-1.7-4.7-3.6 0-1-1.2-2.7-2.7-3.7-5.7-3.9-8.3-7.4-8.3-11.2 0-2.9-.6-4-3.2-5.8-1.8-1.3-3.6-1.9-4.1-1.4-1.7 1.7-1 10.5 1.1 14.7 2.8 5.5 9.7 11.4 13.4 11.4 2.4 0 2.8.4 2.8 2.9 0 3.7-3.7 6.5-11.3 8.5-3.1.8-6.5 1.9-7.6 2.5-2.8 1.5-7.1 7.4-7.1 9.7 0 1.1-.9 3.7-2.1 5.8-1.7 3.3-1.9 4.3-.8 6.8 1.5 3.8 4.1 5.1 6.4 3.4 1.2-.9 1.6-2 1.2-3.7-2.6-10.4-2.9-13.1-1.9-15.4 1.5-3.2 5-5.4 11.8-7.1 3.1-.9 6.7-2.2 8-3.1 2.3-1.5 2.4-1.4 2.4.9 0 1.3.7 3.4 1.6 4.7 1.2 1.7 1.3 2.6.5 3.4-2.9 2.9.7 8.7 5.4 8.7 3.2 0 1.2 4.3-2.5 5.5-2.9.9-4.2 2.4-7.6 8.6-8.8 16-10.7 19.4-11.4 20.4-.5.5-2.3 3.7-4.1 7s-4.3 7.8-5.6 10-3.6 6.5-5.2 9.5c-9.9 18.5-9.5 18.3-22 11.7-7.9-4.1-9-4.5-10.7-3.2-1.1.8-2.6 1.5-3.5 1.5-1.8 0-2-1.8-4-32-1.1-18.1-1-19.5 3.1-32.5 3.3-10.3 8.1-26.3 10.5-34.8 1.7-6 6.3-12.2 18.5-25.1 6.6-6.9 18-13.1 18-9.7 0 .5-.3 1.1-.7 1.3-.5.1-3 2.8-5.8 5.8-2.7 3.1-8.4 9.3-12.5 13.9s-7.8 8.8-8.1 9.5c-1.1 1.9-9.1 28.7-8.7 29.2.2.2 2.5-6.3 5.1-14.4 3.3-10.3 5.5-15.6 7.5-17.7 1.5-1.7 6.5-7.3 11.2-12.5 12.8-14.4 11.7-13.7 15.6-9.5 1.7 1.9 3.5 3.5 4 3.5.4 0-.6-1.5-2.4-3.3-2.6-2.7-3.3-4.5-4.1-10.3-1.3-8.8-1.9-10.4-4-10.4-2.8-.1-6.9-4.5-6.8-7.5 0-4.5 5.3-12.6 25.1-38 15.8-20.3 19.5-24.6 34-39 17.6-17.6 22.4-21.8 43.2-38.2 12.1-9.5 31.5-23.7 36.6-26.8.9-.6 3.4-2.2 5.5-3.6 16.5-11.2 31.8-20 55-31.4 11.7-5.8 21.5-10.5 21.8-10.5s4-1.6 8.2-3.6c4.3-2 10.1-4.5 12.8-5.6 2.8-1.1 6.4-2.5 8-3.3 4.1-1.8 17.1-6.7 28-10.6 17.8-6.3 20.5-7.4 20.5-8.1 0-.5-.2-.8-.4-.8-2.1 0-38.5 13.2-48.1 17.5-1.6.7-5.2 2.2-8 3.3-2.7 1.1-7.9 3.3-11.5 5-3.6 1.6-8.7 4-11.5 5.2-22 9.8-55.8 28.1-73.5 40-.8.6-5.1 3.3-9.4 6.1s-8.4 5.5-9 6-6 4.6-12.1 9.1c-6 4.6-11.2 8.5-11.5 8.8s-3.9 3.2-8 6.4c-25.8 20.4-51.5 46.7-73 74.6-1.9 2.5-3.7 4.7-4 5s-1.7 2.1-3 4-2.7 3.7-3.1 4c-.3.3-3.8 5.3-7.8 11.2-5.5 8.2-7.1 11.5-7.1 14.2 0 2 .4 3.6.8 3.6.5 0 2.2 1.1 3.8 2.5s3.2 2.5 3.6 2.5c.8 0 2.8 5.7 2.8 8q0 1.8-5.4 3.9c-5.9 2.5-8.9 5-18.9 16.2-8.2 9.3-11.7 13.9-11.7 15.6 0 .7-.6 3.2-1.4 5.5-.7 2.4-1.9 6.3-2.6 8.8-2.9 10.2-3.3 11.6-4.1 13.5-.4 1.1-1.8 5.4-2.9 9.5-1.2 4.1-2.8 9.4-3.5 11.6-1.1 3.3-1.2 6.9-.4 18 .6 7.7 1.3 18.9 1.7 25.1.8 13.2 1.6 14.6 6.7 11.9 2.4-1.3 3.8-1.6 4.7-.9 3 2.3 14.9 8.3 16.5 8.3 1 0 3-.6 4.4-1.4 7-3.6 32.3-17.6 44.4-24.6 5.5-3.1 12-6.8 14.5-8.2s8.5-4.8 13.3-7.7c4.9-2.8 9-5.1 9.2-5.1s5.9-3.2 12.7-7.1c6.7-3.9 14.3-8.3 16.8-9.6 2.5-1.4 6.5-3.8 9-5.3s8.3-4.9 13-7.5 11.4-6.5 15-8.5c20.5-11.9 31.3-18 31.9-18 .4 0 1.5 2.6 2.5 5.7 1 3.2 2.1 6.4 2.4 7.1 1 2 4.8 3.9 32.4 16.5 5.6 2.6 12.9 6 29.3 13.7 4.4 2.1 15 7.1 23.5 11.3 28.9 13.9 57.8 27.6 76.5 36.1 4.4 2 8.8 4.1 9.7 4.6 2.2 1.2 3.8 1.3 3.8.2 0-.5-3.5-2.5-7.7-4.5-17.8-8.2-23.4-10.8-34.7-16.1-6.5-3.1-11.9-5.6-12.1-5.6s-6.4-2.9-13.9-6.5-14-6.5-14.6-6.5c-1.6 0-2.2-4.5-1.9-14.1.5-11.9-.4-11 28.4-26.9 2.8-1.5 9.9-5.5 15.9-8.9 6-3.3 11.3-6.1 11.8-6.1.4 0 .8-.3.8-.8 0-.4 1.2-1.2 2.6-1.9 2.7-1.3 3.1-1.2 13.4 3.4 3 1.4 6.8 2.6 8.5 2.6 2.3.2 3.1.7 3.3 2.6.3 2.1.1 2.3-3 1.8-1.8-.3-5.3-1-7.7-1.7-5.6-1.4-9.5-.5-11.5 2.5-.9 1.3-2.4 2.6-3.5 3-2.9.9-4.4 5.5-3.1 9 .6 1.6 1.7 3.6 2.3 4.4.7.8 1.2 2.4 1.2 3.5 0 3.4 10.3 7.4 12 4.6.3-.6 2.4-1 4.6-1 2.1 0 5.8-.9 8.2-1.9 5.4-2.5 12.9-4.9 18.9-6 3.9-.7 5-.5 6.3.9 2.2 2.5 2 8.7-.4 10-2.8 1.4-3.9 1.3-4.5-.8-.6-1.6-4.8-4.2-7-4.2-2.3 0-6.9 4.7-6.3 6.3 1 2.7 5.5 4.3 7.8 2.9 1-.7 3.4-1.2 5.3-1.2 5 0 6.7-.9 8.1-4.3 1.3-3 1.3-3 2.5-.6 2.9 5.3-.5 22.3-6.2 31-3.2 5.1-11.2 11.9-13.9 11.9-.4 0-8-3.5-17-7.9-9-4.3-17.3-8.1-18.4-8.5-2.5-.8-4.9-5.6-3.5-7 .5-.5 1-2.1 1-3.4 0-1.8-1-2.8-4.7-4.5-3.2-1.4-4.2-2.2-3.1-2.5 2.6-.5 12.8 4.4 16.6 8.1 1.9 1.8 4.7 5.1 6.3 7.4 3.5 5.1 6.3 6.2 9.1 3.7 1.6-1.5 1.9-2.9 1.6-7-.2-4 0-5 1.1-4.6 2.3.9.8-2.9-2.1-5.1-2.6-2-2.6-2-6.2.2-4.5 2.8-4.8 6.1-.7 7.9 1.5.7 3.6 1 4.5.6 1.3-.5 1.6.1 1.6 2.9 0 6-4.1 6.2-7.5.5-4.3-7.3-17.4-16.8-23.1-16.8-2.6 0-10.2-2.6-12-4.1-1.1-.9-.9-1.5.6-3.2 2.5-2.6 1.7-3.6-1-1.2-1.1 1-3 2.3-4.2 2.9s-2.4 1.8-2.6 2.6c-.4 1.2-.3 1.3 1 .2 1.3-1 2-.6 4.4 2.5 1.5 2.1 3.2 3.9 3.6 4.1.7.3 1.2 6.2.5 6.2-.2 0-2.3-.9-4.8-2.1-5.4-2.6-25.1-12.1-26.1-12.6-.5-.2-.8.1-.8.7s1 1.4 2.3 1.9c1.9.8 30.4 14.3 36.4 17.3 1.7.8 2.6.8 3.6 0 1.4-1.2 2.7-.7 2.7.9 0 .5-.7.5-1.7.2-1.1-.4-1.4-.3-.9.5.4.7 1.2 1.2 1.7 1.2s3.7 2.9 7.2 6.4c8.6 8.8 19 13.8 27.9 13.5 4.3-.1 7.4.3 9.6 1.5 1.8 1 3.9 1.5 4.5 1.3s-.3-1-2.1-1.8c-3.3-1.4-4.2-2.9-1.9-2.9 2 0 8.4-5.8 11.6-10.3 3.3-4.9 6.7-14.1 7.6-20.9.4-2.6 1.1-4.6 1.5-4.3s1.6 3.7 2.5 7.5c1.4 5.8 1.5 8.1.7 12.8-2 10.9-2.2 15.7-.9 22 1.6 7.1 1.8 7-5.6 3.8-5.7-2.5-3.7-.4 2.2 2.4 2.8 1.3 5.1 2.7 5.1 3.1 0 .5-.6.6-1.4.3s-2.4-.1-3.5.6c-3.2 1.7-2.8 11 .6 11 .8 0 2.7.7 4.4 1.6 4.9 2.5 6.9 1.1 6.9-4.6 0-4.4-.3-5.1-2.7-6.4-3.6-2-2.2-2 2.4-.1 2 .8 3.8 1.3 4.1 1 .3-.2-1.6-1.3-4.1-2.4-4-1.7-4.7-2.5-5.8-6.3-1.5-5.3-1.5-19.6 0-26.2 1.9-8.2-1.2-19.1-8.5-30.2-2-3-3.4-5.7-3.1-6 .9-1 11.1 2.2 22.7 7.1 15.5 6.5 17.4 7.7 17.8 10.6.2 2-.6 2.9-5 5.2-6.5 3.4-12 8.2-14.2 12.4-2.1 4.1-2.1 10.2.1 13.3 1.2 1.7 1.3 2.5.5 2.8-.7.2-1.2 1.6-1.2 3.2 0 5.1 6.7 4.2 12.5-1.7 3.4-3.3-2.6-7.6-6.8-4.8-2.2 1.4-2.4 1.4-3.4-.7-2.2-4.6-2.3-6.1-.5-10.1 2.3-5.1 7.6-9.9 14.8-13.5 5.6-2.7 6.6-4.3 5.1-7.9-1.8-4.2-34.6-18.3-42.6-18.3-1.6 0-5.3-2.8-11.4-8.6-4.9-4.7-10.5-9.3-12.3-10.2-2-.9-3.4-2.3-3.4-3.3 0-1.9-3.6-4.8-8.8-7-4.1-1.8-3.7-2.9 1.9-5.2 4.4-1.9 4.4-1.9 15.9 3.6 23.5 11.1 27 12.7 27.4 12.7.2 0 6.2 2.7 13.3 6.1 18.4 8.7 24 11.4 30.8 14.4 3.3 1.5 11.9 5.5 19 8.9 7.2 3.4 15.8 7.6 19.3 9.2 6.5 3 7.4 4 4.5 5.1-1.7.6-9.6 5.7-11.8 7.6-.5.4-4.1 3.1-8 5.8-3.8 2.7-10.6 7.5-15 10.6s-12 8.4-16.9 11.7c-4.9 3.4-10.7 7.7-13 9.7-4.1 3.7-4.1 3.7-4.6 15.2l-.5 11.5-4.5-2.1c-2.5-1.1-11.8-5.6-20.8-9.9s-16.5-7.8-16.8-7.8c-.2 0-.4.5-.4 1 0 .6 1.9 1.9 4.3 2.9 7.1 3.1 16.6 7.6 29.6 13.9 12.1 5.9 14.6 6.7 12.3 3.9-.7-.8-1.3-6.1-1.4-12.4-.3-9.8-.1-11.3 1.7-13.2 2.1-2.4 42.7-31.7 63.4-45.8 2.6-1.7 4.8-2.3 9.1-2.3 3.1 0 7-.4 8.6-.9s7.4-1.9 12.9-3c5.5-1.2 12.3-2.8 15-3.6 12.4-3.4 13.1-2.9 4.8 3-3.1 2.2-6.1 4.5-6.7 5.1-3 2.8-14.7 11.4-15.6 11.4-.5 0-1-1.1-1-2.5s-.7-2.8-1.5-3.2c-1.6-.5-27.5 5.2-30.7 6.8-1 .5-2.3.9-2.9.9s-6.7 3.7-13.5 8.2c-12.2 8.1-12.5 8.4-12 11.6.3 1.8 1.4 4.5 2.6 6.1 1.8 2.6 2.5 2.9 5.8 2.5 2.8-.4 3.3-.3 2.2.5-1.3 1-1.3 1.1 0 1.1 2.8 0 18.9-3.6 19.7-4.4.4-.4-.3-.5-1.7-.3-10.7 2.2-15.1 2.9-15.6 2.5-.6-.7 12.9-3.8 16.2-3.8 1.2 0 2.6-.5 3-1.1.8-1.3.2-1.2-15.4 2-12.3 2.5-12.2 2.5-12.2.6 0-.8 1.6-1.8 3.8-2.4 11.8-3.2 16-4.1 20.6-4.7 2.8-.4 5.7-1.3 6.4-2.1.7-.7 4.4-3.4 8-6 3.7-2.6 8.7-6.3 11.1-8.1s4.6-3 5-2.6c.3.3-.5 1.4-1.9 2.3-3.8 2.5-20.3 16.1-22.3 18.4-1 1.1-1.5 2.8-1.2 3.8.4 1.2.1 1.9-.7 1.9-1.4.1 3.4 2.7 9.2 5 1.9.7 6.3 2.6 9.8 4.2 3.4 1.5 6.5 2.8 6.7 2.8s2.9 1.1 5.9 2.5 6.5 2.9 7.8 3.4 4.9 2.1 8.1 3.5c3.1 1.4 5.7 2.1 5.7 1.6 0-.6-.4-1-1-1-.5 0-3.3-1.1-6.2-2.4-10.6-4.8-14.5-6.5-25.1-11-16.6-7.1-18.7-8.3-18.7-11 0-2.4 2.8-5.6 4.9-5.6.7 0 2.7-1 4.3-2.2 2.5-1.7 3.4-1.9 4.9-1 1.1.7 2.7 1.7 3.7 2.3 6.4 4 19.1-10.4 19.2-21.6 0-3.7.5-4.4 5.8-8.6 3.1-2.5 7.6-5.8 9.9-7.4 5-3.2 7.8-3.1 16.3.8 3 1.4 9.1 4 13.5 5.7 8.6 3.4 12.5 5.1 19.3 8.1 2.3 1 4.2 1.5 4.2 1s-2.6-1.9-5.7-3.2c-3.2-1.2-8-3.2-10.8-4.5-19-8.4-30.4-12.7-33.5-12.6-1.9 0-11.4 1.9-21 4.2-25.4 6.1-25.9 6.1-36.6 1-4.9-2.3-10.7-5-12.9-6-10.1-4.7-28-13.2-38.5-18.3-28.5-13.7-41.3-19.7-41.7-19.7-.2 0-7.8-3.6-16.9-8.1-16.7-8.2-20.2-10.9-21.8-16.9-.4-1.4-2-7.5-3.6-13.5-1.6-6.1-3.8-14.2-4.8-18-8-29.1-7.7-27.6-5.4-29.4 1.2-.9 4.3-2.7 6.9-4 2.7-1.4 5.9-3.2 7.3-4.1 1.4-1 5-3.1 8-4.7 3-1.7 11.1-6.2 17.8-10.2 6.8-3.9 12.5-7.1 12.7-7.1s3.3-1.8 6.9-4 6.8-4 7.1-4 2.2-1.1 4.3-2.3c3.6-2.3 7.3-4.5 20.2-11.7 12.5-7 14.7-8.7 17.7-14.2 1.6-2.9 3.9-7 5.1-9.1 1.2-2 3.1-5.3 4.2-7.2 4.6-8.1 6.1-10.6 13.7-23 4.3-7.2 8.4-13.9 9.1-15s1.6-3.2 2.2-4.8c.7-2.1 1.6-2.7 4-2.7 1.6 0 3.9-.9 4.9-1.9 1.7-1.7 1.9-3.7 2-23.4.1-13.8-.2-21.8-.8-22.2-1.6-.9-11-3.2-16.6-4-3.3-.5-6-1.6-8-3.4-4-3.6-15.3-10.7-23.7-14.9-1.4-.8-2.9-2.4-3.2-3.7-.6-2.3-2.3-3.7-9.1-7.5-2.9-1.6-5.4-2-12.8-2-9.2 0-34.1 2.1-47.2 3.9-13.6 1.9-52.6 10.9-54.2 12.4-1.4 1.5.5 1.5 6.2 0 24.3-6.1 42.9-9.8 57-11.2 6.1-.7 14.3-1.6 18.3-2.1 4-.6 12.2-1 18.2-1 10.8 0 11.1.1 16.3 3.4 2.9 1.9 5.8 4.5 6.4 5.7.6 1.3 2.8 3.3 4.9 4.5 2.2 1.1 5.6 3.1 7.7 4.2 2 1.2 5.4 3.1 7.5 4.3 2 1.1 4.8 3.3 6.2 4.8 2.1 2.5 4.1 3.2 13.1 5 5.9 1.2 11 2.1 11.3 2.1 1 0 .7 2.6-.8 5.6-.8 1.6-1.7 4.7-2 6.9-.5 3.8-.5 3.8.8-.8.8-2.7 1.7-5.1 2-5.5.3-.3.6 8.1.6 18.6 0 21.9 1.2 19.5-10.2 20.7-3.9.4-8.5 2.1-15 5.4-9.7 5-16.6 8.8-18.3 10.1-.5.4-3.6 2.1-6.7 3.9-3.2 1.7-8.4 4.5-11.5 6.2-3.2 1.8-6.2 3.5-6.8 3.9-2.1 1.6-8.8 5.1-9.1 4.8-.2-.2.3-2.2 1.1-4.4.8-2.3 1.7-6.5 2-9.5 1.2-10.8 1-10.5 5.2-6.9 3.1 2.8 4.1 3.1 7.2 2.5 2-.4 6.3-.8 9.6-.9 5.8-.1 6-.2 6.3-3 .2-1.9-.4-3.6-1.9-5.2-3.3-3.5-5.6-3.1-6.8 1.2-1.2 4.5-3.6 6.3-8.2 6.4-2.6 0-4.4-.7-6.3-2.6-3.1-3.2-3.3-4.5-.6-6.2 1.3-.8 2-2.3 2-4.1 0-1.7.5-4.2 1.1-5.8.5-1.5 1.1-4.7 1.3-7.1.3-4.9-2-3.3 22.3-16.7 4-2.2 7.3-4.3 7.3-4.7 0-.6-6.2 2.7-21.8 11.6-3.5 2-6.7 3.6-7.1 3.6-.3 0-1.1-1.6-1.7-3.5-1.2-3.9-4-2 34.1-23.6 2.8-1.6 4.4-2.9 3.7-2.9s-4.5 1.9-8.5 4.3c-3.9 2.4-11.9 7-17.7 10.2s-11.7 6.6-13.2 7.7c-3.2 2.2-6.3 2.5-3.4.3 2-1.5 2-1.5 0-2.9-1-.8-4-2-6.6-2.6-6.2-1.5-13 0-21.8 4.8-8.1 4.4-25.2 13.7-34.5 18.7-3.8 2-8.8 4.8-11 6-4.5 2.5-16.7 9.2-19.9 10.9-1.2.6-3.6 2.2-5.4 3.5s-3.5 2.1-3.8 1.9c-.2-.3-.7-32.4-1-71.4-.4-39-1-71.3-1.5-71.9-.5-.5-.8 15.5-.8 37.5m104.3 70.5c-.8.6-1.1 2.1-.7 3.7.5 2.9 1.7 3.6 2.8 1.8.3-.6 1.2-1 1.8-1 .7 0 .4.5-.7 1.1-1.5.9-1.6 1.3-.5 2.1 1.1.7.9.8-.5.4-1.1-.4-5 1.1-10.5 4-4.7 2.6-9.9 5.3-11.4 6.1-1.6.8-2.6 1.7-2.3 2 .2.3 5.3-2.1 11.2-5.3 10.7-5.7 10.7-5.7 10-2.3-1.7 8.2-1.8 10.1-.5 12.6 1.2 2.2 1.1 2.9-.8 6.1-1.6 2.9-4.6 5.1-13.4 9.9-6.2 3.4-12.1 7-13.1 8.1-1.1 1.1-2.3 4.5-3 8.5-.8 5.2-1.6 7-3.4 8.2Q641 703 641 706c0 1.9-.7 3.3-2 4-1.9 1-2.1.8-1.9-2.2.1-1.8-.4-6.5-1-10.5-.8-5.2-.8-10.2 0-17.5 1-9.7.5-19.8-1-19.8-.3 0-.6 11.8-.6 26.2v26.2l-7.2 4.3c-4 2.3-7.5 3.8-7.8 3.3-.6-1 2.3-7 3.9-8.2.5-.3 1-2.8 1-5.5.1-4.7 0-4.8-3.2-5.1-2.7-.3-3.5.1-3.9 1.8-.4 1.5-1.1 2-2.4 1.7-3-.8-5.8 2.3-6.1 6.7-.3 4.1-.3 4.1 7.2 7.6 3.7 1.7 1.6 3.8-12.3 11.7-7.9 4.6-14.7 8.3-15.1 8.3s-.2-.8.3-1.9c.6-1 .9-5.2.8-9.2-.3-6-.8-8.1-2.7-10.6-1.9-2.6-2.8-3.1-5-2.7-2.4.5-2.9.1-4.8-4.4-1.2-2.8-2.7-5.2-3.4-5.4-.7-.3 1.3-1.8 4.3-3.5 15.3-8.5 22-12.5 21.5-13-.3-.4-3.2 1-6.3 2.9-3.2 1.9-8.8 5.1-12.6 7.2-6.7 3.7-6.7 3.7-7.7 1.1-1.9-4.9-1.8-4.9 14.1-14 6.6-3.7 25.9-14.8 28.4-16.2 1.6-1 5.8-3.5 9.3-5.6 3.5-2 6.5-3.7 6.7-3.7s4.5-2.4 9.7-5.3c5.1-3 13.1-7.4 17.8-9.9 15.9-8.4 19-10.3 18-10.6-.6-.2-.8-.8-.5-1.3.4-.5 1.2-.3 1.9.3 1.1 1.1 1.1 1.5 0 2.3m-5.9-1.6c2.7.6 1.4 1.4-15 10.3-9.9 5.3-25.2 13.8-34 18.8-8.8 5.1-18.5 10.6-21.5 12.3-3 1.6-5.9 3.3-6.5 3.8-1.8 1.4-22.8 12.9-23.6 12.9-.4 0-1-.8-1.3-1.7-.5-1.2.3-2.6 2.6-4.6 5-4.5 16.8-12.9 21.3-15.4 5.5-2.9 9.5-5.2 20-11.3 15.2-8.8 14.2-8.5 17-5.4 1.7 1.9 2.5 2.2 2.5 1.2 0-.9-.7-2.1-1.5-2.8s-1.3-1.6-1-2c1-1.7 25.5-14.5 30.4-16.1 3.1-.9 6.5-.9 10.6 0m12.5 5.6c0 .3-.2.5-.5.5s-.5-.2-.5-.5.2-.5.5-.5.5.2.5.5m57 18.8c0 .7-2.8 6-6.3 11.7-5.7 9.3-24.7 41.3-28.7 48.1-.8 1.4-1.9 3.2-2.5 4-1 1.5-7.3 5.6-15.5 10.2-2.5 1.3-6.6 3.7-9.3 5.2-3.5 2-4.5 2.3-4.1 1.1.3-.9.1-1.6-.5-1.6s-1.1.7-1.1 1.4c0 1.3-5.8 6.6-7.3 6.6-.3 0-6.1 3.2-12.9 7.1-6.7 3.9-14.3 8.3-16.8 9.7s-8.8 5-14 8c-17.3 10-25.1 14.2-26.1 14.2-.7 0-1-.9-3.5-9.8-1.4-5.3-1.4-5.3 2.5-12.5 2.1-4 6.4-12.2 9.6-18.2 6.7-13 6.8-13.1 11.4-15.5 3.2-1.5 3.9-1.6 5.7-.3 3.1 2 6.7 0 9.7-5.6 2.8-5 7.4-8.4 11-7.9 3.6.4 8.5-2.1 9.5-5 .6-1.7 2.8-3.7 5.8-5.3 6.3-3.3 29.4-16.2 40.7-22.8 11.6-6.7 12.4-6.7 8.3-.3-2.7 4.3-11.2 18.7-14.8 25.2-1.4 2.5-4.9 8.5-7.8 13.5-6.1 10.5-9.2 16.5-8.6 16.5.2 0 1.5-1.9 2.9-4.3 2.6-4.5 23.8-41.2 26.7-46.2.9-1.7 2.7-4.7 4-6.8 3.9-6.6 2.2-6.1-16 3.9-3.6 2-6.9 3.9-7.5 4.3-1.5 1.2-14.3 8.1-15 8.1-1.9 0 .2-2.2 4.3-4.3 2.7-1.4 6.6-3.5 8.8-4.8 2.1-1.2 6.4-3.5 9.4-5.2 3-1.6 6-3.4 6.6-3.8.6-.5 4.2-2.6 8-4.7 3.8-2.2 10.2-5.8 14.3-8.1 11.2-6.3 19.1-8.7 19.1-5.8m-38.6 7c1.2 1.9.3 3.2-1.9 2.4-1.7-.7-2.1-5.1-.3-4.5.6.2 1.6 1.2 2.2 2.1m-5.4 3.2c0 .3-.2.5-.5.5s-.5-.2-.5-.5.2-.5.5-.5.5.2.5.5m-21.5 5.2c-2.3 14.2-4.6 18.1-14.2 23.4-6.5 3.6-7.9 4-10.6 3.2-3-.9-3.2-1.1-3.2-5.9.1-7.7 1.9-9.5 18.7-18.1 3.7-1.9 7.2-4.1 7.9-4.9 1.8-2.2 2-1.7 1.4 2.3m-107.2 18.7c.4.9-.7 2.2-2.9 3.5-3.9 2.3-4.3 1.7-1.2-2.2 2.5-3.1 3.3-3.3 4.1-1.3M669 696c0 .5-2.8 2.4-6.2 4.1-3.5 1.7-7.4 3.9-8.8 4.9-2.7 1.9-7.3 4.6-16 9.2-3 1.7-6.4 3.5-7.5 4.2-1.1.6-5.7 3.3-10.2 5.9-4.4 2.6-8.5 5.3-9.1 6-.5.7-4.1 7.3-8 14.7-11.6 22.2-11.7 22.3-12.8 17.2-.3-1.5-1-3.8-1.4-5.2-3.7-10.5-3.9-16-.7-16 .5 0 2.1-.8 3.5-1.9 1.5-1 4.7-2.9 7.2-4.2 4.4-2.4 9.8-5.5 38.8-22.7 11.5-6.8 29.7-16.8 31-17.1.1-.1.2.3.2.9m-98 3.1c1.6 3.8 1.9 3.6-13.5 12.6-17.6 10.3-17.8 10.3-8.3 1.4 4.8-4.5 8.9-9 9.2-9.9.5-1.4 8.6-6.8 10.7-7.1.4-.1 1.2 1.3 1.9 3m-13 1.4c0 .3-.2.5-.5.5s-.5-.2-.5-.5.2-.5.5-.5.5.2.5.5m-2 1c0 .3-.2.5-.5.5s-.5-.2-.5-.5.2-.5.5-.5.5.2.5.5m-4 1.9c0 .3-.5.8-1.2 1.2s-.8.3-.4-.4c.7-1.2 1.6-1.6 1.6-.8m23.4 7.1c1.3 3 2.4 6.9 2.4 8.7-.1 1.7.4 3.4 1 3.6.7.2 1.2.9 1.2 1.6 0 2.2 3.4 4.6 5.8 3.9 2-.5 2.2-.2 2.2 3 0 3.9-1.5 8.7-2.7 8.7-.5 0-2.1-2.4-3.6-5.3-5.6-10.8-12.7-16-21.7-16.1-6.3-.1-6.3-.1-30.2 13.7-9.2 5.3-17 9.7-17.3 9.7-1.9 0 .2-2.3 4.3-4.7 2.6-1.5 5.3-3.3 6-4s1.8-1.3 2.4-1.3.9-.3.5-.6c-.3-.3-3.5 1-7 3-4.8 2.7-6.6 3.3-7 2.3-.6-1.5 12.7-7.2 14.4-6.1.5.3 2.6-.4 4.7-1.7 2-1.2 5.1-3 6.7-3.9 1.7-1 8.6-5 15.5-9s13.9-8.1 15.5-9.1c1.7-.9 3.3-1.8 3.7-1.8.3-.1 1.8 2.4 3.2 5.4m-23.4-4c0 .3-.2.5-.5.5s-.5-.2-.5-.5.2-.5.5-.5.5.2.5.5m-7 4c0 .2-1.8 1.4-4 2.5-4.8 2.5-5.2 2-.7-.9 3.1-2 4.7-2.6 4.7-1.6m74.4 2.4c.9 1.4-.5 4.1-2.1 4.1-1 0-1.3-.6-.9-1.6.3-.9.6-2 .6-2.5 0-1.2 1.7-1.2 2.4 0m-52.1 8.4c1.8.8 4.9 3.1 6.9 5.1 3.7 3.7 9.8 14.9 9.8 17.9 0 .9.4 2.6.9 3.9s1.9 6.1 3.1 10.8 2.6 9.8 3.1 11.5c1.9 6.2 6.9 24.4 9.3 33.5 13 49.4 12.6 47.9 16.6 51.3 2 1.7 2 3.7-.2 3.7-.5 0-2.3.9-3.8 2-2.6 1.8-3.3 1.9-6.9.8-2.3-.7-4.1-1.6-4.1-1.9s1.8-1.4 4-2.4 4-2.2 4-2.7c0-1.4-1.1-1-6.2 2.3-2.9 1.9-5.6 2.9-6.8 2.6-1.1-.3-3.8-.1-6.1.4s-4.4.8-4.6.5c-.4-.3 13-8.2 16.2-9.5.5-.2 1.6-1.1 2.4-1.9 1.3-1.2 1.2-2.5-.7-10.1-6.1-23.9-8.6-32.1-9.6-32.1-.5 0-23.7 12.9-25.1 14-.9.6-5.4 3.1-16 8.9-1.6.9-3.2 1.8-3.5 2.1s-2.5 1.6-5 2.9c-2.5 1.4-7.7 4.3-11.5 6.7-3.9 2.3-8.9 4.7-11.3 5.3-4.8 1.3-5.8 3.4-1.2 2.4 2.2-.4 3-.2 3 .9 0 1-1.1 1.3-4 1-3.3-.3-4-.8-4-2.6 0-1.1-1.2-5.9-2.6-10.6s-3.2-11-4-14-3.2-10.7-5.3-17c-5.9-17.7-6.5-21.1-5.2-28.3 1.1-6 3.7-12.1 6.6-16.1 1.6-2.2 4.5-1.5 4.5 1.1 0 1 .7 2.6 1.4 3.6 1.1 1.4 1 2.4-1 6.4-3.5 6.9-2.9 17.5 1.2 22.4 2.2 2.5 1.7 2.8-2.8 1.2-4.2-1.4-7.4-1.1-6.3.7.3.5 2.3 1 4.5 1 4.2 0 5.7 1.9 3.9 5.2-.6 1.2-.8 4.1-.4 7.1.9 7.3 1.3 8.4 3.3 8.9 1.2.3 2.2 2.3 3 5.9 1.8 7.5 4.3 12.9 5.8 12.9.7 0 3-.9 5.1-2.1 11.8-6.6 36.9-20.8 43.8-24.8 4.4-2.6 10.2-5.8 12.8-7.1 7.5-3.9 9-5.7 8.4-9.9-.7-5.4-5.8-21.5-7.1-22.3-1-.7-10.5 3.8-11.8 5.7-.4.5-1 .6-1.4.2s-.5-.9-.3-1c1.6-1.4 12.5-6.7 13.6-6.7 3.4 0 1.7-5.5-3.3-10.7-.7-.7-1-2.1-.7-3.2.2-1 0-3.6-.6-5.7-.9-3.1-.8-4.1.6-5.6.9-1 1.1-1.8.5-1.8s-1.4.5-1.8 1.1c-.4.7-1.4.2-2.8-1.3-7.6-8.8-19.1-5-23 7.7-2.1 6.6-1.5 12.1 2 18.1 2 3.5 2.1 4.4 1 5.9-1.8 2.5-1.1 4.1-9.2-23.3-1.6-5.3-3.5-7.2-7.3-7.2-1.1 0-2.2-.4-2.6-.9-.5-.9 1.6-2.2 13.8-9 2-1.2 5.4-3.1 7.5-4.2 2-1.2 5.6-2.2 7.9-2.3 5.4-.1 5.7-1.6.4-1.6-3.8 0-15.4 5.3-22.3 10.1-1.4 1.1-2.9 1.9-3.3 1.9s-1.9.8-3.3 1.9c-2.9 2-7.1 4.4-17.2 9.9-3.6 1.9-7.4 4.1-8.5 4.8-3.2 2.3-3.6 1.7-3.4-4.7.2-5.5.5-6.2 2.8-7.2 1.4-.7 6.1-3.3 10.4-5.9 4.3-2.7 8-4.8 8.2-4.8s4.3-2.3 9.2-5.1c4.8-2.8 10.2-5.8 11.8-6.5 3.9-1.7 10.7-1.8 14.8-.1m20.2.7c0 2.2-2.9 1.8-3.3-.3-.3-1.4.1-1.8 1.5-1.5 1 .2 1.8 1 1.8 1.8m42.6.9c-1.6 2.8-4.7 4.4-6.7 3.3-1.3-.7-.8-1.4 2.8-3.5 4.8-2.8 5.5-2.8 3.9.2m-90.1-1.4c0 .3-.2.5-.5.5s-.5-.2-.5-.5.2-.5.5-.5.5.2.5.5m44 3.6c0 1.1-.4 1.7-1 1.4-.5-.3-1-1.3-1-2.1s.5-1.4 1-1.4c.6 0 1 .9 1 2.1m-65 .4c0 .2-1.3 1.1-3 2-3.8 1.9-4 1.1-.2-.9 3.1-1.7 3.2-1.8 3.2-1.1m-8.7 11.9c.5 1.4-3.3 4-16.8 11.6-14.3 8.1-12.6 7.6-15.2 4.4-1.3-1.6-2.3-3.1-2.3-3.4s3-2.2 6.8-4.3c3.7-2 8.5-4.8 10.7-6.1 2.2-1.2 4.7-2.1 5.5-1.9s2.9-.1 4.5-.6c4.4-1.4 6.2-1.3 6.8.3m-48.8 4.4c-.3.3-1.1 0-1.8-.7-.9-1-.8-1.1.6-.5 1 .3 1.5.9 1.2 1.2m113.3 1.2c2.5 2.4 2.8 4 .7 4-2.3 0-6.4 7-7.1 12.2-.5 3.9-1.2 5.2-3.5 6.5-1.6 1-3.2 2.5-3.5 3.5-1.4 4.6-5.3-.7-6.1-8.4-.7-7 1.1-13.2 4.9-16.8 2.5-2.5 4-3 7.8-3 3.3 0 5.3.6 6.8 2m-65 .1c-.2.7-3.1 2.6-6.3 4.5-7.7 4.2-13.6 10-16.6 16.4l-2.4 5-1.2-4.7c-.7-2.7-1.3-5.3-1.3-6 0-.9 13.1-9.3 14.5-9.3.1 0 2.9-1.6 6.1-3.5 6.1-3.7 7.8-4.2 7.2-2.4m-44.1.6c-.4.3-1 .3-1.4 0-.3-.4 0-.7.7-.7s1 .3.7.7m-12.4 2c-.7.2-1.9.2-2.5 0-.7-.3-.2-.5 1.2-.5s1.9.2 1.3.5m20 4.3c5.5 6.1 7.9 11 8.5 17.3.4 4.6.4 4.8-1.5 3.7-1.1-.7-2.5-3.2-3.2-5.6s-1.8-4.4-2.3-4.4c-.6 0-.7.8-.3 1.7.4 1 1 2.8 1.2 3.9.5 2.2.5 2.2-5.9.2-11.1-3.5-21.8-9.4-21.8-12.1 0-.7 1.7-1.9 3.8-2.6 2-.8 4-1.9 4.4-2.5.5-.8 2-.4 4.8 1.1 2.2 1.2 4.2 1.8 4.5 1.4.2-.5-.7-1.3-2.1-2-2.7-1.2-2.4-3.1.6-3.1 1 0 2.2-.5 2.5-1 1.1-1.8 2.2-1.1 6.8 4m68.1-2.5c.8.9 2 1.4 2.6 1.3.7-.2 2.1 2.4 3.2 5.7 3.9 11.9 6.9 22.7 6.4 23.3-.3.2-.8-.1-1-.9s-1.9-6.2-3.8-12.2c-1.8-5.9-4.2-11.9-5.4-13.2-2.1-2.5-2.1-2.5-6.6 0-3.4 1.9-5.2 2.3-8.1 1.8-3.3-.5-5.3-2.3-2.6-2.3.5 0 2.7-1.1 4.7-2.5 4.2-2.8 8.3-3.2 10.6-1m-100.7.6c-1 .6-2.5.8-3.2.5-.8-.3-1.4 0-1.2.5.2 1.1-59.8 36.9-61.9 36.9-.6 0 2.9-5.1 6.6-9.5 9-10.7 25.1-22.4 35.4-25.7 9.8-3.1 28.8-5.2 24.3-2.7m67.6 4.5c-.1 4.5-.6 6.1-2.6 8.2-4.7 4.9-7.8 12.7-8.4 20.9-.6 7.5-.6 7.5-2.1 4.7-.8-1.6-3.5-4.9-5.9-7.4-3.9-4-4.3-4.9-3.8-7.8.7-4 3.9-9.8 8-14.4 2.9-3.3 12-9.6 14-9.7.6-.1.9 2.3.8 5.5m71.1-3c1.6 4.3.6 6.9-3.8 9.6-2.4 1.6-4.6 2.8-5 2.8-1 0-.7-5.7.5-8.3.9-2.1 5.3-5.6 7-5.7.4 0 1 .7 1.3 1.6m-35.4 4.5c2.2 4-1.5 9.5-5 7.4-1.4-.9-1.2-8.2.3-8.8 2.4-1 3.6-.7 4.7 1.4m-21 5.1c.7 2.7 1.7 4.8 2.2 4.8.6 0 .7-1 .3-2.3-.4-1.2-.9-3.5-1.2-5.1-.5-2.6-.4-2.8 1.8-2.1 1.3.3 3.2.9 4.1 1.1 1.2.4 2.3 2.6 3.4 6.2 2.1 7.7 2.6 8.9 3 7.6.3-.5-.5-3.9-1.6-7.3-1.1-3.5-1.7-6.7-1.4-7.2 1.1-1.9 2.2-.8 2.7 2.8.7 6.1 4.6 19.4 7.1 24.5 1.3 2.7 2.2 4.8 2 4.8-.1 0-.9.3-1.8.6-1.1.4-1.6 0-1.6-1.2 0-2.4-2.2-8.4-3.2-8.4-.4 0-.1 2.1.7 4.7s1.2 4.9 1 5.1-2.1 0-4.1-.5c-3.4-.8-4-1.4-5.7-6.3-2.6-7.3-3.7-12-2.7-12 1.4 0 3.8 3.5 5 7.5 2.2 7 2.3 7.2 2.8 4.6.7-4-3.5-11.6-7.8-14-4.4-2.5-7.1-2.6-10.9-.6-3.3 1.7-4.1 1.1-5.9-4.2-1.1-3.2-1-3.3 4.1-6.2 2.9-1.7 5.5-2.7 5.8-2.3s1.2 2.8 1.9 5.4m25.1 7.2c.4 1.7 1.1 4.1 1.4 5.3.6 1.9.3 2.3-1.3 2.3-1.2 0-2.7.9-3.5 2.1-1.4 1.9-1.6 1.6-3.6-4.7-2.6-8.4-2.6-8.4.3-8.4 1.3 0 2.7-.8 3.1-1.8.6-1.6.7-1.6 1.7.2.6 1.1 1.4 3.3 1.9 5m34.8-2.7c1.7 2.1 3.1 4 3.1 4.3s-2.8 2-6.2 3.8c-4.7 2.5-5.7 2.8-4.3 1.2 2.1-2.3 1.5-3.9-.7-1.7-3.5 3.5-6.9 4.4-11.3 2.7-2.3-.9-2.4-1.2-1.4-3.2 1.2-2.2 1.2-2.2 3.1.2 1 1.2 2.1 2 2.4 1.7.4-.3-.1-1.3-1-2.2s-1.6-2-1.6-2.4c0-.9 12.1-8.1 13.7-8.1.6 0 2.5 1.7 4.2 3.7m-144.5 1.6c.7 1.8.6 4.5-.1 8-.6 2.8-.9 5.4-.8 5.6.2.1 1.4-.4 2.7-1.3 1.2-.9 2.7-1.6 3.3-1.6 1.4 0-4.9 4.1-13.5 8.7-9.5 5.1-16 8.7-23.3 12.9-3.2 1.9-6 3.4-6.2 3.4s-2.8 1.4-5.7 3.2c-9.3 5.5-35.3 19.8-36.1 19.8-1.6 0 1.3-11.1 5.3-20.5 1.3-3.1 2.5-4.5 3.8-4.5 1.1 0 3.6-1.1 5.6-2.5s4-2.5 4.4-2.5 2 2.9 3.6 6.4c1.5 3.6 3.4 6.7 4.2 7 1.6.6 6.7-2.2 6.1-3.3-2.5-4.6-5.7-12.7-5.5-13.9.2-.9 5-4.2 10.8-7.5 5.8-3.2 12.8-7.1 15.5-8.6 2.8-1.6 7.5-4.3 10.5-6.1 11.8-7.1 13.8-7.4 15.4-2.7m14.8 3.6c2.7 1.6 20.7 8.1 22.2 8.1.3 0 .7-.8 1-1.8.3-.9.2.8-.1 3.8-.7 7.3-3.4 12.4-8.6 16.1-4.1 3-4.3 3.1-13.2 2.5-5.2-.3-13.5 0-19.6.8-11.1 1.4-11.1 1.4-30.9 12.4-15.2 8.5-18.3 10.2-18.6 10.2-.2 0-2.8 1.5-5.7 3.4-3.8 2.5-6 3.3-8 2.9-1.5-.3-3.3-.1-4 .5-2.6 2.1-8.5 5-9.1 4.5-.3-.4-.6-1.9-.6-3.4 0-2.2.8-3.1 4.8-5.2 5.3-2.7 17.6-9.6 20.9-11.7 2-1.3 2.7-1.2 6.3.7 4.5 2.4 4.2 2.7 4.4-4.6.1-1.6 1.2-3 3.6-4.3 1.9-1 5.5-3 8-4.4 2.5-1.3 5.9-3.3 7.5-4.2 4.7-2.9 22.4-12.2 23-12.2.3 0-1.3 2.9-3.5 6.4s-4 6.7-4 7.2 1.8.8 4 .6c3.7-.4 4.2-.8 6.1-5.1 1.2-2.5 2.8-6.1 3.7-7.9 1.3-2.9 1.3-3.5.1-4.3-1-.6-1.1-.9-.1-.9 1.8 0 5.2-6 5.2-9.3 0-3.2.8-3.3 5.2-.8m72.6 1.3c.3 2.6.1 2.8-3.6 2.8-2.6 0-4.5-.7-5.6-1.9-1.7-1.8-1.7-2 .1-3 1-.6 3.4-1 5.3-.8 3 .2 3.5.6 3.8 2.9m-48.8 1.3c0 .3-.2.5-.5.5s-.5-.2-.5-.5.2-.5.5-.5.5.2.5.5m43.5 4.1c1.1.6 2.1 2.1 2.3 3.2.2 1.4 1.6 2.6 3.8 3.4 2.1.7 3.4 1.9 3.4 2.9 0 2.3 1.4 3.1 7.4 4.5 4.6 1.1 5.2 1 9.8-1.7 4.5-2.7 6.8-3.5 6.8-2.5 0 .2.3 1.1.6 1.9.4 1-1.1 2.4-4.8 4.4-2.9 1.7-7.4 4.2-10 5.7-5.6 3.2-9.3 2.9-8.2-.7.6-2.1.6-2.1-1.3-.4-1.1 1-2.7 1.5-3.6 1.1-.9-.3-3.1.1-4.9 1-3 1.6-3.4 1.6-5.8-.2-6.3-4.7-8.4-15.6-4.6-23.6 1.7-3.6 1.7-3.6 4.4-1.8 1.5 1 3.6 2.3 4.7 2.8m68.4 9.9c1.7 5.6 3.1 10.8 3.1 11.6 0 1.3-4.3 4.3-14 9.7-1.9 1-5.9 3.3-8.8 5.1-2.9 1.7-5.9 3.1-6.6 3.1-.8 0-1.9.6-2.5 1.4-1.1 1.3-7.3 4.9-13.8 8-1.3.6-2.3 1.4-2.3 1.8 0 .5-.4.8-.9.8s-4.8 2.2-9.6 5c-4.8 2.7-9.3 5-10.1 5-1.6 0-3.8-4.6-3.1-6.4.3-.6 1.7-1.8 3.3-2.6s7-3.8 11.9-6.6c8.5-4.8 11.8-6.7 23.3-13 19.1-10.7 20.4-11.8 19.2-16.4-.5-1.8.2-4.2 2.7-8.7 1.8-3.3 3.3-6.9 3.3-7.9 0-3.6 1.8.2 4.9 10.1m-38-9.1c2.8 3.4-.5 9.7-4.3 8.3-2.1-.8-2.1-6 0-8.1 1.9-2 2.8-2 4.3-.2m16.9-.1c3.7-.1 2.7 3.4-1.9 6.2-7.2 4.6-8.8 5.1-10.6 3.2-1.5-1.5-1.5-1.7 0-2.3.9-.3 1.7-1.4 1.7-2.3s.7-2.7 1.6-4c1.3-1.8 2.1-2.1 4.3-1.5 1.4.4 3.6.7 4.9.7m5.2-.8c0 .3-.2.5-.5.5s-.5-.2-.5-.5.2-.5.5-.5.5.2.5.5m7.3 5c-1.5 3-3 5.5-3.4 5.5-1.3 0-2.2-6.1-1.1-7.2 1.2-1.2 5.3-3.6 6.4-3.7.4-.1-.4 2.4-1.9 5.4m-25.6.7c-.3.8-.6.5-.6-.6-.1-1.1.2-1.7.5-1.3.3.3.4 1.2.1 1.9m-74.3-.6c2.1.8 2 5.3-.2 11.9-1.7 5-1.7 5-7.5 5.3l-5.7.3 4.2-4.3c2.8-2.8 4.8-5.9 5.7-9.1.7-2.6 1.5-4.7 1.6-4.7.2 0 1 .3 1.9.6m94.4 5c1.4 5.4 1.5 5.3-8.2 10.5-5.6 3-5.8 3.1-5.1.9.4-1.3 2-4.5 3.6-7.2s2.9-5.1 2.9-5.4c0-1.1 2.6-3.3 4-3.4 1 0 2 1.6 2.8 4.6m-85.9 5.9c2.2 4.3 3.4 10.6 6.1 32 .6 4.9 1.3 10.1 1.6 11.5.6 4.3-2.1-2.4-4.6-11-1.2-4.1-3-10.3-4.1-13.8-1.1-3.4-2.1-9.3-2.3-13-.3-3.7-.8-8.1-1.2-9.7-.6-2.6-.5-2.8.7-1.8.8.7 2.5 3.3 3.8 5.8m77.1-6c0 .2-1.3 2.7-3 5.5-1.6 2.8-3 5.5-3 5.9 0 1.8-3 3.5-4.2 2.3-1.7-1.7 2.1-10.1 5.7-12.3 2.9-1.9 4.5-2.3 4.5-1.4m-194.2 5.8c-1.3 2-2.6 3.6-3.1 3.7-.4 0 .5-1.8 1.9-4 1.5-2.2 2.9-3.9 3.1-3.6.2.2-.7 2-1.9 3.9m112.7 2.3c.7 4.1-1.5 7.8-3.5 5.8-1.1-1.1.8-9.4 2.1-9.4.4 0 1 1.6 1.4 3.6m70 .9c-1.9 3.4-1.9 3.4.4 5.9 2.4 2.6 2.4 2.6 9.5-1.2 3.9-2.1 8.1-4.5 9.3-5.2 1.2-.8 2.5-1.1 2.9-.7.8.8-2.2 5.7-3.5 5.7-.5 0-3.8 1.6-7.3 3.6-10.9 6.2-40.2 22.6-43.1 24.1-3.3 1.7-3.5 1.6-4.6-2.5-.9-2.9-.8-3.1 1.8-3 1.5.1 4.6-1.1 6.8-2.6 3.5-2.3 4-3.1 3.4-4.9-.4-1.1-2.3-2.6-4.2-3.2-3.4-1.2-3.4-1.2 1.5-4.3 6.2-4 7.1-4 8.5-.2.9 2.7 1.4 3 5.4 3 5 0 7-1.6 6.5-5.2-.2-1.8-1.2-2.5-4.5-3.2l-4.3-.9 8.2-4.8c4.6-2.6 8.5-4.6 8.7-4.3.2.2-.4 1.9-1.4 3.9m-234.6-1.4c1.1 1.2 2.4 1.8 3 1.4.7-.4 1.1.4 1.1 1.9 0 1.4-.6 2.6-1.2 2.6-1.6 0-8-3.9-9-5.3-2-3.2 3.2-3.7 6.1-.6m159.4 7.4c4.1 1.7 6.7 11.8 6.7 25.8 0 8.2-.4 11.4-1.6 13.2-1.3 2-14.8 11-23.9 16.1-1.1.6-3.7 2.1-5.9 3.3-2.1 1.2-4.2 2.1-4.7 1.9-.4-.2 1.7-4.8 4.7-10.2s5.4-10.2 5.4-10.5-2-2.7-4.5-5.3c-4.9-5.3-4.9-5.3-12.7-.6-3.1 1.8-4.8 2.3-4.8 1.5 0-2 3.6-5.5 8-7.7 3.6-1.8 4-2.4 4-5.8 0-2.1.5-4.3 1.2-5 1.7-1.7-5-9.2-7.8-8.6-1.2.2-3.4-.2-4.8-1-2.2-1.1-2.4-1.5-1.1-2 5-1.9 18.3 1.3 21.9 5.3 1.5 1.6 1.5 1.9.1 3.1-2.4 2-1.7 4.4 1.8 6.3 3.3 1.8 3.5 1.8 8-.4 5-2.4 5.9-3.6 5-6.7-.7-2.9-4.5-4.3-8-3-2.5.9-3.5.7-6.9-1.5-8.3-5.5-16.4-7-23.1-4.2-2 .8-3.8 1.3-4.1 1.1-.2-.3.6-1.9 1.8-3.7 2.3-3.1 2.3-3.1 22.9-2.7 11.3.3 21.4.8 22.4 1.3m44.7-1c0 .3-.2.5-.5.5s-.5-.2-.5-.5.2-.5.5-.5.5.2.5.5m7.8 2.1c.3.1-3.5 2.4-14.1 8.6-3.7 2.1-5.7 1.3-5.7-2.3 0-4.4 3.2-7 7.8-6.4 2.2.4 4.7 0 6.2-.8 1.8-1 2.9-1.1 4-.3.8.6 1.6 1.1 1.8 1.2m-192.3.9c6.5-.6 6.8-.5 4.5.9-1.4.8-5.7 2.1-9.7 2.7-4 .7-6.9 1.7-6.6 2.2s2 .6 3.7.3c3.1-.6 3.1-.6.8 1.3-1.2 1.1-2.8 2.1-3.5 2.4-.9.3-.8 1.3.6 4.1 1.7 3.7 1.7 3.7 5 1.8 1.7-1.1 5.7-3.3 8.7-4.9 3-1.7 8.5-4.7 12.3-6.7 4.5-2.5 6.7-3.3 6.7-2.4 0 .8-.4 1.8-.9 2.3-1.1 1.3-5.1 17.5-5.1 21 0 1.4.5 3.5 1.1 4.6.9 1.7.6 2.1-2 3-1.7.6-3.1 1.4-3.1 1.8s-1.6 1.3-3.6 2c-3.3 1.2-3.5 1.5-2.8 4.4.3 1.8.8 3.4 1.1 3.7.2.2 4.5.5 9.6.7 5.1.1 10.9.5 13 .9 2.9.5 4.9 0 9.3-2.1 3.7-1.8 5.2-3 4.4-3.5-.9-.5-.5-.8 1.1-.8 8.1-.1 20.9-5.1 20.9-8.2 0-1.5-1.1-1.2-3.4.8-3.2 2.8-7.4 4.4-7.8 3-.3-.8-1.2-.6-2.8.5-1.4.9-3.9 1.7-5.6 1.7-2.6 0-3.6-.7-5.2-3.3-1.1-1.7-2.3-4.3-2.7-5.6-.7-2.4-.7-2.4 7.6-1.7 20.5 1.6 20.9 1.7 21.5 4.2 1.2 4.8-.3 6.8-8.8 11.8-4.6 2.7-12.5 7.3-17.5 10.3-12.2 7.2-14.8 8-22 6.4-11-2.4-11.9-3.1-14.3-11.3-3.4-11.4-6.2-18.1-8.6-21.1-4.5-5.5-8.6-15.3-9.1-22.1-.6-6.5-.6-6.5 2.8-5.5 1.9.5 6.6.7 10.4.4m85.2-.1c-.3.7-.1 1.8.5 2.4 1.4 1.4-.3 3.6-5.2 6.7-5.9 3.8-8.1 6.2-8.3 9.1-.2 2.4.3 3 3 3.9 1.7.6 4.3 2.3 5.6 3.7 2.1 2.2 3 2.5 5.3 1.9 2.9-.8 2.9-.8 4.1 6.8 1 6.2.9 7.9-.1 9.1-1.8 1.9-5.6 9.6-5.6 11 0 .6.7 1.8 1.5 2.7.9.9 1.3 2.3 1 3.4-.4 1-.2 1.9.3 1.9 1.9 0 2-4 .1-6.1-1.8-2.1-1.8-2.2.7-6.8 1.5-2.5 2.8-5 3.1-5.5.3-.4 1.3.7 2.1 2.5.9 1.9 1.9 3.6 2.2 3.9 2 1.7 7 10.4 6.3 11-.4.4-6.2 1.3-12.8 2-7.7.8-13.4 2-15.9 3.3-4 1.9-4 1.9-6.8-1.4-2.7-3.3-6.8-12.5-6.8-15.4 0-.8-.5-1.5-1-1.5-1.6 0-.1 4.8 4 12.7l3.7 7.3h-6.2c-4.8 0-7.5.6-11.9 2.8-3.1 1.6-5.6 2.6-5.6 2.3s2.1-4 4.6-8.1 5.2-10 6.2-13.1c1.5-5.3 2-5.9 8.1-9.5 7.6-4.6 8.2-6 6.3-15.3-1.1-5.4-1.9-7-5.4-10.2-2.3-2.1-4-4-3.8-4.2 1-.8 26.1-14.5 26.9-14.6.2-.1.1.5-.2 1.3m8.7 6.4c-3.8 3.6-7.5 5.5-8.5 4.5-1.9-1.9.2-4.3 3.6-4.3 1.9 0 3.7-.5 4-1 .3-.6 1.1-1 1.7-1 .7 0 .3.8-.8 1.8m70.6 2.4c.4 1.8 2.7 9.6 5 17.3 6.1 20.5 6.1 20.4 4 21.5-1 .6-2.9 1-4.2 1-2.3 0-2.5-.5-3.7-10.8-.7-5.9-1.6-14.3-2.2-18.6-1.5-13.2-1-18.9 1.1-10.4m-65.7-1.6c.3.4.2 1.5-.4 2.6-.9 1.6-.4 2.7 2.6 6.4 2.9 3.5 4 4.2 5.1 3.4.7-.7 1.8-.9 2.4-.5 2.2 1.3.8 3.5-3.7 5.7-3.7 1.8-5.4 3.5-7.3 7.2-1.4 2.6-3.3 5.2-4.2 5.7-1.6.9-1.8.4-1.8-5.5 0-3.6.5-6.8 1-7.1.6-.4.7-1.1.4-1.7-.4-.5-.1-2.1.6-3.4 3-5.6-4.1-6.5-12.9-1.7-7.4 4.1-9.9.7-3.4-4.6 4.3-3.5 4.9-3.7 6.9-1.7 1.8 1.8 4.4 1.1 8.5-2.4 3.4-2.9 5-3.5 6.2-2.4m157.5 3.6c1.2 5 6.8 25.6 7.5 27.8.3.8.8 2.7 1.1 4.2.6 2.8 1 2.5-13.4 10.5-2.5 1.4-6.5 3.8-9 5.3-10.5 6.6-35.4 20-37 20-1 0-3.4.7-5.5 1.6-2.1.8-4.1 1.2-4.5.7-.8-.9-4-13.4-4-15.6 0-2 4-2.9 5.6-1.3 2.5 2.6 8.2 2.9 11.3.7 1.6-1.2 3.3-2.1 3.9-2.1 2 0 3.4-2.8 2.3-4.8-1.3-2.4-8.5-4.4-10-2.9-.8.8-1.1.5-1.1-1 0-1.9.3-2 4-1.2 3.3.8 4.8.5 8-1.1 2.2-1.1 4-2.6 4-3.3 0-4.4-8.2-7.7-12.9-5.3-2.1 1.1-3.8 1.1-8.5.2l-6-1.2 9.5-5.6c17.5-10.3 45.1-25.8 46-25.8.5 0 .9-.3.9-.8 0-.8 3.8-2.9 5.7-3.1.6 0 1.6 1.8 2.1 4.1M471.5 812c.7 1.2-5.4 5.1-7.4 4.8-2.7-.5-2.1-2.4 1.1-4 3.9-2 5.5-2.2 6.3-.8m-22.7 3.3c.2 1.1-.3 1.7-1.7 1.7-2.3 0-3.5-1.5-2.6-3.1 1-1.5 3.9-.6 4.3 1.4m24.2.1c0 .5-6 3.6-6.9 3.6-1.1-.1 4.4-4 5.7-4 .6 0 1.2.2 1.2.4m-28.2 4.2c-1 1-2.8-.6-2.8-2.4 0-1.5.1-1.5 1.7.1.9.9 1.4 1.9 1.1 2.3m-46.5-.4c4.5 3.1 6.7 5.8 6.7 8 0 1.8-.6 1.9-13.2 1.2-7.3-.3-13.5-.8-13.7-1s1.1-1.1 2.9-2.1c1.7-1 5.5-3.2 8.3-4.9 2.9-1.8 5.4-3.2 5.5-3.3.2-.1 1.8.9 3.5 2.1m65.2-1.2c.3.5-.1 1-.9 1s-1.8-.5-2.1-1c-.3-.6.1-1 .9-1s1.8.4 2.1 1m28.5 10.6c1.7 5.4 3.6 11.9 4.2 14.3.5 2.4 1.3 3.9 1.7 3.3.3-.5.6 1.5.6 4.6.1 16 3.2 29.3 8.2 35.2 1.4 1.7 2.9 4.7 3.5 6.8.5 2 1.3 5 1.8 6.7 2.1 7.2 4 15.8 3.6 16.3-.3.2-2.9-.7-5.8-2.1-5.1-2.5-18.5-8.8-27.8-13-2.5-1.1-9.2-4.2-15-7-5.8-2.7-11.9-5.5-13.6-6.3-2.1-.9-3.4-2.3-3.8-4.1-.4-1.5-1.4-5.1-2.2-7.9-1.6-5-1.5-5.2.9-9 1.7-2.7 4.6-5 9.3-7.5 3.8-2.1 9.9-5.7 13.6-8 3.7-2.4 8.1-5.2 9.7-6.1 5.5-3 7.1-7.1 7.1-17.7 0-5.2.2-9.2.5-8.9.2.2 1.9 4.9 3.5 10.4m-72.4-3.9c-1 1-1.9-.5-1-1.8.6-1.1.8-1.1 1.2 0 .2.7.1 1.5-.2 1.8m35.3 11.4c1.8 2.2 3.1 4.2 3 4.3-1.6 1.2-15.2 8.6-15.8 8.6-1.4 0-6.9-7.6-6.3-8.6.4-.5 2.7-2 5.2-3.3s5.4-3 6.5-3.8c3-2 3.9-1.7 7.4 2.8m-80.9 2.3c0 1.8-1.7-.8-2.4-3.4-.7-2.5-.7-2.5.8 0 .9 1.4 1.5 2.9 1.6 3.4m-7.4-1.7c1.5 2.1 1.8 4.3.5 4.3-.5 0-1.4-1.4-2-3-1.1-3.4-.5-3.9 1.5-1.3m-9.6 1.8c0 .3-.2.5-.5.5s-.5-.2-.5-.5.2-.5.5-.5.5.2.5.5m3 2c0 .3-.2.5-.5.5s-.5-.2-.5-.5.2-.5.5-.5.5.2.5.5m12.7 2.2c-.4.3-1 .3-1.4 0-.3-.4 0-.7.7-.7s1 .3.7.7m65.5 3.9c2.2 3 2.5 4 1.7 6.2-.9 2.7-.9 2.7 1.4 0 2.1-2.6 13-9.8 14.8-9.8.5 0-1.2 3.8-3.7 8.5s-4.3 8.9-3.9 9.4c.8 1.4-1.3 2.4-3.9 1.7-1.4-.3-3.2-2.3-4.7-5.1-1.3-2.5-2.7-4.5-3-4.5-.4 0-1.6-2-2.8-4.5-3.4-7.3-.9-8.4 4.1-1.9M369 844c0 .5-.2 1-.4 1s-1.2.3-2.2.7c-1.6.6-1.7.5-.4-1 1.7-1.9 3-2.2 3-.7m9 0c0 .5-.9 1-2 1s-2-.5-2-1c0-.6.9-1 2-1s2 .4 2 1m-18 .5c0 .3-.2.5-.5.5s-.5-.2-.5-.5.2-.5.5-.5.5.2.5.5m2 1c0 .3-.2.5-.5.5s-.5-.2-.5-.5.2-.5.5-.5.5.2.5.5m10 2c0 .3-.2.5-.5.5s-.5-.2-.5-.5.2-.5.5-.5.5.2.5.5m168.4 1.7c3 4.3 2 4.6-12.5 3.9-1.6-.1-3.2-4.5-2.1-5.6.3-.3 3.4-.5 6.8-.5 5.4 0 6.5.3 7.8 2.2m-207.3 5.7c5 5 5 6.6.1 6.6-3.8.1-15.2 5-15.2 6.7 0 1.4 2.1.9 5-1.2 1.6-1.1 4.2-2.2 5.9-2.5 10.1-1.6 9.1-1.9 9.1 3 0 2.4-.5 5.5-1.1 6.9-1.1 2.4-1.2 2.4-3.2.5-2.3-2.1-3.3-2.4-4.2-.9-.3.5-1.9 1-3.5 1s-3.2-.5-3.5-1c-.3-.6-1.4-1-2.5-1-3.4 0-5.2-9.7-2.9-15.7 1.8-4.7 3.9-6.3 8.2-6.3 3.2 0 4.6.7 7.8 3.9m58.9-2.2c0 1.5-6.7 15.3-11.9 24.6-1.1 2.1-2.1 3.9-2.1 4.1 0 .3 3-1.6 6.6-4 6.4-4.3 6.7-4.4 14.9-4.4 6.1 0 9.6-.5 13-2 4.8-2 10.5-2.7 10.5-1.2 0 .5.9 1.9 2 3.2 2.5 2.8 4.3 2.4 14-3.4 4.1-2.5 7.6-4.3 7.9-4.1.9 1-2.9 5.2-6.5 7.1-3.9 2.1-12.8 7.2-25.4 14.4-3.6 2-12.1 7-19 11s-14 8.1-15.7 9.1c-3.2 1.9-6.1 3.5-13.3 7.6-16 9.2-27 15.3-27.5 15.3-.4 0 .5-2.1 2-4.8 1.5-2.6 4.3-7.6 6.3-11.2 1.9-3.6 4.1-7.5 4.8-8.7.8-1.2 2.2-3.7 3.3-5.6 1-1.9 2.5-4.5 3.3-5.8 1.9-3.5 5-6.9 6.2-6.9.6 0 3.2-1.6 5.9-3.5 4.7-3.5 4.7-3.5 4.7-13.6 0-10 0-10 3.1-11.7 1.7-.9 5-2.9 7.2-4.4 5-3.2 5.7-3.3 5.7-1.1m121.8.9c2.5.5 3.2 1.3 3.8 3.8.3 1.7 2.2 8.5 4 15 1.9 6.5 3.2 12.1 2.9 12.4s-2.3 0-4.4-.7c-5.1-1.5-9.8-6.2-11-10.9-1.2-4.6-2.8-19.1-2.2-19.7.6-.7 3.3-.6 6.9.1m-9.9 8.9c1.1 4.4 1.9 8.1 1.7 8.3-.5.4-3-8.3-4.1-13.8-1.3-6.4.4-2.5 2.4 5.5M524 857c0 .5-.5 1-1.2 1.2-2.2.8 0 5.5 3.1 6.6 2.2.8 3 1.8 3.5 4.9.4 2.1 1.5 6 2.3 8.6 1.7 5.3 1.1 6.7-3.2 6.7-1.6 0-2.3-1.2-3.6-6.3-.9-3.4-2.6-9.6-3.8-13.7-2.6-9.6-2.6-9.8.4-9.2 1.4.2 2.5.8 2.5 1.2m4.7 3.7c-.4.3-.7 0-.7-.7s.3-1 .7-.7c.3.4.3 1 0 1.4m16.3-1.2c0 .3-.2.5-.5.5s-.5-.2-.5-.5.2-.5.5-.5.5.2.5.5m-171.1 6.2c-.1 2.1-.3 3-.6 2q-.45-1.8-2.4-1.2c-2.6.9-17.2 9.7-18.1 10.9-1.1 1.5-1 8.8.1 10.5.7 1.1 2.2.6 7.7-2.6 6.5-3.7 11.5-6.6 12.3-7 .2-.1.7-1.7 1.1-3.5.8-3.2.8-3.2.9-.5.2 5.8 0 5.9-33.9 24.8-23.9 13.2-23.9 13.2-28 15.7-4.4 2.8-7.3 2.8-11 .1-2.9-2.2-2.9-2.2-.9-6 1.1-2.2 2.4-3.9 2.9-3.9s1.1 2.1 1.3 4.7c.3 4.8.3 4.8.5-.5.2-6.3 2.2-7 2.2-.7 0 5.9 1.1 5.8 12-.3 8.5-4.7 8.5-4.7 8.8-9.6.5-7.7.1-8-6.3-4.5-3 1.6-5.5 2.8-5.5 2.5s2.9-2.4 6.5-4.7 6.3-4.4 6.1-4.7c-.8-.7-9.5 4.7-13.8 8.6-2.1 1.9-4 3.3-4.3 3-1-1 .8-4.7 2.6-5.1 3-.8 3.5-3.7 1.1-5.6-1.2-.9-2.1-2.5-2-3.6s-.2-3.9-.6-6.3c-.7-3.9-.6-4.2 1.6-4.2 2.3-.1 2.3-.1-.1-1.4-2.1-1.2-2.2-1.4-.5-2 1-.4 2-.3 2.2.3.2.5 1.4 2.5 2.8 4.3 1.3 1.8 2.7 4.1 3 5.1.4 1 2.6 2.9 5 4.3 4.3 2.5 4.3 2.5 12.1-1.7 4.3-2.3 9.1-5.1 10.6-6.2 1.6-1.1 5.5-3.2 8.8-4.8 3.2-1.6 5.9-3.3 5.9-3.9 0-.5-1.6 0-3.5 1.1-3.5 2.1-3.5 2.1-3.5-.4 0-1.5-.9-3.2-2.2-4.1-2.2-1.6-2.2-1.6-.2-1.6 1.2 0 3.4.4 5 1 2.1.7 4.3.6 7.9-.4 2.8-.7 5.3-1.4 5.8-1.5.4 0 .6 1.6.6 3.6m220.1-3.2c0 .3-.2.5-.5.5s-.5-.2-.5-.5.2-.5.5-.5.5.2.5.5m-2 1c0 .3-.2.5-.5.5s-.5-.2-.5-.5.2-.5.5-.5.5.2.5.5m15 1c0 .3-.2.5-.5.5s-.5-.2-.5-.5.2-.5.5-.5.5.2.5.5m-265 2.9c0 1.7 1.2 3.4 3.5 5.2l3.6 2.7-4.8 2.8c-2.6 1.6-5.2 2.9-5.7 2.9-.4 0-.5-1.7-.2-3.8.3-2 .9-5.6 1.2-8 .7-4.5 2.4-5.8 2.4-1.8m262.5-1.4c-.3.5-1.1 1-1.6 1-.6 0-.7-.5-.4-1 .3-.6 1.1-1 1.6-1 .6 0 .7.4.4 1m-164.6 1.4c-.2.2-2.3 1.3-4.6 2.5-3.3 1.6-4.1 1.8-3.7.6.4-.8.1-1.5-.5-1.5s-1.1.7-1.1 1.5c0 2.1-3 3.1-4.1 1.4-2.2-3.5-.6-4.3 10.5-4.7 2.2-.1 3.7 0 3.5.2m-68.1 5.3c-.3 4.6-.3 4.6-8.3 9.4-4.4 2.7-8.3 4.9-8.7 4.9-.5 0-.8-2.2-.8-4.8 0-4.3.3-5 2.7-6.3 1.5-.8 5.2-2.9 8.2-4.7 3-1.7 5.9-3.2 6.3-3.2.5 0 .8 2.1.6 4.7m209.2-3.3c0 .2-.7.7-1.6 1-.8.3-1.2.2-.9-.4.6-1 2.5-1.4 2.5-.6m16 0c0 .3-5.7 3.5-28.5 16.1-12.6 7-23.3 13.3-25.4 15.1-4.1 3.4-5.1 6.7-5.1 16.4 0 5.2-.4 9-1 9-.5 0-4.8-1.8-9.5-4.1-6.4-3-8.9-4.7-9.6-6.7-2.1-5.4-6.3-23.2-5.7-23.8.4-.3 2.1-.1 3.9.5 6.5 2.2 23.5.8 26.5-2.2.4-.4 1.4-.7 2.1-.7.8 0 5.6-1.9 10.6-4.1 5.1-2.3 11.2-5.1 13.7-6.2s7-3.1 10-4.4c8-3.7 12.2-5.2 15.3-5.2 1.5-.1 2.7.1 2.7.3m-286 8.4c.6 3.5 1 6.6.8 6.7s-1.7.6-3.5.9c-4.3 1-5.7-1.7-4.8-9 .6-5 .8-5.3 3.5-5.2s2.9.4 4 6.6m260.6-2.2c-3 2.1-4.5 1.6-1.6-.6 1.4-1 2.7-1.6 3-1.3.3.2-.4 1.1-1.4 1.9M323 877c.6 1.1.9 2 .7 2s-1.2-.9-2.2-2-1.3-2-.7-2 1.6.9 2.2 2m184.7 1.7c-.4.3-.7 0-.7-.7s.3-1 .7-.7c.3.4.3 1 0 1.4m59-1c-.4.3-1 .3-1.4 0-.3-.4 0-.7.7-.7s1 .3.7.7M331 880c0 .5-.7 1-1.6 1-.8 0-1.2-.5-.9-1 .3-.6 1-1 1.6-1 .5 0 .9.4.9 1m303 3.5c3 2.5 5.6 4.9 5.8 5.4.3 1-8.4 5.3-12.9 6.4-2.1.5-3 .2-4.2-1.7-1.7-2.5-7.4-4-9.4-2.4-2.9 2.3-10.3-2.5-10.3-6.8 0-3.9 3.5-4.9 10.9-3 8.1 2.1 9.8 2 11.3-.4.7-1.1 1.7-2 2.3-2s3.5 2 6.5 4.5m-305-1c0 .3-.2.5-.5.5s-.5-.2-.5-.5.2-.5.5-.5.5.2.5.5m180.7 2.7c-.3.8-.6.5-.6-.6-.1-1.1.2-1.7.5-1.3.3.3.4 1.2.1 1.9m91.9 3.3c.9 1.3 3.3 3.2 5.4 4.1 2.3 1.1 4.1 2.6 4.4 3.9.4 1.6 1.6 2.5 4.2 2.9 1.9.4 4.1.3 4.7-.2.7-.5 2.9-1.2 4.9-1.5 2.1-.3 6.7-2 10.3-3.7 5.3-2.5 6.9-2.9 8.1-2 2.3 2 1.7 2.5-5.3 3.8-3.7.7-7.2 1.7-7.7 2.1-1.7 1.3-13.4 5.1-15.6 5.1-1.2 0-2.3-.7-2.6-1.5-.6-1.5-7.4-3.9-10.6-3.7-2.4.1-4.8-3.6-4.8-7.4 0-5 2-5.9 4.6-1.9m-289.6 1c0 .3-.2.5-.5.5s-.5-.2-.5-.5.2-.5.5-.5.5.2.5.5m46.2 3.2c-.7 1.7-2.9 5.6-9.7 17.3-1.7 3-5.3 9.3-7.9 14-4.2 7.7-5.2 8.8-10.4 11.6-3.1 1.7-11.3 6.3-18.2 10.3-10.7 6.2-15.8 9.1-29.5 16.5-1.1.6-2.2 1.3-2.5 1.6-1.3 1.4-13 7-13 6.3 0-.8 4.7-9.4 18.5-33.8 3.7-6.6 8-14.1 9.4-16.8 2.8-5.1 4.3-5.7 8.1-2.7 3.4 2.6 5 2.5 10.7-.9 7.6-4.5 18.3-10.6 24.6-14 14.4-7.8 17.3-9.4 18.2-10.2 1.5-1.5 2.5-1 1.7.8m-46.2-.3c0 .3-.5.8-1.2 1.2s-.8.3-.4-.4c.7-1.2 1.6-1.6 1.6-.8m15.4 6.5c-.6 3.7-1.2 4.5-5.3 6.6-2.5 1.3-5.9 3.3-7.6 4.4-1.6 1.2-3.4 2.1-3.8 2.1s-.7-2.1-.5-4.8c.3-4.7.3-4.7 8.3-9.4 4.4-2.6 8.3-4.4 8.8-3.9.4.4.5 2.7.1 5m292.6-5.1c0 1.3-1.2 2.2-2.2 1.6s-.1-2.4 1.3-2.4c.5 0 .9.4.9.8m-2.3 3.9c-.4.3-1 .3-1.4 0-.3-.4 0-.7.7-.7s1 .3.7.7m-8.2 4.3c-.3.5-1.3 1-2.1 1s-1.4-.5-1.4-1c0-.6.9-1 2.1-1 1.1 0 1.7.4 1.4 1M278 905.3c0 2-.1 2-1.6.5-.9-.9-1.3-2.1-.9-2.7 1-1.6 2.5-.3 2.5 2.2m328.7-.6c-.4.3-1 .3-1.4 0-.3-.4 0-.7.7-.7s1 .3.7.7m-25.2 8.2c3.8 1.7 3.9 1.8 1.9 2.9-1.8.9-2.5.7-4.9-1.8-3.3-3.4-2.7-3.6 3-1.1m6.5 5.1c0 .5-.9 1-2 1s-2-.5-2-1c0-.6.9-1 2-1s2 .4 2 1m32.3.7c1 1-2.4 4.3-4.4 4.3-2.8 0-3.1-1.7-.7-3.4q3.6-2.55 5.1-.9m-35.3 3.4c0 .5-.7.9-1.5.9-.9 0-1.5-.9-1.5-2.1 0-1.8.2-1.9 1.5-.9.8.7 1.5 1.6 1.5 2.1m197.6 10c-2.1 13.1-14.2 23.4-20 17-1.6-1.8-1.5-2 3.1-5 8.1-5.3 8.3-5.5 7.8-7.2-.4-1.2.8-2.8 4.1-5.3 2.6-2 4.9-3.6 5.2-3.6.2 0 .2 1.8-.2 4.1m-16.6-2.7c0 .2-1.9 1.6-4.1 3.1-3.3 2.1-4.3 2.4-5 1.3-1.4-2.1-1.1-2.5 3.4-3.5 5.3-1.3 5.7-1.4 5.7-.9m4.7 1.7c.2.8-3.3 3.8-8 6.8-4.5 3-9.8 6.8-11.8 8.3-4.3 3.3-6.9 3.6-6.9.9 0-1.1-.6-2.2-1.2-2.5-.7-.3-.4-.4.7-.2 1.3.3 6-2.3 13.5-7.4 6.3-4.3 12-7.8 12.5-7.6.6.1 1.1.9 1.2 1.7M755 934c0 .6-1 1.5-2.2 2-1.7.6-1.8.9-.6.9.9.1 2-.4 2.3-.9.3-.6 1.2-1 1.8-1 1.4 0-2.4 3.1-7.3 5.9-3.4 1.9-3.6 1.9-3.7.1-.1-1.2.7-2.1 2.5-2.5 1.5-.4 2.1-.9 1.5-1.2-.7-.2-4 .5-7.3 1.7-3.4 1.2-6.4 1.9-6.8 1.5-1-.9 1.6-2.3 7.8-4 3-.9 6.6-2 8-2.5 3.4-1.2 4-1.2 4 0m-139.9 8c13.7 6.6 14.2 7 10.2 7-2.3 0-6.6-1.1-9.5-2.4-7.4-3.3-18.4-11.6-15.4-11.6.2 0 6.8 3.1 14.7 7m120.9-4.5c0 .3-.2.5-.5.5s-.5-.2-.5-.5.2-.5.5-.5.5.2.5.5m35.5.5c-.9 1.4-9.6 7.3-10 6.8-.3-.2 1.7-2.1 4.3-4.1 4.6-3.6 6.9-4.7 5.7-2.7m-38.7 4.4c-.1.2-1.9.6-3.8 1l-3.5.6 3.5-2.4c2.8-1.9 3.6-2.1 3.8-.9.2.8.2 1.6 0 1.7m11.2-.9c0 .7-4.4 2.4-10.8 4.1-11 2.9-10.9 1.1.1-2.2 7.3-2.2 10.7-2.8 10.7-1.9m-17.7 6.6c1.8.1 1.6.3-.8 1-4.5 1.4-10.5 2.7-10.5 2.3 0-.1 1.9-1.6 4.3-3.2 3.1-2.2 4.3-2.6 4.5-1.6.2.8 1.3 1.4 2.5 1.5m-46.5.4c-1.5 1.4-3.5 2.5-4.5 2.5-1.5-.1-1.3-.5 1-2.5 3.9-3.5 7.2-3.4 3.5 0m63.4-.1c1.5 2.3 1.9 2.1-18.2 7-9.5 2.2-10.6 2.3-11.7.9-1.7-2.2-1-2.9 3.4-3.6 7.6-1.3 21.7-5.4 20.3-6-.8-.3.1-.3 2 0s3.8 1.1 4.2 1.7m-10.5-.7c-.4.3-1 .3-1.4 0-.3-.4 0-.7.7-.7s1 .3.7.7m-51.5 3.4c-1.9 1.7-3.7 2.8-4 2.4-.7-.7 4.7-5.5 6.2-5.5.6 0-.4 1.4-2.2 3.1M675 953c0 .5-.2 1-.4 1-.3 0-.8-.5-1.1-1-.3-.6-.1-1 .4-1 .6 0 1.1.4 1.1 1"/><path d="M683.5 693.4c-2.9 1.6-3.5 2.7-3.5 6.3 0 3-.3 3.3-2.8 3.3-1.6 0-3.7-.9-4.7-2s-2.1-1.8-2.3-1.5c-1.2 1.2 4.3 5.5 7 5.5 1.7 0 2.8.5 2.8 1.4 0 2 4.4 2.8 7.4 1.4 2.4-1 2.6-1.6 2.6-7.3 0-5.4-.3-6.3-2.2-7.2-1.6-.7-2.9-.7-4.3.1M581 797c.8.5 2.6.9 4 .9 2.5-.1 2.5-.1 0-.9-1.4-.4-3.2-.8-4-.9-1.3-.1-1.3 0 0 .9M435.2 861c-1.4 2.3-1.5 3-.3 3 .8 0 2.4-4.1 1.8-4.7-.2-.1-.8.7-1.5 1.7M339.2 884.3c-9.2 5.2-9.2 5.2-9.2 10.9 0 6.9.6 7.1 8.2 2.8 2.9-1.7 6.8-3.8 8.6-4.7 3-1.6 3.2-1.9 3.2-7.4 0-3.2-.4-6-.8-6.3-.5-.3-5 1.8-10 4.7m7.6 7.2c-.7.7-4.3 2.8-8 4.8L332 900v-5.5c0-3 .4-5.5.9-5.5s4-1.8 7.8-4l6.8-3.9.3 4.6c.2 2.9-.2 5.1-1 5.8M638 588.7c-20.6 3.6-57.8 12.7-59.5 14.5-.7.7-.2.8 1.5.3 1.4-.5 3.9-1.2 5.5-1.6 1.7-.4 5.7-1.4 9-2.3 21.3-5.4 42.3-9.6 48.4-9.6 1.7 0 3.3-.5 3.6-1 .6-1-3.6-1.2-8.5-.3M559 608.9c-12.5 4.5-38.8 15-46.8 18.7-3.1 1.5-9.5 4.3-14.2 6.4-15.7 6.9-38.4 18.3-48.5 24.3-9.4 5.6-42.4 27.4-43.5 28.7-.3.3-2.1 1.7-4 3s-3.7 2.7-4 3c-.3.4-2.7 2.1-5.4 4-2.7 1.8-9.4 7.1-15 11.8-31.5 26.4-52.1 47.5-71.6 73.2-3.6 4.7-6.7 8.7-7 9-1.6 1.5-16 22.4-16 23.3 0 1.2 2.2-1.6 9.5-12.3 3.2-4.7 6.1-8.7 6.4-9s3.5-4.3 7.1-9c3.5-4.7 6.7-8.7 7-9s1.6-1.9 2.9-3.5c10.7-13.9 38.8-42.3 56.1-56.5 3-2.5 6.4-5.3 7.5-6.3s5.4-4.4 9.5-7.5c4.1-3 9.1-6.8 11-8.2s5.8-4.1 8.5-6c2.8-1.9 5.2-3.7 5.5-4 1-1.3 27.6-18.7 37-24.3 8.5-5 31.8-16.6 45.5-22.7 2.8-1.2 7.3-3.3 10-4.5 14.4-6.5 36.3-15.5 37.7-15.5.5 0 2.7-.9 5.1-1.9 2.3-1.1 7.8-3.2 12.2-4.6 4.4-1.5 8.4-3.1 9-3.6 1.5-1.5-.2-1-11.5 3M725.3 622.1c-4.4 1.3-9 7.1-9.8 12.6-.4 2.8-.2 5 .4 5.6.8.8 1.1-.1 1.1-3 0-5.4 1.2-8.5 4.7-11.7 2.2-2.1 3.8-2.6 7.7-2.6 4.4 0 5.3.4 8.8 4 4.1 4.4 4.8 4.5 2.2.4-3-4.4-9.7-6.8-15.1-5.3M742 632.5c0 .3.2.5.5.5s.5-.2.5-.5-.2-.5-.5-.5-.5.2-.5.5M746.1 642.7c.1 2.7.5 6.1.9 7.8.6 2.2.8.9.9-4.8.1-4.5-.3-7.7-.9-7.7-.5 0-.9 2.1-.9 4.7M716 642.9c0 .5.5 1.3 1 1.6.6.3 1 .2 1-.4 0-.5-.4-1.3-1-1.6-.5-.3-1-.2-1 .4M738.8 646.8c-.7 1.1-2.4 2.4-3.6 3.1-1.3.7-2.1 1.5-1.9 1.8.8.7 5.7-2.7 6.8-4.8 1.3-2.4.4-2.4-1.3-.1M718 646.8c0 1.4 5.9 5.6 6.7 4.8.4-.3.2-.6-.4-.6s-2.2-1.2-3.7-2.6c-1.4-1.5-2.6-2.2-2.6-1.6M727.3 652.7c.9.2 2.5.2 3.5 0 .9-.3.1-.5-1.8-.5s-2.7.2-1.7.5"/><path d="M317.8 775.9c-7.9 5-10.8 11.4-8.7 18.8 1.5 5.1 7 11.6 10.7 12.5 3.5.9 2.5-.8-1.5-2.9-5-2.6-8.6-9.3-8-15 .6-6 4-10.1 11.1-13.4 4.7-2.1 5.5-2.8 3.5-2.9-1.4 0-4.6 1.3-7.1 2.9M319.4 843.8c-4.8 2.7-10.4 7.3-11.6 9.6-.8 1.6-.2 1.3 2.3-1 1.9-1.7 5.5-4.5 8.2-6.3 2.6-1.8 4.7-3.4 4.7-3.6 0-.7-.1-.6-3.6 1.3M646 890c0 .5 2.1 1 4.8 1 8.3 0 10.7 1 49.2 19.7 19.2 9.4 30.4 13.4 36.4 13.2 2.7-.2 2.8-.2.6-.6-7.2-1.3-17.9-5.2-29.5-10.8-33.1-16.1-43.3-20.8-47.4-22.1-5.1-1.6-14.1-1.9-14.1-.4M241.5 906.6c-3.8 11.7-3.8 11.7-3 26.8.3 8.3 1.1 15.8 1.6 16.6.7 1.1.9.5.5-2-.3-1.9-.8-9.2-1.2-16.2-.6-12.7-.6-12.7 3.1-24.3 2-6.4 3.5-11.8 3.2-12.1-.2-.3-2.2 4.8-4.2 11.2M773.7 919.6c-1.1 1.1-8.2 2.6-18.2 3.9-10 1.2-10 1.2-3 1.4 3.9 0 9.7-.6 13-1.5 9-2.4 13.3-2.8 15-1.4 1 .8 1.5.9 1.5.2 0-2.2-6.6-4.3-8.3-2.6M647.4 953c-4.9 3.9-9.6 7.6-10.4 8.3s-3.5 2.8-6 4.7-4.7 3.7-5 4-3.4 3-7 6-6.7 5.7-7 6-4.3 3.9-9 8c-10.6 9.3-42.5 41.1-43.9 43.9-1 1.8-.7 2.2 1.8 3.6 4.1 2 5.6 1.9 7.4-.8.8-1.2 2.3-3.1 3.3-4.2 1.1-1.2 4.4-5 7.4-8.5 13.4-15.9 42.7-45.2 64-64 13.7-12.2 14.5-12.9 13.9-13.5-.3-.3-4.6 2.6-9.5 6.5M240 956.8c0 2.6.4 4.1 1 3.7 1.3-.8 1.3-4.5 0-6.5-.7-1.1-1-.3-1 2.8M704.5 967.6c-6 1.4-13.7 2.8-17 3.3-4.3.5-5.5 1-4.2 1.6 1.8.7 14-1.5 30.2-5.6 10.5-2.6 3.6-2.1-9 .7M466.4 982.3c-.2.7-.3 6.2-.2 12.3l.3 10.9 43 .8c23.6.4 43.5.5 44.2.3 1-.4 1.3-3.6 1.3-12.4 0-11.9 0-11.9-3.7-12.6-2.1-.3-21.9-.6-44.1-.6-32.3 0-40.4.3-40.8 1.3m65.9 1.4 19.7.6v20l-40.7-.7c-22.4-.4-40.8-.8-40.9-.9-.5-.5-.7-5.6-.6-12.5l.2-7.2h21.3c11.8 0 30.2.3 41 .7"/><path d="M476.9 985.6c-2 2.4-2.4 11.5-.5 13.9 1.2 1.6 1.8 1.8 3.3.9 1-.6 2-1.9 2.1-2.8.6-2.8-.7-6.6-2.3-6.6-1.7 0-2.8-1.7-2-3 .5-.8 1.1-.8 2 0 2 1.6 2.8-.5.9-2.4-1.9-2-1.9-2-3.5 0m3.1 10c0 3.1-2.3 2.8-2.8-.4-.2-1.5.2-2.2 1.2-2.2 1.1 0 1.6.9 1.6 2.6M486 987.7c.1 2.7.1 2.7 1.5.9 2.2-2.9 3-1.2 1.7 3.3-1.4 4.5-1.6 9.1-.3 9.1.4 0 1.1-2.4 1.5-5.3.3-2.8.9-6.4 1.2-8 .6-2.5.4-2.7-2.5-2.7-2.7 0-3.1.3-3.1 2.7M507.5 993c0 8 0 8 2.7 8 3.5 0 4.2-1.3 3.9-7.9-.2-6.2-1.3-8.1-4.5-8.1-2 0-2.1.5-2.1 8m4.5-3.5c0 1.4-.4 2.5-1 2.5-.5 0-1-1.1-1-2.5s.5-2.5 1-2.5c.6 0 1 1.1 1 2.5m0 7c0 1.4-.4 2.5-1 2.5-.5 0-1-1.1-1-2.5s.5-2.5 1-2.5c.6 0 1 1.1 1 2.5M519.2 986.2c-1.4 1.4-1.6 4.8-.3 4.8.5 0 1.2-1 1.6-2.3.8-2.1.8-2.1 1.2.5.3 1.7-.4 4.4-1.8 6.8-1.2 2.2-2.1 4.2-1.8 4.4.2.3 1.8.6 3.4.8 2.5.2 3.1-.1 3.3-2 .3-2 0-2.3-1.7-1.7-2.1.6-2.1.6-.2-3.6 1.3-2.7 1.6-5 1.1-6.3-.9-2.5-3.1-3.1-4.8-1.4M528.8 987.2c-.6 4.1.3 6.8 2.3 6.8 1.4 0 1.9.7 1.9 2.5 0 2.7-.9 3.2-2.7 1.4-.8-.8-1.3-.7-1.8.1-.4.7 0 1.9.8 2.7 3.4 3.4 8.2-2.6 5.7-7.2-.7-1.4-1.9-2.5-2.7-2.5-2.1 0-1.5-2.7.7-3.3 3-.8 2.4-2.7-.9-2.7-2.3 0-3 .5-3.3 2.2M496.5 993c-.9 1.5 2.1 2.3 5.2 1.5 2.1-.5 2.4-.8 1.2-1.6-1.9-1.2-5.6-1.1-6.4.1M504.9 1008.7c0 .4 0 11.9.1 25.6l.1 24.7-4.7 2.8c-4.8 2.7-7.8 5.4-14.5 12.8-2 2.2-5.8 5.1-8.5 6.4-2.7 1.4-5.5 3-6.2 3.7-.6.6-2 1.4-3 1.8-2.6.8-4.6 4.9-3.8 7.8 1.2 5.1 12.9 8.7 18.4 5.8.9-.6 5.5-2.9 10.2-5.2 10.9-5.3 13.5-7.2 15-10.8.9-2.2 3.6-4.3 10.3-8.1 8.4-4.7 9.5-5.1 12.3-4.1s3.9.7 11.5-3.5c9.3-5 11.9-7.4 11.9-11 0-5.9-5.9-10.4-13.4-10.4-4.6 0-8.5 1.7-18.9 8.3-4.2 2.6-5.1 2.8-7.3 1.8-1.4-.6-3.6-.8-5-.5-2.4.6-2.4.6-2.4-23.4 0-15-.4-24.3-1-24.7-.5-.3-1-.3-1.1.2m41.6 41.7c1.9.8 4 2.7 4.7 4.1 1 2.2.9 2.9-.8 4.5-2.4 2.3-14.9 9-17 9-1.7 0-14.3-7.2-14.4-8.2 0-.3 3.9-2.9 8.8-5.7 9.4-5.4 12.8-6.1 18.7-3.7m-27.4 12.2c3.2 2 5.9 4.1 5.9 4.5 0 .5-3.6 2.7-8 4.9-6.1 3-8.7 5.1-10.9 8.3-4.5 6.5-6.2 7.8-16.3 12.9-10.3 5.2-14.6 5.9-20.4 3.2-2.4-1.2-3.4-2.3-3.4-3.9 0-1.9 1.9-3.5 9.8-8.2 5.3-3.1 10.4-6.7 11.3-7.8 6.1-7.5 5.6-7.1 7.6-5.4 2.4 2.2 10.4 6.2 11 5.6.2-.3-2.1-2-5.3-3.9-5.7-3.3-7.8-5.7-5.2-5.9.7 0 4-1.8 7.3-3.9s7.1-3.9 8.3-3.9c1.3-.1 5.1 1.5 8.3 3.5"/><path d="M535.6 1052.3c-4.7 3.4 1.1 9.2 7.2 7.1 3.2-1.1 4.4-5.7 1.6-6.8-1.2-.5-1.5-.2-1 1s.2 1.5-1 1c-.8-.3-2.3-.6-3.2-.7-1.1 0-1.2-.2-.4-.6.6-.2 1.2-.9 1.2-1.4 0-1.3-2.3-1.1-4.4.4m5.7 4.4c-.7.2-1.9.2-2.5 0-.7-.3-.2-.5 1.2-.5s1.9.2 1.3.5M504.8 1064.8c-3.6 2.2-3.7 5.5-.2 7.1 2.2 1 3.3.8 7-1 4.5-2.1 5.5-4.4 3.2-6.7-1.7-1.7-6.8-1.3-10 .6m4.2.7c0 .3-.2.5-.5.5s-.5-.2-.5-.5.2-.5.5-.5.5.2.5.5m2 3.5c-.8.5-2.4 1-3.5 1-1.7 0-1.7-.2-.5-1 .8-.5 2.4-1 3.5-1 1.7 0 1.7.2.5 1M487.1 1079.4c2.3 1.9 13 7.3 12.7 6.4-.5-1.4-9.6-6.7-11.7-6.8-.8 0-1.2.2-1 .4M478 1087.6c0 .4.8 1.3 1.8 2.1 1.5 1.3 1.5 1.3-.8.7-1.4-.4-2.8-1.1-3.1-1.6-.8-1.3-4.9.8-4.9 2.5.1 3.5 4.8 5.5 9.3 3.8 3.8-1.5 4.5-4 1.8-6.3-2.3-1.8-4.1-2.3-4.1-1.2m.7 5c-.3.3-1.2.4-1.9.1-.8-.3-.5-.6.6-.6 1.1-.1 1.7.2 1.3.5"/></svg>