<svg xmlns="http://www.w3.org/2000/svg" viewBox="0 0 992 1402" fill="currentColor"><path d="M120 129.2c-3.1 5-1 10.6 4.7 12.2 2.6.8 8-3.4 6.9-5.3-.6-.9-1.2-.7-2.3.8-2 2.9-5.9 2.7-8-.5-1.5-2.4-1.5-2.9-.2-5.3 1.8-3.2 5.4-3.9 8-1.5 2.5 2.3 3.7 1 1.4-1.6-1.1-1.2-3.1-2-5.2-2-2.7 0-3.7.6-5.3 3.2M139.4 128.6c-5.4 8.1 4 17.2 10.6 10.2 2.6-2.8 2.6-6.2-.1-9.9-2.8-3.9-8.1-4.1-10.5-.3m8.4.6c.7.7 1.2 2.6 1.2 4.3 0 3.6-1.5 5.5-4.5 5.5-2.7 0-4.5-1.8-4.5-4.7 0-5.1 4.7-8.2 7.8-5.1M156.2 133.7c.3 8.7 2 10.2 2.8 2.6l.5-4.8 1.3 4.1c.6 2.3 1.9 4.7 2.7 5.4 1.2 1 1.6.8 2.5-1.4.5-1.4 1.6-3.8 2.2-5.4 1.2-2.6 1.3-2.5 1.6 2.5.5 8.3 2.2 6.2 2.2-2.8 0-7-.2-8-1.7-7.7-1 .2-2.4 2.3-3.4 5.3-.9 2.7-2.2 5.1-2.7 5.3-.6.2-1.8-2.2-2.8-5.2-1.3-4.2-2.2-5.6-3.6-5.6-1.7 0-1.9.8-1.6 7.7M178.4 127.4c-.3.7-.4 4.2-.2 7.7.3 6.7 2.1 8.8 2.6 3.1.3-2.8.7-3.2 3.2-3.2 1.6 0 3.5-.3 4.4-.6 2.1-.8 2-5.4-.1-7-2.4-1.8-9.2-1.8-9.9 0m9.1 3.6c0 1-1.2 1.6-3.2 1.8-2.8.3-3.3 0-3.3-1.8s.5-2.1 3.3-1.8c2 .2 3.2.8 3.2 1.8M198.1 128.6c-3 3.8-2.8 8.7.5 11.3 3.5 2.7 6.5 2.7 9.2-.2 4.4-4.7 1.2-13.7-4.8-13.7-1.9 0-3.6.9-4.9 2.6m8.5 2c2 2.9 1.1 6.9-1.8 8.8-2.3 1.4-5-.2-6.2-3.7-1.1-3.1 1.5-7.7 4.4-7.7 1.1 0 2.7 1.2 3.6 2.6M216.7 126.7c-.4.3-.7 4-.7 8 0 5.5.3 7.4 1.3 7.1.6-.3 1.4-2.8 1.7-5.9.6-5.4.6-5.4 1.9-2.7.8 1.6 1.8 2.8 2.3 2.8.4 0 .8.6.8 1.3 0 1.4 3.1 4.7 4.3 4.7.4 0 .7-3.4.7-7.6 0-5.6-.3-7.5-1.2-7.2-.7.3-1.5 2.4-1.8 4.9l-.5 4.4-3.4-5.3c-3.3-5.1-4.1-5.8-5.4-4.5M236.7 126.6c-.4.4-.7 4-.7 8.1v7.3h6c3.3 0 6-.4 6-1s-2-1-4.5-1c-4.1 0-4.5-.2-4.5-2.5 0-2.2.4-2.5 3.5-2.5 1.9 0 3.5-.5 3.5-1 0-.6-1.6-1-3.5-1-2.8 0-3.5-.4-3.5-1.9 0-1.6.8-2 4.3-2.3 2.3-.2 4.2-.8 4.2-1.3 0-1.2-9.7-1.9-10.8-.9M255.5 128.3c-1 3.7-.1 13 1.2 13.4.8.3 1.3-1.4 1.5-5.3l.3-5.8 3.8 5.7c2 3.1 4.2 5.7 4.7 5.7.6 0 1-3.2 1-7.5s-.4-7.5-1-7.5c-1 0-1.5 2.7-1.1 6.7.3 3.7-1.5 2.7-4.8-2.7-3.4-5.5-4.8-6.2-5.6-2.7M274.7 126.6c-1.5 1.5-.6 2.4 2.3 2.4 3 0 3 0 3 6.5 0 3.7.4 6.5 1 6.5s1-2.8 1-6.5c0-6.5 0-6.5 3.1-6.5 2 0 2.9-.4 2.7-1.3-.5-1.3-11.9-2.3-13.1-1.1M296.1 128.1c-2.7 2.9-1.4 5.2 3.9 6.8 3 .9 4 1.7 3.8 2.9-.4 2.4-4.6 2.7-6.9.6-2.5-2.3-3.7-1-1.4 1.6 3.4 3.8 12.1 1.6 11.3-2.9-.2-.9-2.5-2.6-5.1-3.9-4.8-2.3-5.5-4.2-1.5-4.2 1.2 0 3 .7 4 1.7 1.7 1.5 1.8 1.5 1.8-.4s-3.6-4.3-6.5-4.3c-.8 0-2.3 1-3.4 2.1M334.9 128.9c-3.4 3.5-3.7 6.8-.8 10.5 4.2 5.3 12.9 1.8 12.9-5.1 0-2.8-5-8.3-7.5-8.3-.9 0-3 1.3-4.6 2.9m7.9 1.3c1.7 1.7 1.5 7.3-.2 8.8-4.2 3.4-9.2-2.2-6.8-7.5 1.3-2.7 4.9-3.4 7-1.3M455.2 127.1c-2.4.9-3.9 3.5-2.7 4.7.3.4 1.1-.1 1.6-1.1 1.2-2.1 3.8-2.2 4.6-.1.4 1.1-.8 2.8-3.6 5.4-2.2 2.1-4.1 4.3-4.1 4.9 0 .7 2.1 1.1 5.5 1.1 3 0 5.5-.5 5.5-1 0-.6-1.6-1-3.5-1-4 0-4.6-1.5-1.2-3.1 6.8-3.1 4.8-12.4-2.1-9.8M492.6 128.7c-4.7 4.6-2.8 13.5 2.8 13.5 3.3 0 5.6-1.9 5.6-4.7 0-3.3-3.2-5.7-6.5-4.9-2.5.6-2.6.5-1.6-1.5 1.2-2.1 5.1-3 5.1-1.1 0 .5.5 1 1 1 2 0 1-2.7-1.4-3.8-2.1-.9-2.8-.7-5 1.5m5.8 7.2c1 1.6-.5 4.1-2.4 4.1-2.3 0-3.4-1.6-2.6-3.5.6-1.6 4.2-2 5-.6M551.8 126.7c-1.7.4-3.2 3.2-2.3 4.1.3.3 1.1 0 1.7-.6 1.9-1.9 4.8-1.4 4.8.7 0 1.3-.8 2.1-2.2 2.3-2.9.4-2.6 2.1.4 2.8 3.2.8 2.9 3.4-.5 3.8q-2.7.3-3.3-1.2c-.8-2-2.4-2.1-2.4-.1 0 3.8 9 5.6 10.3 2.1 1.1-2.9-.2-11.8-2-13.2-1-.7-2-1.3-2.3-1.3-.3.1-1.2.3-2.2.6M590.3 127.2c-4.2 2-5.4 9.6-2.1 13.5.6.7 2.5 1.3 4.3 1.3 2.7 0 3.5-.6 4.8-3.3 3.1-6.4-1.5-13.9-7-11.5m4.7 3.8c.6 1.2 1 3.5.8 5.3-.2 2.5-.8 3.3-2.7 3.5-2.8.4-4.1-1.2-4.1-5.4 0-5.1 3.9-7.3 6-3.4M354 134.5c0 7.4 1.6 10.5 2.2 4.2.3-2.8.7-3.2 3.3-3.3 4.5-.1 4.6-1.9.2-2.2-3-.3-3.7-.7-3.5-2 .2-1.2 1.5-1.8 4.6-2 6.1-.5 5.1-2.2-1.3-2.2H354zM392 134.5c0 4.3.4 7.5 1 7.5s1-2.3 1-5c0-2.8.5-5 1-5 .6 0 2.4 2.3 4.1 5 1.7 2.8 3.6 4.9 4.3 4.7 1.6-.5 1.5-13.9-.1-14.5-.9-.2-1.3 1-1.3 4.2 0 2.5-.3 4.6-.7 4.6-.5 0-2.1-2-3.6-4.5-4.3-6.8-5.7-6-5.7 3M414 133.2c-1.3 3.5-2.8 6.9-3.3 7.5-.7.9-.4 1.3.8 1.3.9 0 1.9-.9 2.2-2 .4-1.5 1.4-2 4-2s3.6.5 4 2c.3 1.1 1.2 2 1.9 2 1.8 0 1.9.6-1.5-7.5-1.7-3.9-3.6-7.1-4.4-7.3-.9-.2-2.2 1.8-3.7 6m5.3-.2c.3 1.3 0 2.3-.9 2.7-2.1.8-2.7-.2-2-3.2.7-2.9 2.1-2.6 2.9.5M435.3 127.7c-.7.2-1.3 1.1-1.3 1.9 0 .9.5 1.2 1 .9.6-.4 1 1.7 1 5.4 0 4.8.3 6.1 1.5 6.1 1.3 0 1.5-1.2 1.3-7.2-.3-6.9-.9-8.2-3.5-7.1M510.2 128.2c.3.7 1.7 1.4 3.1 1.6 3.2.4 3.3.7.7 6.7-2.4 5.6-2.4 5.5-.5 5.5.8 0 1.8-1.2 2.1-2.8.4-1.5 1.5-4.4 2.5-6.4 1.1-2.1 1.9-4.2 1.9-4.8 0-.5-2.2-1-5.1-1-3.6 0-4.9.4-4.7 1.2M569.7 132.2c-1.9 2.9-3.3 5.6-3 6 .2.5 2 .8 3.9.8 2.4 0 3.4.5 3.4 1.5 0 .8.5 1.5 1 1.5.6 0 1-.6 1-1.4s.6-1.7 1.3-1.9c.9-.4.9-.7 0-1.4-.6-.5-1.3-2.8-1.5-5.2-.2-2.5-.8-4.6-1.4-4.8s-2.7 2-4.7 4.9m4.1 2c-.2 1.3-1.1 2.4-2 2.6-2.1.4-2.4-1.8-.6-3.6 1.9-1.9 3-1.4 2.6 1M608.6 132.2c-3.4 7.7-3.9 9.8-2.6 9.8.7 0 1.4-.9 1.7-2 .4-1.6 1.4-2 4.4-2 3.2 0 3.9.3 3.9 2 0 1.1.7 2 1.6 2 1.1 0 1.4-.6.8-2.3-1.6-5.3-5.4-12.7-6.4-12.7-.6 0-2.1 2.4-3.4 5.2m5.4 2c0 1-2.9 2.3-3.6 1.5-.3-.2-.2-1.7.2-3.2.7-2.6.8-2.7 2-1 .8 1.1 1.4 2.3 1.4 2.7M468 135c0 .6 3.3 1 8 1s8-.4 8-1-3.3-1-8-1-8 .4-8 1M527 135c0 .6 3.2 1 7.5 1s7.5-.4 7.5-1-3.2-1-7.5-1-7.5.4-7.5 1M392 156c0 4.7.4 8 1 8s1-2.5 1-5.6.4-5.4.9-5.2c.5.1 2.4 2.5 4.3 5.2 1.8 2.8 3.8 4.9 4.3 4.8 1.5-.3 1.3-14.4-.2-14.9-.8-.3-1.3 1.3-1.5 4.9l-.3 5.3-3.4-5.3c-4.8-7.6-6.1-7-6.1 2.8M414.5 153.4c-3.2 7.2-4 10.6-2.6 10.6.6 0 1.3-1.1 1.7-2.5.5-2.1 1.2-2.5 4-2.5s3.6.5 4.4 2.5c1.1 3 3.4 3.4 2.5.5-1.8-5.6-5.4-13.5-6.4-13.8-.6-.2-2.2 2.1-3.6 5.2m4.8.6c.4 1.5 0 2-1.4 2-1.8 0-2.6-2-1.2-3.3 1.1-1.2 2.1-.8 2.6 1.3M433.3 149.2c-3.3 4.3-1 9.3 3.9 8.6 2.1-.4 2.8-.1 2.6 1-.2.8-1.1 2-2 2.6-1.4.8-2.1.6-3.2-.9-1.7-2.4-3.5-1.2-2 1.3 1.6 2.5 5.7 2.6 7.9.2 2.3-2.5 2.4-10.3.2-12.5-1.9-1.8-6.1-2-7.4-.3m6.1 2.4c.7 1.9-1 4.4-3.1 4.4-1.7 0-2.7-2.4-1.9-4.5.7-2 4.2-1.9 5 .1M452 152.6c0 4 .2 4.5 1.8 3.9 3-1.2 4.4-1.1 5.5.7.9 1.4.8 2.1-.5 3.4-1.6 1.6-1.8 1.6-4.2 0-2-1.2-2.6-1.3-2.6-.3 0 3.7 5.6 4.9 8.3 1.9 3.4-3.7.8-9.2-4.2-9.2-3.5 0-1.9-2.5 1.7-2.8 4.9-.5 3.8-2.2-1.3-2.2-4.5 0-4.5 0-4.5 4.6M492 150c-2.4 2.4-2.7 8.6-.4 11.8 3.7 5.4 11.3.7 8.6-5.3-.9-2-1.9-2.5-4.7-2.5-3.3 0-3.4-.1-2.3-2 1.5-2.4 3.7-2.6 5.3-.3.8 1 1.4 1.2 1.9.5.8-1.4-2.1-4.2-4.5-4.2-1 0-2.8.9-3.9 2m6.4 7.5c.8 2.2-.4 4.5-2.4 4.5s-3.6-3.3-2.5-5c.9-1.5 4.2-1.2 4.9.5M509.5 149c-.4.6.8 1 2.9 1 4.2 0 4.3.5 1.6 8-2.4 6.5-2.3 6-.6 6 .8 0 1.8-1.4 2.1-3.3.4-1.7 1.6-4.9 2.6-6.9 1.1-2.1 1.9-4.2 1.9-4.8 0-1.3-9.7-1.3-10.5 0M549.7 149.8c-2.2 2.4-.9 3.7 1.4 1.6 2-1.8 4.9-1.2 4.9 1 0 .8-.9 1.6-2 1.8-2.2.3-2.4 2.3-.3 2.3 2 0 3.4 2 2.7 3.8-.9 2.3-4.1 2.1-5.6-.3-1.6-2.5-2.8-2.6-2.8-.2 0 2.7 2 4.2 5.6 4.2 4 0 6.9-3.3 5.4-6.1-.6-1-1-3.3-1-5.2 0-4.9-5-6.6-8.3-2.9M572.3 150.3c-3.5 3.9-6.3 8.4-5.6 9.1.3.3 2 .6 3.6.6 2 0 3 .6 3.4 2 .7 2.5 2.3 2.6 2.3.1 0-1.1.6-2.2 1.3-2.5 1-.5 1-.7 0-1.2-.8-.3-1.3-2.4-1.3-4.9 0-5.3-1-6.2-3.7-3.2m1.7 4.7c0 2-2.5 3.8-3.6 2.7-.8-.7 1.5-4.7 2.6-4.7.6 0 1 .9 1 2M588.4 150.1c-4 4.4-1.2 13.9 4.1 13.9 3.3 0 5.8-3.4 5.8-8 0-7.1-5.7-10.5-9.9-5.9m6.5 1.3c.7.8 1.1 3.1.9 5.2-.6 7.3-6.8 6.8-6.8-.5 0-5.4 3.2-7.9 5.9-4.7M610.2 149.7c-.9 1.6-5.2 13.3-5.2 14 0 .2.5.3 1 .3.6 0 1.5-1.1 2-2.5.7-1.9 1.7-2.5 4-2.5s3.3.6 4 2.5c1.2 3.2 3.4 3.4 2.5.2-1.8-5.8-5.1-13.1-6.2-13.4-.6-.2-1.6.4-2.1 1.4m3.2 3.9c.8 2-.1 3.4-2 3.4-1.5 0-1.7-.9-.8-3.4.8-2 2-2 2.8 0M468.3 156.2c.2.9 2.7 1.3 7.7 1.3s7.5-.4 7.8-1.3-1.7-1.2-7.8-1.2-8.1.3-7.7 1.2M527.3 156.2c.2.9 2.6 1.3 7.2 1.3s7-.4 7.3-1.3-1.6-1.2-7.3-1.2-7.6.3-7.2 1.2M358 279.9V292l16.8.2c9.2 0 18.1.2 19.7.3 1.7.1 13.8.3 27 .5l24 .4.3-11.6c.3-11.3.2-11.6-2-12.1-1.3-.3-21.1-.9-44-1.3l-41.8-.7zm81.3-8.2c3.8.6 3.8.6 3.5 10.2l-.3 9.6-18-.4c-9.9-.2-19.3-.5-21-.5-1.6-.1-12.1-.3-23.2-.4L360 290v-20.3l37.7.7c20.8.3 39.5.9 41.6 1.3"/><path d="M366 274c0 1.1.5 2 1 2 .6 0 1-.5 1-1 0-.6.5-1 1.1-1 .8 0 .9 1.2.4 3.7-.4 2.1-.9 5-1.2 6.5-.3 1.6-.1 2.8.4 2.8.6 0 1.3-2.1 1.7-4.8.3-2.6.9-5.9 1.2-7.5.6-2.5.4-2.7-2.5-2.7-2.4 0-3.1.4-3.1 2M378.2 273.2c-1.6 1.6-1.6 12 0 13.6 1.9 1.9 3.5 1.4 4.6-1.6 1.1-3.2-.1-7.2-2.2-7.2-2 0-2.7-1.3-1.6-3 .7-1.2 1.1-1.2 2.5 0 1.5 1.3 1.7 1.2 1.4-.5-.5-2.4-3-3-4.7-1.3m3.8 9.1c0 3-1 4-2.7 2.6-2-1.8-1.6-4.9.7-4.9 1.4 0 2 .7 2 2.3M399.2 274.5c-1.6 3.4-1.5 10.8 0 12.3 1.9 1.9 3.7 1.4 5-1.3 1.3-3-.3-7.5-2.7-7.5-.8 0-1.5-.6-1.5-1.4 0-2 1.7-2.9 2.3-1.4.2.7.8 1 1.2.6 1.1-1-.2-3.8-1.8-3.8-.8 0-1.9 1.1-2.5 2.5m3.6 8.8c.2 1.9-.1 2.7-1.2 2.7s-1.6-1-1.6-3.1c0-3.8 2.4-3.5 2.8.4M410.6 274.2c-1.6 2.2-2.2 9.2-1 12.2.9 2.4 4.3 1.9 5.6-.9.9-1.9.8-2.9-.6-5-.9-1.4-2.1-2.5-2.6-2.5-.6 0-1-.7-1-1.6 0-1.1.6-1.4 2-.9 2.3.7 2.7-.7.6-2.4-1.1-1-1.7-.7-3 1.1m3.2 9.1c.2 1.9-.1 2.7-1.2 2.7s-1.6-1-1.6-3.1c0-3.8 2.4-3.5 2.8.4M421.2 273.2c-1.5 1.5-1.6 3.8-.2 3.8.6 0 1-.5 1-1 0-.6.5-1 1-1 1.3 0 1.3 3.7 0 4.5-.6.4-.4 1.2.5 2.1.8.9 1.5 1.9 1.5 2.4 0 1.5-2.4 2.4-2.8 1.2-.5-1.7-2.2-1.5-2.2.2 0 2.4 2.8 4 4.5 2.6 2-1.7 1.6-12.6-.5-14.5-1.3-1.1-1.9-1.2-2.8-.3M387.5 280c-.4.6.9 1 3.2 1 2.8 0 3.4-.3 2.3-1-2-1.3-4.7-1.3-5.5 0M402.1 308.7c0 7.1.4 15.9.8 19.8.7 7 .7 7 13.9 24.5 7.2 9.6 13.5 17.9 14 18.5 7.3 9.1 11.2 15.1 10.6 16.4-2.8 6.8-3.3 10.3-2 13.6 1.6 3.7 5.1 6.5 8.1 6.5 7.1 0 16.5-11.8 16.5-20.7 0-4.3-4.6-9.3-8.5-9.3-3 0-7.5 2.1-9.4 4.4-2.2 2.6-3.6 1.9-8.2-4.2-2.4-3.1-4.6-5.9-4.9-6.2s-1.7-2.1-3-4-2.7-3.7-3-4-1.7-2.1-3-4-2.7-3.7-3-4-1.7-2.1-3-4c-1.4-1.9-2.8-4-3.2-4.5-5.6-7.1-9.8-13.1-10-13.9-.4-3.5-.6-7.7-.7-21.9-.1-9.7-.5-15.7-1.1-15.7s-1 4.9-.9 12.7m58.7 73.5c.7.7 1.2 3.3 1.2 5.8 0 10.6-13 22.2-18.6 16.6-2.7-2.7-1.2-11 2.9-16.9 3.8-5.5 11.6-8.4 14.5-5.5m-15.4 4.9c-1.9 2.8-3.4 5.9-3.4 6.9 0 1.1-.4 2.2-1 2.5-2.6 1.6.8-6.9 4.6-11.4s3.7-3.8-.2 2"/><path d="M453.7 384.7c-.4.3-.7 1.3-.7 2.1 0 1 .8 1.3 2.8.8 1.5-.3 2.1-.3 1.5 0-2 .9-1.5 2.4.7 2.4 2.7 0 2.5-2.5-.2-4.4-2.5-1.8-3.2-1.9-4.1-.9M445 393.9c-1.3 2.5-1.3 6.8-.1 7.6 1.4.8 3.1-2.8 3.1-6.4 0-3.5-1.4-4-3-1.2M453 397.7c-3 3.9-.8 5.6 2.4 1.8 2.3-2.7 2.6-4.5.6-4.5-.5 0-1.8 1.2-3 2.7M433.7 308.7c-.4.3-.7 5.7-.7 11.9v11.2l11.3.6c6.1.3 26.2.7 44.5.9l33.2.3v-12.2c0-12.1 0-12.1-3.7-12.8-5.1-.8-83.8-.8-84.6.1m81.6 2.3c3.7 0 3.7 0 3.7 10v10h-15.8c-8.7 0-27.4-.3-41.5-.7l-25.7-.6v-20l37.8.6c20.7.4 39.4.7 41.5.7"/><path d="M442 314c0 1.1.5 2 1 2 .6 0 1-.5 1-1 0-.6.5-1 1.1-1 1.1 0 1 2.5-.7 10.7-.4 2-.2 3.3.4 3.3.5 0 1.5-2.9 2.1-6.5s1.4-7.2 1.7-8c.5-1.2-.2-1.5-3-1.5-2.9 0-3.6.4-3.6 2M454.1 313.9c-1.2 2.2-1.4 8.3-.5 11.8.9 3.1 4.2 3 5.4-.2 1.2-3.1-.3-7.5-2.5-7.5-.8 0-1.5-.9-1.5-2 0-2.3 1-2.6 2.9-.8 1 1.1 1.2.9.9-.7-.5-2.7-3.4-3.1-4.7-.6m3.7 8.6c-.2 1.4-.7 2.6-1.3 2.6-.5 0-1.1-1.2-1.3-2.6-.2-1.8.1-2.5 1.3-2.5s1.5.7 1.3 2.5M475.2 314.5c-2.6 5.6-.9 13.5 2.8 13.5 3.8 0 4-7.8.2-9.5-2.3-1-2.9-2.9-1.3-3.9.5-.4 1.1 0 1.4.6.2.7.8 1 1.2.6 1.1-1-.2-3.8-1.8-3.8-.8 0-1.9 1.1-2.5 2.5m3.6 8.8c.2 1.9-.1 2.7-1.2 2.7s-1.6-1-1.6-3.1c0-3.8 2.4-3.5 2.8.4M486 314.6c-1.1 2.8-1.3 9.4-.4 11.8 1 2.7 5.3 2 6-1 .7-2.9-1.2-7.4-3.3-7.4-.7 0-1.3-.7-1.3-1.6 0-1.1.6-1.4 2.2-.9 1.7.6 2 .4 1.5-1-.4-.9-.7-1.9-.7-2.1s-.7-.4-1.5-.4c-.9 0-2 1.2-2.5 2.6m4 9c0 1.5-.6 2.4-1.5 2.4-1.5 0-2.1-4-.9-5.3 1.2-1.1 2.4.3 2.4 2.9M497.2 313.2c-1.5 1.5-1.6 4.8-.2 4.8.6 0 1-.7 1-1.5s.5-1.5 1-1.5c1.6 0 1.2 3.3-1 7.5-2.7 5.4-2.6 6.5 1 6.5 2.6 0 3-.4 3-2.6s-.2-2.5-1.5-1.4c-1.9 1.6-1.9.3 0-3 2.3-4.1 1.4-10-1.5-10-.3 0-1.1.5-1.8 1.2M463.7 319.6c-1.2 1.2.4 2.4 3.3 2.4 1.6 0 3.1-.4 3.4-.9 1-1.6-5.2-3-6.7-1.5M479.5 361.4c.4 14 .5 26.9.1 28.8-.5 2.4-1.5 3.7-3.9 4.9-7.1 3.4-12.5 16.3-9.5 22.6 1.9 4 7.2 6.5 10.7 5 7.2-3 13.1-11.7 13.1-19.3 0-4.6-.4-5.5-3-7.7-1.6-1.4-3.5-2.7-4.1-2.9-1.4-.5-1.7-6.2-1.8-36.1-.1-14.3-.4-20.7-1.2-20.7s-.9 7.1-.4 25.4m7.5 36.1c3.4 4-.1 15.8-6 20.8-3 2.5-8.5 3.3-10.6 1.6-3.7-3 .9-16.9 7.2-21.8 3.1-2.5 7.6-2.7 9.4-.6m-14.3 3.3c-.9.9-2.5 3.8-3.7 6.2-1.6 3.4-2 3.8-1.5 1.5.6-2.9 4.9-9.5 6.2-9.5.3 0-.1.8-1 1.8"/><path d="M476.1 404.4c-2.9 3.1-3.8 8.7-1.7 10.5 4.1 3.5 12.1-5.2 9.7-10.5-1.4-3.1-5.1-3.1-8 0m4.9 1.2c0 2.4-1.8 5.2-4.2 6.5-2 1.1-2.1.9-1.5-2 .7-3.5 2.6-6 4.5-6.1.6 0 1.2.7 1.2 1.6M524.5 351.9c-.3.2-.5 5.8-.5 12.3 0 11.8 0 11.8 3.8 11.8 2 0 21.8.3 44 .7l40.2.6v-12.2c0-8.8-.3-12.3-1.2-12.6-1.8-.6-85.8-1.2-86.3-.6m85.3 12.9.3 10.4-16.3-.6c-9-.3-27.7-.5-41.5-.6H527v-20.1l41.3.3 41.2.3z"/><path d="M533.7 355.7c-.4.3-.7 1.6-.6 2.7 0 1.2.3 1.5.6.8.2-.6 1.2-1.2 2-1.2.9 0 1.3.6 1 1.3-1.2 3.2-1.9 13-.9 12.3.6-.3 1.4-3.2 1.8-6.4.3-3.1 1-6.4 1.5-7.4.6-1.1.4-1.8-.7-2.2-2.1-.8-3.9-.8-4.7.1M566.7 356.8c-1.7 1.9-2.4 10.3-1.1 13.6.9 2.3 4.1 2 5.4-.5 1.6-2.9.8-6.3-1.7-7.4-2.3-1-3.2-4.5-1.3-4.5.6 0 1 .4 1 1 0 .5.5 1 1 1 1.5 0 1.2-2.6-.3-3.9-1.1-.8-1.8-.7-3 .7m2.8 10c0 3.1-1.9 2.8-2.3-.4-.3-1.8 0-2.5 1-2.2.7.3 1.3 1.4 1.3 2.6M544.7 356.7c-.4.3-.7 3.7-.7 7.4 0 5.2.3 6.8 1.6 7.3 2.5 1 4.4-1.2 4.4-5 0-2.5-.6-3.6-2.5-4.6-1.8-1-2.2-1.7-1.5-2.8.8-1.2 1.1-1.3 1.9-.1 1 1.6 2.6-.3 1.6-1.9-.7-1.1-3.8-1.3-4.8-.3m3.3 9.7c0 3-1.5 4.2-2.4 2-1-2.7-.7-4.4.9-4.4.9 0 1.5.9 1.5 2.4M577.2 357.2c-1.4 1.8-2.1 9.8-1 12.6.6 1.7 1.4 2.2 3.1 2 3.2-.4 3.8-7.1.8-9-1.2-.7-2.1-2.1-2.1-3 0-2.1 1.6-2.4 2.3-.6.2.7.8 1 1.2.6.8-.8-1.2-3.8-2.5-3.8-.4 0-1.2.6-1.8 1.2m2.8 9.8c0 1.6-.4 3-.9 3-1 0-2.1-4.7-1.3-5.5 1.3-1.3 2.2-.3 2.2 2.5M588.9 356c0 .3-.1 4-.2 8.3-.2 6.3.1 7.7 1.3 7.7s1.4-1.3 1.2-7.2c-.2-4-.8-7.7-1.3-8.3-.5-.5-.9-.7-1-.5M554 364c0 .5 1.6 1 3.6 1 2.1 0 3.3-.4 2.9-1-.3-.6-1.9-1-3.6-1-1.6 0-2.9.4-2.9 1M565.8 400.6c-.3 19.1-.5 21.7-2.1 22.9-.9.6-1.7 1.6-1.7 2.1s-1.3 1.5-3 2.1c-2 .8-3 1.8-3 3.2 0 1.2-.6 2.1-1.4 2.1s-2.3 1.1-3.4 2.5-2.3 2.5-2.6 2.5c-.4 0-3.4-1.7-6.9-3.8-3.4-2.1-11.4-6.4-17.7-9.6-6.3-3.3-13.3-7-15.4-8.4-6.7-4.2-9.9-3.2-13.1 3.8-2.3 5-2 5.4 10.4 12.7 5.3 3.1 9.8 6 10.1 6.3.6.7 6.5 4.2 14 8.3 9.1 5 11.1 7.8 7.4 10.8-.9.7-1.3 2.1-1 3.5.4 1.3 0 2.7-.9 3.4-1.8 1.5-2 4.6-.2 5.3.9.4.9.8-.2 1.5-1.4 1-2.3 9.9-1.1 10.7.4.3.5 1.6.2 3-.2 1.5 0 2.5.7 2.5.6 0 1.1 1 1.1 2.3 0 2.4 4.7 7.7 6.8 7.7.7 0 1.2.3 1.2.7 0 .5 1 1.3 2.3 1.8 1.2.6 4 2 6.2 3.2 8.5 4.4 9.2 4.6 15 3.8 3.7-.4 6-1.2 6.7-2.4s1.9-1.6 3.4-1.3c1.9.3 2.4 0 2.4-1.6s.7-2.1 3.3-2.4c2.7-.3 3.2-.6 2.9-2.6s0-2.3 1.6-1.8c2.1.7 4.7-1.6 4.7-4.2 0-.9 1.1-1.9 2.5-2.2 1.8-.4 2.6-1.4 2.8-3.2.2-1.6 1.1-2.8 2.4-3.1 1.6-.5 1.9-1.2 1.6-3.1-.4-1.8 0-2.6 1.3-2.9 2.5-.7 3.6-3.7 1.8-4.7-.7-.5-1.1-1-.9-1.2.3-.2 1.4-.8 2.5-1.4 2-1.2 2.3-2.5 1-5.7-.5-1.2-.2-1.7.9-1.7 2.3 0 3.1-2.7 1.5-4.6-1.1-1.4-1.1-1.8.4-2.9 1.9-1.4 2.3-4.1.6-4.7-.8-.3-.8-1 .2-2.6 1.2-1.9 1.2-2.4 0-3.1-.7-.5-1-1.4-.6-2.1.8-1.3-.7-4.8-4.3-9.7-5.8-7.9-26.5-16.8-30.8-13.2-.9.7-3.2 1.4-5 1.5l-3.4.1.6-20.9c.5-14.2.4-20.8-.3-20.8s-1.2 7.5-1.5 21.6m-65.7 18.3c-1.2 1.6-2.1 3.4-2.1 4s-.4 1.1-1 1.1c-1.6 0-1.1-2.6 1.1-5.4 2.8-3.6 4.5-3.3 2 .3m2.2 3.1c-1.5 2.2-2.9 3.7-3.2 3.5-.9-.9 3.1-7.5 4.5-7.5.8 0 .3 1.4-1.3 4m5.7-2.2c0 .5-.9 1.7-2 2.7s-2 2.6-2 3.7c0 1-.4 1.8-1 1.8-1.7 0-1.1-3.6 1.1-6.4 2-2.6 3.9-3.4 3.9-1.8m2.2 3.9c-1.1 1.5-2.1 3.7-2.3 4.7-.6 2.8-2.5 1.5-2.1-1.4.3-2.4 4.9-7.6 5.9-6.6.3.3-.4 1.7-1.5 3.3m72.2-.2c3.9 2.5 5.4 4 4.9 5.1-.5 1.3-.8 1.2-2.7-.4-1.1-1.1-3.6-2.7-5.3-3.6-1.8-.9-3.3-2.3-3.3-3.1 0-2 .2-2 6.4 2m10.1 2.5c.4.6.5 1.4.2 1.6-.6.7-10.6-5.8-10.6-6.9-.1-1 9.6 3.9 10.4 5.3m-74.5 0c1.4 1.1 2.1 2 1.7 2-1.1 0-6.7-2.9-6.7-3.5 0-1.1 2.7-.3 5 1.5m58 .9c2.5 1.5 4.7 3.5 4.8 4.5.3 1.6-.1 1.4-3-.8-1.9-1.4-3.9-2.6-4.5-2.6-.5 0-1.8-.9-2.8-2-2.6-2.9 0-2.5 5.5.9m-61.5.7c3.7 2.4 3 3.6-1 1.7-1.9-.9-3.5-2-3.5-2.5 0-1.3 1.9-.9 4.5.8m56.2 3.1c4.5 2.5 5.8 3.8 4.4 4.7-1.1.7-13.2-6.4-12.5-7.5.5-.9 2-.4 8.1 2.8m-39.5-.2c2.4 1.4 6.7 3.8 9.6 5.2 4.7 2.4 5.2 3.1 5.2 6 0 2.2-.6 3.6-2 4.3-1.1.6-2 2-2 3 0 1.1-.4 2-.9 2-1.3 0-20.2-10.8-22.3-12.7-2.3-2-2.2-3.1.2-7.1 2.5-4 6.2-4.3 12.2-.7m65 1.5c.6 0 1.7-.8 2.4-1.8 1.2-1.5 1.3-1.4 1.4 1 0 1.6.5 2.8 1 2.8 1.6 0 4.7 3.5 4.2 4.8-.2.7.4 1.2 1.2 1.2 1.2 0 1.5.6 1 2.4-.3 1.3-.1 2.7.6 3.1.8.5.8 1.1-.1 2.1-.9 1.1-.8 1.8.5 3.3 1.5 1.6 1.5 1.9.1 2.4-1.8.7-2 4.4-.3 4.9.8.3.4 1.2-1 2.6-2.4 2.4-2.9 5.2-.9 5.2.6 0-.1 1.1-1.8 2.4-2.4 2-2.8 2.7-1.7 3.7 1.7 1.8 1.5 2.9-.7 2.9-2.1 0-3.3 2.2-2.5 4.4.3.8-.3 1.6-1.5 1.9q-2.1.45-2.1 3c0 1.9-.6 2.6-2.2 2.9-1.5.2-2.6 1.3-3.3 3.4-.6 1.8-1.5 2.9-2.3 2.6-1.8-.6-4.2 1.7-3.5 3.5.4 1.1 0 1.4-1.8 1.1-1.6-.2-2.7.4-3.5 2-.7 1.5-1.4 2-1.8 1.3-1.2-1.9-2.6-1.2-3.7 1.6-.9 2.5-1.2 2.6-2 1-1.4-2.3-2.6-2.1-3.5.5-.7 2.3-.7 2.3-1.7 0-1.1-2.4-2.2-2.8-3.3-1.1-.4.8-.9.7-1.5-.2-.7-1.2-1.2-1.2-3-.1-1.9 1.2-2.1 1.2-1.5-.3.9-2.5-.3-3.8-2.2-2.3-1.3 1.1-1.5 1-.9-1.2.3-1.5 0-3.3-.9-4.4-.8-1.1-1.4-3-1.4-4.3 0-1.7-.6-2.3-2.1-2.3-2.1 0-2.1 0 .2-2 2.3-1.9 2.3-2 .5-3.1-1.9-1.2-1.9-1.2 0-2.6 1.5-1.1 1.7-1.7.6-3.3-1.5-2.5-1.5-3 .2-3 1.8 0 3-3 1.6-4.4-1.5-1.5-1.2-2.3 1-2.9 1.7-.4 1.9-1.1 1.4-3.1s-.2-2.6 1-2.6c1.1 0 1.6-.9 1.6-3.2 0-1.7.3-2.8.7-2.5 1.3 1.3 3.3-1.5 2.7-3.8-.5-1.9-.1-2.4 1.8-2.7 1.7-.2 2.3-.9 2.3-2.8s.6-2.5 2.3-2.6c2.9-.2 3.7-1 3.7-3.7 0-1.7.5-2.1 2.3-1.9 1.7.3 2.5-.2 2.9-1.7.4-1.6 1.1-1.9 2.9-1.5 1.9.5 2.4.2 2.4-1.4 0-1.2.5-2.4 1-2.7.6-.3 1-.1 1 .4 0 1.8 3.7 1.3 4.4-.6.6-1.5.8-1.4 2 .2 1.3 1.8 1.4 1.7 2.7-.6 1.4-2.4 1.4-2.4 1.7-.2.2 1.3.8 2.3 1.4 2.3m1.5-3.3c-.4.3-1 .3-1.4 0-.3-.4 0-.7.7-.7s1 .3.7.7m-36.7 1.8c0 .3-.2.5-.5.5s-.5-.2-.5-.5.2-.5.5-.5.5.2.5.5m2 1c0 .3-.2.5-.5.5s-.5-.2-.5-.5.2-.5.5-.5.5.2.5.5m-.7 2.4c6.4 3.6 7.7 4.6 7.7 5.8 0 .7-.5 1.3-1.1 1.3-.8 0-6.6-2.9-11.1-5.6-.7-.4 0-3.4.8-3.4.2 0 1.9.9 3.7 1.9m7.2 1.1c.3.5.2 1-.4 1-.5 0-1.3-.5-1.6-1-.3-.6-.2-1 .4-1 .5 0 1.3.4 1.6 1m-10.8 3.1c4 2.2 6.2 3.9 5 3.9-1 0-10.7-5.1-10.7-5.6 0-.9 2.2-.3 5.7 1.7m-.3 3.7c2.7 1.5 5.1 3.3 5.4 3.9.5 1.8-3.3 1.6-4.8-.2-.7-.8-1.8-1.5-2.4-1.5-1.9 0-5.7-3.1-5.1-4.1.9-1.3 1.5-1.2 6.9 1.9m-5.7 2.3c6.4 3.5 7.2 5.2 1.1 2.3-3.2-1.6-5.8-3.2-5.8-3.6 0-1.2.5-1 4.7 1.3m.6 4c5.3 2.7 6.8 3.9 6.2 5-.5.7-9.7-4-11.9-6.2-1.8-1.6 1.3-1 5.7 1.2m-3.3 2.5c6.8 3.6 6.4 5-.5 1.7-3-1.5-5.5-3.1-5.5-3.5 0-1.2.6-1 6 1.8m.3 4.1c6.2 3.2 6.2 3.2 5.5 3.8-.7.8-11.8-4.7-11.8-5.7 0-1.2.6-1 6.3 1.9m-6.8.3c.3.5.2 1-.4 1-.5 0-1.3-.5-1.6-1-.3-.6-.2-1 .4-1 .5 0 1.3.4 1.6 1m9.5 9c0 1.6-1.8 1.2-7.5-2.1-3-1.7-5.3-3.5-4.9-4 .6-1.1 12.4 4.7 12.4 6.1m-4-5.5c0 .3-.2.5-.5.5s-.5-.2-.5-.5.2-.5.5-.5.5.2.5.5m-6.7 3.1c.9.4 1.7 1.1 1.7 1.6s-.6.7-1.2.4c-.7-.3-2.1-.9-3-1.2-1-.4-1.8-1.1-1.8-1.6s.6-.7 1.3-.4c.6.3 2 .9 3 1.2m9.2 9.4c1 1.7-2.2 1.1-6.2-1.1-5.6-3.2-7.4-4.5-6.7-5.2s11.9 4.8 12.9 6.3m-3.1-5.5c1.1.8 1.5 1.5 1 1.5-.6 0-1.9-.7-3-1.5-1-.8-1.4-1.4-.9-1.4.6 0 1.9.6 2.9 1.4m-6.2 4.6c2.7 1.7 4.7 3.4 4.4 3.6-.6.6-10.6-5-10.6-6 0-1.2 1.2-.8 6.2 2.4m-.4 3.7c1.5 1 4 2.4 5.5 3.2 2.2 1.1 2.5 1.5 1.3 2.2-2 1.1-11.6-4.1-11.6-6.3 0-1.4 2-1 4.8.9m-4.8 5.7c0 .3-.2.5-.5.5s-.5-.2-.5-.5.2-.5.5-.5.5.2.5.5m3.5 1.5c.3.6-.1.7-.9.4-1.8-.7-2.1-1.4-.7-1.4.6 0 1.3.4 1.6 1m6 3.8c-.3.3-1.1 0-1.8-.7-.9-1-.8-1.1.6-.5 1 .3 1.5.9 1.2 1.2m-3.1 2.9c6.5 3.5 6.3 3.3 4.6 4.3-1 .6-2.3.4-4-.7-1.4-.9-3.7-2.3-5.2-3.1-2.8-1.4-3.8-3.2-1.7-3.2.6 0 3.4 1.2 6.3 2.7m4.6 8.9c0 1-1 .8-3.7-.7-7.9-4.4-8.9-6.9-1.3-3.1 2.8 1.3 5 3.1 5 3.8m3.7.1c-.4.3-1 .3-1.4 0-.3-.4 0-.7.7-.7s1 .3.7.7m.3 2.8c0 .3-.2.5-.5.5s-.5-.2-.5-.5.2-.5.5-.5.5.2.5.5"/><path d="M591.1 444c-3.1 5.5-3.7 6-6.9 6-3.6 0-8 2.6-12.2 7.3-2.6 2.9-2.7 2.9-5.8 1.3-1.7-.9-3.3-1.6-3.6-1.6-1.3 0-5.7 10.6-7.1 16.8-1.9 9.4.4 18.5 5.6 21.2 1.5.9 2.3.1 5.2-4.7 2.4-4.2 4-5.9 5.8-6.1 1.3-.2 3.1-.6 3.9-.9.8-.4 3.6-.7 6.2-.8 3.8 0 5.3-.6 8-3.1 1.8-1.7 4.1-3.4 5.1-3.7.9-.4 2-1.5 2.3-2.4.3-1 .9-2.7 1.4-3.8 2.9-7.1 3.4-9.6 3.4-15.5 0-3.6-.6-7.6-1.3-9-1.5-2.8-5.1-7-6-7-.3 0-2.1 2.7-4 6m6.8-.8c1.2 1.2 2.4 3.7 2.7 5.5 1.1 6-1.1 17.9-4.3 22.8-1.2 1.8-1.3 1.7-.7-1.2 1.1-5.3-.2-7.7-5.6-11.1-6.6-4.1-9.8-4.1-14.1 0-4.7 4.5-5.9 7.1-5.9 12.2 0 3.8.4 4.8 3 6.6 3.9 2.8 3.9 4.4 0 3.6-3.2-.6-3.1-.7-9.6 10-1.1 1.8-1.2 1.8-3.2.1-4.7-4.2-4.7-17.4-.1-27.3 2.1-4.3 4.9-5.8 6.4-3.4 1.3 2 3.8.9 8.4-3.9 4.1-4.2 5.5-5 9.2-5.3 4.1-.3 4.5-.6 7.3-5.6 1.7-2.8 3.3-5.2 3.8-5.2.4 0 1.6 1 2.7 2.2m-11.5 16.1c1.6 1.1 1.5 1.4-1.3 3.5-3.5 2.6-7.1 9-7.1 12.7 0 3-1.8 3.2-4.8.5-2.6-2.4-2.8-4.7-.7-9.7 2.9-6.9 9.5-10.2 13.9-7m6.4 3.9c1.5 1.5 1.5 7.3 0 10.1-.6 1.2-2.5 3.5-4.1 5-3.3 3-7.3 3.3-8.9.7-1.7-2.6.9-9.6 4.9-13.5 3.8-3.7 6.1-4.3 8.1-2.3"/><path d="M585.4 468.5c-3.4 3.4-3 8 .5 8 3.6 0 6.7-5.5 4.9-8.4-1.7-2.7-2.4-2.6-5.4.4m4.2.6c1 1.7-1.7 5.9-3.8 5.9-2.2 0-2.3-1.8-.2-4.8 1.7-2.4 2.9-2.8 4-1.1M568 529.1c0 .4 1.4 3.1 3 5.9 4 6.8 12.6 24.8 15.7 33 5.1 13.4 7.3 21.1 10.4 37 1.7 8.3 1.6 34.7 0 42.5-3.1 14.9-8.9 30.2-14.2 37.6-1.7 2.4-2.2 2.6-4.4 1.6-2.1-1-2.5-1.9-2.5-6 0-3.6-.4-4.7-1.6-4.7-.8 0-7.7 3.1-15.2 6.9-25.2 12.7-24.5 12.3-25.5 16.3l-.9 3.7-2.9-3.3c-5.1-5.8-3.8-8.1 7.8-14 5.6-2.8 7.6-5.6 8.6-12 .6-3.9 3.1-7.6 5.1-7.6.6 0 3.1 1.8 5.5 4s4.7 3.8 5 3.4c.3-.3-1.4-2.3-3.8-4.4-3.8-3.3-4.3-4.1-3.2-5.4 1.9-2.3 5.8-2 10.8 1 4.7 2.7 4.7 3.6.1 6-1.6.8-2.8 1.8-2.5 2 .3.3 2.5-.5 4.9-1.7 4.3-2.3 12.5-4.1 18.5-4.2 1.8 0 3.2-.2 3-.3-.2-.2-3.7-2.1-7.9-4.3-7.3-3.8-7.6-3.9-11.5-2.6-3.6 1.2-10.9 1.2-12.2 0-.7-.8 3.2-4.6 6.4-6.1s3.3-1.6-3 3c-1.1.8-1.7 1.7-1.3 2.1s2.2-.5 4.1-1.9 3.9-2.6 4.5-2.6c.7 0 1.2-.5 1.2-1 0-.6-.4-1-1-1-.5 0-1-.6-1-1.3s-.9-1.3-2-1.3-2 .4-2 .8c0 .5-1.6 2.3-3.6 4-2 1.8-4 4.1-4.4 5.3-.8 2.2-11.5 8.5-14.3 8.5-.9 0-4.1-1.4-7.1-3-3.1-1.7-8.1-4.4-11.2-6-6.1-3.3-9.5-3.8-11.4-1.5-1 1.2-.7 1.3 2.3.8 3.5-.5 4.8 0 18 7.2 7.7 4.2 7.7 4.7 0 8.6-2.7 1.3-8.1 4.3-12.1 6.6l-7.2 4.2-4.5-3.1c-2.5-1.8-4.5-3.5-4.5-3.8 0-.4 1.8-1.5 4-2.5 5.6-2.5 6.5-3.9 3.6-5.3-1.4-.6-2.6-2.1-2.9-3.4-.4-2.2-.4-2.2-.6.2 0 1.5.4 3.1 1.1 3.8 1.8 1.8.1 2.7-2.9 1.6-2.8-1-2.8-1.1-6.7-9.1-2.7-5.8-2.6-6.2 3.3-7.4 20.4-4.1 27.8-6.1 31.2-8.5 2.1-1.4 6.7-3.2 10.4-4.1 6.5-1.5 6.7-1.5 8.1.6 1.5 2.1 5.4 2.9 5.4 1.1 0-.6-.9-1-2-1-2.1 0-2.8-2.4-1-3.5s1.1-3.2-1.6-5c-2.4-1.6-3.4-1.6-10.1-.4-7 1.3-8.5 1.9-14.5 6.1-1.3 1-4.4 2.2-6.9 2.7-2.4.5-11.1 2.3-19.2 4-11.4 2.4-16.1 2.9-20.7 2.4-3.3-.3-8.6-.1-11.7.5-3.2.6-8.9 1.6-12.8 2.3-3.8.6-7.7 1.7-8.5 2.4-3.1 2.6-7.8 4.4-15.5 6-4.4.9-10 2.1-12.4 2.7-3.3.8-5.2.8-7.8-.1-4.4-1.6-8.7 0-10.1 3.7-.5 1.5-1.6 4.5-2.4 6.6-1.8 5.4-3.8 5.8-3.8.8 0-5.2-3.1-9.2-7.1-9.2-3.5 0-5.2 3.2-6.3 11.5-.7 5-.7 5 8.9 14.5 5.3 5.2 11.1 11.5 12.8 14 7.5 10.8 19.1 21.9 31.9 30.3 4.7 3.2 9.3 6.8 10.1 8 2.1 3.2 12.9 13.7 14.1 13.7.5 0-2.1-3.1-5.8-6.9-3.8-3.7-7.3-7.6-7.8-8.5s-5.4-4.6-10.9-8.2c-12.1-8.1-24.4-19.7-30.3-28.8-1-1.6-4.4-5.5-7.5-8.5-3.1-3.1-7.9-8-10.5-10.8-4.9-5.3-4.9-5.3-3.6-10 2.5-10.1 3.6-11 8.5-7.2 2.2 1.8 2.6 2.8 2.2 5.3-.6 3.8.8 6.6 3.1 6.6 1.3 0 2.2-1.7 3.6-7.1 1.2-4.6 2.4-7.2 3.4-7.5s2.4-.9 3.3-1.4c1.1-.6 3.2.1 6.7 2.1 5.9 3.3 6.8 4.4 4.6 5.3-1 .4-3.9-.6-7-2.4-6.5-3.7-7.2-2.6-.8 1.2 5.1 3.1 7.9 3.5 10 1.4 1.2-1.3 1-1.7-1.3-3.5-1.4-1.2-2.4-2.4-2.1-2.6.3-.3 5.4-1.6 11.4-2.8 6.1-1.3 12.6-3.2 14.4-4.2 1.9-.9 4.7-2.4 6.3-3.2 6.5-3.4 29.1-5 39.1-2.7 2 .5 2.7.3 2.2-.4-.7-1.2.6-1.7 7.9-3.2 22.3-4.5 27.6-6 31.2-8.8 2.1-1.7 5.4-3.3 7.3-3.6 8.5-1.6 10.1-1.8 12.5-1.2 3.5.9 3.1 3.2-.7 4-10.7 2-13.4 2.8-16.2 4.9-3 2.3-5.3 3-18.6 6.1-18.1 4.2-21.6 4.8-25.6 4.3-6.2-.7-5.5 1 .8 2 5.2.8 5.2.8 7.5 6.8 1.3 3.3 3.5 7 4.9 8.2 2.5 2.3 2.5 2.3.1 3.4-2.6 1.2-3.4.9-12.2-4.6-7.5-4.7-11.8-5.3-14.3-2.2-.5.7-1.3 7.5-1.7 15.1s-.9 14.5-1.2 15.2c-.3.8 0 1.4.6 1.4.7 0 1.1-2.4 1.1-6.3 0-6.6.5-8 3.3-9 2.2-.8 2.2-2.3-.3-4.4-1.4-1.3-2-3-2-6.1 0-5.4 1.9-6.3 7.1-3.5 2.5 1.3 3.9 1.7 4.2 1 .4-1.2 14.4 6.8 22.4 12.8 2.6 2 6.2 4.6 7.8 5.8 5 3.6 12.6 11.8 16.2 17.5 3.5 5.4 5 8.6 8.5 17.7 1.7 4.6 1.8 4.7 1.3 1.2-.7-4.3-.2-4.4 4.3-1.7 2.4 1.5 3.2 2.7 3.2 4.7 0 2.2-.3 2.5-1 1.3s-1.5-1.3-3.8-.4c-1.9.8-3.5.8-4.7.2-1.2-.7-2.7-.5-5.1.8-4 2.2-4.2 2-7.4-6.1-3.4-8.4-6-12.8-11.6-19.3-2.7-3.1-4.8-6.2-4.6-6.8.3-1.6-7-6.4-13.1-8.5-5.2-1.8-5.2-1.8-1.5-1.9 3 0 8.9 2.1 16.1 5.8.4.2.7 0 .7-.5 0-1.1-5.5-4.4-10-6-6.5-2.3-13.9-1.2-20.5 3.1-11.9 7.8-12.8 27.4-2.2 48.1 4 7.6 10.4 16.1 15.2 20 4.6 3.7 13.4 8.4 15.8 8.5 2.1 0 2.3 3.8.4 6.4-1.3 1.8-1.7 1.7-7.3-1.4-3.2-1.7-6.3-3.5-6.9-4-2.9-2.2-12.5-6.8-12.5-6 0 .5 1.5 1.7 3.3 2.7 3.2 1.8 3.2 1.8-2 2.1-3.6.2-6.4-.3-9.7-1.8-6.3-3-7.2-4.4-5.2-7.4 3.3-5.2 5.5-9.6 4.7-9.6-1.1 0-7.1 11.3-7.1 13.3 0 .8-.6 1.7-1.2 2-2.6.8 7.5 8.5 13.3 10.1 7.1 2 7.4 2 12.7-.6 4.5-2.1 4.5-2.1 9.6.7 2.7 1.6 6.4 4.2 8.1 5.9s5.6 4.4 8.7 6l5.6 2.9 3.8-3.1c3.5-2.9 4.5-3.2 10.6-3.2 10.7 0 18.5-3.7 30.2-14.2 4.1-3.6 4.1-3.6 6.5-1.7 1.3 1 2.8 1.9 3.5 1.9.6-.1-.2-1.2-1.9-2.6l-3-2.5 2.9-2.5c2.6-2.3 3.6-2.5 9.5-2.3 9.9.5 11.5-1.7 6.1-8.1-2.6-2.9-3-4.3-3-9 0-3.1.4-6 .8-6.6 1.6-1.8 3.2-9.2 3.6-17 .5-7.4.4-7.6-.3-1.9-.9 6-1.5 8.9-4.5 20-1.5 5.5-1.5 6.4 0 11.1 2.2 7.1 1.1 9-5.6 9.6-4.6.5-5.6 1.1-12.3 7.5-3.9 3.8-9.3 8.3-11.8 10-5.9 4-14.7 6.6-20.7 6-4.1-.3-5.4.1-9.9 3.1-5.1 3.4-5.1 3.4-10 .8-8.9-4.9-8.8-4.9-7.1-10.3 1.4-4.5 1.8-4.8 5.9-5.7 3.9-.7 5.2-.4 11.7 2.7 6.5 3.2 7.6 3.4 10.8 2.4 4.3-1.3 5.4-3.7 4.1-8.9-1.3-5.1-.2-10 2.8-12.6 1.6-1.4 2.5-3.2 2.5-5.2 0-3.5.8-3.7 5.2-1 1.8 1.1 4.5 2 5.9 2 3.3 0 7.5-3.9 9.5-8.6 2-4.9.7-8.1-4.9-11.5-5.3-3.4-7.8-4.1-9.7-2.9-1.1.7-.8 1 1.6 1 1.9 0 4.1 1 5.7 2.4 1.5 1.4 3.4 2.6 4.4 2.8 1.3.2 1.9 1.4 2.1 4.4.2 3.4-.2 4.6-2.7 7.2-3.8 4.2-9.1 4.6-9.1.8 0-1.4-.4-2.8-1-3.1-.5-.3-1 .3-1 1.4 0 2.4-.1 2.5-3.4.9-1.4-.6-2.8-1.9-3.1-3-.4-1-1.1-1.8-1.6-1.8-1.2 0-1.1.7.2 3.2 1.2 2.3 1.6 2.5-6.8-2.9-2.9-1.9-5.3-4-5.3-4.8 0-1.7.9-1.9 3-.5.9.5 1.9.5 2.6-.1.6-.5 2.7-.8 4.5-.7 2.9.3 3.4 0 3.7-2 .4-2.9-1.6-5.3-7.1-8.1-2.7-1.4-4.8-3.4-5.7-5.4-.7-1.8-2.6-5.3-4.2-8-2-3.4-2.4-4.7-1.3-4.7 1.8 0 8.5 3.9 8.5 5 0 .4.9.6 2 .3s2-1.2 2-1.9c0-.8.7-1.4 1.5-1.4s2-.9 2.7-2 2.1-2 3-2c1 0 1.8-.3 1.8-.8 0-1.1 5-3.1 6.4-2.6.7.3 1.8-.2 2.5-1 .6-.7 2.1-1.2 3.1-.9 1.2.3 2.2-.1 2.6-1.1.3-.9 1-1.6 1.5-1.6 2 0 .6 2.4-3.8 6.5-2.7 2.5-4.3 4.5-3.7 4.5 1.4 0 12.5-11.3 17.3-17.8 5.6-7.4 10.2-17.1 13.8-28.7 4.6-14.9 5.7-22.5 5.7-39-.1-17.5-1.7-27.5-8.5-50-4-13.4-14.2-38.7-16.3-40.4-1.6-1.2-9.6-2.1-9.6-1m10.4 133c2 1.2 3.6 2.4 3.6 2.9 0 1.6-9.3 1.8-12.7.2-1.8-.9-3.3-1.8-3.3-2.2 0-.6 5.4-2.6 7.7-2.9.6 0 2.8.8 4.7 2m-90.8 9.6c-.6.6-4.6-2-4.6-3 0-.4 1.1 0 2.5.9s2.4 1.9 2.1 2.1m58-.5c-.4 1.3-.9 3.8-1.3 5.5-.6 3.6-1.1 4.2-6.8 7.3-2.2 1.2-5.7 3.1-7.7 4.3-2.2 1.2-3.8 2.8-3.8 3.9 0 2.4-.5 2.3-5.6-1.4-5-3.5-5.4-5.1-2.1-7.3 3.8-2.4 26.1-14.4 27.1-14.5.4 0 .5 1 .2 2.2m29.2 10c-.2 2.7-.7 3.2-2.3 3-1.1-.2-2.7-1-3.5-1.8-1.2-1.2-1.2-1.6.5-2.9 1.1-.8 2.8-1.5 3.8-1.5 1.5 0 1.8.7 1.5 3.2m-95.3 1.8c.3.5.1 1-.4 1-.6 0-1.1-.5-1.1-1 0-.6.2-1 .4-1 .3 0 .8.4 1.1 1m91 2c2.8 1.6 6 3 7.3 3 1.2 0 2.2.2 2.2.5 0 1.1-3.3 5.5-4.1 5.5-.4 0-3.1-1.4-5.9-3-3.4-2-6.7-3.1-9.6-3.2-2.4-.1-4.4-.5-4.4-.8 0-.6 7.8-4.8 9-4.9.3 0 2.8 1.3 5.5 2.9m-11.3 6.4c5.7 3.1 8 5.6 5.3 5.6-1.9.1-13.5-7.2-12.9-8.1.7-1.2.5-1.3 7.6 2.5m4.3-.4c.3.5.1 1-.4 1-.6 0-1.1-.5-1.1-1 0-.6.2-1 .4-1 .3 0 .8.4 1.1 1m-9.1 2.8c2.7 1.5 5.1 3.3 5.4 3.9.5 1.7-1.3 1.7-3 0-.7-.6-3-2.1-5-3.2-2.1-1.1-3.8-2.3-3.8-2.7 0-1.3 1.2-.9 6.4 2m-55-.9c1.1.4-.8.7-4.8.7-6.2 0-6.8.2-10.1 3.4-3.5 3.4-6.5 10.7-6.5 15.7 0 4.1 1.6 1.7 1.9-2.8.1-2.4 1.1-6 2.3-8 5.7-10.1 19.4-9 31.6 2.5 3.9 3.7 12.2 14.6 12.2 16.1 0 .3.8 2.4 1.9 4.8 1 2.3 2.4 5.7 3.1 7.5 1.2 3 1.5 3.2 4.6 2.6 2.2-.4 3.4-.2 3.4.5 0 .6 3.2 3.2 7 5.7 7.9 5.1 8.5 6.7 3.9 10.8-3.1 2.8-3.1 2.8-2.7 11.3.4 7.8.3 8.4-1.4 8-1-.3-1.8-.2-1.8.3 0 2.1-3.7 1.7-9.5-1.2l-6.4-3.2 3-3.3c1.6-1.9 2.9-3.9 2.9-4.6-.1-.7-1.2.1-2.6 1.8-2.5 3-2.5 3-.3-2 3.9-9 4.4-9.8 7.8-11.6 3.7-2 6-3.9 4.7-3.9-.5 0-3 1.2-5.7 2.6-3.7 2.1-4.9 3.4-5.5 5.8-2.6 12.4-12.7 16.5-25.1 10.4-2.3-1.1-5.1-2.9-6.2-3.9-1.1-1.1-2.7-1.9-3.5-1.9-1.8 0-10.7-11.8-14.1-18.6-4.4-9-5.9-15.3-5.9-24.9 0-10.9 2.4-16.3 8.9-20.2 2.2-1.3 10-1.6 12.9-.4m56 6.1c.4.5.5 1.3.1 1.9-.5 1-6.1-1.5-12.8-5.6-.4-.3-.3-1.1.3-1.8.9-1.1 2.1-.8 6.3 1.7 2.9 1.6 5.6 3.4 6.1 3.8m13.9-5.6c.9.7 1.7 1.6 1.7 2 0 1.2-2.1.6-4.2-1.4-2.5-2.3-.5-2.8 2.5-.6m-66.3 1.1c0 .3-.2.5-.5.5s-.5-.2-.5-.5.2-.5.5-.5.5.2.5.5m40.2 3c2 1.4 4.1 2.5 4.6 2.5s1.5.7 2.2 1.5c2.5 3-.2 2.8-6.5-.5-3.6-1.8-6.8-3-7.1-2.7s1.7 1.7 4.4 3.1c5.4 2.7 6.7 4 5.7 5.6-.3.5-2.9-.2-6-1.7-5.9-2.9-7.1-5.6-3.9-8.7 2-2.1 2.3-2 6.6.9m55.4 58.6c.9 1.5-1.1 3.3-3 2.6-.9-.4-1.3-1.3-1-2.2.7-1.7 3-2 4-.4m-124.4 9.7c.2.4 2.5 1.8 5.1 3 4.4 2.1 8.8 2.6 15.6 1.9 3.8-.3 3.6 2-.3 3.3-5.2 1.7-13.4-.3-18.5-4.3-2.2-1.8-4-3.5-4-4-.1-1 1.6-.9 2.1.1"/><path d="M500.5 711.5c-2.1 2-2.5 3.4-2.5 8 0 9.4 6.2 19.5 14.4 23.5 5.2 2.5 8.7 2 11.6-1.7 2.4-3.1 2.9-11.9.6-11-.9.4-1.9-.9-3.1-3.9-.9-2.4-2.2-4.4-3-4.4-2.2 0-4-2.9-2.7-4.2 1.7-1.7 1.5-2.8-.6-2.8-1 0-2.9-1.4-4.4-3-3.2-3.7-7-3.9-10.3-.5m2.7 1.5c-2.7 2.5-3.9 6.7-2.3 8.3.8.8 1.1.3 1.1-1.9 0-1.8.8-3.8 2-4.9 2.9-2.6 7.1-.6 9.4 4.5.9 2.1 2.6 4.2 3.7 4.5 2.7.9 4.9 5.6 4.9 10.8 0 6-1.8 7.5-6.7 5.8-2.6-1-3.7-1-4.2-.2-.9 1.4-6.1-4-9.2-9.4-4-7.3-2.9-19.5 1.9-19.5 1.2 0 1.1.4-.6 2M618.7 593.7c-.4.3-.7 1.5-.7 2.5 0 1.7.1 1.7 2-.2 1.1-1.1 2-2.2 2-2.5 0-.7-2.6-.6-3.3.2M626.4 597.5c2.6 1.9 4.2 1.9 2.6 0-.7-.8-2-1.5-2.9-1.5-1.3.1-1.3.3.3 1.5M695.7 599.7c-.3.5-.7 6-.8 12.3l-.3 11.5 6 .2c3.2.1 15.8.7 27.9 1.2 12.1.6 29.2 1.2 38 1.3l16 .3.3-11.8c.2-8.9 0-11.8-1-12.1-1.3-.5-17.1-1.1-50.3-2.1-9.9-.3-21.9-.8-26.7-1-4.7-.3-8.9-.2-9.1.2m28.3 2.8c39.7 1.1 55.5 1.8 56.1 2.4.3.3.3 4.9.1 10.2l-.4 9.7-12.1-.4c-44-1.4-69.3-2.6-69.8-3.2-.3-.4-.3-5.1-.1-10.4.4-9.6.4-9.6 3.5-9.3 1.8.2 12 .7 22.7 1"/><path d="M703.9 608c-2.3 7.7 1.8 15.6 5 9.6 1.6-2.9.7-7.6-1.4-7.6-2 0-2.8-1.7-1.7-3.6.6-1.1 1.1-1.3 1.6-.5 1.1 1.6 2.6 1.3 2-.4-1.2-3.1-4.3-1.7-5.5 2.5m3.9 7.1c-.1 1.3-.7 2.3-1.3 2.2-1.3-.3-1.8-3-1.1-5 1-2.4 2.9-.1 2.4 2.8M714.4 605.5c-.8 2.1.4 3.4 1.5 1.6.5-.7 1.4-1.1 1.9-.7.8.4.6 2.1-.3 5.4-1.7 5.3-1.9 8.2-.7 8.2.4 0 1.3-2.8 1.9-6.3.6-3.4 1.2-6.9 1.4-7.7.6-2.2-4.9-2.7-5.7-.5M736.5 606c-1.1 1.7.3 2.4 2 1 1.3-1.1 1.5-.9 1.5 1.4 0 1.4-.4 2.6-1 2.6-.5 0-1 .7-1 1.5s.5 1.5 1 1.5c1.3 0 1.3 3.7.1 4.5-.6.3-1.4-.3-2-1.2-.9-1.6-1-1.6-1.1.3 0 2.6 2.7 3.9 4.6 2.3.9-.7 1.2-3.2 1.1-7.7-.2-6-.4-6.7-2.4-7-1.1-.2-2.4.2-2.8.8M758 607c-1.7 3.2-.9 6.4 1.8 6.8 2.3.4 2.9 2.6 1.2 5.2-.9 1.3-1.1 1.3-1.9 0-.6-.8-1.3-1.1-1.7-.7s0 1.5 1 2.5c1.6 1.6 1.8 1.6 3.7-.7 2.6-3.2 2.4-5.7-.6-7.7s-3.3-4.4-.4-4.4c1.2 0 1.9-.5 1.7-1.3-.8-2.1-3.6-1.9-4.8.3M750 607.1c0 .6-.9 2.4-2.1 4-2.2 3.2-2 5.9.6 5.9.8 0 1.5.9 1.5 2 0 2.7 1.8 2.5 2.2-.3.5-3.9-.3-12.7-1.3-12.7-.5 0-.9.5-.9 1.1m-.4 7.6c-1 1-1.9-.5-1-1.8.6-1.1.8-1.1 1.2 0 .2.7.1 1.5-.2 1.8M725 613c0 .5 1.4 1 3 1 1.7 0 3-.5 3-1 0-.6-1.3-1-3-1-1.6 0-3 .4-3 1M634 600.9c0 1.3 4.8 4.6 5.6 3.8.3-.2-.9-1.5-2.5-2.7-1.7-1.2-3.1-1.7-3.1-1.1M617.7 602.7c-1.1 1-.8 4.3.3 4.3.6 0 1-1.1 1-2.5 0-2.6-.2-2.9-1.3-1.8M653.1 604.1c-2.7 1.7-3.9 1.9-5.8 1-4.9-2.3-7.8 2.4-3.8 6.2 1.4 1.3 2.5 3.6 2.7 5.6.2 2.9 1.1 3.9 5 6.3 4.5 2.8 4.9 2.9 8.8 1.5 5.7-1.9 8-4.1 8-7.7 0-3 0-3 11.5-3 7 0 11.5-.4 11.5-1s-4.4-1-11.3-1c-11.2 0-11.2 0-12.5-2.8-.7-1.7-2.9-3.7-5.7-5-2.5-1.2-4.7-2.2-4.8-2.2s-1.7.9-3.6 2.1m5.2 1.9c2.1 0 2.1 0-.1 1.6-2.3 1.6-4.9 6-6.3 10.4-.7 2.3-.7 2.3-.8-.8-.1-3.3 2.6-9.2 4.1-9.2.4 0 .8-.5.8-1 0-3.9-5.6 3.8-6.8 9.5-.7 3.1-1.1 3.6-1.7 2.2-1.4-3.3.4-8.4 4.2-11.8 2.2-1.8 3.9-2.7 4.1-2 .2.6 1.3 1.1 2.5 1.1m-13.3 1.5c-.7.9-1.5 1.3-1.7 1.1-.7-.7.7-2.6 1.9-2.6.6 0 .6.6-.2 1.5m19.4.1c.9.3 1.6 1.5 1.6 2.7 0 1.9-.1 1.9-1.9.3-1.5-1.3-2.4-1.5-4.7-.6-2.9 1-2.9 1-.5-1 2.5-2.2 3.1-2.3 5.5-1.4m-16.4 1.3c0 .6-.4 1.3-1 1.6-.5.3-1-.1-1-.9 0-.9.5-1.6 1-1.6.6 0 1 .4 1 .9m12.1 4c-1.2 1.1-2.6 3.2-3.1 4.8-.8 2.8-.8 2.8-.9-.1-.1-3.2 2.3-6.6 4.7-6.6 1.1 0 .9.5-.7 1.9m2.9.6c0 .3-.2.5-.5.5s-.5-.2-.5-.5.2-.5.5-.5.5.2.5.5m-2 2.5c0 .5-.4 1-1 1-.5 0-1-.5-1-1 0-.6.5-1 1-1 .6 0 1 .4 1 1m5.5 0c.9 1.5-2.2 6-4 6-2 0-1.9-3.4.1-5.4 1.8-1.9 3-2 3.9-.6m-7 3c.3.5.1 1-.4 1-.6 0-1.1-.5-1.1-1 0-.6.2-1 .4-1 .3 0 .8.4 1.1 1m-3.4 4.8c-1.4.4-3.1-1.5-3.1-3.5 0-.7 1-.2 2.3 1 1.6 1.6 1.8 2.3.8 2.5M617 615c0 1.6.5 3 1 3 .6 0 1-1.4 1-3 0-1.7-.4-3-1-3-.5 0-1 1.3-1 3M617.2 626c0 1.9.2 2.7.5 1.7.2-.9.2-2.5 0-3.5-.3-.9-.5-.1-.5 1.8M559.6 635.6c-.9.8-1.3 2.1-.9 2.7.5.8.9.6 1.1-.6.2-1 1.3-1.7 2.8-1.7 1.3 0 2.4-.5 2.4-1 0-1.6-3.7-1.2-5.4.6M617.2 637c0 1.9.2 2.7.5 1.7.2-.9.2-2.5 0-3.5-.3-.9-.5-.1-.5 1.8M564.2 639.5c0 1.6.2 2.2.5 1.2.2-.9.2-2.3 0-3-.3-.6-.5.1-.5 1.8M559 642.5c0 .2 1.4 1.1 3 2 1.7.9 3 1.1 3 .6 0-.6-.9-1.5-1.9-2.1-2.1-1.1-4.1-1.3-4.1-.5M617.2 646.5c0 1.6.2 2.2.5 1.2.2-.9.2-2.3 0-3-.3-.6-.5.1-.5 1.8M568.9 648.4c.7.9 2.3 1.6 3.4 1.6 2.6 0 1.2-1.5-2.3-2.5-2.2-.7-2.3-.6-1.1.9M577.1 647.9c-1.1.7-.9 1 .8 1.3 1.2.1 2.1.7 2.1 1.3-.1.5 1.8 1.5 4.2 2.1s5.2 1.5 6.3 2c1.7.7 1.8.6.7-.8s-1-1.7.5-2c1.4-.3.9-.8-1.7-2-4.7-2-11.2-2.9-12.9-1.9m10.6 3.8c-.4.3-1 .3-1.4 0-.3-.4 0-.7.7-.7s1 .3.7.7M580.5 655c1.7 1.1 3.5 2 4 2 1.7-.1-3.6-4-5.4-4-1 0-.6.7 1.4 2M617.3 656.5c0 2.2.2 3 .4 1.7.2-1.2.2-3 0-4-.3-.9-.5.1-.4 2.3M600 656.9c0 .5 1.3 1.9 3 3.2 1.6 1.3 3 2.8 3 3.3 0 .6-1.3-.3-3-1.9-1.6-1.6-3-2.4-3-1.9 0 .6 1.3 2.3 2.9 3.8 2.1 2 3 2.4 3.4 1.4.3-.9 1-.7 2.4.9 1.1 1.3 2.3 2 2.6 1.7.7-.7-9.2-11.4-10.5-11.4-.4 0-.8.4-.8.9M616.8 666.7c-.6 2.4-1.3 3.3-2.7 3.3-1.1 0-2.3.4-2.6 1s.5 1 1.9 1c2.9 0 4.9-2.9 4.4-6.3-.3-1.8-.5-1.6-1 1M600.5 665.9c.8 1.5 6.5 4.1 6.5 3 0-.4-1.3-1.5-3-2.4-3.3-1.7-4.4-1.9-3.5-.6M594 687.3c0 8.5.3 15.7.8 16.1.4.4 1.2 2.4 1.9 4.4 1.2 3.7 1.2 3.7.6.2-.3-1.9-.8-10.8-1-19.8-.5-20.9-2.3-21.6-2.3-.9"/><path d="M613 674.8c0 1.4 6.8 6.8 14.5 11.7 5.9 3.7 15.7 12.9 20.5 19.3 2.6 3.4 11.2 10.4 14.3 11.5 2.8 1.1 2 2.3-4.7 6.6-6.3 4.1-6.5 4.2-9.5 2.7-4-2.1-5-2-7.9.6-1.3 1.3-7.6 5-14 8.3-11.7 6-11.7 6-12 11.1-.2 3.3.2 5.5 1.1 6.2 2.6 2.2.4 15.3-4.1 24.6-2.2 4.4-4.5 9.9-5.2 12.1s-1.6 4.4-2.1 4.9c-.5.6-13.6.9-31.2.7-26-.2-30.5 0-31.6 1.3-1.5 1.8-.7 3.6 1.7 3.7 1.2 0 1.1.3-.5.9-4 1.6-2.5 3 3.5 3.2l5.7.1-5.5.6c-4.7.5-5.5.9-5.8 2.8-.3 2.2-.1 2.3 7.8 2.3 4.4 0 14 .7 21.3 1.6 8.7 1.1 16.7 1.5 23.5 1.1 5.6-.3 10.2-.4 10.2-.1 0 .2-1.1 2.2-2.5 4.4-3.2 5-3.1 5.6.5 7.5 1.8.9 3 2.3 3 3.5 0 3.2 4.1 4.5 9.6 3.3 3.1-.7 5.8-.8 8.2-.1 10.7 3 27.5-4.3 39.8-17.2 4.6-4.9 5.1-5.1 8.8-4.7 4.4.6 7.6-.6 7.6-2.8 0-.7-.9-1.7-2-2-2.2-.7-2.8-3.5-.7-3.5.7 0 1.9.6 2.6 1.2 1 1.1 1.5.9 2.6-.6 1.2-1.6 1.2-2.4-.5-5.7q-3.15-6.15-1.2-8.4c.5-.6 1.4-2.9 2.1-5.3.9-3 1.7-4.3 2.9-4.1 6.1.6 23.2-.2 22.7-1.1-.4-.6-5.5-1-12.1-1H683l.1-7.8c.1-8-.9-12.8-3.6-16.9-1.5-2.2-1.4-2.6.5-5.3 2.7-3.9 4.7-18.4 2.9-21.8-1.6-3-11.6-9.2-14.8-9.2-2.8 0-12.2-6.7-16.6-11.9-6.3-7.4-13.3-13.8-20-18.5-3.8-2.7-8.8-6.3-10.9-8-2.6-2-4.1-2.6-4.4-1.8-.3 1-.7 1-1.8.1-.9-.7-1.4-.8-1.4-.1m9.5 6.2c.3.5.4 1 .1 1s-.8-.5-1.1-1c-.3-.6-.4-1-.1-1s.8.4 1.1 1m7 4c.3.5.1 1-.4 1-.6 0-1.1-.5-1.1-1 0-.6.2-1 .4-1 .3 0 .8.4 1.1 1m3 2c.3.5.4 1 .1 1s-.8-.5-1.1-1c-.3-.6-.4-1-.1-1s.8.4 1.1 1m27.8 26c2 1.4 3.7 2.9 3.7 3.3 0 .9-6.9-3.8-11-7.5-1.4-1.3-5.2-5.5-8.4-9.3-5.8-6.9-5.7-6.8 3 2 4.9 4.9 10.6 10.1 12.7 11.5m13.2 5.6c2.9 1.9 3.1 3 1 5-1.3 1.3-1.7 1.3-3.7-.5-1.2-1.2-2.9-2.1-3.7-2.1-1.1 0-.9.6.9 2 1.4 1.1 2 2 1.3 2-.6 0-1.5-.5-1.8-1-.3-.6-1.4-1-2.3-1-1.5.1-1.4.3.3 1.6 1.1.8 3 1.2 4.3.9 3.9-1 2.3.9-3.8 4.4-4.1 2.3-6 4.1-6.5 6-1.2 4.8-5.5 7.3-5.5 3.2 0-1-.7-2.4-1.5-3.1-2.6-2.2-1.3-5.3 4-9 2.7-1.9 6.3-5 8-6.7 3.4-3.7 5.4-4.1 9-1.7m7.3 5.6c2.7 2.7.6 18.4-3 22.4-1 1.2-3.7 2.7-5.9 3.4-3.8 1.3-4.2 1.2-5.8-.7-.9-1.1-3.1-2.8-4.8-3.7-3.9-1.9-3.9-2-1.3-7.4 1.5-3 3.8-5.3 8.9-8.6 3.8-2.4 7.2-4.9 7.5-5.5.9-1.4 2.9-1.4 4.4.1m-36 4c-.3.7-2 2.1-3.9 3-3.8 1.9-6.5 2.4-3.4.6 1.1-.6 2.6-2 3.3-3 1.5-2 4.6-2.5 4-.6m5.2 1.8c0 .5-1.2 1-2.6 1s-2.3-.4-1.9-1c.3-.6 1.5-1 2.6-1 1 0 1.9.4 1.9 1m-2.2 4.8c1.2.8 2.2 1.7 2.2 2.1s-3.4 2.4-7.5 4.4c-7.8 3.9-9 3.9-13.3-.1-1.8-1.6-1.9-1.6 6.3-5.7 6.7-3.4 8-3.4 12.3-.7m-12.8-1.3c0 .3-.2.5-.5.5s-.5-.2-.5-.5.2-.5.5-.5.5.2.5.5m-9.1 6.6c-3.5 3.8-6.8 4.9-7.5 2.4-.3-.8 8.8-6.3 10.7-6.5.3 0-1.1 1.8-3.2 4.1m26.6.9c.3 1.1 1.1 2 1.6 2s.9.5.9 1.1-.7.8-1.5.5-2.1-.9-2.9-1.2c-2-.8-5.2 5.2-6 11-.3 2.7-1.1 5.5-1.7 6.3-1.2 1.3-.8 11.1.5 14.3.7 1.6-7.2 13.2-8.4 12.5-1.4-.9-3.4-15.6-2.2-16.4.6-.4 1.4-5.6 1.8-12.3l.7-11.7 7.6-4c4.2-2.2 7.9-4.1 8.3-4.1s1 .9 1.3 2m-21.6 3.6c2.3 1.9 3.1 3.4 3.1 5.8 0 4.1-.7 4.8-3.1 3.3-1.6-1-2.1-.9-2.9.3-1.4 2.2-1.3 2.8 1.9 5.5 2.1 1.9 2.7 3.2 2.3 5-.5 3-.7 3-4.2.5-2.2-1.6-2.8-2.7-2.5-4.8.2-1.5.4-6.2.4-10.5.1-4.2.5-7.7 1-7.7s2.3 1.2 4 2.6m-12.1.3c1.1.6 1.2 2.3.4 7.7-.6 4.7-1 5.7-1.1 3.2 0-2-.5-4-1.1-4.3-1.2-.7-1.4-7.5-.2-7.5.4 0 1.3.4 2 .9m5 9.1c-.2 7.1-.7 9.3-2.2 10.7-1.8 1.8-1.8 1.6-1.1-6.7.8-10.1 1.4-13 2.7-13 .6 0 .9 3.5.6 9m30.8-6.8c1.6 1.2 3.1 2.3 3.3 2.5.2.1-.2.9-.9 1.8-1.6 2-5 1.9-7.8-.3-2.1-1.6-2.1-1.9-.7-4 2-2.7 2.5-2.7 6.1 0m6.5.4c1.7.8 2.9 2 2.7 2.6-.8 2.2-2.4 1.8-4.6-1.2-2.6-3.4-2.3-3.6 1.9-1.4m18.7 7.5c3.1 6.1 2.6 18.1-1.2 29.2-2.6 7.8-2.6 7.8-.6 10.7 1.8 2.6 2.7 6 1.5 6-.3 0-1.4-.5-2.4-1.2-1.5-.9-2.3-.9-3.5.1-2 1.7-2.1 4.7-.1 5.5 3.3 1.2 1.4 2.5-3 1.9s-4.5-.5-9.1 4.6c-11.7 13-28.5 20.4-39.6 17.3-2.5-.7-5-.7-7.8 0-4.9 1.3-5.4.9-4-2.7 1.5-4-.4-6.1-3.6-4-3.3 2.1-3.7.4-.9-3.8 1.4-2 2.5-4.7 2.5-6 0-2 .7-2.5 4.9-3.5 6.1-1.4 14.7-5.4 18.5-8.7 3.2-2.8 3.5-2.8 5.5-1.6 1.9 1.2.7 2.6-4.5 5.3-5.7 2.8-6.2 3.6-3.5 5.4 1.2.8 2.1 2.6 2.1 3.9s.4 2.7 1 3c.5.3 4.3-1.1 8.2-3.2 7-3.7 7.3-4 7.6-7.8.2-2.8 1.2-4.8 3.2-6.8 5.2-5.1 7.4-12.3 4.9-16.8-.9-1.7-.5-2.7 2.4-6.2 1.8-2.3 5-6.7 7-9.7 3.1-4.5 3.6-6 3.1-9.1-.6-3.4-.4-3.7 3.2-5.2 2.2-.9 4.4-1.5 4.9-1.3.6.1 2 2.2 3.3 4.7m-13.3 1.5c.6 3.4-1 7.2-5.6 12.8-.5.6-1.8 2.2-2.9 3.6-1.7 2.1-2.1 2.3-3 1-1.4-2.2-1.2-3 .8-3s4.6-3.6 3.2-4.5c-1.6-1 .2-3.7 2.1-3.2 2.8.7 3.9-1.4 3.3-6.7-.6-5.6 1-5.6 2.1 0M652 755c1.9 1.5 2.1 2 .9 2-.9 0-2.7-.9-4-2-3.2-2.6-.3-2.7 3.1 0m-18 3.2c0 .5-.6.8-1.4.8-1.6 0-3.8-2.4-3-3.3.7-.7 4.4 1.4 4.4 2.5m26.7-2.6c1.3.4 2.1 1 1.8 1.4-.3.5-1.4.6-2.5.3-3-.8-2.4 1.2.8 2.4 2.7 1.1 2.7 1.1.2 1.2-3.3.2-5.4 1.6-4.6 3 .4.6 0 1.1-.9 1.1-1.3 0-1.5-.5-1-1.8.5-.9 1-3.2 1.3-5 .4-3.3 1.1-3.6 4.9-2.6M652 759c1.4 1.1 2 2 1.4 2-1.3 0-7.4-2.9-7.4-3.6 0-1.1 3.8-.1 6 1.6m-1.5 3c1.7 1.1 2.6 2 2.2 2-1.1 0-6.7-2.9-6.7-3.5 0-1 1.6-.4 4.5 1.5m-32.7 6.2c-.3 2.9-1.9 8.2-3.5 11.8-1.7 3.6-3.5 7.8-4 9.4-.5 1.7-1.5 3.2-2.3 3.4-2 .7-.5-4.1 4.5-14.1 2.7-5.4 4.5-10.2 4.5-12.3 0-1.9.3-3.4.6-3.4.4 0 .4 2.4.2 5.2m31.3-3.6c1.7.8 2.9 1.7 2.7 2-.5.4-6.8-2.5-6.8-3.2s1-.4 4.1 1.2m-21 2.6c4.3 2.4 5 3.8 1.8 3.8-2.6 0-8.1-3.8-7.4-5.1.8-1.3 1.2-1.2 5.6 1.3m25.1 6.2c.5 2.1.6 4.1.4 4.3-.2.3-2.4-.6-4.8-1.9-3.9-2.2-4.3-2.8-4.6-6.7l-.3-4.3 4.2 2.3c3.5 2 4.5 3.1 5.1 6.3m3.8-5.4c0 .5-.7 1-1.5 1s-1.5-.5-1.5-1c0-.6.7-1 1.5-1s1.5.4 1.5 1m-31.3 3.2c4.8 2.8 5 3.2 5.8 9.3.4 2.7.9 5.8 1.1 6.7.3 1 .1 1.8-.5 1.8-.5 0-1.3-2.6-1.7-5.8-.7-5.9-3-9.2-6.4-9.2-1.7 0-3-1.9-3-4.1 0-1.3.4-1.2 4.7 1.3m-4.8 7.1c.1 1.9-1.1 4-3.8 7-2.2 2.3-4.2 3.9-4.5 3.6s.7-3.3 2.4-6.7c1.6-3.3 3.3-7.4 3.7-8.9.7-2.8.7-2.8 1.4-.3.4 1.4.7 3.8.8 5.3m27.1.2c1.1 1.3 1 1.8-.6 3-2.7 2-3.4 1.8-3.4-.8 0-3.8 1.8-4.8 4-2.2m-20-.1c0 .7-12.2 12.9-14.6 14.6-3.8 2.8-6.4 4-8.1 4-1-.1.2-1.1 2.6-2.3 4.3-2 9.3-6.4 15.3-13.5 2.4-2.8 4.8-4.2 4.8-2.8m26.5 5c2.3 3.5.3 9.6-4.7 14.1-4.5 4.1-6.2 4.3-8.3 1.1-1.4-2-1.4-3.1-.5-6.3 1.4-4.5 2.5-6.1 6.4-9.1 3.7-2.8 5.2-2.8 7.1.2m-30.6 4.2c-3 3.1-7.2 6.8-9.4 8.3-4.3 3-16.3 7.7-17.2 6.7-.3-.3.3-.8 1.3-1.2 12.4-4 16.5-6.5 24-14.4 2.6-2.7 5.2-5 5.7-5s-1.5 2.5-4.4 5.6m16.9-1c-.6 1.6-2.1 3.9-3.2 5.1-1.1 1.3-1.6 2.6-1.2 3s1.1.1 1.6-.7c.8-1.2 1-1 1 .7 0 2.4-2.5 3.2-3.2 1.1-.3-.8-1.7 0-3.9 2-1.9 1.7-4 3.2-4.6 3.2-.7 0-1.3.4-1.3.9 0 .9-1.6 1.7-6.2 3.1-4.3 1.3-3.3.3 2.5-2.5 6.6-3.2 10.3-6.5 15.1-13.8 4-6.1 5.6-7 3.4-2.1M629 786c0 .5-2.6 3.6-5.8 6.7-6 6.1-14.3 10.9-20.2 11.8-3.2.5-3.3.5-1-.6 12.7-5.6 15.5-7.4 20.8-12.9 6.2-6.4 6.2-6.5 6.2-5m2.4 5.3c1.7 1.2 1.6 1.5-1.5 4.2-3.3 2.8-13 7.6-17.9 9-1.4.4.2-1.1 3.5-3.3 3.3-2.1 7.6-5.6 9.4-7.6 3.9-4.1 4-4.1 6.5-2.3m-53.7 6.4c-.4.3-1 .3-1.4 0-.3-.4 0-.7.7-.7s1 .3.7.7m25 0c-.4.3-1 .3-1.4 0-.3-.4 0-.7.7-.7s1 .3.7.7m-7 1c-.4.3-1 .3-1.4 0-.3-.4 0-.7.7-.7s1 .3.7.7m-11 1.7c.4.3-3.5.6-8.5.6-5.1 0-9.2-.4-9.2-.8 0-.9 16.8-.7 17.7.2m7.8 2.6c-.3.5-1.1 1-1.6 1-.6 0-.7-.5-.4-1 .3-.6 1.1-1 1.6-1 .6 0 .7.4.4 1m3.2-.3c-.4.3-1 .3-1.4 0-.3-.4 0-.7.7-.7s1 .3.7.7m48.3.1c0 1.5-12 6.6-13 5.6-.7-.7.6-1.9 3.7-3.6 4.7-2.6 9.3-3.6 9.3-2m-56.7.9c-.7.2-2.1.2-3 0-1-.3-.4-.5 1.2-.5 1.7 0 2.4.2 1.8.5m-32 1c-.7.2-1.9.2-2.5 0-.7-.3-.2-.5 1.2-.5s1.9.2 1.3.5M595 806c-2 1.3-4 1.3-4 0 0-.6 1.2-1 2.8-1 2.1 0 2.4.2 1.2 1m52 .4c0 .8-3 3-6.6 5-5.2 2.8-6.6 3.2-7.1 2-.7-1.8-.3-2.3 5.5-5.6 5.3-3 8.2-3.5 8.2-1.4m-36.9 1.7c-1.3.5-4.7 1.1-7.5 1.4l-5.1.4 5-1.4c2.8-.7 6.1-1.3 7.5-1.3 2.5-.1 2.5-.1.1.9M596 810c0 .6-3.5.9-8.7.8l-8.8-.2 8.5-.6c4.7-.3 8.6-.7 8.8-.8.1-.1.2.2.2.8m-18.3.7c-.4.3-1 .3-1.4 0-.3-.4 0-.7.7-.7s1 .3.7.7M606 812c0 .5-.4 1-1 1-.5 0-1-.5-1-1 0-.6.5-1 1-1 .6 0 1 .4 1 1m0 3.7c0 .5-1.4 2.4-3 4.3-2.2 2.7-3 3.1-3 1.7 0-2.3 3.1-6.6 4.8-6.7.6 0 1.2.3 1.2.7m3 8c-.1 2.5-1.4 5.3-2.6 5.3-1.7 0-1.8-3.2-.2-4.8 1.3-1.3 2.8-1.6 2.8-.5"/><path d="M655 733c1.4 1 2.7 1.7 2.9 1.5.8-.8-2.2-3.5-3.8-3.5-1.2 0-1 .5.9 2M640.1 814.6c-3.5 1.9-7.7 4.5-9.2 5.8-1.6 1.3-3.4 2.6-4.1 2.9-1.6.7.5 2.4 4.1 3.3 2.1.6 11.7-3.6 15.9-6.9 1.3-1 1.7-7.3.5-8-.5-.3-3.7 1.1-7.2 2.9m5.9 1.8c0 2.2-3.6 4.7-12.2 8.4-.5.2-.8-.7-.8-2.1 0-2 1.1-3.1 5.8-5.6 7-3.7 7.2-3.7 7.2-.7m-15.3 8.3c-.4.3-.7 0-.7-.7s.3-1 .7-.7c.3.4.3 1 0 1.4M646.3 785.7c-4.3 3.9-5.6 9.6-2.6 11.8 1.8 1.3 6.3.1 6.3-1.7 0-1.1-1.7-1-2.5.2-1.4 2.3-3.5.9-3.5-2.3 0-6.1 7-10.5 7.8-4.9.4 2.3-1.2 3-2.4 1.1-.5-.8-1-.6-1.6.5-.7 1.3-.5 2.1.9 3.1 2.5 2 2.7 1.9 4-1.6 2.4-6.2-1.8-10.2-6.4-6.2M562 677.5c0 .3.2.5.5.5s.5-.2.5-.5-.2-.5-.5-.5-.5.2-.5.5M405 680c1.4 1 2.7 1.7 2.9 1.5.8-.8-2.2-3.5-3.8-3.5-1.2 0-1 .5.9 2M413 684.4c0 .7 8.2 4.7 8.7 4.2.7-.6-5.8-4.6-7.4-4.6-.7 0-1.3.2-1.3.4M587 686c-1.3.8-1.2 1 .3 1 .9 0 1.7-.5 1.7-1 0-1.2-.1-1.2-2 0M426 691.4c0 .4 6.8 4.6 7.6 4.6 1.6 0-.2-1.9-3.1-3.3-3.7-1.8-4.5-2-4.5-1.3M579.3 697.7c-1.9.7-1.6 2.3.5 2.3 2.2 0 5.9 5.7 6.8 10.6 1.6 8.4.4 15.1-5.3 29.4-2.2 5.5-10.3 16.9-12 17-.7 0-1.3.7-1.3 1.5 0 .9-.8 1.9-1.7 2.2-1 .4-2.2 1.2-2.6 2-.4.7-1.4 1.3-2.1 1.3-.8 0-1.6.7-2 1.5-.3.8-1.4 1.5-2.4 1.5-1.9 0-5.9 3.6-5 4.5.3.3 1.1-.1 1.8-1 .7-.8 2.1-1.5 3.1-1.5 1.1 0 2.8-.8 3.9-1.8 1-.9 4-3.5 6.5-5.7s4.5-4.3 4.5-4.8c0-.4 1.2-2 2.8-3.6 1.5-1.5 3.3-3.6 3.9-4.7 1.7-2.6 6.3-12.3 6.3-13.2 0-.4.7-2 1.5-3.6.9-1.6 1.3-3.6 1-4.4s-.1-2 .3-2.6c1.5-1.8 2.1-5.6 1.1-6.2-.6-.4-.6-1.1 0-1.8s.8-1.5.5-1.8-.7-2.3-1-4.4-.9-4.3-1.4-4.8c-.6-.6-1-1.6-1-2.3 0-1.1-4.9-6.6-5.4-6.2-.1 0-.7.3-1.3.6M439 698.8c0 .6 1.5 1.6 3.3 2.3 1.7.7 3.5 1.4 4 1.7.4.2.7 0 .7-.5s-1.5-1.5-3.2-2.3c-1.8-.7-3.6-1.5-4-1.8-.5-.2-.8.1-.8.6M452 705.8c0 .5 1.6 1.6 3.5 2.5 4.2 2 4.7.8.6-1.6-3.2-1.9-4.1-2.1-4.1-.9M462.8 712.2c.7.7 1.2 2.7 1.2 4.4 0 1.8.5 3.6 1 3.9 1.4.9 1.3-6.8-.2-8.3-.7-.7-1.6-1.2-2.2-1.2s-.5.5.2 1.2M464 727.9c0 1.7.5 3.3 1 3.6.6.4 1-.8 1-2.9 0-2-.4-3.6-1-3.6-.5 0-1 1.3-1 2.9M464 740c0 2.2.5 4 1 4 .6 0 1-1.8 1-4s-.4-4-1-4c-.5 0-1 1.8-1 4"/><path d="M567.2 738.2c-1.4 1.4-1.6 5.8-.3 5.8.5 0 .7-.8.4-1.9-.6-2.3 1.6-3.9 2.8-2 1.1 1.8 2.1.6 1.3-1.5-.7-1.9-2.5-2.1-4.2-.4M464 751.5c0 1.9.5 3.5 1 3.5.6 0 1-1.6 1-3.5s-.4-3.5-1-3.5c-.5 0-1 1.6-1 3.5M399.3 750.1c-10.6 1.3-12.9 3.2-15.3 12.8-.7 2.5-2.4 5.5-4 7-3.2 2.9-4.8 7.5-3 8.6.7.4.9 2.2.4 5.2-.6 3.9-.4 4.5 1.4 5 1.2.3 2.4 1.5 2.7 2.7 1.2 4.1 2.9 6.6 4.5 6.6.8 0 2.4 1.3 3.3 3 1.7 2.7 1.7 3.2.2 6.1-2 3.7-1.4 4.6 2 3.1 1.7-.8 2.3-1.7 1.9-2.9-.5-1.6-.4-1.6 1 .1 1.5 1.9 1.6 1.9 1.7-1 0-2.9 0-2.9 1-.5.5 1.4 2.3 3.6 3.9 4.9 3 2.5 3 2.5.4 4.9-1.7 1.6-2.3 2.8-1.7 3.4.5.5 4.8 1.2 9.5 1.6 7.1.5 9 .3 10.9-1.1 1.3-.9 4-2.1 6-2.6 4.8-1.3 8.6-4.5 10.3-8.5 1.1-2.6 1.9-3.2 3.7-2.9 1.3.3 4.4-.6 6.9-1.8 3.5-1.8 4.6-2.9 4.8-5.2.4-2.9.4-2.9 6.5-2.3 3.4.3 10.3 1.9 15.2 3.6 19.7 6.7 35.1 10.1 49.3 10.8l11.2.6v-4.8c0-4.5-.1-4.7-2.5-4.3-1.4.3-2.5.1-2.5-.3 0-.5 1.1-.9 2.5-.9 2 0 2.5-.5 2.5-2.4 0-2.2-.3-2.4-5.2-2.1-9.7.5-24.4-2.5-42.3-8.6-16.9-5.7-21.9-6.8-31.3-6.9-7.3 0-9-.4-13-2.8-2.6-1.5-6-2.7-7.6-2.7-2.4 0-3.4-.8-5.7-4.8-3.8-6.3-8.4-10.8-14-13.5-7.6-3.7-10.9-2.9-12.3 3.2-.9 3.6-1.2 3.2-1.9-2.1-.5-4.1-.4-4.3 2.9-5.5s4.2-2.3 2.7-3.1c-.5-.2-3.6 0-7 .4m0 2.6c-.7.2-2.1.2-3 0-1-.3-.4-.5 1.2-.5 1.7 0 2.4.2 1.8.5m-2 4.5c.8 2.7.8 2.7-2.4 2.1-2-.4-2.5-.9-2.2-2.4.7-2.6 3.9-2.4 4.6.3m-9.1 1.3c-.2 1.4-.8 2.5-1.3 2.5-1.2 0-1.1-.7.1-3.1q2.1-3.9 1.2.6m11.8-1c0 .3-.2.5-.5.5s-.5-.2-.5-.5.2-.5.5-.5.5.2.5.5m18.9 8.3c4.2 4 4.4 4.3 2.8 5.9-1.2 1.3-3.1 1.7-6.8 1.5-6.1-.3-6.9-.7-6.9-3.5 0-2 .1-2 1.3-.3 1.6 2.1 4.5 1.8 6.1-.7 1.5-2.3-.3-5.1-3.6-5.5-1.6-.2-2.8-1.1-3.1-2.3-.6-2.3-2.5-2.5-3.4-.3-.4 1 .1 2.2 1 2.9 2.5 1.8 2.1 3.3-1.1 4-2.3.5-3.3 1.7-5 5.8-1.2 2.9-2.2 6.8-2.2 8.8 0 3.1-.5 3.8-3.5 5.2-4.1 2-6.5 2.2-6.5.6 0-.7-1.2-.9-3.5-.5-4.8.9-4.4-.9.5-2.2 2.7-.7 4-.6 4.3.1.4 1.3 3.6.2 4.2-1.5.2-.7 1.6-5.2 3-10.1 1.5-4.8 3.1-8.7 3.6-8.7s.9.4.9 1c0 .5.4 1 1 1 .5 0 1.2-1.7 1.6-3.8 1.1-6 2-6.5 6.7-3.9 2.3 1.2 6.1 4.1 8.6 6.5m-2.3-5.7c4.1 2.5 11.4 10.6 11.4 12.7 0 .8.8 2.2 1.8 3.1 1.9 1.7 4.2 6.4 4.2 8.4-.1 1.6-4-3.1-4-4.8 0-.7-.7-1.8-1.6-2.5-.8-.8-2.2-2.9-3-4.9-1.8-4.2-4.5-7.3-9.8-11.2-4.5-3.4-3.9-3.9 1-.8m-24.1 1.9c-.3.5-1.3 1-2.1 1s-1.4-.5-1.4-1c0-.6.9-1 2.1-1 1.1 0 1.7.4 1.4 1m4.5 5.7c-1.8 6.8-3 8.6-2.7 4.3.1-1.9.6-3.8 1.1-4.2.5-.3.9-2 .9-3.7 0-2.1.4-2.8 1-2.2.7.7.5 2.7-.3 5.8m10.7-6c-.4.3-1 .3-1.4 0-.3-.4 0-.7.7-.7s1 .3.7.7M389 765c0 .5-.4 1-.9 1-.6 0-1.3-.5-1.6-1-.3-.6.1-1 .9-1 .9 0 1.6.4 1.6 1m6 0c0 1.2-2.8 2.5-3.6 1.7-.9-.9.6-2.7 2.2-2.7.8 0 1.4.5 1.4 1m19 1.6c0 .8-.4 1.2-1 .9-.5-.3-1-1-1-1.6 0-.5.5-.9 1-.9.6 0 1 .7 1 1.6m-29.3 1.6c-.3.8-.6.5-.6-.6-.1-1.1.2-1.7.5-1.3.3.3.4 1.2.1 1.9m3 .5c-.4.3-.7 0-.7-.7s.3-1 .7-.7c.3.4.3 1 0 1.4m24.3-.7c0 .5-.4 1-1 1-.5 0-1-.5-1-1 0-.6.5-1 1-1 .6 0 1 .4 1 1m-20 2c-.8.5-2.2 1-3 1-1.3 0-1.3-.1 0-1 .8-.5 2.2-1 3-1 1.3 0 1.3.1 0 1m14.7.7c-.4.3-.7 0-.7-.7s.3-1 .7-.7c.3.4.3 1 0 1.4M386 772c-2 1.3-3.3 1.3-2.5 0 .3-.6 1.4-1 2.3-1 1.5 0 1.5.2.2 1m18-.5c0 .3-.2.5-.5.5s-.5-.2-.5-.5.2-.5.5-.5.5.2.5.5m-11.3 1.2c-.4.3-1 .3-1.4 0-.3-.4 0-.7.7-.7s1 .3.7.7m-2.7 1.9c0 .7-.4 1.6-1 1.9-.5.3-1 .1-1-.4 0-1.9-1.7-1.2-2.3.9-.7 2.8-3.7 2.6-3.7-.3-.1-2-.2-2.1-1.4-.5-1.8 2.4-2.6 2.3-2.6-.5 0-2 .5-2.2 6-2.3 4.3-.1 6 .3 6 1.2m36 2.8c0 .6-.7.2-1.5-.8-.8-1.1-1.5-2.5-1.5-3 0-.6.7-.2 1.5.8.8 1.1 1.5 2.5 1.5 3m-15.6-1.3c2.4 1.9 2.5 2.3 1.2 3.8-1.2 1.4-1.2 1.9-.1 3.5.8 1 1.8 1.5 2.4 1.1.6-.3 1.1-.1 1.1.5 0 .7.8 2.8 1.7 4.7 1.6 3.4 1.6 3.6-.2 4.9-2.7 2-4.2 1.7-7.3-1.4-4.1-4.1-7.3-13.8-5.8-17.7.8-2.1 3.9-1.9 7 .6m13.6 3.5c0 2.3-1.8 1.6-2.2-.9-.2-1.8-.9-2.2-3.3-2-3 .2-3 .2-.5-1.2 2.3-1.3 2.7-1.2 4.3.6.9 1.2 1.7 2.7 1.7 3.5m-10.3-3.9c-.4.3-1 .3-1.4 0-.3-.4 0-.7.7-.7s1 .3.7.7m-20.6 4c-.9 2.2-1.9 2.8-4.4 3l-3.2.1 3.4-1.4c1.8-.8 3.5-2.4 3.8-3.5s.8-1.8 1.1-1.5c.2.3-.1 1.8-.7 3.3m-3.1-.7c-2.4 1.5-3.6 1.1-1.4-.4 1-.8 2.1-1.2 2.4-1 .2.3-.2.9-1 1.4m10.7 2.7c-.3 1-.5.2-.5-1.7s.2-2.7.5-1.8c.2 1 .2 2.6 0 3.5m19-3c-.4.3-1 .3-1.4 0-.3-.4 0-.7.7-.7s1 .3.7.7m19.3-.2c0 .3-.2.5-.5.5s-.5-.2-.5-.5.2-.5.5-.5.5.2.5.5m-1.5 1.7c2.9 1.3 3.3 3.3.9 4.2-1.9.7-1.7.8-3.3-2.1-1.9-3.7-1.6-3.9 2.4-2.1m-56 .8c.3.5.1 1-.4 1-.6 0-1.1-.5-1.1-1 0-.6.2-1 .4-1 .3 0 .8.4 1.1 1m34.5-.1c0 .5-.7 1.1-1.5 1.5-1.5.5-2-.5-.8-1.7.9-1 2.3-.9 2.3.2m13 .1c0 .5-.7.7-1.5.4-.8-.4-1.5-.8-1.5-1s.7-.4 1.5-.4 1.5.4 1.5 1m-10 1.9c0 .6-.4 1.3-1 1.6-.5.3-1-.1-1-.9 0-.9.5-1.6 1-1.6.6 0 1 .4 1 .9m-36 1.1c0 .5-.8 1-1.7 1-1.5 0-1.6-.2-.3-1 1.9-1.2 2-1.2 2 0m39.8.7c-.5 2.5-2.8 2.8-2.8.4 0-1.2.6-2.1 1.6-2.1.9 0 1.4.7 1.2 1.7m4.7-.7c.3.5-.1 1-.9 1s-1.8-.5-2.1-1c-.3-.6.1-1 .9-1s1.8.4 2.1 1m19.5-.5c0 .8-6.2 3.7-6.8 3.1-.8-.9 3-3.5 5.1-3.6.9 0 1.7.2 1.7.5m6 0c0 .3-.2.5-.5.5s-.5-.2-.5-.5.2-.5.5-.5.5.2.5.5m21.5 3c3.9 1.4 5.9 2.3 4.5 2.1-3.4-.5-14.3-3.6-14.9-4.1-1.1-1.2 4.1-.2 10.4 2m-71.2 0c.8 1.8-1.1 3.1-2.5 1.7-1.1-1.1-.3-3.2 1.2-3.2.4 0 1 .7 1.3 1.5m28.9-.1c1 .7 1.5 1.6 1.1 1.9-1.1 1.2-2.2.8-3.3-1.3-1.2-2.3-.3-2.5 2.2-.6m17.8 6c0 6.7-.2 7.5-2.5 9-1.3.9-2.9 1.6-3.4 1.6s-1.1-3.2-1.3-7.2c-.3-7-.2-7.2 2.7-9 1.7-1 3.3-1.8 3.8-1.8.4 0 .7 3.3.7 7.4m13.5-5.8c4.3.8 11 3.3 10.3 3.9-.2.2-3-.5-6.2-1.6-3.3-1-7.6-1.9-9.8-1.9-2.1 0-3.8-.5-3.8-1.1s1.1-.8 2.8-.5c1.5.3 4.5.8 6.7 1.2m-83.8.1c-.4.3-1 .3-1.4 0-.3-.4 0-.7.7-.7s1 .3.7.7m49.1 1.5c1.7 1.7 1.5 4.5-.3 5.2q-1.5.45-3-2.4c-.8-1.6-1.5-3.1-1.5-3.5 0-1 3.6-.5 4.8.7m23.2-.7c0 .3-.2.5-.5.5s-.5-.2-.5-.5.2-.5.5-.5.5.2.5.5m-52.6 1.3c1 1.7-2.2 3.7-6.4 4-2.5.1-5.6.4-7 .5-1.7.1-2.6-.4-2.8-1.8-.4-1.9-.3-1.9 1.4-.4 1.8 1.6 2.2 1.5 6.9-.6 5.4-2.5 7.1-2.9 7.9-1.7m19.6-.3c0 .3-.2.5-.5.5s-.5-.2-.5-.5.2-.5.5-.5.5.2.5.5m18 1.5c0 .5-.7 1-1.5 1s-1.5-.5-1.5-1c0-.6.7-1 1.5-1s1.5.4 1.5 1m4 2c0 1.6-.2 3-.4 3s-.6-1.4-.8-3c-.3-1.7-.1-3 .4-3 .4 0 .8 1.3.8 3m34 1.2c5.8 1.9 13.9 4.5 18 5.7 4.1 1.3 9.3 2.9 11.5 3.7l4 1.3-4-.5c-2.2-.4-10.5-2.6-18.5-5.1-20-6.2-24-7.3-27.7-7.3-1.7 0-3.5-.5-3.9-1.2-1.2-2 9.3-.2 20.6 3.4m8-3.7c0 .3-.2.5-.5.5s-.5-.2-.5-.5.2-.5.5-.5.5.2.5.5m-74.8 5c2.5 2.5 4.1 4.5 3.4 4.5-1.8 0-8.6-6-8.6-7.6 0-2 .2-1.9 5.2 3.1m16.8-.3c0 .4-.6.8-1.4.8-.9 0-1.3-1-1.2-2.5.1-2.3.2-2.4 1.4-.8.6.9 1.2 2 1.2 2.5m27.7-2c-.3.8-.6.5-.6-.6-.1-1.1.2-1.7.5-1.3.3.3.4 1.2.1 1.9m-31.7-.7c0 .3-.2.5-.5.5s-.5-.2-.5-.5.2-.5.5-.5.5.2.5.5m68 0c0 .3-.2.5-.5.5s-.5-.2-.5-.5.2-.5.5-.5.5.2.5.5m-84.8 4.1c1.8 2 4.3 4 5.7 4.6 2.6.9 2.6.9.4 2.6-1.7 1.3-2 2.1-1.3 3.2.5.8 1 2.2 1 3-.1 1.2-.4 1.1-1.5-.4-1.6-2.2-5-1.4-4.1.9.3.9 0 1.5-.8 1.5-2.1 0-2.8-3.1-1-4.4.9-.7 1.4-2.2 1.2-3.7-.2-1.9-.9-2.4-3-2.4-2.5.1-2.8-.3-2.8-3 0-2.6 1.4-5.5 2.7-5.5.2 0 1.8 1.6 3.5 3.6m34.8 1.6c0 5.1-.5 4.7-1.4-1-.4-2.9-.3-4.1.4-3.7.5.3 1 2.5 1 4.7m47.9-3.5c2.8.9 5.1 1.9 5.1 2.3 0 .6-11-2.7-11.9-3.6-.9-.8 1.9-.3 6.8 1.3m-53.7 3.3c.2 2.2 0 4-.4 4-.5 0-.8-1.8-.8-4s.2-4 .4-4 .6 1.8.8 4m2.8 0c0 2.2-.2 4-.4 4s-.6-1.8-.8-4 0-4 .4-4c.5 0 .8 1.8.8 4m28.5-3c2 .9 2 .9 0 .8-1.1 0-3.3-.4-5-.8l-3-.8h3c1.7 0 3.9.3 5 .8m-72.8 1.6c-1.6.9-3.1 1.3-3.4 1s.5-1 1.8-1.5c3.7-1.5 4.7-1.2 1.6.5m30 1c.3.9 0 2-.8 2.5-1.7 1.1-2.1 1.1-3.8 0-1.2-.8-1.2-1.2-.2-2.5 1.7-2.1 4-2 4.8 0m50.4-.1c1.9.8 2.7 1.4 1.9 1.4-1.8 0-7.9-2.7-6.4-2.8.7-.1 2.7.6 4.5 1.4M396 799c0 3.5-1 3.8-2.9.9-1.1-1.8-1.1-2.3.1-3 2.2-1.5 2.8-1 2.8 2.1m33.5-2.1c.7 1.2-3.2 3.4-4.5 2.6-1.5-1-1.2-2.3.8-2.8 2.8-.8 3.1-.7 3.7.2m65.2-.2c-.4.3-1 .3-1.4 0-.3-.4 0-.7.7-.7s1 .3.7.7m-53 2c-.4.3-.7 0-.7-.7s.3-1 .7-.7c.3.4.3 1 0 1.4m56.8 5.9c.6.2-.6.2-2.5-.1-5.3-.8-17-4.6-17-5.5 0-.6 15.9 3.9 19.5 5.6m-105.4-2.3c1.2 2.2 1.2 2.2-1 .3-1.1-1.1-2.1-2.3-2.1-2.8 0-1.4 1.9.1 3.1 2.5m37.6-1.6c-.4.3-.7 0-.7-.7s.3-1 .7-.7c.3.4.3 1 0 1.4m-7.7-.2c0 .3-.2.5-.5.5s-.5-.2-.5-.5.2-.5.5-.5.5.2.5.5m18 2c0 .8-.7 1.5-1.6 1.5-1.4 0-1.4-.3-.4-1.5.7-.8 1.4-1.5 1.6-1.5s.4.7.4 1.5m83.5-.5c.3.5-.1 1-.9 1-.9 0-1.6-.5-1.6-1 0-.6.4-1 .9-1 .6 0 1.3.4 1.6 1m3.2-.3c-.4.3-1 .3-1.4 0-.3-.4 0-.7.7-.7s1 .3.7.7m-125.2 1.2c.3.5.1 1.2-.4 1.5s-1.1-.1-1.5-.9c-.6-1.6.9-2.1 1.9-.6m17.6 1.4c-1.3 1.3-2.6.3-1.6-1.2.3-.6 1.1-.8 1.7-.5.6.4.6 1-.1 1.7m11.5-.6c2 .4 2.1.8 1.2 4.1-1.3 4.8-3.5 7.2-6.5 7.2-1.9 0-2.3-.4-1.9-1.8.3-.9-.1-3-.9-4.6-.8-1.5-1.5-3.4-1.5-4.1 0-1.5 3.6-2.5 6-1.7.8.2 2.5.7 3.6.9m-31.6 1.4c0 .6-.4.7-1 .4-.5-.3-1-1.1-1-1.6 0-.6.5-.7 1-.4.6.3 1 1.1 1 1.6m16-1.2c0 1.1-1.9 2.4-3.7 2.7-1.4.2-1.8-1.8-.6-2.9 1-1 4.3-.8 4.3.2m19.7 2.3c-.3.8-.6.5-.6-.6-.1-1.1.2-1.7.5-1.3.3.3.4 1.2.1 1.9m81.1-1.5c-1 .2-2.6.2-3.5 0-1-.3-.2-.5 1.7-.5s2.7.2 1.8.5m-15.1 1c-.4.3-1 .3-1.4 0-.3-.4 0-.7.7-.7s1 .3.7.7m3.3-.2c0 .3-.2.5-.5.5s-.5-.2-.5-.5.2-.5.5-.5.5.2.5.5m25 0c0 .3-.2.5-.5.5s-.5-.2-.5-.5.2-.5.5-.5.5.2.5.5M418.8 809c.3 2.1.2 2.2-1.2 1.1-1.9-1.6-2.1-4.4-.3-3.9.6.3 1.4 1.5 1.5 2.8m88.9-2.3c-.4.3-1 .3-1.4 0-.3-.4 0-.7.7-.7s1 .3.7.7M518 808c0 .9-7 .1-8.2-.9-.4-.3 1.3-.4 3.7-.3 2.5.2 4.5.8 4.5 1.2m-126.3.7c-.4.3-.7 0-.7-.7s.3-1 .7-.7c.3.4.3 1 0 1.4m29.3-1.2c0 .3-.2.5-.5.5s-.5-.2-.5-.5.2-.5.5-.5.5.2.5.5m100 1c0 .3-.2.5-.5.5s-.5-.2-.5-.5.2-.5.5-.5.5.2.5.5m8.7.1c-.3.3-1.2.4-1.9.1-.8-.3-.5-.6.6-.6 1.1-.1 1.7.2 1.3.5m-122.7.9c0 .3-.2.5-.5.5s-.5-.2-.5-.5.2-.5.5-.5.5.2.5.5m8 2.7c.7 1.8 1.5 3.6 1.8 4 .2.5 0 .8-.5.8-.8 0-4.3-6.2-4.3-7.5 0-1.7 1.8 0 3 2.7m8-.2c0 3.8-5.6 3.7-6.9-.1-.4-1.2-.2-1.2 1.3.1 1.6 1.2 1.9 1.2 2.7-.3 1.3-2.3 2.9-2.1 2.9.3m-12.2 2.8c.6 1.8-1.5 1.4-2.2-.4-.4-1-.1-1.4.6-1.2.6.2 1.4 1 1.6 1.6m.8 2.6c1.2-.3 2.5-.1 2.8.5.5.7-.7 1.1-3.3 1.1-2.3 0-4.1-.4-4.1-.9s-.3-1.8-.6-2.8c-.5-1.4-.2-1.4 1.3.4 1.2 1.6 2.5 2.1 3.9 1.7m-5.6-.4c0 .5-.4 1-1 1-.5 0-1-.5-1-1 0-.6.5-1 1-1 .6 0 1 .4 1 1m-3.3.7c-.4.3-1 .3-1.4 0-.3-.4 0-.7.7-.7s1 .3.7.7m16 1c-.4.3-1 .3-1.4 0-.3-.4 0-.7.7-.7s1 .3.7.7M464 762.5c0 1.9.5 3.5 1 3.5.6 0 1-1.6 1-3.5s-.4-3.5-1-3.5c-.5 0-1 1.6-1 3.5M711.7 765.6c-.2.5-.6 6.1-.8 12.4l-.4 11.5 10.5.6c5.8.4 25.6.9 44.1 1.3l33.7.6.4-11.2c.2-6.2.3-11.8.1-12.4-.3-.7-9.1-1.3-26.6-1.8-14.4-.3-33.9-.9-43.3-1.2-9.5-.4-17.4-.3-17.7.2m57.2 3 28.4.7-.7 7.5c-.3 4.1-.6 8.8-.6 10.4 0 3 0 3-6.8 2.4-3.7-.3-17.3-.6-30.2-.7-12.9-.2-28.3-.5-34.2-.7l-10.8-.4v-21.1l13.3.7c7.2.3 26 .9 41.6 1.2"/><path d="M720 771.6c0 2.3.2 2.5 1.5 1.4 2.3-1.9 2.8-.7 1.6 3.7-1.3 4.6-1.4 9.6-.2 8.9.4-.3 1.1-2.9 1.5-5.8.3-2.9.9-6.5 1.2-8.1.6-2.5.4-2.7-2.5-2.7-2.7 0-3.1.4-3.1 2.6M731.2 773.2c-.9 3.4-.7 10.1.3 11.8 1.1 1.8 3.5 1 4.6-1.4 1.5-3.2.4-7.3-2.2-8.1-2.6-.9-1.8-3.1 1-2.7 2.9.3 2.2-2.2-.7-2.6-1.7-.3-2.3.4-3 3m4.2 6.4c.7 1.9-1.2 4.7-2.5 3.8-.5-.3-.9-1.6-.9-3 0-2.7 2.4-3.3 3.4-.8M753.1 772.3c-.7 1.3-1.1 4.7-.9 7.7.3 4.8.6 5.5 2.6 5.8 4.1.6 5.1-8.1 1.1-9.3-1.9-.6-2.7-4.5-.9-4.5.6 0 1 .4 1 1 0 .5.5 1 1 1 1.6 0 1.1-2.7-.6-3.4-2.1-.8-1.9-.9-3.3 1.7m3.4 6.8c1 1.5-.4 6.1-1.5 5.4-1.3-.8-1.3-6.5-.1-6.5.6 0 1.3.5 1.6 1.1M775.2 771.2c-.7.7-1.2 2.1-1.2 3.2.1 2 .1 2 1.4.3 3.1-4.1 3.6.5.6 5.5-2.9 4.8-2.6 6.8 1 6.8 2.3 0 3-.4 3-2 0-2.2-1.6-2.7-2.3-.8-.2.7-.8 1-1.2.6s.2-2.6 1.3-4.8c2-4.2 2-7.1-.2-8.9-.9-.7-1.6-.7-2.4.1M765.5 775.7c0 2.7-.3 6.3-.7 8-.7 2.9-.5 3.3 1.3 3.3 1.5 0 1.9-.5 1.5-1.6-.3-.9-.6-4.5-.6-8s-.3-6.4-.8-6.4c-.4 0-.7 2.1-.7 4.7M741 778c0 .5 1.6 1 3.6 1 2.1 0 3.3-.4 2.9-1-.3-.6-1.9-1-3.6-1-1.6 0-2.9.4-2.9 1M464 775c0 2.2.5 4 1 4 .6 0 1-1.8 1-4s-.4-4-1-4c-.5 0-1 1.8-1 4M587.7 775.2c.7 5.8 2.3 7.3 2.3 2.1 0-2.3-.6-4.6-1.4-5.2-1.2-1-1.3-.5-.9 3.1M588 789.5c0 1.9.5 3.5 1 3.5.6 0 1-1.6 1-3.5s-.4-3.5-1-3.5c-.5 0-1 1.6-1 3.5M532 789.8c0 .4.8 1.2 1.9 1.9 1 .6 2.2 2.8 2.5 4.9.5 2.2 1.1 3.3 1.7 2.7 1.2-1.2-.6-7.2-2.8-8.9-2-1.5-3.3-1.8-3.3-.6M463.7 800.7c-1.1 1-.8 6.1.3 6.8.6.4 1-1 1-3.4 0-4.2-.2-4.6-1.3-3.4M536.9 803c0 .8-.2 3.5-.4 6-.5 6.8.9 7.3 1.6.5.3-3.3.2-6.4-.3-7-.5-.5-.8-.3-.9.5M367.5 805.7c-1.6.3-4 1.3-5.3 2.4-1.4 1-3.5 1.9-4.7 1.9-2 0-5 1.4-14.5 7-4.3 2.5-5.8 3.3-8.9 4.9-1.3.7-4 2.2-6 3.4-2 1.1-7.2 3.9-11.6 6.2s-9 4.8-10.2 5.6c-2 1.2-2.6 1.1-5.2-.4-3.4-2-6.4-2.2-9.1-.5-1.7 1.1-2.5.8-6.2-2.8-8-7.6-13.8-10.4-21.2-10.4-4.5 0-5.8.5-9.2 3.3-4.1 3.5-7.2 5.5-16.4 10.4-14.2 7.8-18.2 10-27.8 15.6-10.4 6.1-11.6 7.3-13.9 13.7-1.2 3.4-1.2 3.4.5 1.3.9-1.3 3.2-2.6 5-2.9 1.7-.4 3.2-1 3.2-1.5 0-.4-1.3-.4-3 .1-3.8 1.1-4-.7-.4-4.1 3.6-3.3 13.2-3.4 18.7-.1 3.9 2.3 5.8 2.9 4.2 1.3-2.2-2-8.7-5.1-10.9-5.1-3.3 0-3.9-1.1-1.3-2.5 1.2-.7 7.1-4 13.1-7.4 6-3.3 11.1-6.1 11.2-6.1 1.3 0 18-10.5 19.3-12.2 1.5-1.7 2.8-2.1 7.7-2.1 8.1 0 14.1 3.1 24.1 12.3 2.2 2.2 6.2 4.9 8.7 6.2 3.7 1.7 5.2 3.3 7.2 7.3 1.3 2.7 2.2 3.9 1.8 2.5-1.7-6.4-4.9-9.9-11.6-12.8-3.9-1.6-3.5-3.2.7-3.2 4.6 0 8.1 2.4 10.6 7.1 2 4 2.6 12.9.9 12.9-.5 0-1 .8-1 1.7.1 3.3 4-2.9 4-6.3 0-2.7.7-3.5 6.5-6.9 3.6-2.1 6.8-4.2 7.1-4.6.6-1 6.4-3.9 7.8-3.9 1.3 0 6.9-3 21.2-11.2 9.6-5.5 14.8-9.9 19.2-16.5 3.2-4.6 3.2-4.7-4.3-3.6m1.8 5.3c-1.5 2.2-3.2 4-3.7 4-1.2 0-4.6-3.1-4.6-4.2 0-1.2 5.9-3.7 8.8-3.8 2.3 0 2.3 0-.5 4m-8.5 2c2.5 2.4 3 6.3.7 5.4-.9-.4-1.5 0-1.5.9 0 1.2-3.1 2.8-4.9 2.6-.2 0-.7.3-1 .8-.6.8-3.2 2.4-8.6 5.2-1.6.9-3.2 1.9-3.5 2.3-.6.7-5 2.5-6.4 2.6-.5 0-1.2.4-1.5.9-.7.9-8.1 3.7-8.5 3.1-3.7-5.6-3.8-5.9-1.9-7.4 1-.7 5.9-3.4 10.8-6 5-2.5 10.1-5.4 11.5-6.4 1.4-.9 4-2.3 5.8-3.1 1.7-.8 3.2-1.7 3.2-2.1 0-1.6 3.7-.7 5.8 1.2m-38.6 20.7c3.4 3.1 2.2 5.5-4.5 9.5-3.5 2.1-7 3.8-7.8 3.8-1.7-.1-5.3-7-4.2-8.1 1.2-1.1 12.6-6.9 13.7-6.9.5 0 1.8.7 2.8 1.7M463 816.5c0 1.9.5 3.5 1 3.5.6 0 1-1.6 1-3.5s-.4-3.5-1-3.5c-.5 0-1 1.6-1 3.5M536.6 819.3c-.9 1.9.8 7 3 8.8s2.8.3.7-2c-1-1.2-2.1-3.6-2.4-5.4-.4-2.6-.7-2.9-1.3-1.4M588 823.1c0 2.4.4 3.8 1 3.4.6-.3 1-2.2 1-4.1s-.4-3.4-1-3.4c-.5 0-1 1.8-1 4.1M463.1 827.2c.1.7.5 2.4.9 3.8.7 2.2.8 2.1.9-1.3.1-2-.3-3.7-.9-3.7-.5 0-1 .6-.9 1.2M555.2 827.7c-2.8 1.4-3.6 1.4-5.9.2s-2.7-1.1-4.5 1.1c-2 2.4-2 2.4.7 4.7 1.6 1.4 2.5 3.1 2.3 4.4-.3 2.1-1.5 2.7-18.4 8.4-3.9 1.4-15.1 5.4-25 9-9.8 3.6-21.3 7.7-25.4 9.1s-8.4 2.9-9.5 3.4-4.7 1.9-8 3.1-6.2 2.5-6.5 2.9c-.8 1.2 0 22.3.8 21.5.4-.3.5-5 .4-10.4-.4-9.3-.3-9.7 2-10.8 2.9-1.4 9.9-4 15.8-5.9 2.5-.8 5.4-1.9 6.5-2.4 6-2.7 64.5-23 66.3-23 .6 0 3.1 1.4 5.6 3.1 4.8 3.2 5.9 3.4 11.6 2.3 5.2-1 9.7-7.1 7.1-9.7-.6-.6-1.1-2.3-1.1-3.7 0-2.9-1.8-4.9-6.7-7.4-3.9-2-4-2-8.1.1m.8 3.8c-1.9 2-4 5.3-4.6 7.3l-1.2 3.7-.1-3.9c-.1-3.1.5-4.4 3.3-7.2 1.9-1.9 4-3.4 4.7-3.4s-.3 1.6-2.1 3.5m-9-1.5c0 .5-.5 1-1.1 1-.5 0-.7-.5-.4-1 .3-.6.8-1 1.1-1 .2 0 .4.4.4 1m15 0c0 .5 1 1 2.3 1 2.1.1 2.1.1.3 1.1-1.4.9-2.1.8-2.7-.2-1.3-1.9-5.2 2.9-6.8 8.2-.7 2.1-1.6 3.9-2.2 3.9s-.8-.9-.5-2 .9-3 1.2-4.3c.6-2.3 6.2-8.7 7.6-8.7.4 0 .8.4.8 1m-11.2 2.2c-.6 1.8-2.8 2.1-2.8.4 0-.9.7-1.6 1.6-1.6s1.4.5 1.2 1.2m17.7 1.8c.3.5.1 1-.4 1-.6 0-1.1-.5-1.1-1 0-.6.2-1 .4-1 .3 0 .8.4 1.1 1m-6.1 2.3c-1.9 1.7-2.7 3.3-2.7 5.6 0 2.2-.4 3-1.3 2.7-.7-.3-1.5-.2-1.7.2s-.2.1 0-.6c.1-.8.3-2.2.3-3.3 0-2.4 4.3-6.9 6.5-6.9 1.2 0 .8.7-1.1 2.3m3.6 1.2c0 .3-.2.5-.5.5s-.5-.2-.5-.5.2-.5.5-.5.5.2.5.5m-2 2c0 .8-.4 1.5-1 1.5-.5 0-1-.7-1-1.5s.5-1.5 1-1.5c.6 0 1 .7 1 1.5m6 1.2c0 2-2.8 5.3-4.7 5.3-1.6 0-1.7-2.4-.1-5 1.6-2.4 4.8-2.6 4.8-.3m-7.3 3c-.4.3-1 .3-1.4 0-.3-.4 0-.7.7-.7s1 .3.7.7M588 835.6c0 2.1.4 3.3 1 2.9.6-.3 1-1.9 1-3.6 0-1.6-.4-2.9-1-2.9-.5 0-1 1.6-1 3.6M464 838.5c.1 1.9 3.7 7.2 4.4 6.4.1-.2-.8-2.2-2-4.4-1.7-2.8-2.4-3.4-2.4-2M589.7 846.2c1 1.7 2.5 3.3 3.3 3.6.9.3.7-.4-.7-2-1.3-1.3-2.3-3-2.3-3.6 0-.7-.5-1.2-1.1-1.2s-.3 1.3.8 3.2M475 849c3.3 2.6 4.8 2.6 2.5 0-1-1.1-2.5-2-3.4-2-1.2 0-.9.6.9 2"/><path d="M485 853.8c0 .8 5.2 4.2 6.5 4.2.3 0 .3-.5 0-1-.9-1.4-6.5-4.2-6.5-3.2M600 854.5c3.3 1.9 4.9 1.9 2.4 0-1-.8-2.6-1.4-3.4-1.4-.9 0-.4.6 1 1.4M612 861c1.4 1 2.7 1.6 3 1.3.6-.6-3-3.3-4.4-3.3-.6 0 0 .9 1.4 2M498 862c0 .5.5 1 1.1 1s2.4.9 4 2.1c2 1.4 2.9 1.6 2.9.7 0-.7-1.4-2.1-3.1-3.1-3.5-1.9-4.9-2.2-4.9-.7M306 862.5c0 .3.2.5.5.5s.5-.2.5-.5-.2-.5-.5-.5-.5.2-.5.5M520.6 865.6c-3.5 1.7-5.8 1.8-7.5.1-1-1-1.6-.7-3.2 1.2-2.5 3-2.4 3.7.6 5.7 1.8 1.2 2.5 2.5 2.5 4.9 0 3.7 2 6.3 7.2 9 3 1.5 4.1 1.7 6.2.7 1.4-.6 3.1-.9 3.8-.6 1.1.4 5.5 5.8 17 20.7.9 1.2 7 8.9 13.4 17.2 6.4 8.2 12 15.9 12.4 17s.7 5.3.6 9.3.1 7.5.6 7.8c.4.3.8-3.5.8-8.4 0-9 0-9 6.3-14.3 3.4-3 6.4-5.6 6.7-5.9s3.9-3.4 8-7c4.1-3.5 7.7-6.7 8-7s4.3-3.9 9-8 8.7-7.7 9-8 3.4-3 7-6 6.8-5.9 7.2-6.5c.5-.6 2-.3 4.2.9 3.3 1.7 3.5 1.7 8.7-.1 6.2-2.1 8.6-5.5 7-9.5-.5-1.3-1.2-3.4-1.5-4.8-.4-1.7-2-3.3-5.2-4.9-4.1-2.2-4.9-2.3-7.7-1.2-1.8.7-3.9 1.3-4.7 1.2-.8 0-2.8-.2-4.5-.3-2.6-.3-3 .1-3.3 2.4-.3 2.2.2 3 2.2 4 2.1.9 2.6 1.8 2.6 4.8 0 2 .5 4.1 1 4.6 1 1-2.4 4.7-13.1 13.8-3.8 3.3-19.1 16.8-19.9 17.6-.3.3-3.9 3.4-8 7s-7.7 6.7-8 7c-2.1 2.2-11 9-11.7 9-.4 0-3.3-3.2-6.3-7.2-3-3.9-6.9-8.7-8.5-10.7-1.7-2-5.1-6.3-7.5-9.6-2.5-3.3-4.7-6.2-5-6.5s-2.1-2.5-4-5-4-5.1-4.6-5.7c-.7-.7-2.2-2.9-3.4-4.8-2-3.2-2.1-3.8-.7-5.3 2.1-2.3 2.2-4 .8-9.4-1.5-5.2-3.1-7.1-8.2-9.2-3.1-1.3-3.9-1.3-6.3 0m.1 4.2c-1.5 1.5-3.3 4.5-4.1 6.7-1.5 4-1.5 4-1.5.4-.1-2.7.7-4.3 3-6.7 1.7-1.8 3.6-3.2 4.2-3.2s-.1 1.3-1.6 2.8m-8.7-1.4c0 .3-.4.8-1 1.1-.5.3-1 .1-1-.4 0-.6.5-1.1 1-1.1.6 0 1 .2 1 .4m15.8.2c2.8.8 2.9 2.4.1 2.4-1.3 0-1.8-.4-1.3-1.3.4-.6-.5-.1-1.9 1.2-1.5 1.3-3.6 4.7-4.6 7.5-2 5.1-2 5.1-2 1.1-.1-3.1.6-4.9 3-7.8 3.3-4 3.3-4 6.7-3.1m-12 1.6c-.6 1.8-2.8 2.1-2.8.4 0-.9.7-1.6 1.6-1.6s1.4.5 1.2 1.2m117.2.2c0 1.6-1.8 3.1-2.7 2.2-.8-.8.5-3.6 1.7-3.6.5 0 1 .6 1 1.4m6.1 4.2c-1.2 1.5-2.1 4-2.1 5.5 0 1.6-.4 2.9-1 2.9-.5 0-1-1.2-1-2.8 0-3 5.1-11.4 5.8-9.4.2.6-.6 2.4-1.7 3.8m5.4-1.3c-1.9 1.9-3.7 4.7-4 6.3-1.2 5.1-1.9 6.1-2.3 3.2-.6-4.4 4.8-12.8 8.2-12.8.8 0 0 1.4-1.9 3.3m-111.8-.6c-.4.3-.7 0-.7-.7s.3-1 .7-.7c.3.4.3 1 0 1.4m103.7-.8c.7 1-2.2 3.7-3 2.8-.9-.8.3-3.7 1.5-3.7.5 0 1.2.4 1.5.9m16.1 1.1c2.5 2.7 1.2 3.7-1.4 1.1-1.2-1.2-2.1-2.3-2.1-2.6 0-1.1 1.8-.4 3.5 1.5m-125.3 1.9c-1.9 1.8-3.2 4-3.2 5.4 0 2.3-2.6 4.5-3.8 3.2-.3-.3 0-.5.6-.5.7 0 1.2-1.2 1.2-2.8.1-4 3.6-7.8 7.5-8.1.5-.1-.5 1.2-2.3 2.8m120.5-1.2c-.4.3-1 .3-1.4 0-.3-.4 0-.7.7-.7s1 .3.7.7m-116 2c-.4.3-1 .3-1.4 0-.3-.4 0-.7.7-.7s1 .3.7.7m116.6 1.1c-1.2.9-2.5 2.9-2.8 4.4-.4 1.6-1.2 2.8-1.7 2.8-1.4 0 0-5.1 1.9-7.3.9-.9 2.3-1.7 3.2-1.7 1.2 0 1.1.4-.6 1.8M529 878c0 .5-.7 1-1.5 1s-1.5-.5-1.5-1c0-.6.7-1 1.5-1s1.5.4 1.5 1m6 1c0 2.4-3.7 6.3-5 5.5-1.4-.9-1.2-2.7.6-5.3 1.9-2.7 4.4-2.9 4.4-.2m116.7-1.3c-.4.3-1 .3-1.4 0-.3-.4 0-.7.7-.7s1 .3.7.7M650 880c0 .5-.7 1-1.5 1s-1.5-.5-1.5-1c0-.6.7-1 1.5-1s1.5.4 1.5 1m5 1c0 2.4-3.7 6.3-5.1 5.5-1-.7-.3-4.2 1.3-6.3 1.6-1.9 3.8-1.4 3.8.8m-128.3 1.7c-.4.3-.7 0-.7-.7s.3-1 .7-.7c.3.4.3 1 0 1.4m118.6 4.3c1.9.9 1.9.9-.8.7-2.4-.2-3.1-.7-3.3-2.7-.2-2.2-.1-2.3.9-.7.6 1 2 2.2 3.2 2.7m2.7-3c0 .5-.4 1-1 1-.5 0-1-.5-1-1 0-.6.5-1 1-1 .6 0 1 .4 1 1m-123 1.5c0 .3-.2.5-.5.5s-.5-.2-.5-.5.2-.5.5-.5.5.2.5.5"/><path d="M620 865c0 1 4.9 3.4 5.6 2.7.2-.2-1-1.1-2.6-2.1-1.7-1-3-1.3-3-.6M306.3 869.5c0 2.2.2 3 .4 1.7.2-1.2.2-3 0-4-.3-.9-.5.1-.4 2.3M194.6 871.9c-.4.7-.5 1.5-.2 1.8.9.9 1.9-.4 1.4-1.8-.4-1.1-.6-1.1-1.2 0M200 875c-1.4 1.1-3.1 2-3.8 2-1.7 0-6.1 5.1-6.2 7 0 .8.9 0 2-1.8 1.6-2.7 2.6-3.2 5.7-3.3 2.1 0 3.2-.3 2.5-.6-1.6-.6.3-3.3 2.4-3.3.7 0 1.6-.5 1.9-1 1.1-1.7-1.9-1.1-4.5 1M202.5 880c.3.5 1.1 1 1.6 1 .6 0 .7-.5.4-1-.3-.6-1.1-1-1.6-1-.6 0-.7.4-.4 1M305 881c0 .7.3 1 .7.7.3-.4.3-1 0-1.4-.4-.3-.7 0-.7.7M194.7 885.8c-.8.9-2.1 3.1-2.8 4.7-1.2 3-1.2 3-2-.5-.7-3-.7-2.7-.4 1.5.3 3.8-.1 5.6-1.6 7.4-2 2.5-2.6 6.1-.9 6.1.6 0 1-1.1 1-2.5 0-4.3 5.7-2.7 8.4 2.3.9 1.5 1.5 2.2 1.6 1.5 0-1.7-5-7.3-6.6-7.3-.8 0-1.4-.5-1.4-1.1 0-.8 1.1-.9 3.3-.5 3.2.6 3.2.6.8-1.3-2.2-1.7-2.3-2-1-5.4 1.7-4.8 4.8-6.4 8.9-4.7 1.7.7 3.3 1 3.7.7.8-.8-4.2-2.7-7.1-2.7-1.3 0-3 .8-3.9 1.8M304 884.5c0 .3.2.5.5.5s.5-.2.5-.5-.2-.5-.5-.5-.5.2-.5.5"/><path d="M299.4 888.7c-1.5 2.7-3.1 3.9-7.3 5.4-2.9 1-6.3 2.5-7.5 3.2-1.1.8-6.1 3.6-11.1 6.2-11.3 6.1-16 8.6-20.8 11.5-4.4 2.6-5.2 2.3-3.7-1.4.5-1.5.9-5.1.9-7.9-.2-5.2-.2-5.2-1 1-.8 6.8-3 11.7-5.7 13.2-.9.5-3.5 1.2-5.7 1.5-3.9.7-4 .6-1.7-1 3.5-2.6 2.6-3.5-1.4-1.2-3.2 1.9-4 2-9 .9-3-.7-5.4-1.7-5.4-2.2s.3-.9.8-.9c.4 0 2.1-1.2 3.7-2.6l3-2.5-3.3 1.6c-1.9.9-3.6 1.4-3.9 1.2-.2-.3-1.5.6-2.8 1.9-2.7 2.6-6.8 3.1-11 1.2-3.7-1.7-3.1-2.5 2-2.4 3.3.1 4.8-.4 5.9-1.9 2.3-3 1.9-3.8-.5-1.4-2 2-2.8 2.1-8.8 1.4-3.6-.4-7.8-.6-9.2-.6-1.6.1-3.7-.9-5.3-2.5-1.4-1.5-2.6-2.2-2.6-1.6 0 2.3 6.2 6.2 10 6.2 2.2 0 4.3.6 5 1.6.8.8 3 2.2 4.9 3 2.9 1.2 4.3 1.3 7.1.4s4.2-.8 7.4.5c2.1.9 6.8 1.9 10.5 2.2 7.1.5 7.9.2 29.1-11.5 18-9.8 25.9-13.8 29.5-14.9 3.9-1.2 12.5-7.6 12.5-9.3 0-.4-.6-1-1.3-1.3-.8-.3-2.1 1-3.3 3"/><path d="M248.5 898c.3.5.8 1 1.1 1 .2 0 .4-.5.4-1 0-.6-.5-1-1.1-1-.5 0-.7.4-.4 1M413.5 897.9c-2 .4-3 1.2-2.9 2.4 0 .9.1 6.4.2 12.2l.2 10.5h42.3c23.2 0 43.2-.3 44.5-.6 2.2-.6 2.3-.9 2-12.8l-.3-12.1-41.5-.1c-22.8-.1-42.8.1-44.5.5m83.9 7.5c.3 3.2.6 7.9.6 10.2v4.4h-15.2c-8.4 0-27.4.1-42.3.2l-27 .3-.3-10.2-.3-10.3 20.8-.2c11.4-.2 30.3-.3 41.9-.3h21.2z"/><path d="M421.3 902.5c-1.8 2-1.7 12.9.1 14.4 2.4 2 4.6.2 4.6-3.8 0-3.1-.5-4-2.6-5-3-1.3-2.7-3.7.5-3.4 2.3.3 2.7-.7.9-2.5-1.5-1.5-2-1.5-3.5.3m3.2 8.5c.8 1.3-.4 5-1.6 5-.5 0-.9-1.4-.9-3 0-3 1.3-4 2.5-2M431.2 902.2c-1.4 1.4-1.6 4.8-.2 4.8.6 0 1-.7 1-1.5s.5-1.5 1.1-1.5c.7 0 .8 2.3.3 7.1-.4 4.7-.3 7 .3 6.6s1.3-3.2 1.6-6.4c.4-3.2.8-6.7.9-7.8.4-2.4-3-3.3-5-1.3M453.1 902.4c-.8.9-.8 1.6-.2 2 .5.4 1.3.1 1.7-.5.4-.8.9-.7 1.5.2.5.8.2 2.3-.6 3.5-1.2 1.9-1.2 2.3 0 2.8 1.7.6 2 4.2.6 5.1-.6.3-1.4-.3-2-1.2-.5-1-1.2-1.5-1.6-1.1-1 1 1.4 4.8 3 4.8 2.4 0 3.5-3.5 2.8-9.1-.8-7.3-2.7-9.6-5.2-6.5M475.2 902.2c-1.7 1.7-1.6 13.3.2 14.7 2.5 2.1 4.6.2 4.6-4 0-2.8-.6-4.2-2-5.1-1.1-.7-2-1.9-2-2.6 0-.9.7-1.1 2-.7 1.1.3 2 .2 2-.2 0-1-2.1-3.3-3-3.3-.3 0-1.1.5-1.8 1.2m3.3 9.8c0 1.3-.6 2.5-1.2 2.7-.9.3-1.3-.6-1.3-2.7s.4-3 1.3-2.8c.6.3 1.2 1.5 1.2 2.8M465.2 906.4c-2.7 5.4-2.7 6.6-.2 6.6 1.5 0 2 .7 2 2.5 0 1.4.4 2.5.9 2.5 1.2 0 2-6 .9-6.6-.5-.4-.8-2.3-.7-4.5.4-5.4-.4-5.6-2.9-.5m1.4 4.3c-1 1-1.9-.5-1-1.8.6-1.1.8-1.1 1.2 0 .2.7.1 1.5-.2 1.8M441 910c0 .5 1.6 1 3.5 1s3.5-.5 3.5-1c0-.6-1.6-1-3.5-1s-3.5.4-3.5 1M198 909c0 .7.3 1 .7.7.3-.4.3-1 0-1.4-.4-.3-.7 0-.7.7M216 908.5c0 .3.2.5.5.5s.5-.2.5-.5-.2-.5-.5-.5-.5.2-.5.5M220.2 910.5c0 1.6.2 2.2.5 1.2.2-.9.2-2.3 0-3-.3-.6-.5.1-.5 1.8M202.1 910.6c0 1.1.3 1.4.6.6.3-.7.2-1.6-.1-1.9-.3-.4-.6.2-.5 1.3M435.2 927.5c-.7 1.4-1.2 3.5-1.2 4.5 0 2.5 2.1 7 3.3 7 .5 0 .6-.7.1-1.8-.4-.9-.8-3.3-.8-5.2s.4-4.3.8-5.3c.5-1 .4-1.7-.1-1.7-.6 0-1.5 1.1-2.1 2.5M446 928.7c-.1 3.6-.1 3.7-1.6 1.8-.8-1.1-1.9-2.6-2.3-3.4-1.5-2.5-2.6-.3-2.3 4.3.4 4.8 2.2 6.5 2.2 2.1 0-1.4.4-2.5.8-2.5.5 0 1.4 1.1 2 2.5 1.9 4.1 3.2 2.9 3.2-3 0-3-.4-5.5-1-5.5-.5 0-1 1.7-1 3.7M451.7 926.8c-2.4 2.6-2.1 6.8.5 8.6 2.9 2 3.4 2 5.8-.4 2.5-2.5 2.6-6.2.2-8.3-2.4-2.2-4.5-2.1-6.5.1m5.8 4.2c0 1.8-.6 2.6-2.3 2.8-1.3.2-2.5-.3-2.8-1.2-1-2.6.4-4.8 2.8-4.4 1.7.2 2.3 1 2.3 2.8M466 926.5c-1.6 2-.5 3.2 1.4 1.6 2.7-2.3 2.9 1 .2 3.8-3.4 3.6-3.3 4.1.9 4.1 1.9 0 3.5-.5 3.5-1 0-.6-.7-1-1.5-1s-1.5-.5-1.5-1c0-.6.7-1.3 1.5-1.6 1.8-.7 2-3.5.3-5.2-1.6-1.6-3.3-1.5-4.8.3M473.6 926.7c.5 1 .8 4.2.7 7.2-.1 3.4.2 5 .8 4.4 2.7-2.7 1.7-13.3-1.2-13.3-.7 0-.8.6-.3 1.7M462 935c0 .5.5 1 1 1 .6 0 1-.5 1-1 0-.6-.4-1-1-1-.5 0-1 .4-1 1M531.5 960.2c-.3.8-.7 6.1-.8 11.8-.2 10.4-.2 10.4 3.3 11.1 1.9.4 16.1 1.2 31.5 1.9 15.4.6 33.5 1.4 40.1 1.7l12.2.6.7-9.9c.4-5.5.8-10.8.8-11.9.3-2.6-3.5-3.1-38.3-4.4-15.7-.6-33.1-1.4-38.7-1.7-8.3-.5-10.4-.4-10.8.8m18.2 2.4c1.9.4 2.1.8 1.3 2.9-.5 1.3-.5 2.7-.1 3 .5.3 1.2-.2 1.5-1.1.3-.8 1-1.3 1.5-1 .4.3.2 2.9-.5 5.8-1.6 6-1.7 7.8-.6 7.8.5 0 1.4-3 2.2-6.8.7-3.7 1.5-7.2 1.7-7.9.3-.6-.6-1.4-1.9-1.7-2.9-.6 36 .1 50.5 1l10.7.7v19.9l-9.2-.6c-5.1-.3-15.6-.8-23.3-1.1s-22.3-1.1-32.4-1.7l-18.3-1.2.6-3.5c.3-2 .6-6.4.6-9.8v-6.2l6.8.5c3.7.3 7.7.7 8.9 1"/><path d="M541.1 965.3c-.7 1.3-1.1 4.7-.9 7.7.2 4.4.7 5.6 2.2 5.8 3.8.8 5.1-6.8 1.6-9-1.1-.7-2-1.9-2-2.6 0-.9.7-1.1 2-.7 2.2.7 2.6-.5.8-2.3-1.7-1.7-2.3-1.5-3.7 1.1m2.9 9.3c0 1.3-.4 2.4-1 2.4-.5 0-1-1.4-1-3.1s.4-2.8 1-2.4c.6.3 1 1.7 1 3.1M573.1 966.4c-.8 1-.9 1.6-.1 2.1.5.3 1 .1 1-.4 0-.6.5-1.1 1-1.1 1.4 0 1.2 3.3-.2 4.9-1 1.1-1 1.4 0 1.8 1.4.6 1.7 5.3.2 5.3-.5 0-1-.7-1-1.5s-.4-1.5-1-1.5c-1.7 0-1.1 3.7.6 4.4 3.1 1.2 4.3-1.2 4.1-8.2-.2-5.2-.6-6.7-1.8-7-.9-.1-2.1.4-2.8 1.2M584.8 969.7c-3.3 5.3-3.5 7.3-.8 7.3 1.3 0 2 .7 2 1.9 0 1.1.4 2.2.9 2.5 1.2.8 1.8-3.9 1.1-10.5l-.5-5.7zm.8 5c-1 1-1.9-.5-1-1.8.6-1.1.8-1.1 1.2 0 .2.7.1 1.5-.2 1.8M594.1 967.9c-1.7 3.1-1.4 11.6.5 13.1 1.2 1.1 1.8 1.1 3.1-.2 2.3-2.4 1.9-6.8-.7-8.8-1.3-1-2-2.2-1.6-2.9.6-.9 1.1-.9 2.3.1 1.3 1 1.5.9 1.2-.7-.6-2.7-3.5-3.1-4.8-.6m3.9 8.6c0 2.8-2.4 3.4-3.4.9-.8-2 .1-3.4 2-3.4.8 0 1.4 1 1.4 2.5M561.5 973c.3.5 1.7 1 3 1s2.7-.5 3-1c.4-.6-.8-1-3-1s-3.4.4-3 1M553.2 990.5c-2 4.3-.8 10.5 1.9 10.5.6 0 .5-.8-.2-2.1-1.1-2.1-.9-5.8.6-9.2 1.2-2.7-1.1-2-2.3.8M557.7 992.7c-.3 2.7-.3 5.1 0 5.6.9 1.4 2.3-.4 2.3-3.1s0-2.7 2 .5c2.5 4.2 4 4.2 4-.1 0-1.9.3-4.1.6-5 .4-1 .1-1.6-.9-1.6s-1.7 1.1-1.9 2.7c-.3 2.8-.3 2.8-2.1-.5-1-1.7-2.1-3.2-2.6-3.2s-1.1 2.1-1.4 4.7M569.2 990.2c-2.7 2.7-.4 9.8 3.1 9.8 2.4 0 5.7-3.1 5.7-5.3-.1-4.8-5.7-7.6-8.8-4.5m6.6 3.4c.4 2.5-2 4.7-4.2 3.8-1.6-.6-2.2-4.5-.9-5.8 1.4-1.4 4.8-.1 5.1 2M585.8 990.7c-1.9.5-2.5 3.3-.8 3.3.6 0 1 1.6 1 3.5s.5 3.5 1 3.5c.6 0 1-2.5 1-5.5s-.1-5.4-.2-5.4c-.2.1-1.1.3-2 .6M592.6 993.7c.3 2.1.1 5.1-.5 6.6-.9 2.2-.8 2.8.1 2.5 1.6-.6 2.8-5.5 2.1-9-.9-4.4-2.4-4.5-1.7-.1M579 999c0 .5.7 1 1.5 1s1.5-.5 1.5-1c0-.6-.7-1-1.5-1s-1.5.4-1.5 1M338.1 1002.8c-2.3.7-2.4 1.1-2.6 11.6-.2 10.2-.1 10.8 2 11.6 1.7.6 73.7 1.6 84.3 1.1 2.2-.1 2.2-.4 2.2-12.1v-12h-37.4c-20.5 0-39.3-.2-41.7-.5-2.4-.2-5.5-.1-6.8.3m82.7 12.4-.3 10.1-40.5-.2c-22.2-.1-40.8-.5-41.2-.7-.4-.3-.8-4.8-.8-10v-9.4h83.1z"/><path d="M344.7 1006.7c-.4.3-.7 1.5-.7 2.6 0 1.6.2 1.7 1.5.7 2.3-1.9 2.7-.7 1.7 5.1-.6 3-.7 5.8-.4 6.4.6.9.9-.3 2.8-11.3.6-4 .5-4.2-1.8-4.2-1.4 0-2.8.3-3.1.7M355.6 1008.6c-1.3 3.3-.6 11.2 1.1 12.9 1.6 1.6 1.8 1.6 3.5-.5 2.4-3 2.3-4.7-.8-7.5-1.8-1.7-2.4-3-2-4.2.6-1.5.8-1.5 1.6-.3.5.8 1.2 1.1 1.5.8 1.1-1.1-.5-2.8-2.5-2.8-1 0-2.1.7-2.4 1.6m3.9 8.4c0 1.3-.6 2.5-1.2 2.7-.9.3-1.3-.6-1.3-2.7s.4-3 1.3-2.8c.6.3 1.2 1.5 1.2 2.8M376.9 1009.7c-1.2 3.1-.7 10.9.8 12.4s4.1 0 4.8-2.8c.8-3.5-.3-6.3-2.6-6.3-1.2 0-1.9-.7-1.9-2 0-2.3 1-2.6 2.8-.8.9.9 1.2.7 1.2-1 0-3.3-3.8-2.9-5.1.5m3.9 7.8c-.2 1.4-.7 2.6-1.3 2.6-.5 0-1.1-1.2-1.3-2.6-.2-1.8.1-2.5 1.3-2.5s1.5.7 1.3 2.5M389.5 1015c0 5.9.3 8 1.3 8s1.2-1.9 1-7.7c-.4-10.4-2.3-10.6-2.3-.3M398.4 1009.4c-.9 3.7-.1 6 2.4 7.1s2.6 1.4 1.2 3.5c-.9 1.3-1.1 1.3-1.9 0-.6-.8-1.3-1.1-1.7-.7-1.2 1.1 2.2 4.1 3.9 3.4 1.6-.6 2.6-8.8 1.7-12.9-.8-3.4-4.7-3.7-5.6-.4m4 1.2c1 2.7.7 4.4-.9 4.4q-1.5 0-1.5-3c0-3.2 1.4-4 2.4-1.4M365.5 1015c.3.5 1.9 1 3.6 1 1.6 0 2.9-.5 2.9-1 0-.6-1.6-1-3.6-1-2.1 0-3.3.4-2.9 1M378 1040.6v9.6l-63.8-.7c-61.9-.7-63.9-.7-64.7 1.1-.4 1.1-1 37.6-1.3 81.1-.4 66.4-.2 79.3.9 79.7 2.4.8 210.1 2.1 257.1 1.6 2.5 0 2.7-3.8 3.3-76.5.3-36.3.8-70.2 1.1-75.2.5-7.4.4-9.4-.7-9.7-.8-.3-30.2-.7-65.4-.8l-64-.3-.3-9.8c-.4-12.6-2.2-12.8-2.2-.1m9.5 11.9c2.8.2 31.2.4 63.2.4l58.2.1-.5 60.2c-.2 33.2-.7 69-1 79.5l-.6 19.3-82.2-.5c-118.2-.7-173.6-1.4-174.9-2.2-1.1-.7-.2-145.3 1-154l.6-4.6 65.6.8c36.1.4 67.9.9 70.6 1"/><path d="M308.2 1085.3c-2.7 2.9-2.8 6.8-.2 8.4 1.7 1.1 2 2.6 2.2 12 .3 10.8.3 10.8 3.2 11.1 1.6.2 3.2-.2 3.7-1 .5-.7.9-5.6.9-10.9 0-9.2.1-9.6 2.5-10.7 2.5-1.2 3.4-5.3 1.7-7.8-2.6-3.9-10.8-4.5-14-1.1m12.2 1.6c3.9 4.3-1.2 8.1-8.9 6.7-3.4-.7-3.6-.9-3.3-3.9.3-3.1.4-3.2 5-3.1 2.6 0 4.5-.3 4.2-.8-1-1.6 1.3-.8 3 1.1m-4 10.6c-.4.8-1.5 1.5-2.5 1.5s-1.9-.7-1.9-1.5c0-.9.9-1.5 2.5-1.5 1.8 0 2.3.4 1.9 1.5m.4 3.7c-.7 2-4.8 2.3-4.8.4 0-1.1.9-1.6 2.6-1.6 1.6 0 2.4.5 2.2 1.2m-.3 4.8c-.3.5-1.5 1-2.6 1-1 0-1.9-.5-1.9-1 0-.6 1.2-1 2.6-1s2.3.4 1.9 1m-.5 4c0 .5-.9 1-2 1s-2-.5-2-1c0-.6.9-1 2-1s2 .4 2 1m-.2 4.6c-.9.9-2.1 1.3-2.7 1-2-1.3-1.1-2.6 1.6-2.6 2.5 0 2.6.1 1.1 1.6M372.8 1085c-3.7 2.9-4.1 5.8-1.3 8.6 2.2 2.2 2.5 3.4 2.7 12.7.3 10.2.3 10.2 3.2 10.5 1.6.2 3.2-.2 3.7-1 .5-.7.9-5.3.9-10.2 0-8.8 0-9 3.2-11.6 3-2.5 3.1-2.9 1.9-5.7-2.2-5.3-9.7-7-14.3-3.3m11.4 1.7c4 3.6 1.5 7.3-5 7.3-5.3 0-8.2-1.4-8.2-4s1.8-3.5 6.3-3.3c2 .1 3.7-.2 3.7-.7 0-1.5 1.1-1.2 3.2.7m-4.2 10.8c0 .8-.9 1.5-2 1.5s-2-.7-2-1.5.9-1.5 2-1.5 2 .7 2 1.5m0 4.5c0 .5-.9 1-2 1s-2-.5-2-1c0-.6.9-1 2-1s2 .4 2 1m-.2 4.2c-.3.7-1.1 1.3-1.8 1.3s-1.5-.6-1.7-1.3c-.3-.7.4-1.2 1.7-1.2s2 .5 1.8 1.2m0 4c-.7 1.9-3.8 2.2-3.8.4 0-1 .9-1.6 2.1-1.6s1.9.5 1.7 1.2m.2 3.7c0 .6-.5 1.3-1 1.6-1.5.9-4.3-.3-3.5-1.5.8-1.3 4.5-1.3 4.5-.1M437.4 1084.2c-3.7.9-5 2.3-5.9 6-.5 2.1-.2 3 1.9 4.3 2.4 1.6 2.5 2.2 2.8 11.8.3 9.8.4 10.2 2.6 10.5 4.3.6 5.2-1.3 5.2-10.9 0-8.3.1-8.9 2.5-10.5 6.7-4.4-.8-13.5-9.1-11.2m-1.1 3.5c-.5 1.5-.3 1.6.8.5 1.6-1.4 4.9-1.6 4.9-.2 0 .5.5 1 1.1 1s.9-.7.5-1.5c-.7-2 .3-1.9 2.6.2 3.8 3.4 1 7.2-5.5 7.3-6.9 0-9.9-3.6-6.1-7.4 2-2.1 2.5-2 1.7.1m5.7 10.9c0 1-.7 1.4-2.2 1.2-3.2-.5-3.5-2.8-.4-2.8 1.7 0 2.6.5 2.6 1.6m0 4.5c0 .5-.9.9-2 .9s-2-.6-2-1.4c0-.9.7-1.2 2-.9 1.1.3 2 .9 2 1.4m0 3.5c0 1.5-3.5 2-4.4.5-.7-1.1-.1-1.6 2.4-1.8 1.1-.1 2 .4 2 1.3m0 4.4c0 .5-.9 1-1.9 1-1.1 0-2.3-.5-2.6-1-.4-.6.5-1 1.9-1s2.6.4 2.6 1m-.5 4c-.3.5-1.2 1-2 1s-1.7-.5-2-1c-.4-.6.5-1 2-1s2.4.4 2 1M312 1142.6c-4.9 1.7-6 2.8-6 6.1 0 2.2.7 3.7 2 4.5 1.8 1.1 2 2.4 2 11 0 8 .3 9.9 1.6 10.6 4.6 2.6 6.4-1.2 6.4-13.4 0-5.2.3-6.3 2.5-8.2 2.9-2.6 3.2-5.2.8-8-1.9-2.1-6.7-3.4-9.3-2.6m7.8 3.3c4.3 3.7 1.5 7-5.9 7.1-5.4 0-7.4-1.7-6.5-5.5.6-2.4 3.6-3.6 3.6-1.5 0 .6.8.5 2-.2 1.7-1.1 2.2-1 3 .2.8 1.3 1 1.2 1-.3 0-2.1.2-2.1 2.8.2m-3 10.3c-.3.7-1.3 1.3-2.3 1.3s-2-.6-2.2-1.3c-.3-.7.5-1.2 2.2-1.2s2.5.5 2.3 1.2m-.8 4.3c0 .8-.9 1.5-2 1.5s-2-.7-2-1.5.9-1.5 2-1.5 2 .7 2 1.5m0 4.1c0 1-.7 1.4-2.2 1.2-3.2-.5-3.5-2.8-.4-2.8 1.7 0 2.6.5 2.6 1.6m0 4.1c0 1.4-3.6 1.8-4.4.4-.8-1.2 0-1.7 2.4-1.7 1.1 0 2 .6 2 1.3m-.2 3.5c-.3.7-1.3 1.3-2.3 1.3s-2-.6-2.2-1.3c-.3-.7.5-1.2 2.2-1.2s2.5.5 2.3 1.2M372.4 1144.2c-1.2.5-2.7 2.1-3.3 3.4-.9 2-.7 2.8 1.2 4.7s2.3 3.6 2.7 12.1c.4 8 .8 10.1 2.3 11 3 1.9 5.2-.4 5.4-6 .6-11.4 1.4-15.3 3.3-15.9 2.9-.9 3.1-4.2.3-7.5-1.9-2.4-3.3-3-6.1-2.9-2.1 0-4.7.5-5.8 1.1m1.6 1.9c0 .6.9.8 2 .4 1.2-.4 2.8-.1 3.7.7 1.5 1.1 1.6 1.1 1-.5-.8-2.1.6-2.2 2.7-.1 3.6 3.6 1 6.4-5.9 6.4-6.8 0-9.5-2.8-6.2-6.5 1.4-1.7 2.7-1.9 2.7-.4m5.8 10.1c-.3.7-1.3 1.3-2.3 1.3s-2-.6-2.2-1.3c-.3-.7.5-1.2 2.2-1.2s2.5.5 2.3 1.2m-.3 4.8c0 2.2-3.9 1.9-4.3-.3-.3-1.5.1-1.8 2-1.5 1.2.2 2.3 1 2.3 1.8m-.5 4c0 .5-.9 1-2 1s-2-.5-2-1c0-.6.9-1 2-1s2 .4 2 1m-.2 4.2c-.3.7-1.1 1.3-1.8 1.3s-1.5-.6-1.7-1.3c-.3-.7.4-1.2 1.7-1.2s2 .5 1.8 1.2m0 4c-.3.7-1.1 1.3-1.8 1.3s-1.5-.6-1.7-1.3c-.3-.7.4-1.2 1.7-1.2s2 .5 1.8 1.2M434.3 1144.2c-1.2.6-2.7 2.4-3.4 4-1.1 2.6-.9 3.2 1.5 5.7 2.5 2.6 2.6 3.2 2.4 11.9-.3 10 .5 11.9 4.5 10.8 3-.7 3.7-2.9 3.7-12.7 0-7 .2-7.8 2.5-9.5 7-5.2-2.8-14.2-11.2-10.2m11.7 5.9c0 3-1.5 3.9-6.3 3.9-6 0-7.7-1-7.7-4.2 0-2.2.4-2.9 1.8-2.7.9.1 2.5-.1 3.5-.6 1-.4 2.3-.2 3.2.5 1.2 1 1.5.9 1.5-.4 0-1.4.3-1.4 2-.4 1.2.8 2 2.4 2 3.9m-5 7.4c0 1.6-3.5 2.1-4.4.6-.8-1.2.4-2.1 2.6-2.1 1 0 1.8.7 1.8 1.5m0 4.5c0 .5-.9 1-1.9 1-1.1 0-2.3-.5-2.6-1-.4-.6.5-1 1.9-1s2.6.4 2.6 1m0 4c0 .5-1.1 1-2.5 1s-2.5-.5-2.5-1c0-.6 1.1-1 2.5-1s2.5.4 2.5 1m0 4c0 .5-1.1 1-2.5 1s-2.5-.5-2.5-1c0-.6 1.1-1 2.5-1s2.5.4 2.5 1m0 4c0 .5-1.1 1-2.5 1s-2.5-.5-2.5-1c0-.6 1.1-1 2.5-1s2.5.4 2.5 1M806.6 1220.9c-1.4 1.5-1.6 3.5-1.4 10.7l.3 8.9 15.5 9.2c8.5 5 16.1 9.7 16.8 10.3.6.6 1.2 3.3 1.2 6.1v5l6.3-3.2c4.8-2.6 12.8-7.4 15.5-9.5.2-.1-.8-2-2.2-4.3-1.4-2.2-2.6-4.3-2.6-4.5 0-.3-1.4-2.9-3.1-5.8-1.8-2.9-4.5-7.8-6.2-10.8-3.7-6.9-3.4-6.5-5.2-5-.8.7-1.5 2.5-1.5 4.1 0 3.5-1.6 4.6-3.9 2.5-1-.9-2-1.6-2.3-1.6s-5.8-3.2-12.2-7c-6.4-3.9-12-7-12.4-7-.5 0-1.7.8-2.6 1.9m17.2 10.3c8.5 5.1 15.7 9.2 16.1 9 .6-.2.7-.6.9-5 .3-4.2 1.2-3.3 7.4 7.8 1.1 1.9 3.5 6 5.4 9.1s3.4 6.1 3.4 6.7c0 .9-14.4 9.7-15.9 9.7-.3 0-.8-2-1.1-4.5-.5-4.5-.5-4.5-11.5-11.3-6-3.7-13.4-8.1-16.2-9.8-5.3-3.1-5.3-3.1-5.3-12 0-4.9.3-8.9.7-8.9s7.6 4.2 16.1 9.2"/><path d="M809.1 1232.7c.1 3.2.3 5 .6 4 .5-2 2.4-2.2 4.1-.5.9.9 1.2.9 1.2 0 0-.6-1.1-1.9-2.5-2.8-3.3-2.2-3.2-3.8.3-3 2.7.7 2.7.7.2-1.4-1.4-1.1-2.8-2-3.2-2-.5 0-.7 2.6-.7 5.7M818 1237.7c.5 5.7 2.3 8.1 3.3 4.3.8-3.3 2.7-2.3 2.7 1.4 0 1.9.4 3.7.9 4 1.1.7 3.1-4.8 3-8.3 0-2.6 0-2.6-1.1-.1s-1.1 2.5-2-.8c-1-3.7-2.3-4.1-3.3-1-.7 2.1-.8 2-1.4-1.1-1-5.9-2.7-4.7-2.1 1.6M830 1245.4c0 6.1 1.4 7.9 5.7 7.4 3-.3 4-2.8 2.9-7.2-.4-1.8-6-5.6-8.1-5.6-.3 0-.5 2.4-.5 5.4m6.4-.2c2.6 3.7 2.1 5.8-1.4 5.8-2.8 0-3-.2-3-4 0-4.6 1.9-5.4 4.4-1.8"/></svg>