<svg xmlns="http://www.w3.org/2000/svg" viewBox="0 0 992 1402" fill="currentColor"><path d="M142.5 172.1c-5.5 3.3-10.3 6.4-10.8 6.8-.4.4.8 2.7 2.6 5.2 1.8 2.4 5.3 7.3 7.7 10.8 2.3 3.5 4.9 7.1 5.6 8 .8.9 1.9 2.4 2.6 3.4 1.2 1.6 1.5 1.6 3.6.2 1.2-.9 2.2-2.7 2.2-4.1 0-1.3.2-2.4.5-2.4s7.5 3.5 16 7.7c15.1 7.6 15.6 7.7 18.3 6.2 2.6-1.5 2.7-1.8 2.4-8.5-.4-10.4-.5-10.6-6.9-13.3-3.2-1.4-11.6-5.4-18.8-9-13-6.6-13-6.6-13.3-11.9-.2-2.8-.6-5.2-1-5.2s-5.2 2.7-10.7 6.1m7.7 3.4c.3 4 .3 4 17.8 12.7 9.6 4.8 17.9 8.9 18.4 9.1 1.4.5 2.1 15.7.8 15.7-.5 0-5-2-9.8-4.4-15.2-7.4-23.8-11.5-25.4-11.8-1.1-.2-1.4.5-1.1 2.9.1 1.8-.1 3.3-.6 3.3-1.2 0-16.3-21.5-16.3-23.2.1-1.6 14.2-10 15.2-9 .4.4.8 2.5 1 4.7"/><path d="M151 187.4c0 3 .3 6.1.6 7 1 2.5 2.4 1.9 2.4-1 0-2.1.4-2.4 2-1.9 1.1.4 2 .2 2-.4s-.9-1.6-2-2.3c-2.8-1.8-2.7-4.3.1-2.8 3.5 1.9 3.3.2-.2-1.9-1.9-1.2-3.7-2.1-4.1-2.1-.5 0-.8 2.4-.8 5.4M161.7 192.7c.3 3.2.9 6.2 1.3 6.7 1.1 1.1 3-.1 3-2 0-2.8 1.7-1.3 2.6 2.3 1.1 4.3 3.4 5.7 3.4 1.9 0-1.3.5-3.7 1-5.1 1.4-3.6.1-5.4-1.6-2.4-1.3 2.4-1.3 2.4-2-.9-.7-3.5-3.4-4.5-3.4-1.2s-1.8 2.3-2.2-1.2c-.2-1.7-.8-3.3-1.5-3.5-.8-.3-1 1.2-.6 5.4M175.4 195.4c-.3.7-.4 3.5-.2 6.2.3 4.3.7 5.1 3.2 6.3 4.8 2.2 8.8-1.6 7-6.6-1.2-3.4-9.1-8.1-10-5.9m7.2 5.1c2.1 3.2 1.2 5.5-2.1 5.5-2.3 0-2.5-.4-2.5-4 0-4.7 2-5.4 4.6-1.5M317.8 338.2c-6.9 4.4-8.3 6.9-5.6 9.6 1.8 1.8 4 1.5 8.3-1.5 3.9-2.6 3.9-2.6 21.9.2 10 1.5 20.5 3 23.4 3.4 4.3.6 5.7 1.3 8.2 4.2 1.6 1.8 2.9 3.7 3 4.1.1 3 21.8 5.9 22.7 3 .7-1.9 3.7-1.4 5.1.8 1.3 2.1 7.5 2.9 8.7 1 .3-.6 5.1-.7 12.3-.3 6.4.4 13.6.6 15.8.5 5.3-.3 40.9 5.2 57.9 8.8 2.8.5 7.3 1.4 10 2 14.1 2.6 24.1 6.6 32.2 12.7 9.5 7.2 12.3 11.8 12.5 20.6.1 7.5-1.6 11.3-8.1 17.7-6 5.8-21.2 15-25 15-2.1 0-3.6.8-5.1 3-1.5 2-3 3-4.8 3s-3.9 1.4-6.7 4.2c-4.5 4.8-3 3.8-58.5 37.8-18.7 11.5-19.8 12-22.4 12-1.3 0-3.7 1.4-5.5 3.2-1.7 1.7-3.9 3.2-4.8 3.3-3.9.3-6.2 1.7-7.1 4.3-.7 2.1-3.7 4.4-11.8 9.1-6 3.5-14.6 8.6-19.2 11.2-28.3 16.6-47.9 40.2-58.1 70.4-7.9 23.4-5.3 43.2 7.5 57.4 2.6 2.9 6.1 5.8 7.8 6.6s5.4 2.8 8.1 4.5c2.8 1.6 7.3 4.2 10 5.6 2.8 1.5 5.2 3 5.3 3.5.2.5.7.9 1.2.9.4 0 6.3 3.1 13 7 6.7 3.8 12.3 7 12.5 7 .1 0 2.4 2 5.1 4.5 4.7 4.3 5 4.4 10.2 4 4.4-.4 6.1 0 10 2.2 2.6 1.4 8.1 4.4 12.2 6.6s8 4.4 8.7 4.9 2.2.7 3.5.3q2.4-.6.9.3c-1 .7.7 2.1 6.8 5.3 6.6 3.6 8.1 4.8 7.7 6.3-.7 2.9 1 5.4 5.5 7.7 4.1 2 8.9 2 8.9-.1 0-1.5 2.8-1.2 5.6.6 1.3.9 2.7 1.4 3.1 1.1.3-.4-.8-1.4-2.5-2.4-2.7-1.5-3.2-2.4-3.4-6.3-.3-4.3-.5-4.6-5-6.8s-5-2.3-7.9-.8c-3 1.5-3.4 1.5-8.8-1.5-3.1-1.8-9.4-5.2-14.1-7.7s-11-5.9-14-7.6-6.7-3.7-8.1-4.3-3.4-2.8-4.4-5c-2.1-4.5-5.2-7.2-8.3-7.3-3.1 0-3.4-.2-29.5-15.2-10.4-5.9-19.1-10.8-19.3-10.8-1.2 0-13.1-8.6-15.2-10.9-8.5-9.8-9.5-29.1-2.6-49.9 5.6-16.5 15.7-33.1 26.1-42.8 1.8-1.6 5.1-4.7 7.3-6.8 2.3-2.1 10.9-7.7 19.3-12.5s18.6-10.8 22.8-13.4c4.9-2.9 8.3-4.4 9.6-4.1 1.3.4 3-.4 5.1-2.5 1.7-1.7 4.8-3.7 6.9-4.4 2.3-.7 4.2-2.2 5-3.7.7-1.4 3.1-3.7 5.5-5s12.9-7.8 23.3-14.4c43.9-27.6 50-31.1 53.2-30.7 1.3.1 2.9-.7 4-1.9 3.5-4.3 4.6-5.1 6.1-4.5 2 .7 6.2-2.1 6.2-4.3 0-1.1 4.2-4.4 11.7-9.2 16.3-10.5 22.1-17 24.1-26.9.8-3.6.8-3.6 9.7-4.2 5-.4 22.7-1 39.5-1.4 29.8-.7 33.9-.9 32.7-2.1-.7-.7-46.7-.5-47.7.1-.4.2-8.1.5-17.1.6l-16.4.1-.7-4.4c-.3-2.3-1.1-5.5-1.7-7-2.3-6-13.5-16-23.6-21.1-5.8-2.9-22.4-8.1-31-9.7-3.3-.6-8-1.5-10.5-2-8.7-1.6-16.6-3-32.5-5.5-17.3-2.7-32.1-5.4-34.5-6.2-.8-.3-2.8-.7-4.5-.9-1.6-.3-3.4-.9-3.9-1.4-.6-.6-2-1-3.1-1-1.2 0-3-.9-4-2-2.2-2.4-5.3-2.6-8.3-.4-2.2 1.5-2.5 1.5-4.5-.4-3.7-3.3-23.7-5.3-23.7-2.3 0 1.8-6.2 3.4-10.8 2.7-2.6-.4-11.9-1.7-20.7-2.9-14.3-2-16-2.4-16.3-4.2-1.1-5.7-3.8-5.7-12.4-.3m10.2-1.7c1.7 2.1.3 3.5-3.6 3.5-3 0-3.5.3-3.2 2.1.2 1.2-.4 2.5-1.2 2.9s-2.5 1.2-3.7 1.8c-1.7.9-2.4.8-3.4-.4-1.6-2-.3-3 1.7-1.3 1.5 1.2 1.6 1.2 1-.7-.5-1.8.3-2.8 4.6-5.7 6.1-4.2 6.2-4.2 7.8-2.2m-2 5c0 .3-.2.5-.5.5s-.5-.2-.5-.5.2-.5.5-.5.5.2.5.5m4.7 1.2c-.4.3-1 .3-1.4 0-.3-.4 0-.7.7-.7s1 .3.7.7m4 1c-.4.3-.7 0-.7-.7s.3-1 .7-.7c.3.4.3 1 0 1.4m4.3-.2c0 .3-.2.5-.5.5s-.5-.2-.5-.5.2-.5.5-.5.5.2.5.5m48 .3c0 .4-.6 2.5-1.4 4.6-1 2.8-1.1 4.9-.4 7.4 1.1 3.8.8 4.5-1.5 3.7-2.8-1.1-4.2-6.3-2.9-10.9.6-2.4.7-4.3.1-4.6-.5-.4.7-.6 2.6-.7s3.5.2 3.5.5m-43.3.9c-.4.3-1 .3-1.4 0-.3-.4 0-.7.7-.7s1 .3.7.7m4.3.3c0 .5-.4 1-1 1-.5 0-1-.5-1-1 0-.6.5-1 1-1 .6 0 1 .4 1 1m44.6.2c-2.4 5.9-2.9 8.9-1.7 11.4 1.4 3.1.8 4.2-1.4 2.4-2-1.7-2-9.9.1-12.8 1.6-2.3 3.9-3.1 3-1m-38.9.4c-.3.3-1.2.4-1.9.1-.8-.3-.5-.6.6-.6 1.1-.1 1.7.2 1.3.5m46.3.3c0 .5-.9 1.2-1.9 1.6-1 .3-2.2 1.7-2.5 3-.7 2.9.2 7.5 1.5 7.5.5 0 .9.7.9 1.5 0 2-1.9 1.9-4.2-.2-2.3-2-2.4-8.5-.2-11.8 1.6-2.4 6.4-3.6 6.4-1.6m-42.3.8c-.4.3-1 .3-1.4 0-.3-.4 0-.7.7-.7s1 .3.7.7m4.8.3c.3.5-.1 1-.9 1-.9 0-1.6-.5-1.6-1 0-.6.4-1 .9-1 .6 0 1.3.4 1.6 1m16.5 3c0 2.9-.4 4-1.5 4-1.6 0-2-3.5-.9-6.4s2.4-1.6 2.4 2.4m34.3-3.4c.3.3-.4 2.1-1.5 4-1.9 3.3-2 5.7-.3 9.6.5 1.4.2 1.8-1.2 1.8-1 0-2.4-.5-3.1-1.2-1.8-1.8-1.5-10.8.5-13 1.6-1.8 4.4-2.4 5.6-1.2m-45.6 1c-.3.3-1.2.4-1.9.1-.8-.3-.5-.6.6-.6 1.1-.1 1.7.2 1.3.5m5 1c-.3.3-1.2.4-1.9.1-.8-.3-.5-.6.6-.6 1.1-.1 1.7.2 1.3.5m2 1.1c-.4.3-.7 0-.7-.7s.3-1 .7-.7c.3.4.3 1 0 1.4m27.9.5c-.3 1.3-.6 3.5-.6 5 0 2.1-.5 2.8-1.9 2.8-2 0-3.1-1.8-3.1-5.4 0-2.7 1.8-4.6 4.3-4.6 1.5 0 1.8.5 1.3 2.2m12.4.3c0 .3-.2.5-.5.5s-.5-.2-.5-.5.2-.5.5-.5.5.2.5.5m4.1 1.6c-.3.8-.5 2.9-.5 4.6-.1 2-.6 3.3-1.3 3.3-1.4 0-1.9-8.1-.6-9.4 1.1-1.1 2.8 0 2.4 1.5m2.7 3.9c0 2.2-.4 4-.9 4s-.9-1.8-.9-4 .4-4 .9-4c.6 0 .9 1.8.9 4m3.4.4c-.2 2-.8 3.6-1.3 3.6-1 0-1.2-4-.3-6.4 1-2.7 2-.9 1.6 2.8m-11.2-1.9c0 .8-.4 1.5-1 1.5-.5 0-1-.7-1-1.5s.5-1.5 1-1.5c.6 0 1 .7 1 1.5m25.8 3.8c.3 3.3.1 3.8-1.5 3.4-1-.3-3.4-.8-5.5-1.1-3.7-.7-5.2-2.4-4.1-5.1.4-1.2 1.8-1.5 5.7-1.3 5.1.3 5.1.3 5.4 4.1m-13.1-1.6c-.4.3-.7 0-.7-.7s.3-1 .7-.7c.3.4.3 1 0 1.4m-46.7.9c0 .8-.4 1.2-1 .9-.5-.3-1-1-1-1.6 0-.5.5-.9 1-.9.6 0 1 .7 1 1.6m62-.1c0 .3-.2.5-.5.5s-.5-.2-.5-.5.2-.5.5-.5.5.2.5.5m22.7 2c4.3.8 15 2.6 23.8 4.1 31.5 5.1 46.4 9.9 59 18.9 10.3 7.3 14.4 13.7 15.2 23.5.5 5.8.2 7.5-1.9 12.1-3.6 7.7-7 11.3-17.2 18.2-13.4 8.8-15.3 9.8-16.4 8.4-2.3-3-1.9-3.6 5.8-8.2 16.2-9.5 23-18.2 23-29.2 0-16.7-17.3-29.1-49.8-35.9-21.1-4.4-28.8-5.7-54.9-9.6-6.3-.9-7.3-1.3-7.3-3 0-1.9.4-2 6.4-1.3 3.6.3 10 1.3 14.3 2M414 359c0 .5-.2 1-.4 1-.3 0-.8-.5-1.1-1-.3-.6-.1-1 .4-1 .6 0 1.1.4 1.1 1m12.7.7c-.4.3-.7 0-.7-.7s.3-1 .7-.7c.3.4.3 1 0 1.4m15.3-.2c0 .3-.2.5-.5.5s-.5-.2-.5-.5.2-.5.5-.5.5.2.5.5m83.5 85.5c.3.5.4 1 .1 1s-.8-.5-1.1-1c-.3-.6-.4-1-.1-1s.8.4 1.1 1m-4.3 2.5c.8 1.9.8 2.8-.2 4-1.8 2.2-3.5 1.9-5.5-1.1-1.6-2.4-1.6-2.6.2-4 2.7-2 4.2-1.7 5.5 1.1m5.8 1c0 .3-.2.5-.5.5s-.5-.2-.5-.5.2-.5.5-.5.5.2.5.5m-13 2c0 .3-.2.5-.5.5s-.5-.2-.5-.5.2-.5.5-.5.5.2.5.5m9.7 1.7c-.3.8-.6.5-.6-.6-.1-1.1.2-1.7.5-1.3.3.3.4 1.2.1 1.9m-12.7 1.3c1.9 2.3.7 3.8-5.6 7.3-7.7 4.3-16.5 9.7-54.9 33.9-6 3.8-13.1 8.1-15.7 9.6-4.7 2.7-4.7 2.7-6.3.5-1.5-2.2-1.4-2.4.7-4.1 1.2-1 4.7-3.3 7.7-5.1 5.3-3.2 11.9-7.2 30.4-18.8 4.5-2.8 14-8.7 21.1-13s14-8.7 15.5-9.8c3.1-2.3 5.4-2.5 7.1-.5m4-1c0 .3-.2.5-.5.5s-.5-.2-.5-.5.2-.5.5-.5.5.2.5.5m.7 3.2c-.4.3-.7 0-.7-.7s.3-1 .7-.7c.3.4.3 1 0 1.4m-1.7 2.7c0 .3-.4.8-1 1.1-.5.3-1 .1-1-.4 0-.6.5-1.1 1-1.1.6 0 1 .2 1 .4m-86.4 48.2c1 3.9.1 3.6-2.3-.7-2-3.6-2-3.8-.2-2.9 1 .6 2.2 2.2 2.5 3.6m-5.6-2.1c0 .3-.2.5-.5.5s-.5-.2-.5-.5.2-.5.5-.5.5.2.5.5m.6 3.6c1.4 1.5 1.6 2.4.7 3.7-1.5 2.5-4.2 2.1-6.1-1.1-1.5-2.4-1.5-2.9-.2-3.7 2.3-1.4 3.5-1.2 5.6 1.1m-5.7 4.6c1.4 3 1.4 5.3.1 5.3-.5 0-1-.8-1-1.8 0-.9-.9-2.8-2-4.2s-2-2.8-2-3.3c0-1.4 3.9 1.7 4.9 4m8.8-1.5c-.3.8-.6.5-.6-.6-.1-1.1.2-1.7.5-1.3.3.3.4 1.2.1 1.9m-13.3 3.4c.3.9.6 1.9.6 2.4 0 .4-5.5 4.1-12.2 8-6.8 4-16 9.4-20.6 12.1-4.5 2.7-8.5 4.9-8.8 4.9-2.1 0-17.4 13.5-24.5 21.6-9.9 11.4-19.8 31.2-23.4 46.9-2.7 11.3-2.1 27.3 1.2 34.2 4 8.8 8.7 12.4 34.3 26.8 5.8 3.2 13.8 7.8 17.7 10.2 4 2.4 7.7 4.3 8.3 4.3 1.1 0 1.3 2 .4 4.4-.7 1.7-3.4 2.1-4.9.7-.6-.4-3.9-2.4-7.5-4.4-3.6-1.9-12.6-7-20-11.2-7.4-4.3-15.8-9.1-18.7-10.7-15.8-8.8-23.2-28.1-19.2-50.4 2.7-15.6 11.7-35.2 22.8-49.9 3.6-4.6 17.5-17.7 24.3-22.8 4-3 12.3-8.3 18.3-11.8 6.1-3.5 14.8-8.7 19.5-11.6 9-5.5 11.4-6.3 12.4-3.7m2.3 5.1c-.4.3-.7 0-.7-.7s.3-1 .7-.7c.3.4.3 1 0 1.4M392 689.4c0 1.5-4.4 7.5-5.1 7-1.3-.8-1.1-4.8.3-6.2 1.1-1.1 4.8-1.7 4.8-.8m7 2.6c.8.5 1.2 1 1 1.2-.3.2-1.4.8-2.5 1.4s-2.1 2.3-2.3 3.8c-.5 4.2-3.7 3-3.5-1.2.2-5.3 3.5-7.7 7.3-5.2m3 5.4c0 .7-.7 1.9-1.6 2.6-1.2 1.1-1.8 1.1-3.1-.2-.8-.9-1.2-2.1-.9-2.7 1-1.6 5.6-1.4 5.6.3m2 3.1c0 .3-.2.5-.5.5s-.5-.2-.5-.5.2-.5.5-.5.5.2.5.5m21.5 11.5c.3.5.1 1-.4 1-.6 0-1.1-.5-1.1-1 0-.6.2-1 .4-1 .3 0 .8.4 1.1 1m33.8 11.6c.4.4-.5 2-1.8 3.6-1.4 1.6-2.5 3.8-2.5 4.9 0 2.1-2 2.5-3.8.7-1.6-1.6-1.5-2.8.8-6.6 1.9-3 5.5-4.3 7.3-2.6m-8.3.9c0 .3-.2.5-.5.5s-.5-.2-.5-.5.2-.5.5-.5.5.2.5.5m12.8 3.3c.3.9-.3 1.1-2.1.7-3.2-.8-5.4 2.4-3.7 5.4 1.4 2.8 1.2 3.6-.5 2.1-2.1-1.7-1.9-4.3.6-7.4 2.2-2.8 4.9-3.1 5.7-.8m-1.8 3.6c0 .8-.7 1.6-1.5 2-1.5.5-2.1-1.4-.8-2.7 1.1-1.2 2.3-.8 2.3.7M696 392c-14.6.4-31.6 1.1-37.9 1.5l-11.4.7.7 6.7c.3 3.6.6 9 .6 12v5.4l24.8-.8c13.6-.4 33.5-1.1 44.2-1.4l19.5-.6-.2-11c-.1-6-.5-11.5-.7-12.2-.4-.9-2.5-1.2-6.8-1.1-3.5.1-18.2.4-32.8.8m37.8 11.6.3 10.1-34.3.7c-18.9.4-37.7.8-41.8.9l-7.5.2-.3-9.6-.3-9.6 9.3-.6c5.1-.4 22.6-1 38.8-1.3 16.2-.4 29.7-.9 30-1.1.2-.2 1.6-.3 3-.1 2.5.3 2.5.4 2.8 10.4"/><path d="M690.6 398.2c-2.9 4.1-1.3 14.3 2 13.6 4.1-.8 4.3-8.5.4-9.5-2-.5-2.6-2.3-1.3-3.6.3-.4 1.2-.2 2 .4 1.4 1.3 1.6.9.7-1.5-.8-2.2-2-2-3.8.6m3.4 8.8c0 1.6-.4 3-.9 3-1.2 0-2.4-3.7-1.6-5 1.2-2 2.5-1 2.5 2M701.2 397.2c-1.5 1.5-1.6 10.2-.2 12.9 1.5 2.7 3.9 2.4 5-.6 1.2-3.1-.3-7.5-2.5-7.5-.8 0-1.5-.9-1.5-2s.5-2 1-2c.6 0 1 .5 1 1.2 0 .9.3.9 1.1.1 1.3-1.3.4-3.3-1.5-3.3-.6 0-1.7.5-2.4 1.2m3.3 7.8c.9 1.4-.4 5.2-1.6 4.5-1.2-.8-1.2-5.5 0-5.5.6 0 1.3.5 1.6 1M711.2 398c-1.5 2.5-1.5 5.4 0 9.7 2.4 6.6 6.4 3.1 5.9-5.2-.3-6.2-3.4-8.5-5.9-4.5m3.8 5.5c0 5.3-1.1 7.2-2.4 3.9-.8-2.1-.8-7.9.1-8.7 1.6-1.7 2.3-.3 2.3 4.8M669.9 397c0 .3-.1 4-.2 8.3-.2 6.3.1 7.7 1.3 7.7 1.3 0 1.5-1.2 1.2-7.3-.2-3.9-.8-7.6-1.3-8.2-.5-.5-.9-.7-1-.5M658.2 402.6c-2.3 4.6-2.2 6.4.4 6.4.8 0 1.4.9 1.4 2 0 2.7 1.7 2.5 2.2-.3.5-3.2-.3-12.7-1.1-12.7-.4 0-1.7 2.1-2.9 4.6m1.4 4.1c-1 1-1.9-.5-1-1.8.6-1.1.8-1.1 1.2 0 .2.7.1 1.5-.2 1.8M678 405c0 .5 1.3 1 2.9 1 1.7 0 3.3-.5 3.6-1 .4-.6-.8-1-2.9-1-2 0-3.6.4-3.6 1M474 739.8c0 .8 8 5.2 9.5 5.2 1.4 0-.4-1.5-4.8-3.9-4.1-2.3-4.7-2.5-4.7-1.3M487 747.5c0 .8 10.2 5.7 10.8 5.1.6-.7.9-.5-4.4-3.4-4-2.1-6.4-2.8-6.4-1.7M502 755.7c.1.8 10.3 6.3 11.5 6.3 1.7 0-1.2-2.3-5.5-4.5-5.3-2.7-6-2.9-6-1.8M517 763.7c0 .5 2.7 2.2 6.1 3.9 7.3 3.9 7.4 2.4.1-1.7-5.7-3.1-6.2-3.3-6.2-2.2M538.3 776c5.1 3.2 5.7 3.4 5.7 2.2 0-1-7.3-5.2-9.1-5.2-.7 0 .8 1.3 3.4 3M548.4 780.9c.6.9 8.2 5.1 9.2 5.1 1.4 0-1.2-2.2-4.6-4-4.3-2.2-5.4-2.5-4.6-1.1M562 787.8c0 1.1 11.1 7.4 11.8 6.7s.7-.7-6-4.3c-3.2-1.7-5.8-2.8-5.8-2.4M578 796.7c0 .5 1.8 1.8 4 3.1 2.2 1.2 4 1.8 4 1.3 0-.6-1.8-2-4-3.1s-4-1.7-4-1.3M601.6 798.9c-.3.4-1.6.6-2.9.4-1.4-.3-2.9.3-4.1 1.6-1.1 1.2-2.5 2.1-3.2 2.1-.9 0-1.2 2-1.1 7.3.2 6.1.6 8 2.8 11.3 2.7 4 2.7 4 3 40.3.4 35.3.3 36.3-1.6 37.7-1.1.8-2.9 2.1-4 2.9-1.1.9-8.5 5.5-16.5 10.2-20.1 11.9-25 15.2-25 17.2 0 .9-.5 2.2-1.2 2.9-.9.9-.7 1.2.9 1.2 1.2 0 2.5.4 2.8 1 1.2 2 4.4.9 15.1-5.6 6-3.6 12.3-7.4 13.9-8.4 1.7-.9 6.1-3.6 9.8-5.9 3.8-2.3 7.2-3.9 7.6-3.6.5.2 1.1 2.3 1.5 4.4.6 4 4.3 13 12.9 31.1 2.4 5.2 6.7 14.3 9.5 20.1 2.7 5.8 6.2 13.5 7.8 17 3.1 7.1 4.3 8.9 10.8 16 2.5 2.7 4.8 5.9 5.1 7.2.4 1.2 3.2 7.3 6.2 13.6 6.1 12.7 10 22.3 14.5 35.1 3.8 11 6 14.4 10.6 16.6 3.7 1.7 3.7 1.7 13.1-3.2 7.8-4 9.8-5.6 11.4-8.7 1.7-3.3 1.8-4.5.9-9.1-1-5.2-6.3-19.7-10.3-28.3-1-2.4-1.9-4.5-1.9-4.7 0-.4-7.1-16-9.3-20.5-.7-1.4-2.6-4-4.3-5.8-2.6-2.8-3.8-3.3-7.6-3.3-2.4 0-4.8.4-5.4 1-.5.5-3.2 2.1-5.9 3.5-5 2.5-5 2.5-7.5-.3-8.9-10.1-9.6-11.2-21.6-36.9l-4.4-9.4 3.7-5.7c5.1-8 8.7-13.7 8.8-13.9s9.8-.5 21.6-.9c22.4-.6 24.4-.8 23.4-2.3-.5-.9-39.4-.5-44 .4-1.2.3-3.7 3.3-6.3 7.7-4.8 8.2-7.9 12.5-8.5 11.8-1-1.3-10.5-22-11.5-25-3.6-11.6-5.7-75.5-3.6-108.6.6-8.8.5-9.2-1.7-10.8-2.7-1.8-3.5-2-4.3-.7m3.9 47.4c.1 46.7 1.1 64.1 4.2 72.7 1.6 4.5 5 12.1 14.4 31.7 13.4 28.2 16.2 33.5 20.9 39.2 5.1 6 5.1 6 2.9 9.1-1.3 1.6-2.6 3-3 3-1.8 0-11.3-12.6-14-18.7-1.7-3.7-5.3-11.5-8-17.2s-4.9-10.5-4.9-10.6c0-.2-2.9-6.3-6.4-13.7-3.5-7.3-6.7-14.5-7.1-15.8-.4-1.4-1.1-3-1.5-3.5-3-4.2-4.9-29.1-5-66 0-32 0-32-3.1-39.2-3.2-7.1-3.2-7.1-.5-11.7 2.6-4.4 4.6-5.9 4.6-3.4 0 .7-.7 2.2-1.5 3.2-3.3 4.3-.7 9.8 3.5 7.6 3.2-1.7 4.4-5.9 2.4-8.1-1.8-2-1.2-5.2.8-4.4 1 .4 1.3 9.8 1.3 45.8m-4.9-38.7c-.3.9-.6 2-.6 2.5s-.4.9-1 .9c-1.1 0-1.4-3.3-.3-4.3 1.2-1.3 2.5-.7 1.9.9m2.1 1.1c-.4.3-.7 0-.7-.7s.3-1 .7-.7c.3.4.3 1 0 1.4m-6.7 99.2c0 1.5-3.2 3.7-14.9 10.7-2 1.2-7.3 4.4-11.9 7.3-4.6 2.8-8.7 5.1-9.2 5.1s-1.2-.9-1.5-2-1.1-2-1.6-2c-2.7 0 .3-2.3 11.9-9.2 19.6-11.8 24.2-14 25.8-12.7.8.6 1.4 1.9 1.4 2.8m-38.5 23.9c-.6.7-3.4-2.9-3.4-4.3 0-.6.9.1 2 1.4s1.7 2.6 1.4 2.9m-3.7-1.6c1.7 1.7 1.5 3.8-.3 3.8-.8 0-1.5-.7-1.5-1.5s-.4-1.5-1-1.5c-.5 0-1-.5-1-1 0-1.4 2.3-1.3 3.8.2m121.7 63c2.4 2.2 13.2 24.6 18.4 38.3 1.3 3.3 3.2 8.2 4.3 11 1.1 2.7 2.2 7.5 2.5 10.6.5 5.1.3 5.8-2.3 8.7-1.6 1.7-6.2 4.7-10.2 6.8-10 5-10.9 4.5-15.1-8.3-1.8-5.4-4.1-12.1-5.3-14.8-1.2-2.8-2.7-6.5-3.4-8.3-2.5-5.8-4.2-9.5-9.4-20.7-4.9-10.6-5.1-11.1-3.7-14.1 1.1-2.2 3.7-4.2 9.4-7.2 9-4.8 11.2-5.1 14.8-2m-24.9 7c-2.6 3.7-1.9 7.3 3.7 18.6 8.3 16.6 18.7 42.8 18.7 46.9 0 3.1-2.4-1.5-5.4-10.2-3.5-10.3-11.7-29.7-16.7-39.7-4.4-8.7-4.9-12.8-1.9-15.8 2.7-2.7 3.5-2.5 1.6.2"/><path d="M600.5 819.1c-1.2 1.9.5 2.3 2.2.6 1.6-1.6 1.6-1.7.1-1.7-.9 0-2 .5-2.3 1.1M668 994.4c-2 2.5-.9 6.1 1.9 6.1 3.6 0 5-2.9 2.7-5.4s-3-2.6-4.6-.7m4 3.2c0 .8-.9 1.4-2 1.4-2.2 0-2.6-1-.8-2.8 1.3-1.3 2.8-.7 2.8 1.4M657.6 999.5c-2.1 2.2-2 3.8.4 6 1.9 1.7 2.2 1.8 3.7.2 1.3-1.3 1.5-2.3.7-4.4q-1.65-4.95-4.8-1.8m3.4 2.4c0 2.3-1.6 3.6-2.5 2.1-.9-1.4.1-4 1.5-4 .5 0 1 .9 1 1.9M672 1004.5c-1.8 2.1-.4 6.5 2 6.5 2.7 0 4.4-3.4 3-6-1.3-2.4-3.3-2.6-5-.5m4 2.5c0 1.1-.7 2-1.5 2s-1.5-.9-1.5-2 .7-2 1.5-2 1.5.9 1.5 2M663.3 1008.7c-1.8.7-1.6 5.8.2 7.3 2.3 1.9 4.7-.6 4.3-4.4-.3-3-1.9-4-4.5-2.9m3.1 2.2c.7 1.1-.3 4.1-1.4 4.1s-2.1-3-1.4-4.1c.3-.5.9-.9 1.4-.9s1.1.4 1.4.9M676.4 1017.6c-1.1 4.3 4.5 6.8 6 2.7 1.1-2.7-.4-5.3-2.9-5.3-1.8 0-2.6.7-3.1 2.6m4.4 1.1c-.5 2.5-2.8 2.8-2.8.4 0-1.2.6-2.1 1.6-2.1.9 0 1.4.7 1.2 1.7M667.2 1021c-1.6 2.6 0 6 2.8 6 2.4 0 3.8-4.4 2-6.5-1.7-2.1-3.3-1.9-4.8.5m3.8 2c0 1.1-.7 2-1.5 2-1.5 0-2.1-2.1-.8-3.3 1.2-1.3 2.3-.7 2.3 1.3M683.3 1023.8c-1.2.7-1.6 2.5-1.4 5.5.1 2.3 3.9 1.9 5.5-.6 1.8-2.8-1.4-6.6-4.1-4.9m2.7 3.2c0 1.1-.7 2-1.5 2-1.5 0-2.1-2.1-.8-3.3 1.2-1.3 2.3-.7 2.3 1.3M673.2 1030.2c-3 3 .2 9.4 3.3 6.8.8-.7 1.5-2.3 1.5-3.6 0-2.8-3.1-4.9-4.8-3.2m2.8 3.3c0 2.6-1.4 3.3-2.5 1.5-.9-1.4.1-4 1.5-4 .5 0 1 1.1 1 2.5M685.7 1033.6c-1.2 1.2-.8 5.1.7 6.3 1 .9 1.9.7 3.7-.8 2-1.6 2.2-2.3 1.3-3.8-1.2-1.9-4.5-2.9-5.7-1.7m4.1 3.1c-.2 1-1 1.8-1.8 1.8s-1.6-.8-1.8-1.8c-.2-1.2.3-1.7 1.8-1.7s2 .5 1.8 1.7M676.7 1040.6c-1.2 1.2-.8 5.1.7 6.3 2.4 2 4.7.2 4.4-3.3-.2-2.2-.9-3.2-2.3-3.4-1.2-.2-2.4 0-2.8.4m4 2c.8 2-1.3 4.2-2.7 2.8-1.2-1.2-.3-4.4 1.1-4.4.5 0 1.2.7 1.6 1.6M689.2 1043.2c-2.9 2.9.3 8.2 3.6 6.1 2.3-1.4 2.6-3.8.7-5.7-2-1.9-2.7-2-4.3-.4m3.8 3.4c0 .8-.7 1.4-1.5 1.4-1.5 0-2.1-2.1-.9-3.3 1-.9 2.4.2 2.4 1.9M680.1 1051.2c-1.1 2.9.4 5.8 2.9 5.8 1.3 0 2.2-.9 2.6-2.5 1.2-4.7-3.9-7.7-5.5-3.3m3.9 1.8c0 1.1-.7 2-1.5 2s-1.5-.9-1.5-2 .7-2 1.5-2 1.5.9 1.5 2M691.4 1055.5c-.7 2.7 1 5.5 3.2 5.5 2.3 0 4-4.6 2.4-6.5-2-2.4-4.9-1.8-5.6 1m4.6 1.5c0 1.1-.7 2-1.5 2s-1.5-.9-1.5-2 .7-2 1.5-2 1.5.9 1.5 2M684.1 1060.3c-.8 1.1-.9 2.2-.1 4.2 1.1 2.9 3.6 3.1 5.4.2 2.1-3.4-2.7-7.4-5.3-4.4m3.9 2.7c0 1.1-.7 2-1.5 2s-1.5-.9-1.5-2 .7-2 1.5-2 1.5.9 1.5 2M456.8 829.7c-8 .2-13.8.8-13.9 1.3-.1.6-.1 1.9-.1 3s0 6.3.1 11.6l.1 9.7 42.8-.6c23.5-.3 43.5-.8 44.5-1.2 1.5-.6 1.7-2.1 1.7-11 0-5.7-.3-11-.6-11.9-.5-1.4-4.1-1.6-30.8-1.4-16.5.1-36.3.4-43.8.5m71.2 11.8V852h-7.2c-4 0-22.5.3-41 .7l-33.8.6V832l20.3-.3c11.1-.1 29.5-.3 41-.5l20.7-.2z"/><path d="M485.2 834.2c-1.8 1.8-1.6 13.3.3 14.8 2.8 2.3 4.5-.5 4.5-7.4 0-5.5-1.1-8.6-3-8.6-.3 0-1.1.5-1.8 1.2m2.8 7.4c0 3-.4 5.4-.9 5.4-1.3 0-1.7-2.5-1.2-7.7.4-6 2.1-4.3 2.1 2.3M496.9 833c0 .3-.1 4.2-.2 8.8-.2 6.7.1 8.2 1.3 8.2 1.3 0 1.5-1.3 1.2-7.8-.2-4.2-.8-8.1-1.3-8.7-.5-.5-.9-.7-1-.5M505.7 834.4c-.8 2 .4 2.8 2 1.5 1-.9 1.3-.7 1.3.8 0 1-.6 2.5-1.2 3.2-1.1 1-1 1.4.5 2.2.9.6 1.7 1.6 1.7 2.4 0 2-2.1 3-3.1 1.4-1.3-2.1-2.2-.3-.9 2 1.3 2.5 2.3 2.6 4.5.4 1.1-1.1 1.5-2.4 1-4.2-.3-1.4-.6-3.5-.7-4.6 0-4.4-.9-6.5-2.7-6.5-1 0-2.1.6-2.4 1.4M453.5 839c-2.6 5.1-2.6 7 .1 7 .8 0 1.4 1 1.4 2.5 0 1.6.6 2.5 1.5 2.5 1.2 0 1.5-1.5 1.5-7.9 0-4.4-.4-8.3-1-8.6-.5-.3-2.1 1.7-3.5 4.5m2.3 3.2c-.2.6-1 1.4-1.6 1.6-.7.2-1-.2-.6-1.2.7-1.8 2.8-2.2 2.2-.4M464.3 838.8c-2.8 5.9-2.9 7.2-.3 7.2 1.5 0 2 .7 2 2.6 0 1.6.5 2.4 1.3 2.2.7-.3 1.2-2 1.1-3.9-.3-10.8-.5-12.9-1.1-12.9-.5 0-1.8 2.2-3 4.8m1.3 4.9c-1 1-1.9-.5-1-1.8.6-1.1.8-1.1 1.2 0 .2.7.1 1.5-.2 1.8M473 842c0 .5 1.6 1 3.5 1s3.5-.5 3.5-1c0-.6-1.6-1-3.5-1s-3.5.4-3.5 1"/><path d="M539.3 837.8c-2.9 1.4-5.3 3-5.3 3.4s4.1.8 9 .8h9v12c0 12 0 12-2.8 12-1.6 0-6.3.3-10.5.6l-7.7.7v-11.5l-42.2.7c-23.3.4-43 .9-43.8 1-1.2.2-1.5 2.3-1.5 12.6v12.4l33.4-.4c18.4-.2 38.2-.7 44-1l10.6-.6-.2-5.7-.2-5.7 6.2-.5c3.4-.4 8.5-.7 11.2-.9l5-.2V854c0-13.5 0-13.5-2.7-13.8-2.2-.3-2.8-.9-2.8-2.8 0-3.1-2-3-8.7.4M528 868.3v10.4l-38 .7c-20.9.3-39.4.9-41 1.3-3 .5-3 .5-3-10.6V859l34.3-.3c18.8-.1 37.2-.3 41-.5l6.7-.2z"/><path d="M485.6 861.3c-1.4 1-1.6 2.6-1.4 8.2.3 6.7.4 7 2.8 7 2.2 0 2.5-.5 2.8-4.2.2-3.4-.1-4.5-1.7-5.5-2.8-1.7-2.8-4.2-.1-3.3 2.3.7 2.7-.7.7-2.4-1-.8-1.8-.7-3.1.2M488 872c0 1.6-.4 3-1 3-.5 0-1-1.4-1-3 0-1.7.5-3 1-3 .6 0 1 1.3 1 3M453.8 866.5c-2.7 5.6-2.7 6.5.4 6.5 1.4 0 1.8.6 1.6 2.2-.2 1.1.3 2.3 1 2.5 1.3.5 1.5-1.4 1.2-10.2-.1-2.8-.5-5.3-.9-5.7-.3-.4-1.8 1.7-3.3 4.7m1.8 4.2c-1 1-1.9-.5-1-1.8.6-1.1.8-1.1 1.2 0 .2.7.1 1.5-.2 1.8M465 861.3c-.1.4-.1 4.2-.1 8.4-.1 5.9.2 7.8 1.2 7.8 1.1 0 1.3-1.7 1.1-7.5-.2-4.1-.8-7.9-1.3-8.5-.5-.5-.9-.6-.9-.2M496.1 866c-2.3 5-2.1 7 .5 7 .8 0 1.4.9 1.4 2 0 1.2.7 2 1.6 2 1.1 0 1.4-.5 1-1.6-.4-.9-.2-2.2.4-2.9.8-.9.8-1.5 0-2-.5-.3-1-2.6-1-5.1 0-2.4-.4-4.4-.8-4.4-.5 0-1.9 2.2-3.1 5m1.9 3.1c0 1.1-.4 1.8-1 1.4-.5-.3-.7-1.2-.3-2 .7-2.1 1.3-1.9 1.3.6M507 865.7c-2.2 5-2 7.3.5 7.3 1 0 1.5.7 1.3 1.7s.3 1.8 1.1 1.8q1.5 0 1.5-3c-.1-9-.5-12.5-1.4-12.5-.5 0-1.8 2.1-3 4.7m1.6 4c-1 1-1.9-.5-1-1.8.6-1.1.8-1.1 1.2 0 .2.7.1 1.5-.2 1.8M473.5 868.9c-.9 1.5 1.4 2.4 4.3 1.6 2-.5 2.3-.8 1.1-1.6-1.8-1.1-4.6-1.2-5.4 0M485.7 895.4c.4 6.4.2 11.4-.5 13.2-.6 1.6-2 5.4-3.2 8.4s-4 10.4-6.2 16.5c-2.2 6-4.6 12.6-5.4 14.5-3.4 9.2-7.7 20.9-9 25-2.7 7.8-3.8 10-5.4 10-.9 0-2.6.7-3.8 1.6-1.2.8-3 1.3-4 .9-1.9-.5-4.4 1.6-5.5 4.6-.7 2.2 2.6 9.3 5.4 11.3 3.6 2.5 6.7 2 8.6-1.2.9-1.6 2.5-3.3 3.6-3.8 4.2-1.9 4.8-7.2 1.2-10.8-.8-.8-1.5-2.1-1.5-3 0-1.3 3.6-11.6 10.1-29.4 1-2.8 2.8-7.6 3.8-10.5 5.9-16.2 12.5-31.7 13.5-31.7.6 0 2.9 1.7 5.2 3.7 8.2 7.6 24 22 26.7 24.3 3.2 2.8 3.4 4.1.8 5.7-1 .7-2 2.7-2.3 4.6-.3 3 0 3.6 2.6 4.7 2.2 1 3.6 1 6.1.1 1.7-.6 4.3-1.1 5.8-1.1 3 0 4-1.3 3.9-5.1-.1-3.6-2.8-7.6-6.4-9.5-2.7-1.4-3.2-1.4-4.8.1-1.7 1.6-2.1 1.4-6.2-2.2-2.3-2.1-5-4.5-5.8-5.3s-5.3-4.9-9.9-9c-16.7-14.8-15.1-12.6-15.1-20.6 0-8.7-1-16.4-2.1-16.4-.4 0-.5 4.7-.2 10.4m45.8 46.3c2.5 2.5 3.7 6.2 2.5 8.1-.8 1.4-.9 1.3-1-.8 0-3.2-2.5-6.9-5.4-8-2.1-.9-2.1-.9.1-.9 1.2-.1 2.9.6 3.8 1.6m-.8 3.9c1.6 2.5 1.6 2.7-.2 4-2.7 2-3.8 1.7-5.6-1.5-2.9-5.1 2.5-7.4 5.8-2.5M523 951c0 .5-.2 1-.4 1-.3 0-.8-.5-1.1-1-.3-.6-.1-1 .4-1 .6 0 1.1.4 1.1 1m-62.3 36.2c2 1.6 1.6 6.6-.5 7.7-2 1.1-4.2-.2-4.2-2.4 0-.7-.9-2-2-3-4.1-3.7 2.4-5.9 6.7-2.3m-12.7 1.7c0 .6-.4 1.3-1 1.6-.5.3-1 1.7-1 3.1s-.4 2.2-1 1.9c-1.1-.7-1.4-5.8-.3-6.8 1-1 3.3-.8 3.3.2m5.5 4.2c2.3 4.3 1.6 7.3-1.6 7.7-1.4.2-3.1-.3-3.7-1.1-1-1.2-.8-1.3 1.4-.9 3.8.7 4.7-1.6 2.4-5.5-1.1-1.8-1.5-3.3-1-3.3s1.7 1.4 2.5 3.1m-1.7 2.5c-.2.8-.7 1.4-1.3 1.2-.5-.2-.9-.9-.7-1.6s-.1-1.2-.5-1.1c-1.7.3-2.4-.1-1.8-1.1.9-1.5 4.7.8 4.3 2.6M700.3 910.8l-17.2.2.1 11.3c.1 6.1.5 11.7 1 12.4.7.8 11.8 1 43.6.6 23.5-.3 42.9-.7 43.1-.9.3-.2.6-5.6.8-11.9.3-11.4.3-11.4-2.9-12-3-.6-20.7-.5-68.5.3m68.1 11.7-.1 10-41.2.3-41.1.2v-20l30.3-.2c16.6-.2 35.2-.3 41.2-.3h11z"/><path d="M725.6 915.5c-2.2 2.2-2.3 12.7-.1 14.5 2.2 1.9 4.5-.5 4.5-4.6 0-2.3-.6-3.8-2-4.6-1.1-.7-2-2.1-2-3.2 0-1.5.3-1.6 1.5-.6 2.1 1.8 3.3.3 1.3-1.6-1.4-1.4-1.7-1.4-3.2.1M728 926c0 3.2-1.4 4-2.4 1.4-1-2.7-.7-4.4.9-4.4q1.5 0 1.5 3M747.1 914.9c-2.3 1.4-2.7 10.6-.6 13.8 1.8 2.7 1.8 2.7 3.6.4 3.9-4.8 1.3-16.8-3-14.2m2.9 6.6c0 5.5-.9 8.2-2.1 6.3-1-1.5-1.2-10.2-.3-11.1 1.4-1.4 2.4.6 2.4 4.8M756 922.5c0 8.3.1 8.5 2.4 8.5 3.7 0 4.6-2 4.1-9-.5-6.4-1.4-8-4.7-8-1.6 0-1.8 1.1-1.8 8.5m4.5-4c0 1-.6 2-1.2 2.2-.8.3-1.3-.5-1.3-2.2s.5-2.5 1.3-2.3c.6.3 1.2 1.3 1.2 2.3m.3 7c-.2 1.4-.7 2.6-1.3 2.6-.5 0-1.1-1.2-1.3-2.6-.2-1.8.1-2.5 1.3-2.5s1.5.7 1.3 2.5M694.1 919.5c-2.4 4.6-2.3 7.5.4 7.5 1.2 0 1.5.6 1 2-.4 1.4-.2 2 .9 2 .9 0 1.6-1.1 1.8-2.8.4-4-.3-13.2-1-13.2-.4 0-1.8 2-3.1 4.5m1.5 5.2c-1.1 1.1-1.9-.6-1.1-2.4.8-1.7.8-1.7 1.2 0 .3 1 .2 2.1-.1 2.4M704.5 923c0 7.1.2 8 1.9 8 1.2 0 1.6-.5 1.2-1.6-.3-.9-.6-4.5-.6-8 0-4.4-.4-6.4-1.2-6.4-.9 0-1.3 2.3-1.3 8M736.5 923c0 7.1.2 8 1.9 8 1.2 0 1.6-.5 1.2-1.6-.3-.9-.6-4.5-.6-8 0-4.4-.4-6.4-1.2-6.4-.9 0-1.3 2.3-1.3 8M713 923c0 .5 1.6 1 3.5 1s3.5-.5 3.5-1c0-.6-1.6-1-3.5-1s-3.5.4-3.5 1M539.9 938c-1.3 1-1.9 1.9-1.3 2 .7 0 2.2-.9 3.5-2 1.3-1 1.9-1.9 1.3-2-.7 0-2.2.9-3.5 2M498 955.8c-1.9 1.5-4.8 3.4-6.5 4.2-3.8 1.9-8.9 5.3-9.3 6.2-.2.5-1.2.8-2.1.8-3.5 0-4.2 3.8-2.7 14 1.4 9.5 1.4 9.5 1.5 2.7.1-6.5.2-6.7 2.6-6.7 2.9 0 3.2-1.2.8-3.1-1.3-1.1-1.7-1.1-2-.2-.8 2.2-2.3 1.4-2.3-1.2 0-3.8 2.7-4.3 5.7-1.1 2.9 3.2 3 8.3.1 7.8-2.4-.4-2.3 1.9.1 2.5 1.7.4 1.9 2.3 2.5 28.6 1.1 52 1.9 68.7 2.9 68.7.7 0 .8-5.8.3-17.3-.3-9.4-.9-31.8-1.2-49.7l-.7-32.5 4.7-2.5c2.5-1.3 4.6-2.8 4.6-3.2 0-.5.5-.8 1-.8.6 0 1 1.7 1.1 3.7.2 6.1 1.3 8.6 4.7 10.6 4.1 2.4 6.2 1.6 6.2-2.3 0-2.3.6-3.3 2.5-4 2.7-1 3.4-3 1.1-3-2.2 0-4.6 2.9-4.6 5.5q0 4.65-4.2 2.4c-3.3-1.7-3.8-2.8-3.8-9.1 0-5.9.8-7 7.2-9.4 3.8-1.4 2.4-9.5-2.3-12.8-3.1-2.2-3.9-2.1-7.9 1.2m8.4 1.7c1.5 1.4 2.6 3.5 2.6 5 0 2.9-1.7 3.4-2.7.7-.3-.9-1.5-2.9-2.5-4.4-3.1-4.5-1.7-5.3 2.6-1.3m-3.6 3c1.2 1.5 1.8 3.4 1.5 5-.7 3.3-1.8 3.2-3.3-.5-.7-1.6-1.8-3.5-2.6-4.1-2-1.6-1.7-2.9.5-2.9 1.1 0 2.8 1.1 3.9 2.5m-6.5 1.3c1 1 1.4 2.2 1 2.5-.3.4.2 1.6 1.2 2.7 1.3 1.4 1.5 2.4.8 3.1s-1.4.1-2.2-2c-.7-1.6-2.1-3.7-3.2-4.7-1-.9-1.6-2.1-1.3-2.5.8-1.4 1.9-1.1 3.7.9m-2.2 4.4c1.9 2.6 2 3 .6 2.5-.9-.3-1.7-.2-1.7.4 0 .5.7 1.2 1.5 1.5 1.9.8 1.9 2.4 0 2.4-.8 0-2.1-1.5-2.9-3.4-.8-1.8-1.9-3.7-2.5-4-.6-.4-.9-1.2-.6-1.7 1.2-1.8 3.4-.9 5.6 2.3m-5.7 1.7c.9 1 1.4 2.5 1 3.5-.3.9-.1 1.6.5 1.6 1.3 0 1.5 2.6.3 3.4-1 .6-6.2-6.9-6.2-9 0-2 2.4-1.7 4.4.5M512 955c-1.6 1.3-2 2-1 1.9 1.6 0 5-2.2 5-3.3s-1.4-.6-4 1.4M366.8 956.8c-1.7 2.5-1.1 11.1.8 11.9 4.2 1.6 6.3-8.7 2.5-12.1-1.8-1.6-2-1.6-3.3.2m3.4 3.4c.5 3.5-.3 6.9-1.6 6.5-1.2-.4-2-5.1-1.2-7.3.8-2.1 2.4-1.7 2.8.8M291.3 956.7c-1.9.7-1.6 5.8.4 7.4.9.8 1.9 1.3 2.2 1.1.3-.1.6.4.6 1 0 .8-1 1.2-2.2 1.1-2.6-.3-3.1 1.2-.7 2.1 2.8 1.1 4.4-1.3 4.4-6.5 0-4.9-1.8-7.2-4.7-6.2m2.7 3.8c0 2.6-1.4 3.3-2.5 1.5-.9-1.4.1-4 1.5-4 .5 0 1 1.1 1 2.5M300 957.5c-1.7 2-.9 4.8 1.8 6 3 1.3 2.4 4.1-.8 3.7-2.4-.2-2.4-.2-.7 1.5 1.6 1.6 1.8 1.6 3.4 0 2.7-2.7 1.4-12.7-1.7-12.7-.4 0-1.3.7-2 1.5m3.7 2.1c.9 2.3-1.1 3.8-2.6 2-1.3-1.6-.7-3.6 1-3.6.5 0 1.2.7 1.6 1.6M309.6 957.3c-2.4 1.8-1.7 5.1 1.2 5.5 1.4.2 2.2 1 2.2 2.4 0 1.5-.5 1.9-2 1.5-2.4-.6-2.7 1.1-.4 2 .8.3 2.3-.1 3.1-1 2.1-2.1 1-6.7-1.7-6.7-1.1 0-2-.7-2-1.5s.9-1.5 2.1-1.5c1.1 0 1.7-.5 1.4-1-.8-1.3-1.8-1.3-3.9.3M318.5 957c-.3.5.4 1 1.5 1 1.7 0 2 .4 1.5 1.7-.5 1-1 3.4-1.1 5.3l-.4 3.5 1.1-3.5c.6-1.9 1.5-3.9 2-4.5 1.9-1.9 1-4.5-1.5-4.5-1.4 0-2.8.4-3.1 1M328 957.5c-1.8 2.1-.3 5.7 2.1 5 1.5-.5 1.9-.1 1.9 2 0 2.2-.4 2.6-2 2.2-2.3-.6-2.7 1.1-.5 1.9 4.3 1.7 6.2-5.8 2-7.8-2.8-1.2-3.3-2.8-1-2.8.8 0 1.5-.5 1.5-1 0-1.5-2.6-1.2-4 .5M347.7 956.7c-1 .9-.8 9.6.2 11.1.5.8 1.7 1.2 2.7 1 1.5-.2 2-1.4 2.2-5.1.3-4.8-.9-7.7-3.3-7.7-.6 0-1.5.3-1.8.7m3.8 5.8c0 3-.4 4.1-1.7 4.3-1.5.3-1.8-.4-1.8-4.3s.3-4.6 1.8-4.3c1.3.2 1.7 1.3 1.7 4.3M357.2 957.2c-1.6 1.6-1.6 9 0 10.6 1.8 1.8 3.6 1.5 4.8-.8 1.3-2.4-.3-6-2.5-6-.8 0-1.5-.6-1.5-1.3 0-2.1 1.2-2.8 2.7-1.6 1 .9 1.3.8 1.3-.5 0-1.9-3.1-2.1-4.8-.4m3.6 7.5c-.5 2.5-2.8 2.8-2.8.4 0-1.2.6-2.1 1.6-2.1.9 0 1.4.7 1.2 1.7M375.4 957.4c-1.1 2.9.1 9.9 1.9 11 3.6 2.2 6.3-5.6 3.7-10.5-1.2-2.2-4.8-2.6-5.6-.5m4.4 4.6c.4 3.8-1.4 6.3-2.8 4-1.1-1.8-1.3-6.4-.3-7.4 1.4-1.4 2.8.1 3.1 3.4M339.2 962.9c-1.1.7-1 1 .3 1.5 2 .7 3.8-.1 3-1.5-.7-1.1-1.6-1.1-3.3 0M383.5 963c-1.1 1.8 2.2 2.2 12.2 1.6 5.4-.3 10.3-.2 10.8.2.6.4 3.7 8.7 6.9 18.6 5.6 16.9 5.8 18 4.4 20.5-1.3 2.2-1.4 3.6-.4 8.6 1.2 6.3 2.1 8.5 3.7 8.5 1.3 0 1.1-4.4-.2-5.7-.7-.7-.8-1.7-.3-2.5.5-.7.7-2.1.5-3.1-.2-1.4.3-1.8 1.6-1.5 1.5.3 1.8 1.4 1.9 6.8 0 9.8 2.4 12.3 4.5 4.7 2.6-9.4 1-14.4-5.4-17-2.6-1.1-3.4-2.8-8.6-18.7-3.2-9.7-6.3-18.5-7-19.8-1.1-2.1-1.8-2.2-12.6-2.2-6.6 0-11.6.4-12 1m43.7 44c2.1 2.6 2.5 8.4.6 7.8-.7-.3-1.4-1.9-1.6-3.6-.4-4-3.9-6.3-5.7-3.8-1.6 2.1-2.5 2-2.5-.2 0-2.6.5-2.9 4.2-2.7 1.9.1 3.9 1.1 5 2.5m-7.2 5c0 .5-.4 1-1 1-.5 0-1-.5-1-1 0-.6.5-1 1-1 .6 0 1 .4 1 1m8 6.5c0 1.4-.4 2.5-1 2.5-.8 0-.8-2.3-.1-4.8.4-1.2 1.1.3 1.1 2.3m-7.3-.8c-.4.3-1 .3-1.4 0-.3-.4 0-.7.7-.7s1 .3.7.7M472 980.5c-1.6 1.9 0 1.9 2.6 0 1.6-1.2 1.6-1.4.3-1.5-.9 0-2.2.7-2.9 1.5M465.9 984c-1.3 1-1.9 1.9-1.3 2 .7 0 2.2-.9 3.5-2 1.3-1 1.9-1.9 1.3-2-.7 0-2.2.9-3.5 2M439 1000.5c-1.4 1.6-1 1.8 1.4.9.9-.3 1.6-1 1.6-1.5 0-1.4-1.6-1.1-3 .6M433.6 1003.6c-1.7 1.2-1.7 1.4-.4 1.4.9 0 2-.5 2.3-1.1 1.1-1.7.2-1.8-1.9-.3M465 1083l-18.5.5-.3 11.7c-.3 11.7-.3 11.7 2.4 12.4 2.5.6 84.3-.4 85.4-1.1.3-.2.3-5.6 0-12.2l-.5-11.8h-25c-13.7 0-33.3.2-43.5.5m66.8 11.7.3 10.3-21.3.1c-11.7.1-30.3.2-41.3.3l-20 .1-.3-10.2-.3-10.3 28.3-.2c15.6-.2 34.2-.3 41.3-.3h13z"/><path d="M509.1 1087.9c-1.7 3.1-1.3 5 1.5 7.8 2.8 2.7 2.7 6.6-.1 4.3-1.6-1.3-2-.3-.7 1.8 1.4 2.2 4.1.2 4.8-3.5 1.5-7.8-2.7-15.7-5.5-10.4m3.7 3.4c.2 1.9-.1 2.7-1.2 2.7s-1.6-1-1.6-3.1c0-3.8 2.4-3.5 2.8.4M468.4 1095c.1 7.2.3 8 2.1 8 1.5 0 1.6-.3.7-1.2-.7-.7-1.2-4-1.2-8 0-3.7-.4-6.8-.9-6.8-.4 0-.8 3.6-.7 8M487.6 1089.2c-2.4 9.1 1.8 18 5.4 11.3 1.6-2.9.1-7.5-2.5-7.5-.8 0-1.5-.9-1.5-2.1 0-1.6.4-1.9 2.1-1.4 1.5.5 2 .3 1.7-.6-.8-2.5-4.5-2.2-5.2.3m4.2 8.3c-.2 1.4-.7 2.6-1.3 2.6-.5 0-1.1-1.2-1.3-2.6-.2-1.8.1-2.5 1.3-2.5s1.5.7 1.3 2.5M500 1095c0 6.7.3 8 1.6 8 1.1 0 1.4-.5 1-1.6-.3-.9-.6-4.5-.6-8 0-3.6-.4-6.4-1-6.4s-1 3.3-1 8M457.2 1092.4c-2.7 5.4-2.7 5.4.3 6.6 1.6.6 2.3 1.4 1.9 2.5-.4.9-.1 1.5.7 1.5.9 0 1.4-1.1 1.3-3-.1-1.7-.2-5-.3-7.5 0-2.5-.5-4.5-.9-4.5-.5 0-1.8 2-3 4.4m2.8 2c0 1.5-1.8 3.1-2.6 2.3-.7-.7.7-3.7 1.7-3.7.5 0 .9.6.9 1.4M477 1095c0 .5 1.4 1 3.1 1s2.8-.4 2.4-1c-.3-.6-1.7-1-3.1-1-1.3 0-2.4.4-2.4 1"/></svg>