<svg xmlns="http://www.w3.org/2000/svg" viewBox="0 0 874.834 1228.642" fill="currentColor"><path d="M88.848 58.796c-5.53 3.251-10.357 6.308-10.86 6.704-.404.396.776 2.707 2.553 5.223 1.779 2.416 5.235 7.347 7.604 10.868 2.269 3.52 4.837 7.143 5.529 8.05.792.907 1.878 2.416 2.57 3.423 1.185 1.61 1.485 1.613 3.597.232 1.208-.89 2.224-2.68 2.237-4.08.011-1.3.221-2.399.521-2.396s7.469 3.567 15.93 7.842c15.033 7.734 15.532 7.839 18.245 6.363 2.613-1.477 2.716-1.776 2.476-8.479-.308-10.403-.406-10.604-6.782-13.36-3.187-1.429-11.551-5.504-18.719-9.167-12.94-6.716-12.94-6.716-13.194-12.018-.175-2.802-.553-5.206-.953-5.21s-5.224 2.655-10.754 6.005m7.67 3.469c.264 4.002.264 4.002 17.686 12.858 9.557 4.885 17.82 9.059 18.318 9.263 1.395.513 1.96 15.718.66 15.707-.5-.005-4.982-2.045-9.76-4.487-15.134-7.535-23.697-11.712-25.294-12.026-1.098-.21-1.405.488-1.126 2.89.084 1.8-.13 3.3-.63 3.295-1.2-.011-16.107-21.645-16.092-23.345.114-1.599 14.288-9.873 15.28-8.864.396.404.777 2.507.957 4.709"/><path d="M97.211 74.171c-.026 3 .246 6.103.538 7.006.978 2.508 2.383 1.92 2.409-.979.019-2.1.421-2.396 2.017-1.882 1.096.41 1.998.218 2.003-.382s-.886-1.608-1.98-2.318c-2.783-1.825-2.66-4.324.126-2.8 3.483 1.932 3.298.23-.183-1.9-1.89-1.218-3.682-2.134-4.082-2.137-.5-.005-.82 2.393-.848 5.392M107.864 79.567c.271 3.202.845 6.207 1.24 6.71 1.09 1.11 3-.072 3.018-1.972.025-2.8 1.711-1.285 2.58 2.323 1.06 4.31 3.348 5.73 3.382 1.93.012-1.3.533-3.696 1.046-5.091 1.432-3.587.148-5.399-1.579-2.414-1.321 2.388-1.321 2.388-1.992-.918-.669-3.506-3.36-4.53-3.39-1.23-.029 3.3-1.82 2.284-2.188-1.22-.185-1.701-.771-3.307-1.47-3.513-.796-.307-1.01 1.191-.647 5.395M121.54 82.388c-.307.698-.432 3.497-.256 6.198.262 4.303.655 5.106 3.144 6.329 4.78 2.242 8.814-1.522 7.058-6.538-1.17-3.41-9.027-8.18-9.947-5.989m7.154 5.164c2.071 3.219 1.15 5.51-2.15 5.481-2.3-.02-2.496-.422-2.464-4.022.042-4.7 2.048-5.382 4.614-1.459M262.663 226.45c-6.94 4.339-8.362 6.826-5.686 9.55 1.784 1.816 3.987 1.536 8.313-1.426 3.923-2.565 3.923-2.565 21.898.395a2611 2611 0 0 0 23.368 3.608c4.295.638 5.689 1.35 8.163 4.273 1.584 1.814 2.867 3.725 2.963 4.126.073 3.001 21.747 6.094 22.673 3.202.716-1.893 3.712-1.367 5.092.846 1.281 2.111 7.474 2.966 8.691 1.077.305-.597 5.106-.655 12.302-.19 6.396.457 13.594.72 15.795.64 5.303-.253 40.852 5.564 57.82 9.315 2.795.525 7.287 1.465 9.981 2.09 14.077 2.725 24.04 6.813 32.086 12.985 9.435 7.285 12.194 11.91 12.316 20.71.033 7.501-1.7 11.286-8.257 17.628-6.052 5.746-21.333 14.81-25.133 14.777-2.1-.019-3.607.768-5.126 2.954-1.518 1.987-3.027 2.973-4.827 2.957s-3.912 1.366-6.737 4.14c-4.542 4.76-3.033 3.774-58.834 37.278-18.802 11.333-19.906 11.824-22.506 11.8-1.3-.011-3.712 1.368-5.528 3.151-1.715 1.685-3.928 3.166-4.83 3.258-3.902.265-6.214 1.644-7.137 4.236-.719 2.094-3.74 4.367-11.88 8.995-6.032 3.446-14.677 8.47-19.3 11.028-28.446 16.348-48.256 39.773-58.724 69.88-8.108 23.33-5.684 43.152 6.989 57.465 2.574 2.923 6.048 5.854 7.74 6.67 1.693.814 5.375 2.847 8.06 4.571 2.786 1.625 7.263 4.265 9.95 5.689 2.787 1.525 5.173 3.046 5.269 3.547.195.502.692.906 1.192.91.4.004 6.272 3.157 12.937 7.116 6.666 3.86 12.237 7.11 12.437 7.111.1 0 2.382 2.021 5.06 4.545 4.661 4.342 4.96 4.445 10.164 4.09 4.403-.36 6.1.055 9.98 2.29 2.587 1.423 8.06 4.472 12.14 6.708 4.08 2.237 7.961 4.471 8.657 4.977s2.193.72 3.497.332q2.404-.58.897.308c-1.006.69.681 2.106 6.753 5.36 6.567 3.658 8.057 4.872 7.643 6.368-.726 2.894.952 5.409 5.431 7.749 4.082 2.036 8.882 2.079 8.901-.021.013-1.5 2.81-1.175 5.594.65 1.292.911 2.688 1.424 3.09 1.127.304-.397-.787-1.407-2.478-2.422-2.687-1.524-3.179-2.428-3.344-6.33-.262-4.302-.459-4.604-4.94-6.844-4.48-2.24-4.978-2.344-7.892-.87-3.013 1.473-3.413 1.47-8.786-1.579-3.084-1.827-9.353-5.283-14.03-7.825-4.678-2.542-10.948-5.997-13.933-7.724s-6.666-3.76-8.061-4.372-3.375-2.83-4.355-5.039c-2.06-4.519-5.136-7.246-8.235-7.374-3.1-.027-3.398-.23-29.364-15.462-10.347-5.992-19.003-10.97-19.203-10.971-1.2-.01-13.023-8.716-15.102-11.035-8.413-9.875-9.24-29.183-2.156-49.921 5.747-16.45 15.994-32.959 26.48-42.566 1.814-1.584 5.142-4.654 7.36-6.735 2.319-2.08 10.968-7.602 19.41-12.327s18.696-10.634 22.92-13.197c4.925-2.856 8.338-4.326 9.635-4.014 1.297.411 3.004-.374 5.122-2.455 1.715-1.685 4.833-3.657 6.94-4.338 2.305-.68 4.219-2.163 5.032-3.656.712-1.393 3.133-3.672 5.544-4.95 2.412-1.279 12.97-7.685 23.428-14.192 44.143-27.209 50.274-30.654 53.47-30.226 1.3.112 2.907-.674 4.017-1.864 3.539-4.269 4.646-5.059 6.14-4.446 1.994.718 6.219-2.044 6.238-4.244.01-1.1 4.24-4.363 11.782-9.096 16.393-10.354 22.25-16.802 24.338-26.684.832-3.593.832-3.593 9.737-4.114 5.004-.355 22.708-.798 39.511-1.048 29.805-.435 33.907-.598 32.717-1.809-.693-.706-46.693-.915-47.699-.324-.401.196-8.104.427-17.104.447l-16.4-.046-.661-4.406c-.28-2.302-1.051-5.51-1.638-7.015-2.246-6.02-13.357-16.12-23.411-21.309-5.774-2.951-22.327-8.299-30.913-9.975a738 738 0 0 1-10.481-2.094c-8.686-1.677-16.573-3.147-32.45-5.789-17.275-2.854-32.05-5.685-34.444-6.507-.797-.307-2.793-.725-4.491-.94-1.598-.314-3.392-.93-3.888-1.434-.594-.606-1.99-1.018-3.09-1.028-1.2-.01-2.993-.927-3.983-2.035-2.178-2.42-5.276-2.647-8.296-.474-2.213 1.48-2.513 1.477-4.496-.44-3.67-3.333-23.652-5.511-23.679-2.511-.016 1.8-6.23 3.345-10.823 2.604-2.597-.423-11.885-1.806-20.674-3.085-14.281-2.127-15.978-2.542-16.262-4.344-1.049-5.71-3.749-5.734-12.396-.41m10.214-1.609c1.681 2.115.27 3.503-3.63 3.468-3-.027-3.503.269-3.22 2.071.19 1.202-.422 2.497-1.225 2.89-.804.392-2.51 1.177-3.716 1.767-1.708.884-2.407.778-3.396-.43-1.582-2.015-.274-3.003 1.711-1.286 1.49 1.214 1.59 1.215 1.006-.69-.484-1.805.325-2.798 4.651-5.66 6.137-4.145 6.237-4.144 7.82-2.13m-2.044 4.982c-.003.3-.205.498-.505.496s-.498-.205-.495-.505.204-.498.504-.495c.3.002.498.204.496.504m4.689 1.242a1.2 1.2 0 0 1-1.4-.013c-.296-.402.006-.7.706-.693.7.006.998.309.694.706m3.99 1.035c-.402.297-.7-.006-.693-.706.006-.7.309-.997.706-.694a1.2 1.2 0 0 1-.012 1.4m4.303-.161c-.003.3-.205.498-.505.495-.3-.002-.498-.204-.495-.504.002-.3.204-.498.504-.496s.498.205.496.505m47.995.727c-.004.4-.622 2.494-1.441 4.587-1.025 2.791-1.144 4.89-.466 7.396 1.066 3.81.76 4.507-1.533 3.687-2.79-1.125-4.143-6.337-2.803-10.925.622-2.395.739-4.294.141-4.6-.496-.404.706-.593 2.607-.676 1.9-.083 3.498.231 3.495.53m-43.306.514a1.2 1.2 0 0 1-1.4-.012c-.297-.403.006-.7.706-.694s.997.31.694.706m4.297.339c-.005.5-.41.996-1.01.99-.499-.004-.995-.508-.99-1.008.005-.6.509-.996 1.009-.991.6.005.996.409.99 1.009m44.596.597c-2.452 5.878-2.979 8.874-1.801 11.384 1.372 3.112.762 4.207-1.421 2.388-1.985-1.718-1.912-9.918.213-12.799 1.62-2.286 3.928-3.065 3.01-.973m-38.902.053c-.302.298-1.203.39-1.9.084-.798-.308-.495-.605.605-.595 1.1-.09 1.698.215 1.295.511m46.296.713c-.005.5-.91 1.192-1.914 1.583-1.003.29-2.215 1.68-2.527 2.977-.726 2.894.133 7.502 1.433 7.513.5.005.894.708.887 1.508-.018 2-1.917 1.883-4.198-.237-2.282-2.02-2.325-8.521-.095-11.801 1.621-2.386 6.432-3.543 6.414-1.543m-42.306.423a1.2 1.2 0 0 1-1.4-.012c-.296-.403.007-.7.707-.694s.997.309.693.706m4.797.343c.296.502-.108.999-.908.992-.9-.008-1.596-.515-1.591-1.015.005-.6.408-.996.908-.991.6.005 1.297.411 1.591 1.014m16.473 3.146c-.026 2.9-.436 3.997-1.535 3.987-1.6-.014-1.97-3.518-.843-6.408 1.125-2.89 2.414-1.578 2.378 2.421m34.329-3.094c.297.303-.419 2.096-1.536 3.986-1.929 3.283-2.05 5.682-.385 9.597.488 1.405.184 1.802-1.216 1.79-1-.01-2.395-.522-3.09-1.228-1.783-1.816-1.403-10.813.617-12.995 1.615-1.786 4.42-2.36 5.61-1.15m-45.607.594c-.303.297-1.204.39-1.9.083-.798-.307-.496-.604.604-.595 1.101-.09 1.699.216 1.296.512m4.99 1.044c-.302.298-1.203.39-1.9.084-.797-.308-.495-.605.605-.595 1.101-.09 1.698.215 1.296.511m1.99 1.118c-.402.297-.7-.006-.693-.706.006-.7.31-.997.706-.694a1.2 1.2 0 0 1-.012 1.4m27.895.749c-.311 1.297-.63 3.494-.644 4.994-.019 2.1-.525 2.795-1.925 2.783-2-.018-3.084-1.828-3.052-5.427.024-2.7 1.841-4.584 4.341-4.562 1.5.013 1.795.516 1.28 2.212m12.397.41c-.002.3-.204.498-.504.495-.3-.002-.498-.204-.496-.504s.205-.498.505-.496.498.205.495.505m4.086 1.636c-.307.798-.526 2.896-.541 4.596-.118 1.999-.63 3.294-1.33 3.288-1.4-.012-1.827-8.117-.516-9.405 1.11-1.09 2.8.025 2.387 1.521m2.665 3.924c-.02 2.2-.436 3.996-.936 3.992s-.884-1.808-.864-4.008.436-3.996.936-3.992c.6.006.884 1.808.864 4.008m3.396.43c-.218 1.999-.832 3.593-1.332 3.589-1-.01-1.164-4.01-.243-6.403 1.024-2.69 2.008-.882 1.575 2.814m-11.182-2c-.007.8-.414 1.497-1.014 1.492-.5-.005-.993-.709-.986-1.509s.513-1.495 1.013-1.491c.6.005.994.709.987 1.509m25.765 4.03c.27 3.303.066 3.801-1.53 3.387-.998-.309-3.393-.83-5.49-1.15-3.694-.732-5.179-2.445-4.055-5.135.41-1.197 1.813-1.484 5.711-1.25 5.098.346 5.098.346 5.364 4.148m-13.085-1.716c-.403.296-.7-.006-.694-.706s.309-.998.706-.694a1.2 1.2 0 0 1-.012 1.4m-46.707.484c-.007.8-.41 1.196-1.008.891-.497-.304-.99-1.009-.985-1.609.004-.5.508-.895 1.008-.89.6.005.993.708.985 1.608m61.999.452c-.003.3-.205.498-.505.495-.3-.002-.498-.204-.495-.504s.204-.498.504-.495c.3.002.498.204.496.504m22.681 2.202c4.293.838 14.976 2.733 23.763 4.312 31.453 5.38 46.31 10.312 58.83 19.424 10.234 7.391 14.277 13.828 14.99 23.634.448 5.805.133 7.502-2.008 12.083-3.669 7.668-7.1 11.237-17.362 18.046-13.477 8.68-15.386 9.664-16.474 8.254-2.273-3.02-1.868-3.617 5.873-8.148 16.284-9.356 23.161-17.995 23.259-28.994.149-16.7-17.04-29.253-49.478-36.342-21.06-4.588-28.749-5.956-54.813-10.088-6.292-.956-7.288-1.365-7.273-3.065.017-1.9.418-1.997 6.411-1.243 3.598.332 9.989 1.389 14.282 2.127m-50.693-.951c-.005.5-.21.998-.41.996-.3-.003-.795-.507-1.09-1.01-.295-.602-.091-1 .409-.996.6.005 1.096.41 1.09 1.01m12.693.813c-.403.296-.7-.007-.694-.707s.309-.997.706-.693a1.2 1.2 0 0 1-.012 1.4m15.301-.064c-.003.3-.204.498-.504.495-.3-.002-.499-.204-.496-.504s.204-.498.504-.496.499.205.496.505m82.736 86.24c.295.502.39 1.003.09 1s-.795-.507-1.09-1.01c-.295-.602-.391-1.003-.091-1s.796.407 1.09 1.01m-4.322 2.461c.783 1.907.775 2.807-.236 3.998-1.82 2.184-3.517 1.87-5.49-1.148-1.579-2.415-1.577-2.615.236-3.999 2.717-1.975 4.215-1.662 5.49 1.15m5.79 1.052c-.002.3-.204.498-.504.495-.3-.002-.498-.204-.496-.504s.205-.498.505-.495c.3.002.498.204.495.504m-13.017 1.884c-.003.3-.204.498-.504.496s-.498-.205-.496-.505.205-.498.505-.495c.3.002.498.204.495.504m9.685 1.786c-.307.798-.605.495-.595-.605-.09-1.1.215-1.698.512-1.295.297.302.389 1.203.083 1.9m-12.711 1.187c1.879 2.317.666 3.806-5.665 7.25-7.738 4.231-16.586 9.553-55.2 33.41-6.033 3.747-13.171 7.983-15.785 9.46-4.723 2.658-4.723 2.658-6.304.444-1.48-2.213-1.378-2.412.737-4.094 1.209-.989 4.729-3.258 7.745-5.03 5.328-3.154 11.963-7.095 30.566-18.53 4.525-2.76 14.077-8.575 21.215-12.811s14.077-8.575 15.586-9.662c3.12-2.272 5.422-2.452 7.105-.437m4.008-.964c-.002.3-.204.498-.504.495-.3-.002-.498-.204-.496-.504s.205-.498.505-.495c.3.002.498.204.495.504m.672 3.206c-.403.297-.7-.006-.694-.706s.309-.997.706-.694a1.2 1.2 0 0 1-.012 1.4m-1.724 2.685c-.003.3-.407.796-1.01 1.09-.503.296-1 .092-.996-.408.005-.6.51-1.096 1.01-1.091.6.005.998.209.996.409m-86.826 47.429c.965 3.909.068 3.6-2.293-.72-1.968-3.618-1.967-3.818-.175-2.902.995.609 2.18 2.22 2.468 3.622m-5.58-2.15c-.004.3-.205.498-.505.496s-.498-.205-.496-.505.205-.498.505-.495c.3.002.498.204.495.504m.567 3.605c1.387 1.513 1.579 2.414.667 3.706-1.522 2.487-4.218 2.063-6.09-1.154-1.478-2.413-1.474-2.913-.167-3.701 2.312-1.38 3.51-1.17 5.59 1.15m-5.74 4.55c1.373 3.012 1.352 5.312.052 5.3-.5-.004-.993-.809-.984-1.809.008-.9-.875-2.808-1.962-4.217-1.088-1.41-1.975-2.818-1.97-3.318.012-1.4 3.884 1.735 4.863 4.043m8.812-1.422c-.307.797-.604.494-.594-.606-.09-1.1.215-1.698.511-1.295.298.303.39 1.203.083 1.9m-13.33 3.281c.293.903.584 1.906.58 2.406-.004.4-5.537 4.05-12.271 7.89-6.836 3.94-16.084 9.258-20.707 11.917-4.524 2.66-8.544 4.824-8.844 4.821-2.1-.018-17.52 13.345-24.69 21.381-10.002 11.312-20.078 31.023-23.817 46.69-2.8 11.276-2.343 27.28.895 34.21 3.922 8.835 8.59 12.476 34.06 27.104 5.771 3.251 13.73 7.922 17.609 10.357 3.978 2.435 7.661 4.368 8.261 4.374 1.1.01 1.282 2.011.36 4.403-.714 1.694-3.418 2.07-4.905.656-.597-.405-3.879-2.434-7.46-4.466-3.584-1.932-12.538-7.112-19.9-11.378-7.362-4.366-15.719-9.24-18.604-10.866-15.721-8.94-22.95-28.305-18.75-50.569 2.838-15.575 12.012-35.094 23.242-49.695 3.641-4.568 17.657-17.543 24.502-22.583 4.027-2.964 12.374-8.19 18.405-11.636a856 856 0 0 0 19.602-11.426c9.049-5.42 11.456-6.199 12.433-3.59m2.255 5.12c-.403.297-.7-.006-.694-.706s.31-.997.707-.693a1.2 1.2 0 0 1-.013 1.4m-24.21 169.492c-.013 1.5-4.466 7.46-5.162 6.954-1.292-.811-1.057-4.81.356-6.197 1.11-1.09 4.815-1.657 4.807-.757m6.977 2.662c.796.507 1.191 1.01.99 1.209-.302.197-1.408.787-2.513 1.378s-2.12 2.28-2.334 3.779c-.537 4.195-3.726 2.967-3.489-1.231.247-5.298 3.569-7.669 7.346-5.135m2.952 5.426c-.006.7-.717 1.894-1.623 2.586-1.21 1.09-1.81 1.084-3.098-.227-.792-.908-1.182-2.111-.876-2.708 1.014-1.591 5.612-1.35 5.597.35m1.972 3.118c-.002.3-.204.498-.504.496s-.498-.205-.496-.505.205-.498.505-.495c.3.002.498.204.495.504m21.397 11.691c.296.503.091 1-.409.996-.6-.005-1.095-.51-1.09-1.01.004-.6.208-.997.408-.996.3.003.796.407 1.091 1.01m33.695 11.9c.397.404-.517 1.996-1.832 3.584-1.414 1.588-2.533 3.778-2.543 4.878-.019 2.1-2.022 2.482-3.806.666-1.586-1.614-1.475-2.813.859-6.593 1.926-2.983 5.538-4.25 7.322-2.535m-8.307.827c-.003.3-.205.498-.505.495s-.498-.204-.495-.504c.002-.3.204-.499.504-.496s.498.205.496.505m12.77 3.413c.292.903-.31 1.098-2.106.682-3.193-.829-5.421 2.351-3.748 5.366 1.375 2.813 1.168 3.611-.519 2.096-2.085-1.719-1.862-4.317.666-7.394 2.225-2.78 4.927-3.057 5.707-.75m-1.832 3.584c-.007.8-.714 1.594-1.518 1.987-1.504.486-2.087-1.419-.776-2.707 1.11-1.19 2.307-.78 2.294.72M640.369 283.614c-14.603.27-31.609.82-37.912 1.163l-11.406.599.64 6.706c.268 3.602.52 9.004.494 12.004l-.049 5.4 24.807-.58c13.603-.278 33.508-.8 44.21-1.006l19.505-.426-.102-11.001c-.047-6.001-.398-11.504-.592-12.206-.392-.904-2.489-1.222-6.79-1.16-3.5.068-18.202.237-32.805.507m37.695 11.936.21 10.103-34.305.394c-18.903.232-37.705.465-41.806.528l-7.502.134-.214-9.603-.215-9.602 9.305-.517c5.104-.355 22.608-.799 38.81-.955 16.203-.256 29.707-.635 30.009-.833.202-.198 1.602-.286 3-.073 2.498.322 2.497.422 2.708 10.424"/><path d="M634.914 289.766c-2.937 4.074-1.428 14.288 1.879 13.617 4.107-.763 4.375-8.461.484-9.496-1.995-.517-2.58-2.323-1.268-3.611.304-.397 1.202-.19 1.997.418 1.388 1.312 1.591.914.713-1.494-.78-2.207-1.982-2.018-3.805.566m3.321 8.83c-.014 1.6-.426 2.996-.926 2.992-1.2-.01-2.367-3.721-1.556-5.014 1.218-1.99 2.509-.978 2.482 2.022M645.522 288.86c-1.513 1.487-1.69 10.186-.315 12.898 1.476 2.713 3.879 2.435 5.005-.555 1.228-3.09-.233-7.503-2.433-7.522-.8-.007-1.492-.913-1.482-2.013s.518-1.996 1.018-1.991c.6.005.995.508.99 1.208-.009.9.291.903 1.098.11 1.312-1.288.43-3.296-1.47-3.313-.6-.005-1.705.485-2.41 1.179m3.23 7.83c.888 1.408-.446 5.196-1.64 4.485-1.192-.81-1.15-5.51.05-5.5.6.006 1.295.512 1.59 1.015M655.515 289.75c-1.523 2.486-1.548 5.386-.087 9.7 2.341 6.62 6.372 3.156 5.946-5.148-.244-6.203-3.324-8.53-5.86-4.552m3.75 5.533c-.047 5.3-1.163 7.19-2.434 3.879-.781-2.107-.73-7.907.177-8.7 1.615-1.685 2.303-.279 2.258 4.821M614.225 288.382c-.002.3-.135 3.999-.274 8.298-.256 6.298.032 7.7 1.232 7.711 1.3.012 1.51-1.187 1.265-7.289-.166-3.902-.733-7.607-1.227-8.211-.496-.505-.894-.708-.996-.51M602.476 293.878c-2.341 4.579-2.257 6.38.343 6.403.8.007 1.392.912 1.382 2.012-.024 2.7 1.678 2.515 2.203-.28.528-3.196-.187-12.702-.987-12.71-.4-.003-1.719 2.085-2.941 4.575m1.363 4.112c-1.009.99-1.895-.517-.984-1.809.61-1.095.81-1.093 1.2.01.194.702.087 1.502-.216 1.799M622.254 296.454c-.005.5 1.29 1.011 2.89 1.025 1.7.016 3.305-.47 3.61-.967.405-.597-.792-1.008-2.892-1.026-2-.018-3.603.368-3.608.968M415.282 629.425c-.007.8 7.953 5.27 9.453 5.284 1.4.012-.387-1.504-4.765-3.943-4.08-2.336-4.678-2.541-4.688-1.341M428.213 637.24c-.008.8 10.148 5.79 10.754 5.196.606-.695.904-.492-4.37-3.439-3.98-2.136-6.375-2.857-6.384-1.757M443.139 645.573c.093.801 10.244 6.392 11.444 6.402 1.7.015-1.18-2.31-5.46-4.548-5.276-2.747-5.974-2.954-5.984-1.854M458.067 653.706c-.004.5 2.68 2.224 6.065 3.955 7.265 3.964 7.379 2.465.115-1.7-5.672-3.15-6.17-3.355-6.18-2.255M479.257 666.196c5.071 3.245 5.67 3.45 5.68 2.25.009-1-7.253-5.265-9.053-5.28-.7-.007.788 1.306 3.373 3.03M489.313 671.185c.592.906 8.154 5.173 9.154 5.182 1.4.012-1.18-2.21-4.564-4.04-4.28-2.239-5.378-2.549-4.59-1.142M502.85 678.206c-.009 1.1 11.035 7.499 11.74 6.805.707-.694.707-.694-5.96-4.353-3.185-1.729-5.776-2.852-5.78-2.452M518.771 687.248c-.004.5 1.784 1.816 3.972 3.136 2.19 1.22 3.984 1.835 3.989 1.335.005-.6-1.783-2.016-3.973-3.135-2.19-1.12-3.984-1.736-3.988-1.336M542.35 689.658c-.303.397-1.605.586-2.903.374-1.397-.312-2.902.274-4.114 1.564-1.11 1.19-2.519 2.077-3.219 2.071-.9-.008-1.217 1.99-1.164 7.29.145 6.102.528 8.005 2.699 11.325 2.664 4.023 2.664 4.023 2.641 40.325.086 35.302-.023 36.3-1.935 37.684-1.108.79-2.92 2.074-4.026 2.864-1.108.89-8.549 5.424-16.59 10.053-20.205 11.72-25.135 14.977-25.152 16.977-.008.9-.52 2.195-1.226 2.889-.908.892-.71 1.194.89 1.208 1.2.01 2.495.422 2.79 1.025 1.182 2.01 4.392.939 15.15-5.466 6.031-3.546 12.365-7.29 13.974-8.276 1.708-.884 6.131-3.545 9.852-5.812 3.82-2.266 7.234-3.836 7.631-3.532.499.204 1.08 2.31 1.461 4.413.565 4.005 4.184 13.038 12.623 31.213 2.354 5.222 6.572 14.36 9.32 20.184 2.649 5.824 6.08 13.555 7.649 17.069 3.037 7.127 4.22 8.938 10.657 16.095 2.476 2.723 4.747 5.943 5.036 7.246.39 1.203 3.135 7.328 6.079 13.654 5.986 12.754 9.8 22.388 14.187 35.228 3.701 11.033 5.871 14.453 10.451 16.694 3.685 1.732 3.685 1.732 13.128-3.084 7.836-3.93 9.85-5.512 11.477-8.598 1.73-3.285 1.84-4.484.981-9.091-.953-5.21-6.124-19.756-10.047-28.391-.979-2.409-1.86-4.517-1.859-4.717.004-.4-6.957-16.062-9.117-20.582-.687-1.406-2.564-4.023-4.248-5.838-2.575-2.823-3.77-3.333-7.57-3.367-2.4-.022-4.804.357-5.409.952-.504.495-3.218 2.071-5.93 3.447-5.023 2.455-5.023 2.455-7.498-.367-8.81-10.179-9.5-11.285-21.27-37.09l-4.317-9.44 3.75-5.666c5.172-7.955 8.823-13.622 8.924-13.821.102-.2 9.804-.413 21.607-.708 22.405-.4 24.407-.583 23.42-2.092-.492-.904-39.394-.85-44.002.009-1.202.289-3.73 3.267-6.368 7.643-4.873 8.157-8.011 12.43-8.605 11.724-.988-1.309-10.304-22.092-11.277-25.101-3.496-11.632-5.028-75.548-2.633-108.628.678-8.794.582-9.195-1.604-10.815-2.684-1.824-3.482-2.03-4.293-.738m3.478 47.433c-.315 46.699.53 64.107 3.553 72.734 1.56 4.514 4.892 12.144 14.117 31.827 13.149 28.318 15.902 33.643 20.55 39.385 5.047 6.045 5.047 6.045 2.82 9.125-1.315 1.589-2.627 2.977-3.027 2.973-1.8-.016-11.187-12.7-13.833-18.823-1.667-3.715-5.197-11.547-7.847-17.271-2.649-5.724-4.806-10.543-4.805-10.643.002-.2-2.844-6.326-6.278-13.757-3.435-7.33-6.57-14.559-6.959-15.862-.387-1.404-1.073-3.01-1.469-3.513-2.962-4.227-4.64-29.143-4.412-66.042.285-31.999.285-31.999-2.751-39.226-3.137-7.128-3.137-7.128-.396-11.704 2.64-4.377 4.653-5.86 4.63-3.36-.006.7-.72 2.194-1.528 3.187-3.338 4.27-.787 9.794 3.432 7.631 3.215-1.671 4.452-5.86 2.472-8.078-1.782-2.016-1.154-5.21.84-4.393.996.409 1.212 9.811.891 45.81m-4.555-38.742c-.308.897-.618 1.994-.622 2.494s-.408.897-1.008.891c-1.1-.01-1.37-3.312-.262-4.302 1.212-1.29 2.506-.678 1.892.917m2.09 1.118c-.402.297-.7-.006-.693-.706.006-.7.308-.997.706-.693a1.2 1.2 0 0 1-.013 1.4m-7.582 99.137c-.014 1.5-3.233 3.671-14.995 10.567a705 705 0 0 0-11.965 7.194c-4.624 2.759-8.745 5.022-9.245 5.018s-1.192-.911-1.482-2.014-1.082-2.01-1.582-2.014c-2.7-.024.32-2.297 11.982-9.094 19.704-11.625 24.323-13.784 25.912-12.47.794.608 1.383 1.913 1.375 2.813m-38.712 23.556c-.606.695-3.374-2.93-3.361-4.33.005-.6.899.108 1.987 1.418s1.677 2.615 1.374 2.912m-3.685-1.633c1.685 1.715 1.466 3.814-.334 3.798-.8-.008-1.494-.714-1.487-1.514s-.386-1.503-.986-1.509c-.5-.004-.996-.508-.991-1.008.012-1.4 2.311-1.28 3.798.233m121.134 64.081c2.38 2.221 12.98 24.717 18.059 38.462 1.27 3.312 3.126 8.229 4.201 11.038 1.076 2.71 2.134 7.52 2.406 10.622.455 5.104.248 5.803-2.377 8.68-1.615 1.685-6.242 4.644-10.26 6.708-10.045 4.911-10.94 4.403-15.026-8.434-1.752-5.416-3.992-12.136-5.168-14.846a318 318 0 0 1-3.326-8.33c-2.448-5.822-4.115-9.537-9.215-20.783-4.806-10.643-5.001-11.145-3.575-14.133 1.12-2.19 3.737-4.167 9.464-7.116 9.042-4.72 11.245-5 14.817-1.868m-24.961 6.778c-2.633 3.677-1.965 7.283 3.534 18.632 8.152 16.674 18.318 42.965 18.282 47.065-.028 3.1-2.387-1.521-5.31-10.248-3.407-10.33-11.434-29.803-16.345-39.847-4.322-8.739-4.786-12.843-1.76-15.816 2.725-2.676 3.523-2.469 1.599.214"/><path d="M541.07 709.847c-1.216 1.89.48 2.305 2.195.62 1.615-1.586 1.615-1.686.116-1.699-.9-.008-2.005.482-2.31 1.08M607.008 885.741c-2.022 2.482-.954 6.092 1.845 6.117 3.6.032 5.026-2.855 2.748-5.376-2.277-2.52-2.976-2.626-4.593-.74m3.971 3.236c-.007.8-.912 1.392-2.012 1.382-2.2-.02-2.591-1.023-.775-2.807 1.311-1.288 2.806-.675 2.787 1.425M596.563 890.749c-2.12 2.18-2.034 3.782.346 6.003 1.885 1.717 2.184 1.82 3.698.233 1.312-1.289 1.52-2.287.74-4.394q-1.607-4.965-4.784-1.842m3.378 2.43c-.02 2.3-1.632 3.585-2.518 2.077-.888-1.408.135-3.999 1.535-3.986.5.004.992.909.983 1.909M610.918 895.877c-1.819 2.083-.458 6.496 1.942 6.517 2.7.024 4.43-3.36 3.053-5.973-1.279-2.411-3.277-2.63-4.995-.544m3.977 2.535c-.01 1.1-.717 1.994-1.517 1.987s-1.492-.914-1.483-2.014c.01-1.1.718-1.993 1.518-1.986s1.492.913 1.482 2.013M602.18 899.999c-1.805.684-1.65 5.785.136 7.301 2.283 1.92 4.705-.558 4.339-4.361-.274-3.003-1.865-4.017-4.474-2.94m3.081 2.227c.69 1.107-.337 4.098-1.436 4.088-1.1-.01-2.074-3.019-1.364-4.112.305-.498.908-.892 1.408-.888s1.096.41 1.392.912M615.2 909.015c-1.137 4.29 4.44 6.84 5.977 2.754 1.124-2.69-.353-5.304-2.853-5.326-1.8-.016-2.606.677-3.123 2.572m4.391 1.14c-.522 2.495-2.825 2.774-2.803.374.01-1.2.618-2.094 1.618-2.085.9.008 1.394.712 1.185 1.71M605.971 912.333c-1.623 2.586-.053 6 2.747 6.025 2.4.021 3.839-4.366 2.057-6.482-1.68-2.115-3.283-1.93-4.804.457m3.782 2.034c-.01 1.1-.718 1.994-1.518 1.987-1.5-.014-2.08-2.12-.77-3.307 1.211-1.29 2.306-.68 2.288 1.32M622.045 915.276c-1.206.69-1.622 2.486-1.448 5.488.08 2.3 3.883 1.934 5.505-.551 1.825-2.784-1.341-6.613-4.057-4.937m2.672 3.224c-.01 1.1-.718 1.994-1.518 1.987-1.5-.013-2.081-2.119-.77-3.307 1.211-1.29 2.306-.68 2.288 1.32M611.889 921.586c-3.027 2.973.116 9.402 3.24 6.83.805-.694 1.52-2.287 1.531-3.587.025-2.8-3.056-4.928-4.771-3.243m2.77 3.325c-.023 2.6-1.429 3.287-2.513 1.478-.887-1.408.136-4 1.536-3.987.5.005.99 1.11.977 2.509M624.358 925.097c-1.21 1.19-.845 5.093.644 6.306.992.91 1.894.717 3.707-.767 2.014-1.582 2.22-2.28 1.334-3.788-1.183-1.91-4.474-2.94-5.685-1.75m4.072 3.137c-.208.998-1.016 1.79-1.816 1.784s-1.592-.815-1.783-1.816c-.19-1.202.315-1.698 1.815-1.684 1.5.013 1.995.518 1.784 1.716M615.296 932.017c-1.21 1.19-.845 5.093.644 6.306 2.382 2.021 4.698.242 4.43-3.26-.181-2.202-.872-3.209-2.27-3.421-1.199-.21-2.4-.021-2.804.375m3.982 2.035c.782 2.008-1.337 4.189-2.725 2.776-1.189-1.21-.26-4.402 1.14-4.39.5.005 1.193.711 1.585 1.614M627.773 934.728c-2.926 2.874.227 8.202 3.545 6.132 2.312-1.38 2.634-3.777.75-5.694-1.982-1.917-2.681-2.024-4.295-.438m3.77 3.434c-.008.8-.713 1.394-1.513 1.386-1.5-.013-2.081-2.118-.87-3.307 1.007-.892 2.397.22 2.382 1.92M618.602 942.647c-1.126 2.89.348 5.803 2.848 5.825 1.3.012 2.208-.88 2.622-2.476 1.242-4.69-3.831-7.735-5.47-3.35m3.884 1.834c-.01 1.1-.718 1.994-1.518 1.987s-1.492-.913-1.482-2.013.717-1.994 1.517-1.987 1.492.914 1.483 2.013M629.863 947.047c-.724 2.694.951 5.509 3.15 5.528 2.3.021 4.042-4.564 2.459-6.478-1.979-2.418-4.884-1.843-5.609.95m4.586 1.541c-.01 1.1-.717 1.994-1.517 1.987s-1.492-.914-1.482-2.014.717-1.993 1.517-1.986 1.492.913 1.482 2.013M622.52 951.782c-.81 1.093-.919 2.192-.137 4.199 1.074 2.91 3.572 3.132 5.398.248 2.13-3.381-2.634-7.424-5.26-4.447m3.876 2.735c-.01 1.1-.717 1.993-1.517 1.986s-1.492-.913-1.483-2.013c.01-1.1.718-1.994 1.518-1.987.8.008 1.492.914 1.482 2.014M397.282 719.168c-8.001.129-13.806.677-13.91 1.176-.106.6-.118 1.9-.128 3s-.056 6.299-.003 11.6l.014 9.7 42.803-.219c23.502-.09 43.506-.413 44.51-.804 1.505-.586 1.718-2.085 1.797-10.984.051-5.7-.202-11.002-.494-11.905-.487-1.404-4.085-1.636-30.786-1.674-16.5-.047-36.302.077-43.803.11m71.092 12.433-.093 10.5-7.2-.064c-4-.036-22.502.1-41.004.335l-33.804.299.094-10.6.095-10.7 20.302-.119c11.1 0 29.501-.037 41.003-.135l20.7-.015z"/><path d="M425.641 723.92c-1.816 1.785-1.718 13.286.168 14.803 2.78 2.325 4.504-.46 4.566-7.36.049-5.5-1.023-8.61-2.923-8.626-.3-.003-1.105.49-1.811 1.184m2.734 7.425c-.027 3-.448 5.396-.948 5.392-1.3-.012-1.678-2.515-1.131-7.71.453-5.997 2.138-4.282 2.079 2.318M437.351 722.825c-.002.3-.137 4.199-.278 8.798-.26 6.698.027 8.2 1.227 8.21 1.3.012 1.511-1.286 1.27-7.788-.163-4.202-.729-8.107-1.223-8.711-.496-.505-.894-.708-.996-.51M446.138 724.303c-.817 1.993.375 2.804 1.987 1.518 1.008-.891 1.306-.689 1.293.811-.01 1-.622 2.495-1.229 3.19-1.109.99-1.012 1.39.48 2.204.895.608 1.686 1.615 1.68 2.415-.018 2-2.127 2.981-3.113 1.372-1.281-2.111-2.197-.32-.918 1.992 1.278 2.512 2.277 2.62 4.496.44 1.11-1.09 1.522-2.386 1.038-4.19a47 47 0 0 1-.66-4.607c.04-4.4-.841-6.507-2.641-6.524-1-.008-2.106.582-2.413 1.38M393.9 728.438c-2.646 5.077-2.663 6.977.037 7 .8.008 1.391 1.013 1.378 2.513-.014 1.6.578 2.505 1.478 2.513 1.2.011 1.513-1.486 1.57-7.886.039-4.4-.326-8.303-.924-8.608-.497-.305-2.115 1.68-3.54 4.468m2.27 3.22c-.204.599-1.011 1.392-1.613 1.586-.702.194-.998-.209-.59-1.205.716-1.794 2.82-2.175 2.204-.38M404.7 728.334c-2.852 5.875-2.963 7.174-.363 7.197 1.5.014 1.993.718 1.977 2.618-.015 1.6.478 2.404 1.28 2.212.703-.294 1.218-1.99 1.135-3.89-.204-10.803-.386-12.904-.986-12.91-.5-.004-1.82 2.184-3.042 4.773m1.257 4.912c-1.009.99-1.895-.517-.984-1.81.61-1.094.81-1.092 1.2.012.194.701.087 1.5-.216 1.798M413.372 731.612c-.004.5 1.591 1.014 3.491 1.03 1.9.018 3.504-.468 3.509-.968.005-.6-1.591-1.014-3.491-1.031s-3.504.369-3.509.969"/><path d="M479.707 728.002c-2.913 1.374-5.327 2.953-5.33 3.353s4.092.836 8.992.88l9 .08-.107 12c-.107 11.999-.107 11.999-2.907 11.974-1.6-.014-6.302.244-10.505.507l-7.705.631.051-5.8.05-5.7-42.204.325c-23.302.192-43.006.517-43.807.61-1.202.19-1.52 2.286-1.612 12.586l-.11 12.4 33.402-.103c18.401-.036 38.205-.36 44.007-.608l10.605-.506-.15-5.702-.148-5.701 6.204-.445c3.403-.37 8.506-.624 11.207-.8l5.002-.156.12-13.5c.12-13.499.12-13.499-2.577-13.823-2.197-.32-2.792-.925-2.775-2.825.028-3.1-1.973-3.017-8.703.323M468.136 758.4l-.093 10.4-38.005.362c-20.901.113-39.406.549-41.01.935-3.004.473-3.004.473-2.905-10.627l.099-11.1 34.301.006c18.8.067 37.201.031 41.003-.135l6.701-.14z"/><path d="M425.8 751.023c-1.41.988-1.623 2.586-1.473 8.187.24 6.703.337 7.004 2.737 7.025 2.2.02 2.505-.478 2.838-4.175.23-3.398-.06-4.5-1.651-5.515-2.785-1.725-2.763-4.225-.07-3.3 2.293.72 2.705-.677.72-2.394-.992-.81-1.793-.716-3.101.172m2.304 10.721c-.014 1.6-.426 2.996-1.026 2.991-.5-.004-.988-1.409-.974-3.009.016-1.7.527-2.995 1.027-2.99.6.005.989 1.308.973 3.008M393.955 755.94c-2.75 5.576-2.758 6.476.342 6.503 1.4.013 1.794.616 1.58 2.214-.21 1.098.28 2.303.978 2.51 1.295.51 1.512-1.388 1.29-10.19-.074-2.8-.452-5.304-.849-5.708-.296-.402-1.815 1.684-3.341 4.67m1.762 4.216c-1.009.99-1.895-.517-.984-1.81.61-1.094.81-1.092 1.2.012.194.701.087 1.5-.216 1.798M405.2 750.84c-.103.399-.137 4.199-.174 8.398-.153 5.9.13 7.802 1.13 7.81 1.1.01 1.315-1.687 1.167-7.489-.163-4.102-.73-7.907-1.224-8.511-.496-.505-.895-.608-.898-.208M436.257 755.816c-2.344 4.98-2.162 6.981.438 7.005.8.007 1.392.912 1.382 2.012-.01 1.2.682 2.006 1.582 2.014 1.1.01 1.405-.487 1.015-1.591-.392-.903-.18-2.202.425-2.896.808-.893.814-1.493.018-2-.497-.305-.977-2.609-.954-5.109.021-2.4-.361-4.403-.761-4.407-.5-.004-1.92 2.183-3.145 4.972m1.873 3.117c-.01 1.1-.416 1.797-1.013 1.391-.497-.304-.689-1.206-.282-2.002.719-2.094 1.317-1.889 1.295.611M447.16 755.613c-2.245 4.98-2.065 7.282.435 7.305 1 .008 1.493.713 1.285 1.711-.21.998.284 1.803 1.083 1.81q1.5.013 1.527-2.987c-.02-9-.389-12.504-1.289-12.512-.5-.004-1.818 2.084-3.041 4.673m1.564 4.014c-1.009.992-1.895-.516-.984-1.808.61-1.095.81-1.093 1.2.01.194.702.087 1.501-.216 1.798M413.633 758.515c-.914 1.492 1.378 2.412 4.285 1.638 2.005-.482 2.307-.78 1.114-1.59-1.79-1.116-4.589-1.24-5.4-.048M425.596 785.123c.343 6.403.099 11.401-.617 13.195-.614 1.594-2.048 5.382-3.275 8.37-1.227 2.99-4.092 10.365-6.347 16.445-2.253 5.98-4.712 12.559-5.528 14.451-3.482 9.17-7.886 20.831-9.223 24.92-2.769 7.775-3.888 9.965-5.488 9.95-.9-.007-2.606.678-3.814 1.567-1.208.79-3.012 1.273-4.008.864-1.896-.517-4.414 1.561-5.541 4.551-.72 2.194 2.517 9.323 5.3 11.348 3.577 2.532 6.681 2.06 8.61-1.124.914-1.592 2.529-3.277 3.633-3.767 4.217-1.863 4.864-7.157 1.296-10.79-.793-.806-1.481-2.113-1.473-3.013.012-1.3 3.703-11.567 10.361-29.309 1.025-2.79 2.868-7.574 3.894-10.465 6.044-16.147 12.781-31.588 13.781-31.579.6.005 2.885 1.726 5.167 3.746 8.132 7.673 23.803 22.213 26.483 24.537 3.175 2.828 3.363 4.13.749 5.707-1.006.69-2.024 2.682-2.34 4.58-.328 2.996-.033 3.6 2.557 4.722 2.191 1.02 3.591 1.032 6.1.154 1.704-.584 4.309-1.061 5.809-1.048 3 .027 4.011-1.264 3.945-5.065-.068-3.6-2.732-7.625-6.315-9.557-2.688-1.424-3.188-1.428-4.801.058-1.714 1.585-2.112 1.381-6.18-2.255-2.281-2.12-4.96-4.545-5.753-5.352s-5.256-4.947-9.82-9.088c-16.567-14.948-14.987-12.733-14.915-20.733.077-8.7-.854-16.408-1.954-16.418-.4-.004-.542 4.695-.293 10.398m45.386 46.705c2.478 2.523 3.645 6.233 2.428 8.122-.812 1.393-.911 1.292-.993-.808.029-3.2-2.438-6.922-5.328-8.048-2.092-.919-2.092-.919.108-.9 1.2-.089 2.894.626 3.785 1.634m-.834 3.893c1.577 2.514 1.575 2.714-.236 3.998-2.718 1.976-3.815 1.666-5.586-1.55-2.855-5.125 2.565-7.377 5.822-2.448m-7.748 5.331c-.005.5-.21.999-.41.997-.299-.003-.795-.507-1.09-1.01-.295-.603-.091-1 .409-.996.6.005 1.096.41 1.09 1.01m-62.62 35.644c1.986 1.618 1.541 6.614-.568 7.696-2.01 1.082-4.198-.238-4.179-2.438.006-.7-.882-2.008-1.973-3.017-4.067-3.737 2.452-5.879 6.72-2.24m-12.715 1.587c-.005.6-.411 1.297-1.014 1.591-.502.296-1.015 1.691-1.027 3.091s-.42 2.197-1.017 1.891c-1.094-.71-1.349-5.812-.24-6.802 1.01-.991 3.307-.77 3.298.23m5.463 4.25c2.261 4.32 1.535 7.313-1.669 7.685-1.401.187-3.097-.328-3.69-1.133-.989-1.21-.788-1.307 1.408-.888 3.794.734 4.714-1.558 2.45-5.478-1.085-1.81-1.471-3.313-.971-3.309s1.687 1.415 2.472 3.122m-1.722 2.484c-.207.798-.713 1.394-1.311 1.188-.498-.204-.892-.908-.686-1.606.207-.698-.089-1.2-.49-1.104-1.702.285-2.399-.122-1.79-1.116.913-1.492 4.693.842 4.277 2.638M640.05 802.432l-17.2.047-.001 11.3c.046 6.101.396 11.705.89 12.409.692.806 11.79 1.105 43.592.988 23.502-.09 42.905-.318 43.107-.516.302-.198.65-5.595.906-11.893.401-11.397.401-11.397-2.793-12.025-2.995-.627-20.695-.684-68.5-.31m67.994 12.306-.19 9.999-41.2-.067-41.1-.166.089-10 .089-10 30.3.07c16.601-.052 35.201.014 41.201.067l11 .098z"/><path d="M665.308 807.357c-2.22 2.18-2.413 12.68-.23 14.499 2.184 1.92 4.505-.46 4.541-4.56.021-2.3-.566-3.805-1.958-4.618-1.094-.71-1.982-2.117-1.972-3.217.013-1.5.314-1.598 1.505-.587 2.084 1.819 3.298.33 1.315-1.588-1.388-1.413-1.688-1.415-3.201.071m2.306 10.521c-.028 3.2-1.435 3.988-2.412 1.379-.976-2.71-.66-4.406.939-4.392q1.5.013 1.473 3.013M686.812 806.949c-2.312 1.38-2.794 10.575-.723 13.794 1.776 2.716 1.776 2.716 3.597.432 3.942-4.765 1.45-16.788-2.874-14.226m2.841 6.625c-.049 5.5-.973 8.192-2.156 6.281-.986-1.509-1.109-10.21-.2-11.102 1.412-1.388 2.394.621 2.356 4.821M695.644 814.628c-.074 8.3.025 8.5 2.325 8.52 3.7.033 4.617-1.958 4.18-8.963-.444-6.404-1.33-8.012-4.63-8.041-1.6-.014-1.809 1.084-1.875 8.484m4.536-3.96c-.01 1-.618 1.994-1.22 2.189-.802.293-1.295-.512-1.28-2.212s.522-2.495 1.32-2.288c.598.305 1.189 1.31 1.18 2.31m.237 7.002c-.212 1.398-.723 2.594-1.323 2.588-.5-.004-1.089-1.21-1.277-2.611-.183-1.802.123-2.499 1.323-2.488 1.2.01 1.493.713 1.277 2.511M633.773 811.077c-2.44 4.578-2.366 7.479.334 7.503 1.2.01 1.494.613.982 2.009-.413 1.396-.218 1.998.882 2.008.9.008 1.61-1.086 1.825-2.784.435-3.996-.183-13.202-.883-13.209-.4-.003-1.817 1.984-3.14 4.473m1.454 5.213c-1.11 1.09-1.894-.617-1.079-2.41.816-1.693.816-1.693 1.2.01.292 1.003.182 2.102-.12 2.4M644.142 814.67c-.063 7.099.129 8 1.829 8.016 1.2.01 1.604-.486 1.214-1.59-.292-.902-.56-4.505-.529-8.005.04-4.4-.343-6.403-1.143-6.41-.9-.008-1.32 2.288-1.371 7.988M676.14 814.954c-.063 7.1.13 8.001 1.83 8.017 1.2.01 1.604-.486 1.214-1.59-.292-.902-.56-4.505-.53-8.005.04-4.4-.342-6.403-1.142-6.41-.9-.008-1.32 2.288-1.371 7.988M652.642 814.745c-.005.5 1.59 1.014 3.49 1.03 1.9.018 3.505-.468 3.51-.968.005-.6-1.592-1.014-3.492-1.031s-3.503.369-3.508.969M479.415 828.203c-1.309.989-1.917 1.883-1.318 1.989.7.006 2.208-.88 3.518-1.969 1.309-.988 1.917-1.883 1.318-1.988-.7-.007-2.208.88-3.518 1.968M437.358 845.63c-1.913 1.483-4.83 3.357-6.537 4.142-3.817 1.866-8.947 5.22-9.355 6.117-.204.498-1.207.789-2.107.78-3.5-.03-4.234 3.763-2.824 13.976 1.315 9.512 1.315 9.512 1.476 2.714.157-6.5.26-6.698 2.659-6.677 2.9.026 3.21-1.171.828-3.093-1.29-1.111-1.69-1.115-1.999-.218-.82 2.193-2.312 1.38-2.289-1.22.034-3.8 2.738-4.276 5.71-1.05 2.871 3.226 2.926 8.327.03 7.801-2.396-.421-2.316 1.88.078 2.501 1.696.415 1.88 2.317 2.245 28.621.638 52.008 1.289 68.714 2.289 68.723.7.007.851-5.792.454-17.296-.217-9.403-.617-31.807-.758-49.709l-.41-32.505 4.722-2.458c2.511-1.278 4.624-2.759 4.628-3.159.004-.5.507-.795 1.007-.791.6.005.985 1.709 1.067 3.71.146 6.101 1.223 8.61 4.605 10.641 4.079 2.436 6.186 1.655 6.22-2.245.021-2.3.63-3.294 2.536-3.977 2.709-.976 3.427-2.97 1.127-2.99-2.2-.02-4.626 2.859-4.649 5.459q-.041 4.65-4.221 2.362c-3.285-1.73-3.775-2.834-3.719-9.133.053-5.9.862-6.993 7.283-9.336 3.813-1.366 2.485-9.478-2.186-12.82-3.08-2.227-3.88-2.135-7.91 1.13m8.385 1.774c1.487 1.414 2.568 3.523 2.555 5.023-.026 2.9-1.73 3.385-2.706.676-.292-.902-1.474-2.913-2.46-4.422-3.06-4.527-1.654-5.315 2.61-1.277m-3.627 2.968c1.187 1.51 1.77 3.416 1.455 5.013-.729 3.294-1.828 3.184-3.295-.529-.686-1.606-1.769-3.516-2.563-4.123-1.986-1.618-1.674-2.915.525-2.895 1.1.01 2.79 1.125 3.878 2.534m-6.511 1.242c.99 1.01 1.38 2.213.977 2.51-.303.396.186 1.6 1.176 2.71 1.288 1.411 1.479 2.413.773 3.107-.706.693-1.401.087-2.182-2.02-.686-1.606-2.067-3.718-3.158-4.728-.992-.909-1.582-2.114-1.278-2.512.812-1.392 1.91-1.083 3.692.933m-2.24 4.38c1.877 2.617 1.974 3.018.578 2.506-.897-.308-1.698-.215-1.703.385-.005.5.69 1.206 1.486 1.513 1.893.817 1.88 2.417-.02 2.4-.8-.007-2.087-1.519-2.87-3.426-.784-1.807-1.867-3.717-2.465-4.022-.596-.405-.89-1.208-.585-1.705 1.216-1.79 3.408-.87 5.58 2.35m-5.714 1.65c.89 1.008 1.377 2.512.969 3.509-.308.897-.115 1.599.485 1.604 1.3.012 1.477 2.613.27 3.402-1.005.592-6.138-6.954-6.12-9.054.018-2 2.415-1.679 4.396.539M451.365 844.954c-1.612 1.286-2.018 1.982-1.017 1.891 1.6.015 5.02-2.155 5.029-3.255s-1.395-.612-4.012 1.364M306.154 845.462c-1.722 2.485-1.198 11.09.694 11.907 4.186 1.637 6.378-8.644 2.608-12.078-1.786-1.616-1.986-1.618-3.302.17m3.37 3.43c.469 3.504-.361 6.897-1.658 6.485-1.196-.41-1.954-5.117-1.135-7.31.819-2.093 2.415-1.678 2.793.825M230.658 844.69c-1.906.683-1.651 5.785.334 7.403.893.808 1.889 1.317 2.19 1.12.301-.098.597.405.592 1.005-.008.8-1.011 1.191-2.21 1.08-2.597-.323-3.11 1.173-.719 2.094 2.79 1.125 4.412-1.26 4.458-6.46.044-4.9-1.736-7.216-4.645-6.242m2.666 3.824c-.023 2.6-1.429 3.287-2.513 1.477-.887-1.408.136-3.999 1.536-3.986.5.004.99 1.109.977 2.509M239.35 845.567c-1.717 1.985-.942 4.792 1.747 6.016 2.989 1.327 2.364 4.121-.833 3.693-2.398-.222-2.398-.222-.713 1.493 1.586 1.615 1.786 1.616 3.4.03 2.724-2.675 1.513-12.686-1.587-12.714-.4-.003-1.306.688-2.013 1.482m3.682 2.133c.88 2.308-1.134 3.79-2.618 1.977-1.285-1.612-.668-3.606 1.032-3.591.5.004 1.194.71 1.586 1.614M248.952 845.453c-2.416 1.778-1.745 5.084 1.151 5.51 1.398.213 2.191 1.02 2.179 2.42-.014 1.5-.517 1.895-2.014 1.482-2.394-.622-2.71 1.076-.417 1.996.797.307 2.3-.08 3.108-.972 2.12-2.081 1.06-6.691-1.64-6.715-1.1-.01-1.994-.718-1.986-1.518.007-.8.913-1.492 2.113-1.481 1.1.01 1.704-.485 1.409-.988-.789-1.307-1.789-1.316-3.903.266M257.855 845.232c-.305.497.39 1.003 1.49 1.013 1.7.015 1.997.418 1.485 1.714-.509.995-1.03 3.39-1.147 5.29l-.43 3.496 1.13-3.49c.617-1.895 1.535-3.887 2.04-4.482 1.917-1.883 1.04-4.491-1.46-4.513-1.4-.013-2.803.375-3.108.972M267.35 845.816c-1.819 2.084-.351 5.698 2.055 5.019 1.504-.487 1.9-.083 1.882 2.017-.02 2.2-.423 2.596-2.02 2.182-2.294-.62-2.709 1.076-.516 1.895 4.285 1.739 6.251-5.744 2.07-7.782-2.79-1.224-3.276-2.829-.976-2.808.8.007 1.505-.487 1.509-.987.013-1.5-2.59-1.223-4.004.464M287.056 845.192c-1.008.89-.885 9.592.101 11.101.493.805 1.69 1.215 2.691 1.024 1.502-.186 2.013-1.382 2.246-5.08.342-4.797-.832-7.708-3.232-7.73-.6-.004-1.502.288-1.806.685m3.748 5.833c-.026 3-.436 4.097-1.738 4.285-1.503.287-1.796-.416-1.762-4.316s.341-4.597 1.839-4.284c1.298.212 1.688 1.316 1.661 4.315M296.551 845.776c-1.614 1.586-1.68 8.986-.094 10.6 1.784 1.816 3.586 1.532 4.807-.757 1.321-2.389-.247-6.003-2.447-6.022-.8-.007-1.494-.614-1.488-1.314.019-2.1 1.225-2.789 2.714-1.575.992.908 1.293.811 1.304-.489.017-1.9-3.08-2.127-4.796-.443m3.533 7.532c-.522 2.496-2.825 2.775-2.803.375.01-1.2.619-2.094 1.618-2.085.9.008 1.394.712 1.185 1.71M314.749 846.138c-1.126 2.89.012 9.9 1.802 11.017 3.58 2.232 6.35-5.544 3.793-10.467-1.18-2.21-4.777-2.642-5.595-.55m4.359 4.64c.366 3.803-1.456 6.287-2.836 3.974-1.084-1.81-1.243-6.411-.234-7.402 1.412-1.388 2.799.125 3.07 3.427M278.501 851.316c-1.106.69-1.009.991.287 1.503 1.994.717 3.8-.067 3.013-1.474-.69-1.106-1.59-1.114-3.3-.03M322.799 851.81c-1.116 1.79 2.18 2.22 12.185 1.709 5.402-.252 10.301-.109 10.798.296.596.405 3.622 8.732 6.734 18.66 5.45 16.95 5.64 18.052 4.217 20.539-1.32 2.188-1.432 3.587-.476 8.596 1.143 6.31 2.024 8.518 3.624 8.533 1.3.011 1.139-4.39-.15-5.702-.693-.706-.784-1.707-.277-2.502.506-.696.718-2.094.527-3.096-.187-1.402.316-1.797 1.614-1.486 1.497.314 1.787 1.416 1.84 6.817-.088 9.8 2.29 12.32 4.457 4.74 2.684-9.377 1.128-14.39-5.248-17.047-2.59-1.124-3.375-2.83-8.434-18.776-3.113-9.728-6.135-18.556-6.823-19.862-1.081-2.11-1.78-2.216-12.58-2.312-6.6-.059-11.603.297-12.008.893m43.306 44.387c2.077 2.62 2.425 8.422.53 7.806-.697-.307-1.382-1.913-1.567-3.615-.365-4.003-3.844-6.334-5.666-3.85-1.619 2.086-2.518 1.978-2.498-.222.023-2.6.526-2.896 4.224-2.663 1.899.117 3.89 1.135 4.977 2.544m-7.244 4.936c-.005.5-.409.997-1.009.991-.5-.004-.995-.509-.991-1.009.005-.6.509-.995 1.009-.99.6.005.996.408.99 1.008m7.942 6.571c-.013 1.4-.422 2.496-1.022 2.491-.8-.007-.78-2.307-.058-4.8.41-1.197 1.098.31 1.08 2.31m-7.293-.865a1.2 1.2 0 0 1-1.4-.012c-.296-.403.006-.7.706-.694s.998.309.694.706M411.14 870.097c-1.618 1.886-.018 1.9 2.6.023 1.61-1.185 1.612-1.385.313-1.497-.9-.008-2.207.68-2.914 1.474M405.008 873.543c-1.308.988-1.916 1.883-1.317 1.988.7.006 2.208-.88 3.517-1.969 1.31-.988 1.917-1.883 1.318-1.988-.7-.006-2.208.88-3.518 1.969M377.963 889.803c-1.415 1.587-1.016 1.79 1.391.912.903-.292 1.61-.986 1.614-1.485.012-1.4-1.59-1.115-3.005.573M372.535 892.855c-1.71 1.184-1.712 1.384-.412 1.396.9.008 2.004-.482 2.31-1.08 1.115-1.69.215-1.798-1.898-.316M403.227 972.53l-18.504.336-.404 11.697c-.404 11.697-.404 11.697 2.29 12.421 2.494.622 84.3.35 85.406-.34.302-.197.35-5.597.109-12.2l-.395-11.803-25-.223c-13.699-.122-33.3-.096-43.502.113m66.693 12.295.209 10.302-21.3-.09c-11.7-.003-30.3-.069-41.301-.067l-20-.078-.21-10.202-.208-10.302 28.3.051c15.602-.06 34.202.005 41.302.068l13 .116z"/><path d="M447.282 977.823c-1.728 3.085-1.345 4.989 1.43 7.813 2.776 2.725 2.641 6.624-.138 4.3-1.588-1.315-1.997-.319-.716 1.793 1.38 2.212 4.098.236 4.831-3.457 1.57-7.787-2.56-15.724-5.407-10.449m3.67 3.433c.182 1.902-.125 2.7-1.225 2.69s-1.59-1.015-1.572-3.115c.034-3.8 2.431-3.478 2.796.425M406.52 984.56c.036 7.201.229 8.003 2.029 8.02 1.5.012 1.603-.287.71-1.195-.693-.706-1.164-4.01-1.128-8.01.033-3.7-.34-6.803-.84-6.808-.4-.003-.832 3.593-.77 7.994M425.771 978.932c-2.48 9.078 1.64 18.015 5.3 11.347 1.625-2.885.166-7.498-2.434-7.521-.8-.008-1.492-.914-1.481-2.114.014-1.6.417-1.896 2.112-1.381 1.496.513 1.998.318 1.706-.585-.778-2.507-4.48-2.24-5.203.254m4.126 8.337c-.212 1.398-.723 2.594-1.323 2.588-.5-.004-1.09-1.21-1.277-2.611-.184-1.802.122-2.5 1.322-2.489s1.494.714 1.278 2.512M438.119 984.842c-.06 6.7.229 8.002 1.529 8.014 1.1.01 1.404-.488 1.014-1.591-.292-.903-.56-4.505-.529-8.005.032-3.6-.343-6.403-.943-6.409-.6-.005-1.03 3.291-1.071 7.991M395.344 981.861c-2.748 5.376-2.748 5.376.241 6.603 1.595.614 2.288 1.42 1.878 2.516-.408.897-.114 1.5.686 1.507.9.008 1.41-1.088 1.327-2.989-.085-1.7-.155-5.001-.233-7.502.022-2.5-.46-4.504-.86-4.508-.5-.004-1.818 1.984-3.04 4.373m2.782 2.025c-.013 1.5-1.828 3.084-2.62 2.277-.694-.706.732-3.694 1.732-3.685.5.004.895.608.888 1.408M415.12 984.637c-.005.5 1.39 1.013 3.09 1.028s2.804-.375 2.41-.979c-.295-.602-1.691-1.015-3.091-1.027-1.3-.012-2.404.378-2.41.978"/></svg>