<svg xmlns="http://www.w3.org/2000/svg" viewBox="0 0 864 1214" fill="currentColor"><path d="M227 27.8c0 .5 1.1 1.9 2.5 3.2 2.9 2.7 3.2 2.1.9-1.5-1.6-2.4-3.4-3.3-3.4-1.7M206 35.5c5.1 3 41 20.5 42 20.5.5 0 1 .9 1 2s.6 2 1.4 2c1.8 0 4 5.3 3.2 7.7-.6 1.7-10.3 7.1-25.1 13.8-3.3 1.5-8.7 4-12 5.5s-8.7 3.7-12 4.9c-3.3 1.3-6.9 2.7-8 3.2-1.1.4-8.7 3.1-17 5.8-21.2 6.9-28.2 8.5-53.2 12.1-14.8 2.1-25.4 1-43-4.5-1.3-.4-2.3-.3-2.3.1 0 1 10.5 4.5 18.9 6.5 3.5.7 9.1 1 15.7.6 10.2-.6 10.2-.6 15 2.9 2.7 1.9 11.1 7.5 18.7 12.5 22.7 14.9 43.2 30.2 47.5 35.5 3.3 3.9 4.8 8.2 3.5 9.4-.4.5-7.2 1-15 1.2-13.3.4-14.4.6-16.8 2.8-4.9 4.6-2.6 13.9 4.8 19.4 2.5 1.8 4.5 2.1 16.5 2.4 15.1.4 28.6-1.6 34.1-4.9 5.3-3.2 7.3-7.5 6.8-14.5l-.5-6.2 7.7-2.5c4.2-1.4 8.4-2.8 9.3-3.2 1.4-.5 1.8.2 2.4 4.1.9 6.5-1 19.5-3.2 21.1-3.2 2.3-30.3 9.8-40.9 11.3-17.2 2.4-31.4.6-50-6.3-6.6-2.4-14-5-16.5-5.8-5.4-1.6-9-3.7-9-5.3 0-2.5-9-18.8-14.4-25.9C103.7 147.9 90 138 73.4 133c-4.3-1.3-11.9-.2-16.9 2.3-2.4 1.2-6.7 5.5-9 9.1-1 1.4-2.7 2.6-3.8 2.6-2 0-2 0-.1 1.4 2 1.5 4.4.5 4.4-1.9 0-1.7 7.6-9.4 10.3-10.4 7.3-2.8 16.9-2 25.2 2.2 10.6 5.3 23.1 15.8 30 25.2 1.7 2.2 3.2 4.2 3.5 4.5 1.3 1.2 6.7 10.8 7.9 14 .8 1.9 1.8 3.9 2.3 4.5.4.5.8 1.7.8 2.6 0 1.5-.9 1.4-7.9-1-6-2-8.4-3.3-10-5.6-2.7-3.9-13.1-14.7-20.1-20.8-5.7-5.1-15.5-10.6-22.7-12.7-7.2-2.2-14.6 1.3-18.3 8.4-1.9 3.7-2 15.7-.1 21.4 1.3 3.9.9 6.9-.7 4.7-1.7-2.3-13.3-11.6-14.2-11.3-.5.2 2.9 3.4 7.6 7.3 10 8.1 11.4 9.9 11.4 14 0 5.1 3.7 16.5 8.5 26.2 5.3 10.8 15.4 21.9 24.5 26.8 4.8 2.6 6.4 3 13 2.9 13-.2 32.8-8.6 37.6-15.8 2-3.2 2.6-3.2 11.6-.2 34.2 11.5 51.2 11.5 88.8-.1 21.6-6.6 44.6-17.4 73.2-34.4 16.2-9.7 21.2-16 25.1-32.1 1.9-7.7 1-11.2-4.1-16.1-2.8-2.7-2.9-3.2-2.5-9.2.7-7.9-.9-14.9-5.5-24.5-3.1-6.3-5.7-9.5-16.7-20.5-7.1-7.2-16.1-15.3-19.9-18-13.1-9.6-14.4-10.5-22.5-15.5-4.6-2.7-9.3-5.3-10.6-5.6s-3.1-1.4-4.1-2.5c-.9-1-2.4-1.9-3.2-1.9s-10.2-4.3-20.8-9.5c-10.7-5.2-20-9.5-20.7-9.5-.6.1-.1.7 1.3 1.5m52.2 26.1c2.9 1.5 21.6 14 22.8 15.2.3.2-.1.7-.7.9-.8.3-1.3 2.2-1.3 4.4 0 2.1-.5 3.9-1 3.9-.6 0-6-3.3-12-7.3-11-7.1-11-7.2-10.5-10.5.4-2.2.1-4.2-1-5.8-1.8-2.8-.7-3.1 3.7-.8m-1.5 12.9c2.3 1.4 4.3 3 4.3 3.5 0 1.3-29.9 15.7-46 22.2-21.1 8.5-41.9 14.8-63.8 19.3l-12.3 2.6-4.9-3.2c-5.2-3.4-5.6-4.9-1.1-4.9 2.6 0 17.8-2.9 27.1-5.1 10.8-2.7 44.4-14.4 56-19.6 7.8-3.6 32.6-15.4 34-16.2 2.1-1.3 1.8-1.4 6.7 1.4m13.1 8.7c2.6 1.8 5.3 3.8 6 4.5s1.8 1.3 2.3 1.3.9 1.3.9 3c0 2.6-.4 3-2.8 3-5.6 0-6.7 1.9-6.3 10.7.1 4.3.7 7.9 1.2 8.1 1.2.5 1.2 4.9-.1 5.7-.5.3-1 3.7-1 7.4 0 7.2 1.3 9.7 4.4 8.5 1.1-.4 1.9.2 2.6 2 1.5 4.1 3 3 3-2.3 0-5.6 2-8.2 4.8-6.4 3.2 2 13.6.2 15.1-2.6 1.5-2.7.4-8.8-1.9-11.1-1.5-1.5-2-2.9-1.6-4.5.5-1.9-.3-3-4.1-6.1-2.7-2.1-4.9-3.8-4.9-3.9-.1 0-.5-1.1-.9-2.3-.6-2.2-.5-2.3 1.7-1.1 1.2.6 2.5 1.5 2.8 1.8.3.4 4.9 4 10.2 8 22.6 17 23.7 19.6 13.6 30.4-5.1 5.3-8.1 7.4-15.8 11-5.2 2.5-10.6 4.8-12 5.2s-4.7 1.8-7.5 3c-14.4 6.6-51.4 18.7-54.7 18-1.5-.4-5.1-.2-8 .4-8.8 1.7-13 1.7-13.8.1-4.4-9.5-5.7-11.3-10.9-15.2-3.1-2.4-5.8-4.5-6.1-4.8-.9-.9-11.5-8.7-16.5-12.1-2.7-1.9-5.2-3.7-5.5-4s-5.4-3.8-11.3-7.8c-6-4-10.7-7.4-10.5-7.6.1-.2 4.6-1 9.8-1.9s10.6-2 12-2.5 5.2-1.7 8.5-2.6c7.3-2.1 27.2-8.4 30-9.6 1.1-.4 6.3-2.4 11.5-4.5 10.5-4 18.6-7.7 36.5-16.4 6.6-3.3 12.6-5.9 13.3-6 .7 0 3.4 1.4 6 3.2m24.8 3.9c17.1 14.9 31.8 33.9 29.9 38.7-.5 1.4-1 1-2.5-1.9-1.8-3.5-5.5-7.2-13.5-13.6-10.4-8.3-15.3-12.1-18.2-14.2-3.1-2.1-3.3-2.6-3.3-8.2 0-3.2.4-5.9.8-5.9s3.5 2.3 6.8 5.1m31.8 43.1c1.1 4.2.6 14.5-.9 18.1-2.9 6.9-13.2 12.6-14.9 8.1-1.1-2.9-.6-9.5 1-12.5.8-1.7 3.1-4.4 4.9-6.1 1.9-1.6 4.4-4.5 5.5-6.4 2.5-4 3.5-4.3 4.4-1.2m-16.5 28.1c2.2 2.8 6.4 2 10.9-1.9 2.3-1.9 4.2-3.2 4.2-2.7 0 1.3-6 7.5-9.1 9.5-5.1 3.3-19.2 10.8-20.1 10.8-.6 0-.6-2.2-.2-5.8.4-3.1.8-8.2.8-11.2.1-5.4.1-5.4 5.6-8.1l5.5-2.6.5 5.2c.3 2.8 1.1 5.9 1.9 6.8m-241.4-7.2c6.8 1.9 7.1 2.9 1.7 5.4C60.5 161 53 170.6 53 178.7c0 3.5-1.4 4.4-2.5 1.6-1.1-3.1-1.8-13.9-1.1-18.5.8-5 3.8-9 8.1-10.6 4-1.4 6.2-1.4 11-.1m262.2 1.1c4.1 4.6 4.6 6.6 3.3 13.2-1.7 8.1-6.1 17.4-10.4 21.8-4.5 4.6-27.3 18.2-48.1 28.6-19.9 10-45.5 18.7-66.9 22.8-11.3 2.1-30.6 1.5-41.6-1.4-13.7-3.7-27.2-8.2-30.7-10.3-2.1-1.3-4.1-3.9-5.4-6.7-4-9-9.4-19.7-12.6-25.1-1.8-3-3.3-5.8-3.3-6.2s3.7.6 8.3 2.3c4.5 1.6 9.6 3.4 11.2 4 1.7.5 3.9 1.4 5 1.8 1.1.5 4 1.6 6.5 2.4s7.7 2.6 11.5 4.1c15.7 5.9 35.4 8.1 48.7 5.5 14.4-2.9 33.7-8.2 41.2-11.4 1.7-.7 4.9-1.9 7.1-2.6 10-3.2 54.2-24.7 62.1-30.1 5.5-3.7 10.4-9.7 10.4-12.6s1.1-2.9 3.7-.1m-36.1 3.5c.7 2.5-1.1 17.1-2.1 18.1-.2.3-1.2-.1-2.1-.8-1.3-1.2-1.4-2.7-.8-9.9.6-7.8 1.4-10 3.6-10.1.4 0 1.1 1.2 1.4 2.7m-212.3 2c2.8 1.4 3 1.7 1.2 2.3-1.5.5-.8 1.2 3.8 3.5 9.7 4.7 20.9 20.5 26.2 36.9 3.2 10 4.1 26.1 1.9 33.8-.3 1-.1 1.8.4 1.8 2.7 0 3.1-20.6.7-30.1-.9-3.4-2.9-9.5-4.6-13.5-3.4-8.6-3.6-9.8-1.1-6.4 4.7 6.6 19.2 34.2 19.2 36.7 0 .6 1.6 2.5 3.6 4.1 4.2 3.5 3.8 4.7-3.2 10.1-7.4 5.7-19.5 9.8-31.6 10.8-5 .4-6.5.1-12-2.7-13.1-6.6-24.8-22.6-30.4-41.5-2.5-8.4-2.6-25.3-.1-31.7 2-5.2 7.4-10.5 14.1-13.7 5.1-2.5 7.8-2.6 11.9-.4m205.4 4.2c-.3 3.3-.8 6.5-1.2 7.1-1.2 2-33 15.9-33.9 14.9-.2-.2-.6-3.6-1-7.5-.7-7.1-.7-7.1 4.1-8.7 2.6-.9 10.2-3.8 16.8-6.6 16-6.6 15.9-6.6 15.2.8m1.3 12c.5 1.1 1 2.2 1 2.6 0 .5-12.2 6.5-23 11.2-1.9.8-5.7 2.6-8.4 3.9-2.8 1.3-5.8 2.4-6.9 2.4-1.6 0-1.8-.5-1.2-3.3.8-3.8 1-4 5.5-5.7 1.9-.7 4.9-1.8 6.5-2.5 1.7-.7 6.4-2.7 10.5-4.4 4.1-1.8 8.6-3.8 10-4.6 3.4-1.9 4.7-1.8 6 .4m-61.9 4c1.9 1.5 2.4 2.8 2.3 6.3 0 2.4-.9 5.6-1.8 7-3.8 5.8-16.6 9-35.9 8.9-12.5 0-14.1-.2-17-2.2-5.2-3.6-6.7-6-6.7-11 0-6.2 1.4-7.2 9.6-7 6.8.1 42.5-2.7 43.3-3.5 1-1 4-.3 6.2 1.5"/><path d="M131.7 206.4c-1.2 3.1 1.9 5.8 10.6 9.2 4.9 1.9 9.3 3.1 9.8 2.8 1.8-1.1.8-4.3-2-6.3-1.6-1.2-3.4-2.1-3.9-2.1-.6 0-3.4-1.1-6.4-2.5-6.1-2.8-7.4-3-8.1-1.1m19.3 8.9c0 1.1-2.7.6-9.5-2-6.3-2.3-7.5-3.1-7.5-4.8 0-.9 2.5-.2 8.5 2.3 4.7 1.9 8.5 3.9 8.5 4.5M74.8 179.6c-6.4 3.4-8.5 14.8-4.8 26.2 3.5 10.7 8.5 17.6 15.6 21.8 4.8 2.8 8 3 11.4.7 3.6-2.5 4.8-4.3 6-9.5 3-12.1-6.8-33.1-18.1-38.9-4.5-2.3-6.5-2.3-10.1-.3m9.9 2.5c11.8 5.7 20.7 27.8 15.9 39.3-3.7 8.8-12.3 8.5-20.9-.7-10.7-11.5-13.3-35.2-4.2-39.6 3-1.5 4.5-1.3 9.2 1M234 35.6c0 1.7 3.7 6 4.5 5.3.3-.4-.5-2-1.9-3.5-1.4-1.6-2.6-2.4-2.6-1.8M241.1 45c0 1.6 2.2 5 3.3 5s.6-1.4-1.4-4c-1.3-1.6-2-2-1.9-1M246.2 64c-.7 1.1-.9 2-.4 2 1 0 3.2-2.2 3.2-3.2 0-1.5-1.5-.8-2.8 1.2M239.3 69.7c-1.3.8-2.3 2.2-2.3 3 0 1.1.7.9 3-.7 1.7-1.2 3-2.6 3-3.1 0-1.3-1.1-1.1-3.7.8M229.4 75.4c-2.9 2.1-1.2 2.8 2.4 1 1.8-.8 3.2-1.7 3.2-2 0-1-3.8-.3-5.6 1M220.3 79.2c-2.3 1.1-3.1 2.8-1.3 2.8 1.6 0 6-2.3 6-3.2 0-1.1-2-.9-4.7.4M210.3 83.2c-2.2 1.1-3.1 2.8-1.5 2.8 1.5 0 6.2-2.5 6.2-3.3 0-1-2.1-.8-4.7.5M199.5 87.3c-1.1.9-1.4 1.6-.7 2.1.6.3 1.3.2 1.7-.4.3-.5 1.5-1 2.6-1 1 0 1.9-.5 1.9-1 0-1.4-3.3-1.2-5.5.3M188.8 91.4c-1 .7-1.5 1.6-1.2 1.9.6.6 5.2-1.1 6.9-2.5 1.6-1.4-3.9-.8-5.7.6M180.3 94c-3.3 1.3-2.8 2.7.7 2.2 1.7-.2 3-1 3-1.8 0-1.6-.6-1.6-3.7-.4M169.8 97.3c-1.6.6-2.8 1.5-2.8 1.9 0 .5 1.2.5 2.8.2 3.4-.9 4.2-1.3 4.2-2.5 0-1.1-.6-1-4.2.4M159.2 100.2c-1.8.5-3 1.3-2.7 1.8.6 1 5.4.3 6.8-1 1.5-1.3-.7-1.7-4.1-.8M147.5 103.4c-1.6.7-2.5 1.5-1.9 1.9 1.5.9 8.6-1.2 7.9-2.4-.8-1.2-2.3-1.1-6 .5M91 103.8c0 1.1 2.4 2.2 4.8 2.2 2.1 0 .5-1.5-2.5-2.5-1.3-.3-2.3-.2-2.3.3M137.5 105.8c-4.9.6-5.4 2.2-.8 2.2 2.3 0 4.4-.4 4.8-.9.8-1.3-.5-1.7-4-1.3M100 106.9c0 1.1 5.9 2 6.5 1.1.3-.4.2-1-.2-1.4-1-.9-6.3-.7-6.3.3M110.6 107.8c-.3.6 1.2 1.2 3.4 1.4 2.5.2 3.9 0 3.7-.7-.5-1.3-6.3-1.9-7.1-.7M122.5 108.1c-.4.6-.5 1.3-.2 1.6.8.8 6.7-.7 6.7-1.8 0-1.3-5.7-1.1-6.5.2M407.4 301.5c-2.6 2.6-3.1 7-1.1 9.7 2.2 2.9 7.1 2.7 8.7-.3 1.5-2.7.2-4-1.5-1.6-2.7 3.7-7.4.2-6.2-4.5.9-3.3 3.5-4.3 5.9-2.2 2.1 2 3.7 1.2 1.9-1-2.2-2.6-5.2-2.6-7.7-.1M417.7 299.6c-1.3 1.3-.7 2.4 1.3 2.4 1.8 0 2 .7 2 5.5 0 3 .5 5.5 1 5.5.6 0 1-2.5 1-5.5 0-4.4.3-5.5 1.6-5.5.9 0 1.4-.6 1.2-1.3-.5-1.3-6.9-2.2-8.1-1.1M464.5 300c-.3.5.3 1 1.4 1 1.9 0 2.1.6 2.1 5.4 0 3 .5 5.8 1 6.1 1 .6 1.4-3.3 1-8.3-.1-1.6.5-2.5 1.9-2.9 1.2-.3 2.1-.9 2.1-1.4 0-1.2-8.7-1.1-9.5.1M476.4 300.4c-.3.7-.4 3.8-.2 6.7.3 5.3.3 5.4 3.7 5.7 1.8.2 3.8-.1 4.4-.7.8-.8 0-1.1-2.6-1.1-3 0-3.7-.4-3.7-2s.7-2 3-2c3.8 0 4-1.8.3-2.2-1.7-.2-2.9-1-3.1-2.1-.3-1.4.4-1.7 3.3-1.7 2.2 0 3.4-.4 3-1-.9-1.5-7.5-1.2-8.1.4M507.5 300.2c-.2.7-.5 2.6-.7 4.3-.3 3-.3 3-2.8-.7-3.7-5.5-5-4.9-5 2.2 0 3.3.4 6 1 6s1-1.9 1-4.3v-4.2l2.8 4.2c3.9 6.2 5.2 5.6 5.2-2.2 0-6.2-.5-8-1.5-5.3M514.7 299.7c-1.3 2.1-4.6 11.7-4.2 12.2.3.2 1.4-.5 2.5-1.7 1.2-1.2 2.3-2.2 2.5-2.2s1.3 1 2.5 2.2c1.1 1.2 2.2 2 2.4 1.7.6-.6-2.8-10.7-4.1-12-.6-.6-1.3-.7-1.6-.2m1.6 6.6c-.3.5-1 .4-1.5-.1-.6-.6-.7-1.6-.3-2.2.6-.9.9-.9 1.6.1.4.7.5 1.7.2 2.2M522.5 301.1c1.1 3.2 1.1 9.9.1 12.1-.5 1.1-.4 1.8.3 1.8.5 0 1.5-1.8 2.1-4.1 1.2-4.2 0-10.2-2.2-11.5-.8-.5-.9 0-.3 1.7M353 300.7c.1.4.7 3.3 1.4 6.3 1.4 6.3 3.6 7.3 4.7 2.2 1-4.8 1.6-4.9 2.9-.3 1.3 4.8 2.4 5.2 3.8 1.3 1.6-4.2 2.3-9.2 1.2-9.2-.5 0-1.2 1.6-1.6 3.5-.7 3.9-2.4 4.8-2.4 1.2 0-1.3-.6-3.2-1.4-4.3-1.6-2.1-1.8-1.8-3 3.8-.9 3.8-2.2 3.5-3-.7-.6-2.9-2.7-6.1-2.6-3.8M374.7 300.7c-.4.3-.7 3.2-.7 6.4 0 5.8 0 5.8 3.4 6.5 3.5.6 5.6 0 5.6-1.7 0-.5-1.6-.9-3.5-.9-2.4 0-3.5-.5-3.5-1.5 0-.9.9-1.5 2.3-1.5 1.2 0 2.9-.4 3.7-1 1.3-.8 1.3-1 0-1.4-.8-.3-2.4-.6-3.4-.8-3.7-.6-3-2.8.8-2.8 2 0 3.6-.5 3.6-1 0-1.1-7.3-1.4-8.3-.3M385.8 300.6c-.5.4-.8 3.4-.8 6.6 0 5.8 0 5.8 4 5.8 2.2 0 4-.5 4-1 0-.6-1.3-1-3-1-2.8 0-2.9-.1-3.2-5.6-.2-3.1-.6-5.2-1-4.8M395 306.5c0 6.5 0 6.5 4 6.5 2.2 0 4-.5 4-1 0-.6-1.3-1-3-1-2.3 0-3-.4-3-2s.7-2 3-2c1.7 0 3-.5 3-1 0-.6-1.3-1-3-1q-3 0-3-1.5t3-1.5c1.7 0 3-.5 3-1 0-.6-1.8-1-4-1-4 0-4 0-4 6.5M443.1 305.6c-2 5.4-2 8.8 0 5.1 1.4-2.3 4.6-2.2 5.9.4 2 3.7 2.2 1.2.4-5-1-3.4-2.4-6.1-3-6.1s-2.1 2.5-3.3 5.6m3.9-.1c0 .8-.4 1.5-1 1.5-.5 0-1-.7-1-1.5s.5-1.5 1-1.5c.6 0 1 .7 1 1.5M453 306c0 6.8 1.7 8.2 2.2 1.7l.3-4.2 2.8 4.8c1.5 2.6 3.2 4.5 3.8 4.2 1.2-.8 1.2-12.5-.1-12.5-.5 0-1 1.6-1 3.5s-.3 3.5-.8 3.5c-.4 0-1.6-1.6-2.6-3.5-3-5.4-4.6-4.6-4.6 2.5M487 306c0 6.8 1.7 8.2 2.2 1.7l.3-4.2 2.8 4.8c1.5 2.6 3.2 4.5 3.8 4.2 1.5-1 1.2-12.8-.3-12.2-.8.2-1.2 1.8-1.1 3.8l.3 3.4-2.5-3c-1.4-1.7-2.5-3.3-2.5-3.8 0-.4-.7-.7-1.5-.7-1.2 0-1.5 1.3-1.5 6M349.1 304.8c-.7 2.5-.7 4.9 0 7.4 1.6 6.1 2.4 5.1 2.4-3.3 0-8.6-.8-10-2.4-4.1M369.7 306.7c-.9 3.1-1.4 5.9-1.2 6.2.8.7 1.6-.6 2.5-4.1.5-1.8 1.2-4.3 1.5-5.6.4-1.2.3-2.2-.2-2.2-.4 0-1.6 2.6-2.6 5.7M433 312c0 .5.5 1 1 1 .6 0 1-.5 1-1 0-.6-.4-1-1-1-.5 0-1 .4-1 1M390 333v11.9l27.8.3c15.2.2 34.1.2 42 0l14.3-.3-.3-11.7-.3-11.7-41.7-.3-41.8-.2zm81.8.2.3 9.8H392v-20l39.8.2 39.7.3z"/><path d="M396.2 327.2c-.7.7-1.2 3.3-1.2 6 0 5.5 2.4 7.8 6 5.8 3.6-1.9 2-8-2.2-8-1 0-1.8-.7-1.8-1.5 0-1.7 2.5-2 3.5-.5.4.6 1.1.8 1.6.4 1.4-.8-.9-3.4-3-3.4-.9 0-2.2.5-2.9 1.2m4.8 7.8c0 1.3-.7 2-2 2s-2-.7-2-2 .7-2 2-2 2 .7 2 2M405.9 327.6c-2.1 2.6-1.7 9.3.6 11 2.6 1.9 4.8 1.4 6-1.4.7-1.6 1.8-2.2 4.2-2.2 1.8 0 3.3-.5 3.3-1.1 0-.8-1.2-1-3.4-.6-2.5.4-3.6.1-4-.9-.3-.8-1.7-1.4-3.1-1.4-2.5 0-3.3-1.4-1.5-2.5.6-.4 1.8-.1 2.6.6 1.9 1.6 3 .4 1.4-1.6s-4.4-1.9-6.1.1m5.1 7.4c0 1.3-.7 2-2 2s-2-.7-2-2 .7-2 2-2 2 .7 2 2M422.2 327.2c-2.7 2.7-.7 7.8 3 7.8 1 0 1.8.5 1.8 1.1 0 .7-1.1.9-3 .5-3.7-.7-4 1-.4 2.6 2.3 1.1 2.9 1 4.6-1.2 4.6-5.7-1-15.8-6-10.8m4.5 1.9c1.4 1.4.6 3.9-1.2 3.9s-2.8-1.7-2.1-3.5c.6-1.8 1.8-1.9 3.3-.4M432.5 327.6c-2 2-1.1 3.2 1 1.4 1.3-1 1.8-1.1 2.8-.1.9 1 .8 1.4-.6 2.3-1.8.9-1.8 1.1.2 2.5 2.7 1.8 2.7 3.3.1 3.3-1.1 0-1.9-.5-1.7-1.1.4-1.9-2.3-2.2-3-.3-.4 1.1 0 2.2 1.2 3 4.4 3.2 7.7.3 7.1-6.3-.6-6.1-3.7-8.1-7.1-4.7M442.4 328.5c-3.4 5.2.8 13.1 5.6 10.5 2.9-1.5 2.9-10.4.1-12-2.9-1.5-3.9-1.3-5.7 1.5m5.6 4.6c0 3.2-.3 3.9-2 3.9s-2-.7-2-3.8c0-4.3.6-5.3 2.6-4.5.9.3 1.4 2 1.4 4.4M429.8 346.6c-.5.4-.8 3.5-.8 6.9v6.3l-37.2.6c-20.5.3-68.6.8-106.8 1.1-38.2.4-71.5.8-74 1-2.5.1-41.1.4-85.8.5-44.7.2-81.5.7-81.8 1.1-.3.5-.5 13.6-.6 29.2-.1 68.8 1.3 493.5 1.7 532.7.3 23.9.8 80.6 1.1 126 .4 45.4.7 82.6.8 82.6 0 .1 19.5.4 43.1.8 23.7.3 57 .8 74 1.1 17.1.3 96 .7 175.5 1s219.2.8 310.4 1.2l165.9.6-.6-35.9c-.7-36.5-2.5-150.3-2.8-173.7 0-7.1-.4-12.5-.8-12-.6.8 0 73.4 1.4 167.7l.8 51.9-206.9-.8c-113.8-.4-207.2-.9-207.5-1.1s-51.9-.4-114.5-.5c-99-.2-235.4-1.4-235.9-2.2-.2-.1-.5-19.8-.9-43.7-.3-23.9-.8-53.6-1.1-66s-.7-126-1-252.5c-.2-126.5-.8-269.2-1.1-317.2-.6-74.6-.5-87.3.7-87.7.8-.2 52.3-.7 114.4-1 62.2-.4 126.5-.8 143-1.1s94.1-.9 172.5-1.5c137.9-1 167.2-1.3 276.6-2.7 30.9-.3 51.3-.2 51.7.3.9 1.5 2.5 126.8 4.2 334.4 1.2 135.6 2.3 220.1 2.9 220.7.3.4.6-.5.7-1.8.1-6.7-.4-82.6-.6-89.9-.2-4.7-.8-58.9-1.4-120.5s-1.6-162.9-2.2-225c-.6-62.2-1.2-114.6-1.3-116.5l-.2-3.5-24.9.1c-13.8 0-79.7.5-146.6 1s-139.8.9-162 .9h-40.4l-.5-6.8c-.3-3.8-.8-6.5-1.2-6.1"/><path d="M473.1 369c-4.1 2.6-3.5 3.8.8 1.6 4.1-2.2 4.1-2.1 4.1 2.3 0 2.2.5 4.3 1.1 4.6.7.5.9-1.1.7-4.6-.4-6.3-1.6-7-6.7-3.9M463.6 374.5c-1.1.8-1.7 1.7-1.4 2.1.7.6 4.8-1.7 4.8-2.8 0-1.2-1.3-.9-3.4.7M451.8 381.1c-1.9 1-2.4 2.9-.9 2.9.5 0 1.9-.9 3.2-2 2.6-2.1.9-2.8-2.3-.9M478 385.9c0 1.7.5 3.3 1 3.6.6.4 1-.8 1-2.9 0-2-.4-3.6-1-3.6-.5 0-1 1.3-1 2.9M445 384.8c-.8.3-1.8 1-2.2 1.6-1.1 1.6-1 7.6.2 7.6.6 0 1-1.5 1-3.3 0-2.5.6-3.6 2.2-4.4 2.3-1 1.3-2.4-1.2-1.5M478.7 393.7c-1.1 1-.8 7.3.3 7.3.6 0 1-1.8 1-4 0-4.1-.2-4.5-1.3-3.3M442 400c0 1.6.5 3 1 3 .6 0 1-1.4 1-3 0-1.7-.4-3-1-3-.5 0-1 1.3-1 3M437.1 406.1c-5.7 2.3-9.9 9.6-7.2 12.4.5.6 1.1 1.9 1.3 3 .3 1.9-.4 2-18.7 2.5l-19 .5-.3 25.2-.2 25.2-6 .3c-7.8.4-7.8 2.2 0 2.6 6 .3 6 .3 6.1 6 .2 18.5 1 42.9 1.4 43.9.3 1 4.4 1.3 15.5 1.3 15 0 15 0 15 2.8 0 9.4 25.5 14.9 34.3 7.4 1.7-1.5 2.3-7.6.9-9.9-.4-.6-3.2-2.4-6.2-3.9-7.7-3.9-19-4.6-25.2-1.5-3.9 1.8-6.2 2.1-18.6 2.1H396v-32h29.9l-.6 5c-.4 3.6-.1 5.6 1 7.3 4.8 7.3 26.4 10.3 32.7 4.5 2.1-2 2.2-2.7 1.7-10.5-.8-10.9-4.9-20.1-10.1-22.5-5.9-2.9-9.7-3-14.5-.5-4.3 2.2-5.8 4.1-8.1 10.4-1.2 3.3-1.2 3.3-16.5 3.3h-15.3l-.7-14.5c-.4-8-.5-14.8-.3-15 .2-.3 7.8-.5 16.7-.6 16.3-.2 16.3-.2 18.5 2.4 2.6 3.1 5.4 4 12.4 3.8 9.1-.2 14-5.5 11-11.8-3.7-7.8-19.9-8.2-23.7-.6-1.5 2.9-2.1 3.1-7.6 3.5-3.3.3-10.7.4-16.5.4l-10.5-.1-.3-15.6c-.3-18.4-2.5-16.7 21.8-16.5l15.5.1.9 4.2c1.1 4.8 3.8 6.8 9.6 6.8 5.5 0 8-2.6 8-8.4 0-2.5.7-5.8 1.4-7.3 2.6-5 2.4-8.4-.7-11.9-4.1-4.8-9-6-14.6-3.8m7.4 3.8c.8 1.5-3.5 3.5-4.7 2.3-.6-.6-.7-1.5-.4-2.1.9-1.4 4.3-1.4 5.1-.2m3.5 3.1c0 .5-.4 1-1 1-.5 0-1-.5-1-1 0-.6.5-1 1-1 .6 0 1 .4 1 1m-13.3 2c3.5 2.7 10.5 2.7 14.4-.1 2.9-2 2.9-2 2.9.4 0 2.5-2.1 3.8-8.2 5.1-3.5.8-10.8-.8-11.9-2.6-1-1.5-1.2-4.8-.3-4.8.3 0 1.7.9 3.1 2m15.3 8c-.1 1.3-2.9 4-5 4.8-2.9 1.1-9-.1-10.1-2-1.8-2.8-.7-3.3 7.1-3.3 4.4-.1 8 .2 8 .5m-3 9c0 .5-1.2 1-2.7.9-2.8-.1-2.8-.1-.3-.9 1.4-.4 2.6-.8 2.8-.9.1-.1.2.3.2.9m-6.3.6c-.3.3-1.2.4-1.9.1-.8-.3-.5-.6.6-.6 1.1-.1 1.7.2 1.3.5m6.9 23.5c3.5 2.9-4.9 5.8-9.8 3.3-2.9-1.5-2.9-3.9 0-4.8 2.5-.7 8.2.1 9.8 1.5m-14.6.8c0 1.1.7 2.7 1.6 3.5.8.9 1.1 1.6.5 1.6-1.6 0-4.1-3-4.1-5.1 0-1 .5-1.9 1-1.9.6 0 1 .9 1 1.9m14 23.6c3.6 1.9 3.7 2.9.8 4.9-2.7 1.9-5.8 2-9.3.4-3.1-1.4-3.2-4.1-.2-5.6 3.1-1.5 5.4-1.4 8.7.3m-13 2.5c0 1.1.9 2.9 2 4 2.4 2.4.4 2.7-2.2.3-1.9-1.7-2.5-6.3-.8-6.3.6 0 1 .9 1 2m17.4 4.1c-.9 1-2.2 1.9-2.7 1.9-.6 0-.1-1 1.1-2.3s2.3-3 2.3-3.8c.1-.8.3-.7.6.4.3 1-.3 2.7-1.3 3.8m5.5 2.6c.7 1.5 1.5 6.4 1.8 11 .6 8.3.6 8.3-3.3 9.9-4.2 1.8-15.2 1.3-20.3-.9-8.2-3.5-9.3-5.9-7-15.5 1.5-6.1 2.4-7 4.7-4.8 3 2.6 11.3 3.2 16.7 1.2 2.5-1 4.5-2.2 4.5-2.7 0-1.9 1.7-.8 2.9 1.8m-14.6 0c-.7.2-1.9.2-2.5 0-.7-.3-.2-.5 1.2-.5s1.9.2 1.3.5m-12.9 38.7c-.3 1.3-.1 2.7.5 3 2 1.3 1.2 2.7-.9 1.6-2.8-1.5-2.6-7 .2-7 .5 0 .6 1.1.2 2.4m20.8.7c4.3 1.1 5.4 2.4 3.8 4.4-1.8 2.1-13.9 2-18.5-.2-4.3-2.1-4.4-3-.2-4.8 3.2-1.4 7.5-1.2 14.9.6m7.8 4.9c0 .5-.5 1-1.1 1-.5 0-.7-.5-.4-1 .3-.6.8-1 1.1-1 .2 0 .4.4.4 1m-20 4.5c0 .3-.2.5-.5.5s-.5-.2-.5-.5.2-.5.5-.5.5.2.5.5m3 1c0 .3-.2.5-.5.5s-.5-.2-.5-.5.2-.5.5-.5.5.2.5.5m4.7.2c-.4.3-1 .3-1.4 0-.3-.4 0-.7.7-.7s1 .3.7.7M478.5 407.2c-.4 1-.4 2.6 0 3.5.8 1.7.8 1.7 1.2 0 .3-.9.3-2.5 0-3.5-.4-1.6-.4-1.6-1.2 0M478.7 418.7c-1.1 1-.8 6.3.3 6.3.6 0 1-1.6 1-3.5 0-3.6-.2-4-1.3-2.8M478.7 430.7c-1.1 1-.8 5.1.3 5.8.6.4 1-.8 1-2.9 0-3.7-.2-4.1-1.3-2.9M478.4 443.3c-.2.7 0 2.4.5 3.8.9 2.2 1 2.1 1-1.4.1-3.7-.5-4.8-1.5-2.4M293.4 466.3c-.2.7-.3 6-.2 11.8l.3 10.4 41.8.3 41.7.2v-24h-41.5c-33.5 0-41.7.3-42.1 1.3M375 477v10h-80v-20h80z"/><path d="M310 471c-2.9 2.9-2.4 9.6.7 11.7 1.9 1.3 2.4 1.2 4.2-.6 1.2-1.2 2.1-2.6 2.1-3.1 0-1.9-3.9-5-5.6-4.3-1.2.4-1.5.2-1.2-.8.3-.8 1.6-1.3 3.2-1.2 3.1.2 3.4-1.2.6-2.7-1.6-.8-2.4-.6-4 1m4.8 7.7c-.2 1-1.3 1.9-2.6 2.1-1.7.3-2.2-.2-2.2-1.7 0-1.6.6-2.1 2.6-2.1 1.9 0 2.5.5 2.2 1.7M327.2 474.2c-1.1 2.9-2.3 6.1-2.7 7-.4 1-.3 1.8.3 1.8s1.4-.9 1.7-2c.9-2.8 5.1-2.6 6.6.2.7 1.3 1.4 1.8 1.6 1.2.5-1.4-3.5-12.1-4.7-12.9-.5-.3-1.7 1.8-2.8 4.7m3.8 1.4c0 .8-.7 1.4-1.5 1.4-1.7 0-1.8-.2-.9-2.4.7-1.8 2.4-1.2 2.4 1M338.8 470.4c-1 .7-1.8 1.9-1.8 2.7 0 1 .3 1 1.2.1 1.5-1.5 4.8-1.6 4.8-.1 0 .7-.8 1.8-1.7 2.5-1.7 1.3-1.7 1.3 0 1.4 2.5 0 2.3 4-.3 4-1.1 0-2-.5-2-1 0-.6-.4-1-1-1-1.7 0-1.1 2.9.8 3.8.9.6 2.7.6 3.9.1 3.9-1.4 2.4-13.8-1.7-13.8-.3 0-1.3.6-2.2 1.3M349.8 470.1c-2.2 1.2-3.4 7.4-1.9 10.5 1.3 3 5.6 3.3 7.1.5 1.2-2.3 1.3-7.1.2-8.6-1.8-2.4-3.8-3.3-5.4-2.4m3.7 6.4c0 3.4-.3 4-2.2 4.3-2.1.3-2.3-.1-2.3-3.6 0-4.3.7-5.4 3-5 1 .2 1.5 1.5 1.5 4.3M298.6 473.2c-.9 2.1-1.1 4.1-.5 6.2.5 1.7.9 3.1.9 3.2s.9.4 2 .7c2.4.6 5-1.6 5-4.3 0-2.8-2.6-4.9-5.2-4.2-2.1.5-2.2.4-.9-1.2 1-1.2 2.2-1.5 4-1.1 2.1.5 2.3.4 1.2-.9-2.2-2.6-5.1-1.9-6.5 1.6m5.9 5.8c0 1.8-3.3 2.6-4.7 1.2-.6-.6-.7-1.5-.3-2.2 1-1.6 5-.8 5 1M318 478c0 .5 1.1 1 2.5 1s2.5-.5 2.5-1c0-.6-1.1-1-2.5-1s-2.5.4-2.5 1M554 491c-2.8 2.8-2.8 10.2.1 13.1 2.1 2.1 2.1 2.1.9 33.8-.8 22.9-1.6 32.5-2.6 34.8-1.1 2.4-1.4 9.4-1.4 33.2 0 28.9.1 30.2 2 31.8 1.9 1.7 2 3 2 29 0 27.2 0 27.2 3 28.8 3.6 1.9 3.2 1.9 6-.5 2.3-2 2.3-2 2.2-29.2 0-19.5.3-27.5 1.2-28 .7-.5 1.3-6.1 1.6-16l.5-15.3 10.8-.3c14.2-.4 14-2.2-.3-2.2h-11v-15.4c0-11.6-.3-15.6-1.3-16.5-1.1-.8-1.7-8.9-2.6-33.5-1.3-32.4-1.3-32.4.8-34.5 1.5-1.5 2.1-3.4 2.1-6.6 0-5.9-2.5-8.5-8-8.5-2.7 0-4.7.7-6 2m10.9 1.3c.8 1 .7 1.7-.2 2.6-.9 1.1-.9 1.4.1 1.8 1.7.7 1.5 4.3-.5 6.5-3.4 3.8-10.3 1.3-10.3-3.7 0-2.5.2-2.7 3-2.2 1.7.4 3 .2 3-.3 0-.6-.8-1-1.9-1-2.6 0-4.4-2.3-2.9-3.8 1.6-1.6 8.3-1.5 9.7.1m-2.9 23.1c0 4.6.3 9.1.6 10 .5 1.3-.1 1.6-2.6 1.6s-3.1-.3-2.6-1.6c.3-.9.6-5.4.6-10 0-7.7.2-8.4 2-8.4s2 .7 2 8.4m1 22.8c0 5.1.3 10.3.6 11.5.6 2.1.3 2.3-3.2 2.3h-3.9v-11.5c0-11.5 0-11.5 3.3-11.5 3.2 0 3.2 0 3.2 9.2m.8 26.2c-.3 10.1-.3 10.1-3.8 10.1s-3.5 0-3.8-10.5l-.3-10.6 4.1.4 4.1.4zm-.3 11.3c2.3-1.1 3.5-1.3 3.5-.5 0 3.5-8.9 5.1-12.2 2.1-2.9-2.6-2.1-3.4 1.7-1.6 3.3 1.6 3.7 1.6 7 0m-3.5 4.7c1.4 0 3.5-.3 4.8-.8 2.2-.7 2.2-.7 2.2 27.6 0 20.8-.3 28.7-1.2 29.6-.7.7-3.3 1.2-5.8 1.2s-5.1-.5-5.8-1.2c-.9-.9-1.2-8.8-1.2-29.6 0-28.3 0-28.3 2.3-27.6 1.2.5 3.3.8 4.7.8m0 86.7c0 21.2-.3 27-1.2 26.7-1-.4-1.4-6.9-1.6-27.1-.2-23.3 0-26.7 1.3-26.7s1.5 3.5 1.5 27.1m4.1-25.6c0 .8.1 12.5.1 26.1.1 17.2-.2 24.8-1.1 25.7-.8.8-1.1-5.6-1.1-26.1 0-17.5.4-27.2 1-27.2s1 .7 1.1 1.5M444 549.5c0 1.1-1.3 1.5-5.4 1.5-8.2 0-12.9 2.3-13.8 6.6-.4 2.1-.9 2.2-19 2.3l-10.8.1v25h-8c-4.7 0-8 .4-8 1s3.3 1 8 1h7.9l.3 11.7.3 11.8h31l.3 8.9c.3 10.5 2 13.6 8 15.4 5 1.5 9 1.5 13.3 0 6.4-2.2 7.9-5.3 7.9-15.6 0-6.5.3-8.2 1.9-9.6 1-.9 2.1-2.8 2.3-4.1.6-2.9-.9-14-2.4-17.7-1.5-4.1-8-6.8-16.1-6.8-9.9 0-14.6 2.5-14.7 7.7 0 1.3-.4 2.3-.8 2.3-1.4 0-3.2 6.5-3.2 11.8v5.2h-26v-46h27.6l5.6 5.5 5.5 5.4 9.7-.8c11.4-1 14.9-2.8 15.4-8 .4-4.3-1.7-7.3-6.7-9.6-2.5-1.1-4.1-2.5-4.1-3.5 0-1.8-1.9-3-4.6-3-.8 0-1.4.7-1.4 1.5m4 3.1c0 .8-.7 1.4-1.5 1.4-1.5 0-2.1-2.1-.9-3.3 1-.9 2.4.2 2.4 1.9m-14 2.1c-3.3 1.3-4 5.2-1.4 7.7 2.3 2.3.1 2-3-.5-4.5-3.5-2.6-7.9 3.4-7.8 1.5 0 1.9.3 1 .6m15.1 5.1c2.2.9 3.9 2 3.9 2.4 0 1.2-6.9 2.1-11.3 1.4-5.8-1-9.2-3.3-7.6-5.2 1.5-1.8 9.4-1.1 15 1.4m9.4 1.4c.8 2.4-2.6 5.8-6 5.8-1.9 0-1.8-.2.4-1.9 2-1.5 2.3-2.4 1.8-5-.6-2.9-.5-3.1 1.3-2.1 1 .5 2.2 2 2.5 3.2m-18.5 5.9c0 2.5-3.3 2.2-3.8-.4-.2-1.2.3-1.7 1.7-1.7 1.5 0 2.1.6 2.1 2.1m3.7 16.6c-.4.3-1 .3-1.4 0-.3-.4 0-.7.7-.7s1 .3.7.7m9.3 2.3c-.1 3.7-9.3 6.5-13.8 4.1-.9-.5-2.5-1.2-3.4-1.5-1-.3-1.5-1.1-1.3-1.8.4-.9 3.1-1.3 9.5-1.3 5 0 9 .2 9 .5m1 6c-.8.6-2.2 1-3 .9-.9 0-.5-.6 1-1.4 2.7-1.4 4.4-1 2 .5m-16.2 3c1.4 0 2.2.6 2.2 1.6 0 1.3-.7 1.5-3 1.1-3.8-.8-8-3.5-8-5.3 0-1 .8-.9 3.3.6 1.7 1.1 4.2 2 5.5 2m-1.8-3.5c0 .3-.2.5-.5.5s-.5-.2-.5-.5.2-.5.5-.5.5.2.5.5m19.4 3.6c-.7 1.2-6.6 3.9-8.4 3.9-2.6 0-.6-2.8 2.8-3.7 5.1-1.4 6.4-1.5 5.6-.2m-27 .8c.3.5 2.6 1.8 5.1 3 6 2.8 15.7 2.9 20.3.1 4-2.4 4.2-2.5 4.2-.2 0 3.8-13.4 5.6-22.4 3-4.5-1.3-9.6-4.4-9.6-5.9 0-1.2 1.7-1.2 2.4 0m14.8 2.3c-.9.9-1.2.7-1.2-1.2s.3-2.1 1.2-1.2.9 1.5 0 2.4m-9.2 5c4.2 1.5 7.3 1.9 13 1.6 4.1-.3 8.3-.8 9.3-1.2 3-1.4 2 2.9-1.3 5.7-5.6 4.8-17.1 5.6-24.5 1.9-4.1-2-5.4-4.1-5.5-8.1 0-2.8.3-3.2 1.8-2.6.9.5 4.2 1.7 7.2 2.7m7 12.3c3 0 6.9-.4 8.6-.8 3.1-.8 3.2-.7 3.6 2.7.2 2 .1 5.7-.2 8.3-.4 4.3-.9 5-4 6.5-6.7 3.2-16.4 1.6-19-3.1-.5-1.1-1-5-1-8.6 0-6.7 0-6.7 3.3-5.8 1.7.4 5.7.8 8.7.8M291.4 574.3c-.2.7-.3 6-.2 11.8l.3 10.4 41.8.3c22.9.1 41.7.1 41.7 0 .1-.2.3-4.5.7-9.5.9-15.9 5.8-14.3-42.3-14.3-33.4 0-41.6.3-42 1.3m82.3 10.7.2 10-40.2-.2-40.2-.3-.3-9.8-.3-9.7h80.7z"/><path d="M298.1 579.1c-2.3 2.1-2.8 6.7-1.1 10 1.4 2.5 5.6 2.5 7-.1 1.5-2.9-.4-6-3.6-6-1.6 0-2.4-.5-2.1-1.3.2-.6 1.6-1.1 3.1-1 3 .2 3.4-1.2.7-2.6-1.4-.8-2.3-.5-4 1m4.9 7.9c0 1.5-.7 2-2.5 2s-2.5-.5-2.5-2 .7-2 2.5-2 2.5.5 2.5 2M308 579c-2.3 1.5-2 9.8.4 11.6 1.7 1.2 2.3 1.2 4 0 4.1-2.7 2.7-7.6-2.1-7.6-1.5 0-2.3-.5-2-1.3.2-.6 1.6-1.1 3.1-1 1.7.1 2.6-.2 2.3-1-.5-1.6-3.8-2-5.7-.7m5 8.1c0 1.5-.5 2-2.2 1.7-3.4-.5-3.7-3.8-.4-3.8 2 0 2.6.5 2.6 2.1M326 580.7c-.6 1.5-1.5 4-2.1 5.5s-.9 3.3-.6 4c.4.8.8.5 1.2-1 .5-1.6 1.5-2.2 3.5-2.2s3 .6 3.5 2.2.8 1.9 1.1.8c.6-2.1-2.9-11.3-4.4-11.8-.6-.2-1.7.9-2.2 2.5m2.8 4.2c-1.5.5-2.1-.7-1.3-2.6.7-1.7.8-1.7 1.5.2.4 1.1.3 2.2-.2 2.4M336 579.5c-.7.9-.9 1.9-.5 2.3s1 .1 1.2-.6c.6-1.7 4.3-1.5 4.3.2 0 .8-.6 1.7-1.2 2-.9.3-.8.8.5 1.6.9.6 1.7 1.8 1.7 2.5 0 1.8-4.1 2-5.8.3-.8-.8-1.2-.9-1.2-.1 0 1.4 2.8 4.3 4.1 4.3.5 0 1.8-.9 2.8-1.9 1.5-1.5 1.8-2.8 1.4-6.3-.3-2.3-1.1-4.6-1.7-5-1.8-1.2-4.3-.9-5.6.7M347.5 581.7c1.4 2.1 2.5 5 2.5 6.6s.4 2.6 1 2.2c.6-.3 1-1.6 1-2.7s1-3.6 2.1-5.5c1.2-1.9 1.9-3.6 1.6-3.9-.5-.6-3.3 2-4 3.8q-.6 1.35-2.7-1.5c-3.2-4.1-4.5-3.3-1.5 1M317 586c0 .5.9 1 2 1s2-.5 2-1c0-.6-.9-1-2-1s-2 .4-2 1M595.2 593.2c-.8.8-1.2 4.9-1.2 12 0 10.5.1 10.8 2.3 10.8 22.7.4 80.4-.3 81-.9.4-.4.6-5.7.5-11.7l-.3-10.9-40.5-.3c-30.7-.2-40.9.1-41.8 1m80.8 10.7V614h-80v-9.3c0-5.2.2-9.6.4-9.8.3-.2 18.3-.6 40-.8l39.6-.3z"/><path d="M601.7 598.2c-1.4 1.2-3.7 5.8-3.7 7.7 0 1.6 4.2 5.1 6.1 5.1 1.1 0 2.4-1.1 3.1-2.6 1.1-2.3 1-2.9-1.2-4.6-1.3-1-2.9-1.7-3.7-1.4-1.5.6-1.7-.3-.4-2.3.8-1.2 1.2-1.3 2.5-.1 2.1 1.6 3.3.5 1.6-1.5-1.5-1.8-2.1-1.9-4.3-.3m2.7 6.4c2.1.8 2 3-.1 3.8s-3.8-.8-3-2.8c.7-1.8.9-1.8 3.1-1M610.6 599.2c-3.1 4.3-1.2 11.8 2.9 11.8 1.7 0 4.5-2.7 4.5-4.3 0-2.4-1.8-4-4.4-4-1.6 0-2.5-.4-2.3-1.1.2-.6 1.6-1 3.1-.9 3.1.2 3.4-1.2.7-2.7-2.6-1.4-2.8-1.3-4.5 1.2m3.8 5.4c2.1.8 2 3-.1 3.8s-3.8-.8-3-2.8c.7-1.8.9-1.8 3.1-1M627.1 598.9c-1.2 1.2-2.1 2.5-2.1 3 0 1.6 3.1 4.1 5.1 4.1 1 0 1.9.5 1.9 1 0 1.7-2.9 2.3-4.5 1-1.2-1-1.5-1-1.5.3 0 2.5 3.8 3.1 6.1 1.1 2.7-2.5 2.3-9.1-.8-11.1-1.9-1.3-2.4-1.2-4.2.6m4.7 2.9c.3 1.7-.2 2.2-1.7 2.2q-2.1 0-2.1-1.8c0-3.8 3.3-4.1 3.8-.4M638.6 601.3c-3.3 4.3-3.4 6.7-.2 6.7 1.3 0 2.7.6 2.9 1.2.7 1.8 2.9-1.2 2.2-3-.3-.8-.5-2.9-.5-4.8 0-4.3-1.2-4.3-4.4-.1m2.4 2.7c0 1.1-.7 2-1.5 2-1.8 0-1.9-1.2-.3-2.8s1.8-1.5 1.8.8M648.4 600.2c-.4.6-.2 1.4.4 1.6.7.2 1.2 2.1 1.2 4.3 0 2.1.5 3.9 1 3.9 1.1 0 1.3-5.2.4-8.8-.7-2.4-1.9-2.8-3-1M619.5 606c.3.5 1.5 1 2.6 1 1 0 1.9-.5 1.9-1 0-.6-1.2-1-2.6-1s-2.3.4-1.9 1M436.8 654c-.9.6-3 3.8-4.7 7.2-2.5 4.8-3.1 7.4-3.1 12.3 0 5.6-.3 6.4-2.9 8.6-1.6 1.3-3.9 4.1-5.1 6.2-2.5 4.2-5.3 4.6-5.8.9-.4-2.6-3.8-5.2-6.7-5.2s-6.3 2.6-6.7 5.1c-.2 1.5-1.6 2.6-4.8 3.6-5.2 1.7-10.5 5.4-12.1 8.5-.7 1.4-1.1 11.4-1 31.1.2 28.1.1 29-1.9 30.4-1.7 1.2-2 2.3-1.6 6.6.4 6.6 1 7.8 4.5 9.8 2.7 1.6 2.8 2 3.4 10.9.4 6.8.2 9.8-.7 11.4-1 1.4-1.6 8.1-2.1 21.7-.6 19.7-.6 19.7 1.6 21.3 2.6 1.8 9.4 2.2 10.4.6s4.1-1.1 6 1c1 1.1 2.7 2.3 3.9 2.6 1.1.4 3.5 1.7 5.1 2.9 1.7 1.3 4.6 2.6 6.5 3s4.8 1.4 6.3 2.2c1.5.7 5.6 1.6 9.1 2 7.7.7 12.6-1.3 21.8-9 13.6-11.2 22.8-29.4 22.8-44.7 0-8.4-3.5-18.5-8.2-23.5-4-4.4-5-8.9-2.6-11.3.9-.9.8-1.2-.4-1.2-.8 0-2.1.6-2.7 1.3-.6.8-2.9 2.2-5.2 3.2-4.1 1.9-4.1 1.9-6-.6-1-1.3-2.8-3.8-3.8-5.6-2.2-3.6-2.3-3.4 5.3-7.8 5.3-3 5.5-3 8.6 2.5.5.8 1.1 1.2 1.5.8.4-.3-.5-2.4-1.9-4.5-2.2-3.1-2.6-4.9-2.6-10.5 0-3.7-.4-7-1-7.3-.5-.3-2.1.2-3.5 1.1-5.3 3.4-5.4 2.8-5.3-25 0-20.2.3-26 1.5-28.2 1.8-3.5 2.2-23.6.5-24.2-.6-.2-1.4-1.9-1.8-3.8-.3-1.9-1.7-4.3-3.1-5.4-2.7-2.1-8.6-2.6-11.5-1m9 2.8c.6 1.7-1.5 3.2-4.6 3.2-2.7 0-4.1-2.8-2.1-4.1 2-1.2 6-.7 6.7.9m3 8.7c-.6 4.3-12.7 3.9-13.6-.5-.2-1.2 1.1-1.5 6.8-1.5 6.5 0 7 .2 6.8 2m-13.4 3c3.3 3.3 10.1 3.5 14 .4 2.1-1.7 2.6-1.8 2.6-.5 0 5.8-17 7.1-20 1.6-2.4-4.4-.4-5.3 3.4-1.5m16.6 11c0 6.3-.1 6.6-3.2 8.5-1.9 1.1-5.1 2-7.3 2s-5.4-.9-7.2-2c-3.1-1.9-3.3-2.3-3.3-8.1 0-5.9.1-6.1 2.3-5.4 5.2 1.6 11.3 1.6 14.7.1 1.9-.8 3.6-1.5 3.8-1.6.1 0 .2 2.9.2 6.5m-22.1 7.1c1.6 2.7 2.1 5.1 2.1 10.7-.1 7.1-.1 7.2-1.7 4.3-.8-1.6-2.9-4-4.5-5.4-2.6-2.2-2.9-2.9-2.3-6.1.5-2.9 2.9-7.1 4.1-7.1.1 0 1.1 1.6 2.3 3.6m-18.8.4c.5 0 .9.7.9 1.5 0 1-1.1 1.5-3.5 1.5s-3.5-.5-3.5-1.4c0-1.6 1.9-2.6 3.8-2 .8.2 1.8.4 2.3.4m37.7 17.5q.3 12.75-.9 14.1c-1.8 2.2-9.5 1.8-11.9-.6-1.8-1.8-2-3.3-2-14.3v-12.2l7.2.1 7.3.1zm-37.1-11.1c-.5 1.4-5.9 1.4-6.4.1-.1-.6 1.3-1 3.2-1.1 2.1 0 3.4.4 3.2 1m-7.8 2c1 1.2.8 1.3-.8.9-1.2-.3-2.1-.9-2.1-1.4 0-1.4 1.6-1.1 2.9.5m11.1-.9c0 .3-.2.5-.5.5s-.5-.2-.5-.5.2-.5.5-.5.5.2.5.5m-17 3.5c0 2.1.9 3.9 2.8 5.6 2.3 2.2 3.4 2.5 7.5 2.1 5.5-.5 9.7-3.7 9.7-7.4 0-1.3.5-2.3 1.2-2.3 2 0 7.6 4.3 8.7 6.8.7 1.4 1.1 12.1 1.1 28.1 0 25.5 0 25.8-2.3 27.9-7.9 7.4-31.3 7-38.2-.8-1.9-2-2-3.9-2.3-25.1-.2-12.6-.1-22.9.2-22.9s2.2 1.1 4.2 2.5c8.3 5.6 18.7 6.7 28.7 2.8 4.5-1.7 10.1-6.3 7.8-6.3-.8 0-2.2.7-3.2 1.6-3 2.7-9.1 4.3-16.4 4.3-8.1 0-12.7-1.4-17.7-5.4-3.2-2.5-3.5-3.1-2.7-5.9 1-3.5 2.3-4.9 6.4-7 4.1-2.2 4.5-2 4.5 1.4m9 1.3c1.4 0 3.7-.3 5.3-.7 3.9-1.2 3.6 1.9-.4 4-3.8 1.9-9.4 1.1-10.9-1.6-1.5-2.8-1.2-3.3 1.3-2.5 1.2.4 3.3.8 4.7.8m24.7 23.4c-.4.3-.7 0-.7-.7s.3-1 .7-.7c.3.4.3 1 0 1.4m12.1-.7h5.3l-.3 8.2c-.3 8.3-.3 8.3-4.6 9.2-4.3 1-4.3 1-4 10.5.3 9.6.3 9.6 3.1 9.9 2.2.3 2.7.8 2.7 3.2 0 1.6.4 3 .8 3.2 1.3.5 5.1 7.6 4.5 8.2-1 1-5.2.7-7.2-.6-1.5-.9-1.7-1.6-1-2.9 1.4-2.6-.8-6.5-4.6-8.3-3.2-1.5-3.2-1.5-3.8-12.2-.4-5.9-.7-15-.7-20.2 0-9.3 0-9.4 2.3-8.8 1.2.3 4.6.6 7.5.6m2 27.7c-.3 6.5-.6 7.8-2 8.1-1.6.3-1.8-.6-1.8-7.7 0-7.5.2-8.1 2-8.1 1.9 0 2.1.5 1.8 7.7m-13.1 0c-.2 1.6-.4.5-.4-2.2 0-2.8.2-4 .4-2.8.2 1.3.2 3.5 0 5m17.3-4.6c0 .5-.4.9-1 .9-.5 0-1-.7-1-1.6 0-.8.5-1.2 1-.9.6.3 1 1 1 1.6m9 4.4c0 3.9-.4 6.5-1.1 6.5-.5 0-2.7 1.1-4.7 2.5s-4 2.5-4.4 2.5c-.5 0-.8-2.7-.8-6 0-6 0-6 4.7-9 2.6-1.7 5.1-3 5.5-3s.8 2.9.8 6.5m-26.3 8.2c-.4.3-.7 0-.7-.7s.3-1 .7-.7c.3.4.3 1 0 1.4m-43.7 5.1c0 1.6 7.6 5 14.1 6.2 7.6 1.5 13.1.5 20.7-3.6 4.3-2.3 5.6-2 2.4.6-1.9 1.6-4.8 3.1-10 5-4.4 1.7-16.7.8-21.2-1.5-5.7-2.8-10-7.5-7-7.5.6 0 1 .4 1 .8m48 1.2c4.2 2.1 5.7 5.7 2 4.5-1.3-.4-3.1.1-4.9 1.4-1.6 1.2-3.1 2.1-3.4 2.1-.2 0-3.8 2-7.9 4.5-4.2 2.5-8.3 4.5-9.2 4.5s-4.2-1.5-7.4-3.3l-5.7-3.2 8.6-.6c10.2-.7 17.3-3.7 20.4-8.6 1.1-1.8 2.4-3.2 2.8-3.3.4 0 2.6.9 4.7 2m-50.5 1c.3.5-.1 1-.9 1s-1.8-.5-2.1-1c-.3-.6.1-1 .9-1s1.8.4 2.1 1m10.1 9.6c2.5 1.4 4.3 2.8 4.1 3-.6.7-17.6-8.9-17.7-9.9 0-.4 2 .4 4.5 1.8zm-6.7-.2c7.9 4.8 13.9 8.2 18.9 10.8s4.3 2.8 20.6-7.1c8.9-5.4 8.9-5.4 13.1-3.1 3.1 1.7 5.1 2.1 7.5 1.6 1.8-.3 3.8-.1 4.5.4 1 .8 2.2.5 4.7-1 3.6-2.2 5.8-2.6 5.8-1 0 .5-.7 1-1.5 1-2.5 0-1.7 1.7 1.4 3 1.6.6 4 2.3 5.3 3.7 2.1 2.4 2.1 2.6.3 1.9-3.7-1.4-11-1.8-13.5-.7-2.1.8-1.6 1 3.3 1 6.6.1 11.9 2.2 14 5.4 8.7 13.7-.5 42.8-18.3 57.6-8 6.7-14.8 9.1-22.7 8.2-7.3-.9-10.8-3-12.8-7.7-1.8-4.3-2-15.3-.4-20.3 4.6-14.2 10-23.5 18.6-31.9 6-5.7 6.6-8 1-3.8-7.9 6.1-16.2 18.7-20.2 31-2.2 6.6-2.6 9.3-2.2 16 .2 4.5.7 9.1 1.2 10.3.5 1.7.4 2.3-.7 2.3-2.4 0-8.5-6.3-9.7-9.9-1.4-4.4-1.5-49.7-.1-50.6.6-.4.8-1 .5-1.5-.9-1.4-9.8-6.1-10.8-5.7-.6.2-.9 3.2-.8 7 .2 5.1-.1 6.7-1.1 6.7-3.1 0-4.6-2.6-5.1-8.8-.5-5.6-.3-6.2 1.4-6.2 1.2 0 1.6-.5 1.3-1.5-.4-.8-1-1.5-1.5-1.5-2.1 0-8.7-5-9.2-6.9-.7-2.9.6-2.6 7.2 1.3m18.1 7.2c0 .2-.9 0-2-.6s-2-1.3-2-1.6c0-.2.9 0 2 .6s2 1.3 2 1.6m-4.9 7.7c1.4 1 1.6 4.8 1.8 27.9.1 14.8-.2 26.8-.7 26.8-.4 0-1.8-1.7-3-3.9-2.1-3.7-2.2-5-2.2-28 0-25.1.1-25.8 4.1-22.8m-7.3 11.9c1.3 1.3 1.6 5 .6 6.1-.8.7-6-1.8-6.9-3.3-.9-1.4 1.3-4 3.4-4 .9 0 2.2.5 2.9 1.2m-1 8.6c2.1 1.4 2.3 2.1 2 10.1-.3 9.6-1.4 10.8-6.1 7.1-2.6-2-2.7-2.6-2.7-11.1 0-8.9 0-9 2.3-8.3 1.2.4 3.2 1.4 4.5 2.2m-3 21.5c1.2.9 1.8 12.7.7 12.7-.3 0-1.7-.7-3-1.6-2.2-1.4-2.5-2.4-2.5-7.5 0-6.1.8-6.7 4.8-3.6m5.2 8.4c0 2.6-.3 3.4-1.1 2.6-.9-.9-.3-6.3.7-6.3.2 0 .4 1.7.4 3.7"/><path d="M438 782.8c0 .4-1.6 1.6-3.5 2.6-5.1 2.8-12 10.5-18.1 20.1l-2.5 4 .3-6.4c.2-4.2-.1-6.5-.9-6.8-.7-.3-1.3 2.1-1.7 7.4-.4 4.3-.8 10.4-1.1 13.5-.5 6.1.9 8 2 2.8 2.6-11.7 16.4-30.1 26.1-34.8 3.8-1.8 4.4-3.2 1.4-3.2-1.1 0-2 .3-2 .8M448.5 816.3c-7.5 7.5-6 20 2.1 17.2 5.2-1.9 10.1-11.6 8.2-16.4-1.9-5.1-5.7-5.4-10.3-.8m8.1.2c2 3 1 4.7-1 2-1.2-1.7-1.7-1.8-4-.7-5.2 2.3-6.6 11.2-1.8 11.2 2.3 0 4.8-1.7 3.9-2.6-.4-.4-1.3-.2-1.9.4-1.9 1.9-2.8 1.4-2.8-1.6 0-2.8 2.4-7.2 4-7.2.5 0 1.4 1.8 2 4.1 1.1 4.1.9 4.8-2.7 8.6-.6.7-2.3 1.3-3.7 1.3-5.1 0-4.6-8.7.8-14.5 4-4.2 5-4.3 7.2-1M480.1 688.9c-.1 2.7.2 3.2 1.1 2.3.8-.8.8-1.7 0-3.4-1-2.2-1.1-2.1-1.1 1.1M480 698.9c0 1.7.5 3.1 1 3.1.6 0 1-1.1 1-2.4 0-1.4-.4-2.8-1-3.1-.6-.4-1 .7-1 2.4M556.7 699.7c-.6 1.1-.2 5.1.6 5.9.4.4.7-.9.7-2.9 0-3.6-.4-4.5-1.3-3M480 707.5c0 2.2.4 3.4 1 3 .6-.3 1-1.7 1-3s-.4-2.7-1-3c-.6-.4-1 .8-1 3M556.5 709.5c-.4 1.1-1.7 3-2.8 4.2-1.8 2-1.8 2.3-.4 2.3 2.1 0 5-4.4 4.4-6.7-.4-1.7-.5-1.6-1.2.2M480 716.4c0 2 .5 3.6 1 3.6.6 0 1-1.3 1-2.9 0-1.7-.4-3.3-1-3.6-.6-.4-1 .8-1 2.9M544.3 719.2c-1.9.9-3.2 2.8-2 2.8.8 0 6.7-3.2 6.7-3.6 0-.7-2.4-.3-4.7.8M480 726.6c0 2.1.4 3.3 1 2.9.6-.3 1-1.9 1-3.6 0-1.6-.4-2.9-1-2.9-.5 0-1 1.6-1 3.6M531.8 726.8c-1.6.9-2.8 2-2.8 2.5 0 .9 5.6-1.9 6.5-3.3.9-1.5-.6-1.2-3.7.8M641.7 729.4c-.4 1-2.8 1.7-6.7 2.2-6.9.8-11 3.3-11 6.9 0 4.2 2.3 5 10.8 3.8 4.7-.7 8.3-.8 9.4-.2 2.8 1.5 5.6 1 7.2-1.3 2.3-3.3 2-8.1-.7-10.6s-8.2-3-9-.8m8 1.9c.4.6.1.7-.7.2-1-.6-1.1-.2-.6 1.9.4 1.5.2 2.6-.4 2.6-.5 0-1 .4-1 1 0 .5.7 1 1.6 1 2.4 0 1.1 2.5-1.5 2.8-1.3.2-2.8-.4-3.6-1.5-2-2.5-1.9-8 .1-9.1 1.9-1.1 5.1-.5 6.1 1.1m-9.5 4.7q.45 3-.9 3c-.8 0-1.3-1.2-1.3-3 0-1.7.4-3 .9-3s1.1 1.3 1.3 3m-8 1c.3 1.9.1 2.9-.6 2.7-1.4-.4-2.1-5.7-.8-5.7.5 0 1.2 1.4 1.4 3m4 0c.3 1.9.1 2.9-.6 2.7-1.4-.4-2.1-5.7-.8-5.7.5 0 1.2 1.4 1.4 3m15.8-1.5c0 .3-.2.5-.5.5s-.5-.2-.5-.5.2-.5.5-.5.5.2.5.5M480 735c0 1.6.5 3 1 3 .6 0 1-1.4 1-3 0-1.7-.4-3-1-3-.5 0-1 1.3-1 3M519.1 734.1c-1.8 1.1-3.1 2.3-2.8 2.6.6.5 7.7-3.4 7.7-4.3s-1.6-.3-4.9 1.7M606.6 735.3c-4 8.5 5 18 11.4 12.2 2.7-2.4 2.7-7.5 0-7.5-1 0-2.4.9-3 2-1.5 2.9-3 2.5-3-.8 0-2.5.4-2.9 3-2.9 4 0 4.6-.8 2.6-3.8-1.3-2-2.5-2.5-5.5-2.5-3.4 0-4.1.4-5.5 3.3m9.4-.3c0 .5-.7.7-1.5.4-3.6-1.4-5.8 4.2-3.5 8.7 1.2 2.1 4 2.5 5.8.7.9-.9 1.2-.9 1.2-.1 0 .7-.9 1.5-2 1.8-3.5 1.1-5.9-.4-7.1-4.4-1.5-5.1 0-8.1 4.1-8.1 1.7 0 3 .4 3 1M571.5 740c-2.7 1.7-5.6 3.4-6.4 3.9-1.2.7-.4 2.4 3.7 9 4.9 7.6 5.2 8.6 5.2 14.6 0 5.3-.3 6.5-1.8 6.9-1.1.4-2.9 1.7-4.1 3-2.3 2.4-2.3 2.9-2.2 23.7.2 24.4 0 23.9 8.6 25.8 3 .7 5.7 1.7 6 2.2 1.4 2.1 6.1.5 16.5-5.7 9.8-5.8 11-6.8 11-9.3 0-1.6.7-3.4 1.6-4.2 3-2.4 4.4-6.8 4.4-13.4V790h18.5c11.7 0 18.5-.4 18.5-1s-6.8-1-18.5-1H614v-10.8c-.1-11.6-.5-12.9-5.5-15.4-4.9-2.5-9.3-2.9-12.6-1.3-2.9 1.6-2.9 1.6-2.9-2 0-2-.9-5.6-2-8.1-1.2-2.4-1.8-4.9-1.5-5.4.4-.6-.9-1-2.9-1-1.9 0-3.8.4-4.1 1s.4 1 1.8 1c1.7 0 2.8 1 4.1 3.7 2.2 4.7 3.2 12.8 1.7 13.7-.7.5-1.1-.5-1.1-2.9 0-2.2-.4-3.4-1-3-.5.3-1 2.4-1 4.5 0 3.4-.4 4.2-3 5.5-3 1.6-3 1.6-3-2.9 0-3.7.5-4.8 2.7-6.4 3.5-2.6 2.3-4.1-1.3-1.7-2.2 1.4-2.8 1.5-3.5.4-1.2-1.9-1.1-4.9 0-4.9 1.6 0 2.2-3.6 1.2-6.4-.6-1.4-.7-2.6-.2-2.6s.7-.9.4-2c-.7-2.6.1-2.5 2.7.2 1.6 1.8 2 1.9 2 .6 0-2.5-2.8-4.8-5.8-4.8-1.5.1-4.9 1.4-7.7 3m6.5 1.5c0 .9-.6 1.2-1.5.8-.9-.3-2.4.2-3.4 1.1s-2.1 1.3-2.5.9c-.9-1 3.4-4.2 5.7-4.3.9 0 1.7.7 1.7 1.5m-.4 8c-.8 2.2-3.6.6-3.6-1.9 0-1.3.3-2.6.7-2.9 1-1 3.6 3.2 2.9 4.8m-5 .7c1.6 2.4 3.4 5.4 4.1 6.7 1.5 2.8 1.8 15.1.3 15.1-.6 0-1-2.6-1-5.8 0-5.1-.5-6.7-3.8-11.8-5.6-8.7-5.5-8.4-3.9-8.4.8 0 2.7 1.9 4.3 4.2m35.9 13.7c3 1.7 3 1.7 3.3 20.1.3 20.4-.2 22.8-5.1 25.4-1.8.9-7.5 4.3-12.7 7.6-15.2 9.5-15 9.5-20.9 7.5l-5-1.6-.3-20.2c-.2-11.1 0-21.2.4-22.3.5-1.7 13.5-10.4 15.5-10.4.3 0 1.8-1 3.5-2.1 9.6-6.9 14.6-7.8 21.3-4m-2.7 50.2c-.3 2.1-7.3 7-17 12-3.6 1.8-3.8 1.8-3.8.2 0-1.2 3.1-3.6 9-7.1 4.9-3 9.2-5.8 9.6-6.3 1-1.7 2.5-.9 2.2 1.2"/><path d="M594.5 774c-6.6 3.9-12.1 7.4-12.3 8-.5 1.3 2.5.2 6-2.2 1.4-1 2.9-1.8 3.2-1.8.4 0 3.6-1.8 7.2-4s7-4 7.4-4 1.3-.7 2-1.5c2.5-3-1.5-1.4-13.5 5.5M570 780.8c0 .7 6.3 4.2 7.5 4.2 1.6 0 0-2.1-2.7-3.4-3.5-1.8-4.8-2-4.8-.8M577.7 787.7c-.9 1.7-.2 33.8.8 34 .6.2 1-5.9 1-16.8 0-15.3-.4-19.5-1.8-17.2M506.8 740.8c-1.6.9-2.8 2-2.8 2.5 0 .7 3.7-1 7-3.2 2.7-1.9-1.2-1.3-4.2.7M480.7 741.7c-1.1 1-.8 5.1.3 5.8.6.4 1-.8 1-2.9 0-3.7-.2-4.1-1.3-2.9M597 741.8c-1.4.2-2.9.8-3.4 1.3-1.3 1.2 4.4 1.2 6.3 0 1.7-1.1.3-1.8-2.9-1.3M494.8 747.4c-2.8 2.1-2.1 2.8 1.2 1.1 1.7-.9 3-1.8 3-2 0-1-2.5-.4-4.2.9M557 749c-1.1.7-.7 1 1.8 1 1.7 0 3.2-.5 3.2-1 0-1.3-3-1.3-5 0M584 748.8c0 1.9 1.9 5.2 3 5.2 1.5 0 1.2-1.2-1-4-1.1-1.4-2-1.9-2-1.2M480 749.7c.2 3.2 6 5.7 7.5 3.3.4-.6-.5-1-2-1-1.4 0-2.8-.7-3.1-1.5-.6-1.5-2.4-2.1-2.4-.8M544.8 750.7c-1 .2-1.8.9-1.8 1.5 0 .5.7.7 1.6.4s2.9-.6 4.5-.6 2.9-.5 2.9-1c0-1-4-1.2-7.2-.3M531.5 753.5c-2.3 1-2.6 1.4-1 1.4 3.1.1 6.5-1 5.9-2-.7-1.2-1.3-1.1-4.9.6M516.3 755.7c-1.8.2-3.3.9-3.3 1.5 0 1.3 6.9.3 8.4-1.2 1.1-1.1 1.1-1.1-5.1-.3M499 759c-1.1.7-.4 1 2.8 1 2.3 0 4.2-.5 4.2-1 0-1.3-5-1.3-7 0M482.5 762c-1.8.8-1.8.9.5.8 1.4 0 3.6-.4 5-.8 2.4-.8 2.4-.8-.5-.8-1.6 0-3.9.3-5 .8M455.2 763.2c-1.8 1.8-1.4 5.3.7 7.2 4 3.6 7.2.2 5.7-6-.7-2.6-4.3-3.3-6.4-1.2m3.6 4.2c.3 2 0 2.7-1 2.4-.7-.3-1.4-1.7-1.6-3.2-.3-2 0-2.7 1-2.4.7.3 1.4 1.7 1.6 3.2M468.5 763.7c-4.1 1-4.1 2.6 0 1.9 2.2-.3 4.6-.6 5.3-.6.6 0 1.2-.5 1.2-1 0-1-2.9-1.1-6.5-.3M652.4 779.3c-.3.8-.3 5.6-.2 10.8l.3 9.4h81l.3-10.8.3-10.7h-40.6c-32.8 0-40.7.3-41.1 1.3m79.4 9.4-.3 8.8h-77l-.3-8.8-.3-8.7h78.2z"/><path d="M659.6 782.6c-2.1 2-3 5.8-2.2 8.9.7 2.9 4.9 4.4 7.1 2.5 3.2-2.6.6-9-3-7.6-.9.3-1.5 0-1.5-.9 0-1.7 2.6-2 3.5-.5.4.6 1.1.8 1.6.4 1.2-.7.3-2.1-2.1-3.4-1.4-.7-2.3-.6-3.4.6m3.9 8c0 1-.8 2-1.7 2.2-1.8.3-2.6-2.7-1.1-4.2 1.2-1.1 2.8 0 2.8 2M669.4 783.5c-2.2 2.2-2.5 3.3-2.1 6.2 1 5.8 5.4 7.2 8.3 2.8 1-1.6 2.3-2.4 3.3-2 .9.2 2.3 0 3.1-.5 1.2-.8 1.2-1-.4-1.6-1-.4-2.6-.2-3.6.3-1.3.9-1.9.7-2.9-.9-.8-1.3-1.9-1.8-3.2-1.5-1 .3-1.9.1-1.9-.4 0-1.6 2.9-2.2 4.5-.9 1.2 1 1.5.9 1.5-.3 0-.9-.9-2.1-2-2.7-1.7-.9-2.5-.6-4.6 1.5m4.3 6.1c.8 2.1-1.3 4.2-2.8 2.7-1.3-1.3-.5-4.3 1.1-4.3.6 0 1.3.7 1.7 1.6M685 783.2c-2.5 2.7-2.5 3.3 0 5.8 1.2 1.2 2.6 1.7 3.6 1.3 1.2-.4 1.5-.2 1.2.8-.3.9-1.6 1.3-3.3 1.1-2.5-.3-2.7-.1-1.6 1.2 1.8 2.1 3.7 2 6-.3 1.9-1.9 6.9-1.8 8.3.2.4.6 1.3.3 2.5-.8 1.3-1.3 1.4-2 .5-2.3-.7-.2-1.2-2.1-1.2-4.3 0-2.1-.4-3.9-.9-3.9s-2.3 1.9-4 4.2c-2.9 3.9-3.1 4-3.1 1.7 0-2.5-3.2-6.9-5-6.9-.5 0-1.8 1-3 2.2m5 2.8c0 1.3-.7 2-2 2s-2-.7-2-2 .7-2 2-2 2 .7 2 2m8.6 3.7c-1.1 1.1-1.9-.6-1.1-2.4.8-1.7.8-1.7 1.2 0 .3 1 .2 2.1-.1 2.4M704 783c0 .5 1.4 1 3 1 1.7 0 3 .2 3 .5 0 .2-1 2.3-2.1 4.5-2.1 4-2.1 5.8 0 4.5.6-.3 1.1-1.4 1.1-2.3s.9-2.8 2-4.2c3.1-3.9 2.5-5-2.5-5-2.5 0-4.5.4-4.5 1M586.3 858.2l-10.3 6.2v8.2c0 4.5.3 9 .6 9.9.4.9 2.7 2.7 5.3 4 12.4 6.6 12.6 6.8 12.4 11.6-.4 9.5 1.6 45.1 2.6 46.3.6.7.8 1.6.4 1.9-.3.4-10.2.7-22 .7-13.5 0-21.3.4-21.3 1s8.4 1 23.3 1c12.8 0 23.7.4 24.3.9.5.5 2.7 1.9 4.9 3.2 2.2 1.2 9.2 5.1 15.5 8.7 16.2 9.1 34.7 20.1 36.2 21.5 3 2.9 10.7 8.3 14.5 10.2 2.9 1.4 4.3 2.8 4.7 4.6.4 2 2 3.4 7 6 6 3.1 6.8 3.3 8.8 2 1.3-.8 5.4-3.2 9.3-5.3 9.4-5.2 10-5.9 10-11 0-4-.3-4.4-4.5-6.7-2.5-1.4-7-2.8-10-3.2-3.7-.4-7.3-1.8-10.8-4-4.9-3-5.6-3.2-8.6-2.1-1.8.7-5.9 1.2-9.2 1.2-5 0-6.8-.5-10.7-3-2.6-1.7-4.9-3-5.1-3-.3 0-20.4-11.2-23.6-13.2-1.4-.8-5.4-3.1-9-5-11.4-6.1-13.8-7.8-14.8-10.6-1.2-3.1-1.7-52.6-.7-72.2.7-12.5.7-12.5-2.5-14.3-1.7-.9-3.9-1.7-4.8-1.7s-6.3 2.8-11.9 6.2m10.7.1c0 .7-2.7 2.8-5.9 4.5-6.5 3.5-7.1 3.7-7.1 2.3 0-.8 11.5-8 12.8-8.1.1 0 .2.6.2 1.3m7 8.1v8.4l-8.1 4.6c-4.5 2.5-8.6 4.6-9 4.6-.5 0-.9-3.6-.9-8 0-8 0-8.1 3.1-9.8 1.7-.9 5.4-3.1 8.2-4.8 2.9-1.8 5.5-3.2 6-3.3.4-.1.7 3.7.7 8.3m-21.7 1c1.3 1.1 1.7 2.9 1.7 9 0 6.9-.2 7.6-1.9 7.6-2.8 0-3.2-1.1-3.6-10-.4-8.4.1-9.3 3.8-6.6m20.7 12.1c0 .3-.2.5-.5.5s-.5-.2-.5-.5.2-.5.5-.5.5.2.5.5m-2.7 3.7c.2 1.8.3 3.5 0 3.8-.7.8-2.3-2.4-2.3-4.8 0-3.4 1.7-2.6 2.3 1m-4.3-.2c0 .5-.5 1-1.1 1-.5 0-.7-.5-.4-1 .3-.6.8-1 1.1-1 .2 0 .4.4.4 1m-1.4 2.6c1.4.9 2.9 2.5 3.5 3.6.8 1.5.1 1.3-3-.9-5.4-3.7-5.8-6.1-.5-2.7m-1.2 4.3c-.6.6-5.4-2.1-5.4-3 0-.5 1.3 0 2.9.9s2.8 1.9 2.5 2.1m6.6 6.6c0 .3-.2.5-.5.5s-.5-.2-.5-.5.2-.5.5-.5.5.2.5.5m2.7 21.7c.2 21.4.7 23.8 6 27.6 2.4 1.7 23.3 13.5 43.3 24.5 7.9 4.3 8.1 4.5 6.7 6.8-.6 1-1.6 1.9-2.2 1.9-.5 0-7.3-3.7-15-8.1-13.5-7.9-17.9-10.3-27.5-15.6-8.6-4.8-13.9-8.7-15.1-11.2-.9-1.8-1.4-9.4-1.7-23.8-.4-19.9-.3-21.1 1.5-21.6 1-.2 2.3-.4 2.8-.2.6.1 1.1 7.6 1.2 19.7m83.7 59.4c4.7 2.6 6.6 4.4 4.7 4.4-1.6 0-11.1-5.4-11.1-6.3 0-1.2 1.6-.8 6.4 1.9m-20.2 2.6c-1 1-6.2 0-6.2-1.1 0-1.6 1.3-1.9 4.2-.9 1.8.6 2.6 1.4 2 2m4.8-2.2c0 .5-.4 1-.9 1-.6 0-1.3-.5-1.6-1-.3-.6.1-1 .9-1 .9 0 1.6.4 1.6 1m10.5 1.3c2.6 1.8 3.2 2.6 2.3 3.5-1.7 1.7-3.6 1.5-7.6-1-3.2-2-3.3-2.2-1.6-3.5 2.4-1.8 3-1.7 6.9 1m-5.2 4.7c3.8 2.1 5.4 3.6 5 4.5q-.45 1.5 1.2 1.5c2.3 0 10.5 5.2 10.5 6.6 0 .7-1.2 1.4-2.6 1.7-3.4.6-9.4-2.8-9.4-5.4 0-1.9-7-7.1-11.2-8.5-2.1-.6-2.5-3.4-.5-3.4.7 0 3.9 1.4 7 3m-13.3-.5c.7.8.8 1.5.2 1.5-.5 0-1.5-.7-2.2-1.5s-.8-1.5-.2-1.5c.5 0 1.5.7 2.2 1.5m43 .5c2.2 1.1 3.7 2.5 3.5 3.3-.3.6-3.4 2.7-7 4.5l-6.5 3.4-4.6-2.9c-2.5-1.5-4.7-3.2-4.8-3.7 0-.5 1.1-1.8 2.5-2.8 2.6-2 2.6-2 8.3 1.1 3.6 2 5.6 2.7 5.6 1.9 0-.7-1.8-2.2-4-3.2-2.2-1.1-4-2.3-4-2.8 0-1.5 7.1-.8 11 1.2m-18-.1c0 .5-.7 1.2-1.6 1.5-2.4.9-2.8.7-1.4-.9 1.4-1.7 3-2 3-.6m-15.4 4.2c5 2.8 6.8 4.9 4.4 4.9-2.8 0-11-5.4-11-7.2 0-1.3.9-1 6.6 2.3m33.9 5.8c-.9 1.5-11.8 7.2-12.4 6.5-.3-.3.1-1 .9-1.4.8-.5 3.3-2 5.5-3.4 4.1-2.5 7.1-3.3 6-1.7m-21.7 5.3c3.6 2 5.7 4.8 3.5 4.8-1.6-.1-8.7-4.5-9.1-5.8-.5-1.7.7-1.5 5.6 1m7.9 4.5c-.4.3-1 .3-1.4 0-.3-.4 0-.7.7-.7s1 .3.7.7M388.2 855.2c-.7.7-1.2 2.4-1.2 3.8 0 1.8-.9 3.1-3 4.3-4.8 2.9-5.8 4.3-5.3 8.1.4 4.4-.8 4.6-6 1-3-2-3.6-2.8-2.7-3.9.8-1 .8-1.9.1-3.3-1.1-2.1-9.4-7.2-11.7-7.2-1.5 0-15.7 8.2-18.6 10.8-1 .8-1.8 2.8-1.8 4.4 0 2.9-1.7 3.7-3.8 1.6-1.4-1.4-3.7.3-5.8 4.3-1.7 3.3-1.9 17-.3 18.6.7.7 1.9.8 3.8 0 2.4-.9 3.8-.5 10.2 2.9 6.6 3.6 7.4 4.4 7.7 7.2.3 3.4 1.8 4 5.3 2.2 1.7-1 1.9-2.2 1.9-11.9 0-8.4-.3-11.1-1.5-12.1-2-1.6-1.9-4 .1-4 1.5 0 20.1 9.3 21.7 10.9.5.5-.1 2.6-1.2 4.7s-4 8.8-6.6 14.9c-2.5 6-6 14-7.7 17.7-3.1 6.7-3.2 6.8-7 6.8-2.4 0-3.7.4-3.3 1 .3.5 2.4 1 4.5 1 3.7 0 4.1-.3 6.1-4.8 1.2-2.6 3.2-7.1 4.5-10s2.4-5.5 2.4-5.7c0-.3 1.6-4 3.6-8.2 2-4.3 4.3-9.4 5.1-11.4 1.1-2.8 2.2-3.8 4.4-4.3 1.7-.3 4.3-1.5 5.9-2.6 1.5-1.1 3.3-2 3.8-2 1.5 0 3.1-5.3 2.5-8.3-.4-1.9 0-2.9 1.1-3.3 1.3-.5 1.6-2.2 1.6-9.8-.1-9.4-.6-11-4.8-13.4-2.7-1.5-2.5-1.5-4 0m-24.5 7c2.1 1.2 4 2.3 4.2 2.5.2.1-.4 1.2-1.4 2.3-2.3 2.5-1.4 3.5 6.2 7.5 2.8 1.4 5.4 3.3 5.7 4.1.9 2.3.7 9.4-.2 9.4-.4 0-5-2.3-10.2-5-5.2-2.8-12.4-6.5-16-8.3-6.3-3.1-9.6-5.4-8.9-6.2 1.7-1.6 13.8-8.4 15.1-8.4.9-.1 3.4.9 5.5 2.1m31.3 6.7c0 4-.5 6.3-1.5 7.1s-1.5 3-1.5 6.4c0 5.1-.1 5.3-4.1 7.5-5.4 3.1-5.9 2.3-5.9-10.6v-10.1l5.7-3.6c3.1-1.9 6-3.3 6.5-3 .4.3.8 3.1.8 6.3m-49 7.1c3.3 1.7 4 2.6 4 4.9 0 1.6.7 3.6 1.5 4.4 1.3 1.3 1.3 1.6 0 2.7-1 .9-1.5 3.2-1.5 7.6 0 3.5-.4 6.4-.8 6.4s-3.8-1.6-7.5-3.6l-6.7-3.5v-8.5c0-8.1.1-8.4 2.2-8.1 1.7.1 2.4-.4 2.6-2.1.4-2.7 1.2-2.7 6.2-.2m8.5 2.8c-.7.8-3.5-.7-3.5-1.8 0-.6.7-.6 2 .2 1 .7 1.7 1.4 1.5 1.6m-21.5 8.7c0 9.5-1.4 11.4-2.4 3.2-1-8.6-.8-11.7.9-11.7 1.2 0 1.5 1.6 1.5 8.5m21.8 12.3c-.4 10.7-2.2 11.2-2.6.8-.3-8.6.2-11.6 1.9-9.9.5.5.9 4.6.7 9.1m24.9-8.1c-.4.3-.7 0-.7-.7s.3-1 .7-.7c.3.4.3 1 0 1.4"/><path d="M386.1 868.4c-1.9 2.3-1 9 1.3 9.5 2.9.5 4.4-2.2 3.7-6.6-.7-4.1-2.9-5.4-5-2.9m2.9 4.1c0 1.9-.4 3.5-1 3.5-1.1 0-1.4-5.3-.3-6.3 1.1-1.2 1.3-.8 1.3 2.8M340.2 883.2c-.7.7-1.2 3.6-1.2 6.5 0 5.6 1.5 7.5 5.1 6.6 2.7-.7 2.7-10.3.1-12.6-2.2-2-2.5-2-4-.5m3.7 9c.2 3.3-1.7 1.8-2.3-1.7-.9-4.5.6-7.3 1.5-3 .4 1.6.7 3.8.8 4.7M321.4 902.4c-1 .8-1.6 1.7-1.2 2.1.8.8 4.8-1.3 4.8-2.5 0-1.4-1.3-1.2-3.6.4M312 908c-1.4 1.1-2 2-1.4 2 1.6 0 6.4-2.4 6.4-3.3 0-1.3-2.5-.7-5 1.3M302.5 913.5c-1.6 1.3-2.6 2.4-2.2 2.5 1.4 0 6.7-3.3 6.7-4.2 0-1.4-1.4-.9-4.5 1.7M292.4 919.4c-1 .8-1.7 1.6-1.4 1.9.8.8 5-1.1 5-2.3 0-1.4-1.3-1.3-3.6.4M265.2 925.8c-.9.6-1.2 3.8-1 12.3l.3 11.4h84l.3-10.9c.1-6-.1-11.3-.6-11.8-1.2-1.2-81.4-2.2-83-1m81.3 12.2v9.5l-40.2.3-40.3.2v-20l40.3.2 40.2.3z"/><path d="M269.6 932.5c-1.3 3.4-.6 9.2 1.3 10.9 2.8 2.6 6.3.3 5.9-3.9-.2-2.4-.8-3.1-3-3.3-1.7-.2-2.8-.9-2.8-1.9 0-1.2.7-1.4 3.1-.9 2.2.4 2.9.2 2.7-.7-.7-1.9-6.4-2.1-7.2-.2m5.2 5.7c.7.7.8 1.7.1 2.9-1.3 2.5-3.9 1.3-3.9-1.7 0-2.5 1.8-3.2 3.8-1.2M280.2 932.2c-2 2-1.5 9.2.9 11.4 2.8 2.5 5.4.8 5.4-3.7 0-3-.4-3.4-2.7-3.7-1.6-.2-2.8-.9-2.8-1.8 0-1.7 3.1-1.8 4.9-.2 1 1.1 1.2.9.9-.7-.4-2.4-4.7-3.2-6.6-1.3m4.8 6.3c1 1.2 1 1.8 0 2.9-1.4 1.8-4 1-4-1.3 0-3.2 2-4 4-1.6M296.2 932.2c-.7.7-1.2 2-1.2 2.9 0 2.2 3.7 4.9 5.6 4.2 1.6-.6 1.8.5.4 2.7-.7 1.2-1.2 1.2-2.2.2-1.4-1.4-2.8-1.6-2.8-.2 0 .5 1 1.5 2.2 2.1 1.8 1 2.4.8 4-1.1 2-2.5 2.4-7.1.8-10.1-1.2-2.1-5-2.5-6.8-.7m5.8 2.7c0 2.7-1.9 3.6-3.7 1.8s-.9-3.7 1.8-3.7c1.2 0 1.9.7 1.9 1.9M306.6 932.6c-.9 2.4-.7 2.9.6 1.6s4.8-1.6 4.8-.4c0 .4-.6 1.4-1.2 2.1-1.1 1-.9 1.5.7 2.7 1.8 1.3 1.8 1.5.2 3.1-1.5 1.6-1.8 1.5-3.7-.2-1.8-1.6-2-1.6-2-.2 0 2.4 3.5 4 6 2.7 1.7-.9 2-1.8 1.6-6.8-.2-3.1-.5-5.8-.5-6-.4-1-6 .1-6.5 1.4M316.9 933.7c-2.4 6.4 2 13.5 6.2 9.7 1-.9 1.9-2.5 1.9-3.5 0-2.2-3.7-4.9-5.8-4.2-1 .4-1.3.1-1-.8.3-.8 1.7-1.4 3.2-1.4 3.4.1 2.8-1.9-.7-2.3-2.2-.3-2.9.2-3.8 2.5m5.9 5.7c.4 1.7-1.2 3.5-3 3.6-1 0-2-3.8-1.3-5 1-1.7 3.9-.7 4.3 1.4M330.3 932.7c-.3 1-1.4 3.9-2.4 6.5-1.8 4.7-1 6.7 1.1 2.8 1.4-2.7 4.4-2.5 6.3.2 2.2 3.2 2.2.6-.1-5.6-1.9-5.3-3.8-6.9-4.9-3.9m2.7 3.3c0 1.1-.4 2-1 2-.5 0-1-.9-1-2s.5-2 1-2c.6 0 1 .9 1 2M289 939c0 .5 1.1 1 2.5 1s2.5-.5 2.5-1c0-.6-1.1-1-2.5-1s-2.5.4-2.5 1M487.5 937.7c-18.8.4-17.3-.6-17 11.2.2 5.5.6 10.5 1 11.1.6 1 40 .7 60-.5 3.9-.2 10-.4 13.8-.5h6.7v-22.1l-25.7.3c-14.2.2-31.6.4-38.8.5M550 948v9h-11.2c-6.2 0-15.8.2-21.3.5-5.5.2-17.8.7-27.2 1l-17.3.5-.2-7c-.1-3.9-.2-8-.2-9.3-.1-2.1.2-2.2 12.4-2.7 6.9-.3 24.3-.7 38.8-.8l26.2-.2z"/><path d="M488.3 943.1c-1.4.5-2.4 2-2.8 4.3-1.3 6.6 2.1 10.9 6.3 8 3.7-2.6 2.3-8.4-2-8.4-1 0-1.8-.5-1.8-1.1 0-.7 1-.9 2.5-.7 2.7.6 3.3-.3 1.3-2-.8-.6-2.2-.6-3.5-.1m3.2 8.4c0 1.1-.8 2.1-1.7 2.3-1.4.3-1.8-.3-1.8-2.3s.4-2.6 1.8-2.3c.9.2 1.7 1.2 1.7 2.3M502.4 944.5c-2.8 4.3-.7 11.4 3.3 11.5 2.2 0 4.3-3.2 4.3-6.6 0-7.1-4.3-9.9-7.6-4.9m5.4 4.1c.4 4.2-2.2 6.4-3.8 3.4s-.4-7.2 1.8-6.8c1.1.2 1.8 1.4 2 3.4M513.3 942.7c-.8.3-1.3 2.6-1.3 6.3 0 5.3.2 5.8 2.4 6.2 4.2.8 5.6-.8 5.5-6-.2-6.5-2.1-8.4-6.6-6.5m4.5 3c.2.8-.5 1.3-1.7 1.3s-2.1-.6-2.1-1.6c0-1.8 3.1-1.5 3.8.3m.2 5.9c0 .8-.9 1.4-2 1.4-1.9 0-2.7-1.9-1.4-3.3 1-.9 3.4.4 3.4 1.9M523.2 943.2c-1.4 1.4-1.6 8.6-.3 10.6.5.8 2.1 1.2 3.7 1 2.2-.2 3-1 3.7-3.4 1.7-5.9-3.5-11.8-7.1-8.2m4.8 2.8c1.5 2.8.2 7-2.1 7-1.5 0-1.9-.7-1.9-3.8 0-5.4 2-7 4-3.2M476.1 944.9c-2.3 4.2-.2 12.1 3.3 12.1 1.7 0 4.6-3.3 4.6-5.2 0-2-3.6-5.2-4.9-4.3-.6.3-1.1-.1-1.1-.9 0-1.9 2.1-2.1 3.9-.4 1 1.1 1.2.9.9-.7-.5-2.8-5.3-3.3-6.7-.6m5.7 6.8c.5 1.7-2.6 2.9-4 1.5-.6-.6-.7-1.5-.3-2.2.9-1.4 3.7-.9 4.3.7M495.5 949.9c-.3.5-.1 1.2.4 1.5 1.2.8 4.1-.3 4.1-1.5s-3.7-1.2-4.5 0M258.4 939.5c-1.6 1.2-1.6 1.4-.3 1.5.9 0 2.2-.7 2.9-1.5 1.6-1.9 0-1.9-2.6 0M248.8 944.6c-3.8 2-3.6 3.9.1 1.9 3-1.5 4.9-3.5 3.4-3.5-.4.1-2 .8-3.5 1.6M238.2 951c-2.6 2.4-2.7 3.9-.8 6.6 1.9 2.5 3.1 1.2 1.4-1.6-1.2-1.9-1-2.4 1.7-4.6 2-1.6 2.5-2.4 1.4-2.4-.8 0-2.5.9-3.7 2M423.2 951.3c-1.2 1.3-2.2 3-2.2 3.8 0 .9-1.1 2.5-2.5 3.7-1.9 1.6-2.5 3.2-2.5 6.1s.7 4.7 2.5 6.5c2.1 2.2 2.5 3.4 2.5 8.8-.1 6.3-.1 6.3-7.5 10.6-4.1 2.4-7.5 4.7-7.5 5.2s-7.3 5-16.2 10.1c-9 5.1-17.5 10-19 11.1-1.9 1.3-4.2 1.8-7.9 1.7-4.3-.2-5.5.1-7.1 2-1 1.3-1.8 2.9-1.8 3.5 0 .7-1.3 2.2-3 3.4-1.6 1.3-3 2.9-3 3.7 0 1.1-1.9 1.5-8.2 1.7-10.6.4-10.9 2.2-.4 2.6 7.5.3 7.9.4 11.2 3.9 2.5 2.6 3.8 3.3 5.1 2.8 3.4-1.5 8.3-1.7 9.8-.5 1.2 1 1.9 1 3.3-.1 3.4-2.6 6.2-5.8 6.2-7.3 0-.8 1.4-2 3-2.8 1.7-.7 3-1.6 3-2 0-.5.5-.8 1.1-.8s3-1.4 5.4-3c2.4-1.7 4.6-3 4.9-3s5.1-2.7 10.6-6 10.7-6 11.4-6c2.5 0 22.6-12.1 24.2-14.6 1.2-1.7 1.6-5.1 1.6-12.9.1-8.7.4-11 2-13 2.6-3.4 2.4-8.8-.7-11.6-1.3-1.3-2.5-3-2.5-3.7s-1.1-2.4-2.5-3.7c-3.3-3.4-10.2-3.5-13.3-.2m10.6 1.9c-.3 2.5-4.3 3.7-6 2-1.9-1.9 0-4.2 3.2-4.2 2.7 0 3.1.3 2.8 2.2m-8.8 1.3c0 .8.9 1.9 2.1 2.5 2.9 1.6 1.7 2.3-1.5.9-2.5-1.2-3.7-4.9-1.6-4.9.6 0 1 .7 1 1.5m5.4 6.5c1.9 0 3.8-.5 4.1-1 1.1-1.7 3.5-1.1 3.5.9 0 2.7-3.7 5.1-7.8 5.1-4.7 0-7.2-1.6-7.2-4.6 0-2.1.3-2.3 1.9-1.4 1.1.5 3.5 1 5.5 1m-9.2 2.5c.2 1.1 2 2.8 4.2 3.9 3.6 1.7 4.2 1.8 8 .4 2.9-1 4.6-2.4 5.8-4.8 1.4-2.8 1.8-3.1 2.4-1.6 2.1 5.4-7.1 10.4-15.7 8.5-5.2-1.2-7.9-3.4-7.9-6.4 0-4.2 2.4-4.2 3.2 0m15.8 8c0 .3-.2.5-.5.5s-.5-.2-.5-.5.2-.5.5-.5.5.2.5.5m-10.3 1.1c-.3.3-1.2.4-1.9.1-.8-.3-.5-.6.6-.6 1.1-.1 1.7.2 1.3.5m12.1 9.4c.2 4-.1 7.7-.6 8.2s-2.5.1-4.8-1.1c-2.1-1-5.4-2.5-7.1-3.1-3.1-1.2-3.3-1.5-3.3-6.3 0-5 0-5 3.3-4.4 1.9.3 4.9.2 6.8-.3 1.9-.4 3.9-.7 4.4-.6.6.2 1.1 3.6 1.3 7.6m-5.8 9c2.1 1.1 4.1 2.4 4.4 2.8.7 1.1-2.8 4.4-7.4 7-1.9 1-5.1 2.9-7.2 4.1-3.6 2.2-3.6 2.2-4.3-.9-.4-1.7-2.1-4.7-3.7-6.6-1.7-1.9-2.9-3.6-2.7-3.8 5.2-4.8 14.4-5.9 20.9-2.6m-19.4 10.5c2.8 4.3 1.2 6.5-8.8 12.4-5.1 2.9-13.8 8-19.2 11.3-9.4 5.6-10 5.8-11.8 4.1-1-.9-1.8-2.4-1.6-3.2.1-.9-.3-2.6-1-3.7-1.1-2-.7-2.5 5.1-6.2 7.4-4.7 17.1-10.4 24.7-14.4 3-1.6 5.9-3.3 6.4-3.8 1.2-1.2 4.2.5 6.2 3.5m-47.9 22.7c1.7 1.8 3.6 4.3 4.2 5.5 1.5 2.9 1.4 7.6-.1 9.1-1.7 1.7-4.8 1.5-4.8-.3 0-.8.4-1.5 1-1.5.5 0 1.2-1.1 1.6-2.4 1.2-5-5.1-11.9-10.1-10.8-1.7.4-1.8.2-.6-1.2 2.1-2.5 5.4-1.9 8.8 1.6m-2.2 3.9c3.3 4 2.9 6.8-1.2 9.2-3.2 1.8-3.2 1.8-4.7-1.6-1.7-4.1-3.5-5.5-4.7-3.6-.5.9-1.2 1-1.8.4s-.7-1.5-.3-2.1c.7-1.1 8-5.3 9.4-5.4.3 0 1.8 1.4 3.3 3.1m-10.5 9c0 2.3-1.6 2.5-2.4.3-1-2.5-.7-3.4.9-2.8.8.4 1.5 1.5 1.5 2.5m2.8 1c-.3 2-.5 1.9-.9-.9-.3-2-.2-2.9.4-2.3.5.5.7 1.9.5 3.2M244 961.5c.7.8 2 1.5 2.9 1.5 1.3-.1 1.3-.3-.3-1.5-2.6-1.9-4.2-1.9-2.6 0M254 967c3.3 2.6 4.8 2.6 2.5 0-1-1.1-2.5-2-3.4-2-1.2 0-.9.6.9 2M262 971.5c0 .6 5.6 3.5 6.7 3.5 1.3-.1-4.1-4-5.4-4-.7 0-1.3.2-1.3.5M273.4 978.5c1.1.8 2.7 1.5 3.5 1.5 1.3-.1 1.2-.4-.3-1.5-1.1-.8-2.7-1.5-3.5-1.5-1.3.1-1.2.4.3 1.5M282 981.9c0 .5 1.6 1.8 3.5 3 1.9 1.1 3.5 1.6 3.5 1.2 0-.5-1.6-1.8-3.5-3-1.9-1.1-3.5-1.6-3.5-1.2M292 987.8c0 .8 5.2 4.2 6.5 4.2.3 0 .3-.5 0-1-.9-1.4-6.5-4.2-6.5-3.2M303 994.4c0 .2 1.6 1.3 3.5 2.5 1.9 1.1 3.5 1.6 3.5 1.1s-1.3-1.6-3-2.5c-3-1.5-4-1.8-4-1.1M314 1000c0 1.1 5.9 4.4 6.6 3.7.3-.2-1.1-1.4-3.1-2.5-1.9-1.2-3.5-1.7-3.5-1.2M324 1005.8c0 1.1 4.1 3.4 4.8 2.8.3-.4-.3-1.3-1.4-2.1-2.1-1.6-3.4-1.9-3.4-.7M334.4 1012.5c1.1.8 2.7 1.5 3.5 1.5 1.3-.1 1.2-.4-.3-1.5-1.1-.8-2.7-1.5-3.5-1.5-1.3.1-1.2.4.3 1.5"/><path d="M345.4 1018.5c1.1.8 2.7 1.5 3.5 1.5 1.1 0 1-.4-.5-1.5-1-.8-2.6-1.4-3.4-1.4-1.1 0-1 .3.4 1.4M244.7 1022.7c-1.3 1.2-.8 21.8.5 23.1 1.8 1.8 81.1 1.7 82.6-.1 1.3-1.5 1.4-18.1.1-21.4-.9-2.3-.9-2.3-41.7-2.3-22.5 0-41.2.3-41.5.7m79.6 2.2c2.8.1 2.8.1 2.5 9.8l-.3 9.8h-80l-.3-8.9c-.2-4.9-.1-9.4.1-10 .3-.8 11.9-1.1 37.8-1 20.6.1 38.7.2 40.2.3"/><path d="M250.1 1029.3c-3 5.6.5 13.7 4.7 11.1 3.6-2.3 2.2-8.4-2-8.4-1.1 0-1.8-.5-1.5-1.3.2-.6 1.6-1.1 3.1-1 2.3.2 2.6 0 1.6-1.3-1.8-2.1-4.5-1.7-5.9.9m4.9 7.2c0 1.8-.5 2.5-2 2.5s-2-.7-2-2.5.5-2.5 2-2.5 2 .7 2 2.5M260.7 1028.8c-2 2.2-2.3 9.2-.5 11 2.9 2.9 8.2-.7 7.1-4.8-.6-2.1-3.6-3.5-5.3-2.5-.5.3-1-.1-1-1 0-2.1 3-3.2 4-1.4.5.7 1.2 1 1.6.6.9-.8-1.5-3.7-3.1-3.7-.6 0-1.9.8-2.8 1.8m4.3 7.7c0 2.5-2.3 3.5-3.5 1.5-1-1.6.2-4 2-4 .9 0 1.5.9 1.5 2.5M278.9 1029.6c-.6 1.6-1.5 4-1.9 5.4s-1.1 3.3-1.5 4.2c-.4 1.1-.3 1.8.3 1.8s1.4-.9 1.7-2c.9-2.9 6.1-2.8 6.8.2.4 1.2.9 1.9 1.3 1.6.8-.9-2.5-10.9-4.2-12.7-1.1-1.2-1.5-1-2.5 1.5m3.1 3.4c0 1.1-.7 2-1.5 2-1.7 0-1.8-.2-.9-2.4.9-2.3 2.4-2 2.4.4M289 1029c-3 3-1 7 3.7 7 1.6 0 2.1.4 1.7 1.5-.7 1.8-3.5 2-5.2.3-.7-.7-1.2-.8-1.2-.2 0 1.6 2.2 3.4 4.1 3.4 2.3 0 4.9-3.7 4.9-7 0-3.1-2.6-7-4.6-7-.8 0-2.3.9-3.4 2m5 1.5c1.5 1.8.5 3.5-2.1 3.5-1.4 0-1.9-.7-1.9-2.5 0-2.8 2.1-3.3 4-1M303 1028.7c0 .5-1.1 2.1-2.5 3.7-2.8 3.3-2.8 4.9.1 5.4 1 .2 2.5 1.1 3.2 2 1.1 1.5 1.2 1.5 1.2 0 0-.9.6-1.8 1.3-2.1 1-.4 1-.7 0-1.8-.7-.7-1.3-2.8-1.3-4.6s-.4-3.3-1-3.3c-.5 0-1 .3-1 .7m.2 6.5c-1.5 1.5-2.6.4-1.8-1.8.5-1.3.9-1.5 1.8-.6s.9 1.5 0 2.4M269.7 1034.6c-1.4 1.4-.7 2.5 1.3 2.2 1.2-.2 2.1-.8 2.1-1.3 0-1.2-2.4-1.8-3.4-.9M379 1037c0 1.2 2.8 2.5 3.6 1.7.3-.3-.4-1-1.5-1.7-1.5-.7-2.1-.7-2.1 0M387 1041.7c0 .5 1.1 1.3 2.5 2 2.9 1.3 3.4-.1.6-1.7-2.3-1.2-3.1-1.3-3.1-.3M396.6 1047.5c1 .8 2.6 1.4 3.4 1.4 1.1 0 1-.3-.4-1.4-1.1-.8-2.7-1.5-3.5-1.5-1.1 0-1 .4.5 1.5M406.9 1053c1.3 1.1 2.8 2 3.5 2 .6-.1 0-1-1.3-2-1.3-1.1-2.8-2-3.5-2-.6.1 0 1 1.3 2M416.5 1058.6c6.9 5.1 7.1 6.3 1 10.1-4.1 2.6-5.6 4.3-3.7 4.3 1.7-.1 10.2-7.2 10.2-8.6 0-2.1-5.7-7.4-7.9-7.4-1.3.1-1.3.3.4 1.6M407.2 1075.2c-1.8 1.1-3 2.3-2.7 2.6.7.8 7.5-2.8 7.5-4s-1.1-.9-4.8 1.4M397.2 1081.2c-1.8 1.1-3.1 2.2-2.8 2.5.5.6 6.3-2.4 7.1-3.7.9-1.5-.6-1.1-4.3 1.2M386.6 1087.5c-1 .8-2.4 1.6-3 1.8s-.8.7-.5 1.1c.8.9 5.9-1.7 5.9-3.2s0-1.5-2.4.3M375.7 1093.6c-1.6.9-2.7 1.8-2.4 2 .6.7 5.4-1.3 6.2-2.5.9-1.5-.5-1.3-3.8.5M365.2 1099.6c-3.6 2.5-2.5 3.5 1.3 1.3 1.9-1.2 3.5-2.3 3.5-2.5 0-.9-2.7-.3-4.8 1.2M354 1106.5c-1.9 2.3-.8 2.6 2 .5 1.9-1.5 2.1-2 .9-2-.9 0-2.2.7-2.9 1.5M344 1112.5c-1.4 1.6-1 1.8 1.4.9.9-.3 1.6-1 1.6-1.5 0-1.4-1.6-1.1-3 .6M336.2 1116.4c-3.1 1.8-3.8 2.6-2.1 2.6.8 0 2.5-.9 3.9-2 2.8-2.2 1.7-2.5-1.8-.6M324.4 1123.5c-1 .8-1.4 1.5-.8 1.5.5 0 1.9-.7 3-1.5 1-.8 1.4-1.5.8-1.5-.5 0-1.9.7-3 1.5M313.2 1129.6c-2.4 1.4-4.1 2.8-3.9 3 .7.7 9.7-3.8 9.7-4.8 0-1.3-1.3-.9-5.8 1.8M289.8 1143.2c-5.1 2.9-4.9 4.3.2 1.6 2.2-1.2 4-2.5 4-3 0-1.1.1-1.1-4.2 1.4M126.7 1143.7c-1.4 1.4-.6 5.3 1.4 6.7 2.3 1.6 1.8 3.9-.6 2.9-.8-.3-1.5-.1-1.5.5 0 1.6 3.1 2.3 4.6 1.1 1.4-1.2 1.9-7.5.8-10.3-.6-1.6-3.5-2.2-4.7-.9m3.6 2.7c.6 1.5-.1 2.6-1.5 2.6-.4 0-.8-.9-.8-2 0-2.3 1.5-2.7 2.3-.6M135.6 1144.6c-1.1 2.9-.6 8.3 1 9.8.8.9 1.7 1.6 1.9 1.6s1.1-.7 1.9-1.6c1.9-1.8 2.1-8.5.4-10.2s-4.5-1.5-5.2.4m4.2 4.6c-.2 2.4-.7 4.3-1.3 4.3-.5 0-1.1-1.9-1.3-4.3-.3-3.3 0-4.2 1.3-4.2s1.6.9 1.3 4.2M145.5 1143.9c-.3.6.1 1.1 1.1 1.1 1.2 0 1.5.6 1 2.5-.3 1.4-.9 3.6-1.2 5-1 3.9 1 2.9 2.4-1.3 2.1-5.9 2-7.7-.5-8-1.1-.2-2.4.2-2.8.7M155.3 1144.2c-.5.7-1 3.2-1.1 5.5-.1 3.2.4 4.5 1.8 5.3 2.2 1.2 5.4-1.4 4.6-3.7-.3-.8-.6-3-.6-4.9 0-2.7-.4-3.4-1.9-3.4-1 0-2.3.6-2.8 1.2m2.8 2.1c-.1 1.2-1.5.9-1.9-.4-.3-.6.1-1 .8-.8.6.3 1.1.8 1.1 1.2m.9 5.8c0 .5-.7.9-1.5.9-1.5 0-2-1.2-.9-2.3.8-.8 2.4.1 2.4 1.4M164.4 1144.5c-.6 1.5-.8 4.5-.5 8.6.1 2.2 3 3.2 4.7 1.8 2.1-1.7 1.7-5.7-.6-6.4-1.1-.3-2-1.3-2-2.1 0-1.1.6-1.3 2.1-.9 1.5.5 2 .3 1.7-.6-.7-2.1-4.7-2.3-5.4-.4m3.6 7.6c0 2.4-2.3 2.1-2.8-.4-.2-1 .3-1.7 1.2-1.7 1 0 1.6.9 1.6 2.1M183.2 1145.5c-2.5 5.5-.4 11.3 3.6 10.1 2.2-.7 2.8-3 2.2-8.1-.5-4.7-4-5.9-5.8-2m4.6 4.9c-.2 1.9-.9 3.1-1.8 3.1-1.7 0-2.4-2.7-1.5-6.2.5-2.1.8-2.3 2.1-1.2.9.7 1.4 2.5 1.2 4.3M193.1 1144.4c-1.8 2.1-1 9.7 1.1 11 1.4.8 2.2.7 3.5-.6 1.4-1.4 1.5-2.2.5-4.3-.6-1.4-1.9-2.5-2.8-2.5-.8 0-1.4-.6-1.1-1.3.2-.6 1.4-1.1 2.5-1 1.5.2 2-.2 1.6-1.2-.8-1.9-3.8-1.9-5.3-.1m3.4 7.6c0 .7-.6 1.5-1.2 1.7-.8.3-1.3-.4-1.3-1.7s.5-2 1.3-1.8c.6.3 1.2 1.1 1.2 1.8M212.6 1144.5c-.9.9-1.3 2.1-1 2.6.3.6 1.2.2 1.9-.8 1.3-1.7 1.4-1.7 2-.1.5 1.2-.2 2.9-2 5-2.5 3-2.6 3.3-.9 4.5 2.1 1.6 4.1 1.7 4.9.3.3-.6-.3-1-1.4-1-2.6 0-2.7-1.5-.2-4.7 3.2-4 .2-9.3-3.3-5.8M203 1145.8c0 .4.4 1.2.9 1.7.5.6 1.1 2.8 1.4 5 .3 3.2.4 2.9.5-1.8.2-4.5-.1-5.7-1.3-5.7-.8 0-1.5.4-1.5.8M277.7 1150c-3.7 2.3-4.3 3-2.6 3 1.6 0 6.6-3.7 5.9-4.3-.3-.2-1.7.3-3.3 1.3M174.5 1150c-.4.6.7 1 2.5 1s2.9-.4 2.5-1c-.3-.6-1.5-1-2.5-1s-2.2.4-2.5 1M266 1156.5c-1.6 1.9 0 1.9 2.6 0 1.6-1.2 1.6-1.4.3-1.5-.9 0-2.2.7-2.9 1.5M171 1163.5c0 5.1-.8 4.1 13.2 16.9 7.2 6.5 8.7 8.5 9.2 11.7.9 5.3 4.3 7.9 9.9 7.2 5.8-.8 7.7-1.9 8.3-5.2.5-2.3 2.2-3.7 9.7-7.7 6.9-3.7 9.3-5.5 9.5-7.2.2-1.2 1.6-2.9 3.3-3.7 3.1-1.7 3.7-2.5 1.6-2.5-.7 0-2.3.9-3.4 1.9-2 1.9-2.2 1.9-3.7.2-1.5-1.6-2.1-1.4-11.3 3-9.7 4.8-9.7 4.8-12.5 2.7-3.3-2.3-5.4-1.8-7 1.7-2 4.4-4.5 4.2-9.7-.7-2.5-2.5-7-6.6-9.8-9.3-4.6-4.2-5.3-5.3-5.3-8.6 0-2.1-.4-4.1-1-4.4-.6-.4-1 1.2-1 4m57.8 15.6c.2 2.3.2 2.3-1.3.5-1.8-2.4-2-3.9-.2-3.4.6.3 1.3 1.5 1.5 2.9m-3.8-.6c1.2 1.5.7 4.5-.7 4.5-1.3 0-3.4-4-2.8-5 .9-1.4 2.1-1.2 3.5.5m-4 4.6c0 2.3-2.8 2.5-3.6.4-.4-.8-.3-2.2 0-3.1.5-1.3.9-1.4 2.1-.4.8.7 1.5 2.1 1.5 3.1m-12.6 3.3c1.7 2.8 2.2 9.6.6 9.6-.5 0-1-1.6-1-3.6 0-4.3-3.3-9.4-6.1-9.4-1.1 0-1.7-.4-1.4-1 .9-1.4 5.9 1.4 7.9 4.4m7.4-1.2c.2 1.9-.2 2.8-1.7 3.3-2.8.8-4.1-.1-4.1-3 0-4.2 5.3-4.6 5.8-.3m-13.6 1c-.9.9-1.5.9-2.4 0s-.7-1.2 1.2-1.2 2.1.3 1.2 1.2m-1.8 3c.9 1.2 1.6 3.5 1.6 5 0 2.3-.4 2.8-2.5 2.8-1.9 0-2.9-.9-4.2-3.4-.9-1.9-1.3-4.1-1-5 .9-2.3 4.3-2 6.1.6m5.6-.2c0 1.1-.6 2-1.4 2-1.8 0-2.9-1.6-2.1-3 1.1-1.8 3.5-1.1 3.5 1m1 4.4c0 1.6-1.8 3.1-2.7 2.2-.8-.8.5-3.6 1.7-3.6.5 0 1 .6 1 1.4M258.8 1160.6q-4.5 2.4-1.5 2.4c1.4-.1 5.2-2.8 4.6-3.4-.2-.2-1.6.2-3.1 1M250.4 1165.5c-1 .8-1.4 1.4-.9 1.5 1.5 0 4-1.8 3.4-2.4-.3-.3-1.4.1-2.5.9M241.7 1169.6c-1.6.9-2.7 1.8-2.4 2 .7.7 5.7-1.8 5.7-2.8s.1-1-3.3.8"/></svg>