<svg xmlns="http://www.w3.org/2000/svg" viewBox="0 0 869.164 1224.352" fill="currentColor"><path d="M496.846 66.184c-14.801.225-46.818 3.463-59.03 5.902-11.111 2.143-20.922 4.294-25.729 5.57-2.904.785-7.91 2.06-11.014 2.844-20.528 5.396-49.391 17.85-71.858 30.936-11.134 6.644-35.426 24.821-45.474 34.37-4.723 4.477-9.444 8.653-10.448 9.348-1.505.992-16.29 17.718-21.925 24.59-4.528 5.676-9.97 14.049-16.328 25.217-1.109 1.794-1.925 4.99-1.935 7.09-.019 3.6.379 4.102 5.263 7.227 6.877 4.535 12.65 9.864 12.74 11.865q-.008 1.65.599.303c.911-2.296-2.47-6.013-10.144-11.252-9.268-6.347-9.46-7.748-2.7-19.714 11.503-20.342 35.237-46.622 58.227-64.506 6.928-5.465 13.153-10.433 13.856-10.93 3.114-2.784 17.16-11.713 25.181-15.973 10.429-5.647 32.183-16.237 33.283-16.231.4.002 2.203-.69 3.808-1.581 4.31-2.178 24.143-8.578 36.56-11.715 29.438-7.451 53.654-10.629 88.36-11.653l21.703-.59 8.172 5.441c8.173 5.442 8.173 5.442 4.272 5.622-29.608 1.55-55.722 4.218-69.537 7.048-2.502.487-9.209 1.753-15.015 2.924-5.805 1.07-11.811 2.34-13.514 2.832-1.603.492-5.908 1.57-9.513 2.552-6.909 1.665-22.434 6.686-27.545 8.76-28.36 11.757-41.795 18.689-62.163 32.186-13.546 8.932-28.607 21.056-40.164 32.297-11.96 11.74-37.025 44.313-35.334 46.022.697.703.495 1.002 3.524-4.682 1.413-2.493 2.724-4.687 3.025-4.985.402-.298 2.315-2.988 4.43-5.978 2.016-2.99 4.734-6.676 6.04-7.97 1.208-1.393 4.629-5.476 7.646-8.96 9.155-10.754 28.748-29.056 37.277-34.812 1.907-1.29 3.714-2.682 4.015-2.98 1.007-1.295 19.668-13.3 27.791-17.96 13.038-7.434 31.582-16.04 46.71-21.564 7.514-2.762 14.126-5.028 14.526-5.026.5.002 3.805-.98 7.31-2.063 22.238-7.288 73.976-14.826 104.079-15.274 12.6-.136 12.6-.136 15.482 3.679 1.489 2.107 3.377 4.417 4.074 5.12 4.974 5.126 6.655 8.934 9.691 21.45 2.35 10.012 2.931 13.615 2.027 14.51-.603.597-5.819 3.67-11.634 6.742-5.817 3.17-12.736 6.935-15.543 8.421-5.114 2.774-12.936 6.935-26.572 14.166-4.111 2.179-12.233 6.438-18.05 9.608a2943 2943 0 0 0-18.55 9.907c-4.412 2.377-8.623 4.656-9.326 5.253-1.908 1.49-2.8.085-5.156-8.827-1.177-4.406-3.25-9.716-4.54-11.723-1.29-2.106-2.38-4.012-2.378-4.412.013-2.6-38.675-44.596-41.075-44.608-.5-.003 4.572 5.523 11.338 12.257 11.74 11.96 27.747 30.441 27.738 32.041-.005 1-1.403.593-10.284-3.052-1.497-.608-3.695-1.119-4.795-1.124-1.8-.01-1.899-.11-.287-2.502 1.512-2.292 1.514-2.692-.965-6.905-1.387-2.507-3.174-5.116-3.87-5.82-.597-.703-3.181-3.816-5.666-6.828-2.385-3.012-6.759-8.135-9.743-11.25-2.884-3.214-5.069-6.225-4.766-6.724.302-.498-.093-1.4-.79-2.004-.996-.805-1.596-.908-2.1-.11-.504.797 5.458 8.427 13.215 16.866 4.773 5.325 14.107 18.372 14.1 19.872-.12 4-5.642 8.272-20.68 15.796l-15.139 7.523-3.886-2.62c-2.093-1.41-6.384-3.332-9.58-4.248-4.592-1.323-5.888-2.13-6.876-4.535-.692-1.604-1.683-3.509-2.28-4.112-2.487-2.512-5.76-7.829-5.257-8.426.804-.696 9.456 8.748 14.321 15.672.199.201.499.203.8.004.402-.498-.094-1.1-8.941-11.645-4.97-5.925-18.511-17.594-19.415-16.798-.202.299.692 1.503 2.086 2.71 2.987 2.615 12.227 14.462 16.195 20.682 2.778 4.414 2.778 4.414.082 3.7-13.083-3.365-38.179-4.392-44.792-1.826-1.202.394-4.206 1.279-6.51 1.967-2.403.588-4.206 1.279-4.008 1.58.3.201 2.902-.285 5.906-1.07 8.812-2.456 23.914-2.78 37.405-.91 12.192 1.66 25.873 5.43 30.357 8.453 7.974 5.24 11.532 13.558 10.775 24.755-.642 8.297-2.16 11.989-5.568 13.472-4.811 2.175-5.906 1.27-2.489-2.213 3.72-3.781 5.241-8.074 5.276-14.873.025-5-.661-7.804-1.961-7.81-.4-.002-.41 1.798.08 4.1 1.76 7.709-.877 14.996-6.8 19.466-3.613 2.782-3.613 2.782-14.307 1.527-8.995-1.045-11.495-1.058-14.701.126-3.606 1.182-15.234 6.723-21.451 10.092-1.404.793-5.816 3.07-9.726 5.05-4.01 2.08-7.32 4.063-7.322 4.363-.005.9 5.99 1.93 15.385 2.878 7.097.636 7.097.636 7.08 4.036s-.118 3.5-13.551 10.132c-7.42 3.762-13.735 6.73-14.035 6.829-.3-.002-1.984-3.11-3.665-6.919-1.88-3.91-4.858-8.325-6.948-10.235-13.44-12.168-14.93-14.076-16.591-21.684-.88-4.005-1.556-8.708-1.547-10.508.026-5.1 2.567-13.188 5.896-18.97 3.228-5.484 11.27-13.844 14.677-15.027 1.002-.395 1.605-.992 1.306-1.293-1.094-1.106-6.613 2.667-11.14 7.744-2.614 2.886-6.14 8.169-7.959 11.76-2.83 5.785-3.138 7.484-3.278 15.483-.078 15.4 2.298 20.012 17.631 33.29 6.074 5.33 13.085 22.866 10.369 26.053-.704.796-10.03 5.749-20.756 10.895-21.051 10.093-22.253 10.387-28.33 6.056-2.392-1.712-2.787-2.714-2.376-4.812.512-2.497.512-2.497-.598-.403-1.617 3.292-.327 5.199 5.46 7.928l5.387 2.427 21.453-10.291c21.051-10.094 21.452-10.292 21.74-7.79.193 1.3-.216 2.999-.82 3.696-.603.797-9.427 5.452-19.652 10.4-17.142 8.314-18.846 9.005-20.339 7.597-1.592-1.508-1.793-1.409-1.702.492.094 1.2-.513 2.397-1.314 2.693-1.002.295-1.2-.006-.693-1.403.507-1.298.006-1.1-1.604.792-2.313 2.588-7.623 4.561-28.654 10.655-7.21 2.063-13.712 2.33-13.703.53.002-.5 1.106-1.294 2.508-1.687 12.018-3.44 29.248-9.252 29.651-9.95.302-.399 1.104-.794 1.804-.79 2.2.01 8.916-3.056 8.219-3.66-.298-.4-1.6-.207-2.902.386-1.203.594-4.91 2.075-8.217 3.258-3.306 1.184-6.913 2.565-8.015 2.96-10.12 3.949-25.84 7.97-26.935 6.864-.497-.503-.872-5.505-.643-11.204.243-8.599.653-10.597 2.263-12.389 1.206-1.293 1.917-3.49 1.93-5.99.016-3.2 1.028-5.495 4.553-10.477 2.619-3.687 5.433-6.572 6.735-6.866 1.902-.49 2.407-1.388 2.624-4.787.324-4.698 2.431-6.187 8.331-6.158 2.1.011 2.903-.485 2.909-1.685.006-1.3-.293-1.401-1.198-.506-.703.696-2.506 1.187-4.106 1.18-4.9-.026-6.708 1.565-6.73 5.965-.017 3.3-.42 4.098-2.323 4.489-1.302.393-4.217 3.478-7.038 7.564-3.727 5.281-4.94 7.975-5.158 11.474-.214 2.8-1.025 4.995-2.029 5.69-1.405.993-1.717 3.291-1.963 12.39-.256 11.199-.256 11.199 3.228 14.217 3.983 3.52 4.982 3.625 12.192 1.761 17.424-4.711 32.45-9.836 43.376-14.88 20.849-9.695 33.28-15.932 35.891-18.019 1.607-1.292 8.827-5.255 16.045-8.819 11.43-5.742 13.633-6.43 17.13-5.913 2.299.312 7.796.84 12.394 1.163 8.298.542 8.298.542 20.73-5.796 6.818-3.565 12.631-6.136 12.93-5.734.296.601 6.094 20.731 9.529 33.749.588 2.203 1.474 5.007 1.968 6.31 2.27 5.911 1.67 5.708-13.778-4.47-6.479-4.233-14.253-9.272-17.243-11.288-2.99-1.915-8.572-5.543-12.26-7.962-3.788-2.419-7.079-4.236-7.38-4.037-.201.299 3.485 3.117 8.369 6.242 16.246 10.783 28.605 18.845 43.157 28.419 12.658 8.364 14.852 9.475 17.455 8.788 3.104-.684 4.104-.679 8.501-.156 2 .21 2.601-.187 2.81-1.986.207-1.3 1.114-2.595 2.015-2.89 2.905-.985 5.218-3.474 5.229-5.674.019-3.7 2.933-6.485 11.153-10.543 8.222-4.159 10.824-4.646 12.615-2.837 1.194 1.206 3.698.32 2.805-.985-.198-.501-1.895-1.11-3.692-1.52-2.698-.513-4.901.176-11.619 3.542-8.42 4.158-12.44 7.837-13.564 12.732-.407 1.398-2.017 3.29-3.721 4.18-1.605.893-3.012 2.386-3.017 3.286-.009 1.7-1.71 1.891-3.903.58-.897-.605-2.097-.51-3.201.184-2.608 1.586-3.003.584-2.173-5.411.828-5.396.828-5.396 9.85-9.85 12.332-6.238 13.135-6.734 12.338-7.438-.298-.402-4.206 1.178-8.518 3.557-11.632 6.24-12.735 6.835-13.935 6.83-2.4-.013-5.778-4.23-6.956-8.736-.686-2.704-2.65-9.814-4.32-15.822-1.669-6.109-4.123-15.221-5.397-20.328-2.55-9.913-5.02-15.625-4.053-9.22.582 3.503 2.547 10.413 6.97 25.535 1.378 4.407 3.342 11.617 4.42 16.023 2.159 8.11 2.752 9.414 6.634 13.033 1.891 1.71 2.087 2.611 1.365 6.807-.413 2.598-1.125 4.995-1.426 5.293-.302.399-3.394-1.317-6.881-3.835-5.58-3.928-6.376-4.832-7.453-9.337-1.272-5.607-1.762-7.41-6.183-23.032-5.108-18.326-5.108-18.226-3.392-21.517 1.01-1.895 1.53-5.693 1.557-11.193.06-12-1.634-13.008-1.894-1.21-.132 6.4-.653 10.498-1.56 11.893-.806 1.096-7.125 4.864-14.042 8.329-14.438 7.327-14.038 7.43-18.988-2.496-2.871-5.715-3.828-14.22-2.11-17.811.505-.997.409-1.698-.191-1.701-1.5-.008-2.641 8.087-1.762 12.191.39 1.802 2.07 5.91 3.653 9.219 1.584 3.208 2.67 6.113 2.368 6.412-.402.298-4.9-.025-10.096-.751-6.896-.935-9.896-.95-11.5-.158-1.103.594-2.404.887-2.903.585-.897-.605-5.054-9.126-5.047-10.426.002-.4 1.81-1.79 4.016-3.18 3.511-2.182 4.015-2.88 4.032-6.18.023-4.6-1.771-5.808-9.17-5.946-2.9-.114-6.598-.433-8.096-.84-2.797-.615-2.797-.715 2.82-3.886 3.108-1.685 6.215-3.169 6.915-3.165.7.003 1.602-.392 2.205-.89.502-.497 5.015-2.974 9.929-5.65 9.926-5.149 9.426-5.151 31.522-4.24 9.997.451 11.898.26 14.706-1.325 1.706-1.092 3.416-2.983 3.723-4.481 1.024-4.695 2.129-5.59 4.719-3.677 3.388 2.318 6.49 2.033 9.806-1.15 3.013-2.685 3.626-5.182 3.264-12.584-.085-3-5.752-9.629-8.352-9.642-.8-.004-3.005 1.085-5.012 2.475-3.411 2.182-5.71 1.87-4.198-.522.403-.598 9.227-5.253 19.653-10.4 20.452-10.197 24.057-11.079 27.637-7.16 3.281 3.716 3.083 3.315 11.236 32.357 1.08 3.805 2.358 8.312 2.85 10.014.391 1.602 1.962 7.31 3.236 12.517 6.865 26.635 10.7 39.655 12.29 41.363 1.79 2.109 2.093 1.61-3.527 5.482-1.605 1.092-1.506 1.192.897.704 2.903-.585 6.793 1.235 6.784 3.135-.003.6-1.01 1.895-2.214 2.789-2.309 1.688-2.309 1.688.394 1.102 1.902-.39 3 .015 3.694 1.218.495 1.003 1.192 1.506 1.494 1.208.803-.696-1.56-7.908-2.56-7.913-.4-.002-.794-1.204-.786-2.704.007-1.5-1.081-3.806-2.374-5.212-1.392-1.507-3.171-5.716-4.349-10.122a4759 4759 0 0 0-4.121-15.521c-5.205-18.827-10.012-37.252-10.5-39.554-.389-2.302.414-2.898 8.937-7.255 5.113-2.674 12.031-6.24 15.34-8.022 3.31-1.784 11.23-5.844 17.547-9.212a1177 1177 0 0 0 15.542-8.221c2.206-1.189 7.821-4.16 12.534-6.637 4.712-2.376 12.936-7.234 18.454-10.707 5.418-3.472 10.333-6.547 11.034-6.744.601-.197 1.009-1.595.816-2.996-.093-1.5.313-2.698.813-2.696 1.5.008 1.214-2.694-.938-12.105-4.013-17.32-4.704-19.124-8.681-23.544-1.492-1.607-4.375-5.022-6.462-7.633s-7.462-7.437-12.046-10.66c-8.17-6.042-8.17-6.042-16.667-6.485-4.6-.223-12.2-.262-16.9-.186m59.68 63.503c-.005 1-11.238 7.443-29.085 16.653-6.317 3.268-13.335 6.933-15.441 8.122s-8.724 4.656-14.54 7.627c-5.814 2.97-13.534 6.931-17.144 8.913-8.725 4.756-23.663 12.28-24.563 12.276-1.7-.009 1.11-2.095 6.725-4.966 7.119-3.664 13.536-7.032 28.878-15.354 5.816-3.17 16.646-8.916 24.066-12.879s15.642-8.32 18.35-9.807c2.607-1.387 6.618-3.666 9.025-4.954 2.306-1.289 5.817-3.27 7.722-4.361 3.811-2.18 6.014-2.67 6.007-1.27m-193.07 13.323c-.008 1.5-1.504.793-2.794-1.214-1.19-1.906-1.09-2.006.804-.796 1.096.706 1.992 1.61 1.99 2.01m70.649 10.258c2.794 1.114 2.794 1.114-.714 2.796-1.906.99-10.628 5.447-19.35 9.903-8.623 4.356-16.342 8.017-17.042 8.013-1.8-.009-4.08-4.02-2.873-5.214 2.21-2.19 31.984-16.539 34.484-16.526 1.5-.092 3.898.42 5.495 1.028m-22.826 24.785c3.98 4.02 3.829 14.02-.087 17.2-2.41 1.887-6.612 2.266-8.905.854-1.993-1.31-3.235-12.816-1.717-16.308 1.82-4.091 7.426-5.063 10.709-1.746m-75.744 67.817c.988 2.405 1.976 4.61 2.174 5.011.199.301-2.304.789-5.505.972-3.2.184-6.704.766-7.706 1.261-1.904.79-1.804.691.211-2.199 1.209-1.693 2.217-3.388 2.219-3.688.002-.4.709-1.797 1.615-3.092 2.42-3.688 4.716-3.076 6.992 1.735m-9.2-.046c-.404.698-1.815 2.99-3.226 5.083-2.622 4.387-2.328 5.489 1.18 3.906 3.408-1.482 11.613-2.54 11.608-1.44-.004.7-12.339 7.537-18.051 10.008-.802.296-2.869-6.215-3.149-10.116-.287-2.502.316-3.199 5.23-5.774 6.015-3.17 7.517-3.562 6.408-1.667"/><path d="M534.26 83.174c3.388 2.517 9.456 8.848 9.451 9.848-.003.5.79 2.104 1.882 3.51.993 1.505 2.178 4.31 2.469 6.212.78 3.804.78 3.804-4.085-2.92-4.37-6.023-19.207-18.598-19.218-16.298-.003.6.992 1.605 2.289 2.211 3.49 1.918 13.738 12.27 12.934 13.066-.502.298-3.31 1.983-6.319 3.668-3.008 1.585-9.326 5.053-14.039 7.63a2207 2207 0 0 1-18.05 9.708c-9.925 5.15-12.233 6.638-10.233 6.648 1 .005 6.113-2.569 13.735-6.93 1.705-.892 6.82-3.766 11.532-6.242 17.045-8.914 21.258-11.293 23.166-12.883 1.808-1.59 2.007-1.39 5.183 3.326 1.886 2.81 3.575 4.818 3.877 4.52s1.093 1.406 1.781 3.71c1.182 3.705 2.964 7.214 2.971 5.714.001-.2-1.077-4.405-2.452-9.412-1.864-7.11-2.153-9.211-1.147-10.406s.907-1.396-.496-.803c-1.403.493-2.299-.311-3.785-3.119-1.09-2.006-2.477-4.413-3.173-5.216-2.287-2.712-7.865-7.04-9.065-7.046-.7-.004-.303.698.793 1.504"/><path d="M508.932 88.746c-1.91 1.89-1.513 2.592 3.757 8.619 2.784 3.114 4.97 6.025 4.967 6.425-.008 1.6 4.096.82 9.01-1.754 7.72-3.961 8.023-4.76 3.146-9.284-2.29-2.112-5.579-4.129-7.277-4.537-4.995-1.026-12.296-.763-13.603.53m18.083 3.491c1.993 1.31 3.684 3.22 3.678 4.22-.01 1.999-6.63 6.166-9.73 6.15-2.6-.013-11.647-10.66-10.837-12.655.912-2.396 12.005-.84 16.889 2.285M531.127 109.658c-2.312 2.389-3.021 4.085-3.345 8.784-.537 7.297 1.243 11.306 6.131 13.63 6.085 2.932 12.002-.338 14.643-8.325 1.624-4.892.153-10.6-3.727-14.52-3.681-3.718-9.882-3.55-13.702.431m12.496.764c5.176 4.726 5.33 13.827.305 18.801-6.734 6.666-16.397-.683-14.942-11.475.726-5.297 5.05-10.075 9.15-10.054 1.4.007 3.895 1.22 5.487 2.728M471.491 136.257c-19.952 10.3-22.86 11.984-20.76 11.995.7.004 24.864-12.674 25.668-13.47 1.005-.995-1.7-.209-4.908 1.475M435.971 159.877c-1.101.295-2.405.988-3.008 1.685-6.535 6.867-6.675 14.667-.307 21.099 3.582 3.618 7.184 3.236 11.205-1.043 3.016-3.085 3.422-4.183 3.444-8.683.031-6.1-2.643-11.214-6.535-12.733-1.397-.607-2.596-.913-2.696-.914-.1.1-1.102.394-2.103.59m7.28 3.837c.697.704 1.685 3.209 2.073 5.51 2.431 13.613-10.101 19.95-15.14 7.724-2.074-5.01.868-13.295 5.177-15.074 2.004-.79 6.2.132 7.89 1.84M357.332 167.38c-5.605 1.071-16.429 5.716-20.846 8.994-7.729 5.761-23.316 22.882-23.33 25.582-.001.4-.812 2.496-1.924 4.89-3.844 8.681-4.15 9.98-4.187 17.18-.03 5.8.458 8.202 2.044 11.01 3.669 6.219 5.668 6.329 17.598.49 5.814-2.771 10.227-5.249 10.028-5.55-.299-.202-4.908 1.675-10.221 4.248-8.12 3.86-10.223 4.449-12.42 3.737-3.293-1.216-6.066-6.73-6.039-12.03.021-4.1.021-4.1 28.995-18.554 36.993-18.413 35.49-17.62 34.892-18.123-.2-.201-7.115 2.864-15.335 6.922-8.221 4.059-19.248 9.403-24.461 11.976-5.213 2.474-12.231 6.039-15.54 7.922-3.31 1.883-6.318 3.468-6.718 3.466-1.5-.008-.777-4.704 1.45-10.093 5.367-13.073 20.552-29.896 32.181-35.537 11.63-5.742 29.535-6.751 38.712-2.205 5.087 2.526 5.087 2.526 5.093 1.326.002-.4-2.39-1.812-5.184-3.126-5.289-2.227-18.882-3.596-24.788-2.525M426.403 193.03c-9.423 4.652-18.148 9.408-19.354 10.602-2.613 2.586-3.647 9.381-1.967 13.39 1.876 4.61 2.882 3.514 1.206-1.294-1.38-4.007-1.377-4.607.442-8.298 1.717-3.391 3.223-4.484 11.945-8.74a1042 1042 0 0 0 16.94-8.114c5.314-2.573 7.216-3.063 7.812-2.16 1.19 2.006 2.94 11.715 2.336 12.712-.303.498-6.82 3.865-14.339 7.527-15.638 7.521-22.658 11.386-22.061 12.089.896.804 36.689-17.515 37.698-19.31.707-1.296.618-3.497-.363-7.302-1.766-6.809-1.86-7.91.04-7.9 1.6.008 3.274 5.117 4.137 12.521l.474 5.103L432 213.358c-10.727 5.246-18.75 9.605-17.85 9.61.8.104 9.821-4.05 20.047-9.099 18.346-9.107 18.446-9.107 18.764-12.605.21-1.999-.667-6.503-1.95-10.01-1.972-5.51-2.666-6.514-4.766-6.624-1.4-.107-10.219 3.648-19.843 8.4M277.453 202.576c-2.113 2.589-3.632 6.281-4.96 11.675-1.428 5.793-1.987 17.29-.892 18.395.696.704 7.312-2.463 11.828-5.54 2.71-1.886 2.811-2.186 2.142-8.29-.282-3.5-1.456-8.707-2.541-11.612-.986-2.905-1.873-5.41-1.872-5.51.004-.9-2.9-.114-3.705.882m4.772 5.524c.787 2.704 1.361 7.707 1.343 11.207-.032 6.4-.032 6.4-5.046 9.174-2.708 1.587-5.414 2.773-5.915 2.87-.4-.002-.483-3.302-.063-7.3 1.795-18.691 6.635-26.667 9.681-15.951M265.226 207.914c-.006 1.1.293 1.401.597.603.303-.699.208-1.6-.09-1.9-.298-.402-.602.196-.507 1.297M267.523 208.425c-.403.698-.827 5.496-1.054 10.795l-.349 9.599.843-8.496c.424-4.698 1.148-9.495 1.555-10.792.811-2.296.215-3-.995-1.106M123.399 212.896c-4.012 2.28-8.526 5.057-9.931 6.15-2.811 2.086-2.715 2.886.76 7.904.397.602 3.77 5.719 7.442 11.338 5.656 8.828 6.85 10.134 8.454 9.243 1.002-.495 1.81-2.091 1.817-3.391.016-3.2 1.416-3.093 7 .135 2.492 1.413 8.675 4.844 13.76 7.67 8.577 4.643 9.376 4.947 11.483 3.558 2.106-1.29 2.21-1.989 1.749-9.691l-.459-8.203-11.968-6.26c-13.764-7.27-19.347-10.498-21.24-12.008-.896-.705-1.286-2.707-.97-5.905.113-2.6.125-4.8-.176-4.7-.3-.002-3.81 1.98-7.721 4.16m4.679 4.224c-.023 4.5-.023 4.5 7.756 8.54a4307 4307 0 0 1 16.656 8.884l8.975 4.945.26 7.701c.171 5.801-.038 7.6-1.138 7.595-.7-.004-1.698-.409-2.195-.911-2.588-2.313-27.723-15.24-29.723-15.25-1-.006-1.205.993-.916 3.194.577 4.503-.418 3.398-8.254-9.141-3.571-5.719-6.345-11.033-6.04-11.831.303-.699 1.608-1.692 2.81-2.186 1.303-.493 3.911-2.08 5.818-3.47 5.118-3.575 6.017-3.27 5.99 1.93"/><path d="M129.01 230.525c-.017 3.4.369 6.102.969 6.105s1.004-.895 1.01-2.095c.008-1.5.51-1.898 1.508-1.493.899.305 1.5.008 1.505-.892.004-.8-.693-1.504-1.493-1.508s-1.496-.707-1.492-1.607c.006-1.1.607-1.397 2.005-.89 2.496.813 2.705-.986.31-1.899-.999-.305-2.396-.912-2.994-1.215-.998-.405-1.305.994-1.328 5.494M137.603 231.868c1.062 7.606 1.55 9.808 2.25 9.812.5.002 1.105-.895 1.41-1.993.714-2.597 2.714-2.586 2.701-.087-.013 2.5.974 5.105 1.974 5.11.4.003 1.006-1.194 1.314-2.793.308-1.498.819-3.696 1.226-4.994.507-1.397.31-2.198-.39-2.202-.6-.003-1.103.695-1.107 1.495s-.407 1.498-1.007 1.495c-.5-.003-.996-.805-.991-1.805.014-2.8-1.083-3.406-3.092-1.616-1.607 1.392-1.807 1.29-2.393-1.512-.781-3.604-2.378-4.212-1.895-.91M150.95 242.536c-.028 5.4.169 6 2.663 7.113 2.395 1.113 2.895 1.015 4.505-.877 3.12-3.884 1.84-7.79-3.248-10.416-1.795-.91-3.391-1.618-3.591-1.619-.1 0-.314 2.599-.33 5.799m5.505-1.172c2.289 2.311 1.565 6.908-1.035 6.895-1.6-.009-2.096-.811-2.278-4.312-.277-4.501.626-5.197 3.313-2.583M432.664 220.561c-11.029 5.645-20.254 10.698-20.457 11.297-.61 1.997 9.117 36.047 11.008 37.956 1.293 1.407 10.811-2.245 27.352-10.261 7.419-3.663 10.524-4.747 11.22-3.844 2.484 3.013 13.171 25.367 16.427 34.184 5.524 15.028 5.623 15.229 11.272 45.058 1.753 9.309 2.905 18.714 5.75 49.33 1.235 12.906.876 83.905-.445 107.798-.65 9.797-1.467 32.993-1.86 51.392-.394 18.398-1.233 45.894-1.81 60.991-.576 15.098-1.062 32.195-1.192 37.995l-.053 10.5 6.5.032c6.5.133 6.5.133 7.015-2.964.208-1.599.594-58.098.835-125.497.236-105.9.131-124.601-1.301-138.009-6.382-62.833-16.106-97.683-34.668-124.977-4.467-6.523-5.06-7.926-3.855-8.82 1.907-1.39 1.914-2.89.143-8.499-.688-2.403-1.769-6.209-2.358-8.412s-1.766-6.709-2.65-10.013c-.882-3.305-2.159-8.011-2.746-10.514-.687-2.604-1.777-4.51-2.677-4.614-.8-.104-10.522 4.347-21.45 9.891m23.806-1.08c.98 4.006 2.155 8.812 2.546 10.614.882 3.604 2.187 2.611-13.047 9.334-2.506 1.187-8.52 3.957-13.532 6.232-12.63 5.936-13.33 6.032-14.417 3.227-3.354-9.017-4.822-15.325-3.816-16.52.604-.697 3.814-2.68 7.222-4.263 3.308-1.684 11.53-5.842 18.147-9.309 6.618-3.466 12.732-6.335 13.633-6.43 1.1-.095 1.99 1.91 3.264 7.116M264.206 211.909c-.006 1.1.293 1.401.597.603.303-.699.208-1.6-.09-1.9-.299-.402-.602.196-.507 1.297M236.094 214.066c-.003.6 2.786 2.915 6.174 5.232 6.677 4.634 12.766 6.664 12.778 4.465.004-.8 1.015-2.995 2.125-4.99 1.21-1.994 1.92-3.79 1.62-4.092-.298-.301-1.606 1.392-2.919 3.786-2.523 4.587-5.63 6.171-6.415 3.067-.295-1.001-2.784-3.114-5.676-4.829-5.982-3.53-7.68-4.039-7.687-2.639M263.256 221.704c-.227 5.299.166 6.701 3.637 12.519 4.064 7.02 5.929 14.03 6.086 22.43.086 2.901.468 6.303.861 7.705.69 2.104.791 1.804.91-1.895.122-4.4.122-4.4 2.709-1.787 5.77 5.83 13.58 4.07 17.42-3.911 2.426-5.088 2.54-7.888.563-12.498-3.95-9.72-16.053-9.281-19.704.8-1.52 3.993-2.822 4.286-2.802.486.014-2.8-5.525-14.928-7.616-16.738-.697-.504-1.381-3.707-1.564-7.008l-.27-6.002zm28.801 19.646c2.387 2.512 2.881 3.715 2.859 8.115-.042 8.3-3.666 12.981-10.166 12.948-9-.045-12.941-11.565-6.6-19.533 4.125-5.18 9.628-5.752 13.907-1.53M254.025 227.757c-.001.3.198.501.498.503.3.001.5-.198.502-.498s-.197-.5-.497-.502-.501.197-.503.497"/><path d="M289.016 229.735c-1.404.792-4.913 2.575-7.82 4.06-4.714 2.576-7.324 4.563-5.724 4.571.6.003 9.725-4.85 15.041-8.124 3.41-2.083 2.313-2.488-1.497-.507M261.194 233.894c3.674 5.218 6.263 7.432 3.386 2.917-3.472-5.518-5.063-7.426-5.862-7.53-.5-.002.69 2.104 2.476 4.613M254.005 231.757c-.001.3.198.501.498.503.3.001.5-.198.502-.498s-.197-.5-.497-.502-.501.197-.503.497M254.987 235.362c-.005.9 1.183 3.406 2.572 5.513 1.49 2.108 2.975 5.016 3.468 6.418.391 1.602.79 1.904.795.804.106-1-1.476-4.607-3.359-8.017-1.882-3.51-3.472-5.618-3.476-4.718M266.942 244.323c-.004.7.295 1.001.696.704.302-.399.305-.999.007-1.4-.398-.302-.7-.004-.703.696M267.418 249.025c.395 1.002 1.167 6.506 1.738 12.31.57 5.802 1.252 9.406 1.459 8.107.619-3.797-1.789-22.11-2.889-22.115-.6-.003-.704.796-.308 1.698M468.2 253.042c-1.402.493-1.812 2.29-.512 2.297.5.003 1.704-.691 2.808-1.486 1.406-1.093 1.507-1.392.407-1.398-.8-.004-2.101.29-2.703.587M439.327 267.496c-11.028 5.444-19.552 10.101-18.953 10.304 1.198.406 39.492-18 39.597-19 .002-.4-.096-.8-.295-1.001-.1-.1-9.322 4.253-20.35 9.697M459.835 265.8c-1.408 1.592-1.009 1.794 1.396.907.901-.296 1.605-.992 1.607-1.492.008-1.4-1.594-1.108-3.003.585M465.318 269.327c.297.502.995 1.005 1.595 1.008.5.003.902-.495.905-.995.003-.6-.695-1.004-1.595-1.008-.8-.004-1.202.394-.905.995M270.99 274.344c-.007 1.4.19 1.9.494 1.202.203-.599.209-1.799.012-2.5-.297-.601-.5-.102-.506 1.298M506.525 663.141c-2.206 1.189-2.61 1.987-2.12 3.89.783 3.303-1.52 4.092-5.61 1.97-3.192-1.615-3.292-1.616-9.31 2.054-5.417 3.372-6.319 3.568-9.013 2.554-2.595-1.013-3.696-.818-8.108 1.46-2.807 1.485-6.218 3.468-7.622 4.36-1.405.894-5.917 3.37-10.028 5.55-23.163 12.383-23.464 12.581-22.68 15.785.49 1.903-.314 2.699-6.028 5.47-5.013 2.575-6.92 4.065-7.934 6.56-2.63 6.087-6.944 8.765-12.64 7.836q-6.894-1.085-6.911 2.365c-.008 1.4-.71 1.797-3.01 1.785-3.199-.116-8.017 3.36-8.029 5.76-.004.9-2.307 1.388-7.708 1.56-4.3.179-7.803.66-7.806 1.16-.002.5 3.396.918 7.495 1.039 7.4.137 7.4.137 8.383 3.442.785 3.004 1.183 3.306 3.486 2.818 4.906-1.175 5.605-1.072 6.494 1.033.989 2.305 7.568 6.438 10.068 6.45 5.1.027 14.538-7.526 14.559-11.626.023-4.5 2.941-8.185 8.857-11.255 3.109-1.684 7.12-3.764 8.724-4.756 3.61-1.982 14.14-7.828 20.859-11.494 10.93-5.945 14.841-8.125 25.672-14.17l11.532-6.442 2.584 3.213c2.882 3.614 4.282 3.521 10.601-.147 4.714-2.776 5.423-4.472 5.469-13.572.03-6.1-.357-8.502-1.748-10.31-.993-1.304-2.084-3.21-2.479-4.212-.789-2.104-2.289-2.111-6-.13m4.682 3.624c2.19 2.01 2.582 3.413 3.044 11.015.556 8.603.556 8.603-2.756 11.086-5.22 3.874-7.421 4.163-9.307 1.253-2.38-3.712-4.28-3.921-9.395-1.047-2.507 1.387-6.619 3.766-9.126 5.154-2.506 1.287-7.42 4.062-11.031 6.144-3.61 1.982-9.427 5.252-13.036 7.134a1094 1094 0 0 0-21.059 11.494c-2.507 1.387-6.819 3.765-9.526 5.251-5.315 2.874-8.539 7.557-8.563 12.257-.013 2.7-4.133 6.58-9.545 9.052-3.209 1.584-3.509 1.582-7.395-1.137-2.293-1.412-4.085-3.021-4.082-3.521s-1.092-1.606-2.587-2.513c-1.894-1.31-2.793-1.414-3.698-.519-2.311 2.288-3.706 1.181-3.685-3.019.024-4.7 1.44-7.892 3.54-7.882 2.2.011 1.791 1.81-.512 2.498s-2.718 3.486-.518 3.497c.8.004 1.498.408 1.495 1.008-.003.5-.705.996-1.505.992s-1.502.392-1.505.992c-.006 1.1 1.093 1.306 3.398.418 1.102-.395 1.61-1.892 1.625-4.992.016-3.1.422-4.398 1.422-4.393.7.003 1.904-.69 2.607-1.387.906-1.095 1.807-1.29 3.703-.481 3.892 1.52 4.1.12.208-1.6l-3.392-1.616 3.497.717c1.898.31 4.296.622 5.296.627 2.7-.086 8.425-4.757 10.443-8.447.91-1.795 1.814-2.69 2.01-1.99.788 2.404-2.836 7.286-7.45 9.963-4.814 2.775-4.523 4.477.39 2.002 3.61-1.882 6.627-5.267 8.749-9.656 1.314-2.794 3.222-4.384 8.937-7.255 3.91-1.98 10.126-5.149 13.736-7.13 8.323-4.559 18.15-9.909 29.58-15.851 5.014-2.575 9.727-5.251 10.53-5.847.804-.696 2.91-1.785 4.513-2.577 1.704-.792 4.312-2.278 5.817-3.37 2.81-1.787 3.11-1.785 6.401-.168s3.592 1.618 6.903-.465c3.71-2.182 4.12-3.88.61-1.997-2.908 1.485-3.707 1.38-2.098-.511 1.007-1.195 1.01-1.995.118-3.5-1.587-2.608.112-2.399 3.199.317m-4.407 1.277c-.001.3-.202.5-.502.498s-.5-.203-.498-.503.203-.499.503-.497c.3.001.499.202.497.502m-10.011 2.25c-.006 1.2-11.038 7.444-33.096 18.833-5.815 2.97-11.63 6.04-12.935 6.934-1.404.793-5.917 3.27-10.028 5.45-5.314 2.773-7.117 3.363-5.81 1.87 1.207-1.294 1.511-2.192.814-2.696-1.296-.806-1.482-3.507-.182-3.5.5.002 4.911-2.276 9.825-5.051 4.815-2.776 12.035-6.74 15.845-8.82 3.91-1.98 8.724-4.656 10.83-5.945 3.01-1.785 4.611-2.077 7.808-1.56 3.298.516 4.8.223 7.708-1.562 7.725-4.76 9.228-5.453 9.22-3.953m-66.185 36.365c-.002.3-.203.5-.503.498s-.499-.203-.497-.503c.001-.3.202-.499.502-.497.3.001.5.202.498.502m-2.005.99c-.002.3-.203.5-.503.498s-.499-.203-.497-.503c.001-.3.202-.499.502-.497.3.001.5.202.498.502m-2.005.99c-.001.2-.905.895-2.008 1.49-1.203.594-2.003.69-2 .09.002-.5.806-1.196 1.807-1.391.901-.296 1.802-.491 2.003-.59.1 0 .2.101.198.401"/><path d="M445.324 702.632c-5.115 3.074-6.728 5.466-5.642 8.271 1.086 2.906 2.286 2.912 8.403-.457 4.512-2.377 5.015-2.975 5.031-6.175.022-4.4-2.375-4.912-7.792-1.64m6.29 2.032c-.006 1.2-8.033 6.559-9.733 6.55-.2 0-.295-1.001-.09-2.2.52-3.697 9.84-7.75 9.823-4.35M406.45 737.035c-.024 4.7.36 8.002.96 8.005s1.016-3.295 1.04-7.994c.023-4.7-.36-8.002-.96-8.005s-1.017 3.294-1.04 7.994M264.474 672.516c-2.908 1.585-1.864 12.79 1.236 12.806 2 .01 4.116-3.279 3.427-5.382-.689-2.304-2.381-3.712-3.585-3.019-.401.298-.798-.404-.792-1.604.009-1.7.41-1.997 2.008-1.49 1.098.306 1.999.21 2.001-.29.008-1.5-2.39-2.111-4.295-1.021m2.76 8.114c-.014 2.6-2.013 2.49-2.3-.212-.292-1.601.112-2.2 1.01-1.895.698.304 1.294 1.207 1.29 2.107M306.676 672.33c-2.601.186-4.005.98-4.914 2.775-1.312 2.293-1.812 2.39-10.212 2.348-4.8-.024-8.802.356-8.805.856-.002.4 4.495 1.122 10.094 1.35 5.498.328 10.494 1.054 11.19 1.757.598.603 1.895 1.11 2.895 1.115 1.1.006 3.596.918 5.79 2.03 7.58 3.938 9.594 1.248 3.523-4.583-1.89-1.81-3.48-3.918-3.476-4.718.011-2.2-2.084-3.21-6.085-2.93m2.783 3.414c-1.003.495-2.21 1.889-2.716 3.086-.911 2.195-.911 2.195-.9-.005-.09-2.1 3.73-5.78 4.824-4.675.298.301-.205.999-1.208 1.594m-5.108 1.474c-1.005.995-1.897-.51-.99-1.805.605-1.097.805-1.096 1.2.006.196.7.092 1.5-.21 1.799m6.582 3.533c-.703.697-1.204.794-1.2.194.006-1.4 1.212-2.594 1.909-1.89.198.3-.106 1.1-.709 1.696m3.796.82c-.002.5-.405.997-1.005.994-.5-.002-.997-.505-.995-1.005.003-.6.505-.997 1.005-.995.6.003.998.405.995 1.005m2.99 2.015c-.003.5-.405.998-1.005.995-.5-.003-.997-.506-.995-1.006.003-.6.505-.997 1.005-.994.6.003.998.405.995 1.005M206.469 673.522c-2.008 1.49-2.448 9.388-.558 11.298 1.791 1.809 3.593 1.518 4.804-.776 1.312-2.393-.27-6.001-2.47-6.013-.8-.004-1.495-.907-1.49-2.007.013-2.3 1.014-2.595 2.805-.786.895.905 1.196.806 1.202-.394.011-2.2-2.186-2.811-4.293-1.322m2.756 8.514c-.003.7-.607 1.497-1.208 1.694-.802.296-1.298-.406-1.292-1.706s.51-1.998 1.31-1.794c.598.303 1.194 1.106 1.19 1.806M233.966 674.162c-1.815 2.89-1.538 7.492.749 10.104 1.987 2.41 1.987 2.41 4 .02 2.313-2.589 2.522-4.488.945-8.996-1.282-3.606-3.78-4.119-5.694-1.128m4.191 1.62c.889 2.305.672 5.704-.437 7.399-.907 1.295-1.107 1.294-2-.01-1.091-1.706-1.263-7.307-.258-8.302q1.659-1.641 2.695.914M244.072 672.913c-.7.196-1.309 1.793-1.317 3.393-.013 2.6.285 2.902 2.388 2.312 1.602-.392 2.5-.087 2.994 1.215.789 2.204-1.325 4.894-2.817 3.386-1.592-1.608-2.994-1.215-1.603.492 1.988 2.41 4.891 1.825 5.605-.972.817-3.295-.071-5.6-2.568-6.213-2.597-.713-2.588-2.313.011-2.3 1.1.006 2.003-.49 2.006-.99.005-1-2.594-1.213-4.699-.323M272.748 677.658c-.03 6 1.558 8.308 4.964 7.225 1.703-.591 2.007-1.39 1.732-6.291-.172-5.601-.171-5.701-3.37-6.017-3.298-.317-3.298-.317-3.326 5.083m4.512-2.277c-.004.7-.608 1.497-1.209 1.694-.801.296-1.298-.407-1.29-1.707.006-1.3.51-1.997 1.308-1.793.599.303 1.195 1.106 1.191 1.806m.972 5.505c-.005 1.1-.81 2.096-1.711 2.291-1.402.293-1.799-.309-1.789-2.309s.413-2.598 1.812-2.29c.899.204 1.694 1.208 1.688 2.308M547.265 675.147c-1.103.595-4.814 2.776-8.325 4.858-3.51 1.983-6.519 3.667-6.719 3.666-.1 0-3.309 1.784-7.02 4.065-3.711 2.181-8.325 4.858-10.13 5.949-1.906.99-4.915 2.775-6.82 3.765-1.805.991-6.62 3.867-10.731 6.246-17.052 10.114-22.567 13.186-24.272 13.977-1.102.395-6.216 3.269-11.533 6.542-5.416 3.173-11.333 6.543-13.238 7.533s-3.71 2.081-4.012 2.38c-.302.398-4.014 2.68-8.226 5.158l-7.823 4.36.214 17.002.114 17 5.202-.273c6.301-.268 7.705-1.06 87.343-47.858 12.739-7.636 23.57-13.781 23.77-13.78.3.001 3.912-2.28 8.025-4.96 5.118-3.374 7.53-5.662 7.536-6.962.01-1.9.81-1.996 19.01-1.904 12 .061 19.001-.303 19.004-.903s-6.994-1.036-18.894-1.096c-21.5-.109-19.705.8-19.952-9.501-.266-6.902-.954-9.205-4.533-13.423-2.782-3.414-4.68-3.824-7.99-1.84m6.09 2.031c1.89 1.91 1.782 3.51-.322 4.299-.902.395-7.521 4.162-14.643 8.426s-13.14 7.733-13.44 7.732c-.2-.001-3.209 1.783-6.52 3.967-3.41 2.182-6.52 3.967-7.02 3.964-.7-.003-28.882 16.254-37.109 21.413-2.106 1.29-4.012 2.38-4.212 2.378-.3-.001-4.11 2.18-8.625 4.957-4.514 2.677-8.325 4.958-8.525 4.957-.3-.002-3.71 2.081-7.624 4.661-6.821 4.266-7.422 4.463-9.716 3.151-3.59-2.018-3.683-3.319-.475-5.002 1.604-.792 3.009-1.685 3.31-1.984.303-.398 2.81-1.785 5.517-3.272 2.808-1.486 7.02-3.964 9.528-5.552s5.217-3.273 6.019-3.67c1.504-.692 9.627-5.25 26.878-15.263 8.224-4.859 10.631-6.247 18.654-10.706 1.806-1.091 6.42-3.768 10.13-5.949 3.712-2.281 6.921-4.065 7.221-4.063.3.001 1.704-.892 3.21-1.884 1.505-1.093 5.417-3.373 8.626-5.157 3.309-1.783 8.022-4.459 10.43-6.047 5.117-3.174 6.618-3.366 8.707-1.356m3.768 6.32c.194 1 .568 6.302.74 11.803l.25 9.902-5.519 3.672c-3.01 2.085-13.442 8.232-23.07 13.783-9.629 5.651-19.96 11.7-22.769 13.485-2.91 1.885-5.517 3.372-5.817 3.37-.2 0-9.828 5.551-21.262 12.293-35.005 20.523-40.52 23.695-40.819 23.294-.597-.603-.865-6.905-.616-16.503.14-7.8.447-9.298 1.949-9.69 1.703-.592 7.32-3.764 8.224-4.66.503-.597 15.047-9.223 21.866-12.989 3.21-1.883 7.522-4.362 13.539-7.731 1.705-.992 8.525-4.957 15.045-8.924 6.52-3.867 11.936-7.04 12.136-7.039s3.41-1.783 7.02-3.964c3.611-2.182 6.72-3.966 7.02-3.965.2.001 7.02-3.964 15.246-8.923 8.224-4.858 15.245-8.923 15.645-8.92.4.001.896.804 1.192 1.705m-123.029 64.577c1.991 1.71 2.087 2.611 1.926 14.71-.266 12.9-.266 12.9-2.967 13.186-2.802.285-2.802.285-2.726-14.714.042-8.3.377-15.099.877-15.096.4.102 1.695.908 2.89 1.914M187.263 674.525c-2.11 2.09-1.623 4.592 1.27 5.907 2.894 1.314 3.075 5.015.18 4.2-1.1-.305-2-.11-2.002.29-.007 1.3 2.39 1.813 4.295.822 2.307-1.188 2.446-8.987.157-11.2-1.89-2.009-1.89-2.009-3.9-.019m3.482 3.518c-.01 2-1.513 2.592-2.504.887-.892-1.504.322-4.298 1.518-3.492.498.302.992 1.505.986 2.605M195.862 674.869c-.605.997-.712 2.196-.314 2.598.399.302.689 2.304.679 4.304-.017 3.3.28 3.701 2.48 3.712 2.3.012 2.503-.387 2.626-4.987.114-2.799-.271-5.6-.868-6.304-1.39-1.807-3.492-1.518-4.603.677m3.891 1.62c-.004.8-.707 1.496-1.507 1.492-1.6-.008-1.994-1.21-.788-2.304 1.106-1.195 2.304-.789 2.295.811m.97 6.004c-.004.8-.908 1.496-2.008 1.49-2-.01-2.594-1.113-1.288-2.306 1.207-1.294 3.304-.684 3.296.816M214.966 673.965c-.802.396-1.21 1.894-1.016 3.195.191 1.801.789 2.304 2.59 2.113 1.801-.29 2.199.212 2.188 2.212-.014 2.8-.916 3.295-2.807 1.385-.895-.904-1.196-.706-1.205.994-.008 1.7.59 2.203 2.49 2.213 4.3.022 4.838-7.576.543-8.697-2.297-.612-2.688-2.314-.488-2.303.8.004 1.502-.492 1.505-.992.006-1.2-1.994-1.31-3.8-.12M254.266 674.164c-.303.499-.106 1.2.492 1.603.498.302.99 1.805.983 3.305s.483 3.402.979 4.205c.694 1.103 1-.195 1.022-4.295.021-4.3-.372-5.702-1.372-5.707-.8-.004-1.702.391-2.104.89M177.16 675.274c-1.013 2.495-.027 5.1 2.368 6.112 2.694 1.214 2.285 3.112-.714 2.797-2.398-.313-2.906 1.185-.61 2.097 3.792 1.419 5.406-1.273 4.54-7.878-.384-3.202-.98-4.105-2.779-4.314-1.299-.206-2.401.288-2.806 1.186m3.589 2.118c-.007 1.4-.413 2.498-.913 2.496-1.2-.006-1.89-2.11-1.28-3.807.81-2.096 2.206-1.289 2.193 1.311M224.735 680.115c-.002.5 1.095 1.005 2.495 1.013 1.4.007 2.503-.488 2.505-.988.003-.6-1.095-1.005-2.495-1.012s-2.502.387-2.505.987M670.206 687.07c-3.3.083-19.702.3-36.502.315l-30.501.146-.363 12.298-.361 12.198 44.3.024 44.301-.075.353-10.499c.476-14.997.774-14.496-7.926-14.64-4-.02-10 .05-13.301.233m18.435 12.893-.053 10.4-40.9-.107-40.8-.206-.676-4.604c-.769-6.104-.725-14.904.18-15.7.302-.398 19.003-.603 41.503-.49l40.799.207z"/><path d="M645.985 691.047c-3.21 1.984-2.251 10.189 1.149 10.206 1.7.009 1.987 2.61.482 3.503-.501.297-1 .095-.998-.405.003-.6-.394-1.102-.994-1.105-1.4-.008-1.213 2.593.28 3.801.797.704 1.697.709 3.001-.185 2.51-1.887 2.464-12.587-.024-14.9-.896-.905-2.294-1.312-2.896-.915m2.674 5.314c-.02 3.8-2.418 3.488-2.798-.414-.19-1.901.113-2.7 1.213-2.694 1.1.005 1.595 1.008 1.585 3.108M655.782 691.697c-2.012 2.39-.94 7.895 1.654 9.108 2.295 1.012 2.885 2.915 1.28 4.007-.502.297-1.2.094-1.597-.508s-1.096-.806-1.598-.408c-1.304.693.782 3.404 2.682 3.413 3.4.017 4.754-10.676 1.875-14.79-1.787-2.61-2.686-2.714-4.296-.822m3.675 5.018c.29 2.002-.014 2.7-1.012 2.395-.699-.303-1.392-1.707-1.584-3.208-.29-2.001.014-2.7 1.012-2.395.699.304 1.392 1.707 1.584 3.208M668.285 691.26c-.504.798-1.024 4.695-1.045 8.795-.13 5.9.163 7.3 1.363 7.307 1.3.006 1.507-1.292 1.237-7.294-.35-10.002-.447-10.502-1.555-8.808M612.381 691.777c-.401.298-.712 2.397-.722 4.497-.018 3.4.28 3.801 2.48 3.812 2.5.013 3.094 1.316 1.878 4.41-.507 1.297-.907 1.395-2.003.49-1.891-1.61-2.998-.316-1.408 1.592 1.889 2.31 3.591 1.819 5.007-1.374 1.419-3.593.635-6.797-2.061-7.61-2.496-.813-2.482-3.513.118-3.5 1.1.005 2.003-.69 2.007-1.49.008-1.5-3.99-2.12-5.296-.827M622.661 695.73c-.02 4.1.178 4.5 1.98 3.91 1.703-.492 2.002-.19 1.989 2.41-.018 3.4-1.525 4.892-2.413 2.387-.494-1.202-.892-1.404-1.797-.509-1.91 1.89 1.675 5.009 3.982 3.62 2.608-1.687 2.84-7.985.348-9.598-2.692-1.614-2.682-3.414-.079-4.1 3.104-.785 2.414-2.688-.986-2.706-2.9-.014-3.001.185-3.024 4.585M632.843 699.38c.493 1.503 6.291 1.733 6.299.333.003-.6-1.495-1.108-3.394-1.318-2.398-.312-3.2-.016-2.905.986M324.191 689.118c3.187 2.617 4.484 3.123 4.492 1.623.004-.9-5.48-4.128-6.88-4.135-.3-.001.795 1.104 2.388 2.512M332.668 693.761c-.005.9 5.875 4.93 7.275 4.937 1.8.01.308-1.698-3.281-3.716-2.194-1.211-3.992-1.72-3.994-1.22M342.635 700.212c-.005 1 8.172 5.641 9.173 5.346.601-.197-.892-1.604-3.484-3.117-4.486-2.723-5.684-3.129-5.689-2.23M355.198 707.576c-.605.997 8.266 6.742 9.07 5.846.402-.298.404-.698.205-.9-4.584-3.223-8.872-5.544-9.275-4.946M368.556 715.843c-.005 1.1 5.375 5.028 6.875 5.035 2.2.011 1.008-1.595-2.881-3.714-2.194-1.212-3.991-1.82-3.994-1.32M275.926 721.675c-.204.699-.332 6.198-.263 12.298l.245 10.902 45.5.23 45.5.23.06-12 .06-12-45.297-.529c-36.799-.386-45.3-.229-45.805.869m87.685 3.143c-.006 1.1.073 5.4.052 9.5s-.14 7.9-.143 8.5c-.103.6-15.005.924-42.605.785l-42.5-.216.054-10.5.053-10.5 42.5.216c41.799.211 42.499.215 42.589 2.215"/><path d="M351.313 724.356c-.2.1-.22 3.9-.042 8.3.36 8.102.36 8.102 3.159 8.116 1.5.008 3.003-.585 3.307-1.283.608-1.597.161-12.2-.632-13.503-.496-.903-5.189-2.227-5.792-1.63m5.178 4.426c-.006 1.1-.71 1.997-1.51 1.993s-1.496-.908-1.49-2.008c.005-1.1.71-1.996 1.51-1.992s1.495.907 1.49 2.007m-.038 7.5c-.008 1.6-.613 2.497-1.513 2.493s-1.495-.908-1.487-2.508.612-2.497 1.512-2.492 1.496.907 1.488 2.507M285.5 726.923c-1.115 2.894-1.34 7.793-.457 11.198.981 3.605 5.084 3.126 5.903-.57.717-3.397-.865-7.105-2.964-7.115-.8-.004-1.496-.908-1.49-2.008.011-2.3 1.013-2.595 2.904-.785.994 1.105 1.195.906.903-.696-.484-3.102-3.584-3.118-4.8-.024m3.956 8.52q-.015 3-1.515 2.993t-1.485-3.008 1.515-2.992 1.485 3.007M296.9 726.68c-2.336 7.19-.87 14.097 2.832 13.615 1.901-.29 2.204-.889 2.221-4.289.017-3.2-.478-4.202-2.174-5.01-2.595-1.114-2.693-1.414-1.282-3.507.906-1.296 1.106-1.295 1.9.01.595.803 1.294 1.106 1.696.708.905-.895-1.481-3.707-3.181-3.716-.7-.004-1.605.992-2.011 2.19m3.556 8.819c-.016 3.1-1.62 4.092-2.608 1.487-.79-1.904.223-4.5 1.623-4.492.5.002.994 1.305.985 3.005M319.005 725.793c-.916 3.195-1.258 11.493-.465 12.997 1.288 2.307 5.588 2.329 6.2.032.712-2.497.258-11.499-.635-13.004-.892-1.604-4.592-1.623-5.1-.025m3.984 3.32c-.005 1-.61 1.997-1.211 2.194-.802.296-1.298-.507-1.29-2.207.01-1.7.513-2.497 1.312-2.293.599.303 1.194 1.306 1.189 2.306m.263 7.301c.193 1.401-.211 2.2-1.211 2.194-1.9-.01-2.892-1.714-2.182-3.61.811-2.197 3.006-1.186 3.393 1.416M329.699 727.147c-1.516 3.192.262 7.501 2.962 7.515 1 .005 1.797.609 1.793 1.309-.01 2.1-1.214 2.794-2.608 1.587-.796-.704-1.396-.707-1.9.09-.908 1.496.284 3.002 2.484 3.013 2.5.012 4.015-2.88 4.04-7.98.012-2.3-.474-5.002-.968-6.105-1.487-2.707-4.488-2.423-5.803.57m4.787 2.524q-.015 3-1.515 2.992-1.5-.007-1.485-3.007t1.515-2.992q1.5.007 1.485 3.007M341.705 725.908c-1.809 1.79-1.662 12.291.23 13.8 2.39 2.013 4.298.423 5.021-4.174 1.039-7.595-1.834-13.01-5.25-9.626m3.188 2.416c1.382 3.507.347 10.402-1.553 10.392-.5-.003-.886-2.705-.87-6.004.03-5.7 1.14-7.795 2.423-4.388M309.172 732.343c-1.5.192-2.504.787-2.206 1.289.793 1.204 6.193 1.231 6.9.035.806-1.196-1.192-1.706-4.694-1.324M381.013 724.506c3.287 2.517 5.481 3.628 5.486 2.628.007-1.2-4.478-4.222-6.178-4.231-.8.096-.504.697.692 1.603M551.984 730.572c-6.921 4.265-8.531 6.157-8.552 10.257s.682 3.503-15.565 12.821c-20.76 11.895-27.982 16.059-32.596 18.835-6.118 3.57-39.616 22.9-50.647 29.044-16.147 9.119-13.943 8.33-18.032 6.31-3.292-1.617-3.792-1.62-6.8-.135-5.514 2.772-8.728 5.456-8.736 7.156-.004.8-.813 2.496-1.918 3.59-2.213 2.489-3.537 7.182-2.141 8.09.498.302.987 2.504.976 4.704-.012 2.3.675 4.904 1.47 5.808 1.393 1.507 1.391 1.807-.015 3-1.707 1.391-2.143 8.49-.548 9.497.599.303.99 1.905.983 3.405-.01 2 .684 3.104 2.58 4.013 2.295 1.012 3.196.816 7.207-1.363 4.512-2.477 4.713-2.576 7.804-.86 1.795 1.008 3.487 2.617 3.682 3.518.295 1.001 1.788 2.409 3.384 3.317 2.992 1.515 3.192 1.416 15.428-5.522a2430 2430 0 0 1 16.948-9.514c2.507-1.388 9.227-5.254 15.044-8.624s14.844-8.625 20.059-11.599c5.215-2.973 14.743-8.525 21.062-12.193 12.036-7.04 12.337-7.238 26.077-15.069a503 503 0 0 0 10.832-6.345c2.106-1.29 2.21-1.889 2.282-16.189.055-10.9.375-14.898 1.377-15.193.601-.297 11.503-.542 24.003-.578l22.801-.185-.218 3.5c-.439 7.697-3.435 6.982 30.365 7.053 16.6-.016 36.402-.216 44.104-.577l13.802-.53-.039-12c-.066-6.6-.339-12.102-.537-12.403-.597-.603-64-.324-77.003.41l-11.003.544-.03 5.9-.03 5.8-23.701.38-23.803.48.046-9.1c.025-5-.353-9.402-.951-9.705-.498-.303-.987-2.605-.975-4.905.017-3.4-.476-4.703-2.17-5.811-2.094-1.41-2.694-1.314-6.306.968m2.786 2.714c-2.209 1.789-3.015 3.085-2.622 4.487.688 2.403-.513 2.497-3.501.182-2.192-1.711-2.192-1.711 2.023-4.49 5.417-3.372 8.518-3.557 4.1-.179m3.687 2.619c-.002.5-.704.896-1.504.892-1.5-.007-1.994-1.21-.889-2.304.804-.796 2.4.112 2.393 1.412m-10.024 4.75c-.002.5-.705 1.096-1.507 1.491-.902.296-1.5-.007-1.496-.907.004-.8.708-1.497 1.508-1.492.8.004 1.498.407 1.495.907m12.09 2.16c.392 1.402.636 12.504.674 24.704-.026 25 .786 22.604-10.043 28.35-2.507 1.387-5.616 3.171-7.02 3.964-4.314 2.678-30.392 17.946-35.105 20.523-2.507 1.387-6.218 3.568-8.224 4.858-2.107 1.19-4.012 2.28-4.412 2.278-.3-.002-1.805.89-3.41 1.983-2.81 1.985-23.07 13.683-33.097 19.132-3.008 1.585-5.917 3.27-6.52 3.667-.501.398-2.708 1.687-4.714 2.877-2.106 1.189-5.415 2.972-7.32 4.063-2.708 1.486-4.109 1.679-6.005.97-1.398-.508-2.492-1.613-2.489-2.313.004-.8-1.886-2.71-4.078-4.221-4.187-2.721-4.187-2.721-8.097-.641-4.713 2.476-4.813 2.476-4.803.576.004-.8-.89-1.905-1.987-2.51-3.092-1.616-2.57-6.014 1.046-9.195 1.707-1.392 3.018-3.585 3.024-4.685.011-2.3-1.886-2.81-3.796-.92-.904.896-1.2.195-1.182-3.405.013-2.6-.375-5.002-.974-5.305-1.794-1.11-1.079-4.106 1.533-6.493 1.407-1.293 2.515-2.887 2.519-3.587.006-1.2 4.222-4.379 5.722-4.371.4.002.87 6.004.832 13.304.187 22.502.28 23.802 1.283 23.207.602-.397.733-6.496.383-16.398-.256-8.702-.216-16.602.089-17.5.607-1.497.907-1.495 3.6-.182 3.192 1.716 4.094 1.321 4.11-1.979.009-1.6 1.417-3.193 4.428-5.378 2.508-1.587 4.715-2.976 5.015-2.974s6.819-3.666 14.34-8.028c20.662-12.095 24.473-14.276 29.387-16.951 9.326-5.153 22.465-12.887 25.175-14.773 1.505-.992 3.01-1.885 3.31-1.883.3.001 5.013-2.575 10.329-5.748 8.726-5.156 13.039-7.634 24.773-14.375 1.705-1.091 3.512-2.282 4.114-2.78.503-.597 2.305-.887 4.004-.679 2.099.21 3.094 1.016 3.585 2.818m135.72 15.887c-.049 9.8-.049 9.8-3.749 9.782-2-.01-20.901.194-41.903.488l-38.302.406.053-10.6.053-10.5 14.302-.328c7.801-.16 26.102-.368 40.603-.394 14.6-.126 26.702-.365 27.003-.564 1.307-1.393 1.985 2.91 1.94 11.71m-269.662 51.136c1.896.91 3.489 2.318 3.485 3.018-.008 1.7-.608 1.597-4.098-.42-2.692-1.614-3.092-1.617-6.4-.033-4.11 1.979-4.51 1.977-4.503.677.003-.7 6.123-4.57 7.725-4.961.1 0 1.796.81 3.791 1.72m-12.835 6.935c-.401.298-.7-.003-.696-.703.003-.7.305-.999.703-.697a1.2 1.2 0 0 1-.007 1.4m-1.717 3.292c-.002.5-.405.998-1.005.995-.5-.003-.997-.505-.995-1.005.004-.6.506-.998 1.006-.995.6.003.997.405.994 1.005m1.828 34.01c-.002.5-.405.997-1.005.994-.5-.002-.997-.505-.995-1.005.003-.6.505-.997 1.005-.995.6.003.998.405.995 1.005"/><path d="M553.923 742.682c-5.415 2.973-12.837 7.335-22.568 13.386-5.216 3.173-11.535 6.942-14.042 8.229-2.507 1.387-6.118 3.469-8.024 4.76-3.41 2.082-18.255 10.807-24.774 14.474-5.816 3.27-9.627 5.451-18.554 10.706-4.914 2.776-12.737 7.336-17.552 10.112-9.427 5.352-11.434 6.842-9.534 6.851.6.004 5.713-2.67 11.23-5.943s10.43-5.947 10.93-5.945c.5.003 1.102-.394 1.304-.793.203-.499 2.811-2.186 5.82-3.87 7.621-4.162 36.806-20.814 42.122-24.088.803-.496 5.517-3.272 10.532-6.146 14.843-8.525 35.005-20.723 36.01-21.718 1.808-1.691.108-1.7-2.9-.015M542.704 766.225c-1.604.692-6.618 3.467-11.233 6.344-4.614 2.776-8.525 5.057-8.825 5.055-.2-.001-2.306 1.188-4.514 2.677-5.418 3.573-6.934 6.765-6.977 15.165-.04 7.9.55 10.103 2.65 10.114 1.399.007 7.214-2.864 12.33-6.038 1.404-.893 6.219-3.769 10.832-6.345 4.614-2.677 9.03-5.755 9.835-6.85 1.007-1.396 1.425-4.893 1.457-11.193.05-10.1-.544-11.103-5.555-8.929m3.554 9.019c-.02 4.1-.542 8.397-1.15 9.694-.606 1.297-3.618 3.782-6.727 5.466-20.058 11.398-23.367 13.182-24.267 13.177-.6-.003-.982-3.505-.957-8.405.038-7.5.243-8.599 2.454-10.787 1.407-1.293 3.715-2.982 5.22-3.774 1.604-.792 7.521-4.262 13.338-7.633 5.817-3.37 10.83-5.945 11.329-5.642.398.302.78 3.804.76 7.904"/><path d="M540.277 771.413c-4.107 1.48-22.465 12.787-23.574 14.581-2.318 3.588-2.462 12.288-.167 13.2.699.303 3.805-.881 6.714-2.667 3.01-1.784 8.324-4.758 11.934-6.64 8.522-4.456 9.127-5.353 8.863-12.555-.27-5.901-.865-6.904-3.77-5.919m.836 12.705c-.904.795-1.002.495-.493-1.403.307-1.398.722-4.296.833-6.496.117-3.3.215-2.999.493 1.403.283 3.301-.03 5.8-.833 6.496m-2.285-3.012c-.305 1.098-2.516 3.187-4.822 4.476-2.407 1.287-7.12 3.864-10.53 5.746l-6.317 3.368.018-3.5c.022-4.4 1.127-5.394 12.861-12.035 8.625-4.956 8.725-4.955 9.014-2.654.192 1.401.082 3.4-.224 4.599m-8.646 9.056c0 .2-1.004.895-2.207 1.49-2.206 1.088-2.205.988-.398-.403 2.108-1.69 2.61-1.887 2.605-1.087m-5.015 2.975c-.001.3-.202.499-.502.497-.3-.001-.5-.202-.498-.502s.203-.499.503-.498.499.203.497.503m-3.01 1.985c-.001.3-.202.499-.502.497-.3-.001-.5-.202-.498-.502s.203-.5.503-.498.499.203.497.503m-2.306 1.188a1.2 1.2 0 0 1-1.4-.007c-.298-.401.004-.7.704-.696.7.003.998.305.696.703M483.357 795.125c-2.007 1.39-2.507 1.388-3.201.184-.794-1.204-1.395-1.107-4.203.479-6.92 3.865-9.83 6.05-9.838 7.55-.004.8-1.713 2.592-3.62 3.782-3.711 2.381-3.711 2.381-2.98 15.985.361 7.602.83 13.904 1.028 14.205.299.202 1.5-.192 2.705-.986 1.204-.794 6.921-4.165 12.739-7.635 5.817-3.471 11.035-7.045 11.74-7.841.805-1.096 1.124-4.895.856-11.196-.073-5.4-.243-11.201-.334-13.002-.082-3.6-1.38-4.007-4.892-1.525m3.435 12.818c-.03 5.8-.453 10.498-.953 10.495-.4-.002-.775-5.004-.744-11.104.03-6 .454-10.797.953-10.495s.773 5.304.744 11.104m-5.652-9.529c2.005-1.09 2.105-.99 1.752 9.51l-.354 10.698-9.83 5.95c-5.417 3.273-10.03 5.75-10.329 5.548-.198-.301-.683-3.404-.965-6.905s-.662-7.404-.956-8.705c-.291-1.702.516-3.198 3.63-5.882 2.21-1.989 4.021-4.18 4.025-4.88.01-2 8.233-6.458 9.626-5.251.897.705 1.897.71 3.4-.083m3.786 22.52c-1.407 1.293-13.143 8.433-13.943 8.43-.6-.004-1.002.394-1.004.794-.003.7-6.321 4.168-7.521 4.162-1.5-.007-.189-2.2 1.815-2.99 1.203-.495 5.816-3.171 10.23-5.849 4.414-2.778 8.625-4.956 9.426-5.052.8.004 1.198.206.997.505M435.944 837.086c-.066 12.9.292 21.202.89 21.605.698.403 1.035-6.795 1.106-20.895.07-13.7-.29-21.602-.89-21.605s-1.04 7.595-1.106 20.895M415.616 822.683c-1.925 4.89.242 11.601 3.053 9.315 1.607-1.391 1.723-4.49.127-5.299-.998-.505-.996-.705.006-1.2.602-.297 1.207-1.394 1.213-2.494.011-2.3-3.487-2.618-4.399-.322M417.117 842.29c-.704.697-1.215 2.895-1.225 4.995-.017 3.3.28 3.801 2.38 3.812 2.5.012 4.415-2.878 2.62-3.987-.598-.303-.89-1.705-.784-3.004.313-2.599-1.182-3.606-2.991-1.815M620.687 749.92c-2.001.29-2.305.988-2.324 4.788-.02 3.9.178 4.401 2.28 4.112 1.8-.191 2.198.21 1.888 2.21-.316 3.198-1.12 3.894-2.21 2.088-1.092-1.805-2.498-.612-1.708 1.492.987 2.505 4.59 1.823 5.806-1.171 1.216-3.194-.163-7.3-2.563-7.313-.8-.004-1.496-.908-1.49-2.008.006-1.3.71-1.996 2.01-1.99 1.1.006 2.002-.39 2.005-.89.007-1.4-1.091-1.805-3.694-1.318M630.088 749.767c-.402.398-.713 2.497-.723 4.597-.016 3.1.28 3.801 1.98 3.81 1.6.008 1.997.71 1.985 3.01-.015 3-1.32 3.993-2.51 1.987-.397-.602-1.096-.805-1.598-.408-1.404.793.883 3.405 3.083 3.416 2.1.01 4.323-4.478 3.436-7.183-.295-1.001-1.688-2.308-2.985-2.815-2.994-1.215-3.081-3.816-.08-4.2 1.202-.194 2.205-.79 2.207-1.29.006-1.2-3.79-1.918-4.795-.924M651.481 751.176c-1.412 2.493-1.42 4.093-.12 4.1.6.002 1.004-.896 1.01-1.996.005-1.1.51-1.997 1.01-1.995 1.5.008 1.172 5.406-.544 8.598-2.423 4.588-2.032 6.39 1.468 6.407 2.6.013 3.002-.385 3.014-2.784.01-1.9-.288-2.302-.894-1.305-1.814 2.79-3.103.684-1.487-2.408 1.919-3.79 1.55-9.892-.748-10.304-.9-.204-2.103.59-2.709 1.687M663.088 749.935c-.402.397-.707 1.396-.712 2.196-.006 1.2.294 1.201 1.5.208 1.305-1.094 1.503-.793 1.492 1.407-.007 1.4-.413 2.598-1.013 2.595a1 1 0 0 0-1.005.995c-.002.5.695 1.003 1.495 1.008.9.004 1.496.907 1.488 2.407-.016 3.2-1.621 4.192-2.91 1.885-.495-1.002-1.192-1.506-1.594-1.108-.905.896 1.276 4.807 2.676 4.814 2.6.013 5.032-6.475 3.142-8.384-.498-.403-.788-2.404-.778-4.404.018-3.5-1.972-5.41-3.781-3.62M673.584 750.588c-1.809 1.79-1.666 13.191.226 14.801 2.29 1.912 4.301-.278 5.127-5.474.933-6.495-2.337-12.312-5.353-9.327m2.763 7.314c-.018 3.7-.432 6.498-1.032 6.495s-.986-2.805-.968-6.505c.02-3.7.433-6.498 1.033-6.495s.986 2.805.967 6.505M639.845 758.217c-.403.598.795 1.004 2.895 1.015 2 .01 3.603-.482 3.605-.982.003-.6-1.295-1.007-2.895-1.015-1.7-.008-3.302.384-3.605.982M327.3 766.335c-2.905 1.085-5.018 3.575-5.635 6.872-.617 3.397-.617 3.397-14.017 3.329-8.3-.042-13.401.332-13.404.932s5.494 1.028 14.494 1.073c9.8.05 15.198.477 16.494 1.284 1.595 1.008 2.395 1.012 4 .02 1.805-1.09 2.604-.887 5.793 1.33 3.588 2.518 9.183 3.446 9.193 1.546.012-2.5-2.47-5.913-6.06-8.13-2.193-1.312-3.685-2.92-3.482-3.518 1.014-2.695-4.07-5.921-7.376-4.738m5.984 3.33c-.003.5-.906.996-2.006.99-2.8-.014-4.822 4.376-3.032 6.485.993 1.305.892 1.505-.908 1.496-2.8-.015-2.78-3.815.038-7.4 2.012-2.49 5.918-3.57 5.908-1.57m-8.313 2.358c-.707 1.397-1.311 2.294-1.51 2.093-.697-.604.923-4.496 1.823-4.491.4.002.294 1.102-.313 2.398m5.384 3.328c-.808 1.496-1.008 1.495-1.101.194.008-1.7 1.016-3.195 1.812-2.49.199.3-.106 1.299-.711 2.296m3.3-.184c-.403.798-1.007 1.495-1.507 1.493-.4-.002-.596-.703-.292-1.502.404-.798 1.007-1.495 1.507-1.492.4.002.597.703.293 1.501m3.594 1.419c-.007 1.2-2.013 2.49-2.71 1.786-.696-.704.614-2.697 1.814-2.69.5.002.898.404.896.904m1.984 3.11c-.003.5-.505.997-1.105.994-.5-.002-.698-.503-.395-1.002.303-.598.805-.996 1.105-.994.2 0 .398.402.395 1.002m2.99 2.015c-.003.5-.205.999-.405.998-.3-.002-.798-.504-1.095-1.006-.297-.601-.095-1 .405-.998.6.003 1.098.406 1.095 1.006M226.873 771.427c-2.409 1.788-1.953 10.49.639 12.103 1.495.908 2.096.71 3.305-.883 1.913-2.59 1.424-4.793-1.37-6.007-1.198-.506-2.192-1.511-2.189-2.211.01-1.8 2.114-2.69 3.007-1.285.496.803.995.905 1.399.207 1.109-1.794-2.884-3.314-4.79-1.924m3.356 8.817c-.01 2-1.513 2.592-2.505.887-.892-1.504.322-4.298 1.518-3.492.498.303.992 1.505.987 2.605M255.473 771.472c-1.91 1.89-1.546 9.192.644 11.203 1.692 1.609 1.992 1.61 3.5.118 2.914-2.885 1.562-12.492-1.638-12.509-.7-.003-1.802.491-2.506 1.188m3.875 5.12c.482 3.402-.43 5.697-2.33 5.688-.4-.002-.788-2.304-.773-5.104.03-6 2.132-6.39 3.103-.585M284.37 772.218c-1.11 1.994-.35 9.998.945 10.805.499.302 1.8.209 2.9-.085 1.603-.492 2.008-1.49 2.026-4.99.012-2.4-.275-5.002-.57-5.903-.789-2.204-4.09-2.02-5.301.173m3.873 5.32c-.024 4.8-1.233 6.493-2.417 3.287-.789-2.104-.76-7.904.044-8.7 1.508-1.392 2.397.713 2.373 5.413M197.465 772.978c-1.613 2.592-.03 6 2.77 6.014 2.3.012 2.593 1.313.685 2.904-1.004.795-1.704.691-2.599-.213-1.095-1.006-1.295-.907-.902.295.69 2.204 3.988 2.52 5.498.428 2.719-3.586.858-11.396-2.742-11.414-.8-.004-2.004.89-2.71 1.986m3.984 3.22c-.804.796-1.505.893-2.201.19-.597-.604-.79-1.905-.386-2.803.608-1.597.808-1.596 2.201-.189 1.294 1.207 1.39 1.807.386 2.802M207.267 772.528c-1.006 1.195-1.01 2.095-.22 3.999.693 1.403 1.588 2.508 2.188 2.51.6.004.603-.696-.09-1.9-1.29-2.006-.473-5.602 1.022-4.595.998.505 1.258 8.307.35 9.802-.301.399-1.1.295-1.897-.41-1.594-1.307-2.997-.614-1.905.991.991 1.705 5.193 1.326 5.902-.47.912-2.395.737-7.296-.352-9.502-1.288-2.307-3.287-2.517-4.998-.425M216.971 771.777c-.202.399-.514 2.897-.527 5.497-.026 5 1.463 7.208 4.068 6.22 1.302-.393 1.61-1.891 1.431-6.192-.174-5-.47-5.702-2.37-6.012-1.098-.206-2.3-.012-2.602.487m3.289 2.316c-.011 2.1-1.514 2.693-2.505.988-.694-1.204.215-3 1.615-2.992.5.002.895.905.89 2.004m-.03 6c-.006 1.1-.41 1.998-1.01 1.995-.5-.002-.996-.905-.99-2.005.005-1.1.51-1.997 1.01-1.995.6.003.995.905.99 2.005M236.854 775.177c-2.126 5.19-2.03 5.99.27 6.002 1.1.006 2.197.611 2.394 1.212 1.086 2.706 2.306-1.188 1.73-5.891-.67-6.004-2.267-6.512-4.394-1.323m2.388 2.513c-.008 1.6-.613 2.497-1.513 2.492-1.8-.01-1.898-.41-.285-3.001 1.613-2.592 1.813-2.491 1.798.509M266.354 775.327c-2.422 4.288-2.13 5.99.97 6.005 1 .005 1.897.51 1.894 1.21s.295.8.899.204c1.005-.995.257-11.399-.743-11.404-.4-.002-1.709 1.791-3.02 3.985m2.884 3.214c-.003.5-.704.797-1.504.793-1.7-.009-1.8-.21-.888-2.505.507-1.297.807-1.396 1.502-.292.496.702.892 1.604.89 2.004M275.669 772.474c-.404.698-.208 1.499.391 1.702.699.203 1.19 2.106 1.179 4.206s.478 4.202 1.077 4.505c.697.504.906-1.195.726-5.096-.272-5.601-1.76-7.909-3.373-5.317M247.04 777.93c.6.202 1.8.208 2.5.012.602-.297.103-.5-1.297-.507s-1.9.19-1.202.494M346.209 784.431c-.003.5 1.89 1.91 4.283 3.322 5.483 3.328 5.683 3.329 5.689 2.229.003-.5-1.591-1.708-3.487-2.618-1.895-.91-3.69-2.119-3.987-2.62-.694-1.204-2.493-1.313-2.498-.313M360.367 792.803c.492 1.502 8.768 6.344 9.571 5.648.704-.696.803-.596-5.18-4.026-2.691-1.614-4.688-2.324-4.391-1.622M374.123 801.573c-.003.5 1.89 1.91 4.283 3.321 5.583 3.329 5.683 3.33 5.69 2.13.003-.7-.794-1.405-1.692-1.81-.998-.304-2.992-1.515-4.487-2.522-2.79-1.914-3.789-2.22-3.794-1.12M386.087 808.633c.094 1.1 8.967 6.446 8.973 5.446.004-.9-7.07-6.136-8.27-6.142a.684.684 0 0 0-.703.696M401.037 818.51c3.487 2.517 4.984 3.124 4.992 1.724.004-.9-5.68-4.228-7.28-4.237-.6-.003.395 1.102 2.288 2.512"/></svg>