<svg xmlns="http://www.w3.org/2000/svg" viewBox="0 0 868.444 1217.159" fill="currentColor"><path d="M231.346 28.632c-.002.5 1.093 1.904 2.488 3.209 2.89 2.71 3.193 2.112.906-1.497-1.591-2.406-3.388-3.312-3.394-1.712M210.318 36.255c5.089 3.018 40.925 20.65 41.925 20.654.5.001.996.903.992 2.003s.593 2.002 1.393 2.005c1.8.007 3.98 5.315 3.172 7.712-.607 1.698-10.326 7.062-25.15 13.708-3.306 1.488-8.715 3.968-12.02 5.456-3.306 1.488-8.714 3.668-12.019 4.856-3.304 1.288-6.91 2.675-8.011 3.17a654 654 0 0 1-17.021 5.738c-21.226 6.822-28.231 8.397-53.244 11.905-14.808 2.046-25.404.907-42.984-4.657-1.298-.405-2.299-.309-2.3.091-.004 1 10.483 4.539 18.876 6.57 3.497.712 9.096 1.033 15.698.657 10.202-.563 10.202-.563 14.989 2.955 2.693 1.91 11.072 7.54 18.654 12.568 22.645 14.983 43.089 30.358 47.37 35.674 3.285 3.912 4.77 8.218 3.465 9.413-.402.498-7.204.974-15.004 1.145-13.302.351-14.402.547-16.81 2.738-4.917 4.582-2.651 13.89 4.729 19.418 2.493 1.809 4.492 2.116 16.49 2.46 15.1.456 28.606-1.495 34.118-4.775 5.312-3.18 7.328-7.473 6.853-14.475l-.477-6.201 7.71-2.472c4.204-1.385 8.41-2.77 9.311-3.166 1.402-.495 1.8.206 2.385 4.109.876 6.503-1.072 19.496-3.277 21.088-3.209 2.288-30.336 9.689-40.942 11.15-17.208 2.337-31.402.485-49.976-6.483-6.591-2.425-13.982-5.052-16.479-5.86-5.394-1.62-8.986-3.734-8.98-5.334.009-2.5-8.931-18.833-14.305-25.952-11.842-15.844-25.506-25.794-42.087-30.855-4.296-1.316-11.9-.243-16.909 2.238-2.404 1.191-6.72 5.476-9.033 9.067-1.005 1.396-2.71 2.59-3.81 2.586-2-.007-2-.007-.105 1.4 1.995 1.507 4.398.516 4.407-1.884.006-1.7 7.635-9.372 10.338-10.362 7.31-2.773 16.908-1.938 25.192 2.292 10.58 5.339 23.042 15.885 29.908 25.31 1.691 2.206 3.184 4.212 3.483 4.513 1.296 1.204 6.66 10.824 7.849 14.029.793 1.902 1.785 3.906 2.283 4.508.398.501.794 1.703.79 2.603-.005 1.5-.905 1.397-7.896-1.03-5.992-2.021-8.388-3.33-9.98-5.636-2.685-3.91-13.045-14.748-20.023-20.873-5.681-5.121-15.46-10.657-22.653-12.783-7.192-2.227-14.605 1.246-18.33 8.333-1.914 3.693-2.058 15.692-.18 21.399 1.287 3.905.876 6.903-.716 4.697-1.692-2.306-13.258-11.648-14.159-11.352-.5.199 2.888 3.411 7.573 7.328 9.97 8.137 11.364 9.942 11.349 14.042-.019 5.1 3.64 16.513 8.404 26.23 5.26 10.82 15.32 21.957 24.401 26.89 4.79 2.618 6.39 3.024 12.99 2.948 13-.152 32.831-8.48 37.657-15.662 2.012-3.193 2.612-3.19 11.601-.157 34.158 11.625 51.158 11.687 88.8.225 21.624-6.52 44.663-17.236 73.325-34.131 16.236-9.641 21.259-15.923 25.218-32.008 1.928-7.693 1.041-11.196-4.041-16.115-2.79-2.71-2.888-3.21-2.466-9.21.729-7.897-.846-14.902-5.41-24.52-3.077-6.31-5.666-9.52-16.625-20.56-7.074-7.226-16.044-15.36-19.834-18.073-13.065-9.648-14.362-10.553-22.443-15.582-4.59-2.717-9.28-5.334-10.58-5.64-1.298-.304-3.094-1.41-4.09-2.514-.897-1.004-2.393-1.91-3.193-1.912s-10.185-4.337-20.765-9.576c-10.681-5.24-19.965-9.573-20.665-9.576-.6.098-.103.7 1.294 1.505m52.104 26.29c2.895 1.512 21.549 14.08 22.744 15.284.3.201-.102.7-.703.898-.801.297-1.308 2.195-1.316 4.395-.008 2.1-.515 3.898-1.015 3.896-.6-.002-5.987-3.322-11.973-7.344-10.974-7.14-10.973-7.24-10.461-10.538.408-2.199.115-4.2-.979-5.804-1.79-2.806-.689-3.102 3.703-.786m-1.547 12.895c2.295 1.409 4.289 3.016 4.287 3.516-.005 1.3-29.957 15.59-46.081 22.031-21.131 8.423-41.954 14.647-63.87 19.066l-12.31 2.555-4.888-3.218c-5.188-3.419-5.582-4.92-1.082-4.904 2.6.01 17.81-2.834 27.118-5 10.81-2.66 44.453-14.237 56.072-19.395 7.813-3.571 32.656-15.28 34.059-16.075 2.105-1.292 1.805-1.394 6.695 1.424m13.068 8.748c2.593 1.81 5.286 3.82 5.983 4.522s1.795 1.307 2.295 1.309.896 1.303.89 3.003c-.01 2.6-.412 2.998-2.812 2.99-5.6-.02-6.706 1.875-6.339 10.677.085 4.3.671 7.902 1.17 8.104 1.199.504 1.183 4.904-.12 5.7-.501.298-1.014 3.696-1.027 7.396-.027 7.2 1.264 9.704 4.368 8.516 1.102-.396 1.9.207 2.593 2.01 1.485 4.105 2.99 3.01 3.008-2.29.021-5.6 2.03-8.192 4.824-6.382 3.193 2.012 13.6.25 15.11-2.545 1.51-2.694.432-8.798-1.86-11.107-1.494-1.505-1.99-2.907-1.583-4.505.506-1.899-.29-3.001-4.078-6.115-2.692-2.11-4.886-3.818-4.886-3.918-.1 0-.496-1.102-.891-2.304-.592-2.202-.492-2.301 1.704-1.093 1.198.604 2.494 1.509 2.793 1.81.299.401 4.885 4.018 10.17 8.037 22.538 17.083 23.629 19.687 13.49 30.45-5.12 5.281-8.128 7.37-15.841 10.942-5.21 2.48-10.618 4.761-12.019 5.156s-4.707 1.783-7.51 2.972c-14.425 6.548-51.47 18.512-54.767 17.8-1.498-.406-5.099-.219-8.001.37-8.806 1.668-13.006 1.653-13.8.05-4.365-9.516-5.659-11.321-10.844-15.24-3.092-2.411-5.784-4.521-6.083-4.822-.897-.904-11.468-8.742-16.455-12.16-2.693-1.91-5.187-3.72-5.486-4.02-.299-.302-5.386-3.82-11.271-7.842-5.985-4.022-10.673-7.44-10.472-7.639.1-.2 4.604-.983 9.807-1.864 5.203-.88 10.607-1.96 12.009-2.456 1.402-.495 5.206-1.68 8.51-2.569 7.307-2.073 27.23-8.3 30.034-9.49 1.102-.395 6.31-2.376 11.517-4.457 10.514-3.962 18.628-7.632 36.56-16.266 6.612-3.276 12.621-5.854 13.322-5.952.7.003 3.394 1.413 5.988 3.222m24.785 3.991c17.046 14.963 31.676 34.017 29.758 38.81-.505 1.398-1.003.996-2.493-1.91-1.787-3.506-5.473-7.22-13.45-13.649-10.37-8.338-15.255-12.156-18.148-14.267-3.092-2.111-3.29-2.612-3.27-8.212.012-3.2.422-5.898.822-5.897.4.002 3.492 2.313 6.781 5.125m31.642 43.216c1.085 4.204.547 14.503-.966 18.097-2.925 6.89-13.246 12.552-14.93 8.045-1.09-2.904-.565-9.502 1.046-12.496.806-1.697 3.116-4.389 4.922-6.082 1.906-1.593 4.417-4.484 5.524-6.38 2.514-3.99 3.516-4.287 4.404-1.184m-16.603 28.04c2.19 2.808 6.393 2.023 10.907-1.86 2.307-1.892 4.212-3.185 4.21-2.685-.005 1.3-6.027 7.478-9.135 9.467-5.112 3.281-19.24 10.73-20.14 10.726-.6-.002-.591-2.202-.178-5.8.411-3.1.83-8.198.841-11.198.12-5.4.12-5.4 5.63-8.08l5.51-2.579.48 5.202c.29 2.8 1.079 5.904 1.875 6.807M72.395 151.35c6.793 1.925 7.09 2.926 1.68 5.406-9.716 4.465-17.251 14.037-17.28 22.137-.014 3.5-1.417 4.395-2.507 1.59-1.088-3.103-1.749-13.906-1.032-18.503.818-4.997 3.833-8.986 8.139-10.57 4.005-1.386 6.205-1.378 11-.06m262.194 2.061c4.084 4.615 4.576 6.617 3.252 13.212-1.73 8.094-6.164 17.378-10.48 21.762-4.517 4.583-27.366 18.1-48.204 28.423-19.937 9.927-45.568 18.533-66.983 22.555-11.308 2.059-30.606 1.388-41.595-1.553-13.686-3.75-27.17-8.3-30.662-10.412-2.095-1.308-4.086-3.915-5.375-6.72-3.967-9.014-9.328-19.734-12.508-25.146-1.79-3.006-3.28-5.812-3.278-6.212s3.698.614 8.292 2.33c4.494 1.617 9.587 3.436 11.185 4.042 1.698.506 3.895 1.414 4.994 1.818 1.098.504 3.994 1.615 6.49 2.424 2.498.809 7.691 2.628 11.486 4.142 15.678 5.957 35.37 8.23 48.68 5.678 14.41-2.847 33.729-8.076 41.24-11.249 1.703-.693 4.908-1.882 7.11-2.574 10.012-3.163 54.29-24.5 62.21-29.872 5.514-3.68 10.435-9.662 10.446-12.562s1.11-2.895 3.7-.086m-36.112 3.368c.69 2.502-1.163 17.096-2.166 18.092-.202.3-1.2-.104-2.097-.808-1.296-1.205-1.39-2.705-.764-9.903.628-7.797 1.436-9.994 3.637-10.086.4.001 1.095 1.204 1.39 2.705M86.17 158c2.795 1.41 2.994 1.71 1.192 2.304-1.502.494-.805 1.197 3.787 3.514 9.682 4.735 20.824 20.576 26.064 36.996 3.164 10.011 4.005 26.115 1.776 33.806-.303 1-.106 1.8.394 1.802 2.7.01 3.175-20.589.81-30.097-.887-3.404-2.865-9.511-4.55-13.517-3.369-8.613-3.564-9.813-1.077-6.404 4.676 6.617 19.075 34.27 19.065 36.77-.002.6 1.591 2.506 3.585 4.113 4.188 3.516 3.783 4.714-3.237 10.088-7.42 5.673-19.535 9.729-31.639 10.684-5.001.382-6.5.077-11.99-2.744-13.076-6.647-24.717-22.69-30.248-41.61-2.469-8.41-2.507-25.31.016-31.7 2.02-5.193 7.439-10.474 14.15-13.649 5.11-2.481 7.81-2.571 11.902-.356m205.383 4.952c-.312 3.3-.824 6.497-1.226 7.096-1.207 1.996-33.058 15.779-33.954 14.776-.2-.201-.587-3.603-.973-7.504-.674-7.103-.674-7.103 4.132-8.685 2.603-.89 10.214-3.763 16.824-6.538 16.024-6.542 15.924-6.542 15.197.855m1.256 12.005c.496 1.102.992 2.204.99 2.604-.001.5-12.223 6.455-23.04 11.115-1.903.793-5.71 2.58-8.414 3.87-2.805 1.29-5.81 2.378-6.91 2.374-1.6-.006-1.797-.506-1.187-3.304.814-3.797 1.015-3.996 5.52-5.68 1.903-.693 4.907-1.782 6.51-2.476 1.702-.694 6.41-2.677 10.516-4.362 4.106-1.785 8.614-3.768 10.017-4.563 3.407-1.887 4.706-1.783 5.998.422m-61.914 3.773c1.894 1.507 2.39 2.809 2.277 6.309-.009 2.4-.92 5.596-1.826 6.993-3.821 5.786-16.633 8.939-35.932 8.768-12.5-.046-14.1-.251-16.992-2.262-5.187-3.62-6.678-6.025-6.66-11.025.023-6.2 1.427-7.194 9.626-6.964 6.8.125 42.51-2.544 43.313-3.342 1.003-.996 4-.285 6.194 1.523"/><path d="M135.392 206.881c-1.211 3.096 1.879 5.807 10.566 9.24 4.893 1.917 9.289 3.133 9.79 2.835 1.804-1.093.816-4.297-1.977-6.307-1.595-1.206-3.392-2.113-3.892-2.115-.6-.002-3.396-1.112-6.39-2.523-6.09-2.822-7.39-3.027-8.097-1.13m19.267 8.971c-.004 1.1-2.702.59-9.492-2.035-6.292-2.323-7.489-3.127-7.483-4.827.004-.9 2.501-.191 8.492 2.33 4.693 1.918 8.486 3.932 8.483 4.532M78.59 179.873c-6.412 3.376-8.553 14.769-4.895 26.182 3.46 10.713 8.435 17.631 15.52 21.857 4.79 2.818 7.989 3.03 11.397.742 3.61-2.487 4.816-4.282 6.035-9.478 3.044-12.089-6.679-33.125-17.957-38.966-4.492-2.317-6.492-2.324-10.1-.337m9.892 2.536c11.779 5.743 20.598 27.876 15.755 39.358-3.732 8.787-12.33 8.455-20.897-.776-10.658-11.54-13.17-35.249-4.055-39.615 3.006-1.49 4.505-1.284 9.197 1.033M238.317 36.457c-.006 1.7 3.678 6.014 4.481 5.317.301-.399-.493-2.002-1.887-3.507-1.394-1.605-2.591-2.41-2.594-1.81M245.383 45.883c-.006 1.6 2.182 5.008 3.282 5.012s.605-1.397-1.386-4.005c-1.294-1.604-1.992-2.007-1.896-1.007M250.413 64.902c-.704 1.097-.907 1.997-.407 1.998 1 .004 3.208-2.188 3.212-3.188.005-1.5-1.497-.805-2.805 1.19M243.492 70.577c-1.302.795-2.308 2.191-2.31 2.991-.005 1.1.696.903 3.002-.689 1.704-1.194 3.01-2.589 3.011-3.089.005-1.3-1.096-1.104-3.703.787M233.572 76.24c-2.908 2.09-1.21 2.796 2.396 1.01 1.803-.794 3.206-1.69 3.207-1.99.004-1-3.799-.313-5.603.98M224.458 80.007c-2.304 1.091-3.11 2.789-1.31 2.795 1.6.006 6.008-2.278 6.011-3.178.004-1.1-1.996-.907-4.701.383M214.443 83.97c-2.204 1.092-3.11 2.789-1.51 2.795 1.5.005 6.209-2.478 6.212-3.278.004-1-2.097-.807-4.702.483M203.628 88.03c-1.103.897-1.406 1.595-.707 2.098.598.302 1.299.205 1.701-.394.302-.499 1.504-.994 2.604-.99 1 .003 1.901-.493 1.903-.993.005-1.4-3.295-1.212-5.5.28M192.913 92.091c-1.002.697-1.506 1.595-1.207 1.896.598.602 5.204-1.081 6.91-2.475 1.605-1.394-3.898-.814-5.703.58M184.404 94.66c-3.305 1.288-2.81 2.69.692 2.203 1.7-.194 3.003-.99 3.006-1.79.006-1.6-.594-1.601-3.698-.413M173.892 97.922c-1.602.594-2.806 1.49-2.807 1.89-.002.5 1.198.504 2.8.21 3.402-.888 4.204-1.285 4.208-2.485.004-1.1-.596-1.002-4.201.385M163.281 100.783c-1.802.493-3.005 1.289-2.706 1.79.596 1.002 5.398.32 6.803-.975 1.505-1.295-.694-1.703-4.097-.815M151.57 103.94c-1.603.694-2.506 1.49-1.907 1.893 1.496.905 8.604-1.169 7.908-2.371-.795-1.203-2.296-1.109-6.001.478M95.068 104.133c-.004 1.1 2.392 2.209 4.792 2.217 2.1.008.506-1.498-2.49-2.509-1.3-.304-2.3-.208-2.302.292M141.56 106.303c-4.901.582-5.407 2.18-.807 2.197 2.3.009 4.401-.384 4.803-.882.805-1.297-.494-1.702-3.995-1.315M104.057 107.266c-.004 1.1 5.893 2.021 6.496 1.124.301-.4.204-1-.195-1.401-.997-.904-6.297-.723-6.3.277M114.654 108.205c-.303.599 1.195 1.204 3.395 1.412 2.499.21 3.9.014 3.702-.686-.495-1.302-6.293-1.923-7.097-.726M126.553 108.548c-.403.599-.505 1.298-.206 1.6.797.802 6.702-.676 6.706-1.776.005-1.3-5.696-1.12-6.5.176M410.742 302.991c-2.61 2.59-3.126 6.989-1.136 9.696 2.19 2.908 7.09 2.726 8.701-.268 1.51-2.695.215-4-1.494-1.606-2.713 3.69-7.4.173-6.183-4.522.912-3.297 3.515-4.287 5.908-2.179 2.092 2.008 3.695 1.214 1.903-.993-2.19-2.608-5.19-2.619-7.7-.128M421.049 301.129c-1.305 1.295-.71 2.397 1.29 2.405 1.8.006 1.998.707 1.98 5.507-.01 3 .48 5.502.98 5.504.6.002 1.01-2.497 1.02-5.497.017-4.4.32-5.499 1.62-5.494.9.004 1.403-.595 1.206-1.295-.496-1.302-6.892-2.226-8.096-1.13M467.847 301.7c-.302.5.296 1.002 1.396 1.006 1.9.007 2.098.607 2.08 5.407-.01 3 .48 5.802.978 6.104.998.604 1.412-3.295 1.03-8.296-.094-1.6.51-2.499 1.911-2.893 1.201-.296 2.103-.893 2.105-1.393.005-1.2-8.696-1.132-9.5.065M479.745 302.144c-.302.699-.414 3.799-.224 6.7.28 5.3.28 5.4 3.679 5.713 1.8.206 3.8-.086 4.402-.684.803-.797.004-1.1-2.596-1.11-3-.01-3.698-.413-3.692-2.013s.707-1.998 3.007-1.99c3.8.015 4.007-1.784.308-2.198-1.7-.206-2.896-1.01-3.092-2.111-.295-1.401.406-1.699 3.306-1.688 2.2.008 3.402-.388 3.004-.99-.895-1.503-7.496-1.227-8.102.371M510.846 302.058c-.203.7-.51 2.598-.716 4.297-.31 3-.31 3-2.797-.71-3.68-5.513-4.982-4.918-5.008 2.182-.012 3.3.378 6.001.978 6.003.6.003 1.007-1.896 1.015-4.296l.016-4.2 2.784 4.21c3.878 6.215 5.18 5.62 5.208-2.18.023-6.2-.47-8.002-1.48-5.306M518.048 301.584c-1.308 2.096-4.643 11.684-4.245 12.185.3.201 1.402-.495 2.506-1.69 1.205-1.196 2.308-2.192 2.508-2.192.2.001 1.297 1.005 2.492 2.21 1.096 1.204 2.193 2.008 2.394 1.708.602-.598-2.76-10.71-4.056-12.015-.598-.602-1.298-.704-1.6-.206m1.575 6.606c-.301.5-1.001.397-1.5-.105-.597-.602-.693-1.603-.291-2.201.603-.898.903-.897 1.6.106.397.701.493 1.701.191 2.2M525.842 303.013c1.089 3.204 1.064 9.904.056 12.1-.504 1.098-.407 1.799.293 1.801.5.002 1.507-1.794 2.116-4.092 1.215-4.195.037-10.2-2.158-11.508-.798-.503-.9-.003-.307 1.699M356.345 301.992c.099.4.688 3.302 1.377 6.305 1.377 6.305 3.573 7.313 4.692 2.217 1.017-4.796 1.618-4.894 2.9-.29 1.283 4.805 2.382 5.21 3.796 1.315 1.616-4.194 2.334-9.192 1.234-9.196-.5-.002-1.206 1.596-1.613 3.494-.714 3.898-2.418 4.791-2.404 1.191.004-1.3-.589-3.202-1.385-4.305-1.592-2.106-1.793-1.806-3.013 3.79-.914 3.796-2.213 3.491-2.998-.712-.59-2.902-2.678-6.11-2.586-3.81M378.045 302.071c-.401.299-.712 3.198-.724 6.398-.02 5.8-.02 5.8 3.377 6.512 3.497.613 5.6.02 5.606-1.68.002-.5-1.597-.905-3.497-.912-2.4-.009-3.498-.513-3.494-1.513.003-.9.905-1.497 2.305-1.492 1.2.005 2.902-.389 3.704-.986 1.303-.795 1.303-.995.005-1.4-.799-.303-2.398-.609-3.397-.812-3.698-.614-2.99-2.811.81-2.797 2 .007 3.602-.487 3.604-.987.004-1.1-7.295-1.427-8.3-.33M389.145 302.012c-.501.398-.812 3.397-.824 6.597-.021 5.8-.021 5.8 3.979 5.815 2.2.008 4.002-.486 4.003-.986.003-.6-1.296-1.004-2.996-1.01-2.8-.01-2.9-.111-3.18-5.612-.188-3.101-.58-5.203-.982-4.804M398.324 307.946c-.024 6.5-.024 6.5 3.976 6.514 2.2.008 4.001-.485 4.003-.985.002-.6-1.296-1.005-2.996-1.011-2.3-.008-2.999-.411-2.993-2.011s.708-1.997 3.008-1.989c1.7.006 3.001-.489 3.003-.989.002-.6-1.296-1.005-2.996-1.011q-3-.01-2.995-1.511.006-1.5 3.006-1.489c1.7.006 3.002-.489 3.004-.989.002-.6-1.797-1.007-3.997-1.015-4-.014-4-.014-4.023 6.486M446.426 307.222c-2.02 5.393-2.032 8.793-.018 5.1 1.408-2.295 4.608-2.183 5.898.422 1.987 3.707 2.196 1.208.419-4.999-.988-3.404-2.378-6.109-2.978-6.11-.6-.003-2.11 2.491-3.32 5.587m3.9-.086c-.002.8-.405 1.499-1.005 1.497-.5-.002-.997-.704-.994-1.504s.505-1.498 1.005-1.496c.6.002.998.703.995 1.503M456.325 307.658c-.025 6.8 1.67 8.206 2.194 1.708l.315-4.199 2.782 4.81c1.49 2.606 3.184 4.512 3.785 4.215 1.203-.796 1.246-12.496-.054-12.5-.5-.003-1.006 1.596-1.013 3.496s-.313 3.498-.813 3.497c-.4-.002-1.594-1.606-2.587-3.51-2.98-5.41-4.583-4.617-4.61 2.483M490.325 307.783c-.025 6.8 1.67 8.206 2.193 1.708l.316-4.199 2.782 4.81c1.49 2.606 3.184 4.512 3.785 4.214 1.503-.994 1.247-12.795-.255-12.2-.801.196-1.207 1.795-1.114 3.795l.287 3.401-2.489-3.009c-1.394-1.705-2.488-3.31-2.486-3.81.002-.4-.697-.702-1.497-.705-1.2-.004-1.505 1.295-1.522 5.995M352.43 306.077c-.71 2.498-.718 4.898-.027 7.4 1.578 6.106 2.381 5.11 2.412-3.29.032-8.6-.763-10.004-2.385-4.11M373.023 308.053c-.911 3.097-1.422 5.895-1.223 6.196.798.702 1.602-.595 2.515-4.091.507-1.798 1.216-4.296 1.52-5.595.405-1.198.309-2.199-.191-2.2-.4-.002-1.61 2.594-2.621 5.69M436.303 313.585c-.002.5.496 1.002.996 1.004.6.002 1.002-.497 1.004-.997.002-.6-.396-1.001-.996-1.003a1 1 0 0 0-1.004.996M393.226 334.427l-.043 11.9 27.799.402c15.199.256 34.099.325 42 .154l14.3-.248-.257-11.7-.257-11.702-41.699-.453-41.799-.353zm81.8.5.263 9.801-40.1-.147-40-.147.037-10 .037-10 39.799.346 39.699.446z"/><path d="M399.448 328.65c-.703.697-1.212 3.296-1.222 5.996-.02 5.5 2.371 7.808 5.978 5.821 3.607-1.886 2.03-7.992-2.17-8.008-1-.003-1.798-.706-1.795-1.506.006-1.7 2.508-1.991 3.502-.487.398.601 1.097.804 1.599.406 1.402-.795-.888-3.404-2.988-3.411-.9-.004-2.202.492-2.904 1.189m4.771 7.817c-.005 1.3-.707 1.998-2.007 1.993s-1.998-.707-1.993-2.007.707-1.998 2.007-1.993 1.998.707 1.993 2.007M409.146 329.085c-2.11 2.593-1.734 9.294.56 11.003 2.593 1.91 4.795 1.417 6.005-1.378.706-1.598 1.808-2.194 4.208-2.185 1.8.007 3.302-.488 3.304-1.088.003-.8-1.196-1.004-3.398-.612-2.501.39-3.6.086-3.997-.915-.297-.801-1.694-1.406-3.094-1.411-2.5-.01-3.295-1.412-1.491-2.506.601-.398 1.8-.093 2.598.61 1.894 1.607 2.998.41 1.405-1.595-1.592-2.006-4.393-1.916-6.1.077m5.073 7.42c-.005 1.3-.707 1.997-2.007 1.992s-1.998-.708-1.993-2.008.707-1.997 2.007-1.992 1.998.707 1.993 2.007M425.447 328.745c-2.71 2.69-.728 7.798 2.972 7.811 1 .004 1.798.507 1.796 1.107-.003.7-1.103.896-3.002.489-3.697-.714-4.004.985-.41 2.598 2.296 1.109 2.897 1.01 4.605-1.183 4.62-5.683-.942-15.803-5.96-10.822m4.493 1.917c1.395 1.405.586 3.902-1.214 3.895-1.8-.006-2.794-1.71-2.087-3.507.607-1.798 1.807-1.894 3.301-.388M435.746 329.183c-2.007 1.993-1.112 3.196.995 1.404 1.303-.996 1.804-1.094 2.8-.09.896 1.003.795 1.403-.608 2.298-1.804.893-1.804 1.093.19 2.5 2.694 1.81 2.688 3.31.088 3.3-1.1-.003-1.898-.506-1.696-1.105.407-1.899-2.291-2.209-2.998-.311-.404 1.098-.008 2.2 1.189 3.004 4.388 3.216 7.698.328 7.123-6.274-.578-6.102-3.67-8.114-7.083-4.726M445.643 330.12c-3.42 5.187.752 13.102 5.561 10.52 2.906-1.49 2.938-10.39.144-12-2.894-1.51-3.895-1.314-5.705 1.48m5.583 4.62c-.012 3.2-.315 3.899-2.015 3.892-1.7-.006-1.997-.707-1.986-3.807.016-4.3.62-5.298 2.617-4.49.899.303 1.392 2.005 1.384 4.405M432.976 348.173c-.501.398-.813 3.497-.825 6.897l-.023 6.3-37.202.464c-20.501.224-68.603.548-106.803.708-38.202.26-71.503.538-74.004.729-2.5.09-41.1.25-85.8.185-44.701.037-81.503.402-81.804.8-.302.5-.55 13.599-.707 29.198-.352 68.8-.509 493.502-.253 532.703.213 23.9.505 80.602.638 126.003.234 45.401.398 82.602.498 82.602 0 .1 19.498.472 43.096.958 23.7.387 56.997 1.01 73.996 1.372 17.099.362 95.997 1.051 175.495 1.643 79.498.591 219.196 1.603 310.394 2.338l165.896 1.208-.468-35.902c-.566-36.503-1.95-150.309-2.163-173.71.026-7.1-.355-12.5-.756-12.002-.603.797-.27 73.4.785 167.704l.61 51.902-206.896-1.558c-113.798-.817-207.195-1.66-207.495-1.86-.299-.202-51.898-.59-114.497-.92-98.999-.563-235.393-2.263-235.89-3.065-.2-.1-.428-19.802-.74-43.703-.213-23.9-.604-53.602-.858-66.003-.255-12.401-.238-126.002-.075-252.502.264-126.5.187-269.202.063-317.202-.327-74.602-.18-87.302 1.021-87.697.801-.197 52.302-.508 114.403-.58 62.201-.173 126.502-.337 143.003-.577s94.103-.555 172.505-.867c137.902-.495 167.203-.688 276.608-1.687 30.9-.186 51.3-.012 51.698.49.895 1.503 2.035 126.808 2.974 334.413.703 135.603 1.494 220.107 2.092 220.71.298.4.601-.499.706-1.798.125-6.7-.097-82.601-.27-89.902-.183-4.7-.584-58.902-.959-120.504-.374-61.602-1.003-162.905-1.375-225.007-.372-62.202-.78-114.603-.873-116.504l-.187-3.5-24.9.008c-13.8-.05-79.702.208-146.603.463s-139.802.388-162.002.306l-40.4-.148-.475-6.802c-.286-3.8-.776-6.503-1.178-6.104"/><path d="M476.194 370.732c-4.11 2.584-3.514 3.787.794 1.602 4.108-2.185 4.108-2.085 4.092 2.315-.008 2.2.484 4.302 1.083 4.604.698.503.904-1.096.717-4.597-.377-6.301-1.575-7.006-6.686-3.924M466.674 376.197c-1.103.796-1.706 1.693-1.408 2.095.698.602 4.806-1.683 4.81-2.783.005-1.2-1.296-.905-3.402.688M454.85 382.753c-1.904.993-2.41 2.892-.91 2.897.5.002 1.902-.893 3.206-1.988 2.608-2.09.91-2.797-2.296-.909M481.032 387.65c-.006 1.7.488 3.301.987 3.603.598.402 1.003-.796 1.01-2.896.008-2-.386-3.602-.986-3.604-.5-.002-1.005 1.296-1.011 2.896M448.036 386.428c-.8.297-1.803.994-2.206 1.592-1.106 1.596-1.028 7.597.172 7.601.6.002 1.006-1.496 1.013-3.296.009-2.5.613-3.598 2.216-4.392 2.303-.992 1.308-2.395-1.195-1.505M481.703 395.452c-1.103.996-.826 7.297.274 7.3.6.003 1.006-1.795 1.014-3.995.015-4.1-.183-4.501-1.288-3.305M444.98 401.617c-.005 1.6.49 3.002.99 3.004.6.002 1.005-1.396 1.01-2.996.007-1.7-.389-3.002-.989-3.004-.5-.002-1.004 1.296-1.01 2.996M440.058 407.7c-5.708 2.278-9.935 9.563-7.245 12.373.498.602 1.093 1.904 1.289 3.005.293 1.9-.408 1.998-18.71 2.431l-19.001.43-.392 25.2-.293 25.198-6 .278c-7.802.372-7.809 2.172-.01 2.6 5.999.322 5.999.322 6.078 6.023.132 18.5.842 42.903 1.239 43.904.296 1.001 4.395 1.316 15.495 1.357 15 .055 15 .055 14.99 2.855-.035 9.4 25.445 14.993 34.272 7.526 1.706-1.494 2.328-7.592.936-9.897-.397-.601-3.19-2.412-6.185-3.923-7.686-3.928-18.983-4.67-25.195-1.592-3.906 1.786-6.207 2.077-18.607 2.032l-14.2-.052.059-16 .058-16 15 .055 14.9.055-.618 4.997c-.413 3.599-.12 5.6.973 7.304 4.773 7.318 26.362 10.397 32.683 4.62 2.108-1.992 2.21-2.692 1.739-10.494-.76-10.903-4.827-20.118-10.018-22.537-5.89-2.921-9.689-3.035-14.498-.553-4.308 2.184-5.815 4.079-8.138 10.37-1.212 3.296-1.212 3.296-16.512 3.24l-15.3-.056-.647-14.503c-.37-8.001-.445-14.801-.245-15 .201-.3 7.802-.472 16.702-.54 16.301-.14 16.301-.14 18.492 2.468 2.588 3.11 5.385 4.02 12.386 3.846 9.1-.167 14.02-5.449 11.043-11.76-3.672-7.813-19.87-8.273-23.698-.687-1.51 2.895-2.111 3.093-7.613 3.472-3.3.288-10.701.361-16.501.34l-10.5-.138-.242-15.601c-.233-18.401-2.44-16.71 21.86-16.42l15.5.156.884 4.204c1.082 4.804 3.775 6.813 9.575 6.835 5.5.02 8.01-2.57 8.03-8.37.01-2.5.722-5.798 1.428-7.296 2.618-4.99 2.43-8.39-.657-11.902-4.082-4.815-8.978-6.033-14.586-3.854m7.386 3.826c.795 1.503-3.513 3.488-4.708 2.283-.598-.602-.695-1.502-.393-2.101.906-1.397 4.306-1.385 5.101-.182m3.489 3.113c-.002.5-.404.999-1.004.997-.5-.002-.998-.504-.996-1.004.002-.6.503-.998 1.003-.996.6.002.999.403.997 1.003m-13.307 1.951c3.49 2.713 10.49 2.739 14.4-.047 2.907-1.99 2.907-1.99 2.898.41-.009 2.5-2.114 3.793-8.218 5.07-3.503.788-10.797-.839-11.89-2.643-.995-1.503-1.183-4.804-.283-4.8.3 0 1.697.905 3.093 2.01m15.27 8.056c-.105 1.3-2.915 3.99-5.017 4.782-2.904 1.09-9-.133-10.093-2.037-1.79-2.806-.688-3.302 7.112-3.274 4.4-.084 8 .23 7.998.53m-3.033 8.99c-.002.5-1.203.995-2.703.89-2.8-.11-2.8-.11-.297-.902 1.402-.394 2.603-.79 2.803-.89.1-.099.2.301.197.901m-6.302.576c-.301.3-1.201.396-1.9.093-.8-.303-.498-.601.602-.597 1.1-.096 1.7.206 1.298.504m6.814 23.525c3.49 2.913-4.921 5.782-9.812 3.265-2.895-1.511-2.886-3.911.017-4.8 2.503-.691 8.2.13 9.795 1.535m-14.603.747c-.004 1.1.69 2.703 1.587 3.506.797.903 1.094 1.604.494 1.602-1.6-.006-4.089-3.015-4.081-5.115.004-1 .507-1.899 1.007-1.897.6.003.997.904.993 1.904m13.913 23.651c3.593 1.913 3.69 2.914.782 4.903-2.707 1.89-5.807 1.979-9.301.366-3.095-1.411-3.185-4.112-.18-5.6 3.106-1.49 5.406-1.381 8.7.331m-13.009 2.452c-.004 1.1.89 2.904 1.986 4.008 2.39 2.409.39 2.701-2.201.292-1.894-1.707-2.477-6.31-.777-6.303.6.002.996.903.992 2.003m17.385 4.164c-.903.997-2.207 1.892-2.707 1.89-.6-.002-.096-1 1.109-2.296 1.204-1.295 2.31-2.991 2.314-3.791.103-.8.302-.7.598.402.296 1.001-.31 2.699-1.314 3.795m5.49 2.62c.695 1.503 1.477 6.406 1.76 11.007.57 8.302.57 8.302-3.336 9.888-4.207 1.784-15.205 1.244-20.297-.975-8.187-3.53-9.278-5.934-6.943-15.525 1.523-6.095 2.426-6.991 4.718-4.783 2.99 2.611 11.288 3.241 16.695 1.261 2.504-.99 4.508-2.183 4.51-2.683.007-1.9 1.703-.794 2.894 1.81m-14.6-.053c-.7.197-1.9.193-2.5-.01-.698-.302-.197-.5 1.203-.495s1.899.207 1.298.505M431.91 529.97c-.305 1.3-.11 2.7.489 3.002 1.995 1.307 1.19 2.704-.906 1.597-2.794-1.51-2.574-7.01.226-7 .5.002.596 1.103.191 2.401m20.797.777c4.296 1.115 5.391 2.42 3.784 4.413-1.808 2.094-13.907 1.95-18.499-.267-4.292-2.116-4.389-3.017-.182-4.801 3.205-1.388 7.504-1.173 14.897.655m7.782 4.928c-.002.5-.503.998-1.103.996-.5-.002-.699-.503-.397-1.001.302-.6.804-.997 1.104-.996.2 0 .398.401.396 1.001m-20.016 4.427c-.001.3-.202.499-.502.498s-.5-.202-.498-.502c.001-.3.202-.5.502-.498.3.001.499.202.498.502m2.996 1.01c0 .3-.202.5-.502.499s-.499-.202-.498-.502.202-.5.502-.498c.3.001.5.202.498.502m4.7.218a1.2 1.2 0 0 1-1.4-.005c-.3-.401.002-.7.702-.698s.999.304.697.703M481.454 408.951c-.404.999-.41 2.599-.013 3.5.794 1.703.794 1.703 1.2.004.303-.898.31-2.498.013-3.5-.394-1.601-.394-1.601-1.2-.004M481.612 420.452c-1.104.996-.823 6.297.277 6.3.6.003 1.005-1.596 1.012-3.496.014-3.6-.185-4-1.29-2.804M481.568 432.452c-1.104.996-.819 5.097.278 5.8.599.403 1.003-.796 1.011-2.896.014-3.7-.185-4.1-1.29-2.904M481.222 445.05c-.203.7-.01 2.4.486 3.802.892 2.204.992 2.104 1.005-1.396.113-3.7-.483-4.802-1.491-2.406M296.138 467.372c-.202.7-.322 6-.243 11.8l.262 10.4 41.799.454 41.699.352.044-12 .044-12-41.5-.151c-33.5-.123-41.7.147-42.105 1.145m81.56 11-.036 10-40-.147-40-.147.037-10 .037-10 40 .147 40 .146z"/><path d="M312.721 472.133c-2.91 2.89-2.435 9.591.657 11.703 1.895 1.306 2.396 1.208 4.202-.585 1.205-1.196 2.11-2.592 2.112-3.092.007-1.9-3.882-5.015-5.584-4.32-1.202.395-1.501.194-1.197-.805.302-.8 1.604-1.294 3.204-1.189 3.1.212 3.404-1.187.61-2.697-1.597-.806-2.398-.61-4.004.985m4.772 7.718c-.204.999-1.307 1.895-2.608 2.09-1.7.294-2.199-.208-2.194-1.708.006-1.6.608-2.098 2.608-2.09 1.9.006 2.498.509 2.194 1.708M329.91 475.396c-1.111 2.896-2.323 6.092-2.726 6.99-.404.999-.307 1.799.293 1.801s1.403-.895 1.707-1.994c.91-2.796 5.11-2.58 6.6.225.695 1.302 1.393 1.805 1.595 1.205.505-1.398-3.455-12.112-4.652-12.917-.5-.301-1.707 1.794-2.818 4.69m3.794 1.414c-.003.8-.705 1.397-1.505 1.394-1.7-.006-1.8-.206-.891-2.403.706-1.797 2.404-1.191 2.396 1.009M341.523 471.639c-1.002.696-1.807 1.893-1.81 2.693-.003 1 .297 1.001 1.2.104 1.505-1.494 4.806-1.582 4.8-.082-.002.7-.806 1.797-1.709 2.494-1.705 1.293-1.705 1.293-.005 1.4 2.5.009 2.285 4.008-.315 3.999-1.1-.004-1.998-.508-1.996-1.008.002-.6-.396-1.001-.996-1.003-1.7-.007-1.111 2.896.786 3.803.898.603 2.697.61 3.9.114 3.904-1.386 2.45-13.791-1.65-13.806-.3-.001-1.302.595-2.205 1.292M352.524 471.379c-2.204 1.192-3.427 7.387-1.938 10.493 1.289 3.005 5.588 3.32 7.098.526 1.208-2.296 1.326-7.095.231-8.6-1.79-2.406-3.788-3.313-5.39-2.42m3.677 6.413c-.013 3.4-.315 4-2.216 4.292-2.101.293-2.3-.108-2.287-3.608.016-4.3.72-5.397 3.018-4.989 1 .204 1.495 1.505 1.485 4.305M301.313 474.291c-.908 2.097-1.115 4.096-.523 6.198.494 1.702.89 3.104.889 3.204 0 .1.898.403 1.997.707 2.398.609 5.006-1.582 5.016-4.282.01-2.8-2.582-4.91-5.185-4.219-2.102.493-2.201.392-.895-1.203 1.004-1.196 2.205-1.492 4.004-1.085 2.098.507 2.298.408 1.203-.896-2.19-2.608-5.093-1.919-6.506 1.576m5.879 5.822c-.007 1.8-3.31 2.588-4.705 1.183a1.824 1.824 0 0 1-.291-2.201c1.005-1.597 5.002-.782 4.996 1.018M320.695 479.162c-.001.5 1.097 1.004 2.497 1.01 1.4.005 2.502-.491 2.503-.991.003-.6-1.096-1.004-2.496-1.01-1.4-.005-2.501.391-2.504.991M556.646 493.027c-2.81 2.79-2.837 10.19.052 13.1 2.092 2.108 2.092 2.108.776 33.804-.884 22.896-1.719 32.493-2.727 34.79-1.109 2.396-1.435 9.395-1.522 33.194-.106 28.9-.01 30.2 1.884 31.808 1.893 1.707 1.989 3.007 1.893 29.007-.1 27.2-.1 27.2 2.895 28.81 3.593 1.914 3.193 1.912 6.001-.478 2.308-1.991 2.308-1.991 2.307-29.191.072-19.5.401-27.499 1.303-27.996.702-.497 1.322-6.095 1.659-15.994l.556-15.298 10.8-.26c14.202-.348 14.009-2.149-.291-2.201l-11-.04.056-15.4c.043-11.6-.242-15.601-1.24-16.505-1.096-.804-1.667-8.906-2.476-33.51-1.182-32.404-1.182-32.404.926-34.496 1.506-1.495 2.113-3.393 2.124-6.593.022-5.9-2.469-8.509-7.969-8.529-2.7-.01-4.702.683-6.007 1.978m10.895 1.34c.797 1.003.694 1.703-.21 2.6-.903 1.096-.904 1.396.094 1.8 1.698.706 1.484 4.305-.524 6.498-3.413 3.787-10.304 1.262-10.286-3.738.01-2.5.21-2.7 3.008-2.189 1.699.406 3 .211 3.001-.289.002-.6-.796-1.003-1.896-1.007-2.6-.01-4.392-2.316-2.886-3.81 1.606-1.595 8.305-1.47 9.7.135m-2.984 23.09c-.017 4.6.266 9.1.563 10.002.495 1.301-.106 1.6-2.606 1.59s-3.099-.311-2.594-1.61c.303-.898.62-5.397.637-9.997.028-7.7.23-8.4 2.03-8.393s1.998.707 1.97 8.407m.916 22.803c-.019 5.1.262 10.3.558 11.502.592 2.102.292 2.301-3.208 2.288l-3.9-.014.042-11.5c.042-11.5.042-11.5 3.342-11.488 3.2.012 3.2.012 3.166 9.212m.704 26.203c-.337 10.098-.337 10.098-3.837 10.086s-3.5-.013-3.761-10.514l-.262-10.601 4.099.415 4.098.415zm-.341 11.298c2.304-1.091 3.504-1.287 3.502-.487-.013 3.5-8.92 5.068-12.208 2.056-2.89-2.611-2.088-3.408 1.706-1.594 3.294 1.612 3.694 1.613 7 .025m-3.518 4.688c1.4.005 3.502-.288 4.803-.783 2.203-.692 2.203-.692 2.1 27.608-.077 20.8-.406 28.699-1.31 29.595-.702.698-3.304 1.188-5.804 1.18-2.5-.01-5.098-.52-5.795-1.222-.897-.903-1.168-8.804-1.092-29.604.104-28.3.104-28.3 2.401-27.592 1.199.505 3.298.812 4.697.818m-.317 86.699c-.078 21.2-.4 26.999-1.298 26.695-.999-.403-1.375-6.905-1.5-27.105-.115-23.3.097-26.7 1.397-26.695s1.487 3.505 1.4 27.105m4.194-25.585c-.003.8.054 12.5.004 26.1.037 17.2-.291 24.8-1.194 25.696-.803.797-1.08-5.604-1.005-26.104.064-17.5.5-27.198 1.1-27.196s.997.704 1.095 1.504M446.433 551.124c-.004 1.1-1.306 1.495-5.406 1.48-8.2-.03-12.908 2.253-13.824 6.55-.408 2.098-.908 2.196-19.008 2.23l-10.8.06-.046 12.5-.046 12.5-8-.03c-4.7-.017-8.002.371-8.004.971s3.297 1.012 7.996 1.03l7.9.028.258 11.701.256 11.801 15.5.057 15.5.057.267 8.901c.262 10.501 1.95 13.607 7.944 15.43 4.994 1.518 8.994 1.532 13.3.048 6.408-2.176 7.92-5.27 7.957-15.57.024-6.5.33-8.2 1.935-9.594 1.003-.896 2.11-2.792 2.315-4.091.61-2.898-.849-14.004-2.335-17.709-1.485-4.105-7.975-6.83-16.075-6.859-9.9-.036-14.609 2.446-14.728 7.646-.005 1.3-.408 2.299-.808 2.297-1.4-.005-3.224 6.488-3.244 11.788l-.019 5.2-13-.047-13-.048.085-23 .084-23 13.8.05 13.8.051 5.58 5.521 5.48 5.42 9.703-.764c11.403-.959 14.91-2.746 15.429-7.944.416-4.298-1.673-7.306-6.665-9.624-2.496-1.11-4.09-2.515-4.087-3.515.007-1.8-1.889-3.007-4.589-3.017-.8-.003-1.403.695-1.405 1.495m3.988 3.114c-.003.8-.705 1.398-1.505 1.395-1.5-.006-2.092-2.108-.888-3.303 1.003-.897 2.4.208 2.393 1.908m-14.007 2.049c-3.305 1.288-4.02 5.185-1.429 7.695 2.292 2.308.093 2-2.998-.511-4.487-3.517-2.57-7.91 3.429-7.788 1.5.006 1.899.307.998.604m15.08 5.155c2.197.908 3.893 2.015 3.892 2.415-.004 1.2-6.908 2.074-11.305 1.358-5.796-1.021-9.188-3.334-7.581-5.228 1.507-1.794 9.404-1.065 14.995 1.455m9.396 1.435c.79 2.403-2.622 5.79-6.022 5.778-1.9-.007-1.799-.207.407-1.899 2.006-1.492 2.31-2.391 1.819-4.993-.59-2.902-.489-3.102 1.307-2.095.998.503 2.193 2.008 2.489 3.209m-18.522 5.832c-.01 2.5-3.308 2.188-3.798-.414-.196-1.2.306-1.699 1.706-1.694 1.5.006 2.098.608 2.092 2.108m3.64 16.613a1.2 1.2 0 0 1-1.4-.005c-.3-.4.002-.7.702-.697.7.002.999.303.697.702m9.29 2.334c-.113 3.7-9.323 6.466-13.814 4.05-.898-.504-2.496-1.21-3.395-1.513-.999-.303-1.496-1.105-1.293-1.804.403-.899 3.105-1.289 9.505-1.266 5 .019 8.999.233 8.998.533m.979 6.004c-.802.597-2.204.992-3.004.889-.9-.003-.497-.602 1.006-1.396 2.705-1.39 4.403-.984 1.998.507m-16.211 2.94c1.4.006 2.198.609 2.194 1.609-.005 1.3-.706 1.497-3.004 1.089-3.797-.814-7.987-3.53-7.98-5.33.003-1 .803-.897 3.297.612 1.696 1.107 4.193 2.016 5.493 2.02m-1.787-3.506c-.001.3-.202.5-.502.498-.3 0-.5-.202-.498-.502 0-.3.201-.499.501-.498s.5.202.499.502m19.386 3.671c-.704 1.198-6.614 3.876-8.414 3.87-2.6-.01-.59-2.803 2.814-3.69 5.105-1.382 6.405-1.477 5.6-.18m-27.002.701c.298.501 2.593 1.81 5.089 3.019 5.99 2.822 15.689 2.957 20.299.174 4.009-2.385 4.21-2.484 4.2-.184-.013 3.8-13.42 5.55-22.41 2.918-4.495-1.317-9.584-4.436-9.578-5.936.004-1.2 1.704-1.193 2.4.01m14.791 2.354c-.903.897-1.203.696-1.196-1.204s.308-2.099 1.205-1.196.894 1.504-.009 2.4m-9.218 4.967c4.194 1.515 7.293 1.926 12.994 1.647 4.1-.285 8.303-.77 9.304-1.166 3.005-1.389 1.99 2.908-1.32 5.696-5.618 4.779-17.121 5.537-24.508 1.81-4.092-2.015-5.384-4.12-5.47-8.12.01-2.8.312-3.2 1.81-2.594.898.504 4.193 1.716 7.19 2.727m6.955 12.325c3 .011 6.901-.374 8.603-.768 3.102-.789 3.202-.689 3.59 2.713.192 2 .079 5.7-.23 8.3-.417 4.298-.92 4.996-4.025 6.484-6.711 3.176-16.405 1.54-18.988-3.17-.496-1.101-.982-5.003-.969-8.603.025-6.7.025-6.7 3.322-5.788 1.698.407 5.697.821 8.697.832M293.743 575.364c-.203.7-.322 5.999-.244 11.8l.262 10.4 41.799.454c22.9.184 41.7.252 41.7.152.1-.2.316-4.498.734-9.497.959-15.897 5.853-14.279-42.247-14.455-33.4-.122-41.6.148-42.004 1.146m82.26 11.002.163 10-40.199-.347-40.198-.447-.264-9.801-.265-9.701 40.3.147 40.4.148z"/><path d="M300.425 580.189c-2.308 2.091-2.825 6.69-1.137 9.996 1.391 2.505 5.591 2.52 7-.075 1.511-2.894-.377-6.001-3.577-6.013-1.6-.006-2.398-.509-2.096-1.308.203-.599 1.605-1.094 3.104-.988 3 .21 3.405-1.188.71-2.598-1.397-.805-2.298-.508-4.004.986m4.871 7.918c-.005 1.5-.707 1.997-2.507 1.99-1.8-.006-2.498-.509-2.493-2.009s.707-1.997 2.507-1.99c1.8.006 2.499.509 2.493 2.009M310.325 580.125c-2.305 1.492-2.036 9.793.358 11.601 1.695 1.207 2.295 1.209 4 .015 4.11-2.685 2.728-7.59-2.072-7.608-1.5-.005-2.299-.508-1.996-1.307.203-.6 1.604-1.094 3.104-.989 1.7.107 2.6-.19 2.304-.991-.494-1.602-3.793-2.014-5.698-.721m4.97 8.118c-.005 1.5-.507 1.998-2.206 1.692-3.398-.512-3.686-3.813-.386-3.801 2 .007 2.598.51 2.593 2.11M328.319 581.89c-.606 1.499-1.515 3.995-2.12 5.493s-.912 3.297-.615 3.998c.397.801.798.503 1.204-.996.506-1.598 1.508-2.194 3.508-2.187s2.998.611 3.492 2.213.793 1.903 1.097.804c.608-2.098-2.859-11.31-4.357-11.816-.6-.202-1.703.894-2.209 2.492m2.785 4.211c-1.502.495-2.098-.708-1.29-2.605.705-1.697.805-1.697 1.498.206.396 1.101.292 2.201-.208 2.4M338.323 580.728c-.703.897-.907 1.896-.508 2.298.398.401 1 .103 1.202-.596.606-1.698 4.306-1.484 4.3.216-.004.8-.607 1.698-1.208 1.996-.901.296-.803.797.494 1.601.898.604 1.694 1.807 1.69 2.507-.006 1.8-4.106 1.985-5.8.278-.797-.803-1.197-.904-1.2-.104-.005 1.4 2.784 4.31 4.084 4.315.5.002 1.804-.894 2.807-1.89 1.506-1.494 1.81-2.793 1.423-6.295-.291-2.3-1.083-4.604-1.681-5.006-1.796-1.206-4.297-.916-5.603.68M349.815 582.97c1.392 2.105 2.482 5.009 2.476 6.609s.39 2.601.992 2.204c.601-.298 1.006-1.597 1.01-2.697s1.013-3.596 2.12-5.492c1.207-1.896 1.913-3.593 1.614-3.894-.498-.602-3.307 1.988-4.014 3.785q-.605 1.348-2.694-1.51c-3.185-4.111-4.488-3.316-1.504.995M319.3 587.158c-.002.5.896 1.003 1.996 1.007s2.002-.492 2.004-.992c.002-.6-.897-1.004-1.997-1.008s-2.001.393-2.003.993M597.471 595.378c-.803.797-1.218 4.895-1.244 11.995-.038 10.5.06 10.8 2.26 10.808 22.7.484 80.401-.005 81.004-.603.401-.398.62-5.697.542-11.698l-.26-10.9-40.498-.45c-30.7-.312-40.9-.05-41.804.848m80.76 10.996-.036 10.1-40-.147-40-.147.034-9.3c.02-5.2.235-9.599.436-9.798.3-.199 18.302-.533 40.003-.653l39.6-.155z"/><path d="M603.953 600.401c-1.404 1.195-3.721 5.787-3.728 7.687-.006 1.6 4.181 5.115 6.081 5.122 1.1.004 2.404-1.091 3.11-2.589 1.108-2.296 1.01-2.896-1.184-4.604-1.296-1.005-2.893-1.71-3.694-1.414-1.503.595-1.7-.306-.392-2.301.804-1.197 1.205-1.296 2.5-.09 2.094 1.607 3.299.511 1.606-1.495-1.494-1.805-2.093-1.908-4.299-.316m2.677 6.41c2.097.808 1.988 3.007-.114 3.8-2.103.792-3.797-.814-2.99-2.811.706-1.798.906-1.797 3.104-.989M612.85 601.434c-3.116 4.289-1.244 11.795 2.856 11.81 1.7.007 4.51-2.683 4.516-4.283.009-2.4-1.786-4.007-4.386-4.016-1.6-.006-2.498-.41-2.296-1.109.203-.599 1.604-.994 3.104-.888 3.099.211 3.404-1.188.71-2.698-2.595-1.41-2.796-1.31-4.505 1.184m3.78 5.414c2.096.808 1.988 3.007-.114 3.8-2.103.792-3.798-.814-2.99-2.812.706-1.797.906-1.796 3.103-.988M629.35 601.194c-1.204 1.196-2.109 2.493-2.11 2.993-.007 1.6 3.084 4.111 5.084 4.118 1 .004 1.898.507 1.897 1.007-.007 1.7-2.909 2.29-4.504.984-1.196-1.005-1.496-1.006-1.501.294-.01 2.5 3.788 3.114 6.096 1.123 2.709-2.49 2.333-9.092-.76-11.103-1.895-1.307-2.395-1.209-4.202.584m4.69 2.918c.293 1.7-.208 2.199-1.708 2.193q-2.1-.007-2.094-1.807c.014-3.8 3.315-4.088 3.802-.386M640.841 603.637c-3.315 4.287-3.424 6.687-.224 6.699 1.3.005 2.698.61 2.895 1.21.694 1.803 2.905-1.189 2.211-2.992-.297-.8-.489-2.901-.482-4.801.016-4.3-1.184-4.305-4.4-.116m2.39 2.708c-.004 1.1-.707 1.998-1.507 1.995-1.8-.007-1.895-1.207-.29-2.801 1.606-1.594 1.806-1.494 1.797.806M650.645 602.572c-.402.599-.205 1.4.394 1.602.7.202 1.193 2.104 1.185 4.304-.008 2.1.485 3.902.985 3.904 1.1.004 1.32-5.195.433-8.799-.692-2.402-1.89-2.806-2.997-1.01M621.724 608.267c.298.5 1.497 1.005 2.597 1.009 1 .004 1.901-.493 1.903-.993.002-.6-1.196-1.004-2.596-1.01-1.4-.005-2.302.392-1.904.994M438.85 655.597c-.903.596-3.014 3.789-4.727 7.182-2.517 4.791-3.127 7.389-3.145 12.289-.02 5.6-.323 6.399-2.931 8.59-1.605 1.293-3.915 4.085-5.123 6.18-2.515 4.191-5.317 4.581-5.803.88-.39-2.602-3.781-5.215-6.681-5.225-2.9-.011-6.31 2.577-6.719 5.075-.205 1.5-1.61 2.594-4.813 3.582-5.206 1.681-10.52 5.362-12.131 8.456-.705 1.397-1.142 11.396-1.114 31.096.097 28.1-.006 29-2.011 30.393-1.705 1.194-2.009 2.293-1.625 6.594.376 6.601.972 7.804 4.464 9.816 2.695 1.61 2.793 2.01 3.36 10.913.376 6.801.165 9.8-.741 11.397-1.005 1.397-1.63 8.094-2.18 21.692-.672 19.698-.672 19.698 1.522 21.306 2.593 1.81 9.392 2.235 10.398.638s4.104-1.085 5.996 1.022c.996 1.104 2.692 2.31 3.89 2.614 1.099.405 3.494 1.713 5.09 2.92 1.695 1.305 4.59 2.616 6.489 3.023 1.898.407 4.795 1.418 6.292 2.223 1.497.706 5.594 1.62 9.092 2.033 7.698.729 12.605-1.253 21.833-8.92 13.641-11.15 22.908-29.316 22.964-44.616.03-8.4-3.432-18.512-8.114-23.53-3.984-4.414-4.967-8.918-2.559-11.31.904-.896.805-1.196-.395-1.2-.8-.004-2.102.592-2.705 1.29-.603.797-2.908 2.189-5.212 3.18-4.107 1.885-4.107 1.885-5.997-.622-.996-1.303-2.786-3.81-3.78-5.613-2.187-3.608-2.287-3.409 5.329-7.781 5.31-2.98 5.51-2.98 8.59 2.532.498.801 1.096 1.204 1.498.805.4-.299-.492-2.402-1.884-4.507-2.189-3.108-2.582-4.91-2.561-10.51.013-3.7-.375-7-.974-7.303-.499-.302-2.1.192-3.504 1.087-5.312 3.38-5.41 2.78-5.208-25.02.074-20.199.395-25.998 1.603-28.193 1.813-3.494 2.287-23.592.59-24.198-.6-.203-1.394-1.906-1.787-3.807-.293-1.901-1.684-4.306-3.08-5.411-2.692-2.11-8.59-2.632-11.496-1.042m8.99 2.833c.593 1.702-1.512 3.194-4.612 3.183-2.7-.01-4.09-2.815-2.085-4.108 2.004-1.193 6.002-.678 6.696.925m2.967 8.71c-.615 4.298-12.714 3.854-13.598-.55-.195-1.2 1.106-1.495 6.806-1.474 6.5.023 6.999.225 6.792 2.024m-13.41 2.951c3.287 3.312 10.087 3.537 13.998.452 2.106-1.693 2.606-1.79 2.602-.49-.022 5.8-17.026 7.037-20.006 1.526-2.384-4.409-.38-5.302 3.405-1.488m16.559 11.061c-.023 6.3-.124 6.6-3.231 8.488-1.904 1.093-5.107 1.982-7.307 1.974s-5.397-.92-7.193-2.027c-3.093-1.911-3.292-2.312-3.27-8.112.021-5.9.122-6.1 2.32-5.391 5.194 1.619 11.294 1.641 14.699.153 1.903-.793 3.605-1.486 3.806-1.586.1 0 .19 2.901.176 6.501m-22.126 7.02c1.59 2.705 2.081 5.107 2.06 10.707-.125 7.1-.125 7.2-1.715 4.293-.794-1.603-2.885-4.01-4.48-5.416-2.592-2.21-2.89-2.91-2.278-6.108.511-2.899 2.926-7.09 4.126-7.085.1 0 1.094 1.604 2.287 3.608m-18.801.33c.5.002.897.703.894 1.503-.003 1-1.105 1.496-3.505 1.488-2.4-.01-3.498-.513-3.495-1.413.006-1.6 1.91-2.593 3.807-1.986.8.203 1.799.406 2.299.408m37.635 17.638q.254 12.75-.951 14.097c-1.808 2.193-9.507 1.765-11.898-.644-1.793-1.806-1.988-3.307-1.948-14.307l.045-12.2 7.2.126 7.3.127zm-37.059-11.236c-.505 1.398-5.905 1.379-6.4.077-.098-.6 1.304-.995 3.204-1.088 2.1.007 3.399.412 3.196 1.011m-7.807 1.972c.996 1.203.795 1.303-.803.897-1.2-.305-2.097-.908-2.095-1.408.005-1.4 1.604-1.094 2.898.51m11.103-.86c0 .3-.202.5-.502.499s-.499-.202-.498-.502.202-.5.502-.498c.3 0 .5.201.498.501m-17.012 3.438c-.008 2.1.885 3.903 2.779 5.61 2.292 2.209 3.39 2.513 7.492 2.128 5.502-.48 9.714-3.665 9.727-7.365.005-1.3.509-2.298 1.209-2.295 2 .007 7.584 4.328 8.675 6.832.695 1.402 1.055 12.104.997 28.103-.094 25.5-.095 25.8-2.402 27.892-7.928 7.37-31.326 6.885-38.197-.94-1.893-2.007-1.986-3.907-2.208-25.108-.154-12.601-.016-22.9.284-22.9.3.002 2.196 1.109 4.19 2.516 8.28 5.63 18.676 6.768 28.69 2.905 4.506-1.683 10.123-6.263 7.823-6.271-.8-.003-2.203.692-3.206 1.588-3.01 2.689-9.115 4.267-16.415 4.24-8.1-.03-12.695-1.447-17.68-5.465-3.191-2.512-3.49-3.113-2.679-5.91 1.013-3.496 2.318-4.891 6.426-6.976 4.108-2.185 4.507-1.984 4.495 1.416m8.995 1.333c1.4.005 3.7-.286 5.302-.68 3.905-1.186 3.593 1.913-.414 3.998-3.807 1.886-9.404 1.066-10.894-1.64-1.49-2.805-1.188-3.304 1.309-2.495 1.198.404 3.297.812 4.697.817m24.614 23.49c-.401.299-.7-.002-.698-.702s.304-.999.703-.698a1.2 1.2 0 0 1-.005 1.4m12.102-.655 5.3.02-.33 8.198c-.33 8.299-.33 8.299-4.633 9.183-4.304.984-4.304.984-4.039 10.485.265 9.601.265 9.601 3.064 9.912 2.199.308 2.697.81 2.688 3.21-.006 1.6.389 3.001.788 3.202 1.298.505 5.072 7.62 4.47 8.217-1.003.996-5.202.68-7.198-.626-1.496-.906-1.694-1.607-.989-2.904 1.41-2.595-.776-6.503-4.57-8.317-3.194-1.512-3.194-1.512-3.755-12.214-.378-5.901-.645-15.002-.626-20.202.034-9.3.035-9.4 2.333-8.792 1.198.305 4.597.617 7.497.628m1.899 27.707c-.324 6.499-.629 7.798-2.03 8.093-1.601.294-1.798-.607-1.772-7.707.028-7.5.23-8.1 2.03-8.093 1.9.007 2.098.508 1.772 7.707m-13.1-.048c-.206 1.6-.402.498-.392-2.202.01-2.8.215-3.999.41-2.798.195 1.3.187 3.5-.018 5m17.317-4.537c-.002.5-.404.899-1.004.897-.5-.002-.997-.704-.994-1.604.003-.8.505-1.198 1.003-.896.6.302.997 1.003.995 1.603m8.983 4.433c-.014 3.9-.423 6.499-1.123 6.496-.5-.002-2.704 1.09-4.71 2.483s-4.009 2.485-4.409 2.484c-.5-.002-.79-2.703-.778-6.003.022-6 .022-6 4.733-8.983 2.606-1.69 5.111-2.981 5.511-2.98.4.002.79 2.903.776 6.503m-26.33 8.104c-.4.298-.7-.003-.697-.703s.304-.999.703-.697a1.2 1.2 0 0 1-.005 1.4m-43.718 4.94c-.006 1.6 7.582 5.027 14.077 6.251 7.595 1.528 13.098.548 20.713-3.524 4.309-2.284 5.608-1.98 2.398.609-1.906 1.593-4.811 3.082-10.018 4.963-4.406 1.684-16.703.74-21.194-1.577-5.69-2.821-9.973-7.537-6.973-7.526.6.002.999.404.997.804m47.995 1.376c4.193 2.115 5.68 5.72 1.984 4.507-1.299-.405-3.1.088-4.905 1.382-1.605 1.194-3.108 2.089-3.408 2.087-.2 0-3.807 1.986-7.916 4.471-4.21 2.485-8.317 4.47-9.217 4.467s-4.194-1.516-7.388-3.327l-5.688-3.221 8.602-.569c10.203-.662 17.314-3.636 20.432-8.525 1.106-1.796 2.411-3.191 2.812-3.29.4.002 2.596.91 4.692 2.018m-50.503.814c.298.502-.104 1-.904.997s-1.798-.506-2.096-1.008c-.298-.6.104-1 .904-.996.8.003 1.798.406 2.096 1.007m10.065 9.637c2.495 1.41 4.29 2.816 4.089 3.015-.603.698-17.567-8.964-17.664-9.964.002-.4 1.999.407 4.494 1.816zm-6.7-.224c7.883 4.829 13.87 8.25 18.86 10.87 4.991 2.617 4.29 2.815 20.627-7.025 8.92-5.368 8.92-5.368 13.111-3.052 3.094 1.711 5.092 2.118 7.494 1.627 1.801-.293 3.8-.086 4.499.417.997.803 2.198.508 4.703-.983 3.608-2.187 5.81-2.579 5.804-.979-.002.5-.704.998-1.504.995-2.5-.01-1.706 1.693 1.39 3.005 1.597.606 3.99 2.314 5.286 3.72 2.09 2.407 2.09 2.607.293 1.9-3.695-1.413-10.994-1.84-13.498-.75-2.103.793-1.603.995 3.297 1.013 6.6.124 11.891 2.243 13.98 5.451 8.65 13.732-.657 42.798-18.511 57.533-8.025 6.67-14.833 9.045-22.73 8.116-7.297-.926-10.79-3.04-12.772-7.746-1.784-4.307-1.944-15.308-.325-20.302 4.652-14.183 10.086-23.463 18.716-31.831 6.021-5.678 6.63-7.976 1.014-3.797-7.922 6.071-16.268 18.64-20.313 30.926-2.224 6.592-2.634 9.29-2.259 15.992.184 4.5.667 9.102 1.162 10.304.494 1.702.392 2.302-.708 2.298-2.4-.01-8.477-6.332-9.664-9.936-1.384-4.405-1.317-49.705.086-50.6.601-.398.803-.997.505-1.498-.895-1.403-9.777-6.136-10.779-5.74-.6.198-.911 3.197-.825 6.997.18 5.101-.125 6.7-1.125 6.696-3.1-.011-4.59-2.617-5.068-8.818-.48-5.602-.277-6.201 1.423-6.195 1.2.004 1.602-.494 1.306-1.495-.398-.802-.995-1.504-1.495-1.506-2.1-.008-8.682-5.032-9.175-6.934-.689-2.902.61-2.597 7.196 1.327m18.074 7.266c0 .2-.9-.003-1.998-.607s-1.995-1.308-1.994-1.608c0-.2.9.004 1.998.608s1.995 1.307 1.994 1.607m-4.928 7.682c1.396 1.005 1.582 4.806 1.698 27.907.045 14.8-.299 26.799-.799 26.797-.4-.002-1.793-1.707-2.985-3.911-2.087-3.708-2.182-5.008-2.098-28.008.092-25.1.195-25.8 4.184-22.785m-7.344 11.873c1.296 1.305 1.582 5.006.578 6.102-.803.698-5.993-1.822-6.888-3.325-.895-1.403 1.315-3.995 3.415-3.987.9.003 2.198.508 2.895 1.21m-1.031 8.597c2.095 1.407 2.292 2.108 1.963 10.107-.335 9.599-1.44 10.795-6.126 7.077-2.593-2.01-2.69-2.61-2.66-11.11.033-8.9.033-9 2.33-8.29 1.2.403 3.196 1.41 4.493 2.216M393.2 832.73c1.197.905 1.753 12.707.653 12.703-.3-.001-1.697-.706-2.994-1.611-2.194-1.408-2.49-2.41-2.472-7.51.022-6.1.824-6.696 4.813-3.582m5.17 8.42c-.01 2.6-.313 3.398-1.11 2.595-.897-.903-.277-6.3.723-6.297.2 0 .394 1.701.386 3.701"/><path d="M439.577 784.4c-.001.4-1.605 1.594-3.509 2.587-5.11 2.782-12.038 10.456-18.174 20.034l-2.514 3.99.323-6.398c.216-4.2-.076-6.5-.875-6.804-.699-.302-1.308 2.096-1.727 7.394-.416 4.299-.838 10.397-1.15 13.496-.522 6.098.871 8.003 1.99 2.807 2.643-11.69 16.51-30.04 26.228-34.704 3.806-1.786 4.411-3.184 1.411-3.195-1.1-.004-2 .293-2.003.793M449.955 817.938c-7.528 7.473-6.074 19.978 2.037 17.208 5.207-1.881 10.142-11.563 8.26-16.37-1.882-5.107-5.68-5.42-10.297-.838m8.099.23c1.989 3.007.983 4.704-1.007 1.996-1.194-1.704-1.694-1.806-3.998-.714-5.208 2.28-6.64 11.175-1.84 11.193 2.3.008 4.805-1.682 3.909-2.586-.399-.401-1.3-.204-1.902.393-1.907 1.893-2.805 1.39-2.794-1.61.01-2.8 2.426-7.191 4.026-7.185.5.002 1.394 1.805 1.985 4.107 1.085 4.104.883 4.803-2.731 8.59-.603.698-2.305 1.292-3.705 1.287-5.1-.02-4.568-8.717.853-14.497 4.016-4.186 5.016-4.282 7.204-.974M482.021 690.655c-.11 2.7.189 3.2 1.092 2.304.803-.797.806-1.697.012-3.4-.992-2.204-1.092-2.104-1.104 1.096M481.885 700.655c-.007 1.7.488 3.101.988 3.103.6.002 1.004-1.096 1.01-2.396.004-1.4-.39-2.802-.99-3.104-.598-.402-1.002.697-1.008 2.397M558.581 701.736c-.604 1.098-.218 5.099.579 5.902.398.401.703-.898.71-2.898.013-3.6-.383-4.501-1.289-3.004M481.853 709.255c-.008 2.2.388 3.401.99 3.003.6-.298 1.005-1.696 1.01-2.996s-.39-2.702-.989-3.004c-.598-.402-1.003.797-1.01 2.997M558.345 711.535c-.404 1.098-1.71 2.994-2.815 4.19-1.807 1.993-1.808 2.293-.408 2.298 2.1.008 5.016-4.382 4.424-6.684-.394-1.701-.494-1.602-1.2.196M481.82 718.154c-.007 2 .487 3.602.987 3.604.6.002 1.005-1.296 1.011-2.896.006-1.7-.388-3.302-.987-3.604-.598-.402-1.003.796-1.01 2.896M546.11 721.19c-1.903.893-3.21 2.788-2.01 2.793.8.003 6.711-3.176 6.713-3.576.002-.7-2.4-.308-4.703.783M481.783 728.354c-.008 2.1.388 3.302.99 2.904.6-.298 1.007-1.896 1.013-3.596.006-1.6-.39-2.902-.99-2.904-.5-.002-1.005 1.596-1.013 3.596M533.582 728.744c-1.603.894-2.807 1.99-2.809 2.49-.003.9 5.607-1.88 6.512-3.276.906-1.497-.596-1.202-3.703.786M643.472 731.747c-.404.999-2.806 1.69-6.708 2.175-6.903.775-11.012 3.26-11.025 6.86-.016 4.2 2.281 5.009 10.786 3.84 4.702-.683 8.302-.77 9.4-.166 2.795 1.51 5.597 1.02 7.205-1.273 2.312-3.292 2.03-8.093-.661-10.603s-8.19-3.03-8.997-.833m7.993 1.93c.398.6.097.7-.7.197-.999-.604-1.1-.204-.608 1.898.395 1.501.19 2.6-.41 2.598a1 1 0 0 0-1.003.996c-.002.5.696 1.003 1.596 1.006 2.4.01 1.091 2.504-1.51 2.795-1.3.195-2.798-.41-3.594-1.513-1.991-2.508-1.871-8.007.133-9.1 1.904-1.093 5.102-.481 6.096 1.122m-9.517 4.665q.439 3.001-.911 2.996c-.8-.003-1.296-1.205-1.29-3.005.007-1.7.412-2.998.912-2.996s1.095 1.304 1.289 3.005m-8.004.97c.293 1.901.09 2.9-.61 2.698-1.398-.405-2.079-5.708-.779-5.703.5.002 1.195 1.404 1.389 3.005m4 .015c.293 1.9.09 2.9-.61 2.698-1.398-.406-2.079-5.708-.779-5.703.5.002 1.195 1.404 1.389 3.005m15.805-1.442c0 .3-.201.499-.501.498s-.5-.202-.499-.502.202-.5.502-.498c.3.001.5.202.498.502M481.752 736.754c-.005 1.6.49 3.002.99 3.004.6.002 1.005-1.396 1.01-2.996.007-1.7-.389-3.002-.989-3.004-.5-.002-1.004 1.296-1.01 2.996M520.855 735.998c-1.804 1.093-3.108 2.288-2.81 2.59.6.502 7.713-3.372 7.717-4.272s-1.6-.306-4.907 1.682M608.35 737.518c-4.03 8.486 4.934 18.019 11.356 12.242 2.708-2.39 2.727-7.49.027-7.5-1-.004-2.403.891-3.007 1.99-1.51 2.894-3.01 2.488-2.997-.812.009-2.5.41-2.898 3.01-2.889 4 .015 4.603-.783 2.614-3.79-1.292-2.005-2.49-2.51-5.49-2.52-3.4-.013-4.102.385-5.513 3.28m9.401-.265c-.001.5-.702.697-1.501.394-3.595-1.413-5.815 4.179-3.532 8.687 1.192 2.105 3.991 2.515 5.798.722.903-.897 1.203-.896 1.2-.096-.003.7-.906 1.497-2.007 1.793-3.504 1.087-5.898-.422-7.083-4.426-1.482-5.106.03-8.1 4.13-8.085 1.7.006 2.998.41 2.995 1.01M573.233 742.09c-2.706 1.69-5.612 3.38-6.414 3.876-1.202.696-.409 2.399 3.667 9.014 4.872 7.618 5.169 8.619 5.147 14.619-.02 5.3-.324 6.499-1.826 6.893-1.101.396-2.906 1.69-4.11 2.985-2.31 2.392-2.311 2.892-2.287 23.692.11 24.4-.088 23.9 8.505 25.831 2.997.711 5.694 1.721 5.992 2.222 1.392 2.105 6.098.522 16.52-5.64 9.822-5.763 11.025-6.76 11.035-9.259.005-1.6.712-3.397 1.615-4.194 3.009-2.39 4.425-6.784 4.45-13.384l.023-6.5 18.5.068c11.7.043 18.501-.332 18.503-.932.003-.6-6.796-1.025-18.496-1.068l-18.5-.068.04-10.8c-.058-11.6-.453-12.902-5.444-15.42-4.89-2.518-9.289-2.934-12.595-1.346-2.906 1.59-2.906 1.59-2.892-2.01.007-2-.88-5.604-1.97-8.108-1.192-2.404-1.783-4.906-1.481-5.405.402-.599-.896-1.004-2.896-1.011-1.9-.007-3.802.386-4.104.985s.396 1.001 1.796 1.007c1.7.006 2.797 1.01 4.087 3.715 2.183 4.708 3.153 12.811 1.65 13.706-.702.497-1.099-.504-1.09-2.904.008-2.2-.387-3.402-.989-3.004-.5.298-1.009 2.396-1.016 4.496-.013 3.4-.416 4.199-3.02 5.49-3.006 1.588-3.006 1.588-2.99-2.912.014-3.7.518-4.798 2.724-6.39 3.51-2.587 2.315-4.091-1.294-1.704-2.205 1.391-2.806 1.49-3.502.387-1.193-1.905-1.082-4.904.018-4.9 1.6.006 2.214-3.592 1.224-6.396-.595-1.402-.69-2.602-.19-2.6s.703-.898.407-2c-.69-2.602.109-2.499 2.699.21 1.593 1.807 1.993 1.908 1.998.608.009-2.5-2.783-4.81-5.783-4.821-1.5.094-4.905 1.382-7.71 2.972m6.495 1.523c-.003.9-.604 1.198-1.503.795-.899-.303-2.4.191-3.404 1.088-1.003.896-2.105 1.292-2.503.89-.897-1.003 3.415-4.187 5.715-4.279.9.004 1.698.707 1.695 1.506m-.43 7.999c-.807 2.197-3.602.587-3.592-1.913.004-1.3.31-2.6.71-2.898 1.004-.996 3.588 3.214 2.883 4.811m-5.002.682c1.591 2.405 3.38 5.412 4.075 6.715 1.49 2.805 1.745 15.106.245 15.1-.6-.002-.99-2.603-.979-5.803.02-5.1-.475-6.702-3.756-11.814-5.568-8.72-5.47-8.42-3.87-8.414.8.003 2.694 1.91 4.285 4.216m35.85 13.831c2.993 1.711 2.993 1.711 3.226 20.112.225 20.401-.284 22.8-5.193 25.381-1.803.894-7.516 4.273-12.728 7.554-15.235 9.444-15.035 9.445-20.927 7.423l-4.994-1.618-.226-20.201c-.16-11.101.077-21.2.481-22.299.507-1.698 13.538-10.35 15.538-10.343.3.001 1.804-.993 3.508-2.087 9.625-6.865 14.629-7.746 21.315-3.922m-2.884 50.19c-.308 2.099-7.326 6.973-17.044 11.938-3.607 1.786-3.807 1.786-3.8.186.003-1.2 3.112-3.589 9.025-7.067 4.911-2.982 9.221-5.767 9.623-6.265 1.006-1.696 2.503-.891 2.196 1.208"/><path d="M596.109 776.174c-6.615 3.876-12.127 7.355-12.33 7.955-.504 1.298 2.5.209 6.008-2.178 1.404-.995 2.907-1.79 3.207-1.789.4.002 3.607-1.786 7.215-3.973s7.014-3.975 7.414-3.973c.4.001 1.303-.695 2.006-1.493 2.51-2.99-1.495-1.405-13.52 5.45M571.584 782.884c-.003.7 6.284 4.223 7.484 4.227 1.6.006.008-2.1-2.687-3.41-3.493-1.812-4.793-2.017-4.797-.817M579.259 789.812c-.907 1.697-.324 33.8.675 34.003.6.202 1.022-5.897 1.062-16.796.056-15.3-.329-19.502-1.737-17.207M508.531 742.653c-1.603.894-2.807 1.99-2.81 2.49-.002.7 3.704-.987 7.012-3.175 2.707-1.89-1.195-1.304-4.202.685M482.428 743.457c-1.104.996-.819 5.097.279 5.8.598.403 1.003-.795 1.01-2.895.014-3.7-.185-4.101-1.29-2.905M598.727 743.983c-1.401.195-2.903.79-3.405 1.288-1.304 1.195 4.396 1.216 6.3.023 1.704-1.094.307-1.8-2.895-1.31M496.507 749.209c-2.808 2.09-2.11 2.792 1.196 1.104 1.703-.894 3.006-1.79 3.007-1.99.004-1-2.498-.408-4.203.886M558.7 751.036c-1.102.696-.703.998 1.797 1.007 1.7.006 3.202-.488 3.204-.988.004-1.3-2.996-1.311-5-.019M585.701 750.935c-.007 1.9 1.881 5.207 2.981 5.211 1.5.006 1.204-1.195-.985-4.003-1.095-1.404-1.993-1.908-1.996-1.208M481.699 751.454c.188 3.201 5.979 5.722 7.487 3.328.403-.599-.496-1.002-1.996-1.008-1.4-.005-2.797-.71-3.094-1.511-.595-1.502-2.393-2.109-2.397-.809M546.494 752.692c-1 .196-1.803.893-1.805 1.493-.002.5.697.703 1.598.406s2.903-.59 4.503-.583c1.6.005 2.901-.49 2.903-.99.004-1-3.995-1.215-7.199-.326M533.184 755.443c-2.303.992-2.605 1.39-1.005 1.396 3.1.112 6.504-.976 5.907-1.978-.695-1.203-1.296-1.105-4.902.582M517.976 757.587c-1.8.194-3.303.888-3.305 1.488-.005 1.3 6.899.325 8.404-1.17 1.104-1.095 1.104-1.095-5.099-.318M500.664 760.824c-1.102.696-.403.998 2.797 1.01 2.3.009 4.201-.485 4.203-.985.005-1.3-4.995-1.318-7-.025M484.153 763.763c-1.802.794-1.803.894.497.802 1.4.005 3.602-.387 5.003-.782 2.403-.79 2.403-.79-.497-.801-1.6-.006-3.9.285-5.003.781M456.85 764.863c-1.807 1.794-1.42 5.295.673 7.203 3.987 3.614 7.199.226 5.722-5.98-.69-2.602-4.288-3.315-6.396-1.223m3.584 4.213c.292 2.002-.01 2.7-1.009 2.397-.699-.303-1.394-1.705-1.588-3.206-.293-2.001.01-2.7 1.009-2.396.698.302 1.393 1.705 1.588 3.205M470.147 765.412c-4.103.985-4.11 2.585-.007 1.9 2.201-.292 4.602-.583 5.302-.58.6.002 1.202-.496 1.204-.996.004-1-2.896-1.11-6.499-.324M653.989 781.686c-.303.799-.32 5.599-.24 10.8l.266 9.4 40.5.149 40.5.148.339-10.799.34-10.699-40.6-.148c-32.8-.12-40.701.15-41.105 1.149m79.365 9.69-.332 8.8-38.5-.141-38.5-.141-.268-8.802-.268-8.7 39.1.143 39.1.143z"/><path d="M661.177 785.012c-2.108 1.993-3.022 5.79-2.233 8.892.69 2.903 4.884 4.418 7.09 2.526 3.21-2.588.634-8.998-2.971-7.61-.901.296-1.5-.006-1.497-.906.006-1.7 2.607-1.99 3.502-.487.398.601 1.097.804 1.598.405 1.203-.695.308-2.098-2.087-3.407-1.398-.705-2.298-.609-3.402.587m3.87 8.015c-.003 1-.807 1.997-1.708 2.193-1.8.294-2.59-2.71-1.084-4.204 1.204-1.095 2.8.01 2.792 2.01M670.973 785.948c-2.208 2.192-2.512 3.291-2.122 6.192.978 5.804 5.373 7.22 8.29 2.83 1.005-1.595 2.308-2.39 3.307-1.987.899.203 2.3.008 3.101-.489 1.203-.795 1.204-.995-.394-1.601-.998-.404-2.599-.21-3.6.287-1.304.895-1.903.693-2.897-.91-.796-1.304-1.894-1.808-3.195-1.513-1.001.297-1.9.093-1.898-.407.005-1.6 2.908-2.189 4.503-.883 1.196 1.004 1.497.905 1.5-.295.004-.9-.891-2.103-1.99-2.707-1.696-.906-2.497-.61-4.605 1.483m4.278 6.116c.792 2.103-1.315 4.195-2.81 2.69-1.295-1.305-.484-4.302 1.116-4.296.6.002 1.297.704 1.694 1.606"/><path d="M686.574 785.705c-2.51 2.691-2.512 3.291-.02 5.8 1.195 1.205 2.593 1.71 3.594 1.314 1.202-.396 1.501-.195 1.197.804-.303.899-1.604 1.294-3.304 1.088-2.499-.31-2.7-.11-1.604 1.194 1.792 2.107 3.693 2.014 6.001-.278 1.907-1.893 6.907-1.775 8.3.23.397.602 1.298.305 2.502-.79 1.305-1.296 1.407-1.995.509-2.299-.7-.202-1.193-2.104-1.185-4.304.008-2.1-.385-3.901-.885-3.903s-2.307 1.891-4.016 4.185c-2.914 3.89-3.114 3.989-3.106 1.689.01-2.5-3.175-6.912-4.975-6.919-.5-.001-1.803.994-3.008 2.19m4.99 2.819c-.005 1.3-.707 1.997-2.007 1.992-1.3-.004-1.998-.707-1.993-2.007s.707-1.997 2.007-1.993 1.998.708 1.993 2.008m8.586 3.731c-1.104 1.096-1.897-.607-1.09-2.404.805-1.697.805-1.697 1.2.005.296 1 .192 2.1-.11 2.4M705.575 785.575c-.002.5 1.396 1.005 2.996 1.011 1.7.006 3 .211 2.998.511 0 .2-1.008 2.296-2.116 4.492-2.115 3.993-2.121 5.793-.017 4.5.602-.298 1.106-1.396 1.109-2.296s.91-2.796 2.015-4.192c3.115-3.889 2.519-4.991-2.481-5.01-2.5-.009-4.502.384-4.504.984M587.6 860.343l-10.323 6.162-.03 8.2c-.016 4.5.267 9.001.564 9.902.397.902 2.69 2.71 5.285 4.02 12.376 6.645 12.575 6.846 12.358 11.645-.435 9.499 1.435 45.106 2.43 46.31.598.702.794 1.602.393 1.9-.301.4-10.202.663-22.002.62-13.5-.05-21.302.322-21.304.922s8.396 1.03 23.296 1.086c12.8.046 23.699.486 24.297.989.498.501 2.693 1.91 4.888 3.218 2.196 1.208 9.181 5.133 15.468 8.756 16.167 9.16 34.626 20.227 36.121 21.633 2.99 2.91 10.67 8.339 14.463 10.253 2.895 1.41 4.29 2.816 4.683 4.617.392 2.002 1.987 3.407 6.978 6.026 5.988 3.122 6.788 3.325 8.792 2.032 1.303-.795 5.412-3.18 9.32-5.266 9.419-5.165 10.021-5.863 10.04-10.963.015-4-.284-4.401-4.475-6.717-2.495-1.409-6.99-2.825-9.989-3.236-3.698-.414-7.293-1.827-10.785-4.04-4.889-3.018-5.588-3.22-8.592-2.131-1.803.693-5.905 1.178-9.205 1.166-5-.018-6.798-.525-10.688-3.04-2.594-1.709-4.89-3.017-5.09-3.018-.3-.001-20.358-11.275-23.55-13.286-1.398-.805-5.39-3.12-8.982-5.033-11.378-6.142-13.772-7.85-14.762-10.654-1.188-3.105-1.507-52.606-.435-72.203.746-12.497.746-12.497-2.447-14.309-1.697-.906-3.894-1.714-4.794-1.717s-6.31 2.777-11.923 6.156m10.7.14c-.003.7-2.71 2.79-5.917 4.478-6.513 3.476-7.113 3.674-7.108 2.274.003-.8 11.53-7.958 12.83-8.053.1 0 .197.6.195 1.3m6.97 8.125-.03 8.4-8.118 4.57c-4.509 2.484-8.616 4.569-9.016 4.567-.5-.002-.887-3.603-.871-8.003.03-8 .03-8.1 3.136-9.789 1.703-.893 5.411-3.08 8.217-4.77 2.907-1.789 5.512-3.18 6.012-3.278.4-.098.687 3.703.67 8.303m-21.704.92c1.296 1.105 1.69 2.907 1.667 9.007-.025 6.9-.227 7.599-1.927 7.593-2.8-.01-3.196-1.112-3.564-10.014-.369-8.401.134-9.3 3.824-6.586m20.656 12.176c-.001.3-.202.5-.502.498-.3 0-.5-.201-.498-.501.001-.3.202-.5.502-.499s.5.202.498.502m-2.714 3.69c.194 1.801.288 3.501-.014 3.8-.702.798-2.29-2.408-2.282-4.808.013-3.4 1.71-2.594 2.296 1.008m-4.299-.215c-.002.5-.503.998-1.103.995-.5-.001-.699-.502-.397-1.001.302-.599.804-.997 1.104-.996.2 0 .398.402.396 1.002m-1.41 2.594c1.397.905 2.891 2.511 3.487 3.613.795 1.503.096 1.3-2.996-.91-5.387-3.72-5.778-6.122-.49-2.703m-1.215 4.296c-.602.598-5.392-2.12-5.39-3.02.003-.5 1.3.005 2.898.91 1.596.907 2.793 1.911 2.492 2.11m6.576 6.624c-.001.3-.202.5-.502.498-.3 0-.5-.202-.498-.502 0-.3.202-.499.502-.498s.499.202.498.502m2.62 21.71c.122 21.4.613 23.802 5.899 27.622 2.394 1.708 23.25 13.585 43.21 24.658 7.884 4.33 8.083 4.53 6.675 6.825-.604.997-1.607 1.894-2.207 1.892-.5-.002-7.286-3.727-14.97-8.155-13.471-7.95-17.862-10.366-27.443-15.701-8.582-4.831-13.868-8.75-15.059-11.255-.893-1.804-1.365-9.405-1.613-23.806-.327-19.902-.222-21.101 1.58-21.595 1-.196 2.301-.391 2.8-.19.6.103 1.072 7.605 1.128 19.705m83.482 59.706c4.69 2.617 6.584 4.424 4.684 4.417-1.6-.005-11.08-5.44-11.077-6.34.004-1.2 1.603-.794 6.393 1.923m-20.21 2.526c-1.003.996-6.2-.023-6.195-1.123.005-1.6 1.306-1.895 4.203-.884 1.798.606 2.595 1.41 1.992 2.007m4.808-2.182c-.001.5-.403.998-.903.996-.6-.002-1.298-.504-1.597-1.005-.297-.601.104-1 .904-.997.9.003 1.599.406 1.596 1.006m10.496 1.338c2.593 1.81 3.19 2.612 2.287 3.509-1.706 1.693-3.606 1.486-7.596-1.028-3.193-2.012-3.292-2.212-1.588-3.506 2.407-1.791 3.007-1.689 6.897 1.025m-5.218 4.681c3.793 2.114 5.387 3.62 4.984 4.518q-.456 1.499 1.194 1.505c2.3.008 10.481 5.238 10.476 6.638-.002.7-1.205 1.396-2.606 1.69-3.402.588-9.39-2.834-9.38-5.434.007-1.9-6.974-7.125-11.169-8.54-2.098-.608-2.487-3.41-.488-3.402.7.002 3.895 1.414 6.99 3.025m-13.298-.549c.697.803.795 1.503.195 1.501-.5-.002-1.498-.705-2.195-1.508-.697-.802-.794-1.503-.194-1.5.5.001 1.497.705 2.194 1.507m42.998.658c2.196 1.108 3.691 2.514 3.488 3.313-.302.599-3.41 2.687-7.016 4.474l-6.513 3.376-4.59-2.917c-2.494-1.509-4.687-3.217-4.785-3.717.001-.5 1.106-1.796 2.51-2.79 2.607-1.991 2.607-1.991 8.296 1.13 3.592 2.013 5.59 2.72 5.593 1.92.002-.7-1.792-2.207-3.989-3.215-2.196-1.108-3.991-2.314-3.99-2.814.006-1.5 7.104-.774 10.996 1.24m-18-.166c-.001.5-.704 1.197-1.605 1.494-2.403.891-2.802.69-1.396-.905 1.406-1.695 3.007-1.989 3.002-.589m-15.415 4.144c4.99 2.818 6.782 4.924 4.382 4.916-2.8-.01-10.98-5.44-10.973-7.24.005-1.3.904-.997 6.591 2.324m33.879 5.924c-.906 1.496-11.826 7.156-12.424 6.454-.299-.3.104-1 .905-1.396.802-.497 3.308-1.988 5.513-3.38 4.109-2.485 7.112-3.274 6.006-1.678m-21.72 5.22c3.593 2.013 5.683 4.821 3.483 4.813-1.6-.106-8.683-4.532-9.079-5.833-.493-1.702.706-1.498 5.597 1.02m7.884 4.53a1.2 1.2 0 0 1-1.4-.006c-.298-.401.003-.7.703-.697.7.002.999.303.697.702M389.512 856.617c-.702.698-1.208 2.396-1.213 3.796-.007 1.8-.912 3.096-3.016 4.289-4.81 2.882-5.816 4.278-5.33 8.08.384 4.402-.817 4.597-6.003.978-2.993-2.01-3.59-2.813-2.686-3.91.803-.997.807-1.897.112-3.3-1.092-2.103-9.374-7.234-11.674-7.242-1.5-.006-15.73 8.142-18.64 10.732-1.002.796-1.81 2.793-1.815 4.393-.01 2.9-1.714 3.694-3.806 1.586-1.395-1.405-3.701.286-5.816 4.279-1.712 3.293-1.962 16.993-.368 18.599.698.702 1.897.806 3.8.013 2.403-.89 3.802-.486 10.19 2.938 6.586 3.624 7.383 4.427 7.673 7.228.287 3.401 1.785 4.007 5.292 2.22 1.703-.994 1.908-2.194 1.943-11.894.031-8.4-.259-11.1-1.455-12.105-1.994-1.607-1.886-4.007.114-4 1.5.006 20.066 9.374 21.66 10.98.499.502-.11 2.6-1.217 4.695-1.108 2.096-4.032 8.786-6.654 14.876-2.522 5.991-6.052 13.978-7.765 17.672-3.125 6.688-3.225 6.788-7.025 6.774-2.4-.009-3.702.387-3.304.988.298.501 2.397 1.009 4.497 1.016 3.7.014 4.1-.284 6.117-4.777 1.21-2.596 3.226-7.088 4.537-9.984s2.42-5.49 2.42-5.69c.002-.3 1.615-3.995 3.63-8.187 2.016-4.293 4.335-9.385 5.142-11.382 1.11-2.796 2.214-3.792 4.416-4.284 1.701-.293 4.306-1.484 5.91-2.578 1.504-1.094 3.307-1.988 3.807-1.986 1.5.006 3.12-5.289 2.53-8.29-.393-1.902.01-2.9 1.112-3.297 1.302-.495 1.608-2.194 1.636-9.794-.065-9.4-.56-11.002-4.75-13.417-2.695-1.51-2.495-1.51-4-.015m-24.525 6.91c2.096 1.208 3.992 2.315 4.19 2.516.2.1-.404 1.198-1.408 2.294-2.309 2.492-1.412 3.495 6.173 7.523 2.795 1.41 5.388 3.32 5.685 4.121.891 2.303.665 9.403-.235 9.4-.4-.002-4.991-2.32-10.181-5.038-5.19-2.82-12.376-6.546-15.97-8.359-6.288-3.123-9.58-5.435-8.877-6.232 1.706-1.594 13.83-8.35 15.13-8.345.901-.097 3.397.913 5.493 2.12m31.275 6.815c-.014 4-.523 6.298-1.526 7.094s-1.51 2.995-1.523 6.395c-.019 5.1-.12 5.3-4.128 7.485-5.411 3.08-5.908 2.278-5.86-10.622l.036-10.1 5.713-3.579c3.107-1.888 6.012-3.278 6.511-2.976.4.301.789 3.103.777 6.303m-49.025 6.92c3.293 1.712 3.99 2.615 3.982 4.915-.006 1.6.686 3.602 1.483 4.405 1.296 1.305 1.295 1.605-.01 2.7-1.003.897-1.511 3.195-1.527 7.595-.013 3.5-.424 6.398-.824 6.397-.4-.002-3.794-1.614-7.487-3.628l-6.687-3.524.031-8.5c.03-8.1.131-8.4 2.23-8.092 1.7.106 2.402-.391 2.608-2.09.41-2.699 1.21-2.696 6.2-.178m8.49 2.831c-.704.798-3.498-.712-3.494-1.812.002-.6.702-.598 2 .207.996.704 1.694 1.406 1.493 1.605m-21.533 8.622c-.034 9.5-1.441 11.394-2.411 3.19-.969-8.603-.757-11.702.943-11.696 1.2.005 1.494 1.606 1.468 8.506m21.755 12.38c-.439 10.698-2.24 11.191-2.603.79-.268-8.601.243-11.6 1.937-9.893.498.502.883 4.603.666 9.102m24.93-8.01c-.401.3-.7-.002-.698-.702s.304-.999.703-.697a1.2 1.2 0 0 1-.005 1.4"/><path d="M387.364 869.81c-1.908 2.292-1.033 8.996 1.265 9.504 2.898.51 4.408-2.184 3.724-6.586-.685-4.103-2.88-5.411-4.989-2.919m2.885 4.11c-.007 1.9-.413 3.498-1.013 3.496-1.1-.004-1.38-5.305-.277-6.3 1.105-1.197 1.303-.796 1.29 2.804M341.41 884.441c-.702.697-1.213 3.596-1.224 6.496-.02 5.6 1.473 7.505 5.076 6.618 2.703-.69 2.738-10.29.146-12.6-2.192-2.007-2.492-2.009-3.998-.514m3.667 9.013c.188 3.301-1.706 1.794-2.294-1.708-.883-4.503.627-7.298 1.511-2.994.395 1.601.686 3.802.783 4.702M322.54 903.572c-1.003.796-1.606 1.694-1.208 2.096.797.802 4.805-1.283 4.81-2.483.004-1.4-1.296-1.205-3.602.387M313.12 909.137c-1.405 1.095-2.008 1.993-1.408 1.995 1.6.006 6.409-2.376 6.412-3.276.005-1.3-2.497-.71-5.005 1.281M303.6 914.603c-1.605 1.294-2.61 2.39-2.21 2.492 1.4.005 6.712-3.276 6.716-4.176.005-1.4-1.397-.905-4.507 1.684M293.478 920.466c-1.003.796-1.706 1.593-1.407 1.894.797.803 5.004-1.081 5.008-2.281.005-1.4-1.295-1.305-3.601.387M266.255 926.766c-.903.596-1.214 3.795-1.046 12.296l.259 11.401 42 .154 42 .154.339-10.899c.122-6-.059-11.3-.557-11.802-1.195-1.204-81.391-2.498-82.995-1.304m81.254 12.498-.035 9.5-40.2.152-40.3.053.036-10 .036-10 40.3.347 40.198.448z"/><path d="M270.63 933.482c-1.313 3.395-.634 9.198 1.26 10.905 2.79 2.61 6.299.323 5.914-3.879-.191-2.4-.788-3.103-2.988-3.31-1.699-.207-2.796-.911-2.793-1.911.005-1.2.705-1.397 3.104-.889 2.198.408 2.899.211 2.702-.69-.693-1.902-6.392-2.123-7.2-.226m5.179 5.719c.697.702.794 1.703.09 2.9-1.31 2.495-3.905 1.286-3.894-1.714.009-2.5 1.811-3.193 3.804-1.186M281.231 933.22c-2.007 1.993-1.534 9.195.858 11.404 2.791 2.51 5.397.82 5.414-3.68.01-3-.388-3.402-2.687-3.71-1.599-.206-2.796-.91-2.793-1.81.006-1.7 3.106-1.789 4.9-.182.997 1.103 1.197.904.903-.697-.391-2.402-4.688-3.217-6.595-1.324m4.777 6.318c.995 1.204.993 1.804-.01 2.9-1.407 1.795-4.004.986-3.996-1.314.012-3.2 2.015-3.993 4.006-1.586M297.23 933.28c-.702.697-1.206 1.995-1.21 2.895-.008 2.2 3.682 4.913 5.585 4.22 1.602-.594 1.798.507.39 2.702-.704 1.197-1.204 1.195-2.2.192-1.396-1.405-2.795-1.61-2.8-.21-.002.5.994 1.503 2.192 2.108 1.797 1.006 2.397.808 4.004-1.086 2.01-2.492 2.426-7.09.837-10.097-1.192-2.104-4.99-2.518-6.797-.725m5.79 2.72c-.009 2.7-1.912 3.594-3.706 1.787-1.793-1.807-.886-3.703 1.814-3.693 1.2.004 1.897.707 1.893 1.907M307.63 933.717c-.91 2.397-.711 2.898.593 1.603 1.305-1.296 4.806-1.583 4.802-.383-.002.4-.605 1.398-1.208 2.096-1.103.996-.905 1.497.69 2.702 1.796 1.307 1.795 1.507.189 3.101-1.506 1.595-1.806 1.494-3.7-.213-1.793-1.607-1.993-1.608-1.999-.208-.008 2.4 3.486 4.013 5.99 2.722 1.704-.894 2.007-1.792 1.625-6.794-.188-3.1-.478-5.802-.478-6.002-.396-1.001-6 .078-6.505 1.376M317.925 934.855c-2.423 6.391 1.95 13.507 6.165 9.723 1.003-.896 1.909-2.493 1.912-3.493.009-2.2-3.682-4.914-5.784-4.221-1.002.396-1.3.095-.997-.804.303-.799 1.705-1.394 3.205-1.388 3.4.112 2.807-1.89-.692-2.303-2.199-.308-2.9.19-3.809 2.486m5.88 5.722c.393 1.701-1.214 3.495-3.014 3.589-1-.004-1.986-3.808-1.282-5.005 1.007-1.696 3.903-.686 4.295 1.416M331.329 933.904c-.304 1-1.414 3.895-2.424 6.492-1.817 4.693-1.025 6.696 1.09 2.804 1.41-2.695 4.409-2.484 6.299.223 2.188 3.208 2.198.608-.08-5.6-1.88-5.308-3.774-6.915-4.885-3.919m2.688 3.31c-.004 1.1-.408 1.999-1.008 1.997-.5-.002-.996-.904-.992-2.004s.507-1.998 1.007-1.996c.6.002.997.903.993 2.003M290.006 940.053c-.002.5 1.096 1.004 2.496 1.01 1.4.004 2.502-.492 2.504-.992.002-.6-1.096-1.004-2.496-1.009s-2.502.39-2.504.99M488.51 939.48c-18.802.332-17.298-.663-17.042 11.138.18 5.5.562 10.502.96 11.104.596 1.002 39.997.846 60.001-.28 3.9-.186 10.002-.364 13.802-.45l6.7.025.04-11.1.04-11-25.7.206c-14.2.148-31.601.284-38.802.357m62.461 10.53-.033 9-11.2-.042c-6.2-.022-15.8.142-21.301.422-5.501.18-17.803.635-27.204.9l-17.302.437-.174-7c-.086-3.9-.17-8.001-.166-9.301-.092-2.1.208-2.2 12.41-2.655 6.901-.274 24.302-.61 38.803-.657l26.2-.104z"/><path d="M489.29 944.883c-1.402.495-2.408 1.992-2.816 4.29-1.324 6.595 2.06 10.908 6.27 8.023 3.71-2.586 2.331-8.391-1.969-8.407-1-.004-1.798-.507-1.796-1.107.003-.7 1.004-.896 2.503-.69 2.698.61 3.301-.288 1.307-1.996-.798-.603-2.198-.608-3.5-.113m3.169 8.412c-.004 1.1-.808 2.097-1.709 2.294-1.4.295-1.798-.307-1.791-2.307s.41-2.598 1.808-2.293c.9.203 1.696 1.206 1.692 2.306M503.384 946.335c-2.815 4.29-.741 11.397 3.258 11.512 2.2.008 4.312-3.184 4.324-6.584.026-7.1-4.263-9.916-7.582-4.928m5.385 4.12c.385 4.201-2.223 6.392-3.812 3.386-1.59-3.006-.374-7.202 1.825-6.793 1.1.204 1.795 1.406 1.987 3.407M514.29 944.575c-.8.297-1.309 2.595-1.322 6.295-.02 5.3.179 5.8 2.377 6.209 4.197.815 5.603-.78 5.522-5.98-.176-6.5-2.07-8.407-6.576-6.524m4.49 3.016c.197.801-.505 1.299-1.705 1.294s-2.098-.607-2.094-1.607c.007-1.8 3.105-1.49 3.799.313m.178 5.901c-.003.8-.905 1.397-2.005 1.393-1.9-.007-2.693-1.91-1.388-3.305 1.004-.897 3.399.412 3.393 1.912M524.189 945.111c-1.405 1.395-1.631 8.594-.339 10.6.497.8 2.096 1.207 3.696 1.013 2.201-.192 3.004-.99 3.713-3.387 1.722-5.893-3.457-11.812-7.07-8.226m4.79 2.818c1.49 2.805.174 7-2.126 6.992-1.5-.005-1.897-.707-1.886-3.807.02-5.4 2.026-6.992 4.012-3.185M477.083 946.639c-2.315 4.191-.244 12.099 3.256 12.112 1.7.006 4.612-3.283 4.619-5.183.007-2-3.581-5.214-4.884-4.318-.602.297-1.1-.104-1.097-.904.007-1.9 2.108-2.093 3.901-.386.996 1.104 1.197.904.903-.697-.49-2.802-5.288-3.32-6.698-.624m5.675 6.82c.494 1.702-2.61 2.89-4.005 1.486a1.824 1.824 0 0 1-.292-2.201c.905-1.397 3.703-.887 4.297.715M496.465 951.71c-.302.499-.105 1.2.394 1.501 1.197.805 4.101-.285 4.106-1.485s-3.696-1.213-4.5-.016M259.404 940.44c-1.604 1.195-1.605 1.395-.305 1.5.9.003 2.202-.692 2.905-1.49 1.607-1.894.007-1.9-2.6-.01M249.786 945.506c-3.808 1.986-3.615 3.886.093 1.9 3.005-1.49 4.913-3.482 3.413-3.488-.4.099-2.003.793-3.506 1.588M239.162 951.867c-2.608 2.39-2.714 3.89-.824 6.597 1.891 2.507 3.096 1.211 1.406-1.595-1.193-1.905-.991-2.404 1.717-4.594 2.006-1.593 2.509-2.39 1.409-2.395-.8-.003-2.504.891-3.708 1.987M424.16 952.845c-1.205 1.295-2.211 2.992-2.214 3.792-.003.9-1.11 2.496-2.513 3.69-1.906 1.593-2.512 3.191-2.523 6.091-.01 2.9.683 4.703 2.476 6.51 2.092 2.207 2.488 3.408 2.468 8.808-.123 6.3-.123 6.3-7.539 10.573-4.108 2.385-7.517 4.672-7.519 5.172s-7.318 4.974-16.237 10.04c-9.018 5.068-17.536 9.937-19.04 11.031-1.905 1.293-4.207 1.785-7.906 1.671-4.3-.216-5.5.08-7.108 1.974-1.004 1.297-1.81 2.894-1.812 3.494-.003.7-1.309 2.195-3.013 3.389-1.605 1.294-3.01 2.889-3.013 3.689-.004 1.1-1.906 1.493-8.207 1.67-10.601.36-10.908 2.16-.41 2.598 7.5.327 7.9.429 11.186 3.941 2.49 2.61 3.788 3.314 5.09 2.819 3.406-1.488 8.306-1.67 9.802-.464 1.196 1.004 1.896 1.007 3.3-.088 3.41-2.588 6.222-5.778 6.227-7.278.003-.8 1.407-1.994 3.01-2.788 1.703-.694 3.006-1.59 3.008-1.99.001-.5.502-.798 1.102-.795.6.002 3.006-1.39 5.411-2.98 2.407-1.692 4.611-2.984 4.911-2.983s5.11-2.68 10.622-5.96 10.722-5.962 11.422-5.959c2.5.01 22.644-12.017 24.254-14.511 1.206-1.696 1.618-5.094 1.647-12.894.132-8.7.44-10.999 2.048-12.993 2.612-3.39 2.432-8.79-.658-11.602-1.295-1.305-2.489-3.01-2.486-3.71s-1.092-2.403-2.487-3.709c-3.287-3.412-10.187-3.537-13.299-.248m10.593 1.939c-.31 2.498-4.314 3.684-6.007 1.978-1.893-1.907.015-4.2 3.215-4.189 2.7.01 3.099.312 2.792 2.21m-8.805 1.267c-.003.8.893 1.904 2.091 2.508 2.894 1.61 1.692 2.306-1.503.894-2.496-1.209-3.682-4.913-1.582-4.905.6.002.997.703.994 1.503m5.376 6.52c1.9.007 3.802-.486 4.104-.985 1.106-1.696 3.504-1.087 3.497.913-.01 2.7-3.719 5.086-7.819 5.071-4.7-.017-7.194-1.626-7.183-4.626.008-2.1.308-2.299 1.905-1.393 1.098.504 3.496 1.013 5.496 1.02m-9.209 2.466c.196 1.101 1.99 2.808 4.186 3.916 3.594 1.713 4.193 1.815 7.998.429 2.904-.99 4.61-2.383 5.818-4.779 1.41-2.795 1.811-3.093 2.406-1.59 2.08 5.407-7.138 10.373-15.731 8.441-5.196-1.219-7.888-3.428-7.877-6.428.016-4.2 2.416-4.192 3.2.011m15.77 8.058c0 .3-.201.5-.501.498-.3 0-.5-.202-.498-.502.001-.3.202-.499.502-.498s.499.202.498.502m-10.303 1.062c-.301.3-1.202.396-1.9.093-.8-.302-.498-.601.602-.597 1.1-.096 1.699.206 1.298.504m12.065 9.445c.186 4-.128 7.7-.63 8.197-.502.499-2.5.091-4.796-1.117-2.096-1.008-5.39-2.52-7.088-3.126-3.096-1.212-3.295-1.512-3.277-6.312.018-5 .018-5 3.316-4.388 1.899.307 4.9.218 6.801-.275 1.902-.393 3.903-.686 4.402-.584.6.202 1.087 3.604 1.272 7.605m-5.833 8.978c2.096 1.108 4.092 2.415 4.39 2.816.696 1.103-2.816 4.39-7.425 6.973-1.904.993-5.111 2.882-7.215 4.074-3.608 2.187-3.608 2.187-4.297-.916-.394-1.701-2.083-4.708-3.676-6.613-1.693-1.907-2.887-3.611-2.686-3.81 5.218-4.781 14.422-5.847 20.91-2.524m-19.438 10.43c2.784 4.31 1.176 6.504-8.845 12.367-5.11 2.881-13.83 7.95-19.242 11.23-9.42 5.565-10.02 5.763-11.815 4.056-.996-.904-1.79-2.406-1.588-3.206.103-.9-.29-2.6-.986-3.703-1.093-2.004-.691-2.503 5.122-6.182 7.418-4.672 17.138-10.337 24.753-14.309 3.006-1.589 5.912-3.278 6.414-3.777 1.204-1.195 4.198.516 6.187 3.523m-47.983 22.523c1.694 1.807 3.584 4.314 4.18 5.516 1.49 2.905 1.372 7.605-.133 9.1-1.707 1.693-4.806 1.482-4.8-.318.004-.8.406-1.499 1.006-1.497.5.002 1.204-1.095 1.61-2.394 1.217-4.995-5.057-11.918-10.061-10.837-1.702.394-1.801.194-.596-1.202 2.11-2.492 5.407-1.88 8.794 1.632m-2.214 3.892c3.285 4.012 2.875 6.811-1.234 9.196-3.206 1.788-3.206 1.788-4.694-1.617-1.685-4.106-3.48-5.513-4.687-3.617-.503.898-1.203.995-1.801.393s-.695-1.503-.292-2.101c.704-1.098 8.019-5.27 9.42-5.366.3.001 1.794 1.407 3.288 3.112m-10.533 8.962c-.008 2.3-1.61 2.494-2.401.291-.99-2.504-.688-3.402.91-2.797.799.403 1.495 1.506 1.491 2.506m2.796 1.01c-.307 1.999-.507 1.898-.896-.903-.293-2.001-.19-2.9.408-2.299.498.502.693 1.903.488 3.202M244.924 962.388c.697.802 1.994 1.507 2.894 1.51 1.3-.095 1.301-.295-.294-1.5-2.593-1.91-4.193-1.916-2.6-.01M254.904 967.924c3.29 2.613 4.79 2.618 2.5.01-.996-1.104-2.493-2.01-3.393-2.013-1.2-.004-.902.597.893 2.003M262.887 972.454c-.002.6 5.587 3.52 6.687 3.524 1.3-.095-4.085-4.015-5.385-4.02-.7-.002-1.3.196-1.302.496M274.261 979.495c1.097.805 2.695 1.51 3.495 1.513 1.3-.095 1.201-.395-.295-1.5-1.097-.805-2.694-1.51-3.494-1.514-1.3.096-1.202.396.294 1.501M282.849 982.927c-.002.5 1.593 1.806 3.489 3.013 1.896 1.107 3.494 1.613 3.495 1.213.002-.5-1.593-1.806-3.489-3.013-1.896-1.107-3.494-1.613-3.495-1.213M292.827 988.864c-.003.8 5.185 4.219 6.485 4.223.3.001.301-.499.003-1-.895-1.403-6.484-4.223-6.488-3.223M303.803 995.504c0 .2 1.595 1.306 3.49 2.513 1.897 1.107 3.495 1.613 3.497 1.113s-1.295-1.605-2.991-2.511c-2.995-1.511-3.994-1.815-3.996-1.115M314.782 1001.144c-.004 1.1 5.884 4.422 6.587 3.724.3-.199-1.095-1.404-3.091-2.511-1.896-1.207-3.494-1.713-3.496-1.213M324.76 1006.98c-.003 1.1 4.088 3.416 4.79 2.818.302-.399-.295-1.3-1.392-2.105-2.094-1.607-3.393-1.912-3.397-.712M335.136 1013.719c1.097.804 2.695 1.51 3.495 1.513 1.3-.096 1.201-.396-.295-1.501-1.097-.804-2.694-1.51-3.494-1.513-1.3.095-1.202.395.294 1.5"/><path d="M346.114 1019.76c1.097.803 2.695 1.509 3.495 1.512 1.1.004 1.001-.396-.495-1.502-.997-.804-2.595-1.41-3.395-1.412-1.1-.004-1 .296.395 1.401M245.4 1023.59c-1.305 1.195-.88 21.797.415 23.102 1.793 1.806 81.093 1.997 82.6.202 1.305-1.495 1.466-18.094.178-21.4-.891-2.302-.891-2.302-41.691-2.452-22.5-.082-41.201.15-41.502.548m79.59 2.492c2.8.11 2.8.11 2.465 9.809l-.336 9.799-40-.147-40-.147-.267-8.9c-.182-4.901-.065-9.4.137-10 .303-.799 11.904-1.057 37.803-.862 20.6.176 38.7.342 40.199.448"/><path d="M250.775 1030.21c-3.02 5.589.45 13.701 4.66 11.117 3.608-2.287 2.23-8.392-1.97-8.407-1.1-.004-1.798-.507-1.495-1.306.202-.6 1.604-1.094 3.104-.988 2.299.208 2.6.009 1.605-1.295-1.793-2.106-4.494-1.716-5.904.879m4.874 7.218c-.007 1.8-.51 2.498-2.01 2.492-1.5-.005-1.997-.707-1.99-2.507.006-1.8.509-2.498 2.009-2.493s1.997.708 1.99 2.508M261.377 1029.749c-2.008 2.192-2.334 9.191-.54 10.998 2.89 2.91 8.202-.67 7.117-4.774-.592-2.102-3.587-3.513-5.29-2.52-.502.299-1-.103-.997-1.003.008-2.1 3.012-3.19 4.005-1.386.498.702 1.197 1.005 1.598.606.903-.796-1.486-3.705-3.086-3.711-.6-.002-1.903.793-2.807 1.79m4.272 7.715c-.01 2.5-2.313 3.492-3.506 1.487-.994-1.603.215-3.999 2.015-3.992.9.003 1.497.905 1.49 2.505M279.574 1030.615c-.606 1.598-1.515 3.995-1.92 5.393-.405 1.399-1.112 3.296-1.515 4.195-.404 1.098-.307 1.799.293 1.8.6.003 1.404-.894 1.708-1.993.91-2.897 6.11-2.778 6.799.225.395 1.201.893 1.903 1.294 1.605.803-.897-2.46-10.91-4.154-12.716-1.095-1.204-1.496-1.005-2.505 1.491m3.088 3.412c-.005 1.1-.708 1.997-1.508 1.994-1.7-.006-1.8-.206-.891-2.403.908-2.297 2.407-1.991 2.399.409M289.676 1030.052c-3.01 2.99-1.026 6.997 3.674 7.014 1.6.006 2.099.408 1.695 1.506-.707 1.797-3.507 1.987-5.201.281-.698-.703-1.197-.804-1.2-.204-.005 1.6 2.188 3.408 4.088 3.415 2.3.008 4.914-3.682 4.926-6.982.011-3.1-2.575-7.01-4.575-7.017-.8-.003-2.303.891-3.407 1.987m4.995 1.519c1.493 1.805.487 3.501-2.113 3.492-1.4-.005-1.898-.707-1.891-2.507.01-2.8 2.112-3.292 4.004-.985M303.677 1029.804c-.002.5-1.108 2.096-2.513 3.69-2.812 3.29-2.818 4.89.08 5.4.999.204 2.496 1.11 3.192 2.012 1.095 1.505 1.195 1.505 1.2.005.004-.9.607-1.798 1.308-2.095 1.002-.397 1.003-.697.007-1.8-.698-.703-1.29-2.805-1.283-4.605.006-1.8-.388-3.301-.988-3.304-.5-.002-1.001.297-1.003.697m.176 6.5c-1.505 1.495-2.601.39-1.793-1.806.505-1.298.905-1.497 1.802-.594s.895 1.504-.009 2.4M270.356 1035.582c-1.405 1.394-.71 2.497 1.292 2.204 1.2-.195 2.103-.792 2.104-1.292.005-1.2-2.393-1.809-3.396-.912M379.646 1038.382c-.004 1.2 2.791 2.51 3.594 1.713.301-.299-.396-1.001-1.494-1.705-1.497-.706-2.097-.708-2.1-.008M387.629 1043.111c-.002.5 1.095 1.304 2.493 2.01 2.895 1.31 3.4-.088.606-1.698-2.296-1.209-3.095-1.312-3.1-.312M397.208 1048.947c.997.803 2.594 1.41 3.394 1.412 1.1.004 1.002-.296-.394-1.401-1.097-.804-2.695-1.51-3.495-1.513-1.1-.004-1.001.396.495 1.502M407.487 1054.484c1.296 1.105 2.793 2.01 3.493 2.013.6-.098.004-1-1.293-2.005-1.296-1.104-2.792-2.01-3.492-2.012-.6.097-.004 1 1.292 2.004M417.067 1060.12c6.881 5.125 7.077 6.325.963 10.103-4.11 2.585-5.616 4.28-3.716 4.286 1.7-.093 10.226-7.162 10.231-8.562.008-2.1-5.672-7.421-7.872-7.429-1.3.095-1.301.295.394 1.601M407.706 1076.685c-1.804 1.094-3.008 2.29-2.71 2.59.698.803 7.51-2.772 7.515-3.972s-1.097-.904-4.805 1.382M397.684 1082.649c-1.804 1.093-3.108 2.188-2.81 2.49.499.601 6.31-2.378 7.114-3.675.906-1.496-.596-1.102-4.304 1.185M387.061 1088.91c-1.003.796-2.406 1.59-3.007 1.789-.6.197-.802.697-.504 1.098.797.903 5.907-1.679 5.912-3.179.006-1.5.006-1.5-2.401.292M376.139 1094.97c-1.604.894-2.707 1.79-2.408 1.99.598.703 5.405-1.28 6.21-2.476.905-1.497-.496-1.302-3.802.486M365.617 1100.931c-3.61 2.487-2.513 3.491 1.295 1.305 1.904-1.193 3.508-2.287 3.51-2.487.003-.9-2.7-.31-4.805 1.182M354.392 1107.79c-1.909 2.293-.81 2.597 1.998.507 1.905-1.493 2.107-1.992.907-1.996-.9-.004-2.202.692-2.905 1.489M344.37 1113.753c-1.406 1.595-1.007 1.797 1.396.905.901-.296 1.604-.994 1.606-1.494.005-1.4-1.596-1.106-3.002.59M336.555 1117.625c-3.106 1.788-3.809 2.586-2.11 2.592.8.003 2.504-.89 3.908-1.986 2.808-2.19 1.71-2.493-1.798-.606M324.73 1124.681c-1.003.797-1.406 1.495-.806 1.497.5.002 1.903-.693 3.006-1.488 1.002-.797 1.405-1.495.805-1.498-.5-.001-1.903.693-3.005 1.49M313.507 1130.74c-2.405 1.392-4.11 2.785-3.91 2.986.697.703 9.713-3.764 9.717-4.764.005-1.3-1.297-.905-5.807 1.778M290.058 1144.254c-5.111 2.882-4.916 4.283.194 1.601 2.204-1.192 4.009-2.485 4.01-2.985.005-1.1.105-1.1-4.204 1.384M126.957 1144.157c-1.405 1.395-.62 5.297 1.375 6.705 2.294 1.608 1.786 3.906-.61 2.898-.8-.303-1.5-.106-1.502.494-.006 1.6 3.091 2.311 4.596 1.117 1.404-1.195 1.927-7.493.837-10.297-.594-1.602-3.491-2.213-4.696-.917m3.59 2.713c.594 1.502-.11 2.6-1.51 2.594-.4-.001-.796-.903-.792-2.003.008-2.3 1.51-2.694 2.302-.591M135.853 1145.09c-1.11 2.895-.63 8.297.965 9.803.796.903 1.694 1.606 1.894 1.607s1.102-.696 1.906-1.593c1.906-1.793 2.13-8.492.437-10.199-1.694-1.706-4.495-1.516-5.202.381m4.184 4.615c-.21 2.399-.716 4.297-1.316 4.295-.5-.002-1.093-1.904-1.284-4.305-.288-3.3.015-4.2 1.315-4.195s1.597.906 1.285 4.205M145.756 1144.426c-.302.598.096 1.1 1.096 1.104 1.2.004 1.498.605.99 2.503-.304 1.4-.912 3.597-1.218 4.996-1.014 3.896.99 2.903 2.405-1.291 2.122-5.893 2.028-7.693-.47-8.002-1.1-.204-2.401.191-2.803.69M155.555 1144.762c-.503.698-1.012 3.196-1.12 5.495-.112 3.2.383 4.502 1.78 5.307 2.196 1.208 5.405-1.38 4.614-3.683-.297-.801-.59-3.002-.582-4.902.01-2.7-.388-3.402-1.888-3.407-1-.004-2.302.591-2.804 1.19m2.792 2.11c-.104 1.2-1.503.894-1.898-.407-.298-.601.103-1 .802-.797.6.302 1.098.804 1.096 1.204m.879 5.803c-.002.5-.703.897-1.503.895-1.5-.006-1.996-1.208-.892-2.304.803-.797 2.4.109 2.395 1.409M164.654 1145.095c-.606 1.498-.817 4.497-.532 8.598.092 2.2 2.988 3.211 4.693 1.817 2.107-1.692 1.721-5.694-.576-6.402-1.099-.304-1.995-1.307-1.992-2.107.004-1.1.604-1.298 2.103-.893 1.498.506 1.999.308 1.702-.593-.692-2.103-4.691-2.318-5.398-.42m3.572 7.613c-.01 2.4-2.308 2.092-2.799-.41-.196-1.001.306-1.7 1.206-1.696 1 .004 1.597.906 1.593 2.106M183.45 1146.164c-2.52 5.49-.442 11.298 3.563 10.113 2.202-.692 2.81-2.99 2.23-8.092-.483-4.702-3.979-5.915-5.793-2.021m4.582 4.917c-.207 1.899-.912 3.096-1.812 3.093-1.7-.006-2.39-2.709-1.477-6.205.508-2.099.809-2.298 2.105-1.193.897.704 1.39 2.505 1.184 4.305M193.354 1145.1c-1.808 2.093-1.036 9.696 1.06 11.004 1.397.805 2.197.708 3.502-.587 1.405-1.395 1.508-2.195.515-4.298-.594-1.402-1.89-2.507-2.79-2.51-.8-.003-1.398-.606-1.096-1.305.203-.599 1.404-1.094 2.504-.99 1.5.205 2-.193 1.604-1.195-.793-1.902-3.793-1.913-5.3-.119m3.372 7.612c-.003.7-.606 1.498-1.206 1.696-.801.297-1.299-.405-1.294-1.705s.507-1.998 1.307-1.795c.598.302 1.195 1.104 1.193 1.804M212.853 1145.272c-.903.896-1.307 2.095-1.01 2.596.299.6 1.2.204 1.904-.793 1.306-1.695 1.406-1.695 2-.093.496 1.202-.21 2.9-2.018 4.993-2.511 2.99-2.612 3.29-.917 4.496 2.094 1.608 4.094 1.715 4.9.318.301-.598-.297-1-1.397-1.005-2.6-.01-2.695-1.51-.183-4.7 3.215-3.989.234-9.3-3.279-5.812M203.249 1146.536c-.002.4.395 1.202.893 1.704.498.601 1.09 2.804 1.382 5.005.288 3.2.39 2.901.507-1.798.216-4.5-.08-5.7-1.28-5.705-.8-.003-1.5.394-1.502.794M277.933 1151.01c-3.709 2.287-4.311 2.984-2.611 2.99 1.6.006 6.613-3.675 5.915-4.278-.299-.2-1.7.294-3.304 1.288M174.733 1150.632c-.402.598.697 1.002 2.497 1.009s2.901-.39 2.503-.99c-.297-.602-1.496-1.006-2.496-1.01s-2.201.392-2.504.99M266.209 1157.467c-1.607 1.894-.007 1.9 2.6.01 1.604-1.194 1.605-1.394.305-1.5-.9-.002-2.202.693-2.905 1.49M171.184 1164.119c-.019 5.1-.815 4.097 13.138 16.948 7.176 6.527 8.669 8.532 9.157 11.734.88 5.303 4.271 7.916 9.874 7.236 5.802-.779 7.706-1.872 8.319-5.17.508-2.298 2.213-3.691 9.728-7.664 6.913-3.675 9.32-5.466 9.526-7.165.204-1.2 1.61-2.894 3.314-3.688 3.106-1.689 3.709-2.486 1.609-2.494-.7-.003-2.304.892-3.407 1.888-2.007 1.892-2.207 1.891-3.701.186-1.494-1.606-2.095-1.408-11.31 2.959-9.718 4.764-9.718 4.764-12.51 2.654-3.292-2.312-5.394-1.82-7.007 1.674-2.016 4.393-4.515 4.184-9.697-.736-2.491-2.509-6.976-6.625-9.766-9.335-4.585-4.217-5.28-5.32-5.269-8.62.008-2.1-.385-4.101-.983-4.403-.599-.403-1.005 1.196-1.015 3.996m57.742 15.812c.192 2.3.192 2.3-1.301.495-1.792-2.407-1.986-3.907-.188-3.4.599.301 1.295 1.504 1.49 2.905m-3.797-.614c1.194 1.504.683 4.502-.717 4.497-1.3-.005-3.385-4.012-2.782-5.01.906-1.397 2.105-1.192 3.499.513m-4.017 4.585c-.009 2.3-2.81 2.49-3.602.387-.397-.802-.292-2.201.012-3.1.504-1.298.905-1.397 2.101-.392.798.703 1.492 2.105 1.489 3.105m-12.612 3.254c1.69 2.806 2.165 9.608.565 9.602-.5-.002-.995-1.604-.987-3.604.016-4.3-3.266-9.412-6.066-9.422-1.1-.004-1.698-.406-1.396-1.005.905-1.397 5.895 1.422 7.884 4.429m7.404-1.173c.193 1.9-.21 2.8-1.712 3.294-2.803.79-4.1-.115-4.089-3.015.015-4.2 5.317-4.58 5.801-.279m-13.603.95c-.904.897-1.504.895-2.4-.009-.897-.903-.696-1.202 1.204-1.195s2.099.307 1.196 1.204m-1.811 2.994c.895 1.203 1.587 3.505 1.581 5.005-.008 2.3-.41 2.799-2.51 2.791-1.9-.007-2.897-.91-4.188-3.415-.893-1.903-1.285-4.105-.981-5.004.908-2.297 4.307-1.984 6.098.623m5.6-.18c-.004 1.1-.607 1.998-1.407 1.995-1.8-.007-2.894-1.61-2.09-3.008 1.108-1.796 3.505-1.087 3.497 1.013m.984 4.404c-.006 1.6-1.811 3.093-2.708 2.19-.797-.803.513-3.598 1.713-3.594.5.002.998.604.995 1.404M258.994 1161.54q-4.509 2.385-1.509 2.395c1.4-.095 5.21-2.78 4.613-3.383-.2-.2-1.601.194-3.104.989M250.576 1166.41c-1.003.796-1.405 1.395-.905 1.497 1.5.005 4.006-1.786 3.408-2.388-.299-.301-1.4.095-2.503.89M241.861 1170.478c-1.603.894-2.706 1.79-2.407 1.991.697.703 5.706-1.779 5.71-2.779s.104-1-3.303.788"/></svg>