<svg xmlns="http://www.w3.org/2000/svg" viewBox="0 0 869.636 1223.392" fill="currentColor"><path d="M443.261 45.632 309.767 46.97l.054 8.5.053 8.5 21.005.667c31.506.902 255.594-1.706 257.185-3.116 1.791-1.411 1.703-15.41-.004-16.5-.702-.396-3.604-.777-6.304-.76-2.8.017-65.098.609-138.495 1.37m144.054 8.095.05 8-137.997.867-137.997.867-.05-8-.05-8 137.997-.867 137.997-.867z"/><path d="M318.592 50.915a274 274 0 0 0 1.84 6.189c.714 2.395 1.626 4.29 2.026 4.287.4-.002 1.29-1.608 1.877-3.612 1.277-3.808 2.578-3.616 3.203.48.627 4.296 2.421 3.285 4.087-2.226 1.96-6.212 1.957-6.712.757-6.704-.5.003-1.19 1.607-1.478 3.509-.872 4.405-2.271 4.514-3.398.221-1.126-4.093-2.324-3.785-3.695.823-.976 3.807-2.476 3.816-2.5.016-.008-1.3-.718-2.895-1.623-3.59-1.507-1.19-1.607-1.09-1.096.607M338.806 52.988c-.888 2.006-1.77 4.811-2.061 6.213-.387 2.203-.386 2.303.605.797 1.386-2.21 6.585-2.342 7.399-.147.405.898.91 1.494 1.107 1.193.796-.705-3.674-11.777-4.674-11.77-.5.002-1.589 1.71-2.376 3.714m3.515 2.378c.007 1.1-.39 1.703-.992 1.406-.501-.296-1.008-1.293-1.013-2.093s.491-1.403.991-1.406c.6-.004 1.006.893 1.014 2.093M352.288 50.203c.004.5.707.996 1.507.991 1.1-.007 1.507 1.19 1.527 4.39.016 2.5.53 4.797 1.032 5.094.603.396.992-1.306.973-4.406-.029-4.5.268-5.102 2.068-5.113 1.1-.007 1.696-.51 1.393-1.009-.304-.598-2.406-.985-4.606-.971-2.1.013-3.897.424-3.894 1.024M368.69 50.5c-.295.702-.379 3.303-.164 5.702.327 4.298.428 4.397 4.23 4.673 2.501.184 3.6-.023 3.095-.72-.303-.597-1.707-1.089-3.106-1.08-1.5.01-2.404-.585-2.41-1.485s.89-1.505 2.49-1.515c1.4-.01 2.497-.516 2.494-1.016-.003-.6-1.106-.993-2.506-.984-1.6.01-2.504-.585-2.51-1.485s.891-1.505 2.491-1.515c1.4-.01 2.497-.516 2.494-1.016-.01-1.5-6.008-1.162-6.597.441M383.32 55.109c.023 3.7.436 5.797 1.034 5.393.598-.304.99-1.506.983-2.606-.018-2.9 3.785-2.524 5.004.569 1.423 3.59 2.22 3.086 1.494-.91-.413-2.097-.222-3.599.475-4.103 1.991-1.312-2.029-4.487-5.729-4.464-3.3.02-3.3.02-3.261 6.12m7.083-2.645c.003.5-1.193 1.108-2.591 1.316-1.8.212-2.501-.084-2.509-1.284-.007-1.2.691-1.504 2.492-1.316 1.401.192 2.605.684 2.608 1.284M414.985 49.51c-1.193 1.107-.727 11.504.368 10.797.598-.403.891-1.405.786-2.305-.207-1.098.588-1.803 2.586-2.216 3.695-.723 5.48-3.234 3.666-5.423-1.31-1.592-6.214-2.161-7.406-.853m5.318 2.766c.005.8-.89 1.506-1.99 1.513s-2.005-.688-2.01-1.488.89-1.505 1.99-1.512 2.005.687 2.01 1.487M429.315 54.22c.032 5 .235 5.598 2.64 6.483 4.511 1.672 6.4-.24 6.36-6.64-.022-3.4-.434-5.297-1.031-4.894-.599.304-.786 2.305-.472 4.503.526 4.097-1.258 6.709-3.965 5.625-1.002-.393-1.512-1.89-1.531-4.99-.016-2.5-.43-4.797-1.032-5.094-.603-.396-.99 1.507-.969 5.007M443.319 54.732c.024 3.9.436 5.797 1.034 5.393.597-.404.79-1.505.484-2.503-1.02-3.194 1.28-3.208 2.4-.015 1.324 3.792 3.024 3.781 3.8-.024.772-4.405 2.27-4.714 2.296-.614.012 2 .522 3.597 1.022 3.593 1.4-.008.831-11.005-.57-11.196-.5.003-1.79 1.711-2.876 3.818l-1.775 3.911-2.027-4.287c-1.115-2.293-2.427-4.185-2.927-4.182s-.883 2.706-.861 6.106M460.984 49.22c-.993 1.007-.736 10.105.268 10.799.502.297 1.097-.507 1.29-1.708.19-1.401 1.184-2.408 2.682-2.817 3.295-.82 4.878-3.43 3.166-5.42-1.31-1.592-6.214-2.161-7.406-.853m6.116 2.462c-.688 2.004-4.786 2.33-4.797.43-.007-1.1.89-1.605 2.59-1.616 1.6-.01 2.403.485 2.207 1.186M491.984 49.026c-1.094 1.007-.737 10.105.368 10.798.602.396.996-.507.988-1.907-.014-2.1.483-2.603 2.483-2.615 3.1-.02 5.179-3.433 3.365-5.622-1.209-1.392-6.012-1.862-7.204-.654m6.118 2.961c.205.8-.591 1.304-2.191 1.314-1.7.01-2.603-.484-2.61-1.583-.012-1.9 4.09-1.626 4.801.27M506.31 53.136c.025 4 .433 5.297 2.24 6.486 2.913 1.982 3.413 1.978 5.798-.437 2.087-2.113 2.837-10.018.937-10.006-.5.003-.987 2.007-.972 4.507.027 4.3-.071 4.5-2.971 4.518s-3.001-.18-3.028-4.38c-.016-2.5-.43-4.798-1.032-5.094-.602-.397-.992 1.306-.972 4.406M523.087 49.43c-.296.602-.28 3.302.037 5.9.43 4.698.53 4.797 3.83 4.776 1.9-.012 3.397-.521 3.394-1.021-.004-.6-1.107-.993-2.407-.985-2.8.018-3.508-1.278-2.935-5.582.48-3.103-1.135-5.593-1.92-3.088M538.514 53.733c.337 5.798.337 5.798 4.138 6.075 2.102.186 3.7-.124 3.696-.724s-1.307-1.091-3.007-1.08c-2.9.017-3.001-.182-3.027-4.382-.016-2.5-.53-4.797-1.132-5.093-.704-.495-.892 1.306-.668 5.204M553.687 49.338c-.296.702-.38 3.302-.164 5.701.327 4.298.427 4.398 4.13 4.674 2.1.187 3.698-.123 3.695-.723s-1.307-1.092-3.007-1.081q-3 .02-3.01-1.481c-.005-.9.891-1.506 2.391-1.515 3.7-.023 4.188-1.927.684-2.605-4.005-.774-4.015-2.374-.115-2.399 1.7-.01 2.996-.519 2.993-1.019-.01-1.6-7.007-1.156-7.597.448M568.282 48.546c.004.6.812 1.895 1.718 2.79.906.994 2.02 3.287 2.334 5.385.412 1.997.918 2.894 1.213 2.092.295-.801.982-2.906 1.472-4.509 2.552-7.516 2.554-7.216.67-4.804-.892 1.305-2.086 2.313-2.586 2.316s-1.806-.989-2.915-2.282c-1.007-1.193-1.81-1.688-1.906-.988M448.683 96.799c.307 32.998 1.373 43.492 2.018 18.787.568-21.104-.208-49-1.308-48.992-.5.003-.82 12.805-.71 30.205M523.517 86.028c-5.991 1.438-8.482 2.854-13.054 7.382-4.77 4.73-16.768 21.006-16.757 22.806.013 2.1 1.506.99 4.48-3.228l2.973-4.219.635 5.496c.849 7.795 3.584 13.378 8.612 17.847 6.938 5.956 10.848 7.532 18.947 7.38 3.9-.124 8.597-.553 10.494-.965 3.395-.822 3.395-.822 1.613 1.99-1.09 1.607-1.381 3.108-.878 3.605.604.596 2.59-1.516 4.967-5.331a382 382 0 0 1 6.836-10.143c1.488-2.01 2.375-4.015 1.972-4.513-.503-.397-1.598.41-2.489 1.816-5.15 7.833-11.53 11.073-22.03 11.139-8.6.054-13.712-1.814-18.643-6.783-16.1-15.8-4.567-42.373 18.333-42.516 8-.05 14.417 2.71 19.552 8.277 3.626 4.077 6.334 5.26 4.614 2.071-1.82-3.189-7.251-8.055-11.464-10.028-4.814-2.27-13.62-3.215-18.713-2.083"/><path d="M530.823 102.883c-.896.605-1.18 3.207-.942 9.306l.353 8.398 115.998-.729 115.998-.729.468-5.003c.282-2.802.257-6.802-.056-9l-.526-3.997-114.999.523c-63.2.197-115.597.826-116.294 1.23m230.85 7.15.046 7.4-9.697.46c-5.398.334-57.196.96-114.994 1.423l-105.297.761-.05-8-.05-8 114.997-.722 114.998-.722z"/><path d="M541.677 111.515c.02 3 .535 5.496 1.035 5.493.6-.003.995-.806.988-1.906-.008-1.2.887-2.006 2.885-2.418 5.792-1.237 4.558-6.729-1.542-6.69-3.4.02-3.4.02-3.366 5.52m6.488-2.041c.003.5-.993 1.106-2.192 1.314-1.599.21-2.301-.186-2.308-1.286s.69-1.504 2.292-1.314c1.2.192 2.204.686 2.208 1.286M557.256 108.117c-3.17 4.62-.436 10.103 4.76 9.57 2.6-.216 3.295-.92 4.078-3.526 1.76-6.51-5.27-11.267-8.838-6.044m6.924 3.756c.019 3-.278 3.502-2.676 3.817-1.899.212-2.801-.182-3.31-1.679-1.123-3.593.26-6.302 3.262-5.92 2.402.284 2.705.782 2.724 3.782M569.96 108.537c.31 1.698 1.328 4.592 2.14 6.387l1.42 3.39 1.28-3.307c1.675-4.01 2.375-4.015 3.8-.124.61 1.696 1.517 2.79 2.015 2.487 1.195-.807 3.434-10.522 2.629-11.317-.302-.298-.895.806-1.184 2.608-.872 4.506-2.07 4.713-3.496.622-1.424-3.791-2.929-4.582-2.91-1.682.006 1-.584 2.704-1.377 3.709-1.289 1.808-1.39 1.709-2.108-1.287-.927-4.194-3.036-5.58-2.21-1.486M588.68 111.72c.037 6 .037 6 3.537 5.977 1.9-.012 3.497-.522 3.494-1.022-.004-.6-1.306-.991-3.006-.98-1.6.01-3.002-.282-3.005-.782.088-1.8 1.78-3.211 3.183-2.72.902.394 1.9.188 2.297-.414.396-.703-.407-1.098-1.907-1.088-1.6.01-2.604-.584-2.61-1.484s.891-1.506 2.491-1.516c1.4-.009 2.497-.515 2.494-1.015-.004-.6-1.606-.99-3.506-.978-3.5.022-3.5.022-3.462 6.021M603.68 111.725c.023 3.7.436 5.798 1.034 5.394.598-.304.99-1.506.983-2.606-.018-2.9 3.685-2.424 5.305.666 1.315 2.492 1.415 2.391 1.183-2.707-.22-2.999-.336-5.698-.44-6.198-.002-.4-1.904-.688-4.104-.674-4 .025-4 .025-3.961 6.125m6.983-2.644c.006.9-.89 1.506-2.49 1.516s-2.504-.584-2.51-1.484.891-1.506 2.491-1.516 2.504.584 2.51 1.484M635.152 107.127c-.392 1.303.215 2.499 2.225 3.986 1.508 1.291 3.114 2.28 3.614 2.278.4-.003.703.395.706.995.01 1.4-4.291 1.327-5.8-.163-.705-.696-1.206-.793-1.203-.293.126 4.1 7.23 4.755 7.805.751.19-1.6-.516-2.596-2.724-3.783-4.012-1.974-4.124-3.874-.12-3.199 2.303.486 2.802.282 2.295-.814-.813-2.095-5.912-1.863-6.798.242M649.647 106.336c.003.5.906.995 1.906.988 1.7-.01 2.105.787 2.433 5.185l.333 5.298.167-5.301c.076-3.8.567-5.204 1.567-5.21.8-.005 1.797-.511 2.094-1.013.396-.603-1.207-.993-3.906-.976-2.5.016-4.598.43-4.594 1.03M665.876 110.934c.337 5.798.337 5.798 4.138 6.074 2.102.187 3.7-.123 3.696-.723s-1.307-1.092-3.007-1.08c-2.3.014-3.002-.382-3.012-1.982-.01-1.5.687-2.004 2.587-2.016 1.4-.01 2.297-.415 1.994-.913s-1.504-.69-2.602-.383c-1.398.408-2 .012-2.007-1.088-.006-1 .89-1.606 2.39-1.615 1.4-.009 2.797-.518 3.093-1.02.397-.602-1.006-.993-3.506-.977-4.1.025-4.1.025-3.764 5.723M681.543 105.536c-.2.201-.182 2.901-.063 6 .435 5.598.435 5.598 3.835 5.576 4.1-.025 4.59-1.729.686-2.204-3.502-.378-3.718-2.977-.324-3.898 2.396-.715 2.396-.715.295-.802-2.8-.082-3.12-3.08-.42-3.097 1.1-.007 2.297-.515 2.594-1.017.594-.903-5.71-1.464-6.603-.558M696.541 105.242c-.592 1.303-.33 11.002.372 11.397.401.298.795-.705.786-2.105-.014-2.3.384-2.602 2.786-2.317 1.901.188 2.805.882 3.016 2.481.208 1.299.814 2.295 1.314 2.292 1.1-.007 1.087-2.107-.025-3.9-.605-.896-.513-2.097.081-3.1 1.881-3.013.269-5.002-4.231-4.974-2.2.014-4.1.126-4.099.226m6.919 2.956c-.688 2.005-5.786 2.337-5.798.437-.007-1.1.99-1.607 3.09-1.62q3-.018 2.708 1.183M715.677 110.921c.024 3.8.437 5.898 1.035 5.494.598-.304.982-2.806.965-5.506s-.433-5.197-1.035-5.494c-.602-.396-.989 1.707-.965 5.506M726.674 110.352c.039 6.2 1.747 7.49 2.21 1.686l.277-3.701 2.928 4.381c3.231 4.98 4.627 4.271 4.583-2.628-.035-5.6-1.84-6.489-2.207-1.087l-.273 4.302-2.526-4.184c-3.538-5.978-5.035-5.569-4.992 1.231M743.253 106.948c-2.081 3.013-1.969 5.013.447 7.597 3.524 3.678 8.017 2.55 7.988-1.95-.014-2.2-.518-2.897-2.018-2.887-2.3.014-2.69 1.517-.485 2.403 2.305.785 1.816 2.589-.783 2.605-2.9.018-4.712-1.77-4.73-4.67-.019-3 3.27-4.821 6.08-3.239 1.705.89 2.005.788 1.698-.31-.304-.699-1.809-1.39-3.51-1.578-2.301-.186-3.498.322-4.687 2.03M439.656 108.456c-5.98 3.137-10.36 6.465-21.498 16.335-5.867 5.237-11.634 10.473-12.727 11.58a607 607 0 0 1-9.148 8.258c-6.763 6.043-7.161 6.245-8.972 4.556-1.106-.893-5.329-4.566-9.451-8.14s-9.754-8.54-12.57-11.122c-5.03-4.768-5.03-4.768-12.83-4.72-5 .032-7.598.449-7.194 1.046.303.498 3.606.977 7.306.954 7.4.054 6.899-.243 17.86 9.488 15.184 13.305 16.492 14.597 16.497 15.297s-17.596 16.61-24.263 21.953c-3.98 3.125-2.375 4.015 2.309 1.385 7.573-4.347 18.586-2.317 23.528 4.352 2.823 3.783 3.274 11.88.902 16.295-3.755 7.124-14.837 10.094-22.562 6.042-5.318-2.767-5.511-1.665-.483 2.803 2.313 2.086 4.726 4.17 5.33 4.767.603.496 4.525 3.871 8.647 7.446 4.123 3.574 7.742 6.651 8.044 6.95.302.297 3.921 3.375 8.044 6.949 4.122 3.474 7.742 6.651 8.044 6.95 1.106 1.092 9.854 8.638 14.578 12.408 2.614 2.184 6.434 5.36 8.444 6.947 4.926 4.17 16.457 8.997 18.448 7.684 1.196-.707.786-2.305-.814-2.295-3.7.024-12.928-4.418-17.554-8.59-5.33-4.766-6.946-7.256-9.49-14.34-3.97-10.975.236-26.002 9.387-33.76 2.188-1.914 2.583-2.816 1.778-3.611-1.61-1.49-8.46 6.353-11.816 13.474-3.156 7.02-3.888 17.825-1.646 24.511 1.73 4.79 1.235 5.493-1.883 2.712-1.006-.894-5.329-4.566-9.451-8.14s-8.647-7.446-10.055-8.738c-1.408-1.19-6.636-5.658-11.763-9.926-5.126-4.168-9.25-7.942-9.253-8.342-.101-.3 2.093-1.113 4.889-1.83 13.579-3.386 19.383-18.623 10.92-28.77-2.721-3.283-8.24-6.248-11.64-6.227-1.6.01-3.703-.477-4.506-.972-1.607-1.09-.415-2.397 11.421-12.572 6.764-5.742 14.223-12.39 16.409-14.603.795-.805 4.375-4.028 7.956-7.05 3.58-3.023 8.255-7.152 10.442-9.266s4.376-3.827 4.776-3.83c.4-.002.51 1.697.023 3.7-3.875 19.925 14.03 36.713 32.995 30.893 4.69-1.43 5.279-3.333.686-2.104-9.684 2.46-20.702-.37-26.343-6.835-4.13-4.774-5.556-8.965-5.608-17.165-.067-10.6 5.59-17.435 18.163-21.914 1.995-.713 2.283-2.715.483-2.703-.7.104-2.895.918-4.789 1.83M453.852 107.766c.204.6 1.71 1.59 3.413 2.08 8.418 2.746 15.163 10.004 16.21 17.498.63 4.596 2.336 5.585 2.309 1.285-.126-4.1-3.264-10.18-7.591-14.453-5.434-5.365-15.463-9.903-14.341-6.41M262.094 115.071c-.295.802-.265 5.602-.132 10.802l.36 9.397 40.3.047 40.3-.053-.363-10.198-.365-10.298-9.004-.543c-4.902-.37-22.904-.556-39.804-.55-24.7.055-30.898.394-31.292 1.396m70.908 1.055 8.702.245-.358 6.703c-.277 3.701-.453 7.503-.447 8.503-.089 1.7-2.088 1.813-38.589 1.842l-38.5.042-.056-8.9-.056-8.9 30.301.11c16.6-.004 34.102.186 39.003.355"/><path d="M279.018 118.865c-1.389 1.709-2.343 9.015-1.434 10.41 1.312 1.891 3.914 2.275 6.005.762 1.493-1.01 1.984-2.413 1.766-5.312-.336-5.798-3.857-9.075-6.337-5.86m3.516 2.478c-.484 2.503-2.782 2.818-2.797.418-.008-1.2.586-2.104 1.586-2.11.9-.006 1.405.69 1.211 1.692m1.236 5.793c.014 2.1-2.98 3.118-3.99 1.425-1.111-1.693-.319-2.898 2.081-2.914 1-.006 1.904.689 1.91 1.489M295.517 118.662c-.996.606-1.789 1.71-1.783 2.61.01 1.5.11 1.5 1.8-.01 1.193-1.108 2.191-1.314 3.196-.62 1.305.791 1.307 1.091-.186 2.3-2.19 1.614-2.283 2.615-.283 2.602.8-.005 1.505.891 1.512 1.991.013 2.1-3.282 2.92-4.493 1.028-1.01-1.593-2.508-1.184-1.897.512.812 1.995 4.017 2.775 6.41 1.46 1.593-.91 1.987-1.913 1.763-5.711-.332-5.198-3.05-7.881-6.039-6.162M327.714 118.06c-4.09 1.525-5.445 8.734-2.127 11.613 3.319 2.979 9.21 1.542 9.186-2.258-.007-1.1-.407-1.097-1.898.312-1.094 1.007-2.99 1.619-4.291 1.427-1.801-.189-2.406-.985-2.623-3.584-.635-5.596 3.15-8.02 6.972-4.544 2.212 1.987 2.4.085.187-2.1-1.61-1.59-2.811-1.783-5.406-.867M269.126 120.127c-1.791 1.412-1.79 1.512-.087 2.101 1.203.492 1.712 1.79 1.73 4.59.012 2.1.524 3.896 1.024 3.893.6-.004.983-2.706.962-6.006-.04-6.3-.443-6.898-3.629-4.578M304.822 119.403c-.797.505-1.188 1.808-.882 2.906.307.998.217 2.598-.278 3.401-1.088 1.907 1.636 5.79 4.036 5.775 2.7-.017 3.888-2.024 3.86-6.524-.238-5.899-2.852-8.082-6.736-5.558m4.715 2.27c-.688 1.905-3.787 2.224-3.798.424-.006-1 .89-1.605 2.09-1.613 1.2-.007 1.903.488 1.708 1.19m.236 5.8c.008 1.3-.687 2.003-1.987 2.012s-2.005-.688-2.013-1.988.688-2.004 1.987-2.012 2.005.687 2.013 1.987M316.425 119.83c-2.09 1.613-2.183 2.614-.184 2.601 1.1-.007 1.508 1.19 1.53 4.59.016 2.7.426 4.298 1.024 3.895 1.195-.708 1.33-11.21.125-11.902-.401-.197-1.5.11-2.495.816M287.764 126.11c.006 1 .71 1.496 1.808 1.29 2.098-.414 1.886-2.213-.216-2.6-1.001-.193-1.598.31-1.592 1.31M486.465 125.662c-2.775 4.017-3.265 5.62-2.063 5.813.7-.004 7.347-8.446 7.34-9.446-.012-2-2.8-.183-5.277 3.633M475.567 141.93c-1.981 3.013-3.164 5.72-2.662 6.018.803.495 7.941-9.35 7.931-10.95-.012-1.9-2.1.013-5.269 4.933M475.922 150.629c.008 1.3.76 9.495 1.615 18.29 2.772 27.483 3.85 39.676 3.352 40.18-.198.2-2.51-1.685-5.126-4.168-6.541-6.56-14.263-9.91-22.762-9.857-8.4.052-9.49 1.66-1.288 1.908 11.301.229 25.56 9.44 28.816 18.419 1.02 3.094 2.224 3.786 3.312 1.88.397-.503.165-5.602-.47-11.198-1.807-16.889-3.193-30.68-3.953-40.176-.332-4.998-.862-9.895-.97-10.994-.206-1.099-.418-2.998-.426-4.298-.108-1.199-.514-2.196-1.114-2.193-.5.004-.994 1.007-.986 2.207M533.436 152.767c-3.663 5.823-3.86 6.325-2.56 6.317 1.1-.007 7.048-8.345 7.038-9.945-.014-2.2-1.606-.89-4.478 3.628M465.257 156.296c-3.17 4.72-4.25 7.927-2.358 6.715 1.395-.81 7.041-9.445 7.034-10.645-.013-2-1.604-.59-4.676 3.93M523.036 168.633c-1.684 2.51-2.967 5.319-2.761 6.217.207 1.1 1.598-.31 4.075-4.025 3.961-6.125 4.157-6.726 2.657-6.717-.5.003-2.287 2.014-3.971 4.525M453.663 173.169c-2.081 3.013-3.562 6.022-3.358 6.621.407 1.198 8.74-9.555 8.729-11.255-.014-2.3-1.904-.688-5.371 4.634M570.577 175.034c-.295.802-.364 5.703-.232 10.902l.36 9.398 23.503.452c12.902.32 30.706.807 39.607 1.051l16.104.6.439-9.804c.266-5.401.234-10.401.03-11-.406-.998-4.207-1.274-14.208-1.31-7.5.046-14.7-.108-16.102-.3-1.4-.09-13.004-.518-25.706-.838-19.803-.476-23.403-.353-23.795.85m53.314 2.065 25.204.542.048 7.6c.026 4.2-.35 8.102-.746 8.705-.494.903-7.794.949-27.197.47-14.602-.308-31.605-.6-37.705-.562l-11.3-.03-.057-9.1-.058-9.199 13.304.616c7.202.255 24.605.746 38.507.958"/><path d="M578.407 179.785c-2.593 1.117-3.081 3.02-.781 3.005 1.1-.007 1.507 1.09 1.525 3.99.014 2.2.525 3.998 1.025 3.994.6-.003.983-2.706.962-6.006-.02-3.3-.137-5.999-.237-5.898-.2 0-1.297.408-2.494.915M586.607 179.734c-1.188 2.007-1.442 9.309-.333 10.702 1.41 1.591 5.31 1.667 6.7-.042.992-1.206.744-8.905-.367-10.698-.808-1.295-5.208-1.267-6 .038m4.515 2.471c.005.8-.69 1.505-1.49 1.51s-1.504-.69-1.51-1.49c-.005-.8.691-1.505 1.491-1.51s1.504.69 1.51 1.49m.432 4.998c.306.898-.089 1.8-.986 2.206-1.896.712-3.907-1.075-3.017-2.581.99-1.606 3.292-1.32 4.003.375M603.405 179.328c-.7.205-1.292 1.408-1.284 2.608.113 2 .213 2.099 1.402.392 1.489-1.91 3.187-2.22 4.097-.626.403.597-.09 1.6-1.085 2.407-1.792 1.31-1.791 1.41-.088 2 .903.395 1.708 1.29 1.713 2.09.012 1.8-4.688 1.929-5.299.133-.204-.599-.705-.896-1.104-.593-1.093 1.007.424 3.697 2.327 4.185.901.195 2.7-.017 3.897-.424 1.995-.813 2.191-1.414 1.862-6.012-.537-5.997-2.45-7.885-6.438-6.16M613.807 179.663c-.996.606-1.687 2.11-1.577 3.71.11 1.5.12 3.1-.077 3.7-.974 4.107 2.241 6.486 5.929 4.463 1.694-.91 1.988-1.812 1.661-6.11-.439-6.198-2.25-7.886-5.936-5.763m4.12 3.074c-.296.702-1.092 1.307-1.792 1.311s-1.504-.59-1.709-1.289c-.304-.698.393-1.202 1.693-1.21s2.003.487 1.807 1.188m.233 5.299c.013 2.1-2.98 3.118-3.991 1.425-1.111-1.693-.319-2.898 2.081-2.913 1-.007 1.905.688 1.91 1.488M624.616 181.095c-1.394 1.009-1.59 1.71-.786 2.205.602.396 1.316 2.492 1.53 4.69.435 5.698 2.228 4.487 2.59-1.616.362-6.002-.547-7.397-3.334-5.279M632.345 185.647c.338 6.098.44 6.297 3.141 6.58 4.403.472 7.686-2.248 7.66-6.348-.028-4.5-2.24-6.486-7.14-6.456-4 .026-4 .026-3.661 6.224m8.39-1.553c.922 3.394-.663 5.804-3.663 5.823-2.1.013-2.403-.485-2.527-4.284-.225-3.999-.127-4.2 2.673-4.217 2.3-.015 3.004.58 3.517 2.678M595.743 185.476c-1.292 1.209-.486 2.204 1.914 2.189 1.4-.01 2.497-.416 2.494-.916-.006-1-3.613-2.078-4.408-1.273M206.408 181.123c-2.094.913-2.29 1.614-2.248 8.214.025 4 .449 7.797.853 8.495.606.896 21.407 1.065 84.807.867 46.2-.19 84.598-.632 85.195-1.035 1.694-1.011 1.5-16.01-.209-17.4-1.609-1.39-165.106-.462-168.398.859m167.753 7.946.05 8-83.998.527-83.998.528-.05-8-.05-8 83.998-.527 83.998-.528z"/><path d="M219.434 185.24c-1.388 1.91-3.639 9.724-3.034 10.42.401.298.897-.405 1.29-1.508.883-2.806 5.482-2.934 6.2-.139.306 1.098 1.012 1.994 1.512 1.99.5-.003.797-.404.595-.803-.103-.4-1.22-3.093-2.238-5.986-2.134-5.387-2.737-5.983-4.325-3.973m2.728 4.384c.005.8-.691 1.404-1.491 1.41-1.5.009-2.114-2.088-.921-3.295.994-.906 2.401.185 2.412 1.885M232.362 189.66c.337 5.798.337 5.798 4.138 6.074 2.102.187 3.7-.123 3.696-.723s-1.307-1.092-3.007-1.082c-2.9.019-3-.08-3.031-4.98-.018-2.8-.532-4.997-1.032-4.994-.7.004-.986 2.206-.764 5.705M248.435 185.259c1.106.893 1.717 2.689 1.734 5.389.038 6.1 1.838 6.088 2.2-.014.18-3.201.766-5.305 1.466-5.31.6-.003 1.498-.309 1.895-.811.398-.403-1.504-.69-4.204-.674-4.3.127-4.699.23-3.091 1.42M263.362 189.465c.336 5.798.336 5.798 4.138 6.074 2.001.188 3.7-.123 3.695-.723-.003-.5-1.507-1.09-3.208-1.28-4.202-.374-4.52-3.172-.522-3.597 3.297-.42 2.586-2.216-.914-2.194-1.3.008-2.403-.385-2.406-.885-.008-1.3 2.687-2.117 4.49-1.528.803.395 1.501.09 1.498-.51-.004-.6-1.607-1.09-3.507-1.078-3.6.023-3.6.023-3.264 5.721M278.164 189.772c.023 3.7.436 5.797 1.034 5.394.598-.304.99-1.507.983-2.607-.018-2.9 3.685-2.423 5.305.667 1.315 2.492 1.415 2.391 1.183-2.707-.22-3-.336-5.698-.44-6.198-.002-.4-1.904-.688-4.104-.674-4 .025-4 .025-3.961 6.125m6.781-2.943c-.687 2.005-4.785 2.33-4.797.43-.007-1.1.89-1.605 2.59-1.616 1.6-.01 2.403.485 2.207 1.186M293.164 189.678c.025 4.1.336 5.798 1.133 5.293.697-.405.887-2.106.575-4.004-.729-4.496.273-4.302 3.303.58 1.414 2.19 2.825 3.982 3.225 3.98.5-.004.783-2.706.762-6.106-.025-4-.436-5.797-1.133-5.293-.598.304-.79 1.705-.482 2.903 1.024 3.794-1.076 3.807-3.4.022-1.212-1.893-2.622-3.484-3.122-3.48-.5.002-.883 2.705-.861 6.105M310.16 188.97c-1.281 3.109-1.964 5.813-1.662 6.211.402.298.9-.205 1.293-1.108.787-2.105 5.287-2.133 7.001.056 1.31 1.692 1.31 1.692 1.4.092-.013-2.1-4.167-10.774-5.167-10.768-.4.002-1.684 2.51-2.866 5.518m3.996-.524c.007 1.1-.387 2.002-.987 2.006-.5.003-1.006-.894-1.013-1.994s.488-2.003.988-2.006c.6-.004 1.005.894 1.012 1.994M324.13 184.383c.004.5.907.994 2.007.987 1.7-.01 2.004.688 2.032 5.088.019 3 .43 4.797 1.028 4.393.498-.303.684-2.504.268-5.001-.523-3.697-.328-4.498.972-4.507.9-.005 1.897-.511 2.194-1.013.396-.603-1.207-.993-3.907-.976-2.5.016-4.597.43-4.593 1.029M339.643 186.186c-1.383 2.808-1.38 3.408.038 6.2 1.416 2.49 2.12 2.986 4.817 2.67 2.399-.216 3.395-.922 4.08-3.126 1.573-4.41-.35-8.098-4.153-8.474-2.701-.284-3.398.22-4.782 2.73m7.503.552c.705.796 1.016 2.494.625 3.997-.779 3.305-6.077 3.638-7.096.544-1.631-4.89 3.247-8.32 6.471-4.54M355.162 189.288c.024 3.7.437 5.798 1.034 5.394.598-.304.99-1.506.984-2.606-.018-2.9 3.685-2.424 5.505.765 1.617 2.79 1.617 2.79.994-.906-.313-2.098-.124-3.9.473-4.303.698-.405.693-1.205-.016-2.6-.809-1.395-2.112-1.887-5.012-1.869-4 .025-4 .025-3.962 6.125m6.984-2.644c.005.9-.89 1.506-2.49 1.516s-2.504-.584-2.51-1.484.89-1.506 2.49-1.516 2.504.584 2.51 1.484M513.127 183.196c-.69 1.604-1.581 3.01-1.981 3.012s-1.193 1.108-1.784 2.511c-1.283 2.808-.179 3.401 1.806.989 1.092-1.307 5.59-1.535 29.09-1.683 17.9-.112 27.897-.575 27.893-1.175s-9.706-.94-27.106-.83c-26.999.17-26.999.17-25.513-2.04 1.982-2.812 1.976-3.812.176-3.8-.7.004-1.892 1.311-2.58 3.016M441.274 190.847c-4.46 6.528-4.641 9.43-.274 4.102 3.87-4.624 6.342-9.14 5.339-9.734-.502-.297-2.787 2.218-5.065 5.632M501.238 200.87c-1.684 2.611-2.967 5.32-2.761 6.218.206.899 1.796-.711 4.074-4.126 3.862-6.024 4.158-6.726 2.758-6.717-.5.003-2.387 2.115-4.071 4.626M441.245 202.148c-3.293 1.12-4.693 1.13-5.798.336-1.709-1.39-3.098.32-9.33 11.259-4.054 7.225-4.25 7.827-4.099 16.026.046 7.4.357 9.098 2.782 13.083 4.245 7.073 11.278 12.33 19.09 14.18 4.306.973 2.891-1.318-1.921-3.288-7.017-2.756-11.137-5.93-14.47-11.01-2.827-4.382-3.236-5.78-3.38-12.778-.247-7.499-.052-8.3 3.413-13.822 3.76-6.324 8.837-10.056 16.323-12.303 5.69-1.736 8.59-1.554 14.505.61 7.518 2.852 11.436 5.827 14.772 11.506 9.095 15.144 1.809 33.19-15.362 37.898-4.692 1.23-5.179 3.432-.582 2.903 3.797-.523 10.672-4.567 14.546-8.591 4.47-4.728 12.692-17.38 12.678-19.48-.11-1.6-.31-1.498-1.897.412-1.092 1.307-2.086 2.313-2.386 2.315-.2.001-.715-2.396-1.033-5.294-1.911-17.688-20.585-29.471-37.851-23.962M490.043 217.641c-3.865 5.625-4.258 6.727-2.658 6.717 1-.006 8.042-9.35 8.033-10.75.085-2.301-2.204-.687-5.375 4.033"/><path d="M449.132 231.899c-.984 2.606-.328 75.203.666 74.197 1.391-1.409 2.226-75.516.926-75.507-.6.003-1.297.608-1.592 1.31M482.965 237.086c-2.036 10.213-10.775 19.868-21.352 23.535-3.792 1.324-6.982 2.944-6.978 3.544.02 3.2 14.978-3.495 21.34-9.635 3.777-3.623 9.511-14.06 9.49-17.36-.017-2.9-1.918-2.988-2.5-.084M345.03 311.454c.008 1.3.31 1.698.606.996.394-.902 21.292-1.333 99.89-1.827l99.398-.625.038 6c.022 3.5.438 5.997 1.038 5.994.7-.005.985-2.407.76-6.205-.337-6.098-.438-6.198-3.442-6.879-1.802-.288-47.104-.404-100.803-.166-97.6.413-97.6.413-97.485 2.712"/><path d="M356.343 313.583c-.295.702-.378 3.503-.16 6.201.33 4.798.43 4.898 3.328 4.58 3.398-.422 4.99-1.732 5.97-4.938 1.172-4.308-7.564-9.953-9.138-5.843m6.616 2.559c1.417 2.69.436 5.697-1.959 6.512-2.994.919-4-.175-4.028-4.575-.022-3.5.275-3.901 2.475-3.915 1.4-.01 2.905.781 3.512 1.978M371.639 312.787c-1.094 1.007-.73 11.305.37 11.298.6-.004.993-1.206.984-2.606-.013-2.1.385-2.503 2.286-2.215 1.202.193 2.608 1.284 3.216 2.48.508 1.297 1.314 2.292 1.714 2.29 1.1-.007.995-.807-.32-3.199-.808-1.395-.814-2.295-.02-3.1 1.491-1.509 1.386-2.308-.525-4.096-1.51-1.59-6.514-2.16-7.705-.852m7.118 2.955c.206.9-.692 1.305-2.691 1.317-2.1.014-3.104-.48-3.11-1.58-.012-1.9 5.09-1.632 5.801.263M418.543 313.392c-.983 2.707-.644 8.905.664 10.196 1.41 1.392 5.41 1.566 6.302.26.297-.501-.707-1.095-2.208-1.285-3.802-.376-4.524-3.772-.924-3.795 1.4-.008 2.597-.516 2.594-1.016-.004-.6-1.206-.992-2.606-.984-3.4.022-2.615-2.383.882-2.805s2.486-2.216-1.314-2.192c-1.6.01-2.995.719-3.39 1.621M449.636 312.197c-1.093 1.107-.728 11.405.372 11.398.6-.004.993-1.106.984-2.506-.012-2 .485-2.503 2.385-2.515 3.2-.02 4.886-2.231 3.272-4.321-1.41-1.791-5.92-3.163-7.013-2.056m5.319 2.867c.005.8-.891 1.505-1.991 1.512s-2.004-.687-2.01-1.487c-.004-.8.891-1.506 1.991-1.513s2.005.688 2.01 1.488M513.136 311.898c-2.098.413-2.295.914-1.962 6.112.336 5.698.336 5.698 4.138 5.975 2.101.186 3.7-.124 3.695-.724-.003-.6-1.307-1.091-3.007-1.08-2.3.014-3.002-.382-3.012-1.982-.01-1.5.687-2.004 2.487-2.016 1.4-.008 2.497-.515 2.494-1.015-.004-.6-1.106-.993-2.506-.985-1.4.01-2.503-.484-2.506-.984-.004-.6 1.093-1.007 2.393-1.015 3-.019 4.19-1.526 1.985-2.412-.902-.295-1.603-.49-1.703-.49-.1.1-1.197.408-2.496.616M390.67 317.668c.744 7.095 1.147 7.493 1.206.992.08-3.1-.336-5.698-.836-5.695s-.587 2.104-.37 4.703M401.85 314.597c.507.997 1.623 3.49 2.535 5.484.813 2.095 2.024 3.788 2.624 3.784.5-.003.999-.206.997-.506-.002-.2.883-2.706 1.965-5.513 1.083-2.707 1.569-5.01 1.069-5.006-.4.002-1.588 1.91-2.474 4.215l-1.773 4.311-1.927-4.288c-1.114-2.293-2.426-4.184-2.926-4.181-.6.003-.696.704-.09 1.7M464.069 317.306c-.07 4.701.234 5.4 2.54 6.385 4.012 1.874 5.8.063 6.162-6.14.176-3.7-.033-5.1-.83-4.594-.597.404-.887 2.005-.576 3.704.626 4.196-.164 5.8-2.964 5.818-1.9.012-2.403-.485-2.517-2.784-.11-1.5-.524-3.797-.933-5.194-.612-1.996-.809-1.395-.882 2.805M480.742 313.002c-.894.905-.952 7.606-.138 9.8.711 1.796 5.913 2.164 6.903.557.397-.602-.606-.996-2.406-.985-2.9.019-3.001-.18-3.332-5.079-.217-2.798-.63-4.696-1.027-4.293M495.642 312.908c-1.193 1.207-.744 8.905.564 10.197 1.409 1.39 6.81 1.557 6.802.257-.004-.5-1.207-1.093-2.708-1.283-2.402-.185-2.805-.683-2.519-2.884.28-3.102-1.146-7.293-2.14-6.287M526.856 315.012c1.21 1.592 2.125 4.087 2.134 5.387.008 1.4.518 2.896 1.02 3.193.602.396.996-.506.987-2.006s.875-4.006 2.064-5.713c2.577-3.616 1.669-5.01-1.01-1.694-1.985 2.413-1.985 2.413-3.6.123-.907-1.194-2.114-2.187-2.614-2.184-.6.004-.091 1.3 1.019 2.894"/><path d="M344.475 318.658c-.389 1.802-.472 4.403-.264 5.702.315 2.398.515 2.396 14.818 2.807 8.001.25 53.402.164 101-.135 81.5-.512 86.499-.644 86.788-2.345.194-.902-.11-1.7-.71-1.696s-1.097.607-1.093 1.307c.007 1.1-17.491 1.41-98.691 1.62-54.401.042-99.402.025-100.103-.171-.903-.394-1.112-1.793-.635-5.496.665-5.604-.243-6.899-1.11-1.593M52.242 362.095c.003.5 1.806.989 4.006.975s3.997-.525 3.994-1.025c-.004-.6-1.806-.99-4.006-.975-2.2.014-3.998.425-3.994 1.025M69.242 361.988c.003.5 2.506.984 5.506.965 3-.018 5.497-.534 5.494-1.034-.004-.6-2.507-.984-5.507-.965-3 .018-5.497.434-5.493 1.034M87.241 361.875c.004.6 2.907.982 6.607.958 4.1-.025 6.297-.44 5.893-1.037-.304-.598-3.306-.979-6.606-.958-3.3.02-5.897.437-5.894 1.037M109.84 361.633c-.693 1.104 10.816 2.532 12.41 1.522.598-.304.793-1.105.49-1.603-.807-1.195-12.207-1.123-12.9.081M130.747 362.602c.303.498 2.806.982 5.606.964 2.7-.017 4.897-.53 4.894-1.03-.004-.6-2.507-.985-5.607-.965-3.4.021-5.297.433-4.893 1.03M153.246 362.46c.004.5 2.507.985 5.507.966s5.496-.535 5.493-1.035c-.004-.6-2.506-.984-5.506-.965s-5.497.434-5.494 1.034M173.246 362.335c.003.5 2.306.985 5.006.968 2.8-.017 4.997-.531 4.994-1.031-.004-.6-2.206-.986-5.006-.969-2.7.017-4.998.432-4.994 1.032M192.246 362.215c.003.6 2.906.982 6.606.959 4.1-.026 6.297-.44 5.893-1.037-.303-.598-3.306-.98-6.606-.959-3.3.02-5.897.437-5.893 1.037M215.245 362.07c.004.6 3.006.982 7.106.956 4.4-.028 6.798-.443 6.394-1.04-.304-.598-3.506-.978-7.106-.955-3.6.022-6.398.44-6.394 1.04M240.244 361.814c.006 1 12.012 1.924 12.606.92.792-1.305-1.212-1.892-6.812-1.857-3.2.02-5.797.437-5.794.937M263.744 361.766c-.297.502.008 1.3.81 1.595 2.305.785 12.7-.08 12.993-1.182.291-1.402-12.912-1.819-13.803-.413M287.643 361.516c-.199.201-.095.8.208 1.199.708 1.295 15.406 1.003 15.399-.197-.004-.6-.307-.998-.707-1.096-3.202-.28-14.502-.209-14.9.094M332.742 361.132c-1.49 1.61.213 2.2 6.013 2.163 6.8-.043 9.388-1.96 2.787-2.118-2.1.013-4.801-.17-6.102-.262-1.201-.192-2.4.016-2.698.217M311.25 362.467c.003.6 2.706.984 6.006.963s5.997-.438 5.993-1.038-2.706-.983-6.006-.962c-3.3.02-5.997.438-5.993 1.037M353.249 362.204c.003.6 2.706.983 6.006.962 3.3-.02 5.997-.438 5.993-1.038s-2.706-.983-6.006-.962c-3.3.02-5.997.438-5.993 1.038M375.248 362.065c.004.6 3.407.979 8.106.95 5.1-.033 7.798-.45 7.394-1.047-.304-.598-4.006-.975-8.106-.95-4.3.028-7.397.447-7.394 1.047M402.248 361.896c.004.6 3.006.98 7.106.955 4.4-.028 6.797-.443 6.393-1.04-.303-.598-3.506-.978-7.106-.955-3.6.022-6.397.44-6.393 1.04M427.247 361.739c.004.6 2.906.981 6.606.958 4.1-.026 6.298-.44 5.894-1.037-.304-.598-3.306-.98-6.606-.958-3.3.02-5.898.437-5.894 1.037M448.247 361.607c.004.6 3.006.98 7.106.955 4.4-.028 6.797-.443 6.394-1.04-.304-.598-3.507-.978-7.107-.955-3.6.022-6.397.44-6.393 1.04M469.246 361.475c.004.6 2.807.982 6.507.959s6.497-.44 6.493-1.04-2.806-.983-6.506-.96-6.497.44-6.494 1.04M492.246 361.33c.003.5 2.506.985 5.506.966s5.497-.535 5.494-1.035c-.004-.6-2.506-.984-5.506-.965s-5.498.434-5.494 1.034M513.246 361.198c.003.6 2.706.983 6.006.963s5.997-.438 5.993-1.038-2.706-.983-6.006-.962c-3.3.02-5.997.437-5.993 1.037M536.245 361.054c.004.6 2.706.983 6.106.961 3.7-.023 5.798-.436 5.394-1.033-.304-.599-3.106-.981-6.106-.962s-5.398.434-5.394 1.034M555.745 360.931c-.396.603 1.806.989 5.906.963 3.7-.023 6.597-.441 6.593-1.041-.003-.6-2.606-.984-5.906-.963-3.3.02-6.297.44-6.593 1.041M577.244 360.796c.003.5 2.507.984 5.506.966 3-.02 5.497-.535 5.494-1.035-.004-.6-2.506-.984-5.506-.965-3 .018-5.497.434-5.494 1.034M597.244 360.67c.003.5 2.506.985 5.506.966s5.497-.535 5.494-1.035c-.004-.6-2.507-.984-5.506-.965s-5.498.435-5.494 1.035M615.244 360.557c.003.5 2.406.985 5.406.966 3-.018 5.796-.536 6.093-1.038.397-.602-1.706-.99-5.406-.966-3.4.021-6.097.438-6.093 1.038M634.243 360.438c.003.5 2.306.986 5.006.969 2.8-.018 4.997-.532 4.994-1.032-.004-.6-2.206-.986-5.006-.968-2.7.017-4.998.431-4.994 1.031M654.243 360.312c.004.6 2.806.983 6.506.96s6.497-.441 6.494-1.041-2.807-.983-6.507-.96-6.497.441-6.493 1.041M677.242 360.168c.004.6 2.707.983 6.006.962 3.3-.02 5.998-.438 5.994-1.038s-2.706-.983-6.006-.962c-3.3.02-5.997.438-5.994 1.038M701.242 360.017c.004.6 2.706.983 6.006.962 3.3-.02 5.997-.437 5.994-1.037s-2.707-.983-6.007-.963-5.997.438-5.993 1.038M723.241 359.879c.004.6 2.707.983 6.107.961 3.7-.023 5.797-.436 5.393-1.033-.304-.599-3.106-.98-6.106-.962s-5.397.434-5.394 1.034M743.741 359.75c-.396.603 1.706.99 5.506.965 3.8-.023 5.898-.437 5.494-1.034-.304-.598-2.806-.982-5.506-.966s-5.198.433-5.494 1.035M765.84 359.511c-.594.904 10.314 2.135 11.709 1.327.398-.203.494-.903.19-1.402-.807-1.195-11.207-1.13-11.9.075M787.24 359.477c.004.6 2.906.981 6.606.958 4.1-.026 6.298-.44 5.894-1.037-.304-.598-3.306-.98-6.606-.958-3.3.02-5.898.437-5.894 1.037M807.74 359.348c-.396.602 1.706.99 5.406.966 3.4-.021 6.097-.438 6.094-1.038s-2.407-.985-5.407-.966c-3 .018-5.797.436-6.093 1.038M827.74 359.222c-.397.603 1.206.993 4.006.975 2.8-.017 4.397-.428 3.993-1.025-.304-.598-2.106-.987-4.006-.975s-3.697.423-3.994 1.025M87.323 374.875c-1.393 1.108-2.787 2.017-3.187 2.02-1.7.01-14.747 8.593-14.74 9.593.003.5.913 2.094 2.022 3.487s2.017 2.787 2.02 3.187c.008 1.3 13.23 20.718 14.03 20.713 1.5-.01 3.084-2.52 3.07-4.72-.008-1.3.586-2.304 1.286-2.308.6-.004 5.718 2.764 11.238 6.03 16.362 9.797 17.064 10.093 20.052 8.174 2.29-1.515 2.486-2.216 2.44-9.516-.049-7.8-.049-7.8-4.766-10.47-2.71-1.483-8.53-4.847-13.147-7.418-4.516-2.671-8.53-4.846-8.73-4.845-.3.002-2.307-1.085-4.516-2.472-3.714-2.276-3.917-2.775-4.25-7.873-.334-5.498-.334-5.498-2.822-3.582m-.953 7.406c.027 4.4.027 4.4 6.85 7.957 3.712 1.977 9.934 5.438 13.748 7.614 3.914 2.175 8.53 4.646 10.335 5.535 3.21 1.68 3.21 1.68 3.26 9.48.026 4.3-.252 7.801-.652 7.804-.5.003-2.406-.985-4.313-2.173-10.842-6.532-24.186-13.648-26.79-14.232-2.003-.487-2.301-.186-2.288 2.014.023 3.6-1.48 3.21-4.107-1.174-1.213-1.992-4.242-6.673-6.665-10.358-4.747-7.37-5.259-9.267-2.564-10.084 1.897-.612 7.376-3.847 8.17-4.852.496-.603 2.99-1.719 4.289-1.827.399-.102.712 1.896.727 4.296"/><path d="M87.455 395.874c.02 3.3.438 5.998 1.038 5.994s.994-.906.986-2.106c-.01-1.6.389-1.903 1.992-1.413 1.102.393 2 .188 1.997-.412-.004-.6-.91-1.595-2.014-2.288-2.912-1.782-2.518-2.884.786-2.205 2.703.483 2.703.483.29-1.502-4.022-3.574-5.117-2.768-5.075 3.932M96.886 400.815c1.038 5.994 1.946 7.288 3.028 4.481.984-2.606 2.49-1.615 3.213 1.98.83 4.695 1.728 4.39 3.194-1.02 1.465-5.51 1.459-6.51.159-6.501-.5.003-.996.706-.99 1.506.004.8-.391 1.503-.991 1.506-.5.003-1.007-1.093-1.015-2.393-.02-3.2-1.727-4.19-2.51-1.585-.982 3.007-2.485 2.416-2.507-.984-.01-1.8-.518-2.997-1.318-2.992-1 .007-1.093 1.207-.263 6.002M109.53 407.836c.035 5.4.238 5.998 2.645 7.083 3.811 1.776 5.9-.037 5.77-4.736-.224-3.899-2.742-6.783-6.649-7.858-1.602-.39-1.797.41-1.765 5.51m5.597-.635c2.02 3.087 1.537 5.99-1.063 6.006-1.6.01-2.105-.786-2.327-4.285-.43-4.797.867-5.406 3.39-1.721M672.983 557.599c-.499.203-4.393 1.227-8.487 2.153-9.287 2.158-24.04 9.551-34.492 17.217-4.28 3.227-12.435 10.478-17.999 16.213-7.155 7.245-11.134 10.47-13.431 10.985-4.194 1.026-10.563 5.866-14.53 11.291-5.156 6.933-7.318 12.947-7.762 21.85-.362 6.102-.947 8.506-2.436 10.215-1.887 2.112-1.983 2.813-.727 27.605 1.261 25.593 1.261 25.593-1.208 30.508-3.062 6.12-3.311 14.122-.597 16.405.906.894 4.016 2.574 6.724 3.757 11.933 5.226 11.731 5.027 11.048 7.631-.292 1.302.951 8.194 2.696 15.283 3.282 12.98 3.282 12.98.607 16.997-1.485 2.41-2.566 5.416-2.554 7.416.012 1.9-.476 3.803-.974 4.106-2.39 1.515-9.118 13.058-9.103 15.458.009 1.4-1.174 4.207-2.762 6.117-1.487 2.01-2.966 5.32-3.152 7.52-.287 2.202-1.259 6.608-2.239 9.815-2.156 6.913-1.24 9.408 4.378 12.372 6.421 3.36 10.336 5.636 27.802 16.126 9.435 5.54 18.47 10.984 20.276 11.973 1.806.988 5.118 2.968 7.328 4.454s4.315 2.373 4.712 1.97c.298-.302.396-.702.194-.901-2.812-1.982-9.035-5.643-9.435-5.64-.4.002-2.609-1.384-5.019-2.97-2.41-1.684-4.719-2.97-5.019-2.968-.4.003-3.009-1.481-5.82-3.363-6.025-3.763-19.375-11.779-24.693-14.645-12.644-6.821-14.151-8.012-14.172-11.312-.01-1.7.668-5.104 1.454-7.409s1.465-5.51 1.456-7.01 1.272-4.407 2.959-6.518c1.786-2.211 2.968-5.019 2.958-6.719-.012-1.8 1.864-5.611 5.233-10.633 3.468-5.122 5.245-8.833 5.232-10.833.089-1.8 1.071-4.607 2.26-6.314 2.677-3.717 2.457-6.916-.923-19.595-1.127-4.393-2.16-9.586-2.173-11.586-.012-1.9-.727-4.396-1.534-5.49-.806-.996-1.523-3.691-1.537-5.891-.114-2.2-.631-4.896-1.138-5.993-.709-1.396-.802-.295-.377 3.702.32 3.198.137 5.8-.363 5.803-1.5.009-11.627-4.227-13.035-5.519-2.112-1.886-1.672-11.49.8-15.805 2.079-3.513 2.174-4.214 1.215-29.608-.754-24.496-.765-26.196 1.023-28.107 1.192-1.308 1.68-3.21 1.565-5.61-.43-4.797 1.513-13.81 3.88-19.125 2.664-5.717 9.815-13.562 14.3-15.79 1.895-.912 3.691-1.523 3.993-1.325.201.299-1.581 3.11-3.96 6.425-2.38 3.215-6.738 9.942-9.606 14.96-5.244 9.034-5.244 9.034-5.375 20.035-.146 8.6-.037 9.9.638 5.996.382-2.803.852-7.606.833-10.706.08-3.1.562-6.003 1.16-6.307.498-.403 2.803.482 5.013 1.969 2.208 1.386 4.515 2.471 5.114 2.267.599-.203-1.212-1.892-4.122-3.574l-5.221-3.267 2.67-4.717c3.265-5.62 11.684-18.474 14.561-22.192 5.457-6.934 24.841-25.356 31.612-29.999 19.814-13.725 36.482-18.93 53.097-16.634 6.505.86 15.725 3.901 15.733 5.201 0 .1-4.399.228-9.798.362-12 .075-19.287 2.121-32.145 8.902-20.034 10.526-39.918 29.051-54.482 50.743-8.916 13.457-10.291 17.365-9.426 27.76.758 9.196 1.45 7.891 1.385-2.409-.059-9.4-.059-9.4 4.888-17.83 6.235-10.44 14.269-20.99 23.307-30.748 13.112-14.182 35.323-28.322 51.295-32.823 10.182-2.864 22.982-2.944 30.5-.191 5.512 1.965 5.512 1.965 5.543 6.965.017 2.7-.169 4.901-.269 4.902-.2.001-1.904-.688-3.71-1.577-2.408-1.285-4.71-1.47-9.306-.942-13.59 1.486-24.818 13.157-27.52 28.774a821 821 0 0 0-1.546 8.51c-.581 3.004-10.243 9.064-12.352 7.778-8.03-4.85-12.841-6.62-18.541-6.584-7 .044-11.388 1.972-17.952 7.813-6.563 5.841-10.111 14.064-10.741 25.268-.269 5.002-.94 9.406-1.537 10.01-2.087 2.113-1.986 2.212 17.38 12.79 2.51 1.385 3.718 2.778 3.727 4.177.021 3.4 3.435 5.579 9.74 6.34 5.805.763 7.31 1.454 26.08 12.636 4.014 2.275 7.727 4.251 8.327 4.248.5-.004 1.002.393 1.006.993.003.5.706.996 1.506.99.9-.005 3.714 2.178 6.332 4.961 3.925 3.976 5.43 4.966 8.13 4.95 3.4-.022 6.61 1.558 22.87 10.956 5.019 2.968 10.539 6.134 12.244 7.023 1.706.89 3.116 2.48 3.122 3.48.015 2.3 4.934 5.27 8.433 5.247 1.5-.009 4.506.872 6.714 2.058 2.306 1.086 4.31 1.773 4.51 1.572.993-1.006-7.131-4.855-11.937-5.725-2.803-.483-5.509-1.466-6.013-2.162-.404-.598-.627-4.197-.35-7.998.275-3.902.057-6.7-.543-6.697-.5.003-.887 2.006-.871 4.506.015 2.5-.472 4.503-.972 4.506-.6.003-7.021-3.356-14.348-7.51-18.065-10.387-17.965-10.288-20.965-10.269-3.9.025-7.511-1.853-8.227-4.348-.307-1.098-.328-4.498.053-7.4.378-3.603.168-5.202-.632-5.197-.6.004-1.089 1.807-1.072 4.507.016 2.5-.372 4.502-.772 4.505-.5.003-3.41-1.579-6.621-3.458s-6.022-3.463-6.222-3.461c-.2 0-6.022-3.363-12.947-7.42-10.44-6.234-13.147-7.417-16.847-7.394-7.2.046-8.108-1.249-7.468-10.753.27-4.702.049-8.2-.451-8.197s-.888 2.005-.872 4.505c.035 5.5-1.658 6.611-5.677 3.736-1.506-.99-5.62-3.365-9.132-5.143-4.716-2.47-6.123-3.661-5.73-4.864.394-.902 1.06-6.106 1.526-11.61 1.032-10.806 2.805-15.217 9.458-22.66 3.873-4.324 12.15-7.976 18.05-8.013 5.7-.036 13.827 4.213 48.357 24.797 5.22 3.067 11.24 6.43 13.347 7.416 2.006.987 3.713 2.077 3.716 2.577.003.4.505.797 1.005.793.6-.003 6.721 3.358 13.648 7.515 6.925 4.056 12.846 7.32 13.044 7.018.596-.604-.91-1.694-12.151-8.124-5.52-3.065-11.743-6.726-13.751-8.014-2.108-1.286-4.215-2.373-4.815-2.37-.5.004-1.002-.293-1.005-.793-.003-.4-1.008-1.194-2.311-1.786-1.204-.592-4.415-2.372-7.226-4.054-2.71-1.683-10.54-6.234-17.264-10.192-6.825-3.957-12.348-7.523-12.35-8.023-.003-.4 1.886-2.011 4.278-3.427 5.18-3.032 6.367-5.24 6.82-12.543 1.277-19.708 21.286-34.334 37.13-27.233 4.313 1.973 12.842 6.519 23.58 12.552 1.907 1.088 6.422 3.56 10.034 5.437 15.151 8.105 18.764 10.082 22.078 12.361 3.615 2.378 5.52 2.966 4.61 1.371-.506-.797-6.828-4.357-25.192-14.442-33.216-18.291-30.904-16.506-31.044-22.805-.137-5.8-.137-5.8-7.163-10.055-3.815-2.376-9.933-5.138-13.54-6.315-6.012-1.863-18.222-3.386-20.516-2.471"/><path d="M672.869 619c.002.4 2.11 1.787 4.82 3.17 2.608 1.384 9.734 5.44 15.756 9.001 6.123 3.562 13.55 7.815 16.56 9.497 3.01 1.58 7.928 4.35 10.839 6.032 7.729 4.651 11.54 6.427 10.833 5.232-.404-.598-5.023-3.569-10.442-6.635-5.32-3.067-12.245-7.023-15.256-8.804s-7.527-4.353-10.036-5.637c-2.508-1.385-8.53-4.747-13.348-7.617-9.333-5.341-9.734-5.439-9.726-4.239M179.007 690.405c-3.288 1.92-1.356 6.909 2.644 6.883 1-.006 1.503.491 1.107 1.093-.297.602-1.695.811-3.198.42-2.203-.486-2.402-.384-1.294.909 1.712 1.989 2.612 1.983 4.5-.029 3.776-3.823.626-11.704-3.759-9.276m3.819 2.876c.005.8-.79 1.605-1.69 1.81-1.298.209-1.8-.288-1.81-1.788s.487-2.003 1.788-1.811c.902.194 1.707.989 1.712 1.789"/><path d="M187.01 690.755c-3.086 2.219-1.36 6.508 2.64 6.483 1-.006 1.504.49 1.107 1.093-.296.602-1.494.81-2.596.617-1.502-.391-1.702-.29-.794.905 1.712 1.889 4.8.07 5.58-3.336.584-2.403.783-2.505 1.994-.812.806.995 2.01 1.487 2.907 1.082q1.646-.61 1.204.592c-.196.701-1.493 1.21-2.793 1.118-2.302-.286-2.302-.186-.493 1.203 1.708 1.289 2.208 1.286 3.799-.224 2.386-2.215 2.353-7.515-.157-9-1.606-.99-2.405-.884-4.495.829-1.393 1.109-2.59 1.616-2.593 1.016-.012-1.9-3.42-2.978-5.31-1.566m4.117 2.774c.208 1.198-.289 1.702-1.689 1.71-1.5.01-2.104-.586-2.113-2.086-.016-2.5 3.286-2.221 3.802.376m8.198-.352c.008 1.3-.687 2.005-1.987 2.013-1.9.012-2.713-1.983-1.32-3.292 1.29-1.408 3.295-.62 3.307 1.28M211.914 691.298c-.893 1.206-1.582 2.91-1.576 3.81.012 1.9 2.837 5.982 4.137 5.974.5-.003 1.695-.91 2.588-2.016.993-1.106 2.787-2.018 3.987-2.025 1.3-.008 2.297-.515 2.294-1.015-.004-.6-1.107-.993-2.507-.984-1.5.01-2.503-.584-2.508-1.384-.01-1.6-2.63-4.584-4.03-4.575-.5.003-1.593 1.01-2.385 2.215m3.923 3.776c.012 1.8-.478 3.503-1.176 3.707-1.397.509-2.825-3.982-1.94-6.288.983-2.706 3.094-.92 3.116 2.58M225.91 690.61c-3.578 3.623-.527 11.604 3.559 9.378 1.395-.809 1.886-2.112 1.868-5.012-.03-4.8-2.844-6.982-5.427-4.366m3.812 1.976c1.728 4.39-.35 7.803-3.068 5.12-1.006-.994-1.315-2.392-.926-4.095.682-2.904 3.078-3.519 3.994-1.025M234.607 690.156c-.596.703-1.081 3.006-1.069 5.006-.173 4.302 2.14 6.287 5.13 4.568 1.494-.81 1.688-1.71 1.167-5.107-.933-5.194-3.144-7.08-5.228-4.467m3.711 1.776c.003.5-.694 1.005-1.494 1.01s-1.503-.49-1.506-.99c-.004-.6.694-1.005 1.494-1.01s1.502.39 1.506.99m.323 3.698c.805.695-1.079 3.307-2.379 3.315-.5.003-.905-.894-.912-1.994-.012-1.9 1.983-2.713 3.291-1.32M242.507 690.106c-1.69 1.71-1.457 6.81.456 8.897 1.913 2.188 5.405.866 5.388-1.934-.009-1.3.292-1.202 1.603.59 1.917 2.688 5.019 2.869 6.402.26 1.383-2.809 1.271-4.608-.844-7.095-2.016-2.487-4.413-1.972-5.992 1.338-.79 1.705-1.089 1.807-1.097.507-.106-1-1.014-2.194-2.018-2.788-2.408-1.285-2.408-1.285-3.898.225m4.33 4.773c.032 5.1-2.87 4.818-3.302-.28-.32-3.298-.124-3.799 1.478-3.509 1.301.192 1.808 1.189 1.824 3.789m8-.05c.032 5.1-2.87 4.818-3.302-.28-.32-3.298-.124-3.8 1.478-3.51 1.301.193 1.807 1.19 1.824 3.79M205.022 692.641c-3.079 3.42-2.97 4.92.133 5.3 1.202.192 2.206.886 2.21 1.486.004.7.403.597.898-.306.495-.803.579-3.303.165-5.5l-.624-3.897zm1.821 3.39c-.89 1.605-2.498.315-1.81-1.49q.592-1.503 1.497-.609c.604.596.71 1.496.313 2.098M259.93 693.696c.503.497 10.106 1.037 21.209 1.367 11.201.23 21.005.768 21.707 1.164 3.915 2.275 11.567 10.627 11.58 12.727.009 1.3 1.726 4.09 3.942 6.576 4.026 4.175 4.026 4.175 6.616 2.458 1.394-.909 3.48-3.122 4.469-4.928 3.76-6.224 1.937-10.012-5.17-11.068-3.603-.477-5.002-.268-6.194.94-.895.805-1.89 1.511-2.39 1.514-.4.003-3.718-2.676-7.338-5.954l-6.538-5.959-21.4.135c-12.5.078-21.096.532-20.493 1.028m61.075 11.817c1.01 1.694-2.27 4.614-3.78 3.124-.805-.795-.81-1.495.183-2.701 1.488-1.81 2.588-1.917 3.597-.423m8.115 2.349c.318 2.898.218 2.899-.896.706-1.417-2.791-3.815-2.476-5.395.734-1.383 2.708-.768 5.105 1.232 5.092.8-.005 1.403.491 1.407 1.091s-.994.906-2.196.714c-3.403-.479-3.53-4.778-.254-8.699 3.175-3.92 5.776-3.736 6.102.362m-2.688 1.917c.01 1.6-1.78 3.111-2.686 2.217-.805-.795.477-3.603 1.677-3.61.5-.004 1.004.593 1.01 1.393m2.013 2.087c.002.3-.197.502-.497.503s-.5-.196-.503-.496c-.002-.3.197-.502.497-.504.3-.001.501.197.503.497M596.636 709.481c-3.88 3.325-4.063 6.026-.537 10.104 3.124 3.78 4.724 3.87 9.103.443 4.08-3.126 3.572-4.523-.51-1.497-3.683 2.623-4.683 2.63-7.199.145-2.616-2.584-2.744-6.983-.144-7 1-.006 2.405.686 3.11 1.481.705.896 1.508 1.29 1.806.989s-.31-1.498-1.416-2.591c-1.41-1.591-1.515-2.29-.617-2.596 1.297-.509 1.686-2.311.486-2.303-.5.003-2.292 1.314-4.082 2.825M331.465 715.047c.005.8 6.533 5.26 7.533 5.253 1.6-.01-.014-2.3-2.725-3.983-3.513-2.078-4.815-2.47-4.808-1.27M309.496 719.986c-.695.804-2.19 1.513-3.39 1.52-2.7.018-3.995.926-5.477 3.835-1.185 2.308-1.185 2.308-21.187 2.134-15.4-.104-19.9.125-19.894 1.025s2.308 1.285 7.809 1.35c4.2-.026 13.302.217 20.103.374 10.903.432 12.705.72 13.915 2.413.808 1.195 2.512 1.884 4.312 1.873 1.7-.01 3.704.677 4.61 1.47 1.811 1.89 5.206 1.068 7.189-1.744 1.188-1.808 2.488-1.916 15.789-1.8 13.2.117 14.7-.092 15.59-1.698.79-1.405.485-2.203-1.123-3.493s-5.112-1.868-14.915-2.306c-12.604-.62-12.804-.62-15.322-3.504-2.72-3.283-6.024-3.862-8.01-1.45m6.614 2.158c1.713 2.19 1.86 9.489.27 11.099-.696.704-1.993 1.212-3.093 1.219-1.7.01-1.701-.19-.314-2.198.893-1.206 1.579-3.41 1.57-4.81s-.723-3.596-1.63-4.79c-1.413-1.991-1.414-2.191.186-2.201.9-.006 2.305.785 3.01 1.681m-8.778 3.655c.721 3.296-.658 6.705-2.658 6.717-1.9.012-3.11-1.78-3.13-4.88-.025-3.9 5.066-5.432 5.788-1.837m3.189-1.82c.002.3-.197.501-.497.503s-.501-.197-.503-.497.197-.5.497-.503c.3-.002.501.197.503.497m2.023 3.588c.015 2.4-2.287 2.114-2.803-.383-.206-.999.29-1.702 1.19-1.707 1-.007 1.605.89 1.613 2.09m13.806 1.013c.31 1.498-.388 1.802-3.188 1.82-3 .019-3.603-.377-3.614-2.077s.488-2.004 3.19-1.72c2.2.186 3.405.878 3.612 1.977m2.906.982c-.295.701-.498.203-.507-1.197s.188-1.901.492-1.303c.204.698.212 1.898.015 2.5m3.792-1.324c.303.498.108 1.2-.49 1.603-.498.303-1-.094-1.005-.894-.012-1.8.586-2.104 1.495-.71m2.205.786c-.398.302-.7.004-.704-.696s.293-1.002.695-.704c.303.398.307.998.01 1.4m3.003.481c-.295.802-.597.504-.604-.596-.106-1.1.19-1.701.492-1.303.302.298.408 1.197.112 1.9m3-.019c-.295.802-.597.504-.604-.596-.106-1.1.19-1.701.492-1.303.302.298.408 1.197.112 1.9m3.003.481c-.398.303-.7.005-.704-.695s.294-1.002.695-.705c.303.398.307.998.01 1.4m3.296-.72c.003.5-.394 1.002-.994 1.006-.5.003-1.003-.494-1.006-.994-.004-.6.494-1.003.994-1.006.6-.004 1.002.394 1.006.994m-36.487 2.229c.303.498-.094 1-.994 1.006s-1.303-.492-1.006-.994c.296-.601.794-1.005.994-1.006s.702.396 1.006.994M368.001 720.618c-.295.802-.686 2.204-.98 3.106-.687 2.105 1.227 4.393 3.123 3.68.997-.406 1.4.192 1.413 2.092.02 3.1-1.38 3.309-3.297.52-1.009-1.393-2.312-1.885-4.11-1.674-3.498.422-3.387 2.222.116 2.6 1.501.19 3.207 1.08 3.812 1.876s2.008 1.287 3.106 1.08c2.897-.518 2.656-7.017-.352-8.298-2.607-1.083-3.122-3.48-.922-3.494.8-.005 2.707 1.083 4.215 2.274 2.715 2.383 2.715 2.383.961 9.794-.874 4.105-2.047 8.413-2.54 9.616-.785 2.305-.785 2.305-4.399.128-3.613-2.078-3.613-2.178-3.145-7.18l.568-5.105-1.768 5.012c-1.869 5.012-1.869 5.012.745 7.295 1.408 1.191 3.416 2.479 4.418 2.772.902.295 1.709 1.39 1.715 2.39.013 2-7.438 25.747-8.725 27.955-.693 1.004-4.093 1.126-17.197.508-14.504-.709-19.402-.378-17.792 1.312.301.198 8.604.546 18.404.584l17.902.188 4.804-15.33 4.804-15.231 5.8-.037c3.2-.02 6.197-.538 6.493-1.14.396-.603 1.295-.809 2.097-.514 1.904.688 1.795-.81-.216-2.498-1.005-.794-1.313-1.992-.824-3.795.291-1.402 1.166-5.408 1.844-8.912 1.355-7.209 1.051-7.807-5.67-11.165-4.716-2.47-13.717-2.713-14.403-.409m13.512 1.915c2.509 1.384 2.509 1.384-1.09 1.507-2.1.013-4.205-.674-4.91-1.47-1.008-1.293-.909-1.493 1.091-1.506 1.3.092 3.504.678 4.91 1.47m5.64 6.165c-.39 1.602-1.07 5.007-1.552 7.71-.967 5.306-1.955 7.212-1.977 3.812-.015-2.5-1.422-3.49-3.916-2.675-2.495.815-4.17 4.726-2.857 6.918 1.213 2.092.52 3.097-1.388 1.909-1.204-.693-1.113-2.093.541-9.304 1.17-4.707 2.443-9.116 2.839-9.818.496-.603 2.592-1.216 4.892-1.23 3.9-.025 4 .074 3.417 2.678m-5.823 12.437c-.292 1.202.014 2.2.916 2.594 2.105.787 1.721 3.29-.579 3.304-1.1.007-2.004-.688-2.01-1.488-.004-.8-.409-1.497-1.009-1.493-1.4.008-1.314-2.292.177-3.802 1.888-1.912 3.09-1.42 2.505.885M341.904 721.182c.91 1.494 7.632 5.052 7.626 4.052-.007-1.1-5.432-4.966-7.032-4.956-.6.004-.897.406-.594.904M181.517 723.79c-1.587 2.01-.265 5.502 2.235 5.486 1.1-.007 1.803.489 1.507 1.19-.195.702-1.392 1.21-2.593 1.117-1.301-.192-2 .112-1.595.71.808 1.395 3.808 1.276 5.298-.234.696-.704 1.184-2.607 1.173-4.307-.03-4.9-3.445-7.179-6.025-3.962m4.016 2.475c.013 2.1-2.383 2.815-3.494 1.022-.809-1.395.281-3.002 2.081-3.014.8-.005 1.406.892 1.413 1.992M190.018 723.836c-.795.905-1.488 1.91-1.485 2.41.01 1.5 3.125 3.98 4.221 3.373.598-.403.9-.105.604.696-.295.802-1.291 1.309-2.191 1.314-.9-.094-1.599.21-1.596.71s1.106.893 2.506.885c1.8-.012 2.595-.717 3.084-2.52 1.365-5.509-1.963-9.988-5.143-6.868m3.317 2.68c.206.998-.29 1.701-1.19 1.707-1.8.011-2.91-1.582-2.12-3.087.892-1.405 2.897-.618 3.31 1.38M197.514 723.19c.003.5.906.994 2.006.987 2.1-.014 2.506.984 1.216 2.492-1.39 1.709-3.16 6.52-2.36 6.515 1.1-.007 5.143-9.132 4.536-10.229-.706-1.095-5.406-.966-5.398.234M206.018 723.836c-2.087 2.013-1.471 4.61 1.336 5.792 3.11 1.38 2.819 2.882-.487 2.003-2.604-.584-2.703-.483-1.194 1.007 3.221 3.28 6.892-1.343 5.457-6.934-.82-3.095-3.125-3.98-5.112-1.868m3.518 2.778c.005.8-.691 1.504-1.491 1.51-.8.004-1.504-.691-1.51-1.491-.004-.8.691-1.505 1.491-1.51s1.504.69 1.51 1.49M214.812 722.78c-.7.205-1.29 1.709-1.28 3.309.015 2.3.317 2.698 2.015 2.287 1.597-.41 2-.013 2.01 1.687.012 1.9-.386 2.103-2.69 1.617-2.603-.583-2.703-.483-.894.806 1.406 1.091 2.407 1.185 3.703.477 2.79-1.418 2.27-4.615-.84-6.295-2.709-1.383-2.71-1.683-.313-1.998 1.2-.108 1.488-2.01.287-2.202-.401-.098-1.4.009-1.998.313M226.72 724.206c-1.689 1.71-1.453 7.309.356 8.798 2.111 1.786 4.204.573 4.982-2.932 1.068-5.106-2.356-8.885-5.337-5.866m4.216 2.373c.61 1.696-.866 5.406-2.266 5.415-1.3.008-2.22-2.986-1.632-5.09.785-2.305 3.084-2.52 3.898-.325M234.92 724.154c-.495.703-.98 3.006-1.068 5.007-.182 2.801.225 3.999 1.63 4.79 2.809 1.382 4.294-1.027 3.861-6.224-.328-4.399-2.74-6.383-4.422-3.573m3.612 1.778c.003.5-.694 1.004-1.494 1.009s-1.503-.49-1.506-.99c-.004-.6.694-1.005 1.494-1.01s1.502.39 1.506.99m-.17 4.7c-.485 2.504-2.783 2.818-2.798.418-.008-1.2.587-2.103 1.587-2.11.9-.005 1.404.691 1.21 1.693M242.02 723.91c.302.498 1.305.991 2.205.986 1.1-.007 1.404.591.814 2.195-1.763 5.91-1.257 6.808 1.012 1.893 1.382-2.908 2.466-5.515 2.464-5.715-.001-.2-1.602-.39-3.602-.378-2.1.014-3.298.421-2.894 1.019M250.72 724.055c-1.987 2.012-1.446 8.61.761 9.695 3.211 1.78 5.877-3.637 4.148-8.326-1.118-2.793-3.02-3.281-4.909-1.37m3.628 4.477c-.274 4.102-2.265 5.515-3.284 2.42-.918-2.793.261-6.1 2.061-6.112 1.1-.007 1.406.891 1.223 3.692M597.846 727.074c-4.183 2.726-4.869 4.93-2.545 8.816 3.336 5.58 7.039 6.056 12.211 1.723 3.382-2.92 1.878-3.611-1.706-.989-2.19 1.614-3.786 2.124-5.69 1.636-2.804-.682-5.128-4.568-4.243-6.974.787-2.005 2.087-2.013 4.099-.125 2.214 2.286 3.011 1.78 1.294-.908-1.21-1.693-1.316-2.592-.521-3.397 2.087-2.113.287-2.002-2.899.218M221.057 730.041c.303.499 1.007.994 1.607.99.5-.003.896-.505.893-1.005-.004-.6-.706-.996-1.606-.99-.8.005-1.197.407-.894 1.005M352.055 729.218c-.397.603.806.995 2.906.982 2-.012 3.597-.523 3.594-1.022-.004-.6-1.307-.992-2.907-.982-1.7.01-3.297.42-3.593 1.022M618.767 730.343c-1.79 1.51-3.179 3.42-3.174 4.22.108 1.199.308 1.198 1.399-.31 1.686-2.21 3.386-2.22 3.199-.12.006.9.512 1.898 1.314 2.192 1.002.294 1.2-.007.691-1.304-.509-1.497-.41-1.597.897-.506 1.81 1.49 2.036 5.688.34 6.298-.699.205-.996.707-.693 1.105.704.695 9.27-4.758 10.359-6.565.891-1.406-.307-1.098-2.996.718-2.49 1.616-4.492 1.229-4.506-.971-.005-.8-.712-1.896-1.516-2.59-.905-.695-1.412-1.892-1.117-2.594.885-2.505-.913-2.194-4.197.427M491.453 744.443c-2.69 1.517-2.17 4.614 1.036 5.693 2.706.983 2.706.983.312 1.898-1.396.61-1.993 1.213-1.39 1.61 3.312 1.978 6.08-3.139 4.251-7.728-1.017-2.793-1.618-2.99-4.209-1.473m2.718 2.883c.005.7-.59 1.504-1.189 1.707-.798.305-1.303-.392-1.31-1.692-.009-1.3.487-2.003 1.288-1.808.602.297 1.207 1.093 1.211 1.793M498.655 744.798c-1.786 2.11-.77 4.804 2.035 5.487 1.702.39 2.105.787 1.209 1.392-.598.404-1.598.41-2.2.114-.501-.297-1-.194-.997.406.01 1.5 1.614 2.19 3.41 1.479 2.194-.914 2.143-8.914-.062-9.8-2.105-.787-2.005-.787-3.395.922m3.516 2.478c.005.7-.59 1.503-1.19 1.707-.797.305-1.302-.392-1.31-1.692s.488-2.003 1.289-1.808c.602.296 1.207 1.093 1.211 1.793M506.853 744.446c-1.888 1.912-1.369 4.909.835 5.495 2.404.585 2.714 2.283.314 2.298-1.2.007-1.398.309-.693 1.004 2.918 2.882 6.181-2.939 3.955-7.125-1.418-2.79-2.82-3.282-4.41-1.672m3.318 2.78c.004.7-.59 1.503-1.19 1.707-.797.305-1.302-.392-1.31-1.692s.487-2.003 1.289-1.808c.602.296 1.207 1.092 1.211 1.792M514.159 745.3c-.785 2.405-.079 3.4 2.321 3.386.9-.006 1.705.689 1.71 1.489.006 1-.792 1.405-2.192 1.314-1.301-.192-2.299.214-2.296.714.004.6 1.407.991 3.007.981 2.6-.016 2.997-.419 2.983-2.619-.01-1.7-.617-2.796-2.02-3.087-1.101-.293-2.005-.887-2.008-1.387s.894-.906 1.994-.913 1.997-.512 1.994-1.012c-.013-2-4.807-1.07-5.493 1.134M535.16 745.468c-1.485 2.31-1.27 4.708.847 7.395.806.995 1.506.89 3.398-.321 2.091-1.414 2.491-1.416 3.9-.025 1.911 1.788 2.612 1.884 4.202.274 1.689-1.71 1.454-7.31-.356-8.798-2.11-1.687-4.498.328-4.575 3.929.009 1.4-.288 1.901-.593 1.103-2.04-6.287-4.347-7.472-6.823-3.557m4.02 3.175c.012 1.9-.481 2.903-1.481 2.91-1.6.01-2.518-2.785-1.632-5.09.984-2.507 3.093-1.02 3.113 2.18m7.484-2.647c.003.5-.694 1.004-1.594 1.01-.8.005-1.203-.492-.906-.994.296-.602.994-1.007 1.594-1.01.5-.004.902.394.906.994m.328 4.498c.103.5-.593 1.104-1.492 1.31-1.098.206-1.801-.29-1.808-1.29-.01-1.7 2.989-1.818 3.3-.02M551.254 744.467c-.884 2.506-.681 2.904.91 1.494 2.785-2.317 3.8.076 1.117 2.693-3.48 3.222-3.273 4.321.726 4.196 2.5-.116 2.698-.317.896-.606-2.403-.485-2.403-.485-.118-2.899 1.788-2.011 2.082-2.913 1.274-4.208-1.515-2.29-4.017-2.675-4.805-.67M559.255 744.517c-.886 2.305-.68 3.104.31 1.498.594-.804 1.592-1.11 2.695-.717 1.604.59 1.506.89-.88 3.206-3.58 3.322-3.372 4.42.627 4.296 2.3-.115 2.598-.317.996-.607-2.302-.385-2.302-.385-.22-3.198 2.181-3.014 1.662-6.11-1.138-6.093-1 .006-2.096.713-2.39 1.615M523.356 744.742c-.795.805.341 6.598 1.449 7.791.503.597.893-1.005.876-3.705-.027-4.3-.735-5.596-2.325-4.086M391.683 749.47c1.41 1.69 7.13 4.655 7.825 4.05.993-1.106-5.335-5.566-7.935-5.55-.9.006-.797.405.11 1.5M403.886 749.893c-3.392 1.421-4.668 5.23-3.339 9.821 1.02 3.094 2.228 4.386 6.242 6.561 2.709 1.483 5.018 2.869 5.018 2.969.002.2-2.585 2.316-5.67 4.635-11.547 8.573-21.544 25.036-24.646 40.556-1.357 6.909-1.345 8.809-.215 13.502 2.26 9.586 4.172 11.474 17.012 17.793 8.827 4.345 11.638 6.127 11.85 7.826.416 2.697 2.125 4.187 6.735 5.658l3.608 1.277-5.564 5.735c-5.861 6.237-6.255 7.14-3.85 8.024 1.203.493 1.509 1.391 1.023 3.594-.58 3.204 1.026 4.194 2.107 1.187 2.062-6.113 7.396-16.547 9.583-18.76 3.776-3.825 7.28-3.247 21.521 3.364 7.02 3.256 13.238 5.917 13.938 5.913.7-.005 1.202.392 1.205.892s.907 1.094 2.109 1.387c2.104.587 5.388-1.934 7.465-5.547 1.484-2.51 9.763-5.962 13.167-5.283 2.403.485 3.3.08 5.087-2.132 1.686-2.21 2.074-4.113 2.039-9.713-.045-7.1.937-10.106 4.019-12.925 3.878-3.425 4.153-7.527.919-12.907-.505-.796-1.522-3.39-2.237-5.786-.714-2.295-1.83-4.688-2.633-5.283-1.91-1.588-1.624-3.89.576-3.904 1-.006 3.984-2.425 6.666-5.342s6.46-6.54 8.35-8.152 6.165-5.44 9.546-8.56c3.28-3.121 7.854-7.35 10.14-9.464 4.177-3.727 4.176-3.927 4.133-10.727-.024-3.8-.445-7.197-1.047-7.493-.603-.396-.987 2.106-.957 6.806.042 6.8-.153 7.501-2.64 9.717-1.591 1.31-7.358 6.646-12.926 11.781-5.667 5.136-10.541 9.367-10.941 9.37-.3.001-1.504-.691-2.41-1.586-1.609-1.39-2.31-1.485-4.902-.369-3.89 1.624-7.957 6.95-7.936 10.35.02 3.2-.279 3.302-3.794.824-1.507-.99-4.82-2.97-7.429-4.454-3.612-1.977-4.82-3.27-4.832-5.07-.01-1.7.585-2.503 2.283-2.714 1.899-.312 1.696-.71-2.119-3.086-4.518-2.872-7.217-2.755-3.7.123 1.208 1.092 1.917 2.588 1.726 3.99-.288 2-.786 2.304-2.789 1.817-1.302-.392-4.902-.27-7.9.05-4.896.63-5.394.933-4.186 2.126 1.207 1.192 2.108 1.286 5.6.164 3.993-1.225 4.494-1.128 11.417 2.529 8.829 4.544 9.633 5.24 7.137 5.955-10.777 3.568-20.124 12.027-26.151 23.665-1.878 3.612-3.458 6.722-3.657 6.923s-2.502-.284-5.306-.967c-3.906-.975-5.312-1.866-6.024-3.762-.509-1.397-2.026-4.087-3.137-5.88-2.22-3.186-2.22-3.186-.12-3.2 1.2-.007 2.404.685 2.71 1.483.811 1.895 2.411 1.885 2.4-.015-.006-.8-1.214-2.192-2.62-3.183-2.51-1.585-2.81-1.583-6.199.339-3.189 1.72-10.822 12.468-11.2 15.77-.475 4.103.539 6.297 4.36 9.773 5.33 4.767 7.931 4.85 13.204.517 3.482-2.922 4.48-3.228 7.084-2.644 2.905.781 3.107 1.08 3.24 6.28.118 2.999.74 6.395 1.347 7.591s1.015 2.394.716 2.596c-.198.2-4.208-1.374-8.922-3.544-8.426-4.048-8.426-4.048-12.915-2.32-2.893 1.119-5.69 1.536-7.994 1.05-6.607-1.158-6.403-.559-6.535-21.558-.066-10.4-.02-19 .18-19.002s2.304.486 4.707 1.07c3.606.878 4.905.77 7.597-.547 1.794-.912 4.192-1.327 5.494-1.035 1.502.39 2.4.185 2.396-.515-.003-.6-.407-1.097-.906-1.094-.7.004-4.433-5.172-5.952-8.163-.507-1.097 6.745-8.743 11.524-12.073 3.087-2.22 5.582-3.035 8.98-3.156 4.7-.23 5.001.068 3.625 3.777-.69 1.805-.59 1.804.903.595.896-.706 1.688-2.011 1.683-2.811-.007-1.1.592-1.304 2.295-.815 1.202.393 3.605.878 5.307 1.167 3.203.48 3.203.48 2.974-4.119-.125-3.999.072-4.5 1.874-4.111 1.102.193 2.303.385 2.803.382.4.097.706.896.711 1.795.008 1.3.309 1.399 1.104.594 1.59-1.61-4.858-9.17-8.363-9.948-5.707-1.164-2.321-3.386 3.884-2.625 3.402.38 4.301.173 5.688-1.835 1.387-2.11 1.385-2.51.077-3.8-.805-.796-3.612-1.778-6.213-2.062-2.502-.284-4.807-.97-5.011-1.668-.306-.899.893-1.106 4.696-.63 3.803.376 5.401.166 5.995-.838.693-1.104 1.293-1.108 3.4.079 5.217 2.667 2.271 11.286-4.42 12.728-3.595.723-3.785 2.324-.285 2.302 1.6-.01 3.892-1.325 6.078-3.538 2.881-2.919 3.375-4.022 3.055-7.12-.427-4.297-3.646-7.277-8.75-7.845-6.404-.76-31.716-2.6-37.817-2.762-5.102-.168-6.705-.658-9.419-2.841-6.836-5.757-12.647-7.52-17.734-5.489m8.22 3.149c1.908 1.288 3.516 2.677 3.62 3.177.01 1.7-4.04 9.625-5.04 9.632-1.1.007-4.812-1.97-7.124-3.856-2.613-2.083-2.348-7.585.34-9.502 2.987-2.119 3.987-2.025 8.204.549m15.16 9.604c1.09-1.606 12.097-.576 14.309 1.31.905.795 4.611 1.772 8.113 2.05 6.103.561 9.11 1.742 9.123 3.642.002.4-.488 2.003-1.178 3.608-.59 1.504-1.264 5.608-1.342 9.108-.263 6.002-.06 6.301 2.346 7.286 3.908 1.375 2.014 2.287-2.095.913-3.807-1.176-4.417-2.672-2.539-6.184.989-1.806.785-2.505-.924-3.894-1.91-1.488-2.011-1.788-.619-2.997 3.681-3.023 3.955-7.125.547-8.403-.902-.395-4.605-.871-8.207-1.049-3.601-.277-8.905-.844-11.808-1.325-8.51-1.447-12.99 1.681-9.658 6.66 1.615 2.39 2.316 2.586 13.517 2.815 3.301.08 5.707.965 12.73 4.72 3.01 1.582 3.112 1.781 2.03 4.688-.69 1.704-1.881 3.012-2.881 3.018-2.6.016-3.111-1.78-.82-3.195 1.792-1.211 2.776-3.817 1.376-3.809-1.2.008-5.368 5.134-5.359 6.634.005.7-.69 1.405-1.49 1.41-1.9.012-4.79 1.63-9.568 5.26-1.99 1.612-3.882 2.824-4.082 2.826-.2 0-.223-3.6-.05-7.9.354-7.403.25-8.002-1.96-9.488-1.305-.792-4.31-1.773-6.613-2.159-4.204-.573-4.305-.773-4.328-4.473-.013-2-.728-4.395-1.534-5.29-1.408-1.391-1.312-1.992 1.06-6.507l2.668-5.017 4.322 3.473c2.915 2.382 4.42 3.073 4.914 2.27m2.948 7.582c.407 1.198-.29 1.502-2.89 1.518-3.3.021-4.306-.773-2.815-2.282 1.192-1.308 5.096-.732 5.705.764m-16.68 3.305c-.293 1.002-.497.403-.507-1.197-.01-1.7.185-2.401.489-1.803.204.699.213 2.099.018 3m24.292-1.353c.01 1.4-.384 2.503-.984 2.507-.5.003-1.006-.894-1.012-1.894-.007-1.1-.614-2.196-1.215-2.393-.702-.295-.304-.598.996-.606 1.7-.11 2.203.486 2.215 2.386m30.701.007a1.2 1.2 0 0 1-1.4.01c-.302-.399-.004-.7.696-.705s1.001.294.704.695m-61.754 7.589c-5.469 4.934-11.52 12.772-10.614 13.667.302.298 2.29-1.615 4.374-4.228 5.258-6.633 10.529-11.266 12.628-11.38 2.5-.015 2.106.887-1.969 4.913-5.665 5.536-10.23 11.264-10.22 12.864.006.8 2.193-1.313 4.972-4.631 5.954-7.238 11.327-11.571 13.432-10.785 2.406.885 1.812 1.889-3.263 5.921-2.586 2.116-5.567 5.135-6.657 6.842-1.09 1.607-2.281 2.914-2.681 2.917-.5.003-.796.705-.79 1.605.005.8 3.188-1.82 7.262-6.046s8.052-7.65 8.952-7.656c2.5-.016 2.109 1.386-1.074 4.107-6.266 5.439-12.305 15.177-16.732 26.805-3.247 8.52-3.651 23.724-.819 28.906 1.721 3.29 1.721 3.29-.485 2.403-6.616-2.558-14.946-7.306-16.76-9.495-8.972-11.444-2.142-38.587 13.857-54.788 6.26-6.44 9.843-9.062 11.05-7.87.705.696-.883 2.706-4.463 5.929m34.06-6.615c.001.3-.197.502-.497.504-.3.001-.502-.197-.503-.497s.196-.502.496-.503.502.196.504.496m7.521 3.453c-.296.502-1.093 1.007-1.593 1.01-.6.004-.703-.495-.407-.997.297-.602 1.094-1.007 1.594-1.01.6-.004.703.395.406.997m13.828 4.413c-.39 1.503-3.592 1.223-4.101-.274-.306-.898.291-1.302 1.893-1.012 1.3.092 2.305.686 2.208 1.286m-35.715 13.525c-.381 3.003-.868 5.106-1.17 4.808-.805-.795-.387-13.798.405-15.103 1.09-1.607 1.527 4.29.765 10.295m32.95-8.007c.303.498.106 1-.394 1.002-.6.004-1.103-.493-1.106-.993-.004-.6.194-1 .394-1.002.3-.002.802.395 1.106.993m-36.457 6.93c.029 4.599-.467 5.202-5.45 8.034-4.485 2.428-8.446 8.653-11.09 17.37-.881 3.105-1.771 4.71-2.077 3.813-.619-2.997 7.56-22.448 10.544-24.867.298-.302 1.886-2.212 3.373-4.321 1.487-2.01 3.177-3.72 3.777-3.724.5-.003.91 1.694.923 3.694m75.031 4.728c.007 1.1-.386 2.302-.984 2.606-.597.404-1.003-.494-1.012-1.894-.008-1.4.484-2.603.984-2.606.6-.004 1.006.894 1.012 1.894m-3.984 2.625c.005.8-.69 1.504-1.49 1.51-1.6.01-2.008-1.188-.815-2.296 1.093-1.207 2.295-.814 2.305.786m-71.791 1.551c-1.195.807-2.792 1.318-3.493 1.122-.702-.296-.106-.9 1.29-1.508 3.69-1.623 4.691-1.43 2.203.386m68.425 3.77c-.895.806-2.606-.984-2.616-2.584.09-1.5.19-1.5 1.5.191.808 1.095 1.314 2.092 1.116 2.393m-66.613-1.881c.002.3-.197.5-.497.503-.3.002-.501-.197-.503-.497s.197-.501.497-.503.5.197.503.497m-1.981 3.012c.01 1.6-4.487 2.128-5.397.634-.807-1.195.387-2.102 3.087-2.12 1.4-.008 2.304.586 2.31 1.486m60.215 2.222c2.007 1.087 2.007 1.087.02 3.2-1.093 1.207-2.379 3.415-2.67 4.917-.584 2.403-5.458 6.534-9.549 8.06-.897.405-3.502-.378-5.81-1.664-4.015-2.275-5.613-1.965-2.597.517 1.407 1.19 1.41 1.49-.18 3.2-.993 1.207-1.774 4.112-2.051 7.814-.459 6.603-1.255 7.208-6.47 4.74-3.41-1.478-3.419-2.878-.06-9.6 4.84-9.53 14.782-18.692 23.166-21.345 3.493-1.022 3.893-1.025 6.2.16m-67.892 1.526c.406.998.806.995 1.4.092.992-1.407 6.297-.54 6.307 1.06.004.6.702.196 1.595-.91 1.289-1.708 1.588-1.81 2.396-.515.505.797 1.012 1.794 1.014 2.194.01 1.4-3.982 2.825-8.182 2.851-5.1.032-8.412-1.847-7.527-4.353.788-1.905 2.286-2.114 2.997-.419m73.742 6.437c.033 5.2 1.346 7.392 5.054 8.669 3.81 1.376 3.926 4.075.253 8.398-4.069 4.926-5.149 8.133-5.102 15.633.043 6.8-.942 9.206-3.742 9.223-1 .007-1.203-.492-.611-1.796 1.382-2.909.196-32.402-1.418-34.692-2.522-3.484-1.253-8.392 2.539-9.716 2.395-.815 3-.019 3.027 4.281m-80.08 3.403c-1.081 3.007-1.775 4.112-1.485 2.51.578-3.604 2.444-8.916 3.048-8.42.2.2-.482 2.904-1.563 5.91m84.094-1.228c.006 1-.391 1.503-.993 1.206-.502-.297-1.011-1.793-1.02-3.293-.014-2.1.184-2.402.992-1.207.505.797 1.014 2.294 1.02 3.294M409.9 831.957c-.264 5.602-.735 10.305-.934 10.506-.894.906-1.654-8.69-1.184-13.393.665-5.604 1.055-7.207 1.955-7.212.4-.003.428 4.497.163 10.099m72.642 6.444c.45 7.997.597 15.396.305 16.598-.292 1.302-2.78 3.318-6.966 5.444-3.988 2.025-7.272 4.546-8.261 6.252-2.276 3.914-5.578 3.535-6.005-.662-.54-6.297-1.36-9.492-2.256-8.986-.598.303-.49 1.603.02 3.1 1.32 3.291 1.346 7.391.046 7.4-3 .018-8.02-3.15-9.538-5.94-2.024-3.888-3.178-12.481-1.784-13.39 1.295-.808 8.018 2.75 11.038 5.931 2.818 2.882 3.619 2.977 6.202.361 3.577-3.623 2.248-8.314-2.558-9.184-1.701-.29-2.007-1.188-2.242-6.786-.253-8.399 1.428-11.41 5.933-10.638 2.302.386 4.299-.227 7.188-1.945 7.471-4.547 7.875-4.05 8.878 12.445m-78.666-10.306c-.295.802-.597.503-.604-.597-.107-1.099.19-1.7.492-1.303.302.298.408 1.198.112 1.9m28.103.323c3.935 5.676 3.656 8.977-.368 5.203-1.307-1.192-3.414-2.18-4.813-2.17-2.9.018-3.205-.78-1.424-3.691 1.783-2.812 4.285-2.527 6.605.658m-26.094 1.164c-.398.303-.7.004-.704-.695-.004-.7.294-1.002.696-.705.302.398.306.998.008 1.4m1.796 15.29c.514 2.096.413 1.997-.803-.496-.91-1.694-1.534-5.49-1.453-8.49l.065-5.501.738 5.995c.42 3.297 1.045 7.094 1.453 8.491m22.738-9.944c.205.699.12 3.1-.166 5.301-.478 3.603-.576 3.804-1.688 2.01-1.212-1.992-1.41-1.79-1.688 1.911-.181 2.902-2.28 3.015-5.098.233-2.617-2.584-3.132-5.08-1.647-7.49.792-1.205 1.292-1.208 3.501.278 2.31 1.385 2.61 1.383 2.601.083-.005-.8-.41-1.497-1.01-1.493-.5.003-1.003-.494-1.006-.994-.01-1.5 5.693-1.236 6.201.161m12.025 3.825c5.607 1.164 17.841 6.588 17.85 7.988.003.4.705.795 1.505.79 1.7-.01 1.801.189.915 2.394-.294.902-1.092 1.307-1.794.912-.603-.396-1.505-.79-2.105-.787-.5-.097-3.91-1.476-7.52-3.153-3.61-1.577-9.322-3.541-12.727-4.32-4.907-.97-6.31-1.66-6.32-3.06-.013-2.1 2.486-2.316 10.196-.764m-8.164 5.751c.01 1.6-4.068 5.226-5.968 5.238-2.9.018-2.407-1.185 1.277-3.709 3.485-2.421 4.683-2.729 4.69-1.529m28.054 8.524c.002.3-.197.501-.497.503s-.501-.197-.503-.497.197-.501.497-.503.5.197.503.497"/><path d="M405.009 753.586c-1.796.611-1.57 4.81.34 6.298 1.206 1.093 1.806 1.089 3.098-.22 2.583-2.716-.046-7.3-3.438-6.078m2.717 2.783c.002.3-.196.501-.496.503s-.502-.197-.504-.497c-.001-.3.197-.5.497-.503.3-.002.502.197.503.497M530.19 750.1c.403.597 1.104.793 1.603.49 1.394-.91 1.09-1.507-.71-1.496-.8.005-1.197.507-.894 1.006M235.284 766.153c-.295.802-.36 6.302-.222 12.401l.369 10.898 10.503.434c5.802.264 25.602.34 44.002.224l33.5-.21.223-12.202.224-12.102-6.803-.357c-3.7-.177-23.602-.352-44.103-.323-30.9-.106-37.3.134-37.693 1.237m84.314 1.87c.902.294 1.217 2.792 1.063 10.094l-.238 9.801-15.501-.102c-8.5-.047-27.1-.03-41.2.059l-25.8.062-.062-9.8c-.034-5.4.236-10.202.534-10.504.695-.704 79-.296 81.204.39"/><path d="M246.702 768.881c-.098.3-.174 4.201-.245 8.802-.058 6.7.152 8.199 1.35 7.991 1.1-.206 1.388-1.908 1.151-7.807-.125-4.1-.75-7.895-1.253-8.492-.503-.497-1.004-.694-1.003-.494M255.811 770.324c-.695.804-.983 2.706-.674 4.204.31 1.498.022 3.4-.572 4.404-1.485 2.41.643 6.896 3.243 6.88 2.8-.018 3.884-2.625 3.547-8.523-.35-7.898-2.567-10.684-5.544-6.965m3.713 2.077c.813 1.995-1.273 4.208-2.682 2.816-1.208-1.192-.328-4.398 1.072-4.406.5-.003 1.205.692 1.61 1.59m.152 8.199c.31 1.698-.186 2.201-1.686 2.21q-2.1.014-2.112-1.786c-.024-3.8 3.274-4.121 3.798-.424M277.41 770.188c-.884 2.506-.782 2.705 1.413 1.991 2.495-.815 2.707 1.083.423 3.698-1.59 1.61-1.588 1.81.016 2.4 1.704.689 2.224 3.886.73 4.895-.598.304-1.402-.291-2.007-1.187-1.416-2.491-2.506-.884-1.09 1.607 1.417 2.79 3.817 2.676 4.899-.231 1.377-3.609-.19-14.1-2.092-14.487-.9-.195-1.897.412-2.291 1.314M288.415 770.819c-2.974 4.219-1.507 14.81 1.993 14.788 1.6-.01 1.997-.513 2.873-4.318.487-2.103.079-3.3-1.934-5.288-3.018-2.981-3.23-4.78-.524-3.897 2.204.686 2.303.485 1.388-1.909-.814-2.195-2.013-1.987-3.796.624m3.458 9.178c.019 3.1-1.375 4.01-2.987 2.12-1.511-1.791-.628-4.497 1.472-4.51.9-.006 1.505.89 1.515 2.39M298.81 770.054c-.992 1.206-.988 1.906-.183 2.7.906.895 1.206.893 1.2-.007-.004-.7.493-1.203.993-1.206.6-.004 1.005.894 1.012 1.994s-.387 2.002-.987 2.006c-.5.003-.996.706-.99 1.506.004.8.509 1.497 1.009 1.494.6-.004 1.006 1.094 1.015 2.494.01 1.4-.384 2.502-.984 2.506-.5.003-1.004-.694-1.01-1.494-.004-.8-.409-1.497-1.009-1.494-1.3.009-1.277 3.709.028 4.5.602.297 1.902.288 3-.018 1.697-.511 1.891-1.512 1.755-7.312-.254-8.498-1.97-11.187-4.849-7.67M264.858 777.767c.003.5 1.606.99 3.506.978s3.497-.522 3.494-1.022c-.004-.6-1.606-.99-3.506-.978s-3.498.422-3.494 1.022M587.435 788.94c-1.593 1.21-3.283 2.721-3.78 3.324-1.09 1.507.236 5.699 2.552 8.185 2.214 2.286 5.82 3.063 5.808 1.263-.004-.6-.906-.994-1.906-.988-2.2.014-5.122-3.468-5.14-6.168-.005-1 1.583-2.81 3.476-4.022 1.891-1.312 3.483-2.622 3.48-3.122-.007-1.2-1.304-.691-4.49 1.529M474.966 794.247c.005.8 7.132 5.156 8.432 5.147 1.7-.01.188-2-3.024-3.88-3.714-2.177-5.416-2.567-5.408-1.267"/><path d="M586.98 796.144c.005.8.71 1.595 1.512 1.99 1.003.394 1.5-.11 1.492-1.41-.007-1.1-.713-1.995-1.513-1.99s-1.496.61-1.491 1.41M616.326 803.36c-6.675 4.041-7.567 5.247-3.967 5.224 3-.018 5.516 2.666 6.342 6.76.618 2.897.42 3.198-1.78 3.212-1.3.008-2.903-.482-3.607-1.177-.805-.795-1.205-.793-1.2-.093.01 1.8 2.821 3.482 5.219 3.067 3.596-.522 3.659-6.523.233-10.601-3.023-3.581-2.827-4.283 1.958-6.613 1.895-.912 3.487-2.122 3.484-2.622-.008-1.3.39-1.502-6.682 2.842M499.148 807.196c-1.285 2.408.126 4.199 5.945 7.262 2.509 1.385 6.322 3.46 8.53 4.747 2.208 1.186 5.62 3.065 7.727 4.152 2.81 1.582 3.717 2.776 4.235 5.673.83 4.795.89 46.095.067 58.4-.544 8.804-.023 12.201 1.263 9.993.297-.502.716-13.405.919-28.806.303-15.403.713-29.705 1.1-31.808.574-4.204.274-4.202 8.587-2.154 3.405.779 6.29-1.54 7.263-5.846.484-2.603.078-3.6-2.74-6.283-1.91-1.788-4.024-3.974-4.73-4.87-1.613-1.99-4.612-1.971-6.7.042-1.39 1.509-2.192 1.214-9.817-2.638-4.514-2.272-10.434-5.435-13.044-7.018-5.62-3.265-7.322-3.454-8.605-.846m10.931 5.031c.004.5-.393 1.003-.993 1.006-.5.003-1.003-.493-1.007-.993-.003-.6.494-1.003.994-1.007.6-.003 1.003.394 1.006.994m2.013 1.987c.003.5-.494 1.004-1.094 1.007-.5.004-.703-.495-.406-.997.296-.602.794-1.005 1.094-1.007.2-.001.402.397.406.997m3.01 1.482c.001.3-.198.5-.498.503-.3.002-.5-.197-.503-.497-.002-.3.197-.501.497-.503s.501.197.503.497m7.313 2.154c3.813 2.076 4.922 3.469 3.829 4.576-1.391 1.409-10.524-3.734-9.534-5.34.792-1.305 2.193-1.114 5.705.764m13.708 1.214c.003.5-.394 1.002-.794 1.005-2.4.015-5.573 4.335-5.553 7.535.015 2.4-.478 3.503-1.378 3.508-2.5.016-.85-8.094 2.233-10.714 2.685-2.417 5.481-3.034 5.492-1.334m1.723 3.689a1.2 1.2 0 0 1-1.4.009c-.302-.398-.004-.7.696-.705.7-.004 1.002.294.704.696m-1.185 2.307c.303.498.408 1.398.111 1.9-.891 1.305-4.599.129-4.609-1.471s3.588-1.923 4.498-.429m6.513 2.06c.02 3.2-1.863 5.911-3.963 5.924-2.4.016-2.617-2.683-.437-5.797 1.883-2.812 4.382-2.927 4.4-.128m-8.482 2.953c.303.498-.094 1-.894 1.005-.9.006-1.603-.49-1.606-.99-.004-.6.394-1.002.894-1.005.6-.004 1.302.392 1.606.99M590.156 808.224c-.08 3.1-.77 4.705-3.752 7.724-1.987 2.112-3.274 4.12-2.871 4.518.402.397 1.2-.008 1.693-1.01.595-.905 1.69-1.712 2.39-1.716 1.8-.011 1.907 1.188.417 2.697-.895.906-.79 1.605.416 2.698 1.41 1.491 1.71 1.49 2.6-.116.99-1.707.99-1.707 1.1-.107.005 1 .51 1.796 1.01 1.793 1.5-.01 1.193-1.107-1.03-4.793-1.818-2.889-1.924-3.788-.941-6.595.885-2.405.874-4.105.06-6.2-1.017-2.894-1.017-2.894-1.092 1.107M638.098 814.823c-7.47 4.647-8.465 5.553-8.747 8.455-.284 2.502.325 3.898 2.74 6.183 1.61 1.69 3.518 2.978 4.318 2.973 1.7-.01 16.05-8.101 15.445-8.697-.402-.398-7.783 2.648-13.963 5.887-1.296.609-2.397.515-3.502-.378-4.924-3.769-5.444-6.966-1.46-9.49 1.494-.91 4.582-2.83 6.774-4.243 2.29-1.415 4.98-3.132 5.976-3.738 1.096-.707 1.691-1.41 1.39-1.709-.302-.298-4.29 1.827-8.97 4.757"/><path d="M612.683 812.482c-.297.402.31 1.599 1.416 2.592 1.912 1.788 2.011 1.687 1.995-.813-.016-2.6-2.224-3.786-3.411-1.779M633.757 824.15c-1.093 1.107-.688 2.005.912 1.995.8-.005 1.498-.41 1.495-.81-.007-1.1-1.612-1.99-2.407-1.185M612.174 826.986c.005.8-.881 3.006-1.97 4.812-1.285 2.309-1.576 3.81-.97 4.807.808 1.195 1.007.993.995-.807-.02-3.3 2.677-3.817 5.593-1.235 1.61 1.59 2.421 3.385 2.437 5.885.12 3.1.22 3.299 1.11 1.693 1.387-2.209-1.557-9.19-4.467-10.672-1.204-.693-1.71-1.79-1.418-2.991.293-1.002.086-2.2-.416-2.498-.502-.297-.899.206-.894 1.006M582.337 837.074c-.087 2.1.343 6.798.866 10.494.523 3.697 1.567 10.69 2.298 15.686 2.828 20.283 5.346 23.167 34.654 40.283 12.446 7.222 18.666 10.383 23.175 11.855 2.205.686 4.41 1.572 4.913 1.97.602.395 3.71 1.676 7.018 2.955 3.308 1.18 7.418 2.753 9.022 3.443 3.31 1.48 20.148 7.474 25.559 9.24 5.612 1.865 17.015 2.393 21.807 1.063 3.893-1.124 4.693-1.03 9.31 1.442 5.117 2.767 5.42 3.266 6.37 11.26.638 5.996 3.156 8.98 9.47 11.24 8.12 2.95 9.237 5.743 6.806 16.758-.291 1.402.107 1 .894-1.006 2.462-6.015 1.938-9.812-1.785-13.489-1.912-1.888-4.723-3.67-6.326-4.06-4.306-.973-7.426-4.253-7.448-7.753-.01-1.6-.536-5.597-1.256-8.793-1.236-5.792-1.236-5.792 4.29-17.527 6.02-12.738 11.72-28.874 11.496-32.573-.113-2.1-.213-2.099-.602-.296-1.85 8.012-7.258 22.546-11.209 30.471-2.667 5.217-5.131 10.932-5.42 12.834-.288 1.802-1.078 3.307-1.778 3.312-.6.003-3.21-1.38-5.82-2.964-3.613-2.177-4.923-3.77-5.741-6.664-1.533-5.19-1.452-8.291.326-11.702.89-1.606 1.28-3.108 1.08-3.307-.302-.298-1.195.907-1.984 2.612-1.78 3.312-2.12 12.614-.515 13.604 1.406.891 1.229 4.492-.168 5.001-3.393 1.221-11.992 1.275-16.9.106-8.913-2.044-30.563-9.908-43.8-15.825-2.908-1.282-5.615-2.365-6.115-2.362-3.2.02-40.333-20.947-47.57-26.801-7.036-5.756-9.382-13.041-12.031-36.825-.64-6.296-1.581-12.89-1.991-14.488-.819-2.995-.819-2.995-.895.806"/><path d="M613.243 837.98c.005.8.71 1.595 1.513 1.99 1.002.394 1.5-.11 1.49-1.41-.006-1.1-.712-1.995-1.512-1.99s-1.496.61-1.49 1.41M633.568 841.852c-.695.804-1.59 1.61-2.09 1.713-.498.203-1.29 1.508-1.681 2.91-.684 2.505-.684 2.505 1.001.194.893-1.205 1.986-2.212 2.486-2.215 1.9-.012 5.028 4.468 5.045 7.168.01 1.5.518 2.797 1.018 2.794 1.8-.012.972-4.506-1.35-7.992-1.312-1.892-2.226-4.086-2.03-4.787.59-1.604-.91-1.495-2.399.215"/><path d="M632.313 849.06c.002.3.708 1.195 1.513 1.99 1.309 1.392 1.508 1.29 1.497-.51-.008-1.199-.614-2.095-1.514-2.09-.8.005-1.498.31-1.496.61M627.319 849.991c.003.5 20.69 14.37 21.49 14.365.3-.001 5.12 3.068 10.843 6.732 5.724 3.765 13.355 8.617 16.868 10.795 3.614 2.177 10.641 6.433 15.76 9.5 5.02 3.17 9.536 5.641 10.036 5.638.8-.005-7.434-5.353-22.793-14.757-10.24-6.336-16.365-10.298-17.07-11.093-.302-.298-3.415-2.279-7.028-4.456-9.938-5.938-13.05-7.818-22.792-14.457-4.017-2.675-5.32-3.267-5.314-2.267M408.444 886.567c-1.474 4.01-.367 5.203 1.41 1.591 1.977-3.712 2.073-4.313.673-4.304-.6.004-1.492 1.21-2.083 2.713M254.776 892.033c-1.292 1.308-1.576 3.81-.476 3.803.3-.002 1.395-.709 2.29-1.515 1.491-1.409 1.891-1.411 3.1.08 1.11 1.394 1.013 1.895-.878 3.407-2.189 1.813-2.188 1.913-.184 2.5 1.102.394 2.01 1.488 2.016 2.588.016 2.6-2.977 3.719-4.49 1.628-1.311-1.791-3.514-2.278-3.505-.878.003.5 1.112 1.893 2.52 3.185 2.213 2.086 2.814 2.182 5.006.968s2.388-1.915 2.25-7.914c-.022-3.6-.545-7.197-1.05-7.894-1.309-1.491-5.01-1.568-6.6.042M266.383 893.16c-1.281 3.008-.169 5.001 1.315 2.292 1.186-2.108 3.786-2.224 4.498-.229.406.898-.98 3.307-3.462 6.022-2.284 2.515-3.869 5.025-3.565 5.523.303.598 2.606.983 5.106.968 3.2-.02 4.397-.428 4.39-1.528-.006-1-1.01-1.494-3.21-1.48-3.3-.079-3.3-.079-.714-2.395 4.078-3.526 4.963-5.832 3.545-8.723-1.822-3.488-6.324-3.76-7.903-.45M281.288 893.866c-5.553 7.535-6.032 10.838-1.732 10.811 2.1-.013 3.003.581 3.513 2.178.412 1.798.813 1.995 1.807.989 1.39-1.409 1.205-15.108-.204-16.5-.503-.496-1.996.613-3.384 2.522m1.333 5.292c.01 1.6-.584 2.504-1.484 2.51-1.6.01-1.906-.889-.922-3.395.885-2.506 2.388-1.915 2.406.885M290.58 892.608c-1.391 1.409-1.98 3.312-1.957 6.812.049 7.8 4.473 11.672 8.346 7.348 2.383-2.715 2.223-12.314-.19-14.5-2.415-2.184-3.814-2.075-6.199.34m4.814 2.17c1.308 1.291 1.641 6.59.658 9.196-.688 1.904-3.987 2.125-4.698.33-.408-1.198.056-7.001.84-9.506.39-1.503 1.69-1.51 3.2-.02M228.09 894.4c-3.792 1.224-3.99 1.526-3.968 5.126.026 4.1.127 4.199 7.833 5.15 3.503.478 3.902.276 4.983-2.63.786-2.206 1.78-3.112 3.38-3.122 4.6-.03 3.682-3.023-1.63-4.79-4.008-1.375-5.308-1.367-10.598.266m11.31 1.43c1.103.593.905.894-.592 1.303-1.199.308-2.19 1.614-2.382 2.915-.189 1.801-.985 2.506-3.383 2.722-3.898.424-8.408-1.248-8.42-3.248-.02-3 11.263-5.87 14.776-3.693M304.502 896.12c-.59 1.604-1.474 4.01-1.866 5.412-.39 1.403-1.078 3.407-1.572 4.41-.492 1.203-.39 1.703.308 1.298 1.295-.808 5.62-12.735 4.816-13.43-.302-.298-1.096.707-1.686 2.31M308.794 894.693c-.696.705-1.188 1.908-1.083 2.707q.01 1.65.601.297c.592-1.404 5.29-1.634 5.3-.234.003.6-.693 1.305-1.49 1.61-.798.405-1.495 1.009-1.491 1.509.003.5.705.896 1.505.89 2-.012 1.918 2.889.023 3.6-.798.406-2.2.114-3.004-.58-2.01-1.688-3.203-.48-1.49 1.509 1.612 1.99 5.711 1.864 6.799-.143 1.187-2.107.233-10.702-1.273-11.592-1.607-1.09-3.006-.981-4.397.427M319.193 894.628c-.896.506-1.589 1.71-1.483 2.61.006 1 .307 1.198.602.396.59-1.604 5.29-1.634 5.3.066.005.7-1.285 2.309-2.977 3.52-4.18 3.125-3.963 5.924.54 6.396 2.402.285 3.5-.022 3.494-.922-.004-.7-1.108-1.293-2.508-1.284-3.2.02-3.104-.58.376-3.903 2.087-2.013 2.778-3.417 2.469-4.915-.715-2.396-3.42-3.279-5.813-1.964M334.206 896.534c-2.181 3.014-1.956 7.112.362 9.898 1.612 1.99 2.314 2.185 3.808 1.276.996-.606 1.884-2.512 2.073-4.213.186-2.302-.22-3.199-1.723-3.69-1.202-.292-2.602-.283-3.199.12-.698.405-.9-.094-.708-1.195.292-1.402 1.19-1.808 3.19-1.72 1.7.09 2.598-.216 2.293-1.015-.713-2.195-4.411-1.872-6.096.539m4.85 8.07c-.294.901-1.289 1.708-1.989 1.712-2.1.013-2.917-2.682-1.329-4.592.992-1.306 1.392-1.308 2.6-.116.804.695 1.113 2.093.718 2.995M344.205 896.471c-2.18 3.014-1.955 7.112.363 9.898 2.922 3.582 5.51 1.565 5.871-4.537.456-7.103-3.063-9.981-6.234-5.361m5.015 2.269c.924 3.794-.252 7.701-2.354 7.314-1.702-.289-2.935-5.581-1.853-8.388.885-2.306 3.49-1.622 4.207 1.074M354.205 896.408c-3.965 5.625.795 15.095 5.267 10.567 1.888-1.912 1.442-9.209-.67-11.096-2.414-2.185-2.813-2.082-4.597.53m5.02 3.169c.822 3.495-.358 6.602-2.658 6.616-1.6.01-1.905-.688-1.928-4.487-.024-3.8.271-4.502 1.971-4.513 1.2-.007 2.206.886 2.615 2.384M403.41 896.899c-1.484 2.61-2.182 3.014-6.282 3.04-2.5.015-4.497.428-4.493 1.028.003.5 2.506.984 5.506.965 5.3-.033 5.5-.134 6.977-3.644 1.674-4.21 1.772-4.41.772-4.405-.5.003-1.59 1.41-2.48 3.016M327.136 901.378c-.296.602.108 1.3 1.01 1.594 1.905.788 3-.019 1.99-1.513-.808-1.394-2.208-1.386-3-.08M370.635 901.105c.003.5.906.994 1.906.988 1.1-.007 2.297-.514 2.594-1.016.396-.603-.506-.997-1.906-.988-1.4.008-2.598.416-2.594 1.016M378.635 901.055c.003.5 2.206.986 4.906.969 2.8-.018 5.297-.533 5.594-1.035.396-.603-1.507-.99-4.906-.97-3.1.02-5.598.436-5.594 1.036M486.14 901.38c-1.689 1.91-1.688 2.11.024 4 1.007 1.093 2.413 1.984 3.213 1.979s1.103.493.806.995c-.396.603-1.595.81-2.797.418-1.704-.49-1.902-.288-1.097.606.704.596 2.007.988 3.005.782 2.797-.518 3.248-8.32.54-9.704-1.506-.79-2.304-.585-3.695.923m4.515 2.57c.005.8-.89 1.407-1.99 1.413-1.9.012-2.713-1.883-1.422-3.29.995-.907 3.403.378 3.412 1.878M494.24 901.528c-1.586 2.21-1.485 2.41.828 4.395 2.614 2.284 2.523 3.684-.183 2.701-1.003-.393-1.301-.191-.797.505 1.313 2.092 4.208 1.274 5.491-1.434.887-2.006.78-3.105-.133-5.2-1.722-3.489-3.323-3.779-5.206-.967m4.415 2.373c.005.8-.891 1.405-1.991 1.412-1.9.012-2.712-1.883-1.42-3.29.994-.907 3.402.378 3.411 1.878M502.132 900.279c-.296.502.207.998 1.307.992 2.8-.018 3.306.979 1.721 3.389-.793 1.105-1.481 3.01-1.474 4.11.007 1.2 1-.007 2.38-3.016 1.283-2.808 2.068-5.313 1.864-5.812-.606-1.096-5.105-.868-5.798.337M519.238 901.071c-2.88 3.218-1.243 9.108 2.557 9.084 2.4-.015 3.583-2.722 2.068-5.013-.707-1.195-.713-2.095-.017-2.8.695-.704.392-1.302-1.013-2.093-1.505-.79-2.304-.586-3.595.822m3.406.979c.003.5-.693 1.104-1.49 1.51-1.497.509-2.004-.488-.811-1.696.893-1.005 2.294-.914 2.301.186m.033 5.2c.015 2.4-2.287 2.114-2.803-.383-.206-.998.29-1.701 1.19-1.707 1-.006 1.605.89 1.613 2.09M531.833 900.292c-1.69 1.71-1.454 7.31.456 8.897 3.72 3.077 7.37-4.946 3.847-8.524-2.012-1.887-2.713-1.983-4.303-.373m3.329 4.58c.029 4.6-1.872 4.411-2.301-.186-.318-2.798-.023-3.7.978-3.406.702.295 1.312 1.891 1.323 3.591M540.834 900.336c-.596.703-1.182 3.007-1.368 5.208-.276 3.802-.175 4.001 2.725 3.983s2.999-.219 3.073-4.32c-.03-4.699-2.446-7.384-4.43-4.871m2.817 2.782c.003.5-.694.904-1.494.91-1.5.009-2.008-1.188-.915-2.295.795-.805 2.401.085 2.41 1.385m.316 2.598c.805.695-1.079 3.307-2.379 3.315-.5.003-.905-.894-.912-1.994-.012-1.9 1.983-2.713 3.291-1.321M556.33 899.638c-.399.303-.69 1.705-.682 3.005.01 1.6.615 2.296 1.815 2.288 2.6-.016 3.407 1.079 2.117 2.687-.894 1.006-1.494 1.01-2.499.216-1.106-.893-1.406-.892-1.4.008.012 1.9 3.116 2.48 4.705.77 1.888-1.911 1.072-4.406-1.936-5.687-2.305-.886-2.305-.886-.01-1.6 1.198-.308 2.194-1.014 2.19-1.514-.006-1-3.407-1.178-4.3-.173M510.041 901.63c-.885 2.305.33 4.697 2.633 5.283 1.102.293 1.707.989 1.41 1.49-.297.503-1.196.708-1.998.413s-1.4-.09-1.397.51c.004.6 1.006.893 2.205.685 2.797-.417 4.668-5.13 3.152-7.62-1.514-2.29-5.217-2.767-6.005-.762m4.412 1.871c.206 1-.29 1.702-1.19 1.708-1.8.011-2.91-1.582-2.119-3.087.891-1.405 2.896-.618 3.309 1.38M548.953 903.385c-2.18 3.313-2.18 3.313.328 4.498 3.51 1.478 3.41 1.578 3.379-3.422-.016-2.5-.329-4.498-.729-4.495-.5.003-1.79 1.511-2.978 3.419m2.21 1.586c-.297.502-1.094 1.007-1.594 1.01-.6.004-.703-.496-.406-.998.296-.602 1.094-1.007 1.594-1.01.6-.003.702.396.406.998M526.17 906.128c.303.498 1.006.994 1.606.99.5-.003.897-.506.894-1.006-.004-.6-.707-.995-1.607-.99-.8.005-1.197.408-.893 1.006M742.342 980.571c-.089 1.8.326 4.198.833 5.295 1.416 2.491 6.816 2.457 11.3-.171 3.286-2.02 3.286-2.02 14.299-.09 6.007 1.062 12.014 2.225 13.416 2.516 1.602.29 2.101.187 1.497-.41-.905-.894-9.017-2.743-20.73-4.87-4.106-.774-5.204-.567-8.492 1.454-4.183 2.626-8.48 3.153-10.093 1.163-.603-.596-1.217-2.792-1.53-4.69-.421-3.497-.421-3.497-.5-.197"/></svg>