<svg xmlns="http://www.w3.org/2000/svg" viewBox="0 0 992 1402" fill="currentColor"><path d="m508 143-133.5.5v17l21 .8c31.5 1.1 255.6-.1 257.2-1.5 1.8-1.4 1.8-15.4.1-16.5-.7-.4-3.6-.8-6.3-.8-2.8 0-65.1.2-138.5.5m144 9v8H376v-16h276z"/><path d="M383.3 147.5c.3 1.1 1.1 3.9 1.8 6.2.7 2.4 1.6 4.3 2 4.3s1.3-1.6 1.9-3.6c1.3-3.8 2.6-3.6 3.2.5.6 4.3 2.4 3.3 4.1-2.2 2-6.2 2-6.7.8-6.7-.5 0-1.2 1.6-1.5 3.5-.9 4.4-2.3 4.5-3.4.2-1.1-4.1-2.3-3.8-3.7.8-1 3.8-2.5 3.8-2.5 0 0-1.3-.7-2.9-1.6-3.6-1.5-1.2-1.6-1.1-1.1.6M403.5 149.7c-.9 2-1.8 4.8-2.1 6.2-.4 2.2-.4 2.3.6.8 1.4-2.2 6.6-2.3 7.4-.1.4.9.9 1.5 1.1 1.2.8-.7-3.6-11.8-4.6-11.8-.5 0-1.6 1.7-2.4 3.7m3.5 2.4c0 1.1-.4 1.7-1 1.4-.5-.3-1-1.3-1-2.1s.5-1.4 1-1.4c.6 0 1 .9 1 2.1M417 147c0 .5.7 1 1.5 1 1.1 0 1.5 1.2 1.5 4.4 0 2.5.5 4.8 1 5.1.6.4 1-1.3 1-4.4 0-4.5.3-5.1 2.1-5.1 1.1 0 1.7-.5 1.4-1-.3-.6-2.4-1-4.6-1-2.1 0-3.9.4-3.9 1M433.4 147.4c-.3.7-.4 3.3-.2 5.7.3 4.3.4 4.4 4.2 4.7 2.5.2 3.6 0 3.1-.7-.3-.6-1.7-1.1-3.1-1.1-1.5 0-2.4-.6-2.4-1.5s.9-1.5 2.5-1.5c1.4 0 2.5-.5 2.5-1 0-.6-1.1-1-2.5-1-1.6 0-2.5-.6-2.5-1.5s.9-1.5 2.5-1.5c1.4 0 2.5-.5 2.5-1 0-1.5-6-1.2-6.6.4M448 152.1c0 3.7.4 5.8 1 5.4.6-.3 1-1.5 1-2.6 0-2.9 3.8-2.5 5 .6 1.4 3.6 2.2 3.1 1.5-.9-.4-2.1-.2-3.6.5-4.1 2-1.3-2-4.5-5.7-4.5-3.3 0-3.3 0-3.3 6.1m7.1-2.6c0 .5-1.2 1.1-2.6 1.3-1.8.2-2.5-.1-2.5-1.3s.7-1.5 2.5-1.3c1.4.2 2.6.7 2.6 1.3M479.7 146.7c-1.2 1.1-.8 11.5.3 10.8.6-.4.9-1.4.8-2.3-.2-1.1.6-1.8 2.6-2.2 3.7-.7 5.5-3.2 3.7-5.4-1.3-1.6-6.2-2.2-7.4-.9m5.3 2.8c0 .8-.9 1.5-2 1.5s-2-.7-2-1.5.9-1.5 2-1.5 2 .7 2 1.5M494 151.5c0 5 .2 5.6 2.6 6.5 4.5 1.7 6.4-.2 6.4-6.6 0-3.4-.4-5.3-1-4.9-.6.3-.8 2.3-.5 4.5.5 4.1-1.3 6.7-4 5.6-1-.4-1.5-1.9-1.5-5 0-2.5-.4-4.8-1-5.1-.6-.4-1 1.5-1 5M508 152.1c0 3.9.4 5.8 1 5.4s.8-1.5.5-2.5c-1-3.2 1.3-3.2 2.4 0 1.3 3.8 3 3.8 3.8 0 .8-4.4 2.3-4.7 2.3-.6 0 2 .5 3.6 1 3.6 1.4 0 .9-11-.5-11.2-.5 0-1.8 1.7-2.9 3.8l-1.8 3.9-2-4.3c-1.1-2.3-2.4-4.2-2.9-4.2s-.9 2.7-.9 6.1M525.7 146.7c-1 1-.8 10.1.2 10.8.5.3 1.1-.5 1.3-1.7.2-1.4 1.2-2.4 2.7-2.8 3.3-.8 4.9-3.4 3.2-5.4-1.3-1.6-6.2-2.2-7.4-.9m6.1 2.5c-.7 2-4.8 2.3-4.8.4 0-1.1.9-1.6 2.6-1.6 1.6 0 2.4.5 2.2 1.2M556.7 146.7c-1.1 1-.8 10.1.3 10.8.6.4 1-.5 1-1.9 0-2.1.5-2.6 2.5-2.6 3.1 0 5.2-3.4 3.4-5.6-1.2-1.4-6-1.9-7.2-.7m6.1 3c.2.8-.6 1.3-2.2 1.3-1.7 0-2.6-.5-2.6-1.6 0-1.9 4.1-1.6 4.8.3M571 150.9c0 4 .4 5.3 2.2 6.5 2.9 2 3.4 2 5.8-.4 2.1-2.1 2.9-10 1-10-.5 0-1 2-1 4.5 0 4.3-.1 4.5-3 4.5s-3-.2-3-4.4c0-2.5-.4-4.8-1-5.1-.6-.4-1 1.3-1 4.4M587.8 147.3c-.3.6-.3 3.3 0 5.9.4 4.7.5 4.8 3.8 4.8 1.9 0 3.4-.5 3.4-1 0-.6-1.1-1-2.4-1-2.8 0-3.5-1.3-2.9-5.6.5-3.1-1.1-5.6-1.9-3.1M603.2 151.7c.3 5.8.3 5.8 4.1 6.1 2.1.2 3.7-.1 3.7-.7s-1.3-1.1-3-1.1c-2.9 0-3-.2-3-4.4 0-2.5-.5-4.8-1.1-5.1-.7-.5-.9 1.3-.7 5.2M618.4 147.4c-.3.7-.4 3.3-.2 5.7.3 4.3.4 4.4 4.1 4.7 2.1.2 3.7-.1 3.7-.7s-1.3-1.1-3-1.1q-3 0-3-1.5c0-.9.9-1.5 2.4-1.5 3.7 0 4.2-1.9.7-2.6-4-.8-4-2.4-.1-2.4 1.7 0 3-.5 3-1 0-1.6-7-1.2-7.6.4M633 146.7c0 .6.8 1.9 1.7 2.8.9 1 2 3.3 2.3 5.4.4 2 .9 2.9 1.2 2.1s1-2.9 1.5-4.5c2.6-7.5 2.6-7.2.7-4.8-.9 1.3-2.1 2.3-2.6 2.3s-1.8-1-2.9-2.3c-1-1.2-1.8-1.7-1.9-1M513.1 194.2c.1 33 1.1 43.5 1.9 18.8.7-21.1.1-49-1-49-.5 0-.9 12.8-.9 30.2M588 183.9c-6 1.4-8.5 2.8-13.1 7.3-4.8 4.7-16.9 20.9-16.9 22.7 0 2.1 1.5 1 4.5-3.2l3-4.2.6 5.5c.8 7.8 3.5 13.4 8.5 17.9 6.9 6 10.8 7.6 18.9 7.5 3.9-.1 8.6-.5 10.5-.9 3.4-.8 3.4-.8 1.6 2-1.1 1.6-1.4 3.1-.9 3.6.6.6 2.6-1.5 5-5.3 2.3-3.5 5.4-8 6.9-10.1 1.5-2 2.4-4 2-4.5-.5-.4-1.6.4-2.5 1.8-5.2 7.8-11.6 11-22.1 11-8.6 0-13.7-1.9-18.6-6.9-16-15.9-4.3-42.4 18.6-42.4 8 0 14.4 2.8 19.5 8.4 3.6 4.1 6.3 5.3 4.6 2.1-1.8-3.2-7.2-8.1-11.4-10.1-4.8-2.3-13.6-3.3-18.7-2.2"/><path d="M595.2 200.8c-.9.6-1.2 3.2-1 9.3l.3 8.4h232l.5-5c.3-2.8.3-6.8 0-9l-.5-4-115-.2c-63.2-.2-115.6.1-116.3.5m230.8 8.6v7.4l-9.7.4c-5.4.3-57.2.6-115 .7L596 218v-16h230z"/><path d="M606 209.5c0 3 .5 5.5 1 5.5.6 0 1-.8 1-1.9 0-1.2.9-2 2.9-2.4 5.8-1.2 4.6-6.7-1.5-6.7-3.4 0-3.4 0-3.4 5.5m6.5-2c0 .5-1 1.1-2.2 1.3-1.6.2-2.3-.2-2.3-1.3s.7-1.5 2.3-1.3c1.2.2 2.2.7 2.2 1.3M621.6 206.2c-3.2 4.6-.5 10.1 4.7 9.6 2.6-.2 3.3-.9 4.1-3.5 1.8-6.5-5.2-11.3-8.8-6.1m6.9 3.8c0 3-.3 3.5-2.7 3.8-3 .4-4.4-2.3-3.3-5.9.5-1.5 1.4-1.9 3.3-1.7 2.4.3 2.7.8 2.7 3.8M634.3 206.7c.3 1.7 1.3 4.6 2.1 6.4l1.4 3.4 1.3-3.3c1.7-4 2.4-4 3.8-.1.6 1.7 1.5 2.8 2 2.5 1.2-.8 3.5-10.5 2.7-11.3-.3-.3-.9.8-1.2 2.6-.9 4.5-2.1 4.7-3.5.6-1.4-3.8-2.9-4.6-2.9-1.7 0 1-.6 2.7-1.4 3.7-1.3 1.8-1.4 1.7-2.1-1.3-.9-4.2-3-5.6-2.2-1.5M653 210c0 6 0 6 3.5 6 1.9 0 3.5-.5 3.5-1 0-.6-1.3-1-3-1-1.6 0-3-.3-3-.8.1-1.8 1.8-3.2 3.2-2.7.9.4 1.9.2 2.3-.4.4-.7-.4-1.1-1.9-1.1-1.6 0-2.6-.6-2.6-1.5s.9-1.5 2.5-1.5c1.4 0 2.5-.5 2.5-1 0-.6-1.6-1-3.5-1-3.5 0-3.5 0-3.5 6M668 210.1c0 3.7.4 5.8 1 5.4.6-.3 1-1.5 1-2.6 0-2.9 3.7-2.4 5.3.7 1.3 2.5 1.4 2.4 1.2-2.7-.2-3-.3-5.7-.4-6.2 0-.4-1.9-.7-4.1-.7-4 0-4 0-4 6.1m7-2.6c0 .9-.9 1.5-2.5 1.5s-2.5-.6-2.5-1.5.9-1.5 2.5-1.5 2.5.6 2.5 1.5M699.5 205.7c-.4 1.3.2 2.5 2.2 4 1.5 1.3 3.1 2.3 3.6 2.3.4 0 .7.4.7 1 0 1.4-4.3 1.3-5.8-.2-.7-.7-1.2-.8-1.2-.3.1 4.1 7.2 4.8 7.8.8.2-1.6-.5-2.6-2.7-3.8-4-2-4.1-3.9-.1-3.2 2.3.5 2.8.3 2.3-.8-.8-2.1-5.9-1.9-6.8.2M714 205c0 .5.9 1 1.9 1 1.7 0 2.1.8 2.4 5.2l.3 5.3.2-5.3c.1-3.8.6-5.2 1.6-5.2.8 0 1.8-.5 2.1-1 .4-.6-1.2-1-3.9-1-2.5 0-4.6.4-4.6 1M730.2 209.7c.3 5.8.3 5.8 4.1 6.1 2.1.2 3.7-.1 3.7-.7s-1.3-1.1-3-1.1c-2.3 0-3-.4-3-2 0-1.5.7-2 2.6-2 1.4 0 2.3-.4 2-.9s-1.5-.7-2.6-.4c-1.4.4-2 0-2-1.1 0-1 .9-1.6 2.4-1.6 1.4 0 2.8-.5 3.1-1 .4-.6-1-1-3.5-1-4.1 0-4.1 0-3.8 5.7M745.9 204.4c-.2.2-.2 2.9-.1 6 .4 5.6.4 5.6 3.8 5.6 4.1 0 4.6-1.7.7-2.2-3.5-.4-3.7-3-.3-3.9 2.4-.7 2.4-.7.3-.8-2.8-.1-3.1-3.1-.4-3.1 1.1 0 2.3-.5 2.6-1 .6-.9-5.7-1.5-6.6-.6M760.9 204.2c-.6 1.3-.4 11 .3 11.4.4.3.8-.7.8-2.1 0-2.3.4-2.6 2.8-2.3 1.9.2 2.8.9 3 2.5.2 1.3.8 2.3 1.3 2.3 1.1 0 1.1-2.1 0-3.9-.6-.9-.5-2.1.1-3.1 1.9-3 .3-5-4.2-5-2.2 0-4.1.1-4.1.2m6.9 3c-.7 2-5.8 2.3-5.8.4 0-1.1 1-1.6 3.1-1.6q3 0 2.7 1.2M780 210c0 3.8.4 5.9 1 5.5.6-.3 1-2.8 1-5.5s-.4-5.2-1-5.5c-.6-.4-1 1.7-1 5.5M791 209.5c0 6.2 1.7 7.5 2.2 1.7l.3-3.7 2.9 4.4c3.2 5 4.6 4.3 4.6-2.6 0-5.6-1.8-6.5-2.2-1.1l-.3 4.3-2.5-4.2c-3.5-6-5-5.6-5 1.2M807.6 206.2c-2.1 3-2 5 .4 7.6 3.5 3.7 8 2.6 8-1.9 0-2.2-.5-2.9-2-2.9-2.3 0-2.7 1.5-.5 2.4 2.3.8 1.8 2.6-.8 2.6-2.9 0-4.7-1.8-4.7-4.7 0-3 3.3-4.8 6.1-3.2 1.7.9 2 .8 1.7-.3-.3-.7-1.8-1.4-3.5-1.6-2.3-.2-3.5.3-4.7 2M504 205.8c-6 3.1-10.4 6.4-21.6 16.2-5.9 5.2-11.7 10.4-12.8 11.5-1.2 1.1-5.3 4.8-9.2 8.2-6.8 6-7.2 6.2-9 4.5-1.1-.9-5.3-4.6-9.4-8.2s-9.7-8.6-12.5-11.2c-5-4.8-5-4.8-12.8-4.8-5 0-7.6.4-7.2 1 .3.5 3.6 1 7.3 1 7.4.1 6.9-.2 17.8 9.6C449.7 247 451 248.3 451 249s-17.7 16.5-24.4 21.8c-4 3.1-2.4 4 2.3 1.4 7.6-4.3 18.6-2.2 23.5 4.5 2.8 3.8 3.2 11.9.8 16.3-3.8 7.1-14.9 10-22.6 5.9-5.3-2.8-5.5-1.7-.5 2.8 2.3 2.1 4.7 4.2 5.3 4.8.6.5 4.5 3.9 8.6 7.5s7.7 6.7 8 7 3.9 3.4 8 7c4.1 3.5 7.7 6.7 8 7 1.1 1.1 9.8 8.7 14.5 12.5 2.6 2.2 6.4 5.4 8.4 7 4.9 4.2 16.4 9.1 18.4 7.8 1.2-.7.8-2.3-.8-2.3-3.7 0-12.9-4.5-17.5-8.7-5.3-4.8-6.9-7.3-9.4-14.4-3.9-11 .4-26 9.6-33.7 2.2-1.9 2.6-2.8 1.8-3.6-1.6-1.5-8.5 6.3-11.9 13.4-3.2 7-4 17.8-1.8 24.5 1.7 4.8 1.2 5.5-1.9 2.7-1-.9-5.3-4.6-9.4-8.2s-8.6-7.5-10-8.8c-1.4-1.2-6.6-5.7-11.7-10-5.1-4.2-9.2-8-9.2-8.4-.1-.3 2.1-1.1 4.9-1.8 13.6-3.3 19.5-18.5 11.1-28.7-2.7-3.3-8.2-6.3-11.6-6.3-1.6 0-3.7-.5-4.5-1-1.6-1.1-.4-2.4 11.5-12.5 6.8-5.7 14.3-12.3 16.5-14.5.8-.8 4.4-4 8-7s8.3-7.1 10.5-9.2 4.4-3.8 4.8-3.8.5 1.7 0 3.7c-4 19.9 13.8 36.8 32.8 31.1 4.7-1.4 5.3-3.3.7-2.1-9.7 2.4-20.7-.5-26.3-7-4.1-4.8-5.5-9-5.5-17.2 0-10.6 5.7-17.4 18.3-21.8 2-.7 2.3-2.7.5-2.7-.7.1-2.9.9-4.8 1.8M518.2 205.2c.2.6 1.7 1.6 3.4 2.1 8.4 2.8 15.1 10.1 16.1 17.6.6 4.6 2.3 5.6 2.3 1.3-.1-4.1-3.2-10.2-7.5-14.5-5.4-5.4-15.4-10-14.3-6.5M326.4 211.3c-.3.8-.3 5.6-.2 10.8l.3 9.4 40.3.3 40.3.2-.3-10.2-.3-10.3-9-.6c-4.9-.4-22.9-.7-39.8-.8-24.7-.1-30.9.2-31.3 1.2m70.9 1.5 8.7.3-.4 6.7c-.3 3.7-.5 7.5-.5 8.5-.1 1.7-2.1 1.8-38.6 1.6l-38.5-.2v-17.8l30.3.3c16.6.1 34.1.4 39 .6"/><path d="M343.3 215.2c-1.4 1.7-2.4 9-1.5 10.4 1.3 1.9 3.9 2.3 6 .8 1.5-1 2-2.4 1.8-5.3-.3-5.8-3.8-9.1-6.3-5.9m3.5 2.5c-.5 2.5-2.8 2.8-2.8.4 0-1.2.6-2.1 1.6-2.1.9 0 1.4.7 1.2 1.7m1.2 5.8c0 2.1-3 3.1-4 1.4-1.1-1.7-.3-2.9 2.1-2.9 1 0 1.9.7 1.9 1.5M359.8 215.1c-1 .6-1.8 1.7-1.8 2.6 0 1.5.1 1.5 1.8 0 1.2-1.1 2.2-1.3 3.2-.6 1.3.8 1.3 1.1-.2 2.3-2.2 1.6-2.3 2.6-.3 2.6.8 0 1.5.9 1.5 2 0 2.1-3.3 2.9-4.5 1-1-1.6-2.5-1.2-1.9.5.8 2 4 2.8 6.4 1.5 1.6-.9 2-1.9 1.8-5.7-.3-5.2-3-7.9-6-6.2M392 214.7c-4.1 1.5-5.5 8.7-2.2 11.6 3.3 3 9.2 1.6 9.2-2.2 0-1.1-.4-1.1-1.9.3-1.1 1-3 1.6-4.3 1.4-1.8-.2-2.4-1-2.6-3.6-.6-5.6 3.2-8 7-4.5 2.2 2 2.4.1.2-2.1-1.6-1.6-2.8-1.8-5.4-.9M333.4 216.4c-1.8 1.4-1.8 1.5-.1 2.1 1.2.5 1.7 1.8 1.7 4.6 0 2.1.5 3.9 1 3.9.6 0 1-2.7 1-6 0-6.3-.4-6.9-3.6-4.6M369.1 215.9c-.8.5-1.2 1.8-.9 2.9.3 1 .2 2.6-.3 3.4-1.1 1.9 1.6 5.8 4 5.8 2.7 0 3.9-2 3.9-6.5-.2-5.9-2.8-8.1-6.7-5.6m4.7 2.3c-.7 1.9-3.8 2.2-3.8.4 0-1 .9-1.6 2.1-1.6s1.9.5 1.7 1.2m.2 5.8c0 1.3-.7 2-2 2s-2-.7-2-2 .7-2 2-2 2 .7 2 2M380.7 216.4c-2.1 1.6-2.2 2.6-.2 2.6 1.1 0 1.5 1.2 1.5 4.6 0 2.7.4 4.3 1 3.9 1.2-.7 1.4-11.2.2-11.9-.4-.2-1.5.1-2.5.8M352 222.5c0 1 .7 1.5 1.8 1.3 2.1-.4 1.9-2.2-.2-2.6-1-.2-1.6.3-1.6 1.3M550.7 223.3c-2.8 4-3.3 5.6-2.1 5.8.7 0 7.4-8.4 7.4-9.4 0-2-2.8-.2-5.3 3.6M539.7 239.5c-2 3-3.2 5.7-2.7 6 .8.5 8-9.3 8-10.9 0-1.9-2.1 0-5.3 4.9M540 248.2c0 1.3.7 9.5 1.5 18.3 2.6 27.5 3.6 39.7 3.1 40.2-.2.2-2.5-1.7-5.1-4.2-6.5-6.6-14.2-10-22.7-10-8.4 0-9.5 1.6-1.3 1.9 11.3.3 25.5 9.6 28.7 18.6 1 3.1 2.2 3.8 3.3 1.9.4-.5.2-5.6-.4-11.2-1.7-16.9-3-30.7-3.7-40.2-.3-5-.8-9.9-.9-11-.2-1.1-.4-3-.4-4.3-.1-1.2-.5-2.2-1.1-2.2-.5 0-1 1-1 2.2M597.5 250.7c-3.7 5.8-3.9 6.3-2.6 6.3 1.1 0 7.1-8.3 7.1-9.9 0-2.2-1.6-.9-4.5 3.6M529.3 253.8c-3.2 4.7-4.3 7.9-2.4 6.7 1.4-.8 7.1-9.4 7.1-10.6 0-2-1.6-.6-4.7 3.9M587 266.5c-1.7 2.5-3 5.3-2.8 6.2.2 1.1 1.6-.3 4.1-4 4-6.1 4.2-6.7 2.7-6.7-.5 0-2.3 2-4 4.5M517.6 270.6c-2.1 3-3.6 6-3.4 6.6.4 1.2 8.8-9.5 8.8-11.2 0-2.3-1.9-.7-5.4 4.6M634.5 273.2c-.3.8-.4 5.7-.3 10.9l.3 9.4 23.5.6c12.9.4 30.7 1 39.6 1.3l16.1.7.5-9.8c.3-5.4.3-10.4.1-11-.4-1-4.2-1.3-14.2-1.4-7.5 0-14.7-.2-16.1-.4-1.4-.1-13-.6-25.7-1-19.8-.6-23.4-.5-23.8.7m53.3 2.4 25.2.7v7.6c0 4.2-.4 8.1-.8 8.7-.5.9-7.8.9-27.2.3-14.6-.4-31.6-.8-37.7-.8L636 292v-18.3l13.3.7c7.2.3 24.6.9 38.5 1.2"/><path d="M642.3 278c-2.6 1.1-3.1 3-.8 3 1.1 0 1.5 1.1 1.5 4 0 2.2.5 4 1 4 .6 0 1-2.7 1-6s-.1-6-.2-5.9c-.2 0-1.3.4-2.5.9M650.5 278c-1.2 2-1.5 9.3-.4 10.7 1.4 1.6 5.3 1.7 6.7 0 1-1.2.8-8.9-.3-10.7-.8-1.3-5.2-1.3-6 0m4.5 2.5c0 .8-.7 1.5-1.5 1.5s-1.5-.7-1.5-1.5.7-1.5 1.5-1.5 1.5.7 1.5 1.5m.4 5c.3.9-.1 1.8-1 2.2-1.9.7-3.9-1.1-3-2.6 1-1.6 3.3-1.3 4 .4M667.3 277.7c-.7.2-1.3 1.4-1.3 2.6.1 2 .2 2.1 1.4.4 1.5-1.9 3.2-2.2 4.1-.6.4.6-.1 1.6-1.1 2.4-1.8 1.3-1.8 1.4-.1 2 .9.4 1.7 1.3 1.7 2.1 0 1.8-4.7 1.9-5.3.1-.2-.6-.7-.9-1.1-.6-1.1 1 .4 3.7 2.3 4.2.9.2 2.7 0 3.9-.4 2-.8 2.2-1.4 1.9-6-.5-6-2.4-7.9-6.4-6.2M677.7 278.1c-1 .6-1.7 2.1-1.6 3.7.1 1.5.1 3.1-.1 3.7-1 4.1 2.2 6.5 5.9 4.5 1.7-.9 2-1.8 1.7-6.1-.4-6.2-2.2-7.9-5.9-5.8m4.1 3.1c-.3.7-1.1 1.3-1.8 1.3s-1.5-.6-1.7-1.3c-.3-.7.4-1.2 1.7-1.2s2 .5 1.8 1.2m.2 5.3c0 2.1-3 3.1-4 1.4-1.1-1.7-.3-2.9 2.1-2.9 1 0 1.9.7 1.9 1.5M688.5 279.6c-1.4 1-1.6 1.7-.8 2.2.6.4 1.3 2.5 1.5 4.7.4 5.7 2.2 4.5 2.6-1.6.4-6-.5-7.4-3.3-5.3M696.2 284.2c.3 6.1.4 6.3 3.1 6.6 4.4.5 7.7-2.2 7.7-6.3 0-4.5-2.2-6.5-7.1-6.5-4 0-4 0-3.7 6.2m8.4-1.5c.9 3.4-.7 5.8-3.7 5.8-2.1 0-2.4-.5-2.5-4.3-.2-4-.1-4.2 2.7-4.2 2.3 0 3 .6 3.5 2.7M659.6 283.8c-1.3 1.2-.5 2.2 1.9 2.2 1.4 0 2.5-.4 2.5-.9 0-1-3.6-2.1-4.4-1.3M270.3 277c-2.1.9-2.3 1.6-2.3 8.2 0 4 .4 7.8.8 8.5.6.9 21.4 1.2 84.8 1.4 46.2.1 84.6-.1 85.2-.5 1.7-1 1.6-16-.1-17.4-1.6-1.4-165.1-1.5-168.4-.2m167.7 9v8H270v-16h168z"/><path d="M283.3 281.2c-1.4 1.9-3.7 9.7-3.1 10.4.4.3.9-.4 1.3-1.5.9-2.8 5.5-2.9 6.2-.1.3 1.1 1 2 1.5 2s.8-.4.6-.8c-.1-.4-1.2-3.1-2.2-6-2.1-5.4-2.7-6-4.3-4m2.7 4.4c0 .8-.7 1.4-1.5 1.4-1.5 0-2.1-2.1-.9-3.3 1-.9 2.4.2 2.4 1.9M296.2 285.7c.3 5.8.3 5.8 4.1 6.1 2.1.2 3.7-.1 3.7-.7s-1.3-1.1-3-1.1c-2.9 0-3-.1-3-5 0-2.8-.5-5-1-5-.7 0-1 2.2-.8 5.7M312.3 281.4c1.1.9 1.7 2.7 1.7 5.4 0 6.1 1.8 6.1 2.2 0 .2-3.2.8-5.3 1.5-5.3.6 0 1.5-.3 1.9-.8.4-.4-1.5-.7-4.2-.7-4.3.1-4.7.2-3.1 1.4M327.2 285.7c.3 5.8.3 5.8 4.1 6.1 2 .2 3.7-.1 3.7-.7 0-.5-1.5-1.1-3.2-1.3-4.2-.4-4.5-3.2-.5-3.6 3.3-.4 2.6-2.2-.9-2.2-1.3 0-2.4-.4-2.4-.9 0-1.3 2.7-2.1 4.5-1.5.8.4 1.5.1 1.5-.5s-1.6-1.1-3.5-1.1c-3.6 0-3.6 0-3.3 5.7M342 286.1c0 3.7.4 5.8 1 5.4.6-.3 1-1.5 1-2.6 0-2.9 3.7-2.4 5.3.7 1.3 2.5 1.4 2.4 1.2-2.7-.2-3-.3-5.7-.4-6.2 0-.4-1.9-.7-4.1-.7-4 0-4 0-4 6.1m6.8-2.9c-.7 2-4.8 2.3-4.8.4 0-1.1.9-1.6 2.6-1.6 1.6 0 2.4.5 2.2 1.2M357 286.1c0 4.1.3 5.8 1.1 5.3.7-.4.9-2.1.6-4-.7-4.5.3-4.3 3.3.6 1.4 2.2 2.8 4 3.2 4 .5 0 .8-2.7.8-6.1 0-4-.4-5.8-1.1-5.3-.6.3-.8 1.7-.5 2.9 1 3.8-1.1 3.8-3.4 0-1.2-1.9-2.6-3.5-3.1-3.5s-.9 2.7-.9 6.1M374 285.5c-1.3 3.1-2 5.8-1.7 6.2.4.3.9-.2 1.3-1.1.8-2.1 5.3-2.1 7 .1 1.3 1.7 1.3 1.7 1.4.1 0-2.1-4.1-10.8-5.1-10.8-.4 0-1.7 2.5-2.9 5.5m4-.5c0 1.1-.4 2-1 2-.5 0-1-.9-1-2s.5-2 1-2c.6 0 1 .9 1 2M388 281c0 .5.9 1 2 1 1.7 0 2 .7 2 5.1 0 3 .4 4.8 1 4.4.5-.3.7-2.5.3-5-.5-3.7-.3-4.5 1-4.5.9 0 1.9-.5 2.2-1 .4-.6-1.2-1-3.9-1-2.5 0-4.6.4-4.6 1M403.5 282.9c-1.4 2.8-1.4 3.4 0 6.2 1.4 2.5 2.1 3 4.8 2.7 2.4-.2 3.4-.9 4.1-3.1 1.6-4.4-.3-8.1-4.1-8.5-2.7-.3-3.4.2-4.8 2.7m7.5.6c.7.8 1 2.5.6 4-.8 3.3-6.1 3.6-7.1.5-1.6-4.9 3.3-8.3 6.5-4.5M419 286.1c0 3.7.4 5.8 1 5.4.6-.3 1-1.5 1-2.6 0-2.9 3.7-2.4 5.5.8 1.6 2.8 1.6 2.8 1-.9-.3-2.1-.1-3.9.5-4.3.7-.4.7-1.2 0-2.6-.8-1.4-2.1-1.9-5-1.9-4 0-4 0-4 6.1m7-2.6c0 .9-.9 1.5-2.5 1.5s-2.5-.6-2.5-1.5.9-1.5 2.5-1.5 2.5.6 2.5 1.5M577 281c-.7 1.6-1.6 3-2 3s-1.2 1.1-1.8 2.5c-1.3 2.8-.2 3.4 1.8 1 1.1-1.3 5.6-1.5 29.1-1.5 17.9 0 27.9-.4 27.9-1s-9.7-1-27.1-1c-27 0-27 0-25.5-2.2 2-2.8 2-3.8.2-3.8-.7 0-1.9 1.3-2.6 3M505.1 288.2c-4.5 6.5-4.7 9.4-.3 4.1 3.9-4.6 6.4-9.1 5.4-9.7-.5-.3-2.8 2.2-5.1 5.6M565 298.6c-1.7 2.6-3 5.3-2.8 6.2s1.8-.7 4.1-4.1c3.9-6 4.2-6.7 2.8-6.7-.5 0-2.4 2.1-4.1 4.6M505 299.5c-3.3 1.1-4.7 1.1-5.8.3-1.7-1.4-3.1.3-9.4 11.2-4.1 7.2-4.3 7.8-4.2 16 0 7.4.3 9.1 2.7 13.1 4.2 7.1 11.2 12.4 19 14.3 4.3 1 2.9-1.3-1.9-3.3-7-2.8-11.1-6-14.4-11.1-2.8-4.4-3.2-5.8-3.3-12.8-.2-7.5 0-8.3 3.5-13.8 3.8-6.3 8.9-10 16.4-12.2 5.7-1.7 8.6-1.5 14.5.7 7.5 2.9 11.4 5.9 14.7 11.6 9 15.2 1.6 33.2-15.6 37.8-4.7 1.2-5.2 3.4-.6 2.9 3.8-.5 10.7-4.5 14.6-8.5 4.5-4.7 12.8-17.3 12.8-19.4-.1-1.6-.3-1.5-1.9.4-1.1 1.3-2.1 2.3-2.4 2.3-.2 0-.7-2.4-1-5.3-1.8-17.7-20.4-29.6-37.7-24.2M553.7 315.3c-3.9 5.6-4.3 6.7-2.7 6.7 1 0 8.1-9.3 8.1-10.7.1-2.3-2.2-.7-5.4 4"/><path d="M512.7 329.3c-1 2.6-.8 75.2.2 74.2 1.4-1.4 2.7-75.5 1.4-75.5-.6 0-1.3.6-1.6 1.3M546.5 334.7c-2.1 10.2-10.9 19.8-21.5 23.4-3.8 1.3-7 2.9-7 3.5 0 3.2 15-3.4 21.4-9.5 3.8-3.6 9.6-14 9.6-17.3 0-2.9-1.9-3-2.5-.1M408.1 408.2c0 1.3.3 1.7.6 1 .4-.9 21.3-1.2 99.9-1.2H608v6c0 3.5.4 6 1 6 .7 0 1-2.4.8-6.2-.3-6.1-.4-6.2-3.4-6.9-1.8-.3-47.1-.7-100.8-.8-97.6-.2-97.6-.2-97.5 2.1"/><path d="M419.4 410.4c-.3.7-.4 3.5-.2 6.2.3 4.8.4 4.9 3.3 4.6 3.4-.4 5-1.7 6-4.9 1.2-4.3-7.5-10-9.1-5.9m6.6 2.6c1.4 2.7.4 5.7-2 6.5-3 .9-4-.2-4-4.6 0-3.5.3-3.9 2.5-3.9 1.4 0 2.9.8 3.5 2M434.7 409.7c-1.1 1-.8 11.3.3 11.3.6 0 1-1.2 1-2.6 0-2.1.4-2.5 2.3-2.2 1.2.2 2.6 1.3 3.2 2.5.5 1.3 1.3 2.3 1.7 2.3 1.1 0 1-.8-.3-3.2-.8-1.4-.8-2.3 0-3.1 1.5-1.5 1.4-2.3-.5-4.1-1.5-1.6-6.5-2.2-7.7-.9m7.1 3c.2.9-.7 1.3-2.7 1.3-2.1 0-3.1-.5-3.1-1.6 0-1.9 5.1-1.6 5.8.3M481.6 410.6c-1 2.7-.7 8.9.6 10.2 1.4 1.4 5.4 1.6 6.3.3.3-.5-.7-1.1-2.2-1.3-3.8-.4-4.5-3.8-.9-3.8 1.4 0 2.6-.5 2.6-1 0-.6-1.2-1-2.6-1-3.4 0-2.6-2.4.9-2.8s2.5-2.2-1.3-2.2c-1.6 0-3 .7-3.4 1.6M512.7 409.6c-1.1 1.1-.8 11.4.3 11.4.6 0 1-1.1 1-2.5 0-2 .5-2.5 2.4-2.5 3.2 0 4.9-2.2 3.3-4.3-1.4-1.8-5.9-3.2-7-2.1m5.3 2.9c0 .8-.9 1.5-2 1.5s-2-.7-2-1.5.9-1.5 2-1.5 2 .7 2 1.5M576.2 409.7c-2.1.4-2.3.9-2 6.1.3 5.7.3 5.7 4.1 6 2.1.2 3.7-.1 3.7-.7s-1.3-1.1-3-1.1c-2.3 0-3-.4-3-2 0-1.5.7-2 2.5-2 1.4 0 2.5-.5 2.5-1 0-.6-1.1-1-2.5-1s-2.5-.5-2.5-1c0-.6 1.1-1 2.4-1 3 0 4.2-1.5 2-2.4-.9-.3-1.6-.5-1.7-.5-.1.1-1.2.4-2.5.6M453.7 414.7c.7 7.1 1.1 7.5 1.2 1 .1-3.1-.3-5.7-.8-5.7s-.6 2.1-.4 4.7M464.9 411.7c.5 1 1.6 3.5 2.5 5.5.8 2.1 2 3.8 2.6 3.8.5 0 1-.2 1-.5 0-.2.9-2.7 2-5.5 1.1-2.7 1.6-5 1.1-5-.4 0-1.6 1.9-2.5 4.2l-1.8 4.3-1.9-4.3c-1.1-2.3-2.4-4.2-2.9-4.2-.6 0-.7.7-.1 1.7M527.1 414.8c-.1 4.7.2 5.4 2.5 6.4 4 1.9 5.8.1 6.2-6.1.2-3.7 0-5.1-.8-4.6-.6.4-.9 2-.6 3.7.6 4.2-.2 5.8-3 5.8-1.9 0-2.4-.5-2.5-2.8-.1-1.5-.5-3.8-.9-5.2-.6-2-.8-1.4-.9 2.8M543.8 410.6c-.9.9-1 7.6-.2 9.8.7 1.8 5.9 2.2 6.9.6.4-.6-.6-1-2.4-1-2.9 0-3-.2-3.3-5.1-.2-2.8-.6-4.7-1-4.3M558.7 410.6c-1.2 1.2-.8 8.9.5 10.2 1.4 1.4 6.8 1.6 6.8.3 0-.5-1.2-1.1-2.7-1.3-2.4-.2-2.8-.7-2.5-2.9.3-3.1-1.1-7.3-2.1-6.3M589.9 412.9c1.2 1.6 2.1 4.1 2.1 5.4 0 1.4.5 2.9 1 3.2.6.4 1-.5 1-2s.9-4 2.1-5.7c2.6-3.6 1.7-5-1-1.7-2 2.4-2 2.4-3.6.1-.9-1.2-2.1-2.2-2.6-2.2-.6 0-.1 1.3 1 2.9"/><path d="M407.5 415.4c-.4 1.8-.5 4.4-.3 5.7.3 2.4.5 2.4 14.8 2.9 8 .3 53.4.5 101 .5 81.5 0 86.5-.1 86.8-1.8.2-.9-.1-1.7-.7-1.7s-1.1.6-1.1 1.3c0 1.1-17.5 1.3-98.7 1-54.4-.3-99.4-.6-100.1-.8-.9-.4-1.1-1.8-.6-5.5.7-5.6-.2-6.9-1.1-1.6M115 457c0 .5 1.8 1 4 1s4-.5 4-1c0-.6-1.8-1-4-1s-4 .4-4 1M132 457c0 .5 2.5 1 5.5 1s5.5-.5 5.5-1c0-.6-2.5-1-5.5-1s-5.5.4-5.5 1M150 457c0 .6 2.9 1 6.6 1 4.1 0 6.3-.4 5.9-1-.3-.6-3.3-1-6.6-1s-5.9.4-5.9 1M172.6 456.9c-.7 1.1 10.8 2.6 12.4 1.6.6-.3.8-1.1.5-1.6-.8-1.2-12.2-1.2-12.9 0M193.5 458c.3.5 2.8 1 5.6 1 2.7 0 4.9-.5 4.9-1 0-.6-2.5-1-5.6-1-3.4 0-5.3.4-4.9 1M216 458c0 .5 2.5 1 5.5 1s5.5-.5 5.5-1c0-.6-2.5-1-5.5-1s-5.5.4-5.5 1M236 458c0 .5 2.3 1 5 1 2.8 0 5-.5 5-1 0-.6-2.2-1-5-1-2.7 0-5 .4-5 1M255 458c0 .6 2.9 1 6.6 1 4.1 0 6.3-.4 5.9-1-.3-.6-3.3-1-6.6-1s-5.9.4-5.9 1M278 458c0 .6 3 1 7.1 1 4.4 0 6.8-.4 6.4-1-.3-.6-3.5-1-7.1-1s-6.4.4-6.4 1M303 457.9c0 1 12 2 12.6 1 .8-1.3-1.2-1.9-6.8-1.9-3.2 0-5.8.4-5.8.9M326.5 458c-.3.5 0 1.3.8 1.6 2.3.8 12.7 0 13-1.1.3-1.4-12.9-1.9-13.8-.5M350.4 457.9c-.2.2-.1.8.2 1.2.7 1.3 15.4 1.1 15.4-.1 0-.6-.3-1-.7-1.1-3.2-.3-14.5-.3-14.9 0M395.5 457.8c-1.5 1.6.2 2.2 6 2.2 6.8 0 9.4-1.9 2.8-2.1-2.1 0-4.8-.2-6.1-.3-1.2-.2-2.4 0-2.7.2M374 459c0 .6 2.7 1 6 1s6-.4 6-1-2.7-1-6-1-6 .4-6 1M416 459c0 .6 2.7 1 6 1s6-.4 6-1-2.7-1-6-1-6 .4-6 1M438 459c0 .6 3.4 1 8.1 1 5.1 0 7.8-.4 7.4-1-.3-.6-4-1-8.1-1-4.3 0-7.4.4-7.4 1M465 459c0 .6 3 1 7.1 1 4.4 0 6.8-.4 6.4-1-.3-.6-3.5-1-7.1-1s-6.4.4-6.4 1M490 459c0 .6 2.9 1 6.6 1 4.1 0 6.3-.4 5.9-1-.3-.6-3.3-1-6.6-1s-5.9.4-5.9 1M511 459c0 .6 3 1 7.1 1 4.4 0 6.8-.4 6.4-1-.3-.6-3.5-1-7.1-1s-6.4.4-6.4 1M532 459c0 .6 2.8 1 6.5 1s6.5-.4 6.5-1-2.8-1-6.5-1-6.5.4-6.5 1M555 459c0 .5 2.5 1 5.5 1s5.5-.5 5.5-1c0-.6-2.5-1-5.5-1s-5.5.4-5.5 1M576 459c0 .6 2.7 1 6 1s6-.4 6-1-2.7-1-6-1-6 .4-6 1M599 459c0 .6 2.7 1 6.1 1 3.7 0 5.8-.4 5.4-1-.3-.6-3.1-1-6.1-1s-5.4.4-5.4 1M618.5 459c-.4.6 1.8 1 5.9 1 3.7 0 6.6-.4 6.6-1s-2.6-1-5.9-1-6.3.4-6.6 1M640 459c0 .5 2.5 1 5.5 1s5.5-.5 5.5-1c0-.6-2.5-1-5.5-1s-5.5.4-5.5 1M660 459c0 .5 2.5 1 5.5 1s5.5-.5 5.5-1c0-.6-2.5-1-5.5-1s-5.5.4-5.5 1M678 459c0 .5 2.4 1 5.4 1s5.8-.5 6.1-1c.4-.6-1.7-1-5.4-1-3.4 0-6.1.4-6.1 1M697 459c0 .5 2.3 1 5 1 2.8 0 5-.5 5-1 0-.6-2.2-1-5-1-2.7 0-5 .4-5 1M717 459c0 .6 2.8 1 6.5 1s6.5-.4 6.5-1-2.8-1-6.5-1-6.5.4-6.5 1M740 459c0 .6 2.7 1 6 1s6-.4 6-1-2.7-1-6-1-6 .4-6 1M764 459c0 .6 2.7 1 6 1s6-.4 6-1-2.7-1-6-1-6 .4-6 1M786 459c0 .6 2.7 1 6.1 1 3.7 0 5.8-.4 5.4-1-.3-.6-3.1-1-6.1-1s-5.4.4-5.4 1M806.5 459c-.4.6 1.7 1 5.5 1s5.9-.4 5.5-1c-.3-.6-2.8-1-5.5-1s-5.2.4-5.5 1M828.6 458.9c-.6.9 10.3 2.2 11.7 1.4.4-.2.5-.9.2-1.4-.8-1.2-11.2-1.2-11.9 0M850 459c0 .6 2.9 1 6.6 1 4.1 0 6.3-.4 5.9-1-.3-.6-3.3-1-6.6-1s-5.9.4-5.9 1M870.5 459c-.4.6 1.7 1 5.4 1 3.4 0 6.1-.4 6.1-1s-2.4-1-5.4-1-5.8.4-6.1 1M890.5 459c-.4.6 1.2 1 4 1s4.4-.4 4-1c-.3-.6-2.1-1-4-1s-3.7.4-4 1M150 470c-1.4 1.1-2.8 2-3.2 2-1.7 0-14.8 8.5-14.8 9.5 0 .5.9 2.1 2 3.5s2 2.8 2 3.2c0 1.3 13.1 20.8 13.9 20.8 1.5 0 3.1-2.5 3.1-4.7 0-1.3.6-2.3 1.3-2.3.6 0 5.7 2.8 11.2 6.1 16.3 9.9 17 10.2 20 8.3 2.3-1.5 2.5-2.2 2.5-9.5 0-7.8 0-7.8-4.7-10.5-2.7-1.5-8.5-4.9-13.1-7.5-4.5-2.7-8.5-4.9-8.7-4.9-.3 0-2.3-1.1-4.5-2.5-3.7-2.3-3.9-2.8-4.2-7.9-.3-5.5-.3-5.5-2.8-3.6m-1 7.4c0 4.4 0 4.4 6.8 8 3.7 2 9.9 5.5 13.7 7.7 3.9 2.2 8.5 4.7 10.3 5.6 3.2 1.7 3.2 1.7 3.2 9.5 0 4.3-.3 7.8-.7 7.8-.5 0-2.4-1-4.3-2.2-10.8-6.6-24.1-13.8-26.7-14.4-2-.5-2.3-.2-2.3 2 0 3.6-1.5 3.2-4.1-1.2-1.2-2-4.2-6.7-6.6-10.4-4.7-7.4-5.2-9.3-2.5-10.1 1.9-.6 7.4-3.8 8.2-4.8.5-.6 3-1.7 4.3-1.8.4-.1.7 1.9.7 4.3"/><path d="M150 491c0 3.3.4 6 1 6s1-.9 1-2.1c0-1.6.4-1.9 2-1.4 1.1.4 2 .2 2-.4s-.9-1.6-2-2.3c-2.9-1.8-2.5-2.9.8-2.2 2.7.5 2.7.5.3-1.5-4-3.6-5.1-2.8-5.1 3.9M159.4 496c1 6 1.9 7.3 3 4.5 1-2.6 2.5-1.6 3.2 2 .8 4.7 1.7 4.4 3.2-1 1.5-5.5 1.5-6.5.2-6.5-.5 0-1 .7-1 1.5s-.4 1.5-1 1.5c-.5 0-1-1.1-1-2.4 0-3.2-1.7-4.2-2.5-1.6-1 3-2.5 2.4-2.5-1 0-1.8-.5-3-1.3-3-1 0-1.1 1.2-.3 6M172 503.1c0 5.4.2 6 2.6 7.1 3.8 1.8 5.9 0 5.8-4.7-.2-3.9-2.7-6.8-6.6-7.9-1.6-.4-1.8.4-1.8 5.5m5.6-.6c2 3.1 1.5 6-1.1 6-1.6 0-2.1-.8-2.3-4.3-.4-4.8.9-5.4 3.4-1.7M734.5 656.4c-.5.2-4.4 1.2-8.5 2.1-9.3 2.1-24.1 9.4-34.6 17-4.3 3.2-12.5 10.4-18.1 16.1-7.2 7.2-11.2 10.4-13.5 10.9-4.2 1-10.6 5.8-14.6 11.2-5.2 6.9-7.4 12.9-7.9 21.8-.4 6.1-1 8.5-2.5 10.2-1.9 2.1-2 2.8-.9 27.6 1.1 25.6 1.1 25.6-1.4 30.5-3.1 6.1-3.4 14.1-.7 16.4.9.9 4 2.6 6.7 3.8 11.9 5.3 11.7 5.1 11 7.7-.3 1.3.9 8.2 2.6 15.3 3.2 13 3.2 13 .5 17-1.5 2.4-2.6 5.4-2.6 7.4 0 1.9-.5 3.8-1 4.1-2.4 1.5-9.2 13-9.2 15.4 0 1.4-1.2 4.2-2.8 6.1-1.5 2-3 5.3-3.2 7.5-.3 2.2-1.3 6.6-2.3 9.8-2.2 6.9-1.3 9.4 4.3 12.4 6.4 3.4 10.3 5.7 27.7 16.3 9.4 5.6 18.4 11.1 20.2 12.1s5.1 3 7.3 4.5 4.3 2.4 4.7 2c.3-.3.4-.7.2-.9-2.8-2-9-5.7-9.4-5.7s-2.6-1.4-5-3c-2.4-1.7-4.7-3-5-3-.4 0-3-1.5-5.8-3.4-6-3.8-19.3-11.9-24.6-14.8-12.6-6.9-14.1-8.1-14.1-11.4 0-1.7.7-5.1 1.5-7.4s1.5-5.5 1.5-7 1.3-4.4 3-6.5c1.8-2.2 3-5 3-6.7 0-1.8 1.9-5.6 5.3-10.6 3.5-5.1 5.3-8.8 5.3-10.8.1-1.8 1.1-4.6 2.3-6.3 2.7-3.7 2.5-6.9-.8-19.6-1.1-4.4-2.1-9.6-2.1-11.6 0-1.9-.7-4.4-1.5-5.5-.8-1-1.5-3.7-1.5-5.9-.1-2.2-.6-4.9-1.1-6-.7-1.4-.8-.3-.4 3.7.3 3.2.1 5.8-.4 5.8-1.5 0-11.6-4.3-13-5.6-2.1-1.9-1.6-11.5.9-15.8 2.1-3.5 2.2-4.2 1.4-29.6-.6-24.5-.6-26.2 1.2-28.1 1.2-1.3 1.7-3.2 1.6-5.6-.4-4.8 1.6-13.8 4-19.1 2.7-5.7 9.9-13.5 14.4-15.7 1.9-.9 3.7-1.5 4-1.3.2.3-1.6 3.1-4 6.4-2.4 3.2-6.8 9.9-9.7 14.9-5.3 9-5.3 9-5.5 20-.2 8.6-.1 9.9.6 6 .4-2.8.9-7.6.9-10.7.1-3.1.6-6 1.2-6.3.5-.4 2.8.5 5 2 2.2 1.4 4.5 2.5 5.1 2.3s-1.2-1.9-4.1-3.6l-5.2-3.3 2.7-4.7c3.3-5.6 11.8-18.4 14.7-22.1 5.5-6.9 25-25.2 31.8-29.8 19.9-13.6 36.6-18.7 53.2-16.3 6.5.9 15.7 4 15.7 5.3 0 .1-4.4.2-9.8.3-12 0-19.3 2-32.2 8.7-20.1 10.4-40.1 28.8-54.8 50.4-9 13.4-10.4 17.3-9.6 27.7.7 9.2 1.4 7.9 1.4-2.4 0-9.4 0-9.4 5-17.8 6.3-10.4 14.4-20.9 23.5-30.6 13.2-14.1 35.5-28.1 51.5-32.5 10.2-2.8 23-2.8 30.5 0 5.5 2 5.5 2 5.5 7 0 2.7-.2 4.9-.3 4.9-.2 0-1.9-.7-3.7-1.6-2.4-1.3-4.7-1.5-9.3-1-13.6 1.4-24.9 13-27.7 28.6-.7 3.6-1.4 7.4-1.6 8.5-.6 3-10.3 9-12.4 7.7-8-4.9-12.8-6.7-18.5-6.7-7 0-11.4 1.9-18 7.7s-10.2 14-10.9 25.2c-.3 5-1 9.4-1.6 10-2.1 2.1-2 2.2 17.3 12.9 2.5 1.4 3.7 2.8 3.7 4.2 0 3.4 3.4 5.6 9.7 6.4 5.8.8 7.3 1.5 26 12.8 4 2.3 7.7 4.3 8.3 4.3.5 0 1 .4 1 1 0 .5.7 1 1.5 1 .9 0 3.7 2.2 6.3 5 3.9 4 5.4 5 8.1 5 3.4 0 6.6 1.6 22.8 11.1 5 3 10.5 6.2 12.2 7.1s3.1 2.5 3.1 3.5c0 2.3 4.9 5.3 8.4 5.3 1.5 0 4.5.9 6.7 2.1 2.3 1.1 4.3 1.8 4.5 1.6 1-1-7.1-4.9-11.9-5.8-2.8-.5-5.5-1.5-6-2.2-.4-.6-.6-4.2-.3-8 .3-3.9.1-6.7-.5-6.7-.5 0-.9 2-.9 4.5s-.5 4.5-1 4.5c-.6 0-7-3.4-14.3-7.6-18-10.5-17.9-10.4-20.9-10.4-3.9 0-7.5-1.9-8.2-4.4-.3-1.1-.3-4.5.1-7.4.4-3.6.2-5.2-.6-5.2-.6 0-1.1 1.8-1.1 4.5 0 2.5-.4 4.5-.8 4.5-.5 0-3.4-1.6-6.6-3.5s-6-3.5-6.2-3.5-6-3.4-12.9-7.5c-10.4-6.3-13.1-7.5-16.8-7.5-7.2 0-8.1-1.3-7.4-10.8.3-4.7.1-8.2-.4-8.2s-.9 2-.9 4.5c0 5.5-1.7 6.6-5.7 3.7-1.5-1-5.6-3.4-9.1-5.2-4.7-2.5-6.1-3.7-5.7-4.9.4-.9 1.1-6.1 1.6-11.6 1.1-10.8 2.9-15.2 9.6-22.6 3.9-4.3 12.2-7.9 18.1-7.9 5.7 0 13.8 4.3 48.2 25.1 5.2 3.1 11.2 6.5 13.3 7.5 2 1 3.7 2.1 3.7 2.6 0 .4.5.8 1 .8.6 0 6.7 3.4 13.6 7.6 6.9 4.1 12.8 7.4 13 7.1.6-.6-.9-1.7-12.1-8.2-5.5-3.1-11.7-6.8-13.7-8.1-2.1-1.3-4.2-2.4-4.8-2.4-.5 0-1-.3-1-.8 0-.4-1-1.2-2.3-1.8-1.2-.6-4.4-2.4-7.2-4.1-2.7-1.7-10.5-6.3-17.2-10.3-6.8-4-12.3-7.6-12.3-8.1 0-.4 1.9-2 4.3-3.4 5.2-3 6.4-5.2 6.9-12.5 1.4-19.7 21.5-34.2 37.3-27 4.3 2 12.8 6.6 23.5 12.7 1.9 1.1 6.4 3.6 10 5.5 15.1 8.2 18.7 10.2 22 12.5 3.6 2.4 5.5 3 4.6 1.4-.5-.8-6.8-4.4-25.1-14.6-33.1-18.5-30.8-16.7-30.9-23-.1-5.8-.1-5.8-7.1-10.1-3.8-2.4-9.9-5.2-13.5-6.4-6-1.9-18.2-3.5-20.5-2.6"/><path d="M734 717.8c0 .4 2.1 1.8 4.8 3.2 2.6 1.4 9.7 5.5 15.7 9.1 6.1 3.6 13.5 7.9 16.5 9.6 3 1.6 7.9 4.4 10.8 6.1 7.7 4.7 11.5 6.5 10.8 5.3-.4-.6-5-3.6-10.4-6.7-5.3-3.1-12.2-7.1-15.2-8.9s-7.5-4.4-10-5.7c-2.5-1.4-8.5-4.8-13.3-7.7-9.3-5.4-9.7-5.5-9.7-4.3M239.7 786.1c-3.3 1.9-1.4 6.9 2.6 6.9 1 0 1.5.5 1.1 1.1-.3.6-1.7.8-3.2.4-2.2-.5-2.4-.4-1.3.9 1.7 2 2.6 2 4.5 0 3.8-3.8.7-11.7-3.7-9.3m3.8 2.9c0 .8-.8 1.6-1.7 1.8-1.3.2-1.8-.3-1.8-1.8s.5-2 1.8-1.8c.9.2 1.7 1 1.7 1.8"/><path d="M247.7 786.5c-3.1 2.2-1.4 6.5 2.6 6.5 1 0 1.5.5 1.1 1.1-.3.6-1.5.8-2.6.6-1.5-.4-1.7-.3-.8.9 1.7 1.9 4.8.1 5.6-3.3.6-2.4.8-2.5 2-.8.8 1 2 1.5 2.9 1.1q1.65-.6 1.2.6c-.2.7-1.5 1.2-2.8 1.1-2.3-.3-2.3-.2-.5 1.2 1.7 1.3 2.2 1.3 3.8-.2 2.4-2.2 2.4-7.5-.1-9-1.6-1-2.4-.9-4.5.8-1.4 1.1-2.6 1.6-2.6 1 0-1.9-3.4-3-5.3-1.6m4.1 2.8c.2 1.2-.3 1.7-1.7 1.7-1.5 0-2.1-.6-2.1-2.1 0-2.5 3.3-2.2 3.8.4m8.2-.3c0 1.3-.7 2-2 2-1.9 0-2.7-2-1.3-3.3 1.3-1.4 3.3-.6 3.3 1.3M272.6 787.2c-.9 1.2-1.6 2.9-1.6 3.8 0 1.9 2.8 6 4.1 6 .5 0 1.7-.9 2.6-2 1-1.1 2.8-2 4-2 1.3 0 2.3-.5 2.3-1 0-.6-1.1-1-2.5-1-1.5 0-2.5-.6-2.5-1.4 0-1.6-2.6-4.6-4-4.6-.5 0-1.6 1-2.4 2.2m3.9 3.8c0 1.8-.5 3.5-1.2 3.7-1.4.5-2.8-4-1.9-6.3 1-2.7 3.1-.9 3.1 2.6M286.6 786.6c-3.6 3.6-.6 11.6 3.5 9.4 1.4-.8 1.9-2.1 1.9-5 0-4.8-2.8-7-5.4-4.4m3.8 2c1.7 4.4-.4 7.8-3.1 5.1-1-1-1.3-2.4-.9-4.1.7-2.9 3.1-3.5 4-1M295.3 786.2c-.6.7-1.1 3-1.1 5-.2 4.3 2.1 6.3 5.1 4.6 1.5-.8 1.7-1.7 1.2-5.1-.9-5.2-3.1-7.1-5.2-4.5m3.7 1.8c0 .5-.7 1-1.5 1s-1.5-.5-1.5-1c0-.6.7-1 1.5-1s1.5.4 1.5 1m.3 3.7c.8.7-1.1 3.3-2.4 3.3-.5 0-.9-.9-.9-2 0-1.9 2-2.7 3.3-1.3M303.2 786.2c-1.7 1.7-1.5 6.8.4 8.9 1.9 2.2 5.4.9 5.4-1.9 0-1.3.3-1.2 1.6.6 1.9 2.7 5 2.9 6.4.3 1.4-2.8 1.3-4.6-.8-7.1-2-2.5-4.4-2-6 1.3-.8 1.7-1.1 1.8-1.1.5-.1-1-1-2.2-2-2.8-2.4-1.3-2.4-1.3-3.9.2m4.3 4.8c0 5.1-2.9 4.8-3.3-.3-.3-3.3-.1-3.8 1.5-3.5 1.3.2 1.8 1.2 1.8 3.8m8 0c0 5.1-2.9 4.8-3.3-.3-.3-3.3-.1-3.8 1.5-3.5 1.3.2 1.8 1.2 1.8 3.8M265.7 788.5c-3.1 3.4-3 4.9.1 5.3 1.2.2 2.2.9 2.2 1.5 0 .7.4.6.9-.3.5-.8.6-3.3.2-5.5l-.6-3.9zm1.8 3.4c-.9 1.6-2.5.3-1.8-1.5q.6-1.5 1.5-.6c.6.6.7 1.5.3 2.1M320.6 789.9c.5.5 10.1 1.1 21.2 1.5 11.2.3 21 .9 21.7 1.3 3.9 2.3 11.5 10.7 11.5 12.8 0 1.3 1.7 4.1 3.9 6.6 4 4.2 4 4.2 6.6 2.5 1.4-.9 3.5-3.1 4.5-4.9 3.8-6.2 2-10-5.1-11.1-3.6-.5-5-.3-6.2.9-.9.8-1.9 1.5-2.4 1.5-.4 0-3.7-2.7-7.3-6l-6.5-6h-21.4c-12.5 0-21.1.4-20.5.9m61 12.2c1 1.7-2.3 4.6-3.8 3.1-.8-.8-.8-1.5.2-2.7 1.5-1.8 2.6-1.9 3.6-.4m8.1 2.4c.3 2.9.2 2.9-.9.7-1.4-2.8-3.8-2.5-5.4.7-1.4 2.7-.8 5.1 1.2 5.1.8 0 1.4.5 1.4 1.1s-1 .9-2.2.7c-3.4-.5-3.5-4.8-.2-8.7 3.2-3.9 5.8-3.7 6.1.4m-2.7 1.9c0 1.6-1.8 3.1-2.7 2.2-.8-.8.5-3.6 1.7-3.6.5 0 1 .6 1 1.4m2 2.1c0 .3-.2.5-.5.5s-.5-.2-.5-.5.2-.5.5-.5.5.2.5.5M657.2 807.8c-3.9 3.3-4.1 6-.6 10.1 3.1 3.8 4.7 3.9 9.1.5 4.1-3.1 3.6-4.5-.5-1.5-3.7 2.6-4.7 2.6-7.2.1-2.6-2.6-2.7-7-.1-7 1 0 2.4.7 3.1 1.5.7.9 1.5 1.3 1.8 1s-.3-1.5-1.4-2.6c-1.4-1.6-1.5-2.3-.6-2.6 1.3-.5 1.7-2.3.5-2.3-.5 0-2.3 1.3-4.1 2.8M392 811.7c0 .8 6.5 5.3 7.5 5.3 1.6 0 0-2.3-2.7-4-3.5-2.1-4.8-2.5-4.8-1.3M370 816.5c-.7.8-2.2 1.5-3.4 1.5-2.7 0-4 .9-5.5 3.8-1.2 2.3-1.2 2.3-21.2 2-15.4-.2-19.9 0-19.9.9s2.3 1.3 7.8 1.4c4.2 0 13.3.3 20.1.5 10.9.5 12.7.8 13.9 2.5.8 1.2 2.5 1.9 4.3 1.9 1.7 0 3.7.7 4.6 1.5 1.8 1.9 5.2 1.1 7.2-1.7 1.2-1.8 2.5-1.9 15.8-1.7 13.2.2 14.7 0 15.6-1.6.8-1.4.5-2.2-1.1-3.5s-5.1-1.9-14.9-2.4c-12.6-.7-12.8-.7-15.3-3.6-2.7-3.3-6-3.9-8-1.5m6.6 2.2c1.7 2.2 1.8 9.5.2 11.1-.7.7-2 1.2-3.1 1.2-1.7 0-1.7-.2-.3-2.2.9-1.2 1.6-3.4 1.6-4.8s-.7-3.6-1.6-4.8c-1.4-2-1.4-2.2.2-2.2.9 0 2.3.8 3 1.7m-8.8 3.6c.7 3.3-.7 6.7-2.7 6.7-1.9 0-3.1-1.8-3.1-4.9 0-3.9 5.1-5.4 5.8-1.8m3.2-1.8c0 .3-.2.5-.5.5s-.5-.2-.5-.5.2-.5.5-.5.5.2.5.5m2 3.6c0 2.4-2.3 2.1-2.8-.4-.2-1 .3-1.7 1.2-1.7 1 0 1.6.9 1.6 2.1m13.8 1.1c.3 1.5-.4 1.8-3.2 1.8-3 0-3.6-.4-3.6-2.1s.5-2 3.2-1.7c2.2.2 3.4.9 3.6 2m2.9 1c-.3.7-.5.2-.5-1.2s.2-1.9.5-1.3c.2.7.2 1.9 0 2.5m3.8-1.3c.3.5.1 1.2-.5 1.6-.5.3-1-.1-1-.9 0-1.8.6-2.1 1.5-.7m2.2.8c-.4.3-.7 0-.7-.7s.3-1 .7-.7c.3.4.3 1 0 1.4m3 .5c-.3.8-.6.5-.6-.6-.1-1.1.2-1.7.5-1.3.3.3.4 1.2.1 1.9m3 0c-.3.8-.6.5-.6-.6-.1-1.1.2-1.7.5-1.3.3.3.4 1.2.1 1.9m3 .5c-.4.3-.7 0-.7-.7s.3-1 .7-.7c.3.4.3 1 0 1.4m3.3-.7c0 .5-.4 1-1 1-.5 0-1-.5-1-1 0-.6.5-1 1-1 .6 0 1 .4 1 1m-36.5 2c.3.5-.1 1-1 1s-1.3-.5-1-1c.3-.6.8-1 1-1s.7.4 1 1M428.5 817.5c-.3.8-.7 2.2-1 3.1-.7 2.1 1.2 4.4 3.1 3.7 1-.4 1.4.2 1.4 2.1 0 3.1-1.4 3.3-3.3.5-1-1.4-2.3-1.9-4.1-1.7-3.5.4-3.4 2.2.1 2.6 1.5.2 3.2 1.1 3.8 1.9s2 1.3 3.1 1.1c2.9-.5 2.7-7-.3-8.3-2.6-1.1-3.1-3.5-.9-3.5.8 0 2.7 1.1 4.2 2.3 2.7 2.4 2.7 2.4.9 9.8-.9 4.1-2.1 8.4-2.6 9.6-.8 2.3-.8 2.3-4.4.1-3.6-2.1-3.6-2.2-3.1-7.2l.6-5.1-1.8 5c-1.9 5-1.9 5 .7 7.3 1.4 1.2 3.4 2.5 4.4 2.8.9.3 1.7 1.4 1.7 2.4 0 2-7.6 25.7-8.9 27.9-.7 1-4.1 1.1-17.2.4-14.5-.8-19.4-.5-17.8 1.2.3.2 8.6.6 18.4.7l17.9.3 4.9-15.3 4.9-15.2h5.8c3.2 0 6.2-.5 6.5-1.1.4-.6 1.3-.8 2.1-.5 1.9.7 1.8-.8-.2-2.5-1-.8-1.3-2-.8-3.8.3-1.4 1.2-5.4 1.9-8.9 1.4-7.2 1.1-7.8-5.6-11.2-4.7-2.5-13.7-2.8-14.4-.5m13.5 2c2.5 1.4 2.5 1.4-1.1 1.5-2.1 0-4.2-.7-4.9-1.5-1-1.3-.9-1.5 1.1-1.5 1.3.1 3.5.7 4.9 1.5m5.6 6.2c-.4 1.6-1.1 5-1.6 7.7-1 5.3-2 7.2-2 3.8 0-2.5-1.4-3.5-3.9-2.7s-4.2 4.7-2.9 6.9c1.2 2.1.5 3.1-1.4 1.9-1.2-.7-1.1-2.1.6-9.3 1.2-4.7 2.5-9.1 2.9-9.8.5-.6 2.6-1.2 4.9-1.2 3.9 0 4 .1 3.4 2.7m-5.9 12.4c-.3 1.2 0 2.2.9 2.6 2.1.8 1.7 3.3-.6 3.3-1.1 0-2-.7-2-1.5s-.4-1.5-1-1.5c-1.4 0-1.3-2.3.2-3.8 1.9-1.9 3.1-1.4 2.5.9M402.4 817.9c.9 1.5 7.6 5.1 7.6 4.1 0-1.1-5.4-5-7-5-.6 0-.9.4-.6.9M242 819.5c-1.6 2-.3 5.5 2.2 5.5 1.1 0 1.8.5 1.5 1.2-.2.7-1.4 1.2-2.6 1.1-1.3-.2-2 .1-1.6.7.8 1.4 3.8 1.3 5.3-.2.7-.7 1.2-2.6 1.2-4.3 0-4.9-3.4-7.2-6-4m4 2.5c0 2.1-2.4 2.8-3.5 1-.8-1.4.3-3 2.1-3 .8 0 1.4.9 1.4 2M250.5 819.6c-.8.9-1.5 1.9-1.5 2.4 0 1.5 3.1 4 4.2 3.4.6-.4.9-.1.6.7s-1.3 1.3-2.2 1.3c-.9-.1-1.6.2-1.6.7s1.1.9 2.5.9c1.8 0 2.6-.7 3.1-2.5 1.4-5.5-1.9-10-5.1-6.9m3.3 2.7c.2 1-.3 1.7-1.2 1.7-1.8 0-2.9-1.6-2.1-3.1.9-1.4 2.9-.6 3.3 1.4M258 819c0 .5.9 1 2 1 2.1 0 2.5 1 1.2 2.5-1.4 1.7-3.2 6.5-2.4 6.5 1.1 0 5.2-9.1 4.6-10.2-.7-1.1-5.4-1-5.4.2M266.5 819.7c-2.1 2-1.5 4.6 1.3 5.8 3.1 1.4 2.8 2.9-.5 2-2.6-.6-2.7-.5-1.2 1 3.2 3.3 6.9-1.3 5.5-6.9-.8-3.1-3.1-4-5.1-1.9m3.5 2.8c0 .8-.7 1.5-1.5 1.5s-1.5-.7-1.5-1.5.7-1.5 1.5-1.5 1.5.7 1.5 1.5M275.3 818.7c-.7.2-1.3 1.7-1.3 3.3 0 2.3.3 2.7 2 2.3 1.6-.4 2 0 2 1.7 0 1.9-.4 2.1-2.7 1.6-2.6-.6-2.7-.5-.9.8 1.4 1.1 2.4 1.2 3.7.5 2.8-1.4 2.3-4.6-.8-6.3-2.7-1.4-2.7-1.7-.3-2 1.2-.1 1.5-2 .3-2.2-.4-.1-1.4 0-2 .3M287.2 820.2c-1.7 1.7-1.5 7.3.3 8.8 2.1 1.8 4.2.6 5-2.9 1.1-5.1-2.3-8.9-5.3-5.9m4.2 2.4c.6 1.7-.9 5.4-2.3 5.4-1.3 0-2.2-3-1.6-5.1.8-2.3 3.1-2.5 3.9-.3M295.4 820.2c-.5.7-1 3-1.1 5-.2 2.8.2 4 1.6 4.8 2.8 1.4 4.3-1 3.9-6.2-.3-4.4-2.7-6.4-4.4-3.6m3.6 1.8c0 .5-.7 1-1.5 1s-1.5-.5-1.5-1c0-.6.7-1 1.5-1s1.5.4 1.5 1m-.2 4.7c-.5 2.5-2.8 2.8-2.8.4 0-1.2.6-2.1 1.6-2.1.9 0 1.4.7 1.2 1.7M302.5 820c.3.5 1.3 1 2.2 1 1.1 0 1.4.6.8 2.2-1.8 5.9-1.3 6.8 1 1.9 1.4-2.9 2.5-5.5 2.5-5.7s-1.6-.4-3.6-.4c-2.1 0-3.3.4-2.9 1M311.2 820.2c-2 2-1.5 8.6.7 9.7 3.2 1.8 5.9-3.6 4.2-8.3-1.1-2.8-3-3.3-4.9-1.4m3.6 4.5c-.3 4.1-2.3 5.5-3.3 2.4-.9-2.8.3-6.1 2.1-6.1 1.1 0 1.4.9 1.2 3.7M658.3 825.4c-4.2 2.7-4.9 4.9-2.6 8.8 3.3 5.6 7 6.1 12.2 1.8 3.4-2.9 1.9-3.6-1.7-1-2.2 1.6-3.8 2.1-5.7 1.6-2.8-.7-5.1-4.6-4.2-7 .8-2 2.1-2 4.1-.1 2.2 2.3 3 1.8 1.3-.9-1.2-1.7-1.3-2.6-.5-3.4 2.1-2.1.3-2-2.9.2M281.5 826c.3.5 1 1 1.6 1 .5 0 .9-.5.9-1 0-.6-.7-1-1.6-1-.8 0-1.2.4-.9 1M412.5 826c-.4.6.8 1 2.9 1 2 0 3.6-.5 3.6-1 0-.6-1.3-1-2.9-1-1.7 0-3.3.4-3.6 1M679.2 828.8c-1.8 1.5-3.2 3.4-3.2 4.2.1 1.2.3 1.2 1.4-.3 1.7-2.2 3.4-2.2 3.2-.1 0 .9.5 1.9 1.3 2.2 1 .3 1.2 0 .7-1.3-.5-1.5-.4-1.6.9-.5 1.8 1.5 2 5.7.3 6.3-.7.2-1 .7-.7 1.1.7.7 9.3-4.7 10.4-6.5.9-1.4-.3-1.1-3 .7-2.5 1.6-4.5 1.2-4.5-1 0-.8-.7-1.9-1.5-2.6-.9-.7-1.4-1.9-1.1-2.6.9-2.5-.9-2.2-4.2.4M551.8 842.1c-2.7 1.5-2.2 4.6 1 5.7 2.7 1 2.7 1 .3 1.9-1.4.6-2 1.2-1.4 1.6 3.3 2 6.1-3.1 4.3-7.7-1-2.8-1.6-3-4.2-1.5m2.7 2.9c0 .7-.6 1.5-1.2 1.7-.8.3-1.3-.4-1.3-1.7s.5-2 1.3-1.8c.6.3 1.2 1.1 1.2 1.8M559 842.5c-1.8 2.1-.8 4.8 2 5.5 1.7.4 2.1.8 1.2 1.4-.6.4-1.6.4-2.2.1-.5-.3-1-.2-1 .4 0 1.5 1.6 2.2 3.4 1.5 2.2-.9 2.2-8.9 0-9.8-2.1-.8-2-.8-3.4.9m3.5 2.5c0 .7-.6 1.5-1.2 1.7-.8.3-1.3-.4-1.3-1.7s.5-2 1.3-1.8c.6.3 1.2 1.1 1.2 1.8M567.2 842.2c-1.9 1.9-1.4 4.9.8 5.5 2.4.6 2.7 2.3.3 2.3-1.2 0-1.4.3-.7 1 2.9 2.9 6.2-2.9 4-7.1-1.4-2.8-2.8-3.3-4.4-1.7m3.3 2.8c0 .7-.6 1.5-1.2 1.7-.8.3-1.3-.4-1.3-1.7s.5-2 1.3-1.8c.6.3 1.2 1.1 1.2 1.8M574.5 843.1c-.8 2.4-.1 3.4 2.3 3.4.9 0 1.7.7 1.7 1.5 0 1-.8 1.4-2.2 1.3-1.3-.2-2.3.2-2.3.7 0 .6 1.4 1 3 1 2.6 0 3-.4 3-2.6 0-1.7-.6-2.8-2-3.1-1.1-.3-2-.9-2-1.4s.9-.9 2-.9 2-.5 2-1c0-2-4.8-1.1-5.5 1.1M595.5 843.4c-1.5 2.3-1.3 4.7.8 7.4.8 1 1.5.9 3.4-.3 2.1-1.4 2.5-1.4 3.9 0 1.9 1.8 2.6 1.9 4.2.3 1.7-1.7 1.5-7.3-.3-8.8-2.1-1.7-4.5.3-4.6 3.9 0 1.4-.3 1.9-.6 1.1-2-6.3-4.3-7.5-6.8-3.6m4 3.2c0 1.9-.5 2.9-1.5 2.9-1.6 0-2.5-2.8-1.6-5.1 1-2.5 3.1-1 3.1 2.2m7.5-2.6c0 .5-.7 1-1.6 1-.8 0-1.2-.5-.9-1 .3-.6 1-1 1.6-1 .5 0 .9.4.9 1m.3 4.5c.1.5-.6 1.1-1.5 1.3-1.1.2-1.8-.3-1.8-1.3 0-1.7 3-1.8 3.3 0M611.6 842.5c-.9 2.5-.7 2.9.9 1.5 2.8-2.3 3.8.1 1.1 2.7-3.5 3.2-3.3 4.3.7 4.2 2.5-.1 2.7-.3.9-.6-2.4-.5-2.4-.5-.1-2.9 1.8-2 2.1-2.9 1.3-4.2-1.5-2.3-4-2.7-4.8-.7M619.6 842.6c-.9 2.3-.7 3.1.3 1.5.6-.8 1.6-1.1 2.7-.7 1.6.6 1.5.9-.9 3.2-3.6 3.3-3.4 4.4.6 4.3 2.3-.1 2.6-.3 1-.6-2.3-.4-2.3-.4-.2-3.2 2.2-3 1.7-6.1-1.1-6.1-1 0-2.1.7-2.4 1.6M583.7 842.6c-.8.8.3 6.6 1.4 7.8.5.6.9-1 .9-3.7 0-4.3-.7-5.6-2.3-4.1M452 846.5c1.4 1.7 7.1 4.7 7.8 4.1 1-1.1-5.3-5.6-7.9-5.6-.9 0-.8.4.1 1.5M464.2 847c-3.4 1.4-4.7 5.2-3.4 9.8 1 3.1 2.2 4.4 6.2 6.6 2.7 1.5 5 2.9 5 3 0 .2-2.6 2.3-5.7 4.6-11.6 8.5-21.7 24.9-24.9 40.4-1.4 6.9-1.4 8.8-.3 13.5 2.2 9.6 4.1 11.5 16.9 17.9 8.8 4.4 11.6 6.2 11.8 7.9.4 2.7 2.1 4.2 6.7 5.7l3.6 1.3-5.6 5.7c-5.9 6.2-6.3 7.1-3.9 8 1.2.5 1.5 1.4 1 3.6-.6 3.2 1 4.2 2.1 1.2 2.1-6.1 7.5-16.5 9.7-18.7 3.8-3.8 7.3-3.2 21.5 3.5 7 3.3 13.2 6 13.9 6s1.2.4 1.2.9.9 1.1 2.1 1.4c2.1.6 5.4-1.9 7.5-5.5 1.5-2.5 9.8-5.9 13.2-5.2 2.4.5 3.3.1 5.1-2.1 1.7-2.2 2.1-4.1 2.1-9.7 0-7.1 1-10.1 4.1-12.9 3.9-3.4 4.2-7.5 1-12.9-.5-.8-1.5-3.4-2.2-5.8-.7-2.3-1.8-4.7-2.6-5.3-1.9-1.6-1.6-3.9.6-3.9 1 0 4-2.4 6.7-5.3s6.5-6.5 8.4-8.1 6.2-5.4 9.6-8.5c3.3-3.1 7.9-7.3 10.2-9.4 4.2-3.7 4.2-3.9 4.2-10.7 0-3.8-.4-7.2-1-7.5-.6-.4-1 2.1-1 6.8 0 6.8-.2 7.5-2.7 9.7-1.6 1.3-7.4 6.6-13 11.7-5.7 5.1-10.6 9.3-11 9.3-.3 0-1.5-.7-2.4-1.6-1.6-1.4-2.3-1.5-4.9-.4-3.9 1.6-8 6.9-8 10.3 0 3.2-.3 3.3-3.8.8-1.5-1-4.8-3-7.4-4.5-3.6-2-4.8-3.3-4.8-5.1 0-1.7.6-2.5 2.3-2.7 1.9-.3 1.7-.7-2.1-3.1-4.5-2.9-7.2-2.8-3.7.1 1.2 1.1 1.9 2.6 1.7 4-.3 2-.8 2.3-2.8 1.8-1.3-.4-4.9-.3-7.9 0-4.9.6-5.4.9-4.2 2.1s2.1 1.3 5.6.2c4-1.2 4.5-1.1 11.4 2.6 8.8 4.6 9.6 5.3 7.1 6-10.8 3.5-20.2 11.9-26.3 23.5-1.9 3.6-3.5 6.7-3.7 6.9s-2.5-.3-5.3-1c-3.9-1-5.3-1.9-6-3.8-.5-1.4-2-4.1-3.1-5.9-2.2-3.2-2.2-3.2-.1-3.2 1.2 0 2.4.7 2.7 1.5.8 1.9 2.4 1.9 2.4 0 0-.8-1.2-2.2-2.6-3.2-2.5-1.6-2.8-1.6-6.2.3-3.2 1.7-10.9 12.4-11.3 15.7-.5 4.1.5 6.3 4.3 9.8 5.3 4.8 7.9 4.9 13.2.6 3.5-2.9 4.5-3.2 7.1-2.6 2.9.8 3.1 1.1 3.2 6.3.1 3 .7 6.4 1.3 7.6s1 2.4.7 2.6c-.2.2-4.2-1.4-8.9-3.6-8.4-4.1-8.4-4.1-12.9-2.4-2.9 1.1-5.7 1.5-8 1-6.6-1.2-6.4-.6-6.4-21.6 0-10.4.1-19 .3-19s2.3.5 4.7 1.1c3.6.9 4.9.8 7.6-.5 1.8-.9 4.2-1.3 5.5-1 1.5.4 2.4.2 2.4-.5 0-.6-.4-1.1-.9-1.1-.7 0-4.4-5.2-5.9-8.2-.5-1.1 6.8-8.7 11.6-12 3.1-2.2 5.6-3 9-3.1 4.7-.2 5 .1 3.6 3.8-.7 1.8-.6 1.8.9.6.9-.7 1.7-2 1.7-2.8 0-1.1.6-1.3 2.3-.8 1.2.4 3.6.9 5.3 1.2 3.2.5 3.2.5 3-4.1-.1-4 .1-4.5 1.9-4.1 1.1.2 2.3.4 2.8.4.4.1.7.9.7 1.8 0 1.3.3 1.4 1.1.6 1.6-1.6-4.8-9.2-8.3-10-5.7-1.2-2.3-3.4 3.9-2.6 3.4.4 4.3.2 5.7-1.8 1.4-2.1 1.4-2.5.1-3.8-.8-.8-3.6-1.8-6.2-2.1-2.5-.3-4.8-1-5-1.7-.3-.9.9-1.1 4.7-.6 3.8.4 5.4.2 6-.8.7-1.1 1.3-1.1 3.4.1 5.2 2.7 2.2 11.3-4.5 12.7-3.6.7-3.8 2.3-.3 2.3 1.6 0 3.9-1.3 6.1-3.5 2.9-2.9 3.4-4 3.1-7.1-.4-4.3-3.6-7.3-8.7-7.9-6.4-.8-31.7-2.8-37.8-3-5.1-.2-6.7-.7-9.4-2.9-6.8-5.8-12.6-7.6-17.7-5.6m8.2 3.2c1.9 1.3 3.5 2.7 3.6 3.2 0 1.7-4.1 9.6-5.1 9.6-1.1 0-4.8-2-7.1-3.9-2.6-2.1-2.3-7.6.4-9.5 3-2.1 4-2 8.2.6m15.1 9.7c1.1-1.6 12.1-.5 14.3 1.4.9.8 4.6 1.8 8.1 2.1 6.1.6 9.1 1.8 9.1 3.7 0 .4-.5 2-1.2 3.6-.6 1.5-1.3 5.6-1.4 9.1-.3 6-.1 6.3 2.3 7.3 3.9 1.4 2 2.3-2.1.9-3.8-1.2-4.4-2.7-2.5-6.2 1-1.8.8-2.5-.9-3.9-1.9-1.5-2-1.8-.6-3 3.7-3 4-7.1.6-8.4-.9-.4-4.6-.9-8.2-1.1-3.6-.3-8.9-.9-11.8-1.4-8.5-1.5-13 1.6-9.7 6.6 1.6 2.4 2.3 2.6 13.5 2.9 3.3.1 5.7 1 12.7 4.8 3 1.6 3.1 1.8 2 4.7-.7 1.7-1.9 3-2.9 3-2.6 0-3.1-1.8-.8-3.2 1.8-1.2 2.8-3.8 1.4-3.8-1.2 0-5.4 5.1-5.4 6.6 0 .7-.7 1.4-1.5 1.4-1.9 0-4.8 1.6-9.6 5.2-2 1.6-3.9 2.8-4.1 2.8s-.2-3.6 0-7.9c.4-7.4.3-8-1.9-9.5-1.3-.8-4.3-1.8-6.6-2.2-4.2-.6-4.3-.8-4.3-4.5 0-2-.7-4.4-1.5-5.3-1.4-1.4-1.3-2 1.1-6.5l2.7-5 4.3 3.5c2.9 2.4 4.4 3.1 4.9 2.3m2.9 7.6c.4 1.2-.3 1.5-2.9 1.5-3.3 0-4.3-.8-2.8-2.3 1.2-1.3 5.1-.7 5.7.8m-16.7 3.2c-.3 1-.5.4-.5-1.2 0-1.7.2-2.4.5-1.8.2.7.2 2.1 0 3m24.3-1.2c0 1.4-.4 2.5-1 2.5-.5 0-1-.9-1-1.9 0-1.1-.6-2.2-1.2-2.4-.7-.3-.3-.6 1-.6 1.7-.1 2.2.5 2.2 2.4m30.7.2c-.4.3-1 .3-1.4 0-.3-.4 0-.7.7-.7s1 .3.7.7m-61.8 7.2c-5.5 4.9-11.6 12.7-10.7 13.6.3.3 2.3-1.6 4.4-4.2 5.3-6.6 10.6-11.2 12.7-11.3 2.5 0 2.1.9-2 4.9-5.7 5.5-10.3 11.2-10.3 12.8 0 .8 2.2-1.3 5-4.6 6-7.2 11.4-11.5 13.5-10.7 2.4.9 1.8 1.9-3.3 5.9-2.6 2.1-5.6 5.1-6.7 6.8-1.1 1.6-2.3 2.9-2.7 2.9-.5 0-.8.7-.8 1.6 0 .8 3.2-1.8 7.3-6s8.1-7.6 9-7.6c2.5 0 2.1 1.4-1.1 4.1-6.3 5.4-12.4 15.1-16.9 26.7-3.3 8.5-3.8 23.7-1 28.9 1.7 3.3 1.7 3.3-.5 2.4-6.6-2.6-14.9-7.4-16.7-9.6-8.9-11.5-1.9-38.6 14.2-54.7 6.3-6.4 9.9-9 11.1-7.8.7.7-.9 2.7-4.5 5.9m34.1-6.4c0 .3-.2.5-.5.5s-.5-.2-.5-.5.2-.5.5-.5.5.2.5.5m7.5 3.5c-.3.5-1.1 1-1.6 1-.6 0-.7-.5-.4-1 .3-.6 1.1-1 1.6-1 .6 0 .7.4.4 1m13.8 4.5c-.4 1.5-3.6 1.2-4.1-.3-.3-.9.3-1.3 1.9-1 1.3.1 2.3.7 2.2 1.3m-35.8 13.3c-.4 3-.9 5.1-1.2 4.8-.8-.8-.3-13.8.5-15.1 1.1-1.6 1.5 4.3.7 10.3m33-7.8c.3.5.1 1-.4 1-.6 0-1.1-.5-1.1-1 0-.6.2-1 .4-1 .3 0 .8.4 1.1 1m-36.5 6.7c0 4.6-.5 5.2-5.5 8-4.5 2.4-8.5 8.6-11.2 17.3-.9 3.1-1.8 4.7-2.1 3.8-.6-3 7.7-22.4 10.7-24.8.3-.3 1.9-2.2 3.4-4.3 1.5-2 3.2-3.7 3.8-3.7.5 0 .9 1.7.9 3.7m75 5.2c0 1.1-.4 2.3-1 2.6-.6.4-1-.5-1-1.9s.5-2.6 1-2.6c.6 0 1 .9 1 1.9m-4 2.6c0 .8-.7 1.5-1.5 1.5-1.6 0-2-1.2-.8-2.3 1.1-1.2 2.3-.8 2.3.8m-71.8 1.1c-1.2.8-2.8 1.3-3.5 1.1-.7-.3-.1-.9 1.3-1.5 3.7-1.6 4.7-1.4 2.2.4m68.4 4.2c-.9.8-2.6-1-2.6-2.6.1-1.5.2-1.5 1.5.2.8 1.1 1.3 2.1 1.1 2.4m-66.6-2.3c0 .3-.2.5-.5.5s-.5-.2-.5-.5.2-.5.5-.5.5.2.5.5m-2 3c0 1.6-4.5 2.1-5.4.6-.8-1.2.4-2.1 3.1-2.1 1.4 0 2.3.6 2.3 1.5m60.2 2.6c2 1.1 2 1.1 0 3.2-1.1 1.2-2.4 3.4-2.7 4.9-.6 2.4-5.5 6.5-9.6 8-.9.4-3.5-.4-5.8-1.7-4-2.3-5.6-2-2.6.5 1.4 1.2 1.4 1.5-.2 3.2-1 1.2-1.8 4.1-2.1 7.8-.5 6.6-1.3 7.2-6.5 4.7-3.4-1.5-3.4-2.9 0-9.6 4.9-9.5 14.9-18.6 23.3-21.2 3.5-1 3.9-1 6.2.2m-67.9 1.1c.4 1 .8 1 1.4.1 1-1.4 6.3-.5 6.3 1.1 0 .6.7.2 1.6-.9 1.3-1.7 1.6-1.8 2.4-.5.5.8 1 1.8 1 2.2 0 1.4-4 2.8-8.2 2.8-5.1 0-8.4-1.9-7.5-4.4.8-1.9 2.3-2.1 3-.4m73.7 6.9c0 5.2 1.3 7.4 5 8.7 3.8 1.4 3.9 4.1.2 8.4-4.1 4.9-5.2 8.1-5.2 15.6 0 6.8-1 9.2-3.8 9.2-1 0-1.2-.5-.6-1.8 1.4-2.9.4-32.4-1.2-34.7-2.5-3.5-1.2-8.4 2.6-9.7 2.4-.8 3 0 3 4.3m-80.1 2.9c-1.1 3-1.8 4.1-1.5 2.5.6-3.6 2.5-8.9 3.1-8.4.2.2-.5 2.9-1.6 5.9m84.1-.7c0 1-.4 1.5-1 1.2-.5-.3-1-1.8-1-3.3 0-2.1.2-2.4 1-1.2.5.8 1 2.3 1 3.3m-82.3 11.8c-.3 5.6-.8 10.3-1 10.5-.9.9-1.6-8.7-1.1-13.4.7-5.6 1.1-7.2 2-7.2.4 0 .4 4.5.1 10.1m72.6 6.9c.4 8 .5 15.4.2 16.6-.3 1.3-2.8 3.3-7 5.4-4 2-7.3 4.5-8.3 6.2-2.3 3.9-5.6 3.5-6-.7-.5-6.3-1.3-9.5-2.2-9-.6.3-.5 1.6 0 3.1 1.3 3.3 1.3 7.4 0 7.4-3 0-8-3.2-9.5-6-2-3.9-3.1-12.5-1.7-13.4 1.3-.8 8 2.8 11 6 2.8 2.9 3.6 3 6.2.4 3.6-3.6 2.3-8.3-2.5-9.2-1.7-.3-2-1.2-2.2-6.8-.2-8.4 1.5-11.4 6-10.6 2.3.4 4.3-.2 7.2-1.9 7.5-4.5 7.9-4 8.8 12.5m-78.6-10.8c-.3.8-.6.5-.6-.6-.1-1.1.2-1.7.5-1.3.3.3.4 1.2.1 1.9m28.1.5c3.9 5.7 3.6 9-.4 5.2-1.3-1.2-3.4-2.2-4.8-2.2-2.9 0-3.2-.8-1.4-3.7 1.8-2.8 4.3-2.5 6.6.7m-26.1 1c-.4.3-.7 0-.7-.7s.3-1 .7-.7c.3.4.3 1 0 1.4m1.7 15.3c.5 2.1.4 2-.8-.5-.9-1.7-1.5-5.5-1.4-8.5l.1-5.5.7 6c.4 3.3 1 7.1 1.4 8.5m22.8-9.8c.2.7.1 3.1-.2 5.3-.5 3.6-.6 3.8-1.7 2-1.2-2-1.4-1.8-1.7 1.9-.2 2.9-2.3 3-5.1.2-2.6-2.6-3.1-5.1-1.6-7.5.8-1.2 1.3-1.2 3.5.3 2.3 1.4 2.6 1.4 2.6.1 0-.8-.4-1.5-1-1.5-.5 0-1-.5-1-1 0-1.5 5.7-1.2 6.2.2m12 3.9c5.6 1.2 17.8 6.7 17.8 8.1 0 .4.7.8 1.5.8 1.7 0 1.8.2.9 2.4-.3.9-1.1 1.3-1.8.9-.6-.4-1.5-.8-2.1-.8-.5-.1-3.9-1.5-7.5-3.2-3.6-1.6-9.3-3.6-12.7-4.4-4.9-1-6.3-1.7-6.3-3.1 0-2.1 2.5-2.3 10.2-.7m-8.2 5.7c0 1.6-4.1 5.2-6 5.2-2.9 0-2.4-1.2 1.3-3.7 3.5-2.4 4.7-2.7 4.7-1.5m28 8.7c0 .3-.2.5-.5.5s-.5-.2-.5-.5.2-.5.5-.5.5.2.5.5"/><path d="M465.3 850.7c-1.8.6-1.6 4.8.3 6.3 1.2 1.1 1.8 1.1 3.1-.2 2.6-2.7 0-7.3-3.4-6.1m2.7 2.8c0 .3-.2.5-.5.5s-.5-.2-.5-.5.2-.5.5-.5.5.2.5.5M590.5 848c.4.6 1.1.8 1.6.5 1.4-.9 1.1-1.5-.7-1.5-.8 0-1.2.5-.9 1M295.5 862.2c-.3.8-.4 6.3-.3 12.4l.3 10.9 10.5.5c5.8.3 25.6.5 44 .5h33.5l.3-12.2.3-12.1-6.8-.4c-3.7-.2-23.6-.5-44.1-.6-30.9-.3-37.3-.1-37.7 1m84.3 2.4c.9.3 1.2 2.8 1 10.1l-.3 9.8-15.5-.2c-8.5-.1-27.1-.2-41.2-.2L298 884v-9.8c0-5.4.3-10.2.6-10.5.7-.7 79 .2 81.2.9"/><path d="M306.9 865c-.1.3-.2 4.2-.3 8.8-.1 6.7.1 8.2 1.3 8 1.1-.2 1.4-1.9 1.2-7.8-.1-4.1-.7-7.9-1.2-8.5-.5-.5-1-.7-1-.5M316 866.5c-.7.8-1 2.7-.7 4.2s0 3.4-.6 4.4c-1.5 2.4.6 6.9 3.2 6.9 2.8 0 3.9-2.6 3.6-8.5-.3-7.9-2.5-10.7-5.5-7m3.7 2.1c.8 2-1.3 4.2-2.7 2.8-1.2-1.2-.3-4.4 1.1-4.4.5 0 1.2.7 1.6 1.6m.1 8.2c.3 1.7-.2 2.2-1.7 2.2q-2.1 0-2.1-1.8c0-3.8 3.3-4.1 3.8-.4M337.6 866.5c-.9 2.5-.8 2.7 1.4 2 2.5-.8 2.7 1.1.4 3.7-1.6 1.6-1.6 1.8 0 2.4 1.7.7 2.2 3.9.7 4.9-.6.3-1.4-.3-2-1.2-1.4-2.5-2.5-.9-1.1 1.6 1.4 2.8 3.8 2.7 4.9-.2 1.4-3.6-.1-14.1-2-14.5-.9-.2-1.9.4-2.3 1.3M348.6 867.2c-3 4.2-1.6 14.8 1.9 14.8 1.6 0 2-.5 2.9-4.3.5-2.1.1-3.3-1.9-5.3-3-3-3.2-4.8-.5-3.9 2.2.7 2.3.5 1.4-1.9-.8-2.2-2-2-3.8.6m3.4 9.2c0 3.1-1.4 4-3 2.1-1.5-1.8-.6-4.5 1.5-4.5.9 0 1.5.9 1.5 2.4M359 866.5c-1 1.2-1 1.9-.2 2.7.9.9 1.2.9 1.2 0 0-.7.5-1.2 1-1.2.6 0 1 .9 1 2s-.4 2-1 2c-.5 0-1 .7-1 1.5s.5 1.5 1 1.5c.6 0 1 1.1 1 2.5s-.4 2.5-1 2.5c-.5 0-1-.7-1-1.5s-.4-1.5-1-1.5c-1.3 0-1.3 3.7 0 4.5.6.3 1.9.3 3 0 1.7-.5 1.9-1.5 1.8-7.3-.2-8.5-1.9-11.2-4.8-7.7M325 874c0 .5 1.6 1 3.5 1s3.5-.5 3.5-1c0-.6-1.6-1-3.5-1s-3.5.4-3.5 1M647.5 887.2c-1.6 1.2-3.3 2.7-3.8 3.3-1.1 1.5.2 5.7 2.5 8.2 2.2 2.3 5.8 3.1 5.8 1.3 0-.6-.9-1-1.9-1-2.2 0-5.1-3.5-5.1-6.2 0-1 1.6-2.8 3.5-4 1.9-1.3 3.5-2.6 3.5-3.1 0-1.2-1.3-.7-4.5 1.5M535 891.8c0 .8 7.1 5.2 8.4 5.2 1.7 0 .2-2-3-3.9-3.7-2.2-5.4-2.6-5.4-1.3"/><path d="M647 894.4c0 .8.7 1.6 1.5 2 1 .4 1.5-.1 1.5-1.4 0-1.1-.7-2-1.5-2s-1.5.6-1.5 1.4M676.3 901.8c-6.7 4-7.6 5.2-4 5.2 3 0 5.5 2.7 6.3 6.8.6 2.9.4 3.2-1.8 3.2-1.3 0-2.9-.5-3.6-1.2-.8-.8-1.2-.8-1.2-.1 0 1.8 2.8 3.5 5.2 3.1 3.6-.5 3.7-6.5.3-10.6-3-3.6-2.8-4.3 2-6.6 1.9-.9 3.5-2.1 3.5-2.6 0-1.3.4-1.5-6.7 2.8M559.1 904.9c-1.3 2.4.1 4.2 5.9 7.3 2.5 1.4 6.3 3.5 8.5 4.8 2.2 1.2 5.6 3.1 7.7 4.2 2.8 1.6 3.7 2.8 4.2 5.7.8 4.8.6 46.1-.3 58.4-.6 8.8-.1 12.2 1.2 10 .3-.5.8-13.4 1.1-28.8.4-15.4.9-29.7 1.3-31.8.6-4.2.3-4.2 8.6-2.1 3.4.8 6.3-1.5 7.3-5.8.5-2.6.1-3.6-2.7-6.3-1.9-1.8-4-4-4.7-4.9-1.6-2-4.6-2-6.7 0-1.4 1.5-2.2 1.2-9.8-2.7-4.5-2.3-10.4-5.5-13-7.1-5.6-3.3-7.3-3.5-8.6-.9M570 910c0 .5-.4 1-1 1-.5 0-1-.5-1-1 0-.6.5-1 1-1 .6 0 1 .4 1 1m2 2c0 .5-.5 1-1.1 1-.5 0-.7-.5-.4-1 .3-.6.8-1 1.1-1 .2 0 .4.4.4 1m3 1.5c0 .3-.2.5-.5.5s-.5-.2-.5-.5.2-.5.5-.5.5.2.5.5m7.3 2.2c3.8 2.1 4.9 3.5 3.8 4.6-1.4 1.4-10.5-3.8-9.5-5.4.8-1.3 2.2-1.1 5.7.8M596 917c0 .5-.4 1-.8 1-2.4 0-5.6 4.3-5.6 7.5 0 2.4-.5 3.5-1.4 3.5-2.5 0-.8-8.1 2.3-10.7 2.7-2.4 5.5-3 5.5-1.3m1.7 3.7c-.4.3-1 .3-1.4 0-.3-.4 0-.7.7-.7s1 .3.7.7m-1.2 2.3c.3.5.4 1.4.1 1.9-.9 1.3-4.6.1-4.6-1.5s3.6-1.9 4.5-.4m6.5 2.1c0 3.2-1.9 5.9-4 5.9-2.4 0-2.6-2.7-.4-5.8 1.9-2.8 4.4-2.9 4.4-.1m-8.5 2.9c.3.5-.1 1-.9 1-.9 0-1.6-.5-1.6-1 0-.6.4-1 .9-1 .6 0 1.3.4 1.6 1M650.1 906.5c-.1 3.1-.8 4.7-3.8 7.7-2 2.1-3.3 4.1-2.9 4.5s1.2 0 1.7-1c.6-.9 1.7-1.7 2.4-1.7 1.8 0 1.9 1.2.4 2.7-.9.9-.8 1.6.4 2.7 1.4 1.5 1.7 1.5 2.6-.1 1-1.7 1-1.7 1.1-.1 0 1 .5 1.8 1 1.8 1.5 0 1.2-1.1-1-4.8-1.8-2.9-1.9-3.8-.9-6.6.9-2.4.9-4.1.1-6.2-1-2.9-1-2.9-1.1 1.1M698 913.4c-7.5 4.6-8.5 5.5-8.8 8.4-.3 2.5.3 3.9 2.7 6.2 1.6 1.7 3.5 3 4.3 3 1.7 0 16.1-8 15.5-8.6-.4-.4-7.8 2.6-14 5.8-1.3.6-2.4.5-3.5-.4-4.9-3.8-5.4-7-1.4-9.5 1.5-.9 4.6-2.8 6.8-4.2 2.3-1.4 5-3.1 6-3.7 1.1-.7 1.7-1.4 1.4-1.7s-4.3 1.8-9 4.7"/><path d="M672.6 910.9c-.3.4.3 1.6 1.4 2.6 1.9 1.8 2 1.7 2-.8 0-2.6-2.2-3.8-3.4-1.8M693.6 922.7c-1.1 1.1-.7 2 .9 2 .8 0 1.5-.4 1.5-.8 0-1.1-1.6-2-2.4-1.2M672 925.4c0 .8-.9 3-2 4.8-1.3 2.3-1.6 3.8-1 4.8.8 1.2 1 1 1-.8 0-3.3 2.7-3.8 5.6-1.2 1.6 1.6 2.4 3.4 2.4 5.9.1 3.1.2 3.3 1.1 1.7 1.4-2.2-1.5-9.2-4.4-10.7-1.2-.7-1.7-1.8-1.4-3 .3-1 .1-2.2-.4-2.5s-.9.2-.9 1M642.1 935.3c-.1 2.1.3 6.8.8 10.5s1.5 10.7 2.2 15.7c2.7 20.3 5.2 23.2 34.4 40.5 12.4 7.3 18.6 10.5 23.1 12 2.2.7 4.4 1.6 4.9 2 .6.4 3.7 1.7 7 3 3.3 1.2 7.4 2.8 9 3.5 3.3 1.5 20.1 7.6 25.5 9.4 5.6 1.9 17 2.5 21.8 1.2 3.9-1.1 4.7-1 9.3 1.5 5.1 2.8 5.4 3.3 6.3 11.3.6 6 3.1 9 9.4 11.3 8.1 3 9.2 5.8 6.7 16.8-.3 1.4.1 1 .9-1 2.5-6 2-9.8-1.7-13.5-1.9-1.9-4.7-3.7-6.3-4.1-4.3-1-7.4-4.3-7.4-7.8 0-1.6-.5-5.6-1.2-8.8-1.2-5.8-1.2-5.8 4.4-17.5 6.1-12.7 11.9-28.8 11.7-32.5-.1-2.1-.2-2.1-.6-.3-1.9 8-7.4 22.5-11.4 30.4-2.7 5.2-5.2 10.9-5.5 12.8-.3 1.8-1.1 3.3-1.8 3.3-.6 0-3.2-1.4-5.8-3-3.6-2.2-4.9-3.8-5.7-6.7-1.5-5.2-1.4-8.3.4-11.7.9-1.6 1.3-3.1 1.1-3.3-.3-.3-1.2.9-2 2.6-1.8 3.3-2.2 12.6-.6 13.6 1.4.9 1.2 4.5-.2 5-3.4 1.2-12 1.2-16.9 0-8.9-2.1-30.5-10.1-43.7-16.1-2.9-1.3-5.6-2.4-6.1-2.4-3.2 0-40.2-21.2-47.4-27.1-7-5.8-9.3-13.1-11.8-36.9-.6-6.3-1.5-12.9-1.9-14.5-.8-3-.8-3-.9.8"/><path d="M673 936.4c0 .8.7 1.6 1.5 2 1 .4 1.5-.1 1.5-1.4 0-1.1-.7-2-1.5-2s-1.5.6-1.5 1.4M693.3 940.4c-.7.8-1.6 1.6-2.1 1.7-.5.2-1.3 1.5-1.7 2.9-.7 2.5-.7 2.5 1 .2.9-1.2 2-2.2 2.5-2.2 1.9 0 5 4.5 5 7.2 0 1.5.5 2.8 1 2.8 1.8 0 1-4.5-1.3-8-1.3-1.9-2.2-4.1-2-4.8.6-1.6-.9-1.5-2.4.2"/><path d="M692 947.6c0 .3.7 1.2 1.5 2 1.3 1.4 1.5 1.3 1.5-.5 0-1.2-.6-2.1-1.5-2.1-.8 0-1.5.3-1.5.6M687 948.5c0 .5 20.6 14.5 21.4 14.5.3 0 5.1 3.1 10.8 6.8 5.7 3.8 13.3 8.7 16.8 10.9 3.6 2.2 10.6 6.5 15.7 9.6 5 3.2 9.5 5.7 10 5.7.8 0-7.4-5.4-22.7-14.9-10.2-6.4-16.3-10.4-17-11.2-.3-.3-3.4-2.3-7-4.5-9.9-6-13-7.9-22.7-14.6-4-2.7-5.3-3.3-5.3-2.3M467.9 983.7c-1.5 4-.4 5.2 1.4 1.6 2-3.7 2.1-4.3.7-4.3-.6 0-1.5 1.2-2.1 2.7M314.2 988.2c-1.3 1.3-1.6 3.8-.5 3.8.3 0 1.4-.7 2.3-1.5 1.5-1.4 1.9-1.4 3.1.1 1.1 1.4 1 1.9-.9 3.4-2.2 1.8-2.2 1.9-.2 2.5 1.1.4 2 1.5 2 2.6 0 2.6-3 3.7-4.5 1.6-1.3-1.8-3.5-2.3-3.5-.9 0 .5 1.1 1.9 2.5 3.2 2.2 2.1 2.8 2.2 5 1s2.4-1.9 2.3-7.9c0-3.6-.5-7.2-1-7.9-1.3-1.5-5-1.6-6.6 0M325.8 989.4c-1.3 3-.2 5 1.3 2.3 1.2-2.1 3.8-2.2 4.5-.2.4.9-1 3.3-3.5 6-2.3 2.5-3.9 5-3.6 5.5.3.6 2.6 1 5.1 1 3.2 0 4.4-.4 4.4-1.5 0-1-1-1.5-3.2-1.5-3.3-.1-3.3-.1-.7-2.4 4.1-3.5 5-5.8 3.6-8.7-1.8-3.5-6.3-3.8-7.9-.5M340.7 990.2c-5.6 7.5-6.1 10.8-1.8 10.8 2.1 0 3 .6 3.5 2.2.4 1.8.8 2 1.8 1 1.4-1.4 1.3-15.1-.1-16.5-.5-.5-2 .6-3.4 2.5m1.3 5.3c0 1.6-.6 2.5-1.5 2.5-1.6 0-1.9-.9-.9-3.4.9-2.5 2.4-1.9 2.4.9M350 989c-1.4 1.4-2 3.3-2 6.8 0 7.8 4.4 11.7 8.3 7.4 2.4-2.7 2.3-12.3-.1-14.5s-3.8-2.1-6.2.3m4.8 2.2c1.3 1.3 1.6 6.6.6 9.2-.7 1.9-4 2.1-4.7.3-.4-1.2.1-7 .9-9.5.4-1.5 1.7-1.5 3.2 0M287.5 990.4c-3.8 1.2-4 1.5-4 5.1 0 4.1.1 4.2 7.8 5.2 3.5.5 3.9.3 5-2.6.8-2.2 1.8-3.1 3.4-3.1 4.6 0 3.7-3-1.6-4.8-4-1.4-5.3-1.4-10.6.2m11.3 1.5c1.1.6.9.9-.6 1.3-1.2.3-2.2 1.6-2.4 2.9-.2 1.8-1 2.5-3.4 2.7-3.9.4-8.4-1.3-8.4-3.3 0-3 11.3-5.8 14.8-3.6M363.9 992.6c-.6 1.6-1.5 4-1.9 5.4s-1.1 3.4-1.6 4.4c-.5 1.2-.4 1.7.3 1.3 1.3-.8 5.7-12.7 4.9-13.4-.3-.3-1.1.7-1.7 2.3M368.2 991.2c-.7.7-1.2 1.9-1.1 2.7q0 1.65.6.3c.6-1.4 5.3-1.6 5.3-.2 0 .6-.7 1.3-1.5 1.6-.8.4-1.5 1-1.5 1.5s.7.9 1.5.9c2 0 1.9 2.9 0 3.6-.8.4-2.2.1-3-.6-2-1.7-3.2-.5-1.5 1.5 1.6 2 5.7 1.9 6.8-.1 1.2-2.1.3-10.7-1.2-11.6-1.6-1.1-3-1-4.4.4M378.6 991.2c-.9.5-1.6 1.7-1.5 2.6 0 1 .3 1.2.6.4.6-1.6 5.3-1.6 5.3.1 0 .7-1.3 2.3-3 3.5-4.2 3.1-4 5.9.5 6.4 2.4.3 3.5 0 3.5-.9 0-.7-1.1-1.3-2.5-1.3-3.2 0-3.1-.6.4-3.9 2.1-2 2.8-3.4 2.5-4.9-.7-2.4-3.4-3.3-5.8-2M393.6 993.2c-2.2 3-2 7.1.3 9.9 1.6 2 2.3 2.2 3.8 1.3 1-.6 1.9-2.5 2.1-4.2.2-2.3-.2-3.2-1.7-3.7-1.2-.3-2.6-.3-3.2.1-.7.4-.9-.1-.7-1.2.3-1.4 1.2-1.8 3.2-1.7 1.7.1 2.6-.2 2.3-1-.7-2.2-4.4-1.9-6.1.5m4.8 8.1c-.3.9-1.3 1.7-2 1.7-2.1 0-2.9-2.7-1.3-4.6 1-1.3 1.4-1.3 2.6-.1.8.7 1.1 2.1.7 3M403.6 993.2c-2.2 3-2 7.1.3 9.9 2.9 3.6 5.5 1.6 5.9-4.5.5-7.1-3-10-6.2-5.4m5 2.3c.9 3.8-.3 7.7-2.4 7.3-1.7-.3-2.9-5.6-1.8-8.4.9-2.3 3.5-1.6 4.2 1.1M413.6 993.2c-4 5.6.7 15.1 5.2 10.6 1.9-1.9 1.5-9.2-.6-11.1-2.4-2.2-2.8-2.1-4.6.5m5 3.2c.8 3.5-.4 6.6-2.7 6.6-1.6 0-1.9-.7-1.9-4.5s.3-4.5 2-4.5c1.2 0 2.2.9 2.6 2.4M462.8 994c-1.5 2.6-2.2 3-6.3 3-2.5 0-4.5.4-4.5 1 0 .5 2.5 1 5.5 1 5.3 0 5.5-.1 7-3.6 1.7-4.2 1.8-4.4.8-4.4-.5 0-1.6 1.4-2.5 3M386.5 998c-.3.6.1 1.3 1 1.6 1.9.8 3 0 2-1.5-.8-1.4-2.2-1.4-3-.1M430 998c0 .5.9 1 1.9 1 1.1 0 2.3-.5 2.6-1 .4-.6-.5-1-1.9-1s-2.6.4-2.6 1M438 998c0 .5 2.2 1 4.9 1 2.8 0 5.3-.5 5.6-1 .4-.6-1.5-1-4.9-1-3.1 0-5.6.4-5.6 1M545.5 999c-1.7 1.9-1.7 2.1 0 4 1 1.1 2.4 2 3.2 2s1.1.5.8 1c-.4.6-1.6.8-2.8.4-1.7-.5-1.9-.3-1.1.6.7.6 2 1 3 .8 2.8-.5 3.3-8.3.6-9.7-1.5-.8-2.3-.6-3.7.9m4.5 2.6c0 .8-.9 1.4-2 1.4-1.9 0-2.7-1.9-1.4-3.3 1-.9 3.4.4 3.4 1.9M553.6 999.2c-1.6 2.2-1.5 2.4.8 4.4 2.6 2.3 2.5 3.7-.2 2.7-1-.4-1.3-.2-.8.5 1.3 2.1 4.2 1.3 5.5-1.4.9-2 .8-3.1-.1-5.2-1.7-3.5-3.3-3.8-5.2-1m4.4 2.4c0 .8-.9 1.4-2 1.4-1.9 0-2.7-1.9-1.4-3.3 1-.9 3.4.4 3.4 1.9M561.5 998c-.3.5.2 1 1.3 1 2.8 0 3.3 1 1.7 3.4-.8 1.1-1.5 3-1.5 4.1 0 1.2 1 0 2.4-3 1.3-2.8 2.1-5.3 1.9-5.8-.6-1.1-5.1-.9-5.8.3M578.6 998.9c-2.9 3.2-1.3 9.1 2.5 9.1 2.4 0 3.6-2.7 2.1-5-.7-1.2-.7-2.1 0-2.8s.4-1.3-1-2.1c-1.5-.8-2.3-.6-3.6.8m3.4 1c0 .5-.7 1.1-1.5 1.5-1.5.5-2-.5-.8-1.7.9-1 2.3-.9 2.3.2m0 5.2c0 2.4-2.3 2.1-2.8-.4-.2-1 .3-1.7 1.2-1.7 1 0 1.6.9 1.6 2.1M591.2 998.2c-1.7 1.7-1.5 7.3.4 8.9 3.7 3.1 7.4-4.9 3.9-8.5-2-1.9-2.7-2-4.3-.4m3.3 4.6c0 4.6-1.9 4.4-2.3-.2-.3-2.8 0-3.7 1-3.4.7.3 1.3 1.9 1.3 3.6M600.2 998.3c-.6.7-1.2 3-1.4 5.2-.3 3.8-.2 4 2.7 4s3-.2 3.1-4.3c0-4.7-2.4-7.4-4.4-4.9m2.8 2.8c0 .5-.7.9-1.5.9-1.5 0-2-1.2-.9-2.3.8-.8 2.4.1 2.4 1.4m.3 2.6c.8.7-1.1 3.3-2.4 3.3-.5 0-.9-.9-.9-2 0-1.9 2-2.7 3.3-1.3M615.7 997.7c-.4.3-.7 1.7-.7 3 0 1.6.6 2.3 1.8 2.3 2.6 0 3.4 1.1 2.1 2.7-.9 1-1.5 1-2.5.2-1.1-.9-1.4-.9-1.4 0 0 1.9 3.1 2.5 4.7.8 1.9-1.9 1.1-4.4-1.9-5.7-2.3-.9-2.3-.9 0-1.6 1.2-.3 2.2-1 2.2-1.5 0-1-3.4-1.2-4.3-.2M569.4 999.4c-.9 2.3.3 4.7 2.6 5.3 1.1.3 1.7 1 1.4 1.5s-1.2.7-2 .4-1.4-.1-1.4.5 1 .9 2.2.7c2.8-.4 4.7-5.1 3.2-7.6-1.5-2.3-5.2-2.8-6-.8m4.4 1.9c.2 1-.3 1.7-1.2 1.7-1.8 0-2.9-1.6-2.1-3.1.9-1.4 2.9-.6 3.3 1.4M608.3 1001.4c-2.2 3.3-2.2 3.3.3 4.5 3.5 1.5 3.4 1.6 3.4-3.4 0-2.5-.3-4.5-.7-4.5-.5 0-1.8 1.5-3 3.4m2.2 1.6c-.3.5-1.1 1-1.6 1-.6 0-.7-.5-.4-1 .3-.6 1.1-1 1.6-1 .6 0 .7.4.4 1M585.5 1004c.3.5 1 1 1.6 1 .5 0 .9-.5.9-1 0-.6-.7-1-1.6-1-.8 0-1.2.4-.9 1M801.2 1079.8c-.1 1.8.3 4.2.8 5.3 1.4 2.5 6.8 2.5 11.3-.1 3.3-2 3.3-2 14.3 0 6 1.1 12 2.3 13.4 2.6 1.6.3 2.1.2 1.5-.4-.9-.9-9-2.8-20.7-5-4.1-.8-5.2-.6-8.5 1.4-4.2 2.6-8.5 3.1-10.1 1.1-.6-.6-1.2-2.8-1.5-4.7-.4-3.5-.4-3.5-.5-.2"/></svg>