<svg xmlns="http://www.w3.org/2000/svg" viewBox="0 0 864 1214" fill="currentColor"><path d="M774.5 32.2c-7.9 2.6-32.2 11.3-36 12.8-4.5 1.8-6.1 2.5-16.5 7-12.9 5.6-12.5 5.6-16.8 2.8-2.1-1.4-5.7-3.5-8.2-4.8-7.3-3.7-12.6-2.1-34.5 10.3-8 4.5-8 4.5-9.2 1.5-.7-1.7-1.3-3.6-1.3-4.2 0-2.4-4.7-5.8-6.9-5.1-4.2 1.3-7.4 10.3-5.9 16.7.9 4 .8 4.4-1.8 6.3-10.5 7.6-23 17-23.4 17.7-.3.4-6.9 3.3-14.5 6.3-15.1 6.1-46.1 21.1-56.2 27.3-3.4 2-8.5 5.1-11.5 6.9-2.9 1.8-6.2 3.9-7.3 4.8-1.1.8-4.3 3.2-7.2 5.3-7.5 5.6-13.1 10.1-18.8 15.3-2.7 2.5-6.3 5.7-8 7.2-1.6 1.4-2.5 3-2.1 3.4.5.4 1.1.2 1.3-.5.3-.6.9-1.2 1.5-1.2s.5.6-.2 1.5-2 1.3-2.8 1c-1.8-.7-6.2 4.3-9.5 10.9-3.4 6.7-4.4 10.3-5.8 20.6-2.2 16.3 2.9 34.5 16 57.5 8.4 14.7 25.9 29.3 48.7 40.8 18.5 9.3 20.1 9.7 40.4 11.3 10.2.7 21.2 1.8 24.5 2.4 11.4 2 17.5 2.3 20.1 1 2.2-1.2 2.7-1 7.6 4.2 5.4 5.5 13.6 11.3 19.6 13.7 10.2 4.2 28.2-4.1 39.7-18.2 2.2-2.7 4.5-5.4 5.2-6.1.6-.7 3-5 5.3-9.5 3.1-6 4.6-8.1 5.7-7.7 1.5.6 10.5-3.4 13.3-5.9 2.2-2 17.3-9.5 19-9.5.9 0 2-.4 2.5-.8.6-.5 2.6-1.5 4.5-2.2 1.9-.8 5.8-2.3 8.5-3.6 2.8-1.2 10.9-4.5 18-7.4 7.2-2.8 14.8-6 17-6.9 2.2-1 4.8-2.1 5.8-2.4.9-.4 1.7-1.1 1.7-1.7s-.6-.7-1.7-.1c-2.7 1.4-12 5.2-29 12-32.6 13-39.8 16.2-47.6 21.4-3.2 2.1-6 3.7-6.2 3.5-.3-.2.2-1.6.9-3 .8-1.5 1.2-2.9.9-3.2s-1.5 1.4-2.7 3.7c-1.4 2.8-2.8 4.2-4.1 4.2-2.4 0-2.3-.1 1.1-8.5 3.6-8.8 3.9-19.8.6-25.4-2.9-4.9-2.1-5.8 1.8-2.1s5.4 9.3 4.7 17.7c-.3 3.8-.3 6.8.1 6.8s2.1-.9 3.7-2.1c4.1-2.7 15.4-8.5 21.7-11 2.8-1.1 7-2.8 9.2-3.9 2.3-1 6.6-2.7 9.6-3.8 8.1-3 31.1-12.7 34.6-14.5 4.1-2.3 1.2-2.1-3.9.2-2.3 1.1-8.9 3.8-14.7 6.1s-11.8 4.8-13.5 5.5c-8.2 3.8-25.8 10.6-26.2 10.2-.2-.3.6-2.5 1.9-4.9 2.8-5 4.8-11.4 4.8-15.2 0-1.6.7-2.9 1.8-3.3.9-.3 4.1-1.7 7-2.9 2.9-1.3 5.5-2.4 5.7-2.4.3 0 2.4-.8 4.8-1.9 2.3-1 6.7-2.8 9.7-4.1s6.9-2.9 8.5-3.6c1.7-.6 4.8-1.9 7-2.8 7.8-3.2 9.5-4.1 9.5-4.8 0-1.1-.4-1-6.2 1.6-2.9 1.3-13.2 5.6-22.8 9.6s-18.8 7.8-20.4 8.6-3 1.3-3.1 1.2c-.1-.2.1-3.8.5-8.1s.3-11.5-.3-16c-.5-4.5-1-11.1-1.1-14.7l-.1-6.5 10-2.6c10.4-2.8 19.1-5.8 26.2-9 5.1-2.3 5.3-2.3 5.3-.4 0 2.5 4.3 3.5 8.6 2l3.8-1.3-3.6-1.5c-4.3-1.8-5.8-4.2-5.8-9.4 0-4.6 1.4-6.3 5.1-6.3 1.5 0 3.1-.5 3.5-1.2.5-.8-.5-.9-3.4-.5l-4.2.5v-46.1l-5.2-5.1c-4.3-4.1-19.7-17.4-27.8-23.9-7.8-6.3-27.2-20.6-34.3-25.2-9.9-6.6-9.9-6.3.8-10.5 3.3-1.3 6.5-2.6 7-3 2.7-1.9 23-9 30-10.6 4.4-.9 14.3-2 22-2.3 13.3-.6 13.7-.7 7.5-1.5-3.6-.4-8.3-.5-10.5-.2-2.2.2-6.5.7-9.5 1-5.1.5-4.7.2 6-3.4 6.3-2.1 10.4-3.9 9-3.9s-5.2.9-8.5 2.1m-74.6 21c5.2 2.9 33.7 21.5 36.4 23.8.7.6 3.9 3 7.2 5.5 12.7 9.6 30.9 24.8 37.8 31.5 6.1 6.1 7.1 9.2 3.5 11.1-4.7 2.5-6.9 5.6-16.4 23.4-2.6 4.9-7 12.5-9.6 16.8s-4.8 8-4.8 8.2c0 .9-12.3 19.1-13.3 19.7-.7.4-2.2.8-3.4.8-2 0-1.7-.7 3.2-7.8 5.4-7.9 13.4-21.1 18.8-31.2 9.8-18.3 14.7-28.3 14.7-30.1 0-4.2-3-7.9-14-16.9-3-2.5-5.7-4.7-6-5-3.4-3.7-39.3-30.4-55.3-41.1-10.5-7-12.4-7.9-16.5-8-4.2 0-4.4-.1-2.2-1.1 1.4-.5 3.2-1.4 4-1.8 3.4-2 10.2-1 15.9 2.2m-49.9 4c1.1 1.8 2 4.7 2 6.4 0 2.7-.7 3.7-4.7 6.2-3.2 2.1-5.1 2.8-5.8 2.1-1.6-1.6-1.1-10.1.9-14.2 2.3-4.7 4.9-4.8 7.6-.5m47.1 5.4c17.5 11.8 54.1 39 56.9 42.3.3.3 2.1 1.8 4 3.2 1.9 1.5 5.9 4.9 8.8 7.7 6.6 6.5 6.7 8.9 1.1 19.8-2.2 4.3-5.9 11.5-8.2 15.9-4.9 9.5-11.6 20.5-20 33.2-6.2 9.3-6.2 9.3-12.4 9.3-3.4 0-7.2-.4-8.5-1-1.3-.5-6.6-2.5-11.8-4.4-42.8-15.8-77.6-38.2-91.3-58.8-3.2-4.9-7.3-15.2-9.1-23-.8-3.4-1.1-3.1 17.9-17.4 20.4-15.3 45.6-31.1 53.5-33.5 5.6-1.7 7.7-.9 19.1 6.7M611 97.4c0 .3-.5.8-1.2 1.2s-.8.3-.4-.4c.7-1.2 1.6-1.6 1.6-.8m-5 3.2c0 2.2-5.1 6.8-9.1 8.1-29.2 9.8-70 32.4-96.2 53.2-4.4 3.5-8.1 6-8.4 5.8-.5-.5 5.2-6 11.7-11.3 1.9-1.6 3.7-3.1 4-3.4 1.5-1.8 20-15 24.5-17.6 1.1-.6 5.8-3.5 10.5-6.3 10.6-6.5 39.4-20.7 52-25.7 2.5-1 5.6-2.4 7-3.1 3.3-1.7 4-1.6 4 .3m.4 11.3c1.4 5.6.6 5.8-1.3.2-1.1-3.5-1.5-6.8-.6-5.9.3.3 1.1 2.9 1.9 5.7m-19.9 7.3c-.3 2.9-1 7.3-1.5 9.8-1.8 8.8-3 17.8-3 21.7 0 4.2-.1 4.1 25.9 22.5 9 6.4 11.1 7.9 14.1 10.5 2.6 2.1 2.6 2.1 8.5-3.3 3.3-3 6.5-5.4 7.2-5.4.6 0 2.4 1 4 2.3 1.5 1.2 5.4 4.1 8.7 6.2 5.8 4 5.8 4 5.3 8.5-.4 2.5-1.1 6.7-1.7 9.5-1 4.7-.9 5.1 1.2 6.5 1.2.8 4.8 3.4 7.9 5.7 3.1 2.4 6.6 4.3 7.7 4.3s8.6-3.2 16.8-7.1 17.2-8.2 20-9.5c3.1-1.5 5.9-2.2 6.9-1.7 1.3.4 2.5-.2 4.1-2.2 1.3-1.6 2.7-2.5 3.1-2.1.4.5.2 1.1-.4 1.3-.7.3-1.3 1.1-1.3 1.9s-4.8 3.7-11.2 6.8c-18.2 8.6-29.1 13.8-31.5 14.7-3.5 1.3-2.7 3.1 2.6 6.4 5.4 3.3 5.2 3.8-2.4 6.4-2.2.8-6.8 2.7-10.3 4.2-3.4 1.6-6.5 2.9-6.7 2.9-.3 0-4 1.6-8.2 3.6-4.3 1.9-9.4 4.3-11.3 5.1-3.5 1.6-16.6 7.7-24.7 11.5-2.4 1.1-4.3 2.5-4.3 3s.3.8.8.6c.4-.2 3.4-1.6 6.7-3.2 3.3-1.5 8.4-3.9 11.3-5.2 15.4-7 24.7-11.2 28.7-12.9 1.7-.7 5-2.2 7.5-3.3 9-4 28.9-12.2 45.3-18.7 9.2-3.7 16.7-7.1 16.7-7.6s-.2-.9-.5-.9c-.5 0-11.2 4.5-19.5 8.3-7 3.1-14.3 5.7-14.8 5.2-.3-.2.6-.9 1.9-1.4 11.6-4.4 15.9-6.5 15.9-7.6 0-.8 1-1.6 2.3-2 1.2-.3 3.1-1 4.2-1.5s4.9-2 8.3-3.3c6.2-2.2 6.4-2.5 8.2-7.4 2.2-6.3 2.8-7.3 4.3-7.3.8 0 1.3 2 1.3 5.7.1 3.2.8 9.2 1.4 13.4 1.6 9.5.4 25.8-2 26.9-.8.4-6.2 3-11.9 5.8l-10.5 5.1-3.3-3c-1.9-1.6-4.1-2.9-5.1-2.9-1.1 0-.7.6 1.3 1.8 1.7 1.1 3.6 2.6 4.4 3.5 1.1 1.4 1.1 1.8-.3 2.3-.8.3-2.3-.2-3.3-1.1-4.2-4.2-13.2-5.7-21.8-3.5-6.9 1.8-20.2 9.1-26 14.2-3 2.7-8.3 8.4-11.8 12.6l-6.3 7.7-13 2.3c-7.1 1.2-13.6 2.2-14.5 2.2-1 0-3-2.9-5.3-7.5-2-4.2-5.4-9.5-7.6-11.8-2.1-2.4-3.6-4.8-3.2-5.4 1.4-2.1 25.5-18.2 37.4-24.9 8.7-4.9 32.3-16.9 57.2-28.9 9.8-4.7 17.6-8.8 17.3-9.1-.2-.3-6.7 2.6-14.3 6.4-7.7 3.7-15.5 7.4-17.4 8.2-7.8 3-35.9 17.3-48.8 24.8-4.3 2.5-4.3 2.5-7 0-12.4-11.3-20.5-17.8-22.3-17.8-2.1 0-12.5 6.7-24.9 16-4.1 3.1-8.1 6-8.8 6.4-.8.5-4-1-8.5-4-7.3-4.9-8.9-6.1-21.2-15.3-9.6-7.2-34.4-29.3-34.4-30.8-.1-1.1 15.1-13.7 24.3-20.1 6.5-4.5 6-6.3-3.4-12.9-4.1-2.9-8-5.2-8.6-5.3-.6 0-1.7-.6-2.3-1.3-.8-1.1.4-2.3 5.7-5.9 7.8-5.2 11.9-7.8 14.7-9.4 1.1-.6 4.9-2.8 8.5-4.8 8.9-5 40.1-20.6 41.3-20.6.5 0 .6 2.2.2 5.2m199.4 33.2-.3 26.4-6.5 2.5c-14.6 5.6-32.9 11.2-33.7 10.4-.3-.3 4.2-8.4 10-18 5.8-9.7 10.6-18 10.6-18.5 0-.6.4-1.2.8-1.4s3.1-4.7 5.8-10.1c4.8-9.2 10.8-17.7 12.7-17.7.5 0 .7 11.9.6 26.4m-157.7-6.3c2.9 2.6 6.7 5.9 8.3 7.4 3 2.7 3 2.7-.5.4-2.9-1.9-14.2-12.4-13.4-12.4.2 0 2.7 2.1 5.6 4.6m-111.9 10.5c5 2.6 17.7 11.4 17.7 12.3 0 .4-2.1 2.3-4.7 4.2-5.4 3.8-4.7 3.3-16.6 12.8L504 193l-7-7.2c-9.8-10.2-10.1-11-6-14.5 4.8-4 21.1-16.3 21.6-16.3.3 0 1.9.7 3.7 1.6M661 169c2.2 1.1 4 2.3 4 2.5 0 .5-7.9-3.2-8.9-4.1-1.1-1 1.4-.2 4.9 1.6m6.5 4c.3.5.4 1 .1 1s-.8-.5-1.1-1c-.3-.6-.4-1-.1-1s.8.4 1.1 1m-168.8 16.5c17.7 17.9 31.6 30.3 44.8 39.9 5 3.6 9.5 6.9 10 7.4 1 .8 8.8 5.9 21 13.7 7.8 5 18.6 11.6 22.9 13.9 2.1 1.1 5.4 3.8 7.2 6 3.4 4 9.4 15.1 9.4 17.5 0 1.1-3.3 1.3-18.7.8-15.9-.4-19.8-.8-25.3-2.7-14.1-4.8-37.1-15.2-37.8-17.1-.2-.5-.8-.9-1.3-.9-2.3 0-17.1-11.1-25.2-18.9-10.5-10.1-16.4-17.5-20.6-25.8-3.5-6.7-3.8-8.1-1.6-6.3 2.1 1.7 6.4.4 7.6-2.4 1-2 .7-3.1-1.9-6.8-1.7-2.5-4.9-8.3-7.2-12.9-4.5-9.2-4.5-9 .5-17 2.7-4.1 2.7-4.1 4.5-1.3 1 1.6 6.2 7.4 11.7 12.9m187-7.8c-.4.3-1 .3-1.4 0-.3-.4 0-.7.7-.7s1 .3.7.7m105.3.8c1.1 1.3.8 1.5-1.9 1.5-2.1 0-3.1-.5-3.1-1.5 0-.8.8-1.5 1.9-1.5 1 0 2.4.7 3.1 1.5m-86 7.1c0 .2-.7.4-1.5.4s-1.5-.4-1.5-1c0-.5.7-.7 1.5-.4.8.4 1.5.8 1.5 1m-224.4 6.6c1.6 3.4 4.4 8.2 6.2 10.5 1.7 2.4 3.2 4.9 3.2 5.6 0 1.8-2.1 3.7-4.1 3.7-2.3 0-6.5-8.9-8.4-17.9-1.8-8.5-1.7-8.1-.7-8.1.5 0 2.2 2.8 3.8 6.2m230.9-4.2c1.3.6 1.5.9.5.9-.8 0-2.2-.4-3-.9-1.8-1.2-.2-1.2 2.5 0m4.2 1.7c-.4.3-1 .3-1.4 0-.3-.4 0-.7.7-.7s1 .3.7.7m2.3 2.7c0 .3-.4.8-1 1.1-.5.3-1 .1-1-.4 0-.6.5-1.1 1-1.1.6 0 1 .2 1 .4m8.7.2c-.3.3-1.2.4-1.9.1-.8-.3-.5-.6.6-.6 1.1-.1 1.7.2 1.3.5m6 0c-.3.3-1.2.4-1.9.1-.8-.3-.5-.6.6-.6 1.1-.1 1.7.2 1.3.5m-254.6 13.2c4.2 15.9 12.9 28.3 31.4 45.1 15 13.5 45.3 29.4 65.5 34.3 9 2.1 40.8 1.5 55.4-1.1 6.6-1.2 12.1-1.9 12.4-1.7.4.4-4.9 7.6-11 15.1-.9 1.1-3.5 4.4-5.7 7.2-3.9 5-4.4 5.3-8.6 5.3-2.4 0-6.6-.4-9.2-.9-10.6-2.1-20.5-3.2-34.6-4-13.5-.7-18.2-1.6-14.9-2.8 2.1-.8 1.3-3.6-2.3-8.5-4.2-5.8-7.5-8.2-20-14.8-25.2-13.3-43.1-28.4-52-43.6-2.1-3.5-4.1-6.4-4.6-6.4-2.9 0-6.4-19.1-5.3-29 .4-3.6 1-5.4 1.2-4s1.2 5.8 2.3 9.8m132.6 18.4c9 8.1 11.8 10.6 14.3 12.6 1.4 1.1 2.3 2.2 2 2.5-.3.2-5.2 3.6-11 7.5s-11.8 8.3-13.4 9.7c-3.4 3-4.7 2.7-12.3-2.1-2.9-1.9-7.8-5-10.8-6.9s-5.9-3.5-6.5-3.5c-1.7 0-1.1-2.9.9-4 1.1-.5 2.5-1.6 3.3-2.2 5.4-5.2 24.6-17.8 26.9-17.8 1.1 0 4.1 1.9 6.6 4.2m81.8-1.2c-.3.5-1.4 1-2.3 1-1.5 0-1.5-.2-.2-1 2-1.3 3.3-1.3 2.5 0m-205.9 18.7c3.2 5.4 7.6 12 9.8 14.8 10.5 12.8 26.6 24.6 49 35.6 7.4 3.6 12.6 6.7 12.6 7.6 0 2-2.3 1.2-16.9-6.3C530.8 292 515.8 283 514 281c-1.4-1.5-9.9-8-10.5-8-2.3 0 14.8 13.8 19.9 16.1 1.4.7 2.6 1.6 2.6 2 0 1.6-10.4-5.2-18.4-12.1-7.4-6.4-8.8-7.9-8.4-9.1.3-.8-1.1-3.1-3-5.1-4.7-5.1-7.5-9.3-11.2-16.9-1.7-3.5-3.5-7.2-4.1-8.1-.9-1.9-1.2-3.8-.5-3.8.3 0 3 4.4 6.2 9.7m253.6 1.4c-.1 1.9-2.1 7.1-4.3 11.7-3.3 6.8-4.6 8.5-7.4 9.7-1.9.7-5.5 2.8-8 4.5l-4.5 3.1.3-6.3c.1-3.5-.2-8.2-.6-10.4-.8-4.2-.8-4.2 11-10.2 6.5-3.4 12.3-6 12.8-5.8.6.1.9 1.8.7 3.7m-35.7 5.5c1.4 1.5 3 4.5 3.6 6.8 1.2 4.4.7 15.6-1 19.6-.8 2.1-1 1.7-1.1-3-.1-7.1-2.4-12.1-8.8-19.1-2.9-3.1-5.2-6-5.2-6.3s2.3-.6 5-.6c4.2 0 5.5.5 7.5 2.6m-11.7 1.7c2.7 2.5 2.9 4.1.3 2.7-6.8-3.6-23.9 3.9-35 15.4-6.8 6.9-4.4 6.4 3-.7 11.6-11.1 26.7-16.3 34.9-12 4.5 2.4 8 7.6 8 12.2v3.6l-2-4c-7.2-14.5-30.3-8.2-45.4 12.4-16 21.7-14.4 46.1 2.9 46.5 2.4.1 3.8.4 3.2.8-2.1 1.4-11.1.7-14.6-1-7.7-3.8-10.2-16.4-6-29.3 2.5-7.5 3-8.6 8-16.2 2.1-3.1 3.6-6.4 3.3-7.2-1-2.5 14.1-16.5 22.5-20.9 11.4-6 12.6-6.1 16.9-2.3m-186.4 11.5c5.3 4.5 23.1 15.7 31.7 20s16.9 10.5 15.7 11.7c-1 1-26.4-12.2-32.3-16.8-.5-.4-3.5-2.6-6.5-4.8-6.8-4.9-16.5-14.2-18.1-17.2-.9-1.7-.3-1.4 2.8 1.3 2.1 1.9 5.2 4.6 6.7 5.8m192.1 3.4c7.8 8.5 4.9 24.7-7.3 40.8-9.3 12.3-18.8 18.3-29.2 18.3-11.1.1-14.5-3.8-14.5-16.2.1-5.7.7-9.2 2.5-13.6 4.1-10.3 12.3-20.6 21.3-26.7 8.1-5.5 12.1-6.9 18.6-6.5 4.7.3 5.9.9 8.6 3.9m-50.7 16.5c-8.9 14.7-11.8 27.3-8.2 35.8.8 2 1.3 3.9 1 4.2-.6.6-12.4-10.5-13.7-12.8-.5-1.1-.3-2.2.9-3.5 1-1 2.8-3.5 4.2-5.4 1.3-1.9 2.7-3.7 3-4s1.7-2.1 3-4c1.4-1.9 3-4.2 3.7-5s3.1-3.9 5.3-6.8c2.3-2.8 4.3-5.2 4.5-5.2s-1.5 3-3.7 6.7m-112.2 11.1c-.5.4-8.6-3.6-8.6-4.3 0-.3 2 .5 4.5 1.7 2.4 1.2 4.3 2.3 4.1 2.6m4.9 2.2c.3.5.2 1-.4 1-.5 0-1.3-.5-1.6-1-.3-.6-.2-1 .4-1 .5 0 1.3.4 1.6 1m2.5 1.5c0 .3-.2.5-.5.5s-.5-.2-.5-.5.2-.5.5-.5.5.2.5.5m2.7 1.2c-.4.3-1 .3-1.4 0-.3-.4 0-.7.7-.7s1 .3.7.7m2.3.8c0 .3-.2.5-.5.5s-.5-.2-.5-.5.2-.5.5-.5.5.2.5.5"/><path d="M709 223.1c-.8.5-5.7 2.5-10.7 4.6-5.2 2-9.3 4.2-9.3 5 0 .7.5 1.3 1.1 1.3.7 0 3.3 1.5 5.9 3.4 6.7 4.8 18.3 7 28.6 5.4 8.5-1.3 9.2-2.5 3.7-5.9-2.1-1.3-5.7-3.7-7.9-5.3-2.3-1.7-5.1-3.8-6.3-4.6-1.1-.8-2.1-2-2.1-2.7 0-1.7-1.4-2.3-3-1.2M551.3 267.6c-1.2 1.9-1.4 3.1-.7 4.3 1.3 2.1 10.1 6.6 23.1 11.8 10 4 10.3 4.1 12.5 2.4 1.3-1.1 1.9-2.4 1.5-3.4-1-2.7-28.5-17.7-32.5-17.7-1.2 0-2.9 1.1-3.9 2.6m14.5 3.5c19.4 10.3 22.9 12.9 18.8 14.5-1.1.4-16.2-5.6-28.1-11.2-4.5-2.1-5.6-4.9-2.8-6.9 1-.8 1.9-1.5 2.1-1.5.1 0 4.6 2.3 10 5.1M604.5 294c-3.4 3.8-1.4 5 8.5 5 7.6 0 9.3-.3 11-2 3.8-3.8 1.7-5-8.5-5-7.9 0-9.4.3-11 2m19.5.9c0 1.5-2.9 2.1-11.1 2.1-7.3 0-9-.6-7.2-2.3 1-1 18.3-.8 18.3.2M574 299.9c0 .6 2.1 1.3 4.8 1.6 2.6.3 6.5 1 8.7 1.5s7.6 1.2 11.9 1.5c4.4.3 8.8 1.1 9.8 1.6q1.8.9 1.8 0c0-2-3.9-3.1-14.8-4.1-6.1-.6-13.4-1.5-16.3-2-6.3-1.2-5.9-1.2-5.9-.1M676.1 273.5c-15.8 7.4-28.3 30.9-22.6 42.8 7.9 16.6 38-1.8 43.6-26.6 3.3-14.9-6.9-22.7-21-16.2m15.7 1.2c8.2 5.1 3.9 23.7-8.1 35.5-7.1 7.1-7.7 7.4-13.6 9.4-6 1.9-10.5 1.3-13.8-1.8-1.9-1.8-2.3-3.2-2.3-8.5 0-7.4 2.4-14.4 7.1-20.5 10.3-13.6 22.6-19.2 30.7-14.1M102 139.7v12l20.3.7c11.1.3 31.4.9 45 1.2l24.8.7-.3-11.9-.3-11.9-15.5-.6c-8.5-.4-28.7-1-44.7-1.4l-29.3-.7zm69.8-8 17.2.6v20l-28.7-.7c-15.9-.3-34.7-.9-42-1.3-15.3-.7-14.7-.1-13.6-12.7l.6-7.9 24.6.7c13.5.3 32.4.9 41.9 1.3"/><path d="M111.7 132.7c-.4.3-.7 2.1-.7 4 0 2.9.3 3.3 2.5 3.3 2.6 0 3.3 2.2 1.6 4.9-.8 1.2-1.2 1.2-2.5.2-1.8-1.5-2.1-.4-.6 1.9.7 1.2 1.3 1.2 2.7.4 3.4-2.1 2.8-8.8-.8-9.7-2.6-.7-2-3.1.9-3.5 1.2-.2 2.2-.8 2.2-1.3 0-1-4.3-1.2-5.3-.2M123.2 133.2c-1.8 1.8-1.5 12.3.3 13.8 2.6 2.2 4.7.4 4.3-3.7-.2-2.8-.9-4.1-2.5-4.8-2.6-1.1-2.7-1.4-1.3-3.5.9-1.3 1.1-1.3 1.9 0 .6.8 1.3 1.1 1.7.7.7-.7-1.3-3.7-2.5-3.7-.4 0-1.2.5-1.9 1.2m2.8 9.9c0 3.8-2.4 3.5-2.8-.4-.2-1.9.1-2.7 1.2-2.7s1.6 1 1.6 3.1M144 137.1c0 3.6.2 4 2 3.4 1.7-.5 2-.2 2 2.3 0 3.5-.9 4.5-2.7 3.1-1-.9-1.3-.8-1.3.4 0 .8.7 1.8 1.6 2.1 4.5 1.7 6.2-6.2 1.9-9-3-2-3.2-3.4-.5-4.1 2.8-.7 2.5-2.3-.5-2.3-2.3 0-2.5.4-2.5 4.1M156.9 133.3c0 .4 0 4-.1 7.9 0 5.5.3 7.4 1.4 7.6s1.3-1.2 1-7c-.2-4-.8-7.7-1.3-8.3-.5-.5-.9-.6-1-.2M167.8 141.5c-.2 5 .1 7.6.9 7.9.6.3 1.3.3 1.5.1.7-.7-.4-15.5-1.2-15.5-.5 0-1 3.4-1.2 7.5M178.5 136.5c-.4 1.7-.9 3.7-1.2 4.5-1.4 3.9-2 8-1.2 8 .5 0 .9-.9.9-2s.7-2.3 1.6-2.7c1.8-.7 3.6 1.5 2.9 3.4-.4 1.2 1.2 2.9 2.1 2 .5-.5-2.4-12.5-3.6-14.7-.6-1.1-1-.7-1.5 1.5m1.5 4c0 .8-.4 1.5-1 1.5-.5 0-.7-.7-.4-1.5.4-.8.8-1.5 1-1.5s.4.7.4 1.5M132.5 141c.3.5 1.7 1 3 1s2.7-.5 3-1c.4-.6-.8-1-3-1s-3.4.4-3 1M68.2 139.8c-1.2.8-1.3 17.6-.7 100.8.4 55 .9 100.2 1.2 100.6.2.5 8.7.8 18.9.8H106v41.4c0 31.9.3 41.6 1.3 42.4.7.6 19.9 1.3 52.5 1.7l51.2.8v9.7l32.3.1c17.7 0 37.8.1 44.7.2l12.5.2.3-4.3c.3-4.2.3-4.2 9.2-4.2 7.5 0 9.4.4 12.4 2.2 1.9 1.3 3.5 3.1 3.6 4.1 0 1.9 5.7 5.9 7.9 5.5.8-.2 1.9-1.8 2.3-3.6.5-1.8 1.7-3.8 2.8-4.5 1.1-.6 2-2 2-3 0-2.3-4.7-6.7-7.1-6.7-1.2 0-1.9-.7-1.9-2 0-1.1-.4-2-1-2-.5 0-1 1.6-1 3.5 0 3.3 1.4 4.8 2.2 2.4.3-.8 1.4-.6 3.6.5 3.6 1.8 4.1 3.4 1.5 4.3-1 .3-2.6 1.2-3.5 2-1.2 1.1-2.1 1.2-3.7.4-2.5-1.4-3.4-1.4-2.6-.1.3.6-.1.7-1 .3-1.3-.4-1.4-.8-.4-1.4 1.1-.6 1-.9-.4-1.5-2.3-.8-2.2-3.4.2-3.4 1 0 2.1.9 2.4 2.1.8 3.1 5.1 2.2 5.5-1.1.2-1.4 0-2.1-.5-1.7-.4.5-.8 1.4-.8 2 0 .7-.7 1.2-1.5 1.2-1.5 0-1.6-.4-1.9-4.5-.1-2-.2-1.9-4.1.5-3.5 2.2-5 2.5-14 2.5h-10v-6.4c0-3.6-.4-6.7-.8-7-.6-.4-77.3-1-86.9-.7-2.1.1-2.3.6-2.3 6.3v6.1l-43.7-.6c-24.1-.4-47.3-1-51.5-1.3l-7.8-.7v-81.9l10.8.6c8 .5 141.6 2.5 167.3 2.6 3.6 0 5.1 1 9.7 6.2 2.4 2.6 2.4 2.6-2.7 5.9-4.5 2.9-6.3 4.9-4.6 4.9.3 0 3.5-2 7.1-4.4 5.9-4 6.9-4.3 9.5-3.4 1.6.6 4.1.7 5.5.4 2.6-.7 13.4-10.6 13.4-12.3 0-.6 2.5-.8 5.5-.5 4.8.4 5.9.1 8-1.8 2.5-2.3 2.5-2.3 6.9.1 2.4 1.3 5.3 2.9 6.2 3.6 1.7 1.2 1.7 1.4.1 3-1.4 1.5-2 1.5-4.2.3-1.4-.7-4.7-1.4-7.3-1.4-4.2-.1-5.6.5-10.8 4.4-3.2 2.4-7 5.5-8.3 6.8-3.2 3.2-8.4 5.3-12.4 5-2.3-.1-4.7.8-8.1 3.2-4.5 3-5.2 3.2-8.1 2.1-3.9-1.4-4.5-1.4-4.5-.1 0 .5.6 1 1.4 1 .7 0 1.9.7 2.6 1.5 1 1.2.7 2.3-1.5 6.1-1.5 2.5-2.4 4.8-2.1 5.1s1.3-.9 2.3-2.6c3.9-7 3.6-7.1 9.1 1.1 5 7.5 5.7 9.8 2.2 7.5-1.5-.9-2.2-.7-4 1.4-1.4 1.6-2.3 2-2.6 1.1-.3-.6-1.2-1.2-2-1.2-.7 0-2.1-1.1-3-2.5s-1.9-2.5-2.3-2.5c-1.4 0-.5 5 .9 5 .8 0 2.4.8 3.5 1.6 1.9 1.5 1.9 1.5-1 .8-2.7-.6-2.8-.5-1.7.8 1.1 1.4.9 1.9-1 3.2-2.9 2.1-8.8 2.1-8.8.1 0-.7.8-1.9 1.8-2.5 1.6-1 1.6-1.1-.2-.8-2.8.4-4.3 3.3-2.7 5.2 2 2.4 7.2 2 11.1-.9 5.3-3.9 9.1-4.2 16.3-1 10 4.4 11.6 5.1 24.7 10.1 6.9 2.6 19.6 7.6 28.2 11 8.7 3.4 16 5.9 16.3 5.5.5-1-1.3-1.8-14.5-6.9-25.2-9.6-32.6-12.4-34.5-13.3-1.1-.5-4.2-1.7-6.9-2.6-4.6-1.7-7.4-4.3-4.4-4.3.7 0 7.8 2.5 15.8 5.6s17.9 6.8 22 8.4c4.1 1.5 10.4 3.9 13.9 5.4 6.9 2.8 9.6 3.2 10.6 1.6 1.2-2 2.5-1 2.5 1.9 0 4.9-5.9 9.4-8.8 6.8-3.5-3-6.4-4-7.3-2.6-.4.8-1.8 1.4-3 1.4-2.5 0-4.5 2.6-3.6 4.8.3.8 3.8 3 7.9 5 26.6 12.6 31.3 15.2 31 17.1-.3 1.7-.1 1.8 1.2.7s2.9-.5 10.3 3.5c12.1 6.5 15.5 8.4 17.8 10 2.5 1.8 3 1.8 5-.3 1.5-1.4 1.8-1.4 2.6-.2 2.3 3.9 2.8 4.2 5.2 3.5 2.1-.5 2.6-1.3 2.9-5.3.5-5.2.2-6.6-1.3-5.8-.5.4-.9 2.6-.9 5.1 0 2.4-.4 4.4-.9 4.4-.6 0-2.4-1.5-4-3.3l-3.1-3.2 3-1.4c1.7-.8 3-1.8 3-2.3 0-1.1-2.8-1-3.5.2-1.1 1.7-3.7 1.1-4.2-1-.5-1.9-3.1-3.6-17.8-11.5-3.8-2.1-9.2-5-12-6.5-2.7-1.5-7-3.7-9.3-4.9-6.1-3.1-4.6-3.7 1.9-.8 3 1.4 11 4.9 17.9 8 6.9 3 15.1 6.7 18.2 8.1 8.6 3.9 10.8 4.7 10.8 3.6 0-.5-2.1-1.9-4.7-3.1-2.7-1.2-7.2-3.2-10.1-4.5s-5.4-2.4-5.6-2.4c-.3 0-3.7-1.5-7.8-3.4-15.1-7-21-9.6-21.5-9.6-.3 0-2.1-.7-3.9-1.6-3.1-1.5-3.4-2-2.9-4.4.9-3.9-1.7-9.3-5.6-12.2-1.9-1.3-9-5.3-15.9-8.8-22.3-11.3-29.5-15.1-31.2-16.7-4.1-3.7-1.3-8 10-15.2l5.3-3.3 9.7 9.4c21.2 20.8 60.2 52.5 82.5 67.3 5.7 3.8 6.6 4.9 4.7 6-.6.4-.8 1.1-.4 1.6.3.6-.2 1.6-1.2 2.4-1.1.7-1.6 1.6-1.3 2 .8.7 7.9-3.4 7.9-4.6 0-1.3-1.4-1.1-2.8.3-.8.8-1.2.8-1.2.1 0-.6.7-1.6 1.6-2.4.8-.7 2.4-2.9 3.4-4.9 1.7-3.4 2.4-3.8 6.9-4.4 6-.8 7.2-2.3 4.1-4.8-2.9-2.4-4.8-2.3-2.6.1 1.6 1.7 1.6 1.9-.6 2.5-3.9 1-7.7.7-9.5-.9-1-.8-4.7-3.6-8.3-6.2-6.7-4.9-26.1-20.2-27-21.2-.3-.4-3-2.6-6-5.1s-6.2-5.1-7-6c-.8-.8-5.3-4.9-10-9-12.9-11.4-37-35.3-37-36.7 0-1.1 3-3.3 4.4-3.3.3 0 .3 1.3 0 2.9-.6 3.1 1.2 5.3 2.2 2.6.5-1.2.9-1.3 2-.4.8.6 1.4 1.7 1.4 2.3 0 2.1 20.4 21.6 22.6 21.6 1.1 0 2.5.5 3.2 1.2.6.6 1.5.9 1.8.5 1.1-1.1-1.7-3.7-4-3.7-2.5 0-21.6-18-21.6-20.4 0-.8-1.1-2.3-2.4-3.1-1.6-1.1-2.2-2.2-1.9-3.5.6-2.4 1.2-2.5 4.1-.4 3.3 2.3 3.8 1 .6-1.5-1.7-1.3-3.4-1.9-4.9-1.5-2.1.5-4.4-.5-12.5-5.4-1.9-1.2-4.6-2.2-6-2.2-1.5 0-3.1-.5-3.7-1.1s-1.7-.8-2.4-.3q-1.35.75.9 1.5c2.6 1 3 3.9.6 3.9s-4.3-3-4.4-6.8c0-2.2-.4-3.1-1.1-2.6-.7.4-.9 2.2-.6 4.5.6 4.2-.2 5.3-2.9 4.2-1.6-.6-1.6-.7.1-2 2.3-1.6 1.1-3.1-1.3-1.7-.9.6-1.8 2.5-2 4.2-.2 2.2-1.9 4.5-5.8 8.2-4.9 4.7-5.8 5.1-8.7 4.5-1.8-.3-4.4-.6-5.9-.6-2 0-3.7-1.2-6.3-4.2-2.7-3.2-4.5-4.3-7.3-4.7-3.6-.5-3.7-.7-4-4.8-.2-2.4-.7-4-1.3-3.6-.5.3-.7 2-.3 3.9.3 1.8.2 3.5-.3 3.8-.9.6-131.7-1-140.3-1.7-3-.3-11.9-.5-19.7-.5L108 340V208h10.5c6.3 0 10.5-.4 10.5-1s-4.5-1-11.5-1H106v134l-16.8-.1c-9.2 0-17.3-.4-18-.8-1-.6-1.3-21.7-1.5-99.2l-.2-98.4 14.1.3c9.6.3 14.4 0 14.8-.7.5-.8-1.4-1.1-6.1-1.1-3.7 0-10.4-.3-14.8-.6s-8.6-.1-9.3.4m277.6 209.5c.8.9.8 2.4.2 4.8-1.7 5.7-2.2 6.2-5.6 4.4-4-2-5.3-1.9-9.6 1-2 1.4-3.9 2.5-4.2 2.5-.2 0-2.7 1.4-5.4 3.1-5.6 3.4-11.4 3.8-12 .6-.2-1 .3-1.7 1.3-1.7 2.6 0 7.6-2.9 13.3-7.8 5.2-4.4 5.2-4.4 5.2-1.3 0 1.7.5 3.1 1.1 3.1.8 0 .9-1.3.5-3.9-.5-3.3-.3-4 1.7-4.9 3.2-1.5 12.2-1.5 13.5.1m28.2 28.3c11.8 11.1 33.4 29.9 43 37.4 2.5 1.9 5.2 4 6 4.7s4.4 3.5 8 6.3 7.3 5.7 8.2 6.5c.9.7 2.8 2.1 4.2 3 2.9 1.9 3.2 4.1 1.2 6.8-1.3 1.7-2.1 1.3-11.6-5.5-5.6-4-12.1-8.6-14.4-10.2-17-12.2-47.9-38.5-71.4-61.1-2.3-2.2-2.3-2.2-.7-7.8l1.6-5.7 8.7 8.8c4.8 4.8 12.5 12.3 17.2 16.8m-34.5-17.4c1.4.6 2.5 1.6 2.5 2.2 0 1.3 0 1.3-12.6 9.6-5.1 3.2-9.4 6.7-9.8 7.6s0 2.7.8 3.9c1.7 2.6 1.3 3.1-4.3 6-1.8.9-4.2 1.5-5.2 1.2-1.1-.3-1.9-.1-1.9.4s.5.9 1 .9c.6 0 1 .7 1 1.5 0 2-.2 1.9-6.6-1-7.2-3.3-7.4-6-.1-3 2.7 1.1 2.1-2-1.3-7-1.6-2.4-3-4.8-3-5.4 0-.5 2-2.4 4.4-4.1 3.3-2.2 5.6-3 8.8-3s5.7-.8 9.4-3.2c6.8-4.4 12.8-7.8 13.6-7.8.4 0 1.9.5 3.3 1.2m-31.9 6c.4 1.4.2 2.4-.5 2.6-.6.2-1.7.9-2.4 1.6-3.3 3.2-6.1 4.5-7.4 3.4-2.4-2-1.4-4.6 3-7.2 5.2-3.1 6.4-3.2 7.3-.4m17.4 13.7c0 3.5 3.5 6 21.2 15.1 24.6 12.6 29.2 15.3 29.6 17.3.4 1.9-2.7 2.3-5.6.7-.9-.5-4.8-2-8.7-3.4-6.5-2.2-12.3-4.4-35-13.3-4.9-1.9-9.3-3.8-9.8-4.2-.4-.4 1.1-1.6 3.3-2.7 2.4-1.1 4-2.6 4-3.7 0-.9-.4-1.7-.9-1.7-1.5 0-2.2-3.2-1-4.6 1.6-2 2.9-1.7 2.9.5m-57.7 36 30.7.1v20h-83.8l-.4-4.9c-.1-2.7-.1-7.4 0-10.5l.4-5.7 11.1.5c6.2.2 25 .5 42 .5m103 11c.4 1.5 8.3 6.2 25 14.8 1.5.8 2.7 2.1 2.7 2.9 0 1.6-2.1 1.9-3.5.5-1.3-1.2-20.6-11.1-21.6-11.1-.5 0-3.3-1.1-6.3-2.4-4.6-2-5.4-2.8-4.9-4.5.3-1.1.9-1.9 1.3-1.6s1-.4 1.3-1.6c.5-1.9.7-2 3-.4 1.4.9 2.7 2.4 3 3.4m10.7 1.3c4.1 2.5 9.1 5.3 18 10.1 3.6 1.9 9.8 5.3 13.9 7.6 4.1 2.2 7.7 4.1 8 4.1s1.7.9 3.1 2c2.4 1.9 2.4 2 .4 2s-12.7-5.2-27.6-13.6c-3.5-1.9-9.9-5.3-14.3-7.5-9.4-4.8-8.9-4.5-8-5.8.9-1.6 2.6-1.3 6.5 1.1m-57.5 2.8c.3.5.4 1 .1 1s-.8-.5-1.1-1c-.3-.6-.4-1-.1-1s.8.4 1.1 1m6.5 3.5c0 .3-.2.5-.5.5s-.5-.2-.5-.5.2-.5.5-.5.5.2.5.5m0 3.1c0 .8-.4 1.2-1 .9-.5-.3-1-1-1-1.6 0-.5.5-.9 1-.9.6 0 1 .7 1 1.6m5-.2c0 1.6-1.8 3.1-2.7 2.2-.8-.8.5-3.6 1.7-3.6.5 0 1 .6 1 1.4m75.9 12.8c5.3 2.8 11.1 5.4 13 5.7s3.6 1.2 3.9 1.9c.2.8-.2 1-1.3.6-1-.4-2.1-.1-2.5.7-.7 1.1-1.6 1-4.7-.8-2.1-1.1-7.4-4-11.8-6.3-9.5-5.1-8.9-4.6-8-5.9.9-1.6.9-1.6 11.4 4.1m16.7 12.5c-1 1-1.9-.5-1-1.8.6-1.1.8-1.1 1.2 0 .2.7.1 1.5-.2 1.8"/><path d="M412.6 417.6c-.9 2.2.3 3.2 1.4 1.4 1.2-1.9 1.2-3 .1-3-.5 0-1.2.7-1.5 1.6M329 367c0 1.6.5 3 1 3 .6 0 1-1.4 1-3 0-1.7-.4-3-1-3-.5 0-1 1.3-1 3M329.7 389.7c-.8 1.7-.1 5.6 1.1 6.1.9.3 1.2-.6 1-2.8-.2-3.1-1.3-4.8-2.1-3.3M220.4 418.3c-.3.9-.4 2.8-.2 4.4.2 2 .8 2.8 2.3 2.8 2.3 0 3.1 3.1 1.5 5.5-.9 1.3-1.1 1.3-1.9 0-.6-.8-1.3-1.1-1.7-.7-.4.3-.1 1.3.6 2.2.9 1.1 1.7 1.2 3.1.4 2.8-1.4 2.7-8.5-.1-9.4-2.6-.8-2.6-3.5.1-3.5s1.9-2.4-.9-2.8c-1.3-.2-2.5.3-2.8 1.1M253.4 419.5c-1.3 2.1-1.4 2.8-.4 4s1 1.9.2 2.7c-1.8 1.8-1.4 4.3.8 6.3 1.9 1.7 2.1 1.7 4 0 2.1-1.9 2.7-5 1.1-6-.5-.3-.7-2.1-.4-3.9.4-2.8.1-3.6-1.6-4.5-1.7-1-2.3-.8-3.7 1.4m4.4 2.4c-.5 2.4-3.8 2.7-3.8.3 0-1 .3-2.1.6-2.5 1.1-1.1 3.5.5 3.2 2.2m-.3 7.1c0 2.7-2.2 3.9-3.1 1.6-.8-2.2.3-4.9 1.9-4.3.6.2 1.2 1.4 1.2 2.7M232 419.4c0 .9.7 1.2 2 .9 1.8-.5 2 0 2 4.5 0 8-3.8 8.1-4.1.2-.1-2.6-.3-2.9-.6-1.1-.8 4.3.6 9.1 2.7 9.1 2.9 0 4.2-7.2 2.4-13.3-.6-2-4.4-2.3-4.4-.3M266.8 420.7c-.6 1.5-1.8 3.6-2.6 4.5-1.8 2.2-.9 4.8 1.8 4.8 1.4 0 2 .6 1.8 1.6s.2 1.9.8 2.1c1.4.5 2.5-5.5 1.2-6.3-.5-.4-.7-2.3-.3-4.4.8-4.7-1-6.2-2.7-2.3m1.2 4.8c0 .8-.7 1.5-1.5 1.5-.9 0-1.2-.6-.9-1.5.4-.8 1-1.5 1.5-1.5s.9.7.9 1.5M277 418.2c-.1.2-.2 3.8-.3 8.1-.2 6.9 0 7.7 1.7 7.7 1.2 0 1.6-.5 1.2-1.6-.3-.9-.6-4.5-.6-8 0-3.6-.4-6.4-1-6.4-.5 0-1 .1-1 .2M285.3 420.7c-1.7 3.6-1.6 6.8.2 10.3 1.6 3 3 3.6 5.1 2.2 1.5-.9 2.2-7.4.9-7.6-.5 0-1.1 1.4-1.3 3.1-.3 3.5-1.1 4-3 2.1-1.3-1.3-1.6-6.6-.6-9.2.7-1.7 3.4-2.2 3.4-.6 0 .5.5 1 1 1 .6 0 1-.9 1-2 0-3.2-5.2-2.7-6.7.7M242.5 424.8c-1.3 1.3-.2 2.2 2.6 2.2 1.9 0 2.9-.4 2.7-1.2-.4-1.2-4.4-1.9-5.3-1M789.7 188c-2.1 1-10.9 4.6-19.5 8-8.6 3.3-16.5 6.5-17.4 7-1 .6-2.4 1-3.1 1s-2.2.7-3.3 1.6c-1.8 1.4-1.8 1.5.6.9 4-1.1 37.9-14.7 44-17.7 3-1.5 4.8-2.7 4-2.7s-3.2.8-5.3 1.9M134.9 203.6c-1.6 2-.1 4.8 3 5.2 2.2.4 2.8 1.7 1.1 2.7-.6.4-1.8.1-2.7-.7-1.4-1.1-1.5-1.1-1.1.2 1.4 4.3 6.8 1.1 6.8-4 0-4.6-4.3-6.7-7.1-3.4m4.9 2.1c-.2 1-1 1.8-1.8 1.8s-1.6-.8-1.8-1.8c-.2-1.2.3-1.7 1.8-1.7s2 .5 1.8 1.7M144.2 203.2c-2.7 2.7.1 7.3 3.6 6.1.8-.3 1 .1.6 1.1-.7 1.9-1.6 2-3.1.5-.7-.7-1.3-.7-1.7 0-.4.5.2 1.4 1.1 2 3.7 1.9 7.2-3.4 5.4-8.3-1.1-2.8-3.9-3.4-5.9-1.4m4.3 2.8c0 .8-.8 1.6-1.7 1.8-1.3.2-1.8-.3-1.8-1.8s.5-2 1.8-1.8c.9.2 1.7 1 1.7 1.8M152.7 202.7c-.2.5-.4 2.8-.3 5.2.1 5 2.4 7.4 5 5.2 1.4-1.2 1.6-3.8.7-10.4-.1-.4-1.2-.7-2.5-.7-1.4 0-2.7.3-2.9.7m4.3 2.3c0 .5-.7 1-1.5 1s-1.5-.5-1.5-1c0-.6.7-1 1.5-1s1.5.4 1.5 1m.8 4.7c.5 1.8-2.8 2.9-3.8 1.2-.5-.7-.6-1.7-.3-2.2.7-1.2 3.5-.5 4.1 1M160.5 203c.3.5 1.5 1 2.6 1 2.3 0 2.4.8.4 3.4-1.7 2.2-2 6.1-.5 5.1.6-.3 1-1.3 1-2.2 0-.8.9-2.7 2-4.3 1.1-1.5 1.7-3 1.3-3.4-1.1-1-7.5-.7-6.8.4M170.3 203.2c-1.4 2.3-1.3 8.5.2 9.8 1.7 1.4 5.5.4 5.5-1.6 0-2.4 5.9-1.8 8 .8 2.7 3.3 5.4 1.4 5.8-3.9.5-6.7-4.7-8.6-6.9-2.6-.7 2.2-1.6 2.8-3.9 2.9-2.6.1-3-.2-3-2.6 0-3.6-4-5.5-5.7-2.8m3.7 2.4c0 .9-.5 1.4-1.2 1.2-1.8-.6-2.1-2.8-.4-2.8.9 0 1.6.7 1.6 1.6m14 2.5c0 3.3-.3 4-1.7 3.7-3.2-.6-3-7.8.2-7.8 1.1 0 1.5 1.1 1.5 4.1m-13.4 1c.9 1.6-1.2 3.3-3.1 2.5-1.4-.5-1.5-.9-.5-2.1 1.5-1.8 2.6-1.9 3.6-.4M193.6 206.4c-3.2 4.3-3.2 4.6-.1 4.6 1.7 0 2.5.6 2.5 1.7.1 1.7.2 1.7 1.3.2 1.3-1.8 1.1-9.9-.3-9.9-.4 0-1.9 1.5-3.4 3.4m2.4 2.1c0 .8-.4 1.5-1 1.5-.5 0-1-.7-1-1.5s.5-1.5 1-1.5c.6 0 1 .7 1 1.5M202.4 204.5c-1.8 1.4-1.8 1.4 0 1.5 1.5 0 1.7.6 1.4 3.5-.2 1.9 0 3.5.4 3.5s.8-2.3.8-5c0-2.8-.1-5-.3-5s-1.2.7-2.3 1.5M209.7 203.7c-.4.3-.7 1.3-.7 2 0 1.2.3 1.1 1.6-.1 1.6-1.6 3.4-1.3 3.4.6 0 .5-1.1 1.9-2.5 3-3.5 2.7-3.2 4.8.5 4.8 1.7 0 3-.5 3-1 0-.6-1-1-2.2-1-2.2-.1-2.2-.1.5-2.1 3-2.3 3.6-5.4 1.1-6.3-2-.8-3.9-.8-4.7.1M226.6 209c.5.5 13.5 1 32.8 1 17.5.1 32.8.5 34 1 1.4.5 2.8 2.7 4 6.1 1 3 2.9 7.8 4.2 10.7s2.4 5.5 2.4 5.8c0 .8 13.6 35.7 16 40.9 3.8 8.5 4.4 12.2 2.6 14.9-2.2 3.4-2 4.5.9 7.2 1.5 1.3 2.5 3.4 2.5 5 0 3.5 2.1 10.4 3.1 10.4 1.6 0 2.9-3.9 2.9-8.4 0-3.9.4-4.7 3-6.3 1.8-1 3-2.5 3-3.8-.1-3.1-4.6-7.6-8.4-8.2-3.5-.5-3.5-.7-9.6-16.2-3.4-8.6-7.1-17.9-8.2-20.6-3.9-9.7-5.7-14.1-8.8-22.5-1.8-4.7-4.2-10.5-5.3-13l-2.2-4.5-35-.3c-22.8-.1-34.6.1-33.9.8m100.1 79.4c-.6 1.5 1.9 3 3.3 2.1.5-.3.6-1.3.3-2.1-.5-1.4-.3-1.5 1.5-.5 1.2.7 2.2 1.6 2.2 2 0 2-7.4 2.9-8.5 1.1-.7-1.2 0-4 1.1-4 .3 0 .4.6.1 1.4m7.7 7.3c-2.2 1.7-8.6 1.2-11-.8-2.3-1.9-1.1-2.1 2.4-.4 3.5 1.8 8 1.1 9-1.3.4-1.3.7-1.3 1-.2.3.7-.4 2-1.4 2.7m-5.7-2.1c-.3.3-1.2.4-1.9.1-.8-.3-.5-.6.6-.6 1.1-.1 1.7.2 1.3.5m1.3 5.4c0 .5-.4 1-1 1-.5 0-1-.5-1-1 0-.6.5-1 1-1 .6 0 1 .4 1 1m-.3 2.7c-.4.3-1 .3-1.4 0-.3-.4 0-.7.7-.7s1 .3.7.7m.3 3.3c0 .5-.4 1-1 1-.5 0-1-.5-1-1 0-.6.5-1 1-1 .6 0 1 .4 1 1m-.3 3.7c-.4.3-.7 0-.7-.7s.3-1 .7-.7c.3.4.3 1 0 1.4M134.7 256.7c-1 .9-.9 23.1.1 23.7.6.4 79.1 1 87.5.7 2.8-.1 2.8-.1 2.5-12.4l-.3-12.2-44.6-.3c-24.5-.1-44.9.1-45.2.5m87.3 11.8V279l-42.2-.2-42.3-.3-.3-10.3-.3-10.2H222z"/><path d="M144 264.6c0 4.1.2 4.5 2 3.9 1.7-.5 2-.2 2 2.4 0 3.1-2.3 4.4-3.3 1.8-.3-.6-.6-.2-.6 1-.1 1.6.5 2.3 1.8 2.3 4.5 0 5.6-7.6 1.4-9.5-3-1.3-2.9-3.1.2-3.9s2.3-2.6-1.1-2.6c-2.2 0-2.4.4-2.4 4.6M155.2 262.5c-1.5 3.2-1.5 9-.2 11.6 1.6 3 4.7 2.4 5.5-1 .7-3.4-.9-7.1-3-7.1-.8 0-1.5-.6-1.5-1.3 0-2.2 1.2-2.8 2.8-1.5 1.2 1 1.4.9 1.1-.7-.6-3-3.4-3-4.7 0m3.8 8.5q0 3-1.5 3t-1.5-3 1.5-3 1.5 3M176.7 260.7c-1.6 1.5-.7 3.4 1.3 2.8s2-.4 1.4 5.9c-.4 3.6-.4 6.6-.1 6.6s1-2.9 1.6-6.5 1.4-7.2 1.7-8c.5-1.1-.1-1.5-2.3-1.5-1.6 0-3.3.3-3.6.7M188.7 260.7c-.4.3-.7 1.8-.6 3.2 0 2.6 0 2.6.9.3.5-1.2 1.4-2.2 2-2.2 1.6 0 1.2 4.3-1 8.8-2.3 4.8-2.1 6 1.2 5.8 1.6-.1 2.4-.8 2.6-2.6.4-2.1.2-2.2-1.2-1.1-2.7 2.2-2.9.6-.6-3.9 1.8-3.5 2-4.8 1.1-6.6-1-2.3-3.1-3.1-4.4-1.7M200.8 265.3c-3.4 6.4-3.4 6.7-.3 6.7 1.8 0 2.4.5 2.2 1.7-.1 1 .2 1.8.8 1.8 1.2 0 1.3-2.2.6-9.6l-.6-5.9zm2.2 2.7c0 1.1-.7 2-1.5 2-1.8 0-1.9-1.2-.3-2.8s1.8-1.5 1.8.8M167.2 267.8c-1.2.2-2 .8-1.7 1.3.8 1.2 6.5 1.2 6.5 0s-2-1.8-4.8-1.3M281 258.9c-3.2 2.7-3.4 3.1-2.1 5.2 1.1 1.9 1.1 2.3-.3 3.1-1.8 1-1.2 5.7.8 7 .6.4.7 1 .3 1.4-.6.6-3.1-1.1-13.6-9.3-.3-.2.5-1.1 1.8-1.9 2.5-1.8 2.6-5.7.1-6.2-2.4-.4-7.9 3.5-10.1 7.3-2.1 3.5-2.1 3.5-17 3.5-9.3 0-14.9.4-14.9 1s5.9 1 15.8 1h15.7l5.9 5.5c4.2 3.9 6.8 5.5 8.7 5.5 4.5 0 5.9 1 8.4 6.1 3.1 6 4.4 6.8 6.6 4 1-1.2 2.3-2 2.8-1.6 1.5.9 8.1-2.2 8.1-3.8 0-.7-.9-2.3-2-3.5-1.3-1.3-2-3.5-2-5.8 0-2.1-.5-6.6-1.1-10.1-.9-5.4-1.6-6.8-4.4-8.8-1.7-1.4-3.4-2.5-3.6-2.5-.3 0-2 1.3-3.9 2.9m6.8 1.9c.3.9-.3 1.3-1.9 1-1.2-.1-2.4-.9-2.7-1.6-.3-.9.3-1.3 1.9-1 1.2.1 2.4.9 2.7 1.6M268 262c0 .5-.9 1.4-2 2-2.2 1.2-2.7.1-.8-1.8 1.4-1.4 2.8-1.6 2.8-.2m16.3 1.4c.9.7 1.7 1.9 1.7 2.6 0 .9-.5.8-1.8-.3-1-1-2.4-1.7-3-1.7-.7 0-1.2-.5-1.2-1 0-1.4 2.2-1.2 4.3.4m-22.6 1.3c-.4.3-1 .3-1.4 0-.3-.4 0-.7.7-.7s1 .3.7.7m29.8 6.9c.5 5.1.4 7.9-.4 8.7-1.6 1.6-1.9.9-2.6-8.1-.7-7-.5-8.2.8-8.2 1.2 0 1.7 1.7 2.2 7.6M284 268c0 1.1-.4 2-.9 2-1.4 0-2.3-1.8-1.6-3 1-1.7 2.5-1.1 2.5 1m-25.3.7c-.4.3-.7 0-.7-.7s.3-1 .7-.7c.3.4.3 1 0 1.4m10.3 1.9c5.3 3.8 5.9 4.8 3.4 5.8-2.7 1-3.8.7-7.6-2.7-4.6-4-4.8-5.4-1.1-6.6.2-.1 2.5 1.5 5.3 3.5m15.8.7c1.9-.1 2.2.4 2.2 3.6-.1 2.9-.3 3.3-1.1 1.8-.5-.9-2.3-2.4-3.9-3.2-3.2-1.7-4.3-4.3-1.2-2.9.9.4 2.7.7 4 .7M277 277c0 .5-.7 1-1.6 1-.8 0-1.2-.5-.9-1 .3-.6 1-1 1.6-1 .5 0 .9.4.9 1m7 1c0 1.1-.4 2-.9 2-1.4 0-2.3-1.8-1.6-3 1-1.7 2.5-1.1 2.5 1m-.2 4c.6 0 1.6-.8 2.1-1.8.9-1.4 1-1.2 1.1 1.2 0 1.7 1 4 2.2 5.3 3 3.2 1.8 2.9-2.6-.6-2.1-1.7-5.3-3.5-7.2-4.1-2.9-1-3.3-1.4-2.3-2.6 1-1.3 1.5-1.2 3.4.6 1.2 1.1 2.6 2 3.3 2m10 2.3c.2 1.1-.3 1.7-1.6 1.7-2.6 0-3.4-1.1-2-2.7 1.4-1.7 3.2-1.2 3.6 1m-10.1 4.9c-.3.7-.5.2-.5-1.2s.2-1.9.5-1.3c.2.7.2 1.9 0 2.5m11.3-1.7c0 .3-.2.5-.5.5s-.5-.2-.5-.5.2-.5.5-.5.5.2.5.5m-8.3 2.2c-.4.3-.7 0-.7-.7s.3-1 .7-.7c.3.4.3 1 0 1.4M282 299c0 2.2.5 4 1 4 .6 0 1-1.8 1-4s-.4-4-1-4c-.5 0-1 1.8-1 4M282 311c0 2.7.5 5 1 5 .6 0 1-2.3 1-5 0-2.8-.4-5-1-5-.5 0-1 2.2-1 5M328 321c0 2.7.5 5 1 5 .6 0 1-2.3 1-5 0-2.8-.4-5-1-5-.5 0-1 2.2-1 5M282 324.9c0 2.8.5 5.3 1 5.6.6.4 1-1.5 1-4.9 0-3.1-.4-5.6-1-5.6-.5 0-1 2.2-1 4.9M282.9 347.4c-.8.9.3 9.6 1.3 9.6.5 0 .8-2 .6-4.5-.4-4.3-1-6-1.9-5.1M367.9 351c1.3 1.1 2.8 2 3.5 2 .6-.1 0-1-1.3-2-1.3-1.1-2.8-2-3.5-2-.6.1 0 1 1.3 2M375.5 357c1 1.1 2 1.8 2.3 1.5.7-.6-1.8-3.5-3.1-3.5-.5 0-.2.9.8 2M283 364.2c0 2.7.5 4.8 1 4.8 1.3 0 1.3-6 0-8-.7-1.1-1-.2-1 3.2M380 360.6c0 .9 3.2 3.3 4.4 3.4.5 0 .1-.9-.9-2-1.8-2-3.5-2.6-3.5-1.4M388.8 368.2c1.2 1.2 2.5 1.9 2.8 1.5.4-.4-.1-1.4-1.2-2.2-2.9-2.2-4.1-1.8-1.6.7M433.4 370.4c-1.2.9-1.5 2-1 3.9.3 1.5-.1 4.6-1 7.2-.8 2.6-1.3 5.4-.9 6.3.6 1.7 2 .4 6.9-6.2 1.4-1.9 2.5-2.4 4.1-2 1.3.3 2.6.1 2.9-.5.4-.6 2.5-1.1 4.7-1.1 2.8 0 3.9-.4 3.9-1.5s-1.1-1.5-4.1-1.5q-4.05 0-7.2-2.4c-4.4-3.2-6.2-3.7-8.3-2.2m3.6 8.7c0 .5-.4.9-1 .9-.5 0-1-.7-1-1.6 0-.8.5-1.2 1-.9.6.3 1 1 1 1.6M283 375.9c0 2.3.5 4.1 1 4.1.6 0 1-1.5 1-3.4s-.4-3.8-1-4.1c-.6-.4-1 1-1 3.4M392.7 372.7c-.4.3-.7 1.3-.7 2.1 0 1.1.3 1.2 1.4.3 1.2-1 2-.9 4 .4 3.2 2.1 3.5.2.4-1.9q-3.6-2.55-5.1-.9M457.6 374.1c-1.7 2.5-.3 5.9 2.6 5.9 1 0 1.8.5 1.8 1.1 0 .7-1 .9-2.5.5-1.9-.5-2.3-.3-1.9.9.7 1.8 3.5 2 5.2.3.7-.7 1.2-2.8 1.2-4.8 0-5.8-3.5-7.9-6.4-3.9m4.4 1.9c0 1.1-.6 2-1.3 2-1.9 0-2.7-1-2-2.6.8-2.1 3.3-1.7 3.3.6M466.5 373.6c-2.1 2.1-1.6 4.6 1.3 5.9 3 1.3 2.8 2.9-.3 2.1-1.9-.5-2.3-.3-1.9.9.8 1.9 3.8 1.9 5.3.1 1.6-2 1.7-7.2.1-9.1s-2.5-1.9-4.5.1m3.5 2.4c0 1.1-.7 2-1.5 2-1.5 0-2.1-2.1-.8-3.3 1.2-1.3 2.3-.7 2.3 1.3M476.5 373.1c-2.4.5-2.5.7-.7.8 2.6.1 2.7.9.7 4.7-1.7 3.4-1.9 5.4-.5 5.4.6 0 1-.6 1-1.3s.9-3 2.1-5.1c2.3-4.4 1.7-5.6-2.6-4.5M483.5 373.3c-2.4 1.9-1.6 6.1 1.3 6.5 1.2.2 2.2.8 2.2 1.4s-1 .8-2.6.4c-1.9-.5-2.5-.3-2.2.6.6 1.8 4.9 2.3 5.9.6.5-.7.9-3 .9-5 0-4.4-2.6-6.5-5.5-4.5m3.5 3.3c0 .8-.7 1.4-1.5 1.4-1.5 0-2.1-2.1-.9-3.3 1-.9 2.4.2 2.4 1.9M490.8 375.5c-2.5 5.6 3.3 11.6 6.4 6.6 1.6-2.7 5.4-2.7 6.8-.1 1.6 3 5.8 2.6 6.6-.6 1.7-6.7-4.5-11.7-6.7-5.5-.8 2.4-1.7 3.1-3.6 3.1-2.6 0-7.7-3.3-6.6-4.4.3-.3 1.3 0 2.1.7 1.3 1 1.4.9 1-.3-.8-2.7-4.7-2.4-6 .5m18 2.8c.2 2.8 0 3.7-1.3 3.7-2 0-2.9-2.3-2.1-5.6.9-3.6 3-2.4 3.4 1.9m-13 2c.2 1.2-.3 1.7-1.7 1.7-1.2 0-2.1-.6-2.1-1.3 0-3.1 3.2-3.4 3.8-.4M512.6 374.6c-1.2 3-.6 4.4 1.6 4.1 1.5-.1 2.3.4 2.6 1.7.3 1.5-.1 1.8-2.2 1.4-1.7-.4-2.5-.1-2.3.6.2.6 1.7 1.1 3.3 1.1 2.4 0 3-.5 3.2-2.7.3-2.2-.2-3-2.2-3.9-2.6-1.2-2.7-3.3-.1-2.2.8.3 1.5 0 1.5-.6 0-1.7-4.7-1.3-5.4.5M529.4 374.5c-1 .7-1.6 1.7-1.2 2.1s1.5.1 2.3-.6c1.2-1 1.9-1 2.7-.2.9.9.4 1.8-2 3.8-4.2 3.5-4 4.4.6 4.3 3.1-.1 3.3-.2 1.3-.8-2.5-.7-2.5-.7.3-3.3 2.9-2.7 2.8-4.1-.3-5.8-1.3-.6-2.4-.5-3.7.5M537.4 374.4c-.3.8-.4 3.1-.2 5.2.3 3.8.4 3.9 4.3 3.9 4 0 4 0 4-4 .1-2.2-.3-4.6-.8-5.3-1.3-1.6-6.6-1.5-7.3.2m6.6 1.5c0 .6-.5 1.3-1 1.6-1.5.9-4.3-.3-3.5-1.5.8-1.3 4.5-1.3 4.5-.1m0 5.1c0 1.1-2.2 1.8-3.8 1.2-.9-.3-1-.8-.2-1.8 1.2-1.3 4-.9 4 .6M522.7 374.6c-.7.8.3 7.7 1.4 8.8.5.6.9-1.2.9-4.2 0-4.7-.7-6.2-2.3-4.6M280.7 375.7c-1.1 1-.8 6.3.3 6.3.6 0 1-1.6 1-3.5 0-3.6-.2-4-1.3-2.8M329.7 376.7c-1.1 1-.8 5.3.3 5.3.6 0 1-1.4 1-3 0-3.1-.2-3.5-1.3-2.3M387.8 379.9c-1.6 1.6-2.4 4.1-1.4 4.1.2 0 1.1.3 2 .6 1.2.4 1.6 0 1.6-1.6 0-1.8 1.2-1.1 7.7 4.7 4.3 3.7 8.4 7.3 9.1 8 4.5 4.2 10.3 8.5 10.9 7.9.3-.3.4-.7.2-.9-3.7-2.7-19.9-16.8-25.2-22-1.6-1.5-2.9-2.7-3-2.6-.1 0-1 .8-1.9 1.8M402 378.6c0 1 4.3 4.5 4.8 3.9.6-.6-2.8-4.5-4-4.5-.4 0-.8.3-.8.6M283 388c0 2.2.5 4 1 4 .6 0 1-1.8 1-4s-.4-4-1-4c-.5 0-1 1.8-1 4M411.5 387c1 1.1 2.3 2 2.8 2 .6 0 .2-.9-.8-2s-2.3-2-2.8-2c-.6 0-.2.9.8 2M419 393.5c1.3 1.4 3.1 2.5 3.9 2.5 1.1 0 .6-.8-1.4-2.5-3.9-3.2-5.5-3.2-2.5 0M426.1 394.1c-2.3 3.7-2.6 4.9-1.3 4.9 1.2 0 4.7-6.8 4-7.6-.4-.3-1.6.9-2.7 2.7M282.5 394c-.3.5.1 1 .9 1 .9 0 1.6-.5 1.6-1 0-.6-.4-1-.9-1-.6 0-1.3.4-1.6 1M429.5 402c1 1.1 2 1.8 2.3 1.5.7-.6-1.8-3.5-3.1-3.5-.5 0-.2.9.8 2M420.5 404c-.8 1.6-1.9 2.9-2.3 2.9-1.9-.3-2.2.3-1.2 2.1 1.1 2.1 4 2.8 4 1 0-.6-.5-1-1.1-1-.5 0-.7-.5-.4-1 .9-1.5 1.8-1.2 4.5 1.3 1.4 1.2 4.1 3.4 6 4.7s4.1 3 4.8 3.7c2.8 2.7 14.3 10.5 14.8 10s-8.1-7.4-21.8-17.7c-5.8-4.3-6.6-5.4-4.8-6.5 1.3-.8 1.3-2.5 0-2.5-.5 0-1.6 1.3-2.5 3M436.8 408.2c1.2 1.2 2.5 1.9 2.8 1.5.4-.4-.1-1.4-1.2-2.2-2.9-2.2-4.1-1.8-1.6.7M330 412.9c0 2.3.5 4.1 1 4.1.6 0 1-1.5 1-3.4s-.4-3.8-1-4.1c-.6-.4-1 1-1 3.4M518.5 411.2c-.3.8-.4 6.6-.3 12.9l.3 11.4 42.5.3c23.4.2 43.5 0 44.7-.3 2.2-.5 2.3-.9 2.3-12 0-6.2-.4-11.6-.9-12-.6-.3-20.6-.8-44.5-1.1-37.3-.6-43.6-.4-44.1.8m86.7 6.3c.2 2.5.1 7-.2 10.1l-.5 5.5-41.4-.1c-22.8 0-41.7-.3-42-.6s-.6-4.8-.6-10V413h84.3z"/><path d="M528.6 415.5c-2 2.1-2.2 11.3-.2 14 1.4 1.9 1.5 1.9 3.5.1 2.8-2.5 2.6-5.1-.4-8.2-3-3-3.2-4.8-.5-3.9 2.3.7 2.7-.7.6-2.4-1.1-.9-1.8-.8-3 .4m2.9 9.5c0 1.3-.6 2.5-1.2 2.7-.9.3-1.3-.6-1.3-2.7s.4-3 1.3-2.8c.6.3 1.2 1.5 1.2 2.8M539.9 415c-2.3 1.3-2.5 14.5-.3 15.4 3.8 1.5 5.4-1.2 4.9-8.7-.3-5.5-2.1-8.1-4.6-6.7m2.3 2.2c.6 1.7-.1 3.8-1.3 3.8-.5 0-.9-1.1-.9-2.5 0-2.6 1.4-3.4 2.2-1.3m.8 8.8c0 1.1-.7 2-1.5 2s-1.5-.9-1.5-2 .7-2 1.5-2 1.5.9 1.5 2M561.8 415.7c-1.5 1.8-2 11-.6 13.5 1.2 2.5 3.5 2.2 5.3-.6 1.3-1.9 1.4-2.9.5-4.6-.6-1.1-.8-2.5-.5-3.1 1-1.5-.3-5.6-1.9-6.2-.8-.3-2 .1-2.8 1m3.2 2.8c0 1.6-.6 2.5-1.5 2.5-1.5 0-2.1-3.1-.8-4.3 1.3-1.4 2.3-.6 2.3 1.8m1 7.5c0 2.3-2.9 3.5-3.6 1.5-.4-.8-.4-2.2 0-3 .7-2 3.6-.8 3.6 1.5M572.6 416.2c-2.7 3.8-1.7 14.8 1.4 14.8 1.6 0 4-3.1 4-5.1 0-1.1-1.1-3.1-2.5-4.5-3-3-3.2-4.8-.5-3.9 2.3.7 2.7-.7.6-2.4-1.1-1-1.7-.7-3 1.1m3.4 9.4c0 1.5-.6 2.4-1.5 2.4-1.5 0-2.1-4-.9-5.3 1.2-1.1 2.4.3 2.4 2.9M583.2 415.2c-.6.6-1.2 2.7-1.2 4.6 0 2.9.3 3.3 2.3 3 1.6-.2 2.3.3 2.5 1.7.3 2.5-1.7 5.6-2.5 3.7-.6-1.6-2.3-1.5-2.3.2 0 1.6 2.4 2.8 4.4 2 2.1-.8 2.7-5.6 1-8.2-.8-1.2-1.9-2-2.4-1.7-.6.4-1 0-1-.8s.9-1.7 2.1-2 1.9-1.2 1.7-1.9c-.6-1.8-3.1-2.1-4.6-.6M549 423c0 .5 1.6 1 3.5 1s3.5-.5 3.5-1c0-.6-1.6-1-3.5-1s-3.5.4-3.5 1M442.1 411.9c.3.8 1.6 2.1 2.9 3 1.8 1.2 2.2 1.3 1.9.2-.3-.8-1.6-2.1-2.9-3-1.8-1.2-2.2-1.3-1.9-.2M493.6 415.5c-.4 1.2-1.4 1.4-4.1.9-4.4-.8-7.5 1.6-7.5 5.8 0 1.5-.4 2.8-1 2.8-1.5 0-7 6.1-7 7.8 0 1.2.9 1.3 4.8.7 2.6-.4 7.2-.8 10.2-.9 4.9-.1 5.5-.4 7-3.1.8-1.7 1.6-3.2 1.8-3.4.1-.3 4.4-.5 9.5-.5 10.7-.1 12.7-1.9 2.5-2.4-6.3-.3-6.6-.4-7.3-3-.4-1.5-1.4-3.5-2.2-4.5-2-2.1-5.9-2.2-6.7-.2m4.6 2.2c1.9 1.7 2.5 6.3.7 6.3-.6 0-.9-.6-.6-1.3.6-1.8-1.1-4.7-2.8-4.7-.8 0-1.5-.5-1.5-1 0-1.5 2.1-1.2 4.2.7m-7.1 3.4c3.3 3.5 4 9.3 1.3 10.3s-3.6-.4-1.9-3c2.2-3.4.2-6.7-3.7-6.1-2.1.3-2.8-.1-2.8-1.3 0-4 3.3-4 7.1.1m5.9-.1c0 .5-.2 1-.4 1-.3 0-.8-.5-1.1-1-.3-.6-.1-1 .4-1 .6 0 1.1.4 1.1 1m-7.4 4.2c.7 1.1-2.9 4.8-4.6 4.8-1.6 0-2.3-4.2-.9-5.1 2-1.2 4.7-1.1 5.5.3M482 430c0 1.6-.7 2-3.2 2-3 0-3.1 0-1.3-2 1-1.1 2.4-2 3.2-2 .7 0 1.3.9 1.3 2M450 418.5c0 .3.9 1.4 2.1 2.6 1.5 1.5 1.8 2.4 1 3.2-1.5 1.5-1.4 5 .1 4.5 2.4-.8 2.7-5.6.6-8.3-1.7-2.2-3.8-3.3-3.8-2M407 427.9c-1.7 3.3-1.1 4.7 1 2.1 1.1-1.4 2-2.8 2-3.3 0-1.4-2-.7-3 1.2M448 431.9c0 1.9 2.3 3.5 3.4 2.4 1.4-1.5.5-4.3-1.4-4.3-1.3 0-2 .7-2 1.9M468.7 434.6c-.4.4-.4 1-.1 1.5.6 1 3.4 0 3.4-1.2 0-1-2.4-1.2-3.3-.3M461.8 438.8c-2.4 1.4-3.7 3.2-2.5 3.2 1.3 0 6.7-3.3 6.7-4.1 0-1.3-1.1-1.1-4.2.9M451 445.2c-4.6 2.8-2.3 3.5 2.4.7 2-1.1 3.6-2.3 3.6-2.5 0-1-2.8-.2-6 1.8M391.1 456.6c-.6 1.5-.9 2.9-.6 3.2.7.7 3.4-2.9 3.5-4.6 0-2.1-1.6-1.3-2.9 1.4M385.9 466.4c-2 3.4-2.4 3.6-5.5 3-4.2-.8-6.8 1-6 4.1 1 4-2.8 5.9-13.2 6.5-5.1.3-9.1.9-9 1.4.2.5 4.4.8 9.3.7 9.1-.2 9.1-.2 10 3.1.7 2.3 1.9 3.6 3.9 4.3 2.6.9 3.2.6 7.1-3.8 2.4-2.6 5-4.7 5.9-4.7 2.5 0 1.9-4.8-.9-7.4-2.6-2.4-2.6-2.4-.4-6 1.2-2 1.9-3.9 1.6-4.3-.4-.3-1.6 1.1-2.8 3.1m-6.2 5.3c-.4.3-1 .3-1.4 0-.3-.4 0-.7.7-.7s1 .3.7.7m7 6.3c.7 0 1.3.4 1.3 1 0 .5-.6 1-1.3 1-1.9 0-10.7-5.8-10.7-7 0-.5 2.1.4 4.7 2 2.6 1.7 5.3 3 6 3m-3.7-4.5c0 .3-.2.5-.5.5s-.5-.2-.5-.5.2-.5.5-.5.5.2.5.5m3.7 2.2c-.4.3-1 .3-1.4 0-.3-.4 0-.7.7-.7s1 .3.7.7m-6.2 3c3.6 1.7 4.6 3.3 2.1 3.3-.8 0-2 .2-2.8.5-2.1.8-5.2-1.9-4.5-3.9.8-2 .8-2 5.2.1m-3.9 4.7c1.6 1.7.8 4.6-1.2 4.6-1.8 0-2.8-2.4-2-4.5.7-1.9 1.4-1.9 3.2-.1m3.1 3.3c-.4.3-.7 0-.7-.7s.3-1 .7-.7c.3.4.3 1 0 1.4M261 479.4c0 8.4.4 11.7 1.4 12.5.9.8 13.5 1 44.6.9l43.2-.3.1-11.1c0-6.1-.3-11.6-.7-12.2-.5-.9-12.3-1.2-44.7-1.2H261zm86.8 1.5.3 10.4-26.3-.6c-14.5-.4-33.4-.7-42-.7H264v-20l41.8.2 41.7.3z"/><path d="M270.7 473.2c-.2.7-.2 2.7 0 4.4.4 2.5.9 3.1 2.4 2.7s1.9 0 1.9 2c0 3-1.8 4.6-3.1 2.6-1-1.7-2.3-.5-1.6 1.6.4.8 1.8 1.5 3.1 1.5 1.9 0 2.7-.7 3.2-2.5 1-3.9-.3-7.5-2.7-7.5-1.4 0-1.9-.5-1.7-1.8.2-.9.9-1.8 1.6-1.8.6-.1 1.7-.2 2.3-.3.5 0 .7-.6.4-1.1-.9-1.4-5.2-1.2-5.8.2M282 474.6c-1.4 3.6-1.2 9.7.4 11.9 1.7 2.4 4.3 1.4 5.2-2 .8-3.3-.1-5.6-2.6-6.2-2.1-.6-2.7-2.8-1.1-3.8.5-.3 1.2-.1 1.6.5s1.1.8 1.6.4c1.3-.8-.8-3.4-2.7-3.4-.8 0-1.9 1.2-2.4 2.6m3.8 7.9c-.2 1.4-.7 2.6-1.3 2.6-.5 0-1.1-1.2-1.3-2.6-.2-1.8.1-2.5 1.3-2.5s1.5.7 1.3 2.5M303.6 473.6c-.4.9-.3 2 0 2.3.4.3.9 0 1.1-.7.3-.6.9-1.2 1.4-1.2 1.3 0 1.1 3.4-.3 4.8-.9.9-.8 1.5.6 2.5 1.1.8 1.5 1.9 1 3-.8 2.1-2 2.2-2.8.1-.3-.8-1-1.3-1.6-.9-1.4.8 1.1 4.5 3.1 4.5 2.3 0 4.2-4.6 2.9-7.1-.6-1.1-.8-2.4-.5-3 .4-.5.4-2.1.1-3.5-.7-2.8-4-3.3-5-.8M314 476.5c0 4.2.2 4.6 2 4 1.7-.5 2-.2 2 2.4 0 3-1.3 4.1-2.5 2.1-1-1.5-2.5-.2-1.8 1.6.3.9 1.5 1.4 3.2 1.2 2.3-.3 2.6-.7 2.6-4.3 0-3.2-.5-4.2-2.3-5-2.7-1.2-2.4-2.9.7-3.3 3-.5 2.1-2.6-1.2-3-2.6-.3-2.7-.1-2.7 4.3M324.5 473.1c-.4.6-.4 2.6 0 4.5.4 2.5 1.1 3.4 2.3 3.2s1.8.5 2 2.4c.2 2-.1 2.8-1.2 2.8-.8 0-1.6-.6-1.9-1.3-.2-.6-.8-.9-1.2-.5-1.4 1.4.5 3.8 2.9 3.8 1.9 0 2.7-.7 3.2-2.6.8-3.1-1-7.4-3.1-7.4-.8 0-1.5-.7-1.5-1.5s.9-1.5 2-1.5 2-.7 2-1.5c0-1.7-4.5-2.1-5.5-.4M292 480.4c0 .8 6.1 1.2 6.6.4.3-.4-1.1-.8-3-.8-2 0-3.6.2-3.6.4M92.4 489.3c-.2.7-.3 6.5-.2 12.8l.3 11.4 21.8.3 21.7.2v20.8l-5.2 2.7c-4.1 2.2-5.5 2.5-7.4 1.6-1.9-.8-2.8-.6-5.3 1.8-1.7 1.6-3.1 3.4-3.1 4.1 0 .6-1.6 1.8-3.5 2.5-6.3 2.7-7.5 4.9-7.5 13.7 0 6.6.3 8 1.8 8.5.9.4 1.9.9 2.2 1.3.3.3 3.4 2.1 7 3.9 7.6 4 10.3 5.6 18.8 10.5 6.2 3.7 6.2 3.7 6.2 9.6 0 3.2.5 6.2 1 6.5 2.3 1.4.9 2.7-2.5 2.2-4.1-.7-4.6-.1-.9 1.3 3.3 1.3 5.8 0 7.4-4s-.1-10.4-3.3-12.4c-5.9-3.6-26.7-15.7-30.5-17.6-2.3-1.2-4.7-3-5.2-4-1.3-2.3-1.3-5-.1-5 .5 0 7.2 3.6 14.8 8.1 16.6 9.7 17.1 9.9 20.4 12.1 1.4 1 2.9 1.5 3.2 1.2 1.1-1.2 3.6 4.2 3.7 8.1.5 14 .6 13.4-2.2 16.2-3 2.9-2.5 3.1-21.3-7.4-3.3-1.9-8.4-4.6-11.2-6-5.2-2.6-6.5-4.7-4.3-6.9.7-.7.4-1.6-1-2.9-2.6-2.4-2.6-6.3.2-9.2 1.2-1.3 1.6-2.3 1-2.3s-2.1 1-3.2 2.2c-1.7 1.8-2 3.2-1.7 6.3 1.2 9.3 1.9 10.8 7.2 13.6 5.3 2.9 13.8 7.6 22.5 12.3 7.6 4.2 8.7 4.6 10.8 3.4 4.4-2.3 5.5-6.1 4.7-16.5-.6-8.4-.9-9.5-3.1-11-2.3-1.5-2.4-2-2.4-12.8 0-8.1.4-12.1 1.5-14.1 2.1-4.1 2.1-21.7 0-23.8-1.2-1.1-2.2-1.3-4-.6-2.5 1-2.5 1-2.5-8.6v-9.5l21 .2c11.6.1 21.3-.1 21.7-.4.3-.4.6-6 .6-12.4l-.1-11.8-7.3-.6c-4.1-.3-24.2-.7-44.7-.8-30.2-.1-37.3.1-37.8 1.2m86.4 2.2c.8.3 1.2 3.3 1.2 10.5v10l-42.2-.2-42.3-.3-.3-9.4c-.1-5.2-.1-10 .2-10.6.3-.9 10.5-1.1 41.3-.8 22.4.2 41.4.6 42.1.8M142 535.4c0 .8-1.2 2.1-2.7 2.9-3.2 1.6-10.4 5.6-18.3 10.1-3 1.8-7 3.8-8.8 4.5-1.8.8-3.9 2.3-4.7 3.5-1.5 2-1.5 2-1.5-.5 0-2.9 2-5 6.7-6.8 1.9-.8 3.6-2.5 4.4-4.2 1.5-3.8 4.2-5.3 6.6-3.8 1.5.8 3.3.3 9.3-3 8.4-4.5 9-4.7 9-2.7m2.9 11.3c-.2 9.2-.6 8.2-1.1-2.5-.2-3.4 0-6.2.5-6.2.4 0 .6 3.9.6 8.7M142 560c0 11-.4 20-.8 20s-2.8-1.3-5.3-2.8c-2.4-1.5-9.5-5.7-15.6-9.2-10-5.7-11.3-6.7-11.3-9.1 0-2.5 1.1-3.3 10.8-8.3 5.9-3 12.5-6.6 14.7-8 7.7-4.7 7.5-5.2 7.5 17.4m2 37.7c0 1.8-.4 3.3-1 3.3-.5 0-1-2.1-1-4.8 0-3.4.3-4.3 1-3.2.5.8 1 3 1 4.7"/><path d="M102 496.5c0 3.8.3 4.5 1.7 4.3 1.9-.3 2.9 2.3 1.9 4.9-.5 1.2-.9 1.3-2.1.3s-1.5-.9-1.5.4c0 2.2 2.7 3.1 4.5 1.6 2.8-2.3 1.2-10-2-10-2.4 0-1.7-2 1.1-3 3-1.2 2.3-3-1.2-3-2.2 0-2.4.4-2.4 4.5M114.3 497.5c-2.8 5.5-2.9 7.5-.4 7.5 1.2 0 2.1.8 2.3 2 .5 3.3 2.2 2.8 2.1-.5-.1-10.4-.4-13.5-1-13.5-.5 0-1.8 2.1-3 4.5m1.3 4.2c-1 1-1.9-.5-1-1.8.6-1.1.8-1.1 1.2 0 .2.7.1 1.5-.2 1.8M135.8 498.2c-2.9 5.6-2.8 6.8.3 6.8 1.5 0 1.9.6 1.7 2.2-.2 1.1.3 2.3 1 2.5 1.3.5 1.6-1.9 1.2-10.2-.1-2.8-.5-5.3-.9-5.7s-1.9 1.6-3.3 4.4m1.8 4.5c-1.1 1.1-1.9-.6-1.1-2.4.8-1.7.8-1.7 1.2 0 .3 1 .2 2.1-.1 2.4M145.1 494.8c-.6 1.1-.6 2.4.1 3.6.7 1.3.7 2.5-.2 4.2-1.1 1.9-1 2.7.4 4.9 2.1 3.2 3.9 3.2 5.6 0 1-1.8 1.1-3.1.3-4.8-.7-1.5-.7-2.9-.2-4 1.3-2.2-.6-5.7-3.1-5.7-1.1 0-2.4.8-2.9 1.8m4.4 2.7c0 1-.5 2-1.1 2.2-1.3.4-2.7-2.4-1.8-3.8.9-1.5 2.9-.4 2.9 1.6m.5 7c0 2.5-2.3 3.5-3.5 1.5-1-1.6.2-4 2-4 .9 0 1.5.9 1.5 2.5M157.2 494.2c-.7.7-1.2 3.7-1.2 6.7.1 10.1 5.1 12.1 6.6 2.6.9-6.5-2.4-12.3-5.4-9.3m3.4 3.2c.8 3.5.1 8.9-1.3 9.4-1 .3-1.3-1.3-1.3-5.7 0-6.1 1.4-8.2 2.6-3.7M123 501c0 .5 1.6 1 3.5 1s3.5-.5 3.5-1c0-.6-1.6-1-3.5-1s-3.5.4-3.5 1M120 544c0 1.1.7 2 1.5 2s1.5-.9 1.5-2-.7-2-1.5-2-1.5.9-1.5 2M332.7 556.8c-.9 1-2.3 3.6-3 5.8-1.2 3.3-2.1 4.1-6 5.5-7.1 2.6-11.1 5.2-11.7 7.9-.4 1.8-3.2 3.8-12.3 8.4l-11.7 6.1v12h-6.2c-5 0-6.3.3-6.6 1.7-.4 2.3 33.7 19.9 39.3 20.3 2.9.1 7.2 2 14.5 6.2 6.1 3.5 12.2 6.2 14.5 6.5 2.2.3 7.2 2.4 11 4.6 4.4 2.5 10.9 5 17.5 6.7 15.1 3.9 17.6 4.9 27.6 10.6 13.7 8 40.4 23.3 45.4 26.1 2.5 1.4 6.5 3.7 9 5.1 2.5 1.5 6.4 3.6 8.7 4.8s11.5 8.2 20.5 15.6c9 7.3 20.9 16.1 26.5 19.5 5.6 3.3 10.6 7.1 11.3 8.2.9 1.8 7.7 6.2 19.7 12.9 1.8 1.1 4.2 3.2 5.3 4.8 1.7 2.3 12.9 9.6 27.6 17.9 7 4 7.9 4.5 9.1 5.7.8.7 2.1.9 3.1.5 3.1-1.4 8.2-4.7 8.2-5.4 0-.4-2.7-2.6-6-4.8-4.9-3.3-6-4.6-6-6.8 0-4 1.6-5.6 10-9.8 4.1-2 8.6-4.5 10-5.5 1.4-.9 5-2.2 8.1-2.7 7-1.3 15.9-6.7 15.9-9.6.1-3.9 2.5-11.4 4.4-13.5 1-1.1 1.6-2.7 1.4-3.7-.1-.9-4.8-4.2-10.3-7.3-8.3-4.7-10.1-6.1-10.3-8.3-.5-4.5-2.6-5.2-17.6-6.4-30.5-2.5-64.3-11.2-91.3-23.5L498 671v-27.5c0-22.4-.2-27.5-1.4-27.5-1.1 0-1.2 4.7-.8 26.5.4 21.1.2 26.5-.8 26.5-.7 0-6.1-2.6-11.9-5.7s-11.9-6.3-13.6-7.1c-7.2-3.6-8.6-5.1-7.9-8.8 1.2-6.5-4.7-9.3-13.1-6.3-3.1 1.2-3.7.8-21.6-11.1-10.1-6.8-18.6-12.7-18.9-13s-2.1-1.7-4-3c-4.1-2.9-3.5-2.3-14.7-12.5-11.3-10.3-19.7-19.9-27.4-31.6-3.4-5.2-6.4-9.6-6.5-9.8-.2-.2-1.7.2-3.4.9-2.8 1.1-3.6.9-9.9-2.4-3.8-2-7.1-3.6-7.3-3.6-.3 0-1.2.8-2.1 1.8m9.3 3.8c4.6 2.4 6.7 5.4 3.8 5.4-1.6 0-11.8-6.2-11.8-7.2 0-1.5 3-.8 8 1.8m0 6.6c0 .4-.7.8-1.6.8s-2.3.9-3.2 2c-1.7 2-1.7 2-4.5-.2-2.6-2.1-2.7-2.6-1.7-5.5 1.2-3.2 1.2-3.2 6.1-.6 2.7 1.5 4.9 3.1 4.9 3.5m16 0c6.8 12.4 29.2 37 43 47.1 3.6 2.7 7.2 5.4 8 6.1 7.5 6 40.7 27 60 37.8 37.9 21.3 71.8 33.5 106 38.2 25.5 3.5 25.6 3.6 15.4 3-12.4-.6-26.3-2.8-40.8-6.4-12-2.9-29.2-8.1-33.1-9.9-1.1-.5-5-2.1-8.6-3.4-16.3-6.3-41.6-19.6-63.9-33.7-13.4-8.5-15-9.5-24.2-15.9-21.6-15-38.2-29.5-51.3-44.6-3.9-4.5-14.5-20.2-14.5-21.4 0-2.3 1.7-.9 4 3.1m-.6 5.9c3.3 5 7.5 10.9 9.5 13.2 4.1 4.9 21.5 22.3 25.1 25.2 1.4 1.1 4.7 3.8 7.4 6 5.9 4.8 15.5 11.5 33.6 23.6 7.4 4.9 14 9.3 14.5 9.7.6.5 3.5 2.2 6.5 3.9 3 1.6 8 4.5 11 6.3 11.8 7.1 20.2 11.2 40.5 19.9 6.7 2.9 19.3 7.4 27 9.7 5 1.4 10.3 3 11.9 3.5 11.3 3.4 37 7.5 52.9 8.5 11.6.7 11.7.7 11.7 3.2 0 2-.4 2.3-2.2 1.8-6.7-1.9-8-1.9-11 .4-2.9 2.1-3.4 2.2-15.6 1.4-7-.5-13.3-.8-13.9-.7-.7 0-1.3-.3-1.3-.9 0-.5 4.2-.6 10.8-.2 15.2 1 15.7 1 16-.1.1-.6-5.4-1.5-13.5-2.2-11.7-.9-13.9-.9-14.6.3-1.2 2.1-3.2 1.7-4.6-1-2.3-4.2-5.5-5.2-10.4-3.4-4.2 1.5-4.5 1.5-15.2-1.9-6.1-1.9-14.7-4.9-19.3-6.6-6.9-2.6-8.2-3.4-7.8-4.9 1-4.1-8.8-8-12-4.8-1.6 1.6-11.4-3.7-11.4-6.1 0-1.2-1.1-2.3-2.7-3-4.7-1.7-21.3-10.1-30.1-15.1-4.6-2.7-8.5-4.8-8.7-4.8-.8 0-11-6.6-11.3-7.3-.2-.4-.8-.7-1.4-.7s-3.9-2-7.5-4.5c-5.2-3.6-6.8-4.3-7.9-3.4-2.1 1.7-1.8 8.6.6 11.1 1.1 1.2 1.8 2.3 1.6 2.5-.1.2-3.6-1.6-7.7-4.1-8.1-4.8-12.2-6.2-27.4-9.6-10.8-2.4-12.5-3.2-45-21.5-6-3.4-12.6-7.1-14.5-8.2s-8.7-4.8-15-8.3-12.3-6.9-13.3-7.6c-1.7-1.1-.7-1.9 9.1-6.9 8.7-4.4 11.2-6.2 12-8.3.9-2.5 5.7-5.7 11.5-7.6 1.6-.5 7.7 1.8 7.7 2.9 0 .2-5.2 3.5-11.5 7.2s-11.5 7-11.5 7.3 3 2 6.6 3.8c6.5 3.2 6.6 3.3 4.8 5.3-1.3 1.4-1.5 2.5-.9 3.5 1 1.5 11.2 7.4 25.9 15 6.9 3.6 6.9 3.6 10.7 1.6s3.8-2 11.6 5.3c7.7 7.3 7.9 7.4 17.3 9.7 5.2 1.2 10.4 2.2 11.5 2 1.1-.1 3.8 1.4 6 3.3 4.1 3.6 5.5 4.2 5.5 2.5 0-.6-2.9-3.1-6.4-5.7-5.8-4.2-6.4-5-5.9-7.4.4-2.1 0-3-1.5-3.8-2.7-1.4-9.6 0-10 2-.3 1.6 6.6 5.8 9.6 6 1 0 1.2.3.6.5-2.1.9-16.7-3.5-20.4-6.1-4.1-2.9-20-18.9-27.5-27.9-2.8-3.2-5.6-6.5-6.4-7.3-1.1-1.2-1.1-1.6.5-2.8 2.5-1.9 2.7-1.9 4.4.9 4.7 7.4 9.4 13.5 10.8 14.1 1.1.4 2.6-.4 4.5-2.5 2.7-3 2.7-3.3 1.2-5.3-.8-1.2-1.8-2.9-2.2-3.7s-1-1.7-1.3-2c-.4-.3-2.9-3.8-5.5-7.9-2.6-4-5.6-7.6-6.6-7.8-1.1-.3-1.9-.9-1.9-1.3 0-.5-.8-1-1.7-1.3-1.3-.3-.9-.6 1.2-1.2 1.7-.5 3.6-1.7 4.3-2.7s1.6-1.8 2-1.8 3.4 4.1 6.6 9.1m-14.9-.1c-.3.5-1.5 1-2.6 1-1 0-1.9-.5-1.9-1 0-.6 1.2-1 2.6-1s2.3.4 1.9 1m2 2c.3.5.1 1-.4 1-.6 0-1.1-.5-1.1-1 0-.6.2-1 .4-1 .3 0 .8.4 1.1 1m-9.1 1.3c-.3.8 1 2.4 3 3.8 2 1.3 3.6 2.9 3.6 3.4 0 1.2-6.9 5.1-8.3 4.7-.4-.1-2.1.7-3.7 1.8-3.6 2.5-5.2 2.5-11.2-.2-4.8-2.2-5.5-3.4-2.7-5 17.1-9.8 20.4-11.2 19.3-8.5m3.3 1.4c-.4.3-.7 0-.7-.7s.3-1 .7-.7c.3.4.3 1 0 1.4m4.1-.5c.7.7 1.2 1.6 1.2 2 0 1.5-1.5.8-2.8-1.2-1.3-2.2-.3-2.7 1.6-.8m6.2-.2c0 .5-.5 1-1.1 1-.5 0-.7-.5-.4-1 .3-.6.8-1 1.1-1 .2 0 .4.4.4 1m6.9 9.8c6.2 9.5 6.7 11.8.8 3.7-6.5-9-8-11.5-6.9-11.5.5 0 3.3 3.5 6.1 7.8m-5.1-2.1c3.9 5.2 4.8 7.3 3.4 7.3-.5 0-1.7-1.6-2.7-3.6-.9-1.9-2.7-4-4.1-4.6-2.5-1.1-2.9-2-1.7-3.1 1.1-1.2 1.7-.7 5.1 4M349 587c0 .5-.2 1-.4 1-.3 0-.8-.5-1.1-1-.3-.6-.1-1 .4-1 .6 0 1.1.4 1.1 1m-13 4.1c0 .4-.8 1-1.8 1.3-1.1.4-3 1.8-4.3 3.2-3.2 3.4-2.2 4.5 8.1 10.1 15.1 8.1 14.1 7.7 17.2 6.5 3.7-1.4 4.5.1 1.2 2.3-2.9 1.9-3.6 1.6-21.4-8-11-5.9-13.2-7.4-12.8-8.6.5-1.6 10.2-7.7 12.1-7.6.9.1 1.7.4 1.7.8m5.2 1.4c.1 1.7-6.2 4.9-7.3 3.8-.7-.7.1-1.7 2.3-3.1 3.4-2.2 4.9-2.4 5-.7m16.8 3c0 2.2-2.9 2.6-4 .5-.8-1.5-.6-1.9.8-2.3 2.2-.5 3.2.1 3.2 1.8m-56.8 3.9c5.1 2.9 11.6 6.6 14.3 8.1 2.8 1.6 8.2 4.6 12 6.8 3.9 2.2 10.1 5.6 13.8 7.7 6.1 3.3 8.2 5 6 5-.5 0-5.2-2.5-10.6-5.4-9.1-5-10-5.3-12.4-4.1-2.4 1.3-3.3 1-12.7-3.9-12.2-6.3-13.4-6.8-14.1-5.6-.3.5 3.7 2.9 9 5.5 5.2 2.5 9.5 5 9.5 5.6s.6.9 1.2.7c.7-.3 1.9.4 2.8 1.4 2.7 3.3 21.3 13 23 12 1.4-.9 8.5 2.4 15 6.8 1.4 1 5.4 2.5 9 3.5 3.6.9 10.5 2.7 15.3 4 7 1.9 11.7 4.1 23.5 11.2 8.1 4.8 15.6 9.3 16.7 9.9s6.5 3.8 12 7.1 12.5 7.3 15.5 9c11.1 6.2 15 8.5 15 8.9 0 .6-4.6-1.8-13-6.6-3.6-2-8.7-5-11.5-6.5-13.3-7.5-18.4-10.4-23.5-13.5-3-1.8-7.1-4.2-9-5.3s-7.1-4-11.5-6.5c-5.3-3-11.6-5.5-18.5-7.3-15.5-4.1-16.2-4.4-25.2-9.1-4.6-2.5-9.1-4.3-10-4.1-1 .3-4.8-1.2-8.5-3.2-3.8-2.1-9.3-5-12.2-6.6-3-1.6-5.7-3.3-6.1-3.8-.3-.5-1.2-.9-2-.8-1.9.2-31.9-14.5-32-15.7 0-.4 1-.5 2.3-.2 5 1.6 5.2 1.4 5.5-4.7.2-3.1.7-5.7 1.2-5.7.4 0 5 2.4 10.2 5.4m46.8.7c2.3 2.7 4 5.2 3.7 5.5-.5.6-13.7-6.5-13.7-7.3 0-.9 3.4-3.2 4.6-3.3.6 0 3 2.3 5.4 5.1m-6.5 2.8c9.7 5.5 11.8 7.1 9.3 7.1-1.9 0-19.8-10.1-19.8-11.2 0-1.5 1.6-.8 10.5 4.1m18.5-4.5c0 .3-.4.8-1 1.1-.5.3-1 .1-1-.4 0-.6.5-1.1 1-1.1.6 0 1 .2 1 .4m-79 8.1c0 .3-.2.5-.5.5s-.5-.2-.5-.5.2-.5.5-.5.5.2.5.5m2 1c0 .3-.2.5-.5.5s-.5-.2-.5-.5.2-.5.5-.5.5.2.5.5m72.8 1.7c-.5 1.5-2.3 1.1-2.6-.6-.2-1.1.2-1.4 1.3-1 .9.4 1.4 1.1 1.3 1.6m-19.4 14.4c4.7 2.5 8.6 4.9 8.6 5.2 0 .4-.9 1.2-1.9 1.9-1.6 1-3.4.4-11.5-4-5.2-2.9-9.6-5.5-9.6-5.9 0-.6 2.2-1.4 4.6-1.7.7 0 5.1 2 9.8 4.5m54.1 1.4c-.3.5-1 1-1.6 1-.5 0-.9-.5-.9-1 0-.6.7-1 1.6-1 .8 0 1.2.4.9 1m4.5-.5c0 .3-.2.5-.5.5s-.5-.2-.5-.5.2-.5.5-.5.5.2.5.5m-36.5 7.2c7.6 4.2 8.9 5.9 5.2 6.8-1.8.5-4.6-.5-10.1-3.3-7.5-3.9-7.5-4-5.3-5.5 1.2-.9 2.5-1.6 2.8-1.6.3-.1 3.7 1.6 7.4 3.6m25 9.2c14.1 3.4 14.7 3.8 10.2 5.8-1.9.9-4.6.5-12.8-1.8-5.7-1.5-11.4-2.8-12.6-2.9-1.3 0-2.3-.6-2.3-1.4 0-3.1 3.2-3 17.5.3m32.5.1c0 .5-.4 1-1 1-.5 0-1-.5-1-1 0-.6.5-1 1-1 .6 0 1 .4 1 1m40.5 5c.8 0 1.5-.7 1.5-1.6 0-.8.5-1.2 1-.9 1.5 1 1.2 4.5-.5 5.1-.9.4-3.5-.6-5.8-2.2-4.1-2.7-4.1-2.8-1.7-3.4 1.9-.5 2.7-.2 3.2 1.2.4 1 1.4 1.8 2.3 1.8m-36.7-1.4c2.1 1.5 2.2 1.7.6 2.8-1.5 1.2-1.5 1.4.1 3 1.3 1.3 2 1.4 3.1.5.8-.6 1.1-1.5.8-2s-.1-.9.4-.9.9 1.3.9 2.9c0 2.8-.1 2.8-3.1 1.9-4.4-1.5-6.5-3.6-4.7-4.7 1.9-1.2.3-3.4-2-2.8-2.1.6-2.6-.8-.6-1.6 1.9-.8 2.1-.8 4.5.9m-12.2 5.4c3.6 2.2 6.7 4 6.9 4s3.3 1.8 7 4.1c3.7 2.2 8.3 4.9 10.1 6 7 4 10.1 5.7 15.4 8.9 3 1.8 8 4.6 11 6.2 7 3.7 17 9.8 17 10.3 0 .3-1.4 1.1-3 2-3.4 1.8-.6 3-25-11-19.9-11.4-42.1-24.5-45.2-26.6-1.5-1.1-3.1-1.9-3.5-1.9s-1.7-.7-2.7-1.5c-2-1.5-2-1.5 0-3 2.9-2.2 4.9-1.8 12 2.5m23.4 3.1c0 .5-.7.9-1.5.9-1.5 0-2-1.2-.9-2.3.8-.8 2.4.1 2.4 1.4m-4.7 2.5c1.7.4 3.8.1 5.3-.7 3.1-1.6 5.7-.3 6.2 3 .3 1.8.9 2.2 3.5 1.9 3-.3 3.2-.1 2.9 2.9-.3 2.9.1 3.4 6.4 6.9 6.6 3.7 6.8 3.7 9.6 2.1s3.1-1.6 9.1 1.5c3.4 1.7 6.8 3.9 7.5 4.9.7 1.1 1.9 1.9 2.6 1.9 3.4 0 10.9 5 17.7 12 7.6 7.8 7.6 7.8 21 12.3 11.6 3.9 26.7 8.2 36.2 10.2 3.2.6 3.5 2.1.7 3-1.1.3-2.5 1.5-3 2.6-2.1 3.8-1.6 4.1 28 20.6 2.3 1.3 3.1 1.1 10-2.7 7.5-4.1 7.5-4.1 11-2.1 3.6 2 3.6 2 7.9-.6 4.4-2.6 4.4-2.6 8.7-.3 2.3 1.3 4.1 2.7 3.8 3.2-.8 1.2-6.6 3.6-11.9 4.9-4.5 1.1-22.6 9.8-24.9 12-1.5 1.4-3.5 1.1-6.4-1-1.5-1-4.5-2.9-6.7-4.1-11-6.3-24.9-14-25.2-14-.1 0-3.2-1.8-6.8-4s-6.7-4-7-4c-.2 0-2.8-1.4-5.7-3.1-2.9-1.8-7.8-4.6-10.8-6.2-3-1.7-6.4-4-7.6-5.1-1.1-1.2-3.2-3-4.6-4.1s-4.7-3.9-7.4-6.1c-16.3-13.8-21-17.1-32.8-23.6-7.2-3.9-16.9-9.5-21.6-12.2-4.7-2.8-10.6-6.2-13.3-7.6-2.6-1.4-5.7-3.3-7-4.3-2-1.7-2-1.8-.2-1.3 1.1.3 3.3.8 4.8 1.2m21.7 6.9c0 .3-.2.5-.5.5s-.5-.2-.5-.5.2-.5.5-.5.5.2.5.5m3 1.4c0 .6-.4 1.3-1 1.6-.5.3-1-.1-1-.9 0-.9.5-1.6 1-1.6.6 0 1 .4 1 .9m5.5 4.2c-1.1 1.7-3.5.9-3.5-1.1 0-1.8.3-1.9 2-1 1.1.6 1.8 1.5 1.5 2.1m3.5.9c0 .5-.4 1-1 1-.5 0-1-.5-1-1 0-.6.5-1 1-1 .6 0 1 .4 1 1m19.7 8.7c-.4.3-.7 0-.7-.7s.3-1 .7-.7c.3.4.3 1 0 1.4M498 685c0 .5-.4 1-1 1-.5 0-1-.5-1-1 0-.6.5-1 1-1 .6 0 1 .4 1 1m5 1c0 .5-.5 1-1.1 1-.5 0-.7-.5-.4-1 .3-.6.8-1 1.1-1 .2 0 .4.4.4 1m4.1 6.1c11.3 4.9 29.5 10.9 44.3 14.6 10.9 2.8 12.3 3.6 10.7 6.2-.7 1-1.6 1.1-4.2.3-1.9-.6-6.5-1.8-10.4-2.7-11.8-2.6-36-10.3-41.5-13.1-3-1.5-10.9-9.4-9.4-9.4.6 0 5.3 1.8 10.5 4.1m-19.2 6.9c5.3 4.5 12 10.2 14.9 12.7 5.3 4.7 5.3 4.7 3 6.5-1.3 1-2.7 1.8-3.1 1.8-.7 0-15-11.1-16.7-13-.3-.3-3-2.5-6-5-9-7.3-8.7-7-6.1-9.1 1.3-1.1 2.8-1.9 3.3-1.9.6 0 5.4 3.6 10.7 8m-18.5-3.5c1.1.8 1.8 1.7 1.5 1.9-.2.3-1.5-.4-2.9-1.4-1.4-1.1-2-2-1.5-1.9.6 0 1.9.6 2.9 1.4m7.9 7.4c-.2.3-1.6-.8-3.1-2.4-2.7-2.8-2.7-2.8.4-.4 1.7 1.3 3 2.6 2.7 2.8m127.4-2.2c-.4.3-1 .3-1.4 0-.3-.4 0-.7.7-.7s1 .3.7.7m3 0c-.4.3-1 .3-1.4 0-.3-.4 0-.7.7-.7s1 .3.7.7M556 704c0 .5-.4 1-1 1-.5 0-1-.5-1-1 0-.6.5-1 1-1 .6 0 1 .4 1 1m-69.9 5.7c.8 1-.5.3-2.8-1.6-2.4-1.8-4.3-3.5-4.3-3.8 0-.7 5.5 3.4 7.1 5.4m134.6 3.4c4.8 2.8 9 5.3 9.2 5.5.3.3-.3 1.2-1.2 2.1-1.5 1.5-1.9 1.5-6-.7-2.4-1.3-5.3-3.1-6.3-4-1.8-1.5-5.8-8-4.9-8 .2 0 4.3 2.3 9.2 5.1m-15.9-2.3c.2.7-.3 1.2-1.2 1.2s-1.6-.7-1.6-1.6c0-1.7 2.2-1.4 2.8.4m-6.8.2c0 .5-.2 1-.4 1-.3 0-.8-.5-1.1-1-.3-.6-.1-1 .4-1 .6 0 1.1.4 1.1 1m12.9.4c.9 1 .9 1.6.1 2.1-1.6 1-4-.2-4-2 0-1.9 2.4-2 3.9-.1m-27.1.6c2.2 0 3.1.4 2.6 1.1-.4.8-3.1.9-8.2.4-10.1-.9-14.2-2.7-4.7-2 3.9.3 8.5.5 10.3.5m-92.3 2c1 1.1 1.6 2 1.3 2s-1.3-.9-2.3-2-1.6-2-1.3-2 1.3.9 2.3 2m105.1-.6c1 .8 1.6 1.8 1.1 2.2-.9 1-5.8-1.6-5.1-2.8s1.7-1 4 .6m-25.3 1.6c2.4 0 2.7.4 2.7 3.4 0 3.1.4 3.5 5.1 5.5 7.8 3.2 18.8 2.4 20.3-1.5.8-2 2.6-.8 2.6 1.7 0 1.2-1.4 2.8-3.5 4-1.9 1.2-3.5 2.7-3.5 3.4 0 1.4-7.8 6.1-11.6 7.1-1.5.4-5-1-11.6-4.8-5.1-2.9-10.6-6-12.3-6.8-3.8-1.9-5.5-3.5-5.5-5.2 0-1.5 6.3-5.8 8.5-5.8.8 0 1.5-.5 1.5-1.1 0-.7.9-.9 2.3-.5 1.2.3 3.4.6 5 .6m22.4 1.5c6.8 4.1 5.9 5.6-4.2 6.9-4.5.6-11.5-1.4-12.9-3.7-1.9-3-.1-4.5 5.2-3.9 3 .2 5.2 0 5.6-.7 1-1.5 1.3-1.4 6.3 1.4m14.3-1c0 .3-.2.5-.5.5s-.5-.2-.5-.5.2-.5.5-.5.5.2.5.5m-4.2 1.7c-.7 1.9-3.8 2.2-3.8.4 0-1 .9-1.6 2.1-1.6s1.9.5 1.7 1.2m12 .7c1.5 1 3.9 2.6 5.5 3.5 1.5.9 2.7 2 2.7 2.4 0 .8-10.4 7.1-16.1 9.7-3.4 1.6-3.8 1.6-6.9 0l-3.2-1.7 3.1-2.8c2.2-2 3.1-3.8 3.1-5.9 0-1.8.5-3.1 1.3-3.1.6 0 2.3-.9 3.7-2 3.1-2.4 3.4-2.4 6.8-.1m-97 4.7c10.4 5.8 11.2 6.8 7.5 8.8-2.8 1.4-3.2 1.2-12.2-4.2-9.3-5.5-9.3-5.5-7-7.3 1.3-1 2.7-1.9 3-1.9.4 0 4.3 2.1 8.7 4.6m-20.3-2.6c.3.5.4 1 .1 1s-.8-.5-1.1-1c-.3-.6-.4-1-.1-1s.8.4 1.1 1m7.8 4.8c2.3 1.6 6.4 4.1 9.1 5.7 5.1 2.9 13.4 10.5 11.4 10.5-.5 0-2.7-1.7-4.7-3.9-2-2.1-7.5-6.2-12.3-9-4.9-2.9-8.8-5.4-8.8-5.7 0-.9 1.3-.3 5.3 2.4m119.7 2.7c0 .8-.4 1.5-.9 1.5-1.3 0-2.2-1.6-1.4-2.4 1.1-1.1 2.3-.6 2.3.9m-2 6c0 1.4-.2 2.5-.4 2.5-.8 0-7.6-4.2-7.6-4.6 0-.3 1-.8 2.3-1.3 3-1.2 5.7.4 5.7 3.4m-78 4.6c1.4.9 5.2 3.1 8.5 4.9s8.7 4.8 12 6.7 6.8 3.7 7.8 4c1.2.4 1.7 1.6 1.7 4.4v3.8l-4.7-2.8c-2.7-1.5-6.5-3.8-8.5-5.1-2.1-1.2-3.8-2.5-3.8-2.9 0-1.9-7.3-7.7-15.6-12.4-5.1-2.9-9.6-5.8-9.9-6.5-.5-1.3 7 2.3 12.5 5.9m-14-5.5c0 1.2-3.4 3.3-5.2 3.4-2.5 0-2.2-1.5.5-2.8 2.5-1.2 4.7-1.5 4.7-.6m9.6 7.4c3.8 2.3 7.5 4.4 8.3 4.9 2.4 1.2 2.3 2.7-.1 3.8-1.8.8-3.5.2-9.2-3-3.9-2.2-8.4-4.6-10-5.5-2.7-1.4-2.8-1.6-1.1-2.9 2.9-2 4.8-1.6 12.1 2.7m-7.6 4.5c0 .3-.2.5-.5.5s-.5-.2-.5-.5.2-.5.5-.5.5.2.5.5m4 2c0 .3-.2.5-.5.5s-.5-.2-.5-.5.2-.5.5-.5.5.2.5.5m4 2.5c0 .5-.2 1-.4 1-.3 0-.8-.5-1.1-1-.3-.6-.1-1 .4-1 .6 0 1.1.4 1.1 1m13.5 2c0 .7-.8 1.8-1.8 2.4-2.5 1.6-4.4-1.4-2-3.2 2-1.4 3.8-1.1 3.8.8m-5.2 4.4c.9 1.4 6 5 11.2 8.2 9.4 5.6 12.5 8 6.3 4.8-9.7-5-22.8-14.8-22.8-17.1 0-1.1 3.9 1.9 5.3 4.1m17.1 3.8c4.7 2.9 8.6 5.8 8.6 6.5s.5 1.3 1 1.3c.6 0 1-2.3 1-5 0-2.8.5-5 1-5 .6 0 1 2.4 1 5.2 0 5.3 0 5.3 5 8 5.1 2.9 6.3 5.1 3.3 6.2-1.5.6-3.7-.6-24.5-14.1-3.7-2.3-7.2-4.3-7.7-4.3-1.7 0-2.4-2.2-1-3.1 2.3-1.5 3.4-1.1 12.3 4.3"/><path d="M374 607.7c0 .4.9 1.7 2.1 2.9 1.8 1.9 1.9 2.5.8 4.6-.6 1.2-1.6 2.6-2.2 2.9-.5.4-.6 1.2-.2 1.9.6.9 1.2.7 2.4-.9 1.7-2.2 1.7-2.2 4.4 0 3.9 3 4.5 1.7.9-1.6-1.8-1.6-2.8-3.3-2.5-4.2.3-.7-.5-2.5-1.7-3.9-2.3-2.3-4-3.1-4-1.7M330.5 580c-.9 1.5.3 3 2.4 3 2.5 0 3.3-1.1 2-2.7-1.3-1.5-3.5-1.7-4.4-.3M322.7 583.6c-1.4 1.5-.6 3.4 1.4 3.4 1.4 0 1.9-.5 1.7-1.7-.3-1.8-2-2.7-3.1-1.7M578 718.4c0 1 .9 1.6 2.1 1.6 2.4 0 2.1-2.3-.4-2.8-1-.2-1.7.3-1.7 1.2M584 720c0 1.6.7 2 3 2 3.2 0 4.2-2.3 1.4-3.4-2.9-1.1-4.4-.6-4.4 1.4M592 720c0 1.1.6 2 1.4 2 2.1 0 3.1-2.1 1.5-3.1-2.2-1.4-2.9-1.1-2.9 1.1M612.3 725.7c-2.3.9-1.5 3.5 1 3.1 1.2-.2 2.2-.9 2.2-1.7 0-1.6-1.4-2.2-3.2-1.4M604 731c0 1.3.7 2 2 2 2.4 0 2.7-2.5.4-3.4s-2.4-.8-2.4 1.4M111 588.7c0 .9 21 13.6 21.6 13 .5-.4-5.3-4.4-10.9-7.6-1.8-1-4.9-2.8-6.9-4.1-2.1-1.2-3.8-1.8-3.8-1.3M450.8 598.7c-.2 5.9-.2 11.3 0 11.9.2.7 2 1.4 4.1 1.8 3.9.6 83.1.9 83.7.3.7-.6.6-22.8-.1-23.5-.4-.4-20.2-.8-44-1l-43.4-.3zm67-8 18.2.6v20l-27.7-.6c-15.3-.4-33.8-.7-41-.7H454v-20h22.8c12.6 0 31.1.3 41 .7"/><path d="M461.7 592.2c-1.1.6-1.7 2.2-1.7 4.3 0 2.8.4 3.5 2 3.5s2 .7 2 3c0 3-1.4 4.1-2.3 1.7-.2-.6-.8-.9-1.2-.5-1.5 1.4.5 3.9 2.7 3.6 1.9-.2 2.4-1 2.6-4.6.3-3.7 0-4.4-1.7-4.9-2.8-.7-2.8-4.3-.1-4.3 1.1 0 2-.4 2-.9 0-1.4-2.5-2-4.3-.9M471.6 593.6c-.4.9-.3 2 0 2.3.4.3.9 0 1.1-.7.7-1.9 2.3-1.4 2.3.8 0 1-.8 2.3-1.7 2.9-1.7.9-1.7 1 0 1.6 1.8.7 2.3 4 .8 4.9-.5.3-1.2-.1-1.5-1-.3-.8-1-1.2-1.6-.9-1.6 1 .8 4.5 3 4.5 1.2 0 2.1-.9 2.4-2.3.4-1.8.2-9.8-.3-13-.2-1.4-3.9-.7-4.5.9M492.7 592.7c-.4.3-.7 2.4-.7 4.5 0 3.4.3 3.9 1.9 3.3 2.1-.6 3.4 2.4 2 4.6-.8 1.2-1.1 1.2-1.8-.1-1.2-1.8-2.6-.7-1.8 1.5 1 2.4 4.6 1.8 5.7-1 1.2-3.1-.3-7.5-2.5-7.5-.8 0-1.5-.7-1.5-1.5s.9-1.5 2-1.5 2-.7 2-1.5c0-1.5-4-2.1-5.3-.8M505 592.5c-.6 13.9-.5 15.5 1 15.5 1.3 0 1.5-1.2 1.2-7.3-.2-3.9-.8-7.6-1.3-8.2q-.9-.9-.9 0M514.5 592.9c-1.3 2.2-1.7 10.8-.6 12.9 3.6 6.7 8.3-3.9 4.8-10.7-1.4-2.8-3.2-3.7-4.2-2.2m3.5 6.6c0 3.9-.8 6.5-2.1 6.5-1 0-1.2-9.3-.3-10.3 1.3-1.3 2.4.5 2.4 3.8M482 600c-.7.4-.8 1-.4 1.2 1.1.7 5.2.4 5.9-.4.9-.9-4.2-1.6-5.5-.8M236 628.1c-4.1.9-6.5 3.7-10.9 12.5l-3.3 6.6-21.1-.3c-15.5-.2-21.2 0-21.5.9s5 1.2 21.2 1.2H222v5.5c0 3.6.5 5.7 1.4 6.2.8.4 1.4 1.7 1.3 2.8-.2 1.6.5 2.1 3.6 2.3 2.7.2 3.7.8 3.7 2 0 2.5 9.8 8.4 12 7.2 1.2-.7 3.9.2 9.6 3.2 4.9 2.6 9 4.1 10.8 4 1.9-.2 7.3 1.9 15.6 6.2 10.8 5.5 15.2 7.1 29.6 10.7 12.5 3.1 18.2 5 21.9 7.4 2.8 1.7 7.5 4.5 10.5 6.2 3 1.6 10.1 5.8 15.8 9.1 5.6 3.4 10.6 6.2 11.1 6.2s1.1.3 1.3.8c.2.4 3.7 2.7 7.8 5.2 4.1 2.4 8 4.9 8.6 5.4.6.6 3.5 3.1 6.4 5.6s5.8 5 6.4 5.5C409.7 760 419 768 420.9 769c1.4.7 3 1.7 3.5 2.1.6.5 4.7 3.2 9.1 6s9.9 6.9 12.1 8.9c2.3 2.1 5.6 4.6 7.3 5.4 1.7.9 3.1 2.2 3.1 3 0 1.8 3.7 5 8.7 7.5 2.3 1.1 4.4 2.9 4.8 4 .5 1.6 17.6 11.1 19.9 11.1.4 0 2.8.9 5.3 2.1 3.2 1.5 4.8 1.8 5.6 1s.6-1.5-.8-2.4c-1.6-1.3-1.8-2.4-1.2-10.6.5-8.4.3-10.1-2.8-20.9-2.3-7.9-4.1-12.3-5.5-13.4-1.2-1-9.8-6.3-19-11.8-15.4-9.1-23.2-14.3-55.9-36.9-11.2-7.7-21.4-14.1-32.1-20.1-3.6-2-8.7-4.9-11.5-6.5-8.6-4.8-18.7-10.6-26-15-3.8-2.3-7.7-4.5-8.5-4.9-.8-.3-4.4-2.5-8-4.7-6.1-3.7-19.9-10.7-31.5-15.9-2.7-1.2-8.2-3.7-12.1-5.6-12.1-5.6-20.4-9.4-20.9-9.4-.3 0-3.5-1.9-7.2-4.2-3.8-2.2-8.3-4.9-10.1-6-1.8-1-4.3-2.4-5.5-3.2-1.5-.9-3.3-1.1-5.7-.5m15 8c9.2 5.6 11.3 7.9 7.4 7.9-.8 0-4.1-1.7-7.2-3.8s-7.8-5.1-10.4-6.6c-2.7-1.5-4.8-2.9-4.8-3.1 0-.3 1.1-.5 2.5-.5 1.3 0 7 2.8 12.5 6.1m-18.1-.3c-2.7 4.6-5.7 7.8-6.4 7-.6-.6 2.8-7.1 5.3-10 2.6-3 3.4-.8 1.1 3m14.4 4c8.6 5.4 19.8 11.2 31.7 16.3 2.7 1.2 5 2.5 5 3 0 1.9-1.9 1.6-5.3-.8-4.3-3-6.7-2.7-11.6 1.7-4.3 3.8-3.8 6.2 2.8 12.3 7.1 6.7 12.1 7.5 14.1 2.2 1.1-2.9 2.2-3.1 4.1-.8.8.9 3.1 2.9 5.2 4.4 4.1 3 6.9 2.9 9.2-.4 1.3-1.8 1.1-2.4-1.5-6.1-3.1-4.2-3.6-5.6-2-5.6 1.7 0 14.4 6.4 22.3 11.2 4.3 2.7 8.1 4.8 8.4 4.8s1.8.9 3.3 2c2.4 1.7 2.9 2.9 3.2 6.7.3 4.7.3 4.7 16.6 14.6 17.4 10.5 18.7 10.8 19.4 4.6.3-2.9.3-2.9 11.3 3.4 9.8 5.6 41.2 26.1 42.5 27.7.3.4 6.7 4.8 14.3 9.9 7.5 5 13.7 9.5 13.7 9.9 0 1.2-1.4 2.6-3.5 3.8-2.4 1.3-3.1 5.9-1.4 9.1 1.3 2.5 2.1 2.6 8.5.7 1.9-.5 2.2 0 2.8 3.3 1.6 8.2 4.7 9.9 12.6 6.7 4.9-2 6.4-4.3 5-7.8-1.3-3.7.6-3.4 2.8.3.9 1.7 2.4 3.2 3.2 3.4 1 .3 2.3 3.6 3.8 9.9 1.9 8.3 3 18.8 1.8 18.8-1.7 0-12.9-6.6-13.7-8.1-.5-1.1-3.3-3.1-6.2-4.5-2.9-1.5-6.5-3.9-8.2-5.5-12.3-11.9-22-19.4-30.5-23.7-4.5-2.3-13.5-9.5-23.6-18.8-5.5-5-11.5-10.4-13.4-12s-3.7-3.1-4-3.5c-.3-.3-5-3.2-10.5-6.4s-18.5-10.9-29-17.1c-19.7-11.7-20.7-12.1-41.7-16.9-5.9-1.3-12.8-3.5-15.5-4.9-11.6-5.9-20.2-9.6-21.5-9.1-.7.3-4.9-1.3-9.3-3.5-4.3-2.2-8.7-4-9.8-4-2 0-13.5-5.7-19.8-9.7-3.6-2.4-3.6-2.4-3.2-9.6.4-6.6 2.3-12.2 5.6-16.5 1.5-1.9 2.1-1.6 12 4.6m-20.5 18.3c-2.4 1.6-2.8.9-2.8-5.6 0-5.1.4-6.6 1.8-7.4 1.5-.9 1.7-.3 2 5.6.2 4.6-.1 6.9-1 7.4m49.6-8.6c6.4 3 11.8 5.5 12 5.5.3 0 20.3 9.3 26.4 12.2 1.2.6 2.2 1.5 2.2 2 0 2.2-5.6.3-23.5-8.2-3.3-1.5-10.9-5.1-17-8-15.5-7.2-15.5-7.2-14.9-8.2 1-1.5 3.1-.8 14.8 4.7m1.3 10.5c1.4 1.1 3.1 2 3.8 2 1.5 0 2.8 8.1 1.4 9.4-.5.6-.9 1.8-.9 2.8q0 1.8-2.4 1.8c-3.1 0-4.2-1.6-1.6-2.3 1.5-.4 2-1.4 2-3.9 0-4.7-2.5-8-5.8-7.6-3.7.4-4.2 4.9-1.1 9.2 2.3 3.1 2.3 3.1-1 .6-1.8-1.4-4-3.8-4.9-5.3-1.7-2.8-1.6-2.9.8-4.8 1.4-1 3-2.3 3.5-2.8 1.6-1.6 3.5-1.3 6.2.9m18.7 6.5c-.3.8.6 2.9 2 4.6 2.8 3.3 3.3 5.4 1.4 6.5-.7.4-.8.3-.4-.4.7-1.1-1.3-5.2-2.5-5.2-1.6 0-1.8 3.5-.3 5.1 3.8 4.2-.5 1.5-5.8-3.6-5.9-5.6-7.4-9.5-4.7-12.2 1.7-1.7 11.1 3.1 10.3 5.2m-64.7-4c1.2.8 4.8 3 8.1 4.7 6.5 3.6 7.4 5.4 2.6 5.2-3.8-.1-8.4-3.1-8.4-5.4q0-3-5.7-3c-2.1 0-2.4-.2-1.3-1.5 1.5-1.9 2-1.9 4.7 0m45.1 2.7c1.7 1.7 1.5 6.8-.3 6.8-1.7 0-4.4-4.9-3.8-6.8.6-1.5 2.5-1.6 4.1 0m49.8 8.7c6.7 3.7 25.4 14.5 36.2 21 2.9 1.7 5.5 3.1 5.8 3.1s1.8.8 3.2 1.8c1.5 1.1 5.2 3.3 8.2 4.9 12.2 6.7 16.9 9.7 16.4 10.5-1.2 1.8-4.8.5-16.4-6.2-6.7-3.9-12.6-7-13-7-.5 0-1-.4-1.2-.8-.1-.5-2.8-2.2-5.8-3.8-3-1.7-7.2-4-9.2-5.2-2.1-1.2-5.3-3.1-7.2-4.1-1.8-1.1-6.4-3.8-10.1-6-3.7-2.3-6.9-4.1-7.1-4.1-.4 0-2.5-1.3-9.3-5.6-.5-.4 1-2.4 1.8-2.4.5 0 3.9 1.7 7.7 3.9m-66.3 2.3c5.3 2.8 5.8 3.3 3.8 3.6-2.5.4-14.1-4.5-14.1-6 0-1.7 4.3-.7 10.3 2.4m23.9 9c10.5 5.2 12.6 6.8 9.1 6.8-2.6 0-23.3-10.2-22.7-11.2.9-1.5 2.9-.9 13.6 4.4m62.4 6.8c3.6 2.2 6.8 4 7 4s3.2 1.7 6.6 3.8c3.5 2.1 7.1 4.1 8.1 4.5 1.9.7 2.5 7.7.7 7.7-.6 0-6.2-3.2-12.6-7-6.4-3.9-11.9-7-12.1-7-.3 0-1.8-.9-3.4-2.1-2.1-1.4-2.9-2.9-2.9-5 0-1.6.5-2.9 1-2.9.6 0 4 1.8 7.6 4m-31.8 3.8c12.1 2.8 14.1 3.6 12.9 4.8-.6.6-14.1-2.2-25.9-5.3-5.6-1.5-7.3-4.1-1.9-2.9 1.4.3 8.1 1.8 14.9 3.4m28.3 11.7c6.1 3.6 11.1 6.5 11.3 6.5.4 0 31.8 18.8 32.4 19.5.3.2-.2.7-1.1 1.1-1 .3-6.3-2.2-13.9-6.7-6.8-3.9-17.2-10.1-23.1-13.5-5.9-3.5-11-6.4-11.3-6.4-1.4 0-8.3-5.4-7.8-6.1 1-1.6 2.5-1 13.5 5.6m66.2 15c5.3 3.5 15.3 10.5 22.4 15.6 7 5 14 9.8 15.6 10.7 1.5.9 2.7 2 2.7 2.4 0 2.8-4.4.8-17.1-7.8-19.1-12.9-26.1-17.7-27.6-18.9-.6-.6-3-2.1-5.2-3.4-3.1-1.9-3.8-2.8-2.9-3.8.6-.7 1.4-1.3 1.8-1.3.5 0 5.1 2.9 10.3 6.5m-17.1 14.7c1.3 1.3 6.6 6.1 11.8 10.8s10.4 9.3 11.5 10.4c3.2 2.9 8.3 6.7 11.4 8.5 12.8 7.3 16.2 9.9 32.8 25.1 1.7 1.6 5.6 4.3 8.6 6s5.8 3.7 6.1 4.5 2.6 2.5 5.1 3.7c5 2.4 5.7 3.8 2 3.8-3.5 0-9.4-3-10.1-5.2-.3-1-2.6-3-5.2-4.5-2.6-1.4-6.6-4.5-8.8-6.7-8-7.9-22.8-19.6-24.9-19.6-1.1 0-14.9-9.7-18-12.6-4.5-4.2-20.8-18.5-25.4-22.2-1.4-1.1-2.1-2.4-1.7-3 1.1-1.7 2.2-1.5 4.8 1m74 23.5c6.2 3.7 12.4 7.4 13.8 8.1 5 2.6 7.6 5 6.4 6.2-.7.7-6.2-2.1-18.8-9.6-12.4-7.5-17.4-10.9-16.4-11.5 1.7-1.2 1.9-1.1 15 6.8M461 765c2.2 4 1.3 5.8-3.7 7.3-3.1.9-5.2 1-6 .4-1.5-1.1-1.7-5.7-.3-5.7.6 0 1 .9 1 1.9 0 2.4 1.8 3.7 3.2 2.3.8-.8.7-1.6-.2-2.7-1-1.2-1-2.1 0-4.5 1-2.5 1.5-2.8 3.1-2 1 .6 2.3 1.9 2.9 3m9.6 4.6c2.8 1.9 5.4 6.3 5.4 9.2 0 1.9-2.6 3.5-8.1 4.7-3.3.8-4.6-.8-5.3-7-.6-4.9-.6-5 .7-1.6 1.5 3.9 5.2 7.2 7.2 6.5 4.2-1.7 1-11.7-3.8-11.7-1.5 0-2.4-.3-2.1-.8.8-1.4 3.2-1.1 6 .7m-1.2 4c.9 2.4.7 5.4-.3 5.4-1.6 0-4.1-3.1-4.1-5.1 0-2.3 3.5-2.6 4.4-.3m21.1 3.4c.3.6 1.8 4.9 3.1 9.7 2.5 8.3 2.5 8.8.8 10-1.6 1.2-2 1-3-.9-.6-1.3-1.6-5-2.4-8.3-.7-3.3-1.6-6.8-2.2-7.8-.5-.9-.6-2.2-.3-2.7.8-1.3 3.2-1.3 4 0m5.1 37.7c-.3.7-1.2 1.3-2.1 1.3-1.2 0-1.5-1.5-1.5-8.4 0-7.3.2-8.5 1.8-8.8 1.5-.3 1.7.6 2 7.1.2 4.1.1 8-.2 8.8M490 813c0 1.1-.4 2-1 2-.5 0-1-.9-1-2s.5-2 1-2c.6 0 1 .9 1 2m-4.3-.3c-.4.3-1 .3-1.4 0-.3-.4 0-.7.7-.7s1 .3.7.7"/><path d="M241 651.9c0 1.7 1.2 4.1 2.1 4.1.5 0 .9-1.1.9-2.5 0-1.6-.6-2.5-1.5-2.5-.8 0-1.5.4-1.5.9M328 691.7c0 2 1.8 4.3 3.3 4.3.4 0 .7-1.2.5-2.7-.4-3.2-3.8-4.6-3.8-1.6M379.6 717.7c-.9 2.2 2 5.1 3.5 3.6.8-.8.7-1.7-.3-3.2-1.6-2.5-2.4-2.6-3.2-.4M401.4 730.5c-.9 2.3 1.5 4.8 3.2 3.4 1-.8 1.1-1.6.3-3-1.2-2.3-2.8-2.5-3.5-.4M419.7 747.2c-.7 2.3.5 4.8 2.4 4.8 2.2 0 2.4-1.8.5-4.3-1.6-2-2.3-2.1-2.9-.5M438 761.7c0 2 1.8 4.3 3.3 4.3.4 0 .7-1.2.5-2.7-.4-3.2-3.8-4.6-3.8-1.6M473.1 787.4c-.9 1.1-1 2-.1 3.6 1.3 2.5 3.4 2.2 3.8-.7.4-2.8-2.1-4.8-3.7-2.9M87.9 639.7c0 3.7-.1 9.3-.2 12.3l-.2 5.5 26.5.7c14.6.5 34.8.7 45 .5l18.5-.2.3-12.1.3-12.1-6.3-.6c-3.5-.4-23.7-.7-45-.7l-38.8-.1zm71.9-3.7h15.3l-.3 10.2-.3 10.3h-7.2c-4 0-23-.2-42.3-.3l-35-.2v-21.3l27.3.6c14.9.4 34.1.7 42.5.7"/><path d="M96.7 637.7c-1.1 1-.8 4.3.3 4.3.6 0 1-.5 1-1 0-.6.6-1 1.4-1 1.1 0 1.2.8.5 3.7-2 8.1-2.1 9.3-1.2 9.3.5 0 1.5-3 2.3-6.8.7-3.7 1.5-7.3 1.8-8 .4-1.3-4.9-1.8-6.1-.5M108.9 638.7c-1.9 2.2-1.8 11.5.1 13.7 1.3 1.7 1.5 1.7 3.2-.4 2.9-3.5 2-15-1.1-15-.5 0-1.5.7-2.2 1.7m2.9 6.9c-.2 2.7-.7 4.9-1.3 4.9-1.2 0-1.9-5.9-1-9.3 1-4.1 2.7-1 2.3 4.4M131 638.5c-3 3.6-2 15.5 1.3 15.5 2 0 4-4.5 3.3-7.4-.3-1.3-1.5-2.8-2.6-3.1-2.7-.9-2.7-3.9.1-3.2 1.5.4 1.9.1 1.7-1-.4-2.3-2.3-2.7-3.8-.8m3 10c0 1.6-.6 2.5-1.5 2.5s-1.5-.9-1.5-2.5.6-2.5 1.5-2.5 1.5.9 1.5 2.5M141 638.9c-1.3 2.5-1.3 4.1 0 4.1.6 0 1-.7 1-1.5s.5-1.5 1-1.5c1.6 0 1.1 4.3-1 8.8-2.6 5.3-2.6 5.4 1.2 5q3.3-.3 3.6-2.1c.3-1.5 0-1.8-1.7-1.2-2.5.7-2.7-.3-.6-3.1 2-2.6 2-9-.1-9.8-2.2-.8-2.2-.8-3.4 1.3M152.7 639.1c-3 4.2-1.8 14.9 1.7 14.9s4.9-11.2 1.8-15c-1.9-2.3-1.9-2.3-3.5.1m3.3 5.6c0 7.2-2.5 9.8-3 3.3-.5-5.4 0-8 1.5-8 1.1 0 1.5 1.2 1.5 4.7M164.7 638.7c-.6 1-3.7 13-3.7 14.5 0 1.9 1.9.6 2.2-1.4.5-3.4 3.8-3.7 3.8-.4 0 1.7.5 2.6 1.6 2.6s1.4-.5.9-1.7c-.3-1-1.1-4-1.7-6.8-1.2-5.9-2.3-8.2-3.1-6.8m1.3 6.9c0 .8-.5 1.2-1 .9-.6-.4-.8-1.1-.5-1.6.9-1.4 1.5-1.1 1.5.7M118.5 646c.3.5 1.7 1 3 1s2.7-.5 3-1c.4-.6-.8-1-3-1s-3.4.4-3 1M105 730.7c-.1 2.7-.3 9.2-.6 14.5-.5 9-.4 9.8 1.5 11s2.1 2.2 2.1 12.2c0 12.8 1.9 18.2 7.9 22.3 5.3 3.6 28.8 17.3 42.1 24.6 3 1.6 6 3.3 6.5 3.8.6.4 5.7 3.4 11.5 6.6 15.9 9 18.4 10.4 19.7 11.5.7.5 1.8.8 2.5.6 1.3-.5-4.7-4.7-9.8-7-1.3-.6-2.4-1.9-2.4-2.9 0-2.2 3.9-11.2 11.8-27.2.2-.4-.1-.7-.6-.7-1.1 0-5.9 9.6-11.5 23.2-.9 2.1-2.1 3.8-2.6 3.8-1.2 0-7.1-3.3-35.4-19.5-10.3-5.9-18.6-11-18.3-11.2.2-.2 2.5.8 5.1 2.2 2.6 1.5 4.9 2.5 5.1 2.2.3-.2.7-5 1.1-10.6.3-5.5 1-10.1 1.4-10.1.5 0 2.5 1 4.6 2.2 2.1 1.1 4.9 2.7 6.2 3.4 2.9 1.5 4.5 5.1 5.5 11.7.4 2.7 1.4 5.1 2.2 5.4s1.7 2.3 2 4.4c.4 2.5 1.5 4.4 3 5.4 2.1 1.4 2.4 1.3 3.8-.7 1.3-1.9 1.9-2 4.1-1 4 1.8 4.3 1.6 5-4.1 1.1-9.4 1.6-10.9 3.2-10.3.8.3 2.4.1 3.5-.5 1.5-.8 3.1-.8 5.7-.1 2 .6 4.7 1.3 6.1 1.6s3 1.5 3.5 2.8c.6 1.4 4.5 4.2 9.5 7 4.7 2.6 9 5 9.5 5.5.6.4 2.9 1.8 5.1 3.1 2.3 1.2 5.2 2.8 6.5 3.5 12.3 6.7 14 7.9 13.3 10.1-1.1 3.7-2.6 4.8-13.4 9.9-12.2 5.7-16.8 6.7-20.4 4.3-2.7-1.7-4.6-2.1-4.6-.8 0 1.4 6.9 4.2 10.3 4.1 1.8 0 8.7-2.8 15.7-6.2 11.2-5.5 12.6-6.5 13.5-9.5 1.6-5.7 1.6-5.7 8.8 15.3 5.1 14.8 9.5 26.6 9.9 27 .2.1 5 2.6 10.8 5.5s11.1 5.7 11.8 6.3c.9.7 1.2 9.7 1.2 38.7v37.8l-34.2.7c-18.9.4-35.4.6-36.8.4-2.4-.4-2.5-.7-3-10.4-.7-12.6-2.2-10.4-1.8 2.6l.3 9.4 18.2.3 18.2.2.3 4.5c.3 5.2 2.2 6.1 2.4 1.2 0-1.7.1-3.8.2-4.5.2-.9 4.5-1.2 18-1.2 12.5 0 18.2-.4 19-1.2.9-.9 1.2-10.8 1.2-38.5 0-38 .2-39.5 3.6-36.4.5.4 4.3 2.6 8.4 4.8 10.9 5.8 20 10.8 33 18.1 6.3 3.6 13.5 7.6 16 9 2.5 1.3 5.9 3.2 7.5 4.2 3.4 2 10.8 6.1 20.5 11.3 3.6 1.9 9.5 5.1 13.1 7.1 10.8 5.9 14.8 4.9 30.8-6.9 3.3-2.5 7.1-6.4 7.1-7.4 0-1.6-3-4-9.7-7.6-5.8-3.2-11.2-6.2-20-11.2-2.7-1.4-8.6-4.8-13.3-7.4l-8.5-4.7-.5-15.3-.5-15.2-11.6-7c-8.7-5.2-12.2-7.8-13.5-10.4-1.7-3.2-7.9-7.3-20-13.4-1.2-.6-2.8-2.2-3.5-3.6-.8-1.4-3.6-4-6.4-5.8-3.7-2.3-5.6-4.4-7-7.6-2.8-6.4-9-15.4-12.2-17.7-1.6-1.1-7.7-4.6-13.8-7.9-6-3.3-13-7.1-15.5-8.5-15.8-8.8-21.9-11.8-23.4-11.2-1 .4-3.3-.4-5.6-2-2.2-1.4-4.2-2.6-4.4-2.6-.3 0-2.7-1.3-5.4-2.9-20.5-12.1-34.5-17.5-49.7-19.2-11.1-1.2-13.5-2-25.5-7.6-8.5-4-9.8-4.4-12.6-3.4-4.4 1.6-5.6 1.4-13-1.9-3.6-1.7-8.7-3.2-11.3-3.4-2.5-.1-7.2-1.5-10.4-2.9-3.2-1.5-6.2-2.7-6.7-2.7-.6 0-1 2.1-1 4.7m8.5.3c3.7 1.8 7.6 2.9 10.2 3 2.6 0 6.6 1.2 10.5 3 6.6 3.2 8.9 3.6 13.5 2 2.6-.9 4.2-.5 13.6 4 11 5.2 15 6.3 27.5 7.5 7 .7 9.8 1.9 6.9 3-.7.3-6.7.2-13.3-.3-10.8-.8-12.6-1.2-19.9-4.7-7.1-3.4-8.9-3.9-16-4-4.7 0-9-.6-10.5-1.4-5.4-3-6.2-3.2-7.4-2.2-.9.8-3 .4-7.5-1.4-3.5-1.4-7.1-2.3-8.1-2-2.2.7-3.9 5.2-3 8 .4 1.1 1 2.9 1.4 4.1 1.3 3.7 7.9 8.5 22.1 16 7.7 4.1 16 8.5 18.5 9.7 4.1 2 4.3 2.2 1.9 2.5-1.6.2-6.7-1.8-14-5.6-22.2-11.6-31.4-16.5-32.6-17.5-1.4-1.1-1.9-26.7-.5-26.7.4 0 3.4 1.3 6.7 3m7.9 10.4c5.2 2.4 5.2 2.4 5.5 10.6l.2 8.2-4.2-2.4c-8.8-4.9-14.1-13.4-10.8-17.4 1.6-1.9 3.2-1.8 9.3 1m13.8 3.2c6.7 2.6 7 3.1 5.3 9.4-.8 3-1.5 6.7-1.5 8.2 0 3.3-.7 3.4-5.5 1.1-4-1.9-4.4-2.8-1.5-3.6 2.8-.7 2.5-2.8-1-6.7-2.1-2.3-3-4.4-3-6.7 0-3.8 1-4.1 7.2-1.7m28.1 6.4c4.6 2.2 9.4 4 10.6 4 1.5 0 2.1.6 2 2.2 0 2.1-.1 2.2-.8.3-.7-1.8-.8-1.8-1.8-.1-.9 1.7-1.1 1.7-2.7.1-1.2-1.2-2.1-1.4-2.8-.7-1.4 1.4-.1 5 2.3 5.7 2.2.7 2.3 1.4.7 6.6-1.3 4.4-3.3 5-8.3 2.3-1.6-.9-6.1-3.2-9.8-5.1-7.7-3.9-8.7-5.6-8.7-13.9 0-5.4 0-5.4 5.4-5.4 4.2 0 7.2.9 13.9 4m43.6 4c4.6 1.7 8.5 3 8.7 3s.4.5.4 1.1c0 1.4-3.7.8-11.7-2.1-3.5-1.3-6.3-2.9-6.3-3.6 0-1.7-.9-1.9 8.9 1.6m-77.4-.1c-.3.5-.1 1.2.5 1.6.5.3 1 1.2 1 1.8 0 .7-.7.3-1.5-.7-1.8-2.3-1.9-3.6-.4-3.6.5 0 .8.4.4.9m78.5 5.4c10.5 4.2 10.5 4.2 10.8 8.9.4 5.5 2.2 6.6 2.2 1.3 0-1.9.3-3.5.6-3.5.6 0 16.2 8.5 26.1 14.3 8.4 5 22.9 16.8 36.8 30.1 8 7.6 12.7 11.1 23.2 17.1 11.5 6.7 15.7 9.5 14 9.5-.3 0-6.7-3.1-14.2-7-8.9-4.5-15.8-8.9-19.8-12.4-5.6-5-13.2-10.6-14.2-10.6-.2 0-2.7-1.4-5.5-3-5.6-3.3-8.4-3.7-10.6-1.6-2.4 2.4-1.7 6.2 1.7 9.1 4.1 3.4 12.2 7.5 14.9 7.5 1.9 0 2.1.5 1.8 7.1-.5 11-4.5 12.2-9.7 3-1.3-2.4-4.1-6.1-6.2-8.3-3.7-3.9-4.1-4-8.3-3.5-4.5.6-4.5.6-2.9-4.1.8-2.6 1.8-5.6 2.3-6.7 1.2-2.9 4-12.6 4-13.7 0-2.6-2.1.9-3.5 6-.9 3.1-2.6 8.3-3.7 11.4-2.1 5.8-2.1 5.8-5.2 3.9-1.7-1-5.2-3-7.7-4.4-2.5-1.3-7.6-4.3-11.3-6.6-3.8-2.2-7.2-4.1-7.7-4.1-1.2 0-1.2.3 1.6-11.2 2.6-10.6 3.1-13.9 1.7-12.3-.5.6-1.9 5.5-3.1 11-1.3 5.5-3 10.8-3.8 11.7-1.3 1.4-1.2 1.9.4 3.5 1 1 8.6 5.7 16.8 10.5 15 8.7 15 8.7 20.3 7.6s5.3-1.1 8.8 2.3c1.9 1.8 4.8 6.2 6.6 9.6 4.2 8.5 7.3 10.3 15.4 9.6 4.8-.4 6.7-.2 8.5 1.1 1.3.9 3.4 1.6 4.6 1.6 2.6 0 8.8 5.7 10.2 9.3.5 1.3 3.1 3.7 5.8 5.2 2.6 1.5 6.8 3.9 9.3 5.3 2.5 1.3 8.7 4.9 13.8 7.8 5.2 3 9.5 5.4 9.7 5.4s4.5 2.5 9.6 5.7c11.4 6.9 17.6 8.2 20.4 4 3.6-5.5-2.2-14.7-13-20.7-7.6-4.2-9.5-5.8-9.5-8.1 0-2.9-4-6.5-12-10.7-10.7-5.5-11.6-6.2-13.3-9.7-1-2.1-3.9-4.5-9.3-7.7-4.4-2.5-10.6-6.2-13.9-8.2-3.3-1.9-8.5-5.9-11.6-8.8-13.7-13-18.3-17.1-25.9-22.9-4.4-3.4-8-6.8-8-7.6 0-.7.3-1.3.6-1.3.6 0 6.5 4 7.4 5 .3.3 2.5 2.1 5 4s4.7 3.7 5 4 3 2.5 6 5 5.7 4.7 6 5c5.7 5.9 28.1 21 31 21 .6 0 1 .4 1 .9s1 1.3 2.2 1.7c1.1.3 4.4 2.9 7.2 5.8 2.9 2.8 8.2 6.7 12 8.6 7.2 3.7 12.6 8.2 12.6 10.5 0 .8 5.4 4.6 12 8.5l12 7.1V884c0 8.2-.4 15.1-.9 15.4s-4.2-1.3-8.2-3.5c-8.3-4.6-14.8-8.2-22.9-12.6-3-1.7-7.3-4-9.5-5.3-5-2.8-9.8-5.5-20-11.2-10.9-6.1-12.5-7.1-12.5-8.4 0-2-8.4-10.1-12.7-12.3-4.5-2.2-9.8-2.8-10.8-1.1-1 1.6-4.1 1.2-8.2-1.2-4.4-2.5-5.1-3.4-5.9-6.8-.8-3-5.1-9-6.5-9-.5 0-1.9-.8-3-1.9-1.7-1.5-2.5-1.7-4.8-.8-2.4.9-3.6.6-8.2-2-8.9-4.9-15.1-8.4-20.9-11.8-3-1.8-7.7-4.5-10.4-6s-6.9-4.8-9.3-7.3c-2.7-2.8-4.9-4.2-5.8-3.8-.8.3-2.7 0-4.1-.6-2.5-1.2-2.5-1.2-.2-2.5 4.7-2.6 8.2-1.7 12.4 3.3 2.1 2.6 4.1 5.1 4.2 5.5.5 1.1 2.2 1.2 2.2.1 0-.5-.8-1.7-1.8-2.8-1-1-3-3.6-4.6-5.7-3.1-4.1-6.2-4.7-12.1-2.6-2.8 1-3.9.8-9.8-2-6.2-3-8.7-5.3-8.7-8.2 0-.8 1.1-1 3.6-.6 3.1.5 4.1.1 8-3.5l4.4-4.1v5.1c0 7 1.6 10.2 5.1 10.2 3.8 0 4.9-2.4 4.9-10.8 0-5.5-.4-7.5-2.1-9.6-2.4-3.1-4.3-3.3-6.6-.6-1.6 1.8-1.9 1.9-4.1.4-1.4-.9-4.2-1.6-6.4-1.6-3.5.1-3.8-.1-3.3-2.1.4-1.2.9-3 1.1-4 .5-1.5 1.8-1.7 10.2-1.7 9.1 0 10.4.3 20.2 4.3m-65 .6c0 2.5 1.2 3.3 12.5 9.1 10.1 5.2 13.2 5.9 15.4 3.7 1-1 1.2-.7.9 1.3-.3 2.2-.8 2.5-3.8 2.3-7.2-.4-11.2-1.6-18.8-5.7-7.7-4.1-7.7-4.1-8-8.9-.2-3.3 0-4.7.7-4.2.6.3 1.1 1.4 1.1 2.4m-25.3 1.7c29.9 16 33.7 17.7 39.2 17.8 5.3.1 5.6.3 8.9 4.6 1.9 2.5 5.4 5.6 7.8 6.9 3.2 1.8 4.4 3.1 4.4 4.8 0 1.6-.6 2.3-2 2.3-2.4 0-2.6 1.3-.5 3 1.7 1.4 2 4.7.6 6.9-.6.9-1.1 1-1.5.2-1.1-1.7-6.6-1.4-6.6.4 0 1.6-1.5 2.1-2.3.7-.3-.4-.8-2.9-1.2-5.6-.8-4.9-.8-4.9 1.6-3.3 3.3 2.3 5.4 2.1 6.7-.7.8-1.8.7-2.9-.7-5.2-3.5-5.8-7.3-6.9-9.5-2.9-.6 1.1-1.2 2.2-1.4 2.5-.4.7-2.2-2.3-2.2-3.8 0-.6.6-1.1 1.3-1 .6.2 1.2-.4 1.2-1.2s-.7-1.5-1.7-1.5c-.9 0-2.4-.8-3.5-1.7-1-.9-4.8-3.2-8.4-5.1-4.9-2.6-7-3.2-7.8-2.4-.6.6-1.1 4.6-1.1 9.1s-.4 8.7-.9 9.4c-1.1 1.9-24.1-9.6-24.1-12.1 0-.9.4-1.7.8-1.7s4.8 2 9.6 4.6c4.9 2.5 9.5 4.3 10.2 4 1.6-.6 2-11.6.4-11.6-.5 0-1 2.2-1 5 0 2.7-.4 5-.9 5-1.5 0-2.3-1.8-1.1-2.5.5-.3 1-3.7 1-7.5 0-6-.3-7.1-2.2-8.4-4.2-3-4.8-2.2-4.8 6.4 0 4.4-.2 8-.5 8s-2.9-1.2-5.7-2.6c-4-2-5.6-2.4-6.9-1.6-1.3.9-1.9.7-2.3-.4-.7-1.9-.8-22.4-.1-22.4.3 0 3.5 1.6 7.2 3.6m52.3-3.1c0 .3-.2.5-.5.5s-.5-.2-.5-.5.2-.5.5-.5.5.2.5.5m4.7 3.7c-.3.7-.5.2-.5-1.2s.2-1.9.5-1.3c.2.7.2 1.9 0 2.5m57.9 4.5c7.7 4.3 15.6 8.7 17.7 9.8 2 1.1 3.7 2.5 3.7 3.2s-.2 1.3-.5 1.3c-.8 0-8.8-4.3-16-8.5-3.3-2-7.1-4.1-8.5-4.8-1.4-.6-2.7-1.4-3-1.7s-2.2-1.4-4.2-2.5c-2.1-1.1-3.8-2.5-3.8-3.2s.2-1.3.3-1.3c.2 0 6.6 3.5 14.3 7.7m-58.9-1c-.4.3-.7 0-.7-.7s.3-1 .7-.7c.3.4.3 1 0 1.4m11.4.3c2.6 1.5 2.4 2.5-1.2 6-5.2 4.9-10.6 3.7-9.4-2.1.4-1.9.9-3.7 1.2-4.2.6-1.1 7.1-.9 9.4.3m11.6 2.1c.5 1.7.6 4.9.3 7.2-.4 3.8-.5 3.6-.8-2.1-.3-6.6-1.8-8.6-4.7-6.2-.8.7-1.5.8-1.5.3 0-1.6 1.2-2.3 3.6-2.3 1.8 0 2.5.8 3.1 3.1m-1.7 4c0 1.6-.4 2.9-1 2.9-.5 0-1-1.6-1-3.6 0-2.1.4-3.3 1-2.9.6.3 1 1.9 1 3.6m-4.3-1.4c-.4.3-.7 0-.7-.7s.3-1 .7-.7c.3.4.3 1 0 1.4m-59.7 8.4c0 4.6-.3 5.7-1.4 5.3-.9-.3-1.6-2.5-1.8-5.7-.5-6.5-.1-8.2 1.8-6.6.9.7 1.4 3.2 1.4 7m59.7-3.4c-.3 1-.5.4-.5-1.2 0-1.7.2-2.4.5-1.8.2.7.2 2.1 0 3m80.7 9.7c24 13.5 29.6 16.9 29.6 17.7 0 .5-1.6 1.7-3.5 2.6-4 1.9-5.6 1.4-12-4.4-2.2-1.9-6-5.2-8.5-7.2s-4.7-3.8-5-4.1c-.6-.6-10.6-8-14-10.4-5.3-3.7 2-.5 13.4 5.8M170.2 781c.9 0 2 .9 2.3 2 .4 1.2 3.5 3.5 7.6 5.6 6.9 3.4 8.1 5.4 3.4 5.4-3 0-12.2-5.3-14.7-8.6-1.1-1.3-2.7-3.2-3.6-4.1-1.6-1.6-1.5-1.6.8-1 1.4.4 3.3.7 4.2.7m24.8 0c0 .5-.4 1-1 1-.5 0-1-.5-1-1 0-.6.5-1 1-1 .6 0 1 .4 1 1m-1.3 2.7c-.4.3-1 .3-1.4 0-.3-.4 0-.7.7-.7s1 .3.7.7M170 795.2c2.2 3.6 2.1 5.1-.2 5.6-2.2.4-5.8-3.7-5.8-6.5 0-3.5 3.6-3 6 .9m-43-.7c0 .3-.2.5-.5.5s-.5-.2-.5-.5.2-.5.5-.5.5.2.5.5m34.7 3.2c-.4.3-.7 0-.7-.7s.3-1 .7-.7c.3.4.3 1 0 1.4m0 3c-.4.3-.7 0-.7-.7s.3-1 .7-.7c.3.4.3 1 0 1.4m63.3 6.6c13.1 7.3 20.4 11.7 19.2 11.7-.7 0-5.7-2.5-11-5.7-5.3-3.1-11.6-6.7-13.9-8-2.4-1.4-4.6-3-5-3.6-.3-.6.9-.2 2.8 1 1.9 1.1 5.4 3.2 7.9 4.6m42.8-.2c7.7 4.2 8.2 4.7 8.2 8 0 3.9-2.2 3.8-9.7-.2-7.7-4.2-8.3-4.8-8.3-7.4 0-4.5 2.2-4.6 9.8-.4m40.3 3.2c3.7 5.8 6.1 10.8 5.6 11.3-.5.6-15.2-8.2-16.6-10-.9-1.1-.5-1.8 2.1-3.4 4.8-3 6-2.7 8.9 2.1m-23.5 7.9c4.3 3.5 5.3 4.9 5.3 7.3.1 2.1-.2 2.6-.8 1.6-1.5-2.4-4.4-.5-3.7 2.4.5 2 .3 2.5-1.3 2.5-1.4 0-1.8-.5-1.4-1.8.2-1-.2-2.4-1-3.1-1.3-1-1.6-.8-2.2.8-.3 1.2-.3 2.5 0 3.1.3.5.1 1-.4 1-.7 0-1.1-3.3-1.1-9 0-5 .3-9 .6-9 .4 0 3.1 1.9 6 4.2m9.4 16.3c0 4.7-.2 8.5-.5 8.5-.4 0-2-.7-3.7-1.6-2.4-1.2-4.7-1.5-9.4-1.1-4.7.5-6.6.2-8-.9-1.6-1.3-1.7-1.5-.2-1 1.1.3 2.5-.4 3.8-2.1 1.8-2.3 2.5-2.5 6.5-2 6.7 1 9.5-.4 9.5-4.8 0-1.9.5-3.5 1-3.5.6 0 1 3.5 1 8.5m-39.6-6c.3.8 1.4 1.5 2.5 1.5 2.2 0 4.6 3.2 5.6 7.8.4 2 2 4.2 4.1 5.8 3.4 2.6 3.4 2.6 3.4 15.3s0 12.7 3.2 14.6c1.8 1.1 4.1 2.3 5 2.7 1.7.7 2.6 2.8 1.2 2.8-.3 0-3.6-1.6-7.3-3.5-7.4-3.9-7.8-4.5-12.5-18.5-1.3-4.1-4.1-12.1-6.1-17.8-2-5.6-3.3-10.7-3-11.2.9-1.5 3.2-1.2 3.9.5m43.4 6.6c-.2 6.1.1 7.3 1.8 8.7 1.2 1 3.4 3.4 4.9 5.5 3.1 4.1 16.3 11.4 18.9 10.4q1.5-.6 2.1-8.1c.4-4.2 1-7.6 1.4-7.6.3 0 .7 5.2.9 11.5.1 6.3-.1 11.5-.5 11.5-1.4 0-17.8-9.7-19.6-11.6-12-12.7-11.7-12.2-11.7-20.1 0-4.4.4-7.3 1-7.3.7 0 1 2.7.8 7.1m26.7 7.6c-.2 3.4-1.8 15.3-2.1 15.3-.2 0-3.4-1.5-7.1-3.3-7.3-3.5-10-5.8-10.9-9.7-1.2-5.3-1.4-5.6-2.4-4-1.7 2.8-2.9-.4-2.3-6.2l.6-5.7 12.1 6.4c6.6 3.5 12.1 6.7 12.1 7.2m-34.8-11c-.4.3-1 .3-1.4 0-.3-.4 0-.7.7-.7s1 .3.7.7m-.7 16.4c4.7 2.8 8.9 6.8 10.6 10.2 1.6 2.9 5 5.3 15.4 10.8 3.6 1.8 6.7 3.6 7 3.9s2.3 1.5 4.5 2.7c4 2.2 4 2.2 4 11.4v9.2l8.5 4.9c4.7 2.7 11.3 6.3 14.8 8.1 5.4 2.7 6.2 3.4 6.2 5.9 0 2.9-.9 3.5-2.5 1.9-.6-.6-4.9-3-9.7-5.5s-11.3-5.9-14.4-7.6c-3.1-1.8-5.4-2.6-5.2-2 .4 1.3 2.4 2.5 15.8 9.7 4.1 2.2 9.2 5 11.3 6.1 6 3.5 7.3 2.9 6.8-3.3-.1-1.1-1.4-3.1-2.9-4.4s-2-2.1-1.1-1.8c2.7.9 3.9-1.4 3.9-7 0-5.7.1-5.8 3.1-4.3 1.7 1 1.9 2.3 1.9 15.5 0 8-.3 14.5-.8 14.5-.4 0-1.6-.6-2.7-1.3-2.2-1.5-9.9-5.8-21.5-12-4.1-2.2-8.6-4.8-10-5.7s-5.4-3.1-9-5c-3.6-1.8-7.6-4-9-5-1.4-.9-5.2-3-8.5-4.7-15.7-8.2-18.9-10.1-19.3-11.3-.4-1 .2-1.1 1.9-.6 4.5 1.3 5 1.1 6.4-2.7 1.4-4.1 6-10.6 8-11.3.7-.3 4.1 1 7.6 2.9 6.4 3.3 6.4 3.3 6.9 10.1.4 5.9.8 7 2.7 7.7 2.9 1 4.1-.6 4.6-6.1.2-3 .4-1.9.5 3.3l.2 7.8-4.2-2.4c-2.4-1.3-4.8-3.4-5.5-4.8s-4.4-4.1-8.8-6.4c-7.5-3.9-7.7-4-9.1-2-2 2.7-1.4 5.4 1.6 7.1 1.4.7 6.3 3.5 11 6.2 4.7 2.6 10 5.5 11.8 6.3 2.2 1 3.2 2.1 3.2 3.6 0 1.3.5 2.3 1 2.3.6 0 1-4.9 1-12.8 0-12.8 0-12.8-4.2-15-2.4-1.3-6.5-3.6-9.3-5.2-2.7-1.7-6.1-3.5-7.4-4-2.5-1.1-6.1-.5-6.1 1.1 0 .5-.4.9-1 .9-.5 0-1-.9-1-2 0-2.1-1.4-2.7-2.5-1.1-.3.5.2 1.6 1.1 2.5 1.4 1.5 1.4 1.9-.5 4.5-1.1 1.5-2.5 4-3.1 5.5-1 2.8-2.1 3.2-5 1.6-1.3-.7-2.1-.7-2.5 0-1.1 1.8-3.1 1.1-4.3-1.5-.6-1.3-2.9-3.3-5.2-4.5-3.9-2-4-2.2-4-7.3 0-2.8-.3-8.2-.7-12-.6-6.7-.6-6.7 2.5-6.1 1.6.3 3.8.1 4.9-.5 2.8-1.6 6.5-1.3 10.3 1m46.6 1c3.9 2.4 4.2 3.9 1.4 6.4-2.2 2-5 7.1-5 9 0 2 2.7 3.7 7.2 4.5 3.6.7 4.4.5 6.3-1.6 1.2-1.3 2.5-2.4 2.8-2.4.9 0-.4 11.4-1.4 12.5-.5.5-.9-.2-.9-1.9 0-1.8-.4-2.6-1.2-2.3-.7.2-1.2 1-1 1.6.4 1.8-1.4 1.3-6.8-1.9-2.8-1.7-5.5-3-6-3-.6 0-1-3.2-1-7.1 0-5.8.3-7 1.5-6.6 2 .8 2.9-1.1 1.4-2.9-1.2-1.4-1.4-1.4-2.6.2s-1.3 1.4-1.3-1.7c0-5.6 1.3-6.1 6.6-2.8m9.2 5.5c1.3.9 2.8 2.8 3.3 4.2.8 2.1.5 2.9-2 5.4-2.2 2.1-3.8 2.9-5.8 2.6-1.5-.2-2.8-.8-2.8-1.5s-.5-1.7-1.1-2.3c-1.7-1.7-.6-4.5 2.2-6 1.3-.8 2.4-1.9 2.4-2.7 0-1.7 1.1-1.6 3.8.3m-9.8 9.9c0 .3-.2.5-.5.5s-.5-.2-.5-.5.2-.5.5-.5.5.2.5.5m22.8 3.7c7.3 4 9.9 6.4 12.4 11.2 1.6 3.1 1.8 4.4.9 6.2-.6 1.3-1.6 2.4-2.3 2.4-.9 0-.9-.3 0-1.2 4.5-4.5-4.1-17-9.1-13.3-3 2.2-1.9 7.2 2.7 12.4 1.7 1.9.7 1.6-5.4-1.8-6.1-3.3-7.5-4.5-7.3-6.3.1-1.3.3-4.7.5-7.5.2-2.9.6-5.3 1.1-5.3.4 0 3.3 1.4 6.5 3.2m6.8 7.6c3 2 4.7 10.2 2.2 10.2-3-.1-6.8-5.1-6.8-8.9 0-2.1 2.4-2.8 4.6-1.3m-42.6 6.3c0 2.8-.4 3.9-1.5 3.9s-1.5-1.2-1.5-5.1c0-4.5.2-5 1.5-3.9.9.7 1.5 2.9 1.5 5.1m-15.3-.4c3.4 1.8 6.4 4.1 6.8 5.3.3 1.1 2.6 3.2 5.1 4.6 2.4 1.4 4.4 3 4.4 3.6 0 .5-1.7 0-3.7-1.3-2.1-1.2-7.4-4.2-11.8-6.7-4.4-2.4-8.4-4.8-8.9-5.2-1-1 0-4.3 1.2-3.8.4.2 3.5 1.8 6.9 3.5m29.1 6.3c-.4 10.7-2.2 10.8-2.6.2-.2-6.9 0-8.2 1.3-8.2s1.5 1.3 1.3 8m9-2.2c1.5 1 3.9 2.4 5.5 3.2 2.6 1.3 2.7 1.6 2.7 9.2 0 4.3-.3 7.8-.7 7.8-.5 0-2.6-1-4.8-2.1-4-2.1-4-2.1-3.7-9.5.3-4.8 0-7.4-.6-7.4s-1.2 2.6-1.4 5.7c-.2 4.4-.7 5.8-1.8 5.8-1.2 0-1.6-1.6-1.8-7.3-.3-6.8-.2-7.2 1.9-7.2 1.1 0 3.3.8 4.7 1.8m13.5 7.6c1.3 1 1.7 2.8 1.7 7 0 5.4-.1 5.7-2.2 5.4s-2.3-.9-2.6-7.1c-.3-6.9.1-7.6 3.1-5.3m16.1 8.4c1 .2 2.1 0 2.5-.7.5-.8 3 .1 8.2 3 4.1 2.3 9.9 5.5 12.9 7.2 3 1.6 6 3.3 6.5 3.7 1 .8 6.1 3.6 15 8.4 8.2 4.4 9 5.3 7.5 7.2-.8.8-3.4 3-5.9 4.7s-5.2 3.7-5.9 4.4c-4.6 4.5-12.7 6.2-18.7 3.8-5.2-1.9-5.5-2.8-2-5.1 3.2-2.1 3.2-3.7 0-5.4-2.2-1.2-3-1.1-6.4.8-2.1 1.2-4.6 2.2-5.4 2.2-2.9 0-3-2.2-.1-4.6s2.9-2.4.4-4.5-4-2.1-9.7.2c-4.4 1.8-5.2.5-1.9-3 2.7-2.8 2.7-2.8.2-4.9-2.4-1.9-2.6-2.5-2.6-10.7 0-7.9.2-8.6 1.8-8 .9.4 2.5 1 3.6 1.3m-3.9 19.2c.3.5.1 1-.4 1-.6 0-1.1-.5-1.1-1 0-.6.2-1 .4-1 .3 0 .8.4 1.1 1m10.5 7c1.3.9 1.2 1.2-.4 2.5-2.2 1.7-6.2 2-7.1.6-.6-1 3.2-4.1 5-4.1.5 0 1.7.5 2.5 1m12.8 7.8c.5 1.6-4.6 3.4-6.5 2.3-1.4-.7-1.2-1.1 1.3-2.4 3.2-1.8 4.6-1.7 5.2.1"/><path d="M114.7 742.4c-2 2-1.1 6 2 9.1 2.9 2.9 4.5 3.1 6.3 1 1.7-2.1.3-7.1-2.7-9.5-3.1-2.4-3.7-2.5-5.6-.6m5.3 2.6c2.3 2.3 2.7 7 .7 7-2.6 0-6.4-6.1-5.1-8.1.8-1.4 2.2-1.1 4.4 1.1M135.6 753.9c-.8 1.2.3 4.1 1.5 4.1s1.2-3.7 0-4.5c-.5-.3-1.2-.1-1.5.4M163.6 765.9c-.9 1.4.3 3.9 2.1 4.6 2.4.9 3.7-.9 2.4-3.4-1.2-2.2-3.6-2.8-4.5-1.2m2.9 2.1c.3.5.4 1 .1 1s-.8-.5-1.1-1c-.3-.6-.4-1-.1-1s.8.4 1.1 1M254 789c0 1.1.5 2 1 2 .6 0 1-.9 1-2s-.4-2-1-2c-.5 0-1 .9-1 2M231.2 797.6c.2 1.1 1.1 2 2.2 2.2 1.3.3 1.7-.1 1.4-1.4-.2-1.1-1.1-2-2.2-2.2-1.3-.3-1.7.1-1.4 1.4M114 771.3c0 6.9.2 7.4 2.5 8.5 1.4.7 2.8 1.2 3 1.2.3 0 .5-3.1.5-6.9 0-6.1-.3-7.2-2.2-8.5-1.2-.9-2.6-1.6-3-1.6-.5 0-.8 3.3-.8 7.3m3.8 1.6c.2 4 0 5.2-1 4.9-.8-.3-1.4-2.5-1.6-5.7-.2-4 0-5.2 1-4.9.8.3 1.4 2.5 1.6 5.7M182 769.5c0 .8.5 1.5 1 1.5.6 0 1-.7 1-1.5s-.4-1.5-1-1.5c-.5 0-1 .7-1 1.5M260 807.4c0 .7.7 1.9 1.5 2.6 2 1.6 3.8.1 2.9-2.3-.7-2-4.4-2.3-4.4-.3M269.6 811.9c-1 1.6.5 4.1 2.5 4.1 2.1 0 2.5-2 .7-3.8-1.4-1.4-2.5-1.5-3.2-.3M279.5 817c-1 1.6.4 5 2.1 5 .8 0 1.4-.8 1.4-1.9 0-2.3-2.5-4.7-3.5-3.1M301.5 833c-.7 1.2.2 3 1.6 3 1.2 0 1.2-2.7 0-3.5-.5-.3-1.2-.1-1.6.5M306.7 837.7c-.4.3-.7 1.8-.7 3.3 0 4.9 7.8 9.5 9.4 5.5 1.8-4.7-5.5-12.1-8.7-8.8m5.1 2.5c1.6 1.6 1.5 5.8-.1 5.8-2 0-3.7-2.2-3.7-4.7s1.9-3 3.8-1.1M317.5 841c-.7 1.2.2 3 1.6 3 1.2 0 1.2-2.7 0-3.5-.5-.3-1.2-.1-1.6.5M316.2 849.6c.1.9.9 1.9 1.6 2.2.9.3 1.3-.2 1-1.4-.1-.9-.9-1.9-1.6-2.2-.9-.3-1.3.2-1 1.4M282.8 854.7c-2.3 2.1-4.8 4.3-5.5 5-2 1.8-1.5 6.7.8 9.7 2.9 3.7 6.2 3.3 11-1.2 2.3-2 4.7-4.1 5.5-4.5 3.5-2-.2-10.7-5.3-12.2-1.6-.4-3.3.3-6.5 3.2m9.1.9c3 3.9 2.6 5.4-2.6 10.1-5.3 4.7-7.2 5.2-9.5 2.5-3.7-4.2-3-5.9 5-12.5 4.1-3.3 4.5-3.3 7.1-.1M275.2 854.4c.1 1 .8 1.7 1.3 1.7 1.5-.1 1.2-2.4-.3-2.9-.9-.3-1.3.2-1 1.2M286.2 875.2c.6 1.8 2.8 2.1 2.8.4 0-.9-.7-1.6-1.6-1.6s-1.4.5-1.2 1.2M338.7 858.7c-1.2 1.2-.7 4.4.9 6 1.4 1.4 1.7 1.4 3.1 0 1.5-1.4 1.5-1.8-.1-4.1-1.7-2.6-2.7-3.1-3.9-1.9m3.3 4.4c0 .5-.4.9-1 .9-.5 0-1-.7-1-1.6 0-.8.5-1.2 1-.9.6.3 1 1 1 1.6M142 788.4c0 4.9.2 5.4 2.5 5.8 3.2.7 3.5.3 3.5-4.7 0-4.4-1.3-6.5-4.2-6.5-1.5 0-1.8.9-1.8 5.4m4-2.4c0 .5-.4 1-1 1-.5 0-1-.5-1-1 0-.6.5-1 1-1 .6 0 1 .4 1 1m0 5c0 .5-.4 1-1 1-.5 0-1-.5-1-1 0-.6.5-1 1-1 .6 0 1 .4 1 1M216.5 819.5c3.2 2.7 4.5 3.1 4.5 1.5 0-.9-5.2-4-6.7-4-.4.1.6 1.2 2.2 2.5M224.4 824.5c.3 1 .1 2.4-.6 3.2-1 1.3-.9 1.5.7 1.2 2.4-.5 2.8-5 .6-5.7-1-.3-1.2 0-.7 1.3M216.2 831.5c-2.8 1.5-4.9 3.5-3.8 3.5 1.6 0 7.6-3.3 7.6-4.1 0-1.2-.9-1-3.8.6M205 838c-1.7 1.3-2 2-1 2 .8 0 2.6-.9 4-2 1.7-1.3 2-2 1-2-.8 0-2.6.9-4 2M195.7 842.6c-1.5.8-2.5 1.9-2.2 2.4.6.9 6.5-2 6.5-3.3 0-1-1.1-.8-4.3.9M186.5 847.8c-1.6.8-2.5 1.7-1.8 1.9 1.2.4 7.3-2.3 7.3-3.2s-2.5-.3-5.5 1.3M180.7 851.7c-1 .9-.8 4.3.2 4.3.5 0 1.1-1.1 1.3-2.5.5-2.4-.2-3.2-1.5-1.8M558.2 855.2c-1 1.4-1.4 26-.3 27.4.3.5 1.7 1.5 3 2.2 4 2.3 8.3 4.8 15.7 9.1 4 2.3 8.4 4.1 10.1 4.1 1.6 0 3.3.4 3.8.9.6.5 3 1.3 5.5 1.8l4.5.9.3 25.2c.1 15.3.6 25.2 1.2 25.2s1.1-9.9 1.2-25.2l.3-25.2 4.5-.9c2.5-.5 5-1.3 5.7-1.9.7-.5 1.7-.7 2.2-.4.6.4 2.7-.8 4.8-2.7 2.1-1.8 7-5.2 11-7.5s7.9-5.2 8.8-6.4c2.5-3.6 1.6-21.4-1.1-22.5-.7-.2-4.1 1.2-7.6 3.3-6.3 3.8-6.3 3.8-21.3 3.7-8.2-.1-19.2-.7-24.4-1.4-8.4-1.2-10.4-1.9-17.5-6.1-9-5.3-8.9-5.3-10.4-3.6m9.3 5.1c16.1 8.9 18 10.3 16.5 12.6-.7 1.2-1.9.9-7.2-1.9-3.5-1.8-7.5-4.1-9-5.2-1.4-1-3.3-1.8-4-1.8-1.6 0-3.5 3.2-4.1 7-.3 1.4-.3-1.1-.2-5.5.2-4.4.3-8.1.4-8.3.3-.6 2.1.1 7.6 3.1m72.3 10.4c.3 7.8.2 8.2-2 8.5-1.4.2-2.4 1.2-2.8 2.8-.4 1.7-2.7 3.7-7.6 6.6-6.7 3.9-7.1 4.1-8.2 2.3-1-1.6-.9-1.9.8-1.9 3.4 0 11.5-5 14-8.7 1.8-2.7 2.4-4.8 2.3-8-.1-2.3.3-4.5.8-4.8.5-.4.9-1.3.9-2.1 0-2.1-3.1-1.7-3.7.6-.3 1.1-1 2-1.6 2-.5 0-3.2 1.4-6 3.1-4.4 2.7-5.1 2.9-5.9 1.5-.5-.9-1.3-1.4-1.9-1.1-.5.4-.9.1-.9-.4 0-.6 1-1.1 2.3-1.1 1.2-.1 5.4-1.8 9.2-4 3.9-2.2 7.7-3.9 8.5-3.7 1.2.2 1.6 2.1 1.8 8.4M566 868c.6 1.1 2.1 2 3.3 2 1.3 0 4.3 1.2 6.8 2.8 2.4 1.5 5.6 3.3 7.1 4.1 1.6.8 2.7 1.6 2.5 1.7-.2.2-3.4.1-7.1-.3-5.2-.5-7-1-7.3-2.3-.5-2-4-4.3-5.4-3.4-.5.3-.7 1.4-.4 2.5.4 1 .2 1.9-.4 1.9-1.5 0-3.1-3.5-3.1-6.8 0-4.5 2.1-5.7 4-2.2m39.8.9c11.3.6 11.4.6 9.5 2.6-3.8 4.2-13.6 5.7-21.4 3.4-2.1-.7-5.3-2.7-7.1-4.6l-3.3-3.5 5.5.7c3 .5 10.6 1.1 16.8 1.4M634 874c0 4.9-1.2 5.5-11.5 6.2-3.8.3-6.3.3-5.5 0 .8-.2 2.4-1.3 3.6-2.4 3.1-2.8 10.7-7.6 12.2-7.7.8-.1 1.2 1.3 1.2 3.9m-32.1 4c4.7 0 7.8-.6 10.6-2 2.3-1.2 4.1-1.6 4.3-1 .2.5 1 1 1.8 1 .9 0 1.2.4.9 1-.3.5-1.6 1-2.9 1-1.2 0-2.6.4-3.1.9-2.1 2-11.5 3.1-16.3 2-6.6-1.5-11.2-4-11.2-6.1 0-1.6.5-1.5 4.6.7 3.6 1.9 6.2 2.5 11.3 2.5m-30.9 5.7c3.6 2.1 7.9 4.5 9.5 5.5 14.3 8.4 19.9 9.3 33.3 5.3 3.1-1 2.8.9-.5 2.5-4.7 2.2-15.2 2.4-20.3.5-2.5-1-5.6-1.8-7-1.9s-4.7-1.4-7.5-3c-2.7-1.6-7.5-4.2-10.5-5.8-7.9-4.3-9.4-6-8.6-9.4.7-2.8.7-2.8 2.9-.1 1.2 1.4 5.1 4.3 8.7 6.4m9.3-3.2c6.5.8 13.6 1.9 15.7 2.5 2.6.7 8.2.7 17.6 0 7.7-.5 14.6-1 15.4-1 2.3 0-4.4 3.8-8.8 5-2.2.5-4.2 1.7-4.5 2.5-2.1 5.2-19 6.9-26.2 2.6-2.2-1.3-5.6-3.3-7.5-4.3-10.8-6.1-14-8-14-8.4 0-.5-1.5-.6 12.3 1.1M188 860c2.6 2 4 2.5 4 1.4s-3.4-3.3-5-3.3c-1-.1-.6.6 1 1.9M226 862.5c-2.9 1.5-5.6 2.1-8 1.8-2.5-.2-4.9.4-8.5 2.4-4.9 2.8-5 2.9-5.3 8-.3 5.8.2 6.2 4.8 3.8 3-1.6 3-1.6 3 16.4 0 9.9.4 18.2.8 18.5.5.3 1.2-8.1 1.6-18.6.3-10.5.8-19.4 1.1-19.6.3-.3 1.7 0 3.1.6 2.1 1 3.2.9 6.2-.5 6.2-2.8 7.2-4.1 7.2-9.4 0-2.6-.3-5-.7-5.2-.5-.3-2.8.5-5.3 1.8m4 4.5c0 3.4-.4 4.2-3 5.5-4.3 2.2-5 1.9-5-2.5 0-2.2.4-4 .9-4 .4 0 .6 1.1.4 2.4-.3 1.3 0 2.7.6 3.1 1.8 1.1 4.2-1.6 4.1-4.4-.3-3.6-.1-4.1 1-4.1.6 0 1 1.8 1 4m-15 2.9c0 3.4-.4 4.1-3.4 5.5-4.9 2.3-5.8 2.1-5.4-1.6.2-2.6 1.1-3.7 4.3-5.5 2.2-1.3 4.1-2.3 4.3-2.3.1 0 .2 1.7.2 3.9m5 .2c0 5.2-2.4 4.8-2.8-.4-.2-2.8.1-3.7 1.2-3.7 1.2 0 1.6 1.1 1.6 4.1m6-1.5c0 .8-.5 1.2-1 .9-.6-.4-.8-1.1-.5-1.6.9-1.4 1.5-1.1 1.5.7M197 863.8c0 .9 6.1 4.4 6.7 3.8.9-.9-.7-2.4-3.7-3.4-1.6-.6-3-.8-3-.4M168.8 917.5c-.5.5-.8 5.7-.8 11.7 0 10.8 0 10.9 2.6 11.8 1.6.6 19.1.9 45.7.8l43.2-.3V918c-.3-.6-90.2-1-90.7-.5m87 2.5c.1 0 .2 4.6.2 10.2v10.1l-41.7-.7c-22.9-.3-41.8-.8-42-.9-.6-.7-1.2-18-.6-19 .4-.6 14.6-.8 42.2-.4 22.9.4 41.7.6 41.9.7"/><path d="M178 925.6c0 4.1.2 4.5 2 3.9 1.7-.5 2-.2 2 2.4 0 1.7-.4 3.1-1 3.1-.5 0-1-.5-1-1 0-.6-.4-1-1-1-1.3 0-1.3 2.7 0 3.5.6.3 1.9.3 3 0 2.9-.9 2.9-8.1 0-9-2.4-.8-2.7-4.3-.4-4.1.9 0 1.9-.5 2.1-1.2.3-.8-.6-1.2-2.6-1.2-3 0-3.1.1-3.1 4.6M189.4 922.1c-.3.6-.1 1.6.5 2.2.8.8 1.1.8 1.1-.1 0-.7.5-1.2 1-1.2.6 0 1 .9 1 1.9 0 1.1-.4 2.3-1 2.6-1.5 1-1.2 2.5.6 2.5 1.1 0 1.4.6.8 2.2-.9 3.3-1.4 3.5-2.5 1.5-.6-.9-1.5-1.5-2-1.1-1.3.8 1.9 4.4 3.8 4.4 2 0 3.5-4.7 2.2-7.1-.6-1.2-.8-2.8-.5-3.6 1.5-3.8-2.9-7.5-5-4.2M210.7 921.7c-1.1 1-.8 4.3.3 4.3.6 0 1-.5 1-1 0-.6.7-1 1.5-1 1.6 0 1.5 1.9-.6 8.4-.5 1.5-.6 3.2-.3 3.7 1.1 1.9 2.2-.3 2.8-6.1.4-3.4 1-6.8 1.3-7.6.4-1-.3-1.4-2.4-1.4-1.6 0-3.3.3-3.6.7M223.4 921.8c-1.5 1-2.5 11.4-1.3 13.5 1.2 2 4.2 2.2 5.7.4 1-1.2.8-12-.3-13.8-.7-1.1-2.6-1.2-4.1-.1m2.6 3.7c0 1.4-.4 2.5-1 2.5-.5 0-1-1.1-1-2.5s.5-2.5 1-2.5c.6 0 1 1.1 1 2.5m.5 5.5c.8 1.3-.3 5-1.5 5s-2.3-3.7-1.5-5c.3-.5 1-1 1.5-1s1.2.5 1.5 1M234.9 921.5c0 .6-.1 4.3-.2 8.2-.2 6 .1 7.3 1.3 7.3 1.3 0 1.5-1.2 1.2-7.3-.2-3.9-.8-7.6-1.3-8.2-.6-.5-.9-.5-1 0M199.5 929c-.4.6 1 1 3.5 1s3.9-.4 3.5-1c-.3-.6-1.9-1-3.5-1s-3.2.4-3.5 1M558.3 952.8c-.7.4-1.2 4.4-1.3 10.2-.3 16.7-2.6 14.7 17.3 15.4 15.1.5 66.1 1.1 69.5.7.9-.1 1.2-3.3 1.2-12.6V954h-8.2c-15.7 0-65.3-1-71.3-1.5-3.4-.2-6.6-.1-7.2.3m61.5 3.2H642v21.3l-24.7-.6c-13.7-.4-32.1-.7-41-.7H560v-21.3l18.8.6c10.3.4 28.7.7 41 .7"/><path d="M566 961.6c0 4.1.2 4.5 2 3.9 1.7-.5 2-.2 2 2.3 0 3.7-1 4.6-2.6 2.4-1.2-1.6-1.3-1.5-1.4.6 0 1.2.7 2.5 1.5 2.8 2.5 1 4.5-1.6 4.5-5.7 0-2.9-.5-3.9-2-4.4-1.1-.3-2-1.3-2-2.1s.9-1.4 2-1.4 2-.7 2-1.5q0-1.5-3-1.5c-2.9 0-3 .2-3 4.6M578.6 961.9c-2.8 5.4-2.9 8.1-.1 8.1.9 0 1.5.9 1.5 2.1 0 2.8 2.3 1.9 2.5-1 .1-1.3-.1-5.1-.4-8.4l-.7-6.2zm1 4.8c-1 1-1.9-.5-1-1.8.6-1.1.8-1.1 1.2 0 .2.7.1 1.5-.2 1.8M609.5 958.4c-1.3.9-1.6 2.1-1.2 4.1.3 1.6.2 3.8-.3 4.9-1.2 3.3.5 6.6 3.4 6.6 1.5 0 2.6-.7 2.9-1.8.4-1.4.2-10.1-.2-13.1-.2-1.6-2.9-2-4.6-.7m3 3.6c0 .7-.6 1.5-1.2 1.7-.8.3-1.3-.4-1.3-1.7s.5-2 1.3-1.8c.6.3 1.2 1.1 1.2 1.8m0 7.5c0 1-.5 2-1.1 2.2-1.3.4-2.7-2.4-1.8-3.8.9-1.5 2.9-.4 2.9 1.6M599.2 963c-2.4 5-2.3 7 .4 7 .8 0 1.4.9 1.4 2s.6 2 1.4 2c.9 0 1.3-1 1.1-3.3-.2-1.7-.3-5.3-.4-8-.1-2.6-.4-4.7-.8-4.7-.5.1-1.8 2.3-3.1 5m1.5 4.2c-.3.7-.5.2-.5-1.2s.2-1.9.5-1.3c.2.7.2 1.9 0 2.5M618.9 962c-1.6 5.3.2 12 3.1 12 1.9 0 2.3-.8 3.3-7.4 1.3-7.9-4.2-11.8-6.4-4.6m4.3.3c.6 3.1-.2 9.7-1.2 9.7-1.3 0-2.2-5.7-1.5-9 .8-3.6 2.1-3.9 2.7-.7M587 966c0 .5 1.6 1 3.6 1 2.1 0 3.3-.4 2.9-1-.3-.6-1.9-1-3.6-1-1.6 0-2.9.4-2.9 1M205.3 979.1c-.9.9-1.3 4.7-1.3 11.6 0 8.9.2 10.4 1.8 11.2 1.2.6 18.3.9 45.2.8l43.4-.2-.3-11.5c-.1-6.3-.5-11.7-.8-12-.2-.3-19.9-.6-43.6-.8-33.8-.3-43.5-.1-44.4.9m85.9 9.6c.2 4.9.1 9.6-.1 10.6-.4 1.8-2.2 1.9-41.2 1.5-22.4-.1-41.1-.6-41.5-1.1-.9-.9-1.8-16.2-1-18.2.5-1.3 6-1.5 42-1.5h41.5z"/><path d="M214 986.6c0 4.1.2 4.5 2 3.9 1.7-.5 2-.2 2 2.4 0 3.3-.8 3.8-2.9 1.8-1-1-1.2-.8-.9.8.5 3.1 4.6 3.2 5.4.1.9-3.7.1-6-2.4-7.1-2.8-1.2-2.5-3.9.6-4.3 2.9-.4 1.8-2.2-1.4-2.2-2.2 0-2.4.4-2.4 4.6M225.7 982.6c-.4.4-.7 1.4-.7 2.2 0 1.2.3 1.2 1.5.2 1.3-1.1 1.5-.8 1.5 1.4 0 1.4-.4 2.6-1 2.6-.5 0-1 .4-1 1 0 .5.7 1 1.5 1 .9 0 1.5.9 1.5 2.5s-.6 2.5-1.5 2.5c-.8 0-1.5-.8-1.5-1.7 0-1.3-.3-1.4-1.2-.5-1.4 1.4.6 4.2 3.2 4.2 2.3 0 2.9-3 2.1-10-.4-3.8-1.1-5.6-2.1-5.8-.9-.1-1.9 0-2.3.4M247.8 987.5c-2.8 5.5-2.8 6.5.5 6.5 1.4 0 1.8.5 1.4 2-.3 1.3 0 2 .9 2 1.1 0 1.4-1.7 1.4-7.4 0-4.1-.3-7.7-.7-7.9-.5-.3-2 1.9-3.5 4.8m2.2 3c0 .8-.4 1.5-1 1.5-.5 0-1-.7-1-1.5s.5-1.5 1-1.5c.6 0 1 .7 1 1.5M258.4 983.1c-2.9 4.7-1.9 14.9 1.5 14.9 3.7 0 5.3-7.9 2.6-13-1.6-3.2-2.9-3.7-4.1-1.9m3.2 3.3c.8 3.5.1 8.9-1.3 9.4-1 .3-1.3-1.3-1.3-5.7 0-6.1 1.4-8.2 2.6-3.7M269.2 983.2c-1.2 1.2-1.7 10.4-.6 13.2.3.9 1.4 1.6 2.4 1.6s2.1-.7 2.4-1.6c1-2.5.7-10.4-.4-12.5-1.2-2.2-2.1-2.4-3.8-.7m2.8 6.8c0 3.3-.4 6-1 6s-1-2.7-1-6 .4-6 1-6 1 2.7 1 6M237.3 991.2c2.1.7 3.2.7 4-.1s0-1.1-2.8-1c-4 .1-4 .1-1.2 1.1"/></svg>