<svg xmlns="http://www.w3.org/2000/svg" viewBox="0 0 865.551 1220.805" fill="currentColor"><path d="M79.753 143.462c-3.304 1.693-6.207 3.387-6.508 3.786-.3.3-2.003 1.396-3.705 2.293-1.802.896-3.304 2.093-3.306 2.693-.002 1.2 10.863 17.722 12.261 18.625 1.299.803.502-.599-5.18-9.01-6.88-10.215-6.68-9.914-5.479-10.412.7-.198 4.105-2.191 7.709-4.284 3.605-2.192 6.808-3.986 7.108-3.985.4 0 .597 1.701.592 3.801-.008 4.1.99 5.402 6.483 8.314 1.698.903 5.494 3.011 8.49 4.618 2.997 1.706 8.79 4.718 12.786 6.827 7.192 3.715 7.192 3.715 7.178 10.615-.008 3.7-.415 7.099-1.016 7.397-.9.499-8.393-3.217-22.976-11.348-6.992-3.914-10.49-4.522-10.496-1.722-.003 1.1-.406 2.6-.807 3.299-1.104 1.697.99 4.302 2.892 3.506.801-.299 1.404-1.797 1.408-3.397.007-3.5 1.507-3.697 6.701-.686 8.39 4.817 16.98 9.535 20.577 11.243 3.596 1.607 3.996 1.608 6.4.113 1.802-1.196 2.304-2.195 1.907-3.796-.297-1.2-.59-4.701-.584-7.701.012-5.6.012-5.6-5.182-8.31-30.168-15.464-29.27-14.862-29.557-20.563-.194-2.8-.59-5.201-.99-5.102-.4 0-3.403 1.493-6.706 3.186"/><path d="M85.314 161.874c.094 3.2.29 5 .592 4 .202-.899 1.303-1.696 2.403-1.694 2.5.005 2.402-.795-.293-3-2.696-2.106-1.592-4.004 1.204-2.198 2.497 1.505 2.6.405.303-1.4-3.494-2.607-4.296-1.709-4.209 4.292M93.614 161.891c.198 1 .792 3.702 1.088 6.002.69 4.602 1.888 5.604 2.795 2.206.706-2.798 2.304-1.695 2.996 2.107.89 4.201 2.092 3.704 3.402-1.193 1.008-3.898.715-7.099-.391-4.101-.704 1.998-2.303 1.495-2.299-.605.005-2.6-1.792-3.704-2.596-1.705-1.006 2.497-2.204 1.895-2.898-1.407-.396-1.7-1.093-3.002-1.593-3.003-.6-.001-.802.798-.504 1.7M107.19 173.72c-.011 5 .188 5.6 2.586 6.505 3.197 1.307 2.997 1.306 4.801-.59 2.405-2.395 1.911-5.296-1.482-8.503-4.69-4.41-5.892-3.912-5.906 2.588m6.4-.187c1.895 2.504 1.894 2.804.39 4.3-2.705 2.695-4.801.99-4.791-3.71.01-4.6 1.21-4.797 4.4-.59M79.69 173.162c.3.5.798 1.002 1.098 1.002.2 0 .402-.499.403-.999 0-.6-.498-1.001-1.098-1.002-.5-.001-.701.398-.402.999M467.43 393.574c-.401.4-.713 5.999-.726 12.399l-.025 11.7 5.799.612c9.398.82 82.198 1.072 82.2.172 0-.4.112-6 .225-12.2.224-11.499.224-11.499-2.374-12.204-3.398-.907-84.197-1.377-85.1-.479m85.073 12.779.28 9.8-41.1-.086-41-.086.02-10 .022-10 40.8.286 40.699.385z"/><path d="M477.117 399.495c-1.203 1.797-1.508 3.897-1.216 7.597.589 5.502 2.085 7.305 5.088 5.81 2.703-1.493 2.017-7.995-1.08-9.401-2.697-1.206-2.293-3.105.706-2.799 2.3.305 2.701-.694.905-2.498-1.696-1.704-2.597-1.505-4.403 1.29m3.581 9.107c-.006 3.1-2.306 2.795-2.799-.406-.197-1.5.205-2.2 1.205-2.197 1.1.002 1.598.903 1.594 2.603M486.716 400.215c-.006 3 .093 3.1 1.397 1.203 2.106-2.796 2.903-1.194 1.693 3.303-1.31 4.598-1.419 9.297-.219 9.3.7.001 3.125-11.694 3.132-15.394.003-1.1-.996-1.602-2.996-1.606-2.7-.005-3.001.294-3.007 3.194M509.318 399.262c-4.012 5.692.06 18.7 4.072 13.209 1.705-2.297 1.624-11.397-.071-13.7-1.695-2.204-2.195-2.205-4.001.491m3.186 6.907c-.206 2.4-.71 4.398-1.31 4.397-1.2-.002-1.885-6.904-.98-9.302 1.106-2.898 2.599.406 2.29 4.905M519.72 398.584c-1.003 1.198-1.005 1.898-.206 2.7.898.901 1.198.902 1.2.002.001-.7.502-1.199 1.002-1.198.6.001.998.902.996 2.002s-.404 2-1.004 1.998c-.5 0-1.002.698-1.003 1.498-.002.8.497 1.501.997 1.502.6.001.998.902.995 2.002-.004 2.2-1.605 2.697-2.301.695-.199-.6-.798-.801-1.3-.402-.9.798.593 3.901 2.192 4.404 1.699.504 3.402-1.293 3.408-3.793.116-8.1-.179-10.4-1.076-11.602-1.497-1.703-2.397-1.605-3.9.192M530.62 398.707c-2.106 2.595-1.826 11.896.37 14.1 1.796 1.704 1.896 1.705 3.3-.092 2.106-2.996 1.925-11.896-.47-14.001-1.698-1.504-1.898-1.504-3.2-.007m3.085 7.006c-.009 4-.412 5.5-1.211 5.198-1.4-.503-2.286-7.005-1.38-9.403 1.206-3.198 2.602-1.095 2.59 4.205M496.704 406.036c-.001.5 1.798 1.004 3.998 1.008s4-.491 4.002-.991c.001-.6-1.798-1.004-3.998-1.009s-4.001.392-4.002.992M510.695 458.065c.055 21.2.287 54.001.647 72.902l.528 34.5-3.907 3.493c-6.914 6.285-11.725 11.475-16.437 17.565-16.947 22.065-37.77 33.621-69.28 38.355-7.903 1.184-20.91 4.757-22.413 6.053-.501.4.397 1.401 1.995 2.005 1.599.703 3.596 1.907 4.395 2.609 1.298 1.003 2.698.905 7.4-.285 9.606-2.48 11.004-1.477 3.695 2.808-5.908 3.488-6.408 3.587-8.005 2.083-3.991-4.108-13.38-9.128-19.778-10.641-20.989-5.044-49.385-7.004-64.39-4.435-9.604 1.58-19.91 4.458-24.014 6.55-3.704 1.992-1.305 2.097 3.2.206 9.508-4.08 22.312-6.153 37.512-6.121 8 .017 17.5.437 21.198 1.044 3.7.508 11.297 1.724 16.895 2.536 5.598.811 11.196 1.923 12.495 2.426 2.098.804 1.998 1.004-2.506 2.995-2.603 1.194-4.706 2.49-4.706 2.89-.002.5-2.702.594-6.101.387-9.999-.72-23.505 2.05-33.915 7.03-15.115 7.167-36.06 28.624-43.694 44.808-1.004 2.098-2.108 3.795-2.608 3.794-1.3-.003-.997-1.202 1.21-4.797 2.308-3.695 2.813-6.394.81-4.399-.702.699-1.803 1.197-2.503 1.195-1.1-.002-1.1-.502.006-2.8 3.012-5.794 4.031-15.091 2.957-27.194-1.173-13.102-.265-16.8 4.64-19.39 4.905-2.49 10.707-3.078 13.303-1.172 2.496 1.705 8.695 2.018 20.198.942 6.501-.586 6.701-.686 6.707-3.386.005-2.5-.394-2.8-5.392-3.911-3.598-.708-6.798-.814-9.7-.12-2.4.495-7.103 1.485-10.404 2.078-20.808 3.956-22.112 5.553-20.958 27.756.572 13.401.264 16.9-2.65 23.694-.402 1.1-1.106 2.798-1.408 3.698-.906 3.098-5.61 5.088-14.913 6.268-11.403 1.376-19.001.66-19.496-1.84-.198-1.001.404-2 1.505-2.297 8.005-2.684 9.009-4.182 4.715-7.09-2.497-1.606-2.697-1.606-4 .191-1.204 1.598-1.404 1.597-1.401.197.003-1.7 2.323-10.995 3.53-13.992 1.105-2.598 4.504-2.191 4.498.609-.003 1.3-.606 2.899-1.208 3.597-2.004 1.896 2.49 5.106 7.29 5.116 3.5.007 4.2-.492 9.414-6.88 6.717-8.287 6.522-10.387-1.076-11.603-4.298-.609-4.899-.41-7.505 2.384-2.104 2.296-3.706 3.093-6.306 3.087-3-.006-3.4-.307-2.896-1.806 1.71-4.596 12.735-16.773 18.643-20.66 1.502-.998 2.504-1.996 2.305-2.196-.898-1.002-12.62 8.974-16.63 14.165-4.111 5.292-9.435 16.88-10.648 23.078-.81 4.298-4.314 6.29-9.712 5.58-3.7-.408-4.2.09-3.708 3.692.295 2.4 7.583 8.116 10.283 8.121 1 .002 1.597 1.604 1.99 5.205.393 2.9.886 6.301 1.283 7.602.497 1.701.296 2.1-.803 1.699-.9-.402-3.1.293-4.903 1.29a6051 6051 0 0 0-12.215 7.074c-4.906 2.79-9.21 5.08-9.51 5.08-.4-.001-2.905 1.994-5.71 4.488-4.91 4.39-4.91 4.39-2.514 6.895 1.296 1.502 2.794 2.605 3.294 2.607.5 0 2.603-1.495 4.707-3.39 2.004-1.796 9.414-6.38 16.422-10.166 12.414-6.774 12.614-6.874 12.12-9.875-.494-2.5-.095-2.2 2.196 2.005 1.594 2.703 4.185 7.009 5.88 9.512s4.084 7.909 5.375 12.011c3.773 12.708 5.366 16.412 7.763 17.517 2.898 1.306 2.796 2.306-.406 3.099-3.402.893-7.399-.516-8.794-3.119-5.678-10.412-12.97-14.127-18.78-9.539-3.205 2.493-6.022 10.687-5.231 14.99.594 3 .493 3.1-2.106 2.795-1.8-.204-3.397-1.307-4.394-3.01-.896-1.501-3.489-5.107-5.883-8.112-2.293-3.005-4.187-6.009-4.185-6.809.001-.8 2.605-2.794 5.809-4.487 14.516-7.77 28.233-15.741 28.235-16.441s-2.201.395-24.227 12.749c-10.713 5.977-10.713 5.977-13.407 3.172-3.492-3.707-5.592-3.812-2.3-.205 1.397 1.603 4.09 5.209 5.884 8.112 1.793 3.004 3.787 5.908 4.386 6.51 2.395 2.505 5.784 7.812 5.283 8.31-1.103 1.098-4.697-1.71-4.693-3.61.002-1-1.194-2.702-2.692-3.705-5.692-3.912-8.285-7.417-8.277-11.217.006-2.9-.591-4.001-3.188-5.807-1.797-1.304-3.596-1.907-4.097-1.408-1.703 1.696-1.022 10.497 1.07 14.702 2.788 5.506 9.676 11.42 13.376 11.428 2.4.005 2.799.406 2.794 2.906-.008 3.7-3.714 6.492-11.318 8.476-3.102.794-6.504 1.886-7.605 2.484-2.803 1.494-7.116 7.385-7.12 9.685-.003 1.1-.908 3.698-2.113 5.796-1.707 3.296-1.909 4.296-.814 6.798 1.492 3.803 4.09 5.109 6.393 3.413 1.202-.897 1.604-1.996 1.208-3.697-2.579-10.405-2.873-13.106-1.868-15.404 1.507-3.197 5.011-5.39 11.815-7.075 3.102-.894 6.704-2.186 8.006-3.083 2.303-1.496 2.403-1.395 2.398.905-.002 1.3.693 3.401 1.59 4.703 1.197 1.702 1.295 2.603.493 3.401-2.906 2.894.682 8.701 5.382 8.711 3.2.007 1.191 4.303-2.511 5.495-2.902.894-4.205 2.391-7.618 8.584-8.834 15.982-10.741 19.378-11.443 20.376-.501.5-2.308 3.695-4.115 6.992-1.807 3.296-4.316 7.79-5.62 9.988s-3.614 6.492-5.22 9.489c-9.94 18.48-9.539 18.28-22.025 11.654-7.891-4.117-8.99-4.52-10.693-3.223-1.102.798-2.603 1.495-3.503 1.493-1.8-.004-1.997-1.804-3.933-32.008-1.063-18.103-.96-19.502 3.168-32.494 3.321-10.293 8.155-26.283 10.572-34.778 1.713-5.996 6.326-12.186 18.553-25.06 6.614-6.887 18.027-13.063 18.02-9.663 0 .5-.302 1.1-.702 1.298-.5.1-3.006 2.794-5.813 5.788-2.706 3.095-8.419 9.283-12.529 13.874s-7.818 8.784-8.12 9.483c-1.104 1.898-9.16 28.68-8.76 29.182.199.2 2.513-6.295 5.13-14.39 3.321-10.293 5.532-15.588 7.537-17.684 1.503-1.697 6.515-7.286 11.226-12.476 12.83-14.373 11.728-13.676 15.62-9.468 1.696 1.904 3.492 3.508 3.992 3.509.4 0-.597-1.501-2.393-3.305-2.594-2.706-3.29-4.507-4.078-10.309-1.282-8.802-1.879-10.404-3.979-10.408-2.8-.106-6.89-4.515-6.884-7.515.11-4.5 5.427-12.588 25.28-37.947 15.842-20.267 19.551-24.559 34.081-38.928 17.637-17.564 22.446-21.753 43.28-38.11 12.12-9.475 31.55-23.634 36.656-26.723.902-.598 3.405-2.193 5.508-3.589 16.523-11.165 31.842-19.933 55.065-31.284 11.713-5.776 21.522-10.455 21.822-10.455s4.004-1.591 8.208-3.583c4.304-1.99 10.11-4.478 12.812-5.573 2.802-1.094 6.405-2.486 8.007-3.283 4.103-1.791 17.114-6.664 28.022-10.541 17.813-6.263 20.515-7.357 20.517-8.057 0-.5-.199-.8-.399-.801-2.1-.005-38.527 13.12-48.136 17.4-1.602.696-5.205 2.188-8.007 3.282-2.702 1.095-7.907 3.284-11.51 4.976-3.604 1.593-8.709 3.982-11.511 5.176-22.021 9.754-55.86 27.983-73.584 39.846-.801.598-5.107 3.29-9.413 6.08s-8.411 5.483-9.012 5.982c-.601.498-6.01 4.587-12.12 9.074-6.01 4.588-11.217 8.477-11.518 8.776-.3.3-3.907 3.192-8.013 6.383-25.843 20.346-51.598 46.592-73.156 74.447-1.906 2.496-3.71 4.692-4.01 4.992-.301.3-1.705 2.096-3.01 3.994-1.303 1.897-2.707 3.694-3.108 3.993-.3.3-3.81 5.292-7.823 11.184-5.517 8.188-7.124 11.485-7.13 14.185-.004 2 .393 3.6.793 3.601.5.002 2.197 1.105 3.795 2.508s3.194 2.507 3.594 2.508c.8.002 2.788 5.706 2.784 8.006q-.005 1.8-5.409 3.888c-5.905 2.488-8.91 4.982-18.934 16.16-8.219 9.284-11.729 13.876-11.732 15.576-.002.7-.607 3.2-1.412 5.497-.705 2.399-1.913 6.296-2.618 8.795-2.921 10.194-3.324 11.593-4.128 13.491-.403 1.1-1.812 5.397-2.92 9.494-1.209 4.098-2.82 9.394-3.525 11.593-1.106 3.298-1.214 6.897-.437 17.999.584 7.701 1.26 18.903 1.647 25.103.773 13.202 1.57 14.604 6.675 11.914 2.403-1.294 3.804-1.592 4.702-.89 2.995 2.307 14.883 8.332 16.483 8.335 1 .002 3.001-.594 4.403-1.39 7.007-3.586 32.336-17.533 44.451-24.508 5.507-3.088 12.014-6.775 14.517-8.17s8.51-4.782 13.316-7.672c4.906-2.79 9.011-5.08 9.211-5.08s5.907-3.188 12.715-7.074c6.708-3.886 14.317-8.27 16.82-9.565 2.503-1.394 6.508-3.786 9.01-5.28 2.504-1.495 8.311-4.883 13.017-7.473s11.413-6.477 15.017-8.469c20.525-11.857 31.338-17.934 31.938-17.933.4 0 1.495 2.603 2.488 5.705.993 3.202 2.087 6.404 2.385 7.105.996 2.002 4.792 3.91 32.366 16.568 5.594 2.612 12.887 6.027 29.27 13.761 4.396 2.11 14.986 7.132 23.477 11.35 28.87 13.96 57.742 27.72 76.424 36.26 4.396 2.009 8.792 4.118 9.69 4.62 2.198 1.205 3.798 1.308 3.8.208.001-.5-3.495-2.507-7.69-4.516-17.783-8.238-23.378-10.85-34.667-16.173-6.493-3.113-11.888-5.625-12.088-5.625s-6.394-2.914-13.886-6.53c-7.493-3.615-13.986-6.529-14.586-6.53-1.6-.003-2.191-4.504-1.87-14.104.524-11.899-.378-11 28.455-26.84 2.803-1.494 9.912-5.48 15.919-8.867 6.007-3.287 11.313-6.076 11.813-6.075.4 0 .8-.299.801-.799.001-.4 1.203-1.197 2.604-1.894 2.703-1.294 3.103-1.194 13.393 3.428 2.997 1.406 6.795 2.614 8.495 2.618 2.3.205 3.098.706 3.294 2.607.296 2.1.095 2.3-3.003 1.793-1.8-.303-5.298-1.01-7.697-1.716-5.597-1.411-9.499-.52-11.505 2.476-.903 1.298-2.406 2.595-3.506 2.993-2.902.894-4.412 5.49-3.12 8.993.597 1.602 1.693 3.604 2.292 4.405.698.802 1.195 2.403 1.192 3.503-.007 3.4 10.285 7.421 11.99 4.625.302-.6 2.403-.995 4.603-.99 2.1.004 5.801-.888 8.204-1.883 5.405-2.49 12.91-4.873 18.912-5.96 3.902-.693 5.001-.49 6.298.912 2.195 2.505 1.982 8.705-.42 10-2.804 1.394-3.903 1.291-4.499-.81-.597-1.601-4.791-4.21-6.991-4.215-2.3-.004-6.91 4.686-6.313 6.287.994 2.702 5.49 4.312 7.793 2.917 1.002-.698 3.403-1.193 5.303-1.19 5 .011 6.702-.885 8.109-4.282 1.306-2.998 1.306-2.998 2.501-.595 2.89 5.306-.546 22.299-6.265 30.987-3.21 5.093-11.225 11.876-13.925 11.87-.4 0-7.992-3.516-16.983-7.935-8.991-4.319-17.283-8.136-18.382-8.538-2.498-.806-4.888-5.61-3.485-7.008.5-.499 1.004-2.098 1.007-3.398.003-1.8-.994-2.802-4.69-4.51-3.198-1.406-4.196-2.208-3.096-2.506 2.601-.495 12.791 4.427 16.583 8.135 1.897 1.804 4.69 5.11 6.285 7.413 3.49 5.107 6.287 6.213 9.092 3.719 1.603-1.497 1.906-2.896 1.615-6.997-.192-4 .01-5 1.11-4.597 2.297.904.805-2.899-2.09-5.105-2.596-2.005-2.596-2.005-6.2.187-4.506 2.79-4.813 6.09-.717 7.899 1.499.703 3.598 1.007 4.499.61 1.3-.498 1.6.103 1.594 2.903-.013 6-4.113 6.191-7.501.484-4.285-7.31-17.365-16.837-23.065-16.848-2.6-.006-10.195-2.622-11.991-4.126-1.099-.902-.897-1.501.606-3.198 2.506-2.595 1.708-3.597-.997-1.202-1.102.997-3.005 2.293-4.206 2.89-1.202.598-2.404 1.796-2.606 2.595-.402 1.2-.302 1.3 1 .202 1.302-.997 2.001-.595 4.395 2.51 1.495 2.103 3.191 3.906 3.591 4.107.7.302 1.187 6.203.487 6.201-.2 0-2.298-.905-4.796-2.11-5.394-2.611-25.074-12.152-26.073-12.654-.5-.202-.8.098-.802.698 0 .6.997 1.402 2.296 1.905 1.899.804 30.37 14.363 36.364 17.376 1.698.803 2.598.805 3.6.007 1.403-1.197 2.702-.694 2.698.906 0 .5-.7.499-1.7.196-1.1-.402-1.4-.302-.901.499.398.7 1.197 1.202 1.697 1.203s3.694 2.908 7.187 6.415c8.581 8.818 18.97 13.84 27.871 13.559 4.3-.091 7.4.315 9.597 1.52 1.798 1.003 3.897 1.508 4.498 1.31.6-.2-.298-1.001-2.097-1.805-3.297-1.407-4.194-2.909-1.894-2.904 2 .004 8.413-5.783 11.622-10.276 3.31-4.893 6.73-14.086 7.644-20.884.405-2.6 1.11-4.598 1.509-4.297.4.301 1.592 3.704 2.484 7.505 1.388 5.803 1.483 8.104.673 12.802-2.023 10.896-2.233 15.695-.946 21.998 1.585 7.103 1.785 7.004-5.608 3.788-5.695-2.512-3.699-.408 2.195 2.405 2.797 1.306 5.094 2.71 5.094 3.11-.001.5-.602.6-1.401.298-.8-.302-2.4-.105-3.501.592-3.204 1.694-2.823 10.994.577 11.001.8.002 2.698.706 4.396 1.61 4.895 2.51 6.898 1.114 6.91-4.586.01-4.4-.29-5.1-2.687-6.406-3.595-2.007-2.195-2.004 2.4-.095 1.999.805 3.798 1.308 4.099 1.01.3-.2-1.598-1.304-4.095-2.41-3.997-1.708-4.695-2.51-5.787-6.312-1.49-5.303-1.46-19.603.055-26.2 1.917-8.196-1.16-19.102-8.437-30.217-1.994-3.004-3.388-5.707-3.088-6.007.903-.998 11.096 2.223 22.686 7.148 15.486 6.532 17.383 7.736 17.777 10.637.196 2-.606 2.899-5.01 5.19-6.508 3.386-12.018 8.174-14.227 12.37-2.108 4.095-2.12 10.195.073 13.3 1.196 1.702 1.294 2.503.494 2.801-.7.198-1.204 1.597-1.207 3.197-.01 5.1 6.691 4.214 12.504-1.673 3.407-3.293-2.584-7.606-6.79-4.815-2.203 1.396-2.403 1.395-3.399-.707-2.19-4.604-2.287-6.105-.479-10.1 2.311-5.096 7.621-9.885 14.829-13.47 5.605-2.688 6.609-4.286 5.116-7.889-1.791-4.204-34.562-18.372-42.562-18.39-1.6-.003-5.294-2.81-11.381-8.623-4.89-4.71-10.481-9.322-12.28-10.226-1.997-.904-3.394-2.307-3.392-3.307.004-1.9-3.59-4.807-8.785-7.018-4.097-1.809-3.694-2.908 1.91-5.196 4.404-1.891 4.404-1.891 15.893 3.633 23.477 11.15 26.973 12.756 27.373 12.757.2 0 6.195 2.713 13.287 6.128 18.382 8.739 23.976 11.45 30.77 14.465 3.297 1.507 11.889 5.525 18.981 8.94 7.193 3.414 15.785 7.632 19.281 9.24 6.494 3.013 7.392 4.015 4.49 5.11-1.702.596-9.612 5.68-11.816 7.574-.501.4-4.107 3.092-8.013 5.784a5733 5733 0 0 1-15.022 10.568c-4.406 3.091-12.017 8.375-16.924 11.665-4.907 3.39-10.716 7.677-13.02 9.673-4.108 3.691-4.108 3.691-4.632 15.19l-.524 11.499-4.496-2.11c-2.498-1.105-11.788-5.624-20.78-9.943-8.99-4.319-16.483-7.835-16.783-7.835-.2 0-.4.499-.402.999-.001.6 1.896 1.904 4.294 2.909 7.093 3.115 16.584 7.635 29.57 13.962 12.088 5.925 14.587 6.73 12.293 3.926-.699-.802-1.288-6.103-1.374-12.403-.28-9.8-.077-11.3 1.727-13.197 2.105-2.395 42.767-31.61 63.496-45.667 2.604-1.694 4.805-2.29 9.105-2.28 3.1.006 7-.386 8.602-.883 1.6-.496 7.404-1.884 12.906-2.973 5.502-1.188 12.306-2.774 15.007-3.568 12.408-3.374 13.106-2.873 4.794 3.01-3.104 2.193-6.11 4.487-6.71 5.086-3.006 2.793-14.724 11.369-15.624 11.367-.5-.001-.998-1.102-.995-2.502s-.694-2.802-1.493-3.203c-1.6-.504-27.511 5.142-30.715 6.735-1 .498-2.301.896-2.901.894-.6 0-6.708 3.686-13.518 8.172-12.217 8.075-12.517 8.374-12.024 11.575.296 1.8 1.39 4.503 2.587 6.105 1.795 2.604 2.494 2.906 5.795 2.513 2.8-.395 3.3-.294 2.199.504-1.302.997-1.302 1.097-.002 1.1 2.8.006 18.907-3.56 19.709-4.359.4-.399-.3-.5-1.7-.303-10.704 2.177-15.106 2.868-15.605 2.467-.598-.701 12.908-3.773 16.208-3.766 1.2.003 2.601-.494 3.003-1.094.802-1.298.202-1.2-15.405 1.968-12.305 2.474-12.205 2.475-12.2.575 0-.8 1.603-1.797 3.804-2.392 11.807-3.176 16.009-4.067 20.61-4.657 2.8-.394 5.703-1.288 6.404-2.087.702-.698 4.407-3.39 8.013-5.983 3.705-2.592 8.713-6.282 11.117-8.077s4.606-2.99 5.005-2.59c.3.301-.503 1.4-1.905 2.297-3.805 2.492-20.333 16.057-22.338 18.353-1.002 1.098-1.506 2.797-1.208 3.797.398 1.201.096 1.9-.704 1.899-1.4.097 3.394 2.707 9.19 5.02 1.898.703 6.294 2.612 9.79 4.22 3.398 1.507 6.495 2.813 6.695 2.814s2.898 1.106 5.895 2.512 6.494 2.914 7.792 3.416c1.3.503 4.896 2.11 8.093 3.517 3.097 1.407 5.696 2.112 5.697 1.612.001-.6-.398-1-.998-1.002-.5 0-3.298-1.107-6.195-2.413-10.59-4.822-14.486-6.53-25.077-11.052-16.585-7.135-18.683-8.34-18.677-11.04.005-2.4 2.812-5.594 4.912-5.59.7.002 2.702-.994 4.304-2.19 2.504-1.695 3.404-1.893 4.902-.99 1.099.702 2.697 1.706 3.696 2.308 6.391 4.013 19.121-10.36 19.245-21.56.008-3.7.51-4.399 5.818-8.588 3.105-2.493 7.612-5.784 9.915-7.379 5.007-3.19 7.807-3.084 16.299.834 2.997 1.406 9.091 4.02 13.488 5.728 8.593 3.418 12.489 5.127 19.283 8.14 2.298 1.006 4.196 1.51 4.198 1.01 0-.5-2.596-1.906-5.694-3.212-3.197-1.207-7.993-3.217-10.79-4.523-18.983-8.44-30.374-12.764-33.474-12.67-1.9-.004-11.404 1.876-21.009 4.156-25.412 6.047-25.912 6.046-36.602.923-4.895-2.31-10.69-5.022-12.887-6.027-10.09-4.72-27.972-13.258-38.462-18.38-28.47-13.76-41.258-19.787-41.658-19.788-.2 0-7.793-3.616-16.883-8.135-16.683-8.235-20.177-10.942-21.765-16.946-.397-1.4-1.984-7.504-3.572-13.507-1.587-6.103-3.77-14.208-4.762-18.01-7.939-29.117-7.642-27.616-5.338-29.411 1.202-.898 4.305-2.691 6.908-3.986 2.703-1.394 5.907-3.188 7.309-4.085 1.402-.997 5.006-3.09 8.01-4.683 3.003-1.694 11.112-6.177 17.82-10.163 6.809-3.885 12.516-7.073 12.716-7.073s3.303-1.793 6.908-3.986c3.605-2.192 6.808-3.985 7.108-3.985.3.001 2.203-1.095 4.305-2.29 3.605-2.293 7.31-4.485 20.225-11.658 12.514-6.974 14.718-8.67 17.73-14.163a856 856 0 0 1 5.118-9.09c1.205-1.997 3.112-5.293 4.216-7.19 4.616-8.091 6.122-10.588 13.748-22.972 4.315-7.19 8.429-13.882 9.131-14.98.702-1.1 1.607-3.197 2.21-4.796.704-2.099 1.606-2.697 4.006-2.692 1.6.004 3.902-.892 4.904-1.89 1.703-1.696 1.907-3.696 2.049-23.395.129-13.8-.155-21.8-.754-22.202-1.598-.903-10.993-3.223-16.591-4.035-3.3-.507-5.997-1.612-7.993-3.416-3.993-3.609-15.278-10.732-23.669-14.95-1.398-.803-2.895-2.406-3.192-3.707-.595-2.301-2.292-3.705-9.084-7.519-2.897-1.606-5.396-2.011-12.796-2.027-9.2-.019-34.105 2.029-47.208 3.802-13.604 1.871-52.623 10.79-54.226 12.286-1.403 1.497.497 1.501 6.2.013 24.313-6.05 42.92-9.71 57.023-11.08 6.102-.688 14.303-1.57 18.304-2.062 4.002-.592 12.203-.975 18.203-.962 10.8.022 11.1.123 16.292 3.434 2.896 1.906 5.791 4.512 6.388 5.713.598 1.302 2.794 3.306 4.891 4.51 2.198 1.105 5.593 3.112 7.691 4.217 1.998 1.204 5.394 3.111 7.491 4.315 1.998 1.105 4.793 3.31 6.19 4.813 2.095 2.505 4.093 3.209 13.09 5.028 5.897 1.212 10.995 2.123 11.295 2.123 1 .003.695 2.602-.812 5.599-.803 1.598-1.71 4.696-2.014 6.896-.508 3.799-.508 3.799.802-.799.805-2.698 1.71-5.096 2.011-5.496.3-.299.583 8.102.561 18.602-.046 21.9 1.16 19.502-10.243 20.678-3.9.392-8.504 2.082-15.011 5.369-9.71 4.98-16.619 8.765-18.321 10.062-.501.398-3.605 2.092-6.709 3.885-3.203 1.694-8.409 4.483-11.513 6.176-3.203 1.794-6.207 3.487-6.808 3.886-2.103 1.596-8.81 5.082-9.11 4.781-.2-.2.305-2.2 1.11-4.398.804-2.298 1.713-6.496 2.02-9.495 1.222-10.798 1.021-10.498 5.214-6.89 3.094 2.807 4.093 3.11 7.195 2.516 2-.396 6.301-.787 9.601-.88 5.8-.088 6-.188 6.307-2.987.204-1.9-.393-3.601-1.89-5.204-3.292-3.507-5.593-3.112-6.802 1.186-1.21 4.497-3.613 6.292-8.213 6.382-2.6-.005-4.399-.709-6.295-2.613-3.093-3.206-3.29-4.507-.587-6.201 1.302-.797 2.005-2.296 2.009-4.096.003-1.7.508-4.199 1.112-5.797.503-1.5 1.11-4.698 1.315-7.098.31-4.9-1.993-3.304 22.335-16.653 4.004-2.192 7.309-4.285 7.31-4.685 0-.6-6.206 2.687-21.825 11.555-3.504 1.992-6.707 3.586-7.107 3.585-.3 0-1.097-1.603-1.693-3.504-1.192-3.902-3.996-2.008 34.15-23.528 2.803-1.594 4.405-2.891 3.705-2.893s-4.504 1.891-8.509 4.283c-3.905 2.391-11.914 6.975-17.72 10.163-5.808 3.187-11.715 6.575-13.217 7.672-3.205 2.193-6.305 2.487-3.4.293 2.003-1.496 2.003-1.496.005-2.9-.998-.802-3.995-2.009-6.594-2.614-6.197-1.513-13-.027-21.81 4.754-8.11 4.383-25.229 13.647-34.54 18.628-3.803 1.992-8.81 4.782-11.012 5.977-4.505 2.49-16.719 9.165-19.922 10.858-1.202.598-3.605 2.193-5.408 3.489s-3.504 2.093-3.804 1.892c-.2-.3-.632-32.401-.85-71.402-.319-39-.85-71.302-1.35-71.903-.499-.501-.832 15.498-.878 37.498m104.152 70.719c-.801.598-1.104 2.097-.708 3.698.494 2.901 1.693 3.604 2.796 1.806.302-.6 1.202-.998 1.802-.996.7.001.4.5-.702 1.098-1.502.897-1.603 1.297-.504 2.1 1.098.701.898.801-.501.398-1.1-.402-5.002 1.09-10.508 3.978-4.706 2.59-9.911 5.28-11.413 6.076-1.602.797-2.604 1.695-2.304 1.995.199.3 5.304-2.088 11.21-5.276 10.713-5.678 10.713-5.678 10.006-2.28-1.718 8.197-1.822 10.097-.527 12.6 1.196 2.202 1.094 2.902-.813 6.098-1.606 2.897-4.61 5.09-13.42 9.872-6.207 3.387-12.115 6.975-13.117 8.073-1.103 1.097-2.31 4.495-3.018 8.493-.81 5.199-1.615 6.997-3.417 8.193q-2.403 1.495-2.41 4.495c-.004 1.9-.707 3.299-2.008 3.996-1.902.996-2.102.795-1.895-2.204.103-1.8-.387-6.5-.978-10.502-.79-5.202-.779-10.202.036-17.5 1.02-9.698.542-19.8-.958-19.802-.3 0-.625 11.799-.655 26.198l-.055 26.2-7.209 4.285c-4.005 2.292-7.508 3.785-7.807 3.284-.598-1.001 2.315-6.995 3.917-8.192.5-.299 1.006-2.798 1.012-5.498.11-4.7.01-4.8-3.19-5.106-2.699-.306-3.5.092-3.903 1.791-.403 1.5-1.104 1.998-2.404 1.695-2.998-.806-5.805 2.288-6.114 6.688-.308 4.099-.308 4.099 7.184 7.615 3.697 1.707 1.592 3.803-12.324 11.674-7.91 4.583-14.718 8.27-15.118 8.268-.4 0-.198-.8.304-1.9.602-.998.911-5.197.82-9.197-.288-6.001-.783-8.102-2.678-10.606-1.895-2.604-2.794-3.106-4.995-2.71-2.4.494-2.9.093-4.79-4.41-1.194-2.803-2.69-5.206-3.389-5.408-.7-.301 1.304-1.797 4.307-3.49 15.318-8.469 22.026-12.455 21.528-12.956-.3-.4-3.203.994-6.307 2.887-3.204 1.893-8.81 5.082-12.615 7.174-6.707 3.686-6.707 3.686-7.702 1.084-1.89-4.904-1.79-4.904 14.13-13.97 6.607-3.687 25.93-14.747 28.433-16.141 1.602-.997 5.808-3.488 9.312-5.58 3.504-1.993 6.508-3.687 6.708-3.687s4.505-2.39 9.71-5.28c5.107-2.989 13.116-7.372 17.821-9.862 15.918-8.367 19.022-10.26 18.023-10.562-.6-.202-.799-.802-.498-1.301.401-.5 1.201-.298 1.9.304 1.097 1.102 1.097 1.502-.005 2.3m-5.897-1.613c2.699.606 1.397 1.403-15.021 10.269-9.911 5.279-25.23 13.747-34.04 18.729a2759 2759 0 0 1-21.525 12.254c-3.004 1.594-5.907 3.288-6.508 3.787-1.803 1.396-22.827 12.852-23.627 12.85-.4 0-.998-.802-1.297-1.702-.497-1.201.306-2.6 2.61-4.595 5.01-4.49 16.827-12.865 21.332-15.355 5.506-2.889 9.511-5.18 20.024-11.258 15.218-8.768 14.218-8.47 17.011-5.365 1.696 1.904 2.496 2.206 2.498 1.206.001-.9-.696-2.102-1.495-2.804-.798-.701-1.296-1.602-.995-2.002 1.003-1.698 25.53-14.446 30.433-16.036 3.102-.894 6.502-.886 10.6.022m12.489 5.626c-.001.3-.202.5-.502.5-.3-.001-.5-.202-.498-.502 0-.3.2-.5.5-.499.3 0 .5.201.5.501m56.96 18.92c-.001.7-2.813 5.994-6.324 11.686-5.72 9.289-24.787 41.249-28.801 48.04-.803 1.399-1.907 3.196-2.509 3.995-1.003 1.498-7.311 5.585-15.52 10.168-2.504 1.294-6.609 3.686-9.312 5.18-3.504 1.993-4.505 2.29-4.102 1.091.302-.899.103-1.6-.497-1.6-.6-.002-1.101.697-1.103 1.397-.002 1.3-5.813 6.588-7.313 6.585-.3 0-6.107 3.187-12.915 7.073-6.708 3.886-14.318 8.27-16.82 9.665s-8.811 4.981-14.017 7.97c-17.321 9.964-25.13 14.148-26.13 14.146-.7-.002-.998-.903-3.48-9.808-1.388-5.303-1.388-5.303 2.527-12.495 2.108-3.995 6.425-12.186 9.638-18.18 6.727-12.985 6.827-13.085 11.432-15.475 3.203-1.494 3.904-1.592 5.7-.289 3.097 2.007 6.7.015 9.713-5.58 2.81-4.993 7.417-8.384 11.016-7.876 3.6.407 8.505-2.082 9.51-4.98.604-1.699 2.808-3.694 5.812-5.288 6.307-3.287 29.434-16.138 40.747-22.715 11.614-6.675 12.414-6.674 8.301-.282-2.709 4.294-11.24 18.676-14.853 25.169-1.405 2.497-4.918 8.49-7.828 13.483-6.122 10.487-9.235 16.48-8.635 16.482.2 0 1.504-1.897 2.91-4.294 2.609-4.494 23.886-41.15 26.796-46.144.904-1.698 2.71-4.694 4.014-6.791 3.914-6.592 2.213-6.096-16.008 3.866-3.604 1.993-6.908 3.886-7.509 4.284-1.502 1.197-14.317 8.07-15.017 8.069-1.9-.004.205-2.2 4.31-4.291 2.702-1.394 6.607-3.486 8.81-4.782 2.102-1.195 6.407-3.486 9.41-5.18 3.004-1.594 6.007-3.387 6.608-3.786.601-.499 4.206-2.591 8.01-4.683 3.805-2.192 10.212-5.779 14.317-8.07 11.213-6.277 19.118-8.66 19.112-5.76m-38.615 6.919c1.196 1.902.294 3.2-1.905 2.396-1.698-.704-2.089-5.105-.29-4.5.6.2 1.597 1.203 2.195 2.104m-5.406 3.189c0 .3-.201.5-.501.498-.3 0-.5-.2-.5-.5.001-.3.202-.5.502-.5.3.001.5.202.499.502m-21.511 5.154c-2.33 14.196-4.638 18.09-14.25 23.37-6.507 3.587-7.907 3.984-10.606 3.178-2.998-.906-3.197-1.106-3.187-5.906.116-7.7 1.92-9.496 18.738-18.061 3.703-1.892 7.208-4.085 7.91-4.883 1.804-2.197 2.003-1.696 1.395 2.302m-107.239 18.476c.398.9-.705 2.198-2.907 3.494-3.905 2.292-4.304 1.69-1.196-2.203 2.507-3.094 3.307-3.293 4.103-1.291m99.692 3.809c0 .5-2.805 2.394-6.208 4.087-3.504 1.692-7.408 3.884-8.81 4.881-2.705 1.895-7.31 4.585-16.02 9.167-3.003 1.693-6.407 3.486-7.509 4.184-1.1.598-5.706 3.288-10.212 5.879-4.405 2.59-8.511 5.282-9.112 5.98-.502.7-4.116 7.292-8.031 14.684-11.647 22.175-11.747 22.275-12.836 17.173-.297-1.5-.992-3.802-1.39-5.203-3.677-10.508-3.866-16.008-.666-16.001.5 0 2.102-.796 3.504-1.893 1.502-.997 4.706-2.89 7.209-4.185 4.405-2.39 9.811-5.48 38.847-22.619 11.515-6.776 29.735-16.737 31.036-17.035.1-.1.2.3.198.9m-98.006 2.894c1.592 3.804 1.892 3.604-13.526 12.572-17.622 10.263-17.822 10.263-8.303 1.383 4.81-4.49 8.919-8.982 9.22-9.88.503-1.4 8.615-6.783 10.715-7.079.4-.099 1.198 1.303 1.894 3.004m-13.003 1.373c0 .3-.201.5-.501.5-.3-.001-.5-.202-.499-.502 0-.3.201-.5.501-.499.3 0 .5.201.5.501m-2.002.996c0 .3-.201.5-.501.499-.3 0-.5-.201-.499-.501 0-.3.201-.5.501-.499.3 0 .5.201.499.501m-4.004 1.892c0 .3-.502.799-1.203 1.197-.7.399-.8.298-.399-.4.703-1.2 1.604-1.597 1.602-.797m23.385 7.149c1.294 3.002 2.386 6.905 2.382 8.705-.104 1.7.393 3.4.992 3.602.7.201 1.198.902 1.197 1.602-.005 2.2 3.39 4.607 5.792 3.912 2-.495 2.2-.195 2.193 3.005-.008 3.9-1.518 8.697-2.718 8.694-.5 0-2.095-2.404-3.589-5.307-5.577-10.812-12.666-16.027-21.666-16.146-6.3-.113-6.3-.113-30.228 13.637-9.212 5.28-17.02 9.664-17.32 9.664-1.9-.004.204-2.3 4.31-4.691 2.602-1.495 5.306-3.289 6.007-3.988.702-.698 1.803-1.296 2.403-1.295s.9-.298.501-.598c-.299-.301-3.502.992-7.006 2.985-4.806 2.69-6.607 3.286-7.005 2.285-.597-1.501 12.715-7.173 14.413-6.07.5.301 2.6-.394 4.704-1.69a344 344 0 0 1 6.708-3.886c1.702-.996 8.61-4.982 15.519-8.967 6.908-3.986 13.917-8.071 15.519-9.068 1.702-.896 3.303-1.793 3.703-1.792.3-.1 1.795 2.404 3.19 5.407m-23.391-4.05c-.001.3-.202.5-.502.5-.3-.001-.5-.201-.498-.501 0-.3.2-.5.5-.5.3.001.5.202.5.502m-7.009 3.986c0 .2-1.803 1.396-4.005 2.492-4.805 2.49-5.204 1.989-.698-.902 3.104-1.993 4.705-2.59 4.703-1.59m74.395 2.556c.897 1.402-.509 4.099-2.109 4.095-1-.002-1.298-.602-.896-1.601.302-.9.604-2 .605-2.5.002-1.2 1.702-1.196 2.4.006m-52.118 8.29c1.799.804 4.894 3.11 6.89 5.115 3.692 3.708 9.769 14.92 9.762 17.92-.002.9.395 2.601.892 3.902s1.887 6.104 3.077 10.807c1.19 4.702 2.58 9.805 3.076 11.506 1.887 6.204 6.85 24.415 9.23 33.52 12.897 49.427 12.5 47.926 16.493 51.334 1.996 1.705 1.992 3.705-.208 3.7-.5-.001-2.302.895-3.804 1.992-2.604 1.795-3.304 1.893-6.902.786-2.298-.705-4.097-1.609-4.096-1.909 0-.3 1.803-1.396 4.005-2.392 2.202-.995 4.005-2.191 4.006-2.691.003-1.4-1.098-1.002-6.205 2.287-2.904 1.894-5.606 2.888-6.805 2.586-1.1-.303-3.8-.108-6.101.387s-4.402.79-4.601.49c-.4-.3 13.017-8.173 16.22-9.466.5-.199 1.602-1.097 2.404-1.895 1.302-1.197 1.205-2.497-.68-10.101-6.05-23.913-8.532-32.118-9.532-32.12-.5-.001-23.727 12.85-25.13 13.947-.9.598-5.406 3.089-16.018 8.867-1.602.896-3.204 1.793-3.504 2.092-.301.3-2.504 1.595-5.006 2.89-2.503 1.394-7.71 4.284-11.514 6.676-3.905 2.291-8.91 4.681-11.311 5.276-4.803 1.29-5.808 3.388-1.206 2.397 2.201-.395 3-.193 2.999.907-.002 1-1.103 1.297-4.002.991-3.3-.307-3.999-.808-3.995-2.608.002-1.1-1.188-5.903-2.578-10.605s-3.177-11.007-3.97-14.009c-.794-3.001-3.178-10.707-5.265-17.01-5.863-17.713-6.456-21.114-5.14-28.312 1.112-5.997 3.725-12.092 6.633-16.086 1.605-2.196 4.503-1.49 4.498 1.11-.002 1 .694 2.601 1.392 3.602 1.097 1.403.995 2.403-1.013 6.398-3.515 6.893-2.937 17.494 1.153 22.403 2.195 2.504 1.694 2.803-2.803 1.194-4.197-1.409-7.397-1.116-6.301.687.299.5 2.298 1.005 4.498 1.01 4.2.008 5.696 1.911 3.889 5.207-.603 1.2-.809 4.099-.415 7.1.885 7.301 1.283 8.402 3.281 8.906 1.2.303 2.196 2.305 2.988 5.907 1.784 7.503 4.273 12.909 5.773 12.912.7.001 3.002-.894 5.104-2.09 11.814-6.575 36.944-20.722 43.852-24.708 4.406-2.59 10.212-5.778 12.815-7.073 7.508-3.884 9.012-5.681 8.42-9.882-.688-5.402-5.754-21.512-7.052-22.315-.999-.702-10.508 3.778-11.812 5.675-.401.5-1.002.598-1.4.197-.4-.4-.499-.9-.299-1 1.603-1.397 12.514-6.674 13.614-6.672 3.4.007 1.712-5.496-3.277-10.707-.699-.701-.996-2.102-.694-3.201.203-1 .008-3.6-.588-5.701-.893-3.102-.791-4.102.612-5.6.902-.997 1.104-1.797.504-1.798s-1.401.497-1.802 1.096c-.402.7-1.4.197-2.798-1.306-7.581-8.816-19.09-5.04-23.016 7.652-2.114 6.596-1.525 12.097 1.962 18.104 1.993 3.504 2.091 4.405.988 5.902-1.805 2.496-1.109 4.098-9.151-23.319-1.59-5.303-3.485-7.207-7.285-7.215-1.1-.003-2.2-.405-2.598-.906-.498-.9 1.604-2.196 13.819-8.97a181 181 0 0 1 7.508-4.185c2.003-1.196 5.605-2.188 7.905-2.284 5.4-.088 5.704-1.588.404-1.599-3.8-.008-15.412 5.268-22.322 10.054-1.402 1.097-2.904 1.894-3.304 1.893s-1.901.796-3.304 1.893c-2.904 1.994-7.109 4.385-17.22 9.864-3.604 1.892-7.409 4.084-8.51 4.782-3.205 2.293-3.604 1.692-3.39-4.707.211-5.5.513-6.2 2.815-7.194 1.401-.697 6.107-3.288 10.412-5.879 4.306-2.69 8.01-4.783 8.21-4.782.2 0 4.305-2.291 9.21-5.081 4.807-2.79 10.213-5.779 11.814-6.475 3.904-1.692 10.704-1.778 14.8-.07m20.199.743c-.005 2.2-2.904 1.794-3.3-.307-.296-1.4.104-1.8 1.504-1.497 1 .202 1.798 1.004 1.796 1.804m42.598.99c-1.606 2.796-4.71 4.39-6.707 3.285-1.298-.703-.797-1.402 2.807-3.494 4.806-2.79 5.506-2.788 3.9.208m-90.097-1.59c0 .3-.2.5-.5.5-.3-.001-.5-.202-.5-.502s.201-.5.501-.499.5.201.5.501m43.992 3.693c-.002 1.1-.403 1.699-1.002 1.398-.5-.302-.998-1.303-.996-2.103s.503-1.399 1.003-1.397c.6 0 .998.902.995 2.102m-65 .263c0 .2-1.303 1.098-3.004 1.994-3.804 1.892-4.003 1.092-.199-.9 3.104-1.694 3.204-1.793 3.203-1.094m-8.725 11.882c.497 1.401-3.308 3.993-16.824 11.565-14.317 8.07-12.616 7.574-15.21 4.368-1.296-1.603-2.293-3.105-2.292-3.405 0-.3 3.004-2.193 6.809-4.285 3.704-1.993 8.51-4.783 10.712-6.078 2.203-1.195 4.705-2.09 5.504-1.888.8.201 2.9-.094 4.502-.591 4.402-1.39 6.202-1.287 6.799.314m-48.81 4.298c-.3.3-1.1-.002-1.798-.704-.898-1.002-.797-1.101.601-.498 1 .302 1.498.903 1.198 1.202m113.298 1.437c2.495 2.406 2.792 4.006.692 4.002-2.3-.005-6.415 6.986-7.126 12.185-.508 3.899-1.21 5.197-3.514 6.493-1.602.996-3.205 2.493-3.507 3.492-1.41 4.597-5.298-.71-6.082-8.413-.686-7.001 1.127-13.197 4.935-16.79 2.505-2.494 4.006-2.99 7.806-2.983 3.3.007 5.299.611 6.796 2.014m-65-.036c-.202.7-3.105 2.594-6.31 4.487-7.708 4.184-13.62 9.971-16.634 16.365l-2.41 4.995-1.19-4.702c-.695-2.702-1.29-5.303-1.288-6.003.002-.9 13.12-9.273 14.52-9.27.1 0 2.903-1.594 6.107-3.487 6.108-3.687 7.809-4.184 7.205-2.385m-44.101.508c-.4.299-1 .298-1.4-.003-.3-.4.001-.7.701-.699s1 .302.699.702m-12.404 1.974c-.7.198-1.9.196-2.5-.005-.7-.302-.2-.5 1.2-.498s1.9.204 1.3.503m19.99 4.342c5.488 6.111 7.878 11.016 8.464 17.317.39 4.601.39 4.801-1.507 3.697-1.099-.702-2.494-3.205-3.189-5.606-.695-2.402-1.79-4.404-2.29-4.405-.6-.001-.702.798-.304 1.7.398 1 .994 2.801 1.192 3.902.495 2.2.495 2.2-5.9.187-11.093-3.523-21.78-9.445-21.775-12.145.001-.7 1.704-1.897 3.805-2.592 2.002-.796 4.004-1.892 4.405-2.491.502-.799 2.001-.396 4.798 1.11 2.198 1.205 4.196 1.809 4.497 1.41.201-.5-.697-1.302-2.096-2.005-2.697-1.206-2.393-3.105.607-3.099 1 .002 2.2-.495 2.502-.995 1.104-1.797 2.202-1.095 6.792 4.015m68.106-2.358c.798.902 1.997 1.405 2.597 1.306.7-.199 2.095 2.404 3.188 5.706 3.875 11.909 6.852 22.715 6.351 23.314-.3.2-.8-.102-.998-.902s-1.887-6.204-3.774-12.208c-1.788-5.904-4.175-11.909-5.373-13.211-2.094-2.505-2.094-2.505-6.6-.014-3.404 1.893-5.205 2.289-8.103 1.783-3.3-.507-5.296-2.311-2.596-2.306.5.001 2.703-1.094 4.706-2.49 4.205-2.791 8.306-3.182 10.602-.978m-100.701.39c-1.002.597-2.502.794-3.201.493-.8-.302-1.4-.003-1.201.497.197 1.1-59.878 36.775-61.978 36.77-.6 0 2.911-5.093 6.62-9.486 9.023-10.68 25.147-22.347 35.454-25.625 9.806-3.08 28.81-5.14 24.306-2.65m67.59 4.641c-.11 4.5-.613 6.099-2.617 8.195-4.71 4.89-7.827 12.683-8.444 20.882-.616 7.499-.616 7.499-2.11 4.696-.796-1.602-3.49-4.908-5.884-7.413-3.892-4.008-4.29-4.909-3.784-7.808.709-3.998 3.92-9.792 8.03-14.383 2.907-3.294 12.02-9.575 14.02-9.67.6-.1.896 2.301.789 5.501m71.106-2.851c1.591 4.303.586 6.901-3.82 9.592-2.403 1.595-4.606 2.79-5.006 2.79-1-.003-.688-5.702.518-8.3.904-2.098 5.311-5.588 7.012-5.685.4.001.998.702 1.296 1.603m-35.41 4.426c2.192 4.004-1.52 9.497-5.015 7.39-1.398-.904-1.182-8.203.319-8.8 2.402-.995 3.601-.693 4.697 1.41m-21.01 5.056c.695 2.701 1.69 4.803 2.19 4.804.6.002.702-.998.305-2.299-.398-1.2-.893-3.502-1.19-5.102-.494-2.602-.394-2.801 1.805-2.097 1.3.303 3.198.907 4.098 1.109 1.199.402 2.294 2.605 3.387 6.207 2.084 7.704 2.581 8.905 2.984 7.606.3-.5-.492-3.9-1.585-7.303-1.093-3.502-1.686-6.704-1.385-7.203 1.104-1.898 2.202-.795 2.694 2.806.688 6.101 4.56 19.41 7.049 24.514 1.294 2.703 2.19 4.805 1.99 4.805-.1 0-.9.298-1.801.596-1.101.398-1.6-.003-1.598-1.203.005-2.4-2.182-8.405-3.182-8.407-.4-.001-.105 2.1.69 4.701.794 2.602 1.19 4.903.99 5.102-.201.2-2.1-.004-4.1-.508-3.398-.807-3.997-1.409-5.686-6.312-2.585-7.306-3.675-12.008-2.675-12.006 1.4.003 3.792 3.508 4.984 7.51 2.185 7.005 2.285 7.206 2.79 4.607.709-3.999-3.475-11.608-7.77-14.017-4.395-2.509-7.095-2.615-10.9-.623-3.303 1.694-4.101 1.092-5.89-4.212-1.094-3.202-.993-3.302 4.113-6.191 2.903-1.694 5.505-2.689 5.805-2.288.299.4 1.194 2.802 1.888 5.404m25.085 7.252c.396 1.701 1.091 4.103 1.389 5.303.596 1.902.295 2.3-1.305 2.298-1.2-.003-2.702.894-3.504 2.092-1.404 1.897-1.604 1.597-3.59-4.707-2.583-8.406-2.583-8.406.317-8.4 1.3.003 2.702-.794 3.104-1.793.603-1.599.703-1.599 1.7.203.597 1.102 1.393 3.303 1.89 5.004m34.806-2.627c1.695 2.104 3.091 4.007 3.09 4.307 0 .3-2.804 1.994-6.207 3.787-4.706 2.49-5.706 2.788-4.303 1.19 2.105-2.295 1.508-3.896-.696-1.7-3.508 3.492-6.91 4.385-11.306 2.676-2.298-.905-2.397-1.205-1.393-3.203 1.204-2.198 1.204-2.198 3.1.206.997 1.202 2.095 2.005 2.396 1.705.4-.299-.097-1.3-.996-2.202-.898-.902-1.595-2.003-1.595-2.403.002-.9 12.117-8.075 13.717-8.072.6.002 2.497 1.706 4.193 3.71m-144.503 1.298c.696 1.801.59 4.5-.117 8-.606 2.798-.911 5.397-.812 5.598.2.1 1.401-.397 2.703-1.295 1.202-.897 2.703-1.594 3.303-1.593 1.4.003-4.908 4.09-13.518 8.672-9.51 5.08-16.018 8.666-23.327 12.851-3.204 1.893-6.007 3.388-6.207 3.387s-2.803 1.394-5.707 3.188c-9.311 5.48-35.341 19.726-36.141 19.725-1.6-.004 1.323-11.098 5.343-20.49 1.306-3.097 2.51-4.494 3.81-4.491 1.1.002 3.601-1.093 5.604-2.489s4.006-2.491 4.406-2.49 1.994 2.904 3.586 6.407c1.493 3.603 3.386 6.707 4.186 7.009 1.598.603 6.704-2.186 6.106-3.287-2.49-4.606-5.673-12.712-5.47-13.912.201-.9 5.008-4.19 10.815-7.477 5.807-3.188 12.815-7.073 15.518-8.568 2.804-1.594 7.51-4.284 10.513-6.078 11.815-7.075 13.815-7.37 15.406-2.667m14.792 3.63c2.697 1.606 20.683 8.144 22.183 8.147.3 0 .702-.798 1.004-1.798.302-.9.198.8-.108 3.8-.715 7.298-3.426 12.393-8.634 16.082-4.106 2.991-4.306 3.09-13.205 2.472-5.2-.31-13.5-.028-19.602.76-11.103 1.376-11.103 1.376-30.926 12.334-15.217 8.469-18.32 10.162-18.62 10.161-.2 0-2.804 1.495-5.708 3.389-3.805 2.492-6.007 3.287-8.006 2.883-1.5-.303-3.3-.107-4.001.491-2.605 2.095-8.51 4.983-9.11 4.481-.299-.4-.596-1.9-.592-3.4.004-2.2.806-3.1 4.81-5.19 5.306-2.69 17.62-9.564 20.925-11.657 2.003-1.296 2.702-1.194 6.298.713 4.495 2.41 4.195 2.709 4.41-4.59.103-1.6 1.206-2.998 3.61-4.293 1.901-.996 5.505-2.989 8.008-4.383 2.503-1.295 5.907-3.288 7.509-4.185 4.706-2.89 22.426-12.153 23.026-12.151.3 0-1.307 2.897-3.514 6.392s-4.014 6.692-4.015 7.192 1.798.804 3.999.608c3.7-.392 4.201-.791 6.11-5.087 1.206-2.497 2.813-6.094 3.717-7.892 1.306-2.897 1.307-3.497.109-4.3-.999-.602-1.098-.902-.098-.9 1.8.004 5.212-5.99 5.22-9.29.006-3.2.806-3.298 5.201-.788m72.597 1.453c.295 2.6.094 2.8-3.606 2.792-2.6-.005-4.498-.71-5.596-1.912-1.696-1.803-1.696-2.003.107-3 1-.597 3.402-.992 5.301-.788 3 .206 3.499.607 3.794 2.908m-48.802 1.197c-.001.3-.202.5-.502.5-.3-.001-.5-.202-.498-.502 0-.3.2-.5.5-.499s.5.201.5.501m43.49 4.192c1.1.602 2.096 2.104 2.294 3.204.197 1.4 1.595 2.604 3.793 3.408 2.099.705 3.396 1.907 3.394 2.907-.005 2.3 1.393 3.103 7.39 4.516 4.598 1.11 5.198 1.01 9.804-1.68 4.506-2.69 6.807-3.485 6.805-2.485 0 .2.298 1.1.596 1.9.398 1.002-1.105 2.399-4.809 4.39-2.903 1.695-7.409 4.185-10.012 5.68-5.607 3.188-9.306 2.88-8.198-.717.604-2.099.604-2.099-1.3-.403-1.102.998-2.703 1.494-3.602 1.092-.9-.301-3.1.094-4.902.99-3.003 1.594-3.403 1.593-5.8-.212-6.29-4.713-8.367-15.618-4.55-23.61 1.708-3.596 1.708-3.596 4.404-1.79 1.498 1.003 3.595 2.307 4.694 2.81m68.38 10.043c1.688 5.603 3.077 10.806 3.076 11.606-.003 1.3-4.31 4.291-14.02 9.67-1.903.997-5.908 3.289-8.811 5.082-2.904 1.694-5.907 3.088-6.607 3.087-.8-.002-1.901.596-2.503 1.394-1.102 1.298-7.31 4.885-13.816 7.971-1.302.598-2.303 1.396-2.304 1.796-.001.5-.402.799-.902.798s-4.804 2.19-9.61 4.98c-4.806 2.69-9.31 4.98-10.11 4.978-1.6-.003-3.791-4.607-3.087-6.406.3-.6 1.703-1.796 3.305-2.593s7.008-3.785 11.914-6.575c8.51-4.782 11.814-6.675 23.327-12.951 19.122-10.66 20.425-11.758 19.234-16.36-.496-1.801.21-4.2 2.719-8.694 1.806-3.297 3.314-6.893 3.316-7.893.008-3.6 1.8.203 4.879 10.11m-37.98-9.18c2.792 3.406-.521 9.7-4.318 8.291-2.099-.804-2.088-6.004.017-8.1 1.904-1.996 2.804-1.994 4.3-.19m16.9-.064c3.7-.093 2.692 3.405-1.914 6.196-7.21 4.585-8.81 5.081-10.606 3.177-1.497-1.503-1.497-1.703.004-2.3.901-.298 1.703-1.396 1.705-2.296s.706-2.699 1.609-3.997c1.303-1.797 2.104-2.095 4.303-1.49 1.399.402 3.598.707 4.898.71m5.2-.79c0 .3-.2.5-.5.5-.3-.001-.5-.202-.5-.502.002-.3.202-.5.502-.499s.5.201.499.501m7.29 5.016c-1.506 2.997-3.011 5.493-3.411 5.493-1.3-.003-2.187-6.105-1.085-7.203 1.203-1.197 5.308-3.589 6.408-3.686.4-.1-.405 2.399-1.912 5.396m-25.601.646c-.302.8-.601.499-.599-.601-.097-1.1.204-1.7.503-1.3.3.302.398 1.202.096 1.901m-74.299-.755c2.099.804 1.99 5.304-.224 11.9-1.71 4.996-1.71 4.996-7.512 5.283l-5.7.288 4.209-4.29c2.806-2.795 4.812-5.89 5.719-9.089.705-2.598 1.51-4.697 1.61-4.696.2 0 1 .302 1.898.604m94.39 5.197c1.388 5.403 1.489 5.303-8.222 10.483-5.606 2.988-5.807 3.088-5.102.89.403-1.3 2.01-4.496 3.615-7.193s2.91-5.094 2.911-5.394c.003-1.1 2.607-3.295 4.007-3.392 1 .002 1.997 1.605 2.79 4.606m-85.912 5.72c2.19 4.305 3.377 10.607 6.033 32.013.59 4.901 1.278 10.103 1.575 11.503.591 4.302-2.094-2.404-4.576-11.01-1.192-4.102-2.979-10.306-4.072-13.808-1.092-3.402-2.08-9.304-2.272-13.005-.293-3.7-.783-8.101-1.18-9.702-.595-2.601-.494-2.801.704-1.799.798.702 2.493 3.306 3.788 5.808m77.112-5.838c0 .2-1.306 2.697-3.011 5.494-1.606 2.796-3.012 5.493-3.013 5.893-.004 1.8-3.007 3.494-4.205 2.291-1.696-1.703 2.121-10.095 5.726-12.288 2.904-1.894 4.505-2.29 4.503-1.39m-194.212 5.393c-1.304 1.997-2.607 3.595-3.107 3.694-.4-.001.503-1.8 1.908-3.996 1.505-2.197 2.908-3.894 3.107-3.594.2.2-.704 1.999-1.908 3.896m112.695 2.536c.692 4.102-1.516 7.797-3.512 5.793-1.098-1.103.82-9.399 2.12-9.396.4.001.996 1.602 1.392 3.603m69.998 1.047c-1.907 3.396-1.907 3.396.388 5.9 2.394 2.606 2.394 2.606 9.502-1.18a377 377 0 0 0 9.311-5.18c1.202-.798 2.502-1.095 2.902-.694.798.802-2.212 5.695-3.512 5.693-.5-.001-3.804 1.592-7.308 3.584-10.913 6.178-40.247 22.516-43.15 24.01-3.304 1.693-3.504 1.593-4.595-2.51-.894-2.901-.793-3.101 1.806-2.996 1.5.103 4.603-1.09 6.806-2.586 3.505-2.292 4.006-3.091 3.41-4.892-.398-1.101-2.295-2.605-4.193-3.21-3.398-1.206-3.398-1.206 1.509-4.296 6.208-3.987 7.108-3.985 8.5-.182.894 2.702 1.394 3.003 5.394 3.011 5 .01 7.003-1.585 6.51-5.186-.196-1.8-1.194-2.503-4.493-3.21l-4.298-.909 8.21-4.783c4.606-2.59 8.51-4.582 8.71-4.281.199.2-.405 1.899-1.409 3.897m-234.596-1.892c1.097 1.203 2.396 1.805 2.997 1.407.7-.399 1.099.402 1.096 1.902-.003 1.4-.606 2.599-1.206 2.597-1.6-.003-7.992-3.916-8.989-5.318-1.993-3.205 3.208-3.694 6.102-.588m159.384 7.734c4.096 1.709 6.675 11.814 6.646 25.814-.017 8.2-.424 11.4-1.628 13.197-1.304 1.997-14.823 10.969-23.934 16.05-1.1.597-3.704 2.092-5.906 3.287-2.103 1.196-4.205 2.092-4.704 1.89-.4-.2 1.71-4.796 4.72-10.19 3.012-5.393 5.422-10.188 5.423-10.488 0-.3-1.994-2.705-4.489-5.31-4.889-5.31-4.889-5.31-12.699-.626-3.103 1.793-4.805 2.29-4.803 1.49.004-2 3.612-5.493 8.016-7.684 3.604-1.792 4.005-2.391 4.012-5.791.005-2.1.51-4.3 1.21-4.998 1.704-1.696-4.98-9.21-7.781-8.616-1.2.197-3.4-.207-4.798-1.01-2.198-1.105-2.397-1.505-1.096-2.002 5.004-1.89 18.297 1.338 21.89 5.345 1.496 1.604 1.495 1.904.093 3.1-2.405 1.996-1.71 4.397 1.786 6.304 3.297 1.807 3.497 1.808 8.001-.383 5.005-2.39 5.908-3.587 5.014-6.69-.694-2.9-4.49-4.309-7.993-3.016-2.502.895-3.502.693-6.897-1.515-8.289-5.517-16.386-7.034-23.091-4.248-2.002.796-3.803 1.292-4.103 1.092-.2-.3.604-1.9 1.808-3.697 2.306-3.095 2.306-3.095 22.906-2.652 11.299.324 21.398.845 22.397 1.347m44.702-.906c0 .3-.201.5-.501.499-.3 0-.5-.201-.5-.501.001-.3.202-.5.502-.5.3.001.5.202.499.502m7.795 2.116c.3.1-3.505 2.393-14.118 8.57-3.704 2.093-5.702 1.289-5.695-2.311.01-4.4 3.215-6.994 7.814-6.384 2.199.405 4.7.01 6.201-.787 1.802-.996 2.903-1.094 4-.292.8.602 1.599 1.104 1.798 1.204m-192.301.497c6.501-.586 6.8-.485 4.498.91-1.402.797-5.704 2.088-9.706 2.68-4.001.691-6.903 1.685-6.604 2.186s1.999.604 3.7.307c3.1-.593 3.1-.593.796 1.302-1.202 1.098-2.804 2.094-3.505 2.393-.9.298-.802 1.298.592 4.101 1.692 3.704 1.692 3.704 4.996 1.81 1.702-1.096 5.707-3.288 8.71-4.881 3.004-1.694 8.51-4.682 12.314-6.675 4.506-2.49 6.707-3.285 6.705-2.385-.001.8-.403 1.799-.905 2.298-1.102 1.297-5.136 17.489-5.143 20.989-.003 1.4.492 3.5 1.09 4.602.896 1.702.595 2.101-2.006 2.996-1.702.596-3.103 1.393-3.104 1.793s-1.603 1.297-3.604 1.993c-3.303 1.193-3.503 1.493-2.81 4.394.297 1.8.793 3.402 1.093 3.702.2.2 4.499.51 9.598.72 5.1.111 10.9.523 12.998.928 2.9.506 4.9.01 9.305-2.08 3.703-1.793 5.206-2.99 4.407-3.492-.899-.501-.498-.8 1.102-.797 8.1-.083 20.91-5.057 20.917-8.156.003-1.5-1.098-1.203-3.402.792-3.206 2.794-7.41 4.385-7.806 2.984-.298-.8-1.199-.602-2.801.494-1.402.897-3.904 1.692-5.604 1.688-2.6-.005-3.598-.707-5.193-3.31-1.096-1.703-2.29-4.305-2.688-5.606-.695-2.402-.695-2.402 7.603-1.684 20.497 1.643 20.897 1.744 21.492 4.245 1.19 4.802-.315 6.8-8.825 11.781-4.606 2.69-12.515 7.274-17.522 10.264-12.215 7.174-14.816 7.969-22.013 6.354-10.995-2.423-11.893-3.125-14.276-11.33-3.376-11.407-6.162-18.113-8.556-21.118-4.489-5.51-8.568-15.318-9.054-22.12-.586-6.5-.586-6.5 2.812-5.493 1.899.504 6.598.713 10.399.421m85.2.079c-.302.7-.104 1.8.495 2.4 1.397 1.404-.308 3.6-5.214 6.69-5.908 3.788-8.113 6.183-8.32 9.083-.204 2.4.295 3 2.993 3.906 1.698.603 4.295 2.309 5.592 3.712 2.095 2.204 2.995 2.506 5.296 1.91 2.902-.793 2.902-.793 4.086 6.81.987 6.201.883 7.901-.12 9.099-1.803 1.896-5.62 9.588-5.622 10.988-.002.6.696 1.802 1.494 2.703.898.902 1.295 2.303.993 3.402-.402 1-.204 1.9.296 1.901 1.9.004 2.008-3.996.113-6.1-1.796-2.103-1.796-2.203.714-6.798 1.505-2.497 2.81-4.994 3.111-5.494.301-.4 1.299.703 2.095 2.505.896 1.902 1.893 3.604 2.192 3.904 1.996 1.704 6.978 10.415 6.277 11.013-.401.4-6.203 1.287-12.804 1.974-7.702.784-13.404 1.972-15.907 3.266-4.004 1.892-4.004 1.892-6.797-1.414-2.693-3.306-6.774-12.514-6.768-15.414.002-.8-.497-1.501-.997-1.502-1.6-.004-.11 4.8 3.974 12.708l3.684 7.308-6.2-.013c-4.8-.01-7.5.584-11.906 2.775-3.103 1.593-5.605 2.588-5.604 2.288 0-.3 2.108-3.995 4.617-8.09s5.22-9.99 6.227-13.087c1.511-5.297 2.012-5.896 8.12-9.483 7.61-4.584 8.212-5.983 6.332-15.287-1.089-5.402-1.885-7.004-5.379-10.211-2.295-2.105-3.991-4.009-3.79-4.208 1-.798 26.13-14.445 26.93-14.544.2-.1.099.5-.203 1.3m8.687 6.418c-3.808 3.592-7.512 5.484-8.51 4.482-1.896-1.904.21-4.3 3.61-4.292 1.9.004 3.7-.492 4.001-.992.301-.6 1.102-.998 1.702-.996.7.001.299.8-.803 1.798m70.594 2.548c.397 1.8 2.68 9.606 4.964 17.31 6.057 20.513 6.057 20.413 3.955 21.509-1.001.598-2.902.994-4.202.99-2.3-.004-2.499-.504-3.677-10.807-.688-5.901-1.57-14.303-2.161-18.604-1.473-13.204-.96-18.902 1.121-10.398m-65.696-1.738c.299.4.197 1.5-.406 2.6-.903 1.598-.405 2.699 2.587 6.405 2.893 3.506 3.991 4.208 5.093 3.41.701-.698 1.802-.896 2.4-.494 2.198 1.304.794 3.501-3.711 5.692-3.704 1.792-5.407 3.489-7.315 7.185-1.406 2.597-3.311 5.193-4.212 5.69-1.602.897-1.8.397-1.789-5.503.008-3.6.515-6.799 1.015-7.098.601-.399.703-1.098.404-1.7-.399-.5-.096-2.1.607-3.398 3.012-5.594-4.086-6.508-12.896-1.727-7.409 4.085-9.902.68-3.39-4.607 4.307-3.49 4.907-3.69 6.903-1.686 1.796 1.804 4.397 1.11 8.505-2.382 3.406-2.893 5.007-3.49 6.205-2.387m157.492 3.93c1.19 5.003 6.746 25.614 7.442 27.816.298.8.794 2.701 1.09 4.202.595 2.801.996 2.502-13.421 10.472-2.503 1.395-6.508 3.786-9.011 5.281-10.514 6.578-35.442 19.926-37.042 19.923-1-.002-3.401.692-5.503 1.588-2.102.796-4.103 1.192-4.502.69-.798-.901-3.972-13.408-3.967-15.608.004-2 4.006-2.891 5.603-1.288 2.494 2.605 8.194 2.917 11.298.724 1.603-1.197 3.305-2.093 3.905-2.092 2 .004 3.405-2.793 2.31-4.795-1.295-2.403-8.491-4.418-9.994-2.921-.802.798-1.101.497-1.098-1.003.004-1.9.304-1.999 4.002-1.191 3.299.807 4.8.51 8.003-1.083 2.202-1.096 4.005-2.592 4.006-3.292.01-4.4-8.183-7.717-12.888-5.327-2.103 1.096-3.803 1.092-8.5.182l-5.998-1.212 9.511-5.58c17.522-10.264 45.154-25.706 46.054-25.704.5.001.901-.298.902-.798.002-.8 3.806-2.892 5.707-3.088.6.001 1.596 1.803 2.09 4.104m-124.297-1.46c.697 1.201-5.41 5.089-7.41 4.784-2.7-.505-2.095-2.404 1.108-3.997 3.904-1.992 5.505-2.189 6.302-.787m-22.707 3.252c.198 1.1-.304 1.7-1.704 1.697-2.3-.005-3.497-1.508-2.593-3.106 1.003-1.498 3.901-.592 4.297 1.41m24.2.151c-.001.5-6.008 3.587-6.908 3.586-1.1-.103 4.408-3.991 5.708-3.989.6.002 1.2.203 1.2.403m-28.21 4.14c-1.001.999-2.798-.605-2.794-2.405.003-1.5.103-1.5 1.7.104.898.901 1.396 1.903 1.095 2.302m-46.498-.496c4.493 3.109 6.688 5.814 6.683 8.014-.004 1.8-.604 1.898-13.202 1.172-7.3-.315-13.499-.828-13.698-1.029-.2-.2 1.102-1.098 2.904-2.094 1.702-.996 5.507-3.188 8.31-4.882 2.904-1.794 5.407-3.189 5.507-3.289.2-.1 1.798.904 3.496 2.108m65.202-1.064c.3.5-.102 1-.902.998s-1.799-.504-2.098-1.004c-.299-.6.102-1 .902-.998.8.001 1.8.403 2.098 1.004m28.478 10.66c1.689 5.403 3.575 11.907 4.17 14.308.495 2.402 1.292 3.903 1.693 3.304.301-.5.597 1.501.59 4.601.067 16 3.139 29.307 8.127 35.217 1.396 1.703 2.89 4.706 3.485 6.808.496 2 1.29 5.002 1.786 6.703 2.085 7.205 3.967 15.809 3.566 16.308-.3.2-2.898-.706-5.795-2.112-5.095-2.51-18.482-8.839-27.773-13.058-2.498-1.106-9.191-4.22-14.985-7.032-5.795-2.712-11.889-5.525-13.587-6.328-2.098-.905-3.395-2.307-3.792-4.108a603 603 0 0 0-2.183-7.905c-1.59-5.003-1.49-5.203.919-8.998 1.705-2.696 4.61-4.99 9.316-7.48 3.804-2.092 9.911-5.68 13.616-7.972 3.705-2.392 8.111-5.183 9.713-6.08 5.506-2.988 7.115-7.085 7.137-17.685.011-5.2.22-9.2.519-8.899.2.2 1.89 4.904 3.478 10.408m-72.392-4.052c-1.002.998-1.899-.504-.996-1.802.602-1.099.802-1.098 1.2.003.199.7.097 1.5-.204 1.8m35.276 11.474c1.796 2.204 3.091 4.206 2.991 4.306-1.602 1.197-15.218 8.568-15.818 8.567-1.4-.003-6.884-7.614-6.282-8.613.401-.5 2.705-1.994 5.207-3.29 2.503-1.294 5.406-2.988 6.508-3.785 3.004-1.994 3.904-1.692 7.394 2.815m-80.904 2.13c-.004 1.8-1.699-.803-2.393-3.404-.695-2.502-.695-2.502.8.001.897 1.402 1.494 2.903 1.593 3.404m-7.397-1.715c1.496 2.103 1.791 4.304.491 4.301-.5 0-1.397-1.403-1.993-3.004-1.093-3.402-.492-3.901 1.502-1.297m-9.604 1.78c0 .3-.2.5-.5.499-.3 0-.5-.201-.5-.501.001-.3.202-.5.502-.5.3.002.5.202.498.502m2.996 2.006c0 .3-.2.5-.5.5-.3-.001-.5-.202-.5-.502s.201-.5.501-.499c.3 0 .5.201.5.501m12.696 2.227c-.401.299-1.001.298-1.4-.003-.3-.4.001-.7.701-.699s1 .302.699.702m65.491 4.037c2.194 3.005 2.492 4.005 1.687 6.204-.905 2.698-.905 2.698 1.4.002 2.106-2.595 13.02-9.772 14.82-9.768.5 0-1.207 3.797-3.717 8.492-2.51 4.694-4.319 8.89-3.92 9.392.797 1.401-1.305 2.397-3.903 1.691-1.4-.303-3.195-2.306-4.69-5.11-1.294-2.502-2.69-4.505-2.99-4.506-.4 0-1.596-2.003-2.79-4.506-3.385-7.307-.883-8.401 4.103-1.891m-69.194-2.745c-.001.5-.202 1-.402 1-.2-.001-1.2.297-2.202.695-1.6.596-1.7.496-.398-1.001 1.704-1.897 3.005-2.194 3.002-.694m9 .019c-.001.5-.902.998-2.002.996s-2-.504-1.998-1.004c.001-.6.902-.999 2.002-.996 1.1.002 2 .404 1.998 1.004m-18.001.462c0 .3-.201.5-.501.5-.3-.001-.5-.202-.5-.502.002-.3.202-.5.502-.499.3 0 .5.201.499.501m1.998 1.004c0 .3-.201.5-.501.5-.3-.001-.5-.202-.5-.502.001-.3.202-.5.502-.499s.5.201.499.501m9.996 2.021c-.001.3-.201.5-.501.5-.3-.001-.5-.202-.5-.502.001-.3.202-.5.502-.499.3 0 .5.201.499.501m168.396 2.053c2.99 4.306 1.99 4.604-12.508 3.874-1.6-.103-3.191-4.507-2.089-5.605.3-.299 3.401-.492 6.801-.485 5.4.011 6.5.313 7.796 2.216m-207.312 5.266c4.99 5.01 4.986 6.61.086 6.6-3.8.092-15.21 4.968-15.214 6.668-.003 1.4 2.098.905 5.003-1.19 1.602-1.096 4.204-2.19 5.905-2.487 10.103-1.579 9.104-1.88 9.094 3.02-.005 2.4-.512 5.498-1.115 6.897-1.105 2.397-1.205 2.397-3.2.493-2.296-2.105-3.296-2.407-4.199-.909-.3.5-1.902.996-3.502.993s-3.199-.507-3.498-1.007c-.299-.601-1.398-1.003-2.498-1.006-3.4-.007-5.18-9.71-2.867-15.706 1.81-4.696 3.913-6.291 8.213-6.282 3.2.006 4.599.71 7.792 3.916m58.905-2.077c-.003 1.5-6.732 15.286-11.952 24.575-1.104 2.098-2.108 3.896-2.108 4.096-.001.3 3.003-1.594 6.608-3.986 6.409-4.287 6.71-4.386 14.91-4.37 6.1.014 9.6-.479 13.003-1.972 4.804-1.99 10.506-2.678 10.503-1.178-.001.5.896 1.902 1.993 3.204 2.494 2.806 4.295 2.41 14.007-3.37 4.105-2.492 7.61-4.284 7.909-4.084.898 1.002-2.911 5.194-6.515 7.087-3.905 2.091-12.815 7.173-25.43 14.346-3.604 1.993-12.115 6.975-19.023 10.96-6.909 3.986-14.017 8.071-15.72 9.068-3.203 1.893-6.107 3.487-13.315 7.572-16.02 9.166-27.032 15.243-27.532 15.242-.4 0 .504-2.099 2.01-4.796 1.505-2.597 4.316-7.59 6.323-11.186a290 290 0 0 1 4.819-8.69c.802-1.199 2.207-3.696 3.311-5.593a120 120 0 0 1 3.312-5.794c1.908-3.496 5.015-6.89 6.215-6.887.6.002 3.203-1.593 5.907-3.487 4.708-3.49 4.708-3.49 4.729-13.59.02-10 .02-10 3.124-11.694 1.702-.896 5.006-2.89 7.21-4.385 5.006-3.19 5.706-3.288 5.702-1.088m121.798 1.155c2.498.506 3.197 1.307 3.792 3.808.296 1.7 2.182 8.505 3.968 15.009 1.886 6.504 3.175 12.106 2.874 12.406-.3.299-2.3-.005-4.398-.71-5.097-1.51-9.787-6.22-10.978-10.923-1.19-4.602-2.76-19.105-2.158-19.704.601-.699 3.301-.593 6.9.114m-9.92 8.88c1.092 4.402 1.884 8.104 1.683 8.303-.5.4-2.982-8.306-4.07-13.808-1.287-6.403.405-2.5 2.388 5.505m20.112-5.458c0 .5-.502.999-1.202 1.197-2.202.796-.012 5.5 3.086 6.607 2.198.804 2.996 1.806 3.49 4.907.395 2.1 1.487 6.003 2.282 8.605 1.689 5.303 1.086 6.702-3.214 6.693-1.6-.003-2.298-1.205-3.587-6.307-.893-3.402-2.58-9.606-3.771-13.708-2.58-9.606-2.58-9.806.419-9.2 1.4.203 2.498.806 2.497 1.206m4.693 3.71c-.401.299-.7-.002-.699-.702s.302-1 .702-.698c.299.4.297 1-.003 1.4m16.302-1.166c0 .3-.201.5-.501.499s-.5-.201-.499-.501c0-.3.201-.5.501-.5.3.001.5.202.5.502m-171.113 5.841c-.104 2.1-.306 3-.604 1.999q-.445-1.8-2.397-1.205c-2.602.895-17.22 9.664-18.123 10.862-1.103 1.498-1.018 8.798.078 10.5.698 1.102 2.199.605 7.705-2.584 6.508-3.686 11.514-6.576 12.315-6.974.2-.1.704-1.698 1.107-3.498.807-3.198.807-3.198.901-.498.188 5.8-.012 5.9-33.951 24.73-23.928 13.15-23.928 13.15-28.033 15.64-4.406 2.791-7.306 2.785-11 .078-2.896-2.206-2.896-2.206-.888-6.002 1.105-2.198 2.408-3.895 2.908-3.894s1.096 2.102 1.29 4.703c.29 4.8.29 4.8.502-.5.213-6.299 2.214-6.995 2.201-.695-.012 5.9 1.088 5.802 12-.275 8.51-4.682 8.51-4.682 8.82-9.581.517-7.7.117-8-6.29-4.513-3.003 1.593-5.506 2.788-5.505 2.488 0-.3 2.905-2.394 6.51-4.686 3.605-2.293 6.309-4.387 6.11-4.688-.799-.701-9.51 4.68-13.818 8.572-2.104 1.895-4.007 3.291-4.307 2.99-.998-1.002.81-4.698 2.611-5.094 3.002-.794 3.508-3.693 1.112-5.598-1.198-.902-2.095-2.504-1.993-3.604s-.192-3.9-.587-6.301c-.691-3.902-.59-4.201 1.61-4.197 2.3-.095 2.3-.095-.098-1.4-2.097-1.204-2.197-1.405-.496-2.001 1.001-.398 2.001-.296 2.2.305.199.5 1.394 2.503 2.79 4.305 1.297 1.803 2.692 4.106 2.99 5.107.398 1 2.594 2.905 4.991 4.31 4.295 2.51 4.295 2.51 12.104-1.674 4.304-2.291 9.11-5.081 10.612-6.178 1.603-1.097 5.507-3.189 8.81-4.782 3.204-1.593 5.907-3.287 5.909-3.887 0-.5-1.6-.004-3.503 1.092-3.504 2.093-3.504 2.093-3.499-.407.003-1.5-.893-3.202-2.191-4.105-2.197-1.604-2.197-1.604-.197-1.6 1.2.002 3.4.407 4.998 1.01 2.099.705 4.299.61 7.9-.383 2.802-.694 5.304-1.389 5.804-1.488.4 0 .597 1.601.592 3.601m220.107-2.739c0 .3-.201.5-.501.5-.3-.001-.5-.202-.5-.502.001-.3.202-.5.502-.499.3 0 .5.201.499.501m-2.002.996c-.001.3-.201.5-.501.499-.3 0-.5-.201-.5-.501.001-.3.202-.5.502-.499.3 0 .5.201.499.501m14.997 1.032c0 .3-.2.5-.5.498-.3 0-.5-.2-.5-.5.001-.3.202-.5.502-.5.3.001.5.202.498.502m-265.005 2.344c-.004 1.7 1.193 3.403 3.49 5.208l3.593 2.707-4.805 2.79c-2.604 1.595-5.207 2.89-5.707 2.888-.4 0-.496-1.7-.192-3.8.305-2 .912-5.598 1.217-7.998.71-4.498 2.412-5.795 2.404-1.795m262.502-.85c-.3.5-1.102.998-1.602.997-.6-.001-.699-.502-.398-1 .302-.6 1.102-.999 1.602-.998.6.002.7.402.398 1.001m-164.602 1.056c-.2.2-2.303 1.295-4.605 2.49-3.304 1.593-4.104 1.791-3.702.592.402-.799.103-1.5-.497-1.5-.6-.002-1.101.697-1.103 1.497-.004 2.1-3.006 3.093-4.103 1.391-2.192-3.504-.59-4.301 10.51-4.678 2.2-.095 3.7.008 3.5.208m-68.111 5.157c-.31 4.6-.31 4.6-8.32 9.382-4.406 2.691-8.31 4.883-8.71 4.882-.5 0-.795-2.201-.79-4.801.009-4.3.31-5 2.713-6.295 1.502-.797 5.206-2.889 8.21-4.683 3.004-1.693 5.907-3.187 6.307-3.186.5 0 .795 2.101.59 4.7m209.206-2.862c0 .2-.701.699-1.602.997-.8.298-1.2.197-.899-.402.602-.999 2.503-1.395 2.501-.595m16 .034c0 .3-5.707 3.488-28.533 16.04-12.615 6.973-23.328 13.251-25.432 15.047-4.107 3.391-5.114 6.689-5.134 16.389-.011 5.2-.42 8.999-1.02 8.998-.5-.001-4.795-1.81-9.49-4.12-6.394-3.014-8.89-4.719-9.587-6.72-2.088-5.405-6.25-23.213-5.65-23.812.401-.3 2.1-.096 3.9.508 6.495 2.214 23.498.85 26.504-2.144.4-.4 1.401-.697 2.101-.696.8.002 5.604-1.888 10.609-4.078 5.105-2.29 11.21-5.076 13.713-6.171s7.006-3.085 10.009-4.38c8.008-3.682 12.21-5.174 15.31-5.167 1.501-.097 2.7.106 2.7.306m-286.017 7.8c.593 3.502.986 6.603.786 6.702s-1.701.597-3.502.893c-4.302.99-5.696-1.712-4.78-9.01.61-4.999.81-5.298 3.51-5.193s2.9.406 3.986 6.609m260.604-1.654c-3.004 2.094-4.503 1.59-1.598-.603 1.402-.997 2.703-1.594 3.002-1.294.3.2-.402 1.1-1.404 1.897m-248.602.88c.598 1.1.896 2.002.696 2.001s-1.198-.902-2.196-2.004c-.998-1.103-1.296-2.003-.696-2.002s1.598.903 2.196 2.005m184.696 2.086c-.4.3-.7-.001-.699-.701s.303-1 .702-.698c.299.4.298 1-.003 1.4m59.002-.876c-.4.3-1 .298-1.4-.003-.3-.4.001-.7.701-.698.7.001 1 .302.699.701m-235.704 1.806c-.001.5-.702.999-1.602.997-.8-.002-1.2-.502-.898-1.002.3-.6 1.002-.998 1.602-.996.5 0 .899.401.898 1.001m302.992 4.135c2.994 2.506 5.59 4.912 5.788 5.412.298 1-8.41 5.283-12.913 6.373-2.101.496-3 .194-4.197-1.709-1.694-2.503-7.391-4.015-9.394-2.42-2.905 2.295-10.295-2.52-10.286-6.82.008-3.9 3.51-4.894 10.906-2.978 8.096 2.117 9.796 2.02 11.3-.376.703-1.099 1.705-1.997 2.305-1.996s3.496 2.008 6.49 4.514m-304.998-1.639c0 .3-.2.5-.5.5-.3-.001-.5-.202-.5-.502.001-.3.201-.5.501-.499.3 0 .5.201.5.501m180.694 3.079c-.301.799-.6.498-.598-.602-.098-1.1.203-1.7.502-1.299.3.301.398 1.201.096 1.9m91.893 3.492c.897 1.302 3.294 3.207 5.392 4.111 2.297 1.105 4.094 2.609 4.391 3.91.397 1.6 1.595 2.503 4.194 2.908 1.9.404 4.1.309 4.7-.19.702-.498 2.903-1.194 4.904-1.49 2.1-.295 6.704-1.985 10.308-3.678 5.305-2.489 6.906-2.885 8.104-1.983 2.296 2.005 1.695 2.504-5.308 3.789-3.702.692-7.204 1.685-7.705 2.084-1.702 1.296-13.41 5.072-15.61 5.067-1.2-.002-2.299-.705-2.597-1.505-.597-1.502-7.392-3.916-10.592-3.722-2.4.095-4.793-3.61-4.785-7.41.01-5 2.013-5.896 4.604-1.89m-289.601.394c0 .3-.201.5-.501.499s-.5-.201-.5-.501c.001-.3.202-.5.502-.5.3.001.5.202.499.502m46.193 3.296c-.704 1.699-2.912 5.594-9.736 17.28-1.707 2.996-5.32 9.289-7.93 13.983-4.216 7.692-5.218 8.79-10.424 11.579-3.103 1.693-11.313 6.276-18.221 10.261-10.713 6.178-15.82 9.067-29.535 16.439-1.101.597-2.203 1.295-2.503 1.594-1.303 1.398-13.015 6.973-13.013 6.273.001-.8 4.72-9.39 18.57-33.761 3.714-6.592 8.03-14.083 9.436-16.78 2.81-5.094 4.311-5.691 8.105-2.683 3.395 2.607 4.995 2.51 10.702-.878 7.61-4.484 18.322-10.562 24.63-13.948 14.416-7.77 17.319-9.364 18.22-10.162 1.504-1.497 2.503-.995 1.699.803m-46.2-.396c0 .3-.501.799-1.202 1.197-.7.399-.8.298-.399-.4.703-1.2 1.603-1.597 1.602-.797m15.387 6.532c-.608 3.699-1.21 4.497-5.314 6.589-2.502 1.294-5.907 3.287-7.609 4.384-1.602 1.196-3.404 2.093-3.804 2.092s-.696-2.102-.49-4.801c.31-4.7.31-4.7 8.32-9.383 4.405-2.59 8.309-4.382 8.808-3.881.399.4.494 2.7.089 5m292.61-4.487c-.003 1.3-1.205 2.197-2.203 1.595-.999-.602-.095-2.4 1.305-2.397.5 0 .899.402.898.802m-2.308 3.895c-.4.299-1 .298-1.4-.003-.3-.4.001-.7.701-.699s1 .302.699.702m-8.21 4.283c-.3.499-1.301.997-2.101.995-.8-.001-1.4-.503-1.398-1.003.001-.6.902-.998 2.102-.995 1.1.002 1.7.403 1.398 1.003m-331.505 2.605c-.004 2-.104 2-1.601.497-.898-.902-1.296-2.103-.895-2.702 1.004-1.598 2.501-.295 2.496 2.205m328.7.089c-.4.299-1 .298-1.4-.003-.299-.4.002-.7.702-.699s1 .302.698.702m-25.217 8.147c3.797 1.708 3.896 1.808 1.894 2.904-1.802.896-2.501.695-4.896-1.81-3.293-3.407-2.693-3.606 3.002-1.094m6.49 5.114c-.002.5-.903.998-2.003.995-1.1-.002-1.999-.504-1.998-1.004.002-.6.903-.998 2.003-.996s1.999.405 1.997 1.005m32.298.767c.998 1.002-2.41 4.295-4.41 4.291-2.8-.006-3.096-1.706-.692-3.401q3.606-2.543 5.102-.89m-35.307 3.326c-.001.5-.702.899-1.502.897-.9-.002-1.498-.903-1.496-2.103.004-1.8.204-1.9 1.502-.897.799.702 1.497 1.603 1.496 2.103m197.579 10.414c-2.128 13.096-14.25 23.37-20.036 16.958-1.596-1.803-1.496-2.003 3.11-4.993 8.111-5.283 8.312-5.483 7.815-7.184-.397-1.2.806-2.798 4.112-5.291 2.604-1.995 4.907-3.59 5.207-3.59.2.001.196 1.801-.208 4.1m-16.595-2.735c0 .2-1.903 1.596-4.106 3.092-3.305 2.093-4.305 2.39-5.003 1.29-1.396-2.104-1.095-2.503 3.407-3.494 5.303-1.288 5.703-1.388 5.702-.888m4.697 1.71c.198.8-3.308 3.793-8.015 6.783-4.506 2.991-9.814 6.78-11.817 8.276-4.307 3.29-6.907 3.585-6.902.885.002-1.1-.595-2.201-1.195-2.502-.699-.302-.399-.401.7-.199 1.3.303 6.006-2.287 13.516-7.371 6.31-4.287 12.017-7.775 12.516-7.574.6.101 1.098.902 1.197 1.702m-15.706 2.867c-.002.6-1.004 1.498-2.205 1.996-1.7.596-1.801.896-.601.898.9.102 2-.395 2.301-.895.302-.6 1.202-.997 1.802-.996 1.4.003-2.406 3.095-7.312 5.885-3.404 1.893-3.604 1.892-3.7.092-.098-1.2.704-2.099 2.505-2.495 1.501-.397 2.102-.895 1.503-1.197-.7-.201-4.001.492-7.304 1.685-3.402 1.193-6.404 1.887-6.803 1.486-.998-.902 1.605-2.297 7.808-3.984 3.002-.894 6.605-1.986 8.006-2.483 3.402-1.193 4.002-1.192 4 .008m-139.917 7.707c13.686 6.629 14.185 7.03 10.185 7.022-2.3-.005-6.597-1.114-9.495-2.42-7.393-3.316-18.375-11.639-15.375-11.632.2 0 6.793 3.114 14.685 7.03m120.91-4.246c-.001.3-.202.5-.502.498-.3 0-.5-.2-.499-.5 0-.3.201-.5.501-.5.3.001.5.202.5.502m35.498.574c-.903 1.398-9.615 7.28-10.014 6.779-.3-.2 1.704-2.097 4.309-4.091 4.607-3.59 6.91-4.686 5.705-2.688m-38.709 4.319c-.1.2-1.901.596-3.802.992l-3.501.593 3.505-2.393c2.804-1.894 3.604-2.093 3.802-.892.198.8.196 1.6-.004 1.7m11.202-.877c-.002.7-4.405 2.391-10.809 4.078-11.006 2.877-10.902 1.077.105-2.2 7.305-2.185 10.706-2.778 10.704-1.878m-17.714 6.563c1.8.104 1.6.304-.802.999-4.503 1.39-10.506 2.678-10.505 2.278 0-.1 1.904-1.597 4.307-3.191 3.105-2.194 4.305-2.591 4.503-1.591.199.8 1.297 1.403 2.497 1.505m-46.5.303c-1.504 1.397-3.506 2.492-4.506 2.49-1.5-.103-1.299-.502 1.005-2.498 3.908-3.491 7.207-3.384 3.5.008m63.4.033c1.495 2.303 1.895 2.104-18.215 6.961-9.505 2.18-10.605 2.278-11.702.876-1.695-2.204-.994-2.902 3.408-3.593 7.602-1.284 21.71-5.354 20.312-5.957-.8-.302.1-.3 2 .004s3.798 1.108 4.196 1.709m-10.5-.722c-.4.299-1 .297-1.4-.003-.298-.401.002-.7.702-.699s1 .302.699.702m-51.506 3.292c-1.904 1.696-3.706 2.792-4.005 2.391-.699-.701 4.711-5.49 6.211-5.487.6.002-.403 1.4-2.206 3.096m-6.204 1.887c-.001.5-.202 1-.402.999-.3 0-.8-.502-1.098-1.002-.299-.601-.098-1 .402-1 .6.002 1.1.403 1.098 1.003"/><path d="M619.826 586.694c-2.904 1.594-3.506 2.693-3.514 6.293-.006 3-.306 3.3-2.806 3.294-1.6-.003-3.699-.908-4.696-2.01-.998-1.102-2.096-1.804-2.297-1.505-1.203 1.198 4.288 5.51 6.988 5.515 1.7.003 2.8.506 2.797 1.406-.004 2 4.395 2.809 7.397 1.415 2.403-.995 2.604-1.594 2.616-7.294.011-5.4-.287-6.3-2.185-7.205-1.599-.703-2.899-.706-4.3.091M517.109 690.08c.799.5 2.598.905 3.998.908 2.5-.095 2.5-.095.002-.9-1.4-.403-3.198-.807-3.998-.909-1.3-.103-1.3-.003-.002.9M371.175 753.774c-1.405 2.297-1.506 2.997-.306 3 .8 0 2.408-4.096 1.81-4.697-.2-.1-.802.698-1.504 1.697M275.127 776.873c-9.211 5.18-9.211 5.18-9.223 10.88-.015 6.9.585 7.102 8.194 2.817 2.903-1.693 6.808-3.785 8.61-4.682 3.003-1.593 3.204-1.893 3.215-7.393.007-3.2-.387-6-.787-6.301-.499-.302-5.003 1.79-10.01 4.679m7.584 7.215c-.701.699-4.305 2.791-8.01 4.784l-6.807 3.685.011-5.5c.007-3 .412-5.499.912-5.498s4.004-1.791 7.808-3.983l6.808-3.886.29 4.6c.195 2.901-.21 5.1-1.012 5.798M574.545 481.899c-20.607 3.557-57.826 12.579-59.53 14.375q-1.053 1.048 1.5.304c1.4-.498 3.902-1.192 5.503-1.589 1.7-.396 5.702-1.388 9.004-2.281 21.312-5.355 42.32-9.511 48.42-9.499 1.7.004 3.301-.493 3.602-.992.602-.999-3.597-1.208-8.499-.318M495.503 501.934c-12.51 4.473-38.831 14.918-46.84 18.601-3.102 1.494-9.508 4.28-14.213 6.37-15.714 6.868-38.438 18.22-48.55 24.2-9.412 5.58-42.458 27.31-43.56 28.608-.301.3-2.104 1.696-4.007 2.992s-3.705 2.692-4.006 2.991c-.3.4-2.704 2.094-5.408 3.989-2.704 1.794-9.415 7.08-15.025 11.768-31.555 26.334-52.2 47.391-71.753 73.05-3.61 4.693-6.718 8.686-7.019 8.986-1.603 1.496-16.047 22.366-16.049 23.266-.002 1.2 2.204-1.595 9.526-12.28 3.21-4.693 6.118-8.687 6.419-8.987.3-.299 3.509-4.292 7.119-8.985 3.51-4.692 6.718-8.686 7.019-8.985.3-.3 1.604-1.897 2.907-3.494 10.729-13.878 38.888-42.219 56.218-56.382 3.005-2.494 6.411-5.287 7.513-6.285 1.102-.997 5.41-4.388 9.516-7.48 4.106-2.991 9.114-6.78 11.017-8.177s5.809-4.088 8.513-5.982c2.804-1.894 5.207-3.689 5.508-3.988 1.003-1.298 27.64-18.642 37.05-24.223 8.511-4.982 31.836-16.533 45.548-22.604 2.803-1.195 7.307-3.285 10.01-4.48 14.413-6.47 36.332-15.423 37.732-15.42.5 0 2.702-.895 5.104-1.89 2.302-1.095 7.807-3.183 12.21-4.574 4.403-1.491 8.406-3.083 9.007-3.581 1.503-1.497-.198-1-11.506 2.976M661.775 515.482c-4.403 1.29-9.015 7.08-9.826 12.58-.406 2.798-.21 4.999.388 5.6.798.802 1.1-.098 1.106-2.998.011-5.4 1.218-8.497 4.725-11.69 2.204-2.095 3.805-2.592 7.705-2.584 4.4.01 5.3.411 8.792 4.019 4.09 4.408 4.79 4.51 2.199.404-2.991-4.406-9.686-6.82-15.09-5.331M678.453 525.917c0 .3.199.5.499.5.3.001.5-.198.501-.498 0-.3-.199-.5-.499-.501-.3 0-.5.199-.5.499M682.532 536.125c.094 2.7.487 6.101.883 7.802.596 2.201.798.902.91-4.798.11-4.5-.283-7.7-.883-7.702-.5 0-.905 2.098-.91 4.698M652.431 536.262c0 .5.498 1.301.997 1.602.6.302 1 .202 1-.398.002-.5-.396-1.3-.996-1.602-.5-.3-1-.202-1 .398M675.223 540.21c-.702 1.099-2.405 2.395-3.606 3.092-1.302.698-2.103 1.496-1.904 1.796.798.702 5.706-2.688 6.81-4.785 1.305-2.398.405-2.4-1.3-.103M654.423 540.166c-.003 1.4 5.888 5.613 6.69 4.814.4-.299.201-.6-.399-.6-.6-.002-2.197-1.205-3.694-2.608-1.397-1.503-2.596-2.206-2.597-1.606M663.71 546.086c.9.202 2.5.205 3.5.007.901-.298.102-.5-1.798-.504-1.9-.003-2.7.195-1.701.497"/><path d="M253.954 668.428c-7.91 4.983-10.824 11.377-8.74 18.782 1.49 5.103 6.976 11.614 10.674 12.522 3.498.907 2.502-.795-1.494-2.903-4.994-2.61-8.58-9.318-7.968-15.017.612-5.998 4.02-10.091 11.128-13.376 4.704-2.09 5.506-2.789 3.506-2.893-1.4-.003-4.603 1.29-7.106 2.885M255.411 736.331c-4.805 2.69-10.415 7.278-11.62 9.576-.803 1.598-.202 1.3 2.302-.995 1.904-1.696 5.51-4.489 8.214-6.283 2.603-1.795 4.707-3.39 4.707-3.59.002-.7-.099-.6-3.603 1.292M581.914 783.215c-.001.5 2.098 1.005 4.798 1.01 8.3.018 10.698 1.023 49.159 19.803 19.18 9.44 30.371 13.464 36.372 13.276 2.7-.194 2.8-.194.601-.598-7.197-1.315-17.889-5.238-29.477-10.862-33.066-16.17-43.257-20.89-47.354-22.2-5.097-1.61-14.096-1.929-14.099-.429M177.38 798.968c-3.824 11.692-3.824 11.692-3.056 26.794.283 8.3 1.067 15.802 1.565 16.603.698 1.101.9.502.504-2-.296-1.9-.78-9.2-1.166-16.202-.573-12.7-.573-12.7 3.151-24.293 2.014-6.396 3.525-11.793 3.226-12.093-.2-.3-2.21 4.795-4.224 11.19M709.552 813.083c-1.103 1.097-8.206 2.582-18.208 3.861-10.003 1.18-10.003 1.18-3.003 1.394 3.9.008 9.7-.58 13.003-1.473 9.005-2.38 13.306-2.772 15.003-1.368.998.802 1.498.903 1.5.203.004-2.2-6.592-4.314-8.295-2.617M583.182 846.218c-4.908 3.89-9.616 7.58-10.417 8.278s-3.506 2.793-6.01 4.688-4.708 3.69-5.009 3.99c-.3.298-3.406 2.992-7.012 5.984s-6.712 5.686-7.013 5.986c-.3.3-4.308 3.89-9.016 7.98-10.62 9.279-42.586 41.012-43.992 43.809-1.004 1.798-.705 2.198 1.792 3.604 4.096 2.008 5.596 1.911 7.402-.785.802-1.198 2.306-3.095 3.309-4.193 1.102-1.198 4.41-4.99 7.417-8.484 13.434-15.872 42.795-45.111 64.134-63.866 13.726-12.172 14.527-12.87 13.929-13.471-.3-.3-4.606 2.59-9.514 6.48M175.775 849.165c-.005 2.6.391 4.1.992 3.702 1.302-.798 1.31-4.498.014-6.5-.698-1.102-1-.302-1.006 2.798M640.251 860.937c-6.003 1.388-13.706 2.772-17.007 3.265-4.3.49-5.502.988-4.203 1.591 1.799.704 14.003-1.47 30.212-5.537 10.505-2.578 3.604-2.092-9.002.681M402.121 875.139c-.201.7-.313 6.2-.226 12.3l.277 10.9 42.999.89c23.599.45 43.499.591 44.199.393 1-.398 1.308-3.598 1.326-12.398.025-11.9.025-11.9-3.674-12.607-2.099-.305-21.898-.646-44.098-.693-32.3-.067-40.4.216-40.803 1.215m65.897 1.538 19.699.641-.021 10-.021 10-40.699-.785c-22.399-.447-40.798-.886-40.898-.986-.499-.5-.688-5.601-.573-12.501l.215-7.2 21.3.045c11.8.025 30.199.363 40.998.786"/><path d="M412.614 878.46c-2.005 2.397-2.424 11.496-.529 13.9 1.197 1.602 1.796 1.803 3.298.907 1.001-.598 2.004-1.896 2.106-2.796.606-2.799-.686-6.601-2.286-6.605-1.7-.003-2.797-1.706-1.994-3.004.502-.799 1.102-.798 2 .004 1.997 1.604 2.801-.494.905-2.398-1.896-2.004-1.896-2.004-3.5-.007m3.08 10.007c-.007 3.1-2.307 2.795-2.8-.406-.197-1.5.205-2.2 1.205-2.197 1.1.002 1.598.903 1.594 2.603M421.71 880.58c.094 2.7.094 2.7 1.498.903 2.206-2.895 3.002-1.194 1.693 3.304-1.41 4.497-1.62 9.096-.32 9.099.4 0 1.106-2.398 1.512-5.297.306-2.8.913-6.398 1.217-7.997.605-2.5.405-2.7-2.495-2.706-2.7-.005-3.1.294-3.105 2.694M443.199 885.925c-.017 8-.017 8 2.683 8.005 3.5.008 4.203-1.29 3.916-7.891-.187-6.2-1.283-8.103-4.483-8.11-2-.004-2.1.496-2.116 7.996m4.507-3.49c-.003 1.4-.405 2.498-1.005 2.497-.5 0-.998-1.102-.995-2.502s.505-2.499 1.005-2.498c.6.001.998 1.102.995 2.502m-.015 7c-.003 1.4-.405 2.498-1.005 2.497-.5 0-.998-1.102-.995-2.502s.505-2.499 1.005-2.498c.6.001.998 1.102.995 2.502M454.913 879.15c-1.403 1.396-1.61 4.796-.31 4.799.5 0 1.202-.998 1.605-2.297.804-2.098.804-2.098 1.198.503.297 1.7-.409 4.399-1.814 6.796-1.204 2.197-2.109 4.195-1.809 4.396.2.3 1.799.604 3.398.807 2.5.205 3.1-.093 3.305-1.993.304-2 .004-2.3-1.697-1.704-2.101.596-2.101.596-.192-3.6 1.305-2.697 1.61-4.997 1.113-6.298-.895-2.501-3.094-3.106-4.797-1.41M464.51 880.17c-.608 4.098.286 6.8 2.286 6.804 1.4.003 1.899.704 1.895 2.504-.005 2.7-.907 3.198-2.703 1.395-.798-.802-1.298-.703-1.8.096-.401.699-.004 1.9.794 2.701 3.393 3.408 8.206-2.582 5.715-7.188-.697-1.401-1.894-2.504-2.694-2.505-2.1-.005-1.495-2.703.707-3.299 3.001-.793 2.405-2.695-.895-2.702-2.3-.004-3 .494-3.304 2.193M432.199 885.902c-.904 1.498 2.095 2.304 5.196 1.51 2.101-.495 2.402-.794 1.204-1.597-1.898-1.204-5.598-1.112-6.4.087M440.566 901.62c-.001.4-.025 11.9.046 25.6l.048 24.7-4.706 2.79c-4.805 2.69-7.81 5.383-14.526 12.77-2.005 2.195-5.811 5.087-8.514 6.382-2.703 1.394-5.506 2.988-6.207 3.687-.602.598-2.003 1.395-3.004 1.793-2.602.795-4.61 4.89-3.817 7.792 1.19 5.103 12.882 8.727 18.388 5.839.902-.598 5.506-2.889 10.211-5.179 10.911-5.277 13.515-7.171 15.023-10.768.904-2.198 3.609-4.293 10.317-8.079 8.41-4.682 9.51-5.08 12.308-4.074s3.899.708 11.508-3.476c9.31-4.98 11.915-7.375 11.923-10.975.012-5.9-5.879-10.412-13.379-10.428-4.6-.01-8.503 1.682-18.917 8.26-4.205 2.592-5.106 2.79-7.304 1.785-1.398-.603-3.598-.807-4.999-.51-2.4.595-2.4.595-2.35-23.405.03-15-.35-24.301-.949-24.702-.5-.301-1-.302-1.1.197m41.512 41.786c1.899.804 3.995 2.709 4.692 4.11.995 2.202.894 2.902-.81 4.499-2.405 2.295-14.919 8.968-17.019 8.964-1.7-.004-14.284-7.23-14.382-8.23 0-.3 3.906-2.892 8.812-5.682 9.41-5.38 12.812-6.073 18.707-3.66m-27.425 12.143c3.196 2.007 5.891 4.112 5.89 4.512 0 .5-3.605 2.693-8.01 4.884-6.106 2.987-8.71 5.081-10.917 8.277-4.514 6.49-6.217 7.787-16.327 12.866-10.311 5.178-14.613 5.869-20.407 3.157-2.397-1.205-3.395-2.307-3.392-3.907.004-1.9 1.908-3.496 9.817-8.18 5.307-3.089 10.414-6.678 11.317-7.776 6.115-7.487 5.615-7.088 7.611-5.384 2.395 2.205 10.387 6.222 10.988 5.623.2-.3-2.096-2.005-5.292-3.911-5.693-3.312-7.788-5.717-5.187-5.911.7.001 4.004-1.792 7.308-3.885s7.108-3.885 8.308-3.882c1.3-.098 5.097 1.51 8.293 3.517"/><path d="M471.174 945.284c-4.707 3.39 1.081 9.202 7.185 7.115 3.203-1.094 4.412-5.691 1.615-6.797-1.2-.503-1.5-.203-1.002.998.497 1.2.196 1.5-1.003.998-.799-.302-2.298-.605-3.198-.707-1.1-.002-1.2-.202-.399-.6.6-.2 1.202-.898 1.203-1.398.003-1.3-2.298-1.105-4.4.39m5.691 4.411c-.7.199-1.9.196-2.5-.005-.7-.301-.199-.5 1.201-.497s1.9.204 1.3.502M440.348 957.719c-3.604 2.192-3.711 5.492-.215 7.1 2.198 1.004 3.299.806 7.002-.986 4.505-2.09 5.51-4.388 3.214-6.693-1.696-1.704-6.797-1.314-10 .579m4.199.709c0 .3-.201.5-.501.499-.3 0-.5-.201-.5-.501.001-.3.202-.5.502-.5.3.001.5.202.499.502m1.992 3.504c-.8.498-2.402.995-3.502.993-1.7-.004-1.7-.204-.498-1.001.801-.499 2.402-.995 3.502-.993 1.7.004 1.7.204.498 1.001M422.618 972.282c2.296 1.905 12.984 7.327 12.686 6.426-.497-1.4-9.586-6.72-11.686-6.824-.8-.002-1.2.197-1 .398M413.5 980.463c0 .4.798 1.302 1.796 2.104 1.497 1.303 1.497 1.303-.801.698-1.4-.403-2.798-1.106-3.097-1.607-.797-1.301-4.902.79-4.905 2.49.092 3.5 4.788 5.51 9.292 3.82 3.803-1.492 4.508-3.99 1.813-6.297-2.296-1.804-4.095-2.308-4.098-1.208m.69 5.001c-.3.3-1.2.398-1.9.096-.8-.301-.499-.6.601-.598 1.1-.098 1.7.203 1.299.502"/></svg>