<svg xmlns="http://www.w3.org/2000/svg" viewBox="0 0 992 1402" fill="currentColor"><path d="M621 267.1c-1.9.4-7.3 1.5-11.9 2.4-10.4 2.1-31 8.8-42.6 13.9-1.6.8-5.9 2.6-9.5 4.2-10.2 4.5-36.6 18-41.3 21.2-2.3 1.6-8.7 5.4-14.2 8.6-5.5 3.1-14.7 8.8-20.5 12.6-11.4 7.6-12.4 7.8-20 4.1-8.1-3.9-13.6-4.2-20.4-1.2-5.7 2.7-12.8 8-12.1 9.1.3.5 0 .7-.7.5-.8-.3-4.8 2.4-9 6s-7.9 6.5-8.2 6.5-1.7-2.1-3-4.8c-1.3-2.6-3.3-5.6-4.5-6.6-1.8-1.7-2.4-1.8-4.6-.6-1.3.7-2.9 2.6-3.5 4.3-1.4 4.2-1.3 12.2.4 16.2 1.4 3.4 1.4 3.4-13.7 18.5-8.8 8.7-17.1 16-19.7 17.4-7.9 4-40.3 24.9-47 30.3-.8.6-6.2 4.7-12 9-5.8 4.2-10.7 8-11 8.3s-3.6 3.1-7.5 6.2c-22.6 18.5-42.8 40.4-49.3 53.8-2.3 4.7-5.2 18.5-5.2 24.8 0 9.7 3.5 22.3 9.7 35 3 6.2 6 11.8 6.7 12.5.6.6 3.2 4.1 5.8 7.7 5.4 7.7 11.3 14.2 10.4 11.7-.3-.9-.1-1.7.4-1.7.6 0-.8-1.6-3-3.6-6.4-5.8-19-23.8-17.6-25.1.6-.6 2.5 1.2 4.7 4.5.9 1.2 3.2 3.9 5 6 1.9 2 5.2 5.8 7.3 8.5 2.1 2.6 4.1 4.5 4.4 4.2s-.3-1.5-1.4-2.6c-1.9-2.2-1.9-2.2.6-1s2.5 1.2 0-.9c-1.4-1.2-3.9-3.4-5.5-4.8-1.7-1.5-5.3-5.3-8-8.6-2.8-3.2-5.9-6.2-7.1-6.6-1.3-.5-2.9-3-4.3-6.7-1.3-3.2-2.7-6.7-3.1-7.8-1.6-3.8-3-12.6-2.9-18.8v-6.2l2.3 6.5c3.1 8.9 5.3 13.6 9.7 20 5.2 7.7 20.3 22 23.2 22 .5 0-1.2-1.6-3.9-3.7-6.3-4.7-14.7-13.4-19-19.8-3.7-5.5-4.4-7.7-1.6-5.2 3.6 3.3 9.5 1.1 9.5-3.5 0-1.7-1.7-4.2-4.9-7.5-2.7-2.8-6.2-7-7.8-9.4s-3.7-5.6-4.8-7.1c-1.7-2.5-1.7-3-.3-7.3 2.2-6.2 8.6-16.9 12.5-20.5.3-.3 3-3.4 6-7 5.4-6.3 15.8-17 21.6-22.1 5.1-4.4 27.7-22.4 31.4-24.9 1.9-1.3 3.7-2.7 4-3.1.8-.9 38.5-26 46.4-30.8 3.8-2.3 7.3-4 7.8-3.9.6.2 4.6-3.4 9.1-7.9 4.4-4.6 8.3-8.1 8.6-7.8.7.8-16.1 17.5-17 16.9-.4-.2-1 .9-1.4 2.6-.7 3.4-5 7-14.5 12.2-13.2 7.3-30.2 19-58 40-21.3 16-37.2 30.2-47.2 42l-4 4.8 3.3 2.7c9.5 8.1 39.4 29 45.8 32 .7.3 5.2 2.9 10 5.6 12.5 7.2 47.6 24.7 49.7 24.7.2 0 .1-.6-.2-1.3-.5-1.3 7.9-9.8 22.6-22.9 9.1-8.2 10.8-8.4 19.7-2.8 3.5 2.2 9.3 5.9 12.9 8.2l6.6 4.2-4.3 3.9c-2.4 2.2-8.9 8-14.3 13.1-6.4 5.9-10.7 9.1-12 9-1.2-.1-8.1-2.7-15.5-5.8s-13.6-5.4-13.9-5.1c-.3.2.8.9 2.4 1.5s4.2 1.8 5.8 2.6 3.3 1.4 3.8 1.4c.4 0 3 1 5.6 2.1 2.6 1.2 6.3 2.8 8.2 3.6 7.5 3.2 11.6 5.6 14.9 8.6 3.4 3.3 11.1 14.1 11.1 15.7 0 1-1.3 1.4-10 3-3.6.6-8.4 1.6-10.7 2.1-8.4 1.8-26.3 1.1-37.9-1.6-6-1.4-12.4-2.8-14.2-3.2-1.8-.3-3.5-1-3.8-1.4-.3-.5-1.5-.9-2.7-.9-3.6 0-.6 1.7 6.3 3.5 17.8 4.7 23.3 5.5 35.9 5.5 17.9 0 35.5-3.4 58.6-11.4 5.5-1.9 10.1-3.3 10.4-3.1.2.2-1.4 3.5-3.5 7.2-4.4 7.8-5.1 9.3-3.6 7.8.6-.6 2.5-3.7 4.2-7 8.1-15.1 18-30.5 23.5-36.4 5.9-6.3 19.4-16.1 22.1-16.1.8 0 3.3 1.2 5.6 2.7l4.2 2.8-6.5.5c-9.3.7-16.9 4.9-26.1 14.3-4.8 4.9-12.3 15.5-11.6 16.3.3.2 1.9-1.9 3.7-4.6 3.1-4.8 12.2-14.6 16.8-18.2 9.7-7.5 22.9-8.7 29.2-2.7 3.5 3.3 6.1 8.8 6.1 12.8 0 2.3-.2 2.1-2.1-1.7-3.2-6.3-7.1-8.7-14.4-8.6-12.3.1-25 10.3-34.5 27.7-1.8 3.2-3 6.1-2.7 6.3.2.3 1.7-1.9 3.2-4.8 5.5-10.5 11.6-17.5 21-23.9 4.6-3.1 5.6-3.4 12.7-3.4 6.7 0 8 .3 10.2 2.4 3.9 3.7 6.1 10.5 6 18.6-.3 15.6-12.2 37.5-25 46-3 2-5.4 4-5.4 4.5 0 1.3-6.9 4.7-11.3 5.5-6.6 1.3-12.4-.2-16.3-4.2-2.2-2.2-3.2-2.8-2.5-1.4.7 1.1.9 2.1.6 2.1-1.4 0-7.5-3.7-12.8-7.8-5-3.8-5.8-4.8-5.4-7 .5-2.6.5-2.6-1.4-.1-2 2.6-2.5 4.4-1 3.4.5-.3 1.5.1 2.3.8 8.3 7.9 21.9 14.7 30.9 15.4 5.8.5 7.2.2 13-2.6 6.2-3.1 15-10.6 21.6-18.7 5.8-7 11.9-19.8 13.8-29.2.5-2.6 1.1-3.2 3.3-3.2 3.4-.1 6-1.5 10.9-6 5-4.7 12-9.8 18.3-13.5 2.8-1.7 8.4-5 12.4-7.5 16-9.8 51.7-31 52.2-31 .2 0 5.2-2.9 11.1-6.4 5.9-3.4 14.5-8.5 19.1-11.1 4.5-2.7 8.2-5.2 8.2-5.7 0-1.3-.5-1-6.9 3.2-3.3 2.2-6.2 4-6.5 4s-5.4 2.9-11.3 6.4c-5.9 3.4-16.4 9.6-23.3 13.6s-18.8 11.1-26.5 15.8c-7.7 4.6-17.8 10.7-22.5 13.4-11.9 6.9-15.6 9.5-22.8 15.6-3.5 3-6.5 5.2-6.7 5-.3-.2 0-1.9.5-3.8s.8-3.6.5-3.8c-.8-.8-2.6 5-2.3 7.2.2 1.7-.3 2.2-2.9 2.4-3.8.4-4-.3-1.7-6.8 2.2-6.2 2.2-19.3 0-24.5-.9-2.2-3.1-5.5-4.9-7.4-2.1-2.3-2.6-3.2-1.4-2.8 1 .4 2.2.7 2.7.7 1.9 0 7.2 5.5 8.6 8.9.9 2 1.8 6.9 2.1 10.8.3 4 .9 7.3 1.2 7.3s2.2-1.4 4.1-3.1c5.9-5.2 36.4-24.9 38.5-24.9.2 0 2.4-1.4 4.8-3 2.5-1.7 4.8-3 5.1-3 .4 0 1.9-.8 3.4-1.9 1.5-1 7-4.3 12.2-7.3 16.7-9.7 34.1-19.8 51.4-30.1 16.9-10 16.9-10 19.7-16.4 3.5-7.6 6.3-18.8 5.4-22-.5-2 .2-2.6 6.7-5.6 8.6-4 22.8-9.1 23.4-8.4.2.2-.9 4.8-2.6 10.3-3.4 11-10.8 27-13.6 29.5-1.1.9-6.4 3.9-11.9 6.8-10.4 5.5-12.8 7.1-12.1 7.8.2.3 2.6-.8 5.3-2.3 2.6-1.5 8.1-4.4 12.1-6.5s8.1-4.8 9.1-6c1.8-2.3 1.8-2.3 5.7.1 11.4 6.7 16.6 8.5 24.4 8.4 8.1-.2 15.8-4.3 25-13.4 14.6-14.3 22.6-29.9 23.7-46.3.5-7.2.9-8.1 3.9-11.2 6.3-6.6 14.6-21.3 17.5-31 .9-3.2 1.4-9.6 1.4-18 0-13.8-.4-15-6.6-21.8-.9-1-1.9-3.1-2.2-4.5-1.2-6.4-3.5-13.2-6.1-17.7-3-5-20-22.7-30.1-31.2-18.9-15.8-47.8-30.3-68.5-34.2-3-.6-7.9-1.5-10.8-2.1-6.1-1.2-22.1-1.1-27.2.1m3.1 3.5c-8.4 3.2-26.5 11.2-31.6 14-25.5 13.7-28.8 15.1-37 15.8-11 .8-33.5 5.9-32.2 7.3.3.2 3.4-.4 6.9-1.5 9.7-3 22.6-4.6 32.4-3.9 6.5.4 9.1.2 9.9-.8 1.8-2.3 12.6-7.5 15.4-7.5 2.3 0 18.5 4.7 25.6 7.5 1.3.5 1.7.5 1-.2-1.3-1.3-17.5-6.8-24.7-8.4-3.2-.7-5.8-1.6-5.8-2 0-1.1 23.5-12.4 37.4-18.1 10.2-4.1 13-4.8 18.7-4.8 14.9 0 39.2 7 56.8 16.3 15.7 8.3 26.8 16.6 42.4 31.7 8.8 8.5 9.6 9.6 8.1 10.7-1 .7-2.3 1.3-3 1.3-1.7 0-16.7 7.1-16.1 7.6.2.2 3.8-1.2 7.9-3.1 13.7-6.5 17.6-5.8 17.9 3.5.2 4.4.2 4.4.8 1 .6-3.7 1-3.5 3.9 2 1.6 3 1.8 13.4.3 17.3-1.4 3.5-1.4 9.7-.1 11.7.7 1.1 1-.6 1.1-5.5.1-3.9.5-8.4.9-10 .7-3 .7-3 1.4-.5 1.2 4.2.3 18.5-1.1 18.2-.7-.1-1.3.2-1.3.8 0 .5.7 1 1.5 1 2.7 0-.7 11-6.7 21.3-1.5 2.6-2.8 5.7-2.8 6.7 0 2.5-.4 2.5-4-.2-12.8-9.4-45.4 13.3-58.7 40.9-3.1 6.3-4 7.4-7.2 8.4-5.7 1.7-18.3 6.6-21.9 8.4-4 2-4.6 1.7-3.2-1.9 1.3-3.6 1.3-18.8-.1-24-1.9-6.9-5.1-12.6-9.1-16-2.1-1.8-3.8-3.7-3.8-4.3 0-.5 2.8-3.2 6.3-6 15.8-12.9 23.9-23.8 24-32.4.1-4.5.1-4.5 11.6-12.1 12.5-8.1 15.1-9.7 20.5-12.8 2-1.1 5.3-2.9 7.3-4.1 2-1.1 5.9-3.2 8.5-4.6 2.7-1.4 4.7-2.8 4.4-3-.6-.6-12.6 5.9-26.6 14.3l-10.4 6.3-9.6-9.2c-19.7-19.1-29.3-26.7-46.3-37.1-4.4-2.6-8.1-4.5-8.4-4.2-.3.2 1 1.2 2.9 2.2 6.3 3.2 24.3 15.7 31.3 21.7 10 8.7 24.5 23 24.5 24.2 0 .6-2.8 2.8-6.2 4.8l-6.1 3.6-5.6-6c-4.7-5.2-14.9-14.7-24.3-22.6-4.1-3.3-19.8-13.8-24.5-16.2-6.1-3.1-6.7-2.6-.8.7 15.2 8.5 30.9 20.7 45.1 35.4 9.2 9.4 11.4 13 11.4 18.5 0 8.4-5.9 16.6-21.5 29.7-4.4 3.7-8.9 7.6-10 8.5-1.1 1-4.5 3.5-7.5 5.7-3 2.1-5.7 4.1-6 4.5-.3.3-4.5 3.3-9.5 6.7-4.9 3.4-11.6 8-14.8 10.3-3.2 2.2-6.5 3.9-7.4 3.7-1.1-.2-.2-1.2 2.8-3.3 2.4-1.7 4.9-3.4 5.4-3.8.6-.5 4.8-3.5 9.5-6.7 9.7-6.8 11.3-7.9 18.8-13.8 3-2.3 6-4.2 6.8-4.2.7 0 1.5-.8 1.9-1.8.3-.9 2.7-3.3 5.2-5.2 7.7-5.7 18.9-17.2 21.2-21.7 3-5.9 2.8-11.9-.6-17.1-3.6-5.5-4.3-4.5-.8 1.4 2.3 3.8 2.6 5.3 2.1 8.8-1.3 7.8-7.4 15.3-22.6 27.6-3 2.5-5.7 4.7-6 5.1-.4.4-8.9 6.8-23.7 17.6-1.7 1.2-7.7 5.4-13.2 9.3-10.2 7-10.2 7-15.9 6.4-4.7-.5-6.6-.2-10.2 1.5-2.4 1.1-4.5 2.1-4.7 2.1s-.3-1.6-.3-3.5-.5-6.5-1-10.2c-2.1-13.9-4.2-29.9-4.5-33.7-.4-5.7-4.2-8.8-30.5-24.6-14.1-8.5-54.7-29.7-61.1-31.9-1.6-.5-2.9-1.4-2.9-2 0-2.2 38.1-24.9 47-28 2.4-.8 3.1-1.4 2.2-2-1.2-.7 24.6-14.2 40.8-21.4 22.5-9.9 51.8-18.4 64.5-18.5 4-.1 4-.1-2.4 2.4m-41.7 22.3c.9 1.4-12.3 8.3-15.3 7.9-2.2-.3-1.3-1 5.4-4.5 8.8-4.6 9.1-4.7 9.9-3.4m-123.4 42c14.4 5.5 48.6 22.1 61.8 29.9 2.9 1.8 5.5 3.2 5.7 3.2 2 0 35.3 21.2 37.3 23.7 2 2.8 1.4 5.6-2.4 9.5-3.9 4.2-5.1 6.6-10.6 22.8-3.7 10.7-8.9 23.7-14.3 35.5-1.2 2.7-3.7 8.1-5.4 12-4.3 9.7-4.4 9.8-7.6 10.7-3.5.9-4.3.3-2.9-2 7.2-11.9 17.7-37 26.9-64.7 4-11.9 4.2-17 .9-20.7-1.8-1.9-18.7-12.8-20-12.8-.3 0-1.8-.8-3.2-1.9-4.2-2.9-10.4-6.2-10.9-5.8-.4.5-.2.7 18.4 11.6 12.8 7.5 17.3 11.6 17.3 15.7 0 3.7-10.3 34.1-15.5 45.9-.7 1.6-2.1 5-3.1 7.5-3.3 8.4-12.3 25.9-14.4 28-1.6 1.6-3.3 2-8.7 2-3.8-.1-8.6-.5-10.8-.9-2.2-.5-7.8-1.6-12.5-2.6-13.9-2.7-36.9-9.1-44.5-12.4-1.1-.5-5.1-2.1-9-3.6-3.8-1.6-11.9-5.3-18-8.3-24.2-12.1-36-22.7-44.7-40.3-6-12.1-7.5-9.2 15.9-32.6 11.5-11.4 23.3-22.9 26.3-25.6 3-2.6 4.5-4.2 3.3-3.5-1.3.7-2.3 1.6-2.3 1.9 0 .4-.8 1-1.7 1.3-1 .3-.3-.7 1.6-2.4 1.9-1.6 3.9-2.7 4.4-2.3.5.3 1.2.1 1.6-.4.3-.5 2.3-2.2 4.3-3.7 2.1-1.6 3.5-3.2 3.2-3.7s-.2-.8.3-.7c.4.1 2.8-.9 5.3-2.4 7.4-4.3 10-4.4 18.8-.8 10.1 4.3 35.7 17.1 50.6 25.4 6.5 3.7 12.1 6.5 12.3 6.2.3-.2-1-1.2-2.8-2.2-3.9-2-7.6-4.1-14.4-8.1-2.7-1.6-12.9-6.8-22.5-11.5-23.9-11.7-28.9-13.8-32.6-13.8-1.4 0-4.4.9-6.7 2l-4.2 2.1 3.5-3.1c3.8-3.3 12-6.9 16-6.9 1.4-.1 5.9 1.2 10 2.8m-55.2 11.4c1.2 1.2 2.8 4.1 3.6 6.4 1.3 3.7 1.3 4.3 0 5.4-1.2 1-1.2 1.4-.2 2.1s.9.8-.2.6c-1.6-.3-7 3.4-7 4.8 0 .4 1.2-.3 2.8-1.6 1.5-1.3-2.4 2.7-8.6 8.9-6.3 6.2-11.6 11.1-11.8 10.8-.4-.4 14.4-15.3 16.7-16.8 1.1-.7 1.1-.9-.3-.9-1.2 0-1.9-1.4-2.7-5-1.5-6.9-1.4-9.6.5-13.6s4.2-4.3 7.2-1.1m18.7 1.7c-1 1.1-2.1 1.8-2.3 1.5-.3-.3.3-1.2 1.4-2 2.7-2 3-1.8.9.5m264.9 8.9c.8 1.3-12.3 10.3-14 9.7-2.4-.9-1.6-2 4.9-6.3 6.4-4.3 8.2-5 9.1-3.4m80.3 3.8c5.2 7.7 5.5 12.3 1.2 20.1-4.5 8.3-14.2 20.2-15.5 18.9-.5-.4 3.3-8.1 5.5-11.2 2.6-3.5 5.2-14.1 5.4-21.9.1-4.7.5-8.6.9-8.6s1.5 1.2 2.5 2.7m3.3 28.2c-2 12.6-8.1 25.8-16.2 35.1-3 3.5-3 3.5-2.4.5 1.6-6.8 1.8-13.8.7-17.3-1.2-3.7-1.2-3.7 5.2-10.3 3.6-3.6 8-9.2 9.8-12.4s3.5-5.3 3.7-4.6-.1 4.8-.8 9m-22.4 13.5c3.3 3.3 3.4 3.6 3.4 11.4 0 4.3-.5 9.4-1.1 11.2-1.2 3.3-1.2 3.3-3-1.6-2.2-5.9-7.2-11.2-15-16.1-3.3-2-5.9-3.9-5.9-4.3 0-1.2 9.3-3.9 13.9-3.9 3.6-.1 4.8.4 7.7 3.3m-182.2 2.3c2.7 20.7 3.5 28.3 4.1 38.8.4 6.6 1.2 12.5 1.7 13.2.6.8.1 1.7-1.9 2.9-1.5.9-4.4 2.7-6.3 3.9-3.8 2.3-27.1 13.8-31.3 15.4-3.6 1.4-3.5.1.4-8.6 2.9-6.4 7.9-18 13.6-31.8 1.3-3.3 3.3-8.5 4.3-11.5 4.5-13.4 6.3-17.8 9.2-22.3 1.6-2.6 3.6-4.7 4.3-4.7s1.5 1.9 1.9 4.7m163.9 2.5 4.2 2.3-5.5.5c-3 .3-8 1.7-11.2 3.3-5.7 2.8-18.9 14.2-21 18.1-.6 1.1 2.4-1.4 6.6-5.6 10.3-10.2 17.2-13.8 27-13.8 6.7 0 7.3.2 10.8 3.4 3.7 3.4 7.2 10 6.4 12-.2.6-.7.2-1.2-.9-2.2-5.4-7.9-8.7-14.8-8.6-17.7.2-37.7 22.5-42.6 47.5-1.7 8.4.3 19.1 4.3 23.1 5.3 5.2 11.7 6.7 18 4 4.5-1.9 5.3-1.9 3.8-.1-.6.7-3.6 2.1-6.7 3.1-9.3 2.9-18.5.8-22.1-5-3.3-5.5-4.1-8.9-4.2-17.6-.1-11.7 3.8-24 11.1-34.7 1.6-2.3 2.7-4.6 2.3-5.1-1.3-2.2 12.6-17.5 22.2-24.5 5.7-4.2 7-4.3 12.6-1.4M366.9 416c7.1 16.3 23.6 31.4 46.8 42.8 23.7 11.6 46.4 19.1 75.6 24.9 8.3 1.7 12.7 3 12.7 3.8 0 .7-1.5 2.5-3.2 3.9-1.8 1.5-3.8 3.1-4.5 3.6-.6.5-8.5 5.7-17.5 11.6-32.7 21.4-46.9 31.3-60.8 42.6-1.9 1.5-4.1 2.8-4.8 2.8s-3.9-1.7-7-3.9c-9.4-6.3-21-13.1-22.4-13.1-1.9 0-6.7 3.2-11.8 8-17.9 16.7-24.5 22.5-25.4 22.2-1.9-.6-32.8-16-39.1-19.5-12.4-7-14.3-8.1-31.5-18.8-8.7-5.4-8.6-5.3-4.5-10.2 1.9-2.3 8.7-9.2 15.1-15.2 8.4-8 11.4-11.4 11.2-12.9-.3-2.4-4.4-4.7-16.8-9.6-4.7-1.8-8.7-3.5-8.9-3.6-.8-.7 2.4-3.5 14.7-13.1 25.4-19.8 49.6-36.5 67.6-46.6 4.7-2.7 9.1-5.6 9.8-6.4 1.1-1.3 1.3-1.2 2.2.8.5 1.3 1.6 4 2.5 5.9m280.3.9c6.2 5.5 8.8 13.4 8.8 27 0 14.1-.5 15.9-5.4 18.7-2.3 1.4-10.5 6.3-18.4 10.9-7.8 4.7-14.5 8.5-14.8 8.5s-2.5 1.3-4.9 3c-2.4 1.6-4.5 3-4.8 3-.2 0-16.5 9.7-36.3 21.6l-35.9 21.5-1.1-11.3c-1.4-13.3-2.1-16.8-4.6-22.6-1-2.4-1.8-6.7-1.8-9.6 0-5.3 0-5.3 8.8-8.9 4.8-2 14-6.6 20.5-10.2 13.5-7.6 15.4-8.4 14.2-6.6-1.8 3 4.2 4 8.9 1.6 3.1-1.7 6-2 5.2-.6-.3.5-4.3 3.1-8.8 5.9-4.6 2.7-11.2 6.7-14.8 8.9-6.4 3.9-13 7.6-24.2 13.7-3.2 1.7-5.8 3.5-5.8 3.9 0 .7 6-2.3 18.5-9.3 4.9-2.7 28.5-16.9 35-21 3.3-2.1 7.6-4.1 9.5-4.5 5.1-1.1 8.9-3.3 10.1-5.8.5-1.2 4.2-4.3 8.2-6.8 27.6-17.8 35.7-23.2 35.2-23.7-.3-.3-2.9 1-5.7 3-11.4 7.5-28.5 18.6-32.4 20.8-4.2 2.4-4.2 2.4-7.8-1.5-2-2.1-3.5-3.9-3.4-4 .2-.1 3.9-2.6 8.3-5.5 7.1-4.8 14.6-10.1 22.5-16 1.4-1 4.3-3.2 6.5-4.9 2.2-1.6 4.5-3 5.1-3 .6-.1 3.1 1.7 5.6 3.8m93.5 4.9c7.1 5 9.2 17 5.2 29.3-7.3 22.7-25.3 40.9-40.3 40.9-10.3 0-15.6-6.8-15.6-20.2 0-13.9 6.7-28.6 18.4-40.4 9.2-9.1 16-12.7 23.7-12.2 3.6.3 6.6 1.2 8.6 2.6m8.3 7.7c0 .3-.2.5-.5.5s-.5-.2-.5-.5.2-.5.5-.5.5.2.5.5m-150.8 15.2c6.6 3.8 8.3 9.8 3.5 12-4.4 2-9.9 3.5-15 3.9-6.7.7-11.4-1.7-13.4-6.9-1.9-4.7-1-8.2 2.5-10.2 3.7-2.1 18.1-1.4 22.4 1.2M579.1 461c1.8 0 .9 1.8-1.2 2.3-3.2.9-5.2-.2-3.8-2 .7-.7 1.9-1.1 2.6-.8.8.3 1.9.5 2.4.5m73.9 9.5c-.7 3.2-2.6 9.2-4.4 13.3-3.1 7.6-3.1 7.6-14.1 14.2-6.1 3.7-16.6 10-23.5 14s-15.8 9.3-19.9 11.8c-4.1 2.4-8.9 5.3-10.7 6.3-7.9 4.5-10.4 5.9-18.9 10.9-4.9 2.9-10.1 6-11.5 7-1.4.9-4.5 2.7-7 4.1-2.5 1.3-4.7 2.6-5 2.9-1.4 1.6-8 4.8-8 3.9 0-.5 1-4 2.1-7.6 1.2-3.6 2.2-9.2 2.3-12.4.1-5.5.3-6 3.2-7.6 4.1-2.4 12.9-7.7 45.4-27.1 15.1-9.1 29.4-17.5 31.7-18.8 2.2-1.3 11.7-6.9 20.9-12.4 9.8-5.8 17.2-9.6 17.7-9.1s.4 3.3-.3 6.6m28.8 13.1c.5 1.6 1.7 4.5 2.6 6.2.9 1.8 1.4 3.2 1.1 3.2-1.1 0-6.9-3.2-8.3-4.6-.7-.7-2-1.7-2.8-2.2-1.2-.7-.9-1.9 1.8-7.4 3.3-6.7 3.3-6.7 3.9-2.5.4 2.3 1.1 5.6 1.7 7.3m-411.2-6.7c.5.5 3.2 1.6 5.9 2.5 6.6 2.2 17.8 7.8 18.2 9.1.2.6-6.6 7.9-15.1 16.4-15.4 15.3-15.4 15.3-18.8 13-7.3-5-18.7-14.4-18.8-15.5 0-1.4 25-26.4 26.4-26.4.7 0 1.6.4 2.2.9m258.9 23.6c2.1 5.7 2.7 9.4 3.2 19.6l.6 12.5-5.1 2.7c-2.8 1.5-8.3 5-12.1 7.8-7 5.1-7 5.1-9.8 3.2-3.8-2.6-8-4.3-8.7-3.6-.3.3 1.7 1.6 4.4 2.9 5.2 2.4 5.8 3.2 3.9 5.1-.9.9-2.1.5-5-1.4-12.3-8.1-36.5 3.3-53.6 25.4-1.8 2.3-3.3 4.4-3.3 4.7 0 .2-1.8 3.6-4 7.4-3 5.2-4.9 7.3-7.3 8.2-1.7.7-4.1 1.6-5.2 2-3 1.3-21.3 7-22.3 7-.5 0-3.4-3.6-6.6-8-3.3-4.7-7.6-9.3-10.4-11.1-2.6-1.8-4.9-3.4-5.1-3.6-1-.8 16.7-17.4 33.4-31.2 9.2-7.6 42.3-30.5 65-44.9 2.8-1.7 5.5-3.5 6-4 .6-.4 3.8-2.7 7.3-5.1 3.5-2.3 6.8-5.3 7.4-6.6.9-1.9 2.1-2.4 7.3-3 3.4-.3 8.4-1.2 11.1-1.9 4.9-1.2 4.9-1.2 5.6 3.8.4 2.8 1.9 8.2 3.3 12.1m-293.2 23.7c1.4 2.4 5.5 7.6 9.1 11.6 5.6 6.2 6.5 7.6 5.6 9.2-1.3 2.4-6.2 2.7-8 .5-.9-1.1-1.5-1.3-2-.5s-.9.6-1.3-.5c-.4-.9-.3-1.3.3-1 1.7 1.1 1.1-.9-1.5-4.7-1.4-2-2.5-4.3-2.5-5 0-.8-.4-1.8-.8-2.4-.9-1-3.2-8.4-3.2-10.3 0-2.3 1.9-1 4.3 3.1m296.5 17c-.2 3.7-1.6 9.3-3.2 13.4-2.6 6.7-3.3 7.5-10.2 12.5-4.1 3-7.4 5.7-7.4 6.1 0 .5-.4.8-1 .8-.5 0-1-2.5-1-5.5 0-3.1-.9-7.8-2-10.7-2-5.3-2-5.3.7-7.6 5-4.2 21.8-15.2 23.2-15.2 1 0 1.2 1.4.9 6.2m-39.3 8.7c1.8 1 4.1 3.8 5.7 7.1 2.3 4.7 2.7 6.8 2.8 14 0 4.7-.5 9.2-1 10-.7 1.1-1 .6-1-2-.1-9-5.9-17.9-16.2-24.8-2.1-1.3-3.8-2.8-3.8-3.2 0-.9 5.7-2.8 8.5-2.8 1.1 0 3.4.7 5 1.7"/><path d="M573.5 303c-.4.6.6 1 2.2 1 2.2 0 2.5-.2 1.3-1-1.9-1.2-2.7-1.2-3.5 0M616 302.5c0 .5 6.8 3.5 7.9 3.5.8-.1-6.1-3.9-7.1-4-.5 0-.8.2-.8.5M585 306.1c3.6 1.1 7.4 2.4 8.5 2.8 1.1.5 4.7 1.9 8 3.2 3.3 1.2 6.4 2.6 7 3.1 1.2 1.1 2.8 1 2.1-.1-1.2-1.8-27.1-11.2-30.6-11-.8 0 1.4 1 5 2M751.7 344.8c-2.9 6.7-9.4 12.3-30.2 26.3-18.5 12.5-44.3 30.6-45.5 31.9-.3.3-5.2 3.9-11 8-5.8 4-10.7 7.5-10.9 7.7s-.2.6.1.9c.5.5 4.5-2.3 23.8-16.6 14.2-10.5 33.6-24.1 52.5-36.7 6.6-4.4 13.4-9.4 15.2-11.1 3.6-3.6 8.6-11.7 8.1-13.3-.2-.6-1.1.7-2.1 2.9"/><path d="M710.1 350.6c-2.4 3.1-2.5 3.5-1 6.8 1.3 2.7 8.4 6.6 12.1 6.6 1.3 0 3.8-.9 5.6-2 7.6-4.7.9-14-10.2-14-3.6 0-4.8.5-6.5 2.6m13.9.2c7.4 4 5.7 11.2-2.7 11.2-7.5 0-11.3-2.9-11.3-8.6 0-4.4 7.9-5.8 14-2.6M740 393.1c2.5.5 5.7 1.8 7.2 2.9 3.2 2.4 4.5 2.6 2.7.4-2.1-2.6-6.6-4.4-10.6-4.3-3.8.1-3.8.1.7 1M475 399c-1.7 1.3-2.1 2.2-1.4 2.7s1.4 1.7 1.6 2.8c.2 1.2 1 1.8 1.9 1.6.8-.2 2.6-.6 4.2-.9 3-.5 3.6-1.9 1.1-2.9-.8-.3-2-1.6-2.5-2.9-1-2.9-1.7-2.9-4.9-.4M763 395.8c-5.3 5.8-7.8 10.8-6.3 12.3 1.2 1.2 2.2.3 7.7-6.4 3.7-4.5 5.4-9.1 3.8-10.1-.5-.3-2.9 1.6-5.2 4.2m5-2.1c0 1.7-8.2 12.3-9.4 12.3-1.6 0-.1-3.2 3.7-7.7 4-4.9 5.7-6.3 5.7-4.6M640.4 436.5c-7.5 4.5-9.7 7-8.4 9.6.6 1 1.5 1.9 2.1 1.9 2.1 0 15.9-8.6 16.5-10.3.6-2-1.1-4.7-3-4.7-.7 0-3.9 1.6-7.2 3.5m8.4.2c-.4 2-11.3 9.1-14 9.2-1.1.1-1.8-.6-1.8-1.7s2.3-3.1 6.3-5.4c6.9-4.1 10-4.8 9.5-2.1M720.4 428.4c-2.8 1.3-6.8 3.9-8.9 5.7-4.3 3.8-13.5 17.3-13.5 19.8.1.9.9 0 1.9-2 7.2-14.5 18.2-23.9 27.9-23.9 17.1 0 16.1 26-1.8 45.4-5.7 6.1-13.5 10.6-18.6 10.6-3.7 0-8.2-3.5-10-7.8-1.5-3.7-1.5-12.3.1-18.2.6-2.4.6-2.4-.7-.5-2.1 3.3-1.7 18.4.6 21.8 6.1 9 18.9 6.8 29.6-5.1 15.7-17.5 19.1-39.3 7-46.1-4.8-2.7-7.3-2.6-13.6.3M638.5 480c-.3.5-1.9.7-3.5.3-3.5-.6-3.9.6-1 3.2 1.1 1 2 2.9 2 4.2 0 3.1 2.2 2.9 4.7-.5 1.4-1.9 1.9-3.7 1.6-5.5-.5-2.7-2.6-3.6-3.8-1.7M510 506.9c-4.4 2.7-13.2 7.8-26 15.1-23.5 13.4-67.5 40.7-75.5 46.8-.5.4-3.7 2.4-7 4.5-3.3 2-5.5 3.7-4.9 3.7s3-1.3 5.5-2.9c2.4-1.5 11.7-7.6 20.6-13.4s17.2-11.1 18.5-11.8 2.5-1.5 2.8-1.8c.4-.6 17.1-10.7 22.5-13.7 1.1-.6 3.8-2.1 6-3.4 2.2-1.2 6-3.4 8.5-4.8s8.8-5 14-8 11.1-6.3 13-7.4c4.4-2.4 8.8-5.8 7.5-5.7-.5 0-3 1.3-5.5 2.8M640.3 507c7.1 49.1 8.9 79.6 9 151.2v35.3l3.5.1 3.5.1-.7-22.1c-2.2-71.7-6-117.4-13.5-161.9-.9-5.5-2.6-8-1.8-2.7M278.3 546c-.3 1.1-1 2-1.7 2-2.1 0-6.6 4.7-6.6 6.9 0 7.5 10.8 12.1 15.8 6.8 3.1-3.3 2.9-8-.5-10.7-1.6-1.2-2.8-2.7-2.8-3.3-.1-3.6-3.4-4.9-4.2-1.7M306 561.9c0 1.3-.8 2.1-2.2 2.3-1.2.2-3 1.7-4.1 3.5-1.7 3-1.7 3.4-.2 6.3 2.2 4.2 7.7 6.6 11.6 5 3.8-1.6 5-3.3 5.1-7.1.1-2.2-.6-3.8-2.2-5.1-1.3-1-2.4-2.9-2.5-4.1-.2-3-5.5-3.8-5.5-.8M470.2 576.3c-5 2.6-11.3 8.5-15.4 14.5-4.7 6.9-2.8 5.7 2.7-1.6 11.1-14.7 25.7-18.5 30.9-8.1 2.3 4.5 2.1 15.1-.4 21.8-1.1 3-1.8 5.7-1.6 5.9.8.7 2.4-3.2 4.1-9.8 4.8-18.4-5.8-30.2-20.3-22.7M271.5 584.7c-1.3 5.6-1.8 47.4-.6 60.2 1.8 18.7 6.8 56.7 7.7 58.2.2.4.8 3.8 1.4 7.5 1 6.5 2 12.6 3.9 23.9 1.1 6.3 9.6 53 10 54.4.1.3.6 0 1.3-.7s2-1.2 3-1.2c2.2 0 2.2-1.5.2-9.4-.9-3.3-2-8.1-2.5-10.6-.4-2.5-2.2-10.8-3.9-18.5-1.6-7.7-4.1-19.6-5.5-26.5s-3.2-15.7-4-19.5c-1.5-6.5-2.2-10.8-4.5-24.5-.9-5-2.3-15.6-5-37.7-1.3-9.9-1.3-49.4-.1-54.6.5-2 .5-3.7.1-3.7s-1.1 1.2-1.5 2.7M280 584.8c0 1.4 30.8 15.7 31.8 14.7.3-.2-.7-.9-2.2-1.4-2.4-1-7.5-3.2-15.6-6.9-1.9-.9-5.7-2.9-8.3-4.4-5.1-3-5.7-3.2-5.7-2M314.4 592.5c.5 4 5.4 27.2 7.5 35.5 1.4 5.3 7.9 26.6 9.1 29.5.5 1.1 1.1 2.9 1.3 4 .8 3.2 5.7 16.6 7.8 21.2 1 2.4 1.9 4.6 1.9 5.1 0 1 11.2 26.5 17 38.7 2.3 4.9 5.6 11.9 7.2 15.5 4 8.4 24.1 48.6 28.6 57 1.9 3.6 5.5 10.3 8 15s7.3 13.2 10.7 19c6 10 8.8 14.9 14.6 24.9 2.6 4.4 2.9 4.6 7.8 4.9 5.6.3 6.1-.3 3.1-3.8-1.1-1.3-2-2.7-2-3.1s-.7-1.4-1.5-2.2-2.7-3.7-4.3-6.3c-1.6-2.7-4.8-7.8-7-11.4-12.3-19.6-18.2-29.6-26.5-45-2.2-4.1-4.8-8.6-5.7-10-3.8-5.6-33.1-63.3-41.8-82-3.2-7.1-7.8-17.8-11.3-26.5-8.1-20.4-19.3-58.7-22.5-77-.9-5.6-2.7-8.2-2-3M330.4 591.5c-2.7 4.1-.7 7 6.3 9 11.8 3.5 28.4 7.5 30.8 7.5 1.5 0 2.9-.8 3.6-2.1 1.7-3.3-1.1-5.2-15.6-10.2-7.1-2.5-14.3-5-15.8-5.6-4.6-1.8-7.5-1.3-9.3 1.4m17.6 2.9c21.7 7.6 22.1 7.8 21.8 10.1-.4 2.7-4.7 2.3-21.8-2.1-13.5-3.5-18-5.4-18-7.6 0-1.5 3-4.8 4.4-4.8.6 0 6.7 2 13.6 4.4M439.5 593c-.9 1.8-1.4 3.4-1.2 3.7.3.2 1.2-1 2.1-2.8s1.4-3.4 1.2-3.7c-.3-.2-1.2 1-2.1 2.8M288.5 602c5.5 2.7 11.4 5.3 13 5.8 1.7.6 5.5 1.9 8.5 3.2 3 1.2 5.1 1.7 4.5 1.1-.5-.5-5.6-2.8-11.3-5-5.7-2.3-12.5-5.2-15-6.5-2.6-1.3-5.8-2.6-7.2-3-1.4-.3 2 1.7 7.5 4.4"/><path d="M449.5 600.4c-.9 2.1-1.4 4.3-1.1 4.9.2.7.5.6.5-.3.1-.8.8-2.8 1.6-4.4.9-1.6 1.3-3.1 1-3.4-.2-.3-1.2 1.2-2 3.2M436.6 599.5c-.3.9-.6 2.2-.5 2.8 0 .7.5.1 1-1.2s.8-2.6.5-2.8c-.2-.2-.6.3-1 1.2M441.4 606.7c-3.5 11.5-2.1 24.3 3.5 30.6 1.9 2.2 7.5 4.7 10.5 4.7 1.1-.1-.2-.9-3.1-1.9-5.8-2-8.8-4.9-10.3-10.1-1.5-5.1-1.2-15.7.5-22.4 2-7.7 1.2-8.4-1.1-.9M279 602.4c0 .8 10.9 6.9 17 9.5 10.7 4.5 20 7.9 20 7.2 0-.4-1.7-1.3-3.7-2-5.7-1.9-6.9-2.4-19.8-8.7-6.6-3.2-12.3-6-12.7-6.2-.5-.2-.8-.1-.8.2M433.8 608.1c-1.6 5.5-1.6 21.4 0 25.3.7 1.6 1.5 2.6 1.8 2.3s0-1.5-.6-2.7c-1.4-2.7-1.5-20.2-.1-24.9.6-1.9.9-3.7.6-3.9-.2-.2-1 1.6-1.7 3.9M279.2 608.6c1 1 2 1.5 2.4 1.2.3-.4-.5-1.2-1.8-1.8-2.2-1.2-2.2-1.2-.6.6M406.5 608c-2.2.5-5.9 1.2-8.2 1.5-2.3.4-4.9 1.5-5.8 2.5-2.2 2.4-.9 5 2.4 4.9 2-.1 2.2-.2.6-.6-2.9-.7-4.1-2.1-2.9-3.3 1.8-1.8 19.7-5.1 20.8-3.9 1.7 1.7-1.7 3.5-9.2 5-3.7.7-6.1 1.4-5.4 1.7 2.5.8 13.1-2 14.8-3.9.9-1 1.4-2.5 1.1-3.4-.7-1.6-2-1.7-8.2-.5"/><path d="M446.6 608.6c-1.1 2.7-.6 13.2.6 16.1 1.7 3.9 5.7 7.2 9.6 7.9 3.7.7 10.8-1.6 14.4-4.7 1.5-1.2.2-.8-3.6 1.1-7 3.6-10.2 3.8-14.7.7-4.5-3-6.3-8.3-5.5-16.5.7-6.1.4-7.7-.8-4.6M283 610.5c0 1.5 32.9 15.6 34.4 14.7.5-.2-1.1-1.1-3.5-1.9s-5.7-2-7.4-2.8c-1.6-.7-5-2.1-7.5-3.1s-6.8-3-9.7-4.6c-5.1-2.8-6.3-3.2-6.3-2.3M483 614.1c-1.4 2.2-4 5.6-5.9 7.5s-2.9 3.4-2.3 3.4c1.2 0 11.2-12.7 11.2-14.1 0-1.5-.4-1-3 3.2M281.5 613.3c10.5 5.9 33.4 15.2 35.6 14.5.5-.2-2.8-1.6-7.3-3.2-4.6-1.5-13.3-5.2-19.4-8.2-11.4-5.5-16.1-7.2-8.9-3.1M422.6 617.6c-1.4 2.6-2.4 4.9-2.2 5.1s1.6-1.7 3-4.3 2.4-4.9 2.2-5.1-1.6 1.7-3 4.3M324 615c0 .5.5 1 1.1 1 .5 0 .7-.5.4-1-.3-.6-.8-1-1.1-1-.2 0-.4.4-.4 1M327.5 617c.3.5 1.1 1 1.7 1 1.3 0 9.7 6.2 9.8 7.2 0 .6-1.8.2-11-2.7-1.6-.4-2.1-.4-1.5.2 1.1 1.1 11 4.3 13.1 4.3 1.5 0 3.7 3.4 2.7 4.4-.3.3-1.8.3-3.2.1-2.5-.5-2.5-.5-.4.6 2.5 1.3 5.3.6 5.3-1.3 0-2.2-6.1-8.9-10.9-11.9-4.6-3-6.7-3.7-5.6-1.9M373 623l-13.5.6 14.5.1c8 .1 16.8-.2 19.5-.7 5-.7 5-.7-1-.7-3.3.1-12.1.4-19.5.7M399.3 623.7c.4.3 1 .3 1.4 0 .3-.4 0-.7-.7-.7s-1 .3-.7.7M328.5 629c.3.5 1.4 1 2.3 1 1.5 0 1.5-.2.2-1-2-1.3-3.3-1.3-2.5 0"/><path d="M334 631.1c1.1.8.5.9-2.5.4-6.2-1-3.5.4 4.7 2.6 7.6 1.9 16.1 2.3 23.8 1 3.3-.6 1.3-.8-7-.7-12.6.1-17-.7-17-2.9 0-.8-.8-1.5-1.7-1.5-1.6 0-1.6.2-.3 1.1M413 631c-.8.5-10 1-20.5 1.1-10.4 0-21 .4-23.5.8-2.7.5 4.7.8 18.5.7 16.3-.1 23.7-.5 25.3-1.4 1.2-.7 2.2-1.5 2.2-1.7 0-.7-.3-.6-2 .5M464.3 639.7c.4.3 1 .3 1.4 0 .3-.4 0-.7-.7-.7s-1 .3-.7.7M459.8 640.7c.6.2 1.8.2 2.5 0 .6-.3.1-.5-1.3-.5s-1.9.2-1.2.5M651.5 726.4c-1.6.8-4.5 2.6-6.4 4-3.6 2.7-6.5 3.3-7.6 1.6-.8-1.4-7.8-1.3-10.9.1-2 1-3.2.8-6.1-.5-2-1-4.7-1.5-5.9-1.2-2.7.7-13.6 7.7-15.5 9.9-2 2.6.6 5.9 7.3 9 5.4 2.6 5.6 2.8 5.6 6.8 0 4.1 1.4 7.8 3.4 9.2.6.4 2.9 1.8 5.1 3 5 3 5.1 3.2 5.4 33.9.2 29.3.5 29.9 11.8 35.4 9.4 4.5 14 4.2 22-1.1 5.6-3.7 13.3-12.6 13.3-15.3 0-1.2-.5-.9-1.6.8-3.4 5.1-11.1 12.2-15.6 14.6-10.6 5.4-18.5 1.4-20.1-10.1-1.3-9-1.9-57-.8-61.5 4.5-17.6 17.4-32.6 29.6-34.4 4.9-.8 8.2.8 11.2 5.3 2.1 3.1 2.3 4.5 2.3 16.9 0 10.2-.3 13.3-1.1 12.5-.7-.7-1.4-4.7-1.6-9-.5-11.5-1.1-13.8-4.1-16.8-2.3-2.4-3.3-2.7-7.4-2.3-9.1.9-18.9 10.8-23.6 23.8-2.3 6.4-2.3 7-1.7 33 .8 35.8 1.1 37.3 7.4 40 5.2 2.1 11.4-.3 18.3-7 3.2-3.1 5.8-6.3 5.8-7 0-.8-1.8.6-4.1 3.3-4 4.7-12.4 10.5-13.6 9.3-.3-.3.5-1 1.8-1.5 3-1.1 13.9-12.4 13.9-14.3-.1-.7-.9-.2-2.1 1.2-8 9.8-12.6 13-18.7 13-3.7 0-4.4-.3-5.3-2.8-.6-1.6-1.1-14.8-1.2-33.7-.2-28.7-.1-31.3 1.7-35.5 5.1-11.7 14.3-20 22-20 5.2.1 7.1 1.6 8.5 6.5 1.5 5.4 1.5 17.5 0 17.5-.7 0-3.4-2.3-6-5-3.4-3.5-5.6-5-7.4-5-6.3 0-13.5 9.2-13.5 17.2 0 6 3.5 9.2 10 9.3 2.9 0 6.5 1.1 10.3 3l5.9 3-.4 10.5c-.2 5.8-.8 11.3-1.2 12.2-.5 1.1-.4 1.8.2 1.8.5 0 1.4-1.9 2-4.3 1.1-4.2 1.1-4.2.7 1.2-.4 4.3-.2 5.2.8 4.2.8-.8 1.3-5.8 1.5-14.6.4-13.5.4-13.5-2.2-13.5-2.3 0-2.6-.4-2.6-3.4 0-1.9.5-3.8 1.2-4.2.8-.5.9-.2.4 1.1-.7 2 2.8 6.5 5.1 6.5 1.9 0 1.7 17.9-.2 25.3-2 7.5-1.8 8 .7 3.2 1.7-3.3 2.2-6.2 2.5-16 .2-6.6.9-13.9 1.5-16.3l1.1-4.2h16.1c8.8 0 16.8-.5 17.6-1 1-.6-4.4-1-16.2-1-16.7 0-17.8-.1-17.8-1.9 0-1-.7-2.4-1.5-3.1-1.2-1-1.5-3.8-1.5-13.5 0-17-2.3-22-12.2-27.1-5.3-2.7-11.6-3.1-16.3-1m14 1.7c.5.5 0 .9-1.3.9-3.2 0-10.2 3.5-14.2 7.3-8.3 7.6-13.5 16.9-16.8 30.7-1.1 4.4.5 59.2 1.8 63.9 1.3 4.8.5 5.1-3.2 1.3-3.1-3.1-3.2-3.4-3.9-14.9-1.1-17.5-1-46.8.1-54.7 1.2-8 4.6-15.7 10.2-23.4 4.3-5.8 12.7-11.8 17.4-12.4 3.6-.5 8.6.2 9.9 1.3m-46.6 4c1.7.6 3.1 1.5 3.1 2s-1.5 2.9-3.4 5.4c-1.9 2.4-3.7 5.4-4.1 6.5-.3 1.1-1.1 2-1.6 2-1.3 0-12.9-5.9-12.9-6.5 0-.5 14.8-10.5 15.5-10.5.1 0 1.6.5 3.4 1.1m19.6 1.9c1.1.9.6 2.1-2.6 6.3-4.7 6.3-9.9 19.1-9.9 24.7 0 2.2-.4 4-.9 4s-3.1-1.5-5.7-3.3c-4.9-3.2-4.9-3.3-5.2-9.1-.3-6.7 1.9-12.4 7.1-18.3 5.3-5.8 13-7.8 17.2-4.3M602 744.5c0 .3-.2.5-.5.5s-.5-.2-.5-.5.2-.5.5-.5.5.2.5.5m9.6 5.3c-.6.5-7.5-2.8-8.2-3.9-.3-.5 1.5.1 4 1.3s4.4 2.4 4.2 2.6m46.4 7.5c-4 2.6-6.9 7.3-8.6 13.6-1.5 5.8-2.9 3.3-1.9-3.4.8-5.8 6.7-12.5 11-12.5 2.8 0 2.8 0-.5 2.3m7.4.5c.2.4-1.3 1.6-3.4 2.6s-5.2 3.1-6.9 4.7c-4.7 4.2-3.9.7.9-4.1 3.7-3.7 8.1-5.2 9.4-3.2m6.7 6.8c3.8 2 6.9 4 6.9 4.5 0 1.6-7.8 4.9-9.7 4.1-3.8-1.5-12.3-6.6-12.3-7.3s5.9-4.7 7.3-4.8c.4-.1 3.9 1.5 7.8 3.5m-13.8 4.4c1.4 1.1 2.8 2 3.1 2 .4 0 2.4 1.1 4.5 2.4 3.3 2.1 3.7 2.8 3.3 5.5-.4 3-.4 3-5.1.5-8.4-4.8-10.1-6.3-10.1-9.5 0-3.4.8-3.6 4.3-.9m-3.6 6.7c2.1 1.6 1.1 2.7-1.6 1.8-1.7-.5-2.1-1.4-2-4.8.1-4.1.1-4.1 1-1.2.5 1.6 1.6 3.6 2.6 4.2m27.3-3.1c0 1.6-.2 1.6-2.4.8-1.3-.5-1.4-.9-.5-2 1.3-1.6 2.9-.9 2.9 1.2m-5.2 3.9c-1.2 2.7-2.8 3.4-2.8 1.2 0-1.4 2-3.7 3.2-3.7.4 0 .2 1.1-.4 2.5m4.2.4c0 2-2.7 4.8-3.7 3.7-.9-.8 1.4-5.6 2.7-5.6.5 0 1 .8 1 1.9M749 760.1c-9.6.3-20.3.7-23.7.8l-6.3.1v24.3l43.1-.6c25.8-.3 43.5-.9 44.1-1.5 1-1 1.2-21.8.2-23.3-.6-1-30.9-.9-57.4.2m55 11.2v10.4l-18.7.6c-10.4.4-28.8.7-41 .7h-22.2l-.3-9.8c-.2-5.3-.2-9.9 0-10.1.1-.3 10.5-.6 23-.8s23.4-.6 24.2-.7c.8-.2 9-.4 18.3-.5l16.7-.1z"/><path d="M761.1 764.3c-.5.7-.9 4.4-.8 8.3.2 6.3.4 6.9 2.4 7.2 3 .4 4.1-2.6 3.5-9.6-.4-5.6-2.9-8.5-5.1-5.9m2.9 3.2c0 1.6-.6 2.5-1.5 2.5-1.6 0-1.9-.9-.9-3.4.9-2.5 2.4-1.9 2.4.9m.8 7.7c-.2 1.3-1 2.3-1.8 2.3s-1.6-1-1.8-2.3c-.3-1.7.2-2.2 1.8-2.2s2.1.5 1.8 2.2M771.7 764.8c-1.8 2-2.2 4.2-.8 4.2.5 0 1.2-1 1.5-2.3.6-2 .7-2 1.6-.5 1 1.7-.9 8.5-3.3 11.5-.6.9-.4 1.5.6 1.9 2.8 1 5.2 0 5.5-2.6.4-2.1.2-2.2-1.2-1.1-2.4 2-3.1.6-1.2-2.3 3.3-5.1.9-12.8-2.7-8.8M782 764.9c-.5 1.1-1 3.8-1 6.1 0 7.3 3.5 10.6 5.8 5.5q2.4-5.25-.3-10.5c-1.8-3.5-3-3.8-4.5-1.1m3.6 2.5c.8 3.5.1 8.9-1.3 9.4-1 .3-1.3-1.3-1.3-5.7 0-6.1 1.4-8.2 2.6-3.7M729 765.5c-1.8 2.2-1.6 12.3.3 14.3 2.4 2.4 4.9-.1 4.5-4.6-.3-3-1.5-4.6-4.6-5.8-.1-.1 0-.9.4-1.8.5-1.2 1-1.4 1.9-.6.9.7 1.5.8 1.9.1.4-.6-.2-1.5-1.3-2-1.4-.8-2.2-.7-3.1.4m3 10c0 1.9-.4 3.5-1 3.5-1.2 0-2.4-4.5-1.5-5.9 1.3-2.2 2.5-1 2.5 2.4M739.2 766c-3.1 5 0 16.5 3.8 14.1 1.6-1.1 2-8.3.5-8.8-2.8-1-3.7-2.2-3-3.9.5-1.3.9-1.5 1.2-.7.6 1.7 2.3 1.6 2.3-.1 0-1.1-2-2.6-3.3-2.6-.1 0-.8.9-1.5 2m3.3 9.3c0 3.9-1.9 3.8-2.3-.2-.3-2.4 0-3.2 1-2.9.7.3 1.3 1.7 1.3 3.1M749.5 772c-.4.6.8 1 3 1s3.4-.4 3-1c-.3-.6-1.7-1-3-1s-2.7.4-3 1M657.4 793c-2.7 1.1-8.3 7.6-10 11.6-.8 1.9-1.4 5.3-1.4 7.7 0 5.8 2.5 8.2 7.6 7.4 3.4-.6 8.4-4 8.4-5.8 0-1.9-3.3-1.6-5.9.6-5.9 5-10.1 2.4-8.6-5.3 1-5.6 3.2-9 7.7-12.2 7.5-5.4 11.3-3 8.9 5.6-1.3 4.8-1.4 5.7-.2 5 .5-.4 1.1 0 1.4.6.7 2 2.7-3.9 2.7-8.1 0-6.4-4.7-9.5-10.6-7.1m8.3 12.2c-.3.8-.6.5-.6-.6-.1-1.1.2-1.7.5-1.3.3.3.4 1.2.1 1.9"/><path d="M654 803.7c-2.6 3.4-2.3 6.7.8 7.1 1.2.2 2.2-.1 2.2-.7s-.7-1.1-1.5-1.1c-1.8 0-2-3.1-.3-4.8 1.9-1.9 3.6-1.4 4.1 1 .3 1.7.5 1.4.6-1 .1-2.5-.3-3.2-1.8-3.2-1.1 0-2.9 1.2-4.1 2.7M662 811c2.9 2.2 6 3.2 6 1.9 0-1-5.3-3.9-7.2-3.9-.7 0-.2.9 1.2 2M671 814.9c0 1.2 8.8 5.6 9.6 4.8.3-.3-1.7-1.7-4.5-3.1-2.8-1.5-5.1-2.2-5.1-1.7M225.2 818.2c-1.8 1.8-1.6 11.4.3 12.2 2.9 1.1 4.6-.5 4.3-3.8-.2-2.3-.8-3.2-2.5-3.4-2.5-.4-2.7-.9-1.4-3.1.8-1.2 1.2-1.2 2.5-.2 1.3 1.1 1.6 1.1 1.6-.2 0-.8-.7-1.8-1.6-2.1-2-.8-1.8-.8-3.2.6m2.8 8.8c0 1.1-.4 2-1 2-.5 0-1-.2-1-.4s-.3-1.1-.6-2c-.4-1.1-.1-1.6 1-1.6.9 0 1.6.8 1.6 2M185 819.5c-1.7 2-.3 5.4 2.6 6.1 3.3.8 2.4 3-1.1 2.7-2.7-.2-2.8-.1-1.2 1.5 3.6 3.5 7-2.6 5.3-9.4-.7-2.7-3.7-3.2-5.6-.9m4.5 2.5c0 2.2-2.9 1.8-3.3-.3-.3-1.4.1-1.8 1.5-1.5 1 .2 1.8 1 1.8 1.8M195 819.5c-1.7 2-.3 5.4 2.5 6.1q2.4.6 1.8 2.1c-.4 1-1.4 1.3-3.2.8-2.5-.6-2.5-.6-.8 1.2 3.5 3.6 7-2.5 5.3-9.3-.7-2.7-3.7-3.2-5.6-.9m4 2.5c0 1.1-.7 2-1.5 2s-1.5-.9-1.5-2 .7-2 1.5-2 1.5.9 1.5 2M205 819c0 .5.9 1 2 1 1.9 0 2 .2.5 3-1.7 3.3-2 8-.5 8 .6 0 1-1.1 1-2.4s.7-3.9 1.5-5.9c.8-1.9 1.1-3.7.8-4.1-1-1-5.3-.7-5.3.4M215.4 818.8c-1.9 1.1-1.2 10.3.8 11.5 2.7 1.7 4.6-.7 4.4-5.6-.3-6.1-2-8-5.2-5.9m3.4 2.4c-.6 1.8-2.8 2.1-2.8.4 0-.9.7-1.6 1.6-1.6s1.4.5 1.2 1.2m0 5.5c-.5 2.5-2.8 2.8-2.8.4 0-1.2.6-2.1 1.6-2.1.9 0 1.4.7 1.2 1.7M243.1 820.3c-2 3.8.2 10.7 3.4 10.7 1.4 0 3.5-4.2 3.5-7.1 0-5.5-4.6-7.9-6.9-3.6m4.7 3.7c.4 3.8-1.4 6.3-2.8 4-1.1-1.8-1.3-6.4-.3-7.4 1.4-1.4 2.8.1 3.1 3.4M253.1 819.9c-1.4 2.5-1.4 6.7-.1 9.2 1.4 2.5 4.7 2.5 5.5-.1.9-3-.4-6-2.6-6-1 0-1.9-.6-1.9-1.4 0-2.2 1.9-2.9 3.7-1.4 1.4 1.1 1.6 1.1 1.1-.2-.7-2.3-4.5-2.4-5.7-.1m3.9 7.2c0 2.4-2.3 2.1-2.8-.4-.2-1 .3-1.7 1.2-1.7 1 0 1.6.9 1.6 2.1M273.3 818.7c-.7.2-1.3 1.4-1.3 2.6.1 2.2.1 2.2 1.5.3 1.1-1.4 1.8-1.7 2.6-.9.7.7.2 1.9-1.5 4.1-3.5 4.1-3.4 6.2.4 6.2 3.4 0 4.1-1.7.9-2.2-2-.3-1.9-.4.5-3.7 1.9-2.6 2.3-3.8 1.5-5.2-1-1.9-2.2-2.2-4.6-1.2M263.5 819.9c-.3.5-.1 1.2.5 1.6.5.3 1 2.4 1 4.6 0 2.1.5 3.9 1 3.9.6 0 1-2.5 1-5.5 0-4.1-.4-5.5-1.4-5.5-.8 0-1.7.4-2.1.9M683.6 821.9c1.8 1.7 8.6 5.2 9.2 4.6s.9-.4-4.4-3.3c-4.3-2.3-6.5-2.9-4.8-1.3M323 831c0 5 .4 8 1.1 8s.8-2.3.3-7c-.4-4.8-.3-7 .4-7 1.1 0 11.3 5.8 14.4 8.2 1.5 1.1 1.8 4.3 2.4 24.3.4 13.1 1.1 23.4 1.7 24 1 1 .4-29.2-.9-42.6-.6-5.9-.9-6.7-3.8-8.3-7.9-4.7-13.5-7.6-14.5-7.6-.7 0-1.1 2.9-1.1 8M234 825c0 .5 1.4 1 3.1 1s2.8-.4 2.4-1c-.3-.6-1.7-1-3.1-1-1.3 0-2.4.4-2.4 1M376.2 828.7c-3.1.6-5.2 4.2-4.5 7.6.7 3.6 6.4 9.7 9.1 9.7 2.1 0 7.2-5.6 7.2-7.8 0-1.6 1.1-1.5 4.6.2 1.6.7 6.6 3 11.2 5.1l8.2 3.8v8.4c0 4.9.4 8.3 1 8.3s1-3.7 1-9v-8.9l-6.2-2.9c-3.5-1.6-9.2-4.2-12.8-5.8s-7.9-4.3-9.6-6.1c-3-3.2-4.3-3.5-9.2-2.6m9.8 5.9c0 2.3-1.9 1.6-3.2-1.1-.6-1.4-1.5-2.5-2-2.5-.4 0-.8-.5-.8-1.1s1.4-.1 3 1.1c1.7 1.2 3 2.8 3 3.6m-4.3.3c2.4 3.6 3 7.6 1.2 8.6-.5.4-2.2.4-3.7 0-2.7-.7-2.7-.7-.4-1.6q3.6-1.35 1.2-6c-1.3-2.4-4.6-2.5-5.9-.2-.9 1.6-1 1.5-1.1-.8 0-3.3.8-4.1 3.9-3.7 1.6.2 3.4 1.6 4.8 3.7m-2.9 1.3c1.9 1.9 1.4 3.8-1.2 3.8-1.9 0-2.2-.4-1.8-2.5.5-2.8 1.2-3.1 3-1.3m7.2 2.3c0 .3-.2.5-.5.5s-.5-.2-.5-.5.2-.5.5-.5.5.2.5.5M697 829c0 .5 2.2 2.1 5 3.5 5.4 2.7 6.4 3 5.5 1.5-1-1.6-10.5-6.2-10.5-5M234.4 837.7c.3 2.7.8 14.8 1.1 27 .6 22.3.6 22.3-1.7 22.3-1.5 0-2.9 1.1-4 3.1-2.2 3.8-2.3 5.8-.2 8.7 1.4 2 2.1 2.3 5.8 1.7 4.7-.8 6.6-2.1 6.6-4.4 0-1 2.5-3 6.1-5 6.9-3.8 7.9-5.3 5.4-8.1-1.8-2-1.8-2-4.9-.1-1.7 1.1-4.7 2.8-6.7 3.9l-3.6 2-.6-17.2c-.4-9.4-.7-21.9-.7-27.9 0-8.9-.3-10.7-1.5-10.7-1.3 0-1.5.9-1.1 4.7m18.9 46.8c.4.8.2 1.7-.3 2-.6.4-1 .4-1 .1 0-.2-.3-1.1-.6-2s-.2-1.6.4-1.6c.5 0 1.2.7 1.5 1.5m-2.5 2.4c.3.8-.1 1.2-.9.9-.7-.2-1.5-1-1.7-1.7-.3-.8.1-1.2.9-.9.7.2 1.5 1 1.7 1.7m-2.8 1.2c0 .5-.4.9-1 .9-.5 0-1-.7-1-1.6 0-.8.5-1.2 1-.9.6.3 1 1 1 1.6m-10.5 2.4c2.4 2.3 3.6 8.5 1.7 8.5-.5 0-.9-1.3-.9-2.9 0-3.3-1.7-5.9-4.8-7.1-1.7-.8-1.8-.9-.2-.9 1-.1 2.9 1 4.2 2.4m8.3-.6c.3.8-.1 1.2-.9.9-.7-.2-1.5-1-1.7-1.7-.3-.8.1-1.2.9-.9.7.2 1.5 1 1.7 1.7m-3.4.7c.4.9.4 1.9.2 2.1-.8.8-2.6-.8-2.6-2.3 0-1.9 1.6-1.8 2.4.2m-8.7 1.1c-.4.3-1 .3-1.4 0-.3-.4 0-.7.7-.7s1 .3.7.7m3 2.9c-.9.9-2.8-.6-2.1-1.8.4-.6 1-.6 1.7.1.6.6.8 1.3.4 1.7m-2.8 1.1c.7 1.4.8 3 .4 3.4-1.3 1.3-5.3-1.9-5.3-4.2 0-2.9 3.5-2.4 4.9.8"/><path d="M329 836c0 .5.6 1 1.4 1s1.6 1 1.9 2.2c.3 2 .4 2.1 1.1.5.5-.9.6-2.4.2-3.2-.6-1.7-4.6-2.1-4.6-.5M711 836.5c-1.1 1.4-1 2 1.1 4 1.3 1.3 4 3.2 5.9 4.3 2.7 1.5 3.5 2.6 3.6 4.8 0 1.6.1 7.8.2 13.8.2 8.2.5 10.7 1.3 9.9s1-4.9.7-12.7c-.4-10.9.4-14.8 1.8-9.1 1.2 4.7 7.4 4.4 9.9-.5 2-3.8 1.9-5.3-.4-8.1-1.6-2-2.2-2.2-4.4-1.2-1.3.6-2.8.8-3.3.3-1.2-1.1-10.4-5.7-13-6.4-1.3-.4-2.6-.1-3.4.9m3 1.5c0 .5-.4 1-1 1-.5 0-1-.5-1-1 0-.6.5-1 1-1 .6 0 1 .4 1 1m3 1.5c0 .8-.7 1.5-1.5 1.5-1.6 0-2-1.2-.8-2.3 1.1-1.2 2.3-.8 2.3.8m3 2c0 .8-.4 1.5-1 1.5-.5 0-1-.7-1-1.5s.5-1.5 1-1.5c.6 0 1 .7 1 1.5m6.8 3.4c-.4 2-2.8 2.6-2.8.7 0-1-.6-1.3-1.5-1-1.4.6-2.2-1.6-1-2.8 1.1-1 5.5 1.7 5.3 3.1m8.2.1c.8 1.6.8 2-.4 2-1 0-1.3.6-.9 1.6s-.2 1.7-1.7 2.1c-1.6.4-1.8.8-.8 1.4.9.6.5.9-1.3.9-4.3 0-4.5-3.8-.6-8.8 1.5-1.8 4.5-1.4 5.7.8M326.8 839.6c-1.6.8-2.8 1.9-2.8 2.4s1.3.1 3-.8c1.6-.9 3-2 3-2.5 0-.9 0-.9-3.2.9M367.8 842.6c-1.6.8-2.8 1.9-2.8 2.4 0 1.1 6.9-2.1 7-3.3 0-1-1.1-.8-4.2.9M318.5 844.2c-2.2 1.2-3.6 3-3 3.7.3.2 1.1-.2 2-.9 2.2-1.8 2.6-1 2.8 5.6.2 5.9.2 5.9-2.8 6.2-4 .5-5.4 1.8-4.7 4.4.4 1.8.2 2-1.9 1.4-9.5-2.9-16.1-1.4-22.4 4.8-3.3 3.3-4.4 5.3-5.2 9.7-1.6 7.6 0 15.3 5.8 29.7 1.5 3.7 2.3 2.6-10.1 13.2-12.6 10.6-11 4.8-11.8 44.1-.4 18.9-.6 35-.4 35.7.4 1 7.4 1.2 36.3.6l35.9-.7v10.6c0 14.1 1.8 14 2.2-.1l.3-10.7 37.5-.3c20.6-.1 37.8-.6 38.3-1.1 1.2-1.2-2.1-115.3-3.4-116.6-1.1-1-1.1.9 1.1 79.4.6 18.9.7 34.7.4 35s-15.9.7-34.6.9l-34.1.3.5-8.6c.3-4.7.2-8.7-.2-9-.5-.3-1.2 3.5-1.5 8.4l-.7 8.9-5.2.4c-6.3.6-37.3 1.3-56.6 1.3h-14.5l.3-33c.1-18.2.5-33.7.7-34.5.3-.8 2.5-2.9 4.8-4.7s5.6-4.5 7.2-6.1c1.7-1.5 4.8-4.1 6.9-5.7 3.9-3 3.9-3 5.5-.5 3 4.7 13.4 15 17.8 17.6 12.2 7.1 19.3 6.5 28.3-2.6 8.2-8.1 9.4-13.7 6.4-28.6-1.7-9-3.2-13.4-4.5-13.4-1.2 0-1.1 1.3.2 4.7 2.5 6.4 3.9 13.8 3.8 20.1l-.2 6.7-.9-7c-.5-3.9-1.3-7.9-1.8-9-.4-1.1-1.3-3.6-2-5.5-1.4-4.5-8.8-17-10-17-1.5 0-1.2 1.6.6 3.1s4.8 7 8.2 14.9c1.7 4 2.4 8 2.7 14.5.4 9 .4 9-.5 2-1.2-10.4-6.3-23.6-11.9-30.9-4.9-6.4-14.3-14.5-20-17.4-3.5-1.8-5.8-3.2-5-3.2 2.5 0 8.3 2.4 11.9 4.9 3.5 2.5 3.5 2.5 1-.3s-2.5-2.8.3-2.1c3.1.8 3.2.5 1.2-3.5-1.7-3.3-.8-4.4 2.9-3.4 1.8.4 3.3 0 5.2-1.5 1.5-1.2 3-2.1 3.4-2.1 1 0 2.4 3.8 5.1 13.5 2.5 8.7 2.6 9.1 3.5 8.2.7-.6-5.4-20.6-6.8-22.4-1.1-1.3-5.7 0-6.9 1.9-.4.6-1.4.8-2.3.5-1.3-.5-1.6-2.2-1.6-8.2 0-4.1-.3-7.5-.7-7.5-.5 0-1.7.6-2.8 1.2m-1 18.9c.8 2.3.1 3.4-1.4 2.4-1.3-.8-1.5-4.5-.2-4.5.5 0 1.3.9 1.6 2.1m-7.2 6.6c6.4 3.3 18.2 15.1 22 22.1 5.3 9.8 7.7 18 7.7 26.7 0 12.4-4.1 17.5-14.3 17.8-5.6.1-15-3.5-17.8-7-.8-1 .7-.5 3.6 1.2 4.1 2.4 6.2 2.9 11.9 2.9 6.5.1 6.9-.1 9.5-3.1 2.8-3.4 5.1-9.6 5.1-14 0-5.2-4.8-18.3-9-24.8-12.4-19-32.3-27-40.3-16.2-1.3 1.8-2.7 4.1-3 5.2-.6 1.9-.6 1.9.6.1 3.7-5.7 5.9-7.5 10-8.1 14.2-2.1 33.2 15.6 38.6 36 3.5 13-1.6 23.6-11.3 23.4-2.2 0-3.4-.3-2.6-.6 7.2-2.3 9.4-6.1 9.3-15.8 0-4.6-.8-8.9-2.2-12.5-2.6-6.8-9.8-16.9-14.3-20.1-1.8-1.3-3.5-2.6-3.8-2.9-1.8-1.9-7.1-3.5-11.6-3.4-5.6 0-7.6 1.1-10.6 5.9-1.1 1.8-1.8 2.4-1.9 1.5-.1-.8-.5.1-.9 2-.7 3.5-.7 3.5-.9-1.1-.1-6.1 1.5-10.7 5.2-14.7 2.9-3 3.6-3.2 9.4-3.2 4.9 0 7.5.6 11.6 2.7m-2.4 11.1c7.1 4.3 13 11.2 17.7 20.2 2.4 4.8 2.8 6.7 2.8 14.3.1 8.8.1 8.9-3.2 11.8-3.4 3-8.3 3.8-12.7 1.9-1.5-.6-1.1-.8 1.8-.8 4.8.1 8.4-2.5 10.4-7.5 1.4-3.4 1.4-4.3-.2-9.5-2.5-8.1-5.1-12.8-9.7-17.8-4-4.4-14.5-10.4-18-10.4-2.6 0-5.8 1.8-7.9 4.4-2.3 2.9-3.4 1.5-1.6-2.1 1.8-3.4 4.5-5.9 7.2-6.6 3.2-.9 10.5.3 13.4 2.1m-3.1 7.1c8.7 4.4 17.3 16.7 18.7 26.6.8 5.3-1.9 10.6-5.8 11.6-10.3 2.7-26.4-11.9-29.8-27-1-4.5-.2-8.4 2.3-11 2.5-2.7 9.5-2.8 14.6-.2m37.2 37.6c0 .3-.2.5-.5.5s-.5-.2-.5-.5.2-.5.5-.5.5.2.5.5"/><path d="M301.6 901.5c-2.3 3.5-2 7.2.7 8.9 2.6 1.7 8.6 1 9.4-1 1.2-3.2-3.8-10.4-7.3-10.4-.6 0-1.9 1.1-2.8 2.5m3.6 5c1.3 2.9.8 3.8-1.5 2.9-1.8-.6-3-3.2-2.1-4.5 1-1.6 2.4-1 3.6 1.6m2.3-1.5c.3.5.1 1-.4 1-.6 0-1.1-.5-1.1-1 0-.6.2-1 .4-1 .3 0 .8.4 1.1 1m2.2 3.7c-.4.3-.7 0-.7-.7s.3-1 .7-.7c.3.4.3 1 0 1.4M325.4 846.9c.9 1.3 12.7 8.3 13.2 7.8s-5.6-4.6-10.5-7.1c-1.8-1-3-1.3-2.7-.7M357.8 848.6c-1.6.8-2.8 1.9-2.8 2.5 0 1.1 2.1.1 5.5-2.5 2.5-2 .8-2-2.7 0M308.8 850.2c-3.2 1.7-5 3.8-3.4 3.8 1.2 0 7.6-4.3 7.6-5.1 0-1.1.3-1.2-4.2 1.3M349.6 853.5c-1 .8-2.4 1.6-3 1.8s-.8.7-.4 1.1c.8.9 6.8-2.1 6.8-3.4 0-1.4-1.2-1.2-3.4.5M299.2 856.2c-4.4 2.7-3.4 3.5 1.4 1 2-1 3.3-2.2 2.8-2.5-.6-.3-2.4.4-4.2 1.5M289.2 862.1c-1.8 1.2-3.1 2.3-2.9 2.6.7.6 7.7-2.9 7.7-3.9 0-1.3-1.2-.9-4.8 1.3M328.3 861.7c.4.3 1 .3 1.4 0 .3-.4 0-.7-.7-.7s-1 .3-.7.7M326 865.5c0 .8.6 1.2 1.4.9s1.7 0 2.2.7c.4.7.2 1.5-.4 1.7-1.7.5-1.5 2.2.2 2.2 2.2 0 2.8-3.1 1-5.1-2-2.3-4.4-2.5-4.4-.4M279.5 867.8c-1.6.9-3.2 1.8-3.4 1.9-.2.2-.2.6.1.9.8.8 6.8-2.4 6.8-3.6 0-1.3.1-1.3-3.5.8M365.1 869.2c-1.1 2.9.4 5.8 2.9 5.8 2.2 0 2.4.7 1.1 2.9-.8 1.2-1.2 1.2-2.5.2-.9-.8-1.6-.9-1.6-.3 0 .5.7 1.5 1.5 2.2 3.3 2.7 6.1-3.4 4.3-9.6-1.1-4-4.4-4.7-5.7-1.2m4.7 2.1c.2 1.2-.3 1.7-1.7 1.7-1.2 0-2.1-.6-2.1-1.3 0-3.1 3.2-3.4 3.8-.4M375 868.5c-1.8 2.1-.4 6.5 2 6.5 1.1 0 2 .6 2 1.4 0 2.1-2.1 3.1-3.1 1.5-.4-.7-1.1-1-1.5-.6-.7.7 1.4 3.7 2.7 3.7 1.9 0 3.9-3.4 3.9-6.6 0-6.3-3.1-9.4-6-5.9m3.8 2.8c.2 1-.3 1.7-1.2 1.7-1 0-1.6-.9-1.6-2.1 0-2.4 2.3-2.1 2.8.4M384.4 868.4c-1.1 2.9.1 6.1 2.4 6.4 2.4.4 2.6.9 1.3 3.1-.8 1.2-1.2 1.2-2.5.2-1.8-1.5-2.2-.1-.4 1.7.7.7 1.7.8 3 .1 1.4-.7 1.8-2.1 1.8-5.7 0-4.8-1.2-7.2-3.7-7.2-.8 0-1.6.6-1.9 1.4m4.4 2.9c.2 1-.3 1.7-1.2 1.7-1 0-1.6-.9-1.6-2.1 0-2.4 2.3-2.1 2.8.4M393.8 869.5c-1.2 2.7.2 5.5 2.8 5.5.8 0 1.4.6 1.4 1.3 0 2.1-1.2 2.8-2.7 1.5-1.7-1.4-3.1-.2-1.6 1.3.7.7 2.3.9 3.7.5 2.3-.6 2.6-1.1 2.6-5.4 0-7-3.8-9.9-6.2-4.7m4.2 1.5c0 1.1-.7 2-1.5 2-1.5 0-2.1-2.1-.8-3.3 1.2-1.3 2.3-.7 2.3 1.3M403.1 868.9c-1.4 2.5-1.4 6.7-.1 9.2 1.4 2.5 4.6 2.4 6-.1 1.3-2.5-.6-6-3.3-6-1.1 0-1.7-.5-1.4-1.3.2-.6 1.4-1.2 2.6-1.1 2.7.1 2.2-2-.7-2.4-1.3-.2-2.5.4-3.1 1.7m3.9 7.1c0 2.1-1.5 2.7-2.5 1-.7-1.2.2-3 1.6-3 .5 0 .9.9.9 2M421.6 869.2c-1.7 6.4.4 11.6 4.2 10.4 1.9-.6 2.2-1.5 2.2-5.5 0-2.6-.5-5.2-1.2-5.9-1.9-1.9-4.5-1.4-5.2 1m4.4 4.4c0 3.2-.4 4.4-1.2 4.2-1.4-.5-2.3-5.1-1.4-7.4 1.1-3 2.6-1.2 2.6 3.2M431.9 867.7c-1.5 8.9.3 14 3.9 11.6 1.9-1.2 2.6-9 .9-11.1-1-1.3-4.6-1.7-4.8-.5m4.1 2.2c0 1.4-1.8 2.3-3 1.6-.6-.4-.8-1.1-.5-1.6.8-1.2 3.5-1.2 3.5 0m0 6.7c0 1.7-2.6 1.9-3.6.3-.7-1.2 1.5-3.1 2.8-2.3.4.3.8 1.2.8 2M441 868.9c-2.3 4.4-.5 11.1 3 11.1 2.3 0 4-2.8 4-6.7-.1-5.4-4.8-8.4-7-4.4m4.3 3.8c.7 3.9-.3 6-2.2 4.9-1.2-.8-1.5-6.8-.4-7.9 1.3-1.4 2.1-.6 2.6 3M450.6 868.6c-1 2.7-.7 8.9.6 10.2 1.7 1.7 4.5 1.5 5.2-.4.3-.9.6-3.1.6-4.9 0-4.8-.9-6.5-3.5-6.5-1.3 0-2.6.7-2.9 1.6m4.4 4.9c0 3.3-.4 4.5-1.5 4.5s-1.5-1.2-1.5-4.5.4-4.5 1.5-4.5 1.5 1.2 1.5 4.5"/><path d="M324.2 869.2c-1.6 1.6-1.5 4.3.3 5.8 1.2 1 1.5 1 1.5-.3 0-.8-.6-1.7-1.2-2-.9-.3-.8-1 .6-2.6 2-2.2.9-3-1.2-.9M269.3 873.7c-2.9 1.4-4.4 3.3-2.8 3.3 1.4 0 6.5-3.2 6.5-4 0-1.2.3-1.2-3.7.7M412.5 874c-.4.6.8 1 3 1s3.4-.4 3-1c-.3-.6-1.7-1-3-1s-2.7.4-3 1M718.5 875.1c-16.5.5-31.9 1.1-34.2 1.4l-4.3.6.2 11c0 6 .4 11.2.8 11.4s2 .5 3.6.6c5.2.2 63.7-1.3 73.9-2l10-.6-.1-7.5c-.1-4.1-.2-9.4-.3-11.8l-.1-4.2-9.7.2c-5.4 0-23.3.5-39.8.9m47.5 10.8c0 5.6-.3 10.1-.7 10.1-27.4.5-78.3 2.2-79.5 2.6-1.6.5-1.8-.4-1.8-9.5v-10l5.3-.6c2.8-.3 17.6-.9 32.7-1.3s31.2-.9 35.8-1l8.2-.3z"/><path d="M744.5 879.3c-1.3 1-1.7 2.6-1.7 6.1.2 6.5 1 8.6 3.3 8.6 4.2 0 4.3-7.6.1-9.5-2.8-1.3-3-3.9-.2-3.2 2.5.6 3.5-.7 1.7-2.2-1-.8-1.8-.7-3.2.2m3 9.7c0 1.3-.5 2.5-1.2 2.7-1.3.5-2.7-3.2-1.8-4.7 1.1-1.8 3-.5 3 2M701.7 880.8c-1.1 1.2-1.7 3.5-1.7 6.4 0 6.1.8 7.8 3.5 7.8 3.9 0 4.3-8.3.4-9.5-1-.4-1.9-1.3-1.9-2 0-1.9 1.7-2.8 2.3-1.3.2.7.8 1 1.3.5.4-.4.1-1.4-.7-2.3-1.4-1.3-1.7-1.3-3.2.4m2.7 7.7c.6 1.8-.2 4.5-1.5 4.5-.5 0-.9-1.4-.9-3 0-3.2 1.4-4 2.4-1.5M722 883.4c0 3.9.2 4.4 2 3.9 1.6-.4 2 0 2 2 0 2.7-1.6 4.5-2.2 2.6-.2-.7-1-1-1.6-.8-1 .3-.9.9.2 2.4 2.2 2.9 5.1.9 5.1-3.6 0-2.6-.6-3.6-2.2-4.4-2.8-1.2-3-3.5-.3-4.2 2.8-.7 2.5-2.3-.5-2.3-2.3 0-2.5.4-2.5 4.4M734.2 883.5c-2.7 5.6-2.7 6.5-.2 6.5 1.5 0 2 .7 2 2.6 0 1.5.5 2.4 1.2 2.2.7-.3 1.2-1.6 1.1-3.1s-.1-5-.2-7.7c-.1-2.8-.5-5-.9-5s-1.8 2-3 4.5m1.4 4.2c-1 1-1.9-.5-1-1.8.6-1.1.8-1.1 1.2 0 .2.7.1 1.5-.2 1.8M690.2 881.7c-1.2 3.1-.7 12.4.8 13.3 2.4 1.5 5-.8 5-4.4 0-2.5-.6-3.5-2.5-4.4-1.4-.6-2.5-1.5-2.5-2 0-1.7 1.3-2.2 2.8-1 1.2 1 1.4.9 1.1-.7-.5-2.6-3.7-3.2-4.7-.8m3.8 8.7c0 1.4-.4 2.8-1 3.1-.5.3-1 .3-1-.2 0-.4-.3-1.8-.6-3.1-.5-1.6-.2-2.2 1-2.2 1 0 1.6.9 1.6 2.4M710.4 887.8c.5.8 7.6.4 7.6-.4 0-.2-1.8-.4-4.1-.4-2.2 0-3.8.4-3.5.8M331 879c3.3 2.6 4.8 2.6 2.5 0-1-1.1-2.5-2-3.4-2-1.2 0-.9.6.9 2M258.3 880.2c-2.1 1-3.2 2.8-1.8 2.8 1 0 6.5-3 6.5-3.5 0-.8-2.3-.4-4.7.7M336 881.8c0 .4 1.4 1.6 3 2.5 3.6 2.2 4.1.6.5-1.7-2.7-1.8-3.5-2-3.5-.8M446.7 888.7C453.6 899.6 458 907 458 908c0 1.6 1.4 1.1 2.8-1 .8-1.3 2.3-2 4.2-2 3 0 3 0-4.2-11-7.3-11-7.3-11-12.6-11h-5.3zM347 889c1.4 1 2.7 1.7 2.9 1.4.6-.5-3.1-3.3-4.4-3.3-.5-.1.1.8 1.5 1.9M352 891.7c0 .5 1.6 1.8 3.5 3.1 4.3 2.7 4.7 1.4.5-1.6-3.1-2.3-4-2.7-4-1.5M548 899c0 4.7.4 8 1 8s1-3 1-7c0-3.9.4-7 .8-7s2.9 1.3 5.5 3c2.6 1.6 5.1 3 5.6 3 .4 0 1.5.8 2.4 1.8 1.3 1.4 1.7 3.8 1.7 10.3 0 7.3.3 8.6 2 9.7 2 1.2 2.8 4.2 1 4.2-.5 0-4.8-2.5-9.4-5.5-4.7-3-9.1-5.6-9.7-5.7-.7-.2-1 3.4-.9 11.7.1 11.9.1 11.9-1.9 10.1-1.1-1-2.5-3.4-3.2-5.3-.8-2.7-1.6-3.3-3.2-3.1s-2.3 1.1-2.5 3.1c-.3 2.2-.7 2.7-2 2.2-.9-.4-4.2-.9-7.3-1.2-4.3-.4-6.4-.1-9.5 1.5-10.1 5.2-13.5 15.1-10.3 30.4 1 4.7 8 20.5 9.7 21.8.4.3 2.2 2.5 4.1 4.9 2.3 3 3.1 4.8 2.5 5.6-.5.7-3.7 4.7-7.1 8.8l-6.3 7.5.5 17.9c.3 9.8.7 23.4.9 30.3l.3 12.5 31.6.3 31.7.2v8c0 4.7.4 8 1 8s1-3.3 1-8c0-8 0-8 3.3-8 19.8-.1 64.4-1.4 65-1.9.4-.4.3-17.6-.3-38.2-.5-20.6-1-46.1-1-56.7 0-16.1-.2-19.2-1.5-19.2-1.1 0-1.3 1.5-1 8.2.3 4.6.7 19.3 1 32.8s.8 35.2 1.2 48.2l.6 23.8h-17.4c-9.6 0-24.7.3-33.6.7l-16.3.6v-9.6c0-5.3-.4-9.9-1-10.2-.6-.4-1 3-1 9.4v10.1h-62l-.1-23.8c0-13-.3-26.1-.5-29.1-.4-5.1-.1-5.8 3.6-10.5 2.1-2.8 5.3-6.7 6.9-8.5 2.8-3.3 3.1-3.4 4.8-1.9 3.5 3.1 12.5 7.8 16.7 8.8 5.8 1.3 10.3-.1 15.9-5 5.7-5 9.7-13.1 9.7-19.5 0-6.5-3.6-22.5-5.1-22.5-1.1 0-1.2 2.3 0 3.6 2.3 2.5 4.1 24.7 2.1 25.9-.7.4-.9-.2-.4-1.9.3-1.4-.1-6.2-1.1-10.7-2.8-14.1-11.5-28.9-21.4-36.4-2.8-2.1-4.9-4.1-4.6-4.3.7-.7 8.8 4.4 11.4 7.2 2.3 2.4 4.9 3.7 3.7 1.8-.6-1.1 1.4-14.5 2.4-16.2 1.2-2 3.7.3 4.5 4.1.5 2.4 1.2 2.9 3.5 2.9 4.6 0 5.1 1.7 3.1 9.8-1 4-1.5 7.5-1.1 7.7.4.3 1-.5 1.3-1.8.3-1.2 1.2-4.8 2-7.9 1.2-4.9 1.2-6 .1-6.9-1-.8-1.3-3-1.1-7.5.2-5.1-.1-6.8-1.5-8.4-1.4-1.5-1.8-3.6-1.8-9.8 0-4.7-.5-8.4-1.2-9.4-1.9-2.4-14.7-9.8-16.9-9.8-1.7 0-1.9.8-1.9 8m13.5 23.6c5.8 3.8 8.3 6 7.7 6.6s-.8 1.7-.5 2.4c.3.8-.1 1.4-1.1 1.4-.9 0-2-1-2.5-2.3-1-2.4-5.8-7.3-6.6-6.6-.2.3-1.1 3.8-2 7.8-1.8 8.8-2.2 9.6-4.1 8-1.7-1.4-2.1-22.9-.4-22.9.5 0 4.8 2.5 9.5 5.6m-19.2 8.4c.3 1.3 0 2-.9 2-.8 0-1.4-.9-1.4-2s.4-2 .9-2 1.1.9 1.4 2m-5.3 4c5.4 2.8 15.2 12.1 19.6 18.7 5.6 8.5 9.4 19 9.8 27.5.3 6.1.3 6.5-.4 2.3-1.2-8.4-3.9-16.6-7.8-23.9-4.9-9.2-16-20.7-23.3-24-3-1.4-4.6-2.5-3.6-2.5 1-.1 3.5.8 5.7 1.9m-1.7 3.1c15.8 8 28.7 29.3 28.7 47.6 0 10.8-2.5 15.6-9.6 18-4.4 1.6-15.9-.8-18.4-3.8-.3-.3-1.6-1.2-2.8-1.8-1.3-.7-2.2-1.4-2-1.6s3 .9 6.2 2.5c10.7 5.4 19.3 3.1 22.8-6 2.1-5.4 2.2-9.7.4-17-5.9-24.3-29.9-44.2-43.3-36-1.8 1-4.1 3.6-5.2 5.7-1.5 2.9-2 3.3-2.1 1.7 0-1.1.7-3.4 1.5-5.1 4.3-8.6 12.3-10 23.8-4.2m0 5.3c12 7.2 21.2 20.6 23.7 34.7 2.5 13.6-1.9 22-11.3 21.9l-3.2-.1 3.3-1.4c2.4-1 3.9-2.8 5.4-6.2 6-13.7-4.8-37.3-21-45.8-7.1-3.7-13.3-3.2-17.4 1.4-1.9 2.1-2.8 2.6-2.8 1.6 0-2.4 3-6.4 5.9-8.1 3.7-2.1 12.2-1.2 17.4 2m-3.4 5c6.2 3.2 13.3 11.1 17.3 19.5 2.9 5.9 3.2 7.6 3.3 15.4 0 8.8 0 8.9-3.3 11.8-3.4 3-9.1 3.9-12.2 1.9-1.1-.7-.4-1 2.6-1 4.7 0 7.4-2 9.4-6.8 3.9-9.7-7.7-30.1-20.4-36-6.8-3.3-10.9-2.6-14.8 2.2-2.5 3-2.3 0 .2-4.2 3.5-5.7 10.1-6.7 17.9-2.8m-22.2 6.8c-.2 1.3-.4.5-.4-1.7-.1-2.2.1-3.2.4-2.3.2 1 .2 2.8 0 4m16.5-1c12.2 3.6 24.4 24 20.8 34.7-2.1 6.5-6.9 7.6-15.5 3.6-9.3-4.4-17.3-16.1-18.2-26.6-.6-6.5 1-10.3 5-11.9 3-1.2 3.4-1.2 7.9.2"/><path d="M526 970.2c-1.1 1.8-2 3.8-2 4.4 0 1.9 4.2 5.6 5.7 5 .8-.3 2.6-.6 3.9-.6 3.6 0 3.3-5.2-.5-9.1-3.7-3.7-4.7-3.6-7.1.3m2.8 3c1.3 1.3 1.6 4.8.4 4.8-1.4 0-3.2-2.3-3.2-4.2 0-2.1 1.1-2.3 2.8-.6m2.9.5c-.4.3-.7 0-.7-.7s.3-1 .7-.7c.3.4.3 1 0 1.4M363.5 899.5c2.7 2.2 5.5 3.2 5.5 2.1 0-.6-6.6-4.6-7.6-4.6-.5 0 .5 1.1 2.1 2.5M555.2 903.2c-.7.7-1.2 1.7-1.2 2.3 0 .7-1.1 1.7-2.5 2.3s-2.5 1.6-2.5 2.2c0 1.8 1.7 1.1 5-2s5.1-4 3.1-1.6c-1.3 1.6.2 3.2 1.9 2.1 1.5-1 1.2-3-.8-4.8-1.4-1.3-2.1-1.4-3-.5M371.8 904.2c1.6 2 7.2 5 7.2 4 0-.6-1.6-1.9-3.6-3.1-4-2.4-5.1-2.6-3.6-.9M606.5 906.7c-3.6 3.5.5 13.8 6.4 16.3 3.2 1.3 7.1 0 7.1-2.4 0-.7.8-2.1 1.9-3 1.7-1.6 2.1-1.6 7.1.4 14.6 5.7 14 5.2 14 13.5 0 4.3.4 7.5 1 7.5 1.5 0 1.3-15.5-.2-16.7-.7-.5-5.1-2.5-9.7-4.3-4.7-1.9-9.1-4.1-9.8-4.9-.8-.9-2.5-3.1-3.9-4.9-2.3-2.8-3.1-3.2-7.4-3.2-3.2 0-5.4.6-6.5 1.7m8.9 3.4c1.8 2.1 2.6 4.2 2.6 7 0 3.6-.2 3.9-2.8 3.9-4.9 0-9.7-7.7-7.9-12.5 1-2.6 5.3-1.8 8.1 1.6m5 .5c.4.9.4 1.9.2 2.1-.8.8-2.6-.8-2.6-2.3 0-1.9 1.6-1.8 2.4.2"/><path d="M609 911.5c-.6.8-.9 1.9-.5 2.5.5.8 1.1.5 2-.6 1.2-1.6 1.3-1.6 2.4.4s.8 2.6-1.1 2.3c-1.2-.2-.9 1.7.3 2.5.6.3 1.8 0 2.6-.9 1.2-1.2 1.3-1.9.2-3.8-2-4-3.9-4.8-5.9-2.4M382.5 911c.3.5 1.3 1 2.2 1 1.1 0 1.4.8 1.1 3-.3 1.9-.1 2.9.6 2.7 1.9-.6 1.9-5 0-6.4-2.1-1.5-4.8-1.7-3.9-.3M542.5 913.5c-1.6 1.3-2.6 2.4-2.1 2.5 1 0 7.6-3.9 7.6-4.6 0-1.2-2.8-.1-5.5 2.1M534.3 918.1c-4.7 3-4.1 4.3.7 1.8 2.2-1.2 4-2.5 4-3 0-1.4-1.2-1.1-4.7 1.2M601.4 919.5c-1 .8-1.4 1.5-.7 1.5 1.9 0 4.3-1.1 4.3-2.1 0-1.3-1.4-1.1-3.6.6M379.6 920.5c-1.1.8-1.7 1.7-1.4 2.1.7.6 4.8-1.7 4.8-2.8 0-1.2-1.3-.9-3.4.7M370 923c-1.4 1.1-2.8 2-3.2 2s-3 1.3-5.7 3c-2.8 1.6-5.3 2.5-5.6 2-.8-1.2-7.5-1.3-7.5-.1 0 .4-1.1 2-2.5 3.5-2.9 3.1-3 4.1-1 8q1.5 2.85 1.5 11.7c0 5.3.4 8.9 1 8.9s1-3.1 1-7.4v-7.5l5.4-.6c6.1-.8 9.2-3.2 8.3-6.5-.6-2.2.1-2.9 9.6-8.6 3.1-2 5.7-3.9 5.7-4.4s-1-2-2.2-3.4c-2.3-2.6-2.3-2.6-4.8-.6m2.5 3c.3.5.4 1 .1 1s-.8-.5-1.1-1c-.3-.6-.4-1-.1-1s.8.4 1.1 1m-2 1.1c1.1 1.7-.1 2.1-1.5.4-.8-.9-.8-1.5-.2-1.5s1.4.5 1.7 1.1m-2.5 2.5c0 1.4-.3 1.4-1.5.4-.8-.7-1.5-1.4-1.5-1.6s.7-.4 1.5-.4 1.5.7 1.5 1.6m-2.9 1c1 1.3 1 1.7-.2 2.5-4.3 2.9-4.8 3-5.9.8-.7-1.1-1-2.2-.8-2.3.8-.7 4.4-2.5 4.9-2.6.4 0 1.2.7 2 1.6m-13.1-.1c0 .3-.2.5-.5.5s-.5-.2-.5-.5.2-.5.5-.5.5.2.5.5m5.8 4.5c2.3 3.4 2.9 7.4 1.3 8.4-.5.3-.9-1-.9-3s-.5-4.1-1.1-4.7c-.8-.8-1.1-.5-1.1 1.1 0 2.5-2.5 3-3.4.6-.9-2.3-.8-2.4 1.4-2.4 2.5 0 2.5-.8.3-2.7-1.4-1.1-1.4-1.3-.3-1 .8.2 2.5 1.8 3.8 3.7m-5.8-1.6c0 1.1-1.9 1.5-2.5.6-.3-.5.1-1 .9-1 .9 0 1.6.2 1.6.4m-1.1 4.2c2.7 3.5 2.8 7.4.2 7.4-2.2 0-6.1-4.4-6.1-7 0-3.8 3-4 5.9-.4m6.1 4.4c0 .5-.4 1-1 1-.5 0-1-.5-1-1 0-.6.5-1 1-1 .6 0 1 .4 1 1M524.1 924.2c-1.9 1.2-2.9 2.4-2.3 2.6 1.4.4 7.2-2.6 7.2-3.8 0-1.5-1.1-1.2-4.9 1.2M595.3 923.2c-1.3.6-2.3 1.5-2.3 2s1.4.2 3-.7c4.5-2.3 3.8-3.5-.7-1.3M514.6 929.8c-2.1 1.4-3.4 2.8-2.8 3 1.5.5 8.3-3.9 7.6-4.9-.6-1.1-.2-1.3-4.8 1.9M586 929c-1.7 1.3-2 2-1 2 .8 0 2.6-.9 4-2 1.7-1.3 2-2 1-2-.8 0-2.6.9-4 2M578.2 933.2c-1.7 1.1-3 2.4-2.7 2.8.6 1 7.5-2.8 7.5-4.1s-1.1-1-4.8 1.3M504.2 936.2c-1.8 1.1-3.1 2.3-2.8 2.6.8.7 7.6-2.7 7.6-3.8 0-1.4-1-1.1-4.8 1.2M562 941.2c0 1.9.2 2 1 .8.9-1.4 1.1-1.2 1.4 1.5.1.5.6 1.1 1.1 1.3 1.5.5 1.8-2.7.5-4.3-1.9-2.2-4-1.8-4 .7M494.1 942.3c-1.9 1.1-2.9 2.3-2.3 2.5 1.4.4 7.2-2.6 7.2-3.8 0-1.4-1-1.1-4.9 1.3M636.8 942.9c-1 1.3-1.2 3.6-.9 6.8.5 4 1 4.9 2.9 5.1 1.6.2 2.5-.3 3.1-2 1-2.7-.3-5.8-2.4-5.8-.8 0-1.5-.9-1.5-2 0-2.3 1-2.6 2.8-.8.9.9 1.2.8 1.2-.4 0-.9-.7-1.9-1.6-2.2-2.2-.8-2.1-.8-3.6 1.3m3.2 8.2c0 1-.4 1.9-1 1.9-.5 0-1-1.2-1-2.6s.4-2.3 1-1.9c.6.3 1 1.5 1 2.6M655.2 943c-2.4 3.9-.5 12 2.8 12 3.5 0 5.2-7.9 2.4-11.8-1.9-2.7-3.5-2.8-5.2-.2m4 3.7c.6 5 0 6.7-1.8 5.2-1.4-1.2-1.9-7-.7-8.2 1.4-1.4 2.1-.6 2.5 3M664.7 942.7c-.3 1-.5 3.7-.5 6-.1 5 2.5 7.4 5.2 4.8 1.4-1.5 1.5-9.2.1-11.5-1-1.6-4.3-1.1-4.8.7m3.3 2.4c0 1.1-.4 1.7-1 1.4-.5-.3-1-1.3-1-2.1s.5-1.4 1-1.4c.6 0 1 .9 1 2.1m.5 5.7c0 1.8-2 1.5-2.3-.4-.3-1 .1-1.5 1-1.2.7.3 1.3 1 1.3 1.6M674 942.9c-1.5 2.8-1.2 7.3.6 9.9 1.2 1.8 1.9 2 3.5 1.2 1.5-.8 1.9-2.1 1.9-5.8 0-6.6-3.6-9.7-6-5.3m4 4.5c0 4.6-1.3 6.8-2.4 4-.8-2.1-.8-6.9.1-7.7 1.6-1.6 2.3-.4 2.3 3.7M683 943.5c-1.5 3.9.4 10.5 3.1 10.5 4.8 0 5-12.1.2-12.8-1.7-.3-2.6.4-3.3 2.3m4.5 4.1c0 2.8-.4 3.9-1.5 3.9-1.6 0-2.6-4.5-1.6-7.2 1.1-2.8 3.1-.7 3.1 3.3M599.2 943.2c-.7.7-1.2 1.9-1.2 2.8 0 2 3.4 5.3 4.3 4.3.4-.3.7.1.7 1 0 2-1.6 3.1-2.5 1.7-.9-1.5-2.5-1.2-2.5.4 0 1.9 2.8 2.8 5.1 1.6 1.4-.8 1.9-2.1 1.9-5.1 0-6.6-2.7-9.8-5.8-6.7m3.4 4.4c-.5 1.3-1 1.4-1.8.6-.6-.6-.8-1.8-.4-2.8.5-1.3 1-1.4 1.8-.6.6.6.8 1.8.4 2.8M608 943.9c-1.2 2.4-.1 5.4 2.7 6.9.9.5 1.3 1.5.9 2.1-.6.9-1.1.9-2.2 0s-1.4-.8-1.4.5c0 1.1.9 1.6 2.9 1.6 3.4 0 4.3-2.3 3.3-8.5-.6-3.1-1.2-4.1-2.9-4.3-1.4-.2-2.6.4-3.3 1.7m4 2.6c0 1.4-.4 2.5-1 2.5-.5 0-1-1.1-1-2.5s.5-2.5 1-2.5c.6 0 1 1.1 1 2.5M617.4 943.5c-1.1 2.7.5 6.5 2.6 6.5 1.2 0 2 .7 2 1.6 0 1.2-.6 1.5-2.6 1-1.9-.5-2.5-.3-2.2.6.6 1.8 4.9 2.3 5.9.6 1.3-2 1.1-9.2-.3-10.6-1.7-1.7-4.7-1.5-5.4.3m4.2 2c.8 2.1-.6 4.1-1.7 2.4-1.2-1.9-1.1-3.9.1-3.9.6 0 1.3.7 1.6 1.5M627 943.5c-1.7 2-.9 4.8 1.8 6 3.1 1.4 2.9 3.9-.3 3.1-1.9-.5-2.3-.3-1.9.9.8 2 5 1.9 5.8-.1.3-.9.6-3.1.6-4.9s-.3-4-.6-4.9c-.8-2-3.8-2.1-5.4-.1m4 2.6c0 2-1.5 2.6-2.4 1-.8-1.3.4-4.2 1.5-3.5.5.3.9 1.4.9 2.5M559.6 945.6c-1.9 1.8-1.7 3.5.4 4.2.8.3 1 0 .6-.7s-.2-1.9.5-2.7c1.7-2.1.5-2.8-1.5-.8M485.6 947.5c-1 .8-2.4 1.6-3 1.8s-.8.7-.5 1.1c.8.8 6.9-2.3 6.9-3.5 0-1.3-1.2-1.1-3.4.6M646 949c0 .5 1.4 1 3 1 1.7 0 3-.5 3-1 0-.6-1.3-1-3-1-1.6 0-3 .4-3 1M472 952.6c-4.6 2.8-6.1 3.3-9.6 2.8-3.7-.5-4.3-.3-6.3 2.4-2.7 3.8-2.7 6.6 0 9.3 1.5 1.5 2.8 1.9 5 1.4 2.9-.7 2.9-.7 2.9 17.4 0 11.4.4 18.1 1 18.1 1.4 0 1.3-33.9-.1-39.6-.7-2.6-2.2-5.3-3.7-6.4-1.8-1.5-2-2-.9-2 2.8 0 5.7 4.1 5.7 7.9 0 3.5 1.5 3.4 2.2-.2.1-1.1 2.7-3.2 5.7-4.7 6.7-3.6 7.5-4.3 6.7-6.8-1.1-3.2-2.7-3.1-8.6.4m7 0c0 .8-.4 1.2-1 .9-.5-.3-1-1-1-1.6 0-.5.5-.9 1-.9.6 0 1 .7 1 1.6m-2.2 2.2c.6 1.8-1.5 1.4-2.2-.4-.4-1-.1-1.4.6-1.2.6.2 1.4 1 1.6 1.6m-2.8 1.3c0 .6-.4.7-1 .4-.5-.3-1-1.1-1-1.6 0-.6.5-.7 1-.4.6.3 1 1.1 1 1.6m-2 1.5c0 .8-.4 1.4-.9 1.4-1.1 0-2.2-2.6-1.4-3.4.9-.9 2.3.3 2.3 2m-3.2 1.8c.3 1.2-.1 1.7-1 1.4-.7-.3-1.5-1.3-1.6-2.2-.3-1.2.1-1.7 1-1.4.7.3 1.5 1.3 1.6 2.2m-9.1.3c-.4.3-.7 0-.7-.7s.3-1 .7-.7c.3.4.3 1 0 1.4m-.3 2.5c2.2 3.1 2 4.8-.4 4.8-1.3 0-2.4-1-3-2.6-1.7-4.5.8-6 3.4-2.2m3.6-.1c0 .5-.4.9-1 .9-.5 0-1-.7-1-1.6 0-.8.5-1.2 1-.9.6.3 1 1 1 1.6m0 3.4c0 .3-.2.5-.5.5s-.5-.2-.5-.5.2-.5.5-.5.5.2.5.5M562.6 951.9c-.6.9 4.1 3.7 4.9 2.9.3-.3-.6-1.3-1.9-2.2-1.4-.8-2.7-1.2-3-.7M571.4 958.6c1.5 1.4 3.1 2.2 3.5 1.9.7-.8-3.6-4.5-5.3-4.5-.6 0 .2 1.2 1.8 2.6M577 961.8c0 1 6 4.5 6.6 3.9.5-.5-4.9-4.7-6-4.7-.3 0-.6.4-.6.8M309.6 966.9c-2.7 3-1 6.8 2.7 6.2.4 0 .7.8.7 2 0 1.8-.4 2-2.6 1.5-1.9-.5-2.5-.3-2.2.6.6 1.8 3.6 2.2 5.3.8 2-1.7 1.9-9.4-.1-11.4-1.9-2-1.7-2-3.8.3m3.4 3.2c0 2-1.5 2.6-2.5.9-.9-1.5.3-4.3 1.5-3.5.5.3 1 1.5 1 2.6M329.1 966.4c-.6.7-1 2.4-1 3.7.1 1.3-.1 3.1-.5 3.9-.3.9 0 2.4.8 3.5 1.2 1.6 1.8 1.8 3.3.9 2.6-1.6 2.9-11 .3-12.4-1.3-.7-2.1-.6-2.9.4m2.9 2.6c0 1.1-.4 2-.9 2-1.4 0-2.3-1.8-1.6-3 1-1.7 2.5-1.1 2.5 1m0 6c0 1.1-.4 2-.9 2-1.4 0-2.3-1.8-1.6-3 1-1.7 2.5-1.1 2.5 1M338.5 966.6c-2.2 2.3-1.7 10.3.8 11.8 1.5.9 2.1.7 3.3-.9 1.9-2.6 1.4-4.8-1.4-6-2.3-1-2.9-2.9-1.3-4 .5-.3 1.2-.1 1.6.5s1.1.8 1.6.4c.6-.4.6-1.1-.2-2-1.5-1.8-2.4-1.8-4.4.2m3.5 8.5c0 2-1.5 2.6-2.5.9-.9-1.5.3-4.3 1.5-3.5.5.3 1 1.5 1 2.6M357.6 966.9c-2 2.2-2.1 8.1-.2 10.7 3.1 4.1 6.9-2.5 5.2-9.1-.8-3-3.1-3.8-5-1.6m3.4 5.7c0 3.2-.4 4.4-1.2 4.2-1.4-.5-2.3-6.1-1.4-8.5 1.1-2.7 2.6-.2 2.6 4.3M367.2 966.2c-.5.7-1 3.3-1 5.8 0 4.7 1.1 7 3.4 7 2.1 0 3.6-3.7 2.5-5.8-.7-1.3-.6-2.3.1-3 .9-.9.7-1.7-.7-3.2-2.1-2.3-2.9-2.5-4.3-.8m3.3 2.8c0 .7-.6 1.5-1.2 1.7-.8.3-1.3-.4-1.3-1.7s.5-2 1.3-1.8c.6.3 1.2 1.1 1.2 1.8m0 6c0 .7-.6 1.5-1.2 1.7-.8.3-1.3-.4-1.3-1.7s.5-2 1.3-1.8c.6.3 1.2 1.1 1.2 1.8M386.6 967.2c-4 5.6.2 15.3 4.4 10.3 1.8-2.1.4-6.5-2-6.5-1.1 0-2-.6-2-1.4 0-2.2 1.9-3 3.5-1.6 1.8 1.5 2-.1.3-1.8s-2.5-1.5-4.2 1m3.4 7.9c0 2-1.5 2.6-2.5.9-.9-1.5.3-4.3 1.5-3.5.5.3 1 1.5 1 2.6M299 968.1c-.9 1.6-.8 2.4.5 3.9.9 1 2.4 1.6 3.2 1.3 1.1-.4 1.4-.1 1.1 1.3-.2 1.2-1.2 1.9-2.6 1.8-2.6-.1-2.4 1.9.2 2.4 3.7.7 6-6.4 3.6-10.9-1.4-2.5-4.6-2.4-6 .2m4.6 1c1 1.7-1.3 3.6-2.7 2.2-1.2-1.2-.4-3.3 1.1-3.3.5 0 1.2.5 1.6 1.1M318.5 967c.3.5 1.3 1 2.1 1 1.7 0 1.7-.1-.2 4.5-1.5 3.7-1.3 6.5.5 6.5.5 0 1.1-1.7 1.4-3.8.3-2 .9-4.9 1.2-6.5.7-2.5.5-2.7-2.4-2.7-1.9 0-3 .4-2.6 1M377.5 967.4c-1.6 1.2-1.6 1.3-.1 1.9 1.2.5 1.6 1.9 1.6 5.2 0 2.8.4 4.4 1 4 1.2-.8 1.3-11.2.1-11.9-.4-.3-1.6.1-2.6.8M586.7 967.8c-.3.4 1 1.7 2.9 3 1.9 1.2 3.4 1.8 3.4 1.3 0-1.4-5.8-5.3-6.3-4.3M347.5 973c-.4.6.7 1 2.4 1s3.1-.5 3.1-1c0-.6-1.1-1-2.4-1-1.4 0-2.8.4-3.1 1M595 973.7c0 .5 1.6 1.8 3.5 3.1 4.2 2.7 4.7 1.2.6-1.7-3.1-2.2-4.1-2.6-4.1-1.4M606 980.9c0 .6.5 1.3 1 1.6.6.3 1 1.7 1 3.1 0 1.3.5 2.4 1 2.4 1.4 0 1.2-4.2-.4-6.3-1.4-1.9-2.6-2.2-2.6-.8M603.3 990.3c-2.2 1-3.1 2.7-1.5 2.7 1.2 0 4.8-2.8 4.2-3.3-.3-.2-1.5 0-2.7.6M588.1 996.5c-7.5 4.6-9.5 5.3-10.6 3.5-.3-.6-1.9-1-3.4-1-2.1 0-3.4.9-5.4 4.1-1.5 2.2-2.7 5.1-2.7 6.4 0 2.9 5.2 8.5 7.9 8.5 1.9 0 2.1.5 2.1 7.4 0 4.1.5 7.8 1 8.1.6.4 1-2.2 1-7.2 0-7.8 0-7.9 2.9-9 2.5-.9 3-1.7 3.3-4.9.3-3.5.8-4.1 7.3-8 7.8-4.7 9.5-6 9.5-7.4 0-1.2-3.7-5-4.7-5-.5 0-4.1 2.1-8.2 4.5m9.9-1c.7.9.8 1.5.2 1.5-.5 0-1.2-.7-1.6-1.5-.3-.8-.4-1.5-.2-1.5s.9.7 1.6 1.5m-2 1.6c0 .5-.5.7-1.2.3-.8-.5-.9-.2-.5.9.8 2.1-.6 2.2-2.2.3-1-1.1-.8-1.5.6-1.9 3-.8 3.3-.7 3.3.4m-4.6 3.5c.5 1.4.4 1.5-.9.4-1.7-1.4-1.9-2-.6-2 .5 0 1.2.7 1.5 1.6m-2.6 1.5c.2.9-.9 2.4-2.4 3.4-2.6 1.7-2.8 1.7-4.1-.1-1.2-1.7-1.1-2.1.8-3.7 2.6-2.1 5.2-1.9 5.7.4m-11.2.4c4.2 2.9 5.9 12.2 2.4 13.3-1.3.5-1.3.3-.1-1.1 2.9-3.6-1.1-11.7-6.4-13-2-.5-2-.5 0-.6 1.1 0 3 .6 4.1 1.4m-2.9 2.1c-.3.3-1.2.4-1.9.1-.8-.3-.5-.6.6-.6 1.1-.1 1.7.2 1.3.5m-1.7 3.4c2.2 2.2 2.8 8 .7 8-3 0-5.7-3.1-5.7-6.6 0-4 1.9-4.5 5-1.4m5 .7c-.1 2.7-.1 2.7-1.5.9-1.9-2.5-1.9-3.6 0-3.6 1 0 1.5 1 1.5 2.7m1.5 4.3c-.3.5-1.1 1-1.6 1-.6 0-.7-.5-.4-1 .3-.6 1.1-1 1.6-1 .6 0 .7.4.4 1M475.2 1008.1c-2.8 4.4-.5 12.7 3.1 11.3 2.2-.8 3.1-4.4 2.3-8.8-.8-4-3.7-5.3-5.4-2.5m3.6 5.1c-.2 2.4-.7 4.3-1.3 4.3-.5 0-1.1-1.9-1.3-4.3-.3-3.3 0-4.2 1.3-4.2s1.6.9 1.3 4.2M485.6 1007.6c-2 1.9-2.1 9.7-.2 11.3.7.6 2.1.9 3 .5 2.4-.9 2.1-6-.5-7.8-1.2-.8-1.8-1.9-1.4-2.6.5-.8 1-.8 2 0 .9.7 1.5.8 1.9.1.4-.6-.2-1.5-1.3-2-1.5-.8-2.3-.7-3.5.5m2.4 7.9c0 1.4-.4 2.5-.9 2.5-1.2 0-1.9-2.1-1.3-3.8.8-2.1 2.2-1.3 2.2 1.3M419 1008.5c-1.8 2.1-.4 6.5 2 6.5 2.2 0 2.5.8 1 3-.9 1.3-1.1 1.3-1.9 0-.6-.8-1.3-1.1-1.7-.7-1.3 1.2 1.3 2.9 3.4 2.3 1.4-.5 2.1-1.8 2.4-4.4.9-6.7-2.1-10.5-5.2-6.7m3.8 2.8c.2 1-.3 1.7-1.2 1.7-1 0-1.6-.9-1.6-2.1 0-2.4 2.3-2.1 2.8.4M428 1009c-1.3 2.4.3 6 2.5 6 .8 0 1.5.6 1.5 1.3 0 2.1-1.2 2.8-2.7 1.6-1-.9-1.3-.8-1.3.5 0 2.3 3.7 2 5-.3.5-1.1 1-3.5 1-5.3 0-5.4-3.8-7.8-6-3.8m4 2.1c0 2.4-2.3 2.1-2.8-.4-.2-1 .3-1.7 1.2-1.7 1 0 1.6.9 1.6 2.1M437 1008c0 .5.9 1 2 1 2.3 0 2.4.6.5 4-1.7 2.9-2 7-.5 7 .6 0 1-1 1-2.3.1-1.2.7-3.3 1.5-4.7 2.4-4.2 1.9-6-1.5-6-1.6 0-3 .4-3 1M446.9 1008.6c-.9 1.1-1 2-.2 3.2.7 1.2.7 2.2 0 3.4-.8 1.2-.7 2.1.2 3.2 3 3.6 5.7.9 5.6-5.4-.1-5.8-2.7-7.8-5.6-4.4m3.9 1.6c-.6 1.8-2.8 2.1-2.8.4 0-.9.7-1.6 1.6-1.6s1.4.5 1.2 1.2m-.3 5.8c0 .7-.6 1.5-1.2 1.7-.8.3-1.3-.4-1.3-1.7s.5-2 1.3-1.8c.6.3 1.2 1.1 1.2 1.8M456.7 1007.7c-.4.3-.7 3-.7 5.9 0 5.5 1.8 7.6 4.6 5.3 2.1-1.8 1.7-4.5-1.1-6.6-1.8-1.3-2.2-2.2-1.6-3.2.8-1.2 1.2-1.2 2.5-.2 1.3 1.1 1.6 1.1 1.6-.3 0-1.6-4-2.3-5.3-.9m3.3 8.4c0 2-1.5 2.6-2.5.9-.9-1.5.3-4.3 1.5-3.5.5.3 1 1.5 1 2.6M494.9 1008.7c-1.1 1.3-1.1 1.7-.1 2 .7.3 1.2 2.1 1.2 4.3 0 2.1.5 4.2 1 4.5.6.4 1-1.8 1-5.9 0-6.8-.7-7.9-3.1-4.9M503.7 1007.6c-.4.4-.7 1.7-.7 2.8.1 1.9.2 1.9 1.1.3.5-.9 1.4-1.7 1.9-1.7 1.4 0 1.2 2.1-.4 3.9-.7.9-1.7 2.6-2.1 3.9-.7 2.5 1.3 3.9 4.3 2.7 1.5-.6 1.4-.8-.7-1.6-2.4-.9-2.4-.9-.2-3.3 2.8-2.9 2.5-7-.4-7.4-1.2-.2-2.4 0-2.8.4M466 1014c0 .5 1.4 1 3.1 1s2.8-.4 2.4-1c-.3-.6-1.7-1-3.1-1-1.3 0-2.4.4-2.4 1M333 1025.1c-19.5.3-35.9.7-36.3.8-.4 0-.6 5.4-.5 11.8l.3 11.8 45-.3c24.7-.2 45.3-.6 45.6-1 .4-.4.5-6 .2-12.5l-.6-11.7-9.1.2c-5 .1-25.1.5-44.6.9m51 11.2v10.4l-35.7.9c-19.7.5-38.7.9-42.3.9h-6.5v-21l26-.5c14.3-.3 33.3-.6 42.3-.8l16.2-.3z"/><path d="M339.7 1028.6c-1.1 1.1-.8 4.4.3 4.4.6 0 1-.5 1-1 0-.6.7-1 1.6-1 1.2 0 1.4.5.9 1.7-1.3 3.1-1.9 12.7-.8 12 .6-.4 1.3-3.3 1.6-6.4.3-3.2.7-6.7.9-7.8.2-1.5-.3-2.1-2.2-2.3-1.4-.2-2.9 0-3.3.4M351 1029.9c-1.8 3.5-1.2 7 1.5 8.3 2.5 1.1 3.3 3.2 1.6 4.3-.5.3-1.2.1-1.6-.5s-1.1-.8-1.6-.4c-1.3.7.8 3.4 2.7 3.4 4.9 0 4.1-16.9-.8-17-.4 0-1.2.9-1.8 1.9m3.8 3.9c.2 2.4-.1 3.2-1.2 3.2-1.2 0-1.6-1-1.6-3.6 0-4.5 2.4-4.2 2.8.4M362 1029.9c-1.7 3.4-1.2 11.6.9 13.5 1.6 1.4 2 1.5 3 .2 2.2-2.6 2.5-9 .7-12.4-1.9-3.7-3.1-4-4.6-1.3m4 6.6c0 2.2-.4 4.6-.9 5.4-2.2 3.4-3.3-5.1-1.5-10.9.9-2.5 2.4 1 2.4 5.5M307.2 1030.2c-1.7 1.7-1.6 13.3.2 14.7 1.1.9 1.8.8 3-.5 2.3-2.2 1.7-7.5-.9-8.9-1.2-.6-1.9-1.8-1.7-2.8.4-1.8 2.2-2.4 2.2-.6 0 .5.5.7 1 .4.8-.5.7-1.1-.1-2.1-1.4-1.7-2.1-1.8-3.7-.2m2.8 9.7c0 1.7-.4 3.2-.9 3.5-1.1.7-2.4-4.1-1.6-5.4 1.2-2 2.5-.9 2.5 1.9M318.1 1030.4c-.7.9-1.1 4-.9 7.8.3 6 .4 6.3 2.8 6.3 1.9 0 2.6-.6 2.8-2.4.6-3.9-.7-7.1-2.8-7.1-1.1 0-2-.6-2-1.4 0-1.9 2.3-3.3 2.8-1.8.2.7.8 1 1.2.7 1.3-.8.1-3.5-1.5-3.5-.7 0-1.8.6-2.4 1.4m3.4 9.6c0 3.6-2.9 3.3-3.3-.3-.3-2.3 0-2.8 1.5-2.5 1.2.2 1.8 1.2 1.8 2.8M329.8 1037.7c1.2.2 3 .2 4 0 .9-.3-.1-.5-2.3-.4-2.2 0-3 .2-1.7.4M571.6 1036.3c-1.3 1-1.7 2.4-1.4 6.7.3 5.1.5 5.5 2.8 5.5 2.1 0 2.6-.5 2.8-3.3.3-2.7-.1-3.5-1.7-3.9-1.2-.3-2.1-1.4-2.1-2.4 0-2.1 1.6-2.6 2.3-.7.2.7.8 1 1.3.5.4-.4.1-1.4-.7-2.2-1.2-1.3-1.8-1.3-3.3-.2m2.7 8.1c.6 1.5-.1 2.6-1.5 2.6-.4 0-.8-.9-.8-2 0-2.3 1.5-2.7 2.3-.6M589.6 1036.9c-3 3.3-1.3 12.1 2.4 12.1 1.9 0 3.9-3.2 4-6.3 0-5.7-3.6-8.9-6.4-5.8m3.7 4.6c.3 1.7.2 3.7-.3 4.4-1.3 2.3-3 .2-3-3.8 0-6.2 2.2-6.5 3.3-.6M599.3 1036.2c-.6.7-1.1 3.4-1.1 6 0 5.4 1.9 7.9 4.6 6.1 2.5-1.5 2.6-11 .1-12.3-2.3-1.3-2.5-1.3-3.6.2m3.2 2.6c0 1.8-2 1.5-2.3-.4-.3-1 .1-1.5 1-1.2.7.3 1.3 1 1.3 1.6m0 6.2c0 .7-.6 1.5-1.2 1.7-.8.3-1.3-.4-1.3-1.7s.5-2 1.3-1.8c.6.3 1.2 1.1 1.2 1.8M617.6 1036.5c-.8 2.1-.8 7.9 0 9.9.9 2.2 4.1 2 5.4-.4 1.4-2.6-.3-6-3-6-1.4 0-1.8-.5-1.3-1.6.3-1 1.3-1.4 2.5-1.1 1.2.4 1.8.1 1.5-.6-.6-1.9-4.4-2-5.1-.2m3.9 7.8c0 2.6-2 2.5-2.3-.2-.3-1.6.1-2.2 1-1.9.7.3 1.3 1.2 1.3 2.1M543 1037.4c-1.7 2.2-.8 6 1.8 7.1 2.7 1.2 2.3 3.1-.7 2.7-2.9-.3-2.2 2.2.7 2.6 2.8.4 4.6-3.1 3.9-8.1-.7-5.2-3.3-7.1-5.7-4.3m3.4 2.2c.7 1.8 0 3.4-1.5 3.4-.5 0-.9-1.1-.9-2.5 0-2.8 1.5-3.4 2.4-.9M560.9 1038.1c-.7 1.5-.8 2.4 0 3.2.7.7.7 1.6 0 2.9-1.3 2.5.6 5 3.5 4.6 1.8-.3 2.1-1 2.2-5.3.1-2.8-.3-5.6-.9-6.3-1.4-1.8-3.5-1.5-4.8.9m4.1 1.4c0 .8-.7 1.5-1.5 1.5-1.6 0-2-1.2-.8-2.3 1.1-1.2 2.3-.8 2.3.8m-.4 7.1c-.4 1.2-1 1.4-1.7.7-.5-.5-.7-1.7-.3-2.7.4-1.2 1-1.4 1.7-.7.5.5.7 1.7.3 2.7M609.1 1037.4c-.9 1-.8 1.5.3 1.9.9.4 1.6 2.3 1.9 4.9.3 3.5.4 3.1.5-2 .2-6.2-.5-7.5-2.7-4.8M533 1038.5c-1.6 2 .3 6.7 2.4 6.3.8-.2 1.5 0 1.5.4.3 2.6-.1 3-2.4 2.4-1.4-.4-2.5-.2-2.5.3 0 1.6 4 2.3 5.5 1.1 1.5-1.3 2-7.5.9-10.4-.8-2-3.8-2.1-5.4-.1m4 2.6c0 2-1.5 2.6-2.5.9-.9-1.5.3-4.3 1.5-3.5.5.3 1 1.5 1 2.6M551.5 1038c.3.5 1.3.6 2.2.3 1.3-.5 1.5-.2.9 1.8-1.4 4.9-1.8 8.9-1 8.9.5 0 1.4-1.9 2-4.3.6-2.3 1.4-5 1.9-6 .6-1.4.2-1.7-3-1.7-2 0-3.4.4-3 1M581.3 1043.7c.9.2 2.5.2 3.5 0 .9-.3.1-.5-1.8-.5s-2.7.2-1.7.5M563.8 1091c-16.4.3-28.1.9-28.7 1.5s-.8 5.3-.4 12.3l.6 11.3 42.6-.6c23.4-.4 43.2-.8 43.9-1 .9-.3 1.2-3.7 1.2-12.5v-12.1l-15.7.3c-8.7.2-28.3.5-43.5.8m56.2 11.5v10.5h-18.3c-10.1 0-28.6.3-41 .7l-22.7.6V1093l24.8-.3c13.6-.1 32-.3 41-.5l16.2-.2z"/><path d="M575.7 1094.6c-1.1 1.1-.8 4.4.3 4.4.6 0 1-.5 1-1 0-.6.7-1 1.6-1 1.2 0 1.4.5.9 1.7-1.4 3.2-2.2 10.2-1.4 11.5 1 1.6 1.6 0 2.3-6.7.3-2.8.6-5.9.8-7 .2-1.5-.3-2.1-2.2-2.3-1.4-.2-2.9 0-3.3.4M587.2 1095.2c-.5.7-1 4.1-1 7.5-.1 6.8 1.6 9.6 4.6 7.6 2.2-1.3 2.5-12.8.4-14.9-1.7-1.7-2.7-1.8-4-.2m3.6 3.6c.2 1.5-.2 2.2-1.2 2.2-1.1 0-1.6-.9-1.6-2.6 0-3.1 2.3-2.8 2.8.4m-.3 7.2c0 2.7-2 3.8-2.8 1.5-.8-2 .3-4.7 1.7-4.2.6.2 1.1 1.4 1.1 2.7M598 1096c-2.6 4.9-1.1 14 2.4 14 3.3 0 4.8-9.9 2-13.8-1.9-2.7-3-2.8-4.4-.2m3.4 1.6c.8 2.1.6 7.5-.4 9.9-1.3 3.3-2.5-1.1-2.2-8.3.2-3.4 1.6-4.3 2.6-1.6M608.6 1100.9c-1.9 8.2-1.9 9.1-.6 9.1.6 0 1-1.2 1-2.6 0-1.9.4-2.5 1.8-2.2 1 .2 1.7 1.2 1.6 2.6 0 1.4.5 2.2 1.6 2.2 1.6 0 1.6-.4.2-5.3-.8-2.8-1.6-6.4-1.9-8-.9-4.5-2-3.1-3.7 4.2m3.4 1.3c0 .5-.4.8-1 .8-.5 0-1-1-1-2.3 0-1.8.2-1.9 1-.7.5.8 1 1.8 1 2.2M545.1 1096.4c-1.4 1.7-1.7 12.4-.3 13.8.5.5 1.8.8 2.8.6 3-.5 2.7-8-.3-9.3-2.3-1-2.9-2.5-1.6-3.8.3-.4 1.2-.2 2 .5 1.8 1.5 2.9.2 1.3-1.7-1.5-1.9-2.4-1.9-3.9-.1m2.7 9.8c-.2 1.8-.7 3.3-1.3 3.3-.5 0-1.1-1.5-1.3-3.3-.3-2.4.1-3.2 1.3-3.2s1.6.8 1.3 3.2M555.2 1097c-1.5 2.5-1.6 11.2 0 12.8 2 2 4.5 1.4 5.2-1.2.8-3.2-.9-7.6-2.9-7.6-.8 0-1.5-.9-1.5-2 0-2.2 1.6-2.7 2.3-.8.2.7.8 1 1.2.6 1.1-1-.2-3.8-1.7-3.8-.7 0-1.9.9-2.6 2m3.3 9c0 1.3-.6 2.5-1.2 2.7-.9.3-1.3-.6-1.3-2.7s.4-3 1.3-2.8c.6.3 1.2 1.5 1.2 2.8M564.3 1103.2c-.2.5 1.4.8 3.7.8 2.4 0 3.9-.4 3.5-1-.6-1.1-6.4-.9-7.2.2"/></svg>