<svg xmlns="http://www.w3.org/2000/svg" viewBox="0 0 878.25 1229.748" fill="currentColor"><path d="M569.275 166.074a1093 1093 0 0 1-11.93 2.25c-10.425 1.97-31.108 8.41-42.77 13.364-1.61.78-5.933 2.526-9.553 4.08-10.255 4.372-36.823 17.539-41.563 20.68-2.32 1.57-8.767 5.29-14.307 8.42-5.538 3.031-14.81 8.615-20.657 12.342-11.494 7.456-12.497 7.644-20.05 3.848-8.05-4.001-13.546-4.37-20.383-1.456-5.733 2.628-12.9 7.839-12.213 8.947.294.504-.009.7-.706.491-.797-.31-4.83 2.34-9.075 5.887s-7.981 6.4-8.281 6.396c-.3-.003-1.674-2.12-2.94-4.837-1.267-2.616-3.229-5.641-4.416-6.656-1.779-1.723-2.377-1.83-4.592-.658-1.309.684-2.933 2.564-3.554 4.256-1.453 4.182-1.453 12.183.196 16.204 1.357 3.417 1.357 3.417-13.931 18.326-8.909 8.589-17.3 15.784-19.917 17.151-7.95 3.9-40.61 24.392-47.377 29.707-.808.59-6.259 4.622-12.112 8.849-5.853 4.126-10.8 7.865-11.104 8.16-.304.297-3.638 3.055-7.577 6.106-22.83 18.215-43.304 39.859-49.972 53.176-2.36 4.671-5.432 18.433-5.512 24.733-.121 9.7 3.22 22.342 9.26 35.12 2.922 6.236 5.851 11.874 6.542 12.582.593.608 3.149 4.14 5.703 7.773 5.303 7.767 11.12 14.34 10.252 11.83-.288-.904-.078-1.702.422-1.696.6.008-.78-1.61-2.955-3.637-6.327-5.88-18.7-24.037-17.283-25.32.607-.592 2.485 1.232 4.643 4.56.885 1.21 3.15 3.94 4.924 6.062 1.875 2.024 5.127 5.865 7.193 8.591 2.067 2.626 4.043 4.551 4.347 4.255.303-.296-.282-1.504-1.368-2.617-1.872-2.224-1.872-2.224.613-.993s2.485 1.232.011-.9c-1.385-1.217-3.857-3.448-5.439-4.868-1.681-1.522-5.233-5.367-7.891-8.7-2.76-3.235-5.822-6.274-7.017-6.689-1.293-.516-2.862-3.036-4.215-6.754-1.26-3.216-2.616-6.733-3.002-7.838-1.552-3.82-2.841-12.637-2.664-18.835l.078-6.2 2.218 6.53c2.988 8.937 5.13 13.665 9.448 20.12 5.103 7.764 20.022 22.253 22.922 22.29.5.005-1.18-1.616-3.853-3.75-6.24-4.778-14.53-13.583-18.75-20.037-3.63-5.546-4.303-7.754-1.534-5.22 3.558 3.346 9.485 1.22 9.543-3.38.021-1.7-1.647-4.22-4.805-7.56-2.665-2.834-6.112-7.078-7.682-9.498s-3.629-5.646-4.71-7.16c-1.669-2.521-1.662-3.02-.208-7.303 2.277-6.172 8.811-16.79 12.756-20.341.304-.297 3.043-3.362 6.088-6.924 5.479-6.232 16.012-16.8 21.876-21.827 5.155-4.336 27.98-22.05 31.71-24.504 1.916-1.276 3.734-2.653 4.039-3.05.811-.889 38.823-25.513 46.783-30.214 3.829-2.252 7.35-3.908 7.849-3.801.597.207 4.642-3.342 9.198-7.785 4.458-4.545 8.401-7.995 8.697-7.692.69.81-16.318 17.297-17.21 16.685-.398-.205-1.012.888-1.433 2.583-.743 3.39-5.088 6.936-14.652 12.016-13.291 7.134-30.437 18.62-58.498 39.268-21.5 15.732-37.577 29.73-47.724 41.404l-4.06 4.75 3.265 2.74c9.398 8.22 39.033 29.493 45.395 32.574.696.308 5.163 2.965 9.929 5.725 12.408 7.356 47.285 25.296 49.385 25.322.2.003.108-.598-.183-1.302-.484-1.306 8.022-9.7 22.886-22.614 9.202-8.085 10.904-8.264 19.733-2.552 3.472 2.243 9.225 6.016 12.796 8.361l6.547 4.283-4.349 3.845c-2.427 2.17-9 7.888-14.463 12.92-6.474 5.819-10.814 8.964-12.112 8.848-1.2-.115-8.066-2.802-15.426-5.994-7.36-3.193-13.531-5.57-13.835-5.275-.303.197.788.91 2.38 1.53 1.593.62 4.178 1.853 5.768 2.673s3.282 1.442 3.782 1.448c.4.005 2.987 1.037 5.573 2.17a314 314 0 0 0 8.154 3.703c7.46 3.294 11.529 5.745 14.79 8.786 3.36 3.343 10.923 14.239 10.903 15.839-.013 1-1.318 1.383-10.037 2.874-3.608.554-8.42 1.494-10.726 1.965-8.422 1.694-26.312.77-37.877-2.076-5.982-1.475-12.364-2.956-14.158-3.378-1.796-.323-3.488-1.044-3.782-1.448-.294-.504-1.49-.919-2.689-.934-3.6-.045-.621 1.693 6.256 3.58 17.74 4.922 23.229 5.792 35.828 5.95 17.898.225 35.54-2.954 58.738-10.663 5.524-1.83 10.14-3.173 10.438-2.969.198.203-1.444 3.482-3.59 7.155-4.498 7.745-5.216 9.236-3.698 7.755.608-.593 2.547-3.669 4.288-6.947 8.29-14.997 18.382-30.271 23.956-36.102 5.978-6.225 19.6-15.855 22.3-15.82.8.01 3.285 1.24 5.566 2.77l4.164 2.852-6.505.418c-9.309.583-16.96 4.687-26.278 13.971-4.861 4.84-12.494 15.344-11.804 16.153.297.204 1.924-1.876 3.757-4.553 3.16-4.76 12.383-14.446 17.028-17.988 9.793-7.377 23.007-8.411 29.231-2.332 3.459 3.343 5.99 8.875 5.94 12.875-.03 2.3-.227 2.097-2.08-1.726-3.12-6.34-6.99-8.789-14.29-8.78-12.3-.055-25.128 9.985-34.845 27.264-1.84 3.177-3.077 6.062-2.78 6.265.197.303 1.724-1.878 3.26-4.759 5.632-10.43 11.82-17.353 21.3-23.634 4.638-3.042 5.642-3.33 12.741-3.24 6.7.084 7.996.4 10.17 2.528 3.852 3.748 5.967 10.576 5.765 18.674-.496 15.595-12.67 37.343-25.576 45.682-3.025 1.962-5.45 3.932-5.456 4.432-.017 1.3-6.959 4.613-11.369 5.357-6.615 1.217-12.396-.356-16.245-4.404-2.173-2.228-3.165-2.84-2.483-1.432.686 1.11.874 2.112.574 2.108-1.4-.018-7.453-3.794-12.701-7.96-4.952-3.863-5.74-4.873-5.312-7.068.533-2.593.533-2.593-1.398-.117-2.033 2.574-2.555 4.368-1.043 3.387.504-.294 1.499.119 2.29.829 8.2 8.003 21.713 14.974 30.704 15.787 5.793.573 7.197.29 13.031-2.437 6.239-3.022 15.132-10.41 21.834-18.427 5.887-6.926 12.148-19.649 14.166-29.024.532-2.594 1.14-3.186 3.34-3.158 3.4-.058 6.018-1.425 10.974-5.863 5.059-4.637 12.122-9.648 18.468-13.269 2.821-1.665 8.462-4.894 12.494-7.343 16.121-9.599 52.085-30.348 52.585-30.342.2.002 5.236-2.835 11.18-6.26 5.942-3.326 14.605-8.317 19.237-10.86 4.534-2.642 8.265-5.096 8.271-5.596.017-1.3-.487-1.006-6.94 3.113-3.327 2.159-6.249 3.922-6.549 3.918-.3-.003-5.436 2.832-11.38 6.258-5.942 3.325-16.519 9.393-23.469 13.306s-18.938 10.863-26.696 15.466c-7.757 4.503-17.933 10.475-22.667 13.116-11.985 6.75-15.718 9.303-22.994 15.312-3.537 2.956-6.565 5.118-6.762 4.916-.298-.204.024-1.9.548-3.794.523-1.893.845-3.59.547-3.793-.79-.81-2.662 4.967-2.39 7.17.179 1.703-.328 2.196-2.93 2.364-3.805.352-3.996-.35-1.614-6.821 2.277-6.172 2.442-19.271.308-24.498-.873-2.211-3.031-5.539-4.807-7.461-2.071-2.326-2.56-3.233-1.365-2.818.995.413 2.191.728 2.691.734 1.9.024 7.13 5.59 8.488 9.008.874 2.01 1.713 6.922 1.964 10.825.25 4.004.808 7.31 1.108 7.315.3.003 2.217-1.373 4.139-3.049 5.964-5.125 36.71-24.44 38.81-24.414.2.003 2.417-1.37 4.837-2.94 2.52-1.668 4.837-2.939 5.137-2.935.4.005 1.91-.776 3.424-1.857 1.512-.981 7.053-4.212 12.29-7.146 16.821-9.49 34.347-19.37 51.775-29.452 17.024-9.787 17.024-9.787 19.904-16.151 3.595-7.555 6.536-18.72 5.676-21.93-.475-2.007.233-2.598 6.77-5.516 8.65-3.891 22.913-8.813 23.504-8.105.197.202-.96 4.788-2.73 10.266-3.537 10.957-11.138 26.863-13.97 29.327-1.11.886-6.448 3.82-11.984 6.65-10.468 5.369-12.888 6.939-12.197 7.647.197.303 2.61-.767 5.329-2.233 2.618-1.467 8.154-4.298 12.18-6.347 4.027-2.05 8.16-4.698 9.175-5.885 1.829-2.278 1.829-2.278 5.698.171 11.315 6.843 16.492 8.708 24.293 8.706 8.102-.098 15.853-4.1 25.166-13.085 14.779-14.115 22.974-29.613 24.28-45.998.59-7.193 1.002-8.088 4.04-11.15 6.383-6.52 14.867-21.115 17.889-30.778.94-3.188 1.52-9.582 1.626-17.98.173-13.8-.211-15.005-6.326-21.882-.887-1.011-1.86-3.124-2.143-4.527-1.12-6.415-3.334-13.243-5.877-17.776-2.937-5.037-19.713-22.95-29.705-31.575-18.7-16.037-47.416-30.899-68.065-35.058-2.993-.638-7.88-1.6-10.773-2.236-6.084-1.277-22.084-1.378-27.2-.242m3.056 3.539c-8.44 3.094-26.639 10.866-31.774 13.602-25.67 13.378-28.987 14.737-37.195 15.333-11.01.662-33.572 5.479-32.29 6.895.298.204 3.405-.357 6.919-1.413 9.737-2.878 22.656-4.316 32.446-3.492 6.495.481 9.097.314 9.91-.676 1.828-2.277 12.693-7.341 15.492-7.306 2.3.029 18.44 4.932 25.504 7.821 1.294.516 1.694.522 1.003-.187-1.284-1.316-17.414-7.02-24.593-8.71-3.19-.74-5.78-1.673-5.774-2.073.014-1.1 23.654-12.103 37.624-17.628 10.25-3.972 13.06-4.637 18.759-4.565 14.899.187 39.109 7.492 56.59 17.013 15.595 8.496 26.59 16.935 41.999 32.23 8.693 8.61 9.479 9.72 7.965 10.8-1.009.688-2.316 1.272-3.016 1.263-1.7-.021-16.788 6.89-16.194 7.397.197.203 3.814-1.152 7.938-3 13.78-6.328 17.671-5.579 17.855 3.724.144 4.402.144 4.402.787 1.01.646-3.692 1.044-3.487 3.874 2.05 1.563 3.019 1.632 13.42.083 17.301-1.444 3.483-1.522 9.682-.247 11.698.686 1.109 1.007-.587 1.17-5.485.148-3.899.605-8.393 1.025-9.988.737-2.991.737-2.991 1.406-.483 1.147 4.215.067 18.503-1.329 18.185-.698-.109-1.302.184-1.31.784-.006.5.688 1.008 1.488 1.018 2.7.034-.839 10.99-6.968 21.215-1.532 2.58-2.871 5.664-2.884 6.664-.03 2.5-.43 2.495-3.997-.25-12.68-9.56-45.563 12.728-59.209 40.159-3.179 6.26-4.093 7.349-7.305 8.309-5.72 1.628-18.381 6.37-22.004 8.124-4.025 1.95-4.62 1.642-3.176-1.94 1.345-3.584 1.536-18.783.202-24-1.813-6.923-4.941-12.663-8.898-16.113-2.078-1.826-3.754-3.747-3.746-4.347.006-.5 2.84-3.165 6.375-5.92 15.96-12.701 24.197-23.498 24.405-32.096.157-4.499.157-4.499 11.751-11.954 12.601-7.942 15.221-9.51 20.66-12.541 2.013-1.075 5.336-2.833 7.35-4.008 2.014-1.075 5.94-3.126 8.558-4.493 2.717-1.366 4.734-2.74 4.437-2.944-.592-.608-12.673 5.74-26.778 13.964l-10.478 6.17-9.484-9.32c-19.458-19.347-28.962-27.067-45.83-37.68-4.367-2.655-8.043-4.601-8.346-4.305-.303.196.985 1.213 2.872 2.236 6.26 3.28 24.1 16.004 31.025 22.092 9.89 8.825 24.209 23.306 24.194 24.506-.008.6-2.835 2.765-6.26 4.722l-6.145 3.523-5.524-6.07c-4.634-5.259-14.714-14.886-24.014-22.904-4.058-3.351-19.625-14.047-24.295-16.506-6.06-3.177-6.667-2.684-.808.69 15.092 8.69 30.637 21.086 44.651 35.963 9.081 9.515 11.236 13.143 11.167 18.642-.106 8.4-6.108 16.525-21.872 29.428-4.446 3.644-8.995 7.487-10.106 8.373-1.112.987-4.543 3.444-7.57 5.606-3.027 2.062-5.752 4.028-6.057 4.424-.304.296-4.541 3.243-9.583 6.58-4.943 3.338-11.7 7.854-14.929 10.113-3.227 2.16-6.548 3.818-7.445 3.607-1.098-.214-.185-1.202 2.84-3.265 2.422-1.67 4.943-3.338 5.448-3.731.606-.493 4.844-3.44 9.584-6.58 9.784-6.678 11.398-7.758 18.971-13.563 3.03-2.262 6.053-4.124 6.853-4.114.7.008 1.51-.781 1.922-1.776.311-.897 2.741-3.266 5.265-5.135 7.771-5.602 19.115-16.96 21.471-21.432 3.074-5.861 2.95-11.863-.385-17.106-3.53-5.545-4.243-4.553-.818 1.39 2.253 3.829 2.534 5.332 1.99 8.826-1.398 7.783-7.592 15.206-22.945 27.314-3.031 2.462-5.759 4.628-6.064 5.024-.405.395-8.985 6.687-23.92 17.3-1.714 1.18-7.766 5.303-13.315 9.134-10.287 6.871-10.287 6.871-15.98 6.2-4.693-.56-6.596-.283-10.217 1.371-2.414 1.07-4.526 2.044-4.726 2.041-.2-.002-.28-1.603-.256-3.503s-.419-6.506-.872-10.212c-1.925-13.925-3.824-29.95-4.076-33.754-.328-5.704-4.09-8.852-30.189-24.981-13.992-8.677-54.322-30.385-60.694-32.666-1.594-.52-2.882-1.436-2.875-2.036.028-2.2 38.41-24.42 47.349-27.407 2.41-.77 3.117-1.36 2.225-1.972-1.192-.715 24.776-13.89 41.065-20.886 22.623-9.616 52.027-17.747 64.728-17.688 4-.05 4-.05-2.43 2.37m-41.977 21.774c.882 1.411-12.404 8.145-15.398 7.707-2.196-.327-1.288-1.016 5.456-4.432 8.857-4.489 9.158-4.585 9.942-3.275m-123.918 40.446c14.33 5.68 48.318 22.71 61.42 30.674 2.876 1.837 5.458 3.27 5.658 3.272 2 .025 35.031 21.642 37 24.167 1.964 2.824 1.33 5.617-2.52 9.469-3.952 4.15-5.182 6.535-10.885 22.665-3.834 10.652-9.197 23.586-14.745 35.317-1.234 2.685-3.802 8.053-5.55 11.931-4.422 9.646-4.523 9.744-7.734 10.604-3.511.856-4.304.246-2.875-2.036 7.349-11.809 18.163-36.775 27.71-64.357 4.15-11.849 4.414-16.946 1.16-20.687-1.775-1.923-18.537-13.034-19.837-13.05-.3-.004-1.79-.823-3.176-1.94-4.163-2.953-10.32-6.33-10.826-5.937-.406.495-.209.697 18.253 11.83 12.705 7.66 17.153 11.817 17.101 15.916-.046 3.7-10.727 33.968-16.075 45.702-.72 1.591-2.163 4.973-3.194 7.46-3.406 8.358-12.625 25.744-14.751 27.817-1.62 1.58-3.325 1.959-8.724 1.89-3.799-.147-8.593-.607-10.788-1.035-2.194-.527-7.78-1.698-12.467-2.757-13.865-2.874-36.782-9.563-44.34-12.958-1.094-.514-5.073-2.164-8.954-3.713-3.78-1.647-11.833-5.449-17.895-8.525-24.046-12.403-35.711-23.15-44.19-40.859-5.847-12.174-7.383-9.293 16.309-32.397 11.642-11.255 23.586-22.606 26.62-25.268 3.032-2.562 4.552-4.143 3.343-3.458-1.309.683-2.32 1.57-2.324 1.87-.005.4-.812.99-1.716 1.28-1.003.287-.291-.704 1.63-2.38 1.92-1.576 3.934-2.651 4.429-2.245.496.306 1.198.115 1.605-.38.306-.496 2.327-2.17 4.346-3.645 2.12-1.574 3.54-3.156 3.246-3.66s-.19-.802.309-.696c.399.105 2.81-.865 5.33-2.333 7.453-4.207 10.054-4.274 18.808-.564 10.045 4.427 35.482 17.547 50.277 26.034 6.453 3.781 12.017 6.651 12.221 6.354.303-.196-.985-1.213-2.772-2.235-3.875-2.049-7.548-4.195-14.297-8.28-2.68-1.634-12.814-6.962-22.354-11.782-23.75-12-28.724-14.162-32.424-14.209-1.4-.017-4.41.845-6.724 1.916l-4.226 2.047 3.538-3.056c3.841-3.252 12.086-6.749 16.086-6.698 1.4-.083 5.884 1.274 9.964 2.925m-55.34 10.706c1.186 1.215 2.749 4.134 3.52 6.444 1.253 3.716 1.246 4.316-.068 5.4-1.212.985-1.217 1.385-.226 2.097.991.713.89.811-.208.598-1.596-.32-7.042 3.311-7.06 4.711-.004.4 1.204-.285 2.82-1.564 1.517-1.281-2.433 2.67-8.71 8.79-6.378 6.121-11.74 10.954-11.936 10.652-.394-.405 14.592-15.118 16.91-16.59 1.109-.685 1.111-.885-.288-.903-1.2-.015-1.883-1.424-2.637-5.033-1.414-6.919-1.28-9.617.67-13.593s4.254-4.247 7.214-1.01m18.678 1.934c-1.014 1.088-2.123 1.774-2.319 1.471-.296-.303.315-1.196 1.425-1.982 2.725-1.966 3.023-1.762.894.511m264.767 12.228c.784 1.31-12.428 10.145-14.12 9.524-2.39-.93-1.575-2.02 4.978-6.238 6.454-4.22 8.262-4.897 9.142-3.286m80.246 4.81c5.103 7.764 5.345 12.367.947 20.113-4.604 8.242-14.452 20.02-15.736 18.703-.495-.406 3.402-8.057 5.64-11.13 2.644-3.467 5.377-14.033 5.675-21.83.16-4.698.608-8.593 1.008-8.588s1.485 1.219 2.466 2.731m2.945 28.238c-2.158 12.574-8.423 25.697-16.64 34.894-3.043 3.462-3.043 3.462-2.405.47 1.685-6.78 1.973-13.776.917-17.29-1.153-3.715-1.153-3.715 5.329-10.234 3.645-3.554 8.115-9.099 9.955-12.276s3.566-5.255 3.757-4.553c.192.703-.16 4.799-.913 8.99m-22.567 13.218c3.258 3.341 3.354 3.642 3.256 11.442-.054 4.3-.618 9.393-1.24 11.185-1.242 3.285-1.242 3.285-2.98-1.638-2.126-5.927-7.059-11.29-14.797-16.287-3.274-2.041-5.85-3.974-5.845-4.374.015-1.2 9.348-3.782 13.948-3.725 3.6-.054 4.794.46 7.658 3.397m-182.215.01c2.44 20.732 3.144 28.342 3.612 38.849.317 6.604 1.043 12.514 1.534 13.22.59.807.079 1.701-1.936 2.876a410 410 0 0 0-6.349 3.82c-3.828 2.252-27.27 13.459-31.49 15.006-3.618 1.355-3.502.056.507-8.594 2.98-6.363 8.126-17.9 13.999-31.627 1.341-3.283 3.406-8.458 4.444-11.445 4.668-13.342 6.523-17.72 9.48-22.183 1.632-2.58 3.658-4.654 4.358-4.645.7.008 1.476 1.918 1.841 4.723m163.856 4.56 4.17 2.352-5.505.431c-3.004.262-8.021 1.6-11.241 3.159-5.735 2.728-19.077 13.961-21.226 17.835-.614 1.092 2.418-1.37 6.67-5.517 10.427-10.07 17.372-13.583 27.171-13.46 6.7.085 7.297.292 10.757 3.536 3.657 3.446 7.074 10.09 6.249 12.08-.208.597-.703.19-1.19-.916-2.131-5.427-7.79-8.798-14.69-8.785-17.701-.022-37.98 22.025-43.193 46.961-1.806 8.378.06 19.102 4.009 23.152 5.234 5.266 11.615 6.847 17.948 4.226 4.524-1.843 5.324-1.833 3.801-.052-.608.692-3.626 2.054-6.738 3.015-9.336 2.783-18.509.568-22.036-5.277-3.23-5.541-3.987-8.95-3.978-17.651.047-11.7 4.101-23.95 11.535-34.558 1.629-2.28 2.758-4.566 2.364-5.07-1.272-2.217 12.819-17.341 22.506-24.22 5.752-4.128 7.054-4.212 12.617-1.241m-363.482 4.232c6.894 16.388 23.203 31.694 46.258 43.385 23.553 11.897 46.157 19.682 75.281 25.848 8.278 1.804 12.662 3.16 12.652 3.96-.01.7-1.532 2.48-3.25 3.859-1.818 1.477-3.838 3.052-4.544 3.543-.606.492-8.57 5.593-17.644 11.38-32.967 20.987-47.29 30.707-61.33 41.832-1.92 1.476-4.136 2.748-4.836 2.74-.7-.01-3.878-1.75-6.95-3.988-9.32-6.418-20.834-13.363-22.234-13.38-1.9-.025-6.74 3.115-11.9 7.85-18.108 16.474-24.78 22.19-25.676 21.88-1.893-.624-32.597-16.412-38.852-19.99-12.311-7.156-14.197-8.28-31.261-19.195-8.632-5.509-8.533-5.407-4.372-10.256 1.929-2.275 8.815-9.09 15.29-15.009 8.5-7.893 11.542-11.255 11.361-12.758-.27-2.403-4.34-4.755-16.678-9.81-4.677-1.86-8.655-3.61-8.854-3.712-.791-.71 2.444-3.47 14.864-12.914 25.646-19.48 50.054-35.874 68.18-45.747 4.733-2.64 9.17-5.485 9.88-6.276 1.116-1.286 1.314-1.184 2.19.827.483 1.307 1.549 4.02 2.425 5.931m280.266 4.423c6.13 5.577 8.631 13.51 8.46 27.108-.177 14.099-.7 15.892-5.634 18.63-2.318 1.372-10.578 6.168-18.536 10.669-7.858 4.601-14.605 8.317-14.905 8.313s-2.516 1.268-4.938 2.938c-2.42 1.57-4.537 2.943-4.837 2.94-.2-.003-16.62 9.491-36.569 21.142l-36.167 21.047-.958-11.313c-1.233-13.317-1.888-16.825-4.315-22.656-.97-2.412-1.716-6.722-1.68-9.622.067-5.3.067-5.3 8.912-8.789 4.824-1.94 14.081-6.423 20.626-9.941 13.595-7.43 15.504-8.206 14.282-6.421-1.838 2.977 4.15 4.052 8.88 1.711 3.12-1.66 6.024-1.924 5.206-.534-.306.496-4.338 3.046-8.873 5.789-4.634 2.642-11.284 6.559-14.91 8.713-6.45 3.82-13.095 7.436-24.371 13.395-3.221 1.66-5.844 3.427-5.849 3.827-.008.7 6.029-2.225 18.616-9.067 4.933-2.638 28.71-16.54 35.26-20.559 3.327-2.058 7.652-4.004 9.557-4.38 5.113-1.036 8.94-3.188 10.172-5.672.515-1.194 4.253-4.247 8.285-6.697 27.821-17.452 35.988-22.75 35.495-23.256-.297-.303-2.913.964-5.738 2.928-11.493 7.357-28.731 18.24-32.659 20.392-4.23 2.347-4.23 2.347-7.78-1.598-1.974-2.125-3.45-3.944-3.35-4.043.202-.097 3.933-2.55 8.369-5.395a586 586 0 0 0 22.7-15.716c1.412-.982 4.34-3.146 6.56-4.818 2.22-1.572 4.538-2.943 5.138-2.936.6-.092 3.078 1.74 5.551 3.87m93.431 6.074c7.037 5.089 8.986 17.114 4.832 29.363-7.585 22.607-25.812 40.579-40.81 40.39-10.3-.129-15.514-6.995-15.346-20.394.175-13.899 7.059-28.513 18.906-40.166 9.314-8.983 16.159-12.497 23.852-11.9 3.596.344 6.584 1.282 8.566 2.707m8.203 7.804c-.004.3-.206.497-.506.493-.3-.003-.498-.206-.494-.506s.206-.497.506-.493c.3.003.498.206.494.506m-150.98 13.304c6.553 3.882 8.177 9.903 3.35 12.043-4.425 1.944-9.943 3.375-15.048 3.71-6.708.617-11.378-1.842-13.312-7.067-1.841-4.723-.897-8.212 2.628-10.168 3.726-2.053 18.116-1.172 22.383 1.482m-19.302 16.058c1.8.023.877 1.811-1.23 2.285-3.21.86-5.196-.265-3.774-2.048.709-.69 1.914-1.076 2.61-.767.796.31 1.894.524 2.394.53m73.774 10.428c-.74 3.191-2.715 9.167-4.566 13.244-3.196 7.56-3.196 7.56-14.278 14.022-6.146 3.623-16.724 9.79-23.674 13.703s-15.915 9.1-20.046 11.55c-4.13 2.347-8.966 5.187-10.779 6.164-7.956 4.4-10.473 5.77-19.035 10.662-4.936 2.838-10.175 5.872-11.587 6.855-1.412.882-4.534 2.643-7.051 4.012-2.516 1.268-4.733 2.54-5.036 2.836-1.42 1.583-8.06 4.7-8.049 3.8.007-.5 1.05-3.988 2.196-7.573 1.245-3.585 2.315-9.172 2.455-12.37.17-5.499.376-5.996 3.295-7.56 4.13-2.348 12.996-7.537 45.737-26.527 15.214-8.91 29.618-17.13 31.934-18.4 2.216-1.272 11.786-6.753 21.054-12.137 9.872-5.676 17.32-9.383 17.813-8.876.494.506.359 3.304-.383 6.595m28.633 13.461c.48 1.606 1.644 4.521 2.522 6.232.878 1.811 1.36 3.218 1.06 3.214-1.1-.014-6.86-3.287-8.241-4.704-.692-.709-1.979-1.725-2.773-2.235-1.19-.715-.876-1.911 1.893-7.377 3.384-6.658 3.384-6.658 3.931-2.45.371 2.304 1.03 5.613 1.608 7.32m-411.083-11.867c.494.507 3.18 1.64 5.868 2.574 6.572 2.283 17.7 8.023 18.084 9.328.193.603-6.698 7.817-15.304 16.21-15.591 15.105-15.591 15.105-18.962 12.762-7.237-5.091-18.518-14.634-18.604-15.735.018-1.4 25.33-26.084 26.73-26.066.7.009 1.594.42 2.188.927m258.583 26.852c2.028 5.726 2.582 9.433 2.954 19.639l.442 12.506-5.133 2.636c-2.819 1.465-8.362 4.895-12.197 7.647-7.064 5.012-7.064 5.012-9.84 3.077-3.767-2.648-7.945-4.4-8.654-3.71-.303.297 1.68 1.622 4.364 2.956 5.169 2.465 5.759 3.272 3.835 5.148-.911.889-2.106.474-4.982-1.462-12.197-8.254-36.538 2.84-53.915 24.724-1.829 2.277-3.355 4.358-3.359 4.658-.002.2-1.845 3.577-4.092 7.35-3.065 5.161-4.992 7.237-7.403 8.107-1.708.679-4.12 1.548-5.224 1.935-3.017 1.262-21.387 6.731-22.387 6.719-.5-.006-3.354-3.643-6.499-8.082-3.24-4.742-7.482-9.395-10.26-11.23-2.576-1.833-4.856-3.462-5.054-3.664-.99-.813 16.918-17.189 33.79-30.778 9.295-7.484 42.68-29.966 65.559-44.08 2.821-1.664 5.543-3.43 6.05-3.924.605-.392 3.833-2.652 7.363-5.008 3.529-2.256 6.866-5.214 7.483-6.506.923-1.889 2.13-2.374 7.337-2.908 3.403-.258 8.414-1.095 11.123-1.76 4.914-1.139 4.914-1.139 5.551 3.87.365 2.804 1.797 8.223 3.148 12.14M181.374 418.32c1.37 2.417 5.405 7.668 8.954 11.713 5.522 6.27 6.404 7.681 5.484 9.27-1.33 2.383-6.233 2.622-8.006.4-.886-1.112-1.483-1.32-1.993-.526s-.908.589-1.294-.516c-.389-.905-.284-1.304.313-.996 1.686 1.12 1.11-.886-1.441-4.719-1.375-2.017-2.446-4.33-2.437-5.03.01-.8-.377-1.806-.77-2.41-.887-1.012-3.094-8.44-3.07-10.34.029-2.3 1.912-.976 4.26 3.154m296.263 20.724c-.246 3.697-1.716 9.28-3.368 13.359-2.684 6.667-3.394 7.458-10.356 12.37-4.137 2.949-7.471 5.607-7.476 6.007-.006.5-.41.795-1.01.788-.5-.007-.968-2.513-.93-5.512.038-3.1-.803-7.811-1.866-10.725-1.933-5.324-1.933-5.324.795-7.59 5.053-4.137 21.99-14.925 23.39-14.908 1 .013 1.182 1.415.821 6.211m-39.406 8.206c1.788 1.022 4.052 3.85 5.61 7.17 2.241 4.73 2.615 6.834 2.624 14.035-.059 4.7-.615 9.193-1.125 9.986-.714 1.092-1.008.588-.975-2.012.013-9-5.675-17.973-15.887-25.002-2.084-1.326-3.765-2.847-3.76-3.247.012-.9 5.735-2.728 8.535-2.693 1.1.014 3.39.743 4.978 1.763"/><path d="M521.327 201.374c-.407.595.588 1.008 2.188 1.028 2.2.028 2.502-.169 1.312-.984-1.885-1.223-2.685-1.233-3.5-.044M563.83 201.409c-.006.5 6.756 3.585 7.856 3.599.801-.09-6.05-3.977-7.05-4.09-.5-.006-.802.19-.806.49M532.788 204.619c3.586 1.145 7.369 2.492 8.464 2.906 1.093.514 4.676 1.96 7.959 3.3 3.285 1.242 6.367 2.68 6.96 3.188 1.186 1.115 2.788 1.035 2.101-.073-1.177-1.815-26.957-11.54-30.459-11.384-.8-.01 1.387 1.018 4.975 2.063M698.988 245.41c-2.984 6.663-9.554 12.181-30.528 25.919-18.656 12.266-44.681 30.04-45.897 31.326-.304.296-5.249 3.834-11.1 7.86-5.85 3.928-10.793 7.366-10.996 7.563-.202.198-.207.598.089.901.494.507 4.528-2.243 24.007-16.3 14.33-10.32 33.9-23.675 52.957-36.037 6.654-4.316 13.517-9.23 15.338-10.908 3.645-3.554 8.746-11.59 8.266-13.197-.192-.602-1.108.686-2.136 2.873"/><path d="M657.319 250.687c-2.44 3.07-2.544 3.469-1.086 6.787 1.266 2.716 8.317 6.705 12.016 6.752 1.3.016 3.811-.853 5.625-1.93 7.658-4.604 1.076-13.987-10.023-14.127-3.6-.045-4.806.44-6.532 2.518m13.896.375c7.35 4.093 5.559 11.27-2.84 11.165-7.5-.094-11.263-3.042-11.192-8.741.056-4.4 7.973-5.7 14.032-2.424M686.682 293.56c2.494.53 5.677 1.871 7.163 2.99 3.17 2.44 4.467 2.656 2.695.434-2.067-2.626-6.544-4.483-10.545-4.433-3.801.052-3.801.052.687 1.009M421.629 296.13c-1.716 1.278-2.128 2.173-1.434 2.681.694.51 1.379 1.718 1.565 2.82.185 1.203.977 1.813 1.88 1.624.802-.19 2.607-.567 4.21-.847 3.007-.462 3.624-1.855 1.137-2.886-.796-.31-1.98-1.625-2.464-2.931-.963-2.913-1.663-2.921-4.894-.462M709.646 296.548c-5.372 5.733-7.935 10.702-6.454 12.22 1.185 1.215 2.196.328 7.78-6.303 3.756-4.453 5.514-9.03 3.927-10.051-.496-.306-2.92 1.563-5.253 4.134m5.026-2.037c-.021 1.7-8.354 12.196-9.553 12.181-1.6-.02-.06-3.2 3.796-7.653 4.061-4.849 5.779-6.227 5.757-4.528M586.545 335.705c-7.556 4.405-9.788 6.877-8.52 9.493.587 1.008 1.476 1.919 2.076 1.926 2.1.027 16.006-8.399 16.628-10.091.625-1.993-1.041-4.714-2.941-4.738-.7-.008-3.92 1.551-7.243 3.41m8.396.305c-.425 1.995-11.413 8.957-14.114 9.023-1.101.087-1.792-.622-1.779-1.722s2.34-3.07 6.368-5.32c6.95-4.013 10.06-4.674 9.525-1.98M666.64 328.61c-2.816 1.265-6.848 3.815-8.97 5.588-4.348 3.746-13.717 17.13-13.749 19.629.09.901.9.011 1.925-1.976 7.382-14.408 18.5-23.67 28.199-23.547 17.098.214 15.772 26.2-2.37 45.373-5.777 6.028-13.633 10.43-18.733 10.366-3.7-.047-8.155-3.603-9.9-7.925-1.454-3.719-1.346-12.318.328-18.198.63-2.392.63-2.392-.694-.508-2.141 3.273-1.93 18.377.326 21.805 5.987 9.076 18.813 7.037 29.662-4.727 15.919-17.302 19.592-39.057 7.579-46.009-4.766-2.76-7.267-2.691-13.603.13M584.098 379.177c-.306.496-1.908.676-3.503.256-3.493-.644-3.908.551-1.04 3.187 1.087 1.014 1.963 2.925 1.947 4.225-.04 3.1 2.163 2.928 4.706-.44 1.423-1.883 1.946-3.677 1.668-5.48-.466-2.706-2.554-3.633-3.778-1.748M455.27 404.46c-4.433 2.645-13.297 7.634-26.187 14.772-23.667 13.104-68.007 39.85-76.083 45.848-.505.394-3.73 2.353-7.056 4.412-3.324 1.958-5.546 3.63-4.946 3.638.6.007 3.016-1.262 5.536-2.83 2.419-1.47 11.795-7.453 20.767-13.14 8.972-5.689 17.338-10.884 18.647-11.567 1.309-.684 2.519-1.469 2.822-1.765.408-.595 17.233-10.484 22.67-13.416a233 233 0 0 0 6.043-3.325c2.215-1.172 6.042-3.324 8.56-4.692 2.517-1.369 8.862-4.89 14.099-7.824s11.178-6.16 13.092-7.236c4.43-2.344 8.872-5.689 7.571-5.605-.5-.007-3.016 1.262-5.535 2.73M585.559 406.198c6.482 49.185 7.899 79.705 7.099 151.3l-.444 35.298 3.499.144 3.498.144-.422-22.107c-1.299-71.722-4.524-117.466-11.464-162.057-.831-5.51-2.5-8.032-1.766-2.722M223.097 440.646c-.314 1.096-1.025 1.987-1.725 1.978-2.1-.026-6.658 4.617-6.686 6.817-.094 7.5 10.647 12.235 15.713 6.998 3.142-3.261 3-7.963-.365-10.706-1.585-1.22-2.766-2.735-2.758-3.335-.055-3.6-3.339-4.942-4.179-1.752M250.595 456.893c-.016 1.3-.826 2.09-2.228 2.272-1.203.185-3.022 1.662-4.144 3.448-1.738 2.978-1.743 3.378-.28 6.297 2.148 4.227 7.617 6.696 11.537 5.145 3.82-1.552 5.041-3.237 5.189-7.035.127-2.199-.552-3.807-2.136-5.127-1.287-1.017-2.363-2.93-2.448-4.131-.163-3.003-5.452-3.87-5.49-.87M414.601 473.355c-5.032 2.537-11.406 8.357-15.58 14.305-4.787 6.84-2.872 5.664 2.72-1.566 11.283-14.56 25.93-18.175 30.999-7.71 2.243 4.528 1.91 15.124-.674 21.792-1.138 2.986-1.872 5.677-1.674 5.88.79.71 2.44-3.17 4.222-9.748 5.031-18.338-5.42-30.27-20.013-22.953M215.811 479.257c-1.37 5.583-2.395 47.374-1.356 60.188 1.565 18.721 6.087 56.78 6.968 58.292.195.403.752 3.81 1.306 7.517.918 6.512 1.841 12.624 3.6 23.947 1.02 6.314 8.932 53.117 9.315 54.522.096.3.6.007 1.308-.684.71-.691 2.015-1.175 3.015-1.162 2.2.027 2.219-1.472.318-9.397-.858-3.311-1.898-8.124-2.366-10.63-.369-2.505-2.064-10.827-3.667-18.548-1.504-7.72-3.854-19.65-5.167-26.567a3703 3703 0 0 0-3.755-19.549c-1.418-6.518-2.064-10.827-4.191-24.554-.838-5.011-2.104-15.628-4.526-37.76-1.176-9.916-.68-49.413.586-54.597.525-1.994.546-3.694.146-3.699s-1.115 1.186-1.534 2.681M224.31 479.464c-.018 1.4 30.6 16.086 31.612 15.098.303-.196-.688-.908-2.182-1.427-2.387-1.03-7.46-3.294-15.512-7.096-1.889-.923-5.663-2.97-8.244-4.503-5.062-3.064-5.66-3.272-5.674-2.072M258.61 487.596c.45 4.006 5.058 27.265 7.053 35.591 1.334 5.317 7.565 26.697 8.729 29.612.486 1.106 1.063 2.914 1.25 4.016.76 3.21 5.49 16.67 7.533 21.297.97 2.412 1.842 4.623 1.835 5.123-.012 1 10.866 26.639 16.513 38.91 2.238 4.93 5.45 11.97 7.004 15.59 3.894 8.45 23.488 48.899 27.882 57.355 1.854 3.623 5.37 10.368 7.81 15.1 2.441 4.73 7.134 13.29 10.461 19.132 5.874 10.075 8.612 15.01 14.286 25.082 2.545 4.432 2.842 4.636 7.738 4.997 5.596.37 6.103-.223 3.147-3.76-1.083-1.314-1.966-2.726-1.96-3.125.005-.4-.683-1.41-1.473-2.22s-2.653-3.733-4.22-6.353c-1.566-2.72-4.702-7.86-6.856-11.487-12.053-19.753-17.827-29.826-25.933-45.33-2.148-4.127-4.691-8.659-5.574-10.07-3.73-5.647-32.302-63.711-40.766-82.519-3.11-7.14-7.576-17.896-10.966-26.64-7.843-20.5-18.561-58.938-21.53-77.276-.83-5.611-2.598-8.234-1.963-3.025M274.621 486.797c-2.75 4.066-.788 6.99 6.187 9.078 11.755 3.648 28.303 7.857 30.703 7.887 1.5.019 2.91-.764 3.626-2.055 1.742-3.278-1.034-5.213-15.47-10.395-7.068-2.59-14.236-5.18-15.729-5.798-4.577-1.858-7.483-1.394-9.317 1.283m17.563 3.12c21.602 7.873 22 8.078 21.67 10.374-.433 2.695-4.728 2.24-21.771-2.374-13.455-3.67-17.93-5.626-17.903-7.825.019-1.5 3.06-4.762 4.46-4.745.6.008 6.674 2.084 13.544 4.57M383.694 489.668c-.923 1.788-1.443 3.382-1.246 3.684.297.204 1.212-.985 2.135-2.773s1.442-3.382 1.246-3.685c-.298-.203-1.213.985-2.135 2.774M232.593 496.77c5.465 2.768 11.332 5.442 12.926 5.962 1.692.622 5.476 1.97 8.459 3.307 2.985 1.238 5.078 1.764 4.486 1.156-.494-.506-5.565-2.87-11.237-5.141-5.67-2.372-12.433-5.357-14.917-6.688-2.583-1.333-5.767-2.673-7.161-3.09-1.397-.318 1.978 1.725 7.444 4.494"/><path d="M393.6 497.193c-.926 2.088-1.454 4.282-1.161 4.886.19.702.492.606.503-.294.11-.799.835-2.79 1.656-4.38.92-1.588 1.338-3.083 1.042-3.387-.196-.302-1.215 1.185-2.04 3.175M380.712 496.13c-.31.897-.627 2.193-.535 2.794-.008.7.499.107 1.015-1.187.517-1.294.833-2.59.535-2.794-.197-.202-.603.293-1.015 1.188M385.422 503.39c-3.645 11.456-2.406 24.272 3.115 30.642 1.872 2.224 7.44 4.794 10.44 4.832 1.101-.087-.189-.903-3.076-1.94-5.774-2.072-8.738-5.01-10.172-10.228-1.436-5.118-1.003-15.714.781-22.392 2.097-7.674 1.306-8.384-1.088-.914M223.088 497.05c-.01.8 10.813 7.037 16.88 9.713 10.642 4.634 19.899 8.15 19.908 7.45.005-.4-1.684-1.32-3.675-2.046-5.676-1.971-6.87-2.486-19.689-8.948a2398 2398 0 0 1-12.621-6.359c-.498-.206-.799-.11-.803.19M377.805 504.695c-1.67 5.48-1.87 21.378-.318 25.298.68 1.609 1.467 2.619 1.77 2.322.304-.296.02-1.5-.565-2.707-1.366-2.717-1.246-20.217.213-24.9.623-1.892.946-3.688.648-3.891-.197-.203-1.02 1.587-1.748 3.878M223.21 503.252c.988 1.013 1.982 1.525 2.385 1.23.305-.396-.485-1.206-1.777-1.822-2.185-1.228-2.185-1.228-.607.592M350.508 504.252c-2.206.472-5.915 1.126-8.218 1.397-2.305.37-4.919 1.438-5.831 2.427-2.23 2.372-.963 4.988 2.338 4.93 2.001-.076 2.202-.173.608-.593-2.891-.736-4.074-2.151-2.859-3.336 1.823-1.777 19.763-4.852 20.848-3.639 1.678 1.722-1.744 3.479-9.262 4.884-3.709.654-6.118 1.324-5.421 1.632 2.49.832 13.124-1.835 14.847-3.713.913-.989 1.432-2.482 1.143-3.386-.68-1.609-1.978-1.725-8.193-.603"/><path d="M390.597 505.356c-1.134 2.686-.766 13.191.398 16.106 1.65 3.921 5.609 7.271 9.5 8.02 3.69.746 10.82-1.464 14.458-4.519 1.515-1.18.21-.797-3.614 1.055-7.044 3.512-10.247 3.671-14.707.515-4.462-3.056-6.196-8.378-5.293-16.568.777-6.09.497-7.694-.742-4.61M226.986 505.2c-.018 1.5 32.702 16.012 34.213 15.13.502-.193-1.086-1.113-3.476-1.943s-5.674-2.071-7.364-2.893c-1.591-.72-4.973-2.162-7.46-3.194-2.488-1.031-6.762-3.085-9.642-4.721-5.064-2.864-6.26-3.28-6.27-2.38M426.925 511.313c-1.427 2.182-4.07 5.549-5.993 7.425s-2.943 3.363-2.343 3.37c1.2.016 11.359-12.558 11.376-13.957.02-1.5-.387-1.005-3.04 3.162M225.451 507.98c10.425 6.032 33.207 15.62 35.415 14.947.503-.194-2.78-1.635-7.259-3.292-4.58-1.557-13.234-5.366-19.295-8.443-11.33-5.643-16.009-7.402-8.86-3.211M366.486 514.053c-1.432 2.583-2.461 4.87-2.264 5.072.198.203 1.621-1.68 3.054-4.262s2.461-4.87 2.264-5.072-1.621 1.68-3.054 4.262M267.927 510.215c-.007.5.487 1.006 1.087 1.013.5.007.706-.49.412-.995-.292-.603-.787-1.01-1.087-1.013-.2-.003-.405.395-.412.995M271.401 512.258c.294.504 1.088 1.014 1.687 1.022 1.3.016 9.622 6.321 9.71 7.322-.008.6-1.803.178-10.966-2.838-1.595-.42-2.095-.426-1.502.181 1.086 1.114 10.945 4.438 13.045 4.465 1.5.019 3.657 3.446 2.644 4.433-.304.296-1.804.278-3.201.06-2.493-.531-2.493-.531-.407.595 2.483 1.331 5.292.666 5.315-1.233.028-2.2-5.987-8.976-10.75-12.036-4.561-3.058-6.652-3.784-5.575-1.97M316.822 518.83l-13.506.43 14.497.282c7.998.2 16.801.011 19.508-.455 5.008-.637 5.008-.637-.992-.712-3.3.058-12.104.248-19.507.455M343.111 519.86c.396.305.996.313 1.4.018.305-.396.009-.7-.691-.709s-1.004.287-.709.691M272.25 524.27c.294.504 1.388 1.018 2.288 1.029 1.5.019 1.502-.181.212-.998-1.983-1.325-3.283-1.34-2.5-.031"/><path d="M277.723 526.439c1.09.814.49.906-2.504.369-6.187-1.078-3.505.356 4.667 2.658 7.575 1.996 16.07 2.503 23.785 1.3 3.307-.56 1.31-.784-6.99-.789-12.6-.058-16.99-.913-16.963-3.113.01-.8-.78-1.51-1.68-1.521-1.6-.02-1.603.18-.315 1.096M356.718 527.332c-.806.49-10.011.874-20.512.842-10.399-.13-21.003.136-23.508.505-2.706.466 4.69.859 18.49.932 16.3.105 23.704-.202 25.315-1.082 1.21-.685 2.22-1.472 2.222-1.672.008-.7-.293-.604-2.007.475M407.905 536.676c.396.305.996.312 1.4.017.305-.396.009-.7-.691-.709-.7-.008-1.004.288-.709.692M403.393 537.619c.597.208 1.797.223 2.5.031.603-.292.106-.498-1.294-.516-1.4-.017-1.902.176-1.206.485M594 625.721c-1.61.78-4.531 2.543-6.449 3.92-3.634 2.654-6.54 3.217-7.62 1.504-.782-1.41-7.782-1.398-10.9-.037-2.012.975-3.21.76-6.093-.577-1.987-1.025-4.68-1.559-5.884-1.274-2.71.666-13.696 7.529-15.624 9.705-2.032 2.574.526 5.907 7.187 9.09 5.367 2.668 5.564 2.87 5.514 6.87-.052 4.1 1.302 7.817 3.284 9.242.595.408 2.877 1.837 5.062 3.064 4.962 3.063 5.06 3.264 4.973 33.965-.168 29.3.125 29.904 11.355 35.546 9.342 4.618 13.946 4.376 22.012-.823 5.646-3.63 13.457-12.432 13.49-15.132.016-1.2-.488-.906-1.609.78-3.464 5.057-11.252 12.06-15.782 14.402-10.667 5.267-18.516 1.168-19.972-10.351-1.187-9.016-1.183-57.02-.027-61.505 4.72-17.543 17.808-32.38 30.03-34.026 4.91-.738 8.19.903 11.133 5.44 2.06 3.127 2.243 4.53 2.087 16.928-.128 10.2-.467 13.295-1.257 12.485-.691-.708-1.34-4.717-1.487-9.02-.355-11.505-.926-13.812-3.888-16.85-2.27-2.428-3.266-2.74-7.37-2.392-9.111.785-19.035 10.562-23.898 23.501-2.38 6.371-2.388 6.971-2.115 32.976.35 35.808.632 37.311 6.897 40.09 5.173 2.165 11.403-.156 18.387-6.77 3.238-3.059 5.878-6.226 5.887-6.926.01-.8-1.807.578-4.14 3.248-4.06 4.65-12.532 10.344-13.717 9.129-.296-.304.513-.994 1.819-1.477 3.014-1.063 14.055-12.225 14.079-14.125-.092-.7-.898-.21-2.115 1.174-8.123 9.699-12.763 12.84-18.862 12.764-3.7-.047-4.396-.355-5.265-2.867-.58-1.607-.914-14.812-.776-33.712.16-28.7.293-31.299 2.146-35.476 5.247-11.635 14.55-19.818 22.25-19.722 5.198.166 7.079 1.69 8.417 6.607 1.432 5.418 1.28 17.517-.22 17.498-.7-.009-3.37-2.342-5.936-5.075-3.356-3.542-5.537-5.07-7.337-5.092-6.3-.08-13.615 9.03-13.715 17.029-.075 6 3.384 9.243 9.882 9.425 2.9.036 6.486 1.181 10.262 3.129l5.862 3.074-.532 10.494c-.273 5.797-.942 11.289-1.354 12.184-.513 1.093-.422 1.795.178 1.802.5.006 1.424-1.882 2.054-4.274 1.152-4.186 1.152-4.186.685 1.208-.454 4.295-.266 5.197.747 4.21.81-.79 1.372-5.783 1.683-14.58.57-13.494.57-13.494-2.03-13.527-2.3-.029-2.595-.432-2.557-3.432.024-1.9.548-3.793 1.252-4.185.807-.49.903-.188.387 1.105-.725 1.991 2.718 6.535 5.018 6.564 1.9.024 1.474 17.92-.518 25.295-2.094 7.475-1.9 7.977.66 3.209 1.74-3.278 2.277-6.172 2.7-15.967.283-6.597 1.075-13.888 1.705-16.28l1.153-4.186 16.098.202c8.8.11 16.805-.289 17.612-.779 1.007-.587-4.388-1.055-16.187-1.203-16.698-.21-17.797-.324-17.774-2.124.012-1-.67-2.408-1.461-3.118-1.188-1.015-1.452-3.819-1.33-13.518.213-16.999-2.024-22.027-11.859-27.251-5.266-2.766-11.56-3.246-16.286-1.205m13.978 1.876c.494.506-.01.9-1.31.884-3.2-.04-10.244 3.371-14.291 7.12-8.395 7.496-13.712 16.73-17.185 30.487-1.155 4.386-.244 59.202.997 63.918 1.24 4.816.436 5.105-3.216 1.26-3.06-3.14-3.157-3.44-3.713-14.949-.88-17.512-.411-46.808.788-54.694 1.3-7.984 4.797-15.641 10.493-23.27 4.373-5.745 12.847-11.64 17.555-12.18 3.606-.455 8.596.308 9.882 1.424m-46.646 3.414c1.692.621 3.08 1.539 3.074 2.039s-1.536 2.88-3.467 5.357c-1.93 2.376-3.768 5.353-4.182 6.448-.313 1.096-1.125 1.986-1.625 1.98-1.3-.017-12.824-6.062-12.817-6.662.006-.5 14.93-10.313 15.63-10.305.1.002 1.594.52 3.387 1.143m19.574 2.146c1.089.914.574 2.108-2.679 6.267-4.778 6.24-10.139 18.974-10.21 24.574-.027 2.2-.45 3.994-.95 3.988s-3.08-1.539-5.657-3.371c-4.86-3.262-4.859-3.362-5.086-9.165-.215-6.703 2.056-12.375 7.33-18.21 5.372-5.732 13.097-7.635 17.252-4.083m-36.629 10.04c-.003.3-.206.498-.506.494-.3-.003-.497-.206-.494-.506s.207-.497.507-.494.497.207.493.507m9.533 5.42c-.606.493-7.464-2.893-8.15-4.002-.294-.504 1.498.119 3.983 1.35s4.37 2.455 4.167 2.653m46.302 8.083c-4.032 2.55-6.991 7.213-8.77 13.491-1.573 5.78-2.941 3.264-1.857-3.423.873-5.79 6.856-12.415 11.156-12.361 2.8.035 2.8.035-.529 2.293m7.393.593c.195.403-1.32 1.584-3.432 2.557-2.113.974-5.239 3.035-6.959 4.613-4.752 4.14-3.908.651.952-4.088 3.746-3.653 8.164-5.098 9.44-3.082m6.614 6.884c3.775 2.048 6.85 4.086 6.843 4.586-.02 1.6-7.86 4.802-9.75 3.978-3.781-1.547-12.217-6.754-12.208-7.454s5.959-4.625 7.36-4.708c.401-.095 3.88 1.55 7.755 3.598m-13.854 4.226c1.386 1.118 2.775 2.035 3.075 2.039.4.005 2.386 1.13 4.47 2.456 3.272 2.142 3.664 2.847 3.23 5.541-.438 2.995-.438 2.995-5.106.436-8.34-4.905-10.02-6.426-9.98-9.626.043-3.4.845-3.59 4.311-.846m-3.684 6.654c2.08 1.627 1.066 2.714-1.622 1.78-1.694-.521-2.083-1.426-1.94-4.825.152-4.098.152-4.098 1.015-1.187.48 1.606 1.555 3.62 2.547 4.232m27.337-2.756c-.02 1.6-.22 1.597-2.41.77-1.294-.517-1.389-.918-.475-2.007 1.32-1.583 2.911-.863 2.885 1.237m-5.249 3.834c-1.234 2.685-2.842 3.365-2.815 1.165.018-1.4 2.047-3.675 3.247-3.66.4.005.186 1.103-.432 2.495m4.195.453c-.025 2-2.76 4.766-3.746 3.653-.89-.811 1.47-5.582 2.77-5.566.5.007.99.813.976 1.913M691.07 660.644c-9.603.179-20.308.445-23.708.502l-6.301.02-.154 12.2-.152 12.099 43.105-.059c25.801.025 43.507-.353 44.115-.945 1.012-.988 1.474-21.784.493-23.296-.588-1.007-30.887-1.288-57.398-.521m54.855 11.89-.131 10.4-18.706.364c-10.404.27-28.807.338-41.006.185l-22.198-.28-.177-9.802c-.133-5.302-.075-9.902.127-10.1.104-.298 10.507-.467 23.008-.51 12.502-.043 23.406-.306 24.207-.396.803-.19 9.005-.287 18.305-.27l16.7.11z"/><path d="M703.116 664.995c-.509.694-.955 4.389-.904 8.29.12 6.302.313 6.904 2.309 7.23 2.995.437 4.132-2.549 3.62-9.556-.33-5.605-2.793-8.536-5.025-5.964m2.86 3.237c-.02 1.6-.632 2.492-1.532 2.48-1.6-.02-1.888-.923-.857-3.41.931-2.489 2.424-1.87 2.389.93m.703 7.709c-.217 1.297-1.03 2.287-1.83 2.277-.799-.01-1.586-1.02-1.77-2.322-.279-1.704.228-2.198 1.827-2.177 1.6.02 2.094.526 1.773 2.222M713.709 665.629c-1.825 1.977-2.253 4.172-.853 4.19.5.005 1.213-.986 1.529-2.282.625-1.992.725-1.99 1.606-.48.979 1.713-1.007 8.488-3.444 11.458-.611.892-.419 1.495.576 1.907 2.787 1.035 5.2.066 5.532-2.53.426-2.095.228-2.198-1.186-1.115-2.425 1.97-3.107.56-1.171-2.315 3.364-5.058 1.06-12.788-2.59-8.833M724.007 665.858c-.514 1.094-1.048 3.787-1.077 6.087-.092 7.3 3.367 10.643 5.73 5.572q2.466-5.22-.167-10.503c-1.756-3.522-2.952-3.837-4.486-1.156m3.568 2.545c.756 3.51-.012 8.9-1.418 9.383-1.004.287-1.284-1.316-1.228-5.716.076-6.1 1.503-8.182 2.646-3.667M671.003 665.792c-1.827 2.177-1.754 12.279.12 14.303 2.37 2.43 4.902-.039 4.558-4.544-.262-3.003-1.442-4.618-4.527-5.857-.098-.101.012-.9.423-1.795.515-1.193 1.017-1.387 1.907-.576.891.711 1.49.819 1.899.124.407-.595-.181-1.502-1.275-2.016-1.39-.818-2.19-.728-3.105.36m2.875 10.037c-.024 1.9-.444 3.495-1.044 3.487-1.2-.015-2.344-4.53-1.426-5.918 1.327-2.184 2.512-.969 2.47 2.43M681.196 666.42c-3.162 4.96-.207 16.499 3.623 14.147 1.614-1.08 2.104-8.275.61-8.793-2.787-1.035-3.672-2.247-2.95-3.938.516-1.293.918-1.488 1.208-.685.579 1.708 2.28 1.63 2.301-.07.014-1.1-1.967-2.626-3.267-2.642-.1-.001-.81.89-1.525 1.981m3.183 9.34c-.049 3.9-1.947 3.777-2.297-.228-.27-2.404.04-3.2 1.036-2.887.696.308 1.279 1.716 1.261 3.116M691.42 672.549c-.407.595.787 1.01 2.987 1.038 2.2.027 3.405-.358 3.013-.963-.293-.603-1.688-1.02-2.988-1.037s-2.704.366-3.012.962M599.063 692.39c-2.713 1.066-8.394 7.495-10.144 11.473-.824 1.89-1.467 5.282-1.497 7.682-.073 5.8 2.397 8.231 7.506 7.495 3.408-.557 8.45-3.894 8.472-5.694.024-1.9-3.28-1.641-5.907.526-5.962 4.925-10.129 2.273-8.532-5.408 1.07-5.587 3.313-8.959 7.852-12.102 7.568-5.305 11.337-2.858 8.83 5.711-1.36 4.784-1.472 5.682-.263 4.998.505-.394 1.1.013 1.392.617.675 2.009 2.749-3.866 2.801-8.065.08-6.4-4.58-9.559-10.51-7.233m8.147 12.303c-.31.797-.607.493-.593-.607-.086-1.101.221-1.697.516-1.294.297.304.385 1.205.077 1.901"/><path d="M595.53 703.046c-2.643 3.368-2.385 6.671.71 7.11 1.197.215 2.201-.072 2.209-.672.007-.6-.686-1.109-1.486-1.12-1.8-.022-1.961-3.124-.24-4.802 1.924-1.876 3.617-1.355 4.087 1.05.279 1.705.482 1.407.613-.991.131-2.499-.26-3.204-1.76-3.223-1.1-.014-2.915 1.164-4.134 2.648M603.437 710.446c2.872 2.237 5.96 3.276 5.976 1.976.012-1-5.251-3.967-7.15-3.99-.7-.01-.212.897 1.174 2.014M612.387 714.46c-.015 1.2 8.73 5.71 9.54 4.92.303-.297-1.68-1.722-4.462-3.157-2.78-1.535-5.071-2.264-5.078-1.764M166.581 712.157c-1.823 1.777-1.743 11.379.147 12.203 2.886 1.136 4.606-.442 4.347-3.746-.171-2.302-.76-3.21-2.457-3.431-2.495-.431-2.689-.934-1.361-3.117.815-1.19 1.215-1.185 2.502-.169 1.286 1.116 1.586 1.12 1.603-.18.01-.8-.678-1.808-1.574-2.12-1.99-.825-1.79-.822-3.207.56m2.69 8.834c-.015 1.1-.426 1.995-1.026 1.988-.5-.007-.997-.213-.995-.413s-.286-1.103-.575-2.007c-.386-1.105-.08-1.601 1.02-1.587.9.01 1.59.82 1.575 2.02M126.368 712.952c-1.725 1.978-.368 5.396 2.523 6.132 3.29.841 2.362 3.03-1.134 2.686-2.697-.234-2.798-.135-1.219 1.485 3.556 3.545 7.032-2.512 5.418-9.333-.666-2.709-3.66-3.246-5.588-.97m4.468 2.556c-.028 2.2-2.922 1.764-3.296-.341-.282-1.404.123-1.799 1.519-1.481.997.212 1.787 1.022 1.777 1.822M136.367 713.077c-1.725 1.979-.368 5.396 2.423 6.131q2.392.63 1.774 2.123c-.413.995-1.417 1.282-3.21.76-2.492-.632-2.492-.632-.815 1.19 3.454 3.643 7.03-2.412 5.416-9.233-.666-2.709-3.66-3.247-5.588-.97m3.968 2.55c-.014 1.1-.725 1.992-1.525 1.981s-1.488-.918-1.474-2.018c.013-1.1.725-1.991 1.525-1.981s1.488.919 1.474 2.018M146.372 712.703c-.006.5.888 1.011 1.988 1.025 1.9.024 1.997.225.462 3.006-1.741 3.279-2.1 7.974-.6 7.993.6.008 1.013-1.087 1.03-2.387.016-1.3.749-3.89 1.574-5.88.823-1.89 1.146-3.687.851-4.09-.987-1.013-5.29-.767-5.305.333M156.774 712.634c-1.913 1.076-1.33 10.284.656 11.509 2.678 1.734 4.608-.642 4.47-5.544-.224-6.104-1.9-8.025-5.126-5.965m3.37 2.442c-.623 1.793-2.826 2.065-2.805.365a1.58 1.58 0 0 1 1.62-1.58c.9.012 1.394.518 1.185 1.215m-.07 5.5c-.53 2.493-2.834 2.765-2.804.365.015-1.2.626-2.093 1.626-2.08.9.011 1.391.718 1.179 1.715M184.453 714.482c-2.047 3.774.066 10.701 3.265 10.742 1.4.017 3.553-4.156 3.59-7.056.068-5.5-4.501-7.957-6.855-3.686m4.653 3.759c.353 3.804-1.479 6.281-2.85 3.964-1.077-1.814-1.22-6.416-.207-7.403 1.418-1.382 2.799.135 3.057 3.439M194.457 714.207c-1.43 2.483-1.484 6.682-.215 9.198 1.368 2.518 4.668 2.56 5.5-.03.938-2.989-.324-6.005-2.524-6.033-1-.012-1.892-.623-1.882-1.423.028-2.2 1.936-2.876 3.717-1.354 1.386 1.118 1.586 1.12 1.103-.186-.671-2.309-4.47-2.456-5.699-.172m3.81 7.249c-.03 2.4-2.327 2.07-2.795-.435-.188-1.003.321-1.696 1.221-1.685 1 .013 1.589.92 1.574 2.12M214.67 713.261c-.702.192-1.317 1.384-1.332 2.584.073 2.2.073 2.2 1.496.319 1.118-1.386 1.822-1.678 2.612-.868.69.71.176 1.903-1.552 4.081-3.551 4.056-3.478 6.157.322 6.205 3.4.043 4.121-1.649.928-2.189-1.996-.325-1.895-.424.546-3.693 1.933-2.576 2.348-3.771 1.565-5.18-.976-1.913-2.172-2.228-4.584-1.259M204.857 714.338c-.307.496-.116 1.199.48 1.606.496.307.97 2.413.942 4.613-.027 2.1.45 3.905.95 3.912.6.007 1.032-2.487 1.07-5.487.051-4.1-.331-5.505-1.331-5.517-.8-.01-1.705.378-2.111.873M624.898 721.617c1.779 1.722 8.534 5.308 9.142 4.715.607-.592.905-.388-4.358-3.355-4.271-2.354-6.463-2.981-4.784-1.36M264.212 726.185c-.062 5 .3 8.004 1 8.013s.829-2.29.388-6.996c-.34-4.804-.212-7.003.488-6.994 1.1.014 11.226 5.942 14.295 8.38 1.487 1.12 1.746 4.323 2.095 24.329.235 13.104.806 23.412 1.398 24.02.988 1.012.767-29.194-.364-42.609-.526-5.907-.816-6.71-3.696-8.347-7.84-4.799-13.403-7.769-14.403-7.782-.7-.008-1.137 2.886-1.2 7.986M175.295 719.067c-.006.5 1.387 1.018 3.087 1.039s2.805-.365 2.412-.97c-.292-.604-1.687-1.021-3.087-1.039-1.3-.016-2.405.37-2.412.97M317.437 724.554c-3.107.56-5.252 4.134-4.595 7.543.655 3.608 6.278 9.78 8.977 9.813 2.1.026 7.27-5.509 7.298-7.709.02-1.6 1.119-1.486 4.597.258 1.591.72 6.562 3.083 11.135 5.24l8.152 3.903-.106 8.4c-.062 4.899.296 8.304.896 8.311.6.008 1.046-3.687 1.113-8.986l.111-8.9-6.163-2.977c-3.48-1.644-9.146-4.316-12.726-5.96-3.58-1.646-7.845-4.4-9.522-6.22-2.96-3.238-4.256-3.555-9.167-2.716m9.725 6.022c-.029 2.3-1.92 1.576-3.186-1.14-.582-1.407-1.468-2.518-1.968-2.525-.4-.005-.794-.51-.786-1.11.007-.6 1.4-.082 2.986 1.138 1.684 1.221 2.964 2.837 2.954 3.637m-4.303.246c2.354 3.63 2.904 7.637 1.092 8.615-.505.393-2.205.372-3.7-.047-2.691-.734-2.691-.734-.38-1.605q3.617-1.304 1.275-5.984c-1.27-2.416-4.568-2.558-5.897-.274-.92 1.588-1.018 1.487-1.09-.814.042-3.3.852-4.09 3.947-3.65 1.597.22 3.38 1.642 4.753 3.76m-2.916 1.264c1.876 1.923 1.352 3.817-1.248 3.784-1.9-.024-2.195-.427-1.768-2.522.535-2.794 1.238-3.085 3.016-1.262m7.17 2.39c-.004.3-.206.497-.506.494s-.498-.207-.494-.507.207-.497.506-.493.498.206.494.506M638.208 728.885c-.006.5 2.173 2.127 4.956 3.562 5.365 2.768 6.361 3.08 5.48 1.57-.98-1.613-10.42-6.332-10.436-5.132M175.535 731.771c.266 2.704.614 14.809.76 27.012.32 22.306.32 22.306-1.98 22.277-1.5-.02-2.913 1.063-4.038 3.05-2.247 3.771-2.373 5.77-.31 8.696 1.376 2.017 2.072 2.326 5.779 1.773 4.71-.741 6.626-2.017 6.655-4.317.012-1 2.537-2.968 6.162-4.923 6.947-3.713 7.966-5.2 5.501-8.031-1.774-2.023-1.774-2.023-4.898-.162-1.714 1.078-4.735 2.74-6.748 3.815l-3.625 1.955-.384-17.206c-.282-9.404-.425-21.907-.35-27.907.112-8.899-.165-10.703-1.365-10.718-1.3-.016-1.511.881-1.159 4.686m18.31 47.034c.39.805.18 1.702-.325 1.996-.604.392-1.004.387-1 .087.002-.2-.287-1.103-.576-2.007-.288-.904-.18-1.602.42-1.595.5.006 1.192.715 1.482 1.519m-2.53 2.368c.29.804-.114 1.199-.91.889-.698-.209-1.488-1.019-1.68-1.721-.289-.804.116-1.199.912-.889.698.209 1.487 1.019 1.679 1.721m-2.814 1.165c-.006.5-.411.895-1.011.887-.5-.006-.992-.712-.98-1.612.01-.8.515-1.194 1.011-.887.596.307.987 1.012.98 1.612m-10.53 2.268c2.371 2.33 3.493 8.544 1.594 8.52-.5-.006-.884-1.31-.864-2.91.041-3.3-1.626-5.921-4.71-7.16-1.69-.822-1.789-.923-.19-.903 1.002-.087 2.888 1.037 4.17 2.453m8.307-.496c.29.804-.115 1.199-.91.889-.698-.209-1.488-1.019-1.68-1.721-.29-.804.116-1.2.912-.889.697.209 1.487 1.019 1.678 1.721m-3.408.657c.388.905.376 1.905.173 2.103-.81.79-2.59-.833-2.57-2.333.023-1.9 1.622-1.78 2.397.23m-8.713.991a1.2 1.2 0 0 1-1.4-.018c-.295-.403.009-.7.709-.69.7.008.996.312.69.708m2.963 2.937c-.911.89-2.792-.635-2.077-1.826.407-.595 1.007-.587 1.698.122.593.607.784 1.31.379 1.704m-2.814 1.065c.683 1.409.763 3.01.358 3.405-1.317 1.284-5.276-1.966-5.247-4.266.036-2.9 3.53-2.356 4.89.861"/><path d="M270.15 731.26c-.007.5.586 1.007 1.386 1.017s1.588 1.02 1.873 2.224c.274 2.004.373 2.105 1.093.514.512-.894.63-2.392.24-3.197-.578-1.708-4.573-2.158-4.593-.558M652.113 736.56c-1.118 1.386-1.025 1.987 1.05 4.014 1.283 1.316 3.959 3.25 5.845 4.373 2.68 1.534 3.467 2.644 3.54 4.845-.02 1.6.001 7.8.026 13.802.097 8.202.365 10.705 1.175 9.915s1.062-4.887.86-12.69c-.263-10.904.586-14.794 1.914-9.077 1.14 4.715 7.344 4.493 9.905-.375 2.048-3.775 1.967-5.276-.298-8.105-1.574-2.02-2.172-2.227-4.384-1.255-1.308.584-2.81.765-3.304.259-1.186-1.115-10.327-5.83-12.918-6.563-1.295-.416-2.599-.133-3.411.857m2.98 1.538c-.006.5-.412.995-1.012.987-.5-.006-.994-.512-.987-1.012.007-.6.512-.994 1.012-.988.6.008.995.413.988 1.013m2.981 1.537c-.01.8-.718 1.491-1.518 1.481-1.6-.02-1.985-1.225-.771-2.31 1.115-1.186 2.31-.77 2.29.83m2.975 2.038c-.01.8-.419 1.495-1.019 1.487-.5-.006-.99-.712-.98-1.512s.518-1.494 1.018-1.488c.6.008.991.713.981 1.513m6.757 3.485c-.425 1.995-2.833 2.565-2.809.665.013-1-.583-1.308-1.487-1.019-1.407.582-2.18-1.628-.965-2.812 1.113-.986 5.478 1.769 5.26 3.166m8.198.203c.78 1.61.775 2.01-.425 1.995-1-.013-1.308.583-.92 1.588.387 1.005-.222 1.698-1.726 2.079-1.605.38-1.81.777-.818 1.39.892.611.489.906-1.311.883-4.3-.054-4.452-3.856-.49-8.807 1.523-1.78 4.518-1.343 5.69.872M267.904 734.832c-1.61.78-2.824 1.865-2.83 2.365s1.299.116 3.01-.763c1.611-.88 3.025-1.962 3.031-2.462.011-.9.011-.9-3.211.86M308.863 738.347c-1.61.78-2.824 1.865-2.83 2.365-.014 1.1 6.926-2.014 7.041-3.212.013-1-1.09-.814-4.21.847M259.547 739.327c-2.215 1.173-3.638 2.955-3.046 3.662.297.204 1.102-.186 2.01-.874 2.223-1.773 2.613-.968 2.73 5.634.126 5.902.126 5.902-2.878 6.165-4.005.45-5.422 1.732-4.754 4.34.377 1.805.174 2.003-1.918 1.376-9.463-3.019-16.081-1.602-22.458 4.518-3.342 3.259-4.467 5.245-5.322 9.634-1.695 7.58-.192 15.3 5.426 29.77 1.454 3.72 2.268 2.63-10.265 13.073-12.732 10.44-11.06 4.661-12.353 43.948-.637 18.894-1.04 34.99-.848 35.692.387 1.005 7.384 1.293 36.29 1.056l35.905-.248-.133 10.599c-.177 14.099 1.624 14.021 2.201-.073l.434-10.695 37.501.171c20.6.16 37.805-.125 38.311-.618 1.215-1.185-.65-115.318-1.935-116.634-1.087-1.014-1.11.886.103 79.408.362 18.906.264 34.706-.04 35.002s-15.908.5-34.609.465l-34.1-.129.607-8.593c.36-4.695.31-8.696-.087-9.001-.496-.307-1.244 3.484-1.605 8.38l-.812 8.89-5.205.335c-6.307.521-37.313.831-56.611.589l-14.5-.182.715-32.994c.33-18.197.924-33.691 1.134-34.488.31-.797 2.536-2.869 4.859-4.64s5.656-4.429 7.276-6.009c1.718-1.478 4.85-4.04 6.97-5.613 3.938-2.95 3.938-2.95 5.507-.43 2.94 4.737 13.21 15.167 17.577 17.822 12.11 7.253 19.217 6.742 28.33-2.244 8.302-7.997 9.572-13.581 6.76-28.518-1.587-9.02-3.032-13.439-4.332-13.455-1.2-.015-1.116 1.286.141 4.702 2.42 6.43 3.726 13.848 3.547 20.146l-.284 6.697-.812-7.01c-.451-3.907-1.2-7.916-1.687-9.023-.386-1.104-1.254-3.616-1.93-5.524-1.344-4.517-8.586-17.11-9.786-17.125-1.5-.018-1.22 1.585.56 3.108 1.782 1.522 4.713 7.06 8.013 15.002 1.65 4.02 2.3 8.03 2.518 14.532.286 9.005.286 9.005-.526 1.994-1.069-10.414-6.002-23.677-11.51-31.047-4.82-6.461-14.117-14.679-19.78-17.65-3.477-1.844-5.76-3.273-4.96-3.263 2.5.032 8.27 2.504 11.838 5.05 3.468 2.543 3.468 2.543 1.004-.288s-2.465-2.831.326-2.096c3.09.839 3.194.54 1.244-3.485-1.658-3.32-.745-4.41 2.942-3.363 1.795.423 3.3.042 5.219-1.434 1.515-1.182 3.026-2.063 3.426-2.058 1 .013 2.352 3.83 4.93 13.563 2.39 8.731 2.485 9.132 3.397 8.244.707-.591-5.141-20.666-6.518-22.484-1.084-1.314-5.7-.072-6.924 1.813-.407.595-1.41.783-2.306.471-1.293-.516-1.572-2.22-1.497-8.22.052-4.099-.205-7.502-.605-7.507-.5-.007-1.708.578-2.815 1.164m-1.238 18.886c.771 2.31.058 3.401-1.43 2.383-1.29-.817-1.443-4.519-.143-4.503.5.007 1.289.917 1.573 2.12m-7.282 6.51c6.358 3.38 18.009 15.327 21.72 22.374 5.177 9.866 7.474 18.095 7.365 26.795-.156 12.399-4.32 17.447-14.523 17.619-5.6.03-14.955-3.689-17.71-7.224-.788-1.01.706-.49 3.584 1.246 4.07 2.45 6.163 2.977 11.863 3.049 6.498.182 6.9-.013 9.538-2.98 2.842-3.365 5.22-9.536 5.275-13.935.066-5.2-4.57-18.36-8.687-24.911-12.16-19.155-31.959-27.404-40.094-16.706-1.322 1.784-2.75 4.066-3.065 5.162-.624 1.893-.624 1.893.599.108 3.771-5.653 5.994-7.425 10.101-7.974 14.225-1.921 33.001 16.016 38.145 36.482 3.336 13.043-1.897 23.578-11.594 23.257-2.2-.028-3.396-.343-2.592-.633 7.229-2.21 9.476-5.981 9.498-15.682.058-4.6-.688-8.91-2.043-12.527-2.514-6.832-9.587-17.021-14.046-20.278-1.784-1.322-3.467-2.644-3.763-2.947-1.776-1.923-7.056-3.59-11.557-3.546-5.6-.07-7.613 1.005-10.673 5.767-1.123 1.786-1.83 2.377-1.919 1.476-.09-.802-.5.093-.925 1.988-.744 3.491-.744 3.491-.886-1.111-.023-6.1 1.634-10.68 5.384-14.634 2.938-2.963 3.64-3.154 9.44-3.081 4.9.061 7.492.694 11.565 2.845m-2.54 11.068c7.046 4.39 12.859 11.363 17.446 20.421 2.34 4.83 2.715 6.735 2.62 14.334-.01 8.8-.012 8.9-3.348 11.759-3.438 2.957-8.347 3.695-12.723 1.74-1.493-.619-1.09-.813 1.81-.777 4.798.16 8.43-2.394 10.493-7.369 1.443-3.382 1.454-4.282-.08-9.502-2.399-8.13-4.94-12.863-9.476-17.92-3.944-4.45-14.368-10.581-17.868-10.625-2.6-.033-5.822 1.727-7.955 4.3-2.336 2.87-3.418 1.457-1.573-2.12 1.842-3.377 4.574-5.843 7.282-6.509 3.211-.86 10.496.432 13.373 2.268m-3.188 7.06c8.644 4.51 17.089 16.917 18.364 26.834.733 5.31-2.033 10.575-5.945 11.526-10.333 2.57-26.249-12.231-29.459-27.372-.943-4.513-.094-8.402 2.438-10.97 2.534-2.67 9.535-2.681 14.602-.017m36.724 38.065c-.003.3-.206.498-.506.494s-.497-.206-.494-.506.207-.498.507-.494.497.206.493.506"/><path d="M241.928 796.41c-2.344 3.471-2.09 7.175.588 8.909 2.579 1.732 8.587 1.108 9.412-.882 1.24-3.185-3.669-10.447-7.169-10.491-.6-.008-1.913 1.076-2.83 2.464m3.537 5.045c1.264 2.916.752 3.81-1.536 2.881-1.793-.622-2.96-3.237-2.044-4.526 1.02-1.587 2.413-.97 3.58 1.645m2.319-1.47c.293.503.087 1-.413.994-.6-.007-1.093-.514-1.087-1.014.007-.6.212-.997.412-.994.3.003.795.41 1.088 1.013m2.153 3.727c-.404.295-.7-.01-.691-.71.009-.699.312-.995.709-.69a1.2 1.2 0 0 1-.018 1.4M266.412 742.114c.884 1.311 12.595 8.459 13.101 7.965s-5.541-4.67-10.41-7.231c-1.787-1.023-2.983-1.338-2.69-.734M298.788 744.22c-1.61.78-2.823 1.866-2.83 2.465-.015 1.1 2.098.127 5.53-2.43 2.525-1.969.825-1.99-2.7-.034M249.772 745.205c-3.22 1.66-5.047 3.737-3.447 3.757 1.2.015 7.653-4.204 7.663-5.004.014-1.1.315-1.196-4.216 1.247M290.528 749.017c-1.01.788-2.42 1.57-3.023 1.763-.602.192-.809.69-.414 1.094.789.91 6.826-2.014 6.843-3.314.017-1.4-1.185-1.215-3.406.457M240.098 751.084c-4.434 2.644-3.444 3.457 1.387 1.017 2.012-.974 3.327-2.158 2.831-2.464-.596-.308-2.405.37-4.218 1.447M230.024 756.858c-1.815 1.177-3.128 2.26-2.932 2.563.692.609 7.736-2.803 7.748-3.803.017-1.3-1.188-.915-4.816 1.24M269.126 756.95c.396.304.996.312 1.4.017.305-.396.009-.7-.691-.709s-1.004.287-.709.691M266.779 760.72c-.01.8.584 1.207 1.388.917s1.7.022 2.191.728c.391.705.181 1.502-.421 1.695-1.706.478-1.528 2.18.172 2.202 2.2.028 2.839-3.064 1.064-5.087-1.97-2.325-4.368-2.555-4.394-.455M220.253 762.435c-1.61.88-3.222 1.76-3.423 1.858-.203.197-.208.597.088.9.79.81 6.83-2.314 6.845-3.514.017-1.3.116-1.298-3.51.756M305.829 764.911c-1.136 2.886.327 5.805 2.827 5.836 2.2.028 2.39.73 1.063 2.914-.815 1.19-1.215 1.184-2.502.168-.89-.811-1.588-.92-1.596-.32-.006.5.681 1.509 1.472 2.219 3.266 2.741 6.142-3.323 4.42-9.546-1.05-4.013-4.34-4.754-5.684-1.271m4.673 2.159c.185 1.202-.321 1.696-1.72 1.678-1.2-.015-2.093-.626-2.084-1.326.039-3.1 3.242-3.36 3.804-.352M315.737 764.335c-1.826 2.078-.482 6.495 1.918 6.525 1.1.014 1.993.625 1.982 1.425-.026 2.1-2.138 3.073-3.118 1.461-.391-.705-1.087-1.014-1.492-.619-.71.691 1.353 3.717 2.653 3.734 1.9.024 3.942-3.35 3.982-6.55.08-6.3-2.981-9.439-5.925-5.976m3.765 2.848c.187 1.002-.322 1.696-1.222 1.685-1-.013-1.588-.92-1.573-2.12.03-2.4 2.326-2.071 2.795.435M325.138 764.354c-1.137 2.886.023 6.1 2.319 6.43 2.395.43 2.588.932 1.26 3.115-.814 1.19-1.214 1.185-2.501.169-1.781-1.523-2.199-.128-.422 1.695.691.708 1.69.821 2.999.137 1.408-.682 1.826-2.077 1.871-5.677.06-4.8-1.11-7.214-3.609-7.245-.8-.01-1.607.58-1.917 1.376m4.363 2.955c.187 1.002-.322 1.696-1.221 1.684-1-.012-1.59-.92-1.574-2.12.03-2.4 2.326-2.07 2.795.436M334.523 765.572c-1.234 2.684.13 5.502 2.73 5.534.8.01 1.393.618 1.384 1.318-.026 2.1-1.235 2.785-2.718 1.466-1.683-1.421-3.098-.24-1.617 1.28.692.708 2.289.928 3.694.546 2.307-.571 2.613-1.067 2.667-5.367.088-7-3.675-9.947-6.14-4.777m4.18 1.552c-.013 1.1-.724 1.991-1.524 1.981-1.5-.019-2.074-2.126-.759-3.31 1.217-1.284 2.309-.67 2.284 1.33M343.83 765.089c-1.431 2.482-1.484 6.681-.216 9.198 1.369 2.517 4.57 2.457 6.001-.025 1.331-2.484-.525-6.007-3.224-6.041-1.1-.014-1.694-.521-1.384-1.318.208-.597 1.415-1.182 2.614-1.067 2.698.134 2.225-1.972-.67-2.408-1.297-.217-2.505.368-3.121 1.66m3.81 7.148c-.014 1.1-.425 1.995-.925 1.988-1.4-.017-2.277-1.828-1.562-3.02 1.021-1.687 2.514-1.068 2.487 1.032M362.325 765.62c-1.78 6.38.254 11.605 4.069 10.453 1.907-.576 2.218-1.472 2.268-5.472.033-2.6-.434-5.206-1.125-5.915-1.876-1.923-4.482-1.456-5.212.935m4.344 4.456c-.04 3.2-.455 4.395-1.253 4.184-1.393-.517-2.235-5.128-1.307-7.417 1.138-2.985 2.615-1.167 2.56 3.233M372.643 764.25c-1.612 8.88.124 14.003 3.754 11.649 1.914-1.176 2.712-8.967 1.039-11.088-.984-1.313-4.578-1.758-4.793-.56m4.072 2.252c-.018 1.4-1.83 2.277-3.02 1.562-.595-.407-.786-1.11-.48-1.606.815-1.19 3.515-1.156 3.5.044m-.085 6.7c-.02 1.7-2.623 1.866-3.603.254-.685-1.209 1.539-3.08 2.829-2.265.396.305.785 1.21.774 2.01M381.727 765.565c-2.355 4.37-.64 11.093 2.86 11.137 2.3.028 4.035-2.75 4.084-6.65-.032-5.4-4.694-8.46-6.944-4.487m4.252 3.853c.65 3.909-.376 5.996-2.262 4.872-1.19-.815-1.414-6.818-.3-7.904 1.317-1.384 2.107-.574 2.562 3.032M391.33 765.385c-1.034 2.688-.812 8.89.472 10.207 1.678 1.721 4.48 1.557 5.204-.334.312-.897.64-3.093.662-4.893.06-4.8-.819-6.51-3.418-6.543-1.3-.016-2.609.667-2.92 1.563m4.338 4.955c-.042 3.3-.457 4.495-1.557 4.481s-1.484-1.219-1.443-4.518c.042-3.3.457-4.495 1.557-4.481s1.484 1.219 1.443 4.518"/><path d="M264.932 764.397c-1.62 1.58-1.554 4.28.227 5.803 1.188 1.015 1.488 1.02 1.504-.28.01-.8-.579-1.708-1.175-2.016-.896-.311-.787-1.01.633-2.592 2.027-2.175.937-2.988-1.189-.915M209.98 768.207c-2.917 1.363-4.441 3.244-2.841 3.264 1.4.018 6.54-3.118 6.55-3.918.015-1.2.315-1.196-3.709.654M353.165 770.306c-.408.595.787 1.01 2.987 1.038 2.2.027 3.405-.357 3.013-.962-.293-.604-1.688-1.022-2.988-1.038s-2.705.366-3.012.962M659.127 775.251c-16.505.293-31.911.7-34.215.97l-4.307.546.062 11.002c-.076 6 .259 11.204.656 11.41.398.204 1.994.524 3.593.644 5.197.266 63.71-.5 73.919-1.07l10.007-.475-.006-7.5c-.049-4.102-.082-9.403-.152-11.804l-.047-4.2-9.702.078c-5.4-.068-23.304.207-39.808.4m47.36 11.396c-.07 5.6-.426 10.096-.826 10.09-27.404.156-78.322 1.217-79.527 1.602-1.606.48-1.795-.423-1.68-9.522l.125-10 5.308-.533c2.803-.265 17.61-.679 32.713-.889s31.21-.508 35.81-.55l8.203-.197z"/><path d="M685.072 779.778c-1.312.983-1.732 2.578-1.776 6.078.118 6.502.892 8.612 3.191 8.64 4.2.053 4.395-7.545.22-9.497-2.784-1.335-2.951-3.938-.16-3.203 2.492.632 3.508-.656 1.727-2.178-.99-.813-1.79-.723-3.202.16m2.878 9.737c-.016 1.3-.531 2.493-1.234 2.684-1.306.484-2.66-3.233-1.74-4.722 1.122-1.786 3.005-.462 2.974 2.038M642.257 780.74c-1.115 1.186-1.744 3.478-1.78 6.378-.077 6.1.701 7.81 3.401 7.843 3.9.05 4.404-8.245.52-9.494-.995-.412-1.884-1.324-1.875-2.024.024-1.9 1.735-2.778 2.316-1.27.191.702.787 1.01 1.294.516.405-.395.117-1.399-.672-2.309-1.383-1.317-1.683-1.321-3.204.36m2.603 7.733c.577 1.807-.257 4.497-1.557 4.48-.5-.005-.882-1.41-.862-3.01.04-3.2 1.45-3.982 2.419-1.47M662.522 783.595c-.049 3.9.145 4.402 1.951 3.924 1.605-.38 2 .026 1.975 2.025-.034 2.7-1.656 4.48-2.233 2.573-.19-.703-.987-1.013-1.59-.82-1.003.287-.91.888.17 2.402 2.164 2.927 5.089.964 5.145-3.536.033-2.6-.554-3.607-2.144-4.427-2.785-1.235-2.956-3.537-.247-4.203 2.808-.665 2.528-2.269-.471-2.307-2.3-.028-2.505.369-2.556 4.369M674.72 783.848c-2.77 5.566-2.781 6.466-.281 6.497 1.5.019 1.99.725 1.967 2.625-.02 1.5.47 2.406 1.172 2.215.704-.291 1.22-1.585 1.139-3.086s-.037-5.001-.103-7.702c-.065-2.801-.438-5.006-.837-5.011-.4-.005-1.825 1.977-3.057 4.462m1.347 4.217c-1.012.988-1.893-.524-.977-1.812.614-1.093.814-1.09 1.2.015.191.702.081 1.501-.223 1.797M630.746 781.495c-1.239 3.085-.855 12.39.633 13.31 2.381 1.53 5.01-.738 5.055-4.338.031-2.5-.556-3.507-2.445-4.43-1.392-.618-2.48-1.532-2.474-2.032.021-1.7 1.327-2.183 2.812-.965 1.188 1.015 1.389.918 1.109-.686-.467-2.606-3.66-3.246-4.69-.859m3.69 8.747c-.017 1.4-.434 2.795-1.038 3.087-.504.294-1.004.288-.998-.212.005-.4-.277-1.804-.56-3.107-.48-1.607-.173-2.203 1.027-2.188 1 .013 1.589.92 1.57 2.42M650.868 787.849c.49.806 7.594.495 7.604-.305.003-.2-1.794-.423-4.094-.451-2.2-.028-3.805.352-3.51.756M271.609 774.282c3.267 2.641 4.767 2.66 2.5.031-.987-1.112-2.475-2.031-3.375-2.042-1.2-.016-.908.588.875 2.01M198.9 774.568c-2.113.974-3.236 2.76-1.836 2.777 1 .013 6.537-2.918 6.544-3.418.01-.8-2.295-.429-4.709.641M276.573 777.144c-.005.4 1.38 1.618 2.968 2.538 3.572 2.245 4.092.651.522-1.694-2.677-1.834-3.475-2.044-3.49-.844M387.178 785.435c6.762 10.986 11.069 18.44 11.056 19.44-.02 1.6 1.386 1.118 2.812-.964.817-1.29 2.325-1.971 4.225-1.948 3 .038 3 .038-4.061-11.051-7.161-11.091-7.161-11.091-12.46-11.158l-5.3-.066zM287.482 784.482c1.387 1.017 2.678 1.734 2.882 1.436.606-.492-3.058-3.338-4.358-3.355-.5-.106.09.801 1.476 1.919M292.447 787.245c-.006.5 1.578 1.82 3.461 3.143 4.266 2.754 4.682 1.46.52-1.593-3.07-2.34-3.966-2.75-3.98-1.55M488.34 797.007c-.059 4.7.3 8.004.9 8.012.6.007 1.037-2.987 1.087-6.987.05-3.9.488-6.994.888-6.99.4.006 2.884 1.337 5.462 3.07 2.58 1.632 5.062 3.063 5.562 3.07.4.005 1.49.818 2.377 1.83 1.283 1.416 1.652 3.82 1.57 10.32-.091 7.3.193 8.603 1.879 9.725 1.984 1.225 2.747 4.234.947 4.212-.5-.007-4.768-2.56-9.33-5.618-4.662-3.059-9.03-5.714-9.628-5.821-.697-.21-1.043 3.387-1.047 11.687-.05 11.9-.05 11.9-2.027 10.076-1.087-1.014-2.457-3.431-3.133-5.34-.766-2.71-1.558-3.32-3.16-3.14s-2.314 1.071-2.54 3.068c-.327 2.196-.733 2.691-2.027 2.175-.895-.411-4.188-.953-7.284-1.292-4.295-.454-6.398-.18-9.518 1.38-10.165 5.074-13.689 14.93-10.682 30.27.941 4.711 7.742 20.598 9.426 21.92.396.304 2.168 2.527 4.038 4.95 2.262 3.029 3.04 4.839 2.43 5.631-.51.694-3.76 4.653-7.21 8.71l-6.394 7.42.275 17.906c.176 9.803.405 23.406.519 30.308l.143 12.503 31.593.697 31.695.599-.1 7.999c-.06 4.7.3 8.004.9 8.012.6.007 1.04-3.287 1.1-7.987.1-8 .1-8 3.4-7.958 19.8.149 64.412-.59 65.019-1.083.405-.395.52-17.595.18-38.2-.241-20.605-.42-46.11-.288-56.709.203-16.098.042-19.2-1.258-19.217-1.1-.014-1.32 1.484-1.103 8.187.242 4.603.457 19.307.587 32.81.13 13.502.358 35.207.595 48.211l.3 23.806-17.398-.219c-9.6-.12-24.702-.01-33.606.278l-16.306.395.12-9.6c.067-5.299-.275-9.904-.872-10.211-.594-.408-1.037 2.987-1.118 9.387l-.127 10.099-30.997-.39-30.998-.39.2-23.799c.163-12.999.027-26.101-.135-29.104-.336-5.104-.027-5.8 3.732-10.454 2.135-2.773 5.384-6.632 7.006-8.412 2.841-3.265 3.143-3.361 4.824-1.84 3.46 3.144 12.4 7.957 16.588 9.01 5.783 1.372 10.3.029 15.961-4.8 5.763-4.928 9.864-12.977 9.945-19.377.081-6.5-3.317-22.543-4.817-22.562-1.1-.014-1.23 2.284-.046 3.6 2.269 2.528 3.79 24.749 1.775 25.924-.705.39-.898-.212-.376-1.905.317-1.396-.022-6.2-.966-10.713-2.622-14.134-11.136-29.042-20.94-36.666-2.774-2.135-4.849-4.161-4.546-4.358.708-.69 8.744 4.51 11.308 7.343 2.27 2.429 4.853 3.761 3.677 1.846-.586-1.107 1.583-14.48 2.604-16.168 1.225-1.985 3.696.346 4.448 4.156.47 2.406 1.163 2.915 3.463 2.944 4.6.058 5.078 1.764 2.977 9.838-1.05 3.987-1.594 7.48-1.197 7.686.396.305 1.006-.488 1.323-1.784.315-1.196 1.26-4.784 2.099-7.874 1.261-4.885 1.275-5.985.187-6.898-.99-.813-1.263-3.016-1.006-7.514.264-5.097-.015-6.8-1.394-8.418-1.382-1.517-1.755-3.622-1.677-9.822.059-4.7-.395-8.405-1.082-9.414-1.87-2.424-14.576-9.984-16.775-10.012-1.7-.02-1.91.777-2 7.976m13.203 23.768c5.751 3.872 8.223 6.104 7.616 6.696s-.821 1.69-.53 2.393c.29.804-.118 1.4-1.118 1.387-.9-.012-1.987-1.025-2.47-2.332-.97-2.412-5.708-7.372-6.517-6.682-.204.297-1.148 3.786-2.098 7.774-1.91 8.777-2.32 9.572-4.2 7.948-1.682-1.421-1.812-22.925-.112-22.903.5.006 4.768 2.56 9.429 5.719m-19.305 8.158c.284 1.303-.025 2-.925 1.988-.8-.01-1.388-.917-1.374-2.017s.425-1.995.925-1.989 1.088.914 1.374 2.018m-5.35 3.933c5.365 2.868 15.047 12.29 19.364 18.945 5.493 8.57 9.16 19.116 9.454 27.62.223 6.104.218 6.504-.43 2.295-1.093-8.414-3.69-16.647-7.498-23.996-4.784-9.26-15.739-20.9-22.997-24.29-2.982-1.438-4.568-2.558-3.568-2.546 1.001-.087 3.49.844 5.676 1.972m-1.738 3.078c15.698 8.198 28.33 29.659 28.1 47.957-.136 10.8-2.696 15.568-9.826 17.878-4.42 1.545-15.889-1-18.35-4.03-.297-.305-1.586-1.22-2.778-1.836-1.291-.716-2.182-1.427-1.98-1.625.203-.197 2.989.938 6.168 2.578 10.632 5.534 19.26 3.342 22.874-5.713 2.168-5.373 2.322-9.672.614-16.994-5.595-24.372-29.343-44.572-42.845-36.541-1.812.977-4.145 3.548-5.27 5.634-1.537 2.881-2.042 3.275-2.122 1.674.014-1.1.743-3.391 1.564-5.081 4.408-8.545 12.425-9.845 23.85-3.9m-.067 5.3c11.909 7.35 20.94 20.865 23.262 34.995 2.33 13.63-2.176 21.974-11.574 21.756l-3.199-.14 3.318-1.358c2.412-.97 3.935-2.751 5.477-6.132 6.172-13.624-4.33-37.357-20.423-46.06-7.052-3.79-13.258-3.367-17.416 1.18-1.926 2.077-2.832 2.565-2.82 1.566.03-2.4 3.08-6.362 6.002-8.026 3.726-2.053 12.214-1.046 17.373 2.219m-3.462 4.957c6.159 3.277 13.16 11.266 17.053 19.716 2.826 5.936 3.104 7.64 3.106 15.44-.11 8.8-.111 8.9-3.448 11.757-3.437 2.957-9.148 3.786-12.222 1.747-1.092-.714-.388-1.005 2.612-.967 4.7.059 7.424-1.907 9.485-6.682 4.021-9.65-7.322-30.194-19.946-36.253-6.758-3.385-10.867-2.737-14.827 2.014-2.537 2.968-2.3-.03.253-4.197 3.571-5.656 10.183-6.573 17.934-2.575m-22.284 6.52c-.216 1.298-.406.495-.379-1.705-.072-2.2.14-3.198.43-2.294.187 1.002.164 2.802-.051 4m16.511-.792c12.154 3.753 24.097 24.304 20.363 34.958-2.182 6.473-6.995 7.513-15.544 3.405-9.244-4.516-17.097-16.316-17.865-26.826-.518-6.507 1.13-10.287 5.15-11.837 3.014-1.162 3.414-1.157 7.896.3"/><path d="M465.447 867.925c-1.122 1.786-2.047 3.774-2.055 4.374-.024 1.9 4.13 5.653 5.637 5.072.803-.29 2.607-.568 3.907-.551 3.6.045 3.365-5.158-.386-9.106-3.653-3.746-4.654-3.659-7.103.21m2.762 3.035c1.284 1.316 1.54 4.82.34 4.804-1.4-.017-3.17-2.34-3.147-4.24.026-2.1 1.129-2.285 2.807-.564m2.894.536c-.404.295-.7-.009-.691-.709.008-.7.312-.996.708-.69a1.2 1.2 0 0 1-.017 1.4M303.848 795.188c2.673 2.234 5.46 3.27 5.474 2.17.007-.6-6.542-4.683-7.542-4.696-.5-.006.486 1.106 2.068 2.526M495.487 801.297c-.709.691-1.221 1.685-1.229 2.285-.009.7-1.121 1.686-2.529 2.268-1.407.583-2.52 1.569-2.527 2.169-.023 1.8 1.686 1.12 5.025-1.937 3.338-3.059 5.15-3.936 3.12-1.561-1.32 1.583.16 3.202 1.873 2.123 1.512-.98 1.237-2.984-.74-4.81-1.383-1.317-2.082-1.426-2.993-.537M312.089 799.992c1.574 2.02 7.136 5.09 7.149 4.09.007-.6-1.576-1.92-3.56-3.144-3.97-2.45-5.068-2.664-3.59-.946M546.739 805.441c-3.644 3.455.326 13.806 6.194 16.38 3.184 1.34 7.1.089 7.13-2.311.009-.7.826-2.09 1.938-2.976 1.72-1.578 2.12-1.573 7.094.49 14.527 5.882 13.934 5.375 13.83 13.674-.055 4.3.305 7.505.905 7.512 1.5.019 1.495-15.482.01-16.701-.694-.509-5.068-2.564-9.645-4.422-4.676-1.959-9.048-4.214-9.738-5.022-.789-.91-2.46-3.132-3.838-4.949-2.265-2.829-3.06-3.239-7.36-3.293-3.2-.04-5.407.532-6.52 1.618m8.856 3.512c1.774 2.122 2.547 4.232 2.512 7.032-.045 3.6-.249 3.897-2.849 3.865-4.9-.062-9.602-7.822-7.742-12.599 1.033-2.587 5.322-1.733 8.08 1.702m4.994.563c.388.905.376 1.905.173 2.102-.81.79-2.59-.832-2.57-2.332.023-1.9 1.622-1.78 2.397.23"/><path d="M549.178 810.272c-.61.793-.924 1.889-.531 2.494.49.806 1.093.514 2.007-.575 1.22-1.585 1.32-1.583 2.395.43s.767 2.61-1.129 2.286c-1.197-.215-.921 1.689.269 2.504.596.307 1.8.022 2.61-.867 1.216-1.185 1.325-1.884.249-3.798-1.95-4.024-3.84-4.848-5.87-2.474M322.702 806.926c.294.504 1.288 1.017 2.188 1.028 1.1.014 1.39.817 1.062 3.013-.324 1.897-.137 2.899.566 2.708 1.907-.576 1.963-4.976.08-6.4-2.08-1.526-4.778-1.76-3.896-.349M482.658 811.437c-1.616 1.28-2.63 2.367-2.13 2.473.999.013 7.648-3.804 7.656-4.504.015-1.2-2.798-.135-5.526 2.03M474.401 815.933c-4.737 2.941-4.154 4.248.678 1.809 2.214-1.172 4.03-2.45 4.037-2.95.018-1.4-1.186-1.115-4.715 1.141M541.478 818.176c-1.01.788-1.418 1.483-.718 1.491 1.9.024 4.313-1.045 4.326-2.045.016-1.3-1.387-1.118-3.608.554M319.683 816.39c-1.11.785-1.721 1.678-1.426 2.081.692.61 4.821-1.64 4.835-2.74.015-1.199-1.289-.915-3.409.658M310.053 818.768c-1.414 1.083-2.825 1.965-3.225 1.96s-3.016 1.262-5.738 2.928c-2.82 1.565-5.33 2.433-5.624 1.93-.785-1.21-7.483-1.395-7.498-.195-.005.4-1.125 1.986-2.544 3.469-2.939 3.063-3.051 4.062-1.1 7.986q1.463 2.87 1.352 11.718c-.066 5.3.288 8.905.888 8.912s1.04-3.087 1.093-7.387l.094-7.5 5.408-.531c6.11-.723 9.24-3.084 8.38-6.395-.572-2.208.137-2.899 9.708-8.479 3.125-1.96 5.748-3.828 5.755-4.328s-.975-2.012-2.157-3.427c-2.267-2.63-2.267-2.63-4.792-.66m2.462 3.031c.293.504.387 1.005.087 1.002-.3-.004-.794-.51-1.087-1.014-.293-.604-.388-1.005-.088-1.001.3.003.795.41 1.088 1.013m-2.014 1.075c1.079 1.714-.126 2.099-1.505.381-.788-.91-.781-1.51-.181-1.502s1.394.518 1.686 1.121m-2.531 2.469c-.018 1.4-.318 1.396-1.505.38-.791-.71-1.482-1.418-1.48-1.618s.705-.391 1.505-.381 1.491.719 1.48 1.619m-2.913.963c.984 1.313.979 1.713-.23 2.497-4.337 2.846-4.838 2.94-5.91.726-.687-1.109-.973-2.212-.772-2.31.81-.69 4.432-2.444 4.933-2.538.4.005 1.19.715 1.98 1.625m-13.097-.264c-.004.3-.206.497-.506.493s-.498-.206-.494-.506.206-.498.506-.494.498.207.494.507m5.743 4.572c2.257 3.429 2.807 7.436 1.194 8.416-.504.293-.887-1.012-.862-3.011s-.449-4.106-1.041-4.714c-.79-.81-1.094-.514-1.114 1.086-.031 2.5-2.537 2.969-3.407.558-.871-2.312-.77-2.41 1.43-2.383 2.5.032 2.51-.768.334-2.696-1.386-1.117-1.384-1.317-.287-1.003.797.21 2.477 1.83 3.753 3.747m-5.78-1.673c-.013 1.1-1.918 1.476-2.507.569-.294-.504.113-.999.912-.989.9.012 1.598.22 1.595.42m-1.152 4.186c2.655 3.534 2.706 7.435.107 7.402-2.2-.028-6.045-4.476-6.012-7.076.048-3.8 3.05-3.962 5.905-.326m6.044 4.476c-.006.5-.413.995-1.013.988-.5-.006-.993-.513-.987-1.013.008-.6.513-.993 1.013-.987.6.007.994.412.987 1.012M464.125 821.905c-1.915 1.176-2.93 2.363-2.332 2.57 1.395.418 7.232-2.509 7.247-3.709.019-1.5-1.085-1.213-4.915 1.139M535.332 821.8c-1.307.583-2.318 1.47-2.325 1.97-.006.5 1.398.218 3.009-.662 4.528-2.243 3.844-3.452-.684-1.309M454.556 827.385c-2.118 1.373-3.435 2.757-2.838 2.964 1.494.52 8.349-3.795 7.661-4.804-.586-1.107-.183-1.302-4.823 1.84M525.96 827.482c-1.716 1.279-2.025 1.975-1.025 1.987.8.01 2.611-.867 4.025-1.95 1.716-1.278 2.025-1.974 1.025-1.986-.8-.01-2.611.867-4.025 1.95M518.108 831.584c-1.714 1.078-3.03 2.362-2.735 2.766.587 1.007 7.535-2.706 7.55-4.006.017-1.3-1.086-1.014-4.815 1.24M444.076 833.654c-1.814 1.077-3.129 2.26-2.832 2.564.79.71 7.633-2.604 7.647-3.704.017-1.4-.986-1.112-4.815 1.14M501.809 839.38c-.024 1.9.175 2.002.99.812.917-1.389 1.115-1.186 1.38 1.518.094.5.587 1.107 1.084 1.313 1.494.519 1.834-2.677.554-4.293-1.872-2.224-3.977-1.85-4.008.65M433.9 839.626c-1.913 1.076-2.928 2.264-2.331 2.471 1.395.418 7.232-2.51 7.247-3.71.018-1.399-.986-1.112-4.916 1.24M576.581 842.02c-1.016 1.287-1.245 3.584-.985 6.787.45 4.006.938 4.913 2.836 5.137 1.597.22 2.503-.269 3.125-1.961 1.034-2.688-.227-5.804-2.327-5.83-.8-.01-1.489-.919-1.475-2.019.029-2.3 1.033-2.587 2.81-.764.888.91 1.19.815 1.205-.385.011-.9-.676-1.909-1.572-2.22-2.19-.828-2.09-.827-3.617 1.254m3.097 8.239c-.012 1-.424 1.895-1.024 1.887-.5-.006-.984-1.212-.967-2.612s.429-2.295 1.024-1.887c.596.307.981 1.512.967 2.612M594.979 842.35c-2.45 3.87-.651 11.993 2.649 12.035 3.5.044 5.299-7.834 2.548-11.77-1.866-2.723-3.465-2.843-5.197-.264m3.953 3.75c.537 5.008-.084 6.7-1.865 5.177-1.385-1.217-1.812-7.023-.597-8.208 1.417-1.382 2.107-.573 2.462 3.032M604.482 842.17c-.313.996-.547 3.693-.576 5.993-.162 4.999 2.407 7.431 5.14 4.865 1.418-1.482 1.615-9.18.244-11.498-.98-1.612-4.286-1.154-4.808.64m3.27 2.441c-.014 1.1-.422 1.695-1.018 1.388-.496-.307-.984-1.313-.974-2.113s.518-1.393 1.018-1.387c.6.007.988.912.973 2.112m.428 5.706c-.023 1.8-2.019 1.475-2.295-.429-.288-1.003.119-1.498 1.015-1.187.696.309 1.287 1.016 1.28 1.616M613.779 842.487c-1.536 2.78-1.292 7.284.475 9.907 1.177 1.814 1.875 2.023 3.485 1.243 1.51-.78 1.926-2.076 1.972-5.775.083-6.6-3.477-9.745-5.932-5.375m3.943 4.55c-.058 4.6-1.386 6.783-2.45 3.97-.774-2.11-.714-6.91.196-7.699 1.62-1.58 2.305-.371 2.254 3.729M622.77 843.2c-1.549 3.88.268 10.504 2.968 10.538 4.8.06 5.152-12.036.36-12.797-1.695-.32-2.604.368-3.328 2.259m4.448 4.156c-.035 2.8-.449 3.895-1.548 3.88-1.6-.02-2.544-4.531-1.51-7.219 1.135-2.786 3.109-.66 3.058 3.34M538.98 841.847c-.708.691-1.223 1.885-1.234 2.785-.026 2 3.333 5.342 4.245 4.353.404-.295.699.109.688 1.009-.026 2-1.64 3.08-2.522 1.668-.88-1.51-2.484-1.23-2.504.369-.024 1.9 2.764 2.835 5.08 1.664 1.409-.782 1.925-2.076 1.963-5.076.083-6.6-2.577-9.833-5.715-6.772m3.345 4.442c-.516 1.294-1.017 1.388-1.807.578-.593-.608-.778-1.81-.365-2.805.516-1.294 1.017-1.388 1.807-.578.593.608.778 1.81.365 2.805M547.771 842.657c-1.23 2.385-.168 5.399 2.613 6.934.894.511 1.281 1.516.874 2.11-.611.893-1.111.887-2.2-.027s-1.39-.817-1.406.483c-.014 1.1.88 1.61 2.88 1.636 3.4.043 4.328-2.246 3.406-8.458-.561-3.107-1.148-4.115-2.846-4.336-1.397-.218-2.605.367-3.32 1.658m3.967 2.65c-.017 1.4-.431 2.495-1.031 2.488-.5-.007-.986-1.113-.969-2.513s.532-2.493 1.032-2.487c.6.008.986 1.113.968 2.512M557.175 842.376c-1.133 2.685.419 6.505 2.519 6.532 1.2.015 1.99.725 1.98 1.625-.016 1.2-.62 1.492-2.613.967-1.894-.524-2.496-.331-2.207.572.577 1.808 4.87 2.362 5.892.674 1.325-1.983 1.215-9.185-.167-10.603-1.679-1.72-4.681-1.559-5.404.233m4.175 2.052c.774 2.11-.651 4.092-1.73 2.379-1.176-1.915-1.05-3.914.149-3.899.6.008 1.291.716 1.581 1.52M566.775 842.496c-1.725 1.979-.96 4.788 1.724 6.022 3.082 1.44 2.85 3.936-.339 3.096-1.893-.524-2.296-.329-1.91.876.774 2.01 4.975 1.963 5.8-.027.311-.896.639-3.092.661-4.892s-.25-4.003-.538-4.907c-.775-2.01-3.773-2.148-5.398-.168m3.967 2.65c-.025 2-1.533 2.581-2.413.97-.783-1.31.453-4.195 1.544-3.48.496.305.883 1.41.869 2.51M499.354 843.749c-1.923 1.776-1.744 3.478.347 4.205.796.31 1 .012.609-.693-.392-.705-.177-1.902.533-2.693 1.727-2.079.536-2.794-1.49-.819M425.336 844.719c-1.01.787-2.42 1.57-3.023 1.762-.602.193-.809.69-.514 1.094.79.81 6.929-2.213 6.944-3.413.016-1.3-1.186-1.115-3.407.557M585.704 848.234c-.006.5 1.387 1.018 2.987 1.038 1.7.021 3.006-.462 3.013-.962.007-.6-1.288-1.016-2.988-1.038-1.6-.02-3.004.363-3.012.962M411.673 849.648c-4.635 2.742-6.141 3.223-9.635 2.679-3.693-.547-4.296-.354-6.33 2.32-2.747 3.766-2.782 6.566-.116 9.3 1.48 1.518 2.776 1.935 4.982 1.462 2.908-.663 2.908-.663 2.68 17.436-.142 11.399.173 18.103.773 18.11 1.4.018 1.726-33.88.398-39.597-.667-2.609-2.133-5.328-3.62-6.446-1.78-1.523-1.974-2.025-.874-2.012 2.8.036 5.648 4.172 5.6 7.971-.044 3.5 1.457 3.419 2.202-.172.114-1.099 2.74-3.166 5.759-4.628 6.745-3.515 7.553-4.205 6.785-6.715-1.06-3.214-2.66-3.134-8.604.292m6.999.088c-.01.8-.415 1.195-1.011.887-.496-.306-.988-1.012-.98-1.612.006-.5.511-.894 1.011-.888.6.008.991.713.98 1.613m-2.227 2.172c.577 1.807-1.518 1.38-2.195-.428-.388-1.005-.083-1.4.615-1.192.597.207 1.387 1.017 1.58 1.62m-2.817 1.265c-.007.6-.408.694-1.004.387-.497-.306-.987-1.113-.98-1.612.007-.6.508-.694 1.005-.388.596.308.986 1.113.98 1.613m-2.018 1.474c-.01.8-.418 1.395-.918 1.389-1.1-.014-2.167-2.628-1.357-3.417.911-.89 2.296.328 2.275 2.028m-3.223 1.76c.285 1.204-.121 1.699-1.017 1.387-.696-.309-1.484-1.318-1.572-2.22-.285-1.203.121-1.698 1.017-1.387.696.309 1.484 1.319 1.572 2.22m-9.103.186c-.403.295-.7-.01-.69-.71.008-.7.312-.995.708-.69a1.2 1.2 0 0 1-.018 1.4m-.331 2.496c2.16 3.127 1.94 4.824-.46 4.794-1.3-.016-2.388-1.03-2.967-2.637-1.644-4.521.875-5.99 3.427-2.157m3.6-.055c-.005.5-.41.895-1.01.887-.5-.006-.991-.712-.98-1.612.01-.8.515-1.194 1.011-.888.596.308.987 1.013.98 1.613m-.042 3.4c-.004.3-.206.497-.506.493s-.497-.206-.494-.506.207-.497.507-.494.497.207.493.507M502.274 850.086c-.611.893 4.053 3.751 4.863 2.962.304-.297-.583-1.308-1.872-2.224-1.39-.818-2.685-1.234-2.99-.738M510.99 856.896c1.482 1.419 3.071 2.24 3.475 1.944.71-.791-3.543-4.545-5.243-4.566-.6-.008.185 1.202 1.767 2.622M516.549 860.166c-.013 1 5.943 4.575 6.55 3.983.506-.494-4.84-4.761-5.94-4.775-.3-.004-.605.392-.61.792M249.106 861.906c-2.738 2.966-1.086 6.787 2.622 6.233.4.005.69.809.674 2.009-.022 1.8-.425 1.995-2.618 1.467-1.894-.524-2.496-.331-2.208.572.578 1.808 3.572 2.245 5.29.867 2.021-1.675 2.018-9.375.043-11.4-1.875-2.024-1.675-2.022-3.803.252m3.36 3.242c-.026 2-1.533 2.581-2.512.869-.881-1.511.354-4.296 1.544-3.481.496.306.981 1.512.967 2.612M268.61 861.65c-.608.693-1.03 2.388-1.046 3.688.084 1.301-.139 3.099-.549 3.893-.311.897-.03 2.4.756 3.51 1.18 1.615 1.777 1.823 3.288.942 2.62-1.568 3.038-10.963.456-12.396-1.29-.716-2.092-.626-2.905.364m2.868 2.637c-.014 1.1-.426 1.995-.925 1.989-1.4-.018-2.278-1.83-1.563-3.02 1.022-1.687 2.514-1.069 2.488 1.031m-.076 6c-.014 1.1-.425 1.994-.925 1.988-1.4-.017-2.277-1.829-1.562-3.02 1.021-1.687 2.514-1.068 2.487 1.032M278.007 861.969c-2.229 2.272-1.83 10.278.652 11.81 1.488.918 2.09.725 3.31-.86 1.933-2.575 1.461-4.781-1.324-6.016-2.287-1.03-2.863-2.937-1.25-4.016.505-.294 1.202-.085 1.594.52s1.09.813 1.595.42c.605-.393.614-1.093-.175-2.003-1.477-1.818-2.377-1.83-4.402.145m3.393 8.543c-.025 2-1.532 2.581-2.511.869-.881-1.511.354-4.296 1.544-3.481.496.306.98 1.512.967 2.612M297.102 862.509c-2.028 2.175-2.202 8.073-.335 10.697 3.049 4.138 6.931-2.413 5.314-9.034-.762-3.01-3.052-3.839-4.98-1.663m3.328 5.742c-.04 3.2-.455 4.395-1.253 4.185-1.393-.518-2.223-6.129-1.293-8.517 1.134-2.686 2.603-.167 2.546 4.332M306.71 861.93c-.509.693-1.041 3.287-1.073 5.787-.059 4.7 1.012 7.013 3.312 7.042 2.1.026 3.646-3.655 2.573-5.768-.684-1.309-.571-2.308.137-2.999.912-.888.722-1.69-.66-3.208-2.07-2.327-2.868-2.537-4.289-.854m3.265 2.84c-.01.7-.62 1.493-1.222 1.686-.803.29-1.295-.417-1.278-1.716.016-1.3.525-1.994 1.322-1.784.596.308 1.186 1.115 1.178 1.815m-.076 6c-.009.7-.619 1.493-1.221 1.685-.804.29-1.295-.416-1.279-1.716s.525-1.994 1.323-1.783c.596.307 1.186 1.115 1.177 1.814M326.096 863.173c-4.07 5.55.008 15.302 4.27 10.355 1.826-2.077.482-6.495-1.918-6.525-1.1-.014-1.992-.625-1.982-1.425.027-2.2 1.937-2.976 3.52-1.556 1.78 1.523 2-.075.322-1.796s-2.48-1.531-4.212.947m3.3 7.943c-.025 2-1.532 2.58-2.51.868-.882-1.511.353-4.296 1.543-3.48.496.305.981 1.512.967 2.612M238.491 862.973c-.92 1.588-.83 2.39.451 3.906.888 1.01 2.38 1.63 3.184 1.34 1.105-.387 1.401-.083 1.083 1.313-.215 1.198-1.223 1.885-2.622 1.768-2.599-.133-2.424 1.87.17 2.402 3.69.746 6.08-6.324 3.737-10.854-1.369-2.517-4.57-2.458-6.003.125m4.588 1.057c.978 1.713-1.346 3.584-2.728 2.166-1.185-1.215-.358-3.305 1.141-3.286.5.007 1.194.515 1.587 1.12M258.004 862.118c.293.503 1.287 1.016 2.087 1.026 1.7.021 1.701-.079-.257 4.497-1.546 3.681-1.381 6.483.419 6.506.5.006 1.121-1.686 1.447-3.782.326-1.996.962-4.889 1.282-6.485.731-2.49.534-2.693-2.366-2.73-1.9-.023-3.005.363-2.612.968M316.994 863.259c-1.615 1.18-1.616 1.28-.124 1.899 1.194.515 1.576 1.92 1.535 5.22-.035 2.8.344 4.404.95 4.012 1.21-.785 1.44-11.183.249-11.898-.396-.305-1.601.08-2.61.767M526.173 866.288c-.305.396.978 1.712 2.862 3.036 1.884 1.224 3.377 1.843 3.383 1.343.018-1.4-5.733-5.373-6.245-4.38M286.926 868.482c-.407.595.687 1.008 2.387 1.03 1.7.021 3.106-.461 3.113-.961.007-.6-1.088-1.014-2.388-1.03-1.4-.018-2.804.364-3.112.96M534.398 872.292c-.007.5 1.577 1.82 3.46 3.143 4.166 2.753 4.685 1.26.622-1.692-3.072-2.239-4.067-2.651-4.082-1.451M545.306 879.63c-.007.6.484 1.305.98 1.612.596.307.979 1.712.961 3.112-.016 1.3.47 2.406.97 2.412 1.4.018 1.253-4.184-.32-6.304-1.377-1.918-2.573-2.233-2.59-.833M542.488 888.995c-2.212.972-3.133 2.66-1.533 2.68 1.2.016 4.834-2.739 4.24-3.246-.297-.204-1.5-.02-2.707.566M527.212 895.003c-7.557 4.506-9.566 5.18-10.643 3.367-.293-.604-1.888-1.024-3.388-1.043-2.1-.026-3.41.857-5.45 4.032-1.528 2.18-2.765 5.066-2.78 6.365-.037 2.9 5.092 8.565 7.792 8.599 1.9.024 2.093.526 2.007 7.426-.052 4.1.402 7.805.898 8.112.595.407 1.027-2.188 1.09-7.187.098-7.8.1-7.9 3.013-8.963 2.511-.868 3.021-1.662 3.361-4.858.344-3.496.852-4.09 7.4-7.908 7.859-4.601 9.575-5.88 9.592-7.28.016-1.2-3.636-5.046-4.636-5.058-.5-.007-4.126 2.048-8.256 4.396m9.912-.875c.688.908.78 1.51.18 1.502-.5-.006-1.19-.715-1.58-1.52-.29-.804-.381-1.505-.181-1.502s.89.71 1.58 1.52m-2.02 1.574c-.007.5-.51.694-1.204.285-.794-.51-.897-.211-.511.894.773 2.11-.628 2.192-2.204.272-.986-1.112-.781-1.51.624-1.892 3.01-.762 3.308-.659 3.295.441m-4.644 3.442c.482 1.406.381 1.505-.905.389-1.682-1.421-1.875-2.024-.575-2.007.5.006 1.191.715 1.48 1.618m-2.619 1.467c.189.903-.93 2.389-2.442 3.37-2.621 1.667-2.821 1.665-4.099-.151-1.178-1.715-1.073-2.114.847-3.69 2.626-2.067 5.223-1.835 5.694.471m-11.204.26c4.163 2.952 5.746 12.273 2.233 13.329-1.306.483-1.304.283-.086-1.101 2.945-3.564-.953-11.713-6.236-13.08-1.994-.525-1.994-.525.007-.6 1.1.014 2.992.638 4.082 1.452m-2.926 2.063c-.304.296-1.205.385-1.901.076-.796-.31-.492-.606.607-.592 1.102-.086 1.698.221 1.294.516m-1.743 3.378c2.173 2.228 2.7 8.035.6 8.009-3-.038-5.66-3.172-5.617-6.671.05-4 1.957-4.476 5.017-1.338m4.991.763c-.134 2.699-.134 2.699-1.51.881-1.87-2.523-1.856-3.623.044-3.6 1 .013 1.488 1.02 1.466 2.72m1.446 4.319c-.306.496-1.112.986-1.612.98-.6-.008-.694-.51-.388-1.005.308-.597 1.113-.986 1.613-.98.6.007.695.409.387 1.005M414.175 905.184c-2.855 4.364-.66 12.692 2.958 11.338 2.21-.773 3.155-4.361 2.41-8.77-.75-4.01-3.633-5.347-5.368-2.568m3.536 5.144c-.23 2.398-.754 4.291-1.354 4.284-.5-.007-1.076-1.914-1.246-4.316-.259-3.304.053-4.2 1.352-4.184s1.589.92 1.248 4.216M424.58 904.814c-2.023 1.875-2.221 9.673-.342 11.297.693.609 2.089.926 2.994.538 2.411-.87 2.175-5.974-.402-7.806-1.19-.815-1.776-1.923-1.367-2.618.51-.793 1.01-.787 2 .026.89.71 1.49.818 1.898.123.408-.594-.181-1.502-1.275-2.016-1.49-.819-2.29-.729-3.506.456m2.3 7.93c-.017 1.4-.43 2.495-.93 2.488-1.2-.015-1.874-2.123-1.253-3.816.827-2.09 2.217-1.272 2.184 1.328M357.974 904.877c-1.826 2.077-.481 6.495 1.918 6.525 2.2.028 2.49.831.963 3.012-.917 1.289-1.117 1.286-1.9-.024-.59-.807-1.286-1.116-1.691-.721-1.315 1.184 1.263 2.916 3.37 2.343 1.407-.483 2.123-1.774 2.456-4.37.984-6.688-1.968-10.525-5.116-6.765m3.765 2.848c.187 1.002-.321 1.696-1.221 1.685-1-.013-1.589-.92-1.574-2.12.03-2.4 2.326-2.071 2.795.435M366.967 905.49c-1.33 2.384.225 6.004 2.425 6.031.8.01 1.492.62 1.483 1.319-.026 2.1-1.235 2.785-2.72 1.566-.988-.913-1.29-.816-1.306.484-.029 2.3 3.675 2.046 5.004-.238.513-1.093 1.043-3.487 1.066-5.287.068-5.4-3.702-7.847-5.952-3.875m3.974 2.15c-.03 2.4-2.327 2.071-2.795-.435-.188-1.002.321-1.696 1.221-1.685 1 .013 1.589.92 1.574 2.12M375.98 904.604c-.007.5.887 1.01 1.986 1.025 2.3.028 2.393.63.45 4.006-1.736 2.878-2.088 6.974-.588 6.993.6.007 1.013-.988 1.03-2.288.114-1.198.74-3.29 1.558-4.68 2.453-4.17 1.975-5.976-1.424-6.019-1.6-.02-3.005.363-3.013.963M385.87 905.328c-.913 1.088-1.024 1.987-.24 3.197.686 1.209.673 2.209-.042 3.4-.815 1.19-.726 2.09.16 3.202 2.954 3.638 5.688.972 5.667-5.33-.027-5.8-2.602-7.832-5.544-4.47m3.88 1.649c-.622 1.792-2.826 2.064-2.804.365a1.58 1.58 0 0 1 1.62-1.58c.9.011 1.393.517 1.184 1.215m-.372 5.796c-.01.7-.62 1.492-1.222 1.684-.803.29-1.295-.416-1.278-1.716s.525-1.993 1.322-1.783c.596.307 1.186 1.115 1.178 1.815M395.681 904.551c-.403.295-.737 2.991-.774 5.89-.069 5.5 1.705 7.623 4.533 5.358 2.123-1.773 1.757-4.478-1.017-6.613-1.783-1.323-2.172-2.228-1.56-3.22.816-1.19 1.216-1.185 2.503-.169 1.286 1.117 1.586 1.12 1.604-.28.02-1.6-3.971-2.35-5.289-.966m3.195 8.44c-.026 2-1.533 2.582-2.512.87-.88-1.512.354-4.296 1.544-3.481.497.306.981 1.512.968 2.612M433.866 906.031c-1.116 1.286-1.121 1.686-.125 1.999.696.308 1.173 2.115 1.146 4.314-.027 2.1.447 4.206.943 4.513.595.407 1.022-1.788 1.074-5.887.085-6.8-.6-7.909-3.038-4.939M442.679 905.042c-.405.395-.721 1.69-.735 2.79.076 1.902.176 1.903 1.096.314.511-.893 1.421-1.682 1.921-1.676 1.4.018 1.174 2.115-.449 3.895-.711.891-1.732 2.579-2.149 3.873-.731 2.491 1.251 3.916 4.266 2.754 1.508-.58 1.41-.782-.68-1.608-2.388-.93-2.388-.93-.158-3.303 2.836-2.864 2.588-6.968-.307-7.404-1.198-.215-2.4-.03-2.805.365M404.902 910.967c-.007.5 1.387 1.018 3.087 1.04 1.7.02 2.805-.365 2.412-.97-.292-.604-1.687-1.022-3.087-1.04-1.3-.016-2.405.37-2.412.97M271.773 920.395c-19.503.055-35.906.25-36.308.344-.4-.005-.667 5.392-.648 11.793l.152 11.803 45 .265c24.7.11 45.304-.03 45.609-.427.405-.395.575-5.993.357-12.496l-.453-11.707-9.102.086c-5 .037-25.104.184-44.607.34m50.855 11.84-.13 10.4-35.71.45c-19.704.253-38.708.414-42.307.37l-6.5-.083.132-10.499.132-10.499 26.004-.173c14.303-.12 33.305-.182 42.307-.269l16.202-.096z"/><path d="M278.428 923.98c-1.114 1.085-.855 4.389.245 4.403.6.007 1.006-.488 1.012-.988.008-.6.713-.99 1.613-.98 1.2.016 1.393.518.878 1.712-1.339 3.083-2.06 12.675-.95 11.989.604-.393 1.34-3.284 1.68-6.38.34-3.196.784-6.69.998-7.788.219-1.497-.274-2.103-2.171-2.327-1.398-.218-2.9-.037-3.305.358M289.71 925.421c-1.843 3.477-1.287 6.984 1.396 8.318 2.486 1.132 3.26 3.242 1.546 4.32-.504.294-1.2.085-1.593-.52s-1.09-.814-1.595-.42c-1.309.684.757 3.41 2.657 3.434 4.9.061 4.312-16.848-.586-17.01-.4-.004-1.212.886-1.824 1.878m3.751 3.948c.17 2.402-.14 3.198-1.24 3.184-1.2-.015-1.587-1.02-1.554-3.62.056-4.5 2.452-4.17 2.794.436M300.71 925.56c-1.743 3.378-1.346 11.583.73 13.51 1.582 1.42 1.981 1.525 2.997.237 2.233-2.572 2.613-8.968.856-12.39-1.853-3.724-3.05-4.039-4.583-1.358m3.917 6.65c-.028 2.199-.458 4.594-.968 5.387-2.243 3.372-3.236-5.14-1.363-10.918.931-2.488 2.387 1.03 2.33 5.53M245.91 925.17c-1.72 1.68-1.767 13.28.016 14.702 1.088.914 1.79.823 3.006-.462 2.327-2.171 1.794-7.478-.788-8.91-1.193-.616-1.878-1.825-1.665-2.822.423-1.795 2.23-2.372 2.207-.572-.006.5.492.706.995.412.806-.49.714-1.09-.073-2.1-1.379-1.718-2.078-1.827-3.698-.247m2.678 9.735c-.021 1.7-.44 3.195-.944 3.489-1.108.686-2.348-4.13-1.532-5.42 1.225-1.985 2.512-.869 2.476 1.931M256.807 925.508c-.711.89-1.15 3.985-.998 7.788.225 6.003.321 6.304 2.72 6.334 1.9.024 2.608-.567 2.83-2.364.65-3.892-.61-7.108-2.71-7.135-1.1-.014-1.992-.625-1.982-1.425.024-1.9 2.341-3.27 2.822-1.765.191.703.788 1.01 1.191.715 1.31-.783.144-3.498-1.455-3.518-.7-.009-1.808.577-2.418 1.37m3.28 9.642c-.046 3.6-2.942 3.263-3.297-.342-.27-2.303.035-2.8 1.532-2.48 1.197.214 1.784 1.222 1.764 2.822M268.414 932.954c1.198.215 2.998.238 4 .05.904-.288-.094-.5-2.295-.429-2.2-.027-3.002.163-1.705.38M510.213 934.593c-1.313.983-1.73 2.378-1.484 6.682.236 5.103.43 5.505 2.73 5.534 2.1.027 2.607-.467 2.842-3.264.334-2.696-.056-3.501-1.651-3.921-1.196-.315-2.082-1.427-2.07-2.427.027-2.1 1.633-2.58 2.309-.67.191.702.787 1.01 1.293.516.405-.395.118-1.399-.672-2.209-1.183-1.315-1.783-1.322-3.297-.241m2.598 8.133c.581 1.507-.133 2.598-1.533 2.58-.4-.004-.788-.91-.774-2.009.028-2.3 1.533-2.68 2.307-.571M528.204 935.419c-3.041 3.262-1.452 12.083 2.248 12.129 1.9.024 3.94-3.15 4.079-6.25.071-5.699-3.488-8.944-6.327-5.88m3.642 4.646c.279 1.704.153 3.702-.355 4.396-1.33 2.283-3.003.162-2.952-3.838.078-6.2 2.281-6.471 3.307-.558M537.912 934.84c-.609.693-1.143 3.387-1.175 5.986-.068 5.4 1.8 7.924 4.523 6.158 2.518-1.469 2.738-10.967.254-12.298-2.283-1.329-2.483-1.331-3.602.155m3.167 2.64c-.023 1.8-2.019 1.476-2.295-.428-.287-1.004.12-1.499 1.015-1.187.696.308 1.288 1.016 1.28 1.616m-.078 6.2c-.009.7-.619 1.493-1.221 1.685-.804.29-1.295-.416-1.279-1.716s.525-1.994 1.323-1.784c.596.308 1.186 1.115 1.177 1.815M556.207 935.37c-.827 2.09-.9 7.89-.125 9.9.873 2.211 4.075 2.051 5.405-.332 1.433-2.582-.225-6.004-2.924-6.037-1.4-.018-1.794-.523-1.28-1.617.312-.996 1.317-1.383 2.513-1.068 1.195.415 1.8.122 1.508-.581-.576-1.908-4.375-2.055-5.097-.264m3.801 7.85c-.032 2.599-2.03 2.474-2.297-.23-.28-1.603.128-2.198 1.024-1.887.696.309 1.285 1.216 1.273 2.116M481.601 935.333c-1.727 2.179-.875 5.99 1.711 7.122 2.685 1.234 2.26 3.129-.734 2.691-2.896-.336-2.227 2.172.667 2.609 2.795.435 4.639-3.042 4.002-8.05-.635-5.209-3.21-7.141-5.646-4.372m3.372 2.243c.678 1.808-.042 3.4-1.542 3.38-.5-.006-.886-1.11-.869-2.51.036-2.8 1.543-3.381 2.411-.87M499.491 936.258c-.719 1.491-.83 2.39-.04 3.2.691.709.68 1.608-.036 2.9-1.332 2.483.537 5.007 3.441 4.643 1.804-.277 2.113-.973 2.267-5.272.135-2.798-.23-5.603-.82-6.31-1.378-1.818-3.482-1.544-4.812.84m4.082 1.451c-.01.8-.719 1.492-1.518 1.482-1.6-.02-1.985-1.226-.772-2.31 1.115-1.186 2.31-.771 2.29.828m-.489 7.095c-.415 1.195-1.017 1.387-1.709.678-.493-.506-.678-1.708-.266-2.703.415-1.195 1.018-1.387 1.709-.679.494.507.679 1.709.266 2.704M547.696 936.164c-.912.988-.819 1.49.276 1.903.895.412 1.571 2.32 1.839 4.924.256 3.503.36 3.105.525-1.994.278-6.197-.406-7.505-2.64-4.833M471.588 936.307c-1.625 1.98.216 6.704 2.321 6.33.802-.19 1.5.019 1.495.419.267 2.603-.138 2.998-2.43 2.37-1.395-.418-2.497-.232-2.504.268-.02 1.6 3.971 2.35 5.486 1.17 1.516-1.282 2.094-7.475 1.03-10.389-.774-2.01-3.773-2.147-5.398-.168m3.967 2.65c-.025 2-1.532 2.581-2.51.869-.882-1.511.353-4.296 1.543-3.48.496.305.981 1.512.967 2.611M490.093 936.04c.294.504 1.293.616 2.196.328 1.306-.484 1.503-.182.878 1.81-1.462 4.883-1.912 8.877-1.112 8.887.5.007 1.424-1.882 2.054-4.274.629-2.292 1.462-4.982 1.975-5.976.617-1.392.221-1.697-2.978-1.737-2-.025-3.405.357-3.013.962M519.82 942.114c.897.211 2.496.231 3.499.044.904-.289.106-.499-1.794-.523s-2.702.166-1.706.479M501.726 989.19c-16.402.094-28.109.547-28.716 1.14-.608.592-.867 5.29-.555 12.294l.458 11.306 42.604-.064c23.403-.106 43.207-.258 43.91-.449.903-.288 1.246-3.684 1.356-12.484l.152-12.099-15.702.103c-8.702.09-28.304.144-43.507.253m56.051 12.206-.132 10.499-18.298-.23c-10.1-.127-28.602-.06-41.006.185l-22.706.314.134-10.599.134-10.699 24.802.012c13.6.07 32.001.102 41.003.015l16.201.003z"/><path d="M513.58 992.94c-1.114 1.086-.855 4.39.245 4.403.6.008 1.006-.487 1.012-.987.008-.6.713-.991 1.613-.98 1.2.015 1.393.517.878 1.711-1.44 3.182-2.328 10.172-1.544 11.482.98 1.612 1.6.02 2.384-6.671.335-2.796.674-5.892.888-6.99.219-1.497-.274-2.103-2.171-2.327-1.398-.217-2.9-.036-3.305.359M525.072 993.684c-.51.694-1.052 4.087-1.095 7.487-.185 6.798 1.48 9.62 4.505 7.657 2.216-1.272 2.66-12.767.587-14.894-1.679-1.72-2.677-1.833-3.997-.25m3.554 3.645c.181 1.502-.228 2.197-1.227 2.185-1.1-.014-1.59-.92-1.568-2.62.04-3.1 2.335-2.771 2.795.435m-.39 7.196c-.034 2.7-2.048 3.774-2.819 1.464-.775-2.01.359-4.696 1.753-4.178.597.208 1.082 1.414 1.066 2.714M535.86 994.62c-2.66 4.867-1.275 13.985 2.225 14.029 3.3.041 4.924-9.84 2.173-13.774-1.866-2.724-2.965-2.838-4.397-.255m3.38 1.642c.774 2.11.506 7.507-.524 9.894-1.341 3.284-2.486-1.13-2.096-8.327.243-3.397 1.654-4.28 2.62-1.567M546.398 999.653c-2.003 8.175-2.014 9.075-.714 9.091.6.008 1.015-1.187 1.033-2.587.023-1.9.43-2.495 1.827-2.177.997.212 1.685 1.221 1.567 2.62-.017 1.4.473 2.206 1.572 2.22 1.6.02 1.605-.38.267-5.297-.765-2.81-1.52-6.42-1.8-8.024-.843-4.51-1.96-3.125-3.752 4.154m3.384 1.342c-.007.5-.41.795-1.01.787-.5-.006-.988-1.012-.971-2.312.022-1.8.224-1.897 1.008-.687.49.806.978 1.812.973 2.212M482.96 994.355c-1.421 1.682-1.856 12.378-.474 13.795.494.506 1.79.823 2.793.635 3.006-.462 2.8-7.965-.183-9.303-2.288-1.029-2.869-2.536-1.553-3.82.305-.396 1.203-.185 1.994.525 1.781 1.523 2.897.237 1.321-1.683-1.476-1.919-2.376-1.93-3.898-.15m2.576 9.833c-.222 1.797-.741 3.291-1.34 3.283-.5-.006-1.082-1.513-1.26-3.316-.27-2.403.14-3.198 1.34-3.183s1.59.82 1.26 3.216M493.051 995.082c-1.53 2.48-1.74 11.179-.16 12.799 1.974 2.025 4.482 1.456 5.214-1.135.84-3.19-.804-7.61-2.804-7.636-.8-.01-1.489-.918-1.475-2.018.028-2.2 1.634-2.68 2.31-.771.191.702.788 1.01 1.193.615 1.112-.986-.153-3.803-1.653-3.821-.7-.01-1.91.876-2.625 1.967m3.187 9.04c-.016 1.3-.631 2.493-1.234 2.685-.903.289-1.292-.616-1.266-2.716s.438-2.995 1.335-2.783c.597.307 1.181 1.515 1.165 2.815M502.073 1001.396c-.206.497 1.39.817 3.69.846 2.4.03 3.904-.35 3.512-.956-.586-1.107-6.388-.98-7.202.11"/></svg>