<svg xmlns="http://www.w3.org/2000/svg" viewBox="0 0 864 1214" fill="currentColor"><path d="M77.5 85.4c-11.2 6.5-16.5 9.8-17 10.5-.5.9 12.1 20.8 15.8 24.8 1.9 2.2 2.2 2.2 3.9.6 1-.9 1.8-2.4 1.8-3.5 0-2.4.1-2.3 5.8 1.2 2.7 1.6 5.1 3 5.4 3s3.8 1.8 7.7 3.9c9.3 5.1 10.6 5.5 12.5 3.6 1.2-1.2 1.6-3.6 1.6-9.3v-7.7l-8.3-4.3c-4.5-2.4-12.1-6.4-16.9-8.9-8.8-4.5-8.8-4.5-8.8-9.9 0-5.7-.2-5.9-3.5-4m-.5 6.5c0 2.1.6 4.3 1.3 4.9.6.5 8.1 4.7 16.5 9.2l15.2 8.2v6.9c0 4.3-.4 6.9-1.1 6.9-.6 0-3.9-1.6-7.4-3.5-6.4-3.6-6.4-3.6-4.9-8.6.9-2.8 1.2-5.4.8-5.7-.4-.4-.9-.1-1.1.5-.7 2-2.3 1.5-2.3-.6 0-2.6-1.8-3.7-2.6-1.7-.9 2.4-2.4 1.9-2.4-.8 0-1.4-.5-2.8-1.1-3.2-.9-.5-1 .9-.4 5.2.8 6.9 1.1 7.4 2.9 4.9 1.7-2.4 3.6-1.1 3.6 2.6 0 1.6-.2 2.9-.4 2.9-.3 0-3.6-1.6-7.5-3.5-3.8-1.9-7.4-3.5-8-3.5-.5 0-1.1 1.2-1.3 2.7-.3 2.5-1 1.7-7.2-7.4-3.9-5.9-6.6-10.8-6.3-11.7.5-1.3 11.2-8.3 13-8.5.4-.1.7 1.6.7 3.8"/><path d="M78 106c0 3.3.4 6 1 6s1-.9 1-2.1c0-1.6.4-1.9 2-1.4 1.1.4 2 .2 2-.4s-.9-1.6-2-2.3c-2.9-1.8-2.5-3.1.8-2.4 2.7.7 2.7.7.2-1.4-4.2-3.3-5-2.6-5 4M100 117.3c0 4.6.3 5.5 2.3 6.3 3.2 1.4 5.4.7 6.1-2.1.8-3.2-1.1-7-4.1-8.4-3.9-1.8-4.3-1.4-4.3 4.2m6.6 1.3c.4 1.7.2 2.9-.6 3.4-2.4 1.5-4-.1-4-4.1 0-3.7.2-3.9 2-2.9 1.1.6 2.3 2.2 2.6 3.6M210 279c0 .5-.9 1-2 1-2.6 0-2.6 2 .1 2.7 1.7.5 2 1.2 1.8 5.1-.2 2.9.1 4.7.9 5 .9.3 1.2-1.7 1.2-7.2 0-4.4-.4-7.6-1-7.6-.5 0-1 .4-1 1M217.5 280.1c-.9 2.7.4 3.9 1.6 1.6.6-.9 1.7-1.7 2.4-1.7 2 0 1.9 3.6-.1 4.4-1.4.5-1.2.9.7 2.5s2.1 2.2 1.2 3.2c-1 1-1.8 1-3.8-.1-3.2-1.7-3.9-1-1.9 1.8 1.7 2.4 5.6 2.9 7.2.9 1.2-1.5 1.1-11.5-.1-13.5-1.4-2.1-6.5-1.5-7.2.9M229.2 280c-1.9 3.1-1.5 9.7.8 12 1.1 1.1 2.6 2 3.4 2 1.8 0 4.6-3.8 4.6-6.2s-3-5-5.1-4.5c-2.5.7-3.3-.8-1.3-2.4 1.2-1 2-1 3.4-.1 2.2 1.3 3.4.4 1.9-1.5-1.7-2-6.2-1.6-7.7.7m6.2 6.9c.9 1.4-.4 4.1-1.9 4.1-1.7 0-3.8-2.7-3-4 .8-1.2 4.2-1.3 4.9-.1M244 279c0 .6-1.2 2.8-2.6 5-2.9 4.3-2.5 6 1.2 6 1.4 0 2.7.7 3 1.5.8 1.9 2.4 2 2.4.1 0-.8.6-1.6 1.3-1.9 1-.4 1-.7 0-1.8-.7-.7-1.3-3.2-1.3-5.6 0-3.6-.3-4.3-2-4.3-1.1 0-2 .5-2 1m2 6.1c0 2-2.5 3.7-3.7 2.5-.9-.9 1.8-5.6 2.9-5 .4.3.8 1.4.8 2.5M180 281.5c-3 1.1-3.5 1.7-3.5 4.6 0 3.1.3 3.4 4 4.1 5.3 1.2 8.4.3 9.5-2.7.6-1.5 1.7-2.5 3-2.5 3.2 0 2.3-2.5-1.3-3.8-4-1.5-7.1-1.4-11.7.3m9.1 4c-1.2 2.6-2.2 3.4-4.1 3.5-4.3 0-7-1.2-7-3 0-2.2 3.5-3.8 8.6-3.9 4.1-.1 4.1-.1 2.5 3.4M734 284.8c0 .5.7 2.3 1.5 3.8 1.9 3.6 1.9 8.1 0 11.4-1.6 2.9-1.8 4-.7 4 1.3 0 4.2-6.8 4.2-9.6 0-1.4-.7-4.1-1.6-6-1.7-3.5-3.4-5.3-3.4-3.6"/><path d="M669.3 286.2c-2.8 3.7-3.6 7.9-2.3 11.9.7 2.1 2 4.5 2.8 5.2 1.3 1 .2 1.3-5.9 1.7l-7.4.5-.3 10.9c-.1 6 .1 11.3.5 11.7 1 1 84.7 1.4 86.3.4.6-.4 1-5 1-11.4 0-10.9 0-10.9-3.1-11.5-1.7-.3-17.9-.6-36-.6-27.7 0-32.9-.2-32.9-1.4 0-.8-.5-1.6-1.1-1.8-2-.7-2.4-10.4-.5-13.2.9-1.4 1.6-2.8 1.6-3.1 0-1-1.8-.5-2.7.7m71 24.5c.4 3.2.4 10-.2 15-.1 1-8.8 1.3-40.1 1.3h-40v-20h79.8z"/><path d="M666.5 310.4c-2.1 3.1-1.3 7.2 1.5 8.1 1.1.3 2 1.3 2 2.1 0 1.7-1.2 1.8-2.8.2-.9-.9-1.2-.7-1.2.9 0 2.7 2.5 3.6 4.5 1.7 2.3-2.3 2-11.6-.4-13.8-1.9-1.7-2-1.7-3.6.8m3.5 3.1c0 1.6-.6 2.5-1.5 2.5-1.5 0-2.1-3.1-.8-4.3 1.3-1.4 2.3-.6 2.3 1.8M677.2 309.2c-1.4 1.4-1.6 3.8-.4 3.8.4 0 1.3-.5 2-1.2 1.7-1.7 1.6 2.3 0 4.1-1 1.1-1 1.4 0 1.8 1.4.5 1.7 4.3.3 4.3-.5 0-1.1-.6-1.4-1.3-.2-.6-.8-.9-1.2-.5-1.5 1.4.5 3.9 2.7 3.6 2.1-.3 2.3-.9 2.4-6.3.2-8.1-1.5-11.2-4.4-8.3M698.1 309.4c-.7.8-1.1 3-.9 4.8.2 2.5.7 3.2 2.1 3 2.1-.4 3.4 2.5 1.9 4-.8.8-1.5.8-2.7-.2s-1.5-1-1.5.3c0 .8.7 2.1 1.6 2.8 1.4 1.1 1.9 1 3.5-1 2.5-3.1 2.4-4.7-.6-7.7s-3-3-.4-3.7c1.2-.3 1.9-1.2 1.7-1.9-.7-1.9-3.3-2.1-4.7-.4M709.9 309.2c0 .2-.1 3.8-.2 8.1-.2 6.9 0 7.7 1.7 7.7 1.2 0 1.6-.5 1.2-1.6-.3-.9-.6-4.5-.6-8 0-3.6-.4-6.4-1-6.4-.5 0-1 .1-1.1.2M719.2 310.2c-1.8 1.8-1.5 11.3.4 13.3 2.7 2.6 4.4.1 4.4-6.4 0-5-1.1-8.1-3-8.1-.3 0-1.1.5-1.8 1.2m2.8 6.3c0 3-.4 5.5-1 5.5-1.1 0-1.4-9.3-.3-10.3 1.2-1.2 1.3-.8 1.3 4.8M730.2 314.2c-2.7 5.2-2.7 5.8-.2 5.8 1.5 0 2 .7 2 2.6 0 1.5.5 2.4 1.2 2.2.7-.3 1.2-1.6 1.1-3.1s-.1-4.7-.2-7.2-.4-4.5-.9-4.5c-.4 0-1.7 1.9-3 4.2m1.8 3.4c0 .8-.5 1.2-1 .9-.6-.4-.8-1.1-.5-1.6.9-1.4 1.5-1.1 1.5.7M686 317c0 .5 1.6 1 3.6 1 2.1 0 3.3-.4 2.9-1-.3-.6-1.9-1-3.6-1-1.6 0-2.9.4-2.9 1M674.5 287.1c-.3.9-.5 4.5-.3 8 .3 6.4.3 6.4 4.6 6.7 2.5.2 4.2-.1 4.2-.7s-1.3-1.1-3-1.1c-3 0-3 0-3-5.8 0-6.1-1.4-10-2.5-7.1M694 287c0 .5 1.4 1 3 1 1.7 0 3 .1 3 .2 0 .2-.9 2.7-2 5.6-2.1 5.5-2.5 8.2-1.2 8.2.7 0 5.2-12.9 5.2-15 0-.6-1.8-1-4-1s-4 .4-4 1M704.6 288.2c-3.4 4.9-.9 14.3 3.7 13.6 1.2-.2 2.7-1.4 3.4-2.8 1.3-2.5 1.3-2.5 1.3.3 0 3.3 2 2.7 2.1-.6 0-1.4.2-1.7.6-.7.2.8.7 2.2 1 3 .3 1.1.8.9 1.8-1 1.4-2.5 1.4-2.5 1.5-.2 0 3.1 3.1 2.6 4.7-.8 1.2-2.5 1.2-2.5 1.3.2 0 3.4 1.3 3.6 2.8.5 1.1-2.2 1.1-2.2 1.1.1.1 1.3.5 2 1.1 1.7 1.2-.8 1.3-14.2.1-14.9-.9-.6-2.8 3.4-3.4 7.4-.3 2.5-.3 2.5-1-.3-.4-1.5-.9-3.8-1.2-5.1-.4-1.8-1.1-2.4-3-2.2-2 .1-2.8.8-3.5 3.6-.6 1.9-1 4.2-1.1 5-.1 2.5-1.8-2.2-1.8-5.3-.1-3.3-3.1-3.8-3.1-.5 0 2.3-.1 2.2-1.3-.2-1.7-3.3-5.1-3.7-7.1-.8m4.8 1.4c.9 2.4.7 7.7-.4 9.4-.9 1.3-1.2 1.2-2.5-.4-1.7-2.3-1.9-5.9-.5-8.7 1.3-2.3 2.6-2.4 3.4-.3M684.7 291.6c-1.6 1.6-.5 2.4 3.4 2.4 2.8 0 3.9-.4 3.7-1.3-.5-1.3-6-2.2-7.1-1.1M686.8 295.8c-4.3.5-3.3 2.2 1.2 2.2 2.2 0 4-.4 4-.9 0-1.2-2-1.7-5.2-1.3M222 305.1c0 3.1.4 4.8 1 4.4.6-.3 1-2.6 1-5.1 0-2.4-.4-4.4-1-4.4-.5 0-1 2.3-1 5.1M222 318.6c0 4.1.4 6.3 1 5.9.6-.3 1-3.3 1-6.6s-.4-5.9-1-5.9-1 2.9-1 6.6M222 335.1c0 4 .2 7 .5 6.8 1-1.1 1.5-12.8.5-13.4-.6-.4-1 1.9-1 6.6M394.7 330.7c-.4.3-.7 5.7-.7 11.8 0 11.2 0 11.2 3.1 11.9 4.7.9 82.2.7 83.7-.2.9-.6 1.2-3.8 1-12.3l-.3-11.4-43.1-.3c-23.7-.1-43.4.1-43.7.5m84.1 11.5.3 9.8H397v-20l40.8.2 40.7.3z"/><path d="M446.5 334.6c-1 1-1.4 2.5-1.1 3.8.3 1.2.6 2.7.6 3.5s.6 1.1 1.5.7c1.8-.7 3 1.6 2.1 4-.5 1.2-1 1.4-2 .5-1.5-1.3-2.7-.5-1.9 1.5.7 1.9 4.9 1.8 5.7-.2 1.3-3.3.5-6.3-2-8.3-2.6-2-2.6-2 0-3.2 2-1 2.3-1.5 1.5-2.6-1.5-1.7-2.4-1.7-4.4.3M405.2 340c0 3.3-.4 7-.7 8-.5 1.6-.2 2 1.7 2 2.2 0 2.3-.2 1.8-7.7-.6-9.4-2.7-11.1-2.8-2.3M414.7 334.7c-1.6 1.5-.7 3.4 1.3 2.8 1.4-.5 2-.2 2 .9 0 .9-.4 1.6-1 1.6-.5 0-1 .7-1 1.5s.5 1.5 1 1.5c.6 0 1 1.2 1 2.7 0 2.6 0 2.6-2.1.7s-2.1-1.9-1.8.6c.4 2.7 3.4 3.9 5.2 2.1 1-1 1.1-10.1.1-13.4-.5-1.7-3.4-2.3-4.7-1M435.6 336.8c-2.5 4.8-.9 13.2 2.5 13.2 4.1 0 4.4-8.8.5-10.3-2.4-1-2-2.9.5-2.2 1.7.6 2 .3 1.7-1.1-.6-3.1-3.5-2.8-5.2.4m3.4 7.7c0 1.4-.4 2.5-1 2.5-.5 0-1-1.1-1-2.5s.5-2.5 1-2.5c.6 0 1 1.1 1 2.5M456.4 335.4c-1.1 2.8 0 7.1 1.8 7.1 2.4 0 3.1 1.1 2.3 3.5-.5 1.6-1 1.9-1.8 1.1-1.7-1.7-2.7-1.3-2.7.9 0 1.6.7 2 3 2s3.1-.5 3.6-2.4c.9-3.7.1-6-2.4-7.1-2.7-1.2-2.9-3.1-.2-3.8 1.1-.3 2-1 2-1.6 0-1.6-5-1.3-5.6.3M467.6 340.7c-.9 3.7-1.6 7.4-1.6 8 0 2.2 1.8 1.4 2.2-1 .4-3 3.3-2.9 3.3.2 0 1.3.6 2.6 1.3 2.8.7.3 1.2-.4 1.2-1.6 0-2.8-2.8-13.3-3.8-14.3-.5-.5-1.6 2.1-2.6 5.9m2.4.8c0 .3-.2.5-.5.5s-.5-.2-.5-.5.2-.5.5-.5.5.2.5.5M424.5 342c-.7 1.1 3.9 2.5 5.5 1.5.5-.3.8-1.1.5-1.6-.8-1.2-5.2-1.2-6 .1M698.9 332.7c-.1.4-.1 9 .1 19 .1 10.1-.1 18.3-.4 18.3-.4 0-5.4-2.5-11.2-5.5-11.2-5.8-13-6-15.4-1.4-2.6 4.8-1.6 5.6 24 18.5 23.4 11.8 28 13.6 28 11.4 0-.6.9-1 1.9-1 1.1 0 2.3.4 2.6 1 .8 1.3 2.5 1.3 2.5 0 0-.5-1.2-1.3-2.6-1.6-2-.5-2.4-1.1-2-2.8.7-3 0-3.7-9.2-8.5-4.5-2.3-10-5.2-12.2-6.3l-4-2.2v-19.2c0-11.8-.4-19.5-1-19.9-.5-.3-1.1-.3-1.1.2m-20.3 29.8c.4.8 1.7 1.5 3 1.5s2.4.4 2.4 1c0 .5.6 1 1.3 1 2.7 0 7.7 3.2 7.7 4.8 0 1.3.2 1.4.9.4.7-1.2 1.2-1.2 3-.1 1.1.8 2.1 2.1 2.1 2.9 0 1.1.3 1.2.8.3.4-.7 1.3-.9 2.1-.4.7.5 1 1.4.7 2-.5.7.1 1 1.6.8 1.3-.1 2.2.3 2.1.9s.8.9 2.1.7c1.6-.3 2.8.2 3.9 1.6.8 1.2 1.8 2.1 2.3 1.9 1.2-.4 7.4 2.2 7.4 3.1 0 .3-.8 1.6-1.8 2.9-1.6 2-2.1 2.1-5 1.1-1.7-.6-2.9-1.5-2.6-2.1.3-.5 0-.9-.7-.7-2.8.3-4-.1-3.3-1.3.4-.6.3-.8-.4-.4-.6.3-2.3.1-3.8-.5-2.1-.7-2.5-1.2-1.5-1.8.9-.6 1-1.1.2-1.5-.6-.4-1.1-.2-1.1.3 0 1.7-3 1.3-3.6-.4-.4-.8-1.4-1.5-2.3-1.5s-5.9-2.2-11.1-4.9c-7.1-3.7-9.4-5.4-9.3-6.8q.15-1.5-.3-.6c-.9 2.2-2.4 1.4-2.4-1.2 0-3.5 4.5-6 5.6-3"/><path d="M681 366.5c0 .3.2.5.5.5s.5-.2.5-.5-.2-.5-.5-.5-.5.2-.5.5M678 368.5c0 .3.2.5.5.5s.5-.2.5-.5-.2-.5-.5-.5-.5.2-.5.5M686 368.5c0 .3.2.5.5.5s.5-.2.5-.5-.2-.5-.5-.5-.5.2-.5.5M682 371.1c0 .5.5.7 1 .4.6-.3 1-.8 1-1.1 0-.2-.4-.4-1-.4-.5 0-1 .5-1 1.1M686.3 372.7c.4.3 1 .3 1.4 0 .3-.4 0-.7-.7-.7s-1 .3-.7.7M696 373.5c0 .3.2.5.5.5s.5-.2.5-.5-.2-.5-.5-.5-.5.2-.5.5M691.3 375.7c.4.3 1 .3 1.4 0 .3-.4 0-.7-.7-.7s-1 .3-.7.7M699 376.5c0 .3.2.5.5.5s.5-.2.5-.5-.2-.5-.5-.5-.5.2-.5.5M710 381c0 .7.3 1 .7.7.3-.4.3-1 0-1.4-.4-.3-.7 0-.7.7M706 382c0 .7.3 1 .7.7.3-.4.3-1 0-1.4-.4-.3-.7 0-.7.7M714 385c0 .5.5 1 1 1 .6 0 1-.5 1-1 0-.6-.4-1-1-1-.5 0-1 .4-1 1M718 384.5c0 .3.2.5.5.5s.5-.2.5-.5-.2-.5-.5-.5-.5.2-.5.5M95.5 338.9c-.8 2.7.4 5.1 2.7 5.1 1.3 0 1.8.6 1.6 1.7q-.45 1.8-2.7 1.5c-2-.2-2.2 0-1.1 1.3 3.3 3.9 7.7-4.5 5-9.5-1.3-2.5-4.7-2.6-5.5-.1m4.3 1.8c-.4 2.2-2.2 2-2.6-.1-.2-1 .3-1.6 1.3-1.6s1.5.7 1.3 1.7M105 338.5c-1.4 1.7-.4 5.5 1.5 5.5s2.5 1.3 1.4 3c-.7 1.3-1 1.3-1.8.1-.5-.8-1.1-.9-1.5-.3-.3.5.1 1.5 1 2.3 2.2 1.8 4.2-.6 4.5-5.6.4-6.1-2.1-8.6-5.1-5m3.5 2.3c0 1.8-2 1.5-2.3-.4-.3-1 .1-1.5 1-1.2.7.3 1.3 1 1.3 1.6M114.2 338.6c-1.4 2.5-.3 5.4 2 5.4 1.3 0 1.8.6 1.6 1.7-.3 1.2-1.2 1.7-2.8 1.6-2.4-.3-2.4-.2-.6 1.2 1.7 1.3 2.2 1.3 3.8-.2 2.1-1.9 2.5-8.2.6-10.1-1.7-1.7-3.5-1.5-4.6.4m3.6 2.1c-.4 2.2-2.2 2-2.6-.1-.2-1 .3-1.6 1.3-1.6s1.5.7 1.3 1.7M126.7 337.7c-4.7 7.9-4.8 8.1-1.7 9.6 3.7 1.9 5 .6 3.9-4.1-.4-2-.6-3.9-.3-4.3.2-.4 0-1-.5-1.3-.5-.4-1.2-.3-1.4.1m-.1 6.9c-.4.9-.9 1.5-1.1 1.2-.3-.3-.3-1.3.1-2.2s.9-1.5 1.1-1.2c.3.3.3 1.3-.1 2.2M133.3 337.7c-1.8.7-1.6 8.3.2 10.7 1.4 1.9 1.5 1.9 3.5.1 2.2-2 2.6-6.4 1-9.6-1.1-1.9-2.3-2.2-4.7-1.2m3.5 3.7c.5 2.6-.7 6.8-1.8 6.1-1.5-.9-1.3-8.8.3-8.3.6.3 1.4 1.3 1.5 2.2M151.2 338.2c-2.6 2.6-.6 11.8 2.6 11.8 1.7 0 3.2-3.4 3.2-7.2 0-3.4-1.4-5.8-3.5-5.8-.6 0-1.6.5-2.3 1.2m3.6 5.9c-.2 1.9-.7 3.3-1.3 3.2-1.2-.3-1.9-4.9-1-7.1 1-2.6 2.7.2 2.3 3.9M160.4 338.2c-1.2 2-.7 10 .7 10.8 2.7 1.7 4.7-.7 4.7-5.7-.1-2.7-.6-5.1-1.2-5.5-1.6-1.1-3.4-1-4.2.4m3.6 2.3c0 .8-.4 1.5-.9 1.5-1.3 0-2.2-1.6-1.4-2.4 1.1-1.1 2.3-.6 2.3.9m0 4.9c0 1.7-1.4 2.9-2.3 2-.8-.8.3-3.4 1.4-3.4.5 0 .9.6.9 1.4M169 338.9c-1.5 3-1.2 6.6.9 9.2 1.6 2 2.1 2.1 3.5 1 1.9-1.6 2.2-9.1.4-10.9s-3.6-1.5-4.8.7m3.8 4.3c-.3 4.7-2.1 5.5-2.6 1.2-.4-3.1.4-5.4 1.8-5.4.7 0 1 1.7.8 4.2M179.1 338.9c-.9.6-1 1.1-.2 1.5.6.4 1.1 2.5 1.1 4.6s.5 4.2 1 4.5c.6.4 1-1.7 1-5.4 0-6.1-.4-6.8-2.9-5.2M142 344c0 .5 1.1 1 2.5 1s2.5-.5 2.5-1c0-.6-1.1-1-2.5-1s-2.5.4-2.5 1M221.7 346.7c-1.1 1-.8 11.3.3 11.3.6 0 1-2.7 1-6 0-6.1-.1-6.5-1.3-5.3M139.9 352.7c-.3 3.1-.5 12.2-.7 27.1-.2 19.1.2 18-7.5 19.7-3.2.6-5.1 4.4-3.9 7.6.5 1.3 3 3 6.3 4.4 5.5 2.4 7.4 2.2 10.6-1.1 2.9-2.9 1-12.4-2.5-12.4-1.3 0-1.4-3.1-.9-22.5.3-13.5.2-22.7-.4-23-.5-.4-.9-.3-1 .2m3.9 49.5c1.6 3.5.7 7.2-2.3 8.8-5.7 3-10.2-5.3-5.4-10.1 2.7-2.7 6-2.1 7.7 1.3m-11.1-.5c-.4.3-.7 0-.7-.7s.3-1 .7-.7c.3.4.3 1 0 1.4m-.6 2.8c-.1 1.5-2.4 1.2-2.9-.3-.3-.9.2-1.3 1.2-1 1 .1 1.7.7 1.7 1.3m.4 3.5c.3.5-.1 1-1 1s-1.3-.5-1-1c.3-.6.8-1 1-1s.7.4 1 1"/><path d="M137.2 402.2c-1.7 1.7-1.5 6.5.3 7.2 3.6 1.3 6.4-2.8 4.4-6.6-1.1-2.1-3-2.3-4.7-.6m3.5 2.4c.8 2.1-1.3 4.2-2.8 2.7-1.3-1.3-.5-4.3 1.1-4.3.6 0 1.3.7 1.7 1.6M650.1 354.9c-1.7 3.1-1.3 4.8.5 2.2 1.2-1.6 2.3-2.2 4.1-1.8 1.5.3 2.2 0 2-.7-.7-2.1-5.5-1.9-6.6.3M660 357.6c1.6 1.9 7.9 4.6 9.4 4 .6-.2.2-.7-.9-1.1-1.1-.5-3.2-1.7-4.7-2.7-3.3-2.3-5.6-2.5-3.8-.2M439 386.9v28.9l-9.2 5.3c-5.1 2.9-9.9 6-10.6 6.8-.8 1.1-1.1 3.3-.7 6.8.6 5.9 2 5.3-14.4 5.7-2.7.1-4.6.6-4.9 1.5s.1 1.1 1.7.6c1.2-.3 3.8-.1 5.8.6 2.8.9 3.8.9 4.1 0 .6-1.8 9.1-1.4 9.9.4q1.35 3.6-3.6 1.5c-1.7-.6-3.6-1-4.3-.7-.7.2.6 1.2 2.9 2.2 2.3.9 4.5 2.5 4.8 3.5.8 2.7 2.6 11.7 3.2 16.7.6 5.1 1.9 6.3 7.6 6.9 4.6.4 4.2.6 25.9-12.1 8.7-5 11.5-13.1 6.5-18.3-2.7-2.8-7.6-17.1-7.7-22.2 0-3.1-3.4-8.8-5.7-9.7-.9-.4-2.9.1-4.5 1-1.7.9-3.4 1.7-3.9 1.7s-.9-11.6-.9-28c0-18-.4-28-1-28s-1 10.3-1 28.9m12.4 28.2c.8 1.2 1.2 2.8.9 3.5-.3.8 0 1.4.7 1.4.6 0 1 .6.7 1.2-.2.7.2 3 1.1 5.1.8 2 1.2 4.8 1 6.2-.3 1.4-.1 2.5.4 2.5s1.8 2 2.8 4.4c1.1 2.4 2.7 4.9 3.5 5.6s1.5 1.7 1.5 2.2c0 .6-.7.5-1.5-.2-1.2-1-1.8-1-3 0-2 1.6 0 4.4 2.7 3.7 2.1-.6 2.1-.6.5 2.5-.7 1.4-1.8 2.3-2.5 2-.7-.2-1 .2-.6 1.2.6 1.5.2 1.7-2.8 2-.6.1-2.5 1.4-4.1 2.9-1.9 1.7-3.8 2.7-4.9 2.4-1-.3-1.8 0-1.8.7 0 1.8-8.3 6.3-8.8 4.8-.2-.7-.8-1.2-1.4-1.2-.7 0-.6.5.1 1.4 1.8 2.1-.5 3.1-3.5 1.5-1.5-.8-2.4-2.1-2.4-3.7 0-1.9-.4-2.3-2-1.9s-2.2-.2-3-3.1c-1.4-5.2-1.3-6.2 1-6.2 1.1 0 2-.5 2-1 0-.6-.9-1-2-1-2.7 0-3.7-3-3.6-10.7.1-4.2-.3-6.4-1.1-6.8-.7-.2-1.3-1.1-1.3-1.9 0-1 .6-1.3 1.6-.9 2.1.8 3.5-1.6 2.3-3.8-.5-1-.9-2-.9-2.2 0-.8 9.1-5.7 10.5-5.7.8 0 1.5-.4 1.7-1 .3-.9 12.6-7.9 14-8 .4 0 1.4 1 2.2 2.1"/><path d="M445.7 416.3c-.3.8-.2 2 .3 2.7 1.1 1.8 4.2.4 3.8-1.7-.4-2.2-3.4-2.9-4.1-1M440 420.1c0 .5.5.7 1 .4.6-.3 1-.8 1-1.1 0-.2-.4-.4-1-.4-.5 0-1 .5-1 1.1M439.2 424.1c-.7 1-1.8 1.9-2.5 1.9-1.6 0-5.8 4.5-7.7 8.4-.8 1.6-1.5 5.6-1.5 9s-.4 6.4-1 6.8c-.6.5-.5.8.2.8s2 1.2 2.9 2.6c1.5 2.2 1.5 2.7.3 3.6-1 .7-.9.8.7.3 2.4-.6 3.9.8 4.9 4.8.4 1.5 1.3 2.7 2 2.7s1.9.2 2.7.5c.7.3 1.9-.8 2.8-2.7.9-1.7 2.4-3.2 3.4-3.4 1-.1 2.6-1 3.6-1.9 1.2-1.1 2-1.3 2.5-.5.4.7 1.4.3 2.7-1.2 1.4-1.7 1.8-3.1 1.3-5.3-.3-1.6-1-5.7-1.5-9-.6-3.3-1.5-7.2-2.1-8.7s-.8-3.2-.3-3.9c.5-.8.2-1-.8-.6-1.6.6-4.1-1.5-5.1-4.3-.3-.9-.6-1-.6-.3-.1 1.7-2.6 1.6-4.4-.1-1.1-1.2-1.5-1.1-2.5.5m9.3 6.3c3.3 3.5 5 9.9 3.9 14.2-.3 1.2.1 2.6 1 3.3 1.8 1.5 2.2 5.1.6 5.1-.5 0-1-.5-1-1 0-3.3-9 2.2-11.3 6.9-1.5 3.2-4.7 4.1-4.7 1.3 0-1-1.1-2.9-2.5-4.2-3-2.9-2.8-3.2 1.3-2.1 1.8.5 3.2.6 3.2.1 0-1.1-6.7-3.3-7.9-2.6-1 .6-2.1-4.1-2.1-8.8.1-4.3 3.2-10.8 6.5-13.4 4.3-3.4 9.1-2.9 13 1.2m-.5 25.1c0 .3-.2.5-.5.5s-.5-.2-.5-.5.2-.5.5-.5.5.2.5.5M450 423c0 .5.5 1 1 1 .6 0 1-.5 1-1 0-.6-.4-1-1-1-.5 0-1 .4-1 1M433 425c0 .7.3 1 .7.7.3-.4.3-1 0-1.4-.4-.3-.7 0-.7.7M428.5 426c-.3.5-.1 1 .4 1 .6 0 1.1-.5 1.1-1 0-.6-.2-1-.4-1-.3 0-.8.4-1.1 1M426.3 429.7c.4.3 1 .3 1.4 0 .3-.4 0-.7-.7-.7s-1 .3-.7.7M425 435c0 .5.5 1 1.1 1 .5 0 .7-.5.4-1-.3-.6-.8-1-1.1-1-.2 0-.4.4-.4 1M456.3 439.7c.4.3 1 .3 1.4 0 .3-.4 0-.7-.7-.7s-1 .3-.7.7M424 441c0 .7.3 1 .7.7.3-.4.3-1 0-1.4-.4-.3-.7 0-.7.7M456 445c0 .5.5 1 1 1 .6 0 1-.5 1-1 0-.6-.4-1-1-1-.5 0-1 .4-1 1M424.3 446.7c.4.3 1 .3 1.4 0 .3-.4 0-.7-.7-.7s-1 .3-.7.7M424 450.5c0 .3.2.5.5.5s.5-.2.5-.5-.2-.5-.5-.5-.5.2-.5.5M426 461c0 .5.5 1 1.1 1 .5 0 .7-.5.4-1-.3-.6-.8-1-1.1-1-.2 0-.4.4-.4 1"/><path d="M430.5 460.9c-.3.5-.1 1.2.5 1.6.5.3 1-.1 1-.9 0-1.8-.6-2.1-1.5-.7M448 461c0 .5.5 1 1 1 .6 0 1-.5 1-1 0-.6-.4-1-1-1-.5 0-1 .4-1 1M432.5 466c-.3.5-.1 1 .4 1 .6 0 1.1-.5 1.1-1 0-.6-.2-1-.4-1-.3 0-.8.4-1.1 1M221.4 367.6c.3 3.1.3 8.5 0 12-.6 6-.9 6.6-3.8 7.9-1.7.8-4.4 2.4-6.1 3.5-1.6 1-4.5 2.7-6.2 3.6-2.6 1.3-3.3 2.3-3.3 4.5s-.8 3.4-3.7 5.3c-4.5 2.8-6.4 4.9-9 9.8-1.1 2-3 4.8-4.3 6-1.2 1.3-2.8 3.8-3.6 5.6-1.2 2.9-1.1 3.5.4 5.1.9 1 2.2 2.6 2.8 3.7.6 1 3.4 3.2 6.2 4.9 4.2 2.5 5.2 3.5 5.2 5.8 0 3.2 4 6.1 10.8 7.8 4.7 1.3 4.6 1.2 3.1 3.7-1.3 2.1.3 7 2.6 7.9.9.3 2.8 0 4.3-.7 1.9-1 2.3-1.4 1.1-1.7-2.1-.5-5-5.8-4.3-7.7.5-1.2-.8-1.9-5.5-3.2-3.4-1-6-2.2-5.8-2.8s1.3-.9 2.3-.7c4.8 1 5.9.6 7.7-3.2 1-2.2 1.6-4.6 1.4-5.5-.2-1.1-1-.2-2.1 2.5-1.4 3.3-2.4 4.3-4.1 4.3-2.7 0-21.5-10.8-21.5-12.3 0-.6-.7-1.8-1.6-2.8-2.1-2.3-1-7.9 1.5-7.9 1.1 0 2.3-1.7 3.5-5.1 1.8-5 7.5-11.9 9.8-11.9.6 0 .4.8-.5 1.8-2.5 2.7-2.1 3.5.8 1.5 1.3-1 2.5-2.6 2.5-3.5s.5-2 1-2.3c.6-.3 1-1.5 1-2.6 0-1 .4-1.9 1-1.9.5 0 .7-.6.4-1.4-.4-1.1.2-1.4 2.4-1.4 3.4.1 5.5-.9 4.7-2.3-.4-.5.4-.9 1.5-.9 1.4 0 2.4-.8 2.7-2.1.4-1.6 1.1-1.9 2.9-1.5 1.9.5 2.4.2 2.4-1.4 0-1.3.7-2 2-2 1.1 0 2 .4 2 1 0 .5.6 1 1.4 1s1.7.4 2.1.9c.5.9-3.6 3.9-15.5 11.1-10 6.1-11.9 9-8.6 13.6 1.9 2.5 3.1 1.2 1.4-1.5-2.2-3.6-1.1-4.6 19.9-18 5.9-3.8 8.8-5.1 10.2-4.6 1.2.3 2.1 1.1 2.1 1.6s-5.6 4.6-12.4 9.1c-11.4 7.5-15.5 11.5-14.1 13.8.3.5-.5 1-1.7 1.2-2.1.3-1.9.5 1.5 2.5 2.7 1.6 3.7 2.9 3.7 4.8 0 1.4.5 2.5 1 2.5 1.6 0 1.2-3-1.1-7.6-1.2-2.3-1.9-4.9-1.6-5.8.9-2.4 25.9-18.6 28.6-18.6 2.8 0 1.9-1.4-2.1-3.4-1.2-.6-2.4-1.9-2.6-2.9-.3-1.3.4-1.7 2.7-1.7 3.3 0 3.7-.6 2.1-3-1.2-1.9.6-4 3.5-4s3.8 1 2.4 2.7c-1.4 1.6-.5 1.7 2.1.1 1.6-1 2.2-1 3.2.1 1.1 1 .7 1.8-1.9 4l-3.2 2.7 3 1.8c2.6 1.5 3.3 1.6 4 .5.5-.8.9-1.7.9-2.2.1-3.9 13.7 8 16.9 14.9 2.4 4.9 2.9 16.2.9 18.2-.6.6-.9 1.5-.5 1.9s1.3.1 1.9-.5c.7-.7 2-1.2 2.9-1.2 1 0 2.7-1.2 3.9-2.8 4.2-5.2 1.3-19.2-5.8-27.8-3.7-4.4-6.9-5.7-12.3-5-4.8.7-5 .6-6-2.1-1.1-3.3-10-8.1-13.7-7.5-1.3.2-3.9 2.6-6.3 5.8-4.5 6.2-6.3 7.3-9 5.6-1.6-1-5.1-3-6.8-3.9-.5-.3 3-10.6 4-11.9 1.1-1.4.1-2.4-2.3-2.4-1.4 0-1.8-.8-1.8-3.5 0-1.9-.5-3.5-1.1-3.5-.8 0-1 1.7-.5 5.6m35.6 16.9c0 .3-.2.5-.5.5s-.5-.2-.5-.5.2-.5.5-.5.5.2.5.5m14.8 3.9c3.4 1.7 8.9 9.2 9.7 13.2.4 1.9-.3 1.1-1.9-2.4-1.4-2.8-3-5.2-3.6-5.2s0 1.9 1.3 4.3c1.4 2.4 2.8 5.9 3.3 7.8.7 3.3.8 3.3 1.5.9.5-1.8.7-.9.8 3.2s-.4 6.1-1.6 7.4c-1.7 1.7-1.8 1.5-2.4-4.8-.3-3.6-1.1-8-1.9-9.9-1.7-4.3-5.8-9.9-7.2-9.9s-5.8-4-5.8-5.2c0-1.3 4.8-.9 7.8.6M201 446.5c0 .8-.7 1.5-1.5 1.5s-1.5-.7-1.5-1.5.7-1.5 1.5-1.5 1.5.7 1.5 1.5m12.5 13.6c.4 1.1.4 2.3 0 2.7-.7.7-2.5-1.7-2.5-3.6 0-2 1.8-1.4 2.5.9M647.6 364.2c-.8 3.3-.7 5 .3 4.4 1.1-.7 2-6.6 1-6.6-.3 0-.9 1-1.3 2.2M645.7 376.2c-.4 3.1-.2 4.6.7 3.7 1-1.1 1.7-6.9.8-6.9-.5 0-1.2 1.5-1.5 3.2M348.7 380.7c-.4.3-.7 5.7-.7 11.9v11.2l5.8.4c3.1.2 22 .5 42 .7 27 .2 36.7-.1 37.8-1 1.8-1.5 2-20.9.2-22.7-.9-.9-11.8-1.2-42.8-1.2-22.9 0-42 .3-42.3.7m83.3 11.7c0 6.6-.4 9.5-1.2 9.7-2.4.7-78.7.3-79.4-.4-.5-.5-.8-8.6-.5-17 .1-1.6 2.7-1.7 40.6-1.7H432z"/><path d="M357.2 386c-.7 1.2-1 2.6-.6 3.2.4.7 1.2.2 2-1.3 2.3-4.2 2.2 2.4-.2 6.9-2.1 4.1-1.8 5.2 1.6 5.2 2.4 0 3-.4 3-2.1 0-1.5-.5-1.9-1.5-1.5-1.7.6-2-1.5-.4-3.1.6-.6.9-2.8.7-4.9-.3-4.4-2.6-5.6-4.6-2.4M368 385.9c-1.3 2.5-1.3 8.2 0 11.5 2.6 6.9 7.4-1.9 5.1-9.4-1.3-4.3-3.4-5.2-5.1-2.1m3.8 4.5c.4 3.6-.5 7.6-1.8 7.6-.6 0-1-2.5-1-5.6 0-4 .4-5.5 1.3-5.2.6.3 1.3 1.7 1.5 3.2M389.7 384.7c-1.3 1.3-.7 3.2.8 2.7 1.8-.7 2 1.7.3 3.5-1 1.1-1 1.4 0 1.8.6.3 1.2 1.7 1.2 3.1-.1 2.6-.1 2.6-1.5.8-1.6-2.2-3.1-1.6-2.1.9 1.4 3.6 5.7 2.8 5.7-1.1-.1-1-.1-3.5-.1-5.4s-.3-4.3-.6-5.3c-.5-1.7-2.5-2.3-3.7-1M398.5 386.1c-.8 2.5.3 3.9 1.5 1.9 1.7-2.7 2.3 0 1.2 5.1-1.2 5-.9 7.4.7 6.4.5-.2 1.1-3.2 1.5-6.5.4-3.4 1-6.8 1.3-7.6.4-1-.3-1.4-2.5-1.4s-3.2.6-3.7 2.1M411.4 385.4c-.4.9-.4 3.5-.1 5.8.3 2.2.2 5.1-.3 6.4q-.9 2.25.3 2.7c2.6.9 3.2-.5 2.9-7.6-.4-7.3-1.6-10.5-2.8-7.3M419.8 392c-.3 8-.3 8 2.4 8 3.6 0 4.7-2.4 4.1-8.5-.6-5.6-1.7-7.5-4.3-7.5-1.6 0-1.9 1.1-2.2 8m4.2-4.1c0 1.1-.4 2.3-1 2.6-.6.4-1-.5-1-1.9s.5-2.6 1-2.6c.6 0 1 .9 1 1.9m0 7.6c0 1.4-.4 2.5-1 2.5-1.1 0-1.4-3.3-.3-4.3 1.1-1.1 1.3-.8 1.3 1.8M378.7 391.7c-2.6.7-1 2.3 2.3 2.3s4.8-1.5 2.4-2.4c-1.7-.6-1.9-.6-4.7.1M643.7 388.7c-.5 4.4-.2 6.2.7 5.2s1.6-9.9.8-9.9c-.5 0-1.2 2.1-1.5 4.7M742 390.2c-1.9 1.2-4.8 2.2-6.5 2.3-3.8 0-4.7 3.1-1.6 5.5 1.8 1.3 2.2 2.7 2.4 7.6.1 6.1.1 6.1 5.9 9.8 5.7 3.7 6.8 5.5 4.9 8.5-1.4 2.1.3 4.6 3.9 6.1 3 1.2 3.3 1.1 5.5-1.3 2.2-2.6 5.5-3.7 5.5-1.7 0 .5-1.2 3.5-2.7 6.7-1.4 3.2-2.7 7.6-2.8 9.9-.1 2.2-1.2 6.2-2.4 8.8-2.7 6.1-2.6 6.6.4 6.6 2.2 0 2.5.4 2.5 3.5 0 1.9.5 3.5 1.1 3.5.7 0 1-2.3.8-6.8-.5-12.5-.1-15 2.2-15.4 1.5-.2 2.6-1.7 3.8-5.3 3.1-8.7 3.7-9.4 7.4-8.8 2.4.3 3.7 0 4.7-1.2 1.3-1.5 1.2-1.9-.6-3.4-1.9-1.5-2.1-2.5-1.6-9.3.6-10.2 0-12.5-4.3-14.2-2-.9-3.8-2.3-4.2-3.3-1.2-3.4-4.6-6.3-8.2-6.9-2-.4-4.8-1.3-6.3-2-3.7-1.9-5.7-1.7-9.8.8m9.5 1c1.5.6 2.9 2.4 3.4 4.2.7 2.5.9 2.7 1 .8.1-1.2.4-2.2.9-2.2 1.4 0 6.2 5.1 6.2 6.5 0 .8.5 1.5 1.1 1.5s.8-.9.4-2.3c-.5-1.7-.4-1.9.4-.7.6.8 1.1 2.6 1.1 3.9 0 2 .2 2.2 1.6 1.1 1.2-1.1 1.8-1 3.2.3 1.8 1.9 2.7 14 1.1 16.8-.6 1.2-.3 2.2 1.1 3.4 2.5 2.3 1.6 3.8-1.9 3-2.6-.6-3-.2-5.9 6-1.9 3.8-3.8 6.5-4.7 6.5-.8 0-1.5-.3-1.5-.6 0-.7 2.7-6.9 4.1-9.6 1.5-2.9 1-4.4-1.8-5.7-2.2-1-2.8-1-3.5.3-1.2 2.1-2.4 2-5.9-.5-2-1.4-2.8-2.7-2.4-3.8.3-1.1-.5-2.2-2.5-3.4-3.1-1.8-4.2-4.4-1.5-3.3 4.3 1.7 4.9 1.8 2.8.2-2.6-1.9-3-3.6-.9-3.6.8 0 1.8-.4 2.1-1 .4-.6-1-.8-3.7-.4-6.3.8-8.3-1-8.3-7.6 0-4.7.3-5.5 3.5-8.1 3.7-3.1 6.4-3.6 10.5-1.7m-14.7 4c-.3.7-1.1 1.3-1.8 1.3s-1.5-.6-1.7-1.3c-.3-.7.4-1.2 1.7-1.2s2 .5 1.8 1.2m26.3.5c1.3 1.7 1.3 1.7-.6.3-1.1-.8-2.2-1.6-2.4-1.7q-.3-.3.6-.3c.6 0 1.7.8 2.4 1.7M741 410.5c1.4 1.6 1 1.8-1.4.9-.9-.3-1.6-1-1.6-1.5 0-1.4 1.6-1.1 3 .6m13 16.7c0 1.2-1.2.9-3.2-.6-2.6-1.9-2.2-2.7.7-1.4 1.4.6 2.5 1.5 2.5 2m6.5 14.8c.3.5.2 1-.4 1-.5 0-1.3-.5-1.6-1-.3-.6-.2-1 .4-1 .5 0 1.3.4 1.6 1M259 394.7c.1.5 1.5 1.7 3.2 2.8 4.2 2.7 5 5 1.5 4.1-2.7-.6-2.7-.6-.2 3 2.6 3.9 3.2 6.9 1.5 7.9-1.3.8-1.3 2.5 0 2.5.6 0 1.5-1.1 2-2.5 1.4-3.6 3-3.1 3 1 0 2.5-.6 3.7-2.2 4.6-1.5.8-1.8 1.4-1 1.7 2.4.8 5.2-2.9 5.2-7 0-3.5-.7-4.3-3.3-3.9-.4.1-1.2-1-1.9-2.4-.8-1.8-.8-2.8.1-3.9s.9-2 .2-3.4c-1.7-3.2-8.2-6.7-8.1-4.5M239.4 396.5c-.9 2.2 1.6 4.9 3 3.4.8-.8.8-1.3-.1-1.6-.7-.2-.9-1.1-.6-1.9s0-1.4-.6-1.4c-.7 0-1.4.7-1.7 1.5M642.7 397.7c-1 1.8-1.8 10.8-.9 9.8 1.1-1.1 2.8-10.5 1.9-10.5-.3 0-.8.3-1 .7M232.3 407.4c-5.8 3.2-10.3 10.7-10.3 17.1 0 17.3 14.6 27.4 24.9 17.3 4.2-4.1 2.5-4.9-1.9-.8-1.7 1.6-4.1 3-5.1 3-2.5 0-2.4-.6.6-3.6 6-6 6.2-21.3.3-28-1.7-1.9-2.8-3.8-2.4-4.2 1.4-1.3 8 3.4 10 7 1 2.1 2.3 3.5 2.8 3.2 1.6-1-3.4-8.1-7.2-10.3-4.2-2.3-8.3-2.6-11.7-.7m4.2 6.3c1.4 2.1 2.5 4 2.5 4.4 0 .6-13.5 8.9-14.6 8.9-1.6 0 .6-9.4 3-13 3.3-5.1 5.8-5.1 9.1-.3m5.5 3.5c0 1.5-1.8.8-2.4-1-.3-.9-.9-2.4-1.2-3.2s.4-.4 1.5 1 2.1 2.8 2.1 3.2m1 4.8c0 .5-2.4 2.2-5.2 3.6-2.9 1.5-6.5 3.5-8.1 4.6-1.5 1.1-3.3 1.8-4 1.5-.7-.2-.3-.8 1.1-1.6 1.2-.6 2.2-1.7 2.2-2.3 0-1.8 3.3-3.7 6.5-3.8 1.7 0 3.9-.7 4.9-1.5 2.3-1.8 2.6-1.8 2.6-.5m1 4.6c0 2.3-3.1 11.3-4.1 12-1.2.7-1.1.4.6-4.6.8-2.3 1.5-5.3 1.5-6.6s.5-2.4 1-2.4c.6 0 1 .7 1 1.6m-4 2.3c0 5.4-4.7 13.1-8.1 13.1-1.7 0-5.9-4.8-5.9-6.8 0-.5 1.5-1.7 3.3-2.6 1.7-.8 4.6-2.4 6.2-3.6 3.7-2.5 4.5-2.5 4.5-.1M149 407.8c0 1.2 5.9 2.2 6.6 1 .3-.4-.1-.8-.8-.8s-2.3-.3-3.5-.6c-1.3-.4-2.3-.2-2.3.4M390.7 427.2c-.4 11.2-.7 28.9-.7 39.5 0 19.2 0 19.2-2.9 21.2-1.6 1.2-3.3 2.1-3.9 2.1-3.4 0-4.6 7.1-1.6 10 2.9 2.7 22.7 12.8 24.2 12.3.7-.3 1.9-1.7 2.7-3.3 1.3-2.5 1.2-2.9-.8-4.8-1.2-1.1-4.5-3.1-7.4-4.6-2.8-1.4-5.4-3-5.7-3.5-.4-.5 2.7-2.8 6.7-5 8.2-4.5 10-6.2 12.1-11.1 1.2-2.9 1.2-4.2.2-7.5-.7-2.2-2.6-8.2-4.2-13.4-2.2-7.1-3.5-9.7-5.4-10.9-1.4-.9-3.1-2.2-3.7-3.1-1.1-1.3-1.3-1.2-1.3.4 0 1-.7 2.7-1.6 3.6-1.8 2-1.8 2.1 3 18.9 2.6 9 2.2 10.5-2.7 13.5-2.4 1.4-4.7 2.5-5.2 2.5-.4 0-.4-17.3 0-38.5.4-23.8.3-38.5-.2-38.5-.6 0-1.3 8.8-1.6 20.2m8.8 24.8c.3.5.1 1-.4 1-.6 0-1.1-.5-1.1-1 0-.6.2-1 .4-1 .3 0 .8.4 1.1 1m4.5-.5c0 .3-.2.5-.5.5s-.5-.2-.5-.5.2-.5.5-.5.5.2.5.5m2 4.5c0 1.1-.1 2.2-.2 2.3-.2.2.3 1.1 1.1 2.1.8.9 1.1 1.9.8 2.2-.3.4 0 1.3.8 2.1s1.5 2.3 1.5 3.4.5 2.8 1.2 3.8c.9 1.5.9 2.9-.1 6-.6 2.3-1.6 4.1-2.1 4.1-.6 0-1 .8-1 1.7 0 1.5-.4 1.3-2-.7-2-2.5-2-2.5-1.8 0 .2 1.4.1 2.5-.2 2.5s-1.6 1-3 2.2c-1.3 1.3-3 2.3-3.7 2.3s-1.3.3-1.3.7c0 1.4-4.9 3.2-5.3 2-.2-.6-.8-.7-1.5-.3-1.5.9-.4 3.4 1.9 4.1 1 .4 1.9 1.3 1.9 2.1 0 .9.5 1.2 1.1.8.6-.3 2.4.3 4 1.5 1.5 1.1 3.3 2.1 3.8 2.1 1.7 0 2.2 1.9 1.1 4-.6 1.1-1.5 2-2.1 2s-.7-.5-.3-1.2c.4-.6.3-.8-.3-.5-1.3.8-7.3-2-7.3-3.4 0-.5-.8-.9-1.8-.9-3.2 0-9.2-4.9-9.2-7.5 0-2.5 3.2-5.1 5-4 .6.3 1 0 1-.8 0-2.2 7.4-5.9 8.9-4.4.8.8 1.1.5 1.1-1.1 0-1.5.6-2.2 2-2.2 1.1 0 2-.6 2-1.3s.9-1.9 2-2.7c2-1.5 2.7-4 1.1-4-.5 0-1.1-1.2-1.4-2.8-.3-1.5-.9-3.6-1.3-4.7-.7-1.8-.6-1.8.9-.6 2.4 1.9 2.1-.1-.3-2.7-2.1-2.2-2.1-2.2 0-2.2 1.9 0 1.9-.1.3-1.8-1.6-1.6-1.9-1.6-2.5-.2-.4.8-.7 1-.7.3-.1-.6-.3-1.8-.6-2.5-.4-.9.5-1.8 2.2-2.5 4-1.6 4.3-1.5 4.3.7m.7 52.7c-.4.3-.7 0-.7-.7s.3-1 .7-.7c.3.4.3 1 0 1.4"/><path d="M404 457c0 .7.3 1 .7.7.3-.4.3-1 0-1.4-.4-.3-.7 0-.7.7M406.5 467c-.3.5.1 1 1 1s1.3-.5 1-1c-.3-.6-.8-1-1-1s-.7.4-1 1M405 470.5c0 .3.2.5.5.5s.5-.2.5-.5-.2-.5-.5-.5-.5.2-.5.5M408.6 474.5c-.3.8-.1 1.5.4 1.5.6 0 1-.7 1-1.5s-.2-1.5-.4-1.5-.6.7-1 1.5M407.3 479.7c.4.3 1 .3 1.4 0 .3-.4 0-.7-.7-.7s-1 .3-.7.7M394.3 488.7c.4.3 1 .3 1.4 0 .3-.4 0-.7-.7-.7s-1 .3-.7.7M384 496.9c0 .5.7 1.1 1.4 1.4q1.5.6.9-.9c-.6-1.5-2.3-1.9-2.3-.5M390 500.5c0 .3.2.5.5.5s.5-.2.5-.5-.2-.5-.5-.5-.5.2-.5.5M397 503.5c0 .3.2.5.5.5s.5-.2.5-.5-.2-.5-.5-.5-.5.2-.5.5M162.5 410c2.8 1.2 4.5 1.2 4.5 0 0-.6-1.5-1-3.2-.9-2.8 0-3 .2-1.3.9M216.4 410.5c-.8 1.9.2 4.5 1.7 4.5.6 0 .9-.7.6-1.5-.4-.8-.2-1.7.4-2 1.1-.7.3-2.5-1.2-2.5-.5 0-1.2.7-1.5 1.5M498.7 412c-1.9 1.6-4.2 3-5 3-.9 0-2.8 1-4.4 2.2-2.9 2.4-5.8 4.2-10.6 6.6-5 2.5-5.3 4.9-2.2 16.4 1.5 5.7 2.9 12.9 3 16.1.2 3.3.9 7.2 1.5 8.8.7 1.6 1 4.1.7 5.6-.5 2.8.7 6.2 2.7 7.5.6.4 3.7.8 6.8.8s6.9.5 8.4 1c3.2 1.3 4.6.3 2.2-1.4-1.6-1.2-1.6-1.4.8-2.4 3.5-1.7 3.7-1.6 3.1 1.8-.5 2.3-.3 3 .9 3 1.3 0 1.2.4-.4 2.7-1 1.6-2.2 3.7-2.6 4.8-.7 1.9-.9 1.8-3.7-1.3-5.3-5.9-12.5-7.6-19.5-4.7-4.1 1.7-5.5 3-8.3 7.6-6.3 10.3 2.6 23.9 15.7 23.9 2.9 0 5.2.2 5.2.4s-3.8 7-8.5 15.1-8.5 15.1-8.5 15.7c0 2.2 2.3-.9 7.6-10.5 3.1-5.6 7-12.3 8.6-14.8 1.5-2.5 2.8-5.3 2.8-6.1 0-.9.7-2.1 1.5-2.8 2.1-1.7 1.9.5-.3 4.6-.9 1.7-2.8 5.2-4.1 7.7-1.4 2.6-2.9 4.7-3.3 4.7s-.8.5-.8 1c0 .6-1.8 3.9-3.9 7.5-4.6 7.6-5.9 10.7-3.9 9.9.7-.2 2.9-3.7 4.8-7.5 4.7-9.6 6-10.5 6-4.3 0 2.7.3 5.8.6 6.9.4 1.7-.4 2.5-4.6 4.5-2.8 1.3-5.6 3-6.2 3.7-1.6 2 .5 1.7 5-.7 3.7-2 3.7-2 4 .1.5 3.1-2 5.4-4.6 4s-3.7-.1-1.3 1.5c3.2 2.3 6.1.5 8.7-5.2 1.9-4.2 2.2-5.8 1.4-7.9-.6-1.4-1-5.7-1-9.4 0-5.4.5-7.5 2.3-10.2 2.9-4.4 5.7-4.8 9.6-1.2 4.1 3.7 5.4 10.6 4.6 23.8-.7 10.1-.7 10.1-6.6 14.8-3.2 2.6-5.9 5.2-5.9 5.8 0 .5-2.6-.4-5.7-2.2-3.2-1.7-10-5.4-15.1-8.2-9.2-5.1-9.4-5.2-7.1-6.7 3.2-2.1 5.3-4.6 9.4-11.4 4.2-6.9 4.5-9.4.7-4.8-1.9 2.3-3.3 3.1-4.5 2.6-2.5-.9-2.1-2.4.8-2.4 2.1 0 2.5-.5 2.5-3.1 0-5.6-4.1-9.5-5.7-5.4-.8 2.4-5.7 4.5-10.2 4.5-3 0-4.1.5-4.6 1.9-.9 3.1.3 4.5 7.3 8.3 3.7 2 6.7 4.2 6.7 4.9s-1.5 2.2-3.4 3.3c-3.4 1.9-3.4 1.9-7.5-.2-8.4-4.3-9.4-4.5-14.1-1.8-3.7 2.2-4.3 3.1-4.8 6.8-.3 2.6-.1 5.5.7 7.3.8 1.6 1.9 5.7 2.6 9 .8 3.3 1.9 7.2 2.7 8.7.7 1.5 1.3 3.9 1.3 5.3s1.1 3.7 2.4 5 2.9 3.8 3.5 5.6c.6 1.7 1.9 3.8 2.8 4.5 2.7 2 8.7 1.7 12.7-.7 3.6-2.1 3.6-2.1 7.8.3 3.5 1.9 4.4 2.9 4.6 5.6.2 1.8 1 3.6 1.8 3.9s1.4 1 1.4 1.5.9 2.3 2.1 3.9c1.5 2.2 2.8 2.9 5.3 2.9 4.4 0 9.3-2.2 13.5-6 1.9-1.7 4.1-2.8 4.9-2.5.7.3 1.6.5 1.8.5s.4.5.4 1c0 .6.9 2.9 1.9 5.3 1.1 2.3 2.9 7.2 4 10.8 2.2 6.7 5.1 10.5 8.5 11.1 1 .1 2.1-.3 2.3-1 .3-.7-.4-1.2-1.7-1.2-3.4 0-5-2.4-8.5-12.3-6.2-17.9-7.5-19.2-13.7-13.8-4.7 4-9.1 6.1-13.1 6.1-2.9 0-3.7-.5-5.1-3.3-.9-1.7-2-3.9-2.5-4.7-.4-.8-1.4-2.9-2.2-4.5-.8-1.7-3.3-4-5.6-5.3-4.2-2.3-4.2-2.3-8.3-.2-2.6 1.3-5.5 2-7.8 1.8-3.2-.3-4-.9-6-4.8-1.3-2.5-2.8-4.7-3.3-5.1-.9-.5-2.1-4.4-5.4-16.9-1-3.6-2.4-8-3.1-9.8-1.7-3.9-1.8-7.6-.4-10.3 1.4-2.5 3.3-2.4 8.3.5 2.3 1.3 6.8 3.8 10 5.5 13.5 7.4 17.4 9.5 20.2 11.1 3.4 2 5.4 3.2 21 11.7 26.2 14.3 26.3 14.4 25 12.4-.3-.6-4-2.9-8.3-5.2-8.5-4.6-13.9-7.6-20.7-11.4-2.5-1.4-6.5-3.6-9-5s-5.6-3.1-6.8-3.9c-1.2-.7-5.1-2.9-8.7-4.9-3.6-1.9-9.8-5.3-13.8-7.5-4-2.3-8.2-4.4-9.2-4.7-1.1-.4-2-1.1-2-1.7 0-2.2 6.8.2 17.5 6.2 10.6 6 22.7 12.6 46 25.2 6.1 3.3 12.4 6.8 14.2 7.9 2 1.3 3.4 1.6 3.8.9.3-.5-.2-1.3-1.2-1.7-.9-.4-5.1-2.6-9.1-4.9l-7.4-4.2 5.8-4.6c3.3-2.6 7.1-5.2 8.7-5.9 2.7-1.2 3.6-2.7 1.7-2.7-.9 0-11.7 7.1-17.4 11.3-1.1.9-13.8-5.3-14.4-7.1-.3-1.1 12.4-10.7 18.8-14.1 2.5-1.4 4.7-2.7 5-3s2.3-1.4 4.5-2.5c2.3-1.1 3.4-2.1 2.7-2.4-1.6-.5-4.3.8-12 5.6-6 3.8-6.9 3-5.3-5 .1-.8 13.9-8.8 15.2-8.8.5 0 .9-.5.9-1 0-1.6-1-1.2-8.6 2.9l-7.1 3.9-.6-6.7c-.4-3.6-.7-7.4-.9-8.4-.3-1.9 7.5-6.7 16.4-10.2 2.6-.9 4.6-2.1 4.3-2.5-.2-.4-3.2-1.3-6.5-1.9-7.4-1.5-9.3-.5-8.5 4.3.5 2.8.2 3.3-3 4.8-3.4 1.7-3.5 1.7-5.5-.4-2.6-2.8-2.5-3.3.8-9.3 16.3-28.9 23.4-41 24.5-41.7.9-.5.8-1.9-.1-5.3-1.6-6.2-1.5-8.1.8-14.5 1.1-3 2-5.6 2-5.7s1.5-1.1 3.4-2.2c3.7-2.3 8.2-2.7 12.1-.9 2.5 1.1 3.4 2.8 1.5 2.8-.5 0-1 .9-1 2 0 1.3-1.1 2.5-2.7 3.3-2.7 1.1-4.3 2.5-4.3 3.9 0 .3 1.9-.4 4.3-1.6 2.6-1.4 4.3-3.1 4.5-4.4.5-3.5 1.7-3 5.8 2.3 1.5 2 1.5 2 1.1 0-.3-1.1-.8-2.8-1.2-3.9-.7-1.7-.4-1.8 3.6-1.3 2.4.2 5.4.8 6.7 1.2 1.2.4 2.2.3 2.2-.2 0-1.7-4.9-3.3-10.3-3.3-2.9 0-6-.7-7-1.5-2.8-2-9.2-2.8-13-1.6-4.6 1.6-7.4 4.7-9.7 11.2-2.3 6.2-2.4 8.7-.8 14 1 3.4.9 4.2-.7 5.8-.9 1.1-2.7 3.9-3.9 6.3s-4.3 7.9-6.8 12.3-7 12.3-10 17.5c-4.5 7.9-5.8 9.6-8.1 9.8-3.4.4-3.4-.6.3-7.4 1.7-2.9 2.7-5.4 2.3-5.4-1.3 0-.9-11.4.3-12.5.7-.6 3.4-5.3 6.1-10.5s5.9-11.1 7.1-13c2.2-3.5 3.1-9.6 1.2-8.5-.5.3-1 1.5-1 2.6 0 3-2.8 7.9-4.6 7.9-.9 0-4.8 1.6-8.7 3.5s-7.9 3.5-8.9 3.5c-1.9 0-2.4-1.5-.8-2.5 2-1.2 1-3.5-1.6-3.5-2 0-2.5.4-2.2 2.2.2 1.1-.2 2.3-.8 2.5-1.3.4-3.3-11.4-3.8-21.7-.1-4.1-.7-8.4-1.3-9.5s-1.4-4.5-1.8-7.5c-.9-7.1.7-8.8 10-10.1 3.7-.5 9.9-1.7 13.8-2.7 5.2-1.2 11.1-1.7 21.2-1.6 12.1 0 15.3.4 24 2.8 13.5 3.8 19.2 6.2 31.3 13.4 5.6 3.4 10.5 6.2 10.8 6.2s4.2 2.2 8.7 4.8c14.1 8.3 25.7 14.4 25.7 13.4 0-.6-5.1-3.8-11.2-7.2-16.8-9.3-19.3-11-17.7-12.1 2.6-1.6 15.1-1 19.4 1 3.8 1.7 8.7 6.4 9.8 9.3.2.7.8 1 1.2.6 1-1-3.1-7-6.5-9.6-3.2-2.4-8.4-4.2-12.6-4.2-2.4 0-3.4-.5-3.9-2-1-3.1-7.1-8.8-11.3-10.6-3.7-1.5-12.9-1.5-22.4.2-2.5.4-5.1.1-7.7-.9-10.5-4.2-31.9-8.4-40.3-7.9-2 .1-3.2-.6-4.4-2.7-3.3-5.6-13.4-8.1-13.4-3.4 0 1.3.3 1.4 1.2.5.7-.7 2.1-1.2 3.1-1.2 2.8 0 .9 2-6.6 6.9-4.7 3-7.7 4.2-11.9 4.7-6.8.8-11.5 3.4-12.4 6.9-.4 1.4-.1 4.9.5 7.8 2.3 9.9 2.4 11.7.8 11.7-1.5 0-3.4-4.9-5.7-15.3-1.5-6.7-1.4-6.9 6-11 5.1-2.8 13-4.5 13-2.8 0 .6.7 1.1 1.5 1.1 1.8 0 1.8-.5.5-3.1-.8-1.5-.7-2.5.7-4.4 2.3-3.1 4.3-3.3 3.5-.3-.5 2.3-.5 2.3 1.6.4 2.8-2.4 2.9-5.6.2-5.6-1 0-3.5 1.3-5.3 3m21.1 5.2c.2 1.3-.6 1.8-3.5 2.3-2.1.3-4.9.8-6.3 1.1-2.4.4-2.3.3.9-2.6 3.8-3.4 8.3-3.8 8.9-.8m77.5 12.8c3.6 1.7 9.8 8.5 8.6 9.3-.2.2-2.7.9-5.6 1.6-5.5 1.3-6.1 1.1-16.4-5.2-7.6-4.6-8.5-5.5-6.9-6.6 2.7-1.9 15.6-1.3 20.3.9m-112.8 24.1c0 .7-.8 1.5-1.7 1.7-1.8.3-2.5-1.8-1.1-3.2 1-1 2.8-.1 2.8 1.5m-.1 4.7c1.1 1.8 1.8 9.2.9 9.2-1.3 0-3.3-4.5-3.3-7.5 0-2.4 1.4-3.3 2.4-1.7m2.6 12.1c0 .5-.6 1.2-1.2 1.5-1 .5-1 .7 0 1.2 1.7.8 1.5 2.4-.3 2.4q-1.5 0-1.5-3t1.5-3c.8 0 1.5.4 1.5.9m25 2.3c-.1 1.5-2.4 4.8-3.4 4.8-.8 0-.8-4.5.1-5.3 1.1-1.2 3.3-.8 3.3.5M495 486c4.2 3 7.1 9.7 6.1 14-1 4.6-2.9 7.4-6 9.3-3.3 2-11.1 3.2-11.1 1.7 0-.5 1.5-1 3.4-1 4 0 5.6-1.5 2.6-2.5-1.4-.4-2-1.5-2-3.3 0-2.9 5.4-12.2 7-12.2.6 0 1-.5 1-1 0-.6-1.8-1-4-1s-4 .4-4 1c0 .5.5 1 1 1 1.4 0 1.3 3.3-.2 4.8-1.8 1.8-2.3 1.5-3.7-1.5-.9-1.9-.9-2.9-.2-3.1 2.8-.9.6-2.2-3.9-2.2-2.7 0-5 .4-5 1 0 .5.4 1 1 1 1.6 0 7 8.7 7 11.4 0 1.4-.9 3.5-2 4.6-2.5 2.5-4.9 1.3-7.9-4.1-3.6-6.4-2.2-12.3 4.1-17.3 4.3-3.4 12.5-3.6 16.8-.6m30.5 28.8c-1.7 1.5-6.3 3.1-6.9 2.5-1.9-1.9-.3-3.3 3.6-3.3 2.3 0 3.8.4 3.3.8m-50.2 10.9c-.7.2-1.3 1.1-1.3 1.8 0 1.4-2.9 3.5-4.9 3.5s-1.1-2 1.3-3c1.3-.5 2.7-1.4 3.1-1.9.3-.6 1.2-1.1 1.8-1q1.35 0 0 .6m-6 7.9c5.5 3.4 7.4 6.4 4.1 6.4-2.6 0-14.4-7-14.4-8.6 0-2.4 4.3-1.5 10.3 2.2M170.5 411c.3.5 1.9 1 3.6 1 1.6 0 2.9-.5 2.9-1 0-.6-1.6-1-3.6-1-2.1 0-3.3.4-2.9 1M262 412c0 1.9.3 2.1 1.2 1.2s.9-1.5 0-2.4-1.2-.7-1.2 1.2M179.6 411.9c1.5 1.5 5.7 1.7 6.1.3.3-.8-.7-1.2-3.3-1.2-2.3 0-3.4.4-2.8.9M639.4 416.5c-1.4 5.9 0 6.9 1.5 1 1.3-5.2 1.3-5.5.3-5.5-.4 0-1.2 2-1.8 4.5M193.7 413.7c-1.1 1.8-.2 3 4.1 4.9 2 1 4.5 2.4 5.5 3.2.9.8 2 1.2 2.5.8.9-.9-2.1-3.2-7-5.4-2.1-.9-3.9-2.3-4-3.2-.3-1.1-.5-1.2-1.1-.3M261 416c0 .7.3 1 .7.7.3-.4.3-1 0-1.4-.4-.3-.7 0-.7.7M194.4 420.3c1 .7 3.4 2.2 5.2 3.4s3.6 1.8 3.9 1.4c.6-1-.9-2.3-5.2-4.5-3.7-1.9-6.8-2.1-3.9-.3M249.5 425c-.4.6 1.2 1 4 1s4.4-.4 4-1c-.3-.6-2.1-1-4-1s-3.7.4-4 1M637.6 427.1c-.9 4.5-.8 6.5.3 5.3 1.2-1.3 2.2-8.4 1.2-8.4-.5 0-1.1 1.4-1.5 3.1M212 425.8c0 .9 4 3.5 4.6 2.9s-2.5-3.7-3.7-3.7c-.5 0-.9.3-.9.8M262 426.1c0 .5 1.9.9 4.2.9 4.9 0 4.7-.5-.4-1.3-2.1-.3-3.8-.2-3.8.4M278 428c3.6 1.2 6.2 1.2 5.5 0-.3-.6-2.3-1-4.3-.9-3.3.1-3.4.2-1.2.9M290 429c0 .5 1.9 1 4.3 1 3.1 0 3.8-.3 2.7-1-2-1.3-7-1.3-7 0M304 430c0 1 7.9 2.4 8.7 1.6 1-.9.1-1.3-4.4-1.9-2.4-.3-4.3-.1-4.3.3"/><path d="M485.4 430.5c-.8 2.1.3 4.7 1.9 4.3.6-.3 1.3-1.4 1.5-2.5.4-2.4-2.6-4-3.4-1.8M492 432.6c-2.9 7.5-1.9 16.6 2.3 22.8 2 2.9 2 2.9-.6 2.4-4.2-.8-4.2 1 0 2.7 2.1.8 5.5 3.4 7.5 5.7s4 3.9 4.4 3.5-.2-1.7-1.4-3c-2.7-2.8-2.8-3.7-.4-3.7 1.5-.1 1.5-.2-.3-1.5-6.2-4.5-7.6-6.2-9.5-11.1-2.4-6.5-2.5-9.7-.5-15.4 1.8-5.1 1.8-5 .5-5-.6 0-1.5 1.2-2 2.6M319 432c.8.5 3.3.9 5.5.9 3.5-.1 3.7-.2 1.5-.9-1.4-.4-3.8-.8-5.5-.9-2.3 0-2.6.2-1.5.9M111.2 434c-4.3 4.1-1.9 11.3 4.1 12.4l3.3.6-.4 34.8c-.3 24.4-.1 34.4.7 33.7.7-.7 1.1-11.5 1.2-31.5.1-33.7.4-37 2.7-37 .8 0 2.4-.8 3.4-1.7 1.7-1.5 3-1.6 15-.4 11.2 1 13.3 1 14.6-.2 1.9-1.9.7-5.3-2.1-6.1-1.2-.3-4.6-.6-7.6-.6-7.9 0-18.3-2.2-20.3-4.2-2.6-2.6-11.7-2.5-14.6.2m6.8.5c0 .2-.5 1.6-1.2 3-.8 1.9-.8 3.1 0 5 1 2.2.9 2.5-.8 2.5-4.1 0-6.8-6.8-3.8-9.8 1.1-1.1 5.8-1.7 5.8-.7m7 .5c0 .5-.9 1.4-2 2-2.4 1.3-2.6 3.7-.3 6.2 1.5 1.7 1.5 1.8-.3 1.8-4.1 0-5.8-4.8-3.2-9 1.3-2 5.8-2.8 5.8-1m1 5c0 1.1-.7 2-1.5 2-1.5 0-2.1-2.1-.8-3.3 1.2-1.3 2.3-.7 2.3 1.3m6 0c0 1.3-.7 2-2 2-1.9 0-2.7-2-1.3-3.3 1.3-1.4 3.3-.6 3.3 1.3m4 1c0 2.1-1.5 2.7-2.5 1-.7-1.2.2-3 1.6-3 .5 0 .9.9.9 2m5.8.3c.2 1.2-.3 1.7-1.7 1.7-1.2 0-2.1-.6-2.1-1.3 0-3.1 3.2-3.4 3.8-.4m5.2.7c0 2.3-1 2.6-2.8.8s-1.5-2.8.8-2.8c1.3 0 2 .7 2 2m5 0c0 1.1-.6 2-1.4 2-1.8 0-2.9-1.6-2.1-3 1.1-1.8 3.5-1.1 3.5 1m3 0c0 .5-.4 1-1 1-.5 0-1-.5-1-1 0-.6.5-1 1-1 .6 0 1 .4 1 1M258.5 433c-.3.6-.4 1.9 0 2.9.5 1.6-1.6 3-13.2 9.1-7.6 4-14.9 8-16.2 8.8-4.1 2.7-.3 2.5 4.2-.2 7.8-4.5 22-11.6 22.4-11.2.2.2-4.8 3.2-11.1 6.6-6.4 3.4-11.6 6.6-11.6 7.1 0 1 10.1-3.8 19-9.1 5.8-3.4 8-3.3 8 .5 0 2.6 1.8 3.3 3.7 1.4 1.4-1.4 6.5-.7 7.1 1 .3 1-.3 1.1-2.7.6-3.8-.8-6.1.7-6.1 4.1 0 2.9-1.4 3.1-3.2.6-4.4-6.2-11.7-3.9-10.7 3.4.1.9-4.8 4.1-9.8 6.4-4.2 2-6.4 4-4.3 4 .7 0 3.9-1.6 7.1-3.5 6.5-3.8 6.9-3.9 6.9-2.6 0 .5-2.6 2.3-5.7 4-4.2 2.3-6.9 3.1-10.7 3.1-5.6 0-8.9-1.3-6.2-2.3.9-.4 2.2-.4 2.9-.1.7.2 2-.1 2.9-.8 2.5-1.9 1.3-6.6-1.8-7.4-3-.8-10.1 3.6-11.4 7-.4 1.3-2.6 3.3-4.7 4.6s-3.3 2.5-2.7 2.7c.7.2 2.6-.5 4.3-1.5 2.6-1.6 4-1.8 7.5-1.1 9.7 1.8 13 1.4 20.7-2.4 4.1-2 8.6-3.8 10-4.1s4-1.9 5.7-3.6c1.8-1.6 3.6-3 4.1-3s1.1-1.2 1.3-2.8c.3-2.9.7-3 7.8-1.6 1.9.4 4.5 1.4 5.8 2.2 1.2.8 2.5 1.2 2.8.9s-.5-1.3-1.9-2.2-2.8-2.7-3.1-4.1c-.4-1.5-1.4-2.4-2.6-2.4-1 0-2.2-.5-2.6-1.1-.4-.7-2.2-.9-4.5-.6-2.2.3-4.1.2-4.3-.2-.3-.4-.6-3.7-.8-7.4-.3-6.4-.9-7.9-2.3-5.7m15.2 18.7c-.4.3-1 .3-1.4 0-.3-.4 0-.7.7-.7s1 .3.7.7m-21.7 3.2c0 .6 1.2.9 2.7.8 2.1-.2 2.9.3 3.1 1.9.2 1.1-.4 2.7-1.3 3.4-1.5 1.2-1.9 1.1-3.5-1-1.8-2.4-1.8-2.4-2.3.1-.3 1.5-.5.8-.6-1.9 0-2.3.4-4.2.9-4.2.6 0 1 .4 1 .9m-21.2 8.5c.3 1.4-.1 1.8-1.5 1.4-1.1-.3-2.8.1-3.8.8-2.4 1.8-3.5 1.8-3.5-.1 0-1.7 4.8-4.6 7-4.2.8.1 1.6 1.1 1.8 2.1m-10.3 4.6c.3.5.4 1 .1 1s-.8-.5-1.1-1c-.3-.6-.4-1-.1-1s.8.4 1.1 1M332 433c0 .6 2.3.9 5.3.9 4.4-.1 4.8-.2 2.2-.9-4.4-1.1-7.5-1.1-7.5 0M346 434.7c0 .9 1.6 1.3 4.5 1.3 2.5 0 4.5-.4 4.5-.9s-2-1.1-4.5-1.3c-3.1-.2-4.5.1-4.5.9M360 436c0 .5 2.1 1 4.6 1 2.7 0 4.3-.4 3.9-1-.3-.6-2.4-1-4.6-1-2.1 0-3.9.4-3.9 1M374 436.8c0 .9 9.1 2.4 9.9 1.6s-.4-1.2-5.1-1.9c-3-.5-4.8-.3-4.8.3M635.7 441.2c-.5 4-.3 5.7.8 4.7 1-1.1 1.7-8.9.8-8.9-.6 0-1.3 1.9-1.6 4.2M218 441q0 3-1.5 3c-.8 0-1.5.4-1.5 1 0 .5.7 1 1.5 1 1 0 1.5 1 1.5 2.8 0 3.4 3.1 6.6 5.7 6 1.5-.4 1.3-.7-.9-1.8-2.7-1.2-2.8-1.7-2.8-8.2 0-3.9-.4-6.8-1-6.8-.5 0-1 1.3-1 3M395 439c0 .5.9 1 2 1s2-.5 2-1c0-.6-.9-1-2-1s-2 .4-2 1M160.6 442.8c-.3.5.4 1.2 1.7 1.6 3.5.9 7.7.7 7.7-.4 0-.6-.6-1-1.4-1-.7 0-2.7-.3-4.4-.6-1.6-.3-3.2-.2-3.6.4M172.5 445c.3.5 2.2 1 4.1 1s3.4-.5 3.4-1c0-.6-1.8-1-4.1-1-2.4 0-3.8.4-3.4 1M182.5 445c-.6 1 6.3 2.6 7.2 1.6.9-.9.2-1.2-3.4-1.9-1.8-.4-3.5-.2-3.8.3M223.4 446.5c-.9 2.1 1.6 4.9 3 3.5.8-.8.7-1.3-.3-1.9-.7-.5-1-1.4-.7-2 .4-.6.2-1.1-.4-1.1s-1.3.7-1.6 1.5M565.8 447.7c-1.9.5-2.5 2.3-.9 2.3 1.7 0 4.1-1.2 4.1-2.1s-.4-1-3.2-.2M554.1 450.6c-2.3 2.4-2.2 4.9.1 2.6.7-.7 2-1.2 3-1.2 2.1 0 2.3-1.3.5-2.8-.9-.8-1.9-.4-3.6 1.4M633.8 453.2c-.3 2.4-.3 4.5-.1 4.8.8 1 2.3-2.6 2.3-5.8 0-4.7-1.7-3.9-2.2 1M566 452.4c0 .9.5 1.6 1 1.6.6 0 1-.4 1-.9 0-.6-.4-1.3-1-1.6-.5-.3-1 .1-1 .9"/><path d="M572.1 451.7c-1.3.3-2.6 1.3-2.8 2.4-.6 2-3.7 2.6-4.8.9-.8-1.3-2.5-1.3-2.5 0 0 .6 1.5 1.7 3.3 2.5 3.4 1.4 5.7.6 5.7-2.1 0-.8.6-1.4 1.3-1.4 2.1 0 2.8 1.2 1.6 2.6-1.4 1.7-.3 3.4 2.2 3.4 2 0 2.7-3.4.9-4.5-3.5-2.2 1.6-3.4 6.4-1.5 2 .7 2.6.6 2.6-.4 0-2.3-6.9-3.2-13.9-1.9M546.4 455.5c-1 .8-1.4 1.5-.7 1.5 1.9 0 4.3-1.1 4.3-2.1 0-1.3-1.4-1.1-3.6.6M553 457.5c-3.1 3.7 3.9 13.5 7.5 10.5 2.6-2.2 1.4-7.8-2.4-10.7-2.2-1.7-3.6-1.6-5.1.2m5.4 2.7c2.2 3.1 2 5.8-.3 5.8-1.1 0-2.3-1.2-3.1-2.9-2-4.8.6-7 3.4-2.9M583 457c-.8.5-1.2 1.2-.9 1.5.8.8 3.9-.5 3.9-1.6s-1.1-1.1-3 .1M282 458c0 .8 5.1 4 6.5 4s.2-1.8-2.4-3.3c-3.3-2-4.1-2.1-4.1-.7M538.2 460.2c-2.2 2.4-3.4 9.5-1.7 10 .6.2 1.1-1.3 1.3-3.2.2-2.1 1.4-4.6 3-6.3 1.8-1.9 2.1-2.7 1.1-2.7-.9 0-2.5 1-3.7 2.2"/><path d="M546.6 459.8c-.3.5.7 2.9 2.2 5.3s3.3 6.2 4 8.4c1.5 5.4 4.3 7.1 7.8 4.9 2-1.4 3-1.5 4.9-.6 1.4.7 2.5 2 2.5 2.9 0 1 .9 2.9 1.9 4.2 1.8 2.3 2.2 2.4 5.7 1.3 2.2-.6 4.5-2.1 5.2-3.3 1.7-2.7.6-3.9-1.2-1.3-.8 1-1.7 1.6-2.1 1.2s.2-1.9 1.4-3.4c2.3-3 2.6-5.6 1-10.2-.7-2.2-.7-3.6.1-5.1 1.4-2.6-.7-3-2.5-.4-1 1.3-1 2.3.1 5 1.8 4.2 1.8 7.7-.1 9.3-.8.7-1.5 1.8-1.5 2.4 0 .7-.6 2.1-1.4 3.1-1.2 1.6-1.6 1.7-3 .6-.9-.7-1.6-2.2-1.6-3.4 0-4.3-7-7.9-10-5.2-2.6 2.4-4.6 1.3-5.3-2.7-.6-3.8-7.2-14.4-8.1-13M632.8 460.6c-.5.4-.8 2.3-.8 4.3 0 2.5.3 3.2 1.1 2.4.6-.6.9-2.5.7-4.3-.2-1.7-.6-2.8-1-2.4M459 462.8c0 1.1 5.8 3.4 7.2 2.9.7-.2-.4-1.2-2.6-2.1-4.4-1.8-4.6-1.9-4.6-.8M520.1 466.3c-1.3 2.3-3.7 6.7-5.3 9.7s-4.3 7.9-6 10.9c-1.7 2.9-2.5 5.2-1.8 4.9 1-.3 14.7-23.8 16.7-28.6 1.3-3-1.4-.8-3.6 3.1M292 464.4c.8.8 3.2 2.4 5.3 3.5 2.1 1.2 5 2.9 6.4 3.8 2.1 1.4 2.5 1.5 2.1.3-.2-.8-1.8-2.2-3.4-3-1.7-.9-4.3-2.6-5.9-3.8-3.2-2.5-7-3.2-4.5-.8M584 464.5c-1.7 2.1-2.1 13.7-.5 13.1.6-.1.9-2.7.8-5.7 0-3 .4-5.7.9-6 .6-.4.9-1.2.6-1.9-.2-.8-.8-.7-1.8.5M644 464c-6.9 1.5-7.4 1.8-6 3.5.6.8 6 4.1 11.8 7.3 19.5 10.9 21.5 11.8 21.9 10.4.6-1.5 7.4-1.6 14.5-.1 11.7 2.5 22.7 11 27.9 21.6 2 4.1 2.3 6.4 2.4 15.3 0 7.5-.5 12.1-1.8 16.2-3.8 11.7-15.1 26.6-25.5 33.7-4.6 3.1-24.7 14.1-25.7 14.1-.1 0-.6-2-.9-4.4-.4-2.4-1.4-5-2.1-5.6-.8-.7-1.5-1.9-1.5-2.6 0-.8-.4-1.4-.9-1.4-2 0-2 1.8-.1 4.3 2.5 3.1 2.5 3.3 0 4-1.5.4-2 1.4-2 3.7 0 3.2 0 3.2-2.5 1.6-3.2-2.1-3.2-2.1-4 1.4-.4 1.7-1.3 3-2.1 3-1.2 0-1.4-1-1.2-4.3.3-4.1.4-4.2 3.6-3.9 1.7.1 3.2-.2 3.2-.7 0-1.3-6-2.5-7-1.5-1.4 1.5-2.2 9.1-1.1 9.9 2.6 1.5.5 3.5-8.3 7.9l-9.3 4.7-5.2-3c-2.9-1.7-5.8-3.1-6.4-3.1-.7 0-1.7-.4-2.3-.9-.5-.4-2.1-1.1-3.5-1.5-3.9-.9-5.3 1.3-4.5 6.9.5 2.9.4 4.5-.3 4.5-.6 0-1.1 1.1-1.1 2.5 0 2 .5 2.5 2.4 2.5 3.4 0 4.1 1.6 1.4 3.3-1.3.7-5.3 3.2-8.9 5.5s-6.8 4.2-7.1 4.2-.9-1.1-1.2-2.4c-1-4.1-7.9-8.5-38.6-24.9-4.1-2.2-7.9-4.4-8.4-4.8-1.3-1.2-3.6-1.1-3.6.1 0 .5.4 1 .8 1 1.1 0 23.7 12.4 36.9 20.3 10.6 6.3 12.3 8.3 12.3 14.6 0 2.6-1.6 5.1-3.2 5.1-.4 0-.8-2.3-.8-5.1 0-6.2-2.2-8.6-12.6-13.9-3.8-1.9-8.9-4.6-11.4-6.1-11.7-6.8-18-9.8-18-8.5 0 .8.8 1.6 1.8 1.9 1.5.5 5.1 2.4 23.7 12.7 3.3 1.8 7.9 4.6 10.3 6.2 4.1 2.8 4.2 3.1 4.2 8.3 0 3-.5 5.7-1.2 6.1-.8.5-.9.2-.5-1 .5-1.2.3-1.6-.5-1.4-.7.3-1.5 1.7-1.9 3.3-.5 1.5-1.9 4-3.2 5.4-3 3.2-4.8 6.6-4 7.5.3.3 1.2-.2 2-1.2 1.2-1.6 1.3-1.5 1.1.8-.2 2-.8 2.5-2.8 2.2-1.4-.1-5.9-.3-10-.5-8.1-.2-7.6.1-11.2-8.2-1.6-3.7-11.8-9.3-11.8-6.5 0 .5 1.7 1.7 3.7 2.5 4.7 2 7.3 4.3 7.3 6.5 0 2.5 3.8 7 6.9 8.1 1.8.7 3.9.7 6.9-.2 3.2-.9 4.6-.9 5.5 0 1.5 1.5 4.2 1.4 5.7-.4.6-.8 4.8-3.3 9.3-5.6 10.8-5.5 15.5-8.6 19.3-12.3 3.3-3.3 9.1-12.1 11.2-16.9.8-1.9 1.8-2.7 2.7-2.3 1.6.6 6.5-1.2 7.8-2.9.4-.5.5-2.2.3-3.6-.4-2.3.1-2.9 6.7-6 4-1.9 9.9-4.9 13.2-6.7 5.7-3.2 6.1-3.3 9.2-1.8 2.8 1.3 3.3 1.3 4.4 0 .9-1.1.8-1.8-.5-3.2-2-2.3-2.1-6.8-.1-7.6 1.2-.4 1.5.3 1.5 3.4 0 4 .7 4.8 2.6 3.1.5-.5 5.2-3 10.4-5.6 15.2-7.7 21.8-12.9 31.6-24.7 3.3-3.9 9-14.7 10.7-20.3 5.2-16.9 1.7-33.1-9.7-43.8-6.6-6.3-18.9-11.7-26.7-11.7-3.3 0-3.7-.3-5-4.2-1.5-4.6-6.2-9.9-10.9-12.3-3.8-2-14-2.7-20-1.5m19.5 3.5c4.5 2 10.5 9.4 10.5 12.9 0 .8-1.3 1.6-3 1.8-2.4.4-6-1.1-16.5-7-7.4-4-13.5-7.8-13.5-8.2 0-2.2 17.4-1.8 22.5.5M657 589.6c.9.9 1 1.4.3 1.4-1.9 0-6.3-2.2-6.3-3.2 0-1.2 4.1 0 6 1.8m-40.4 8.6c3.5 2.1 4.1 3.2 2.4 4.3-.5.3-1 1.7-1 3.1 0 3-1.1 3-6 .3-4.2-2.4-6.4-6.1-5.4-9.1.5-1.6 1.1-1.8 3.6-1.3 1.7.4 4.6 1.6 6.4 2.7m7.8 5.4c1.3 3.4.6 6.1-1.9 7.2s-2.5 1.1-2.5-3.2c0-2.3.3-4.6.7-4.9 1.1-1.2 3.1-.7 3.7.9m-11.5 4.6c4 2.1 5.3 3.8 2.9 3.8-1.8 0-9.8-4.3-9.8-5.2 0-1.4 2.7-.8 6.9 1.4m1.1 6.3c0 1.7-3.3 7.8-6.6 12.2-4.3 5.7-8.5 9-16.8 13.4-4.5 2.3-8.5 4.6-9 5-1.6 1.4-4.6 1-4.6-.6 0-1.7 8.2-10.5 9.8-10.5 1.8 0 5.2-4.2 5.2-6.4 0-1.5 1.9-3.4 6.3-6.2 13.3-8.8 15.7-9.8 15.7-6.9"/><path d="M622 604.9c0 2.5.6 2.7 1.3.6.4-.8.2-1.7-.3-2-.6-.4-1 .3-1 1.4M522.8 468c-10 17.6-17.9 32.3-17.4 32.8.8.7.5 1.2 7.3-10.8 11.1-19.6 13.4-24.1 13-25.3-.2-.6-1.5.9-2.9 3.3M541.8 464.6c-1.2 1.1-.9 5.4.6 9.6 1.3 3.5 1.2 3.8-.5 3.8-1.1 0-1.9.3-1.9.7 0 .5 5.9 3.9 13 7.8 7.1 3.8 13 7.5 13 8.2 0 2.1-9.2 9.3-13.4 10.4-7.5 2-12.6 4.1-12.1 4.9.6 1 11.3-2.3 17.3-5.3 2.4-1.2 5.7-3.6 7.3-5.4 1.5-1.8 3.4-3.3 4-3.3.7 0 4.5 1.8 8.5 4s7.9 4 8.6 4c2.2 0-.9-2-15.7-10-1.6-.8-7.5-4.2-13.1-7.3-11.1-6.3-12.8-8.5-14.2-18.1-.4-2.6-1-4.4-1.4-4M567 466.6c-2.7 3.1 3.5 11.6 7.4 10.1 2.3-.9 2-5.9-.5-9.1-2.3-2.9-5-3.4-6.9-1m5.2 2.1c1.7 1.6 2.6 6.3 1.1 6.3-2-.1-5.3-4.4-5.3-6.9 0-1.6 2.1-1.3 4.2.6M470.2 467.1c.5 1.6 8.7 4.9 9.3 3.8.4-.5-.6-1.4-2.2-1.9-1.5-.6-3.6-1.5-4.5-2-2.3-1.3-3.1-1.3-2.6.1M599.2 469.1c-3.1 1.2-5.2 3.4-5.2 5.3 0 .9-.8 1.6-2 1.6-2.6 0-5.4 4.3-4.5 7 1 3.2 4.4 2.4 8.7-2.2 4-4.2 4-4.2 1.8-6-1.2-1-1.8-1.8-1.2-1.8 2.1 0 4.2 3.2 4.2 6.5 0 2.6-.3 3.3-1.5 2.9-1.9-.8-1.9 1 0 2.6 2 1.6 3.5.4 3.5-2.8 0-1.5.9-4.4 2-6.5 2-3.7 2-3.7 0-5.7-2.2-2.2-2.5-2.3-5.8-.9m4.6 3.7c.2 1.2-.1 2.2-.6 2.2-1.4 0-4.3-3.6-3.5-4.4 1.4-1.3 3.8-.1 4.1 2.2m-6.3 4.2c-.3.5-1.1 1-1.6 1-.6 0-.7-.5-.4-1 .3-.6 1.1-1 1.6-1 .6 0 .7.4.4 1m-4 3.1c1.2 1.9-.5 2.3-2.2.6-1.6-1.6-1.6-1.7-.1-1.7.9 0 2 .5 2.3 1.1m-3.5 2.4c0 .3-.2.5-.5.5s-.5-.2-.5-.5.2-.5.5-.5.5.2.5.5M757.7 469.7c-1.1 1-.8 12.3.3 12.3.6 0 1-2.8 1-6.5 0-6.5-.1-7.1-1.3-5.8M322.3 474.1c-5 2.5-6.2 3.8-7.3 7.8-.8 3-2.1 4.2-7.2 7.1-3.4 1.9-9.5 5.6-13.5 8.2-4.1 2.7-7.6 4.8-7.8 4.8-.3 0-19.7 11.5-43.1 25.6l-42.6 25.5-14.3-.3c-7.9-.1-14.7.1-15.1.5s4.7.8 11.4.9c14.5.2 18.1.4 18.6.9.2.2 2.7 3.9 5.6 8.2 4.4 6.7 5.1 8.3 4.6 11-.4 1.8-.6 4.5-.6 6 0 2.2-.6 3-3 3.8-1.6.6-3 1.5-3 2.1 0 1 3.8.1 5.7-1.4.8-.7 1.9-.5 3.4.5 1.2.9 2.9 1.3 3.8 1 6.7-2.1 7.6-4.6 3.6-9.9-1.4-1.8-2.5-3.9-2.5-4.8 0-2.3-1.8-2.8-2.9-.9-.5 1-1.1 1.6-1.4 1.3-2.3-2.8-10.7-16.2-10.7-17.3 0-.8 11.1-8 24.8-16.2 13.6-8.1 27-16.1 29.7-17.8 2.8-1.6 6.4-3.7 8-4.7 1.7-.9 13.3-7.9 26-15.5 20.5-12.3 23.2-13.7 25.5-12.8 4.2 1.6 6.7-.1 9.6-6.2 1.5-3.1 2.5-5.7 2.3-5.8s-1.3-.9-2.4-1.8c-1.8-1.4-2.3-1.4-5.2.2m-2.2 5.5c-1.2 1.5-2.1 3.4-2.1 4.2 0 1.2-.3 1.3-1.1.5-1.7-1.7 1.7-7.2 4.4-7.3.5 0-.1 1.2-1.2 2.6m5.9.7c0 2.5-3.3 6.7-5.2 6.7-.6 0-.2-1 1-2.3s2.2-3 2.2-3.8c0-1.4.9-2.9 1.7-2.9.2 0 .3 1 .3 2.3m-4 1.8c-.7 1.1-1.4 1.8-1.7 1.5-.8-.8.5-3.6 1.7-3.6.7 0 .7.6 0 2.1m-102.1 94.5c2.2 2.8 2.8 6.4 1.1 6.4-.5 0-1.2-1.1-1.6-2.5-.3-1.3-1.2-2.9-2-3.6-.8-.6-1.4-1.5-1.4-2 0-1.7 1.9-.9 3.9 1.7m-3.6 6.2c.5.7.7 1.5.4 1.8-.8.8-4.7-3.8-4.7-5.6 0-3 1.4-3.2 2.4-.3.5 1.5 1.3 3.4 1.9 4.1m1.7-2.2c0 .8-.4 1.2-1 .9-.5-.3-1-1.3-1-2.1s.5-1.2 1-.9c.6.3 1 1.3 1 2.1M535.4 474.5c-.9 3.4.4 8.4 1.7 6.4 1.2-1.9 1.2-7.6-.1-8.4-.5-.3-1.2.6-1.6 2M556.4 473.6c.3.9.6 1.8.6 2 0 .3.4.3 1-.1 1.1-.7.2-3.5-1.2-3.5-.6 0-.7.7-.4 1.6M630.6 473.6c-.9 2.4-.7 6.4.3 6.4 1.1 0 2-6.9 1-7.6-.4-.2-1 .3-1.3 1.2M308 473.8c0 1.1 4.1 3.4 4.8 2.7.4-.4-.2-1.3-1.2-2.1-2.2-1.5-3.6-1.8-3.6-.6M203.8 476.1c-3.1 1.7-1.9 3 1.2 1.4 1.7-.9 3-1.8 3-2 0-.8-2.4-.5-4.2.6M173.3 477.4c-3.8 2.1-5.8 4.4-8.2 9.1-2 4-2.1 5-1.1 8.1.7 2 2.6 5.1 4.3 7 9 10.3 23.1 7.6 28.2-5.4 1.6-3.9 1.6-4.5 0-8.4-1.6-4.2-1.6-4.3.4-5.7 3.2-2 2.5-3.4-.8-1.7-2.6 1.4-3 1.4-4.2-.1-3.3-3.9-13.8-5.6-18.6-2.9m14.8 2.8c13.5 7.6 6 27.7-9.5 25.4-10.1-1.5-15.6-12.1-10.6-20.4 4.3-7 12.8-9.1 20.1-5"/><path d="M176.9 482.7c-2.1.3-2.8 1.1-3.1 3.4-.5 3.5-.2 3.6 2.8.4 2-2.2 6.4-3.5 6.4-1.9 0 1.1-2.4 5-6.2 10.2-2.1 2.9-3.6 5.7-3.3 6.2.3.6 3.7 1 7.5 1 7.2 0 8-.6 8-5.3-.1-2.1-.2-2-2.1.5-1.4 2-3 2.8-5 2.8-1.6 0-2.9-.3-2.9-.8 0-.4 2.3-3.8 5-7.6 2.8-3.8 4.7-7.3 4.3-7.6-1.1-1-8.2-1.8-11.4-1.3M572 482c0 .5.5 1 1.1 1 .5 0 .7-.5.4-1-.3-.6-.8-1-1.1-1-.2 0-.4.4-.4 1M611.8 484.6c-4.3 2.7-4.5 3.5-2 5.6 3.3 2.8 14.2 6.9 14.2 5.3 0-.3-1.6-2.2-3.6-4.1-3.1-2.8-3.5-3.6-2.4-4.9 2.1-2.5.1-3.1-2.3-.6-2.2 2.2-2.2 2.2.2 4.2 2.8 2.3 1 2.5-2.4.3-3.2-2.1-3.1-3 .5-4.9 1.7-.9 3-2 3-2.5 0-1.5-1.1-1.1-5.2 1.6M329.3 484.2c-3.1 4-2.4 7.1 1.8 8.8 1.6.7 2.9 1.6 2.9 2.1s.5.9 1 .9c.6 0 3.8 1.7 7.3 3.7 3.4 2.1 7.5 4.5 9.1 5.3 15 7.7 12 19.8-5.9 23.9-2.8.6-11.1 1-19 .9l-14-.3L301 536c-18.5 10.4-38 19.8-54 26.2-4.1 1.6-9.4 3.8-11.7 4.9-2.4 1.1-5.4 2.4-6.8 2.9s-2.6 1.5-2.6 2.2c-.3 3 .4 5.3 1.9 6.4q2.4 1.8 19.5-6c3.2-1.4 6.2-2.6 6.6-2.6.5 0 2.6-.9 4.8-2 2.1-1.1 6.5-3.1 9.8-4.6 9.2-4.1 28.9-13.6 29.5-14.3.3-.3 2.5-1.7 5-3 2.5-1.2 6.6-3.4 9.3-4.8 4.4-2.4 5.3-2.5 13.4-1.8l8.6.7-.7 22.7c-.5 14.9-.4 22.3.3 21.6.5-.6 1.1-10.2 1.3-22.8.2-18.3.5-21.8 1.8-22.1.8-.2 3.8-.7 6.5-1.1 15-2 26-9.2 28.5-18.6 1-3.5.9-5-.5-8.6-1.9-4.8-8.4-12-13-14.3-1.7-.8-7.8-4.3-13.6-7.7-10.8-6.3-13.8-7.3-15.6-5.1m7.9 2.5c.5.2.4 1.1-.3 1.9-.7.9-.8 1.4-.1 1.4.6 0 1.3-.6 1.6-1.3.3-.8 1.1-.5 2.5 1.1 1.1 1.3 2.5 2.1 3 1.8.5-.4 2.3.5 3.9 1.9s3.8 2.5 4.7 2.5c1.1 0 1.5.5 1.1 1.5-.4 1.2 0 1.4 1.9.9 2.1-.5 2.5-.3 2.5 1.6 0 1.5.5 2 1.4 1.7 1.8-.7 5.6 2 5.6 3.9 0 .8.6 1.4 1.3 1.4 1.7 0 4.3 4.3 2.8 4.8-1.6.5-1.4 2.2.4 2.2 3.3 0 .7 8.6-4.1 13.3-2.2 2.3-3.4 2.7-5.7 2.3-2.5-.5-2.7-.4-1.8.8 1.4 1.6-.2 3.2-2 2.1-.6-.4-1.6.1-2.3 1-.7 1-2.8 1.9-4.8 2-1.9.1-4.1.5-4.7.9s-3.1.7-5.4.5c-2.3-.1-5.1.2-6.1.6-1.3.6-2.3.3-3.2-1-.8-1-1.4-1.4-1.4-.8 0 .7-2 1.1-5.2 1-3.8-.1-6.7.6-10.1 2.3-4.8 2.4-4.9 2.4-6.4.5-1.4-1.9-1.4-1.8-1.1 1 .2 2.4-.1 2.9-1.4 2.7-1-.2-1.8.3-1.8 1s-1.8 2.1-4 3-4 1.2-4 .7-.5-.9-1.1-.9-.9.6-.6 1.4c.4.9-1 2.2-4.1 3.7-2.6 1.2-5.5 2.6-6.4 3-1 .5-2.5.6-3.4.2-1.2-.4-1.5-.3-1 .5.4.7 0 1.5-1 1.9s-1.9.2-2.2-.5c-.2-.7-.8-1-1.2-.7-.5.3-.7 1.2-.3 2 .3.9-.1 1.5-.9 1.5s-3.9 1.3-6.9 3c-5.8 3.2-8.4 3.7-9.2 1.7-.3-.6-.6-.1-.6 1.2-.1 2-.5 2.2-2.6 1.7-1.9-.5-2.5-.2-2.5.9 0 1.2-.6 1.5-2 1-1.4-.4-2-.2-2 .9 0 .9-1.3 1.8-3.5 2.2-1.9.3-3.8 1-4.1 1.6-.3.5-1.4.6-2.5.3-1.4-.5-1.9-.1-1.9 1.2-.1 1.7-.2 1.7-1.5-.1-2.4-3.2-1.8-5.4 1.5-6.1 1.6-.4 3.4-.4 4 0 .5.3 1-.1 1-.9 0-1.6 3.4-3.1 5-2.1.6.3 1.3-.1 1.6-.9.3-.9 1.2-1.6 2-1.6 1.4 0 2.3-.4 8.1-3.4 1.7-.9 3.8-1.6 4.6-1.6s2-.7 2.7-1.5 2.3-1.5 3.5-1.5 2.8-.7 3.6-1.6c.7-.8 2.1-1.3 3.1-1.1 1 .3 1.6.2 1.4-.2-.3-.4 3.1-2.6 7.4-4.8 5.6-2.9 8.2-3.7 8.9-3 .8.8 1.1.7 1.1-.2 0-1.7 4.1-5 6.2-5.1.9 0 2.8-1.1 4.2-2.5s3.4-2.5 4.5-2.5 2.1-.6 2.3-1.2c.6-1.7 14-2.1 15-.5.6.9.8.9.8-.1 0-.7 1.5-1.2 4-1.2s4 .5 4 1.2c0 .8.3.9.8.3.4-.6 2.1-1.1 3.7-1.2 3.6-.1 13.8-2.4 14.5-3.2.3-.4 1.8-1.3 3.4-2.1s4.1-2.6 5.5-4c2.3-2.2 2.6-3 2-6.9-.5-3.6-1.4-5.2-4.7-8.2-2.3-2-4.2-4.2-4.2-4.8s-.9-1.1-2-1.1-3.6-1-5.7-2.2c-2.1-1.1-4.9-2.7-6.2-3.4s-2.7-1.6-3-2.1c-.8-1.1-4.2-3.2-6.3-3.9-1.7-.6-2.4-2.5-1.3-3.6.7-.7 6.7-.8 7.7-.1M229 576.1c0 .6-.4.7-1 .4-.5-.3-1-1.1-1-1.6 0-.6.5-.7 1-.4.6.3 1 1.1 1 1.6"/><path d="M342.3 495.7c.4.3 1 .3 1.4 0 .3-.4 0-.7-.7-.7s-1 .3-.7.7M348 498.5c0 .3.2.5.5.5s.5-.2.5-.5-.2-.5-.5-.5-.5.2-.5.5M359 505c0 .7.3 1 .7.7.3-.4.3-1 0-1.4-.4-.3-.7 0-.7.7M364 512c0 .7.3 1 .7.7.3-.4.3-1 0-1.4-.4-.3-.7 0-.7.7M364 517c0 .5.5 1 1 1 .6 0 1-.5 1-1 0-.6-.4-1-1-1-.5 0-1 .4-1 1M366.3 519.7c.4.3 1 .3 1.4 0 .3-.4 0-.7-.7-.7s-1 .3-.7.7M365.5 523c-.3.5-.1 1 .4 1 .6 0 1.1-.5 1.1-1 0-.6-.2-1-.4-1-.3 0-.8.4-1.1 1M362 527c0 .7.3 1 .7.7.3-.4.3-1 0-1.4-.4-.3-.7 0-.7.7M348.3 533.7c.4.3 1 .3 1.4 0 .3-.4 0-.7-.7-.7s-1 .3-.7.7M313 535.5c0 .3.2.5.5.5s.5-.2.5-.5-.2-.5-.5-.5-.5.2-.5.5M339 535.5c0 .3.2.5.5.5s.5-.2.5-.5-.2-.5-.5-.5-.5.2-.5.5M309 537.5c0 .3.2.5.5.5s.5-.2.5-.5-.2-.5-.5-.5-.5.2-.5.5M295 545.5c0 .3.2.5.5.5s.5-.2.5-.5-.2-.5-.5-.5-.5.2-.5.5M288 548c0 .5.5 1 1 1 .6 0 1-.5 1-1 0-.6-.4-1-1-1-.5 0-1 .4-1 1M285 550.5c0 .3.2.5.5.5s.5-.2.5-.5-.2-.5-.5-.5-.5.2-.5.5M281 551.5c0 .3.2.5.5.5s.5-.2.5-.5-.2-.5-.5-.5-.5.2-.5.5M265 560.5c0 .3.2.5.5.5s.5-.2.5-.5-.2-.5-.5-.5-.5.2-.5.5M260 562.5c0 .3.2.5.5.5s.5-.2.5-.5-.2-.5-.5-.5-.5.2-.5.5M241 570.5c0 .3.2.5.5.5s.5-.2.5-.5-.2-.5-.5-.5-.5.2-.5.5M232 571.5c0 .3.2.5.5.5s.5-.2.5-.5-.2-.5-.5-.5-.5.2-.5.5M535.7 484.7c-1.1 1-.8 10.1.3 10.8.6.4 1-1.7 1-5.4 0-6.2-.1-6.6-1.3-5.4M628.8 487c-.5 3.3.6 5 1.6 2.4.9-2.3.7-5.4-.3-5.4-.5 0-1.1 1.4-1.3 3M672 487.4c0 .8-1.2 1.7-2.7 2.1-3.3.7-6.9 3.2-6 4.1.3.3 2.6-.3 5-1.5 2.4-1.1 5.3-2.1 6.6-2.1 3.5 0 7.9 2.8 9.6 6 2 3.8 2.1 17.3.1 18.9-.8.6-2.3 3.3-3.5 6-1.1 2.6-2.6 5.3-3.3 5.8-1.1.9-17.8 4.3-21 4.3-.4 0-.8-1.3-.8-2.8 0-1.6-.9-3.7-2-4.7-2.4-2.2-2.7-7.7-.4-9.6s4-5.8 4.8-10.9c.4-2.4 1.2-5 1.8-5.7.8-1 .7-1.3-.5-1.3-1.4 0-3.7 6.6-3.7 10.8 0 1-1.5 3.5-3.2 5.5-3.3 3.6-3.3 3.6-7.6 1.7-3.8-1.7-4.2-2.2-3.2-4 1.3-2.4.7-2.5-2.5-.4-1.7 1.1-2.5 1.3-2.5.4 0-2 3.2-8 4.2-8 .6 0 .8-.7.4-1.5-.5-1.3 3.3-6.5 4.8-6.5.3 0 .6 1.3.6 3 0 1.6.5 3 1.1 3 .8 0 1-1.5.5-4.7-.3-2.5-.8-4.8-1-5s-2.8 2-5.9 4.9c-6.1 5.8-6 5.5-7.3 24-.6 7.7-.9 8.8-2.5 8.8-1.1 0-1.9-.4-1.9-.8s-2.1-1.8-4.7-3.1c-2.7-1.2-8.8-4.6-13.6-7.4-7-4.1-9-5.8-9.4-8-.4-1.7-1.2-2.7-2.4-2.7-1 0-1.9-.9-2.2-2.3-.3-2.1-.4-2.1-1.2-.2-.5 1.1-2.3 4.5-4.1 7.5-1.7 3-4.3 7.5-5.6 10-2.7 4.8-13.8 24.6-18 32-1.4 2.5-5.8 10.3-9.8 17.5-4 7.1-8.1 14.2-9.1 15.7-2.6 3.6-2.4 5.1.4 4.2 1.2-.3 2.2-.7 2.3-.8 0 0 1.2-2.1 2.6-4.6s5.4-9.7 9-16c8.8-15.6 11.1-19.7 14.3-25.5 1.5-2.8 3.5-6.4 4.5-8 1-1.7 3-5.3 4.5-8 7.6-14.1 11.9-20.5 12.7-19.3 1.3 2.1.9 3.6-1.9 8.1-3.1 5-12.3 20.8-12.3 21.3 0 .2-2.1 3.8-4.6 8.1s-5.7 10-7.1 12.8c-1.4 2.7-2.9 5.2-3.2 5.5-.4.3-3.5 5.7-7 12s-7.3 12.5-8.4 13.7c-2.8 3.2-1.6 3.9 1.9 1.1s10.7-6.8 12.3-6.8c2.5 0 .8 1.9-4.9 5.5-6 3.7-8.7 6.2-7.8 7 .2.2 2.9-1.3 5.9-3.5 2.9-2.2 5.7-4 6.1-4s.8 3 1 6.7c.3 6.8.3 6.8 4.6 9.1 2.4 1.3 4.6 2.2 4.9 1.9.5-.5-4.8-4.2-7.1-5-.5-.2-.5-7.1 0-16.8.8-14.7 1.2-16.8 3.2-19.7 5.5-7.7 11.9-1.6 12.9 12.4.4 4.5 1.1 7.8 1.8 8 .7.3 3.4-.8 6.1-2.3 5-2.9 24.1-12.3 25-12.3.3 0 2.6-1 5.2-2.1 5.3-2.4 22.3-8.9 23.4-8.9 2.4 0 12.7-5.8 16.4-9.2 6.6-6 11.3-14.7 11.4-20.6 0-1.2.4-2.2.9-2.2s1.9-2.1 3.1-4.7c1.2-2.7 3.1-5.9 4.1-7.2 1.5-1.8 1.9-4 1.9-9.8 0-10.3-2.1-14.3-9.6-17.7-6.6-3-6.4-3-6.4-1.2m-32 13c0 .3-.4.8-1 1.1-.5.3-1 .1-1-.4 0-.6.5-1.1 1-1.1.6 0 1 .2 1 .4m-43 7.1c0 .3-.2.5-.5.5s-.5-.2-.5-.5.2-.5.5-.5.5.2.5.5m-1.8 3.7c-.7.7-1.2.8-1.2.2 0-1.4 1.2-2.6 1.9-1.9.2.3-.1 1.1-.7 1.7m45.2 2.4c.9.3 1.6 1.7 1.6 2.9 0 1.3 1.1 3.7 2.5 5.3 4 4.7 3 6.5-4.2 7.6l-4.3.6v-7.8c0-9.2.5-10.1 4.4-8.6m-47.4.9c0 .3-.2.5-.5.5s-.5-.2-.5-.5.2-.5.5-.5.5.2.5.5m14.8 1.9c2.6 1.3 5.8 3.3 7.1 4.3 2.1 1.7 2.2 2.2 1.1 4.4-4.2 7.9-12.7 14.8-21 16.9-7.2 1.8-10 2.3-10 1.6 0-1.8 16.2-29.6 17.3-29.6.4 0 2.9 1.1 5.5 2.4m-15.8.1c0 .3-.2.5-.5.5s-.5-.2-.5-.5.2-.5.5-.5.5.2.5.5m56.1.5c2.3 1.3 2.6 5 .3 5-1.8 0-4.3-2.7-4.4-4.8 0-1.5 1.5-1.5 4.1-.2m-22.4 9.8c2.6 1.6 5.6 3.1 6.6 3.5.9.3 1.7 1.4 1.7 2.4 0 2.8-9 10.7-14 12.2-10.4 3.2-12.9 4.1-20.5 7.1-4.4 1.8-9.1 3.6-10.5 4s-5.1 2-8.3 3.4c-5.8 2.6-5.8 2.6-5.2.5.4-1.2 2.3-4.8 4.2-8 2.8-4.9 3.9-5.9 6.1-5.9 3.2 0 10.6-2.2 15.9-4.6 4.4-2 14.7-12 15.8-15.2.9-2.9 2.4-2.8 8.2.6m27.7-1.2c3 3 1.3 5-2.8 3.4-3.1-1.2-3.6-5-.7-5 1.1 0 2.7.7 3.5 1.6m-.5 6c2.4.8 5.6 1.3 7 1 10.5-1.9 10.1-2 10.1 1.4 0 6.6-8.1 18.3-15.2 21.8-2.4 1.1-11.5 4.9-20.3 8.3s-21.8 9.1-29 12.8c-7.1 3.6-13.3 6.7-13.7 6.9-.5.2-.8-1.7-.8-4.2s.2-4.6.4-4.6c.1 0 3.4-1.1 7.2-2.5s7.9-2.3 9.2-2c1.2.3 2.2.1 2.2-.4 0-2.1-3.5-1.9-10.5.4-8.8 3-9.5 3-9.5.7 0-1-1.3-3.9-3-6.5-2.7-4.3-2.8-4.8-1.2-5.4.9-.3 4.6-1.8 8.2-3.3 3.6-1.6 11.5-4.4 17.5-6.4 6.1-2 12.1-4.2 13.5-4.9 3.1-1.5 9.7-8.1 10.5-10.5.5-1.9 5.8-3.8 10.5-4.1 1.4 0 4.5.6 6.9 1.5m23.1.6c-.1 5-6.2 15.1-11.3 18.7-2.3 1.6-2.3 1.5 2.3-5.4 2.9-4.5 5-10.1 5-13.3 0-1.5.6-2.2 2-2.2s2 .7 2 2.2m-99 10.3c0 .3-.2.5-.5.5s-.5-.2-.5-.5.2-.5.5-.5.5.2.5.5m-1 2.9c0 .3-.5.8-1.2 1.2s-.8.3-.4-.4c.7-1.2 1.6-1.6 1.6-.8m-2 18.8c0 .2-.7 2.1-1.5 4.3s-1.4 6-1.5 8.5c0 4.3-.2 4.6-4.7 6.7-2.6 1.3-4.8 2.1-5.1 1.9-.2-.3 1.1-3.1 3-6.3 1.8-3.2 4.5-7.9 5.8-10.6 1.4-2.6 2.8-4.7 3.2-4.7.5 0 .8.1.8.2M757 492.4c0 3.6.5 6.8 1 7.1.6.4 1-2 1-6.4 0-4.1-.4-7.1-1-7.1s-1 2.8-1 6.4"/><path d="M626.7 494.6c-1.5 2-1.6 2.4-.3 2.4 1.7 0 4-3.6 2.9-4.3-.5-.3-1.6.6-2.6 1.9M535 502.9c0 2.8.5 5.3 1 5.6.6.4 1-1.5 1-4.9 0-3.1-.4-5.6-1-5.6-.5 0-1 2.2-1 4.9M589 499.6c0 1.6-4.7 10.9-8.6 16.9-2.2 3.6-3.5 4.4-9.4 6.6-9 3.2-26.7 11.6-27.6 13-1 1.6 2.7.3 11.7-4.2 4.3-2.2 8.4-3.9 9.1-4 .7 0 3.5-1.1 6.3-2.4 2.7-1.3 5.1-2.2 5.3-2s-2.3 5.2-5.5 11.1c-5.8 10.8-5.8 10.8-16.2 15.4-5.8 2.5-10.7 5.2-10.9 5.9-.3.8 1 .5 3.6-.8 5.5-2.8 14.4-6.3 14.8-5.8.4.3-3.5 7.7-9.3 17.7-1.1 1.9-3.1 5.5-4.5 7.9-1.3 2.3-2.9 4.3-3.4 4.3-1.6 0-4.4 1.8-4.4 2.9 0 .6.8.8 1.7.5 1.5-.6 1.5-.5-.1 1.3-1 1.1-1.3 2.1-.7 2.5 1 .6 4.9-4.5 9-11.7 1.1-2 3.1-5.4 4.3-7.5 2.3-4.1 10.6-19.3 18.6-34.2 2.8-5.2 5.6-10.2 6.1-11 .6-.8 3.5-5.8 6.6-11.1 5.3-9.2 6.6-12.9 4.5-12.9-.5 0-1 .7-1 1.6M452.3 503.7c-2.4.9-1.3 2.3 1.2 1.7 1.6-.4 3.5 0 5.1 1.1 1.4.9 3.3 1.4 4.2 1.2 1.2-.3.2-1.1-2.8-2.5-4.6-2.2-5.6-2.4-7.7-1.5M647.4 506.1c-.3.6 0 1.8.9 2.6 1.8 1.8 3.7.9 3.7-1.8 0-2.1-3.4-2.7-4.6-.8M757 511c0 3.3.4 6 1 6s1-2.7 1-6-.4-6-1-6-1 2.7-1 6M443.1 508.1c-1.8 1.1-3.1 2.2-2.8 2.5.7.8 7.7-2.6 7.7-3.7 0-1.4-1.2-1.1-4.9 1.2M467.2 507.2c-.7.7-1.2 2.4-1.2 3.8 0 3 2.5 6.9 3.6 5.7.4-.4.2-1.3-.4-1.9-1.5-1.5-1.6-5-.1-6.5.6-.6.7-1.3.1-1.6-.5-.4-1.4-.1-2 .5M586 512.7c-1.3 2.7-3.9 7.3-5.6 10.3-1.8 3-6.2 10.9-9.9 17.5s-7.9 14-9.3 16.5c-6.6 11.8-13.5 23.6-14.4 24.8-1.3 1.5-.2 3 1.1 1.6.5-.5 2.3-3.6 4.1-6.9 6.6-12.1 8.2-15 9-16 .4-.6 2.1-3.5 3.7-6.5 1.7-3 5.8-10.4 9.2-16.4 3.3-6 6.1-11 6.1-11.1s2.2-4 5-8.6c2.7-4.6 5-8.7 5-9.2 0-2-1.8-.2-4 4M669.6 511.1c-5.3 4.2-7.2 11.2-3.8 14.2 2.9 2.6 5 2 6.8-1.8.9-2 2.4-3.5 3.4-3.5 2.5 0 3.5-5.6 1.5-8.7-1.9-2.9-4.4-2.9-7.9-.2m6 1.3c1.1 2.8-5 11.6-8 11.6-2.1 0-2.1-4.1-.1-8 2.3-4.5 7-6.5 8.1-3.6M410 510.8c0 1.1 4.1 3.4 4.8 2.7.4-.4-.2-1.3-1.2-2.1-2.2-1.5-3.6-1.8-3.6-.6M433.8 512.6c-2.3 1.2-3.8 3.4-2.5 3.4s6.7-3.3 6.7-4.1c0-1.2-1-1.1-4.2.7M470 511.9c0 .5 1.4 1.6 3 2.5 2.3 1.1 3 1.1 3 .2 0-.7-1.1-1.8-2.5-2.4-3.1-1.4-3.5-1.5-3.5-.3M535.7 511.7c-1.1 1-.8 10.3.3 10.3.6 0 1-2.5 1-5.5 0-5.6-.1-6-1.3-4.8M417 514.9c0 .9 2.4 2.1 4.2 2.1.6 0 .6-.6-.2-1.5-1.4-1.6-4-2-4-.6M423.5 517c.3.5 1.5 1 2.5 1s2.2-.5 2.5-1c.4-.6-.7-1-2.5-1s-2.9.4-2.5 1M472.2 517.2c.2.6 2.3 2 4.6 3.2 3 1.5 4.1 2.6 3.8 3.8-.2 1.1.2 1.8.9 1.8 2.1 0 2.7-1.7 1.5-4.1-1.1-1.9-.9-2 2.1-1.7 2.6.2 3.4-.1 3.7-1.5.3-1.6.1-1.7-1.6-.8-1.4.8-2.4.7-3.8-.4-2.5-1.9-4.8-1.9-4 0 .6 1.6-1.9 2.2-2.8.6-.9-1.3-4.8-2.1-4.4-.9M73.3 519.7c-2.2.8-1.6 6.1.7 6.8 1.1.3 2 1.3 2 2.2 0 1-.6 1.4-2 1-2.4-.6-2.7 1.1-.4 2 3.8 1.4 6.1-7.9 2.8-11.1-.8-.9-1.6-1.6-1.7-1.5-.1 0-.8.3-1.4.6m2.7 3.9c0 1.6-1.6 1.9-2.5.4-.8-1.3.4-3.2 1.6-2.5.5.4.9 1.3.9 2.1M81 521c-1.3 2.4.3 6 2.6 6 .9 0 1.4.6 1.1 1.2-.2.7-1.2 1.2-2.1 1.2-2.1-.2-2.1 1.5 0 2.3 3.8 1.4 6.1-7.9 2.8-11.1-2.1-2.1-3.1-2-4.4.4m4 2.6c0 .8-.7 1.4-1.5 1.4-1.5 0-2.1-2.1-.9-3.3 1-.9 2.4.2 2.4 1.9M90 521c0 .5.7 1 1.6 1 1.2 0 1.4.5.9 1.7-1.4 3.3-1.8 7.3-.6 7.3.6 0 1.1-.9 1.1-2 0-1.2.7-3.4 1.5-4.9.8-1.6 1.1-3.1.8-3.5-1-1-5.3-.7-5.3.4M99.2 521.2c-1.9 1.9-1.4 3.6 1.3 5.4 2.9 1.9 3.3 3.7.7 3.2-2.4-.4-2.9 1.6-.6 2.1 3.3.6 5.6-5.6 3.8-10.3-.7-1.9-3.5-2.1-5.2-.4m3.6 2.5c-.4 2.2-2.2 2-2.6-.1-.2-1 .3-1.6 1.3-1.6s1.5.7 1.3 1.7M110.1 523.4c-2.7 4.2-2.7 6.6-.1 6.6 1.1 0 2 .5 2 1.1 0 .5.5.7 1 .4 1.3-.8 1.3-10.2.1-10.9-.5-.4-1.9.9-3 2.8m1.9 3.5c0 .6-.4 1.3-1 1.6-.5.3-1-.1-1-.9 0-.9.5-1.6 1-1.6.6 0 1 .4 1 .9M127.2 521.2c-1.7 1.7-1.5 8.4.4 10.2.8.9 1.7 1.6 1.9 1.6s1.1-.7 1.9-1.6c3-3 1.6-11.4-1.9-11.4-.6 0-1.6.5-2.3 1.2m3.6 5.1c.2 2.8-.1 3.7-1.2 3.7-1.2 0-1.6-1.1-1.6-4.1 0-5.2 2.4-4.8 2.8.4M137.3 520.7c-2 .8-1.7 10.9.3 11.7 2.7 1 4.3-1.2 4.2-5.7-.2-5.6-1.4-7.3-4.5-6m2.7 2.8c0 .8-.4 1.5-1 1.5-.5 0-1-.7-1-1.5s.5-1.5 1-1.5c.6 0 1 .7 1 1.5m-.5 6.5c-.5.8-1.1.8-1.7.2s-.7-1.6-.3-2.2c.5-.8 1.1-.8 1.7-.2s.7 1.6.3 2.2M145.6 522.3c-2.8 4.3-.7 11.4 3 10 3.3-1.2 2.3-7.3-1.2-7.3-.8 0-1.1-.6-.7-1.6.3-.8 1.2-1.3 2-1 .9.4 1.3.1 1.1-.6-.8-2.2-2.7-2-4.2.5m3.2 6.4c-.4 2.2-2.2 2-2.6-.1-.2-1 .3-1.6 1.3-1.6s1.5.7 1.3 1.7M155.2 521.2c-1.9 1.9-1.5 10.5.4 11.2 2.6 1 4.4-1.3 4.4-5.8 0-3.7-1.3-6.6-3-6.6-.3 0-1.1.5-1.8 1.2m2.8 5.9c0 2.8-.4 3.9-1.2 3.7-1.6-.6-2.2-3.2-1.4-6.4 1-3.7 2.6-1.9 2.6 2.7M757 526.9c0 2.8.5 5.1 1 5.1.6 0 1-2 1-4.4 0-2.5-.4-4.8-1-5.1-.6-.4-1 1.3-1 4.4M498 527c3.6 3.4 4 3.5 4 1.7 0-1.9-3.3-4.7-5.4-4.7-1.4 0-1.1.7 1.4 3M535 529.5c0 2.5.5 4.5 1 4.5.6 0 1-2 1-4.5s-.4-4.5-1-4.5c-.5 0-1 2-1 4.5M118 527c0 .5 1.1 1 2.5 1s2.5-.5 2.5-1c0-.6-1.1-1-2.5-1s-2.5.4-2.5 1M756.7 536.7c-1.1 1-.8 11.3.3 11.3.6 0 1-2.7 1-6 0-6.1-.1-6.5-1.3-5.3M501.7 537.7c-1.1 1-.8 14.3.3 14.3.6 0 1-3.2 1-7.5 0-7.5-.1-8.1-1.3-6.8M535.7 538.7c-1.1 1-.8 9.3.3 9.3.6 0 1-2.3 1-5 0-5.1-.1-5.5-1.3-4.3M82.7 541.7c-.4.3-.7 5.5-.7 11.4v10.8l4.3.6c2.3.3 21.8.5 43.2.3l39-.3.3-11.1c.3-11.1.3-11.1-3.5-11.8-5.1-.8-81.8-.8-82.6.1m76.6 2 6.7.6V564l-15.2-.5c-8.4-.2-26.7-.5-40.5-.5H85v-20.1l33.8.1c18.5 0 36.7.3 40.5.7"/><path d="M102.5 545.2c-1.4 4.2-.8 7.9 1.3 7.6 1.2-.2 1.8.5 2 2.6.3 2.6.1 2.8-2.2 2.2-2-.5-2.4-.3-1.9.9.9 2.6 4.6 1.3 5.8-1.9.8-2.5.6-3.1-1.8-5.2-3.2-2.8-3.5-4.4-.6-4.4 1.2 0 1.9-.5 1.7-1.3-.6-1.7-3.7-2.1-4.3-.5M123.1 546.3c-1.3 3.4-.3 6.7 2 6.7 1.4 0 1.9.7 1.9 2.5 0 1.6-.6 2.5-1.5 2.5-.8 0-1.5-.5-1.5-1.1 0-.5-.4-.8-1-.4-1.6 1 .1 3.5 2.5 3.5 4.2 0 4.6-8.2.5-9.5-2.6-.8-2.6-2.5 0-3.2 2.4-.6 2.1-2.6-.3-3.1-1.1-.2-2.1.6-2.6 2.1M92.8 552.5c-.3 6.8-.1 7.5 1.6 7.5 1.2 0 1.6-.5 1.2-1.6-.3-.9-.6-4.2-.6-7.5 0-8.6-1.8-7.3-2.2 1.6M134.7 545.6c-1.3 1.3-.7 2.6.8 2 1.8-.6 2.1 2.9.4 4-.8.5-.6 1 .5 1.6 2 1.1 2.1 4.8.2 4.8-.8 0-1.6-.6-1.9-1.3-.2-.6-.7-.9-1.1-.6-1.2 1.1.6 3.9 2.5 3.9 2.3 0 4.3-3.6 3.3-5.8-.5-.9-.8-3.3-.9-5.2 0-3.3-2-5.1-3.8-3.4M144.3 546.6c-.5 1.4-.7 7-.4 11.5.1 1.8 3.2 3.1 4.9 2 1.4-.8 1.2-13.4-.2-14.3-1.8-1.2-3.6-.9-4.3.8m3.7 2.9c0 1.4-.4 2.5-1 2.5-.5 0-1-1.1-1-2.5s.5-2.5 1-2.5c.6 0 1 1.1 1 2.5m.4 7.8c-.3.9-1 1.7-1.5 1.7-1.4 0-2.2-2.7-1.5-4.7.6-1.5.8-1.5 2.2-.2.8.9 1.2 2.3.8 3.2M112 553c0 .5 1.4 1 3 1 1.7 0 3-.5 3-1 0-.6-1.3-1-3-1-1.6 0-3 .4-3 1M474 547.9c0 .5.7 1.2 1.6 1.5 2.2.9 2.4.8 2.4-.9 0-.8-.9-1.5-2-1.5s-2 .4-2 .9M446.1 550.3c-1.7 1.7-1.3 2.6.8 2 1-.3 2.2 0 2.5.6 1.3 2 2.7 1.2 1.7-.8-1.3-2.4-3.6-3.2-5-1.8M535 557c0 2.7.5 5 1 5 .6 0 1-2.3 1-5 0-2.8-.4-5-1-5-.5 0-1 2.2-1 5M756 560.5c0 3.7.4 6.5 1 6.5s1-2.8 1-6.5-.4-6.5-1-6.5-1 2.8-1 6.5M578 566.6c0 .3.9 1.7 2 3.1s2 3.2 2 3.9c0 .8.5 1.4 1 1.4 1.3 0 1.3-1.6-.2-4.3-1.8-3.4-4.8-6-4.8-4.1M535 572c0 2.7.5 5 1 5 .6 0 1-2.3 1-5 0-2.8-.4-5-1-5-.5 0-1 2.2-1 5M756 577.5c0 3.7.4 6.5 1 6.5s1-2.8 1-6.5-.4-6.5-1-6.5-1 2.8-1 6.5M651.4 575.5c-1 .8-1.4 1.5-.8 1.5.5 0 1.9-.7 3-1.5 1-.8 1.4-1.5.8-1.5-.5 0-1.9.7-3 1.5M654 578c0 .5.5 1 1 1 .6 0 1-.5 1-1 0-.6-.4-1-1-1-.5 0-1 .4-1 1M581.2 586.2c-1.2 6.8-.5 19.8 1 19.8.5 0 .8-3.6.6-8.3-.1-4.5.1-10.3.6-13 .5-2.9.5-4.7-.1-4.7-.5 0-1.5 2.8-2.1 6.2M535 586.6c0 3.4.4 5.3 1 4.9.6-.3 1-2.8 1-5.6 0-2.7-.4-4.9-1-4.9-.5 0-1 2.5-1 5.6M166.1 586.6c-17.3 7.5-8.4 33.1 10.5 30.1 8.1-1.3 14.2-9.9 12.9-18.3-.5-3.5-.3-4.4.8-4.4.8 0 2.1-.8 2.8-1.7 1.2-1.5 1.2-1.6-.4-1-5.2 1.9-6.3 1.8-7.6-.7-2.8-5.1-12-7.1-19-4m13.4 1.8c6.9 2.9 10 11.9 6.6 19-6.5 13.3-27.1 8.4-27.1-6.5 0-10.7 10.1-16.8 20.5-12.5"/><path d="M164.6 596.2c5.2 5.9 7 12.8 4.2 15.6-.9.9 0 1.2 4 1.2 5.2 0 5.2 0 3.2-2-1.1-1.1-2-2.5-2-3 0-2.1 2.8-7.6 5.4-10.8l2.8-3.2h-3.7c-3.1 0-3.5.2-2.6 1.4.9 1 .9 2 0 4-1.5 3.3-2.2 3.3-4.4 0-1.3-2-1.4-2.8-.4-4s.4-1.4-3.7-1.4c-4.7 0-4.7 0-2.8 2.2M587.6 586.8c-.3.5.1 1.8.9 2.8s1.5 4.1 1.5 6.7c0 3 .4 4.6 1 4.2 1.7-1 1.1-8.3-.9-11.6-1-1.7-2.1-2.6-2.5-2.1M198.3 588.2c-2 1-3.2 2.8-1.8 2.8 1.2 0 5.5-2.4 5.5-3.2 0-1-.9-.9-3.7.4M287.4 588.3c-.2.7-.3 6-.2 11.8l.3 10.4 44.3.3 44.3.2-.3-11.7-.3-11.8-43.8-.3c-35.6-.2-43.8 0-44.3 1.1m85.8 5c.3 2.3.3 6.8 0 10l-.4 5.7H290v-20h82.7z"/><path d="M309.2 591.2c-1.7 1.7-1.5 3.1.3 2.5 2-.8 2.9 1.1 1.4 2.9-.9 1.1-.9 1.8-.1 2.6 1.4 1.4 1.6 4.8.4 4.8-.4 0-1.3-.5-2-1.2-2-2-2.4-.2-.4 2.2 1.7 2.1 1.9 2.1 3.5.5 1.3-1.3 1.6-2.9 1.3-7.2-.6-6.2-2.4-9.1-4.4-7.1M341.8 591.4c-1.2.9-1.6 2.8-1.7 7.8 0 6.8 1 8.5 4.4 7.2 1.7-.7 1.9-1.7 1.5-8.9-.2-5.9-1.7-8-4.2-6.1m2.2 3.1c0 1.4-.4 2.5-1 2.5-.5 0-1-1.1-1-2.5s.5-2.5 1-2.5c.6 0 1 1.1 1 2.5m.8 7.3c.2 1.5-.2 2.2-1.2 2.2-1.1 0-1.6-.9-1.6-2.6 0-3.1 2.3-2.8 2.8.4M298.9 591.5c0 .3-.1 3.8-.1 7.7-.1 4.9.3 7.3 1 7.3s1.2-.3 1.2-.8V598c0-4-.4-7-1-7-.5 0-1 .2-1.1.5M330 593.5c-1.1 3-1.3 6.9-.4 10.2.9 3.4 5.2 3.1 6-.3.8-3.2-1-7.4-3.2-7.4-.8 0-1.4-.6-1.1-1.3.2-.6 1.2-1.1 2.2-.9 1.1.2 1.5-.2 1.3-1-.9-2.5-3.8-2.1-4.8.7m4 8.1c0 2.6-1.7 3.3-2.6.9-.8-2 .3-4.8 1.6-4 .5.3 1 1.7 1 3.1M352.9 591.5c0 .3 0 3.8-.1 7.7 0 5.5.3 7.3 1.3 7.3.8 0 1.4-.6 1.3-1.3-.1-.6-.2-4.1-.2-7.7-.1-3.6-.6-6.5-1.2-6.5-.5 0-1 .2-1.1.5M363.7 591.7c-1.3 2.1-3.6 13.6-3 14.6.5.7 1 0 1.3-1.8.6-3.4 3.3-4.1 3.8-1 .5 2.8 2.2 4.4 2.2 1.9-.1-2.3-2.7-13.4-3.3-14.1-.3-.2-.7-.1-1 .4m1.3 6.3c0 .5-.5 1-1.1 1-.5 0-.7-.5-.4-1 .3-.6.8-1 1.1-1 .2 0 .4.4.4 1M318 599c0 .5 1.6 1 3.5 1s3.5-.5 3.5-1c0-.6-1.6-1-3.5-1s-3.5.4-3.5 1M756 592.5c0 3 .5 5.5 1 5.5.6 0 1-2.5 1-5.5s-.4-5.5-1-5.5c-.5 0-1 2.5-1 5.5M48 604v12h87.1l-.3-11.8-.3-11.7-43.2-.3L48 592zm84 0v10l-40.7-.2-40.8-.3-.3-9.8-.3-9.7H132z"/><path d="M59 596c-.5 4.4-.3 15 .3 15 .4 0 1 .1 1.4.2 1 .4.3-13.6-.8-14.7-.5-.5-.9-.7-.9-.5M68.1 598.2c0 1.3.3 1.7.6 1 .2-.6.9-1.2 1.4-1.2 1.4 0 1.1 3.8-.3 4.4-.9.3-.8.8.5 1.6.9.6 1.7 1.7 1.7 2.5 0 2-2.1 3-3.1 1.4-1.1-1.8-2.1-.6-1.3 1.5.9 2.3 4.1 2 5.5-.5.8-1.6.8-2.7-.1-4.5-.7-1.2-1-3-.7-3.8.9-2.4-.3-4.6-2.4-4.6-1.3 0-1.9.7-1.8 2.2M89.2 597.2c-1.7 1.7-1.6 11.3.3 12.8 2.5 2 4.5.4 4.5-3.6 0-2.7-.5-3.7-2-4.1-1.1-.3-2-1.4-2-2.5 0-1.5.5-1.8 2.1-1.3 1.5.5 2 .3 1.7-.6-.6-1.9-3.1-2.2-4.6-.7m2.8 9.3c0 1.4-.4 2.5-1 2.5-.5 0-1-1.1-1-2.5s.5-2.5 1-2.5c.6 0 1 1.1 1 2.5M101 596c-.1.3-.2 4-.3 8.3-.2 6.2.1 7.7 1.2 7.5s1.4-1.9 1.2-7.3c-.1-3.9-.7-7.4-1.2-8-.5-.5-.9-.7-.9-.5M111.5 602.4c.3 3.9.1 6.7-.5 7.1-1.3.8-.3 2.5 1.5 2.5 1 0 1.3-1.1 1-3.8-.1-2-.3-5.6-.4-8-.1-2.3-.5-4.2-1.1-4.2s-.8 2.6-.5 6.4M78 604c0 .5 1.1 1 2.4 1 1.4 0 2.8-.5 3.1-1 .4-.6-.7-1-2.4-1s-3.1.4-3.1 1M535 599.6c0 3.4.4 5.3 1 4.9.6-.3 1-2.8 1-5.6 0-2.7-.4-4.9-1-4.9-.5 0-1 2.5-1 5.6M756 607.6c0 3.4.4 5.3 1 4.9.6-.3 1-2.8 1-5.6 0-2.7-.4-4.9-1-4.9-.5 0-1 2.5-1 5.6M535 615c0 3.3.4 6 1 6s1-2.7 1-6-.4-6-1-6-1 2.7-1 6M201.8 628.5c-.2 6.4 0 11.9.4 12.1.3.2 19.6.7 42.8 1 35.5.6 42.3.5 43.1-.7.7-1.2 1.4-22.8.7-22.9-.2-.1-19.7-.4-43.5-.7l-43.2-.6zm83.7 1v10l-26-.2c-14.3-.1-32.6-.2-40.7-.3H204v-9.3c0-5.2.3-9.7.7-10.1s18.7-.6 40.8-.4l40 .3z"/><path d="M212.2 629c-.1 6.1.2 8 1.2 8s1.3-1.8 1.1-7.7c-.3-10.5-2.2-10.7-2.3-.3M221.7 621.7c-1.3 1.2-.7 2.3 1.3 2.3 2.4 0 2.6 1.3.4 3.4-1.4 1.5-1.4 1.7 0 2.2.9.3 1.6 1.5 1.6 2.5 0 2.2-1.1 2.4-2.8.7-.9-.9-1.2-.8-1.2.4 0 .8.7 2.2 1.6 2.9 2.6 2.1 4.4-1.2 3.9-7.5-.2-2.8-.4-5.7-.5-6.4 0-1.3-3.2-1.7-4.3-.5M243.5 626.1c-2.6 5.3-2.3 6.8 1.3 6.9.9 0 1.1.7.7 2-.4 1.4-.2 2 .8 2 1.3 0 1.4-1.4 1-7.8-.3-4.2-.6-7.8-.8-8s-1.5 2-3 4.9m2.5 2.8c0 .6-.4 1.3-1 1.6-.5.3-1-.1-1-.9 0-.9.5-1.6 1-1.6.6 0 1 .4 1 .9M263 623.7c0 2.1.3 2.4 1 1.3 1.6-2.5 2.3-.3 1.4 4.7-1.1 6.3-1.1 6.3.1 6.5.5.2 1.3-1.7 1.7-4.2s1-6 1.3-7.8c.6-3 .4-3.2-2.5-3.2-2.6 0-3 .3-3 2.7M274.5 622.7c-3.1 3-3.1 8.7-.1 12.8 1.2 1.6 1.8 1.8 3.3.9 1-.6 1.9-2 2.1-3 .3-1.8.2-1.8-1.3.1-1.6 2-1.6 2-3.1.1-1.7-2.3-1.8-6-.3-8.7 1-2 1.1-2 3-.3 1.8 1.6 1.9 1.6 1.9-.3 0-2.6-3.5-3.6-5.5-1.6M254.1 626.4c-2.3 4.5-2.2 6.6.5 6.6.8 0 1.4.9 1.4 2 0 2.7 1.7 2.5 2.2-.3.5-3.1-.2-12.7-1-12.7-.4 0-1.8 2-3.1 4.4m1.5 4.3c-1 1-1.9-.5-1-1.8.6-1.1.8-1.1 1.2 0 .2.7.1 1.5-.2 1.8M231 629c0 .5 1.6 1 3.6 1 2.1 0 3.3-.4 2.9-1-.3-.6-1.9-1-3.6-1-1.6 0-2.9.4-2.9 1M90 630.6v11.6l8.3 8.6c4.5 4.8 9.1 9.5 10.1 10.4 1.5 1.4 1.7 2.1.8 3-.7.7-1.2 4-1.2 7.5s-.4 6.3-1 6.3c-.5 0-1 .8-1 1.7 0 1.2 2.5 3 7.8 5.6 4.2 2 8.3 3.7 9 3.7 2 0 1.5 8-.5 9.6-1.6 1.1-1.5 1.3 1.1 2.5 2.5 1.2 3.4 1 8.5-1.6l5.6-3 .3-9.7c.1-5.5.8-10.8 1.6-12.3 1.9-3.5.9-7.7-1.5-7-1.5.5-1.9.1-1.9-1.9 0-1.4.5-2.8 1.1-3.2.7-.4 0-1.3-1.6-2.4-2.7-1.8-2.9-1.8-6.2.3-1.8 1.2-3.6 3.3-3.9 4.7-1 4.6-1.3 5-3.8 5-2.7 0-4-1.2-19.8-17.9L92 641.9v-11.5c0-6.9-.4-11.4-1-11.4s-1 4.5-1 11.6m44.2 34.6c.2 3.6.7 4.4 2.6 4.6 2.5.4 2.7 1.7.7 5.2q-1.35 2.55-1.5 11.7c0 5.1-.2 9.3-.4 9.3s-1.2.3-2.2.7c-1.4.5-1.6.2-1.2-1.5.7-2.5-1.2-4.5-3-3.3-1.3.8-1.8 3.5-1.1 6 .2.7-.2 1.6-.8 1.8-1.7.6-1.8-16.9-.1-19.6 1.8-2.9-.5-7.5-3.2-6.6s-2.5-.3.5-2.7c1.4-1.1 2.5-3 2.5-4.3 0-1.2.7-2.9 1.7-3.6 1.5-1.3 1.5-1.2.5.8-1.7 3.1-1.5 4.3.7 4.3 2.4 0 3.7-3.6 2.1-5.5-1-1.2-.9-1.5.3-1.5 1.1 0 1.7 1.2 1.9 4.2m-2.7-.2c.3.5.1 1-.4 1-.6 0-1.1-.5-1.1-1 0-.6.2-1 .4-1 .3 0 .8.4 1.1 1m-13.4 7.7c1.1 2 2.5 2.9 4.7 3.1 3.1.3 4.3 2.4 2.2 3.7-.5.3-1 1.5-1 2.6 0 2.5-2.2 2.4-7.4-.3-6.9-3.7-7.6-4.7-7.6-9.8 0-2.6.3-5 .7-5.3 1-1.1 6.7 2.9 8.4 6m2.6 1c-.4.3-.7 0-.7-.7s.3-1 .7-.7c.3.4.3 1 0 1.4M112 681c0 .5-.4 1-.9 1-.6 0-1.3-.5-1.6-1-.3-.6.1-1 .9-1 .9 0 1.6.4 1.6 1m3.4 1.7c.4.5 2.6 1.6 4.9 2.5s3.5 1.7 2.7 1.7c-1.8.1-10-3.5-10-4.4 0-.8 1.5-.6 2.4.2m15.6 11.7c0 .3-.4.8-1 1.1-.5.3-1 .1-1-.4 0-.6.5-1.1 1-1.1.6 0 1 .2 1 .4"/><path d="M111.5 670.9c-.7 2.3.2 4.8 2.2 5.5 3.5 1.4 4.6-2.9 1.5-5.7-2.4-2.2-2.9-2.1-3.7.2m3.5 2.7c0 1.4-.3 1.4-1.5.4-.8-.7-1.5-1.4-1.5-1.6s.7-.4 1.5-.4 1.5.7 1.5 1.6M752 619.7c-2 .5-4.3 4.1-3.4 5.4.4.6 1.3.4 2.5-.7 1-.9 2.5-1.4 3.4-1.1 2.1.9 1.9 2.4-.5 3-1.1.3-2 1-2 1.7s.9 1.4 2 1.7 2 1.2 2 1.9c0 2.3-3 2.8-4.4.9-1.2-1.7-3.6-1.4-3.6.5 0 1.8 5 4.2 7.3 3.6 2.8-.7 4.9-4.6 3.6-6.7-.5-.8-.6-2.8-.3-4.5.7-3.8-2.5-6.6-6.6-5.7M764.4 620c-2.5 1-3.9 3.9-2.4 5.4.7.7 1.4.4 2.4-.9.8-1.1 1.9-1.6 3-1.2 2.4.9 2 2-2.4 6.5-2.2 2.2-4 4.5-4 5.1 0 .7 2.2 1.1 5.5 1.1 4.2 0 5.5-.3 5.5-1.5 0-1-1-1.5-3.2-1.5h-3.2l3.2-2.6c3.9-3.3 4.3-7.5 1-9.8-2.5-1.8-2.5-1.8-5.4-.6M776.3 619.7c-.6.5-1.3 2.6-1.4 4.8-.4 4-.4 4 3.4 3.7 3.4-.3 3.7-.1 3.7 2.3 0 2.7-1.8 3.2-5 1.5-1.3-.7-2.1-.7-2.5 0-1.2 1.9 1.6 4 5.1 4 7.1 0 8.4-9.3 1.4-10.6-4-.8-3.8-2.2.3-2.6 4.5-.4 4.3-3.2-.3-3.6-1.9-.1-4 .1-4.7.5M578.6 620.9c-.4.6.2 1.9 1.4 3.1 1.9 1.9 2 1.9 2 .1 0-2.3-2.5-4.6-3.4-3.2M740 620.9c0 .5-.9 1.3-2 1.6-2.5.8-2.6 2.1-.1 2.8 1.6.4 2 1.5 2.3 5.8.2 4 .7 5.4 1.8 5.4 1.2 0 1.5-1.6 1.5-8 0-6.8-.3-8-1.7-8.3-1-.2-1.8.1-1.8.7M708 622.5c-3 1.7-6.2 1.9-7.7.4-.8-.8-1.5-.4-2.7 1.2-1.8 2.7-2.1 6.8-.6 10.1 1 2.1 1.8 2.3 10.4 2.5 10.1.3 10.6 0 12.3-5.2.8-2.5 1.6-3.1 4.9-3.5 5.6-.7 5.1-3.1-1.1-5.2-6.1-2.1-12.2-2.2-15.5-.3m15.5 2 4 1.3-4.2.1c-4.2.1-4.3.2-4.9 4.1-1 6-4.8 7.4-12.9 4.6-3.5-1.3-4-1.8-4-4.6 0-2.9.5-3.4 4.5-5.1 5.3-2.1 11.9-2.3 17.5-.4M535 629c0 2.7.5 5 1 5 .6 0 1-2.3 1-5 0-2.8-.4-5-1-5-.5 0-1 2.2-1 5M173.3 628.9c-1.8.3-4.1 1.8-5.4 3.6-4.6 5.9-10.3 11.5-11.7 11.5-.8 0-3.2.5-5.4 1.2-2.9.8-4 1.8-4.5 3.7-.3 1.4-1.1 3.3-1.7 4.1-3 4-4.7 8.5-2.4 6.2.7-.7 4.1-1.2 8.3-1.2 8.5 0 11.5-1.6 11.5-6.2 0-1.7-.7-3.9-1.5-4.8-1.4-1.5-1-2.2 3.6-7.6 2.8-3.2 5.7-6.6 6.5-7.4 1.2-1.2 3.9-1.4 13.9-1.2 8.4.2 12.5 0 12.5-.7s-3.2-1.1-8.9-1.1c-4.9 0-9.5-.2-10.3-.4-.7-.2-2.7-.1-4.5.3m-13.5 20.4c.5 2.4-1.5 2.1-2.1-.4-.3-1.3-.1-1.9.6-1.6.7.2 1.3 1.1 1.5 2m-10.4.2c.3.8.1 1.5-.4 1.5-.6 0-1-.7-1-1.5s.2-1.5.4-1.5.6.7 1 1.5m6.6-.5c0 .5-1.1 1-2.5 1s-2.5-.5-2.5-1c0-.6 1.1-1 2.5-1s2.5.4 2.5 1m-7 5.6c0 .8-.7 1.4-1.5 1.4-1.5 0-2.1-2.1-.9-3.3 1-.9 2.4.2 2.4 1.9m11-1.8c0 .4-.5 1.3-1.2 2-1.4 1.4-7.8 1.6-7.8.2 0-.6 1.3-1 2.9-1 1.7 0 3.3-.5 3.6-1 .7-1.2 2.5-1.3 2.5-.2M535 643c0 3.2.4 4.9 1 4.5.6-.3 1-2.4 1-4.5s-.4-4.2-1-4.5c-.6-.4-1 1.3-1 4.5M297.5 647.2c-.3 1.3-.5 6.8-.3 12.3l.3 10h86l.3-11.6c.2-11 .2-11.7-1.8-12.2-1.1-.3-20.5-.6-43-.6-40.9-.2-40.9-.2-41.5 2.1m79.2.5c2.3.3 4.3 1 4.5 1.6.3.7.2 5.1 0 10l-.4 8.7-40.4-.2-40.4-.3v-9.6c0-5.3.3-9.9.7-10.3.8-.7 68.9-.6 76 .1"/><path d="M308 657c0 6.7.3 8 1.6 8 1.1 0 1.4-.5 1-1.6-.3-.9-.6-4.5-.6-8 0-3.6-.4-6.4-1-6.4s-1 3.3-1 8M317.7 649.6c-1.3 1.3-.7 2.6.8 2 1.8-.7 2.1 2.4.3 4.2-.9.9-.7 1.3.5 1.8.9.3 1.7 1.5 1.7 2.5 0 2.1-1.1 2.4-2.7.8-.7-.7-1.3-.7-1.7-.1-.7 1.1 1.9 4.2 3.4 4.2 3.3 0 3.2-15.1-.1-15.8-.8-.1-1.8 0-2.2.4M339.2 650.2c-1 1.2-1.6 6.9-1.3 11.4 0 1.2.8 2.5 1.7 2.8 4.5 1.7 6.2-6.2 1.9-9-2.5-1.6-2.5-4 0-3 1.9.7 2.7-.5 1.4-2.1-1.4-1.6-2.4-1.7-3.7-.1m2.8 9.2c0 1.4-.4 2.7-.9 3.1-1.2.7-2.5-3.1-1.6-4.5 1.1-1.8 2.5-1 2.5 1.4M349.2 650.2c-2.1 2.1-1.4 6.6 1.3 8.4 2.4 1.6 2.5 3.7.1 3.2-1.8-.4-2 1.6-.2 2.7 2.3 1.4 3.7-.6 4.3-5.7.8-7.3-2.2-11.9-5.5-8.6m3.3 3.8c0 1.3-.6 2.5-1.2 2.7-.9.3-1.3-.6-1.3-2.7s.4-3 1.3-2.8c.6.3 1.2 1.5 1.2 2.8M360.9 649c0 .3-.1 4-.2 8.3-.2 6.3.1 7.7 1.3 7.7s1.4-1.3 1.2-7.2c-.2-4-.8-7.7-1.3-8.3-.5-.5-.9-.7-1-.5M369.3 657c-.2 7.7-.1 8 2.1 8 3.5 0 4.4-1.9 4.1-8.1-.3-6.7-.9-7.9-3.8-7.9-2.1 0-2.2.5-2.4 8m4.4-2.6c-.4.9-1.1 1.6-1.7 1.6-1.1 0-1.4-3.3-.3-4.3 1.1-1.1 2.6 1 2 2.7m.1 5.8c-.5 3.2-2.8 3.5-2.8.4 0-1.7.5-2.6 1.6-2.6 1 0 1.4.7 1.2 2.2M326.5 657c-.4.6 1 1 3.4 1 2.3 0 4.1-.5 4.1-1 0-.6-1.5-1-3.4-1s-3.8.4-4.1 1M534.9 652.5c-.1.3-.1 1.6-.1 3 0 4.8.2 5.6 1.2 5 .6-.3 1-2.4 1-4.6 0-2.1-.4-3.9-1-3.9-.5 0-1 .2-1.1.5M164 655.8c0 .7 6.3 4.2 7.5 4.2 1.7 0-.1-1.9-3-3.3-4.1-1.9-4.5-2-4.5-.9M281.3 657.7c-1 .4-1.3 15-1.3 68.4V794l-5.2 2.8c-6.9 3.7-12.2 8.5-14.3 13-1 2-2.8 5.9-4.1 8.6-1.3 2.8-2.4 5.5-2.4 6.2 0 .6-.7 1.7-1.5 2.4-1.2 1-2.2.8-5-.9-4.1-2.4-4.5-2.5-4.5-1.1 0 .5 1.2 1.6 2.8 2.4 5.7 3.2 5.7 2.6.7 12.9-4.5 9.3-8.9 14.7-12.2 14.7-.8 0-2.7-1.3-4.1-2.9-1.5-1.5-5.1-5.4-8-8.5s-6.1-5.6-7.1-5.6c-2.1 0-5.1 3-5.1 5.2 0 1.7 13.2 17.2 17.5 20.7 5.6 4.3 14.3 1.7 20.8-6.2 2-2.5 3.7-4.8 3.7-5.1 0-.4 1.8-4.5 4-9.2s4-8.8 4-9c0-.5 6.3-14.2 9.2-20.1 1.9-3.7 3.5-4.9 18.7-13.1 12.1-6.6 18.5-9.4 23.6-10.5 19.7-4.3 30.9-7.3 31.3-8.5.2-.8-.6-1.1-2.7-.9-1.7.2-3.4.7-3.8 1-1.1 1.2-2.1.8-2.6-1.1-.4-1.5-.6-1.4-1.2.4-.4 1.3-1.8 2.4-3.3 2.7s-4.7 1.1-7.2 1.7c-8.4 2.2-14.4 2.8-15.7 1.8-1-.8-1.3-.6-1.3.5 0 1.8-3.6 4.1-5 3.2-.5-.3-1.8.3-3 1.5-2.4 2.4-4.2 2.6-3.4.5.4-.8.1-1.5-.5-1.5s-1.1-.7-1.1-1.5c0-1.4 1.1-1.9 3.8-1.6.6.1 1.2-.3 1.2-.8 0-1.5 5.9-4.3 7.6-3.7.8.3 1.4.1 1.4-.4 0-1.4 2.7-1.2 3.3.2q.6 1.2.6-.3c.1-1.8 2.7-3.3 4.2-2.3.5.3 1.5.2 2.2-.3 1.5-1 11.3-3.1 14.7-3.2 1.4-.1 3.7-.8 5.2-1.5 2.6-1.4 2.9-1.3 4.8 1.1 3.4 4.3 3.4 1.8 0-3.1-3.3-4.9-4.5-5.8-3.7-2.6.6 2.2-1.1 2.8-13.8 5-12.1 2.1-21.2 5-29.2 9.2-4.3 2.2-8.2 4.5-8.7 4.9-3.6 3.2-3.6 2.5-3.6-65.1 0-72.3-.5-66.6 5.4-66 2.7.3 6.6-.9 6.6-2 0-1-10.4-1.3-12.7-.3M292 794.9c0 1.9-10.2 7.7-11.8 6.7-.5-.3-1.2.4-1.5 1.5-.4 1.6-1.1 1.9-2.6 1.4-1.2-.3-2.1-.3-2.1.2 0 .4-1.8 2.6-4 4.8-2.1 2.2-3.9 4.7-4 5.6 0 .8-1.1 3.7-2.4 6.5-1.3 2.7-3.8 8.4-5.6 12.7-1.7 4.2-3.9 8.3-4.8 9-1 .6-1.7 2.3-1.7 3.7 0 1.5-.5 2.4-1.3 2.2-.7-.1-1.2.3-1.1 1 .3 2-1.1 4.7-4.5 8.3-6.2 6.6-11.7 7.3-17.2 2.3-1.9-1.8-3.2-3.8-2.9-4.5.3-.8 0-1.1-.6-.7-1.4.9-6.9-4.5-6.9-6.8 0-1.1-.4-1.6-1-1.3-.5.3-1 .2-1-.3s1.2-1.5 2.6-2.3c2.3-1.2 2.7-1.1 4 .5.7 1.1 1.1 2.3.8 2.7-.3.5.2.9 1 .9 1.6 0 4.2 3.8 3.8 5.4-.2.5.4.6 1.2.3s1.7.1 2 .9 1.2 1.4 2.1 1.4c.8 0 1.5.4 1.5 1 0 .5.5 1 1 1 .6 0 1-.7 1-1.6 0-1.1.6-1.4 2.1-.9 1.3.4 1.9.3 1.6-.2-.4-.6.5-2.1 1.8-3.3 2.1-2 2.5-2.1 2.5-.6 0 .9.4 1.5.9 1.1.6-.3.9-2.3.9-4.4 0-4.7.7-6.2 2.7-5.4.8.3 1.5 0 1.5-.6s-.4-1.1-1-1.1c-.5 0-1-.5-1-1 0-.6.7-1 1.6-1 1 0 1.4-.5 1-1.5-.8-2.3 3.2-10.3 5.1-10.1.9 0 1.8-.5 2-1.2.3-.7-.1-1-1.1-.6-1.9.7-2 0-.6-2.7.6-1 1.8-1.9 2.7-1.9 1.2 0 1.3-.3.4-1.4-1.5-1.7 1.5-8.6 3.7-8.6.8 0 1.2-.6.8-1.5-.3-.9 0-1.5.9-1.5s1.2-.6.8-1.6.1-1.7 1.6-2.1c1.1-.3 2.1-1 2.1-1.7 0-1.5 3.8-3.8 5-3.1.6.4 1.3-.1 1.6-.9.3-.9 1.5-1.6 2.5-1.6s1.9-.5 1.9-1.2c0-.6.3-.9.6-.6.3.4 1.4-.2 2.5-1.3 1-1 2.5-1.6 3.2-1.3.8.3 1.7-.2 2.1-1.2.5-1.3.9-1.4 2.1-.4.8.7 1.5 2 1.5 2.9m-75.3 48.3c-.3.7-.5.2-.5-1.2s.2-1.9.5-1.3c.2.7.2 1.9 0 2.5m-3.4-.7c-.3.9-.8 1.4-1 1.1-.3-.3-.2-.9.2-1.5.9-1.6 1.5-1.3.8.4"/><path d="M284 798c0 .5.5 1 1 1 .6 0 1-.5 1-1 0-.6-.4-1-1-1-.5 0-1 .4-1 1M270.5 803c-.3.5-.1 1 .4 1 .6 0 1.1-.5 1.1-1 0-.6-.2-1-.4-1-.3 0-.8.4-1.1 1M267 809c0 .7.3 1 .7.7.3-.4.3-1 0-1.4-.4-.3-.7 0-.7.7M262 815c0 .7.3 1 .7.7.3-.4.3-1 0-1.4-.4-.3-.7 0-.7.7M262 819c0 .7.3 1 .7.7.3-.4.3-1 0-1.4-.4-.3-.7 0-.7.7M259.3 824.7c.4.3 1 .3 1.4 0 .3-.4 0-.7-.7-.7s-1 .3-.7.7M254 831c0 .5.7 1 1.6 1 .8 0 1.2-.5.9-1-.3-.6-1-1-1.6-1-.5 0-.9.4-.9 1M253 835.5c0 .3.2.5.5.5s.5-.2.5-.5-.2-.5-.5-.5-.5.2-.5.5M253 839c0 .7.3 1 .7.7.3-.4.3-1 0-1.4-.4-.3-.7 0-.7.7M252.3 841.7c.4.3 1 .3 1.4 0 .3-.4 0-.7-.7-.7s-1 .3-.7.7M219 846.5c0 .3.2.5.5.5s.5-.2.5-.5-.2-.5-.5-.5-.5.2-.5.5M247.5 847c-.3.5-.1 1 .4 1 .6 0 1.1-.5 1.1-1 0-.6-.2-1-.4-1-.3 0-.8.4-1.1 1M218 849.5c0 .3.2.5.5.5s.5-.2.5-.5-.2-.5-.5-.5-.5.2-.5.5M222 852c0 .5.5 1 1 1 .6 0 1-.5 1-1 0-.6-.4-1-1-1-.5 0-1 .4-1 1M242 855c0 .7.3 1 .7.7.3-.4.3-1 0-1.4-.4-.3-.7 0-.7.7M226.5 858c-.3.5-.1 1 .4 1 .6 0 1.1-.5 1.1-1 0-.6-.2-1-.4-1-.3 0-.8.4-1.1 1M238 860c0 .7.3 1 .7.7.3-.4.3-1 0-1.4-.4-.3-.7 0-.7.7M240.3 859.7c.4.3 1 .3 1.4 0 .3-.4 0-.7-.7-.7s-1 .3-.7.7M229.3 860.7c.4.3 1 .3 1.4 0 .3-.4 0-.7-.7-.7s-1 .3-.7.7M234.3 861.7c.4.3 1 .3 1.4 0 .3-.4 0-.7-.7-.7s-1 .3-.7.7M176 661.9c0 .8 7.2 5.1 8.5 5.1 1.8 0-.2-2.1-3.5-3.9-4.6-2.4-5-2.5-5-1.2M534.8 665.3c-.2.6-.1 3.9.3 7.2.3 3.3.7 4.9.8 3.5s.5-4.4.7-6.7c.4-3.8-.9-6.9-1.8-4M188 668.2c0 .8 1.6 2.2 3.6 3.1 4.4 2.1 4.1.4-.4-2.4-2.5-1.6-3.2-1.8-3.2-.7M199.4 675.4c1.7 1.4 3.4 2.2 3.9 1.9 1.2-.7-1.3-2.9-4.3-3.7-2.5-.7-2.4-.6.4 1.8M334.3 678.4c-7.1 3.2-10.9 9.7-10 17.1.4 3.8.1 4.8-1.6 6-2.7 1.9-1.6 3.1 1.2 1.3 1.8-1.1 2.4-.9 5.3 1.9 13.2 12.6 33.9-2 26.2-18.4-3.6-7.4-13.8-11.2-21.1-7.9M349 682c4.4 3.1 6.3 7.4 5.7 12.8-.6 5.8-3.3 9.3-9 11.6-3.9 1.6-5.2 1.8-8.4.8-7-2.1-11.3-7.3-11.3-13.7 0-6.2 4.5-12.2 10.5-13.8 3.6-1 9.3.1 12.5 2.3"/><path d="M333.7 686.7c-.3 1.6-.1 3.2.4 3.7.6.6.9.6.9-.1 0-2 3-4.3 5.6-4.3 2.5 0 2.5 0-.3 4.7-1.5 2.7-3.8 6.4-5.1 8.3-2.4 3.5-2.4 3.5 2.2 4.3 6.5 1.1 10.8-.2 11.7-3.6s-.6-4.5-2.2-1.5c-1.5 2.9-2.8 3.8-5.8 3.8-2.9 0-2.6-.8 3.4-9.8 2.5-3.8 4.5-7.2 4.5-7.6 0-.3-3.3-.6-7.4-.6-7.2 0-7.4 0-7.9 2.7M206 678.8c0 .8 4.3 3.2 5.5 3.2 1.5 0 .1-1.9-2-2.8-3.1-1.4-3.5-1.5-3.5-.4M534.9 683.4c-.1 2-.1 4.7-.2 6.1s.3 2.4.8 2.2c1.3-.3 1.7-10.5.5-11.2-.6-.4-1 1-1.1 2.9M214 682.6c0 .3 1.1 2 2.5 3.7 1.3 1.8 2.8 4.4 3.4 5.7.7 2.1 1 2.2 1.6.8.7-1.8-2.8-7.9-5.7-9.7-1-.6-1.8-.9-1.8-.5M220 699.4c0 2.5.5 4.6 1 4.6.6 0 1-1.8 1-3.9 0-2.2-.4-4.3-1-4.6-.6-.4-1 1.2-1 3.9M534.6 698.7c-.4 1.6-.3 4 .2 5.4.9 2.2 1 2.1 1.7-1.9.8-5.1-.9-8.2-1.9-3.5M316 704.9c0 .5-1.3 1.4-3 2.1-1.6.7-3 1.6-3 2.1 0 1.4 1.2 1.1 4.8-1.1 3.1-1.9 4.3-4 2.2-4-.5 0-1 .4-1 .9M220 712c0 2.7.5 5 1 5 .6 0 1-2.3 1-5 0-2.8-.4-5-1-5-.5 0-1 2.2-1 5M535.2 714c0 6.5 0 6.5 1.1 2.2.7-2.9.7-4.9-.1-6.5-.9-1.8-1.1-1-1 4.3M305.7 712.3c-1.6 1.2-2 2.6-1.8 6.4.2 3.6 2.1 2.7 2.1-1 0-1.8.5-3.8 1.2-4.5 1.7-1.7.5-2.4-1.5-.9M446.2 721.1c-1.9.7-2.2 1.6-2.2 5.9 0 4.8-.1 5-2.7 5-3 0-2.6-.4-15.3 18.4-4.9 7.2-7.4 10-10.2 11.3-6.4 2.8-7.6 8.4-2.6 11.3 3.4 1.8 5.5.8 7.7-3.8 2.5-5 3.3-3.7 1 1.5-2.6 6-3.7 7.3-6.3 7.3-3.3.1-5.6 2.4-6.3 6.3-.4 2.9-.2 3.7 1.7 4.7 1.2.6 3.1.9 4.3.6 1.4-.3 2.6.3 3.9 2 1.1 1.3 2.6 2.4 3.4 2.4.9 0 3.5 1.1 5.9 2.5 4.7 2.8 9.9 3.4 13.3 1.6 1.8-1 2.9-.8 6.9 1.4 2.5 1.5 5.5 3.7 6.5 5.1 1.1 1.3 3.3 3.1 4.8 3.9 1.6.8 3.7 3.2 4.7 5.3 1.9 4.2 2.8 5 6.3 5.8 2.1.5 11.6 4.6 17.2 7.5 1 .5 2.5.9 3.3.9 1.3 0 1.5 2.3 1.5 15.2.1 14.8.8 29.9 1.6 30.7.2.2 13.5.6 29.5.9 24.6.4 29.1.3 28.7-.9-.4-1.1-5.6-1.5-28.3-1.7-15.4-.1-28-.4-28.1-.5s-.5-10.2-.9-22.4c-.7-22.2-.7-22.2 1.6-23.3 1.3-.7 3.6-2.8 5.2-4.7 2.4-3.3 2.7-4.4 2.7-11.9 0-7.8-.2-8.5-2.5-10-1.9-1.2-2.5-2.5-2.5-5.1 0-7.1-3.2-8.9-10.7-5.8-4.8 2-6.3 1.3-6.3-2.7 0-3.8-2.4-7.8-4.5-7.8-.8 0-4.3 1.4-7.8 3.1l-6.3 3.1-4.4-3c-2.5-1.7-5.1-4-5.8-5.1-1.6-2.6-4.4-2.7-6.7-.1-1.1 1.2-3.1 2-5 2-3.3 0-8.5-2-8.5-3.3 0-.4-.6-.7-1.3-.7-.8 0-2.2-.9-3.2-2s-2.6-2-3.6-2c-2 0-2-.1 5-15.3 1.7-3.7 3.1-7 3.1-7.2 0-.5 3.6-8.9 4.9-11.5.5-.8 1.8-1.6 3-1.8 1.9-.3 2.1.1 2.1 4.7 0 2.7.3 5.2.8 5.4.4.3 20.1.8 43.9 1.2l43.1.8.4-11.4c.2-7.1 0-11.8-.7-12.5-1.2-1.4-81.8-2.6-85.3-1.3m54.8 2.2 28.5.2.3 6c.2 3.3 0 8-.3 10.4l-.7 4.3-18.6-.6c-10.3-.3-28.5-.5-40.4-.6H448v-20.7l12.3.4c6.7.2 25 .4 40.7.6m-68.6 22.9c-.4 1.3-2.1 5.5-4 9.5-2.7 6-3.6 7.1-5.3 6.6-2.4-.6-2-2 2.8-8.8 7.4-10.7 7.7-11.1 6.5-7.3m-18 20.2c-.6 1.6-2.4 2.3-2.4.8 0-1 2.2-3.3 2.7-2.8.2.2.1 1.1-.3 2m4.8 2.8c-.7.7-1.2.8-1.2.2s.3-1.4.7-1.7c.3-.4.9-.5 1.2-.2.2.3-.1 1.1-.7 1.7m-3.2-.7c0 .3-.2.5-.5.5s-.5-.2-.5-.5.2-.5.5-.5.5.2.5.5m7.8 8.4c.9.5 3.9 2 6.6 3.2 5.4 2.7 7.9 5.7 7.4 9.1-.6 4-6.7 3.2-11-1.5-.9-1.1-2.9-2-4.3-2.1-2.7-.1-3.1-.6-1.4-2.3.8-.8.8-1.7-.1-3.2-.6-1.2-.8-2.6-.5-3.1.8-1.2 1.1-1.2 3.3-.1m10.5.8c1.8.9 2.7 1.8 2 2-1.2.4-7.3-2.3-7.3-3.2 0-1 2.1-.5 5.3 1.2m16.7-1.2c0 .3-.2.5-.5.5s-.5-.2-.5-.5.2-.5.5-.5.5.2.5.5m-5 4.5c0 .5.9 1.4 2.1 2 1.6.9 2.6.8 4.5-.5 2.3-1.5 2.7-1.5 5.4.2 3.4 2 3.6 2.6 1.5 4.3-.9.7-1.3 2.1-1 3 .3 1.1-.1 2-1 2.4-.9.3-1.3 1-1 1.6.4.6 1.7.4 3.6-.5 3.1-1.6 3.7-3 1.7-3.8-1-.4-.9-.8.2-1.6 2.1-1.5 3-1.4 3 .5 0 1 .6 1.4 1.4 1.1 3.2-1.2 3.4 1.5.5 6.1-1.6 2.5-3.2 6-3.5 7.9-.7 3.8-1.2 4-4.6 1.3-1.8-1.3-2.8-3.4-3.2-6.5-.7-4.5-.7-4.5-3.8-2.9-2.6 1.4-3.2 1.4-4.5.2-1.1-1.2-1.2-2-.2-4.2 1.1-2.2 1-2.9-.3-4.2-1.2-1.3-2-1.4-3.6-.5-1.1.6-2.3 1.1-2.6 1.1-1.2 0-.6-3.6 1-5.8 1.5-2.2 4.4-3 4.4-1.2m34 2.8c0 2.4-.5 2.9-3.9 3.8-3.6 1-4 .9-4.5-.9-.6-2.5 0-3.6 2.8-4.7 4.1-1.7 5.6-1.2 5.6 1.8m-64.6.7c-.6 1.6-2.4 2.1-2.4.7 0-1.1 1.1-2.2 2.1-2.2.5 0 .6.7.3 1.5m5.6 4c0 .3-.2.5-.5.5s-.5-.2-.5-.5.2-.5.5-.5.5.2.5.5m61.2 5.6c-.2 3 .2 3.7 2.3 4.7 3.1 1.4 3.1 1.6-.1 7.2-1.4 2.5-2.8 6.8-3.1 9.7s-.7 5.3-.9 5.3c-1.1 0-11.4-5.7-13.1-7.3-6.8-6.2 2.1-24.3 11.6-23.5 3.5.3 3.6.4 3.3 3.9m15.6-.9c-.2 1.8-.8 3.3-1.5 3.3-.6 0-1.5.3-1.9.7-1.3 1.3-2 .9-3.2-1.7-2.1-4.5-1.6-5.5 2.9-5.5 3.9 0 4 .1 3.7 3.2m-67.1-.1c2 1.3 4.4 1.9 5.9 1.6 1.3-.2 2.7 0 3 .4 1.1 1.8-7.7.8-11.6-1.2-2.2-1.2-4-2.3-4-2.5 0-1.1 3.6-.2 6.7 1.7m12.9.6c-.7.7-2.6-.7-2.6-1.9 0-.6.6-.6 1.5.2.9.7 1.3 1.5 1.1 1.7m42.4-.2c0 .3-.2.5-.5.5s-.5-.2-.5-.5.2-.5.5-.5.5.2.5.5m-32.3 5.2c-.4.3-1 .3-1.4 0-.3-.4 0-.7.7-.7s1 .3.7.7m36.5 6.3c-3.8 5-7 13.9-5.7 16 .3.5.1 1-.6 1-.8 0-1-1.7-.6-6 .4-5 1.2-6.9 4.3-11 2.1-2.8 4.4-5 5.1-5s-.4 2.3-2.5 5m12.6 4.7c.3 8.3.3 8.3-3.8 12.3-4.6 4.5-7.9 5.1-11 2-2.4-2.4-2.4-3.1-.4-10.1 2-6.8 8.2-13.2 12.3-12.7 2.6.3 2.6.5 2.9 8.5"/><path d="M456 724.7c-.6 9.9-.2 15.8 1.1 15.8.8 0 1.4-.6 1.3-1.3-.1-.6-.2-4.4-.2-8.2-.1-3.9-.6-7-1.2-7-.5 0-1 .3-1 .7M464.5 726.3c-1.2 4.5-.3 7.2 2.3 6.9 1.6-.2 2.2.2 2.2 1.7 0 2.3-2.2 4.1-2.8 2.3-.6-1.9-2.2-1.4-2.2.7 0 2.4 3.6 3.4 5.6 1.4 2.2-2.3 1.4-7.6-1.4-8.8-2.7-1.2-2.4-2.9.7-3.3 3-.5 2.1-2.6-1.2-3-2.1-.3-2.8.2-3.2 2.1M486.7 724.7c-.4.3-.7 2.6-.7 5 0 4 .2 4.4 2 3.8 1.6-.5 2-.2 2 1.9 0 2.8-.9 3.3-2.8 1.4-.9-.9-1.2-.7-1.2.9 0 2.7 1.4 3.6 4 2.8 3-.9 2.8-7.8-.2-10-2-1.3-2.1-1.7-.8-2.5.8-.5 1.9-1.1 2.4-1.3s.6-.9.2-1.5c-.8-1.3-3.8-1.6-4.9-.5M497.6 725.9c-1.8 1.9-1.2 3.3 1 2.4.8-.3 1.4.1 1.4 1.1 0 .9-.4 1.6-1 1.6-.5 0-1 .7-1 1.5s.5 1.5 1 1.5c.6 0 1 .9 1 2 0 2.2-1.6 2.7-2.3.7-.2-.6-.8-.8-1.3-.4-1.1 1.1.9 4.1 3 4.5 2.3.5 3.4-3.3 2.8-10-.5-6.1-2-7.8-4.6-4.9M506.8 727.5c-.8 1.8-.8 2.8.1 3.9.8 1 .9 1.6.1 2.1-1.7 1-1.2 5.1.9 6.9 1.8 1.7 2 1.7 4-.3 1.7-1.7 1.9-2.9 1.5-7.3-.3-2.9-.7-5.9-1-6.6-.6-2.2-4.4-1.3-5.6 1.3m4.2 1.5c0 1.1-.4 2-1 2-.5 0-1-.9-1-2s.5-2 1-2c.6 0 1 .9 1 2m.7 6.6c.8 2.1-1.3 4.2-2.8 2.7-1.3-1.3-.5-4.3 1.1-4.3.6 0 1.3.7 1.7 1.6M474 733c0 .5 1.8 1 4 1s4-.5 4-1c0-.6-1.8-1-4-1s-4 .4-4 1M220 726.6c0 3.4.4 5.3 1 4.9.6-.3 1-2.8 1-5.6 0-2.7-.4-4.9-1-4.9-.5 0-1 2.5-1 5.6M534.9 722c-.5 3.1-.2 7.6.6 8 1.4.7 1.9-6 .6-7.3-.6-.6-1.1-.9-1.2-.7M120.2 726.9c-2.6 1.9-4.3 4.1-4.7 6-.4 2.1-1.8 3.7-4.8 5.4-3.9 2.2-5 2.3-14.3 1.9-12.6-.5-15.6.7-17.2 6.9-1.4 5.5.3 9 5.8 12.1 2.6 1.5 4 3 4 4.4 0 3.3 2.2 5.4 6.5 6.1 7.2 1.1 6.8-2.2 6 48.3-.4 25-1 45.8-1.4 46.2s-9.2.9-19.6 1l-19 .3-.3 10.1-.3 10.1 39.6.7c21.8.4 40 .4 40.5.1.6-.3 1-5 1-10.5 0-8-.3-9.9-1.6-10.4-.9-.3-9.7-.6-19.7-.6h-18.2l.2-42.2c.3-49.4.5-51.8 4.3-47.3 1.6 1.9 3.1 2 2.4.1-.3-.7-2.5-2.4-5-3.6-4.7-2.5-5.4-4.2-2.7-7.2 1.5-1.7 1.5-1.8-.1-1.8-.9 0-2.2 1.1-2.8 2.5-1.4 3.2-5.1 3.3-7.2.3-2.2-3.1-2-3.8.9-3.8 1.4 0 2.5-.5 2.5-1 0-.6 1.4-1 3.1-1 2.3 0 3-.4 2.6-1.4-.4-.9.4-1.8 2.3-2.4 2.9-1.1 5.4-4.4 4.8-6.4-.5-1.3-5.8-2-5.8-.7 0 .5.5.9 1 .9 2 0 2.3 3.1.4 4.5-2.3 1.7-11.3 1.9-14.8.4-5.9-2.7-2.4-6.9 5.6-6.9 6.6 0 6.1-2-.4-2.1-4.8-.1-5-.2-2-.9 3.6-.8 12.2.6 12.2 2.1 0 .5.5.9 1 .9 2.1 0 .8-1.9-2.4-3.4-5.9-2.8-15.5-1.5-17.6 2.4-1.4 2.6-1.2 6.7.3 7.3.6.2.9.7.5 1.1-.9 1-4.7-1.6-5.4-3.7-.9-2.9 1.4-8.4 3.9-9.1 1.2-.3 6-.6 10.7-.6 12.9 0 15.8 2.3 16.3 13 .2 4.3 0 4.5-3 5.5-3.9 1.1-4.1 2-1 5.3 2.2 2.3 2.2 2.4.3 3.8-2 1.4-2 1.4 0 1.4 2.3 0 11.4 8.8 11.4 11 0 1.2-.2 1.3-.9.1-.7-1.1-.9-1.1-1.4 0-.4 1-1.2.6-3.1-1.5-1.4-1.6-2.9-2.6-3.3-2.3-.3.4.1 1.5 1 2.4.8 1 1.9 3 2.2 4.6 1.4 5.4 5.9 4.7 6.8-1.1.6-3.4.3-4.1-3.7-8.2-3.7-3.8-9.2-12.8-8.3-13.6 1.6-1.6 11.3-.1 17.1 2.6 3 1.5 4.4 1.7 5.9.8 1.8-.9 1.9-1.7 1.3-7.8-.6-6.7-.6-6.7 3.8-7.3 6-.9 9.5-2.6 10.2-5.2.6-2.4-.8-6.5-2.8-8.6-.8-.8-2.5-3-3.8-4.9-3.1-4.4-4-5.4-6.7-6.8-3.8-2.1-8.7-1.4-13.1 1.7m14.8 1.4c3.7 3.2 10 12.9 10 15.2 0 3-1.1 4-5.6 5.3-5.4 1.6-5.6 1.5-4.9-.8s-.3-2.6-2.8-.7c-1.6 1.1-1.6 2-.7 8.5.5 4.1.7 7.8.4 8.4-.8 1.2-5.4.1-7.6-1.9-2.7-2.4-2.4-7.7.4-9 2.2-1 2.1-1-1-1.5-3.2-.5-3.2-.5-3.2 4.4 0 5-1.4 6.1-5 3.8-1.2-.8-1.2-1 .3-1.6.9-.3 1.7-1 1.7-1.5 0-.4-.6-.6-1.4-.3-1.5.6-1.9-.4-3.1-6.6-.4-1.9-1.6-4.5-2.8-5.7-1.1-1.3-1.9-2.4-1.6-2.6 1.8-1.2 8.9-5.5 11.2-6.6 1.5-.8 2.7-1.8 2.7-2.3s-.9-.4-2.1.2c-4.9 2.7-3.3-2.2 1.7-5.1 4.3-2.6 10.4-2.4 13.4.4m-47 28.2c0 .3-.2.5-.5.5s-.5-.2-.5-.5.2-.5.5-.5.5.2.5.5m30 29.5c0 .5-.7 1-1.5 1s-1.5-.5-1.5-1c0-.6.7-1 1.5-1s1.5.4 1.5 1m-7.7 81H140v18l-8.7-.4c-4.9-.2-22.2-.4-38.5-.5L63 884v-18.3l8.8.6c4.8.4 22.1.7 38.5.7"/><path d="M130 734.9c0 .6.5 1.3 1 1.6.6.3 1.9 2.3 3 4.3 1.3 2.6 1.9 3.1 2 1.8 0-1.1-1-3.5-2.2-5.3-2.3-3.2-3.8-4.2-3.8-2.4M68.1 870.9c-2.4 1.8-2.4 1.8-.2 2.4 1.8.4 2.2 1.2 1.9 4.1-.2 1.9.2 3.5.7 3.6 1.2 0 1.9-10 .8-11.1-.4-.4-1.9 0-3.2 1M77.2 870.2c-.7.7-1.2 2.2-1.2 3.5 0 1.9.5 2.3 3 2.3 2.3 0 3 .4 3 2 0 2.3-2.9 2.7-4.9.7-1-1-1.2-.8-.9.8.4 2.3 4.2 3.2 6.4 1.5 3.2-2.7-.2-9.6-3.8-7.4-.6.4-.9.1-.6-.7s1-1.5 1.6-1.5c.7-.1 1.7-.2 2.3-.3 1.7-.2-.1-2.1-2-2.1-.9 0-2.2.5-2.9 1.2M114.2 870.6c-1.6 1.1-2.2 2.6-2.2 5.3 0 4.2 1.4 6.1 4.7 6.1 2.9 0 4.6-3.3 3.8-7.6s-3.4-5.9-6.3-3.8m4.6 5.8c-.2 2.3-.9 3.2-2.5 3.4-2.1.3-2.3-.1-2.3-3.6 0-2.3.5-4.2 1.3-4.5 2.1-.8 3.8 1.5 3.5 4.7M126.7 869.7c-1.4 2.3-4.6 11.7-4.1 12.2.3.3 1-.2 1.5-1.2.6-.9 2.1-1.7 3.4-1.7s2.8.8 3.4 1.7c1.8 3.3 2.2.6.5-4.3-1.7-5.2-3.8-8.2-4.7-6.7m2.3 5.9c0 .8-.7 1.4-1.5 1.4-1.5 0-2.1-2.1-.9-3.3 1-.9 2.4.2 2.4 1.9M94.4 871.4c-1.8 1.4-1.8 1.5-.1 2.1 1.2.5 1.7 1.8 1.7 4.7 0 2.3.4 3.7 1 3.3 1.2-.7 1.4-11.5.2-11.5-.5 0-1.7.6-2.8 1.4M102.5 871c.3.5 1.7 1 3 1 2.4 0 2.4 0 .4 3.5-1.1 1.9-1.9 4.2-1.7 5.2.3 1.2 1.1.4 2.5-2.8 1.1-2.6 2.6-5 3.2-5.3 2.4-1.5.9-2.6-3.5-2.6-2.7 0-4.3.4-3.9 1M86 877c0 .5.9 1 2 1s2-.5 2-1c0-.6-.9-1-2-1s-2 .4-2 1M307 726.7c0 1.4 3.6 6.3 4.2 5.7.7-.7-2.4-6.4-3.4-6.4-.5 0-.8.3-.8.7M312 734.5c0 1 4.5 7.5 5.3 7.5 1.1 0 .9-.8-1.5-4.5-2-3.1-3.8-4.5-3.8-3M355.7 735.8c-2.8 3.1-3.7 7.1-3.7 16.7 0 10.7-1.7 16.5-5.6 18.5-2.7 1.5-3.2 3-.9 3 .8 0 1.5.5 1.5 1.1 0 .5.4.8 1 .4.5-.3.7-1.2.3-2-.3-.8-.1-1.5.5-1.5.5 0 2-2.1 3.3-4.8 1.9-3.9 2.2-6.1 2.1-13.4-.1-4.8.2-8.9.7-9.2.4-.3.6-1.6.4-2.9-.6-3 2-5.7 5.4-5.7 1.8 0 2.4.4 2 1.5-.4.8-.2 1.7.2 2 .5.3 1.2-.2 1.5-1 .5-1.3 1-1.4 2.6-.5 1.7.9 1.9 1.4.9 2.6-.8 1-.8 1.4 0 1.4.6 0 1.1-.5 1.1-1 0-.6.7-1 1.5-1s1.5.8 1.5 1.8c0 2-5.4 4.2-10.1 4.2-2.4 0-2.4.1-2.6 11.2-.1 9.6-.4 11.4-2 12.6-1 .7-1.7 2-1.5 2.9.3 1.2-.2 1.4-1.8 1s-2-.2-1.6.9c.3.8-.6 2-2.4 2.9-2.8 1.5-4.1 3.5-2.2 3.5 1.6 0 9.2-5.6 10.9-8 .9-1.3 2-5.1 2.4-8.4.4-3.8.6 1.2.5 13.6-.1 19.7-.1 19.7-3.6 23.3-3.8 4-7.6 6-13 6.9-1.9.3-7.9 1.4-13.3 2.5-7.7 1.4-9.5 1.5-8.6.5.6-.8 1.7-1.4 2.4-1.4 3.4 0 1.7-8-2-9.4-2.3-.8-13.7 6.4-15.3 9.7-1.9 3.9-.8 7.4 3 9.7 5.1 3.1 10.3 3.4 21.2 1.1 5.5-1.2 10.1-2.1 10.3-2.1.1 0 .3 7.8.3 17.2 0 21.1 1 36.8 2.3 36.8.9 0 .1-49.6-.9-53.1-.4-1.3.7-2 4.8-2.9 10-2.3 17.7-8 21.8-15.9.7-1.5 1.4-9.3 1.7-21.5.3-10.5.7-19.2.8-19.4.2-.2 3.1 2.5 6.6 6 11.9 11.9 20.7 17.6 24.9 16.3 2.3-.7 4.3-4.7 3.4-6.7-.2-.7-2.9-2.8-5.8-4.6-6-3.7-13.9-10.2-13.3-10.9.3-.2 3.7 1.3 7.6 3.3 7.2 3.7 7.2 3.7 9.9 1.7 5-3.7 3.7-6-6.3-11.2-4.9-2.6-11.2-6-14-7.5-22-12.5-27.5-14.4-30.8-10.8m24.9 10.9c-.6 1.5 1 2.7 1.9 1.4.7-1.3 7.4 2 7.5 3.6 0 .7.6 1 1.4.7s2.4.4 3.5 1.5c1.2 1.2 2.8 2.1 3.6 2.1s1.5.4 1.5 1c0 .5.9 1 2 1 2.4 0 2.4 0 .5 3.6-1.1 2.2-1.5 2.5-2 1.2-.4-.9-1.4-1.6-2.3-1.5-4.5.3-26.2-15.9-24.7-18.4.9-1.3 7.6 2.3 7.1 3.8m-7.9 1.2c.3 1.1 1.1 1.7 1.7 1.5.7-.3 1.8.2 2.5 1 1 1.2.8 1.6-.8 2.1-3.2 1-2.5 2.5.9 1.9 3.4-.7 6 .9 6 3.7 0 1.1.5 1.9 1.1 1.9 2.1 0 12.9 10.3 12.9 12.3 0 1.6.3 1.7 1.5.7 1-.9 1.5-.9 1.5-.1 0 .6.7 1.1 1.5 1.1 1.8 0 1.8.2.3 3.5-1.4 3-2.8 3.2-3.5.5-.4-1.5-1.1-1.9-2.4-1.5-1.4.5-1.9.1-1.9-1.3 0-1.2-.6-1.9-1.7-1.8-.9 0-2.2-.8-2.7-2-.6-1.1-1.6-1.9-2.1-1.7-.6.2-4.6-3.3-9-7.7-7.4-7.4-10.5-9.5-10.5-7 0 .5.5 1 1.1 1s.9.6.6 1.4-.1 1.7.6 1.9c.9.3.9.9 0 2.5-.8 1.3-.9 2.3-.3 2.7s.8 5.3.6 12.3c-.2 6.4-.4 13.8-.5 16.4-.1 3.7-.5 4.8-1.7 4.8-1.3 0-1.4.3-.4 1.5 1.3 1.6.9 2.6-3.3 7.2-3.4 3.7-9.2 6.7-11.4 5.9-.9-.4-2.1 0-2.7.8-1.6 2.1-6.6 3.2-6.6 1.5-.1-1.1-.3-1.1-1.3.1-1.1 1.5-10.3 4.4-12.3 3.9-.5-.1-1.7.1-2.8.6s-2.6.3-3.7-.4c-1.6-.9-1.9-.8-1.9.4 0 1.3-.8 1.5-3.7 1-2.1-.4-4.9-1.5-6.3-2.4-2.9-2.1-4-6.1-1.6-6.1.9 0 1.6-.8 1.6-1.9 0-2.6 1.9-3.7 3.2-2 .8 1.1.9 1 .4-.3-.6-1.9 2.7-4.4 4.3-3.3.5.3 1.1 0 1.3-.7.7-2 3.8 0 3.7 2.4 0 1.3-.3 1.7-.6 1-.2-.6-.9-1.2-1.5-1.2s-.8.6-.5 1.4c.3.7-.4 2.1-1.5 3-2.6 2.3-1.8 4.1 1.8 4.1 1.6 0 3.4.3 4.1.8.6.4 1.3.2 1.5-.4.2-.7 2-1.3 4-1.4 1.9-.1 4.1-.5 4.7-.9.7-.4 1.8-.3 2.6.4 1 .8 1.6.7 2.3-.6.7-1.2 1.8-1.5 4.1-1.2 1.7.2 3.1.1 3.1-.4 0-.4 1.7-1.6 3.8-2.7 6.1-3.2 10.7-8.2 10.9-12 .1-1.8.7-3.9 1.3-4.6.8-.9.8-1.5 0-2-.5-.3-1-3.1-1-6.1 0-4.4.3-5.4 1.8-5.5 1.6-.1 1.6-.2 0-.6s-1.8-1.8-1.8-11.5c0-9.4.2-10.9 1.5-10.4.8.3 1.5.1 1.5-.4 0-.6-.7-1-1.6-1-1.1 0-1.4-.5-1-1.6.3-.9.6-1.7.6-2 0-.2.7-.1 1.5.2.8.4 1.5.1 1.5-.5s-.6-1.1-1.2-1.1c-1.8-.1 2.2-3 4-3 .8 0 1.6.9 1.9 1.9m-9.6 4.2c-.9 2.3-1 2.2-1-1.1q-.15-3.45.9-2.4c.7.7.7 1.9.1 3.5m44.3 10.4c-.6 1.6-2.4 2.1-2.4.7 0-1.1 1.1-2.2 2.1-2.2.5 0 .6.7.3 1.5m-1.4 16c0 .3-.2.5-.5.5s-.5-.2-.5-.5.2-.5.5-.5.5.2.5.5"/><path d="M383.3 751.7c.4.3 1 .3 1.4 0 .3-.4 0-.7-.7-.7s-1 .3-.7.7M390 755c0 .5.5 1 1 1 .6 0 1-.5 1-1 0-.6-.4-1-1-1-.5 0-1 .4-1 1M395 759c0 .5.5 1 1 1 .6 0 1-.5 1-1 0-.6-.4-1-1-1-.5 0-1 .4-1 1M369 748.5c0 .3.2.5.5.5s.5-.2.5-.5-.2-.5-.5-.5-.5.2-.5.5M370 752c0 .7.3 1 .7.7.3-.4.3-1 0-1.4-.4-.3-.7 0-.7.7M377 758.1c0 .5.5.7 1 .4.6-.3 1-.8 1-1.1 0-.2-.4-.4-1-.4-.5 0-1 .5-1 1.1M366 759c0 .7.3 1 .7.7.3-.4.3-1 0-1.4-.4-.3-.7 0-.7.7M380 760.9c0 .6.5 1.3 1 1.6.6.3 1-.1 1-.9 0-.9-.4-1.6-1-1.6-.5 0-1 .4-1 .9M365 763c0 .5.5 1 1 1 .6 0 1-.5 1-1 0-.6-.4-1-1-1-.5 0-1 .4-1 1M384 765c0 .5.5 1 1 1 .6 0 1-.5 1-1 0-.6-.4-1-1-1-.5 0-1 .4-1 1M388.1 765.6c0 1.1.3 1.4.6.6.3-.7.2-1.6-.1-1.9-.3-.4-.6.2-.5 1.3M367.5 767c-.3.5-.1 1 .4 1 .6 0 1.1-.5 1.1-1 0-.6-.2-1-.4-1-.3 0-.8.4-1.1 1M392 770c0 .5.5 1 1 1 .6 0 1-.5 1-1 0-.6-.4-1-1-1-.5 0-1 .4-1 1M366 771.1c0 .5.5.7 1 .4.6-.3 1-.8 1-1.1 0-.2-.4-.4-1-.4-.5 0-1 .5-1 1.1M367 783c0 .5.5 1 1 1 .6 0 1-.5 1-1 0-.6-.4-1-1-1-.5 0-1 .4-1 1M366.5 793.9c-.3.5-.1 1.2.5 1.6.5.3 1-.1 1-.9 0-1.8-.6-2.1-1.5-.7M363 804c0 .5.5 1 1 1 .6 0 1-.5 1-1 0-.6-.4-1-1-1-.5 0-1 .4-1 1M360 807c0 .5.5 1 1 1 .6 0 1-.5 1-1 0-.6-.4-1-1-1-.5 0-1 .4-1 1M319 807.5c0 .3.2.5.5.5s.5-.2.5-.5-.2-.5-.5-.5-.5.2-.5.5M355.3 809.7c.4.3 1 .3 1.4 0 .3-.4 0-.7-.7-.7s-1 .3-.7.7M316 812c0 .7.3 1 .7.7.3-.4.3-1 0-1.4-.4-.3-.7 0-.7.7M312 816c0 .5.5 1 1 1 .6 0 1-.5 1-1 0-.6-.4-1-1-1-.5 0-1 .4-1 1M317 817c0 .5.5 1 1 1 .6 0 1-.5 1-1 0-.6-.4-1-1-1-.5 0-1 .4-1 1M332.3 816.7c.4.3 1 .3 1.4 0 .3-.4 0-.7-.7-.7s-1 .3-.7.7M535 738.2c0 3.1.3 3.9 1 2.8 1.3-2 1.3-5.7 0-6.5-.6-.4-1 1.1-1 3.7M220 740.5c0 2.5.5 4.5 1 4.5.6 0 1-2 1-4.5s-.4-4.5-1-4.5c-.5 0-1 2-1 4.5M358 739c0 .5.5 1 1 1 .6 0 1-.5 1-1 0-.6-.4-1-1-1-.5 0-1 .4-1 1M359 743c0 .5.5 1 1 1 .6 0 1-.5 1-1 0-.6-.4-1-1-1-.5 0-1 .4-1 1M362.5 743c-.3.5-.1 1 .4 1 .6 0 1.1-.5 1.1-1 0-.6-.2-1-.4-1-.3 0-.8.4-1.1 1M318.9 745.7c1.9 3.6 4 5.8 4.6 5.1.9-.8-3.2-6.8-4.6-6.8-.6 0-.6.6 0 1.7M534.7 744.7c-.4.3-.7 1.5-.7 2.5s-.9 2.7-2.1 3.9c-1.1 1.1-1.8 2.4-1.4 2.7 1.1 1.1 5.5-5 5.5-7.6 0-2.3-.2-2.6-1.3-1.5M355.5 749c.3.5.8 1 1.1 1 .2 0 .4-.5.4-1 0-.6-.5-1-1.1-1-.5 0-.7.4-.4 1M357.3 751.7c.4.3 1 .3 1.4 0 .3-.4 0-.7-.7-.7s-1 .3-.7.7M324 752.7c0 1.1 4.4 7.3 5.3 7.3 1.1 0 .9-.8-1.5-4.5-2.1-3.2-3.8-4.5-3.8-2.8M160.4 754.3c-.2.7-.3 6-.2 11.7.3 10.4.3 10.4 4.2 11.2 2.1.5 21.5.7 43 .6l39.1-.3.3-11.6c.3-11.4.2-11.7-2-12.3-1.3-.3-20.7-.6-43.1-.6-32.8 0-40.9.3-41.3 1.3m83.4 1.7c.1 0 .1 4.4 0 9.7l-.3 9.8-24-.2c-13.2-.2-31.3-.3-40.2-.3H163v-9.3c0-5.2.3-9.7.8-10.1.5-.6 74.3-.2 80 .4"/><path d="M171.3 763.2c0 3.5-.2 6.9-.4 7.7s.4 1.7 1.4 1.9c1.9.4 2.2-2.7 1.1-11.2-.9-6.5-2-5.7-2.1 1.6M180 761.6c0 4.1.2 4.5 2 3.9 1.6-.5 2-.2 2 1.8 0 3-1 4-2.7 2.6-1-.9-1.3-.8-1.3.5 0 .9.7 1.9 1.5 2.2 4.1 1.6 6.3-6.4 2.5-8.8-2.6-1.7-2.5-3.4.1-4.1 2.7-.7 1.5-2.7-1.7-2.7-2.2 0-2.4.4-2.4 4.6M201 761.6c0 4.1.2 4.5 2 3.9 1.7-.5 2-.2 2 2 0 2-.4 2.6-2 2.3-2.5-.4-3 1.2-.8 2.5 2.3 1.5 4.8-.8 4.8-4.2 0-3.1-.9-4.5-3.2-5.4-2.4-.9-2.3-2.7.2-2.7 1.1 0 2-.7 2-1.5 0-.9-.9-1.5-2.5-1.5-2.3 0-2.5.4-2.5 4.6M212.1 758.3c-1.3 1.6-.5 2.8 1.5 2 1.7-.6 1.9 1.8.2 3.5-.9.9-.7 1.3.5 1.8 1.8.7 2.3 3.9.8 4.9-.6.3-1.4-.3-2-1.2-.5-1-1.3-1.4-1.7-1-1.1 1.1.9 4.1 2.9 4.5 2.5.5 4.5-4.4 2.9-6.9-.7-1.1-1-2.4-.6-3 .9-1.6-.5-5.9-2-5.9-.7 0-1.9.6-2.5 1.3M222.3 758.7c-1.5 3.3-.9 12.5.8 13.6 3.4 2.2 4.9.2 4.9-6.6 0-6.2-1.1-8.7-3.7-8.7-.7 0-1.6.8-2 1.7m3.7 2.2c0 2.3-1.6 3.6-2.5 2.1-.9-1.4.1-4 1.5-4 .5 0 1 .9 1 1.9m0 7.7c0 3.1-2.3 2.8-2.8-.4-.2-1.5.2-2.2 1.2-2.2 1.1 0 1.6.9 1.6 2.6M190 765c0 .5 1.6 1 3.6 1 2.1 0 3.3-.4 2.9-1-.3-.6-1.9-1-3.6-1-1.6 0-2.9.4-2.9 1M522.6 756.9c-1.5 1-2.4 2.1-1.9 2.4 1 .6 6-2.9 5.2-3.7-.2-.3-1.7.3-3.3 1.3M357 758c0 .7.3 1 .7.7.3-.4.3-1 0-1.4-.4-.3-.7 0-.7.7M515.8 760.6q-4.5 2.4-1.5 2.4c1.6 0 5.4-2.7 4.7-3.3-.3-.3-1.7.1-3.2.9M332.2 765.5c2.3 3.4 3.8 4.5 3.8 2.5 0-1.3-4.1-6-5.2-6-.4 0 .2 1.6 1.4 3.5M508 764.7c-1.9 1.3-2.8 1.4-5.5.5-1.7-.7-3.9-1.2-4.7-1.2-2.2 0-5.8 4.7-5.8 7.4 0 1.4-1 2.6-3 3.4-3.1 1.4-4.3 4-1.2 2.7 4.4-1.8 5-1.7 5.6 1.3.6 2.6 7.9 11.2 9.6 11.2.4 0 4.8 2.2 9.8 5s10.4 5 12 5c3.4 0 7.2-3.6 7.2-6.8 0-2.2.2-2.2 17.3-2.3 9.4-.1 18.8-.3 20.7-.4s5.9-.3 8.8-.4c2.8 0 5.2-.6 5.2-1.1 0-.6-9.5-1-26.4-1-26.4 0-26.4 0-27.6-3-2-4.8-6-8.6-13-12.2-9.9-5.1-9.6-4.8-7-6.8 2.9-2.2 1.1-3.4-2-1.3m-4 3.8c1.7.9 3 1.8 3 2.1 0 .2-1.4-.3-3.1-1.2-3.2-1.6-7.9-1.2-7.9.6 0 .6-.5 1-1 1-.7 0-.7-.6 0-2 1.3-2.4 4.9-2.6 9-.5m6.3 7c10.8 5.3 15.7 10.1 15.7 15.2 0 3.1-.2 3.4-2.2 2.8-6.2-1.8-20.8-10.1-23.5-13.3-2.8-3.4-3.8-7.3-2.1-8.3 2-1.3 2.2-1.2 12.1 3.6m-1.3-4c0 .3-.2.5-.5.5s-.5-.2-.5-.5.2-.5.5-.5.5.2.5.5m3.5 1.5c.3.5.2 1-.4 1-.5 0-1.3-.5-1.6-1-.3-.6-.2-1 .4-1 .5 0 1.3.4 1.6 1m-15.3 6.5c.9 2 .9 2-.6.1-.9-1.1-1.6-2.7-1.5-3.5 0-1.4.1-1.4.6-.1.3.8 1 2.4 1.5 3.5m21.8-3c0 .3-.2.5-.5.5s-.5-.2-.5-.5.2-.5.5-.5.5.2.5.5m5.6 4.2c6.9 7.5 6.9 17.1.1 17.3-1.9 0-15.1-6.9-14.4-7.6.2-.2 3 1 6.3 2.6 6.5 3.2 8.4 3.6 10.2 1.8 2.7-2.7 1-8.7-4.2-14.6-2.8-3.2-1-2.7 2 .5m-25.1 2.3c.3.5.4 1 .1 1s-.8-.5-1.1-1c-.3-.6-.4-1-.1-1s.8.4 1.1 1m5.9 4.1c4.9 2.8 4.6 3.4-.4.9-2.2-1.1-4-2.3-4-2.5 0-.8.8-.6 4.4 1.6M355.5 765c-.3.5-.1 1 .4 1 .6 0 1.1-.5 1.1-1 0-.6-.2-1-.4-1-.3 0-.8.4-1.1 1M103 769c0 .5.4 1 .9 1 .6 0 1.3-.5 1.6-1 .3-.6-.1-1-.9-1-.9 0-1.6.4-1.6 1M353.3 768.7c.4.3 1 .3 1.4 0 .3-.4 0-.7-.7-.7s-1 .3-.7.7M589.2 777.1c-2.2.8-2.3 1.2-2 12.1l.3 11.3h87v-24l-41.5-.1c-22.8-.1-42.5.2-43.8.7m82.6 11.8-.3 9.6h-81l-.3-9.7-.3-9.8 39.3-.2c21.6-.2 40.1-.1 41.1.1 1.6.3 1.7 1.4 1.5 10"/><path d="M598 788.4c0 4.7.2 8.6.4 8.6 1.8 0 3.5-1.4 2.8-2.4-.4-.6-.7-4-.7-7.5 0-4.2-.4-6.6-1.2-6.8-1-.4-1.3 1.7-1.3 8.1M607.6 781.6c-.9 2.4-.8 2.6 1.4 1.9 2.4-.8 2.6.8.4 3-1.5 1.5-1.5 1.7.1 2.9 1.2.9 1.6 1.9 1.1 3.1-.6 1.7-.7 1.7-2 0-.9-1.3-1.5-1.5-2-.6-1 1.6 1.2 4.1 3.5 4.1 1 0 2-.8 2.3-1.8.6-2.2.1-11.6-.8-13.1-1-1.6-3.3-1.3-4 .5M627.6 781.6c-.9 2.3 0 2.9 1.9 1.4 2.8-2.3 2.8-.2.1 6-1.4 3.4-2.6 6.4-2.6 6.6 0 .3 1.7.4 3.7.2 2.7-.2 3.9-.8 4.1-2.1.3-1.6.1-1.7-1.7-.5-3.1 1.9-3.3.7-.7-6 1.3-3.3 2.1-6.3 1.8-6.6-1.2-1.3-6-.5-6.6 1M639.1 781.4c-1.9 2.3-2.4 8.8-.9 11.6 2.3 4.2 6.8 3.6 6.8-1-.1-1.2-.3-1.2-1.4.2-.7 1-1.8 1.8-2.3 1.8-1.6 0-2.5-6.4-1.3-9.5 1-2.7 1.1-2.7 3.1-.9 2.1 1.9 2.1 1.9 1.8-.6-.5-2.9-3.9-3.9-5.8-1.6M648.6 781.7c-.4.9-.2 2.1.4 2.7.7.7 1 .6 1-.2 0-.7.7-1.2 1.6-1.2 1 0 1.4.6 1 1.5-1.2 3.4-1.8 11.5-.8 11.5.6 0 1.3-2.1 1.7-4.8.3-2.6.9-5.9 1.4-7.4 1.1-3.2.6-3.8-3-3.8-1.6 0-2.9.7-3.3 1.7M617.7 787.6c-1.6 1.6-.5 2.5 2.6 2.2 1.7-.2 3.1-.8 3-1.3-.3-1.2-4.6-1.9-5.6-.9M203 800.9c0 20.9 0 20.9-2.9 21.9-1.6.6-3.7 2.2-4.6 3.6-2 3.1-.8 5.8 3.7 8.6 5.1 3.1 9.7.4 11.2-6.6.6-2.5.2-3.3-2.4-5.2-3-2.3-3-2.3-3-22.7 0-13-.4-20.5-1-20.5s-1 7.6-1 20.9m-.7 27c-1.2 1.1-2.3 2.6-2.5 3.3-.4 1.1-.8 1-2.1-.1-2-1.6-.7-4.8 2.6-6.1 3.2-1.2 4.5.6 2 2.9m6.7-1.4c0 .3-.2.5-.5.5s-.5-.2-.5-.5.2-.5.5-.5.5.2.5.5m-1 4c0 1.8-4.6 4.9-6 4-.6-.4 0-1.7 1.7-3.5 2.7-2.9 4.3-3.1 4.3-.5M220 784c0 2.2.5 4 1 4 .6 0 1-1.8 1-4s-.4-4-1-4c-.5 0-1 1.8-1 4M326.5 781c.3.5.8 1 1.1 1 .2 0 .4-.5.4-1 0-.6-.5-1-1.1-1-.5 0-.7.4-.4 1M321.3 781.7c.4.3 1 .3 1.4 0 .3-.4 0-.7-.7-.7s-1 .3-.7.7M312 785c0 .5.5 1 1 1 .6 0 1-.5 1-1 0-.6-.4-1-1-1-.5 0-1 .4-1 1M317 785.1c0 .5.5.7 1 .4.6-.3 1-.8 1-1.1 0-.2-.4-.4-1-.4-.5 0-1 .5-1 1.1M347 786.6c0 1.4-.5 3.4-1 4.4-.6 1.2-.7 2.1-.1 2.5.6.3 1.5-.3 2-1.4 1.4-2.5 1.4-8.1.1-8.1-.5 0-1 1.2-1 2.6M303 786.5c0 .3.2.5.5.5s.5-.2.5-.5-.2-.5-.5-.5-.5.2-.5.5M299.3 787.7c.4.3 1 .3 1.4 0 .3-.4 0-.7-.7-.7s-1 .3-.7.7M120 789.8c0 1.7 2.9 4.6 3.7 3.8.4-.4-.3-1.6-1.5-2.9-1.3-1.3-2.2-1.6-2.2-.9M334.5 790c-.3.5-1.3 1-2.2 1s-2.4.6-3.2 1.4c-.9.8-13.4 7.3-27.8 14.5L275 820.1v18.8c0 28.4 1.2 64.1 2.2 64.1.4 0 .5-18.3.2-40.8l-.7-40.8 26.3-13.2c14.4-7.3 26.4-13.2 26.6-13.2s.4 1.1.4 2.4 1 3.5 2.1 5c1.7 2.2 2.7 2.6 4.8 2.1 5.5-1.4 6.6-5 3.1-9.5-1.1-1.4-2-3.3-2-4.3 0-1.8-2.5-2.4-3.5-.7m4.1 5.7c.7 1 1.4 2.4 1.4 3 0 1.9-1.7 1.6-2.4-.5-.3-.9-.9-2.3-1.2-3-.9-1.8.7-1.5 2.2.5m-4.2 3.3c1.5 3.1.9 3.9-1.2 1.8-1.1-1.1-1.7-4.8-.8-4.8.3 0 1.1 1.3 2 3M220 796.6c0 3.4.4 5.3 1 4.9.6-.3 1-2.8 1-5.6 0-2.7-.4-4.9-1-4.9-.5 0-1 2.5-1 5.6M126.5 798c1 1.1 2.2 2 2.7 2 .4 0 .3-.9-.4-2s-1.9-2-2.7-2c-1.1 0-1 .5.4 2M441.3 801.2c-1.3.6-2.3 1.5-2.3 2 0 1.4 2.4.8 5-1.2 2.8-2.2 1.1-2.6-2.7-.8M131.5 804c1 1.1 2.3 2 2.8 2 .6 0 .2-.9-.8-2s-2.3-2-2.8-2c-.6 0-.2.9.8 2M219.8 806.2c-.3 1.8 0 3.8.6 4.5s1.7 2 2.5 2.8c1.9 2.4 2.6 1 .7-1.7-.9-1.2-1.6-3.5-1.6-5 0-3.9-1.7-4.4-2.2-.6M178.7 805.7c-1.2 1.2-.7 2.3 1 2.3.9 0 2.7 1 4 2.2s2.6 1.8 3 1.4c.5-.4-.7-2.1-2.5-3.7-3.3-3-4.4-3.4-5.5-2.2M431.8 806.6c-2.3 1.2-3.8 3.4-2.5 3.4 1.6 0 6.6-3.4 6.2-4.1-.7-1.1-.4-1.1-3.7.7M139 807c0 .5 1.6 1 3.5 1s3.5-.5 3.5-1c0-.6-1.6-1-3.5-1s-3.5.4-3.5 1M149 807c0 .5 1.4 1 3 1 1.7 0 3-.5 3-1 0-.6-1.3-1-3-1-1.6 0-3 .4-3 1M159 807c0 .5 1.6 1 3.5 1s3.5-.5 3.5-1c0-.6-1.6-1-3.5-1s-3.5.4-3.5 1M170 807c0 .5 1.1 1 2.5 1s2.5-.5 2.5-1c0-.6-1.1-1-2.5-1s-2.5.4-2.5 1M415.4 810.9c-2.7 1.6-6.9 4-9.4 5.4-3.2 1.9-5.4 2.5-7.5 2.1-2.3-.4-3.8.1-6.4 2.3-2.9 2.5-3.3 3.3-2.7 6 .4 1.7 1.8 4.1 3.2 5.4 2.4 2.3 2.4 2.3 6.8.1 2.5-1.1 4.7-3 5.1-4 .8-2.8 9.5-6.8 9.5-4.5 0 .5 1.3 2.1 2.8 3.8 1.5 1.6 5.2 5.9 8.2 9.5s5.7 6.7 6 7 5 5.9 10.5 12.4c10 11.9 10 11.9 10 19.4.1 5 .5 7.7 1.3 8 .9.3 1.2-1.8 1.2-7.6 0-7.7-1-10.5-5-14.2-2-1.9-32.3-37.9-33.3-39.6-.4-.7 1.3-2.5 4.3-4.4 5.2-3.4 5.6-4 4-6.9-1.6-3-3.4-3.1-8.6-.2m6.6 1.7c0 1.7-2.2 1.4-2.8-.4-.2-.7.3-1.2 1.2-1.2s1.6.7 1.6 1.6m-4.1 1.8c.8 1 .9 1.6.1 2.1-1.3.8-3-.3-3-2.1s1.4-1.8 2.9 0M414 818c0 2.3-1 2.6-2.8.8s-1.5-2.8.8-2.8c1.3 0 2 .7 2 2m-5 1.5c.9 1.1 1 1.9.2 2.7-1.4 1.4-3.2.1-3.2-2.3 0-2.3 1.3-2.5 3-.4m-8.5 3c2.9 2.8 3.1 4.7.9 6.6-1.3 1-1.7 1-2.5-.2-.5-.8-.9-2-.9-2.6 0-.7-.9-1.8-1.9-2.5-1.5-.9-1.7-1.5-.9-2.5 1.5-1.9 2.6-1.6 5.3 1.2m4.5.6c0 .6-.4.7-1 .4-.5-.3-1-1.1-1-1.6 0-.6.5-.7 1-.4.6.3 1 1.1 1 1.6m-10.5 1.9c1.7 1.9 1.7 1.9-.8.7-1.4-.6-2.3-1.5-2.1-1.9.7-1.1.9-1 2.9 1.2m2.1 5.6c-.4.9-.9 1.5-1.1 1.2-.3-.3-.3-1.3.1-2.2s.9-1.5 1.1-1.2c.3.3.3 1.3-.1 2.2M188 814.4c0 .8.7 1.6 1.5 2 1.7.6 1.8.4.9-1.8-.8-2-2.4-2.1-2.4-.2M226 815.7c0 1.3 5.9 4.2 6.5 3.3.3-.5-.8-1.6-2.4-2.5-3.4-1.7-4.1-1.8-4.1-.8"/><path d="M192 818.9c0 1.2 2.9 3.5 3.6 2.8.4-.3-.1-1.3-.9-2.2-1.7-1.7-2.7-1.9-2.7-.6M234.6 819.9c-.6.9 3.6 4.1 5.4 4.1 1.9 0 1-1.6-1.9-3.3-1.6-1-3.2-1.3-3.5-.8M559.2 861.7c-2.2.4-2.3.7-2 12.1l.3 11.7 43.3.3 43.2.2v-11.9c0-9.8-.3-12-1.5-12.5-1.8-.6-79.7-.5-83.3.1m81.6 12-.3 9.8-26.5-.1c-14.6-.1-32.7-.2-40.2-.3L560 883v-19h81.1z"/><path d="M567.8 873c-.3 7.3-.1 8 1.6 8 1.2 0 1.6-.5 1.2-1.6-.3-.9-.6-4.5-.6-8 0-9.2-1.8-7.9-2.2 1.6M577.7 865.7c-1.3 1.3-.7 3.2.8 2.7 1-.4 1.5 0 1.5 1.5 0 1.2-.4 2.1-1 2.1-.5 0-1 .4-1 1 0 .5.7 1 1.5 1s1.5.9 1.5 2c0 2.2-2.6 2.8-3.3.7-.2-.6-.8-.9-1.2-.5-1.1 1 .2 3.7 2 4.4 3 1.2 4.5-1.5 4.1-7.6-.2-3.2-.7-6.3-1-6.9-.8-1.2-2.9-1.5-3.9-.4M599.9 865.2c0 .2-.1 3.8-.2 8-.1 5.1.2 7.9 1 8.2.6.3 1.3.3 1.5.1.7-.8-.4-16.5-1.3-16.5-.5 0-.9.1-1 .2M609.2 866.2c-.7.7-1.2 2.7-1.2 4.6 0 2.5.5 3.5 2 3.9 1.1.3 2 1.2 2 2 0 1-.6 1.2-2.1.8-1.7-.6-2-.3-1.7 1.2.2 1.2 1.2 1.8 2.8 1.8 2.4 0 2.5-.3 2.8-6.9.2-4.9-.1-7.2-1-7.7-1.7-1.2-2.2-1.1-3.6.3m2.8 3.8c0 1.6-.4 3-1 3-.5 0-1-1.4-1-3 0-1.7.5-3 1-3 .6 0 1 1.3 1 3M619 866.9c-.5 1.1-1 3.8-1 6.1 0 7.5 3.9 10.9 6.1 5.2 2.7-7-1.9-17.2-5.1-11.3m3.5 6.1c0 2.6-.5 4.5-1.2 4.7-.9.3-1.3-1-1.3-4.7s.4-5 1.3-4.8c.7.3 1.2 2.2 1.2 4.8M630.4 868.7c-.3 1.6-1 4.4-1.5 6.3-1.2 4.6-1.1 7.3.1 6.5.6-.3 1-1.7 1-3.1 0-1.9.5-2.5 1.8-2.2.9.2 1.8 1.2 1.8 2.3.3 3.7.4 3.9 1.5 2.8.9-.9.9-2.3.1-5.5-.6-2.4-1.3-5.5-1.7-7.1-.3-1.5-1-2.7-1.5-2.7s-1.2 1.2-1.6 2.7m1.3 5c-.4.3-.7 0-.7-.7s.3-1 .7-.7c.3.4.3 1 0 1.4M586.5 873c-.3.5 0 1.3.9 1.6 2.1.8 6.1.1 6.1-1.1 0-1.4-6.2-1.9-7-.5M300.7 875.7c-.2.5-.3 5.7-.3 11.8l.1 11 43.8.3 43.8.2-.3-11.7-.3-11.8-43.2-.3c-23.7-.1-43.3.1-43.6.5m84.1 11.5.3 9.8H304v-20l40.3.2 40.2.3z"/><path d="M311.9 878.5c0 .3-.1 4-.1 8.2-.1 5.3.3 7.8 1.1 7.8.6 0 1.1-.3 1.1-.8v-8.2c0-4.3-.4-7.5-1-7.5-.5 0-1 .2-1.1.5M321 879.5c-1.6 1.9-.3 4 1.6 2.4 1.1-.9 1.4-.8 1.4.3 0 .8-.5 1.9-1.2 2.6-.9.9-.9 1.5 0 2.4 1.5 1.5 1.6 4.8.2 4.8-.5 0-1-.7-1-1.5s-.4-1.5-1-1.5c-1.7 0-1.1 3.9.8 4.9 3.3 1.8 4.6-.2 4.4-7-.2-7.8-2.3-10.9-5.2-7.4M342.6 880.2c-2.1 3-2.1 11.1 0 13.2.8.9 1.7 1.6 1.9 1.6s1.1-.7 1.9-1.6c2.4-2.3 1.9-6-1-8.3-2.6-2.1-2.5-4.5.1-3.4 1.9.7 1.9-1.1.1-2.6-1.1-1-1.7-.7-3 1.1m3.4 9.3c0 1.6-.6 2.5-1.5 2.5s-1.5-.9-1.5-2.5.6-2.5 1.5-2.5 1.5.9 1.5 2.5M353.8 878.7c-1.2.3-1.8 1.4-1.8 3.1 0 2.5.1 2.5 1.5.6 1.3-1.7 1.4-1.2.8 5.3-.4 4.7-.2 7.3.4 7.3.9 0 1.5-3.6 2.6-13.9.2-2.5-.7-3.1-3.5-2.4M363.7 879.8c-1.7 1.9-2.3 4.2-1.1 4.2.4 0 1.3-.8 2-1.8 2.3-3 1.7 3.2-.7 7.3s-1.7 5.9 2.2 5.3c1.6-.2 2.5-1.1 2.7-2.6.4-2.3-1.3-3.1-2.1-1-.3.7-.6.3-.6-.9-.1-1.2.4-2.5.9-2.8 1.5-.9 1.2-7.1-.3-8.4-1.1-.8-1.8-.7-3 .7M330 887c0 .5 1.6 1 3.5 1s3.5-.5 3.5-1c0-.6-1.6-1-3.5-1s-3.5.4-3.5 1M409.5 888.3c-1.3 2-1.4 3-.5 4.6.6 1.2 1.8 2.1 2.6 2.1.9 0 1.4.6 1.1 1.2-.2.7-1.5 1.2-2.8 1-2.3-.3-2.3-.3-.6 1.5 2.7 2.7 5.1.6 5.5-4.9.2-3.4-.2-4.8-1.7-6.2-1.9-1.7-2-1.7-3.6.7m3.5 2.8c0 .5-.7.9-1.5.9-1.5 0-2-1.2-.9-2.3.8-.8 2.4.1 2.4 1.4M437.2 887.2c-2 2-1.5 6.6.8 7.3 1.1.3 2 1.1 2 1.7s-.9.8-2 .5c-1.3-.3-2 0-2 .9 0 2 2.7 2.9 4.5 1.4 2.8-2.3 1.5-13-1.5-13-.3 0-1.1.5-1.8 1.2m2.8 3.3c0 .8-.4 1.5-1 1.5-.5 0-1-.7-1-1.5s.5-1.5 1-1.5c.6 0 1 .7 1 1.5M464.5 888c-.9 1-1.4 2.4-1 3 .5.8 1.1.6 1.9-.6 1-1.3 1.5-1.4 2.1-.4.4.7.3 1.5-.2 1.9-1.9 1.3-4.1 5.4-3.6 6.7.6 1.6 6.3 1.9 6.3.4 0-.6-.9-1-2-1s-2-.3-2-.6.9-1.7 2-3.1c2.5-3.2 2.5-5.5.1-7-1.6-1-2.2-.8-3.6.7M418.1 889.2c-2 5.3 1.2 12.4 4.4 9.8 2.1-1.8 2.1-10.6-.1-11.4-2.6-1-3.4-.7-4.3 1.6m3.9 4.4c0 1.9-.4 3.4-1 3.4-.5 0-1-1.8-1-4.1 0-2.4.4-3.8 1-3.4.6.3 1 2.2 1 4.1M427 888c-1.2.8-1 1 .9 1 2 0 2.2.4 1.6 2.2-1.4 4.7-1.7 7.6-.6 8.2.7.5 1.1-.2 1.1-1.7 0-1.3.7-3.8 1.6-5.5.8-1.8 1.3-3.6.9-4.2-.8-1.3-3.5-1.3-5.5 0M445 888c0 .5.7 1 1.6 1 1.2 0 1.5.6.9 2.2-1.4 4.7-1.7 7.6-.6 8.2.7.4 1.1-.1 1.1-1.2s.7-3.6 1.5-5.5c2.1-5 1.9-5.7-1.5-5.7-1.6 0-3 .4-3 1M473.7 887.7c-2.8.7-1.9 5.7 1.1 6.1 1.2.2 2.2 1 2.2 1.9 0 1.1-.6 1.4-2.5.9-2.7-.7-3.2.3-1.3 2.2 1.8 1.8 3.6 1.4 5.3-1.2 1.3-1.9 1.4-2.9.5-4.5-.6-1.2-1.7-2.1-2.5-2.1s-1.5-.5-1.5-1c0-.6.7-1 1.5-1s1.5-.5 1.5-1c0-1-1.2-1.1-4.3-.3M491.7 887.7c-.9.8-.9 8.6-.1 10.7.3.9 1.3 1.6 2.1 1.6 3.6 0 5.6-6.8 3.3-11.1-1-1.9-4-2.6-5.3-1.2m3.7 4.8c.7 2.7.1 4.5-1.5 4.5-.5 0-.9-1.6-.9-3.5 0-4.1 1.5-4.7 2.4-1M483.4 891.5c-1.8 3.8-1.3 6.5 1.1 6.5.8 0 1.5.6 1.5 1.2.1.9.5.7 1.3-.3 1.7-2.2 1-10.9-.9-10.9-.7 0-2.1 1.6-3 3.5m2.6 2.5c0 .5-.4 1-1 1-.5 0-1-.5-1-1 0-.6.5-1 1-1 .6 0 1 .4 1 1M454.5 894c-.4.6.8 1 3 1s3.4-.4 3-1c-.3-.6-1.7-1-3-1s-2.7.4-3 1M231.7 905.7c-1.3 1.2-.8 22.1.5 22.9 1.4.9 58.2 1.3 76.1.6l11.7-.5V905h-43.8c-24.1 0-44.2.3-44.5.7M317 917v10h-83v-20h83z"/><path d="M242.5 908.9c-1.5 1.5-.6 16.1.9 16.1 1 0 1.2-1.9.9-7.8-.5-9.4-.6-9.5-1.8-8.3M251.4 909.3c-.3.8-.4 3-.2 4.9.2 2.5.7 3.2 2.1 3 2.1-.4 3.4 2.5 1.9 4-.8.8-1.5.8-2.7-.2-1.3-1.1-1.5-.9-1.5.9 0 3.2 3 3.9 5.2 1.2 2.5-3.2 2.3-5.7-.7-7.7-3.1-2-3.2-3-.4-3.7 1.2-.3 1.9-1.2 1.7-1.9-.6-1.9-4.7-2.2-5.4-.5M273.7 908.6c-.4.4-.7 2.7-.7 5.1 0 4 .2 4.4 2 3.8 1.4-.4 2.2-.1 2.6 1 1 2.5-1.1 4.1-3.2 2.5-1.4-1.2-1.6-1.1-1.2 1 .6 4.5 5 3.6 6.2-1.3.5-2.2.1-3.3-1.9-5.3-2.5-2.5-2.6-3.9-.2-3.9.7 0 1.2-.7 1.2-1.5 0-1.6-3.6-2.6-4.8-1.4M285.2 909.2c-1.5 1.5-1.6 3.8-.2 3.8.6 0 1-.5 1-1.2 0-.9.3-.9 1.2 0s.7 1.6-.7 3.2c-1.6 1.8-1.6 2-.1 2.6 1.7.7 2.3 4.4.6 4.4-.5 0-1-.5-1-1 0-.6-.6-1-1.4-1-1.8 0-1 3.6 1 4.4 3.4 1.3 4.4-.4 4.2-7.3-.1-8.1-1.7-10.8-4.6-7.9M295.8 909.7c-2 2.4-2.3 12.7-.3 14.3 1.8 1.5 5.5.3 5.6-1.8.6-6.7-1-14.2-3-14.2-.4 0-1.5.8-2.3 1.7m3.2 3.3c0 1.1-.7 2-1.5 2-1.5 0-2.1-2.1-.8-3.3 1.2-1.3 2.3-.7 2.3 1.3m.5 7c0 .8-.8 1.6-1.7 1.8-1.3.2-1.8-.3-1.8-1.8s.5-2 1.8-1.8c.9.2 1.7 1 1.7 1.8M261.5 917c-.4.6 1 1 3.5 1s3.9-.4 3.5-1c-.3-.6-1.9-1-3.5-1s-3.2.4-3.5 1"/></svg>