<svg xmlns="http://www.w3.org/2000/svg" viewBox="0 0 992 1402" fill="currentColor"><path d="M732.8 339.5c-1.3 1.4-.9 22 .4 23.3.9.9 12.2 1.2 44.5 1.2H821v-12c0-6.6-.1-12-.2-12-3.8-.6-87.5-1-88-.5m84.9 2.8c.4.4.8 5 1 10.2l.2 9.5H735v-21.2l41 .4c22.5.2 41.3.7 41.7 1.1"/><path d="M742.7 343.7c-.4.3-.7 1.3-.7 2.1 0 1.1.3 1.2 1.4.3 2-1.7 3 .3 1.5 3.1-.9 1.6-.9 2.3 0 2.6 1.3.4 1.5 5.2.1 5.2-.5 0-1.4-.8-1.9-1.8-.9-1.5-1-1.4-1.1.6 0 2.7 2.4 3.9 4.5 2.2 1-.9 1.3-2.8 1.1-7-.2-3.2-.7-6.3-1-6.9-.8-1.2-2.9-1.5-3.9-.4M752.8 345.5c-1.3 3 .3 7.5 2.7 7.5.8 0 1.5.9 1.5 2.1 0 1.6-.4 1.9-2.1 1.4-1.5-.5-2-.3-1.7.6.6 1.9 3.9 2.4 4.9.7 1.2-1.8 1.1-10.5-.1-12.9-1.5-2.6-3.8-2.4-5.2.6m4.2 2.6c0 3.8-2.4 3.5-2.8-.4-.2-1.9.1-2.7 1.2-2.7s1.6 1 1.6 3.1M774.7 343.7c-1 1-.8 4.3.2 4.3.5 0 1.1-.6 1.4-1.3.2-.6.8-.9 1.2-.5s.3 3.1-.3 6-.7 5.7-.3 6.1c.7.7 3.1-10.6 3.1-14.2 0-1.2-4.3-1.5-5.3-.4M786.7 343.7c-.4.3-.7 1.3-.7 2.1 0 1.1.3 1.2 1.4.3 2.1-1.8 3.2.6 1.2 2.8s-2 3.1-.1 3.1c.9 0 1.5.9 1.5 2.5 0 2.7-.9 3.2-2.8 1.3-1.5-1.5-2.4-.6-1.6 1.6.3.9 1.5 1.6 2.5 1.6 2.4 0 4-3.8 2.8-6.2-.5-1-.7-2.9-.3-4.3.8-3.4-1.9-6.8-3.9-4.8M797.2 344.2c-1.8 1.8-1.5 12.3.3 13.8 1.2 1 1.8 1 3 0 2.1-1.7 2-11.3-.1-13.4-1.9-1.9-1.7-1.9-3.2-.4m2.8 6.9c0 4.4-.3 6-1.2 5.7-1.6-.6-2.2-4.1-1.3-8.4 1-5.5 2.5-3.9 2.5 2.7M763.5 350.9c-.7 1.3 1.7 2.4 4 1.9.9-.1 1.6-.8 1.6-1.3 0-1.4-4.8-1.9-5.6-.6M722.4 351.8c-.5.4-2 5.9-3.2 12.2-2.7 13.9-6.9 35.1-11.2 56-1.8 8.5-3.4 16.8-3.7 18.5-.3 1.6-1 3.6-1.5 4.2-.7.9-.4 2.7 1.1 5.9 4.4 9.3 1.9 10.7-12.6 7-5.9-1.5-12.5-3.2-14.5-3.7-4.5-1.1-10.8-4-10.8-5 0-.4 5.4-3.4 11.9-6.8 11.5-5.9 16.3-7.2 17.6-5.1.8 1.3 2.5 1.3 2.5 0 0-.5-1.4-1.7-3-2.5-2.9-1.5-3.3-1.4-9.3 1.5-3.4 1.6-9.8 5-14.2 7.4-8.7 4.8-9.9 6.7-8.4 13.3.4 2.1.6 4.8.3 6-.5 1.9 2.2 6.6 7.6 13 .5.7 1 2.1 1 3.3 0 1.1.5 2 1 2 .6 0 1-1.5 1-3.4 0-3.8.4-4.3 8-8.4 4.2-2.3 5.6-3.8 6.3-6.1.8-3.4 1.7-3.6 8.1-2 3.5.8 5 .8 8.1-.5 3.3-1.4 3.7-1.9 3.2-4.3-.2-1.6-1.1-4.2-1.8-6-1.1-2.7-1-4.7 1-14.5 2.3-10.9 5.1-25 7.1-35.3 4.4-22.5 8.9-43.5 9.4-44.4.4-.6 2.3-1.1 4.2-1.1 2.1 0 3.3-.4 2.9-1-.7-1.2-6.5-1.3-8.1-.2m-43.9 102.7c10.3 2.4 9.6 2 8.1 5.5-.7 1.7-2.4 3.7-3.7 4.4s-4.3 2.4-6.6 3.9c-2.4 1.5-4.5 2.7-4.8 2.7-1 0-5.3-9.7-6.5-14.7-1.5-6.7-.8-7.9 3.3-5.4 1.8 1 6.4 2.7 10.2 3.6M644.5 369.1c-5.5 2.8-11.1 6.2-12.5 7.4-1.4 1.3-7.2 4-13 6s-11.4 4-12.5 4.5c-1.1.4-5.4 2-9.5 3.3-4.1 1.4-12.7 4.4-19 6.7s-13.5 4.8-16 5.6-5.2 1.9-6.1 2.3c-.8.5-6.9 3.7-13.5 7.2-6.5 3.4-19.8 10.5-29.4 15.7-35 19-39.1 20.9-47.4 22.6-4.3.9-9.6 1.6-11.7 1.6-3.9 0-3.9 0-3.9-4.9 0-2.8-.4-5.3-1-5.6s-1-5.2-1-11c0-10.4 0-10.4-4.2-13.3-2.4-1.6-6.8-4.2-9.8-5.9s-7.9-4.5-10.9-6.2c-4.6-2.8-5.8-3.1-7.6-2.1s-2.8.7-6.6-1.8c-2.4-1.6-6.3-4.1-8.6-5.6-2.4-1.4-4.3-3.3-4.3-4.1 0-1.6-7.9-7.1-17.1-11.9l-5.4-2.9-18 10.3c-24.6 14.1-27.5 15.8-39.3 22.8-5.6 3.4-10.5 6.2-10.9 6.2s-1.4.6-2.2 1.4c-.9.7-3.6 2.5-6.1 3.8-5.5 3.1-9.1 5.1-20 11.5-21.3 12.5-20.9 12.2-21.8 15.6-.7 2.5-1.7 3.5-5 4.7-6.9 2.6-12.3 8.9-15.2 17.7-.7 2.4-2.1 4.5-3 4.8-2.2.7-7.8 6.6-8 8.5-.4 3 .1 3.7 4.9 5.9 4.6 2.2 4.9 2.6 6.1 7.9 1.2 5.4 4.8 14.7 4.9 12.7.1-.6-.8-3.5-1.9-6.5-1.9-5.2-2.6-10-1.5-10 .3 0 3.7 1.6 7.5 3.5 4 2 8.4 3.5 10.4 3.5 1.9 0 3.8.6 4.3 1.2.4.7 1.3 4.7 1.9 8.8l1.1 7.5.2-7.6c.1-6.4-.2-7.9-1.9-9.4-1.5-1.3-2-3.1-2-6.7 0-2.6-.4-4.8-1-4.8-.5 0-1 2-1 4.5 0 4.3-.1 4.5-3 4.5-2.6 0-8.4-2.6-23.7-10.5-1.8-.9-3.5-2-3.8-2.5-1-1.7 1.5-5.9 4.5-7.5s3-1.6 3 2c0 2.4.9 4.4 2.9 6.7 1.6 1.8 3.3 3 3.6 2.6.4-.4-.7-1.9-2.5-3.4-2.9-2.5-3.2-3.1-2.7-6.9 1.9-13.3 8.4-22.9 17-24.9 2.6-.6 2.7-.5 2.7 3.8 0 2.6.6 4.8 1.5 5.6 1.1.9 1.5 4.1 1.8 12.8l.3 11.7.2-11.8c.1-8.4-.2-12.4-1.1-14-1-1.6-1.2-4.2-.8-9.2l.6-6.9 12-7.3c6.6-3.9 13.1-7.8 14.5-8.5 1.3-.7 8.3-4.8 15.3-9.1 7.1-4.2 13-7.7 13.2-7.7s11.2-6.4 24.6-14.1c13.4-7.8 26.9-15.5 29.9-17.2 3-1.6 5.9-3.3 6.4-3.8.4-.4 2.2.1 4 1 1.7 1 6.2 3.5 10 5.6 4.4 2.5 7.6 5 8.8 7.2 1.1 1.8 3 3.9 4.1 4.5 1.2.6 4.5 2.6 7.5 4.5l5.3 3.4-14.8 8.6c-8.1 4.7-16.1 9.3-17.8 10.3-1.6 1-7 4.1-12 7-11.3 6.6-14.9 8.6-20.5 11.8-2.5 1.4-11.9 6.8-21 12s-17.5 10-18.7 10.7c-1.2.6-3.1 2.2-4.1 3.5-1.9 2.3-1.9 2.3-6.8-.5-2.7-1.5-6.6-3.7-8.6-4.9-2.8-1.6-3.8-2.8-4-5-.3-3-3.5-5.4-15.2-11.7-6.7-3.6-2.9-.2 5.2 4.6 6.2 3.7 8 5.3 8.8 7.8.7 2.5 2.7 4.2 9.7 8.5 8.2 5 9 5.3 10.6 3.8 2.3-2.1 4-2 7.1.4 1.4 1.1 2.8 2 3.2 2 .3 0 4.6 2.4 9.5 5.4 8.8 5.4 8.8 5.4 9.1 12 .2 3.9.7 6.6 1.4 6.6s.9-2.2.6-6.1c-.4-6.2-.4-6.2 3.6-8.6 9.2-5.5 16.5-9.7 22.6-13s18.2-10.2 31-17.8c3-1.8 7.6-4.4 10.3-5.9 2.6-1.4 6.8-3.8 9.5-5.3 22.6-12.7 34.6-19.3 34.9-19.3.1 0 .3 3.9.3 8.7.1 5.7.6 9.7 1.5 11.3.8 1.4 1.4 5.2 1.5 8.5 0 6.1 0 6.1-3.3 5.7-4-.5-11.3 2.7-15.6 6.9-1.7 1.6-3.8 2.9-4.6 2.9-2.9 0-8.3 2.8-12.4 6.5-2.2 2-4.5 3.4-5.1 3-1.6-1-7.8 1.4-11.3 4.4-1.8 1.5-5.4 3.9-8.2 5.3-2.7 1.4-8.1 4.4-11.9 6.7-3.8 2.4-8.4 5.1-10.2 6.2-1.9 1-5.1 2.9-7.1 4-2.1 1.2-6.3 3.5-9.3 5.2-7.4 4-7.9 4.6-8.5 9.7-.5 4-.3 4.9 2.3 7.7 4.1 4.5 5 4.2 1.3-.4-5.8-7-4-10.4 9.3-17.8 13.7-7.6 17.6-9.8 28.2-16.1 5.1-3 9.6-5.4 10.1-5.4.6 0 1.8-.9 2.9-2.1 2.7-3 6.8-4.9 10.7-4.9 2.3 0 4.2-.9 6.3-2.9 3.6-3.6 9.8-7.1 12.4-7.1 1.1 0 2.8-.8 3.8-1.8 3.5-3.5 8-6.2 12.5-7.3 3.9-1.1 4.8-1 7.1.4 2.1 1.4 2.6 2.6 2.6 5.6 0 5.8 5.8 22.7 8.9 26 1.5 1.6 7.4 5.2 13.1 8.1 5.7 2.8 11 5.8 11.8 6.6 2 2 2.5 8.4 1 11.4-.9 1.6-3.7 3.4-8.3 5.3-3.9 1.6-10.6 4.4-15 6.2s-11.8 4.8-16.4 6.6c-4.7 1.8-8 3.4-7.5 3.6.6.2 4.1-.8 8-2.3 11.2-4.2 10.9-4.2 12.2.8 1.3 5.5 3.2 16.9 3.2 19.7 0 3.2-4.6 7.4-7.5 6.9-2.5-.5-3.5.7-3.5 4.5 0 1.2-.9 3.7-2 5.4-1.1 1.8-1.5 3.3-1 3.3 1.2 0 5-7.3 5-9.5 0-.8.8-1.5 1.9-1.5 2.2 0 7.1-3.7 7.1-5.3 0-.7 1.5-3 3.4-5.2 1.8-2.2 8.8-10.6 15.5-18.7 13.4-16.1 10.6-14.1 58.6-42.1 7.2-4.2 16.3-9.9 20.3-12.8 8.9-6.4 22.1-19.3 28.2-27.4 2.5-3.3 4.7-6.2 5-6.5s2.1-2.5 4-5 4.1-5.2 4.7-6c.7-.8 3.2-4 5.5-7.1 14.3-18.7 17.8-21.8 21.1-19.1 2.1 1.8 9.1-2.7 9.5-6.1.4-3.2.2-3.1 3.7-1.3 2.6 1.4 3.2 1.3 7.8-1 2.7-1.4 5-2.4 5-2.2 2 4.1 3.5 6.2 4.7 6.6 1.3.4 1.2.2-.1-1.4-2.6-3.1-3-6.3-.9-7.4 3.1-1.7 5-4.1 5-6.4 0-1.3 1.2-3.1 3.1-4.5 2.9-2.2 3.1-2.6 2.5-6.9-1.1-8.1-7.5-16.2-12.8-16.2-.7 0-5.8 2.3-11.3 5.1m17.3-.1c3.4 3.2 5.6 9 5 13.4-.2 2.3-1.3 3.5-4.5 5.2-2.4 1.2-4.9 2.4-5.5 2.7-.7.2-1 .7-.6 1.1.3.4 1.6.3 2.7-.4 1.8-.9 2.1-.8 2.1.9 0 2.3-3.2 4.7-11.3 8.4-4.5 2.1-6.2 2.5-7.7 1.7-2.8-1.5-2.5-2.8.7-3.2 4.2-.5 6-4.9 4.4-10.8-1.4-5.3-4.9-10.8-7.4-11.6-2.9-.9-1.6-2.2 6.3-6.4 9.2-4.7 11.8-4.9 15.8-1m-21.9 9.5c4 3.4 6.1 7.9 6.1 13 0 4.4-1.7 6.9-4.1 6-2.5-.9-5.9 3.2-5.9 7.2 0 2.6-5.9 5.4-8.1 4-2.4-1.5-6.9.7-9.6 4.6-1.3 1.8-3.1 4.2-4 5.3-1 1.1-3.2 3.8-4.9 5.9-28.1 36.2-32.8 41.6-45.5 52-5.5 4.6-20.3 14.1-33.6 21.7-6 3.3-23.2 13.4-34.7 20.2-1.7 1-4.2 3.2-5.6 4.9s-5 6-8 9.7-8.1 9.9-11.3 13.9c-3.2 3.9-6.2 7.1-6.7 7.1s-1.1-1.2-1.4-2.8c-.6-3-2.5-14.7-2.9-17.6-.2-1.5 1.7-2.7 9.3-5.8 17.9-7.3 19.6-8.7 19.4-16.5-.1-5.8-2-7.6-14.2-13.6-5.6-2.8-11.4-6.2-12.8-7.6-3-3-6.9-13.7-8.4-23.1-.5-3.6-1.3-7.9-1.6-9.6-.6-3.1-.6-3.1 6.3-3.7 10.4-.9 23-5.7 37.3-14.1 1.4-.8 7.5-4.2 13.5-7.4 10.3-5.5 14.1-7.6 34.3-18.3 4.2-2.3 8.2-4.5 8.7-5 1.8-1.4 15.6-6.4 64.4-23.4 10-3.5 15.8-6.1 16.8-7.4 1.9-2.7 3.5-2.6 7.2.4m-217.2 28.1c12.1 6.7 21.4 12.7 21.1 13.6-.4 1-1.7 1.8-13.8 8.5-10.6 5.8-15.8 8.8-50 28.3-43 24.6-45.6 26-47.1 26-.6 0-4.8-2.2-9.3-4.9-4.5-2.6-10-5.8-12.3-7-2.4-1.2-4.3-2.5-4.3-3s5.1-3.7 11.3-7.1c6.1-3.5 13.2-7.5 15.7-9.1 3.9-2.3 10.1-5.9 33-18.7 2.5-1.4 9.2-5.3 15-8.7s15-8.8 20.5-12 10.9-6.4 12-7.1c2.7-1.8 2.8-1.8 8.2 1.2M761.3 369.7c-.7.2-1.3 1.8-1.3 3.5 0 2.2.6 3.1 2 3.5 2.5.7 2.2 3.9-.3 3.5-.9-.2-1.7.1-1.7.7 0 1.4 2.3 1.9 4.3.9 3-1.5 1.9-13.2-1.2-12.7-.4 0-1.2.3-1.8.6m2.7 4.4c0 2-1.5 2.6-2.5.9-.9-1.5.3-4.3 1.5-3.5.5.3 1 1.5 1 2.6M770 370.4c-1.8 2.3-.8 6.1 1.8 6.4 1.2.2 2.2 1 2.2 1.8 0 1.4-1.2 1.8-3.9 1.5-.7-.2-1 .2-.6.8 1 1.8 4.3 1.2 5.5-.8 1.4-2.8 1.2-6.3-.6-8.9s-2.7-2.7-4.4-.8m3.5 3.1c0 1-.6 2-1.2 2.2-.8.3-1.3-.5-1.3-2.2s.5-2.5 1.3-2.3c.6.3 1.2 1.3 1.2 2.3M788.6 370.6c-.9.8-1.3 2-1 2.6.4.6.7 2.7.8 4.7.1 3.1.4 3.6 2.6 3.6 2.3 0 2.5-.4 2.7-5 .2-6.8-1.8-9.2-5.1-5.9m3.4 1.9c0 .8-.7 1.5-1.5 1.5-1.6 0-2-1.2-.8-2.3 1.1-1.2 2.3-.8 2.3.8m.8 6.3c.2.7-.6 1.2-1.7 1.2-2.1 0-2.7-1.1-1.4-2.4.9-.9 2.6-.2 3.1 1.2M835.5 370.6c-1.5 1.6-2 3.4-.9 3.4.4 0 1.3-.8 2-1.8 1.2-1.6 1.3-1.6 1.9 0 .4 1.1-.1 2.8-1.4 4.4-2.5 3.2-2.7 5-.5 5.8 2.3.9 3.4.7 3.4-.4 0-.6-.7-1-1.5-1-2 0-1.9-1.7.4-4.6 3.2-4 .1-9.3-3.4-5.8M845.2 370.2c-1.7 1.7-1.5 9.4.3 11.2 2.8 2.8 4.5.9 4.5-5 0-4.2-.4-5.5-1.8-6.3-1.3-.7-2.3-.6-3 .1m3.2 2.4c.3.9.6 2.9.6 4.6 0 4-3.4 3.6-3.8-.5-.6-4.9 1.8-7.9 3.2-4.1M778.5 371c.3.5 1.3 1 2.2 1 1.1 0 1.3.5.8 1.7-1.3 3-1.8 8.3-.7 8.3.5 0 1.2-1.5 1.5-3.3.3-1.7.9-4.4 1.2-6 .7-2.5.5-2.7-2.4-2.7-1.9 0-3 .4-2.6 1M799 374c-2.3 4.4-2 6 1.1 6 1 0 1.9.6 1.9 1.2.1.9.3.8.9-.2 1-1.9.2-11-1-11-.5 0-1.8 1.8-2.9 4m3 2.5c0 .8-.7 1.5-1.5 1.5-1.6 0-2-1.2-.8-2.3 1.1-1.2 2.3-.8 2.3.8M817.1 371.4c-.9 1-.8 1.5.4 2 1 .3 1.5 1.9 1.5 4.6 0 2.3.3 3.9.8 3.7.9-.6.3-11.7-.8-11.7-.4 0-1.3.6-1.9 1.4M825.4 372.5c-1 4 .4 9.5 2.4 9.5 3.8 0 5.6-5.6 3.2-10.1-1.5-2.8-4.8-2.4-5.6.6m4.6 3.6c0 2.6-.4 3.9-1.4 3.9-1.8 0-2.9-5.9-1.5-7.6 1.7-2.1 2.9-.7 2.9 3.7"/><path d="M741.9 382.7c-1.7 3.8-4 9-5.1 11.8-1.1 2.7-3 7.3-4.4 10.3-1.3 2.9-2.4 5.4-2.4 5.7s-10.8 26.1-13.4 32c-.8 1.6-2.6 5.9-4.2 9.5s-3.8 8.5-5 10.9c-2.1 4.4-2.1 4.4-2.7 1.3-.5-2.5-1.2-3.2-3-3.2-3.6 0-4.7 1.9-4.7 8.6 0 4.3-.5 6.5-1.5 7.4-1.2 1-1.4 2.4-.9 5.9.9 6 1.9 7.1 6.4 7.1 4.3 0 5.4-.8 3.8-2.7-.8-1-.8-1.7 0-2.5.9-.9 1.2-.7 1.2 1 0 1.2.5 2.2 1 2.2.6 0 1-.8 1-1.9 0-1 .3-3.2.6-4.8.5-2.3.1-3.5-1.6-5.1-2.6-2.4-2.4-3 3.1-15 2.2-4.6 3.9-8.6 3.9-8.8s1.1-2.7 2.4-5.6 4-9.4 6-14.3c2.1-5 4.6-11 5.8-13.5 1.1-2.5 2.6-6.1 3.3-8 1.8-4.9 12.8-30.2 13.8-31.8.5-.7 3-1.2 6.3-1.2 3 0 5.4-.5 5.4-1 0-.6-2.7-1-6-1-6.1 0-6.1 0-9.1 6.7M702.5 463c.3.5-.1 1-.9 1-.9 0-1.6-.5-1.6-1 0-.6.4-1 .9-1 .6 0 1.3.4 1.6 1m.5 4c0 .5-.9 1-2 1s-2-.5-2-1c0-.6.9-1 2-1s2 .4 2 1m0 4c0 .5-.9 1-2 1s-2-.5-2-1c0-.6.9-1 2-1s2 .4 2 1m0 4c0 .5-.9 1-2 1s-2-.5-2-1c0-.6.9-1 2-1s2 .4 2 1m0 4c0 .5-.9 1-2 1s-2-.5-2-1c0-.6.9-1 2-1s2 .4 2 1m4 .9c0 2.2-1.9 3.1-6.5 3.1-3.6 0-6.5-2.3-4.4-3.6.6-.4 1.6 0 2.1 1 1.2 2.2 4.5 2 6-.4 1.6-2.5 2.8-2.6 2.8-.1m-9 5.7c0 .8-.5 1.2-1 .9-.6-.4-.8-1.1-.5-1.6.9-1.4 1.5-1.1 1.5.7m4.8 1.2c.2.7-.3 1.2-1.2 1.2s-1.6-.7-1.6-1.6c0-1.7 2.2-1.4 2.8.4M808 377c0 .5.9 1 2 1s2-.5 2-1c0-.6-.9-1-2-1s-2 .4-2 1M807 408v12h87v-24h-87zm85 .2v10.3l-40.7-.3c-22.4-.2-40.9-.4-41-.6-.1-.1-.5-4.5-.8-9.9l-.6-9.7H892z"/><path d="M817.3 399.7c-1.5.5-1.7 3.3-.3 3.3.6 0 1-.5 1-1.2 0-.9.3-.9 1.2 0 1 1 1 1.7-.1 3.4-1.1 1.8-1.1 2.2.3 3q2.7 1.5.6 4.8c-.8 1.3-1.1 1.2-2.4-.5s-1.5-1.7-1.6-.4c0 2.7 2.7 4.4 4.5 2.9 1.2-1 1.4-2.7 1.1-6.9-.3-3.1-.5-6.1-.5-6.7-.1-1.4-2.1-2.3-3.8-1.7M827 400.9c-1.6 3.1-1.2 5 1.6 7.8 1.6 1.5 2.3 3.1 1.9 4.1-.5 1.4-.7 1.4-1.5.2-.5-.8-1.2-1.1-1.6-.7-.4.3-.1 1.4.6 2.2 1.2 1.4 1.5 1.4 2.8.1 2-2 2.1-13.4.1-14.7-2.1-1.3-2.7-1.1-3.9 1m3.8 4c.3 2.4 0 3.2-1 2.9-.7-.3-1.4-1.9-1.6-3.7-.3-2.4 0-3.2 1-2.9.7.3 1.4 1.9 1.6 3.7M847 402.2c0 1.7.3 1.9 1.2 1 2.3-2.3 2.9-1.1 2.4 5.5s-.5 6.7.5 1.8c.5-2.8 1.3-6.2 1.8-7.8.9-2.6.8-2.7-2.5-2.7-2.8 0-3.4.4-3.4 2.2M858.6 401.5c-.8 2.3-.8 3.5.3 3.5.5 0 1.1-1 1.5-2.3.5-1.7.8-1.9 1.5-.8.9 1.4.1 5.3-1.8 8.9-1.8 3.4-1.4 5.2 1.4 5.2 1.8 0 2.5-.5 2.5-2 0-1.3-.5-1.8-1.5-1.4-1.9.8-1.9-1 .1-4.1 2.2-3.3 1.5-7.9-1.2-8.3-1.3-.2-2.4.4-2.8 1.3M870.5 404.9c-2.5 5.1-2.5 5.1 0 6.1 1.4.5 2.5 1.6 2.3 2.4s.2 1.4.7 1.3c.9-.2.9-13.6 0-14.5-.2-.2-1.5 1.9-3 4.7m2.5 2.5c0 1.6-1.8 3.1-2.7 2.2-.8-.8.5-3.6 1.7-3.6.5 0 1 .6 1 1.4M837.5 408c.3.5 1.7 1 3.1 1 1.3 0 2.4-.5 2.4-1 0-.6-1.4-1-3.1-1s-2.8.4-2.4 1M664 410c1.4 1.1 3.2 2 4 2 1 0 .7-.7-1-2-1.4-1.1-3.2-2-4-2-1 0-.7.7 1 2M674 415c0 1 4 4 5.2 4 1.7 0 .6-1.6-2.2-3.2-1.7-.9-3-1.3-3-.8M684 421c0 1.4 4.7 4.3 6.1 3.8.7-.2-.4-1.4-2.4-2.6-2.1-1.2-3.7-1.7-3.7-1.2M789.5 424.6c-3.8 2.4-7.9 4.8-9.1 5.3-2.9 1.3-15.2 14.8-16.8 18.5-.7 1.7-1.8 4.3-2.4 5.7-.9 2.3-10.2 10.3-23.7 20.5-3.7 2.8-12 7.1-24 12.4-2.7 1.3-9 4.2-14 6.6-4.9 2.4-9.3 4.4-9.6 4.4-1.9 0-13.8 6.3-13.4 7.1.6.8 2.5.1 17-6.6 4.4-2.1 12.5-5.8 18-8.2 17.8-7.9 29.6-14.7 35.7-20.6.7-.7 3.3-2.8 5.8-4.7s5.1-4 5.8-4.7 1.5-1.3 1.7-1.3c1.1 0 7.5 3.5 7.5 4 0 .4-2.1 2.4-4.7 4.6-21.2 17.8-26.3 21-42.8 27.2-15.7 6-24.1 9-28 10.1-2.2.7-4.9 1.6-6 2.1s-3.8 1.7-6 2.6c-3.3 1.4-3.6 1.8-1.9 2.1 3 .6 5.8 3.9 5 5.9-.6 1.5-1 1.4-3.6-1.1-3.5-3.4-4-2-.8 2 2.2 2.8 2.2 2.8 0 4.3-1.2.8-2.2 1.9-2.2 2.4 0 1.3 4-1.1 6.5-4 1.8-2.1 2.6-2.4 3.7-1.5 1.9 1.7 6.2-.6 6.6-3.5.4-2.7 1.3-2.8 3-.2.7 1.1 2.2 2 3.5 2.1 2.1 0 2.1.1.2.9-1.1.5-6.6 2.6-12.2 4.7-5.7 2.1-10.3 4.4-10.3 5.1 0 .8.5.9 1.8.3 1.7-.9 14.1-5.8 41.2-16 25.2-9.6 27.5-11 45.7-29.2 16.2-16.1 16.2-16.1 18.7-14.2 1.4 1 2.6 2.1 2.6 2.4 0 1-37.7 37-41.4 39.5-3.2 2.2-5.2 2.9-17.6 5.9-16.7 4.2-21.6 5.5-31.2 8.8-13.5 4.7-19.8 7.4-19.8 8.7 0 1.2 1.3 1.3 2.6.1.9-.8 17.4-7.1 18.7-7.1.4 0 .8 8.7.9 19.2.2 21.4.5 20.4 1.6-4.1l.7-16.4 11.5-3.2c6.3-1.8 14.2-3.8 17.5-4.5 13.5-2.8 14.8-3.7 37.2-25.5 17.8-17.2 27.5-25.5 29.8-25.5.3 0 .5 1.3.5 3 0 1.6.5 3 1.1 3q1.2 0 .6-3.6c-.6-3.8-.2-4.7 4.6-7.7 1.5-1 2.7-2.2 2.7-2.7s-1.9-2.2-4.2-3.6c-4.4-2.8-11.1-3.5-13.2-1.4-.6.6-2.3 1-3.8 1-3.2 0-4.4-2.9-3.4-8.3.8-4.1 2.8-5.9 13.1-12.2 4.4-2.6 9-5.4 10.2-6.1 1.3-.8 2-2 1.7-2.8-.8-2-8-6.6-10.1-6.5-1 0-4.9 2-8.8 4.5m6.7 6.1c2 2.1 2 2.1 0 3.2-2.9 1.5-3.2 1.4-3.2-1.4 0-1.6-.9-2.9-2.7-3.8-2.7-1.4-2.7-1.4.3-3 2.8-1.5 2.9-1.4 3.2.6.2 1.2 1.3 3.2 2.4 4.4m6.8-5.2c0 1-1.1 1.5-3.5 1.5s-3.5-.5-3.5-1.5 1.1-1.5 3.5-1.5 3.5.5 3.5 1.5m4 1.6c0 .5-.7.9-1.5.9-1.5 0-2-1.2-.9-2.3.8-.8 2.4.1 2.4 1.4m-4 2c0 1.2-3.5 2-5.4 1.3-2.7-1-1.8-2 1.9-2 1.9 0 3.5.3 3.5.7m-11.5 2.4c0 .5-1.7 1.1-3.7 1.3-3 .3-3.8 0-3.8-1.3s.8-1.6 3.8-1.3c2 .2 3.7.7 3.7 1.3m-8.2 3.5c.4 1.8 1.3 3 2.3 3 2.2 0 1.7.8-4.8 6.9-6.1 5.7-8.6 6.2-12.3 2.5-1.4-1.5-1.2-2 3.1-6.8 5.8-6.3 9.6-9.6 10.5-9.1.3.3.9 1.8 1.2 3.5m7.2 1c-.3.5-1.5 1-2.5 1s-2.2-.5-2.5-1c-.4-.6.7-1 2.5-1s2.9.4 2.5 1m-9 13.8c-.8 3.7.8 7.9 3.3 8.7 1.2.3 3.7-.3 6.1-1.6 6.6-3.4 7-1.6.6 2.7-3.2 2.1-13.5 11.3-22.9 20.3s-19.3 17.9-22.1 19.7c-5.2 3.4-33.2 15-34.1 14.2-.7-.7 1.7-5.8 2.7-5.8.4 0 1.1.4 1.4 1 1.4 2.2 5.3 1 6.7-2 1.1-2.6 1.8-3 5.4-3 5.2 0 9-2.8 11.5-8.8 1.1-2.4 1.9-4.9 1.8-5.6-.4-3.6.3-3.9 2.4-1.2 1.9 2.4 2.8 2.8 5 2.2 3.9-.9 8.7-8 8.7-12.6 0-2.7.7-4.2 2.6-5.9 2.5-2.2 2.7-2.2 4.5-.5 1.9 1.7 2.1 1.7 5.3 0 2-1.1 4.1-3.5 5.4-6.2 2.2-4.6 2.9-9.4 1.3-9.4-2.3 0-2-3.5.6-6.2 3.4-3.6 4.6-3.6 3.8 0m-11.5.7c4 2.5 4 2.5 2 6.5-1.1 2.2-2.3 4-2.7 4-.3 0-2.1-1-4-2.1-2.4-1.5-3.2-2.6-2.8-3.8.4-.9 1.2-2.8 1.7-4.4.5-1.5 1.2-2.7 1.4-2.7s2.2 1.1 4.4 2.5m6 8.9c0 5.1-6.2 12.8-9 11.1-1.7-1.1-1.1-3.4 1.4-5 1.3-.8 3.1-3.3 4.1-5.5 1.9-4.2 3.5-4.4 3.5-.6m27-1.6c2.2 1.4 2.7 2.1 1.8 3-.8.8-1.5.5-2.8-1.1-1.5-1.8-2-1.9-3.4-.8-1.5 1.3-1.5 1.5.1 3.3 1.7 1.9 1.6 2-.7 3.9-1.4 1-3.1 1.9-3.7 1.9-1.6 0-5.7-4-4.9-4.7.6-.6 9.9-7.2 10.3-7.2.2-.1 1.6.7 3.3 1.7m-2 2.7c0 .3-.2.5-.5.5s-.5-.2-.5-.5.2-.5.5-.5.5.2.5.5m-10.2 7.2c.2.8-.6 1.3-2.2 1.3-1.7 0-2.6-.5-2.6-1.6 0-1.9 4.1-1.6 4.8.3M756 479c0 3.5-5.3 10-8.1 10-3.7 0-2.3-4.5 2.9-8.9 2.6-2.2 4.8-4 5-4.1.1 0 .2 1.3.2 3m-17.3 15.2c-.8 1.9-2.5 4.5-3.8 5.7-2.8 2.6-6.3 2.9-5.5.3.3-.9.8-3 1.2-4.5.7-2.9 7.2-7.2 8.7-5.8.5.5.2 2.4-.6 4.3m-10.1 3.3c-.7 1.9-1.5 3.8-1.9 4.1-1.1 1.1-.8-3.5.3-5.7 1.8-3.2 2.8-2.1 1.6 1.6m-4.1 1.7c-1 4.7-3.3 8.8-4.9 8.8-1.8 0-6.8-5.9-6.3-7.4.4-1.1 8.1-4.4 10.5-4.5 1-.1 1.2.8.7 3.1m-12.2 3.8c2 2.4 2.2 4 .4 4-1.4 0-4.7-3.5-4.7-5 0-1.7 2.5-1.1 4.3 1m-3.9 3.1c1.4 1.7 2.6 3.7 2.6 4.5 0 1.6-5 4-10.2 5.1-2.9.6-3.1.5-2.4-1.8.4-1.3 1.1-3.9 1.6-5.8 1.5-5.9 4.6-6.6 8.4-2m-9.8.5c-.3.9-.6 2.4-.6 3.5 0 1-.7 1.9-1.5 1.9-1.7 0-2-2.3-.5-5.1 1.3-2.3 3.5-2.6 2.6-.3m-4.9 3.1c-1.8 9-4.7 10.6-8.6 4.8-1.3-2-2.2-3.7-2-3.9.5-.4 9.2-3.4 10.3-3.5.5-.1.6 1.1.3 2.6M850 441.7c.2 10.4.2 23.6.1 29.5L850 482h-9.5c-10.8 0-14.5-1.2-14.5-4.7 0-1.2-.4-2.3-1-2.3-.5 0-1 1.1-1 2.4 0 1.7-.9 2.7-2.9 3.6-6.9 2.8-3.5 9 4.9 9 2.9 0 7-2.9 7-5 0-.5 4.2-1.1 9.3-1.2l9.2-.3.3-30.3c.2-22-.1-30.2-.9-30.2s-1.1 5.3-.9 18.7m-19.6 41.8c1.6 1.2 1.7 1.7.6 3-.7.8-1.9 1.5-2.7 1.5-1.3 0-1.3-.3-.3-1.5s1-1.8 0-3c-1.6-1.9-.1-1.9 2.4 0m-9 .7c-.4.6.1 1.7 1.1 2.5 1.6 1.1 1.6 1.3.3 1.3-.8 0-2.1-.7-2.8-1.5-1.2-1.5-.6-3.5 1.1-3.5.6 0 .7.5.3 1.2m5.6.8c0 .5-.9 1-2 1s-2-.5-2-1c0-.6.9-1 2-1s2 .4 2 1M694 426.9c0 .5 1.6 2.1 3.5 3.5 2.6 2 3.5 2.3 3.5 1.2 0-.8-1.3-2.4-2.9-3.5-3.2-2.3-4.1-2.6-4.1-1.2M700 438.4c0 2 .4 3.5.9 3.2.4-.3.7-1.7.5-3.2-.4-4.1-1.4-4.1-1.4 0M111 440.5c0 .3.2.5.5.5s.5-.2.5-.5-.2-.5-.5-.5-.5.2-.5.5M683.8 441.7c-2.7.7-2.2 4.2.6 4.9 2.9.7 4.6-.1 4.6-2.1 0-1.8-2.9-3.3-5.2-2.8m3.2 2.3c0 .5-.7 1-1.5 1s-1.5-.5-1.5-1c0-.6.7-1 1.5-1s1.5.4 1.5 1M700 447.8c0 1.7-.6 3.2-1.5 3.6-3.6 1.3-.2 5.9 3.6 4.9 2.3-.6 2.5-3.6.3-5.4-.8-.7-1.3-2.1-1.1-3.1.3-1 .1-2.1-.4-2.4s-.9.8-.9 2.4m2 6.2c0 .5-.4 1-.9 1-.6 0-1.3-.5-1.6-1-.3-.6.1-1 .9-1 .9 0 1.6.4 1.6 1M262.2 476.7l.2 12.8.3-11.8c.2-7.5.7-11.7 1.4-11.7 1.5 0 13.2 6.2 14.2 7.5.4.5.6 5.9.5 12l-.3 10.9-4.5 1.1c-2.5.6-4 1.4-3.4 1.7 1.7 1.1 9.2-1.3 9.6-3 .2-1 .2-6.7 0-12.8l-.4-11.2-7.6-4.1c-4.1-2.3-8.1-4.1-8.9-4.1-1 0-1.3 2.7-1.1 12.7"/><path d="M820.5 469.9c-.3.6.2 1.1 1.4 1.1 1 0 2.2.6 2.5 1.2.3.7.5.4.3-.7-.2-2.2-3.1-3.2-4.2-1.6M813.2 474.2c-3 1.8-4.2 3.8-2.4 3.8 1.2 0 6.7-4.8 6.2-5.4-.3-.2-2 .4-3.8 1.6M787 480c0 1.6.5 3 1 3 .6 0 1-1.4 1-3 0-1.7-.4-3-1-3-.5 0-1 1.3-1 3M285.4 489c.7 12.4-.2 16.2-3.9 16.8-3.2.6-4.2 2.2-1.4 2.2 5.1 0 6.4-3 6.7-16.2.3-8.4 0-12.4-.8-13.2-1-.8-1.1 1.5-.6 10.4M799 478.9c0 1.7 3.2 4.2 4.7 3.7.8-.3 1.7-.6 1.9-.6s.4-.5.4-1c0-.6-1.1-1-2.5-1s-2.5-.5-2.5-1c0-.6-.4-1-1-1-.5 0-1 .4-1 .9M672 486c0 2.2.5 4 1 4 .6 0 1-1.8 1-4s-.4-4-1-4c-.5 0-1 1.8-1 4M787 492c0 2.2.5 4 1 4 .6 0 1-1.8 1-4s-.4-4-1-4c-.5 0-1 1.8-1 4M672 498.5c0 2.5.5 4.5 1 4.5.6 0 1-2 1-4.5s-.4-4.5-1-4.5c-.5 0-1 2-1 4.5M822.1 497.4c-.9 1-1.1 9.1-1.1 28.1.2 23.9 0 26.8-1.5 28.5-1.9 2.1-1.5 5.8 1.1 9.7 1.6 2.6 6.8 3.1 9.5 1 2.4-1.8 3.3-8.2 1.4-10-1.1-1.1-1.5-3.7-1.5-9.2v-7.6l10.8.3 10.7.3.3 19.3c.1 12.3.6 19.1 1.2 18.7s1-8.1 1-19c0-15.4-.3-18.6-1.6-19.9-1.2-1.3-3.8-1.6-11.9-1.6h-10.3l-.7-18.3c-.4-10-1.1-19-1.6-20-1.2-2.1-4.2-2.2-5.8-.3m4.9 1.6c0 .5-.9 1-2 1s-2-.5-2-1c0-.6.9-1 2-1s2 .4 2 1m1 4c0 .5-1.1 1-2.4 1-1.4 0-2.8-.5-3.1-1-.4-.6.7-1 2.4-1s3.1.4 3.1 1m-.5 4c-.3.5-1.5 1-2.5 1s-2.2-.5-2.5-1c-.4-.6.7-1 2.5-1s2.9.4 2.5 1m0 3.6c0 .5-1 1-2.2 1.2-1.6.2-2.3-.2-2.3-1.2 0-1.1.7-1.5 2.3-1.2 1.2.1 2.2.7 2.2 1.2m.5 3.4c.3 0-.3.5-1.3 1.1-1.8 1-3.7.5-3.7-1.2 0-.7 1.2-.7 5 .1m0 22.5c0 16.8-.2 19.6-1.6 20.2-.8.3-1.9.2-2.4-.3s-1-9.6-1.2-20.2c-.3-19.2-.3-19.2 2.5-19.2 2.7 0 2.7 0 2.7 19.5m-4 21.7c.8.3 2.7-.2 4.2-1 3.1-1.8 4.7-1 2.8 1.3-1.8 2.1-10.6 2.1-11.4-.1-.9-2.3.5-4 1.8-2.2.6.8 1.8 1.7 2.6 2m-2 4.3c0 .3-.2.5-.5.5s-.5-.2-.5-.5.2-.5.5-.5.5.2.5.5m4.8.7c-.6 1.8-2.8 2.1-2.8.4 0-.9.7-1.6 1.6-1.6s1.4.5 1.2 1.2m2.9-.5c-.4.3-1 .3-1.4 0-.3-.4 0-.7.7-.7s1 .3.7.7M783.6 502.2c-1.1 1.5-1.6 4.5-1.6 8.9 0 3.8-.7 8.3-1.6 10.5-3.1 7.6-6.3 14.9-10.8 24.7-2 4.2-3.6 7.9-3.6 8.2s-.9 2.4-1.9 4.8c-1.1 2.3-3.6 8-5.6 12.7-5.8 13.3-7.6 17.1-10.1 22.4-2.3 4.8-2.4 5.9-2.4 26.3 0 13.5.4 21.3 1 21.3s1-7.8 1-21.5c0-21.5 0-21.5 4-30 2.2-4.7 4-8.7 4-9 0-.2 1.4-3.4 3-7 1.7-3.6 3-6.8 3-7s1.1-2.8 2.4-5.7c5.3-11.9 16.5-37.5 17.4-39.9 1-2.4 1.4-2.6 6.4-2.1 6.6.5 9.4-1.7 8.5-7-1.7-10.3-3.3-12.8-8.3-12.8-2.3 0-3.8.7-4.8 2.2m8.9.7c.3.5.1 1.2-.5 1.6-.5.3-1-.1-1-.9 0-1.8.6-2.1 1.5-.7M786 504c0 .5-.4 1-1 1-.5 0-1-.5-1-1 0-.6.5-1 1-1 .6 0 1 .4 1 1m3-.5c0 .3-.2.5-.5.5s-.5-.2-.5-.5.2-.5.5-.5.5.2.5.5m3.8 5.3c-.2 1.3-1.4 1.7-4.3 1.7s-4.1-.4-4.3-1.7c-.3-1.3.5-1.6 4.3-1.6s4.6.3 4.3 1.6m3.2 2c0 .5-1.1 1.4-2.5 2-2.9 1.3-3.3.5-.7-1.4 2-1.5 3.2-1.8 3.2-.6m-9 2.2c.8.5 1.2 1.1.9 1.4s-1.4-.1-2.5-.9c-2.1-1.6-.8-2 1.6-.5m7 2c0 .5-.8 1-1.7 1-1.5 0-1.6-.2-.3-1 1.9-1.2 2-1.2 2 0m-6 1.5c2.5 1.4 2.5 1.4-.6 1.5-1.9 0-3.4-.6-3.8-1.5-.7-1.9 1.1-1.9 4.4 0M656 511.9c-6.9 2.6-15.9 5.6-20 6.6-6.8 1.6-19.3 5.2-35.5 10.2-5.4 1.6-6 2.1-6.3 4.7-.3 2.3 0 2.8 1.3 2.3q1.5-.75 2.7 1.8c1.7 3.7 5.2 4.4 11.6 2.3 3.1-1 5.7-1.6 5.9-1.4.3.2-2.2 3.1-5.4 6.4-3.7 3.8-7 6.2-9.1 6.7-4.4.9-5.1 4.1-2 9.7 1.6 2.9 3 4.3 4.3 4.2 6.1-.4 42.5-14.7 42.5-16.7 0-.5-.7-.6-1.5-.3s-2.3.9-3.2 1.3c-1.3.5-1.5.2-1-1.1.4-1 .1-1.9-.8-2.2-2.2-.9-1.8-3.1.8-3.8 2-.6 2.1-.7.4-1.7-2.2-1.3-4.7.4-4.7 3.2 0 1-.4 2.1-1 2.4-1.4.9-1.2 4.5.2 4.5 3.2 0-1.9 2.4-13.7 6.5-7.1 2.5-13 4.5-13.2 4.5-.1 0-.2-1 0-2.2.1-1.4-.6-2.6-2.1-3.4-2.3-1.1-2.3-1.1 0-1.8 3.8-1 4.8-.7 4.8 1.3s3.2 3.4 5.6 2.4c1.9-.7 1.8-3.3-.3-4.8-1.5-1.2-1.2-1.4 2.7-2.4 9.4-2.3 15-4.2 15-5.2s-4.2-.3-7.2 1.2c-2.5 1.3-2.8 1.1-2.8-2.1 0-3.3-1.3-3.7-5.5-1.8-2.5 1.1-2.7 1.5-2.9 5.3-.1 1.4-1.2 2.2-3.9 2.8-4.7 1.1-5.5.5-2.8-2.2 1.2-1.2 2.1-2.5 2.1-3s1.6-1.8 3.5-3c2.2-1.2 3.5-2.8 3.5-4.1q0-1.95 3.3-3.3c3.2-1.4 3.2-1.4 3.7 2.1 1.2 8.6 9.2 6.6 10.6-2.6.7-5.2 1.9-7.2 4.1-7.2 1.8 0 .8 4.1-1.3 5.3s-1.7 2.7.6 2.7c1.1 0 2 .4 2 1 0 1.5 2.2 1.2 7.9-1.1 5.7-2.4 6.7-5.1 3.1-8.4-2.1-1.9-2.7-5.5-1-5.5 1.6 0 6 7.8 5.4 9.5-.8 2 .4 1.9 4.3-.5 2.7-1.6 3.4-2.9 4.5-8.1 1.1-5.3 2.9-8.1 4.3-6.7.5.5-1.2 6.2-2.7 9.1-1.2 2.5-.4 3.2 1.9 1.6 1.2-1 1.9-3 2.1-6.4.4-8.5 1.3-8.5-18.6-.6-5.3 2.1-7.2 2.1-7.2-.2 0-1.3.5-1.6 15.3-7.3 5.3-2 9.7-4.1 9.7-4.6 0-1.2-.5-1.1-14 4.1m8 8.6c0 3.1-2.6 9.5-3.8 9.5-1.1 0-6.6-8-5.9-8.6.4-.5 7.9-3.2 9-3.3.4-.1.7 1 .7 2.4m-20 1.3c0 2.2-9.8 7.8-11.2 6.4-.5-.5-1-2.2-1.1-3.8-.2-2.4.2-2.9 2.8-3.5 6.1-1.4 9.5-1 9.5.9m-13.8 4.7c.6 2.3.4 3.3-.9 4.2-2.4 1.9-4.2 1.6-3.6-.5.7-2.7-2.1-4.6-4.6-3.3-2.6 1.4-3.1 1.4-3.1-.3 0-.9 1.7-1.9 4.3-2.4 5.9-1.4 6.9-1.1 7.9 2.3m19.7 1.1c2.9 3.7 2.6 5.2-1.1 6.2-1.8.6-4.1 1.3-5 1.7-1.6.6-1.8.1-1.8-3.7 0-7 4-9.1 7.9-4.2m-34.7.6c-.9.9-1.5.9-2.4 0s-.7-1.2 1.2-1.2 2.1.3 1.2 1.2m-5.2.8c0 .5-.4 1-1 1-.5 0-1-.5-1-1 0-.6.5-1 1-1 .6 0 1 .4 1 1m13 1.5c-1.5 1.8-5 2.6-5 1.1 0-1.4 4.1-3.6 5.3-2.9.4.3.3 1.1-.3 1.8m-16.5.5c-.3.5-1.3 1-2.1 1s-1.4-.5-1.4-1c0-.6.9-1 2.1-1 1.1 0 1.7.4 1.4 1m9.2.5c-.5 1.4-2.9 1.3-3.4-.2-.3-.7.4-1.1 1.6-1s2 .6 1.8 1.2m-15.7.4c0 1.2-2 2.5-2.7 1.8s.6-2.7 1.8-2.7c.5 0 .9.4.9.9m11.3.8c.8.7-1.1 3.3-2.4 3.3-.5 0-.9-.9-.9-2 0-1.9 2-2.7 3.3-1.3m22.7 1.9c0 3.9-1.8 6.4-4.5 6.4-2 0-2.5-.5-2.5-2.7 0-3.1 2.6-6.3 5.2-6.3 1.3 0 1.8.7 1.8 2.6m-28-.6c0 .5-.9 1-2.1 1-1.1 0-1.7-.5-1.4-1 .3-.6 1.3-1 2.1-1s1.4.4 1.4 1m-5.3 1.7c-.4.3-.7 0-.7-.7s.3-1 .7-.7c.3.4.3 1 0 1.4m13 .9c-.3.3-1.2.4-1.9.1-.8-.3-.5-.6.6-.6 1.1-.1 1.7.2 1.3.5m9.3 8.4c0 1.3-5 3.3-5.9 2.4-.7-.7 2.8-3.4 4.6-3.4.7 0 1.3.5 1.3 1m15 4c0 .5-.4 1-1 1-.5 0-1-.5-1-1 0-.6.5-1 1-1 .6 0 1 .4 1 1m-33 4c-.8.5-1.9 1-2.5 1-.5 0-.3-.5.5-1s2-1 2.5-1c.6 0 .3.5-.5 1m11 3c0 .5-.7 1-1.5 1s-1.5-.5-1.5-1c0-.6.7-1 1.5-1s1.5.4 1.5 1m-13.4 2.2c-.1 1.3.8 2.7 2.2 3.4 2 1 2.1 1.2.6 1.8-1.9.7-4.3-.9-5.4-3.9-.9-2.3-.4-3.5 1.4-3.5.7 0 1.2 1 1.2 2.2m4.4.8c0 .5-.7 1-1.5 1s-1.5-.5-1.5-1c0-.6.7-1 1.5-1s1.5.4 1.5 1M672 510.4c0 1.9.5 3.8 1 4.1.6.4 1-1 1-3.4 0-2.3-.4-4.1-1-4.1-.5 0-1 1.5-1 3.4M240.1 512.7c-.2 3.4 9.4 11.3 17.4 14.3 3.9 1.5 4 1.6 4.6 7.5.5 5.9.6 5.8.6-2 0-4.4-.3-9.4-.7-11-.8-3-.8-3-.9.7-.1 3-.5 3.8-2 3.8-4.3 0-13.4-6.3-17.3-12-.9-1.4-1.7-2-1.7-1.3M672.7 519.7c-.8 1.4.5 8.3 1.4 7.7 1.2-.7 1.2-7.1 0-7.9-.5-.3-1.2-.2-1.4.2"/><path d="M786.8 524.2c-1.5 1.1-1.8 5-2.3 28.3-.6 24.5-.9 27.3-2.6 29.8-1.5 2.1-1.7 3.2-.9 4.6.5 1.1 1 2.9 1 4.1 0 1.3.9 2.4 2.5 3 1.9.7 2.5 1.7 2.6 4.2.1 1.8.4 8 .8 13.8.6 10.5.6 10.5 4 10.8 2.1.2 3.1 0 2.6-.7-.3-.6-1.4-1.1-2.4-1.1-1.6 0-1.9-1.3-2.4-9.8-1.1-15.6-1-15.9 1.8-16.6 4.5-1.1 6.6-9 3.4-12.7-1.9-2.2-2.1-3.7-2-15.4.1-21-1-41.9-2.3-42.7-1.5-1-2-1-3.8.4m3.2 1.8c0 .5-.7 1-1.5 1s-1.5-.5-1.5-1c0-.6.7-1 1.5-1s1.5.4 1.5 1m.5 2.9c.3.5.1 1.3-.5 1.6-1.5.9-4.3-.3-3.5-1.5.8-1.3 3.2-1.3 4-.1m.5 4c0 .6-.4 1.2-.9 1.5-1.3.8-4.2-.4-3.5-1.5.7-1.2 4.4-1.2 4.4 0m-.2 11.4c.3 7.7.3 7.7-2.3 7.7-2.4 0-2.5-.1-2.5-7.3 0-7.7.4-9 3-8.5 1.2.3 1.6 2 1.8 8.1m1 24.3c-.3 12.2-.6 14.9-1.9 15.7-.9.6-2.4.7-3.3.4-1.4-.6-1.6-2.7-1.6-15.7 0-15 0-15 3.5-15h3.6zm2.9 17.8c-1.3 3.4-12.7 2.7-12.7-.9 0-1.9.7-1.9 2.6 0 2.1 2.1 5.1 1.9 7.1-.5 1.9-2.2 4-1.2 3 1.4M785 591c0 .5-.4 1-1 1-.5 0-1-.5-1-1 0-.6.5-1 1-1 .6 0 1 .4 1 1m5.5 1c0 2.2-3.9 1.9-4.3-.3-.3-1.5.1-1.8 2-1.5 1.2.2 2.3 1 2.3 1.8m3.5-1c0 .5-.4 1-1 1-.5 0-1-.5-1-1 0-.6.5-1 1-1 .6 0 1 .4 1 1M657.3 534.8c-6.2 2.5-11.3 5-11.3 5.4 0 1.1 3 .3 8.7-2.3 2.4-1 4.9-1.9 5.6-1.9s1.7-.4 2.3-.9c.5-.5 2.6-1.4 4.7-2.1 2-.6 3.7-1.6 3.7-2.1 0-1.5-1.9-.9-13.7 3.9M673 535c0 1.6.5 3 1 3 .6 0 1-1.4 1-3 0-1.7-.4-3-1-3-.5 0-1 1.3-1 3M622 537.6c0 .8.5 1.2 1 .9.6-.3 1-1 1-1.6 0-.5-.4-.9-1-.9-.5 0-1 .7-1 1.6M661.3 540.1c-4 1.7-7.3 3.5-7.3 4 0 1.3.5 1.2 6.3-1.5 2.9-1.3 6.2-2.6 7.5-3 1.2-.4 2.2-1.2 2.2-1.7 0-1.3-.8-1.1-8.7 2.2M262.6 549.5c.7 7.5.7 7.5-2.3 7.5-3.1 0-8.3 3.3-8.3 5.3 0 .6.9.1 2-1.1 2.6-2.8 6.5-3.7 9.6-2.3 1.5.6 2.4.7 2.4.1s-.4-1-1-1-1-3.3-1-8c0-4.9-.4-8-1-8-.7 0-.9 2.5-.4 7.5M647 546c2.6 2 4 2.5 4 1.4s-3.4-3.3-5-3.3c-1-.1-.6.6 1 1.9M673 547.3c0 3.4.7 5 1.9 4.2 1-.6 0-7.5-1-7.5-.5 0-.9 1.5-.9 3.3M312.5 547.3c-2.5 2.1-2.9 3.1-2.8 7.3.1 2.7.6 6 1.1 7.4.7 1.8.8.6.5-4.6-.4-5.7-.2-7.3 1.2-8.7 6.7-6.7 21.5 6.9 21.5 19.7 0 6.5-1.4 8-7 7.4-4-.4-5.3.5-2.4 1.6 4.6 1.8 9.8-1 11-5.9 1.5-6.1-4.1-17.7-11-23-5-3.8-8.7-4.2-12.1-1.2M656 552c1.4 1.1 3.2 2 4 2 1 0 .7-.7-1-2-1.4-1.1-3.2-2-4-2-1 0-.7.7 1 2M636 558.9c0 1.7.5 3.1 1 3.1.6 0 1-1.1 1-2.4 0-1.4-.4-2.8-1-3.1-.6-.4-1 .7-1 2.4M664 556.6c0 1.1 3.4 3.3 5 3.3 1 0 .8-.6-.9-1.9-2.3-2-4.1-2.6-4.1-1.4M673.9 556.7c-.1.5-.1 1.2 0 1.6s-.6 1-1.4 1.3c-1.9.8-2 2.4 0 2.4 1.4 0 3.5-2.9 3.5-4.9 0-1.2-1.9-1.5-2.1-.4M412 563.8c0 .5 1.1 1.4 2.5 2 2.9 1.4 3.4-.2.6-1.8-2.4-1.2-3.1-1.3-3.1-.2M614.6 563.7c-.9.9-.7 4.1.3 4.7.5.3 1.1-.6 1.4-1.9.4-2.5-.4-4-1.7-2.8M251.3 569c0 3 .2 4.3.4 2.7.2-1.5.2-3.9 0-5.5-.2-1.5-.4-.2-.4 2.8M636 569.5c0 1.9.5 3.5 1 3.5.6 0 1-1.6 1-3.5s-.4-3.5-1-3.5c-.5 0-1 1.6-1 3.5M604.7 567.7c-1.1 1-.8 5.1.3 5.8.6.4 1-.8 1-2.9 0-3.7-.2-4.1-1.3-2.9M423 570c3.4 2.7 6.3 2.6 3.1 0-1.3-1.1-3.1-2-4-2-1.2 0-1 .5.9 2M656 579.9v12l4.3.5c2.3.4 10.5.4 18.2.2s25.6-.4 39.8-.5l25.8-.1-.3-11.8-.3-11.7-43.7-.3-43.8-.2zm85 .1v10h-81.8l-.4-5c-.1-2.8-.1-7.3 0-10l.4-5H741z"/><path d="M665.6 573.6c-.4 1.2-.1 1.4 1.4.9s2-.2 2 1.4c0 1.1-.5 2.3-1.1 2.6-.7.5-.4 1.4.7 2.6 2.2 2.5.4 5-2.1 2.9-1.6-1.3-2-.4-.9 2.4.8 2.1 4.1 2 4.8-.2.2-.9.3-4 .1-6.7-.2-2.8-.4-5.6-.4-6.3-.1-1.7-3.8-1.5-4.5.4M676.7 572.7c-.4.3-.7 2.4-.7 4.6 0 3 .4 4 2 4.4 2.1.6 2.7 2.8 1 3.8-.5.3-1 .1-1-.4 0-.6-.4-1.1-1-1.1-1.6 0-1.2 3 .5 3.7.9.3 2.2-.2 3-1.3 1.8-2.3 2-11.5.3-13.2-1.3-1.3-3.1-1.6-4.1-.5m3.3 4.4c0 3.8-2.4 3.5-2.8-.4-.2-1.9.1-2.7 1.2-2.7s1.6 1 1.6 3.1M696.6 573.6c-.4.9-.3 2 0 2.3.4.3.9 0 1.1-.7.7-1.9 3.5-1.5 2.9.5-1.2 4.3-1.8 11.6-.9 11 .6-.4 1.3-3 1.6-5.9s.8-6.1 1.2-7.1c.6-1.4.2-1.7-2.3-1.7-1.8 0-3.2.6-3.6 1.6M710 572.2c-.1.2-.2 3.8-.3 8.1-.1 5.6.1 7.7 1.1 7.7.8 0 1.2-2.3 1.2-8 0-4.7-.4-8-1-8-.5 0-1 .1-1 .2M719.2 573.2c-1.7 1.7-1.5 10.9.3 13.2 1.2 1.6 1.7 1.7 3 .6 2.9-2.4 1.6-15-1.5-15-.3 0-1.1.5-1.8 1.2m2.8 6.8c0 3.3-.4 6-1 6s-1-2.7-1-6 .4-6 1-6 1 2.7 1 6M686.5 580c-.4.6.7 1 2.4 1s3.1-.5 3.1-1c0-.6-1.1-1-2.4-1-1.4 0-2.8.4-3.1 1M614 573.9c0 1.1-.6 2.1-1.2 2.4-.7.2-.9.8-.5 1.3.5.5 1.7-.1 2.8-1.5 2.3-2.8 2.4-4.1.4-4.1-.8 0-1.5.9-1.5 1.9M434 575.5c3.4 2 6 2 3.4 0-1-.8-2.8-1.4-3.9-1.4-1.8 0-1.7.1.5 1.4M252 575.8c0 2.7 4.3 9.5 9.5 15 3.6 3.6 5.5 6.5 5.6 8.2 0 1.4.7 4.3 1.5 6.5 1.4 4.1 1.3 3-.2-5.2-.6-3.2-.6-3.2 4.7-2.6 4.9.5 5.7.3 8-2.1 3-3 4.1-6.8 3.2-12-.9-5.6-1.8-4.2-1.8 2.7 0 8.1-1.2 9.7-7.5 9.7-7.9 0-15.2-6.1-20.9-17.5-1.1-2.2-2-3.4-2.1-2.7M604 579.5c0 1.9.5 3.5 1 3.5.6 0 1-.6 1-1.4 0-.7.9-1.6 2.1-1.9s1.8-1 1.5-1.6c-.4-.6-1.3-.8-2.1-.4-.8.3-1.5 0-1.5-.6s-.4-1.1-1-1.1c-.5 0-1 1.6-1 3.5M636 579.4c0 1.9.5 3.8 1 4.1.6.4 1-1 1-3.4 0-2.3-.4-4.1-1-4.1-.5 0-1 1.5-1 3.4M443 579.8c0 .4.7 1.6 1.5 2.6.8 1.1 1.5 2.8 1.5 3.8s.5 1.8 1 1.8c1.3 0 1.3-.6-.2-4.6-1-2.9-3.9-5.6-3.8-3.6M809.4 579.8c-1.3.8-1.3 20.9 0 23 1 1.7 83.1 1.7 84.2 0 .4-.7.8-6 .8-11.9.1-10.7.1-10.7-2.8-11.3-4.2-.9-80.9-.7-82.2.2m83.1 11.7v10h-81l-.3-8.9c-.2-4.9-.1-9.5.2-10.3.5-1.1 7.9-1.3 40.8-1.1l40.3.3z"/><path d="M818.7 583.7c-1.2 1.2-.7 2.2.8 1.7 1.8-.7 2.1 2.6.3 4.4-.9.9-.7 1.3.5 1.8.9.3 1.7 1.4 1.7 2.4 0 2.2-2.2 3.9-2.8 2.2-.2-.7-.8-1.2-1.3-1.2-.6 0-.5.8.1 2 1.4 2.7 3.4 2.5 5-.5 1-2 1.1-2.7 0-4-.7-.8-1-2.5-.7-3.7.9-3.4-1.7-7.1-3.6-5.1M828.7 583.7c-.4.3-.7 2.1-.7 3.9 0 2.3.6 3.7 2 4.4 1.1.6 2 2 2 3.1 0 1.6-.4 1.9-2 1.4-2.4-.8-2.7 1-.4 1.9 2.9 1.1 4.4-1.3 4.4-7.3 0-5.5-1.1-8.1-3.5-8.1-.7 0-1.5.3-1.8.7m3.7 3.5c.6 2.5-.7 4.4-2.3 3.4-1.2-.8-1.5-3.9-.4-4.9q1.8-1.8 2.7 1.5M849.7 583.7c-.4.3-.7 1.3-.7 2.2 0 1.3.2 1.3.9.2 1.1-1.8 3.3-.4 2.7 1.7-1 3.7-1.8 10.7-1.1 10 .9-.9 3.3-13.6 2.7-14.3-.8-.7-3.7-.6-4.5.2M861.3 583.7c-.7.2-1.3 1.4-1.3 2.6.1 2 .2 2.1 1.4.4 3.2-4.1 3.6.4.6 6.3-2.6 5.2-2.5 6.2.7 5.8s4.4-2.8 1.4-2.8c-2 0-2 0-.2-4.3 2.5-5.8 1.2-9.6-2.6-8M872 591.5c0 6.2.3 7.5 1.6 7.5 1.1 0 1.4-.5 1-1.6-.3-.9-.6-4.2-.6-7.5s-.4-5.9-1-5.9-1 3.2-1 7.5M838.5 591c-.4.6.7 1 2.4 1s3.1-.5 3.1-1c0-.6-1.1-1-2.4-1-1.4 0-2.8.4-3.1 1M313.8 582.6c-10.4 4.4-8.7 21.4 3.6 34.2 5 5.3 8.4 7.2 13 7.2 8.1 0 14.5-7.9 13.1-16.2-1-5.7-2-4.6-1.7 1.8.2 3.2-.1 6.1-.7 6.7-.8.8-1.1-.1-1.2-3.4-.1-4.4-.1-4.4-.9.7-.9 6.3-1.5 7.2-4.7 8.5-4.4 1.6-9 0-14.8-5.3-11.5-10.5-15.3-28.3-6.7-31.7 5.1-1.9 10.6-2.2 13.5-.7 1.5.8 2.7 1.1 2.7.7 0-1.3-6.5-4.1-9.2-4-1.2 0-4 .7-6 1.5"/><path d="M433 585c-2.5 1.4-7.4 4.2-11 6.2s-11.9 6.6-18.5 10.3-14.5 8.1-17.5 9.8c-3 1.6-6.7 3.8-8.2 4.9-1.4 1-2.9 1.8-3.2 1.8-.4 0-3.9 2-7.9 4.3-17.4 10.5-36.9 20.7-40.5 21.3-5 .8-9.5-.7-17.7-5.7-3.6-2.1-6.9-3.9-7.5-3.9-.5 0-1-.5-1-1 0-.6-.4-1-1-1-.5 0-3.3-1.4-6.2-3.1-2.9-1.8-7.3-4.3-9.8-5.7-7.8-4.3-10.7-6.9-11.5-10.4-.4-1.8-.9-2.7-1.2-2.1-.2.7.4 2.9 1.4 5 1.4 2.9 3.9 4.8 12.3 9.6 5.8 3.3 15.2 8.8 21 12.2s12.2 6.8 14.3 7.4c6.5 2.2 8.9 1.2 41.5-17.5 5.2-3 9.6-5.4 9.9-5.4s1.7-.8 3.1-1.8c1.5-1.1 5.2-3.2 8.2-4.9s7.2-4 9.3-5.2c8.9-5.1 11.5-6.5 15.7-8.9 2.5-1.3 5.9-3.2 7.5-4.2 1.7-.9 7.1-3.9 12-6.5 10.8-5.7 12.9-7.1 11.8-7.8-.4-.2-2.8.8-5.3 2.3M321 585c2 1.3 3.3 1.3 2.5 0-.3-.6-1.4-1-2.3-1-1.5 0-1.5.2-.2 1M601.2 587c-2.8 1.2-3.9 3.7-2.5 6 .8 1.2.7 3.2-.4 7.1-.8 3-2.7 10.8-4.3 17.4-7.6 32.8-6.7 30.5-11.6 30.5-2.4 0-4.4.4-4.4 1 0 .5 2.3 1 5 1 2.8 0 5-.2 5-.5 0-.2.9-3.9 2-8.2 1-4.3 3.8-15.7 6-25.3 2.3-9.6 4.5-18.2 5-19 .4-.8 1.6-1.4 2.6-1.3 2.7.3 7.3-1.7 8.4-3.7 2.1-3.9-5.3-7.3-10.8-5m1.1 5.9c-.9 1.2-2.5-2-1.8-3.6s.9-1.5 1.5.7c.4 1.4.5 2.7.3 2.9m8.3-1c-.4.6-1.5 1.1-2.4 1.1-1.2 0-1.3-.3-.5-1.1.6-.6.9-1.9.6-2.8-.5-1.5-.4-1.5 1.2.1.9.9 1.4 2.1 1.1 2.7m-4.9-1.2c-.4.3-1 .3-1.4 0-.3-.4 0-.7.7-.7s1 .3.7.7M636.7 587c-.3.8-.5 2.4-.4 3.5.1 1.2-.5 2.1-1.8 2.3-5.5 1.1-6.1 5.5-1 7.9 2.8 1.4 3.9 1.4 6.1.4 1.5-.7 3.1-.8 3.6-.3.4.4 3.7 6.2 7.1 12.8 12 22.6 18.5 34.9 23.5 44.4 2.7 5.2 6.5 12.4 8.4 16s5.4 10.2 7.8 14.7c3.9 7.4 4.6 8.3 7.2 8.3 3.5 0 3.7-1.8.2-2.2-2.1-.2-3.4-2-7.8-10.3-2.8-5.5-6.8-12.9-8.8-16.5-1.9-3.6-6.9-13-11.1-21-4.1-8-9-17.4-10.9-21-8.4-15.8-13.7-26.7-14.3-29.3-.4-2-1.5-3.1-3.5-3.8-2.2-.8-3-1.8-3.2-4.2-.3-2.1-.6-2.7-1.1-1.7m5.7 8.6c.8 2-.1 3.4-2.2 3.4-1.2 0-1.3-.3-.5-1.1.6-.6.9-1.8.6-2.5-.3-.8-.1-1.4.5-1.4.5 0 1.3.7 1.6 1.6m-8.4.8c0 .8.6 1.7 1.3 2 .6.3.3.5-.8.3-2-.2-3.5-3.7-1.6-3.7.6 0 1.1.6 1.1 1.4m3.7.3c-.4.3-1 .3-1.4 0-.3-.4 0-.7.7-.7s1 .3.7.7M446 595.6c0 2.1.4 3.3 1 2.9.6-.3 1-1.9 1-3.6 0-1.6-.4-2.9-1-2.9-.5 0-1 1.6-1 3.6"/><path d="M602.7 602.5c-1.2 1.2-1.4 5.8-.9 29.9.5 27.5.4 28.5-1.5 31-1.8 2.2-2 3.2-1.2 6.8 1.3 5.4 1.4 5.5 4.9 6.3 3 .7 3 .7 3 8.1v7.4h-11.5c-6.3 0-11.5.4-11.5.9 0 1.5 21.9 2.5 23.5 1.1 1.1-.9 1.5-3.5 1.5-9.7 0-6.5.3-8.5 1.5-8.9.8-.4 1.5-1.7 1.5-3s.5-3.5 1.2-5c1.1-2.3 1-2.8-1-4.4-2.2-1.8-2.2-2.1-2.2-30.3 0-24.6-.2-28.8-1.6-30.1-1.9-2-3.8-2-5.7-.1m4.3 1.5c0 .5-.7 1-1.5 1s-1.5-.5-1.5-1c0-.6.7-1 1.5-1s1.5.4 1.5 1m1 2.9c.2.1-.1.6-.7 1.2-1.3 1.3-4.7.4-3.9-1 .4-.5 1.4-.8 2.4-.6.9.2 1.9.4 2.2.4m-.8 5.3c-.6.6-1.9.7-2.9.3-1.7-.7-1.7-.8.2-1.5 2.4-.9 4.1-.2 2.7 1.2m.3 3.8c-.3.5-1.2 1-2 1s-1.7-.5-2-1c-.4-.6.5-1 2-1s2.4.4 2 1m.5 3c0 .5-1.1 1-2.5 1s-2.5-.5-2.5-1c0-.6 1.1-1 2.5-1s2.5.4 2.5 1m0 4c0 .5-1.1 1-2.5 1s-2.5-.5-2.5-1c0-.6 1.1-1 2.5-1s2.5.4 2.5 1m0 22.4c0 18.7-.6 22.5-3 20-.5-.5-1-9.6-1.2-20.2-.3-19.2-.3-19.2 2-19.2 2.2 0 2.2 0 2.2 19.4m-3.4 21.4c1.7.9 2.5.7 4.2-.8 2.6-2.5 3.2-2.5 3.2-.1 0 2.2-1.9 3.1-6.3 3.1-4.3 0-6.2-1.3-5.3-3.6.4-1.2 1-1.4 1.4-.8s1.6 1.6 2.8 2.2m6.4 5.3c0 .5-.4.9-1 .9-.5 0-1-.7-1-1.6 0-.8.5-1.2 1-.9.6.3 1 1 1 1.6m-9.3.6c-.4.3-.7 0-.7-.7s.3-1 .7-.7c.3.4.3 1 0 1.4m5.3.3c0 1.1-.7 2-1.5 2s-1.5-.9-1.5-2 .7-2 1.5-2 1.5.9 1.5 2M446.1 606.9c-.1 3.2.2 4.2 1 3.4.7-.7.7-2.1.1-4.4-1-3.4-1-3.4-1.1 1M635.2 608.2c-.7.7-1.2 4.4-1.2 9.7 0 7.4-.3 8.8-2.2 10.8s-2 2.7-1 4.3c.7 1.1 1.2 2.8 1.2 3.8 0 2.4 1.9 4.2 4.6 4.2 1.3 0 2.5.4 2.9 1 .6.9 3.5 14 8.5 38 6.9 33.1 10 47.3 10.2 47.6.8.7 11.4.6 11.8-.2.3-.5-1.7-1-4.5-1.2-2.7-.2-5.4-.7-5.8-1.1-.5-.5-1.7-5.1-2.8-10.2-1-5.2-3.2-15.7-4.8-23.4s-4.1-19.9-5.5-27c-1.5-7.2-3.1-14.6-3.6-16.6-1.3-4.9-1.3-7 .4-8.8.7-.9 1.6-3.2 2-5.2.5-2.8.2-3.9-1.4-5.4-1.7-1.6-2-3.1-2-10.6 0-7.7-.2-9-1.9-9.9-2.5-1.3-3.4-1.3-4.9.2m4.3 1.8c.3.5-.3 1-1.4 1-1.2 0-2.1-.5-2.1-1 0-.6.6-1 1.4-1s1.8.4 2.1 1m.5 4c0 .5-.9 1-2 1s-2-.5-2-1c0-.6.9-1 2-1s2 .4 2 1m0 4c0 .5-.9 1-2 1s-2-.5-2-1c0-.6.9-1 2-1s2 .4 2 1m0 8c0 4.3-.3 5-2 5s-2-.7-2-5 .3-5 2-5 2 .7 2 5m-4.2 6c2.5 2 2.5 2 4.9-.1 2.4-2.3 4-2.1 3 .5-1.4 3.6-10.8 3-11.5-.7-.4-2.2.4-2.2 3.6.3m-2.1 5.7c-.4.3-.7 0-.7-.7s.3-1 .7-.7c.3.4.3 1 0 1.4m5.8.3c0 .8-.8 1.6-1.7 1.8-1.3.2-1.8-.3-1.8-1.8s.5-2 1.8-1.8c.9.2 1.7 1 1.7 1.8m3.5-1c0 .5-.4 1-1 1-.5 0-1-.5-1-1 0-.6.5-1 1-1 .6 0 1 .4 1 1M800.7 608.8l-3.8.3.3 12.2.3 12.2h86l.3-11.8c.3-11.7.3-11.7-2.5-11.7-11.3-.1-74.1-1.2-75.3-1.3-.8-.1-3.2-.1-5.3.1m81.1 13 .3 10.2H841l-41-.1-.2-4.7c-.1-4.3-.1-9.8.1-14.5.1-1.6 2.5-1.7 40.9-1.5l40.7.3z"/><path d="M807.2 613.2c-1.8 1.8-1.4 3 .8 2.3s2.8 1.3.9 3.2c-.8.8-.7 1.6.2 3 .7 1.1.9 2.8.5 3.8-.6 1.7-.7 1.7-2.1-.1-1.2-1.6-1.4-1.7-1.5-.3 0 .9.7 2.2 1.5 2.9 3.1 2.6 6.3-3.8 3.4-6.7-.8-.8-.8-1.7.1-3.3 1-1.9.9-2.6-.7-4.1-1.5-1.5-2.1-1.7-3.1-.7M817 614.9c-1.6 3.1-1.2 4.8 1.6 7 2.9 2.3 2.7 5.5-.2 4.4-1.2-.4-1.5-.2-1.2.8.3.8 1.3 1.4 2.4 1.4 1.6 0 2-1 2.5-5.5.6-6.2-.3-10-2.5-10-.9 0-2 .9-2.6 1.9m4 3.2c0 3.8-2.4 3.5-2.8-.4-.2-1.9.1-2.7 1.2-2.7s1.6 1 1.6 3.1M837.7 615.1c-.4 1.7-.3 1.9.6 1 2.2-2.2 2.7-1 2.2 6.1-.6 8.3.8 5.8 1.9-3.5.7-5.6.7-5.7-1.7-5.7-1.7 0-2.6.7-3 2.1M849.2 614.2c-1.5 1.5-1.6 3.8-.2 3.8.6 0 1-.7 1-1.5s.5-1.5 1-1.5c1.7 0 1.1 5.8-1 9.5-1.7 3-1.8 3.7-.6 4.1 2.2.8 4.9.1 5.4-1.5.3-1-.2-1.1-1.8-.6-2.5.8-2.5.3.1-6.3 1.9-4.6-.9-9-3.9-6M860.1 614.3c-.6.6-1.1 1.8-1.1 2.6.1 1.4.3 1.3 1.4-.1.7-1 1.6-1.5 1.9-1.1 1.2 1.1.7 3.6-1.3 7.8-1.1 2.2-1.9 4.4-2 4.8 0 1.4 5.3.3 5.8-1.2.3-1 0-1.2-1.3-.7-1.5.5-1.6.2-1-2.1 1.6-6.6 1.7-10 .2-10.6-.8-.3-2 0-2.6.6M827.5 621c-.4.6.7 1 2.5 1s2.9-.4 2.5-1c-.3-.6-1.5-1-2.5-1s-2.2.4-2.5 1M446 619c0 2.5.4 3.9 1 3.5.6-.3 1-1.9 1-3.5s-.4-3.2-1-3.5c-.6-.4-1 1-1 3.5M446 632c0 2.2.5 4 1 4 .6 0 1-1.8 1-4s-.4-4-1-4c-.5 0-1 1.8-1 4M492.3 635.8c-3.3.3-3.3.3-3.3 12.3 0 11.7 0 11.9 2.3 11.9 1.2 0 20.8.3 43.5.7 28.9.4 41.2.3 41.2-.5 0-.6.2-6.1.5-12.2.3-8.1.1-11.2-.8-11.5-1.4-.5-78.7-1.1-83.4-.7m81.7 12.7V659l-19.2-.4c-10.6-.2-29.1-.4-41-.5L492 658v-20h82z"/><path d="M499.2 640.2c-1.8 1.8-1.4 3 .8 2.3 1.5-.5 2-.2 2 1.3 0 1.1-.6 2.3-1.2 2.6-1 .5-1 .7 0 1.2 1.4.7 1.7 6.4.2 6.4-.5 0-1-.7-1-1.5s-.4-1.5-1-1.5c-1.5 0-1.2 2.6.5 4 2.8 2.3 4.4-.4 4.3-7.6-.1-5-.5-6.7-1.8-7.4-1.1-.6-2.1-.5-2.8.2M509.7 640.8c-2.4 2.6-2.1 4.9.8 7.8 3 3 3.2 4.8.5 3.9-2.4-.8-2.6.7-.4 2.6 1.4 1.1 1.8 1 3-.6 1.9-2.6 1.8-11.9-.2-13.9-1.9-2-1.7-2-3.7.2m3.3 4.3q0 3-1.2 2.7c-1.5-.5-2.2-3.3-1.4-5.4.9-2.4 2.6-.6 2.6 2.7M530 642.1c0 1.8.2 1.9 1.5.9 2.3-1.9 2.8-.7 1.6 3.7-1.3 4.7-1.4 10.1-.2 8.7.5-.5 1.1-2.9 1.4-5.4s.8-5.7 1.2-7.3c.7-2.5.5-2.7-2.4-2.7-2.5 0-3.1.4-3.1 2.1M541.7 640.7c-.4.3-.7 1.6-.7 2.7.1 2 .2 2 1.4.3.7-.9 1.6-1.7 2-1.7 1 0 .7 3.4-.8 6.1-.7 1.4-1.6 3.8-2 5.3-.6 2.5-.5 2.7 2.1 2.4 1.6-.2 2.9-1 3.1-2 .2-1.2-.2-1.5-1.7-1.1-2.1.5-2.1.5-.1-3.9 2.1-4.9 1.7-8.8-.9-8.8-1 0-2.1.3-2.4.7M553.2 644.5c-2.7 5.7-2.8 7.5-.1 7.5 1.6 0 1.9.4 1.4 2-.4 1.4-.2 2 .8 2 .8 0 1.6-1 1.9-2.3.5-3.2-.3-13.7-1.1-13.7-.4 0-1.7 2-2.9 4.5m1.4 5.2c-1.1 1.1-1.9-.6-1.1-2.4.8-1.7.8-1.7 1.2 0 .3 1 .2 2.1-.1 2.4M519 648c0 .5 1.6 1 3.5 1s3.5-.5 3.5-1c0-.6-1.6-1-3.5-1s-3.5.4-3.5 1M446 646.1c0 3.1.4 4.8 1 4.4.6-.3 1-2.6 1-5.1 0-2.4-.4-4.4-1-4.4-.5 0-1 2.3-1 5.1M702.3 645.7c-1.4.5-1.9 19.6-.7 22.7.5 1.4 5.4 1.6 44.4 1.6 50.7 0 44.8 1.9 44-14.5l-.5-10-43-.2c-23.6-.1-43.6.1-44.2.4m85.7 11.8V668h-84v-21h84z"/><path d="M711.1 650.4c-.8 1-.9 1.6-.1 2.1.5.3 1 .1 1-.4 0-.6.5-1.1 1-1.1.6 0 1 .9 1 1.9 0 1.1-.4 2.3-1 2.6-1.5.9-1.2 2.5.5 2.5s2 3.5.4 4.6c-.6.3-1.5 0-2-.7-.4-.7-1.1-1-1.5-.6-.9.9 1.5 3.7 3.2 3.7s3.7-4.7 2.7-6.3c-.4-.7-.7-3-.8-5.2 0-4.3-2.2-5.8-4.4-3.1M722.2 650.2c-2.4 2.4-.6 8.8 2.4 8.8.9 0 1.4.7 1.2 1.7-.2 1.1-1.1 1.7-2.1 1.5-2.2-.4-2.2 1.7-.1 2.5 2.4.9 4.4-2.3 4.4-6.8 0-7.2-2.7-10.8-5.8-7.7m3.8 3.9c0 3.8-2.4 3.5-2.8-.4-.2-1.9.1-2.7 1.2-2.7s1.6 1 1.6 3.1M743.7 649.6c-.4.4-.7 1.4-.7 2.2 0 1.2.3 1.2 1.5.2 2-1.7 3.8-.4 2.5 2-1 1.8-1.5 11.8-.5 10.8.3-.2.9-3.1 1.3-6.4.5-3.2 1.1-6.6 1.3-7.4.4-1.6-4-2.7-5.4-1.4M755.2 650.2c-1.5 1.5-1.6 3.8-.2 3.8.6 0 1-.7 1-1.5s.5-1.5 1-1.5c1.5 0 1.2 4.2-.5 8.3-.8 2-1.5 4.1-1.5 4.7 0 1.8 5.4.7 5.8-1.2.2-1.2-.2-1.5-1.7-1.1-2.5.6-2.6.1-.5-3.8 2.8-5.5.2-11.3-3.4-7.7M765.6 650.6c-.4 1.2-.1 1.4 1.4.9s2-.2 2 1.2c0 1.1-.5 2.4-1.2 3.1-.9.9-.7 1.3.5 1.8 1.9.7 2.3 3.9.6 4.9-.6.4-1.7-.1-2.4-1.1-1.2-1.6-1.4-1.6-1.5-.4 0 1.9 1.9 4 3.5 4 1.9 0 3.3-4.2 2.3-6.9-.5-1.4-.6-3.1-.3-3.9.9-2.3-.5-5.2-2.5-5.2-1 0-2.1.7-2.4 1.6M732.5 657c-.4.6.8 1 3 1s3.4-.4 3-1c-.3-.6-1.7-1-3-1s-2.7.4-3 1M446 658.5c0 2.8.4 4.4 1 4 .6-.3 1-2.1 1-4s-.4-3.7-1-4c-.6-.4-1 1.2-1 4M446 669.9c0 2.3.5 4.1 1 4.1.6 0 1-1.5 1-3.4s-.4-3.8-1-4.1c-.6-.4-1 1-1 3.4M245.2 671.2c-1.5 1.5-1.6 8 0 9.6 2 2 4.7 1.4 5.4-1.3.7-3-1-5.5-3.8-5.5-1.1 0-1.6-.4-1.2-1.1.3-.6 1.5-.8 2.6-.6 1.2.4 1.8.1 1.5-.6-.5-1.7-3-2-4.5-.5m3.8 6.8c0 1.1-.6 2-1.4 2-1.8 0-2.9-1.6-2.1-3 1.1-1.8 3.5-1.1 3.5 1M253.2 671.2c-.7.7-1.2 2.8-1.2 4.8 0 3.9 1.4 6 4.1 6 1.9 0 2.9-2 2.9-5.6 0-5.2-3.1-7.9-5.8-5.2m4.4 3.3c.8 3.2-.1 5.5-2.1 5.5-1.1 0-1.5-1.1-1.5-4 0-4.6 2.5-5.7 3.6-1.5M261.2 671.2c-1.6 1.6-1.6 8 0 9.6 1.7 1.7 4.5 1.5 5.2-.4 1.7-4.5.1-10.4-2.9-10.4-.6 0-1.6.5-2.3 1.2m4.3 4.8c0 2.5-.5 3.6-1.7 3.8-1.5.3-1.8-.4-1.8-3.8s.3-4.1 1.8-3.8c1.2.2 1.7 1.3 1.7 3.8M135 672.5c-1.6 1.9-.6 4.5 2.1 5.2 2.9.8 2 3.9-1.1 3.5-2.3-.2-2.4-.2-.8 1.4 2.4 2.4 4.6 1.1 5.4-3.1 1.1-6.3-2.4-10.8-5.6-7m3.8 2.4c.3 1.6-.1 2.2-1 1.9-.7-.3-1.5-1.5-1.6-2.7-.3-1.6.1-2.2 1-1.9.7.3 1.5 1.5 1.6 2.7M145.3 671.7c-2.4.9-1.5 5.3 1.3 6.3 3 1.2 2.7 3.6-.5 3.3-2.5-.3-2.8 1.2-.4 2.1 2.5 1 4.4-1.6 4.5-6.2.1-5.7-1.1-7.1-4.9-5.5m3.2 2.8c0 1-.6 2-1.2 2.2-.8.3-1.3-.5-1.3-2.2s.5-2.5 1.3-2.3c.6.3 1.2 1.3 1.2 2.3M155.8 671.7c2.2.4 3 2.7 1.3 3.7-1.2.8-2 6.6-.9 7.2.4.3.8-.5.8-1.8.1-1.3.7-3.4 1.5-4.8 2.2-3.9 1.9-5-1.7-4.9-2.4.1-2.7.3-1 .6M164.5 672c-1.3 2-1.2 9 .1 10.8 1 1.3 1.7 1.5 3.1.6 2.1-1.3 2.9-10.4.9-11.6-1.6-1.1-3.4-1-4.1.2m3.5 2c0 2.1-1.5 2.7-2.5 1-.7-1.2.2-3 1.6-3 .5 0 .9.9.9 2m0 6.1c0 2.4-2.3 2.1-2.8-.4-.2-1 .3-1.7 1.2-1.7 1 0 1.6.9 1.6 2.1M203 672.9c-2.5 4.8.3 12.7 3.8 10.5 2.1-1.3 2.9-8.9 1.1-11-1.6-2-3.6-1.8-4.9.5m5 3.6c0 3.4-1 5.5-2.6 5.5-1 0-1.4-1.3-1.4-4.3 0-2.4.3-4.7.7-5 1.1-1.1 3.3 1.4 3.3 3.8M213.2 672.2c-1.4 1.4-1.6 3.8-.3 3.8.5 0 1.1-.9 1.4-2.1s1-1.8 1.6-1.4c1.7 1 1.3 3-1.4 6.1-3 3.5-2.8 4.9 1.1 5.1 2 .1 2.2 0 .7-.4-2.8-.5-2.9-2-.5-4.2 2.5-2.1 3.1-4.2 2-6.4-1-2-2.9-2.2-4.6-.5M223.8 671.7c-1.2.3-1.8 1.4-1.8 3.4 0 2.6.3 2.9 2 2.4 2.5-.8 3.8 1.9 2 4.1-1 1.2-1.5 1.2-2.1.2-.4-.7-1.1-.9-1.5-.5-1.2 1.1 1.2 2.9 3.2 2.5 1.3-.2 2-1.3 2.2-3.6.3-2.7-.1-3.5-1.7-3.9-2.6-.7-2.8-3-.3-3.5.9-.2 1.3-.6.7-.9-.5-.3-1.8-.4-2.7-.2M231.7 673.9c-.7 3.1.2 10.1 1.2 10.1.3 0 .6-2.9.6-6.5 0-6.8-.8-8.5-1.8-3.6M238 672c-1.1.7-1.2 1.2-.3 1.8.6.4 1.3 2.5 1.6 4.7.3 3.3.4 2.9.5-1.8.1-3.1.1-5.7 0-5.7-.2 0-1 .5-1.8 1M269.5 677.5c0 5.5.2 6.1 1.2 4.2.7-1.2 1.2-3.1 1.2-4.2s-.5-3-1.2-4.2c-1-1.9-1.2-1.3-1.2 4.2M175.7 674.3c-2.3 3.6-2.4 5.8-.2 7.1 1.1.6 2.3 1.5 2.6 1.9 1.1 1.5 1.6-1.6 1.1-6.6-.5-5.3-1.2-5.8-3.5-2.4m2.3 3.7c0 1.1-.7 2-1.5 2-1.7 0-1.8-.2-.9-2.4.9-2.3 2.4-2 2.4.4M194.7 672.7c-.4.3-.3 1.1.2 1.7s1.1 3.2 1.4 5.6c.3 3.8.4 3.6.5-1.8.2-5.7-.4-7.3-2.1-5.5M185.3 678.7c.9.2 2.3.2 3 0 .6-.3-.1-.5-1.8-.5-1.6 0-2.2.2-1.2.5M446 682c0 2.2.5 4 1 4 .6 0 1-1.8 1-4s-.4-4-1-4c-.5 0-1 1.8-1 4M495.4 689.7l.1 11.8 30 .5c16.5.3 36.2.4 43.8.2l13.7-.3V678h-87.6zm84.6.5v10.3l-15.3-.2c-8.3-.1-26.8-.2-40.9-.2L498 700v-20h82z"/><path d="M505.2 682.2c-1.8 1.8-1.4 3 .8 2.3 1.5-.5 2-.2 2 1.3 0 1.1-.6 2.2-1.2 2.5-.9.3-.7.9.6 1.9 1.4 1.1 1.6 2.1 1.1 3.8-.7 2.2-.9 2.2-2 .7-.7-.9-1.5-1.7-1.9-1.7-1.2 0-.6 2.8.9 4 2.8 2.3 4.4-.5 4.3-7.3-.2-7.8-1.7-10.4-4.6-7.5M516 682.5c-2.6 3.1-.8 9.5 2.7 9.5.8 0 1.3.6 1 1.2-.2.7-1.4 1.2-2.6 1.1-2.5-.3-2.7.9-.6 2.7 2.8 2.3 4.5-.5 4.5-7.6 0-5.2-.3-6.5-1.9-7.3-1.4-.8-2.2-.7-3.1.4m3.8 5.4c-.5 2.5-2.7 2.3-3.4-.3-.9-3.6.5-5.4 2.3-3 .7 1 1.2 2.5 1.1 3.3M536 684c0 2.2 1.6 2.7 2.3.7.2-.6.8-.9 1.2-.5s.2 3-.5 5.8c-.7 2.7-.9 5.8-.4 6.8.5 1.2 1 .3 1.5-3.3.4-2.8 1.1-6.5 1.5-8.3.6-3.1.5-3.2-2.5-3.2-2.4 0-3.1.4-3.1 2M547.6 683.6c-1.1 2.8-.6 3.9.9 2 2.6-3.5 3-.6.8 5.5-2 5.3-2 6.1-.6 6.6 1.8.7 4.5-.7 5.1-2.6.3-.9-.2-1.1-1.7-.6-2.5.8-2.6-.1-.6-5 .9-2 1.3-4.5 1-5.6-.8-2.3-4-2.5-4.9-.3M559.5 690c0 5.7.4 8 1.3 8 .8 0 1.2-2.3 1.2-8s-.4-8-1.2-8c-.9 0-1.3 2.3-1.3 8M526 690c0 .5 1.4 1 3 1 1.7 0 3-.5 3-1 0-.6-1.3-1-3-1-1.6 0-3 .4-3 1M702.7 679.7c-.4.3-.7 5.7-.7 12V703l43.6-.2 43.5-.3.1-11.5.1-11.5-43-.3c-23.6-.1-43.3.1-43.6.5M787 691v10l-36.2.2c-20 .1-38.5.2-41.3.2l-5 .1-.3-8.9c-.2-4.9-.1-9.5.2-10.3.4-1 8.4-1.3 41.6-1.3h41z"/><path d="M711.6 684.6c-.4 1.2-.1 1.4 1.4.9 2.2-.7 2.7.9 1.1 3.4-.6.9-.5 2.1.1 3.1s.8 2.5.4 3.5c-.6 1.7-.7 1.7-2.1-.1-1.5-1.9-2-.8-.9 2 .8 2.1 3.1 2 4.3-.2 1-1.8.7-11.5-.4-13.2-.9-1.5-3.2-1.2-3.9.6M722 685c-1.4 2.6-.3 6.8 2.1 7.5 1.9.6 2.5 2.6 1.2 3.8-.3.4-1.2.2-2-.4-1-.9-1.3-.8-1.3.4 0 2.3 3.2 3.1 4.7 1.1 1.6-2.1 1.7-9.8.3-12.5-1.4-2.5-3.6-2.4-5 .1m4 3.1q0 3-1.2 2.7c-1.5-.5-2.2-3.3-1.4-5.4.9-2.4 2.6-.6 2.6 2.7M742.6 684.6c-.4.9-.3 2 0 2.3.4.3.9 0 1.1-.7.3-.6.9-1.2 1.5-1.2s.7 2.5.4 6.7c-.7 8-.2 7.4 1.8-2 1.4-6.7 1.4-6.7-1.4-6.7-1.7 0-3 .7-3.4 1.6M754.1 684.9c-.6 1.1-.7 2.2-.2 2.5s1.1-.4 1.5-1.6c.4-1.8.8-2 1.8-1 .9.9.7 2.3-1 6.5-1.2 2.9-2.2 5.8-2.2 6.5 0 2.1 5.4 1 5.8-1.1.3-1.5 0-1.8-1.7-1.2-2.5.8-2.6.3-.5-3.6 1.9-3.7 1.5-8.3-.8-8.7-.9-.2-2.1.6-2.7 1.7M766.2 687.3c-2.7 5.2-2.8 6.3-.1 7 1.1.3 1.9 1.2 1.7 2.1-.2.8.2 1.5.7 1.5 1 .1 1.5-13.8.5-14.4-.3-.2-1.6 1.5-2.8 3.8m1.8 3.2c0 .8-.7 1.5-1.5 1.5-.9 0-1.2-.6-.9-1.5.4-.8 1-1.5 1.5-1.5s.9.7.9 1.5M732 691c0 .5 1.4 1 3 1 1.7 0 3-.5 3-1 0-.6-1.3-1-3-1-1.6 0-3 .4-3 1M212.5 688.7c-.9.8-1.3 1.8-1 2.1s1.1 0 1.7-.6c3.2-3.2 3.9.6.8 4.5-1.1 1.4-2 3.1-2 3.8 0 1.6 4.2 2.7 5.4 1.5.7-.7.2-1-1.2-1-2.7 0-2.8-1.3-.2-4.8 3.2-4.3.1-9.1-3.5-5.5M222.7 688.5c-2.9 2.8-1.9 11.5 1.4 11.5 3.8 0 5.2-7.2 2.1-11-1.7-2.1-1.9-2.1-3.5-.5m3.1 5.4c.3 3.7.1 4.2-1.5 3.9-1.9-.3-3-4.6-1.9-7.5 1.1-2.8 3.1-.7 3.4 3.6M232.7 687.7c-.9.9-.9 9.5.1 11 .4.6.7-1.8.7-5.3s0-6.4-.1-6.4c0 0-.4.3-.7.7M135 689.5c-1.6 1.9-.6 4.5 2 5.2 1.2.3 2 1.4 2 2.5 0 1.5-.5 1.9-2 1.5-1.1-.3-2-.1-2 .3 0 1.4 1.7 2.1 3.4 1.4 3.5-1.4 3.2-12.4-.3-12.4-1 0-2.4.7-3.1 1.5m3.8 2.3c.2 1.5-.2 2.2-1.2 2.2-1.1 0-1.6-.9-1.6-2.6 0-3.1 2.3-2.8 2.8.4M144.6 689.5c-1.1 3.1-.6 4.5 2 5.1 3.4.9 2.8 4-.6 3.6-2.3-.2-2.3-.1-.9 1.3.9.9 2.3 1.3 3.3.9 1.4-.5 1.6-1.7 1.4-6.3-.3-4.8-.6-5.6-2.4-5.9-1.3-.2-2.4.4-2.8 1.3m4.2 2.3c.2 1.5-.2 2.2-1.2 2.2-1.1 0-1.6-.9-1.6-2.6 0-3.1 2.3-2.8 2.8.4M155.8 688.7c2.3.4 3 2.7 1.2 3.8-.5.3-1 2.3-.9 4.3l.1 3.7.9-4c.5-2.2 1.4-4.4 1.9-4.9 2-2 1-3.6-2.2-3.5-2.4.1-2.7.3-1 .6M163.9 688.7c-.6 4.9-.3 9.8.8 10.9 2.7 2.6 6.2-1 4.3-4.5-.6-1.2-.5-2.2.2-2.9.8-.8.8-1.5-.2-2.7-1.3-1.5-4.9-2.1-5.1-.8m3.9 2c-.4 2.2-2.2 2-2.6-.1-.2-1 .3-1.6 1.3-1.6s1.5.7 1.3 1.7m.2 6.4c0 2.4-2.3 2.1-2.8-.4-.2-1 .3-1.7 1.2-1.7 1 0 1.6.9 1.6 2.1M175.9 690.1c-3.2 4.8-3.3 6.8-.3 7.9 1.5.6 2.8.9 3.1.7.2-.2 0-2.8-.4-5.7-.8-5.4-.8-5.4-2.4-2.9m.7 6.6c-.2.3-.9.2-1.5-.2-.8-.4-.7-1.3.1-2.8 1.3-2.2 1.3-2.2 1.6.1.2 1.3.1 2.6-.2 2.9M194.5 688.9c-.4.7-.2 1.7.3 2.4.6.7 1.2 3 1.5 5.2.3 3.7.4 3.7.5-1 .2-5.3-1-8.6-2.3-6.6M202.7 688.6c-1 1-.9 8.6.2 10.2.5.8 1.7 1.2 2.7 1 1.6-.3 1.9-1.2 1.9-5.8 0-4.8-.3-5.5-2-5.8-1.2-.2-2.4 0-2.8.4m4.1 5.2c.3 3.7.1 4.2-1.7 4.2s-2.1-.6-2.1-3.8c0-6.8 3.3-7.1 3.8-.4M238.1 689.4c-.8 1-.9 1.6-.1 2.1.5.3 1 2.2 1 4.1 0 2.1.4 3.3 1 2.9 1.2-.7 1.3-7.5.1-9.3-.6-1-1-1-2 .2M245.4 689.1c-.4.7-.8 2.7-1 4.4-.4 4.2 2.7 7.5 5.1 5.5 1.3-1.1 1.5-3.8.6-10.3-.2-1.1-3.9-.8-4.7.4m3.6 1.4c0 .8-.7 1.5-1.5 1.5-1.6 0-2-1.2-.8-2.3 1.1-1.2 2.3-.8 2.3.8m.8 5.2c-.5 2.6-3.8 2.9-3.8.4 0-1.5.6-2.1 2.1-2.1 1.4 0 1.9.5 1.7 1.7M253.2 689.2c-3.3 3.3.4 12.4 4 9.5.9-.6 1.8-1.9 2.1-2.7.3-1.1.8-.7 1.7 1.3 1.6 3.3 3.9 3.2 5.9-.4 1.2-2.2 1.2-3.1.2-5.8-1.7-3.8-4.5-4.1-6.4-.5-1.4 2.7-1.4 2.7-2.1 0-.7-2.8-3.3-3.5-5.4-1.4m4.6 4.7c-.4 4.4-3.1 5-3.6.8-.5-3.9.4-5.8 2.3-5.1 1.2.5 1.5 1.7 1.3 4.3m7.7-.3c0 2.8-.4 3.9-1.5 3.9-1.6 0-2.6-4.5-1.6-7.2 1.1-2.8 3.1-.7 3.1 3.3M269.5 695c0 5.9.2 6.6 1.2 4.7.7-1.2 1.2-3.3 1.2-4.7s-.5-3.5-1.2-4.7c-1-1.9-1.2-1.2-1.2 4.7M446.7 689.7c-1.1 1-.8 7.1.3 7.8.6.4 1-1.2 1-3.9 0-4.7-.2-5.1-1.3-3.9M184 695c0 .5.9 1 2 1s2-.5 2-1c0-.6-.9-1-2-1s-2 .4-2 1M336 694.9c-4.5.6-4.5.6-4.8 10.1-.5 15.8-6.1 14.1 44.6 13.8l43.7-.3.2-11.4c.2-8.1-.1-11.7-.9-12.2-1.4-.9-76.3-.9-82.8 0m80.8 11.8.3 10.3H334v-21l41.3.2 41.2.3z"/><path d="M341.7 698.6c-.4.4-.7 1.4-.7 2.2 0 1.2.3 1.2 1.5.2 1.3-1.1 1.5-.8 1.5 1.4 0 1.4-.4 2.6-1 2.6-.5 0-1 .4-1 1 0 .5.7 1 1.5 1 1.7 0 2 2.7.5 5-.7 1.2-1.1 1-1.8-.9-.6-1.7-1.1-2.1-1.6-1.2-.9 1.4 1.1 4.1 3.1 4.1 1.6 0 3.3-3.9 2.5-5.8-.3-.8-.5-3.2-.6-5.5-.1-4-2-6-3.9-4.1M373.6 699.5c-.9 2.3-.8 3.5.3 3.5.5 0 1.1-.8 1.4-1.8.4-1.6.4-1.6 1.2.1.4 1.1-.1 3.6-1.4 6.7-1.1 2.7-2.1 5.1-2.1 5.4s1.4.6 3 .6c2.3 0 3-.4 3-2 0-1.3-.5-1.8-1.5-1.4-1.7.7-2.1-1.6-.4-3.3 1.6-1.6.7-8.7-1.2-9.1-.9-.2-1.9.4-2.3 1.3M384 700.1c-1.5 2.7-.4 3.8 1.4 1.3 1.4-1.8 1.5-1.8 2.2-.1.4 1.2-.1 3.4-1.5 5.9-1.1 2.2-2.1 4.7-2.1 5.5 0 2.1 5.4 1.3 5.8-.9.2-1.2-.2-1.5-1.7-1.1-2.5.6-2.5.4-.6-3.3.8-1.6 1.5-3.7 1.5-4.6 0-4.8-3.1-6.4-5-2.7M395.2 699.2c-1.5 1.5-1.6 3.8-.2 3.8.6 0 1-.7 1-1.5s.5-1.5 1-1.5c1.6 0 1.1 4.3-1 8.8-2.5 5.2-2.6 5.2 1 5.2 2.1 0 3-.5 3-1.6 0-1-.6-1.4-1.4-1.1-2.4.9-2.5-.3-.5-3.6 1-1.8 1.9-4.1 1.9-5.3 0-1.9-1.7-4.4-3-4.4-.3 0-1.1.5-1.8 1.2M352.9 704c-2.8 5.2-2.7 6 .3 6 1.1 0 1.8.7 1.8 2 0 2.7 1.8 2.5 2.2-.3.5-3.3-.3-12.7-1-12.7-.4 0-1.9 2.2-3.3 5m1.7 3.7c-1.1 1.1-1.7-.4-.9-2.3.7-1.8.8-1.8 1.1-.1.2 1 .1 2.1-.2 2.4M362.7 705.6c-1.1 1.2.3 2.4 2.9 2.4 1.5 0 2.4-.6 2.4-1.5 0-1.5-4-2.1-5.3-.9M446 705.9c0 2.2.5 4.3 1 4.6.6.4 1-1.2 1-3.9 0-2.5-.4-4.6-1-4.6-.5 0-1 1.8-1 3.9M180.2 710.7c.3 7.7-.3 7.2 12.3 9.3 3.9.6 10.2 1.8 14 2.5 3.9.8 11.2 2.1 16.3 3 9 1.7 9.2 1.8 9.2 4.5 0 3.9 5.9 8.4 10 7.5 2.3-.5 4.7.4 11.5 4.1 8.7 4.6 8.7 4.6 10.8 2.5 3-3 1.6-4.7-7.9-9.7-5.9-3.2-8-4.8-8.2-6.5-.7-4.5-7.8-7.1-12-4.3-2.9 1.9-4.6 1.8-28.7-2.6-9.9-1.8-19.7-3.5-21.7-3.7-3.8-.5-3.8-.5-3.8-6.9 0-3.8-.4-6.4-1-6.4-.7 0-1 2.5-.8 6.7m60.8 13.7c0 1.1-1.9 1.5-2.5.6-.3-.5.1-1 .9-1 .9 0 1.6.2 1.6.4m5 2.1c1 1.2.9 1.5-.7 1.5-1.1 0-2.8.9-3.9 2.1-1.5 1.7-1.6 2.3-.6 4 1.1 1.6.9 1.9-.8 1.9-2.8 0-2.7-5.6.2-8.7 2.5-2.7 4.1-2.9 5.8-.8m-8 1c0 .8-.9 1.5-2 1.5-2 0-2.6-1.1-1.3-2.3 1.2-1.3 3.3-.7 3.3.8m-2.3 5.1c-.9.9-2.8-.6-2.1-1.8.4-.6 1-.6 1.7.1.6.6.8 1.3.4 1.7m12.3-1.1c3.3 1.7 3.7 2.7 1.6 4.4-1.9 1.6-7.6-1.4-7.6-4 0-2.3 2.1-2.4 6-.4m6 3.9c0 1.6-1.4 3.6-2.6 3.6-1.6 0-1.6-.2-.8-2.4.5-1.4 3.4-2.4 3.4-1.2m4 2.5c0 1.2-2.9 3.5-3.6 2.8-1.1-1 .5-3.7 2.1-3.7.8 0 1.5.4 1.5.9m2.5 3c-.3 1.2-1.1 2.1-1.6 2.1-1.4 0-1.1-3.8.4-4.3 1.7-.6 2-.2 1.2 2.2m3.5 1.6c0 .8-.7 1.5-1.5 1.5-1.6 0-2-1.2-.8-2.3 1.1-1.2 2.3-.8 2.3.8M446 717.9c0 2.2.5 4.3 1 4.6.6.4 1-1.2 1-3.9 0-2.5-.4-4.6-1-4.6-.5 0-1 1.8-1 3.9M675.6 720.8c-2.2 2.5-1.4 5.8 1.5 6.5 2.9.8 1.8 3.3-1.2 2.9-2.3-.3-2.3-.2-.6 1.5 1.8 1.7 1.9 1.7 3.8-.6 2.4-2.9 2.4-7.2.1-10.1-1.7-2.2-1.7-2.2-3.6-.2m2.9 2.7c0 1-.6 2-1.2 2.2-.8.3-1.3-.5-1.3-2.2s.5-2.5 1.3-2.3c.6.3 1.2 1.3 1.2 2.3M684.7 721.1c-1.9 2.6-1 5.9 1.5 5.9 1.3 0 1.8.6 1.6 1.7s-1.1 1.7-2.1 1.5c-1.9-.3-2.3 1.3-.6 2.3.5.4 1.9-.1 3-1.1 2.7-2.4 2.7-9.9 0-11.4-1.6-.8-2.3-.6-3.4 1.1m3.3 3c0 2-1.5 2.6-2.4 1-.8-1.3.4-4.2 1.5-3.5.5.3.9 1.4.9 2.5M713.7 720.2c-1.2.6-1.7 2.2-1.7 5.7 0 5.6 2 8.2 4.5 6.1 2.2-1.9 1.9-6.1-.5-6.7-2-.5-2.6-2.3-1.3-3.6.3-.4 1.2-.2 2 .4 1 .9 1.3.8 1.3-.4 0-1.9-2.2-2.7-4.3-1.5m2.3 8.8c0 1.1-.4 2-1 2-.5 0-1-.2-1-.4s-.3-1.1-.6-2c-.4-1.1-.1-1.6 1-1.6.9 0 1.6.8 1.6 2M693.5 721c.3.5 1.2 1 2 1 1.1 0 1 .7-.2 4-1.3 3.1-1.4 4.3-.5 5.2s1.2.6 1.2-1.3c.1-1.3.7-3.5 1.5-4.9 2.2-3.8 1.8-5-1.6-5-1.7 0-2.8.4-2.4 1M702.7 720.7c-.4.3-.7 1.9-.7 3.5 0 2.5.3 2.8 2.5 2.2 2.1-.5 2.5-.3 2.5 1.4 0 2.6-1.9 3.9-3.1 2.1-.4-.7-1.1-1-1.5-.6-1.2 1.2 2.1 3.8 3.8 3.2 3.4-1.3 2.7-8.5-.7-8.5-.8 0-1.5-.5-1.5-1 0-.6.9-1 2-1s2-.5 2-1c0-1.1-4.3-1.4-5.3-.3M741.2 721.2c-1.5 1.5-1.6 3.8-.2 3.8.6 0 1-.7 1-1.5s.7-1.5 1.5-1.5c2.2 0 1.8 1.7-1.1 5.5s-2.5 5.5 1.2 5.5c3 0 3.2-1.7.2-2.2-2.2-.3-2.2-.3.5-3.2 1.5-1.6 2.7-3.4 2.7-4 0-1.5-2.1-3.6-3.5-3.6-.6 0-1.6.5-2.3 1.2M750.7 720.7c-.4.3-.7 1.6-.7 2.7.1 1.9.2 1.9 1.1.3.5-.9 1.4-1.7 1.9-1.7 1.6 0 1.1 2.6-1 5.3-2.9 3.7-2.6 5.7 1 5.7 1.7 0 3-.5 3-1 0-.6-.9-1-2-1s-2-.4-2-.8c0-.5.9-1.9 2-3.2s2-3.1 2-4c0-2.3-3.7-3.9-5.3-2.3M759.7 720.7c-.4.3-.7 1.9-.7 3.5 0 2.5.3 2.8 2 2.3 1.4-.4 2.2-.1 2.6 1 1 2.4-1.1 4.1-3.1 2.5-.8-.7-1.5-.8-1.5-.2 0 .5.7 1.5 1.6 2.2 1.3 1.1 1.8 1 3.6-.7 2.5-2.6 1.7-6-1.8-6.9-2.9-.7-3.2-2.4-.4-2.4 1.1 0 2-.5 2-1 0-1.1-3.3-1.4-4.3-.3M376 730.3v9.5l-12 .7c-12 .7-12 .7-15.1-2-2.4-2-3.9-2.5-5.8-2-1.4.4-2.8 1-3.1 1.3-.3.4-1.7 1.3-3.2 2.1-4.7 2.4-4.4 7.9.8 12 4.1 3.2 10.4 2.2 10.4-1.7 0-.9 1.1-2.9 2.4-4.3 2.1-2.4 3-2.6 13.2-3.1 6-.4 11.7-.9 12.7-1.3 1.4-.6 1.7-2.1 1.7-10 0-5.2-.4-9.7-1-10-.6-.4-1 2.8-1 8.8m-33.4 9.3c-.7 1.8 1.9 5.4 3.9 5.4.7 0 1.7-1 2.3-2.3 1.1-2.2 1.1-2.2 1.1.1.1 1.2-.6 2.5-1.5 2.9-1.9.7-6.3-1.2-7-3.2-.7-1.6.1-4.5 1.2-4.5.3 0 .3.7 0 1.6m4.2 1.7c.2 1-.3 1.7-1.2 1.7-1 0-1.6-.9-1.6-2.1 0-2.4 2.3-2.1 2.8.4m-6.8.7c0 .5-.4 1-1 1-.5 0-1-.5-1-1 0-.6.5-1 1-1 .6 0 1 .4 1 1m1.9 8.4c3.5 1.5 3.5 1.5.8 1.5-3.4.1-7.7-3.9-7.6-7.1 0-2 .2-1.9 1.6.9 1 2 3 3.8 5.2 4.7m.9-3.6c-.2.8-.8 1.7-1.4 1.9-1.3.4-2.7-2.4-1.9-3.7.9-1.4 3.6.1 3.3 1.8m2.9 1.9c-.4.3-1 .3-1.4 0-.3-.4 0-.7.7-.7s1 .3.7.7M732.4 722.1c-.4.7-.2 1.5.4 1.7.7.2 1.2 2.2 1.2 4.5 0 2.9.3 3.8 1.1 3 .5-.5.9-3 .7-5.3-.3-4.4-1.9-6.2-3.4-3.9M768 726.5c0 3 .5 5.5 1 5.5.6 0 1-1.1 1-2.5 0-1.6.6-2.5 1.5-2.5s1.5 1 1.5 2.6c0 1.4.4 2.3 1 1.9.6-.3 1-2.8 1-5.6 0-2.7-.4-4.9-1-4.9-.5 0-1 .9-1 2s-.7 2-1.5 2-1.5-.9-1.5-2-.4-2-1-2c-.5 0-1 2.5-1 5.5M446 730.5c0 2.5.5 4.5 1 4.5.6 0 1-2 1-4.5s-.4-4.5-1-4.5c-.5 0-1 2-1 4.5M722 727c0 .5 1.4 1 3.1 1s2.8-.4 2.4-1c-.3-.6-1.7-1-3.1-1-1.3 0-2.4.4-2.4 1M446.7 738.7c-1.1 1-.8 8.3.3 8.3.6 0 1-2 1-4.5 0-4.6-.2-5-1.3-3.8M270 747c1.4 1.1 3.2 2 4 2 1 0 .7-.7-1-2-1.4-1.1-3.2-2-4-2-1 0-.7.7 1 2M446.7 749.7c-1.1 1-.8 7.3.3 7.3.6 0 1-1.8 1-4 0-4.1-.2-4.5-1.3-3.3M205.7 752.7c-2.1 2.4-2.3 4-.2 2.3 2.3-1.9 4.4.3 2.5 2.5-.9 1.1-1.6 1.3-2.4.5-1.9-1.9-2.8-1-2.2 2.3s.6 3.3-5.6 5.1c-3.5 1-7.6 2.2-9.3 2.7-25.3 7.4-23.5 6.2-23.5 15.1 0 8.7.9 8.7 1.1 0 .2-6.7.4-7 5.3-8.3 4.2-1.1 15.1-4.2 26.1-7.4 7.1-2.1 9.4-2.4 10.8-1.5 1 .6 3.2.8 4.7.5 3-.7 8 1.1 13.2 4.7 3.2 2.2 6.4 2.3 7.2.2 1.1-2.9.6-5.5-1.1-6.1-5.3-2-13.3-7.6-13.3-9.2 0-2.6-2.1-4-7.1-4.7-3.6-.5-4.7-.2-6.2 1.3m5.3.3c0 .5-.2 1-.4 1-.3 0-.8-.5-1.1-1-.3-.6-.1-1 .4-1 .6 0 1.1.4 1.1 1m5.8 2.3c.2 1.1-.3 1.7-1.7 1.7-2.5 0-4.2 2.9-3.4 5.8.6 2.6-2.1 3.1-3.1.6-1.1-2.8-.7-4.1 2.4-7.4s5.3-3.5 5.8-.7m2.2 4.9c0 .7-.4 1.9-.9 2.7-1.2 1.9-5.1.4-5.1-2 0-1.4.7-1.9 3-1.9 1.7 0 3 .5 3 1.2m-12 .8c0 .5-.4 1-.9 1-.6 0-1.3-.5-1.6-1-.3-.6.1-1 .9-1 .9 0 1.6.4 1.6 1m15 3c-1.2 2.3-3 2.7-3 .7 0-1.7 1-2.7 2.7-2.7 1.1 0 1.1.5.3 2m4.4-.1c.3.4-.1 1.7-.9 2.7-1.1 1.5-1.6 1.6-2.6.7-1-1-.9-1.5.1-2.8 1.4-1.7 2.6-1.9 3.4-.6m3.6 3c0 1.2-2.9 3.5-3.6 2.8-1.1-1 .5-3.7 2.1-3.7.8 0 1.5.4 1.5.9m3 2.1c0 1.1-.7 2-1.5 2-1.5 0-2.1-2.1-.8-3.3 1.2-1.3 2.3-.7 2.3 1.3M281 753c3.4 2.7 6.3 2.6 3.1 0-1.3-1.1-3.1-2-4-2-1.2 0-1 .5.9 2M330.5 756c-1.6 1.6-2.5 3.3-2.2 3.7.8.7 6.7-4.5 6.7-5.9 0-1.6-1.7-.8-4.5 2.2M290 756.8c0 .9 4.3 4.2 5.5 4.2 1.5 0 .2-1.8-2.5-3.3-1.6-1-3-1.4-3-.9"/><path d="M268.8 759.7c-4.7 2.9-5.8 7.6-5.8 23.9 0 15.9-.5 14 8 28.4 7.1 12 9 13.1 15.8 9 1.8-1.1 3.6-2 4-2s1.8 2.7 3.1 6.1c2.3 6.1 4.2 7.7 8.5 7.4 3.3-.3 2-2-1.7-2.3-3-.3-3.5-.8-5.7-6.3-2.8-7.1-3.2-6.4 7.6-12.6 7.3-4.2 7.4-4.3 8.8-15.4.8-5.7 1.7-11.6 2.1-13 .4-1.5.2-3-.3-3.3-.6-.3-1.5 3.6-2.2 9.7-1.8 15.2-2.2 16.1-8.8 20.1-3.1 1.8-8.8 5.2-12.5 7.5-10 6.2-10.6 5.9-18.9-7.8l-6.8-11.4v-14.4c0-15.4.8-18.6 5.2-21.7 3-2.1 4-2 7.3.8 6.2 5.4 16.7 5.4 27.2 0 5.7-2.8 5.7-2.8 7.7-.9 1 1 1.3 2.6.9 4.9-.3 1.9-.1 3.6.6 4 .7.5 1.1-.9 1.1-4.3 0-4.2-.4-5.3-2.4-6.6-2.3-1.5-2.8-1.5-7.8 1.2-4.6 2.4-6.4 2.8-14.4 2.8-8.4 0-9.2-.2-12.3-2.8-3.8-3.1-4.6-3.2-8.3-1M446 765.5c0 1.9.5 3.5 1 3.5.6 0 1-1.6 1-3.5s-.4-3.5-1-3.5c-.5 0-1 1.6-1 3.5"/><path d="M304.8 765.5c-.9 2-.9 2.8.1 3.8 1.7 1.7 4.5-.4 4.9-3.7.3-2.1-.1-2.6-1.8-2.6-1.2 0-2.5 1-3.2 2.5m3.2 1c0 .8-.4 1.5-1 1.5-.5 0-1-.7-1-1.5s.5-1.5 1-1.5c.6 0 1 .7 1 1.5M321 765.5c-1.3 1.4-2 2.8-1.7 3.2.8.7 5.7-3.5 5.7-4.9 0-1.5-1.6-.8-4 1.7M268 765.9c-1.2 2.3-.3 5.1 1.6 5.1 2.1 0 4.5-4.1 3.2-5.7-1.5-1.9-3.6-1.6-4.8.6m4 1c0 1.4-1.8 2.3-3 1.6-.6-.4-.8-1.1-.5-1.6.8-1.2 3.5-1.2 3.5 0M275 771.2c-1.5 2.5-2.7 3.3-4.7 3.3-2.2 0-2.9.5-3.1 2.3-.3 1.9 0 2.3 1.5 2 2.8-.6 5.2 4.3 5.9 12.2.6 5.7.4 7.4-1.1 9.6-1.7 2.7-1.7 2.8.1 4.3 1 .9 2.6 3.6 3.5 6.1 1.5 4.2 1.9 4.5 5 4.4 2.1-.1 5.9-1.6 9.9-4.2 9.5-5.9 10.7-7.3 11.5-12.8.4-2.7 1.5-6.1 2.6-7.6 2.2-3.1 2.6-6.4.5-3.6-.7 1-1.8 1.8-2.4 1.8s-1.1.8-1.1 1.7c-.1 2.8-1.3 8.3-1.9 8.3-.2 0-1.1-.8-1.8-1.8-1.2-1.6-1.3-1.6-1.4 0 0 .9.5 2 1 2.3.6.3 1 1.6 1 2.8-.1 1.7-1.9 3.3-7.8 6.7-9.9 5.7-12.2 5.8-14 .5-.7-2.2-1.9-4.5-2.7-5.1-1.6-1.2-2-3.4-.7-3.4.4 0 1.2-1 1.7-2.2.6-1.2 1.7-2.5 2.5-2.9.8-.5 3.9-2.2 6.8-3.9 2.9-1.6 6.1-3 7.1-3 1.6 0 1.8-.6 1.4-4.4-.4-3.6-.1-4.9 1.6-6.7 1.1-1.3 2.7-3.5 3.3-5.1 1.9-4.2 2.8-3.4 2.8 2.5 0 4.7-.3 5.5-2.5 6.7-2.6 1.4-3.3 3.4-1.5 4.5.6.3 1-.1 1-1 0-.8 1.1-2 2.5-2.5 2.3-.9 2.5-1.4 2.5-7.4 0-8.9-1.1-9.2-13.6-3.6-5.2 2.4-7.6 2-9.2-1.5-1.6-3.4-3.8-3.1-6.2.7m6 1.8c3.2 3.4 5.2 3.4 12.3-.2 2.2-1.1 4.1-1.7 4.4-1.4 1 .9-4 7.4-6.7 8.8-1.3.7-4.9 2.8-7.9 4.5-6.4 3.9-7.1 4-7.1 1.2 0-1.1-.7-3.3-1.6-4.8-1.5-2.6-1.5-3 .5-6.9 1.2-2.3 2.4-4.2 2.7-4.2s1.9 1.4 3.4 3m-11 3c0 .5-.5 1-1.1 1-.5 0-.7-.5-.4-1 .3-.6.8-1 1.1-1 .2 0 .4.4.4 1m22 8.3c0 1.8-1.6 3.2-7.4 6.5-4 2.3-7.7 4.2-8 4.2-.4 0-.6-1-.4-2.2.2-1.6 2.5-3.5 7.8-6.5 4.1-2.4 7.6-4.3 7.8-4.3.1 0 .2 1 .2 2.3M237 773.5c.7.8 2 1.5 2.9 1.5 1.3-.1 1.3-.3-.3-1.5-2.6-1.9-4.2-1.9-2.6 0M312.2 774.7c-3.3 3.7-2.2 5 1.1 1.5 1.6-1.7 2.5-3.2 2-3.5s-1.9.6-3.1 2M446 776.9c0 2.3.5 4.1 1 4.1.6 0 1-1.5 1-3.4s-.4-3.8-1-4.1c-.6-.4-1 1-1 3.4M118.1 778.6c-.6 2-.7 4.9-.4 6.5 1 5.3 1.9 3.9 1.9-3.2-.1-3.8-.2-6.9-.3-6.9s-.7 1.6-1.2 3.6M131.2 776.2c-.6.6-1.2 2.9-1.2 4.9 0 4.3 2.3 6.8 4.8 5.2 2.5-1.5 2.1-5.6-.5-6.8-2.9-1.2-3-2.9-.2-2.2 1.3.3 1.9.1 1.6-.6-.5-1.7-3-2-4.5-.5m3.8 6.8c0 2.3-2.5 2.7-3.3.6-.7-1.6.1-2.6 2-2.6.7 0 1.3.9 1.3 2M139.2 776.2c-1.9 1.9-1.4 7.3.9 9.4 2.1 1.9 2.1 1.8 4-.5s1.9-2.3 3.8 0 1.9 2.4 4 .5c2.3-2.1 2.7-5.6 1.1-8.7-1.4-2.6-4.7-2.4-6.1.3-1.2 2.3-1.2 2.3-2.2 0-1.1-2.4-3.6-2.9-5.5-1m4.3 4.8c0 5.1-2.9 4.8-3.3-.3-.3-3.3-.1-3.8 1.5-3.5 1.3.2 1.8 1.2 1.8 3.8m8.3-.3c-.2 2.6-.8 3.8-1.8 3.8s-1.6-1.2-1.8-3.8c-.3-3.2 0-3.7 1.8-3.7s2.1.5 1.8 3.7M155.5 782.1c0 5.3.3 6.5 1.3 5.7 1.5-1.3 1.5-8.8-.1-10.9-1-1.3-1.2-.4-1.2 5.2M123.4 777.1c-.3.6-.2 1.4.4 1.8.6.3 1.2 2.4 1.5 4.6.3 3.3.4 2.9.5-1.8.2-5.3-.8-7.2-2.4-4.6M245 776.9c0 1 3.1 3.1 4.5 3.1 1.1 0-.5-2-2.6-3-1.2-.7-1.9-.7-1.9-.1"/><path d="M303.5 784c-1.6 1.7-2.4 3-1.9 3 1.3 0 5.9-4.8 5.2-5.5-.2-.3-1.7.9-3.3 2.5M255.5 784c1.7 1.1 3.5 2 4 2 1.7-.1-3.6-4-5.4-4-1 0-.6.7 1.4 2M446 789.9c0 2.8.5 5.1 1 5.1.6 0 1-2 1-4.4 0-2.5-.4-4.8-1-5.1-.6-.4-1 1.3-1 4.4M474 797.5V810h88v-25h-88zm85-.5v10h-82v-20h82z"/><path d="M484.1 791.2c0 1.3.3 1.7.6 1 .2-.6.9-1.2 1.4-1.2 1.3 0 1.1 3.4-.3 4.8-.9.9-.8 1.5.6 2.5 1.1.8 1.5 1.9 1 3-.6 1.7-.8 1.7-2.5.1-1.1-.9-1.9-1.2-1.9-.6 0 4.6 4.4 5.8 6 1.6.6-1.4.7-3.1.3-3.7-.4-.7-.8-3-.8-5.2 0-3.4-.3-4-2.2-4.3-1.8-.3-2.3.1-2.2 2M495.6 793.8c-3.2 6.4-3.2 7.2 0 7.2 2.1 0 2.4.4 1.9 2-.4 1.4-.2 2 .9 2 1.2 0 1.5-1.4 1.4-6.9-.1-9.5-1-10.5-4.2-4.3m2.4 3.1c0 .6-.4 1.3-1 1.6-.5.3-1-.1-1-.9 0-.9.5-1.6 1-1.6.6 0 1 .4 1 .9M515.4 791.5c-.4 1.4-.3 2.9 0 3.3.4.3.9-.4 1.3-1.6.3-1.2.9-2.2 1.4-2.2 1.5 0 .9 4.3-1.1 8.5-2.6 5.3-2.5 5.5 1.5 5.5 2.8 0 3.5-.4 3.5-2 0-2.3-1-2.6-2.8-.8s-1.6-.4.4-4.6c2.1-4.2 1.2-8.6-1.6-8.6-1.3 0-2.2.9-2.6 2.5M526.4 790.4c-.3.8-.4 2.3-.1 3.3.4 1.6.6 1.5 1.2-.5.4-1.2 1.1-2.2 1.6-2.2 1.5 0 1 3.9-1.1 8-2.7 5.2-2.5 6 1 6 2.6 0 3-.4 3-2.7 0-2.6-.1-2.6-1.5-.7-1.9 2.6-1.9.3.1-4 2.1-4.3 1.2-8.6-1.7-8.6-1.1 0-2.2.6-2.5 1.4M537 790.4c-.7.9-.9 2.4-.5 3.3.6 1.6.8 1.6 1.9-.5.7-1.2 1.5-2 1.9-1.6.9.9-.2 5.2-2.5 9.2-1 1.8-1.8 3.5-1.8 3.7 0 .3 1.6.5 3.5.5 2.8 0 3.5-.4 3.5-2 0-1.1-.4-2-1-2-.5 0-1 .5-1 1.1 0 .5-.4.8-.9.4-.6-.3-.2-2.3.9-4.7 1.9-4.4 1.4-8.1-1.2-8.6-.8-.2-2.1.4-2.8 1.2M504 798c0 .5 1.3 1 2.9 1 1.7 0 3.3-.5 3.6-1 .4-.6-.8-1-2.9-1-2 0-3.6.4-3.6 1M267.9 789.3c-.7 1.7-.8 3.1-.1 4.2.9 1.6 1.1 1.6 3.1-.4 2.5-2.5 2.4-5.4-.2-5.9-1-.2-2.1.6-2.8 2.1m3.1 1.2c0 .8-.7 1.5-1.5 1.5-.9 0-1.2-.6-.9-1.5.4-.8 1-1.5 1.5-1.5s.9.7.9 1.5M295.7 792.1c-1 1.1-1.6 2.3-1.3 2.6.8.8 3.8-2.5 3.4-3.7-.2-.6-1.1-.1-2.1 1.1M118 794c-1.3 2.4.3 6 2.6 6 .9 0 1.4.7 1.2 1.7-.2 1.1-1.1 1.7-2.1 1.5-.9-.2-1.7.2-1.7.8 0 1.4 3.3 1.3 4.8-.2.7-.7 1.2-2.7 1.2-4.6 0-6.3-3.7-9.5-6-5.2m3.8 2.2c-.2 1.3-.7 2.3-1.3 2.3-.5 0-1.1-1-1.3-2.3-.2-1.5.2-2.2 1.3-2.2s1.5.7 1.3 2.2M128 793.5c-1.6 1.9.2 6.5 2.5 6.5.8 0 1.5.7 1.5 1.5 0 .9-1 1.5-2.6 1.5-1.4 0-2.3.4-1.9 1 1 1.7 4.4 1.1 5.5-.9 3.1-6-1.2-14.2-5-9.6m3.5 2.8c0 2.6-2 2.5-2.3-.2-.3-1.6.1-2.2 1-1.9.7.3 1.3 1.2 1.3 2.1M137.4 793.1c-.3.5.4.9 1.5.9 2.5 0 2.5.3.5 4.6-1 2-1.3 4.1-.9 5.1.6 1.4 1 1 1.5-1.7.3-1.9 1.2-4.5 1.8-5.7.7-1.2 1.2-2.4 1.2-2.6 0-.9-5.1-1.4-5.6-.6M147 793.5c-1 1.2-1 1.8-.1 2.9s.9 1.9 0 3.4c-1.5 2.4.2 5.2 3.2 5.2 1.9 0 2.6-2 2.7-7.5 0-5-3.2-7.2-5.8-4m4 2c0 .8-.7 1.5-1.5 1.5s-1.5-.7-1.5-1.5.7-1.5 1.5-1.5 1.5.7 1.5 1.5m0 5.5c0 1.1-.7 2-1.5 2-1.5 0-2.1-2.1-.8-3.3 1.2-1.3 2.3-.7 2.3 1.3M185.9 794.4c-1.4 3-.3 9.5 1.7 10.3 2.6 1 4.4-1.7 4.4-6.7 0-3.4-.4-5-1.6-5.4-2.6-1-3.4-.7-4.5 1.8m5.1 3.5c0 3.3-1.4 5.6-2.9 4.7-1.2-.8-1.5-7.8-.4-8.9 1.2-1.2 3.3 1.5 3.3 4.2M205.7 792.7c-.4.3-.7 1.9-.7 3.5 0 2.3.4 2.7 2.3 2.5 1.6-.1 2.2.3 2.2 1.8s-.6 1.9-2.2 1.8c-1.6-.2-2.1.1-1.6 1.3.8 2 3.2 1.4 5-1.3 1.4-2.1 1.3-2.4-1.8-5.3-3.1-2.8-3.2-3-1.1-3 1.2 0 2.2-.5 2.2-1 0-1.1-3.3-1.4-4.3-.3M158.1 797.1c-2.4 4.2-1.9 5.8 1.7 5.9.6 0 1.2.6 1.2 1.2.1.9.3.8.9-.2.9-1.7.2-11-.8-11-.4 0-1.8 1.9-3 4.1m2.9 1.9c0 1.1-.7 2-1.5 2-1.7 0-1.8-.2-.9-2.4.9-2.3 2.4-2 2.4.4M177.4 794.1c-.3.6-.2 1.4.4 1.8.6.3 1.2 2.7 1.5 5.1.3 3.8.4 3.6.5-1.8.2-5.8-.7-7.7-2.4-5.1M196.5 793.9c-.3.5-.1 1.2.5 1.6.5.3 1 2.6 1 5.1 0 2.8.4 4.3 1 3.9.6-.3 1-3.1 1-6.1 0-4-.4-5.4-1.4-5.4-.8 0-1.7.4-2.1.9M290 798c0 .5-1.3 1-3 1-2.5 0-3 .4-3 2.4 0 3.2 2.6 5.3 4.8 3.9 1-.6 1.7-2 1.7-3.1s.3-2.4.8-2.8c1-1.1.9-2.4-.3-2.4-.5 0-1 .4-1 1m-1 4.5c0 .8-.7 1.5-1.5 1.5s-1.5-.7-1.5-1.5.7-1.5 1.5-1.5 1.5.7 1.5 1.5M451.1 797.8c-1.4.2-8.5 4-15.9 8.5-12.1 7.2-13.6 7.9-14.7 6.4-.7-.9-2-1.7-2.9-1.7-2.3 0-6.7 2.4-8.8 4.7-1.5 1.7-1.6 2.3-.3 5.8 1.2 3.5 1.7 4 4.4 3.9 4.2-.2 11.6-5.4 11.6-8.2 0-1.8 2.2-3.5 10-8.2 5.5-3.3 10.3-6 10.8-6 .4 0 .7 1.6.7 3.6 0 2.3.4 3.3 1.1 2.8.7-.4.9-2.1.5-4.4-.8-4.8-.3-5 13.5-5 8.9 0 10.9-.3 10.9-1.5 0-1.1-1.7-1.4-9.2-1.3-5.1.1-10.4.4-11.7.6m-31.3 17.1c.3.8-.1 1.2-.9.9-.7-.2-1.5-1-1.7-1.7-.3-.8.1-1.2.9-.9.7.2 1.5 1 1.7 1.7m-4.1.7c.9 2.3-1.1 3.8-2.6 2-1.3-1.6-.7-3.6 1-3.6.5 0 1.2.7 1.6 1.6m-3.7 4c0 .8.5 1.4 1 1.4.6 0 1 .7 1 1.5s-.7 1.5-1.5 1.5c-.9 0-1.2-.6-.9-1.5.4-.8.1-1.5-.5-1.5s-1.1-.9-1.1-2.1c0-1.1.5-1.7 1-1.4.6.3 1 1.3 1 2.1m11-1.6c0 .5-.7 1-1.5 1s-1.5-.5-1.5-1c0-.6.7-1 1.5-1s1.5.4 1.5 1M168.3 799.7c.9.2 2.3.2 3 0 .6-.3-.1-.5-1.8-.5-1.6 0-2.2.2-1.2.5M116.8 812.5c-1.2 2.8.4 10.5 2.3 10.5.6 0 .5-.8-.2-2.1-.6-1.2-.9-4.2-.6-6.5.5-5 .2-5.5-1.5-1.9M130.3 811.7c-1.9 4.9-.2 10.6 2.9 10.1 2-.3 2.3-.9 2.5-4.8 0-2.5-.4-5.1-.9-5.8-1.5-1.7-3.7-1.5-4.5.5m3.7 1.8c0 .8-.7 1.5-1.5 1.5s-1.5-.7-1.5-1.5.7-1.5 1.5-1.5 1.5.7 1.5 1.5m1 4.4c0 .3-.5 1.3-1 2.1-1.2 1.9-3.5-.2-2.7-2.4.6-1.5 3.7-1.2 3.7.3M138 811.9c-2.3 4.4.2 11 3.7 9.7.8-.3 1.7-.6 1.9-.6 1 0 .3-8.7-.8-9.8-1.8-1.8-3.6-1.5-4.8.7m4.8 4.4c-.4 3.9-2.4 4.6-3.9 1.4-1.5-3.4.5-7.5 2.7-5.6.9.7 1.4 2.5 1.2 4.2M145.9 812.3c-1.7 3.7.1 8.1 3.4 8.5 2.1.3 2.8-.2 3.3-2.2 1.5-6.3-4.2-11.7-6.7-6.3m4.5.3c1 2.5.7 6.2-.5 7-1.5.9-2.9-1.4-2.9-4.7 0-3.9 2.2-5.4 3.4-2.3M154.6 812c.5 1.4.8 4.5.7 7-.2 3.6 0 4.1.9 2.6 1.2-2.2.5-9.4-1.2-11-.9-.8-1-.5-.4 1.4M123 812.5c-.8 1-.9 1.5-.1 1.5.6 0 1.1 1.7 1.1 4 0 2.2.5 4 1.1 4s.9-1.9.7-5c-.5-5.7-1-6.6-2.8-4.5M446 818.7c0 3.5.3 4.4 1 3.3 1.3-2 1.3-6.7 0-7.5-.6-.4-1 1.2-1 4.2M270 819.5c-1.3 1.4-2.1 2.8-1.7 3.1.7.7 4.6-3.5 4.7-4.9 0-1.2-.5-.8-3 1.8M307.3 817.6c-1.6.7-1.8 23-.3 23.9 1.4.8 82.6 1.7 86.3.9 2.7-.6 2.7-.6 2.7-12.5 0-11.7 0-11.9-2.2-12-12.5-.4-85.6-.6-86.5-.3M394 830v10h-42.5c-33.3 0-42.5-.3-42.6-1.3 0-.6-.2-2.8-.3-4.7-.2-1.9-.1-5.9.2-8.8l.5-5.2H394z"/><path d="M316.7 821.7c-.4.3-.7 1.3-.7 2.1 0 1.2.3 1.2 1.5.2s1.5-.9 1.5.4c0 1-.4 2.6-1 3.6-.7 1.3-.6 1.9.5 2.4 2 .7 1.9 4.6 0 4.6-.8 0-1.5-.5-1.5-1 0-.6-.4-1-.9-1-1.3 0-.1 3.8 1.4 4.4.7.2 2.1-.4 3.1-1.5 1.5-1.7 1.6-2.5.7-4.9-.6-1.7-.9-3.9-.6-5 .8-3-2.2-6.2-4-4.3M327.2 823c-1.9 3.1-1.4 5.8 1.3 7.6 3.1 2 3.4 4.8.5 3.9-2.3-.7-2.7.7-.6 2.4 2.4 2 4.6-1.3 4.6-7 0-7.9-2.9-11.4-5.8-6.9m3.8 3q0 3-1.5 3t-1.5-3 1.5-3 1.5 3M361.2 822.2c-1.5 1.5-1.6 4.8-.2 4.8.6 0 1-.9 1-2s.5-2 1-2c1.7 0 1.1 4.8-1 9.1-2.3 4.5-2 5.9 1.6 5.9 2 0 2.4-.5 2.4-2.8 0-2-.3-2.3-1-1.2-1.8 2.9-2 .2-.3-4.4 1.3-3.4 1.5-5.1.7-6.3-1.4-2.2-2.7-2.6-4.2-1.1M350 823.9c-2.1 3.9-.9 13.1 1.8 13.1 2.3 0 4.1-3.1 4.2-7.3 0-4.5-1.5-7.7-3.5-7.7-.8 0-1.9.9-2.5 1.9m3.8 6.3c-.5 6.5-2.8 6.1-2.8-.5 0-2.9.3-5.7.7-6.1 1.3-1.2 2.4 2.4 2.1 6.6M371.7 822.7c-2.6 4.5-1 14.3 2.3 14.3 2.2 0 3-1.9 3-7.5 0-2.4-.3-5-.6-5.9-.6-1.6-3.9-2.2-4.7-.9m3.7 2.9c1.6 4.1 0 10.4-2.3 9-1.2-.8-1.5-8.8-.4-9.9q1.65-1.65 2.7.9M383.6 822.8c-.3.5-.8 2.9-1.2 5.3s-1.1 5.2-1.6 6.3c-.7 1.2-.6 2.2.1 2.9.8.8 1.1.4 1.1-1.6s.5-2.7 2-2.7c1.3 0 2 .7 2 1.8 0 2.1.9 3.4 2 2.7.8-.5-2.3-14.1-3.3-15.2-.3-.2-.8 0-1.1.5m1.4 6.3c0 1.1-.4 1.8-1 1.4-.5-.3-.7-1.2-.3-2 .7-2.1 1.3-1.9 1.3.6M338 830c0 .5 1.4 1 3 1 1.7 0 3-.5 3-1 0-.6-1.3-1-3-1-1.6 0-3 .4-3 1M244.6 824.5c-2 1.4-5 3.2-6.6 4-1.6.9-3.7 2.7-4.6 4-1.5 2.3-1.5 2.7 1.2 7.2 4.3 7.1 4.4 7.6 1.8 10.2-2.7 2.7-3 4.1-1.2 5.9 1.5 1.5 4.8 1.6 4.8.2 0-2.3 4-.8 5.5 2 .9 1.6 1.7 3 1.9 3s3.5-1.8 7.5-3.9l7.1-4 12.8 6.1c12.6 6 21.2 8.3 22.6 5.9.5-.7-.7-1.1-3.8-1.1-4.3 0-9.1-1.8-25.4-9.7-4.1-2-5.1-2.9-4.6-4.2 1.3-2.8.6-8-1.5-11-1.2-1.6-1.8-3.6-1.5-4.4.7-1.9-1.2-5.7-2.8-5.7-.6 0-2.6-1.6-4.4-3.5-1.7-1.9-3.6-3.5-4.1-3.5-.6 0-2.7 1.1-4.7 2.5m3.4 1.3c0 1.3-1.2 2.2-2.2 1.6s-.1-2.4 1.3-2.4c.5 0 .9.4.9.8m5.6 1.7c1.7 2.5 1.6 2.7-1.7 6.1-2.7 2.8-3.1 3.8-2.3 5.2 1.5 2.3 4.8 2.7 6.4.7 1.9-2.3 3.8-1.8 5.5 1.5 2.1 4 1.9 4.3-1.5 3.5-3.5-.8-6.2.8-5.3 3.2.4 1.1.2 1.4-.8 1.1-1.6-.5-11.8-16.6-11.8-18.7-.1-1 .7-1.2 2.9-.7 2.6.5 3.2.2 4-1.9 1.2-3.2 2.5-3.2 4.6 0m-12.4 4.5c.7 1.4 3.5 6.2 6.3 10.8 5 8.4 7.7 10.1 8.3 5.4.4-2.3 1.4-2.6 4.6-1.3 1.6.6 1.2 1.1-2.9 3.5-2.7 1.4-5.4 2.5-6 2.2-.6-.2-2.6-3.2-4.5-6.7s-4.6-8.4-6.2-10.8c-1.5-2.4-2.5-4.8-2.2-5.3.7-1.1.9-.9 2.6 2.2m.8 7.5c1.8 3.3 4.4 7.7 5.7 9.7 1.2 2.1 2.3 4.5 2.3 5.4 0 1.2 1.1.9 5.4-1.5 2.9-1.7 5.7-3.1 6-3.1 2.9 0-7.4 6.5-10.4 6.5-.8.1-2 .4-2.6.8-1.1.7-5.6-5.6-11.8-16.4-2.9-5.1-3.2-6.9-1.4-8.7 1.6-1.6 2.6-.5 6.8 7.3m17.5-6.5c0 2.2-2.9 1.8-3.3-.3-.3-1.4.1-1.8 1.5-1.5 1 .2 1.8 1 1.8 1.8m-3.4 2.6c1.2 1.4 1.1 1.6-.5 1.3-1.1-.2-2.1-1-2.4-1.7-.5-1.7 1.3-1.5 2.9.4m-2.1 3.5c0 1.1-1.1 1.1-2.9 0-.7-.5-1-1.4-.6-2 .5-.9 1-.9 2.1 0 .8.6 1.4 1.5 1.4 2m-13 11.4c.7.9 1 1.8.7 2.1-1 1.1-3.7-.5-3.7-2.1 0-1.9 1.4-1.9 3 0m-2 3.6c0 .5-.7.9-1.5.9s-1.5-.7-1.5-1.5c0-.9.6-1.2 1.5-.9.8.4 1.5 1 1.5 1.5M420.1 825c0 1.6 2.2 5 3.3 5s.6-1.4-1.4-4c-1.3-1.6-2-2-1.9-1M187.2 826.2c-1.5 1.5-1.6 8.2-.2 10.9 2.5 4.6 6.2.4 5.2-6.1-.7-5.4-2.6-7.2-5-4.8m3.3 5.8c0 2.6-.5 4.5-1.2 4.7-.9.3-1.3-1-1.3-4.7s.4-5 1.3-4.8c.7.3 1.2 2.2 1.2 4.8M197.2 826.2c-.7.7-1.2 1.6-1.2 2.2s.5.5 1.2-.2c2.1-2.1 3.1-1.3 2.5 1.8-.4 1.7-.2 3 .3 3 1.3 0 1.3 2.7-.1 3.5-.6.4-1.7-.1-2.4-1.1-1.2-1.6-1.4-1.7-1.5-.3 0 .9.7 2.2 1.5 2.9 2.5 2.1 4.4-.5 4.3-5.8-.1-6.3-1.9-8.7-4.6-6M206 826.9c-1.6 3.1-1.2 7.7 1 10.2 2 2.4 2 2.4 3.5.5 2.8-3.7 1.2-12.6-2.3-12.6-.6 0-1.6.9-2.2 1.9m4 5.2c0 6.6-2.4 6.2-2.8-.4-.2-3.7 0-4.7 1.2-4.7s1.6 1.2 1.6 5.1M263 826.5c-2 2.4-.6 2.8 1.5.5 1-1.1 1.3-2 .8-2-.6 0-1.6.7-2.3 1.5M129.6 827.5c-2.2 2.2-1.7 4.7 1.2 6s2.4 4.1-.7 3.7c-2-.2-2.2 0-1.1 1.3 1.6 1.9 2.5 1.9 4.5-.2 1.3-1.2 1.5-2.6 1.1-5.7-.9-5.5-2.7-7.3-5-5.1m3.2 3.3c.2 1.5-.2 2.2-1.2 2.2-1.1 0-1.6-.9-1.6-2.6 0-3.1 2.3-2.8 2.8.4M148.5 827.2c-.2.7-.3 3.5-.2 6.3.2 4.6.4 5 2.7 5s2.5-.4 2.6-5c.1-5.2-.9-7.5-3.3-7.5-.7 0-1.6.6-1.8 1.2m3.5 2.3c0 .8-.7 1.5-1.5 1.5s-1.5-.7-1.5-1.5.7-1.5 1.5-1.5 1.5.7 1.5 1.5m0 5.5c0 1.1-.7 2-1.5 2-1.5 0-2.1-2.1-.8-3.3 1.2-1.3 2.3-.7 2.3 1.3M119.1 828.8c-1.1 2.1 1.3 6.7 2.9 5.7 1.5-.9 2.2 1.5 1 3.1-1 1.1-1.6 1.2-2.8.2-1.3-1.1-1.4-1-1 .2.8 2.5 4.2 1.8 5.2-1.1 1.4-4-.1-9.9-2.4-9.9-1.1 0-2.4.8-2.9 1.8m4.5 3.1c-1.1 1.8-3.6 1.3-3.6-.7 0-1 .3-2.2.7-2.6 1-1 3.7 2 2.9 3.3M139.8 827.7c2.3.4 3 2.7 1.2 3.8-.5.3-1 2.1-.9 3.8 0 2.9.2 2.6 1.9-2.3 1.1-3 2-5.6 2-5.8 0-.1-1.5-.1-3.2-.1-2.4.1-2.7.3-1 .6M159.6 829.8c-2.2 4.3-2.1 7.2.4 7.2 1.1 0 2 .6 2 1.2 0 .9.3.9.9-.1 1-1.5.4-7.5-.9-10-.6-1.1-1.2-.7-2.4 1.7m2.4 3.2c0 1.1-.7 2-1.5 2-1.7 0-1.8-.2-.9-2.4.9-2.3 2.4-2 2.4.4M178.5 828.7c.5 1 1.1 3.8 1.5 6.3.7 4.5.7 4.4.9-1.8.1-5.1-.2-6.2-1.5-6.2-1.2 0-1.4.5-.9 1.7M445.7 828.7c-.9 1.4-.1 6.9.8 6.3 1.1-.6 1.3-4.7.4-6.1-.4-.7-.9-.7-1.2-.2M425.5 835c.9 1.6 2 3 2.5 3 1.4 0 1.3-.7-.6-3.5-2.3-3.5-3.8-3.1-1.9.5M169.3 833.7c.9.2 2.3.2 3 0 .6-.3-.1-.5-1.8-.5-1.6 0-2.2.2-1.2.5M445.6 838.9c-.8 1.3 1.9 6.1 3.4 6.1 1.3 0 1.3-1.7-.1-2.5-.6-.4-1.4-1.6-1.8-2.8-.5-1.4-1-1.7-1.5-.8"/><path d="M430 841.9c1.5 3 1.2 4-1.4 4.7-1.3.3-3.4 1.6-4.6 2.9-2.2 2.3-2.2 3-1.8 18.7.4 16.4.4 16.4 4.5 24.8 6.5 13.2 9.8 18.4 12.7 20 2.6 1.4 3.1 1.3 12.4-3.6 7.5-4 9.7-5.6 9.8-7.3.1-1.2 1.1-2.9 2.3-3.8 1.2-.8 2-2.1 1.7-2.9-.5-1.3 3.3-4.8 4.2-3.9.3.2-.3 1.6-1.2 3s-1.2 2.5-.7 2.5c.6 0 .8.7.5 1.5-.4.8-.3 1.5.1 1.5 1.3 0 3.4-3.4 3.5-5.6 0-1.1.7-2.9 1.5-4 1.7-2.2 2-5.4.5-5.4-.5 0-1 .4-1 .9 0 .9-9.6 7.1-11.1 7.1-.5 0-.9-1.4-.9-3 0-2.4.7-3.5 3.5-5.1 1.9-1.2 3.5-2.5 3.5-3 0-1.4-1.3-1-4 1.1-4.3 3.4-4.6 3.2-12.9-7-6.1-7.6-8.1-9.6-8.1-8.1 0 .7 1.5 3 3.3 5 3.2 3.7 10.1 12 12.4 15 2.2 2.9 1.4 6.2-3.2 12-3.3 4.3-5.3 6-7.7 6.5-3.6.7-4.6 0-7.8-5.8-2.2-4.1-2.2-4.3 1.2-6s3.2-3.3-1-7.3c-3.6-3.5-4-4.3-4.4-10.2-.3-4.6-.9-6.6-2.1-7.3-1.6-.8-1.6-1.1-.2-3.1 2.3-3.3 1.9-5.7-.5-2.8-2.4 2.8-2.6 6.7-.5 7.5 1.1.4 1.5 2.2 1.5 7 0 3.5-.4 6.6-.9 6.8-.5.1-1.3 1.5-1.6 3-.5 2.1-.1 3.3 1.8 5.2 1.4 1.4 4 5.3 5.8 8.6 3.2 6 6.1 8.1 9.1 6.5.7-.5.6 0-.4 1-.9 1-3.2 1.8-5.4 1.9-3.8.1-3.8.1-10.2-11.4-7.4-13.4-8.2-16.8-8.2-35.6 0-14.5.1-14.8 6.2-15.9 3.4-.6 4.1-.3 8.5 3.8 2.6 2.4 5.8 4.7 6.9 5.1 1.5.5 4.9-.8 11-4 4.9-2.5 9.3-5 9.9-5.5 1.8-1.8 5.5-1 6.6 1.5 1.2 2.7.3 21.2-1.1 22.1-.4.2-1.7-2.3-2.8-5.7-2.1-6.1-2.1-6.1.4-8.1 1.6-1.2 2.4-2.7 2.2-4.1-.4-3.1-3.5-3.2-4.9-.2-1 2.1-1.5 2.3-3.5 1.4-1.9-.9-3.5-.4-9.6 2.7-8.4 4.3-8.3 4.3-7.5 5.1.4.4 3.8-1 7.7-3 6.6-3.5 7.3-3.6 9.3-2.3 1.5 1 3.2 4.6 5.1 10.6 1.6 5 3.5 9.1 4.1 9.1 1.2 0 1.5-1.7 3.1-16.2l.7-5.8 16.6-.2c10.4-.2 16.5-.7 16.3-1.3-.1-.6-6.5-1-16.7-1-16.5 0-16.5 0-17.6-3.3-1.4-4.3-4.9-5.2-9.9-2.3-3.9 2.2-7 2.7-7 1.3 0-1.2-5.1-3.4-5.9-2.7-.3.4.1 1 .9 1.5 5.3 3 5.4 3.4 1 5.8-6 3.2-8.6 2.8-13.6-1.8-2.4-2.2-4.7-4-5.2-4s-1.6-1.6-2.5-3.5-2.1-3.5-2.7-3.5c-.7 0-.8.6 0 1.9m40 12c0 .6-.4 1.3-1 1.6-.5.3-1-.1-1-.9 0-.9.5-1.6 1-1.6.6 0 1 .4 1 .9m-32.1 33.5c.9 1.1.6 1.5-1.6 1.9-3.3.6-3.8.3-3-1.8.8-1.9 3.1-2 4.6-.1m3.1 4.5c0 .6-.5 1.3-1.1 1.6-1.5 1-6.1-.4-5.4-1.5.8-1.3 6.5-1.3 6.5-.1m17.9 9.2c-2.5 1.6-3.2.9-1.3-1.2 1.2-1.3 2-1.6 2.2-.9.3.7-.2 1.6-.9 2.1M511.8 842c-.1.5-.1 6 .2 12.2l.5 11.3h36c19.8 0 39.5-.1 43.8-.3l7.8-.4-.3-11.6-.3-11.7-43.7-.3c-28.1-.1-43.7.1-44 .8m84.5 3.7c.3 1.5.6 6.1.7 10l.1 7.3h-18.8c-10.3 0-28.5.3-40.4.6-15.9.5-21.8.3-22.4-.5-.8-1.4-.9-17.7-.1-19 .3-.5 18.3-.9 40.5-1 39.9-.2 39.9-.2 40.4 2.6"/><path d="M521.7 845.7c-.4.3-.7 1.3-.7 2.1 0 1.2.3 1.2 1.5.2s1.6-.9 2.2.5c.4 1.2 0 2.3-1.1 3.1-1.7 1.2-1.6 1.3.3 2.4 2.3 1.2 2.8 3.5 1 4.6-.7.4-1.6-.1-2.1-1-1.3-2.4-3.1-1-1.8 1.5 2.6 4.7 7.8.2 5.8-5-.5-1.4-.6-3.1-.3-3.9 1.3-3.5-2.4-7-4.8-4.5M531.9 847.3c-1.3 2.8.4 7.7 2.6 7.7.8 0 1.5.9 1.5 2 0 2.2-1.6 2.7-2.3.7-.2-.6-.8-.9-1.2-.5-1.5 1.4.5 3.9 2.7 3.6 2.1-.3 2.3-.9 2.6-6.6.3-6.5-.7-9.2-3.4-9.2-.8 0-1.9 1-2.5 2.3m4.1 2.7c0 3.2-1.4 4-2.4 1.4-1-2.7-.7-4.4.9-4.4q1.5 0 1.5 3M553.6 846.6c-.3.9-.6 3.6-.6 6 0 8.6 4 11.4 6.1 4.4 1-3.2.9-4.8-.1-8-1.4-4.2-4.2-5.5-5.4-2.4m3.8 2c.8 2 .8 6.8 0 8.8-1.2 3-2.4.5-2.4-5 0-5.2 1.1-7.1 2.4-3.8M564.7 845.6c-.4.4-.7 1.4-.7 2.3 0 1.2.3 1.2 1.2.3 2.8-2.8 3.9-.1 1.2 3-1.6 1.6-1.6 1.8 0 2.4s2.2 3.5.9 4.7c-.3.4-1.2-.1-1.9-1.1-1.2-1.6-1.3-1.5-1.4.6 0 2.8 2.4 3.9 4.6 2.1 1.1-.9 1.4-2.2 1-4.3-.3-1.7-.7-4.7-.9-6.6-.2-3.3-2.3-5.1-4-3.4M574.6 846.6c-1.1 2.9-.6 11 .8 12.9 2.4 3.3 4.6.3 4.6-6 0-6.6-.7-8.5-3-8.5-1 0-2.1.7-2.4 1.6m3.4 6.5c0 3.7-.4 5.8-1 5.4-.5-.3-1-3.1-1-6.1s.5-5.4 1-5.4c.6 0 1 2.7 1 6.1M585.6 850.2c-1.8 6.4-2.1 10.8-.6 10.8.6 0 1-1.1 1-2.5 0-1.6.6-2.5 1.5-2.5.8 0 1.5.9 1.5 1.9 0 1.9 1.7 3.8 2.6 2.8.6-.6-1.4-9.2-3.1-13.2-1.2-3-1.2-3-2.9 2.7m2.4 1.8c0 .5-.5 1-1.1 1-.5 0-.7-.5-.4-1 .3-.6.8-1 1.1-1 .2 0 .4.4.4 1M542.5 852.9c-.7 1.3 1.7 2.4 4 1.9.9-.1 1.6-.8 1.6-1.3 0-1.4-4.8-1.9-5.6-.6M219.1 851.5c-7.9 4.2-13.1 9.1-13.1 12.2 0 4.1 9.9 22.6 13.4 24.8 3.1 2.1 3.1 2.1 9.1-.8 6.7-3.3 5.7-3.6 24 6.7 8 4.5 8 4.5 20.3 4.6 7.5 0 12.2-.4 12.2-1s-4.8-1-12.4-1c-12.4 0-12.4 0-23.2-6-5.9-3.3-11.1-6-11.5-6-2.2 0-1.7-2.4 1.2-6 2.3-2.8 2.9-4.3 2.2-5.2-.5-.7-3.4-5.8-6.3-11.3-6-11.4-8-14.5-8.9-14.4-.3 0-3.5 1.6-7 3.4m3.7 2.4c-1 1.6-6.7 5.1-8.3 5.1-.3 0-.5-.8-.5-1.8s1.5-2.4 3.8-3.4c5.3-2.3 6.5-2.3 5 .1m7.7 3.3c1.5 2.9 4.4 7.9 6.3 11.1 3 5 3.3 6 2.1 7.2-.8.7-2.5 1.5-3.8 1.7-2 .3-2.9-.8-6.3-6.7-7.7-13.8-7.5-13.1-4.8-16 1.3-1.4 2.6-2.5 3-2.5s1.9 2.4 3.5 5.2m-11 14.1c5.5 10.4 5.6 10.8 4.1 13.2-1.9 2.9-3.7 3.2-5.9.7-1.8-1.9-10.7-19.4-10.7-21 0-.5 1-2.2 2.1-3.6 2.8-3.5 3.1-3.1 10.4 10.7m7.1-2.3c4.8 9.3 5.1 10.1 3.4 11-2.8 1.5-3.3 1.3-5.9-2.7-1.5-2.4-2-3.8-1.2-4.1 2.8-.9.3-6.2-3-6.2-1.8 0-4.5-5.3-3.4-6.9.3-.6 1.6-1.1 2.8-1.1 1.8 0 3.2 2 7.3 10m-4.6 1c0 .5-.4 1-1 1-.5 0-1-.5-1-1 0-.6.5-1 1-1 .6 0 1 .4 1 1m14.1 10.9c-.9 1.6-10.5 7.1-12.5 7.1s2.1-4.3 6.2-6.5c5.9-3 7.6-3.2 6.3-.6M300.7 852.2c-1.6 1.2-1.7 2.4-1 12.3l.8 11 43.8.3 43.7.2v-12c0-11.8 0-12-2.2-12-55.5-1.1-83.5-1-85.1.2m84.3 2.5c.3.2.5 4.6.5 9.6v9.2l-23-.1c-12.6-.1-31.4-.2-41.7-.3L302 873v-19.8l41.3.5c22.6.3 41.4.7 41.7 1"/><path d="M309.2 856.3c-1.5 1.8-.3 3 1.5 1.6 1-.9 1.3-.7 1.3.8 0 1-.5 2.4-1.2 3.1-.9.9-.7 1.3.5 1.8.9.3 1.7 1.7 1.7 3 0 2.4-1.4 3.2-2.5 1.4-1.2-2-2.6-1-1.5 1 1.3 2.5 3.6 2.6 4.9.2 1.4-2.7-.1-13.6-2-14-.9-.1-2.1.3-2.7 1.1M319.8 857.5c-1.3 3 .3 7.5 2.7 7.5.8 0 1.5.9 1.5 2 0 2.3-1 2.6-2.8.8-.9-.9-1.2-.8-1.2.5 0 2.3 2.6 3.3 4.5 1.7 1-.8 1.5-3 1.5-6.4-.1-7.7-3.8-11.4-6.2-6.1m4.2 2.5q0 3-1.5 3t-1.5-3 1.5-3 1.5 3M342.2 856.2c-1.5 1.5-1.6 10.2-.2 12.9 1.4 2.6 3.7 2.4 4.6-.4 1.5-4.7-.1-13.7-2.4-13.7-.5 0-1.3.5-2 1.2m3.2 2.4c1.9 4.8-.3 12.8-2.5 9.3-1.7-2.7-.8-10.9 1.1-10.9.4 0 1.1.7 1.4 1.6M363.1 858.1c-1.4 4.1-1.4 7.2.1 10.4 3.3 7.3 7.9-3 4.8-10.9-1.3-3.5-3.6-3.3-4.9.5m3.9 5.5c0 4-.4 5.5-1.2 5.2-1.4-.5-2.3-8-1.4-10.5 1.2-3 2.6 0 2.6 5.3M353.6 860.8c-2.6 5.2-2.5 6.2.7 6.2 1.4 0 1.8.5 1.4 2-.3 1.3 0 2 1 2 1.2 0 1.3-1.2.7-7.3-.3-3.9-.8-7.4-1-7.5-.1-.2-1.4 1.8-2.8 4.6m2.4 2.7c0 .8-.7 1.5-1.5 1.5-.9 0-1.2-.6-.9-1.5.4-.8 1-1.5 1.5-1.5s.9.7.9 1.5M375 856.4c0 .9-2.1 11.3-2.6 12.8-.3 1-.1 1.8.5 1.8s1.1-.9 1.1-2c0-1.3.7-2 2-2s2 .7 2 2c0 1.1.5 2 1 2 .6 0 1-.7 1-1.5 0-2.8-3.3-13.5-4.2-13.5-.4 0-.8.2-.8.4m1.6 7.3c-1 1-1.9-.5-1-1.8.6-1.1.8-1.1 1.2 0 .2.7.1 1.5-.2 1.8M330.5 864c.3.5 1.7 1 3.1 1 1.3 0 2.4-.5 2.4-1 0-.6-1.4-1-3.1-1s-2.8.4-2.4 1M427.7 853.8c-3.1 3.4-1.4 7.1 2.4 5.1 1.1-.5 2.8 0 5.3 1.7 2.1 1.4 4 2.3 4.3 2.1.9-1-.7-2.6-4.2-4.3-2-.9-3.5-2.4-3.7-3.7-.4-2.8-2.1-3.1-4.1-.9m2.4 2.5c-1.3 1.3-2.6.3-1.6-1.2.3-.6 1.1-.8 1.7-.5.6.4.6 1-.1 1.7M445 864.9c0 .9 6.1 5.1 7.4 5.1 1.9 0 .1-2.1-3.4-3.9-2.2-1.1-4-1.7-4-1.2M457 871.9c0 1.5 7.2 5.3 8.2 4.3.4-.4-1-1.8-3.3-3-4.6-2.5-4.9-2.6-4.9-1.3M427.4 875.5c-1.3 2-1.4 2.8-.4 4 1.7 2.1 2.7 1.9 4.6-1 1.3-2 1.4-2.8.4-4-1.7-2.1-2.7-1.9-4.6 1m3.1 2.4c-.9 1.6-2.5.3-1.8-1.5q.6-1.5 1.5-.6c.6.6.7 1.5.3 2.1M470.2 879c.6 1.8 6.6 5.2 7.2 4.1.3-.5-1.2-1.9-3.5-3-2.2-1.2-3.9-1.7-3.7-1.1M197.8 880.4c-5 3.7.6 13.6 7.6 13.6 3.1 0 4 .6 6.7 4.2 1.6 2.4 3.9 5.4 4.9 6.8s5.4 7.2 9.7 13c4.2 5.8 8.2 10.8 8.8 11.2 1.5 1.1 6.5 1 6.5-.2 0-.6-1.4-1-3-1-3.5 0-2.5 1.1-17.3-18.8-10.7-14.5-11.4-15.7-11.3-19.9.1-3.8-.4-4.9-3.2-7.4-3.5-3.1-6.7-3.6-9.4-1.5m8.9 2.6c3.4 3.1 3.8 5.9 1.4 8.4-2.1 2.1-2.1 2.1-5.9.1-3.8-2.1-6-6-4.9-8.9.9-2.3 6.8-2.1 9.4.4"/><path d="M199.5 883.1c-2.2 3.5 3.9 9.5 7 6.9 2-1.7 1.9-3.2-.5-5.8-2.2-2.3-5.4-2.9-6.5-1.1m5.3 1.1c1.9 1.9 1.5 4.8-.7 4.8-2.4 0-4.5-2.5-3.7-4.5.7-1.8 2.7-2 4.4-.3M287.5 886.2c-.6 1.6-.1 22.6.6 23.2.4.4 67.5.9 84.7.6 3.3 0 3.3 0 3-12.3l-.3-12.2-43.8-.3c-34.5-.2-43.9 0-44.2 1m85.8 2.5c.4.2.7 4.7.7 9.9v9.4h-84v-21l41.3.6c22.6.3 41.5.8 42 1.1"/><path d="M297.1 890.4c-.8 1-.9 1.6-.1 2.1.5.3 1 .1 1-.4 0-.6.5-1.1 1.1-1.1.8 0 1 1.2.6 3.5-.3 1.9-.2 3.5.4 3.5.5 0 .9 1.1.9 2.5 0 2.6-2.5 3.5-3.3 1.2-.2-.6-.8-.9-1.2-.5-1 1 1.3 3.8 3.1 3.8 2.3 0 3.2-3.3 2.5-9.5-.6-6.2-2.5-8.1-5-5.1M308.2 890.2c-2.5 2.5-1.1 8.8 1.9 8.8 1.3 0 1.9.7 1.9 2.1 0 1.6-.5 2-2 1.6-1.3-.3-2 0-2 .9 0 .8.8 1.4 1.9 1.4 3.3 0 5.1-8 3-13.3-1.2-2.9-2.8-3.4-4.7-1.5m3.8 3.8q0 3-1.5 3t-1.5-3 1.5-3 1.5 3M330 890.5c-1.4 1.7-1.8 7.6-.7 11.7.8 3.1 4.1 3.9 5.1 1.2 1-2.5.7-10.4-.4-12.5-1.3-2.3-2.3-2.4-4-.4m4 6.9c0 3.7-1.4 6.1-2.9 5.2-1.2-.8-1.5-9.8-.4-11 1.2-1.2 3.3 2.6 3.3 5.8M350.4 890.4c-.3.8-.4 2.7-.2 4.3.2 2 .8 2.8 2.3 2.8 1.4 0 2.1.8 2.3 2.7.2 2-.1 2.8-1.2 2.8-.8 0-1.6-.5-1.8-1.2-.3-.9-.6-.9-1.1-.1-1 1.5 2 4.4 3.8 3.7 3.4-1.3 2.5-10.4-1-10.4-2.2 0-1.8-2.7.5-3.3 1.1-.3 2-1 2-1.6 0-1.6-5-1.3-5.6.3M341.2 894.5c-2.7 5.6-2.7 6.5-.3 6.5 1.2 0 2.1.8 2.3 2 .5 3.2 2.3 2.4 2.2-1-.1-1.7-.2-5-.3-7.5 0-2.5-.5-4.5-.9-4.5s-1.8 2-3 4.5m1.4 4.2c-1.1 1.1-1.7-.4-.9-2.3.7-1.8.8-1.8 1.1-.1.2 1 .1 2.1-.2 2.4M318 898c0 .5 1.4 1 3 1 1.7 0 3-.5 3-1 0-.6-1.3-1-3-1-1.6 0-3 .4-3 1M483 887c2.8 2.2 4 2.5 4 1 0-1.1-3.3-3-5.2-3-.7 0-.2.9 1.2 2M489 889.9c-.5 1.1-1 2.4-1 3 0 1 8.9 7.1 12.3 8.4 1 .4 1.7 1.7 1.7 3.1 0 3.1 2.7 5.8 5 5.1 1-.3 2.1-.1 2.5.5 1.2 2 6.3 1.1 8.3-1.5 1.7-2.2 2.8-2.5 8.1-2.5 4.8 0 6.1-.3 6.1-1.5 0-1.1-1.3-1.5-5.4-1.5-5.1 0-5.8-.3-10.2-4.6-4.3-4.1-5.2-4.5-8.2-3.9-1.8.3-3.9.2-4.5-.3-2.5-2-10.6-6.2-12.1-6.2-.8 0-2 .9-2.6 1.9m3.8 1.8c-.5 2.5-2.8 2.8-2.8.4 0-1.2.6-2.1 1.6-2.1.9 0 1.4.7 1.2 1.7m4.2.7c0 .2-.3 1.1-.6 2-.9 2.3-2.4 2-2.4-.4 0-1.1.7-2 1.5-2s1.5.2 1.5.4m3 3c0 .8-.4 1.7-.9 2.1-1.2.7-2.4-1.2-1.6-2.5.9-1.5 2.5-1.2 2.5.4m4.3 1.2c.9 1-.4 3.4-1.9 3.4-.8 0-1.4-.6-1.4-1.3 0-2.2 1.9-3.5 3.3-2.1m4.3 2.7c-1.5 1.9-2.6 4.4-2.6 5.5 0 1.2-.4 2.2-1 2.2-1.7 0-1.1-5.1 1.1-8.1 1.1-1.6 2.7-2.9 3.5-2.9 1.1 0 .8.9-1 3.3m5.4.2c0 .3-.2.5-.5.5s-.5-.2-.5-.5.2-.5.5-.5.5.2.5.5m-2.6 3.8c-.7 1.9-2 2.2-2.9.7s1.6-4.3 2.7-3.2c.5.5.6 1.6.2 2.5m6.6-.1c-.1 2.9-2.2 5.8-4.4 5.8-2.1 0-2.1-3.8.1-6.2 2.2-2.5 4.3-2.3 4.3.4m-8.5 3.8c.3.5.4 1 .1 1s-.8-.5-1.1-1c-.3-.6-.4-1-.1-1s.8.4 1.1 1M187.3 890.6c-1.2.5-6.3 9.7-6.3 11.4 0 .5 1.2 2.2 2.6 3.9 2.6 3.1 6.1 4 8.1 2 .7-.7 5 5.6 14.9 22l13.8 23.1h5.8c3.2 0 5.8-.4 5.8-1s-2.7-1-6-1-6-.4-6-.8c0-.5-1.3-2.8-2.8-5.3-1.6-2.4-5-8-7.6-12.4s-7.2-11.8-10.1-16.5c-3-4.7-5.4-8.9-5.4-9.3-.1-.4.7-1.1 1.7-1.4 2.2-.9 4.1-3.3 4.2-5.4.1-4.2-9-10.8-12.7-9.3m6.6 2.9c3.1 1.5 4.1 3.3 4.1 7 0 4.2-6.7 4.9-10.5 1-3.2-3.1-3.3-7.2-.2-8.5 3.1-1.2 3.4-1.2 6.6.5M185 901c0 .5-.7 1-1.6 1-.8 0-1.2-.5-.9-1 .3-.6 1-1 1.6-1 .5 0 .9.4.9 1m3 3.3c0 1.9-1 2.7-2.6 2-2.1-.8-1.7-3.3.6-3.3 1.1 0 2 .6 2 1.3m3 1.7c0 .5-.5 1-1.1 1-.5 0-.7-.5-.4-1 .3-.6.8-1 1.1-1 .2 0 .4.4.4 1"/><path d="M188.6 896.5c-.7 2 2.9 5.6 4.9 4.9 1.8-.7 2-3.5.3-5.2s-4.5-1.5-5.2.3m5.2 1.7c-.3.7-1.1 1.3-1.8 1.3s-1.5-.6-1.7-1.3c-.3-.7.4-1.2 1.7-1.2s2 .5 1.8 1.2M600.5 898.4c-1.1 1.7-1.4 3.5-.9 6.5.7 4.7 1.5 5.5 4.4 4.6 1.7-.5 2-1.5 2-6 0-4.4-.4-5.6-2-6.5-1.6-.8-2.2-.6-3.5 1.4m3.5 5.1c0 5.4-1.6 6-2.3.7-.5-4-.1-5.2 1.4-5.2.5 0 .9 2 .9 4.5M534.4 899.5c-.7 2.8 1 5.5 3.3 5.5.8 0 1.3.6 1 1.2-.2.7-1.4 1.2-2.6 1.1-2.5-.3-2.7.9-.5 2.8 1.4 1.1 1.9 1 3.5-1 2.1-2.6 2.4-5.7.9-9.5-1.3-3.5-4.7-3.5-5.6-.1m4.4 1.8c.2 1-.3 1.7-1.2 1.7-1 0-1.6-.9-1.6-2.1 0-2.4 2.3-2.1 2.8.4M544.7 897.7c-.4.3-.7 2-.7 3.6 0 2 .6 3 2 3.4 1.1.3 2 1.2 2 2 0 1.1-.7 1.3-2.5.9-2.9-.7-3.1-.3-1 1.8 1.3 1.3 2 1.3 3.5.3 3.6-2.2 2.3-12.7-1.5-12.7-.7 0-1.5.3-1.8.7m3.3 3.3c0 2.1-1.5 2.7-2.5 1-.7-1.2.2-3 1.6-3 .5 0 .9.9.9 2M553 898c0 .5.9 1 2 1 2.3 0 2.4.6.5 4-1.7 2.9-2 7-.5 7 .6 0 1-.9 1-2 0-1.2.9-3.8 2-5.9 1-2.1 1.6-4.1 1.3-4.5-1-1-6.3-.7-6.3.4M562.7 897.7c-.2.5-.5 3.1-.5 6-.1 4.4.2 5.3 1.9 5.8 3.2 1.1 4.8-1.1 4.4-6.1-.2-2.4-.7-4.8-1-5.4-.7-1.2-4.2-1.3-4.8-.3m3.3 2.8c0 .8-.4 1.5-1 1.5-.5 0-1-.7-1-1.5s.5-1.5 1-1.5c.6 0 1 .7 1 1.5m.8 5.7c-.6 1.8-2.8 2.1-2.8.4 0-.9.7-1.6 1.6-1.6s1.4.5 1.2 1.2M575.3 898.2c-1.4 1.8-4.5 7.9-4.1 8.2 6.7 4.4 7.1 4.2 6.5-3.7-.5-5.4-1-6.3-2.4-4.5m.7 6.3c0 .8-.4 1.5-1 1.5-.5 0-1-.7-1-1.5s.5-1.5 1-1.5c.6 0 1 .7 1 1.5M610.9 898.7c-1.1 1.3-1.1 1.7-.1 2 .7.3 1.2 2.3 1.2 4.9 0 2.8.4 4.3 1 3.9 1.2-.8 1.3-11.2.1-11.9-.5-.3-1.5.2-2.2 1.1M618.7 897.7c-.4.3-.7 1.9-.7 3.5 0 2.5.3 2.8 2.5 2.2 2-.5 2.5-.2 2.5 1.3 0 2.7-1 3.5-2.7 2.1-1.8-1.5-2.9-.2-1.3 1.7s3.4 1.9 5 0c1.7-2 .4-6.6-2-7.2-2.6-.7-2.6-2.3 0-2.3 1.1 0 2-.5 2-1 0-1.1-4.3-1.4-5.3-.3M591.4 899.2c-.4.6-.2 1.4.4 1.6.7.2 1.2 2.1 1.2 4.2s.5 4.2 1 4.5c.6.4 1-1.7 1-5.4 0-4.6-.3-6.1-1.4-6.1-.8 0-1.8.5-2.2 1.2M464.2 899.7c2.4 4.9 3.2 6.3 4 6.3.4 0 .8-.3.8-.6 0-1.2-3.5-6.4-4.3-6.4-.5 0-.7.3-.5.7M581.5 904c-.4.6.7 1 2.4 1s3.1-.5 3.1-1c0-.6-1.1-1-2.4-1-1.4 0-2.8.4-3.1 1M470 909.2c0 1.4 3.9 6.8 4 5.5 0-1.1-2.9-6.7-3.5-6.7-.3 0-.5.6-.5 1.2M474.2 918.2c-1.7 1.7-1.5 2.3 1.4 6.9 2.6 4.1 2.6 4.1-1.5 8.3-2.3 2.3-4.1 4.7-4.1 5.4s1.1 3.1 2.6 5.3c2.3 3.7 2.8 4 5.7 3.4 1.8-.4 4.4-1.5 5.9-2.6 2.7-1.9 2.7-1.9 4.5.8 2.4 3.8 3.4 4.3 5.5 3.2 2.3-1.3 2.3-3-.3-7.4-1.2-2-1.8-3.9-1.4-4.3.3-.4 9.5-.9 20.3-1.2 25.4-.6 26.5-2.4 1.9-2.8-17.7-.2-17.8-.3-16.4-2.3 1.3-1.8 1.3-2.4-.1-5.2-3.4-7.3-5.7-8.1-10.4-4.2-3.6 3.1-4.7 2.9-7.3-1.3-2.1-3.3-4.3-4-6.3-2m3.3 1.8c-.3.5-1 1-1.6 1-.5 0-.9-.5-.9-1 0-.6.7-1 1.6-1 .8 0 1.2.4.9 1m1.5 2.4c0 .3-.4.8-1 1.1-.5.3-1 .1-1-.4 0-.6.5-1.1 1-1.1.6 0 1 .2 1 .4m16.4 1.2c1.9 1.8 2.1 3.4.5 3.4-1.2 0-3.8-2.9-3.9-4.3 0-1.2 1.8-.8 3.4.9m-3.5 2c1 2.2.9 3-.5 4.5-2.3 2.6-4.2 2.4-5.6-.6-.9-2.1-.8-2.8.8-4.5 2.6-2.6 3.9-2.5 5.3.6m-10.9.4c0 .5-.7 1-1.5 1s-1.5-.5-1.5-1c0-.6.7-1 1.5-1s1.5.4 1.5 1m4 4.9c1.2 2.9 1 3.2-4.1 8.6-5.4 5.6-5.4 5.6-7.1 3.5-1-1.2-1.8-2.9-1.8-3.7 0-1.8 10-12.4 11-11.8.4.3 1.3 1.8 2 3.4m9.9 1.7c-1.3 1.4-3.9 3.2-5.6 3.9-2.1.9-3.3 2.1-3.3 3.3 0 2-4.4 5.6-6.1 5-1.4-.5 5.5-8.2 10.4-11.7 5.4-3.7 7.9-4 4.6-.5m-4.9 6.8c0 1.1-1.9 1.5-2.5.6-.3-.5.1-1 .9-1 .9 0 1.6.2 1.6.4m2 2.4c0 1.3-1.2 2.2-2.2 1.6s-.1-2.4 1.3-2.4c.5 0 .9.4.9.8m.7 3.9c-.4.3-1 .3-1.4 0-.3-.4 0-.7.7-.7s1 .3.7.7M247.3 920.7c-.7.2-1.3 1.8-1.3 3.4 0 2.3.6 3.2 2.6 3.9 2.2.9 2.4 1.3 1.3 2.6-.6.8-1.9 1.2-2.6.9-.9-.3-1.3 0-1.1.7.7 1.9 2.4 2 4.2.3 2.1-2.1 2.1-8.9 0-10.9-.8-.9-1.6-1.6-1.7-1.5-.1 0-.8.3-1.4.6m2.9 5.5c-1.6 1.6-3.7-.4-2.8-2.8.6-1.6.8-1.6 2.3-.1 1.3 1.3 1.5 1.9.5 2.9M256.7 921.5c-.9.9-1.7 2.3-1.7 3 0 1.5 2.3 4.1 4.2 4.7.6.2.8 1 .4 1.6-.5.8-1.6 1-2.9.6-1.9-.6-2-.5-.8 1 1.7 2 2.5 2 4.5 0 2.1-2.1 2-7.7-.2-10.4-1.7-2.1-1.9-2.1-3.5-.5m3.3 3.6c0 2.2-1.3 2.5-2.9.6-.8-1-.7-1.7.1-2.5 1.5-1.5 2.8-.6 2.8 1.9M265.4 922.4c-1 2.5 0 5.1 2.4 6.1 2.7 1.2 2.3 3-.7 2.9-2.1-.1-2.5 1.6-.4 2.3 3.1 1.1 5.5-6.3 3.7-11.1-.8-2-4.3-2.1-5-.2m4.1 2.6c0 2.2-2.9 1.8-3.3-.3-.3-1.4.1-1.8 1.5-1.5 1 .2 1.8 1 1.8 1.8M274.7 921.7c-.4.3-.7 1.7-.7 3 0 1.8.6 2.3 2.4 2.3 2.9 0 4 2.4 2 4.1-1.3 1-1.7 1-2.4-.1-.5-.8-1.2-1.1-1.6-.7-1.2 1.2 2.1 3.8 3.9 3.1 3.7-1.4 2.9-8.4-.9-8.4-.8 0-1.4-.5-1.4-1 0-.6.9-1 2-1s2-.5 2-1c0-1.1-4.3-1.4-5.3-.3M304.9 922.7c-1.1 1.3-1.1 1.7-.1 2 .7.3 1.2 2.1 1.2 4.4 0 2.1.5 3.9 1 3.9 1.2 0 1.3-10.7.1-11.4-.5-.3-1.5.2-2.2 1.1M313.2 922.2c-1.5 1.5-1.6 7.2-.2 9.9 1.3 2.3 4.6 2.5 5.4.3.3-.9.6-3.1.6-4.9s-.3-4-.6-4.9c-.7-1.9-3.5-2.1-5.2-.4m3.8 5.4c0 5.9-2.4 5.5-2.8-.4-.2-3.3 0-4.2 1.2-4.2s1.6 1.1 1.6 4.6M323 922.5c-.7.9-.9 1.9-.5 2.3s1 .1 1.2-.6c.8-2.1 2.6-1.3 2 1-.4 1.2-.1 2.8.5 3.5.8 1 .8 1.7-.1 2.6s-1.4.9-2.1-.3c-.5-.8-1.2-1.1-1.6-.7-.9.9 1.5 3.7 3.2 3.7 1.9 0 3.1-2.9 2.8-7.2-.3-5.8-2.6-7.6-5.4-4.3M331.8 923.5c-.8 1.7-.9 3.7-.2 6.3.7 3 1.3 3.7 3.4 3.7 2.4 0 2.5-.3 2.5-6 0-5.5-.2-6-2.2-6.3-1.7-.2-2.6.4-3.5 2.3m4.8 1.9c.8 3.4.1 6.1-1.6 6.1-1.6 0-2.6-4.5-1.6-7.1.8-2.2 2.5-1.7 3.2 1"/><path d="M537.3 921.7c-2.2.4-2.3.8-2.3 11.8 0 6.3.4 11.6.9 11.9 1.6 1 80.5 1.8 83.6.8 3-.8 3-.8 3.1-12 0-10.6-.1-11.3-2-11.7-3-.6-80.6-1.4-83.3-.8m82.5 12.5.3 9.8H538v-20l40.8.2 40.7.3z"/><path d="M545.2 926.2c-1.8 1.8-1.4 3 .8 2.3 2.3-.7 2.8 1.3.8 3.3-.9.9-.8 1.5.7 2.6 1.1.8 1.6 1.9 1.2 3-.7 1.7-2.7 2.2-2.7.6 0-.6-.4-1-1-1-1.7 0-1.1 2.9.8 3.9 2.5 1.4 4.3 0 4.2-3.5v-6.3c0-3.1-1.4-6.1-2.9-6.1-.4 0-1.2.5-1.9 1.2M555.4 927.5c-1.8 2.8-1.1 6 1.7 7.5 2 1.1 2.7 4 .9 4-.5 0-1-.5-1-1.2 0-.9-.3-.9-1.2 0-1.6 1.6.3 3.5 2.8 3 1.6-.3 2-1.4 2.2-6.6.4-8.7-2.1-11.8-5.4-6.7m3.6 3.1c0 1.5-.6 2.4-1.5 2.4-1.5 0-2.1-4-.9-5.3 1.2-1.1 2.4.3 2.4 2.9M577 926.5c-1.8 2.2-1.4 12.5.5 14.4 1.5 1.5 1.8 1.4 3.1-.3 2.1-3 1.9-11.9-.5-14-1.6-1.5-2-1.5-3.1-.1m3 7c0 5.8-1.4 7.4-2.3 2.7-.6-3.3.2-8.2 1.4-8.2.5 0 .9 2.5.9 5.5M588.3 930.5c-2.8 5.5-2.9 6.5-.3 6.5 1.5 0 2 .7 2 2.5 0 3.4 1.8 3.2 2.2-.3.4-4-.3-13.2-1-13.2-.4 0-1.7 2.1-2.9 4.5m1.7 3.5c0 .5-.4 1-1 1-.5 0-1-.5-1-1 0-.6.5-1 1-1 .6 0 1 .4 1 1M597 929.6c-1.4 4.2 0 10.8 2.5 11.8 3.5 1.3 5.5-10.3 2.5-14-2-2.4-3.8-1.6-5 2.2m4 3.9c0 5.7-1.3 7.4-2.4 3.1-.7-2.9.3-8.6 1.5-8.6.5 0 .9 2.5.9 5.5M609 930.2c-2.6 9.7-2.8 10.7-2.2 11.2.9 1 2.2-.5 2.2-2.5 0-1 .7-1.9 1.5-1.9.9 0 1.5.9 1.5 2.5s.6 2.5 1.5 2.5c1.8 0 1.8-1.3 0-6.5-.8-2.2-1.5-5-1.5-6.2 0-4-1.9-3.4-3 .9m1.7 4c-.3.8-.6.5-.6-.6-.1-1.1.2-1.7.5-1.3.3.3.4 1.2.1 1.9M565 934c0 .5 1.6 1 3.6 1 2.1 0 3.3-.4 2.9-1-.3-.6-1.9-1-3.6-1-1.6 0-2.9.4-2.9 1M285.7 922.7c-.4.3-.3 1.1.2 1.7s1.1 2.9 1.4 5.1c.3 3.3.4 2.9.5-1.8.2-5.2-.4-6.7-2.1-5M294.5 928c-.4.6.7 1 2.5 1s2.9-.4 2.5-1c-.3-.6-1.5-1-2.5-1s-2.2.4-2.5 1M236.3 941.8c-2.2.3-2.3.7-2.3 11.2 0 9.5.2 10.9 1.8 11.4 2.5.7 85.9 1.2 86.7.5.3-.4.7-5.4.8-11.3.2-10 .1-10.7-1.8-11.1-2.4-.5-82-1.1-85.2-.7m84 3.1c.4.4.7 4.8.5 9.7-.3 8.9-.3 8.9-3.5 8.8-1.8 0-20.9-.1-42.3-.2l-39-.2.1-9.3c.1-5 .3-9.6.6-10 .6-1.1 82.5.2 83.6 1.2"/><path d="M244.7 945.7c-1.4 1.3-.6 2.4 1.3 1.8 2.3-.7 2.7 1.3.8 3.4-1 1.1-1 1.4 0 1.8 1.3.5 1.7 4.5.5 5.6-.3.4-1.3.1-2.1-.6-1.3-1-1.4-.9-1 .3.7 2.3 3.5 2.4 4.8.1.8-1.5.8-2.7 0-4.2-.7-1.1-.9-2.8-.6-3.6 1.3-3.3-1.5-6.8-3.7-4.6M277.2 946.2c-1.5 1.5-1.6 3.8-.2 3.8.6 0 1-.7 1-1.5s.5-1.5 1-1.5c1.7 0 1.1 4.8-1 9.1-1.8 3.4-1.9 4-.5 4.5 2.2.9 4.5-.3 4.5-2.2 0-1.4-.2-1.5-1.7-.3-1.4 1.3-1.6 1.1-1.1-1.1.3-1.4 1.2-3.9 1.9-5.7 1-2.6 1-3.4 0-4.7-1.6-1.9-2.3-2-3.9-.4M288.2 946.2c-.7.7-1.2 1.9-1.2 2.7.1 1.3.3 1.3 1.1-.2 1.2-2 2.9-1.4 2.9 1.1-.1.9-.9 3.5-2 5.7-1 2.2-1.5 4.4-1 4.8 1.3 1.5 4.5.3 4.9-1.8.3-1.7.1-1.8-1.3-.6-1.3 1.1-1.6 1.1-1.6-.2 0-.8.6-3 1.4-4.8.9-2.2 1.1-4.2.5-5.7-.9-2.5-1.9-2.8-3.7-1M299.2 946.2c-.7.7-1.2 1.9-1.2 2.7 0 1.1.4 1 1.4-.5 1.4-1.8 1.5-1.8 2.2 0 .4 1.1-.1 3.5-1.5 6.2-2.7 5.8-2.7 6.6.6 6.2 1.8-.2 2.9-1 3.2-2.3.3-1.7.1-1.8-1.3-.6-2.5 2.1-3.1.6-1.2-3.3 1.9-4.1 2-7 .3-8.5-1-.8-1.7-.7-2.5.1M256.2 950.2c-2.7 5.2-2.7 5.4-.2 6.1 1.1.3 2 1.2 2 2.1s.5 1.6 1 1.6c.6 0 1-3 1-7 0-3.9-.3-7-.8-7-.4 0-1.7 1.9-3 4.2m1.4 4.5c-1.1 1.1-1.9-.6-1.1-2.4.8-1.7.8-1.7 1.2 0 .3 1 .2 2.1-.1 2.4M267.3 953.7c.9.2 2.3.2 3 0 .6-.3-.1-.5-1.8-.5-1.6 0-2.2.2-1.2.5M508 950.2c-5.4 3.2-10.9 8.2-17.8 16.6-3.5 4.2-3.5 4.2-1.7 8.2 2.4 5.4 4.5 7.1 7.5 6.2 5.7-1.7 12.8-6.4 16.8-11.1 4.3-5.1 4.3-5.1 12.8-5.1 4.9 0 8.4-.4 8.4-1s-3-1-7-1c-6.9 0-6.9 0-6.4-2.8.3-1.9-.5-4.3-2.6-8-1.7-2.8-3.4-5.2-3.8-5.2s-3.2 1.5-6.2 3.2m9.6 5.1c.3 1 .4 1.9.2 2.1-.1.1-2.2 1.4-4.5 2.9-2.4 1.5-4.9 2.7-5.6 2.7-1.5 0-5.1-6.9-4.2-7.8.3-.4 2.7-1.8 5.3-3.2 4.7-2.7 4.7-2.7 6.4-.6 1 1.2 2 2.9 2.4 3.9m-13.7 6.3c1.7 2.8 1.9 3.9 1 5-.7.8-.9 1.7-.5 2.1.3.4 1.4-.3 2.2-1.6 1.1-1.5 2.3-2.1 3.5-1.8s1.9 0 1.9-.9c0-1.6 4.5-4.7 6.1-4.2.6.2-.7 2.3-2.8 4.6-2.8 3-4.4 4.1-5.6 3.6-2-.7-5 1.3-4.1 2.8.3.5 1.3.7 2.1.4.9-.4 1.3-.1 1.1.6-.3.7-1.7 1.4-3.1 1.6-1.5.2-2.7.7-2.7 1.2 0 1-5.9 4.4-6.5 3.8-.2-.2 1.4-2.3 3.7-4.6 2.2-2.4 3.7-4.6 3.4-5-.7-.7-8.6 7.6-8.6 9 0 .5-.6.8-1.3.8-.8 0-2.2-1.8-3.2-4-1.8-4-1.8-4 .6-6.8 5.3-6.1 9.3-10.2 10-10.2.4 0 1.7 1.6 2.8 3.6M535.7 952.2c-.5 1.4.1 21.9.6 22.5.7.7 87.1.3 87.7-.4.3-.4.4-5.6.2-11.5-.4-9.9-.5-10.7-2.5-11.2-1.2-.3-20.9-.6-43.8-.6-32.4 0-41.8.3-42.2 1.2m74.1 1.8H622v19h-84v-9.3c0-5.2.3-9.7.8-10.1.4-.5 13.8-.6 29.7-.2 16 .3 34.5.6 41.3.6"/><path d="M545.7 955.7c-.4.3-.7 1.3-.7 2.1 0 1.1.3 1.2 1.4.3 2.2-1.8 3.1.6 1.2 2.8-1.5 1.7-1.5 1.9-.1 2.4.8.4 1.5 1.6 1.5 2.7 0 2.3-1 2.6-2.8.8-.9-.9-1.2-.8-1.2.4 0 2.6 2.7 4.3 4.5 2.8 1.2-1 1.4-2.7 1.1-6.9-.3-3.1-.5-6.2-.5-6.9-.1-1.3-3.3-1.7-4.4-.5M556.7 955.7c-1.6 1.5-.7 7.3 1.3 8.5 1.1.7 2 1.9 2 2.6 0 .9-.7 1.1-2 .7-2.4-.7-2.6.7-.5 2.5 1.2 1 1.8 1 3 0 1.8-1.5 2.1-12 .3-13.8-1.3-1.3-3.1-1.6-4.1-.5m3.3 4.4c0 3.8-2.4 3.5-2.8-.4-.2-1.9.1-2.7 1.2-2.7s1.6 1 1.6 3.1M578.9 956.6c-1.9 2.4-1.8 11 .3 13.1 1.7 1.6 1.9 1.6 3.3-.2 1.8-2.5 1.9-10.4.1-12.8-1.6-2.1-2-2.1-3.7-.1m3.1 6.5c0 4.9-1.3 6.6-2.5 2.9-.8-2.5.5-9.1 1.6-8.4.5.3.9 2.7.9 5.5M599.4 956.4c-.3.8-.4 2.7-.2 4.3.2 2 .8 2.8 2.3 2.8 2.3 0 3.3 3.1 1.6 4.8-.9.9-1.4.8-2.1-.3-1.1-1.8-2.2-.8-1.4 1.4.9 2.4 3.9 1.9 5.2-.9 1.5-3.3 0-7.5-2.8-7.5s-2.5-1.9.6-3c1.4-.6 2.2-1.4 1.9-2-.9-1.5-4.5-1.2-5.1.4M590.1 960c-2.4 4.3-2.2 7 .4 7 .8 0 1.5.9 1.5 2 0 3 1.8 2.4 2.2-.8.5-4-.3-12.2-1.1-12.2-.4 0-1.8 1.8-3 4m1.5 4.7c-1 1-1.9-.5-1-1.8.6-1.1.8-1.1 1.2 0 .2.7.1 1.5-.2 1.8M566.6 962.9c-.3.5.7 1.1 2.2 1.4 3 .6 4.5 0 3.7-1.4-.8-1.2-5.2-1.2-5.9 0M514.4 977.1c-5.4 2.6-8.8 6.3-8 8.5.9 2.3 6.1 1.4 11.5-2 4.4-2.8 6.5-3.2 8.4-1.6 2.7 2.3 12.3 8.1 14.4 8.6 1.3.4 3.1.3 4-.2 1.4-.6 1-.9-1.8-1.3-4.2-.7-18.6-9.8-19.5-12.4-.7-2.2-3.9-2.1-9 .4m7.4 1.1c-.3.7-1.1 1.3-1.8 1.3s-1.5-.6-1.7-1.3c-.3-.7.4-1.2 1.7-1.2s2 .5 1.8 1.2M516 981c0 .5-.8 1-1.7 1-1.5 0-1.6-.2-.3-1 1.9-1.2 2-1.2 2 0m-4.6 2.5c.4 1-.1 1.5-1.4 1.5-2 0-2.6-1.1-1.3-2.3 1-1.1 2-.8 2.7.8"/><path d="M519.3 986c-3.2 1.6-6.4 3.9-7.1 5-1.2 1.9-.9 2.5 2.5 5.6 3 2.8 4.4 3.4 6.6 3 2.6-.5 3.2.1 8.7 8.5 3.3 5 6 9.5 6 9.9 0 1.4 3.8 2.2 7 1.5 4.1-.9 2.8-2.5-2.1-2.5-2.1 0-3.9-.4-3.9-.8s-.7-1.7-1.5-2.7c-2.4-3.1-9.5-14.5-9.5-15.2 0-.4 1-1.7 2.2-3 1.9-2 2-2.7 1-4.3-.7-1.1-1.2-3.1-1.2-4.4 0-3.6-2.3-3.8-8.7-.6m6.7 0c0 .5-1 1-2.2 1-1.9 0-2-.2-.8-1 1.9-1.3 3-1.3 3 0m-6.1 2.3c-.2.1-2 1.2-3.9 2.5l-3.5 2.3 3.4-3c1.9-1.7 3.7-2.8 4-2.6.2.3.2.6 0 .8m7.1 2.4c0 2-2.4 1.1-2.8-1-.2-1.2.1-1.5 1.2-1.1.9.3 1.6 1.3 1.6 2.1m-4.2 1.7c.3 1.3-.1 1.7-1.4 1.4-1.1-.2-2-1.1-2.2-2.2-.3-1.3.1-1.7 1.4-1.4 1.1.2 2 1.1 2.2 2.2m-4.8 2.7c0 1.1-.4 1.7-1 1.4-.5-.3-1-1.3-1-2.1s.5-1.4 1-1.4c.6 0 1 .9 1 2.1m9-.7c0 .3-.4.8-1 1.1-.5.3-1 .1-1-.4 0-.6.5-1.1 1-1.1.6 0 1 .2 1 .4m-4.5 2.6c-.3.5-1 1-1.6 1-.5 0-.9-.5-.9-1 0-.6.7-1 1.6-1 .8 0 1.2.4.9 1M548.4 984.5c-.9 2.3.5 6.5 2.1 6.5.8 0 1.5.7 1.5 1.6 0 1.1-.6 1.4-2 .9-1.2-.4-2-.2-2 .5 0 1.7 2.9 2.3 4.5 1 1.8-1.5 2-9.1.3-10.8-1.6-1.6-3.7-1.5-4.4.3m3.6 2.5c0 1.1-.4 2-1 2-.5 0-1-.9-1-2s.5-2 1-2c.6 0 1 .9 1 2M558 984.5c-1.6 2 .2 6.5 2.6 6.5.8 0 1.4.6 1.1 1.2-.2.7-1.4 1.2-2.6 1-2.8-.3-2.3 2.1.4 2.7 3.7.7 5.9-6.4 3.5-11-1.3-2.3-3.3-2.5-5-.4m4 3.1c0 .8-.7 1.4-1.5 1.4-1.5 0-2.1-2.1-.9-3.3 1-.9 2.4.2 2.4 1.9M566.8 985.5c-1.2 2.7.2 5.5 2.9 5.5.8 0 1.3.6 1 1.2-.2.7-1.4 1.2-2.6 1-2.8-.3-2.3 2.1.4 2.7 2.4.4 4.5-2.5 4.5-6.2 0-6.2-4-8.9-6.2-4.2m4.2 2.1c0 .8-.7 1.4-1.5 1.4-1.5 0-2.1-2.1-.9-3.3 1-.9 2.4.2 2.4 1.9M576 987c0 2.4.4 3 1.8 2.8 1.1-.2 1.8.5 2 2 .3 2 0 2.3-1.7 1.7-1.2-.3-2.1-.2-2.1.4 0 1.6 1.8 2.3 4 1.6 3.2-1 2.7-6.1-.7-7.9-2.8-1.5-2.8-1.5-.3-2.5s2.5-1-.2-1c-2.5-.1-2.8.3-2.8 2.9M587 985c-1.2.7-1.2 1.2-.2 2.2.6.6 1.2 2.9 1.2 5.1 0 2.3.4 3.6 1 3.2 1.2-.7 1.4-10.2.2-10.9-.4-.2-1.4-.1-2.2.4M606.1 985.4c-.8 1-.9 1.6-.1 2.1.5.3 1 2.4 1 4.6 0 2.4.4 3.8 1 3.4 1.2-.7 1.3-8.5.1-10.3-.6-1-1-1-2 .2M613.6 985.6c-1.1 3-.6 8.3 1 9.9 1.5 1.5 1.8 1.5 3.5-.1 2.2-2 2.6-8.3.7-10.2-1.7-1.7-4.5-1.5-5.2.4m4.2 5c-.2 2.2-.7 3.9-1.3 3.9-1.2 0-1.9-6-1-8.3 1-2.8 2.7.3 2.3 4.4M623.7 984.7c-1.4 1.3-.6 2.4 1.2 1.8 1.7-.5 1.9-.1 1.6 3.7-.3 5.4-.2 5.3-2 3.8-.8-.7-1.5-.8-1.5-.2 0 .5.7 1.5 1.5 2.2 3.4 2.8 5.1-2.5 3.6-11.3-.1-.9-3.5-.9-4.4 0M633.2 985.2c-1.7 1.7-1.5 8 .3 10.4 1.5 1.9 1.5 1.9 3.5-.5 4.2-5 .7-14.4-3.8-9.9m3.6 3.2c.5 2.5-.6 6.6-1.8 6.6-.6 0-1-2.1-1-4.6 0-3.2.4-4.4 1.3-4.2.6.3 1.4 1.3 1.5 2.2M595.5 991c.3.5 1.5 1 2.6 1 1 0 1.9-.5 1.9-1 0-.6-1.2-1-2.6-1s-2.3.4-1.9 1M547.8 1004.7c-.1.4-.2 5.8 0 12l.3 11.2 6.2.5c3.4.4 22.9.5 43.2.4l37-.3.3-11.6c.2-10.5.1-11.7-1.5-12.1-3.3-.8-85.1-.9-85.5-.1m47.5 2.2 36.7.1v20.2l-23.2-.6c-12.8-.3-31.3-.5-41-.6H550v-9.3c0-5.2.3-9.6.6-10 .3-.3 2.2-.4 4.3-.2 2 .1 20.1.3 40.4.4"/><path d="M557.7 1008.6c-1.3 1.3-.7 2.6.8 2 1.1-.4 1.5.1 1.5 1.9 0 1.4-.6 2.5-1.2 2.5-.8.1-.6.6.5 1.4.9.7 1.7 2.1 1.7 3 0 1.8-2.6 2.2-3.2.4-.3-.9-.6-.9-1.1-.1-1 1.5 2 4.4 3.8 3.7 2.1-.8 2.5-3.2 1.7-9.4-.5-3.8-1.2-5.6-2.2-5.8-.9-.1-1.9 0-2.3.4M568.9 1012.7c-1.3 2.7-2.5 5.1-2.7 5.5s.8 1 2.2 1.4c1.5.3 2.5 1.2 2.4 1.9-.2.8.2 1.4.7 1.4 1.3.1 2.6-4.7 1.4-5.4-.5-.3-.7-2.4-.5-4.5.6-5.7-.9-5.8-3.5-.3m1.2 4.6c-.8.8-1.1.7-1.1-.4 0-2 1.3-3.4 1.8-1.9.3.7-.1 1.7-.7 2.3M589.2 1009.2c-1.3 1.3-1.6 3.8-.6 3.8.4 0 1.3-.8 2-1.8 1.2-1.5 1.3-1.4 1.4 1.1 0 1.5-.8 4.6-1.9 6.7-1 2.1-1.6 4.1-1.3 4.4.9 1 5.2.6 5.2-.4 0-2.2-.2-2.5-1.6-2.2-1.3.3-1.3-.2.1-3.4 1.9-4.7 1.9-8-.1-8.8s-1.8-.8-3.2.6M600.2 1009.2c-.7.7-1.2 2.1-1.2 3.2.1 1.9.1 1.9 1.1.3.5-.9 1.5-1.7 2.1-1.7 1.2 0 .7 3.1-1.6 8.3-1.5 3.3-1.5 3.8-.1 4.3 2.1.8 4.5-.2 4.5-2 0-1-.6-1.3-1.5-1-1.9.8-1.9.5 0-4 2.4-5.8.2-10.9-3.3-7.4M611.3 1008.7c-.7.2-1.3 1.4-1.3 2.6.1 2.1.1 2.1 1.5.3 2.6-3.4 3 .8.6 5.9-1.2 2.5-2.1 5-2.1 5.6 0 1.7 5.5.6 5.8-1.3.2-1.2-.2-1.5-1.9-1.1-1.2.3-2 .2-1.7-.3 3.4-7 3.8-8.6 2.8-10.4-1.1-2-1.6-2.2-3.7-1.3M577.5 1016c-.4.6.8 1 3 1s3.4-.4 3-1c-.3-.6-1.7-1-3-1s-2.7.4-3 1M190 1258.7c-2.5 1.4-7 3.9-10 5.6-3 1.6-5.9 3.3-6.5 3.7-2.1 1.6-8.6 5-9.5 5-.6 0-1-1.6-1-3.5 0-3-1.9-5.5-4.3-5.5-.2 0-3.3 5.1-6.8 11.2-3.5 6.2-7.6 13.3-9.1 15.7-3.4 5.4-3.5 7.3-.5 8.7 1.2.6 6.6 3.4 12 6.3 10.7 5.8 10.5 5.8 10.9-2.3.3-4.5.6-5.1 3.8-6.9 1.9-1.1 8.2-4.7 14-8 5.8-3.2 12.2-6.9 14.3-8 3.7-2.1 3.7-2.1 3.7-11.8 0-6.5-.4-10-1.2-10.7-2.8-2.2-5.4-2-9.8.5m8 6c0 2.7.3 6.4.6 8.4.7 3.9.8 3.8-11.3 10.5-2.4 1.3-6.2 3.5-8.5 4.8-2.4 1.3-7.1 4-10.5 6-6.3 3.7-6.3 3.7-6.3 8.7v5l-8.2-4.5c-6.6-3.5-8.3-4.9-8.1-6.5.4-2.8 14.5-26.1 15.5-25.5.4.3.8 2.1.8 4s.4 3.4 1 3.4c.5 0 6.4-3.2 13.1-7.1 18.9-11 20.4-11.8 21.2-11.9.4 0 .7 2.1.7 4.7"/><path d="M188.7 1266.8c-2 2.2-2.5 14.2-.6 14.2 1.2 0 7-3.9 8.1-5.5.9-1.2 1-6.7.2-8.9s-5.7-2-7.7.2m5.9 2.7c.6 2.5-1.7 7.5-3.5 7.5-1.5 0-2.3-7-1-8.6 1.8-2.2 3.8-1.7 4.5 1.1M183.2 1270.7c-.5 1-.7 2.3-.5 3 .2.6-.1 1.4-.7 1.8-.7.4-1.4-.2-1.7-1.4-.7-2.9-2.1-2.6-2.9.6-1 4.4-1.6 4.7-3 2.2-1-1.9-1.4-2.1-1.8-.9-.7 1.9 2.7 11.6 3.9 11.3.6 0 1.4-2 1.8-4.3.7-3.4 1.1-3.9 2.3-2.9.8.6 1.4 1.8 1.4 2.5 0 1.7 1.9 1.8 2.4.1.3-.6.7-4 1-7.5.6-6.1-.4-8-2.2-4.5M166.3 1280.1c-3.2 2-3.3 2.4-3.3 8.5 0 3.6.4 6.4 1 6.4s1-1.1 1-2.5c0-1.5.8-2.9 2.3-3.6 1.2-.7 2.5-1.7 2.9-2.3 1.1-1.7-.2-2.7-2.2-1.6-2.5 1.3-3 1.3-3-.5 0-.8 1.4-2.1 3-3 1.7-.9 3-2 3-2.5 0-1.5-1.1-1.2-4.7 1.1"/></svg>