<svg xmlns="http://www.w3.org/2000/svg" viewBox="0 0 992 1402" fill="currentColor"><path d="M593.5 147c-.3.5-1.3 1-2 1-.8 0-4.4 1.3-8 3-3.6 1.6-6.8 3-7 3-.7 0-18.4 8.9-28 14-4.4 2.4-13.4 7.9-19.9 12.3-8.3 5.5-13.1 8-15.5 8.2-13.7 1.2-17.6 2.7-23 8.7-5.6 6.2-8.5 13.5-8.6 21.3-.1 5.3-.7 8.3-2.6 12.5-1.4 3.1-2.9 7.2-3.3 9.2-.3 2-1.3 4.1-2.1 4.8-1.1.9-1.5 3.5-1.5 9.8 0 9.5-.3 9 8.8 14.3 4.8 2.8 6.1 3.1 14.2 3.1 5 .1 9 .4 9 .8 0 1.5 8.4 5.2 14.7 6.5 7.4 1.6 21.7 2 20.9.7-.3-.5-5-1.2-10.4-1.5-12.1-.8-19.2-2.9-23.7-6.8-2.4-2.2-4-2.9-5.5-2.4-1.4.5-2 .2-2-1 0-1.9 2.8-3.1 4.5-1.9 6.5 4.9 10.4 6.8 15.7 8 7.5 1.6 21.8 1.9 21.8.4 0-.6-3.1-1-7.4-1-13.1 0-25-3.7-27.7-8.6-1.5-2.8-2.6-3-5.7-.8-1.3.9-3.4 1.4-4.7 1.2-3.7-.8-5.3.9-1.6 1.7 4.3.9 3.9 2.5-.6 2.5-4.7 0-7.5-1.5-5.4-2.9 1.6-1 .6-3.1-1.5-3.1-.8 0-3.2-1.1-5.4-2.5-6.1-3.8-7.2-3-1.2 1 5 3.4 6.6 5.5 4 5.5-.7-.1-3.1-1.3-5.3-2.9-4-2.8-4-2.8-3.7-9.1.1-3.5.6-6.8 1.1-7.4.4-.6 1.4-3.6 2.1-6.6s3.1-9.3 5.4-14c3.4-7.1 5.8-10.2 15.1-19.5 13.4-13.6 16.8-16.4 31.5-26.4 13.6-9.1 17.4-11.4 31.8-18.6 21.6-10.8 36.5-16.5 42.6-16.4 4.1 0 4.1 0-1.1 1.4-2.8.8-7.3 2.4-10 3.6-2.6 1.2-6.1 2.7-7.8 3.4-14.9 6.4-30.1 14.1-36.7 18.6-1.4 1.1-2.9 1.9-3.2 1.9-1.1 0-18.5 11.9-25.6 17.4-7.8 6.1-12.9 10.7-23.1 20.6-12.2 11.9-17.9 23.6-17.9 37.2 0 5.8 0 5.8 5.1 8.7 7.9 4.5 12.9 4.8 19.7 1.5 3.4-1.7 5-3 4.1-3.2s-3.3.6-5.3 1.7c-4.3 2.5-7.4 2.7-8.2.6-1.3-3.3 1.4-15.3 5.1-22.6 8.3-16.7 35.8-39.8 69-58.1 5.1-2.9 24.8-12.5 32-15.7 2.2-1 6.1-2.8 8.7-3.9 8.9-4 22.3-3.9 25.8.3.8 1-.2.8-3.8-.5-5.1-1.9-8.1-1.7-16.2 1.3-5.9 2.1-36.3 17.4-44.7 22.3-4.3 2.6-9.4 5.6-11.3 6.6-11.4 6.4-28.6 20.2-42.1 33.9-10.6 10.6-15.9 19.6-17.7 29.6-.9 5.4.3 7.6 1.4 2.5 3.4-14.9 6.1-19.6 19.7-32.9 9.2-9 16.7-15.4 28.2-24.1 9.4-7.1 25.5-16.2 48.4-27.5 21-10.3 25.7-11.8 33.4-10.3 4.4.8 10 5.9 12 10.8 1.5 3.7 1.5 3.8-.4 3.8-1.1 0-3.3.7-5 1.5-2.9 1.5-3.2 1.5-8.7-2-4.2-2.6-6.9-3.5-10.1-3.5-5.9 0-16.3 5.3-22.6 11.6-5.1 5-12.5 17.6-12.5 21.1 0 1 1.8-1.7 4-6 6.1-11.6 10.4-16.3 20.3-21.4 8.4-4.4 14.1-4.5 20.2-.3 2.4 1.6 4.6 3 4.9 3 .4 0 3 1.5 5.9 3.4 6.3 4 20.1 12.3 31 18.5 1.7 1 7.9 4.6 13.5 8 5.7 3.3 10.8 6.1 11.3 6.1s.9.3.9.7c0 .5 2.3 1.9 5 3.2 2.8 1.4 5 2.9 5 3.3s.6.8 1.3.8c.8 0 11.2 5.9 23.3 13.1 12 7.3 24.4 14.5 27.4 16.2s5.7 3.3 6 3.6 1.9 1.3 3.5 2.1c1.7.8 12.5 7.1 24 14 17.8 10.6 20.6 12.5 18.1 12.8-5.7.7-18.9 9.9-23.9 16.7-3.3 4.5-9.1 16.4-8.4 17.2.3.2 2-2.6 3.8-6.4 3.9-8.3 15.1-20 22.4-23.4 9.3-4.4 18.1-2.7 20.6 3.8 1.1 2.8 2.9 3 2.2.3-.3-1.1-2.3-3.6-4.4-5.5-3.9-3.5-3.9-3.5-1.4-4.5 3-1.1 7.6-1.3 9.9-.4 1.7.7 2.2 4.4.6 4.4-.5 0-1 .5-1 1 0 .7.6.7 2 0 1.8-1 2-.8 2 2 0 1.6.4 3 .9 3 .6 0 3.8 1.6 7.1 3.6 6.3 3.7 6.4 4 4.4 8.8-.5 1.4-.4 1.7.4 1.2s1.2.3 1.2 2.6c0 2.5-.8 4.1-3.1 6.1-2.5 2.1-3 3.2-2.5 5.4 1 4.8-1.3 7.7-6.4 8.3-4.3.5-4.5.7-7.8 7-1.8 3.6-4.2 7.4-5.2 8.5-1.4 1.6-1.7 3-1.3 6.7.4 3.8.2 5-1.5 6.8-2.5 2.7-5.4 2-5.2-1.2.4-3.9 0-4.4-1.3-1.5-1.2 2.7-1.2 2.7-4.9.2-3.9-2.6-4.8-3-4.8-1.8 0 .5 2 2.1 4.5 3.7 3.3 2 4.3 3.2 3.6 4-.6.7-.8 2.8-.5 4.7s.1 5.4-.5 7.9c-.5 2.4-.8 4.6-.6 4.8s2.6-.3 5.3-1.2c4.8-1.6 5.1-1.6 9.8.6 7.6 3.6 7.3 5.3-3.7 19.9-12.3 16.4-12.3 16.5-11.5 32.4.5 9.6 1.1 13.3 2.1 14.1 2.3 1.7 1.8 7.1-1.1 12.3l-2.7 4.7 3.9 5.5c2.1 2.9 4.6 6.2 5.4 7.2 1.9 2.4 11 7.1 11.8 6.1.4-.4.3-.9-.3-1.1-4.4-1.8-8-4-8-4.8 0-.6 2.3-1.3 5-1.7 17.7-2.4 27-4.8 34.8-9.3 8.8-5 10.4-5.3 13.3-2.8 1 1 3.1 2.4 4.7 3.2 3.4 1.8 3.1 2.9-1.4 5.4-4.2 2.3-5.7 3.7-4.1 3.7.7 0 3-1.2 5.2-2.6 2.2-1.5 4.6-2.4 5.4-2.1 2.1.8 3.1 12.6 1.3 16.9-1.9 4.6-9.5 11.9-17 16.4-3.4 2-7.3 4.9-8.7 6.5-2.4 2.7-11.2 8.4-26.5 17.3-3.8 2.2-7.1 4.4-7.3 4.8s-.8.8-1.4.8c-.5 0-2.3 1-4 2.1-2.9 2.1-3 2.1-6.9.3-2.2-.9-4.4-2.5-4.9-3.3-.5-.9-1.2-1.3-1.6-.8-1.1 1.1 2.2 4.2 6.6 6.2 3.7 1.7 3.9 1.7 6.7-.3 1.5-1.1 4.4-2.9 6.3-4 8.6-4.9 30.7-18.2 32.8-19.7 1.2-.9 2.2-2.2 2.2-2.8 0-.7 4-3.7 8.9-6.6 4.9-3 9.5-6.5 10.2-7.8.7-1.2 1.6-2.3 2-2.3 1.1 0 4.5-6.2 5.2-9.7.9-4.7-.9-14.6-3-16-1-.7-2.3-1.6-2.8-2-5.1-3.9-10.6-7.3-11.8-7.3-.8 0-5.2 2.1-9.7 4.7-8.5 4.8-8 4.7-34 9.3-8.2 1.5-8.4 1.4-12.8-4.3-3.8-4.8-4-5.4-2.7-7.2 2.3-3.1 4.5-8.5 4.5-11 0-1.2-.9-3.4-2-4.8-1.8-2.2-2-4-2-15.7 0-14.8-.4-13.7 11-28.5 8.7-11.2 10.2-14.1 9.5-17.4-.5-2.3-1.7-3.4-6.3-5.6-5.3-2.5-5.8-2.6-9.4-1.2-4.5 1.8-5.4.9-3.8-3.7.6-1.9.8-4.5.5-5.8-.6-2.1-.1-2.6 3.4-4 5.1-2 8.1-7.4 6.5-11.6-.9-2.3-.7-3.1 1.2-5.1 1.3-1.4 3.5-5 5-8.2 2.7-5.5 3-5.8 6.8-6.1 3.3-.2 4.4-.9 6.3-3.7 1.7-2.5 2.2-4.3 1.8-6.5-.5-2.7-.2-3.3 2.4-4.9 3-1.7 3.1-2.1 3.1-8.7s-.1-7-3.2-9.3c-1.8-1.3-5.2-3.5-7.5-4.7-3.7-2-4.3-2.8-4.3-5.6 0-6.3-8.4-9.5-15.4-5.9-3.2 1.7-6.7 1.9-8.2.6-.8-.8-4.4-3-21.9-13.1-14-8.1-13-7-13.3-14.1-.2-5.1-.7-6.8-2.3-8.2-2.8-2.3-9.3-2.2-14.8.3-4.3 2-4.3 2-7.1 0-1.5-1.1-3.1-2-3.4-2s-6-3.3-12.7-7.3c-9.1-5.4-12.9-8.3-15.1-11.4-1.6-2.4-3.8-4.7-4.8-5.3-1.5-.8-2-2.1-2-5s-.6-4.3-2.2-5.4c-3.1-2.2-9.1-2-13.8.4-4.4 2.2-2.8 2.7-14.2-3.8-1.8-1.1-8.6-5.1-15.2-9-6.5-4-12.3-7.2-12.7-7.2-.5 0-.9-2-.9-4.5q0-8.1-4.5-10.5c-1.2-.7-3.3-3.5-4.6-6.3-2.3-4.9-8.3-12.7-9.9-12.7-.4 0-4.5-2.2-9.1-5-4.6-2.7-9.2-5-10.1-5s-2-.5-2.3-1c-.3-.6-4.6-1-9.5-1s-9.2.4-9.5 1m27 5.3 3.6 2.5-5.7.7c-5.5.7-8.5 1.8-23.4 8.8-9.5 4.4-27 13.1-31 15.4-23.4 13.5-39 25-53.7 40-12.3 12.6-17.4 22-18.9 35.2-.3 3.3-1.1 6.1-1.6 6.1-1.5 0-8.6-3.9-9.4-5.2-.4-.6-.7-3.6-.6-6.6.2-8.8 6-22.7 12-28.9 22.2-22.8 46.7-40.8 74.2-54.3 14.1-7 31.4-14.4 37.5-16.1 5.1-1.4 13-.3 17 2.4m28.5 27.2c1 1.2 1 1.8 0 3s-1 1.5.4 1.5c1 0 1.6.9 1.6 2.5 0 2.8-.3 2.9-3.1 1.4-1.1-.5-1.7-1.4-1.4-2 .4-.5-.4-.9-1.6-.9-2.3 0-8.9-3.6-8.9-4.9 0-1.6 1.5-2.1 6.5-2.1 3.5 0 5.7.5 6.5 1.5m-136 11.4c0 .5-1.5 2.1-3.2 3.6-5.2 4.2-21.8 20.7-21.8 21.7 0 .4-.4.8-1 .8s-.6-1 0-2.8c4.2-11.5 12.5-20.6 21-23 4.6-1.3 5-1.4 5-.3m-16.3 5.6c-5.3 5.3-9.4 11.9-11.9 19.5l-1.8 5.5.4-5.8c.6-8.1 7.1-18.7 13.4-22.1 4.6-2.4 4.5-1.8-.1 2.9m211.9 16c.6.2 1.1 2.1 1.1 4.3 0 3.1-.4 4.2-1.8 4.5-1.2.3-1.9 0-1.9-.8s-.7-1.1-1.9-.8c-1.7.4-9.1-3.4-9.1-4.8 0-.6 3.4-2.4 6-3.2 1.4-.4 4.6-.1 7.6.8m4.7 10.6c2.4 1.1 5.4 4.9 3.8 4.9-1.8 0-9-4.4-8.5-5.2.7-1.1 1.8-1 4.7.3m58.7 26.4c1.1 1.3 1 1.8-.6 3s-1.7 1.4-.3 1.5c1.1 0 1.7.9 1.7 2.7 0 1.6-.2 3.1-.5 3.6-.7 1.2-6.2-2.5-5.6-3.9.3-.8-.2-1.1-1.5-.7-1.9.5-9.2-3.4-9.2-4.9 0-2.5 14.1-3.6 16-1.3"/><path d="M543.9 211.9c-6.3 3.1-12.5 8.1-16.9 13.5-4.2 5.1-10.4 16.5-9.5 17.5.8.7 2-1 3.5-4.9 2.1-5.4 6.4-11.2 12.4-16.7 6.9-6.4 13.1-9.3 19.6-9.3 2.7 0 5-.5 5-1 0-1.7-10.3-1-14.1.9M183.8 277.3c-4.8 2.9-9.3 5.7-9.9 6.4-1 1-.2 2.8 3.2 8.1 8.4 13.2 13.4 20.2 14.5 20.2 1.7 0 3.4-2.3 3.4-4.7 0-1.3.2-2.3.5-2.3s6.9 3.4 14.8 7.5 15.1 7.5 15.9 7.5c3.3 0 4.8-3.4 4.3-9.6-.2-3.2-.4-6.6-.5-7.6 0-.9-2-2.6-4.7-4-10.7-5.4-28.9-15.1-30-16.1-.7-.5-1.3-3.1-1.3-5.8s-.3-4.9-.7-4.8c-.5 0-4.7 2.4-9.5 5.2m6.4 3.4c.3 4.6.3 4.6 17.3 13.4l17 8.8.3 7.6c.2 4.1.1 7.5-.2 7.5-.2 0-7.4-3.6-16-8-8.5-4.4-16.2-8-17.1-8s-1.4.8-1.2 2.1c.5 4.7-2.1 2.3-9-8.1-7.3-11-7.3-11-4.8-12.5 1.4-.8 3.7-2.3 5.3-3.2 4.3-2.8 6.6-4.1 7.4-4.2.4-.1.8 2 1 4.6"/><path d="M191.9 288.2c-.7 1.4-.6 10.5.1 11.7.8 1.4 1.1 1.3 1.6-.7.4-1.2 1.2-2.1 1.8-2 .6.2 1.3 0 1.4-.5.5-1.8.1-2.7-1.3-2.7-.8 0-1.5-.7-1.5-1.5 0-1.3.4-1.4 2-.5 2.9 1.5 2.5-.5-.5-2.4-2.3-1.5-3.3-1.9-3.6-1.4M200.5 297.1c.4 2.4 1.2 5.5 1.7 6.9 1 2.5 1 2.5 1.9.2 1.5-3.8 3.9-2 3.9 2.9 0 3.2 1.6 2.1 2.8-2 1.5-4.7 1.5-7.1.2-7.1-.5 0-1 .7-1 1.5s-.4 1.5-1 1.5c-.5 0-1-1.1-1-2.5 0-2.9-2.4-3.4-3.6-.8-.6 1.5-.8 1.3-1.3-1.1-.3-1.6-1.2-3.1-2-3.4-1-.3-1.2.5-.6 3.9M214 305.8c0 5.3.2 6 2.5 7 3.8 1.7 5 1.5 6.5-1.3 1-1.9 1.1-3 .2-5-1-2.2-6.5-6.5-8.4-6.5-.5 0-.8 2.6-.8 5.8m6.9.9c1 2.2.9 2.9-.3 4.1-2.1 2.1-4.6-.1-4.6-3.9s3.2-4 4.9-.2M534.9 285c-1.1 2.8.3 20.4 1.7 22.7 1.9 3 1.8 8.3-.1 8.3-2 0-10.5 4.2-10.5 5.2 0 1.3 1.7.9 5.4-1.3 3.6-2.1 3.6-2.1 3.6.9 0 1.7-.7 3.8-1.6 4.7-1.8 1.8-3.3 7.8-3.4 13.7 0 2.8.7 4.3 3 6.5 3.8 3.5 4.1 9 .8 13.6-2.9 4-2.8 9 0 12 2.1 2.2 2.4 3.7 2.9 16.6.8 19.1.6 19.6-13.7 28-12.7 7.5-14 9.2-11 15.3 2.8 5.9 2.8 16.3 0 18-3.8 2.4-2 11.6 3 15.5.8.6 2.9 1.3 4.7 1.6 3.6.6 24.3 12.8 28.7 16.9 1.6 1.6 3.7 2.8 4.7 2.8 2.5 0 11.4 5.7 15.9 10.2 2.4 2.4 4.7 3.8 6.3 3.8 1.5 0 4.8 1.3 7.4 2.8 11.8 7 21.9 13.6 22.6 14.8 1.1 1.9 11.4 8.4 13.2 8.4 2.7 0 13.9 7.3 18.7 12.3 3.9 4 5.2 4.8 7.2 4.3 3-.7 17.3 7.4 23.3 13.3 2.9 2.9 5.1 4.1 7 4.1 2.2 0 3.8 1.1 6.4 4.2 6.5 7.8 6.7 8.4 3.7 10.7-3 2.4-6.8 10-6.8 13.7 0 1.4.4 3.4 1 4.4 1.2 2.2 15.5 11 17.9 11 1 0 3.8-1.4 6.4-3 2.6-1.7 4.9-3 5.1-3s4.1-2.3 8.7-5c4.6-2.8 9-4.8 9.8-4.5 1.4.6 26-12.8 27.3-14.9.4-.6.8-2.2.8-3.5s1.1-3.6 2.5-5.3c1.7-2 2.5-4.2 2.5-6.9 0-3.1.5-4.2 2.8-5.6 5.7-3.5 7.2-5.5 7.2-9.5 0-4.6 3.7-12.2 7.8-16.1 2.4-2.3 3.3-2.7 4.8-1.8 1.1.6 5 2.4 8.8 4.1l6.9 3 5.8-3.4c4-2.4 6.1-3.1 6.6-2.4.3.7.1 1.4-.5 1.6-1.8.6-.4 2.2 1.9 2.2 1.2 0 1.9.7 1.9 2 0 1.1.5 2 1 2 1.7 0 1.1-2.7-1.7-6.9l-2.6-4-6.2 3.4-6.2 3.5-7.6-3.1c-4.3-1.7-7.7-3.5-7.7-4 0-1.2 3.5-2.9 6.3-2.9 2.7 0 6.7 3.8 6.7 6.4 0 .9.4 1.4 1 1.1 1.6-1-1.2-6.4-4.2-8.3-2.4-1.4-3.2-1.5-6.5-.3-5.5 2-8.8 4.8-12.5 10.5-4.5 6.8-5.8 10-5.8 14 0 3.2-2.4 6.6-4.8 6.6-2.6 0-5.2 4-5.2 7.8 0 2.6-.7 4.5-2 5.7-1.2 1.1-2 3.1-2 5.1 0 3.8-.9 4.5-14.6 12.5-4.9 2.8-10.1 5.2-11.6 5.4-1.5.1-6.7 2.5-11.7 5.3-5 2.9-9.7 5.2-10.3 5.2-.7 0-2.4 1.2-3.7 2.5-3.2 3.5-7.8 3.4-8.7-.1-.9-3.7.2-9 2.5-12.3 2.5-3.5 2.7-4.8.4-3-2.2 1.9-5.3 8.8-5.3 12.1 0 1.6-.2 2.8-.5 2.8-1 0-9-5.3-9.7-6.4-1.3-1.8-.9-7.5.6-10.4 1.6-3.1 7.5-8.8 12.6-12.3 4.2-2.8 7.7-5.9 6.7-5.9-.4 0-3.2 1.6-6.3 3.7s-5.8 3.2-6.3 2.7c-.4-.5-3-3.7-5.8-7-3.5-4.3-5.4-5.9-6.4-5.4-2 1.3-6.5-1.5-7.9-5-.7-1.7-1.8-2.9-2.5-2.6-.7.2-2.5-.4-4.1-1.5s-4.4-2.7-6.2-3.6-4.7-2.9-6.3-4.5c-2.1-2.1-2.9-2.5-2.9-1.4 0 .9-.8 1.6-1.9 1.6-2.9 0-6-3.1-7.6-7.5-.8-2.2-1.4-3.4-1.5-2.8 0 2-1.3 1.6-8.4-2.7-3.6-2.2-7.3-4-8.1-4-2 0-8-3.9-12.6-8.1-2-1.9-7.7-5.8-12.5-8.7-15.3-9.1-14.8-8.2-6.5-13.3 3.9-2.4 7.1-4.7 7.1-5.1 0-1.3-.7-1-8 3.7-3.9 2.5-7.5 4.3-8 4s-1.1-.1-1.5.5c-1.6 2.6-7.5-1.2-9-5.8-.4-1.3-1.2-2.1-2-1.9-.7.3-2.7-.4-4.6-1.5-3.3-2-3.3-2-.8-3.9 1.3-1 3.5-2.4 4.9-3.1 3.4-1.8 6.7-4.8 5.2-4.8-.7 0-3.7 1.6-6.7 3.6-2.9 2-5.8 3.3-6.4 3-.5-.4-1.2-.2-1.6.4-1.2 1.9-4.3 1-6.8-2-1.4-1.7-2.8-3-3.1-3-.2 0-2.6-1.3-5.3-2.9-15.7-9.3-19.2-11.1-21.5-11.1-3.5 0-6.8-4.6-6.8-9.4 0-3.7 1-4.3 4.4-3 1.8.7 2.2 2.5.5 2.2-.6-.2-1.4.3-1.6.9-.3.7.2 1.3 1.1 1.3s1.6.7 1.6 1.5-.4 1.5-1 1.5c-1.5 0-1.2 1.7.5 2.4q1.5.45 3-2.4c1.8-3.4 1-5.9-2.7-8.4-2.2-1.6-2.2-1.6.1-3.2 1.9-1.4 2.2-2.3 1.8-5.4-.5-3.7-.5-3.8 6.4-7.6 3.8-2.2 6.9-4.2 6.9-4.7 0-1.1-.8-.9-5 1.8-2.2 1.4-4.6 2.5-5.3 2.5s-1.8.5-2.4 1.1c-2.7 2.7-9.5-5.6-7.9-9.6.3-.8 1.4-1.5 2.5-1.5s2.5-.8 3-1.9c.6-1 4.2-3.7 8.1-6.1 5.2-3.2 7.6-4.1 9.5-3.6 1.7.4 4.1-.3 8-2.5 5.2-2.9 7.6-4.9 5.9-4.9-.4 0-3.1 1.3-6.1 3-8.5 4.8-9.2 3.9-3.7-4.7 3.5-5.4 3.9-7.8.9-5.3-1.3 1.1-1.5.2-1.5-8.1 0-5.2-.3-10.4-.6-11.7-.4-1.3-.2-2.2.5-2.2s1.1 2.9 1.1 8.4c0 4.7.5 8.8 1 9.1.6.4 1-3 1-9.4 0-6.1.4-10.1 1-10.1s1-1.1 1-2.5-.4-2.5-1-2.5c-.5 0-1 .9-1 2 0 3.6-3 3.6-6.2.1-3.4-3.8-3.5-8.2-.3-9.1 1.1-.3 2-1.1 2.1-1.8.1-.6.2-3.5.3-6.2.1-3.9.5-5.2 1.9-5.8 3.5-1.4 11.1-6.7 11.4-7.9.3-1.4 1.1-1.1 11.3 5 9.7 5.9 9.3 5.5 7.3 6.7-2.4 1.5-2.3 3.3.3 5.6 2 1.8 2.2 1.8 5.1.1 3.8-2.2 5.3-2.1 8.6.1 1.5 1 7 4.3 12.2 7.2s11.5 6.4 13.9 7.7c2.4 1.4 4.2 2 3.9 1.3-.2-.7-2.4-2.4-4.8-3.8-23.4-13.1-24.9-14.3-21.4-15.6 3-1.1 4.7-.6 9.8 3.2 9.5 7.1 19.1 12.2 23 12.2 1.8 0 1.7.3-1 1.9-4.1 2.5-4.7 3.6-3.4 6.1.7 1.3 2.1 2 4.1 2 1.7 0 4.3.8 5.7 1.8 1.5 1.1 5.2 3.3 8.2 4.9 3 1.7 8.9 5 13 7.3 4.1 2.4 9.2 5.2 11.2 6.4 4.3 2.4 4.6 3.1 1.8 4.6-2.4 1.3-2.6 5.2-.4 7.1 1.3 1.1 2.1 1 5-.6 2.9-1.5 3.8-1.6 5.7-.6 2 1.1 2.9.9 6.1-.8 2-1.2 4.2-2.1 4.9-2.1s3.3 2.2 5.9 4.9c2.6 2.6 6.9 5.9 9.6 7.2s5.4 3.4 6 4.8c.7 1.3 1.1 2.5.9 2.6-6.7 4.1-7.6 6.3-3.8 9.2 1.2.9 2.2.7 4.5-1 2.2-1.6 4.3-2.1 7.8-1.9 4 .2 5-.2 6.3-2.2 1.4-2.1 1.4-2.8.2-5.9-.8-1.9-2-3.8-2.7-4.2-.7-.5-.9-2.1-.5-4.7.4-2.3.2-5.1-.5-6.8-1-2.5-.9-3.2.8-5s1.9-2.7 1-5.1c-1.2-3.6-6.9-8.2-8.2-6.9s-5.3 1.3-6.1 0c-.4-.6-.1-1.7.5-2.5 1.6-1.9.9-5.9-1.2-6.3-1.4-.3-1.6.3-1.1 3.2.4 2.9.2 3.6-1.1 3.6-.9 0-1.6.4-1.6 1 0 .5.7 1 1.5 1s1.5.6 1.5 1.4 1 2.2 2.2 3c1.2.9 2 1.7 1.7 1.9-.2.1-1.2.9-2.1 1.6-1.3.9-2.2 1-3 .3-2.1-1.7-8.8-5.2-9.9-5.2-2 0-4.2 3.2-4.1 6.1.1 3.5 3.7 8.9 6 8.9 1.2 0 .9-.7-1.1-2.8-3-3.2-3.7-8.6-1.2-9.6 2.7-1 8 2.7 8.3 6 .5 4.2 2.1 5.7 5.3 5 3-.6 4.5 1.6 3.3 4.8-.8 2.1-1.6 2-6.6-.4-2.3-1.1-4.7-2-5.2-2-1.8.1 3.7 3.9 7.2 5.1 4.5 1.5 6.2-.1 6.2-5.7 0-9.4 3.8-3.4 4.1 6.6.2 5.6 2.6 9.9 4.8 8.5 2-1.2 1.1 2.7-1 4.6-1.6 1.4-2.6 1.6-3.9.9s-3.1-.4-6.5 1.1c-2.6 1.1-5 1.8-5.3 1.4-1-1 1.4-4 3.1-3.7.8.1 1.8-.5 2.1-1.4.4-.9 1.3-1.4 2.1-1 .8.3 1.5.1 1.5-.4 0-.6.7-1 1.5-1s1.5-.5 1.5-1.1c0-.7-1.4-.8-3.9-.4-3.6.6-4 .4-4.3-1.6-.2-1.6-1.9-3.1-5.8-5-3-1.6-7.6-5.1-10.1-7.9-5.1-5.5-7.8-6.2-11.9-3-3.9 3-7.3 2.1-3.6-.9 1.3-1.1 1.2-1.5-.5-3.2-1-1-1.9-2.4-1.9-2.9 0-.7-.6-.7-1.9 0-3.1 1.6-4.1 1.2-4.1-1.9 0-2.6-.9-3.4-9.7-8.3-8.2-4.5-10.4-6.2-13.3-10.6-3.5-5.4-5.4-5.7-2.6-.5 1.7 3.2 5.6 7.8 7.1 8.4.6.2 4.5 2.3 8.8 4.7 5.7 3.2 7.7 4.9 7.7 6.4 0 2-.1 2-2.7.2-1.6-1-9.8-5.8-18.3-10.7-8.5-4.8-15.9-9.3-16.4-9.7-.6-.6.5-1.5 2.7-2.5 3.9-1.6 5.2-3 4.2-4.5-.4-.6-2 0-3.9 1.5-3.9 3-11.8 4.6-9.6 2 .7-.8 2.1-1.5 3.1-1.5 1.1 0 1.9-.5 1.9-1 0-.6.7-1 1.5-1s1.5-.5 1.5-1c0-.6.9-1 2.1-1 1.1 0 1.7-.5 1.4-1-.3-.6-1.8-1-3.2-1-2.1 0-2.4-.2-1.3-1.5 1.8-2.2 4.6-1.8 6.8 1 2.4 3 5.2 3.2 5.9.5.3-1.1 1.1-2 1.9-2 2.2 0 3.2 3 2.1 5.9-.7 2-.6 3.5.4 5.6 1.4 2.8 9.1 9.5 11 9.5 2 0 .6-1.7-3.8-4.5-3.4-2.1-5-4-5.7-6.3-1.6-5.6.4-6.2 7.7-2.3 8.6 4.7 10.7 6.8 10.7 10.8 0 2.6-.4 3.3-2 3.3-1.1 0-2 .4-2 1 0 1.4 3.3 1.3 4.8-.2 1.7-1.7 1.5-6.4-.4-9.3-.9-1.4-4.3-3.9-7.5-5.7s-5.9-3.6-5.9-4c0-.3 1.9-1.7 4.3-3 3-1.7 4.3-3.1 4.5-4.9.4-3.1-2.3-5.8-4-4.1-1.6 1.6-2.8 1.5-2.8-.3 0-2.4 2.9-2.9 5-1 1.2 1.1 2 1.3 2 .7 0-2.1 1.6-1.3 2.8 1.3 1.6 3.6 1.4 4.4-.4 2-1.5-1.9-1.6-1.8-.9 1.5.4 1.9 1.1 3.7 1.5 4s.9 1.5 1.2 2.7c.4 1.6.2 2-.8 1.6-2.1-.8-1.7 1.1.7 3.3 3.3 2.9 5.9 9.3 5.9 14.6 0 2.7.5 4.8 1 4.8.6 0 1 .4 1 1 0 .5-.6.7-1.4.4s-1.6.3-1.9 1.5c-.4 1.6 0 2.1 1.4 2.1 1 0 3.1 1.6 4.6 3.5s3.5 3.5 4.4 3.5c2.5 0 4.9-3.3 4.9-6.7 0-3.7 2.5-6 7-6.5 2.7-.2 3.5-.8 4-2.8.4-1.7.8-2.1 1.4-1.2.4.6 1.4 1.2 2.2 1.2 2 0 1.5-5.1-.5-5.8q-1.35-.45-.9.9c.4 1-.1 1.5-1.3 1.5-1.3 0-1.9-.7-1.9-2.3 0-1.3-.5-2.3-1.1-2.3s-.9 1.5-.7 3.7c.3 3.4.1 3.7-2.9 4.5-3.4.9-7.3 5.4-7.3 8.5 0 1-.5 2.5-1 3.3-.8 1.3-1.5 1-4.1-1.7-3.1-3-3.2-3.5-3-10.2.2-7.3-.8-10.4-5.4-16.6-1.5-2-2.3-4.4-2.3-7.2-.1-2.3-.6-5.2-1.3-6.5-1.7-3.2-6.1-6.8-8.3-6.8-2 0-5.2 3.1-6.1 5.9-.3.9-2.2 2.3-4.3 3-2 .7-4.7 2.3-5.9 3.4-2.3 2-2.3 2-4.6-.1-1.3-1.2-3-2.2-3.8-2.2-2 0-3.9-2-3.9-4.2 0-2.7-3.6-9.4-7.4-13.6-2-2.2-3.5-5.2-3.9-7.6-.7-4.1-3-7.4-6.2-8.6-3-1.2-7.5 1.6-8.1 5-.4 1.9-1.6 3.2-3.4 4-2.7 1.1-5 4.6-5 7.5 0 2.2-2.1 1.8-5.4-1.1-2.4-2.1-3.1-3.8-3.8-8.7-.8-6-2.9-10.7-4.8-10.7-.6 0-.1 1.7 1 3.7 1.1 2.1 2 4.5 2 5.3s-.9-.3-1.9-2.5c-2.3-4.9-4.7-8.2-5.5-7.4-.3.3.6 2.2 2 4.2 2 3 2.4 4.7 2.3 9.8-.2 6-.2 6-2.8 5.3-1.4-.3-3.6-.8-4.7-.9-1.2-.2-4.7-1.7-7.8-3.5-3.2-1.7-6.2-3-6.8-2.8-1.5.5 12.9 8.8 15.2 8.8 3.2 0 5 1.2 5 3.2 0 1.6-.5 1.9-2.4 1.6-3.9-.8-20.7-11.2-20.1-12.6.2-.6-.2-1.2-1-1.2-.9 0-1.5-1-1.5-2.5 0-1.3-1.1-3.4-2.5-4.7-2.2-2.1-2.3-2.7-1.4-6.7.5-2.4 1.6-5.5 2.3-7 1.5-2.9.8-5.4-2.3-7.9-1.4-1.2-1.3-1.3.9-1 1.8.2 3 1.4 4.4 4.5 2.4 5.2 4 5.4 6.2.8 1.9-4.1 4.4-4.5 7.3-1.3 1.4 1.4 2 3.4 1.9 5.9-.1 2.3.5 4.4 1.6 5.4 2 2.1 3.4 1.2 1.6-1-1.9-2.3 0-1.8 2.7.7 1.3 1.2 2.3 1.6 2.3 1s-.5-1.4-1-1.7c-.6-.3-1.5-2.6-2.1-5.1-1.4-5.3-6-10.4-9.5-10.4-2.5 0-6.4 3.1-6.4 5.2 0 .7-.8-.3-1.9-2.2-2.4-4.6-5.8-6.4-8.6-4.6-1.1.7-2.2 2.2-2.4 3.2s-1.1 2.4-1.9 3c-3 2.2-5.2-1.9-5.3-9.5-.1-8-1.3-16.2-2-14.1m12.5 27.1c-.3.5-1.4.9-2.5.9-1.6 0-1.8-.2-.7-1.4 1.4-1.4 4.2-1 3.2.5m-6.7 1.6c-.4.3-.7 0-.7-.7s.3-1 .7-.7c.3.4.3 1 0 1.4m4.9 4c-.3 1-.8 3.9-1.1 6.4-.5 3.7-1.2 4.9-3.2 5.8-1.3.6-2.9.9-3.4.6-1.3-.9-1.1-4.3.4-4.8 1-.4 1-.7 0-1.8-2.1-2.2-1.5-3.4.7-1.4 1.1 1 2.3 1.5 2.8 1.1.4-.4-.4-1.7-1.7-2.7-3.2-2.6-2.3-3.5 5.2-4.8.5 0 .6.7.3 1.6m2.8 11.9c1.6.6 1.1 3.4-.6 3.4-.5 0-2.1.9-3.5 2-4.1 3.2-8.7 2.2-4.8-1 .8-.7 2.2-1 3-.6.9.3 1.5 0 1.5-1 0-.8.5-1.2 1-.9.6.3 1-.1 1-.9 0-1.8.2-1.9 2.4-1M536 334c0 3.3.4 4.1 2.4 4.6 1.4.3 3.7-.1 5.6-1.1 2.9-1.5 3.4-1.5 4.8-.1s1.3 1.7-.8 3.6c-1.3 1.1-3.4 2.3-4.7 2.6-1.3.4-2.3 1-2.3 1.5 0 2-6 .9-7.4-1.4-1.9-2.8-1.1-13.7 1-13.7 1 0 1.4 1.3 1.4 4m70.5-3c.4.6 1.2 1 1.8.9 2.4-.3 3.7.1 3.7 1.2 0 .5-.4.7-1 .4-.5-.3-1 0-1 .7 0 1.3-2 2.8-6.9 5.4-3.3 1.8-4.5.8-2-1.7 1.1-1.1 2.4-1.7 2.9-1.4 1.4.8 4.3-2.2 3.5-3.5-.4-.6-1.5-.8-2.6-.5-1.8.6-2.6-.5-1.2-1.8.9-1 2.1-.9 2.8.3m6.2 6.7c-.4.3-.7 0-.7-.7s.3-1 .7-.7c.3.4.3 1 0 1.4m1.4 5c1.6 1.4 2.6 2.9 2.3 3.4-.3.6-.1 1.5.4 2.2 2.5 3.1 5.2 9 5.2 11.5 0 1.5.4 3.4 1 4.2 1.2 1.9-.5 3-4.8 3-3.4 0-6-1.4-20.1-10.9-6.5-4.3-7.9-5.7-6.2-5.9 1.7-.3 2.1-1 2.1-4.3 0-2.1.3-3.9.6-3.9 1.5 0 3.4 3.1 3.4 5.5 0 3.3 2.9 8.5 4.8 8.5 1 0 .8-.8-.7-2.9-2.3-3.2-2.8-7.1-.8-7.1 2.1.1 10.5 5.8 12.2 8.4 2.1 3.2 1.6 7.2-.7 6.8-1.2-.2-1.6.2-1.2 1.3 1 2.5 4.3 1.8 5-1s-.2-7.3-1.9-9.3c-.6-.8-3.5-2.9-6.5-4.8-2.9-1.9-5.2-3.9-5-4.4s1.9-1.9 3.8-3.2c2.8-1.9 3.6-2.1 3.9-1 .1.8 1.6 2.6 3.2 3.9m-33.1-2.2c0 .3-.2.5-.5.5s-.5-.2-.5-.5.2-.5.5-.5.5.2.5.5m16.7 1.2c-.4.3-.7 0-.7-.7s.3-1 .7-.7c.3.4.3 1 0 1.4m-14.8 4.4c1.8 1.7 2.5 1.9 3.1.8.6-.9 1.1-.5 1.5 1.4.8 2.9-.8 5.7-3 5.7-.8 0-1.1-.8-.8-2 .3-1.1 0-2-.6-2s-1.1.4-1.1.8c0 1.6-9.6 6.1-11.1 5.2-1.1-.8-1-1.2.6-2.4 1.1-.9 2.5-1.4 3.2-1.1.6.2 1.4-.2 1.6-1 .3-.7 2-1.6 3.7-2 2.5-.5 2.9-1 2-2-.6-.8-1.8-1.1-2.6-.8s-1.4-.1-1.4-1.1c0-2.2 2.2-2 4.9.5m37.1 2.4c0 .3-.2.5-.5.5s-.5-.2-.5-.5.2-.5.5-.5.5.2.5.5m2.4 3.1c.9 2.4.2 2.6-1.2.4-.7-1.1-.8-2-.3-2s1.2.7 1.5 1.6m1.3 5.1c-.4.3-.7 0-.7-.7s.3-1 .7-.7c.3.4.3 1 0 1.4m1 5c-.4.3-.7 0-.7-.7s.3-1 .7-.7c.3.4.3 1 0 1.4m31.3-.2c0 .8-.7 1.5-1.5 1.5s-1.5.5-1.5 1.2c0 .9-.3.9-1.2 0-.8-.8-.8-1.5.2-2.7 1.6-1.9 4-2 4 0m-6.3 4.9c-.4.9-1.1 1.6-1.6 1.6-1.5 0-2.3-3.3-.9-4.1 1.7-1.1 3.2.5 2.5 2.5m-4.7 1.1c0 .3-.2.5-.5.5s-.5-.2-.5-.5.2-.5.5-.5.5.2.5.5m21.7 9.2c-.4.3-.7 0-.7-.7s.3-1 .7-.7c.3.4.3 1 0 1.4m3.7 7.8c.6 4 .6 4-.9-.5-1.6-5-1.9-7.3-.6-5 .5.8 1.2 3.3 1.5 5.5m39.1 12.5c-.3.5-1.3 1-2.1 1s-1.4-.5-1.4-1c0-.6.9-1 2.1-1 1.1 0 1.7.4 1.4 1m4.8 1.3c.7 1.8-.3 6.7-1.4 6.7-.5 0-.9-1-.9-2.3 0-1.6-.3-1.8-.9-.8-.5.7-1.4 1-2 .7-.6-.4-1.1 0-1.1.8 0 2.2-1.7 2-2.3-.3-.4-1.8 2.1-3.6 4.6-3.2.4.1 1-.6 1.3-1.4.7-1.8 2-1.9 2.7-.2m-43.9 5.5c.8 1.3-.8 3-3.9 4.3-5.1 2.1-6.7 2.1-6.3.2.3-1.2 1.2-1.7 2.6-1.6 1.2.2 2.2-.2 2.2-.8 0-.5.5-.7 1-.4.6.3 1.3-.1 1.6-.9.7-1.7 2-2.1 2.8-.8m34.4 1.2c.1 1-.6 1.5-2.3 1.6-2.4.2-3.3-1.4-1.8-3 1.1-1.1 3.8-.2 4.1 1.4M518 441.5c0 2.5-.4 4.5-1 4.5-.5 0-1-2-1-4.5s.5-4.5 1-4.5c.6 0 1 2 1 4.5"/><path d="M605.2 358.1c.2.7 1 1.5 1.7 1.7.8.3 1.2-.1.9-.9-.2-.7-1-1.5-1.7-1.7-.8-.3-1.2.1-.9.9M823 289.5c0 .3.2.5.5.5s.5-.2.5-.5-.2-.5-.5-.5-.5.2-.5.5M829 296c-.8.5-1.1 1.2-.7 1.6s1.3.2 1.9-.4c1.5-1.5.7-2.4-1.2-1.2M809.2 298.8c-5.2 2.7-13.2 9.6-13.2 11.5 0 .5 2.7-1.6 6-4.6 4-3.6 7.6-5.9 10.6-6.7 5.7-1.6 6.7-.7 1.8 1.6-4.4 2.1-15.4 12.9-15.4 15.1 0 .8 1.1.1 2.7-1.9 7.4-8.9 14.7-13.8 20.2-13.8 3.6.1 3.6.1-.9 2.2-4.6 2.2-18 14.6-18 16.6 0 .7 3.3-2.1 7.3-6.2 5.9-6 8.2-7.7 12.8-9.1 5.4-1.7 5.6-1.7 9.7.4 2.3 1.2 4.6 3 5.2 4.1 1.1 2.1 4 2.8 4 1 0-.6-.6-1-1.4-1s-1.6-.7-1.9-1.5c-1.3-3.1-17-10.5-22.3-10.5-1 0-4.3 1.3-7.2 2.8"/><path d="M820.5 308.1c-7.3 3.6-14.7 12.7-16.6 20.6-.8 2.9-1.7 4.3-3.2 4.7-3 .8-9.1 4.6-8.4 5.2.3.3 2.6-.6 5.2-2 4.6-2.6 4.6-2.6 4.3-.5-.2 1.2-1 2.6-1.8 3-.8.5-10.3 5.9-21 12s-21.1 12-23 13.1-6.8 3.9-10.8 6.1c-4 2.3-6.9 4.3-6.3 4.5.9.3 8.6-3.7 17.1-8.9 2.5-1.5 9.7-5.6 16-9.2 6.3-3.5 16.3-9.2 22.1-12.6 5.9-3.3 11.2-6.1 11.8-6.1s1.1.9 1.1 2c0 2 3.6 6 5.5 6 .6 0 2-.7 3.1-1.5 1.8-1.4 1.7-1.4-1.3-.9-2.6.5-3.4.2-4.9-2.1s-1.6-3.1-.4-6.3c1.5-4.5 4.8-9.2 6.2-9.2 1 0 .8 1.8-.8 6.9-.4 1.5-.3 2.2.2 1.8.6-.3 1.6-2.9 2.4-5.6.8-2.9 1.9-5.1 2.7-5.1 1.9 0 3.5 4.8 2.7 8.4-.5 2.5-.4 2.9.7 1.9 2.1-2.1 1.4-8.5-1.1-10.5-1.2-1-2.6-1.8-3-1.8-2.3 0-7.8 5.2-9.9 9.3-3.7 7.5-6.7 5.7-3.8-2.3 3.2-8.8 7.8-14.8 14.3-18.6 6.7-4 13.4-2.6 14.8 3.1.5 2.1 2.6 3.7 2.6 2 0-1.8-3.2-6.4-5.4-7.9-3.3-2.1-6.2-2-11.1.5M561.6 308.7c-1.1 1.1-.6 2.3 1 2.3 1 0 1.4.7 1.2 2-.2 1 .2 1.9.7 2 1.9.1 1.6-4.5-.4-5.7-1-.6-2.2-.9-2.5-.6M552.6 318.6c-.9.8-1.6 2.2-1.6 2.9 0 4.3 4.5 10.2 10.1 13.1 5.3 2.7 5.4.9.1-2.4-5.2-3.2-8.8-8.2-7.8-10.8.8-2.1 3.5-1.7 9.1 1.2 8.6 4.5 13.5 13.4 7.8 14.2-3.1.5-2.9 2.2.2 2.2 3.5 0 5.2-3.8 3.6-7.7-1.8-4.3-4-6.5-10.8-10.6s-8.4-4.4-10.7-2.1M518 325.1c-4.3 2.6-4.5 2.8-3.7 3.5.5.5 9.7-4.3 9.7-5.2 0-1-2.8-.2-6 1.7M747.5 327.2c-11.2 3.9-17.6 8.8-24.4 19-3.5 5.3-7.4 13.8-6.3 13.8.4 0 2.3-3.2 4.1-7 1.9-3.9 5.8-9.6 8.7-12.8 10.4-11.5 25.3-15.2 31.7-7.9 2.3 2.7 2.2 4-.2 2.7-3.1-1.6-7.2-1.2-12.6 1.4-4.9 2.2-13.9 10.8-16.4 15.5-2.2 4.1-.4 3.4 2.7-1.1 8.8-12.6 21.8-18.6 28-12.8 2.2 2.1 2.2 2.1 4.4.1 1.1-1.1 4.3-3.1 6.9-4.3 2.7-1.3 4.9-2.6 4.9-3.1 0-1.2-1.3-.8-7.5 2.6l-5.9 3.4-1.6-3.1c-2.5-5-11.1-8.3-16.5-6.4M506 331.7c-5.4 3-5.5 3.1-4.7 3.9s9.7-4.4 9.7-5.6c0-1.3.3-1.4-5 1.7"/><path d="M795.5 332.6c-2.2 1.3-3.4 2.4-2.7 2.4 1.5 0 9.2-3.8 9.2-4.5 0-1.1-2.7-.2-6.5 2.1M493.2 338.7c-2.4 1.4-4.1 2.8-3.8 3.1 1 .9 8.6-3 8.6-4.5 0-.7-.1-1.3-.2-1.2-.2.1-2.2 1.2-4.6 2.6M783.5 337.9c-5.6 3.4-11 6.4-16.5 9.3-3 1.6-5.9 3.3-6.5 3.7-.5.5-4.4 2.6-8.6 4.8-8.9 4.7-13.1 7.4-12.6 8 .3.2 2.5-.8 5.1-2.2 7.5-4.1 12.9-7.1 16.7-9.3 2-1.1 4.5-2.5 5.5-3 1.1-.6 6-3.4 11.1-6.2 5.1-2.9 9.7-4.9 10.2-4.5.6.3 1.1-.1 1.1-.9 0-2-1.7-1.9-5.5.3M775.1 347.5c-6.2 3.6-11.6 6.5-11.8 6.5-.3 0-1.7.8-3.1 1.9-1.5 1-6.3 3.7-10.7 6.1-8.6 4.6-10.8 6-10.1 6.7.4.4 25.3-13.2 30.6-16.6 1.4-1 4.7-2.8 7.3-4.2 4.4-2.2 10.8-6.8 9.7-6.9-.3 0-5.6 2.9-11.9 6.5M482 345.1c-1.9 1.1-4.3 2.5-5.3 3-1 .6-1.6 1.3-1.3 1.6.9 1 10.5-4 10.6-5.5 0-1.5.3-1.5-4 .9M464.5 354.7c-2.2 1.5-3.5 2.8-2.8 3 1 .4 9.3-4.4 9.3-5.3 0-1.1-2.9 0-6.5 2.3M452 361.7c-5.3 3-5.5 3.1-4.8 3.8.6.6 9.5-4.2 10.3-5.6 1-1.5-.8-1-5.5 1.8M437.2 369.7c-2.4 1.4-4.1 2.8-3.8 3.1.7.6 9.3-3.5 10.1-4.9 1-1.6-1.8-.8-6.3 1.8M424 376.7c-3.9 2-6.3 4.3-4.6 4.3 1.3 0 10.6-5.4 10.6-6.2 0-1.1-.9-.9-6 1.9M630 377c0 .5.9 1 2 1s2-.5 2-1c0-.6-.9-1-2-1s-2 .4-2 1M410.5 384.1c-1.6 1-3.4 2.1-4 2.3-.5.2-.7.6-.4 1 .8.8 9.9-3.4 9.9-4.6 0-1.3-2.3-.8-5.5 1.3M395.1 392.8c-2.5 1.4-4 2.7-3.3 3 1.2.4 10.2-4.4 10.2-5.3 0-1.1-2.8-.2-6.9 2.3M381.3 400.2c-5.1 3.1-3.9 3.9 1.7 1.1 2.8-1.4 5-2.7 5-2.9 0-1-3.8 0-6.7 1.8M369.5 406.6c-2.2 1.3-4.4 2.5-5 2.7-.5.3-.7.7-.3 1.1.5.7 5.9-1.7 9.7-4.2 3-2.1-.7-1.7-4.4.4M805.5 410.8c-1.7 2.3-2 4.4-2.1 13.2l-.2 10.5.7-9.7c.5-7.8 1-10.2 2.9-12.7 1.2-1.6 2.2-3.3 2.2-3.6 0-1.3-1.7-.2-3.5 2.3M357.5 413c-1.6 1.2-4.5 2.8-6.2 3.6-2.9 1.4-4.4 3.4-2.7 3.4 1.4 0 13.4-7.3 13.4-8.1 0-1.4-1.2-1.1-4.5 1.1M342.2 421.9c-1.7 1.1-4.2 5.8-4.2 8.1 0 2.2 2.6 4.5 3.4 3.1.4-.5.2-1.2-.4-1.6-1.8-1.1-1.1-4.2 1.5-6.6 3.4-3.3 3.2-5.3-.3-3M712.1 429.6c0 1.1.3 1.4.6.6.3-.7.2-1.6-.1-1.9-.3-.4-.6.2-.5 1.3M345 435.9c0 1 8.3 6.1 8.9 5.5.6-.5-2.5-2.9-6.1-4.9-1.6-.9-2.8-1.1-2.8-.6M357 442.8c0 1.1 8.9 6.6 9.5 6 .8-.7-1.1-2.4-5.2-4.6-2.4-1.3-4.3-1.9-4.3-1.4M370 450.7c0 1.1 10.1 6.6 10.7 5.9.6-.5-8.5-6.6-9.9-6.6-.4 0-.8.3-.8.7M529.3 457.7c-1.3.8-2.3 2-2.3 2.5 0 1 2.3-.1 5.5-2.6 2.8-2.1-.2-2.1-3.2.1M384 458.8c0 .9 10.2 7.3 10.8 6.7.8-.8-1-2.4-5.4-4.9-5.1-2.9-5.4-3-5.4-1.8M398 466.8c0 1.1 10.9 7.6 11.6 6.9.5-.5-9.9-7.7-11.1-7.7-.3 0-.5.4-.5.8M550 474.9c0 .6.5 1.3 1 1.6.6.3 1 1.4 1 2.3-.1 1.4-.4 1.3-2-.6-1-1.2-2.1-1.8-2.4-1.3-.4.5.4 1.9 1.6 3.1 1.9 1.8 2.4 1.8 3.7.5 1.2-1.1 1.2-1.9.3-4-1.1-2.4-3.2-3.5-3.2-1.6M413.6 476.2c.2.7 2.7 2.5 5.4 4 3.9 2.2 5 2.5 5 1.3 0-.8-.5-1.5-1-1.5-.6 0-2.8-1.1-5-2.5-4.5-2.8-5.1-3-4.4-1.3M875.8 480.7c-2.6 2.8-3.7 6.7-2.7 8.6 1.1 1.9 4.4 2.3 5.5.6.4-.7-.2-.9-1.7-.7-3.3.4-3.6-2.9-.5-6.7 2.1-2.7 2.5-2.8 4.1-1.5s1.8 1.3 1.3 0c-.7-2.2-4.2-2.4-6-.3M428 485c0 .5.5 1 1.1 1s2.4.9 4 2.1c1.6 1.1 3.5 1.9 4.1 1.7.7-.3-.8-1.7-3.3-3.1-5-2.9-5.9-3.2-5.9-1.7M441 492c0 .6.8 1.3 1.8 1.7.9.3 2.9 1.5 4.4 2.5 2.9 2 3.8 2.2 3.8 1 0-.5-2.2-2.1-5-3.6-2.7-1.5-5-2.2-5-1.6M863.7 498.7c-2 1.4-3.5 2.8-3.3 3 .6.7 8.6-3.9 8.6-4.9 0-1.3-1.3-.8-5.3 1.9M454.3 499.3c.2.6 1.2 1.5 2.3 2.1 1 .6 3.1 1.9 4.6 2.9 2.1 1.4 2.8 1.5 2.8.5 0-.7-2.3-2.5-5.1-4-2.7-1.4-4.8-2.1-4.6-1.5M466 506.5c0 .6 10.2 6.5 11.3 6.5 1.7 0-.5-1.9-4.9-4.4-4.5-2.5-6.4-3.1-6.4-2.1M846.7 509.4c-.3.8-5.4 4.3-11.3 7.7-5.8 3.5-10.2 6.5-9.7 6.6 1.3.5 22.2-11.9 22.7-13.4.3-.7.1-1.5-.3-1.8-.5-.3-1.1.1-1.4.9M784 511.1c-2.5 1.2-3.9 2.3-3.2 2.6s2-.1 2.8-.8c.9-.8 4.2-1.3 7.6-1.4 5.6 0 6.1.2 8.8 3.5 1.6 1.9 3 2.9 3 2.3 0-.7-1.2-2.6-2.7-4.3-3.8-4.2-10.1-4.9-16.3-1.9M482 515.5c0 .7 7.8 5.5 9 5.5 2 0 0-2-4-4-4-2.1-5-2.4-5-1.5M496 523.7c0 .5 1.9 1.9 4.3 3.3 5.4 3.2 5.7 3.3 5.7 2.3 0-.8-8.1-6.3-9.4-6.3-.3 0-.6.3-.6.7M764.7 531.2c-3.8 7.8-5.5 13.4-3.7 12.3.5-.3 1-1.3 1-2.1 0-2.1 5.5-14 6.9-14.8 1.3-.8 1.5-2.6.2-2.6-.5 0-2.5 3.3-4.4 7.2M510 532c0 .5.4 1 .9 1s1.6.6 2.3 1.2c2.2 2.1 6 4 6.6 3.4.7-.7.7-.7-4.5-4-4.7-2.9-5.3-3.1-5.3-1.6M522 538.7c0 1.3 8.9 6.5 10.2 6.1.6-.2-1.2-1.9-4-3.6-5.5-3.4-6.2-3.7-6.2-2.5M536 546.8c0 1.1 11 7.5 11.7 6.8.4-.3.4-.7.2-.9-1.9-1.3-11.1-6.7-11.5-6.7-.2 0-.4.3-.4.8M553 556.4c0 .9 10.1 6.8 10.7 6.2.4-.3.4-.7.2-.9-6.1-4.3-10.9-6.6-10.9-5.3M569 566c3.6 2.8 10.2 6.1 10.8 5.5.3-.3.3-.6.1-.8-7.3-5-16.4-9-10.9-4.7M583.2 573.2c.5 1.5 8.7 6.3 9.4 5.5.3-.2-1.8-1.9-4.7-3.6-2.8-1.8-4.9-2.6-4.7-1.9M706 580.8c0 .6.5 1.2 1.1 1.4.5.2 1.3 2.2 1.6 4.6.3 2.3.8 4.2 1.2 4.2 1.6-.1 8.4-5 6.9-5-.9 0-2 .4-2.3 1-.3.5-1.5 1-2.6 1-1.3 0-1.9-.7-1.9-2.3 0-1.3-.9-3.2-2-4.2s-2-1.3-2-.7M600 584c4.6 3.1 6 3.6 6 2.2 0-.9-7.5-5.2-9.2-5.2-.7 0 .7 1.4 3.2 3M698.6 588.2c-3 4.2-1.1 9.7 2.8 8.2 2.3-.9 2-2.7-.4-1.9-1.5.5-2 .2-2-1.4 0-3.2 1.1-5.1 3-5.1 1 0 2 .6 2.3 1.2.2.7.8 1 1.2.6 1.1-1.1-1.4-3.8-3.6-3.8-1 0-2.5 1-3.3 2.2M610 588.8c0 1.2 11 7.6 11.7 6.8.3-.3.4-.7.2-.9-1.9-1.3-11.1-6.7-11.5-6.7-.2 0-.4.4-.4.8M626 597.9c0 1.3 8.8 6.3 10.2 5.9.6-.2-1.2-1.9-4-3.6-5.7-3.5-6.2-3.7-6.2-2.3M640 605.9c0 1.3 8.9 6.5 9.7 5.7.8-.7.9-.6-4.9-4-2.7-1.5-4.8-2.2-4.8-1.7M654 614.4c0 .8 9.4 5.6 10.4 5.3.5-.2-1.2-1.5-3.8-3-4.6-2.5-6.6-3.2-6.6-2.3M669 622.4c0 1 10.1 6.7 11.2 6.4.6-.2-1.3-1.9-4.4-3.6-5.3-3.1-6.8-3.7-6.8-2.8M685.5 631.9c.8 1.4 9.5 6.1 9.5 5.1 0-.8-8.2-6-9.5-6-.3 0-.4.4 0 .9M703.2 642c1 1.6 1 2.4 0 4-.7 1.2-.8 2-.2 2s1.5-1.1 2.2-2.5c.8-1.9.8-2.8-.2-4-1.8-2.2-3.2-1.8-1.8.5M692.5 653.1c-1.9 1.2-2.4 1.9-1.4 1.9.9 0 2.7-.9 4-2 3-2.5 1.3-2.5-2.6.1M683.1 658.1c-1.8 1.1-3.1 2.2-2.8 2.5.6.7 7.7-2.8 7.7-3.8 0-1.3-1.2-1-4.9 1.3M671.2 664.7c-2.4 1.4-4.1 2.8-3.8 3.1.7.6 9.6-4 9.6-5 0-1.2-1.1-.8-5.8 1.9M658.7 671.6c-2.1 1.4-3.6 2.8-3.4 3.1.5.5 9.7-4.5 9.7-5.3 0-1.1-3-.1-6.3 2.2M647.5 677.4c-1.1.7-3.3 2.1-4.8 3-1.6 1-2.6 2-2.4 2.3.7.7 10.7-4.8 10.7-5.9s-1.1-.9-3.5.6M633.1 685.7c-2.4 1.5-3.9 2.9-3.3 3.1 1.4.4 8.2-3.6 8.2-4.9 0-1.2.2-1.2-4.9 1.8M620.3 693.1c-1.8 1.2-3.3 2.5-3.3 3 0 1 7.7-2.8 8.6-4.2 1-1.6-2-.9-5.3 1.2M610 699c0 .5-1.1 1.2-2.5 1.6-1.3.3-2.9 1.2-3.6 2-1.6 1.9-.7 1.8 4.6-.8 4.5-2.2 5.8-3.8 3-3.8-.8 0-1.5.4-1.5 1M595.6 706.9c-4.6 2.6-4.3 4.3.3 1.8 2.3-1.2 4.1-2.5 4.1-3 0-1.1-1.1-.8-4.4 1.2M583.3 713.7c-2.8 1.4-4.4 3.3-2.8 3.3 1.2 0 7.5-3.5 7.5-4.2 0-1.1-1-.9-4.7.9M558.8 720.2c-1.4 1.1-2.1 5.3-2.8 16.9 0 .4-1 .9-2.2 1.2q-2.1.6-6.3-2.4c-4.8-3.4-10.7-4.8-13-2.9-1.6 1.4-2.1 7-.5 7 .5 0 .7-.6.4-1.3-.2-.7.2-2.1.9-3.1 1.2-1.6 1.3-1.4.9 1.8-.2 2-.8 3.6-1.3 3.6-.4 0-.9 3-1.1 6.7-.3 6.7-.3 6.7-3.5 7.4-4.2.8-8.3 3.5-8.3 5.5 0 2.9 3.1 7.4 6.1 9 2.8 1.4 3.4 1.4 7.1-.1 4.4-1.7 4.9-1.6 16.9 5.3 9.6 5.5 9.7 5.6 10.6 9.7.6 3.2 1.5 4.4 4.6 6 3.8 2 3.8 2 5.7-.3s1.9-2.3 9.7 1.7c17.9 9.3 21.3 11.8 21.3 16.1 0 2.4.8 3.5 4.1 5.5 4.4 2.9 7.4 2.6 8.2-.7.6-2 .8-1.9 7.4 1.7 3.7 2.1 10.5 5.8 15 8.3 7.6 4.2 8.2 4.7 8.8 8.4.6 3.1 1.5 4.4 5.3 7 4.5 3.1 4.5 3.1 6.3 1 .9-1.2 2.6-2.2 3.6-2.2 1.6 0 17.3 8.2 24.9 12.9 1.1.8 2.8 3.6 3.8 6.3 2 5.7 6.7 9.4 9.8 7.7 1.8-1 5.8 1.4 12.3 7.4 7.1 6.6 6.8 6.6 24 6.8 11.2.1 16-.2 16.3-1s-4.1-1.1-15.7-1.1h-16l-6.8-5.7c-3.7-3.2-7.8-6.7-9-7.7-1.3-1.1-2.3-2.7-2.3-3.5 0-.9-.7-3.4-1.4-5.6-1-2.8-1.3-6.4-.9-12 .5-6.6 1-8.5 2.9-10.6 3.8-4 2.8-10.3-2.1-13.5-2.1-1.3-3.1-1.5-5-.6-5.5 2.5-10-3.2-5.7-7.1 2.5-2.3 4.6-2.1 10.9 1 7 3.3 10.9 7.3 12.5 12.4 1.4 4.7.4 7.2-3.1 7.7-2.6.4-2.8 2.2-.2 2.2 1.1 0 2.9-1.2 4.1-2.7 2.5-3.2 2-6.9-1.6-12.5-2.5-3.9-12.6-10.5-17.5-11.5-3.3-.6-7.9 1.9-7.9 4.2 0 2.1-.8 1.9-4.2-1-3.6-3.1-4.1-3.1-7-.1-1.3 1.3-4.3 2.8-6.7 3.4-3.7.9-4.9.8-8-.9-2-1-3.9-1.9-4.4-1.9-1.5 0 .5 2.1 2.9 3 2.3.9 3.4 4 1.4 4-2.2 0-6-2.4-6-3.9-.1-2.8-3.7-9.8-7.2-13.7-1.9-2.2-4-5.4-4.7-7.3-.6-1.9-1.9-4.3-2.8-5.3-2.1-2.4-6.5-2.3-8.7.1-1 1.1-3.2 2.3-5 2.7-1.7.3-4.3 1.4-5.9 2.2-2.5 1.5-2.9 1.5-5.4 0-1.6-1-3.5-3.8-5-7.6-2.4-5.8-7.2-12.2-9.3-12.2-.6 0-1-.9-1-1.9 0-1.1-1.5-3.6-3.4-5.6-3.1-3.2-3.6-3.5-6-2.4-1.4.7-2.6 1.6-2.6 2.1 0 .4-1.5.8-3.2.8-1.8 0-4.7.8-6.4 1.9-4 2.4-5.6 1.2-8.3-6-1.4-3.6-3.4-6.6-6.1-8.9-2.2-1.9-4-4.3-4-5.4 0-1-1.1-3.4-2.4-5.1-2.1-2.7-2.3-3.7-1.6-6.1 2.1-6.4 2.1-6.4 4.6-5.8 2.9.7 4.3-1.8 2.4-4.1-1.8-2.2-.4-3.1 1.7-1.3 3.5 3 8.5 5 9.6 3.9.6-.6 1.8-1.1 2.6-1.1 1.1 0 1.1.4-.3 1.9-1.1 1.2-1.5 2.7-1.1 4 .6 2.1 3.8 3.6 5.5 2.6.5-.3 1-.1 1 .5s1.4 2.3 3 3.7c3.5 2.9 7 9.2 7 12.5 0 1.5 1.2 3.1 3.3 4.5 4.1 2.8 4.1 2.8 7.2-.2 2-2.1 3.1-2.5 5.8-2 2.6.5 3.6.2 5.5-1.9 1.2-1.4 2.7-2.6 3.4-2.6.6 0 .3.6-.8 1.4-1.8 1.4-1.8 1.7-.3 4.3 1 1.8 2.3 2.8 3.7 2.7 1.2 0 2.2.4 2.2.9s1.8 3 4.1 5.5c2.2 2.6 4.5 6.5 5.2 8.9.9 3.6 2 4.9 5.8 7.4 4.7 3 4.7 3 7.3.4 1.7-1.7 3.6-2.6 5.4-2.5 5.1.4 6 0 7.2-3 .7-1.7 1.7-3 2.2-3 .6 0 .5.6-.2 1.5-.7.8-1 2.5-.6 3.9.7 2.9 4.4 4.5 5.7 2.5.6-1 .9-.6.9 1.3s1.2 3.8 3.5 5.9c2.2 2 4.3 5.5 5.7 9.1 3.1 8.5 8.5 12 12.3 7.8.9-1 3.7-2.2 6.2-2.6 2.4-.3 5.3-1.5 6.3-2.6 1.7-1.9 1.8-1.9 2.4.6.7 2.7 4.2 4.4 5.9 2.7 1.5-1.5-1.1-6.1-3.5-6.1-1.1 0-1.6-.5-1.3-1 1.2-1.9 4.4.9 6.7 5.8 2.4 5 3.3 5.3 10.2 3.6 3.6-.9 5.6 1.4 5.6 6.3 0 2.6-.5 3.6-2.3 4.2-3.9 1.5-4.8 3.3-3.6 7.6.7 2.6.8 4.5.1 6-.6 1.3-.8 4.1-.5 6.4.5 3.3.3 4.1-1.1 4.1-2 0-2.2 4.3-.1 6 .8.6 2.3.9 3.4.5 1.6-.5 2-.3 1.5 1-.4 1-1.6 1.5-3.3 1.3-2.1-.2-3.2-1.5-5.6-6.2-2-4-4.1-6.6-6.2-7.8-4.1-2.2-4.4-.5-.3 1.9 1.8 1 3.6 3.4 4.6 5.9 2.2 5.7 5.4 8.6 9 8.2 2.8-.3 2.9-.5 2.9-5.3l-.1-5.1 57.6.3c31.6.2 61.3.5 66 .6l8.5.2.3 17.7.2 17.8h-12.9l-.3-6.8-.3-6.7-44.2-.3-44.3-.2v11.9c0 12 0 12 3.3 12.6 1.7.3 21.7.4 44.2.3l41-.3.3-4.2c.3-4.2.3-4.2 7.5-4.5l7.2-.3.3-9.8.3-9.8 11.7.1c6.4.1 12.7.1 14 .1 2.2-.1 2.2-.1 2.2-20.1v-20h-26.9l-.3-5.3-.3-5.2-43.4-.8c-23.9-.4-44-.6-44.8-.3-1.1.4-1.3 3.1-1.1 12.3l.3 11.8 9 .6c5 .4 25.2.6 45 .5l36-.1-.3-5.8-.4-5.7H886v36h-25.9l-.3-8.8-.3-8.7-67.4-.6c-65.1-.5-67.4-.6-68.8-2.5-.9-1.2-1.1-2.8-.7-4.4.4-1.4.7-4.9.5-7.8-.2-4.7 0-5.3 2.4-6.4 2.9-1.3 4-4.5 3.1-9-1-5.1-6.1-7.4-10.5-4.6-2.6 1.6-4.8.4-5.6-3-.6-2.7-3.2-5.8-6.3-7.7-.9-.5-2.5.5-4.7 2.9-2.3 2.6-4.1 3.6-6.2 3.6-1.7 0-4.7 1.1-6.7 2.5-3 2.1-4 2.3-6 1.3-1.4-.6-3-2.5-3.6-4.2-2.3-6.4-5.5-11.9-7.7-13.3-1.5-1-2.3-2.5-2.3-4.5 0-8.3-9.6-14.4-11.4-7.3-.6 2.2-1.2 2.5-4.7 2.5-2.5 0-5.2.8-7 2.1-2.9 2-3 2-6.2.2-2.2-1.3-3.7-3.4-5-6.8-1-2.6-3.2-6.6-4.9-8.8s-3.3-5.3-3.5-7c-.4-3.5-4.8-8.7-7.3-8.7-.9 0-2.6 1-3.8 2.3-1.7 1.8-3 2.2-5.3 1.9-2.1-.3-4 .2-6.1 1.8-2.5 1.8-3.4 2-5.4 1.1-1.4-.6-2.4-1.9-2.4-3.1 0-3.1-4.6-11.5-7.5-13.8-1.4-1.1-2.5-3-2.5-4.2 0-2.8-3.5-7.7-6.1-8.5-1.1-.4-2.6-.1-3.4.5-1.2 1-2.8.4-8.3-2.9-7.7-4.7-7.3-4.5-9.4-2.9m1.2 2.2c0 .3-.5.8-1.2 1.2s-.8.3-.4-.4c.7-1.2 1.6-1.6 1.6-.8m3.6 5.3c-.4.4-1.1.1-1.6-.7-1.6-2.5-1.1-3.5.7-1.7.9.9 1.3 2 .9 2.4m18.2 5.2c.3.8-.1 1.2-.9.9-.7-.2-1.5-1-1.7-1.7-.3-.8.1-1.2.9-.9.7.2 1.5 1 1.7 1.7M547 738c1.9 1.7 4.5 3 5.8 3 2.1 0 2.3.2 1.2 1.5-1.8 2.1.2 6.5 3 6.5 4.3 0 12.8 8.8 13.6 14.1.5 2.7 1.5 4.6 3.4 5.9 3.4 2.4 4.7 2.5 6.6.5.9-.8 2.7-1.5 4.2-1.5s4.2-.9 6-2 3.4-2 3.5-2 .2 1.4.2 3.1c0 1.8.6 3.5 1.5 3.9.8.4 3.2 1.6 5.4 2.6 4.2 2.1 7.9 7.1 9.8 13.5 2 6.6 8.7 9.8 13.2 6.4 1.1-.8 3-1.5 4.2-1.5 1.3 0 3.5-1.1 5-2.5 2.9-2.7 5.4-3.4 3.4-1-1 1.2-.9 2 .4 4 .9 1.4 2.4 2.5 3.4 2.5 4.2 0 14.1 12.7 14.2 18.2 0 1.8 4.9 5.8 7.1 5.8.7 0 2-.6 2.8-1.3.9-.7 4.2-2.1 7.3-3.1 3.3-.9 6.4-2.6 7.3-3.8.8-1.2 1.8-1.8 2.2-1.4.5.5.2 1.1-.4 1.3-2.1.8-1.5 5.1.9 6.8 2.1 1.4 2.4 1.4 3.5 0 1-1.5 1.5-1.4 5.2.5 3.3 1.6 4.6 1.8 6.2.9 2.6-1.3 3.6-.5 1.9 1.6-1 1.2-.9 2 .5 4.1 1.3 2.1 2.2 2.5 4.3 1.9 2.7-.6 2.7-.6-.6 2.7-3.2 3.4-3.2 3.6-3.4 13.6-.1 6.5-.6 10.2-1.2 10.1-2.8-.3-3.6.3-3.6 2.6 0 3.4 3.8 5.5 5.7 2.9 1.2-1.6 1.3-1.6 1.3.8 0 1.5-.7 2.9-1.7 3.3-2.3.8-7.3-4.6-7.3-7.8 0-2.1-4.6-7.7-6.3-7.7-.3 0-3-1.4-5.9-3.1-8.3-4.9-18.1-9.9-19.5-9.9-.6 0-1.8.9-2.7 2.1-2.7 3.8-8.7-.3-9-6.2-.1-2.5-.9-3.7-3.1-4.9-1.7-.9-5.5-3-8.5-4.7-3-1.6-9.1-4.9-13.4-7.3-7.9-4.3-7.9-4.3-9.7-2.2-.9 1.2-2.3 2.2-3.1 2.2-.9-.1-.7-.5.5-1.4 1.5-1.2 1.6-1.8.6-3.9-2.3-5-6.5-4.5-5.5.6.4 2.1.3 2.8-.3 2.2s-1.4-2.8-1.8-4.9c-.8-3.7-1.4-4.2-12.1-10.2-6.3-3.5-13.4-7.3-16-8.5-2.5-1.3-5.7-3.4-6.9-4.8-2.3-2.6-2.3-2.6-4.3-.2-2 2.3-2 2.3-2 0 0-2.7-3.3-5-16.6-11.8-7.1-3.6-8.4-4-11.4-3.1-5.4 1.5-6.2 1.4-4.8-1 1-1.6.9-2.4-1-4.9-2.4-3.3-2.2-3.5 2.6-4.6 3-.6 3.2-.9 3.2-5 0-4.9 1.8-9 4-9 1.9 0 2.5-4.1 1-6.1-2.3-2.7 2.3-1.5 6 1.6m-7 0c0 .5-.4 1-1 1-.5 0-1-.5-1-1 0-.6.5-1 1-1 .6 0 1 .4 1 1m18 8.2c0 1.3-2.3.5-2.8-1-.2-.7.2-1 1.2-.6.9.3 1.6 1.1 1.6 1.6m63.7 9.4c-.9.9-2.8-.6-2.1-1.8.4-.6 1-.6 1.7.1.6.6.8 1.3.4 1.7m-91.9 9c-1 1-2.8-.6-2.8-2.4 0-1.5.1-1.5 1.7.1.9.9 1.4 1.9 1.1 2.3m-3.8-1.1c0 .3-.2.5-.5.5s-.5-.2-.5-.5.2-.5.5-.5.5.2.5.5m72 5.1c0 .8-.4 1.2-1 .9-.5-.3-1-1-1-1.6 0-.5.5-.9 1-.9.6 0 1 .7 1 1.6m66.8 10.3c.3.8-.1 1.2-.9.9-.7-.2-1.5-1-1.7-1.7-.3-.8.1-1.2.9-.9.7.2 1.5 1 1.7 1.7m-94.8 5.6c0 .8-.4 1.5-1 1.5-.5 0-1-.7-1-1.5s.5-1.5 1-1.5c.6 0 1 .7 1 1.5m.5 3.8c1.5.4 1.4.5-.7.6-1.9.1-3.1-.6-3.9-2.2-1.1-2.1-1.1-2.1.7-.6 1 1 2.8 1.9 3.9 2.2m70.5 3.3c0 .8-.4 1.2-1 .9-.5-.3-1-1.3-1-2.1s.5-1.2 1-.9c.6.3 1 1.3 1 2.1m66.9 10c.3 1.6.1 1.7-1.3.5-1.9-1.6-2.1-3.4-.3-2.9.6.3 1.4 1.3 1.6 2.4m-96.5 7c.4 1 .1 1.4-.6 1.2-1.5-.5-2.3-2.8-1-2.8.5 0 1.3.7 1.6 1.6M858 820.7v10.6l-20.7-.6c-11.5-.4-30.4-.7-42-.7H774v-20h42l42 .1zm-174-6.2c0 .8-.4 1.5-1 1.5-.5 0-1-.7-1-1.5s.5-1.5 1-1.5c.6 0 1 .7 1 1.5m18.4 8.1c.9 2.4.7 2.8-.9 1.4-1.7-1.4-2-3-.6-3 .5 0 1.2.7 1.5 1.6m19.6 20.9c0 .8-.4 1.5-1 1.5-.5 0-1-.7-1-1.5s.5-1.5 1-1.5c.6 0 1 .7 1 1.5m-22.3 14.1c-.9 1-3.8-1.6-3.1-2.8.4-.6 1.3-.4 2.2.6.9.8 1.3 1.9.9 2.2m142.1 18.1.3 10.3-29.8-.4c-16.4-.2-35.1-.5-41.5-.5L759 885v-8.4c0-4.6.3-9.2.6-10 .6-1.5 4.9-1.6 41.3-1.4l40.6.3z"/><path d="M541.2 748.2c-3.1 3.1.2 13.8 5.7 18.5 3.7 3.3 13.5 8.3 16.1 8.3 8.4 0 6.3-15.2-2.9-21.3-9.4-6.3-16.2-8.2-18.9-5.5m13.5 4.6c9.6 5.9 11.8 9.2 11.1 16.3-.2 2.6-.8 3.5-2.4 3.7-2.1.3-12.3-4.7-15.8-7.7-4-3.5-7.1-13.2-4.9-15.4 1.6-1.6 6.3-.4 12 3.1M584 770.8c-4.2 3.4-2.3 12.7 3.7 18.4 4 3.8 12.8 8 16 7.6 3.7-.4 5.8-4.3 4.9-9-1.1-6.2-4.6-10-13.1-14.5-4.4-2.3-8.3-4.2-8.6-4.3-.4 0-1.7.8-2.9 1.8m12.9 5.9c7.1 4.2 8.9 6.4 9.8 11.7.6 4-.9 6.6-3.9 6.6-3.4 0-11.5-4.9-15.2-9.1-2.9-3.4-3.6-5.1-3.6-8.5 0-6.6 2.7-6.8 12.9-.7M627.9 795.8c-3.8 3.2-2.6 10.8 2.8 16.8 2.4 2.7 13.1 8.4 15.8 8.4 3.1 0 5.5-3.1 5.5-7.1 0-3.6-5-12.9-6.9-12.9-.6 0-3.2-1.3-5.9-2.9-7-4.1-8.6-4.4-11.3-2.3m10.2 3.9c2.5 1.6 5.4 3.3 6.4 3.9 3 1.7 5.6 7.3 5.3 11.3-.3 3-.7 3.6-2.8 3.8-3.6.4-14.1-5.6-16.7-9.6-1.5-2.2-2.3-4.9-2.3-7.7 0-4.1.2-4.4 2.8-4.4 1.5 0 4.8 1.2 7.3 2.7M670.3 819c-3.2 1.3-3.8 6-1.5 11.2 2.4 5.3 4.2 7 12.6 11.3 8 4.2 11 4.4 13.2 1 1.5-2.2 1.5-3.2.4-6.8-1.8-6.2-4.4-9.3-11.2-13.2-6.8-4-10.2-4.9-13.5-3.5m10.5 3.9c8.9 4.5 14.2 11.8 12.8 17.6-.9 3.7-4.7 3.2-13.4-1.6-6.3-3.5-7.7-4.7-9.4-8.6-2.8-6.4-1.8-9.4 3.5-10.2.4 0 3.3 1.2 6.5 2.8M651.5 829c-1 1.6.4 4.9 2.6 6 3.9 2.2 5.3-1.6 1.9-5-2.2-2.2-3.6-2.5-4.5-1m4.3 4.6c-1 1-2.8-.6-2.8-2.4 0-1.5.1-1.5 1.7.1.9.9 1.4 1.9 1.1 2.3M782.8 811.7c-.3.4-.6 4.3-.7 8.6-.2 6.9 0 7.8 1.5 7.5s1.7-1.4 1.5-7.8c-.2-6.9-1.2-10.4-2.3-8.3M793 812.5c-.7.9-1 1.9-.6 2.2.4.4 1.1.1 1.6-.7.8-1.2 1-1.2 1.6.3.3.9 0 2.5-.7 3.4-1.1 1.3-1.1 1.7-.1 2 1.3.5 1.7 5.3.4 5.3-.4 0-1.3-.5-2-1.2-.9-.9-1.2-.7-1.2.9 0 2.5 1.8 3.4 4.3 2.1 1.5-.8 1.7-1.9 1.3-7.3-.6-8.5-1.8-10.4-4.6-7M815.5 817c-2.6 5.1-2.5 7.6.1 6.6 1-.4 1.4.2 1.4 1.9 0 3.6 2.7 3.1 3.2-.5.3-1.7.1-3.3-.3-3.5-.4-.3-.5-2.2-.2-4.4.8-5.9-1.2-5.9-4.2-.1m1.2 3.7c-.4.3-.7 0-.7-.7s.3-1 .7-.7c.3.4.3 1 0 1.4M825 813.9c-.5 1.1-1 3.8-1 6.1 0 7.4 3.8 10.7 6.2 5.5 1.3-3-.3-7.5-2.7-7.5-.8 0-1.5-.6-1.5-1.4 0-1.9 1.7-2.9 2.5-1.6.9 1.5 2.5.2 1.8-1.5-.8-2.1-4-1.8-5.3.4m3.8 8.6c-.2 1.4-.7 2.6-1.3 2.6-.5 0-1.1-1.2-1.3-2.6-.2-1.8.1-2.5 1.3-2.5s1.5.7 1.3 2.5M836.2 813.2c-1.3 1.3-1.6 3.8-.6 3.8.4 0 1.3-.8 2-1.8 1.2-1.5 1.3-1.4 1.4 1.3 0 1.7-.6 3.9-1.4 5-.7 1.1-1.7 3-2.1 4.3-.6 2.2-.4 2.3 2.7 2q3.3-.3 3.6-2.1c.3-1.5 0-1.8-1.7-1.2-2.6.8-2.6.8-.1-4.3 1.6-3.3 1.8-4.7 1-6.2-1.2-2.3-3-2.6-4.8-.8M802 820c0 .5 1.6 1 3.5 1s3.5-.5 3.5-1c0-.6-1.6-1-3.5-1s-3.5.4-3.5 1M767.9 866c0 .3-.1 4.2-.2 8.8-.2 6.7.1 8.2 1.3 8.2s1.4-1.4 1.2-7.7c-.2-4.3-.8-8.2-1.3-8.8-.5-.5-.9-.7-1-.5M777.4 867.4c-1.5 1.2-1.7 1.7-.6 2.7.9 1 1.2 1 1.2.1 0-.7.5-1.2 1-1.2 1.4 0 1.2 3.7-.2 4.3-.9.3-.7.9.6 1.9s1.6 2.1 1.2 3.6c-.8 2.5-2.6 3-2.6.7 0-.8-.5-1.5-1.1-1.5-1.6 0-.7 3.1 1.3 4.4 2.2 1.4 4-.3 3.9-3.5 0-1.3 0-4.3-.1-6.5 0-5.1-1.8-7-4.6-5M801.4 868.2c-4.5 6.3-5.2 10.8-1.8 10.8 1.1 0 1.5.6 1.1 2s0 2 1.3 2c1.6 0 1.7-.8 1.3-7.8-.3-4.2-.6-7.8-.8-8-.1-.1-.6.3-1.1 1m-.8 8.5c-1.1 1.1-1.7-.4-.9-2.3.7-1.8.8-1.8 1.1-.1.2 1 .1 2.1-.2 2.4M809 868.9c-1.1 2.1-1.4 10-.4 12.5.3.9 1.6 1.6 2.9 1.6 1.7 0 2.4-.7 2.8-2.7.6-3.5-.8-7.3-2.8-7.3-.8 0-1.5-.9-1.5-2 0-2.2 1.6-2.7 2.3-.8.2.7.8 1 1.2.6 1.1-1.1-.2-3.8-1.9-3.8-.9 0-2 .9-2.6 1.9m3.8 8.8c-.4 3.9-2.8 4.2-2.8.4 0-2.1.5-3.1 1.6-3.1s1.4.8 1.2 2.7M819.2 869.5c-.8 1.6-.8 2.6-.1 3.1.6.3 1.3-.3 1.6-1.5s.9-2.1 1.4-2.1c1.6 0 .9 3.9-1.5 9-2.4 5-2.4 5 .9 5 3.5 0 5.1-1.2 4-3-.5-.8-1.1-.7-2.1.1-2 1.6-1.9-.8.2-5 1.9-3.9 1.2-8.1-1.5-8.1-1 0-2.3 1.1-2.9 2.5M831.2 870.2c-.6 1.8-1.3 4.6-1.7 6.3-.3 1.6-.8 3.8-1.1 4.7-.4 1.2 0 1.8 1 1.8s1.3-.6.9-1.6c-.6-1.6 1.5-3.7 2.9-2.8.4.3.8 1.4.8 2.5s.7 1.9 1.6 1.9c1 0 1.4-.6 1-1.8-.3-.9-1.2-4.4-2.1-7.6-.8-3.2-1.7-6.1-1.9-6.3s-.9 1.1-1.4 2.9m1.5 5c-.3.8-.6.5-.6-.6-.1-1.1.2-1.7.5-1.3.3.3.4 1.2.1 1.9M787 875c-1.1.7-.5 1 2.3 1 2 0 3.7-.5 3.7-1 0-1.3-4-1.3-6 0M550.8 732.1c-2.8 1.6-2.1 3 .7 1.7 1.4-.6 2.5-1.5 2.5-2 0-1.1-1.1-1-3.2.3M565.3 735.6c-2.2 2.2-2.4 3.1-1.9 6.6 1.1 7 6.4 13 15.2 17.3 7.3 3.6 9.9 3.3 12.3-1.3 1.8-3.5-.6-9.9-5.6-15-2.3-2.3-4.7-4.2-5.3-4.2s-3.1-1.4-5.5-3c-5.3-3.7-5.9-3.7-9.2-.4m13.8 5.5c7.4 5 10 9 9.7 14.4-.4 5.2-2.2 5.5-10.1 1.5-7.7-3.9-12.3-8.8-13.2-14.1-1.4-8.2 3.3-8.8 13.6-1.8M377 743.6c0 .5.7 1.9 1.5 3 .8 1 1.5 3.1 1.5 4.6 0 3.6 2 4.7 2 1.1 0-1.5.9-3.9 2-5.3 2.1-2.7 2.5-4 1.2-4-.5 0-1.4 1.2-2.1 2.7-1.2 2.7-1.2 2.7-3.6-.3-1.3-1.6-2.4-2.4-2.5-1.8M388 749c0 5.9 0 6 2.9 6 3.7 0 5.1-1.7 4.8-6-.3-4.8-1.3-6-4.8-6-2.9 0-2.9 0-2.9 6m5.8-2.8c-.3.7-1.3 1.3-2.3 1.3s-2-.6-2.2-1.3c-.3-.7.5-1.2 2.2-1.2s2.5.5 2.3 1.2m.2 5.3c0 .9-.9 1.5-2.5 1.5s-2.5-.6-2.5-1.5.9-1.5 2.5-1.5 2.5.6 2.5 1.5M407.7 744.1c-2.2 1.3-2.3 7.4-.2 9.6 1.8 1.8 4.5 1 5.2-1.5.3-1.4 1.2-1.7 3.4-1.4 1.7.3 2.9 0 2.9-.7 0-.6-1.3-1.1-3-1.1-2.3 0-3-.4-3-2 0-2.5-3-4.1-5.3-2.9m3.8 4.9c0 2.5-.5 3.6-1.7 3.8-1.5.3-1.8-.4-1.8-3.8s.3-4.1 1.8-3.8c1.2.2 1.7 1.3 1.7 3.8M429.7 744.8c-2.2 2.4-2.1 6.5.1 8.5 2.3 2.1 2.9 2.1 4.8.3 2-2 1.8-7-.4-8.9-2.3-2.1-2.5-2.1-4.5.1m4.1 4.5c.3 3.2 0 3.7-1.7 3.7-1.8 0-2.1-.6-2.1-4.1 0-3.3.3-4 1.8-3.7 1.2.2 1.8 1.4 2 4.1M438.8 744.1c-3.3 1.9-1.5 10.9 2.1 10.9 2.9 0 4.4-8.3 1.9-10.8-1.4-1.4-1.8-1.4-4-.1m4 4.3c.4 3.6-1.1 5.4-3.3 3.6-1.5-1.3-2-5.1-.8-6.4 1.5-1.5 3.8 0 4.1 2.8M446.5 744.6c-.9.9-1.3 1.9-.9 2.3.4.3.9 0 1.1-.7.6-1.5 2.9-1.6 3.9-.1.3.6-.9 2.3-2.7 3.8-1.9 1.6-2.9 3.2-2.5 3.9.9 1.5 6.6 1.6 6.6.2 0-.6-1.2-1-2.6-1-2.6 0-2.6 0 .5-2.9 3.6-3.4 3.6-3.4 1.5-5.5-2-2-2.9-2-4.9 0M369.1 745.4c-1.8 2.1.4 6 3 5.3 1.3-.3 1.9 0 1.9 1 0 1.1-.7 1.4-2.4 1.1-1.7-.4-2.3-.1-1.9.9.8 2.2 3.9 1.5 5.3-1.2 2.7-5.1-2.5-11.3-5.9-7.1m4.7 1.9c.2 1.2-.3 1.7-1.7 1.7-1.5 0-2.1-.6-2.1-2.1 0-2.5 3.3-2.2 3.8.4M400 745c-1.3.8-1.3 1.1-.1 1.9.8.5 1.2 1.8.9 2.9s-.2 2.6.3 3.3c.6.9.9-.5.9-3.9 0-2.8-.1-5.2-.2-5.2-.2 0-1 .5-1.8 1M422 745.1c-1.2.8-1.2 1.2-.2 1.6.6.2 1.2 2 1.2 3.9s.5 3.4 1 3.4c1.2 0 1.4-8.7.2-9.4-.4-.2-1.4 0-2.2.5M525.5 746.3c-2.7 1.5-3.5 2.3-2.3 2.5 1.8.3 7.3-2.1 8.3-3.8 1-1.6-1.7-1-6 1.3M514.5 752.5c-2.2 1.3-5.3 3-7 3.8-1.6.8-3.9 2.2-5 3.1-3.3 2.5.6 2 4.6-.7 1.9-1.2 5.5-3.2 8.2-4.5 2.6-1.3 4.7-2.8 4.7-3.3 0-1.4-1.2-1.1-5.5 1.6M482 756.7c-3.8 1.4-6 4.7-6 8.9 0 2.4.5 4.6 1 4.9.6.4 1-.9 1-3.2 0-4.7 2.3-8.3 5.4-8.3 3.8 0 27 13.5 26 15.1-1 1.7-3.5.9-10.7-3.3-18.3-10.5-18.7-10.7-18.7-8.8 0 .5.4 1 1 1 .5 0 6.8 3.5 13.9 7.7 14 8.4 12.9 7.2 16.4 19.3.5 1.9 1.3 4.3 1.8 5.2.5 1 .9 2.6.9 3.6 0 1.1.9 2.7 2 3.7 2.5 2.2 6.5 1.5 14.9-2.5 7.1-3.5 7.7-3.5 12-1.4 3.9 2 5.3 4 8.6 12.9 4 10.8 5.5 13.6 7.7 14.4 2.1.7 5 .3 18.1-2.5 6.7-1.4 6.8-1.4 11.1 1.1 4.1 2.4 4.7 3.2 9 14.4 3.6 9.1 5.2 12 6.8 12.4 1.9.5 5.7-.5 13.3-3.8 6.5-2.8 7.4-2.7 12.3.1 2.6 1.6 6.1 3.6 7.7 4.5 1.7.9 4.2 3.6 5.7 6 2.5 4.2 2.6 5.1 2.7 18 .1 13.7.1 13.7-2.8 14.9-3.9 1.6-8 .6-15.4-3.8l-6-3.5 4.7-2.4c6-3 7.3-6.1 5.1-11.8-1.4-3.5-2.8-4.7-11.8-10-5.6-3.3-10.9-6.1-11.7-6.3-2-.3-8 5.4-8 7.6 0 1.8-3.4 4.5-4.4 3.5-1.1-1.1-.6-2.3.9-2.3 2 0 1.9-1.6-.2-2.4s-3.5 1.2-2.8 4.1c.3 1.5.1 2.3-.7 2.3-1.6 0-9.7-4.9-8.2-5 .6 0 2.9-1.7 5.2-3.8 8.6-7.9 4.6-13.4-18.4-25-4.1-2.1-4.1-2.1-7.7.4-2.5 1.7-3.9 3.6-4.7 6.4-1.5 5.6-3.5 5.7-12.4.9-4.2-2.2-7.6-4.2-7.6-4.3 0-.2 2.3-1.7 5.1-3.5 5-3.1 5.1-3.3 4.4-6.7-.3-2-1.2-4.5-1.8-5.6-1.4-2.4-11.1-8.8-13.3-8.8-2.4 0-.9 1.4 4 4 4.2 2.1 5.9 4 3.8 4-1.5 0-12.2-6.1-12.2-7 0-.4.8-1.1 1.7-1.4 1.4-.6.8-1.2-2.7-3.2-4.3-2.4-4.6-2.5-7.7-1-1.8.9-4.1 2.9-5.1 4.5-1.3 2.1-2.2 2.7-3.3 2.1-2-1.1-3.6 0-4 2.7-.4 2.2-.4 2.2-3.7.1l-3.4-2.1 3.3-1.4c1.8-.8 3.6-1.7 3.9-2.2.3-.4 1.3-1 2.2-1.4 2.3-.8 3.2-4.6 1.9-8-1.1-3-4.5-5.4-17-12.8-8.8-5.1-9.7-5.2-14.4-1.1-.9.8-1.9 1.3-2.1 1.1s-.6-3-.7-6.3c-.3-6.3.9-8 5.4-7.4 1.7.2 2.3-.3 2.5-2 .8-5.2-5.1-7.3-6.1-2.2-.4 1.9-1.7 3.4-3.6 4.4-3.9 2.1-5 3.9-1.9 3.1 2.2-.6 2.3-.4 1.9 4.7-.2 2.9.2 7.6.9 10.5 1.1 5.2 1.1 5.4-1.6 8.6-3.9 4.6-7.4 13-8 19.6-.7 5.8 1.5 16 3.9 19 .9 1 .7 1.6-.8 2.7-1 .8-1.6 1.7-1.2 2 .3.3 2-.4 3.6-1.6 3.2-2.2 4.1-3.6 1.7-2.7-2.5 1-5.1-7.8-5-17.3.1-7.1.5-9.3 2.7-13.5 2.8-5.4 9.9-13.5 11.9-13.5.7 0 3.6 1.1 6.4 2.4 8.5 4 10.5 9 6.1 15.6-3.2 4.8-4.6 9.1-3.9 12.5.3 2 0 3.2-1.3 4.1-2.9 2.1-1 2.7 2.5.9 2.4-1.2 2.9-2 2.1-2.8-1.7-1.7-1.3-7.9.6-10.7.9-1.4 1.7-2.6 1.8-2.8.6-.8 9.5 5.2 9.5 6.3 0 .8-.9 2.9-2 4.7-1.1 1.9-2.6 6-3.3 9.2l-1.3 5.9-2.9-4.6c-3.4-5.4-5.4-5.3-2.3.1 3 5.2 5.2 7.6 13.8 14.5 9.2 7.5 13.2 11.7 22.1 23.1 8.3 10.6 9.4 13 10.1 21.7.5 6.6.5 6.6-2.2 5.3-2.1-1.1-3.4-1.2-5.9-.3-5 1.7-11.4-.4-13.3-4.4-3.6-7.4-14.8-20.3-29.9-34.2-5.2-4.8-10.4-11-15.6-18.4-.2-.2-.6-.2-.9.2-1.3 1.3 6.8 11 21.6 25.7 8.6 8.5 16.8 17.4 18.4 19.6 2.7 4.2 2.7 4.2.8 7.7-1.9 3.6-1.9 9.7 0 9.7.6 0 .7-1.1.4-2.4-.5-2-.1-2.4 2.5-3 1.7-.3 3.8-.2 4.7.3 1.3.8 1.2 1.1-.6 2.2-1.2.8-2.2 2.1-2.2 3s-.8 2-1.7 2.3c-1.5.6-1.5.8.3 1.9 1 .7 3.8 1.9 6.2 2.7 3.9 1.2 4.5 1.9 7.6 8.6 1.9 3.9 5.5 10.3 8 14 2.5 3.8 4.6 7.6 4.6 8.6 0 3.7 12.5 15.8 16.3 15.8.8 0 2.4 1.1 3.7 2.4 2.2 2.5 2.3 2.5 3.1 45.3.4 23.5.8 51.6.9 62.3 0 10.7.5 20.2 1 21 .7 1.2 4.6 1.6 20.7 2l19.8.5.3 9.7c.4 13 2.2 12.8 2.2-.2v-10l13.3-.2c7.2-.1 16.3-.1 20 .1l6.8.3-.3-16.3c-.2-12.3-.6-16.3-1.6-16.7-1.1-.3-1.3 2.6-1 14.9l.3 15.3-36.8.4c-20.3.2-37.9.1-39.2-.2-2.1-.5-2.3-1.3-3-10.2-.7-9.7-2.4-113.6-1.9-114.3.2-.2 1.9.4 3.8 1.3s3.7 1.6 4 1.6c.4 0 2.3.7 4.2 1.5 3.6 1.5 3.6 1.5 1.5 4.1-2.8 3.5-2.6 6.2.6 11.1 2.6 4.1 5.8 6.3 9.1 6.3.9 0 3.1 1.7 4.8 3.7 3.1 3.7 3.1 3.7 5.8 2 1.9-1.3 2.5-2.4 2.1-3.6-.5-1.5.2-1.9 3.7-2.4 8.3-1.2 21.9-4.6 23.5-5.8 3.4-2.9 3.5-5.8.3-10.4-1.6-2.4-3-4.6-3-4.9s-1.4-2.9-3.1-5.8c-1.8-2.9-4-6.7-5-8.5-3.6-6.3-6.4-10.3-7.9-10.9-.8-.4-3.9-1-6.9-1.3-5.2-.6-5.6-.8-8-5.1-2.8-4.8-5.1-10.7-5.1-13 0-1.7-5-7-6.6-7-.7 0-2.2-2.1-3.5-4.8-1.2-2.6-4.2-7.6-6.7-11.2l-4.4-6.5 5.9-.3c12.2-.5 30.1-6.6 36.2-12.4 2.2-1.9 2.2-1.9 9.9 2.7 11.9 7 14 7.4 21.5 4 3.4-1.6 6.8-3.4 7.5-4 .8-.8 1.5-5.1 1.9-12.4.6-11.3.6-11.3-2.8-17.7-3.6-7-5.8-9.1-16.1-14.7-5.4-3-7.1-3.5-9-2.8-1.3.6-5.6 2-9.7 3.2-8.6 2.6-7.5 3.5-13.1-10.1-4.4-10.8-4.1-10.3-10-13.4-5.8-3-7-3.1-19.1-1-8.2 1.4-9.3 1.4-11.5-.1-1.3-.8-2.4-2.2-2.4-3.1 0-.8-.8-3.2-1.9-5.3-1-2.2-2.4-5.9-3.1-8.3-1.1-3.7-2.1-4.8-6.2-7.1-2.6-1.5-5.7-2.7-6.8-2.7-1.8 0-7.4 1.8-12.5 4.1-1.1.5-3.8 1-5.9 1.1-3.9.3-4 .2-5.7-4.7-1-2.8-2.7-8.2-3.9-12.2-2.1-7.1-2.1-7.1-12.3-13.1-15.7-9.1-19.3-11.2-19.8-11.1-.2 0-1.1.3-1.9.6m2 12.7c0 .3-.4.8-1 1.1-.5.3-1 .1-1-.4 0-.6.5-1.1 1-1.1.6 0 1 .2 1 .4m29.7 9.7c.6 1.9 2.2 6.7 3.4 10.8 1.2 4 3 8.2 4 9.2 2.1 2.1.9 3.4-2.4 2.5-1.8-.4-2.7-1.9-4-6.8-1-3.5-2.3-7.9-2.9-9.8-1.9-6.6-2.2-10.3-.7-9.8.8.3 1.9 2 2.6 3.9m-16.1 12.5c9 5.4 11.6 7.4 9.7 7.4-.5 0-3.8-1.6-7.3-3.5-3.6-1.9-6.9-3.5-7.3-3.5-1.8 0 .6 2 5.7 4.8 2.9 1.7 6.1 3.8 7 4.7 2.2 2.3 2.1 7.2-.3 8.5-3.2 1.7-3.8 1.2-4.4-3.2-.3-2.5-1.5-5.1-3-6.6-2.8-2.7-11.6-6.2-15.9-6.2-3.1 0-3.3-.3-1.8-3.1 1.3-2.2 4.7-2.4 7.4-.4 2.3 1.8 3.6 1.9 3.6.5 0-.6-1.2-1.5-2.6-2-1.4-.6-2.2-1.4-1.9-2 .9-1.5.8-1.5 11.1 4.6M549 796c2.1 1.6 2.3 2 .8 2.5-2 .8-8.1-2.2-7.3-3.5 1-1.6 3.8-1.1 6.5 1m8 11.2c1.7 4.6 3.7 9.8 4.5 11.6 1.6 3.5 1.3 5.2-1 5.2-1.8 0-3.6-3.5-7.5-14.1-2.3-6.3-2.8-8.5-1.9-9.5.6-.8 1.5-1.4 1.9-1.4.5 0 2.2 3.7 4 8.2m-46.5-5.2c.9 2.7-.6 5-1.6 2.4-.4-1-.8-2.5-.8-3.2-.1-2 1.7-1.4 2.4.8m16.4 6.9c2.3 1.5-.3 2-2.9.5-2.2-1.2-2.3-1.3-.5-1.3 1.1-.1 2.6.3 3.4.8m-1.6 3.3c2.3 1.3 4.4 2.5 4.7 2.8s2.9 2.1 5.8 3.9c5.7 3.6 7.2 5.6 7.2 9.4 0 1.6-.8 2.8-2.5 3.5-3.4 1.6-3.2 1.7-3.9-2.2-.8-4.2-5.4-9.1-10.6-11.3-3.1-1.4-3.9-2.2-3.4-3.6.5-1.6.3-1.7-1.4-.8-4.2 2.3-7 .3-4-2.7 1.7-1.7 3.3-1.5 8.1 1m-13.3 4.4c0 .8-.4 1.2-1 .9-.5-.3-1-1-1-1.6 0-.5.5-.9 1-.9.6 0 1 .7 1 1.6m13.1 3.5c6.9 3.7 8.7 5.5 9.5 9.6.5 2.5.1 3.5-1.6 5-7.3 6.1-6.3 15.9 2.6 25.2 1.9 2 3.6 4.5 3.9 5.6.4 2.1 1.2 16.5.9 16.5-.1 0-1.8-2.2-3.8-5-6.6-9.2-17.5-20.7-25.1-26.6s-7.6-5.9-7.2-11c.6-8.8 8.3-21.9 13.1-22.3 1 0 4.4 1.3 7.7 3m57.4-.1c-.3.5-1.4 1-2.3.9-1.4 0-1.3-.2.3-.9 2.7-1.1 2.7-1.1 2 0m10.6.5c3.1 1.6 3.1 3.5 0 3.5-2.5 0-5.5-2.5-4.7-3.8.9-1.5 1.1-1.5 4.7.3m-47 3.2c.5 1.4.7 3.4.3 4.2-.5 1.3-.8 1.1-1.4-.9-1.7-5.5-.8-8.2 1.1-3.3m30.8-2.3c-1.1.9-6.9 1.5-6.4.6.3-.6 2-1 3.7-1s2.9.2 2.7.4m-8.2 1.3c-.4.3-1 .3-1.4 0-.3-.4 0-.7.7-.7s1 .3.7.7m35.3 12.8c2.3 5.8 5 10.9 5.9 11.4 1.3.8 1.1 1.1-1.2 1.6-3.3.9-5.6.1-6.3-2.2-.4-1-1.5-3.7-2.5-6-1-2.4-1.9-4.7-1.9-5.3 0-.5-.8-2.6-1.7-4.6-1.7-3.4-1.7-3.6.1-5 1-.7 2.2-1.1 2.6-.9.4.3 2.7 5.2 5 11m-28.5 1c3.3 1.9 7.5 4.3 9.3 5.2 1.7.9 3.2 2 3.2 2.5 0 1.6-3.1.8-7-1.8-2.2-1.5-4.4-2.3-4.8-1.9s.1 1.2 1.2 1.9c9.7 5.9 10.4 6.6 11.1 9.5.5 2.6.2 3.5-1.7 5.1-3.1 2.6-4.8 2.5-4.8-.3 0-3.1-3.3-8.2-6.7-10.4-1.5-1-3-2-3.3-2.3s-2.7-1.5-5.4-2.6c-5.3-2.1-6.1-3.1-4.7-5.3.8-1.3 1.8-1.1 5.9 1.2 5.3 2.9 6.2 3.2 6.2 1.9 0-.4-1.6-1.6-3.5-2.6-3.5-1.9-4.6-3.6-2.2-3.6.6 0 3.9 1.6 7.2 3.5m-33.4 3.1c11.1 6.1 10.8 5.6 6.2 10.8-2.2 2.5-4.5 6.3-5.3 8.5-.7 2.3-1.5 4.1-1.8 4.1-.2 0-2-1.7-3.8-3.7-4-4.4-7.4-10.9-7.4-14.4 0-2.6 3.4-8.9 4.9-8.9.4 0 3.7 1.6 7.2 3.6m93.6 4.6c3.2 1.7 6.6 3.7 7.6 4.4 1.8 1.2 1.8 1.3-.2 2.3-1.7 1-2.9.7-6.6-1.4-8.6-4.8-9.6-5.6-8.4-7.1 1.5-1.8.8-1.9 7.6 1.8m-66.9.4c6.2 3.1 11.2 8.7 11.2 12.6 0 1.6-.4 2.8-.8 2.8-1.3 0-4.6 3.1-6.5 6-1.3 2-3 2.8-8.1 3.8-3.6.6-8.2 2.1-10.2 3.3-3.8 2.1-8.9 6.9-9.7 9.2-1.1 3.1-2.2-1.3-2.2-9.1 0-7.5.4-9.5 2.8-14.4 1.7-3.4 4.8-7.4 8-10.2 2.8-2.5 5.7-5 6.2-5.6 1.6-1.5 3.8-1.1 9.3 1.6m23 5.7c.5 3.7-1.5 3.4-2-.3-.3-1.9-.1-2.9.6-2.7.6.2 1.2 1.6 1.4 3m58.2 5.1c2.4 4.8 2.2 7.6-.8 7.6-3.3 0-6.9-10.2-3.9-11.3 2.2-.9 2.3-.8 4.7 3.7m-25.3 9.2c2.7 1.6 4.5 4.4 2.8 4.4-.7 0-7.9-4.1-8.9-5.1-1.2-1.1-2.6-1.2-2.6-.2 0 .5 2 2.1 4.5 3.7 4.7 2.9 6.5 5.2 6.5 8.2 0 2.7-3 5.4-6 5.4-2.4 0-2.9-.5-3.4-3.5-.9-4.5-5.3-9.5-11.1-12.6-3.4-1.8-4.5-2.9-4.3-4.4.4-2.5 4-2.3 7.5.5 1.4 1.1 3 2 3.4 2 1.9 0 .7-1.6-2.7-3.8-1.9-1.2-3.2-2.7-2.9-3.2.4-.7 6.3 2.2 17.2 8.6m-39.7-.4c2.2 1.3 3.8 2.7 3.7 3.3-.2.5-3.4 1.4-7.1 1.9-8.6 1.2-10.2 0-5.8-4.3 3.6-3.7 4.2-3.7 9.2-.9m68.4 15c-.3 4.3-1 7.8-1.4 7.8-.5 0-1.5.3-2.4.6-1.4.5-1.6-.8-1.6-10.4 0-10.3.1-11.1 2.3-12.5 2.1-1.4 2.2-1.3 3 2.7.4 2.2.5 7.6.1 11.8m-45.6-11.5c8.5 6.3 10.3 11.3 5.8 15.8-6.9 6.9-25.7 12.3-38.1 11-4.8-.6-7.1-.3-9.8 1-3.8 1.8-5.7 4.5-3.2 4.5.8 0 1.5-.5 1.5-1 0-2.2 2.8-.8 4 2 .7 1.6 1.9 3.5 2.7 4.2s3.4 3.9 5.6 7.3c2.3 3.3 5.3 7.3 6.9 9 5 5.4 4.9 12.5-.3 18.8-1.7 2.1-4.4 4.4-6 5.3-2.8 1.4-3.1 1.4-5.8-.8-4.4-3.6-9-10.2-12.8-18.1-1.9-3.9-4.6-8.3-5.8-9.7-4.5-4.7-7.9-13.9-8.3-22-.4-7.1-.2-7.7 3-12.5 2.4-3.6 4.8-5.7 8.9-7.8 5.1-2.6 6.6-2.9 18-3.1 7.2-.2 13.7-.9 15.4-1.6 8.2-3.5 9.5-4.1 10-5.1.9-1.3 4.3-.2 8.3 2.8m22.7 7.1c-.6 1.6-.7 1.6-1.6 0-.5-.9-.6-2.4-.3-3.3.7-1.6.8-1.6 1.6 0 .5.9.7 2.4.3 3.3M518 898.5c0 .8-.4 1.5-1 1.5-.5 0-1-.7-1-1.5s.5-1.5 1-1.5c.6 0 1 .7 1 1.5m53-.6c0 .4 1.5 2.8 3.4 5.3 4.6 6 9.4 14.8 8.2 14.8-.2 0-2-2.5-4-5.4-2-3-4.2-6.1-4.9-6.8-3.9-4-5.9-8.8-3.7-8.8.6 0 1 .4 1 .9m-36 5.6c0 1.1-4 2.4-5.7 1.8-1.5-.6-1.3-.9 1.2-1.4 4.2-.9 4.5-1 4.5-.4m-5 6.6c0 3.2-1 3.5-5.9 1.8-2.2-.8-2.9-1.5-2.2-2.2s1.4-.7 2.4.1c1.6 1.4 2.7.6 2.7-1.9 0-1.2.5-1.6 1.5-1.3.9.4 1.5 1.9 1.5 3.5m6-1.6c0 1.4-.2 2.5-.4 2.5s-1.1.3-2 .6c-1.2.5-1.6 0-1.6-1.9 0-2.3 1-3.4 3.3-3.6.4-.1.7 1 .7 2.4m4 .1c0 .8-.4 1.4-1 1.4-.5 0-1-.9-1-2.1 0-1.1.5-1.7 1-1.4.6.3 1 1.3 1 2.1m1.7.1c-.4.3-.7 0-.7-.7s.3-1 .7-.7c.3.4.3 1 0 1.4m9.8 10.3c1.3 1.4 3.7 5.3 5.3 8.7 3 6.2 6.2 11.2 9.4 14.7 2.3 2.6 2.3 2.7-1 5.9-2.6 2.5-3.2 2.6-7.6 1.8-2.6-.5-5.9-1.9-7.3-3.2-5.4-5.1-18.3-26.6-18.3-30.6 0-1.9 4.2-3.7 8.3-3.4 3.6.2 3.7.1 3.7-3.1.1-3.3.1-3.3 2.6 1.7 1.4 2.7 3.6 6.1 4.9 7.5m38.5 9.3c0 .5-.4.5-1 .2-.5-.3-1-1.4-1-2.3 0-1.5.2-1.5 1-.2.5.8 1 1.9 1 2.3m3.9 7.3c.2 7.4-6.1 15.6-14.9 19.2-4.9 2.1-4.9 2.1-5.6 0-.4-1.5-.1-2.6 1.1-3.4.9-.7 1.4-1.7 1.1-2.2-.3-.6.1-1.2.9-1.5.9-.4 1.2-.1.8.9-1.1 3 2.3 1.2 7.3-3.9 4-4.2 5.4-6.5 6.4-10.8 1-4.2 1.5-5 2.1-3.4.4 1.1.8 3.4.8 5.1m-5.8.8c-1.1 2.5-2.2 4.6-2.5 4.6s.1-1.5.8-3.3c.8-1.7 1.7-4.1 2.1-5.1.3-1 .8-1.6 1.1-1.3s-.3 2.6-1.5 5.1M599 944c0 .4-.7 1.3-1.5 2s-1.5 2.2-1.5 3.3-.7 2.9-1.7 3.9c-2 2.2.1 2.5 2.4.3 1.4-1.4 1.7-1.2 3.2 1.7 1.5 3.1 5.1 5.1 5.1 2.9 0-.6-.6-1.1-1.4-1.1-1.6 0-3.1-3.4-2.1-5 1-1.5 3.2-1.2 3.9.6.9 2.4 1.9 1 1.1-1.5-.3-1.2-1.3-2.1-2.1-2.1-.9 0-1.2-.5-.8-1.2 1-1.6 5.4 3.7 5.4 6.7 0 3.6-2.4 5.3-8.6 6.1-4.2.5-5.8.3-6.5-.7-.4-.7-1.1-1-1.5-.6-.4.3-.1 1.4.7 2.3 1.1 1.3 2.5 1.5 7.3 1 3.4-.3 6.7-1.3 7.8-2.3 1.7-1.5 2-1.5 2.8-.3 1.3 2 1.3 9.7 0 10.5s-1.3 2.5 0 2.5c3.1 0 4.4-10 1.7-14.1-.8-1.3-1.9-4.1-2.2-6.2-.4-2-1.1-3.7-1.6-3.7s-.9-.5-.9-1c0-2 4.2-.9 6.6 1.7 1.3 1.4 5.4 7.7 9 13.9 9.8 16.9 8.7 19.2-10.4 22.1-9.5 1.4-12.6 1.5-19.4.5-4.4-.6-8.7-1.7-9.4-2.3-2-1.7-1.7-5.3.6-7.4 2-1.8 3.8-1.8 12.5.1 6.5 1.4.6-1.5-11.5-5.6-13.9-4.8-17-6.1-18.9-8.4-1.2-1.4-1-1.6 1.1-1.6 1.3 0 2.8-.4 3.4-.8.5-.5 3.8-1.9 7.3-3.3 7.3-2.8 14.4-9.7 15.5-15.1.7-3.3.7-3.3 2.6-.9 1.1 1.3 2 2.7 2 3.1m-15-.6c0 .3-.4.8-1 1.1-.5.3-1 .1-1-.4 0-.6.5-1.1 1-1.1.6 0 1 .2 1 .4m-4 3.1c0 .3-.2.5-.5.5s-.5-.2-.5-.5.2-.5.5-.5.5.2.5.5m-9 1c0 .2-.9.9-2 1.5-1.6.9-1.8.8-1.4-.5.5-1.3 3.4-2.2 3.4-1m30 2c-.7.9-1.5 1.3-1.7 1.1-.7-.7.7-2.6 1.9-2.6.6 0 .6.6-.2 1.5m-32 8.4c0 1.9-2.8 1.2-3.5-.9-.4-1.1-1-1.8-1.5-1.5s-.6 1.3-.3 2.1c.4 1.2.1 1.5-1.3 1.2-2-.4-3.3-3.8-1.4-3.8.6 0 1.8-.7 2.7-1.5 1.3-1.4 1.7-1.3 3.4.9 1 1.3 1.9 2.9 1.9 3.5m1.7-3.2c-.4.3-.7 0-.7-.7s.3-1 .7-.7c.3.4.3 1 0 1.4m-14.2.4c1.1 1.7-.1 2.1-1.5.4-.8-.9-.8-1.5-.2-1.5s1.4.5 1.7 1.1m77.1 25.4c1.1 2.7-2.2 6.2-6.3 6.8-2.1.4-7.2 1.4-11.3 2.2-10.1 2.2-22.7 2.3-26.5.2-2.8-1.4-2.5-1.5 7.1-1 16.4.9 34.4-3.7 34.4-8.9 0-1.4 2-.9 2.6.7M604 996c0 .5-.9 1-2.1 1-1.1 0-1.7-.5-1.4-1 .3-.6 1.3-1 2.1-1s1.4.4 1.4 1"/><path d="M606.3 974.7c-1.8.7-1.6 2.3.2 2.3.8 0 1.5-.7 1.5-1.5s-.1-1.5-.2-1.4c-.2 0-.9.3-1.5.6M407 777.6c.2 25.1.3 23.7-1.4 23.1-1.7-.7-5.6 1.9-5.6 3.8 0 .7-.9 1.7-2 2-4.3 1.4-3.7 8 1.1 13.1 2.9 3 3 3 8.3 2 2.9-.6 6-1.7 6.9-2.5 3.1-2.5 1.9-8.9-2.4-13.6-1.6-1.8-1.8-4.4-2.1-24.9-.2-18-.6-23-1.6-23.4-1.1-.3-1.3 3.5-1.2 20.4m-2 24.8c0 .2-.7.7-1.6 1-.8.3-1.2.2-.9-.4.6-1 2.5-1.4 2.5-.6m2 1.1c0 .3-.2.5-.5.5s-.5-.2-.5-.5.2-.5.5-.5.5.2.5.5m-.6 2.3c.2.4-.4 1.3-1.4 2-2 1.2-3.6 0-2.5-1.8.7-1.2 3.2-1.3 3.9-.2m3.6-.3c0 .3-.2.5-.5.5s-.5-.2-.5-.5.2-.5.5-.5.5.2.5.5m-5.5 7.5c1.9 3.7 1.9 5.9 0 6.7-2.3.8-2.8-.2-1.3-2.6 1-1.6 1-2.6.2-3.9-1.4-2.2-4.4-2.8-5.5-1-.6.9-.9.7-.9-.9 0-4.4 4.9-3.3 7.5 1.7m6-2.9c.5 1.4.2 2.5-.6 3-2.1 1.3-2.7 1.1-4-1.2-.9-1.7-.8-2.3.2-3 2.3-1.4 3.7-1 4.4 1.2m2.5-.6c0 .3-.2.5-.5.5s-.5-.2-.5-.5.2-.5.5-.5.5.2.5.5m1 5c0 1.9-.4 3.5-.8 3.5s-.6-1.6-.4-3.5.6-3.5.8-3.5.4 1.6.4 3.5m-12 0c0 .3-.2.5-.5.5s-.5-.2-.5-.5.2-.5.5-.5.5.2.5.5m8.8 2.5c-1.3 2-3.8 2.8-3.8 1.2 0-1.2 2.3-3.2 3.7-3.2 1.1 0 1.1.4.1 2M606.1 759.6c-2.4 3-2.6 4.7-1 9.5 1.1 3.3 6.5 9.9 8.1 9.9.4 0 3 1.3 5.8 3 6 3.6 7.1 3.7 9.6.9 2.2-2.4 2.2-8.4 0-12.8-1.6-3-8.3-9.1-10.1-9.1-.5 0-2.1-.9-3.5-2-3.4-2.7-6.5-2.5-8.9.6m12.6 3.9c7.5 5 11.2 10.9 9.9 16-1 3.7-3.2 3.6-10.9-.5-5.5-3-7.9-4.9-9.5-7.9-2.1-3.7-2.9-9.1-1.5-10.4 1.7-1.7 7.2-.5 12 2.8M575.9 764c2.5 2.2 4.1 2.6 4.1 1 0-1.1-3.3-3-5.2-3-.7.1-.3.9 1.1 2M465.3 780.2c-1.8 1.1-3.3 2.4-3.3 2.9 0 1.1 7.5-2.6 8.5-4.1 1-1.6-1.7-1-5.2 1.2M649.5 783.4c-2.7 1.9-2.4 8.2.5 13.3 2.6 4.6 13.1 11.3 17.9 11.3 10.9 0 6.5-15.7-6.4-22.7-6.6-3.6-9.2-4-12-1.9m12.2 4.2c7 4.2 10.6 9.4 10.1 14.6-.2 2.7-.8 3.4-3 3.6-3.9.5-14.5-5.2-16.8-9.1-1.9-3.1-2.7-10.6-1.3-12 1.4-1.5 5.2-.5 11 2.9M456.5 785.1c-1.6 1-3.4 2.1-4 2.3-.5.2-.7.6-.3 1 .9 1.1 9-3.3 8.3-4.4-.4-.6-.7-1-.8-.9-.1 0-1.5.9-3.2 2M615 785.9c0 1.1 7.1 5.4 7.7 4.7.9-.8-.7-2.4-3.9-4-3.6-1.9-3.8-1.9-3.8-.7M444.2 791.8c-2.4 1.3-4.1 2.7-3.8 2.9.7.7 7.3-2.4 8.2-3.8 1.1-1.8 0-1.6-4.4.9M434.5 797.1c-1.6 1.1-3.4 2.1-4 2.3-.5.2-.7.6-.3 1 .7.8 6.3-1.8 7.3-3.5 1.2-1.8.1-1.7-3 .2M537.3 802.7c-.3 1-1.5 2.6-2.7 3.5-1.1.9-1.7 2-1.3 2.4s1.3.2 1.9-.4c1.5-1.5 4.5-1.5 5 0 .7 2 3.8 0 3.8-2.5 0-4.3-5.4-6.7-6.7-3m4.7 2.4c0 .5-.4.9-1 .9-.5 0-1-.7-1-1.6 0-.8.5-1.2 1-.9.6.3 1 1 1 1.6M422.8 803.6c-1.6.8-2.8 1.9-2.8 2.4 0 1 5.7-1.6 6.5-3.1.9-1.3-.6-1.1-3.7.7M720 809.3c0 2.7 3.3 6.2 4.9 5.2 1.5-.8 1.4-4.8-.1-6.3-2.1-2.1-4.8-1.4-4.8 1.1m4 1.8c0 1.1-.4 1.7-1 1.4-.5-.3-1-1.3-1-2.1s.5-1.4 1-1.4c.6 0 1 .9 1 2.1M502.3 824.2c-2 1-3.2 2.8-1.8 2.8 1.2 0 5.5-2.4 5.5-3.2 0-1-.9-.9-3.7.4M583.2 826.2c-1.9 1.9-1.4 4.5 1 6.2 3.1 2.2 3.8 2 3.8-1.2 0-3.6-3.1-6.7-4.8-5m2.8 3.9c0 .6-.4.7-1 .4-.5-.3-1-1.1-1-1.6 0-.6.5-.7 1-.4.6.3 1 1.1 1 1.6M273 831.6c0 1.6-.3 6.8-.7 11.6-.4 7-.3 8.9.8 9.2.8.2 21 .9 44.9 1.5 30.9.7 43.8.7 44.7-.1 1.5-1.2 1.9-22.3.4-23.3-.5-.3-21-.8-45.5-1.2-44.6-.6-44.6-.6-44.6 2.3m60.2.4H360v20h-13.3c-7.4 0-26.3-.3-42-.7l-28.7-.6v-20l15.2.6c8.3.4 27.2.7 42 .7"/><path d="M284 840.9c0 7.4.2 8.1 2 8.1 1.1 0 2-.5 2-1 0-.6-.5-1-1.1-1s-.9-2.4-.7-6.6c.2-4.7-.1-6.8-.9-7.1-1-.4-1.3 1.6-1.3 7.6M294.3 834.5c-.3.9-.2 1.9.2 2.3s1 .1 1.2-.6c.7-1.9 2.3-1.4 2.3.7 0 1-.8 2.2-1.7 2.6-1.7.6-1.7.7 0 1.9.9.7 1.7 2.3 1.7 3.5 0 2.6-.9 2.7-2.6.4-1.4-2.1-2.9-1.2-2 1.2.9 2.5 3.7 3 5.2 1.1 1.3-1.8 1.2-11.5-.1-13.6-.9-1.5-3.5-1.2-4.2.5M316 838.2c0 4 .3 4.9 1.2 4 1.9-1.9 2.8-1.4 2.8 1.8 0 1.6-.4 3-1 3-.5 0-1-.5-1-1 0-.6-.4-1-1-1-1.4 0-1.2 3.8.3 4.3 4.4 1.6 6.8-7 2.7-9.5-1.1-.7-2-1.8-2-2.5s.9-1.3 2-1.3 2-.7 2-1.5q0-1.5-3-1.5c-2.9 0-3 .1-3 5.2M328.9 833c0 .3-.1 4.2-.2 8.8-.2 6.6.1 8.2 1.2 8s1.4-2 1.2-7.8c-.1-4.1-.7-7.9-1.2-8.5-.5-.5-.9-.7-1-.5M338 834.9c-.5 1.1-1 2.4-1 3 0 2 2 1.1 2.9-1.2.8-1.9 1-2 1.6-.5.4 1-.4 3.8-2 6.9-2.8 5.6-2.4 7.3 1.6 6.7 1.6-.2 2.5-1.1 2.7-2.6.4-2.3-1.3-3.1-2.1-1-.2.7-.7 1-1.1.6-.4-.3.2-2.5 1.4-4.8 1.9-3.7 2-4.6.9-6.6-1.5-2.9-3.5-3.1-4.9-.5M349.7 834.5c-1.2.9-1.7 2.2-1.4 3.7.4 2.3.4 2.3 1.2 0 .4-1.2 1.1-2.2 1.6-2.2 1.6 0 .9 4.9-1.1 8.2-2.7 4.5-2.5 5.8.8 5.8 3.5 0 4.1-.6 3.5-3.1-.4-1.5-.8-1.7-1.4-.8-1.6 2.6-2 0-.5-3 3-5.8 1.2-11.5-2.7-8.6M304.7 840.6c-1.6 1.6-.5 2.5 2.6 2.2 1.7-.2 3.1-.8 3-1.3-.3-1.2-4.6-1.9-5.6-.9M549.4 834.5c-.8 1.9 2.2 6.5 4.2 6.5 2.2 0 2.9-2.8 1.4-5.6-1.5-2.7-4.7-3.2-5.6-.9m4 2.1c.9 2.2-.3 3.2-1.4 1.4-1.2-1.9-1.2-3-.1-3 .5 0 1.2.7 1.5 1.6M482.2 836c-3.4 2.1-4 3-1.9 3 1.6-.1 6.3-3.7 5.6-4.4-.3-.3-1.9.4-3.7 1.4M370 841.4c0 1.4 2.9 1.6 24 1.6h24v8.4c0 4.7-.4 8.8-1 9.1-.5.3-1 3.7-1 7.4 0 6.5.2 7 3.3 9.5 1.7 1.5 4.3 3.4 5.7 4.3 1.4.8 3.2 2.9 4 4.6 1.2 2.5 2.3 3.3 5.1 3.8 2 .3 4.9 1.4 6.5 2.5 4.4 3.1 12.9 6.9 22.4 10.2 11.5 3.9 13 3.3 13-5.3 0-6.4-1.8-8.9-7.2-10.4-5.6-1.4-6.5-2.1-8.6-6-1.1-2.2-3.7-4.4-7.7-6.6-3.3-1.8-9.2-5.1-13.2-7.4-6.2-3.6-7.5-4.1-9.3-3.1-2.2 1.2-2.3 1.2-8.7-4.7-.9-.8-1.3-4-1.3-9.6v-8.5l-5.2-.4c-2.9-.2-14.2-.5-25-.7-17.4-.2-19.8 0-19.8 1.3m53.2 23.9c3.4 2.9 3.7 3.8 4.4 10.1l.7 7-5.1-4c-3.8-2.9-5.1-4.6-5.1-6.4 0-2.3.1-2.3.9-.5 1.9 4.9 7 5.8 7 1.4 0-4.3-6-8-7.3-4.7-.3.7-.6-.4-.6-2.5-.1-2 .2-3.7.7-3.7.4 0 2.4 1.5 4.4 3.3m11.3.9c2.4 1.1 2.6 1.6 2.1 4.9-.8 5.1.8 6.2 8.6 5.8 6.5-.3 10.8.6 10.8 2.1 0 .6-1.2 1.2-2.7 1.6-2.6.5-11.2 3.1-14.1 4.2-.8.3-1.1-.4-1-1.9.3-2.2-.1-2.4-3.8-2.3-4.2.1-4.2.1-4.8-4.4-.3-2.5-.6-5.7-.6-7.3 0-2.3.5-2.9 2.7-3.8.1-.1 1.4.4 2.8 1.1m-10.4 5c1.1 2.1 1.1 2.2-.4.9-1-.7-1.7-1.7-1.7-2.2 0-1.5.9-1 2.1 1.3m19.5 2.3c1.8 1.4 1.8 1.4-.8 1.5-1.8 0-2.8-.5-2.8-1.5 0-1.9 1.1-1.9 3.6 0m15.4 8.4c0 .5-.9.7-2 .4s-2-.7-2-.9.9-.4 2-.4 2 .4 2 .9m-24.7 3.1c.8 0 .7.4-.1 1.2-.9.9-1.6.8-3-.6-1.6-1.8-1.6-1.9.1-1.2 1 .3 2.4.6 3 .6m24.2 1.1c1 2.1 7.1 4.9 10.7 4.9 2.3 0 3.8 3.1 3.8 7.9 0 3.5-.3 4.1-2.2 4.1-2.2 0-17.8-5.2-21.2-7.1-1-.6-3.5-2-5.5-3.1s-4-2.4-4.5-2.8c-.8-.8 13.2-5.9 16.4-6 .8 0 2 1 2.5 2.1m-17.5.4c0 .3-.2.5-.5.5s-.5-.2-.5-.5.2-.5.5-.5.5.2.5.5m-4 1c0 .3-.2.5-.5.5s-.5-.2-.5-.5.2-.5.5-.5.5.2.5.5"/><path d="M463.9 894.2c-.3 2.8.3 4.4 2.3 6 2.6 2.3 3.5 2.3 4.8-.2.8-1.5.7-2.6-.6-4.5-1.7-2.6-6.3-3.5-6.5-1.3m5.5 2.3c.3.8.1 1.5-.4 1.5-.6 0-1-.7-1-1.5s.2-1.5.4-1.5.6.7 1 1.5m-2 2.1c.3.8.2 1.2-.4.9s-1-1-1-1.6c0-1.4.7-1.1 1.4.7M461.1 848.1c-1.8 1.1-3.1 2.2-2.8 2.5.6.7 6.3-2.2 7.2-3.6 1-1.6-.7-1.2-4.4 1.1M449 855c-1.7 1.3-2 2-1 2 .8 0 2.6-.9 4-2 1.7-1.3 2-2 1-2-.8 0-2.6.9-4 2M439.3 860.2c-1.3.6-2.3 1.5-2.3 2 0 1.4 2.4.8 5-1.2 2.8-2.2 1.1-2.6-2.7-.8M636.7 861.7c-1.4 1.3-.6 4.9 1.3 6.1 2.4 1.5 4 .8 4-1.6-.1-3.3-3.6-6.3-5.3-4.5m3.3 3.3c0 1.1-.4 2-1 2-.5 0-1-.9-1-2s.5-2 1-2c.6 0 1 .9 1 2M405.9 880c-1.3 1-2 1.9-1.6 2 1.1 0 6.7-2.9 6.7-3.5 0-1.2-3-.3-5.1 1.5M635.6 882.6c-.8 2.1 1.9 6.4 4 6.4 2.3 0 2.8-2.7 1-5.5-1.9-2.9-4.1-3.2-5-.9m4.4 3c0 .8-.4 1.4-.9 1.4-1.1 0-2.2-2.6-1.4-3.4.9-.9 2.3.3 2.3 2M379.2 883.2c-.7.7-1.2 1.6-1.2 2.1s-1.2 2.1-2.6 3.4c-2 1.8-2.4 3-2 4.9 1.6 6.3 7.2 10.8 10.6 8.6 3.7-2.3 4-1.5 4 9.7 0 8.5-.4 11.6-1.7 13.9-3 5.3 1.1 11.6 5.2 8.2 2-1.7 1.9-6.6-.2-8.8-1.5-1.4-1.8-3.3-1.5-12.5.2-9.1.6-11.1 2.2-12.7 2.8-2.8 2.5-5.8-1-11.3-3.7-5.9-9-8.3-11.8-5.5m3.5 1.5c-.4.3-1 .3-1.4 0-.3-.4 0-.7.7-.7s1 .3.7.7m4.3 1.8c0 .3-.2.5-.5.5s-.5-.2-.5-.5.2-.5.5-.5.5.2.5.5m-3 1.5c0 .5.7 1 1.5 1 2.1 0 3.7 3.4 2.3 4.8-2.5 2.5-5.5.1-4.2-3.3.4-1 0-1.5-1.5-1.5-1.2 0-2.1-.5-2.1-1 0-.6.9-1 2-1s2 .4 2 1m6.5 3.1c.9 1.7 1.5 3.3 1.3 3.5-.3.2-1.2-1.2-2.1-3.1-2.1-4.3-1.3-4.7.8-.4m-8.8 2.8c1.3 1.9 2.3 4 2.3 4.8 0 1.6-2.8 2.9-3.8 1.8-.4-.4-.1-1 .6-1.2 1.6-.6 1.5-3.3-.4-5.8-1.2-1.6-1.8-1.8-3.4-.7-1.8 1.1-2 1-2-.9 0-3.2 4-2 6.7 2m-3.2 2.1c.3.5.1 1-.4 1-.6 0-1.1-.5-1.1-1 0-.6.2-1 .4-1 .3 0 .8.4 1.1 1m10.5 1c0 1.3-2.8 2.5-3.8 1.6-.3-.4 0-1.1.8-1.6 2-1.3 3-1.2 3 0m2.2 1.2c-.7.7-1.2.8-1.2.2s.3-1.4.7-1.7c.3-.4.9-.5 1.2-.2.2.3-.1 1.1-.7 1.7m-.4 31.6c.3 2.7 0 3.2-1.7 3.2-1.6 0-2.1-.6-2.1-2.8 0-5.3 3.3-5.6 3.8-.4M396.8 884.9c-2.7 1.6-3.7 3.1-1.9 3.1 1.2 0 5.7-3.7 5.1-4.3-.3-.2-1.7.3-3.2 1.2M719.3 885.7c.4.3 1 .3 1.4 0 .3-.4 0-.7-.7-.7s-1 .3-.7.7M271.3 889.1c-1.4 1.4-1.9 22.4-.5 23.2.4.3 20.6.8 45 1.2l44.2.7V889h-15.7c-8.7 0-28.4-.3-43.8-.6-22.4-.5-28.2-.4-29.2.7m85.4 12c-.3 5.5-.7 10.1-.9 10.3-.1.1-18.6 0-41-.2l-40.8-.4V891h83.3z"/><path d="M281.8 900c-.3 8.4.1 9.6 2.9 8.6 1.2-.5 1.3-.9.3-2.1-.7-.9-1.1-3.8-.8-7.6q.3-6.3-.9-6.6c-.8-.3-1.2 2.1-1.5 7.7M292.3 892.7c-2.2.8-1.5 3.5.7 2.8 2.6-.8 2.8 2 .3 3.4-1.7.9-1.7 1 0 1.6.9.4 1.7 1.8 1.7 3.1 0 2.8-1.5 3.2-2.4.7-.5-1.2-.9-1.4-1.8-.5s-.7 1.7 1 3.4c2 2 2.3 2.1 3.7.7.9-.9 1.6-2.4 1.5-3.5-.1-3.1-.6-9.8-.8-11.2-.2-1.2-1.7-1.4-3.9-.5M313 893.5c-1.6 1.9-.3 4 1.6 2.4 1.1-.9 1.4-.7 1.4.9 0 1.1-.6 2.2-1.2 2.5-.9.3-.7.9.6 1.9 1.4 1.1 1.6 2.1 1.1 3.8-.7 2.3-.8 2.3-2.1.5-1.7-2.3-3.3-1.1-1.8 1.3 1.8 2.8 4.3 2.6 5.4-.3.6-1.5.7-3.2.3-3.7-.3-.6-.5-2.9-.5-5.2.2-5-2.2-7.2-4.8-4.1M324.6 893.2c-1.2.7-1.7 2-1.5 4.1.1 1.8-.1 4.2-.5 5.4-1.5 4.5 3.4 8.4 6.2 5 .8-.9 1-9.8.3-13.8-.2-1.3-2.7-1.7-4.5-.7m3.4 3.9c0 1-.7 1.9-1.5 1.9-1.5 0-2.1-3.1-.9-4.3 1.1-1 2.4.3 2.4 2.4m-.5 6.9c0 1.3-.6 2.5-1.2 2.7-1.6.6-2.7-2.1-1.9-4.3.9-2.3 3.1-1.1 3.1 1.6M334.7 893.7c-2.5 4-1.1 15.3 1.8 15.3 2.6 0 3.6-2.8 3.3-9.2-.3-5.6-.5-6.3-2.5-6.6-1.1-.2-2.3.1-2.6.5m3.3 6.7c0 5.7-1.4 8.2-2.4 4.3-.7-2.8.4-9.7 1.5-9.7.5 0 .9 2.4.9 5.4M301 901c0 .5 1.6 1 3.5 1s3.5-.5 3.5-1c0-.6-1.6-1-3.5-1s-3.5.4-3.5 1M510.6 913.8c-2.1 1.4-3.4 2.8-2.8 3 1.2.4 8.2-3.7 8.2-4.9 0-1.4-1.2-1-5.4 1.9M202.1 917.9c-2.5 3.4-2.7 9.3-.7 14.2.7 1.9 1.6 7.5 2 12.5.9 12 2.9 22.9 6.2 33.4 1.4 4.7 2.7 9.9 2.9 11.6s1.4 4.8 2.7 7c5.5 8.8 13.6 28.6 19.3 46.9 2.1 6.6 4.9 13.5 6.3 15.4 2.1 2.8 2.3 3.7 1.3 5.2-1.5 2.6.2 2.5 4.6-.2 3.1-2 3.3-2.2 1.6-3.4-1.3-1-1.5-1.7-.7-2.5 1.7-1.7 4.8 2.8 3.2 4.7-1.2 1.5-.5 2.8 1.1 1.8 2-1.2 1.1-5.3-1.6-7.5-2.5-1.9-2.8-2-3.9-.5-.7.9-1 2.5-.7 3.5.3 1.1 0 2-.6 2-1.3 0-2.4-3.9-1.9-7.1.3-2.2.8-2.4 5.1-2.3 5 .2 6-.8 2.6-2.6-3-1.7-6.7-.4-8.8 3.1-1.8 3-1.8 3-6-9.8-4.3-13.1-8.8-25.4-12.2-33-2.4-5.4-2.4-6.1.3-6.5 1.3-.2 2.6-1.3 3.1-2.8 2-5.6-6.2-16.1-11.2-14.5-1.6.5-2.3-.3-3.9-4.7-3.5-9.3-5.9-21.7-8.2-42.3-.5-3.9-1.4-9.1-2-11.6-1-3.7-1-5.1.1-7.5 2-4 4.3-4.1 10.2-.4 4.6 2.9 5.7 3.2 10.2 2.6 3.9-.4 5.9-.1 8.5 1.3 3.2 1.7 21.7 12 30 16.8 1.9 1.1 11.2 6.2 20.5 11.3 9.4 5.1 17.5 9.6 18 10 .6.4 5.5 3.1 11 6s10.5 5.6 11 6c.6.4 3.5 2.1 6.5 3.7 3 1.7 7.5 4.1 10 5.5s7.2 4 10.5 5.8c18.9 10.3 19.1 10.5 16.9 13.7-.8 1.4-1.3 3-1.1 3.7.3.7 3.5 3 7.1 5.1 6.2 3.6 6.6 4.1 6.6 7.4-.1 6.6-1.8 11.3-5.4 15-2 2.1-4.9 6.2-6.4 9.2-2.7 5.3-3.1 5.6-15.8 12.1-14.9 7.6-17 9.7-16.7 16.9.2 9.4 6.4 17.8 22.6 30.8 4.2 3.4 7.7 6.7 7.7 7.2 0 3.5-7.3 11.5-13.5 14.7-4.1 2.1-6.7 2.7-14.7 3-9.8.4-9.8.4-19.8-6.1-5.5-3.6-10.6-6.8-11.3-7.1-.9-.5-.9-.7.2-1.2 2-.9 5.1-4.2 5.1-5.4 0-1.7-1.8-1.1-4.3 1.5-2.1 2.4-2.6 2.5-5.3 1.4-2.7-1.2-2.8-1.3-.6-1.6 3.1-.6 3.4-4.7.4-7-2.4-1.8-3.1-1.6-4.1.9-.9 2.3-.9 2.3-1.6-.5-1-3.7 1-5.9 4.9-5.5 2.2.2 3.1-.1 3.1-1.2 0-1.8-5.8-1.8-8 0-1.7 1.4-1.9 5.7-.5 9.5.8 2 .7 2.4-.3 1.9-1.6-1-10.8-8.4-12.7-10.4-.8-.8-5.8-5.3-11-10-15.8-14.1-18-16.3-18-17.5 0-.6-1.1-1.7-2.5-2.3-4.6-2.1-2.8 1.2 3.8 6.9 3.4 2.9 6.7 5.9 7.2 6.5.6.6 5.5 5.1 11 10s10.2 9.1 10.5 9.4c2.1 2.2 13 11 15 12 2.3 1.2 5.6 3.3 21.8 13.7 7.1 4.6 14.5 6 22 4.3 11.5-2.7 19-7.8 23.1-15.7 2.7-5.5 2.7-6.5-.6-8.5-1.6-.9-3.8-2.5-5-3.5-1.1-1-5.2-4.3-9-7.4-9.2-7.6-13.8-15.2-13.8-22.9 0-3.8.5-6.2 1.6-7.2.9-.9 7.5-4.6 14.8-8.2 7.4-3.8 13.4-7.4 13.7-8.4 1.8-5.5 3-7.5 7.3-12.1 3.5-3.8 5.1-6.4 5.9-10.2 2.4-10.3 1.6-12.1-6.8-16.4-6-3-6.5-3.8-4.5-6.8 1.4-2.2 1.4-2.6-.2-4.5-1-1.1-4.5-3.5-7.8-5.2-3.3-1.8-7.8-4.3-10-5.5s-6.9-3.8-10.5-5.7c-3.6-2-10-5.4-14.2-7.7l-7.8-4.3v-27.4c0-17.6-.4-27.4-1-27.4s-1 9.5-1 26.5c0 14.6-.2 26.5-.5 26.5-.8 0-23.6-12.2-29-15.5-1.1-.7-4.5-2.6-7.5-4.2-5-2.8-21.3-11.9-33.5-18.8-16.6-9.4-18.9-10.5-19.9-9.5-1.8 1.8-7 1-12.5-2-3-1.7-6-3-6.7-3s-2.2 1.3-3.3 2.9m17.3 70.7c1.2.5 1.3 1 .4 2.4s-.9 2.5 0 4.5c1 2.2 1.7 2.6 3.8 2.1 2.2-.6 2.5-.4 2.2 1.5q-.75 5.4-6.3-.6c-2.6-2.7-3.5-4.5-3.5-7.1 0-3.4.6-3.9 3.4-2.8m4.1 5.4c1.1 1.7-.5 3.2-2.1 1.9-.8-.6-1.4-1.5-1.4-2 0-1.2 2.7-1.1 3.5.1m76.5 111c.9 1.6.8 2-.5 2-.8 0-1.5-.9-1.5-2s.2-2 .5-2c.2 0 .9.9 1.5 2M497.3 921.3c-5.1 3.1-7.1 5.4-3.5 3.9 3.3-1.4 10.2-5.7 10.2-6.5 0-1.2-1.3-.7-6.7 2.6M349.7 925.2c-.9.5-1.7 1.7-1.7 2.7 0 2.2 2.5 4.5 3.9 3.7.5-.4 1.2-.2 1.5.3.7 1.1-2.2 2.3-3.5 1.5-.5-.3-.9-.1-.9.4 0 2 3.1 2.1 5 .2 2.2-2.2 2.5-4.2 1-6.9-1.2-2.4-3.2-3.1-5.3-1.9m3.2 1.7c1.6 1 .6 3.1-1.5 3.1-.8 0-1.4-.9-1.4-2 0-2.2.7-2.5 2.9-1.1M357 924.6c0 .5.7 1.9 1.5 3 .8 1 1.5 3.1 1.5 4.6 0 1.6.5 2.8 1 2.8.6 0 1-.9 1-1.9 0-1.1.9-3.6 2.1-5.5 1.2-2 1.7-3.6 1.2-3.6s-1.6 1.2-2.4 2.6c-1.3 2.6-1.3 2.6-3.6-.3-1.3-1.5-2.3-2.3-2.3-1.7M367.4 925.4c-.3.8-.4 3.1-.2 5.2.3 3.8.4 3.9 4.3 3.9 4 0 4 0 4-4 0-2.2-.4-4.6-.9-5.3-1.2-1.6-6.5-1.5-7.2.2m6.5 1.2c.8.7-1.2 2.4-3 2.4-1.3 0-1.9-.7-1.9-2.1 0-1.6.4-1.9 2.3-1.3 1.2.3 2.4.8 2.6 1m-.1 5.1c.2.8-.6 1.3-2.2 1.3-2.5 0-3.3-1-1.9-2.4 1-1 3.6-.3 4.1 1.1M409.4 924.8c-3.6 2.3-2.1 10.2 2 10.2 1.8 0 2.5-.7 3-3 1-5.4-1.7-9.4-5-7.2m3.6 5.4c0 2.1-.5 2.8-2 2.8s-2-.7-2-2.8c0-3.4 2-5.8 3.2-3.9.4.6.8 2.4.8 3.9M417.2 924.9c-.9.5-1.2 2.4-1 5.2.3 3.8.6 4.4 2.7 4.7 2.8.4 4.1-1.2 4.1-5.4 0-4.5-2.6-6.6-5.8-4.5m3.8 4.7c0 2.3-.5 3.4-1.4 3.4-2 0-2.9-3.5-1.6-6 1.5-2.8 3-1.6 3 2.6M425.4 925.4c-1.1.8-1.5 1.8-1 2.3.5.4 1.1.2 1.3-.5.6-1.6 4.3-1.6 4.3.1 0 .8-1.1 2-2.4 2.7-2.4 1.2-4.1 3.8-3.2 4.7.2.2 1.9.3 3.8.1 3.3-.4 3.3-.4.8-1.5-2.4-1-2.4-1-.3-2.1 2.8-1.6 3.5-3.8 1.7-5.7-1.9-1.9-2.5-1.9-5-.1M379.7 925.7c-.7 1.4.5 9.3 1.4 9.3.5 0 .9-2.3.9-5 0-4.4-1.1-6.5-2.3-4.3M401 926.1c-1.1.8-1.2 1.2-.2 1.6.6.2 1.2 2 1.2 3.9s.5 3.4 1 3.4c.6 0 1-2.3 1-5 0-5.2-.4-5.7-3-3.9M483.2 929.5c-3 1.8-5 3.5-4.5 3.8s2.2-.3 3.9-1.4c1.6-1.1 3.9-2.4 5.2-2.9 1.2-.5 2.2-1.4 2.2-2 0-1.5-1-1.2-6.8 2.5M394.8 930.7c.6.2 1.8.2 2.5 0 .6-.3.1-.5-1.3-.5s-1.9.2-1.2.5"/><path d="M213 933.4c0 .5 2.7 2.1 25.5 14.9 15.5 8.7 20.7 11.5 31.8 17.6 7.8 4.2 14.8 8.1 18.2 10.1 1.7 1 5.6 3.2 8.8 4.9 9.2 5 15.6 8.5 24.7 13.6 4.7 2.6 11.2 6.2 14.5 8.1 3.3 1.8 10 5.5 15 8.3 4.9 2.7 9.2 4.8 9.4 4.5.7-.7-1-2-6.6-4.9-2.9-1.5-5.3-3.1-5.3-3.6s1.1-1.5 2.5-2.1 2.5-1.5 2.5-2c0-1.2-1-1-4.6 1.2-3.3 2.1-3.3 2.1-12.6-3.1-5.1-2.8-11.8-6.5-14.8-8.2-3-1.6-7.5-4.1-10-5.5s-7.4-4.1-11-6-7.5-4.1-8.7-4.8c-3.8-2.4-10.3-5.9-31.8-17.4-4.4-2.4-9.2-5.1-10.7-6.2-1.4-1-2.8-1.8-3.1-1.8s-6-3.2-12.7-7c-6.7-3.9-12.5-7-12.8-7-.4 0-1.8-.9-3.2-2-2.3-1.8-5-2.6-5-1.6M470 937.1c-2.5 1.6-3.8 2.9-3 2.8 2 0 9.4-4.6 8.3-5.2-.4-.2-2.8.8-5.3 2.4M214 941.6c0 .5 5.5 4 12.3 7.7 6.7 3.7 14 7.8 16.2 9.1 4.6 2.6 12.4 6.9 21 11.6 3.3 1.8 7.8 4.3 10 5.5s6.7 3.7 10 5.5c9.1 4.9 13.5 7.4 19 10.6 2.8 1.6 6.4 3.6 8 4.4 1.7.8 4.1 2.2 5.5 3.1s6.1 3.5 10.5 5.9c9.7 5.2 10.4 5.8 8.5 7-2.2 1.4-.5 2.3 1.9 1 2.2-1.1 3.3-.6 14.4 6 2.1 1.2 4.1 2 4.4 1.6.8-.8 1-.7-6.9-5-3.8-2.1-6.8-4.5-6.8-5.3 0-1-.6-1.3-1.6-.9-1.5.6-8.4-2.6-14.4-6.5-1.4-.9-5.6-3.3-9.5-5.4-3.8-2.1-12.8-7-20-11-11.9-6.6-37.2-20.5-52-28.5-3.3-1.8-7.2-4.1-8.7-5.2-1.4-1-2.9-1.8-3.2-1.8-.4 0-4-2-8.1-4.5-8.4-5.1-10.5-6.1-10.5-4.9M460.5 942.2c-5.8 3.3-9.6 6-9.2 6.5.8.7 11.7-5.6 11.7-6.8 0-1.1 0-1.1-2.5.3M442.7 952.4c-3.1 1.8-5.4 3.5-5.1 3.9.3.3 2.9-.8 5.7-2.5 5.9-3.4 6.2-3.6 5.6-4.2-.2-.3-3 1-6.2 2.8M221.6 957.5c.4 2.2 1.3 6.5 2.1 9.5s1.9 7.3 2.4 9.5c1.2 5.7 4.6 20.2 5.9 25.7.6 2.7 1.5 4.8 2 4.8.4 0 0-3.5-1-7.8-3.9-17.6-9.3-38.9-10.6-42.2-1.4-3.5-1.4-3.5-.8.5M429.5 959.6c-2.2 1.3-4.4 2.5-5 2.7-.5.3-.7.7-.4 1.1.7.8 8.5-3 9.5-4.6 1.1-1.7-.1-1.5-4.1.8M414.2 968.1c-5.7 3.4-6.5 5.1-1 2.5 3.9-1.9 8.7-5.6 7.3-5.6-.5 0-3.4 1.4-6.3 3.1M402.5 974.4c-1.1.6-3.1 1.7-4.3 2.5-1.3.7-2.1 1.5-1.8 1.8.7.7 9.6-3.9 9.6-4.9s-1.1-.9-3.5.6M386.5 983.3c-2.2 1.2-4.2 2.3-4.4 2.4-.2.2-.1.6.2.9.8.8 9.7-3.7 9.7-4.8 0-1.2-1.2-.9-5.5 1.5M247 995.6c-2.5 4.7-5.3 9.4-6.2 10.4-1 1.1-1.8 2.2-1.8 2.4 0 .5 6.1 4.6 18.2 12.2 2.1 1.3 4.3 2.4 5 2.4s2.3-1.9 3.6-4.3c9.2-16.7 9.7-17.7 8.7-19.3-.9-1.5-8.6-6.4-12.5-8.1-.8-.3-2.7-1.5-4.2-2.5-4.8-3.3-6-2.5-10.8 6.8m6.8-5.9c-.9.2-2.2 1.8-2.9 3.6-1.7 4.3-6 11.9-6.5 11.4-.4-.4 1.4-4.1 6.5-13.5.6-1.2 1.9-2.1 2.9-2.1 1.5.1 1.5.2 0 .6m3.2.8c0 .3-.2.5-.5.5s-.5-.2-.5-.5.2-.5.5-.5.5.2.5.5m.6 3c1.9 1.4 1.8 1.4-.3 1.5-1.3 0-2.3.4-2.3 1 0 .5-.9 1-2 1-2.3 0-2.4-.4-1-3.1 1.3-2.3 2.9-2.4 5.6-.4m7.9 2.3c-.3.3-1.1 0-1.8-.7-.9-1-.8-1.1.6-.5 1 .3 1.5.9 1.2 1.2m-4 .2c.3.5.1 1-.4 1-.6 0-1.1-.5-1.1-1 0-.6.2-1 .4-1 .3 0 .8.4 1.1 1m5.6 3c3.2 2.3 3.6.8-3.4 13.2-1.1 2.1-2.7 3.8-3.4 3.8-2.4 0-14.2-7.5-14.2-9 0-.8.7-2.4 1.6-3.5 1-1.3 1.4-1.5 1-.4-.3.9-.2 2 .1 2.6 1.1 1.6 10 7.3 11.4 7.3.7 0 2.6-2.3 4.1-5.1 2.6-4.4 2.7-5.2 1.4-6.7-3.7-4.4-3.2-5.4 1.4-2.2m-9.6 2c-1.7 3.3-1.8 4-.7 4 .4 0 1.3-1.4 2-3 .8-1.7 1.8-3 2.3-3 1.6 0 .9 3.4-1.1 6-2.1 2.7-2.5 4-1.2 4 .5 0 1.7-1.6 2.8-3.5 1-1.9 2.2-3.5 2.6-3.5 1.1 0 1 .5-.9 4.5-2 4.2-4.4 4.5-9.4 1.1-3-2-3.6-3-3.2-5 .6-2.8 2.2-3.6 1.9-1-.2 2.4 2.3 2.9 3.1.7.7-1.9 2.3-4.3 2.9-4.3.3 0-.2 1.3-1.1 3m12.2 7.2c-5.1 9.5-7.1 12.8-8 12.8-.4 0-3.5-1.8-6.7-4s-6.2-4-6.5-4c-1.4 0-6.5-4.2-6.5-5.2 0-.7 1-.3 2.3.8 3.4 3 14.3 9.4 16 9.4 1.9 0 4.4-3.5 8.7-12 1.8-3.6 3.5-6 3.7-5.3.2.6-1.1 4-3 7.5M631.2 991.2c-2.3 2.3-.6 7.8 3.8 11.8.3.3 2.5 3 5 6s5.3 6.3 6.3 7.2c2.1 1.9 3.6 7.4 3.7 13 0 2.1.5 3.8 1 3.8.6 0 1-2.5 1-5.5 0-4.5.4-5.9 2.5-7.9 2.7-2.7 2.5-4.4-.7-7.8-.7-.7-3.3-3.8-5.8-6.8s-4.7-5.7-5-6-2-2.4-3.9-4.8c-3.3-4.3-5.7-5.2-7.9-3m4.5 2.5c.4 1.1-2.6 2.7-3.5 1.9-.2-.3-.2-1.2.2-2.1.6-1.8 2.7-1.6 3.3.2m2.3 3.3c0 1.3-.7 2-2 2-2.5 0-2.5-.9-.2-2.6 2.2-1.7 2.2-1.7 2.2.6m2.8 3.2c-.3.7-1.5 1.4-2.9 1.6-2.4.4-2.4.3-.4-1.2 2.4-1.9 3.8-2 3.3-.4m1.7 3.7c-.3.6-1.4 1.1-2.3 1.1-1.5-.1-1.5-.2.2-1.5 2.1-1.6 3.2-1.3 2.1.4m4.5 2.6c1.4 1.7.6 4.5-1.3 4.5-.8 0-2.2-.9-3.1-1.9-1.7-1.8-1.7-2 .1-3 2.4-1.4 2.8-1.4 4.3.4m3 5.5c0 .5-.7 1-1.6 1-.8 0-1.2-.5-.9-1 .3-.6 1-1 1.6-1 .5 0 .9.4.9 1m1.5 2.9c-.3.6-1.4 1.1-2.3 1.1-1.3 0-1.3-.2.4-1.4 2.1-1.5 3-1.4 1.9.3m2.1 3.8c-1 1-1.9-.5-1-1.8.6-1.1.8-1.1 1.2 0 .2.7.1 1.5-.2 1.8M239 1013.8c0 .4 1.5 1.6 3.3 2.6 1.7 1 6.7 4.1 11 6.9 4.3 2.7 8 4.7 8.4 4.3.3-.3.4-.7.2-.9-6.4-4.4-21.6-13.7-22.4-13.7-.3 0-.5.4-.5.8M326.5 1017.1c-1.6 1-3.4 2.1-4 2.3-.5.2-.7.7-.3 1.1.7.7 9.8-4 9.8-5s-2.6-.3-5.5 1.6M368.7 1018.1c-1 .6-2.5 2.8-3.3 4.8-1.1 2.9-2.7 4.4-6.2 6.2-5.7 2.8-5.7 2.8-5 3.4.7.7 6.9-2.1 9.4-4.3 1.2-1 2.9-3.3 3.8-5.1 1-1.7 2.4-3.5 3.2-3.8 1.4-.5 2-2.3.7-2.3-.5 0-1.6.5-2.6 1.1M328.3 1020.7c-2.4.2-4.3.9-4.3 1.5 0 1.3 12.2.4 14.8-1.1 1.8-1.1-1.4-1.2-10.5-.4M313.6 1024c-6.4 4.1-5.8 5.7.7 1.9 6.3-3.7 6.1-3.6 4.9-4.3-.5-.3-3 .8-5.6 2.4M299 1024c-1.9.4-9.6 1.3-17 2s-13.9 1.7-14.5 2.1c-1.2 1.2 5.3 1.1 12.9-.1 3.3-.5 11.4-1.5 17.8-2.1 6.5-.6 11.5-1.5 11.2-2-.6-1.1-5.5-1-10.4.1M299.8 1032.1c-3.9 2-5.2 4.1-2 3.2 2.2-.5 8.2-5.2 6.7-5.2-.5 0-2.7.9-4.7 2M362.1 1037.8c-.1 4 .3 6.1.9 5.7 1.2-.7 1.2-7.2 0-10-.6-1.4-.9-.1-.9 4.3M331 1034.7c-6.4 2.4-6.8 10.3-.7 12.6 2.3.9 2.1-.1-.5-2.5-1.3-1.1-1.7-1.7-1-1.3.6.3 1.2.4 1.2 0 0-.3-.6-1.4-1.2-2.6-1.9-3 1.4-5.2 6.7-4.4 6 .9 10 5.6 6 7.1-.8.4-1.5 1.2-1.5 2s-.7 1.4-1.5 1.4-1.5.4-1.5 1c0 .5.6 1 1.4 1 2.2 0 5.3-3.2 6-6.1 1.1-5.2-7.4-10.4-13.4-8.2M606.7 1034.7c-.4.3-.7 6-.7 12.5v11.8h89.1l-.3-12.3-.3-12.2-43.6-.3c-23.9-.1-43.9.1-44.2.5m61.6 2.2 23.7.1v20l-41.2-.2-41.3-.3-.3-8.9c-.2-4.9-.1-9.5.2-10.1.3-.8 5.5-1.1 17.7-.9 9.6.1 28.1.2 41.2.3"/><path d="M616.9 1038.4c0 .3-.1 4.1-.1 8.3-.1 7 .1 7.8 1.8 7.8 1.2 0 1.8-.6 1.5-1.5-.2-.8-.4-4.4-.5-7.9-.1-4.2-.5-6.6-1.3-6.8-.7-.3-1.3-.2-1.4.1M626.7 1038.7c-1.6 1.5-.7 3.4 1.3 2.8 2.4-.8 2.6.7.4 2.9-1.4 1.5-1.4 1.7 0 2.2.9.3 1.6 1.7 1.6 3 0 2.8-.8 3-2.5.7-.7-1-1.4-1.2-1.8-.6s.2 2.1 1.2 3.4c1.6 2 2.1 2.1 3.4 1 1.2-.9 1.6-2.8 1.4-7.4-.2-3.4-.6-6.8-1-7.5-.9-1.3-3-1.6-4-.5M648.6 1043.1c-3.1 6.3-3.2 6.9-.6 6.9 1.5 0 2 .7 2 2.6s.4 2.5 1.8 2.2c1.5-.3 1.7-1.3 1.4-7.8-.1-4.1-.7-7.9-1.1-8.3-.5-.5-2 1.5-3.5 4.4m1.1 4.6c-.4.3-.7 0-.7-.7s.3-1 .7-.7c.3.4.3 1 0 1.4M658 1042.5c0 3.8.3 4.5 2 4.5 1.5 0 2 .7 2 2.5 0 2.7-.9 3.2-2.8 1.3-.9-.9-1.2-.7-1.2.9 0 4.2 5.5 3.5 6-.7.5-3.8-.1-5.9-2-6.5-1.1-.3-2-1.3-2-2.1s.9-1.4 2-1.4 2-.7 2-1.5q0-1.5-3-1.5c-2.9 0-3 .2-3 4.5M669.2 1040.5c-2.8 6.1-.2 16.3 3.5 13.9 3.7-2.3 3.3-9.1-.7-10.1-1.1-.3-2-1.2-2-2 0-1 .6-1.3 1.6-.9 2.3.9 3.7-.3 2.3-2-1.7-2.1-3.4-1.7-4.7 1.1m3.8 9.1c0 3.1-2.3 2.8-2.8-.4-.2-1.5.2-2.2 1.2-2.2 1.1 0 1.6.9 1.6 2.6M636.7 1045.6c-1.6 1.6-.5 2.5 2.6 2.2 1.7-.2 3.1-.8 3-1.3-.3-1.2-4.6-1.9-5.6-.9M287.8 1038.6c-1.6.8-2.8 1.9-2.8 2.3 0 1.3 3.1.3 6-1.9 3-2.4.8-2.6-3.2-.4M332.7 1038.1c-1.3.8-1.5 1.4-.7 3 1.1 2 6.4 2.7 7.5.9.4-.6-.7-1-2.4-1s-3.1-.5-3.1-1c0-.6.7-1 1.6-1 .8 0 1.2-.5.9-1-.8-1.2-1.5-1.2-3.8.1M276.8 1044.7c-2.5 1.3-3.8 3.3-2.2 3.3.9 0 7.4-4.1 7.4-4.6 0-.8-2.5-.2-5.2 1.3M266.2 1050.5c-2.7 1.4-5 3.5-3.9 3.5 1.4 0 7.7-3.4 7.7-4.2 0-1.1-1-.9-3.8.7M235.3 1067.7c-2.8 1.4-4.4 3.3-2.8 3.3 1.2 0 7.5-3.5 7.5-4.2 0-1.1-1-.9-4.7.9M216.5 1072.2c-3.9 2.2-8.8 5-11.1 6.3-2.2 1.2-5 2.9-6.2 3.6-1.8 1.1-2.7 1.1-5.8-.4-4.7-2.3-9.1-.9-10 3.2-.4 1.4-1.5 3.6-2.6 4.8-2.5 2.7-1.7 7.1 1.9 10.8 2.4 2.4 3.1 2.5 8.7 1.9 8-.8 10.6-2.5 10.6-6.7 0-2.8.6-3.5 4.9-5.8l4.8-2.6.7 13.5c.3 7.4.6 23.1.6 34.9 0 15.5.3 21.3 1.2 21.3.8 0 1-9 .5-35.8l-.6-35.8 6.9-3.4c8.8-4.4 10.3-8.1 4.7-12.1-2.1-1.6-2.6-1.4-9.2 2.3m9.5.3c.6.8 1 2.1.8 3-.2 1.3-.8 1-2.6-1.4-1.6-2.3-1.9-3.1-.9-3.1.8 0 2 .7 2.7 1.5m-3 2c1.2 1.5.7 4.5-.7 4.5-.4 0-1.6-1.4-2.5-3-1.6-2.9-1.6-3 .1-3 1 0 2.4.7 3.1 1.5m-4.8 2.2c2.2 2 2.3 3.9.2 4.7-.9.4-1.7.5-1.8.4-.1-.2-.7-1.3-1.3-2.5-2.4-4.3-.7-5.9 2.9-2.6m-4.2 2.8c1.2 1.5.7 4.5-.8 4.5-.4 0-1.6-1.4-2.5-3-1.8-2.9-1.8-3 .1-3 1.1 0 2.5.7 3.2 1.5m-5.2 1.7c1.6 1.6 1.5 5.8 0 5.8s-4.9-5.5-4-6.4c.9-1 2.7-.7 4 .6m-14.3 4.5c4.8 4.8 6.2 12.3 2.7 14.2-1.8.9-1.9.6-1.4-3.7.4-4.5.2-5-3.2-8-2.9-2.5-4.1-3-5.5-2.2-2.3 1.2-3.5.2-2-1.7 1.9-2.2 6.4-1.5 9.4 1.4m10.3-1.5c1.9 1.9 1.4 4.4-1.3 5.6-2.3 1-2.6.9-4.1-2-1.3-2.5-1.4-3.2-.2-3.9 1.9-1.2 4.2-1.1 5.6.3m-15.8 3.7c0 .5-.7 1.1-1.5 1.5-1.5.5-2-.5-.8-1.7.9-1 2.3-.9 2.3.2m4.7 3.7c1.6 2.5 1.6 2.7-.2 4-2.7 2-3.1 1.8-4.5-1.7-1.1-2.6-1.1-3.2.1-4 2.1-1.3 2.7-1.1 4.6 1.7m-6.8 2c3.7 4.7 2.1 8.8-2.4 6.4-2.6-1.4-5.1-6.3-4-7.9 1.1-1.9 4.3-1.2 6.4 1.5m6.1 5.4c-2.4 1.5-3.7 1.1-1.6-.5 1.1-.8 2.2-1.2 2.5-.9s-.1.9-.9 1.4M567 1116.2c-.2 5.4 0 23.1.2 23.4.2.1 20.1.4 44.3.6l44 .3v-25l-44.2-.3c-35.1-.2-44.3 0-44.3 1m85.5 11.6v10.4l-40.4-.1c-22.3-.1-40.8-.4-41.3-.7-.4-.3-.8-5-.8-10.5v-9.9l41.3.2 41.2.3z"/><path d="M577.8 1126.9c-.2 6.1 0 8.2 1 8.6 2.2.8 3.3-.5 2.1-2.6-.5-1.1-.9-4.5-.7-7.6.2-3.6-.1-5.7-.9-6s-1.2 2-1.5 7.6M587.6 1120.5c-.9 2.5-.8 2.7 1.4 2 2.5-.8 2.8 2.2.4 3.2-1.4.5-1.3.8.6 2.3 1.8 1.3 2 2.1 1.3 3.5-.7 1.2-1.3 1.4-1.7.6-1-1.6-2.6-1.4-2.6.4 0 .8.9 1.9 1.9 2.4 2.3 1.3 4.4-.7 4.2-4.1-.4-10.6-.6-11.3-2.7-11.6-1.3-.2-2.4.4-2.8 1.3M610.3 1123.8c-2.8 5.9-2.9 7.2-.3 7.2 1.5 0 2 .7 2 2.6 0 1.5.5 2.4 1.2 2.2.6-.2 1.1-1.7 1.1-3.4-.1-10.4-.4-13.4-1-13.4-.5 0-1.8 2.2-3 4.8m1.3 4.9c-1 1-1.9-.5-1-1.8.6-1.1.8-1.1 1.2 0 .2.7.1 1.5-.2 1.8M619.7 1119.6c-.4.4-.7 2.5-.7 4.7 0 3.4.3 3.9 2 3.4 1.3-.3 2.1.1 2.6 1.5.7 2.3-1.5 5.2-2.3 3-.7-1.9-2.3-1.4-2.3.7s2.2 3.3 4.5 2.5c3.5-1.4 2.6-10.4-1-10.4-2.4 0-1.7-2.8.8-3.2 1.2-.2 2.1-.8 2-1.3-.3-1.2-4.6-1.9-5.6-.9M631 1120.5c-3.2 3.9-1.9 14.5 1.9 14.5 2.4 0 3.1-1.9 3.1-8.4 0-6.6-2.3-9.4-5-6.1m3 6.5c0 3.3-.4 6-1 6s-1-2.7-1-6 .4-6 1-6 1 2.7 1 6M597.5 1128c.3.5 1.9 1 3.5 1s3.2-.5 3.5-1c.4-.6-1-1-3.5-1s-3.9.4-3.5 1M167.9 1160.1c-1.3 2.6.2 6.9 2.6 6.9.8 0 1.5.4 1.5.9 0 1.7-2 2.3-3.5 1.1-1.2-1-1.5-.9-1.5.3 0 2.2 3.6 2.8 5.4.8 2.9-3.2 1.5-12.1-1.9-12.1-.8 0-1.9 1-2.6 2.1m4.1 3c0 2.4-2.3 2.1-2.8-.4-.2-1 .3-1.7 1.2-1.7 1 0 1.6.9 1.6 2.1M178.3 1159.5c-3.1 2.2-3.2 8.4-.2 11.1 2.1 1.9 2.1 1.8 4-.5 2.4-2.9 2.4-7.2.2-10-1.7-2-1.9-2.1-4-.6m3.5 5.1c.3 3.4-1.1 6-2.7 5-1.2-.8-1.5-6.8-.4-8 1.3-1.3 2.8.1 3.1 3M197.5 1159.6c-2.2 2.2-1.5 5.7 1.3 6.9 2.7 1.2 2.3 3.1-.7 2.7-1.5-.1-2.1.3-1.9 1 .6 1.8 3.6 2.2 5.3.8 2-1.7 1.9-9.4-.1-11.4-1.9-2-1.9-2-3.9 0m3.5 3.4c0 1.1-.7 2-1.5 2s-1.5-.9-1.5-2 .7-2 1.5-2 1.5.9 1.5 2M186.5 1160c.3.5 1.3 1 2.2 1 1.1 0 1.4.6.8 2.2-1.5 4.8-1.7 7.8-.6 7.8.6 0 1.1-.8 1.1-1.9 0-1 .7-3.5 1.5-5.4 2-4.8 2-4.7-2.1-4.7-2.1 0-3.3.4-2.9 1M206.7 1159.7c-1.6 2.8-1.7 8.7-.2 10.9 2 3 3 3 5 0 1.3-1.9 1.4-2.9.5-4.5-.6-1.2-1.7-2.1-2.5-2.1s-1.5-.7-1.5-1.6c0-1.1.6-1.5 2-1.1 1.3.3 2 0 2-.9 0-1.5-4.5-2-5.3-.7m3.8 8.3c0 .7-.6 1.5-1.2 1.7-.8.3-1.3-.4-1.3-1.7s.5-2 1.3-1.8c.6.3 1.2 1.1 1.2 1.8M225.6 1160.6c-1.2 3-.6 9.3 1 10.8 1.2 1.2 2 1.3 3.5.6 1.5-.8 1.9-2.2 1.9-5.8 0-2.7-.5-5.3-1.2-6-1.7-1.7-4.5-1.5-5.2.4m4.4 5.5c0 2.8-.4 3.9-1.2 3.7-1.4-.5-2.3-5.1-1.4-7.4 1-2.7 2.6-.4 2.6 3.7M235.2 1161c-1.8 2.9-1.5 8.4.6 10.3 2.4 2.2 2.9 2.1 4.7-.7 1.8-2.7 1.1-5.3-1.6-6.1-1-.4-1.9-1.3-1.9-2.1 0-1.6 1.6-1.9 2.5-.4.4.6 1.1.8 1.6.4 1.4-.8-.9-3.4-3-3.4-.9 0-2.2.9-2.9 2m3.8 7.5c0 .8-.4 1.5-1 1.5-.5 0-1-.7-1-1.5s.5-1.5 1-1.5c.6 0 1 .7 1 1.5M245 1161c-1.7 3.1-.8 10.1 1.3 11.4 2.6 1.5 4.7-1.6 4.7-6.9 0-6.1-3.7-8.8-6-4.5m3.5 5c0 1.8-.6 3.5-1.2 3.7-.9.3-1.3-.8-1.3-3.7s.4-4 1.3-3.8c.6.3 1.2 2 1.2 3.8M255.3 1160.2c-1.5 1.9-2.2 9.2-1.1 11.1 1.1 2 4.1 2.2 5.6.4 1.5-1.7.8-10.7-.9-11.8-1.9-1.2-2.5-1.1-3.6.3m2.7 2.9c0 1.1-.4 1.7-1 1.4-.5-.3-1-1.3-1-2.1s.5-1.4 1-1.4c.6 0 1 .9 1 2.1m0 5.9c0 1.1-.4 2-1 2-.5 0-1-.9-1-2s.5-2 1-2c.6 0 1 .9 1 2M216.5 1166c-.8 1.3 2 2.4 4 1.6.8-.3 1.5-1 1.5-1.6 0-1.3-4.7-1.3-5.5 0"/></svg>