<svg xmlns="http://www.w3.org/2000/svg" viewBox="0 0 864 1214" fill="currentColor"><path d="M809 33.9c-25.2 8.3-60 24.5-97.4 45-13 7.2-13 7.2-17.5 5-10.4-4.9-13.5-5.9-18.4-5.9-8 0-12.6 2.5-34.3 18.2-4.4 3.2-8.4 5.8-8.7 5.8-.4 0-.7-.7-.7-1.5 0-2.3-4-9.7-6.3-11.8-2.7-2.3-4-2.2-7 .9-4.2 4.2-5.1 12.3-2.3 22.4.6 2.3-.2 3.4-7.6 10-4.6 4.1-10.8 9.8-13.8 12.6s-6.6 6-7.9 7.2c-1.4 1.2-7.2 4.6-13 7.6-28.6 14.5-55.4 31.6-77.1 49-15.6 12.5-18.9 15.5-32 28.6-28.7 28.6-33.2 37.3-33.2 63.5 0 14.2 2.7 25.4 9.5 38.9 10.5 20.9 23.5 37.3 36.6 45.9 19.4 12.8 28.9 17.3 52.6 25.3 15.9 5.4 21.3 6.3 29.8 5.3 9.2-1 39.8-1 50 0 7.8.8 15.7-.2 15.7-2 0-2.2 3.6-.5 9.8 4.5 12.4 10 25.2 15.4 33.6 14.2 10.6-1.6 26.3-12.9 36.4-26.2 4.8-6.3 11.8-21.1 13.8-29 .1-.6 2.1-1.4 4.3-1.7 2.9-.3 6-2 10.3-5.4 11-8.6 13.3-10 35.8-22 11.1-6 36.8-19.3 42.2-21.9 4.1-2.1 7-4.4 5.3-4.4-.9 0-49.9 25.3-63.1 32.5-7.2 4-8.8 5-10.2 6.2-.7.7-1.7 1.3-2.2 1.3s-1.5.6-2.2 1.3c-1.7 1.6-8.9 7.1-10.6 8.1-1 .6-.9-.2.2-2.9 1.8-4.3 2-5.5.7-5.5-.9 0-3 5.3-3.5 8.8-.2 1.1-1.4 1.8-3.4 2-3.8.4-3.8.3-1.2-5.2 2.5-5.7 4.2-16.7 3.4-22.5-.7-5.2-4.7-13.8-7.2-15.7-1.6-1.2-1.5-1.3.5-1.4 1.2 0 3.8 1.6 5.7 3.5 4.4 4.4 6.9 12.3 6.4 20.3-.1 3.2.2 5.8.7 6 .6.1 3.9-1.9 7.5-4.5 10-7.4 22.9-14.6 65.4-36.4 7.2-3.6 13.2-7.1 13.4-7.7s-2.9.6-7 2.7c-4 2.1-17.2 8.9-29.3 15.1s-23.5 12.1-25.2 13.2c-3.7 2.2-3.9 1.9-1.8-2.1 2.8-5.5 4.6-11.7 5.2-18.4s.6-6.7 5.7-9.6c10-5.7 13.3-7.5 30.6-16.4 19.9-10.3 24.1-12.7 22.2-12.7-1.3 0-31.1 15.1-46.2 23.5-11.8 6.5-11 6.6-11-2.3 0-9.8-1.5-19.8-4-27.5-1.1-3.4-2-8.7-2-12.2 0-6.1 0-6.1 5.8-8 3.1-1 8.5-3.1 12-4.7 3.4-1.5 6.5-2.8 6.7-2.8.3 0 6.5-3 13.7-6.6 7.4-3.7 12.5-5.7 11.5-4.7-2.2 2.5-2.2 3 .5 4.4 1.7.9 3.3.8 8-.7 6.4-2.1 7.5-3.4 2.7-3.4-2.3 0-4.2-1-7-3.9-3.2-3.2-3.9-4.6-3.9-7.8 0-4.9 2.7-8 7.7-8.8 6.5-1.1 6.9-1.3 2.8-1.4-2.2 0-5.3.6-6.9 1.4-1.5.8-2.9 1.5-3.1 1.5-.1 0-.5-5.7-.9-12.8-.4-7-1.2-17-1.8-22.2s-1.2-11.9-1.4-14.7c-.2-2.9-.8-6.2-1.4-7.3-3.2-6.1-66.8-47.6-93.2-60.9-2.7-1.3-4.8-2.7-4.8-3.1 0-.3 1.7-1.6 3.8-2.7 2-1.2 5.5-3.1 7.7-4.4C749.7 59.4 766.3 54 793 54c9.2 0 14.4.5 19.3 1.9 3.7 1 6.7 1.5 6.7 1.1s-1.2-1.1-2.6-1.4c-2.1-.6-2.4-.9-1.4-2.1.7-.8 1.9-1.5 2.6-1.5.8 0 1.4-.5 1.4-1 0-1.4-.5-1.3-5.2 1.1-2.9 1.5-4.7 1.8-6.1 1.2-1.7-.8-1-1.3 4.7-3.7 3.6-1.6 6.6-3.2 6.6-3.7s-3.4.7-7.6 2.6c-7.1 3.3-8.4 3.5-17.8 3.5-10.6 0-23.7 1.8-32.1 4.4-2.7.8-5.1 1.3-5.3 1.1-1.1-1 49.5-21.6 59.2-24.1 2.4-.6 4.7-2.4 2.9-2.4-.4.1-4.6 1.3-9.3 2.9M690.7 84.1c17 7.9 30.9 15.3 44.6 23.8 11.4 7 13.9 8.6 25.8 16.5 7.8 5.2 8.2 5.5 24.7 16.8 9.7 6.6 14.2 11.1 14.2 13.9 0 .7-2 3.1-4.3 5.3-4 3.8-6.6 8.2-12.6 21.8-1.2 2.6-2.1 5-2.1 5.3 0 .2-1.1 2.8-2.4 5.7s-3.4 7.5-4.6 10.3c-3 6.9-9.2 20-15.1 32.1-4.8 9.8-7.2 12.4-11.3 12.4-.9 0 1.8-6.4 7.3-17.3 9-17.9 10.6-21.5 17.3-38.2 2.2-5.5 4.6-11.4 5.3-13 3.9-9 6.5-16.8 6.5-19.3s-1.8-6-4.5-8.8c-1.3-1.4-47.7-32.4-52-34.8-1.6-.9-5-3-7.5-4.6-2.5-1.5-6.6-4-9.1-5.3-2.5-1.4-6.3-3.5-8.5-4.8-3.2-1.9-14.4-8-22.9-12.6-1.1-.6-4.2-2-6.8-3.2-4.6-2-5.1-2.1-9.4-.6-5.6 1.9-6.7 1.3-2.1-1.2 5.9-3.2 9.2-4.1 15-4.2 4.7-.1 7.3.6 14.5 4m-3.8 11.1c16 8.3 34 18.8 49.1 28.6 4.7 3.1 11.7 7.6 15.5 10.1 3.9 2.5 7.2 4.8 7.5 5.1s4.8 3.4 10 7c5.2 3.5 10.3 7.3 11.3 8.3 3.3 3.8 1.6 11.5-6.8 31.2-.7 1.6-3.6 8.6-6.5 15.5-9.8 23.2-21.8 46.3-25 48-3.3 1.8-10.3 1.1-24-2.4-13.4-3.4-29.2-7.9-34-9.6-26.7-9.5-50.4-21.2-68.5-33.9-6.5-4.5-18.1-16.1-23.2-23.1-4.2-5.7-5.3-8.1-11.2-22.5-1.2-2.9-1.1-3.1 4.9-8.8 3.5-3.2 6-6.1 5.6-6.4-.4-.4-2.7 1.3-5.1 3.7-2.5 2.4-4.5 4-4.5 3.5 0-1.1 16.4-16.5 17.6-16.5.3 0-1.3 1.8-3.7 4-2.4 2.1-4 4.2-3.6 4.6s4.2-2.6 8.5-6.7c4.2-4.1 9.4-8.9 11.6-10.7 2.1-1.8 3.5-3.6 3.2-3.9-.4-.4-2.2.9-4.1 2.7-1.9 1.9-3.5 3.1-3.5 2.7 0-1.5 7.5-7.5 8.1-6.5.6.9 9.4-5.3 11.9-8.3.3-.3 6.7-5.2 14.3-10.8 22.3-16.5 22.4-16.5 44.6-4.9m-62.2-5.4c1.3.8 6.3 11 6.3 12.8 0 1.2-10.7 10.4-12.1 10.4-1.2 0-2.2-8.4-1.7-14.5.6-7.2 3.9-11 7.5-8.7m14.3 10.6c0 .3-.5.8-1.2 1.2s-.8.3-.4-.4c.7-1.2 1.6-1.6 1.6-.8m-5.3 4.3c-.4.3-1 .3-1.4 0-.3-.4 0-.7.7-.7s1 .3.7.7m-12.7 9.6c0 .2-1 1.2-2.2 2.3-2.3 1.9-2.3 1.9-.4-.4 1.8-2.1 2.6-2.7 2.6-1.9m-14 12c0 .2-1 1.2-2.2 2.3-2.3 1.9-2.3 1.9-.4-.4 1.8-2.1 2.6-2.7 2.6-1.9m-5 5.2c0 .3-.2.5-.5.5s-.5-.2-.5-.5.2-.5.5-.5.5.2.5.5m-22.6 20.4c-.8 4-4.2 6.6-16.4 12.5-5.2 2.6-11.6 5.9-14.1 7.4s-6.7 4-9.5 5.7c-2.7 1.6-5.3 3.3-5.9 3.7-.5.5-2.7 1.9-4.7 3.3-2.1 1.4-5.5 3.6-7.5 5-2.1 1.4-4.6 3.1-5.7 3.8-2.3 1.5-30.9 23-31.6 23.7-.3.3-3 2.5-6 5s-6.9 5.8-8.6 7.5c-1.7 1.6-4.6 4.3-6.5 5.9-1.9 1.7-6.5 5.9-10.3 9.5s-6.4 5.6-5.7 4.4c1.5-3 32.1-33.8 40.1-40.4 3.6-3 6.7-5.6 7-5.9s2.1-1.7 4-3.1c1.9-1.5 4.9-3.9 6.5-5.3 7.6-6.9 41.2-28.2 60-38.2 5-2.6 10.3-5.6 12-6.5 1.6-1 3-1.7 3.2-1.5.2.1 0 1.7-.3 3.5m.6 7.4c0 .6 2.2 5.7 4.9 11.2 10 20.2 25.7 34 57.1 50.2 20.8 10.7 47.8 20.7 72.5 26.8 6.1 1.5 11.4 3.1 11.9 3.6 1.8 1.6-4.7 6.4-25.3 18.5-24.1 14.2-45.2 27.4-62.5 39.1L625 318l-9.3-6.5c-16.6-11.7-20.1-13.8-22.9-13.8s-9.4 4.6-21.5 15.1c-5.6 4.8-6.4 5.2-8.5 4.1-2.4-1.2-6.6-3.7-46.8-27.8-22.1-13.2-23.6-13.9-25.7-12.6-1.2.8-2.8 1.5-3.5 1.5-.7-.1-.1-.7 1.4-1.5 1.6-.9 2.9-2.7 3.3-4.7.4-1.8 1.8-4.1 3.1-5.1 2.4-1.8 2.4-1.9.8-5-.9-1.8-2.1-4.1-2.6-5.1-.9-1.6-.1-2.8 4.6-7.1 3.1-2.9 5.6-5.9 5.6-6.8 0-2.3-4-5-15.6-10.7-5.7-2.8-10.4-5.5-10.4-5.9 0-.5 1.7-2.3 3.8-3.9 9.7-7.9 17.2-13.9 19.8-15.7 1.5-1.1 4.3-3.3 6.3-4.9 4.2-3.3 36-24.4 41.7-27.7 2.1-1.2 8.6-4.6 14.4-7.5s11.4-6 12.5-6.8c2.5-1.9 4.5-2 4.5-.3m220 2.1c0 .8.7 7.7 1.5 15.4s1.5 20.1 1.6 27.4c.1 7.7.7 14.6 1.4 16.4 1.3 3.1 1.3 3.1-12.6 9.8-14 6.7-33.8 14.8-35 14.4-.4-.2 2.1-5.9 5.5-12.8 7-14.3 15.5-33 21.6-47.5 6.8-16.1 7.8-18.1 10.6-21.4 2.7-3.2 5.4-4.1 5.4-1.7m11.3 66c2.6 2 2.1 2.6-2.3 2.6-4.1 0-4.9-.7-2.8-2.8 1.5-1.5 2.9-1.5 5.1.2m-323.7 6.8c6.9 3.4 12.9 6.8 13.2 7.6.3 1-1.5 3.3-4.9 6.5-3 2.8-9.2 8.8-14 13.3-8.5 8.2-8.5 8.2-11 6.3-1.3-1-2.8-1.9-3.2-1.9-1.3 0-3.7-2.7-3.7-4.2 0-.7.9-2.4 2-3.8 2.4-3 2.5-5.3.5-7-1.3-1.1-2.3-.6-6.3 2.6-2.6 2.2-5.9 4.7-7.3 5.6-2.5 1.6-2.7 1.6-4.8-.6-1.1-1.2-2.1-2.8-2.1-3.4 0-1.6 26.5-27.1 28.3-27.2.4 0 6.4 2.8 13.3 6.2m267.7 31.3c2.1 5.2 3.7 17.3 3.7 28.5 0 8.8 0 8.8-3.2 10.1-3.1 1.2-5.5 2.6-18.2 10.8-5.6 3.5-6 3.6-7.8 1.7-1.7-1.6-7.3-4.6-8.8-4.6-2.2 0-.8 1.7 2.4 2.8 4.6 1.7 7.1 4.5 5.3 6-1 .9-2.2.5-5.1-1.4-9.6-6.6-27.1-3-43.1 8.8-8.8 6.5-17.6 16-24.7 26.7-5.5 8.1-6.8 9.5-10.3 10.6-9.3 2.9-15.4 4.5-22.3 6.1-7.4 1.6-7.4 1.6-10.3-1.7-1.5-1.9-2.8-3.9-2.9-4.5 0-1.8 3.8-2.4 5.1-.8.6.8 2 1.4 3 1.4 1.8 0 2.2-1.1 4.2-9.8.6-2.4-1.5-5.2-3.9-5.2-1.9 0-1.8-.7.6-3.7 2.1-2.8 2.5-4.8 1.1-5.7-.5-.3-3.5 1-6.7 2.9s-6.4 3.5-7.1 3.5c-.8 0-3.2-.9-5.5-2.1l-4.2-2.1 3.1-2.7c12.1-10.5 14.8-12.7 16.2-13.5.9-.5 2.5-1.8 3.6-2.9 1.1-1 6.1-4.6 11-8 5-3.3 9.2-6.3 9.5-6.7.9-1.2 27.2-18.1 38.5-24.8 37.6-22.3 48.1-29 49.2-31.5.7-1.5 2.1-1.9 6.8-2.2 3.3-.1 8.7-.9 12-1.6l6-1.4.6 6.5c.3 3.6 1.2 8.3 2.2 10.5M447.5 264c-.9 1-1.5 3.5-1.5 6.2 0 4.6 0 4.6 10.8 11.4 5.9 3.7 14.1 8.9 18.2 11.6 7.8 5 11.8 5.9 14.4 3.2 1.8-1.7 2.1-1.6 9.4 3.9 5.3 4 5.3 4 2.2 5.5-3.4 1.7-4.3 3.9-3.8 10.3.3 4.3.5 4.5 9.3 10.6 5 3.4 9.7 6.2 10.6 6.3 1.9 0 6.9-4.7 6.9-6.5 0-.7.6-1.8 1.4-2.5.8-.6 1.6-2.2 1.8-3.6.3-2.4.3-2.4 5.8.5 3 1.7 9.9 5.2 15.3 7.8 9.7 4.7 9.7 4.7 9.7 9.3s0 4.6 8.2 9.6c4.5 2.7 8.7 5.1 9.3 5.3.5.2 2.9 1.7 5.2 3.2 2.3 1.6 4.4 2.9 4.7 2.9s3.3 1.8 6.7 4c6.4 4.1 11.3 5.1 13.8 2.7.9-.8 1.5-.9 1.8-.1.2.6 1.5 2.6 2.8 4.5 1.9 2.4 2.2 3.5 1.3 3.9-2.7 1.3-17.1 3.2-17.7 2.3-.3-.5-3.1-2.3-6.1-3.9-3-1.7-7.1-4-9-5.1s-9.4-5-16.7-8.7c-9.7-4.9-13.8-6.5-15.6-6.1-1.6.5-4-.3-7.6-2.4-2.8-1.7-5.4-3.1-5.7-3.1-.2 0-3.5-2-7.2-4.4s-10-6.3-14.1-8.7c-7.5-4.4-13.1-7.8-18.8-11.3-1.8-1.1-3.4-2.8-3.7-3.9-.3-1.3-1-1.8-2.1-1.3-2.2.8-11.5-4.5-11.5-6.6 0-1.1-3.3-4-8.7-7.5-4.9-3.2-9.4-6.3-10.1-7-.8-.7-2.2-1.8-3.3-2.4-1.4-.7-1.9-1.9-1.7-3.7.2-2-.3-2.9-2.2-3.9-1.4-.7-3.3-1.3-4.2-1.3-1.8 0-4.2-3.1-7.7-10.2-2.1-4.1-2.2-5-1.1-8.5.7-2.1 2.2-5.5 3.3-7.5l2.1-3.8 3.3 3.7c3 3.3 3.2 3.8 1.8 5.3m11 2.6c2.8 2.5 4.1 4 3 3.5-2.8-1.4-10.2-8-9-8 .6-.1 3.3 2 6 4.5m23.5.4c-1.1 2.1-2 4.6-2 5.5 0 1.9-1.4 1.9-3 0-1.3-1.6-1-2.2 3.4-7.3 3-3.4 3.8-2.6 1.6 1.8m-24.5 3.6c3.4 1.4 9.4 5.5 13.3 9.1.7.7 3.3 2.7 5.8 4.5 6.9 4.9 3.8 4.5-5.2-.8-13.7-8.1-18.4-11.4-18.4-12.9 0-1.8-.1-1.8 4.5.1m-15 15.9c1.9 2.6 2.1 3.8 1.5 9-.6 5.4-.7 5.8-1.7 3.5-.6-1.4-2.3-5.1-3.7-8.3-1.4-3.1-2.8-8.3-3.1-11.5l-.6-5.7 2.7 5c1.5 2.7 3.7 6.3 4.9 8m37.6-2.8c1.3 1.6 1.2 1.7-.3.4-1-.7-1.8-1.5-1.8-1.7 0-.8.8-.3 2.1 1.3m-41.4 15.8c2.8 7.4 9.5 18.3 14.9 24.4 9.8 11 32.8 27.6 51.4 37 4.7 2.4 14.4 6.2 22 8.7 2.5.8 5.4 1.9 6.5 2.4 4.7 2.1 26.7 6.9 34.8 7.5 5.6.5 8.7 1.2 8.7 1.9s3.3 3.1 7.4 5.4c5.8 3.3 8.4 4.2 12.1 4.2 4.6 0 15-2.5 17-4 .6-.5 3.2-1.1 5.8-1.5 5.2-.8 8.5-4 7.3-7.1-.7-1.7-4.9-1.6-15.8.2-6.3 1.1-4.4-1.3 2-2.6 6.8-1.4 20.7-4.8 24.2-5.9 1.4-.5 4.2-1.4 6.3-2.1 3.7-1.1 6.2-.7 4.1.8-.8.6-6.8 9.9-10.9 17-5.1 8.8-10 15.4-12.2 16.5-2.3 1.1-8.4 1.3-31.3 1-15.9-.3-31.1-.1-34.4.5-3.9.6-7.1.6-9.5-.1-2-.5-3-1.2-2.3-1.4 2.3-.8 1.2-4.9-2.3-9-5-5.9-11.9-10.5-20.5-13.8-14.8-5.5-28.6-12.1-38.7-18.1-4-2.4-7.7-4.4-8.2-4.4s-1.1-.3-1.3-.8c-.1-.4-3-2.5-6.3-4.6-6.7-4.4-14.7-12.2-20.7-20.4-2.2-3-4.8-5.7-5.8-5.9-3.5-.9-8-16.7-8.6-29.8-.4-9.7-.3-9.8 1-5.5.7 2.5 2.2 6.7 3.3 9.5m62.6-8.5c2.6 1.6 4.9 3 5.2 3 .2 0 3.9 2.2 8.2 4.8s10.9 6.5 14.6 8.6c5.9 3.3 6.8 4.1 6.5 6.3-.2 2 .5 2.9 4.2 5s12.2 7.5 13.9 9c.2.1.2.6-.2.9-.5.6-7.8-3.1-20.2-10.2-2.7-1.5-5.7-3.7-6.5-4.7s-2.6-2.3-4-3-2.6-2.1-2.8-3.2c-.4-2.5-10.1-8-11.6-6.5-.6.6-1.6 1-2.3 1-1.3 0-6.3-3.1-9.1-5.7-.7-.7-2.5-2-4.1-2.9-2-1.2-2.7-2.3-2.4-3.5.8-2.8 5.2-2.4 10.6 1.1m-51.2 4.7c1.3 1.6 1.2 1.7-.3.4-1-.7-1.8-1.5-1.8-1.7 0-.8.8-.3 2.1 1.3m158.3 12.8c6.8 4.6 12.8 9 13.4 9.8.9 1 0 2.2-4.1 5.2-6.9 5.2-16.6 13.3-19.9 16.8-2.8 2.9-2.8 2.9-9.5-1-3.8-2.1-7.6-4.1-8.5-4.5-1.8-.8-2.5-2.8-.9-2.8.5 0 1.1-2.3 1.3-5.2.4-4.1 1.1-5.6 3.3-7.3 2.7-2.2 2.7-2.2.6-6.1-2.9-5.3-2.7-6.4 1.6-10.1 6.1-5.2 8.5-4.7 22.7 5.2m-155.2-5.3c-.7.7-1.2.8-1.2.2 0-1.4 1.2-2.6 1.9-1.9.2.3-.1 1.1-.7 1.7m-9.7.8c.3.5.4 1 .1 1s-.8-.5-1.1-1c-.3-.6-.4-1-.1-1s.8.4 1.1 1m314.3 7.5c-.4 4.1-1.8 9.5-3.9 14.6-3.1 7.5-3.8 8.4-8.9 11.7-3 1.9-6.8 4.5-8.3 5.8-3.7 3.1-4.4 3-3.9-.6.5-3.5-1.6-15.8-2.9-16.6-2.1-1.3-.5-3.6 5.3-7.6 8.5-5.9 21.1-13.7 22.2-13.7.5-.1.6 2.8.4 6.4m-304.5-2.6c1.5.8 2.7 2.1 2.7 3s3.2 3.8 7 6.4c5.7 3.9 7.2 4.6 8.7 3.7 1.5-1 3.4-.2 10.8 4.3 5 3 11.1 6.5 13.5 7.9 2.5 1.4 11.9 7.1 21 12.6 13.5 8.2 16.4 10.4 16.2 12.1-.6 4.2 1.5 5.8 11.9 9.1 5.6 1.8 11.1 4.2 12.2 5.3 1.4 1.4 2.7 1.7 4.9 1.3 3.6-.7 7.5.1 8.1 1.8.6 1.6-12 .5-19.8-1.8-3.3-1-9.1-2.6-13-3.7-3.8-1.1-7.9-2.4-9-2.9s-3.8-1.4-6-2.1c-2.2-.6-7.8-2.9-12.3-5-4.6-2.2-8.5-3.9-8.7-3.9-1.5 0-27.4-17.1-30.7-20.3-.7-.7-3.5-3-6.2-5.2-7.9-6.4-22.3-24.5-18.3-22.9.8.3 1.8 0 2.2-.6s1-1 1.3-.8c.4.2 1.9 1 3.5 1.7m69.7 6.2c2.5 2 2.5 2-.7.4-1.8-.8-3.3-1.8-3.3-2 0-1 1.6-.4 4 1.6m49.2 2c-1.9 3.4-4.2 5-4.2 2.8 0-1.4 5.1-7.1 5.7-6.5.2.2-.4 1.8-1.5 3.7m143.6 3.4c5.2 4.3 7.2 10.2 7.2 20.7 0 5.1-.5 10-1 10.8-.7 1.1-1 .6-1-2.2 0-6.9-3.5-13.8-10.3-20.4-3.4-3.3-7.3-6.8-8.6-7.7-2.5-1.7-2.3-2 2.4-3 5.1-1.2 8.5-.6 11.3 1.8m-153.8-.2c0 .2-1.5 1.6-3.2 3.3l-3.3 2.9 2.9-3.3c2.8-3 3.6-3.7 3.6-2.9m139.8 3.8c2.3 1.7 4.2 3.3 4.2 3.5s-1.9.1-4.2-.2c-5.3-.7-15.1 2.4-21.7 6.8-10.6 7.1-23 22.2-29 35.1-7.1 15.7-8.5 32.2-3.4 42 .8 1.6 1.2 3.1.9 3.4-.7.7-8.3-4.7-14.1-10l-4.9-4.4 5.9-9.4c3.2-5.2 7.6-12.1 9.7-15.4s3.8-6.5 3.8-7.2c0-.6.3-1.3.8-1.5.4-.2 2.3-2.8 4.2-5.8s3.7-5.7 4.1-6c.3-.3 1.2-1.5 1.8-2.8 2.8-5.2 10.2-13.3 17.5-19 6.9-5.5 17.5-12.2 19.1-12.2.6 0 3 1.4 5.3 3.1M449.3 335c1.2 1.4 4.7 5.9 7.9 10.1 7.6 10.1 16 17.6 28 25.1 7.9 4.9 31.2 16.8 32.9 16.8.5 0 2.8.9 5.2 1.9 2.3 1.1 7.1 2.9 10.7 4.1 11 3.6 12 4.1 12 6.1 0 1.6-.5 1.8-2.7 1.3-3.2-.8-19.2-6.8-24-9-1.7-.8-3.4-1.4-3.8-1.4-1.9 0-31.7-16-33.5-17.9-1.2-1.3-5.2-3.2-5.8-2.7-.6.7-.9.4 5.2 4.6 9.8 6.6 27.9 15.8 39.5 20 3.4 1.3 5.9 2.5 5.7 2.7-1.2 1.3-24.1-8.6-35.4-15.2-13.4-7.9-23.3-15.5-20.1-15.5.8 0-2.2-3.5-6.7-7.8-4.4-4.2-9.5-9.7-11.1-12.2-6.9-10.3-12.8-21.5-8.3-16 1.1 1.4 3.1 3.6 4.3 5m109.1-5.5c.3.9 0 1.5-.9 1.5-.8 0-1.5-.7-1.5-1.5s.4-1.5.9-1.5 1.1.7 1.5 1.5m148.9 1c4.8 2 8.3 6 10.2 11.4 2.2 6.4 1.9 9.7-.4 4.6-2.5-5.6-6.3-9-11.6-10.5-14.4-4-36.3 12.7-47.4 36.1-1.7 3.7-3.1 7.4-3.1 8.4 0 .9-.5 2.5-1 3.6-.6 1-1.1 5.7-1.1 10.3-.2 16.9 7.6 25.1 21.9 23.2 5.7-.7 3.8.6-3.6 2.5-9.2 2.3-17.7-1.1-21.6-8.7-1.8-3.4-2.1-5.6-2-16.4 0-10.5.4-13.4 2.3-17.9 7-17.2 15.1-28.5 27.1-38.2 10.6-8.6 22.2-11.8 30.3-8.4M565 334c.8.5 1.1 1 .5 1-.5 0-1.7-.5-2.5-1s-1-1-.5-1c.6 0 1.7.5 2.5 1m9.9 7c4.5 2.2 9.1 4.9 10.2 5.9 1.2 1.1 4.1 3 6.5 4.3 4 2 6.7 5.9 5.2 7.4-.4.4-11.7-5.9-21.3-11.9-2.2-1.4-5.2-3.1-6.7-3.8-1.9-.8-2.8-2-2.8-3.6 0-1.2.2-2.3.3-2.3.2 0 4.1 1.8 8.6 4m133.1-1.8c15.2 7.7 12 36.8-6.4 58.9-9.3 11.2-18.3 16.9-28.1 17.6-8.2.7-12.5-1.2-16-7.1-2.5-4.2-2.6-5.1-2.2-14.3.2-5.4.9-11.6 1.5-13.7 3.9-14.3 19-33.4 31.2-39.6 8.6-4.5 13.8-4.9 20-1.8m-131 .3c0 .3-.2.5-.5.5s-.5-.2-.5-.5.2-.5.5-.5.5.2.5.5m2 1c0 .3-.2.5-.5.5s-.5-.2-.5-.5.2-.5.5-.5.5.2.5.5m10.3 4.2c.9.3 1.7.9 1.7 1.4s-1.5.2-3.2-.7c-3.9-1.9-5.1-3-2.3-1.9 1.1.4 2.8 1 3.8 1.2m6.7.8c0 .3-.2.5-.5.5s-.5-.2-.5-.5.2-.5.5-.5.5.2.5.5m9.3 11.4c2 2.3 3.7 4.6 3.7 5.3 0 .6-1.6-1-3.6-3.5-2-2.6-5.1-5.6-6.9-6.7s-3.9-2.8-4.6-3.7c-2.7-3.3 7.8 4.6 11.4 8.6m-108.6 12.9c7.8 4 14.6 7.2 15.2 7.2s3.4 1.1 6.3 2.3c2.9 1.3 7.4 3.2 10 4.1 2.6 1 6.9 3.7 9.5 6.2 4.5 4.1 4.3 4.6-1.2 2.4-1.1-.4-5.1-2-9-3.5-24.6-9.4-47.4-22.3-58-32.7l-5-5 9 5.9c5 3.3 15.4 9.2 23.2 13.1m41.2-16.5c-.2.1-1.3.9-2.4 1.7-1.9 1.4-1.9 1.4-.6-.3.7-.9 1.8-1.7 2.4-1.7q.9 0 .6.3m8.5 11.2c2.9 2.2 1.5 2.6-3.3.9-6.6-2.3-8.1-3.3-8.1-5.5 0-2 .2-1.9 4.8.6 2.6 1.4 5.6 3.2 6.6 4M562 371c1.8 1.2.2 1.2-2.5 0-1.3-.6-1.5-.9-.5-.9.8 0 2.2.4 3 .9m3 .5c0 .3-.2.5-.5.5s-.5-.2-.5-.5.2-.5.5-.5.5.2.5.5m12.7 1.2c-.4.3-.7 0-.7-.7s.3-1 .7-.7c.3.4.3 1 0 1.4M573 374c.8.5 1.1 1 .5 1-.5 0-1.7-.5-2.5-1s-1-1-.5-1c.6 0 1.7.5 2.5 1m7-.5c0 .3-.2.5-.5.5s-.5-.2-.5-.5.2-.5.5-.5.5.2.5.5m1 4c0 .3-.2.5-.5.5s-.5-.2-.5-.5.2-.5.5-.5.5.2.5.5m9.7.1c-.3.3-1.2.4-1.9.1-.8-.3-.5-.6.6-.6 1.1-.1 1.7.2 1.3.5m-6.7.9c0 .3-.2.5-.5.5s-.5-.2-.5-.5.2-.5.5-.5.5.2.5.5m19.3.2c-.7.2-1.9.2-2.5 0-.7-.3-.2-.5 1.2-.5s1.9.2 1.3.5m21.7 1.2c0 2.3-8.2 4.7-11.6 3.4-2.6-1-1.5-3.2 1.9-3.6 6.2-.7 9.7-.7 9.7.2m-25.3 6.3c-.3.7-.5.2-.5-1.2s.2-1.9.5-1.3c.2.7.2 1.9 0 2.5m3.3-.7c0 .3-.2.5-.5.5s-.5-.2-.5-.5.2-.5.5-.5.5.2.5.5M530.5 398c.3.5.2 1-.4 1-.5 0-1.3-.5-1.6-1-.3-.6-.2-1 .4-1 .5 0 1.3.4 1.6 1m4.2 1.7c-.4.3-1 .3-1.4 0-.3-.4 0-.7.7-.7s1 .3.7.7m3.3.8c0 .3-.2.5-.5.5s-.5-.2-.5-.5.2-.5.5-.5.5.2.5.5"/><path d="M733 274.2c-18.5 9.6-38.2 19.9-42.2 22.2-2.3 1.3-7.7 4.2-11.8 6.4-17.7 9.4-33.1 18-39.2 21.9-2.1 1.2-4 2.3-4.3 2.3-.2 0-3.3 1.7-6.7 3.8-3.5 2-7.6 4.4-9.3 5.2-1.6.8-3.2 1.8-3.5 2.1s-2.4 1.6-4.7 2.9c-4.1 2.3-5.5 4-3.3 4 .6 0 2.3-.8 3.8-1.8 6.6-4.4 9-5.9 14.2-8.6 3-1.6 11.4-6.4 18.5-10.6 13.6-8.1 19.1-11.1 47.5-26.2 3.6-1.9 9.4-5.1 13-7s12.8-6.8 20.5-10.8c7.7-3.9 14.4-7.6 14.9-8.1 2.3-2.1-.5-1.3-7.4 2.3M565 391.8c0 1.5 7.7 2.4 25.3 2.7 9.2.2 17.7.7 18.9 1.1 1.5.4 1.9.2 1.6-.7-.4-1.1-4.4-1.6-16.9-2.1-9-.3-19.2-.9-22.6-1.2-3.5-.4-6.3-.3-6.3.2M689.2 346.5c-12.3 5.4-25.7 23-28.4 37.4-2 11.2.7 19.7 7.4 23.2 5.1 2.6 8 2.4 15.4-1.2 15-7.1 28.5-28.2 28.4-44.4-.1-5.3-3-11.7-6.8-14.3-3.6-2.6-10.9-2.9-16-.7m16.9 4.1c3.3 3.4 3.4 3.7 3.4 11.7 0 10.1-1.9 15.5-8.7 25.8-8.9 13.5-23.6 21.7-31.5 17.6-5.4-2.8-6.8-6.2-6.7-15.7.1-6.9.7-9.7 2.8-14.5 3.6-8.1 7-13 13.1-19 6.4-6.4 12.5-9.4 19.1-9.5 4.5 0 5.4.4 8.5 3.6M808.5 236c-14.8 8.1-42.6 22-43.8 22-1.7.1-6.5 4-4.9 4 .7 0 2-.4 3-.9.9-.5 8.7-4.4 17.2-8.5 8.5-4.2 18.4-9.2 22-11.2s9-4.9 12-6.6c6.4-3.5 6.8-3.8 4.9-3.7-.8 0-5.4 2.3-10.4 4.9M360.8 399.2c-1.5 2.3-12 13.2-17.1 17.7-2.6 2.4-2.7 2.4-4.7.6-1.7-1.5-2.5-1.7-3.9-.8-1.5 1-2 .8-2.9-1.1-1.2-2.8-5.1-4.1-5.9-2-.3.8-.3 2.4 0 3.6s-.3 3.9-1.4 6.1c-1 2.3-1.9 4.9-1.9 5.9 0 1.6-1 1.8-8.8 1.8h-8.7l.4-4.6c.2-2.5-.1-4.9-.5-5.4-.5-.4-20.8-1.1-45.1-1.5l-44.2-.7-.3 11c-.2 6-.2 11.7 0 12.5.4 1.9 9.9 2.2 59.7 2.2h30l.3-6 .3-6 7.5.3c7.4.4 7.4.4 4.9 3.4-2 2.4-2.5 4.1-2.6 8.6 0 3.1-.2 8.3-.5 11.5-.4 6.4.6 8.9 4.8 11.2 17.5 9.7 25.4 13.5 26.9 13 1.2-.4 5 1.1 10.1 3.8 29 15.6 27.7 15 30.8 13.7 1.6-.6 3.6-2 4.6-3.1 2.2-2.4 4.2-2.4 7.4.1 2.4 1.8 2.5 2.2 2.5 14.5 0 12.7 0 12.7 2.8 14.2 1.6.8 3.9 1.2 5.2.9 3.6-.9 8.2-5.3 8.8-8.3.3-1.6 1.1-5.1 1.7-7.8l1.2-5.1 15.1-2.3c8.4-1.3 16.8-2.7 18.7-3.2 4.5-1.1 10.3-1.1 11.6 0 .5.4 5.4 3.2 10.9 6.1 22.3 11.9 21 11 22.3 15.1.7 2.1 1.2 7.1 1.2 11.1.1 11.7 1.5 19.4 4.2 22.1 3.5 3.6 16.1 10.7 20 11.3 3.1.5 3.6 1.1 4.6 5 .7 2.4 1.6 4.4 2.1 4.4s1.2 1.3 1.6 2.9c.4 1.9 1.8 3.7 4.1 5 3.3 2 3.4 2.2 3.4 8.7 0 7.8 1.2 9.3 7.6 9.4 4.2 0 8.4-2.7 8.4-5.5 0-1.9.1-1.9 6.3 1.1 2.9 1.4 6 3.8 6.9 5.3 1.4 2.6 6.2 5.4 28.2 16.7 6.1 3.2 6.1 3.2 8.8 1.3 1.4-1.1 2.9-1.9 3.3-1.9.3 0 2.6-1.4 5-3 2.4-1.7 4.6-3 4.9-3s4-2 8.2-4.5c4.1-2.5 7.9-4.5 8.4-4.5 2.1 0 6.7 3.2 8.1 5.7 1.7 3.1 8.3 7.3 11.5 7.3 2.2 0 3.4-1.7 3.4-4.7 0-2.6-7-15.7-9.6-18.1-2.1-1.8-2.9-2-4.7-1.1-1.2.7-2.5 1.7-2.9 2.2-.4.6-1.2.4-2.3-.6-.9-1-2.1-1.7-2.6-1.7-1.8 0-.8-1.9 1.4-2.5 1.2-.4 5.9-2.6 10.5-4.8 7.3-3.7 8.3-4.6 9.2-7.7 1.3-4.5 1.3-7.4-.1-14.3-1-4.9-1.5-5.7-4.2-6.6-3.3-1.2-4.4-.7-8.7 4.4-7.3 8.6-24 22.5-27 22.5-1.2 0-13.6-6.5-25.5-13.5-3.3-1.9-10.3-5.7-15.5-8.5-5.2-2.7-11.2-6.5-13.4-8.5-3.6-3.2-3.8-3.7-2.8-6.2 1.2-3 1.5-6 1.3-13.5-.1-5.2-2.6-8.8-7.7-11-1.6-.7-6-3.2-9.9-5.4-3.8-2.3-9-5.2-11.5-6.6s-6.1-3.4-8-4.5-6.4-3.5-10-5.4c-3.6-1.8-6.7-3.6-7-3.9s-2.3-1.5-4.5-2.7c-5.2-2.7-9.8-5.3-16-8.9-2.7-1.6-6.3-3.6-8-4.4-1.6-.8-4.1-2.2-5.5-3.1s-6.8-3.9-12-6.6c-5.2-2.8-12.6-6.9-16.5-9.2-13.8-8.2-17.4-9.6-25-9.6-5.4 0-8.6.6-13.7 2.7-3.6 1.6-7.8 2.8-9.2 2.8-4.9 0-13.3-2.8-21.1-7.1-4.4-2.4-9.4-5.1-11-5.9-3.5-1.8-4.6-3.1-4-4.7.2-.6.5-7.4.6-15 .1-12 .4-14.3 2.3-17.6 2.1-3.8 2.1-3.8-.4-5.7-3.2-2.5-3.5-2.5-5.2.2m4.7 1.8c.4.6-.1 2.3-1.1 3.8-2.1 3.3-12.8 13.9-17.7 17.6-2 1.6-3.4 3.2-3.1 3.7.6 1.1 4.3-1.8 12.7-9.8 3.1-3.1 5.7-5.2 5.8-4.7.4 4.7-.4 25.1-1.1 25.8-.4.4-4.7-1.3-9.4-3.9-7.7-4.2-8.6-5-9.2-8.1-.3-1.9-.5-3.7-.3-3.9 6.9-7.6 20.7-21.3 21.6-21.4.6 0 1.5.4 1.8.9m-34.8 15.7c.3 1 1.5 2.8 2.6 4 1.1 1.3 1.5 2.3.9 2.3-.7 0-1.2 1.1-1.2 2.5 0 2.9-2.8 4.5-4.1 2.4s-1.1-2.6 1.3-3.2c2-.6 2.1-.7.6-2.4-2.2-2.4-3.4-7.3-1.9-7.3.6 0 1.4.8 1.8 1.7m8.7 4c.2 1 .7 2.8 1.1 4 .8 2.7-1 3-4 .7-2-1.6-2-1.6.3-.9 2.6.8 2.7.2.6-3-1.5-2.2-1.5-2.5-.1-2.5.9 0 1.8.8 2.1 1.7m-36.6 11.5c-.3 10.3-.3 10.3-2.8 10.1-1.4-.1-20.4-.2-42.2-.3l-39.8-.1V422h85.1zm25.9-9.5c-.4.3-1 .3-1.4 0-.3-.4 0-.7.7-.7s1 .3.7.7m-3 6.5c-.3.8-.6.5-.6-.6-.1-1.1.2-1.7.5-1.3.3.3.4 1.2.1 1.9m11.3-.2c0 1.3-.5 1.8-1.5 1.4-.8-.4-1.5-1.2-1.5-2s.7-1.4 1.5-1.4 1.5.9 1.5 2m5.1 2.3c-.1 1.2-1.5.9-1.9-.4-.3-.6.1-1 .8-.8.6.3 1.1.8 1.1 1.2m-8.8.3c1 1.1-6 5.3-10 6-3.8.7-3.8.7-1.4-2 1.5-1.6 3.5-2.6 5.2-2.6 1.5 0 3.1-.5 3.4-1 .7-1.1 1.9-1.3 2.8-.4m14.2 1.7c1.8 1.2 10.6 6 27.3 14.8 7.3 3.9 7.3 3.9 6.6 5.1-.5.7-1.1.5-2-.6-1.4-2-2.9-.5-2 2 .3.8-.1 1.7-.9 2-2.8 1.1-1.4 2.9 5.3 6.9 3.7 2.1 6.9 4.2 7.2 4.5s4.2 2.5 8.8 4.9c8.3 4.3 8.3 4.3 18.5 2.5 16.2-2.7 19-2.8 23.3-.6 5.7 2.8 15.5 8.2 18.4 10.2 1.4.9 3.4 2 4.5 2.5 2.6 1.1-25.8 5.4-37.5 5.8-9.5.2-11.4-.5-28.9-11.2-6.6-4.1-7.6-5.1-7.9-7.9-.4-3.7-1.9-4.8-14.3-11.6-4.8-2.5-9.7-4.5-11-4.4-3.6.2-14.3-5.8-14.9-8.4-.4-1.4-3.5-3.8-9.2-7.1-5.9-3.3-8.5-5.4-8.1-6.3.7-1.9 1.9-1.8 4.3.6 1.9 1.9 2.2 1.9 4.9.5 1.6-.8 3.2-2.4 3.6-3.5.7-2.4 1.4-2.5 4-.7m-7.5.7c1.7 1 1.4 1.5-1.7 2.4-1.6.5-2.3.3-2.3-.7 0-2.6 1.5-3.3 4-1.7m-6.5 8c2.8 1.6 6.7 3.9 8.8 5 3.8 2.1 5.2 6 2.2 6-.8 0-1.5-.3-1.5-.8 0-.4-1-1.2-2.3-1.7-1.2-.6-4.5-2.4-7.4-4-4.4-2.5-5.5-2.7-7.7-1.7-6.4 2.9-.4 14.6 10.4 20.3 2.5 1.3 4.7 2.6 5 2.9.5.5.5.5 12.5 7 4.4 2.3 8.5 4.6 9 5 4.4 3.2 14.5 7.8 15 6.9.5-.6 1.2-.4 1.9.7.7.9 1.8 1.4 2.4 1 1.9-1.2 1.4-3.7-.9-4.3-1.6-.5-2-1.2-1.7-4.4.2-2.2.7-3.8 1.3-3.7.5.2.8 1.5.6 3-.1 1.6.2 2.8.8 2.8.5 0 1.2-1.2 1.4-2.8.2-1.5.5 1.7.6 7 0 5.4-.1 9.8-.4 9.8-.5 0-11.2-5.7-24-12.8-4.4-2.4-9.7-4.6-11.7-4.7-2-.2-8.4-2.8-14.5-6.1-16.9-8.9-15.3-6.7-15.3-20.5 0-11.8 0-11.8 3.3-12.2 6.3-.8 7.3-.6 12.2 2.3m-1.5 6c2.2 1.1 4 2.2 4 2.5 0 .2-1.7 1.6-3.7 3-3.8 2.5-3.8 2.5-5.5.3-2.5-3.3-2.3-7.8.4-7.8.5 0 2.7.9 4.8 2m101.5 6.1c2.2 1 6 3 8.5 4.5 5.7 3.4 7.3 4.3 38.3 21.3 9.2 5 19 10.5 21.8 12.1 2.7 1.7 5.2 3 5.4 3s2.8 1.4 5.7 3.2c2.9 1.7 8.2 4.7 11.8 6.6 13.2 7.2 32.6 18.1 34.8 19.7 2.8 2 2.9 6.1.2 9.5-2.1 2.6-2.7 9.4-1 10.5 1.9 1.2 1 4.1-2 5.8-2.9 1.8-3.1 1.7-7.7-.9-10.2-5.6-16.9-9.8-18-11.2-.8-1-1.3-4.6-1.3-9.3 0-6.8-.3-8.1-2.6-10.8-1.4-1.6-4.8-4.3-7.7-6-2.9-1.6-7-3.9-9.2-5.2-2.2-1.2-8.5-4.8-14-7.9-5.5-3.2-16.5-9.4-24.5-14-35.3-20.1-34-19.5-39.8-19.4-4.9.2-5.1 0-3.3-1.3 1.3-.9 2.1-2.5 2.1-4.3 0-8.3-15.5-9.7-19.3-1.7-1.9 3.9-1.3 5.3 3.2 7.6 3.6 1.9 3.6 1.9-4 2.6s-7.6.7-14.4-3.4c-3.7-2.3-7.1-4.1-7.6-4.1-1.4 0-1-1.6.7-3.1 1.1-.9 3.8-1.2 7.9-1.1 4.8.3 7.4-.2 11-1.9 8.9-4.2 17.1-4.5 25-.8m-90.7-.1c1.7 1.1 3.2 2.6 3.2 3.3 0 1.4 14.7 9.7 17.1 9.7.7 0 4.1 1.5 7.6 3.2 6.3 3.3 6.3 3.3 6.3 9 0 3.2-.3 5.8-.7 5.8-.5 0-7.3-3.7-15.3-8.1-8-4.5-17-9.5-20-11.2-6.8-3.7-11-6.6-11-7.5.1-.9 7.2-6 8.5-6.1.6-.1 2.5.8 4.3 1.9m11.2 3c1.4.9 3.3 2 4.3 2.3 1.8.7 2.4 3.7.7 3.7-.9 0-5.3-2.3-9.9-5.1-2.9-1.9-2.8-4.3.2-3.3 1.2.3 3.3 1.4 4.7 2.4m34.3-2c.7.1.1 1-1.2 2-2.2 1.9-8.1 2.8-8.1 1.2 0-1.3 5.4-4.2 6.8-3.7.8.3 1.9.5 2.5.5m38.7 1.5c2.6 3.2-3.8 6.4-10 5-3.4-.8-4.1-3.8-1.2-5.4 2.6-1.6 9.8-1.3 11.2.4m-62.6 6.8c-.3.9-1 1.7-1.5 1.7-1.1 0-1.2-3.4-.2-4.3 1.1-1.2 2.4.8 1.7 2.6m14.6 4.5c1.4.7 3.2 1.8 4.1 2.5 1.7 1.3 3.2 4.7 2.1 4.7-.4.1-4.6-1.8-9.4-4.2-7.8-3.8-8.7-4.6-8.8-7 0-2.7 0-2.7 4.8 0 2.6 1.5 5.8 3.3 7.2 4m8.4-5.9c.4.5 3.9 2.8 7.9 5.1 8.2 4.8 10 5 26.2 2.5 5.5-.8 11.2-1.5 12.6-1.5 3.1 0 14.1 5.5 30.9 15.5 5.4 3.2 8.8 5.2 18 10.3 2.5 1.4 6.3 3.5 8.5 4.7 2.2 1.3 9.6 5.4 16.5 9.3 13.3 7.4 20 12.5 20 15 0 1.3-.4 1.2-2.2-.4-2.5-2.2-9.2-6.4-18.2-11.3-5.9-3.3-7.5-3.1-7.6.6 0 1.7-.7 1.6-3.8-.6-1.5-1-7.2-4.2-12.7-7.1s-11.2-5.8-12.6-6.6c-1.9-1-2.8-2.5-3.3-5.3-.4-3-1.4-4.4-4.3-6.4-5.3-3.5-11.4-7-21-11.8-8.3-4.2-8.3-4.2-16.5-2.5-15.9 3.1-20 3.2-25.5.4-6-3.1-14.2-7.7-16.8-9.4-1.9-1.3-1.8-1.4.7-1.4 1.5 0 2.9.4 3.2.9m40.6.6c0 .3-.2.5-.5.5s-.5-.2-.5-.5.2-.5.5-.5.5.2.5.5m-3.5 1.5c-.3.5-1.1 1-1.6 1-.6 0-.7-.5-.4-1 .3-.6 1.1-1 1.6-1 .6 0 .7.4.4 1m-4.8.6c-.3.3-1.2.4-1.9.1-.8-.3-.5-.6.6-.6 1.1-.1 1.7.2 1.3.5m-29.2 24.2c1.4 1.1 2.5 2.4 2.5 2.9 0 .8-5.1 4.3-6.4 4.3-.3 0-.6-3.5-.5-7.8.1-6.4.2-7.2 1-4.5.5 1.7 2 4.1 3.4 5.1m5.7-4c18.3 11.1 23.1 12.5 36.9 10.5 4.8-.7 12-1.7 16-2.1 4.1-.5 8.2-1.2 9.2-1.7 1.3-.5 1.7-.2 1.7 1.4 0 2.3-.5 2.5-12.5 4.2-4.4.6-10.5 1.5-13.5 2-12.7 1.9-16.2 2.1-18.3 1.2-1.2-.6-3.5-1.6-5.2-2.2-4.1-1.7-16.5-9-19.2-11.5-2-1.7-3.2-5.6-1.8-5.6.2 0 3.3 1.7 6.7 3.8M465 493c0 1.1-.4 2-1 2-.5 0-1-.2-1-.4s-.3-1.1-.6-2c-.4-1.1-.1-1.6 1-1.6.9 0 1.6.8 1.6 2m-60.3 6.7c-.4.3-.7 0-.7-.7s.3-1 .7-.7c.3.4.3 1 0 1.4m13.6 3.3c2.1 0 2.1-.3 0 8.1-1.9 7.8-4.2 10.9-8.2 10.9-2.8 0-2.8 0-2.5-11.3.2-6.1.3-11.3.3-11.4.1-.1 2 .7 4.4 1.7 2.3 1.1 5 2 6 2m-12.6 9.2c-.2 1.8-.4.4-.4-3.2s.2-5 .4-3.3c.2 1.8.2 4.8 0 6.5m101.6.9c6.2 3.2 17.8 11.4 19.1 13.5.9 1.3 1.6 4.5 1.7 7.1.2 8.3.9 9.4 9.4 14.7 9.4 5.7 22.8 12.6 24.7 12.6.7 0 2.4-.9 3.8-2 2.8-2.2 6.3-2.9 4.2-.8-1.8 1.8-1.4 3.8.8 3.8 1.1 0 2-.7 2-1.5 0-1.8.2-1.8 3.7-.3 5.9 2.5 8.1 4.6 7.5 7.3-.3 1.8 0 2.5 1.2 2.5.9 0 1.6-.8 1.6-2 0-2 0-2 4.2.1 4.1 2.1 4.1 2.1 2 3.8-1.2.9-2.5 3.1-2.8 4.9-.9 4.3-1.7 4.6-5.6 2.2-1.8-1.1-4.9-2-6.8-2-4.3-.1-13.4-5-13.9-7.6-.5-2.5-1.7-3.3-15.4-10.5-10-5.1-12.4-6-15-5.4-7.2 1.5-9.1 1-18.5-5.1-5-3.2-9.5-6.8-10-7.9s-1-7.3-1.1-13.7c-.1-6.5-.4-12.4-.7-13.3-.7-1.8.9-1.9 3.9-.4m-102.6 6.6c-.3 1-.5.4-.5-1.2 0-1.7.2-2.4.5-1.8.2.7.2 2.1 0 3M562 539c0 2.2-.4 4-1 4-1.1 0-1.4-6.3-.3-7.3 1.1-1.2 1.3-.8 1.3 3.3m-18.5 9.7c2.6 1.9 1.2 1.4-5.2-1.9-2.8-1.5-5.5-3.3-5.8-3.9-.8-1.1 7.4 3.2 11 5.8m-28.5 2c8.9 6.1 10 6.5 15.8 5.8 5.2-.6 5.2-.6 5.2 2.3 0 2.8-.2 2.9-5.1 3.1-4.2.1-6.2-.5-12.2-3.8-9.4-5.2-12.5-7.9-13.3-11.6-.7-3-.7-3 1.7-1.3 1.3 1 4.9 3.4 7.9 5.5m49.6 1.8c2.9 2.6 2.9 2.6.4 4.5-1.4 1.1-3 2-3.6 2-1.2 0-6-4.8-5.3-5.3.7-.6 5.3-3.7 5.5-3.7 0 0 1.4 1.1 3 2.5m-15.1-.5c.3.5.1 1-.4 1-.6 0-1.1-.5-1.1-1 0-.6.2-1 .4-1 .3 0 .8.4 1.1 1m3 2c.3.5.4 1 .1 1s-.8-.5-1.1-1c-.3-.6-.4-1-.1-1s.8.4 1.1 1m104.5 2.8c0 1.3-12.6 13-19.5 18.3-5.2 3.9-17.3 10.9-19 10.9s0-1.9 3.1-3.4c5.7-2.7 14.2-9.7 22.4-18.4 5.6-6 8.2-8 10.3-8.1 1.5 0 2.7.3 2.7.7m-107.1 5.3c5.3 2.8 10.2 5.6 10.9 6.1 1.1 1 1.8 5.8.8 5.8-.3 0-5.5-2.5-11.5-5.5-10.4-5.2-11.1-5.7-11.1-8.5 0-1.7.3-3 .7-3 .3 0 4.9 2.3 10.2 5.1m108.1 5.7c0 6.3-.4 8.2-1.7 9.5-2.2 1.9-17.4 9.1-22.8 10.7-2.2.6-4.7 1.4-5.5 1.7-2.6 1.1-15.1 1.2-14.5.2.4-.5 1.3-.9 2.1-.9 2.7 0 17.5-7.9 23.7-12.7 3.4-2.6 8.6-7.3 11.7-10.5 3-3.1 5.8-5.7 6.3-5.7.4-.1.7 3.4.7 7.7m-120.4-2.1c.3 1 .8 2.5 1.1 3.3.4 1.3.6 1.2 1.7-.3 2.1-2.8 2.6-2 2.6 3.6 0 6.2.5 6.8 9.5 11.7 3.3 1.8 10.1 5.5 15 8.2 5 2.8 13.6 7.5 19.2 10.5l10.3 5.5 3.1-3.2q3.15-3.15 4.2-2.1c.8.8 1.2 12.9.4 13.7-.2.2-1.4-.3-2.7-1-1.4-.7-6.8-3.4-12-6.1-11.7-6-18-10.2-18-11.9 0-.7-5.3-3.9-11.7-7.3-17.2-8.7-23.3-12.3-23.3-13.8 0-.7-.9-2.4-2-3.8-2.7-3.5-2.7-8.7 0-8.7 1.1 0 2.3.8 2.6 1.7m16.2 7.1c4 2.1 8 4.8 8.8 6 2.2 3.2 11.3 8.2 14.9 8.2 2.9 0 17.3 6.8 20.8 9.8 2.2 1.9 1.9 6.1-.5 7.6-1.3.8-3 .3-7.5-2.1-13.7-7.2-22-11.7-24.3-13.3-1.4-.9-6.3-3.7-11-6.1s-8.8-4.9-9.2-5.4c-1-1.3-1-8.5 0-8.5.4 0 4 1.7 8 3.8m42.3 1.6c-.9 1-.8 1.6.3 2.5 1.1 1 1.6.8 2.4-.5.9-1.5 1.3-1.6 2.6-.5.9.7 1.6 2.2 1.6 3.3 0 2.1-1.5 2.1-7.5-.2-3.6-1.4-3.4-6 .3-6 1.1 0 1.2.3.3 1.4m-25.3 2.6c3.2 1.9 5.2 3.7 5.2 4.9 0 2.8-1.1 3.2-3.9 1.3-1.4-1-3.8-2.4-5.3-3.2-1.9-.9-2.8-2.1-2.8-3.7 0-2.9.4-2.9 6.8.7m39.9 5.7c-.2 3.2 2.2 4.3 3 1.4.6-2.4 2.3-1.8 2.3.9s-3.4 3.4-6.7 1.3c-3.5-2.2-4.3-3.3-4.3-6 0-2 .3-2.1 2.9-1.2 2.3.8 2.9 1.6 2.8 3.6m-30.7-.2c0 1.4-.4 2.5-1 2.5-.5 0-1-1.1-1-2.5s.5-2.5 1-2.5c.6 0 1 1.1 1 2.5m21.7 9.6c3.5 3.3 4.5 7.9 1.8 7.9-.8 0-1.5-.6-1.5-1.4 0-2.1-4.8-5.7-12.8-9.5-6.4-3.1-7.2-3.8-7.2-6.3 0-2.8 0-2.8 8.2 1.6 4.5 2.5 9.7 5.9 11.5 7.7m-3.9-10.6c1.2.4 2 1.1 1.7 1.6-.9 1.4-2.8 1-5.5-1.2-2.6-2.1-2.4-2.2 3.8-.4m5.2 3c0 .3-.2.5-.5.5s-.5-.2-.5-.5.2-.5.5-.5.5.2.5.5m-57.3 6c-.3 7.2-1.7 7.2-1.7 0 0-3 .4-5.5.9-5.5.6 0 .9 2.5.8 5.5m56.1-4.3c.7.7 1.2 1.8 1.2 2.5 0 1.1-.6.9-2.4-.4-1.3-1-2.2-2.1-1.9-2.6.6-1 1.7-.9 3.1.5m8.1 3.2c1 1.2.8 1.6-1 2.1-2.3.8-3.9-.7-3.9-3.8 0-1.4.4-1.6 1.8-.8 1 .5 2.4 1.7 3.1 2.5m-57.7 3.1c-1.3 2.8-4.2 3.4-4.2.8 0-.9.8-2.5 1.7-3.5 2.3-2.6 4-.7 2.5 2.7m85.1-1.4c1.2.6 3 2.1 3.9 3.3 1.4 1.7 1.9 1.9 2.9.8.7-.6 1.6-1.2 2-1.2 1.3 0 4.8 6.9 3.8 7.5-.5.4-.9 1.7-.9 3 0 2.8 2.8 4.2 3.7 1.8.6-1.4.8-1.4 2 .3.7 1 1.3 2.6 1.3 3.5 0 1.7-.3 1.6-3.9-.3-2.4-1.2-4.2-3.1-4.6-4.5-.3-1.5-2.1-3.1-5-4.5-2.5-1.2-4.5-2.7-4.5-3.3 0-.7-.9-2-2-3-1.8-1.7-2.7-4.5-1.4-4.5.3 0 1.5.5 2.7 1.1m-82.3 3.4c-.7 1.4-2 2.5-2.9 2.4q-1.65 0-.3-.6c.7-.3 1.8-1.6 2.3-3s1.2-2.3 1.6-1.9c.3.3 0 1.7-.7 3.1m81 4c0 1-3.3 3-16.4 10.3-3.2 1.8-7.1 4.1-8.6 5.2-3.2 2.3-3.9 1.9-3.2-1.6.3-1.9.7-2.2 1.3-1.2.7 1 1.2 1 2.6-.4 2.3-2.3.3-4.9-2.2-2.8-1.3 1.1-1.5.7-1.6-2.6-.2-6-.6-8.8-1.3-10.4-.7-1.7-1-1.6 11.9-2 4.4-.2 8.9-.6 10-1.1 1.5-.6 2.6-.1 4.8 2.4 1.5 1.7 2.7 3.6 2.7 4.2m15.7-3.7c3 4 7.5 13.2 7.1 14.4-.4 1-7.8-10.7-7.8-12.2 0-.4-.7-1.3-1.5-2s-1.5-1.6-1.5-2.1c0-1.7 1.6-.9 3.7 1.9"/><path d="M225.7 423.6c-.4.4-.7 2.4-.7 4.5 0 3.2.3 3.6 2 3.2 1.7-.5 2 0 2 2.6 0 3.1-2.4 4.5-3.2 1.9-.3-.9-.6-.9-1.1-.1-.4.6 0 1.9.9 2.8 1.5 1.5 1.8 1.5 3.6-.2 2.6-2.3 2.1-7.5-.9-8.8-1.3-.5-2.3-1.5-2.3-2.2 0-.6 1-1.3 2.3-1.5 1.2-.2 2.2-.8 2.2-1.3 0-1.2-3.8-1.9-4.8-.9M237.2 424.2c-1.7 1.7-1.5 3.3.3 1.8 1.2-1 1.6-.9 2.1.4.3.9.1 2.3-.6 3.2-1 1.1-1 1.8-.2 2.6 1.7 1.7 1.5 4.8-.2 4.8-.8 0-1.6-.6-1.9-1.3-.2-.6-.8-.9-1.3-.4-.4.4.1 1.7 1.3 2.8 1.8 1.9 2.1 1.9 3.6.4 1.3-1.2 1.6-3 1.3-7.5-.5-7.7-1.7-9.5-4.4-6.8M259.8 431.6c-.2 5.6.1 7.8 1 8.2.7.2 1.4.3 1.6.1.6-.9-.7-15.9-1.4-15.9-.5 0-1 3.4-1.2 7.6M269.4 425.4c-.3.7-.4 4-.2 7.2.2 4.8.6 5.9 2.2 6.2 1 .2 2.2-.2 2.7-1 1.3-2 1.1-11.2-.3-12.6-1.6-1.6-3.7-1.5-4.4.2m3.6 6.1c0 3-.4 5.5-1 5.5-.5 0-1-2.5-1-5.5s.5-5.5 1-5.5c.6 0 1 2.5 1 5.5M280 425.9c-.5 1.1-1 3.6-1 5.6s.5 4.5 1 5.6c1.3 2.3 4.6 2.5 5.4.3.8-2 .8-8.2 0-11.2-.8-2.7-3.9-2.9-5.4-.3m4 5.7c0 4-.4 5.5-1.2 5.2-1.4-.5-2.3-7-1.4-9.4 1.2-3.2 2.6-1.1 2.6 4.2M246.5 432c.3.5 1.9 1 3.6 1 1.6 0 2.9-.5 2.9-1 0-.6-1.6-1-3.6-1-2.1 0-3.3.4-2.9 1M344.2 436.2c.6 1.8 2.8 2.1 2.8.4 0-.9-.7-1.6-1.6-1.6s-1.4.5-1.2 1.2M360.2 444.1c.2.6.8 1 1.3 1s1.1-.4 1.3-1-.4-1.1-1.3-1.1-1.5.5-1.3 1.1M352.5 446c-.7 1.2.2 3 1.6 3 1.2 0 1.2-2.7 0-3.5-.5-.3-1.2-.1-1.6.5M355.8 449.1c-4 2.3.1 7.1 4.2 4.9 2.5-1.4 2.6-3.6.1-5-2.3-1.2-2.2-1.2-4.3.1m3.7 2.9c-.3.5-1.3 1-2.1 1s-1.4-.5-1.4-1c0-.6.9-1 2.1-1 1.1 0 1.7.4 1.4 1M366 449c-1.3.8-1.3 1.2.3 2.7 1.5 1.6 1.9 1.6 2.7.3 1.8-2.8-.2-4.8-3-3M369.7 454.6c-.9 1 .2 2.4 1.9 2.4.8 0 1.4-.7 1.4-1.5 0-1.5-2.1-2.1-3.3-.9M416.1 478.1c-2.8 1.1-5 3.7-5.1 6 0 2.5 4.8 6.8 8.5 7.5 8.5 1.6 16.5-4.6 13-9.9-2.8-4.3-10.4-6-16.4-3.6m12.3 4.9c5.4 2 1.7 5.9-5.7 6-5.4 0-8.7-1.3-8.7-3.5 0-3.2 8.7-4.7 14.4-2.5M321.6 456.7c-1.2 1.2-.6 4.3.9 4.3.8 0 1.5-.9 1.5-1.9 0-2.1-1.3-3.4-2.4-2.4M488.4 490.5c-.6 1.6.2 3.5 1.6 3.5s4.1-3.1 3.5-4.1c-.9-1.4-4.5-1.1-5.1.6M517.6 506.9c-1.5 1.7-1.5 1.9-.1 2.4 2 .8 4.5-.2 4.5-1.8 0-2.1-2.7-2.5-4.4-.6M537.2 518.7c-2 .4-6.2 5.5-6.2 7.5 0 .4 1 1.6 2.2 2.8 4.7 4.3 17.8 1.5 17.8-3.9 0-4.5-7.1-7.7-13.8-6.4m9.4 2.8c1.9 1.5 1.9 1.5 0 3-1.1.8-2.7 1.5-3.5 1.4q-1.65 0-.3-.6c.6-.2 1.2-1.4 1.2-2.4 0-1.6-.6-2-2.7-1.7-2.2.2-2.8.8-2.7 2.6 0 1.6-.4 2.1-1.3 1.7-.8-.3-1.7-.5-1.9-.5s-.4-.7-.4-1.5c0-3.3 8-4.7 11.6-2m-2.3 5.7c3.8-1 4-.9 2.2.4-2.4 1.8-11.6 1.5-12.2-.3-.4-1 .3-1 2.7-.2 2.2.8 4.3.8 7.3.1M418 457.5c-2.3 2.7 1.5 4.7 4.9 2.6 1.2-.8 1.2-1.2.2-2.5-1.7-2-3.5-2-5.1-.1M409.6 508.9c-.9 1.4.4 4.1 2.1 4.1.9 0 1.3-.8 1.1-2.2-.3-2.3-2.3-3.5-3.2-1.9M511.1 532.3c-5.6 2.8-5.3 8.9.4 11.3 4.6 1.9 7.4 1.8 11.3-.6 2.5-1.5 3.2-2.7 3.2-5 0-5.4-8.9-8.8-14.9-5.7m11.4 5.1c4.6 3.3-4.7 7.1-10.4 4.2-1.7-.9-3.1-2.1-3.1-2.6 0-2.9 10.1-4.1 13.5-1.6M573.3 564.6c-.4 1 .1 2.2 1.2 3 1.5 1.1 1.6 1.6.5 2.9-1.9 2.3-.5 4.5 3 4.5 4 0 5.1-2.7 2.2-5.1-1.2-.9-2.2-2.3-2.2-3.1 0-1.5-1.9-3.8-3.2-3.8-.5 0-1.1.7-1.5 1.6m6.2 7.4c.3.5-.3 1-1.5 1s-1.8-.5-1.5-1c.3-.6 1-1 1.5-1s1.2.4 1.5 1M567.6 566.9c-.9 1.4.5 4.2 1.8 3.8 1.5-.5 1.4-3.9-.1-4.4-.6-.2-1.4 0-1.7.6M585.4 573.1c-.3.6 0 1.7.8 2.5 1.3 1.3 1.6 1.3 2.8-.1s1.1-1.8-.1-2.6c-1.9-1.2-2.6-1.1-3.5.2M538.3 572.6c-.8 2.1 1.3 4.2 2.8 2.7 1.3-1.3.5-4.3-1.1-4.3-.6 0-1.3.7-1.7 1.6M600 609.1c0 2.4 2.3 2.1 2.8-.4.2-1-.3-1.7-1.2-1.7-1 0-1.6.9-1.6 2.1M679 488.5V499h-36.9l-1.2-4c-1.8-5.9-4.9-6.4-9.8-1.6-2 2-4.6 3.6-5.7 3.6-2.6 0-5.4 3-5.4 5.8 0 1.1-.4 2.3-.9 2.6s-4.5 8-9 17.1c-4.4 9.1-8.5 16.5-9 16.5s-2.5-.7-4.5-1.5c-3.3-1.4-3.7-1.4-5.5.4-2.4 2.4-1.9 4.5 2.9 13.9 3.3 6.4 6.1 9.1 13.5 13.2 3.1 1.8 4.9 2.1 8.7 1.6 3-.4 5.4-.2 6.6.5 2.4 1.5 5.2.5 5.2-1.9 0-1.3.7-1.8 2.8-1.7 2.3 0 2.7-.4 3-3.2.2-1.8-.1-4.1-.7-5.1-.8-1.5-.7-2.8.4-4.9.8-1.6 1.7-5.6 2.1-8.8 1-8.6 2.8-12.1 7.7-15.2 8.7-5.6 9.9-9.8 4.2-15-2.7-2.5-3.5-4-3.5-6.8V501h35v21l38 .1c20.9.1 38.9.1 40 .1s2.5 0 3-.1c.6-.1 1-8.2 1-22.1v-22h-82zm72.8-8.7 7.2.4V521h-78v-42.1l31.8.3c17.4.2 35 .4 39 .6m-112.2 16.7c1.3 3.1 2.4 6.1 2.4 6.9 0 1.7-8.8 6.2-9.9 5-.5-.5-1.2-2-1.6-3.3-.5-1.7-.4-2.2.6-1.9 2.3.9 4.9-1.1 4.9-3.7 0-3.2-3.3-3.4-4.7-.3-.8 1.8-1.1 1.9-1.5.6-.7-1.6 4.5-8.8 6.3-8.8.6 0 2.1 2.5 3.5 5.5M626.3 508c1.6 3.3 5.5 3.7 10.6 1.1 4.8-2.5 4.7-2.5 5.4-.7.4 1-.7 2.3-2.9 3.6-4 2.5-5.4 4.9-8.9 15.3-3 9.1-3 9.2-.5 14.5 2.6 5.3 2.6 9.1.1 4.2-4.3-8.1-4.4-10.7-1.2-20.4 3.3-10.1 3-13-1.7-12.4-2.4.3-2.7-.1-4-5.4-1.6-6.5-.6-12 1-5.8.5 1.9 1.5 4.6 2.1 6m1.9-5.8c.3 1.8.8 4.1 1.3 5 .4 1.1.3 1.8-.3 1.8-1 0-3.2-6-3.2-8.8 0-2.6 1.8-1 2.2 2m6.2-1.7c-.4.8-.8 1.5-1 1.5s-.4-.7-.4-1.5.4-1.5 1-1.5c.5 0 .7.7.4 1.5m-13.5 9.6c-2.9 1.8-3.6 1-1.8-2.3 1.1-2 1.2-2 2.1-.3.8 1.2.7 2-.3 2.6M619 516c.5 0 1.6-.7 2.4-1.6.9-.8 1.6-1.1 1.6-.5s-1 1.9-2.2 2.9c-6.4 5-8.8 8.1-8.8 11.2 0 1.8 2.6 8.5 6 15.7 3.3 6.9 6 13.3 6 14.3s-2 3.1-4.7 4.9l-4.8 3.1-1.9-4.3c-1.4-3-2.1-3.7-2.4-2.4-.2 1 .2 2.5.9 3.3 2.3 2.8.1 2.4-5.8-1-6-3.5-9.2-7.8-7.5-10 1.5-1.7-.2-5-2.9-5.6-1.9-.5-2.5-1.3-2.7-4.3-.2-2 0-3.7.5-3.7 2.4 0 9.3 3.7 9.3 5.1 0 .8.7 2.4 1.6 3.5 1.5 1.8 1.5 1.7.9-1.1-.4-1.7-.8-3.5-.9-4 0-.6 2.8-7.2 6.4-14.7 4.4-9.2 6.8-13.1 7.3-12.2.4.8 1.2 1.4 1.7 1.4m20.7.6c-1 3.3-.9 3.8 1.3 5.6s2.3 2.1.7 2.9c-4.4 2.5-7.7 9-7.7 15.3 0 1.4-.3 2.6-.7 2.6-1.1 0-3.3-5-3.3-7.5 0-3.1 6.8-19.8 8.7-21.3 2.3-1.6 2.3-1.7 1 2.4m6.3-3.1c0 .3-.2.5-.5.5s-.5-.2-.5-.5.2-.5.5-.5.5.2.5.5m-16.6 2.3c.3.5-.8 4.9-2.4 9.9-3.2 10-3.1 12.1 1.6 21.6 1.8 3.9 1.8 3.9-.6 5.7-2.5 1.9-2.5 1.9-8.2-9.8-6.6-13.5-7.2-17.2-3-20.7 1.5-1.3 4.1-3.5 5.7-4.9 3-2.5 5.9-3.3 6.9-1.8m14.6 0c0 1.3-1.2 2.2-2.2 1.6s-.1-2.4 1.3-2.4c.5 0 .9.4.9.8m5-.3c0 .3-.2.5-.5.5s-.5-.2-.5-.5.2-.5.5-.5.5.2.5.5m-1 2.9c0 .3-.5.8-1.2 1.2s-.8.3-.4-.4c.7-1.2 1.6-1.6 1.6-.8m-6.3 2.3c-.4.3-.7 0-.7-.7s.3-1 .7-.7c.3.4.3 1 0 1.4m4 2c-.4.3-.7 0-.7-.7s.3-1 .7-.7c.3.4.3 1 0 1.4M632 559.2c0 4.5-1.6 3.2-1.7-1.4-.2-3 .1-3.8.7-2.8.5.8 1 2.7 1 4.2m-3.4.4c-.3.8-1 1.4-1.6 1.4-1.1 0-1.4-4.3-.3-5.4 1-1 2.6 2.3 1.9 4m-3.4 6.6c-.9.9-1.2.4-1.1-2.3 0-3.2.1-3.3 1.1-1.1.8 1.7.8 2.6 0 3.4m-3.2-2.7c0 .3-.2.5-.5.5s-.5-.2-.5-.5.2-.5.5-.5.5.2.5.5"/><path d="M685.9 485.7c-1.8 2-2 2.5-.6 2 1.5-.6 1.7 0 1.7 4.3 0 2.8.5 5 1 5 .6 0 1-3 1-7 0-3.9-.1-7-.3-7s-1.4 1.2-2.8 2.7M694.6 484.7c-.2 1-.7 2.8-1.1 4-.6 2.1-.4 2.2 2.4 1.7 2.3-.5 3.2-.2 3.7 1 1 2.7-1.2 4.3-3.7 2.8-2.7-1.7-3.8-.6-1.6 1.5 1.3 1.3 2.3 1.5 4.4.7 4.7-1.6 4-8.4-.9-8.4-2.6 0-1.8-2.4 1-2.8 3.3-.5 2.7-2.2-.7-2.2-2 0-3.1.6-3.5 1.7M711.4 484.4c-1 .8-1.5 1.8-1.1 2.2.4.5 1.2.2 1.7-.5 1-1.6 4-.7 4 1.2 0 .7-1.6 2.8-3.5 4.7-1.9 1.8-3.2 3.7-2.9 4.2.7 1.2 8.4 1 8.4-.2 0-.6-1.1-1-2.5-1s-2.5-.2-2.5-.5c0-.2 1.1-1.5 2.5-2.9 3-3 3.2-6.1.6-7.6-2.5-1.3-2.3-1.3-4.7.4M731.6 485.2c-3.2 4.6-1.4 11.8 3 11.8 4.3 0 6-8.4 2.4-12-2.6-2.6-3.5-2.5-5.4.2m4.3 1.2c.7.8 1.1 3 .9 4.8-.2 2.5-.8 3.3-2.3 3.3-2.2 0-3.1-3-2.1-7.1.7-2.7 1.8-3 3.5-1"/><path d="M743.3 484.2c-5 2.4-3.4 12 2 12.6 3.1.4 7.1-2.4 6-4.1-.4-.6-1.1-.3-1.9.7-.7 1-2.2 1.6-3.6 1.4-1.9-.2-2.3-1-2.6-4.5s0-4.2 1.8-4.8c1.4-.4 2.8-.1 4.1 1.1 1.7 1.5 1.9 1.5 1.9.1 0-1.5-2.9-3.8-4.7-3.6-.4 0-1.8.5-3 1.1M722.1 488c-3.5 4.4-3.4 6 .5 6 1.5 0 2.4.6 2.4 1.5 0 2.1 1.7 1.9 2.2-.3.6-2.5-.3-11.2-1.1-11.2-.4 0-2.2 1.8-4 4m2.9 2c0 1.1-.7 2-1.5 2-1.3 0-1.4-.4-.5-2 .6-1.1 1.3-2 1.5-2 .3 0 .5.9.5 2M703 492c0 .5 1.1 1 2.5 1s2.5-.5 2.5-1c0-.6-1.1-1-2.5-1s-2.5.4-2.5 1M685.6 505.1c-1.7 1.7-1.8 1.9-.3 1.9 1.3 0 1.7 1 1.7 4.5 0 2.5.5 4.5 1 4.5.6 0 1-2.8 1-6.5 0-3.6-.3-6.5-.7-6.4-.5 0-1.7.9-2.7 2M694.7 503.7c-.2.5-.7 2-1.1 3.5-.6 2.6-.5 2.7 2.4 2.2 2.2-.5 3.1-.2 3.6 1 .9 2.5-1.4 4.8-3.6 3.6-3.6-1.9-4.3-.3-.9 1.8 1.7 1.1 2.5 1.1 4.5-.3 3.5-2.3 3.2-6.4-.6-7.8-3.6-1.4-3.9-2.7-.5-2.7 1.4 0 2.5-.5 2.5-1 0-1.2-5.7-1.4-6.3-.3M710.7 503.7c-.4.3-.7 1.3-.7 2.1 0 1.2.3 1.2 1.5.2 1.5-1.3 4.5-.7 4.5.8 0 .5-1.6 2.6-3.6 4.6-4.1 4.3-3.6 5.9 1.7 5.4 3.8-.3 4.2-2 .8-2.8-2-.5-2-.6-.5-1.9 4.6-3.8 4.4-9.1-.3-9.1-1.5 0-3.1.3-3.4.7M721 504.2c0 .7-.3 2.3-.6 3.5-.6 2.1-.4 2.2 2.5 1.7 2.3-.5 3.2-.2 3.7 1.1.9 2.3-2.1 5.4-3.8 3.7-1.4-1.4-2.8-1.6-2.8-.2 0 .5.9 1.4 2 2 4.4 2.3 8.8-3.4 5.4-7.1-.9-1-2.3-1.9-3.1-1.9-.7 0-1.3-.5-1.3-1 0-.6 1.1-1 2.5-1s2.5-.5 2.5-1c0-.6-1.6-1-3.5-1-2.1 0-3.5.5-3.5 1.2M731.2 504.2c-1.7 1.7-1.5 7.9.4 10.6s2.8 2.8 5.4.2c2.2-2.2 2.6-7 1-10.1-1.2-2.1-5-2.5-6.8-.7m5.2 2.4c1.1 2.8.6 6.1-1 7.5-1.3 1-1.7 1-2.5-.2-1-1.6-1.2-7.3-.2-8.2 1.1-1.2 3.1-.7 3.7.9M743 505.7c-2.5 5.5-3.9 10.3-3.1 10.7.4.3 1.3-.6 1.9-1.9 1.6-3.6 5.9-3.4 7.3.2.7 1.7 1.3 2.3 1.6 1.5.5-1.2-.1-3.2-3.1-10.5-.6-1.5-1.6-2.7-2.2-2.7s-1.7 1.2-2.4 2.7m4 3.5c0 .5-.7.8-1.5.8-1.5 0-2-2.1-.8-3.3.7-.7 2.3 1.1 2.3 2.5M703.5 511c-.8 1.2 2 2.4 3.5 1.5.6-.3.8-1.1.5-1.6-.8-1.2-3.2-1.2-4 .1M608.5 548c-.3.5-1.9 1-3.4 1-4.4 0-5.5 2.1-2.7 5.3 2.8 3.3 6 3.5 8 .5 2-2.9 2.1-7.8.2-7.8-.8 0-1.8.4-2.1 1m1.5 2.8c0 1-.6 2.7-1.4 3.7-1.4 1.9-1.5 1.9-3.5.1-2.8-2.5-2.7-3.6.3-3.6 1.4 0 2.8-.5 3.1-1 .9-1.5 1.5-1.2 1.5.8M618.2 523.7c-2.6 3.8-3.1 5.5-2 7.5 1.4 2.8 4.5 2.1 7.4-1.7 2.3-3.1 2.5-3.9 1.6-6-1.5-3.3-4.6-3.2-7 .2m5.4.8c.9 2.2-2.3 6.5-4.6 6.5-1.7 0-1.9-.4-1.4-2.7 1.3-4.8 4.8-7.1 6-3.8M448.4 524.3c-.2.7-.5 5.7-.7 11.2l-.2 10-6 3.6c-6.6 3.9-7.3 5.3-10.9 18.4-2.2 8-2.2 8-6.2 8.7-2.1.4-6 .7-8.6.7-2.7.1-4.8.5-4.8 1.1s3.4 1 8.1 1c7.3 0 8 .2 7.4 1.7-5.8 14.7-6.9 19.9-7 32.3-.1 18-.4 17.1 7.8 22.5 6.8 4.6 7.1 4.7 10.8 3.5 4.6-1.5 6.3-1 8.1 2.6 1.4 3 4.3 5.2 5.4 4.2.3-.4.6-7.7.5-16.1-.2-15.4-.2-15.4 2.6-16 1.5-.4 3.5-1.1 4.3-1.6 2.3-1.5.3-2.6-2.5-1.3-4.6 2.1-2.5-.2 4.1-4.7 3.6-2.4 9.1-6.5 12.3-9s7.5-5.9 9.5-7.5c3.5-2.7 3.6-3.1 3.6-9.2 0-6.4 0-6.4-4.2-8.6-2.4-1.2-5.4-2.3-6.8-2.3-1.8 0-2.4-.5-2.2-1.7.3-1.7-5.5-6.8-7.6-6.8-.8 0-1.2-4.7-1.4-15.2l-.3-15.3-6-3.7c-6.5-4-8.3-4.5-9.1-2.5m8.4 4.5c2.3 1.5 2.5 3.3.5 3.9-.6.2-1.3-.5-1.6-1.7-.6-2.4-3.7-2.7-3.7-.4 0 .9.7 2.2 1.6 2.8 1.3 1 1.2 1.4-1 3.5-2.6 2.4-2.6 2.4-2.6-4.3 0-6.5.1-6.7 2.3-6 1.2.4 3.2 1.4 4.5 2.2m5.2 16.8c0 11.4-.2 12.5-1.7 12.2-1-.3-4 .6-6.6 1.9-4.4 2.2-6.7 2.3-6.7.4 0-.4 1.2-1.4 2.8-2.1 4.7-2.4 9.3-6.1 8.7-7.1-.4-.5-2.4-1.8-4.6-2.9-2.1-1.1-3.9-2.7-3.9-3.6 0-1.7 9.3-11.4 11-11.4.6 0 1 4.5 1 12.6m-9.2 4.3c3.4 1.8 3.3 2.3-.7 4.6-1.1.6-1.3.4-.8-.8 1-2.5-1.9-4.2-4.9-2.8-3 1.3-2.7 3.3.7 4.2 2 .5 2.1.7.7 1.4-2.1.8-7.8-1.5-7.8-3.2 0-1.1 6.4-4.9 8.5-5.1.6-.1 2.5.7 4.3 1.7m-4.1 2.8c-.4.3-1 .3-1.4 0-.3-.4 0-.7.7-.7s1 .3.7.7M441 557c2.2 1.1 4 2.6 4 3.2s.7 1.9 1.6 2.9c1.4 1.5 1 3.4-5.1 21.5-3.6 10.9-6.8 20-7 20.2-.7.8-11.5-5.2-11.5-6.4 0-1.1 1.6-6.3 3-9.9.7-2 1.8-5.4 7.6-24.2 1.6-5.1 3-9.3 3.2-9.3.1 0 2.1.9 4.2 2m17 11.8c0 8.7 0 8.7-9 23.7l-9 15v14.1c0 11.7-.3 14.3-1.5 14.8-1.3.5-1.5-1.7-1.5-15.5 0-15.7.1-16.3 3.6-27.2 2-6.2 4-12.1 4.5-13.2s1.9-5.3 3.2-9.4c2-6.3 2.9-7.6 5.8-9.2 1.9-1 3.5-1.8 3.7-1.9.1 0 .2 3.9.2 8.8m8.1-5.1c4.5 3.2 5.2 7 1.8 10.4-2.4 2.4-1.9 4.5 1.6 6.1 1.5.7 2.5 1.9 2.5 3.3 0 1.2 1.1 3.2 2.5 4.5s2.4 2.7 2.3 3.1c-.2.4-5.2 4.4-11.3 8.9-16.3 12.2-15.5 10.7-15.5 28.3 0 9.6-.4 14.6-1 14.2s-1-6.9-1-16.2v-15.5l6.8-7.2c9-9.4 10.9-11.5 13.9-15.4 2.4-3 2.5-3.4.9-5.1-.9-1-3.4-2.6-5.6-3.6-4-1.8-4-1.8-4-10.2 0-5.3.4-8.3 1.1-8.3.6 0 2.8 1.2 5 2.7m13.4 9.5c3 1.3 3.2 2.4.6 3.8-2.7 1.4-3.1 1.3-2.4-.6.4-1-.1-1.7-1.6-2.1-1.1-.3-1.8-.9-1.5-1.4.7-1.2 1.8-1.1 4.9.3m-7.9 5.6c-1 1-2.9-1.5-2.1-2.8.6-.9 1-.8 1.7.4.6 1 .7 2 .4 2.4m3.4-2.8c0 .5-.4 1-1 1-.5 0-1-.5-1-1 0-.6.5-1 1-1 .6 0 1 .4 1 1m9 5.4c0 3.6-.5 4.7-2.6 6.1-2 1.3-2.8 1.4-4 .4-1.7-1.4-1.8-2.9-.2-2.9 2 0 4.8-3.2 4.8-5.7 0-1.2.5-2.3 1-2.3.6 0 1 2 1 4.4m-8.3-1.8c-.3.3-1.2.4-1.9.1-.8-.3-.5-.6.6-.6 1.1-.1 1.7.2 1.3.5m-11.1 2.5c1.9 1.1 3.4 2.5 3.4 3 0 1.7-20.7 24.2-22.8 24.7-2.9.8-2.1-3.1 2-9.9 2.4-4 5-8.4 5.8-9.8 4.2-7.2 6.3-10.1 7.2-10.1.6 0 2.6.9 4.4 2.1m15.4-1.7c0 .3-.4.8-1 1.1-.5.3-1 .1-1-.4 0-.6.5-1.1 1-1.1.6 0 1 .2 1 .4m-4 1.6c0 .5-.5 1-1.1 1-.5 0-.7-.5-.4-1 .3-.6.8-1 1.1-1 .2 0 .4.4.4 1m-46.5 23 5 2.8v13.4c0 7.3-.1 13.8-.3 14.5-.4 1.2-3.5-.1-9.3-4-2.6-1.7-2.7-2.3-3.4-13.6-.7-12.1-.3-16.1 1.8-16.1.7.1 3.5 1.4 6.2 3m14.9 6.6c1.3.5 1.6 2.6 1.6 12.6 0 10.8-.2 11.9-1.7 11.6-1.6-.3-1.8-1.8-2.1-12.6-.1-6.7-.1-12.2.2-12.2.2 0 1.1.3 2 .6"/><path d="M425 610.8c0 3.1 2.5 5.1 4.3 3.3 1.7-1.7.3-5.6-2-5.9-1.9-.3-2.3.1-2.3 2.6m2.7.9c-.4.3-.7 0-.7-.7s.3-1 .7-.7c.3.4.3 1 0 1.4M426.7 621.6c-1.1 1.1-.8 6.2.3 6.9 1.8 1.1 4.1-1.7 3.8-4.4-.3-2.5-2.7-3.9-4.1-2.5m2 4.1c-.4.3-.7 0-.7-.7s.3-1 .7-.7c.3.4.3 1 0 1.4M320.8 574.2c-.2 5.7-.1 11.3.1 12.6.3 2.2.3 2.2 44.5 2l44.1-.3v-24l-44.2-.3-44.2-.2zm86.2 2.4v10.5l-37.2-.2c-20.5-.2-39.4-.5-42.1-.7l-4.7-.4.1-9.9.1-9.9h41.9l41.9.1z"/><path d="M331.8 567.8c-2.7.5-2.6 8.2.1 8.2 2.3 0 3.5 2.8 2 4.6-.9 1.1-1.5 1.1-2.5.3-1.1-.9-1.4-.8-1.4.4 0 1.7 2.2 2.8 3.7 1.9 1.8-1.2 3.3-5 2.7-6.7-.4-.8-1.5-2-2.5-2.6-2.3-1.2-2.5-4.1-.3-3.7 2 .4 3-1.8 1.2-2.4-.7-.2-2.1-.3-3 0M341.6 568.8c-.4.7-.9 7.8-.7 11.8.1 2.6 2.8 3.9 4.7 2.3.8-.6 1.4-2.7 1.4-4.6 0-2.6-.5-3.6-2-4-2-.5-2.9-4.3-1-4.3.6 0 1 .5 1 1.2 0 .9.3.9 1.1.1.6-.6.8-1.6.5-2.2-.8-1.3-4.2-1.5-5-.3m3.4 9.6c0 1.4-.4 2.8-1 3.1-.6.4-1-.7-1-2.4s.5-3.1 1-3.1c.6 0 1 1.1 1 2.4M363 569.9c-1.3 2.5-1.3 3.1 0 3.1.6 0 1-.7 1-1.5s.5-1.5 1-1.5c1.7 0 1.1 4.8-1 8.7-1 2-1.7 4-1.4 4.5.8 1.2 3.8 1 5.2-.4 1.8-1.8 1.4-3-.8-2.3-2.4.8-2.4.5-.4-3.9 2.8-5.7-.6-12.1-3.6-6.7M374.3 568.7c-1.5.6-1.8 5.3-.3 5.3.6 0 1-.9 1-2s.5-2 1-2c1.7 0 1.1 4.8-1 8.2-2.9 4.7-2.6 6 1.3 5.6 2-.2 3.2-.8 3.2-1.8 0-.9-.7-1.4-1.7-1.2-2.2.4-2.3-.8-.3-3.4s1.9-8-.1-8.8c-.9-.3-1.6-.6-1.7-.5-.1 0-.8.3-1.4.6M385.1 569.4c-2 2.3-1.9 11.3.1 13.3 2.3 2.2 3.6.9 4.9-4.6 1.4-6.4-2-12.3-5-8.7m3.3 3.2c.7 1.9-.3 8.2-1.4 8.9-1.2.7-2.1-3.9-1.4-7.4.7-3.4 1.8-4 2.8-1.5M396.1 572.3c-.7 2.3-1.7 5.6-2.2 7.3-1.2 4.1-1.2 4.4.7 4.4.8 0 1.3-.4 1-.9-.9-1.4.4-4.1 2-4.1.8 0 1.4 1 1.4 2.5 0 1.6.6 2.5 1.6 2.5s1.4-.6 1-1.8c-.2-.9-1-4.3-1.6-7.4-.6-3.2-1.5-6-1.9-6.2-.4-.3-1.3 1.4-2 3.7m1.6 3.9c-.3.8-.6.5-.6-.6-.1-1.1.2-1.7.5-1.3.3.3.4 1.2.1 1.9M351 576c0 .5 1.6 1 3.5 1s3.5-.5 3.5-1c0-.6-1.6-1-3.5-1s-3.5.4-3.5 1M495 582.7c-3.8.4-6 2.5-6 5.7 0 1.6-1.8 3-6.8 5.7-4.8 2.6-6.8 4.2-7 5.9-.2 1.2-1.2 2.5-2.3 2.7-1 .3-1.9 1.2-1.9 2 0 1.1.4 1.1 2 .3 1.2-.6 2.9-.8 4-.5 1 .3 3.3-.1 5-1 3.5-1.8 6-1.4 6 1 0 .8.4 2.3.9 3.3.9 1.5 7.5 19.6 10.1 27.2.5 1.4 2 5.8 3.5 9.7 2.7 7.3 2.7 7.3 7.6 7.3 2.7 0 4.9-.5 4.9-1 0-.6-1.8-1-4-1-3.7 0-4.1-.3-5.9-4.3-1-2.3-2.4-5.8-2.9-7.7-1.1-3.8-7.6-21.8-11.2-31.4-2.1-5.6-2.2-6-.5-7.2.9-.7 3.1-1 4.9-.7 2.6.4 3.8-.1 6.9-2.9 2.4-2.2 3.7-4.3 3.7-6 0-2.8-4.2-7.9-6.2-7.6-.7 0-2.9.3-4.8.5m.6 3.8c2.6 1.7 4.8 6.9 4 9-.3.8-1.3 1.5-2.3 1.5-1.3 0-1.4-.3-.5-1.2.7-.7 1.2-1.9 1.2-2.8 0-2.4-3.4-5.2-5.4-4.4-1.6.6-2.3-1.5-.9-2.9.9-1 1.6-.9 3.9.8m7.3.9c.9 1.1.8 1.5-.5 2-2.3.9-2.4.8-2.4-1.4 0-2.3 1.3-2.6 2.9-.6m-6.9 5.1c0 1.9-2 2.9-3.2 1.7-1.5-1.5-.2-4.3 1.7-3.6.8.3 1.5 1.2 1.5 1.9m6.7.2c-.4.3-.7 0-.7-.7s.3-1 .7-.7c.3.4.3 1 0 1.4m-11.7 2.5c0 1.9-.2 2-1 .8-1.3-1.9-1.3-3 0-3 .6 0 1 1 1 2.2m-3 2.4c0 .8-.4 1.2-1 .9-.5-.3-1-1.3-1-2.1s.5-1.2 1-.9c.6.3 1 1.3 1 2.1m-4 .4c0 .5-.2 1-.4 1-.3 0-.8-.5-1.1-1-.3-.6-.1-1 .4-1 .6 0 1.1.4 1.1 1m-5 3.1c0 .5-.4.9-1 .9-.5 0-1-.7-1-1.6 0-.8.5-1.2 1-.9.6.3 1 1 1 1.6m3-1.1c0 .5-.4 1-1 1-.5 0-1-.5-1-1 0-.6.5-1 1-1 .6 0 1 .4 1 1M315.7 599.7c-1 .9-.9 5.8.2 8.5.5 1.4 1.2 5 1.6 8.1l.7 5.7h-6.6c-3.7 0-6.6.4-6.6 1s3 1 6.9 1h6.9l2.6 10.9c1.4 6 2.6 12 2.6 13.3 0 3.1.8 4 6 6.9 2.5 1.4 6.2 3.6 8.3 4.8 4.5 2.5 5.7 2.1 5.7-2 0-2.7.3-3 2.3-2.4 1.2.4 2.6 1.1 3.2 1.6 1.2 1.2 2.5 1.1 2.5-.1 0-1-7.1-5-9-5-.5 0-1 1.6-1 3.6s-.4 3.4-.8 3.2c-.5-.2-3.8-1.9-7.4-3.8-7.2-3.7-7.8-4.8-7.8-13.4 0-2.3-.7-5.2-1.6-6.4-.8-1.2-1-2.2-.5-2.2.6 0 1.1.4 1.1 1 0 .5.6 1 1.4 1 1.2 0 1.3-1.1.9-5.5-.3-3-.2-5.5.2-5.5s2 .9 3.6 2c2.3 1.7 3.1 1.9 4.8.8 1.5-.9 2.3-.9 3.6.2 1.2 1 1.9 1 2.7.2 1.8-1.8 2.7-1.4 2.1.8-.3 1.1 0 2 .6 2s1.1-.4 1.1-1c0-.5 2 .6 4.5 2.4 2.4 1.9 5.4 3.7 6.5 4.1 1.1.3 2 1 2 1.5 0 .4.8 1 1.8 1.3.9.4 4.2 2 7.2 3.7 5.1 2.8 5.6 2.9 6.8 1.3.9-1.3 1.5-1.4 2.4-.5s.9 1.2 0 1.2c-.6 0-1.6 1-2.3 2.1-1 2-.9 2.1 1.2 1.6 3.6-.9 4.9.9 4.9 7q0 13.2-5.1 15.3c-1.5.7-3.4 1.8-4 2.6s-2 1.4-3 1.4c-1.5 0-1.9-.7-1.9-3.8 0-2.1-.6-4.5-1.2-5.4-2-2.4-7.6-5.3-8.5-4.4-.4.5-.3 1 .2 1.2.6.2 2.4 1.3 4.2 2.4 2.8 1.6 3.2 2.5 3.5 6.7s.6 4.8 2.6 5.1c1.4.2 4-.8 6.3-2.3 4.6-3.3 5.1-3 10 5 1.9 3 4 5.5 4.6 5.5.7 0 4.8 1.9 9 4.2 4.3 2.2 12.1 6.3 17.3 9.1 5.2 2.7 12.7 6.6 16.5 8.7 3.9 2 10.2 5.4 14 7.5 3.9 2.1 7.8 4.6 8.8 5.6 1 1.1 2.8 1.9 4 1.9s3.3.9 4.7 2c2.2 1.7 2.3 1.9.7 2.5-.9.4-1.7 1.4-1.7 2.2 0 1.2.6 1.1 3.3-.5 3.2-2 3.2-2 5.7 0 1.4 1.1 5.2 3.4 8.5 5.1 3.3 1.6 8.4 5.4 11.4 8.4 4.2 4.2 6 5.3 8 5.1s2.7-.9 2.9-3.1c.2-1.5.4-2.7.5-2.7.4 0 15.6 7.8 19.5 10 3.7 2.1 4.2 2.8 4.2 6 0 4 .7 4.6 17.9 13.1 6.6 3.3 8.8 4 10.6 3.3 3.5-1.4 29.5-26.5 29.5-28.5 0-2.1-2.9-4.2-14.2-9.9l-8.8-4.4-3.2 3.1c-1.8 1.7-4 3.3-4.9 3.5-1.7.3-8.9-3.2-8.9-4.4 0-.4-1.1-1.3-2.5-2-1.4-.8-3.5-3.4-4.7-5.8-2.5-4.9-5-6.1-7.7-3.6-1.7 1.5-2.3 1.4-8.7-2-16.3-8.6-19.4-10.6-20-12.9-.3-1.3-1.5-3.2-2.6-4.2-1.8-1.6-2.1-1.6-4.8-.1-2.6 1.5-3.7 1.5-11.7.2-9-1.6-11.6-2.7-34.3-14.7-14.5-7.7-32.3-17-44.9-23.4-9.2-4.7-11.9-6.6-14.3-10-1.6-2.4-3.8-4.7-4.8-5.3-1.1-.6-2-1.7-2-2.4 0-.8-.9-2.4-1.9-3.7-1.7-2.1-2.1-2.2-4.3-1-2.2 1.1-3 1-6.9-1.3-2.4-1.4-7.4-4.2-11-6.3-3.6-2-7.3-4.9-8.2-6.5-1.5-2.7-1.8-2.7-8.8-2.4-4.8.2-8.1-.1-10-1.1-3.5-1.8-3.5-2-.4-4.5 1.8-1.4 2.5-2.9 2.5-5.3 0-5.2-.9-6.5-7.3-10.6-6-3.9-7.8-4.5-9-3.2m8.1 4.7c2.8 1.6 5.2 3.5 5.2 4.3 0 1.8-.5 1.7-6.7-1.2-3.9-1.9-5.3-3.1-5.3-4.6 0-2.3-.3-2.4 6.8 1.5m.4 5.9c4.5 2.3 4.5 2.3 2.8 6.1-1.8 4.3-2.3 4.1-5.9-3.1-3.1-6.2-3.2-6.2 3.1-3m.8 16.2c0 5.9-2.7 4.4-4-2.3-.6-3.1-1.4-6.8-1.7-8.2-.4-1.8.4-1.1 2.6 2.3 2 3 3.1 6 3.1 8.2m5-11c0 .3-.2.5-.5.5s-.5-.2-.5-.5.2-.5.5-.5.5.2.5.5m57 40.6c1.6 3.7.7 4.8-2 2.4-2.4-2.1-3-8.5-.6-6.6.8.6 1.9 2.5 2.6 4.2m-.7 6.1c1.1 1.3 2.1 1.8 2.4 1.3 1.4-3.8 2.1-4 6.5-1.6 4.8 2.6 20.5 10.8 40.8 21.4 7.4 3.8 14 7.3 14.5 7.7.6.5 5.1 2.9 10 5.5 10.4 5.4 11 5.8 10.2 7.9-.5 1.3-1.2 1.2-4.9-.8-2.4-1.3-12.2-6.6-21.8-11.9-9.6-5.2-24-12.7-32-16.7s-15.7-8.1-17.2-9.1c-2.8-2.1-4.8-2.4-4.8-1 0 .5 6 4 13.3 7.7 7.2 3.7 17 8.8 21.7 11.4s11.4 6.3 15 8.2c3.6 2 10.1 5.5 14.5 7.9s10.5 5.6 13.5 7.1c5.3 2.6 5.4 2.7 2.3 2.8-3.1 0-5.8-1.2-26.8-12.5-23.4-12.6-28.9-15.5-29.7-15.5-.4 0-.8-.3-.8-.8 0-.4-6.1-3.6-13.5-7.2-11.2-5.4-13.6-7-14.6-9.5-.7-1.7-1.4-3.3-1.7-3.8-.8-1.6 1.2-.6 3.1 1.5m-2.3 7c0 1.8-.5 2.8-1.5 2.8-1.6 0-2-3.5-.9-6.5.9-2.3 2.4 0 2.4 3.7m6.8 2.7c3.5 1.7 9.8 5 30.2 15.9 4.7 2.4 9 4.8 9.5 5.2.9.7 10.5 5.8 27.3 14.4 6.8 3.6 7.2 4 7.2 7.2 0 4.2-1 4.3-4.7.4-1.5-1.7-3.1-3-3.5-3-1.3 0-.9 4.8.5 5.3.6.2.9.8.5 1.2s-1.8-1.1-3.2-3.3c-1.7-2.7-4.4-4.9-8.8-7.2-3.5-1.8-9.2-4.9-12.8-6.8s-12.1-6.4-19-10-14-7.3-15.8-8.3c-2.2-1.1-4.5-1.6-6.8-1.2-2.2.4-3.4.2-3.4-.6 0-.6.6-1 1.2-.9.7.2 1.4-.7 1.6-2 .2-1.5-.2-2.2-1.2-2.2-.9 0-1.6.4-1.6 1 0 .5-.7 1-1.5 1-1.6 0-2-3.5-.9-6.4.8-2 .7-2 5.2.3m8.2 13.6c1.4.8 2.1 1.4 1.5 1.4-.5 0-2.1-.6-3.5-1.4s-2-1.4-1.5-1.4c.6 0 2.1.6 3.5 1.4m6.5 4.3c-.3.3-1.1 0-1.8-.7-.9-1-.8-1.1.6-.5 1 .3 1.5.9 1.2 1.2m3 1.2c.3.5.4 1 .1 1s-.8-.5-1.1-1c-.3-.6-.4-1-.1-1s.8.4 1.1 1m4 2.8c-.3.3-1.1 0-1.8-.7-.9-1-.8-1.1.6-.5 1 .3 1.5.9 1.2 1.2m4 1.2c.3.5.2 1-.4 1-.5 0-1.3-.5-1.6-1-.3-.6-.2-1 .4-1 .5 0 1.3.4 1.6 1m9.5 5c1.9 1.1 3.1 1.9 2.5 1.9-.5 0-2.6-.8-4.5-1.9s-3-1.9-2.5-1.9c.6 0 2.6.8 4.5 1.9m5 2.5c0 .3-.2.5-.5.5s-.5-.2-.5-.5.2-.5.5-.5.5.2.5.5m51.6 1.8c.1.1 0 1.5-.3 3-.5 2.3-.9 2.6-2.7 2.1-5.6-1.7-6.6-2.4-6.6-4.5 0-2 .4-2.1 4.7-1.5 2.5.3 4.8.7 4.9.9m-46.2 1.2c1.1.8 1.5 1.5 1 1.5-.6 0-1.9-.7-3-1.5-1-.8-1.4-1.4-.9-1.4.6 0 1.9.6 2.9 1.4m58-.7c.2.4-2.9 3-7 5.6-6.9 4.6-8.9 6.6-6.4 6.6.6 0 1 1.1 1 2.5 0 2.2-.3 2.4-3.1 1.8-2.5-.5-3.1-.3-2.7.8.3.8 1.8 1.6 3.4 1.9 2.4.4 3 1 3.2 3.8.2 1.7 0 3.2-.4 3.2-1.7 0-8.4-4.5-8.4-5.8 0-.9-.7-1.1-1.9-.7-1.1.3-2.2.1-2.6-.5s-1.3-.9-1.9-.7c-.7.3-1.8-.4-2.5-1.5-1.1-1.7-1-1.9 1.1-1.6s2.2 0 2-3.5c-.4-3.7-.4-3.7 6.7-3.7 7.7 0 10.1-1.3 10.1-5.7 0-2.3.3-2.5 3-2 1.6.4 3.2.2 3.5-.3.7-1.2 2.2-1.3 2.9-.2m9.6 7.5c1.9 1.1 8.1 4.3 13.6 7.2 9.4 4.9 10.3 5.2 11.8 3.7 2.2-2.2 4.8-.6 6 3.6.6 2 2 3.5 3.8 4.3 1.5.6 2.8 1.5 2.8 2s1.8 1.9 4 3.1c3.5 2 4 2.8 4 5.9 0 2 .3 3.9.8 4.3 1 1.1 1.1 23.6.1 23.6s-19.9-9.8-21.6-11.2c-.7-.6-1.3-2.3-1.3-3.7 0-4.1-1.5-5.4-13.4-11.5-12.8-6.5-14.6-6.9-14.6-2.6 0 1.7-.5 3-1.2 3s-4.1-2.7-7.5-5.9c-6.1-5.9-6.1-5.9-6.4-14.5s-.3-8.6 4.9-12.2c2.9-1.9 5.7-3.2 6.2-2.9.6.4 1.3-.1 1.6-1 .6-1.4.8-1.3 1.8.6.6 1.2 2.7 3.1 4.6 4.2m-64-4.8c0 .3-.2.5-.5.5s-.5-.2-.5-.5.2-.5.5-.5.5.2.5.5m3.5 2.3c-.3.3-1.1 0-1.8-.7-.9-1-.8-1.1.6-.5 1 .3 1.5.9 1.2 1.2m3.5 1.7c0 .3-.2.5-.5.5s-.5-.2-.5-.5.2-.5.5-.5.5.2.5.5m2 1c0 .3-.2.5-.5.5s-.5-.2-.5-.5.2-.5.5-.5.5.2.5.5m14 7c0 .3-.2.5-.5.5s-.5-.2-.5-.5.2-.5.5-.5.5.2.5.5m107.7 17.2c5.1 2.6 9 4.9 8.8 5.2-.3.2-3.4-1.1-6.9-2.9-6.5-3.3-8.9-3.5-15.6-1.5-2.5.8-2.5.8.5-2.3 1.7-1.7 3.2-3.1 3.5-3.1.3-.1 4.6 2 9.7 4.6m2.5 4.7c3.7 1.7 6.7 3.4 6.8 3.7 0 .5-16.5-3.3-20-4.7-1.2-.4-1.2-.8.4-2 2.3-1.6 3.5-1.3 12.8 3m-18.8-.6c.3.5 3.1 1.4 6.3 2.1s6.9 1.7 8.3 2.1c1.4.5 4 1.2 5.8 1.5 1.7.4 3.2 1 3.2 1.5 0 .4-1.7 2.2-3.7 4-2.1 1.8-7.3 6.6-11.5 10.6-4.2 4.1-8 7.4-8.3 7.4-.4 0-.5-4.9-.4-11 .2-7.6 0-11.3-.9-12.2-1.4-1.4-1.6-6.8-.3-6.8.6 0 1.2.4 1.5.8"/><path d="M473.8 718.8c-3.2 1.9-3.6 3.2-1 3.2 2.1-.1 5.2-2.3 5.2-3.9 0-1.5-1-1.4-4.2.7M494 716.9c0 5.4.3 6.4 3 9.1 1.7 1.7 3 3.5 3 3.9 0 .5 2.9 2.1 6.5 3.6 7.5 3.2 9.5 2.5 9.5-3.1 0-5.7-1.5-8.2-5.9-9.5-2.8-.8-4.1-1.8-4.3-3.2-.3-2.2-4.5-5.1-9-6.2-2.8-.7-2.8-.7-2.8 5.4m6.5-1.7c3.2 1.5 3.5 6 .3 8.2-2.1 1.5-3.8 1.3-3.8-.4 0-.5.6-.7 1.4-.4s1.7.1 2-.4c1-1.7-.5-4.2-2.5-4.2-1.2 0-1.9-.7-1.9-2 0-2.3.9-2.5 4.5-.8m10.7 9c1.9 1.6 3.1 7.5 1.7 8.3-.5.4-3.2-.1-5.9-1.1-4-1.4-5-2.3-5-4 0-3.8 5.8-5.8 9.2-3.2M530.5 724c-.7 1.2 1.2 4 2.7 4 1.3 0 .6-4.3-.9-4.7-.6-.2-1.4.1-1.8.7M525.4 729.3c-.3 1.3-.4 4.1-.2 6.3.2 3.1 1 4.3 3.7 6.1 1.9 1.3 4.7 2.3 6.2 2.3 2.8 0 2.9-.1 2.9-5.6 0-6.1-.7-7.1-6.2-9.7-4.8-2.2-5.6-2.2-6.4.6m6.9 1.8c3.1 1.6 3.7 2.8 3.7 7.1 0 4.2-.7 4.5-4.9 2.3-3.2-1.6-4.1-3.3-4.1-7.6 0-3.2 1.6-3.7 5.3-1.8M547.5 748c-.8 1.3.6 4.1 1.9 3.7 1.7-.6 1.9-3.4.2-4-.9-.4-1.8-.2-2.1.3M464.7 606.6c-3.7 2-2.4 3.8 1.4 1.9 1.6-.9 2.9-2 2.9-2.5 0-1.3-1-1.2-4.3.6M216.8 610.8c-2.8.3-2.8.3-2.8 12.3V635h90v-24l-27.7-.1c-15.3-.1-34.3-.2-42.3-.3s-15.7-.1-17.2.2m67.5 2.2H301v20h-84v-9.8c0-5.4.3-10.2.8-10.6.4-.5 11.7-.6 25.2-.2 13.5.3 32 .6 41.3.6"/><path d="M223.7 614.7c-.4.3-.7 2.4-.7 4.5 0 3.4.3 3.9 1.9 3.3 2.1-.6 3.4 1.5 2.5 4-.7 1.7-2.4 2-2.4.5 0-.6-.4-1-1-1-.5 0-1 .9-1 2 0 3.1 4.8 2.7 6-.5 1.2-3.1-.3-7.5-2.5-7.5-.8 0-1.5-.9-1.5-2 0-1.4.6-2 1.6-1.8s1.9-.3 2.1-1c.5-1.3-3.8-1.8-5-.5M235.7 614.7c-.4.3-.7 1.3-.7 2.1 0 1.2.3 1.2 1.5.2s1.6-.9 2.2.6c.4 1 .2 1.9-.5 2.2-1.5.5-1.6 3.2-.2 3.2.6 0 1 1.1 1 2.5 0 2.5-1.4 3.3-2.5 1.5-1.2-2-2.6-1-1.5 1 1.5 2.7 4.8 2.6 5.4-.3.7-3.1.2-11-.7-12.5-.9-1.3-3-1.6-4-.5M268.2 616c-1.3 2.1-1.6 9.7-.6 12.4.9 2.4 4.3 1.9 5.3-.6 1.1-2.9.3-5.7-2-7.1-2.6-1.6-2.5-4 .1-3.2 2.2.7 2.6-.5.8-2.3-1.6-1.6-2.1-1.5-3.6.8m3.2 10.3c-1 2.8-2.4 1.9-2.4-1.5 0-2.9.2-3.1 1.5-1.7.9.9 1.3 2.3.9 3.2M279 615.9c-1.1 2.1-1.4 10-.4 12.5.9 2.4 3.9 1.9 5.2-.9 1.7-3.6 1.5-8.6-.4-11.3s-3-2.8-4.4-.3m3.5 6.6c0 5.8-2.1 7.3-3 2.2-.8-4.1.2-8 1.8-7.4.7.2 1.2 2.4 1.2 5.2M289.7 614.7c-.4.3-.7 4.2-.7 8.6 0 7.9 0 7.9 2.7 7.2 1.5-.3 3.1-1.1 3.5-1.7.9-1.5-.2-12-1.5-13.6-1-1.3-3-1.6-4-.5m3.3 3.8c0 1.4-.4 2.5-1 2.5-.5 0-1-1.1-1-2.5s.5-2.5 1-2.5c.6 0 1 1.1 1 2.5m.3 6.9c.3.8-.1 2-.9 2.6-1.2 1-1.4.8-1.4-1.4 0-2.8 1.4-3.5 2.3-1.2M258.2 621.5c-.1 3.6-.3 6.8-.5 7.3-.2.7.6 1.2 2.2 1.2.5 0 .8-3.2.7-7.2-.1-9.2-2.2-10.3-2.4-1.3M245 623c0 .5 1.4 1 3 1 1.7 0 3-.5 3-1 0-.6-1.3-1-3-1-1.6 0-3 .4-3 1M338.4 633.4c-.3.7-.4 3.8-.2 6.7.3 5.2.5 5.5 4.3 7.5 5 2.7 6.5 1.7 6.5-4.3 0-5.6-1.1-7.7-5.1-9.7-3.9-2-4.8-2-5.5-.2m5.7 2.7c2.5 1.7 2.9 2.7 2.9 6.5 0 4.8-1.1 5.5-4.8 2.8-1.8-1.2-2.2-2.5-2.2-6.5 0-2.7.3-4.9.6-4.9s1.9.9 3.5 2.1M355.7 644.7c-1.1 1-.8 9.3.3 9.3.6 0 1-1.6 1-3.5 0-3.8 1.4-4.4 4.6-2 1 .8 2.5 1.5 3.3 1.5 2 0-.4-2.6-4.2-4.5-3.4-1.7-4.1-1.8-5-.8M522.6 647.6c-1.9 1.8-1.9 2-.6 4.5.6 1 1.7 1.9 2.5 1.9s1.5.5 1.5 1.1-.9.8-2.1.4c-1.5-.5-2-.3-1.7.6.6 1.7 2.8 2.2 4.7 1s2-8.9.1-10.1c-2.1-1.3-2.6-1.2-4.4.6m3.4 2.4c0 1.1-.4 2-1 2-.5 0-1-.9-1-2s.5-2 1-2c.6 0 1 .9 1 2M531.2 647.2c-1.7 1.7-1.5 8.3.4 9.9 3.7 3.1 8-4.1 5-8.5-1.8-2.8-3.5-3.3-5.4-1.4m3.6 4.5c-.4 5.2-2.8 5.6-2.8.4 0-3 .4-4.1 1.6-4.1 1.1 0 1.4.9 1.2 3.7M539 647c0 .5.7 1 1.5 1 1.8 0 1.9 1.4.4 4.1-.5 1.1-.9 3-.6 4.2.3 2 .4 1.9 1.6-.8.7-1.7 1.8-4.2 2.6-5.7.7-1.5 1-2.9.7-3.2-.9-1-6.2-.6-6.2.4M548.8 646.7c-.9.2-1.9 1.1-2.2 1.9-.7 1.7.6 1.8 2.2.2.9-.9 1.5-.9 2.5.1s.5 1.8-2.2 4c-2 1.6-3.1 3.3-2.7 3.9.9 1.5 6.2 1.6 7.1.2.4-.6-.6-1-2.2-1-2.8-.1-2.8-.1 0-2.5 1.5-1.3 2.7-3.1 2.7-3.9 0-1.8-2.8-3.4-5.2-2.9M556.6 647.6c-1.8 1.8-2.1 5.6-.6 8.5 1.4 2.4 3.2 2.4 5.5-.1 1-1.1 2.9-2 4.1-2 1.3 0 2.9.9 3.6 2 1.6 2.6 4.4 2.6 6 0 1.2-1.9 1.3-1.9 3.4.1 3.4 3.2 7.6.1 5.4-4-.5-1-.7-2.1-.3-2.4.7-.8-1.6-3.7-2.8-3.7-.5 0-1.6.8-2.5 1.9-1.6 1.8-1.7 1.8-3.5 0-1.6-1.6-2.3-1.7-4-.8-1.2.6-2.4 2-2.6 3-.6 2.3-5.3 2.7-5.3.5 0-1.6-2.6-4.6-4-4.6-.5 0-1.6.7-2.4 1.6m3.9 2.4c.8 2.6-.3 6.2-1.8 5.7-.7-.2-1.3-1.4-1.5-2.6-.7-4.5 2-7.1 3.3-3.1m13.5 2.1c0 3.3-.3 4-1.7 3.7-3.2-.6-3-7.8.2-7.8 1.1 0 1.5 1.1 1.5 4.1m8.5-3.1c.3.5-.3 1-1.5 1s-1.8-.5-1.5-1c.3-.6 1-1 1.5-1s1.2.4 1.5 1m-.5 5.1c0 2.4-2.3 2.1-2.8-.4-.2-1 .3-1.7 1.2-1.7 1 0 1.6.9 1.6 2.1M588.3 647.7c-.8.3-1.1 1.5-.8 2.9.3 1.3.7 3.5 1 4.9.8 4 2.5 1.9 2.5-3 0-4.5-.6-5.6-2.7-4.8M594.7 647.7c-.4.3-.7 2.3-.7 4.3 0 4.4 2.3 6.9 4.8 5.3 2.5-1.5 2.1-5.6-.5-6.8-3.2-1.4-2.9-2.7.3-1.9 1.9.5 2.5.4 2-.5-.8-1.2-4.8-1.5-5.9-.4m4.3 6.3c0 1.1-.7 2-1.5 2s-1.5-.9-1.5-2 .7-2 1.5-2 1.5.9 1.5 2M369.3 649.2c-1.3.6-2.3 1.5-2.3 2 0 1.4 1.6.9 4.1-1.2 2.6-2.1 1.7-2.5-1.8-.8M374.9 649.7c-.1.4 0 2 .1 3.5.1 2.3-.3 2.8-2.2 2.8-2.2-.1-2.2-.1-.4-1.5 2.3-1.8 1.2-3.4-1.2-1.9-.9.6-1.8 2.3-2 3.8-.3 2.1-.7 2.6-2 2.1-.9-.4-2.3-.9-2.9-1.2-.7-.3-1.3-.1-1.3.5 0 .5 1.4 1.5 3 2.2 2.6 1.1 3.3 1 4.9-.4.9-.9 2.5-1.6 3.3-1.6 1.8 0 2.8-2 2.8-5.5 0-2.2-1.9-4.7-2.1-2.8M361 654c-1.4 1-2.2 2.2-1.8 2.6.9.8 5.8-2.2 5.8-3.6 0-1.5-1.2-1.2-4 1M352.9 658.9c-1.3 1.1-2.1 2.2-1.7 2.6.8.8 5.8-2.3 5.8-3.6 0-1.4-1.6-1-4.1 1M345.6 663.5c-1 .8-2.4 1.6-3 1.8s-.8.8-.4 1.2c.7.8 6.8-2.5 6.8-3.7s-1.3-.9-3.4.7M228 665.1c-.7 1.1-.9 2.6-.7 3.3.7 1.6-.1 2.7-3.5 4.9-2.2 1.4-2.8 2.5-2.8 5.2 0 3.5 0 3.5-13.2 3.5-7.3 0-14.3.3-15.5.6-2.2.6-2.3.4-2.3-5.4 0-4.9-.3-6.2-1.7-6.6-2.5-.7-89.2-.1-89.9.7-.7.7-1 22.5-.3 23.2.4.4 80.8 1 89.2.6 2.6-.1 2.7-.3 2.7-5 0-4.9 0-4.9 4.8-5.3 2.6-.3 9.7-.6 15.9-.7 10.3-.2 11.2 0 11.8 1.8.3 1 1.2 2.2 2 2.5 2.5.9 1.8 6.5-1 8.8-1.9 1.5-2.5 2.9-2.5 5.9 0 3.8.3 4.1 4.4 5.9 2.4 1.1 5.9 3.8 7.8 6 3.6 4.3 4.5 4.5 11.8 3.2 4.3-.7 4.4-.8 2.3-2-1.3-.7-2.3-1.8-2.3-2.4s-1.1-2.6-2.6-4.5c-1.4-1.8-2.1-3.3-1.5-3.3 2.6 0 6.2 2.6 7.6 5.6 1.9 4.1 2.9 4.8 5.4 3.5 1.5-.9 2.1-2.6 2.6-8.5.4-4 .4-8.8 0-10.5-.8-3.8-3.7-5.6-6.5-4.1-1.6.8-3.1.5-7.2-1.4-4.9-2.3-5.1-2.4-1.7-1.9 2.6.4 4 0 5.4-1.3 2.1-2.1 2.1-2.1 18.7 8.4 5.3 3.4 10.2 6.2 10.7 6.2 2.3 0 .9-1.6-3.7-4.2-5.7-3.4-15.8-9.7-19.2-12.1-2.1-1.5-2.3-1.9-1-2.7 3-1.9 5.9-.8 18.4 7 7.1 4.4 13 8 13.3 8 .2 0 .1-1.1-.3-2.5-.4-1.8-.2-2.5.9-2.5.8 0 2.1-1 2.9-2.2 1.9-2.9 4.5-1.8 6.3 2.7 2.9 6.7 1.5 10.3-2.7 7.1-2.3-1.7-2.3-2.6.2-2.6 1.3 0 2-.7 2-2 0-1.8-.5-2.2-2.7-1.9-.5.1-.7.5-.5 1 .1.5-.9 1.5-2.3 2.1-2.5 1.1-3.4 2.8-1.5 2.8 1.4 0 10.8 6.1 15.9 10.4 2.4 2.1 5.7 4.4 7.3 5.2 3 1.6 3.3 3.7.6 4.2-1.4.3-7.7-3.2-20.7-11.7-3.5-2.2-6.8-4.1-7.3-4.1-2.4 0 0 2.3 7.2 6.6 7.7 4.7 8 5 8 8.6 0 4.2 1.6 4.1-17 1.8-4.1-.5-9.7-1.2-12.5-1.5-2.7-.3-6.5-.9-8.2-1.2-5.5-.9-3.7 1.3 2 2.5 6.6 1.3 14.6 5.8 15.7 8.7.5 1.3 1.9 3.2 3.1 4.4 2.3 2.1 2.3 2.1 6.4-.4 2.7-1.5 6.6-2.7 10.7-3.1 5.9-.6 6.8-.4 10.7 2.1 4.7 2.9 6.7 2.7 8-.7.7-1.8.5-2.7-1.1-4.1-1.1-.9-2.6-1.7-3.4-1.7-2.3 0-1.6-3.1 1.1-5.2 1.9-1.5 2.5-2.9 2.5-5.8 0-3.6-.4-4.1-4.7-6.7-5.7-3.3-14.3-11.9-14.3-14.3 0-4.8-8.1-9.4-9.6-5.5-1 2.5-2.8 1.8-13.7-5-8.1-5-11-7.4-12.5-10.3-1-2-3-4.4-4.5-5.2-2.3-1.3-2.8-1.3-4.5.3-2.6 2.4-3.7 2.2-11.9-1.8-8.4-4.1-9.8-4.2-11.3-1.4m10.8 3.2c8.7 4.3 11.2 4.9 11.8 3.2.7-1.7 3-2.6 4.8-1.9.8.3 2.1 2.2 2.9 4.3 1.4 3.5 3.8 5.7 9.2 8.7 4.8 2.5 6.5 4 6.5 5.2 0 1.8-.8 1.4-9.9-4.1-6.7-4-7.6-4.3-10.6-3.4-4.8 1.4-11.6-1.6-14.6-6.4-2.5-4-5.9-6.2-8.4-5.3-1.5.6-2.1-1.6-.8-2.9 1-1.1 1.9-.9 9.1 2.6m-4 3.3c2.8 2 2.8 2.8-.3 4.2-1.8.8-3.3.8-5.6 0-3.2-1.1-3.2-1.1-.5-3.5 3.2-2.7 3.5-2.8 6.4-.7m-48 11.1.3 10.3H100v-9.8c0-5.4.3-10.1.6-10.5.4-.3 19.8-.5 43.3-.4l42.6.2zm41.1-5.2c3.9 2 4.8 4.5 1.6 4.5-1.5 0-2.6.7-3 2.1-1.1 3.3-3.5.3-3.5-4.2 0-4.3.7-4.6 4.9-2.4m17.5 4 4 1.7-3.3 2c-3 2-3.3 2-7.5.4-5.3-2-6.7-5.2-3.4-7.9 2-1.7 2.2-1.7 4.2.2 1.2 1.1 3.9 2.7 6 3.6m-13.4 5.7c0 .8 10.8 6.1 14.7 7.3 1.2.3 3.1.1 4.3-.5 1.7-.9 2.2-.7 2.9 1.3.9 2.2.6 13.8-.4 16.4-.7 2.1-2.2 1.5-2.9-1.2s-5.1-5.4-12.3-7.5c-3.8-1.2-4.5-1.1-6.3.5-1.6 1.4-2 1.5-2.4.4-.9-2.8-1.6-19.5-.9-20.3.7-.7 3.3 2 3.3 3.6m4.7.5c-.4.3-1 .3-1.4 0-.3-.4 0-.7.7-.7s1 .3.7.7m41.8 1.5c2.2 1 3.7 4.8 1.8 4.8-1 0-5.3-4.2-5.3-5.2 0-1.1.4-1 3.5.4M227 700.6c0 1.4.5 3.4 1.1 4.6 1.4 2.6.5 3.4-2.6 2-2.7-1.3-3.5-5.8-1.3-8 1.9-1.9 2.8-1.4 2.8 1.4m72 1.4c1.1 1.1 2 2.8 2 3.7 0 1.4-.4 1.2-2.5-.7-1.4-1.3-2.5-2.9-2.5-3.7 0-1.8.7-1.6 3 .7m-60 3.5c0 .3-.2.5-.5.5s-.5-.2-.5-.5.2-.5.5-.5.5.2.5.5m-5.5 1.5c-.3.5-1 1-1.6 1-.5 0-.9-.5-.9-1 0-.6.7-1 1.6-1 .8 0 1.2.4.9 1m75.1 2.7c3.8 2.4 5.8 5.3 3.8 5.3-1.6 0-9.4-5.6-9.4-6.8 0-1.7.8-1.5 5.6 1.5m-71.8 1c-.4 5.7 2.3 7.5 4 2.5.8-2.3 1.1-2.4 1.7-1 1.1 2.7-.2 4.8-2.9 4.8-3 0-8.2-6-6.3-7.2 2.1-1.3 3.7-.9 3.5.9m1.9 2.5c-.3.8-.6.5-.6-.6-.1-1.1.2-1.7.5-1.3.3.3.4 1.2.1 1.9m65.7 6.9c2.7 1.6 3.6 2.8 4.1 6 .4 2.2.5 4.2.3 4.4s-2.5-1-5.1-2.7c-4.1-2.6-4.7-3.5-4.7-6.4 0-4 .7-4.1 5.4-1.3m-22.6 3.5c6 .5 7.1.9 7.6 2.8.4 1.5-.2 2.7-2.2 4.3-3.8 3.2-6.3 2.5-8.5-2-1-2.1-2.8-4.2-4.2-4.7s-2.5-1.2-2.5-1.6c0-.3.6-.4 1.4-.1s4.6.9 8.4 1.3m16.2 2.9c1 1.2.9 1.5-.8 1.5-1.1 0-2.7.3-3.6.6-1.2.4-1.6 0-1.6-1.5 0-2.5 4.1-2.9 6-.6m13.7 3.2c-.4.3-.7 0-.7-.7s.3-1 .7-.7c.3.4.3 1 0 1.4m2.3 1.7c0 .3-.4.8-1 1.1-.5.3-1 .1-1-.4 0-.6.5-1.1 1-1.1.6 0 1 .2 1 .4"/><path d="M252.5 673c-.7 1.2 1.2 4 2.7 4 1.3 0 .6-4.3-.9-4.7-.6-.2-1.4.1-1.8.7M107.4 675.4c-.3.8-.4 2.7-.2 4.3.2 2 .8 2.8 2.3 2.8 2.2 0 3.3 3.1 1.6 4.8-.7.7-1.5.6-2.6-.3-1.3-1-1.5-.9-1.5.9 0 3.2 4.7 2.9 6.2-.4 1.3-2.9-.5-7.5-2.9-7.5-2.1 0-1.5-2.7.8-3.3 1.2-.3 1.8-1 1.4-1.6-.9-1.6-4.5-1.3-5.1.3M119.7 674.7c-.4.3-.7 1.3-.7 2.1 0 1.2.3 1.2 1.5.2s1.5-.9 1.5.7c0 1-.6 2.5-1.2 3.2-1.1 1-1 1.4.5 2.2.9.6 1.7 1.6 1.7 2.4 0 2-2.1 3-3.1 1.4-1-1.7-2.1-.7-1.3 1.4 1.5 3.9 5.5 2.5 5.4-1.9 0-1.6 0-4.7.1-6.8 0-4.3-2.4-7-4.4-4.9M141.6 676.6c-.4 1.5-.4 2.9-.1 3.2s.8-.4 1.2-1.6c.3-1.2.9-2.2 1.4-2.2 1.6 0 .9 5-1.2 9.1-2.3 4.5-2.2 4.6.6 4.9 3.5.4 4.5 0 4.5-1.6 0-1.1-.6-1.4-2-.9-2.4.8-2.5-.3-.5-4.1 1.6-3.1 1.9-5.3.9-7.8-1-2.6-4.1-1.9-4.8 1M155 674c-.1.3-.2 4.2-.4 8.8-.3 7.1-.1 8.3 1.2 8 1.3-.2 1.5-1.6 1.3-7.3-.1-3.8-.7-7.6-1.1-8.5-.5-.8-1-1.3-1-1M164 676.6c-2.2 5.6-.5 13.4 2.9 13.4 1 0 2.2-.7 2.5-1.6 1.1-2.8.6-12-.6-13.2-1.9-1.9-3.8-1.4-4.8 1.4m4 6c0 4-.4 5.5-1.2 5.2-1.5-.5-2.2-5.9-1.3-9.5 1-4.1 2.5-1.5 2.5 4.3M176.7 675c-1.3 4.2-3.4 14.6-3 15.3.8 1.3 2.3-.3 2.3-2.4 0-1.4.5-1.9 1.8-1.7.9.2 1.6 1.1 1.4 2-.3 1.9 1.4 3.3 2.2 1.9.8-1.2-1.3-10.9-2.9-14.1-1-1.9-1.5-2.1-1.8-1m1 7.2c-.3.8-.6.5-.6-.6-.1-1.1.2-1.7.5-1.3.3.3.4 1.2.1 1.9M130 683c0 .5 1.4 1 3 1 1.7 0 3-.5 3-1 0-.6-1.3-1-3-1-1.6 0-3 .4-3 1M280.6 726.9c-.9 1.4.4 4.1 1.9 4.1 2.2 0 2.8-1.9 1.1-3.5-1.7-1.7-2.3-1.8-3-.6M334.9 670c-3.2 2.6-.3 2.7 3.1 0 1.9-1.5 2.1-2 .9-2-.9 0-2.7.9-4 2M326.5 674.5c-1.9 1.6-2.5 2.4-1.5 2.5 1.9 0 6-2.8 6-4.1 0-1.5-1.3-1-4.5 1.6M317.3 679.2c-1.3.6-2.3 1.5-2.3 2 0 1.4 2.4.8 5-1.2 2.8-2.2 1.1-2.6-2.7-.8M308.8 684.6c-2.3 1.2-3.8 3.4-2.5 3.4s6.7-3.3 6.7-4.1c0-1.2-1-1.1-4.2.7M299.8 689.8c-2.5 1.5-3.7 3.2-2.3 3.2s6.5-3.2 6.5-4c0-1.4-1.1-1.2-4.2.8M278.2 702.6c-2.1 1.5-3 3.4-1.4 3.4.4 0 2.1-1.1 3.7-2.5 3.4-2.7 1.4-3.6-2.3-.9M269.2 708c-1.8 1.1-3 2.5-2.7 3 .6 1 7.5-2.9 7.5-4.3 0-1.2-1.3-.8-4.8 1.3M259.3 713.2c-1.3.6-2.3 1.7-2.3 2.5 0 1.5 1.7.8 5.5-2.1 2.4-1.8.3-2.1-3.2-.4M249.3 719.2c-1.3.6-2.3 1.5-2.3 2 0 1.4 2.4.8 5-1.2 2.8-2.2 1.1-2.6-2.7-.8M240.3 724.2c-2.7 1.6-4.4 3.8-3 3.8.9 0 6.7-3.2 7.2-4 1.1-1.8-1.1-1.6-4.2.2M230.3 730c-3.2 1.9-4.4 4-2.3 4 .6 0 1-.3 1-.8 0-.4 1.4-1.3 3-2 1.7-.8 3-1.8 3-2.3 0-1.4-1.2-1.1-4.7 1.1M454.5 731.5c-2.4 1.9-2.6 2.4-1.2 2.5 2.1 0 6.7-2.8 6.7-4.1 0-1.6-2.5-.9-5.5 1.6M220 736c-1.4 1.1-1.9 2-1.2 2 1.9 0 5.2-1.9 5.2-3 0-1.5-1.2-1.2-4 1M445.3 737.1c-1.8 1.2-3.1 2.5-2.8 3 .6.9 3.5.1 3.5-1.1 0-.4.9-1 2-1.3s2-1 2-1.6c0-1.6-1.1-1.3-4.7 1M215 740.9c-1 1.9-.4 5.1.9 5.1.4 0 .7-1.6.8-3.5.1-4-.2-4.3-1.7-1.6M435.3 743.5c-1.5 1.3-2.2 2.5-1.5 2.5 1.7 0 6.2-3 6.2-4.1 0-1.6-1.8-1-4.7 1.6M218 747.9c0 .6 1.3 1.7 3 2.6 3.3 1.7 4 1.8 4 .7 0-.8-1.4-1.6-6.2-4-.5-.2-.8.1-.8.7M426.3 749.1c-1.8 1.2-3 2.5-2.7 3 .6 1.1 6.6-2.3 7.2-4 .5-1.6-.9-1.3-4.5 1"/><path d="M409.1 750.5c-5.4 3.8-8.2 4-14 .9-4.2-2.1-5.4-2.4-6.6-1.4-.8.7-1.5 2-1.5 3s-.7 2-1.5 2.4c-2 .7-2.1 13.4-.1 16.2.8 1 1.8 1.6 2.2 1.2s.1-1.4-.5-2.2c-.7-.8-1.1-3.6-.9-6.5l.3-5.1 3.8 2.6c2 1.5 3.7 3.5 3.7 4.5 0 .9.5 1.9 1.2 2.1.7.3-.2 1.3-2 2.3-1.8 1.1-3.2 2.3-3.2 2.7 0 1.2 1 1 4.7-1.3 2.5-1.5 3.1-2.5 2.4-3.2-.6-.6-1.1-1.5-1.1-1.9 0-1.1 3.8-1 4.5.1 1 1.7 6.5-2.2 6.5-4.7 0-1.8-.6-2.2-3-2.2-3.8 0-4.3-3.5-.6-4.4 1.3-.3 3.1-.9 4-1.2 1.2-.4 1.6 0 1.6 1.5 0 3.7 1.9 2.3 2.2-1.7.3-3.2.7-3.7 2.9-4 2.1-.2 3.4.6 5.8 3.5 1.7 2.1 3.1 4.8 3.1 6.1 0 2.3-.3 2.4-3.7 1.7-2.1-.4-4.4-.8-5.2-.8-1 0-.8-.4.5-1.4 1-.7 2.1-1.3 2.6-1.3 1.3 0 .9-2.6-.5-3.8-1.6-1.4-3.9 0-3.2 1.9.4 1-.4 2-2 2.9-2.7 1.4-3.5 3.6-.9 2.6.8-.3 2.7 0 4.2.8 1.5.7 6.6 2.4 11.5 3.6 4.8 1.3 8.7 2.6 8.7 3 0 2.8-7.6 4.3-10.5 2-.5-.4-2.1-1-3.5-1.3s-5.2-1.2-8.5-2c-3.3-.9-6.4-1.3-6.9-1-1 .7 6.3 3.2 18.3 6.3 9 2.4 14.5 5.1 14.9 7.3.6 2.8-2.3 1.9-5.7-1.8-3.3-3.6-4.6-4.1-7-2.6-1.2.7-1.4 3.2-1.2 11.3.1 5.6.7 10.8 1.3 11.5 1.2 1.5 4.8 1.7 4.8.3 0-3.9 14.5 3.8 19.5 10.4 3.3 4.4 5.5 5.7 8.2 5 1.8-.5 2.1-1.7 2.7-12.2.7-11.3.6-11.7-1.6-13.4-2.2-1.8-4.4-1.9-8-.3-1 .4-1.8.3-1.8-.3 0-.5 1.3-1.5 3-2.2 2.7-1.1 3.6-.9 8.7 1.7 7.5 3.8 8.8 7.1 4.6 11.6-4.5 4.8-4.5 5.8-.2 12.8 4.7 7.6 5.2 11.9 1.4 11.9-4.1 0-10.8-3.8-13.3-7.5-3.1-4.4-8-9.5-9.2-9.5-.6 0-1 1.8-1 3.9 0 2.2-.4 4.2-.9 4.5-.4.3-2.9-.8-5.5-2.4-2.6-1.7-4.9-3-5.2-3-1 0-8.4-5.3-8.4-6.1 0-.4-4.4-5-9.7-10.1s-11.6-11.1-13.8-13.3c-2.3-2.2-4.4-4.7-4.7-5.5-.4-1.2-.8-1.2-1.8-.3-1.5 1.3-1.8.9 16.4 18.1 9.7 9.1 10.6 10.2 8.2 10.2-1.5 0-4 .7-5.7 1.5-2.1 1.1-3.4 1.3-4.7.6-1.4-.9-1.3-1 1.1-1.1 2.3 0 2.8-.4 2.5-2.1-.2-1.2-1.1-2.7-2-3.3-1.4-.8-2.1-.6-3.2.9-1.5 1.9-1.5 1.8-1.6-1.8 0-2.6-1-5.3-3.2-8.5-4.4-6.4-10.5-12.8-11.5-11.9-.4.4.4 1.8 1.8 3 4.5 4 10 12.5 10.5 16.4.8 5.8 2.3 8.9 4.9 10.3 2 1.1 3 1 5.8-.4 1.9-.9 4.3-1.6 5.4-1.6 1 0 5.6 2.4 10.3 5.3l8.5 5.3.3 21.4.2 21.5-17.2-.3c-9.5-.2-19.2-.1-21.5.3l-4.3.6v11.4c0 9.8.2 11.4 1.8 12 .9.5 20.9 1 44.5 1.3l42.7.4V859l-12.2-.1c-11.8-.1-14.6-.2-26.8-.7l-5.5-.2.3-20.5c.2-12.2.7-20.5 1.2-20.5 1.3 0 5 3.7 5 5 0 1.9 6.3 8 8.3 8 1.1 0 2.9-.8 3.9-1.7 1.7-1.5 2.2-1.5 7.8 1.2 5.2 2.5 6.2 2.7 8.9 1.6 1.6-.7 3.3-2 3.7-2.9.3-1 .8-10.9 1.1-22.2.3-16.1.1-20.9-.9-22.1-1.3-1.6-2.7-2.5-12.5-8-5-2.8-7.2-4.8-8.9-8.1-1.7-3.2-5.3-4.5-8.3-2.9-1.6.9-2.7.7-5.3-.7-1.8-.9-6.9-3.3-11.3-5.1-5.6-2.4-9-4.5-11.3-7.2-4-4.6-7.1-5-12.1-1.4m-13.3 3.5c3.3 2.1 4.2 4 1.8 4-2 0-8.6-4-8.6-5.1 0-1.5 3.3-1 6.8 1.1m-3.3 4c1.7 1.1 5.6 2.6 8.6 3.3 5.4 1.4 5.4 1.4 2.4 2.9-2.8 1.4-3.3 1.4-6.6-.6-7.9-4.7-9.9-6.1-9.9-6.8 0-1.4 2.1-.9 5.5 1.2m36.9 2c2.5.9 3.8 5 1.7 5-2.8 0-6.1-2.1-6.1-4 0-2.3.7-2.4 4.4-1m11.4 4.9c3.7 1.7 5.2 2.9 5.2 4.3 0 1-.3 1.8-.7 1.6-4.8-2.3-6.2-2.9-8.5-3.8-1.9-.6-2.8-1.7-2.8-3.1 0-1.1.3-1.9.8-1.7.4.2 3.1 1.4 6 2.7M454 767c0 .5-.6 1-1.4 1s-1.7.9-2.1 2c-.7 2.1 1 6 2.5 6s2.8-3.1 2.3-5.4c-.4-1.5.1-1.3 1.7 1.1 1.4 2.2 1.9 3.9 1.4 5.7-.7 3.1-2.8 3.3-7.1.6-2.8-1.7-3.3-2.6-3.3-5.8 0-2.1.5-4.3 1.2-5 1.5-1.5 4.8-1.6 4.8-.2m-12.5 4.4c1.8 1.3 1.7 1.4-.8 3-2.1 1.4-3 1.5-4.8.5-2.3-1.2-2.3-1.2 0-3 2.8-2.3 3.2-2.3 5.6-.5m11.5-.9c0 .3-.2.5-.5.5s-.5-.2-.5-.5.2-.5.5-.5.5.2.5.5m-6.1 7c1.3 1.4 2.9 2.5 3.6 2.5s1.8.6 2.4 1.4c1.7 2-1.2 4-4.5 3.2-7.3-1.9-10.5-8.8-4.4-9.5.3 0 1.6 1.1 2.9 2.4m20.8 1.7c3.2 1.8 6.7 3.8 7.8 4.5 1.8 1 2 2.3 2 12 .1 9.7-1 26.3-1.3 22.1-.1-1-1.6-4.6-3.4-8.2l-3.1-6.3 3.2-4c6-7.4 4.1-13-5.7-17.7-3.4-1.6-6.3-3.5-6.6-4.3-.8-2 .7-1.6 7.1 1.9m-36 .7c4 3.8 19.3 11.3 21.3 10.5.8-.3 2.5-.8 3.8-.9 2.2-.3 2.2-.2 2.2 11 0 6.7-.4 11.6-1 12s-3.8-2.2-7.3-5.7c-5.4-5.5-11.2-9.3-16.9-11.1-.9-.3-2.4.1-3.5.8-1 .8-2.1 1.5-2.5 1.5-.5 0-.8-4.7-.8-10.5s.4-10.5.9-10.5c.4 0 2.2 1.3 3.8 2.9m33 2.8c7.1 3.2 9.3 5.2 9.3 8.4 0 1.6-.6 3.8-1.2 4.9-1.2 1.8-1.3 1.6-2.3-2.3-.9-3.8-1.6-4.5-6.7-7.2-8.4-4.4-7.6-7.6.9-3.8m4.1 19c-.8 2.4-.5 3.9 2.5 10.1 3.3 6.8 3.8 10.2 1.6 10.2-.5 0-.9-.8-.9-1.9 0-1-1.6-4.5-3.5-7.7-4.1-6.8-4.2-8-1.3-11.1 2.7-2.9 2.8-2.9 1.6.4m-59.3-.7c.3.5.1 1-.4 1-.6 0-1.1-.5-1.1-1 0-.6.2-1 .4-1 .3 0 .8.4 1.1 1m41.9 18.2c-.3 1.5-.3 3.7.1 4.8.8 2.4 3.3 2.7 4.2.4.4-1.2.8-1.3 1.4-.3.9 1.6-.7 3.9-2.8 3.9-.8 0-2.1-.6-2.9-1.4-1.9-2-6.5-10.8-5.9-11.4.3-.3.5 0 .5.6 0 .7.5 1.2 1 1.2.6 0 1-1.2 1-2.8 0-2.7 0-2.7 2-.2 1.4 1.7 1.8 3.4 1.4 5.2m3.6 2.2c0 .8-.4 1.8-1 2.1-.5.3-1-.3-1-1.4 0-1.2.5-2.1 1-2.1.6 0 1 .6 1 1.4m20.5 6.2c-1.8 2.8-3.5 3-7.8.7-3.2-1.7-3.2-1.7 1.8-2.7 3.7-.8 5.3-1.7 6-3.4 1-2.3 1-2.3 1.3.3.2 1.4-.4 3.7-1.3 5.1m5.5 43.8v10.4l-14.7-.3c-8.2-.2-26.8-.4-41.5-.4L398 881v-20h83z"/><path d="M404.4 864.4c-.9 3.7-.1 6.1 2.1 6.1 2.3 0 3.3 3.1 1.6 4.8-.9.9-1.4.8-2-.2-.7-1-1-1-1.6-.1-1 1.7 1.8 4.2 3.8 3.4 3.6-1.3 3.5-8.3-.1-9.9-2.8-1.3-2.8-3.3.1-3.7s2.4-2.2-.7-2.6c-2-.3-2.7.2-3.2 2.2M416.7 862.6c-1.3 1.3-.7 3.3.8 2.8 1.8-.7 2 1.7.3 3.5-1 1.1-1 1.4 0 1.8 1.4.6 1.7 5.3.2 5.3-.5 0-1-.5-1-1 0-.6-.4-1-1-1-1.5 0-1.2 2.6.4 3.9 1.8 1.5 4.3.4 4.9-2.2.9-4.2-.7-13.2-2.3-13.5-.9-.1-1.9 0-2.3.4M437.2 863.2c-1.4 1.4-1.6 4.8-.3 4.8.5 0 1.2-1 1.6-2.3.8-2.1.8-2 1.2.8.2 1.7-.5 4.7-1.6 7-2.1 4.4-1.6 5.8 2 5.3 1.7-.2 2.5-1.1 2.7-2.8.4-2.1.2-2.2-1.2-1.1-2.4 2-2.8 1-1-2.4 3.4-6.6.8-13.5-3.4-9.3M449.1 863.4c-.9 1.1-.9 1.6 0 2.1.8.5 1 2.8.6 7.1-.4 5-.2 6.4.9 6.4s1.4-1.8 1.4-7.9c0-8.1-.8-10.2-2.9-7.7M459.7 863.7c-3.1 3.5-2 15.3 1.4 15.3 3.9 0 5.4-10.9 2.1-15-1.7-2.1-1.8-2.1-3.5-.3m2.7 2.9c1.3 3.4.3 9.4-1.5 9.4-.5 0-.9-2.5-.9-5.5 0-5.3 1.1-7.2 2.4-3.9M470.6 864.2c-.8 2.9-2.6 12.1-2.6 13.4 0 .8.5 1.4 1 1.4.6 0 1-1.1 1-2.5 0-1.8.5-2.5 2-2.5s2 .7 2 2.5c0 1.4.5 2.5 1 2.5 1.5 0 1.2-4.2-.7-10.5-1.7-5.3-3-6.8-3.7-4.3m2.1 6.5c-.4.3-1 .3-1.4 0-.3-.4 0-.7.7-.7s1 .3.7.7M425.5 871c.3.5 1.9 1 3.6 1 1.6 0 2.9-.5 2.9-1 0-.6-1.6-1-3.6-1-2.1 0-3.3.4-2.9 1M228 752.8c0 .6 1.6 2 3.6 3.1 2.1 1.3 3.4 1.6 3.2.9-.6-1.6-6.8-5.3-6.8-4M238 758.8c0 1.2 6.8 4.8 7.5 4 .3-.3-1-1.5-3-2.7-4-2.3-4.5-2.5-4.5-1.3M249 764.7c0 1.4 6.9 5.3 7.5 4.3.5-.9-.2-1.5-4.4-3.7-2.7-1.5-3.1-1.6-3.1-.6M259 770.7c0 1.2 7.9 5.2 8.5 4.3.3-.4-1.1-1.7-3.1-2.9-3.7-2.2-5.4-2.6-5.4-1.4M385.5 775.2c-2.8 1.6-4.8 3.8-4.2 4.4.6.7 7.7-3.8 7.7-4.9 0-1-1.2-.8-3.5.5M271 776.9c0 .8 6.4 5.1 7.6 5.1 1.4 0-.1-1.8-3.1-3.8-3.8-2.4-4.5-2.6-4.5-1.3M374.3 782.4c-1.8 1.3-3 2.5-2.7 2.9.9.8 7.5-3.4 6.8-4.4-.6-1.1-.3-1.2-4.1 1.5M282 783.4c0 .2 1.6 1.3 3.5 2.5 2.5 1.4 3.5 1.7 3.5.7 0-.7-1.1-1.8-2.5-2.4-2.6-1.2-4.5-1.5-4.5-.8M364.6 788.6c-1.5 1.4-2.6 2.8-2.3 3.1.7.7 6.7-3.5 6.7-4.8 0-1.5-1.3-1-4.4 1.7M292 788.9c0 1.3 6.9 5.1 7.5 4.1.3-.4-1.1-1.7-3.1-2.9-4-2.4-4.4-2.5-4.4-1.2M355.5 794.4c-1.6 1.3-2.8 2.7-2.5 3 .7.7 7-3.3 7-4.5 0-1.5-1.3-1-4.5 1.5M303 795.1c0 .9 5.8 4.9 7.3 4.9 1.9 0 .3-1.8-3.3-3.8-2.2-1.1-4-1.7-4-1.1M346.3 800c-2.8 1.7-4.4 4-2.8 4 1 0 7.5-4.5 7.5-5.3 0-1.2-1.3-.8-4.7 1.3M315 801.9c0 .6 1.8 2 4 3.1 2.8 1.4 4 1.7 4 .8 0-1.1-2.1-2.5-6.7-4.5-.7-.3-1.3 0-1.3.6M336.5 806.4c-1.6 1.3-2.8 2.7-2.5 3 .7.7 7-3.3 7-4.5 0-1.5-1.3-1-4.5 1.5M327.3 809.4c1.6 1.3 1.6 1.4-.5 2.9-3.4 2.2-1.5 3.2 2.1 1.1s3.8-2.9 1.2-4.4c-2.9-1.5-5-1.2-2.8.4M318.5 817.5c-1.6 1.3-2.7 2.6-2.4 2.9.6.7 6.9-3.4 6.9-4.5 0-1.5-1.3-1-4.5 1.6M308.5 823.5c-1.6 1.3-2.7 2.6-2.4 2.9.7.8 6.9-3.2 6.9-4.4 0-1.6-1.2-1.1-4.5 1.5M293.7 828.5c-6.4 3.9-6.9 4-9.6 2.3-1.5-.9-2.3-.9-3.5.1-.9.8-1.6 1.9-1.6 2.6s-.7 1.5-1.5 1.9c-.8.3-1.5 1.4-1.5 2.4 0 2.4 3.7 7.2 5.5 7.2 1.1 0 1.5 2.4 1.7 10.7.2 6.8.7 10.6 1.3 10.3s.9-4.7.8-10.7c-.2-10.2-.2-10.2 2.5-10.5 1.8-.2 2.8-1 3.2-2.8.4-1.6 2-3.2 4.6-4.5 6.4-3.2 9.4-5.4 9.4-7s-3.5-5.5-4.7-5.5c-.5.1-3.4 1.6-6.6 3.5m8.7.8c1.2 1.9.3 3.2-1.9 2.4-1.7-.7-2.1-5.1-.3-4.5.6.2 1.6 1.2 2.2 2.1m-4 2.3c1 2.6-.5 3.9-2.1 1.9-.7-1.1-1.3-2.2-1.3-2.7 0-1.5 2.8-.8 3.4.8m-12.9 1.4c.3.5-.1 1-.9 1s-1.8-.5-2.1-1c-.3-.6.1-1 .9-1s1.8.4 2.1 1m9.2.5c.8 2.2-.6 3.3-1.7 1.5-1.3-2-1.2-3 0-3 .6 0 1.3.7 1.7 1.5m-3.7 2.1c0 .8-.4 1.2-1 .9-.5-.3-1-1.3-1-2.1s.5-1.2 1-.9c.6.3 1 1.3 1 2.1m-9.1 1.7c1.5 1.9 1.8 5.9.4 6.4-.6.2-1.9-.7-2.8-2.1-2.6-3.9-.4-7.6 2.4-4.3m4.1-.3c0 .5-.4 1-1 1-.5 0-1-.5-1-1 0-.6.5-1 1-1 .6 0 1 .4 1 1m.6 4.7c-1 1-1.9-.5-1-1.8.6-1.1.8-1.1 1.2 0 .2.7.1 1.5-.2 1.8m2.4.8c0 .3-.2.5-.5.5s-.5-.2-.5-.5.2-.5.5-.5.5.2.5.5M241.9 873.6c-1.7 2-.1 4.6 3.2 5.4 1.6.4 2 .8 1.1 1.4-.7.4-2.2.4-3.5 0-1.9-.6-2-.5-.8 1 1.6 1.9 4.2 2.1 5.9.4 1.3-1.3 1.6-5.6.6-8.2-.8-2.1-4.8-2.1-6.5 0m5.1 1.9c0 .8-.9 1.5-2 1.5s-2-.7-2-1.5.9-1.5 2-1.5 2 .7 2 1.5M250.6 873.6c-1.2 3.1-.6 7.1 1.3 8.8 1.8 1.7 2 1.7 4-.3 3.7-3.7 2.5-10.1-1.9-10.1-1.6 0-3 .7-3.4 1.6m5 3c.7 2.7-.7 5-2.5 4-.6-.4-1.1-2-1.1-3.7 0-3.7 2.7-4 3.6-.3M259 873c0 .5.9 1 2 1 2.3 0 2.4.6.5 4-.8 1.4-1.4 3.1-1.5 3.8 0 2.5 2.2.7 3.5-2.8.7-1.9 1.6-4.3 2-5.3.6-1.4.2-1.7-2.9-1.7-2 0-3.6.4-3.6 1M268 873.5c-.7.8-.9 1.9-.5 2.3s1 .1 1.2-.6c.6-1.7 4.3-1.5 4.3.2 0 .8-1.4 2.3-3 3.3-1.7 1-2.9 2.4-2.8 3.3.4 1.8 5.6 2.6 7.1 1.1.8-.8.3-1.1-1.6-1.1-3.4 0-3.4-.5.1-3.5 2.2-2 2.5-2.7 1.6-4.2-1.5-2.4-4.7-2.8-6.4-.8M277.1 873.4c-1.8 2.1-1 8.7 1.2 10 1.5.9 2.2.7 3.7-1.2 1.1-1.3 2.9-2.2 4.5-2.2s3.4.9 4.5 2.2c2.6 3.2 5.4 1.4 5.8-3.6.6-6.6-3.6-8.9-6.6-3.6-2.3 4-5.4 4-6.9 0-1.2-3.3-4.2-4-6.2-1.6m4.7 3.6c.1 1.4-.2 3.1-.7 3.9-1.4 2.2-3.1.3-3.1-3.5 0-2.8.4-3.5 1.8-3.2 1 .2 1.8 1.4 2 2.8m13.2 1c0 2.9-.4 4-1.5 4s-1.5-1.1-1.5-4 .4-4 1.5-4 1.5 1.1 1.5 4M300.2 873.2c-3.1 4-1.9 11.2 1.9 10.6 2.8-.4 4.4-3 3.4-5.4-.4-1.1-.7-2.5-.6-3.3.2-1.3-1.5-3-3-3.1-.4 0-1.1.6-1.7 1.2m3.3 1.8c.3.5-.1 1-.9 1-.9 0-1.6-.5-1.6-1 0-.6.4-1 .9-1 .6 0 1.3.4 1.6 1m.1 4.1c.3.6.1 1.6-.5 2.2-.9.9-1.4.8-2.1-.3-.9-1.5-.4-3 1-3 .5 0 1.2.5 1.6 1.1M309.4 874.5c-1.1.8-1.4 1.5-.6 1.5.7 0 1.2 1.4 1.2 3.5 0 1.9.5 3.5 1 3.5.6 0 1-2.3 1-5 0-2.8-.1-5-.3-5s-1.2.7-2.3 1.5M316.3 873.6c-1.5.6-1.8 3.4-.4 3.4.5 0 1.2-.7 1.5-1.6.5-1.3.9-1.4 2.1-.4 2.1 1.7 1.9 2.3-1.5 4.3-4.2 2.5-3.9 4.7.5 4.7 1.9 0 3.5-.5 3.5-1 0-.6-1-1-2.2-1-2.2 0-2.1-.1.7-2.4 2.5-2.1 2.8-2.8 1.9-4.3-1.1-1.8-3.9-2.6-6.1-1.7"/></svg>