<svg xmlns="http://www.w3.org/2000/svg" viewBox="0 0 864 1214" fill="currentColor"><path d="M620.7 48.1c-.9.6-1.5 1.5-1.1 2 .9 1.5-.3 5.2-2.3 7.5-1 1.1-6.7 4.9-12.8 8.6-10.3 6.1-22.4 13.9-27 17.2-6.6 4.8-30.3 22.7-32 24.2-1.2 1.1-5 4.4-8.5 7.4-3.6 3-7 5.9-7.6 6.5-.6.5-3.2 3-5.8 5.3-2.6 2.4-4.5 4.6-4.2 5 .4.3 2.6-1.3 4.9-3.6 2.4-2.3 5.2-4.2 6.2-4.2 1.1 0 5.3 1.6 9.3 3.6 4.1 1.9 8.5 3.9 9.8 4.4 3.2 1.3 3.1 4.6-.3 8.2-1.4 1.5-2.4 3.1-2 3.4 1.2 1.2 6.7-6.1 6.4-8.6-.2-2.6-2.4-4-16.1-9.9-3.1-1.4-5.6-2.8-5.6-3.2s2.3-2.7 5.1-5.1c2.8-2.3 6.1-5.2 7.2-6.3C555.7 100 610 62 613.8 62c.3 0 1.6-1 2.9-2.2 2.3-2.1 2.3-2.1 4.9 3.8 14.4 31.7 49.1 53.8 108.4 69.2 6.3 1.7 13.4 3.3 15.8 3.7 4.3.7 4.7 1.1 3.6 4-.6 1.3-11.6 9.5-13 9.5-.8 0-42.2 27.9-49.5 33.4-4.1 3-10.3 7.6-13.9 10.3-3.6 2.6-6.6 5.1-6.8 5.5-.2.5-1 .8-1.7.8-1.4 0-11.5-5.9-20.7-12.2-6.6-4.4-10.8-5.6-12.9-3.6-.8.8-3.1 2.7-5.2 4.2-2.1 1.6-3.5 3.1-3.2 3.4.2.3 2.6-1.1 5.1-3.2 5.3-4 8.2-4.5 12.2-1.7 1.5 1 6.5 4.2 11.2 7.1 12.5 7.9 12.2 7.3 7 11.7-8.4 7.2-9.5 8.2-8.5 8.3.6 0 2.4-1.2 4-2.8 12.1-11 33.6-27.1 54.5-40.9 6.9-4.6 13-8.7 13.7-9.3.7-.5 1.4-1 1.7-1 1.9 0 27-17.7 27.9-19.7.8-1.8 1.8-2.3 4.6-2.3 2 0 5.2-.4 7.1-.9s5.2-1.1 7.3-1.4c3.7-.6 3.7-.5 3.7 2.8 0 1.9.8 5.8 1.9 8.7 4 11.2 5.6 22.9 4.4 32.5-.6 5.1-.9 5.7-4.2 7.2-4.6 2.1-15.5 9.1-15.9 10.2-.5 1.3-4 1.1-4.8-.2-.8-1.4-7.4-4.2-8.2-3.5-.3.3 1.1 1.2 3 2 4.8 2 6.3 4 4.3 5.6-1.3 1-1.9 1-3.3-.3-2.8-2.5-9.2-4.7-13.6-4.7-14.6.1-35 15.6-45.6 34.5-1.2 2.2-3.1 5.7-4.3 7.7-1.5 2.8-3.2 4.1-6.6 5.3-5.2 1.9-22.1 6.5-23.6 6.5-.6 0-2.8-2.7-4.9-5.9-3.9-6.2-10.2-13.1-14.3-15.8-2.4-1.6-2.4-1.6-.2-3.9 2.8-3 1.3-3.2-1.8-.2-2 1.8-2.6 2-4.8 1-3.1-1.4-4.3-1.5-3-.3.6.5 2.8 1.4 4.9 2.1 3.8 1.2 16.6 12.8 16.6 15 0 .6.9 2 2 3.2s2 3.3 2 4.6c0 2.2.3 2.4 3.6 1.8 1.9-.4 8.6-2.2 14.7-4.1s11.3-3.2 11.6-3c.2.3-1.2 3.1-3.1 6.2-1.9 3.2-5.3 9.2-7.6 13.4-5.2 9.5-7.2 11.7-11.1 12.5-1.7.4-3.1 1-3.1 1.5 0 .9 4.7-.3 8-2.1 1.9-1 2.6-.8 5.3 1.7 1.7 1.5 3.7 3.4 4.5 4 .7.7 1.7 1.3 2.2 1.3s1.5.6 2.2 1.3c2.8 2.7 15.9 7.7 20.1 7.7 7.3 0 23.2-9.7 30.2-18.5 4.2-5.4 11.5-17.5 12.1-20.5.3-1.4 1.4-4.8 2.4-7.5 1.5-4.3 2.2-5 4.8-5.3 1.8-.2 4.7-1.9 7.3-4.2 5.1-4.6 4.1-5.5-1.1-1-3.5 3-7.6 4.8-8.6 3.7-.3-.3.4-3.2 1.6-6.4 3.2-8.7 3.1-19.4-.4-26.3-2.9-5.8-2.7-7.3.5-4.4 3.7 3.3 5.9 9.3 5.9 16.6 0 3.8.3 6.8.8 6.8 1.3-.1 6.6-4.9 6-5.5-.3-.3-1.2.1-2.1.9-2 2.1-2.7 1-2.7-4.4 0-2.6-.9-6.2-2-8.5-1.3-2.6-1.6-4.2-1-5 1.1-1.3 19-13.4 22.7-15.4 3.1-1.6 3.5-.2 2.3 7.4-1.6 10.1-4.1 15.6-8.6 18.7-2.2 1.5-4.6 2.6-5.4 2.5-1.2-.2-1.6 2-2.2 12.3-1.7 31.6-2.9 52.5-3.9 64.5-.5 7.1-1.4 19.5-1.9 27.5-2.9 47.4-4 65.2-4.5 71-.6 7.6-4.3 69.5-5.1 85.5-.3 6-.7 12.8-.9 15-.7 5.8-4.1 58.4-5 77.5-.3 5.8-1 15.4-1.5 21.5-.5 6-1.4 18.9-2 28.5-3.1 52.2-3.8 60.9-7.1 91-2 17.8-5.9 45.6-7.8 55-5.8 29.3-12.7 56.7-18 72-4.7 13.7-7.2 20.3-8.8 24-.8 1.9-2.2 4.9-2.9 6.7-.8 1.7-1.4 3.4-1.4 3.7s3.3.6 7.4.6c7.4 0 7.4 0 9.5-4.9 1.1-2.7 2.1-5.5 2.1-6 0-.6.4-1.9 1-2.9.8-1.4 6.8-20.3 11.6-36.5 5.6-18.7 13.2-63.2 16.9-98.7.9-8.5 2-19.3 2.5-24 .6-4.7 1.4-19.8 2-33.5.6-13.8 1.5-32.4 2-41.5 1-16 1.9-36.4 4-87 1.3-30.2 2.9-65.3 3.5-74 .2-3.6.9-19.1 1.4-34.5 1.3-31.7 1.8-44.4 6.1-132.5.5-10.7 1.2-26.3 1.5-34.5 1-26.2 1.6-37.9 2.1-41.2.4-2.7 1.4-3.6 7.6-6.9 8.6-4.4 13-6.9 16.5-9.1 2.8-1.9 3.9-2.5 18.7-10.7 5.9-3.2 10.4-6.1 10.2-6.4-.3-.2-3.6 1.3-7.3 3.4-8.9 4.9-12.9 7.1-17.8 9.7-2.2 1.2-4.2 2.5-4.5 2.8-1.4 1.6-12 6.5-12 5.6.1-.7.9-3.7 2-6.7s2-8.2 2-11.5c0-6.8-1.5-5.3 15-14.3 11.9-6.4 20.2-11.4 19.7-11.8-.2-.2-3 1.1-6.1 2.9-3.2 1.7-7.9 4.4-10.4 5.8-2.6 1.4-7.7 4.2-11.4 6.3l-6.8 3.8v-10.5c0-8.5-.5-12.2-2.7-19.3-3.2-10.8-4-17.6-2.1-19.1.7-.5 3.8-1.9 6.8-2.9 6.5-2.2 29.6-13.6 32.5-15.9s1.6-1.8-14.5 6.2c-15.6 7.7-23 10.7-23 9.1 0-.6.7-2.2 1.5-3.6 4.7-8.5 13.7-31 21.1-53.2 2.9-8.4 6.1-14.6 9.3-17.4 1.6-1.5 2.2-1.6 2.5-.5 1.5 4.2 3.6 22.2 5.1 44.1.4 4.9 1.1 9 1.6 9.4 1.1.6 1.1 0-.1-15.6-1.4-17.6-4.1-38.3-5.1-39.5-.5-.5-.9-2.2-.9-3.7s-.5-2.8-1.1-2.8-.8.9-.4 2.1c.5 1.5-.1 3-2.3 5.3-4.3 4.6-7.6 10.9-11.2 21.6-1.7 5.2-3.5 10.4-4 11.5-.4 1.1-1.8 4.7-3 8s-3.1 7.9-4.1 10.2c-1.1 2.4-1.9 4.5-1.9 4.8 0 .6-7.5 17.2-8.9 19.5-1 1.8-5.8 3.7-6.8 2.6-.4-.4-.2-1.6.5-2.6 3.2-5.1 10.7-21 13.4-28.3 8.1-21.9 15.1-42.5 15.5-45.3.3-2.2-.2-4.3-1.9-6.8-1.2-1.9-2.6-3.6-3-3.6-1.3 0-.9.9 1.4 4 2 2.8 2.1 3.3.8 8.7-1.1 5.2-10.9 34.2-14 41.8-.7 1.6-1.6 3.9-2 5s-3.6 7.8-7.2 15c-7.2 14.3-7.1 14.3-16.8 14.4-9.3.1-47.9-9-55.2-13-1-.5-2.6-.9-3.6-.9s-2.2-.4-2.7-.8c-.6-.5-3.7-2-7-3.2-23.6-9.3-43.5-23.1-55.4-38.3-5-6.4-12.1-19.4-12.1-22.3 0-.8 1.7-3.7 3.7-6.2 3.7-4.7 3.7-4.7.4-1.7-3.4 3-3.4 3-2.7.2.7-3 .7-3-1.7-1.6m123.7 152.6c4.3 4.3 5.6 8.6 5.6 18.9 0 5.1-.4 9.6-1 9.9-.6.4-1-.9-1-3.1 0-8.5-2.9-13.3-13.9-22.6-2.4-2-4-4.1-3.6-4.7.3-.6 3-1.1 5.9-1.1 4.5 0 5.8.4 8 2.7M731 203l3.5 2.9-4.6.1c-2.5 0-6.1.5-8 1.2-3.9 1.3-11.2 5.9-10.5 6.6.3.2 1.7-.4 3.3-1.5 4.9-3.3 8.2-4.3 14.8-4.3 5.8 0 6.8.3 10 3.1 3.5 3.1 6.5 8.5 6.5 11.8 0 1-.8.4-1.9-1.5-6.9-11.3-21.1-10.4-33.6 2.1-5.9 5.9-7.1 7.4-11 14-7.5 12.7-11 27.4-8.6 36.3 2.3 8.7 4.8 11.5 13.6 14.9 1.4.5.6.8-3.2 1.1-9.2.6-14.1-3.8-16.4-14.8-1.9-8.9.7-23.5 6.2-34.2 1.1-2.2 1.8-4.2 1.6-4.4-.5-.6-5.2 9.2-7.5 15.5-2.4 6.8-2.3 25.4.1 29.9 1 1.9 1.6 3.6 1.4 3.9-.7.7-11.6-6.9-14.5-10-2.4-2.5-2.4-2.5.7-8.1 1.7-3.1 4.5-8.2 6.3-11.4 1.7-3.1 3.8-6.8 4.8-8.2.9-1.4 3.1-5.4 4.9-9 5.5-10.7 11.9-19.6 19-26.3 6.2-5.8 16.2-12.7 18.6-12.7.6.1 2.6 1.4 4.5 3m9.2 15.7c10.8 10.9 3.8 40.9-13.5 57.5-7.8 7.6-15.2 11.2-21.2 10.6-9.3-1.1-13.4-7.1-13.5-19.8 0-10.2 1.3-14.9 7.7-27.5 2.6-5.2 8.9-13.3 13.3-17.3 1.4-1.2 4.8-3.4 7.5-4.8 4.1-2.1 6.1-2.5 10.8-2.2 4.9.4 6.3.9 8.9 3.5"/><path d="M708.3 215.7c.4.3 1 .3 1.4 0 .3-.4 0-.7-.7-.7s-1 .3-.7.7M698 227.5c0 .3.2.5.5.5s.5-.2.5-.5-.2-.5-.5-.5-.5.2-.5.5M720.5 224.4c-2.7 1.3-7.1 4.6-9.7 7.2-4.9 5.1-11.2 15.7-10.6 17.6.2.6 1.7-1.5 3.3-4.8 2.6-5.3 6.4-10.3 12-15.6 5.5-5.2 14.6-6.5 18.2-2.6 3.4 3.8 4.3 6.4 4.3 12.8 0 17.8-15.1 38-28.5 38-5.3 0-7.9-2-10-7.5-1.7-4.3-1.6-8.3.2-16.5.4-1.9.3-2.2-.6-1.4-2.1 1.9-2.6 15.3-.8 19.6 2.9 7 11 9.3 19.3 5.3 8.2-3.9 17.3-16.2 21-28.4 3.2-10.7.6-21.2-6.1-24.4-4.7-2.2-6-2.1-12 .7M607.5 55.7c-32.9 20.3-42.6 27.2-62 43.6-8.9 7.6-30 28.5-29.4 29.1.3.3 5.9-4.7 12.5-11.2 11.3-11.2 21.2-20.2 27.9-25.3 1.7-1.3 3.2-2.6 3.5-2.9 2.7-3.1 32.5-23.1 48.3-32.4 8.9-5.3 10.9-6.7 9-6.5-.5 0-4.8 2.6-9.8 5.6M284.8 76.6c-1.2 1.1-1 23.2.2 23.9.5.3 20.2.9 43.8 1.2 32.8.5 43.1.3 43.6-.6.4-.7 1-6.1 1.2-12.1l.4-11-4.2-.1c-2.4-.1-6.8-.2-9.8-.4-18.1-.9-74.6-1.6-75.2-.9m85.4 3c1 .6 1.1 12.8.2 17.4l-.7 3.2-36.6-.3c-20.1-.1-38.7-.4-41.3-.7l-4.8-.5V77.8l41.2.7c22.7.3 41.6.9 42 1.1"/><path d="M294 81.9c0 1.8.3 1.9 3 1 3.4-1.2 3.1-2.9-.6-2.9-1.7 0-2.4.5-2.4 1.9M337.7 80.7c-.4.3-.7 1.5-.7 2.6 0 1.6.2 1.7 1.5.7 2.3-1.9 2.6-.9 1.4 5.4-.9 5.2-.7 7.8.5 6.5.6-.6 2.8-14.1 2.4-14.4-1-.8-4.6-1.4-5.1-.8M307 81.2c-.1.2-.2 3.8-.3 8.1-.1 5.6.1 7.7 1.1 7.7.8 0 1.2-2.3 1.2-8 0-4.7-.4-8-1-8-.5 0-1 .1-1 .2M327.2 82.2c-1.5 1.5-1.6 3.8-.2 3.8.6 0 1-.7 1-1.5s.5-1.5 1-1.5c.6 0 1 1.1 1 2.5s-.4 3.4-1 4.5c-.5 1.1-1.5 2.9-2 4-1.2 2.3.4 3.5 3.6 2.8 2.6-.5 3-2.8.5-2.8s-2.5-.2-.5-4.1c2.8-5.5.2-11.3-3.4-7.7M351.6 82.8c-.3.9-1.5 3.3-2.6 5.2-2.1 3.5-2.1 3.5.5 4.5 1.8.6 2.5 1.5 2.2 2.7-.3 1.1 0 1.8.8 1.8 1 0 1.4-1.9 1.3-7.5 0-7.3-1-10.3-2.2-6.7m0 7.9c-1.1 1.1-1.9-.6-1.1-2.4.8-1.7.8-1.7 1.2 0 .3 1 .2 2.1-.1 2.4M358 89c0 4.7.4 8 1 8s1-1.6 1-3.5c0-2.4.5-3.5 1.5-3.5s1.5 1.1 1.5 3.5c0 1.9.3 3.5.8 3.5.4 0 .8-3.6.9-8 .1-4.6-.2-8-.7-8-.6 0-1 1.6-1 3.5 0 2.4-.5 3.5-1.5 3.5s-1.5-1.1-1.5-3.5c0-1.9-.4-3.5-1-3.5s-1 3.3-1 8M294 87c0 1.7.4 2 2 1.5 1.7-.5 2-.2 2 2.3 0 3.5-.9 4.5-2.7 3.1-1-.9-1.3-.8-1.3.5 0 2.1 4.6 2.2 5.4 0 1.3-3.5.6-6-2.4-7.7-2.9-1.8-3-1.8-3 .3M315 89c0 .5 1.6 1 3.5 1s3.5-.5 3.5-1c0-.6-1.6-1-3.5-1s-3.5.4-3.5 1M398.7 101.6c-.3.3-.2 1.7.4 3.1.5 1.3.9 4.4.9 6.9 0 4.4 0 4.4 3.6 4.4 7.6 0 40.4 5.5 59.4 10 15.3 3.6 48.8 14.5 64.5 21 1.7.7 3.9 1.6 5 2 8.5 3.1 33.7 15.2 43.8 20.9 2 1.2 5.4 3.1 7.4 4.2 9.5 5.4 39.1 25.6 42.3 28.9.3.3 3 2.5 6 5 9.4 7.7 14.2 12.1 23.3 21.4 4.8 4.9 8.7 8.3 8.7 7.5 0-2.7-30.3-31.7-45-43.1-17.5-13.4-39.5-27.9-56.5-37-6.9-3.8-33.4-16.8-34.1-16.8-.2 0-3.4-1.4-7.1-3.1-27.2-12.6-68-25-108.3-32.9-5.8-1.2-11.2-2.3-12.1-2.6-.8-.2-1.8-.1-2.2.2M327.6 103.9c-.8 1.3-.2 21.1.7 21.1.4 0 .7-5 .7-11 0-10.5-.2-12.1-1.4-10.1M319.5 128.5c-2.2.8-4.1 1.5-4.2 1.5s-2 2.3-4.2 5.1c-5.5 6.9-5.4 9.3.7 15.8 5.5 5.9 8.2 7.1 16.3 7.1 7.5 0 11.4-1.7 16.1-6.9 5.4-5.9 5.6-7.8 1.5-13.7-4.2-6.1-9.3-9.7-12.5-8.9-1.5.4-2.1.2-1.7-.5.9-1.5-7.3-1.2-12 .5m6.5 1.5c0 .5-1.3 1.6-2.9 2.5-1.7.8-3.1 2.5-3.3 3.7-.4 2.9-3.2 3-3.6.1-.2-1.6.7-2.9 3.5-4.7 3.9-2.7 6.3-3.3 6.3-1.6m-10.2 3c-2.2 3-2.2 3-.2 5.7 2.7 3.5 4 3.9 4.7 1.1.5-1.8.9-2 1.9-1 .6.6 1.9 1.2 2.8 1.1 1 0 .7-.4-.7-1.1-3.6-1.7-2.9-4.5 1.3-5.7 5.4-1.5 11.2 2 7.8 4.6-.9.6-1.3 1.7-.9 2.3.5.8 1 .8 2 0 .8-.7 1.5-.7 1.9-.1.4.5-.3 1.6-1.4 2.4-1.1.7-1.7 1.6-1.4 2 1.1 1.1-8.1-.6-9.6-1.8-1.6-1.4-4.4-.9-3.4.6 1.2 2.1-2 .7-4.7-2-3.5-3.5-3.7-6.3-.7-9.1s3.2-2.5.6 1m16.2-2c0 1.3-1.1 1.3-3 0-1.2-.8-1.1-1 .8-1 1.2 0 2.2.4 2.2 1m7.1 4.7q.9 2.7 0 3.6c-.7.7-1.4.1-2.2-2.1-.6-1.8-1.5-3.2-2-3.2s-.9-.7-.9-1.5c0-2.4 3.9.1 5.1 3.2m2.3-2c1 2.5.3 2.3-1.7-.3-1.3-1.8-1.4-2.2-.3-1.8.8.3 1.7 1.3 2 2.1m-29.4 5.6c0 6.2 8 10.3 18.4 9.5 7.7-.7 12.4-3.5 13.3-8 .6-2.9.7-3 2-1.3 2.1 3 1.6 5.3-2.1 8.9-10.8 10.8-39.8 3.7-34.4-8.5 1.5-3.5 2.8-3.8 2.8-.6m29 2.2c-2.1 2.5-3.2 1.7-1.3-.9 1-1.3 2-2 2.1-1.5.2.5-.2 1.6-.8 2.4m-19.3 3.1c.7-.3 1.3-.1 1.3.4 0 1.3 10.1 1.3 13.6 0 1.5-.6 2.9-.8 3.2-.6.8.8-4.9 2.8-9.5 3.3-4.8.6-12.7-1.2-14.4-3.4-1-1.1-.8-1.2 1.6-.3 1.6.6 3.4.9 4.2.6m5.8 11.5c1.1 1.1-.9 1.2-5.4.3-1.7-.4-3.1-1.1-3.1-1.6 0-1.1 7.1 0 8.5 1.3m11-1.1c-.3.5-1 1-1.6 1-.5 0-.9-.5-.9-1 0-.6.7-1 1.6-1 .8 0 1.2.4.9 1m-5 1c.4.6-.5 1-1.9 1s-2.6-.5-2.6-1c0-.6.9-1 1.9-1 1.1 0 2.3.4 2.6 1"/><path d="M330 136.5c0 .3.2.5.5.5s.5-.2.5-.5-.2-.5-.5-.5-.5.2-.5.5M327.8 141.2c.9.9 1.5.9 2.4 0s.7-1.2-1.2-1.2-2.1.3-1.2 1.2M310 143c0 .7.3 1 .7.7.3-.4.3-1 0-1.4-.4-.3-.7 0-.7.7M811.5 129.8c-1.6 1-5.7 3.3-9 5.1-14.2 7.7-20.5 11.6-20.5 12.4 0 .6.5.5 1.3 0 .6-.6 3.9-2.5 7.2-4.3s9.2-5 13-7.2c3.9-2.1 8-4.4 9.3-5 1.2-.6 2.2-1.5 2.2-2 0-1.1 0-1.1-3.5 1M500.7 147.7c-5.5 9.2-6.9 14.7-7.1 28-.2 14.9 1.5 21.8 8.9 37.8 10.2 21.8 28.7 39.5 56.2 53.4 5.5 2.8 10.8 5.1 11.9 5.1 1-.1-.8-1.4-4.1-3-7-3.3-6.9-4 .1-1 2.6 1.2 5.5 1.9 6.3 1.8.9-.2-.6-1.2-3.4-2.2-5.3-2-19.1-8.9-26.4-13.2-13.8-8.1-30.5-24.2-36.3-35.1-4.3-8-1.1-5.7 8 5.7 6.2 7.8 17.5 18.5 23.8 22.8 11.5 7.7 35.7 19 38.6 17.9.7-.2-.3-.9-2.2-1.5-15.8-4.8-40.3-18.9-47.5-27.3-2-2.3-2-2.3 1-.4 6.7 4.3 12 6.9 10.7 5.3-.7-.9-2.6-2.1-4.2-2.8-1.7-.7-3-1.6-3-2s-1.1-1.2-2.5-1.8c-3-1.4-8.6-6.2-13.5-11.6-1.9-2.2-6.1-6.6-9.3-9.9-4-4-6.2-7.3-7.3-10.5-.8-2.6-1.8-6.1-2.3-7.7-2-6.3-3.2-21.1-2.1-24 .8-1.8.9-1.7.9.7.1 3.2 3.1 11.8 7.2 20.7 5.8 12.3 16.5 23.8 32.8 35 7.8 5.3 25.5 14.8 30.6 16.4 1.1.3 6.5 2.2 12 4.1 8.8 3.1 14.8 4.5 13.4 3.1-.3-.2-4.5-1.6-9.3-3-11.3-3.3-28.5-11-39.5-17.6-4.7-2.9-8.8-5.5-9.1-5.8-.3-.4-3-2.5-6-4.8-6.7-5.1-14.5-13.1-18.8-19.5-3.6-5.3-4-6.8-1.4-6.8s6.2-2.8 6.2-4.9c0-.9-2.3-4.2-5-7.2-2.8-2.9-6.4-7.8-8.1-10.6-1.7-2.9-3.4-5.5-4-5.8-1.1-.8-1.2-5 0-7.3 3.8-7.5 5.1-10.5 4.7-10.9-.2-.2-.6-.1-.9.4M549 259.5c0 .3-.2.5-.5.5s-.5-.2-.5-.5.2-.5.5-.5.5.2.5.5m5 2.5c1.4 1.1 2.1 2 1.5 2-.5 0-2.1-.9-3.5-2s-2-2-1.5-2c.6 0 2.1.9 3.5 2m5.5 3c.3.5.2 1-.4 1-.5 0-1.3-.5-1.6-1-.3-.6-.2-1 .4-1 .5 0 1.3.4 1.6 1M504 148.6c0 1.4 15.1 15.8 22 21 3 2.3 10.2 7.3 16 11.1 9.4 6.2 14.4 9.2 31.5 18.8 7.9 4.5 24.6 12.7 25 12.3.2-.2-2.2-1.7-5.3-3.3-5.4-2.7-24.1-12.8-30.7-16.5-12.1-6.8-33.2-20.7-35.2-23.2-1-1.2-.4-2.3 3.2-6.3 2.4-2.7 4.2-5.1 3.9-5.4-.2-.3-2.3 1.6-4.7 4.2-2.3 2.6-4.7 4.7-5.3 4.7-1.2 0-3.5-2-13.1-11.4-4-3.9-7.3-6.6-7.3-6M758.5 158.3c-18.3 10.3-63.7 36.4-70.5 40.7-7.5 4.6-21.1 13-29.2 17.9-1.6.9-2.8 1.9-2.8 2.3 0 .8 17.3-9.3 17.8-10.4.2-.5.8-.8 1.3-.8.6 0 3.7-1.8 6.9-4s6.2-4 6.5-4c.4 0 1.9-.9 3.4-1.9 4.3-3.1 19.8-12.1 49.6-28.8 18.7-10.4 23.4-13.3 22-13.3-.5 0-2.8 1-5 2.3M301.3 182.2c-.7 1.1-.6 44.8.1 45.6.4.3 15 .4 53.9.3l33.7-.1-.2-23.3-.3-23.2-43.2-.3c-33.9-.2-43.3.1-44 1m84.5 22.4.2 21.9-40.9.3c-40.8.4-40.8.4-41.3-2-.2-1.3-.4-11.1-.4-21.8l.1-19.5 34.5-.5c19-.3 37.4-.5 41-.4l6.5.1z"/><path d="M310 189.4c0 3.9.2 4.4 2 3.9 1.7-.5 2 0 2 2.6 0 3.3-.8 3.9-2.8 1.9-.9-.9-1.2-.8-1.2.5 0 2.3 2.6 3.3 4.5 1.7 1.6-1.3 2.1-8 .6-8s-4.2-3.1-3.6-4.1c.4-.5 1.5-.9 2.6-.9s1.7-.5 1.4-1c-.3-.6-1.7-1-3.1-1-2.2 0-2.4.4-2.4 4.4M323 185c-.1.3-.2 4-.3 8.3-.2 6.3.1 7.7 1.3 7.7s1.4-1.3 1.2-7.2c-.2-4-.8-7.7-1.3-8.3-.5-.5-.9-.7-.9-.5M343 186.9c-1.6 3-1.2 10.7.6 12.5 2.1 2.1 2.1 2.1 4-1.5 2.6-5.1.7-12.9-3.1-12.9-.3 0-.9.9-1.5 1.9m3.4 1.7c.9 2.3.7 7.7-.4 9.4-1.3 2.1-2.8-2.5-2.2-7.3.4-3.9 1.6-4.8 2.6-2.1M353 188.6c-1.4 4.1-.6 9.6 1.6 11.5 1.4 1.1 1.8 1 3-.6 2.1-2.8 1.7-5.3-1.2-8-2.6-2.4-2.5-4.9.1-3.8.9.3 1.5-.1 1.5-1.1 0-.9-.8-1.6-1.9-1.6-1.3 0-2.3 1.1-3.1 3.6m3.8 7.5c-.1 1.3-.7 2.3-1.3 2.2-1.3-.3-1.8-3-1.1-5 1-2.4 2.9-.1 2.4 2.8M364 187.5c-2 5.3-.8 12.5 2 12.5 4.4 0 4.6-13.3.3-14.8-.7-.2-1.7.8-2.3 2.3m3.8 3.5c.4 4.2-.6 8.6-1.8 7.4-.9-1-1.4-4.3-1.2-8.7.3-4 2.6-2.9 3 1.3M331.5 193c-.4.6.7 1 2.7 1 2.5 0 2.9-.3 1.8-1-1.9-1.3-3.7-1.3-4.5 0M365.1 208.4c-3.3 3.9-2 15.1 1.7 14.4 3.5-.7 4.1-9.8.9-14.1-1.2-1.7-1.4-1.7-2.6-.3m2.9 7c0 5.5-1.2 8-2.4 5-.8-2.1-.8-8.9.1-9.7 1.6-1.7 2.3-.3 2.3 4.7M373.6 208.5c-.4 1.2 0 1.4 1.9.9 3.1-.8 3-.9.1 7-1.4 3.5-2.2 6.7-1.9 7 1.1 1 4.9.6 6.1-.6.7-.7 1.2-1.9 1.2-2.8-.1-1.3-.3-1.2-1.4.2-1.6 2.1-3.6 2.3-3.6.4 0-.8.9-3.3 2-5.7 2.8-6.3 2.6-7.9-.9-7.9-1.7 0-3.1.6-3.5 1.5M310 212c0 3.3.3 4 2 4 1.6 0 2 .7 2 3 0 1.6-.4 3-1 3-.5 0-1-.5-1-1 0-.6-.4-1-1-1-1.6 0-1.1 2.7.6 3.4 2.5 1 4.4-1.3 4.4-5.1 0-2.6-.5-3.6-2-4-1.1-.3-2-1.4-2-2.4 0-1.2.7-1.9 2-1.9 1.1 0 2-.5 2-1 0-.6-1.3-1-3-1-2.8 0-3 .2-3 4M322.9 208.4c-.2.2-.3 3.8-.1 8 .3 6 .7 7.6 1.9 7.6 1 0 1.3-.6.9-1.6-.3-.9-.6-4.5-.6-8 0-5.6-.6-7.4-2.1-6M343 209.9c-1.6 3.1-1.2 9.6.8 12.1 1.6 2 1.9 2 3.1.6.7-.8 1.5-3.2 1.8-5.3.9-7.1-3.1-12.2-5.7-7.4m3.8 4.1c.4 4.2-.6 8.3-1.8 7.5-1.5-1-1.3-11.8.3-11.3.6.3 1.3 1.9 1.5 3.8M353.6 209.6c-1.1 2.8-.6 12 .6 13.2 1.8 1.8 2.6 1.5 4.2-1.5 1.5-3 .4-7.3-2.1-7.3-.7 0-1.3-.9-1.3-2.1 0-1.5.5-1.9 1.5-1.5.9.3 1.5 0 1.5-.9 0-2-3.6-1.9-4.4.1m4.4 8.9c0 .7-.7 1.8-1.5 2.5-1.2 1-1.5.7-2.1-1.4-.8-3.3.3-5.1 2.2-3.5.8.6 1.4 1.7 1.4 2.4M332 216c0 .5 1.1 1 2.5 1s2.5-.5 2.5-1c0-.6-1.1-1-2.5-1s-2.5.4-2.5 1M811.5 201.6c-4.4 2.5-15.4 8.7-24.5 13.6-9.1 5-17.4 9.7-18.5 10.5-1.9 1.4-1.9 1.5.5.8 1.4-.4 3.2-1.3 4-2s5.3-3.3 10-5.7c8.8-4.7 16.4-8.8 21.5-11.8 1.7-1 5.7-3.2 9-5 6.4-3.4 8.5-5 7-5-.6 0-4.6 2.1-9 4.6M763.1 200.6c-2.3 2.9-2.8 8.9-.8 9.7 4.1 1.6 9.9-6.1 7.7-10.3-1.5-2.8-4.5-2.5-6.9.6M605.1 207.4l-5.4 5.4 5.8 2.7c3.2 1.4 6 2.4 6.2 2.1.3-.2-1.8-1.5-4.7-2.7l-5.1-2.2 4.7-4.8c2.6-2.7 4.6-5.1 4.3-5.4-.3-.2-2.9 2-5.8 4.9M613.5 219c.3.5 1.4 1 2.3 1 1.5 0 1.5-.2.2-1-2-1.3-3.3-1.3-2.5 0M618 220.5c0 .7 7 3.5 8.4 3.4.6 0-.7-.9-2.9-1.9-4.2-2-5.5-2.3-5.5-1.5M755 231.7c0 2.2.2 2.5 1 1.3 1.3-2 1.3-4 0-4-.5 0-1 1.2-1 2.7M344.6 232.1c-.3.8-.7 6-.8 11.7l-.3 10.2h33c31.2 0 33.1.2 35.5 2 1.4 1.1 2.8 2 3.1 2 .4 0 9.3 4.9 19.9 11 10.6 6 19.4 11 19.5 11 .2 0 4.1 2.3 8.6 5.1 4.6 2.8 13.8 8.1 20.4 11.8s15.1 8.6 18.9 10.9c3.7 2.3 6.9 4.2 7.1 4.2s4.3 2.3 9.2 5.1c12.3 7.2 15.2 8.8 20.3 11.7 5.7 3.2 15.8 9 19 11.1 1.4.9 5 2.9 8 4.5s8.7 4.8 12.5 7.1c3.9 2.3 8.9 5.2 11.3 6.5l4.2 2.4.2 33.3c.1 18.3.2 34.5.3 36 .2 1.6.5 32.7.9 69.3.6 70.1 1.3 119 2.2 163.3.4 21.6.3 26.8-.8 27.1-1.6.5-99.6 1.4-250.9 2.2-73.6.4-115.8 1-116.4 1.6-.7.7 23.2.8 69.5.4 38.8-.3 121.4-.9 183.5-1.2 62.2-.4 114.1-1.1 115.4-1.6 2.3-.8 2.3-.8 1.7-14.1-.3-7.2-.8-41.6-1.1-76.2-.3-34.7-.7-74.7-1-89s-.7-53.9-1.1-88c-.3-34.1-.7-62.5-.9-63.1s-4.1-3.3-8.7-5.9c-4.5-2.6-10.8-6.2-13.8-8s-7.5-4.4-10-5.7c-2.5-1.4-10.1-5.8-17-9.8s-15-8.6-18-10.3c-3-1.6-5.9-3.3-6.5-3.7-.5-.5-3.7-2.3-7-4.1s-10.4-5.8-15.7-9-11.4-6.7-13.5-7.9c-2.1-1.1-4.5-2.4-5.3-3-3.2-2-15.2-9-15.5-9-.2 0-5.9-3.2-12.7-7.1-6.7-3.9-14.3-8.3-16.8-9.7s-9.5-5.4-15.7-8.9l-11.2-6.4-30.8.3-30.8.2-.2-10.3c-.2-10-.7-12.9-1.7-10M585.2 236c-1.9 3-1.4 5.8 1.2 7.5 3.4 2.2 15.6 6 26 8 8.1 1.6 9 1.6 10.4.1 2.7-2.7.3-4.7-9.9-8.3-5.2-1.8-12.4-4.7-16.2-6.3-7.9-3.5-9.8-3.7-11.5-1M664.6 240.9c-1.6 1.7-1.6 2-.1 3.5 2.1 2 4.9 2.1 6.6 0 1.1-1.4 1-1.9-1-3.5-2.9-2.4-3.4-2.4-5.5 0M546.1 246.8c8.5 5.4 38.3 16.3 36.5 13.4-.3-.5-2-1.2-3.8-1.6-5.3-1-19.7-6.6-28-10.7-9.2-4.6-10.9-5-4.7-1.1"/><path d="M642.5 253.1c-7.5 1.5-26.9 2.1-35 1.1-8.9-1.2-10.7-.9-4.7.8 8.3 2.2 35.7 1 47.7-2 3-.8 3-.8-.5-.8-1.9 0-5.3.4-7.5.9M660 253c-1.4.4-5.3 1.4-8.8 2-4.4.9-6.6 1.9-7.3 3.3-1.6 2.8.2 4 4.8 3.4 7.2-1.1 13.8-2.4 15.5-3.1 2-.9 2.9-4.1 1.5-5.5-1.3-1.3-2.2-1.3-5.7-.1M221 254c-1.2.7-1 .9.7.7 1.2 0 1.9-.5 1.7-.9-.6-1-.6-1-2.4.2M231.5 253.9c.5.9 11.5.5 12.4-.5.2-.2-2.6-.4-6.3-.4-3.8 0-6.5.4-6.1.9M268.7 253.7c13.3.2 35.3.2 49 0 13.6-.1 2.8-.2-24.2-.2-26.9 0-38.1.1-24.8.2M585 263.3c-14.1 13.7-30 27.8-37 32.7-1.9 1.3-3.7 2.7-4 3s-2.1 1.7-4 3c-1.9 1.4-4.4 3.2-5.4 4.2-1.1 1-2.5 1.8-3 1.8-1.2.1-5.6 3.5-5.6 4.4 0 1 6.2 3.7 7.5 3.3 3-1.2 25.3-21.4 39.5-36 15.5-15.8 15.5-15.8 17.8-13.4 2.9 3 2.8 3.9-.3 3.1-1.4-.3-2.5-.4-2.5 0 0 .3 1.8 1 4 1.6 2.9.8 4 1.6 4 3 0 1.1-.1 2-.2 2-.2 0-2.5-.7-5.2-1.5-5-1.5-7.8-1.3-3.5.3s8.5 2.1 9.9 1.2c1.3-.8 1.2-1.4-.5-4.6-1-1.9-2.9-4.4-4.2-5.4-3.1-2.4-2.9-3.8 1.2-8.4 1.9-2.1 3.5-4 3.5-4.2 0-1.4-2.7.8-12 9.9M38.3 255.6c-.6 1.6.2 150.3 1.2 223.4.3 19.5.7 75.8.9 125.1.2 49.4.7 90.2 1.1 90.9.7 1.1 26.5 1 119.5-.5 11.3-.2 28.6-.3 38.4-.4 9.9-.1 17.7-.4 17.3-.7-.7-.7-20.4-.7-108.8.2l-64.7.7-.6-20.4c-.3-11.2-.8-72.2-1-135.4-.3-63.3-.7-121.8-1-130-.5-16.7-.9-151.6-.4-152 .2-.1 39.8-.5 88.2-.8 48.3-.3 88.1-.8 88.4-1.1.3-.4-39.6-.6-88.7-.6-81.4 0-89.2.1-89.8 1.6M226.3 254.7c.4.3 1 .3 1.4 0 .3-.4 0-.7-.7-.7s-1 .3-.7.7M656.6 267.2c-.3 1.8-1.7 10.5-3.1 19.3s-3.9 24.5-5.6 35c-1.6 10.4-3.4 21.5-3.9 24.5-.6 3-1.5 8.4-2 12-.6 3.6-1.5 9.2-2.1 12.5-.5 3.3-1.4 8.5-1.9 11.5-1.8 10.9-5 30.8-7.5 47-1.4 9.1-2.9 18.7-3.5 21.5-.5 2.7-1.9 11.1-3.1 18.5-1.1 7.4-2.9 18.4-3.9 24.5-1 6-2.4 14.4-3 18.5s-1.7 10.6-2.5 14.5c-.8 3.8-2.1 11.7-3 17.5s-2 12.7-2.5 15.5c-.6 2.7-2.2 12.2-3.6 21-1.5 8.8-3 18-3.5 20.5-1.2 6.6-1.1 31.8.1 32.5.6.3 1.2 0 1.4-.7.8-2.7 3.8-22.6 10.6-69.8 1.6-11.3 3.4-23.4 4-27 .5-3.6 1.5-9.9 2.1-14s1.4-10 1.9-13c.4-3 2.2-15 3.9-26.5 1.7-11.6 4.5-30 6.1-41s3.9-26.3 5-34 2.4-16.7 3-20 2-11.9 3-19c1.1-7.2 2.7-17.1 3.5-22 .8-5 2.4-15.5 3.5-23.5s2.5-16.8 3-19.5c.5-2.8 1.9-11.8 3-20 1.1-8.3 2.3-16 2.5-17.3.3-1.2.1-2.2-.4-2.2-.6 0-1.2 1.5-1.5 3.2M628 267.9c-14.8.6-15.2.6-8 1.4 9.3 1 33.2.5 32.1-.6-1.3-1.3-6.9-1.4-24.1-.8"/><path d="M235.7 271.7c-.4.3-.7 10.9-.7 23.5V318l13.8.1c7.5.1 17.6.1 22.5 0h8.7V343l-17.2.2-17.3.3.4 72.7.4 72.6-3.9 1.9c-2.1 1.1-7.3 2.8-11.4 3.8-4.1.9-7.9 2.1-8.5 2.5-.5.4-2.3 1-3.9 1.4-1.5.4-2.6.9-2.3 1.3.5.4 3.6-.4 17.3-4.7 1.7-.6 3.7-1 4.5-1 .7 0 4-1.6 7.2-3.6 5.8-3.6 5.8-3.6 9.7-1 2.4 1.5 5.4 2.6 7.4 2.6 4.4 0 13.3 1.8 16.6 3.3 3.8 1.7 10 8.3 10 10.5 0 2.3 1.6 3.8 7.8 7.2 5.2 2.9 6.2 4.6 3.3 5.5-2.5.8-3.8 4.4-2 5.6.8.5 2.5 1.2 3.9 1.5s3.2.8 4 1.1c9.3 3.3-47.3-3.2-67.7-7.8-4.5-1-8.9-1.2-8.1-.4 1.7 1.7 52.8 9.5 62.5 9.5 12.6 0 22.5 4.3 31.1 13.3 3.6 3.8 5.5 7 6.6 10.7 3.2 10.8 1.4 13.9-8.9 15.1-3.8.5-7 .8-7.1.6-.1-.1.1-2.6.3-5.4.3-3.2.9-5 1.6-4.6 1.9 1.1 6.9.4 8.8-1.3 2.5-2.2 2.4-4.5-.2-7.8s-4.6-3.3-8.1.1c-2.8 2.7-2.8 2.7-2.8-1.5 0-3.5-.5-4.5-3.2-6.5-5.6-4.2-11.5-6.7-15.7-6.7-2.3 0-7.1-.4-10.8-1-15.7-2.2-38.3-6-44.8-7.4-7.3-1.7-10.2-2-9.3-1.1.5.5 6.1 1.7 30.3 6.4 6.2 1.2 16.8 2.7 30.5 4.2 9.1 1 11.2 1.6 15.8 4.5 3.8 2.5 5.2 4 5.2 5.7 0 2.3-.1 2.3-8.7 1.9-4.9-.3-9.1-.9-9.4-1.4-.4-.6-.9-.6-1.4.2-.4.7-1.7.9-3.4.4-1.4-.3-4.1-.6-5.8-.5-2.6.1-3.3-.2-3.3-1.6-.1-1.7-.1-1.7-1.4 0-.8 1-1.2 2.6-.9 3.6.2 1-.2 2.4-1 3.2-1.2 1.2-1.2 1.7 0 2.7.8.9 1.3.9 1.3.2 0-.6 1.2-1 2.7-.8 3.6.4 4.3 3.5 1.1 4.7-1.7.7-1.9 1-.5 1 1 .1 1.7.9 1.7 2.1 0 1.8-.4 2-4 1.4-2.7-.4-4-.3-4 .5 0 .6 1.5 1.1 3.3 1.1s3.8.5 4.4 1.1c.7.7 1.3.7 1.7.1.3-.6 2.3-.8 4.5-.5 3.7.5 3.8.4 3.4-2.1-.5-2.5-.4-2.6 4.6-2.5 2.9.1 5.5-.1 5.8-.5.3-.3-.1-.6-1-.6-1.2 0-1.7-.8-1.7-2.6 0-2.1.3-2.5 1.8-1.9 1.6.7 3.1.8 6.7.4 2.3-.3 1.8-1.9-.6-1.9-3.6 0-1.9-3.4 1.9-3.8 2.9-.3 3.2-.1 3.2 2.2 0 3.2 2.5 3.5 3.3.5.3-1.2 1-1.8 1.6-1.4.6.3 1.1-.1 1.1-.9 0-1.9 3.1-2.1 4.8-.4s1.5 4.9-.5 6.4c-2.4 1.8-5.3 1.7-5.3-.2 0-1.3-.5-1.2-2.8.5-2.3 1.6-2.8 2.6-2.4 5 .4 2.8.2 3.1-2.2 3.1-1.4 0-2.6.4-2.6 1 0 .5.9 1 2 1s2 .4 2 1c0 .5-2.2 1-4.9 1-2.8 0-5.3.5-5.7 1.2-.5.8 2 1 10.2.5 13.9-.9 17.3-1.9 22.6-6.6 4-3.7 4.2-4.1 4.1-9.4-.2-6.9-3.4-13.4-9.9-20.3-7.4-7.7-8.5-8.2-16-7.6l-6.4.5v-7.9c0-6.8-.3-8.3-2.7-11.7-2.1-3-3.1-3.7-4.9-3.3-2.5.7-2.7.1-3.9-10.1-.6-4.9-.9-5.3-4.2-6.4-2-.6-3.8-.7-4.2-.3-1.1 1.5-8.7 6.4-9.9 6.4-2.1 0-1.3-2 1.3-3.2 1.4-.6 2.5-1.5 2.5-2s-1.3-.1-3 .9c-1.6.9-3 2.1-3 2.5 0 1.7-13.5-.4-18.1-2.8-2.6-1.3-5.4-2.1-6.3-1.8-1.4.6-1.6-3.2-1.7-39.7-.1-22.2-.2-54.4-.3-71.4l-.1-31 37.3-.3 37.2-.2.1 6.2c.1 3.5.2 9.4.3 13.3.1 3.8.6 7.1 1.1 7.3 1.5.4 1.8-4.1 1-16.6l-.7-11.2h-20.3c-23.7 0-21.5 1.5-21.5-14.1 0-9.7 0-9.7 3.3-10.2 1.7-.3 11.2-.6 21.1-.6 9.8 0 18-.2 18.3-.4.6-.7.4-44.8-.3-45.8-.6-1-87.7-1.2-88.7-.2m86.4 17c.1 8.7.3 17.8.3 20.3.1 2.5 0 5.2-.2 6-.3 1.3-5.7 1.5-41.7 1.5-22.8 0-41.6-.3-42-.6-.5-.6-.9-26.3-.6-38.2l.1-4.7h84zm-31.4 202c2.1 5.9 3.3 10 3.3 11.5 0 2.3 2.8 4.4 4.2 3 .8-.8 1.6-.4 3.1 1.5 2 2.5 2 2.6.2 3.9-2.5 1.8-3.4 1.8-7.3-.6-2.1-1.3-3.5-3.1-3.8-5-.6-2.9-7.3-10-9.4-10s-.8-2.6 2.3-4.7c4.3-2.9 6.3-2.8 7.4.4M304 513c0 1.1-.4 2-.9 2-1.4 0-2.3-1.8-1.6-3 1-1.7 2.5-1.1 2.5 1m-.2 8.8c.3 1.8-.2 2.2-2.2 2.2-1.9 0-2.6-.5-2.6-1.9 0-3.6 4.3-3.8 4.8-.3m20.7 9.6c2.8 2.4 6.6 7 8.5 10.2 2.9 4.8 3.5 6.7 3.5 11.6 0 4.1-.5 6.3-1.7 7.4-1.6 1.6-1.7 1.5-1.6-2.2.4-8.6-10-22.4-20.7-27.6l-4.8-2.3 4.4-.6c2.4-.3 5.1-.7 5.9-.7.9-.1 3.8 1.8 6.5 4.2M289.8 548c1.7 0 2.2.6 2.2 2.6 0 2.5-.2 2.6-3.7 2-2.1-.3-5-.6-6.5-.6-2 0-2.8-.5-2.8-1.8 0-2.8 1.1-3.4 5-2.8 1.9.3 4.5.6 5.8.6m9.2 2.5c0 2-.5 2.5-2.3 2.5-3 0-3.6-.6-3-3.1.3-1.2 1.4-1.9 2.9-1.9 1.9 0 2.4.5 2.4 2.5m5.8.7c-.3 2.5-1.7 3.2-3.7 1.9-1.9-1.2-.6-4.1 1.9-4.1 1.6 0 2.1.5 1.8 2.2m-6.8 5.5c0 2.2-.3 2.4-2.7 1.8-1.5-.3-3.1-1.2-3.5-1.8-.6-.9-.8-.9-.8 0 0 .7-1 1.3-2.3 1.3-2.8 0-3.7-.7-3.1-2.5.4-.9 2.5-1.3 6.5-1.3 5.6 0 5.9.1 5.9 2.5m-8 4.8c0 2.6-.7 2.9-3.4 1.9s-2-4.4.9-4.4c2 0 2.5.5 2.5 2.5"/><path d="M244.7 275.7c-.4.3-.7 2.1-.7 4 0 2.6.4 3.3 2 3.3s2 .7 2 3.1c0 2.6-.3 2.9-2 2.4-1.1-.3-2-.2-2 .4 0 1.6 1.8 2.3 4 1.6 2.8-.9 2.8-7 0-8.7-1.1-.7-2-2.1-2-3 0-1.1.8-1.8 2-1.8 1.1 0 2-.5 2-1 0-1.1-4.3-1.4-5.3-.3M257.9 275.2c0 .2-.1 3.8-.2 8-.1 5.2.2 7.9 1 8.2 1.4.6 1.7-15 .3-15.9-.6-.3-1-.5-1.1-.3M278 277.6c-2 5.2-.5 13.4 2.4 13.4 2.1 0 3.6-3.2 3.6-7.4 0-7.5-3.9-11.5-6-6m3.8 6c-.2 2.7-.7 4.9-1.3 4.9-1.1 0-1.9-7.9-1-10.3 1.1-3 2.6.5 2.3 5.4M289.1 276.9c-1.7 3-1.4 12.6.4 14.1 2 1.7 4.1.7 4.6-2.2.7-3.9-.1-6.7-2.2-7.3-1-.4-1.9-1.5-1.9-2.6 0-1.6.4-1.9 2.1-1.4 1.5.5 2 .3 1.7-.6-.7-2.2-3.6-2.2-4.7 0m3.4 7.2c.9 1.4-.3 5.9-1.5 5.9-.6 0-1-1.6-1-3.5 0-3.4 1.2-4.6 2.5-2.4M300 277c-1.5 2.8-.4 3.9 1.5 1.4 1.4-1.8 1.4-1.8 1.5.3 0 1.2-.9 4.4-1.9 7.2-2.2 5.3-2 6.1 1.6 6.1 2.7 0 4.1-2.6 2.4-4.3-.8-.8-1.1-.7-1.1.6 0 .9-.5 1.7-1.1 1.7-1.3 0-.8-2.7 1.2-7.8 2.1-5-1.7-9.7-4.1-5.2M310 283.5c0 8.3 0 8.5 2.4 8.5 3.4 0 4.1-1.5 3.8-8.5-.2-4.1-.8-6.4-1.9-7.3-3.6-2.7-4.3-1.6-4.3 7.3m4-4c0 1.4-.4 2.5-1 2.5-.5 0-1-1.1-1-2.5s.5-2.5 1-2.5c.6 0 1 1.1 1 2.5m.8 7.8c.2 1.9-.1 2.7-1.2 2.7s-1.6-1-1.6-3.1c0-3.8 2.4-3.5 2.8.4M267.8 283.7c1.2.2 3 .2 4 0 .9-.3-.1-.5-2.3-.4-2.2 0-3 .2-1.7.4M289.6 299.2c-2.2 3.1-2.1 11 .2 13.1 2.2 2 4 .9 4.8-2.9.6-3-.9-5.7-3.8-6.6-.7-.3-.9-1.2-.5-2.2.6-1.6 1-1.6 2.3-.5 1.4 1.2 1.6 1.1 1.3-.5-.6-2.8-2.5-3-4.3-.4m2.9 9.1c0 3.9-1.9 3.8-2.3-.2-.3-2.4 0-3.2 1-2.9.7.3 1.3 1.7 1.3 3.1M300.6 298.5c-1.8 1.8-2 3.1-.7 3.9.5.3 1.1-.4 1.5-1.6.4-1.6.8-2 1.6-1.2s.6 2.3-.5 5.5c-3.1 8.4-3.1 9.1.1 8.7 1.8-.2 3-1 3.2-2.1.3-1.6 0-1.8-1.9-1.2s-2.1.5-1.4-1.1c2.5-5.9 2.9-9.4 1.4-11-1.5-1.4-1.8-1.4-3.3.1M309 297.3c0 .2.7 2.4 1.5 4.7s1.5 6 1.5 8.1c0 2.2.5 3.9 1 3.9.6 0 1-1.7 1-3.9 0-2.1.7-5.8 1.5-8.1 1.8-5 1.8-5 .5-5-.5 0-1.2 1.6-1.6 3.6-.7 3.8-2 3.5-2.6-.5-.1-1.4-.9-2.6-1.5-2.9-.7-.2-1.3-.2-1.3.1M244 302c0 3.3.3 4 2 4 1.6 0 2 .7 2 3 0 3.2-.9 3.7-2.8 1.8-.8-.8-1.2-.8-1.2-.1 0 .6.7 1.6 1.5 2.3 2.3 1.9 4.5-.5 4.5-4.7 0-2.6-.5-3.6-2-4-1.1-.3-2-1.4-2-2.4 0-1.2.7-1.9 2-1.9 1.1 0 2-.5 2-1 0-.6-1.3-1-3-1-2.8 0-3 .2-3 4M258 298.2c-.1.2-.2 3.8-.3 8.1-.1 5.6.1 7.7 1.1 7.7.8 0 1.2-2.3 1.2-8 0-4.7-.4-8-1-8-.5 0-1 .1-1 .2M277.9 300.7c-1.3 3.3-.6 9.7 1.2 11.9 2.1 2.5 4.9-1 4.9-6.3 0-7.7-3.9-11.3-6.1-5.6m4.1 4.7c0 5.5-1.2 8-2.4 5-.8-2.1-.8-8.9.1-9.7 1.6-1.7 2.3-.3 2.3 4.7M267.8 306.7c1.2.2 3 .2 4 0 .9-.3-.1-.5-2.3-.4-2.2 0-3 .2-1.7.4M584.6 276.8c1.3 1.2 14.5 4.2 18 4.2 1.6-.1 7-1 11.9-2 6-1.3 7.3-1.8 4-1.5-18 1.7-21.1 1.7-27.3.1-7.3-1.8-8-1.9-6.6-.8M625 277c0 .6 4.7 1 12.5.9 6.9-.1 12.2-.5 11.9-1-.8-1.3-24.4-1.2-24.4.1M383 312.8c-8.5.1-15.7.6-16 1.1s-.3 6 0 12.2l.5 11.4 21.5-.1c11.8-.1 32-.2 44.8-.3l23.3-.1-.3-12.3-.3-12.2h-29c-15.9 0-36 .1-44.5.3m71 12.2v11h-84v-22h84z"/><path d="M376.7 316.7c-.4.3-.7 2.4-.7 4.5 0 3.5.3 3.9 2.2 3.6 2.4-.3 3.5 2 2.4 4.9-.5 1.3-.9 1.4-1.8.5-1.6-1.6-2.8-1.5-2.8.2 0 1.8 3.9 3.1 5.2 1.8 1.8-1.8 1.2-7.4-1-9.3-2.7-2.2-2.8-3.5-.2-4.2 1.1-.3 2-1 2-1.6 0-1.2-4.2-1.5-5.3-.4M389.9 316.5c0 .5-.2 4.5-.2 8.7-.2 5.7.1 7.8 1.1 7.8 1.5 0 1.7-13.7.2-16-.5-.8-1-1.1-1.1-.5M410 318.6c-1.8 4.5-.8 12.9 1.6 13.8 4.2 1.6 6.4-11.2 2.6-14.7-2.5-2.3-3.1-2.1-4.2.9m4 5.9c0 3-.4 5.6-.9 5.9-1.7 1.1-2.8-7.4-1.5-10.8 1.2-3 2.4-.5 2.4 4.9M421.2 317.2c-.7.7-1.2 3.9-1.2 7.5 0 5.1.3 6.4 1.9 7.3 1.5.7 2.3.6 3.5-.6.9-.8 1.6-2.1 1.6-2.7 0-3-1.4-5.7-3.1-6.2-1-.4-1.9-1.5-1.9-2.6 0-2.1 1.6-2.6 2.3-.7.2.7.8 1 1.2.6 1.1-1-.2-3.8-1.8-3.8-.7 0-1.8.5-2.5 1.2m3.3 10.1c0 3.9-1.9 3.8-2.3-.2-.3-2.4 0-3.2 1-2.9.7.3 1.3 1.7 1.3 3.1M431.5 319.4c-.8 4 0 5.8 2.3 5.4 1.8-.3 2.7 2.3 1.8 4.9-.5 1.2-.9 1.3-2.1.3-2-1.7-3.2-.5-1.5 1.5 1.7 2.1 3.7 1.9 5-.4 1.6-3 1.2-5-1.5-7.7-3.1-3.1-3.1-4.2-.2-4.6s2.4-2.2-.7-2.6c-2.1-.3-2.6.2-3.1 3.2M442.6 318.2c-2.5 4-2.4 9.5.2 12.8s5.2 1.7 5.2-3.2c0-2.3-.4-3.7-1-3.3-.5.3-1 1.9-1 3.6 0 3.7-1.7 3.8-3.1.2-1.1-3-.4-8.9 1.2-9.9.6-.3 1.7.2 2.4 1.2 1.4 1.8 1.4 1.8 1.5-.2 0-1.2-.7-2.5-1.6-2.8-2.2-.8-2.2-.8-3.8 1.6M398 325c0 .5 1.4 1 3 1 1.7 0 3-.5 3-1 0-.6-1.3-1-3-1-1.6 0-3 .4-3 1M411.7 364c.6 25.5.6 25.5-2 26.9-1.5.8-2.9 2.2-3.2 3.1s-2 2.2-3.9 2.8c-7.2 2.6-10.4 8.9-7.5 14.3.9 1.9 11.8 7.5 17.9 9.4 7.9 2.4 23.6 11.3 29.3 16.6 13.3 12.1 14.5 17.3 6 24.8-5.1 4.6-5 5.2.2 1.8 3.9-2.5 6.5-7 6.5-11.4q0-2.85.9-1.5c1.5 2.4-.5 9.3-3.6 12.1-4.6 4.1-6.6 4.9-18.5 7.8-6.2 1.4-10.7 2.8-9.9 3.1 2 .7 21.2-4.7 25.6-7.1 4.7-2.7 7.5-6.4 8.6-11.4.7-3.4.8-3.3.4 1.2-.9 8.5-6 12.5-22 17.1-4.4 1.2-7.1 2.3-5.9 2.3 1.2.1 3.4-.3 5-.8s4.9-1.5 7.4-2.2c11.6-3.4 17-9.1 17-17.8 0-5.8-1.2-9-5.4-14.6-5.5-7.3-17.8-17.3-23.1-18.7-1.1-.3-2.9-.9-3.9-1.4-1.4-.5-1.7-.4-1.1.5.9 1.6-1.3 1-9.8-2.6-3.5-1.4-6.7-2.1-8-1.8-1.6.5-1.8.4-.8-.3 1.1-.8 1-1.1-.6-1.6-1.1-.4-2.7-.4-3.6 0-.9.3-3-.4-4.7-1.6-2.5-1.8-3-2.8-3-6.1 0-2.2.6-4.7 1.4-5.5 1.9-1.8 3.2-1.8 1.7 0-2.1 2.5-1.6 7.4.9 10.1 3.4 3.6 4.7 3.1 1.6-.6-1.4-1.7-2.6-3.9-2.6-4.8 0-2.8 3.9-7.2 7.8-8.8 2.7-1.1 3.2-1.7 2.1-2.4-1.2-.7-1.1-.9.2-.9 1.4 0 2.9 1.9 2.9 3.6 0 .2-1.5 1-3.2 1.7-4.7 2-7.2 5.1-6.4 8.1.8 3.1 4.3 5.5 13.1 9 9.8 3.9 10.2 4.1 9 2.9-.5-.5-4.6-2.5-9-4.3s-8.8-4-9.7-4.8c-1.9-1.6-2.5-7.2-.8-7.2.6 0 1 .9 1 1.9 0 2.2 4.8 6.1 10 8.1 8.2 3.2 30 14.7 36.2 19.1 1.4 1.1 3 1.9 3.6 1.9 1.8 0 18.4 16.4 22.1 21.9 4.6 6.8 8.1 14.3 8.1 17.2 0 4.7-2.6 10.5-6.7 14.8-3.2 3.4-4.6 4.2-5.4 3.4-.9-.9-1.9-.8-4.2.3-1.6.9-3.9 1.3-5.2 1-2.6-.7-7.5 2.7-7.5 5.1 0 .9-.7 2.4-1.6 3.4-1.4 1.6-1.4 2.1.1 5.3 1.8 3.8 2.5 4.1 9.5 5.1 3.7.5 4.9.3 6.8-1.5 1.2-1.1 2.2-3.2 2.2-4.5 0-1.5.7-2.6 2-3 1.2-.4 2-1.5 2-2.9s2.1-4.4 5.4-7.7c8.5-8.8 10.4-17.1 6-26.6-9.6-20.5-24.6-33.6-56.9-49.5-6.6-3.3-13.3-6.6-15-7.5-7.1-3.8-8.3-6.8-3.7-9.5 1.5-.9 4.6-3 6.9-4.7 3.9-2.9 4.2-3.3 3.1-5.6-1.1-2.6-5.1-3.5-6.3-1.5-.3.5-1.2 1-1.9 1-1 0-1.4-5.2-2-22.5-.3-12.3-1.1-23.4-1.6-24.7-.6-1.5-.7 6.9-.3 23.2m9.3 25.9c0 2.2-.8 3.4-3.2 5-3.3 2.1-3.3 2.1-5 0-2.2-2.6-1.7-3.4 3-5.9 4.9-2.5 5.2-2.5 5.2.9m-11 13.5c0 2 5.3 5.8 12 8.7 12.9 5.6 34.5 17.8 41.8 23.7 10.8 8.6 19.1 18.8 24 29.4 3.9 8.4 2.4 17-4.1 24.4-2.1 2.4-4.5 4.4-5.3 4.4-2.1 0-1.7-1.2 2-5 4.8-5.1 6.6-9.2 6.6-14.8 0-12.9-16.7-33.1-37.5-45.3-9.6-5.7-31.5-16.9-33-16.9-.3 0-2.3-1.1-4.5-2.5-2.9-1.8-4-3.2-4-5 0-1.4.5-2.5 1-2.5.6 0 1 .7 1 1.4m17.3 20.5c2.6 1.1 6.8 3.5 9.3 5.2s4.8 2.9 5.1 2.6-1.9-2-4.8-3.8-4.7-3.5-4.1-3.7 3.1 1 5.4 2.7c7.9 5.6 8.4 6.1 7 7-.9.6-.8 1.2.7 2.5s2 1.4 2.4.4c.3-.9 1.1-.6 2.7 1.2 3 3.4 7.4 11 6.7 11.6-.3.3-1.3-1-2.2-2.9s-2.6-4.3-3.7-5.4c-2.1-1.8-2.1-1.8-1.4.1.4 1.1-1.6-.2-4.6-3-7.3-7-14.5-11.4-27-16.8-3.2-1.4-5.8-2.7-5.8-2.9 0-.5 6.6 1.9 14.3 5.2M448 435c0 .5-.4 1-1 1-.5 0-1-.5-1-1 0-.6.5-1 1-1 .6 0 1 .4 1 1m26 58c0 .5-.7 1-1.5 1s-1.5-.5-1.5-1c0-.6.7-1 1.5-1s1.5.4 1.5 1m-6.3 5.9c2.8 4.1 3.1 10.6.7 11.5-2.2.8-3.1-.1-1.6-1.6 3.2-3.2-.7-10.8-5.5-10.8-2.3 0-3-1-1.6-2.4 1.7-1.6 5.8.1 8 3.3m9.1-1.6c.4 1.8-1.4 4.7-2.8 4.7-.6 0-4-5.5-4-6.4 0-.1 1.5-.2 3.2-.1 2.3 0 3.4.5 3.6 1.8m-11.9 3.1c1.7 2 1.9 6.8.4 7.3-.8.3-1.3-.3-1.3-1.5 0-1-.9-2.7-2-3.7s-2-2.2-2-2.7c0-1.3 3.7-.9 4.9.6m-4.5 2.1c3.3 3.3 2.9 8.6-.6 7.3-1.9-.8-4.2-5.4-3.5-7.2.8-2 2.1-2 4.1-.1"/><path d="M442 433c0 .5.5 1 1 1 .6 0 1-.5 1-1 0-.6-.4-1-1-1-.5 0-1 .4-1 1M448 439c0 .5.5 1 1 1 .6 0 1-.5 1-1 0-.6-.4-1-1-1-.5 0-1 .4-1 1M466.5 352.5c-2.3 1.3-4.1 3.2-4.3 4.4s-.7 2.1-1.1 2.1c-1.9 0-5.1 4-5.1 6.4 0 1.9-.5 2.6-1.9 2.6-1 0-4.9 1.7-8.7 3.8-18.7 10.4-18.3 10.1-16.4 13.7.7 1.4 1.7 2.5 2.1 2.5.5 0 3.1-1.4 5.9-3 2.8-1.7 5.4-3 5.8-3s1.8-.9 3.2-2c4.3-3.3.8-2.2-6 2-3.6 2.2-6.8 4-7.2 4-.5 0-.8-1.2-.8-2.8 0-2.2.8-3.1 4.8-5.2 2.6-1.3 7.3-3.9 10.5-5.8 3.1-1.8 6.2-3 6.7-2.7 2 1.2.9 4.1-2.1 5.9-1.7 1-2.8 2-2.5 2.3s2.6-.9 5.2-2.6c3.5-2.5 5.3-3.1 7.5-2.6 1.7.4 4 0 5.9-1 1.7-.9 3.9-1.4 4.8-1.1s4.1-.8 7-2.4c5.2-3 5.2-3 4.6-7.3-.4-2.3-1-4.4-1.3-4.7-.4-.3-1.4-1.7-2.3-3.1-2.2-3.4-8.6-3.6-14.3-.4m4.5 1c-1 1.2-1 1.8 0 3 1.6 1.9 3.5 1.9 6.5-.1 2.5-1.6 2.5-1.6 4 2 2.1 5 1.9 6.3-1.5 8.1-4.1 2.1-5 1.9-5-1.5 0-2.3.7-3.3 3.3-4.6 1.7-1 2.7-1.9 2-2.1-.6-.2-2.3.3-3.7 1.2-2.4 1.6-2.7 1.5-7.2-1.1-4.6-2.7-4.6-2.7-2.3-4.5 3.1-2.4 5.7-2.6 3.9-.4m5.6 0c-2.2 1.7-3.6 1.9-3.6.7 0-1.4 1.2-2.2 3.4-2.2 2.1.1 2.1.1.2 1.5m-3.5 11.8c.7 4.7-.7 4.9-1.5.2-.5-2.5-1.5-3.9-3.6-5-1.6-.8-3.2-2-3.6-2.6-.3-.6 1.3 0 3.7 1.3 3.6 2 4.5 3.1 5 6.1m-6-3.7c2.3 2.7-2.2 4.5-6.2 2.3-1.6-.8-1.8-1.3-.8-2.5 1.5-1.9 5.3-1.8 7 .2m-5.8 3.8c1 .8 1.7 2.5 1.6 4.2q-.15 3.15-.6.9c-.3-1.1-1.4-2.6-2.4-3.3-1.9-1.3-2.6-3.2-1.1-3.2.4 0 1.5.7 2.5 1.4m8.7.9c0 2.5-1.7 4.7-3.7 4.7-1.9 0-1.6-4.7.5-5.9 2.6-1.6 3.2-1.3 3.2 1.2M279.4 374.3c-.2.7-.3 6-.2 11.8l.3 10.4 21.8.3 21.7.2v6.1c0 4.8-.3 6.1-1.7 6.6-2.3.8-10.6 6.4-11.6 7.7-.4.6-.5 1.9-.3 2.9.3 1.2-.4 2.2-2 2.9-2.1 1-3.3 2.8-1.9 2.8 1.5 0 5.5-3.4 5.5-4.7 0-.8.6-1.3 1.3-1 .6.2 1.2 1.3 1.2 2.5.1 3.1 1 3.5 4.4 1.8 4.3-2.3 5.1-2 5.1 1.6 0 4.3 1 5.6 4.6 6.4 4.6.9 6.4-1.5 6.3-8.4 0-8.1-1.7-12.4-5.6-14.2-3.1-1.4-3.3-1.8-3.3-7.2V397l21.3-.2 21.2-.3v-23l-43.8-.3c-35.6-.2-43.8 0-44.3 1.1m84.9.6c.4 0 .6 4.7.5 10.3l-.3 10.3h-82l-.3-10.2-.3-10.3 21.3-.2c19.3-.3 59.2-.2 61.1.1m-35.4 37c2.2 1.7 2.5 2.8 2.9 10.5.4 7.5.2 8.7-1.3 9.2-1 .4-2.5.3-3.4-.3-2.1-1.3-3.5-8.1-2-10 1.9-2.2.5-2.4-3.3-.3-3.6 1.9-5.8 1.3-5.8-1.7 0-.7-.4-1.3-1-1.3-.5 0-1-.7-1-1.6 0-1.4.2-1.5 1.7-.3 1.4 1.2 1.5 1.2.9 0-.5-.8-.3-1.7.5-2.2 2-1.3 2.9-1.1 2.9.6 0 .8.5 1.5 1.1 1.5s.8-.9.4-2c-1.3-4.2 3.1-5.5 7.4-2.1"/><path d="M333.1 377.3c-1.6 2.1-2.4 7.2-1.7 11.2.6 2.8 1.1 3.5 3.1 3.5 4.2 0 4.5-6.8.4-9-2.6-1.5-2.6-4.3.1-3.5 2.3.7 2.7-.7.6-2.4-1-.8-1.6-.8-2.5.2m2.7 10.8c-.1 1.3-.7 2.3-1.3 2.2-1.3-.3-1.8-3-1.1-5 1-2.4 2.9-.1 2.4 2.8M343.7 377.8c-2.8 3.1-2 7.2 1.6 8.5 2.5.9 2.3 4.1-.3 3.4-1.3-.3-2 0-2 .9 0 .8 1 1.4 2.5 1.4 2 0 2.5-.6 3.1-3.5 1.4-7.5-1.7-14.2-4.9-10.7m3.1 4c.2 2.4-.1 3.2-1.2 3.2-1.2 0-1.6-1-1.6-3.6 0-4.5 2.4-4.2 2.8.4M288.4 379.5c-.8 3.3.2 5.7 2.3 5.3 1.9-.3 2.9 2.3 1.9 4.9-.5 1.2-.9 1.3-2.1.3-.9-.7-1.9-1-2.3-.6-1 1.1 2.7 3.6 4.3 3 3.3-1.3 2.4-9.4-1-9.4-.8 0-1.5-.9-1.5-2 0-1.3.7-2 2-2 1.1 0 2-.5 2-1 0-.6-1.1-1-2.5-1-1.8 0-2.6.7-3.1 2.5M302.1 377c-.7 1.5-.5 15.3.2 15.7 1.4.8 1.4.1.7-8.2-.4-4.4-.8-7.8-.9-7.5M321.1 380.1c-1.4 4.1-1.4 6.2.1 9.4 1.3 2.8 4.3 3.3 5.2.9.3-.9.6-3.4.6-5.5 0-7.6-3.8-10.6-5.9-4.8m3.9 4.4c0 5.3-1.1 7.2-2.4 3.9-.8-2.1-.8-7.9.1-8.7 1.6-1.7 2.3-.3 2.3 4.8M354.6 379.2c-.8 2.7-2.6 10.7-2.6 11.7 0 .6.5 1.1 1 1.1.6 0 1-1.2 1-2.6 0-2 .4-2.5 1.6-2 .9.3 1.8.6 2 .6s.4 1.2.4 2.7c0 2 .3 2.4 1.1 1.6.9-.9.9-1.9.1-4-.6-1.5-1.4-4.5-1.8-6.6-.6-3.6-2.1-4.9-2.8-2.5m1.1 6c-.3.7-.5.2-.5-1.2s.2-1.9.5-1.3c.2.7.2 1.9 0 2.5M310 385c0 .5 1.4 1 3 1 1.7 0 3-.5 3-1 0-.6-1.3-1-3-1-1.6 0-3 .4-3 1M324 415c0 .7.3 1 .7.7.3-.4.3-1 0-1.4-.4-.3-.7 0-.7.7M317.5 420c.3.5.8 1 1.1 1s.2-.5-.1-1c-.3-.6-.8-1-1.1-1s-.2.4.1 1M142 398v12h44v8c0 8.2-.9 9.7-3.9 6.7-1-1-1.1-.9-.6.5.4 1 1.7 2 2.8 2.3 4.9 1.4 10.7 4.6 10.2 5.5-.4.6-2.9-.2-6.2-2-3.1-1.7-6.2-2.9-7-2.6-1.5.6-1.8 7.6-.3 7.6.6 0 1-1.4 1-3 0-1.7.3-3 .8-3 .4 0 3.5 1.4 7 3 6.1 3 6.2 3.2 6.2 7.1 0 5-1.6 5.7-6.9 2.9-4.1-2.1-5.7-4.6-2.2-3.5 1.1.3 2.2.1 2.6-.5.9-1.4-2.3-6.2-3.8-5.7-1.8.6-1.9 2.5-.1 2.3 2.6-.2 2.8 2.2.2 2.6-1.3.2-2.3.9-2.3 1.6 0 1.9 8.2 6.4 10.9 6 1.8-.3 2.1-1.1 2.4-5.2.5-7.6-.3-9.4-4.8-11.2-4-1.6-4-1.6-4-10.5V410h21.3c11.8 0 21.6-.2 21.8-.4s.3-5.6.1-12l-.3-11.6H142zm86.4-7.7c.3 1.2.4 5.8.3 10.2l-.2 8h-84l-.3-9.4c-.1-5.2-.1-9.9.1-10.5.3-.8 13.1-1 42.1-.8 41.6.2 41.6.2 42 2.5"/><path d="M151 393.9c0 3.3.4 4 2.3 4.3 1.7.2 2.1.9 1.9 2.7-.3 3.2-.8 3.6-2.7 2.1-1.2-1-1.5-1-1.5.4 0 2.2 2.7 3.1 4.5 1.6 1.6-1.3 2-5.7.7-7.6-.4-.6-1.5-1.3-2.4-1.7-2.6-.9-2.2-2.6.7-3.7 3.3-1.3 3.2-2-.5-2-2.8 0-3 .2-3 3.9M162.6 391.6c-.3.9-.6 3.9-.6 6.9 0 6 1.9 8.7 4.5 6.5 1.8-1.5 2.1-12 .3-13.8-1.7-1.7-3.5-1.5-4.2.4m3.7 4.1c1 6.3-1.2 11.2-2.8 6.3-.8-2.5.3-10 1.5-10 .4 0 1 1.7 1.3 3.7M184.7 391.7c-.2 1-.5 4-.6 6.7-.1 5 1.1 7.6 3.5 7.6 2.3 0 3.2-3.3 2.5-9.5-.5-5.1-.9-6-2.8-6.3-1.4-.2-2.3.3-2.6 1.5m3.8 3.3c-.3.6-1 1-1.6 1-1 0-1.2-3.3-.2-4.4.9-.9 2.6 2.2 1.8 3.4m.4 4.8c.7 1.3.6 2.3-.1 3-1.9 1.9-2.8 1.4-2.8-1.8 0-3.4 1.4-3.9 2.9-1.2M195.5 392.1c-1.3 4-1.3 7.2.1 10.6 1.6 3.8 2.9 4.2 4.4 1.4 2.3-4.4.6-14.1-2.5-14.1-.7 0-1.7.9-2 2.1m3.5 5.9c0 5.7-1.1 7.8-2.4 4.4-1.4-3.5-.4-10.4 1.5-10.4.5 0 .9 2.7.9 6M206.7 390.7c-1.4 1.3-.6 2.4 1.3 1.8 2.3-.7 2.7 1.3.8 3.4-1 1.1-1 1.4 0 1.8 1.4.5 1.7 6.3.2 6.3-.5 0-1.4-.8-1.9-1.8-.9-1.5-1-1.4-1.1.6 0 2.7 2.4 3.9 4.5 2.2 1.1-.9 1.4-2.7 1-7.1-.2-3.3-.7-6.4-1-6.9-.7-1.1-2.8-1.3-3.8-.3M218.6 391.1c-1.3 4.3-1.3 5.7 0 5.2.9-.3 1.4.1 1.4 1.2s-.5 1.5-1.4 1.2c-.9-.4-1.7.1-2 1.1-.2.9-.7 2.7-1.1 3.9-.4 1.4-.2 2.3.4 2.3s1.1-1.1 1.1-2.5c0-1.8.5-2.5 2-2.5 1.3 0 2 .7 2 1.9 0 1.8 1.7 3.8 2.5 3 .4-.5-3.2-14.9-3.9-15.6-.3-.3-.7 0-1 .8M174 398c0 .5 1.2 1 2.6 1s2.3-.4 1.9-1c-.3-.6-1.5-1-2.6-1-1 0-1.9.4-1.9 1M297.6 430.6c-1 1.4-1.5 3.1-1.3 3.7.3.7.8.4 1.2-.8.5-1.1 1.5-2.8 2.3-3.8.8-.9 1-1.7.5-1.7-.6 0-1.8 1.2-2.7 2.6M296 439.9c0 1.7.5 3.3 1 3.6.6.4 1-.8 1-2.9 0-2-.4-3.6-1-3.6-.5 0-1 1.3-1 2.9M175.9 443c-1.3 1-1.9 1.9-1.3 2 .7 0 2.2-.9 3.5-2 1.3-1 1.9-1.9 1.3-2-.7 0-2.2.9-3.5 2M168 448c-1.4 1.1-2 2-1.5 1.9 1.3 0 5-2.8 4.4-3.3-.2-.3-1.5.4-2.9 1.4M296 451.4c0 1.9.5 3.8 1 4.1.6.4 1-1 1-3.4 0-2.3-.4-4.1-1-4.1-.5 0-1 1.5-1 3.4M159.2 454c-1.6 2.6-1.5 4.5.3 6 1.7 1.4 1.9.7.5-2-.7-1.4-.6-2.3.5-3.4 1.6-1.6 1.9-2.6.7-2.6-.4 0-1.3.9-2 2M296.6 461.3c-.5.9-.5 2.9 0 4.5.7 2.5.8 2.6 1.1.4.3-1.2.3-3.2 0-4.5-.3-1.9-.4-2-1.1-.4M165.5 463.6c3.3 2.6 5.5 3.6 5.5 2.5 0-.5-1.4-1.7-3.2-2.5-3.9-2-4.9-2-2.3 0M385.3 465.1c-1.2.4-2.6 1.7-3.2 2.7-.6 1.1-2.1 2.2-3.5 2.6-2.3.6-3.6 3.1-4.1 7.9-.3 3 2.4 12 4.4 14.7 1.2 1.7 2.9 2.6 5.4 2.8 2.1.2 3.7.7 3.7 1.3 0 1.3 6.7 1.1 7.6-.2.3-.6 2.1-1.7 3.9-2.5 3.3-1.3 3.3-1.3 2.8-7.6-.3-3.5-1.1-8.1-1.8-10.3s-1.1-4.3-.8-4.8c.8-1.3 3-.7 4.8 1.3 2.6 2.8 2.7 13.8.2 17.7-.5.8-.3 1.3.6 1.3 1 0 2-2 2.8-5.7 1.4-5.7 1.4-5.7 10.2-7.4 4.8-.9 9.1-1.9 9.4-2.3 1.1-1.1-3.1-.6-10.9 1.3-6 1.4-7.8 1.5-7.8.6 0-.7 1.7-1.8 3.8-2.4l3.7-1-4 .5c-3.7.4-4.2.2-6.2-2.9-1.3-1.8-2.3-4.1-2.3-5.1 0-1.6-.8-1.7-6.2-1.5-3.5.2-7.2-.2-8.3-.8-1.2-.6-2.9-.7-4.2-.2m3.1 4.4c2.2 3.4 2 4.3-.4 1.7-1.2-1.2-2.5-2.2-3-2.2-.6 0-1-.5-1-1 0-1.9 2.8-1 4.4 1.5m5.6 5.1c2.2 5.9 2.9 21.4 1 21.4-.6 0-.8-1.5-.4-3.8.7-4.6-1.1-15.3-3.7-21.1-1.4-3.2-1.5-4-.4-3.1.8.6 2.3 3.6 3.5 6.6m8-6.6c0 1.2-2.8 2.5-3.6 1.7-.9-.9.6-2.7 2.2-2.7.8 0 1.4.5 1.4 1m-6.3.6c-.3.3-1.2.4-1.9.1-.8-.3-.5-.6.6-.6 1.1-.1 1.7.2 1.3.5m-8.9 3.7c5.1 5.4 5.8 21.7.9 21.7-.8 0-1.2-2.3-1.2-7.8 0-6.1-.5-8.5-2.2-11.4-3-5.1-1.4-6.7 2.5-2.5m11.6 1.7c1.8 4.5 2.2 15.5.6 14.5-.5-.3-1-1.9-1-3.4s-.8-5.3-1.9-8.4c-1-3.1-1.6-5.9-1.3-6.2 1.2-1.2 2.1-.3 3.6 3.5m-16 .2c.9 1.2 1.6 2.9 1.5 3.8 0 1.1-.5.9-1.6-.8-1.9-2.7-3.1-2.8-4.9-.5-1.3 1.7-1.3 1.7-1.4-.3 0-4.4 3.9-5.7 6.4-2.2m.4 10.2c.3 3.8.1 5.6-.7 5.6-1.7 0-3.1-4.5-3.1-9.8 0-4.3.1-4.5 1.7-3 1 1 1.8 3.9 2.1 7.2m-2.4 6.5c2 1.9 3.5.6 4.7-4.1.8-2.9.8-2.8.5 1.5-.2 2.7-.8 5.3-1.3 5.8-2.5 2.5-6.6-3.2-7.7-10.7-.5-3.4-.4-3.3.8 1 .8 2.7 2.2 5.6 3 6.5m4.3-8.7c-.3.8-.6.5-.6-.6-.1-1.1.2-1.7.5-1.3.3.3.4 1.2.1 1.9m8.4 12.1c-.6 1.5-1.5 2.7-2.1 2.7-1.2 0-1.3-1.5-.1-3.8.5-.9 1.3-2.6 1.7-3.7.7-2 .8-2 1.1.1.2 1.1-.1 3.2-.6 4.7m7.1-2.8c0 .5-.5 1.1-1.1 1.3s-1.1-.4-1.1-1.3.5-1.5 1.1-1.3 1.1.8 1.1 1.3"/><path d="M439.8 466.5c-.3.3-7.2 1.9-15.4 3.6-14 2.8-17.8 3.9-14.2 3.9 3.2 0 31.3-6.2 32.3-7.1q.75-.9-.6-.9c-.9 0-1.8.2-2.1.5M175 468.8c0 .8 6.3 4.2 7.8 4.2.4 0-1-1.1-3-2.5-3.9-2.7-4.8-3-4.8-1.7M296 474.4c-.5 1.3-1.4 2.7-1.9 3.1-.6.3-1.1 1.2-1.1 1.8.1 1.7 5-4.1 5-5.9 0-2.1-.9-1.7-2 1M418.8 474.7c.6.2 1.8.2 2.5 0 .6-.3.1-.5-1.3-.5s-1.9.2-1.2.5M186 475.4c0 .8 7.3 4.7 7.7 4.2.3-.3-1-1.4-2.8-2.5-3.3-2-4.9-2.6-4.9-1.7M326.3 479.9c-4.7 2.9-6.8 6.7-6.6 11.9.2 5.5 3.9 10.6 8.9 12.2 4.5 1.5 7.8.9 14-2.7 4.7-2.8 17.5-6 19.3-4.8.5.3 5.1 7.1 10.2 15.2 9.4 14.6 18 27.9 21 32.4 3.2 4.8 15.2 23.7 22.8 35.9 7.7 12.5 7.7 12.5 13.9 12.8 3.8.2 6.2-.1 6.2-.8 0-.6-2.3-1-5.4-1-5.3 0-5.3 0-12.3-10.8-11.7-17.9-28.5-44.1-36.3-56.2-4-6.3-9.8-15.3-12.8-20-6.4-9.8-6.9-11.2-4.8-12.9 2.7-2.3 1.9-6.2-2-9.8-4.2-3.8-4.4-3.8-11.7-1.9-3.9 1-6.5 1.1-9.8.4-9-2-11.3-2-14.6.1m15.7 1.5c5.5 1.2 5.5 1.2 6.9 6.8 1.7 6.7 1.4 7.3-6.2 11.6-7 4-10.8 4.7-14.5 2.8-4.8-2.5-7.2-6.3-7.2-11.3 0-3.8.5-5 3.4-7.9 3.9-3.9 7.8-4.3 17.6-2m18.9 2.3c.6 2.1 1.1 5.2 1.1 7 0 2.9-.4 3.3-3.7 4.2-6.6 1.9-7 1.7-7.6-4.5-.3-3-1.1-6.2-1.7-7-1-1.1-.8-1.6 1.1-2.3 1.3-.5 4.1-1 6.1-1 3.4-.1 3.8.2 4.7 3.6m4.1 3.5c0 .5-.4.8-1 .8-.5 0-1-1-1-2.3 0-1.8.2-1.9 1-.7.5.8 1 1.8 1 2.2"/><path d="M328 485c0 .5.4 1 .8 1 .5 0 .9 1.4 1 3.1 0 1.7 1 4.1 2.1 5.3 1.2 1.2 2.1 2.7 2.1 3.3 0 .9 2.2 2.3 3.6 2.3.2 0 .4-.9.4-2.1 0-1.1-.4-1.8-.9-1.4-1.7 1-5.1-3.7-5.1-7.2 0-3.3 0-3.3 5.8-2.8l5.7.5-6-1.4c-7.3-1.8-9.5-1.9-9.5-.6M346.4 488.5c.9 3 1.2 3.2 1.4 1.5.2-1.3-.3-2.9-1.1-3.7-1.3-1.3-1.3-1-.3 2.2"/><path d="M340.4 494.5c-1 .8-1.4 1.5-.8 1.5.5 0 1.9-.7 3-1.5 1-.8 1.4-1.5.8-1.5-.5 0-1.9.7-3 1.5M286.5 483c-3.3 2.2-2.9 2.6 1 .8 1.4-.6 2.5-1.5 2.5-2 0-1.1-.1-1.1-3.5 1.2M201.5 484.4c3.1 2.6 5.1 3.4 4 1.6-.3-.6-2.1-1.7-3.8-2.6l-3.2-1.6zM210 489.9c.9 1.7.9 3 .1 4.7-.8 1.8-.7 2.2.3 1.8 2.3-.9 2.5-4.3.5-6.7-2-2.2-2-2.2-.9.2M173.7 498c-1.6.5-3.4 1.3-4.1 1.9-.6.6-3.1 1.3-5.4 1.7-4.8.8-7.6 3.5-11.2 10.9-1.7 3.5-2.1 5.8-1.7 9.2.8 7.3 2.3 7 1.9-.5-.4-6.2-.2-7.1 2.3-10 2.3-2.7 3.3-3.2 7.2-3.2 2.5 0 10.2 1.7 17.2 3.9 6.9 2.1 14.5 4.4 16.9 5 3.2.9 4.2 1.6 3.8 2.7-.3.9-.6 2.7-.6 4.1 0 2.3-.3 2.5-3.2 1.9-9.2-1.7-9.5-1.7-7-.5 1.3.7 2.2 2.1 2.2 3.6 0 2-.3 2.3-2.7 1.7-3.9-.9-4.6-1.8-3.7-4.5.4-1.3.6-3.6.5-5.2-.2-1.7.2-2.7 1.1-2.7 1 0 .9-.3-.2-1-.8-.5-2.4-.9-3.5-.9s-1.4.3-.7.6c.6.2 1.2 1.6 1.2 2.9 0 2.8-2.4 3.2-5.6.9-1.2-.8-2.4-1.1-2.8-.8-.3.4-1.6.1-2.9-.5-1.2-.6-3.4-1.3-4.9-1.6-1.6-.4-2.8-1.3-2.8-2.2 0-.8-.4-1.2-1-.9-1.8 1.1-1 2.6 1.9 3.6 2.8 1 2.9 1.4 2.9 6.5 0 3.1-.5 5.4-1.1 5.4-.7 0-.7.4.1 1.2 2.5 2.5 1.4 3.9-2.5 3.3l-3.8-.5 3.5 1.3c2.8 1.1 3.5 1.9 3.5 4.2.1 2.3.7 3.1 3.2 3.9 1.7.6 3.5 1.4 3.9 1.8.4.5 2.5.8 4.6.8s3.8.4 3.8 1c0 .5 1.4 1 3 1 1.7 0 3.8.4 4.8.9.9.5 4.5 1.5 8 2.2 3.4.6 6.2 1.6 6.2 2.1 0 .4 1.1.6 2.5.2 1.8-.4 2.7-.1 3.1 1 .4.9.4 1.9.2 2.2-.5.4-8.4-1.2-23.3-4.7-2.2-.6-5.7-1.4-7.7-1.8-6.6-1.5-14.8-6.4-19.9-11.9-5-5.5-7.7-6.8-3.8-1.9 2.3 3 12 10.5 15.9 12.5 7.6 3.7 73.5 17.4 70.8 14.7-.4-.4-27.5-5.5-29.3-5.5-1.1 0-.4-3.9.8-4.3q1.5-.6 0-.6c-1.6-.1-1.7-4.1-.2-4.1.6 0 .5-.6-.3-1.4-.8-.7-2.5-1.3-3.8-1.2-2.4.1-2.5-.2-2.8-6.4-.2-3.5-.5-6.6-.8-6.9-1-1-1.4.9-1.5 6.5-.1 3.2-.7 6.2-1.3 6.6-.8.6-.7.8.2.8.6 0 1.2.9 1.2 2.1 0 1.5-.4 1.9-1.6 1.5-.9-.3-1.9-.6-2.4-.6-1.3 0-.5-8.3.9-8.8.8-.3.7-.8-.5-1.6-1.3-1-1.4-1.7-.5-3.3.8-1.6.7-2.4-.4-3.3-1.6-1.4-1.8-1-1.5 3.4.2 2.6 0 2.8-2.5 2.2-1.7-.4-2.4-.3-2 .4.3.5 1.5 1 2.6 1 1.3 0 1.9.7 1.9 2.1 0 1.7-.5 2-2.5 1.7-1.4-.3-2.5-.3-2.5-.1s1.1.8 2.5 1.3 2.5 1.6 2.5 2.5c0 1.6-1.2 1.8-4.7.9-2.1-.6-2.3-1.1-1.9-5.9.4-6.2-.4-8.4-2.4-6-.8 1-.9 1.5-.1 1.5.6 0 1.1.9 1.1 2 0 1.2-.7 2-1.7 2-1.7.1-1.7.1 0 1.1 2.8 1.6 2.1 4.1-1 3.7-3.1-.3-4.4-3.5-2.1-4.9 1-.6 1-.9.1-.9-.7 0-1.3-.9-1.3-2.1 0-1.5.5-1.9 1.5-1.5.8.3 1.5.1 1.5-.4 0-.6-.7-1-1.5-1-.9 0-1.5-.9-1.5-2.5 0-2.3.3-2.5 2.8-1.9 1.5.4 2.9 1 3.2 1.3.6.7 6 1.2 6 .5 0-.2-1.1-.9-2.5-1.4-1.5-.6-2.5-1.7-2.5-3 0-2.2 1.6-2.5 7-1.1 7.3 1.9 9.6 2.2 8 1.1-.8-.5-2.5-1-3.8-1-2.2 0-2.3-.3-2-5.4.4-5.4.4-5.4-6.2-7.1-7.9-2.1-17.5-5-25.2-7.6-3.9-1.4-6.9-1.8-9.3-1.3-4.1.7-4.7-.7-1-2.4 3.9-1.8 8.5-1.4 15.8 1.2 10.2 3.7 47.6 12.8 51.7 12.5 1.9-.1-1.7-1.1-16.5-4.4-18.8-4.2-36.4-9.2-40.3-11.4-1.4-.8-1.1-1.2 2.3-2.7 5.1-2.1 12.7-1.4 22.6 2.1 7.6 2.6 12.4 3.2 13.4 1.5.3-.6 1.5-1 2.6-1 1 0 1.9-.5 1.9-1 0-1.3-1-1.2-4 .5-3.3 1.9-6 1.9-6 0 0-.8.5-1.5 1-1.5.6 0 1-.5 1-1 0-.6-1.1-.3-2.5.6-2.3 1.5-3 1.5-10.8-.5-8.6-2.2-14.2-2.5-19-1.1m.4 23c2.1 1.2 2.6 4.5.7 5.4-1 .5-1 .7 0 1.2 1.5.7 1.6 3.6 0 5.2-.9.9-.9 1.2 0 1.2.7 0 1.2.7 1.2 1.5 0 1.6-1.7 1.9-4.4.9-2.1-.8-2.1-3.4.1-3.4 1.5 0 1.5-.1 0-1.8-1.9-2-2.2-4.2-.8-4.2.6 0 .7-1.6.4-3.5-.6-3.8-.2-4.1 2.8-2.5m7.4 2c3.3 1.3 3.3 5.7 0 5.2-3.8-.6-4.5-1.1-4.5-3.7 0-2.8.6-3 4.5-1.5m.9 6.6c.9.3 1.6 1.7 1.6 3 0 2.2-.3 2.4-2.7 1.8-3.9-.9-4.3-1.3-4.3-3.5 0-1.9 2.3-2.5 5.4-1.3m0 6c1.9.7 2.2 4.4.4 4.5q-1.5 0 0 .6c1.4.5 1.7 4.3.3 4.3-4.8 0-8.5-4.9-3.8-5.1 2.2 0 2.2 0 0-1.1-4.5-2.2-1.7-5 3.1-3.2m-6.6 5.3c.3 1.9 0 2.2-1.3 1.7-.9-.3-2.1-.6-2.6-.6s-.9-.9-.9-2.1c0-3.1 4.4-2.2 4.8 1M212 550c0 1.3-.7 2-2 2s-2-.7-2-2 .7-2 2-2 2 .7 2 2M437 511.6c-1.9.8-4.3 1.7-5.2 2-1 .4-1.8 1-1.8 1.5 0 1.2 1.7 1.2 2.4 0 .3-.5 1.8-1.2 3.2-1.5 3.2-.8 6.4 1.7 6.3 4.8 0 2.1 0 2.1-.9.1-.9-2.4-4-5.2-4-3.7 0 .6.5 1.2 1.1 1.4.5.2 1.2 1.6 1.3 3.2.3 2.2-.3 3.2-2.8 4.7-5.9 3.6-11.5 1.7-10.2-3.6.7-2.6 3.6-3.5 3.6-1.2 0 1.4 3.8 5.4 4.3 4.6.1-.2.9-1.3 1.7-2.4 1.4-1.8 1.4-1.9-.2-.7-.9.8-2.2 1.1-2.8.7-1.6-1-1.2-3.5.8-3.6.9-.1 0-.5-2.2-1-4.6-1.1-6.6.1-6.6 4 0 5.9 6 9.3 10 5.6 2.3-2.1 3.9-1.2 8 4.3 1.9 2.6 3.9 5 4.4 5.3 1.7 1.3 14.8 2.1 15.9 1 .8-.8-1-1.1-6.1-1.1-7 0-7.2-.1-10.8-4-2-2.2-4.3-4.9-5.1-6-1.6-2.3-2-1.6 4.2-8.4 2.3-2.4 2.5-3.2 1.6-5.2-1.2-2.8-4.6-3.1-10.1-.8m8.4 2c.9 2.4 0 2.9-1.8 1.1-.8-.8-1.2-1.7-.9-2.1 1.1-1 2.1-.7 2.7 1"/><path d="M169.6 512.9c1.3 1.2 10.3 3.5 11 2.8.4-.3-.7-.9-2.2-1.2-1.6-.4-3.9-1.1-5.2-1.6-2.9-1.2-4.9-1.2-3.6 0M361.2 515.2c-.7.7-1.2 3.5-1.1 6.2.1 5.1.1 5.1 1.1 1.4.9-3.4 1.2-3.7 3.1-2.7 1.8 1 1.9 1.2.4 2.1-2.4 1.3-2.1 2.7.4 2.1 2-.6 2.1-.3 1.5 2.1-.5 2.1-.3 2.7.6 2.3.7-.2 1.2-1.6 1.1-3.1-.3-3.7 1.9-2.8 3.1 1.2.5 1.7.6 3.8.2 4.7-.5 1.5-1 1.4-4.1-.5-3.6-2.2-4.9-1.8-1.7.6 1.6 1.1 1.7 5 2 50.6.2 27.1.7 49.6 1 50 .7.6 14.7 1.2 25.5.9 3.3 0 5.7-.5 5.7-1.2s-4.8-1-14.7-.8l-14.8.2-.2-4.4c-.9-15.6-.7-92.8.2-92.7.6.1 2.2-.6 3.8-1.6 2.3-1.6 2.7-2.5 2.7-6.7 0-3.9-.4-5.1-1.7-5.5-1.8-.6-3-1.1-9-4.5-4-2.2-3.6-2.2-5.1-.7m5.8 2.8c1.5 1.1 3.9 2.4 5.4 3 2.3.8 2.6 1.5 2.6 5.7 0 5.1-1.6 5-2.2-.2-.2-2-1.1-3.4-2.8-4.2-3.7-1.8-8.7-6.2-7.2-6.3.8 0 2.6.9 4.2 2M189 518.3c.3.2 2.3 1 4.4 1.6 2.2.6 3.5.6 3 .1-1-1-8.3-2.7-7.4-1.7M204.1 518.4c.9 1 12.1 3.7 13.3 3.3.6-.3-.7-.9-3-1.6-6-1.6-11-2.5-10.3-1.7M158.7 520.7c-.4.3-.7 1.3-.7 2.2 0 1.4.1 1.4 1 .1.7-1.2 1.3-1.2 2.7-.4 2 1.3 3 5.4 1.3 5.4-.6 0-.8.5-.5 1 .9 1.5 3.5-.7 3.5-2.9 0-1.9-4-6.1-5.6-6.1-.6 0-1.4.3-1.7.7M219.6 522c.5.4 2.7 1.1 4.9 1.4 4.5.7 3.8.2-1.9-1.3-2.2-.6-3.5-.6-3-.1M205 522.5c0 .3.2.5.5.5s.5-.2.5-.5-.2-.5-.5-.5-.5.2-.5.5M466 536v12h90v-24h-90zm86.8.2-.3 10.3-41.7.3-41.8.3V526h84.1z"/><path d="M476 530.5c-2.4 6.3-.3 14.6 3.4 13.2 3.5-1.4 3.2-8.5-.4-9.4-1.1-.3-2-1.4-2-2.4 0-2.2 1.1-2.4 2.9-.7 1 1.1 1.2.9.9-.7-.5-3.1-3.6-3.1-4.8 0m4 8.6c0 3.8-2.4 3.5-2.8-.4-.2-1.9.1-2.7 1.2-2.7s1.6 1 1.6 3.1M487.1 529.4c-1.9 2.3-.9 7 1.7 8.1 1.2.5 2.2 1.8 2.2 2.7 0 2.1-1.1 2.3-2.8.6-.8-.8-1.2-.8-1.2-.1 0 .6.7 1.6 1.5 2.3 2.6 2.1 4.5-.5 4.5-6.2 0-7.6-2.8-11.1-5.9-7.4m3.9 3.6q0 3-1.5 3t-1.5-3 1.5-3 1.5 3M510.9 528.5c0 .3 0 3.8-.1 7.7 0 6.2.3 7.4 1.7 7.7 1.3.2 1.6-.1 1.1-1.4-.3-.9-.6-4.6-.6-8.1 0-3.6-.4-6.4-1-6.4-.5 0-1 .2-1.1.5M519 530.1c0 1.8.2 1.9 1.5.9 2.3-1.9 2.5-1 1.6 5.1-.9 5.6-.6 7.4 1 6.4.5-.4.9-2.6.9-5s.4-5.5 1-6.9c.9-2.5.8-2.6-2.5-2.6-2.9 0-3.5.4-3.5 2.1M531.2 529.2c-2 2-1.5 11.2.7 13.2 1.6 1.4 2 1.5 3 .2 1.8-2.2 2.5-8.6 1.2-11.9-1.1-2.9-2.9-3.5-4.9-1.5m3.6 4.8c.4 4-.5 8-1.8 8-.6 0-1-2.7-1-6.1 0-4.4.3-6 1.3-5.7.6.3 1.3 1.9 1.5 3.8M540.7 535.7c0 4.3.5 7.7 1 7.5.4-.2.7-1.4.6-2.8-.2-3.4 1.3-3 2.6.6.5 1.6 1.5 3 2 3 1.5 0 1.4-.7-1.1-5.1-2.1-3.8-2.1-4.1-.5-6.8 1.9-3.3 2.1-4.1.8-4.1-.5 0-1.3.9-1.6 2s-1.1 2-1.6 2c-.6 0-.7-.9-.4-2 .4-1.3.2-2-.7-2-1 0-1.3 1.9-1.1 7.7M498.8 536.7c1.2.2 3 .2 4 0 .9-.3-.1-.5-2.3-.4-2.2 0-3 .2-1.7.4M158.8 526.8c-3.8 2.3-3.6 3.5.2 1.4 1.6-.9 3-2 3-2.5 0-.9-.1-.9-3.2 1.1M359.2 529.1c-1.8 1.2-3.1 2.3-2.9 2.5.5.6 6.5-2.5 7.2-3.7 1-1.5-.8-1-4.3 1.2M148.9 533c-2.4 2.1-2.4 2.1.9.5 3.1-1.5 4.1-2.5 2.3-2.5-.5 0-1.9.9-3.2 2M348.6 535.5c-1.1.8-1.7 1.7-1.4 2s1.6-.3 2.9-1.4c2.7-2.3 1.4-2.8-1.5-.6M136.9 536.4c-2 .7-5 2.2-6.7 3.4-1.6 1.2-3.3 2.2-3.8 2.2-.4 0-2.1 1.1-3.8 2.4-5.6 4.2-24.3 13.4-25.7 12.6-.7-.5-2-.3-3.1.3-2.6 1.7-2.4 7.2.4 9.1 3.2 2.3 6.9 2 7.5-.4 1.3-4.8 2.3-1.2 2.3 8 0 13.8 1.9 12.9 2.2-1.2l.3-11.2 5.3-2.9c3-1.6 6.6-4.2 8.2-5.9 1.6-1.6 3.4-2.7 4-2.3s2.8-.4 4.8-1.7 5.8-3.5 8.3-4.8c4.5-2.3 8.5-7 7.2-8.4-.9-.9-3.4-.7-7.4.8m6.1.5c0 .5-.7 1.4-1.5 2.1-1.3 1-1.5.9-1.5-.9 0-1.2.6-2.1 1.5-2.1.8 0 1.5.4 1.5.9m-4.1 3.7c.3 1.6.1 1.7-1.3.5-1.9-1.6-2.1-3.4-.3-2.9.6.3 1.4 1.3 1.6 2.4m-2.9 1.7c-.1 2.1-.1 2.1-1.5.3-.8-1-1.2-2.3-.9-2.8.9-1.4 2.4.2 2.4 2.5m-3.2 1.1c.3 1.2-.1 1.7-1 1.4-.7-.3-1.5-1.3-1.6-2.2-.3-1.2.1-1.7 1-1.4.7.3 1.5 1.3 1.6 2.2m-3.1 1.1c.8 2.2-.6 3.3-1.7 1.5-1.3-2-1.2-3 0-3 .6 0 1.3.7 1.7 1.5m-2.9 2.3c.2.6-.6 1-1.6.9-1.2-.1-1.8-.6-1.5-1.4.6-1.6 2.5-1.3 3.1.5m-4.8 2.1c0 .5-.6 1.4-1.4 2-1.6 1.3-3.2-.2-2.1-1.9.8-1.2 3.5-1.3 3.5-.1m-5 2.6c1 1.2 1 1.9.1 2.8s-1.4.9-2.1-.3c-2.2-3.4-.4-5.4 2-2.5m-3.6 2.1c.9 2.2-.3 3.2-1.4 1.4-1.2-1.9-1.2-3-.1-3 .5 0 1.2.7 1.5 1.6m-2.6 2.8c.3 1.2-.1 1.7-1 1.4-.7-.3-1.5-1.3-1.6-2.2-.3-1.2.1-1.7 1-1.4.7.3 1.5 1.3 1.6 2.2m-3 1.9c.2 1-.3 1.7-1.2 1.7s-1.6-.2-1.6-.4-.3-1.2-.6-2.1c-.5-1.3-.2-1.6 1.2-1.3 1 .2 2 1.1 2.2 2.1m-8.9 1.8c1.3 1.2 2.1 3 1.9 4.2-.4 2.9-2.2 2.8-2.6-.1-.2-1.2-1.2-2.8-2.3-3.5-1-.6-1.9-1.5-1.9-1.9 0-1.5 2.6-.8 4.9 1.3m5.1-.2c0 2.8-1.7 3.5-2.9 1.2-1.5-2.7-1.4-3.1.9-3.1 1.3 0 2 .7 2 1.9m-7 3.6c0 .3-.2.5-.5.5s-.5-.2-.5-.5.2-.5.5-.5.5.2.5.5M210.5 537c.4.6 1.1.8 1.6.5 1.4-.9 1.1-1.5-.7-1.5-.8 0-1.2.5-.9 1M286 539.1q0 1.2-4.2.6c-2.7-.4-3.7-.2-2.7.4.7.5 2.6.9 4.2.9 1.9 0 2.7.5 2.7 1.7 0 1.4.2 1.5.9.4 1.2-1.8 17.9-1.1 19.1.8.5.9 1 1 1.4.3 1-1.7-1.2-2.4-10.3-3.3-4.7-.5-8.7-1.4-8.9-1.9-.5-1.4-2.2-1.3-2.2.1M340.3 540.2c-1.3.6-2.3 1.5-2.3 2s1.4.2 3-.7c4.5-2.3 3.8-3.5-.7-1.3M211.5 543c.3.5.8 1 1.1 1 .2 0 .4-.5.4-1 0-.6-.5-1-1.1-1-.5 0-.7.4-.4 1M220 550.1c0 .4 1.4.9 3 1.1 1.7.3 3 .1 3-.3s-1.3-.9-3-1.1c-1.6-.3-3-.1-3 .3M219.5 555c.3.5 1 1 1.6 1 .5 0 .9-.5.9-1 0-.6-.7-1-1.6-1-.8 0-1.2.4-.9 1M275.8 557.7c.6.2 1.8.2 2.5 0 .6-.3.1-.5-1.3-.5s-1.9.2-1.2.5M304.5 562.6l-3 2.5 3.3-1.7c1.7-1 3.2-2.2 3.2-2.6 0-1.2-.2-1.1-3.5 1.8M251 565.6c7.9 1.6 30 4.4 35.3 4.4 2.3 0 3.6-.4 3.2-1-.3-.6-3.6-1-7.3-1s-12.8-.9-20.2-2c-15.2-2.2-20.8-2.4-11-.4M294.8 567.8c-3 1.8-3.9 3.9-1 2.3s5.8-4 4.7-4c-.5 0-2.2.7-3.7 1.7M284.5 574.5c-1.6 1.3-2.6 2.4-2.2 2.5 1.4 0 6.7-3.3 6.7-4.2 0-1.4-1.4-.9-4.5 1.7M275.6 579.6c-1.1.7-1.6 1.7-1.3 2.1.4.4 1.5-.1 2.4-1 2.2-2.1 1.4-3-1.1-1.1M452.3 579.8l-14.3.3V604h88.1l-.3-12.3-.3-12.2H496c-16.2 0-35.9.1-43.7.3m70.7 11.7V602l-26.7.1c-14.8 0-33.2.3-40.9.5l-14.1.5-.5-9.3c-.3-5.1-.3-10.1 0-11 .4-1.6 3.6-1.7 41.3-1.8H523z"/><path d="M447.7 583.6c-.4.4-.7 2.5-.7 4.6 0 3.5.2 3.9 2 3.3 1.7-.6 2-.2 2 2.9 0 3.8-.8 4.4-2.8 2.4-1.4-1.4-1.6 0-.3 2.1 2 3.2 6.4-2 5.3-6.2-.3-1-1.5-2.3-2.8-2.8-3-1.1-3.1-3.7-.1-4.1 1.2-.2 2.2-.8 2.2-1.3 0-1.2-3.8-1.9-4.8-.9M460 590.3c0 4.2 0 8-.1 8.4 0 .5.6.9 1.3 1.1 1.1.2 1.3-1.4 1-7.5-.5-10.4-2.2-12-2.2-2M480 585.6c-2.1 5.5-.6 13.4 2.6 13.4s4.4-8.2 1.9-13c-1.9-3.7-3.2-3.8-4.5-.4m3.8 6.6c-.5 6.5-2.8 6.1-2.8-.5 0-2.9.3-5.7.7-6.1 1.3-1.2 2.4 2.4 2.1 6.6M489.7 583.7c-1.6 1.5-.7 3.4 1.3 2.8s2-.4 1.4 5.9c-.4 4.3-.3 6.6.3 6.6s1.3-2.8 1.5-6.3c.3-3.4.8-7 1.3-8 .6-1.4.2-1.7-2.2-1.7-1.6 0-3.3.3-3.6.7M501.1 584.9c-1.5 2.8-1.4 10.4.3 12.6 2.1 2.9 4.4 1.2 5.1-3.8 1.1-7-2.9-13.5-5.4-8.8m3.3 1.7c1.3 3.4.2 11.9-1.5 10.8-1.2-.7-1.2-12.4 0-12.4.5 0 1.2.7 1.5 1.6M510.7 590.7c.1 4.3.5 7.8 1 7.8.4 0 .8-1 .8-2.3-.1-2.8 1.9-2.3 2.3.6.2 1.2 1 2.2 1.8 2.2 1.8 0 1.8-.1-.8-4.9-2.1-4-2.1-4.3-.5-7 2-3.3 2.1-4.1.7-4.1-.5 0-1.2 1.1-1.6 2.5-.3 1.4-1 2.2-1.5 1.9-.6-.3-.7-1.4-.4-2.5.4-1.2.2-1.9-.7-1.9-1 0-1.3 1.9-1.1 7.7M468.5 592c.3.5 1.7 1 3.1 1 1.3 0 2.4-.5 2.4-1 0-.6-1.4-1-3.1-1s-2.8.4-2.4 1M265.5 583.3c-4.7 1.9-17.5 9.7-17.5 10.7 0 .5-2.8 2.3-6.2 3.9-3.5 1.7-7.6 3.9-9.3 5-1.6 1.2-4.1 2.1-5.4 2.1-2.7 0-5 2.5-5.1 5.6 0 5.1 9.2 7.7 10.9 3 .9-2.2 9.9-8.6 12.1-8.6.6 0 1 4.3 1 10.5 0 6.3.4 10.5 1 10.5s1-4.8 1-12.5c0-11.1.2-12.6 1.8-13.2 7.8-2.7 23.2-14.2 23.2-17.3 0-1.3-3.8-1.1-7.5.3m4.4 1.8c-.8 1.6-1.4 1.8-2.2 1-.9-.9-.8-1.4.3-2.1 2.4-1.6 3.1-1.1 1.9 1.1m-3.5 1.5c.9 2.2-.3 3.2-1.4 1.4-1.2-1.9-1.2-3-.1-3 .5 0 1.2.7 1.5 1.6m-2.7 1.9c.9 2.5-.4 2.9-1.7.6-.7-1.5-.7-2.1 0-2.1.6 0 1.3.7 1.7 1.5m-2.7 2.8c0 .5-.4.5-1 .2-.5-.3-1-1.4-1-2.3 0-1.5.2-1.5 1-.2.5.8 1 1.9 1 2.3m-3 .7c0 1.1-.4 2-1 2-.5 0-1-.9-1-2s.5-2 1-2c.6 0 1 .9 1 2m-2.6 1.6c.4.9.4 1.9.1 2.2-.6.6-3.5-1.8-3.5-2.9 0-1.6 2.8-1 3.4.7M252 595c0 .5-.4 1-.9 1s-1.1.9-1.4 2-1.2 2-2.1 2c-2.3 0-2-3.1.4-3.7 1.1-.3 2-.9 2-1.4s.5-.9 1-.9c.6 0 1 .4 1 1m-7 6.1c0 1.8-.2 1.9-1.5.9-.8-.7-1.5-1.6-1.5-2.1s.7-.9 1.5-.9c.9 0 1.5.9 1.5 2.1m-3.2 2c.2 2.3.2 2.3-1.3.5-1.8-2.4-2-3.9-.2-3.4.6.3 1.3 1.5 1.5 2.9m-2.9 1.5c.3 1.6.1 1.7-1.3.5-1.9-1.6-2.1-3.4-.3-2.9.6.3 1.4 1.3 1.6 2.4M236 606c0 1.1-.4 2-1 2-.5 0-1-.9-1-2s.5-2 1-2c.6 0 1 .9 1 2m-6.2 2.2c2.4 2.3 2.4 2.3 1.8 0-.4-1.2-.3-2.2.2-2.2 1.4 0 2 2.2 1.1 4-.4.8-1 2.3-1.3 3.3-.7 2.3-3 1.7-3.5-.8-.2-1-.9-2.5-1.7-3.3-3.5-3.4-.3-4.4 3.4-1M66.2 587.2c-2 2-1.3 3.8 2.1 5.3 2.6 1.1 2.9 1.5 1.5 2-.9.4-2.2.4-2.8 0-.5-.3-1-.2-1 .3 0 2 3.1 2.1 5 .2 2.2-2.2 2.5-4.2 1-7.1-1.2-2.1-4-2.5-5.8-.7m4.5 1.4c.8 2.1-1.3 4.2-2.8 2.7-1.3-1.3-.5-4.3 1.1-4.3.6 0 1.3.7 1.7 1.6M74.7 586.7c-.4.3-.7 1.7-.7 2.9 0 1.7.7 2.5 2.5 3 1.4.3 2.5 1.1 2.5 1.6 0 .6-1.1.7-2.5.4-1.4-.4-2.5-.2-2.5.3 0 1.6 4 1.9 5.5.4 1.6-1.5 1.9-5 .9-7.7-.6-1.6-4.5-2.2-5.7-.9m4.3 3.4c0 1-.6 1.9-1.4 1.9-1.9 0-3-3.1-1.4-4.1 1.7-1 2.8-.2 2.8 2.2M84.8 586.7c2.6.5 2.7 1.2.7 3.9-1.5 2-2 5.4-.7 5.4.4 0 1.2-1.5 1.8-3.3.6-1.7 1.4-4 1.9-5 .6-1.4.2-1.7-2.6-1.6-2.4.1-2.7.3-1.1.6M92.2 587.2c-1.7 1.7-1.5 6.4.4 8.2 1.2 1.2 2 1.3 3.5.5 3-1.6 2.1-5.3-1.3-5.7-1.6-.2-2.8-.8-2.8-1.3 0-1 1.3-1.3 4.4-.9 1.1.1 1.5-.3 1.2-.9-.9-1.5-3.9-1.4-5.4.1m3.8 5.7c0 1.1-.4 2.2-.9 2.5-1.2.8-3.4-2.1-2.6-3.4 1.1-1.7 3.5-1.1 3.5.9M100.7 586.7c-.2.4-.7 2.5-1.1 4.5-.6 3.1-.3 3.9 1.3 4.7 3.6 2 5.2.3 4.9-4.8-.3-3.8-.7-4.7-2.5-4.9-1.1-.2-2.3 0-2.6.5m3.3 1.8c0 .8-.7 1.5-1.5 1.5-1.6 0-2-1.2-.8-2.3 1.1-1.2 2.3-.8 2.3.8m1 4.9c0 2.2-1.9 3-3.5 1.6-2.2-1.8-1.8-3 1-3 1.5 0 2.5.6 2.5 1.4M114.2 587.2c-2 2-1.5 7.6.7 8.8 3.2 1.7 5.1.2 5.1-3.9 0-3.7-1.4-6.1-3.5-6.1-.6 0-1.6.5-2.3 1.2m4.4 2.3c.8 1.9-.4 6.5-1.6 6.5-1.5 0-2.9-3.5-2.3-5.8.6-2.5 3.1-2.9 3.9-.7M131.2 587.2c-1.9 1.9-1.5 5 .6 4.4.9-.3 2.4-.1 3.2.4 1.3.8 1.3 1.1-.2 2.6-1.4 1.4-2 1.5-3.2.4-.9-.7-1.6-.8-1.6-.2 0 .5.7 1.3 1.6 1.6 1.7.7 5.4-.9 5.4-2.4 0-2.2-1.4-4-3.1-4-1 0-1.9-.5-1.9-1 0-.6.9-1 2-1s2-.5 2-1c0-1.4-3.3-1.3-4.8.2M139.2 587.2c-1.7 1.7-1.5 7.3.4 8.9 2.3 1.9 4.8-.1 5.2-4 .5-5-2.7-7.8-5.6-4.9m4.6 3.6c.4 2.3-1.3 5.2-2.9 5.2-.5 0-.9-1.8-.9-4.1 0-3.3.3-4 1.8-3.7.9.2 1.8 1.4 2 2.6M123.6 589.5c-.9 1.3-1.6 3-1.5 3.7 0 .7.5.3 1.1-1 1.5-3 3.2-2.8 2.4.2-.6 2.4.9 4.7 1.6 2.5.6-1.8-.3-7.9-1.2-7.9-.4 0-1.5 1.1-2.4 2.5M108.8 592.7c.7.3 1.6.2 1.9-.1.4-.3-.2-.6-1.3-.5-1.1 0-1.4.3-.6.6M403.3 621.1c-1 1-.7 21.7.3 22.8.7.8 86.9 0 87.7-.8.4-.4.6-5.7.5-11.7l-.3-10.9-43.5-.3c-31.2-.1-43.9.1-44.7.9m84.9 2.1c.3 1.2.3 4.7 0 15l-.2 4.8h-82l-.1-3.3c-.1-1.7-.3-6.5-.4-10.5l-.2-7.2h41.3c32.1 0 41.3.3 41.6 1.2"/><path d="M412 628c0 3.3.3 4 2 4 1.6 0 2 .7 2 3 0 3.2-.9 3.7-2.8 1.8-.9-.9-1.2-.8-1.2.5 0 1 .7 2 1.5 2.3 4.1 1.6 6.3-6.4 2.5-8.8-2.3-1.5-2.7-4.8-.5-4.8.8 0 1.5-.5 1.5-1 0-.6-1.1-1-2.5-1-2.2 0-2.5.4-2.5 4M423 625.9c-2.2 4.3-.4 14.1 2.7 14.1 2.8 0 4.5-10 2.3-14.1-.6-1-1.7-1.9-2.5-1.9s-1.9.9-2.5 1.9m3.5 5.9c0 7-1.9 6.7-2.3-.4-.2-4.3 0-5.5 1-5.2.8.3 1.3 2.3 1.3 5.6M444.6 624.8c-.8 1.4-1 12.8-.2 14.1 1.1 1.7 4.4 1.3 5.5-.7.5-.9.6-4.4.2-7.7-.5-5.1-.9-6-2.8-6.3-1.1-.2-2.4.1-2.7.6m3.9 1.2c.9 1.4-.4 5.2-1.6 4.5-1.2-.8-1.2-5.5 0-5.5.6 0 1.3.5 1.6 1m.3 9.3c.2 1.9-.1 2.7-1.2 2.7-2 0-2.9-1.6-2.1-4.1.9-2.7 2.9-1.9 3.3 1.4M455.2 626.5c-.7 1.4-1.2 3.5-1.2 4.6 0 2.9 2.7 8.9 4 8.9 2.1 0 3.7-5.9 2.9-10.3-.5-2.3-.8-4.5-.9-5-.1-1.8-3.8-.4-4.8 1.8m4.1 3.5c.5 4.3 0 8-1.3 8-1 0-1.9-3.9-1.5-7 .1-1.4.3-3.1.4-3.8.3-2.8 1.9-.9 2.4 2.8M466 625.5c0 1.1.5 1.5 1.5 1.1 1.8-.6 2.1 2.9.4 4-.8.5-.6 1 .5 1.6 1.6.9 2.2 3.9.9 5.1-.3.4-1.2-.1-1.9-1.1-1.2-1.6-1.3-1.5-1.4.4 0 1.2.7 2.4 1.5 2.8 2.1.8 5-3.8 3.9-6.1-.4-1-.8-3.4-.9-5.3 0-2.9-.4-3.6-2.2-3.8-1.6-.2-2.3.2-2.3 1.3M478 626.5c0 1.4.5 2.5 1 2.5.6 0 1 1 1 2.2-.1 2.2-.1 2.2-1.5.4-1.3-1.7-1.4-1.5-2.2 2-1 5-1 5.4.2 5.4.5 0 1-1 1-2.2 0-2.6 2.3-3.6 3-1.4.3.9.7 2.3 1 3.2.3.8.9 1.3 1.4 1s0-3.6-1-7.3c-1-3.8-1.9-7.1-1.9-7.6-.1-2-2-.3-2 1.8M435 632c-2.4.8-2.3.8.8.9 2 .1 3.1-.3 2.7-.9-.3-.6-.7-1-.8-.9s-1.3.5-2.7.9M207.5 630c-1.7 1.9-1.7 2.1-.1 3.9 1 1.1 2.5 1.7 3.3 1.4 1.1-.4 1.4-.2 1.1.8-.3.8-1.4 1.4-2.6 1.3-1.2 0-1.9.3-1.6.8.8 1.2 4.2 1 5-.3 1.7-2.8-.1-9.9-2.6-9.9-.4 0-1.5.9-2.5 2m4.3 2.3c.2 1.2-.3 1.7-1.7 1.7-1.5 0-2.1-.6-2.1-2.1 0-2.5 3.3-2.2 3.8.4M216 629.5c-1.5 1.8-1 4.7 1 5.3 1.2.4 1.3.2.3-.9-1.9-2-1.6-3.9.7-3.9 1.7 0 2 .7 2 4.1 0 3.7-.2 4.1-2.1 3.6-1.7-.5-1.9-.3-1 .6 1.8 1.8 4.6-.5 4.9-4.2.5-5.1-3-7.9-5.8-4.6M224 629c0 .5.5 1 1 1 .6 0 1-.5 1-1 0-.6-.4-1-1-1-.5 0-1 .4-1 1M228 629.7c0 1.1-.4 2.3-.9 2.8-1.5 1.7-2.3 5.5-1.2 5.5.6 0 1.1-.7 1.1-1.5 0-.9.7-2.9 1.5-4.5.9-1.8 1.1-3.1.5-3.5-.6-.3-1 .2-1 1.2M236 629c0 .5.5 1 1.1 1 .5 0 .7-.5.4-1-.3-.6-.8-1-1.1-1-.2 0-.4.4-.4 1M254 630.6c-1.6 4.2-.3 7.4 3.1 7.4 2.2 0 3-.6 3.5-2.6 1.5-6-4.5-10.4-6.6-4.8m4.8 2.8c.3 3.2.1 3.7-1.5 3.4-1.9-.3-2.9-3.8-1.9-6.5 1-2.6 3.1-.8 3.4 3.1M265.2 630c-.7 1.2-.8 2-.2 2 .5 0 1 1.3 1 3 0 1.6.5 3 1 3 .6 0 1-2.3 1-5 0-5.4-.8-6.2-2.8-3M271.7 628.7c-.4.3-.7 1.1-.7 1.7s.4.5.9-.3c1.1-1.8 3.4-.4 2.6 1.7-.3.8 0 1.9.6 2.3 2 1.2-.1 3.1-2.8 2.4-1.6-.4-2.2-.2-1.8.5.3.5 1.7 1 2.9 1 2.8 0 5.3-2.5 3.6-3.5-.6-.4-1-1.4-.9-2.3.3-3.3-.1-4.2-1.9-4.2-1 0-2.2.3-2.5.7M279.4 629.7c-.7 2.4-.5 3.4.3 3 .8-.2 1.4-4.7.6-4.7-.3 0-.7.8-.9 1.7M283 628.5c0 .3.2.5.5.5s.5-.2.5-.5-.2-.5-.5-.5-.5.2-.5.5M232.7 629.7c-1.1 1-.8 7.1.3 7.8.6.4 1-.5 1-1.9 0-1.6.6-2.6 1.4-2.6 2.5 0 2.9 2 .9 4.2-1.8 2.1-1.8 2.1.5.9 1.2-.6 2.2-1.6 2.2-2.1 0-2.2-1.4-4-3.2-4-1.4 0-1.8-.5-1.4-1.5.5-1.5-.5-2-1.7-.8M241 629c-.8 1.9-.8 9 0 9 .6 0 1-.9 1-2 0-1.4.7-2 2.1-2 1.6 0 2 .5 1.6 2-.3 1.1-.1 1.8.3 1.5 1.3-.8.6-7.8-.8-8.3-.7-.2-1 .2-.6 1.2s.1 1.6-.9 1.6c-.9 0-1.8-.8-2-1.8-.3-.9-.6-1.5-.7-1.2M282.8 632.7c.6.2 1.2 1.4 1.2 2.5 0 1.6-.5 1.9-2.5 1.6-1.4-.3-2.5-.1-2.5.3 0 1.6 5.8 1 6.4-.6.8-2.2-.4-4.5-2.3-4.4q-1.5 0-.3.6M262.6 633.9c-.4.7-.5 1.5-.2 1.8.9.9 1.9-.4 1.4-1.8-.4-1.1-.6-1.1-1.2 0M250 634.5c0 .3.2.5.5.5s.5-.2.5-.5-.2-.5-.5-.5-.5.2-.5.5M593.1 642.7c-.6 3.2-1.6 7.6-2.1 9.8s-1.9 8.5-3.1 14-2.7 12.1-3.5 14.7c-1.3 4.8-1.3 4.8 3 4.8s4.4-.1 5.4-4.3c.6-2.3 1.6-6.6 2.2-9.5 1.2-6.3 1.4-35.2.2-35.2-.5 0-1.4 2.6-2.1 5.7M218.3 693.2c-.2.5 1.9.8 4.6.8 2.9 0 5.1-.5 5.1-1 0-1.2-8.9-.9-9.7.2M584.4 694.8c-3.9.3-4.2.5-4.7 4-.3 2-1.9 8.6-3.6 14.7-10.7 39.6-30 88.6-46.1 117-1.3 2.2-3.4 6-4.8 8.5-8.5 15.3-19.9 32.7-29.2 44.5-9.7 12.3-39.2 40.8-45.9 44.4-2.3 1.3-2.6 3.1-1.2 5.9.5.9 1.4 2.9 2 4.4.6 1.6 1.5 2.8 2 2.8 3 0 30.6-25.3 42.6-39.1 11.2-12.8 23.3-29.6 31.6-43.9 2.4-4.2 5.2-8.9 6.2-10.5 3.1-5.3 21.7-43.7 21.7-44.9 0-.4.8-2.6 1.9-4.9 6.2-13.9 15.1-38 21.8-59.2 3.9-12.3 11.3-42.9 10.5-43.5-.4-.3-2.6-.4-4.8-.2M112.5 849l-42 .5-.3 10.9c-.2 7.2.1 11.3.9 12.2 1 1.2 7.3 1.4 38.3 1.3 20.4-.1 39.9-.4 43.4-.6l6.2-.5V861c0-11.4-.1-11.8-2.2-12.1-1.3-.2-21.2-.2-44.3.1m43.5 12v11H73v-10.3c0-5.7.3-10.7.7-11 .3-.4 19-.7 41.5-.7H156z"/><path d="M92 853.5c-.7.9-1.5 4-1.8 6.8-.3 4.2 0 5.5 1.5 6.9 1.2 1.2 2.3 1.4 3.3.8 2.1-1.3 2.1-12.4-.1-14.5-1.4-1.5-1.7-1.5-2.9 0m2.8 7.4c-.2 2.8-.7 5.2-1.3 5.4-1.1.2-1.9-8.7-1-11.1 1.1-3.1 2.6.5 2.3 5.7M113.2 853.2c-.5.7-1 4.3-1.1 7.9-.1 6.9.9 8.6 4.4 7.3 1.7-.7 1.9-1.7 1.5-8.9-.2-4.7-1.3-7.5-3-7.5-.4 0-1.2.6-1.8 1.2m2.8 3.8c0 1.6-.4 3-1 3-.5 0-1-1.4-1-3 0-1.7.5-3 1-3 .6 0 1 1.3 1 3m.5 7c0 1.3-.5 2.5-1.2 2.7-1.3.5-2.7-3.2-1.8-4.7 1.1-1.8 3-.5 3 2M134.7 852.7c-.4.3-.7 1.3-.7 2.1 0 1.2.3 1.2 1.5.2 2.1-1.7 3.2 1.4 1.4 3.7-1.1 1.3-1.1 1.7-.1 2 1.4.5 1.6 4.9.3 5.8-.6.3-1.4-.2-1.9-1.1-.6-1-1.2-1.3-1.6-.6-.9 1.5 2.2 4.2 3.9 3.5 2.1-.7 3-5 1.5-6.8-.6-.8-.9-2.3-.5-3.5 1.2-3.9-1.5-7.7-3.8-5.3M80 857.1c0 3.6.2 4 2 3.4 1.7-.6 2-.2 2 2.9 0 3.8-.8 4.4-2.8 2.4-.9-.9-1.2-.8-1.2.5 0 2.3 2.6 3.3 4.5 1.7 2.4-2 1.9-6.7-1-8.6-3-2-3.2-3.4-.5-4.1 2.8-.7 2.5-2.3-.5-2.3-2.3 0-2.5.4-2.5 4.1M123.1 856.1c-1.4 4.1-1.4 6.2.1 9.4 1.3 2.8 4.3 3.3 5.2.9.8-2 .8-8.2 0-11.2-.9-3.3-4-2.8-5.3.9m3.9 4c0 4.4-.3 6-1.2 5.7-2.4-.8-2.2-11.8.2-11.8.6 0 1 2.7 1 6.1M146 854.4c0 .8-.3 2.2-.6 3.1-.4 1-.2 1.5.7 1.3.7-.2 1.5.5 1.7 1.4.2 1-.1 1.8-.7 1.8s-1.1-.5-1.1-1.2q0-1.05-.9-.3c-1.2 1.4-2.2 7.5-1.1 7.5.5 0 1-1 1.2-2.3.4-2.7 3.1-2.9 3.6-.2.2 1.1.8 2.4 1.4 3 1.2 1.2.1-7-1.3-9.7-.5-.9-.9-2.6-.9-3.7 0-1.2-.4-2.1-1-2.1-.5 0-1 .6-1 1.4M101.5 861c.3.5 1.7 1 3.1 1 1.3 0 2.4-.5 2.4-1 0-.6-1.4-1-3.1-1s-2.8.4-2.4 1"/><path d="m241.7 860.8-21.8.2.3 11.8.3 11.7 38.5.5c21.2.3 41.1.4 44.3.2 5.7-.3 5.7-.3 5.7-6.2 0-6 0-6 3.4-6 2 0 3.6.6 3.9 1.4.3.7.6 10.9.7 22.5l.1 21.1h-33.6c-33.5 0-33.5 0-35.4-3.3-1.1-1.7-2.6-3.9-3.4-4.7s-1.5-3-1.5-4.9c-.1-5.4-2.6-8-11.4-12.1-3.5-1.7-23.8 0-23.8 2 0 .4 2.1.3 4.7-.1 3.3-.7 4.9-.6 5.4.3.5.8 1.2.7 2.4-.5 2-2.1 6.9-2.2 8.8-.3.8.8 2.3 1.4 3.3 1.4 2.9-.3 7.1 3 8.3 6.5 1.5 4.2.4 4.8-4.6 2.5-3.4-1.5-4.3-2.4-4.3-4.4 0-2.3-.3-2.5-3.7-2.2-3.3.3-3.8.7-4.1 3-.2 1.6-.4 2.8-.6 2.8-.1 0-5.6 1.4-12.1 3.1-9 2.2-12.1 2.7-12.4 1.8-.2-.7-1.5-2.4-2.8-3.7-3.4-3.4-2.7-6.4 1.7-7.3 2-.5 4-.3 4.7.3 1 .8 1.3.6 1.3-.6 0-.9.4-1.6 1-1.6.5 0 .7-.6.5-1.3-.2-.6 1.3-5.7 3.4-11.2 3.4-9 4-10.1 6.7-10.6 2.8-.6 2.7-.7-.8-.8-3-.1-3.8.3-4.3 2.1-1.1 4-5.8 16.4-7.5 19.8-.7 1.4-14 3.7-52 9-8 1.1-16.4 2.4-18.8 2.9-5.1 1-5.6.4-4.8-5.2.4-2.6.1-5.1-.7-6.7-1.1-2.2-1.8-2.5-6-2.2l-4.6.4-.3-8.4c-.4-10.7-2.3-10.2-2.3.7 0 8 0 8-2.9 7.7-2.8-.3-2.8-.3-2.4 5.7.3 4.6 1 6.6 2.6 8.1 1.2 1.2 2.2 2.5 2.2 3 0 .6.8 1 1.7 1 1.4 0 1.4.3-.4 2.2-4.7 5.2-5.5 10.2-2.7 16.6 1.1 2.5 1.7 6.9 1.9 13.3.1 8.4.5 10.2 2.7 14 2.6 4.4 4.5 6.3 8.6 8.6 2.6 1.6 3.2 1.6 3.2.3 0-.6-.5-1-1.2-1-1.9 0-7.7-5-9.3-8-4.1-8 1.5-18.4 11.3-20.9 9.7-2.5 22.9-4.2 18.5-2.4-.7.2-1.3.9-1.3 1.5 0 .5-.7 1.6-1.5 2.4-1.1 1.2-1.9 1.3-3.6.4-1.6-.9-2.4-.8-3.8.4-1 .9-2.4 1.6-3.1 1.6s-1 .3-.7.7c.4.3 0 1.4-.9 2.4-1.5 1.6-1.3 1.9 2.4 4.4 4.3 2.8 4.6 4.9.9 6.1-2 .6-1.9.7.7 2.1 2 1.1 2.5 1.9 2.1 3.4-.6 1.8-.5 1.9 1.3.8 1.7-1 2.3-1 3.6.1 1.4 1.1 2.5.5 8-4.6 3.5-3.2 6.4-6.3 6.5-6.7 0-.5-.8-1.1-1.9-1.4-2.5-.7-2.6-3.3-.1-4 1.1-.3 2.1-1.3 2.4-2.4.7-2.5 2.3-2.4 3.7.1 1 1.9 4 1.8 4-.2 0-.5 1-1.9 2.3-3 1.7-1.5 1.8-1.8.4-1.4-1.1.3-2.2-.2-2.9-1.4-.7-1.1-2-2-3-2-.9 0-1.9-.4-2.3-.9-.3-.5 2.1-1.5 5.2-2.1 3.2-.6 7.4-1.6 9.3-2.1s8.5-1.8 14.5-3c6.1-1.2 16.9-3.7 24-5.7 7.4-2 16.3-3.7 20.5-3.9 7.2-.4 7.7-.3 11.2 2.7 4 3.3 6.4 9.3 5.3 13.3-2.3 8.1-6.6 12-17 15.2-3.3 1.1-5.3 2.1-4.4 2.2 2.6.6 12.8-3.7 16.5-7 5.3-4.6 6.7-8.1 6.1-14.9l-.5-5.8h65.5l.6 4.2c.3 2.4.7 17.8.8 34.3 0 16.5.2 33.8.3 38.5l.1 8.5-11.5.5c-14.5.6-12.3 2.2 2.6 1.8l10.9-.3v-44l8-.1c10.1-.2 10.3-.2 8.5-1.4-.8-.5-4.7-.7-8.6-.4-4 .3-7.4.2-7.7-.3-.3-.4-.8-20.5-1.2-44.5-.6-34.9-1-44-2.1-44.9-.8-.7-2.8-.9-4.8-.5-3.5.7-3.5.7-3.8-5.1l-.3-5.8H286c-12.4 0-32.3.1-44.3.3M306 873v11l-41.2-.3-41.3-.2-.3-10.8-.3-10.7H306zm-181 21c0 .5-1.2 1.2-2.7 1.6-10.4 2.3-10.3 2.2-10.3 6 0 2.1-.4 3.3-1 2.9-.5-.3-1-2.9-1-5.7 0-3.8.3-4.9 1.3-4.5.8.3 2.9.2 4.8-.3 4.9-1.1 8.9-1.2 8.9 0m1 6.6c0 2.9-.6 5.1-1.7 6.2-1.2 1.2-1.8 1.3-2.1.4-.6-1.8-2.2-1.5-2.2.4 0 1.1-.5 1.4-1.6 1-.9-.3-2.2-.6-3-.6-1.2 0-1.4-1.1-1.2-4.7.3-4.6.4-4.7 4.8-5.8 7.1-1.9 7-1.9 7 3.1m62.1.1c.1 1.7.2 1.7.6 0 .6-2.2 3.6-2.3 3.1 0-.3 1.9-3.5 3-8.5 3.2-1.8.1-3.3.6-3.3 1.1 0 .7 1.3.8 3.5.4 3-.5 3.5-.3 3.5 1.2.1 1.7.3 1.7 2-.4 1.8-2.1 2.2-2.2 4.7-1 3 1.4 4.5 5.8 2 5.8-.8 0-2-.7-2.7-1.5-.9-1.1-1.6-1.3-2.4-.5-2.5 2.5-13.3-.1-13.8-3.4s-4.3-2.8-4.3.5c-.1 3-5.7 10.1-8.9 11.1-1.2.3-3.3.6-4.8.7-2.4.1-2.8-.3-2.8-2.8 0-3.5 1.8-5.1 7.8-6.7l4.7-1.3h-4.3c-5.5-.1-10.2 4-10.2 8.8 0 3.3.8 3-13 5.1-10.1 1.5-10.7 1.4-11.5-2-.6-2.7-3.5-4.4-3.5-2 0 .5.5 1 1 1 .6 0 1 1.3 1 2.9 0 2.3-.5 3-2.7 3.4-3.7.7-4.3.2-4.3-3.9 0-2-.4-3.3-1-2.9-.5.3-.7 2.5-.3 5.1.5 3.8.2 4.8-1.7 6.9-1.3 1.4-2.7 2.5-3.1 2.5-.9 0-2-3.6-2.6-8.9-.3-3.3-.2-4.1.8-3.5.9.5 1 .2.6-1-1.1-2.9 1.2-5.7 6.6-8.1 6.9-3 17.6-4.8 19.4-3.4.8.7 1.3.7 1.3.2 0-.6 1.9-1.3 4.3-1.7 2.3-.4 6.4-1 9-1.5 3.9-.6 4.9-.5 5.7.8.8 1.4.9 1.4 1-.3 0-1.4.5-1.7 2.4-1.2 1.5.4 2.6.1 2.9-.7.4-.9.8-.8 1.6.3.9 1.3 1.2 1.3 2.3-.1 1.7-2.1 7.5-3.3 8.2-1.6.3.9.7.8 1.4-.2.8-1.2 1.4-1.2 2.5-.3 1.2 1 1.6.9 2.1-.3.8-2.1 3.6-1.9 3.7.2m41.9 1.4c0 1.5-.4 1.9-1.6 1.5-.9-.3-1.8-.6-2-.6s-.4-.7-.4-1.5.9-1.5 2-1.5c1.4 0 2 .7 2 2.1m4 3.9c0 .5-.7.7-1.5.4-.8-.4-1.5-.1-1.5.5s1.4 1.1 3.1 1.1 2.8-.4 2.4-1c-.3-.6-.1-1 .4-1 .6 0 1.1.6 1.1 1.4 0 .7 1.4 1.9 3 2.6 1.7.7 3 1.6 3 2.1s-1.2.3-2.7-.4c-4.3-2.2-9.7-2.9-14-1.8-2.1.6-9.2 2.4-15.7 4-6.5 1.7-12.1 3.3-12.4 3.6-1.2 1.2 3.3.3 15.4-3 7.7-2.1 14.7-3.4 17.8-3.4 2.8.1 4 .4 2.6.6-1.4.3-10.4 2.5-20 5-9.6 2.4-19.5 4.8-22 5.3-2.5.4-10.1 2-17 3.4s-13.7 2.6-15.2 2.6-3.7.4-5 1c-1.3.5-7.8 1.6-14.6 2.5-13.6 1.6-18.5 3.6-22.6 8.7-1.8 2.3-2.6 2.8-2.6 1.6 0-.9.6-1.9 1.3-2.1.9-.4.9-.8-.2-1.5-2.5-1.8 1.6-6.7 8.5-10.2 2.1-1 3.3-1.9 2.6-2-.7 0-2.7.7-4.4 1.6-1.6.9-2.7 1.1-2.3.5.8-1.4 7.1-4.1 9.4-4.1 1.4 0 1.4.2.1 1-1.9 1.2 1.4 1.2 8 .1 4.5-.8 4.5-.8.5-1.1-3.5-.2-3.7-.3-1.5-1 1.4-.4 4.1-.8 6-.8 2.8-.1 3.1.1 1.5.8-1.8.8-1.7.9.7.9 1.5.1 4.9-.3 7.5-.8s7.5-1.4 10.8-2 9.6-1.8 14-2.7 9.8-2 12-2.4c12.8-2.6 23.1-5.2 24-6.1 1-1.2.4-1.1-7.5 1.1-7.5 2.1-47.6 10-54.5 10.7-7.8.9-4.9-.4 4.8-2.1 8.4-1.4 9.1-1.8 12.7-5.8 2.2-2.4 3.9-5.2 4-6.2 0-1.9.1-1.9 2 .2 1.2 1.2 2.7 2.2 3.5 2.2.7 0 2.6.5 4.2 1.1 2.8 1.1 2.8 1.1.3 2.4-1.4.8-2.2 1.4-1.7 1.5 1.1 0 26.4-5.7 34.2-7.8 7.6-2.1 17.5-2.8 17.5-1.2m-42 5c0 .5-.4 1-1 1-.5 0-1-.5-1-1 0-.6.5-1 1-1 .6 0 1 .4 1 1m-31.9 20.6c1.9 1.7 1.5 4.4-.7 4.4-.7 0-1.7-.6-2.1-1.3-.4-.8-1.7-1.7-2.8-2.1-2-.8-2-.8 0-1.6 2.9-1.2 3.7-1.2 5.6.6m-7.3 1.6c.8.8.8 1.5.1 2.4-1.4 1.7-3.9.6-3.9-1.7 0-2.1 2-2.5 3.8-.7m5.2 4.3c0 1.9-1.3 2.5-2.9 1.5-1.9-1.1-.6-4.1 1.4-3.4.8.3 1.5 1.2 1.5 1.9m7.5-.5c0 2.2-2.9 1.8-3.3-.3-.3-1.4.1-1.8 1.5-1.5 1 .2 1.8 1 1.8 1.8m-15.7 1.1c.4 1.9-2.7 3.4-4.1 2s0-4.3 2-3.9c1 .2 1.9 1 2.1 1.9m-8.8.6c0 .5-.5 1.5-1 2.3-.7 1.1-1.2 1.2-2.1.3-.6-.6-.8-1.6-.5-2.2.8-1.2 3.6-1.5 3.6-.4m13.6 1.4c1 1.7-2.3 4.6-3.7 3.2-.7-.7-.9-1.9-.6-2.7.7-1.8 3.3-2.1 4.3-.5m-8.8 2.2c.2 1.1-.3 1.7-1.6 1.7-1.2 0-2.2.9-2.5 2.1-.4 1.3-1.2 1.9-2.3 1.7-2.5-.5-2.9-2.8-.6-3.5 1.1-.2 2.2-1.4 2.5-2.5.7-2.4 4-2.1 4.5.5m-9.5 1.8c-1.7 1.7-3.7.1-2.2-1.7.8-1 1.5-1.2 2.3-.4.7.7.7 1.3-.1 2.1m14.3 0c1 1.7-2.3 4.6-3.7 3.2-.7-.7-.9-1.9-.6-2.7.7-1.8 3.3-2.1 4.3-.5m4 3c.3.6-.7 2.5-2.5 4.2-2.3 2.3-3.4 2.8-4.2 2-1.4-1.4-.4-3.3 1.7-3.3.8 0 1.2-.5.9-1-.3-.6-.3-1.5 0-2 .8-1.3 3.2-1.3 4.1.1m-8 1c.3.6-.6 2.3-2 3.8-2.5 2.6-3.8 5.7-1.4 3.3 1.4-1.4 4.8-1.6 4.8-.3 0 .5-.7 1.4-1.5 2.1-1.2 1-2.2.9-5-.4-1.9-.9-3.5-2.3-3.5-3 0-1.5 3-4.4 3.1-3 0 .5.4-.1.9-1.4 1-2.3 3.4-2.9 4.6-1.1"/><path d="M230 865.5c-1.9 2.3-.8 7 1.5 7 1.3 0 2.1.8 2.3 2.4.5 3-1.5 5.2-2.8 3.1-.5-.8-1.2-1.1-1.6-.7s0 1.5 1 2.5c1.6 1.6 1.8 1.6 3.7-.7 2.5-3 2.1-6.3-.8-7.6-1.3-.5-2.3-1.8-2.3-2.8s1-2.2 2.3-2.7c1.2-.5 2-.9 1.7-1-2.7-.8-4.1-.6-5 .5M263.9 864.9c-.4 8.2.1 15.6 1 15.9 1.4.5 1.5-15.4.1-16.3-.5-.3-1-.1-1.1.4M273.2 865.2c-1.5 1.5-1.6 4.8-.2 4.8.6 0 1-.9 1-2s.5-2 1-2c1.7 0 1.1 5.8-1.1 9.6-2.3 4.1-1.5 5.8 2.2 5.2 1.6-.2 2.5-1.1 2.7-2.6.4-2.3-1.3-3.1-2.1-1-.2.7-.7 1-1.1.6-.4-.3 0-2 .8-3.7 2.1-3.9 2.1-8.7 0-9.5-2-.8-1.8-.8-3.2.6M284.1 865.3c-.6.8-.8 1.7-.4 2 .3.4 1.2.2 2-.4 1-.9 1.3-.6 1.3 1.4 0 1.4-.5 2.9-1.1 3.3-.8.5-.6 1 .5 1.6.9.5 1.6 1.5 1.6 2.3 0 2-2.1 3-3.1 1.4-1-1.7-2.1-.7-1.3 1.4 1 2.7 3.3 2.8 5.1.1 1.4-2.1 1.4-3 .4-4.6-.6-1-.9-2.8-.6-3.9 1.4-4.3-1.8-7.7-4.4-4.6M242 873c0 6.7.3 8 1.6 8 1.1 0 1.4-.5 1-1.6-.3-.9-.6-4.5-.6-8 0-3.6-.4-6.4-1-6.4s-1 3.3-1 8M250.5 873c.3.5 1.9 1 3.6 1 1.6 0 2.9-.5 2.9-1 0-.6-1.6-1-3.6-1-2.1 0-3.3.4-2.9 1M117.5 900.6c-1.7 1.7-1.6 3.5.2 4.1.7.3.9-.4.6-1.5-.7-2.8 1.7-3.9 3.3-1.7.8 1 1.7 1.5 2.1 1.1.8-.7-2.3-3.6-3.8-3.6-.4 0-1.5.7-2.4 1.6M155 905.5c0 .3.2.5.5.5s.5-.2.5-.5-.2-.5-.5-.5-.5.2-.5.5M150.3 907.7c.4.3 1 .3 1.4 0 .3-.4 0-.7-.7-.7s-1 .3-.7.7M134.5 910c.3.5.8 1 1.1 1 .2 0 .4-.5.4-1 0-.6-.5-1-1.1-1-.5 0-.7.4-.4 1M147 910c0 .7.3 1 .7.7.3-.4.3-1 0-1.4-.4-.3-.7 0-.7.7M153 909.5c0 .3.2.5.5.5s.5-.2.5-.5-.2-.5-.5-.5-.5.2-.5.5M126.5 911c-.3.5-.1 1 .4 1 .6 0 1.1-.5 1.1-1 0-.6-.2-1-.4-1-.3 0-.8.4-1.1 1M142 911c0 .5.5 1 1 1 .6 0 1-.5 1-1 0-.6-.4-1-1-1-.5 0-1 .4-1 1M120.8 912.5c-.7.7.9 5.2 2.4 6.9.4.6.8-.1.8-1.5 0-2.8-2.2-6.4-3.2-5.4M137 913c0 .5.5 1 1 1 .6 0 1-.5 1-1 0-.6-.4-1-1-1-.5 0-1 .4-1 1M149 913c0 .5.5 1 1.1 1 .5 0 .7-.5.4-1-.3-.6-.8-1-1.1-1-.2 0-.4.4-.4 1M130 914c0 .5.5 1 1 1 .6 0 1-.5 1-1 0-.6-.4-1-1-1-.5 0-1 .4-1 1M117 915.5c0 .3.2.5.5.5s.5-.2.5-.5-.2-.5-.5-.5-.5.2-.5.5M144 916.1c0 .5.5.7 1 .4.6-.3 1-.8 1-1.1 0-.2-.4-.4-1-.4-.5 0-1 .5-1 1.1M136 917c0 .5.5 1 1 1 .6 0 1-.5 1-1 0-.6-.4-1-1-1-.5 0-1 .4-1 1M131.3 917.7c.4.3 1 .3 1.4 0 .3-.4 0-.7-.7-.7s-1 .3-.7.7M116 922.1c0 .5.5.7 1 .4.6-.3 1-.8 1-1.1 0-.2-.4-.4-1-.4-.5 0-1 .5-1 1.1M115 927c0 .7.3 1 .7.7.3-.4.3-1 0-1.4-.4-.3-.7 0-.7.7M223.5 907c-2 .9-2 .9 0 .9 1.1 0 2.7-.4 3.5-.9 1.3-.9 1.3-1 0-.9-.8 0-2.4.4-3.5.9M216.5 909c-.8 1.3 1.5 1.3 3.5 0 1.2-.8 1.1-1-.7-1-1.2 0-2.5.4-2.8 1M192.9 918.4c-.8.8-35.3 7.5-46.4 9-12.4 1.7-22.1 4.1-24.4 5.9-2.8 2.1-4.1 3.5-4.1 4.3 0 .4 1-.1 2.3-1.2 4.2-3.6 6.6-4.4 19.4-6.4 14.1-2.2 19.9-3.2 31.8-5.6 4.4-.9 9.8-2 12-2.5 14.1-2.8 17.4-3.9 12.3-3.9-1.3 0-2.7.2-2.9.4M225.5 896c.3.5.8 1 1.1 1 .2 0 .4-.5.4-1 0-.6-.5-1-1.1-1-.5 0-.7.4-.4 1M215 897c0 .7.3 1 .7.7.3-.4.3-1 0-1.4-.4-.3-.7 0-.7.7M222 897c0 .5.5 1 1 1 .6 0 1-.5 1-1 0-.6-.4-1-1-1-.5 0-1 .4-1 1M624 907.4c0 11.4 0 11.4 2.6 11.9 1.4.2 12.3.3 24.2.1s31-.3 42.5-.4H714v-23h-90zm87.4-8.2c.3 1.3.5 5.9.3 10.3l-.2 8-42.1.3-42.2.2-.4-5.2c-.2-2.9-.2-7.4 0-10 .3-3.9.8-4.7 2.5-5 1.2-.2 20.1-.5 41.9-.6 39.7-.4 39.7-.4 40.2 2"/><path d="M635.3 900.1c-3.5 1.3-2.7 8.5.7 7.7 1.6-.3 2.5 2.5 1.6 4.9-.5 1.2-.9 1.3-2.1.3-1.7-1.4-3.1-.8-2 .9.9 1.6 4 1.3 5.5-.3 1.7-2.2.8-6-1.7-7.1s-3.1-4.5-.9-4.5c1.7 0 3-1.6 1.9-2.3-.5-.3-1.8-.1-3 .4M679.2 900.2c-1.5 1.5-1.6 3.8-.2 3.8.6 0 1-.7 1-1.5s.5-1.5 1-1.5c1.7 0 1.1 4.8-1 9-2.6 5.1-2.6 5.2 1.2 4.8 2.3-.2 3.4-.9 3.7-2.3.3-1.7.1-1.8-1.3-.6-2.5 2.1-3.1.5-1.3-3.4 2.1-4.5 2.2-8.1.1-8.9-2-.8-1.8-.8-3.2.6M689.4 901.5c-2 3.1-1.4 9.9 1.1 12.4 1.5 1.5 1.7 1.4 3.1-.3 1.9-2.7 1.8-11-.2-13-2-2.1-2.1-2-4 .9m3.6 5.5c0 2.7-.4 5.1-.9 5.5-1.3.7-2.5-5.8-1.7-9 1-4 2.6-1.9 2.6 3.5M646.5 907.5c0 4.9.4 7.6 1.2 7.9 1.8.7 1.9-.1 1.5-8.2-.2-4.6-.8-7.2-1.5-7.2-.8 0-1.2 2.4-1.2 7.5M669.5 907.5c0 5.3.4 7.5 1.3 7.5.8 0 1.2-2.2 1.2-7.5s-.4-7.5-1.2-7.5c-.9 0-1.3 2.2-1.3 7.5M700.4 905c-.4 2.8-1.1 5.3-1.5 5.6-1.2.7-1.1 4.4.1 4.4.6 0 1-1.1 1-2.5 0-1.8.5-2.5 2-2.5s2 .7 2 2.5c0 1.4.5 2.5 1.1 2.5 1.2 0 .8-4.5-1.1-11.3-1.5-5.1-2.8-4.6-3.6 1.3m2.2 2.7c-1 1-1.9-.5-1-1.8.6-1.1.8-1.1 1.2 0 .2.7.1 1.5-.2 1.8M657.3 907.7c.9.2 2.5.2 3.5 0 .9-.3.1-.5-1.8-.5s-2.7.2-1.7.5M208 898c0 .7.3 1 .7.7.3-.4.3-1 0-1.4-.4-.3-.7 0-.7.7M234 899c0 .5.7 1 1.6 1 .8 0 1.2-.5.9-1-.3-.6-1-1-1.6-1-.5 0-.9.4-.9 1M210 901.1c0 .5.5.7 1 .4.6-.3 1-.8 1-1.1 0-.2-.4-.4-1-.4-.5 0-1 .5-1 1.1M215 901c0 .5.5 1 1 1 .6 0 1-.5 1-1 0-.6-.4-1-1-1-.5 0-1 .4-1 1M219.5 901c.3.5.8 1 1.1 1 .2 0 .4-.5.4-1 0-.6-.5-1-1.1-1-.5 0-.7.4-.4 1M197.3 901.7c.4.3 1 .3 1.4 0 .3-.4 0-.7-.7-.7s-1 .3-.7.7M237 902c0 .7.3 1 .7.7.3-.4.3-1 0-1.4-.4-.3-.7 0-.7.7M200 904.5c0 1.4.5 2.5 1 2.5.6 0 1-1.1 1-2.5s-.4-2.5-1-2.5c-.5 0-1 1.1-1 2.5M206 903c0 .5.5 1 1 1 .6 0 1-.5 1-1 0-.6-.4-1-1-1-.5 0-1 .4-1 1M236 916.5c0 1.1 5.1 5.3 7.2 5.8 2.4.6 2.2.4-4.9-5.3-1.3-1.1-2.3-1.3-2.3-.5M231.9 919.3c1.2 1.5 1.1 2-.4 3.7-1.7 1.9-1.8 1.9-4.4-.1s-2.6-2-3.4.6c-.7 1.9-1.5 2.5-2.7 2.2-1.3-.3-1.6 0-1.3 1.4.6 2.2-2.3 3.7-4 2-2-2-3.1-1.2-1.2.9 1.7 1.9 1.7 2.2.2 3.7-1.3 1.3-1.9 1.4-3.1.3-1-.8-1.6-.8-1.6-.2s.5 1.4 1 1.7c1.6 1-1 3.7-2.7 3.1-.8-.3-1.3 0-1.2.7.1.6-.1 2-.6 3-.4 1.1-.3 2.3.4 3 .8.8 1.1.5 1.1-1.1 0-1.5.6-2.2 2-2.2 2.4 0 2.5.3.3 3.8-1.7 2.7-1.7 2.7.9.3 2.8-2.5 5.1-2.1 4.1.7-.6 1.7 5.9-3.7 8.5-7.1.7-.9 2-1.7 2.8-1.7 2.1 0 1.7 3-.8 5.1-1.1 1.1-1.8 2.2-1.5 2.6.4.3 1.8-.6 3.1-2.2 1.4-1.6 3-2.6 3.9-2.2 1.1.4 1.3 0 1-1.4-.6-2 1.8-3.6 3.7-2.4.8.5.6 1.3-.6 2.6-2.1 2.3-1.2 2.5 2.1.3 3.1-2 4.2-4.8 1.6-3.9-2.2.7-11.1-5.1-11.1-7.2 0-.7-.6-1-1.5-.7-1.9.8-3.2-2.3-1.6-3.9.9-.9 1.6-.8 3.2.1 1.7 1.1 2.4.9 4.9-1 2.8-2.2 3.9-4.8 2.1-4.8-.5 0-1.8-.3-2.8-.7-1.6-.6-1.6-.5-.4 1M224 930c.6 1.1 1.6 1.7 2.5 1.4.9-.4 1.5 0 1.5 1 0 .9.8 1.6 2 1.6 1.3 0 2 .7 2 1.9 0 2.8-2.7 3.4-4.4 1-1.4-2-1.4-2-3.9.7-1.4 1.5-3 2.3-3.6 1.9-1.5-.9.4-3.5 2.5-3.5.8 0 1.4-.9 1.4-2.1 0-1.1-.4-1.7-1-1.4-.6.4-1.8.4-2.6.1-1.2-.4-1.3-1-.4-2.6 1.4-2.5 2.6-2.5 4 0m-4 4.4c0 .7-.7 1.9-1.6 2.7-1.3 1-1.7 1-2.4-.1-1-1.7.5-4 2.6-4 .8 0 1.4.6 1.4 1.4m-4.2 4.9c.4 2.1-2.5 3.4-4 1.9-.8-.8-.8-1.6.2-2.7 1.6-1.9 3.4-1.5 3.8.8m3.7 1.6c.3.5-.3 1.7-1.2 2.7-1.1 1.1-1.8 1.3-2.1.5-.9-2.8 1.8-5.5 3.3-3.2M670.1 932.3c.1 6.3-.1 12-.5 12.5-.4.7-22 1.1-62.8 1.2-34.1 0-62.5.3-62.9.6-.5.2-.6 15.2-.4 33.2.3 18 .8 59.9 1.1 93.2.4 33.3.8 63.6.9 67.5.2 3.8.3 18.8.4 33.3l.1 26.2 97.8-.2c112.8-.2 158.2-.7 158.2-1.7 0-.4-12.7-.6-28.2-.4-104.2 1-225 1-225.3 0-.4-1.5-1.3-61.2-2-133.7-.3-30-.7-68.3-.9-85.3l-.3-30.7 11.1-.1c6.1 0 20.1-.2 31.1-.4 30.2-.4 221.6-.7 222-.3.7.8 1.5 29.5 2 75.8.3 27.8.7 55.4 1 61.5.2 6 .7 33.8 1.1 61.7l.7 50.8h-5.2c-2.9 0-5.1.5-5.1 1 0 .7 2.2 1 5.8.8l5.7-.3.1-39c0-21.5-.3-47.1-.7-57-.3-9.9-1-48.3-1.4-85.3s-1-68.4-1.4-69.8c-.6-2.5-.6-2.5-69.7-2.4h-69.1l-.7-4.6c-.3-2.6-.6-7.7-.6-11.5 0-3.7-.5-7.1-1.1-7.4-.7-.5-1 3-.8 10.8"/><path d="M233.6 927.1c-1.7 2.5-1.2 4.5 1.6 6 2.7 1.4 6.8-1.3 6.8-4.5 0-4-5.9-5-8.4-1.5m6.8.5c.8 2.1-1.1 4.4-3.6 4.4-2.4 0-3.4-2.6-1.8-4.5 1.6-2 4.6-1.9 5.4.1M344 939.9l-4.5.6.2 12.5c.1 6.9.3 17.1.3 22.8V986l43.8-.2 43.7-.3-.3-22.5c-.2-12.3-.6-22.8-.8-23.2-.6-.9-75.1-.8-82.4.1m80 4.3c0 1.8.3 11.5.7 21.5l.6 18.3h-10.9c-6 0-24.4.3-41 .7l-30.1.6-.6-7.8c-.9-10.1-.9-35 0-35.8.3-.4 18.8-.7 41-.7H424z"/><path d="M390.4 943.5c-.9 2.3.1 15 1.1 14.5.6-.3.9-1.5.7-2.7-.2-1.4.4-2.4 1.7-2.8 4.3-1.3 3.9-8.9-.5-9.8-1.5-.3-2.7 0-3 .8m4.4 4.6c-.1 1.3-.7 2.3-1.3 2.2-1.3-.3-1.8-3-1.1-5 1-2.4 2.9-.1 2.4 2.8M348.4 944.4c-.3.8-.4 2.7-.2 4.3.2 2.3.7 2.7 2.6 2.5 1.8-.3 2.2.2 2.2 2.2 0 2.9-1.9 4.4-3.1 2.5-.4-.7-1.1-1-1.5-.6-1.2 1.2 2.1 3.8 3.8 3.2 3.5-1.4 2.9-9.5-.7-9.5-2.2 0-1.8-3.1.5-3.7 1.1-.3 2-.9 2-1.4 0-1.5-5-1-5.6.5M360.8 943.7c-.9 2 .4 15.3 1.6 15.3.8 0 1.1-2.1.8-7.3-.4-6.6-1.4-10.1-2.4-8M380 947.1c0 3.6.2 4 2 3.4 1.7-.6 2-.2 2 2.9 0 3.5-1.4 4.9-2.3 2.3-.2-.6-.8-.9-1.3-.4-.4.4 0 1.5.9 2.4 2.2 2.3 4.7.1 4.7-4.2 0-2.4-.6-3.4-2.5-4.3-1.4-.6-2.5-1.6-2.5-2.2s1.1-1.5 2.5-2c3.3-1.3 3.2-2-.5-2-2.8 0-3 .2-3 4.1M401.6 944.6c-.3.9-.6 3.7-.6 6.3 0 4.6 1.2 7.1 3.5 7.1 1.5 0 3.5-4.4 3.5-7.5 0-5.7-4.8-10.1-6.4-5.9m3.9 5.9c0 3-.5 5-1.2 5.2-1 .4-1.3-1.1-1.3-5.2s.3-5.6 1.3-5.3c.7.3 1.2 2.3 1.2 5.3M370 951c0 .5 1.1 1 2.5 1s2.5-.5 2.5-1c0-.6-1.1-1-2.5-1s-2.5.4-2.5 1M349.1 967.3c-1.3 3.3-.3 6.8 1.7 6.5 1.8-.3 2.7 2.4 1.8 4.9-.5 1.2-.9 1.3-2.1.3-2-1.7-3.2-.5-1.5 1.5 1.8 2.2 3.9 1.8 5.1-.9 1.6-3.4.4-7.6-2.1-7.6-1.3 0-2-.7-2-2 0-1.4.7-2 2.1-2 2.4 0 2.1-2.3-.4-2.8-1.1-.2-2.1.6-2.6 2.1M380.7 965.7c-.4.3-.7 2.4-.7 4.5 0 3.3.3 3.7 2.2 3.5 2.6-.2 3.5 2.7 1.8 5.3-.9 1.3-1.1 1.3-1.9 0-.6-.8-1.3-1.1-1.7-.7-1.1 1.1 2.2 4.1 3.6 3.2 3.3-2 3.2-8.9-.1-9.8-2.5-.7-2.4-3.3.1-4 1.1-.3 2-1 2-1.6 0-1.2-4.2-1.5-5.3-.4M390.7 973.2c.1 4.8.6 8.4 1.2 8.6s1.1-1 1.1-2.7c0-2 .7-3.4 1.9-4.1 2.6-1.3 3.4-4.1 2.2-7.4-.8-1.9-1.7-2.6-3.8-2.6-2.8 0-2.8 0-2.6 8.2m4.8-2.7c0 1.6-.6 3-1.2 3.2-.9.3-1.3-.7-1.3-3.2s.4-3.5 1.3-3.3c.6.3 1.2 1.7 1.2 3.3M402 967.6c-2.9 7.6 1.5 17.8 5 11.5 2.2-4.3.4-14.1-2.7-14.1-.7 0-1.8 1.2-2.3 2.6m4 5.9c0 5.6-1.3 8.1-2.4 4.2-.8-2.9-.8-9.2 0-10 1.5-1.5 2.4.7 2.4 5.8M360.9 966.4c-.2.2-.3 3.8-.1 8 .3 6 .7 7.6 1.9 7.6 1 0 1.3-.6.9-1.6-.3-.9-.6-4.5-.6-8 0-5.6-.6-7.4-2.1-6M413.1 971.7c-1.7 7.9-1.7 8.8-.6 9 .5.2 1-.7 1-2 0-2.9 2.8-2.9 3.5.1.3 1.3 1 2.2 1.5 2 .6-.2.8-.8.6-1.3-.2-.6-.8-3-1.2-5.5-2-9.9-3.1-10.5-4.8-2.3m2.5 2c-1 1-1.9-.5-1-1.8.6-1.1.8-1.1 1.2 0 .2.7.1 1.5-.2 1.8M370 974c0 .6 1.1.8 2.8.4 3.9-1 4-1.4.4-1.4-1.8 0-3.2.5-3.2 1M125.2 942c-.7 1.1-2.1 2-3.2 2-2.2 0-2.3.1-1.4 2.4.3.8 1.2 1.2 2 .9 1-.3 1.4.2 1.4 1.9 0 2.4 1.6 4.8 3.2 4.8.5 0 .3-.8-.3-1.9-1.7-2.6-.4-5.3 2.3-4.9 1.5.2 2.4 1.1 2.6 2.7.3 1.9 0 2.2-1.3 1.7s-1.6-.2-1.1 1c.3.8.6 2.4.6 3.5 0 1 .5 1.9 1.1 1.9.7 0 .9-.9.5-2.4s0-2.8.9-3.6c2.2-1.8 1.8-3.7-.9-5.5-1.9-1.3-2.9-1.4-4.5-.6-1.1.6-2.2.7-2.5.2-.8-1.2 3.1-4.4 4.3-3.6.7.3.8 0 .5-.9-.8-2.2-2.7-2-4.2.4M159 942.5c0 .3.2.5.5.5s.5-.2.5-.5-.2-.5-.5-.5-.5.2-.5.5M161 943.5c0 .3.2.5.5.5s.5-.2.5-.5-.2-.5-.5-.5-.5.2-.5.5M218.5 949.7c-6.5 1.8-10.4 2.7-26 5.8-7.1 1.4-14.3 3-16 3.4-1.6.5-9.5 1.9-17.5 3.1-8 1.1-16.7 2.5-19.5 2.9-5 .8-5 .8-.6 1 4.2.1 11.9-.9 22.6-3 2.8-.5 10.9-2.1 18-3.4 22.5-4.2 46-9.6 47.2-10.9 1-1-2.8-.5-8.2 1.1M121.2 953.3c-1.1 1.3-1 1.6.8 2.2 1.3.4 1.9 1.2 1.6 2.1-.7 1.7.6 1.8 2.2.2s1.5-2.9-.1-2.2c-.8.3-1.8-.5-2.3-1.7-.9-1.9-1.1-1.9-2.2-.6M131.5 964.5c1 5.4 3 7.3 2.2 2.1-.4-2.2-1.1-4.4-1.7-5-.9-.8-1 0-.5 2.9M133.8 977c.2 1.6.8 3 1.3 3 1 0 1.1-.7.3-3.8-.9-3.3-2.1-2.7-1.6.8M135.9 984.4c-.3.3-.3 2.1-.1 4.1.5 3.8 2.2 4.9 2.1 1.2-.1-2.7-1.3-6-2-5.3M593.5 995c-2.9.5-2.9.5-3.1 11.5 0 6.1.3 11.6.9 12.2 1.2 1.7 81.2 1.9 80.2.3-.4-.6-14.5-1-39.1-1H594v-22.2l23.8.6c13 .3 31.7.5 41.5.6H677v10.3c0 6.7-.4 10.7-1.2 11.5-.9.9-.6 1.2 1.5 1.2 2.7 0 2.7 0 2.7-12 0-8.8-.3-12.2-1.2-12.5-1.9-.6-81.9-1.1-85.3-.5M137.1 1006.1c.1 6.3-.1 12.2-.5 13.2-.5 1.1-.2 2.6.8 4.2 2.2 3.3 7.6 3.5 10.6.3 2.6-2.8 2.5-4.4-.3-7.1-2.9-2.7-4.9-6.2-4-7.1.3-.3 9.1-.6 19.4-.6 12.5 0 19-.4 19.5-1.1.4-.8-5.1-1-19.7-.8-20.3.3-20.3.3-21-2.6-1-4.4-2.6-8.2-3.9-9-.9-.6-1.2 2.1-.9 10.6m2.9-4.1c0 .5-.2 1-.4 1-.3 0-.8-.5-1.1-1-.3-.6-.1-1 .4-1 .6 0 1.1.4 1.1 1m.8 3.1c-.2.6-.8 1-1.3 1s-1.1-.4-1.3-1 .4-1.1 1.3-1.1 1.5.5 1.3 1.1m.4 4.4c0 .5-.5 1.1-1.1 1.3s-1.1-.4-1.1-1.3.5-1.5 1.1-1.3 1.1.8 1.1 1.3m1.6 3.7c-.7 1.9-3.8 2.2-3.8.4 0-1 .9-1.6 2.1-1.6s1.9.5 1.7 1.2m4 4c.7.7 1.2 1.8 1.2 2.6 0 1.8-2.9 4.6-3.8 3.7-.4-.4-.1-1 .6-1.2 1.4-.5 1.6-3.3.2-3.3-.5 0-1 .4-1 .9s-.8 1.1-1.7 1.5c-1 .3-2.4.9-3 1.2-1.7.7-1.7-3.8-.1-5.4.7-.7 2.4-1.2 3.8-1.2s3.1.5 3.8 1.2m-3.8 6.2c0 .3-.4.8-1 1.1-.5.3-1 .1-1-.4 0-.6.5-1.1 1-1.1.6 0 1 .2 1 .4"/><path d="M600.7 998.7c-.4.3-.7 2.4-.7 4.5 0 3.1.3 3.8 2 3.8 1.6 0 2 .7 2 3 0 3.2-.9 3.7-2.8 1.8-.9-.9-1.2-.8-1.2.5 0 1 .7 2 1.5 2.3 2.4 1 4.5-1.5 4.5-5.2 0-2.8-.5-3.6-2.5-4.4-3.2-1.2-3.2-2.8.1-4 1.4-.6 2.2-1.4 1.9-2-.7-1.1-3.8-1.3-4.8-.3M644.7 999.8c-1.7 1.9-2.3 4.2-1.1 4.2.4 0 1.3-.8 2-1.8 1.2-1.5 1.3-1.4 1.4 1.1 0 1.5-.9 4.5-2 6.7s-2 4.2-2 4.5 1.6.5 3.5.5c2.8 0 3.5-.4 3.5-2 0-2.2-1.6-2.7-2.3-.8-.2.7-.8 1-1.2.5-.5-.4-.1-2.3.8-4.2 2-4.3 2.2-7.9.4-9.4-1.1-.8-1.8-.7-3 .7M247.2 1000.2c-.7.7-1.2 3.3-1.2 6 0 3.7.4 5 2 5.8 4.2 2.2 6.6-7.2 2.9-11.7-1.4-1.6-2.2-1.6-3.7-.1m3.3 5.8c0 2.4-.5 4.5-1.1 4.7-1.3.4-2.6-6-1.7-8.3 1.1-2.9 2.8-.7 2.8 3.6M265.3 1001c-.7 1-.9 2.2-.4 2.4.5.3 1.2-.2 1.5-1.1.5-1.1 1-1.3 1.7-.6.8.8.4 2.3-1.3 5.2-2 3.6-2.1 4.3-.8 5.1 2 1.3 4 1.3 4 0 0-.6-.7-1-1.5-1-2.1 0-1.9-2.4.5-4.5 2.3-2 2.6-4.5.8-6.3-1.7-1.7-3.1-1.5-4.5.8M275.3 999.7c-.7.2-1.3 1.8-1.3 3.5 0 2.4.3 2.8 1.9 2.3 2.3-.7 3.7 2.1 2 4.2-1 1.1-1.4 1.1-2 .1-.4-.7-1.1-.9-1.5-.5-1.2 1.1 1.2 2.9 3.2 2.5 1.3-.2 2-1.3 2.2-3.6.3-2.7-.1-3.5-1.7-3.9-2.4-.6-2.9-3.3-.6-3.3.8 0 1.5-.5 1.5-1 0-1-1.6-1.2-3.7-.3M284.4 1000.3c-.3.8-.4 3.6-.2 6.3.2 4.1.6 4.9 2.4 5.2 3.3.5 4.4-1.8 3.6-7.3-.6-4.2-1.1-5.1-3-5.3-1.2-.2-2.4.3-2.8 1.1m3.6 2.2c0 .8-.4 1.5-1 1.5-.5 0-1-.7-1-1.5s.5-1.5 1-1.5c.6 0 1 .7 1 1.5m.5 6c0 1-.6 2-1.2 2.2-.8.3-1.3-.5-1.3-2.2s.5-2.5 1.3-2.3c.6.3 1.2 1.3 1.2 2.3M612.5 1007c0 7.1.2 8 1.9 8 1.2 0 1.6-.5 1.2-1.6-.3-.9-.6-4.5-.6-8 0-4.4-.4-6.4-1.2-6.4-.9 0-1.3 2.3-1.3 8M634.4 1007c0 6.6.3 8 1.5 8 1.4 0 1.5-1.2 1.1-7.7-.7-10.5-2.6-10.7-2.6-.3M655.7 1004.1c-2.9 5.3-2.8 6.9.4 6.9 1.4 0 1.9.6 1.7 1.7-.1 1 .2 2 .7 2.3 1.2.6 2-13.9.8-15.1-.4-.4-2.1 1.5-3.6 4.2m2.3 3.4c0 .8-.4 1.5-1 1.5-.5 0-1-.7-1-1.5s.5-1.5 1-1.5c.6 0 1 .7 1 1.5M665.5 1006.6c-1.9 8.5-1.9 8.3-.7 8.6.4.2.8-1 1-2.5.5-3.8 3.5-3.2 4.3.8.5 2.4.7 2.7 1.3 1.3.5-1 .3-3.2-.3-4.9-.6-1.8-1.1-4.2-1.1-5.4 0-1.1-.6-3-1.4-4-1.2-1.7-1.5-1-3.1 6.1m2.2 1.1c-.4.3-.7 0-.7-.7s.3-1 .7-.7c.3.4.3 1 0 1.4M191.2 1001.2c-2 2-1.5 5.9.8 6.5 1.2.3 2 1.4 2 2.5 0 1.5-.5 1.9-2 1.5-2.4-.6-2.7.8-.4 1.7 2.7 1 4.4-1.3 4.4-5.9 0-4.8-2.7-8.4-4.8-6.3m2.8 3.3c0 2.6-1.4 3.3-2.5 1.5-.9-1.4.1-4 1.5-4 .5 0 1 1.1 1 2.5M200 1001.5c-1.8 2.2-.4 6.5 2.1 6.5 1.4 0 1.9.5 1.7 1.7-.3 1.2-1.2 1.7-2.8 1.5-2.4-.3-2.4-.2-.7 1.5 1.8 1.7 1.9 1.7 3.8-.6 2.3-2.8 2.5-6.9.3-9.9-1.8-2.6-2.7-2.7-4.4-.7m3.5 2.8c0 2.6-2 2.5-2.3-.2-.3-1.6.1-2.2 1-1.9.7.3 1.3 1.2 1.3 2.1M209.5 1001c-.3.5.1 1 1.1 1 1.2 0 1.5.5.9 2.2-1.4 4.5-1.7 7.8-.7 7.8.5 0 1.2-1.5 1.5-3.3.3-1.7.9-4.4 1.2-6 .6-2.3.4-2.7-1.3-2.7-1.2 0-2.4.4-2.7 1M219.2 1001.2c-1.6 1.6-1.5 9.3.2 10.7 2.1 1.8 4.6.2 4.6-2.9 0-2-.6-3.1-2.1-3.5-2.5-.8-2.1-4.1.5-3.7 1.1.2 1.5-.1 1.1-.7-.8-1.4-2.8-1.4-4.3.1m3.3 6.8c.7 2.3-.2 4.3-1.6 3.5-1.2-.8-1.2-5.5 0-5.5.5 0 1.2.9 1.6 2M227.9 1000.7c-1 7.4.2 12.3 3 12.3 2.5 0 3.8-8.5 1.8-11.8-.9-1.3-4.6-1.7-4.8-.5m3.3 3.5c-1.5 1.5-2.6.4-1.8-1.8.5-1.3.9-1.5 1.8-.6s.9 1.5 0 2.4m.8 4.8c0 1.1-.7 2-1.5 2s-1.5-.9-1.5-2 .7-2 1.5-2 1.5.9 1.5 2M257.5 1003.6c-2 4.9-1.9 5.7.9 7 3 1.4 3.4.7 2.8-5.9-.5-5.6-1.6-6-3.7-1.1m2 4.3c-.9 1.6-2.5.3-1.8-1.5q.6-1.5 1.5-.6c.6.6.7 1.5.3 2.1M238 1007c0 .5.9 1 2 1s2-.5 2-1c0-.6-.9-1-2-1s-2 .4-2 1M621 1007c0 .5 1.6 1 3.5 1s3.5-.5 3.5-1c0-.6-1.6-1-3.5-1s-3.5.4-3.5 1M634.9 1026.2c0 2.9 0 9.5.1 14.5.1 10.1-.3 10.7-4.8 7.4-5.6-3.9-9.7-3.5-14.6 1.3-2.8 2.9-5 9.7-4.1 12.7.7 2 11.8 10 19.4 13.8 2.7 1.4 5.2 2 6.7 1.7 1.8-.5 2.4-.2 2.4.9 0 .9.8 2.7 1.7 4.2.9 1.4 1.8 4.4 1.9 6.7.3 5.6 4.2 9.1 9.3 8.2 2-.3 5.2-.9 7.1-1.2 6.5-1 7.6-1.3 9.7-3.1 4.6-4.1 6.8-11.2 4.8-15.9-.7-1.8-1.1-4.1-.9-5.1.7-2.7-3.1-8.1-6.2-8.9-1.4-.4-4-.3-5.8.3-1.7.5-5.4.7-8.2.5-4.6-.3-5.1-.6-6-3.4-.6-1.9-2.3-3.7-4.9-5.1-2.2-1.2-4.3-2.7-4.7-3.2-.4-.6-.8-7.6-.8-15.7 0-8.7-.4-14.9-1-15.3s-1 1.4-1.1 4.7m-5.7 22.9c6.9 4.1 10.8 6.9 10.8 7.8 0 .3-1.4 1.5-3 2.4-3.3 2-6.1 6.5-6.9 11.4-.6 3.2-.6 3.2-8.8-2.3-9-6-9.6-7.3-6.9-13.8 1.2-2.9 7-8.6 8.8-8.6.4 0 3.1 1.4 6 3.1m16.4 11.9c0 1.4.3 3 .7 3.6s-.3 2.2-1.4 3.5c-1.2 1.3-2.5 3.4-3 4.7-1.3 3.2-4.3 2.5-4.7-1.1-.4-3.5 2.2-7.7 4.8-7.7 1.1 0 2-.5 2-1.1 0-1.3-3.9-.2-6.2 1.9-2.4 2-3.4 7.8-1.7 9.8 1.1 1.4 1 1.5-1.1 1.2-1.9-.2-2.6-1-2.8-3.2-.6-4.6.7-7.8 4.5-11.4 4.4-4.1 8.8-4.2 8.9-.2m23 4.8c2.2 1.7 3.9 5.2 2.6 5.2-.4 0-1.6-.7-2.6-1.5-4.6-3.5-11.8-.4-16.6 7.2-5.3 8.3-5.2 14.1.3 17.1l3.2 1.7-3.3.3c-5 .5-6.2-1.1-6.2-8.2 0-5.1.5-7 2.9-10.7 4.7-7.2 11.2-12.6 15.6-12.8 1.1 0 2.9.7 4.1 1.7m-13.2 0c.3.5-1.1 2.4-3.1 4.3-1.9 1.9-4.4 5.3-5.5 7.7-2.1 4.7-4.1 5.1-4.6.8-.4-3 3.8-10.9 6.6-12.5 2.1-1.3 5.9-1.4 6.6-.3m10.1 4.2c-.3.5-1.2 1-2 1-4 0-11.5 11.3-11.5 17.5 0 2.2-.4 3.4-1 3-.5-.3-1-2.5-1-4.9 0-5.9 6-15 11-16.9 2.5-.9 5.2-.8 4.5.3m4.5 2.5c1 1.2 1 1.5-.4 1.5-.9 0-1.6.4-1.6 1 0 .5.9 1 2 1 2.1 0 4.1 3.5 3.9 6.8 0 1.3-.3 1.1-1.1-.6-1.6-3.2-6.1-3-8.7.4-2.2 2.8-2.8 6.9-1.1 7.9.6.4 1-.7 1-2.6 0-3.7 2.4-6.9 5.2-6.9 2.3 0 2.4 3.7.1 6.2-1.3 1.5-1.4 2.1-.5 2.7 1.8 1.1-1.9 4.1-5.4 4.4-2.6.2-2.9-.2-3.2-3.1-.2-1.7-.7-3.2-1.1-3.2-1.3 0-1.9 4.8-.8 5.9 1.3 1.3-.1 1.5-2.7.5-1.2-.5-1.6-2-1.6-5.9 0-4.3.6-6.2 3.3-10.1 4.5-6.7 9.9-9.3 12.7-5.9m1 16c0 .3-.2.5-.5.5s-.5-.2-.5-.5.2-.5.5-.5.5.2.5.5"/><path d="M664.3 1074.7c.4.3 1 .3 1.4 0 .3-.4 0-.7-.7-.7s-1 .3-.7.7M655 1089.9c0 .5.5 1.3 1 1.6.6.3 1 .2 1-.4 0-.5-.4-1.3-1-1.6-.5-.3-1-.2-1 .4M656 1036c-2.5.6-2.5.7-2.5 11.4-.1 6.9.3 11.1 1.1 11.7.7.5 17.8.8 43.5.7l42.4-.3v-24l-41-.1c-22.5 0-42.1.3-43.5.6m82 11.5v10.5h-82v-21h82z"/><path d="M663.3 1041c-1.8 2.8-1.7 11.5.2 13 1.7 1.4 4.3.7 5.1-1.5 1-2.5-.5-6.3-2.7-7-2.5-.8-2.1-4.1.5-3.7 1.1.2 1.7-.2 1.4-1-.7-2.1-3.2-2-4.5.2m3.5 8.5c-.2 1.4-.7 2.6-1.3 2.6-.5 0-1.1-1.2-1.3-2.6-.2-1.8.1-2.5 1.3-2.5s1.5.7 1.3 2.5M673.8 1041.5c-1.3 3 .3 7.5 2.7 7.5.8 0 1.5.6 1.5 1.3 0 2.1-1.2 2.8-2.7 1.6-1-.9-1.3-.8-1.3.5 0 2.2 2.7 3.1 4.5 1.6s2.1-10.1.5-13.1c-1.5-2.6-3.8-2.4-5.2.6m4.2 2.5q0 3-1.5 3t-1.5-3 1.5-3 1.5 3M696.9 1039.1c-.1.2-.2 3.9-.3 8.2-.1 5.5.3 7.7 1.1 7.7.9 0 1.2-2.1.9-7.5-.1-4.1-.6-7.8-.9-8.2-.4-.3-.7-.4-.8-.2M704.3 1040.6c-.3.8-.1 2 .6 2.7.8.8 1.1.8 1.1-.1 0-.7.6-1.2 1.3-1.2 1.1 0 1.2 1.1.6 4.7-1.1 6.5-1.1 8.3 0 8.3.5 0 1.2-2.4 1.6-5.3.3-2.8.8-6.4 1.1-8 .5-2.5.3-2.7-2.6-2.7-1.9 0-3.3.6-3.7 1.6M716 1041.6c-2.7 7.1 1.1 16.7 4.7 11.8 2-2.7 1.7-10.8-.5-12.7-2.5-2.3-3.1-2.1-4.2.9m3.8 6c-.2 2.7-.7 4.9-1.3 4.9-1.2 0-1.9-5.9-1-9.3 1-4.1 2.7-1 2.3 4.4M726 1047c0 4.7.4 8 1 8s1-1.2 1-2.6.4-2.3 1-1.9c.6.3 1 1.5 1 2.6 0 1 .7 1.9 1.5 1.9 2 0 1.9-.6-.6-4.7-2.1-3.3-2.1-3.6-.5-6.9 1.8-4 1.9-4.4.7-4.4-.5 0-1.2 1-1.6 2.2-.8 2.3-.8 2.3-1.2 0-1-5-2.3-1.7-2.3 5.8M686 1047c-2.4.8-2.3.8.8.9 2 .1 3.1-.3 2.7-.9-.3-.6-.7-1-.8-.9s-1.3.5-2.7.9M696.2 1076.9c.1 8.8 0 16.3-.4 16.7s-1.3.2-2-.4c-1.1-.9-6.4-1.6-9.2-1.3-.5.1-.3.8.4 1.6 1.7 2.1.6 2.9-2 1.5-1.7-.9-1.9-1.4-.9-2.6.9-1.1.8-1.4-.4-1.4-1.1 0-3.7 4.5-3.7 6.5 0 .2 1.4.8 3 1.5 1.7.7 3 1.8 3 2.6 0 1.6 4.9 5.4 10.9 8.4 3.7 1.9 4.7 2 7.3.9 5.8-2.4 6-8.9.4-12.6-3.4-2.2-3.4-2.2-4.1-19.7-.9-22.5-2.8-23.8-2.3-1.7m-.7 18.3c1.4.6 2.5 1.5 2.5 1.9s.9 1.1 2 1.4c4.8 1.5 6.5 6.2 3.3 9.7-1.9 2.1-6 2.3-8.7.3-2-1.5-1.4-3.5 1-3.5 2.1 0 4.5-2.6 3.9-4.2-.3-.7-1.9-1.3-3.5-1.4-3-.1-3-.1-.9 1.4 3.1 2.2.8 3.8-2.5 1.7-2.9-2-3.3-3.3-1.1-4.1.8-.4 1.2-1 .9-1.6-.9-1.4-3.4 1.1-3.4 3.4 0 1 .7 2.1 1.5 2.4 1.5.6 2.1 3.4.7 3.4-2.1 0-5.2-3.4-5.2-5.6 0-5.6 3.9-7.8 9.5-5.2m-11.5 2.3c0 1.7-.2 1.8-2.4.9-2.3-.9-2-2.4.4-2.4 1.1 0 2 .7 2 1.5M715.2 1106.7c-7.1 7.2-9.3 16.7-4.9 21.4 1.2 1.3 4.3 3.8 6.9 5.4 3.5 2.2 4.8 3.6 4.8 5.4 0 9.5 6.3 16 16.9 17.3 5.9.7 7.1.5 11.8-1.7 8.1-4 14.6-12.5 17.9-23.4 2.8-9.3 1.6-13.8-5.8-21.3-5.5-5.6-10.9-7.6-15.9-6-2.4.8-4.8.8-7.9.1-2.5-.6-7.8-1.2-11.8-1.5-7.3-.4-7.3-.4-12 4.3m15-.6c5.3 3.5 5.8 4.7 2.7 7.5-2.3 2-8.9 14.9-8.9 17.4 0 .8-.4 2.1-.9 2.9-.8 1.2-1.9.8-6-1.9-6.1-3.8-7.1-5.5-7.1-11 0-4.8 2.7-10.4 6.7-14.1 5.1-4.8 7.1-4.9 13.5-.8m6.7-.8c1.7.7 2.8 1.6 2.4 2-1.2 1.3-4.8.7-7.3-1.3-2.4-1.9-2.4-2-.4-2 1.2 0 3.6.6 5.3 1.3m15.1-.5c0 .4-1.7 1.4-3.7 2.1-5.1 1.9-13.3 10.4-16.7 17.2-3.5 7.3-5.7 16.9-5.1 22.2.5 4.2.5 4.2-.9 1.2-5.8-11.7 6.2-36.9 19.9-42.1 3.7-1.4 6.5-1.7 6.5-.6m5.5 2.2c.4.6-.5 1-2 1-1.4 0-4.7 1.1-7.3 2.4-10.4 5.3-18.2 18.9-18.2 31.7 0 5.1.4 6.3 3.1 9.4 3.5 3.9 2.4 4.7-1.7 1.2-7-6.1-2-27.4 9-38.3 6.5-6.5 15.3-10.3 17.1-7.4m-.5 2.8c0 .4-1.6 1.4-3.6 2.1-5 1.8-12.6 9.9-16.5 17.6-2.7 5.4-3.3 7.7-3.3 13.5-.1 4.1-.5 6.5-1 6s-.8-4.1-.8-7.9c.3-15 12.4-31.2 24-32 .6-.1 1.2.3 1.2.7m7.9 4.7c6.3 6.1 2.5 22.8-7.7 33.4-4.7 4.9-9.1 7.1-14.1 7.1-3.1 0-4.4-.6-6.1-2.8-1.9-2.3-2.2-3.6-1.7-9.7.6-9.5 4.3-17.4 11.5-24.2 7.9-7.6 13-8.7 18.1-3.8"/><path d="M750.9 1120.3c-4.3 2.9-10.5 11.1-11.3 15-1.7 8.4.9 16.2 4.6 14.1 1.5-.8 1.4-1.1-.3-3.3-1.2-1.4-1.9-1.8-1.9-.9 0 .8.6 2 1.3 2.8.6.8.1.6-1.2-.5-2-1.8-2.3-2.6-1.8-7.1.3-2.8 1.5-7 2.6-9.2 2.1-4.1 9.5-11.2 11.7-11.2.7 0 1.6-.5 1.9-1 1.1-1.8-2.1-1.1-5.6 1.3"/><path d="M758.1 1122.6c.9 1.1.7 1.4-1.1 1.4-5.8 0-13 9.5-13 17.2 0 4.1.3 4.7 2.9 5.8 2.2.9 3.4.9 4.8 0 1.6-1 1.4-1.1-.9-.6-4.2.9-6.2-1.7-5.4-7.3.3-2.5 1.1-5 1.6-5.5 1.3-1.3 1.3-.4-.1 3-2.3 6.2 4.4 10.2 8.7 5.2 1.9-2.2 1.9-2.2-.6-.5-2.8 1.9-6 2.2-6 .6 0-.6.6-.9 1.3-.6.8.3 2 .1 2.8-.4 1.1-.7.9-.9-.8-.9-1.9 0-2.3-.6-2.3-2.8 0-3.3 3.2-6.7 5.5-5.9.8.4 1.5.2 1.5-.3 0-.6-.4-1-1-1-.5 0-1-.5-1-1.1s.7-.9 1.5-.5c.8.3 1.5.1 1.5-.4 0-1.3-2.6-1.3-5.3.1-2 1-2 1-.7-.4 3.7-3.7 9-2.3 9 2.4 0 1 .5 1.9 1.1 1.9.7 0 .8-1.4.4-4.3-.9-5.2-1-5.3-3.5-6-1.7-.4-1.9-.3-.9.9m-8.1 7.9c0 .3-.2.5-.5.5s-.5-.2-.5-.5.2-.5.5-.5.5.2.5.5"/><path d="M749.8 1124.3c-3.6 3-7.8 9.5-7.8 12.1 0 1.3.9.3 2.4-2.9 2.3-4.9 5.1-8.1 9.1-10.3 1.4-.8 1.5-1.1.5-1.2-.8 0-2.7 1-4.2 2.3M741.1 1141.6c0 1.1.3 1.4.6.6.3-.7.2-1.6-.1-1.9-.3-.4-.6.2-.5 1.3"/></svg>