<svg xmlns="http://www.w3.org/2000/svg" viewBox="0 0 871.822 1219.554" fill="currentColor"><path d="M708.274 200.51c-1.488 1.91-.458 6.503 1.542 6.49.8-.005 1.505.89 1.512 1.99.015 2.3-.983 2.607-2.794.818-.906-.894-1.206-.892-1.201-.092.011 1.7 1.816 2.488 4.012 1.774 1.596-.51 1.99-1.513 1.965-5.413-.04-6.2-2.357-8.785-5.036-5.567m3.02 3.08c.009 1.4-.386 2.303-.988 1.907-.502-.297-1.01-1.494-1.017-2.594-.006-1 .488-1.903.988-1.906.6-.004 1.007 1.193 1.017 2.593M717.277 200.952c-1.285 2.408.338 5.998 2.638 5.983.9-.006 1.405.69 1.211 1.692-.292 1.202-1.189 1.708-2.79 1.518-1.901-.188-2.2.014-1.294.908.704.696 2.306.885 3.703.476 2.296-.614 2.593-1.116 2.565-5.416-.043-6.7-3.663-9.677-6.033-5.161m3.814 2.175c-.192 1.301-.685 2.304-1.285 2.308-.5.004-1.107-.993-1.315-2.291-.21-1.499.186-2.201 1.286-2.209 1.1-.007 1.504.69 1.314 2.192M726.776 200.89c-.98 3.007.44 5.998 2.64 5.983 1.4-.009 1.902.488 1.71 1.69-.292 1.201-1.189 1.707-2.59 1.616-1.2-.192-2.198.214-2.195.714.004.6 1.106.993 2.506.984 4.2-.027 5.959-6.439 2.83-10.818-1.917-2.688-4.117-2.774-4.9-.169m4.015 2.274c.017 2.6-1.984 2.513-2.301-.185-.31-1.598.086-2.2.988-1.906.702.295 1.307 1.191 1.313 2.091M736.476 200.828c-1.484 2.51-1.547 8.21.063 9.8 3.12 3.08 5.806.762 5.769-4.938-.039-6-3.357-8.778-5.832-4.862m3.636 5.576c-.185 2.201-.675 3.905-1.274 3.909-1.2.007-1.94-5.988-1.054-8.294.982-2.806 2.702.283 2.328 4.385M784.875 200.415c-3.177 3.62-.717 12.905 3.073 11.38.698-.304 1.587-2.01 1.975-3.912 1.157-6.708-1.772-11.09-5.048-7.468m3.44 6.278c.018 2.7-.375 3.802-1.475 3.81-1.1.007-1.507-1.09-1.528-4.29-.016-2.4.27-4.703.668-5.005 1.092-1.207 2.31 1.585 2.335 5.485M747.28 201.258c-.894 1.006-.891 1.506-.091 1.5.6-.003 1.112 1.893 1.13 4.593s.427 4.298 1.025 3.894c1.195-.808 1.234-10.208.03-10.9-.503-.297-1.4.108-2.095.913M766.974 200.33c-.69 1.505.573 11.297 1.473 11.291 1.2-.007 1.13-10.707-.075-11.5-.502-.296-1.101-.192-1.398.21M774.281 201.483c-1.48 3.01-1.157 6.608.96 9.194 1.512 1.89 2.113 2.087 3.407 1.078 1.989-1.712 2.857-6.618 1.637-9.71-1.12-2.993-4.521-3.271-6.004-.562m4.832 4.97q-.276 3.6-1.776 3.61c-1.7.012-2.523-3.483-1.547-7.19.875-3.905 3.694-1.023 3.323 3.58M793.972 200.056c-1.39 1.41-.634 10.105.874 11.395 2.715 2.282 4.596-.63 4.259-6.428-.328-4.298-.633-5.096-2.335-5.385-1.201-.192-2.4.016-2.798.418m3.626 3.977c.624 3.696.142 6.4-1.258 6.408-.9.006-1.945-6.887-1.257-8.792.785-2.305 1.892-1.212 2.515 2.384M803.973 200.092c-.398.302-.679 3.304-.658 6.504.039 6 .643 6.696 4.433 5.172 1.197-.508 1.587-2.01 1.562-5.91s-.435-5.398-1.638-5.89c-2.005-.787-2.905-.781-3.7.124m3.237 5.779c.034 5.3-1.152 7.408-2.076 3.713-.615-2.396.24-9.201 1.14-9.207.4-.003.817 2.495.936 5.494M756.815 206.696c.303.498 1.306.992 2.106.987s1.397-.51 1.393-1.01c-.003-.6-.906-.993-2.106-.986-1.1.007-1.697.411-1.393 1.01M613.057 213.725c-.996.606-3.095.72-4.697.43-2.704-.582-3.003-.38-2.99 1.72.009 1.3-.381 2.802-.878 3.305-.496.603-1.086 2.107-1.277 3.509-.191 1.4-.984 2.506-1.784 2.511-3.3.121-7.982 2.852-7.97 4.652.007 1.2-.987 2.106-2.584 2.516-1.498.41-21.297.538-44 .285-28.702-.315-41.401-.133-41.396.567.004.7 5.907 1.062 17.306.988 9.4-.06 28.702.115 42.604.425 24.303.443 25.704.534 30.319 2.804 4.213 2.073 4.818 2.77 4.835 5.47.011 1.7.319 2.897.616 2.495.298-.302.587-2.104.574-4.003-.019-3 .378-3.503 3.67-4.724 6.584-2.443 10.066-5.265 10.046-8.365-.021-3.3 2.377-3.616 7.495-.749 3.613 1.977 3.613 1.977 7.496-.648 2.19-1.514 3.981-3.026 3.978-3.426-.008-1.3-4.427-4.271-11.25-7.627-1.504-.79-3.01-1.781-3.315-2.38-.807-1.194-4.507-1.07-6.798.245m11.83 4.524c3.513 2.077 6.628 4.357 6.932 5.055.812 1.895-4.476 3.729-5.887 2.038-.505-.797-3.017-2.58-5.526-4.064-6.926-4.056-7.328-4.353-6.636-5.558 1.287-2.008 4.492-1.229 11.116 2.529m-4.768 5.03c.203.5-1.595.81-3.996.726-5-.167-10.119-2.934-9.332-5.04.394-.802.587-1.903.585-2.303-.007-1.1 12.334 5.32 12.743 6.617m-10.898.37c2.809 1.383 4.217 2.674 4.226 3.974.016 2.5-.384 2.502-5.102-.167-2.308-1.286-3.918-2.875-3.925-3.975-.014-2.2-.314-2.198 4.8.169m-4.745 8.532c-1.588 1.91-2.988 1.919-3 .019-.005-.8.39-1.503.99-1.506.5-.004.595-.804.289-1.802-.61-1.596-.61-1.596 1.1.093 1.41 1.39 1.613 1.99.62 3.196m6.486-2.142c1.809 1.288 1.51 1.59-4.67 4.73-5.98 2.939-6.88 3.144-9.687 1.963-1.704-.69-3.112-1.88-3.117-2.58-.011-1.8.39-1.703 4.001.074 2.709 1.382 3.309 1.378 6.1-.14 1.694-.81 3.384-2.421 3.577-3.523.585-2.304 1.284-2.408 3.796-.524m-11.792 1.176c.305.898.311 1.798.113 2.1-.894.905-3.805-.776-3.814-2.176-.012-1.9 2.888-1.819 3.7.076M757.513 237.392l.147 22.8-17.585 17.814c-16.691 16.908-17.586 17.714-20.79 17.235-4.304-.673-9.382 2.76-9.359 6.36.024 3.7 2.653 8.083 5.864 9.762 2.408 1.285 3.107 1.18 6.396-.64 4.483-2.53 5.168-4.834 3.034-10.12-1.726-4.09-1.726-4.09 16.36-21.807l18.086-17.717-.15-23.2c-.096-14.8-.55-23.196-1.15-23.192-.6.003-.947 8.206-.853 22.705m-39.616 59.558c.003.5-.394 1.002-.994 1.006-.5.003-1.003-.494-1.006-.994-.004-.6.493-1.003.993-1.006.6-.004 1.003.394 1.007.994m5.016 2.467c1.31 1.592 1.03 4.694-.567 5.204-1.397.509-3.827-4.175-3.036-5.58.99-1.507 2.091-1.414 3.603.376m-6.593 1.143c.407 1.097.21 1.498-.793 1.105-.702-.296-1.9.012-2.496.616-.795.805-1.097.507-1.107-1.093-.017-2.6 3.38-3.122 4.396-.628m-.365 5.502c.004.6-.395.703-.997.407-.502-.297-1.007-1.094-1.01-1.594-.004-.6.495-.703.997-.406.602.296 1.007 1.093 1.01 1.593m4.013 1.874c.014 2.3-.381 3.003-1.981 3.013-2.3.015-2.71-1.482-.516-2.396.799-.306 1.493-1.21 1.487-2.11-.005-.8.19-1.501.49-1.503s.509 1.296.52 2.996m4.99-1.632c.01 1.6-1.78 3.112-2.687 2.218-.805-.795.477-3.604 1.677-3.611.5-.004 1.004.593 1.01 1.393M414.19 219.41c-.696.704.036 21.2.845 22.494.404.598 16.206.896 44.505.713 40.9-.264 43.899-.384 44.288-2.086.294-.902.36-6.203.224-11.702l-.164-10-44.601-.011c-24.5.058-44.8.29-45.098.591m87.07 10.737.366 10.198-42.3.073-42.301-.027-.161-9.499c-.134-5.2.036-9.9.233-10.302.297-.501 19.195-.824 42.096-.771l41.701.03z"/><path d="M424.11 222.545c-.398.303-.686 2.105-.674 4.005.017 2.6.421 3.297 1.921 3.287 2.5-.016 3.41 1.478 2.626 4.083-.49 1.404-1.188 1.808-2.59 1.417-2.205-.686-2.594 1.017-.388 1.903 2.907 1.081 4.497-.53 4.471-4.43-.019-3-.525-3.996-2.029-4.486-2.705-.883-2.729-4.483.071-4.5 1.1-.008 1.697-.512 1.394-1.01-.707-1.095-3.809-1.275-4.802-.269M437.306 221.96c.002.2-.075 3.8-.147 8.101-.164 5.601.15 7.7 1.15 7.693 1.5-.01 1.605-14.61.1-15.501-.503-.297-1.004-.494-1.103-.293M458.514 223.023c-1.687 2.011-1.821 12.212-.211 13.802 1.811 1.788 4.598-.23 4.978-3.433.284-2.501-1.534-5.19-4.039-5.974-.702-.295-.908-1.194-.514-2.196.59-1.604.99-1.607 2.297-.515 1.407 1.19 1.607 1.09 1.296-.509-.516-2.496-2.319-2.985-3.807-1.175m2.961 9.481c.022 3.4-1.468 4.91-2.384 2.516-1.118-2.793-.635-5.396.865-5.406 1-.007 1.507.99 1.519 2.89M467.457 229.665c.051 8 .051 8 3.25 7.68 1.698-.211 3.293-1.022 3.588-1.824.392-1.202.191-1.3-.902-.294-2.286 2.215-3.89 1.525-3.911-1.675q-.02-3 1.48-3.01c.8-.004 1.497-.509 1.494-1.009-.004-.6-.706-.995-1.506-.99-1 .006-1.507-.99-1.517-2.59-.014-2.1.384-2.503 1.986-2.113 1.302.291 2-.013 1.994-.913-.005-.9-1.109-1.393-3.009-1.38-3 .019-3 .019-2.947 8.118M479.612 222.687c-.695.704-1.186 2.107-1.18 3.207.014 2 .213 1.9 1.998-.412 1.984-2.513 1.984-2.513 2.003.487.011 1.7-.575 3.903-1.367 5.009-.693 1.104-1.681 3.01-2.073 4.313-.585 2.204-.385 2.303 2.613 1.983 1.799-.211 3.394-.922 3.69-1.724.293-.902-.208-1.098-1.705-.589-2.494.816-2.705-.782-.629-4.496.791-1.405 1.378-3.509 1.47-4.71-.018-2.7-3.23-4.679-4.82-3.068M447.761 230.393c.901.194 2.301.185 3-.02.598-.304-.103-.5-1.803-.488-1.6.01-2.199.214-1.197.508M642.822 239.133c-.7.205-1.289 1.809-1.278 3.408.014 2.2.518 2.897 2.018 2.888 1.4-.01 2.005.687 2.014 2.087.01 1.6-.487 2.003-1.99 1.612-1.102-.292-2-.087-1.997.413.01 1.6 2.914 2.182 4.506.871 1.79-1.511 1.94-9.112.23-10.801-1.309-1.292-1.609-1.29-3.503-.478m2.72 3.283c.014 2.1-1.482 2.71-2.493 1.016-.707-1.196.181-3.001 1.581-3.01.5-.004.906.894.913 1.994M651.527 239.877c-1.588 1.91.242 6.499 2.542 6.484.8-.005 1.504.69 1.51 1.49.004.8-.891 1.506-1.991 1.513s-1.997.413-1.994 1.013c.01 1.6 3.207 1.08 4.595-.83 1.785-2.412 1.65-7.71-.262-9.598-1.913-1.988-2.813-1.982-4.4-.072m4.02 3.174c.01 1.6-2.589 1.717-3.498.323-.404-.598-.111-1.8.583-2.604.993-1.207 1.393-1.21 2-.213.504.697.911 1.894.915 2.494M660.529 240.219c-1.284 2.508-.369 4.802 2.136 5.586 2.706.883 2.525 3.884-.18 3.201-1.301-.291-1.9-.087-1.595.61.815 2.395 3.712 1.877 4.694-.83 1.376-3.809 1.155-7.107-.657-8.896-2.014-2.087-3.113-1.98-4.398.329m4.014 2.174c.007 1-.688 1.904-1.488 1.91-1.5.01-2.12-3.087-.927-4.294 1.093-1.008 2.402.284 2.415 2.384M670.023 239.258c.303.498 1.206.992 1.906.987 1.1-.007 1.105.693.124 3.7-.687 2.004-.971 4.406-.665 5.304.406.997.803.595 1.19-1.508.389-1.702 1.174-4.007 1.866-5.312 1.481-2.81.672-4.204-2.528-4.184-1.4.01-2.197.414-1.893 1.013M708.22 238.61c-1.391 1.41-.635 10.105.873 11.395 2.715 2.283 4.596-.63 4.259-6.427-.328-4.298-.633-5.096-2.335-5.385-1.201-.192-2.4.015-2.797.418m3.334 5.38c.018 2.7-.367 5.002-.967 5.006-.5.003-1.002-.294-1.105-.793-.003-.4-.212-1.799-.421-3.197-.42-3.098.261-6.002 1.561-6.01.5-.004.914 2.193.932 4.993M716.932 240.455c-.778 3.405.36 9.197 2.063 9.786 3.509 1.378 6.347-8.14 3.328-11.121-2.013-1.987-4.709-1.37-5.391 1.335m4.626 4.07c.02 3.2-.372 4.402-1.173 4.207-1.403-.49-2.34-6.085-1.455-8.49 1.083-2.707 2.599-.217 2.628 4.283M726.531 240.393c-1.08 3.007-.248 8.001 1.662 9.49 1.81 1.587 5.385-2.236 5.364-5.636-.04-6-5.158-8.867-7.026-3.854m4.829 4.369c-.37 4.802-3.168 5.02-3.598.323-.532-4.897.356-6.803 2.367-5.116 1.005.794 1.416 2.491 1.23 4.793M736.819 238.426c-1.895.812-1.637 9.81.374 11.498 2.916 2.381 4.9-.132 4.86-6.232-.03-4.7-.335-5.397-2.036-5.587-1.1-.092-2.6.117-3.198.321m3.715 2.376c.008 1.1-.687 2.005-1.487 2.01-1.5.01-2.113-2.087-.82-3.295 1.19-1.308 2.295-.715 2.307 1.285m.838 5.795c.31 1.698-.186 2.201-1.686 2.21q-2.1.014-2.111-1.786c-.025-3.8 3.273-4.12 3.797-.424M680.029 240.093c-.297.502-.093 1.2.51 1.597.502.296 1.015 2.393 1.03 4.593.015 2.4.424 3.797 1.022 3.394.598-.304.981-2.807.963-5.607-.023-3.6-.431-4.897-1.431-4.89-.8.005-1.698.41-2.094.913M699.937 241.264c.308 1.298.624 3.796.636 5.596.013 2 .42 3.098 1.017 2.694.598-.304.982-2.807.964-5.606-.025-3.8-.332-4.898-1.632-4.89-1.2.008-1.496.61-.985 2.206M690.561 245.125c-1.195.808-1.093 1.007.807.995 1.2-.008 2.196-.514 2.193-1.014-.008-1.3-1.108-1.293-3 .019M600.607 252.506c.015 2.3.327 4.198.827 4.195.9-.006.756-6.805-.25-7.699-.301-.298-.592 1.204-.577 3.504M690.802 282.324c.203 16.1.295 30.199.201 31.2-.18 3.2 1.727 4.189 4.013 2.074 1.591-1.41 2.19-1.514 3.497-.523 2.212 1.786 1.825 3.788-.673 4.205-3.396.521-3.378 3.321.13 4.699 5.616 2.364 9.882-2.964 6.944-8.745-2.026-4.087-6.152-8.16-8.052-8.148-1 .006-2.003-.387-2.306-.786-.303-.498-.67-10.895-.85-23.295-.258-24.398-.693-29.896-2.293-29.885-.7.004-.836 9.905-.611 29.204m9.088 29.142c2.92 3.081 4.066 10.274 1.772 11.189-.898.306-2.398.315-3.3-.079-1.604-.59-1.606-.79.29-1.502 3.092-1.22 3.584-2.523 2.265-5.414-1.521-3.29-4.828-4.37-6.414-2.159-.694.904-1.49 1.61-1.89 1.612-.8.005-.829-4.495.066-5.3 1.39-1.51 5.096-.633 7.21 1.653M600.69 265.206c.017 2.8.428 4.397 1.025 3.993.598-.304.986-2.106.974-4.006s-.424-3.697-1.026-3.994c-.602-.396-.992 1.207-.974 4.007M600.763 276.706c.012 1.8-.578 3.303-1.476 3.61-.798.404-1.493 1.209-1.488 1.909.004.7.71 1.495 1.512 1.89.802.295 1.511 1.69 1.52 3.09s.516 2.497 1.116 2.493.894-1.006.785-2.305c-.107-1.2.081-3 .575-4.004.393-1.002.185-2.301-.521-3.196-.705-.796-1.016-2.394-.723-3.496s.085-2.3-.416-2.597c-.502-.297-.895.906-.884 2.606m1.04 5.993c.002.5-.394 1.003-.994 1.006-.5.004-1.004-.493-1.007-.993-.004-.6.494-1.003.994-1.007.6-.003 1.002.394 1.006.994"/><path d="M591.777 278.864c-6.572 4.342-6.765 5.443-1.745 8.511 9.839 5.937 9.133 5.141 8.463 9.646-1.535 10.11-7.004 30.445-8.593 32.156-1.39 1.509-1.777 3.511-1.648 8.01.262 9.7.974 11.495 5.792 14.263 2.309 1.386 4.213 2.073 4.21 1.473-.004-.5-1.41-1.49-3.115-2.18-3.71-1.576-4.928-4.368-4.974-11.468l-.035-5.4 5.019 2.868c2.81 1.682 5.52 2.964 5.92 2.962 1.7-.011 3.419 2.978 2.426 4.184-.694.905-.58 3.004.241 6.299 1.333 5.091 1.933 5.187 1.501.19-.22-2.998.579-3.304 3.292-1.321 1.005.793 1.717 2.689 1.83 4.688.112 1.9.53 4.497.938 5.894.613 1.996.81 1.495.884-2.506.067-5.1.067-5.1 5.65-7.836 6.578-3.343 8.383-2.654 8.42 3.246.043 6.6 1.146 6.992 22.245 6.856 21.1-.136 21.5-.239 20.355-7.132-1.04-6.193.042-9 3.442-9.022 6.6-.043 10.372 11.133 9.885 28.637-.254 7.202-.45 7.803-2.448 8.116-1.199.207-4.205-.773-6.714-2.157-4.315-2.372-5.316-2.466-24.518-2.642-18.301-.181-20.1-.07-20.09 1.53.019 2.9-1.482 2.81-6.401-.159-3.716-2.376-4.623-3.47-4.638-5.87-.01-1.6-.62-3.096-1.422-3.39-1.103-.394-1.199.207-.48 3.103.513 1.996.926 3.994.928 4.294.002.4 1.307 1.191 3.012 1.88 2.707 1.083 2.91 1.681 3.244 6.78.335 5.497.335 5.497 6.055 8.56 3.11 1.68 5.918 2.762 6.315 2.36s1.173-4.308 1.644-8.711l.948-8.006 8.198-.353c4.399-.229 8.9-.158 9.9.036 1.703.289 5.439 5.865 12.117 18.022 1.62 2.99 3.54 6.077 4.144 6.773 1.309 1.292 9.313 1.94 24.413 1.943l9.2.04.05 7.7c.092 14.1-5.017 12.733 43.977 11.716 23.397-.55 43.595-.981 44.895-.99 2.2-.014 2.2-.014 1.852-22.812l-.446-22.698-44.501-.012c-39.7.056-44.6.188-45.69 1.695-.794 1.005-.969 4.906-.521 12.203l.569 10.697-15.802-.198c-8.801-.143-16.305-.695-16.908-1.19-1.912-1.888-12.637-21.12-12.648-22.82-.013-2.1 6.994-.945 12.814 2.018 6.02 3.06 6.22 3.16 8.809 1.343 2.688-1.718 2.688-1.718 2.013-13.413-.341-6.398-1.187-13.393-1.9-15.588-2.149-7.387-10.184-12.835-13.76-9.212-.696.705-1.175 4.008-1.15 7.908l.044 6.8-18.197.417c-10.099.265-18.799.322-19.5.126-.601-.196-1.417-2.59-1.834-5.288-.836-5.595-2.851-7.882-9.876-11.737-4.215-2.272-4.515-2.27-7.704-.65-5.184 2.534-6.79 1.644-3.313-1.979 1.391-1.309 1.776-3.711 1.827-11.312.06-6.3.818-12.605 2.183-18.114 4.973-19.633 5.358-21.935 4.042-24.427-1.214-2.192-9.846-7.136-10.84-6.13-.198.201 1.81 1.589 4.62 3.17 6.724 3.557 6.717 2.457.088 28.9-1.268 5.009-2.026 11.514-2.089 17.314-.04 9.3-.728 11.105-4.327 11.229-1.9.012-11.434-5.227-11.944-6.724-.304-.698.188-1.8 1.084-2.507.995-.706 2.665-5.417 4.024-11.726 4.085-17.827 4.478-18.93 5.982-18.339 1.003.394 1.398-.309 1.386-2.209-.02-3.1-2.133-5.086-9.861-9.436-5.32-3.066-5.421-3.165-3.534-5.178.993-1.106 3.481-2.922 5.575-3.936 1.993-1.113 3.685-2.224 3.684-2.424-.008-1.2-2.8-.081-6.983 2.646m26.51 63.43c3.714 2.176 3.622 3.376-.164 5.5-3.885 2.326-5.686 2.238-9.601-.137-4.016-2.374-4.123-3.474-.535-5.397 3.587-2.023 6.787-2.044 10.3.034m13.331 35.714c.003.5-.493 1.104-1.091 1.307-.6.204-1.103-.392-1.109-1.292s.49-1.504 1.092-1.307c.601.196 1.105.792 1.108 1.292m4.418 2.672c-.392 1.302-.872 4.406-1.255 7.008-.664 5.605-1.562 5.91-7.285 2.347-3.615-2.276-3.818-2.675-3.34-6.178.67-4.705.67-4.705 3.178-3.32 1.706.788 2.606.782 4.297-.529 3.285-2.32 5.187-2.033 4.405.672m156.796-1.013c.823 3.495 1.664 40.79.966 41.195-.298.202-19.496.626-42.594.975l-41.997.671-.606-16.396c-.357-8.898-.42-18.698-.34-21.698l.365-5.403 34.098-.42c18.799-.321 37.697-.644 41.896-.87 7.398-.248 7.799-.151 8.212 1.946"/><path d="M714.848 382.371c-.295.802-.382 2.703-.172 4.301.213 1.999.818 2.795 2.318 2.785 1.3-.008 2.105.787 2.315 2.385.52 2.897-1.466 5.21-2.382 2.816-.305-.898-1.01-1.494-1.507-1.19-.398.302-.592 1.203-.187 2 .815 2.396 4.21 1.674 5.493-1.035.888-1.905.781-2.905-.632-4.996-.91-1.394-2.116-2.486-2.616-2.483-1.9.012-1.018-2.793.978-3.306 1.098-.307 1.994-1.013 1.99-1.613-.01-1.6-5.008-1.268-5.598.336M728.44 381.083c-.099.2-.175 3.801-.248 8.102-.159 6.301.15 7.7 1.35 7.691 1.2-.007 1.391-1.409 1.148-8.007-.228-4.399-.851-7.995-1.351-7.992s-.9.106-.899.206M749.646 381.946c-1.788 1.812-1.42 12.31.39 13.798 2.412 1.985 4.502.371 4.476-3.529-.015-2.4-.625-3.896-2.03-4.687-2.108-1.286-2.83-4.782-1.03-4.793.6-.004 1.002.493 1.007 1.193.006.9.306.898 1.1.093 1.292-1.308.38-3.302-1.52-3.29-.6.004-1.697.51-2.393 1.215m2.863 9.782c.01 1.6-.38 3.003-.98 3.006-.5.004-1.01-1.393-1.02-2.993-.01-1.7.481-3.003.981-3.006.6-.004 1.008 1.293 1.02 2.993M759.254 383.184c-.887 1.906-.781 2.905.633 4.996.909 1.394 2.316 2.485 3.116 2.48 1.8-.011 1.905.888.419 2.998-.793 1.105-1.192 1.207-1.599.21-.204-.599-.905-.894-1.404-.591-1.195.708.822 3.395 2.622 3.383s2.485-2.316 2.449-8.016c-.018-2.7-.336-5.498-.642-6.396-.915-2.394-4.312-1.872-5.594.936m4.91 1.469c.205.798-.186 2.2-.68 3.004-.892 1.306-1.092 1.307-2 .013-1.617-2.49-1.234-5.192.668-4.804 1.002.193 1.907.987 2.012 1.787M772.66 383.898c-3.363 5.822-3.552 7.523-.95 7.906 1.701.189 2.206.886 2.117 2.586-.191 1.402.314 2.198 1.314 2.192 1.4-.01 1.493-1.11.85-7.806-.427-4.197-.95-7.794-1.052-7.993-.101-.2-1.191 1.308-2.28 3.115m1.826 4.088c.01 1.5-1.78 3.112-2.585 2.317-.705-.696.676-3.705 1.676-3.711.5-.003.903.594.909 1.394M738.795 389.517c.901.194 2.301.185 3-.02.598-.304-.104-.5-1.804-.488-1.6.01-2.198.214-1.196.508M717.386 403.655c-1.398.31-1.79 1.512-1.772 4.412.023 3.5.326 3.998 1.922 3.387 1.297-.408 2-.013 2.41 1.685.82 2.895-1.065 5.307-2.875 3.718-1.106-.892-1.405-.79-1.398.41.014 2.1 2.518 2.783 4.509 1.27 2.389-1.715 1.556-6.81-1.253-8.092-2.907-1.181-3.129-4.48-.329-4.498 1.1-.007 1.998-.413 1.995-.913-.009-1.3-1.212-1.792-3.21-1.379M749.797 405.246c-2.564 5.616-.813 13.505 2.887 13.481 3.8-.024 3.746-8.324-.062-9.5-1.102-.292-2.008-1.286-2.013-1.986-.012-1.9 1.682-2.811 2.292-1.315.205.698.806.995 1.204.592 1.093-1.007-.225-3.799-1.825-3.788-.8.005-1.893 1.112-2.483 2.516m3.854 8.475q.02 3-1.48 3.01t-1.52-2.99 1.481-3.01 1.52 2.99M759.997 405.28c-.78 3.105 1.048 7.393 3.148 7.38.8-.005 1.505.89 1.513 2.09.01 1.6-.387 1.903-1.99 1.413-2.305-.685-2.792 1.318-.487 2.103 3.91 1.475 5.958-6.538 3.416-13.022-1.323-3.492-4.723-3.47-5.6.036m4.615 2.37q.02 3-1.48 3.01t-1.52-2.99 1.481-3.01 1.52 2.99M772.809 407.097c-2.664 5.618-2.752 7.518-.152 7.501 1.3-.008 2.005.687 2.013 1.987.018 2.8 2.016 2.487 2.098-.313.27-4.602-.378-12.198-1.084-12.993-.402-.398-1.691 1.31-2.875 3.818m1.434 5.191c-1.093 1.107-1.904-.588-1.116-2.393.79-1.705.79-1.705 1.2-.007.306.998.214 2.098-.084 2.4M783.193 404.63c-.97 4.607-2.516 13.017-2.513 13.417.002.3.503.496 1.003.493.6-.004.992-1.206.983-2.606-.021-3.3 3.28-3.021 3.803.375.313 2.098 2.22 3.186 2.207 1.186-.012-1.9-3.387-13.478-4.192-14.373-.404-.498-1 .206-1.29 1.508m2.439 5.985c.003.5-.394.902-.994.906-.5.003-1.005-.694-1.01-1.594-.006-.8.492-1.203.994-.906.602.296 1.006.994 1.01 1.594M728.64 411.983c.038 6 .351 7.997 1.349 7.591.598-.204 1.194-.908 1.09-1.507-.105-.7-.227-4.099-.25-7.699-.361-9.497-2.252-8.085-2.19 1.615M737.639 411.824c.003.5 1.306.992 2.906.982 1.7-.011 3.297-.522 3.594-1.024.396-.602-.807-.994-2.907-.98-2 .012-3.597.422-3.593 1.022M550.82 285.728c.008 1.1 6.13 4.46 6.825 3.756.298-.302.296-.602.095-.8-4.016-2.374-6.923-3.556-6.92-2.956M546.433 287.657c-.885 2.405-.659 6.404.341 6.398.5-.004 1.089-1.808 1.274-4.009.375-4.002-.534-5.296-1.615-2.39M561.864 292.457c.005.8 6.124 3.66 6.72 3.057.299-.202-.908-1.194-2.613-1.983-3.11-1.68-4.112-1.874-4.107-1.074M571.898 297.592c.006 1 6.83 4.756 7.427 4.153.298-.202-1.31-1.492-3.518-2.678-2.107-1.186-3.912-1.875-3.91-1.475M544.509 299.37c-1.493 1.109-1.784 2.61-1.65 7.91.133 5-.254 7.002-1.744 8.612-1.686 2.11-2.686 2.217-17.885 2.315-9.6.062-16.297.505-16.693 1.108-.396.702 5.306.966 16.506.893 17.1-.11 17.1-.11 17.619 2.887.41 1.597 1.222 3.392 2.025 3.987 1.81 1.488 7.505.751 8.394-1.055.395-.802 1.184-2.507 1.875-3.812 1.185-2.407.66-6.204-.94-6.194-.5.003-1.022-3.393-1.249-7.592-.341-6.398-.65-7.896-2.458-8.984-1.708-1.19-2.308-1.185-3.8-.076m3.41 1.677c.004.5-.693 1.005-1.493 1.01s-1.503-.49-1.506-.99c-.004-.6.693-1.005 1.493-1.01s1.503.39 1.506.99m-.48 3.003c.303.499-.094 1.001-.894 1.006s-1.803-.488-2.106-.986c-.304-.598.093-1 .893-1.006.8-.005 1.803.388 2.107.986m.52 2.997c.002.5-.694 1.005-1.494 1.01s-1.504-.49-1.507-.99c-.004-.6.694-1.005 1.494-1.01s1.502.39 1.506.99m.319 2.998c.8-.005.801.295.007 1.1-1.292 1.309-4.297.528-4.308-1.172-.004-.6.695-.805 1.597-.51.902.294 2.104.586 2.704.582m.527 4.197c-.296.702-1.292 1.308-2.292 1.315s-2.004-.587-2.208-1.286c-.305-.698.492-1.203 2.192-1.214s2.503.484 2.308 1.185m-1.06 6.107c.996-.407 2.092-1.114 2.488-1.716.99-1.507 2.2-.014 1.512 1.89-.787 2.005-7.587 2.049-10.3.067-1.507-1.19-1.61-1.59-.515-2.397.896-.606 1.898-.312 3.206.98 1.108 1.092 2.51 1.583 3.608 1.176m.784-2.305c-.297.502-1.193 1.007-1.993 1.013-.8.005-1.703-.49-2.007-.987-.404-.598.494-1.004 1.994-1.013 1.5-.01 2.402.384 2.006.987m-5.756 6.737c-.398.303-.7.005-.705-.695-.004-.7.294-1.002.696-.705.302.398.306.998.009 1.4m5.305.866c.01 1.6-2.587 1.917-3.497.422-.304-.598-.41-1.397-.013-2 .792-1.305 3.5-.122 3.51 1.578M582.937 303.721c.007 1 6.533 5.058 8.233 5.047 1.2-.008-2.62-3.083-5.931-4.862-1.304-.591-2.305-.685-2.302-.185M600.762 307.406c-.287 2.102-.275 4.002-.073 4.3.806.896 2.284-2.514 2.266-5.314-.026-4-1.721-3.289-2.193 1.014M401.003 314.496c-1.984 2.413-.464 5.503 3.846 7.076.1.099.006.9-.388 1.802-.492 1.303-.891 1.406-1.997.513-.805-.695-1.806-.888-2.103-.486-.696.704 1.416 2.59 2.916 2.58 1.7-.01 3.778-3.424 3.761-6.124-.037-5.8-3.256-8.679-6.035-5.36m4.016 2.474c.007 1.1-.687 2.005-1.487 2.01s-1.506-.89-1.513-1.99.687-2.005 1.487-2.01 1.506.89 1.513 1.99M410.604 314.534c-1.18 3.208-.533 10.404.97 10.994 2.507.984 4.49-1.629 4.464-5.629-.032-5.1-.845-6.994-3.045-6.98-1 .006-2.095.713-2.39 1.615m3.432 4.978q.03 4.5-1.173 4.208c-1.403-.491-2.023-3.487-1.343-6.592.875-3.905 2.485-2.416 2.516 2.384M420 314.074c.003.4.706.795 1.606.79 1.2-.008 1.503.49.914 2.193-1.47 4.61-1.741 9.112-.546 8.404.598-.404 1.09-1.707 1.082-2.907s.677-3.504 1.467-5.11c1.876-3.612 1.978-3.312-1.525-3.79-1.602-.29-3-.08-2.997.42M430.2 314.008c-.695.704-1.187 1.907-1.182 2.707.109 1.3.209 1.3 1.099-.207.494-.903 1.389-1.709 1.889-1.712 1.7-.01 1.12 2.993-1.061 6.007-1.19 1.608-1.877 3.612-1.572 4.41.711 1.696 4.714 2.17 4.704.57-.004-.6-.707-.995-1.507-.99-2 .013-1.907-1.188.473-4.303 1.09-1.408 1.98-3.113 1.974-3.913-.009-1.4-1.924-3.788-3.024-3.78-.3.001-1.097.506-1.792 1.21M439.206 314.75c-1.78 3.011-1.446 8.41.767 10.395 1.71 1.589 2.01 1.587 3.5.077 2.185-2.314 2.044-8.713-.27-10.798s-2.513-2.084-3.997.326m3.636 5.576c-.186 2.202-.675 3.905-1.275 3.909-1.2.007-1.939-5.988-1.054-8.294.982-2.806 2.702.283 2.329 4.385M457.914 316.029c-1.48 3.11-.238 9.502 1.867 10.288 2.206.886 4.284-2.428 4.256-6.728-.037-5.8-4.052-8.174-6.123-3.56m4.127 4.173c.021 3.2-.371 4.403-1.172 4.208-1.404-.491-2.34-6.085-1.455-8.49 1.082-2.708 2.598-.218 2.627 4.282M467.51 315.267c-1.38 3.309-1.456 6.81-.242 9.002 1.52 3.09 4.619 2.97 5.398-.235.683-2.705-1.035-5.494-3.235-5.48-1.8.012-1.81-1.388-.119-2.899.995-.806 1.696-.71 2.601.183 1.107.993 1.306.892.898-.305-.714-2.196-4.415-2.372-5.301-.266m3.547 7.377c.016 2.4-2.286 2.115-2.802-.382-.207-.998.289-1.702 1.189-1.708 1-.006 1.606.89 1.613 2.09M477.206 314.704c-.695.705-1.188 1.908-1.182 2.708.108 1.3.407 1.197 1.498-.31s1.789-1.711 2.594-.917c.805.795.413 1.998-1.47 4.61-3.371 4.522-3.264 5.721.736 5.595 2.9-.018 2.999-.119.894-.905-2.005-.787-2.108-1.187-1.02-2.994.693-1.104 1.588-2.01 1.888-2.012 1.3-.008 1.879-3.212.867-5.106-1.215-2.192-3.016-2.48-4.805-.669M487.105 314.44c-1.395.81-1.742 9.112-.53 11.004 1.011 1.593 4.208 1.173 4.897-.632.294-.902.578-3.303.565-5.403-.027-4.2-2.443-6.585-4.932-4.969m2.939 6.081c.018 2.8-.375 3.903-1.177 3.608-1.202-.292-1.415-2.39-.947-7.294.28-3.202 2.1-.113 2.124 3.686M495.619 316.585c-.292 1.302-.375 3.903-.263 5.802.22 3.199.523 3.497 3.525 3.778 3.302.278 3.302.278 2.964-5.52-.335-5.498-.437-5.797-3.04-6.08-2.201-.286-2.799.118-3.186 2.02m4.702.27c.811 1.795-1.08 3.107-2.49 1.716-1.107-1.093-.32-3.198 1.18-3.208.4-.002 1.004.694 1.31 1.492m.128 4.4c.909 1.393-.374 4.102-1.974 4.112-.8.005-1.406-.99-1.416-2.49-.016-2.5 2.278-3.516 3.39-1.623M450.349 321.378c.901.194 2.301.185 3-.02.598-.303-.104-.499-1.804-.488-1.6.01-2.198.214-1.196.508M689.35 320.834c-1.794.912-3.287 2.022-3.284 2.522.008 1.2 1.007.993 4.592-1.33 5.28-3.234 4.274-4.028-1.308-1.192M679.587 326.598c-1.096.607-2.89 1.618-3.985 2.325-1.096.607-1.69 1.411-1.288 1.809.704.695 7.776-3.65 7.769-4.85-.006-.8.094-.801-2.496.716M663.946 335.699c-4.285 2.427-5.172 4.433-.986 2.206 3.488-1.922 6.97-4.645 5.67-4.537-.499.104-2.692 1.118-4.684 2.33M651.392 342.88c-4.385 2.428-4.676 3.73-.39 1.603 2.292-1.215 4.185-2.428 4.183-2.628-.005-.8-1.302-.391-3.793 1.025M637.941 350.567c-2.193 1.114-3.686 2.224-3.484 2.523.504.496 8.778-3.457 8.774-4.157-.006-.9-1.403-.391-5.29 1.634M671.435 349.55c-1.29 1.51.83 4.695 3.23 4.68 1.8-.012 1.992-1.313.574-4.104-1.214-2.192-2.315-2.385-3.804-.575m2.516 2.384c-.398.303-.7.005-.705-.695-.004-.7.294-1.002.696-.704.302.398.306.998.009 1.4M600.769 355.007c1.105.693 3.619 2.877 5.632 4.864 2.013 2.087 3.924 3.775 4.324 3.772 1.4-.009-5.246-7.166-7.955-8.549-3.311-1.678-4.812-1.769-2.001-.087M617.494 358.9c-1.39 1.608-.581 2.803 1.413 1.99.798-.305 1.4-.009 1.404.591s-.493 1.103-1.193 1.108c-.9.006-.898.306-.093 1.1 1.309 1.292 3.303.38 3.29-1.52-.004-.7-.812-1.996-1.919-2.989-1.509-1.39-2.009-1.387-2.902-.28M666.344 366.484c.026 3.9.444 6.797 1.044 6.793 1.3-.008 1.236-10.008-.077-12-.707-1.095-.997.507-.967 5.207M630.448 367.216c-.076 3.6.341 6.298.941 6.294 1.2-.008 1.159-6.408-.064-10-.613-1.896-.806-.895-.877 3.706M612.035 365.235c-1.594.91-2.688 1.817-2.386 2.115.603.496 6.684-2.443 6.68-3.243-.006-.8-1.404-.491-4.294 1.128M600.872 370.907c-2.093 1.213-3.482 2.822-3.474 4.022.002.4.8.095 1.795-.711.895-.806 2.586-2.117 3.681-2.924 2.289-1.815.887-2.106-2.002-.387M594.458 384.349c.018 2.7.428 4.297 1.026 3.893.598-.304.984-2.406.97-4.606-.014-2.1-.425-3.898-1.025-3.894-.5.003-.987 2.107-.97 4.607M594.551 398.748c.018 2.7.533 4.997 1.033 4.994.6-.004.985-2.307.967-5.007-.018-2.8-.432-4.997-1.032-4.993-.5.003-.986 2.206-.968 5.006M594.642 412.748c.017 2.7.532 4.997 1.032 4.993.6-.004.985-2.306.968-5.006-.018-2.8-.433-4.997-1.033-4.993-.5.003-.985 2.206-.967 5.006M187.11 424.68c-.195.701-.26 6.202-.12 12.3l.37 10.899 43.801.017c43.7-.082 43.7-.082 43.783-2.783l-.08-12.3-.06-9.5-43.602-.018c-35.4.029-43.599.282-44.092 1.385m85.472 10.848.367 10.298-41.5.268-41.599.269-.067-10.5-.068-10.5 41.3-.067 41.201.034z"/><path d="M196.83 427.717c-1.984 2.413-.955 7.006 1.748 7.389 1.601.19 2.206.986 2.217 2.686.017 2.6-2.07 4.613-2.782 2.718-.205-.699-.807-.995-1.205-.692-1.494.91.123 3.499 2.123 3.486 4.5-.03 4.846-8.332.335-10.002-3.007-1.181-3.22-2.98-.524-3.697 1.198-.308 1.894-1.012 1.69-1.611-.511-1.697-2.312-1.885-3.602-.277M238.723 426.447c-.299.202-.374 4.102-.145 8.5.452 8.098.452 8.098 3.252 8.08 1.6-.01 3.197-.52 3.493-1.123.99-1.606-.416-2.397-1.707-1.089-1.789 1.812-2.491 1.416-3.011-1.68-.314-2.198-.02-3.1 1.378-3.41.998-.306 1.793-1.11 1.789-1.71-.005-.7-.707-.996-1.505-.691-1.895.812-2.805-.782-2.022-3.387.49-1.503 1.288-1.909 2.69-1.618 1.202.293 1.8.089 1.496-.61-.408-1.197-4.914-2.168-5.708-1.262M248.524 426.583c-.398.303.317 2.598 1.433 5.091 1.42 3.091 1.835 5.488 1.35 7.892-.384 2.402-.177 3.4.723 3.395.8-.005 1.39-1.609 1.57-4.61.084-2.5.86-6.106 1.649-7.911.688-1.905.976-3.706.574-4.004-1.204-.692-2.096.614-2.08 3.114.025 3.8-1.876 3.712-2.6-.084-.622-3.296-1.428-4.19-2.62-2.883M208.63 427.641c-.199.201-.276 3.802-.048 8 .338 5.998.749 7.596 1.949 7.588 1-.006 1.296-.608.89-1.606-.307-.898-.63-4.496-.652-7.996-.037-5.6-.648-7.396-2.14-5.986M228.84 429.01c-1.385 2.51-1.339 9.61-.022 12.2 1.517 2.591 3.915 2.376 4.997-.531 1.179-3.208.158-6.402-2.146-7.087-1.003-.393-1.91-1.487-1.917-2.587-.01-1.6.388-1.903 2.091-1.414 1.503.49 2.002.287 1.696-.61-.714-2.196-3.614-2.178-4.7.03m3.95 7.975c.019 2.8-1.066 5.207-2.07 4.514-1.606-.89-1.141-6.393.558-6.404.8-.005 1.506.89 1.513 1.89M218.279 435.179c-.396.602.506.997 1.906.988s2.597-.517 2.594-1.017c-.004-.6-.907-.994-1.907-.988-1.1.007-2.297.415-2.593 1.017M594.728 426.148c.016 2.5.531 4.796 1.033 5.093.603.396.992-1.306.972-4.406-.018-2.8-.433-5.098-1.033-5.094-.5.004-.987 2.007-.972 4.407M595.488 435.443c-1.093 1.007-.754 7.105.35 7.798.603.396.993-1.207.975-3.907-.03-4.7-.232-5.098-1.325-3.891M331.006 454.451c-6.776 3.844-12.455 7.08-12.555 7.081s-5.58 3.237-12.053 7.278c-14.145 8.592-23.212 13.75-44.24 25.087-5.181 2.833-13.252 7.385-17.934 10.216-10.46 6.167-12.852 7.383-13.355 6.886-.503-.397-1.71-32.59-1.818-49.19-.141-6.398-.568-10.596-1.066-10.193-.598.304-.619 12.605-.201 30.802l.696 30.397-3.785 2.324c-2.191 1.314-5.877 3.538-8.369 4.854-9.068 4.959-22.718 12.747-33.875 19.42-11.058 6.57-20.522 12.132-40.845 24.064-31.88 18.706-72.63 42.07-82.297 47.232-4.883 2.632-9.564 5.662-10.457 6.668-1.49 1.61-1.495 16.31-.406 169.406 1.045 146.296 1.383 167.694 2.688 168.486.803.495 7.305.753 14.505.706 7.099-.145 56.4-.264 109.5-.207 53.102.057 148.303-.057 211.504-.166 63.3-.108 137.602-.088 165.304.033 37.102.26 50.201.076 50.195-.824-.005-.8-20.306-.97-76.706-.705-42.3.173-82.9.235-90.301.083s-77.802.003-156.503.11c-156.4.41-225.603.258-226.409-.637-.301-.298-1.189-75.794-1.983-167.79-1.38-167.295-1.38-167.295 1.11-168.911 1.393-1.01 4.481-2.83 6.773-4.144 11.658-6.476 15.743-8.802 21.721-12.24 9.564-5.563 31.683-18.206 42.842-24.578 2.492-1.316 9.664-5.562 15.94-9.303 16.338-9.706 30.485-17.997 36.862-21.539 2.99-1.619 5.979-3.338 6.475-3.841 1.593-1.21 25.504-15.065 26.104-15.07.3-.001 1.694-.81 3.088-1.82 1.493-1.109 6.076-3.739 10.162-5.965 12.855-6.983 42.448-23.675 46.133-25.999 1.195-.707 5.579-3.236 9.665-5.462s10.363-5.767 13.95-7.79a877 877 0 0 1 10.959-6.371c2.491-1.316 7.671-4.45 11.456-6.774 3.885-2.325 12.453-7.28 19.23-11.025l12.255-6.879 97.9-.232c53.9-.248 97.999-.633 97.996-1.133-.003-.4-44.404-.413-98.803-.062l-98.698.637zM543.862 447.077c2.009 1.287 48.008.99 48-.31-.004-.6-8.907-.943-24.707-.84-16.4.105-24.296.556-23.293 1.15M604.262 446.887c-.297.401 2.306.785 5.705.763s5.898-.338 5.596-.736c-1.006-.894-10.706-.931-11.3-.027M621.165 447.277a1.2 1.2 0 0 0 1.4-.009c.298-.402-.004-.7-.704-.695-.7.004-.998.306-.696.704M656.165 447.051c14.8.105 38.6-.049 52.998-.342 14.4-.193 2.4-.215-26.8-.027-29.1.188-40.899.364-26.198.37M737.863 446.524c.003.5 1.805.788 4.106.873 2.5.084 3.598-.223 2.695-.717-1.607-1.09-6.808-1.156-6.801-.156M747.265 446.863c-.297.502.906.894 2.506.884 1.7-.011 3.099-.22 3.097-.42-.005-.8-5.108-1.267-5.603-.464M757.967 447.094c.201.199 10.904.53 23.605.648 12.8.117 23.403.448 23.705.746.705.796 5.706 496.474 4.96 504.679-.094 1.1-4.992 1.332-25.094 1.162-13.8-.11-25 .161-24.997.561.003.5 11.605.726 25.905.633 25.9-.167 25.9-.167 26.385-2.37.392-1.203.153-38.302-.331-82.3-.585-43.997-1.715-157.092-2.624-251.388s-1.91-171.791-2.212-172.29c-.303-.397-11.605-.725-25.105-.637-13.6.087-24.398.357-24.197.556M595.605 453.443c-1.094 1.007-.748 8.105.356 8.797.603.397.992-1.306.972-4.406-.034-5.2-.136-5.6-1.328-4.391M595.708 469.442c-1.094 1.007-.741 9.105.363 9.798.603.396.99-1.506.969-4.906-.037-5.7-.14-6.1-1.332-4.892"/><path d="M492.044 475.412c-2.569 4.816.987 13.494 4.167 10.273 1.987-2.013 2.243-8.815.331-10.602-2.214-2.186-3.213-2.08-4.498.329m3.836 5.575c-.185 2.201-.674 3.905-1.274 3.908-1.2.008-1.94-5.987-1.054-8.293.982-2.806 2.702.283 2.328 4.385M406.856 477.462c-1.183 2.708.235 5.499 2.835 5.482.8-.005 1.404.59 1.409 1.29.013 2.1-1.182 2.808-2.69 1.618-.906-.894-1.305-.792-1.3.008.012 1.8 2.916 2.482 4.507 1.071 1.79-1.511 1.941-9.112.23-10.801-1.912-1.888-3.709-1.376-4.991 1.332m4.21 1.473c.006 1.1-.688 2.004-1.488 2.01s-1.505-.89-1.513-1.99c-.007-1.1.687-2.005 1.487-2.01.8-.006 1.506.89 1.513 1.99M416.552 476.9c-.88 3.005.44 5.997 2.639 5.982 1-.006 1.904.588 1.909 1.388.014 2.2-1.88 3.012-3.49 1.623-.904-.695-1.505-.79-1.5-.19.011 1.9 3.314 2.278 5.103.566 2.286-2.114 2.36-6.215.24-9.201-1.917-2.688-4.117-2.774-4.9-.169m4.315 2.271c.207 1-.289 1.702-1.189 1.708-1 .007-1.606-.89-1.613-2.09-.016-2.4 2.286-2.114 2.802.382M426.049 476.338c-1.587 2.01.242 6.499 2.642 6.483.8-.005 1.404.591 1.108 1.193-.196.701-1.193 1.208-2.093 1.213-1.8-.188-1.689 1.711.115 2.3s4.283-2.728 4.263-5.828c-.038-5.9-3.256-8.68-6.035-5.361m4.016 2.474c.007 1.1-.687 2.005-1.487 2.01s-1.506-.89-1.513-1.99.687-2.005 1.487-2.01 1.506.89 1.513 1.99M435.447 476.077c-.294.802-.378 3.403-.162 5.801.325 3.898.628 4.396 2.828 4.382 2.4-.015 2.498-.316 2.465-5.516-.032-4.9-.236-5.498-2.338-5.785-1.201-.192-2.398.316-2.793 1.118m4.22 3.073c.72 3.095.238 5.799-1.259 6.308-1.497.51-2.62-3.183-1.94-6.287.78-3.105 2.38-3.116 3.2-.02M463.742 475.195c-.993 1.006-.844 8.605.266 10.198.505.797 1.708 1.189 2.707.983 1.598-.31 1.892-1.213 1.862-5.813-.03-4.8-.335-5.498-2.037-5.787-1.202-.192-2.4.016-2.798.419m4.138 5.873c-.364 5.602-2.762 5.818-2.798.218-.016-2.4.27-4.702.667-5.004 1.291-1.409 2.407 1.084 2.131 4.786M473.246 475.733c-.496.703-.679 3.305-.263 5.802.526 3.997.93 4.494 3.13 4.48 2.3-.015 2.497-.416 2.47-4.516.07-4.7-.945-6.994-3.045-6.98-.7.004-1.696.61-2.292 1.214m3.318 2.779c-.495.803-1.095.807-1.699.21-.604-.595-.71-1.595-.314-2.197.495-.803 1.095-.807 1.699-.211s.71 1.595.314 2.198m.533 5.096c.015 2.4-2.286 2.115-2.803-.381-.206-1 .29-1.702 1.19-1.708 1-.007 1.605.89 1.613 2.09M482.648 475.972c-1.08 3.007-.547 8.204.961 9.494 3.418 2.778 6.585-2.342 4.75-7.73-1.12-3.193-4.727-4.27-5.711-1.764m3.927 4.275c.038 5.9-1.863 5.712-2.3-.185-.224-3.599-.031-4.7.97-4.406.803.295 1.314 2.091 1.33 4.591M501.742 475.05c-.993 1.006-.744 8.604.367 10.297.707 1.095 1.004.694 1.087-2.007.087-1.9-.03-4.6-.138-5.9-.11-1.499.285-2.201 1.187-1.907.802.295 1.314 2.192 1.336 5.591.02 2.9.334 5.198.734 5.196 1.6-.01 1.946-8.413.43-10.803-.908-1.294-3.91-1.575-5.003-.468M446.151 476.608c-.896.606-.993 1.107-.19 1.501.602.397 1.116 2.493 1.13 4.693.014 2.1.525 3.897 1.025 3.894.6-.004.984-2.507.965-5.507-.036-5.6-.44-6.197-2.93-4.58M455.084 481.65c.003.5.906.995 2.006.988s1.997-.513 1.994-1.013c-.004-.6-.907-.994-2.007-.987s-1.997.413-1.993 1.013M595.811 485.442c-.993 1.006-.764 5.605.347 7.298.707 1.095 1.002.193.979-3.307-.031-4.8-.134-5.199-1.326-3.991M457.47 526.036c.234 20.599.65 38.597.859 39.995.517 2.597 2.024 3.687 15.871 10.998 3.914 2.075 8.23 4.547 9.737 5.637 1.406.991 3.011 1.78 3.611 1.777 2.3-.015 3.419 2.878 2.34 6.085-1.276 3.808-.16 6.301 3.954 8.375 3.511 1.777 5.806.962 8.38-2.954 3.664-5.724.631-10.805-6.77-11.057-4.002-.174-6.008-1.061-19.758-8.773-3.01-1.68-6.623-3.657-8.028-4.348-7.124-3.654-6.714-2.156-7.588-29.151-.388-13.498-.801-31.096-.854-39.296-.062-9.6-.495-14.697-1.195-14.692s-.924 11.806-.559 37.404m39.791 60.344c.303.498.106 1-.394 1.003-.6.004-1.103-.493-1.106-.993-.004-.6.194-1.001.394-1.002.3-.002.802.394 1.106.992m-1.783 2.612c.203.499-.288 1.902-1.081 2.907-2.082 2.814-4.296.728-2.617-2.483 1.087-2.107 3.086-2.32 3.698-.424m6.305.86c.006.9-.592 1.203-1.494.909-.802-.395-2.2-.086-2.996.62-1.79 1.51-1.996.512-.21-1.5 1.588-1.91 4.688-1.93 4.7-.03m-1.978 3.412c.004.6-.391 1.303-.99 1.607-.497.303-1-.094-1.005-.894-.006-.9.49-1.603.99-1.606.6-.004 1.002.393 1.005.893m-2.38 3.116c.8-.006 1.403.39 1.407.99.003.5-.894 1.006-1.994 1.013-1.5.01-2.003-.587-1.918-2.787.09-1.6.288-2.002.594-1.004.206.999 1.112 1.793 1.912 1.788m-4.106-.974c.303.498.207.999-.393 1.003-.5.003-1.304-.492-1.607-.99-.304-.598-.206-.999.394-1.003.5-.003 1.302.392 1.606.99M596.533 504.238c.017 2.7.224 3.798.414 2.197.19-1.501.176-3.701-.032-5-.208-1.199-.4.003-.382 2.803M330.614 517.655c.437 5.697.771 11.095.777 11.995.011 1.7 2.812 1.782 43.91 1.517 24.2-.156 44.098-.585 44.295-1.086.197-.402.162-5.801-.078-12l-.472-11.197-44.5.287-44.498.288zm85.972-4.555c.419 2.897.75 7.695.769 10.595l.033 5.2-41.7.07-41.801-.03-.363-9.699-.363-9.698 4.298-.327c2.399-.216 20.997-.536 41.396-.868l37.097-.54z"/><path d="M340.381 512.592c-.393 1.102-.58 3.204-.27 4.502.31 1.798.913 2.194 2.31 1.785 1.598-.51 1.9-.112 1.916 2.288q.033 5.25-2.68 3.017c-.705-.596-1.706-.79-2.003-.387-.795.805 1.516 2.59 3.416 2.578s3.475-3.923 2.858-6.619c-.41-1.497-1.416-2.39-2.616-2.383-1.3.008-2.004-.687-2.013-1.987s.687-2.004 1.987-2.013c1.1-.007 1.996-.713 1.99-1.513-.014-2.3-4.01-1.774-4.895.732M372.785 513.083c-3.554 7.123.912 17.294 4.871 10.968 1.385-2.309-.043-6.7-2.448-7.384-2.805-.882-2.126-4.086.876-3.706 2.703.383 2.798-.418.189-1.8-1.606-.89-2.204-.587-3.488 1.922m3.552 8.077c.01 1.6-.48 3.003-.98 3.006-1.4.01-2.417-2.584-1.63-4.49.984-2.606 2.59-1.616 2.61 1.484M384.273 511.108c-1.594 1.01-2.133 10.514-.715 13.305.608 1.096 1.811 1.689 3.11 1.48 1.998-.313 2.194-.914 2.354-7.115.065-5.5-.244-6.899-1.649-7.59-1.004-.593-2.304-.585-3.1-.08m3.022 3.481c.01 1.6-.584 2.504-1.484 2.51s-1.506-.89-1.516-2.49.584-2.504 1.484-2.51 1.506.89 1.516 2.49m.439 5.997c.713 1.996-.37 4.703-1.773 4.212-1.704-.59-2.037-5.687-.337-5.698.8-.005 1.705.689 2.11 1.486M394.378 511.943c-2.37 4.516-.709 14.105 2.491 14.084 3.9-.025 4.246-8.327.439-9.503-2.004-.587-2.616-2.483-1.325-3.791.298-.402 1.3-.109 2.103.486 1.207.993 1.406.891 1.096-.707-.617-2.696-3.52-3.077-4.804-.569m3.952 7.975c.018 2.8-1.067 5.207-2.071 4.513-1.606-.89-1.141-6.392.558-6.403.8-.006 1.506.89 1.513 1.89M352.522 518.814c.235 5.498.748 7.495 1.748 7.489.8-.006 1.096-.608.69-1.605-.306-.898-.627-4.196-.649-7.496-.022-3.4-.438-5.897-1.038-5.893-.7.004-.982 2.806-.751 7.505M362.623 518.948c.901.195 2.501.184 3.5-.022.898-.306.096-.5-1.804-.489-1.9.013-2.698.218-1.696.511M472.556 508.238c-2.195.814-1.56 6.11.744 6.796 2.004.587 2.616 2.483 1.324 3.791-.297.402-1.198.208-2.002-.387-.906-.894-1.305-.792-1.3.008.011 1.8 2.916 2.482 4.507 1.071 1.79-1.511 1.941-9.112.23-10.801-1.308-1.292-1.608-1.29-3.503-.478m2.724 3.783c.01 1.4-.384 2.502-.983 2.506-.5.003-1.008-1.093-1.017-2.493s.484-2.503.984-2.507c.6-.004 1.007 1.094 1.016 2.494M481.761 509.079c-.894.906-1.385 2.309-1.08 3.107.306.798.611 1.696.613 1.896.001.2.402.397 1.002.394.5-.004.895-.806.689-1.805-.106-.9.287-1.902.785-2.205.599-.304 1.109 1.293 1.224 3.692.124 3.6-.172 4.301-1.772 4.312-1 .006-1.897.412-1.893 1.012.009 1.4 3.308 1.279 4.798-.231 1.69-1.711 1.446-8.41-.466-10.197-1.912-1.988-1.912-1.988-3.9.025M490.863 509.32c-1.886 2.112-1.169 4.808 1.536 5.59 2.505.784 2.127 4.087-.376 3.703-.901-.194-1.698.21-1.695.81.01 1.4 3.309 1.28 4.8-.23 1.688-1.711 1.445-8.41-.467-10.197-1.913-1.988-1.713-1.99-3.798.324m3.024 3.68c-.492 1.304-.99 1.407-1.796.612-.604-.596-.812-1.795-.418-2.797.491-1.303.99-1.407 1.796-.612.604.596.812 1.795.418 2.798M510.458 508.494c-.695.704-1.19 1.607-1.185 2.207.003.6.503.497 1.198-.207 2.087-2.114 2.592-1.317 2.621 3.283.03 4.6-.465 5.403-2.578 3.316-1.41-1.39-1.6.01-.287 2.102.506.797 1.607 1.09 2.905.682 1.696-.611 2.09-1.514 1.963-5.713-.023-3.6-.434-5.198-1.738-5.89-1.204-.591-2.203-.485-2.899.22M530.655 507.963c-2.49 1.616-3.268 4.921-2.244 8.615 1.638 5.89 6.928 4.355 6.887-2.045-.023-3.6-2.95-7.78-4.643-6.57m2.64 6.183c.014 2.1-.373 4.103-.87 4.506-1.296.708-3.22-2.88-2.632-4.883.294-.902.685-2.305.98-3.207.882-2.705 2.496-.416 2.522 3.584M539.16 508.708c-1.587 2.01-1.945 8.413-.634 10.105 1.109 1.392 4.711 1.77 4.903.468.665-5.405.239-9.402-1.27-10.692-1.408-1.391-1.808-1.389-2.999.12m3.12 2.98c.01 1.6-1.588 1.91-2.498.416-.808-1.295.38-3.202 1.584-2.51.503.397.908 1.294.914 2.094m.242 6.599c-.894.905-1.494.91-2.3.115-.704-.696-.912-1.995-.518-2.897.59-1.604.79-1.605 2.3-.115 1.308 1.292 1.512 1.89.518 2.897M499.764 509.363c.303.498 1.306.991 2.206.985 1.1-.007 1.303.492.811 1.695-1.38 3.21-1.746 8.312-.546 8.304.6-.004 1.09-1.507 1.078-3.407s.475-3.803.973-4.107c.598-.303.99-1.506.983-2.606-.01-1.5-.712-1.895-3.112-1.88-1.7.011-2.797.418-2.393 1.016M547.665 509.453c-.295.702-.378 3.303-.163 5.701.325 3.898.628 4.396 2.828 4.382s2.597-.516 2.975-4.019c.285-2.202.169-4.801-.238-5.799-1.013-1.993-4.615-2.27-5.402-.265m4.133 5.074c.014 2.2-.474 4.003-1.173 4.207-.898.306-1.306-.891-1.327-4.191s.371-4.503 1.272-4.308c.702.295 1.214 2.092 1.228 4.292M557.172 510.392c-.691 1.404-.875 4.006-.461 6.103.62 3.196 1.023 3.593 3.421 3.278s2.695-.817 2.97-4.62c.458-6.602-3.663-9.876-5.93-4.761m4.127 4.173c.038 5.9-2.365 5.516-2.803-.382-.221-3.298-.027-4.2 1.173-4.207 1.2-.008 1.607 1.09 1.63 4.59M567.96 508.622c-.398.303-.68 3.005-.66 6.005.033 5.2.033 5.3 3.033 5.28 2.9-.019 3-.12 2.97-4.82-.031-4.699-1.247-7.191-3.547-7.176-.7.004-1.498.31-1.796.711m3.618 2.777c.104.5-.593 1.104-1.491 1.31-1.099.207-1.802-.289-1.809-1.289-.01-1.7 2.989-1.82 3.3-.021m.127 4.1c.813 1.994-.078 3.4-1.978 3.412-.8.005-1.405-.79-1.412-1.79-.021-3.3 2.272-4.416 3.39-1.623M519.802 515.233c.303.498 1.506.99 2.506.984s2.197-.514 2.494-1.016c.396-.603-.707-.995-2.506-.984-1.8.012-2.898.419-2.494 1.016M596.626 518.737c.02 3 .228 4.299.418 2.698.19-1.502.174-3.902-.036-5.5-.21-1.499-.401-.198-.382 2.802M519.052 522.938c-.396.603-.593 16.605-.371 35.503.222 18.9.326 35 .232 35.9.006.9-1.187 2.107-2.683 2.717-2.89 1.419-5.752 7.437-4.833 10.332 1.02 3.193 5.513 2.064 8.187-2.053 2.278-3.415 2.275-3.815 1.99-32.514-.41-32.398-1.334-51.692-2.522-49.885m.792 76.197c.009 1.4-.489 1.803-1.991 1.413-2.304-.585-2.612-1.883-.717-2.596 2.194-.914 2.696-.717 2.708 1.183m-1.977 3.613c.005.8-.39 1.502-.99 1.506-.5.003-1.005-.693-1.01-1.493s.49-1.504.99-1.507c.6-.004 1.005.694 1.01 1.494m-2.366 5.215c-1.093 1.107-2.607-.983-2.623-3.483-.017-2.7-.017-2.7 1.501.19.91 1.594 1.32 3.092 1.122 3.293M596.44 536.439c.027 4.1.335 5.398 1.028 4.293 1.287-2.008 1.244-8.708-.061-9.5-.603-.396-.99 1.607-.966 5.207M377.62 565.053c.189 29.099.095 30-1.802 30.612-1.098.307-1.99 1.513-1.983 2.513s-1.183 2.707-2.576 3.716c-2.29 1.715-2.486 2.316-1.474 4.11 1.316 2.492 1.766 10.189.703 15.896-.677 3.604-.473 4.203 1.534 5.29 1.906.988 2.111 1.786 1.73 4.789-.577 3.404-.477 3.503.812 1.795.793-1.105 1.482-2.81 1.476-3.81s.688-1.804 1.488-1.81c1.9-.012 4.467-5.128 4.443-8.828-.01-1.6.678-3.505 1.473-4.21.796-.705 1.489-1.81 1.485-2.41-.005-.7 1.085-2.307 2.476-3.616 2.485-2.316 2.485-2.316 5-.032 3.019 2.88 3.343 6.579.549 7.497-2.894.918-4.175 3.927-3.056 6.82 1.016 2.593 6.95 7.655 9.05 7.641 2.1-.013 2.419 2.985.528 4.497q-1.79 1.362-.59 1.504c.7-.005 2.392-1.216 3.782-2.725s3.779-3.324 5.174-4.033c2.593-1.217 2.593-1.217-.904-.694-3.996.625-9.11-1.442-12.131-4.822-2.518-2.784-2.229-4.386 1.06-6.207 1.594-.81 3.184-2.42 3.577-3.523.882-2.806-2.648-7.383-8.168-10.548-2.41-1.384-4.421-3.171-4.426-3.971s-1.616-2.39-3.523-3.578l-3.515-2.277-.193-29.8c-.123-19.099-.591-29.696-1.191-29.692s-.932 10.606-.807 29.906m3.71 32.276c2.506 1.084 3.417 2.778 1.417 2.791-1.7.011-4.912-1.968-4.919-2.968-.008-1.3.392-1.203 3.501.177m.043 6.8c-.39 1.403-1.082 2.707-1.582 2.81-.498.204-.695.805-.291 1.302.808 1.295-1.193 1.108-5.103-.467-1.906-.787-3.515-2.177-3.52-2.977-.013-2.1.587-2.004 4.103.473 3.316 2.38 4.01 1.575.794-1.005-1.81-1.488-2.014-2.087-1.025-3.893 1.186-2.208 1.286-2.209 4.196-.527 2.51 1.484 2.915 2.18 2.428 4.284m2.914 2.181c-.297.402.205.799 1.105.793s1.303.392 1.007.994c-1.286 2.108-3.094.92-3.315-2.279-.115-2.3.082-2.8.69-1.704.504.796.71 1.795.513 2.196m4.086-2.226c.303.498.206.999-.393 1.002-.5.004-1.304-.491-1.607-.99-.304-.597-.206-.998.394-1.002.5-.003 1.302.392 1.606.99m9.562 9.538c.008 1.3-.483 2.604-1.18 3.008-.698.505-.9.006-.61-1.396.293-1.102-.322-3.498-1.435-5.39-2.02-3.288-2.02-3.288.595-.905 1.409 1.391 2.622 3.483 2.63 4.683m-20.226-3.87c2.305.686 2.713 1.983 1.229 4.393-.692 1.205-1.192 1.208-3.4.022-1.405-.69-2.614-2.183-2.62-3.183-.013-1.9.985-2.207 4.791-1.231m4.33 4.673c-1.688 1.711-2.399.116-1.015-2.493 1.186-2.108 1.386-2.11 1.697-.411.206.998-.085 2.3-.681 2.904m-3.784 2.325c2.205.785 2.449 7.584.36 9.397-2.586 2.117-6.094.84-6.415-2.358-.423-3.498 1.642-8.911 3.148-8.12.602.295 1.905.787 2.907 1.08m14.712 1.805c.002.3-.197.5-.497.503-.3.002-.501-.197-.503-.497s.196-.501.496-.503.502.197.504.497M596.546 552.739c.017 2.7.532 4.996 1.032 4.993.6-.004.985-2.306.968-5.006-.018-2.8-.433-4.998-1.032-4.994-.5.003-.986 2.207-.968 5.007M596.656 569.738c.02 3.3.438 5.997 1.038 5.994s.983-2.707.962-6.007-.44-5.997-1.04-5.993-.982 2.706-.96 6.006M596.762 586.238c.016 2.5.53 4.497 1.03 4.493.6-.004.986-2.006.97-4.506s-.429-4.497-1.029-4.494c-.5.004-.987 2.007-.97 4.507M596.876 603.837c.02 3.1.43 4.798 1.028 4.394.598-.304.983-2.606.967-5.106-.015-2.4-.428-4.398-1.028-4.394-.5.003-.985 2.307-.967 5.106M524.3 607.706c1.104.793 2.709 1.483 3.509 1.478 1.1-.008.997-.407-.51-1.497-1.005-.794-2.609-1.383-3.409-1.378-1.1.007-.998.306.41 1.397M531.92 610.957c.004.5 1.71 1.59 3.816 2.475 3.711 1.677 3.711 1.677.695-.804-3.116-2.58-4.52-3.07-4.51-1.67M595.936 613.144c.004.7-.884 2.505-2.074 4.013-1.091 1.407-1.583 2.61-.983 2.607 1.1-.007 5.063-5.733 5.052-7.333-.002-.4-.404-.698-1.004-.694-.5.004-.996.607-.991 1.407M554.261 617.213c-1.993 1.013-5.259 6.334-5.245 8.534.004.5 1.82 3.188 4.04 6.174 2.219 2.886 4.038 5.874 4.043 6.574s3.52 2.977 7.733 5.05c5.618 2.864 7.93 4.55 8.44 6.346.41 1.397 2.043 6.487 3.475 11.478 1.532 4.89 3.474 11.477 4.293 14.472 1.739 5.89 3.987 13.375 7.359 24.453 1.124 3.793 2.76 9.483 3.68 12.477.82 2.994 1.939 5.987 2.343 6.685 1.111 1.693 83.219 2.562 83.208.962-.005-.9-9.107-1.14-34.207-1.079-43.9.084-46.5.1-47.407-.894-.403-.397-1.623-3.59-2.545-6.983-.922-3.394-4.602-15.67-8.076-27.149-10.627-35.232-10.732-35.931-11.186-44.228-.01-1.7-.62-3.196-1.12-3.193-.7.004-.791 1.405-.376 3.702.624 3.796.624 3.796-3.908-1.175-2.618-2.783-4.635-5.47-4.739-5.969-.012-1.9 3.952-7.526 5.452-7.535 2.3-.015 1.81 1.488-.98 3.006-2.392 1.315-3.468 5.022-1.468 5.01.6-.004.994-.907.987-2.007s.487-2.003.987-2.006c.6-.004 1.003.493 1.007 1.093.01 1.5 4.13 4.774 6.031 4.861.9-.005.394-.902-1.415-2.29-2.412-1.985-2.717-2.683-1.827-4.289.988-1.806 1.089-1.707 2.105.787 1.22 3.192 2.322 3.485 4.108 1.273.992-1.306.988-1.906-.522-3.497-1.008-1.093-2.713-1.982-3.713-1.976-1.1.007-2.706-.882-3.613-1.876-1.711-1.79-12.752-8.118-14.05-7.91-.4.003-1.698.511-2.894 1.119m2.715 2.282c.005.8-.69 1.505-1.49 1.51-1.4.01-1.398.31.015 2.3.808 1.295 2.618 2.883 4.022 3.474 3.01 1.38 3.301.179.49-1.603-2.008-1.187-2.84-6.182-1.04-6.193 2.4-.016 9.023 3.541 9.031 4.841.012 1.8-5.454 7.136-7.354 7.148-.8.005-1.705-.789-1.911-1.788-.306-.898-.502-.196-.59 1.504.011 1.8-.28 3.302-.58 3.304-1.6.01-6.443-6.759-6.357-8.96.085-2.3.084-2.4.498-.302.308 1.298 1.215 2.292 2.115 2.286 1.3-.008 1.398-.21.394-.803-.703-.495-1.01-1.593-.616-2.496.394-1.002.09-1.7-.61-1.696-.9.006-.705-.695.486-2.003 2.185-2.414 3.484-2.622 3.497-.523m21.061 9.365c.003.5-.394 1.002-.994 1.006-.5.003-1.003-.493-1.006-.993-.004-.6.494-1.004.994-1.007.6-.004 1.002.394 1.006.994m-14.052 7.49c1.825 3.789.037 5.7-2.88 3.12-2.011-1.788-2.629-4.484-1.338-5.892 1.193-1.108 2.7-.118 4.218 2.773m5.637 5.664c1.01 1.494-.085 2.3-1.99 1.513-.902-.294-1.307-.991-1.01-1.593.79-1.305 2.19-1.315 3 .08M544.57 618.576c1.005.793 2.609 1.383 3.409 1.378 1.1-.008.998-.307-.41-1.398-1.104-.793-2.709-1.482-3.509-1.477-1.1.007-.997.406.51 1.497M583.505 623.924c-1.593 1.01-2.387 1.916-1.687 1.911 1.5-.01 7.181-2.846 7.177-3.546-.007-1-2.602-.283-5.49 1.635M371.707 640.392c-.291 1.302-.58 3.004-.576 3.704.015 2.3 1.6-.01 2.38-3.215s-.925-3.694-1.804-.489"/><path d="M582.1 638.634c.007 1 5.023 3.467 5.718 2.763.299-.202-.908-1.194-2.613-2.083-1.705-.79-3.108-1.18-3.105-.68M233.517 642.385c-.195.701-.261 6.002-.124 11.8l.368 10.399 43.499-.281 43.499-.281-.075-11.5-.074-11.5-43.3-.02c-35.201.027-43.3.28-43.793 1.383m84.466 9.854-.23 10.802-8.7.056c-4.9.032-23.201-.05-40.802-.036l-32 .007-.068-10.5-.068-10.5 41-.265 41.098-.265z"/><path d="M242.936 645.224c-.785 2.405.747 7.295 2.247 7.286 1.8-.012 2.621 3.283 1.13 4.792-.893.906-1.394.81-2-.187-.505-.696-1.106-.893-1.403-.39-.89 1.505.923 3.493 2.82 3.081 3.596-.623 3.537-9.823-.063-9.8-2.2.015-1.82-3.088.476-3.703 1.098-.307 1.994-.913 1.99-1.413-.008-1.4-4.706-1.07-5.197.334M275.64 645.813c-2.184 2.414-1.624 11.81.787 13.395 2.007 1.187 3.202.28 4.18-3.127.489-1.703-.02-2.9-1.831-4.788-2.617-2.584-3.436-5.478-1.636-5.49.6-.004 1.003.394 1.007.994.003.5.506.996 1.006.993 1.5-.01 1.183-2.708-.421-3.297-.802-.295-2.198.314-3.092 1.32m3.058 8.98c.009 1.3-.584 2.504-1.182 2.708-.898.306-1.304-.592-1.318-2.692-.013-2.1.38-3.002 1.282-2.808.602.296 1.21 1.492 1.218 2.792M284.932 644.453c-.297.502-.474 4.103-.549 8.003-.253 7.202-.153 7.302 2.247 7.286 2.7-.017 5.574-4.136 5.55-7.736-.027-4.3-5.967-10.362-7.248-7.553m4.016 2.474c2.415 2.384.782 12.795-1.827 11.312-1.105-.693-1.281-12.492-.181-12.5.4-.002 1.303.492 2.008 1.188M255.183 652.445c.04 6.2.348 7.498 1.648 7.49 1.1-.008 1.397-.51.99-1.607-.306-.898-.627-4.196-.649-7.496-.021-3.3-.438-5.897-1.038-5.893s-.98 3.206-.951 7.506M297.682 652.17c.035 5.4.448 7.498 1.348 7.492s1.09-1.607.76-6.305c-.223-3.399-.545-6.797-.549-7.497-.104-.599-.408-1.197-.808-1.194-.5.003-.778 3.405-.751 7.505M265.484 652.579c.9.194 2.5.183 3.5-.023.898-.306.096-.5-1.804-.488s-2.698.217-1.696.51M594.146 645.756c2.312 1.785 5.017 2.568 5.01 1.468-.004-.6-5.622-3.464-6.722-3.457-.4.003.305.898 1.712 1.989M369.383 652.108c-1.37 4.609-1.467 5.11-.367 5.102.5-.003 1.287-2.008 1.87-4.512 1.265-5.508.062-6-1.503-.59M605.185 651.685c2.312 1.785 5.017 2.567 5.01 1.567-.003-.5-6.023-3.56-6.923-3.555-.3.002.506.897 1.913 1.988M614.808 655.223c-3.279 3.321-1.667 5.11 10.274 11.434 3.914 2.074 6.225 3.86 6.232 4.96.014 2.1 5.038 5.867 7.738 5.85 2.4-.016 4.485-2.33 6.256-6.84 1.18-3.209 1.18-3.209 16.58-3.308 22.099-.143 20.687-1.934-1.816-2.288-19.102-.277-24.907-1.04-29.526-4.01-2.812-1.882-13.248-7.414-13.848-7.41-.2 0-1.096.707-1.89 1.612m3.409 1.378c.003.5.706.995 1.606.99s1.405.69 1.211 1.692c-.483 2.503-2.782 2.818-2.797.418-.008-1.2-.414-2.098-1.014-2.094-.5.003-.996.507-.992 1.107.003.5-.395.802-.998.406-1.305-.792-.122-3.5 1.578-3.51.8-.005 1.402.39 1.406.99m7.022 3.354c.01 1.6-1.377 3.61-2.577 3.617-1.4.01-1.914-2.187-.721-3.295.695-.805 3.293-1.021 3.298-.322m4.013 1.975c.01 1.6-1.377 3.609-2.577 3.616-1.4.01-1.914-2.187-.721-3.295.694-.805 3.293-1.021 3.298-.321m3.019 2.98c.01 1.6-1.78 3.112-2.686 2.218-.805-.795.477-3.604 1.677-3.611.5-.004 1.004.593 1.009 1.393m5.51 1.565c.808 1.194-1.568 5.01-3.168 5.02-1.4.01-1.712-1.889-.728-4.395.688-1.805 2.986-2.12 3.896-.625m6.317 2.659c.208 1.099-.778 3.305-2.068 4.913-2.084 2.414-2.683 2.618-4.09 1.527-1.408-1.191-1.41-1.591.07-4.5 2.569-5.017 5.463-5.936 6.088-1.94m-8.772 4.357c.004.5-.193 1-.393 1.002-.3.002-.803-.495-1.107-.993-.303-.598-.106-.999.394-1.002.6-.004 1.103.393 1.106.993"/><path d="M680.735 659.197c-.685 2.305 1.032 4.994 3.232 4.98.8-.006 1.305.69 1.111 1.692-.292 1.202-1.189 1.708-2.59 1.617-1.4-.191-2.099.114-1.695.71.91 1.395 4.208 1.274 5.099-.232 1.088-1.807 1.254-7.108.141-9.101-1.215-2.292-4.514-2.171-5.298.334m4.117 2.574c-.492 1.303-.991 1.406-1.796.611-.604-.596-.812-1.795-.418-2.797.491-1.303.99-1.407 1.796-.612.604.596.811 1.795.418 2.798M690.926 657.731c-1.49 1.61-.664 5.605 1.34 6.092 1.101.293 2.008 1.387 2.015 2.487.01 1.5-.488 1.803-1.991 1.313-1.203-.393-2.002-.187-1.997.513.004.6 1.206.992 2.805.781 2.598-.316 2.697-.517 2.663-5.817-.031-4.8-.336-5.498-2.038-5.787-1.201-.192-2.4.016-2.797.418m3.318 2.879c.017 2.6-1.378 3.309-2.49 1.516-.909-1.394.074-4 1.474-4.01.5-.003 1.007 1.094 1.016 2.494M700.128 658.072c-.476 3.703-.55 7.804-.14 9.2.513 2.098 3.615 2.378 5.103.468 1.09-1.407.95-7.606-.162-9.5-1.009-1.393-4.61-1.57-4.8-.168m3.62 2.977c-.495.803-1.095.807-1.7.21-.603-.596-.71-1.595-.313-2.198.494-.803 1.094-.807 1.698-.21.604.596.71 1.595.314 2.198m.136 5.599c-.492 1.303-.991 1.406-1.796.611-.604-.596-.812-1.794-.419-2.797.492-1.303.991-1.406 1.797-.612.603.597.811 1.795.418 2.798M709.43 658.212c-2.783 2.818-.431 10.803 3.169 10.78 1.8-.012 2.686-2.118 2.661-6.018-.036-5.6-2.75-7.882-5.83-4.762m3.83 4.875c.019 2.8-.374 3.903-1.474 3.91s-1.507-1.09-1.524-3.79c-.014-2.1.272-4.202.57-4.504 1.392-1.31 2.404.584 2.429 4.384M721.025 657.537c-.79 1.505.474 11.397 1.374 11.391 1.1-.007 1.142-9.007-.07-10.9-.505-.696-1.006-.893-1.304-.491M738.233 658.726c-2.173 4.114-.335 10.102 2.965 10.08 2.1-.013 3.088-1.92 3.062-6.02-.01-1.599-.323-3.497-.629-4.395-.814-2.195-4.113-1.974-5.398.335m3.828 4.275c-.185 2.401-.672 4.305-1.272 4.308-.5.004-1.113-1.892-1.328-4.291-.321-3.298-.027-4.2 1.273-4.208s1.606.89 1.327 4.191M747.728 657.964c-.195.702-.278 3.302-.162 5.802.224 3.698.63 4.596 2.33 4.785 2.903.38 4.787-2.131 3.471-4.623-.708-1.295-.714-2.195.08-3 .796-.806.791-1.506-.217-2.7-1.511-1.79-4.913-1.967-5.502-.264m3.72 2.976c-.894.906-1.494.91-2.4.016-1.007-.994-1.01-1.494.186-2.201.896-.606 1.896-.513 2.4-.016.704.696.609 1.396-.186 2.201m.425 3.898c1.01 1.693-1.277 3.608-2.686 2.217-1.208-1.192-.421-3.297 1.079-3.307.5-.003 1.203.492 1.607 1.09M759.44 659.789c-2.77 4.518-2.755 6.918-.155 6.901 1.1-.007 2.003.487 2.008 1.187.005.8.305.798.901.194.597-.504.679-3.304.259-6.402l-.736-5.495zm1.429 4.39c-.294.903-1.092 1.308-1.594 1.011-.803-.495-.707-1.095.087-2.1 1.388-1.81 2.393-1.116 1.507 1.09M767.428 657.837c-1.39 1.41-1.55 7.61-.238 9.602 1.314 2.192 4.506.97 5.486-2.136 1.867-5.212-2.069-10.686-5.248-7.466m3.333 5.079c.034 5.2-1.867 5.112-2.301-.185-.221-3.199-.027-4.2.974-3.907.802.295 1.313 1.992 1.327 4.092M777.525 657.272c-.798.305-1.284 2.508-1.262 5.908.034 5.3.135 5.4 2.935 5.381 3.5-.022 3.992-1.125 3.154-7.02-.628-4.396-1.936-5.588-4.827-4.269m3.537 5.777c.02 3.2-.37 4.503-1.37 4.51s-1.41-1.292-1.43-4.492c-.02-3.1.371-4.502 1.271-4.508 1-.006 1.409 1.391 1.529 4.49M367.247 662.122c-1.184 2.407-1.349 7.908-.058 6.5.895-.906 2.246-8.415 1.546-8.41-.2.001-.894.906-1.488 1.91M431.444 661.407c-1.493 1.11-2.184 2.514-2.168 5.014.015 2.3-1.067 5.007-3.445 8.423-3.567 5.123-4.438 9.628-2.224 11.814.604.596 1.331 4.792 1.56 9.39.786 13.195 1.491 13.99 20.369 25.97l9.137 5.74.242 37.4c.157 24.3.642 37.496 1.242 37.492s.917-12.806.764-36.505c-.13-20.1-.036-36.5.364-36.503.3-.002 4.816 2.468 10.136 5.434 5.32 3.066 10.234 5.334 10.932 5.03 1.496-.61 10.921 3.23 10.127 4.034-.3.202-2.404-.484-4.711-1.67-2.308-1.184-4.412-1.87-4.611-1.67-.498.404 17.06 9.19 26.887 13.427 4.713 1.97 4.913 1.968 8.002.248 3.886-2.225 5.765-5.437 5.736-9.937-.029-4.4.86-6.305 3.059-6.32 1.3-.008 1.895-.712 1.885-2.412-.01-1.4.481-2.803.98-3.106.598-.304 1-.007 1.005.793s.718 2.896 1.63 4.69c2.126 4.086 3.05 7.88 5.032 20.468 1.773 11.189 6.058 24.461 10.306 31.834 1.517 2.59 6.757 8.756 11.588 13.525 4.93 4.769 8.959 9.143 8.963 9.743s1.216 2.492 2.727 4.282c1.612 1.79 2.83 4.482 2.841 6.282.111 1.7.32 18.498.54 37.297.244 22.1.822 34.296 1.422 34.292s.914-13.306.756-37.906l-.246-38 4.302.273c2.301.185 6.707 1.057 9.713 2.037 6.614 2.058 16.911 1.591 22.095-.942 4.186-2.127 9.654-7.063 12.128-11.079 1.782-2.811 1.782-2.811 4.495-.929 1.506.99 4.417 2.672 6.523 3.658 2.107 1.086 9.134 5.141 15.558 8.9l11.745 6.924.402 15.798c.16 9.299.701 15.696 1.301 15.692 1.2-.008 1.207-29.909-.004-31.6-.707-1.096-10.947-7.33-20.28-12.47-2.51-1.384-7.427-4.152-10.941-6.23-6.324-3.659-6.324-3.659-5.548-7.364.387-2.003.75-7.805.817-12.906.055-6.9.437-9.703 1.63-10.81 1.391-1.41 1.493-1.11 1.122 3.293-.471 4.503-.268 5.001 2.24 6.285 2.208 1.186 3.008 1.18 4.7.07 1.694-1.111 2.194-1.014 2.901.081.505.697.91 1.594.913 1.894.001.3 1.107 1.093 2.51 1.684 2.107.987 3.206.88 5.498-.335 1.795-.912 2.687-2.118 2.382-2.916-.306-.798.387-1.902 1.583-2.61 1.993-1.013 2.089-1.714 1.462-5.81-.628-4.396-3.759-9.176-5.859-9.162-.5.003-2.105-.786-3.512-1.877-4.42-3.072-6.621-3.258-9.207-1.041-1.293 1.108-2.887 2.019-3.587 2.023-3.8.025-12.295 16.38-13.632 26.089-.764 5.505-4.025 11.626-7.707 14.35-3.384 2.522-11.277 3.673-18.083 2.717-4.005-.674-5.71-1.563-7.927-4.05-1.511-1.79-2.823-3.581-2.825-3.981-.01-1.5-6.025-3.761-9.725-3.737-3.4.022-4.604-.67-9.94-6.236-7.448-7.452-9.568-10.539-12.214-17.622-3.561-9.477-4.28-12.272-5.439-21.465-1.688-13.59-4.444-22.372-10.01-32.436-2.731-4.883-9.998-15.236-13.019-18.416-1.007-1.094-2.32-3.086-2.929-4.482-5.985-13.161-10.03-20.235-12.945-22.416-2.01-1.488-3.624-3.777-4.035-5.475-.416-2.397-1.12-2.992-3.02-2.98-1.4.009-2.697.417-3.094.92-.989 1.706-8.72-3.144-9.74-6.137-1.118-2.893-4.423-3.672-6.51-1.558-.894.905-2.294.915-5.499.135-5.809-1.362-18.416-2.38-14.508-1.206 1.503.49 5.608 1.264 9.11 1.541 9.106.941 9.71 1.537 6.04 6.161-1.686 2.111-3.775 3.925-4.673 4.13-.9.206-7.416-2.452-14.439-5.906-9.129-4.442-12.14-6.322-10.542-6.532 3.896-.626 1.286-2.209-3.614-2.177-2.7.017-5.696.737-6.99 1.645m13.531 4.813c5.417 2.465 10.633 4.931 11.636 5.525 1.004.493 4.115 2.173 7.025 3.754 17.761 9.486 38.947 22.65 45.082 28.01 5.23 4.566 6.155 8.56 6.078 27.661.037 21.1-1.334 25.61-6.957 22.146-1.606-.99-1.507-1.09 1.481-2.91 1.893-1.112 1.893-1.212-.203-.599-2.296.615-2.296.615-1.802-15.688.406-14.603.292-16.703-1.428-19.792-2.327-4.285-14.183-12.808-15.37-10.9-.495.803-.995.806-1.399.208-.304-.598-.108-1.199.491-1.403.998-.306-9.044-6.742-21.689-13.66-6.022-3.361-24.38-12.343-30.095-14.706-4.412-1.872-7.534-5.251-7.553-8.151-.007-1.1 2.975-3.92 3.975-3.926.5-.003 5.312 1.966 10.728 4.43m36.31 1.365c.003.5-.894.906-1.994.913-1.9.012-2.607-1.083-1.415-2.29.795-.806 3.402.277 3.41 1.377m-4.983 2.632c.006 1-1.085 2.308-2.48 3.017-2.992 1.319-3.094 1.02-.715-2.196 1.981-2.913 3.18-3.22 3.195-.82m10.606.832c1.905.888 3.414 2.278 3.419 2.978.015 2.3-4.246 8.328-6.342 9.041-2.195.714-13.628-4.312-13.638-5.912-.006-.9 11.251-7.573 12.75-7.682.2-.002 1.905.687 3.81 1.575m-53.084 2.743c.304.598-.493 1.003-1.793 1.011-2.8.019-3.69 1.624-3.66 6.324.012 1.8-.474 3.903-.97 4.707-1.088 1.807-1.43-4.791-.463-9.898.483-2.603 1.08-3.107 3.48-3.122 1.5-.01 3.102.38 3.406.978m62.512 1.596c.803.495 1.107 1.193.81 1.595-.994.906-3.802-.275-3.81-1.575-.008-1.2.991-1.307 3-.02m-47.153 7.405c7.021 3.355 13.945 6.91 15.45 7.9 2.713 1.883 6.018 2.661 4.307.972-.603-.496-5.219-2.966-10.336-5.533-5.216-2.566-9.131-4.841-8.933-5.142.895-.806 20.765 10.066 20.373 11.168-.296.702 3.12 3.28 7.537 5.852 7.529 4.351 11.65 7.725 7.34 6.053-1.004-.494-2.807-.982-3.909-1.275-2.903-.582 9.534 5.138 12.94 6.016 1.602.39 4.213 2.073 5.824 3.763 2.82 2.982 2.82 2.982 2.918 18.281.077 11.9-.2 15.402-1.298 15.809-1.297.508-17.742-6.486-23.966-10.145-3.514-2.178-6.217-2.56-5.106-.867.406.797.006.8-1.5.01-2.408-1.285-2.814-2.283-.61-1.497 3.108 1.18 1.297-.508-3.219-2.98-2.61-1.482-5.315-2.365-6.013-2.06-.799.205-1.1.107-.803-.495.297-.502-1.614-2.09-4.223-3.573-10.338-5.833-22.092-14.158-23.91-16.946-1.514-2.09-2.033-5.087-2.385-13.085-.236-5.598-.18-12.299.205-14.801.57-4.504.77-4.606 3.574-4.024 1.602.29 8.72 3.244 15.743 6.599m-7.84-6.05c.804.495 1.107.993.507.997-.5.003-1.703-.489-2.507-.984-.803-.495-1.006-.993-.506-.996.6-.004 1.703.489 2.506.983m52.02 2.765c.006 1-3.98 3.325-4.584 2.63-.301-.199.09-1.601.68-3.105.887-2.006 1.485-2.31 2.59-1.517.704.595 1.31 1.492 1.313 1.992m-45.5.193c.303.498.206.999-.394 1.003-.5.003-1.303-.492-1.606-.99-.304-.598-.207-.998.393-1.002.5-.004 1.303.391 1.607.99m57.022 3.232c4.538 5.871 10.638 21.332 12.302 31.321 1.765 10.09 1.778 11.99.478 11.998-.5.003-1.016-2.394-1.035-5.294-.04-6.4-1.679-12.29-4.403-16.072-1.11-1.593-5.935-5.262-10.654-8.331-14.56-9.206-15.163-9.602-15.17-10.602-.008-1.4 11.053-7.372 13.455-7.187 1-.007 3.312 1.978 5.027 4.167m-77.76 6.602c-.397.303-.7.005-.704-.695s.294-1.002.696-.705c.302.399.306.999.009 1.4m.961 9.394c.327 4.098 1.247 7.193 2.66 9.083 2.421 3.385 1.93 4.688-.69 1.805-1.913-2.088-3.452-8.178-3.592-14.377-.039-6 1.077-3.607 1.622 3.49m46.37-4.9c.002.3-.197.502-.497.504s-.501-.197-.503-.497.196-.5.496-.503c.3-.002.502.197.504.497m5.019 2.969c.002.3-.197.5-.497.503-.3.002-.501-.197-.503-.497s.197-.501.497-.503.501.197.503.497m4.516 2.47c.303.498.406.998.106 1s-.803-.495-1.106-.993c-.304-.598-.406-.997-.106-1 .3-.001.802.395 1.106.993m9.039 5.942c.303.498.406.998.106 1-.3.001-.803-.495-1.106-.993-.304-.598-.407-.998-.107-1s.803.395 1.107.993m34.396 14.778c7.176 11.754 10.736 21.131 11.903 31.424 1.062 9.694 1.784 13.089 4.332 20.473 3.977 11.874 7.214 17.553 13.554 23.713 3.22 3.079 5.938 5.861 5.94 6.161-.099.301-.692 1.305-1.485 2.41-1.288 1.808-1.589 1.71-5.61-1.664-4.727-3.97-11.683-12.725-13.208-16.615-4.27-10.673-6.008-16.661-7.57-26.352-2.09-13.686-4.23-20.073-11.219-33.728-3.747-7.376-5.477-11.865-5.493-14.465l-.025-3.8 2.52 2.984c1.31 1.592 4.238 5.873 6.36 9.46m-24.855-8.34c.002.3-.196.502-.496.504s-.502-.197-.504-.497.197-.501.497-.503.501.197.503.497m2.02 2.988c.002.3-.197.501-.497.503s-.501-.197-.503-.497.196-.501.496-.503.502.197.504.497m1.324 19.192-.83 10.805-.194-14.499c-.074-11.4.111-13.7.93-10.806.616 2.496.748 7.495.094 14.5m16.243-8.805c2.025 3.887 1.93 4.687-.484 2.503-1.106-.993-2.016-2.587-2.024-3.687-.016-2.6.686-2.205 2.508 1.184m-2.478 3.416c.002.3-.395.802-.993 1.106-.498.303-1 .106-1.002-.394-.004-.6.493-1.103.993-1.106.6-.004 1 .194 1.002.394m3.017 2.58c.003.5-.694 1.005-1.494 1.01s-1.503-.49-1.506-.99c-.004-.6.693-1.005 1.493-1.01s1.503.39 1.507.99m-4.493 1.13c1.111 1.692-.086 2.1-1.497.409-.806-.895-.81-1.495-.21-1.499s1.403.491 1.707 1.09m4.13 4.573c-1.093 1.107-1.904-.588-1.116-2.393.79-1.705.79-1.705 1.2-.008.307.998.214 2.099-.084 2.4m-46.097.597c.303.598-.096.7-.898.406-1.804-.688-2.109-1.386-.709-1.395.6-.004 1.303.391 1.607.99m42.499-.274c.003.5-.694 1.004-1.594 1.01-.8.005-1.203-.492-.906-.994.296-.602.993-1.006 1.593-1.01.5-.004.903.394.907.994m-.55 7.704c-.287 2.101-1.073 4.207-1.67 4.81-.595.704-.798.206-.31-1.498.292-1.401.578-3.503.57-4.803-.008-1.2.486-2.204.986-2.207.7-.004.809 1.395.423 3.698m-21.488 2.038c3.41 1.378 4.71 1.47 6.204.56 1.693-1.11 1.894-.912 1.908 1.288.01 1.4-.584 2.504-1.184 2.508-1.8.011-13.837-5.711-13.842-6.511-.002-.3.597-.404 1.3-.108.601.296 3.208 1.279 5.614 2.263m145.36 24.162c5.317 2.766 5.721 3.363 3.433 5.278-1.093 1.007-2.496.616-7.012-1.955-5.521-3.164-6.529-4.358-4.235-5.272 2.095-.914 2.795-.818 7.813 1.95m-2.768 5.018c2.209 1.386 3.72 3.076 3.727 4.276.017 2.6-1.584 2.51-3.801-.175-.908-1.194-3.022-3.38-4.732-4.97-3.522-3.377-1.42-2.99 4.806.87m-10.309-1.233c.002.2-.695.704-1.593 1.01-.798.305-1.199.208-.903-.394.594-1.004 2.491-1.416 2.496-.616m6.014 2.06c.806.896.81 1.496.21 1.5-1.8.011-4.208-1.173-4.214-2.073-.009-1.4 2.593-1.017 4.004.574m14.01 1.51c.007 1.1.419 2.898 1.025 3.894.81 1.495.414 2.197-2.574 4.017-4.183 2.727-5.187 2.033-3.615-2.277.688-1.905 1.174-4.108 1.168-4.908-.01-1.5 1.184-2.507 3.283-2.721.4-.103.705.796.713 1.995m-17.494 1.013c.404.598.211 1.7-.384 2.403-.596.704-.79 1.605-.388 1.903.302.398.104.699-.496.703s-1.403-.491-1.706-.99c-.304-.597-.207-.998.293-1.001.6-.004.795-.905.488-2.003-.614-2.096 1.081-2.807 2.193-1.015m4.92 3.069c-.297.502-1.294.908-2.195.814-1.1.007-1.201-.192-.404-.597.599-.204.994-.907.691-1.405-.403-.497.096-.6.898-.306.902.294 1.307.992 1.01 1.494m4.315 2.372c.306.898.312 1.798.114 2.1-.894.905-3.805-.776-3.814-2.176-.013-1.9 2.888-1.819 3.7.076m-8.687 2.056c1.41 1.591 1.012 1.794-1.394.91-.902-.295-1.606-.99-1.61-1.49-.008-1.4 1.593-1.11 3.004.58m2.695-.817a1.2 1.2 0 0 1-1.4.009c-.302-.398-.004-.7.696-.705.7-.004 1.002.294.704.696m-11.694.875c.002.3-.197.501-.497.503s-.501-.196-.503-.496.196-.502.496-.504c.3-.001.502.197.504.497m23.522 3.448c-.792 1.206-3.492 1.223-3.5.023-.007-1.1 2.187-2.014 3.291-1.421.402.197.506.896.21 1.398m-23.473 4.152c.067 10.5-5.273 19.735-14.539 25.094-3.088 1.82-5.285 2.235-11.785 2.277-9.901-.136-19.018-2.778-19.037-5.578-.02-3.3 2.674-4.117 8.285-2.353 16.535 5.293 28.889-1.887 31.582-18.404.578-3.504.974-4.107 3.074-4.12 2-.013 2.403.484 2.42 3.084m-54.526 11.652c-.587 2.004-.587 2.004 1.302.392 1.392-1.309 2.59-1.517 4.794-1.031 2.504.684 2.706.883 1.01 1.494-.997.506-2.099.313-2.503-.384-.808-1.195-4.977 3.532-4.963 5.732.004.7-.49 1.603-1.087 2.007-.897.506-1-.094-.514-2.097.585-2.304.383-2.702-1.013-2.093-1.397.509-1.6.11-1.017-2.594.48-3.103.48-3.203-.91-1.394-1.585 2.11-1.887 1.812-1.004-.693.296-.702 1.891-1.413 3.591-1.424 2.5-.016 2.802.282 2.314 2.085m2.732 4.983c-.888 1.806-1.78 3.211-1.98 3.013-.604-.496 1.958-6.413 2.858-6.419.4-.002.01 1.5-.878 3.406m5.882-2.838c.002.3-.89 1.706-1.98 3.113-1.091 1.407-1.978 3.413-1.972 4.412.007 1.1-.187 1.902-.387 1.903s-1.098.307-1.996.613c-1.098.407-1.6.01-1.608-1.19-.01-1.6.189-1.701.997-.406.708 1.195 1.005.793.991-1.407-.01-1.7.974-4.006 2.166-5.314 1.986-2.213 3.78-3.024 3.789-1.724m1.222 3.392c-2.187 2.114-2.58 3.017-2.258 6.515.21 1.698.01 1.7-.797.505-1.716-2.49 1.342-9.009 4.142-9.027.6-.004.106.9-1.087 2.007"/><path d="M433.282 667.295c-.794.905-.79 1.505-.19 1.501 1.2-.007 2.588-1.916 1.883-2.612-.201-.198-.999.207-1.693 1.111M439.883 667.453c-.496.503 12.847 7.217 14.247 7.208 1.2-.108-4.326-3.972-5.526-3.965-.7.005-2.805-.882-4.712-1.87-1.907-1.087-3.71-1.675-4.009-1.373M461.656 678.612c3.814 2.176 7.026 3.955 7.226 3.954 1.3-.009 30.619 18.402 35.445 22.371 5.63 4.564 6.243 6.66 6.554 23.858.155 8.6.703 15.896 1.104 16.094 1.204.692.816-28.506-.41-32.498-1.329-4.492-4.047-7.274-12.584-13.02-8.135-5.347-20.484-12.867-21.384-12.862-.3.002-1.304-.591-2.109-1.386-2.01-1.587-18.768-10.479-19.868-10.472-.4.003 2.312 1.785 6.026 3.961M442.498 700.736c-4.693 1.03-8.683 2.657-9.474 3.962-.593 1.104 2.103.486 3.994-.926 1.592-1.21 7.386-2.148 18.48-3.02l10.495-.867-10 .064c-5.5.036-11.597.375-13.495.787M446.544 661.41a1.2 1.2 0 0 0 1.4-.01c.298-.402-.004-.7-.704-.695-.7.004-.998.306-.696.704M450.246 661.686c.004.5.707.995 1.607.99.8-.006 1.196-.509.893-1.007-.304-.598-1.006-.993-1.606-.99-.5.004-.898.407-.894 1.007M729.266 663.884c.004.5 1.107.993 2.507.984s2.496-.517 2.493-1.016c-.004-.6-1.106-.993-2.506-.984s-2.498.416-2.494 1.016M277.079 667.304c-.296.602-.561 21.504-.6 46.505.062 25-.104 45.801-.301 46.203-.198.401-2.402-.185-4.809-1.27-4.612-1.97-8.511-1.744-8.496.556.004.7-1.28 3.008-2.967 5.219-2.18 2.914-2.967 5.02-2.947 8.22.023 3.499-.371 4.402-2.465 5.415-1.396.61-2.49 1.516-2.487 2.016s.903.394 1.999-.213 1.994-.913 2.095-.813c.001.2.238 5.898.582 12.696.698 15.196 1.915 17.788 10.852 23.53 3.314 2.18 7.029 4.455 8.233 5.048 1.103.492 3.11 1.68 4.516 2.57 4.318 2.773 20.974 11.365 36.624 18.964 12.64 6.119 16.048 7.397 21.55 7.761 3.602.277 7.201.154 7.899-.25.696-.505 1.682-2.812 2.166-5.215 1.254-7.108.814-28.806-.725-34.896-4.82-18.469-5.936-21.062-12.079-27.622-4.833-5.17-12.57-10.72-13.563-9.713-.398.303.107 1.1 1.111 1.693 3.914 2.175 12.362 9.52 14.582 12.706 2.121 3.186 2.24 6.186.255 8.399-.498.403-2.804-.482-5.214-2.067-2.31-1.685-5.824-3.762-7.53-4.651-4.013-1.974-4.119-2.874-.828-4.395 1.396-.61 2.487-2.016 2.48-3.016-.015-2.3-3.436-5.578-5.232-4.966-.798.305-.494.903 1.011 1.693 1.204.592 2.212 1.786 2.217 2.586.011 1.8-.788 1.905-4.299.228-2.406-.985-2.71-1.583-2.229-4.486.388-1.903.18-3.201-.52-3.197-.5.003-.994 1.007-.986 2.207.024 3.8-1.17 4.707-4.875 3.931-4.806-.869-5.32-3.066-.72-3.095 2-.013 3.597-.524 3.593-1.024-.008-1.3-5.608-1.263-7.799.15-1.394.91-2.696.618-6.51-1.457-2.608-1.383-6.824-3.756-9.433-5.14-2.709-1.382-5.219-2.966-5.722-3.462-2.616-2.384 17.804.585 26.225 3.83 3.208 1.28 5.21 1.667 5.006.968-.407-1.097-2.814-2.182-10.93-4.73-2.104-.586-6.71-1.356-10.312-1.733-3.702-.276-6.905-.855-7.109-1.354-.302-.398.79-1.605 2.484-2.516 1.594-1.01 2.986-2.22 2.983-2.62-.01-1.6-1.804-.688-4.985 2.233-2.287 2.115-4.18 3.027-6.58 3.042l-3.4.022-.51-47.797c-.369-26.199-.904-47.196-1.301-46.693m4.229 97.375c8.827 4.243 18.762 9.579 31.61 16.996 2.71 1.582 3.612 1.777 4.305.672.593-1.004.795-.805.603.496-.191 1.401 2.423 3.585 10.555 8.532 5.925 3.762 12.152 8.022 13.762 9.512 4.024 3.774 5.062 9.567 5.183 28.367.095 14.6-.096 16.1-1.982 18.213-1.39 1.709-2.187 2.014-2.493 1.116-.304-.598-1.408-1.19-2.508-1.184-1.7.011-1.804-.688-1.282-12.792.592-16.604-.653-23.596-5.18-27.667-7.142-6.654-48.903-31.385-65.15-38.78-5.718-2.563-6.724-3.557-4.832-4.769.598-.304.99-1.506.983-2.706-.012-1.8.387-2.003 3.19-1.421 1.703.289 7.619 2.75 13.236 5.415m-10.162 5.965c30.101 15.506 61.529 35.204 64.062 40.288 1.622 3.39 2.858 24.582 1.707 32.09-.475 3.902-.872 4.405-3.072 4.42-2.5.015-22.76-9.354-35.505-16.272-3.613-1.977-9.434-5.24-12.947-7.116-6.523-3.558-17.968-10.485-21.785-13.16-4.32-3.072-4.836-5.569-4.952-23.469-.16-9.399.085-17.8.479-18.803 1.083-2.607 3.886-2.125 12.013 2.022m70.96 24.643c.921 3.194.027 4.1-1.788 1.811-.604-.696-.914-2.294-.522-3.496.682-2.705 1.084-2.407 2.31 1.685"/><path d="M268.396 762.862c.303.498 1.206.992 1.906.988 2-.013 24.573 11.241 33.71 16.782 4.718 2.87 9.938 5.936 11.544 6.926 1.706.889 5.923 3.562 9.538 5.839 3.615 2.276 7.43 4.652 8.535 5.345 1.104.592 3.719 2.876 5.832 4.962 3.725 3.776 3.725 3.776 3.997 14.974.14 6.2.093 14.4.018 18.3-.172 4.402.148 7.4.85 7.795.804.495 1.073-4.307.993-16.706-.13-20.2-.849-22.995-7.48-27.653-13.965-10.11-40.164-25.34-57.116-33.432-10.634-5.13-13.54-6.012-12.327-4.12M365.222 673.735c-.396.502-.88 3.006-1.264 5.508-.571 4.504-.571 4.504 1.007 1.094 1.38-3.11 1.643-8.811.257-6.602M414.612 687.516c-2.39 1.416-4.081 2.827-3.78 3.125.605.696 8.576-3.856 8.569-4.956s.093-1.1-4.789 1.831M362.015 688.056c-.198.401-.684 2.504-1.07 4.607-.582 2.804-.477 3.703.42 3.197.598-.404 1.09-1.607 1.083-2.707s.48-2.903.974-4.006c.988-1.807-.319-2.898-1.407-1.091M401.561 695.1c-1.793 1.112-3.086 2.22-2.784 2.519.403.497 7.678-3.45 7.673-4.25-.006-.9-1.602-.29-4.889 1.732M147.868 696.939c-.196.701-.262 6.002-.124 11.801l.367 10.398 42.901.023c25.3-.064 43.298-.48 43.995-.984.696-.605 1.067-5.007 1.023-11.807l-.07-10.8-43.8-.017c-35.6.03-43.8.283-44.292 1.386m84.92 2.852c.42 2.997.397 15.097-.088 17.3-.098.301-18.397.62-40.896.765l-40.7.263-.36-9.398c-.134-5.2-.165-10 .13-10.801.394-1.003 8.291-1.354 40.99-1.565l40.4-.261z"/><path d="M157.587 699.976c-1.885 2.312-.954 7.107 1.446 7.091 2.1-.013 3.116 2.48 2.134 5.186-.492 1.204-.892 1.306-2.098.314-1.71-1.389-3.105-.78-1.994.913.304.598 1.707 1.089 3.007 1.08 4-.025 4.346-8.328.338-9.502-2.605-.783-2.422-3.484.178-3.501 1.2-.008 1.896-.512 1.691-1.311-.711-1.796-3.313-1.979-4.702-.27M170.483 699.193c-.428 11.203-.302 15.302.798 15.295 1.4-.009 1.506-14.71.1-15.5-.502-.398-.902-.295-.898.205M190.091 700.466c-1.783 2.612-2.04 9.114-.522 12.004 1.517 2.69 5.016 2.468 5.097-.433.175-3.901-.233-5.199-2.344-6.885-1.308-1.192-1.816-2.388-1.423-3.49.59-1.505.79-1.506 1.598-.311.505.797 1.207 1.092 1.605.69s.09-1.501-.815-2.295c-1.41-1.391-1.71-1.39-3.196.72m3.26 9.18c.212 1.898-.083 2.7-1.183 2.707s-1.606-.99-1.62-3.09c-.024-3.8 2.377-3.515 2.803.383M200.49 700.3c-.592 1.203-.78 2.904-.474 4.002s.218 2.699-.276 3.702c-1.284 2.509.34 6.298 2.74 6.283 2.8-.018 3.884-2.625 3.447-8.323-.444-6.897-3.263-9.779-5.437-5.665m4.017 2.473c.016 2.5-2.278 3.515-3.49 1.523-1.011-1.594.173-4.001 1.973-4.013.9-.006 1.506.89 1.517 2.49m-.362 6.003c.405.797.414 2.197.02 3-.688 1.904-3.595.823-3.61-1.377-.02-3.2 2.573-4.317 3.59-1.623M210.181 698.837c-1.788 1.811-.578 3.403 2.018 2.787 2.296-.615 2.497-.517 1.808 1.188-1.28 3.208-1.824 11.812-.728 11.105.597-.404 1.279-3.208 1.558-6.41s.658-6.505.753-7.305c.39-1.603-4.017-2.674-5.409-1.365M221.182 698.866c-.398.302-.675 3.904-.649 8.004.047 7.3.047 7.3 2.947 7.281 3.5-.023 3.993-1.226 3.643-8.824-.121-3.399-.736-5.695-1.74-6.289-1.707-.989-3.308-1.178-4.201-.172m3.823 3.575c.017 2.6-1.984 2.513-2.301-.185-.31-1.598.085-2.2.987-1.907.702.296 1.308 1.192 1.314 2.092m.35 7.798c-.091 1.3-.685 2.304-1.286 2.208-1.302-.291-1.819-2.988-1.132-4.993.985-2.406 2.9-.118 2.418 2.785M179.036 707.438c.303.498 1.507.99 2.507.984s2.196-.514 2.493-1.016c.396-.603-.706-.996-2.506-.984-1.8.011-2.898.419-2.494 1.016M390.003 701.575c-2.192 1.315-3.584 2.524-3.184 2.521 1.1-.007 8.674-3.956 8.67-4.556-.006-1-1.602-.39-5.486 2.035M358.51 702.679c.004.7-.282 2.902-.57 4.704-.485 2.403-.28 3.101.415 2.397 1.59-1.51 2.645-8.517 1.245-8.508-.6.004-1.096.607-1.09 1.407M377.246 708.358c-2.093 1.113-3.585 2.323-3.283 2.621.704.596 7.284-2.547 8.075-3.852.89-1.506-.607-1.096-4.792 1.231M681.262 709.895c-.398.302-.663 5.704-.623 11.904l.074 11.4 42.3-.073c23.201.05 43.2-.08 44.5-.288 2.097-.313 2.195-.714 2.124-11.714-.06-9.4-.374-11.398-1.677-11.89-2.105-.786-85.903-.244-86.698.66m85.376 11.349.068 10.6-41.202-.134-41.3-.034-.367-10.298-.366-10.197 41.599-.27 41.5-.267z"/><path d="M690.288 713.837c-.398.302-.686 2.104-.674 4.004.019 2.9.321 3.298 2.621 3.283 2.2-.014 2.503.384 2.218 2.686-.186 2.201-.782 2.805-2.484 2.616-1.6-.19-2.098.214-1.692 1.21.915 2.295 4.012 1.775 5.194-1.033 1.28-2.908-.249-7.498-2.549-7.483-.7.004-1.306-.892-1.313-1.992-.008-1.3.687-2.004 1.987-2.013 1.1-.007 1.997-.513 1.994-1.013-.007-1.1-4.309-1.372-5.302-.265M702.635 721.057c.043 6.7.352 7.998 1.652 7.99 1.1-.008 1.396-.51.99-1.607-.307-.898-.63-4.496-.652-7.996-.024-3.6-.442-6.397-1.042-6.393s-.978 3.306-.948 8.006M723.089 713.825c-.296.602-.78 3.205-1.162 5.907-.567 5.204.86 9.195 3.26 9.18 3.8-.025 4.045-8.327.338-9.503-1.003-.393-1.91-1.488-1.917-2.588-.014-2.2.985-2.406 2.895-.718 1.008 1.093 1.206.892.896-.706-.414-2.197-3.22-3.18-4.31-1.572m3.565 10.077q.02 3-1.48 3.01t-1.52-2.99q-.02-3 1.48-3.01t1.52 2.99M733.33 720.059c-1.947 8.412-1.944 8.812-.644 8.804.6-.004.992-1.206.983-2.606-.021-3.3 3.28-3.022 3.803.375.207 1.199 1.014 2.194 1.814 2.188 1.1-.007 1.197-.507.488-1.803-.506-.896-1.224-3.792-1.641-6.39s-1.235-5.391-1.94-6.287c-.908-1.194-1.402-.19-2.864 5.719m3.302.378c.005.8-.391 1.403-.991 1.407-.5.003-1.006-.894-1.014-2.094-.007-1.1.49-1.703.991-1.406.602.296 1.009 1.293 1.014 2.093M744.093 714.49c-1.181 2.807-1.224 11.707-.216 13 1.714 2.09 4.81 1.47 5.993-1.238.788-1.805.781-2.805-.126-3.9-.705-.795-.916-2.493-.525-3.996 1.071-4.407-3.55-7.777-5.126-3.867m3.52 2.876c.02 3.1-2.283 2.815-2.803-.381-.21-1.5.185-2.202 1.185-2.208 1.1-.007 1.606.89 1.617 2.59m.544 6.897c.007 1.1-.787 2.105-1.685 2.311-1.399.309-1.802-.288-1.815-2.288s.383-2.603 1.785-2.312c.901.194 1.708 1.19 1.715 2.29M712.44 721.694c1.2.192 3 .18 4-.026.897-.306-.104-.5-2.303-.385-2.2.014-2.999.22-1.698.41M364.792 715.439c-1.793 1.111-3.085 2.32-2.784 2.518.503.496 7.577-3.55 7.572-4.35s-1.501-.19-4.788 1.832M356.19 715.094c-.298.502-.782 2.905-1.067 5.307-.765 5.305.922 3.294 1.885-2.412.677-3.505.27-4.702-.819-2.895M186.898 763.388c.18 28-.023 43.001-.723 43.006-.6.004-.979 3.206-.95 7.706.043 6.6.352 8.098 2.57 10.884 1.412 1.79 2.53 4.584 2.541 6.284.022 3.4.323 3.598 3.013 2.08 2.591-1.417 4.158-6.527 2.938-9.62-.609-1.395-1.036-5.592-1.06-9.392-.043-6.6-.145-7-3.056-8.68-3.011-1.681-3.011-1.681-3.281-43.48-.176-27.2-.57-41.798-1.27-41.793-.7.004-.903 15.006-.722 43.005m5.884 44.063c.91 1.594-1.464 5.61-3.66 6.224-1.597.41-1.9-.088-1.917-2.688-.012-1.8.277-3.602.675-3.904.993-1.107 4.095-.827 4.902.368m.15 7.6c-.399.302-.7.004-.705-.696s.293-1.002.695-.705c.303.399.307.998.01 1.4m-2.695.817c.001.3-.197.501-.497.503s-.501-.197-.503-.497.196-.501.496-.503.502.197.504.497m.042 6.6c.007 1-.388 1.902-.788 1.905-1.1.007-3.23-4.58-3.243-6.78.083-2.5 4.015 2.375 4.031 4.875m3.49-1.523c1.829 4.388 1.956 8.588.366 10.198-2.285 2.315-2.792 1.218-2.84-6.282-.027-4.1.151-7.5.451-7.503.3-.002 1.21 1.592 2.023 3.587M343.369 727.477c-2.193 1.114-3.685 2.324-3.383 2.622.604.596 7.483-2.648 8.275-3.853.791-1.406-.806-.995-4.892 1.231M352.692 731.017c.006 1-.281 2.902-.572 4.304-.489 1.803-.386 2.202.41 1.497 1.69-1.51 2.651-7.517 1.251-7.508-.6.004-1.095.807-1.089 1.707M334.7 732.233c.002.4-1.392 1.31-3.087 2.12-1.595.71-2.79 1.518-2.588 1.817.704.595 7.68-2.95 7.674-3.95-.002-.4-.405-.797-1.005-.793-.5.003-.998.306-.995.806M64.148 740.58c-.295.802-.36 6.103-.124 11.802l.366 10.297 43.5-.28 43.499-.281.223-11.802.225-11.702-43.6.282c-37.098.24-43.597.481-44.09 1.685m84.67 10.554.067 10.5-40.999.265-40.999.264-.068-10.5-.067-10.5 40.999-.264 40.999-.265z"/><path d="M72.777 745.125c.007 1.1.513 1.997 1.013 1.993.6-.003.997-.506.994-1.006-.004-.6.893-1.006 1.993-1.013s1.997-.513 1.994-1.013c-.004-.6-1.307-.991-3.007-.98-2.3.014-2.997.419-2.987 2.019M86.116 751.039c-.058 6.6.151 8 1.451 7.99 1-.006 1.296-.608.89-1.605-.306-.898-.629-4.496-.652-7.996-.022-3.5-.441-6.397-.841-6.395s-.777 3.605-.848 8.006M105.971 744.11c-1.788 1.812-1.42 12.31.39 13.798 1.206.993 1.806.989 3-.02 2.486-2.115 1.641-9.01-1.159-8.992-.8.005-1.405-.89-1.413-2.09-.01-1.6.388-1.903 1.99-1.414 1.504.49 1.803.289 1.395-.909-.712-1.895-2.514-2.083-4.203-.372m2.86 9.282c.013 1.9-.377 3.503-.977 3.507-.5.003-1.01-1.594-1.023-3.494s.478-3.503.978-3.506c.6-.004 1.01 1.593 1.022 3.493M115.776 744.747c-1.58 3.01-1.17 4.808 1.544 6.89 1.407 1.091 2.518 2.684 2.523 3.584.013 1.9-1.586 2.11-2.298.315-.203-.599-.805-.895-1.302-.392-.398.403.01 1.5 1.016 2.494 1.61 1.59 1.81 1.588 3.199-.22 1.387-2.01 1.834-10.113.716-13.006-.815-2.194-4.113-1.973-5.398.335m4.02 3.174c.013 1.9-.481 2.903-1.48 2.91-1.5.01-2.233-4.986-.942-6.294 1.193-1.208 2.403.384 2.422 3.384M126.18 745.28c-.779 3.405.135 5.5 2.635 5.483 2.2-.014 2.715 2.383 1.032 4.994-.891 1.305-1.091 1.307-1.9.012-.605-.796-1.307-1.092-1.704-.69-1.093 1.108 2.226 4.087 3.62 3.178 3.088-1.92 2.539-9.517-.761-9.496-.7.005-1.306-.891-1.313-1.991s.587-2.004 1.387-2.01 1.797-.51 2.094-1.013c.396-.602-.507-.997-1.907-.988-1.9.013-2.695.718-3.184 2.521M138.577 744.9c-.191 1.301.318 2.798 1.122 3.393 1.708 1.289.623 3.496-1.382 2.709-.902-.294-1.5.11-1.495.81.005.8-.285 2.401-.577 3.603-.392 1.303-.185 2.301.415 2.298s1.193-1.008 1.386-2.21c.478-3.403 2.678-3.417 3.4.179.514 1.996 1.019 2.793 1.714 2.089.597-.604.384-2.603-.736-5.696-.917-2.594-1.636-5.49-1.642-6.49-.018-2.7-1.821-3.188-2.205-.685M73.401 748.82c-1.192 1.209-.585 2.305 1.415 2.292 1.6-.01 2.004.687 2.02 2.987.019 3-1.374 4.109-2.29 1.715-.204-.599-.805-.895-1.302-.392-.398.403.01 1.5.915 2.394 2.215 2.286 4.7.07 4.673-4.23-.015-2.4-.622-3.396-2.428-4.284-1.304-.592-2.705-.783-3.003-.481M95.216 751.08c-.297.502.606.896 2.006.887 3.1-.02 3.396-.622.592-1.304-1.102-.293-2.301-.085-2.598.417M321.548 739.818c-2.093 1.114-3.485 2.323-3.283 2.622.705.695 7.48-3.049 7.473-4.149-.006-1 .293-1.102-4.19 1.527M347.061 741.754c-1.793 1.111-3.284 2.42-3.281 2.92.006 1 5.688-1.936 6.478-3.441 1.188-1.908.089-1.7-3.197.52M312.777 744.375c.004.5-1.19 1.408-2.586 2.117-1.496.61-2.39 1.415-2.089 1.713s1.899-.212 3.592-1.223c3.089-1.82 3.978-3.426 2.078-3.413-.5.003-.997.406-.995.806M336.099 747.624c-4.682 2.83-4.074 4.127.71 1.496 2.192-1.214 3.983-2.526 3.98-3.026-.007-1.1-1.204-.692-4.69 1.53M299.828 752.259c-3.982 2.826-2.98 3.12 1.903.488 1.894-1.013 2.987-2.02 2.485-2.317-.502-.296-2.496.517-4.388 1.829M324.146 754.902c-3.978 3.526-2.474 4.016 1.703.489 1.89-1.512 2.981-2.92 2.281-2.915s-2.493 1.116-3.984 2.426M319.89 761.83c0 .1-.389 1.702-.877 3.505-.684 2.505-.68 3.205.219 2.899 1.397-.41 2.756-6.718 1.556-6.71-.5.003-.899.105-.898.305M108.234 784.797l.416 17.897 16.103 15.997c12.38 12.32 16.209 16.695 16.423 18.894.527 4.197 4.653 8.27 8.05 7.848 1.9-.212 2.795-.918 2.984-2.519.191-1.401 1.88-3.112 4.271-4.528 4.185-2.327 7.36-6.247 6.35-7.84-.708-1.196-8.401-.147-10.391 1.466-.696.605-3.393 1.122-5.993 1.139-4.4.028-4.902-.268-11.745-6.924-3.924-3.775-11.071-11.03-15.804-16.099l-8.759-9.043-.11-17.1c-.074-11.4-.51-17.097-1.21-17.092-.7.004-.864 5.705-.585 17.904m49.92 49.478c-.495.704-1.393 1.01-1.895.713-1.606-.99-.915-2.294.987-2.107 1.5.09 1.702.39.909 1.394m-9.187 1.86c3.22 3.179 3.05 7.78-.247 8.302-2.397.415-3.208-1.28-1.013-2.094.698-.304.496-.603-.504-.597-1.1-.093-1.806-.888-1.814-2.188-.008-1.1-.411-1.697-1.01-1.394-1.095.708-1.417-2.79-.324-3.798 1.092-1.207 2.295-.814 4.912 1.769m6.093-1.04c.916 2.495-.381 2.903-1.696.611-.71-1.495-.714-2.095-.014-2.1.6-.003 1.305.692 1.71 1.49m-1.683 2.611c.003.5-.394.903-.994.907-.5.003-1.005-.694-1.01-1.594-.006-.8.492-1.203.993-.906.602.296 1.007.993 1.01 1.593M244.83 783.615c-1.595.81-2.79 1.718-2.788 1.918.007 1.2 3.002.28 5.09-1.533 2.785-2.318 1.484-2.51-2.303-.385M234.766 789.28c-2.093 1.113-3.585 2.323-3.283 2.621.804.695 7.582-2.749 7.575-3.849-.008-1.2.292-1.302-4.292 1.228M223.804 795.25c-2.193 1.115-3.585 2.324-3.283 2.622.805.795 7.583-2.65 7.576-3.75-.008-1.2.192-1.3-4.293 1.129M212.447 801.924c-1.794.912-3.287 2.021-3.284 2.521s1.8-.111 3.992-1.225 3.985-2.326 3.984-2.526c-.005-.8-1.303-.492-4.692 1.23M201.987 808.092c-3.985 2.426-3.378 3.522.71 1.495 1.893-.912 3.486-2.022 3.483-2.522-.007-1.1-1.106-.893-4.193 1.027M410.579 806.245c-.195.701-.26 6.202-.12 12.3l.37 10.899 44.499-.288 44.499-.287-.078-12-.077-12-44.3.086c-35.5.03-44.4.287-44.793 1.29m86.67 10.64.068 10.4-22.198.443c-12.298.28-31.198.402-41.999.272l-19.8-.073-.069-10.5-.068-10.5 42-.27 41.999-.272z"/><path d="M419.618 812.286c-.673 4.205.036 5.6 2.632 4.884 1.697-.511 2-.013 2.017 2.587.013 2.1-.48 3.103-1.48 3.11-.8.004-1.504-.491-1.507-1.091-.004-.5-.505-.697-1.003-.394-1.395.81.623 3.496 2.622 3.484 3.8-.025 4.047-8.327.34-9.503-2.706-.782-2.73-4.482-.03-4.5 1.1-.007 1.997-.513 1.994-1.013-.004-.6-1.107-.992-2.507-.983-2 .012-2.496.616-3.078 3.42M433.047 816.7c-.157 6.701.052 8.1 1.252 8.092s1.392-1.31 1.154-7.208c-.566-10.196-2.07-10.687-2.406-.884M454.403 809.862c-1.192 1.208-1.633 10.41-.514 13.203.305.898 1.41 1.591 2.41 1.585 3.4-.022 4.153-7.227.94-9.206-2.108-1.287-2.83-4.782-1.03-4.794.6-.004 1.003.494 1.006 1.094.004.5.505.696 1.003.393.797-.505.693-1.104-.114-2.1-1.41-1.69-2.111-1.785-3.7-.175m2.863 9.782c.01 1.6-.38 3.002-.98 3.006-.5.003-1.01-1.394-1.02-2.994-.01-1.7.481-3.003.981-3.006.6-.004 1.009 1.294 1.02 2.994M464.403 809.797c-.992 1.307-1.245 8.508-.519 12.604.413 1.897 1.015 2.293 3.213 1.98 2.598-.318 2.697-.518 2.76-6.319-.022-3.3-.444-6.797-.85-7.794-1.014-1.994-3.115-2.18-4.604-.47m3.62 2.977c-.48 3.203-2.778 3.518-2.798.418-.011-1.7.483-2.603 1.583-2.61 1-.007 1.405.69 1.214 2.192m.246 7.298c.01 1.6-.583 2.504-1.483 2.51s-1.506-.89-1.516-2.49.583-2.504 1.483-2.51 1.506.89 1.516 2.49M477.096 808.715c.002.2-.075 3.8-.147 8.101-.164 5.602.15 7.7 1.15 7.693 1.5-.01 1.605-14.61.1-15.5-.503-.298-1.004-.494-1.103-.294M486.232 814.156c-.58 3.204-1.356 6.81-1.649 8.011-.291 1.302.015 2.3.615 2.296s1.092-1.207 1.083-2.607c-.02-3.3 3.28-3.021 3.803.376.312 1.798 2.221 3.285 2.21 1.585-.013-2.1-3.393-14.478-4.096-14.873-.502-.297-1.386 2.109-1.966 5.212m3.011 1.781c.005.8-.39 1.503-.99 1.506-.5.004-1.005-.693-1.01-1.493s.49-1.503.99-1.507c.6-.003 1.005.694 1.01 1.494M442.25 817.14c.006.9 4.008 1.275 4.603.47.297-.501-.606-.895-2.006-.886s-2.598.216-2.597.416M616.245 862.218c-.398.402-.663 5.804-.623 12.004.073 11.2.073 11.2 2.975 11.581 1.601.19 21.502.261 44.202.115l41.398-.368.136-10c-.036-5.5-.17-10.8-.476-11.698-.41-1.597-2.811-1.782-29.61-1.609-16.1.104-35.502-.07-43.204-.32-7.802-.25-14.4-.108-14.798.295m81.614 1.873c3.8-.025 3.8-.025 3.565 10.177l-.233 10.302-15.999.303c-8.798.257-27.199.176-41.002-.235l-25.004-.539-.357-8.898c-.232-4.898-.062-9.6.232-10.401.492-1.304 5.491-1.436 37.794-1.144 20.402.268 38.904.448 41.004.435"/><path d="M624.983 868.061c-.778 3.406.135 5.5 2.635 5.484 1.6-.01 2.005.687 2.02 2.987q.018 3-1.481 3.01c-.8.004-1.503-.491-1.507-1.091-.003-.5-.405-.797-1.003-.394-1.494.91.023 3.5 2.123 3.487 2.9-.019 4.37-4.629 2.35-7.616-.808-1.294-2.015-2.387-2.515-2.383-.6.003-1.006-.894-1.013-1.994-.008-1.3.687-2.004 1.987-2.013 1.1-.007 1.997-.513 1.994-1.013-.004-.6-1.107-.993-2.507-.983-1.8.011-2.595.716-3.083 2.52M638.37 866.075c-1.391 1.309-.8 15.405.6 15.396.8-.005 1.089-1.707.863-5.705-.459-9.097-.668-10.496-1.463-9.691M658.874 866.543c-1.886 2.312-2.462 5.916-1.733 10.411.522 3.397 1.028 4.393 2.528 4.384 2.4-.016 4.18-3.227 3.363-5.722-.406-.997-1.616-2.49-2.722-3.383-1.307-1.091-1.814-2.288-1.322-3.391.491-1.403.89-1.506 2.097-.514.805.695 1.505.79 1.501.19-.012-1.9-2.72-3.282-3.712-1.975m2.57 10.883c-.092 1.3-.685 2.305-1.286 2.209-1.302-.292-1.82-2.989-1.132-4.993.984-2.407 2.9-.119 2.418 2.784M668.773 866.479c-.892 1.205-1.644 8.61-1.216 12.908.113 2 2.52 3.084 4.614 2.27 1.097-.507 1.486-2.31 1.453-7.31-.05-7.8-2.172-11.186-4.85-7.868m2.825 3.782c.01 1.6-.38 3.002-.88 3.005-1 .007-2.227-3.985-1.534-5.19 1.088-1.807 2.396-.615 2.414 2.185m.435 5.497c.712 1.795-.17 4.501-1.47 4.51-.5.003-1.205-.693-1.51-1.49-.712-1.796.17-4.502 1.47-4.51.5-.004 1.105.692 1.51 1.49M678.88 867.413c-.496.704-.875 3.906-.854 7.206.128 4.3.54 6.197 1.845 6.888 3.112 1.98 4.794-.83 4.352-7.328-.22-3.199-.74-6.295-1.044-6.893-.91-1.495-3.11-1.38-4.3.127m3.216 2.58c.02 3.1-1.882 2.812-2.302-.385-.312-1.798-.016-2.5.986-2.207.701.296 1.309 1.392 1.316 2.592m.55 7.696c.01 1.6-.584 2.504-1.484 2.51s-1.506-.89-1.516-2.49.584-2.504 1.484-2.51 1.506.89 1.516 2.49M691.177 867.034c-1.484 2.41-3.312 13.622-2.406 14.516.504.597.9-.106.89-1.706-.014-2 .482-2.703 1.982-2.713s2.004.687 2.016 2.487c.009 1.4.516 2.497 1.016 2.494 1.5-.01 1.175-3.808-.868-10.495-1.225-3.892-2.135-5.486-2.63-4.583m1.443 6.59c.005.8-.39 1.503-.99 1.507-.5.003-1.005-.693-1.01-1.493s.49-1.503.99-1.507c.6-.004 1.005.694 1.01 1.494M646.624 874.422c.003.5 1.407.99 3.007.98 1.7-.01 2.996-.519 2.993-1.019-.004-.6-1.306-.991-3.006-.98-1.6.01-2.998.419-2.994 1.019M527.852 910.09l.078 12 43.3.02c23.701.047 43.9-.084 44.7-.289 1.198-.208 1.485-2.31 1.427-11.21-.038-5.9-.271-11.098-.573-11.396-.906-.894-15.008-1.103-15.003-.303.003.4 2.706.782 6.005.761l6-.039.069 10.6.069 10.7-41.203-.334c-22.702-.253-41.404-.433-41.504-.432-.2.001-.329-4.498-.364-9.998l-.065-10 6.4-.04c3.6-.024 6.797-.545 7.093-1.047.396-.602-2.506-.984-7.906-.949l-8.6.056z"/><path d="M547.781 899.06c.803.495 12.706.819 27.005.726 16.8-.008 24.998-.461 23.994-1.055-.904-.594-12.306-.92-27.006-.825-16.5.106-24.997.561-23.993 1.155M537.827 906.125c.021 3.3.325 3.998 1.724 3.789 1.898-.312 2.915 2.281 1.932 4.888-.492 1.203-.892 1.305-2.098.313-1.207-.992-1.507-.99-1.498.31.017 2.7 2.22 3.086 4.204.673 2.38-3.016 2.27-4.715-.748-7.396-2.816-2.581-3.23-4.579-1.13-4.592.8-.006 1.797-.512 2.094-1.014.396-.602-.506-.997-1.906-.988-2.4.016-2.598.417-2.574 4.017M549.852 910.048c.043 6.7.352 7.997 1.652 7.989 1.1-.007 1.397-.509.99-1.606-.306-.898-.63-4.496-.652-7.996-.023-3.6-.441-6.398-1.041-6.394s-.98 3.307-.949 8.007M570.307 902.915c-1.287 2.009-.917 12.906.391 14.198 2.114 2.086 4.698-.33 4.672-4.33-.016-2.6-.623-3.596-2.228-4.386-3.008-1.28-3.232-4.98-.227-4.199 1.302.292 1.9.088 1.596-.61-.51-1.597-3.413-2.078-4.204-.673m3.565 10.077c.024 3.8-2.378 3.516-2.803-.381-.212-1.9.083-2.701 1.183-2.708s1.606.99 1.62 3.09M591.717 904.477c-1.18 3.208.247 7.299 2.647 7.283.8-.005 1.506.89 1.513 1.99.015 2.3-.983 2.607-2.795.818-.905-.894-1.204-.692-1.193 1.008.01 1.5.614 2.196 2.014 2.187 2.4-.015 3.982-2.826 3.952-7.425-.05-7.7-3.974-11.475-6.138-5.86m4.115 2.274q.02 3-1.48 3.01t-1.52-2.991q-.02-3 1.48-3.01t1.52 2.99M581.045 908.846c-.678 3.405-1.457 6.71-1.851 7.512-.295.802.01 1.5.51 1.497.6-.004 1.193-1.008 1.385-2.21.478-3.402 3.776-3.724 3.797-.424.011 1.7.617 2.596 1.617 2.59 1.1-.007 1.396-.609.785-2.305-.407-1.198-1.228-4.392-1.846-7.088-.617-2.696-1.632-5.09-2.234-5.286-.501-.197-1.584 2.41-2.163 5.714m2.803.482c.005.8-.39 1.503-.99 1.506-.5.004-1.005-.693-1.01-1.493s.49-1.503.99-1.507c.6-.003 1.005.694 1.01 1.494M559.657 910.684c1.2.192 3 .18 4-.026.898-.305-.104-.499-2.303-.385-2.2.014-2.999.22-1.697.411M604.142 954.698c.004.7 11.105.828 32.804.588 25.599-.265 29.998-.494 20.195-.93-20.008-1.071-53.007-.858-53 .342M706.14 954.14c-2.498.315 8.304.546 24.004.444 15.7-.101 27.198-.375 25.497-.464-5.904-.662-45.105-.61-49.5.02M671.445 954.963c.901.194 2.501.184 3.5-.022.898-.306.097-.501-1.803-.489s-2.7.218-1.697.511M686.944 954.863c2.902.181 7.402.152 10-.064 2.599-.217.198-.302-5.302-.266s-7.599.149-4.698.33M122.344 1126.913c-10.66 6.369-24.316 13.157-25.02 12.362-.504-.397-1.015-2.194-1.225-3.793-.215-2.198-.92-3.094-2.522-3.283-1.301-.192-2.299.114-2.296.614s-3.753 7.325-8.401 15.255c-9.497 16.062-9.508 14.362-.373 19.703 2.509 1.384 6.625 3.857 9.135 5.441 2.51 1.484 4.918 2.768 5.218 2.766.4-.002.683-2.604.663-5.804-.038-5.8-.038-5.8 11.62-12.275 6.477-3.642 13.053-7.385 14.747-8.396 1.594-.91 3.985-2.226 5.28-2.934 1.994-1.013 2.19-1.814 2.136-10.114-.048-7.4-.36-9.198-1.767-10.289-2.31-1.685-3.11-1.68-7.195.747m6.762 9.556c-.251 7.602-.543 8.904-2.237 9.815-1.096.607-5.083 2.733-8.969 4.858-3.787 2.024-9.665 5.362-12.953 7.284-3.287 2.021-6.775 3.844-7.673 4.25-1.397.408-1.789 1.711-1.765 5.41.018 2.7-.368 4.903-.968 4.907-.5.003-4.112-1.873-8.027-4.148-4.618-2.67-7.031-4.755-7.039-5.955-.006-1 1.473-4.21 3.354-7.121a907 907 0 0 0 7.127-11.447c2.077-3.513 4.159-6.327 4.659-6.33.4-.003.71 1.595.722 3.495.023 3.5 1.53 4.59 3.517 2.578.597-.504 3.684-2.424 6.973-4.245 17.737-9.715 22.023-11.943 22.722-12.047.4-.003.626 3.896.557 8.696"/><path d="M121.09 1134.221c-1.393 1.009-1.781 2.812-1.754 7.011.02 3.1.336 5.598.836 5.595 2.1-.013 7.172-4.346 7.758-6.55 1.364-5.609-2.76-9.282-6.84-6.056m5.223 3.366c.018 2.9-2.354 7.216-4.054 7.227-.5.003-.914-2.294-.932-4.994-.03-4.7.168-5.002 2.468-5.016 2.1-.014 2.503.483 2.518 2.783M115.33 1140.258c.028 4.3-1.664 5.611-2.587 2.117-.82-3.195-2.817-2.682-3.194.82-.282 2.803-2.176 3.815-2.193 1.215-.005-.8-.51-1.497-1.11-1.493-.7.005-.893 1.006-.482 2.703.41 1.598 1.026 3.994 1.336 5.492.93 4.694 3.317 2.678 3.282-2.722-.022-3.5 1.774-4.011 2.994-.919 1.525 3.79 2.714 2.083 3.469-4.922.474-3.904.363-5.703-.437-5.698-.6.004-1.09 1.507-1.078 3.407M99.17 1146.663c-2.59 1.317-2.788 1.818-2.748 7.918.026 4.1.44 6.297 1.038 5.893.598-.304.99-1.606.981-2.906-.009-1.4.982-2.807 2.477-3.616 1.395-.71 2.489-1.716 2.486-2.216-.007-1.1-1.807-.989-2.499.216-.989 1.706-2.493 1.116-2.506-.984-.008-1.2.983-2.507 2.479-3.216 1.396-.61 2.49-1.516 2.487-2.016-.007-1.1-.906-.894-4.194.927"/></svg>