<svg xmlns="http://www.w3.org/2000/svg" viewBox="0 0 992 1402" fill="currentColor"><path d="M205.2 244.7c-3.7 1.8-7.7 9.4-6.8 12.9.4 1.3 1.6 2.9 2.9 3.5 1.2.7 2.8 2 3.5 3.1 1.4 1.9 5.7 2.4 8.1.9.9-.6 4.2.9 10 4.5 9.6 5.9 11 6.3 13.3 3.6 2.8-3.1 3.1-5.9.9-8.1-1.2-1.2-2.1-2.3-2.1-2.4 0-.2 1.9-1 4.3-1.7 2.6-.9 9.2-1.4 17.1-1.4 9.4-.1 13-.4 13.3-1.4.4-.9-2.5-1.2-12-1.2-9.8 0-13.6.4-18.2 2-7.7 2.6-8.2 2.6-14.2-1.5-4-2.7-5-3.9-4.6-5.5.8-2.9-2.3-7-5.2-7-1.3 0-3.4-.4-4.8-.9-1.6-.6-3.3-.5-5.5.6m5.8 1.3c0 .5-.6 1-1.4 1s-1.8-.5-2.1-1c-.3-.6.3-1 1.4-1 1.2 0 2.1.4 2.1 1m6.8 1.2c.7.7 1.2 2.3 1.2 3.5 0 2-.3 2.2-1.9 1.3-3-1.5-4.8-1.2-7.1 1.2-2.6 2.9-2.7 7.5 0 8.3 3 1 2.4 2.5-1 2.5-2.3 0-3.1-.5-3.6-2.5-1-3.9.4-7.6 4.5-11.7 4-4 5.9-4.6 7.9-2.6m-11 .7c1 .6.9 1.6-.9 4.5-1.8 3.1-2.4 3.5-3.8 2.4-.9-.7-1.8-1.3-2-1.5-.5-.3 3.9-6.3 4.7-6.3.4 0 1.3.4 2 .9m11.3 6.8c2.2 1.4 3.8 2.9 3.6 3.2-.1.3-.9 1.8-1.6 3.3-1.7 3.4-2.8 3.5-7.2.5-3.8-2.6-4.2-6-1.1-8.3 2.2-1.7 1.6-1.8 6.3 1.3m-14.1 3.9c0 2.5-3.5 1.2-3.8-1.4-.3-2.1-.1-2.2 1.7-1.2 1.2.6 2.1 1.8 2.1 2.6m22 1.6c0 .7-1.1 2.6-2.4 4.3-2.1 2.6-2.5 2.8-3.1 1.2-.9-2.1 1.9-6.7 4-6.7.8 0 1.5.6 1.5 1.2m3.8 2.5c-.3.5-1.1 2.3-1.8 4.1-1.5 3.4-3.3 3.8-3.8.8-.4-2 2.5-5.6 4.5-5.6.8 0 1.3.3 1.1.7m4.2 2.3c0 .5-.4 1-.8 1-.5 0-1.5 1.5-2.4 3.2-1.3 2.7-1.7 3-2.3 1.6-.8-2 2.1-6.8 4.1-6.8.8 0 1.4.4 1.4 1m3 3.7c0 1.8-2.8 5.3-4.2 5.3s-.9-4.3.8-6.1c1.8-2.1 3.4-1.6 3.4.8M521.5 245.5c-2.9 2.8-3.2 5.1-1 7.6 1.5 1.5 1.1 2.1-4.2 6.5-17.3 14.6-17.6 15.4-13 31.6.5 2.1 2.7 5.4 4.8 7.5 3.7 3.6 3.9 4.1 3.9 10.1 0 8.7 1.7 11.3 10 16.2 5.7 3.3 7.5 5 9.4 8.8 3 5.8 7 17.9 9.1 26.9 1.6 6.8 1.6 6.8 11.1 13.1l9.6 6.3 4.4-3.6c2.4-2 5.1-4.3 6-5.2 1.4-1.5 1.8-1.4 4 1.1 2 2.1 3.1 2.5 5.2 2 3.4-.8 5-2.1 5.7-4.5.4-1 1.1-1.9 1.6-1.9 1.7 0 14.3-7.7 17.1-10.5 3-3 5.3-11 4.4-15.3-.4-1.6 0-4.3.9-6.5 2.7-6.5 1.6-15.6-2.5-21.7-1-1.4-2.3-4.3-3-6.5s-2.1-5.7-3.2-7.8c-1.1-2.2-1.7-4.1-1.4-4.4s6.9-.5 14.6-.4c9.2.1 14-.2 14-.8 0-.7-2.3-1.1-5.5-1.1-4.3 0-5.6-.4-6.4-1.9-.9-1.6-1.6-1.7-5.8-.9-2.6.6-6.6 1.4-8.8 1.8-3.9.8-6.5-.1-6.5-2.2 0-2.9-15-18.8-22.7-24.1-5.1-3.5-14.9-7.6-18.3-7.7-1.4 0-4.5-1.1-6.9-2.5-2.3-1.4-4.8-2.5-5.3-2.5-2.3 0-7.8-3.3-8.3-5-.5-1.6-7-5-9.6-5-.5 0-2.1 1.1-3.4 2.5m3.7.2c-.6.2-1 .9-.6 1.4.3.5 1.3.5 2.5-.2 1.6-.8 2.4-.7 3.7.8.9 1.1 2.7 2.6 4 3.5 2.3 1.6 2.3 1.6-2.8 2.3-3.7.5-5.5.4-6-.5-.6-.9-.9-.9-1.3.1-.3.8-.6.2-.6-1.2-.1-1.6-.8-3-1.8-3.4-1.7-.6-1.7-.7.1-2.1 1.1-.8 2.5-1.4 3-1.3.6 0 .5.3-.2.6m-3.5 6c-.4.3-.7 0-.7-.7s.3-1 .7-.7c.3.4.3 1 0 1.4m30.2 7.8c4.2 2.6 8.7 5.5 10.1 6.6 2.5 2.1 2.5 2.1-.3 1.6-1.5-.2-3 0-3.3.4-.3.5.9.9 2.5.9 1.7 0 3.1.4 3.1 1 0 .5-.4 1-.8 1-.5 0-1.9.9-3.2 2-3.3 2.8-.7 2.5 4.1-.5 4.1-2.7 5.9-2.6 5.9.3 0 1.5-.2 1.5-1 .2-1.3-2-4.2-.2-5.5 3.4-.7 2-.6 2.9.4 3.6 1.6 1 4.1.2 4.1-1.2 0-.6-.7-.7-1.6-.4-1.1.4-1.5 0-1.2-1.6.5-3.2 2.5-3.3 3.1-.1.7 3.8-1.7 6.3-6 6.3-2 0-3.2.4-2.8 1 .3.5 1.5 1 2.6 1 2.7 0 2.4 1-2.2 8.5-3.3 5.1-4 7.2-3.6 9.4.4 1.8.2 3.1-.5 3.3-.6.2.4 1.4 2.4 2.6 7.8 4.8 18.3 18.1 22.5 28.5 3 7.4 4.7 23.7 2 20.3-1.3-1.8-1.5-1.3-2.2 6-.8 8.9-1 9.5-2.9 8.8-1.1-.4-1.4-3.1-1.3-11.7 0-6.4-.5-13.1-1.2-15.7-3.7-12.9-15.6-29.7-24.2-34.1-2.2-1.1-3.9-2.6-3.9-3.3 0-.8-1.1-2.1-2.5-3s-3.4-3.5-4.6-5.8c-1.8-3.5-2.1-5.4-1.7-11 .5-5.8.3-6.6-.8-5.1-.7 1-1.4 1.4-1.4 1 0-1.4 2.2-5.1 4.2-6.9 2.9-2.5 1.8-5-3.4-7.8-6.3-3.4-6.4-3.6-4.2-6.2 1.9-2.1 1.9-2.1-.1-1.4-4.9 2-7.5 0-2.8-2.1 2.3-1.1 3.1-1 6 .7 3.8 2.2 4.3 2.4 4.3 1.1 0-.5-1.3-1.4-3-2.1-1.6-.7-3.5-1.8-4.1-2.6-1-1.2-.1-1.4 5.1-1.4 5.6 0 7 .5 13.9 4.5m-22.5-2.6c.3.5-.1 1.2-1 1.5-2.7 1-4.4.7-4.4-.9s4.5-2.1 5.4-.6M522 259c0 .6.8 1.4 1.8 1.7 3.2 1.2 4.2 3.6 2.4 5.7-1.6 1.8-1.6 1.8.4 1.2 1.7-.5 2.3-.2 2.8 1.6.5 1.9-.6 3.5-6.7 9.3-8.6 8.2-10.7 11.2-10.7 15.7 0 6.2 7.4 10.1 12.2 6.4 1.5-1.1 1-1.2-3.4-.8l-5.1.5.6-5.9c.5-5.4.5-5.7-.8-3.4-1.7 3-2 .8-.4-2.2 1.2-2.1 10.4-11 14.3-13.8 1.8-1.3 6.9-1.5 8.8-.4.4.3-.4 2-1.7 3.9-3.2 4.9-4.1 11.9-2 17.5.9 2.5 2.1 6.5 2.6 8.9.7 3.6 2 5.4 7 9.9 6.1 5.5 6.1 5.5 3.3 7.7-2.7 2.2-2.7 2.2 0 5.7 1.4 2 4.2 7.3 6.2 11.9 2.4 5.9 3.3 7.3 2.9 4.8-.3-2-2.1-6.7-3.9-10.5-3.3-6.8-3.4-9.4-.1-9.4 1.8 0 6.5 6.2 10.6 13.9 2.5 4.7 4.5 7.1 7.6 9 2.4 1.4 4.3 2.9 4.3 3.2s-1.4.6-3 .6c-1.7 0-3.6.6-4.3 1.3-1 1-.8 1.2 1.1.7 3.1-.7 2.8 0-.8 1.8-2.8 1.4-3.4 1.4-8.1-.6-4.8-2.1-5.2-2.6-9.9-12.1-2.8-5.4-5-11-5-12.3 0-1.5-1.9-4.3-5.1-7.7-2.8-2.9-4.9-4.5-4.5-3.5.4 1.1-.2 3-1.4 4.7-1.1 1.5-2 3.4-2 4 0 2.2-2.7-.8-5.5-6.2-1.5-2.8-3.1-5.5-3.6-6.2-.5-.6-3.3-4.3-6.1-8.1-2.9-3.9-6.1-7.9-7.1-9-3.5-3.8-5.5-8-6.7-14.6-1.5-8.5-.9-9.9 9.6-18.9 7.9-7 9.4-7.9 9.4-6m41.5 3c10.4 4.5 21 13.7 29.9 26.3 3.9 5.5 4.6 7.1 3.5 7.8-.8.5-1.7.9-2.1.9s-1.9 1.2-3.3 2.6c-2.6 2.5-2.6 2.5-4.4.2-1.1-1.3-2.3-2-2.7-1.6-.4.5.2 1.6 1.3 2.5 1 1 2.2 2.6 2.6 3.5.5 1.5 0 1.8-3.6 1.8-2.3 0-7.9.5-12.5 1.2-6.1.8-8.9.8-10.7 0-3.6-1.7-3.1-2.7 2.7-5.1 2.8-1.2 4.9-2.4 4.6-2.7s-2.3.2-4.3 1c-7.9 3.4-8.7 1.9-3.3-6.1 1.5-2.3 2.8-4.6 2.8-5.2s.5-1.1 1-1.1c.6 0 1-.4 1-.9s1.4-3.2 3.1-5.9c4.3-7 3.8-9.7-2.8-14.2-2.8-2-6.2-4.4-7.5-5.3-3.2-2.2-.9-2.1 4.7.3m-27.6 8.2c3.5 1.9 5.3 3.8 3.6 3.8-.7 0-8.5-5.2-8.5-5.6 0-.7.8-.4 4.9 1.8m34.1 6.3c0 .3-.2.5-.5.5s-.5-.2-.5-.5.2-.5.5-.5.5.2.5.5m-34.3 13.7c-.2 1.3-.4.5-.4-1.7-.1-2.2.1-3.2.4-2.3.2 1 .2 2.8 0 4m2.3 8.3c0 .3-.2.5-.5.5s-.5-.2-.5-.5.2-.5.5-.5.5.2.5.5m62.9 2.7c.7 1.8 1.9 4.6 2.6 6.3 2 4.7 2.9 7.9 2.6 9.3-.1.7.4 1.1 1.1 1 1.9-.5 3.8 6.2 3.3 11.5-.6 4.7-3.9 11.7-5.6 11.7-.6 0-.7-1.5-.3-3.5.4-2.3.2-3.5-.5-3.5-.6 0-1.1 1.7-1.1 3.8 0 5.6-1.5 6.9-9.9 8.1-4 .7-7.5 1-7.6.9-1-1-2.3-8.4-1.6-8.6.4-.1 1.7-.9 2.7-1.8 1.8-1.3 1.7-1.4-.9-.8-2.9.7-5.7-.9-5.7-3.3 0-.7.9-2.4 2.1-3.6 4.1-4.4 6.1-9.6 5.7-15.3-.1-3 0-5.4.4-5.4.3 0 2-1.2 3.7-2.6 3.7-3.1 5.4-2.7 8.2 2.1 2.7 4.5 3.6 3.9 1.3-.8-2.2-4.5-5.4-6.1-8.3-4-3.5 2.4-3.9.4-.6-2.3 4.2-3.4 6.7-3.1 8.4.8m-61.9-.7c0 .3-.2.5-.5.5s-.5-.2-.5-.5.2-.5.5-.5.5.2.5.5m6 10c0 .6 1.8 2.9 4 5s4 3.4 4 2.9c0-.6-1.3-2.3-3-3.9-3.7-3.6-3.1-4.4 1.2-1.7 3.7 2.3 9 7.8 12.8 13.2 1.4 1.9 2.7 3.7 3 4 1.1 1 7 15 7 16.6 0 3-6.1-2.1-9.2-7.7-5.2-9.4-9-14.3-17.4-22.8-8.4-8.4-11.5-13.4-5.4-8.9 1.7 1.2 3 2.7 3 3.3m-22.5 7.3c2.6 4 4.5 7.5 4.2 7.9-.3.3-1.9-.4-3.5-1.6-1.7-1.2-3.5-2.1-4-2.1-2.4 0-5.2-5.8-5.2-10.6 0-4.7 0-4.7 1.8-2.8 1 1.1 4 5.2 6.7 9.2m60.5-8.6c0 .6 1 2.2 2.2 3.5 1.9 2 2 2.7 1 6-1.4 4.7-6.8 11.3-7.9 9.7-2.9-4.2-6.4-8.6-10.5-12.9l-4.7-5 6.7-1.1c9.3-1.6 13.2-1.6 13.2-.2m2.7 1.5c-.4.3-.7 0-.7-.7s.3-1 .7-.7c.3.4.3 1 0 1.4m-44.6 15.4c3.4 3.6 3.6 5.4 1 6.9-2.8 1.5-6.1 1.2-6.1-.5 0-.7-.7-1.8-1.6-2.3-1.5-.9-1.5-1.2.2-4.1 1-1.7 2.2-3.1 2.7-3.1s2.2 1.4 3.8 3.1m9.9-2.7c0 .2-.7.7-1.6 1-.8.3-1.2.2-.9-.4.6-1 2.5-1.4 2.5-.6m-13 11.9c.8 0 2.4-.2 3.5-.6 1.8-.6 2.6.4 6.3 7.3 2.3 4.5 4.2 8.8 4.2 9.6s-.9 3.2-2 5.4c-3.5 6.9-1.9 12.1 4.4 14.4 2.1.7 8.9-2.2 12.7-5.6 1.3-1.2 3.7-3.3 5.3-4.7 2.9-2.6 2.9-2.6 2.3 1.7-.5 4.4-.9 4.9-9.4 11.9l-4.2 3.4-9-6c-8.1-5.5-9.1-6.5-9.7-9.8-.3-2.1-1.5-6.5-2.5-9.7-1-3.3-1.9-6.3-1.9-6.8 0-.7-3.3-8.4-4.8-11.2-.3-.6.3-.6 1.4-.1 1 .4 2.6.8 3.4.8m70 8.3c0 .8-.4 1.2-1 .9-.5-.3-1-1-1-1.6 0-.5.5-.9 1-.9.6 0 1 .7 1 1.6m-3.1 3.5c-1.3 2.6-2.3 1.8-1.4-1 .3-1.2 1.1-1.9 1.6-1.6.5.4.5 1.4-.2 2.6m2 3.5c-.6 2.1-1.7 4.5-2.4 5.3-1.1 1.1-1.5 1-2.4-.8-.7-1.1-3.3-3.1-5.9-4.3-4.5-2-4.6-2.2-2.2-2.9 4.6-1.3 6.7-1 7.3 1.1.7 2.8 3.5 2.5 4.9-.5 1.6-3.5 1.9-2.6.7 2.1M590 349c0 .5-.4 1-1 1-.5 0-1-.5-1-1 0-.6.5-1 1-1 .6 0 1 .4 1 1m-.4 3.5c1.9 1.5 1.9 1.5 0 3-2.9 2.2-3.6 1.9-3.6-1.5s.7-3.7 3.6-1.5m4.9-.5c.3.5-.1 1-.9 1s-1.8-.5-2.1-1c-.3-.6.1-1 .9-1s1.8.4 2.1 1m4 2c.3.5-.1 1-1 1s-1.3-.5-1-1c.3-.6.8-1 1-1s.7.4 1 1m-45.1 2.2c-.6 2.2-.6 2.3 1.4.5 1.9-1.8 2.1-1.7 5.8.2 4.9 2.6 5.2 2.6 9.6-.4 2-1.4 3.9-2.5 4.2-2.5 3.3 0-7 10.4-14 14.1-4.8 2.6-6.6 2.2-8.8-2.2-2-4-2-5.2-.1-8.9 1.8-3.5 2.9-3.9 1.9-.8m39.4 1c-.6 1.8-2.8 2.1-2.8.4 0-.9.7-1.6 1.6-1.6s1.4.5 1.2 1.2m4 0c2 2 1.4 3.2-3.2 6-4.9 3.2-7.1 3.5-8 1.2-1.4-3.6-.7-4.7 2.4-4.1 3.9.8 6 0 6-2.4 0-2.2 1.1-2.4 2.8-.7m3.8 1.5c-1 1-1.9-.5-1-1.8.6-1.1.8-1.1 1.2 0 .2.7.1 1.5-.2 1.8m-16.4 9.3c.2 1.8-.2 3.5-.8 3.7-1.6.6-2.2-1.6-1.6-6.1.5-4.5 2-3.1 2.4 2.4"/><path d="M514.7 266.2c-6.1 5.4-8.7 10-8.7 15.2.1 3.8 2.2 12.2 3.4 13.3.5.4.6-.3.3-1.7-.4-1.4-1-5.5-1.3-9.1-.8-8.2.5-10.9 8-16.9 5.2-4.2 6.7-6 4.9-6-.5 0-3.4 2.3-6.6 5.2M558 352c0 .7 2.4 2 3.6 2 1.3 0 .1-1.9-1.6-2.3-1.1-.3-2-.2-2 .3M587.6 286.5c-.3.8-.1 1.5.3 1.5.5 0 1.1-.7 1.5-1.5.3-.8.1-1.5-.3-1.5-.5 0-1.1.7-1.5 1.5M312.5 252.6c-3.3 3.3-.8 13.2 2.9 11.8.8-.3 1.6-1.4 1.9-2.4.6-2.5-1.9-6.1-3.8-5.4-.8.4-1.5.2-1.5-.4 0-1.5 2.8-3.4 4-2.7.5.3 1 .2 1-.3 0-1.8-2.9-2.1-4.5-.6m3.3 8.2c.2 1.2-.1 2.2-.6 2.2-1.5 0-3.4-2.8-2.7-4 1-1.7 3-.6 3.3 1.8M339.9 253.4c-1.4 3-.3 9.5 1.7 10.3 4.1 1.5 6.3-7.7 2.6-11-2.5-2.2-3-2.1-4.3.7m3.9 4.3c-.2 2.7-.7 4.8-1.3 4.8-.5 0-1.1-2.1-1.3-4.8-.3-3.8 0-4.7 1.3-4.7s1.6.9 1.3 4.7M349.6 252.6c-.5 1.2-.1 1.4 1.6.9 1.8-.6 2-.4 1.5 1.5-.3 1.2-.1 3.1.6 4.1 1.5 2.5.1 3.6-2.5 2-1.8-1.1-2-1.1-1.4.4.3.9.6 1.9.6 2.1 0 1.3 4 .1 4.4-1.4.7-2.1.1-8.5-.8-10.1-1-1.6-3.3-1.4-4 .5M359.3 251.7c-.7.2-1.3 1.8-1.3 3.5 0 2.5.3 2.8 2 2.3 2.3-.7 3.6 1.4 2.6 4.1-.5 1.3-.9 1.4-2.1.4-1.1-.9-1.5-.9-1.5-.1 0 2.1 3.2 2.5 4.6.6 2.1-2.8-.3-8.4-2.8-6.9-.4.3-.8-.2-.8-1 0-.9.7-1.6 1.5-1.6s1.5-.5 1.5-1c0-1-1.6-1.2-3.7-.3M275.2 253.2c-2 2-1.5 5.9.8 6.5 1.2.3 2 1.4 2 2.5 0 1.5-.5 1.9-2 1.5-2.3-.6-2.8.8-.6 1.6 3.7 1.4 6.2-7.6 3.2-11.6-1.6-2-1.8-2.1-3.4-.5m2.8 2.8c0 1.1-.7 2-1.5 2s-1.5-.9-1.5-2 .7-2 1.5-2 1.5.9 1.5 2M283.5 254c-1 3 .4 6 2.6 6 1.4 0 1.9.5 1.7 1.7-.3 1.2-1.2 1.7-2.6 1.6-1.4-.2-2.1.1-1.7.7 1 1.7 4.4 1.1 5.5-.9 2.3-4.3.3-11.1-3.3-11.1-.9 0-1.9.9-2.2 2m4.3 2.3c.2 1.2-.3 1.7-1.7 1.7-1.2 0-2.1-.6-2.1-1.3 0-3.1 3.2-3.4 3.8-.4M293 253c0 .5.7 1 1.6 1 1.2 0 1.5.6 1 2.2-1.5 5.1-1.9 9.1-.9 8.5.6-.4 1.3-2.1 1.6-3.9s.9-4.5 1.2-6.1c.7-2.4.5-2.7-1.9-2.7-1.4 0-2.6.4-2.6 1M302.7 252.7c-.4.3-.7 1.9-.7 3.4 0 2.2.4 2.7 1.6 2.2 1.8-.7 3.5 1.4 2.7 3.4-.3.8-1.3 1.1-2.4.8-2.3-.8-2.6 1-.3 1.9 4.4 1.7 5.9-6 1.7-7.9-2.8-1.2-3-2.5-.3-2.5 1.1 0 2-.5 2-1 0-1.1-3.3-1.4-4.3-.3M332.2 253.3c-.9 1-1 1.7-.2 2.2.5.3 1 2.4 1 4.6 0 2.1.5 3.9 1 3.9 1.1 0 1.2-2.7.2-8.4-.6-3.4-.9-3.7-2-2.3M439.3 255.1c-1.8.5-3.3 1.1-3.3 1.2 0 .2 2.9.3 6.5.3s6-.3 5.3-.7c-2.7-1.4-5.4-1.7-8.5-.8M454 258.5c3.3 1.9 5 1.8 2.6 0-1.1-.8-2.7-1.5-3.5-1.5q-1.5.15.9 1.5M322 259c0 .5.9 1 2 1s2-.5 2-1c0-.6-.9-1-2-1s-2 .4-2 1M428.5 260.5c-2.2 1.3-3.4 2.5-2.6 2.5 1.4 0 8.1-3.8 8.1-4.6 0-.9-1.7-.3-5.5 2.1M462 261.9c0 .9 3.4 3.3 6.3 4.4 3.2 1.2 1.7-.8-2.3-3.1-2.2-1.2-4-1.8-4-1.3M421.6 264.9c-.3.5-2.2 1.6-4.2 2.6-1.9.9-3.3 1.9-3 2.2.6.7 8.6-3.8 8.6-4.9s-.7-1-1.4.1M478.8 272.1c3 1.7 5.6 2.8 5.8 2.6.7-.6-8.1-5.7-9.8-5.7-.7 0 1.1 1.4 4 3.1M239.5 273.9c.8 1.3 6.5 4.1 6.5 3.2 0-.4-1.6-1.5-3.6-2.4-1.9-1-3.3-1.3-2.9-.8M403.2 275.7c-6.1 3.7-4.4 4 2 .4 2.9-1.7 4.6-3.1 3.8-3.1-.8.1-3.4 1.2-5.8 2.7M488 276.8c0 .9 10 6.5 10.6 5.9.4-.4-9.2-6.7-10.2-6.7-.2 0-.4.4-.4.8M250 279.7c0 .5 2.3 2 5 3.4 6.2 3.3 6.6 2.1.6-1.5-4.7-2.8-5.6-3.1-5.6-1.9M390.7 282.7c-2.6 1.4-4.5 2.8-4.3 3.1.7.6 9.6-4 9.6-5s.3-1.1-5.3 1.9"/><path d="M284.2 286.7c-1.8.9-4.5 3.3-6 5.4s-3.4 3.9-4.2 4c-6 .7-14-1.4-14-3.6s-2.3-3.3-10-4.9c-13-2.7-22.4-1.7-27.5 3-2.2 2-2.5 3.2-2.5 8.8 0 6 .2 6.7 2.6 8.3 1.4.9 6.5 2.4 11.3 3.3 10.6 2.1 14.5 3.8 14.9 6.7.2 1.1-1.1 7.7-2.8 14.4-1.8 6.8-3.5 13.9-4 15.7s-2.6 7-4.9 11.5c-4.3 8.8-6.2 15.7-6.3 22.2 0 3.7-.4 4.3-3.9 6.3-5.4 3.1-8.1 7.6-7.6 12.4.5 3.6.2 4.1-8.7 12.6-10.9 10.4-16.2 13.7-23.6 14.6-6.9.9-13.5 3.8-15 6.5-1.6 3.1-.2 15.6 2 18.3 1.4 1.7 3.1 2.3 8.4 2.6 7.8.5 14.2-1.5 19.4-6 1.8-1.5 3.7-2.8 4.1-2.8 1.3 0 2 38.6 2.7 139.5.3 48.9.8 89.3 1.1 89.7.2.5 13.6.8 29.6.8h29.3l-.4 10c-.2 6.5.1 10 .8 10 .6 0 1-3.7 1-10v-10h50.9c39.8 0 51-.3 51.3-1.3.8-2.4-.4-22.7-1.3-22.7-.6 0-.9 4.2-.8 10 .1 5.5 0 10.2-.2 10.5-.6.5-78.9.8-79.5.3-.1-.2-.4-11-.6-24l-.3-23.6 21.4-.1c11.8-.1 21.8-.4 22.3-.7 1-.6.3-40.9-.8-42.5-.4-.7-13.6-.9-44.8-.4-24.2.4-44.4.9-44.8 1.2-.5.2-.8 9.6-.8 20.7 0 16.2.3 20.6 1.4 21.5 1 .8 7.9 1.1 22.7 1.1l21.4-.2.3 23.5.3 23.5-5.9.4c-3.2.2-20.6.5-38.6.7-26 .1-32.7-.1-33-1.1-.3-.7-.7-52.4-.9-114.9-.5-112.1-.5-113.6 1.5-114.8 7.9-4.9 26.2-13.4 31.5-14.7 9.2-2.1 14.8-4 22.8-7.8 6.7-3.2 21.5-13.5 24.4-16.9 1.8-2.2 4.3-2.1 8.9.2 2 1 4.2 1.6 4.9 1.4.6-.2 4.8 1.7 9.3 4.3 7.5 4.3 8.3 4.6 10.7 3.3 4.8-2.6 8.1-9.4 6.9-14.3-.3-1.4-1.8-2.9-3.6-3.6-4.3-1.8-4.5-2.5-1.6-6.3 1.4-1.8 3.1-5.6 3.7-8.4 1.6-6.6.2-9-7.6-12.7-6.3-3.1-10.9-3-14 .4-1 1.1-2.4 2-3.2 2-2 0-13.3-5.9-13.3-7 0-.5-1.3-2.2-3-3.7-2.5-2.4-3.3-4.5-5.3-14.6-1.9-9.3-2.2-12.7-1.5-16.2 1.4-6.4 4.6-10.7 10.2-13.4 2.7-1.4 4.4-2.7 3.7-2.9s-1.8.1-2.4.7c-1.5 1.5-6 1.4-7.5-.1-4.9-4.9 5.6-20.8 13.7-20.8 3.2 0 5.4 4.1 4.1 7.5-.6 1.5-.8 3-.5 3.3q1.35 1.35 2.1-3.9c.7-4.4-2.1-8.1-8.7-11.4-5.7-2.9-7.2-3-11.7-.8m-35.4 2.4c1.3.5 3.4.9 4.7.9s3 .7 3.7 1.6 2.3 2.6 3.6 3.9c2.5 2.5 2.5 2.5-3.6 5.6-2.5 1.3-4.1 1.5-6.5.8-4-1.1-5.7-1.1-5.7 0 0 .5 2 1.2 4.4 1.5 3.7.6 5.2 1.5 8.5 5.4l4.1 4.6 5.5-2.7c4.1-2 5.7-2.4 6-1.5.6 1.6 2.7 11.1 6 27.8 1.4 6.9 2.7 13.3 2.9 14.2.2 1.1-.1 1.5-1 1.1-.8-.3-1.4-.9-1.4-1.3s-1.5-1.3-3.2-2.1c-4.1-1.6-4.8-2.6-4.8-6.5 0-3.7-3.3-7.6-5.8-6.7-4.6 1.6-8.2 7.7-8.2 14 0 3.2-2.4 9.3-3.7 9.3-.6 0-.5-.5 2.7-14.8 4.8-22 6-27.6 5.9-28.6-.2-3.5-4 11.9-8.9 36-1 4.6-3.5 11.8-7.4 20.9-1.4 3.3-2.6 7.4-2.6 9.2-.1 10.3-4.3 19.5-12.3 26.9-11.4 10.5-21.8 19.7-26.2 23-4 3.1-4.6 3.3-5.1 1.7-.4-1-1.7-2.7-3.1-3.9-2.4-2.1-2.4-2.1 1.9-4.9 2.4-1.6 8.4-6.9 13.5-11.8 5-4.9 10.1-9.6 11.2-10.4 1.1-.7 3.5-3.5 5.3-6.1 2.9-4.1 3.2-5.4 3.1-10.7-.3-8.8 1.3-15.6 6.3-25.9 3-6.2 5.7-14.3 8.5-25.4 3.8-15.3 3.9-16.5 2.4-18.8-.8-1.3-3.1-3-5-3.8-3.1-1.3-3.5-2-3.7-5.3l-.1-3.8-.4 3.8c-.4 3.9-.4 3.9-4.6 3.4-12.3-1.6-13.7-2.4-13.7-7.9 0-3.9 0-3.9 3.8-3.2 2 .4 5.9 1.3 8.7 2 4.7 1.1 6.6 1.1 5.3-.1-.3-.3-3.2-1-6.4-1.7-9.2-1.7-11.5-2.8-11.2-5.2.8-5.2 17.3-8 26.6-4.5m45.7-.9c3.2 1.4 3.2 2.6-.1 3.8-3.6 1.4-8.7 6.9-10.3 11.1-2.8 7.5-3 7.6-3 3.1-.1-4.2-.1-4.2-5-4.2-3.4 0-5.6-.6-7.2-2-2.4-1.9-2.4-1.9 1.9-2 4 0 4.8-.5 9.6-5.5 5.5-5.9 8.6-6.8 14.1-4.3m-26.5 14c1.6 1.8 3 3.8 3 4.4 0 .5-2 2-4.4 3.2-4.5 2.1-4.5 2.1-7.3-1.4-1.5-2-2.8-4-2.8-4.5 0-.8 5.6-4 8.3-4.8.1-.1 1.6 1.4 3.2 3.1m11.7 5.5c.1 2 .7 4 1.5 4.4.7.4 2.2 1.4 3.2 2.2 1.9 1.4 1.9 1.5 0 4.3-1.1 1.6-2.6 4.2-3.3 5.9-1.2 2.8-1.4 2.8-2.1 1-.4-1.1-1.6-5.4-2.5-9.5s-2.3-8.5-3.1-9.8c-1.4-2.1-1.4-2.2 2.4-2.2 3.7 0 3.8.1 3.9 3.7m-11.3 29.9c1 .4 1.6 1.9 1.7 3.8.1 5.1 1.3 6.9 6.4 9.6 6 3.1 7.4 5.7 1.6 2.9-5.1-2.4-7.1-2.4-12.6.2-6.7 3.1-12.3 10.6-15.9 21-3.4 9.6-.9 16.4 7.7 20.9 2.6 1.4 4.7 2.8 4.7 3.1 0 1.5-7.7 1.6-10.7.2-10.2-4.7-7.5-26 5.2-40.1 2.5-2.8 4.1-5.2 3.6-5.4-.5-.1-.6-2.7-.4-5.6.4-3.9 1.3-6 3.3-8.2 3-3.3 3.1-3.3 5.4-2.4m9.1 17.6c3.3 1.5 3.2 2-.7 3.7-5.1 2.3-11.7 9.6-15.1 16.9-2.5 5.4-3.2 7.9-3.1 12.9 0 6.2 0 6.2-2.7 4.7-4.1-2.1-5.9-5.3-5.9-10.6 0-12.9 12-28.8 21.7-28.8 1.8 0 4.4.5 5.8 1.2m10.5 6c1.1 1.2 2 3 2 4 0 1.7-.3 1.7-3.3-.6-3.6-2.7-8.4-3.4-11.8-1.6-3.1 1.7-2.2.4 1.4-1.9 4.3-2.7 9.1-2.7 11.7.1m-12.6 5c-1.6 1.2-3.7 3.1-4.8 4.3-3 3.3-6.6 12.2-6.7 16.8-.1 4.1-.1 4.1-1.1 1.4-1.4-3.8.4-10.7 4.2-16.2 3.2-4.6 7.6-8.4 9.9-8.5.7 0 .1 1-1.5 2.2m11.8.5c1 .9 1.8 2.4 1.8 3.5 0 2.2.1 2.2-4.4.3-3.3-1.4-4-1.4-6.9 0-3.9 1.9-7.5 7.1-8.3 12.4-.6 3.5-.3 4.3 2.1 6.5 1.5 1.4 3.4 2.6 4.2 2.6 2.3 0 .9 2.4-2 3.4-1.9.7-3.2.5-5.1-.8-2.3-1.4-2.6-2.3-2.6-7 0-14.1 13.7-27.7 21.2-20.9m17.2 4.8c3.1.9 5.7 1.9 6 2.3.2.4-.3 2.4-1.2 4.4l-1.6 3.7-7.8-4.1c-7.7-4-7.8-4.1-7.8-7.9 0-3.9 0-3.9 3.5-1.9 1.9 1 5.9 2.6 8.9 3.5m14-3.8c3.6 1.6 3.6 1.6.6 3.5-2.3 1.3-3.9 1.6-6.7 1-4.6-1-5.2-2.6-1.6-4.6 3.5-1.9 3.5-1.9 7.7.1m-22.8 9.7c12.5 6.4 12.5 6.4 9.6 8.5-3.3 2.3-7.2 9.4-7.2 12.9 0 1.2-.5 2.2-1 2.2-.6 0-6.5-2.8-13.2-6.2-7.8-4-12.4-7-13.1-8.5-2-4.5 5.3-15.3 10.4-15.3 1.1 0 7.6 2.9 14.5 6.4m30.5-5.4c3 1.7 2.6 8.6-1 14.2-1.6 2.5-3.4 4.8-3.9 5.2-1.2.7-7.2-2.5-7.2-3.8 0-.5-.7-1.7-1.5-2.6-1.3-1.4-1.2-1.9.1-4.5 2-3.8 5.4-7.5 7.9-8.5 2.7-1.2 3.3-1.2 5.6 0m-13.9 6c-.9 1.6-1.8 2.5-2 2-.4-1.2 1.7-5 2.8-5 .5 0 .1 1.3-.8 3m-48.9 14.8c.6.7 2.7 2.2 4.6 3.2l3.6 1.9H268c-1.9.1-4-.3-4.6-.7-2-1.3-3.4-5-3.3-8.9l.1-3.8 1 3.5c.5 1.9 1.5 4.1 2.1 4.8m49.1-5.3c.4 1.1-.2 1.5-2 1.5-5 0-10.1 8.1-7.5 12.2.9 1.5.8 1.8-.8 1.8-4.3 0-3.1-8.6 2-13.8 3.3-3.4 7.3-4.2 8.3-1.7m-81.4 1.7c0 2-3.8 7.7-6.8 10.3-2.3 2-2.8 2.1-3.5.8-1.3-2.1 1.1-7 4.7-9.8 3.4-2.7 5.6-3.2 5.6-1.3m77.7 3.5c-.8 1-2.1 3.1-2.7 4.7s-1.3 2.6-1.6 2.3c-1.1-1.1.6-5.6 2.8-7.7 2.6-2.4 3.8-1.8 1.5.7m7.3-1c-.1.5-1.4 2.4-3 4.3-1.8 2-3 4.6-3 6.2 0 3.1-1.1 3.6-3 1.3-1.4-1.7-.1-5.8 3.2-10 1.8-2.3 5.9-3.5 5.8-1.8m4 2.2c0 .5-.7 1.4-1.6 2.2-2.2 1.8-4.4 6.4-4.4 9.4 0 1.4-.4 2.5-.9 2.5-1.5 0-2.3-3.5-1.5-6.7 1-4.2 8.4-10.7 8.4-7.4m-72.6 4.7c2.8 3.6 2.8 3.6 0 6.5-3.9 4.1-8 3.8-7.7-.6.2-2.9 3.2-9.5 4.3-9.5.3 0 1.8 1.6 3.4 3.6M285 397c5.3 2.7 5.7 3.8 2.6 6.7-11.4 10.5-28.8 19.8-42 22.2-6.9 1.3-14.6 4.6-28.6 12.4-13 7.2-15 7.8-15 4.6 0-1.3-.3-3.3-.5-4.4-.4-1.5.3-2.6 2.7-4.1 2.8-1.9 15.8-13 29.1-25 3.8-3.5 3.8-3.5 5.6-1.3 2.3 2.9 5.4 2.1 10.2-2.4 3.7-3.5 4.6-3.8 16.9-5.2 5.6-.7 11.4-2.8 12.5-4.5.9-1.4 2.1-1.2 6.5 1m36.3 2.2c-1.7 1.8-3.4 4.8-3.8 6.6-.4 2.2-1.1 3-1.6 2.5-1.1-1.1 1-8.2 3.2-10.6.8-.9 2.3-1.6 3.3-1.7 1.7 0 1.6.4-1.1 3.2m8 .2c1.7 4.4-5.1 13.6-9 12.2-2.2-.9-1.1-8.1 1.8-11.2 2.5-2.7 6.4-3.2 7.2-1m-131.7 31.8c5.8 5.8-13.7 13.9-22.4 9.4-1.8-.9-3.2-2.3-3.2-3 0-2.4 3.4-5.6 7.5-7.1 5.2-1.9 15.9-1.5 18.1.7m2.4 9c0 1.3.3 3.3.6 4.5 1.2 4.5-7.7 9.3-17.1 9.3-6.4 0-9.2-2.2-10-7.5l-.7-4h8.9c7.3 0 9.4-.4 12.3-2.2 4.6-2.8 6-2.8 6-.1M330 603v20h-84l-.1-3.3c-.1-7.1-.1-31.3 0-33.4.1-2.3.1-2.3 32.8-2.5 18-.2 36.9-.4 42-.6l9.3-.2z"/><path d="M231.3 289.7c-2.3.9-1.5 4.2 1.2 4.9 3.7.9 7.5-.3 7.5-2.5 0-2.7-4.8-4-8.7-2.4m7.2 2.3c.7 1.2-3.9 2.4-6.1 1.6-.8-.3-1.2-1-.9-1.6.8-1.3 6.2-1.3 7 0M264.2 341.2c-1.5 1.5-1.6 4.5-.2 5.3 1.6 1 4-1.5 4-4.1s-1.9-3.1-3.8-1.2m2.3 1.8c-.3.5-1.1 1-1.6 1-.6 0-.7-.5-.4-1 .3-.6 1.1-1 1.6-1 .6 0 .7.4.4 1M318.5 379.6c-2.9 3.1-3.2 5.6-1 7.4 2.4 2 6.7-2.4 6.3-6.4s-2.2-4.3-5.3-1m4.5 1.1c0 1.8-2.8 5.3-4.2 5.3s-.9-3.2.9-5.2c2-2.2 3.3-2.3 3.3-.1M243.3 399.8c-1.7 1.1-2.1 5.4-.6 5.9s4.7-4.2 3.8-5.7c-.7-1.2-1.6-1.3-3.2-.2m.9 3.4c-.7.7-1.2.8-1.2.2 0-1.4 1.2-2.6 1.9-1.9.2.3-.1 1.1-.7 1.7M322.6 402.2c-1.8 2.5-2.1 5.4-.7 6.2 2.8 1.8 7.2-4.4 5-7-1.6-1.9-2.5-1.8-4.3.8m1.4 2.3c0 .3-.2.5-.5.5s-.5-.2-.5-.5.2-.5.5-.5.5.2.5.5M180.5 433.4c-1.1.8-1.6 1.9-1.2 3 .8 2.1 8 2.2 9.7.1 2.9-3.5-4.3-6.2-8.5-3.1m7.5 1.6c0 1.3-4.5 2.4-6.6 1.6-.8-.3-1.2-1-.9-1.6.8-1.3 7.5-1.3 7.5 0M253 586.5c-1 1.2-1 1.9-.2 2.7.9.9 1.2.9 1.2 0 0-.7.5-1.2 1-1.2 1.4 0 1.2 3.7-.2 4.4-1 .5-1 .7 0 1.2 1.4.7 1.6 5.4.2 5.4-.5 0-1-.5-1-1 0-.6-.4-1-1-1-1.5 0-1.2 2.6.5 4 2.8 2.3 4.4-.5 4.3-7.3-.1-7.9-1.9-10.7-4.8-7.2M265.3 585.7c-.7.3-1.3 1.4-1.3 2.5 0 1.6.3 1.8 1.4.9 2.2-1.9 3.1.7 1 3-1.6 1.7-1.6 1.9-.1 1.9 1 0 1.7.8 1.7 1.9 0 2.3-1.6 3.6-2.5 2.1-.8-1.3-2.5-1.3-2.5-.1 0 1.6 3.1 4.2 4.1 3.5 1.7-1 3.1-5.6 2-6.7-.5-.5-.7-2.6-.4-4.6.5-3.9-.7-5.3-3.4-4.4M286.4 587.5c-.4 1.4-.3 2.9 0 3.3.4.3.9-.4 1.3-1.6.3-1.2.9-1.9 1.4-1.6 1.5.9 1 4.2-1.1 7.6-2.9 4.8-2.7 7 .8 6.6 1.9-.2 2.8-.9 3-2.5.3-1.7-.1-2-1.8-1.6-2.1.6-2.1.6-.1-2.8 2.4-3.8 2.7-6.9.9-8.7-1.9-1.9-3.7-1.4-4.4 1.3M298 586.5c-1.8 2.1-2.4 9.8-1.1 12.4 1.6 3 4.7 2.7 5.5-.5.9-3.4-.1-6.2-2.5-6.9-1-.4-1.9-1.3-1.9-2 0-1.9 1.7-2.8 2.3-1.3.2.7.8 1 1.2.6.9-.9-.1-3.8-1.3-3.8-.5 0-1.5.7-2.2 1.5m3 9.5c0 1-.5 2.2-1 2.5-1.3.8-2.4-2-1.6-4.1.8-2 2.6-.9 2.6 1.6M309.9 585.3c0 .4-.1 4.2-.1 8.4-.1 6 .2 7.8 1.3 7.8s1.3-1.6 1.1-7.5c-.2-4.1-.8-7.9-1.3-8.5-.5-.5-.9-.6-1-.2M274.5 594c.3.5 1.7 1 3 1s2.7-.5 3-1c.4-.6-.8-1-3-1s-3.4.4-3 1M287.2 605.2c-1.5 1.5-1.6 4.8-.2 4.8.6 0 1-.9 1-2.1 0-1.1.5-1.7 1-1.4 1.5.9 1.2 3.7-1 8.3-2.7 5.5-2.5 6.2 1 6.2 2.6 0 3-.3 2.9-2.8 0-1.5-.3-2.1-.6-1.5-.2.7-1.1 1.3-1.9 1.3-1.2 0-1-.8.6-4 1.1-2.1 2-4.7 2-5.8 0-1.7-1.7-4.2-3-4.2-.3 0-1.1.5-1.8 1.2M297.6 606.2c-2.2 3.1-2 10 .2 12.8 1.7 2.1 1.9 2.2 3.6.5 2.4-2.5 1.8-7.7-1.1-9-2.4-1-3-2.9-1.4-3.9.5-.4 1.1 0 1.4.6.2.7.8 1 1.2.6 1-.9-.1-3.8-1.4-3.8-.5 0-1.7 1-2.5 2.2m3.4 8.8q0 3-1.5 3c-1.5 0-2.1-4-.8-5.3 1.4-1.5 2.3-.6 2.3 2.3M309.9 604.8c-.4 9.7 0 15.7 1.2 15.7 1.5 0 1.4-14.4-.2-16-.6-.5-.9-.5-1 .3M317.7 606c-.6 2.2.3 2.6 2.1.8 2.2-2.2 2.6.3.8 5-3.3 8.4-3.3 9.2.2 9.2 2.2 0 3.2-.6 3.7-2.1.4-1.1.4-2.3.1-2.6-.3-.4-.6-.1-.6.5 0 .7-.9 1.2-2 1.2s-2-.1-2-.3 1.1-3.1 2.4-6.4c1.3-3.4 2.1-6.4 1.8-6.7s-1.8-.6-3.3-.6c-1.8 0-2.8.6-3.2 2M253.3 605.7c-2.1.8-1.4 2.5.7 1.8 1.5-.5 2-.2 2 1.2 0 1.1-.5 2.4-1.2 3.1-.9.9-.8 1.5.6 2.5 1.1.8 1.5 1.9 1 3-.8 2.1-2.4 2.2-2.4.2 0-.8-.4-1.5-1-1.5-1.5 0-1.2 2.6.4 3.9.7.6 2.1.9 3 .5 1.4-.5 1.6-1.8 1.2-7.8-.2-3.9-.5-7.2-.5-7.4-.1-.3-2.5-.1-3.8.5M263.7 606.4c-.7 1.8.9 3.1 1.8 1.6.3-.5 1-1 1.6-1 1.4 0 1.1 2.2-.7 4.2-1.6 1.6-1.6 1.8 0 2.4 1.7.7 2.2 3.9.7 4.9-.6.3-1.4-.3-2-1.2-1.1-2.1-2.4-1.3-1.5 1 1.7 4.5 7.1 1.6 5.9-3.3-.3-1.4-.7-4.1-.8-6-.2-2.7-.7-3.6-2.3-3.8-1.2-.2-2.4.4-2.7 1.2M274 613c0 .5 1.6 1 3.5 1s3.5-.5 3.5-1c0-.6-1.6-1-3.5-1s-3.5.4-3.5 1M692 287.9c-1.3 2.5.8 4.2 2.2 1.7.5-.9 1.6-1.6 2.3-1.6 2.1 0 1.9 3.6-.2 4.5-1.7.6-1.7.7 0 1.9.9.7 1.7 2 1.7 2.9 0 2.4-2.1 3.2-3.5 1.4-1.5-2-3.5-2.2-3.5-.4 0 4 6.9 5.1 9.4 1.5 1.1-1.5 1.2-2.6.5-4-.6-1-.7-2.8-.4-3.8.4-1.1.3-2.9 0-4-.9-2.8-7-2.8-8.5-.1M705.2 287.2c-1.4 1.4-1.6 3.8-.3 3.8.5 0 1.4-.7 2.1-1.5s1.6-1.5 2.1-1.5c1.3 0 1.1 3.4-.3 4.8-.9.9-.8 1.5.6 2.5 1.1.8 1.5 1.9 1 3-.8 2.1-1.8 2.2-3.4.2-1.8-2.2-3.2-1.8-2.8.6.4 2.8 3.8 4.1 6.9 2.5 1.8-.9 2.3-1.9 2.1-4.1-.1-1.7-.3-4.8-.5-7-.2-3.7-.5-4-3.2-4.3-1.7-.2-3.6.3-4.3 1M718.7 287.7c-2.7 1.4-2.8 3.3-.1 3.3 1 0 1.4 1.4 1.4 5.6 0 4.5.3 5.5 1.6 5.2 1.3-.2 1.6-1.8 1.7-7.7 0-4.1-.4-7.6-.9-7.7s-2.1.5-3.7 1.3M729.2 287.2c-.7.7-1.2 3.8-1.2 7 0 5 .3 6 2.5 7.4 2.3 1.5 2.7 1.5 5 0 2.2-1.4 2.5-2.4 2.5-7.4 0-6.4-1.1-8.2-5-8.2-1.4 0-3.1.5-3.8 1.2m6.3 4c.7 3.2-.9 8.3-2.6 8.3-1.5 0-2.5-6.4-1.5-9.1.8-2.2 3.5-1.6 4.1.8M264.5 288c.7 1.1 7.9 5 9.2 5 .4 0-1.2-1.4-3.7-3-4.6-3.1-6.6-3.8-5.5-2M375 291.6c-3 1.9-4.8 3.4-4.1 3.4 1.8 0 10.1-5 10.1-6.1s.6-1.4-6 2.7M667.7 289.1c-1 .6-2.5.8-3.2.5-1.9-.7-3.8 3-3.1 5.9.5 1.9 1.5 2.4 5.9 2.9 6.4.8 8.3.2 9.1-3 .5-1.7 1.3-2.4 3.1-2.4 3.6 0 3.1-1.9-1-3.6-4-1.6-8.3-1.8-10.8-.3m10.8 1.9c.3.5 0 1-.8 1s-2 1.3-2.7 3c-.9 2.1-1.9 3-3.6 3-6.2 0-10-5-5.1-7 3-1.2 11.4-1.2 12.2 0M635 294c0 .5 1.8 1 4.1 1 2.4 0 3.8-.4 3.4-1-.3-.6-2.2-1-4.1-1s-3.4.4-3.4 1M649 294c0 .5.9 1 2 1s2-.5 2-1c0-.6-.9-1-2-1s-2 .4-2 1M292.5 298.7c-2.3 2.2-3.7 6.2-3 8.4.7 2 4 2.6 5 .9.3-.6-.1-.7-.9-.4-2.2.8-3.1-2.1-1.7-5.2 1.5-3.3 4.1-4.2 5.7-1.9 1.4 1.9 1.9.9.8-1.9-.8-2.1-3.8-2-5.9.1M358.7 300.8c-2.6 1.5-4.4 2.8-3.9 3 .9.3 10.2-4.6 10.2-5.4s-1.6-.2-6.3 2.4M298 305.9c0 .5 2.3 2.1 5 3.5 2.8 1.4 5 2.3 5 1.9 0-1.1-10-6.5-10-5.4M344.7 308.7c-2.7 1.4-4.6 2.8-4.3 3.1.7.6 9.6-4 9.6-5 0-.5-.1-.8-.2-.7-.2.1-2.5 1.2-5.1 2.6M312 313.5c0 .7 5.8 3.5 7.2 3.5.7-.1-.3-.9-2.2-2-3.5-1.9-5-2.4-5-1.5M332.5 315c-.3.5-1.9 1-3.6 1-1.6 0-2.9.4-2.9 1 0 1.3.4 1.3 5.4-.2 4.9-1.4 6.9-2.8 3.9-2.8-1.2 0-2.5.4-2.8 1M448 337.1c-9.4 1.6-19.2 4.9-27.7 9.4-8.6 4.6-17.4 10.1-20.8 13.2-4.3 3.9-12.3 10.3-12.9 10.3-.3 0-4.1 1.6-8.3 3.6-4.3 2-12.3 5.4-17.7 7.5-5.4 2.2-11.1 4.6-12.6 5.4-2.7 1.4-11.9 12.9-16.5 20.7-4.5 7.5-15.2 30.1-17.3 36.3-7.3 21.5-7.7 26.8-3.1 37.1 12.9 29 12.3 27.4 10.5 30.5-1.8 3-2.2 12.7-.7 17.5.5 1.6 1.4 4.9 2.2 7.4.7 2.5 1.6 4.9 2.1 5.4 2.7 3.1.7 4.5-17.4 11.6-10.1 4-18.9 7.7-19.5 8.3-1.5 1.1-1.8 17.3-.4 18.1 1.4.9 1.8-1.4 1.4-9.2-.3-6.2-.1-7.3 1.4-7.8 1-.4 4.6-1.9 8-3.5s6.7-2.9 7.3-2.9c.5 0 1.8-.4 2.8-.9.9-.5 2.8-1.3 4.2-1.9 1.4-.5 4.9-2 7.9-3.2 4.9-2 9.3-2.3 14-.9 1 .3 1.5-.4 1.5-1.9.1-3 9.7-9.1 15.5-9.9l4.1-.6v17.1c0 19.6-.6 18.3 11 22.1 13.5 4.5 31.4 1.5 51.5-8.6 22.8-11.4 42.5-29.8 60.1-56.3 8.6-12.9 19.2-32.6 23.3-43.5 1.3-3.3 2.7-6.9 3.1-8 .9-2.2 2.3-6.3 3.9-11.3 1-3.1.9-3.3-2.9-5.7-4.3-2.7-3.2-3.3-19 9.2-11.6 9.2-18.6 14.8-19 15.3-.3.3-2.1 1.7-4 3s-4.1 3-4.8 3.7c-2.1 2-5 1.5-6.8-1.2-1.3-2-1.6-4-1.1-9.3.4-4.9 0-8-1.2-11.7-1-2.7-2.6-7.3-3.5-10-1-2.8-4.2-12.6-7.3-21.9s-6.4-17.9-7.4-19c-3.4-3.6-1.8-12.2 3.3-17.6 3-3.2 10.2-9.2 41.8-35.2 1.9-1.6 3-3.3 2.7-4.1-.8-2-8.4-5.4-15.2-6.6-6.6-1.2-8.8-1.2-16.5 0m17.5 1.9c2.9.7 2.9.8-.9.9-5.2.1-16.3 2-20.1 3.3-19.3 6.7-33.7 15.4-47.5 28.4-7.2 6.9-8.2 7.5-23 13.4-8.5 3.4-16.8 6.8-18.5 7.5-1.6.7-3.9 1.6-5.1 1.9-3.6 1.1-18.3 25.2-25.3 41.6-3.4 8-8.1 22.9-8.7 27.5-.4 2.9.1 5.9 2.1 11 1.4 3.8 3.7 10.2 5.1 14.1 1.3 4 3.3 9.3 4.4 11.9 2.7 6.4 2.7 8.8-.2 7.9-2.8-.8-4.8-2.3-4.8-3.6 0-.5-1.3-3.9-3-7.5-1.6-3.5-3-6.7-3-7 0-.2-1.6-4.1-3.6-8.6-3.3-7.6-3.6-8.7-3.1-15.7 1-15.1 12.5-43.3 26-63.5 9.1-13.6 9.5-13.8 25.7-20.3 4.1-1.7 11-4.6 15.4-6.6 4.3-2 8.3-3.6 8.8-3.6.8 0 12-9 13.8-11.1 1.7-1.9 14.5-9.7 22.8-13.8 14.9-7.4 32.4-10.7 42.7-8.1m10.3 4.4c2.3 1.2 2.1 1.5-9.5 11.1-6.5 5.5-12 10.1-12.3 10.5-.3.3-2.1 1.7-4.2 3.2-2 1.5-4.2 3.3-5 4-.7.7-3.6 3.2-6.4 5.5-5.2 4.3-10.4 13.1-10.4 17.6 0 1.3 1.1 4.1 2.5 6.2 2.3 3.3 9.8 23.5 9.1 24.3-.2.1-1.9-1.3-3.9-3.3-1.9-1.9-4.9-3.8-6.6-4.1-2.1-.5-3.7-1.6-4.7-3.5-2.9-5.7-7.8-6.1-13.1-1.2-4.5 4.3-7.1 8.5-7.9 12.8-.4 2.5-2.1 5.5-4.4 8.1-5.5 6.1-9.3 12.9-8.5 15.6.4 1.5.3 1.9-.3 1-1.5-2.2-4.3 6.7-4.9 15.8-.4 6-1.2 10-2.9 13.7-2.6 5.6-3.1 12.8-1.1 15.4 2.5 3.3 5.1 3.9 9.3 2 4.2-2 8.1-5.7 7.1-6.8-.4-.4-1.3 0-2 .9-5.1 6.3-13.7 6.4-13.7.1 0-2 .4-2.2 2.3-1.8 1.7.5 3.3-.1 5.5-2 3.2-2.7 3.2-2.7 6.3-.5 2.4 1.8 3.5 2 5.2 1.2 1.2-.5 4.2-1.8 6.7-2.7 6.4-2.4 12.7-6.6 18.5-12.4 3.2-3.3 6.1-5.3 8.2-5.7 4.4-.8 9.9-7.1 11.4-12.9 1.9-7.4 3.4-4 3.4 7.6 0 9.5.1 10.2 2.4 12 3.1 2.5 6.1 1.9 11.5-2.4 2.3-1.8 5-3.9 6-4.7 1.1-.8 3.5-2.9 5.5-4.5 2-1.7 7.2-5.9 11.6-9.4s9.1-7.2 10.3-8.3c1.3-1.1 2.6-1.8 2.8-1.5.5.5-4.1 15.8-5.5 18.5-.6 1.1-1.8 4.2-2.7 6.8-2.6 7.7-11.2 24-18.5 34.9-7.7 11.4-17.8 23.9-18.7 23-.4-.3-.9-8.8-1.3-18.8-.6-18-.7-18.3-3.8-24.2-4.4-8.1-4.8-8.5-9.1-8.5-4.4 0-8.6 2.6-16.1 10.2-3 2.9-7 6.6-8.9 8-3.4 2.6-3.5 2.7-1.5 4.2 1.1.8 2.7 1.5 3.5 1.5 1 .1.6-.6-1-1.9-1.4-1.1-2-2-1.3-2 .6 0 4.9-3.5 9.5-7.8 4.6-4.4 9.3-8.4 10.5-9 3.8-2.1 8-1.5 10.2 1.4 2.7 3.5 2.6 4.4-.3 4.4-1.4 0-3.6.4-4.9.9-2.7 1.1-15.7 13.6-15.7 15.2 0 .6-1 .8-2.2.4-2.3-.6-2.3-.6.1 1.4 2.6 2.3 5 2.9 3.3.8-.7-.9.9-3.1 6.3-8.6 6.4-6.5 7.7-7.4 11.7-7.8 3.1-.4 4.7-.1 5.6 1 .9 1 1.6 8.9 2.3 24.3l1 22.9-5.3 5c-16.7 15.9-35.8 27.4-50 30l-3.8.7v-10.6c0-7.1-.4-10.6-1.1-10.6-.8 0-1 2.7-.9 8.2.5 14.6.7 14-4.7 13.6-4.8-.3-4.8-.3-5-6.8-.2-9.3-.6-9.6-1.2-1-.5 6.8-.8 7.5-2.8 7.8-2.1.3-2.3-.1-2.5-5.5l-.2-5.8-.3 5.7c-.4 5.6-.5 5.8-3.3 5.8-1.6 0-5.2-.5-8-1.1l-5-1.1v-16.3c0-15.7-.1-16.5-2.1-17.6-3.1-1.6-6.9-.5-14.4 4-6.6 4-6.6 4-7.6 1.3-1.4-3.6-2.6-11.1-3.3-19.8l-.5-7.2 9.2-4.2c5.1-2.3 12.1-5.6 15.6-7.3 7.2-3.4 8.3-3.2 11.4 2.4 1.1 1.9 3.2 4.9 4.8 6.7 2.9 3.3 2.9 3.3 2.9 22.9 0 10.8.2 19.4.5 19.1s.6-9.4.5-20.3c0-19.6 0-19.9-2.4-22.4-1.3-1.4-3.7-4.8-5.3-7.6-1.6-2.7-3.7-5.2-4.7-5.3-.9-.2-5 1.2-8.9 3.1-21.8 10.7-26.5 12.5-28.3 11.3-2.6-1.9-.9-3.6 2.5-2.6 3.2.9 4.1.5 4.1-1.9.1-.9 2.6-3.4 5.8-5.5 15.3-10.5 21.8-15.1 22.9-16.1.6-.5 5.7-4.1 11.2-8 10.1-7.1 12.1-9.4 12.1-14.4 0-3.9 3.6-14.4 7.6-22.4 1.9-3.7 3.1-7.3 2.8-8-.7-1.2-8.3-10.7-9.4-11.7-.3-.3-2.5-3-5-6s-4.7-5.7-5-6-2.5-3-5-6-5.5-6.6-6.8-8c-1.2-1.4-2.1-2.9-1.9-3.4.2-.6 3.5-2.3 7.3-3.8 3.8-1.6 8.3-3.5 10.1-4.3 1.7-.8 3.5-1.5 4-1.5 2.7-.1 9-4.4 15.4-10.5 15-14.3 30.4-23 50.9-29 6.1-1.7 23.8-1.8 26.8-.1m-113.7 53.3c1.9 2.1 5.4 6.3 7.9 9.3s4.7 5.7 5 6 2.1 2.5 4.1 5 4.7 5.6 5.9 7 3.4 4.1 4.9 6c1.4 1.9 3 3.8 3.5 4.1.5.4-.1 2.1-1.3 3.8-4 5.5-10.1 22.7-10.1 28.1 0 1.1-.3 2-.6 2-.4 0-3.8-2.4-7.8-5.3-3.9-3-11.3-8.4-16.4-12.1l-9.2-6.8.2-23.5.3-23.5 4.5-1.9c2.5-1 4.8-1.8 5.1-1.8.3-.1 2.1 1.6 4 3.6m-17 47.6c-3.7 3.7-26.7 19.2-26.9 18.2-.3-1.2 4.2-15.8 6.8-22 .7-1.7 1.8-4.4 2.5-6 3.9-9.3 8.9-18.9 14.5-27.5l3.5-5.5.3 20.9c.1 12.1-.2 21.4-.7 21.9m78.2-28.1c1.5 3 2.4 3.8 4.6 3.8 4.2 0 9.8 5.5 12.1 12 1.1 3 2 6.1 2 6.8s1 2.6 2.1 4.2c1.8 2.4 2.1 3.7 1.6 7.4-.7 5.2-3.5 11.3-6.3 13.8-1.1.9-3.8 2.1-6.1 2.7-2.9.8-5.1 2.3-7.3 5.2-4.1 5.1-13.3 11.4-19.1 12.9-2.4.7-5 1.7-5.7 2.2-1.6 1.4-10.3-3.1-10.1-5.2.3-3.1-.2-4-2-4-2.3 0-5.1 3.5-5.1 6.3 0 1.6.6 1.8 3 1.5 3.5-.5 3.9.6.9 2.2-5.2 2.9-6.7-3.2-2.2-9.6 2-3 2.9-6 3.9-13.1 1.3-10.3 4.5-18.1 10.4-25.8 2.8-3.6 4.1-6.6 4.9-10.9 1.4-7.4 3.4-10.6 6.6-10.6 2.1 0 2.7.7 3.8 4.7.9 3.5 2.1 5.3 4.9 7.2 3.6 2.5 6.6 6.6 5.6 7.6-.2.3-2.8-.7-5.6-2.1-5.1-2.5-5.1-2.5-9.6-.6-7.9 3.6-15 13.1-17.7 23.9-1 4.3-1 5.9.1 9.3 1.3 3.8 5.4 8 7.9 8 .6 0 1.1.4 1.1 1 0 .5-.8 1-1.7 1-2.3 0-8 4.6-7 5.6.4.4 1.7-.2 3-1.4s3.2-2.2 4.2-2.2c1.7 0 5.3-1 11.5-3.2 3.2-1.1 8.4-5.9 11.7-10.9 2.2-3.4 3.1-3.9 6.3-3.9 4.7 0 8.3-2.7 10.4-8.1 1.5-3.8 1.5-4.4.1-6.5-1.3-2-2.2-2.3-6.2-2.1-4.7.2-4.7.2-5.4-4.6-.8-5.3-4.8-11.3-8.3-12.7-1.6-.6-2.7-2.3-3.6-5.5-.7-2.5-2.2-5.2-3.3-6-2.1-1.5-2.1-1.5-.2-3 1.1-.8 3.4-1.4 5-1.2 2.4.1 3.4 1 4.8 3.9m-24.8 22.6c-2.8 2.7-2.8 2.7-.5-.6 1.2-1.8 2.5-3.1 2.8-2.7.3.3-.7 1.8-2.3 3.3m16-1.4c-4 1.7-11.7 10.3-14.5 16.3-1.7 3.4-2.3 6.7-2.4 11.5-.1 3.8-.4 6.8-.7 6.8s-1.1-1.1-1.7-2.5c-3.4-7.5 1.2-20.8 9.9-29 4-3.7 5.5-4.5 8.6-4.5 3.8.1 3.8.1.8 1.4m8.3 1.8c.7.7 1.2 3.8 1.2 7 0 12.8-10.8 27.8-20.1 27.8-3.6 0-3.8-.2-4.5-3.6-1.6-8.3 1.3-17.1 8.3-25.5 5.1-6 12.1-8.7 15.1-5.7m5.2 8.5c0 9.6-8.6 24.2-16 27.3-4.6 1.9-4.6.7 0-2.4 7.7-5.1 14.6-19.1 13.8-27.8-.3-3.4-.2-3.7.9-2.2.7 1 1.3 3.3 1.3 5.1m-32-5.3c0 .3-.5.8-1.2 1.2s-.8.3-.4-.4c.7-1.2 1.6-1.6 1.6-.8m109.9 2.3c2.2 1.8 2.2 1.8-2.4 13.8-9.1 24.2-23 49.1-37.8 67.5-7.2 8.9-20.8 22.7-25.7 26-1.9 1.3-3.7 2.7-4 3-.7.8-10.8 7.3-14.5 9.3-4.9 2.7-15.7 7.2-20 8.4-10.5 2.9-12.8 3.3-21.1 3.2-11.1-.1-16.8-1.6-7.9-2 3.3-.1 8.3-.2 11.2 0 14.1.7 35.3-8.2 52.8-22.2 9.7-7.8 17.5-16 17.5-18.5 0-1.3 1.7-4.1 4-6.6 17.7-18.8 36.1-52.8 43-79.4 1.2-4.7 1.8-5 4.9-2.5m-111.9.8c0 .3-.2.5-.5.5s-.5-.2-.5-.5.2-.5.5-.5.5.2.5.5m-43.3 1.9c5 4 26.7 19.8 27.9 20.3 2.7 1 1.4 3.2-4.7 7.5-3.3 2.3-7.2 5.2-8.7 6.4-1.5 1.1-6.3 4.5-10.7 7.5-4.4 2.9-8.2 5.6-8.5 6-1.6 1.8-13.3 9-14.2 8.7-2.1-.7-14.4-35.7-13.2-37.5 1.5-2.3 26.8-20.2 28.6-20.2 1-.1 2.6.5 3.5 1.3m88.8.7c2.1 3.3-4.1 11.9-8.6 11.9-3.3 0-3.5-.8-1.8-7.5.9-3.6 1.6-4.5 3.8-4.8 4.9-.8 6-.7 6.6.4m-49.5 6.4c0 .3-.2.5-.5.5s-.5-.2-.5-.5.2-.5.5-.5.5.2.5.5m-1.3 4.7c-.3.7-.5.2-.5-1.2s.2-1.9.5-1.3c.2.7.2 1.9 0 2.5m-1 9.5c-.2 1.6-.4.3-.4-2.7s.2-4.3.4-2.8c.2 1.6.2 4 0 5.5m2.3 12.1c0 .5-.9 1.7-2 2.7-1.9 1.8-2 1.7-2-.2 0-1.1.3-2.3.7-2.6.9-1 3.3-.9 3.3.1m-62.8 34.9c1 1.2 1.7 4.8 2.1 10.3.6 8.2 1.7 13.5 3.8 17.3 1.3 2.4.6 3.1-2.4 2.3-4.1-1-8.7-14.6-8.7-25.4 0-5.4.2-6.2 1.8-6.2 1.1 0 2.6.8 3.4 1.7"/><path d="M415.2 373.8c-2.3 1.5-4.3 3.1-4.5 3.7-.5 1.8.8 29.3 1.5 30 .4.4 2.6-.4 4.9-1.6l4.2-2.4-.7-15.9c-.4-8.8-.8-16.1-.9-16.2-.1-.2-2.1.9-4.5 2.4m3.8 14.7c0 14.4 0 14.4-3 16s-3 1.6-3-1.7c0-1.8-.3-7.9-.7-13.6-.5-9.8-.5-10.4 1.7-12.7 4.5-4.8 5-3.7 5 12M402 383c-3.3 3.1-3.3 3.1-2.7 12.8.4 5.3.7 11.2.7 12.9 0 4 1.7 4.3 5.4.8 2.5-2.3 2.6-2.8 2.6-12.8 0-10.9-.7-16.7-2-16.7-.4 0-2.3 1.4-4 3m2.3 25.6c-1 .7-2.1 1.4-2.5 1.4-.5 0-.8-5.6-.8-12.4 0-11.7.1-12.4 2.3-13.9 2.2-1.4 2.2-1.4 2.5 11 .2 11.1 0 12.7-1.5 13.9M404 491.9c0 1 3.1 3.1 4.5 3.1 1.1 0-.5-2-2.6-3-1.2-.7-1.9-.7-1.9-.1M395.5 498.7c-4.7 2.5-9.5 8.2-12.6 15-2.8 6-2.9 6.8-2.9 21.9 0 8.7.2 15.5.5 15.3.2-.3.7-7.7 1-16.4.5-14.2.9-16.4 3.1-20.9 1.4-2.8 3.8-6.5 5.4-8.3 3.5-3.9 10-7.4 12.6-6.7 1.1.3 3 .1 4.4-.5 2.1-.8 1.7-1-3-1-3.2 0-6.8.7-8.5 1.6"/><path d="M414 505.6c-1.9.7-5.4 1.8-7.8 2.4-4.8 1.2-9.3 5.4-12.5 11.5-1.6 3-2.2 6.4-2.5 13.7-.3 6.2-.1 9.8.6 9.8.5 0 1.1-4.2 1.4-9.9.3-8.8.7-10.4 3.4-14.7 3.5-5.8 7.8-8.9 13.3-9.8 4.7-.7 9.1-2.6 9.1-3.8 0-1-.7-.9-5 .8M428 506.9c0 1.1 3.1 2.4 3.9 1.6.3-.3-.1-1-.9-1.5-1.9-1.2-3-1.2-3-.1M354 511.7c-4.7 2.5-11.5 6.1-15.2 8-3.8 2-6.8 3.9-6.8 4.4 0 .8 2.6.2 4.5-1.1 1.2-.9 11.8-6.6 20.3-11 5.7-3 8.5-5.1 6.5-5-.4.1-4.6 2.1-9.3 4.7M434 509.8c0 .4.9 1.5 2 2.5 2.2 1.9 2.5 3.3 1 4.2-.5.3-1 1.3-1 2.2 0 1.2.3 1.3 1.4.4 2.3-2 2.5-4.9.4-7.6-1.9-2.4-3.8-3.3-3.8-1.7M428 523.2c-4.6 2.8-4.4 2.7-3.7 3.4.6.7 8.7-4.1 8.7-5.1s-1.6-.4-5 1.7M415.6 530.8c-2.1 1.4-3.4 2.8-2.8 3 1 .3 9.2-4.4 9.2-5.3 0-1.2-2.8-.2-6.4 2.3M405.2 537.1c-1.8 1.2-3.1 2.4-2.8 2.7.9.8 7.7-2.9 7.1-3.9-.8-1.1-.4-1.2-4.3 1.2M395.7 543.6c-2.1 1.4-3.6 2.8-3.3 3.1.7.7 7.6-3.6 7.6-4.8s-.1-1.2-4.3 1.7M385.3 550c-1.8 1.1-3.3 2.4-3.3 3s1.6 0 3.5-1.2c1.9-1.3 3.5-2.6 3.5-3.1 0-1-.1-1-3.7 1.3M374.3 557.1c-1.8 1.2-3.3 2.3-3.3 2.5 0 1.1 2.9 0 5.5-2.1 3.7-3 2.2-3.2-2.2-.4M362.8 564.2c-2.1 1.2-3.8 2.6-3.8 3 0 1 8.9-3.4 9-4.5 0-1.2-1.3-.8-5.2 1.5M408.6 422.2c-2 2.8-2.1 5.4-.2 6.1 1.8.7 4.5-2.2 4.8-5.3.4-3.3-2.5-3.8-4.6-.8m3.4 1.3c0 1.6-2.7 3.2-3.7 2.1-.7-.7 1.6-3.6 2.8-3.6.5 0 .9.7.9 1.5M433.8 449.7c-3.4 4-2.8 8.1 1.1 6.8 2.2-.7 3.7-4.5 2.7-7-.7-2-1.9-1.9-3.8.2m2.2 3.4c-.6 1-1.5 1.9-2.1 1.9s-.8-.3-.6-.8c.2-.4.7-1.5 1-2.5.4-1 1.1-1.5 1.7-1.2.7.4.7 1.3 0 2.6M683 490.9c-31.9 10.5-63.4 42.4-84.8 86.1-11.7 24-16.1 40.1-16.9 62-.6 17 .7 26.7 4.9 37.1 4.1 10.1 12.1 19.5 20.8 24.3 10.2 5.8 13.7 7.4 17.8 8.6 3.1 1 4.2 1.8 4.3 3.4.1 1.2.3 4 .5 6.3l.4 4.3-28 .2c-17.7.2-28 .7-28 1.3 0 1 55.6.8 57.2-.1.5-.3.8-3.4.8-7V711h8.3c23.1-.1 48.8-14.4 73-40.8 6-6.5 16.2-20.1 17.9-23.8.6-1.3 1.5-2.4 1.9-2.4 1 0 16.9-32.1 16.9-34.1 0-.8.4-1.9.9-2.4 1.1-1.2 5.7-16.4 7.8-26 2.1-9.5 2.4-40.8.4-48.5-1.5-6-1.4-5.7-6-15.2-3.8-7.8-13.5-17.6-20.6-20.8-2.5-1.1-6.4-2.9-8.8-3.9-9.3-4.2-13.2-5.1-22.7-5-7.6 0-11.2.6-18 2.8m9 1c-11.6 3-22.1 7.9-32 14.9-8.3 5.8-26.2 23.6-32.8 32.7-2.9 3.8-5.7 7.6-6.3 8.3-2.6 3-14.7 23.2-18.1 30.2-6.1 12.5-11.3 26.3-14.3 37.9-2 8-4.4 29.3-3.9 34.6 1.1 10.6 2.5 18.7 3.9 22.7 1.5 4.4 1.9 6.5 1 5.6-3-3-7.6-27.1-6.9-36.6 1.8-26.7 6.3-42.3 19.2-67.4 6.4-12.6 18.7-32.7 21.1-34.8.3-.3 1.9-2.3 3.5-4.5 5.6-7.6 24.1-25.1 32.7-30.8 13.6-9 23.7-13.1 36.9-15.1 6.9-1 5.5-.2-4 2.3m1.7 1.8c-.4.3-1 .3-1.4 0-.3-.4 0-.7.7-.7s1 .3.7.7m2.8 2.7c-19.9 6.4-37.7 18.6-54.5 37.2-8.1 9-9.7 11-15.7 20-13.2 19.8-22.5 38.6-27.4 55.4-8.1 27.7-8.7 52.1-1.7 70.5 1.7 4.4 3.8 9.1 4.8 10.5 3.2 4.8 3.1 5.5-.4 1.7-4.4-4.9-8-13.9-10.2-25.3-2-10.8-1.5-32.8 1.1-44.4 3.6-16.3 11.5-36.5 19.3-49.4 2.3-3.7 4.2-7 4.2-7.1 0-.2 3.1-5 6.9-10.7 16-24.1 34.2-41.8 53.4-52.4 7.7-4.1 19.7-8.2 24.2-8.2 2.1 0 1 .6-4 2.2m-8.5-1c0 .2-.9.6-2 .9s-1.8.1-1.4-.4c.5-.9 3.4-1.3 3.4-.5m34.9.6c8.2 1.5 14.1 4.8 20.6 11.4 6.8 6.8 11.6 15.7 13.4 24.6 2.8 14 3.1 16.5 3.1 22.9 0 12.3-4 33.6-8.9 47.7-4.9 13.8-17.2 38.4-23.6 46.9-1.1 1.5-4.2 5.7-7 9.3-7 9.5-23.7 26.1-32.6 32.4-16.3 11.6-33 17.8-48 17.8-10.1 0-16-1.6-23.1-6.1-6.4-4.1-9.1-6.9-13.2-14-4.1-6.8-6.1-12.9-8.1-23.9-1.8-10.6-1.9-16.7-.1-30 3.5-26.5 10.6-45.1 27.9-73.5 26.6-43.7 68.7-71.4 99.6-65.5m-42.4 2.4c-1.1.8-2.4 1.2-2.8.9-1.1-.7 1.2-2.3 3.2-2.3 1.1 0 .9.4-.4 1.4m-5.9 3.1c-2.1 1.6-3.2 1.3-2.1-.4.3-.6 1.4-1.1 2.3-1.1 1.5.1 1.5.2-.2 1.5m-4.6 2.4c0 1.1-3.1 2.4-3.9 1.6-.3-.3.1-1 .9-1.5 1.9-1.2 3-1.2 3-.1m-6 4c0 1.1-3.1 2.4-3.9 1.6-.3-.3.1-1 .9-1.5 1.9-1.2 3-1.2 3-.1m-6 3.9c0 1.3-2.3 3.2-3.9 3.2-1.1 0-1-.4.4-2 1.9-2.1 3.5-2.6 3.5-1.2m-7 6.7c-1.2 1.3-2.7 2.2-3.2 1.9-1.2-.8 2.1-4.4 4-4.4 1.2 0 1 .6-.8 2.5m-5.6 5.6c-.9 1-2.1 1.6-2.6 1.3s-.2-1.4.8-2.5c.9-1 2.1-1.6 2.6-1.3s.2 1.4-.8 2.5m-3.4 2.8c0 1.3-2.9 3.5-3.7 2.8-.7-.8 1.5-3.7 2.8-3.7.5 0 .9.4.9.9m-5 6c0 1.3-2.9 3.5-3.7 2.8-.7-.8 1.5-3.7 2.8-3.7.5 0 .9.4.9.9m-6.4 7.9c-2.3 2.3-3.3.6-1-1.9 1.2-1.3 2-1.6 2.2-.9.3.7-.3 1.9-1.2 2.8m-2.6 2.9c-.1 1.5-3.9 5.8-4.5 5.1-.8-.8 2.4-5.8 3.6-5.8.5 0 .9.3.9.7m-5 7.2c0 1.5-3.8 5.6-4.5 4.9-.8-.8 2.3-5.8 3.6-5.8.5 0 .9.4.9.9m-5 7.7c0 1.3-2.1 4.4-3 4.4-1.4 0-1.2-2.4.2-3.8 1.3-1.3 2.8-1.6 2.8-.6m-4 6.1c0 1.4-1.9 3.8-2.5 3.2-.8-.8.5-3.9 1.6-3.9.5 0 .9.3.9.7m-4 7.3c-.6 1.1-1.5 2-2.1 2s-.6-.7.1-2c.6-1.1 1.5-2 2.1-2s.6.7-.1 2m-4.1 7.6c-1 2.3-1.3 2.5-1.6 1.1-.3-1 .1-2.5.8-3.3 1.7-2.1 2.1-1.1.8 2.2m-3.2 6.8c-.7 1.5-1.6 2.1-2.1 1.6-.6-.6-.4-1.5.4-2.5 1.9-2.3 2.9-1.8 1.7.9m-3.1 7.1c-.4 1.4-1.1 2.5-1.6 2.5s-.5-1.3.2-3.1c1.2-3.5 2.3-3.1 1.4.6m-2.6 6.6c-.7 1.1-1.4 1.9-1.6 1.6-.7-.7.7-3.7 1.7-3.7.6 0 .5.9-.1 2.1m-2.4 7.6c-1.1 1.1-1.7-.4-.9-2.3.7-1.8.8-1.8 1.1-.1.2 1 .1 2.1-.2 2.4m-2 6c-1.1 1.1-1.7-.4-.9-2.3.7-1.8.8-1.8 1.1-.1.2 1 .1 2.1-.2 2.4m-.6 3.7c0 .8-.4 1.8-1 2.1-.5.3-1-.3-1-1.4 0-1.2.5-2.1 1-2.1.6 0 1 .6 1 1.4m-2.4 8.3c-1.1 1.1-1.7-.4-.9-2.3.7-1.8.8-1.8 1.1-.1.2 1 .1 2.1-.2 2.4m-.9 7c-.3 1-.5.2-.5-1.7s.2-2.7.5-1.8c.2 1 .2 2.6 0 3.5m-1 7c-.3 1-.5.4-.5-1.2 0-1.7.2-2.4.5-1.8.2.7.2 2.1 0 3m0 7.5c-.3.7-.5.2-.5-1.2s.2-1.9.5-1.3c.2.7.2 1.9 0 2.5m0 6c-.3.7-.5.2-.5-1.2s.2-1.9.5-1.3c.2.7.2 1.9 0 2.5m0 6c-.3.8-.6.5-.6-.6-.1-1.1.2-1.7.5-1.3.3.3.4 1.2.1 1.9m1 8c-.3.7-.5.2-.5-1.2s.2-1.9.5-1.3c.2.7.2 1.9 0 2.5m2.8 13.8c.3.5.4 1 .1 1s-.8-.5-1.1-1c-.3-.6-.4-1-.1-1s.8.4 1.1 1"/><path d="M686.3 545.5c-8.7 2.7-16.8 8-25.5 16.5-15.9 15.6-26.6 36-29.9 57.2-2.1 13.6 1.5 27.3 9.2 34.8 3.6 3.5 9.3 6 13.6 6 1.1 0 5.4 1.8 9.5 3.9 10.2 5.3 14.8 5.9 23.7 3.1 21.5-6.6 43.1-32.8 50.5-61.2 3.2-12.1 3.3-20.9.5-29.8-2.5-8.1-5.7-11.6-15.2-17.1-3.9-2.4-8.6-5.7-10.2-7.5-6.2-6.7-16.4-9-26.2-5.9M705 548c4.9 2.5 5.2 3.4.5 1.4-7.4-3-18.5-1.1-29.1 5.1-4.9 2.9-18.3 15.6-23.1 22-3.9 5.2-10.9 18.3-13.2 24.8-4.1 11.7-4.6 14.4-4.6 25.7.1 13.9 1.8 18.4 10.2 26 3 2.8 5.3 5 5 5-2.2 0-8-3.6-10.5-6.5-4.1-4.6-5.7-7.9-7.1-14.3-1.5-7.3-1.4-13.9.5-22.9 4.6-22.6 17.6-43.3 36.6-58.5 11-8.8 26.2-12.2 34.8-7.8m5 5.7 7.5 3.6-4.9.8c-2.7.4-8.6 2.6-13.2 4.8-14 6.7-28.6 22.8-36.9 40.4-9.6 20.6-11.2 40.8-4.3 53.5l1.8 3.3-5-2.8c-8-4.4-12.5-8.7-15.1-14.5-2-4.6-2.4-6.8-2.3-16.3 0-13.1 2.3-22.4 8.5-34.9 8.4-16.8 24.5-33.6 37.4-38.8 6.2-2.5 6.6-2.6 13-2.7 5-.1 7.3.5 13.5 3.6m11.9 7.3c5.7 1.6 9.9 5.2 12.8 11 2.6 5.2 2.8 6.2 2.7 18 0 13-1.6 19.8-7.7 33-7.9 17.1-26 35.9-39.5 41-6.5 2.4-17.5 2.7-21.9.5-4.5-2.3-9.1-8.2-10.8-13.9-.8-2.7-1.5-8.7-1.5-13.2 0-21.2 10.7-44.5 28.1-61.4 13.1-12.7 26.8-18.2 37.8-15"/><path d="M696.3 573.5c-1.1.8-2.6 2.8-3.3 4.6-1.1 2.6-1.1 3.2.1 4 2.3 1.4 3.6 1 5.8-1.7 2.4-3.1 2.7-5.7.8-7.2-1-.9-1.9-.8-3.4.3m1.2 6.1c-2.3 3.6-3.1 2.2-.9-1.6 1-1.7 2-2.6 2.2-2s-.4 2.2-1.3 3.6M697.2 592.2c-7.8 3.8-16.5 16.8-17.8 26.8-2.5 19.1 13.4 23.2 26.7 6.9 4.6-5.7 6.4-9.1 8.3-16.4 1.2-4.8 1.3-6.7.3-10.3-2.3-8.6-8.9-11.2-17.5-7m10.8 1.3c3.7 4.5 1.1 18.1-5.1 27.2-6.4 9.3-18.1 14.5-20.9 9.4-1.5-2.8-1.2-12.2.4-17 2.4-6.6 9.2-15.7 13.8-18.5 4.8-2.9 9.9-3.4 11.8-1.1m5 13.9c-1.3 6.8-3.9 12.4-8.3 17.8-3.6 4.5-10.2 9-12.5 8.6-1.1-.2-.2-1.2 2.9-3.2 9-5.7 16.2-18.8 16.3-30 .1-5.8.1-5.8 1.5-2.5 1.1 2.8 1.1 4.5.1 9.3m-23 27.1c0 .3-.2.5-.5.5s-.5-.2-.5-.5.2-.5.5-.5.5.2.5.5M727.8 591.4c-2 1.5-3.7 5.6-3.1 7.3 1.1 3 6.8.1 7.3-3.7.7-4.9-.8-6.2-4.2-3.6m1.6 5.7c-2.5 2.7-2.8 1.7-.8-2.3 1.4-2.6 1.9-2.9 2.2-1.5.2 1-.4 2.7-1.4 3.8M662.1 630.6c-2.2 2.8-2.8 6.9-1.1 7.9 1.9 1.2 4.8-.5 6-3.5 2.5-6-1.1-9.3-4.9-4.4m1.1 3.6c-.7.7-1.2.8-1.2.2 0-1.4 1.2-2.6 1.9-1.9.2.3-.1 1.1-.7 1.7m2.8-.7c0 .3-.2.5-.5.5s-.5-.2-.5-.5.2-.5.5-.5.5.2.5.5m-1 2c0 .3-.2.5-.5.5s-.5-.2-.5-.5.2-.5.5-.5.5.2.5.5M676.1 636.9c-2.5 3.4-2.6 4.5-.8 6 2 1.6 5.9-2.3 5.5-5.7-.4-3.6-2.3-3.8-4.7-.3m2 3.4c-1.7 1.7-2.4.1-.9-2.2 1.1-1.8 1.4-1.9 1.6-.5.2.9-.1 2.1-.7 2.7M695.6 644.2c-1.8 2.6-2.1 7.4-.5 8.3 1.1.8 4.5-1.9 6-4.8 2.5-4.6-2.5-7.8-5.5-3.5m1.8 2.3c-.4.8-.8 1.5-1 1.5s-.4-.7-.4-1.5.4-1.5 1-1.5c.5 0 .7.7.4 1.5m1.1 2.3c-1.5 1.6-1.6 1.5-.4-1.2.7-1.5 1.5-2.3 1.7-1.6.3.7-.3 1.9-1.3 2.8M576.4 494.4c-2.8.9-4.7 1-5.8.4-2.5-1.4-5.8-.3-11 3.6-4.5 3.5-4.5 3.5-9.3 1-4.1-2.1-5.6-2.3-10.8-1.8-7.8.9-12 3-17.8 9.3-7 7.5-10.1 14.8-10.2 24.1 0 6.9.3 7.9 3.4 12.4 1.8 2.7 4.7 5.6 6.3 6.5 5.7 3.1 6.4 3.9 5.1 5.2-1 1-1.5 1-2.7 0-.9-.7-2.1-1.1-2.8-.8-.8.3-.2.9 1.3 1.5 2.1.8 2.6 1.6 2.2 3.6-.7 3.4 1.5 12.3 3.2 13 .8.3 2.8 3.2 4.4 6.5 4 7.9 11.9 13.5 21.1 15 3.5.6 3.5.6 3.8 14.9l.3 14.2-35.8.2c-19.7 0-44.1.1-54.3.2l-18.5.1-.3-6.3c-.2-3.6-.7-6-1.2-5.7-1.4.9-1.2 11.9.2 13.3.9.9 7.8 1.2 24.9 1.2h23.6l.7 4c.4 2.4 1.1 3.8 1.7 3.5.5-.4.7-2.1.3-3.9-.6-3.3-.6-3.3 11.7-3.9 6.7-.4 20.2-.7 30-.7 11.5 0 18-.4 18.4-1.1.4-.6.6-7.4.6-15.2l-.2-14.2 5.3-1.3c11.2-2.6 24.8-13.5 34.2-27.6 3.1-4.6 5.6-8.6 5.6-8.9 0-.4 1.1-3 2.4-5.9 7.7-16.9 8.1-34.8 1.1-45.5-6-9.1-20.8-14.3-31.1-10.9m7.6 1.8c-12.2 5-14.9 6.7-22.5 14.3-4.5 4.4-9.3 9.4-10.8 11.2-4 4.8-10.2 17.7-13.2 27.6-2.4 7.7-2.7 10.1-2.3 18.5.3 7.2 1 10.8 2.5 13.9 1.2 2.4 1.9 4.3 1.6 4.3-1.7 0-5.6-6.3-7-11.3-.9-3.1-2-5.7-2.5-5.7-.4 0-.8.5-.8 1.1 0 .5-.4.7-1 .4-.5-.3-1-3.1-1-6.1 0-4.9.2-5.5 1.8-5s2.1-.5 3.6-7.5c1-4.5 2.1-8.9 2.5-9.8.5-.9 2.3-4.8 4.1-8.6 3.9-8.6 10.2-17.4 16.9-24 4.9-4.7 6.4-7.5 4-7.5-1.7 0 1-2.9 4.3-4.6 1.7-.9 4.2-1.2 6.5-.9 2.1.3 5.2.1 6.8-.4 1.7-.5 4.4-.9 6-.9 3-.1 3-.1.5 1m16 3.9c4 2.5 5.2 3.8 8.3 9.4 1.8 3.4 2.2 5.5 2.1 14 0 8.6-.5 11.4-3.2 19.5-3.9 11.5-4.6 12.9-9.6 20.5-4.1 6.3-20.4 23.1-21.4 22-.3-.3 0-1.1.6-1.7 1.7-1.7 1.5-6.8-.4-7.5-4.2-1.6-8.6 8.3-4.7 10.6 3.1 1.7-6.6 5.1-14.4 5.1-8.3 0-13.4-2.7-17.1-9-2.5-4.2-2.7-5.2-2.7-17 .1-13 1.1-17.6 6.7-29.9 4.7-10.1 14-21.6 24.2-30 9.3-7.6 24.3-10.4 31.6-6m-49.3 1.6c2.9 1.5 5.3 3.2 5.3 3.8s-1.8 3.1-4.1 5.5c-8.8 9.7-15.9 22-19.8 34.8l-2.2 7.2-4.7-2.7c-8.6-5-11-9.4-9.8-18.1 1.3-9.2 5.2-17.4 11.3-23.7 5.5-5.6 8.3-7.5 12.6-8.5 5.1-1.2 5.7-1.2 11.4 1.7m-25.3 5.7c-5.1 5.3-10.1 15-11.4 22.3-.9 4.8-.9 4.8-.6-1.2.5-8.3 3.6-14.6 10.1-21.2 3.1-3 5.8-5.3 6.1-5.1.2.3-1.6 2.6-4.2 5.2m4.3 49.3c-.4.3-1 .3-1.4 0-.3-.4 0-.7.7-.7s1 .3.7.7m46.3 23.2c0 1.1-.8 2.7-1.7 3.7-1.7 1.7-1.8 1.7-2.1-.5-.4-2.2 1.3-5.1 2.9-5.1.5 0 .9.9.9 1.9"/><path d="M572.2 506.3c-2.5 2.7-2.9 7.2-.6 8.1 2.4.9 6.6-3.9 6.2-7.2-.4-3.5-2.8-3.9-5.6-.9m3.8 1.1c0 2.5-1.2 4.6-2.6 4.6-1.7 0-1.8-3.2-.2-4.8s2.8-1.5 2.8.2M574.1 522.6c-3.9 1.7-10.8 8.3-13.9 13.5-2.7 4.5-6.1 14.5-6.2 18 0 3.5 2.3 9 4.7 11 4.6 4 15.3 8.9 19.2 8.9 6.4 0 14.1-5.5 19.5-14 3.8-5.8 6.8-15 6.5-19.8-.2-3.3.1-4.6 1.4-5.3 2.9-1.6 4.9-6.6 3.7-8.9-.6-1.1-1.4-2-1.8-2-1.6 0-5.2 3.2-5.2 4.6 0 2-1.3 1.8-6.2-1-13.3-7.4-15.3-7.8-21.7-5m13 2.5 4.1 2-5.1 2.5c-5.9 3-12.4 9.9-15.3 16.4-3.1 6.8-4.7 14.7-3.7 18.3.5 1.7.7 3.3.4 3.5-.2.2-2.4-.7-4.9-2.2-6-3.5-7.5-8-5.7-16.8 1.3-6.6 2.1-8.3 6.6-14.3 8-10.8 15.2-13.7 23.6-9.4m19.9 3.7c0 1.1-.9 2.7-2 3.7-1.9 1.7-2 1.7-2 .1 0-2.3 1.8-5.6 3-5.6.6 0 1 .8 1 1.8m-8.8 2.6c1.7 1.3 3.8 5.7 3.8 7.9-.1.7-1-.5-2.1-2.5-2.4-4.7-6.6-6.1-12.3-4.1-2.2.7-4.6 1.9-5.5 2.6-1.2 1-1.3.9-.7-.1 2.6-4.4 13-6.7 16.8-3.8m-.8 4.8c2.6 3.6 2 11.4-1.3 18.4-4.8 10.2-14.4 16.4-20.7 13.5-3-1.3-4.4-4.3-2.3-4.9 2.2-.8 10.5-9.4 12.2-12.8 2.4-4.7 4.7-11.6 4.7-14.2 0-3.1 5.2-3.1 7.4 0m-10.7 3.9c-.4 2.8-1.8 7.1-3.3 9.6-2.5 4.4-9 11.3-10.6 11.3-1.7 0-.7-7.7 1.6-12.7s9.8-13.3 11.9-13.3c.6 0 .8 1.9.4 5.1m-6.7-2.6c0 .3-.2.5-.5.5s-.5-.2-.5-.5.2-.5.5-.5.5.2.5.5m-4 4c0 .3-.2.5-.5.5s-.5-.2-.5-.5.2-.5.5-.5.5.2.5.5m-1 2c0 .3-.2.5-.5.5s-.5-.2-.5-.5.2-.5.5-.5.5.2.5.5m-1 2c0 .3-.2.5-.5.5s-.5-.2-.5-.5.2-.5.5-.5.5.2.5.5m-3.3 6.2c-.4.3-.7 0-.7-.7s.3-1 .7-.7c.3.4.3 1 0 1.4m-1 4.5c-.3.8-.6.5-.6-.6-.1-1.1.2-1.7.5-1.3.3.3.4 1.2.1 1.9m2.1 11.2c1 1 3.1 2.5 4.7 3.2l3 1.3-3.1.1c-4 0-6.5-2.8-6.9-7.7-.1-2.1 0-2.7.2-1.3.3 1.4 1.2 3.3 2.1 4.4m10.7 3.6c-.3.5-1.2 1-1.8 1-.7 0-.6-.4.3-1 1.9-1.2 2.3-1.2 1.5 0M540.1 563.6c-2.5 3.2-2.7 5.7-.6 7.4 2.4 2 6.5-2.3 6.5-6.7 0-4.2-2.9-4.5-5.9-.7m4.3.3c.9 1.3-.3 3.9-2.1 4.5-2.3.9-2.8 0-1.5-2.9 1.2-2.6 2.6-3.2 3.6-1.6M553.7 567.8c-2.4 2.6-2.2 7.2.2 7.2 3.2 0 5.6-4.9 3.8-7.8-1.1-1.7-2.1-1.5-4 .6m2.2 3.4c-1.2 2.1-1.3 2.1-1.7.4-.2-1 .2-2.2.9-2.7 2-1.2 2.2-.4.8 2.3M480.8 526.5c-3.4 3.3-5.5 10.1-4.1 12.5 1.2 1.8.2 2.7-12.2 11.6-1.1.8-5.7 4.1-10.2 7.5l-8.3 6.1v7.9c0 4.6.4 7.9 1 7.9s1-3.1 1-7.4v-7.4l9.3-6.8c17.3-12.7 20.2-14.9 20.9-15.8.4-.6 1.6-.6 3 .1 1.4.6 3.6.9 5 .6 1.9-.4 4.7.8 10.2 4.1 4.2 2.5 8.6 4.6 9.9 4.6 4.4 0 8-6.5 5.2-9.3-.8-.9-4.9-3.4-9.1-5.8-5.7-3.1-7.8-4.9-8.6-7.1-1-2.9-5.2-5.8-8.6-5.8-1.1 0-3 1.1-4.4 2.5m5.2.1c0 .4-.8 1.4-1.8 2.3-2.6 2.2-4.2 5.5-4.2 8.6 0 1.5-.4 2.4-1 2-2.5-1.6.1-10.3 3.7-12.4 2.1-1.2 3.3-1.4 3.3-.5m5.5 2.4c.3.6-.4 1-1.8 1-1.3 0-3.1.8-4 1.7-2.1 2.4-3.1 6.9-1.8 7.7 1.6 1 1.3 2.6-.4 2.6-2.6 0-1.9-7.4 1.1-10.9 2.6-3.1 5.7-4 6.9-2.1m.5 4c0 .5-.9 1-2 1s-2-.5-2-1c0-.6.9-1 2-1s2 .4 2 1m-4 3.1c0 .6-.4.7-1 .4-.5-.3-1-1.1-1-1.6 0-.6.5-.7 1-.4.6.3 1 1.1 1 1.6m6.7-.9c-1.7 4.1-3.3 6.8-3.9 6.8-1.4 0-.8-4.3.9-6.2 1.8-2.1 3.8-2.4 3-.6m4.1 2.5c-2.4 4.9-3.2 6.3-4 6.3-1.2 0-1-4.4.4-5.8 1.3-1.3 4.2-1.7 3.6-.5m-11.3 1.3c.3.5.2 1-.4 1-.5 0-1.3-.5-1.6-1-.3-.6-.2-1 .4-1 .5 0 1.3.4 1.6 1m13.2 4.2c-1.9 3.8-2.2 4-2.5 2-.2-1.3.4-3.2 1.4-4.3 2.9-3.2 3.5-2.1 1.1 2.3m5.6-1.6c.9.9-2.6 7.4-3.8 7-1.3-.4-.8-4.5.6-6.3 1.2-1.4 2.2-1.6 3.2-.7m3.7 4.2c0 1.9-1.8 4.2-3.2 4.2-1.2 0-.9-3.5.4-4.8 1.7-1.7 2.8-1.5 2.8.6M513 549.9c0 1.3 3.8 3.3 5.3 2.8.7-.2-.3-1.1-2-2.1-1.8-.9-3.3-1.2-3.3-.7M346.6 574.1c-2.1 1.6-2.6 2.8-2.4 5.2.2 1.7.8 3.2 1.4 3.4.7.2.9-.8.6-2.6-.3-2.4.2-3.6 2.4-5.5 3.5-3.1 1.8-3.5-2-.5M423.2 583.8l-19.3.2.3 12.3.3 12.2h89l.2-12.2c.2-11 .1-12.2-1.6-12.8-1.6-.5-18.8-.4-68.9.3m66.8 12.7V607l-41.2-.2-41.2-.3-.2-7.5c-.4-14.5-5.2-13 41.7-13H490z"/><path d="M414 590.1c0 1.7.3 1.9 1.4 1 2.2-1.9 3.1.7 1.1 2.9-1.6 1.8-1.6 2-.1 2.6 1.6.6 2.2 4.4.9 5.7-.3.4-1.2-.1-1.9-1.1-1.7-2.3-2.8-.9-1.4 1.8 1.5 2.8 4.2 2.2 5.4-1.3.7-2 .7-3.4-.2-4.8-.8-1.3-.9-2.5-.3-3.7 1.2-2.3-.4-5.2-2.9-5.2-1.4 0-2 .7-2 2.1M424.3 589.5c-.8 2.2.4 3 2.2 1.5 1.3-1 1.5-.9 1.5.7 0 1-.5 2.4-1.1 3-.8.8-.8 1.3 0 1.7.6.4 1.1 2.2 1.1 3.9-.1 2.9-.2 3-1.4 1.4-1.6-2.1-2.6-2.2-2.6-.3 0 2 2.5 3.7 4.3 3 2.1-.8 2.7-3.9 2-10.6-.5-5.3-.8-5.8-3-5.8-1.3 0-2.6.7-3 1.5M445.9 591.9c-1.3 4.5-.5 10.3 1.7 12.2 2.5 2.1 4.5-1 4.7-7.3.3-8.8-4.2-12.2-6.4-4.9m4.1 4.1c0 3.3-.4 6-1 6s-1-2.7-1-6 .4-6 1-6 1 2.7 1 6M457.2 590.5c-1.5 3.2-1.5 10-.2 12.6 2.6 4.7 7.6-.9 5.6-6.2-.6-1.6-1.6-2.9-2.3-2.9-1.6 0-2.6-1.7-1.8-3 .5-.8 1.1-.7 2.1.1 1.1.9 1.4.7 1.4-1 0-3-3.4-2.7-4.8.4m3.8 8.5q0 3-1.5 3t-1.5-3 1.5-3 1.5 3M467.5 590.1c-.4 1.2-.2 2.6.3 3.1.7.7 1.2.3 1.7-1.1.7-2.4 2.5-2.9 2.5-.7 0 .8-1.1 3.8-2.5 6.7-2.6 5.7-2.2 7.3 1.6 6.7 1.7-.2 2.5-1.1 2.7-2.8.4-2.1.2-2.2-1.2-1.1-2.6 2.2-2.8.8-.7-4 2.4-5.4 1.8-8.9-1.4-8.9-1.5 0-2.6.8-3 2.1M434.7 595.6c-1.3 1.3.5 2.4 3.9 2.4 2.4 0 3.4-.4 3.2-1.3-.5-1.3-6-2.2-7.1-1.1M350 586c2.6 2 4 2.5 4 1.4s-3.4-3.3-5-3.3c-1-.1-.6.6 1 1.9M355.4 588.6c-2.1 3.1-1.4 3.9 6.3 7.9 4 2 5.3 3.3 5.8 5.6.4 1.6 1.1 3.1 1.6 3.4.5.4.9 7.3.9 15.6 0 9.3.4 14.9 1 14.9s1-5.7 1-15.1v-15.1l3.9.7c3.3.5 4.2.3 6-1.6 3.1-3.4 2.7-7-1.4-11.5-3.1-3.4-3.8-3.7-5.5-2.6-2.9 1.7-4.1 1.5-10.1-1.8-6.6-3.6-7.4-3.7-9.5-.4m3 .9c-.4.8-1 1.5-1.5 1.5-.4 0-.6-.7-.3-1.5.4-.8 1-1.5 1.5-1.5.4 0 .6.7.3 1.5m3.4 1.7c-.6 1.8-2.8 2.1-2.8.4 0-.9.7-1.6 1.6-1.6s1.4.5 1.2 1.2m4.1 2.9c-1.2 2.4-2.9 2.5-2.9.1s.8-3.2 2.6-2.5c1 .4 1.1 1 .3 2.4m8.1.7c-1.2 1-2.6 3.6-3 5.8-.8 3.9-.8 3.9-.9.3-.1-2.7.6-4.3 2.6-6.3 1.4-1.4 2.8-2.4 3.1-2.1.3.2-.5 1.3-1.8 2.3m-4 .1c0 .5-.7 1.4-1.5 2.1-1.2 1-1.5 1-1.5-.2 0-.8.3-1.8.7-2.1.9-1 2.3-.9 2.3.2m6.3 2.7c.3.4.2 1.6-.4 2.6-1.3 2.4-3.5.9-2.6-1.6.7-1.7 1.9-2.1 3-1m5.7 2.7c0 2.5-1.7 4.7-3.7 4.7-1.6 0-1.7-2.4-.3-5.1 1.5-2.7 4-2.4 4 .4M751 630.7c-3.8 2.6-4.6 3.6-7 8.2-4.4 8.6-2.4 17.1 4 17.1 1.5 0 3.2.6 3.8 1.3.8.9 1.4 15.5 1.8 43.5l.7 42.2h-5.2c-2.8 0-5.1.4-5.1 1 0 .5 2.5 1 5.5 1h5.5v-86h4.5c3.7 0 5-.5 7.3-3 1.6-1.6 3.3-4.5 4-6.5 1.4-4.9-1.2-11.4-6-14.3-1.8-1.1-3.9-3-4.6-4.1-1.5-2.6-5.8-2.7-9.2-.4m4.5 2c-7 3.8-11.4 11.9-10.1 18.7.5 2.9.5 3-.9 1.2-4.7-6.1 3.5-21.7 11.3-21.6 2.7.1 2.7.1-.3 1.7m4.9 1.9c1.3.5 1.4.9.5 2-1.3 1.6-3.7 1.8-5.8.5-3.1-2 1.4-4 5.3-2.5m-5.5 4.3c1.3.8 1.2 1.5-.4 5-2 4.6-1.9 4.5-4.6 3.1-2.2-1.2-2.4-2.8-.7-6.5 1.2-2.6 3.2-3.2 5.7-1.6m8-.6c-.2.1-1.3.9-2.4 1.7-1.9 1.4-1.9 1.4-.6-.3.7-.9 1.8-1.7 2.4-1.7q.9 0 .6.3m4.1.7c0 .5-.7.7-1.5.4-.8-.4-1.5-.8-1.5-1s.7-.4 1.5-.4 1.5.4 1.5 1m-4.6 4.3c-2.8 3.3-4.4 6.4-4.4 8.7 0 1.1-.4 2-1 2-3 0 .2-9.6 4.2-12.4 2.9-2.1 3.6-1.1 1.2 1.7m3.6 1.9c0 2-3.8 7.8-5.1 7.8-.6 0-.9-.3-.7-.8 3.7-7.7 5.8-10.2 5.8-7m.6 6.4c-2.7 4-3.5 2.7-1.2-1.9 1.5-3 2.2-3.7 2.4-2.4.2 1-.4 2.9-1.2 4.3m-15.8-2.4c1.3 1.3 1.7 5.8.5 5.8-1.4 0-4.3-3.4-4.3-5.2 0-2 2-2.4 3.8-.6m3.9.5c-.4.3-.7 0-.7-.7s.3-1 .7-.7c.3.4.3 1 0 1.4m2.3 7.5c0 .4-.7.5-1.5.2-.8-.4-1.5-1.6-1.5-2.7 0-2 0-2 1.5-.1.8 1 1.5 2.2 1.5 2.6M363.6 637.9c-2.9 3.2-1.3 12.1 2.1 12.1 2 0 3.5-3 2.9-5.5-.4-1.7-1.3-2.5-2.7-2.5s-1.9-.5-1.7-1.8c.2-1.1 1.1-1.6 2.6-1.4 2.7.4 2.8-.4.3-1.7-1.4-.8-2.2-.6-3.5.8m3.4 8.1c0 1.1-.7 2-1.5 2s-1.5-.9-1.5-2 .7-2 1.5-2 1.5.9 1.5 2M383.4 636.8c-3.1 1.9-2.8 11.5.4 12.7 2.3.9 4.2-2.1 4.2-6.5 0-3.9-2.7-7.5-4.6-6.2m2.6 6.8c0 3.2-.4 4.4-1.2 4.2-1.4-.5-2.3-6.1-1.4-8.5 1.1-2.7 2.6-.2 2.6 4.3M391.7 637.8c-1.1 1.2-1.3 2.2-.6 3.5.7 1.2.7 2.2 0 3.1-.9 1-.6 1.9.9 3.7 2 2.4 2 2.4 4 0 1.4-1.6 1.7-2.7 1.1-3.5-.6-.7-.8-2.2-.4-3.4.5-2.1-1.1-5.2-2.7-5.2-.4 0-1.4.8-2.3 1.8m3.3 2.2c0 1.1-.4 2-.9 2-1.4 0-2.3-1.8-1.6-3 1-1.7 2.5-1.1 2.5 1m.5 6c0 2.2-2.9 1.8-3.3-.3-.3-1.4.1-1.8 1.5-1.5 1 .2 1.8 1 1.8 1.8M410 638c-.6 1.2-.7 2-.1 2 .5 0 1.1-.6 1.4-1.3.3-.9.7-.9 1.7 0 .9.9.6 1.9-1.4 4.9-2.7 4-2.2 6.4 1.5 6.4 2.8 0 3.2-1.8.4-2.2-2.5-.3-2.5-.3 0-4 2.1-3.1 2.4-4.2 1.5-5.8-1.4-2.6-3.6-2.6-5 0M455.5 636.9c-3 .6-3 .6-3 13.1v12.5l44-.4c24.2-.2 44.3-.5 44.8-.8.4-.2.7-6 .7-12.9v-12.5l-41.7.2c-23 .1-43.1.5-44.8.8m82.9 8.9c.3 4.3.3 9.3 0 11l-.6 3.1-40.8.1h-40.8l-.7-6.2c-.4-3.5-.5-8.1-.3-10.3l.3-4 20-.5c11-.3 29.5-.6 41.1-.8l21.1-.3z"/><path d="M463.1 641.3c-1.4 1.4-1.4 3.7-.1 3.7.6 0 1-.5 1-1.2 0-.9.3-.9 1.2 0s.7 1.6-.7 3.2c-1.6 1.8-1.6 2-.1 2.6 1.8.7 2.2 4.9.6 5.9-.5.3-1-.1-1-.9 0-.9-.5-1.6-1.1-1.6s-.9 1-.7 2.2c.4 3.3 4.6 3.7 5.3.6.4-1.8.1-11-.4-13.9-.2-1.3-2.9-1.7-4-.6M474.1 641.3c-.6.6-1.1 1.7-1.1 2.5 0 1.2.3 1.2 1.5.2s1.5-.9 1.5.7c0 1-.5 2.4-1.2 3.1-.9.9-.7 1.3.5 1.8 1.7.6 2.3 4.4 1 5.7-.3.4-1.2-.1-1.9-1.1-1.7-2.3-2.9-.9-1.4 1.7 1.3 2.6 4.7 2.8 5.4.3.3-.9.4-4.2.1-7.2-.2-3-.4-6-.5-6.6 0-1.7-2.6-2.4-3.9-1.1M494.9 641.7c-2 2.3-1.7 12.9.4 15.1 1.6 1.5 1.8 1.5 3.4-.1 3.3-3.3 1.9-16.7-1.7-16.7-.4 0-1.4.7-2.1 1.7m3.1 7.3c0 3.3-.4 6-1 6s-1-2.7-1-6 .4-6 1-6 1 2.7 1 6M505.2 642.5c-1.7 3.7-1.5 10.6.4 13.3 2 2.9 3 2.8 4.9-.8 1.4-2.7 1.4-3.3 0-6-.9-1.7-2.3-3-3.1-3-1.1 0-1.4-.6-1-1.6.3-.9.6-1.8.6-2.2 0-.3.7.3 1.5 1.4 1.5 1.8 1.5 1.8 1.3-.6-.4-3.4-3.2-3.7-4.6-.5m3.8 9.6q0 3-1.2 2.7c-1.5-.5-2.2-3.3-1.4-5.4.9-2.4 2.6-.6 2.6 2.7M517.6 647c.4 4.6.2 7.5-.6 8.4-1.3 1.6.2 3.1 2.3 2.3 1.8-.7 1-17.7-.8-17.7-1.2 0-1.3 1.4-.9 7M482.5 649c-.3.6 0 1.3.9 1.6 2.2.8 5.9.1 6.4-1.4s-6.4-1.7-7.3-.2M325.6 639.2c-1.8 2.6-.5 5.8 2.4 5.8 1.1 0 2 .4 2 .8 0 1.6-2.3 3-3.9 2.5-1.2-.5-1.3-.3-.5.6 1.8 2 4.8.9 5.8-2.2.7-2 .6-3.6-.7-6.2-1.9-4.1-3-4.3-5.1-1.3m3.7 3.5c-.5 1.3-.7 1.3-2.1 0-.8-.8-1.1-2-.7-2.7 1-1.6 3.5.7 2.8 2.7M335 638.5c-1.7 2-.9 4.8 1.8 6 2.2 1 2.8 2.5 1.5 3.8-.3.4-1.2.2-2-.5-1.5-1.2-2.8-.5-1.8 1.1 1.1 1.8 4.4 1.2 5.6-1 1.3-2.6.5-8.9-1.3-10.1-1.8-1.1-2.4-1-3.8.7m3.8 2.8c.2 1-.3 1.7-1.2 1.7-1 0-1.6-.9-1.6-2.1 0-2.4 2.3-2.1 2.8.4M344 638c0 .5.8 1 1.9 1 1.7 0 1.8.3.5 4.1-1 2.8-1.1 4.5-.4 5.7.8 1.5.9 1.4 1-.6 0-1.2.7-3.9 1.5-5.9 1.7-4.1 1.9-3.8-1.7-4.7-1.7-.4-2.8-.2-2.8.4M354 638.5c-1.7 2-.9 4.8 1.8 6 3.1 1.4 2.9 3.9-.3 3.2-1.6-.3-2.4 0-2.2.7.8 2.3 4.3 1.7 5.5-.9 2.9-6.4-.9-13.7-4.8-9m3.8 2.8c.2 1-.3 1.7-1.2 1.7-1.8 0-2.9-1.6-2.1-3.1.9-1.4 2.9-.6 3.3 1.4M402 638.5c-.9 1-.9 1.5-.1 1.5.6 0 1.1 1.8 1.1 4.5 0 2.5.5 4.5 1 4.5 1.2 0 1.3-10.7.1-11.4-.5-.3-1.4.1-2.1.9M373.5 644c-.4.6.5 1 1.9 1s2.6-.5 2.6-1c0-.6-.9-1-1.9-1-1.1 0-2.3.4-2.6 1M795.5 647.9c-7.5 3.4-14.3 12.7-16.5 22.6-1.6 7.2-.5 10.3 5.8 16.4 5.1 4.8 5.9 5.3 9.2 4.8l3.7-.5.6 25.6c.4 14 .7 33.9.7 44.2v18.7l-7.9-.5c-5.2-.3-8.1-.1-8.5.7-.5.8 2.1 1.1 9 1.1h9.7l-.4-45.2-.4-45.2 3.5-.3c7.8-.7 15.9-11.1 16.7-21.5.4-5.6.2-6.7-2.1-9.7-1.4-1.9-2.6-4.3-2.6-5.2 0-2.5-4.7-5.5-9.5-6.2-2.2-.3-4.7-.8-5.5-1.1s-3.3.3-5.5 1.3m6.5 1.1c0 .5-.4 1-1 1-1.8 0-8.2 6.4-11.4 11.4-3.7 6-5.6 11.7-5.6 17.5 0 4.5-.6 5-2.6 2.3-3.2-4.1-.5-16.5 5.2-23.9 4.4-5.8 15.4-11.7 15.4-8.3m10.6 3.2c1.9 2.1 1.9 2.1-.1 1.3-6.6-2.6-11.8-1.2-17 4.7-6 6.5-8.8 13.8-8.3 21 .3 3.8 1 6.3 1.9 6.8.8.5 2.3 1.6 3.4 2.4 2 1.5 2 1.5-.2 1.6-4.8 0-8.1-7.1-6.8-14.8 2.8-16.4 20-31.1 27.1-23m-.6 3.3c4.1 2.1 8 7.6 8 11.2 0 6.9-5.5 16.6-11.5 20.3-3 1.9-4.5 2.1-8.7 1.6-6.9-.9-10.5-3.6-11.2-8.4-1.3-7.4 4.2-19 11.3-23.8 4.1-2.8 8-3 12.1-.9"/><path d="M807.4 660.2c-4.6 3.6-6.5 6-9 11.6-2.4 5.4-3.2 12.2-1.4 12.2.6 0 1-2 1-4.4 0-7.1 5.5-15.8 12.2-19.2 1.6-.8 2.8-1.7 2.8-1.9 0-1.2-3-.3-5.6 1.7M226.7 698.7c-.4.3-.7 10-.7 21.3 0 15.4.3 21 1.3 21.8 1.9 1.6 88.1 1.6 89.5 0 1.3-1.7 1.3-40.8-.1-42.6-.7-.9-11-1.2-45.2-1.2-24.3 0-44.5.3-44.8.7m87.3 21.8V740h-84v-39h84z"/><path d="M237.3 702.7c-2.2.8-1.5 3.5.7 2.8 2.3-.7 2.7 1.3.8 3.4-1 1.1-1 1.4 0 1.8 1.2.5 1.8 5.3.6 5.3-.4 0-1.3-.8-2-1.8-1.2-1.6-1.3-1.6-1.4.4 0 3 2.5 5 4.5 3.4 1-.8 1.4-3 1.3-7.3-.2-7.6-1.2-9.4-4.5-8M248.2 703.2c-1.8 1.8-1.4 3 .8 2.3 2.3-.7 2.8 1.3.8 3.4-1.1 1-1 1.4.5 2.2.9.6 1.7 1.6 1.7 2.4 0 2.3-2 2.8-3.5.9-1.4-1.8-1.4-1.8-1.5.1 0 2.3 1.7 4.5 3.6 4.5 2 0 3.7-5.5 2.4-7.9-.6-1.2-.8-2.6-.5-3.2 1-1.5-.4-5.9-1.8-5.9-.7 0-1.8.5-2.5 1.2M271 703c-2.2 1.4-2.1 12.4.2 14.7 1.7 1.6 1.9 1.6 3.3-.2 2.5-3.4 1.5-15.5-1.3-15.5-.4 0-1.4.5-2.2 1m3 7.5c0 5.3-1.1 7.2-2.4 3.9-.8-2.1-.8-7.9.1-8.7 1.6-1.7 2.3-.3 2.3 4.8M281 703.9c-1.3 2.5-1.3 4.1 0 4.1.6 0 1-.7 1-1.5s.5-1.5 1-1.5c1.6 0 1.1 4.3-1 8.8-2.6 5.3-2.6 5.4 1.3 5 2.7-.3 3.2-.7 3.5-3.3.3-2.9.3-2.9-1.2-1-1.5 2-1.5 2-1.6-.2 0-1.2.4-2.4.9-2.7s1.1-1.8 1.4-3.3c1-5.2-3-8.6-5.3-4.4M292 704.6c-1.6 4.2-1.2 10 .9 12.5 2 2.4 2 2.4 3.5.4 2.2-2.9 2.1-11.7-.2-13.8-2.5-2.3-3.1-2.1-4.2.9m4 6.4c0 4.9-1.3 7.3-2.4 4.4-.8-2.1-.8-8.9 0-9.7 1.5-1.4 2.4.7 2.4 5.3M258 711c0 .5 1.3 1 2.9 1 1.7 0 3.3-.5 3.6-1 .4-.6-.8-1-2.9-1-2 0-3.6.4-3.6 1M237 722.5c-.6.8-.9 1.9-.5 2.6.6.8 1 .8 1.6-.2 1.5-2.5 2.3.1.8 2.8-1.1 2-1.1 2.7-.1 3 .6.3 1.2 1.7 1.2 3.1-.1 2.5-.2 2.5-1.4.9-.7-.9-1.6-1.7-2-1.7-1.2 0-.6 2.8.9 4 2.8 2.3 4.4-.5 4.3-7.3-.2-7.9-2-10.6-4.8-7.2M248 722.5c-1.6 1.9-.3 4 1.6 2.4 1.8-1.5 2 1.1.2 3-1.1 1-1 1.5.5 2.5.9.7 1.7 1.8 1.7 2.4 0 1.8-2.2 2.6-3.1 1.1-.4-.7-1.1-1-1.6-.6-.8.9.8 3.9 2.5 4.5.6.2 1.9-.9 2.8-2.3 1.4-2.2 1.5-3 .5-4.7-.6-1-.9-2.8-.6-3.9 1.4-4.4-1.8-7.7-4.5-4.4M270.9 722.7c-2.1 2.5-1.8 11.8.4 14 1.8 1.7 1.9 1.7 3.3-.1 1.8-2.5 1.8-11.5 0-13.9-1.6-2.1-2-2.1-3.7 0m3.1 6.8c0 5.2-1.1 7.2-2.3 4.1-.8-1.9.4-9.6 1.4-9.6.5 0 .9 2.5.9 5.5M281 723.5c-1.6 3-.5 4.6 1.4 2 2.6-3.6 2.8.5.2 6.1-1.4 3.1-2.6 5.8-2.6 6s1.6.4 3.5.4c3.2 0 3.5-.3 3.4-2.8 0-1.5-.3-2.1-.6-1.5-.8 2.2-3.2 1.5-2.6-.7.3-1.1.9-2 1.3-2 1.2 0 1.9-5.2.9-7.7-1.1-3-3.2-2.9-4.9.2M293.3 722.2c-3 3.7-2.7 14.1.5 15.3 2.5.9 4.2-2.2 4.2-8 0-3.8-.5-5.6-1.9-6.9s-2-1.4-2.8-.4m2.7 7.2c0 5.5-1.2 8-2.4 5-.8-2-.8-6.8 0-8.8 1.3-3.3 2.4-1.4 2.4 3.8M301.7 723c-.6 2.2.3 2.6 2.1.8 2.2-2.2 2.6.3.8 5-1 2.6-2.1 5.7-2.3 7-.5 2.1-.3 2.3 2.8 2 2.8-.2 3.5-.8 3.7-2.8.2-2.2.1-2.3-.8-.8s-4 2.6-4 1.5c0-.2 1.1-3.2 2.5-6.6s2.3-6.6 2-7.1c-.4-.6-1.9-1-3.4-1-2 0-3 .6-3.4 2M258 730c0 .5 1.6 1 3.5 1s3.5-.5 3.5-1c0-.6-1.6-1-3.5-1s-3.5.4-3.5 1M531.7 711.6c-.1.2-10.9.4-23.9.4-13 .1-24.6.4-25.7.7-2 .5-2.1 1.2-2.1 12.4 0 11.9 0 11.9 3.3 12 18.8.4 87.4-.4 88-1 .4-.4.6-6.1.5-12.7l-.3-11.9-19.7-.1c-10.8-.1-19.9 0-20.1.2m36.4 6.6c.3 10.5.1 14.9-.5 15.5-.4.4-19.3.9-42 1.1l-41.4.4-.3-5.1c-.2-2.8-.2-7.3-.1-10.1l.4-4.9 12.1-.3c6.7-.2 25.6-.4 42-.6l29.7-.3z"/><path d="M524.4 717.5c-1.2 1.9-1.4 2.9-.6 3.7s1.4.5 2.1-1.3c.7-2 1-2.1 1.6-.7.3.9-.3 3.5-1.4 5.9-2.8 5.7-2.7 7.9.3 7.9 3.2 0 5.1-2.3 3.7-4.7-.6-1-1.1-1.2-1.1-.6 0 .7-.7 1.3-1.5 1.3-1.2 0-1.1-.6.5-3.3 2.5-4 2.5-6.9.1-9.1-1.9-1.7-2-1.7-3.7.9M535.1 716.4c-.7.8-1.1 3-.9 4.8.2 2.5.8 3.3 2.3 3.3 1.4 0 2.1.8 2.3 2.7.3 2.7-1.1 3.8-2.3 1.8-.9-1.5-2.5-1.2-2.5.5 0 1.8 3.2 3.6 4.8 2.7 3.5-2.2 2.9-9.5-1-10.7-2.4-.8-2.3-2.5.2-2.5 1.3 0 2-.7 2-2 0-2.4-3.1-2.7-4.9-.6M547.8 715.5c-.3.3-.3 3.5 0 7 .3 4.4.1 7-.8 8-1.1 1.3-.9 1.5 1.1 1.5 2.4 0 2.4-.1 2.1-7.8-.4-7.3-1.1-10-2.4-8.7M491.3 716.7c-1.5.5-1.8 3.3-.4 3.3.5 0 1.1-.6 1.4-1.3.3-.8.7-.5 1.2.7.6 1.3.3 2.3-.8 3.1-2.1 1.5-2.2 2.5-.2 2.5.9 0 1.5.9 1.5 2.4 0 3.3-1.6 4.1-2.5 1.3-.6-2-.8-2-1.2-.3-.6 2.3 1.8 4.9 4 4 1.3-.5 1.6-2 1.5-7.7-.1-7.8-1.1-9.4-4.5-8M501.7 716.7c-1.6 1.5-.7 3.4 1.3 2.8 2.3-.7 2.7 1.3.8 3.4-1 1.1-1 1.4 0 1.8 1.2.5 1.8 5.3.6 5.3-.4 0-1.3-.8-2-1.8-1.3-1.6-1.3-1.6-1.4.3 0 2.3 1.7 4.5 3.6 4.5.6 0 1.7-1.4 2.4-3 1-2.3 1-3.3 0-4.5-.6-.8-.9-2.3-.5-3.5.9-2.9-.3-6-2.4-6-1 0-2.1.3-2.4.7M557 722.2c-.6 3.5-1.4 7.1-1.7 8-.2 1.1.1 1.8 1 1.8.8 0 1.3-.9 1.3-2.2-.1-1.4.6-2.4 1.7-2.6 1.3-.3 1.7.3 1.7 2.2 0 1.6.6 2.6 1.5 2.6 1.8 0 1.8-.4.6-4.4-.5-1.7-1.5-5-2.1-7.4-.6-2.3-1.5-4.2-1.9-4.2-.5 0-1.4 2.8-2.1 6.2m3 1.8c0 .5-.4 1-1 1-.5 0-1-.5-1-1 0-.6.5-1 1-1 .6 0 1 .4 1 1M512 724.5c0 1.2.8 1.6 3.3 1.3 1.7-.2 3.2-.8 3.2-1.3 0-.6-1.5-1.1-3.2-1.3-2.5-.3-3.3.1-3.3 1.3M656.7 731.8l-3.8.3.3 12.2.3 12.2 17.5-.1c9.6 0 29.5-.1 44.3-.2l26.7-.2v-25.1l-40.7.3c-22.5.1-42.5.4-44.6.6m82.1 11.4-.3 10.3-40 .7c-22 .4-40.6.5-41.2.3-1.4-.5-1.9-19.5-.6-20.8.3-.4 19-.7 41.5-.7h40.9z"/><path d="M663 736.5c-1.7 2-.5 3.2 1.5 1.5 1.3-1.1 1.5-.9 1.5 1.3 0 1.4-.6 2.7-1.2 3-.9.3-.7.9.6 1.9 1.4 1.1 1.6 2.1 1.1 3.8-.7 2.3-.8 2.3-2.1.5-1.7-2.3-3.3-1.1-1.8 1.3 1.7 2.6 4.3 2.6 5.3 0 1.4-3.7-.1-14.2-2-14.6-.9-.1-2.2.4-2.9 1.3M673.6 736.6c-.9 2.3 0 2.9 1.9 1.4 1.3-1 1.5-.9 1.5.7 0 1-.5 2.4-1.2 3.1-.9.9-.8 1.5.7 2.6 1.1.8 1.6 1.9 1.2 3-.7 1.7-2.7 2.2-2.7.6 0-.6-.4-1-1-1-1.5 0-1.2 2.6.5 4 1.3 1 1.9 1 3.5-.5 2.2-2 2.6-5 .9-6.1-.6-.3-.8-1.7-.4-3.1.3-1.4.3-3.3 0-4.4-.8-2.3-4.1-2.5-4.9-.3M695.1 736.9c-1.5 2.8-1.4 10.4.3 12.6 3.2 4.5 6.8-3 5-10.4-1-4.1-3.7-5.2-5.3-2.2m3.5 2.5c.8 3.5.1 8.9-1.3 9.4-1 .3-1.3-1.3-1.3-5.7 0-6.1 1.4-8.2 2.6-3.7M706.7 740.5c-2.7 5.5-2.7 5.5-.2 6.5 1.6.6 2.3 1.4 1.9 2.5-.4 1 0 1.5 1.3 1.5 1.7 0 1.9-.7 1.5-7.3-.2-3.9-.7-7.5-1.1-7.9-.4-.5-1.9 1.7-3.4 4.7m1.9 4.2c-1 1-1.9-.5-1-1.8.6-1.1.8-1.1 1.2 0 .2.7.1 1.5-.2 1.8M716.4 736.4c-.3.8-.4 2.3-.1 3.3.4 1.6.6 1.5 1.2-.5.4-1.2 1.1-2.2 1.6-2.2 1.6 0 1 4.8-1.1 8.5-1.1 2-2 4-2 4.5 0 1.7 6 1.1 6.7-.5.8-2.2-.4-3-2.2-1.5-2 1.7-2-.1.1-4.1 2.1-4.2 1.5-8.3-1.4-8.7-1.3-.2-2.4.3-2.8 1.2M683.5 744c.3.5 1.9 1 3.6 1 1.6 0 2.9-.5 2.9-1 0-.6-1.6-1-3.6-1-2.1 0-3.3.4-2.9 1M229.4 747.6c-2.4 3.6-2.1 10.6.6 14.4 1.2 1.7 2.6 2.8 3.1 2.5.5-.4 0-1.6-1.1-2.7-2.5-2.7-2.7-10.8-.4-14.3 1-1.5 1.2-2.5.5-2.5-.6 0-1.8 1.2-2.7 2.6M315.1 748.7c2.4 4.7 2.4 6.9-.2 11.7-1.3 2.5-1.6 3.7-.7 3.4 2.4-.8 4.9-7.1 4.3-10.6-.9-4.7-2.6-8.2-4.1-8.2-.8 0-.6 1.1.7 3.7M324.5 748.6c-2 4.3-1.5 10.6 1.1 13.5s3.9 2.3 1.8-.9c-2-3.1-2.4-11.6-.6-13.4 1.4-1.4 1.6-2.8.3-2.8-.5 0-1.6 1.6-2.6 3.6M382.2 748.5c2.4 4.2 2.1 10.4-.8 13.6-.9 1-1.2 1.9-.6 1.9 1.9 0 5.2-5.7 5.2-8.9 0-3.7-2.9-10.1-4.7-10.1-.8 0-.6 1.1.9 3.5M242.4 747.5c-1.4 1.1-1.6 1.7-.7 2.3.6.4 1.3 3.2 1.5 6.1.2 3.2.8 5.6 1.6 5.9.9.3 1.2-1.6 1.2-7.2 0-4.1-.4-7.7-.9-8-.4-.3-1.7.1-2.7.9M260 748c-2.7 2.7-2.8 10-.2 12.3 5.2 4.7 12.4-1.9 7.5-6.8-1.1-1.1-2.6-1.5-4.5-1.1-3.1.6-3.5-.1-1.4-2.9 1.3-1.7 1.7-1.8 4-.6 3.1 1.7 4.3 1 2.1-1.3-2.2-2.2-5.1-2-7.5.4m6.6 7.5c.7 1.8-1.3 4.5-3.3 4.5-1.7 0-2.7-2.4-1.9-4.5.7-2 4.5-1.9 5.2 0M280.4 746.8c-3.8 2.5-4.4 9-1.1 12.8 1.9 2.2 2.9 2.6 5 2 3.2-.8 6.1-5.8 5.3-9.2-1.2-4.8-6.1-7.7-9.2-5.6m5 2.8c1.7 1.7 2.1 6.1.7 8.2-.4.8-1.9 1.2-3.2 1-2-.2-2.5-1-2.7-4.1-.3-3.6 1-6.7 2.9-6.7.4 0 1.5.7 2.3 1.6M298 749.2c-2.4 4-2.5 5-.5 8.8 2.3 4.4 6.2 5 9.3 1.5 1.9-2.3 2.3-3.6 1.8-6.3-1.2-7.4-7.1-9.7-10.6-4m6.9.2c.7.8 1.1 3.2.9 5.3-.2 3.1-.7 3.9-2.7 4.1-2.7.4-4.1-1.2-4.1-4.6 0-5.1 3.4-7.8 5.9-4.8M341.7 746.7c-.4.3-.7 2.2-.7 4 0 3.1.2 3.4 2.8 3.1 2.3-.3 2.7.1 3 2.4.3 2.2-.1 2.8-1.5 2.8-1.1 0-2.4-.5-3.1-1.2-.9-.9-1.2-.9-1.2.3 0 3.8 4.6 5.1 7.3 2.1 3.1-3.4 1.5-7.7-3.6-9.5-2.5-.9-1.2-2.7 1.9-2.7 1.4 0 2.2-.4 1.9-1-.7-1.1-5.8-1.4-6.8-.3M350.5 747c-.4.6.7 1 2.4 1 3.7 0 3.8.7 1.1 7.7-1.1 2.9-1.6 5.5-1 5.8.5.3 1.1.1 1.4-.4 1.3-2 4.5-13.5 4-14.3-.7-1.1-7.2-1-7.9.2M361.7 747.8c-2.4 2.6-2.3 10.4.1 12.5 3.9 3.6 7.2.7 7.2-6.3 0-7.1-3.7-10.2-7.3-6.2m5.3 6c0 1.3-.5 3.2-1.1 4.3-.8 1.6-1.3 1.8-2.5.8-1.8-1.4-1.9-9.5-.1-10.2 1.6-.6 3.7 2.1 3.7 5.1M371 747.5c-1.6 2-.5 3.2 1.4 1.6.8-.7 2-1 2.6-.6 1.7 1.1 1.1 3.1-1.2 4.3-2.3 1.1-2.3 1.1 0 1.8 1.2.3 2.2 1.4 2.2 2.5 0 2.9-2.1 3.4-4.1.8-1.8-2.3-1.9-2.3-1.9-.4 0 4.3 4.4 5.9 7.5 2.9 1.1-1.1 1.4-2.5 1-3.8-.4-1.2-.6-3.6-.5-5.5.1-4.8-4.2-7-7-3.6M331 754c0 .5 2 1 4.5 1s4.5-.5 4.5-1c0-.6-2-1-4.5-1s-4.5.4-4.5 1M713 770c-21.5.5-21.5.5-21.4 2.7 0 1.3.1 6.8.2 12.3l.2 10 37.8-.1c20.7-.1 40.6-.4 44.2-.8l6.5-.6v-24h-23c-12.6 0-32.7.2-44.5.5m64.8 11.7.3 10.1-11.8.4c-6.5.3-25.2.5-41.5.7l-29.8.2V783c0-5.5.3-10.1.8-10.1 1.1-.2 64.5-1.4 73.7-1.4h8z"/><path d="M744.7 773.7c-.4.3-.7 1.8-.7 3.2 0 2.4.1 2.4 1.4.5 2.1-2.8 3.1-1 1.8 3.5-1.4 4.5-1.5 8.1-.3 8.1.4 0 1.1-2.4 1.5-5.3.3-2.8.9-6.4 1.2-8 .6-2.4.3-2.7-1.8-2.7-1.4 0-2.8.3-3.1.7M756.9 773.5c0 .6-.1 4.4-.1 8.5 0 5.5.4 7.6 1.4 7.8 1.1.2 1.3-1.4 1-7.5-.2-4.3-.8-8.2-1.3-8.8-.6-.6-.9-.6-1 0M701.6 775.5c-.3.9-.6 2.4-.6 3.3 0 1.3.5 1.1 2-.8 2-2.5 2-2.5 2 .3 0 1.5-.9 4.4-2 6.4-2.8 5.4-2.6 6.5 1.3 6.1 2.4-.2 3.3-.8 3.5-2.6.4-2.3-1.3-3.1-2.1-1-.2.7-.8 1-1.2.6s0-2.3.9-4.3c2.3-4.7 1.8-8.9-1-9.3-1.3-.2-2.4.4-2.8 1.3M713.2 775.2c-1.8 1.8-1.6 13.3.3 14.8 2.3 1.9 4.5-.5 4.5-5.1 0-2.9-.5-3.9-2-4.4-1.1-.4-2-1.5-2-2.7 0-1.6.3-1.8 1.4-.9s1.6.9 2.1 0c.4-.6.1-1.5-.6-2-1.8-1.2-2.3-1.1-3.7.3m2.8 9.8c0 1.6-.4 3-1 3-.5 0-1-1.4-1-3 0-1.7.5-3 1-3 .6 0 1 1.3 1 3M734 775.9c-2.2 4.2-.5 14.1 2.4 14.1 2.2 0 3.6-3.2 3.6-8 0-4.7-1.4-8-3.5-8-.8 0-1.9.9-2.5 1.9m3.8 6.7c-.2 2.7-.7 4.9-1.3 4.9-1.1 0-1.9-7.9-1-10.3 1.1-3 2.6.5 2.3 5.4M722 782c0 .5 1.8 1 4.1 1 2.4 0 3.8-.4 3.4-1-.3-.6-2.2-1-4.1-1s-3.4.4-3.4 1M629.8 888.1c-.7.4-.7.9 0 1.3 1.3.8 18.5-.5 17.6-1.3-.8-.8-16.3-.8-17.6 0M652.6 887.9c-.5.8 12.5 2.3 13.3 1.6.1-.2 0-.8-.4-1.4-.7-1.3-12.1-1.5-12.9-.2M671.5 888c-.4.6 2 1 6.5 1s6.9-.4 6.5-1c-.3-.6-3.3-1-6.5-1s-6.2.4-6.5 1M688 888c0 .5 2.5 1 5.6 1 3.4 0 5.3-.4 4.9-1-.3-.6-2.8-1-5.6-1-2.7 0-4.9.4-4.9 1M701.2 887.7c.2.5 1.4 2.6 2.8 4.8 2.3 3.7 2.5 3.8 2.8 1.7.2-1.5-.5-3.3-1.9-4.8-2.1-2.3-4.5-3.3-3.7-1.7M362.2 888.7c-.6.3-1 .9-.6 1.4.7 1.2 17.1 1.2 17.9-.1.3-.6.3-1.1-.2-1.1-2.4-.4-16-.5-17.1-.2M384.9 889c-1.1.8-1.1 1 .2 1.5 2.3.9 17.4.1 17.2-.9-.4-1.1-15.6-1.6-17.4-.6M407.5 889c-.3.5 0 1.3.8 1.6 2.4.9 16.2 0 16.2-1.1 0-1.4-16.1-1.9-17-.5M429.7 888.6c-1.6 1.7 1 2.4 8.5 2.4 8.1 0 8.1 0 6.1 2.2-4 4.4-4 12.6-.1 16.8 2.5 2.7 3.5 1.9 1.4-1.2-2.2-3.1-2-10.5.4-15.3 2-4 2-4-.2-4.6-3.4-.9-15.3-1.1-16.1-.3M452 889.5c0 1.3 1.4 1.5 9.3 1.3 5.3-.2 9.2-.7 9.2-1.3s-3.9-1.1-9.2-1.3c-7.9-.2-9.3 0-9.3 1.3M475.2 888.9c-2.2 1.4 1.1 2.1 9.4 2.1 5.9 0 7.4-.3 7.4-1.5s-1.5-1.5-7.7-1.5c-4.3 0-8.4.4-9.1.9M498.2 889.2c.3.9 2.8 1.3 8.1 1.3 10.6 0 10.4-1.9-.1-2.3-6.5-.2-8.3 0-8 1M519.5 889c-1 1.6 1.7 2.1 9 1.8 4.4-.2 7-.8 7.3-1.6.5-1.5-15.3-1.7-16.3-.2M541.2 889.2c.6 1.8 17 1.8 17.5 0 .4-.9-1.8-1.2-8.7-1.2-6.8 0-9.1.3-8.8 1.2M563 888.9c0 .5.6 1.1 1.3 1.3 2.4.7 17.7-.4 17.7-1.3 0-.5-4.3-.9-9.5-.9s-9.5.4-9.5.9M587 889c0 .6 3.5 1 8.5 1s8.5-.4 8.5-1-3.5-1-8.5-1-8.5.4-8.5 1M609 889c0 .6 3.3 1 8 1s8-.4 8-1-3.3-1-8-1-8 .4-8 1M331.5 891.5c-1.4 1.3-2.5 3.1-2.5 3.9s1.4 0 3.5-2.1c1.9-1.9 3.5-3.7 3.5-3.9 0-1.2-2.4-.1-4.5 2.1M339 890c0 .6 3.5 1 8.5 1s8.5-.4 8.5-1-3.5-1-8.5-1-8.5.4-8.5 1M344.5 894.4c-2.7 4.1-2.9 8.8-.6 13.4 1.2 2.3 2.6 4.2 3.1 4.2 1.4 0 1.3-.7-.6-3.6-2.1-3.1-2.1-9.2-.1-13.3 1.8-3.6.5-4.2-1.8-.7M428.3 893.8c2.6 2.9 3.2 9.4 1.2 13.6-2.1 4.5-1.3 5.8 1.2 2 3.3-5.1 1.6-17.4-2.5-17.4-1.3 0-1.3.3.1 1.8M527.9 894.6c2.6 3.3 2.8 10.9.5 14.2-.9 1.3-1.3 2.6-.9 3 .9.9 4.2-3.7 4.9-6.9 1-4.9-2.4-12.9-5.5-12.9-.6 0-.1 1.2 1 2.6M356.9 895c-2 1.6-2.1 1.9-.6 2 1.4 0 1.7 1 1.7 6 0 3.3.4 6 1 6s1-3.3 1-8c0-4.4-.2-8-.4-8s-1.4.9-2.7 2M374.5 894.3c-1.3 1-1.6 2.1-1.1 4 .4 1.6.1 3.5-.6 4.7-2.7 4.3 4.1 8.6 8.7 5.6 2.5-1.7 3.3-5 1.5-6.1-.6-.4-.8-2.1-.4-4 .5-2.7.2-3.5-1.4-4.4-2.7-1.5-4.4-1.4-6.7.2m5.9 2.2c.7 1.8-2.5 3.7-4.3 2.5-.8-.4-1.1-1.5-.8-2.4.8-2 4.3-2.1 5.1-.1m.3 6.6c1.8 1.8.3 3.9-2.8 3.9-2.1 0-2.9-.5-2.9-1.8 0-1 .3-2.2.7-2.5 1-1.1 3.8-.8 5 .4M393.4 895.1c-2.4 2.6-2.5 10-.1 12.3 2 2 6.1 2.1 8.1 0 2.7-2.7 3.1-6.5 1-10.3-2.3-4.4-6.1-5.2-9-2m6.6 1.9c1.5 2.9.9 8.1-1.2 9.3-2.5 1.6-4.8-.9-4.8-5.2 0-5.7 3.8-8.2 6-4.1M412 896.2c-1.1 1.8-2 4-2 4.8s.9 3 2 4.7c1.5 2.5 2.7 3.3 4.9 3.3 3.8 0 5.6-2.4 5.6-7.5 0-8.2-6.7-11.5-10.5-5.3m6.8 0c1.3 1.3 1.6 6.6.6 9.2-.8 2.2-4.1 2-5.4-.3-2.9-5.5 1-12.7 4.8-8.9M456.3 894.3c-2.6 1.1-3 2.7-.8 2.7 1.2 0 1.5 1.3 1.5 6s.3 6 1.5 6 1.5-1.5 1.5-7.4c0-4.1-.3-7.7-.7-7.9-.5-.3-1.8 0-3 .6M474.8 894.1c-2.1 1.2-3.7 6.7-3.1 10.3.8 3.8 4.7 6.2 7.8 4.8 3.2-1.5 4-4.7 2-7.9-1.4-2.1-2.2-2.4-4.7-1.9-2.4.5-2.9.3-2.6-1.1.6-3 3.5-3.9 5.7-1.9 1.7 1.5 2.1 1.6 2.1.5 0-3.4-3.8-4.8-7.2-2.8m5 10.2c.3 2.3 0 2.7-2.1 2.7-2.9 0-4.3-2.6-2.6-4.7 1.8-2.1 4.4-1.1 4.7 2M493.8 894c-.9.6-2.2 2.5-2.8 4.4-2.5 7.8 4.6 14.3 9.9 9.1 2.3-2.3 1.7-10.6-.9-12.7-2.5-2-3.8-2.2-6.2-.8m5 2.2c1.3 1.3 1.6 6.6.6 9.2-.3.9-1.6 1.6-2.9 1.6-1.8 0-2.4-.7-2.9-3.4-1.1-6 2-10.6 5.2-7.4M512.2 895.3c-2.9 3.1-3 9.5-.2 12.5 2.6 2.7 4 2.8 7.4.1 3.3-2.6 3.6-8.4.5-12.3-2.5-3.2-4.9-3.3-7.7-.3m6.9 4c1 3.9-.8 7.9-3.5 7.5-2.8-.4-4.3-4.9-2.8-8.3 1.6-3.6 5.3-3.1 6.3.8M545.2 894.2c-.5.7-1.5 3-2.3 5-1.2 3.4-1.1 4.2.9 8.3 1.2 2.5 2.6 4.5 3.2 4.5 1.4 0 1.2-1.1-.5-3.4-.8-1.1-1.5-3.8-1.5-6.1s.7-5 1.5-6.1c.8-1 1.5-2.2 1.5-2.7 0-1.1-1.7-.8-2.8.5M602 896.2c2.6 4.2 2.5 9.2-.1 12.9-1.9 2.8-1.7 3.7.7 2.1 2-1.3 3.4-5 3.4-8.7 0-4.3-2.5-9.5-4.5-9.5-1.2 0-1.1.6.5 3.2M551 898.5c0 4.6.7 5.4 2.7 3.4 1.6-1.6 3.3-.2 3.3 2.6 0 3.2-1.7 4.1-4.1 1.9-2.1-1.9-3.3-1.5-2.3.9 1.5 4 9.4 2 9.4-2.3 0-2.4-3.4-6-5.5-6-2.6 0-1.6-1.9 1.2-2.2 4.5-.5 4-2.8-.6-2.8-4.1 0-4.1 0-4.1 4.5M560.2 895.2c.3.7 1.7 1.4 3.2 1.6 2.1.3 2.6.7 2.1 2-2 4.8-3.3 10.2-2.5 10.7.5.3 1.1.1 1.5-.4.7-1.3 4.5-13.1 4.5-14.2 0-.5-2.1-.9-4.6-.9-3.2 0-4.4.4-4.2 1.2M571 895.5c-1.7 2-1.7 10.9-.1 12.9 1.9 2.2 4.7 2 7.1-.6 1.6-1.8 2-1.9 2-.6 0 2 3.2 3.2 6 2.3 2.2-.7 3.6-4.7 2.4-6.7-.4-.7-.7-2.7-.5-4.4.2-2.5-.2-3.4-1.8-3.9-3.1-.9-6.1.3-6.1 2.6s.9 2.4 2.5.2c.7-.9 1.7-1.3 2.3-.9 1.9 1.2 1.4 3.6-1 4.6-2.3.9-2.3.9 0 1.6s3 3.8 1 5c-.6.4-1.6 0-2.3-.9-.7-1-1.7-1.7-2.4-1.7-.6 0-1.1-1.5-1.1-3.3 0-6.1-4.9-9.9-8-6.2m5 6.4c0 5.2-.5 6.2-2.6 5.4-1.8-.7-1.9-9.9-.1-10.6 2.1-.8 2.7.3 2.7 5.2M328.8 902c-.3 1.7-.1 3.3.4 3.6.4.3.8-1.1.8-3 0-4.4-.6-4.7-1.2-.6M706 906.5c0 4.8.4 7.4 1 7 .6-.3 1-3.5 1-7s-.4-6.7-1-7c-.6-.4-1 2.2-1 7M589.5 902c-.3.5 0 1.3.8 1.6 2.3.8 8.2 0 8.2-1.1 0-1.4-8.2-1.9-9-.5M329 915.4c0 3.7.4 6.5.9 6.2 1-.7.8-11.2-.2-12.3-.4-.3-.7 2.4-.7 6.1"/><path d="M413.5 912.7c-4.5 1-8.7 3.6-9.6 5.9-.5 1.4-.9 5.1-.9 8.3 0 6.7 1.3 8.4 7.5 10 2.2.5 6.9 1.7 10.5 2.6 7 1.7 11 3.8 11 5.8 0 1.1-4.6 19.6-7.3 29.2-.6 2.2-3.3 8.4-5.9 13.7-4 8-4.9 11-5.4 17.1-.7 7.4-.7 7.4-5 10-5.1 3.1-7.8 7.7-7.1 12.1.4 2.8-.2 3.8-6.2 9.6-10.1 9.8-18.7 16-22.2 16-5.3 0-14.2 3.1-17.1 6-2.5 2.5-2.6 3.2-2.2 8.6 1 11.4 3.2 13.6 13.1 13.7 5.8 0 15.3-3.2 15.3-5.2 0-.7 4.4-3.1 5.5-3.1.3 0 .5 11.2.5 25v25l-20.7.2-20.8.3-.3 22.2c-.2 22.3-.2 22.3 2.3 22.9 1.4.3 12.5.4 24.7 0 12.3-.3 31-.5 41.6-.6H434l-.2-22.3-.3-22.2-21.7-.3-21.8-.2-.1-12.3c-.1-6.7-.1-18.3-.1-25.6l-.1-13.5 6.9-3.8c13.5-7.5 21.8-11 30.7-12.9 12.6-2.7 30.9-11.9 39.9-20.1 6.9-6.3 6-6 10.6-3.8 2.2 1.1 5 2 6.1 2s5.4 2 9.4 4.5c4.1 2.5 8.1 4.5 8.9 4.5 2.3 0 6.5-3.7 8.2-7.2 2.9-5.6 1.7-9.7-3.4-11.8-3.3-1.4-3.8-3.1-1.4-5.1 2.6-2.2 4.5-6.8 4.6-11.5.1-5.5-2-8-9.3-11.5-5.1-2.3-5.1-2.3-10.3.5-5.3 2.8-5.3 2.8-9.8.9-6-2.7-14.8-11.3-14.8-14.5 0-1.3-.9-6.6-2-11.6-1.9-9-1.9-9.3-.1-14.8 2.2-6.4 6.1-11 10.2-11.9 3.6-.8 10.6-8.6 12-13.5 2-6.7.6-10-5.9-14.3-8.7-5.5-11.3-5.2-18.4 2.4-5.5 5.9-5.9 6.1-9.5 5.5-6-1.1-8.7-2.4-10.4-5.4-1.3-2.3-2.7-3-10-4.5-8.1-1.6-14.1-2-18.4-1m17.2 2.9c6.7 1.4 8.2 2.2 11 5.3 1.8 2 3.3 3.9 3.3 4.2 0 .4-1.8 1.7-4.1 2.8-3.5 1.9-4.6 2-8.1 1.1-2.2-.6-4.3-.9-4.6-.5-1 1 2 2.5 4.9 2.5 1.9 0 3.9 1.4 7.2 5.2l4.6 5.3 5.1-2.8c2.9-1.6 5.4-2.7 5.5-2.5.2.2 1 3.7 1.8 7.8 2.1 10.4 4.5 22.6 5.7 28.3 1.9 9.3.9 11.7-3.8 9.3-6.1-3.2-11.8-1.4-18.8 6-8.3 8.5-12.5 22.4-9.1 29.1.9 1.7 4 4.5 6.9 6.4 5.2 3.4 5.2 3.4 2.1 4.3-6.3 1.7-11.4-1.5-13.5-8.6-2.3-7.7 3.1-22.6 11.4-31.4 2.7-2.9 4.5-5.5 4-5.8-1.3-.8-.3-8.3 1.4-11.8 1.6-3.1 4.9-5.2 7-4.4.9.3 1.4 2 1.4 4.3.1 4.5 1.2 6.1 6.3 9.1 4.2 2.4 4.7 2.6 4.7 1.4 0-.5-2-1.9-4.5-3.2-3.9-2-4.5-2.7-4.5-5.6 0-4.3-.8-6.2-3.1-7.5-4.2-2.2-10.9 6.2-10.9 13.6 0 3.7-3 10.9-3.7 8.8-.4-1 2.5-13.5 7.4-32.8 2.3-9 2.7-12.2 1.5-11-.6.5-1.7 4.1-2.6 8-2.5 11.8-7.5 32.8-8.5 36-.5 1.6-2.3 6.1-4.1 10-2.2 4.6-3.7 10.1-4.7 16.4-.9 5.9-2.1 10.4-3.3 12.2-1.1 1.5-2 3.1-2 3.7 0 1-4.7 5.4-14.5 13.7-6 5-14.6 12.5-15.5 13.5-.9 1.1-6.8 5-7.4 5-.3 0-.6-.6-.6-1.4s-1.1-2.4-2.5-3.5c-2.6-2-2.6-2 3-6.1 3.1-2.3 7.9-6.5 10.8-9.3 2.9-2.9 7.5-7.2 10.2-9.6 8.5-7.6 10.5-11.3 10.5-19.2 0-8.8 1.5-14.7 6.1-23.4 3.9-7.7 6.5-15.2 10-29 1.2-5 2.6-9.8 3.1-10.8 1.6-3.1-.9-7.4-5.3-9.4-3.5-1.5-3.9-2-3.9-5.5 0-2.1-.4-3.8-1-3.8-.5 0-1 1.6-1 3.5 0 2.8-.4 3.5-2 3.5-2.2 0-12.5-2.6-14-3.5s-1.3-9.8.3-9.2c5.8 2.1 16 4.7 16.6 4.2 1.1-1.1-1.8-2.3-9.1-3.9-7.5-1.7-9.3-3-8.2-6 .5-1.4 3.9-3 7.9-3.9 4.2-.9 9.7-.6 17.2.9m45.4-.1c2.9 1.5 3.1 3.5.5 3.5-3.4 0-11.6 12-11.6 17 0 1.2-.4 1.9-.9 1.5-.5-.3-.7-2-.4-3.9.5-3.3.5-3.3-5.3-4-5.5-.6-8.4-1.9-8.4-3.7 0-.4 1.5-.5 3.4-.2 3.5.5 4.6-.2 9.1-6 2.1-2.7 7-5.7 9.3-5.7.7 0 2.6.7 4.3 1.5m7.4 4.9c1.5 1.1 1.7 2.2 1.2 6.7-.6 4.8-1.2 5.9-5.6 10.1-10.8 10.4-17.4 2.4-8.6-10.4 1.4-2.1 4.2-4.7 6.3-5.7 4.5-2.4 4.4-2.4 6.7-.7M454 934c0 .3-2 1.6-4.5 2.9-4.5 2.4-4.6 2.4-6.1.5-3.6-4.6-4.8-6.8-3.8-7.1.5-.2 2.5-1.2 4.4-2.3 3.5-1.9 3.5-1.9 6.7 1.8 1.8 2 3.3 3.9 3.3 4.2m6.1-2c1.5 0 1.9.7 1.9 3.4 0 2.6.7 4.1 3 5.9 3.5 3 3.6 3.4 1.3 5.9-.9 1-2.4 3.5-3.3 5.6-1.7 3.7-1.7 3.7-3.5-6.3-.9-5.5-2.4-10.9-3.1-12-1.8-2.6-1.8-3.9.2-3.1.9.3 2.4.6 3.5.6m-1.2 51.1c3.8 1.3 4 2.5.6 3.3-4.2 1.1-13.1 10.5-16.2 17.1-2.1 4.5-2.8 7.5-2.8 12.2 0 3.5-.2 6.3-.5 6.3-1 0-5.5-3.2-6.7-4.8-.7-.9-1.3-4.3-1.3-7.5 0-12.2 11.7-27.5 21.1-27.7 1.4 0 4 .5 5.8 1.1m10.5 6.5c1.4 1.5 2.6 3.6 2.6 4.7 0 1.8-.2 1.7-2-.6-2.5-3.2-8.4-5.1-11.2-3.6-1.1.6-2.4.8-3.1.6-1.6-.6 5.2-3.5 8.4-3.6 1.6-.1 3.7 1 5.3 2.5m-13.2 5c-5.4 4.6-8.7 10.4-10.6 18.4-1.7 7.3-1.2 8.4 4.7 11.4 3.2 1.6 3.2 1.6-.5 1.6-5.1 0-7.8-2.8-7.7-7.8 0-2.8.2-3.2.8-1.7.6 1.4.9.2 1.3-4.1.5-7.3 4.7-14.7 10.6-18.7 5.4-3.8 6.2-3.3 1.4.9m-2.2-2.1c0 .3-.2.5-.5.5s-.5-.2-.5-.5.2-.5.5-.5.5.2.5.5m14.4 1.8c1.6 1.5 3 5.7 2.1 5.7-.4 0-2.3-.7-4.2-1.7-2.5-1.2-4.2-1.4-6.1-.7-3.5 1.2-8.9 8.5-9.8 13.1-.6 3.2-.3 4 2.3 6.4 1.7 1.4 3.6 2.8 4.4 3.1 2.4.8-.2 2.8-3.6 2.8-10 0-7.8-17.8 3.2-26.9 4-3.3 9.4-4.1 11.7-1.8m10 2.7c1.9 1 5.7 2.6 8.3 3.3 4.9 1.5 5 1.8 3.8 6.7-.6 2.4-.5 2.3 1-.3 2-3.5 2.9-3.1 1.2.6-1.5 3.2-3.2 2.9-12.9-2-6.8-3.3-7.3-3.9-6.2-8.1.8-2.7.5-2.7 4.8-.2m21.1-.8c3.2 1.4 3.2 2.1-.2 3.9-2.7 1.5-5.5 1.4-8.7-.3-1.8-1-1.8-1.1.5-2.9 2.8-2.2 4.8-2.3 8.4-.7m-23.8 8.9c11.7 6.1 14.6 7.9 12.8 7.9-3.3 0-9.5 8.8-9.5 13.5 0 3.2-1.3 3.1-8-.6-3-1.7-8-4.5-11-6.1-7.3-4-8-4.6-8-7.5 0-5.2 6.2-13.3 10.2-13.3 1 0 7.1 2.8 13.5 6.1m32.1-3.9c2.9 2.9.5 12.3-4.2 16.7-2 1.9-2.7 2-5 1-1.4-.7-3.5-2.8-4.6-4.6-2-3.5-2-3.5.2-6.6 4.4-6.4 10.7-9.4 13.6-6.5m-65.1 10.5c-.4.3-.7 0-.7-.7s.3-1 .7-.7c.3.4.3 1 0 1.4m50.3 3.8c1.1 1.3.8 1.5-1.7 1.5-1.8 0-3.8.9-5 2.2-2.7 3-3.9 8.4-2.3 10.3 1 1.2.9 1.5-.9 1.5-1.2 0-2.4-.7-2.8-1.6-1-2.6 1.5-9 4.9-12.3 3.5-3.4 5.9-3.9 7.8-1.6m-80 .8c0 2.8-7.9 12.6-10.2 12.7-.5 0-.8-1.4-.8-3 0-2.2 1.1-4.1 4.1-7 4.2-4 6.9-5.1 6.9-2.7m77 2.9c0 .2-1.1 2.5-2.5 5.2-2.3 4.6-2.5 4.7-2.5 2 0-2.8 2.6-7.4 4.3-7.4.4 0 .7.1.7.2m7 .6c0 .5-1.1 1.9-2.5 3.2s-3 4.1-3.7 6.2c-1.2 4-2.2 4.8-3.1 2.4-1.4-3.6 3.9-12.6 7.4-12.6 1 0 1.9.4 1.9.8m-66.4 7.7c1.8 1.4 1.8 1.6-1.4 4.6-3.7 3.3-7.5 3.6-8 .5-.2-1 .6-4.1 1.9-6.8 2.2-4.8 2.2-4.8 3.9-2.3.9 1.4 2.5 3.2 3.6 4m70.6-6c.3.3-.7 1.9-2.3 3.6s-3.4 4.8-4 7c-1.3 4.1-2.9 4.3-2.9.3 0-3.4 1.6-6.4 4.8-9.1 2.8-2.4 3.5-2.7 4.4-1.8M466 1025c1.4 1.1 3.1 2 3.8 2 4.6.1-8.3 11.4-20 17.6-7.4 3.8-19.9 8.4-23.2 8.4-4.6 0-15.5 4.8-34.9 15.5-3.8 2-7.1 3.4-7.4 3.1s-.8-2.5-1-4.9c-.5-3.8-.2-4.6 1.3-5.1 2.1-.6 7.5-5 23.7-19.4 5.8-5 10.7-9.2 11-9.2s.7.9 1 2c.8 3.2 5.1 2.5 9.6-1.5 2.3-2.1 4.9-3.5 6.4-3.5 1.4 0 3.8-.5 5.4-1.1 1.5-.6 5.1-1.2 8-1.4 3.4-.1 6.1-.9 8-2.3 3.5-2.7 5.1-2.7 8.3-.2m36.8 1.7q-4.8 5.25-4.8 9.3c0 1.2-.4 1.8-1 1.5-2.3-1.4.8-10.4 4.4-12.7 2.9-2 3.8-.7 1.4 1.9m7 1.6c.9 4.7-3.8 11.7-7.8 11.7-1.7 0-2-.7-2-3.9 0-6.7 8.7-13.6 9.8-7.8m-133 27.8c5.4 1.9 5.2 5-.6 8.9-3.1 2.1-4.9 2.5-11.4 2.5s-7.9-.3-9.2-2c-2.6-3.6 1.6-7.9 9.5-9.4 6.2-1.2 8.2-1.2 11.7 0m5.4 12.1c.6 5.7.4 6.1-4.5 8.9-3.3 1.9-5.7 2.4-11.3 2.4-8.2 0-9.7-1-10.7-7.1l-.7-4.1 7.6.5c7.8.5 14.4-.9 16.5-3.5 1.9-2.2 2.7-1.5 3.1 2.9m49 68.5c.1 6.5.2 15.6.2 20.3l.1 8.5h-83l-.3-19c-.1-10.4 0-19.5.2-20.2.4-1 9.1-1.3 41.6-1.3h41z"/><path d="M414.1 916.7c-2.4 1.6-2.4 1.6-.1 3.5 2.7 2.2 4.9 2.3 7.8.2 2.2-1.5 2.2-1.7.6-3.5-2.1-2.3-5.2-2.4-8.3-.2m7.4 1.2c.7 1.3-3 2.4-5.5 1.6-2.8-.9-1.5-2.5 2-2.5 1.6 0 3.1.4 3.5.9M446.6 969.6c-1.8 1.8-2.1 4-.6 4.9 1.6 1 4-1.5 4-4.1 0-2.8-1.2-3.1-3.4-.8m1.7 1.9c-.3.9-.8 1.4-1 1.1-.3-.3-.2-.9.2-1.5.9-1.6 1.5-1.3.8.4M476.2 924.7c-3.5 1.4-5.6 10.8-2.6 12 2.3.9 4.6-.8 6.6-4.6 1.3-2.6 1.4-3.8.6-5.7-1.1-2.4-2.1-2.7-4.6-1.7m2.8 5.1c0 3.3-1.6 5.2-4.3 5.2-1.6 0-1.8-.5-1.2-2.7 1.4-5.6 5.5-7.5 5.5-2.5M499.6 1008.1c-2.8 3.2-3.1 4.6-1.7 6.7 1.4 2.3 4.5.9 6.6-3 1.6-3 1.7-3.9.6-5.2-1.9-2.2-2.6-2-5.5 1.5m4.4 1c0 2-2.1 4.9-3.5 4.9-1.8 0-1.9-1.4-.5-4.1 1.1-2 4-2.6 4-.8M423.5 1029.1c-.9 2.8.9 4.6 3 2.9.8-.7 1.5-2.1 1.5-3.1 0-2.6-3.7-2.5-4.5.2m2.5.9c0 .5-.4 1-1 1-.5 0-1-.5-1-1 0-.6.5-1 1-1 .6 0 1 .4 1 1M504.7 1029.6c-.3.3-.4 1.1-.3 1.7.2.7.1.9-.1.4-1-1.7-2.3-.5-2.3 2.3 0 1.9.5 3 1.4 3 1.8 0 4.6-3.8 4.6-6.2 0-1.7-2-2.5-3.3-1.2M363.8 1058.7c-4.1 1.1-2.3 6.3 2.2 6.3 2.2 0 6-2.8 6-4.4 0-2-4.2-3-8.2-1.9m6.2 2.2c0 1.1-2.5 2.1-5.1 2.1-1.9 0-2.5-1.1-1.2-2.3 1-1 6.3-.8 6.3.2M355.6 1128.5c-.4 1.3-.1 1.5 1.4 1s2-.2 2 1.4c0 1.1-.5 2.3-1.1 2.6-.7.5-.5 1.3.6 2.5.8.9 1.3 2.4.9 3.4-.7 1.9-1.6 2-3.3.3-1-1-1.2-.8-.9.8.5 3 4.4 3.2 5.1.3 1-4.1-.6-13.2-2.4-13.6-.9-.2-1.9.4-2.3 1.3M366.7 1127.7c-.4.3-.7 1.3-.7 2.2 0 1.2.3 1.2 1.2.3.7-.7 1.6-1.2 2-1.2 1.3 0 .9 3.8-.4 4.3-1 .4-1 .7 0 1.8 1.4 1.5 1.6 5.9.3 5.9-.6 0-1.3-.5-1.6-1-1.2-2-2.6-1-1.5 1 1.4 2.7 3.8 2.5 5.1-.4.8-1.7.8-2.9 0-4.5-.7-1.2-.9-2.6-.6-3.2 1.8-2.8-1.6-7.4-3.8-5.2M387 1130.9c-1.1 3.3-1.1 4.6 0 7.3 1.9 4.9 2.9 5.6 4.6 3.4 1.6-2.3 1.9-9.9.4-12.7-1.7-3-3.6-2.2-5 2m4.5 1.1c.4 1.6.4 4.3 0 6-1.2 5.5-3.5 2.9-3.5-3.9 0-5.8 2.4-7.2 3.5-2.1M397.7 1129c-.3 1.1-.1 2.3.4 2.6s.9-.2.9-1c0-.9.7-1.6 1.5-1.6 2 0 1.9 2.3-.5 7.2-2.7 5.7-2.6 7 .7 6.6 1.8-.2 2.9-1 3.1-2.1.3-1.5 0-1.8-1.7-1.2-2.5.8-2.6.5-.5-3.9 2-4.1 1.2-8.6-1.5-8.6-1 0-2.1.9-2.4 2M409.2 1128.2c-1.6 1.6-1.5 11 .2 13.3 1.2 1.6 1.6 1.7 3 .6 3-2.5 1.8-15.1-1.4-15.1-.3 0-1.1.5-1.8 1.2m3.2 2.4c1.4 3.5.4 10.4-1.5 10.4-.5 0-.9-2.7-.9-6 0-5.7 1.1-7.8 2.4-4.4M378 1135c-2.4.8-2.3.8.8.9 1.7.1 3.2-.4 3.2-.9 0-1.1-.5-1.1-4 0M367.3 1146.7c-.7.3-1.3 1.4-1.3 2.6 0 1.6.3 1.8 1.2.9.7-.7 1.6-1.2 2-1.2 1.3 0 .9 3.5-.4 4.9-1 1.1-1 1.4 0 1.8 1.2.5 1.8 5.3.6 5.3-.4 0-1.3-.8-2.1-1.8-1.2-1.6-1.3-1.5-1.1.8.4 3.7 4.5 4 5.4.4.4-1.5.2-3.4-.3-4.3s-.8-3.2-.5-5.2c.4-3.7-.8-5.1-3.5-4.2M399.3 1146.7c-.7.2-1.3 1.7-1.3 3.1.1 2.5.2 2.5 1.4.9 3.2-4.1 3.6.4.6 6.5-2.6 5.4-2.5 5.8 1 5.8 2.6 0 3-.3 2.9-2.8 0-1.5-.3-2.1-.6-1.5-.2.7-1.1 1.3-1.9 1.3-1.1 0-.9-.9.7-4.3s1.8-4.7 1-7c-1.1-2.7-1.5-3-3.8-2M409 1147.9c-2 3.8-.5 15.1 2 15.1 1.8 0 3-3 3-7.8 0-5.3-1.3-9.2-3-9.2-.5 0-1.4.9-2 1.9m3.5 7.1c0 3.4-.5 5.5-1.2 5.7-1 .4-1.3-1.2-1.3-5.7s.3-6.1 1.3-5.8c.7.3 1.2 2.4 1.2 5.8M418.7 1146.7c-.4.3-.7 1.2-.7 2 0 1.1.4 1.1 2 .1 3.1-2 3.2-.5.6 7.1l-2.5 7.2 3.7-.3c2.7-.2 3.8-.8 4.1-2.3.3-1.7.1-1.7-1.2-.6-.9.7-2.3 1.1-3.1.9-1.3-.3-1.3-.9.3-4.4 1-2.3 2.2-5.5 2.6-7.3.6-2.9.5-3.1-2.3-3.1-1.6 0-3.2.3-3.5.7M355.7 1148.3c-.3.8-.1 2 .4 2.8.7 1.1.9 1.1.9-.4 0-.9.5-1.7 1-1.7.6 0 1 .9 1 1.9 0 1.1-.4 2.3-1 2.6-1.5.9-1.2 2.5.5 2.5s2 3.5.4 4.6c-.6.3-1.5 0-2-.7-1.1-1.8-2.1-.6-1.3 1.5.9 2.5 3.9 1.9 5.3-1 .8-1.9.9-3 .1-4-.7-.7-1.1-2.3-1-3.6.4-4.6 0-5.8-1.9-5.8-1 0-2.1.6-2.4 1.3M387.6 1149.2c-.9 3.4-.7 8.3.4 11.2 2.6 6.9 7.4-1.9 5.1-9.4-1.3-4.6-4.5-5.5-5.5-1.8m4.2 5.3c.3 4.3-.9 7.7-2.3 6.3-.8-.8-1.5-8.8-.8-10.4 1.1-2.9 2.8-.7 3.1 4.1M376.5 1154.9c-.7 1.3 1.7 2.4 4 1.9.9-.1 1.6-.8 1.6-1.3 0-1.4-4.8-1.9-5.6-.6M706.1 926.7c0 5.3.3 7.2.9 5.8 1.2-2.8 1.2-12.3 0-13-.6-.4-1 2.2-.9 7.2M329 933.1c0 3.7.4 5.8 1 5.4.6-.3 1-3.1 1-6.1s-.4-5.4-1-5.4-1 2.7-1 6.1M706 946c0 4.5.4 6.9 1 6.5.6-.3 1-3.3 1-6.5s-.4-6.2-1-6.5c-.6-.4-1 2-1 6.5M329 949.9c0 3.3.4 6.2.9 6.5 1.4.9 1.6-.7 1.3-6.9-.5-7.4-2.2-7-2.2.4M706 962.9c0 3.6.4 6.1 1.1 6.1 1.2 0 .9-10.9-.3-11.7-.5-.2-.8 2.3-.8 5.6M329.7 960.7c-1 1-.8 13.6.3 15.3 1.5 2.4 2.3-1.1 1.8-8.5-.5-6.6-.9-8-2.1-6.8M626.5 968c-18 4.2-34.1 12.4-50.5 25.4-4.1 3.3-9.8 6.6-15.5 8.9-32.1 12.9-34 13.8-37 17.4-12.8 15.3-26.8 43-33.4 65.9-3.3 11.1-3 13.8 2.9 26.9 4.5 9.9 9 22.1 9 24.1 0 1.2-.6 2.4-1.2 2.7-2.4.8-1.4 15.5 1.6 24.7 1.9 5.6 2.4 8.6 1.7 9.3-.8.8-17.2 7.5-24.1 9.7-1.4.4-5.1 2-8.2 3.4l-5.8 2.6v8.5c0 10.9 1.8 11.2 2.2.4l.3-8.1 9-3.5c5-1.9 13.7-5.3 19.4-7.5 9.2-3.7 10.7-4 13.5-3 4.3 1.6 4.4 1.5 4.8-.9.2-1.2 1.2-2.7 2.2-3.3 1.1-.6 4-2.3 6.5-3.9 2.6-1.5 5.9-2.7 7.9-2.7 3.4 0 3.4 0 3 14-.4 14.5.4 18.6 1.6 7.9 1-10 .7-21.4-.6-22.7-1.8-1.8-6.4-1.4-11.1.9-2.3 1.2-4.4 2.5-4.7 2.9-.7.9-4.6 3-5.8 3-1.5 0-4.1-12.7-4.4-21.4-.2-6.3 0-8 1.2-8.4.8-.3 5.8-2.5 11-4.9 13.2-6.3 19.1-8.5 20.7-7.9.8.3 2 2.1 2.8 4 .8 2 2.9 5.1 4.6 7 3 3.5 3 3.5 2.7 23.6-.2 11 0 20 .3 20 1 0 1.9-12.6 1.9-27.2 0-13.7 0-13.7-4-18.3-2.2-2.5-4.3-5.7-4.6-6.9-.6-2.7-4.6-4.8-7.1-3.9-1 .3-5.6 2.3-10.1 4.5-4.6 2.1-8.6 3.8-8.9 3.8s-3.4 1.4-6.9 3.2c-4.7 2.3-6.9 3-8 2.3-2.5-1.6-1.2-3 2.4-2.7 2.7.2 3.5-.1 3.9-1.8.3-1.1 3.7-4.2 7.7-6.8 3.9-2.7 14.3-9.7 23.1-15.7 19.5-13.1 20.3-13.9 21-18.4 1.2-7.7 5.5-19.4 9.8-26.3 3-4.8 3-4.8.4-8.2-1.5-1.9-3.2-4-3.9-4.8-.8-.7-2.9-3.3-4.8-5.8s-3.7-4.7-4-5-2.5-3-5-6-4.7-5.7-5-6c-1.6-1.5-9-10.9-9-11.4 0-.9 24.4-10.6 26.8-10.6.5 0 4.6-3.3 9.1-7.3 16.5-15 32.5-23.9 51.5-28.7 9.5-2.4 26.2-2.8 29-.7 1.9 1.4 1.6 1.8-9.4 10.4-.8.7-6.7 5.3-13 10.2-6.3 5-13.8 11.1-16.7 13.7-8.7 7.9-11.6 17.2-7.1 22.9 2 2.6 7.8 18.4 7.8 21.3 0 .9-1.4.1-3.6-1.7-2-1.8-4.9-3.5-6.6-3.8-1.8-.4-3.3-1.4-3.8-2.9-.5-1.3-2-3-3.4-3.9-2.1-1.4-2.8-1.4-5.8-.2-5.6 2.5-12.8 11.9-12.8 17 0 1.3-1.5 3.8-3.6 5.8-8.3 8-14.2 21.1-15.1 33.4-.4 5.4-1.4 9.4-3 12.6-3.6 7.3-2.9 15.4 1.6 17.8 2.5 1.4 7.9-.3 11.4-3.4 4.1-3.8 3.3-5.1-1-1.6-5 4.1-10.9 4.4-12.3.5-1.5-3.9-1.3-4.3 2.3-3.8 2.4.4 3.8 0 5.6-1.7 2.4-2.3 2.4-2.3 6.3-.2 3.5 2 4.1 2 6.6.7 1.5-.7 3.3-1.4 4.1-1.4 3.4 0 13.1-6 19-11.6 4.4-4.3 7.5-6.4 9.9-6.9 1.9-.3 4.5-1.7 5.7-2.9 2.7-2.7 6.5-9.8 6.5-12.1 0-2.4 2-1.7 2.2.7.1 1.3 0 5.7-.1 9.8-.3 6.4 0 7.9 1.9 10.2 3.9 5.1 5.1 4.6 27.4-12.5 7.2-5.5 14.8-11.4 16.8-13 2.1-1.7 4.1-2.7 4.4-2.4.7.6-3.3 13-6.1 19.2-.7 1.6-2.1 5-3.1 7.5-5.6 14.3-20.3 36.8-33.1 50.9l-4.2 4.6-.1-5c0-2.8-.3-11.3-.7-19-.6-13.1-.8-14.3-3.9-20.6-3.5-6.9-4.6-7.9-9.6-7.9-3.5 0-6.9 2.2-15.5 9.9-3.4 3.1-7.6 6.7-9.4 8.2-3.1 2.5-3.1 2.5-.4 4.3 1.5 1 3 1.5 3.3 1.1.4-.4-.1-1.1-1.1-1.6-2.2-1.3-2.2-2.6.1-3.3 1-.4 4.7-3.5 8.3-7 10.9-10.6 17.4-12.4 21.3-5.7 1.8 3 1.8 3.4.3 2.8-3-1.1-10 2.9-16.7 9.7-3.5 3.6-5.9 6.6-5.2 6.6s3.4-2.3 6.1-5.1c6.3-6.6 9.8-8.9 13.8-8.9 5.8 0 6 .7 6.8 25.5l.7 22.6-5 4.8c-4.2 4-11 9.8-15.7 13.4-9.2 7-28.4 16-36 16.8-3 .4-3 .4-3.5-10.6-.4-7.8-.8-10.2-1.3-8.4-.5 1.5-.8 3.3-.7 4 .2.8.2 4.7.1 8.7l-.1 7.3-4.7-.3c-4.8-.3-4.8-.3-5.3-7.8-.6-8.7-2-7.2-2 2.1 0 5.2-.2 5.9-2 5.9s-2-.7-2-5.6c0-3.4-.4-5.3-1-4.9-.5.3-1 2.9-1 5.7v5.1l-6.2-.7c-3.4-.4-6.7-.8-7.2-.9-.4-.1-1 .2-1.2.8-.2.5 2 2.1 4.9 3.5 4.7 2.2 6.4 2.4 18.7 2.4 12.5-.1 14.2-.3 22.9-3.3 18.3-6.3 36.5-17.6 50.1-31.1 21.6-21.7 44.7-58.6 54.5-87.5 2.5-7.4 2.3-8.4-1.6-10.7-3.6-2-3.6-2-10 2.3-3.5 2.3-6.6 4.6-6.9 4.9-.3.4-5.2 4.3-10.9 8.6s-12.2 9.3-14.5 11.1c-5.4 4.1-8.8 5-11 2.7-1.4-1.3-1.7-3.3-1.5-9.8.1-7.1-.3-9.6-3.8-20.1-2.3-6.6-6-18.3-8.3-26-2.4-7.7-5.1-14.9-6.1-16.1-2.6-2.8-2.4-9 .2-13.4 2.6-4.3 4.6-6 27.4-24.1 9.9-7.9 18.6-14.9 19.4-15.6.7-.8 2-1.2 2.7-.9.8.3 1.4.1 1.4-.4s-3.5-2.6-7.7-4.7c-7.2-3.5-8.5-3.8-17.3-4-5.2-.1-11.3.2-13.5.7m21.5 2c1.9.6 1.2.8-3.2.9-9.7.2-23.2 3.6-34.3 8.6-10.9 5-28.3 17.1-36 25-1.9 2-6.5 4.4-13 6.9-5.5 2.1-12.5 4.8-15.5 6-3 1.3-8.3 3.3-11.7 4.6-3.5 1.2-6.3 2.7-6.3 3.2s-1.3 2.6-2.9 4.6c-9.3 11.7-19.9 33-26.2 52.4-3.8 11.9-3.8 11.5 5.1 35.8 7 19 7 18.7 2.5 17.6-1.8-.5-3.1-1.8-4.1-4.4-4.1-10-8.8-21.1-10.5-24.9-3.1-7-2.5-14.3 2.2-28.5 5.1-15.1 13.6-32.5 22.2-45.5 8.3-12.3 10.8-14.8 18.8-17.8 24.7-9.4 34.6-14 41.5-19.4 12.1-9.6 14.1-10.8 27.3-17.3 14.2-6.9 35.2-10.7 44.1-7.8m-103.9 57.2c2.4 2.9 4.6 5.5 4.9 5.8s2.5 3 5 6 4.7 5.7 5 6 2.1 2.5 4 5 4.7 5.8 6.2 7.4c4.8 5.3 5.3 7.1 3 10.3-3.6 5-7.2 14.1-9.3 23.3-1.8 7.6-1.8 7.7-34.3 30-9.2 6.3-16.6 11-17.3 11-.4 0-1.8-3-3.1-6.8-1.3-3.7-4.1-11.6-6.3-17.5-2.1-6-3.9-11.6-3.9-12.5.1-1 4.3-4.5 10.3-8.5 5.6-3.7 12.1-8.2 14.4-9.9 5-3.7 3.1-4.5 23.1 10.5 7.3 5.5 13.6 9.7 13.9 9.3.4-.3.4-.7.2-.9-2.3-1.8-12.9-9.6-14.6-10.7-1.2-.8-5.5-4.1-9.7-7.3l-7.6-5.8.1-14.7c.1-8.1.4-18.5.7-23.1.7-8.3.7-8.3 5.2-10.2 2.5-1 4.8-1.8 5.2-1.8.3-.1 2.6 2.3 4.9 5.1m-17.6 31.3c-.7 14.1-.7 14.1-4.3 16.5-2.1 1.4-3.9 2.7-4.2 3.1-1.3 1.5-19.2 13-19.6 12.6-.5-.5 3.9-15.1 6.3-20.7 6.6-15.5 13.2-27.8 19.3-35.9l2.5-3.5.3 7c.2 3.8.1 13.2-.3 20.9m78-13.1c1.4 3.4 2 3.8 7.8 5 3.3.8 8.3 7.3 9.7 12.8.6 2.1 1.5 3.8 1.9 3.8.5 0 1.4 2 2.1 4.5 2.8 10.2-2.8 22.6-10.9 24.1-2.5.5-5.5 2.5-9.6 6.4-6.1 5.9-14.2 11-17.3 11-.9 0-3.1.9-4.8 1.9-3.1 1.9-3.2 1.9-6.5-.1s-3.3-2-.9-3.8c1.3-1 3.8-2.1 5.5-2.3 10.4-1.7 16.6-5.3 22.3-12.7 3-3.9 4-4.5 7.3-4.6 6.5-.1 12.8-8.2 11.2-14.4-.6-2.2-1.5-2.4-8-2-4.3.2-4.3.2-4.3-4.4 0-2.4-.4-4.8-1-5.1-.5-.3-1 .1-1 .9 0 2.2-.9 2-5.2-.9-4-2.7-8.9-3.2-12.5-1.2-3.9 2.2-11.3 9.8-13.2 13.5-3.5 6.8-5.3 14.6-4.1 17.8 2 5.5 3.3 7.3 6.1 8.5 3.3 1.3 3.8 2.9 1 2.9-1.1 0-3.3 1.1-4.9 2.5-3.6 3-4.5 3.1-3.7.6.7-2.2-1.6-4.4-3.8-3.5-2.3.8-4.3 6.2-2.8 7.7.9.9 1.6.9 3.1-.1 2.2-1.3 2.7-.3.8 1.6-1.7 1.7-5.5 1.5-6.2-.3-.7-1.9.6-5.3 3.9-10.3 1.5-2.3 2.8-5.9 3.1-8.8.2-2.7.7-6.2.9-7.7.8-4.8 6.2-15.4 9.8-19.2 3.1-3.3 4.4-6.4 6.1-14.6.8-3.5 4.4-7.9 6.6-7.9 1.1 0 2.2 1.2 2.9 3.1 1.5 4.4 1.4 5.2-.6 4-1.3-.7-2.3-.5-3.7.7-1.7 1.6-1.8 1.6-1.4-.8.2-1.9.8-2.4 2.6-2.3 2.6.3 3-1.5.5-2.4-3.2-1.2-7.1 6.5-4.2 8.3.6.3 2.2.1 3.5-.6 1.9-1.1 2.7-1 4.8.4 3.4 2.2 5.7 2.1 3-.2-1.2-1-2.1-3.1-2.3-5.2-.1-1.9-1.1-4.5-2.4-5.8-1.8-2-1.9-2.4-.7-3.2.8-.5 3-1 4.8-1 2.8 0 3.5.5 4.7 3.4m-24 21.6c-1 1.1-2 1.8-2.3 1.6-.5-.6 2.1-3.5 3.2-3.6.5 0 .1.9-.9 2m17.5-1.5c0 .3-1.5 1.1-3.2 1.9-3.9 1.7-9.9 7.4-12.7 12.1-3 5.1-.7 4.3 2.9-1 5.4-7.8 15.1-13.3 18.6-10.4 2.6 2.1 1.8 12.5-1.5 19.4-5.8 12.1-19.4 20.1-22.1 12.9-.6-1.4-1-4.4-1-6.7 0-3-.3-3.8-1.1-3-.6.6-1 3-.7 5.2.5 5.2-.8 5.3-2.3.1-1-3.4-.9-4.8 1-10.7 2.6-8 5.6-12.2 11.9-16.8 4-2.9 10.2-4.7 10.2-3m-21 4.9c0 .3-.5.8-1.2 1.2s-.8.3-.4-.4c.7-1.2 1.6-1.6 1.6-.8m31.4 3.1c1.4 5.5-1 14.4-5.7 21.3-2.9 4.4-10.7 10.2-13.6 10.2-.8 0 .5-1.3 3-2.8 8.1-5.2 14.1-15.8 14.3-25.4.1-6.1 1-7.5 2-3.3m-33.4 0c0 .3-.2.5-.5.5s-.5-.2-.5-.5.2-.5.5-.5.5.2.5.5m111.6 1.1c2.9 1.9 2.9 1.7-2.9 16.4-6.6 17-19.9 41.1-28.9 52.5-.4.5-3.6 4.6-7 9-6.6 8.6-19.8 22.1-26.3 27.1-23.7 18-48.1 26.6-68.5 24l-7.5-1 7.5-.8c4.5-.4 8.8-.3 10.7.3 4.8 1.5 23.9-3.6 33.8-9.2 4.1-2.3 13.9-8.3 14.5-8.9.3-.3 2.3-1.9 4.5-3.5 8.6-6.4 17.5-15.7 17.5-18.3 0-1.3.8-3.2 1.8-4.1 4.1-3.7 16.4-19.2 22.2-28.1 6.2-9.6 16.6-30.1 19-37.5.7-2.2 1.6-4.5 2-5 .4-.6 1.5-4 2.5-7.8 1-3.7 2-6.7 2.2-6.7s1.5.7 2.9 1.6m-112.6.9c0 .3-.2.5-.5.5s-.5-.2-.5-.5.2-.5.5-.5.5.2.5.5m39.7 5.3c-1.8 3-1.8 3.5-.4 4.9 1.8 1.9 3.2 1.1 5.3-2.8 1.2-2.4 1.3-3.4.3-4.5-.7-.9-.8-1.4-.1-1.4 1.9 0 2.4 2 1.2 5.4-1.3 4.1-4.8 6.6-9.1 6.6-2.6 0-3-.3-2.4-1.8.7-1.7.9-2.4 1.9-7.2.4-1.8 1.2-2.5 2.9-2.5 2.3 0 2.3 0 .4 3.3m-43 .9c-.4.3-.7 0-.7-.7s.3-1 .7-.7c.3.4.3 1 0 1.4m47.3-1.1c0 1.3-2.1 4.4-3 4.4-1.4 0-1.2-2.4.2-3.8 1.3-1.3 2.8-1.6 2.8-.6m-48.6 6.3c-.4 1.7-.9 3-1.1 2.7-.3-.2-.2-1.9.2-3.6.9-4.1 1.7-3.3.9.9m-1.7 10.8c-.2 1.6-.4.5-.4-2.2 0-2.8.2-4 .4-2.8.2 1.3.2 3.5 0 5m2.3 12.2c0 1.2-2.9 3.5-3.6 2.8-1.1-1 .5-3.7 2.1-3.7.8 0 1.5.4 1.5.9m-64.4 32.9c1.8 1.4 2.3 3.1 2.7 9.7.5 7.1 2.2 15.6 4.2 20.7.6 1.5.3 1.6-2.3.6-1.9-.8-3.5-2.5-4.6-4.9-3.8-8.6-6.1-27.9-3.3-27.9.6 0 2.2.8 3.3 1.8"/><path d="M603 1060c0 .5.5 1 1 1 .6 0 1-.5 1-1 0-.6-.4-1-1-1-.5 0-1 .4-1 1M706 983.5c0 5.5.4 8.4 1 8 .6-.3 1-3.9 1-8s-.4-7.7-1-8c-.6-.4-1 2.5-1 8M329.9 981.9c-.6 5.9.1 15.2 1.1 14.6.6-.3 1-3.7 1-7.5s-.4-7.2-1-7.5c-.5-.3-1-.1-1.1.4M706 1003.5c0 4.8.4 7.4 1 7 .6-.3 1-3.5 1-7s-.4-6.7-1-7c-.6-.4-1 2.2-1 7M330 1008.5c0 4.3.4 7.5 1 7.5s1-3.2 1-7.5-.4-7.5-1-7.5-1 3.2-1 7.5M598.5 1002.2c-1.1.6-3 2-4.3 3.2-2.3 2.1-2.3 2.3-1.7 16.6.4 8 .9 14.7 1 14.8.6.7 4.4-.9 6.9-2.9 2.6-2 2.6-2.2 2.6-15.9 0-17.2-.3-18.2-4.5-15.8m2.5 15.8c0 13.9 0 13.9-3 15.5-1.6.8-3.1 1.5-3.5 1.5-.3 0-.5-6.1-.5-13.6 0-12.9.1-13.7 2.3-15.5 4.4-3.7 4.7-2.9 4.7 12.1M583.8 1011.7c-3.2 2-4.1 7-3.6 20.3.3 7.6.5 8.5 2.3 8.8 1.1.1 3-.7 4.3-1.8 2.1-2 2.2-2.9 2.2-15.5 0-14.6-.1-14.9-5.2-11.8m3.6 13.1c-.4 9.2-.9 12-2.1 12.9-.9.7-2 1.3-2.5 1.3-.4 0-.8-5.4-.8-11.9 0-11.2.2-12.1 2.2-13.5 1.2-.8 2.5-1.3 2.9-1 .5.3.6 5.7.3 12.2M706 1023.2c0 5.7.3 7.8 1 6.8 1.3-2 1.3-13.7 0-14.5-.6-.4-1 2.4-1 7.7M330 1028.5c0 4.3.4 7.5 1 7.5s1-3.2 1-7.5-.4-7.5-1-7.5-1 3.2-1 7.5M706 1044.5c0 5.5.4 8.4 1 8 .6-.3 1-3.9 1-8s-.4-7.7-1-8c-.6-.4-1 2.5-1 8M330 1049.9c0 3.9.5 7.3 1 7.6.6.4 1-2.2 1-6.9 0-4.4-.4-7.6-1-7.6s-1 3-1 6.9M706 1065.5c0 4.3.4 7.5 1 7.5s1-3.2 1-7.5-.4-7.5-1-7.5-1 3.2-1 7.5M330 1070c0 4 .4 7 1 7s1-3 1-7-.4-7-1-7-1 3-1 7M706 1085.1c0 4.4.4 6.8 1 6.4.6-.3 1-3.5 1-7.1s-.4-6.4-1-6.4-1 3-1 7.1M331.1 1089.9c-.1 6.4.2 8.2 1 7.4.9-.9.9-3.2.2-8.5l-1-7.3zM706 1104.5c0 4.3.4 7.5 1 7.5s1-3.2 1-7.5-.4-7.5-1-7.5-1 3.2-1 7.5M331 1110.9c0 4.7.4 8.1 1 8.1s1-3.1 1-7.4c0-4.1-.4-7.8-1-8.1-.6-.4-1 2.3-1 7.4M706 1123.6c0 4.1.4 6.3 1 5.9.6-.3 1-3.3 1-6.6s-.4-5.9-1-5.9-1 2.9-1 6.6M584 1120.4c0 .8.9 1.8 2.1 2.1 3.1 1 3.3 0 .4-1.9-2.1-1.4-2.5-1.4-2.5-.2M331 1131.4c0 4.4.4 7.6 1 7.6s1-3 1-6.9-.4-7.3-1-7.6c-.6-.4-1 2.2-1 6.9M576.1 1126.5c-4.7 2.6-10.7 9.2-13.5 15-2.8 5.7-3 6.9-3.5 21.8-.3 8.6-.3 15.7.1 15.7 1.3 0 1.7-4 2-18.5.3-12.9.6-14.4 3-19 3-5.8 9-11.9 13.1-13.4 1.6-.6 5.1-1.1 7.8-1.1s4.9-.5 4.9-1c0-1.5-11.1-1-13.9.5M601.2 1130.1c.5 1.6 4.8 4.4 4.8 3.1 0-.5-1.2-1.7-2.6-2.7-1.7-1.1-2.5-1.3-2.2-.4"/><path d="M597 1132.9c-.8.5-4.4 1.6-8 2.5-11.8 3-17.7 11.8-18.2 26.8-.2 4.7 0 9 .5 9.4.4.4.8-.8.8-2.7.1-3.8.5-8.2 1.3-14.6 1.1-8.3 7.8-15.3 16.1-16.9 5.6-1 10.7-3.3 10-4.4-.7-1.2-.6-1.2-2.5-.1M608 1135c0 1.4 3.8 3.2 4.5 2.1.3-.6-.3-1.5-1.4-2-2.4-1.4-3.1-1.4-3.1-.1M533.5 1139.4c-4.4 2.3-11.4 5.9-15.5 8.1-4.1 2.1-7 4-6.3 4.2 1.1.4 29.8-13.9 31.8-15.8 2.1-2-2.4-.5-10 3.5M706 1144c0 5.2.4 7.9 1 7.5.6-.3 1-3.7 1-7.5s-.4-7.2-1-7.5c-.6-.4-1 2.3-1 7.5M615 1138.7c0 .4.7 1.5 1.7 2.5 1.4 1.6 1.4 2.2.3 4.3-1.8 3.4-.6 4.3 1.6 1 1.4-2.2 1.5-3 .4-5-1.2-2.2-4-4.2-4-2.8M331 1151.5c0 4.3.4 7.5 1 7.5s1-3.2 1-7.5-.4-7.5-1-7.5-1 3.2-1 7.5M608.3 1151.6c-3.8 2.2-5.6 4.4-3.6 4.4 1.2 0 8.3-5.2 8.3-6.1 0-1.2.1-1.2-4.7 1.7M596.5 1158.6c-1.1.8-2.7 1.9-3.5 2.4s-1.2 1.1-.9 1.4c.7.7 8.9-3.6 8.9-4.7 0-1.2-2.4-.7-4.5.9M706 1165c0 5.2.4 7.9 1 7.5.6-.3 1-3.7 1-7.5s-.4-7.2-1-7.5c-.6-.4-1 2.3-1 7.5M331.7 1164.7c-1.1 1-.8 13.1.3 13.8.6.4 1-2.2 1-6.9 0-7.6-.1-8.2-1.3-6.9M584.8 1165.8c-2.7 1.6-3.7 3.2-2 3.2 1 0 7.2-3.9 7.2-4.5 0-1-2.6-.4-5.2 1.3M575.3 1171.7c-3 1.5-4.4 3.3-2.5 3.3 1 0 7.2-3.9 7.2-4.5 0-.8-1.3-.5-4.7 1.2M563.1 1179.1c-1.8 1.1-3.1 2.2-2.8 2.5.5.6 8.7-3.3 8.7-4.1 0-1.1-2.7-.4-5.9 1.6M706 1185.5c0 3.7.4 6.5 1 6.5s1-2.8 1-6.5-.4-6.5-1-6.5-1 2.8-1 6.5M553.3 1185.2c-4.6 3.2-4.1 4.4.7 1.7 2.2-1.3 4-2.6 4-3.1 0-1.3-1.4-.9-4.7 1.4M331 1191.4c0 5.8 1.1 9 2.3 6.9.8-1.4-.5-13.3-1.4-13.3-.5 0-.9 2.9-.9 6.4M544.5 1190.3c-1.1.6-2.9 1.9-3.9 2.9-3 2.8.3 2.3 3.9-.6 3.2-2.6 3.2-4.2 0-2.3M533.4 1197.5c-1.6 1.2-1.6 1.4-.3 1.5.9 0 2.2-.7 2.9-1.5 1.6-1.9 0-1.9-2.6 0M706 1205.1c0 4.4.4 6.8 1 6.4.6-.3 1-3.5 1-7.1s-.4-6.4-1-6.4-1 3-1 7.1M525.1 1201.9c-3.1 2.9-3.6 4.5-2.5 7.5 1 2.7 2.4 1.8 1.8-1.3-.5-2.3-.1-3.2 2.5-5 3-2.2 4-4.1 2.2-4.1-.5 0-2.3 1.3-4 2.9M332 1211c0 4.5.4 6.9 1 6.5.6-.3 1-3.3 1-6.5s-.4-6.2-1-6.5c-.6-.4-1 2-1 6.5M422.6 1208.8c-.6 1-1 42.1-.4 42.7.2.2 19.8.7 43.6 1 30.4.5 43.6.4 44.5-.3 1-.8 1.4-6.3 1.6-21.6.1-11.2-.1-20.6-.6-20.9-1.6-.9-88.1-1.8-88.7-.9m49.9 2.1 36.5.1-.2 19.7-.3 19.8h-6.7c-3.8 0-22.8-.2-42.3-.3l-35.5-.2v-19.4c0-12.1.4-19.6 1-19.8s3.3-.2 6-.2c2.8.1 21.4.2 41.5.3"/><path d="M432.7 1212.7c-1.2 1.2-.7 2.2.8 1.7 1.7-.7 2.2 3.1.5 4.1-1.5.9-1.2 2.5.5 2.5 1.8 0 2 3.6.3 4.6-.6.4-1.7-.1-2.5-1.1-1.1-1.6-1.3-1.6-1.3-.3 0 .8.7 2.2 1.6 2.9 2.6 2.1 4.3-1.2 4-7.6-.4-6.7-1.8-9-3.9-6.8M443.7 1212.7c-.4.3-.7 1.3-.7 2.1 0 1.2.3 1.2 1.5.2 1.3-1.1 1.5-.8 1.5 1.3 0 1.4-.6 2.8-1.2 3.1-1 .5-1 .7 0 1.2 1.2.6 1.8 5.4.6 5.4-.4 0-1.3-.8-2-1.8-1.2-1.5-1.3-1.5-1.4-.1 0 2.2 2.4 4.1 4.3 3.3 1.3-.5 1.6-2 1.5-7.2-.1-6.9-1.8-9.9-4.1-7.5M465.6 1214.2c-.8 1.2-1.2 2.6-.9 3.1.3.6 1 0 1.5-1.2.8-2.4 2.8-2 2.8.5 0 .8-.9 3.2-2 5.4-2.7 5.2-2.5 6.2.7 5.8 1.8-.2 2.9-1 3.2-2.3.3-1.7.1-1.8-1.3-.6-.9.8-1.9 1.1-2.2.8-.8-.8.6-4.7 1.7-4.7.5 0 .9-1.8.9-3.9 0-4.6-2.2-6.1-4.4-2.9M476.1 1214.9c-2.9 5.3.1 16.5 3.4 12.9 2.7-2.8 2.7-5.7.1-8.3-3.2-3.2-3.4-4.9-.5-4 1.5.5 2 .3 1.7-.6-.7-2.2-3.6-2.2-4.7 0m3.7 8.4c-.5 3.4-2.8 3.3-2.8-.2 0-2.3.4-2.9 1.6-2.4.8.3 1.4 1.5 1.2 2.6M487.8 1220.6c-.2 5.6.1 7.8 1 8.2.7.2 1.4.3 1.5.1.6-1.1-.6-15.9-1.3-15.9-.5 0-1 3.4-1.2 7.6M455.7 1219.8c-1.5.2-2.5.8-2.2 1.3.8 1.2 5.2 1.2 6 0 .7-1.3-.5-1.7-3.8-1.3M431.6 1232.6c-.8 2.2.2 3.3 1.4 1.4.8-1.2 1-1.2 1.6.3.3.9 0 2.5-.7 3.4-1.1 1.3-1.1 1.7-.1 2 1.7.6 1.5 5.3-.2 5.3-.8 0-1.7-.6-2-1.3-.3-.6-.5-.3-.3.8.3 3 4.3 3.2 5 .3.9-4.3-.7-13.3-2.4-13.6-.9-.2-1.9.5-2.3 1.4M443 1232.5c-1.7 2-.5 3.2 1.5 1.5 1.3-1.1 1.5-.9 1.5 1.3 0 1.4-.6 2.8-1.2 3.1-1 .5-1 .7 0 1.2 1.3.6 1.7 5.4.4 5.4-.4 0-1.4-.6-2.1-1.3-1-1-1.2-.8-.9.8.4 2.6 4.4 3.3 5.2.8.3-1 .4-4.1.2-6.8-.3-7.2-1.9-9.2-4.6-6M465.2 1233c-1.4 2.3-1.6 4-.3 4 .5 0 1.2-1 1.6-2.3.7-2 .8-2 1.2.9.3 2-.4 4.5-1.7 6.8-1.1 2.1-1.8 4.1-1.5 4.7 1.1 1.6 4.4.9 5.5-1.2 1.3-2.4.4-4.1-1-1.9-1.7 2.7-2.2.2-.6-2.9 1.9-3.6 2.1-7.2.4-8.9-1.6-1.6-2.1-1.5-3.6.8M476 1232.9c-1.8 3.5-1.6 11.9.3 13.8 1.7 1.7 1.9 1.7 3.3-.1 2-2.8 1.7-6.3-.6-8.3-1.1-1-2-2.3-2-3.1 0-.9.7-1.1 2-.7 2.2.7 2.6-.5.8-2.3-1.7-1.7-2.6-1.5-3.8.7m3.5 9.6c0 1.1-.8 2.1-1.7 2.3-1.4.3-1.8-.3-1.8-2.3s.4-2.6 1.8-2.3c.9.2 1.7 1.2 1.7 2.3M497.3 1231.7c-.7.2-1.3 1.4-1.3 2.5 0 1.9.1 1.9 1.8.2 1.6-1.7 1.7-1.7 2 .2.2 1.1-.6 4.2-1.8 6.8-2.7 6.3-2.6 6.8 1.3 6.4 2.6-.2 3.3-.8 3.5-2.8.2-2.2.1-2.3-.8-.8-1.1 1.9-4 2.5-4 .9 0-.5 1.2-3.4 2.6-6.5s2.3-6 1.9-6.6c-.6-1-3.1-1.2-5.2-.3M488 1232.2c-.1.2-.2 3.8-.3 8.1-.1 5.9.1 7.7 1.1 7.5.7-.2 1.3-.6 1.3-1.1-.1-.4-.1-3.9-.1-7.7 0-4-.4-7-1-7-.5 0-1 .1-1 .2M453 1240c0 .5 1.6 1 3.5 1s3.5-.5 3.5-1c0-.6-1.6-1-3.5-1s-3.5.4-3.5 1M528.9 1214c2.1 1.9 4.1 2.6 4.1 1.6 0-1.2-3.3-3.6-4.8-3.6-1.4.1-1.2.5.7 2M534.6 1215.6c-3 3-1.9 5.1 4.7 8.6 4.6 2.6 6.3 4.1 6.5 5.9.2 1.3.8 2.8 1.3 3.3.5.6.9 7.7.9 15.8 0 9.2.4 14.8 1 14.8s1-5.7 1-15.1v-15l4.3.6c3.4.5 4.6.3 5.9-1.2 3.2-3.7 3.1-6-.4-10.3-3.2-3.9-5.9-4.8-8.7-3.1-.9.6-3.3-.2-7.2-2.5-6.5-3.9-7.2-4-9.3-1.8m1.7 1.9c-.3.9-.8 1.4-1 1.1-.3-.3-.2-.9.2-1.5.9-1.6 1.5-1.3.8.4m4 .1c.9 1-.4 3.4-1.9 3.4-1.6 0-1.6-.2-.8-2.4.6-1.7 1.6-2 2.7-1m4.4 3c.1.5-.2 1.6-.7 2.4-1.2 2-3.3 0-2.4-2.4.7-1.7 2.5-1.7 3.1 0m7.9 2.9c-1.9 1.7-2.6 3.4-2.6 6 0 2.2-.4 3.4-1 3-3-1.8 1-11.5 4.7-11.5 1.2 0 .9.7-1.1 2.5m-4.6-.1c0 1.6-1.8 3.1-2.7 2.2-.8-.8.5-3.6 1.7-3.6.5 0 1 .6 1 1.4m8.7 1.3c-.4.3-.7 0-.7-.7s.3-1 .7-.7c.3.4.3 1 0 1.4m-1.3 1.1c.2.4-.2 1.6-1 2.7-1.7 2.2-3.9.8-2.8-1.8.6-1.7 2.9-2.3 3.8-.9m5.2 1.6c.8 2.2-1.4 5.6-3.7 5.6-1.6 0-1.9-.4-1.3-2.3 1.3-4.4 3.9-6.1 5-3.3M706 1224c0 4 .4 7 1 7s1-3 1-7-.4-7-1-7-1 3-1 7M331.9 1224.5c-.8 3 .2 14.6 1.2 13.9 1.1-.6 1.1-6.3.1-11.9-.6-2.9-.9-3.5-1.3-2M706 1243.5c0 3.7.4 6.5 1 6.5s1-2.8 1-6.5-.4-6.5-1-6.5-1 2.8-1 6.5M332 1250.8c0 5.3.4 8.1 1 7.7 1.3-.8 1.3-12.5 0-14.5-.7-1-1 1.1-1 6.8M706 1262.5c0 4.3.4 7.5 1 7.5s1-3.2 1-7.5-.4-7.5-1-7.5-1 3.2-1 7.5M331.8 1262.6c-1.1 1.1-1 11.2.1 11.9.5.3 1.1.2 1.3-.2.6-1.5-.7-12.5-1.4-11.7M503.1 1266.8c-1.1 2.1.3 5.2 2.5 5.2.9 0 1.4.7 1.2 1.7s-1.1 1.7-2.1 1.7c-.9-.1-1.7.2-1.7.7s1.1.9 2.5.9c2 0 2.5-.6 3.1-3.6 1.2-6.2-3-11.3-5.5-6.6m3.9 2.3c0 2.4-2.3 2.1-2.8-.4-.2-1 .3-1.7 1.2-1.7 1 0 1.6.9 1.6 2.1M512.7 1265.7c-1.6 1.5-.7 5.5 1.3 6 2.5.7 2.2 3.9-.3 3.5-2.1-.4-2.3 1.4-.2 2.2 3.3 1.2 5.8-5.7 3.9-10.8-.6-1.6-3.5-2.2-4.7-.9m3.3 3.4c0 2.1-1.6 2.6-2.3.6-.6-1.7.3-3.8 1.4-3.1.5.3.9 1.4.9 2.5M521.5 1266c-.3.5.4 1 1.5 1 1.7 0 2 .4 1.5 1.7-.5 1-1 3.4-1.2 5.3-.3 3.1 0 2.8 1.7-1.9 1.1-2.9 1.7-5.7 1.4-6.2-.7-1.2-4.1-1.1-4.9.1M531.3 1266.9c-.9 1.5-.8 2.3.3 4 .9 1.2 2 1.8 2.6 1.5.6-.4.8.1.6 1.2s-1.1 1.8-2.1 1.6c-2.1-.4-2.3 1.4-.2 2.2 3.3 1.2 5.8-5.7 3.9-10.8-.8-2.2-3.7-2-5.1.3m3.7 2.2c0 2.4-2.3 2.1-2.8-.4-.2-1 .3-1.7 1.2-1.7 1 0 1.6.9 1.6 2.1M540.6 1266.6c-1.1 2.9-.6 8.2.9 9.8 2.2 2.1 4.5.9 4.5-2.4 0-2.8-2.1-5.5-3.3-4.3-.4.3-.7-.2-.7-1.1 0-1.3.6-1.7 2-1.3 1.3.3 2 0 2-.9 0-1.9-4.6-1.8-5.4.2m3.9 6.7c0 2.6-2 2.5-2.3-.2-.3-1.6.1-2.2 1-1.9.7.3 1.3 1.2 1.3 2.1M560 1266.9c-1.5 2.9-1.2 7.7.6 9.6 1.5 1.5 1.8 1.5 3.5-.1 3.1-2.8 1.9-11.4-1.6-11.4-.8 0-1.9.9-2.5 1.9m4 4.1c0 2.9-.4 4-1.5 4s-1.5-1.1-1.5-4 .4-4 1.5-4 1.5 1.1 1.5 4M569.5 1266.2c-.2.7-.3 3.3-.2 5.8.2 4.1.4 4.5 2.7 4.5s2.5-.4 2.5-4.5c.1-5.9-.3-7-2.6-7-1.1 0-2.2.6-2.4 1.2m3.6 2.3c-.1 1.5-2.4 1.2-2.9-.3-.3-.9.2-1.3 1.2-1 1 .1 1.7.7 1.7 1.3m.5 4.6c.7 1.2-1.5 3.1-2.8 2.3-.4-.3-.8-1.2-.8-2 0-1.7 2.6-1.9 3.6-.3M588 1266.9c-1.1 2.1.3 3.1 1.5 1.1.3-.6 1-1 1.6-1 1.6 0 1 2.6-1.1 4.5-2.9 2.6-2.2 5.9 1.3 6.3 1.5.2 2.7-.1 2.7-.7s-.9-1.1-2-1.1c-2.6 0-2.5-1.5 0-4.3 1.2-1.2 1.9-3.1 1.8-4.2-.4-2.8-4.4-3.2-5.8-.6M580.1 1266.9c-.9.6-1 1.1-.2 1.5.6.4 1.1 2.5 1.1 4.7 0 2.1.5 3.9 1 3.9 1.2 0 1.4-9.7.2-10.4-.4-.2-1.4-.1-2.1.3M551 1272c0 .5 1.1 1 2.5 1s2.5-.5 2.5-1c0-.6-1.1-1-2.5-1s-2.5.4-2.5 1M170.5 1273.9c-.6.5-3.5 2.3-6.5 3.9s-8.8 4.8-12.9 7.1c-4.1 2.2-7.8 4.1-8.2 4.1-.5 0-.9-1.6-.9-3.5 0-2.3-.6-3.7-1.9-4.4-1.7-.9-2.4-.2-6.2 6.2-4.3 7.3-6.3 10.7-11.3 18.5-1.5 2.3-2.4 4.7-2.1 5.2.7 1.2 21.1 13.2 22.1 13.1.4-.1.7-2.5.5-5.4-.2-5.2-.1-5.3 3.6-7.4 2.1-1.1 5.6-3.1 7.8-4.4 2.2-1.2 8.4-4.7 13.8-7.6l9.7-5.4v-8.9c0-8.9 0-9-3-10.5-3.4-1.8-3.3-1.8-4.5-.6m4.5 3.8c.1.5.3 4 .6 7.8.6 7.1.6 7.1-2.8 8.7-4.3 2.2-16.5 9-25.2 14-6.8 4-6.8 4-6.3 7.9.3 2.2.1 4.2-.4 4.5s-3.1-.7-5.7-2.3-5.9-3.5-7.4-4.2c-1.6-.8-2.8-2.1-2.8-3s1.9-4.5 4.3-8.1c2.3-3.6 5.6-8.8 7.2-11.5 3-5 3-5 3.3-2 .5 4.4 1.6 5 5.4 2.7 3.1-1.9 10.9-6.2 22.3-12.3 5.1-2.8 7.5-3.5 7.5-2.2"/><path d="M166.7 1283.2c-2.2 2.1-2.4 2.8-1.8 7.5.6 5.3.6 5.3 3.6 3.7 4-2 5.5-4.2 5.5-7.9 0-5.6-3.3-7-7.3-3.3m5.1 3.2c.3 2.6-2.1 6.6-4 6.6-.4 0-.8-1.7-.8-3.8 0-6.1 4.2-8.5 4.8-2.8M161.7 1285.6c-.4.4-.7 2-.7 3.6 0 3.2-1.9 3.8-2.7.8-.7-2.7-2.3-2.5-2.3.2 0 1.3-.4 2.9-.9 3.7-.7 1.1-1 .9-1.6-.8-1-3.4-2.7-2.5-2 1.1 1.4 7.3 4.5 9.9 4.5 3.8 0-3.7 1.6-4.7 3.2-2 2 3.1 2.6 2.5 3.3-3.4.7-5.7.5-8.2-.8-7M145.5 1294.9c-2.8 1.6-3 2.3-3.3 7.9-.2 3.9.1 6.2.8 6.2.5 0 1-1.3 1-2.9 0-2.2.6-3 2.5-3.5 1.4-.4 2.5-1.3 2.5-2.1 0-1.7-1.6-2-2.5-.5s-2.5 1.2-2.5-.4c0-.8 1.4-2.3 3-3.3 1.7-.9 3-2.1 3-2.5 0-1.2-1.1-.9-4.5 1.1M705.2 1276c-.7 1.6-2.2 3.2-3.3 3.5-2.3.8-2.5 2.5-.4 2.5s6.5-4.8 6.5-7.1c0-2.8-1.3-2.3-2.8 1.1M332 1279.4c0 1.5 5.5 6.6 7.1 6.6s.9-1.9-.9-2.4c-1.1-.4-2.5-1.8-3.2-3.1-1.5-2.7-3-3.3-3-1.1M639.3 1281.6c-.7.3-1.3 1-1.3 1.5 0 .6 3.5.9 8.3.7 4.6-.2 8.2-.7 8.2-1.3 0-1-13.1-1.8-15.2-.9M661.2 1281.9c-2.1 1.3 1 2.1 7.8 2.1 6.4 0 9.3-.7 8.4-2.1-.7-1.1-14.4-1.2-16.2 0M682 1282c0 .6 3.2 1 7.6 1 4.7 0 7.3-.4 6.9-1-.3-.6-3.7-1-7.6-1s-6.9.4-6.9 1M495.5 1283.1c-3.8.3-6.8.7-6.5.8 1.3.6 14.2.6 14.6 0 .7-1.3-.9-1.4-8.1-.8M510.1 1282.9c-1 .6 1.2 1 6.3 1.3 8.3.3 9.9.1 9-1.3-.7-1.2-13.5-1.2-15.3 0M531.5 1283c-.4.6 2.3 1 7.5 1s7.9-.4 7.5-1c-.3-.6-3.7-1-7.5-1s-7.2.4-7.5 1M553 1283c-1 .7.7 1 5.8 1 4.1 0 7.2-.4 7.2-1 0-1.3-11-1.3-13 0M571.5 1283c-.4.6 2.5 1 7.9 1 5.1 0 8.6-.4 8.6-1s-3.3-1-7.9-1c-4.4 0-8.3.4-8.6 1M593.4 1283.2c-.3.4 3.4.8 8.1.8 5.6 0 8.4-.4 8-1-.8-1.2-15.4-1-16.1.2M615 1283c0 .6 3.5 1 8.5 1s8.5-.4 8.5-1-3.5-1-8.5-1-8.5.4-8.5 1M342.5 1284c-.4.6 1.5 1 4.9 1 3.1 0 5.6-.5 5.6-1 0-.6-2.2-1-4.9-1-2.8 0-5.3.4-5.6 1M359.5 1284c-.4.6 2 1 6.4 1 4.1 0 7.1-.4 7.1-1s-2.8-1-6.4-1-6.8.4-7.1 1M380 1284c0 .6 3.3 1 8 1s8-.4 8-1-3.3-1-8-1-8 .4-8 1M401 1284c0 .6 3.3 1 8 1s8-.4 8-1-3.3-1-8-1-8 .4-8 1M423 1284c0 .6 3.5 1 8.4 1 4.7 0 8.8-.5 9.1-1 .4-.6-2.7-1-8.4-1-5.4 0-9.1.4-9.1 1M446 1284c0 .6 3.1 1 7.4 1 4.1 0 7.8-.5 8.1-1 .4-.6-2.3-1-7.4-1-4.7 0-8.1.4-8.1 1M467.5 1284c.3.5 3.9 1 8 1s7.7-.5 8-1c.4-.6-2.5-1-8-1s-8.4.4-8 1"/></svg>