<svg xmlns="http://www.w3.org/2000/svg" viewBox="0 0 992 1402" fill="currentColor"><path d="M714.5 163.3c-7.7 3.9-14.4 7.5-15 7.9-2.7 2.2-18 10.8-19.2 10.8-.8 0-3-.8-5.1-1.9-5.2-2.6-8.8-3.3-12.9-2.5-3.4.6-18.4 9.9-23 14.3-3.1 2.9-3.6 2.7-5.8-2.1-2.8-5.8-4.9-6.9-7.7-4-1.8 1.8-2.3 3.4-2.3 7.5 0 2.8.3 6.4.8 7.9.6 2.3.2 3.2-2.5 5.5-1.8 1.6-6.7 6-10.8 9.9-4.5 4.3-10.1 8.5-14 10.4-9.8 4.9-19.2 10.5-32.5 19.3-16.7 11.1-23.9 17.1-39.6 32.7-22.5 22.5-26.9 30.6-26.9 49.6 0 9.5 1.3 14.8 6.1 25.1 6.9 15 17.1 28.2 27.4 35.3 5 3.4 24.7 13 26.8 13 .9 0 1.8.4 2.1.9s1.6 1.1 2.8 1.4c1.3.3 6.4 1.7 11.3 3.2 9 2.8 9 2.8 25.6 1.5 9.1-.6 20-.9 24.1-.5 6.1.6 8.2.4 11.1-1 3.6-1.7 3.6-1.7 8.4 2.2 11 9 21.4 11.7 29.8 7.8 4.8-2.3 5.2-2.6 12.6-9.4 7.9-7.2 12.9-16 16.5-28.9.2-.6 1.6-1.2 3.1-1.2 1.6 0 4.8-1.7 8.2-4.3 7.3-5.6 8.6-6.4 25.1-15.7 3.6-2 8.1-4.6 10-5.7s9.8-5.5 17.5-9.8c15-8.3 26.7-15 43.5-25 5.8-3.4 13.4-7.7 17-9.5s7.4-4.1 8.5-5.1c2.1-1.8 2.2-1.8 5.8.7 3.2 2.1 12 6.4 13.3 6.4.2 0 .4-.5.4-1 0-.6-.6-1-1.4-1-2.5 0-6.6-4.3-8.1-8.5-.8-2.2-1.4-3.2-1.5-2.2 0 1 .7 3.1 1.5 4.7.9 1.7 1.2 3 .8 3-1.6 0-8.3-5.1-8.3-6.3 0-.7-1 .1-2.1 1.6-1.2 1.5-5.2 4.3-8.9 6.2-3.7 1.8-9.1 4.8-12.1 6.6-3 1.7-6.7 4-8.4 4.9-1.6 1-7 4.1-12 7-11.1 6.5-29.7 17-30.2 17-.2 0-3.6 1.9-7.6 4.3-7.1 4.3-11.5 6.8-25.2 14.2-6 3.3-13.2 7.9-20.7 13.4-1.8 1.3-1.9 1.2-1.3-1.5.5-2.2.4-2.5-.4-1.4-.6.8-1.1 2.3-1.1 3.3 0 1.9-2.3 3.3-3.9 2.3-.6-.4-.5-2.1.5-4.8 3-8.5 1.5-19.5-3.4-25.1-1.5-1.6-1.4-1.7.4-1.1 5.3 1.9 8.4 7.5 8.4 15.4 0 3.1.4 5 1.2 5 .6 0 3.4-1.7 6.2-3.8 4.4-3.3 10.7-7.1 35.6-21 2.5-1.4 8.7-4.9 13.8-7.8 5.2-3 9.5-5.4 9.6-5.4.4 0 31.9-18.6 36.5-21.6 4.5-2.9 7.5-7.4 8.6-12.9.3-1.8-.2-1.1-1.5 2-1.1 2.7-2.6 5.7-3.3 6.5-1.4 1.8-18.2 12-19.7 12-.6 0-1 .3-1 .8 0 .4-2.1 1.8-4.7 3.1-2.7 1.4-5.9 3.2-7.3 4.1-1.4 1-5 3.1-8 4.7-3 1.7-8.6 4.9-12.5 7-33.6 19.1-36.9 20.8-36.1 18.7 1.9-4.9 3.7-13.8 3.2-15.9-.5-2 .3-2.8 6.5-6.4 3.9-2.3 7.3-4.1 7.6-4.1.2 0 2.4-1.4 4.8-3 2.4-1.7 4.6-3 4.8-3s6.6-3.6 14.1-8 13.9-8 14.2-8 1.8-.8 3.2-1.8c1.5-1.1 5.9-3.6 9.7-5.7 3.9-2.1 11.4-6.2 16.7-9.1 5.3-3 10.1-5.4 10.7-5.4s1.1-.3 1.1-.8c0-1.5 21.4-9.7 22.9-8.7.5.2 1.4-.8 2.2-2.3.7-1.5 2.4-4.4 3.6-6.4 2.2-3.6 3.1-7 1.6-5.4-.5.4-2.1 3.2-3.8 6.3-2.9 5.5-3.2 5.6-11 8.3-4.4 1.4-9 3.2-10.2 3.8-3.1 1.7-3.3 1.6-3.4-2.6-.1-3.7-.1-3.7-1.1.8-.8 4.1-1.5 4.8-5.6 7-9.3 4.9-46.1 25.6-59.2 33.3-4.7 2.8-11 6.4-14 8-3 1.7-6.6 3.8-8 4.7-1.4 1-3.4 2-4.6 2.4-2 .6-2.1.2-2.8-8.5-.4-5-1.6-11.4-2.6-14.3-1.1-2.8-2-6.8-2-8.9 0-2-.4-3.7-1-3.7-1.4 0-1.2 3.8.6 8.5 2.1 5.9 4.4 18.3 4.4 24.3 0 4.1-.4 5.4-1.7 5.9-1 .4-5.3 2.9-9.7 5.7-6.8 4.3-8.1 4.8-9.8 3.7-3.3-2.1-6.8-3.1-6.8-2.1 0 .6.6 1 1.3 1 .6 0 2.3.9 3.6 1.9 3.3 2.5.9 3.8-2.7 1.5-1.9-1.3-4.6-1.8-8.7-1.8-8.9 0-17.7 4.5-27.7 14.4-4.3 4.2-7.8 8.2-7.8 8.9s2.6-1.6 5.7-4.9c5.2-5.7 14.6-12.9 18.3-14.2 1.6-.6 7 2.1 7 3.4 0 .4-1.9.8-4.2.8-5.9 0-12 3.3-19.8 10.6-3.7 3.5-7 6.1-7.3 5.8-.8-.8-6 8.4-5.3 9.5.3.5-.5 4-1.9 7.7-3 8.3-3.4 19.7-.9 24.5.8 1.7 1.3 3.3 1 3.6-.7.8-11.6-7.5-12.3-9.3-.3-.7.5-3.1 1.7-5.1 6.6-10.9 12-20.6 11.8-20.9-.2-.1-4.1 1-8.8 2.5-4.7 1.6-10.3 3.1-12.5 3.5-3.9.7-4.1.6-6.8-3.7-3.3-5.1-9.3-11.7-10.7-11.7-2.7 0-.2-3.5 7.3-10.3 15-13.7 27.7-23.2 52.6-39.2 6.7-4.4 16.2-10.5 21.1-13.6 4.8-3.1 9-6.4 9.3-7.3.4-1 1.8-1.6 4.1-1.6 2 0 5.5-.6 7.8-1.4 2.4-.8 5.8-1.6 7.6-2 2.9-.5 10.2-3.4 21.2-8.4 1.9-.9 5.7-2.9 8.3-4.4 3.8-2.2 4.9-2.5 5.3-1.4.8 2.1 3.2 2.8 5.5 1.5 1.1-.5 2.8-.9 3.7-.7 1.3.3 1 .7-1.3 1.9-6.4 3.4-17.2 9.3-20.5 11.4-1.9 1.1-6.6 3.6-10.3 5.5-5.7 2.8-9 5-7.4 5 .3 0 9.1-4.5 22.2-11.3 3.3-1.7 6.2-3.4 6.5-3.8.3-.3 2.5-1.7 5-2.9 2.5-1.3 5.6-3 6.9-3.9s5.1-2.5 8.5-3.6c4.1-1.4 6.4-2.7 7.1-4.2.5-1.2 2.7-3.2 5-4.4 2.2-1.2 7.2-4.3 11-6.8 3.9-2.6 9.6-6.2 12.8-8.1 3.1-1.9 5.7-3.8 5.7-4.2 0-1.3-.5-1.1-9.7 5-4.8 3.2-12.1 7.7-16.1 10.1-7.3 4.4-7.3 4.4-10 1.8-3.2-3.2-3.5-2.9 9.8-11.8 5.2-3.5 11.8-8 14.6-10.1s5.6-3.8 6.1-3.8c1.5 0 8 7.3 8.8 10 .4 1.2.9 1.9 1.2 1.7.8-.9-2.9-7.1-6.1-10-2.6-2.5-2.8-3-1.4-3.8.8-.5 5.2-3.8 9.6-7.4 7.5-6 13.2-13.2 13.2-16.6 0-.8-.9.4-2 2.6s-3 5.1-4.2 6.5c-2.6 2.9-12.7 10.9-20.3 16-2.7 1.8-5.2 3.6-5.5 3.9-1.1 1.3-5.2 3.2-5.8 2.7-.3-.3-.3-.8-.1-.9 1.7-1.5 9.9-6.7 10.3-6.7s1.9-1.1 3.4-2.4 5.6-4.6 9.1-7.2c3.5-2.7 7.1-6 7.9-7.4 1.1-1.7.2-1.3-2.9 1.6-5.4 5-15.4 12.4-32.4 23.9-7.1 4.8-14.5 9.9-16.3 11.3-2.7 2-4.4 2.5-10.5 2.6-3.9.1-8 .5-8.9 1-1.6.7-1.8.2-1.8-4.5 0-6.9-1.8-22-3.4-28.4-1.1-4.2-2.1-5.6-6.2-8.7-3.9-3-24-15.5-32.9-20.4-4.6-2.6-21.5-11.5-27.8-14.6l-6.9-3.5 4.9-3c2.6-1.6 7.1-4.4 9.8-6.1 7-4.3 23.1-11.7 28.5-13 11.7-2.8 14.6-3.2 24.2-3.2 17.5 0 36.9 6.7 55.8 19.3 15 10 31.7 27 34 34.6.7 2 .8 2.2.9.6.1-1.1 1.1-2.7 2.4-3.5 1.2-.7 4.7-2.9 7.7-4.8s4.6-3.2 3.6-2.8c-1.5.5-4-1.5-11.5-9.2-16-16.4-28.8-26.1-43.4-32.7-9.4-4.4-7.4-2.3 2.9 3 5.3 2.7 12.6 7 16.3 9.6 8 5.6 29.1 25.5 29.1 27.5 0 .7-2.1 2.5-4.6 4-4.7 2.8-4.7 2.8-6.6.3-16-19.8-41.5-37.4-63.8-43.9-4.1-1.2-8.2-2.5-9-2.9-3-1.4-21.5-1.2-28.5.3-3.8.8-7.2 1.3-7.4 1-.2-.2.1-.4.7-.4.7 0 1.2-.5 1.2-1 0-1.6-.6-1.3-15.5 6.3m-47.7 21.3c9 4 37.4 18.8 41.4 21.6 1.4 1 2.8 1.8 3.1 1.8s4.5 2.3 9.4 5.1c4.8 2.9 10.5 6.1 12.5 7.2 2.1 1.1 5.4 3.4 7.3 5 5.4 4.4 5.3 5.2-4.7 31.7-1.2 3-2.5 5.9-3 6.4-.4.6-.8 1.6-.8 2.3s-1.2 3.8-2.6 7c-9.2 20.5-10.7 22.3-18 22.3-4.2 0-15.6-2-22.4-4-1.9-.5-7.3-2.1-12-3.4-13-3.8-19.2-6.1-36.9-14.3-5.5-2.5-19.1-11.8-23.6-16-2.2-2.1-5.4-5.6-7.1-7.8-3.4-4.4-9.4-15.7-9.4-17.7 0-2.8 28.9-29.5 44.9-41.5 10.1-7.7 14.8-8.9 21.9-5.7m-34.8 4.6c2.9 4.7 2.5 7.3-1.3 10.2-1.9 1.5-3.7 2.6-4 2.6-1.2 0-2.8-8.3-2.2-10.9 1.5-5.9 4.6-6.7 7.5-1.9m218.4 12.7c.5.8-8.1 7.1-9.7 7.1-1.9 0-.2-2.1 4.1-4.9 5.4-3.5 4.9-3.4 5.6-2.2m-250.9 27.3c-.9 2.9-3.6 5.1-10.5 8.5-9.8 4.8-27.2 16.1-38 24.6-.8.7-3.5 2.8-6 4.7s-4.7 3.7-5 4c-.4.5-10.8 8.9-11.9 9.7-.2.2-.1.6.3 1s1 .3 1.4-.2c2.1-2.9 26.4-21.8 37.2-29 2.5-1.7 4.7-3.2 5-3.5.7-.8 7.4-4.7 15-8.8 3.6-1.9 7.7-4.1 9.2-5s2.9-1.4 3.1-1.1c.1.2 1.8 3.5 3.7 7.3 4.9 9.7 17.2 22.1 27.8 28.2 5.1 2.9 17 8.9 21.2 10.7 1.9.8 5.2 2.2 7.4 3.2 4.9 2.2 14.3 5 27.1 8.2 16.8 4.1 18.5 4.7 18.2 5.8-.3 1-3.6 3.2-34.5 23.3-8.8 5.7-17 11.2-18.3 12.2s-5.3 4-8.9 6.7c-3.6 2.6-6.8 5.2-7.1 5.7-.7.9-7.6-3-12.7-7.1-1.5-1.3-3.3-2.3-3.9-2.3-.7 0-1.3-.4-1.3-.8 0-1.1-4.5-3.2-6.8-3.2-.9 0-3.5 1.7-5.7 3.7-2.3 2.1-8 7.3-12.7 11.6l-8.7 7.9-6.8-3.4c-8.3-4.1-19.9-10.5-27.3-15-8.4-5.1-25-17-25-17.9 0-.5 5-6 11.1-12.4 8.7-9.1 10.8-11.8 10.1-13.1-1-1.7-10.5-7.4-12.3-7.4-.6 0-2.4-1-4.1-2.1-3-2.2-3-2.2-12 6.7-5 4.9-8.7 8.2-8.2 7.3 1.8-3.3 15.1-17.6 23.2-24.9 4.6-4.1 9.1-8.2 10-9 6.8-6.2 27.7-20.9 38.2-26.7 3-1.7 7.3-4.1 9.5-5.4 5.6-3.1 8.9-4.9 9.3-4.9.2 0 0 1-.3 2.2m157.5 12c.6 5.7 1.5 13.8 2.1 18.2.5 4.3.7 8.1.5 8.5-.3.4-.1 2.4.4 4.4.8 3.8.8 3.8-7.2 7.8-11 5.6-26 12-26.6 11.4-.2-.2.6-2.6 1.8-5.2 3.5-7.4 12.8-29.1 15.6-36.3 4.4-11.4 5.8-14.4 8.2-17.2 1.3-1.6 2.7-2.6 3.2-2.3.4.3 1.3 5.1 2 10.7m44.9 7.5c-.1 1.3-22 15.5-22.7 14.8-.4-.4 0-1 .8-1.5s5.8-3.8 11-7.4c9.3-6.4 11.1-7.4 10.9-5.9M780.7 266c3.5 2.1 5.2 6.2 3.4 8.4-2.6 3.1-14.8 4.6-19.5 2.4-3.5-1.5-5.2-7.3-3.1-10.5 1.4-2 2.3-2.3 8.8-2.3 5.4 0 8 .5 10.4 2m-15.2 13c.4.6-.5 1-1.9 1s-2.6-.5-2.6-1c0-.6.9-1 1.9-1 1.1 0 2.3.4 2.6 1m-228.8 9.9c4.4 2.2 8.3 4.3 8.6 4.8.3.4-4.6 6.1-10.9 12.6L523 318.2l-5.3-4.4c-2.8-2.3-6.5-5.5-8.1-7l-3-2.7 3.9-4.3c6.6-7.4 14.9-14.8 16.6-14.8.8 0 5.1 1.8 9.6 3.9m-27.2 19.7c7.5 6.7 32.3 24.9 40.5 29.8 10.4 6.2 29.6 16.3 38 20 13.5 5.9 16.6 7.3 20 8.6 5.2 2 11.8 6.8 13.7 9.8.9 1.5 2.4 3.9 3.4 5.4 1.1 1.5 1.9 2.9 1.9 3.1 0 1-8.4 2.7-16.5 3.3-7.4.5-8.8.4-7.7-.7 3.4-3.7 1.2-5.3-17.3-12.2-10.2-3.8-11.5-3.8-13.4-.5-1.5 2.6-1.4 2.9.4 4.6 1.1 1.1 7.4 3.4 14 5.2s12.5 3.4 13 3.6c.6.2-2.4.2-6.5 0-6.9-.3-27-5.2-31.2-7.6-1-.6-2.3-1-3-1-2.2 0-18.4-8.3-26.3-13.6-9.2-6.1-16.7-12.9-21.9-19.7-4.2-5.7-4.4-6.6-1.3-6 2.2.4 5.7-1.8 5.7-3.6 0-.4-2.3-3.6-5-7-7.1-8.9-9.3-13.5-8.5-17.9.6-3.4 2.5-7.2 3.5-7.2.3 0 2.3 1.6 4.5 3.6m-5.2 15.6c2 2.9 5.1 7 6.8 9 2.7 3.1 3 4 1.9 5.3-.7.8-2 1.5-2.9 1.5-1.9 0-7-7.3-7.8-11.3-.3-1.5-1-3-1.4-3.3-.8-.5-1.3-6.4-.5-6.4.2 0 1.9 2.4 3.9 5.2m-2.9 6.3c2.8 11.3 12 23.7 24.6 33.1 4.9 3.7 18.6 12.4 19.6 12.4.2 0 3.3 1.4 6.9 3 8.6 3.9 27.7 9.7 36.8 11.1 13.1 2.1 34.5-.6 52.1-6.5 4.2-1.4 8.1-2.6 8.6-2.6 1.1 0 .2 1.8-7.4 14.8-2.7 4.6-5.8 8.9-7 9.7-1.5 1-5.6 1.4-15.6 1.3-7.4 0-19 .3-25.7.7-12.3.8-12.3.8-12.3-1.6 0-3.4-5-9.1-10.2-11.6-2.3-1.2-8.3-3.6-13.1-5.3-10-3.6-25.4-11.4-33.7-17-3-2.1-9-7.5-13.3-12-8.6-9.2-10.4-13.3-11.6-25.7-.6-6.9 0-8.9 1.3-3.8m121.9 9.6c5.1 3.4 9.4 6.3 9.6 6.5s-1.8 2.3-4.5 4.6c-2.7 2.4-7.4 6.7-10.4 9.5-3 2.9-6.2 5.3-7.1 5.3-1.7 0-5.6-1.5-14.7-5.6-2.9-1.3-5.6-2.4-6.1-2.4s-1.5-.7-2.2-1.6c-1.1-1.4-.6-2.2 3.6-6.2 12.3-11.5 18.1-16.2 20.3-16.2 1.2 0 6.4 2.8 11.5 6.1m105.9 2.1c-2.5 10.5-3.9 13.1-9.7 16.8-3 1.9-5.5 3.8-5.5 4.2 0 .5-.4.8-.9.8s-1.1-2.1-1.5-4.8c-.3-2.6-1.3-6-2.1-7.5-1.7-3.3-1.6-3.5 5.8-8.6 8.4-5.7 13.1-8.1 14.1-7.1.6.6.5 2.9-.2 6.2m-28.6 6.3c2.7 2.9 3.3 4.5 3.9 9.7.4 3.5.2 7.4-.3 8.8-.8 2.2-1 2-1.6-2.3-.6-3.7-1.7-5.8-5.7-10.1-2.8-3-5.9-5.8-7-6.1-4-1.3-1.6-3.1 4.5-3.4 2.1-.1 3.8.9 6.2 3.4m-5.5 6.2c1.6 1 3.8 3.6 4.9 5.8 2.7 5.5 2.5 8-.2 3.3-1.2-2-3.5-4.3-5.2-5-12.5-5.2-28.9 7-36.8 27.3-2.5 6.5-3 19-.8 22.9 2.5 4.5 6.2 7 10.4 7 1.4 0 2.6.4 2.6 1 0 1.5-7.3 1.2-11.4-.5-5.4-2.3-7-6.2-7-17 0-10.3 2-16.5 8.3-26.1 10.7-16.4 25.6-24.3 35.2-18.7m-175.9 15.6c9.8 10.8 20.1 17.5 39.3 25.6 5.1 2.2 17.3 6.1 18.8 6.1 1.6 0 4.3 2.8 3.4 3.6-1.7 1.7-36-12.4-47.2-19.5-.5-.3-1.9-.6-3-.6-1 0-2.4-.9-3-2s-3.8-4.7-7.1-8c-5.9-6-12.4-14.9-12.4-16.9.1-.6 1 0 2.1 1.4s5.2 6 9.1 10.3m178.3-7.7c1.4 1.6 2.5 3.1 2.5 3.4.1.3.5 2.4.9 4.7 1.9 9.8-4.2 24.7-13.9 34.5-6.5 6.4-11.1 8.9-17.5 9.1-9.2.4-13-5-12.3-17.3.8-12.9 9.3-27.2 20.4-34.2 5.1-3.3 6.8-3.7 12.7-3.4 3.8.3 5.2.9 7.2 3.2m-154.1 21.6c4.4 2.2 12.2 5.5 17.4 7.4 9.8 3.5 17.4 7.5 15.4 8.2-1.4.4-16.3-4.8-25.7-9.1-10.2-4.6-17.6-9.1-22.1-13.2l-3.9-3.6 5.4 3.1c3 1.7 9.1 5 13.5 7.2m38.2-8.3c2.7 1.1 8.2 3.2 12.3 4.8 6.7 2.5 9.3 4.5 7.8 5.9-.6.6-12.3-2.3-22.2-5.4-5.9-1.9-7.2-3-6.1-5.7.7-2 2.4-1.9 8.2.4M545 394.5c0 .3-.2.5-.5.5s-.5-.2-.5-.5.2-.5.5-.5.5.2.5.5"/><path d="M625.3 389.3c-6.5 1.5-8.4 3.1-6.2 5.3 1.4 1.3 2.5 1.3 8.4.3 6.7-1.3 9.9-3.1 9.2-5.3-.5-1.5-5.2-1.6-11.4-.3m9.7 1c0 .7-2.3 1.8-5.3 2.5-6.4 1.5-9.7 1.5-9.7.2 0-1.1 2-1.7 9.5-2.9 2.8-.5 5.1-.9 5.3-1 .1 0 .2.5.2 1.2M595.6 400c1 1 30.4 1.8 30.4.9 0-1.5-3.6-1.8-17.1-1.8-8.2 0-13.8.4-13.3.9M678.9 366c-5.6 2.9-10.8 8.9-14.5 16.4-5.7 11.8-5.5 19.8.7 25.1 3.7 3.1 5.6 3.1 11.7.3 6.1-2.9 13.1-10.2 16.7-17.5 3.2-6.6 4-17 1.6-21.5-2.6-5-9.8-6.2-16.2-2.8m13.8 1.9c8.6 8.1-2 32.3-17 38.9-5.5 2.4-10.8.7-12.8-3.9-4-9.8 3.9-27.9 15.1-34.8 4.6-2.7 11.8-2.8 14.7-.2M834 206.8c.6 1.3 1.4 2.1 1.8 1.8.3-.4-.2-1.4-1.2-2.4-1.8-1.6-1.8-1.6-.6.6M836 210.5c0 .3.2.5.5.5s.5-.2.5-.5-.2-.5-.5-.5-.5.2-.5.5M835.3 216.7c-.7 1.5-1.1 2.8-.9 3.1.6.6 2.8-3.8 2.4-4.8-.2-.5-.9.3-1.5 1.7M851.3 228.7c-1.8.9-3.3 2-3.3 2.5 0 1.4 1.4.9 4.5-1.7 3.5-2.8 3.2-3-1.2-.8M836.1 238.5c-8.7 5.9-13.8 10-10.1 8 2.7-1.4 21-13.7 21-14.1 0-1-2.2.2-10.9 6.1M824.8 257.5c.2 1.4.6 2.5.8 2.5s.4-1.1.4-2.5-.4-2.5-.9-2.5c-.4 0-.6 1.1-.3 2.5M811.8 260.9c-5.3 3.4-6 4.3-5.2 6.6.8 2 4.4 1.3 8.5-1.6 1.5-1 3.2-1.9 3.7-1.9 1.3 0 2.5-3.6 1.7-5-1.1-1.7-3.9-1.1-8.7 1.9m8.2-.6c0 1.2-9.6 7.7-11.3 7.7-.4 0-.7-.8-.7-1.8s2-2.8 4.8-4.4c5.3-3 7.2-3.4 7.2-1.5M826.3 265.5c0 2.7.2 3.8.4 2.2.2-1.5.2-3.7 0-5-.2-1.2-.4 0-.4 2.8M853 273.1c-.6 1.1-1 2.5-.7 3.2.2.6.9-.3 1.5-2.1 1.2-3.6.8-4.2-.8-1.1M845.6 276.6c-.4 1.4-.5 2.8-.3 3.1.3.2.8-.8 1.1-2.3.4-1.4.5-2.8.3-3.1-.3-.2-.8.8-1.1 2.3M850.6 279.5c-.3.9-.6 2.6-.5 3.8.1 1.6.4 1.2 1-1.2 1-3.4.6-5.5-.5-2.6M842.4 286.6c-1.5 3.6-1.7 5.1-.8 4.3 1.1-.9 1.4-.8 1.5.2.1.8.5-1.1.9-4.1.5-3 .8-5.6.7-5.6-.1-.1-1.2 2.2-2.3 5.2M854 283c0 .5.5 1 1 1 .6 0 1-.5 1-1 0-.6-.4-1-1-1-.5 0-1 .4-1 1M822.6 286.6c-.4 1.4-.5 2.9-.2 3.1.3.3.8-.7 1.2-2.1.3-1.5.4-2.9.1-3.2-.2-.3-.8.7-1.1 2.2M849.3 289.5c0 2.2.2 3 .4 1.7.2-1.2.2-3 0-4-.3-.9-.5.1-.4 2.3M854 289.9c0 .6.5 1.3 1 1.6.6.3 1-.1 1-.9 0-.9-.4-1.6-1-1.6-.5 0-1 .4-1 .9M838.6 294.5c-.9 2.6-.7 3.2.5 1.2.6-1 .9-2.1.6-2.3-.2-.3-.7.2-1.1 1.1M843 294.5c0 .3.2.5.5.5s.5-.2.5-.5-.2-.5-.5-.5-.5.2-.5.5M850.1 295.3c-.1 2 1.5 5.5 3.6 7.5 1.7 1.8 1.7.3-.1-1.7-.7-.9-1.8-3-2.4-4.6-.6-1.8-1.1-2.3-1.1-1.2M710.5 312.3c-2.2 1.2-4.2 2.5-4.5 2.8-.5.5-6 3.6-22 12.2-4.1 2.2-9.2 5.1-11.3 6.4s-5.3 3.2-7 4.2c-1.8 1-7.2 4.2-12 7.2s-9.6 5.8-10.5 6.4c-7.9 4.6-20.2 12.8-19.8 13.3.3.3 2.4-.7 4.6-2.2 2.2-1.4 4.2-2.6 4.4-2.6.3 0 3.4-1.9 6.8-4.2 11-7.3 18.4-11.8 43.6-26.2 3.5-2 6.5-3.6 6.7-3.6s5.8-3.2 12.5-7c6.7-3.9 12.6-7 13.1-7s.9-.5.9-1c0-1.5-1-1.2-5.5 1.3M212.8 427.6c-.5.4-.8 6.1-.8 12.6V452l4.8.1c2.6.1 8.5.3 13.2.5s22.8.6 40.3 1l31.7.7v-25.2l-5.2-.5c-8.9-.9-83.3-1.8-84-1m55.7 2.5c13.2.1 25.7.4 27.7.6 3.8.5 3.8.5 3.4 10.7l-.3 10.1-15.4-.2c-8.5-.1-27.4-.5-42.1-.9l-26.8-.6v-21.1l14.8.7c8.1.3 25.5.6 38.7.7"/><path d="M223.4 431.8c-.6.4-1.4 3.2-1.7 6.3-.6 4.8-.4 6.1 1.2 8 2 2.4 2 2.4 3.5.4 2.7-3.6 1.5-8.4-2.6-9.7-.7-.3-.9-1.2-.5-2.2.6-1.6 1-1.6 2.3-.5 1.4 1.2 1.6 1.1 1.3-.5-.4-2.2-1.9-2.9-3.5-1.8m2.1 10.5c0 3.9-1.9 3.8-2.3-.2-.3-2.4 0-3.2 1-2.9.7.3 1.3 1.7 1.3 3.1M234.1 432.4c-1.5 1.8-2.2 11.5-1 13.8s4.6 2.3 5.3 0c.2-.9.4-4.2.3-7.2-.3-7.5-1.9-9.8-4.6-6.6m3.4 3.2c0 1-.8 2-1.7 2.2-1.8.3-2.6-2.7-1.1-4.2 1.2-1.1 2.8 0 2.8 2m0 7.5c0 1.5-.7 2.5-1.7 2.7-1.3.3-1.8-.3-1.8-2.1 0-1.3.3-2.7.7-3.1 1.3-1.2 2.8.1 2.8 2.5M256.8 440.1c-.3 7.5.4 10.3 2.1 8.3.9-1.2.1-16.4-.9-16.4-.5 0-1 3.6-1.2 8.1M267.1 433.4c-1.9 2.2-1.9 12.3 0 14.1 1.5 1.5 1.8 1.5 3.3-.1 2.4-2.4 1.7-7.6-1.1-8.9-1.3-.5-2.3-1.5-2.3-2.2 0-1.7 2.3-2.9 2.8-1.5.2.7.8.9 1.3.6.6-.3.5-1.1-.2-2-1.4-1.8-2.3-1.8-3.8 0m2.9 9.6q0 3-1.5 3t-1.5-3 1.5-3 1.5 3M277.2 434.5c-2.8 6.1 0 15.9 3.8 13.5 1.9-1.2 2-12.1.1-14.4-1.8-2.2-2.6-2-3.9.9m3.6 6.4c-.2 2.8-.7 5.2-1.3 5.4-1.1.2-1.9-8.7-1-11.1 1.1-3.1 2.6.5 2.3 5.7M243.5 440c-.4.6.8 1 2.9 1 2 0 3.6-.5 3.6-1 0-.6-1.3-1-2.9-1-1.7 0-3.3.4-3.6 1M256.6 457.3c-.5 1-.6 3.8-.2 6.3l.6 4.4h-37l-.1 6.7v46.1l-3.8.6c-6.4 1-11.9 8.8-10.5 15 1 4.6 3.3 7.5 7.7 9.8 3.6 1.8 4.5 1.9 8.1.8 2.3-.6 5.1-2.1 6.3-3.2 2.2-2 2.2-2 5.3.2 1.6 1.2 3.6 2 4.3 1.7.6-.2-.5-1.4-2.5-2.7-3.6-2.1-3.8-2.4-3.2-6 .4-2.2.4-5 0-6.4-.7-3-4.9-7.4-8.2-8.6-2.4-1-2.4-1-2.2-26.2l.3-25.3 35 .3c19.2.2 35.1.4 35.2.6.2.1.6 18.8.9 41.4.6 31.6.4 41.2-.5 41.2-.6 0-2.3-.7-3.6-1.6-1.4-.9-3.2-1.3-4.1-1-3 1.2-14.4 8.9-14.4 9.7 0 1.5.8 1.1 7.8-3.6 4.8-3.1 7.4-4.2 9-3.8 1.2.3 2.2.9 2.2 1.2 0 .4-3.4 2.9-7.5 5.5s-8.1 5.3-8.8 5.9c-.6.7-2.8 2.4-4.9 3.9-2 1.5-4.2 3.3-5 4-.7.7-2.9 2.6-4.8 4.2-1.9 1.5-5.5 4.7-8 7-2.5 2.2-7.9 7-12 10.6-4.1 3.5-10.2 9-13.5 12.1-5.9 5.7-5.9 5.7-8.6 3.8-4.1-2.9-5.9-2.3-2.1.7l3.3 2.6-4.8 4.1c-2.6 2.3-6.1 5.5-7.8 7.2-1.7 1.6-5.8 5.4-9.1 8.4-3.2 3-14.9 14.3-25.9 25.2-18.1 17.8-26.2 24.9-28.6 24.9-2 0-.7-2 3.2-4.8 7.6-5.6 66.6-64.9 65.5-65.9-.3-.3-14.4 13.4-31.3 30.4-17 17.1-33.2 33-36 35.3-5.7 4.5-6.5 6-3.2 6 1.5 0 2.5 1.1 3.6 3.9 1 2.6 2.7 4.5 5.2 5.8 3.5 1.9 3.6 2 3.5 7.9-.1 3.2-.3 6.8-.5 7.9-.3 1.6.2 2.1 2.7 2.3 3.1.3 3.1.3 4.3-7.2 2.7-18.5 7.7-27 25.8-44.6 13.3-13 21.5-20.6 32.3-30 4.1-3.5 7.7-6.7 8-7 .9-1.1 20.5-17.4 24-20 1.8-1.4 4.5-3.5 5.9-4.6 2.9-2.4 7.3-5.5 20.3-14.4 9.4-6.4 12.9-7.3 19.7-4.9 2.8 1 3.5.9 5.5-1 1.2-1.1 3.5-2.1 5.1-2.1 4.2 0 9.5-4.4 9.5-8 0-3.8.9-6 2.5-6 .7 0 1.8-.7 2.5-1.5 1.1-1.3 1-1.8-.4-2.8-1-.7-1.5-2.3-1.4-3.7.3-2.2-.3-2.7-5.2-4.3-5-1.7-6-1.7-11.2-.4-3.2.8-5.9 1.4-6 1.3 0 0-.4-19-.7-42.1l-.6-42-17.7-.3-17.7-.2-.3-6.3c-.2-4.4-.6-5.7-1.2-4.4M224 524.5c7.6 4 8.2 14.6 1 18.8-4.5 2.7-10.4 2.2-14.2-1.2-2.9-2.6-3.3-3.6-3.3-7.9 0-3.9.5-5.6 2.4-7.6 3.4-3.7 9.4-4.6 14.1-2.1m83.6 29.7c-.3.7-.9 2-1.2 2.9-.4 1.1-2.2 1.9-5.1 2.3-3.8.5-11.5 3.7-13.3 5.6-2.3 2.3-8.3 6-10.6 6.6-4.3 1-12.8 4.6-13.6 5.8-.4.6-1 .7-1.4.3s-.5-.8-.3-1c22.6-17.6 33-23.3 42.7-23.6 2.4-.1 3.2.3 2.8 1.1m7.1.6c.7.4 1.2 1.6 1.1 2.7 0 1.1.1 2.7.3 3.5.6 2.2-3.9 2.5-6.2.4-1.9-1.7-2.6-5.4-1.2-6.7.9-.9 4.5-.9 6 .1m-8.7 9.7c0 2.6.7 4.3 2.5 5.9 2.2 2 2.3 2.5 1 3.6-1.2 1-2.4.8-6.2-1.1-3.6-1.8-6.5-2.4-11.5-2.4-3.8 0-6.8-.3-6.8-.6 0-1.6 10.3-7.1 15.5-8.2 5-1.1 5.5-.8 5.5 2.8m5.4.4c1.5 1.7 1.3 5.1-.3 5.1-1.5 0-3.1-2.5-3.1-4.7 0-2.8 1.1-2.9 3.4-.4m-15.1 10.2c3.5 1.6 3.2 4.6-.3 4.1-1.4-.2-5.2-.6-8.5-.9-12.1-.9-19.9 3.9-57.1 35.9-13.5 11.6-16.6 14.8-12.8 13.4 1.4-.6 1.5-.4.4.9-1 1.2-1.5 1.3-2.1.3-.6-.9-2.6.5-7.1 4.7-3.5 3.3-10.6 9.8-15.8 14.5-5.2 4.6-13.8 12.7-19 18-8.2 8.3-10.2 11-14.7 20-2.9 5.8-5.3 10-5.3 9.5 0-3.2 3.4-12.5 7.1-19.7 3.8-7.1 6.6-10.5 19.9-23.8 8.5-8.6 20.7-20.3 27-26 6.3-5.8 11.7-10.7 12-11 2-2.1 20.5-18.3 24.5-21.5 2.8-2.2 5.2-4.2 5.5-4.5s2.1-1.7 4-3 3.7-2.7 4-3c1.3-1.4 11.1-6.9 14.1-7.8 7.7-2.4 19.2-2.5 24.2-.1m6.5-1.1c.6 0 1.2.4 1.2 1 0 1.5-3.3 1.1-5.5-.7-2-1.5-1.9-1.5.5-.9 1.4.3 3.1.6 3.8.6m-41.8 4.5c0 .3-.2.5-.5.5s-.5-.2-.5-.5.2-.5.5-.5.5.2.5.5m15.6 3.3c-.2.4-3.1 2.5-6.3 4.7s-6.5 4.5-7.3 5.2-4.4 3.3-8 6c-3.6 2.6-7.1 5.3-7.8 6-.8.8-3 2.6-5 4.1-2.1 1.5-3.9 2.9-4.2 3.2s-1.7 1.4-3.1 2.5c-3 2.4 3.2-3.7 8.2-8 3.7-3.3 15-12.3 21.4-17.2 3.3-2.5 11.1-7.1 12.3-7.3.2 0 .1.4-.2.8M231 616.5c0 .3-.2.5-.5.5s-.5-.2-.5-.5.2-.5.5-.5.5.2.5.5m-2 2c0 .3-.2.5-.5.5s-.5-.2-.5-.5.2-.5.5-.5.5.2.5.5m-3 3c0 .3-.2.5-.5.5s-.5-.2-.5-.5.2-.5.5-.5.5.2.5.5m-4 2.9c0 .3-.5.8-1.2 1.2s-.8.3-.4-.4c.7-1.2 1.6-1.6 1.6-.8m-31 28.1c0 .3-.2.5-.5.5s-.5-.2-.5-.5.2-.5.5-.5.5.2.5.5m-13.6 13.7c-11.3 11.7-14.6 16.7-18.3 28.4-1 3.2-2.2 7.8-2.6 10.1-.4 2.4-1.1 4.3-1.7 4.3s-.8.7-.5 1.5c.7 1.7-.9 3-1.8 1.4-.4-.6-.2-1.6.4-2.2s1.1-2.9 1.1-5.1c0-4.4 5.7-18.4 10.3-25.1 2.5-3.7 22.5-24.5 23.5-24.5.3 0-4.4 5.1-10.4 11.2m-18 9.8c-2.5 4.9-5.2 8.3-8.7 11-2.7 2.2-5.3 4-5.7 4s-1-1-1.4-2.3c-.5-1.7.2-2.8 3.2-5.2 2-1.6 6.4-5.5 9.7-8.7s6.1-5.8 6.3-5.8-1.4 3.2-3.4 7m-5 12.7c-.9 3.8-3.6 6.5-5.7 5.7-.9-.3-1.7-1-1.7-1.4 0-.7 7-7 7.7-7 .2 0 0 1.2-.3 2.7"/><path d="M212.5 526.9c-.3.6-.1 1.1.4 1.1.7 0 1.1 2.7 1.1 6.9 0 6.9 0 6.9 3 7.6 4 .9 6.5-.1 7.8-2.9 1.7-3.7-.6-7.1-4.8-7.2-3.2 0-3.5-.3-3.5-2.9 0-3-2.6-4.7-4-2.6m9.5 10c0 3.7-2.4 5.9-4.5 4.1-2.9-2.4-1.1-7 2.7-7 1.3 0 1.8.8 1.8 2.9M448.5 459.2c-.3.8-.4 6.3-.3 12.4l.3 10.9 12.5.5c6.9.3 26.5.6 43.5.5h31l.3-11.6c.2-10.4.1-11.7-1.5-12.4-1-.4-20.6-1-43.5-1.2-36-.5-41.8-.4-42.3.9m69.2 1.8H533v21.1l-40.2-.6c-22.2-.4-40.9-.8-41.5-1-.9-.3-1.2-2.1-.9-5.7.2-2.9.5-7.5.5-10.2l.1-4.9 25.7.6c14.1.4 32.5.7 41 .7"/><path d="M458.2 463.7c-1.6 3.2-2.1 9.4-1 11.9 2.4 5.3 8 .7 5.8-4.7-.7-1.6-1.9-2.9-2.6-2.9-.8 0-1.4-.9-1.4-2 0-2.2 1.6-2.7 2.3-.8.2.7.7 1 1.1.7 1-1-.5-3.9-2-3.9-.7 0-1.7.8-2.2 1.7m3.3 9.3c0 1.3-.5 2.5-1.1 2.7-1.4.5-2.5-2.2-1.7-4.2.8-2.3 2.8-1.2 2.8 1.5M468.5 463c-.3.6-.8 3.7-1 7-.3 4.4 0 6.4 1.1 7.5 1.7 1.7 2.4 1.8 4.1.7 1.2-.8 1.6-10.7.6-14.5-.5-1.8-3.8-2.3-4.8-.7m3.5 3.5c0 1.4-.4 2.5-1 2.5-.5 0-1-1.1-1-2.5s.5-2.5 1-2.5c.6 0 1 1.1 1 2.5m.5 7.1c0 1-.8 2-1.7 2.2-1.8.3-2.6-2.7-1.1-4.2 1.2-1.1 2.8 0 2.8 2M490.1 464.2c-2 5.4-2.2 8.7-.6 11.7 1.8 3.6 3 3.9 4.6 1 1.8-3.5 2-8.8.4-11.9-1.8-3.6-3.2-3.8-4.4-.8m3.3 2.4c.9 2.3.7 6.7-.4 8.4-1.1 1.8-1.8 1.2-2.1-2-.6-6.6.9-10.5 2.5-6.4M500.9 463.6c-1.7 2.1-1.8 12.9-.1 14.6 1.9 1.9 4.6-.3 5-3.9.2-2.4-.3-3.6-2.4-5.2-2.2-1.8-2.5-2.4-1.4-3.4 1-.9 1.3-.9 1.7.1.3.6.9 1 1.4.6 1-.6-.7-4.4-2-4.4-.5 0-1.5.7-2.2 1.6m2.9 9.9c-.2 1.4-.7 2.6-1.3 2.6-.5 0-1.1-1.2-1.3-2.6-.2-1.8.1-2.5 1.3-2.5s1.5.7 1.3 2.5M520.7 462.7c-.9 1.8-.8 17.3.2 17.3 4.2 0 7.6-5.4 6.6-10.6-.8-4.4-5.5-9-6.8-6.7m4.1 3.5c1.5 1.5 1.6 6.3.2 8.9-1.9 3.5-3 2-3-4.1 0-6 .6-7 2.8-4.8M511.8 471c-.3 7.3-.1 8 1.6 8 1.2 0 1.6-.5 1.2-1.6-.3-.9-.6-4.5-.6-8 0-9.2-1.8-7.9-2.2 1.6M478 471c0 .5 1.6 1 3.5 1s3.5-.5 3.5-1c0-.6-1.6-1-3.5-1s-3.5.4-3.5 1M379.9 483.2c0 9.5-.2 18.8-.3 20.6-.4 3.7.9 5.3 1.7 1.9.3-1.2.6-9.8.7-19.2 0-9.3.3-17.1.5-17.3.2-.3 3.9 1.7 8.2 4.3s12.5 7.5 18.2 10.9c5.7 3.3 11.8 7 13.6 8.1s7.4 4.5 12.4 7.5l9.2 5.5-.3 13.7c-.3 13.7-.3 13.7-3.4 14.2-1.7.4-4.2 1.9-5.6 3.4-7 7.2-4.4 19.1 4.8 22.4 2.6.9 3.4 1.8 3.7 4.2.4 3.1.4 3.1.5 0 .2-2.6.7-3.3 3-3.7 4.3-.9 7.9-4.3 9.5-9 2.4-7.2-1-14.5-8-16.8-3.5-1.1-3.5-1.1-2.9-10.8.3-5.3.6-11.1.6-13 0-3.3 0-3.3 2.4-1.7 1.4.8 4 2.4 5.8 3.4 1.8 1.1 7.8 4.6 13.3 7.9 5.5 3.2 12.6 7.4 15.9 9.2l5.8 3.4-.7 15.6c-.4 8.6-.8 15.7-1 15.9s-1.6-.3-3.2-1.2c-2.8-1.4-3.2-1.3-9.7 2.2-3.8 2.1-6.9 4.2-7 4.7-.1.9 9.6 7.2 17.5 11.5 3.6 1.9 3.6 1.9 10.3-1.6 6.9-3.7 8-5.6 4.5-7.5-2.6-1.3-2.2-1.7 6.9-6.5 3.9-2 7.2-4.1 7.2-4.6 0-1.2-.8-1-3.5.8-2 1.3-2.8 1.4-4 .4-1.3-1-2.3-.6-6 2.9-5.1 4.7-5.5 4.8-8.5 2.3-2.2-1.8-2.2-2.1-1.5-17.5.4-8.6.9-15.7 1.1-15.7.3 0 3.7 2 7.7 4.4 4 2.5 9 5.2 11 6.2s3.7 2.1 3.7 2.6c0 .4.5.8 1 .8.6 0 6.5 3.3 13.3 7.4 6.7 4 14 8.2 16.1 9.3l3.9 2-.2 28.9c-.3 33.7-1.5 70.1-2.3 71-.4.3-1.9-.2-3.4-1.2-2.1-1.4-2.6-1.5-2.2-.4.2.8 2.3 2.6 4.6 4 4.2 2.6 12.9 8.4 14.7 9.7 5.3 4.1 22.5 15.1 22.5 14.3 0-1.2-6.9-6.2-22.4-16.5l-11.9-7.8.7-15.6c.3-8.6.9-30.8 1.2-49.4.4-18.6 1-34 1.4-34.2s3.6 1.3 7.1 3.4 9.7 5.8 13.8 8.2 9.3 5.5 11.6 6.9 7.1 4.3 10.8 6.5l6.7 4V611c0 12.6 0 12.6-3.5 13.8-3.8 1.5-8.2 6.1-9.1 9.9-1.5 5.9 3.8 14.5 9.7 15.8 2.5.6 2.9 1.1 2.9 4.1 0 2.1.4 3.3 1 2.9.6-.3 1-1.8 1-3.3 0-2.2.9-3.1 4.1-4.6 7.1-3.2 9.8-10.8 6.4-17.9-1.6-3.4-7.1-7.7-9.8-7.7-1.5 0-1.6-1.5-1.4-13.2l.2-13.3-32-19.3c-17.6-10.6-32.9-19.7-34-20.1-1.1-.5-3.7-2.1-5.8-3.5s-4-2.6-4.2-2.6c-.3 0-5-2.7-10.6-6-5.5-3.3-10.3-6-10.6-6-.2 0-2.3-1.3-4.6-2.8s-5.5-3.4-7.1-4.2c-2.9-1.5-2.9-1.5-2.3-24.2.4-12.6.3-22.8-.2-22.8-.4 0-1.1 9.5-1.4 21.2-.4 11.6-1 21.4-1.3 21.7s-2-.3-3.7-1.3c-6.6-3.9-10.3-5.9-12.2-7-2.1-1.2-27.2-16.3-41.9-25.2-4.9-3-9.3-5.4-9.7-5.4-.5 0-.9-.5-.9-1 0-.6-.5-1-1-1-.6 0-6.3-3.2-12.8-7.1-6.4-3.9-13-7.9-14.7-8.9-1.6-.9-4.6-2.7-6.5-3.8-1.9-1.2-3.8-2.2-4.2-2.2-.5 0-.8 7.8-.9 17.2m72.4 55.9c2.1 2.3 2.7 3.9 2.7 7.3 0 10.6-12.7 15.5-19.4 7.5-3.6-4.3-4.2-7.3-2.1-11.8 3.3-7.5 13.1-9 18.8-3m29.7 24.8c0 1.4-4.7 4.1-8.3 4.7-2.8.4-2.5.1 2.3-2.5 6.4-3.5 6-3.3 6-2.2m8.6 6.3c5.3 2.9 5.5 3.2 3.8 4.5-1.7 1.2-2 1.2-2.4-.7-.3-1.1-2.3-3.1-4.5-4.5-5.8-3.5-3.5-3.1 3.1.7m-11 2.5c.7.7 1.6 1.3 2.1 1.3 1.3.1 5.9 4 4.6 4-1.5 0-11.3-6.1-11.3-7.1 0-1.2 2.5-1.7 2.9-.5.2.6 1 1.6 1.7 2.3m1.4-3.2c0 .3-.2.5-.5.5s-.5-.2-.5-.5.2-.5.5-.5.5.2.5.5m3 0c0 .3-.2.5-.5.5s-.5-.2-.5-.5.2-.5.5-.5.5.2.5.5m2.5 1.5c.3.5.4 1 .1 1s-.8-.5-1.1-1c-.3-.6-.4-1-.1-1s.8.4 1.1 1m-1 2.8c-.3.3-1.1 0-1.8-.7-.9-1-.8-1.1.6-.5 1 .3 1.5.9 1.2 1.2m4-.8c.3.5.1 1-.4 1-.6 0-1.1-.5-1.1-1 0-.6.2-1 .4-1 .3 0 .8.4 1.1 1m-.5 2.5c0 .3-.2.5-.5.5s-.5-.2-.5-.5.2-.5.5-.5.5.2.5.5m8 1c0 .5-7.5 4.5-8.5 4.5-1.5 0 .9-2.2 3.8-3.4 3.5-1.6 4.7-1.8 4.7-1.1M607.8 628c3.6 2.2 5.2 5.4 5.2 10.7 0 5-5.4 10.3-10.4 10.3-13 0-17.3-15.3-6.1-21.8 3-1.7 7.6-1.4 11.3.8"/><path d="M442.2 541c-6.1 2.5-4.5 11 2.2 11 2.2 0 3.6-.6 4-1.6.9-2.4.7-2.9-.6-1.6-.7.7-2.3 1.2-3.6 1.2-2.1 0-2.3-.4-2-3.7.3-4.1 2.6-5.7 3.5-2.4.6 2.5 2.1 2.7 3 .5.4-1.1-.1-2.2-1.2-3-2.1-1.6-2.2-1.6-5.3-.4M598.9 632.4c-1.2.6-2.4 1.7-2.7 2.3-.5 1.8 2.5 1.6 3.6-.2.5-1 1.5-1.3 2.5-.9 2.6 1 2 2-2.3 3.7-4 1.5-5.1 3.6-2.7 5.4 1.7 1.4 10 1 10.5-.5.2-.7-.1-1.2-.7-1.2-.7 0-1.1-1.4-.9-3.3.1-1.8-.1-3.8-.5-4.4-1.1-1.7-4.3-2.2-6.8-.9m5.1 6.5c0 .5-.7 1.4-1.5 2.1-1.8 1.5-4.2-.1-3.1-1.9.8-1.3 4.6-1.5 4.6-.2M558.6 505.5c-.9 4.5-.1 5.8 2.5 4.4 3.7-1.9 6.6 2.4 3.4 5.1-1.3 1-1.9.9-3.5-.5-2.3-2.1-3.9-1.2-2.4 1.3 1.5 2.3 6.7 2.7 8.4.7 3.1-3.7 0-10.3-4.3-9.1-1.3.3-1.7 0-1.5-1.2.2-1.1 1.5-1.8 3.6-2 4.8-.5 3.9-2.2-1.2-2.2-4.2 0-4.4.1-5 3.5M576 502.9c0 .5-.9 1.3-2 1.6-2.6.8-2.6 2.5 0 3.2 1.6.4 1.9 1.3 1.7 5.2-.1 3.5.1 4.6 1.3 4.6s1.6-1.7 1.8-7.8c.2-6.4 0-7.7-1.3-7.7-.8 0-1.5.4-1.5.9M585 504.5c-1.8 3.4-.3 4.5 2 1.5 1.8-2.4 2-2.4 3.7-.7 1.7 1.8 1.6 2-2.4 5.6-6 5.1-5.7 7.1.7 7.1 2.8 0 5-.5 5-1 0-.6-1.3-1-3-1-1.6 0-3-.4-3-.9s1.4-1.9 3-3.1c5-3.6 3.7-10-2-10-1.8 0-3.1.8-4 2.5M598.6 503.2c-.2.7-.7 2.8-1 4.6-.6 3.3-.5 3.3 2.8 2.7 3.5-.7 5.1.9 4 4-.7 1.7-4 2-4.9.5-.8-1.3-3.5-1.3-3.5 0 0 .5 1.1 1.7 2.5 2.6 3.2 2.1 6.8 1.2 8.4-2.2 1.6-3.5-.8-7.4-4.5-7.4-3.5 0-2.6-2.4 1.2-3 4.1-.7 3.6-2.4-.9-2.8-2.4-.2-3.9.1-4.1 1M534.7 504.7c-3.2.5-5.1 4.1-3.9 7.4.7 1.7 1.8 2.1 6.5 2.5 5.7.4 8.7-1 8.7-4.1 0-.8 1.2-1.5 2.7-1.7 3.8-.4 3.9-2.4.2-3.7-3.1-1.1-8.6-1.2-14.2-.4m14.8 2.5c.7.7.3.9-1.3.5-2-.5-2.6 0-3.8 2.9-1.5 3.7-2.9 4.1-8.1 2.2-4.5-1.6-4.6-5.1 0-6.6 3.6-1.2 11.7-.6 13.2 1M375 510.9c-6.3 3.3-9 11-6.2 17.7 1.3 3 7 7.4 9.7 7.4q1.5 0 1.5 3c0 1.6.5 3 1 3 .6 0 1-1.2 1-2.8 0-2.2.7-3 4-4.4 4.7-2 8-6.9 8-12.1 0-7.6-6.3-13.7-14.4-13.7-.6 0-2.7.8-4.6 1.9m14.1 4.2c2.4 2.5 2.9 4 2.9 7.9 0 4.2-.4 5.2-3.5 7.9-4.9 4.3-10.9 4.4-15.4.2-2.7-2.5-3.1-3.6-3.1-7.9 0-4 .6-5.7 2.6-8.1 2.3-2.8 3.2-3.1 8.1-3.1s5.8.4 8.4 3.1"/><path d="M377.1 517.9c-.9.6-1.1 1.6-.6 2.7.6 1.8.8 1.7 1.6-.4 1-2.6 3.9-3 3.9-.4 0 1.2-1.1 2.1-3.2 2.7-2.3.7-3.3 1.6-3.3 3 0 1.7.8 2 5.7 2.3 5.6.3 5.6.3 5.1-4-.3-2.4-1-4.9-1.6-5.6-1.1-1.4-5.5-1.6-7.6-.3m4.9 6.5c0 2.1-2 3-3.3 1.7-.9-.9-.8-1.4.3-2.1 2.1-1.4 3-1.2 3 .4M572.1 520.5c-.5 1.6-.7 3.8-.9 7.1-.2 2.5-.8 3.4-3.2 4.4-1.7.7-2.8 1.5-2.6 1.8 1.1 1.1 6.7-2.2 7.2-4.3s0-11-.5-9M557.6 537.5c-2.5 1.9-.9 1.9 2.4 0 1.4-.8 1.9-1.4 1-1.4-.8 0-2.4.6-3.4 1.4M549.8 541.4c-2.8 2.1-2.1 2.6 1.2 1 1.7-.9 3-1.7 3-2 0-.9-2.6-.3-4.2 1M540.4 546.5c-1 .8-1.4 1.5-.8 1.5.5 0 1.9-.7 3-1.5 1-.8 1.4-1.5.8-1.5-.5 0-1.9.7-3 1.5M240 547.9c0 .5.6 1.1 1.3 1.4s-.1 1.6-2.3 3.5c-4.1 3.7-2.1 4.3 2.1.7 1.6-1.3 3.6-2.2 4.4-1.9 2.6 1.1 1.6-1.1-1.4-2.9-3.3-1.9-4.1-2.1-4.1-.8M380 551.6c0 2.7.4 4.3 1 3.9.6-.3 1-2.4 1-4.6 0-2.1-.4-3.9-1-3.9-.5 0-1 2.1-1 4.6M532.4 550.5c-1.6 1.2-1.6 1.4-.3 1.5.9 0 2.2-.7 2.9-1.5 1.6-1.9 0-1.9-2.6 0M251.5 555c.9 1.5 6.5 4.2 6.5 3.1 0-1-4.5-4.1-6-4.1-.6 0-.8.5-.5 1M518.8 557.1c-2.8 1.6-2.1 3 .7 1.7 1.4-.6 2.5-1.5 2.5-2 0-1.1-1.1-1-3.2.3M227.3 562.9c-3.2 2.7-4.1 4.1-2.5 4.1.9 0 7.2-5.6 7.2-6.4 0-1.2-1.6-.5-4.7 2.3M262 560.8c0 1.3 2.3 3.2 3.9 3.2 1.1 0 1-.4-.4-2-1.9-2.1-3.5-2.6-3.5-1.2M380 563v3.5c0 .3.3.4.7.2 1.1-.3 1.2-6.7.1-6.7-.4 0-.8 1.3-.8 3M258.5 569.2c-2.2 1.8-4.2 3.5-4.5 3.8s-3 2.5-6 5-5.7 4.7-6 5-4.8 4.3-10 9c-12.6 11.3-16.3 15-15.6 15.7.4.4 13.5-10.9 23.1-20.2 1.2-1.2 7.2-6.1 13.3-11 6.2-4.9 11.2-9.3 11.2-9.7 0-1.5-1.5-.8-5.5 2.4M442.8 569.6c-.4.5-.3 3.2.1 6 .5 2.7.9 3.9 1 2.6.1-2.4 1.1-2.8 2.9-1 .6.6 1.5.9 1.8.5.4-.4-.5-1.6-1.9-2.7s-2.7-3-2.9-4.3c-.2-1.2-.6-1.7-1-1.1M215.1 573.6c-4.6 4.5-3.5 5.2 1.3 1 2.2-1.8 3.5-3.5 3-3.8s-2.4 1-4.3 2.8M379.7 572.7c-1.1 1-.8 7.1.3 7.8.6.4 1-1.2 1-3.9 0-4.7-.2-5.1-1.3-3.9M384.6 572.9c.5.5 8.3 4.9 17.4 9.8 18.7 10.1 21.1 11.5 30.5 17.2 7.3 4.5 7.5 4.5 7.5 3.2 0-.9-2-2.1-14-8.9-1.9-1.1-7.5-4.3-12.3-7.1-4.9-2.8-9.1-5.1-9.3-5.1-.3 0-4.6-2.3-9.6-5-8.4-4.6-12.6-6.3-10.2-4.1M384.2 577c.4 1.3 8.2 6.3 20.8 13.2 13.1 7.3 28.7 16.3 31.3 18.1 1.6 1 3.1 1.6 3.5 1.2s0-1.1-.8-1.7c-5.9-3.5-20.2-11.8-20.5-11.8-.2 0-2.8-1.4-5.7-3.1-7.2-4.3-11.3-6.7-17.8-10.2-3-1.7-6.8-3.9-8.4-5-1.9-1.4-2.7-1.6-2.4-.7M450 578.8c0 1.1 6.9 4.6 7.6 3.9.4-.3-.9-1.5-2.7-2.6-3.6-2.2-4.9-2.6-4.9-1.3M375.2 581.6c-1.1 1.2-1.1 1.8-.2 2.9.7.8 1.7 1.5 2.2 1.5.6 0 .4-.7-.3-1.7-1.1-1.3-1.1-1.7-.1-2 1.3-.5 1.7-2.3.5-2.3-.5.1-1.4.8-2.1 1.6M203 584c-1.9 1.6-3.2 3.2-2.8 3.5.4.4 2.2-.7 4-2.3 4.2-4 3.3-4.9-1.2-1.2M384.5 581.7c3.1.8 10.6 6.3 10 7.4-.9 1.4-5.2 1.1-8.5-.6-2.9-1.5-3-1.5-3 .9 0 2.9 4.1 4.9 9.1 4.4 3-.3 3.4-.7 3.7-3.5s-.3-3.6-3.9-6.3c-2.4-1.7-5.3-2.9-6.8-2.9-2.1.1-2.2.2-.6.6m4 9.3c1.9.8 1.9.9-.2.9-1.2.1-2.5-.4-2.8-.9-.7-1.2.2-1.2 3 0m4.2 1.7c-.4.3-1 .3-1.4 0-.3-.4 0-.7.7-.7s1 .3.7.7M442.8 586c-.3 1.7-.1 3.3.4 3.6.4.3.8-1.1.8-3 0-4.4-.6-4.7-1.2-.6M379 588.5c0 1.9.5 3.5 1 3.5.6 0 1-1.6 1-3.5s-.4-3.5-1-3.5c-.5 0-1 1.6-1 3.5"/><path d="M357.5 588.7c.4 1.6.7 2.8.8 2.9 6.9 3.5 33.4 17.4 39.2 20.4 23.6 12.5 27.6 14.7 44.5 24.8 6.9 4.2 14.9 8.9 17.9 10.5 2.9 1.6 8.9 5.1 13.3 7.8s8.1 4.9 8.4 4.9c.2 0 3.8 2.2 8 5 4.1 2.7 7.8 5 8 5 .5 0 38.7 25.4 40.9 27.2 6.1 4.9 31 21.8 33.5 22.7q6.6 2.25 11.4-.3c2.1-1 3.4-1.1 5.5-.3 2.4.9 3.4.7 6.5-1.2 5.5-3.4 6.6-4.9 6.6-8.6 0-2.4-.6-3.8-1.9-4.5-1.1-.5-2.6-1.6-3.3-2.2-3.1-3-8-5.9-8.6-5.3-.4.4.2 1.3 1.3 2 7.2 5 10.5 8 10.5 9.6 0 2.4-.9 2.4-4-.2-5.4-4.3-10.3-7-11.8-6.4-1.2.5-1 1.1 1.3 3.5 3.7 3.9 2.4 5.7-2.6 3.6-2.8-1.1-3.6-1.2-4.6-.1-1 1-.9 1.5 0 2.4 2.2 1.7 6.6 3.1 8.3 2.4 2.1-.8 3.4-4.4 2.2-6.6-1.3-2.5-.4-2.2 5.3 2 5.1 3.6 5.1 3.6 2.8 5.5-3.2 2.4-6.4 3.2-8.5 2-1.3-.7-2.7-.6-4.8.5-1.6.8-3.1 1.1-3.5.6-.3-.4-1.5-1.5-2.5-2.3-1.8-1.4-1.8-1.3-1.2.8.6 1.9.4 2.2-1.9 2.2s-2.6-.4-2.2-2.1c.3-1.2 0-2.2-.9-2.6-.8-.3-1.3-1.2-1-1.9.6-1.4-3.6-4.9-17.6-14.6-22.8-15.8-26.4-18.3-27.3-19-.5-.5-3.2-2.3-6-4.1-2.7-1.7-5.4-3.5-6-4-5.2-4.1-40.2-25.8-51.5-32-3-1.7-6.6-3.8-8-4.7s-5-3.1-8-4.7c-3-1.7-8.9-5-13-7.3s-10.4-5.8-14-7.8c-3.6-1.9-8.5-4.7-11-6.2-5.1-3.1-23.8-13-24.6-13-1.2 0 .9 2 3.4 3.3 1.5.7 4.7 2.5 7.2 3.9s8.6 4.6 13.5 7.3c5 2.6 9.5 5.1 10 5.5.6.4 3.5 2.1 6.5 3.7 4.8 2.6 9.7 5.5 27 15.6 1.9 1.1 6 3.4 9 5.1 3 1.6 5.7 3.2 6 3.6s1.2.9 2 1.3 3.3 1.8 5.5 3.2c2.2 1.3 5.8 3.4 8 4.6s9.9 6.2 17.2 11c7.3 4.9 13.7 8.9 14.3 8.9.5 0 1 .4 1 .8 0 .5 1.2 1.4 2.6 2.1 1.5.6 2.4 1.4 2.1 1.8-.4.3-5.1-2.3-10.4-5.7-14.4-9.4-19-12.2-27.3-17.2-7.2-4.4-10-5.9-24-13.8-3.6-2-7.6-4.3-9-5.2-2.9-1.9-23.4-13.4-33-18.6-24.3-13-32.4-17.7-34.7-19.8-1.4-1.3-2.9-2.1-3.4-1.8-.9.5-6.9-2.3-6.9-3.2 0-.4 1.5-.3 3.3 0 2.8.5 3.2.3 3.3-1.8.2-2.3.2-2.3-4.8-.9-4.6 1.4-5.2 1.3-9.3-.6-5.7-2.7-5.9-2.6-5 .6m14.5 5.9c4.7 2.5 10.3 5.5 12.5 6.7 2.2 1.3 9.2 5.1 15.5 8.4 6.3 3.4 14.8 8 18.9 10.2 4.1 2.3 7.5 4.1 7.6 4.1.2 0 3.4 1.9 7.1 4.2 3.8 2.3 17 9.9 29.2 17 12.3 7 23.7 13.7 25.2 14.8s3.1 2 3.4 2c1.2 0 47.4 30.7 53.1 35.2.6.5 6.5 4.7 13.3 9.4 10.4 7.3 13.9 10.4 11.7 10.4-.2 0-4.4-2.9-9.2-6.3-19.7-14.2-39.3-27.6-53.8-36.9-4.9-3.2-9.4-6.1-10-6.5-.9-.8-11.4-7.3-18.6-11.6-1.6-.9-4.4-2.6-6.1-3.6-1.8-1.1-6.4-3.8-10.3-6-13.8-8-17.1-9.9-25.7-14.9-10.9-6.3-28.5-15.9-48.8-26.4-20.1-10.5-26.5-14-27.5-15-1.8-1.8 3.6.3 12.5 4.8m157.5 89c5.2 3.6 9.8 7 10.1 7.6.4.6-4.1-2.2-10-6.2-5.8-4-10.6-7.4-10.6-7.6 0-.9 1.6 0 10.5 6.2m18.8 13.2c4.2 3 6.6 5.5 3.5 3.6s-10.8-7.6-10.8-8.1 1.4.3 7.3 4.5m15.3 11.4c.4.6-1.4-.4-4-2.2-6.2-4.5-7.3-6.3-1.3-2.1 2.5 1.7 4.9 3.7 5.3 4.3m2.9 1.8c.3.5.4 1 .1 1s-.8-.5-1.1-1c-.3-.6-.4-1-.1-1s.8.4 1.1 1m17.5 2.5c0 .3-.2.5-.5.5s-.5-.2-.5-.5.2-.5.5-.5.5.2.5.5M463 586.8c0 1.2 6 4.5 6.8 3.7.4-.3-.4-1.5-1.8-2.5-2.6-2-5-2.6-5-1.2M488 587.6c0 .8.5 1.2 1 .9.6-.3 1-1 1-1.6 0-.5-.4-.9-1-.9-.5 0-1 .7-1 1.6M399.2 590.9c-.8.5-1.2 2.1-1 3.7.3 2.5.7 2.9 3.3 2.9 2.4 0 3.1-.5 3.3-2.3.6-3.9-2.5-6.3-5.6-4.3m4.3 2.1c-.3.5-1.3 1-2.1 1s-1.4-.5-1.4-1c0-.6.9-1 2.1-1 1.1 0 1.7.4 1.4 1m-.8 3.6c-.3.3-1.2.4-1.9.1-.8-.3-.5-.6.6-.6 1.1-.1 1.7.2 1.3.5M194.7 591.7c-1.4 1.3-.7 8.1.8 8.7 1.7.6 2.1-.9.4-2-.6-.4-.8-2-.4-4 .6-3.4.4-4-.8-2.7M488.2 593.5c0 1.6.2 2.2.5 1.2.2-.9.2-2.3 0-3-.3-.6-.5.1-.5 1.8M475 594c0 1.2 5.8 4.2 7.2 3.8.7-.3-.4-1.4-2.4-2.6-3.9-2.4-4.8-2.7-4.8-1.2M442.7 594.7c-1.1 1-.8 7.3.3 7.3.6 0 1-1.8 1-4 0-4.1-.2-4.5-1.3-3.3M487.7 601c-.3 1.1-.1 2.3.4 2.6s.9-.6.9-2c0-3.1-.6-3.4-1.3-.6M202.5 605.5c3.2 2.6 4.5 3.1 4.5 1.6 0-1.1-4.5-4.1-6.2-4.1-.7.1.1 1.2 1.7 2.5M493.4 605.5c2.2 1.7 3.6 1.9 3.6.6 0-1-2.4-2.1-4.3-2.1-.7 0-.3.7.7 1.5M442 608.1c0 1.7-.7 3.7-1.5 4.5-1.9 2-1.9 2.7.3 5.5 2.2 2.6 4.8 2.1 6-1.1.7-2 1-1.9 6.6 1.5 3.2 1.9 6 3.5 6.3 3.5.2 0 2.4 1.3 4.8 3 2.4 1.6 4.6 3 4.9 3s5.6 3 11.7 6.7c6.2 3.8 12.7 7.7 14.6 8.8 1.8 1.1 10.8 6.9 19.9 12.8 9.1 6 16.9 10.5 17.2 10.2.8-.8-3.8-4.4-5.5-4.5-.6 0-1.3-.3-1.5-.8-.3-.6-25.1-16.8-34-22.1-2.1-1.3-3.8-2.9-3.8-3.7s.2-1.4.5-1.4c.5 0 21.5 13 33.2 20.6 4.6 3 8.7 5.4 9.3 5.4 1.9 0 1-1.7-1.5-2.8-1.4-.7-3.1-1.7-3.8-2.2-.7-.6-7.7-5.1-15.7-10s-17.2-10.6-20.5-12.7c-21.1-13.3-40.6-24.4-41.8-24-.6.2.5 1.2 2.4 2.4 1.9 1.1 10.2 6 18.4 10.9 16.2 9.6 18.5 11.2 18.5 13 0 .7-3.7-.9-8.2-3.6-4.6-2.6-14.1-8.1-21.3-12.3-11.9-6.8-13-7.8-13.3-10.6-.4-4-2.2-4-2.2 0m2.8 5.7c.2.7-.3 1.2-1.2 1.2s-1.6-.7-1.6-1.6c0-1.7 2.2-1.4 2.8.4m-.8 3.2c0 .5-.4 1-1 1-.5 0-1-.5-1-1 0-.6.5-1 1-1 .6 0 1 .4 1 1M487 609.5c0 1.4.5 2.5 1 2.5.6 0 1-1.1 1-2.5s-.4-2.5-1-2.5c-.5 0-1 1.1-1 2.5M502 610.4c0 .5 6.5 4.6 7.4 4.6 1.6 0 .3-1.7-2.5-3.3-2.9-1.6-4.9-2.2-4.9-1.3M487 617.5c0 1.4.5 2.5 1 2.5.6 0 1-1.1 1-2.5s-.4-2.5-1-2.5c-.5 0-1 1.1-1 2.5M516 618.8c0 1 7.1 4.5 7.7 3.8.5-.5-5.6-4.6-6.9-4.6-.5 0-.8.4-.8.8M487.2 626c0 1.4.2 1.9.5 1.2.2-.6.2-1.8 0-2.5-.3-.6-.5-.1-.5 1.3M529 625.9c0 .6 1.1 1.7 2.5 2.3s3.5 2.7 4.6 4.5c1.2 1.9 2.4 3.2 2.6 2.9.3-.3-.3-1.9-1.3-3.6-2-3.4-8.4-8-8.4-6.1M617.1 636.6c0 1.1.3 1.4.6.6.3-.7.2-1.6-.1-1.9-.3-.4-.6.2-.5 1.3"/><path d="M477.3 638.7c-4 2-4.1 2.6-.5 4.4 1.5.7 5.3 3 8.4 5.1 6.3 4.2 6.6 4.3 10.3 2.6 2.9-1.3 3.3-3.6.8-4.5-.9-.4-4.6-2.6-8.2-5-3.6-2.3-6.8-4.3-7.1-4.2-.3 0-2 .8-3.7 1.6m11.6 5.4c4.5 2.8 6.1 4.3 5.3 5.1-.7.7-3.3-.2-8.6-3.3-4.1-2.4-7.5-4.7-7.6-5.2-.1-1.9 5.1-.3 10.9 3.4M536 646.5c0 3.5.4 5.4 1 5 .6-.3 1-2.6 1-5s-.4-4.7-1-5c-.6-.4-1 1.5-1 5M535.6 659.3c-.5.9-.5 2.9 0 4.5.7 2.5.8 2.6 1.1.4.3-1.2.3-3.2 0-4.5-.3-1.9-.4-2-1.1-.4M601 663.7c0 1-.3 2.9-.6 4.3-.5 1.7-.3 2.2.4 1.5 1.5-1.5 2.6-7.5 1.3-7.5-.6 0-1.1.8-1.1 1.7M533 669.5c-1 1.2-1 2.1-.2 4 1.4 2.9 5.6 3.4 7 .8.9-1.4 2.8-.5 14.3 7.3 7.4 4.9 13.6 9.2 13.7 9.6.2.5 1 .8 1.8.8 2.1 0 1.7 1.4-.8 2.5-3.1 1.4-3.5 4.9-.7 6.9 3.1 2.1 5.9.5 5.9-3.5 0-2.9 0-2.9 2.5-1.3 1.4.9 2.8 1.4 3.2 1 .8-.8 2.9.8-18.7-13.6-10.2-6.7-19.6-13.1-20.9-14.1-2.9-2.3-5.4-2.4-7.1-.4m5 1.5c0 .5-.6 1-1.4 1s-1.8-.5-2.1-1c-.3-.6.3-1 1.4-1 1.2 0 2.1.4 2.1 1m34 26c0 .5-.7 1-1.5 1s-1.5-.5-1.5-1c0-.6.7-1 1.5-1s1.5.4 1.5 1m0 3.6c0 .2-.7.4-1.5.4s-1.5-.4-1.5-1c0-.5.7-.7 1.5-.4.8.4 1.5.8 1.5 1M594.6 677.6c-1 1.4-1.6 2.9-1.4 3.4s1.3-.6 2.6-2.5c1.2-1.9 1.8-3.5 1.3-3.5s-1.6 1.2-2.5 2.6M588.2 687.6c-1.3 2-2.2 4-1.9 4.7.2.6 1.3-.6 2.6-2.6 3-4.8 2.3-6.7-.7-2.1M581.4 698.4c-.9 1.5-1.4 2.9-1.1 3.2s1.3-.6 2.3-2c.9-1.5 1.4-2.9 1.1-3.2s-1.3.6-2.3 2M574.7 701.7c-.9.9-.9 3.3.1 3.3.4 0 1.3-.9 2-2 1-1.6 1-2-.1-2-.8 0-1.7.3-2 .7M576.5 706c-.5.8-1.5 2.5-2.3 3.7-.8 1.3-1 2.3-.4 2.3 1.3 0 4.4-4.9 3.9-6.3q-.3-1.05-1.2.3M648 760.7c-3.3 1.2-5.1 3.7-4.6 6.2.8 3.8-1.4 5.9-6.3 6.3-3.5.2-4.6.8-5.9 3.2-1.5 2.5-1.5 2.9-.2 3.4.8.3 4.1 3.1 7.2 6.2 8 8 8.3 11.1 3.2 26.8-3.4 10.6-12.1 34.7-14.3 39.7-.5 1.1-1.5 3.6-2.2 5.5s-2.3 5.8-3.5 8.5c-1.2 2.8-3.2 7.5-4.4 10.4-3.2 8.2-6.5 15.5-18.2 40-6.8 14.3-12.3 20.5-22.3 25.3-4 1.9-6.7 3.8-7.4 5.5-.6 1.4-.9 2.8-.6 3.1s3.3.5 6.8.5c6.5-.1 17.6-3.2 23.5-6.5 3.9-2.2 4.2-2.2 4.2-.3 0 1.2 5.8 5.2 6.4 4.3.1-.2.6-1.7 1.2-3.3.7-2.3 1.6-3 3.4-3 2.8 0 4.8-3.6 19-34.5 3.9-8.5 7.5-16.2 7.9-17 .7-1.3 8.1-1.5 56-1.8l55.1-.2v-34h3.5c1.9 0 3.5-.5 3.5-1 0-.6-1.6-1-3.5-1H752v-34h-11.5c-11.5 0-11.5 0-12.1-2.8-1.1-4.4-3.3-7-7.9-9.2-5.8-2.8-11.1-1.5-15.5 3.8-2.8 3.3-3.1 4.2-2.7 9 .3 4.9.2 5.5-2 6.5-2.6 1.2-3.2 3.3-.5 2.2 3.2-1.4 6.2-1.7 6.2-.7 0 1.8 7.6 4.1 11.5 3.5s10.5-6.2 10.5-8.8c0-1.2 2-1.5 11-1.5h11v66h-53.5c-53.5 0-53.5 0-52.9-2.8.4-1.5 1.2-3.8 1.9-5.2 1.9-3.7 8.5-20.3 8.5-21.2 0-.4-.4-.8-1-.8-.5 0-1 .7-1 1.5s-.4 2.3-.9 3.3c-.5.9-1.3 2.8-1.9 4.2s-2.9 6.9-5.1 12.3c-2.3 5.4-4.1 10-4.1 10.2 0 1.3-24.2 52.5-24.8 52.5-1.2 0-4.2-2.2-4.2-3.1 0-.6 3.6-8.5 8-17.6 4.5-9 8.9-18.6 10-21.1 1-2.6 4.8-11.4 8.4-19.7 3.6-8.2 6.6-15.3 6.6-15.7 0-2.2-1.8-.3-3.2 3.4-2.6 6.7-7.2 17.7-10.2 24.1-1.4 3.2-2.6 6-2.6 6.2 0 .5-17.3 36.8-18.9 39.5-.5.9-.4 2.2.3 3.3.8 1.2.8 2.2 0 3.4-1.7 2.7-3.9 2.2-3.9-.9 0-1.5-.3-2.8-.7-2.7-.4 0-3.7 1.4-7.3 3-8.4 4-15.7 5.9-22.5 5.9-4.7 0-5.2-.2-4-1.4.8-.8 5.7-2.6 10.9-4.1 5.2-1.4 10.6-3.2 12-4 4.5-2.3 9-7.9 12.6-15.4 3.1-6.4 3.7-7.2 5.1-6 1.4 1.1 1.8 1 3-.6 1.6-2.2 1.9-5.5.4-5.5-1.8 0-1.1-2.9 3-11.6 2.2-4.7 4-8.8 4-9s.9-2.3 2-4.7c1.1-2.3 3.5-8 5.4-12.7 2.8-7.2 3.7-8.5 5.7-8.6 4.5-.2 4.9-.4 4.9-2.2 0-1 1.6-2.5 4-3.6 2.2-1.1 4-2.3 4-2.8 0-1.2-.6-1-5.2 1.3-3.6 1.9-4.2 1.9-5.6.6-1.3-1.4-1.3-1.9.1-4.9 1.5-3.1 3.3-8.1 8-21.1 1.1-3.2 2.8-6.2 3.8-6.7 1.1-.6 1.5-1.7 1.2-2.9-.4-1.6 1.5-8.3 6.3-22 .3-1.1.8-1 2.4.4 1.6 1.5 2.2 1.5 3.5.5.8-.7 1.5-2.1 1.5-3.1 0-1.1.6-1.9 1.3-1.9 2.3 0 6.7-2.5 6.7-3.8 0-1.7-.5-1.6-5 1.3-2.3 1.4-4.2 2.1-4.5 1.5s-1.7-1-3.1-1q-2.4 0-2.4-1.8c0-3-5.7-11.8-10-15.4-2.8-2.4-3.8-4-3.4-5.2.8-2.1 1.2-2 5.3.5 4.3 2.6 12.1 3.6 16.1 1.9 2.8-1.2 3.3-1.1 5.6 1.1 1.4 1.3 3.1 3.3 3.6 4.4 1.7 3.1 2.7 8.5 1.7 9.1-.5.3-.9.9-.9 1.4 0 1.3 3.2.1 6-2.1 2.5-2.1 2.5-2.1-.2-1.5-2.8.6-2.8.6-1.1-2.8 1.5-3.2 1.5-3.8-.1-7.8-2-5.2-5-8.7-10.4-12.3-3.3-2.1-4.4-2.5-6.1-1.6q-4.5 2.4-9.6-.9c-3.2-2.1-3.2-2.1-5.5-1.3m6.1 3.9c2.3 1.1 4.4 1.4 8.5.8 5.9-.7 7.5.8 2.8 2.6-5.7 2.2-17-.1-18.2-3.8-.5-1.7 3.3-1.5 6.9.4m-3.9 4.4c3.6 2.2 11.6 2.7 14.9 1 1.5-.8 1.9-.7 1.9.4 0 2.1-3.2 3.6-7.7 3.6-4 0-14.3-4.4-14.3-6.1 0-1.4 1.7-1.1 5.2 1.1m25.1 3.2c2.9 3.6 5 11.8 2.9 11.8-.5 0-1.2-1-1.6-2.3-.3-1.3-2.1-4-4.1-6-3.4-3.5-4.2-5.6-2.8-7.1 1.1-1.1 2.5-.2 5.6 3.6m-29 7.8c6.4 5.8 8.7 10.1 8.7 16.2 0 4-6.5 24.3-13.5 42.3-1.5 3.8-4 10.5-5.5 14.8-2.7 7.1-5.4 13.6-10.1 24.4-1.1 2.4-1.9 4.5-1.9 4.8 0 1-15.8 35.1-19.2 41.4-3.4 6.4-5.8 8.7-5.8 5.7 0-.8 3.7-9.1 8.3-18.3 8-16.3 14.7-31.4 20.2-45.8 1.5-3.9 3.6-8.9 4.6-11.2 1-2.4 1.9-4.7 1.9-5.3s.9-2.9 1.9-5.3c3.4-7.5 7.2-17.9 11.6-31.3 3.8-11.6 4.2-13.7 3.4-17.3-1.1-5.1-4.4-10.4-9.3-15-2-1.9-3.6-3.9-3.6-4.3 0-2 3.3-.4 8.3 4.2m-6 1.2c5.7 5.3 9 11.7 9 17.2-.1 8.1-20.9 63.9-36.1 96.9-7.2 15.5-15.8 32.1-16.9 32.5-.7.2.8-3.6 3.1-8.5 13.9-28.2 25.1-54.5 34.8-81.3 1.1-3 2.3-6.4 2.8-7.5 1.3-2.7 8.6-25.3 9.4-28.8 1.4-5.9-.4-9.8-7.6-17.1-3.7-3.9-6.8-7.2-6.8-7.3 0-.2.8-.3 1.8-.3s3.9 1.9 6.5 4.2m21.7 17.4c0 .9-.7 1.4-1.7 1.2-2.5-.5-2.8-2.8-.4-2.8 1.2 0 2.1.6 2.1 1.6m61.8 12.8c2.1 2.1 2.7 3.6 2.7 7.2 0 3.9-.5 5-3.3 7.5-2.7 2.4-4.1 2.9-8.3 2.9-4.3 0-5.5-.5-8-2.9-4.2-4.2-4.1-10.6.1-15.1 2.9-3.1 3.4-3.2 8.6-2.8 4.3.4 6.1 1.1 8.2 3.2M638 862.6c0 1.7-2.2 1.4-2.8-.4-.2-.7.3-1.2 1.2-1.2s1.6.7 1.6 1.6m-40.2 70.1c-.2 1.9-1.2 3.2-3 4.1-5.9 2.8-9.8 4.2-9.7 3.5.1-1 11.1-10.1 12.2-10.2.5-.1.7 1.1.5 2.6"/><path d="M709.8 818.7c.3 6.5.6 7.9 2 7.9.9.1 2.4.4 3.3.8 2.2.9 6.9-3 6.9-5.8 0-3.4-3.2-5.8-6.5-5-2.5.6-2.7.5-2.3-2.2.2-2.3-.1-3-1.7-3.2-1.9-.3-2 .2-1.7 7.5m8.6 1.6c1.4 2.2-.4 5.2-3 5.2-2.3 0-3.1-3.9-1.3-6.1 1.4-1.7 2.8-1.4 4.3.9M698.8 776.8c-3.1 1.8-3.8 3.8-1 2.7 4.1-1.7 5.2-1.7 5.2-.1 0 .9.5 1.6 1 1.6 1.5 0 1.2-2.7-.6-4.4-1.8-1.9-1.3-1.9-4.6.2M688 783c-1.4 1-2.2 2.1-2 2.4.7.7 7-2.5 7-3.5 0-1.5-2.4-1-5 1.1M700.6 787.6c-1 3.8 0 4.1 1.2.5.6-1.7.7-3.1.3-3.1-.5 0-1.2 1.2-1.5 2.6M682.8 794.8c-4.2 4.7-10.6 14.7-13.7 21.4-6.8 14.4-14.1 34-11.8 31.8.2-.3 2.6-5.9 5.2-12.5 7.5-18.9 14.2-31.1 21.9-39.9 2.8-3.2 3-3.6 1.8-3.6-.5 0-2 1.3-3.4 2.8M696.2 797.9c-1.7 4.6-1.5 6 .4 3.3.8-1.2 1.4-3.2 1.2-4.5-.3-1.9-.5-1.7-1.6 1.2M668.9 800.2c-2.5 4.6-12.9 29.4-15.6 36.8-.8 2.5-2.6 6.9-3.9 9.9-1.4 3-2.2 5.6-1.9 5.9s.7.3.9.1c.4-.4 11.8-28.3 15.5-37.9 1-2.5 3.3-7.6 5.1-11.3 3.6-7.5 3.5-10.5-.1-3.5M691 811c-1.4 4.3-.7 6.9.8 2.9 1.9-5.1 2.3-6.9 1.4-6.9-.5 0-1.5 1.8-2.2 4M687.6 819.8c-1.4 2.3-2.5 6.2-1.7 6.2 1 0 3.4-6.1 2.7-6.7-.2-.3-.7 0-1 .5M682.5 832.2c-.4 1.7-1.9 4.2-3.3 5.5-2.7 2.5-1.8 3 2.3 1.1 1.8-.8 2.5-1.9 2.5-3.9 0-1.5.3-3.4.6-4.3s.2-1.6-.4-1.6-1.4 1.4-1.7 3.2M691.1 831.3c-1.9 1.2-2.9 2.3-2.3 2.5 1.5.5 7.8-3.4 6.6-4-.5-.3-2.4.4-4.3 1.5M668.1 844.1c-1.3 1.1-2.2 2.2-1.9 2.4.7.7 5.7-1.9 6.3-3.3.7-1.8-1.7-1.4-4.4.9M761.3 843.1c-.7.9-1.1 5.3-1 12.4l.2 11 43 .6c23.7.3 43.3.3 43.8.1.4-.2.7-5.7.7-12.3V843h-8.2c-4.6 0-23.8-.3-42.8-.7-28.9-.5-34.7-.4-35.7.8m52 1.8 32.8.1-.3 10.1-.3 10.1-40.4-.2c-22.2 0-40.8-.3-41.2-.6-.8-.4-1-18.3-.3-19.6.2-.3 4.1-.5 8.7-.3 4.5.1 23 .3 41 .4"/><path d="M770.6 848.2c-2.1 2.9-2.1 9.7 0 12.6 1.5 2.2 1.7 2.2 3.5.6 3.2-2.9 1.9-8.2-2.3-9.6-.7-.3-.9-1.2-.5-2.2.6-1.6 1-1.6 2.3-.5 1.4 1.2 1.6 1.1 1.3-.5-.6-2.8-2.5-3-4.3-.4m3.4 8.9c0 3.8-2.4 3.5-2.8-.4-.2-1.9.1-2.7 1.2-2.7s1.6 1 1.6 3.1M781.1 847.4c-.6.7-1 2.9-.9 4.7.1 1.9-.2 4.1-.6 5-.4 1 .1 2.5 1.4 4 2 2.4 2 2.4 4 0 1.3-1.5 1.8-3 1.4-4-.4-.9-.7-3.1-.6-5 .2-3.2-1.1-6.1-2.8-6.1-.4 0-1.3.6-1.9 1.4m3.4 3.1c0 1-.6 2-1.2 2.2-.8.3-1.3-.5-1.3-2.2s.5-2.5 1.3-2.3c.6.3 1.2 1.3 1.2 2.3m0 7.5c0 1.3-.6 2.5-1.2 2.7-1.6.6-2.7-2.1-1.9-4.3.9-2.3 3.1-1.1 3.1 1.6M804 847.2c-.1.2-.2 3.8-.3 8.1-.1 5.6.1 7.7 1.1 7.7.8 0 1.2-2.3 1.2-8 0-4.7-.4-8-1-8-.5 0-1 .1-1 .2M813 848.9c-1.6 3-1.3 11.6.5 13.1 2.9 2.4 6-2.4 4.4-6.8-.5-1.2-1.5-2.2-2.4-2.2-.8 0-1.5-.9-1.5-2s.5-2 1-2c.6 0 1 .5 1 1.2 0 .9.3.9 1.1.1.6-.6.8-1.6.5-2.2-1.1-1.7-3.4-1.3-4.6.8m4 7.5c0 2.2-1.1 4.6-2.1 4.6-.5 0-.9-1.4-.9-3q0-3 1.5-3c.8 0 1.5.6 1.5 1.4M823 849.9c-.7 1.8-.9 4.6-.5 7 1.2 7.5 5.4 7.5 6.2 0 .9-8.2-3.1-13.1-5.7-7m4.1 1.3c.4 6.3-.5 10.3-2.1 9.3-1.1-.7-1.4-9.8-.3-10.8 1.3-1.3 2.3-.7 2.4 1.5M833 848.4c0 .9.8 1.2 2.5.8 3-.5 3-.6.6 4.4-1.1 2.2-2.3 5.3-2.7 6.8-.6 2.6-.5 2.7 2.7 2.4 2.3-.2 3.5-.9 3.7-2.1.3-1.6.1-1.7-1.7-.5-3.2 2-3.4.5-.7-6.3 1.5-3.4 2.6-6.4 2.6-6.6s-1.6-.3-3.5-.3c-2.3 0-3.5.5-3.5 1.4M790.5 855c.3.5 1.9 1 3.6 1 1.6 0 2.9-.5 2.9-1 0-.6-1.6-1-3.6-1-2.1 0-3.3.4-2.9 1M655.1 851.1c-1.8 1.1-3.1 2.2-2.8 2.5.7.8 7.7-2.6 7.7-3.7 0-1.4-1.2-1.1-4.9 1.2M159.5 1132.1c-1.7 4.7-.2 173.3 1.6 175.4.5.5 10.1 1 21.7 1.1 60.6.7 253.2 1.8 324.7 1.8l82 .1v-16c0-16.6-1.1-90.3-2.1-134-.2-13.7-.9-25.4-1.3-25.8-.8-.8-45-1.2-257.6-2.2-59.4-.3-121.6-.8-138.2-1.2-25.4-.5-30.3-.4-30.8.8m132.9 2.2 8 .2v14.5c.1 13.8 0 14.5-1.9 14.4-1.1-.1-16.4-.2-34-.3-32-.1-32-.1-28.8-2.2 4.5-2.9 6.5-6.4 6.5-11.6 0-12.2-15.4-17.9-23.2-8.5-5.2 6.3-3.6 15.6 3.5 19.9 3 1.8 3 1.8-9.5 2.1-6.9.2-21.6 0-32.7-.3l-20.3-.7v-28.7l62.3.5c34.2.3 65.8.6 70.1.7m46.4.7c32.7 0 32.7 0 28.7 2-5.6 2.8-7.7 6.2-7.7 12 0 6.1 2.2 9.2 8.7 12.4 5 2.4 5 2.4-30 2.3-22-.1-35.3-.6-35.7-1.2-1-1.3-1-26.9-.1-27.9.4-.3 1.3-.4 2.1-.1.7.3 16.1.5 34 .5m104.2 9.9c0 5.4.3 11.9.6 14.5l.7 4.6-35.2-.1c-35.2-.2-35.2-.2-31.5-2.3 4.9-2.7 8.4-7.9 8.4-12.3 0-6-4.2-11.7-9.4-12.9-2.9-.7-2.9-.8-.8-1.3 1.3-.3 16.9-.5 34.7-.3l32.5.3zm68-8.9c0 .5-.3 1-.7 1-1.3 0-5.9 4.3-7.1 6.7-2.7 4.9-.4 13.8 4.2 16.9 1.5.9 2.5 1.8 2.3 2s-14.5.6-31.9 1c-30.3.7-31.5.6-32-1.2-.3-1.1-.6-7.6-.7-14.7l-.2-12.7h33c21.4 0 33.1.4 33.1 1m73.8.5c.9.3 1.2 4 1.2 14v13.5l-31.2-.5c-17.2-.3-31.9-.5-32.6-.5s.3-1.5 2.1-3.4c3.8-3.8 5.1-8.7 3.7-13.8-1.1-3.5-5.7-8.8-7.7-8.8-.8 0-1.2-.4-.9-.8.5-.8 63-.5 65.4.3m-349.8 3.2c7.6 4.5 6.5 16.8-1.8 20.2-4.2 1.8-10.5-.1-13.1-3.8-2.9-4.1-2.8-11.2.2-14.4 1.2-1.3 2.9-2.7 3.7-3 3-1.1 8.3-.7 11 1m145.9 1.8c2.2 2.6 3.1 4.6 3.1 7.1 0 6-2.5 9.4-8.3 11.3-7.5 2.5-13.7-2.8-13.7-11.6 0-3.9.5-5.4 2.3-7 2.8-2.6 4.3-3.1 9.3-3.2 3.6-.1 4.6.4 7.3 3.4m139.6-1.9c3.3 1.5 6.5 6.4 6.5 9.8 0 3.5-3 8.5-5.9 10-8 4.2-17.1-1.1-17.1-9.9 0-4.7 1.4-7.1 5.3-9.5s6.8-2.5 11.2-.4m-219.8 25.8c.6.5 2 141.2 1.4 141.6-.3.3-31.8.4-69.9.2-69.3-.2-69.3-.2-70.2-2.7-.5-1.3-1.2-33.1-1.6-71.2l-.7-68.9 70.4.4c38.7.2 70.5.5 70.6.6m142.9.9c.1.1.5 31.2.9 69s.8 69.6.9 70.5c.1 1.6-4.7 1.7-70.2 1.7-38.7 0-70.5-.2-70.7-.5-.1-.3-.6-31.6-1-69.5-.4-38-.9-69.3-1.2-69.8-.2-.4-.2-1 .1-1.5.3-.6 140.7-.5 141.2.1m142.7 41.9c.4 23.3 1 55.2 1.4 70.9l.6 28.6-3.9.6c-3.5.5-136.5-.1-137.1-.6-.1-.2-.5-31.1-.8-68.7-.3-37.7-.8-69.5-1.1-70.8-.4-2.2-.4-2.2 69.9-2.2h70.4z"/><path d="M224.5 1144.6c-1.2 1.3-1.3 2-.5 2.8s1.5.6 2.4-.7c1.6-2.1 3.6-2.2 3.6-.2 0 .8-1.1 1.7-2.5 2.1-3.1.8-4.7 2.7-3.9 4.7.4 1.3 1.9 1.6 6 1.5 5.4-.2 7.5-1 5.4-2.3-.5-.3-1-1.9-1-3.4 0-5.2-6-8-9.5-4.5m6.5 6.3c0 .6-.5 1.3-1 1.6-1.5.9-4.3-.3-3.5-1.5.8-1.3 4.5-1.3 4.5-.1M366.8 1142.2c.7.7 1.2 4 1.2 7.9 0 6.6 0 6.6 3.1 7.3 4.5.9 4.6.8 6.9-1.6 2.5-2.8 2.5-4.8 0-7.6-1.5-1.6-2.8-2-4.5-1.6-2.3.6-2.5.3-2.5-2.5 0-2.7-.3-3.1-2.7-3.1-2.1 0-2.4.3-1.5 1.2m9 10.1c.2 2.7-.1 3.9-1.3 4.4-2.1.7-3.5-1.2-3.5-4.9 0-2.5 1.4-3.9 3.5-3.4.6.1 1.1 1.9 1.3 3.9M512.2 1145c-4.2 3.9-1.7 11 3.9 11 2 0 5.5-3.7 4.4-4.8-.4-.4-1-.1-1.2.5-.3.7-1.5 1.3-2.9 1.3-3.1 0-4.4-4.4-2-6.8 1.5-1.6 1.7-1.5 2.2.6.8 2.7 3.4 2.9 3.4.2 0-1.8-2.6-4-4.7-4-.5 0-1.9.9-3.1 2M186.9 1174.7c-.2 7.1.1 23.7.6 24.1.3.3 20 .6 43.8.6l43.2.1v-26l-43.7-.3c-41.2-.2-43.8-.1-43.9 1.5m83.9 1.1c.9.3 1.2 3.5 1.2 11.4v11l-33.2-.6c-18.3-.3-37-.6-41.5-.6H189v-22.2l40.3.3c22.1.2 40.8.5 41.5.7"/><path d="M197.2 1178.2c-1.8 1.8-1.6 14.2.3 15.8 1.3 1.1 1.8 1 3-.6 2.3-3 1.8-7-1.1-9.1-1.7-1.3-2.3-2.4-1.8-3.6.5-1.4.9-1.5 2-.6 1.5 1.3 1.7.9.8-1.5-.7-1.9-1.6-2-3.2-.4m2.8 10.7c0 3.4-1.5 4.9-2.4 2.5-1.1-2.8-.6-5.4.9-5.4 1 0 1.5 1 1.5 2.9M207.2 1178.7c-.5 1-.9 4.7-.8 8.2.1 5 .5 6.6 1.9 7.5 3 1.8 4.6-1.5 4.2-8.5-.4-7.7-3.2-11.4-5.3-7.2m3.3 3.3c0 1.3-.6 2.5-1.2 2.7-.9.3-1.3-.6-1.3-2.7s.4-3 1.3-2.8c.6.3 1.2 1.5 1.2 2.8m.3 7.7c-.4 3.9-2.8 4.2-2.8.4 0-2.1.5-3.1 1.6-3.1s1.4.8 1.2 2.7M238 1186c0 8.9.1 9.1 2.2 8.8 2.8-.4 4.8-4.1 4.8-8.8s-2-8.4-4.8-8.8c-2.1-.3-2.2-.1-2.2 8.8m4.6-4.8c1.2 3.9 1.3 6.9.2 9.4-1.9 4.1-2.8 2.6-2.8-4.6 0-6.9 1.2-9.1 2.6-4.8M250 1179.6c-1.2 3.2-1.2 3.4 0 3.4.6 0 1-.7 1-1.5s.5-1.5 1-1.5c1.6 0 1.1 4.5-1 9.5-1.1 2.6-2 4.9-2 5.1s1.4.4 3 .4c3 0 5.1-2.3 3.5-3.8-.4-.4-1-.1-1.2.5-.3.7-.9 1.3-1.5 1.3-1.1 0-.7-2.9 1.3-7.7 1-2.5 1-3.7.1-5.7-1.5-3.3-3-3.3-4.2 0M229.2 1182.3c-2 7.6-2.5 12.7-1.2 12.7.6 0 .9-.8.6-1.8-.8-2.4.9-4.6 2.9-3.8 1.2.4 1.6 1.4 1.3 3.1-.4 1.7-.1 2.5.9 2.5.9 0 1.3-.6.9-1.5-.3-.8-1.1-4.4-1.7-8s-1.5-6.7-1.9-7c-.4-.2-1.2 1.4-1.8 3.8m2.8 3.3c0 .8-.4 1.4-1 1.4-.5 0-1-.9-1-2.1 0-1.1.5-1.7 1-1.4.6.3 1 1.3 1 2.1M216.5 1186c-.7 1.2 3.9 2.4 6.1 1.6.8-.3 1.2-1 .9-1.6-.8-1.3-6.2-1.3-7 0M229.9 1202.4c-.4.4-.4 6.7-.1 14.1.5 15.2.5 15.2-6.3 11-4.8-3-8-3.1-12.2-.5-5 3-6 5.6-6.6 16-.3 5.7-1.7 14.3-3.5 21.3-1.7 6.6-2.8 12.5-2.6 13.2.8 2 7.4 4.8 11.9 5.1 3.5.2 4.1.6 4.8 3.1.6 2 2.2 3.6 5 5.1 5.4 2.8 6.9 2.8 6.2-.1-4-17.2-4.1-18.2-2.5-17.2 1.7 1 5.1-1.5 6.5-4.9 1-2.4 1.1-4.3.4-7.6-.8-3.4-.6-5 .6-7.7.9-1.8 1.9-3.3 2.3-3.3 1.1 0 .2 15.5-1.5 25.5-3 18.4-3.1 18 1.3 20.7 8.4 5.1 9.2 5.3 11.5 3.2 1.2-1 2.8-3.6 3.6-5.7 1.6-3.9 2.3-4.3 5.2-2.7 2.5 1.3 5.9-1.3 6.9-5.2.5-2 .3-6-.6-10.7-.8-4.2-1.7-12-1.9-17.3l-.4-9.7-7.7-4.9c-4.2-2.7-10.1-6.2-12.9-7.8-5.3-2.9-5.3-2.9-5.4-8.4-.3-11.2-1.4-25.2-2-24.6m1.6 31.4c6.6 3.7 14.2 8.2 16.8 10.1l4.8 3.3-3.5 3.1c-3.5 3.2-3.6 3.2-2.3 7.6 1 3.5.9 4.5 0 4.8-1.8.6-1.6 2.3.2 2.3 2.9 0 6.5 3.1 6.5 5.6 0 3-2.1 4-5.2 2.3-3.3-1.7-3.4-2-3.3-10.3 0-5.3-.4-7.6-1.2-7.6-2.7 0-6.5-2.5-7.9-5.2-.8-1.5-1.9-2.8-2.4-2.8-.8 0-3.6 5.6-10 19.7-1.3 2.9-2.7 5.3-3.1 5.3-.5 0-2.7-1-5-2.2-3.6-1.8-4-2.4-3.5-4.7.3-1.4 1.5-6.7 2.7-11.6 1.1-5 2.3-10.7 2.6-12.8.5-3.5.3-3.7-2.1-3.7-3.1 0-7.6-2.7-7.6-4.5 0-2.1 5.2-5.4 8.5-5.5 2 0 7.4 2.4 15 6.8m-21 3.4c3.3 2.2 3.5 2.6 3.5 8 0 6.4-.7 6.9-5.1 3.7-2.6-1.9-2.9-2.6-2.9-8 0-3.2.2-5.9.5-5.9s2.1 1 4 2.2m6.4 2.5c0 .5-.4 1.7-.9 2.8-.8 1.8-.9 1.7-.9-.8-.1-1.5.4-2.7.9-2.7.6 0 1 .3.9.7m-8.9 10c0 .5 1.3 1.5 2.9 2.4 2.8 1.6 2.8 1.6-.4 14.5-1.8 7-3.7 13-4.4 13.2-1.8.6-6.1-2.6-6.1-4.6 0-.9 1.4-7.1 3-13.6 1.7-6.6 3-12.1 3-12.3s.5-.3 1-.3c.6 0 1 .3 1 .7m49 5.6c0 3.5-.3 6.6-.6 7-.3.3-2.1-.4-4-1.5-2.7-1.6-3.4-2.6-3.4-5.1 0-3.6 2.6-6.6 5.8-6.6 2.1-.1 2.2.3 2.2 6.2m-17-.1c2.8 2 3 2.6 3 8.6 0 3.5-.3 6.2-.7 6-6.6-3.2-6.3-2.7-6.3-10 0-3.7.2-6.8.5-6.8s1.9 1 3.5 2.2m-10 9.4c0 3-2.7 7.4-4.6 7.4s-1.8-.9.7-6.4c2.1-4.8 3.9-5.3 3.9-1m27.4 2.8c2.5 13.1 2.8 16.3 1.6 18.7-1.3 2.5-2.9 3.9-4.3 3.9-1 0-.4-16.6.7-19.7.7-1.9.3-2.6-2.3-4-1.7-1-3.1-2.6-3.1-3.5 0-1.6.3-1.5 3.5.3 1.9 1.2 3.7 3.1 3.9 4.3m-16.6 3.6c2.6 1.6 3.1 2.4 2.4 3.8-.5.9-1.5 6.3-2.2 11.9-.7 5.7-1.6 10.3-2.2 10.3-.5 0-2.2-.7-3.8-1.5-3.5-1.8-3.8-4.5-1.9-16.8 1.7-11.2 1.8-11.3 7.7-7.7m-23.4 1.3c3.3 1.8 4.1 3 5.1 7.2 3 12.4 2.8 13.3-2.5 9.5-2.1-1.5-3.5-4.1-5.4-10-1.4-4.3-2.6-8.2-2.6-8.5 0-1 1.5-.5 5.4 1.8m-4.9 4.9c.7 3.4.5 3.8-1.4 3.8-1.7 0-2.1-.6-2.1-2.9 0-6.9 2.3-7.5 3.5-.9m35.5 7.6c0 6.9-.4 8.9-2.1 11.3-2.9 4.1-5.3 3.9-4.6-.4.4-1.7 1.1-7 1.7-11.7 1.5-11.4 1.8-12 3.6-9.6.9 1.4 1.4 4.7 1.4 10.4m4-2.7c0 3.3-.4 5.9-1 5.9-.5 0-1-2.2-1-4.9s-.3-5.7-.6-6.5c-.5-1.2-.2-1.5 1-1s1.6 2 1.6 6.5M331.5 1174.1c-.9 1.4-.6 24.2.3 25 .4.4 19.9.9 43.5 1.1 42.6.4 42.8.4 43.2-1.6.7-3.3.1-23-.8-24.3-1-1.6-85.2-1.9-86.2-.2m63.6 4c-3.2 3-2.6 8.9 1 8.9 2.1 0 2.5 2.5.9 5-.9 1.3-1.1 1.3-1.9 0-1.2-1.8-2.6-.7-1.8 1.5 1 2.4 4.3 1.8 5.5-1 1.4-3.1.2-6.9-2.8-8.5-2.6-1.4-2.6-2.8.3-3.2 1.4-.2 2.2-1 2.2-2.3 0-1.8.7-2 8.5-2h8.5v11c0 9.8-.2 11-1.7 10.9-1 0-19.3-.1-40.8-.2l-39-.2v-22h31.6c31.7.1 31.7.1 29.5 2.1"/><path d="M341.1 1179.3c-.7 1.3-1.1 4.9-.9 8.7.2 5.4.6 6.5 2.2 6.8 4.4.9 5.1-7.5.9-10.6-2.3-1.7-2.6-2.3-1.5-3.4s1.4-1 2.2.2c.5.8 1.2 1.1 1.7.7.8-.9-.8-3.9-2.3-4.4-.6-.2-1.6.7-2.3 2m2.9 10.2c0 1.9-.4 3.5-.9 3.5-1 0-2.2-5.1-1.4-6.2 1.1-1.9 2.3-.5 2.3 2.7M351.3 1179.6c-1.3 2.1-1.4 3-.5 4.5.9 1.4.9 2.3.1 3.7-1.9 3-.3 7.2 2.7 7.2 2.9 0 4.6-3.3 3.4-6.6-.5-1.1-.6-3.2-.3-4.6.5-2.7-1.1-6.8-2.7-6.8-.5 0-1.7 1.2-2.7 2.6m3.7 3c0 3.1-2.3 2.8-2.8-.4-.2-1.5.2-2.2 1.2-2.2 1.1 0 1.6.9 1.6 2.6m.4 5.9c.8 2.1-.3 4.5-2 4.5-.8 0-1.4-1-1.4-2.3 0-3.6 2.2-5.1 3.4-2.2M373.2 1178.2c-.5.7-1.1 4-1.2 7.3-.5 9.4-.4 9.7 2.8 9.3 2.6-.3 2.7-.5 2.9-6.8.2-8.5-1.8-13-4.5-9.8m2.8 4.3c0 1.4-.4 2.5-1 2.5-.5 0-1-1.1-1-2.5s.5-2.5 1-2.5c.6 0 1 1.1 1 2.5m.5 6.6c.8 2.3-.7 4.5-2.4 3.5-1.2-.8-1.5-3.9-.4-4.9 1.2-1.2 2.2-.7 2.8 1.4M383.6 1179.2c-1.8 2.6-2.2 10.9-.6 13.9.6 1 1.9 1.9 2.9 1.9 3.8 0 3.7-9.3 0-10.5-1.9-.6-2.7-4.5-.9-4.5.6 0 1 .4 1 1 0 .5.5 1 1 1 1.5 0 1.2-2.6-.4-3.9-1.1-1-1.7-.7-3 1.1m3.2 10.5c-.4 3.9-2.8 4.2-2.8.4 0-2.1.5-3.1 1.6-3.1s1.4.8 1.2 2.7M404.1 1180.1c-1 3-.3 5.7 1.9 6.9 2.5 1.3 3.3 5 1.2 5.7-.9.4-1.8.1-2-.5-.6-1.9-2.2-1.4-2.2.7 0 2 3.2 3.4 5.6 2.4 2.3-.9 1.6-6.2-1.1-9.5-2.6-3.1-2.8-4.9-.7-5.6.7-.2 1.2.3 1.2 1.2s.5 1.6 1.1 1.6.9-1 .7-2.3c-.4-3.2-4.5-3.6-5.7-.6M361.7 1185.6c-1.5 1.6-.5 2.4 2.9 2.4 2.4 0 3.4-.4 3.2-1.3-.5-1.3-5-2.2-6.1-1.1M372 1208.8c0 6.9 0 6.9-4.2 8.8-2.2 1-6.1 3.1-8.6 4.7-3.8 2.4-4.3 3.2-3.9 5.5.3 1.5-.5 5.9-2 10.1-2.4 7.4-2.4 7.4-.4 16.8 1.2 5.1 2.1 9.6 2.1 9.8 0 .3-1.8.5-4 .5-3.5 0-9.2 2.3-12.7 5.2-.6.5-2.4.8-3.9.6-2.6-.3-3 .2-4.4 4-1.8 5.3-1 6.8 5.6 10.4q4.8 2.7 7.5 2.1c3.3-.6 14.9 5.4 14.9 7.8 0 2.1 2.6 4.4 8.5 7.4 4.9 2.4 4.9 2.4 13-2.2 18.1-10.3 17.8-9.9 14.9-16.8-1.2-3-1.3-3.9-.3-4.6 1-.6 1-1.2-.4-2.7-.9-1-1.7-2.3-1.7-2.8 0-.6-1.3-2-2.8-3.1-2.9-2.1-2.9-2.1-1.6-9.3.8-4.7.9-8.3.3-10.4-.5-1.7-.9-7.4-.9-12.6s-.5-11.3-1.1-13.4c-1.3-4.7-6.2-9.6-9.5-9.6-2.3 0-2.4-.3-2.4-5.9 0-3.3-.4-6.3-1-6.6-.6-.4-1 1.9-1 6.3m9.4 10.8c3 3.1 3.2 4.5 1.1 7.8-1.6 2.5-1.6 2.6 1.8 15.6 3.1 11.4 3.2 10.6-2 13.4-2.5 1.5-4.9 2.3-5.3 1.9-.8-1-2.2-5.6-5.1-16.6-1.4-5.3-2.9-8.7-3.7-8.7-.7 0-1.5-.8-1.9-1.8-.3-.9-1.7-3.1-3-4.9-2.3-3.2-2.3-3.2 3.4-6.2 7.4-3.8 11.2-3.9 14.7-.5m-19 8.5c4 4.7 3 9.3-2.9 12.8-6.2 3.6-6.7 3-3.9-5.1 1.3-4 2.2-7.8 2-8.4-.5-1.3.2-2.4 1.5-2.4.4 0 1.9 1.4 3.3 3.1m22.6 4.6c0 3.5-.3 4.4-1 3.3-1.6-2.5-1.1-8 .7-8 .2 0 .3 2.1.3 4.7m-15.1 6.9c1.7 4.9 2 17.9.4 19.5-1.4 1.4-1.1 2.1-4.1-10.4-1.6-6.4-1.9-9.4-1.2-11.3 1.3-3.4 3.2-2.6 4.9 2.2m-5.4 7.9c2.7 11.1 2.7 11.2-.9 13.3-6.9 4.1-7 4-8.9-4.6-1-4.2-1.7-8.3-1.7-8.9 0-1.5 6.9-5.3 8.9-5 .8.1 1.9 2.4 2.6 5.2m10 21c-1.1 5.7-2.2 8.5-3.7 9.8-2.2 1.8-2.2 1.8.6 4.1 2.8 2.2 2.8 2.2-.9 5.1-3.5 2.6-3.6 2.9-2 4.1s1.6 1.5-.1 5.2c-1.7 4-1.7 4-5 1.9-2.4-1.6-3.4-2.9-3.4-4.9 0-1.5.5-3 1-3.3 1.6-1 1.1-4.5-.7-5.2-1-.4-5.3-2.9-9.7-5.5-8.7-5.4-9.7-5.3-12.3 1-1.3 3.2-1.4 3.2-4.4 1.7-1.6-.9-3.3-2.3-3.6-3.2-1-2.5 1.9-6.8 4.4-6.5 1.1.2 4.4-1.2 7.2-3 3.6-2.2 5.7-2.9 6.5-2.2 6.9 5 6.3 4.9 10.9 2.5 11.1-5.6 12.2-6.7 13.2-12.6l.6-4 1.5 3.5c1.4 3.1 1.4 4.4-.1 11.5m11-5.8c-.4 3.1-.9 6.1-1.1 6.7-.5 1.3-8.4 6-9 5.3-.2-.2.2-3.3.9-6.8 1.1-5.4 1.8-6.7 4.6-8.6 5-3.4 5.4-3 4.6 3.4m-16.5-.8c0 1.1-6.9 5.2-8.5 5.1-2 0-1-2.1 2-3.9 3.2-2.1 6.5-2.7 6.5-1.2m-11.2 6.3c-.7 1.9-3.1 2.1-5.3.4-1.9-1.5-1.8-1.5 1.8-1.6 2.7 0 3.7.4 3.5 1.2m30.2 3.5c0 1.4-9.5 7.3-11.8 7.3-3.5 0-2.6-1.3 2.8-3.9 2.8-1.4 5-2.9 5-3.3s.9-.8 2-.8 2 .3 2 .7m2.1 3.3c2.5 1.4 2.4 3.5-.3 5.4-2.8 2-3.9 2-6.4.1-1.8-1.4-1.8-1.5 1.1-3.9 3.5-3 3.1-2.9 5.6-1.6m-38.3 7.4c4.5 2.8 8.2 5.6 8.2 6.3 0 2.7-3 2.4-9.2-1.1-4.8-2.7-6.7-3.2-8.1-2.5-.9.6-2.2.7-2.8.3-1.8-1.1 1.1-9 3-8.2.4.2 4.4 2.5 8.9 5.2m30.1-1c.9 1.1.5 1.5-2 2-1.7.3-4 .1-5.2-.6-2.1-1.2-2.1-1.2.8-1.9 4.6-1 5.2-1 6.4.5m11.1 2.7c1.7 3.1.8 5.9-2.5 7.7-1.6.9-6.2 3.6-10.2 5.9-6.9 4.2-11.3 5.4-11.3 3.3 0-.6.7-2.7 1.5-4.7 1.2-2.8 1.3-3.9.3-5-.9-1.1-.9-1.7.3-2.4 3.8-2.6 7.1-3.9 9.6-4 1.5 0 4.4-.6 6.3-1.3 4.8-1.9 4.8-1.9 6 .5M474.7 1172.7c-.4.3-.7 6.4-.7 13.5v12.8l44.1-.2 44.1-.3v-12.2c0-6.7-.3-12.6-.7-13.2-.7-1.2-85.7-1.6-86.8-.4M560 1186v11l-41.2-.2-41.3-.3-.3-10.8-.3-10.7H560z"/><path d="M485.2 1176.9c-1.8 1.1-2.6 10.9-1.3 14.3s3.8 3.6 5.2.4c1.5-3.2.3-7.7-2.1-8.3-2-.5-2.9-4.3-1-4.3.6 0 1 .4 1 1 0 .5.5 1 1 1 1.4 0 1.2-2.6-.3-3.8-.7-.6-1.8-.7-2.5-.3m2.6 11.4c.2 1.9-.1 2.7-1.2 2.7s-1.6-1-1.6-3.1c0-3.8 2.4-3.5 2.8.4M495 1177.5c-.7.8-1 2.9-.7 4.7.2 1.8.1 4.1-.4 5-1.3 2.4.6 6.8 3 6.8 3 0 4-2.1 3.7-8.7-.3-8-2.7-11.3-5.6-7.8m3 4c0 1.4-.4 2.5-1 2.5-.5 0-1-1.1-1-2.5s.5-2.5 1-2.5c.6 0 1 1.1 1 2.5m.5 7.5c0 1.3-.5 2.5-1.1 2.7-1.4.5-2.5-2.2-1.7-4.2.8-2.3 2.8-1.2 2.8 1.5M517 1177.5c-1.5 1.8-2.1 12.3-.9 14.7 2.4 4.4 7.7 0 5.9-4.8-.5-1.1-.6-3.2-.3-4.6.5-2.6-1.1-6.8-2.6-6.8-.5 0-1.4.7-2.1 1.5m3 4c0 1.4-.4 2.5-1 2.5-.5 0-1-1.1-1-2.5s.5-2.5 1-2.5c.6 0 1 1.1 1 2.5m.5 6.6c.8 2.3-.7 4.5-2.4 3.5-1.2-.8-1.5-3.9-.4-4.9 1.2-1.2 2.2-.7 2.8 1.4M537.5 1178.3c-.4 1.4-.5 3.8-.3 5.3.2 2.4.7 2.8 2.6 2.6 1.8-.3 2.2.2 2.2 2.2 0 2.7-1.5 4.3-2.5 2.6-.9-1.5-2.5-1.2-2.5.5 0 .8.9 1.9 1.9 2.5 1.6.8 2.3.6 3.5-1.2.9-1.2 1.6-2.8 1.6-3.5 0-2.3-2.3-6.3-3.7-6.3-2.1 0-1.5-2.7.8-3.3 2.6-.7 2-3.1-.9-3.5-1.6-.2-2.3.3-2.7 2.1M547.4 1177.5c-.9 2.3.2 14.5 1.4 15.7.5.5 1.9.7 3.1.3 1.9-.6 2.1-1.4 2.1-8.6 0-4.6-.4-7.9-1-7.9s-1 3.2-1 7.5c0 7.7-1.4 10.1-2.5 4.2-.3-1.7-.4-5.1-.1-7.4.4-4.4-.9-6.8-2-3.8M527 1178.9c-1.4 2.8-1.2 11.4.4 13.6 1.7 2.4 4.3 1.4 5.2-2 .8-3.2-1-7.5-3.1-7.5-.8 0-1.5-.9-1.5-2s.5-2 1-2c.6 0 1 .4 1 1 0 .5.5 1 1 1 .6 0 1-.9 1-2 0-2.6-3.6-2.7-5-.1m3.8 9.4c.2 1.9-.1 2.7-1.2 2.7s-1.6-1-1.6-3.1c0-3.8 2.4-3.5 2.8.4M505.3 1184.7c-2.7 1-1.1 2.3 2.7 2.3 4 0 5.3-1.3 2.4-2.4-1.8-.7-3.3-.7-5.1.1M517 1210.4c0 10.2-.6 11.2-4.6 8.1-2.9-2.2-6.9-1.9-8.6.7-.8 1.3-2.9 5.9-4.7 10.3s-4.2 10-5.3 12.4c-1.1 2.5-2.5 6.7-3.1 9.4-1.1 4.3-1.8 5.3-6.4 8.3-8.3 5.6-11 11.5-7.1 15.8 3.3 3.5 11.3 7.6 15 7.6 3.8 0 10.6 3.8 13.4 7.7 1.2 1.5 3.9 3.7 6 4.8 2.2 1 5.1 2.7 6.6 3.7 3.6 2.5 4.5 2.3 12.8-2.2 4-2.2 7.7-4 8.1-4 .5 0 .9-.3.9-.8 0-.4 2.3-1.8 5-3.1 3.9-2 5-3 5-4.9 0-1.4 1.2-3.4 3-4.9 1.7-1.3 3-2.8 3-3.2 0-1.3-10.8-7.1-13.3-7.1-3.3 0-3.7-1.3-2.8-11.1.8-9.1 1-8.4-9.5-28-.8-1.4-3.6-3.8-6.4-5.3-5-2.7-5-2.7-5-12.6 0-5.5-.4-10.2-1-10.5-.6-.4-1 2.8-1 8.9m.3 12.8c6.8 3.6 7.5 4.3 6.3 5.7-1.3 1.6-9.6 22.1-9.6 23.9 0 .5-1.1 3.5-2.5 6.5l-2.4 5.6-5.8-3.6c-3.2-1.9-7.3-4.4-9-5.5-1.8-1.1-3.3-2.2-3.3-2.4 0-1.2 11.3-28.4 13-31.2 1.1-1.7 2.8-3.2 3.8-3.2s5.3 1.9 9.5 4.2m11.4 7c2.6 3.4 8.2 14.8 7.2 14.8-.6 0-4-1.6-7.5-3.6-7.1-4-8-6.1-4.2-10.1 2.5-2.6 3.2-2.8 4.5-1.1m-8.2 15.5c-.7 6-1.8 8.3-4.1 8.3-.9 0-1-.7-.4-2.8 1.2-4.3 4.2-11.2 4.7-11.2.3 0 .2 2.6-.2 5.7m7.3-2.8c1.5 1 4.7 2.8 7.1 4.1 4.4 2.2 4.4 2.2 3.7 8.3-.3 3.3-.8 6.2-1 6.5-.3.2-3.9-1.7-8-4.4-7.6-4.7-7.6-4.7-7.6-10.6 0-6.5 1.1-7.3 5.8-3.9m-3.7 12.9c1.3 1.1 4.5 3.1 7.2 4.6 2.6 1.6 4.7 3.2 4.7 3.7 0 .4-2.7 2.3-6 4.1s-6.2 3.8-6.4 4.4c-.3.7 2.9 3.3 7 6 7.1 4.6 9.9 7.5 5 5.3-1.8-.9-3.1-.7-6.2 1-5.8 3.1-7.2 4.4-8.9 8.5-.9 2.1-1.9 3.6-2.3 3.4s-3.1-1.6-6.1-3.1c-5.7-3.1-5.5-2.4-3.9-11.1.2-1-.4-2.2-1.2-2.7-10.6-6.1-14.3-8-15.5-7.6-.7.3-1.6 1.9-2 3.6-.9 4.1-1.8 4.5-5.7 2.5-9-4.5-9.1-9.7-.3-16.3 5.6-4.2 6.7-4 6.3 1.1-.3 4.2-.3 4.2 9.2 10 5.6 3.4 9.8 5.4 10.4 4.8.4-.4 1.2-4.1 1.6-8.2.9-8.6 2.2-11.8 5.8-14.1 3.5-2.1 4.4-2.1 7.3.1M496 1259c1.4 1.1 2.9 2 3.3 2 2.2 0 9.7 6.3 9.7 8 0 1.8-.4 1.7-4.7-.9-2.7-1.5-5.9-3.4-7.3-4.2-4-2.3-6-4.1-6-5.6 0-1.9 2.1-1.6 5 .7m3 8c3.2 2.2 6.3 4 6.8 4 1.6 0 3.4 2.9 2.8 4.5-.4 1.3-2.2.6-8.8-3.6-9.9-6.1-9.2-5.5-8.5-7.4.9-2.1 1-2 7.7 2.5m39.6.7c2.3 3.1 1.5 4.8-3 7-3.7 1.9-4.8 2-7 1-1.4-.7-2.6-1.7-2.6-2.2.1-.8 9.6-7.4 10.9-7.5.2 0 1 .8 1.7 1.7m10.5 5.5c3.7 2.1 4.9 4.1 3.1 5.2-1.3.8-9.2-4.3-9.2-6 0-2 1.6-1.8 6.1.8m-49 4.5c5.9 3.1 6.8 4 6.3 5.7-1 3.2-1.2 3.2-6.7.3-2.9-1.5-6.2-2.7-7.5-2.7s-2.2-.6-2.2-1.6c0-1.7 1.8-5.4 2.6-5.4.3 0 3.7 1.7 7.5 3.7m45.3-.6c2 1.2 3.6 2.4 3.6 2.8s-1.8 1.4-4 2.1c-3.7 1.2-4.2 1.1-7.5-1.1-4.1-2.8-4.2-3.2-1.2-4.7 3.3-1.6 5.2-1.4 9.1.9m2.6 7.3c0 .8-1.2 2.1-2.7 2.9-1.6.7-7.1 3.7-12.4 6.5-5.3 2.9-10.1 5.2-10.7 5.2-1.5 0-1.6-3.5-.2-6 1.4-2.6 9.4-8 11.9-8 1.1 0 2.3.5 2.6 1 .4.6 1.2.7 1.8.3 1.6-1.1 6.9-3 8.5-3.2.6 0 1.2.5 1.2 1.3"/></svg>