<svg xmlns="http://www.w3.org/2000/svg" viewBox="0 0 992 1402" fill="currentColor"><path d="M568.5 201.1c-2.2.5-8.3 1.9-13.5 3-11.4 2.5-23.4 6.5-47 15.9-4.9 1.9-28.9 13.4-44 20.9-7.1 3.6-30.1 16.7-31.7 18.1-.7.5-1.5 1-1.8 1s-3.1 1.6-6.1 3.5l-5.5 3.6-9-3.6c-9.6-3.9-10.5-3.9-19.9-.8-5.3 1.8-10.2 5.1-22.8 15.1-5.1 4.1-9.4 7.3-9.6 7.1s-1.1-2.2-2.1-4.4c-4.6-10-7.8-11.7-11.9-6.2-1.7 2.4-2.1 4.2-2 10.5 0 4.3.7 8.8 1.4 10.1 1.2 2.3 1 2.8-4 7.3-2.9 2.7-5 5.1-4.7 5.4s3.4-2.2 7-5.6c3.9-3.6 6.7-5.6 6.9-4.8.4 1 7.7-4.6 16.6-13 .8-.7 3-2.5 5-4 2.1-1.5 4.3-3.3 5-3.9 3.8-3.6 10.5-6.5 15-6.6 7.3-.1 36.3 14.5 76.7 38.6 30.1 17.9 33.5 20.6 33.5 27 0 4.7-9.3 30.8-17.5 49.1-1.4 3.2-2.4 6.4-2.2 7 .3.6.8.2 1.2-.9.5-1.1 2.8-6.7 5.3-12.5 5.5-13 8.5-20.9 12.4-32.5 5-15.1 3.5-17.3-19.8-31.4-17.3-10.4-37.4-22.1-38.1-22.1-.3 0-1.8-.9-3.3-2-1.6-1.1-11.5-6.4-22.2-11.7-21.8-10.9-25.5-11.8-33.2-8.5-2.6 1.2-4.4 1.7-4.1 1.2 1.3-2.1 11.7-7.1 16.9-8.1 5-1.1 6.2-.9 11.8 1.1 3.5 1.2 14 6.2 23.3 11 19 9.6 22.6 11.7 49.5 27.3 1.9 1.1 4.6 2.7 6 3.4 1.4.8 4.4 2.6 6.7 4.1 2.4 1.5 7.9 4.9 12.3 7.5 11.4 6.9 13.3 10.2 8.4 14.8-4 3.7-6.8 9.2-12.4 24.6-4.6 12.9-7.4 19.9-12.4 31.5-.9 2.1-1.2 3.8-.7 3.8s1.7-2.1 2.7-4.8c1-2.6 2-5.2 2.4-5.7.7-1.1 7.8-19.2 11.2-28.5 3.9-10.8 8.8-20 10.8-20 .4 0 1.2 3.3 1.9 7.2.7 4 1.7 9.1 2.2 11.3s1.5 11 2.3 19.5 1.8 16.3 2.1 17.3c.5 1.1.1 2.5-1 3.7-1.9 2.1-.7 2.8 1.2.9.9-.9 2.1-.8 4.7.5 5.4 2.6 12.3 3 18.9 1.3 7.1-1.9 10.7-4.1 10.7-6.7 0-1.1 1.2-2.7 2.8-3.6 20.5-12.6 41.5-26.5 40.8-27.1-.4-.5-21.6 12.6-25.3 15.7-.7.5-1.4 1-1.7 1s-4 2.3-8.2 5l-7.7 5-3.3-3.7c-1.8-2.1-3.3-4.1-3.4-4.4 0-.3 5.3-4.1 11.8-8.5 16.8-11.3 26.6-18.4 27.1-19.6.4-1.3-1.9 0-8.1 4.4-14 10-33.1 22.8-33.9 22.8-2.5 0 .3-2.4 13.4-11.2 7.8-5.4 16.7-11.5 19.7-13.8 9.4-6.9 9.1-6.9 15-1.9 6.3 5.5 10.2 13.3 12.4 24.9l1.6 8.5-.4-7.6c-.5-9.7-5.3-20.7-11.1-25.7-2.1-1.7-3.6-3.3-3.4-3.5 12.3-9 25.3-21.8 27.9-27.4 1.1-2.4 2.1-6.4 2.2-8.9.1-5.2-.4-4.8 18.8-17.2 12.1-7.9 28.5-17.5 33.3-19.4.9-.4 1.7-1.2 1.7-1.8 0-1.3-14.1 6.2-27.7 14.7-5.5 3.4-10.6 6.3-11.1 6.3s-2.2-1.6-3.6-3.5c-8.1-10.6-28.5-28.7-44.1-39-17.7-11.8-32.7-18.5-52.3-23.5-2.3-.6-4-1.5-3.7-2 .4-.6 1-1 1.5-1s3.3-1.1 6.2-2.4 13.2-5.8 22.8-10c16.4-7.1 17.9-7.6 24.7-7.6 24.3 0 58.1 14.4 82.8 35.3 7.2 6.1 24.5 22.8 24.5 23.7 0 .3-2.2 1.2-5 1.9-2.7.7-5 1.7-5 2.2 0 1.2 2.7 1.2 3.4 0 .9-1.4 6.6-2.1 8.7-1.1 2.7 1.5 2.7 11.6-.2 17.1-1.1 2.2-1.8 4.6-1.6 5.2.7 2.1 5-8.6 5.5-13.6.5-4.9.5-4.9 2.5-1.6 2.3 3.5 2.4 6.2 1.6 25-.3 8.4-.2 10 1.5 11.8 1.4 1.6 1.7 2.8 1.2 5.7-.8 4.1-4.5 12.4-7.6 16.9-1.1 1.6-2 4-2 5.2 0 2.2 0 2.2-3.7 0-14.7-8.6-42.5 9.6-55.8 36.6-1.9 3.9-3.5 7.7-3.5 8.4 0 1.4-1.8 2.3-9 4.4-2.5.7-8.1 2.8-12.4 4.6s-8.2 3-8.6 2.8c-.5-.3-2.2.9-4 2.5-1.8 1.7-3.6 3-4.1 3s-8.7 4.6-18.2 10.3c-9.4 5.7-23.9 14.3-32.2 19.2-8.2 4.8-21 12.3-28.3 16.6-7.2 4.4-13.4 7.9-13.5 7.9-.2 0-5.2 2.7-11.1 6-11 6.1-12.6 6.8-12.6 5 0-6.8-2.8-23.5-5.1-31.2-1.7-5.3-2.9-11.2-2.7-13 .3-3 .8-3.4 7.3-5.8 9.6-3.6 18.8-8.2 19.3-9.8.2-.7-3.2.5-7.5 2.7-8.9 4.4-17.1 7.6-17.8 6.9-.2-.2.1-1.5.8-2.8 2.1-4 2.7-6 1.9-6-1 0-4.2 6.5-4.2 8.4 0 1.3-4.1 3.6-6.5 3.6-1.9 0-1.9-.3.6-5.1 1.1-2.2 1.8-4.6 1.6-5.2s-1.9 1.8-3.8 5.3l-3.4 6.5-9 .3c-7.5.2-11.2-.3-21-2.8-12.8-3.3-30.7-8.6-34-10-1.1-.5-4-1.6-6.5-2.4-16.7-5.4-36.6-15-51.3-24.8-12-8.1-24.7-22.3-29.6-33.3-.7-1.7-1.7-3.8-2.2-4.7-2-4-.7-6 11.4-18.1 6.7-6.8 14.8-14.7 18-17.6s5.6-5.6 5.3-5.9-3.3 2-6.5 5.1c-3.3 3.2-6.5 5.5-7.3 5.2s-5.5 3.7-11.3 9.5c-5.5 5.5-10.3 10-10.6 10-1.7 0-44.3 26.9-45.9 29-.3.3-2.7 2.1-5.4 4-5.8 3.9-27.3 21-34.2 27.1-16.1 14.4-41.9 42.8-40.2 44.4.2.3 2.2-1.9 4.4-4.8 5.8-7.7 8.7-10.9 21.4-23.7 13.1-13.2 16.9-16.7 29.5-26.8 5-3.9 9.5-7.6 10.2-8.2 2.2-1.8 22.8-16.5 26.8-19.1 2.2-1.4 7.8-5 12.5-7.9 20.9-13.1 20-12.6 20-10.1 0 3.4-4.5 7.4-16.1 14.4-6.3 3.8-13.6 8.4-16.4 10.3-22.4 15.2-38.9 27.8-56 42.7-11.3 9.8-33.5 32.4-33.5 34 0 1.7 2.8 4.2 15 13.3 15.9 11.9 41.1 28.5 56.4 37.1 11.3 6.3 40 19.9 51.1 24.2 6.1 2.4 13.4 5.2 16.4 6.4 5.9 2.3 16.3 11.1 18.8 16.1.8 1.7 2.4 4.1 3.5 5.2 1.2 1.3 1.5 2.4.9 2.8-1.7 1.1-21.4 3.6-28.4 3.6-6.2 0-6.7-.1-5.3-1.6 4.1-4.1 1.3-6.2-14.4-11.4-3-1-8.6-3-12.4-4.5-3.8-1.4-8.1-2.5-9.5-2.3-3.3.4-6.1 5-4.5 7.5 1.2 1.9 14.4 6.4 27.9 9.4 4.9 1.1 9.2 2.3 9.5 2.6s-4.7.3-11 0c-14.3-.7-35.7-6-49.7-12.3-19.2-8.5-31.4-16.1-42.7-26.5-6.9-6.3-18.6-20.2-18.6-22 0-.5.9-.9 2.1-.9 7.1 0 7.7-5.1 1.3-11.7-2.5-2.7-5.3-6-6.2-7.6-.9-1.5-2-2.7-2.5-2.7-1.1 0-.1 1.4 7 9.7 5.8 6.6 6.4 8.6 3.3 10.3-4.5 2.4-8.4-1.7-13.7-14.3-1.5-3.4-2.9-6.5-3.3-6.9-.3-.4-.6 2.5-.6 6.5-.1 3.9.1 5.3.3 2.9.2-2.3.8-4.2 1.4-4.2.5 0 .9.4.9 1 0 1.4 4.4 10.6 8.2 17.2 6.3 10.8 19.6 24.7 32.4 34 17.7 12.6 45.5 23.8 70.9 28.4 20.6 3.7 52.2.4 79.3-8.3 4.5-1.4 8.5-2.4 8.7-2.1.3.3-1.5 3.8-3.9 7.9s-6.2 10.8-8.3 14.9c-5.6 10.7-5.6 10.7-31 10.8-11.4.1-23.5.6-26.8 1.2-6.9 1.1-20.9 1.2-24.5 0-2.5-.8-2.5-.8.3-.9 4.1-.1 3.6-4.2-1-9.2-4.5-4.9-9.9-7.7-21.2-11.3-9.4-3-10.9-3.6-26.1-10.9-18.8-8.9-30.2-17.4-50.7-37.8-2.7-2.6-2.8-2.3-.8 1.9 1 1.8 2.1 2.9 2.9 2.6s5 3.7 10.5 9.9c12.8 14.8 20.8 21.4 36.5 30.1 8.2 4.6 6.1 2.2-2.6-2.9-4.6-2.7-8.5-5.2-8.8-5.5-.3-.4-2.1-1.7-4.1-3.1-5-3.4-11.2-8.9-10.6-9.5.3-.3 4 1.8 8.2 4.7 9.7 6.5 28.2 15.7 40 19.9 5 1.7 11.3 4 14.1 5.1 5.4 2.1 13 7.8 10.4 7.9-2.6 0-24.2-7.1-31.8-10.6-4.1-1.9-7.7-3.2-7.9-3-1.3 1.3 25.7 11.6 38.7 14.9 3.8 1 5.6 2 5.9 3.2.3 1.6-.3 1.7-5.1 1.2-5.4-.7-22-5.5-28.8-8.4-11.3-4.8-25-11.9-31.6-16.4-7.3-4.9-20.7-17.4-26.7-24.9-1.5-1.9-2.5-2.8-2.1-2 .9 1.9 8.4 11.6 11.6 15 2.2 2.4 8.5 8 13.9 12.6 12.3 10.2 29.2 18.3 52.4 25.2 11.2 3.3 13 3.5 26 3.6 7.7 0 24.7-.3 37.8-.7 18.8-.5 24.6-1 27.3-2.3 3.3-1.6 3.4-1.6 7.6 1.7 2.4 1.9 4.5 3.6 4.8 3.9s1.6 1.1 2.9 1.8c1.3.8 4 2.3 6 3.5 9.2 5.3 11.6 6.1 17.6 6.1 8.8-.1 16-3.9 26.3-14.1 4.5-4.5 8.2-8.7 8.2-9.3s-.6-.8-1.2-.4c-.8.4-1 .3-.5-.2s1.4-.9 2-.9c1.8 0 9.3-14.8 12-23.5 2.2-7.1 2.5-7.5 5.6-8 1.8-.3 4.9-1.9 6.9-3.7 8.3-7.2 6.7-6.2 41.6-26.9 8.7-5.2 16.1-9.4 16.3-9.4s2.7-1.5 5.6-3.4c2.8-1.8 8.6-5.2 12.7-7.6s9.5-5.6 12-7c2.5-1.5 6.8-4 9.5-5.6 2.8-1.5 8-4.4 11.7-6.5 3.7-2 8-4.6 9.5-5.7s4.9-3.1 7.6-4.6c2.6-1.4 6.8-3.8 9.5-5.3 2.6-1.4 8.5-4.6 13.2-7.1 4.7-2.4 9.8-5.8 11.3-7.4 2.9-3 2.9-3 6.3-1.2 1.9 1 3.4 2.1 3.4 2.5 0 .3 4.1 2.5 9 4.9 8 3.8 9.6 4.2 13.7 3.6 7.8-1 17-6.3 25.4-14.6 4.2-4.1 8.6-8.9 9.7-10.6 3.1-4.6 9.7-18.3 10.9-22.9 2.9-10.4 3.3-12.6 3.3-18.1s.3-6.2 3.9-9.7c4.8-4.7 13.5-22.1 15.2-30.7 1.8-8.2 1.7-21.3 0-26.5-.8-2.2-2.6-5.6-4.1-7.5s-3-4.6-3.3-6c-3.4-15.9-5.5-19.6-19.6-34.5-24.3-25.7-56.7-45.9-82.6-51.4-2.7-.6-7.1-1.5-9.7-2.1-5.7-1.2-29.8-1.1-35.3.1m11 1.9c-.3.5-1 1-1.5 1-2.2 0-34 14.1-55.5 24.6-8.2 4-9.6 4.4-15 4-5.3-.3-10.2.1-24 1.9-3.7.5-3.4.2 3.5-3.1 16.2-7.9 37.6-16.7 49.5-20.5 19.4-6.3 44.9-10.9 43-7.9m-50.6 27.1c-7.2 3.7-10.9 4.7-10.9 3.1 0-1.4 15.1-8.1 16.8-7.5 1 .4-1 1.9-5.9 4.4m28.1 1.3c16.2 5.7 34.3 16.1 50 28.5 8 6.4 29 27 29 28.5s-11 8.5-12.5 8c-.6-.3-1.8-1.7-2.7-3.2-2-3.3-14.8-16.4-22-22.5-18.4-15.4-52.1-32.5-69.6-35.3-5-.8-4.7-1.3 2.9-5.4 6.8-3.7 11.3-3.5 24.9 1.4m-37.9 4.1c16.7 2.5 25.7 5.4 41.8 13.1 12 5.8 29.2 16.8 37.6 23.9 11.5 9.8 23.2 23.3 25.2 29 1.5 4.5.5 12.4-2.2 17-3.8 6.6-23.9 24.5-27.3 24.5-1.8-.1 1.2-3.1 10.3-10.5 9.8-7.9 12.2-10.5 14.8-15.9 1.6-3.2 2.7-7.2 2.7-9.6 0-3.9-2.9-11.2-5-12.5-1.5-.9-1.2.1 1 4.5 2.3 4.6 2.6 11.4.6 16.1-2.1 4.8-16.7 18.6-28.6 26.9-1.9 1.3-3.7 2.7-4 3-1.1 1.1-16 11.7-27.5 19.4-6.6 4.4-12.2 8.2-12.5 8.5s-3.9.6-8 .7c-5 0-8.6.6-10.7 1.7-3.2 1.7-3.3 1.7-3.8-.5-.3-1.3-1-6.4-1.5-11.3-.9-8.7-1.8-14.5-3.9-26.7-.5-3.1-.7-6.4-.5-7.5 1.2-4.5-6.5-10.9-28.1-23.3-1.6-.9-7.6-4.5-13.3-7.9-5.6-3.3-10.5-6.1-10.8-6.1s-1.8-.8-3.2-1.9c-2.7-1.8-20.2-11.2-33.4-17.9-3.8-1.9-6.8-3.9-6.8-4.5 0-.7 1.7-2.1 3.8-3.3 2-1.1 9.3-5.4 16.2-9.4 25.7-14.9 26.3-15.2 42.5-18.5 13.2-2.7 22-3 34.6-1m-166 43.3c1.6 2.9 2.9 6.2 2.9 7.2 0 1.1.5 2 1.1 2 .5 0 .7.5.3 1.1-.4.8-.9.7-1.5-.2-.5-.9-2-.2-5.4 3-2.6 2.4-5 3.9-5.4 3.5-1.9-2.2-3.1-11.9-2-15.9 2.3-8.3 5.6-8.6 10-.7M714 296.1c0 10.6-1.1 14.1-2.5 7.8-.9-4.1.4-20.1 1.6-19.3.5.3.9 5.4.9 11.5m-76-2.6c-.8.9-2.7 2.3-4.4 3.2-1.6.9-3.6 2.2-4.4 2.9-1.6 1.6-3.8 1.8-4.7.5-.8-1.3 12.8-10.1 13.9-9 .5.5.4 1.5-.4 2.4m-285-1.2c0 .2-1 1.2-2.2 2.3-2.3 1.9-2.3 1.9-.4-.4 1.8-2.1 2.6-2.7 2.6-1.9m366.9 6.5c3.8 7.4 3.7 10.5-.2 18.6-4.3 8.5-14.6 20.5-14.7 16.9 0-1.2.5-2.5 1-2.8 3.5-2.2 9.9-22.3 10-31.3 0-2.8.4-5.2 1-5.2.5 0 1.8 1.7 2.9 3.8m-396.5 21.4c-5.4 5.7-10.2 10.5-10.8 10.7s-.8 0-.3-.5c1.7-2.1 20.2-20.4 20.6-20.4.2 0-4.1 4.6-9.5 10.2m399.7 1c-3.2 16.4-5.9 23.4-13.4 34-2.2 3.2-4.1 5.8-4.3 5.8s0-3.2.3-7c.4-4.5.1-8.4-.6-10.8-1.3-3.7-1.2-3.7 4.2-9.2 5.1-5.3 11.5-14.3 13-18.4 1.5-3.9 1.9-.4.8 5.6m-23.7 16.5c1.4 1 2.9 2.8 3.5 4.1 1.3 2.8 1.5 18.2.2 18.2-.5 0-1.6-1.7-2.4-3.8-1.9-4.9-9-11.1-16.7-14.8-4.6-2.2-5.1-4.1-1.2-5 1.5-.3 3.2-.8 3.7-1 2.3-.8 10.7.6 12.9 2.3m-385 7.9c3.4 7.1 6.5 11.7 12.6 18.8 2 2.3 7.9 7.4 16.8 14.7 4.1 3.3 22 12.8 36.2 19.2 13.5 6.1 36.5 13.4 60.8 19.4 5.6 1.4 10.2 2.9 10.2 3.4 0 1.7-5.4 6.1-15.1 12.4-5.5 3.6-10.2 6.5-10.5 6.5s-1 .4-1.7 1c-.7.5-8.8 6-18.2 12.1-9.3 6.2-17.2 11.5-17.5 11.9s-3.3 2.6-6.8 4.9-9.3 6.5-12.9 9.2-7.2 4.9-8 4.9c-.7 0-4.6-2.1-8.6-4.7-4-2.5-9.6-6.2-12.6-8.1-3-2-6.7-3.5-8.2-3.5-3.8 0-11.1 5.7-25.2 19.9l-11.8 11.8-13.7-6.8c-7.5-3.7-18.6-9.7-24.7-13.3-13.2-7.8-41.5-26.3-41.5-27.2 0-.8 5.6-6.8 18.7-20.3 9.1-9.3 10.3-10.9 9.4-12.6-1-1.8-9.3-6.4-19.8-10.8-6.4-2.7-6.9-1.8 9.9-15.6 20.6-17 51-38.6 63.4-45.2 2.7-1.4 6.9-4.2 9.4-6.1s4.8-3.5 5.1-3.5c.4 0 2.3 3.4 4.3 7.6m366.9-3.9c3.2 1.7 3.2 1.7-1.8 3.1-4.5 1.2-16.2 6.7-17.5 8.1-3.2 3.5-12 11.3-12 10.6 0-1.9 12.4-14.8 18.4-19.1 6.6-4.9 8.2-5.2 12.9-2.7m12 8c6.4 4.4 8.7 10 8.6 20.8-.1 4.9-.4 10.1-.9 11.5-.5 1.7-.8-.2-.8-5.6-.1-9.6-1.6-13.8-6.5-18.1q-6.6-5.85-15-3.3c-9.3 2.7-17.4 9.2-24.7 20-7.5 11.1-9.8 17.5-10.7 29.2-.5 8-.4 9.1 2.1 14.1 3.2 6.6 9.1 10.3 15.3 9.5 4.7-.7 12.1-3.9 15.9-7.1 6.3-5 6.6-4.6.8 1-5.6 5.3-9.8 8-17.7 11.2-6.4 2.6-15.4.5-20.2-4.6-6-6.5-7.3-23.7-2.6-35.8.5-1.1 1.9-4.7 3.2-8 3.3-8.7 8.3-16.1 16.3-24.1 13.5-13.5 27.3-17.5 36.9-10.7m-1.4 9c4.9 3.7 6.6 8 6.6 16.8 0 9-1.5 15.4-5.6 23.5-7.6 15.1-22.4 27-33.6 27-10.8 0-16.9-11-14.3-25.8 3.9-22.7 24.4-45.2 39.9-43.8 2.4.2 5.5 1.3 7 2.3m-141.6 19.1c7.1 4.1 8.6 10.9 3 12.9-10.6 3.8-16.7 4.3-22.7 1.8-5.7-2.4-8.8-11.4-5.1-14.5 4-3.3 19.3-3.5 24.8-.2m85.1 14.9c-2 7.6-8 22.3-11.9 28.9-2 3.3-4.1 5.2-9.8 8.2-12.7 6.8-18.9 10.3-33.2 18.7-7.7 4.5-18.5 10.8-24 14s-21 12.3-34.5 20.3c-26.3 15.6-28.1 16.6-35 20.4-11.3 6.3-17.1 10-21.7 14.3-2.8 2.5-5.4 4.5-5.7 4.5s-.3-1.4.1-3c.3-1.8.1-3-.5-3s-1.3 1.8-1.7 4c-.6 3.4-1 4-3.2 4-2.6 0-2.6 0-1.7-6.3 2.3-16.4.8-25.2-5.5-32.1-2.6-2.9-2.6-2.9.3-2.2 7.8 1.9 12.6 9.5 12.6 20.1 0 3.6.4 6.5.9 6.5.7 0 5.7-3.5 7.1-5 1.6-1.7 21.4-14.1 33.4-21 1.7-.9 7.2-4.1 12.1-7 5-2.9 11.9-6.9 15.5-8.8s10.8-6 16-9 11.5-6.6 14-8c11.2-6.3 36.7-21.8 38.7-23.5 4-3.5 10.8-24 9.6-28.7-.4-1.7.6-2.5 6.1-5.1 7.4-3.4 22.9-9 23.5-8.4.2.2-.5 3.5-1.5 7.2M605 406.9c-1.9 10.4-6.5 18.9-12 22.2-2.5 1.4-8.2 4.9-12.8 7.8-4.6 2.8-8.5 5.1-8.7 5.1s-4 2.2-8.5 5c-4.5 2.7-8.3 5-8.6 5-.2 0-3.7 2-7.7 4.3-3.9 2.4-10.1 6-13.7 7.9-9.4 5.1-26.3 14.8-35 20-1.9 1.2-4.4 2.6-5.5 3.2s-4 2.4-6.3 3.9c-2.4 1.6-4.6 2.7-4.8 2.4-.2-.2.3-2.4 1.2-4.8.9-2.5 1.8-8.1 1.9-12.9.2-5.8.7-8.7 1.7-9.3.7-.4 4.5-2.4 8.3-4.5 9.3-5.1 15.1-8.4 26.5-15 5.2-3 11.1-6.3 13-7.4s4-2.4 4.5-2.8c.6-.4 2.7-1.7 4.8-2.9 8.1-4.6 10.9-6.2 30.7-18.1 27-16.2 30.3-18 31.4-17 .4.4.3 4-.4 7.9m-374 6.9c5.4 2.7 9.6 5.4 9.8 6.3.2 1-5.2 7.2-13.3 15.5-7.4 7.6-13.5 14.2-13.5 14.6s-.5.8-1.2.8c-1.7 0-22.8-16.1-22.8-17.4 0-.6 5.8-6.8 12.8-13.9 14.8-14.7 11.7-14 28.2-5.9m402.5 4.7c.7 2.7 1.6 5.8 2 6.7.4 1 .3 1.8-.2 1.8-.9 0-9.3-5.9-9.3-6.5 0-.1 1.2-2.9 2.7-6.1 2.4-5 2.8-5.5 3.1-3.4.2 1.4 1 4.7 1.7 7.5m51.5-4c0 .3-.2.5-.5.5s-.5-.2-.5-.5.2-.5.5-.5.5.2.5.5M478.9 431c4.4 15.1 5.1 18.5 5.1 27 0 7.9 0 7.9-6.2 11.9-3.5 2.2-6.7 4.4-7.3 4.9-2.9 2.4-10.5 7.2-11.4 7.2-.6 0-3.3-1.3-6.1-3-2.7-1.6-5-2.6-5-2.1s2 2.1 4.5 3.5c4.3 2.6 5.2 3.6 4 4.8-.3.3-2.6-.6-5.2-1.8-6.5-3.3-13-3.1-21.7.6-9.5 4-13.8 7.1-23.2 16.5-7.1 7-16.4 18.4-16.4 20 0 .3-1.1 2.3-2.6 4.4-2.7 4.1-7.5 6.2-25.8 11.1-7.9 2.1-7.9 2.1-10.7-1.2-1.6-1.8-2.8-3.8-2.9-4.4 0-1.7-8.3-10.7-12.4-13.5-2-1.3-3.6-2.9-3.6-3.5 0-2.5 20.2-20.4 38.6-34.1 10.9-8.2 55.6-38.2 68.6-46 6.4-4 9.9-6.9 12.2-10.6 1.6-2.3 2.5-2.7 6.5-2.7 4.7-.1 15.8-2.3 16.9-3.5.4-.4.8.6 1 2.2.2 1.5 1.6 7.1 3.1 12.3m-132.6 46.5c6.5 4.2 11.7 8.1 11.7 8.8s-2 2.6-4.3 4.4c-4 3-9.2 7.8-19.7 17.9l-4.6 4.4-7.4-2.5c-4.1-1.4-8.5-2.9-9.7-3.5-1.3-.5-3.3-1.4-4.5-1.9-1.3-.4-4.5-1.8-7.2-3-4.9-2.2-4.9-2.2-2.5-4.9 4.6-5.2 20.4-20.5 23.9-23.1 1.9-1.4 4.1-3.2 4.9-4 2.5-2.3 7.4-.5 19.4 7.4m137.7-3.1c0 2.3-.4 5.6-.9 7.2s-1.5 5.1-2.2 7.7c-1.6 5.7-3 7.3-10.8 12.7-3.3 2.2-6.3 4.5-6.7 5.2s-1.4-2.2-2.1-6.6c-.7-4.3-2.1-9.2-3.1-10.8-1.7-2.9-1.7-3 .8-4.9 1.4-1.1 3.2-2.5 4-3.2 5.5-4.3 17.5-11.7 19.1-11.7s1.9.7 1.9 4.4M445.4 486c4.5 4 6.8 10.1 6.4 17-.3 5-.4 5.2-1.2 2.5-2-6.7-5.5-10.3-18.4-19.2-1.5-1.1-1.5-1.3.8-2.2 4.8-1.9 8.7-1.3 12.4 1.9m-13 2.4c2.9 2.3 2.9 2.3-3 2.8-7.6.7-15.1 4.8-24.4 13.2-3.2 2.9-2.7 2.2 1.5-2.2 5.2-5.5 11-10.1 19-14.9 2.8-1.7 3.6-1.6 6.9 1.1m6 5c4.2 1.8 8.2 5.8 10.3 10.4 2.3 5.1 2.2 20.7-.1 28.5-1.9 6.4-3.4 7.3-1.7 1 1.9-6.6 1.4-17.8-1-22.8-3.1-6.6-7-9-14.4-9-8.1.1-14.3 3.5-22.5 12.2-17.7 18.7-22.8 46.7-10.7 58.1 4.8 4.6 15.4 4.5 22.2-.1 5.4-3.7 12.5-9.9 12.5-10.9 0-.5-2.4 1.2-5.2 3.8-13 11.7-25.8 12.3-32.2 1.5-3.6-6.1-3.1-21.6 1-30.9 6.4-14.7 14.5-24.3 25.1-29.7 4.6-2.3 6.4-2.7 11.2-2.3 6.1.4 8 1.6 11.6 7.3 2.8 4.3 2.5 19.6-.4 27.9-2.6 7.2-2.6 9.5-.1 4.1 1-2.2 1.9-3.4 1.9-2.7.1 2.1-2.9 7.3-3.9 6.7-1.1-.7-4.2 5.4-3.3 6.8.3.5.2.7-.4.4-1.3-.8-5.4 4.8-4.7 6.6.7 2-13.1 14.8-19.1 17.7-3.2 1.5-7.4 2.5-11.5 2.8-5.8.3-7 0-10.7-2.4-6.6-4.3-8.8-10.3-8.8-23.3 0-7.3.6-12 1.7-15.1 5.9-16.2 8.9-21.4 18.6-32 6.4-7 11.1-10.4 18.9-13.6 6.6-2.7 10.9-3 15.7-1M210.5 519c.3.5.2 1-.4 1-.5 0-1.3-.5-1.6-1-.3-.6-.2-1 .4-1 .5 0 1.3.4 1.6 1m180.6 3.3c-1 .9-1.1.8-.5-.6.3-1 .9-1.5 1.2-1.2s0 1.1-.7 1.8m-98.9 4.2c23.5 8.1 29.3 11.2 24.3 13.2-1.8.6-25.3-4.9-33.2-7.9-4.2-1.5-5.3-2.4-5.3-4.2 0-2.1 1.7-4.6 3.1-4.6.4 0 5.4 1.6 11.1 3.5m95.3 3.8c-5.9 12.7-7.3 28.9-3.5 38.9 1.1 2.8 1.7 5.4 1.5 5.6-1.1 1.2-17.5-11.3-17.5-13.2 0-3.4 20.5-38.3 21.8-37.1.1.1-.9 2.7-2.3 5.8M235 547.6c0 .2-1.3-.2-3-1.1-1.6-.9-3-1.8-3-2.1 0-.2 1.4.2 3 1.1 1.7.9 3 1.8 3 2.1m22.3 9.9c2.6 1 4.5 2 4.3 2.3-1 .9-24-9.1-25.2-10.9-.2-.5 3.2.9 7.8 3 4.6 2 10.4 4.6 13.1 5.6m9.7 3.5c1.3.9 1.3 1 0 1-.8 0-2.2-.5-3-1-1.3-.9-1.3-1 0-1 .8 0 2.2.5 3 1m4.7 1.6c-.3.3-1.2.4-1.9.1-.8-.3-.5-.6.6-.6 1.1-.1 1.7.2 1.3.5m4 1.1c-.4.3-1 .3-1.4 0-.3-.4 0-.7.7-.7s1 .3.7.7m6.3 1.3c1.3.8 1.3 1-.2 1-.9 0-2-.5-2.3-1-.8-1.3.5-1.3 2.5 0"/><path d="M712.7 333.1c-5.7 7.2-6.9 9.9-4.3 9.9 3.5 0 13.1-13.9 11-16-.7-.7-2.9 1.3-6.7 6.1m1.8 2.4c-2 2.5-4.1 4.5-4.8 4.5-.6 0 .1-1.2 1.5-2.8 1.4-1.5 3.4-4 4.4-5.6s2-2.3 2.2-1.7-1.3 3.2-3.3 5.6M674.3 361.9c-5.6 1.9-6.8 2.8-13.2 9.4-8.7 9-15 25-13.6 35.1.7 5.9 1.9 8.3 5.4 11.3 12 10.4 35.1-8.3 40.1-32.4 3.5-17.1-5.2-28-18.7-23.4m12.5 2.8c7.1 4.4 6.9 20.7-.4 34.2-8.2 15.2-22.6 23.7-31.4 18.4-4.3-2.5-5.5-5.7-5.5-14.7.1-12.5 5-23.1 15-32.5 7.9-7.4 16.1-9.4 22.3-5.4M460.5 439.9c-1.6 1-5.5 3.1-8.5 4.8s-11.1 6.3-18 10.3-13.8 8-15.5 9c-15 8.7-25.8 15.1-37.5 22.3-7.1 4.4-8.7 5.3-24 15-5.7 3.7-10.9 6.8-11.5 7.1-.5.2-.7.6-.3 1 .3.4 3-.8 6-2.7 9.1-5.8 31.3-19.7 34-21.2.9-.6 5-3 8.9-5.4 4-2.4 8.2-4.9 9.3-5.5 2.6-1.4 21.2-12.3 24.6-14.5 1.4-.9 3.6-2.1 4.9-2.8 7.6-4.1 10.7-5.9 11.1-6.4.6-.6 17.8-10.1 20.3-11.1.9-.4 1.7-1 1.7-1.3 0-1-2.5-.4-5.5 1.4M422.1 509.7c-9.1 3.2-20.8 17.7-25 31.2-1.7 5.3-1.3 15.1.7 19.1 2.2 4.4 7.5 8 11.9 8 13.4 0 31.2-21.4 32.9-39.6 1.5-16.3-6.5-23.6-20.5-18.7m14.7 2.3c2.9 2.7 5.2 8.4 5.2 12.8 0 1.9-.9 6.5-2 10.1-6.6 22.4-26.9 37.5-37.9 28.3-2.8-2.3-3.5-3.8-4.1-8.1-.4-2.8-.3-7.7.1-10.7 1.5-11.2 12.2-26.9 21.8-31.9 6-3.2 13.8-3.4 16.9-.5M641 225.5c-.7.8-1 2.5-.6 3.8 1 4.2 2.3 5.2 23.1 19.6 12.7 8.8 16.6 12.5 22.5 21.1 8.2 12.1 10.5 27.1 5.4 35.7-1.4 2.5-2.8 4.3-3 4-.2-.2.3-3.3 1.2-6.8 2.1-8.5.8-14.1-3.8-16.9-2.3-1.4-3.6-1.6-5-.9-1.3.7-2.5.5-4.2-.6-2.2-1.5-2.7-1.5-6.2 0-8.3 3.5-10.9 9.4-5.8 13.4 2.3 1.8 2.8 1.9 6.7.5 5.2-1.8 8.7-5.1 8.7-8.1 0-1.8.5-2.3 2.8-2.3 3.7 0 5.3 3 5.3 9.5 0 8.9-3.5 14.8-13.8 23.2-10.8 8.7-28.6 27.1-34.3 35.3-1.3 1.9-2.7 3.7-3 4-1.1 1.1-6.7 10.7-8 14-1.7 4.4-3.4 5.5-8.5 5.5-2.9.1-5.4 1-8.7 3.3-2.6 1.8-4.9 3.2-5.2 3.2s-4.9 2.7-10.2 6.1c-19.8 12.3-21.2 12.6-40.6 8.5-20.8-4.4-50.8-5.6-102.9-4.3-5.9.2-7.1-.1-12-3.2-4.4-2.8-6.3-3.4-10.5-3.3-2.9 0-6.5.7-8 1.4-1.6.8-3.7 1.3-4.7 1-1.6-.3-1.8 0-1.2 1.9.7 2 .5 2.1-2.2 1.6-3.3-.6-10.5 1.4-11.1 3.2-.5 1.4 4.1 1.4 5.5 0 .7-.7 1.7-.8 2.5-.3 2.4 1.5 6.8 1.3 6.8-.3 0-1 .7-1.4 2-1 1.1.3 2.3.1 2.6-.4s1.6-.9 3-.9c1.7 0 2.4-.5 2.4-2 0-3.1 5.9-2.6 11.5.9 6.8 4.3 12.9 5.5 21.4 4.2 20-3.1 80.6-.1 99.8 5 13.9 3.6 15.4 3.2 40.7-12.3 13.4-8.3 16.6-9.8 20.1-9.8 5 0 6.9-1.8 11.4-10.9 7-14 29-38.4 47.6-52.6 5-3.8 9.8-7.9 10.8-9 7.3-8 5.9-26.6-2.8-39.9-6-9.1-12.3-14.8-28.5-25.6-10.4-7-18-13.6-18-15.8 0-4.3 17.2 2.8 22.9 9.3 2 2.4 5.1 2.5 5.1.1 0-1.7-2.1-3.6-4-3.6-.9 0-3.2-1.2-5.1-2.6-4.4-3.4-13.3-7.4-16.3-7.4-1.3 0-2.9.7-3.6 1.5"/><path d="M665 311.3c-19.3 13.2-30.3 20.9-31 21.7-.3.3-3.4 2.6-7 5.1-3.6 2.4-6.7 4.6-7 5-.3.3-3.4 2.5-6.9 4.9-3.4 2.4-5.8 4.6-5.2 4.8.8.3 38.2-25.7 40.1-27.8.3-.3 8.2-5.7 17.5-11.9 18.9-12.6 19.5-13.1 17.5-13-.8 0-8.9 5.1-18 11.2M689.5 328c.3.5 1.4 1 2.3 1 1 0 3.5.9 5.6 2.1 2.2 1.2 3.6 1.5 3.4.8s-2-2-3.8-3.1c-3.7-1.9-8.5-2.5-7.5-.8M592.6 370.5c-3.2 1.9-6.2 3.5-6.7 3.5s-1.5 1.1-2.1 2.5c-1 2.1-.9 2.9.5 4.3 1.3 1.3 2.2 1.4 3.5.6.9-.6 3.7-2.1 6.2-3.4 6.3-3.4 8-5 8-7.5 0-1.8-1.7-3.5-3.4-3.5-.1 0-2.8 1.6-6 3.5m7.4.2c0 2.4-12.9 9.8-14.4 8.3-1.3-1.3-.5-2 6.8-6.4 6.8-4.1 7.6-4.3 7.6-1.9M525.6 403.9c-.4.7-29.9 17.2-39.3 22-1.3.7-2.3 1.6-2.3 2.2 0 .5 2.8-.6 6.3-2.4 11.9-6.5 17.2-9.4 20.7-11.4 1.9-1.1 6.5-3.6 10.3-5.7 3.7-2.1 6.7-4.2 6.7-4.7 0-1.1-1.7-1.2-2.4 0M183.9 436.6c-3.4 8.9-5 17.2-3 16 .5-.4 1.9.6 3.1 2.1 2.2 2.8 2.2 2.8.1-1-2.6-4.7-2.6-7.3-.1-13.9 1.1-2.8 1.8-5.4 1.5-5.6-.2-.3-1 .8-1.6 2.4M180 474.8c0 1.8.5 3.2 1 3.2.6 0 .8-1.1.4-2.8-1-3.9-1.4-4-1.4-.4M181.6 482.5c.4 1.6 1.1 3.7 1.5 4.5.6 1 .7.4.3-1.5-.4-1.7-1.1-3.7-1.5-4.5-.6-1-.7-.4-.3 1.5M184.1 490c0 .8.4 2.2.9 3 1.2 1.8 1.2.2 0-2.5-.6-1.3-.9-1.5-.9-.5M190 504c0 1.5 3.9 7.2 4 5.8 0-.4-.9-2.2-2-4s-2-2.6-2-1.8M349.5 542.2c-9 2-10.7 3-10.2 5.8.4 2.3 4.1 2.4 13.4.4 8.6-1.8 10.7-3 10.1-6.1-.4-2.4-2.7-2.5-13.3-.1m12.3 1c-.9 2.7-21.8 6.3-21.8 3.8 0-.9 3.5-2.1 12-3.8 6.8-1.4 10.2-1.4 9.8 0M323.8 555.7c-10.4.2-15.8.7-15.8 1.4 0 .8 6.5 1 20.9.7 11.8-.1 20.6-.7 20.1-1.2-1.1-1.1-6.5-1.3-25.2-.9M673.5 571.7c-7.7 1.5-13 14.2-10.5 25.2 2 8.6 6.5 17.4 12.2 23.6 7.2 7.9 12 11.1 38.8 25.2 4.1 2.2 9.3 5 11.5 6.3 15.6 9 29 14.2 46.5 18 11.8 2.5 23.2 7 33 13 4.1 2.5 8.7 5.1 10.1 5.8 4.8 2.5 12.3 8.7 14.6 12.1 4.4 6.5 2.4 14.2-5.5 21.2-2.7 2.4-6.2 5.1-7.8 5.9s-5.6 3.1-8.9 5.1c-6 3.6-15.8 9.2-25 14.4-2.7 1.6-4.5 3-3.9 3.2 1 .3 8.4-3.8 34.1-18.8 15-8.8 20.3-15.1 20.3-24.2 0-7.4-5.2-13.2-19-21.3-3.6-2.1-7.8-4.7-9.5-5.7-10.8-6.5-20.6-10.1-37.3-13.7-15.7-3.5-19.5-5-45.6-18.8-4.4-2.3-8.4-4.6-9-5.1-.6-.4-5.6-3.2-11.1-6.1-18.8-9.9-26.8-16.8-32.7-28.2-5.3-10.3-5.8-25.7-1.1-31.1 2.7-3 8-4.9 11.7-4.1 4.3.9 10.7 4.6 10.3 5.8-.5 1.4-2 1.2-7.7-.9-4-1.5-4.8-1.5-7.7-.1-8.9 4.2-8.1 20.1 1.5 34.3 6.3 9.2 9.7 11.6 45.7 31.3 3.3 1.8 8 4.4 10.5 5.8 13.1 7.4 22.2 10.8 37 14.2 5.2 1.2 10.5 2.6 11.8 3.1s3.1.9 4 .9c2.2 0 19.6 8.4 32.1 15.5 17.9 10.2 22.9 18.2 19.3 31.1-2.1 7.2-9.1 13.9-22.2 21.1-15.2 8.4-20.4 11.4-21.4 12.2-1.1.9-6 3.7-12.8 7.4-2.1 1.2-3.8 2.4-3.8 2.9 0 1.4 1.5.9 6.1-2 2.4-1.6 6.9-4.2 9.9-5.9 11.9-6.6 30.7-17.6 34.3-20 5.3-3.7 11.3-13.1 12.2-19.1 1.6-12-4.5-20-23-30.2-19.7-10.8-26.5-13.9-35.6-16-9-2.1-27.3-7-29.4-7.9-7.5-3.2-31.4-15.6-38.5-20-.8-.6-5.9-3.5-11.4-6.6-16.3-9.3-22-14.4-27.1-24.5-2.2-4.2-2.9-7.4-3.3-13.3-.4-7.1-.3-8 1.8-10.2 3.1-3.3 9.1-3.4 13.9-.2 13.1 8.5 17.8 10.9 19.9 10.3 2.4-.8 15.1 6.5 16.5 9.4 2.2 4.4 7.7 3.4 7.7-1.4 0-3-1.8-4.6-5.3-4.6-3.8 0-13.1-5.2-17.7-9.8-2-2-5.6-4.7-8.1-5.8-19.8-9.6-20.2-9.8-25.4-8.7m19.5 9.2c0 .5-.7 1.4-1.5 2.1-1.3 1-1.5.9-1.5-.9 0-1.2.6-2.1 1.5-2.1.8 0 1.5.4 1.5.9m8 2.8c0 .5-.7 1.7-1.5 2.7-1.5 2-1.5 2-1.5 0 0-1.2.3-2.4.7-2.7.9-.9 2.3-.9 2.3 0m1.6 4.5c-1.1 1.5-1.6 1.8-1.6.7 0-1.6 2.1-4.2 2.8-3.4.2.2-.3 1.4-1.2 2.7m3.3 1.7c-1.5.5-2.2-.6-1.4-1.9.6-.9 1-.9 1.6.1.5.8.4 1.5-.2 1.8m22.8 9.7c.3.8-.1 2.3-1 3.1-1.3 1.3-1.9 1.4-3.1.3-.9-.7-1.6-2.1-1.6-3.1 0-2.4 4.8-2.6 5.7-.3M441.7 616.7l-35.8.3.3 11.3.3 11.2 38-.3c20.9-.2 38.8-.6 39.8-.8 1.3-.4 1.7-1.6 1.7-4.7v-4.2l20.9.3 20.8.3.7 6.8c1.2 11.8.5 73.6-.8 76.3-.8 1.6-2.1 2.3-4.2 2.4-4 .1-5.4 1-5.4 3.7 0 1.2-.9 2.8-2 3.5s-2 2.1-2 3.2c0 1-.7 2.3-1.6 2.8s-1.4 1.8-1.2 3.3c.3 2.1.9 2.4 4.6 2.5 2.3 0 4.5.4 4.8.7.4.3 1.5.2 2.6-.4 1.4-.8 2.5-.6 4.3.5 1.4.9 3 1.6 3.6 1.6 2.6 0 18.6-10.5 23.1-15.1 4.3-4.4 4.6-5.1 4.1-8.6-.3-2.1-1.1-4.9-1.7-6.3-1.4-3.1-9.3-7.7-10.8-6.2-1.4 1.4-.1 5 2.2 5.7 2.1.7 4.5 3.3 3.7 4.1-.3.3-1.5-.1-2.6-.8-2.2-1.3-3.2-.7-4.4 2.6-.6 1.7-5.1-2.2-7.8-6.6-1.4-2.4-3.2-4.3-4-4.3-1.2 0-1.5-5.7-1.9-36.5l-.5-36.5-22.2-.3-22.3-.2v-4.8c0-5.6-1.3-7.3-5.4-7-1.7.2-19.2.4-38.9.5m42.1 11 .3 9.3-29.8.1c-16.4 0-33.6.1-38.3.2l-8.5.2v-18l33-.5c18.2-.3 35.3-.5 38-.5h5zm71.2 82.8c0 3.3-.4 4.5-1.4 4.5-2.1 0-2.9-1.7-1.1-2.4 2.5-.9 1.7-3.3-2-6.2-4.7-3.6-4.4-4.9.5-2.4 3.8 1.9 4 2.3 4 6.5m-18.6-2.1c.3 1.3 2.2 3.3 4.1 4.5 3.9 2.2 4.7 5.6 1.6 6.6-2.1.6-3.1 3.3-3.1 8.2 0 1.7-.5 3.5-1 3.8-.6.4-1 .3-.9-.2.4-2.4-.3-3.4-2.3-3.1-1.9.2-2.4-.2-2.6-2.8-.3-2.7.2-3.4 3.4-5.1 2.1-1.1 4-2.5 4.2-3.3.3-.8-1.3-.3-4.3 1.3-3.9 2.2-5.1 2.5-6.8 1.5-3.2-1.6-3.2-1.6-.7-4.3 1.2-1.3 2.2-3.6 2.2-5.2 0-6.1 4.8-7.5 6.2-1.9m13.3 4.3c-.4.3-1 .3-1.4 0-.3-.4 0-.7.7-.7s1 .3.7.7m1.2 2.9c1.6 1.2 2 1.9 1.2 2.7-.7.7-1.7.5-3.1-.8-1.1-1-2-1.5-2-1.1s-.5.4-1 .1c-1.3-.8-.3-2.5 1.3-2.5.7 0 2.3.7 3.6 1.6m4.5 3.5c-2.7 3-3.8 2.2-1.2-.9 1.3-1.6 2.5-2.5 2.7-2 .1.5-.5 1.8-1.5 2.9m-30.8 2.8c2.6 1.6 3.3 2.8 3.8 6.6.4 2.6.5 4.9.2 5.2-.9 1-2.6-.8-2.6-2.8 0-2.7-2.6-7.5-4.5-8.2-1.5-.6-2.1-2.7-.7-2.7.4 0 2.1.9 3.8 1.9m25.2.7c.2 1.4-.8 2.6-3.8 4.3-4 2.2-4 2.2-4-.4 0-2.2.3-2.5 2.6-1.9 2.5.6 2.6.5 2-2-.6-2.3-.4-2.7 1.1-2.4 1 .2 1.9 1.2 2.1 2.4m-19.8.9c0 .3-.2.5-.5.5s-.5-.2-.5-.5.2-.5.5-.5.5.2.5.5m-9 3.2c2.2 2.8 2.3 6.4.2 7.1-.8.3-1.2-.6-1-3 .2-2.6-.2-3.5-1.9-4.3-2.6-1.1-3-2.5-.9-2.5.8 0 2.4 1.2 3.6 2.7m-1.6 2.2c.6.9-3.6 4.1-5.4 4.1-1.7 0-1.1-2.8.8-3.9 2.1-1.3 3.9-1.4 4.6-.2m14.6 5.5c0 .3-.7.6-1.5.6-.9 0-1.5-.9-1.5-2.1 0-1.8.2-1.9 1.5-.5.8.8 1.5 1.7 1.5 2"/><path d="M415.8 625.8c-3.4 4.4-3.5 6.2-.4 6.2 1.5 0 2.6.7 2.8 1.7.3 1.5.6 1.4 1.7-.6q1.35-2.4.3-3c-.6-.3-1.2-2.3-1.4-4.2l-.3-3.7zm2.2 2.7c0 .8-.7 1.5-1.5 1.5-1.6 0-2-1.2-.8-2.3 1.1-1.2 2.3-.8 2.3.8M424.8 623.1c-1 .5-1.8 1.7-1.8 2.6 0 1.5.2 1.4 1.4-.2.8-1.1 1.9-1.6 3-1.2 2.3.9 2 3.4-.6 4.8-5.2 2.7-5.1 5.9.2 5.9 2.2 0 4-.5 4-1 0-.6-1.5-1-3.2-1l-3.3-.1 3.3-2.7c3.6-3 3.9-4.3 1.6-6.6-1.8-1.9-2.3-1.9-4.6-.5M443 623.5c-1 1.2-1 1.9-.2 2.7 1.7 1.7 1.5 3.8-.4 3.8-1.1 0-1.4-.6-.9-2 .9-2.9-1-2.5-2.3.5-1.6 3.5-1.6 3.5 1.8 3.5 1.7 0 3 .4 3 1 0 .5.4 1 .9 1 .9 0 .7-10.7-.2-11.6-.2-.3-1 .3-1.7 1.1M450 623.5c-.7.8-1 2.3-.7 3.4.2 1 .1 2.5-.4 3.2-1.2 2 .9 4.9 3.6 4.9 3.1 0 3.9-1.5 3.6-6.4-.3-6.1-3.3-8.5-6.1-5.1m4 1.8c0 .8-.3 1.7-.7 2-.9.9-3.4-1.3-2.7-2.4.8-1.4 3.4-1.1 3.4.4m.8 5.4c.5 1.7-2.6 2.9-4 1.5-.6-.6-.7-1.5-.3-2.2.9-1.4 3.7-.9 4.3.7M459.3 624c-1.9 2.9-1.6 7.4.6 9.4 2.7 2.4 5.8 1.3 6.6-2.4 1.3-6.1-4.4-11.7-7.2-7m5.3 3.6c.7 3.9-.5 6-3 5.1-1.6-.6-2.3-6.7-.9-8 1.6-1.7 3.3-.4 3.9 2.9M433 630c0 .5.7 1 1.5 1s1.5-.5 1.5-1c0-.6-.7-1-1.5-1s-1.5.4-1.5 1M532.6 711.7c.4 1.6.8 3 1 3.1.6.8 4.4-1 3.9-1.8-.3-.5-1.2-.7-2-.3-1 .3-1.5-.2-1.5-1.6 0-1.2-.5-2.1-1-2.1-.6 0-.8 1.1-.4 2.7M359.4 653.3c-.3.8-.3 5.8-.2 11.3l.3 9.9h79l.3-5 .3-5 29.9-.4 29.8-.3.4 7.8c.3 4.4.4 19.6.4 33.9-.1 25.9-.1 25.9-2.6 27.2-3.1 1.5-4.2 4.6-2.9 8.1 1.5 3.9 5.9 8.2 8.4 8.2 3.2 0 6.8-3.8 6.1-6.4-.3-1.1-.6-2.6-.6-3.2s-1.3-2.5-3-4.2c-2.9-3.1-2.9-3.1-3.1-37 0-18.6-.4-34.4-.8-35.1-.6-.9-8.6-1.1-31.4-.9l-30.6.3-.3-5-.3-5-39.3-.2c-31.4-.2-39.4 0-39.8 1M437 663v9l-6.7.1c-3.8.1-20.7.2-37.8.2l-31 .1-.3-9.2-.3-9.2H437zm64.8 74.3c2.9 3 3.4 9 .9 9.5-3.7.8-8.5-6.5-7-10.5.8-2 3.7-1.5 6.1 1m3.2.2c0 .3-.2.5-.5.5s-.5-.2-.5-.5.2-.5.5-.5.5.2.5.5"/><path d="M368.6 662.1c-1.5 2.2-2.7 4.1-2.5 4.2 6.1 3.2 6.8 3.5 7.2 2.3.6-1.6-.4-10.6-1.2-10.6-.3 0-1.9 1.9-3.5 4.1m3.4 1.3c0 1.6-1.8 3.1-2.7 2.2-.8-.8.5-3.6 1.7-3.6.5 0 1 .6 1 1.4M377.1 659.3c-1.5 1.9-.2 2.9 1.5 1.2 1.5-1.4 4.4-1 4.4.6 0 .4-.7 1.4-1.6 2.1-6.6 5.5-6.9 6.8-1.4 6.8 2.2 0 4-.5 4-1 0-.6-1.2-1-2.6-1-2.6 0-2.6 0 .6-3 2.6-2.5 3-3.2 2-5-1.2-2.3-5.2-2.7-6.9-.7M395.1 661.5c-2.4 3.6-2.2 7.1.4 6.1.8-.3 1.9.2 2.4 1.1.8 1.4 1 1.4 2-.5.7-1.4.8-2.3.1-2.7-.5-.3-1-2.2-1-4.1 0-4.3-.9-4.3-3.9.1m2.9 1.9c0 1.6-1.8 3.1-2.7 2.2-.8-.8.5-3.6 1.7-3.6.5 0 1 .6 1 1.4M404.6 662.1c-3 4.3-2.6 5.8 1.7 5.9.9 0 1.7.6 1.7 1.2.1.8.6.6 1.4-.5 1-1.3 1.1-2.7.3-6.2-.6-2.5-1.3-4.5-1.6-4.5s-1.9 1.9-3.5 4.1m3.4 1.3c0 1.5-1.8 3.1-2.6 2.3-.7-.7.7-3.7 1.7-3.7.5 0 .9.6.9 1.4M415 659.7c-1 1.2-1.1 1.8-.2 2.1.7.2 1.2 2.1 1.2 4.3 0 2.1.5 3.9 1 3.9.6 0 1-2.7 1-6 0-6.3-.5-7-3-4.3M386.5 665c-.3.5.3 1 1.4 1 1.2 0 2.1-.5 2.1-1 0-.6-.6-1-1.4-1s-1.8.4-2.1 1M497 738.8c0 2.8 2.5 5.6 4.3 4.9 1.7-.6 1.4-2.9-.6-5.5-1.4-1.8-3.7-1.5-3.7.6m3.4 1.8c.3.8.2 1.2-.4.9s-1-1-1-1.6c0-1.4.7-1.1 1.4.7M406.6 694.6c-2.1 2.1-2 5.7.3 8.5 1.6 2 2.1 2.1 3.5 1 2-1.7 2.1-7.5 0-9.5-.8-.9-1.7-1.6-1.9-1.6s-1.1.7-1.9 1.6m3.4 4.4c0 3.9-1.7 4.7-3.1 1.6-.9-2-.9-2.9.1-4.1 1.7-2 3-1 3 2.5M422 698c0 5.7 1.5 7 5.6 5.1 2.2-1 2.4-1.5 1.8-4.8-.8-4.2-1.8-5.3-5.1-5.3-2.1 0-2.3.5-2.3 5m5.5-1.5c0 .5-1 1.1-2.2 1.3-1.6.2-2.3-.2-2.3-1.3s.7-1.5 2.3-1.3c1.2.2 2.2.7 2.2 1.3m.5 4c0 .9-.9 1.5-2.5 1.5s-2.5-.6-2.5-1.5.9-1.5 2.5-1.5 2.5.6 2.5 1.5M377.2 695.2c-.7.7-1.2 2.9-1.2 4.9 0 2.9.5 3.9 2 4.4 3 .9 4-.2 4-4.4 0-3.3-1.4-6.1-3-6.1-.3 0-1.1.5-1.8 1.2m3.6 4.6c.3 2.7 0 3.2-1.7 3.2-1.6 0-2.1-.6-2.1-2.8 0-5.3 3.3-5.6 3.8-.4M389 696.4c-1.1 3 .1 7 2.4 7.9 2.5 1 5.2-3.8 4-7.1-1.3-3.8-5.1-4.2-6.4-.8m4.8 2.5c.3 2.7 0 3.2-1.5 2.9-1.9-.3-2.8-3-1.9-5.4 1-2.6 3.1-1 3.4 2.5M397.4 696.5c-.8 3.4.2 7.1 2.2 7.9 2.1.8 4.4-1.1 4.4-3.5 0-1.9-3.3-4.3-4.4-3.2-.3.3-.6.1-.6-.5 0-.7.9-1.2 2-1.2s2-.5 2-1c0-.6-1.1-1-2.5-1-1.8 0-2.6.7-3.1 2.5m4.4 4.2c-.4 2.2-2.2 2-2.6-.1-.2-1 .3-1.6 1.3-1.6s1.5.7 1.3 1.7M414.7 694.6c-1.5 1.5-.6 2.4 1.8 1.8 1.5-.4 2.5-.2 2.5.5 0 .6-1.1 1.8-2.5 2.7s-2.5 2.2-2.5 2.9c0 1.4 4.5 2.9 6.1 2 1.5-1 0-2.5-2.4-2.5-2.1 0-2.1 0 .1-1.6 2.8-2 2.6-5.8-.3-6.2-1.2-.2-2.4 0-2.8.4M337.2 696.2c-2 2-1.4 4.7 1.3 5.4 1.4.3 2.2 1 1.9 1.6-.3.5-1.3.7-2.1.4-.9-.4-1.3-.1-1.1.6 1.3 3.8 5 1 5-3.7s-2.5-6.8-5-4.3m3.3 2.8c0 .7-.6 1.5-1.2 1.7-.8.3-1.3-.4-1.3-1.7s.5-2 1.3-1.8c.6.3 1.2 1.1 1.2 1.8M344 696c0 1.7 2.4 9 3 9 .3 0 1.2-1.5 1.9-3.3l1.3-3.2 1.5 3.5 1.6 3.5 1.4-3.4c.8-1.8 1.2-4.3 1-5.5-.3-1.7-.5-1.5-1.2 1.1-.9 3.8-2.2 4.3-2.7 1.1-.4-3.1-2.6-3.4-3.4-.4-.8 3.3-2.4 3.4-2.4.2 0-1.4-.4-2.8-1-3.1-.5-.3-1-.1-1 .5M359.5 698.6c-1.8 4.3-2.1 8-.4 5.1.5-.9 1.9-1.7 2.9-1.7s2.4.8 2.9 1.7c1.6 2.7 1.3.4-.5-4.4-.9-2.4-2.1-4.3-2.5-4.3-.5 0-1.6 1.6-2.4 3.6m3.5.3c0 .6-.4 1.3-1 1.6-.5.3-1-.1-1-.9 0-.9.5-1.6 1-1.6.6 0 1 .4 1 .9M368.5 696.5c-.3.8-.7 2.1-.9 2.7-.8 2.7 1.3 5.9 3.6 5.6 3.2-.4 3.1-4.8 0-6.4-2.6-1.3-1.4-2.8 1.4-1.7 1.2.4 1.5.3 1-.5-1-1.7-4.6-1.5-5.1.3m4.3 5.3c.2.7-.6 1.2-1.7 1.2-2.1 0-2.7-1.1-1.4-2.4.9-.9 2.6-.2 3.1 1.2M432.5 696.9c-.3.5-.1 1.2.4 1.5.4.3 10.4.5 22 .5 11.7-.1 21.5.2 21.8.5.4.4.9 10.2 1.1 21.7.4 21.1.4 21.1-2.7 23.9-3.7 3.4-3.8 5.3-1 10 4 6.5 6.8 7.4 12.4 3.7 4-2.5 4.9-4.5 4-8.7-.8-3.6-5.9-9-8.6-9-1.6 0-1.9-.7-1.9-4.3-.1-10-1.2-38.3-1.5-39.5-.5-1.5-45-1.8-46-.3M481 745c0 .5-.4 1-1 1-.5 0-1-.5-1-1 0-.6.5-1 1-1 .6 0 1 .4 1 1m7.9 6.3c-.1 2-.2 2.1-.6.2-.3-1.1-1.4-3.4-2.5-5-2-3-2-3 .6-.2 1.4 1.5 2.5 3.8 2.5 5m-8.1-1.6c3.6 5.3 3.8 9.3.3 9.3-3.5-.1-7.1-4.8-7.1-9.4 0-3.7 4.2-3.6 6.8.1m4.6-.4c1.5 2.4-.3 3.5-2 1.3-.8-1.1-1.4-2.4-1.4-2.9 0-1.3 2.2-.3 3.4 1.6m1.6 5.6c0 .6-.4 1.3-1 1.6-.5.3-1-.1-1-.9 0-.9.5-1.6 1-1.6.6 0 1 .4 1 .9"/><path d="M475.7 750.4c-.7 1.8 1.5 6 3.4 6.4 2.6.5 3-2.4.8-5.2-2.3-2.9-3.4-3.2-4.2-1.2m3.8 2.5c.3.5.1 1.2-.5 1.6-.5.3-1-.1-1-.9 0-1.8.6-2.1 1.5-.7M759.5 699.6c-2.8 1.4-6 3.2-7.2 4s-3.1 1.4-4.1 1.4-3.8 1.2-6.3 2.8c-2.4 1.5-5.6 3.3-7.1 4.1-1.6.8-2.9 1.8-2.9 2.3-.1.4-.2 1.3-.3 2-.2 2.2-14.8 9.6-17.8 9.1-2-.4-3 .1-4.3 2.1-1.6 2.4-1.6 2.8-.1 5.1 2.3 3.5 5.2 3.2 7.6-.8 2.7-4.5 14.7-11.8 17.6-10.6 1.7.6 3.8-.1 9.1-3.3 3.7-2.2 7.9-5.1 9.3-6.3 3.8-3.5 9.2-6.5 11.7-6.5 2.6 0 6.5 4.9 8.3 10.3 1.8 5.8.8 22.7-1.9 30.6-2.9 8.9-6.6 16.3-12.2 24.7-6.1 9.2-12.8 15-24.3 21.2-3.3 1.9-7.4 4.2-9.1 5.2-1.6 1-4.7 2.7-6.7 3.9-4.4 2.4-5.9 3.3-22.8 13.1-6.9 4-14.5 8.4-17 9.8-4.1 2.3-8.8 5-34.8 20.3-4.5 2.7-8.6 4.9-9.1 4.9s-1.1.4-1.3.8c-.1.5-7.7 5-16.8 10.1s-19 10.8-22 12.6c-5.6 3.3-11.1 6.4-21 11.8-3 1.7-6.6 3.7-8 4.7-1.4.9-5.4 3.1-9 5-3.6 1.8-6.6 3.7-6.8 4.2-.2.4-.7.8-1.2.8-.4 0-6.4 3.2-13.2 7.1-6.7 3.9-14.3 8.3-16.8 9.7-2.5 1.3-8.1 4.6-12.5 7.2-23.2 13.6-35.9 19.9-44.1 22-14.1 3.5-34.6 1.9-46.2-3.8-6.4-3.1-25-13.2-34.2-18.6-2.5-1.4-4.9-2.6-5.5-2.6-1.8 0 2 2.8 9 6.5 3.9 2.1 9.3 5 12 6.5 2.8 1.5 9.1 4.9 14.2 7.5 17.7 8.9 37.7 10.8 54.8 5 8.1-2.7 11.2-4.3 34.5-17.5 7.4-4.3 15.5-8.8 18-10.2s8.8-5 14-8.1c5.2-3 14.9-8.5 21.5-12.2 6.6-3.8 14.9-8.5 18.5-10.5s8.8-4.9 11.5-6.5c5.1-2.8 35.5-20.3 41-23.5 1.7-1 7.1-4.1 12-7 5-2.9 11.9-7 15.5-9s8.9-5.1 11.8-6.8c2.9-1.8 5.5-3.2 5.8-3.2s1.8-.8 3.2-1.9c1.5-1 4.3-2.8 6.2-3.8 1.9-1.1 12.3-7.1 23-13.3s24.4-14.1 30.3-17.4c17.7-9.9 26.5-19.3 34.7-37 7.8-16.8 10-32.6 6.1-43.4-4.2-11.5-8.1-13.5-16.5-8.1-4.5 2.8-7.5 2.9-5.8.3 1.1-1.8 12.3-7.4 14.8-7.4 2.8 0 7.8 4.1 9.8 8.1 4.3 8.5 4 27.1-.6 40.4-8 23.3-19.4 37.7-37.6 47.8-5.3 3-12.8 7.2-16.7 9.4-3.8 2.2-9.2 5.2-12 6.8-5.7 3.2-18.9 10.9-32 18.5-11.6 6.8-13 7.6-25 14.5-5.5 3.2-13.3 7.8-17.4 10.3-4.1 2.4-9.4 5.5-11.8 6.8-9.7 5.4-13 7.3-17.8 10.1-2.7 1.6-8.6 4.9-13 7.3s-9.2 5.1-10.7 6.1c-1.4 1.1-2.9 1.9-3.2 1.9s-2.9 1.4-5.8 3.1c-2.9 1.8-7.8 4.5-10.8 6.2s-6.7 3.8-8.2 4.9c-1.4 1-2.9 1.8-3.2 1.8-.4 0-3.9 2-7.9 4.4-3.9 2.4-13.3 7.8-20.7 12.1s-15.1 8.7-17 9.8c-22.8 13.3-33.8 18.8-40.8 20.2-12.1 2.6-31.5 1.8-43.7-1.7-5.2-1.6-23.4-10.9-37.8-19.5-3.2-2-6.1-3.2-6.4-2.9-.9.8-2.5-.2 15.2 9.6 26.9 15 36 18 54.7 18 9.9 0 15.9-.7 22.1-2.6 1.5-.5 1.7.5 1.8 11.8 0 10.5 1.2 22.4 1.9 19.3.1-.6.1-8 .1-16.5l-.2-15.5 14.3-7.8c7.9-4.3 20.4-11.3 27.8-15.7 7.4-4.3 15.8-9.1 18.5-10.5 2.8-1.5 6.2-3.6 7.7-4.6 1.4-1.1 2.9-1.9 3.2-1.9s5.2-2.8 10.8-6.1c5.7-3.4 12.6-7.4 15.3-8.9 2.8-1.5 6.8-3.8 9-5 2.2-1.3 7.4-4.2 11.5-6.5 4.1-2.4 13.5-7.7 20.9-11.9 7.3-4.2 13.5-7.6 13.6-7.6.2 0 6.2-3.6 13.5-8s13.4-8 13.6-8 2.7-1.4 5.6-3.1c2.9-1.8 6.8-4 8.6-5 1.7-1.1 4.7-2.7 6.5-3.8 1.7-1 5.7-3.3 8.7-5.1s8-4.6 11-6.3 6.7-3.8 8.2-4.9c1.4-1 2.9-1.8 3.2-1.8.4 0 3.9-1.9 7.9-4.3 11.4-6.9 21.1-12.3 30.7-17.3 7.4-3.9 19.7-16.3 25.1-25.5 10.1-17.1 13.4-28.5 13.3-45.4 0-11.1-.2-12.4-2.9-17.8-2.9-5.8-7.3-9.7-11.1-9.7-1.1 0-4.2 1.2-6.9 2.6m-9.1 9c.4.9.4 1.9.2 2.1-.8.8-2.6-.8-2.6-2.3 0-1.9 1.6-1.8 2.4.2m-5.4.9c0 .3-.2.5-.5.5s-.5-.2-.5-.5.2-.5.5-.5.5.2.5.5m-.9 4c.5-.3.6.1.3.9-.7 1.7-2.4 2.2-2.4.7 0-.5-.3-1.8-.6-2.8-.5-1.7-.5-1.7.6 0 .6.9 1.5 1.5 2.1 1.2m-4.5.9c.3.8.4 2.3.2 3.3-.3 1.4-.7 1.1-2-1.5-1.4-2.7-1.4-3.2-.2-3.2.8 0 1.7.6 2 1.4m-2.6 3.7c0 1.2-.5 1.6-1.4 1.3-1.5-.6-2.8-3.9-1.8-4.8.9-1 3.2 1.5 3.2 3.5m-21 11.3c0 2.6-2 3.9-4.5 3-1.5-.6-2-3.5-.8-4.7.3-.4 1.7-.7 3-.7 1.8 0 2.3.6 2.3 2.4M568.6 698.9c-.3.5 1.5 1.1 4.2 1.3 5.3.5 5.7.4 4.7-1.1-.8-1.3-8.2-1.5-8.9-.2M384.8 700.7c.7.3 1.6.2 1.9-.1.4-.3-.2-.6-1.3-.5-1.1 0-1.4.3-.6.6M561.7 702.6c-1.6.9-2.6 1.8-2.3 2.1.7.8 6.6-1.7 6.6-2.8 0-1.2-1-1.1-4.3.7M582 702.6c0 .5 1.8 1.9 4 3.2 2.7 1.5 4 1.9 4 1 0-1.1-2.1-2.5-6.7-4.5-.7-.3-1.3-.1-1.3.3M593 709.4c0 .7 8.2 5.7 8.7 5.2.9-.8-.6-2.4-3.9-4-3-1.5-4.8-2-4.8-1.2M606 716.7c0 .5 1.8 1.8 4 3.1 4.8 2.7 5.4 1.2.6-1.7-3.6-2.2-4.6-2.5-4.6-1.4M618 723.8c0 .5 1.8 1.8 4 3.1 4.9 2.8 5.4 1.1.4-1.8-3.9-2.3-4.4-2.5-4.4-1.3M421.9 726.8c-13 3.4-25.4 13.6-30 24.7l-2.3 5.5-49 .1c-27 .1-55.8.1-64 0-8.6-.1-15.4.3-16.1.9-.9.7-1.1 4.9-.8 15l.3 14h-5c-6.4 0-6.6 1.8-.2 2.2l4.7.3.5 14.5.5 14.5 7.3.3c4.5.2 7.2-.1 7.2-.8 0-.6-2.6-1-6.3-1h-6.4l-.6-12.8c-.4-7-.7-19.8-.7-28.5V760l41.8-.2c22.9-.2 51.5-.3 63.6-.3h21.8l.3 6c.2 3.3.6 7.7 1 9.7.5 2.5.3 3.8-.4 3.8-1 0-8.3-5.9-8.9-7.3-.2-.4-1.2-.7-2.2-.7-1.8 0-3.4 2.5-2.5 4 .2.4-1.3 1.9-3.5 3.4-3.6 2.3-4 3.1-4 6.7 0 4.6 2 9.1 5 11.2 1.1.8 3.7 3 5.8 4.9 8.5 7.9 11.8 8.4 14.7 2.3 1.7-3.8 2.4-4.2 4.3-2.3 1.7 1.7 2.8.2 1.2-1.7-1.1-1.3-.9-1.8.6-3.3 1.1-.9 2.9-3.5 4.1-5.7 2.1-3.8 2.4-4 6.2-3.7 10.6.9 25.1-4.9 34-13.6 5.6-5.5 9.2-11.5 12.5-21.2 3.6-10.3-3.1-22.1-14.5-25.4-6.6-2-11.7-1.9-20 .2m23.3 3.1c8.2 4.2 12 12.2 9.9 20.8-2.9 11.2-9.6 19-21.7 25.1-15.7 7.9-31 6.1-39-4.4-2.5-3.2-2.9-4.6-2.9-9.8.1-7.6 2.7-13.5 8.6-19.7 12.7-13.3 32.2-18.5 45.1-12M397.3 777c3.6 2.9 11.9 5.9 16.4 6 3.9 0 14.8-2.7 18.6-4.7 1.6-.8 3.1-1.2 3.4-.9.8.8-7.5 4.7-13.4 6.2-15.3 4-30-1.9-31.9-12.8-.5-3.3-.5-3.3 1.6.2 1.2 1.9 3.6 4.6 5.3 6m-18.3-3c0 .5-.4 1-1 1-.5 0-1-.5-1-1 0-.6.5-1 1-1 .6 0 1 .4 1 1m10.4 8.2c.9.7-1.4 12.8-2.4 12.8-.7 0-16-12.9-16-13.5 0-.2 2.4-1.7 5.3-3.4l5.2-3 3.5 3.2c1.9 1.8 3.9 3.5 4.4 3.9m5.2-1.7c1.6 1.4 4.4 3.1 6.2 3.7 3.8 1.4 3.8 1.6 1.1 6.2-2 3.5-3.9 4.7-3.9 2.6 0-.6-.5-1-1-1-.7 0-.7.6 0 2 .8 1.5.6 2.1-.9 3-5.1 2.7-5.7-1-.8-5.1 2.6-2.3 3-3.1 2.1-4.5-1.4-2.4-3.4-2.9-3.4-1 0 .9-.4 1.6-1 1.6-1.4 0-1.2-2.8.3-3.3q1.2-.45-1.2-2.4c-1.4-1.1-2.1-2.5-1.7-3.1.9-1.6.8-1.6 4.2 1.3m-15.1 10.9c1.7 1.5 4.2 3.5 5.8 4.4 1.5.9 2.7 2.2 2.7 2.8s.3 2.6.6 4.3c.5 2.5.3 3.1-1 3.1-1.2 0-1.6-.7-1.4-2.2.2-1.9-.2-2.3-2.4-2.3-1.7-.1-4.4-1.7-7.5-4.5-5.1-4.7-6.2-6.2-4.3-5.8.7.2 1.5-.3 1.8-1.1.3-1-.1-1.3-1.7-.8-1.9.4-2.1.1-2.1-3.1v-3.6l3.3 3c1.7 1.7 4.6 4.3 6.2 5.8m13.4-1.1c.8 1.1.6 1.8-.9 3.2-2 1.8-2 1.7-2-1.3 0-3.4 1-4.1 2.9-1.9m-.3 10.3c-.3.9-.6 2-.6 2.5 0 .6-.4.7-1 .4-1.6-1-1.2-4.5.6-4.5 1.1 0 1.4.5 1 1.6M631 731.4c0 .4 7.8 5.6 8.5 5.6 1.5 0 .1-1.8-3-3.8s-5.5-2.8-5.5-1.8"/><path d="M700.6 736.3c-2.2 1.3-4.2 2.9-4.4 3.6-.5 1.6-.1 1.4 5.5-1.9 2.4-1.4 4.3-2.8 4.3-3.3 0-1.1-1.2-.8-5.4 1.6M644 738.9c0 1.1 4.5 4.1 6.2 4.1.7-.1 0-1.2-1.7-2.5-3.2-2.6-4.5-3.1-4.5-1.6M685.8 745.2c-2.1 1.2-3.8 2.6-3.8 3 0 1.1 1.8 1 2.5-.2.3-.6 1-1 1.5-1 .6 0 0 1.8-1.1 4-3.6 6.9-.4 15.5 6.8 18.5 4.6 1.9 6.4 1.9 10.9-.2 4.1-2 7.4-7.5 7.4-12.3 0-7.3-6.8-13.5-14-12.8-2.2.2-4 0-4-.4 0-1.4-2.4-.8-6.2 1.4m19.5 4.8c8.5 9.4-3.4 23.8-14.4 17.3-7.8-4.6-7.2-17.3 1.1-20.6.8-.4 3.5-.4 6-.2 3.4.4 5.2 1.2 7.3 3.5"/><path d="M691 750.5c.9 1.1 1.1 3.4.6 8-.6 5.9-.5 6.5 1.2 6.5 1 0 2.3.5 3 1.2 1.6 1.6 5.6-.6 7.1-3.9 1.7-3.8-1-7.7-5-7.1-2.7.4-2.9.2-2.9-2.9 0-2.9-.3-3.3-2.6-3.3s-2.5.2-1.4 1.5m8.8 10.2c-.4 4.4-3 5.7-4.8 2.3-1.6-3.1-.4-6 2.6-6 2.3 0 2.5.3 2.2 3.7M654 744.7c.1 1.5 5.1 4.4 6.8 4.1 1.3-.2.8-.9-1.9-2.6-3.9-2.3-4.9-2.7-4.9-1.5M674.6 750.1c-1.1.7-3.8.9-6.5.5-4.2-.5-4.4-.4-2.7.9 3.4 2.6 12.6 1.8 12.6-1.1 0-1.7-.8-1.7-3.4-.3M756.5 763.4c-2.2 1.3-6.2 3.6-9 5.1-2.7 1.5-6.2 3.6-7.7 4.6-1.4 1.1-2.9 1.9-3.2 1.9s-5.1 2.7-10.6 6-10.2 6-10.4 6-3.4 1.8-7 4-7 4-7.5 4-1.1.4-1.3.8c-.1.5-2.8 2.2-5.8 3.9-9.9 5.4-27.1 15.4-49 28.3-24.6 14.5-50.3 29.5-60.5 35.3-3.8 2.2-10 5.7-13.7 7.8-3.8 2.2-9.9 5.7-13.8 7.9-3.8 2.2-10 5.7-13.7 7.9-3.8 2.1-10.1 5.7-14.2 8s-7.9 4.5-8.5 5c-.6.4-3.6 2.2-6.6 3.8-3 1.7-11.1 6.3-18 10.3s-15 8.6-18 10.3c-3 1.6-5.9 3.3-6.5 3.7-.5.5-3.9 1.8-7.5 2.9-5.1 1.7-9 2.2-18.5 2.2-17.2 0-20.5-1.1-42.8-13.9-7-4-13.6-7.6-14.5-7.9s-2.8-1.4-4.2-2.3-5.9-3.5-10-5.7-9.6-5.2-12.2-6.6c-2.7-1.5-6.9-3.9-9.5-5.3-2.7-1.4-5.2-2.9-5.8-3.2-1.6-1-7.6-3.2-11.5-4.2-3.7-.9-11.3.4-13.8 2.4-5.5 4.5-9 10.3-9.1 15.4-.1 1.3-1 3.5-2.1 4.9-2.3 2.9-2.7 10.2-.8 13.2.9 1.5.9 2.9-.1 6.1-1.1 3.8-1.1 4.3.8 5.9 1.9 1.7 2.8 4.1 1.6 4.1-1.3 0-6.5-3.1-6.5-3.8 0-.5.5-1.3 1.2-2 .9-.9.8-1.2-.4-1.2-1.7 0-3.2 2.6-2.2 4.1 1 1.7 8.6 5.1 10 4.5 1.8-.7 1.8-3-.1-4.6-2.6-2.2-1.9-9.3 1.5-14.6 2.5-4 2.9-5.6 2.8-10.8-.3-10.6 4.9-16.6 14.5-16.6 3.8 0 7 1.1 15 5.1 5.6 2.8 10.7 5.5 11.2 5.9 2.8 2.2 8.5 4.8 8.9 4.1.5-.8-.8-1.6-19-11.2-9-4.8-12-5.9-15.9-5.9-9.4 0-15.3 5.8-16.3 16.2-.4 4-.8 4.8-2.5 4.8s-1.9-.4-1.2-3.3c.4-1.7 1.1-4.9 1.5-7.1.9-4.3 3.3-8 7.4-11 3.9-3 16.4-2.9 22.1 0 6.7 3.5 24.9 13.3 27.8 15.1.4.2.5.9.1 1.4-.5.9-.5 32.6.1 39.4.1 1.6.3 11.1.4 20.9.1 12.8.4 17.7 1.2 16.9.7-.7.7-11.9-.1-38.7-.7-20.8-.9-38-.6-38.4.4-.3 1.9.1 3.4 1 1.5.8 5.2 2.9 8.2 4.5 3 1.7 9.3 5.2 14 7.8 16.6 9.4 26.6 14.2 31.5 15.3 12 2.7 22.5 2.5 34.1-.7 4.1-1.1 20.6-10.1 53.4-29.1 10.7-6.2 22-12.6 25-14.3 3-1.6 6-3.3 6.5-3.8 1-.8 25.4-14.7 35.5-20.2 3-1.6 6-3.3 6.5-3.7.6-.5 6.6-4 13.5-8s14-8.1 15.8-9.1c1.7-1.1 4.7-2.8 6.6-3.8 1.8-1.1 6.4-3.8 10.1-6 3.7-2.3 6.9-4.1 7.2-4.1.2 0 2.4-1.4 4.8-3 2.4-1.7 4.6-3 4.9-3 .5 0 13.4-7.5 33.6-19.5 5.5-3.2 9.1-5.2 22.4-12.7 3.8-2.1 7.4-4.2 8-4.7s2.8-1.8 4.9-3c4.9-2.8 9.2-5.3 14.7-8.4 2.5-1.5 9.1-5.3 14.7-8.4 5.7-3.2 10.3-6.1 10.3-6.6 0-1.2-1.3-.8-5.5 1.7M311 912c0 .5-.5 1-1.1 1-.5 0-.7-.5-.4-1 .3-.6.8-1 1.1-1 .2 0 .4.4.4 1m1.7 1.7c-.4.3-.7 0-.7-.7s.3-1 .7-.7c.3.4.3 1 0 1.4m2 0c-.4.3-.7 0-.7-.7s.3-1 .7-.7c.3.4.3 1 0 1.4m-1.3 4.2c.3.5 0 1.1-.8 1.4-1.5.6-2.6-.1-2.6-1.5 0-1.1 2.7-1 3.4.1m-2.7 9.8c-.4.3-.7 0-.7-.7s.3-1 .7-.7c.3.4.3 1 0 1.4M775.5 766.4c-5.6 1.4-5.7 1.8-3.5 10.9 1.1 4.4 1.3 4.7 2.5 3 1.3-1.7 1.5-1.7 4.2-.1s2.7 1.6 5-2.4c2.8-4.9 2.9-6.4.3-7.8-1.1-.6-2-2-2-3 0-1.1-.3-1.9-.7-1.9-.5.1-3 .7-5.8 1.3"/><path d="M750.1 772.5c-4 2.5-7.5 4.5-7.7 4.5s-5 2.8-10.6 6.1c-5.7 3.4-12.3 7.3-14.8 8.7-5.6 3.1-20.8 11.9-27.8 16.1-2.9 1.7-5.5 3.1-5.7 3.1s-3.9 2.2-8.3 4.9-10.4 6.2-13.3 7.9c-7.5 4.1-20.4 11.8-26.6 15.8-2.9 1.9-5.5 3.4-5.7 3.4s-3.4 1.8-7.1 4.1c-3.7 2.2-8.3 4.9-10.1 6-1.9 1-5.1 2.9-7.1 4.1-2.1 1.2-6.7 3.8-10.3 5.8s-13.6 7.8-22.3 12.8c-8.8 5.1-16.1 9.2-16.3 9.2s-3.7 2-7.7 4.4c-6.1 3.7-13.4 7.9-30.4 17.7-11.4 6.6-33 19.1-38.8 22.6-11.2 6.6-15.5 7.7-32.5 7.7-10.5.1-17.1-.4-20.5-1.3-4.5-1.3-16.6-7.1-26.7-13-13.8-7.8-23.5-13.1-24.2-13.1-1.4 0 .5 1.9 3.2 3.3 1.5.7 4.5 2.4 6.7 3.7 11.5 6.6 27.3 15.2 32 17.4 10.1 4.8 25.5 7.1 37 5.5 12.4-1.6 14.6-2.5 36-14.6 3.9-2.2 9.4-5.4 12.3-7.1 2.9-1.8 5.7-3.2 6.2-3.2.6 0 1-.5 1-1 0-.6.5-1 1-1 .6 0 4.3-2 8.3-4.4 3.9-2.4 9.5-5.6 12.2-7.1 10.4-5.9 18.6-10.5 37.4-21.4 10.6-6.1 19.5-11.1 19.6-11.1.2 0 4.3-2.4 9.2-5.3 15.4-9.4 31.4-18.7 31.9-18.7.3 0 2.5-1.4 4.9-3 2.4-1.7 4.7-3 5-3 .4 0 2.7-1.4 5.2-3 2.4-1.7 4.6-3 4.8-3s5.4-2.9 11.5-6.5c6-3.6 16-9.4 22-13 6.1-3.6 11.5-6.5 12-6.5.6 0 1-.4 1-.9s.8-1.1 1.8-1.4c.9-.4 3.5-1.7 5.7-3s11.2-6.6 20-11.7c30.1-17.5 34.5-20.1 34.5-21.1 0-1.2.4-1.4-7.9 3.6M792.7 773.5c-6.6 3.4-9.2 10.8-6 17.2 2.1 4.5 7.5 8.3 11.5 8.3 6.7 0 13.8-6.9 13.8-13.4 0-6-2.5-9.7-8.4-12.1-4.5-1.9-7.3-1.9-10.9 0m14.5 4.4c2.2 2.5 2.8 4.1 2.8 7.7 0 4-.5 5.1-3.6 8-4 3.8-8.5 4.5-13.4 1.9-7.9-4.1-7.6-17.1.5-20.6 1.1-.5 4-.7 6.5-.5 3.4.3 5.1 1.1 7.2 3.5"/><path d="M795.6 780.2c-1.7 1-2.2 3.8-.7 3.8.5 0 1.1-.7 1.5-1.5.8-2.2 3.6-1.8 3.6.5 0 1.4-.7 2-2.4 2-2.8 0-5.1 2.4-4.2 4.5.4 1 1.9 1.4 5.4 1.4 5-.2 5-.2 4.5-4.3-.3-2.2-.6-4.6-.8-5.2-.5-1.5-4.9-2.3-6.9-1.2m4.4 7.2c0 1.4-2.9 3.1-3.8 2.2-.2-.3-.2-1.2.1-2.1.8-1.9 3.7-2 3.7-.1M690.9 773.7c-.1.5 0 2.3.1 4 .1 2.5-.3 3.3-1.5 3.3-.9 0-1.5.3-1.3.8.6 1.5 8.3 11.1 8.9 11.1.3.1 2.5-2.4 4.8-5.5 3-4 3.9-6 3.2-6.7-.6-.6-1.1-2.6-1.1-4.4 0-3.3 0-3.3-6.5-3.3-3.6 0-6.5.3-6.6.7M167.7 777.7c-.4.3-.7.9-.7 1.2s17.5.5 38.8.3l38.9-.2.6 8.7c.4 4.8.3 9.1-.1 9.5s-17.8.8-38.7.9l-38 .1-.6-7.3-.6-7.4.1 8 .1 8H192c13.5 0 31.4-.1 39.8-.3l15.2-.3v-9.4c0-5.1-.3-10-.6-10.9-.5-1.4-4.9-1.6-39.3-1.6-21.3 0-39.1.3-39.4.7M446.9 779.2c0 .2-.2 2.4-.5 5-.4 4.3-.2 4.9 2.9 7.3 3.3 2.7 3.3 2.7 3.6 23.8.1 11.7.6 21.6 1.1 22.1s5 1.1 10.1 1.4c7.6.4 9.1.2 8.7-.9-.3-1-2.8-1.5-9.1-1.7l-8.7-.3-.2-19.7c-.1-10.8-.1-21.1 0-22.7.5-7.6.1-9-2.8-11.8-2.4-2.3-4.8-3.4-5.1-2.5m3.1 3.4c0 .8-.4 1.2-1 .9-.5-.3-1-1-1-1.6 0-.5.5-.9 1-.9.6 0 1 .7 1 1.6m4 3.4c0 1.3-4.6 2.4-6.1 1.5-.8-.5-.2-1.2 1.7-2 3-1.3 4.4-1.1 4.4.5m0 3.9c0 1.4-1.8 2.3-3 1.6-.6-.4-.8-1.1-.5-1.6.8-1.2 3.5-1.2 3.5 0"/><path d="M167 782c0 .7.3 1 .7.7.3-.4.3-1 0-1.4-.4-.3-.7 0-.7.7M222.6 783.5c-3.8 3.8-2.3 11 2.4 11 2.3 0 2.5-.4 2.8-5.2.3-4.3 0-5.4-1.7-6.2-1.5-.8-2.3-.7-3.5.4m4.2 5.3c.3 3.9.1 4.2-2.2 4.2-2.4 0-2.6-.4-2.6-3.9 0-3.7 1.2-5.3 3.5-4.7.6.1 1.1 2.1 1.3 4.4M176.8 786.8c-3.3 4.9-3.4 5.2-1 5.2 1 0 2.2.4 2.8 1s1.5.6 2.4 0c1.1-.7 1.2-1.2.3-1.8-.6-.4-1.3-2.5-1.5-4.7l-.3-3.9zm2.2 2.2c0 1.1-.7 2-1.5 2-1.7 0-1.8-.2-.9-2.4.9-2.3 2.4-2 2.4.4M185.4 784.5c-.4.9-.4 1.9 0 2.2.3.4.6.1.6-.5 0-.7 1.1-1.2 2.5-1.2 3.4 0 3.2 2.1-.5 4.8-4.1 3.1-3.9 5.2.5 5.2 1.9 0 3.5-.5 3.5-1 0-.6-1.1-.8-2.5-.4-3.3.8-3.2-.9.1-3 3.6-2.4 3.1-7-.9-7.4-1.8-.2-2.9.2-3.3 1.3M202.6 787c-2.4 3.7-2.5 4.1-.9 4.6 1 .3 2.6.9 3.5 1.4 1 .6 1.8.5 2-.1.6-1.7-.4-9.9-1.2-9.9-.4 0-1.9 1.8-3.4 4m3.4 1.5c0 1.6-2.7 3.2-3.7 2.1-.7-.7 1.6-3.6 2.8-3.6.5 0 .9.7.9 1.5M213 784.5c-.9 1-.9 1.5-.1 1.5.6 0 1.1 1.7 1.1 3.9s.5 4.3 1.1 4.6c.7.5.9-1.3.7-5.4-.3-6.4-.7-7.1-2.8-4.6M195 790c0 .5.7 1 1.5 1s1.5-.5 1.5-1c0-.6-.7-1-1.5-1s-1.5.4-1.5 1M377 806c-.9 1.6-.9 2.5-.1 3.3.6.6 1.1 2.6 1.1 4.4 0 3.3 0 3.3-10 3.3-5.5 0-10 .4-10 .9s4.8 1.2 10.8 1.6c10.7.7 10.7.7 12.3 3.8 1 2 2.5 3.3 3.9 3.5 1.3.2 3.9 1.5 5.9 2.8 1.9 1.2 3.8 2.1 4.3 1.8 1.5-1 .8-7.9-1.1-11.1-2.2-3.6-1.6-5.1 1.1-2.6 1 .9 1.8 1.1 1.8.6 0-1.1-15-13-17.5-13.9-.7-.3-1.9.4-2.5 1.6m7.8 3.8c1.7 1.3 3.2 3.1 3.2 3.9 0 1 .6 1.3 1.6.9 1.1-.4 1.4-.1 1.3 1.2-.2.9.7 3.6 1.9 5.9 4 7.7 2.5 9.3-3.8 4.3-2.4-1.9-4.4-4.7-5.3-7.3-.9-2.3-1.6-3.4-1.6-2.5-.1.9.4 2.9.9 4.4 1.3 3.4.6 4.3-1.1 1.2-2-3.7-2.8-10.8-1.2-10.8.7 0 1.3.4 1.3 1 0 .5.8 1 1.8 1 1.3 0 1.1-.6-1.2-2.5-1.6-1.4-3.3-2.5-3.8-2.5s-.6-.5-.3-1c.7-1.1 1.5-.8 6.3 2.8"/><path d="M390 825c0 .5.7 1 1.5 1s1.5-.5 1.5-1c0-.6-.7-1-1.5-1s-1.5.4-1.5 1M402.1 806c0 1.6 2.2 5 3.3 5s.6-1.4-1.4-4c-1.3-1.6-2-2-1.9-1M277 807.9c-.9 1.8-.5 16.6.5 19.8.3 1 9.2 1.3 40 1.3h39.6l-.3-11.3-.3-11.2-39.2-.3c-38-.2-39.2-.2-40.3 1.7m78 9.6v9.5h-77v-19h38.5l38.5.1z"/><path d="M296.8 812.1c-1 .5-1.8 1.7-1.8 2.6 0 1.5.2 1.4 1.4-.2.8-1.1 1.9-1.6 3-1.2 2.4.9 2 3.2-.9 4.7-2.2 1.2-4.3 4.6-3.3 5.5 1 1.1 6.1.8 6.5-.3.4-.9-.2-1.1-2.1-.6-3.5.8-3.3-.6.5-3.9 2.9-2.5 3-2.9 1.7-4.9-1.8-2.7-2.8-3-5-1.7M315.5 812.4c-1.8 1.9-5.5 7.4-5.5 8 0 .3 1.1.6 2.5.6s2.8.7 3.1 1.5c.6 1.4.8 1.3 1.9-.2.8-1 1-2.2.5-2.8s-1-2.7-1.2-4.7c-.2-2.5-.6-3.3-1.3-2.4m.5 4.6c0 1.4-.7 2-2.2 2-2 0-2.1-.1-.3-2 1-1.1 2-2 2.2-2 .1 0 .3.9.3 2M321.8 813.1c-2.3 2-1.7 2.1 2.7.3 1.1-.4 1.5 0 1.5 1.5 0 1.2-.6 2.1-1.2 2.1-.8.1-.5.7.6 1.5s1.6 2.1 1.3 3c-.7 1.7-3.3 2-4.2.5-.3-.6-1.1-1-1.7-1s-.3.9.7 2c3.8 4.2 7.7.9 6.8-5.8-.7-5.5-3.2-7-6.5-4.1M286.8 815.4c-3.4 4.3-3.5 5.6-.4 5.6 1.3 0 2.7.6 2.9 1.2.7 1.8 2.9-1.2 2.2-3-.3-.8-.5-2.7-.5-4.3 0-3.8-.9-3.7-4.2.5m2.8 2.5c-.4.6-1.4 1.1-2.2 1.1-1.2 0-1.2-.3-.2-2 .7-1.1 1.6-1.6 2.1-1.1s.6 1.4.3 2M333 813.1c-1.1.8-1.2 1.2-.2 1.6.7.3 1.2 2.3 1.2 4.9 0 2.4.5 4.4 1 4.4.6 0 1-2.7 1-6 0-6.1-.4-6.8-3-4.9M305.5 819c-.3.5.1 1 .9 1 .9 0 1.6-.5 1.6-1 0-.6-.4-1-.9-1-.6 0-1.3.4-1.6 1M439.2 808.2c-.6.6-2.1 1.6-3.4 2.2-1.7.9-2.3 2-2.4 4.4 0 1.8-.8 4.2-1.7 5.2-.9 1.1-1.7 2.4-1.7 3 0 1.4 4.1 3.9 5.5 3.4 1.5-.6 2.5 11.9 2.5 31.6 0 9.8.4 14 1.3 14.7 1.5 1.2 18.7.4 18.7-.8 0-.5-4-.9-9-.9h-9v-12.8c0-7-.3-17.7-.7-23.9-.6-11.1-.6-11.1 2.2-11.5 3.1-.3 6.3-4.6 6.4-8.4.1-3.4-6.6-8.3-8.7-6.2m5.3 2.9c1 1.5-.1 2.3-2 1.5-.9-.3-1.3-1-1-1.6.8-1.3 2.2-1.3 3 .1m-3.1 5c3 3.5 3.3 4.9 1 4.9-1 0-1.3-.6-.9-1.9.7-2.3-1.7-4.4-4.6-3.9-1.2.2-2.4-.3-2.6-1-.9-2.6 4.5-1.2 7.1 1.9m4.6-1.6c0 .3-.2.5-.5.5s-.5-.2-.5-.5.2-.5.5-.5.5.2.5.5m-2 1c0 .3-.2.5-.5.5s-.5-.2-.5-.5.2-.5.5-.5.5.2.5.5m-4.2 2.4c.3.8-.1 1.2-.9.9-.7-.2-1.5-1-1.7-1.7-.3-.8.1-1.2.9-.9.7.2 1.5 1 1.7 1.7m-2.3 2.2c1.1 1.7-.1 2.1-1.5.4-.8-.9-.8-1.5-.2-1.5s1.4.5 1.7 1.1m-1.5 1.5c0 .3-.6 1.2-1.4 1.9-1.7 1.8-2.9.8-1.3-1.1 1.2-1.4 2.7-1.8 2.7-.8M719.6 812.1c-4.1 4.1-4.5 4.9-2.7 4.9 1.7 0 2.1.6 2.1 3 0 3 0 3 6 3s6 0 6-3q0-3 1.5-3c.8 0 1.5-.3 1.5-.8-.1-1.2-7.7-9.2-8.6-9.1-.5.1-3.1 2.4-5.8 5M407.5 816.9c1.4 2.8 3.5 4.9 3.5 3.6 0-1.4-3.1-6.5-4.1-6.5-.5 0-.3 1.3.6 2.9M413.5 828.1c.9 1.7 1.9 2.8 2.2 2.5.8-.8-1.7-5.6-2.9-5.6-.5 0-.1 1.4.7 3.1M720.5 826.2c-4 2.2-7.5 6.2-8.1 9.4-1.8 9.6 5.6 17.4 15.2 15.9 9.7-1.4 14.3-14.4 7.7-21.7-3.6-4-10.9-5.8-14.8-3.6m10.2 2.8c4.8 2.9 6.7 6.3 6 11.2-.9 6.4-4.4 9.3-11.3 9.3-5 0-5.8-.3-8.5-3.3-8.6-9.7 2.8-24 13.8-17.2"/><path d="M720 838.5c0 5.4.4 8.4 1 8 .5-.3 1.8-.1 2.8.4 2.7 1.4 5.8.3 7.1-2.5 1.5-3.4 1.4-4.1-.9-6.4-1.4-1.4-2.8-1.8-4.4-1.4-2.2.5-2.4.3-2.3-2.7.2-2.4-.3-3.4-1.5-3.7-1.6-.3-1.8.6-1.8 8.3m7.8 3.2c-.3 4-3.2 5.9-4.4 2.9-1.1-2.8.5-6.6 2.7-6.6 1.7 0 2 .5 1.7 3.7M475.4 826.8c-.9.6-1.1 8.2-.5 19.9.1 2.3.1 2.3 39.6 2.3h39.6l-.3-11.3-.3-11.2-38.6-.2c-21.2-.1-39 .1-39.5.5m76.6 10.9v9.3h-76v-8.8c0-4.9.2-9.1.4-9.3s17.3-.4 38-.4H552z"/><path d="M485.6 833.5c-1.1 1.7-2.6 3.6-3.3 4.4-1.9 1.8-1.1 3.5 1.6 3.9 1.2.2 2.5 1 2.8 1.8.4 1.2.8 1 1.8-.8.6-1.3.8-2.8.4-3.3-.4-.6-.9-2.8-1.1-5-.3-3.9-.3-3.9-2.2-1m0 6.2c-1.1 1.1-1.9-.6-1.1-2.4.8-1.7.8-1.7 1.2 0 .3 1 .2 2.1-.1 2.4M492.9 833.1c-1.1 1.1-1.8 2.3-1.5 2.7.4.3 1.2 0 1.8-.6 1.5-1.5 4.8-1.6 4.8-.2 0 .6-1.6 2.6-3.6 4.5-1.9 1.9-3.3 3.9-2.9 4.5.8 1.3 8.5 1.3 8.5 0 0-.6-1.3-1-3-1-1.6 0-3-.3-3-.6s1.4-1.7 3-3.1c3.5-2.9 3.7-4.3 1.2-6.6-2.4-2.2-2.8-2.1-5.3.4M510.3 835.4c-3.4 5.1-3.5 6.6-.3 6.6 1 0 2.1.8 2.4 1.7.6 1.5.9 1.4 2-.7.7-1.4.9-3 .5-3.5-.4-.6-.9-2.8-1.1-5l-.3-4zm1.7 3.1c0 .8-.4 1.5-1 1.5-.5 0-1-.7-1-1.5s.5-1.5 1-1.5c.6 0 1 .7 1 1.5M519.7 832.5c-2.6 1.9-3.3 7-1.3 10s3.7 3.2 5.9.7c4.2-4.6.1-14.1-4.6-10.7m3.8 6c0 4.5-2.8 6.3-4 2.5-1-3.3.3-7.2 2.3-6.8 1.3.2 1.7 1.3 1.7 4.3M529.3 832.2c-1.5 1.9-2.2 9.2-1.1 11.1.5 1 1.9 1.7 3.1 1.7 2.7 0 5.3-3.6 3.8-5.4-.6-.7-.7-2.3-.4-3.6.4-1.6.1-2.7-1.2-3.6-2.3-1.7-3-1.7-4.2-.2m3.7 3.3c0 .8-.7 1.5-1.5 1.5s-1.5-.7-1.5-1.5.7-1.5 1.5-1.5 1.5.7 1.5 1.5m1 5c0 .9-.7 1.8-1.6 2.2-1.8.7-3.9-1.1-3-2.6 1.1-1.7 4.6-1.3 4.6.4M502.8 840.2c.9.9 1.5.9 2.4 0s.7-1.2-1.2-1.2-2.1.3-1.2 1.2M427.5 829c-1 1.1-1.4 2-.8 2 .5 0 1.8-.9 2.8-2s1.4-2 .8-2c-.5 0-1.8.9-2.8 2M417.2 834.1c.2.7 1.2 1.7 2.1 2.3 1.9 1.2 4.7 0 5.5-2.3.3-1-.1-1-1.7.1-1.7 1.1-2.5 1.1-4.2 0-1.6-1.1-2-1.1-1.7-.1M356.1 849.8c-3.7 2-7.1 7.3-7.1 11 0 6.3 5.3 12.6 11.6 13.8 6.6 1.2 15.5-6 15.4-12.5-.2-6.7-7.2-14.1-13.4-14.1-1.7 0-4.7.8-6.5 1.8m13.3 2.8c8.7 6.5 3.9 20.4-7.1 20.4-3.8 0-9.1-3.4-10.3-6.6-2.4-6.2.1-13.2 5.4-15.5 3-1.3 9-.4 12 1.7"/><path d="M358.6 857.6c-4.6 4.5 1.7 12.4 7.1 8.9 1.3-.9 2.1-2 1.8-2.6-.4-.5-1.3-.3-2.2.6s-2.2 1.4-3 1.1-1.7-.6-1.9-.6c-1 0-.3-5.7.8-6.8 1.6-1.6 2.8-1.5 2.8.2 0 2.2 1.9 3 2.7 1.1 1.2-3.3-5.2-4.8-8.1-1.9M493.2 866.2c-1.9 1.9-1.5 8.6.6 9.7 2.4 1.3 3.9.2 4.7-3.2.5-1.8.2-3.5-.9-5.2-1.8-2.8-2.7-3-4.4-1.3m3.3 5.3c0 1.6-.5 3-1.2 3.2-1.4.5-2.8-4-1.8-5.7 1.2-1.9 3-.4 3 2.5M506 866.6c-1.9 2.2-1.6 7.2.4 9.2 1.6 1.6 1.9 1.5 4.1-1 2.1-2.5 2.3-2.5 2.8-.7 1.1 4 6.7 2.8 6.7-1.5 0-1.7-3.4-3.9-4.4-2.9-.3.3-.6.1-.6-.6s.8-1.1 1.8-1c3 .3 3.4-.1 1.8-1.6-1.9-1.9-5.6-.4-5.6 2.3 0 1.2-.5.9-1.8-1.1-1.9-3.1-3.4-3.4-5.2-1.1m3.8 5c-.2 1.5-.8 2.9-1.5 3.1-1.8.6-2.8-4.4-1.3-6.3 1.8-2 3.2-.4 2.8 3.2m7.8.5c.3.6.1 1.6-.5 2.2-.9.9-1.4.8-2.1-.3-.9-1.5-.4-3 1-3 .5 0 1.2.5 1.6 1.1M529.6 867.2c-1.9 2.7-2 3.9-.4 7.3 1.4 3 3.9 3.2 5.6.4 1.1-1.8 1.1-2.4-.3-3.9-1-1.1-2.4-1.6-3.3-1.3-1 .5-1.3.3-.8-.6.5-.7 1.7-1.1 2.7-.8 2.2.6 2.5-.3.7-2.1-1.7-1.7-2.5-1.5-4.2 1m4 4.9c1 1.7-1.3 3.6-2.7 2.2-1.2-1.2-.4-3.3 1.1-3.3.5 0 1.2.5 1.6 1.1M468.7 867.3c-3.1 2.4-2.1 9.7 1.3 9.7 2.6 0 4.3-4.1 3-7.4-1.2-3.2-2.4-3.8-4.3-2.3m3.1 5.3c-.4 3.9-3.2 3.9-3.6 0-.4-2.9 1.6-5.2 3.1-3.7.5.5.7 2.1.5 3.7M475 867c0 .5.9 1 2 1 2.4 0 2.4.1.6 4.5-.9 2.1-1.1 3.7-.5 4 .5.4.9.1.9-.5s.8-2.9 1.9-5c1-2.1 1.6-4.1 1.3-4.4-1-1-6.2-.6-6.2.4M484.7 866.6c-.4.4-.7 1.4-.7 2.2 0 1.2.3 1.2 1.5.2 1.1-.9 1.9-1 2.6-.3q1.05 1.05-1.5 2.7c-3.7 2.4-3.4 4.6.7 4.5 3.1 0 3.1-.1.8-1-2.5-1-2.5-1-.2-2.5 2.7-2 2.5-5.8-.4-6.2-1.2-.2-2.4 0-2.8.4M523 867c-1.2.7-1.2 1.2-.2 2.2.6.6 1.2 2.5 1.2 4s.5 2.8 1 2.8c.6 0 1-2.3 1-5 0-5.1-.4-5.7-3-4M459.1 868.4c-1.2 1.4-.5 4.5 1 4.7.5.1 1.4.2 1.9.3.6 0 .9.5.8 1.1-.2.5-1.1.9-2.1.8-1-.2-1.5.2-1.2.7 1.1 1.8 4.2 1.1 5.2-1.3 2.2-4.9-2.4-10.1-5.6-6.3m4.7 1.8c-.7 1.9-3.8 2.2-3.8.4 0-1 .9-1.6 2.1-1.6s1.9.5 1.7 1.2M500 872c0 .5.5 1 1 1 .6 0 1-.5 1-1 0-.6-.4-1-1-1-.5 0-1 .4-1 1M358 880.5c0 3.1-.3 3.5-2.5 3.5-3.4 0-2.4 1.7 4 6.7l5.3 4.1 4.6-4.7c5.1-5.2 5.5-6.1 2.6-6.1-1.6 0-2-.7-2-3.5 0-3.5 0-3.5-6-3.5s-6 0-6 3.5M701 887c0 .6 3.8 1 8.6 1 4.7 0 8.3-.4 8-.8-.7-1.2-16.6-1.3-16.6-.2M724 887c0 .6 3.2 1 7.6 1 4.7 0 7.3-.4 6.9-1-.3-.6-3.7-1-7.6-1s-6.9.4-6.9 1M744.5 887c-.4.6 2.2 1 7 1s7.4-.4 7-1c-.3-.6-3.5-1-7-1s-6.7.4-7 1M765.5 887c-.4.6 2.2 1 7.2 1 5.4 0 7.3-.3 6.3-1-2-1.3-12.7-1.3-13.5 0M785.5 887c-.4.6 2 1 6.4 1 4.1 0 7.1-.4 7.1-1s-2.8-1-6.4-1-6.8.4-7.1 1M804.5 887c.3.5 3.3 1 6.6 1s5.9-.4 5.9-1-2.9-1-6.6-1c-4.1 0-6.3.4-5.9 1M822 887c0 .6 2.7 1 6.1 1 3.7 0 5.8-.4 5.4-1-.3-.6-3.1-1-6.1-1s-5.4.4-5.4 1M838 886.9c0 .6.8 1.1 1.8 1.1 2.6 0 5.9 3.1 6.7 6.3.4 1.5 1.2 2.7 1.7 2.7 1.6 0 0-6.2-2-8.2-2.1-2.1-8.2-3.6-8.2-1.9M585.2 889.5c-3.1 2.6-4.6 6.1-3.1 7.1.5.3 1.4-.7 1.9-2.1.6-1.5 2.3-3.2 4-3.8s3-1.7 3-2.4c0-2.1-2.6-1.5-5.8 1.2M597 888c0 .6 3.2 1 7.5 1s7.5-.4 7.5-1-3.2-1-7.5-1-7.5.4-7.5 1M619.5 888c.3.5 3.7 1 7.6 1s6.9-.4 6.9-1-3.2-1-7.6-1c-4.7 0-7.3.4-6.9 1M640 888c0 .6 3 1 7 1s7-.4 7-1-3-1-7-1-7 .4-7 1M660.5 888c.8 1.3 12.5 1.3 14.5 0 1-.7-1.1-1-6.8-1-5.3 0-8.1.4-7.7 1M681.3 887.7c1.2 1.1 11.6 1.5 13.4.4 1.4-.8-.2-1-6.1-1.1-4.4 0-7.6.3-7.3.7M606.8 897.1c-2 1.1-3.1 5.3-2.3 9 1.1 5 7.5 5 7.5 0 0-3.2-1.6-5.1-4.3-5.1-1.6 0-1.7-.2-.7-1.5.9-1.1 1.6-1.3 2.4-.5 1.3 1.3 2.6 1.3 2.6 0 0-1.6-3.4-2.9-5.2-1.9m3.6 7.5c.7 1.9-.1 3.4-1.9 3.4s-2.8-1.7-2.1-3.5c.7-2 3.2-1.9 4 .1M615.8 897.1c-2.3 1.3-2.5 10.1-.3 11.9 2 1.6 5.4.3 6.1-2.4 1.5-6.1-1.9-11.7-5.8-9.5m3.7 6c0 3.4-.4 4.4-1.7 4.7-1.5.3-1.8-.4-1.8-4.1 0-2.4.3-4.7.7-5.1 1.6-1.6 2.8.4 2.8 4.5M624.6 897.6c-3.1 3-1.3 12.4 2.4 12.4 2.5 0 4.2-3.5 3.7-7.8-.6-5.8-3.1-7.7-6.1-4.6m3.9 5.5c0 3.2-.4 4.4-1.5 4.4-1.6 0-2.6-5.4-1.6-8.2 1.2-3 3.1-.6 3.1 3.8M591.2 899.5c-2.1 4.6-.7 13.5 2.1 13.5.5 0 .6-.8.2-1.8-1.5-3.2-1.7-8.1-.7-11.2 1.3-3.6 0-4-1.6-.5M597.8 898.4c-2.2 1.6-2.3 2.6-.3 2.6 1.1 0 1.5 1.2 1.5 4.7 0 3.1.3 4.4 1 3.7.6-.6.7-3.2.2-6.6-.6-5.2-.9-5.5-2.4-4.4M633 898.9c1.4 2.7 1.3 10.4-.2 12-1.1 1.1-1 1.3.2.9 2.4-.7 3.5-6.3 2.1-10.8-.6-2.2-1.6-4-2.2-4s-.6.7.1 1.9M714 900.2c-7.4 2-12.9 8.5-14.4 16.9-.4 2.1-1.3 4.2-2 4.8-1.9 1.6-2.8 7-1.7 10.8.6 1.9.5 4.9-.1 7.8-.8 3.8-.7 4.9.6 6.4 1.5 1.7 2.2 4.1 1.1 4.1-.3 0-1.7-.7-3.1-1.7-2-1.3-2.4-2.2-1.9-4.1.5-2.2.4-2.4-.9-1.3-2.8 2.3-1.8 4.7 2.8 7.1 2.4 1.2 4.9 1.9 5.5 1.6 1.6-1 1.3-4.6-.4-5.3-2.4-.9-.9-8.8 2.8-14.7 2.2-3.5 3.2-6.2 3.2-9.5.2-8.3.5-9 4-12.6 3.3-3.2 4.1-3.5 9.4-3.5 4.5 0 7.1.7 11.7 3.1 10.3 5.3 9.3.8 9.8 42.2.3 20.2.7 37.1 1 37.6s-7.7 1-17.9 1.3c-10.7.2-18.9.8-19.5 1.4-.7.7-.8 4.7-.4 11.2l.7 10.2 39.1-.2 39.1-.3v-22l-19.7-.3-19.7-.2-.2-22.8c-.3-33.4-.2-49.3.4-49.9.3-.3 4.7 2.1 9.8 5.2 5.1 3.2 10.6 6.5 12.3 7.5 4.8 2.7 15.4 8.9 23.1 13.5 10 5.9 15.1 8.1 23.6 10.1 9.3 2.1 20.9 3 20.9 1.5 0-.6-1.6-1.1-3.6-1.1-12.9 0-27.1-4.3-40.9-12.5-12.6-7.3-28-16.5-32.4-19.2-2-1.2-4.9-3-6.6-3.9-1.6-.9-6.8-4-11.5-6.8-11.1-6.8-13.2-7.6-18.8-7.6-8.5 0-14.6 5.8-15.8 15.2-.5 3.9-1 4.8-2.6 4.8-1.5 0-1.8-.4-1.3-1.7.3-1 1.1-3.9 1.6-6.5.6-2.6 2-6.2 3.2-8 2.6-3.9 9.8-7.8 14.5-7.8 3.7 0 14.1 4.7 24.2 10.9 3.6 2.2 7.2 4.4 8 4.7.8.4 3.4 2 5.7 3.6 2.3 1.5 4.4 2.8 4.7 2.8.2 0 4.1 2.2 8.5 5 4.4 2.7 8.2 5 8.5 5 .2 0 5.5 3.1 11.7 6.8 6.3 3.8 14.5 7.9 18.3 9.1 7.5 2.4 23.6 4.1 23.6 2.4 0-.6-3.9-1.3-8.7-1.6-10-.7-18.9-3.3-26.5-7.9-2.9-1.7-9.8-5.7-15.3-8.8s-19.4-11.4-30.9-18.4c-11.6-6.9-22.6-13-24.5-13.5-7-1.7-8.6-1.9-12.1-.9m-16.3 27c-.3.8-.6.5-.6-.6-.1-1.1.2-1.7.5-1.3.3.3.4 1.2.1 1.9m2 1.5c-.4.3-.7 0-.7-.7s.3-1 .7-.7c.3.4.3 1 0 1.4m2 0c-.4.3-.7 0-.7-.7s.3-1 .7-.7c.3.4.3 1 0 1.4m-2.7 1.8c0 .3-.2.5-.5.5s-.5-.2-.5-.5.2-.5.5-.5.5.2.5.5m1 3.1c0 .9-.5 1.4-1.2 1.2-1.8-.6-2.1-2.8-.4-2.8.9 0 1.6.7 1.6 1.6m81 68.7v9.5l-37.5.1-37.5.2v-4.4c0-2.4-.3-6.5-.6-9l-.7-4.6 14.9-.3c8.2-.2 25.4-.4 38.2-.6l23.2-.3z"/><path d="M769.9 998.1c-.6 1.2-1.5 3.4-1.9 4.8s-1.1 3.4-1.5 4.3c-.4 1.1-.3 1.8.3 1.8s1.4-.9 1.7-2c.4-1.3 1.5-2 3-2s2.6.7 3 2c.3 1.1 1.1 2 1.7 2 .5 0 .8-.6.5-1.3-.2-.6-1.3-3.6-2.3-6.5-2.1-5.7-2.8-6.2-4.5-3.1m3.1 4.1c0 .5-.7.8-1.5.8-1.7 0-1.8-.2-.9-2.5.5-1.3.8-1.4 1.5-.3.5.7.9 1.6.9 2M712 998.4c0 .8-.3 2.1-.6 3-.5 1.2 0 1.6 1.9 1.6 3.3 0 5.2 2.3 3.3 3.9-.8.7-2.4 1-3.6.6-2.6-.8-2.6.1 0 1.5 2.7 1.5 6-.4 6-3.3 0-2.8-1.7-4.7-4.2-4.7-1 0-1.8-.5-1.8-1 0-.6 1.1-1 2.5-1s2.5-.5 2.5-1c0-.6-1.3-1-3-1-1.9 0-3 .5-3 1.4M722.1 998.9c-2.3 4.2-.4 11.1 2.9 11.1 1.1 0 4-2.9 4-4 0-2.4-1.5-4-3.6-4-1.5 0-2.4-.6-2.4-1.6 0-1.2.7-1.5 2.5-1.1 1.6.3 2.4 0 2.2-.7-.7-2-4.5-1.8-5.6.3m4.6 5.7c.8 2.1-1.3 4.2-2.8 2.7-1.3-1.3-.5-4.3 1.1-4.3.6 0 1.3.7 1.7 1.6M737.9 997.7c-1.1 10.3-.3 12.7 4.2 11.6 2.4-.7 2.7-2 2-7.3-.5-4-.9-4.5-3.3-4.8-1.6-.2-2.8 0-2.9.5m4.9 2.5c-.3.7-1.1 1.3-1.8 1.3s-1.5-.6-1.7-1.3c-.3-.7.4-1.2 1.7-1.2s2 .5 1.8 1.2m-.1 4.4c.8 2.1-1.3 4.2-2.8 2.7-1.3-1.3-.5-4.3 1.1-4.3.6 0 1.3.7 1.7 1.6M747.6 998.5c-.3.8-.3 2.2 0 3 .4.8.1 2.2-.6 3-1.7 2.1.4 4.5 4 4.5 3.3 0 3.8-1 3.2-7.3-.4-4.4-.6-4.7-3.2-4.7-1.6 0-3 .7-3.4 1.5m4.4 2.1c0 1.7-2.2 1.4-2.8-.4-.2-.7.3-1.2 1.2-1.2s1.6.7 1.6 1.6m.7 4c.9 2.3-1.3 4-3.2 2.4-1.2-1-1.3-1.6-.4-2.6 1.5-1.8 2.8-1.8 3.6.2M757 999.9c-1.8 4.5.2 9.3 3.9 8.9 1.8-.2 2.9-1.2 3.5-3.1 2.4-6.8-4.6-12.3-7.4-5.8m5.5 3.6c0 4.7-2.4 5.6-3.9 1.4-1.2-3.4-.1-6.1 2.1-5.7 1.4.2 1.8 1.3 1.8 4.3M731 1004c0 .5.9 1 2.1 1 1.1 0 1.7-.5 1.4-1-.3-.6-1.3-1-2.1-1s-1.4.4-1.4 1M330.4 901c-2.7 1.1-6.4 5.7-6.4 8 0 1-.9 2.9-2 4.3-2.6 3.3-2.9 10.7-.6 14.2 1 1.5 1.5 3.8 1.3 5.3-.3 2.3-.4 2.2-.6-.8-.2-2.9-.4-3.2-1.1-1.5-1 2.3-1.3 8.1-.4 7.2.8-.7 3.4 1.7 3.4 3.2 0 1.6-2.2 1.3-4.8-.5-1.9-1.3-2.1-1.8-1-3.2 1.1-1.3 1.1-1.4-.2-1-.8.2-1.6 1.3-1.8 2.4-.2 1.5.9 2.5 4.5 4.3 4.5 2.2 4.8 2.2 6 .5 1.1-1.5 1-2.1-.7-3.9-2.9-3.1-2.7-9.2.5-13.5 3-4.1 4.2-9.6 2.6-12.2-2.5-4 3.2-8.5 9.3-7.2 1.7.3 5.4 1.9 8.1 3.4 2.8 1.5 8.3 4.6 12.4 6.9 8 4.4 8.1 4.5 8.1 3.3 0-.4-2.4-2.1-5.2-3.6-2.9-1.6-7.3-4-9.8-5.4-12.1-6.8-18.2-8.1-22-4.7-3 2.7-4.5 7.2-3 9 1.1 1.3.8 1.5-1.4 1.5-3 0-3-.5.5-8.8 2.2-5 5.4-6.6 12-5.9 4.3.5 8.3 2.3 20.9 9.5 5.2 3 9.6 4.3 7.5 2.3-.6-.5-6.8-3.9-13.9-7.5-12.9-6.7-17.1-7.7-22.2-5.6m-8 18.5c-.4.8-.8 1.5-1 1.5s-.4-.7-.4-1.5.4-1.5 1-1.5c.5 0 .7.7.4 1.5m2.1 5.5c.3.5-.1 1-.9 1-.9 0-1.6-.5-1.6-1 0-.6.4-1 .9-1 .6 0 1.3.4 1.6 1M847.5 903.2c-1 2.4-.1 10.4 1 9.8.5-.3.9-2.7.7-5.5-.3-5.4-.8-6.6-1.7-4.3M581 909.1c0 4.4.3 6 1.3 5.6.6-.2 1.1-1.7 1.1-3.3-.1-1.6-.2-4.1-.3-5.7-.1-1.5-.5-2.7-1.1-2.7s-1 2.7-1 6.1M848 927c0 3.3.4 6 1 6s1-2.7 1-6-.4-6-1-6-1 2.7-1 6M581.9 925.2c-.1 1.8-.2 4.6-.3 6.2 0 1.6.5 3.1 1.2 3.3.9.4 1.2-1.2 1.2-5.6 0-6.2-1.9-9.8-2.1-3.9M848 945.5c0 3.7.4 6.5 1 6.5s1-2.8 1-6.5-.4-6.5-1-6.5-1 2.8-1 6.5M582 949.5c0 4.2.4 6.4 1 6 .6-.3 1-3 1-6s-.4-5.7-1-6c-.6-.4-1 1.8-1 6M157.2 945.3c-.8.9-.3 1.2 1.9 1.2 3.4 0 3.5-.1 1-1.4-1.3-.8-2.2-.7-2.9.2M165.7 944.7c-1.3 1.2-.7 2.2.8 1.7.8-.4 2.2-.1 3 .6 2 1.6 1.9.6-.1-1.4-1.7-1.7-2.7-2-3.7-.9M175 945c2 1.3 4.3 1.3 3.5 0-.3-.6-1.6-1-2.8-1-1.8 0-1.9.2-.7 1M182.4 945.1c-1.5 2.5-1.3 8 .3 8.6 2 .8 4.9-1.1 4.4-2.9-.2-.7-.4-2-.4-2.8 0-3.2-2.9-5.1-4.3-2.9m3.6 1.9c0 .5-.7 1-1.5 1s-1.5-.5-1.5-1c0-.6.7-1 1.5-1s1.5.4 1.5 1m0 4.6c0 .8-.9 1.4-2 1.4-2.2 0-2.8-2.6-.7-3.3 1.6-.6 2.7.1 2.7 1.9M190.6 945.6c-.9.8-1.6 2.5-1.6 3.7 0 1.6.3 1.8 1.2.9 1.9-1.9 3.8-1.4 3.8.9 0 1.7-.5 2-2.1 1.6-1.5-.4-1.9-.3-1.1.5 1.5 1.5 5.2 0 5.2-2.2 0-1.3-.9-2.2-2.5-2.6-3-.7-3.3-2.4-.4-2.4 1.1 0 1.7-.5 1.4-1-.9-1.4-2.1-1.2-3.9.6M202.8 946.5c-1.5 3.3.3 7.5 3.2 7.5 2.5 0 3.7-4.2 2.1-7.6-1.4-3.1-3.8-3.1-5.3.1m5 3.4c-.4 3.6-3.5 4-4.4.7-.8-3.4 1.2-6.2 3.3-4.4.8.6 1.3 2.3 1.1 3.7M210.8 946.5c-1.6 3.6.4 7.8 3.5 7.3 3.2-.4 3.1-5.2-.1-5.6-2.6-.4-2.4-2.8.1-2.6.9.1 1.4-.2 1.1-.7-1-1.7-3.5-.9-4.6 1.6m4.7 4.5c0 .8-.8 1.6-1.7 1.8-1.3.2-1.8-.3-1.8-1.8s.5-2 1.8-1.8c.9.2 1.7 1 1.7 1.8M228.3 944.7c-1.8.7-1.6 6.8.2 8.3 2 1.6 4.5.6 4.5-1.9 0-1.9-1.5-3.5-3.2-3.6-.5 0-.7-.5-.5-1 .1-.6.8-.9 1.5-.9.6.1 1.2-.2 1.2-.7 0-1-1.7-1.1-3.7-.2m3.5 6c-.2 1-1 1.8-1.8 1.8s-1.6-.8-1.8-1.8c-.2-1.2.3-1.7 1.8-1.7s2 .5 1.8 1.7M220 946c0 .5.4 1 .9 1 .6 0 1.2 1.5 1.4 3.2.3 2.9.4 2.7.5-1 .2-3.1-.2-4.2-1.3-4.2-.8 0-1.5.4-1.5 1M176.1 948.8c-.6 1.2-1.1 2.7-1.1 3.4s.7 0 1.5-1.6c.9-1.6 1.3-3.1 1.1-3.3-.2-.3-.9.4-1.5 1.5M157.2 950.2c1.7 1 4.8 1 4.8 0 0-.5-1.4-.9-3-.9q-3 0-1.8.9M198 950c0 .5.5 1 1 1 .6 0 1-.5 1-1 0-.6-.4-1-1-1-.5 0-1 .4-1 1M165 951.8c0 2.1 3 2.6 4.8.7 1.6-1.6 1.6-1.6-.6-.4-1.9 1.2-2.4 1.2-3.2-.1-.7-1-1-1.1-1-.2M307.7 951.6c-.3.3-.3 1.2 0 1.9.4 1.1-.1 1.2-2.6.2-4.1-1.5-5.2 0-1.8 2.7 1.5 1.2 2.7 2.5 2.7 2.8 0 1-6.6 4.8-8.4 4.8-.9 0-2.8-1.1-4.2-2.5-1.9-1.9-3.1-2.3-5.4-1.8-4.1.8-4.8 2.3-2.2 4.4 1.2.9 2.2 2.1 2.2 2.7 0 .5.9 1.7 2 2.7 2.2 2 2.6 5.1.8 5.8-1 .4-.9.8.2 1.6 1.2.8 1.6.4 2.1-2 1.1-5.3 2.7-5.8 5.9-2.1 2.1 2.6 3.3 3.2 4.9 2.7 3.4-1 4-6.5.7-6.5-.7 0-1.8-1.1-2.4-2.4-1-2.3-.8-2.7 2.4-4.7 2.9-1.8 4-2 6-1 2.5 1.1 2.5 1.1.4 5.1-2.4 4.8-2.4 4.8-.2 5.3 1.6.4 1.6.4-.1 1.2-2.8 1.2-6.5 5.2-10.3 11.2-1.9 2.9-4.2 5.3-5.1 5.3-1.4 0-1.3-.4.5-2 1.3-1.2 2.2-3.3 2.2-4.9 0-2.5-.4-2.9-3.5-3.3-2.7-.3-3.6 0-4.1 1.4-.3 1-1 1.8-1.5 1.8-1.3 0-1.1-1.4.3-2.8 2.8-2.8-.5-2.1-6.8 1.3-6.1 3.4-7.2 3.6-11.9 3-4.3-.5-5.9-.2-8.6 1.4-11.2 6.7-13 7.4-17.1 6-3.5-1.1-4.3-1-8.1 1-4.2 2.3-7.7 5.6-7.7 7.2 0 1.7 8.5 5.2 13.5 5.5 4.3.2 5.6-.2 9.4-2.8 4.3-3.1 4.3-3.1 8.7-.9 2.5 1.1 5.5 2.1 6.9 2.1 1.3 0 2.7.4 3 1 1.9 3.1 8.5-.5 8.5-4.6 0-2 1.7-4.4 3.2-4.4.5 0 .6 1.9.2 4.2-.4 3.2-.3 3.9.5 2.8.6-.8 1.1-2.5 1.1-3.8 0-1.2.9-3 2-3.9 1.1-1 2-2.7 2-3.8s.5-2.7 1-3.5c.7-1.2 1.2-1.2 2.2-.2 1.9 1.9 1.9 7.2.1 7.2-1 0-1.4.7-1 2 .3 1.2-.1 2.3-1 2.9-.9.4-1.3 1.3-.9 2 1 1.6 3.6 1.4 3.6-.4 0-2 2.4-1.9 5.5.1 3 2 3.1 3.4.6 6.5-1.6 2-2.1 2.2-3.5 1-.9-.8-1.9-1.2-2.2-.9-.2.3.7 1.3 2 2.2 2.5 1.6 2.6 1.6 4.9-2.1 1.4-2.1 2.3-4.3 2-4.8-.2-.6-2.1-2.1-4.3-3.5-3.2-2-3.7-2.7-2.9-4.2.6-1 .7-2.3.4-2.8-.3-.6-.2-1 .4-1s2.7-1.7 4.8-3.8c2.2-2 4.8-4.3 5.8-5 1.6-1 1.7-1.2.3-.8-2.9.9-2.1-2.1 1.2-4.4 2.4-1.7 3-1.8 3-.6 0 .8-.8 2-1.7 2.5-1 .6-1.3 1-.8 1.1 1.5 0 3-1.3 4.3-3.5 1.1-2 1.1-2 1.2.2 0 1.2-1 2.9-2.2 3.7-1.7 1.2-1.8 1.6-.6 1.6.8 0 2.1-.7 2.8-1.5 1.8-2.2 3.2-1.8 1.8.5-.7 1.1-2 2-2.8 2.1-.9 0-1 .2-.3.5.6.3 3-.4 5.3-1.6 4-2.1 4.1-2.2 3.8-6.8-.3-4.3-.6-4.8-4-6.5-3.9-1.9-4.9-4.3-2.3-5.3.8-.4 1.5-1.5 1.5-2.5 0-1.5.5-1.8 2.4-1.3 4.8 1.2 3.5-1.6-2.4-5-6.3-3.7-7.2-4-8.3-3m4.9 2.5c1.7 2.8-6.4 4-8.6 1.3-1.2-1.3-1-1.4 1.5-.2 2.4 1.1 2.9 1 3.9-.5 1.3-2 2.2-2.2 3.2-.6m4.9 2.9c.4.6.3 1-.2.9-2.3-.4-3.5.2-2.9 1.6.7 1.8-1.5 2-3.2.3-1-1-.7-1.5 1-2.5 2.8-1.5 4.5-1.6 5.3-.3m-24.3 6c1.2 1.1 2.7 2 3.4 2 1.3 0 2.8 2.9 1.9 3.8-.7.7-8.2-2.8-10.8-5.1-1.6-1.5-1.7-1.8-.5-1.4 1 .3 2 .2 2.3-.3.9-1.4 1.3-1.3 3.7 1m-.2 6.5c0 .3-.2.5-.5.5s-.5-.2-.5-.5.2-.5.5-.5.5.2.5.5m10.4 2.7c-.5.9-.2.9.9-.1 1.9-1.5 2.3-.1.5 1.7s-2.8 1.5-2.8-.8c0-1.1.5-2 1.1-2 .5 0 .7.6.3 1.2m11.3.5c-.4.3-1 .3-1.4 0-.3-.4 0-.7.7-.7s1 .3.7.7m5.3 3.2c0 1.6-.6 3.1-1.3 3.4-.9.3-1.2-.5-.9-2.9.5-4.1 2.2-4.5 2.2-.5m-3 .7c0 .8-.5 1.2-1 .9-.6-.4-.8-1.1-.5-1.6.9-1.4 1.5-1.1 1.5.7m-32.5 5.4c-.3.5-1.2 1-1.8 1-.7 0-.6-.4.3-1 1.9-1.2 2.3-1.2 1.5 0m12 1.2c-1.5 4.7-4.5 4.9-4.5.2 0-1.9.5-2.4 2.6-2.4 2.2 0 2.4.3 1.9 2.2m-8.8 4.4c-.9 2.9-1.2 3.3-1.8 1.8-.6-1.6-.8-1.5-1.4.8-.8 3.2-2.5 3.7-2.5.8 0-2.3-1-2.6-2.8-.8-.6.6-1.4.9-1.7.6s1.3-1.7 3.6-3.3c3.3-2.1 4.3-2.4 5-1.3.6.9.9.7.9-1 0-1.3.4-2.1.9-1.8.5.4.5 2.1-.2 4.2m-19.7-3.1c0 .3-.2.5-.5.5s-.5-.2-.5-.5.2-.5.5-.5.5.2.5.5m11.7.2c-.4.3-1 .3-1.4 0-.3-.4 0-.7.7-.7s1 .3.7.7m-4 1c-.4.3-1 .3-1.4 0-.3-.4 0-.7.7-.7s1 .3.7.7M273 988c2.4.8 2.3.8-.8.9-3.6.1-12.6 4.3-13.9 6.4-.9 1.5-4.6 3.7-6.2 3.7s-1.3-3.6.3-4.9c.7-.6 3.8-2.5 6.7-4.1 5.4-3 9.2-3.5 13.9-2m.6 3.6c3.1 1.5 3.4 2 3.4 6 0 4.8-2.4 7.2-4.1 4.2-.5-.9-1.8-1.4-3.2-1.1s-2.9-.3-4.1-1.6c-1.1-1.2-2.6-2.1-3.5-2.1-1.2 0-.9.6.9 2 2.8 2.2 2.3 2.5-1.5.8-3.9-1.7-3.2-3.1 3.5-7.1 5.4-3.2 4.5-3 8.6-1.1m-27.7 1.5c4 1.9 4.2 2.2 3.9 5.7-.2 3-.7 3.8-2.5 4-1.3.2-2.3 0-2.3-.5 0-.4-2.7-.8-5.9-.8-9.7 0-10.7-3.3-2.6-8 5-2.9 4.3-2.9 9.4-.4M281 992c0 .5-.7 1-1.6 1-.8 0-1.2-.5-.9-1 .3-.6 1-1 1.6-1 .5 0 .9.4.9 1"/><path d="M271 997c-2 1.6-2.2 2-.7 2 .9 0 1.7-.5 1.7-1 0-.6.6-1 1.4-1s1.8-.5 2.1-1c1.1-1.7-1.9-1.1-4.5 1M242 999c-1.4 1.1-2.2 2-1.9 2 .9 0 6.9-3.1 6.9-3.6 0-1-2.7-.2-5 1.6M233.4 999.5c2.2 1.7 4 2 3.2.6-.3-.5-1.6-1.1-2.8-1.4-2.2-.6-2.2-.5-.4.8M159 952.9c-1.4.4-2 1-1.4 1.4.6.3 2 0 3-.8 2.1-1.6 2-1.6-1.6-.6M197.5 971c.3 8 .5 21.5.6 30 .1 16.3-.4 17.9-4.2 14.4-1.8-1.6-2.1-1.6-6.1.1-2.4 1.1-4.9 2.3-5.5 2.8-2 1.5-1.5 7.1.8 10.1 1.6 2.1 2.9 2.6 6.2 2.6 4.8 0 5.6-.5 7.9-4.1 1.3-2.1 2.7-2.7 7-3.2 6.1-.8 8.4-2.8 6.5-5.9-1-1.7-1.9-1.9-5.8-1.4l-4.7.5-.7-25.7c-.4-14.1-1.1-27.7-1.6-30.2-.5-2.9-.6.7-.4 10m-1.1 49.5c.7 2.9-.2 7.5-1.5 7.5-.5 0-.6-1.3-.3-3 .4-1.9.1-3.8-1-5.5-2.1-3.2-2-3.8.3-2.6 1 .6 2.2 2.2 2.5 3.6m-6.6.7c.9 1.8.9 3.4.2 5.2-1.8 5-7.9 2.3-8-3.5 0-5.3 5.4-6.6 7.8-1.7m16.2-1.2c0 1.1-.7 2-1.5 2s-1.5-.9-1.5-2 .7-2 1.5-2 1.5.9 1.5 2m4-.4c0 1.7-2.2 1.4-2.8-.4-.2-.7.3-1.2 1.2-1.2s1.6.7 1.6 1.6m-8.2 1.1c-.5 2.6-3.8 2.9-3.8.4 0-1.5.6-2.1 2.1-2.1 1.4 0 1.9.5 1.7 1.7m-8.3 1.1c0 1.8-2 1.5-2.3-.4-.3-1 .1-1.5 1-1.2.7.3 1.3 1 1.3 1.6m-.5 5.2c0 .5-.5 1-1.1 1-.5 0-.7-.5-.4-1 .3-.6.8-1 1.1-1 .2 0 .4.4.4 1M678.3 959.6c-.4 1.1-1.3 1.3-3.4.9-2.1-.5-2.9-.3-2.9.7 0 2.1 7.7 2.1 8.8.1.7-1.1 1.1-1.2 1.7-.4.4.7-.1 1.8-1.1 2.6-2.3 1.7-4.1 1.9-4.9.5-.3-.6-1.1-1-1.7-1s-.5.7.3 1.6c1.2 1.4.9 2-1.6 4-3.8 3-5.3 3-8.9-.1-2.1-1.8-3.6-2.3-5.5-1.9-3.9 1-4.5 2-2.2 4 1.1 1 2.1 2.4 2.1 3s.9 2.1 2 3.4c1.8 2.1 1.8 2.4.4 4.9-3 5.1-16.5 14.5-19.4 13.6-2.7-.8-14 6.2-14 8.7 0 1.3 4.8 4 10.6 5.9 6.6 2.2 10 1.3 11-2.8 1-4.6 1.3-5.3 2.5-5.3.8 0 .9 1.5.5 4.7-.8 5.6.8 3.9 1.8-2 .4-2.2 1.3-3.7 2.1-3.7s1.7-1.5 2.1-3.5c.8-4.3 2.1-5.3 3.9-2.9.9 1.3 1 2.1.2 2.6-.7.4-.7 1.1.2 2.2 1.2 1.4 1 1.6-.9 1.6-1.7 0-2.1.4-1.7 2 .3 1.3 0 2-1 2-2 0-1.2 3.4 1 3.8 1.2.2 1.7-.3 1.7-1.7 0-2.6.2-2.6 4.5.1 4 2.6 4.1 3 1.9 6.3-1.3 2-2 2.3-3.4 1.5-3.1-1.6-3.7-1.1-1.1 1 2.7 2.3 4.2 1.6 6.6-3 1.6-3.1.9-4.4-3.5-7.4-1.7-1.1-2.5-2.6-2.5-4.6 0-1.7.4-3 .8-3 .5 0 2.3-1.5 4-3.3 1.8-1.7 4.3-3.7 5.7-4.4 1.8-.9 2-1.2.8-1.2-2.5-.1-2.2-1.2 1.2-4.4 1.7-1.6 3-2.3 3-1.6 0 .6-.8 1.8-1.7 2.6-1.7 1.3-1.7 1.4.2 1.1 1.1-.2 2.5-1.4 3.1-2.6.7-1.4 1.4-1.9 1.8-1.3.4.5-.8 2.7-2.7 4.8-3.3 3.8-3.3 3.8-3.3 22.3l.1 18.5 15.8.3 15.7.3v3.9c0 2.1.5 4.2 1 4.5.6.4 1-1.1 1-3.9v-4.5l15.8-.3 15.7-.3.3-5.8c.2-3.7-.1-5.7-.8-5.7-.6 0-.9.4-.5.9.3.6.3 2.8-.1 5l-.7 4.1h-61.8l.1-18.5c.2-16.7.7-20.5 2.5-17.5.8 1.2 8.3-2.7 9.3-4.9 1.8-3.9 0-8.5-4.3-10.6-4-1.8-4.2-2.5-1.5-5 1.1-1 1.7-2.2 1.4-2.7-.4-.6.6-.8 2.2-.6 4.3.5 3.8-1.4-1.3-4.7-6.6-4.2-8.3-4.8-9-2.9m7.4 5.5c-.9.6-1.5 1.4-1.2 2 .4.5-.1.9-.9.9-2.1 0-3.1-2.1-1.5-3.1.8-.5 2.3-.9 3.4-.9 1.9.1 1.9.1.2 1.1m-4.3 3.4c1.8 1.3 1.8 1.5-.4 5-1.9 3-2 3.8-.8 5.2 1.1 1.5 1.1 1.6-.4 1-1.1-.4-1.8-.2-1.8.6 0 .7-1.3 2.6-3 4.2-1.6 1.6-3 3.3-3 3.7 0 1.3-5.4 7.8-6.4 7.8-.5 0-.2-.8.6-1.8 3.5-4 2.7-9.9-1.2-8.7-1.9.6-1.9.7-.5-5.8.7-3.5 2.5-3.4 5 .3 1.9 2.9 6.5 4.3 6.5 2 0-.6-.7-1-1.6-.8-1 .2-1.9-.4-2.1-1.2-.4-1.2-.3-1.2.5-.1s1.2 1 2.1-.5c1-1.8 1-1.8 1.1.1 0 1.6.2 1.7 1 .5.7-1.1.1-2.2-2-4.2-1.7-1.5-3-3-3-3.3 0-.9 5.4-5.4 6.5-5.4.6 0 1.8.6 2.9 1.4m-16.7 2.1c2.1 1.4 4.2 3.3 4.7 4.1.7 1.3.4 1.5-1.9.9-1.4-.4-4.4-1.8-6.6-3.3-4-2.6-5.1-4-2.4-2.9.8.3 1.5.1 1.5-.4 0-1.4.5-1.3 4.7 1.6m20.3 8.9c0 .3-.2.5-.5.5s-.5-.2-.5-.5.2-.5.5-.5.5.2.5.5m4.8 4.2c-.2 1.4-.9 2.8-1.6 3.1-1.1.3-1.2 0-.4-1.4.5-1.1.7-2.5.5-3.2-.3-.6.1-1.2.7-1.2s1 1.1.8 2.7m-2.8.3c0 .5-.4 1-1 1-.5 0-1-.5-1-1 0-.6.5-1 1-1 .6 0 1 .4 1 1m-26 3c-.6 1.2-1.4 1.9-1.7 1.7-.2-.3.1-1.5.7-2.7s1.4-1.9 1.7-1.7c.2.3-.1 1.5-.7 2.7m23.7 1.5c-.4.8-1.1 1.5-1.7 1.5-.7 0-.7-.6 0-2.1 1.3-2.3 2.6-1.9 1.7.6m-17.7.4c0 2.1-1.3 4.1-2.6 4.1-.8 0-1.4-1-1.4-2.5 0-1.8.5-2.5 2-2.5 1.1 0 2 .4 2 .9m-8.3 3.8c-.4.3-.7 0-.7-.7s.3-1 .7-.7c.3.4.3 1 0 1.4m-3.3 3c-1 4.2-1.7 4.9-2.5 2.5-.6-1.5-1.4-2-2.6-1.6s-1-.1.7-1.5c3.6-2.9 5.2-2.7 4.4.6m-10.5 3c2.7 1.6 3.1 2.4 3.1 5.9 0 3.3-.4 4.3-1.9 4.7-1.2.3-2.2-.1-2.5-1-.4-1-1.4-1.3-2.9-1-1.5.4-2.9-.1-4.6-1.8-1.3-1.4-3.1-2.5-4-2.5-1.1 0-.7.7 1.4 2.6l3 2.5-3.3-1.8c-1.8-.9-3.1-2.2-2.9-2.7.4-1.2 8.7-6.4 10.4-6.5.6-.1 2.5.7 4.2 1.6m3.1-1.2c0 .3-.2.5-.5.5s-.5-.2-.5-.5.2-.5.5-.5.5.2.5.5m2.7 2.2c-.4.3-.7 0-.7-.7s.3-1 .7-.7c.3.4.3 1 0 1.4"/><path d="M642.8 1002.9c-2.6 1.5-3.7 3.1-2 3.1 1.1-.1 5.7-3.8 5.2-4.3-.3-.2-1.7.3-3.2 1.2M848.7 958.7c-1.1 1-.8 11.3.3 11.3.6 0 1-2.7 1-6 0-6.1-.1-6.5-1.3-5.3M582 970c0 4 .4 7 1 7s1-3 1-7-.4-7-1-7-1 3-1 7M848 981.9c0 3.3.5 6.3 1 6.6.6.4 1-1.8 1-5.9 0-3.7-.4-6.6-1-6.6s-1 2.6-1 5.9M308 1018.8c0 36.2 0 36.2 2.6 36.8 1.4.4 19.8.4 40.9.2l38.4-.5.3 4.1c.4 4.9 2.3 4.6 2.3-.4v-3.5l40.2-.3c40.2-.2 40.2-.2 40.5-3 .8-7-.3-45.2-1.4-45.2-.7 0-.9 6.8-.6 22.5.3 12.4.2 22.8-.2 23-.4.3-22.1.5-48.1.5l-47.4.1-.6-20.3c-.8-25.2-.8-25.3-1.5-24.6-.3.4-.5 10.5-.4 22.5l.1 22-14.3.6c-13.8.7-48.8 1-48.8.4-.1-.1-.3-16-.7-35.2-.3-19.3-.7-35.2-.9-35.4s-.4 15.8-.4 35.7"/><path d="m359.5 984-25 .5-.3 10c-.1 5.5.2 10.6.7 11.3.7 1.2 7.5 1.2 39.7.5l38.9-.8v-22H399c-8 0-25.7.2-39.5.5m52.7 9.7c.3 4.8.3 9.1-.1 9.4-.3.4-17.6 1-38.3 1.3l-37.8.7v-17.9c0-.7 21-1.5 55.1-2l20.6-.3z"/><path d="M342.7 989.7c-.4.3-.7 1.9-.7 3.5 0 2.4.3 2.8 1.9 2.3 1-.3 2.4.1 3.1 1 1.1 1.3 1.1 1.9-.3 3.3-1.3 1.3-1.9 1.3-2.9.4-1.7-1.7-3.3-1.5-1.8.3 1.8 2.1 5.7 1.9 7-.5 1.3-2.5-.1-5.6-3-6.5-2.6-.8-2.6-2.5 0-2.5 1.1 0 2-.5 2-1 0-1.1-4.3-1.4-5.3-.3M353 990.5c-1.7 2.1-1.6 9.5.1 10.6 2.8 1.8 5.4.6 5.7-2.8.2-2.4-.1-3.3-1.7-3.8-1.2-.3-2.6-.3-3.2.1-.7.4-.9-.1-.7-1.2.3-1.4 1.2-1.8 3.2-1.7 2.3.2 2.6 0 1.6-1.3-1.6-1.8-3.4-1.8-5 .1m4.5 6.5c.7 1.1-1.2 4-2.5 4-1.1 0-2.1-3-1.4-4.1.7-1.2 3.1-1.1 3.9.1M368.5 990c-.4.6-.8 2.9-.9 5.1-.4 5.7 3.4 9.1 6.3 5.6 1.1-1.4.8-8.7-.4-10.7-.8-1.3-4.2-1.3-5 0m4.5 2.5c0 .8-.9 1.5-2 1.5-2 0-2.6-1.1-1.3-2.3 1.2-1.3 3.3-.7 3.3.8m-.1 4.4c1.6 1 .6 3.1-1.4 3.1-1.7 0-2.8-1.7-2-3 .8-1.2 1.6-1.2 3.4-.1M378 989.9c0 .6 1.3 1.1 2.9 1.3 2.9.3 2.9.3 1 4.2-2.2 4.5-2.3 5.6-.9 5.6.6 0 1-.8 1-1.8 0-.9.9-3.2 2-5 2.8-4.6 2.5-5.2-2-5.2-2.2 0-4 .4-4 .9M387.9 991.4c-1.6 3.5-.3 9.3 2.1 9.9 4.1 1.1 6.6-5.5 4-10.4-1.5-2.7-4.8-2.4-6.1.5m5.5 1.2c1.1 2.9.6 6.2-1 6.8-2.5 1-3.4-.2-3.4-4.5 0-3.2.4-3.9 1.9-3.9 1 0 2.2.7 2.5 1.6M397.6 989.8c-.3.5-.2 3.4.1 6.5.6 5.6.6 5.7 3.7 5.7 1.8 0 3.7-.5 4.4-1.2 1.3-1.3.4-9.9-1.2-11-1.5-1-6.4-1-7 0m6.4 3.2c0 1.5-.7 2-2.5 2s-2.5-.5-2.5-2 .7-2 2.5-2 2.5.5 2.5 2m.9 3.9c1.2.8 1.2 1.2.2 2.5-2.5 3-7 1.4-5.7-1.9.6-1.7 3.4-1.9 5.5-.6M362 997c0 .5.4 1 .9 1 .6 0 1.3-.5 1.6-1 .3-.6-.1-1-.9-1-.9 0-1.6.4-1.6 1M433.6 984.3c-1.5 1.1-1.6 2.3-.9 11.2l.8 10h38.9c34.3 0 39-.2 39.9-1.6.6-.9.7-5.2.2-11.2l-.7-9.7h-38.2c-29.5 0-38.6.3-40 1.3m76.7 9.4c.4 4.8.4 8.9.2 9.1-.2.3-17.3.7-37.8 1l-37.4.5-.6-3.3c-.9-4.2-.9-14.5 0-15.3.3-.4 17.4-.7 37.8-.7h37.2z"/><path d="M498.1 993.6c-2.2 5.8-2.4 9.6-.2 5.6 1.6-3 5.6-3 6.6 0 .5 1.6.8 1.9 1.1.8.6-2-2.8-11.2-4.3-11.7-.6-.2-2.1 2.2-3.2 5.3m3.5 1.1c-1.1 1.1-1.9-.6-1.1-2.4.8-1.7.8-1.7 1.2 0 .3 1 .2 2.1-.1 2.4M440.6 990.6c-1.3 3.3-.6 4.4 2.4 4.4 2.3 0 3 .5 3 1.9 0 2.6-1.5 3.4-4 2.1-1.4-.8-2-.8-2 0 0 1.6 4.3 2.9 6.3 1.8 3.4-1.8 1.5-7.8-2.5-7.8-1 0-1.8-.5-1.8-1 0-.6 1.1-1 2.4-1 1.4 0 2.8-.5 3.1-1 .4-.6-.8-1-2.8-1-2.3 0-3.7.6-4.1 1.6M451.2 990.2c-1.9 1.9-1.5 8.2.7 10.2 1.5 1.4 2.4 1.5 4 .6 3.8-2 1.6-9.2-2.4-7.6-.9.3-1.5 0-1.5-1 0-1.2.7-1.5 2.5-1.1 1.6.3 2.4 0 2.2-.7-.5-1.6-4-1.9-5.5-.4m4.6 7.6c.2 1.4-.2 2.2-1.2 2.2-1.9 0-2.9-1.7-2.2-3.6.8-2.2 3-1.2 3.4 1.4M467.4 990.2c-.5.7-.9 3.2-1.1 5.6-.2 3.6.1 4.4 2 5.1 1.2.5 3 .5 3.9 0 1.6-.9 1.8-3.5.9-11.2-.2-1.2-4.9-.8-5.7.5m4.2.9c1 1.7-1.3 3.6-2.7 2.2-1.2-1.2-.4-3.3 1.1-3.3.5 0 1.2.5 1.6 1.1m.2 6.2c.2 1.2-.3 1.7-1.7 1.7-1.2 0-2.1-.6-2.1-1.3 0-3.1 3.2-3.4 3.8-.4M476.8 990.2c-.2.7-.4 3.3-.3 5.8 0 4.5 0 4.5 3.5 4.5s3.5 0 3.6-4.5c.1-6.1-.4-7-3.6-7-1.5 0-3 .6-3.2 1.2m5 1.6c.2.7-.6 1.2-1.7 1.2-2.1 0-2.7-1.1-1.4-2.4.9-.9 2.6-.2 3.1 1.2m0 5.5c.2 1.2-.3 1.7-1.7 1.7-1.2 0-2.1-.6-2.1-1.3 0-3.1 3.2-3.4 3.8-.4M487.2 990.2c-1.6 1.6-1.6 8 0 9.6 1.7 1.7 5.5 1.5 6.2-.4 1-2.6.7-7.9-.6-9.2-.7-.7-1.9-1.2-2.8-1.2s-2.1.5-2.8 1.2m4.6 4.6c.3 3.7.1 4.2-1.7 4.2s-2.1-.6-2.1-3.8c0-6.8 3.3-7.1 3.8-.4M460.5 996c-.3.5.3 1 1.5 1s1.8-.5 1.5-1c-.3-.6-1-1-1.5-1s-1.2.4-1.5 1M582 990.5c0 4.8.4 7.4 1 7 .6-.3 1-3.5 1-7s-.4-6.7-1-7c-.6-.4-1 2.2-1 7M848.5 995.2c-1 2.4-.1 12.3 1 12.1 1.4-.4 1.9-11.3.6-12.6-.7-.7-1.2-.5-1.6.5M293.7 1002.4c-.4.9-2.8 1.7-6.1 2.1-5.8.8-7.3 2-3.3 2.8 2.1.4 2.1.4-.3.6-2.5.1-2.5.1.5 2.1 1.7 1.1 3.6 2 4.3 2 1.7 0 1.5-2.7-.3-3.4-2.7-1-1.6-2.3 2.7-3 2.6-.4 4.4-.3 4.8.4.5.8.9.8 1.2-.2.5-1.3-1.3-4.8-2.5-4.8-.2 0-.7.6-1 1.4M582 1011c0 3.3.4 6 1 6s1-2.7 1-6-.4-6-1-6-1 2.7-1 6M273 1008c0 1.2 1.7 1.2 4.5 0 1.7-.7 1.5-.9-1.2-.9-1.8-.1-3.3.3-3.3.9M264.3 1008.7c-1.3.2-2.3.9-2.3 1.4 0 1.1 5 .1 6.5-1.2.9-.9-.2-1-4.2-.2M664.1 1009.4c-.8.9-2.4 1.6-3.6 1.6-3.7 0-8.5 1.2-8.5 2.1 0 .5.8.9 1.8.9 1.3 0 1.4.2.4.9-1 .6-.7 1.2 1.2 2.4 1.4 1 3 1.7 3.6 1.7 1.6 0 1.2-3-.5-3.6-.8-.4-1.5-1-1.5-1.4 0-1.2 7.4-1.8 8.1-.7.7 1 2.9.1 2.9-1.2 0-.4-.6-1.5-1.3-2.5-1.2-1.6-1.4-1.6-2.6-.2M252.3 1010.7c-1.3.2-2.3.9-2.3 1.5 0 1.2 4.9.2 6.5-1.3.9-.9-.1-1-4.2-.2M238 1014c0 1.2 2.7 1.2 5.5 0 1.6-.7 1.3-.9-1.7-.9-2.1-.1-3.8.3-3.8.9M593 1015.2c-5.2 2.2-6 3.2-6 7.5 0 4.9 2.9 7.3 8.9 7.3 4.5 0 5.2-.3 6.8-3 2.6-4.5 6.1-4 15.5 2.1 7.5 4.9 7.8 5.3 7.8 9 0 2.1.5 4.1 1 4.4.6.4 1-1.3 1-4.4 0-4.2-.4-5.2-2.2-6.2-1.3-.6-4.4-2.7-7-4.6-4.2-3.1-4.6-3.6-3.3-5 1.9-1.8 1.9-2.3.1-4.9-1.4-1.9-1.9-2-7-1.1-4.6.9-5.9.8-7.3-.5-3-2.6-3.7-2.6-8.3-.6m8 2.7c1.3 2.6 1.3 9.1-.1 9.1-.6 0-.8-1.1-.5-2.8.4-1.5 0-3.9-.8-5.5-.8-1.5-1.1-2.7-.6-2.7s1.4.9 2 1.9m-6.1 1.5c.7.8 1.1 3 .9 4.8-.2 2.6-.8 3.4-2.7 3.6-2.8.4-5.1-2-5.1-5.3 0-4 4.5-6 6.9-3.1m11.9.9c.2 1-.3 1.7-1.2 1.7-1 0-1.6-.9-1.6-2.1 0-2.4 2.3-2.1 2.8.4m4.8-1.2c.3.6.1 1.6-.5 2.2-.9.9-1.4.8-2.1-.3-.9-1.5-.4-3 1-3 .5 0 1.2.5 1.6 1.1m3.4.4c0 .8-.4 1.5-1 1.5-.5 0-1-.7-1-1.5s.5-1.5 1-1.5c.6 0 1 .7 1 1.5m-16 2.1c0 .8-.4 1.2-1 .9-.5-.3-1-1.3-1-2.1s.5-1.2 1-.9c.6.3 1 1.3 1 2.1m-.3 5.1c-.4.3-1 .3-1.4 0-.3-.4 0-.7.7-.7s1 .3.7.7M644.5 1014c-.3.6.5 1 1.9 1s2.8-.5 3.1-1c.3-.6-.5-1-1.9-1s-2.8.4-3.1 1M849 1019.4c0 3.7.4 6.6 1 6.6s1-2.6 1-5.9-.4-6.3-1-6.6c-.6-.4-1 1.8-1 5.9M228.5 1014.9c-1.9.4-2.6.9-1.8 1.4 1.5.9 6.3-.2 6.3-1.4 0-1-.1-1-4.5 0M632.5 1016c-.4.6.8 1 2.9 1 1.9 0 3.8-.5 4.1-1 .4-.6-.8-1-2.9-1-1.9 0-3.8.4-4.1 1M217.3 1016.7c-1.3.2-2.3.9-2.3 1.5s1 .8 2.3.4c1.2-.3 2.5-.6 3-.6.4 0 .7-.5.7-1 0-.6-.3-.9-.7-.9-.5.1-1.8.4-3 .6M622.3 1016.7c-3.3.6-2.8 2.3.7 2.3q3 0 3-1.5c0-.8-.3-1.4-.7-1.4-.5.1-1.8.4-3 .6M582 1031.5c0 4.2.4 6.4 1 6 .6-.3 1-3 1-6s-.4-5.7-1-6c-.6-.4-1 1.8-1 6M849 1037.5c0 3 .5 5.5 1 5.5.6 0 1-2.5 1-5.5s-.4-5.5-1-5.5c-.5 0-1 2.5-1 5.5M685.5 1041l-13 .5.3 10c.1 5.5.4 10.6.7 11.3.3 1 8.3 1.1 38.2.6 20.8-.3 38.4-.7 39.1-1 1.5-.4 1.7-17.6.1-20.5-1-1.9-2-1.9-26.7-1.7-14.1.2-31.5.5-38.7.8m64.3 10.6.3 9.1-37.3.5c-20.5.3-37.5.4-37.7.2s-.6-4.4-.9-9.4l-.4-9 31.3-.2c17.3-.2 34.3-.3 37.9-.3h6.5z"/><path d="M718.3 1046c-1.7.7-2.3 1.8-2.3 4 0 2.7.2 3 2.5 2.4 1.8-.4 2.7-.1 3.1 1.1 1 2.5-1.2 4.2-3.6 2.7-1.2-.7-2.1-.8-2.5-.2-.3.6.6 1.5 2 2.2 2.2 1 2.9.9 4.8-1 2.5-2.5 1.7-4.9-2.1-6.7-2.8-1.2-2.8-2.3-.2-2.7 1.2-.2 2.1-.7 2.1-1.3.1-1.3-1.2-1.5-3.8-.5M727.6 1049.5c-2.9 4.6-2.8 6.5.4 6.5 1 0 2 .6 2.3 1.2.3.9.9.7 2-.7 1-1.2 1.2-2.4.6-3-.5-.5-.9-2.4-.9-4.1 0-4.8-1.2-4.8-4.4.1m2 4.2c-1.1 1.1-1.9-.6-1.1-2.4.8-1.7.8-1.7 1.2 0 .3 1 .2 2.1-.1 2.4M736 1051.5c0 7.3 1.1 8.6 5.9 6.9 2.3-.9 2.6-1.5 2.6-5.4 0-6.5-1-8-5-8-3.5 0-3.5 0-3.5 6.5m6.5-2.5c0 1.8-3.3 2.6-4.7 1.2-.6-.6-.7-1.5-.3-2.2 1-1.6 5-.8 5 1m.5 5.4c0 2-4 3.2-5.1 1.5-1.5-2.3-1-2.9 2.1-2.9 1.9 0 3 .5 3 1.4M681 1047.9c-1.8 3.5-1.2 5.1 2 5.1 2.4 0 3 .4 3 2.1 0 1.9-.4 2.1-3.1 1.5-2.2-.4-2.9-.2-2.6.7.2.6 1.9 1.2 3.8 1.2 3.2 0 3.4-.2 3.4-3.5 0-2.7-.4-3.5-2.3-4-3.3-.7-3.2-2.4.1-2.8s2.6-2.2-.8-2.2c-1.4 0-2.9.8-3.5 1.9M691.6 1047.6c-2.4 2.4-2.1 8.9.6 10.8s5.8.5 5.8-2.7c0-2.8-1.8-4.7-4.3-4.7-1.1 0-1.7-.5-1.4-1.3.2-.7 1.6-1.1 3.2-.9 2.5.3 2.7.1 1.6-1.2-1.7-2-3.5-2-5.5 0m4.4 7.4c0 1.3-.7 2-2 2s-2-.7-2-2 .7-2 2-2 2 .7 2 2M707.3 1047.2c-.6.7-1 3.5-.9 6.3.1 4.4.4 5 2.4 5.3 3.9.6 5.2-1.4 4.5-6.6-.8-5.8-3.6-8.1-6-5m3.7 2.3c0 .8-.7 1.5-1.5 1.5s-1.5-.7-1.5-1.5.7-1.5 1.5-1.5 1.5.7 1.5 1.5m.8 5.8c.2 1.2-.3 1.7-1.7 1.7-1.5 0-2.1-.6-2.1-2.1 0-2.5 3.3-2.2 3.8.4M700 1054c0 .5.9 1 2 1s2-.5 2-1c0-.6-.9-1-2-1s-2 .4-2 1M588.7 1047.6c-.4.4-.7 1.7-.7 3 0 1.5.8 2.4 2.5 2.8 1.4.4 2.3 1.1 1.9 1.7-.3.6-1.2.8-2 .5s-1.4-.1-1.4.5 1 .9 2.3.7c1.9-.3 2.2-.9 2.2-4.8 0-3.8-.3-4.5-2-4.8-1.2-.2-2.4 0-2.8.4m4.1 2.6c-.3.7-1.1 1.3-1.8 1.3s-1.5-.6-1.7-1.3c-.3-.7.4-1.2 1.7-1.2s2 .5 1.8 1.2M596.4 1049.4c-1 4.2-.1 7.1 2.3 7.4 2.9.4 4.7-3.6 3.3-7.3-1.3-3.3-4.7-3.4-5.6-.1m4.4 2.8c-.3 3.6-3 4.6-3.6 1.5-.5-2.6.5-4.7 2.3-4.7 1.2 0 1.5.8 1.3 3.2M606.3 1047.7c1.9.5 2.3 3.3.6 5-.6.6-.9 1.7-.7 2.4s1.4-.6 2.5-2.8c2.4-4.6 2.2-5.4-1.6-5.2-1.7.1-2 .3-.8.6M613.3 1048.2c-.5.7-.9 2.9-.9 4.8.1 2.9.5 3.6 2.5 3.8 3.1.5 3.9-1 3.2-5.6-.7-3.8-3-5.3-4.8-3m3.7 1.8c0 .5-.7 1-1.5 1s-1.5-.5-1.5-1c0-.6.7-1 1.5-1s1.5.4 1.5 1m-.2 4.2c-.6 1.8-2.8 2.1-2.8.4 0-.9.7-1.6 1.6-1.6s1.4.5 1.2 1.2M621.2 1048.2c-1.3 1.3-1.6 4.7-.6 7.2.8 2 5 2.1 5.8.1.8-2.3-.4-4.5-2.5-4.5-1 0-1.9-.5-1.9-1 0-.6.9-1 2.1-1 1.1 0 1.7-.5 1.4-1-.8-1.4-2.8-1.3-4.3.2m3.8 6.3c0 .8-.7 1.5-1.5 1.5s-1.5-.7-1.5-1.5.7-1.5 1.5-1.5 1.5.7 1.5 1.5M633.6 1049.7c-1 2-1.1 3.3-.3 5 1.3 3 4.5 2.9 5.9-.2.9-1.9.8-2.9-.6-5-2.1-3.2-3.2-3.2-5 .2m4.2 2.5c-.3 3.6-3 4.6-3.6 1.5-.5-2.6.5-4.7 2.3-4.7 1.2 0 1.5.8 1.3 3.2M642.1 1048.4c-.7.8-1.1 3-.9 4.8.3 2.8.7 3.4 3.1 3.6 2.6.3 2.8.1 2.5-2.4-.2-2-1-3-2.8-3.5-2.1-.5-2.2-.7-.8-1.4.9-.4 2.3-.3 3 .1 1 .6 1 .4-.1-.9-1.6-2.1-2.5-2.1-4-.3m3.9 6.2c0 .9-.7 1.4-1.7 1.2-2.5-.5-2.8-2.8-.4-2.8 1.2 0 2.1.6 2.1 1.6M582 1054.4c0 3.7.4 6.6 1 6.6s1-2.6 1-5.9-.4-6.3-1-6.6c-.6-.4-1 1.8-1 5.9M651.2 1048.7c-.8.3-1 .9-.3 1.6.5.7 1.1 2.3 1.4 3.7q.45 2.4.6-1.8c0-2.3 0-4.2-.1-4.1-.2 0-.9.3-1.6.6M657.4 1049.4c-.3.8-.4 2.7-.2 4.3.3 2.9 3.2 4.3 5 2.5 1.5-1.5 0-5-2.5-5.5-2.2-.3-2.2-.4.3-1.5s2.5-1.1.2-1.1c-1.2-.1-2.5.5-2.8 1.3m4.4 4.8c-.3.7-1.1 1.3-1.8 1.3s-1.5-.6-1.7-1.3c-.3-.7.4-1.2 1.7-1.2s2 .5 1.8 1.2M849.7 1049.7c-1.1 1-.8 12.3.3 12.3.6 0 1-2.8 1-6.5 0-6.5-.1-7.1-1.3-5.8M629 1053.5c0 .3.2.5.5.5s.5-.2.5-.5-.2-.5-.5-.5-.5.2-.5.5M360.2 1065.8l-10.3.3.3 11.2.3 11.2 36.5.3c20.1.1 38 0 39.8-.3 3.3-.6 3.3-.6 3-11.8l-.3-11.2H400c-16.2 0-34.1.1-39.8.3m67.8 10.7v9.5h-10.7c-6 0-23.1.3-38 .7l-27.3.6V1068l22.8-.2c12.5-.2 29.6-.4 38-.6l15.2-.3z"/><path d="M414.4 1071.4c-.3.7-.4 3.8-.2 6.7.2 4.3.7 5.5 2.1 5.7 5 1 9.4-3.1 6.8-6.2-.6-.8-.8-2.1-.5-3.1.5-1.2.1-2.3-1.1-3.1-2.4-1.8-6.4-1.8-7.1 0m6.1 2.6c0 .8-1 1.6-2.2 1.8-1.8.3-2.3-.2-2.3-1.8s.5-2.1 2.3-1.8c1.2.2 2.2 1 2.2 1.8m1.1 5.1c.8 1.3-1.3 2.9-3.8 2.9-1.1 0-1.8-.8-1.8-2 0-1.5.7-2 2.4-2 1.4 0 2.8.5 3.2 1.1M358.6 1072.6c-1.4 3.7-.7 5.4 2.4 5.4 2.4 0 3 .4 3 2.1 0 1.9-.4 2.1-3 1.5-3.4-.6-4 .8-.9 2.4 1.6.9 2.5.8 4-.6 3.2-2.9 1.8-7.4-2.3-7.4-1 0-1.8-.7-1.8-1.5 0-.9.9-1.5 2.5-1.5 1.4 0 2.5-.5 2.5-1 0-1.7-5.7-1.2-6.4.6M369.2 1072.2c-1.9 1.9-1.5 9.2.7 11.2 1.6 1.5 2.2 1.5 4 .4 1.2-.7 2.1-2.3 2.1-3.5 0-2.3-3.3-4.8-5-3.8-1.3.8-2-.9-1-2.5.8-1.2 1.3-1.3 2.9-.3 2.3 1.4 3.5.5 2-1.4-1.4-1.6-4.1-1.7-5.7-.1m4.6 8c-.2 1.3-1 2.3-1.8 2.3s-1.6-1-1.8-2.3c-.3-1.7.2-2.2 1.8-2.2s2.1.5 1.8 2.2M385.2 1072.2c-.5.7-1 3.4-1 6-.1 5.7 2.1 7.7 5.6 5.2 1.7-1.1 2-2.2 1.7-5.9-.2-2.5-.7-4.9-1-5.5-.9-1.4-4.1-1.2-5.3.2m4.1 2.3c.1.5-.6 1.1-1.5 1.3-1.1.2-1.8-.3-1.8-1.3 0-1.7 3-1.8 3.3 0m.5 5.8c.2 1.2-.3 1.7-1.7 1.7-1.5 0-2.1-.6-2.1-2.1 0-2.5 3.3-2.2 3.8.4M394.7 1071.7c-.4.3-.7 1.9-.7 3.4 0 2.4.4 2.8 2.8 2.6 2.1-.2 2.7.2 2.7 1.8s-.6 2-2.7 1.8c-3.2-.2-3.8 1.3-.9 2.2 4.5 1.4 7.6-3.1 4.5-6.6-.9-1-2.3-1.9-3.1-1.9-.7 0-1.3-.5-1.3-1 0-.6 1.1-1 2.5-1s2.5-.5 2.5-1c0-1.1-5.3-1.4-6.3-.3M405.8 1075.2c-2.8 4.5-2.8 5.8.2 5.8 1 0 2 .6 2.2 1.2.3.9 1 .7 2.4-.6 1.3-1.4 1.5-2.1.6-2.4-.7-.2-1.2-2.1-1.2-4.3 0-2.1-.3-3.9-.7-3.9-.5 0-2 1.9-3.5 4.2m1.8 3.5c-1.1 1.1-1.7-.4-.9-2.3.7-1.8.8-1.8 1.1-.1.2 1 .1 2.1-.2 2.4M378 1079c0 .5.9 1 2 1s2-.5 2-1c0-.6-.9-1-2-1s-2 .4-2 1M438.5 1070c-2.5 4-2 15 .7 15 .6 0 .7-.7.2-1.8-1.4-3.2-1.6-9-.4-11.2s.8-4-.5-2M847.6 1071.9c-.8 1.5-2.9 3.4-4.6 4.1-3.5 1.4-4 3-.9 3 2.5 0 8.9-6.1 8.9-8.4 0-2.5-1.8-1.9-3.4 1.3M453.1 1070.9c-1.7 1.1-2.4 10.1-.9 11.8 1.5 1.9 4.6 1.6 5.7-.5 1.3-2.5.6-10.3-1-11.3-1.7-1.1-2.1-1.1-3.8 0m3.5 2.2c1 1.7-1.3 3.6-2.7 2.2-1.2-1.2-.4-3.3 1.1-3.3.5 0 1.2.5 1.6 1.1m.2 6.6c-.5 2.6-3.8 2.9-3.8.4 0-1.5.6-2.1 2.1-2.1 1.4 0 1.9.5 1.7 1.7M461.6 1071.6c-1.9 1.8-2.2 9.4-.4 11.2s4.6 1.4 5.8-.7c2.3-4.3.4-12.1-3-12.1-.5 0-1.6.7-2.4 1.6m3.9 5.5c0 3.4-.4 4.4-1.7 4.7-1.5.3-1.8-.4-1.8-4.1 0-2.4.3-4.7.7-5.1 1.6-1.6 2.8.4 2.8 4.5M470.6 1072.2c-3.2 4.5-1.1 12.4 2.9 11.6 2.9-.5 4.4-4.3 3.5-8.5-1.3-5.4-3.9-6.7-6.4-3.1m4.2 5.2c.3 4.1.1 4.7-1.5 4.4-2-.4-2.8-3.7-1.8-7.5.9-3.9 3-2.1 3.3 3.1M582 1071.9c0 2.5 5.5 7.1 8.6 7.1 1.3 0 2.4-.5 2.4-1 0-.6-.8-1-1.9-1-2.4 0-7.1-3.7-7.1-5.6 0-.8-.4-1.4-1-1.4-.5 0-1 .9-1 1.9M444 1072.5c-.9 1-.9 1.5-.1 1.5.6 0 1.1 1.8 1.1 4.5 0 2.5.5 4.5 1 4.5.6 0 1-2.7 1-6 0-6.1-.8-7.2-3-4.5M479.5 1079c0 6.7.2 7.7 1.3 6.3.6-.9 1.2-3.8 1.2-6.3s-.6-5.4-1.2-6.3c-1.1-1.4-1.3-.4-1.3 6.3M637.2 1076.6c-3 1.3.5 2.4 7.4 2.4 5.6 0 7.5-.3 7.2-1.3-.5-1.2-12.1-2.1-14.6-1.1M657.3 1077.2c.2.9 2.8 1.3 8.2 1.3s8-.4 8.3-1.3-1.8-1.2-8.3-1.2-8.6.3-8.2 1.2M680 1077c0 .6 3.4 1 8.1 1 5.1 0 7.8-.4 7.4-1-.3-.6-4-1-8.1-1-4.3 0-7.4.4-7.4 1M701 1077c0 .6 3.3 1 8 1s8-.4 8-1-3.3-1-8-1-8 .4-8 1M723 1077c0 .6 3.3 1 8 1s8-.4 8-1-3.3-1-8-1-8 .4-8 1M745 1077c0 .6 3 1 7 1s7-.4 7-1-3-1-7-1-7 .4-7 1M766 1077c0 .6 3.2 1 7.5 1s7.5-.4 7.5-1-3.2-1-7.5-1-7.5.4-7.5 1M787.5 1077c.3.5 3.3 1 6.6 1s5.9-.4 5.9-1-2.9-1-6.6-1c-4.1 0-6.3.4-5.9 1M806 1077c0 .6 2.7 1 6 1s6-.4 6-1-2.7-1-6-1-6 .4-6 1M824 1077c0 .5 2.3 1 5 1 2.8 0 5-.5 5-1 0-.6-2.2-1-5-1-2.7 0-5 .4-5 1M598 1078c0 .6 3 1 7 1s7-.4 7-1-3-1-7-1-7 .4-7 1M617 1078c0 .6 3.2 1 7.5 1s7.5-.4 7.5-1-3.2-1-7.5-1-7.5.4-7.5 1M345 1096.6c-.8.9 0 76.8 1.8 162.4l.7 33.5 160.5-.1c88.3-.1 174.4-.5 191.4-.9l30.9-.7-.8-71.2c-.4-39.1-1-83-1.4-97.6l-.6-26.5H536.7c-132.4 0-191.1.3-191.7 1.1m381.3 31.6c.4 17.2 1 60.4 1.4 95.9l.6 64.6-17.4.6c-9.6.4-37.8.7-62.7.7-35.3 0-45.3-.3-45.6-1.3-.3-.6-.7-36.3-1.1-79.2-.3-42.9-.8-85.5-1.1-94.7l-.6-16.7 12.9-.4c7-.1 35.3-.4 62.9-.5l50.1-.2zm-254.1-13.4c.1 9.2.2 18.7.3 21.2 0 2.5.5 38.4.9 79.7l.9 75.3-58.4-.1c-32.1 0-60.4-.4-62.9-.7l-4.5-.7-.6-53.5c-.7-58.2-1.2-136.2-1-137 0-.3 28.2-.6 62.6-.7l62.5-.2zm126-4.1c.1 7.1.3 14.6.4 16.8s.5 39.7.9 83.2l.8 79.3-26.4.2c-14.5.1-42.4.2-61.9.3h-35.5l-.6-59.5c-.3-32.7-1-76-1.4-96.3l-.8-36.7H598z"/><path d="M613.2 1106.9c-3.8 2.4-7.2 7.6-7.2 11 0 4.8 3.8 10.7 8.4 13.2 4.1 2.1 4.7 2.2 8.6.9 8.2-2.7 12.4-12.9 8.1-19.7-4.2-6.6-12.1-9-17.9-5.4m11.4 2c4.8 2.2 6.9 6.3 6.1 11.8-1.8 10.6-17.2 12.6-21.3 2.8-2.8-6.7-1.1-11.4 5-14.5 5-2.4 5.1-2.4 10.2-.1"/><path d="M615.6 1115.2c-.9 1.2-1.6 3-1.6 4 0 2.4 3.5 5.8 5.9 5.8 2.1 0 5.6-2.9 4.6-3.8-.3-.3-1.1 0-1.7.6-2.8 2.8-6.2-.4-5.1-4.6.7-2.7 2.1-2.8 3.9-.5.9 1.3 1.6 1.5 2.4.7s.7-1.5-.5-2.8c-2.3-2.3-6.1-2-7.9.6M646.6 1114.6c-2.2 2.1-1.7 4.6 1.2 5.9 2.7 1.2 2.9 2.9.2 2.2-2.3-.6-2.7 1.1-.5 1.9 4.1 1.6 6.3-6.7 2.6-10-1.7-1.6-2-1.6-3.5 0m3.4 3c0 .8-.7 1.4-1.5 1.4-1.5 0-2.1-2.1-.9-3.3 1-.9 2.4.2 2.4 1.9M654.6 1114.3c-2.3 1.7-1.7 4.8 1.2 6.3 1.5.7 2 1.4 1.3 1.8-.6.4-1.5.4-2.1.1-.5-.3-1-.2-1 .4 0 2 2.2 2.3 4.1.5 2.4-2.1 2.4-5.5.2-8.3-1.6-1.9-2-2-3.7-.8m3.4 3.2c0 .8-.6 1.5-1.4 1.5-1.7 0-2.8-1.4-1.9-2.4 1.2-1.2 3.3-.6 3.3.9M662.4 1114.5c-1 .7-1.6 1.7-1.2 2.1s1.4.1 2.2-.5c2.8-2.3 3 1 .2 3.6-3.1 2.8-3 4.7.3 5.1 3.3.5 5-1.5 2.2-2.6-2.2-.8-2.2-.8-.2-2.6 2.6-2.4 2.7-4.2.2-5.5-1.3-.7-2.4-.6-3.7.4M669.5 1114c-.3.5.4 1 1.6 1 1.8 0 2 .4 1.4 2.2-1.8 5.9-1.4 6.9.9 2.4 1.4-2.7 2.3-5.3 2-5.8-.7-1.1-5.2-1-5.9.2M678 1114.5c-1.7 2-.9 4.8 1.8 6.1 1.5.7 2 1.4 1.3 1.8-.6.4-1.5.4-2.1.1-.5-.3-1-.2-1 .4 0 2 2.2 2.3 4.1.5 2.4-2.2 2.5-6.6.1-8.7-2.3-2.1-2.6-2.1-4.2-.2m4 3.1c0 1.7-2.6 1.9-3.6.3-.7-1.2 1.5-3.1 2.8-2.3.4.3.8 1.2.8 2M691.2 1114.2c-1.7 1.7-1.5 8.3.4 9.8 3.4 2.9 6.6-5.6 3.4-9.4-1.5-1.9-2.2-2-3.8-.4m3.3 4.8c0 1.8-.5 3.5-1.1 3.7-1.4.5-2.6-3.9-1.8-6.2 1.1-2.6 2.9-1.1 2.9 2.5M699.3 1114.2c-.4.7-.9 2.9-1 4.8-.2 2.6.3 3.9 1.7 4.8 2.8 1.7 4.9-.8 4.5-5.4-.5-4.6-3.4-7-5.2-4.2m2.9 2.3c0 .5-.5 1.1-1.1 1.3s-1.1-.4-1.1-1.3.5-1.5 1.1-1.3 1.1.8 1.1 1.3m.6 4.2c-.4 2.2-2.2 2-2.6-.1-.2-1 .3-1.6 1.3-1.6s1.5.7 1.3 1.7M707.2 1114.2c-1.9 1.9-1.4 7.3.7 9.2 1.8 1.6 2 1.6 3.5-.6 3.6-5.1-.1-12.7-4.2-8.6m3.7 3c1 2.7.4 4.8-1.4 4.8-1.5 0-2.6-3.5-1.8-5.6s2.3-1.7 3.2.8M715 1114.5c-.7.9-1 1.9-.6 2.2.4.4 1.1.1 1.5-.6.5-.8 1.4-1 2.1-.6.9.6.9.9-.1 1.6-1.1.6-1.1 1.1-.1 2.1 2 2 1.4 3.1-1.4 2.4-1.9-.5-2.5-.3-2.2.6.6 1.7 3.7 2.3 5.1.9s1-8.3-.6-9.3c-1.7-1.1-2.3-1-3.7.7M685 1120c0 .5.7 1 1.5 1s1.5-.5 1.5-1c0-.6-.7-1-1.5-1s-1.5.4-1.5 1M664 1179.3c-2.7 1.4-4 4.9-3 8.6.7 2.8 11 9.1 14.8 9.1 2 0 2.2.4 2.2 6.4 0 5.5-.4 6.9-2.6 9.6-1.8 2-3.4 3-4.8 2.8-1.8-.3-2.2-1.1-2.4-5.2-.2-2.7.2-6.2.9-7.8 1-2.5.9-3.3-.8-5.6-2.2-3.1-17.8-11.6-19.4-10.6-.6.3-1.9 2.6-3 5.1-2.4 5.7-2.7 19.7-.4 23 1.5 2.2 1.4 2.4-3.9 5.9-5.8 3.8-9.6 9.8-9.6 15.2 0 2.5 1 3.4 8.5 7.6 9.1 5.1 12.4 5.5 14.5 1.6 1.4-2.6 3-1.7 3 1.8 0 4.2 1.5 5.7 5.2 5.4 1.8-.1 3.9.2 4.7.7.9.6 2.6.4 4.8-.7 4.2-2 5.3-5.6 5.3-17.7.1-9 .1-9 5.7-12.3 5.7-3.3 8.3-4 8.3-2.2 0 1.7 3.6 1.1 5.3-.8 1.9-2.1 2.2-6.4.7-9.2-.5-1-3.1-2.9-5.6-4.2-5.2-2.6-6.4-4.8-6.4-11.7 0-5.7-1-7-7.5-10.6-11.4-6.4-10.7-6.1-14.5-4.2m9.2 3.8c5.6 2.8 5.9 3.2 4.5 4.7-1.5 1.5-2.1 1.4-7.7-1.3-6.7-3.2-7.7-5.2-3.2-6.4.1-.1 3 1.3 6.4 3m-3.1 5.9c5.7 3 5.7 3 8.3.9 4.4-3.4 5.2-2.1 5.9 8.9.7 10.2.4 12.6-2.1 15.1q-1.35 1.35-.3 2.4c.7.7 2.9-.1 7.1-2.7 3.3-2 6.4-3.4 7-3.1 1.5.9 1.2 6.1-.5 7.5-1.2 1-1.8 1-3 0-2.2-1.8-5-.7-14 5.3-4.4 2.9-10.8 7-14.2 9-6.3 3.8-10.3 8.2-10.3 11.1 0 .9-.4 1.6-1 1.6-1.3 0-1.3-4.3.1-7.3.6-1.3 3.5-3.8 6.4-5.6 7.3-4.4 8.2-5.6 6.1-8-2.8-3.1-4.2-12-2.7-18.4 1.3-6.1 3.6-9.1 4.7-6.2.4.9.2 2.1-.5 2.8-1.5 1.5-1.4 11.9.2 14.1 2.2 3 6.7 1.7 9.9-2.9 2.4-3.4 2.7-5 2.8-11.3 0-7.3-.2-7.7-4.1-7.3-2.4.3-12.3-5.5-12.7-7.3-.5-2.2.5-2 6.9 1.4m-13 2.8c8.4 4.3 8.1 3.8 5.8 8.1-2.5 4.9-3.4 12.5-2 17.6.6 2.1.9 4 .7 4.2-.6.6-14-6.7-14.8-8-.4-.7-.8-4.9-.8-9.5 0-8.7 1.8-15.2 4.3-15.2.7 0 3.8 1.3 6.8 2.8m34 15.2c1.9 0 .8 2.8-1.7 4.5-3.2 2.1-3.8 1.5-2.9-2.5.5-2.2 1.1-3 2.2-2.6.8.3 1.9.6 2.4.6m-32.8 15.5c3.1 1.6 5.6 3.4 5.4 3.9-.2.6-2.3 2.2-4.8 3.6-5.1 3.1-8.9 8.1-8.9 12.1 0 1.5-.4 3-.8 3.3-.5.3-4.1-1.4-8.1-3.7-7.3-4.2-7.3-4.2-6.7-8.1.4-2.1 1.1-4.7 1.7-5.7 1.5-2.9 13-9.8 14.8-9 .9.4 4.2 2 7.4 3.6m18 8.7c.5 3.7 0 5.1-1.4 4.3-1.2-.8-1.2-7.5 0-7.5.5 0 1.1 1.5 1.4 3.2m-3.8 10.3c-.8 7.3-1.4 9.5-2.6 9.5-.5 0-.9-2.4-.9-5.3 0-4.1-.5-5.8-2-7.2-2.8-2.5-2.5-4 1.3-6.4 3.2-2 3.2-2 4 .7.4 1.5.5 5.4.2 8.7m-8-2.8c3 3.5 3.6 11.7.8 11.1-2.2-.4-5.8-13.8-3.8-13.8.3 0 1.7 1.2 3 2.7m12 2.9c-.3 1.3-.7 3.5-1 4.9-.9 4.2-2.3 2.8-1.8-1.8.6-5.7 1.1-6.9 2.3-6.2.6.3.8 1.7.5 3.1m-16.1 1.3c.3 2.2.9 4.6 1.2 5.5s.2 1.6-.4 1.6c-.5 0-1.5-2-2.1-4.4-1.3-5.4-1.4-6.6-.2-6.6.5 0 1.1 1.8 1.5 3.9"/><path d="M637 1229.4c0 .8 9.7 6.6 11.1 6.6 1.1 0 1.1-.3-.1-1.4-3-2.8-11-6.6-11-5.2M358.5 1107.4c-9.5 4.2-9.1 19.1.5 24.1 9 4.7 19-2 19-12.6 0-3.7-.6-5.3-3.3-8.4-2.8-3.2-3.9-3.8-8.2-4.1-3-.3-6.3.1-8 1m10.8 1.5c4.7 1.8 6.7 5 6.7 10.6 0 4.1-.5 5.6-2.2 7.2-6.3 5.7-11.5 5.8-17 .3-3.8-3.8-4-4.3-3.5-8.6.9-8.2 8.2-12.5 16-9.5"/><path d="M361.2 1114.2c-1.5 1.5-1.6 3.8-.2 3.8.6 0 1.3-.7 1.6-1.5.7-1.8 3.4-2 3.4-.2 0 .7-1.5 2-3.2 2.8-2.2.9-3.3 2.1-3.3 3.4 0 1.7.7 2 5.6 2.1 5.7.1 5.7.1 5.2-4-.3-2.2-1.2-4.9-2.1-5.9-1.7-2-5.3-2.2-7-.5m5.6 7c-.5 1.6-4.8 2.4-4.8 1 0-1.1 1.7-2 3.8-2.1.8-.1 1.2.5 1 1.1M386.2 1120.2l.3 11.3h79l.3-11.3.3-11.2h-80.2zm77.8-.2v9h-6.7c-3.8 0-20.9.3-38 .7l-31.3.6V1111h76z"/><path d="M454.6 1114.3c-.5 1-.6 3.6-.2 5.8.7 4.6-1.5 6.5-3.9 3.3-1.5-2-2-.8-.9 2 .7 2 5.3 2.1 6 .2.9-2.4 0-13.3-1-11.3M396.2 1115.1c-2.1.8-2.3 1.4-2 6.1.3 5.2.4 5.3 3.5 5.6 2.8.3 3.3-.1 3.9-2.3.8-3.2-1-5.5-4.4-5.5-2.5 0-2.5-.1-1-1.7 1.4-1.3 2-1.4 3.2-.3 1.3 1 1.6 1 1.6-.3 0-2-2-2.6-4.8-1.6m3.5 7.5c.3.8.1 2-.5 2.6-1.5 1.5-4.3-.8-3.5-2.8.7-1.9 3.2-1.8 4 .2M404.5 1115.1c-.7 1 0 1.2 2.8 1 2.1-.3 2.1.7.1 4.7-.8 1.8-1.4 4-1.1 5 .3 1.2.6.8 1.2-1.3.4-1.7 1.7-4.2 2.7-5.7 1.1-1.6 1.7-3.2 1.4-3.6-.7-1.2-6.4-1.3-7.1-.1M421.8 1115.1c-2.1 1.2-2.9 4.8-1.9 8.4.6 2.5 1.3 3 3.6 3s3.2-.6 3.9-2.6c1.8-5.3-1.8-11-5.6-8.8m4.2 6c0 3.2-.4 3.9-1.9 3.9-2.9 0-4.3-5.4-2-7.7 2.1-2.1 3.9-.3 3.9 3.8M430.7 1114.7c-.4.3-.7 2-.7 3.6 0 2.2.4 2.8 1.5 2.3 2.3-.8 4.5.4 4.5 2.5 0 1.4-.7 1.9-2.5 1.9-1.4 0-2.5-.5-2.5-1.1 0-.5-.4-.8-1-.4-1.8 1.1.2 3.5 2.9 3.5 1.9 0 3.2-.8 4.1-2.5 1.2-2.2 1.1-2.7-.5-4.5-1-1.1-2.4-2-3.2-2-.7 0-1.3-.5-1.3-1 0-.6 1.1-1 2.5-1s2.5-.5 2.5-1c0-1.1-5.3-1.4-6.3-.3M440.5 1115.6c-2.1 2.1-1.3 2.9 1.4 1.2 1.6-1 2.3-1 3.3 0 .9.9.4 1.9-2.6 4.7-2.1 1.9-3.5 3.9-3.1 4.5.8 1.3 8.5 1.3 8.5 0 0-.6-1.3-1-3-1-1.6 0-3-.3-3-.6s1.4-1.7 3-3.1c3.4-2.8 3.6-3.5 1.4-5.7-2-2-3.8-2-5.9 0M414 1122c0 .5.9 1 2 1s2-.5 2-1c0-.6-.9-1-2-1s-2 .4-2 1M412.5 1174.1c-2.2 1.1-5 2.7-6.2 3.5-1.9 1.2-2.6 1.1-6.1-.8-3.9-2.2-3.9-2.2-8.8.8-2.7 1.6-5.7 3.2-6.7 3.6-3.9 1.6-6.6 16.1-3.4 18.6.6.5 5.1 3 9.8 5.5l8.7 4.6 4.8-2.6c2.7-1.4 6.1-3.4 7.6-4.4 1.4-1.1 2.9-1.9 3.2-1.9s.6 2.9.6 6.5c0 10.8-1.5 12.5-20 23.5-16.4 9.7-16.2 9.5-15.8 14.3.3 4 .6 4.4 7.3 8.4 3.9 2.3 7.8 4.3 8.7 4.3 2.2 0 28.4-14.4 34.5-19 2.8-2.1 5.7-5.5 7.2-8.5 2.6-4.9 2.6-5.3 2.3-24-.2-10.4-.8-19.7-1.3-20.7-1.3-2.3-19.2-13.8-21.6-13.8-.5 0-2.6.9-4.8 2.1m12.9 4.1c5.7 3.3 5.7 3.3 3.4 5-1.3 1-2.9 1.8-3.5 1.8-.7 0-1.3.4-1.3.8s-1.9 1.8-4.2 3c-2.4 1.2-5.3 2.9-6.5 3.8-2.1 1.5-2.3 1.5-2.9-.2-.3-1.1-1.4-3.8-2.5-6.2-1-2.3-1.9-4.7-1.9-5.2 0-1.5 8.3-6 11.2-6 1.4 0 5.1 1.5 8.2 3.2m-26.1 0c4.5 2.3 8.7 9.3 8.7 14.5 0 4 2.5 3.7 11.3-1.6 11.5-7 14.3-7.9 16.8-5.5 1.6 1.7 1.9 3.9 2.1 21.4.3 19.5.3 19.5-2.4 24.1-2.6 4.4-8.4 9-18.1 14.3-21.5 11.8-19.7 11-19.7 8.4 0-1.9 1.2-3 5.3-5.1 7.4-3.8 23.6-13.5 25-14.9.7-.7 2.4-2.9 3.7-4.8 2.4-3.4 2.5-4.1 2.5-20.3 0-20.7-.6-21.5-11-14.8-2.2 1.4-4.9 3.1-6 3.7s-4.9 2.9-8.5 5.1c-3.6 2.3-6.8 3.9-7.1 3.7s-.9-3.1-1.3-6.6c-.7-6.8-5.5-16.3-8.8-17.4-2.6-.8-2.2-1.8 1.5-3.7 4-2 3.4-1.9 6-.5m-8.7 7.3c1.6 1.2 1.7 1.4.2 1.5-2.5 0-4.9-1.1-4.2-2.1.7-1.3 1.7-1.1 4 .6m-3.1 2.5c.3.5.1 1-.4 1-3.3 0 .5 9.5 5.1 12.8 4.1 3 1.4 2.9-3.9-.1-5.7-3.2-5.8-3.4-6.1-8.1-.2-3.2 0-4.6.7-4.1.6.3 1.1-.1 1.1-.9 0-1.8 2.5-2.2 3.5-.6m5.7 2.2c-.6.6-1.9.7-2.9.3-1.7-.7-1.7-.8.2-1.5 2.4-.9 4.1-.2 2.7 1.2m2.3 1.8c.3.5-.1 1-1 1s-1.3-.5-1-1c.3-.6.8-1 1-1s.7.4 1 1m-3.9 1.5c1 .8 2.7 1.5 3.7 1.5 1.3 0 1.7.8 1.7 3.5 0 4.1-.7 4.3-4.4 1.4-3.4-2.7-6.3-7.9-4.3-7.9.7 0 2.2.7 3.3 1.5m40.8 4.1c.9 7.1.7 23.5-.4 27.5-1.3 4.6-4.4 7.3-16.5 14.6-18.3 11.1-17 10.7-24.9 6.4-3.8-2-6.8-4.1-6.9-4.6 0-1 9.9-7.4 18.8-12.1 12.3-6.5 15.5-11.1 15.5-22.6 0-7.3 0-7.3 5.2-10.6 7.3-4.4 8.4-4.2 9.2 1.4m-32.4 7.5c0 2-2.4 2.6-3.5.9-.8-1.3 1.4-4.2 2.6-3.4.5.3.9 1.4.9 2.5m-10.5 42.4c4.7 2.6 6.1 3.9 6.3 6.1.4 3.2-.5 3-8.5-1.9-3.9-2.3-5.3-3.7-5.3-5.4 0-2.9.3-2.9 7.5 1.2M490.2 1106.7c-1.3.3-4.1 2.2-6.3 4.4-4.6 4.6-5.1 8.6-2 14.8 2.7 5.2 6.5 7.5 12.5 7.4 4.1-.1 5.3-.6 8.3-3.6 3.9-3.8 5.3-10 3.4-14.9-2-5.2-9.9-9.3-15.9-8.1m9.1 3.4c7.1 3.2 7.5 14.3.7 19.6-2.2 1.8-9.7 1.6-12.6-.3-7.1-4.7-7.1-15.3.1-19.2 2.6-1.5 8.7-1.5 11.8-.1"/><path d="M487.9 1111.4c-.8.9.6 16.1 1.6 16.2.6 0 1.8.4 2.9.9 5.3 2.3 10.3-4.2 7.1-9.1-1.4-2.1-2.2-2.5-4.6-2-2.8.5-2.9.4-2.9-2.9 0-2.7-.4-3.5-1.8-3.5-1 0-2.1.2-2.3.4m8.6 11.6c0 2.8-.4 3.5-2 3.5-1.3 0-2.1-.8-2.3-2.3-.5-3.4.5-5.4 2.5-5 1.3.2 1.8 1.3 1.8 3.8M526.5 1108l-14 .5v22l39.8.3 39.8.2-.3-11.7-.3-11.8H566c-14 0-31.8.2-39.5.5m63.5 11.1c0 4.9-.1 8.9-.2 8.9-.2.1-17.3.4-38.1.7l-37.8.6.3-9.4.3-9.4 37-.5c20.4-.3 37.3-.4 37.8-.2.4.2.7 4.3.7 9.3"/><path d="M576.2 1118.7c.3 6.6.4 6.8 3.1 7.1 4.1.5 6.7-2.2 6.7-6.9 0-4.4-2.7-6.9-7.3-6.9-2.8 0-2.8 0-2.5 6.7m6.6-3.5c1.8 1.8 1.5 7.5-.4 8.2-3.6 1.4-4.4.7-4.4-3.8 0-3.9.7-5.2 3.1-5.5.3-.1 1 .4 1.7 1.1M521.3 1114.2c-2.9 3.6-2.1 11.2 1.2 12.4 1.7.7 5.5-2.2 5.5-4.2 0-2.2-3.1-4.5-5.1-3.9-2.1.7-2.4-.2-.9-2.5.8-1.2 1.3-1.3 3-.2 2.2 1.3 2.7.3.8-1.6-1.5-1.5-3.3-1.5-4.5 0m4.2 8.4c0 1-.7 2-1.6 2.2-2.1.4-3.4-2.8-1.7-4 1.9-1.1 3.3-.4 3.3 1.8M529 1114c0 .5 1.1 1 2.3 1 3.3 0 3.8.9 2.3 3.9-2.2 4.2-2.8 7.1-1.7 7.1.6 0 1.1-.6 1.1-1.3 0-.6 1.1-3.3 2.5-5.8 1.3-2.6 2.1-4.9 1.8-5.3-1-1-8.3-.7-8.3.4M546.5 1115.4c-2 3.1-1.1 9.2 1.6 10.7 4.4 2.3 7.7-6.1 4.3-10.9-2-2.9-4-2.8-5.9.2m4.4 1c1.7 2.1 1 7-1.1 7.4-2 .4-3.2-2.9-2.4-6.4.7-2.7 1.8-3 3.5-1M556 1116.6c0 2.9.3 3.4 1.8 3 2.4-.8 4.6.9 3.8 2.9-.5 1.3-1.3 1.5-3.8 1-3.3-.6-3.3-.6-1 1.4 2.7 2.4 5.6 1.5 6.7-2 .7-2.2-1.8-5.9-4.2-5.9-.7 0-1.3-.5-1.3-1 0-.6 1.1-1 2.5-1s2.5-.5 2.5-1c0-.6-1.6-1-3.5-1-3.3 0-3.5.2-3.5 3.6M567.4 1116.9c-2.7 4.2-2.5 6.1.7 6.1 1 0 1.9.7 1.9 1.5s.5 1.5 1 1.5c.6 0 1-.6 1-1.4s.6-1.7 1.3-2c1-.5 1-.7 0-1.2-.7-.3-1.3-2.3-1.3-4.5 0-4.9-1.3-4.9-4.6 0m2.2 3.8c-1.1 1.1-1.9-.6-1.1-2.4.8-1.7.8-1.7 1.2 0 .3 1 .2 2.1-.1 2.4M540 1121c0 .5.9 1 2 1s2-.5 2-1c0-.6-.9-1-2-1s-2 .4-2 1M533.4 1168.1c-13.5 7.2-23.8 14.4-24.9 17.3-.8 2.4-.6 3.1 1.5 4.8 2.5 2 2.5 2-.5 4.4-1.7 1.3-3.3 2.4-3.7 2.4s-1.9 2-3.3 4.3c-5.5 9.4-1.6 19.2 10.4 26.3 2 1.2 3.7 3.6 5.3 7.3 1.2 3.1 4.1 9.6 6.5 14.4 3.6 7.4 4.9 9 7.8 10.3 4.8 2 6.8 1.8 9.1-.9 3.3-3.6 14.2-24 14.6-27.2.2-2 1.3-3.4 3.8-4.8 4.9-2.7 7.3-5.1 9.8-9.8 3.7-6.8 2.6-12.4-3.5-19-3.3-3.5-3.3-3.5-2-8 1.6-5.1.4-10.1-2.8-12.6-1.9-1.4-10.4-6.5-17.3-10.4-4.2-2.4-3.9-2.5-10.8 1.2m15.1 3.6c5.9 3.4 7.9 5.3 5.6 5.3-.5 0-3.8 1.8-7.2 4-3.5 2.1-8.7 5.3-11.6 7s-6.3 4.4-7.7 6.1c-2.6 3-2.6 3-5.3 1.2-1.6-1-3.9-2.4-5.3-3.1-5.3-2.7-7.6-5-6.5-6.8.9-1.4 20.1-14 25-16.3 3.6-1.7 6.5-1.2 13 2.6m13.3 8.5c1.8 1.8 1.4 9.4-.7 13.6-1.6 3.2-9.1 11.2-10.5 11.2-.3 0-3.1 1.5-6.3 3.4-8.4 4.9-15.3 8.6-15.8 8.6-1.2 0-.3-3.2 2.1-7.1 2-3.5 2.4-3.9 2-1.7-.8 3.7.7 3.6 8.1-.4 9.9-5.3 14.2-8.7 16.8-13.2 3.1-5.2 3.2-9 .4-10.9-2.7-2-6.6-.9-13.6 3.8-2.9 1.9-5.6 3.5-6 3.5-.5 0-2.1 1.1-3.8 2.4-2.7 2.2-2.9 2.7-1.7 4.7 1.3 2 1.2 2.1-1 1.6-1.2-.4-2.6-.7-3-.7-.5 0-.8-.8-.8-1.8 0-2 0-2 12.6-9.9 5.1-3.2 10-6.3 11-7 2.5-1.6 8.7-1.6 10.2-.1m-4 7.8c.5 5.1-4.8 10.6-17.1 17.4-3.7 2.1-4.7 2.4-4.7 1.1 0-.8-.4-1.5-1-1.5-1.6 0-1.2-2.7.5-3.4 1.9-.7 1.9-2.1 0-4-1.8-1.7-2-1.5 10-8.6 8-4.7 11.8-5 12.3-1m-47.7 12.3c-3 6.3-2.7 7.8 2.2 10.8 6 3.8 14.4 7.9 16.1 7.9 2.8 0 26.7-14.3 30.1-18.1 1.9-2.2 3.7-3.9 4-3.9 1.6 0 5.5 5.2 6.5 8.7 2.4 7.9-3.7 14.8-16.8 19.2-8.6 2.9-24.8 2.9-33.4 0-12.7-4.3-18.5-11.2-16.3-19.6.7-2.7 8.3-10.9 9.2-9.9.3.3-.4 2.5-1.6 4.9m13.6-2.1c7.6 3.9 8.5 6 4.9 11.3-1.4 2.1-2.6 4.2-2.6 4.6 0 1.5-2.7 1-6.2-1-11.1-6.3-10.7-5.8-8.6-10.8 1.9-4.4 3.9-7.3 5.1-7.3.6 0 4 1.5 7.4 3.2m3.6 30.9c1.8 0 2.6.3 1.9.6-1.9.7-10.2-.7-10.2-1.7 0-.6 1.1-.5 2.6 0 1.4.6 4 1 5.7 1.1m25.7-1.1c-.8.5-2.4.9-3.5.9-1.6-.1-1.6-.2.5-.9 3.5-1.1 4.8-1.1 3 0m-6.7 1.7c-.7.2-2.1.2-3 0-1-.3-.4-.5 1.2-.5 1.7 0 2.4.2 1.8.5m-20.4 10.6c2.4 5.1 5.2 11 6.2 13.1 1 2.2 1.7 4.1 1.5 4.3-1.8 1.8-7.3-7.3-12.4-20.2-.8-2.2-1.9-4.5-2.3-5.1-.5-.6-.6-1.3-.3-1.7 1.5-1.4 3.3 1 7.3 9.6m12.4-9.6c-1.3.2-3.5.2-5 0-1.6-.2-.5-.4 2.2-.4 2.8 0 4 .2 2.8.4m15.7 1.3c0 1.1-.8 3.4-1.8 5.2-1.1 1.8-3.8 6.7-6.1 11-2.3 4.2-4.9 8.2-5.8 9-1 .7-.5-.8 1.2-3.7 7.3-13 10.5-19.4 10.5-21.4 0-1.1.5-2.1 1-2.1.6 0 1 .9 1 2m-4 .5c0 1.6-4.4 10.9-8.7 18.3l-2.5 4.3-1.9-3.3c-2.5-4.3-8.9-17.9-8.9-18.8 0-.3 2.6-.4 5.8-.2 3.1.2 7.3-.1 9.2-.6 5.1-1.5 7-1.4 7 .3m-20.5 8.6c2.2 5 4.6 9.5 5.3 10.1.6.6 1.2 2.2 1.1 3.7 0 2.6-1.7-.5-8.2-14.9-1.1-2.5-2.4-5.3-2.9-6.3-.5-.9-.5-1.7-.1-1.7s2.6 4.1 4.8 9.1"/></svg>