<svg xmlns="http://www.w3.org/2000/svg" viewBox="0 0 992 1402" fill="currentColor"><path d="M171.8 323.3c-5.3 2.9-9.9 5.5-10.3 5.9-.4.3.6 2.8 2.1 5.5 7.4 13.1 13.6 23.3 14.5 23.9 1.6.9 3.9-1.6 3.9-4.2 0-3.1 1.2-3 6.3.4 2.3 1.5 7.6 4.8 11.7 7.2 4.1 2.5 7.7 4.8 8 5.1.3.4 1.7 1 3.2 1.4 1.9.5 3.2.1 4.6-1.3 1.6-1.6 1.9-3.2 1.8-9.7-.1-7.8-.1-7.8-7.1-12.2-3.8-2.4-7.9-4.8-9-5.3s-5.6-3.1-10-5.9c-8-4.9-8-4.9-7.7-10.5.2-4.1 0-5.6-1-5.5-.7 0-5.7 2.4-11 5.2m7.2 3c0 5.2.3 5.4 12.3 12.6 4.9 2.8 11.8 7 15.3 9.3 6.4 4.1 6.4 4.1 5.8 11.2-.3 3.9-.8 7.3-1 7.5-.1.2-2-.7-4.1-2-3.8-2.4-3.8-2.4-1.1-2.7 3.7-.4 5-2.4 4.3-6.4-.4-2.3-1.7-4-4.2-5.6-1.9-1.3-3.6-2.2-3.8-2-.8.7-.8 11.5 0 12.7.9 1.6-1.3.5-9-4.4-5.6-3.6-14.3-8.5-15-8.5-.3 0-.5 1.3-.5 3 0 4.9-1.2 4.1-6.1-4.6-1-1.9-2.8-5-3.9-7-1.1-1.9-2.8-4.6-3.7-6-1.1-1.7-1.3-2.8-.6-3.5 1.2-1.2 13.4-7.8 14.6-7.9.4 0 .7 2 .7 4.3m29.2 28.1c1.4 3.1.4 5.6-2.1 5.6-2.2 0-3.5-3-2.6-6 .9-2.7 3.3-2.5 4.7.4"/><path d="M180 339.5c0 3 0 5.8-.1 6.2 0 .4.4.9 1 1.1s1.1-.3 1.1-1.1c0-.9 1-1.7 2.3-1.9 2.2-.3 2.2-.3 0-2.3-2.8-2.4-3-3.8-.3-3 1.1.3 2 .2 2-.3 0-.9-4.3-4.2-5.5-4.2-.3 0-.5 2.5-.5 5.5M188.6 345.7c.6 6.8 1.7 8.4 3.5 5.2 1.3-2.4 1.3-2.4 2.4 1.4 1.3 4.5 2.7 4.9 3.7 1 .3-1.5 1-3.8 1.3-5.1.5-1.4.3-2.2-.4-2.2-.6 0-1.1.4-1.1 1 0 .5-.4 1-1 1-.5 0-1-1.1-1-2.5 0-2.9-1.7-3.3-3.6-.8-1.2 1.6-1.3 1.5-1.4-1.5 0-2.1-.5-3.2-1.5-3.2-1.1 0-1.3 1.1-.9 5.7M617 349.7c-.1.4-.3 5.6-.6 11.4-.5 9.6-.4 10.7 1.2 11.3 2.6 1 85.8 2.6 86.7 1.7.4-.4.6-5.7.5-11.6-.3-10.9-.3-10.9-3.5-11.6-5-1-84.3-2.2-84.3-1.2m21 3.2c-1.4 2.7-1.3 3.4.4 2.8 2.2-.9 2.7.4 1.1 2.9-1.3 2.1-1.3 2.4.2 3.2 1 .6 1.4 1.6.9 2.7-.5 1.4-.9 1.6-1.8.7-1.6-1.6-2.8-1.5-2.8.3 0 1.7 3.2 3.6 4.6 2.7 1.9-1.2 2.2-3.8 1.5-10l-.7-6.2h40.4l-2 3.7c-2.2 4.4-1.9 10.6.7 13.2 1.5 1.5 1.7 1.5 3-.2 2.3-3.2 2.8-9.2 1-12.6-1.6-3.1-1.6-3.1 8-3.1h9.6l-.3 9.7-.3 9.6-26.1-.2c-14.4-.1-27-.4-28-.6-1.1-.2-7.6-.4-14.6-.4L620 371v-20h9.5c9.2 0 9.5.1 8.5 1.9m45 8.6c0 5.1-1 6.9-2.5 4.4-1-1.5.4-9.9 1.6-9.9.5 0 .9 2.5.9 5.5"/><path d="M627.9 353.2c0 .7 0 3.7.1 6.6s-.3 5.9-1 6.6c-.8 1-.7 1.5.6 2 .9.3 1.9.4 2.2.2 1.1-.6.2-16.6-.9-16.6-.5 0-.9.6-1 1.2M658.4 354.4c-.3.8-.4 2.3-.1 3.3.3 1.5.6 1.4 1.4-.7 1-2.3 1.2-2.4 1.9-.6.5 1.3 0 3.2-1.4 5.7-3.1 5.3-2.9 6.9.8 6.9 2.3 0 3-.5 3-1.9s-.5-1.8-2-1.4c-2.5.7-2.5-.5 0-3.7 1.1-1.4 2-3.4 2-4.6 0-3.7-4.4-6.1-5.6-3M669 354.5c-.7.8-1 2.7-.7 4.2s.1 3.6-.5 4.6c-.7 1.3-.5 2.5.7 4.3 1.8 2.8 2.8 3 4.8.9 1.6-1.5 1.8-11.9.3-14.3-1-1.6-3.1-1.5-4.6.3m3.7 3.9c-.4.9-1.1 1.6-1.7 1.6-1.1 0-1.4-3.3-.3-4.4 1.1-1 2.6 1.1 2 2.8m-.2 6.1c0 1-.6 2-1.2 2.2-.8.3-1.3-.5-1.3-2.2s.5-2.5 1.3-2.3c.6.3 1.2 1.3 1.2 2.3M691.2 357.2c-.6 1.8-1.3 4.6-1.7 6.3-.3 1.6-.8 3.8-1.1 4.7-.3 1-.1 1.8.5 1.8.5 0 1.1-1 1.3-2.2.5-3.4 3.8-3.7 3.8-.4 0 1.7.5 2.6 1.6 2.6s1.4-.5 1-1.6c-.4-.9-1.2-4.5-1.8-8-.7-3.5-1.6-6.4-2-6.4-.3 0-1.1 1.5-1.6 3.2m1.5 4.5c-.4.3-.7 0-.7-.7s.3-1 .7-.7c.3.4.3 1 0 1.4M647 361c0 .5 1.4 1 3 1 1.7 0 3-.5 3-1 0-.6-1.3-1-3-1-1.6 0-3 .4-3 1M659.1 376.5c-.4 1.1-.7 7.6-.9 17.2l-.2 6.2-15.7.3-15.8.3-.3 20.4-.2 20.4-21.4-.7c-12.7-.4-21.6-.3-22 .2-.6 1-1 22.1-.4 22.7.4.5 19.3 1.1 61.1 2 28.9.7 26.7 1.8 26.7-14.1V442l-13.7-.1c-7.6-.1-14.5-.3-15.3-.4s-4.1-.3-7.2-.4l-5.8-.1v-39h29.3c16 0 29.7.4 30.3.8 1.1.7.5 39.7-1.1 70-.7 11.8-.9 13.2-2.4 12.6-.9-.3-2.7-.9-4.1-1.1s-4.1-1.3-6.1-2.4c-3.1-1.6-4.2-1.7-7-.8-1.9.7-4.1 1.8-4.9 2.5-.9.7-2.7 1-4.4.7-1.8-.4-3.1-.1-3.7.8-1.3 2-1.1 2.6 1.2 4.8 1.6 1.5 2.1 3.2 2.1 8.5.1 6.3.3 6.7 3.3 8.6 7.4 4.6 8.7 6.9 6.4 11.3-1 1.8-.8 2.5 2.2 4.9 4.2 3.6 5.3 3.5 8.8-.5 2.2-2.4 3.3-2.9 4.1-2.1 1.3 1.3-.5 6.3-4.2 11.6-2.5 3.7-2.3 5.4 1.2 6.8 2.8 1.1 2.9 1.4 1.5 3.3-1.7 2.5-2 4.1-.5 3.2 1.9-1.1 5-8.4 4.4-10-.5-1.1 0-1.8 1.5-2.2 1.3-.3 3-2.3 4.1-4.6 2-4 2.6-6.7 1.4-5.4-.4.3-1.8-.3-3.2-1.3-1.3-1.1-3-2-3.7-2s-2.7-1.4-4.4-3.2l-3.1-3.1 3.3-2c4.4-2.7 7.2-6.2 8.6-10.8 1.2-4.1 2.2-4.7 3.9-2.6 2.1 2.5 2.4 6.5.8 9.9-2.1 4.4-5.2 6.4-7.3 4.7-1-.9-1.7-.9-2.1-.2-.4.5-1.3 1.2-2.1 1.4-.8.3.3 1.6 2.9 3.3 3.2 2.1 4.4 2.5 5 1.5.7-1 1.4-.9 3.5.5 2 1.3 2.4 2.1 1.6 2.9-1.7 1.7-1.3 3.7.8 3.7 3.1 0 3.7-3.8 1-6.6-1.2-1.3-1.7-2.4-1.1-2.4 1.1 0 5.2-7 5.2-8.7-.1-.4-.9.2-1.9 1.4-1.6 1.9-2 2-2.5.7-.3-.9-.6-3.4-.6-5.5 0-4.8-.9-6.6-5.1-10.9-3.2-3.1-3.2-3.2-2.6-10.8.4-4.2 1-24.5 1.3-45 .6-31.6.5-37.2-.7-37.3-5.6-.5-8.6-.6-18.1-.7l-10.7-.2-.4-12.3c-.1-6.7-.4-11.8-.6-11.2m-65.8 69.3c-1.1 10.9-.9 14.2.7 14.2 1.4 0 1.6-1.2 1.6-8.5l-.1-8.5h4.4c3.8 0 4.2.2 3.1 1.5-1 1.2-1 1.9-.2 2.7.9.9 1.2.9 1.2 0 0-.7.5-1.2 1-1.2.6 0 1 .9 1 2s-.4 2-1 2c-.5 0-1 .7-1 1.5s.5 1.5 1 1.5c.6 0 1 .9 1 1.9 0 1.1-.4 2.3-1 2.6-.5.3-1-.1-1-.9 0-.9-.4-1.6-.9-1.6-1.8 0-2 1.7-.6 3.6 1.1 1.5 1.7 1.7 3.2.8 1.4-.9 1.8-2.5 2-7.5 0-3.5-.3-7-.9-7.7-.8-.9 2-1.2 13.4-1.2h14.5l-.5 5c-.4 4.6-.3 5 1.7 5 1.6 0 2.1.6 2.1 2.5 0 2.7-.9 3.2-2.8 1.3-.9-.9-1.2-.7-1.2.9 0 2.5 1.8 3.4 4.3 2.1s2.3-7.4-.3-9c-1.1-.7-2-1.8-2-2.5s.9-1.3 2-1.3 2-.7 2-1.5c0-1 1-1.5 3.1-1.5 2.7 0 2.9.3 2.4 2.2-.6 1.7-.4 2 .9 1.5 1.9-.8 2.3 2.7.4 3.9-.8.5-.6 1.1.7 2 1 .7 1.5 2 1.2 2.9-.8 2-2.5 1.9-3-.3-.4-1.6-.4-1.6-1.2.1-1 2.3 1.5 5 3.7 4.2.9-.4 1.8-1.5 2.1-2.5.7-2.6-.4-11.3-1.6-12.8-.7-.9 1.1-1.2 8.7-1.2h9.6v19h-11.7c-6.5 0-25-.3-41-.7l-29.3-.6v-9.2c0-5 .2-9.4.4-9.6.3-.3 2.2-.3 4.4-.1 3.5.3 3.8.6 3.5 3m81.7 39.4c5.2 5.6-.8 16.8-9.1 16.8-4.7 0-6.9-2.7-6.9-8.3 0-8.3 10.8-14 16-8.5m-16 1.8c0 .5-.5 1.2-1.1 1.6-1.4.8-3.3-1.1-2.5-2.5.7-1.1 3.6-.4 3.6.9m23.6 3.1c1.3 1.5 1.9 3.6 1.9 7.1 0 4.3-.4 5.3-3.3 7.9-3.9 3.5-9.9 4-12.6 1-1.6-1.7-1.5-1.9 1.4-3.1 4.3-1.8 8.2-7.2 8.3-11.5.1-4 1.5-4.5 4.3-1.4m2.9-1.1c.3.5.4 1 .1 1s-.8-.5-1.1-1c-.3-.6-.4-1-.1-1s.8.4 1.1 1m2.2 10.7c-.4.3-.7 0-.7-.7s.3-1 .7-.7c.3.4.3 1 0 1.4m-25.9 4.1c.2.7-.2 1-1.2.6-.9-.3-1.6-1.1-1.6-1.6 0-1.3 2.3-.5 2.8 1m22.2 2.7c-5.2 5.6-11.9 7-16.4 3.4-3.6-2.8-3.3-4.5.3-2 5 3.6 11.4 2.5 15.5-2.5 1.1-1.3 2.2-2.2 2.4-1.9.3.3-.5 1.6-1.8 3m10.3 7.3c-.3 1.3-1.3 2.2-2.4 2.2-2.5 0-2.4-.8.3-3.1 2.5-2.3 2.9-2.1 2.1.9m-18 1.6c1.7 1.3 2.3 3.7 1.1 4.8-.8.9-7.3-3.5-7.4-5 0-1.6 4-1.5 6.3.2m10.7.1c0 .3-.2.5-.5.5s-.5-.2-.5-.5.2-.5.5-.5.5.2.5.5m2 1c0 .3-.2.5-.5.5s-.5-.2-.5-.5.2-.5.5-.5.5.2.5.5m-15 4.6c0 .5-1.1.3-2.5-.3s-2.5-1.5-2.5-1.9c0-.5 1.1-.3 2.5.3s2.5 1.5 2.5 1.9m11.4 8.6c-2.9 4.7-6.2 6.5-5.6 3.1.1-.9 1.4-3.7 2.9-6.3 2.3-4.2 2.7-4.5 4.1-3.1s1.2 2-1.4 6.3m-4.9 7.3c.3.5.2 1-.4 1-.5 0-1.3-.5-1.6-1-.3-.6-.2-1 .4-1 .5 0 1.3.4 1.6 1"/><path d="M623.6 445.5c-1.6 4.3.3 6.2 2.2 2.2 1-2.1 1.1-2.1 1.1.8.1 1.6-.8 4.3-1.9 6-2.8 4.2-2.5 5.5 1 5.5 3.1 0 4.8-1.9 3.5-4.1-.6-.8-1-.8-1.6.2-.4.7-1.1 1.1-1.4.7-.4-.3.1-1.8 1-3.1 2.3-3.6 1.7-9.1-1.1-9.5-1.3-.2-2.4.4-2.8 1.3M612.5 452c-.4.6.8 1 3 1s3.4-.4 3-1c-.3-.6-1.7-1-3-1s-2.7.4-3 1M495.3 381.3c-1 1.3-2.6 2.6-3.5 3-2.1.8-2.3 2.9-.6 5.7 1 1.5 1 2.5.2 3.8-1 1.6-3.9 1.7-35.3 1.7-21 0-34.2.4-34.3 1-.4 1.1-1.9 1.1 35.5 1.3 16.9.1 30.7.6 30.7 1.1 0 .4-1.8 4.1-4 8.1-4.1 7.4-4.9 11.7-2.8 13.8 3.3 3.3 6.6.2 13.9-13.5 4.6-8.8 6.2-10.8 8.1-11 1.2 0 2.8-.1 3.3-.2.6-.1 1.7-2.2 2.4-4.7 1.3-4.4 1.3-4.7-1-6.8-1.3-1.2-4.3-2.9-6.6-3.9-4.1-1.6-4.2-1.6-6 .6m2.7 1.7c0 .5-.4 1-1 1-.5 0-1-.5-1-1 0-.6.5-1 1-1 .6 0 1 .4 1 1m5.5.4c1.8 1.3 1.6 4.6-.3 4.6-2 0-4.3-2.6-3.6-4.3.8-2.1 1.4-2.1 3.9-.3m-5.4 4.2c3.8 1.9 3.2 2.7-1.4 1.9-2.5-.5-3.4-1.1-3-2.1.6-1.7.7-1.7 4.4.2m9.5 2.1c-1.1 1.1-1.9-.6-1.1-2.4.8-1.7.8-1.7 1.2 0 .3 1 .2 2.1-.1 2.4m-9.2 1.9q3 1.2-.3 6.9c-2 3.5-3.8 4-6.4 2.1-1.8-1.4-1.7-1.6.7-5.5 2.7-4.2 3.3-4.5 6-3.5m5.6 2.9c0 .3-.2.5-.5.5s-.5-.2-.5-.5.2-.5.5-.5.5.2.5.5m-10.9 9.2c1.3 1.5 1.2 1.5-1.1.3-3.4-1.7-3.6-2-1.8-2 .9 0 2.2.7 2.9 1.7m-1.7 1.8c1.1.8 1.7 1.7 1.4 2.1-.7.6-4.8-1.7-4.8-2.8 0-1.2 1.3-.9 3.4.7m-.4 4.1c0 .2-.9 0-2-.6s-2-1.3-2-1.6c0-.2.9 0 2 .6s2 1.3 2 1.6m-2 1.4c1.3.8 1.3 1-.2 1-.9 0-2-.5-2.3-1-.8-1.3.5-1.3 2.5 0m-1.3 2.7c-.4.3-1 .3-1.4 0-.3-.4 0-.7.7-.7s1 .3.7.7m-.7 3.3c0 .6-.9.5-2-.2s-2-1.6-2-2.1c0-.4.9-.3 2 .3s2 1.5 2 2m-2 2.1c0 .5-.7.9-1.5.9s-1.5-.7-1.5-1.5c0-.9.6-1.2 1.5-.9.8.4 1.5 1 1.5 1.5M331 383c-1.5 2.8-1.3 22 .3 22.5.6.2 14 .6 29.7.9 15.7.4 35.1.9 43.3 1.3l14.7.6v-3.9c.1-2.1.3-7.5.6-12l.6-8.1-11.4-.6c-6.2-.4-24.6-1-40.8-1.2-16.2-.3-31-.8-32.7-1-2.5-.3-3.6.1-4.3 1.5m11.5 2c-.4.6-.7 4.4-.8 8.5-.2 6.1.1 7.5 1.3 7.5s1.4-1.5 1.1-8.5l-.3-8.5h5.3c4.2.1 5 .3 3.7 1.1-2.6 1.4-2.4 4.2.2 3.4 2.4-.7 2.6.7.5 2.9-.8.8-1.5 1.7-1.5 2s.7.6 1.5.6c1.6 0 2.1 3.5.6 4.5-.6.3-1.4-.2-1.9-1.1-.7-1.2-1.1-1.3-1.7-.4-.4.7.1 2 1.2 3.2 1.8 1.8 2.1 1.8 3.6.4 1.2-1.2 1.5-3.2 1.3-8-.1-3.4-.6-6.8-1-7.4-.9-1.5-.5-1.5 33.2 0l27.2 1.1v19.8l-12.7-.6c-7.1-.3-15.1-.8-18-1s-14.3-.5-25.5-.5c-28.2-.2-25.8.8-25.8-10.6V384h4.6c2.8 0 4.3.4 3.9 1"/><path d="M374 393.9c0 7.4.2 8.1 2 8.1 1.1 0 2-.5 2-1 0-.6-.5-1-1.1-1s-.9-2.4-.7-6.6c.2-4.7-.1-6.8-.9-7.1-1-.4-1.3 1.6-1.3 7.6M384.2 387.7c-1.5 3-2.1 9.3-1.2 11.9 1.3 3.3 4.8 3.2 5.6-.1.8-3.4-.3-7.5-2.1-7.5-.8 0-1.5-.6-1.5-1.4 0-2 1.7-2.9 2.3-1.4.2.7.8 1 1.2.6 1.1-1.1-.2-3.8-1.9-3.8-.9 0-1.9.8-2.4 1.7m2.8 9.3c0 1.6-.4 3-.9 3-1.2 0-2.4-3.7-1.6-5 1.2-2 2.5-1 2.5 2M397.2 388.2c-.7.7-1.2 1.6-1.2 2.1s-.9 2.1-2 3.7c-2.1 2.9-1.8 4 1.3 4 1.4 0 1.8.5 1.4 2-.3 1.1-.1 2 .4 2h1.6c.9 0 1.1-12.7.3-14.1-.4-.5-1.1-.4-1.8.3m-.2 6.3c0 .8-.4 1.5-1 1.5-.5 0-.7-.7-.4-1.5.4-.8.8-1.5 1-1.5s.4.7.4 1.5M361 394c0 .5 1.6 1 3.5 1s3.5-.5 3.5-1c0-.6-1.6-1-3.5-1s-3.5.4-3.5 1M477.1 427c-2.3 4.5-2.5 5-1.3 5 .7 0 2.5-3 5-8.3.2-.4-.1-.7-.6-.7-.6 0-1.9 1.8-3.1 4M597.1 426.9c-2.5 2.5-2.6 3.9-.5 6.9 1.9 2.7 3.6 2.8 5.8.3s1.7-6-1.1-7.8c-1.9-1.3-2.4-1.2-4.2.6m4.9 3.6c0 1.8-.5 2.5-1.9 2.5-1.1 0-2.3-.5-2.6-1-1.1-1.8.3-4 2.5-4 1.5 0 2 .7 2 2.5M582.8 426.6c-1.2 1.1-.9 9.2.3 9.9 1.4.9 1.5.7.9-5.3-.3-3-.8-5-1.2-4.6M586 430.6c0 2.7.4 4.3 1 3.9.6-.3 1-1.6 1-2.8.1-2.1.2-2.1 2.1.6 1.1 1.5 2.5 2.5 3 2.1 1.2-.7 1.2-8.4-.1-8.4-.5 0-1 .9-1 2s-.3 2-.8 2c-.4 0-1.3-.9-2-2-2-3.3-3.2-2.3-3.2 2.6M615.1 427.4c-.8 1-.9 1.6-.1 2.1.5.3 1 1.7 1 3.1s.4 2.2 1 1.9c1.2-.8 1.3-7.2.1-7.9-.5-.3-1.4.1-2 .8M620.8 426.5c-.3.4-.2 2 .3 3.7.5 1.9.5 3.8-.1 4.9-1.2 2.2-1.3 2.9-.1 2.9.5 0 1.5-1.6 2.1-3.4.9-2.8.8-4-.2-6.1-.8-1.4-1.7-2.3-2-2M606 434.6c0 .8.5 1.2 1 .9.6-.4.8-1.1.5-1.6-.9-1.4-1.5-1.1-1.5.7M469.6 440c-2.7 4.9-2.2 7.1.6 2.9 1.2-1.8 1.7-2 3.5-1 3.4 1.8 5.1 1.2 2-.7-1.8-1.1-2.6-2.3-2.3-3.4.9-3.8-1.2-2.5-3.8 2.2M480 444.5c0 .9 9.1 5.7 9.7 5.1.7-.7 1-.5-4.3-3.4-4.2-2.2-5.4-2.6-5.4-1.7M464 449.2c0 .7-.9 2.4-2 3.8-2.1 2.7-2.6 5-1 5 .6 0 1-.6 1-1.3 0-.6.9-2.3 2-3.7 2.1-2.7 2.6-5 1-5-.5 0-1 .6-1 1.2"/><path d="M456.5 449.7c-6 1.2-11.7 5.4-15.1 11.2-1.7 2.9-1.7 2.9-6 .9-2.3-1.2-4.8-1.9-5.6-1.6-.7.3-2.5 2.7-3.8 5.3l-2.4 4.7-9.6-.6c-21.9-1.3-51-1.8-51-.8 0 1.2 10.5 2 39 2.8 19.7.6 22.9.9 26 2.7 1.9 1 3.6 2 3.8 2.2.4.3-3.6 7.6-4.9 8.9-.5.6-.9 1.9-.9 3.1 0 2.5 7.9 6.8 10.6 5.8 1.3-.5 1.5-.2.9 1.7-1.1 3.5 1 1.6 3.5-3.1 1.6-3.1 1.8-4.4.9-4.9-.6-.4-.8-1.3-.5-1.9.5-.7-.4-1.6-2.3-2.2-3.6-1.3-3.5-1.1-1.7-4.8 2.9-5.6 4-5.8 11.7-2.1 4.7 2.3 6.9 3.9 6.9 5.2 0 2.1-1.1 2.3-2.8.6-.6-.6-1.5-.8-1.9-.4-.5.4.1 1.4 1.2 2.1 1.1.8 2.5 1.8 3 2.2.6.5 2.6 1.9 4.5 3.3 1.9 1.3 3.8 2.8 4.1 3.3.7 1 0 4.7-.9 4.7s-12.7-8.3-13-9.2c-.2-.4-1.5-.8-2.8-.8-1.9 0-2.6.6-3.1 3-.3 1.7-1.4 3.5-2.4 4.1-2.3 1.2-2.5 2.9-.4 2.9.8 0 2.2-1.2 3.2-2.8.9-1.5 1.8-2.9 2-3.1.1-.2 1.9.7 4 1.9 11.6 6.9 12.6 7.2 14.5 4 1.7-2.7 3.6-2.5 8.9.8 2.4 1.5 6.5 3.8 9 5.1 3.2 1.7 5.3 3.7 6.8 6.6 2.3 4.3 2.3 4.3.1 8.5-2.1 4.1-2.1 4.3-.3 6.2 2.3 2.5 10.6 6.8 13.2 6.8 1.3 0 3.1-1.9 5.6-6l3.6-5.9 9.7 5.1c5.3 2.9 12.4 6.7 15.7 8.5 3.3 1.9 9.3 5 13.3 7.1 3.9 2 7.2 4.1 7.2 4.7 0 .5-1.2 3.3-2.7 6.1-2.3 4.4-2.5 5.4-1.4 6.8 1.2 1.4 12.9 7.6 14.5 7.6.3 0 2.1-2.5 4.1-5.5 1.9-3 3.8-5.5 4.3-5.5.4 0 2.3 1 4.2 2.3s5.6 3.4 8.3 4.7c3.4 1.8 4.5 2.9 4.1 4-1.9 4.4-1.5 5.7 2.1 8.7 3.2 2.7 3.5 3.4 2.6 5.1-1.7 3.3-1.2 3.9 1 1.3 2-2.5 2-2.5 10.4 1.7 8.4 4.1 8.4 4.1 7.2 7.1-1.3 3.6-.4 4.7 7.8 8.6 7.7 3.8 8.9 3.4 13-4.8 1.1-2 2.1-3.7 2.2-3.7s2.2 1.1 4.7 2.5 4.9 2.5 5.5 2.5c1.4 0 6.1-8.2 6.1-10.7 0-1.2-.7-2.3-1.5-2.7-.8-.3-1.5-1-1.5-1.6 0-.5 2.3 0 5.2 1.1 5 1.9 5.3 2 6.5.3.7-1 1.3-2.1 1.3-2.5 0-.6-10.7-8.7-15.5-11.6-5.8-3.6-21.5-10.3-24-10.3-.2 0-.9.9-1.5 2.1-.9 1.5-.8 2.4.2 3.6 1.5 1.9 1.1 1.8-6.5-2.2-6-3.1-6.6-4-4.2-7.1 1.7-2.2 1.9-3.4.6-3.4-.5 0-1.4 1.3-2.1 3-1.2 3-2.8 3.7-4.5 2.1-.6-.4-7.5-4.2-15.5-8.4-13-6.7-22.6-11.9-43-22.9-3.6-1.9-9.9-5.4-14-7.6s-12.2-6.6-18-9.9c-5.8-3.2-12.2-6.7-14.3-7.8-3.7-2-3.7-2-3.7-10.9 0-10.1-1.3-15.7-4.7-20.4-2.9-3.9-12.4-11.2-14.5-11.2-.9 0-3.9-1.2-6.6-2.6-2.8-1.4-5.7-2.4-6.4-2.2-.7.3.6 1.5 3 2.7s6.4 3.8 8.9 5.7c2.9 2.2 5.2 3.3 6.4 2.9 2.6-.9 9.7 6.7 10.5 11.2 1.1 5.9-3.9 7.3-6.5 1.8-2.1-4.5-4-6.3-10.6-10.2-10-5.9-11.9-6.9-14.2-7.5-4.3-1.1-2.3.9 4.2 4.2 3.6 1.8 6.5 3.6 6.5 3.9.1 1.5-6.6 13.1-7.5 13.1-1.9-.1-18.9-9.7-19.3-10.9-.2-.7 1.7-3.2 4.2-5.7 2.7-2.5 4-4.4 3.1-4.4-2 0-5.2 2.8-7.6 6.7-1.8 2.9-2.2 3.1-4.5 2.1-3.1-1.4-3-3.3.2-7.5 2.9-3.8 9.1-7.3 12.9-7.3 1.4 0 2.5-.4 2.5-.9 0-1.4-1.2-1.8-3.5-1.4m28 10.3c.3.6-.1.7-.9.4-1.8-.7-2.1-1.4-.7-1.4.6 0 1.3.4 1.6 1m-41 8.3c6.6 3.5 16.3 8.6 21.5 11.4s13.3 7.1 18 9.5c4.7 2.5 9.7 5.2 11 6 1.4.9 6 3.4 10.3 5.7s11.7 6.3 16.5 9c4.8 2.6 11.9 6.5 15.7 8.6 3.9 2.1 9.3 5 12 6.5 2.8 1.5 8.8 4.8 13.5 7.3 15.7 8.2 24.5 12.9 28.5 15.2 2.2 1.3 8.3 4.5 13.5 7.2 19.1 10 44.3 23.7 45.9 25 .8.5-4.2 10.3-5.2 10.3-.6 0-2.4-1.1-4.1-2.3-5.1-3.9-12.2-7.7-14.2-7.7-1 0-3.9-1.7-6.3-3.8-4.1-3.5-4.3-3.9-3-6 1.2-1.9 1.1-2.4-1.4-5-5.2-5.4-17.7-10.4-17.7-7 0 .8-.8 2.2-1.8 3.1-1.5 1.4-2.1 1.5-3.8.3-1-.7-4.8-2.8-8.4-4.6-3.6-1.9-7.8-4.4-9.3-5.7-1.5-1.2-4.2-2.9-6-3.7-8-3.6-14.7-6.9-20.7-10.2-16.4-9.2-35.9-19.4-36.9-19.4-.6 0-1.1-.4-1.1-.8 0-1.1-5.5-4.3-11.7-6.9-2.9-1.2-6.5-3-8-4.1-1.6-1-5.3-3.3-8.3-4.9-13.7-7.6-15.8-8.8-19.8-12.1-3.4-2.7-4.2-3.9-3.8-5.7.7-2.8-1-4.3-9-8.4-7.2-3.6-8.9-3.8-10.6-1.1-.7 1.1-1.9 2-2.7 2-2 0-10.1-4.9-10.1-6.1 0-1.1 4.3-7.9 5-7.9.3 0 6 2.9 12.5 6.3m39.3 1.3c1 1 .9 1.9-.7 4.7-1 1.8-2.6 4.8-3.5 6.5-1.6 3.2-1.7 3.2-4.6 1.7-1.7-.9-3-1.8-3-2.2 0-.3 1.6-3.4 3.5-6.9 3.6-6.5 4.9-7.1 8.3-3.8m5.9 8.1c.1 1.6.5 4.9.8 7.5.4 2.9.2 4.8-.3 4.8-1.8 0-9.4-4.5-9.9-5.8-.3-.7.6-2.9 1.9-5 1.3-2 2.8-4.6 3.2-5.6.6-1.8.8-1.8 2.3-.3.9.9 1.8 2.9 2 4.4m-52.7.8c0 .3-.7 1.6-1.5 2.9-1.5 2.3-1.4 2.5 1.1 4.5 1.5 1.2 3.3 2.1 4 2.1 1.7 0 1.7.5.4 3-1 1.9-1.2 1.8-5.7-.5-2.6-1.3-5.1-2.1-5.5-1.9-1.5.9-.8-1.8 1-4.4 1-1.5 2.2-3.5 2.5-4.5.6-1.5 3.7-2.5 3.7-1.2m62 10c0 3.6-.3 6.5-.6 6.5s-1.9-.8-3.5-1.7c-2.5-1.5-2.9-2.4-2.9-5.9 0-3.6.3-4.3 2.3-4.7 4.7-.9 4.7-1 4.7 5.8m4.4 25.6c2.4 1.1 5.1 2.8 6.1 3.8 1.5 1.7 1.5 2.1-.5 5.7-3.1 5.6-3.1 5.6-7.9 2.3-2.5-1.6-5.5-3.2-6.8-3.5-2.7-.7-2.7-.7-.7-4.7 3.3-6.5 3.5-6.6 9.8-3.6m-4.9 13.7c-.3.3-1.1 0-1.8-.7-.9-1-.8-1.1.6-.5 1 .3 1.5.9 1.2 1.2m68.3 20c5.8 2.8 8.2 4.6 8.2 5.9 0 .7-1.3 3.2-2.8 5.6l-2.8 4.4-3.3-2.8c-1.9-1.5-4.7-3.1-6.2-3.4-1.6-.4-3.1-1.1-3.5-1.6-.6-1.1 4.6-9.9 5.9-9.9.4 0 2.5.8 4.5 1.8m42.3 14.3c4.3 2.2 7.9 5.2 7.9 6.5 0 1.9-1.9 2.7-3.5 1.4-.8-.6-1.6-.7-1.9-.2-.3.6.7 1.8 2.2 2.8s4.1 3.1 5.9 4.8c3.2 3.1 3.2 3.1 1.4 5.4-1.5 2-2 2.2-3.2 1-5.3-5-12.5-10.2-17.3-12.4-6.1-2.8-6.1-2.9-1.4-9.6 1.6-2.3 2.2-2.5 4.7-1.8 1.5.4 3.9 1.4 5.2 2.1m-46.4-.4c-.4.3-.7 0-.7-.7s.3-1 .7-.7c.3.4.3 1 0 1.4m75.4.9c3.5 1.4 8 3.5 9.9 4.7 5.7 3.4 17.1 11.9 16.6 12.4-.4.5-6.3-3.2-7.6-4.7-.6-.7-9.4-6.2-14-8.7-1.9-1.1-5.9-2.8-8.7-3.7-2.9-1-5.3-1.9-5.3-2.2 0-1 3.1-.2 9.1 2.2m-1.6 2.8c1.9.8 3.5 1.7 3.5 1.9 0 .8-7.2-1.1-8.3-2.2-1.6-1.6.6-1.4 4.8.3m7.9 6.7c2.6 1.7 4.6 3.2 4.4 3.5-.6.6-5.8-1.9-5.8-2.9 0-.4-.6-.7-1.2-.7-.7 0-2.2-.7-3.2-1.5-3.7-2.8.7-1.6 5.8 1.6m12.2 5c.7 1.2 0 1.1-2.9-.2-1.2-.6-2.8-1.9-3.5-2.9-1.1-1.8-.9-1.8 2.3.1 1.9 1.2 3.8 2.5 4.1 3m-53.9-1.4c-.4.3-1 .3-1.4 0-.3-.4 0-.7.7-.7s1 .3.7.7m30 8.4c6.3 3.5 6.7 4.2 4.8 8-3 5.9-3.3 6-7.1 3.4-1.9-1.3-5.1-2.9-6.9-3.5-4.1-1.3-4.2-2.1-1.4-6.6 2.5-4 5.1-4.4 10.6-1.3m20-.4c-.4.3-.7 0-.7-.7s.3-1 .7-.7c.3.4.3 1 0 1.4m-2.6 4.7c-.6.7-.8 2.2-.5 3.2.6 1.5.4 1.7-.6.7-1.1-1-1-1.8 0-4.4.8-1.8 1.6-2.7 1.8-2 .2.6-.1 1.8-.7 2.5m3.9-2.2c0 1.9-1.8 4.4-2.5 3.6-.4-.3 0-1.5.7-2.7 1.5-2.4 1.8-2.6 1.8-.9M493.5 452c.8 1.3 8.6 5.3 9.1 4.7.3-.3-1-1.3-2.8-2.4-4.4-2.6-7.1-3.5-6.3-2.3M723.2 456.6c-2.3 1.9-3.1 3.1-2.7 4.5.4 1.1-1.1 5.3-3.9 10.9-2.5 5-4.6 9.5-4.6 10s1.3 1.6 2.9 2.5c2.9 1.4 3 1.4 5-1.4 1.2-1.6 2.1-3.2 2.1-3.5 0-.2 1.6-3.2 3.5-6.5l3.5-5.9 17.2-.2c15.7-.1 18.9-.3 17.7-1.4-.3-.2-21.6-1.4-29.7-1.6-.1 0-.1-1.2 0-2.7.2-2.1-.4-3.2-3.1-5-1.9-1.3-3.7-2.3-4-2.3s-2.1 1.2-3.9 2.6m5.8.9c0 .3-.2.5-.5.5s-.5-.2-.5-.5.2-.5.5-.5.5.2.5.5m-.9 2.5c1 .6 1.9 1.9 1.9 3 0 1.8-.1 1.8-2.9.2-1.6-.9-2.7-2.2-2.4-2.9.6-1.6.9-1.6 3.4-.3m-1.5 5.4c.3.8.1 2.4-.5 3.5-1 1.7-1.5 1.9-3.5.9-2.1-.9-2.3-1.4-1.4-3.4 1.2-2.6 4.5-3.2 5.4-1M723 472c.8.5 1.1 1 .5 1-.5 0-1.7-.5-2.5-1s-1-1-.5-1c.6 0 1.7.5 2.5 1m-1 3c0 .5-.6 1-1.4 1s-1.8-.5-2.1-1c-.3-.6.3-1 1.4-1 1.2 0 2.1.4 2.1 1m-2.5 3c.3.6-.1.7-.9.4-1.8-.7-2.1-1.4-.7-1.4.6 0 1.3.4 1.6 1m-1 2.1c1.2 1.9-.5 2.3-2.2.6-1.6-1.6-1.6-1.7-.1-1.7.9 0 2 .5 2.3 1.1M271.6 457.5c-.3.9-.6 6.3-.6 11.9v10.3l12.3.6c6.7.4 26.6 1 44.3 1.3l32.1.7.6-4.8c.4-2.6.7-8.1.7-12.1 0-8.4 1.1-7.6-11.5-7.9-3.3-.1-22-.5-41.6-.9-32.9-.8-35.7-.7-36.3.9m44 3.2c-.3 1-.6 4.9-.8 8.8-.2 5.6 0 7 1.2 7.3 1.3.2 1.5-1.1 1.3-8.9-.3-9-.3-9.1 1.9-8.5 1.3.3 2.9.6 3.6.6.8 0 1.2 1.6 1.2 4.5 0 3.8.3 4.5 2 4.5 1.5 0 2 .7 2 2.5 0 2.7-.9 3.2-2.8 1.3-.9-.9-1.2-.7-1.2 1 0 1.3.7 2.5 1.5 2.8 4.2 1.6 6.5-7.4 2.5-9.8-1.1-.7-2-1.8-2-2.5s.9-1.3 2-1.3 2-.7 2-1.5c0-1.1 1.1-1.5 3.6-1.5 3.4 0 3.5.1 2 2.2-1.9 2.7-2.1 10.7-.3 13.2 3.8 5.1 7.6-5.2 4.7-12.8-.9-2.5-.8-2.6 2.4-2.6 3.3 0 3.3 0 2.9 8.5-.3 8.3-.3 8.5 1.9 8.5 1.3 0 2.8-.4 3.5-.8 1.7-1.1 1.3-12.3-.5-14.5-1.4-1.6-1.2-1.7 3.1-1.7h4.7v7.7c0 13.3 1.2 12.4-16.4 11.8-22.9-.8-50.1-1.4-59.4-1.5h-8.3l.2-7.7c.3-12.5-1.9-11.3 21.6-11.3 19 0 20.4.1 19.9 1.7m23.4 6.8c0 3.9-.8 6.5-2.1 6.5-1 0-1.2-9.3-.3-10.3 1.3-1.3 2.4.5 2.4 3.8m10.8-2.3c-.2 1.3-.7 2.3-1.3 2.3-.5 0-1.1-1-1.3-2.3-.2-1.5.2-2.2 1.3-2.2s1.5.7 1.3 2.2m0 7c-.5 3.2-2.8 3.5-2.8.4 0-1.7.5-2.6 1.6-2.6 1 0 1.4.7 1.2 2.2"/><path d="M283 460.2c-.1.2-.2 3.8-.3 8.1-.2 6.9 0 7.7 1.7 7.7 1.2 0 1.6-.5 1.2-1.6-.3-.9-.6-4.5-.6-8 0-3.6-.4-6.4-1-6.4-.5 0-1 .1-1 .2M292.3 461.5c-.7 2.1.6 3.3 1.6 1.6.6-1 1-1 1.6-.1.4.6-.1 2-1 3-1.6 1.8-1.6 2-.1 2.6 1.7.7 2.2 3.9.7 4.8-.5.3-1.2-.2-1.5-1.1-.5-1.1-1-1.3-1.7-.6-1.4 1.4 0 4.3 2.1 4.3 3 0 3.9-2.3 3.6-8.6-.2-3.2-.4-6.2-.5-6.7-.2-1.4-4.2-.7-4.8.8M302 467.9c-1.2.9-1.2 1.1.2 1.6 2.3.9 6.3.2 6.1-1-.3-1.4-4.5-1.7-6.3-.6M506 458.8c0 1 8.9 5.6 9.6 5 .3-.3-1.6-1.7-4.2-3.2-5.1-2.8-5.4-3-5.4-1.8M769 459.9c-1.3 2.6-.3 5 2.7 6.2 2.1.8 2.3 1.2 1.3 2.4-.9 1.1-1.6 1.2-2.5.5-.8-.7-1.6-.7-1.9-.2-.9 1.4 1.9 3.3 3.8 2.6 2.4-.9 3.9-7.6 2.5-10.8-1.4-3.1-4.4-3.4-5.9-.7m4 2.1c0 1.1-.7 2-1.5 2-1.5 0-2.1-2.1-.8-3.3 1.2-1.3 2.3-.7 2.3 1.3M779.2 459.2c-2.1 2.1-1.4 5.8 1.3 6.8 1.6.6 2.3 1.4 1.9 2.5-.7 1.8-1.6 1.9-3.3.2-1-1-1.2-.8-.9.8.5 2.9 3.9 2.5 5.7-.7 2.9-5.1-1.1-13.2-4.7-9.6m3.2 2.4c.9 2.2.8 2.4-.9 2.4-.8 0-1.5-.9-1.5-2 0-2.4 1.5-2.7 2.4-.4M788.7 458.7c-1.3 1.2-.7 2.3 1.3 2.3 1.9 0 2 .2.5 3-1.7 3.3-2.1 8.5-.5 7.5.6-.3 1-1.5 1-2.5 0-1.1.8-3.5 1.7-5.5.9-1.9 1.5-3.6 1.2-3.9-1-.9-4.6-1.6-5.2-.9M798.6 459.3c-2.4 1.8-1.7 5.9 1.2 7.2 3.1 1.4 2.9 3.9-.3 3.2-1.6-.3-2.4 0-2.2.7.6 1.9 4 1.9 5.4 0 3.4-4.7 0-14.1-4.1-11.1m3.2 3.4c-.5 2.5-2.8 2.8-2.8.4 0-1.2.6-2.1 1.6-2.1.9 0 1.4.7 1.2 1.7M827.1 459.9c-1.7 1.1-1.8 9.5-.1 11.6.9 1.1 1.7 1.2 3.1.4 3.2-1.7 2.3-13-1-12.9-.4 0-1.2.4-2 .9m2.9 6.2c0 2.8-.4 3.9-1.5 3.9s-1.5-1.1-1.5-3.8c0-2.1.3-4.2.6-4.5 1.4-1.3 2.4.6 2.4 4.4M836.5 460.6c-2 2-2 9.7 0 11.4 1.6 1.4 3 .7 4.5-2.1.9-1.5.6-2.4-1.5-4.5-2.6-2.6-2.6-4.8 0-3.7.8.3 1.5.1 1.5-.5 0-1.8-2.9-2.2-4.5-.6m2.7 7.9c0 .5-.5 1.1-1.1 1.3s-1.1-.4-1.1-1.3.5-1.5 1.1-1.3 1.1.8 1.1 1.3M808.7 463.5c-2.2 4.7-2.1 6.5.3 6.5 1.1 0 2 .5 2 1.2 0 .8.4.8 1.3-.2 1.7-1.9 1.1-11-.7-11-.7 0-2 1.6-2.9 3.5m2.3 3c0 .8-.4 1.5-1 1.5-.5 0-1-.7-1-1.5s.5-1.5 1-1.5c.6 0 1 .7 1 1.5M846.1 461.4c-.8 1-.9 1.6-.1 2.1.5.3 1 2.4 1 4.6 0 2.1.5 3.9 1 3.9 1.2 0 1.3-10.7.1-11.4-.5-.3-1.4.1-2 .8M854 462c-1.1 2 .3 3 1.5 1 .3-.6 1-1 1.6-1 1.6 0 1 3-1.1 5.2-3.2 3.4-2.6 5.8 1.3 5.7 2.3-.1 2.6-.3 1-.6-2.8-.5-2.9-2.4-.3-4.8 2.3-2 2.6-4.5.8-6.3s-3.6-1.5-4.8.8M455.6 463.8c-.9 1.8-1.5 3.9-1.3 4.5.2.7 1.2-.3 2.1-2.1s1.5-3.9 1.3-4.5c-.2-.7-1.2.3-2.1 2.1M519 466.4c0 .2 1.8 1.3 4 2.5 2.2 1.1 4 1.6 4 1.1s-1.3-1.6-3-2.5c-2.8-1.4-5-1.9-5-1.1M817.5 467c.3.5 1.5 1 2.6 1 1 0 1.9-.5 1.9-1 0-.6-1.2-1-2.6-1s-2.3.4-1.9 1M625.8 487.7c-.2 11.5-.3 23.8-.3 27.6 0 3.7-.1 6.7-.3 6.7-.1 0-2.1-.9-4.3-2.1-2.3-1.1-4.4-1.7-4.7-1.3-.4.4-.2.8.3 1.1.6.2 2.8 1.4 5 2.6 4.8 2.7 5.5 5.4 2.6 10.3-2.3 3.9-2.5 4.4-1.3 4.4 1.1 0 5.2-7.8 5.2-9.9 0-.9-.5-2.2-1.2-2.9-2.2-2.2.1-2.4 3-.3 1.7 1.2 3.3 2.1 3.6 2.1 1.4 0 18.5 10.7 22.3 14 4.4 3.9 11.2 6.5 12.6 5.1.5-.5.6-1.4.3-2-1.4-2.3-9.4-7-12.9-7.6-2-.4-6.3-2.3-9.4-4.2-3.2-1.9-7.4-4.4-9.3-5.4-10.2-5.7-9.2-2.2-9.1-32.2.1-18-.2-26.7-.9-26.7-.6 0-1.1 7.2-1.2 20.7m36.7 52.8c2.2 1.3 3.3 2.4 2.5 2.5-1.6 0-8-3.6-8-4.5 0-1 1.6-.4 5.5 2M532 472.8c0 1 8 5.6 8.6 4.9.4-.4-7-5.7-8.1-5.7-.3 0-.5.4-.5.8M545 480.5c0 .7 7.8 4.5 9.2 4.5 1.6-.1-6.3-5-7.9-5-.7 0-1.3.2-1.3.5M710.6 488.9c-.9 1.6-1.6 3.6-1.6 4.3.1.7 1-.4 2.1-2.5 1.1-2.2 1.8-4.1 1.5-4.4-.2-.3-1.2.9-2 2.6M561 488.7c0 1.1 7.8 5.2 8.4 4.5.4-.3-1.2-1.6-3.5-2.9-4.5-2.5-4.9-2.7-4.9-1.6M574 495.8c0 1 7 4.5 7.7 3.8.3-.2-1.3-1.4-3.6-2.6-2.3-1.1-4.1-1.7-4.1-1.2M704.2 500.5c-1.3 2-2.1 3.9-1.9 4.1.7.7 4.8-5.7 4.5-6.8-.2-.6-1.4.6-2.6 2.7M432.2 504.6c-1.3 2.6-2.1 4.8-1.8 5.1.5.6 5.6-7.2 5.6-8.7 0-2.2-1.6-.7-3.8 3.6M588.4 503.9c.6.9 8.2 5.1 9.2 5.1 1.4 0-1.2-2.2-4.6-4-4.3-2.2-5.4-2.5-4.6-1.1M603.5 511.9c.8 1.3 6.7 4.2 7.3 3.6.3-.3.3-.6.1-.8-5.7-3.4-8.5-4.4-7.4-2.8M271.8 512.5c-.7.7-1.2 23.3-.5 23.6.3.2 88.2 2.7 88.3 2.5.1 0 .3-5.5.5-12.1l.4-12-20.5-.6c-11.3-.3-31.1-1-44-1.4s-23.8-.4-24.2 0m15.8 2.1c4.7.6 5 .8 4.6 3-.2 1.4 0 2.4.7 2.4.6 0 1.1-.5 1.1-1.1 0-.5.5-.7 1.1-.4.7.5.5 1.5-.5 3-1.4 2.2-1.4 2.5 0 3.3 1.8 1 1.6 4.3-.3 5-.7.2-1.3-.3-1.3-1.2s-.4-1.6-1-1.6c-1.1 0-1.3 1.1-.4 3.4.8 2.1 4.1 2 5.2-.2 1.4-2.6.9-11.7-.7-13.6-1.3-1.6-.6-1.7 10.5-1.5 6.5.1 13.3.4 14.9.6 2.9.4 3 .6 2.6 5.5-.3 4.7-.2 5 1.8 4.3 1.8-.5 2.1-.2 2.1 1.9 0 2.7-1.5 4.3-2.5 2.6-.9-1.5-2.5-.2-1.8 1.5.6 1.8 3.4 2 5.1.3 1.9-1.9 1.4-6.3-.8-8.3-2.5-2.3-2.5-3.1.1-3.8 1.5-.4 2-1.1 1.6-2.1-.5-1.3.2-1.6 3.5-1.6 3.9 0 4 .1 2.5 1.8-.9 1-1.6 3.3-1.6 5.3.1 1.8 0 3.8-.1 4.4-1 4.3 2.7 7.7 5.3 5 2.1-2.1 2-12.4-.1-14.8-1.5-1.7-1.1-1.8 8.4-1.5 9.9.3 9.9.3 10.2 3.8.2 1.9.1 6.4-.3 9.9l-.7 6.4-25.1-.7c-13.9-.3-32.5-.9-41.4-1.3l-16.3-.6v-9.2c0-5 .3-9.5.7-9.8.8-.9 6.2-.9 12.9-.1m50.9 6.7c0 2.6-2 2.5-2.3-.2-.3-1.6.1-2.2 1-1.9.7.3 1.3 1.2 1.3 2.1m.5 6.6c0 1.1-.5 2.3-1.1 2.7-1.4.8-2.9-1.4-2.2-3.3.8-2 3.3-1.6 3.3.6"/><path d="M282.4 524c-.1 7.3.1 8 1.9 8 1.3 0 1.7-.5 1.3-1.6-.3-.9-.6-4.5-.6-8 0-4.5-.4-6.4-1.2-6.4-.9 0-1.3 2.3-1.4 8M315.8 516.5c-.3.6-.8 4.4-.9 8.5-.3 6.2-.1 7.5 1.2 7.8 1.4.2 1.5-.8 1.2-7.5-.5-9-.7-10.1-1.5-8.8M302 525c0 .5 1.3 1 2.9 1 1.7 0 3.3-.5 3.6-1 .4-.6-.8-1-2.9-1-2 0-3.6.4-3.6 1M424.6 517.7c-1.5 2.5-2.4 4.9-2 5.2.6.6 3-2.2 3.7-4.3.3-.8 1.3-.7 3.3.4 1.6.8 3.2 1.6 3.7 1.8.4.2.7-.1.7-.7 0-.5-1.2-1.6-2.7-2.3-1.6-.8-2.7-2.1-2.7-3.1.3-3-1.4-1.8-4 3M436 521.8c0 .9 11 6.5 11.7 5.9.4-.4-10.1-6.7-11.2-6.7-.3 0-.5.4-.5.8M412.5 523.8c-1.1.2-2.7 1.1-3.6 1.8-1.3 1.2-5.7 1.5-22.5 1.4-26.9-.1-25-.2-23.8 1 .5.5 9.4 1 20.4 1 10.7.1 20.6.4 22 .7 1.4.2 3.3 1.7 4.1 3.2 2.2 3.8 9.9 7.5 13.9 6.6 3.9-.9 5.3-3.4 3.9-7.4-1.5-4.4-10-9.3-14.4-8.3m6 5.1c5.6 3.2 8 5.5 7.1 7-.3.5-2-.4-3.6-1.9-1.7-1.6-5.1-3.6-7.5-4.6-2.5-.9-4.5-2.1-4.5-2.5 0-1.7 3.5-.9 8.5 2m-1.3 3.5c2.3 1.3 4.4 2.9 4.6 3.6.3.7-1.3.1-3.4-1.4-2.1-1.4-4.4-2.6-5.1-2.6-.6 0-1.5-.5-1.8-1-1-1.7 1.2-1.1 5.7 1.4m-.9 2.6c1.5.7 2.7 1.7 2.7 2.2 0 1.1-5.6-1.8-6.6-3.3-.4-.7-.3-1 .2-.8.5.3 2.1 1.1 3.7 1.9M450 529.4c0 .5 5.9 4 8.3 4.9 3.6 1.4 1.5-1-2.8-3.1-4.6-2.2-5.5-2.5-5.5-1.8M463.4 536.8c.8 1.4 9.6 5.6 10.2 4.9.3-.3-1.7-1.7-4.5-3.1-5.3-2.7-6.5-3.1-5.7-1.8M618.5 543c-1.5 2.3-2.4 4.4-2.1 4.8.7.6.7.7 3.5-4.2 3-5.3 1.9-5.8-1.4-.6M478 544.5c0 .7 10.3 6.5 11.5 6.5.6 0-1.5-1.6-4.5-3.5-5.1-3.3-7-4.1-7-3M673.7 554.4c-2.8 4.5-3.2 5.6-1.9 5.6 1 0 5.8-8.8 5.1-9.4-.2-.3-1.7 1.4-3.2 3.8M492 552.5c0 .7 10.1 5.7 10.7 5.2.2-.3-1.7-1.6-4.3-3.1-4.5-2.5-6.4-3.1-6.4-2.1M507.1 560.7c.1 1.1 10.9 6.4 10.9 5.3 0-.9-8.6-6-10.1-6-.5 0-.9.3-.8.7M666.6 567.3c-1.5 2.6-2.6 5.2-2.4 5.9.2.6 1.6-1 3.1-3.7 3.6-6.3 2.9-8.4-.7-2.2M522 568.7c.1 1 9.1 5.6 9.7 4.9.6-.5-7.2-5.6-8.7-5.6-.5 0-1 .3-1 .7M535.4 575.9c.8 1.3 8.7 5.3 9.3 4.7.3-.2-1.3-1.6-3.6-3-4.1-2.6-6.7-3.4-5.7-1.7M550 583.8c0 1.1 7.8 4.7 8.6 4 .5-.6-6.1-4.8-7.7-4.8-.5 0-.9.4-.9.8M592.7 589.5c-2.4 5.1-2.1 5.6.8 1.3 2.7-3.9 3-4.8 1.7-4.8-.5 0-1.6 1.6-2.5 3.5M562.6 589.8c-.6 1 7.7 6.2 9.8 6.2 1.3 0-3.4-3.9-4.8-4-.5 0-1.7-.7-2.7-1.6s-1.9-1.1-2.3-.6M587.5 598c-.7 2.2-5.3 2.8-7.2.9-.6-.6-1.7-.9-2.5-.7-1.5.5 4.2 3.8 6.6 3.8 1.6 0 5.6-3.7 5.6-5.2 0-1.6-1.9-.7-2.5 1.2M681.6 605.5c-1.2 2.8-1.3 4.1-.4 6 1.7 3.8 2.3 3 2.4-3.5 0-3.3-.1-6-.3-6-.1 0-.9 1.6-1.7 3.5M685 607.5c0 2.5.5 4.5 1 4.5.6 0 1-.9 1-2s.4-2 .9-2 1.3.9 1.6 2c1.2 3.9 3.5 2.3 3.5-2.5 0-2.5-.4-4.5-1-4.5-.5 0-1 1.2-1 2.7-.1 2.8-.1 2.8-1.8 0-2.5-4.1-4.2-3.4-4.2 1.8M695.5 605.4c-3 4.5 1.6 9.1 6.1 6.1 2.8-1.8 3.1-4.6.8-6.9-2.2-2.3-5.1-2-6.9.8m6.2 1.2c.3.8-.2 2.3-1.1 3.2-1.5 1.5-1.7 1.5-3.2 0-2.1-2.1-1.1-4.8 1.6-4.8 1.1 0 2.3.7 2.7 1.6M713 605.6c0 1.4.3 1.4 1.5.4 2.4-2 1.9 1.3-.5 3.5-2.8 2.5-2.5 3.5 1 3.5 1.7 0 3-.5 3-1 0-.6-.5-1-1.1-1s-.4-.9.5-2.1c.8-1.2 1.2-2.8.9-3.5-.7-2-5.3-1.8-5.3.2M720.4 610.1c-.1 5.9 0 6 1.3 3.4 1-1.7 1.2-4 .8-6.1-1-5.3-2-4-2.1 2.7M608.9 606.1c-2 1.3 4.6 7.1 10.2 8.9 3.3 1.1 5.4 3 10.2 9.2l6 7.8h8.4c4.5 0 8.6 0 9 .1.4 0 .9-.4 1.1-1 .2-.7-2.7-1.1-8.7-1.1-9 0-9 0-11.8-3.6-1.5-1.9-3.8-4.7-5-6.1s-2.7-3.8-3.5-5.2c-1.7-3.3-4.5-5.9-8.3-7.5-4.9-2.2-6.1-2.5-7.6-1.5m8.3 4c1.6 1.2 2.7 2.3 2.5 2.6-.6.6-6.4-2.4-7.2-3.7-1.1-1.7 1.6-1.1 4.7 1.1M705 612.1c0 .5.5.7 1 .4.6-.3 1-.8 1-1.1 0-.2-.4-.4-1-.4-.5 0-1 .5-1 1.1M658 629.4v12.3l14.3.7c7.8.3 28 .9 45 1.3l30.7.6v-12.1c0-6.6-.4-12.3-.8-12.6-.9-.5-23.1-1.2-65.9-2.1l-23.3-.4zm59.9-8.7 27.2.6-.3 10.1-.3 10.1-16-.2c-42.4-.6-67.4-1.6-67.7-2.7-.2-.6-.2-5 0-9.9l.3-8.7h14.8c8.1 0 27 .3 42 .7"/><path d="M669.9 621.1c0 .2-.2 3.2-.4 6.7-.2 3.4-.7 7.2-1 8.2-.5 1.5-.2 2 1.2 2 1.6 0 1.8-.9 1.8-7.9 0-4.4-.3-8.3-.7-8.7q-.75-.6-.9-.3M679 622.5c-1.6 1.9-.3 4 1.6 2.4 1.1-.9 1.4-.7 1.4.9 0 1.1-.6 2.3-1.2 2.6-1 .5-1 .7 0 1.2.6.3 1.2 2 1.2 3.7-.1 3-.1 3.1-1.5 1.3-.8-1.1-1.8-1.6-2.2-1.2-1.2 1.1 1.2 4.1 3.3 4.1 1.7 0 1.9-.9 2.1-7.5.1-4.9-.2-7.7-1-8.2-1.7-1.1-2.3-1-3.7.7M701 624c-.6 1.1-.8 2.5-.4 3.2s1.2.2 2-1.3c1.3-2.4 1.3-2.4 1.4.4 0 1.5-.9 4.6-2.1 6.8-1.1 2.3-1.8 4.3-1.6 4.5.3.3 1.7.6 3.3.7 2.4.2 3-.2 3.2-2.3.3-2 .1-2.2-1-1.2-2.5 2-2.8.2-.7-3.8 1.3-2.5 1.8-4.7 1.3-6.4-.8-3.2-3.9-3.5-5.4-.6M711.9 624.9c-.1 1.7-.2 3.7-.3 4.3-.1.7.8 1.3 1.9 1.3 1.4 0 2.1.8 2.3 2.7.2 2-.1 2.8-1.2 2.8-.9 0-1.6-.5-1.6-1 0-.6-.4-1-1-1-1.6 0-1.2 3.7.5 4.4 2.3.9 4.5-.4 5.1-3.1.8-3-1-7.3-3.1-7.3-2.4 0-1.7-2.8.8-3.2 2.9-.4 2.4-2.2-.8-2.6-2.2-.3-2.5.1-2.6 2.7M723.2 623.2c-.6.6-1.2 1.6-1.2 2 0 1.3 2.8.9 3.3-.5.3-.6.6 0 .6 1.5.1 1.6-.3 2.8-.9 2.8-.5 0-1 .7-1 1.5s.5 1.5 1 1.5c.6 0 1 .9 1 2s-.4 2-1 2c-.5 0-1-.5-1-1 0-.6-.4-1-1-1-.5 0-1 .9-1 1.9 0 2.1 2.2 3.3 4.5 2.4 2.3-.8 1.7-15.6-.5-16.1-.9-.1-2.1.3-2.8 1M689.5 629.9c-.7 1.3 1.7 2.4 4 1.9.9-.1 1.6-.8 1.6-1.3 0-1.4-4.8-1.9-5.6-.6M601.4 619.8c-.6.4-1.9 2.1-2.9 3.9-1.6 2.7-1.7 3.4-.5 4.8 1.8 2.2 11 7.5 13 7.5 1.6 0 3.1 2.5 13.7 23 9.9 18.9 7.7 17 19.4 17 7.2 0 10-.3 9.7-1.2-.3-.7-3.9-1.3-9.9-1.6-7.3-.3-9.6-.8-10.4-2-.5-.9-3.7-6.9-7.1-13.2-3.3-6.3-7.2-13.6-8.7-16.2-3.1-5.4-3.3-7-1.2-10.2 2.1-3.1 1.3-4.6-4.3-8.2-5.2-3.4-9.1-4.7-10.8-3.6m3.3 3.9c-.4.3-1 .3-1.4 0-.3-.4 0-.7.7-.7s1 .3.7.7m2.8 1.3c.3.5.4 1 .1 1s-.8-.5-1.1-1c-.3-.6-.4-1-.1-1s.8.4 1.1 1m-.3 2.4c2.7 2 .9 2.7-2.3 1-1.6-.8-2.9-1.7-2.9-1.9 0-1 3.6-.4 5.2.9m5.8 1.2c0 .2-.9 0-2-.6s-2-1.3-2-1.6c0-.2.9 0 2 .6s2 1.3 2 1.6m-1.3 5.1c-.4.3-1 .3-1.4 0-.3-.4 0-.7.7-.7s1 .3.7.7"/><path d="M749 634.7c0 1.2 4.7 2.3 9.8 2.3 3.5 0 3.5 0 2.9 8.7-.4 4.9-.7 13.6-.7 19.5V676h-6.9c-9.5 0-10.2 1.8-.9 2.2l7.3.3-.1 5c-.1 2.7-.2 8.8-.3 13.4l-.1 8.4-25.2-.7c-13.9-.4-42.5-1.1-63.6-1.6l-38.3-.8-11.2-7.4c-6.2-4.1-15.1-10.1-19.9-13.2-4.9-3.2-8.8-6.1-8.8-6.4.1-.4.7-1.8 1.5-3.2.9-1.7 1-2.9.4-3.7-.7-.8-.5-2.2.5-4.2.9-1.6 1.3-3.6 1-4.4s.4-3 1.5-4.8c1.2-1.9 2.1-4.3 2.1-5.3 0-1.1.7-2.8 1.6-3.8 2-2.1.8-4-3.8-6.4-3-1.5-4.8-1.2-4.8 1 0 .7-1 2.2-2.3 3.4-2.4 2.2-2.4 2.2-6.4 0s-4-2.2-7.4-.2c-3.1 1.8-3.4 2.5-3.9 7.7-.4 4.2-.1 6.1.9 7.2 1.3 1.3 1.3 1.9-.2 5-.9 2-1.7 4.1-1.7 4.7s-1.5 2.6-3.4 4.3-3.8 4.5-4.1 6.1c-.4 1.6-1.5 4.5-2.6 6.5-1 2-1.9 5.3-1.9 7.3s-.6 4.5-1.2 5.6c-1.8 2.8-.2 4.9 5.7 8 4 2.1 4.9 2.3 5.3 1 .3-.8 2.4-3.3 4.7-5.5s5-5.4 5.8-7.1c.9-1.8 3-4.6 4.7-6.2 1.6-1.7 3-3.9 3-4.9s.8-2.8 1.8-4c1.7-2.2 1.7-2.2 22.6 11.6l20.9 13.8 30.6.7c16.8.3 45.8.9 64.4 1.3l33.7.6.1-12.9c.1-7.1.2-14 .3-15.4s.3-4 .4-5.9c.2-3.4.2-3.4 12.7-2.8 10.7.6 12.5.4 12.5-.8s-2.1-1.5-12.6-1.5h-12.6l.7-15.9c.5-11 .4-16-.3-16.5-2-1.2-14.2-2-14.2-.9m-149 7.8c0 .3-.2.5-.5.5s-.5-.2-.5-.5.2-.5.5-.5.5.2.5.5m-2 2c1 1.2 1 1.5-.3 1.5-.8 0-2-.7-2.7-1.5-1-1.2-1-1.5.3-1.5.8 0 2 .7 2.7 1.5m-17.7 2.5c.6 2.3.3 2.4-2.4.9-1.1-.5-1.7-1.4-1.4-2 1-1.6 3.2-1 3.8 1.1m4.7-.5c1.4 1.6.6 3.5-1.6 3.5-.8 0-1.4-1-1.4-2.5 0-2.8 1.2-3.2 3-1m11.3.9c2 1.6 2.1 2.3.5 5.9-1.4 2.9-3 3.4-4.5 1.4-1.3-1.6-2.4-7.3-1.6-8.1 1-1 3.7-.6 5.6.8m-17.2 3.3c1.9 1.1 2.9 2.6 2.9 4 0 2.6-.7 2.8-4.4 1.3-2-.7-2.6-1.6-2.6-4 0-3.5.2-3.6 4.1-1.3m9.9 4.7c-.7.7-1-.1-.9-2.5 0-3.2.1-3.3 1-1 .6 1.6.6 2.8-.1 3.5m-2.6-.4c.3 1.8 1.2 3 2.1 3 1.7 0 1.9.9.6 2.8-.7 1.2-1.2 1.2-3 .1-1.5-1-2.1-2.4-2.1-5.1 0-4.5 1.5-5 2.4-.8m-7.7 3.7c-.4.3-1 .3-1.4 0-.3-.4 0-.7.7-.7s1 .3.7.7m3 1c-.4.3-1 .3-1.4 0-.3-.4 0-.7.7-.7s1 .3.7.7m12.6.6c.3.7-.1 2.4-.8 3.7-1.3 2.5-1.3 2.5-2-.2-1-3.8 1.5-6.9 2.8-3.5m-8.3 4c6.7 3.9 8 5.6 6.2 8.5-.7 1-2.3.4-6.8-2.3-3.2-2-6.9-3.8-8.1-4.1-2.6-.7-2.7-.8-1.3-3.5 1.3-2.2 4.3-1.8 10 1.4m-4.2 6.1c6.3 3.2 7.7 4.8 6.2 7.5-1.3 2.5-1.5 2.6-4.8.3-1.5-1-4-2.4-5.7-3.2-5.1-2.4-5.6-2.9-4.2-5.1 1.5-2.5 2.8-2.4 8.5.5m-5.6 6c6.6 2.9 10.2 6 9.4 8.1-.7 1.9-2.5 1.9-4.5.1-.9-.7-4.4-2.8-7.8-4.6-4.2-2.1-6-3.6-5.6-4.6.7-2 2.4-1.8 8.5 1m-2.9 7.6c7.6 3.7 8.1 4.3 6.2 7.9-1.7 3.4-2.7 3.8-4.4 1.7-.7-.8-3.7-2.5-6.7-3.7-3-1.3-5.4-2.5-5.4-2.9 0-1.4 3.3-5 4.6-5 .8 0 3.3.9 5.7 2m-2.9 11.1c6.5 4.1 5.3 4.7-2 .9-7-3.7-7.3-4-4.8-4 1.1 0 4.2 1.4 6.8 3.1m-3.9 3.6c3.3 1.6 4.6 4.5 2.6 5.8-.7.4-4.9-1.5-8.9-4-.6-.4 1.1-3.5 1.9-3.5.4 0 2.4.8 4.4 1.7M793.3 655.1c-3.3 1-3.3 1-3.3 11.8 0 8 .4 11.2 1.4 12 .9.8 13.4 1 44.2.9l42.9-.3.3-11.4c.1-6.3-.2-11.9-.7-12.4-1.2-1.2-80.6-1.8-84.8-.6M876 667v9.9l-19.2.3c-10.6.2-29.1.2-41 0l-21.8-.3V657h82z"/><path d="M802 658.5c-.6 14.8-.5 16.5 1 16.5 1.3 0 1.5-1.3 1.2-7.8-.2-4.2-.8-8.1-1.3-8.7q-.9-.9-.9 0M811.7 658.6c-1.3 1.4-.7 3.6.8 3 1.8-.7 2.1 2.4.3 4.2-.9.9-.7 1.3.5 1.8 1.9.7 2.3 3.9.7 4.9-.6.3-1.3-.1-1.6-.9-.8-2-2.4-2.1-2.4-.2 0 2 2.5 3.7 4.3 3 2-.7 2.6-3.8 1.8-10.4-.4-3.8-1.1-5.6-2.1-5.8-.9-.1-1.9 0-2.3.4M833.2 659.2c-1.4 1.4-1.6 4.8-.3 4.8.5 0 1.1-1 1.4-2.3.3-1.9.4-2 1.1-.4.5 1.1.1 3.5-1.3 6.7-2.7 6.4-2.7 7.2.7 6.8 2.1-.2 2.8-.9 2.9-2.8.1-1.4 0-1.9-.3-1.3-.3.7-1.2 1.3-2 1.3-1.1 0-.9-1 .8-4.5 1.8-3.7 2-4.8 1-7-1.3-2.8-2.2-3.1-4-1.3M842.6 659.6c-.8 2.1-.8 6.9.1 7.7.3.4 1.2.2 1.8-.3 1.6-1.3 2.8 1.4 2 4.1-.7 2-2.5 2.6-2.5.9 0-.6-.4-1-1-1-1.9 0-1 2.9 1.1 3.5 2.5.8 3.5 0 4.4-3.7.5-2.1.1-3.3-1.9-5.3-2.7-2.7-2.7-4.5 0-4.5.8 0 1.4-.7 1.4-1.5 0-2-4.6-2-5.4.1M853.6 660.9c-2 3.8-2 7.4-.1 11.1 2 3.8 4.1 3 5.6-2 1-3.1.9-4.6-.3-7.6-2-4.9-3.3-5.3-5.2-1.5m3.4 5.6c0 5.5-1.3 7.3-2.5 3.5-.8-2.4.4-9 1.6-9 .5 0 .9 2.5.9 5.5M865.7 659.7c-.3.5-1 3.3-1.5 6.3-.6 3-1.4 6.3-1.7 7.2-.4 1.1-.3 1.8.4 1.8.6 0 1.1-1.1 1.1-2.5 0-1.8.5-2.5 2-2.5s2 .7 2 2.5c0 1.6.6 2.5 1.6 2.5s1.4-.6 1-1.8c-.2-.9-1-4.3-1.7-7.5-1.2-5.6-2.3-7.6-3.2-6m1 7.5c-.3.7-.5.2-.5-1.2s.2-1.9.5-1.3c.2.7.2 1.9 0 2.5M820.5 667c-.4.6 1 1 3.4 1 2.3 0 4.1-.5 4.1-1 0-.6-1.5-1-3.4-1s-3.8.4-4.1 1M656.9 662.4c-.5.6-.9 6-.9 12.2v11.2l6.3.6c9.9.8 81.6 1.6 82.1.8.2-.4.6-5.9.7-12.2l.4-11.5-5-.7c-8-1.1-82.5-1.4-83.6-.4m62.4 2.3 22.7.6v19.8l-25.7-.3c-14.2-.1-32.7-.4-41-.6l-15.3-.3V664h18.3c10.1 0 28.6.3 41 .7"/><path d="M678.3 665.7c-.7.3-1.3 1.4-1.3 2.5 0 1.7.3 1.8 1.5.8s1.5-.9 1.5.8c0 1.1-.6 2.2-1.2 2.5-1 .4-1 .7 0 1.8.6.7 1.2 2.4 1.2 3.8-.1 2.5-.1 2.5-1.5.7-1.8-2.3-2.9-1.6-2 1.3.9 2.8 4.3 2.7 5.4-.2s.2-13.5-1.3-14c-.6-.2-1.7-.2-2.3 0M667.9 666.7c0 .5 0 3.6.1 7 .1 3.9-.3 6.3-.9 6.3s-1.1.4-1.1 1c0 .5 1.2 1 2.6 1 2 0 2.5-.4 2-1.6-.3-.9-.6-4.5-.6-8 0-3.6-.4-6.4-1-6.4-.5 0-1 .3-1.1.7M698.3 667.7c-.3 1-.8 2.1-1 2.5s.1.9.7 1.3c.6.3 1.4-.4 1.9-1.7.8-2 1-2.1 1.6-.5.5 1.1-.2 3.7-1.9 7-2.5 5-2.5 5.2-.6 6.1 2.6 1.2 5 .1 5-2.3 0-1.4-.5-1.8-2-1.4-1.9.5-1.9.4.2-3.4 2.6-4.7 1.9-9.3-1.3-9.3-1.1 0-2.2.8-2.6 1.7M708.7 666.6c-1 1.1-.9 8.2.2 8.9.5.3 1.2.1 1.6-.5.9-1.5 2.5-.2 2.5 2s-2.2 3.9-2.8 2.2c-.6-1.9-2.2-1.4-2.2.7s2.2 3.3 4.4 2.5c3.3-1.3 2.5-10.4-.9-10.4-2.4 0-1.7-2.8.8-3.2 1.2-.2 2.1-.8 2-1.3-.3-1.2-4.6-1.9-5.6-.9M720.2 667.2c-1.3 1.3-1.7 4.8-.6 4.8.4 0 1.3-.8 2-1.8 1.2-1.6 1.3-1.5 1.4.6 0 1.2-.9 3.9-2 5.9-2.7 5.1-2.5 6.3.9 6.3s4.6-1.3 3.6-3.8c-.5-1.4-.7-1.4-1.5-.2-1.7 2.7-2.2.2-.6-2.9 3.3-6.2.8-12.9-3.2-8.9M686.5 674c-.3.5 0 1.3.9 1.6 2.1.8 6.1.1 6.1-1.1 0-1.4-6.2-1.9-7-.5M546.5 712.6c-1.7 3.7-1.7 3.7 1.1 6 2.8 2.2 9.4 5.8 12.4 6.7.8.2 2.3-.2 3.2-1 1.5-1.3 2.2-1.1 6.3 1.9 18.2 13 15.2 11.8 30.6 11.9 7.7.1 14.4.2 15.1.3.6.1 1.3-.4 1.5-1 .3-.8-4.7-1.3-15.7-1.8l-16.1-.8-9.4-7c-5.2-3.9-9.5-7.7-9.5-8.5s-.6-2.1-1.4-2.8c-1.9-1.9-13-7.5-14.9-7.5-.8 0-2.2 1.6-3.2 3.6m3.1 1c-.4.9-.9 1.5-1.1 1.2-.3-.3-.3-1.3.1-2.2s.9-1.5 1.1-1.2c.3.3.3 1.3-.1 2.2m3.2.9c-.6 1.3-1.5 2.2-1.9 1.9-.9-.5 1.1-4.4 2.3-4.4.4 0 .3 1.1-.4 2.5m5.2.9c0 .8-.7 1.9-1.5 2.6-1.2 1-1.6.9-2.1-.4-.7-1.8 1.3-4.9 2.7-4 .5.3.9 1.1.9 1.8m3 3.7c-.6 1-1.5 1.9-2 1.9-1.5 0-1.2-3.8.3-4.3 2-.7 2.8.3 1.7 2.4m2.4 1.4c-.4.8-.8 1.5-1 1.5s-.4-.7-.4-1.5.4-1.5 1-1.5c.5 0 .7.7.4 1.5M619.5 723.2c-.3.7-.6 6.2-.8 12.3l-.2 11 42.7.9c23.5.5 43.4.6 44.3.3 1.2-.5 1.5-2.7 1.5-12.2 0-8.4-.3-11.7-1.2-12-.7-.2-20.3-.6-43.6-1-34.6-.5-42.3-.4-42.7.7M704 735v10h-82v-20h82z"/><path d="M629.8 734c-.3 8.4.1 9.6 2.9 8.6 1.2-.5 1.3-.9.4-2-.7-.8-1.1-4-.9-7.7q.3-6.15-.9-6.6c-.8-.3-1.2 2.1-1.5 7.7M639.7 726.7c-1.6 1.5-.7 3.4 1.3 2.8 2.4-.8 2.6.8.4 3-1.5 1.5-1.5 1.7.1 2.9 1.3.9 1.6 1.9 1.1 3.2-.7 1.8-.8 1.8-2.1.1-1.8-2.4-3-.4-1.3 2.3 1.6 2.5 3.4 2.6 4.7.2 1.1-2 .8-12.3-.3-14.1-.8-1.2-2.9-1.5-3.9-.4M661 727.4c-.6.8-1 2.5-.7 3.8.4 2.3.4 2.3 1.2 0 .4-1.2 1.1-2.2 1.6-2.2 1.6 0 1 3.8-1.1 7.2-2.9 4.8-2.6 6.8 1 6.8 2.6 0 3-.4 3-2.6s-.2-2.5-1.5-1.4c-2 1.7-2.1-.9 0-3.6 1.8-2.3 1.9-6.6.3-8.2s-2.3-1.5-3.8.2M671.7 726.6c-.4.4-.7 2.5-.7 4.6 0 3.1.3 3.8 2 3.8 2 0 2.5 1.5 1.4 4.4-.5 1.3-.9 1.4-2 .5-1.8-1.5-2.7-.7-1.8 1.5 1 2.6 4.3 1.9 5.5-1.1 1.3-3.6.4-7-2.2-7.8-2.5-.8-2-2.9 1-3.3 1.2-.2 2-.9 1.8-1.5-.4-1.4-3.9-2.1-5-1.1M681.3 726.7c-1.5.6-1.7 3.9-.3 4.8.6.3 1 .1 1-.4 0-.6.6-1.1 1.4-1.1 1.1 0 1.2.8.5 3.7-1.1 5-1.1 9.6 0 8.8.6-.3 1.3-2.7 1.6-5.3s1.1-5.8 1.6-7.1c1.4-3.3-1.7-5.1-5.8-3.4M648.5 735c.3.5 1.9 1 3.5 1s3.2-.5 3.5-1c.4-.6-1-1-3.5-1s-3.9.4-3.5 1M546.8 730.9c-3 5.3-3.3 6.1-1.9 6.1.5 0 1.6-1.6 2.5-3.5s2.1-3.7 2.6-4c1.2-.7 1.3-3.5.3-3.5-.5 0-2 2.2-3.5 4.9M305.1 735.6c-1.8 1.3-4.8 2.8-6.5 3.3-5.4 1.5-11.5 4.5-11.8 5.8-.2.7-2.8 2.9-5.8 5-3.3 2.3-6.2 5.3-7.3 7.5-1.8 3.6-1.8 3.7 1.7 15.9 3.1 10.6 3.4 12.8 2.5 16.2-.8 3.2-.6 5.1 1.2 11 1.2 4 2.1 9.3 2 11.9-.2 4 .2 4.9 2.3 6.4 1.6 1 3.5 1.4 5 1s2.8 0 3.6.9c2.4 2.9 8.7 1.8 18.1-3 9.3-4.8 10.8-5.3 9.2-3.3-.6.7-2.4 3.8-4 6.8-1.7 3-5.9 10.4-9.3 16.5-12.6 22.2-15.3 26.8-25.4 43.7-1.6 2.8-3.5 4.8-4.5 4.8s-2.6.9-3.7 2.1c-3.2 3.6-5.1 4.1-8.3 2.4-4.1-2.1-5.8-1.9-7.7 1-2.3 3.5-1 6.1 4.7 9.1 2.7 1.5 4.9 3.3 4.9 3.9 0 .7-1.6 2.5-3.6 4-3.6 2.8-3.6 2.8-11.4-1.4-4.4-2.3-9.1-4.1-10.9-4.1-4.1 0-10.6 3.3-12.6 6.4-2 3-1 12.1 1.5 14.6 1 1 2 4.2 2.5 7.5.3 3.1 1.5 8.2 2.6 11.4 1 3.1 1.9 8.3 1.9 11.6 0 5.7.2 6.1 3.5 8.3 1.9 1.2 4.1 3.8 5 5.7 3 7.3 5.4 8.1 15.2 5 9.6-3.1 10-3.1 15.7.1 5.3 3 6.6 4.9 6.6 9.8 0 2.5.6 4 2 4.8 1.1.7 2 1.9 2 2.6s.7 2.4 1.6 3.7c2.5 3.8 6.9 3.3 14.5-1.6 8.9-5.8 12.7-7.9 14.4-7.9 2.4 0 4.3 4 9.1 18.9 6.1 19.3 7.4 20.7 17.9 17.9 3.9-1.1 4.9-1 7.3.5 1.5.9 6.4 3.8 11 6.4 5.6 3.2 8.2 5.2 8.2 6.5 0 2.8 2.8 8.9 4.8 10.4 2.3 1.8 4.2 1.7 8.1-.2 3.5-1.7 6.1-2 10.2-.9 2.9.7 3.1.7 23.4-10 15-7.8 16.1-8.7 26.4-21.5 10.8-13.5 12.2-15 15.6-16.8 3.8-1.9 5.4-4.1 5.5-7.2 0-2.3 1.7-3.4 15.9-10.3 8.8-4.2 16.7-7.7 17.6-7.7.8 0 2.7.7 4 1.6 3.3 2.2 5.7 1.1 5.3-2.2-.3-2.4.3-2.9 6.7-5.4 20.3-7.8 38-20.6 49.1-35.3 12.5-16.6 20.4-43.5 17.5-59.2-2.5-13.5-11.8-26.6-22.9-32.3-7.2-3.6-9.9-4.4-19.2-5.1-7.5-.6-7.5-.6-8.1-4.1-1.2-7.4-6.1-14.5-12.2-17.7-5.3-2.7-10.6-4.2-11.2-3.2-.4.5 0 1.1.7 1.3 10.7 3.1 17.6 8.5 19.6 15.4 1.9 6.2 1.6 7.9-1.5 8.5-3 .6-5.1-.3-16-6.9-7.3-4.5-11.7-5.9-7.6-2.5 1.2 1 6.7 4.4 12.2 7.5 10 5.7 12 7.6 8 7.6-2.5 0-11.9 4-11.9 5 0 2.4-4.1 1.8-10.6-1.7-6.2-3.2-7.5-3.6-9.7-2.6-3 1.4-7.5 7.3-5.5 7.3.8 0 2.2-1.4 3.3-3.2 1.5-2.6 2-2.9 2.4-1.5.4.9.5 3.7.3 6.3-.4 4.5-.4 4.5-4.2 3.9-3.3-.6-4-.3-5.1 1.6-1 2-.8 2.5 1.6 4.5 2.5 2 2.6 2.2 1 3.5-.9.8-2.5 2.2-3.6 3.2s-2.6 1.7-3.4 1.5c-1.1-.2-1.1-1.1.2-4.7 1.1-3.3 1.2-4.6.3-5.1s-.9-.9-.1-1.4c1.3-.9 1.5-2.6.2-2.6-.9 0-4.1 5-5.4 8.2-.3 1-.2 1.8.3 1.8s1.2-.9 1.5-2.1c1.5-4.5 1.3-1-.1 4.6-.9 3.3-1.6 9.7-1.7 14.2 0 4.6-.3 8.3-.7 8.3-.3 0-2.3-1.2-4.3-2.6-2.1-1.4-4.1-2.3-4.5-2-.7.8 2.1 2.9 8.5 6.3 2.9 1.5 5.3 3.3 5.3 3.9 0 2.3-6.2 10.3-9.9 12.7-3.6 2.4-5.3 3-16.3 5.8-2.7.6-4.8 1.6-4.8 2 0 1.2.7 1.2 10.1-1.2 10-2.5 15.3-6.1 19.8-13.4 1.7-2.8 3.1-5.6 3.1-6.2 0-1.1 5.4-2.3 10.8-2.3 1.8 0 5.6 1.2 8.3 2.6 5.1 2.5 5.1 2.5 12.8.9 4.2-.9 8.5-1.9 9.5-2.2 1.7-.5 1.8-.1 1.2 3.8-.4 2.4-2.1 7.3-3.9 10.8-5.9 11.7-13.3 18.3-24.2 21.5-7.4 2.3-23.6 8.1-29 10.5-11.2 5-13.3 5.5-16 3.7-1.4-.9-2.5-2.3-2.5-3.1s-.4-1.5-1-1.5c-1.6 0-1.1 2.5 1 5 1.1 1.3 2 2.5 2 2.6 0 .2-3 1.9-6.7 3.7-14 6.9-21.3 10.9-21.3 11.9 0 .5.3.8.8.6.4-.2 8.2-4 17.2-8.5 9.1-4.5 18.1-8.8 20-9.7 8.8-3.7 19.4-7.6 30-11.1 21-6.8 28.1-11.3 35.6-22.5 4.4-6.6 5.4-9.5 5.4-15.5 0-3 .4-5.5.8-5.5s2.2-2.4 4-5.3c1.8-3 4.4-6.4 5.8-7.6 2.6-2.3 2.6-2.4 2.2-13.9-.3-8.3-.9-12.6-2.1-14.9-1.8-3.3-9.6-10.3-11.6-10.3-.6 0-1.1-.5-1.1-1 0-.6 3.4-1 8.3-1 23.3 0 40.7 14.6 43.9 37 1.1 6.9.9 9.1-1 18.9-3.9 19.7-10.6 32.5-24.2 46.2-12.3 12.4-19 16.8-39.2 25.8-2.6 1.2-5 2.1-5.3 2.1s-.5-3.1-.5-6.8c0-6.1-.3-7.1-2.5-9-1.4-1.3-2.3-2.7-2-3.2.3-.6.1-1-.6-1s-.9 1-.7 2.4c.4 2 0 2.5-2.5 3-2.4.5-2.8 1-2.4 2.7.4 1.6.2 1.9-1.1 1.3-3.2-1.3-7-1.6-8.9-.5-1.5.9-1.3 1 1.5 1.1 1.7 0 3.2.2 3.2.4s-1.3 1.8-3 3.6c-3.6 3.9-4.1 9.1-1.1 11.2 1.8 1.3.8 2-11.6 8.1-13.5 6.8-13.5 6.8-15.3 4.7-1-1.1-5.5-4.3-10.1-7-6.9-4.1-8.6-4.7-10.3-3.8-1.2.6-2.4 1.6-2.8 2.2-1.2 1.8-.9 5.9.7 8.9 1.3 2.5 1.2 2.9-1.1 5.2-2.9 2.9-3.1 6.1-.4 7 2.9.9 2.5 2.2-1.2 4.1-1.8.9-6.5 3.9-10.4 6.5-7.2 4.8-7.2 4.8-7.7 2.1-1.2-5.3-4.3-8.8-11.7-12.6-6.4-3.4-7.1-4-6.6-6.2.7-2.6-.3-3.1-2.1-1.3-.9.9-2 .9-4.3-.1-4.3-1.8-4.5-2.5-1.6-6.2 2.3-3.2 2.4-4.1 2.9-21.5.6-20.1 1.3-22.8 7.2-28.2 4.4-4 6.6-3.9 10.8.3 3.5 3.5 4.6 7.2 4.7 15.1.1 3.4.2 3.7 1.2 2.1 1.5-2.6.4-11.9-1.9-15.9-1-1.8-2.9-3.6-4.1-4.2-4.9-2.2-3.3-3.1 14.6-9.1 7.6-2.5 11.1-4.4 8.1-4.4-.7 0-6.7 1.8-13.3 4.1-9.8 3.3-12.4 3.9-14.3 3-3.5-1.6-3.7-3.5-1-7.8 2.3-3.6 3-4 9.3-5.2 19.3-3.6 29.6-10.4 36.4-24.1 1.3-2.5 2.8-4.8 3.4-5.2 1.6-1 .2-2.2-9.5-7.8-4.6-2.7-9-5.4-9.6-6-1.5-1.3-1.7-10-.3-10 .6 0 1-.5 1-1.1s-.9-.9-2-.6c-1.2.3-2.3-.1-2.8-.9-.7-1.2-1.1-1-2 1.1-1.7 3.8-4.2 3.2-4.2-1 0-1.9-.4-3.5-.8-3.5-.7 0-13.2 20.1-17.8 28.5-2.3 4.3-5.4 9.6-14.4 24.5-5.1 8.5-10.1 16.8-11 18.5-1 1.6-4.1 6.9-6.9 11.7-13.1 22.5-15.1 26-15.1 27.2 0 2.5 1.2 2.4 3.5-.2 1.8-2 2.6-2.4 3.5-1.6.9.9.7 1.7-.9 3.3-2.5 2.5-2.6 3.1-.6 3.1.8 0 2.1-1.4 3-3s1.8-3 2.1-3c.2 0-.2 1.4-1.1 3-1.2 2.3-1.3 3.5-.5 5.1.8 1.4 1.5 1.7 2.3 1.1.7-.6 5.6-3.3 11-6.1 6.3-3.4 9.7-4.7 9.7-3.8 0 1.7-17.4 15.7-19.6 15.7-1.7 0-5.4-2-24.4-13-6.9-4-15.9-9.1-20-11.3-8.8-4.7-9.1-4.9-8.2-6.2 2.8-3.9 31.8-20.1 49.8-27.9 11-4.7 14.4-5.7 14.4-4.2 0 .7-3.1 6.6-7 13-3.8 6.4-7 12-7 12.6 0 .5-.4 1-.8 1-.5 0-1.9 2.1-3.1 4.8-1.9 4-3.2 5.3-8.4 8-7.5 3.9-11.4 6.8-10.5 7.8.4.4 2.5-.4 4.5-1.8 8.5-5.6 10.7-5.7 5.7-.3-1.4 1.5-2.3 3-2 3.2.9.9 3.6-.6 4.3-2.4.4-1 2.3-4.5 4.4-7.8 3.8-6.2 18.7-31.3 22.1-37.5 4.3-7.6 22.2-37.7 23.9-40.2 1.1-1.5 1.9-2.9 1.9-3.2s1.4-2.9 3.1-5.8c7.8-13.1 9-15.8 7.2-15.8-.5 0-1.6 1.8-2.5 4.1l-1.7 4-4.8-2.7c-2.6-1.5-6.4-3.7-8.3-4.9-4.1-2.7-31-18.9-35.8-21.6-6.5-3.8-8.3-5.2-9.8-8-2-4-1.7-11.9.8-18.6l2.1-5.8 1.9 4.5c1.1 2.5 3 5.9 4.4 7.7 1.7 2.3 2.4 4.4 2.4 7.7 0 3.6.6 5.2 2.8 7.7 2.8 3.1 2.8 3.1 7.9.5 2.9-1.4 5.9-2.3 6.7-2 1.5.6 3.6 5.4 3.6 8.4 0 1.9 4 6 5.8 6 .7 0 3.2-1 5.7-2.3 3.2-1.6 4.5-2.8 4.5-4.4 0-1.2 1.4-3.5 3-5.1 2.7-2.8 3-3.7 3-9.5 0-3.6.3-7.2.6-8.1s.1-1.6-.4-1.6c-1.6 0-2.4 3.5-2.4 10.4 0 5.5-.9 8.6-2.7 8.6-.3 0-.6-1.9-.6-4.3 0-2.5-1-6-2.4-8.7-2.3-4.5-2.3-4.5-.2-5.8 2.6-1.8 2.8-3.6.2-2.2-2.8 1.4-2.8 1.4-3.6-2.8-.4-2-1.3-4.5-2.2-5.4-1.3-1.5-1.2-1.8 1.6-3.2 1.6-.9 4.5-1.6 6.3-1.6 3.5 0 9.2 3.8 7.1 4.7-2.5 1-5.8 4.1-5.1 4.8.8.8 7.6-4.4 7.7-5.9.1-.5-1.1-1.9-2.6-3.2-3.6-3-8.8-3.1-14.7-.2-3.9 1.9-4.8 2-7.5.8-3.7-1.5-3.8-2.6-.9-5.7 1.2-1.3 1.8-2.6 1.5-2.9-.4-.4-2.3 1.2-4.3 3.5-2 2.2-4.4 4.1-5.3 4.1-1.9 0-5.5-9-4.2-10.3 1-1 9.4-.5 12.6.7 1.7.7 1.7.5-.4-1.3-3.3-3-6.6-3.6-11.3-2-3.2 1-4.3 1-6 0-10.1-6.3-14.1-7.1-20.2-4.2-7.8 3.8-13.6 15.2-13.6 26.6 0 3.6-.4 6.5-.9 6.5s-1.3 1-1.7 2.2-4.7 9-9.7 17.3c-4.9 8.2-10.1 17-11.5 19.5s-4.3 7.6-6.6 11.5c-2.2 3.8-4.6 8.2-5.3 9.7-.7 1.6-1.7 2.8-2.3 2.8-.5 0-1-.2-1-.4 0-.3 13.4-23.7 23-40.1 11.9-20.3 13-22.4 13-24 0-.8-.4-1.5-1-1.5-.5 0-1 .7-1 1.5s-.6 1.2-1.4.9c-.9-.3-2.7 1.5-5 5.3-2 3.1-3.6 5.3-3.6 4.7 0-.5.6-1.8 1.4-2.9 2.8-4.2 6.7-11.8 6.2-12.3-.9-.8-3.6 1.9-3.6 3.7 0 .9-.4 2.1-.9 2.7-.9.8-11.5 18.9-17.9 30.4-4 7.2-16.2 28.2-18.8 32.2-1.3 2.1-2.4 4-2.4 4.3s-4.7 8.4-10.5 18c-6.4 10.6-10.2 18-9.9 18.9.9 2.2 2.1 2 2.7-.5.3-1.2 1-1.8 1.6-1.4.8.4.8 1.2 0 2.6-1.2 2.4-.1 4.1 1.3 1.9.5-.8 3.9-6.4 7.5-12.4 3.7-6 6.9-10.4 7.1-9.8s-.9 3.1-2.5 5.4c-1.6 2.4-4.8 7.6-7.2 11.6-3.6 5.9-4.1 7.5-3.1 8.7 1.3 1.6 3.5 1 2.4-.6-.3-.5 1.5-1.9 4-3s4.6-2.4 4.6-2.9c0-1.3-.6-1.3-4.1.6-1.7.8-3.3 1.3-3.5 1.1-.3-.2 1.4-3.4 3.7-7.1 3.8-6.1 5.9-7.5 5.9-4 0 .8.5 1.4 1 1.4 1.5 0 1.1 7.3-.5 9.4-.8 1.1-1.5 2.7-1.5 3.7 0 .9-.7 2.2-1.5 2.9-2 1.6-1.9 4.5.1 7.6 2.9 4.3 2 4.1-9.8-2.4-13.8-7.5-19-11.2-16-11.2 2.3 0 7.3-7 20-28.3 7.8-13 14.2-24 14.2-24.3s.8-1.8 1.8-3.2c1.1-1.5 3.3-5.2 4.9-8.2 5.6-10.1 10.9-19.4 14.3-25 1.8-3 4-6.9 5-8.5 7.5-13.2 8.1-14.6 7.5-16.5-.9-2.8-2.7-2.5-1.9.4.3 1.5-.1 3.4-1.1 4.9-1.4 2.2-2.3 2.6-6.6 2.5-3.2-.1-5.5.4-6.5 1.4-1.3 1.3-.9 1.4 4 1 7-.6 7.4 1.1 1 3.8-5.7 2.5-6.1 2.5-6.9 0-.9-3-9.5-11.2-14.4-13.8-2.4-1.2-5.8-2.2-7.7-2.2-3.8 0-3.9-.2-2.3-6.2 1-3.7.9-5.8-1-13.6-2.5-11.1-2.5-10.6-.6-9.8.8.3 2.1-.2 3-1 2-2.1.2-5.8-2.6-5.1-2.4.6-2.5-.5-.1-2.5 2.4-2.1 5-2.9 5.7-1.8.4.6 1.8 1 3.2 1 2 0 2.4.3 1.8 1.7-6.6 15.5-2.1 34 10.5 42.6 4.7 3.3 4.2 1.7-1.2-3.6-7.8-7.5-10.2-13.1-10.1-23.7 0-10.9 2.3-16.6 7.3-18.5 1.9-.7 5.3-2 7.5-2.8 5.9-2.2 31.7-3.2 43.5-1.7 15.2 1.9 34 7.7 42.5 13 2.9 1.8 7.1 4.3 18.8 11 2.8 1.7 5.9 3.5 6.7 4 1.6 1.1 23.5 13.6 31 17.8 5.4 2.9 11.7 6.6 26.7 15.6 6.1 3.6 11.4 6.6 11.7 6.6 2 0-.1-2.3-4.1-4.6-3.9-2.4-4.3-2.9-2.7-3.5 1-.4 4.7-.8 8.1-.8 6.1-.1 8.8-1.3 5.7-2.5-2-.8-12.1.3-15.7 1.6-4.2 1.6-7.3-.4-7.4-4.7-.1-1.9-.9-6-1.9-9.1q-4.5-14.4-23.1-17.4c-3-.5-5.6-1.1-5.7-1.2-2.3-5.7-4.9-8.9-10.4-12.5-3.4-2.3-7.9-4.7-10-5.3-4.7-1.3-16.9-1.3-25 0-5.1.9-6.7.8-9.3-.6-4.5-2.3-19.7-7.2-26.5-8.4-3.3-.7-11.4-1.4-18.1-1.7-12.3-.5-12.3-.5-14.2-4.7-2.5-5.7-4.7-7.3-11.5-8.5-8.3-1.5-10.6-1.3-14.5 1.5m5.9 1.5c.6 1.1 1 3 .7 4.2-.3 1.8-.5 1.6-1.4-1.3-1.1-3.2-1.2-3.3-1.8-1.3-.7 2.3-2.5 3.2-2.5 1.3 0-1.4 2.3-5 3.2-5 .4 0 1.2.9 1.8 2.1m5.3.4c-.6 1.7-2.5 1.5-3.1-.3-.2-.7.5-1.2 1.7-1.2 1.4 0 1.9.5 1.4 1.5m5.6 1.4c-1.6 1.3-2.7 1.6-3.4 1-1.2-1.2 1.1-2.9 3.9-2.9 1.6 0 1.5.2-.5 1.9m7.1 4.2c.7 1.6 1.1 3.1.9 3.3s-3.5.7-7.4 1.1c-7 .7-7 .7-4.7-1.3 1.3-1.2 3-1.8 3.8-1.5 2.4.9 4.6-1.7 3.9-4.6-.5-2.1-.4-2.3.8-1.2.8.6 2 2.5 2.7 4.2m-25-3.2c0 .6-.4 1.3-1 1.6-.5.3-1-.1-1-.9 0-.9.5-1.6 1-1.6.6 0 1 .4 1 .9m-4 3c1.3 2.5 1.3 5.4 0 4.6-.5-.3-1-1.5-1-2.6 0-2.1-1.2-2.4-4.1-.8-1.1.6-2.5.8-3.2.6-1.3-.4 3.9-3.6 6-3.7.7 0 1.7.9 2.3 1.9m17-1.5c0 1.1-1.9 1.5-2.5.6-.3-.5.1-1 .9-1 .9 0 1.6.2 1.6.4m7 0c0 .3-.4.8-1 1.1-.5.3-1 .1-1-.4 0-.6.5-1.1 1-1.1.6 0 1 .2 1 .4m-13.2 2.9c.9 1 .4 1.7-2.1 2.9-5.4 2.7-7 3-6.3 1.2.3-.8.6-2.2.6-2.9 0-.8.7-1.1 1.9-.8 1 .3 2.2 0 2.5-.6.9-1.5 2.1-1.4 3.4.2m-12.9 3.6c1.3 2.3.5 3.1-3.2 3.1s-10.2 3.6-11.5 6.4c-2 4.2-2 5.6 0 13.3 3.5 13.5 3.5 13.3.1 13.3-3.1 0-2.6 1.2-7.9-17.7-1.5-5.3-.9-9 1.9-11.7 2.3-2.3 10.6-6.8 11.6-6.2.5.3 2.2-.1 3.7-.9 3.7-1.9 4.1-1.9 5.3.4m7.4 3.8c-.7.2-1.9.2-2.5 0-.7-.3-.2-.5 1.2-.5s1.9.2 1.3.5m-8 2c-.7.2-1.9.2-2.5 0-.7-.3-.2-.5 1.2-.5s1.9.2 1.3.5m131.1 8.7c3.1 1.5 5.6 3.1 5.6 3.5 0 .3-3.4 2.3-7.6 4.4-7.6 3.7-7.6 3.7-11.8 1.3-9.6-5.4-16.1-9.6-15.9-10.3.4-1.3 7.4-2.1 15.9-1.9 6.5.2 9.2.8 13.8 3m-141.7.3c-.4.3-.7 0-.7-.7s.3-1 .7-.7c.3.4.3 1 0 1.4m153.7 8.5c.9 1.2 1.6 2.7 1.6 3.3 0 1.7-15.5 3.9-18 2.5-3-1.6-2.5-2.3 3.3-5.2 6.6-3.4 11-3.6 13.1-.6m-70.3 4.3c4.9 2.6 5 2.6 3.5 5.3-.8 1.5-1.7 3.5-2 4.4-.3 1.1-1.5 1.8-3 1.8-5.4 0-12.6 13.9-12.6 24.3 0 5.1 1 7.8 4.3 11.4 2.6 2.9.9 2.9-4 .2-4.5-2.5-7.7-6-10.5-11.4-3.2-6-3.1-20 .1-27.3 4.9-10.9 13.5-14 24.2-8.7m86.7 5c8.9 2.7 16.1 12 16.2 20.8 0 3.9 0 3.9-3.7 1.7-3.6-2.1-5.7-3.4-13.5-7.9-1.8-1-5.3-3-7.8-4.4-2.5-1.5-7.5-4.4-11.2-6.4-3.8-2.1-6.8-4.1-6.8-4.6 0-1.4 21.5-.8 26.8.8m-79 1.8c.6.7 1.5 3.5 1.9 6.2.8 4.6 1.2 5.1 6.3 8.2 3.6 2.2 6.3 3.2 7.7 2.8 1.2-.3 2.5-.1 2.8.5 1 1.6 3.5 1.1 3.6-.8.1-.9.5.4.9 3 .5 2.6 1.8 6.1 2.9 7.7 4.1 5.7 4 12.8-.1 14.6-1.4.6-2.4 2-2.5 3.5-.1 1.4.1 1.8.3.8.5-1.6 3.3-3.3 4.2-2.4 1 1.1-.8 3.2-4.3 5-4.5 2.5-6.9 1.4-7.3-3.4-.5-4.5-2.7-7.6-7.7-10.5-4.4-2.7-7.1-3.2-7.7-1.5-.2.7-1.3.6-3-.2-2-.9-2.8-2-2.8-4 0-1.5-.6-3.3-1.3-4-3.2-3.3-5.7-7.9-6.3-11.6-.7-4.8.6-7.2 4-7.2 1.2 0 2.7-.5 3.4-1.2.9-.9 1.5-.9 2.4 0 1.9 1.9 2.8 1.4 2.8-1.3 0-1.4-.7-2.8-1.5-3.1-1.6-.7-2.1-2.4-.6-2.4.5 0 1.3.6 1.9 1.3m-91.8 4.8c0 2.3-2.2 4.9-4 4.9-1.4 0-2-.7-2-2.3 0-1.3.3-2.7.7-3 1-1.1 5.3-.8 5.3.4m105.5 4.1c2.6 1.2 3.5 5.1 1.5 6.3-1.1.7-10-4.4-10-5.7 0-.6 2.2-1.4 4.7-1.7.7 0 2.4.4 3.8 1.1M285.6 798c.6 1.9 1.5 5 1.9 6.7.6 2.8.4 3.3-1.3 3.3-2.5 0-3.5-1.4-5-6.6-1.8-6.2-1.6-7.6 1-7.2 1.6.2 2.6 1.4 3.4 3.8m114.4-1.8c0 .6-.6.5-1.5-.2-.8-.7-1.5-1.4-1.5-1.6s.7-.1 1.5.2c.8.4 1.5 1.1 1.5 1.6M296.4 799c2.3 1.1 5.3 3.1 6.7 4.3 2.5 2.3 7.9 9.6 7.9 10.7 0 .4-1.8 1.7-4.1 2.9-3.6 2-4.4 2.2-6.5 1-1.9-1-2.4-2.1-2.4-5 0-4.2-2.4-5.9-4.9-3.4-1.3 1.2-1.3 2.1-.4 4.5 1.2 3.1.6 3.9-1.5 1.8-.7-.7-1.2-3.2-1.2-5.6s-.4-5.1-.9-6c-.4-.9-1.1-2.9-1.5-4.5-.6-2.4-.4-2.7 2.1-2.7 1.5 0 4.5.9 6.7 2m46.6 14.3c-1.9 2.2-21.3 34.5-31.6 52.4-2 3.6-2.7 3.9-4.2 2-.7-.8.5-3.7 4.1-9.7 11.3-19.1 15.1-25.7 17.5-30 2.4-4.5 5.9-10.1 9.4-15.2 1-1.5 1.8-3.3 1.8-4.1 0-2.8 1.4-2.6 2.7.3.8 2.1.9 3.5.3 4.3m-11-1.6c-1.3 2.1-3.6 6.3-5.3 9.3s-3.8 6.6-4.7 8-3 5-4.7 8-6.2 11.1-10.2 17.9c-3.9 6.8-7.1 12.5-7.1 12.8s-.8 1.7-1.9 3.1c-1 1.5-3.1 4.9-4.6 7.7-1.5 2.7-4.4 7.7-6.5 11-2 3.3-5.2 8.4-7 11.3s-3.4 5.1-3.7 4.8S288.8 883 295 873c1-1.6 5.1-8.7 9.5-16.5 17.3-30.8 28.6-49.7 29.2-49.1.3.3-.5 2.2-1.7 4.3m-44 .2c0 1.1.3 2.7.6 3.6.6 1.3.1 1.6-2.1 1.3-5.2-.6-6.2-6.8-1-6.8 1.8 0 2.5.5 2.5 1.9m8 .7c0 1.4-.4 2.3-1 1.9-.5-.3-1-1.5-1-2.6 0-1 .5-1.9 1-1.9.6 0 1 1.2 1 2.6m59.3 11.8c2.3 1.3 6 2.7 8.3 3.1 2.2.3 5.6 1.6 7.5 2.8s6.3 3.8 9.9 5.8c7.6 4.3 8.6 6.8 4.5 11.7-3.9 4.6-10.7 8.1-25 13-12.9 4.4-13.1 4.5-19.8 3.3-12.4-2.1-14.7-1.1-15.1 6.1-.2 3.9-.5 4.2-4.8 5.9-4.5 1.8-4.5 1.8-7.2-2.2l-2.6-4 7.7-12.7c4.2-7 8.4-14.2 9.5-16 4.6-8.2 5.8-10.3 10.8-18.5l5.3-8.8 3.4 4.1c1.9 2.2 5.3 5.1 7.6 6.4m-30.3-7.6c0 .5-.7 1.7-1.5 2.8-1.4 1.8-1.4 1.7-.4-.9 1.2-2.7 1.9-3.4 1.9-1.9m58.6 1.3c.3.6 0 1.5-.7 2-2.2 1.4-2.9 1.1-2.9-1.1 0-2.1 2.4-2.7 3.6-.9m-86.3 1.6c-.7.2-1.9.2-2.5 0-.7-.3-.2-.5 1.2-.5s1.9.2 1.3.5m80.7 2c0 .7-.4 1.3-.9 1.3s-1.3-.6-1.9-1.3c-.8-1-.6-1.3.9-1.3 1 0 1.9.6 1.9 1.3m-56 .7c0 .3-.5.8-1.2 1.2s-.8.3-.4-.4c.7-1.2 1.6-1.6 1.6-.8m-2.9 4.9c-1 .9-1.1.8-.5-.6.3-1 .9-1.5 1.2-1.2s0 1.1-.7 1.8m-1.1 2.2c0 .3-.2.5-.5.5s-.5-.2-.5-.5.2-.5.5-.5.5.2.5.5m-2 3.9c0 .3-.5.8-1.2 1.2s-.8.3-.4-.4c.7-1.2 1.6-1.6 1.6-.8m-2 3c0 .3-.5.8-1.2 1.2s-.8.3-.4-.4c.7-1.2 1.6-1.6 1.6-.8m-2.9 4.9c-1 .9-1.1.8-.5-.6.3-1 .9-1.5 1.2-1.2s0 1.1-.7 1.8m188 2.9c4.9 2.7 5.9 3.7 5.4 5.3-.3 1.1-1.1 5.3-1.8 9.4-.9 5.7-1.9 8.1-4.2 10.8-3 3.5-3 3.5-6.5 1.6-1.9-1.1-5.2-2.6-7.3-3.4l-3.7-1.5 3.2-2.4c3.2-2.3 3.2-2.3 4.6-.2 1.8 2.7 4.3 2.8 6.7.2 2.2-2.4 1.4-6.5-1.5-7.3-1.8-.5-2-1.3-2-8.1 0-4.2.3-7.6.6-7.6s3.2 1.5 6.5 3.2m35.2.8c3.9 4.6 4.7 7.8 4.7 19.6 0 7.5-.2 8.3-2.8 11-1.5 1.6-4.1 5-5.7 7.6-3.4 5.4-3.5 5.4-12.5 7.3-3.6.8-8.4 1.9-10.8 2.5-5.1 1.2-6.2.8-6.2-2.6 0-1.3-.9-4.1-2-6.1-2.8-5.2-2.5-8.8 1-13.1 1.6-2.1 3.2-5.3 3.5-7.2 1.6-10.1 2.9-14.1 5.4-16.4 4.4-4.2 10.1-6.5 16.3-6.6 5.4 0 5.8.2 9.1 4M306 850.3c-2.2 3.7-4 7.1-4 7.7 0 .5-.5 1-1.1 1-.5 0-.8-.3-.6-.8 4.5-8 9-15.3 9.3-14.9.3.2-1.4 3.4-3.6 7m98-.1c6.6 4 12 7.5 12 8 0 .4-1.3 3-3 5.8-1.6 2.8-3 5.5-3 6 0 .6-.5 1-1 1-.6 0-2 1.2-3.3 2.6-3.3 3.9-8 6.6-20.2 11.4-6 2.4-13.9 5.6-17.4 7.2-7.2 3.3-8.5 3.1-14.4-2.5-1.6-1.5-3.2-2.5-3.6-2.2-.9 1 1.4 3.8 4.4 5.5 1.6.9 3 2 3.2 2.5.1.6-6.1 4.1-13.9 8-7.8 3.8-17.3 8.9-21.2 11.2l-7.1 4.2-.3-4.6c-.5-6.7.3-8.6 4-10.2 1.8-.8 8-3.5 13.8-6.1s11.5-5.1 12.8-5.4c1.2-.4 2.2-1.4 2.2-2.2s-.3-1.3-.7-1.1c-1.6.9-12.4 5.7-12.9 5.7-.2 0-4.2 1.8-8.9 4-9.3 4.4-11 4.8-10.1 2.4.3-.9.6-6 .6-11.3v-9.8l10.8-4.6c13.5-5.8 23.7-9.6 38-14.3 12.9-4.2 20.7-9.1 23.7-14.7 1.1-2 2.3-3.7 2.7-3.7s6.2 3.2 12.8 7.2m83.9 5.3c2.7 1.3 4.7 4.2 3.7 5.2-.4.5-6.3-2.3-8.3-3.9-1.4-1.1-.8-2.8.8-2.8.6 0 2.3.7 3.8 1.5m-65.6 4.2c-1.1 1.5-3.7 5.9-5.8 9.6-2 3.7-3.9 6.6-4.2 6.3-.3-.2.2-1.5 1-2.8.8-1.2 3.4-5.6 5.7-9.6 2.3-4.1 4.4-7.1 4.7-6.8s-.4 1.7-1.4 3.3m1.2 12.8c-8.6 14.4-12.5 19.8-6.2 8.7 7.5-13.4 14.1-24.1 14.5-23.7.3.2-3.5 7-8.3 15m3-12.5c.6.9-4.2 9.8-13.7 25.3-2.6 4.3-4.8 8-4.8 8.1 0 .2-7.7 13.1-17.1 28.7-9.5 15.6-18.1 30.1-19.3 32.1-2.1 3.8-3.6 4.9-3.6 2.6 0-.6 2.3-5 5.1-9.7 2.9-4.7 6-10.1 7-11.9 3.9-6.7 16.5-28.3 24.9-42.7 2.9-5 6.1-10.4 7-12.1 1-1.7 3.5-6 5.7-9.5 2.1-3.5 4.4-7.7 5.2-9.2 1.5-2.8 2.6-3.4 3.6-1.7m-127.3 2.2c-.7.7-1.2.8-1.2.2 0-1.4 1.2-2.6 1.9-1.9.2.3-.1 1.1-.7 1.7m195.5-.5c-.4.3-1 .3-1.4 0-.3-.4 0-.7.7-.7s1 .3.7.7m-83.2 40.8C386.6 943.9 386 945 386 948.7c.1 3 2 6.3 3.9 6.3 2.5 0 .8 1.6-4.2 3.9-2.8 1.4-6.3 3.2-7.7 4.1-1.4 1-3.5 2.1-4.7 2.4-3.3 1-2.9-1 1.3-8 2-3.2 4.4-7.3 5.4-8.9 6.9-11.7 11.7-19.7 14.6-24.2 1.9-2.9 3.4-5.5 3.4-5.7s3.7-6.4 8.1-13.8c4.5-7.3 9-14.7 10-16.5 1-1.7 3-5.1 4.6-7.5 1.5-2.4 3.8-6.3 5.2-8.8 1.3-2.5 3.3-5.9 4.5-7.5 2.1-3 2.1-3 2.4-.5.2 1.9-5.6 12.4-21.3 38.5m-116.3-33.3c-2.5 4.6-5.8 10.2-12.2 20.8-.8 1.4-3 5.2-4.8 8.3-1.9 3.1-3.8 6-4.4 6.3-1.2.8 0-1.5 6.9-13 5.6-9.2 7.7-12.8 11.3-19.2 2.8-5 5.2-8.4 5.7-8.4.2 0-.9 2.4-2.5 5.2m43.6-3.6c1.2.4 2.2 1 2.2 1.4 0 .7-10.3 5-12.1 5-1 0-1.2-5.3-.2-6.3.8-.9 7-.9 10.1-.1m104.4 8.1c4.4 2.6 8.3 5.3 8.6 6.1 1.5 4-9.6 18.5-17.3 22.5-3.3 1.7-20.9 6.7-23.6 6.7-.9 0 1.6-4.4 13.3-23.8 4.2-7 8-13.5 8.3-14.5 1-2.5 1.9-2.2 10.7 3m38.5-4.1c1.3.4 2.6 1.9 3.2 3.7.6 1.7 1.9 3.9 2.7 4.9 2.1 2.3 3.6 9.8 2 10.3-.6.2-4.3.6-8.3.8-7.2.5-7.2.5-7.8-2.5-.4-1.7-.4-6.4 0-10.4.6-7.2.8-7.4 3.3-7.4 1.5 0 3.7.3 4.9.6m-171.5 2.9c1.5 1.4 3.1 3.7 3.4 5.1.4 1.4.2 11.6-.3 22.6-.9 20.1-.9 20.1-3.9 22.4-5.9 4.8-6 4.4-4.5-21.1.8-13.1-.2-19.5-2.8-19.5-1.5 0-1.4.7.4 3.4 1.3 1.9 1.4 3.8.5 11.7-.5 5.2-1 14-1 19.6 0 10.1 0 10.1-3.1 12.7-4.4 3.7-5.6 3.3-7.9-2.4-.8-1.9-2-4.1-2.7-4.8-1.6-1.6-1.7-3.2-.3-3.2 1.5 0 6-10.8 6-14.4 0-1.7-.7-4.2-1.6-5.4-1.3-1.9-1.4-3.1-.4-7.8.7-3.1.9-5.8.6-6.1-.8-.8 4-9.1 7.2-12.6 3.2-3.4 6.9-3.5 10.4-.2m180.8.5c2.6 1.3 4 2.7 4 3.9 0 1.1.3 2.6.6 3.5.9 2.4-1.1 1.9-4.3-1.2-3.7-3.4-6.5-8.2-4.8-8.2.3 0 2.4.9 4.5 2m-81.7 8.7c-1.4 2.7-6 10.4-10.1 17.3s-8.6 14.5-10 17-4.6 8.1-7.2 12.5-7.6 12.8-11 18.7c-3.5 6-6.4 10.8-6.6 10.8-1.1 0 .3-2.7 7.6-14.9 4.4-7.4 8-13.6 8-13.8s1.1-2 2.4-4.1c3.9-6.2 21.6-36.2 21.6-36.7 0-.8 7-11.5 7.5-11.5.3 0-.7 2.1-2.2 4.7m-5.3-2.3c0 .3-2.2 4-4.9 8.4s-5 8.3-5.2 8.8-2 3.6-3.9 6.9c-2.3 4-3.6 5.4-3.8 4.2-.4-2.1-2.2-2.3-2.2-.2 0 .9-1 1.9-2.2 2.4-1.3.5-6.6 2.6-11.8 4.6-12.5 4.8-31.3 14.7-43.1 22.5-5.2 3.5-9.9 6.3-10.6 6.3-1.4 0-18.3-9.6-18.3-10.4s8.6-6.4 22-14.3c14.5-8.7 43.5-22.7 63-30.6 9.6-3.9 17.9-7.5 18.4-8 1-1 2.6-1.4 2.6-.6m91.3 4.7c2.8 1.5 3.7 2.8 3.7 5.6s-.3 2.8-4.1.6c-2.1-1.3-2.9-2.5-2.9-4.5 0-3.1.2-3.3 3.3-1.7m-82.8 6.9c-.9 1.6-1.8 3-2.1 3-.2 0 .2-1.4 1.1-3 .9-1.7 1.8-3 2.1-3 .2 0-.2 1.3-1.1 3m-137.5-.3c-.1 2.1-3 4.5-4.7 3.9-1.7-.7-1.6-.9.6-2.7 2.4-2 4.1-2.5 4.1-1.2m-9.6 2.9c5.7 3.2 6 3.7 3.8 6.5-1.9 2.2-1.9 2.2-5.3.3-5.5-3.1-7.2-5-6.4-7.3.8-2.7 2.3-2.6 7.9.5m260.6 2.5c0 4.7-3.4 11.7-8.5 17.6-5.3 6.2-6.2 5.3-1.6-1.5 2.3-3.4 4.9-9.1 6.2-13.5 2.3-8.1 3.9-9.2 3.9-2.6m-116-.7c0 .3-.5.8-1.2 1.2s-.8.3-.4-.4c.7-1.2 1.6-1.6 1.6-.8m-3.5 5.6c-.9 1.6-1.8 3-2.1 3-.2 0 .2-1.4 1.1-3 .9-1.7 1.8-3 2.1-3 .2 0-.2 1.3-1.1 3m-158.2 7c2.6 1.6 4.9 3 5.1 3 .4 0 16 8.7 28.6 16 7.8 4.5 43.4 24.6 50.5 28.5 2.8 1.5 9.3 5.3 14.5 8.3s12.4 7.2 16 9.2c6.9 3.9 8.3 4.7 22.5 13 5 2.9 13 7.6 17.9 10.4s9.5 6.1 10.3 7.3 1.7 5 2 8.3c.5 5.2.3 6.3-1.3 7.5-3.6 2.7-4.4 1.9-4.4-4.4 0-6.6-1.7-9-9.4-13.4-15.7-9.1-57-33-61.4-35.5-2.9-1.8-5.7-3.2-6.2-3.2-.4 0-1-.3-1.2-.8-.1-.4-5.5-3.6-11.8-7.1-6.3-3.6-13.1-7.3-15-8.4s-10.5-5.9-19-10.7-20.7-11.6-27-15.2-14.2-8-17.5-9.8c-3.3-1.9-6.2-3.5-6.4-3.6-.1-.2 0-.7.4-1.3 1.3-2.2 8-1.2 12.8 1.9m-9.3 4c2.8 1.6 5.3 3 5.5 3s3 1.5 6.2 3.4c5 2.9 19.7 11.2 33.8 19.1 16 8.9 28.5 16 35.5 20 3.6 2.1 9.4 5.5 13 7.5 6.4 3.6 19.1 11 46 26.5 7.4 4.4 16.3 9.4 19.7 11.2 8 4.4 9.3 6.3 9.3 13.6 0 4.9-.3 5.8-1.5 5.3-1.1-.4-2.1.6-3.2 3.2-1 2-3.2 5.6-5 7.9s-3.6 5.5-3.9 7.2c-.7 3.5-.7 3.5-3.3 1.9-1.5-.9-2.9-.7-7.1 1-2.9 1.2-5.9 2.2-6.6 2.2-1.9 0-5-5.4-5.8-9.9-.5-3.3-1.2-4.1-5.8-6.6-2.9-1.5-7.9-4.4-11-6.3-5.9-3.6-5.5-3.5-16.4-1.7-3.9.7-4.1.6-5.7-2.6-1.7-3.7-3.1-7.9-7.2-21.1-3-10-5.6-13.8-9.1-13.8-1.4 0-6.7 2.7-12 6-5.2 3.3-10.5 6-11.8 6-2.6 0-4.6-1.7-4.6-4 0-.9-.9-2.5-2-3.5s-2-3.1-2-4.7c0-5.4-2.1-8-9.6-12-5-2.7-5-2.7-12.4-.2-10.7 3.6-12.8 3.1-16.3-3.4-1.6-2.9-4-5.8-5.3-6.4-2.1-1-2.4-1.8-2.4-6.9 0-3.4-.8-7.5-1.9-10.2-1.1-2.5-2.3-7.7-2.7-11.6-.5-5.1-1.3-8-3-10.3-2.3-3.1-3.1-7.9-1.8-11.2.9-2.4 4.8-1.9 10.4 1.4m166 12c1.7 1.1.9 2-3.2 3.8-3.2 1.3-3.2 1.3-1.8-2.2 1-2.7 2.5-3.2 5-1.6m-8.2 10.2c-3.1 4.3-4.8 9.4-4.8 14.6 0 2.3-.4 4.2-.8 4.2-1.6 0-3.2-2.4-3.2-4.8 0-3.1 8-17.1 9.8-17.2.8 0 .5 1.1-1 3.2M379 946.5c0 .3-.2.5-.5.5s-.5-.2-.5-.5.2-.5.5-.5.5.2.5.5m126.8 6.2c-.2.9-.8 1.8-1.5 2-.7.3-.9-.3-.6-1.6.6-2.5 2.6-2.8 2.1-.4m-5.1 0c-.4.3-1 .3-1.4 0-.3-.4 0-.7.7-.7s1 .3.7.7m5.3 8.8c0 4.8-.2 5.5-2 5.5-1.4 0-2-.7-2-2.4 0-3.7-1-5.6-3-5.6-4.2 0-2.7-1.9 1.7-2.3 2.7-.2 4.9-.4 5.1-.5.1-.1.2 2.3.2 5.3m-134-3c0 .3-.2.5-.5.5s-.5-.2-.5-.5.2-.5.5-.5.5.2.5.5m121.5 5.1c-1.3 1.9-2.5 4-2.7 4.6-.7 2.1-2.8-.3-2.8-3.2 0-3.5 4.5-7.6 6.6-5.9 1 .8.8 1.7-1.1 4.5m6.5-.1c0 .8-.6 1.5-1.4 1.5-2 0-2.9-1.7-1.4-2.3 2.2-.9 2.8-.7 2.8.8m-108 7.4c0 6.3-.3 7.2-3 10.1-3 3.2-3 3.2-6.2 1-1.8-1.2-4.1-2.4-5-2.7-3.3-1-1.7-3.8 5.5-9.5 4-3.2 7.5-5.7 8-5.8.4 0 .7 3.1.7 6.9m108.7-2.8c1.9 1.2 3.2 2.4 2.9 2.7-.7.7-7.6-3-7.6-4 0-1.2 1-1 4.7 1.3m-7 1.1c-.3.8-.6.5-.6-.6-.1-1.1.2-1.7.5-1.3.3.3.4 1.2.1 1.9m-44.2 8.4c7.3 4.3 7 4.1 5.7 5.7-.6.7-1.4 3.2-1.8 5.5-.4 2.6-1.5 4.8-2.7 5.7-1.8 1.3-2.6 1.2-6.9-1.2-2.6-1.4-4.8-2.9-4.8-3.4 0-2 3.7-1.7 7.6.6 5.8 3.4 5.7 1.2 0-2.3-4.9-3-7.6-6.7-7.6-10.4 0-5 2.6-5 10.5-.2m7.5 8.9c-.7.8-.9 2.3-.5 3.2.6 1.6.8 1.6 2.6-.6 1.9-2.3 1.9-2.3 1.9.6 0 2.5-.8 3.3-6.1 6.2-6.6 3.5-9.5 3.6-3.5 0 2.8-1.7 3.6-2.7 3.6-5.1 0-3.1 1.8-7.3 2.7-6.4.3.3 0 1.2-.7 2.1m-15 7.7c5.3 3.1 5.3 5.3 0 2.5-2.2-1.2-4.2-2.8-4.5-3.5-.6-1.7 0-1.5 4.5 1m2.6 5.7c.5.5 1.9 1.1 3.2 1.3 2.3.3 2.3.4.5 2.3-1 1.1-4.7 5.6-8.2 10-8.5 10.6-9.5 11.4-24.6 19.1-7.1 3.7-13.9 7.3-15 8-2.9 2.1-4.5 1.7-4.5-1 0-1.8 1.2-3.3 4.2-5.3 2.3-1.6 5.3-4.4 6.6-6.3 1.2-1.9 4.2-4.4 6.5-5.5 3.6-1.9 4.2-2.6 4.5-5.8.3-3.5.9-4 11.4-10.7 11-6.9 13.5-7.9 15.4-6.1m-38.6 26.2c-.7 1.1-1.4 1.8-1.7 1.5s0-1.2.7-2.1c1.8-2.1 2.3-1.9 1 .6"/><path d="M370.5 795.1c-1.7 5.4 4.4 15.9 9.2 15.9 5.9 0 5.9-9.3 0-15.8-2.7-3-8.3-3.1-9.2-.1m9 3.3c1.9 2.5 2.5 4.4 2.3 6.7-.4 4.5-2 4.6-6.2.4-2.7-2.7-3.6-4.4-3.6-7 0-3 .3-3.5 2.4-3.5 1.7 0 3.4 1.2 5.1 3.4M389.2 805.2c-4.7 4.7 3.7 18 10.3 16.4 2.2-.6 2.5-1.2 2.5-4.8 0-8-8.6-15.8-12.8-11.6m7.8 3.8c4.8 5.1 4.4 12.2-.6 10.6-2.6-.8-6.4-6.7-6.4-9.7 0-4.9 2.9-5.3 7-.9M395 827.9c0 1 .7 2.4 1.5 3.1 1.2 1 1.6.9 2.1-.4.6-1.6-1.1-4.6-2.7-4.6-.5 0-.9.8-.9 1.9M521.7 865.5c-3.7 1.9-5.1 3.4-7.6 8.3-3.7 7.2-2.1 13.2 3.4 13.2 5.9 0 13.4-9.1 13.5-16.3 0-2.8-3-6.7-5.2-6.7-.7 0-2.5.7-4.1 1.5m5.3 4.5c0 4-2.2 8.1-6 11.4-4.5 3.7-7 3.5-7-.7 0-5.8 6.1-13.6 10.8-13.7 1.8 0 2.2.5 2.2 3M230.3 912.6c-.7 1.8 1.4 6.1 3.4 6.9 3.4 1.2 4.4-2.5 1.7-6.3-1.8-2.6-4.2-2.9-5.1-.6m4.1 2c.4.9.4 1.9.2 2.1-.8.8-2.6-.8-2.6-2.3 0-1.9 1.6-1.8 2.4.2M250.6 929.1c-1.1 1.6-2.1 2-4.3 1.5-6.8-1.5-9 6.2-3.8 13 3.4 4.4 13.5 11.1 18.2 12 2.5.5 3.9.2 5.3-1.1 3.5-3.2 2.1-8.2-4.2-15.2-2.1-2.4-3.8-5.3-3.8-6.6 0-2.4-2.7-5.7-4.8-5.7-.6 0-1.7.9-2.6 2.1m5.9 5.1c.5 2 2.4 5.1 4.1 6.7 5.4 5.3 6.8 11.3 2.9 12.7-2.3.9-13.6-5-17.6-9.3-6.4-6.8-6.1-11.3.7-11.3 3.1 0 4.6-.5 5.1-1.5 1-2.7 3.7-1.2 4.8 2.7M275.3 938.7c-.9 2.3 1.9 6.7 4.5 7.1 1.8.3 2.2-.1 2.2-2.6 0-4.7-5.3-8.3-6.7-4.5m4.5 3.3c.3 2.1.2 2.2-1.2 1.1-1.9-1.6-2.1-4.4-.3-3.9.6.3 1.4 1.5 1.5 2.8M295.2 952.2c-.7.7-1.2 1.8-1.2 2.5 0 .9-.9 1.1-3 .6-2.2-.4-3.6 0-5 1.2-5.2 4.7.6 15.3 11.2 20.4 7 3.5 9.9 3.8 12.2 1.5 3.4-3.4.5-12.1-5.7-17.3-.9-.7-1.7-2.6-1.7-4.2 0-1.7-.8-3.4-2.2-4.3-2.7-1.9-3.1-1.9-4.6-.4m4.6 5.3c.3 1.9 1.9 4.4 4.3 6.8 4.2 4.2 6 9.7 3.9 12.2-1.7 2-2.2 1.9-9.4-1.4-9-4.1-14.6-11.7-11.9-16 1-1.6 2.7-1.8 6.8-1 1.5.3 2.1-.2 2.3-1.9.5-3.4 3.6-2.4 4 1.3M272.4 954.5c-.8 2 1.3 6.2 3.4 7 .9.3 2.2-.1 3.1-1 1.3-1.3 1.3-1.8-.6-4.2-2.4-3.3-5.1-4.1-5.9-1.8m4.4 2.6c1.2 1.8 1.1 2-.5 1.7-1-.2-1.9-1.1-2.1-2.1-.5-2.3 1-2.1 2.6.4M319.3 963.7c-.9 2.3 1.9 6.7 4.5 7.1 3.1.5 3.4-3.8.5-7.1-2-2.2-4.2-2.2-5 0m4.7 3.3c0 1.1-.4 2-1 2-.5 0-1-.2-1-.4s-.3-1.1-.6-2c-.4-1.1-.1-1.6 1-1.6.9 0 1.6.8 1.6 2M247.3 964.7c-.9 2.3 1.9 6.8 4.2 6.8 2.6 0 3.1-3 1.1-6-1.9-2.9-4.4-3.2-5.3-.8m4.7 3.9c0 1.9-1.6 1.8-2.4-.2-1.1-2.7-.7-3.7.9-2.4.8.7 1.5 1.9 1.5 2.6M342.9 981.2c-1.2 1.7-1.9 1.9-3.4 1-3.5-1.9-7.5 1.3-7.5 6.1 0 7.1 8.9 15.5 18.5 17.3 8.2 1.5 10.3-5.8 4-14-1.9-2.6-3.5-5.4-3.5-6.4 0-2.6-2.8-6.2-4.8-6.2-.9.1-2.4 1-3.3 2.2m4.9 1c.7.7 1.2 2.4 1.2 3.8 0 1.5.9 3.5 2.1 4.6 4.8 4.3 6.5 11.8 3 12.9-2.3.7-9.5-2-13.9-5.2-3.7-2.7-6.2-7.1-6.2-10.6 0-3 2.1-4 6.5-3.1 2.8.5 3.4.2 4-1.5.7-2.4 1.6-2.6 3.3-.9M288.7 986.2c-.6 1.7 1.8 6.4 3.5 7 3.7 1.4 5-2.1 2.2-6-1.6-2.4-5-3-5.7-1m5.1 4.4c-1 1-2.8-.6-2.8-2.4 0-1.5.1-1.5 1.7.1.9.9 1.4 1.9 1.1 2.3M364.4 988.5c-1 2.4.4 6.3 2.6 7.5 4.2 2.2 5.4-1.9 1.9-6.4-2.3-2.9-3.7-3.3-4.5-1.1m3.6 1.9c0 .2.3 1.1.6 2 .9 2.3-1.3 2-2.6-.4-.9-1.6-.8-2 .5-2 .8 0 1.5.2 1.5.4M381.8 1000.4c-1 .7-1.8 1.8-1.8 2.5 0 .6-1.3 1.1-2.9 1.1-9.5 0-7.4 12.5 3.2 19.1 2 1.3 3.7 2.6 3.7 3 0 .9 4.8 2.9 6.9 2.9 2.5 0 5.1-3.2 5.1-6.4s-2.3-8.2-5.5-11.6c-1.3-1.4-2.5-4-2.7-5.9-.4-4.3-3.4-6.6-6-4.7m4 5.6c.2 2.1 1.4 4.7 3.1 6.5 5.2 5.5 6.6 11 3.6 13.5-1.9 1.6-5.6.2-10.5-4-1.9-1.7-3.8-3-4.2-3-1.5 0-4.9-7.1-4.6-9.7.3-2.5.7-2.8 3.8-2.8 2.7 0 3.7-.5 4.5-2.3 1.5-3.3 3.9-2.3 4.3 1.8M401 1008.9c0 1 .9 2.9 2 4.2 1.6 2 2.1 2.1 2.9 1 1.5-2.3-.9-7.1-3.5-7.1-.8 0-1.4.9-1.4 1.9m2.7 1.8c-.4.3-.7 0-.7-.7s.3-1 .7-.7c.3.4.3 1 0 1.4M332.3 1011.7c-.9 2.3 1.9 6.7 4.5 7.1 3.1.5 3.4-3.8.5-7.1-2-2.2-4.2-2.2-5 0m4.6 3.9c.3 1.6.1 1.7-1.3.5-1.9-1.6-2.1-3.4-.3-2.9.6.3 1.4 1.3 1.6 2.4M374 1035.5c-1.4 1.7-.6 4.6 2 7 3.9 3.5 5.7-2.3 2-6.3-2.5-2.6-2.4-2.6-4-.7m3.8 4.6c.2 2.3.2 2.3-1.3.5-1.8-2.4-2-3.9-.2-3.4.6.3 1.3 1.5 1.5 2.9M541.2 740.2c-.5.7-2 3.3-3.2 5.8-1.3 2.5-3.1 5.6-4.1 6.9-1.1 1.3-1.9 3-1.9 3.9 0 2.3 2.5-.2 4.1-4.1.7-1.8 1.5-3.4 1.9-3.7.8-.8 6-8.9 6-9.5 0-1-1.8-.5-2.8.7M528.2 762.7c-2.4 3.3-2.8 5.3-1.2 5.3.6 0 1-.5 1-1.2 0-.6.7-1.9 1.6-2.9s1.4-2.3 1.2-3-1.3 0-2.6 1.8M521.6 773.9c-3 5.5-3.3 6.9-1.1 5.1.8-.7 1.5-1.9 1.5-2.6 0-.8.3-1.4.8-1.4 1.1 0 3.1-4.9 2.2-5.5-.4-.2-1.9 1.7-3.4 4.4M514.7 786c-1.6 2.3-2.7 4.6-2.5 5.2s1.6-.8 3.1-3.2c1.6-2.3 2.7-4.6 2.5-5.2s-1.6.8-3.1 3.2M509.4 795.2c-1.5 2.1-4.4 7.6-4.4 8.3 0 1.5 2.2-1 4.1-4.7 2-3.8 2.2-6.2.3-3.6M500.7 809.7c-2.7 4.4-3 6.2-.8 4.9 1.4-.9 4.4-7.3 3.9-8.5-.1-.5-1.6 1.1-3.1 3.6M428 813.4c-3.7 1.9-7.2 4.6-8.2 6.3-1 1.6-2.9 3-4.5 3.3-2.2.4-2.9 1.1-3.1 3.5-.5 5 5.9 10.1 7.4 6 .7-1.8 3.5-2 5.2-.3.6.6 1.5.9 1.9.5.3-.4-.1-1.3-1.1-2-1.6-1.2-1.5-1.4.7-3.5 2.5-2.3 2.5-2.3 3.1 2.2.8 5.2 2.6 7.2 2.6 2.9 0-3.1 1.6-8 4.2-13 .9-1.8 1.3-3.5.8-3.8-.4-.2-1.8 2-3.1 5-2.6 5.8-3.9 6.9-3.9 3.2 0-1.3-.9-3.2-2-4.2s-2-2.1-2-2.5c0-.6 5.1-3.1 9.3-4.4 1-.3 1.5-1 1.2-1.6-.9-1.5-1.4-1.3-8.5 2.4m-1.2 6.8c.7.7 1.2 1.9 1.2 2.7-.1 1.3-.3 1.2-1.1-.2-.6-1-2-2.2-3.2-2.7-2.1-.8-2.1-.9-.1-.9 1.1-.1 2.5.4 3.2 1.1m-2.4 2.4c2.7 1 1.8 3.4-1.8 4.9-1.9.8-3.7 2-4 2.7-.5 1.1-.7 1.1-1.2 0-.3-.7-1.3-1.9-2.1-2.8-.8-.8-1.3-1.8-.9-2.1.3-.4 1.2-.1 1.8.5 1.7 1.7 3.1 1.5 2.4-.3-.3-.8.2-1.9 1.2-2.4 2-1.2 2.6-1.3 4.6-.5m-9.4 6.9c0 .3-.2.5-.5.5s-.5-.2-.5-.5.2-.5.5-.5.5.2.5.5M493.8 822c-3.4 6.1-1.9 6.7 1.7.7 2.6-4.6 3-5.7 1.8-5.7-.5 0-2 2.3-3.5 5M488.6 831.4c-.9 1.4-2.3 3.7-3.1 5-.8 1.4-1.1 2.7-.6 3 .9.6 6.6-9.2 5.8-10.1-.3-.2-1.3.7-2.1 2.1M456.5 831.9c-3.8 2.3-8.5 7.6-8.5 9.5 0 .8 2.1 2.9 4.7 4.7 4.4 3.1 4.7 3.1 6 1.4 1.8-2.5 1.7-3.1-.9-4.9-1.7-1.2-1.9-1.8-.9-3 .8-1 .9-1.6.1-2.1-.5-.3-1-1.2-1-1.8 0-.7.7-.3 1.6.8.8 1.1 1.2 2.6.9 3.3-.3.8.5 2.2 1.7 3.2 2.5 2 4.6 1.6 2.8-.5-.7-.9-.5-2.5 1-6 2.4-5.6 2.4-5.5.6-5.5-.8 0-1.7 1.5-2 3.5-.8 4-1.6 4.4-3.4 1.4-1.1-1.7-1-2.3 1-3.9 3.1-2.6.4-2.7-3.7-.1m-2 7.1c-.3.5-1.1 1-1.6 1-.6 0-.7-.5-.4-1 .3-.6 1.1-1 1.6-1 .6 0 .7.4.4 1m-.1 3.6c.9.3 1.6 1 1.6 1.5 0 1.4-2.6 1-4-.6-1.3-1.6-.3-2 2.4-.9M480.6 845.3c-2.7 4.6-3.1 5.7-1.8 5.7 1 0 5.6-8.9 4.9-9.6-.3-.3-1.7 1.4-3.1 3.9M470.3 846.6c-.3.9.3 2.5 1.6 3.7 1.8 1.9 2.1 1.9 2.1.4 0-.9-.4-1.7-1-1.7-.5 0-1-.5-1-1 0-.6 1.4-1 3.1-1s2.8-.4 2.4-1c-1-1.6-6.5-1.2-7.2.6M469.2 865.2c-.6.6-1.2 1.7-1.2 2.2 0 .6-.9 2.2-2 3.6-2.1 2.7-2.5 4-1.1 4 1.2 0 6.3-8.8 5.9-10.1-.2-.6-.8-.5-1.6.3M458.7 883.5c-3.8 6.7-4.4 8-2.7 7 .9-.6 8-12.1 8-13.1 0-1.8-2.2.6-5.3 6.1M450.4 897.5c-1.4 2.5-2.4 4.9-2 5.2.7.8.6.9 4-5 1.5-2.6 2.2-4.7 1.7-4.7-.6 0-2.2 2-3.7 4.5M444.5 907.5c-.8 1.4-2.2 3.7-3.1 5.1-.8 1.4-1.3 2.8-1 3.2.8.7.9.6 4.5-5.6 1.7-2.8 2.6-5.2 2.1-5.2s-1.6 1.1-2.5 2.5M436.2 921.8c-3.2 5.2-4.1 7.9-2.3 6.7 1.5-.8 6.2-9.7 5.8-10.8-.2-.6-1.8 1.3-3.5 4.1M429.5 932.9c-2.9 5.7-5.3 9.8-8.1 14-1.4 2.2-2.4 4.6-2.2 5.2.3 1 6.8-8.1 6.8-9.5 0-.3 1.4-2.7 3.1-5.5 1.7-2.7 2.9-5.6 2.7-6.3-.3-.8-1.2.1-2.3 2.1M400 935.9c0 .5.8 1.6 1.8 2.3 1.1.7 2.6 2.6 3.4 4.2 1 2 1.7 2.5 2.3 1.7.4-.8-.5-2.7-2.2-4.9-3-3.7-5.3-5.1-5.3-3.3M437.5 940.6c-6.4 1.4-10.5 2.8-10.5 3.6 0 .6 1 .8 2.3.5 1.2-.3 3.6-.9 5.2-1.2 1.7-.3 4-.8 5.3-1.1 1.2-.2 2.2-.9 2.2-1.4 0-1-1-1.1-4.5-.4M488.3 941.7c.4.3 1 .3 1.4 0 .3-.4 0-.7-.7-.7s-1 .3-.7.7M494.8 948.1c-2.1 1.1-3.8 2.4-3.8 2.9 0 .6 1.8.1 4-1s4-2.5 4-3c0-1.2.2-1.3-4.2 1.1M406 956.9c0 5-.4 9.2-.9 9.5-2 1.3-1.8 4.6.5 7.3s2.3 2.7 5.9 1c2-.9 3.8-1.7 4-1.7.3 0 .5 1.8.5 3.9 0 2.3.8 4.8 1.9 6.2 2.4 2.9 3.9 1.9 1.8-1.2-1-1.4-1.4-3.3-1-5 .3-1.6.1-4.8-.5-7.1-.7-2.6-.8-6.5-.3-10.1.4-3.1.4-5.7 0-5.7-1.4 0-5.2 8.2-4.1 8.9.5.3 1.3 2 1.6 3.8.7 2.8.4 3.3-2.3 4.7-4.5 2.4-5.5 1.9-3.2-1.3 2.2-3 2.7-5.1 1.3-5.1-.5 0-1.7 1.7-2.7 3.7-1.7 3.5-1.9 3.6-2.3 1.5-.2-1.3.2-2.9 1-3.5 1.5-1.4 1.3-18.7-.3-18.7-.5 0-.9 4-.9 8.9M402 980.2c-1.8 3-2.6 5.8-1.6 5.8.2 0 1.5-1.7 2.7-3.8l2.4-3.7.5 6c.4 4.9.8 6 2.5 6.4 1.6.3 1.7.1.7-1.1-.6-.8-1.3-3.4-1.5-5.9-.5-7.6-2.5-8.9-5.7-3.7"/></svg>