<svg xmlns="http://www.w3.org/2000/svg" viewBox="0 0 871.328 1224.584" fill="currentColor"><path d="M108.45 221.093c-5.277 2.94-9.857 5.576-10.254 5.979-.398.303.621 2.795 2.142 5.484 7.5 13.043 13.779 23.195 14.683 23.788 1.607.887 3.888-1.63 3.868-4.23-.024-3.1 1.177-3.01 6.303.351 2.311 1.483 7.636 4.742 11.755 7.11 4.119 2.469 7.736 4.741 8.039 5.039.303.398 1.707.987 3.21 1.375 1.904.486 3.2.076 4.59-1.335 1.588-1.612 1.875-3.215 1.726-9.714-.16-7.799-.16-7.799-7.194-12.145-3.818-2.37-7.937-4.739-9.04-5.23-1.104-.492-5.624-3.057-10.045-5.823-8.038-4.839-8.038-4.839-7.78-10.441.168-4.101-.044-5.6-1.043-5.492-.7.005-5.681 2.443-10.96 5.284m7.223 2.945c.04 5.2.342 5.397 12.396 12.505 4.922 2.762 11.854 6.91 15.371 9.182 6.432 4.05 6.432 4.05 5.886 11.155-.27 3.902-.744 7.306-.942 7.508-.099.2-2.005-.685-4.115-1.969-3.819-2.37-3.819-2.37-1.121-2.691 3.697-.429 4.981-2.439 4.25-6.433-.417-2.297-1.73-3.987-4.242-5.568-1.91-1.285-3.617-2.172-3.815-1.97-.795.706-.712 11.505.097 12.7.912 1.592-1.296.51-9.033-4.332-5.628-3.556-14.365-8.39-15.065-8.384-.3.002-.49 1.304-.477 3.004.037 4.9-1.169 4.109-6.135-4.553-1.015-1.893-2.839-4.979-3.954-6.97-1.115-1.892-2.835-4.579-3.746-5.972-1.113-1.691-1.321-2.79-.627-3.495 1.19-1.21 13.34-7.903 14.539-8.012.4-.003.715 1.995.733 4.295m29.415 27.875c1.424 3.089.443 5.596-2.057 5.616-2.2.017-3.523-2.973-2.646-5.98.88-2.707 3.28-2.525 4.703.364"/><path d="M116.774 237.23c.023 3 .045 5.8-.052 6.2.003.4.407.897 1.008 1.093.602.195 1.098-.309 1.092-1.109-.007-.9.987-1.708 2.285-1.917 2.198-.317 2.198-.317-.017-2.3-2.819-2.379-3.03-3.777-.323-2.998 1.102.292 2.001.185 1.997-.315-.007-.9-4.332-4.167-5.532-4.158-.3.002-.48 2.504-.458 5.504M125.422 243.363c.652 6.796 1.764 8.387 3.54 5.173 1.281-2.41 1.281-2.41 2.41 1.382 1.335 4.49 2.738 4.88 3.708.971.288-1.502.97-3.807 1.26-5.11.49-1.403.284-2.202-.416-2.196-.6.004-1.097.408-1.093 1.008.004.5-.392 1.003-.992 1.008-.5.004-1.008-1.092-1.019-2.492-.022-2.9-1.725-3.287-3.606-.773-1.188 1.61-1.288 1.51-1.412-1.489-.016-2.1-.524-3.196-1.524-3.188-1.1.008-1.292 1.11-.856 5.706M553.84 244.073c-.097.401-.257 5.603-.513 11.405-.426 9.603-.317 10.703 1.287 11.29 2.608.98 85.818 1.941 86.71 1.034.398-.403.557-5.704.412-11.603-.384-10.898-.384-10.898-3.59-11.573-5.007-.962-84.314-1.552-84.306-.553m21.024 3.04c-1.38 2.71-1.274 3.409.421 2.796 2.193-.917 2.703.38 1.123 2.891-1.284 2.11-1.282 2.41.224 3.199 1.005.592 1.412 1.589.92 2.693-.488 1.404-.887 1.607-1.794.714-1.612-1.588-2.811-1.479-2.797.321.013 1.7 3.227 3.575 4.62 2.665 1.89-1.215 2.171-3.817 1.423-10.012l-.747-6.194 20.2-.155 20.199-.155-1.972 3.715c-2.166 4.417-1.818 10.614.801 13.194 1.512 1.489 1.712 1.487 2.999-.223 2.275-3.217 2.729-9.221.903-12.607-1.624-3.088-1.624-3.088 7.976-3.161l9.6-.074-.226 9.702-.226 9.602h-26.1c-14.401.01-27.003-.192-28.005-.385-1.101-.191-7.603-.341-14.602-.287l-12.8-.002-.077-10-.077-10 9.5-.073c9.2-.07 9.5.027 8.514 1.835m45.064 8.253c.04 5.1-.946 6.908-2.466 4.42-1.011-1.493.324-9.903 1.524-9.913.5-.003.92 2.493.942 5.493"/><path d="M564.766 247.49c.006.7.029 3.7.151 6.599s-.255 5.902-.95 6.607c-.792 1.006-.688 1.506.616 1.996.902.293 1.903.385 2.202.183 1.095-.609.072-16.601-1.028-16.593-.5.004-.895.607-.99 1.208M595.275 248.455c-.294.803-.383 2.303-.075 3.301.312 1.498.61 1.395 1.395-.71.982-2.308 1.181-2.41 1.895-.615.51 1.296.025 3.2-1.356 5.71-3.06 5.324-2.847 6.922.853 6.894 2.3-.018 2.996-.523 2.985-1.923-.01-1.4-.514-1.796-2.01-1.385-2.495.72-2.504-.48-.029-3.7 1.09-1.408 1.974-3.415 1.965-4.615-.029-3.7-4.447-6.066-5.623-2.957M605.875 248.474c-.694.805-.98 2.708-.668 4.205.312 1.498.128 3.6-.464 4.604-.69 1.305-.481 2.504.733 4.294 1.821 2.787 2.823 2.979 4.807.864 1.588-1.513 1.708-11.914.19-14.302-1.013-1.593-3.112-1.476-4.598.335m3.73 3.871c-.393.904-1.088 1.609-1.688 1.613-1.1.009-1.425-3.289-.333-4.397 1.092-1.008 2.608 1.08 2.021 2.784m-.153 6.102c.008 1-.585 2.004-1.183 2.209-.798.306-1.304-.49-1.317-2.19s.48-2.504 1.282-2.31c.603.296 1.21 1.29 1.218 2.29M628.095 251.003c-.586 1.805-1.264 4.61-1.651 6.313-.288 1.603-.771 3.806-1.064 4.709-.293 1.002-.086 1.8.514 1.796.5-.004 1.092-1.009 1.283-2.21.474-3.404 3.771-3.73 3.796-.43.014 1.7.52 2.597 1.62 2.588s1.397-.51.988-1.607c-.407-.897-1.234-4.491-1.861-7.986-.727-3.495-1.65-6.388-2.05-6.385-.3.003-1.088 1.509-1.575 3.212m1.535 4.489c-.398.303-.7.005-.706-.695-.005-.7.293-1.002.695-.705.303.398.308.998.01 1.4M583.926 255.143c.004.5 1.407.989 3.007.977 1.7-.013 2.996-.523 2.993-1.023-.005-.6-1.308-.99-3.008-.977-1.6.012-2.997.423-2.992 1.023M596.144 270.55c-.391 1.102-.641 7.605-.767 17.206l-.153 6.201-15.697.42-15.797.422-.144 20.402-.043 20.4-21.405-.535c-12.702-.302-21.601-.134-21.998.369-.592 1.005-.83 22.107-.225 22.702.404.497 19.308.952 61.113 1.531 28.905.478 26.713 1.595 26.591-14.305l-.072-9.4-13.7.006c-7.6-.042-14.502-.189-15.303-.283-.8-.093-4.102-.268-7.203-.344l-5.8-.056-.15-19.5-.15-19.499 29.3-.225c15.999-.122 29.701.172 30.305.568 1.105.691.804 39.695-.563 70.006-.61 11.805-.798 13.207-2.303 12.618-.902-.293-2.707-.879-4.108-1.068-1.402-.19-4.11-1.269-6.119-2.353-3.112-1.577-4.213-1.668-7.006-.747-1.894.715-4.086 1.832-4.88 2.538-.895.707-2.692 1.02-4.395.734-1.803-.386-3.1-.076-3.693.828-1.285 2.01-1.08 2.608 1.236 4.79 1.612 1.488 2.125 3.185 2.166 8.484.148 6.3.351 6.698 3.366 8.575 7.435 4.543 8.752 6.833 6.486 11.25-.986 1.808-.78 2.506 2.238 4.883 4.227 3.568 5.326 3.46 8.796-.567 2.181-2.417 3.277-2.926 4.083-2.132 1.31 1.29-.451 6.304-4.11 11.632-2.472 3.72-2.259 5.418 1.252 6.79 2.808 1.08 2.91 1.378 1.525 3.29-1.68 2.512-1.968 4.114-.475 3.203 1.891-1.115 4.935-8.438 4.323-10.034-.509-1.096-.014-1.8 1.483-2.211 1.297-.31 2.982-2.323 4.064-4.631 1.97-4.016 2.549-6.72 1.359-5.411-.398.303-1.802-.286-3.21-1.275-1.309-1.09-3.015-1.977-3.715-1.972s-2.711-1.38-4.425-3.166l-3.124-3.076 3.285-2.025c4.38-2.734 7.152-6.256 8.517-10.866 1.168-4.11 2.164-4.717 3.88-2.63 2.119 2.484 2.45 6.481.876 9.894-2.066 4.416-5.15 6.44-7.264 4.755-1.007-.892-1.707-.886-2.101-.183-.397.503-1.291 1.21-2.09 1.416-.797.306.313 1.597 2.926 3.277 3.216 2.076 4.419 2.466 5.011 1.462.692-1.005 1.393-.91 3.504.473 2.01 1.285 2.416 2.082 1.622 2.888-1.687 1.713-1.272 3.71.828 3.693 3.1-.023 3.671-3.828.95-6.607-1.21-1.29-1.719-2.387-1.119-2.392 1.1-.008 5.146-7.04 5.133-8.74-.103-.398-.898.208-1.889 1.415-1.585 1.913-1.984 2.016-2.494.72-.307-.898-.627-3.396-.643-5.496-.037-4.8-.95-6.593-5.183-10.86-3.224-3.076-3.225-3.176-2.683-10.78.368-4.203.812-24.507.954-45.009.358-31.603.215-37.202-.986-37.293-5.604-.457-8.604-.534-18.105-.561l-10.701-.118-.495-12.297c-.151-6.699-.49-11.796-.686-11.195m-65.265 69.803c-1.017 10.908-.791 14.206.809 14.194 1.4-.01 1.59-1.212 1.534-8.512l-.165-8.5 4.4-.033c3.8-.03 4.201.168 3.111 1.476-.99 1.208-.985 1.908-.179 2.702.907.893 1.207.89 1.2-.01-.005-.7.49-1.203.99-1.207.6-.005 1.008.892 1.016 1.992s-.385 2.003-.985 2.008c-.5.004-.994.707-.988 1.507s.511 1.496 1.011 1.493c.6-.005 1.007.892 1.015 1.892.008 1.1-.382 2.303-.98 2.607-.498.304-1-.092-1.007-.892-.007-.9-.412-1.597-.912-1.593-1.8.014-1.987 1.715-.572 3.605 1.111 1.491 1.713 1.687 3.206.775 1.393-.91 1.78-2.514 1.942-7.515-.027-3.5-.354-6.998-.96-7.693-.806-.894 1.992-1.215 13.391-1.303l14.5-.111-.462 5.003c-.364 4.603-.261 5.003 1.739 4.987 1.6-.012 2.104.584 2.119 2.484.02 2.7-.876 3.207-2.79 1.322-.907-.894-1.206-.691-1.193.909.019 2.5 1.826 3.386 4.316 2.067 2.49-1.32 2.243-7.418-.37-8.998-1.105-.691-2.013-1.784-2.019-2.484-.005-.7.89-1.307 1.99-1.316 1.1-.008 1.995-.715 1.989-1.515-.008-1 .988-1.508 3.088-1.524 2.7-.02 2.902.278 2.417 2.182-.587 1.704-.385 2.003.912 1.493 1.893-.815 2.32 2.682.43 3.897-.797.506-.592 1.104.715 1.994 1.005.692 1.515 1.989 1.222 2.89-.785 2.007-2.485 1.92-3.002-.276-.412-1.597-.412-1.597-1.2.11-.982 2.307 1.539 4.987 3.733 4.17.897-.406 1.788-1.513 2.08-2.515.68-2.606-.486-11.297-1.698-12.788-.707-.894 1.091-1.208 8.69-1.267l9.6-.073.073 9.5.073 9.5-11.7.089c-6.499.05-25-.108-41.003-.385l-29.304-.375-.07-9.2c-.04-5 .127-9.401.325-9.603.298-.302 2.198-.316 4.4-.133 3.502.273 3.804.57 3.523 2.973m82 38.771c5.243 5.56-.671 16.806-8.971 16.87-4.7.036-6.92-2.647-6.964-8.247-.063-8.3 10.693-14.083 15.935-8.623m-15.986 1.923c.004.5-.49 1.204-1.088 1.608-1.394.811-3.308-1.074-2.519-2.48.692-1.106 3.597-.428 3.607.872m23.623 2.919c1.312 1.49 1.928 3.585 1.955 7.085.033 4.3-.36 5.303-3.24 7.925-3.873 3.53-9.869 4.076-12.592 1.097-1.613-1.688-1.514-1.889 1.377-3.111 4.286-1.833 8.144-7.263 8.211-11.563.07-4.001 1.465-4.512 4.29-1.433m2.892-1.123c.303.498.407.997.107 1-.3.002-.804-.494-1.107-.992-.305-.598-.408-.997-.108-1 .3-.001.803.395 1.108.992m2.282 10.683c-.398.303-.7.005-.706-.694-.005-.7.293-1.003.695-.706.303.398.308.998.01 1.4m-25.868 4.299c.205.698-.192 1.001-1.195.61-.903-.294-1.609-1.089-1.613-1.589-.01-1.3 2.296-.517 2.808.979m22.22 2.53c-5.157 5.64-11.846 7.09-16.373 3.525-3.622-2.772-3.335-4.474.284-2.002 5.028 3.561 11.42 2.412 15.48-2.619 1.09-1.308 2.184-2.217 2.386-1.918.302.297-.488 1.603-1.777 3.013m10.356 7.22c-.29 1.302-1.283 2.21-2.383 2.218-2.5.02-2.406-.781.276-3.102 2.482-2.319 2.884-2.122 2.107.884m-17.987 1.738c1.71 1.287 2.328 3.682 1.136 4.792-.793.906-7.326-3.444-7.438-4.943-.012-1.6 3.989-1.531 6.302.151m10.7.018c.002.3-.196.502-.496.504s-.502-.196-.504-.496.196-.502.496-.504.502.196.504.496m2.008.985c.002.3-.197.501-.497.503s-.501-.196-.503-.496.196-.501.496-.503.501.196.504.496m-14.965 4.715c.004.5-1.097.308-2.502-.281-1.404-.59-2.511-1.48-2.514-1.88-.004-.5 1.097-.31 2.502.28s2.511 1.48 2.514 1.88m11.466 8.512c-2.864 4.722-6.15 6.547-5.576 3.143.093-.9 1.372-3.71 2.852-6.322 2.267-4.218 2.665-4.52 4.076-3.132 1.41 1.39 1.215 1.991-1.352 6.31m-4.844 7.337c.304.498.208.999-.392 1.003-.5.004-1.304-.49-1.608-.987-.304-.598-.207-.999.393-1.003.5-.004 1.303.39 1.607.987"/><path d="M561.175 339.82c-1.567 4.312.348 6.197 2.217 2.183.984-2.108 1.084-2.108 1.106.792.113 1.599-.767 4.306-1.854 6.014-2.767 4.221-2.457 5.519 1.043 5.492 3.1-.024 4.785-1.937 3.468-4.127-.606-.795-1.006-.792-1.598.213-.395.703-1.092 1.108-1.395.71-.402-.297.086-1.8.976-3.107 2.272-3.618 1.63-9.113-1.173-9.491-1.301-.19-2.397.418-2.79 1.321M550.126 346.405c-.396.603.807.994 3.007.977s3.397-.426 2.992-1.023c-.304-.598-1.707-.987-3.007-.977s-2.697.42-2.992 1.023M432.386 276.607c-.99 1.308-2.58 2.62-3.477 3.027-2.094.816-2.277 2.917-.556 5.704 1.012 1.493 1.02 2.493.23 3.799-.988 1.607-3.888 1.73-35.287 1.97-21 .162-34.196.663-34.291 1.264-.392 1.103-1.892 1.115 35.509 1.027 16.9-.03 30.704.365 30.707.865.004.4-1.768 4.113-3.937 8.13-4.043 7.431-4.81 11.737-2.694 13.821 3.325 3.275 6.601.15 13.796-13.606 4.532-8.835 6.117-10.847 8.015-11.062 1.2-.01 2.8-.121 3.298-.225.6-.105 1.683-2.213 2.364-4.719 1.266-4.41 1.264-4.71-1.052-6.792-1.31-1.19-4.322-2.867-6.63-3.849-4.112-1.568-4.212-1.568-5.995.646m2.713 1.68c.004.5-.392 1.002-.992 1.007-.5.004-1.004-.492-1.008-.992-.004-.6.492-1.004.992-1.008.6-.005 1.003.392 1.008.992m5.503.357c1.81 1.286 1.635 4.588-.265 4.602-2 .016-4.32-2.567-3.633-4.272.784-2.106 1.384-2.11 3.898-.33m-5.368 4.241c3.815 1.871 3.221 2.676-1.385 1.911-2.504-.48-3.408-1.074-3.016-2.077.587-1.704.687-1.705 4.401.166m9.516 2.027c-1.091 1.109-1.904-.585-1.118-2.391.787-1.706.787-1.706 1.2-.01.307.998.216 2.1-.082 2.401m-9.185 1.971q3.01 1.177-.247 6.902c-1.973 3.515-3.77 4.03-6.384 2.15-1.81-1.387-1.712-1.588.658-5.506 2.668-4.22 3.265-4.525 5.973-3.546m5.622 2.857c.002.3-.196.501-.496.504-.3.002-.501-.196-.504-.496-.002-.3.196-.502.496-.504s.502.196.504.496m-10.829 9.283c1.312 1.49 1.212 1.491-1.097.309-3.413-1.674-3.616-1.972-1.816-1.986.9-.007 2.206.683 2.913 1.677m-1.686 1.813c1.106.792 1.713 1.687 1.416 2.09-.695.605-4.813-1.664-4.821-2.764-.01-1.2 1.293-.91 3.405.674m-.368 4.103c.001.2-.9.007-2.005-.584-1.105-.592-2.01-1.285-2.012-1.585-.002-.2.9-.007 2.004.585 1.105.591 2.01 1.284 2.013 1.584m-1.99 1.416c1.306.79 1.308.99-.192 1.001-.9.007-2.004-.484-2.308-.982-.81-1.294.49-1.304 2.5-.02m-1.279 2.71a1.2 1.2 0 0 1-1.4.01c-.303-.397-.005-.7.695-.705s1.002.292.705.695m-.675 3.305c.005.6-.896.507-2.001-.185-1.105-.691-2.012-1.584-2.016-2.084-.003-.4.898-.307 2.002.284 1.105.592 2.012 1.485 2.015 1.985m-1.983 2.115c.004.5-.693.905-1.493.912-.8.006-1.506-.689-1.512-1.489-.007-.9.59-1.204 1.493-.911.803.394 1.508.988 1.512 1.488M268.104 279.569c-1.478 2.811-1.131 22.01.473 22.497.601.195 14.004.492 29.706.672 15.702.28 35.106.63 43.309.967l14.704.487-.03-3.9c.084-2.1.242-7.502.508-12.004l.537-8.104-11.404-.513c-6.203-.352-24.607-.81-40.808-.886-16.202-.176-31.005-.562-32.707-.75-2.502-.28-3.599.128-4.288 1.534m11.515 1.911c-.395.603-.666 4.406-.735 8.506-.153 6.102.158 7.5 1.358 7.49s1.388-1.51 1.035-8.508l-.366-8.498 5.3-.04c4.2.068 5.002.261 3.708 1.071-2.589 1.42-2.367 4.219.227 3.399 2.394-.719 2.605.68.522 2.896-.794.806-1.487 1.711-1.485 2.011s.705.595 1.505.589c1.6-.013 2.127 3.483.634 4.495-.597.305-1.401-.19-1.908-1.085-.71-1.195-1.11-1.292-1.703-.387-.395.703.115 1.999 1.224 3.19 1.814 1.786 2.114 1.784 3.603.373 1.191-1.21 1.476-3.212 1.239-8.01-.126-3.4-.652-6.795-1.057-7.392-.911-1.493-.511-1.496 33.2-.255l27.207.891.076 9.9.076 9.9-12.704-.503a789 789 0 0 1-18.008-.862c-2.901-.178-14.303-.39-25.503-.304-28.2.017-25.793.998-25.88-10.402l-.072-9.4 4.6-.035c2.8-.021 4.302.367 3.907.97"/><path d="M311.186 290.138c.057 7.4.263 8.098 2.063 8.085 1.1-.009 1.996-.516 1.992-1.016-.005-.6-.508-.996-1.108-.991-.6.004-.918-2.393-.75-6.595.163-4.701-.153-6.799-.955-7.092-1.003-.393-1.288 1.61-1.242 7.61M321.339 283.86c-1.477 3.012-2.029 9.316-1.11 11.909 1.326 3.29 4.825 3.163 5.6-.143.774-3.406-.358-7.497-2.158-7.484-.8.006-1.504-.588-1.51-1.388-.016-2 1.677-2.913 2.289-1.418.205.699.808.994 1.205.591 1.091-1.108-.23-3.798-1.93-3.785-.9.007-1.893.814-2.386 1.718m2.87 9.278c.013 1.6-.376 3.003-.876 3.007-1.2.01-2.428-3.681-1.638-4.987 1.184-2.01 2.492-1.02 2.515 1.98M334.342 284.26c-.695.706-1.188 1.61-1.184 2.11s-.884 2.106-1.971 3.715c-2.078 2.916-1.77 4.013 1.33 3.99 1.4-.011 1.804.486 1.416 1.989-.292 1.102-.085 2 .415 1.997l1.6-.013c.9-.007 1.002-12.708.192-14.102-.404-.496-1.103-.391-1.798.314m-.152 6.302c.006.8-.388 1.503-.988 1.507-.5.004-.705-.694-.412-1.497.394-.803.789-1.506.989-1.507.2-.002.405.697.411 1.497M298.188 290.338c.003.5 1.607.988 3.507.973 1.9-.014 3.496-.527 3.492-1.027-.004-.6-1.607-.987-3.507-.973s-3.497.427-3.492 1.027M414.538 322.446c-2.266 4.517-2.462 5.019-1.262 5.01.7-.006 2.477-3.02 4.936-8.339.197-.401-.105-.699-.605-.695-.6.004-1.886 1.814-3.07 4.024M534.533 321.424c-2.48 2.52-2.57 3.92-.447 6.904 1.92 2.685 3.622 2.772 5.802.255 2.181-2.517 1.654-6.013-1.16-7.791-1.91-1.286-2.409-1.182-4.195.632m4.928 3.562c.014 1.8-.481 2.504-1.881 2.515-1.1.008-2.304-.483-2.608-.98-1.113-1.792.27-4.002 2.47-4.02 1.5-.01 2.005.685 2.019 2.485M520.231 321.234c-1.191 1.109-.829 9.206.376 9.897 1.407.89 1.506.689.86-5.307-.323-2.997-.839-4.993-1.236-4.59M523.462 325.21c.02 2.7.433 4.296 1.03 3.891.598-.304.988-1.607.978-2.807.084-2.1.184-2.102 2.105.584 1.111 1.491 2.52 2.48 3.016 2.077 1.195-.71 1.135-8.41-.165-8.4-.5.004-.993.908-.984 2.008.008 1.1-.285 2.002-.785 2.006-.4.003-1.307-.89-2.015-1.984-2.025-3.285-3.218-2.276-3.18 2.624M552.537 321.786c-.793 1.006-.888 1.607-.084 2.1.502.297 1.013 1.693 1.023 3.093s.417 2.197 1.015 1.892c1.194-.81 1.245-7.21.04-7.9-.503-.297-1.4.11-1.994.815M558.23 320.842c-.297.402-.185 2.002.328 3.698.514 1.896.53 3.796-.062 4.9-1.184 2.21-1.278 2.91-.078 2.9.5-.003 1.487-1.61 2.074-3.415.878-2.807.769-4.006-.247-6.098-.81-1.394-1.718-2.287-2.016-1.985M543.492 329.055c.006.8.51 1.197 1.007.893.597-.405.792-1.106.488-1.604-.911-1.393-1.509-1.088-1.495.711M407.138 335.503c-2.663 4.92-2.146 7.116.622 2.895 1.186-1.81 1.684-2.013 3.492-1.027 3.414 1.774 5.11 1.161 1.995-.715-1.809-1.086-2.618-2.28-2.326-3.382.87-3.807-1.22-2.491-3.783 2.229M417.572 339.923c.007.9 9.143 5.63 9.739 5.025.694-.705.996-.508-4.326-3.367-4.217-2.167-5.42-2.558-5.413-1.658M401.608 344.745c.006.7-.881 2.407-1.97 3.816-2.08 2.716-2.562 5.02-.962 5.007.6-.004.995-.607.99-1.307-.005-.6.882-2.307 1.972-3.716 2.079-2.716 2.561-5.02.961-5.007-.5.004-.995.608-.99 1.207"/><path d="M394.112 345.303c-5.99 1.246-11.658 5.49-15.013 11.316-1.678 2.913-1.678 2.913-5.993.946-2.31-1.183-4.814-1.863-5.612-1.557-.698.305-2.48 2.719-3.76 5.329l-2.363 4.718-9.604-.526c-21.91-1.132-51.013-1.408-51.005-.408.01 1.2 10.515 1.919 39.02 2.5 19.704.449 22.907.724 26.02 2.5 1.908.986 3.616 1.973 3.817 2.171.402.297-3.541 7.627-4.831 8.937-.496.604-.886 1.907-.877 3.107.02 2.5 7.952 6.74 10.645 5.719 1.296-.51 1.498-.212.913 1.693-1.073 3.508 1.012 1.592 3.476-3.127 1.576-3.112 1.766-4.414.862-4.907-.603-.395-.81-1.294-.515-1.896.495-.704-.412-1.597-2.316-2.182-3.61-1.273-3.509-1.073-1.737-4.787 2.857-5.622 3.955-5.83 11.683-2.19 4.718 2.264 6.93 3.847 6.94 5.147.016 2.1-1.082 2.308-2.795.621-.605-.595-1.506-.788-1.903-.385-.497.404.11 1.4 1.216 2.09 1.106.792 2.514 1.782 3.017 2.178.603.495 2.614 1.88 4.525 3.265 1.91 1.285 3.821 2.77 4.125 3.268.708.995.036 4.7-.864 4.707s-12.763-8.202-13.07-9.1c-.203-.398-1.506-.788-2.806-.778-1.9.014-2.595.62-3.077 3.024-.287 1.702-1.373 3.51-2.368 4.118-2.291 1.217-2.478 2.919-.378 2.903.8-.006 2.19-1.217 3.178-2.825.889-1.507 1.778-2.913 1.976-3.115.099-.2 1.906.685 4.015 1.87 11.653 6.81 12.655 7.102 14.53 3.888 1.68-2.713 3.58-2.528 8.906.731 2.411 1.482 6.529 3.75 9.039 5.031 3.213 1.676 5.328 3.66 6.85 6.548 2.333 4.282 2.333 4.282.166 8.499-2.069 4.116-2.067 4.316-.253 6.202 2.32 2.482 10.652 6.718 13.252 6.698 1.3-.01 3.085-1.923 5.554-6.043l3.554-5.927 9.74 5.025c5.321 2.86 12.45 6.605 15.764 8.38 3.315 1.874 9.338 4.928 13.354 6.997 3.916 1.97 7.232 4.045 7.236 4.645.004.5-1.174 3.309-2.653 6.12-2.266 4.418-2.458 5.42-1.348 6.81 1.211 1.392 12.958 7.502 14.558 7.49.3-.003 2.081-2.517 4.058-5.532 1.877-3.015 3.758-5.529 4.258-5.533.4-.003 2.307.982 4.217 2.268s5.626 3.357 8.336 4.636c3.414 1.774 4.522 2.865 4.13 3.968-1.866 4.415-1.456 5.712 2.167 8.684 3.221 2.675 3.526 3.373 2.64 5.08-1.675 3.313-1.17 3.909 1.01 1.292 1.98-2.515 1.98-2.515 10.412 1.62 8.431 4.036 8.431 4.036 7.254 7.045-1.272 3.61-.363 4.703 7.866 8.54 7.73 3.74 8.926 3.331 12.963-4.9 1.085-2.009 2.072-3.716 2.172-3.717s2.208 1.083 4.719 2.464c2.51 1.38 4.919 2.462 5.519 2.458 1.4-.011 6.036-8.247 6.017-10.747-.009-1.2-.717-2.294-1.52-2.688-.803-.294-1.508-.989-1.513-1.589-.004-.5 2.3-.017 5.209 1.06 5.014 1.862 5.315 1.96 6.502.25.692-1.005 1.284-2.11 1.28-2.51-.004-.6-10.766-8.617-15.588-11.48-5.828-3.556-21.579-10.135-24.079-10.116-.2.002-.893.907-1.483 2.112-.889 1.507-.782 2.406.227 3.598 1.515 1.889 1.114 1.792-6.516-2.15-6.024-3.054-6.63-3.949-4.255-7.067 1.683-2.213 1.874-3.415.574-3.405-.5.004-1.39 1.31-2.077 3.016-1.177 3.01-2.771 3.722-4.484 2.135-.603-.396-7.532-4.143-15.564-8.281-13.05-6.6-22.69-11.726-43.174-22.57-3.615-1.871-9.941-5.323-14.058-7.491-4.117-2.169-12.25-6.507-18.076-9.762-5.824-3.155-12.25-6.606-14.36-7.69-3.714-1.971-3.714-1.971-3.783-10.871-.077-10.1-1.42-15.69-4.856-20.363-2.93-3.878-12.486-11.105-14.586-11.089-.9.007-3.909-1.17-6.62-2.549-2.81-1.378-5.718-2.356-6.416-2.15-.698.305.611 1.495 3.02 2.676 2.41 1.182 6.43 3.75 8.944 5.632 2.917 2.177 5.225 3.26 6.422 2.85 2.593-.92 9.751 6.626 10.586 11.12 1.145 5.89-3.844 7.33-6.486 1.85-2.135-4.484-4.049-6.27-10.678-10.119-10.045-5.823-11.953-6.808-14.258-7.39-4.308-1.068-2.293.917 4.233 4.167 3.613 1.772 6.527 3.55 6.53 3.85.11 1.499-6.5 13.15-7.4 13.157-1.9-.085-18.974-9.555-19.383-10.751-.205-.699 1.675-3.213 4.156-5.732 2.68-2.521 3.966-4.431 3.066-4.424-2 .015-5.178 2.84-7.548 6.758-1.778 2.914-2.176 3.117-4.484 2.134-3.11-1.376-3.025-3.276.143-7.5 2.87-3.823 9.043-7.37 12.843-7.4 1.4-.01 2.497-.419 2.493-.919-.01-1.4-1.214-1.79-3.51-1.373m28.079 10.085c.304.597-.095.7-.897.407-1.805-.687-2.11-1.384-.71-1.395.6-.005 1.302.39 1.607.988m-40.935 8.614c6.626 3.45 16.365 8.475 21.587 11.235 5.221 2.76 13.354 6.998 18.072 9.361 4.72 2.464 9.74 5.126 11.046 5.916 1.407.889 6.026 3.354 10.343 5.62s11.748 6.21 16.569 8.874c4.82 2.563 11.95 6.408 15.765 8.479 3.916 2.07 9.339 4.928 12.05 6.407 2.811 1.479 8.837 4.733 13.556 7.196 15.762 8.08 24.598 12.712 28.616 14.981 2.21 1.283 8.334 4.436 13.554 7.096 19.177 9.853 44.481 23.36 46.091 24.647.804.494-4.12 10.332-5.12 10.34-.6.004-2.409-1.082-4.118-2.269-5.13-3.86-12.259-7.606-14.259-7.59-1 .007-3.913-1.67-6.329-3.752-4.127-3.468-4.33-3.867-3.046-5.977 1.186-1.909 1.082-2.408-1.438-4.989-5.242-5.36-17.78-10.264-17.753-6.864.006.8-.784 2.206-1.777 3.114-1.489 1.411-2.088 1.516-3.797.33-1.006-.693-4.822-2.764-8.435-4.536-3.615-1.873-7.834-4.34-9.344-5.629-1.509-1.188-4.222-2.867-6.028-3.653-8.027-3.539-14.753-6.787-20.778-10.041-16.47-9.074-36.048-19.124-37.048-19.116-.6.004-1.103-.392-1.106-.792-.008-1.1-5.533-4.257-11.752-6.81-2.91-1.177-6.523-2.95-8.032-4.038-1.607-.988-5.325-3.26-8.337-4.836-13.758-7.495-15.867-8.679-19.892-11.948-3.421-2.674-4.23-3.867-3.844-5.67.678-2.806-1.033-4.293-9.064-8.331-7.228-3.545-8.93-3.732-10.608-1.019-.692 1.106-1.885 2.015-2.685 2.021-2 .015-10.137-4.822-10.146-6.022-.009-1.1 4.239-7.933 4.939-7.938.3-.003 6.022 2.853 12.548 6.203m39.309.999c1.007.992.914 1.893-.664 4.705a447 447 0 0 0-3.45 6.526c-1.576 3.213-1.676 3.213-4.587 1.736-1.707-.887-3.014-1.777-3.017-2.177-.002-.3 1.574-3.412 3.447-6.927 3.55-6.527 4.845-7.137 8.27-3.863m5.962 8.054c.112 1.6.537 4.896.857 7.494.422 2.896.237 4.798-.263 4.802-1.8.014-9.434-4.428-9.944-5.724-.306-.698.577-2.905 1.861-5.014 1.285-2.01 2.765-4.622 3.157-5.625.586-1.804.786-1.806 2.298-.318.907.894 1.822 2.887 2.034 4.385m-52.693 1.205c.003.3-.687 1.605-1.477 2.911-1.483 2.312-1.381 2.51 1.134 4.492 1.51 1.188 3.316 2.074 4.016 2.069 1.7-.013 1.704.487.423 2.997-.985 1.907-1.186 1.809-5.704-.457-2.61-1.28-5.116-2.06-5.514-1.857-1.493.911-.814-1.794.966-4.408.989-1.508 2.173-3.517 2.466-4.519.588-1.505 3.68-2.528 3.69-1.228m62.075 9.523c.028 3.6-.25 6.502-.55 6.505-.3.002-1.906-.786-3.513-1.673-2.511-1.481-2.918-2.378-2.945-5.878-.028-3.6.267-4.302 2.264-4.718 4.693-.936 4.692-1.036 4.744 5.764m4.597 25.566c2.408 1.081 5.121 2.76 6.129 3.753 1.513 1.688 1.516 2.088-.457 5.703-3.056 5.624-3.056 5.624-7.882 2.361-2.512-1.58-5.524-3.158-6.826-3.448-2.706-.679-2.706-.679-.736-4.694 3.25-6.525 3.449-6.627 9.772-3.675m-4.795 13.737c-.298.302-1.1.008-1.805-.686-.908-.993-.809-1.094.596-.505 1.002.292 1.507.889 1.209 1.19m68.452 19.475c5.821 2.755 8.235 4.537 8.245 5.837.005.7-1.276 3.21-2.757 5.621l-2.766 4.421-3.322-2.774c-1.911-1.486-4.723-3.064-6.226-3.352-1.603-.388-3.108-1.077-3.512-1.574-.608-1.095 4.524-9.935 5.824-9.945.4-.003 2.506.781 4.514 1.766m42.408 13.975c4.317 2.166 7.94 5.139 7.95 6.439.014 1.9-1.88 2.714-3.49 1.427-.804-.594-1.605-.688-1.9-.186-.296.602.713 1.795 2.22 2.783 1.508.989 4.124 3.069 5.937 4.755 3.224 3.075 3.224 3.075 1.442 5.389-1.485 2.011-1.983 2.215-3.192 1.024-5.339-4.959-12.578-10.103-17.395-12.266-6.121-2.754-6.122-2.854-1.474-9.59 1.582-2.312 2.18-2.516 4.686-1.835 1.503.388 3.91 1.37 5.216 2.06m-46.402-.044c-.397.303-.7.005-.705-.695s.292-1.002.695-.705c.303.398.307.998.01 1.4m75.405.32c3.51 1.374 8.027 3.44 9.936 4.625 5.726 3.356 17.19 11.768 16.695 12.272-.396.503-6.325-3.152-7.636-4.642-.606-.695-9.447-6.127-14.067-8.592-1.908-1.085-5.92-2.755-8.728-3.633-2.907-.978-5.314-1.86-5.316-2.16-.008-1 3.098-.223 9.116 2.13m-1.578 2.813c1.906.785 3.513 1.673 3.514 1.873.006.8-7.208-1.045-8.316-2.136-1.613-1.588.589-1.405 4.802.263m7.95 6.64c2.614 1.68 4.625 3.164 4.428 3.465-.596.605-5.815-1.855-5.822-2.855-.003-.4-.606-.695-1.206-.69-.7.005-2.205-.684-3.211-1.476-3.722-2.772.688-1.606 5.812 1.555m12.239 4.905c.71 1.195.008 1.1-2.901-.177-1.205-.591-2.815-1.879-3.523-2.873-1.113-1.792-.913-1.793 2.301.082 1.91 1.185 3.82 2.47 4.123 2.968m-53.91-.986a1.2 1.2 0 0 1-1.4.011c-.302-.398-.005-.7.695-.705s1.003.292.706.694m30.064 8.17c6.327 3.451 6.732 4.148 4.862 7.963-2.955 5.922-3.254 6.025-7.074 3.454-1.91-1.285-5.122-2.86-6.927-3.447-4.11-1.268-4.216-2.068-1.45-6.589 2.469-4.019 5.066-4.439 10.59-1.381m19.997-.554c-.398.303-.7.005-.706-.694-.005-.7.293-1.003.695-.706.303.398.308.998.01 1.4m-2.564 4.72c-.595.705-.783 2.206-.475 3.204.611 1.495.413 1.697-.595.704-1.108-.991-1.014-1.792-.034-4.4.786-1.806 1.58-2.712 1.785-2.013.204.598-.086 1.8-.681 2.505m3.883-2.23c.015 1.9-1.766 4.414-2.472 3.62-.403-.298-.012-1.5.679-2.706 1.481-2.412 1.78-2.614 1.793-.914M431.13 347.319c.809 1.294 8.64 5.234 9.135 4.63.298-.302-1.01-1.292-2.818-2.379-4.42-2.566-7.127-3.445-6.318-2.251M660.858 350.155c-2.286 1.917-3.076 3.123-2.666 4.52.409 1.097-1.059 5.309-3.816 10.93-2.461 5.02-4.527 9.535-4.523 10.035s1.312 1.59 2.92 2.478c2.91 1.377 3.01 1.377 4.988-1.439 1.188-1.609 2.076-3.216 2.073-3.516-.001-.2 1.576-3.212 3.45-6.526l3.455-5.927 17.198-.332c15.699-.22 18.897-.445 17.689-1.536-.302-.198-21.61-1.234-29.712-1.372-.1 0-.11-1.2-.02-2.7.183-2.101-.425-3.197-3.139-4.976-1.91-1.285-3.717-2.271-4.017-2.27-.3.003-2.091 1.217-3.88 2.63m5.806.855c.003.3-.196.502-.496.504s-.501-.196-.504-.496c-.002-.3.197-.502.497-.504s.501.196.503.496m-.88 2.507c1.004.592 1.914 1.885 1.923 2.985.013 1.8-.087 1.801-2.899.223-1.607-.888-2.717-2.18-2.422-2.882.588-1.604.888-1.607 3.398-.326m-1.459 5.411c.306.798.119 2.4-.473 3.504-.987 1.708-1.485 1.912-3.493.927-2.107-.884-2.31-1.382-1.426-3.39 1.18-2.608 4.475-3.234 5.392-1.04m-3.55 6.628c.805.494 1.109.991.509.996-.5.004-1.704-.487-2.508-.98-.804-.495-1.008-.993-.508-.997.6-.005 1.704.487 2.508.98m-.976 3.007c.004.5-.592 1.005-1.392 1.011s-1.804-.486-2.108-.984c-.305-.597.292-1.002 1.392-1.01 1.2-.01 2.103.383 2.108.983m-2.477 3.02c.305.597-.095.7-.897.406-1.805-.686-2.11-1.383-.71-1.394.6-.005 1.302.39 1.607.988m-.984 2.107c1.215 1.89-.482 2.304-2.195.617-1.612-1.588-1.613-1.688-.113-1.7.9-.006 2.004.485 2.308 1.083M209.278 354.523c-.293.902-.552 6.304-.509 11.904l.08 10.3 12.304.505c6.702.349 26.606.796 44.308.96l32.105.453.563-4.804c.38-2.603.638-8.105.607-12.105-.065-8.4 1.041-7.608-11.56-7.811-3.301-.075-22.004-.332-41.606-.581-32.905-.547-35.704-.426-36.292 1.179m44.023 2.862c-.292 1.002-.562 4.904-.732 8.806-.157 5.601.053 7 1.256 7.29 1.301.19 1.491-1.111 1.231-8.91-.369-8.997-.37-9.097 1.835-8.514 1.302.29 2.905.578 3.605.572.8-.006 1.212 1.591 1.234 4.491.03 3.8.335 4.498 2.035 4.485 1.5-.012 2.005.684 2.019 2.484.02 2.7-.876 3.207-2.79 1.322-.907-.893-1.206-.691-1.193 1.009.01 1.3.72 2.494 1.522 2.788 4.212 1.568 6.443-7.45 2.425-9.819-1.106-.691-2.014-1.784-2.02-2.484-.005-.7.89-1.307 1.99-1.316 1.1-.008 1.995-.715 1.989-1.515-.009-1.1 1.088-1.508 3.588-1.527 3.4-.027 3.5.073 2.017 2.184-1.88 2.715-2.018 10.716-.199 13.202 3.84 5.07 7.56-5.258 4.602-12.836-.92-2.493-.82-2.593 2.38-2.618 3.3-.025 3.3-.025 2.965 8.477-.236 8.303-.235 8.503 1.965 8.486 1.3-.01 2.797-.422 3.494-.827 1.692-1.113 1.206-12.31-.611-14.496-1.412-1.59-1.213-1.69 3.087-1.724l4.7-.036.059 7.7c.102 13.3 1.295 12.39-16.31 11.926-22.905-.625-50.109-1.016-59.409-1.044l-8.3.063.141-7.7c.204-12.503-1.987-11.286 21.513-11.466 19-.146 20.4-.057 19.912 1.547m23.452 6.62c.03 3.9-.75 6.506-2.05 6.516-1 .007-1.272-9.29-.38-10.298 1.29-1.31 2.404.482 2.43 3.782m10.782-2.383c-.19 1.301-.683 2.305-1.283 2.31-.5.004-1.107-.992-1.317-2.29-.212-1.498.183-2.202 1.283-2.21s1.505.689 1.317 2.19m.053 7c-.475 3.204-2.773 3.521-2.796.421-.013-1.7.48-2.603 1.58-2.612 1-.008 1.405.69 1.216 2.19"/><path d="M220.698 357.135c-.098.2-.17 3.802-.238 8.102-.147 6.902.06 7.7 1.76 7.687 1.2-.01 1.596-.512 1.187-1.61-.307-.897-.634-4.495-.661-7.994-.028-3.6-.45-6.397-1.05-6.393-.5.004-.999.108-.998.208M230.008 358.364c-.684 2.105.625 3.295 1.612 1.587.592-1.004.992-1.007 1.6-.112.404.597-.085 2-.978 3.008-1.586 1.812-1.584 2.012-.08 2.6 1.706.687 2.23 3.883.737 4.795-.497.304-1.201-.191-1.508-1.089-.509-1.096-1.01-1.292-1.705-.587-1.389 1.411.033 4.3 2.133 4.284 3-.023 3.882-2.33 3.534-8.627-.224-3.199-.447-6.197-.551-6.696-.211-1.399-4.206-.668-4.794.837M239.757 364.689c-1.193.91-1.192 1.11.212 1.598 2.307.883 6.301.152 6.092-1.046-.31-1.398-4.513-1.666-6.304-.552M443.68 354.023c.009 1 8.944 5.531 9.639 4.926.298-.302-1.613-1.688-4.224-3.168-5.122-2.76-5.423-2.958-5.414-1.758M706.682 353.103c-1.28 2.61-.262 5.002 2.747 6.179 2.106.784 2.31 1.182 1.319 2.39-.892 1.107-1.591 1.212-2.497.52-.805-.695-1.605-.689-1.901-.186-.89 1.407 1.925 3.285 3.82 2.57 2.393-.918 3.841-7.63 2.417-10.818-1.424-3.09-4.426-3.366-5.905-.655m4.016 2.07c.008 1.1-.685 2.005-1.485 2.01-1.5.012-2.116-2.083-.825-3.293 1.19-1.31 2.294-.718 2.31 1.282M716.876 352.325c-2.084 2.116-1.355 5.81 1.352 6.79 1.605.587 2.31 1.382 1.92 2.485-.687 1.805-1.586 1.912-3.3.225-1.007-.992-1.205-.79-.893.807.522 2.896 3.92 2.47 5.695-.744 2.86-5.122-1.202-13.19-4.774-9.563m3.218 2.375c.917 2.193.819 2.394-.881 2.407-.8.006-1.507-.889-1.516-1.989-.018-2.4 1.48-2.711 2.397-.418M726.372 351.752c-1.29 1.21-.682 2.305 1.317 2.29 1.9-.015 2.002.184.523 2.996-1.674 3.313-2.034 8.516-.442 7.503.598-.304.989-1.507.98-2.507-.008-1.1.774-3.506 1.659-5.513.885-1.907 1.472-3.612 1.17-3.91-1.007-.892-4.613-1.564-5.207-.86M736.276 352.276c-2.386 1.818-1.655 5.913 1.255 7.19 3.111 1.376 2.93 3.878-.275 3.202-1.602-.287-2.4.019-2.195.717.615 1.896 4.015 1.87 5.4-.041 3.364-4.726-.108-14.1-4.185-11.068m3.226 3.375c-.48 2.504-2.778 2.821-2.797.421-.009-1.2.584-2.104 1.584-2.112.9-.007 1.405.69 1.213 1.691M764.78 352.657c-1.692 1.113-1.727 9.513-.011 11.6.908 1.093 1.71 1.187 3.103.376 3.187-1.724 2.2-13.017-1.1-12.892-.4.004-1.196.41-1.992.916m2.947 6.177c.022 2.8-.37 3.903-1.47 3.912s-1.508-1.089-1.529-3.789c-.016-2.1.268-4.202.566-4.504 1.39-1.31 2.404.581 2.433 4.381M774.185 353.285c-1.985 2.015-1.925 9.715.088 11.4 1.61 1.387 3.005.676 4.483-2.135.889-1.507.582-2.405-1.534-4.489-2.62-2.58-2.637-4.78-.029-3.7.803.294 1.501.089 1.496-.511-.013-1.8-2.916-2.178-4.504-.565m2.76 7.879c.004.5-.491 1.103-1.09 1.308-.598.205-1.102-.392-1.11-1.291-.006-.9.49-1.504 1.09-1.309.602.195 1.107.792 1.11 1.292M746.408 356.398c-2.164 4.717-2.05 6.516.35 6.497 1.1-.008 2.004.485 2.01 1.185.005.8.405.797 1.298-.21 1.685-1.913 1.015-11.008-.785-10.994-.7.005-1.988 1.615-2.873 3.522m2.323 2.982c.006.8-.388 1.503-.988 1.508-.5.004-1.006-.692-1.012-1.492s.489-1.504.989-1.508c.6-.005 1.005.692 1.011 1.492M783.79 354.01c-.791 1.007-.887 1.608-.083 2.102.502.296 1.018 2.392 1.035 4.592.016 2.1.53 3.896 1.03 3.892 1.2-.01 1.218-10.71.013-11.4-.503-.297-1.4.11-1.994.815M791.695 354.55c-1.084 2.009.323 2.998 1.508.989.295-.603.992-1.008 1.592-1.013 1.6-.012 1.023 2.993-1.06 5.209-3.174 3.424-2.555 5.82 1.344 5.69 2.299-.118 2.597-.32.995-.608-2.804-.479-2.918-2.378-.337-4.798 2.285-2.017 2.566-4.52.752-6.306s-3.611-1.472-4.794.837M393.32 359.41c-.885 1.806-1.47 3.911-1.265 4.51.206.698 1.198-.31 2.084-2.117s1.47-3.911 1.266-4.51c-.206-.698-1.198.31-2.084 2.117M456.739 361.523c.001.2 1.81 1.286 4.019 2.469 2.208 1.083 4.012 1.57 4.008 1.07s-1.312-1.59-3.019-2.478c-2.81-1.378-5.014-1.861-5.008-1.061M755.235 359.83c.304.498 1.507.989 2.607.98 1-.007 1.896-.514 1.893-1.014-.005-.6-1.208-.991-2.608-.98-1.4.01-2.297.417-1.892 1.014M563.7 382.002c-.112 11.501-.118 23.801-.089 27.601.029 3.7-.048 6.7-.248 6.702-.1.001-2.107-.883-4.316-2.066-2.309-1.083-4.413-1.667-4.71-1.264-.397.403-.194.801.308 1.097.602.196 2.811 1.379 5.02 2.562 4.82 2.663 5.541 5.357 2.68 10.28-2.27 3.917-2.467 4.419-1.267 4.41 1.1-.009 5.14-7.84 5.124-9.94-.007-.9-.517-2.196-1.222-2.89-2.217-2.184.081-2.402 2.997-.324 1.71 1.187 3.316 2.075 3.616 2.072 1.4-.01 18.582 10.558 22.407 13.829 4.43 3.866 11.25 6.413 12.639 5.003.496-.504.59-1.405.284-2.002-1.417-2.29-9.453-6.928-12.957-7.501-2.003-.385-6.318-2.252-9.432-4.128-3.215-1.875-7.434-4.343-9.342-5.328-10.243-5.622-9.216-2.13-9.347-32.13-.038-18-.405-26.697-1.105-26.692-.6.005-1.044 7.208-1.04 20.709m37.104 52.516c2.21 1.284 3.318 2.375 2.519 2.481-1.6.012-8.028-3.538-8.034-4.438-.008-1 1.596-.413 5.515 1.957M469.788 367.823c.007 1 8.042 5.538 8.637 4.833.397-.403-7.044-5.646-8.143-5.637-.3.002-.497.404-.494.804M482.846 375.423c.006.7 7.835 4.44 9.235 4.429 1.599-.113-6.339-4.952-7.938-4.94-.7.006-1.299.21-1.297.51M648.506 382.55c-.888 1.607-1.572 3.613-1.567 4.313.105.699.997-.408 2.08-2.516 1.084-2.209 1.77-4.114 1.467-4.412-.202-.298-1.193.91-1.98 2.616M498.909 383.5c.008 1.1 7.84 5.14 8.434 4.435.398-.303-1.212-1.591-3.522-2.873-4.519-2.466-4.92-2.663-4.912-1.563M511.963 390.5c.008 1 7.034 4.445 7.729 3.74.298-.202-1.31-1.39-3.62-2.572-2.308-1.082-4.113-1.669-4.109-1.169M642.195 394.2c-1.284 2.01-2.07 3.915-1.868 4.114.705.694 4.756-5.737 4.447-6.834-.204-.599-1.395.61-2.579 2.72M370.235 400.388c-1.28 2.61-2.063 4.816-1.761 5.114.505.596 5.545-7.243 5.533-8.743-.017-2.2-1.605-.688-3.772 3.63M526.425 398.489c.607.895 8.239 5.036 9.239 5.029 1.4-.011-1.217-2.191-4.63-3.965-4.318-2.167-5.42-2.458-4.61-1.064M541.586 406.372c.81 1.294 6.732 4.149 7.327 3.544.298-.302.296-.602.094-.8-5.726-3.357-8.533-4.335-7.421-2.744M209.9 409.52c-.694.705-1.02 23.308-.319 23.603.302.197 88.219 2.022 88.317 1.822.1-.001.258-5.503.407-12.104l.308-12.003-20.504-.442c-11.302-.213-31.107-.761-44.01-1.062s-23.802-.217-24.199.186m15.816 1.978c4.704.564 5.006.762 4.623 2.965-.19 1.401.018 2.4.718 2.394a1.11 1.11 0 0 0 1.092-1.108c-.004-.5.494-.704 1.097-.409.703.495.511 1.497-.477 3.004-1.383 2.21-1.381 2.51.025 3.3 1.808.986 1.633 4.288-.262 5.002-.698.206-1.302-.29-1.309-1.19s-.412-1.597-1.012-1.592c-1.1.008-1.292 1.11-.374 3.403.816 2.094 4.115 1.968 5.198-.24 1.38-2.61.81-11.706-.804-13.594-1.312-1.59-.613-1.695 10.488-1.58 6.5.05 13.303.297 14.904.485 2.903.378 3.005.577 2.642 5.48-.263 4.702-.161 5.001 1.833 4.286 1.797-.514 2.099-.216 2.115 1.884.02 2.7-1.467 4.311-2.48 2.619-.911-1.493-2.501-.181-1.788 1.513.613 1.796 3.415 1.974 5.102.261 1.885-1.914 1.351-6.31-.864-8.293-2.518-2.281-2.524-3.081.07-3.801 1.498-.411 1.992-1.115 1.585-2.112-.51-1.296.187-1.602 3.487-1.627 3.9-.03 4 .07 2.514 1.78-.892 1.008-1.575 3.313-1.56 5.313.115 1.799.03 3.8-.065 4.4-.967 4.308 2.759 7.68 5.338 4.96 2.084-2.116 1.905-12.415-.214-14.8-1.513-1.688-1.114-1.79 8.388-1.564 9.902.224 9.902.224 10.23 3.722.214 1.898.148 6.399-.225 9.902l-.65 6.405-25.105-.507c-13.902-.193-32.506-.65-41.409-.982l-16.304-.475-.07-9.2c-.04-5 .226-9.502.624-9.805.793-.906 6.193-.947 12.899-.199m50.95 6.31c.02 2.599-1.98 2.514-2.302-.183-.312-1.598.083-2.2.986-1.908.702.295 1.309 1.19 1.316 2.09m.55 6.595c.009 1.1-.482 2.304-1.079 2.708-1.394.811-2.91-1.377-2.225-3.283.785-2.006 3.288-1.625 3.304.575"/><path d="M220.588 420.938c-.044 7.3.162 7.999 1.962 7.985 1.3-.01 1.696-.513 1.287-1.61-.307-.898-.634-4.495-.661-7.995-.035-4.5-.45-6.397-1.25-6.39-.9.006-1.282 2.31-1.338 8.01M253.93 413.182c-.296.602-.767 4.406-.835 8.506-.252 6.202-.042 7.5 1.26 7.79 1.401.19 1.494-.81 1.142-7.508-.569-8.996-.777-10.095-1.567-8.788M240.195 421.787c.004.5 1.308.99 2.908.978 1.7-.013 3.296-.525 3.592-1.028.395-.603-.808-.993-2.907-.977-2 .015-3.597.427-3.593 1.027M362.736 413.546c-1.481 2.511-2.363 4.918-1.96 5.215.604.596 2.983-2.223 3.666-4.328.294-.802 1.295-.71 3.303.375 1.607.787 3.213 1.575 3.714 1.771.402.197.7-.105.695-.705-.004-.5-1.212-1.591-2.718-2.28-1.606-.787-2.716-2.079-2.724-3.079.277-3.002-1.413-1.789-3.976 3.031M374.167 417.558c.007.9 11.05 6.416 11.745 5.81.397-.403-10.151-6.622-11.251-6.613-.3.002-.497.403-.494.803M350.683 419.739c-1.099.208-2.692 1.12-3.586 1.827-1.291 1.21-5.689 1.544-22.489 1.573-26.9.107-25-.008-23.791 1.183.503.496 9.407.928 20.407.843 10.7.018 20.602.242 22.004.531 1.402.19 3.313 1.675 4.125 3.169 2.229 3.783 9.957 7.423 13.95 6.493 3.893-.93 5.274-3.44 3.843-7.43-1.534-4.388-10.071-9.223-14.463-8.19m6.039 5.054c5.624 3.156 8.042 5.438 7.153 6.945-.296.502-2.003-.385-3.614-1.872-1.712-1.587-5.128-3.561-7.535-4.543-2.507-.88-4.516-2.065-4.52-2.465-.012-1.7 3.494-.927 8.516 1.935m-1.273 3.51c2.31 1.282 4.422 2.866 4.627 3.564.306.698-1.299.11-3.41-1.374-2.111-1.384-4.42-2.566-5.12-2.56-.6.004-1.504-.49-1.808-.987-1.013-1.692 1.192-1.109 5.71 1.356m-.88 2.606c1.505.689 2.713 1.68 2.717 2.18.008 1.1-5.614-1.757-6.626-3.25-.405-.697-.307-.997.194-.801.503.296 2.109 1.084 3.715 1.871M388.225 425.05c.004.5 5.93 3.955 8.337 4.837 3.61 1.372 1.492-1.012-2.824-3.079-4.616-2.164-5.519-2.457-5.513-1.757M401.681 432.348c.81 1.393 9.643 5.526 10.237 4.821.298-.302-1.713-1.687-4.523-3.065-5.32-2.66-6.524-3.05-5.714-1.756M556.824 437.356c-1.482 2.312-2.366 4.419-2.063 4.816.705.595.705.695 3.468-4.227 2.959-5.322 1.855-5.814-1.405-.589M416.34 439.935c.005.7 10.35 6.42 11.55 6.412.6-.005-1.513-1.589-4.527-3.466-5.125-3.26-7.032-4.046-7.023-2.946M612.11 448.332c-2.765 4.521-3.157 5.624-1.857 5.614 1-.007 5.732-8.844 5.028-9.438-.202-.299-1.69 1.413-3.17 3.824M430.4 447.827c.006.7 10.144 5.623 10.74 5.118.198-.301-1.712-1.587-4.323-3.067-4.52-2.465-6.424-3.05-6.416-2.05M445.563 455.911c.109 1.1 10.95 6.316 10.94 5.216-.006-.9-8.645-5.933-10.145-5.922-.5.004-.898.307-.795.706M605.11 461.286c-1.48 2.612-2.56 5.22-2.355 5.918.204.599 1.592-1.012 3.071-3.723 3.552-6.328 2.836-8.422-.717-2.195M460.524 463.797c.108.999 9.143 5.53 9.738 4.825.596-.505-7.243-5.545-8.743-5.533-.5.004-.998.308-.995.708M473.98 470.893c.81 1.294 8.74 5.233 9.335 4.629.299-.202-1.312-1.59-3.623-2.972-4.12-2.569-6.726-3.349-5.713-1.657M488.64 478.681c.008 1.1 7.835 4.64 8.63 3.934.495-.604-6.137-4.753-7.737-4.74-.5.003-.897.406-.893.806M531.382 484.053c-2.36 5.118-2.057 5.616.81 1.294 2.67-3.92 2.963-4.823 1.663-4.813-.5.004-1.588 1.612-2.473 3.519M501.285 484.584c-.592 1.005 7.748 6.14 9.848 6.125 1.3-.01-3.43-3.874-4.831-3.963-.5.004-1.705-.687-2.712-1.58-1.007-.892-1.909-1.085-2.305-.582M526.247 492.593c-.683 2.205-5.278 2.84-7.192.955-.605-.595-1.707-.887-2.506-.68-1.496.51 4.23 3.767 6.63 3.748 1.6-.012 5.57-3.743 5.56-5.242-.013-1.6-1.906-.686-2.492 1.219M620.402 499.37c-1.178 2.809-1.268 4.11-.354 6.003 1.73 3.787 2.323 2.982 2.373-3.519-.025-3.3-.146-5.999-.346-5.997-.1 0-.887 1.607-1.673 3.513M623.818 501.344c.019 2.5.534 4.496 1.034 4.492.6-.005.993-.908.985-2.008s.384-2.003.884-2.007c.5-.003 1.307.89 1.616 1.988 1.23 3.89 3.517 2.273 3.48-2.527-.019-2.5-.434-4.497-1.034-4.492-.5.004-.991 1.208-.98 2.708-.078 2.8-.078 2.8-1.8.013-2.53-4.08-4.225-3.367-4.185 1.833M634.301 499.163c-2.965 4.523 1.67 9.088 6.147 6.053 2.786-1.821 3.064-4.624.747-6.906-2.218-2.283-5.115-1.96-6.894.853m6.21 1.152c.305.798-.183 2.302-1.076 3.209-1.489 1.511-1.689 1.513-3.2.024-2.116-2.083-1.137-4.791 1.563-4.812 1.1-.008 2.305.683 2.712 1.58M651.802 499.229c.01 1.4.31 1.397 1.503.388 2.385-2.018 1.91 1.286-.473 3.504-2.78 2.521-2.473 3.519 1.027 3.492 1.7-.013 2.996-.523 2.992-1.023-.004-.6-.508-.996-1.107-.991-.6.004-.407-.897.483-2.104.791-1.206 1.179-2.81.873-3.507-.715-1.995-5.313-1.76-5.298.24M659.236 503.672c-.054 5.9.047 6 1.327 3.39.986-1.708 1.169-4.01.753-6.106-1.041-5.292-2.031-3.985-2.08 2.716M547.71 500.528c-1.99 1.315 4.653 7.065 10.267 8.822 3.308 1.074 5.423 2.958 10.27 9.12l6.06 7.755 8.4-.065c4.5-.034 8.6-.066 9 .031.4-.003.897-.407 1.093-1.008.194-.702-2.709-1.08-8.708-1.034-9 .07-9 .07-11.828-3.509a243 243 0 0 0-5.046-6.061c-1.211-1.391-2.73-3.78-3.54-5.173-1.726-3.287-4.545-5.866-8.358-7.436-4.916-2.163-6.119-2.453-7.61-1.442m8.33 3.936c1.609 1.188 2.717 2.28 2.52 2.581-.596.605-6.419-2.35-7.229-3.645-1.113-1.691 1.592-1.112 4.709 1.064M643.852 505.79c.004.5.506.696 1.003.392.598-.304.994-.807.992-1.107-.002-.2-.403-.397-1.003-.393-.5.004-.996.508-.992 1.108M596.987 523.45l.094 12.3 14.305.59c7.802.24 28.006.685 45.009.955l30.703.364-.093-12.1c-.05-6.6-.494-12.296-.896-12.593-.904-.493-23.109-1.023-65.915-1.594l-23.302-.221zm59.831-9.16 27.204.392-.223 10.102-.222 10.102-16.001-.077c-42.404-.275-67.41-1.083-67.719-2.18-.204-.599-.238-4.999-.076-9.9l.233-8.702 14.8-.114c8.1-.062 27.001.093 42.004.378"/><path d="M608.822 515.06c.002.2-.175 3.2-.348 6.702-.174 3.402-.645 7.205-.937 8.208-.489 1.503-.185 2.001 1.215 1.99 1.6-.012 1.793-.914 1.74-7.913-.034-4.4-.364-8.298-.767-8.695q-.755-.594-.903-.293M617.933 516.39c-1.585 1.912-.27 4.001 1.618 2.387 1.093-.908 1.395-.71 1.407.89.009 1.1-.582 2.304-1.18 2.608-.996.508-.994.708.01 1.2.602.296 1.215 1.991 1.228 3.691-.077 3-.076 3.1-1.49 1.311-.809-1.093-1.812-1.586-2.21-1.183-1.19 1.11 1.232 4.091 3.332 4.075 1.7-.013 1.893-.915 2.042-7.516.063-4.9-.259-7.698-1.063-8.192-1.708-1.087-2.307-.982-3.694.728M639.944 517.72c-.592 1.105-.781 2.506-.376 3.203.406.697 1.202.191 1.99-1.315 1.282-2.41 1.282-2.41 1.403.39.012 1.5-.864 4.606-2.047 6.815-1.083 2.309-1.767 4.314-1.566 4.512.303.298 1.705.587 3.306.675 2.401.181 2.998-.223 3.182-2.325.284-2.002.083-2.2-1.01-1.192-2.484 2.02-2.798.222-.729-3.794 1.281-2.51 1.764-4.714 1.251-6.41-.824-3.194-3.927-3.47-5.404-.559M650.85 518.537c-.087 1.7-.171 3.701-.267 4.302-.094.7.81 1.294 1.91 1.285 1.4-.01 2.106.784 2.321 2.682.215 1.999-.078 2.801-1.178 2.81-.9.006-1.604-.488-1.608-.988-.005-.6-.408-.997-1.008-.992-1.6.012-1.171 3.709.534 4.396 2.307.882 4.497-.435 5.076-3.14.777-3.006-1.056-7.292-3.156-7.275-2.4.018-1.721-2.787.776-3.207 2.896-.422 2.383-2.218-.82-2.593-2.203-.283-2.5.119-2.58 2.72M662.137 516.75c-.595.604-1.188 1.609-1.185 2.009.01 1.3 2.807.878 3.296-.525.296-.603.6-.005.612 1.495.112 1.6-.279 2.802-.879 2.807-.5.004-.994.708-.988 1.508s.512 1.496 1.012 1.492c.6-.005 1.006.892 1.015 1.992s-.385 2.003-.985 2.008c-.5.004-1.004-.493-1.007-.993-.005-.6-.408-.997-1.008-.992-.5.004-.993.908-.985 1.908.016 2.1 2.225 3.283 4.518 2.365 2.294-.818 1.58-15.613-.624-16.096-.9-.093-2.097.317-2.792 1.022M628.49 523.708c-.69 1.306 1.718 2.387 4.014 1.87.9-.107 1.594-.813 1.59-1.313-.01-1.4-4.815-1.863-5.605-.557M540.314 514.285c-.596.405-1.883 2.115-2.87 3.922-1.579 2.713-1.673 3.413-.463 4.804 1.817 2.186 11.058 7.415 13.058 7.4 1.6-.012 3.119 2.476 13.876 22.894 10.045 18.824 7.83 16.94 19.53 16.85 7.2-.055 9.997-.376 9.69-1.274-.305-.697-3.91-1.27-9.912-1.524-7.302-.244-9.606-.726-10.415-1.92-.507-.896-3.753-6.871-7.2-13.145-3.35-6.274-7.305-13.544-8.825-16.133-3.141-5.376-3.354-6.974-1.278-10.19 2.076-3.116 1.264-4.61-4.363-8.167-5.226-3.36-9.136-4.63-10.828-3.517m3.33 3.875a1.2 1.2 0 0 1-1.4.01c-.303-.397-.005-.7.695-.705s1.002.293.705.695m2.81 1.278c.304.498.408.997.108 1-.3.002-.804-.494-1.108-.992-.304-.598-.407-.997-.107-1 .3-.002.803.395 1.107.992m-.281 2.403c2.715 1.979.92 2.693-2.293 1.017-1.606-.788-2.913-1.677-2.914-1.877-.008-1 3.597-.428 5.207.86m5.809 1.155c.001.2-.9.007-2.005-.585-1.104-.591-2.01-1.284-2.012-1.584-.002-.2.9-.007 2.004.584 1.105.592 2.01 1.285 2.013 1.585m-1.261 5.11a1.2 1.2 0 0 1-1.4.01c-.303-.397-.005-.7.695-.705s1.002.293.705.695"/><path d="M688.025 528.051c.009 1.2 4.717 2.264 9.817 2.225 3.5-.027 3.5-.027 2.967 8.678-.363 4.902-.596 13.605-.55 19.504l.082 10.8-6.9.053c-9.5.073-10.185 1.878-.883 2.207l7.303.244-.062 5c-.08 2.701-.132 8.802-.197 13.402l-.036 8.4-25.204-.506c-13.903-.293-42.507-.773-63.61-1.111l-38.306-.506-11.256-7.314c-6.231-4.052-15.177-9.984-20-13.047-4.925-3.162-8.848-6.032-8.85-6.332.097-.4.686-1.805 1.476-3.211.886-1.707.977-2.908.371-3.703-.706-.795-.517-2.196.468-4.204.888-1.607 1.272-3.61.966-4.407s.377-3.003 1.463-4.812c1.186-1.909 2.067-4.316 2.06-5.316-.01-1.1.678-2.805 1.57-3.812 1.984-2.115.77-4.006-3.849-6.37-3.011-1.478-4.809-1.164-4.792 1.036.005.7-.983 2.208-2.274 3.418-2.383 2.218-2.383 2.218-6.4.049-4.016-2.17-4.016-2.17-7.401-.143-3.086 1.824-3.38 2.526-3.84 7.73-.369 4.202-.054 6.1.954 7.192 1.31 1.29 1.315 1.89-.161 5.002-.885 2.007-1.669 4.113-1.664 4.713s-1.48 2.611-3.367 4.326-3.765 4.529-4.053 6.13c-.388 1.604-1.465 4.512-2.55 6.52-.984 2.008-1.86 5.315-1.844 7.315s-.565 4.505-1.157 5.61c-1.778 2.813-.162 4.9 5.762 7.955 4.016 2.07 4.917 2.262 5.307.96.294-.803 2.375-3.319 4.658-5.537s4.958-5.438 5.745-7.144c.886-1.807 2.965-4.623 4.652-6.236 1.587-1.712 2.97-3.923 2.963-4.923s.778-2.806 1.769-4.013c1.683-2.213 1.683-2.213 22.688 11.426l21.006 13.639 30.604.465c16.802.17 45.806.548 64.408.805l33.704.341v-12.9c.046-7.1.093-14.001.182-15.402.09-1.4.27-4.002.355-5.903.174-3.401.174-3.401 12.678-2.897 10.704.518 12.503.304 12.494-.896s-2.112-1.484-12.611-1.403l-12.6.096.578-15.904c.415-11.004.277-16.003-.427-16.498-2.01-1.184-14.215-1.89-14.206-.79m-148.936 8.944c.002.3-.196.502-.496.504s-.502-.196-.504-.496.196-.501.496-.504c.3-.002.502.196.504.496m-1.985 2.016c1.01 1.192 1.012 1.492-.288 1.502-.8.006-2.006-.685-2.712-1.48-1.009-1.192-1.011-1.492.289-1.502.8-.006 2.005.685 2.711 1.48m-17.68 2.636c.618 2.295.318 2.397-2.393.918-1.104-.492-1.71-1.387-1.415-1.99.987-1.607 3.192-1.024 3.808 1.072m4.696-.537c1.412 1.59.627 3.496-1.573 3.513-.8.006-1.408-.99-1.42-2.49-.02-2.8 1.176-3.209 2.993-1.023m11.307.814c2.012 1.584 2.117 2.283.545 5.896-1.378 2.91-2.974 3.423-4.49 1.434-1.311-1.59-2.455-7.281-1.661-8.087.992-1.008 3.695-.629 5.606.757m-17.175 3.432c1.909 1.085 2.92 2.577 2.931 3.977.02 2.6-.678 2.806-4.39 1.334-2.005-.685-2.612-1.58-2.63-3.98-.027-3.5.172-3.601 4.09-1.331m9.936 4.623c-.694.706-1-.092-.919-2.493-.025-3.2.075-3.3.992-1.007.613 1.595.622 2.795-.073 3.5m-2.603-.38c.314 1.798 1.223 2.991 2.123 2.984 1.7-.013 1.907.886.622 2.796-.691 1.205-1.191 1.209-3 .123-1.507-.989-2.118-2.384-2.139-5.084-.034-4.5 1.462-5.011 2.394-.819m-7.671 3.76a1.2 1.2 0 0 1-1.4.01c-.303-.397-.005-.7.695-.705s1.002.292.705.694m3.007.976a1.2 1.2 0 0 1-1.4.011c-.303-.398-.005-.7.695-.705s1.002.292.705.694m12.605.504c.305.697-.082 2.4-.772 3.706-1.28 2.51-1.28 2.51-2.001-.185-1.03-3.792 1.447-6.911 2.773-3.521m-8.27 4.063c6.73 3.849 8.043 5.539 6.266 8.452-.693 1.006-2.297.418-6.818-2.247-3.215-1.976-6.929-3.747-8.13-4.038-2.606-.68-2.707-.78-1.328-3.49 1.283-2.21 4.286-1.833 10.01 1.323m-4.152 6.132c6.324 3.152 7.736 4.741 6.257 7.453-1.28 2.51-1.48 2.61-4.798.336-1.507-.988-4.018-2.369-5.724-3.156-5.118-2.36-5.622-2.857-4.239-5.067 1.48-2.512 2.782-2.422 8.504.434m-5.554 6.043c6.622 2.85 10.246 5.922 9.462 8.028-.686 1.905-2.486 1.919-4.5.134-.905-.693-4.42-2.766-7.834-4.54-4.216-2.067-6.028-3.553-5.636-4.557.685-2.005 2.387-1.818 8.508.935m-2.842 7.622c7.629 3.642 8.133 4.238 6.26 7.852-1.673 3.413-2.67 3.821-4.386 1.734-.706-.794-3.72-2.471-6.728-3.648-3.01-1.277-5.42-2.459-5.422-2.859-.011-1.4 3.261-5.025 4.561-5.035.8-.006 3.307.875 5.715 1.956m-2.814 11.122c6.531 4.05 5.336 4.66-1.993.915-7.029-3.646-7.33-3.943-4.83-3.963 1.099-.008 4.21 1.368 6.823 3.048m-3.873 3.63c3.313 1.575 4.635 4.465 2.645 5.78-.697.405-4.911-1.462-8.93-3.932-.604-.395 1.073-3.508 1.872-3.514.4-.003 2.407.781 4.413 1.666M732.48 548.11c-3.292 1.026-3.292 1.026-3.21 11.826.062 8 .487 11.196 1.493 11.988.906.794 13.407.898 44.205.561l42.897-.63.212-11.401c.052-6.301-.291-11.898-.795-12.395-1.21-1.19-80.611-1.18-84.802.052m82.789 11.265.076 9.9-19.197.447c-10.598.282-29.098.424-40.999.315l-21.802-.132-.076-9.9-.077-10 41-.315 40.998-.315z"/><path d="M741.206 551.444c-.487 14.804-.374 16.503 1.126 16.492 1.3-.01 1.49-1.312 1.14-7.81-.232-4.198-.862-8.093-1.366-8.69q-.908-.892-.9.008M750.906 551.47c-1.289 1.41-.672 3.604.823 2.993 1.795-.714 2.119 2.384.333 4.198-.894.906-.69 1.305.513 1.796 1.906.685 2.33 3.882.738 4.894-.598.305-1.3-.09-1.607-.888-.815-1.993-2.416-2.081-2.401-.181.015 2 2.528 3.68 4.323 2.967 1.994-.716 2.57-3.82 1.72-10.414-.43-3.797-1.143-5.591-2.145-5.783-.9-.094-1.9.014-2.297.417M772.41 551.904c-1.389 1.41-1.563 4.812-.263 4.802.5-.004 1.092-1.008 1.382-2.31.286-1.903.385-2.003 1.097-.409.509 1.096.127 3.5-1.248 6.71-2.651 6.42-2.645 7.22.752 6.794 2.098-.216 2.793-.921 2.878-2.822.09-1.4-.014-1.9-.31-1.298-.294.703-1.19 1.31-1.99 1.316-1.1.008-.907-.993.766-4.506 1.771-3.714 1.963-4.815.946-7.008-1.321-2.79-2.224-3.083-4.01-1.269M781.813 552.232c-.784 2.106-.747 6.906.16 7.699.302.398 1.2.19 1.797-.314 1.59-1.312 2.81 1.379 2.031 4.085-.684 2.005-2.48 2.619-2.493.919-.004-.6-.407-.997-1.007-.993-1.9.015-.978 2.908 1.126 3.492 2.506.78 3.5-.027 4.372-3.734.484-2.104.075-3.3-1.94-5.285-2.721-2.68-2.735-4.48-.035-4.5.8-.006 1.394-.71 1.388-1.51-.015-2-4.615-1.965-5.399.14M792.823 553.447c-1.971 3.816-1.943 7.416-.015 11.1 2.029 3.785 4.123 2.97 5.584-2.042.977-3.108.865-4.607-.358-7.598-2.038-4.884-3.34-5.274-5.211-1.46m3.443 5.574c.042 5.5-1.244 7.31-2.473 3.52-.819-2.395.33-9.004 1.53-9.013.5-.004.92 2.493.943 5.493M804.913 552.154c-.296.503-.975 3.308-1.451 6.312-.577 3.004-1.352 6.31-1.645 7.213-.392 1.103-.286 1.802.414 1.797.6-.005 1.091-1.109 1.08-2.509-.013-1.8.481-2.504 1.981-2.515s2.006.684 2.02 2.484c.012 1.6.619 2.496 1.618 2.488s1.396-.61.987-1.808c-.207-.898-1.033-4.292-1.758-7.486-1.243-5.59-2.358-7.582-3.246-5.976m1.058 7.493c-.295.702-.499.203-.51-1.197-.01-1.4.186-1.901.49-1.303.206.698.215 1.898.02 2.5M759.77 559.801c-.395.603 1.008.993 3.408.974 2.3-.017 4.096-.531 4.092-1.031-.004-.6-1.507-.989-3.407-.974s-3.797.43-4.093 1.031M596.14 556.458c-.495.604-.854 6.007-.806 12.206l.086 11.2 6.304.552c9.906.724 81.61.973 82.104.17.197-.402.555-5.905.606-12.206l.312-11.503-5.005-.661c-8.009-1.039-82.509-.767-83.601.242m62.416 1.82 22.704.426.076 9.9.076 9.9-25.702-.103c-14.2.01-32.702-.149-41.003-.285l-15.302-.183-.077-10-.076-9.899 18.3-.14c10.1-.078 28.601.08 41.004.385"/><path d="M617.565 559.593c-.698.306-1.29 1.41-1.281 2.51.013 1.7.314 1.798 1.506.789 1.192-1.01 1.493-.912 1.506.788.009 1.1-.583 2.205-1.18 2.51-.998.407-.995.707.013 1.8.606.695 1.219 2.39 1.23 3.79-.081 2.5-.081 2.5-1.495.711-1.818-2.286-2.912-1.577-1.99 1.316.921 2.793 4.32 2.667 5.398-.242s.096-13.5-1.407-13.99c-.602-.195-1.702-.186-2.3.018M607.173 560.673c.004.5.027 3.6.153 7 .13 3.898-.251 6.301-.851 6.306s-1.097.408-1.092 1.008c.003.5 1.207.991 2.607.98 2-.015 2.497-.419 1.988-1.615-.307-.898-.635-4.495-.662-7.995-.027-3.6-.449-6.397-1.049-6.392-.5.004-.997.307-1.094.708M637.58 561.44c-.293 1.002-.784 2.106-.981 2.507s.107.9.71 1.295c.602.295 1.397-.41 1.887-1.715.784-2.006.983-2.107 1.596-.512.508 1.096-.172 3.702-1.847 7.015-2.461 5.019-2.46 5.219-.553 6.104 2.61 1.18 5.001.062 4.983-2.338-.011-1.4-.514-1.796-2.011-1.385-1.896.515-1.897.415.174-3.401 2.564-4.72 1.828-9.315-1.372-9.29-1.1.008-2.193.817-2.587 1.72M647.97 560.26c-.99 1.108-.836 8.207.27 8.898.501.296 1.2.09 1.595-.512.889-1.507 2.499-.22 2.515 1.98s-2.17 3.917-2.783 2.222c-.614-1.895-2.21-1.383-2.194.717s2.225 3.283 4.419 2.466c3.29-1.325 2.42-10.419-.98-10.393-2.4.019-1.721-2.787.776-3.206 1.198-.209 2.093-.816 1.99-1.315-.31-1.198-4.615-1.865-5.607-.857M659.475 560.772c-1.29 1.31-1.663 4.813-.563 4.804.4-.003 1.294-.81 1.986-1.815 1.188-1.61 1.288-1.51 1.405.589.009 1.2-.87 3.907-1.955 5.915-2.66 5.12-2.452 6.32.948 6.293 3.4-.026 4.59-1.335 3.571-3.827-.51-1.397-.71-1.395-1.502-.189-1.679 2.713-2.198.217-.622-2.895 3.253-6.225.701-12.906-3.268-8.875M625.828 567.83c-.296.502.01 1.3.912 1.593 2.107.784 6.101.053 6.092-1.147-.01-1.4-6.215-1.852-7.004-.446M486.129 607.504c-1.672 3.713-1.672 3.713 1.146 5.992 2.817 2.178 9.444 5.727 12.45 6.604.802.194 2.3-.218 3.193-1.024 1.49-1.312 2.192-1.117 6.315 1.851 18.299 12.86 15.29 11.683 30.69 11.665 7.7.04 14.401.09 15.102.184.6.095 1.297-.41 1.492-1.012.294-.802-4.71-1.264-15.713-1.679l-16.106-.676-9.453-6.928c-5.23-3.86-9.56-7.627-9.565-8.427-.007-.8-.616-2.095-1.422-2.789-1.914-1.885-13.057-7.4-14.957-7.385-.8.006-2.188 1.617-3.172 3.624m3.107.976c-.393.903-.888 1.507-1.09 1.209-.303-.298-.31-1.298.083-2.201s.888-1.507 1.09-1.208c.303.297.31 1.297-.083 2.2m3.207.876c-.59 1.304-1.483 2.211-1.885 1.914-.904-.493 1.066-4.408 2.266-4.417.4-.003.308 1.097-.38 2.503m5.207.86c.006.8-.685 1.905-1.48 2.611-1.192 1.01-1.593.912-2.103-.384-.714-1.794 1.262-4.91 2.67-4.02.501.296.908 1.093.913 1.793m3.028 3.677c-.592 1.004-1.485 1.911-1.985 1.915-1.5.011-1.23-3.79.267-4.302 1.994-.716 2.802.278 1.718 2.387m2.41 1.381c-.393.803-.788 1.506-.988 1.508-.2.001-.405-.697-.411-1.497s.388-1.503.988-1.508c.5-.004.706.695.412 1.497M559.208 617.543c-.295.703-.552 6.205-.706 12.306l-.115 11.001 42.706.572c23.503.32 43.403.267 44.3-.04 1.197-.51 1.48-2.711 1.407-12.211-.065-8.4-.39-11.697-1.292-11.99-.702-.195-20.304-.445-43.607-.666-34.602-.234-42.301-.075-42.693 1.028m84.588 11.151.077 10-40.999.315-40.999.314-.076-10-.077-9.999 40.999-.315 40.998-.315z"/><path d="M569.59 628.264c-.235 8.402.174 9.599 2.967 8.577 1.196-.509 1.293-.91.384-2.003-.706-.794-1.13-3.991-.959-7.693q.253-6.152-.95-6.592c-.803-.294-1.184 2.109-1.441 7.71M579.434 620.888c-1.588 1.512-.674 3.405 1.322 2.79 2.394-.818 2.606.78.423 2.997-1.489 1.511-1.487 1.711.122 2.899 1.307.89 1.615 1.888 1.125 3.191-.687 1.806-.787 1.807-2.1.117-1.818-2.387-3.003-.377-1.282 2.31 1.62 2.487 3.42 2.573 4.702.163 1.084-2.008.705-12.305-.409-14.097-.809-1.194-2.911-1.478-3.903-.37M600.739 621.424c-.594.805-.98 2.508-.67 3.806.417 2.297.417 2.297 1.2-.01.39-1.203 1.082-2.208 1.582-2.212 1.6-.012 1.03 3.792-1.044 7.209-2.863 4.822-2.548 6.82 1.052 6.792 2.6-.02 2.997-.423 2.98-2.623s-.22-2.499-1.511-1.389c-1.987 1.716-2.107-.884-.028-3.6 1.783-2.313 1.85-6.614.237-8.202-1.612-1.587-2.311-1.482-3.798.23M611.433 620.542c-.397.403-.681 2.506-.665 4.606.024 3.1.33 3.797 2.029 3.784 2-.015 2.511 1.48 1.434 4.39-.49 1.303-.89 1.406-1.996.515-1.812-1.487-2.706-.68-1.789 1.513 1.02 2.593 4.315 1.867 5.492-1.142 1.272-3.61.346-7.003-2.26-7.783-2.506-.78-2.022-2.884.974-3.307 1.199-.21 1.993-.916 1.789-1.514-.41-1.397-3.916-2.07-5.008-1.062M621.033 620.569c-1.495.611-1.67 3.913-.263 4.802.602.295 1 .092.997-.408-.005-.6.591-1.105 1.391-1.11 1.1-.01 1.206.79.529 3.695-1.062 5.009-1.027 9.609.067 8.8.598-.304 1.28-2.71 1.56-5.312s1.055-5.808 1.545-7.112c1.375-3.31-1.74-5.087-5.826-3.355M588.298 629.12c.304.498 1.907.986 3.507.973 1.6-.012 3.196-.524 3.493-1.027.395-.603-1.008-.992-3.508-.973s-3.897.43-3.492 1.027M486.57 625.801c-2.96 5.323-3.254 6.125-1.854 6.115.5-.004 1.588-1.612 2.473-3.52.886-1.906 2.072-3.715 2.57-4.02 1.194-.708 1.273-3.51.273-3.501-.5.003-1.984 2.215-3.463 4.926M244.912 632.357c-1.79 1.314-4.778 2.837-6.474 3.35-5.388 1.542-11.465 4.588-11.755 5.89-.195.702-2.778 2.922-5.762 5.045-3.282 2.325-6.159 5.347-7.242 7.556-1.772 3.614-1.771 3.714 1.822 15.886 3.182 10.576 3.499 12.774 2.625 16.18-.776 3.207-.561 5.105 1.284 10.991 1.23 3.99 2.171 9.284 2.091 11.884-.169 4.002.238 4.899 2.35 6.382 1.607.988 3.51 1.374 5.007.962 1.497-.411 2.8-.021 3.607.872 2.422 2.882 8.713 1.734 18.076-3.139 9.263-4.87 10.76-5.382 9.175-3.37-.595.705-2.371 3.818-3.948 6.83-1.677 3.013-5.82 10.445-9.173 16.571-12.43 22.296-15.094 26.917-25.064 43.894-1.578 2.812-3.463 4.827-4.463 4.835-1 .007-2.593.92-3.683 2.128-3.173 3.624-5.069 4.139-8.282 2.464-4.116-2.069-5.814-1.856-7.692 1.059-2.273 3.517-.953 6.107 4.77 9.063 2.711 1.48 4.925 3.263 4.93 3.863.005.7-1.581 2.512-3.57 4.027-3.578 2.828-3.578 2.828-11.41-1.312-4.417-2.266-9.131-4.03-10.931-4.016-4.1.031-10.574 3.38-12.55 6.496-1.977 3.015-.908 12.107 1.612 14.588 1.007.992 2.032 4.185 2.557 7.48.324 3.098 1.563 8.189 2.688 11.38 1.023 3.093 1.963 8.286 1.989 11.585.043 5.7.246 6.099 3.563 8.273 1.91 1.186 4.13 3.769 5.044 5.662 3.056 7.277 5.462 8.058 15.238 4.883 9.576-3.174 9.976-3.177 15.7-.02 5.323 2.959 6.637 4.849 6.675 9.748.02 2.5.63 3.996 2.037 4.785 1.105.691 2.014 1.884 2.02 2.584.005.7.718 2.395 1.628 3.688 2.53 3.78 6.925 3.247 14.487-1.711 8.856-5.868 12.64-7.998 14.34-8.01 2.4-.019 4.33 3.966 9.244 18.829 6.248 19.253 7.559 20.643 18.037 17.762 3.892-1.13 4.892-1.038 7.304.444 1.507.888 6.429 3.75 11.049 6.315 5.624 3.157 8.24 5.137 8.25 6.437.02 2.8 2.868 8.878 4.879 10.363 2.314 1.782 4.213 1.668 8.098-.262 3.487-1.727 6.085-2.047 10.193-.979 2.905.678 3.105.677 23.323-10.179 14.94-7.915 16.032-8.823 26.234-21.702 10.696-13.583 12.084-15.093 15.47-16.92 3.786-1.929 5.369-4.14 5.445-7.241-.018-2.3 1.674-3.413 15.82-10.422 8.768-4.268 16.64-7.828 17.54-7.835.8-.006 2.706.68 4.013 1.57 3.317 2.174 5.708 1.055 5.283-2.242-.319-2.397.277-2.902 6.658-5.45 20.24-7.957 37.84-20.892 48.827-35.677 12.373-16.695 20.066-43.655 17.045-59.333-2.603-13.48-12.004-26.508-23.147-32.123-7.227-3.544-9.934-4.324-19.239-4.952-7.504-.542-7.504-.542-8.13-4.038-1.258-7.39-6.212-14.453-12.336-17.606-5.321-2.659-10.632-4.118-11.225-3.113-.396.503.009 1.1.71 1.294 10.724 3.018 17.665 8.365 19.718 15.25 1.948 6.184 1.66 7.887-1.435 8.51-2.995.623-5.102-.26-16.052-6.777-7.335-4.443-11.745-5.81-7.62-2.441 1.208.99 6.734 4.348 12.258 7.406 10.043 5.623 12.058 7.508 8.058 7.538-2.5.02-11.869 4.092-11.861 5.092.018 2.4-4.086 1.831-10.613-1.619-6.224-3.152-7.527-3.542-9.72-2.525-2.989 1.423-7.443 7.357-5.443 7.342.8-.007 2.189-1.417 3.275-3.226 1.48-2.611 1.978-2.915 2.388-1.518.407.897.529 3.696.349 6.298-.366 4.502-.366 4.502-4.17 3.932-3.305-.575-4.002-.27-5.088 1.639-.984 2.007-.78 2.506 1.635 4.487 2.515 1.981 2.617 2.18 1.027 3.493-.894.806-2.483 2.219-3.576 3.227s-2.587 1.72-3.388 1.526c-1.102-.191-1.108-1.091.164-4.701 1.075-3.309 1.165-4.61.26-5.102-.903-.493-.906-.893-.11-1.4 1.293-.91 1.48-2.611.18-2.601-.9.007-4.062 5.031-5.337 8.241-.292 1.002-.186 1.802.314 1.798s1.193-.91 1.484-2.112c1.465-4.511 1.292-1.01-.065 4.601-.875 3.307-1.525 9.712-1.59 14.213.035 4.6-.237 8.302-.637 8.305-.3.002-2.31-1.183-4.32-2.567-2.11-1.384-4.117-2.269-4.515-1.965-.694.805 2.122 2.883 8.548 6.234 2.911 1.478 5.325 3.26 5.33 3.86.017 2.3-6.12 10.347-9.802 12.775-3.582 2.427-5.277 3.04-16.255 5.925-2.696.62-4.788 1.637-4.785 2.037.01 1.2.71 1.194 10.09-1.278 9.981-2.577 15.253-6.217 19.697-13.551 1.679-2.813 3.057-5.624 3.052-6.224-.008-1.1 5.383-2.342 10.782-2.383 1.8-.014 5.61 1.157 8.32 2.536 5.12 2.461 5.12 2.461 12.807.802 4.193-.932 8.485-1.965 9.483-2.273 1.696-.513 1.799-.114 1.229 3.79-.382 2.404-2.044 7.317-3.817 10.83-5.81 11.745-13.16 18.402-24.034 21.685-7.383 2.357-23.538 8.281-28.919 10.723-11.161 5.086-13.257 5.602-15.971 3.823-1.407-.89-2.518-2.281-2.524-3.081s-.411-1.497-1.011-1.492c-1.6.012-1.081 2.508 1.038 4.992 1.11 1.291 2.02 2.484 2.02 2.584.002.2-2.985 1.923-6.671 3.752-13.947 7.007-21.216 11.063-21.208 12.063.003.5.306.798.804.594.399-.203 8.17-4.063 17.134-8.632 9.066-4.57 18.032-8.939 19.925-9.853 8.772-3.768 19.341-7.75 29.914-11.33 20.947-6.961 28.013-11.516 35.426-22.773 4.35-6.634 5.327-9.541 5.281-15.541-.023-3 .358-5.503.758-5.506s2.181-2.417 3.96-5.33c1.776-3.014 4.35-6.434 5.74-7.645 2.583-2.32 2.582-2.42 2.094-13.916-.364-8.298-.997-12.593-2.215-14.884-1.825-3.286-9.678-10.226-11.678-10.21-.6.004-1.104-.492-1.108-.992-.005-.6 3.392-1.026 8.292-1.064 23.3-.179 40.811 14.287 44.183 36.662 1.153 6.891.97 9.093-.855 18.907-3.749 19.73-10.35 32.58-23.844 46.385-12.205 12.494-18.87 16.945-39.001 26.1-2.59 1.22-4.984 2.138-5.284 2.14s-.524-3.096-.552-6.795c-.047-6.1-.355-7.098-2.57-8.98-1.409-1.29-2.32-2.683-2.024-3.185.296-.603.093-1.001-.607-.996-.7.006-.893 1.007-.682 2.405.416 1.997.02 2.5-2.477 3.02-2.396.518-2.792 1.021-2.379 2.718.412 1.597.215 1.898-1.09 1.308-3.21-1.275-7.012-1.546-8.903-.431-1.494.911-1.293 1.01 1.508 1.088 1.7-.013 3.201.176 3.203.376s-1.286 1.81-2.972 3.622c-3.57 3.928-4.03 9.132-1.014 11.209 1.81 1.286.815 1.993-11.538 8.188-13.447 6.904-13.447 6.904-15.263 4.818-1.009-1.093-5.533-4.258-10.154-6.922-6.931-4.047-8.636-4.634-10.329-3.721-1.195.609-2.387 1.618-2.783 2.221-1.186 1.81-.854 5.907.769 8.895 1.319 2.49 1.222 2.89-1.06 5.208-2.878 2.922-3.053 6.123-.347 7.003 2.907.877 2.517 2.18-1.168 4.109-1.793.914-6.47 3.95-10.35 6.58-7.163 4.855-7.163 4.855-7.683 2.159-1.241-5.291-4.368-8.767-11.797-12.51-6.426-3.351-7.13-3.946-6.647-6.15.68-2.605-.324-3.097-2.11-1.283-.893.907-1.993.915-4.3-.067-4.315-1.767-4.52-2.466-1.648-6.188 2.275-3.217 2.368-4.118 2.734-21.521.446-20.104 1.125-22.81 6.984-28.255 4.369-4.033 6.57-3.95 10.802.217 3.526 3.473 4.655 7.165 4.815 15.064.127 3.399.229 3.698 1.217 2.09 1.48-2.611.308-11.902-2.022-15.884-1.014-1.793-2.928-3.578-4.133-4.169-4.916-2.162-3.323-3.074 14.53-9.212 7.58-2.558 11.066-4.485 8.066-4.462-.7.006-6.686 1.852-13.268 4.202-9.774 3.375-12.37 3.995-14.277 3.11-3.512-1.573-3.726-3.472-1.06-7.792 2.273-3.618 2.97-4.023 9.26-5.271 19.272-3.749 29.52-10.627 36.214-24.38 1.28-2.51 2.763-4.82 3.36-5.225 1.592-1.012.183-2.202-9.56-7.727-4.62-2.665-9.04-5.33-9.645-5.926-1.51-1.289-1.777-9.987-.377-9.998.6-.004.996-.507.991-1.107-.004-.6-.906-.893-2.004-.585-1.198.31-2.3-.082-2.807-.878-.71-1.195-1.108-.992-1.991 1.115-1.671 3.813-4.176 3.232-4.208-.968-.015-1.9-.427-3.496-.827-3.493-.7.005-13.045 20.2-17.58 28.635-2.267 4.318-5.327 9.642-14.212 24.61-5.034 8.54-9.97 16.877-10.857 18.584-.988 1.608-4.047 6.932-6.81 11.753-12.927 22.6-14.9 26.115-14.891 27.315.02 2.5 1.218 2.39 3.498-.227 1.785-2.014 2.582-2.42 3.488-1.627.907.893.713 1.695-.875 3.307-2.48 2.52-2.576 3.12-.576 3.105.8-.006 2.09-1.316 2.977-3.023.888-1.607 1.777-3.014 2.077-3.016.2-.002-.19 1.401-1.077 3.008-1.182 2.31-1.273 3.51-.46 5.104.81 1.394 1.512 1.688 2.307 1.082.696-.605 5.575-3.343 10.953-6.184 6.274-3.449 9.664-4.775 9.67-3.875.014 1.7-17.278 15.834-19.478 15.85-1.7.013-5.415-1.958-24.5-12.812-6.93-3.947-15.969-8.977-20.085-11.146-8.836-4.632-9.138-4.83-8.248-6.137 2.77-3.921 31.645-20.343 49.585-28.281 10.963-4.785 14.355-5.81 14.367-4.31.005.7-3.05 6.623-6.9 13.053-3.75 6.429-6.908 12.053-6.903 12.653.004.5-.392 1.003-.792 1.006-.5.004-1.884 2.115-3.063 4.824-1.87 4.014-3.16 5.324-8.339 8.064-7.47 3.957-11.347 6.887-10.44 7.88.403.397 2.497-.419 4.486-1.834 8.457-5.665 10.656-5.782 5.698-.344-1.388 1.51-2.277 3.018-1.975 3.215.907.893 3.595-.627 4.281-2.433.392-1.003 2.265-4.517 4.34-7.833 3.752-6.23 18.46-31.443 21.811-37.669 4.242-7.633 21.91-37.87 23.591-40.382 1.088-1.508 1.878-2.915 1.875-3.215s1.378-2.91 3.056-5.823c7.699-13.16 8.878-15.869 7.078-15.855-.5.004-1.586 1.812-2.468 4.119l-1.67 4.013-4.82-2.663c-2.612-1.48-6.428-3.65-8.337-4.836-4.121-2.669-31.145-18.662-35.965-21.325-6.53-3.75-8.34-5.136-9.861-7.924-2.031-3.985-1.792-11.887.657-18.606l2.055-5.816 1.935 4.486c1.119 2.491 3.045 5.876 4.459 7.666 1.717 2.286 2.433 4.381 2.459 7.68.027 3.6.64 5.196 2.859 7.68 2.823 3.078 2.823 3.078 7.903.438 2.89-1.422 5.883-2.345 6.685-2.05 1.504.588 3.641 5.371 3.664 8.371.015 1.9 4.046 5.97 5.846 5.955.7-.005 3.192-1.024 5.682-2.343 3.188-1.625 4.479-2.835 4.466-4.435-.009-1.2 1.373-3.51 2.961-5.123 2.679-2.82 2.972-3.722 2.927-9.522-.028-3.6.245-7.202.538-8.105.293-.902.088-1.6-.412-1.597-1.6.013-2.374 3.519-2.32 10.419.042 5.5-.834 8.606-2.634 8.62-.3.002-.615-1.895-.633-4.295-.02-2.5-1.046-5.992-2.467-8.682-2.335-4.482-2.335-4.482-.245-5.798 2.586-1.82 2.773-3.621.183-2.201-2.789 1.421-2.789 1.421-3.621-2.773-.415-1.996-1.334-4.49-2.241-5.382-1.312-1.49-1.214-1.791 1.575-3.213 1.593-.912 4.488-1.634 6.288-1.648 3.5-.027 9.228 3.73 7.135 4.645-2.492 1.02-5.768 4.145-5.063 4.84.807.793 7.566-4.459 7.655-5.96.096-.5-1.115-1.891-2.625-3.18-3.623-2.972-8.823-3.032-14.7-.087-3.886 1.93-4.785 2.037-7.494.858-3.712-1.472-3.82-2.57-.944-5.693 1.19-1.31 1.78-2.614 1.478-2.911-.403-.397-2.291 1.217-4.273 3.532-1.983 2.216-4.369 4.134-5.269 4.141-1.9.015-5.569-8.957-4.279-10.267.993-1.008 9.396-.573 12.605.603 1.706.687 1.704.487-.41-1.297-3.323-2.975-6.627-3.55-11.315-1.913-3.192 1.024-4.292 1.033-6 .046-10.148-6.222-14.154-6.992-20.231-4.045-7.77 3.86-13.483 15.304-13.396 26.704.028 3.6-.35 6.503-.85 6.506s-1.292 1.01-1.683 2.213c-.39 1.203-4.63 9.036-9.567 17.374-4.836 8.238-9.969 17.078-11.35 19.588a694 694 0 0 1-6.51 11.55c-2.172 3.817-4.538 8.236-5.226 9.74-.688 1.606-1.679 2.814-2.279 2.819-.5.003-1.001-.193-1.003-.393-.002-.3 13.218-23.802 22.692-40.275 11.743-20.391 12.827-22.5 12.815-24.1-.006-.8-.412-1.496-1.012-1.492-.5.004-.994.708-.988 1.508s-.59 1.205-1.393.91c-.902-.292-2.688 1.521-4.96 5.339-1.975 3.115-3.558 5.327-3.563 4.727-.004-.5.586-1.804 1.378-2.91 2.767-4.222 6.609-11.851 6.105-12.347-.906-.794-3.585 1.927-3.571 3.727.006.9-.384 2.103-.88 2.707-.893.807-11.354 18.988-17.666 30.536-3.944 7.231-15.983 28.324-18.552 32.344-1.284 2.11-2.37 4.018-2.367 4.318s-4.635 8.436-10.361 18.08c-6.319 10.65-10.062 18.078-9.755 18.976.917 2.193 2.116 1.984 2.696-.52.291-1.203.986-1.809 1.59-1.413.803.394.809 1.194.02 2.6-1.182 2.409-.069 4.1 1.314 1.89.494-.804 3.85-6.43 7.405-12.458 3.653-6.028 6.82-10.452 7.024-9.854.205.599-.876 3.107-2.458 5.42-1.582 2.411-4.742 7.636-7.111 11.654-3.555 5.928-4.042 7.531-3.033 8.724 1.312 1.59 3.507.973 2.395-.619-.304-.497 1.486-1.911 3.977-3.03 2.491-1.12 4.581-2.436 4.578-2.935-.01-1.3-.61-1.296-4.096.631-1.693.813-3.29 1.325-3.491 1.127-.302-.198 1.374-3.41 3.645-7.128 3.753-6.13 5.842-7.545 5.87-4.046.006.8.51 1.397 1.01 1.393 1.5-.012 1.156 7.291-.428 9.403-.791 1.106-1.479 2.712-1.471 3.712.007.9-.683 2.205-1.478 2.911-1.988 1.615-1.865 4.515.158 7.6 2.933 4.277 2.032 4.084-9.818-2.326-13.857-7.393-19.085-11.053-16.085-11.076 2.3-.018 7.246-7.056 19.782-28.453 7.7-13.06 14.015-24.108 14.013-24.408s.786-1.807 1.775-3.214c1.089-1.509 3.26-5.225 4.837-8.238 5.522-10.142 10.75-19.483 14.108-25.109 1.777-3.013 3.947-6.93 4.934-8.538 7.399-13.257 7.988-14.662 7.373-16.557-.921-2.793-2.719-2.48-1.897.415.312 1.497-.073 3.4-1.062 4.908-1.383 2.21-2.28 2.618-6.58 2.55-3.201-.075-5.497.443-6.49 1.45-1.29 1.31-.889 1.407 4.008.97 6.995-.654 7.408 1.043 1.03 3.792-5.682 2.544-6.081 2.547-6.9.053-.924-2.993-9.586-11.127-14.506-13.69-2.41-1.18-5.817-2.154-7.717-2.14-3.8.03-3.901-.17-2.347-6.182.971-3.708.855-5.807-1.105-13.592-2.585-11.08-2.581-10.58-.675-9.795.802.294 2.098-.216 2.992-1.023 1.984-2.115.156-5.801-2.639-5.08-2.395.618-2.504-.48-.12-2.5 2.385-2.117 4.978-2.937 5.687-1.843.404.597 1.808.986 3.207.976 2-.016 2.403.281 1.813 1.686-6.48 15.55-1.838 34.015 10.827 42.518 4.725 3.264 4.213 1.667-1.227-3.59-7.858-7.44-10.3-13.022-10.282-23.623-.084-10.9 2.172-16.617 7.158-18.555 1.894-.715 5.284-2.04 7.478-2.858 5.883-2.245 31.674-3.443 43.486-2.034 15.214 1.784 34.058 7.439 42.598 12.674 2.914 1.777 7.133 4.245 18.884 10.855 2.813 1.678 5.927 3.454 6.73 3.948 1.61 1.088 23.604 13.42 31.136 17.562 5.423 2.858 11.75 6.51 26.82 15.394 6.127 3.553 11.45 6.513 11.75 6.51 2-.015-.118-2.299-4.135-4.568-3.919-2.37-4.323-2.867-2.727-3.48.997-.407 4.693-.835 8.093-.862 6.1-.146 8.79-1.367 5.681-2.543-2.006-.785-12.097.393-15.687 1.72-4.188 1.633-7.303-.344-7.436-4.643-.115-1.899-.946-5.993-1.97-9.085q-4.61-14.365-23.233-17.222c-3.004-.477-5.608-1.057-5.709-1.156-2.344-5.682-4.968-8.862-10.496-12.42-3.417-2.274-7.935-4.64-10.04-5.223-4.71-1.264-16.91-1.17-25 .192-5.092.94-6.693.851-9.304-.529-4.517-2.265-19.754-7.048-26.563-8.196-3.306-.674-11.41-1.312-18.113-1.56-12.303-.406-12.303-.406-14.236-4.592-2.543-5.68-4.755-7.263-11.564-8.411-8.312-1.436-10.61-1.219-14.489 1.611m5.912 1.455c.608 1.095 1.023 2.992.732 4.194-.286 1.803-.488 1.604-1.41-1.289-1.124-3.191-1.225-3.29-1.81-1.286-.682 2.305-2.475 3.22-2.49 1.32-.01-1.4 2.262-5.018 3.162-5.025.4-.003 1.207.89 1.816 2.086m5.303.36c-.587 1.704-2.489 1.518-3.102-.277-.206-.698.49-1.204 1.69-1.213 1.4-.01 1.904.485 1.412 1.49m5.61 1.356c-1.59 1.312-2.687 1.62-3.392 1.026-1.21-1.19 1.078-2.908 3.878-2.93 1.6-.012 1.501.189-.486 1.904m7.132 4.146c.713 1.594 1.124 3.091.926 3.293s-3.495.726-7.392 1.156c-6.994.754-6.994.754-4.71-1.264 1.291-1.21 2.987-1.823 3.789-1.529 2.407.882 4.587-1.735 3.864-4.63-.516-2.096-.417-2.296.791-1.206.805.594 2.02 2.485 2.732 4.18m-25.023-3.008c.004.6-.39 1.303-.988 1.607-.498.304-1-.092-1.007-.892-.007-.9.488-1.604.988-1.608.6-.004 1.003.393 1.007.893m-3.977 3.03c1.319 2.49 1.341 5.39.035 4.6-.502-.296-1.011-1.492-1.02-2.592-.016-2.1-1.218-2.39-4.106-.769-1.095.609-2.494.82-3.195.625-1.303-.39 3.872-3.63 5.971-3.746.7-.005 1.707.887 2.315 1.882m16.988-1.63c.008 1.1-1.889 1.514-2.496.619-.303-.498.093-1 .893-1.007.9-.007 1.601.188 1.603.388m7-.054c.002.3-.394.803-.992 1.108-.498.303-1 .107-1.003-.393-.005-.6.491-1.103.991-1.107.6-.005 1.002.192 1.003.392m-13.178 3.001c.908.993.413 1.697-2.078 2.916-5.379 2.742-6.976 3.054-6.29 1.249.294-.803.583-2.205.578-2.905-.007-.8.691-1.105 1.893-.814 1.003.292 2.2-.017 2.496-.62.888-1.506 2.089-1.416 3.401.174m-12.872 3.7c1.318 2.29.524 3.095-3.176 3.124s-10.172 3.678-11.45 6.488c-1.968 4.215-1.957 5.615.102 13.3 3.603 13.472 3.602 13.272.202 13.298-3.1.024-2.59 1.22-8.036-17.639-1.54-5.288-.969-8.992 1.81-11.714 2.282-2.317 10.548-6.881 11.552-6.289.503.296 2.2-.117 3.693-.928 3.686-1.928 4.086-1.931 5.303.36m7.43 3.742c-.7.206-1.9.215-2.5.02-.703-.295-.205-.499 1.195-.51 1.4-.01 1.902.186 1.304.49m-7.985 2.062c-.699.205-1.899.214-2.5.019-.702-.295-.204-.499 1.196-.51 1.4-.01 1.901.186 1.304.49m131.163 7.693c3.111 1.476 5.623 3.057 5.626 3.457.003.3-3.382 2.326-7.566 4.458-7.571 3.758-7.571 3.758-11.79 1.39-9.64-5.326-16.173-9.476-15.978-10.177.39-1.303 7.384-2.157 15.885-2.022 6.501.15 9.206.729 13.823 2.894m-141.694 1.388c-.398.303-.7.005-.705-.695s.292-1.002.694-.705c.303.398.308.998.011 1.4m153.76 7.32c.91 1.192 1.622 2.687 1.626 3.287.013 1.7-15.47 4.019-17.98 2.638-3.012-1.577-2.518-2.28 3.26-5.225 6.574-3.45 10.972-3.685 13.095-.7m-70.264 4.839c4.92 2.562 5.02 2.561 3.54 5.273-.788 1.506-1.672 3.513-1.966 4.415-.291 1.102-1.486 1.812-2.986 1.823-5.4.042-12.493 13.996-12.413 24.396.04 5.1 1.06 7.792 4.388 11.367 2.622 2.88.922 2.893-3.999.23-4.519-2.465-7.745-5.94-10.587-11.318-3.246-5.976-3.253-19.976-.11-27.3 4.817-10.938 13.393-14.104 24.133-8.886m86.736 4.334c8.92 2.632 16.192 11.876 16.36 20.675.029 3.9.029 3.9-3.688 1.728-3.616-2.072-5.726-3.356-13.56-7.796-1.808-.986-5.323-2.959-7.834-4.34-2.511-1.48-7.533-4.342-11.248-6.314-3.816-2.07-6.832-4.047-6.836-4.547-.01-1.4 21.494-.965 26.806.594m-78.984 2.407c.605.695 1.527 3.488 1.948 6.185.835 4.594 1.239 5.09 6.362 8.151 3.617 2.173 6.325 3.152 7.722 2.741 1.197-.31 2.499-.12 2.803.479 1.013 1.592 3.509 1.073 3.594-.828.093-.9.503.396.923 2.993.52 2.596 1.847 6.086 2.96 7.677 4.143 5.669 4.097 12.77.011 14.6-1.395.611-2.384 2.02-2.473 3.52-.089 1.4.114 1.799.306.797.488-1.603 3.275-3.325 4.182-2.432 1.008 1.093-.776 3.206-4.262 5.033-4.48 2.535-6.889 1.453-7.326-3.344-.534-4.496-2.758-7.579-7.78-10.44-4.42-2.666-7.124-3.146-7.711-1.441-.195.701-1.296.61-3.002-.177-2.007-.885-2.815-1.978-2.83-3.978-.012-1.5-.626-3.296-1.331-3.99-3.225-3.276-5.76-7.856-6.389-11.552-.737-4.794.545-7.204 3.945-7.23 1.2-.01 2.696-.52 3.39-1.226.893-.907 1.493-.912 2.4-.019 1.915 1.886 2.811 1.379 2.79-1.321-.01-1.4-.721-2.795-1.524-3.088-1.605-.688-2.118-2.384-.618-2.396.5-.004 1.305.59 1.91 1.286m-91.76 5.504c.017 2.3-2.163 4.917-3.963 4.931-1.4.01-2.005-.685-2.017-2.285-.01-1.3.279-2.702.677-3.005.991-1.107 5.293-.84 5.303.36m105.528 3.29c2.61 1.18 3.539 5.073 1.548 6.288-1.094.709-10.033-4.323-10.043-5.623-.005-.6 2.189-1.416 4.687-1.736.7-.005 2.403.382 3.808 1.071m-105.845 7.613c.615 1.896 1.539 4.989 1.952 6.685.621 2.796.425 3.297-1.275 3.31-2.5.02-3.51-1.373-5.05-6.561-1.848-6.186-1.659-7.588.944-7.208 1.602.188 2.61 1.38 3.43 3.774m114.383-2.678c.005.6-.596.504-1.501-.189-.806-.694-1.511-1.388-1.513-1.588-.001-.2.7-.106 1.502.188.803.394 1.508 1.089 1.512 1.589M236.7 695.822c2.308 1.083 5.323 3.06 6.732 4.249 2.518 2.28 7.974 9.539 7.982 10.639.003.4-1.787 1.713-4.077 2.931-3.585 2.028-4.383 2.234-6.492 1.05-1.908-.985-2.416-2.082-2.439-4.981-.032-4.2-2.445-5.882-4.926-3.363-1.29 1.21-1.283 2.11-.365 4.503 1.224 3.09.63 3.895-1.486 1.812-.706-.695-1.225-3.191-1.243-5.59s-.44-5.098-.946-5.994c-.407-.897-1.122-2.891-1.535-4.488-.618-2.396-.42-2.697 2.08-2.716 1.5-.012 4.506.865 6.715 1.948m46.708 13.942c-1.883 2.214-21.034 34.663-31.197 52.641-1.972 3.615-2.67 3.92-4.184 2.032-.706-.794.471-3.703 4.025-9.73 11.153-19.187 14.902-25.816 17.27-30.134 2.365-4.519 5.822-10.145 9.282-15.272.989-1.508 1.775-3.314 1.769-4.114-.022-2.8 1.38-2.61 2.702.28.816 2.093.927 3.492.333 4.297m-11.012-1.516c-1.284 2.11-3.551 6.328-5.228 9.34-1.677 3.014-3.75 6.63-4.639 8.037s-2.961 5.023-4.638 8.036-6.115 11.147-10.062 17.977c-3.848 6.83-7.004 12.555-7.002 12.855s-.787 1.706-1.876 3.114c-.988 1.508-3.062 4.924-4.54 7.735-1.48 2.712-4.342 7.734-6.416 11.05-1.975 3.315-5.135 8.44-6.913 11.353s-3.36 5.126-3.663 4.828c-.302-.297 12.326-22.695 18.449-32.742.988-1.608 5.033-8.74 9.373-16.573 17.063-30.932 28.217-49.918 28.822-49.322.302.297-.483 2.203-1.667 4.312m-43.997.538c.008 1.1.32 2.698.628 3.596.61 1.295.112 1.599-2.09 1.316-5.205-.56-6.252-6.752-1.053-6.792 1.8-.014 2.504.48 2.515 1.88m8.005.639c.01 1.4-.382 2.303-.985 1.908-.503-.297-1.012-1.493-1.02-2.593-.008-1 .485-1.903.985-1.907.6-.005 1.01 1.192 1.02 2.592m59.389 11.344c2.31 1.282 6.02 2.654 8.324 3.036 2.202.283 5.612 1.557 7.52 2.743 1.91 1.185 6.33 3.751 9.945 5.723 7.633 4.242 8.652 6.734 4.59 11.666-3.865 4.63-10.638 8.181-24.9 13.191-12.866 4.5-13.065 4.6-19.774 3.452-12.416-2.005-14.708-.987-15.052 6.216-.17 3.901-.468 4.204-4.755 5.937-4.486 1.834-4.486 1.834-7.217-2.145l-2.63-3.98 7.602-12.759c4.146-7.032 8.29-14.264 9.377-16.072 4.537-8.235 5.72-10.344 10.657-18.583l5.233-8.84 3.431 4.074c1.917 2.185 5.339 5.059 7.649 6.341m-30.358-7.367c.004.5-.686 1.705-1.478 2.812-1.386 1.81-1.387 1.71-.407-.897 1.18-2.71 1.874-3.415 1.885-1.915m58.609.85c.304.598.011 1.5-.685 2.005-2.19 1.417-2.891 1.123-2.908-1.077-.016-2.1 2.379-2.719 3.593-.928m-86.285 2.263c-.699.205-1.899.214-2.5.019-.703-.295-.204-.499 1.196-.51 1.4-.01 1.901.186 1.304.49m80.713 1.38c.005.7-.39 1.303-.89 1.307s-1.305-.59-1.91-1.286c-.808-.993-.61-1.295.89-1.306 1-.008 1.904.585 1.91 1.285m-55.993 1.13c.002.3-.494.804-1.191 1.21-.697.404-.798.305-.403-.398.69-1.205 1.587-1.612 1.594-.812m-2.863 4.922c-.993.908-1.094.809-.504-.596.292-1.002.888-1.507 1.19-1.21.303.298.009 1.1-.686 1.806m-1.083 2.208c.003.3-.196.502-.496.504s-.501-.196-.504-.496c-.002-.3.196-.501.496-.504.3-.002.502.196.504.496m-1.97 3.916c.003.3-.494.804-1.19 1.209-.697.405-.798.306-.404-.397.691-1.205 1.588-1.612 1.594-.812m-1.977 3.015c.003.3-.494.804-1.19 1.21-.697.405-.798.305-.403-.398.69-1.205 1.587-1.612 1.593-.812m-2.862 4.922c-.993.908-1.094.809-.505-.596.293-1.002.889-1.507 1.191-1.21.302.298.009 1.1-.686 1.806m188.017 1.456c4.92 2.663 5.928 3.655 5.44 5.259-.291 1.102-1.059 5.308-1.727 9.413-.857 5.707-1.838 8.115-4.117 10.832-2.973 3.523-2.973 3.523-6.488 1.65-1.908-1.085-5.22-2.56-7.326-3.344l-3.711-1.471 3.181-2.425c3.182-2.324 3.182-2.324 4.599-.235 1.82 2.686 4.32 2.767 6.7.148 2.182-2.416 1.351-6.51-1.555-7.288-1.804-.486-2.01-1.285-2.062-8.084-.033-4.2.241-7.602.541-7.605.3-.002 3.212 1.476 6.525 3.15m35.205.53c3.935 4.57 4.76 7.764 4.85 19.563.058 7.5-.136 8.302-2.715 11.021-1.488 1.612-4.062 5.032-5.642 7.644-3.358 5.426-3.458 5.427-12.443 7.396-3.594.827-8.385 1.964-10.78 2.583-5.091 1.239-6.194.847-6.22-2.553-.01-1.3-.932-4.093-2.047-6.084-2.84-5.178-2.568-8.78.9-13.107 1.583-2.113 3.158-5.325 3.444-7.227 1.522-10.112 2.791-14.122 5.274-16.441 4.367-4.234 10.05-6.577 16.248-6.725 5.4-.042 5.802.155 9.13 3.93m-228.253 7.053c-2.171 3.717-3.945 7.13-3.94 7.73.003.5-.493 1.004-1.093 1.009-.5.004-.802-.294-.606-.795 4.439-8.035 8.882-15.37 9.185-14.971.302.197-1.373 3.41-3.546 7.027m97.997-.853c6.63 3.95 12.057 7.408 12.06 7.908.004.4-1.276 3.01-2.955 5.823-1.578 2.812-2.957 5.523-2.953 6.023.004.6-.493 1.004-.993 1.007-.6.005-1.99 1.216-3.28 2.626-3.27 3.925-7.949 6.66-20.112 11.554-5.981 2.446-13.856 5.707-17.344 7.334-7.174 3.355-8.476 3.165-14.419-2.39-1.611-1.487-3.219-2.475-3.616-2.172-.893 1.007 1.429 3.79 4.442 5.466 1.607.888 3.015 1.977 3.219 2.476.104.599-6.068 4.146-13.838 8.106-7.77 3.86-17.231 9.033-21.114 11.363l-7.067 4.254-.335-4.598c-.552-6.695.233-8.602 3.921-10.23 1.794-.814 7.973-3.561 13.753-6.206 5.78-2.644 11.46-5.188 12.758-5.498 1.197-.41 2.19-1.417 2.183-2.217-.006-.8-.31-1.297-.708-1.094-1.593.912-12.356 5.795-12.856 5.799-.2.001-4.186 1.832-8.87 4.068-9.265 4.471-10.962 4.884-10.08 2.477.293-.902.553-6.004.513-11.304l-.076-9.8 10.765-4.682c13.455-5.904 23.625-9.782 37.889-14.592 12.867-4.299 20.63-9.259 23.586-14.881 1.085-2.009 2.272-3.718 2.672-3.721s6.224 3.152 12.855 7.101m83.938 4.656c2.71 1.28 4.732 4.164 3.74 5.171-.396.503-6.318-2.251-8.33-3.836-1.408-1.089-.821-2.794.778-2.806.6-.004 2.306.683 3.812 1.471m-65.566 4.704c-1.088 1.508-3.655 5.928-5.726 9.644-1.972 3.715-3.85 6.63-4.152 6.332-.301-.198.189-1.502.979-2.808.79-1.206 3.357-5.626 5.626-9.643 2.268-4.118 4.345-7.134 4.648-6.836s-.387 1.703-1.375 3.31m1.298 12.79c-8.489 14.466-12.347 19.895-6.133 8.747 7.397-13.457 13.915-24.207 14.318-23.81.301.197-3.446 7.026-8.185 15.063m2.904-12.523c.607.896-4.124 9.832-13.505 25.405-2.567 4.32-4.739 8.036-4.738 8.136.002.2-7.599 13.16-16.879 28.83-9.38 15.673-17.868 30.239-19.053 32.248-2.07 3.816-3.562 4.928-3.58 2.628-.004-.6 2.262-5.018 5.026-9.74a366 366 0 0 0 6.908-11.953c3.849-6.73 16.282-28.425 24.571-42.89 2.862-5.022 6.02-10.446 6.907-12.153.987-1.708 3.454-6.027 5.627-9.543 2.073-3.516 4.34-7.734 5.13-9.24 1.478-2.811 2.573-3.42 3.586-1.728M239.984 759c-.694.705-1.193.81-1.198.21-.01-1.4 1.18-2.61 1.886-1.915.202.298-.092 1.1-.687 1.705m195.491-2.001a1.2 1.2 0 0 1-1.4.01c-.303-.397-.005-.7.695-.705s1.002.292.705.695m-82.884 41.437c-24.581 41.59-25.173 42.695-25.144 46.395.123 2.999 2.048 6.284 3.948 6.27 2.5-.02.812 1.593-4.17 3.932-2.79 1.421-6.275 3.248-7.668 4.159-1.393 1.01-3.484 2.127-4.682 2.436-3.292 1.025-2.907-.978 1.239-8.01 1.975-3.215 4.344-7.334 5.331-8.941 6.81-11.753 11.549-19.79 14.414-24.312 1.878-2.914 3.358-5.526 3.356-5.726-.001-.2 3.65-6.428 7.994-13.861 4.444-7.335 8.887-14.769 9.873-16.577.987-1.707 2.96-5.123 4.542-7.535a254 254 0 0 0 5.132-8.84c1.281-2.51 3.255-5.925 4.443-7.534 2.077-3.016 2.077-3.016 2.396-.518.214 1.898-5.505 12.442-21.004 38.662M236.039 766.03c-2.465 4.62-5.722 10.245-12.04 20.893-.79 1.407-2.96 5.223-4.736 8.337-1.876 3.115-3.754 6.03-4.352 6.334-1.194.809-.011-1.5 6.8-13.053 5.53-9.243 7.602-12.859 11.152-19.286 2.762-5.021 5.136-8.44 5.636-8.444.2-.001-.882 2.407-2.46 5.22m43.57-3.934c1.204.39 2.208.983 2.212 1.383.005.7-10.262 5.079-12.062 5.093-1 .007-1.24-5.291-.248-6.299.793-.906 6.993-.954 10.099-.177m104.46 7.298c4.42 2.566 8.34 5.236 8.647 6.033 1.53 3.989-9.458 18.574-17.127 22.633-3.287 1.725-20.848 6.86-23.548 6.88-.9.008 1.566-4.411 13.117-23.9 4.146-7.033 7.896-13.562 8.188-14.564.981-2.508 1.883-2.215 10.723 2.918m38.467-4.396c1.303.39 2.615 1.88 3.229 3.675.613 1.696 1.93 3.886 2.737 4.88 2.118 2.283 3.675 9.772 2.08 10.284-.6.205-4.296.633-8.294.864-7.196.555-7.196.555-7.82-2.44-.412-1.697-.448-6.397-.08-10.4.545-7.204.744-7.406 3.244-7.425 1.5-.012 3.702.271 4.904.562m-171.472 4.217c1.51 1.389 3.128 3.676 3.439 5.074.41 1.397.289 11.598-.127 22.601-.745 20.107-.745 20.107-3.728 22.43-5.863 4.845-5.966 4.446-4.661-21.065.699-13.106-.35-19.498-2.95-19.478-1.5.012-1.395.71.426 3.397 1.314 1.89 1.43 3.789.59 11.696-.46 5.203-.893 14.007-.85 19.607.078 10.1.078 10.1-3.002 12.723-4.372 3.734-5.575 3.343-7.918-2.34-.815-1.893-2.032-4.084-2.737-4.778-1.612-1.588-1.725-3.187-.325-3.198 1.5-.011 5.917-10.846 5.89-14.445-.013-1.7-.733-4.195-1.642-5.388-1.314-1.89-1.424-3.09-.46-7.797.677-3.105.856-5.806.553-6.104-.806-.794 3.93-9.13 7.103-12.655 3.174-3.425 6.873-3.553 10.399-.28m180.798-.888c2.61 1.28 4.02 2.669 4.03 3.869.008 1.1.32 2.597.627 3.495.918 2.393-1.086 1.908-4.31-1.167-3.725-3.371-6.562-8.15-4.862-8.163.3-.002 2.407.882 4.515 1.966m-81.63 9.327c-1.38 2.71-5.92 10.446-9.967 17.377s-8.489 14.565-9.87 17.076a748 748 0 0 1-7.103 12.555c-2.567 4.42-7.502 12.858-10.856 18.784-3.454 6.027-6.317 10.849-6.517 10.85-1.1.009.279-2.702 7.485-14.958 4.343-7.433 7.895-13.66 7.894-13.86-.002-.2 1.084-2.009 2.368-4.119 3.852-6.23 21.322-36.365 21.318-36.865-.006-.8 6.911-11.553 7.411-11.557.3-.002-.684 2.105-2.164 4.717m-5.318-2.26c.002.3-2.17 4.017-4.835 8.438-2.667 4.42-4.937 8.338-5.133 8.84-.196.501-1.972 3.615-3.847 6.93-2.269 4.017-3.558 5.427-3.767 4.228-.416-2.096-2.218-2.283-2.202-.183.007.9-.985 1.908-2.181 2.417-1.296.51-6.58 2.65-11.765 4.69-12.462 4.896-31.186 14.94-42.926 22.83-5.172 3.54-9.85 6.377-10.55 6.382-1.4.01-18.374-9.459-18.38-10.259s8.55-6.466 21.89-14.469c14.432-8.81 43.324-23.033 62.763-31.082 9.57-3.974 17.841-7.638 18.338-8.141.992-1.008 2.589-1.42 2.595-.62m91.333 4c2.812 1.478 3.722 2.77 3.743 5.57.022 2.8-.278 2.803-4.095.632-2.11-1.284-2.92-2.477-2.935-4.477-.023-3.1.175-3.302 3.287-1.726m-82.744 7.535c-.888 1.607-1.777 3.014-2.077 3.016-.2.002.189-1.402 1.077-3.008.887-1.707 1.777-3.014 2.077-3.016.2-.002-.19 1.301-1.077 3.008m-137.499.756c-.083 2.1-2.965 4.523-4.67 3.936-1.705-.687-1.606-.888.58-2.705 2.384-2.018 4.08-2.531 4.09-1.231m-9.577 2.974c5.724 3.156 6.028 3.653 3.85 6.47-1.883 2.215-1.883 2.215-5.298.34-5.523-3.057-7.238-4.944-6.456-7.25.78-2.706 2.28-2.617 7.904.44m260.612.498c.036 4.7-3.31 11.726-8.365 17.665-5.252 6.24-6.16 5.347-1.612-1.488 2.274-3.417 4.83-9.137 6.097-13.547 2.237-8.117 3.829-9.23 3.88-2.63m-116.002.191c.002.3-.494.804-1.191 1.21s-.798.305-.403-.398c.69-1.205 1.587-1.612 1.594-.812m-3.457 5.627c-.888 1.607-1.777 3.013-2.077 3.016-.2.001.189-1.402 1.077-3.009.887-1.706 1.777-3.013 2.077-3.016.2-.001-.19 1.302-1.077 3.009m-158.142 8.214c2.612 1.58 4.923 2.963 5.123 2.961.4-.003 16.066 8.577 28.722 15.78 7.834 4.44 43.588 24.266 50.717 28.111 2.812 1.479 9.34 5.229 14.564 8.189 5.223 2.96 12.455 7.104 16.07 9.077 6.93 3.847 8.336 4.636 22.599 12.826 5.022 2.862 13.058 7.5 17.98 10.263 4.92 2.762 9.546 6.027 10.355 7.22.81 1.194 1.738 4.987 2.064 8.285.54 5.196.348 6.297-1.243 7.51-3.579 2.727-4.385 1.933-4.433-4.367-.05-6.6-1.77-8.986-9.503-13.327-15.77-8.98-57.252-32.561-61.67-35.027-2.914-1.778-5.725-3.157-6.225-3.153-.4.003-1.002-.292-1.206-.79-.103-.4-5.528-3.558-11.854-7.01-6.328-3.551-13.156-7.199-15.064-8.284-1.909-1.086-10.545-5.82-19.082-10.554-8.537-4.735-20.788-11.44-27.116-14.992a1259 1259 0 0 0-17.575-9.665c-3.314-1.875-6.226-3.453-6.427-3.551-.102-.2-.005-.7.39-1.303 1.283-2.21 7.99-1.262 12.814 1.801m-9.269 4.072c2.812 1.578 5.323 2.959 5.523 2.957.2-.001 3.011 1.477 6.226 3.353 5.022 2.861 19.785 11.048 33.946 18.84a3595 3595 0 0 1 35.652 19.726c3.616 2.073 9.442 5.428 13.057 7.4 6.428 3.551 19.184 10.853 46.202 26.146 7.434 4.343 16.372 9.275 19.786 11.049 8.033 4.338 9.348 6.228 9.404 13.528.038 4.9-.255 5.802-1.46 5.311-1.102-.391-2.095.616-3.175 3.225-.984 2.007-3.156 5.624-4.939 7.938s-3.557 5.527-3.844 7.23c-.673 3.505-.673 3.505-3.286 1.925-1.506-.889-2.905-.678-7.092 1.054-2.89 1.223-5.883 2.246-6.583 2.251-1.9.015-5.041-5.361-5.875-9.855-.526-3.296-1.232-4.09-5.851-6.555-2.911-1.478-7.934-4.34-11.048-6.216-5.928-3.554-5.527-3.457-16.413-1.574-3.894.73-4.095.632-5.72-2.556-1.728-3.687-3.16-7.876-7.361-21.044-3.077-9.977-5.706-13.757-9.206-13.73-1.4.011-6.679 2.752-11.954 6.092-5.174 3.34-10.453 6.08-11.753 6.09-2.6.02-4.613-1.664-4.63-3.964-.008-.9-.92-2.493-2.028-3.484-1.107-.992-2.023-3.085-2.036-4.685-.041-5.4-2.16-7.984-9.691-11.926-5.021-2.661-5.021-2.661-12.402-.105-10.672 3.682-12.775 3.199-16.325-3.274-1.622-2.888-4.045-5.77-5.35-6.36-2.107-.983-2.413-1.781-2.452-6.88-.026-3.4-.858-7.494-1.978-10.186-1.12-2.491-2.36-7.682-2.79-11.579-.539-5.096-1.36-7.99-3.078-10.277-2.324-3.082-3.161-7.876-1.886-11.185.881-2.407 4.785-1.937 10.41 1.32m166.087 10.725c1.709 1.086.916 1.993-3.17 3.824-3.19 1.325-3.19 1.325-1.817-2.186.979-2.708 2.475-3.22 4.987-1.638m-8.121 10.262c-3.067 4.324-4.728 9.437-4.688 14.637.018 2.3-.368 4.203-.768 4.206-1.6.012-3.218-2.376-3.236-4.776-.024-3.1 7.868-17.16 9.667-17.274.8-.006.509 1.096-.975 3.207m-17.705 12.437c.002.3-.196.501-.496.503s-.502-.196-.504-.496.196-.501.496-.504c.3-.002.502.197.504.497m126.844 5.226c-.193.901-.786 1.806-1.485 2.011-.698.305-.902-.293-.612-1.595.58-2.505 2.578-2.82 2.097-.416m-5.1.039a1.2 1.2 0 0 1-1.4.01c-.303-.397-.005-.7.695-.705s1.002.293.705.695m5.367 8.759c.037 4.8-.157 5.501-1.957 5.515-1.4.01-2.006-.685-2.019-2.385-.028-3.7-1.043-5.592-3.043-5.576-4.2.032-2.714-1.88 1.683-2.313 2.698-.221 4.896-.438 5.096-.54.099-.1.217 2.299.24 5.299m-134.019-1.971c.003.3-.196.501-.496.504-.3.002-.501-.196-.504-.496-.002-.3.196-.502.496-.504s.502.196.504.496m121.536 4.167c-1.286 1.91-2.47 4.019-2.665 4.62-.684 2.106-2.802-.278-2.824-3.178-.027-3.5 4.441-7.634 6.554-5.95 1.006.792.813 1.693-1.065 4.508m6.499-.15c.006.8-.589 1.504-1.389 1.51-2 .016-2.913-1.677-1.417-2.289 2.193-.916 2.794-.721 2.806.779m-107.94 8.229c.048 6.3-.245 7.202-2.922 10.123-2.976 3.223-2.976 3.223-6.193 1.047-1.809-1.186-4.118-2.368-5.02-2.661-3.308-.975-1.73-3.787 5.427-9.542 3.975-3.23 7.456-5.758 7.955-5.861.4-.003.724 3.094.753 6.894m108.675-3.635c1.91 1.186 3.219 2.376 2.92 2.678-.694.705-7.622-2.942-7.63-3.942-.009-1.2.993-1.007 4.71 1.264m-6.991 1.154c-.294.802-.596.505-.605-.595-.108-1.1.187-1.702.49-1.304.303.298.41 1.197.115 1.9m-44.134 8.74c7.332 4.243 7.03 4.045 5.743 5.655-.594.705-1.375 3.211-1.757 5.514-.38 2.603-1.464 4.811-2.657 5.72-1.79 1.314-2.59 1.22-6.909-1.146-2.61-1.38-4.822-2.863-4.826-3.363-.015-2 3.687-1.729 7.605.541 5.826 3.356 5.709 1.156-.018-2.3-4.923-2.962-7.651-6.641-7.68-10.341-.038-5 2.562-5.02 10.499-.28m7.568 8.841c-.694.806-.883 2.307-.476 3.204.613 1.595.813 1.594 2.596-.62 1.882-2.314 1.882-2.314 1.904.586.02 2.5-.774 3.306-6.052 6.246-6.573 3.55-9.472 3.673-3.5.027 2.787-1.721 3.58-2.727 3.56-5.127-.023-3.1 1.745-7.314 2.652-6.42.302.297.009 1.2-.684 2.104m-14.94 7.815c5.323 3.06 5.34 5.26.019 2.5-2.21-1.183-4.222-2.767-4.527-3.465-.613-1.695-.012-1.5 4.507.965m2.643 5.68c.504.496 1.908 1.086 3.21 1.276 2.302.282 2.303.382.518 2.296-.992 1.107-4.657 5.636-8.123 10.062-8.419 10.665-9.413 11.473-24.453 19.289-7.071 3.754-13.844 7.406-14.938 8.115-2.884 2.122-4.487 1.734-4.508-.966-.013-1.8 1.175-3.309 4.16-5.332 2.287-1.617 5.266-4.44 6.55-6.35 1.186-1.91 4.167-4.432 6.459-5.55 3.585-1.928 4.18-2.632 4.455-5.834.273-3.503.87-4.007 11.317-10.788 10.947-6.984 13.44-8.003 15.353-6.218m-38.398 26.496c-.691 1.105-1.386 1.81-1.688 1.513s-.01-1.2.684-2.105c1.784-2.114 2.285-1.918 1.004.592"/><path d="M310.767 691.353c-1.658 5.413 4.522 15.866 9.322 15.83 5.9-.046 5.829-9.346-.121-15.8-2.723-2.98-8.324-3.037-9.2-.03m9.026 3.231c1.919 2.485 2.533 4.38 2.351 6.682-.365 4.503-1.965 4.615-6.197.448-2.72-2.68-3.633-4.372-3.653-6.972-.023-3 .273-3.503 2.373-3.519 1.7-.013 3.409 1.174 5.126 3.361M329.544 701.31c-4.663 4.735 3.839 17.97 10.426 16.32 2.195-.617 2.49-1.22 2.463-4.82-.061-7.999-8.72-15.733-12.889-11.5m7.83 3.74c4.838 5.062 4.493 12.165-.52 10.604-2.605-.78-6.45-6.651-6.473-9.65-.038-4.9 2.859-5.323 6.992-.955M335.519 723.964c.007 1 .718 2.395 1.523 3.089 1.208.99 1.607.887 2.097-.417.588-1.604-1.135-4.59-2.735-4.579-.5.004-.894.807-.885 1.907M462.504 760.59c-3.686 1.928-5.074 3.44-7.536 8.358-3.645 7.228-1.999 13.216 3.5 13.174 5.9-.046 13.33-9.203 13.375-16.403-.021-2.8-3.051-6.677-5.251-6.66-.7.005-2.495.719-4.088 1.531m5.334 4.46c.03 4-2.138 8.116-5.912 11.445-4.472 3.734-6.973 3.554-7.005-.646-.045-5.8 5.995-13.647 10.694-13.783 1.8-.014 2.204.483 2.223 2.983M171.474 809.926c-.686 1.806 1.447 6.09 3.453 6.874 3.409 1.174 4.38-2.534 1.651-6.313-1.82-2.586-4.222-2.867-5.104-.56m4.115 1.969c.407.897.415 1.897.216 2.098-.794.806-2.606-.78-2.617-2.28-.015-1.9 1.586-1.812 2.401.182M191.9 826.27c-1.088 1.609-2.085 2.016-4.288 1.533-6.812-1.448-8.952 6.269-3.7 13.029 3.433 4.374 13.584 10.996 18.291 11.86 2.504.48 3.902.17 5.292-1.14 3.475-3.228 2.037-8.217-4.317-15.168-2.118-2.384-3.84-5.27-3.85-6.57-.019-2.4-2.744-5.68-4.844-5.664-.6.005-1.693.913-2.584 2.12m5.94 5.055c.514 1.996 2.438 5.081 4.15 6.668 5.44 5.258 6.887 11.247 2.998 12.677-2.293.918-13.638-4.895-17.671-9.164-6.452-6.75-6.187-11.253.613-11.305 3.1-.024 4.596-.536 5.088-1.54.98-2.707 3.691-1.228 4.821 2.664M216.673 835.68c-.882 2.307 1.951 6.685 4.554 7.065 1.803.287 2.2-.117 2.18-2.616-.036-4.7-5.363-8.26-6.734-4.449m4.525 3.265c.316 2.098.217 2.199-1.191 1.11-1.912-1.586-2.134-4.384-.33-3.898.602.295 1.411 1.49 1.521 2.788M236.676 849.027c-.694.705-1.186 1.81-1.18 2.51.006.9-.892 1.106-2.996.622-2.203-.383-3.6.028-4.99 1.238-5.164 4.74.717 15.295 11.356 20.314 7.026 3.446 9.929 3.724 12.21 1.406 3.375-3.426.408-12.103-5.832-17.256-.905-.693-1.72-2.586-1.732-4.186-.013-1.7-.826-3.394-2.233-4.283-2.714-1.88-3.114-1.877-4.603-.365m4.64 5.264c.315 1.898 1.934 4.386 4.353 6.767 4.232 4.168 6.074 9.654 3.993 12.17-1.684 2.013-2.185 1.917-9.41-1.328-9.031-4.03-14.69-11.587-12.023-15.908.988-1.608 2.686-1.82 6.792-1.052 1.503.288 2.099-.216 2.286-1.918.474-3.404 3.581-2.427 4.01 1.27M213.894 851.502c-.784 2.006 1.348 6.19 3.454 6.974.902.293 2.2-.117 3.092-1.024 1.29-1.31 1.286-1.81-.632-4.195-2.425-3.282-5.131-4.061-5.914-1.755m4.42 2.566c1.214 1.79 1.116 1.992-.487 1.704-1.001-.192-1.908-1.085-2.116-2.084-.517-2.296.984-2.108 2.603.38M260.864 860.342c-.883 2.306 1.951 6.685 4.554 7.065 3.104.476 3.37-3.826.446-7.104-2.017-2.184-4.217-2.168-5 .039m4.725 3.263c.008 1.1-.385 2.003-.985 2.008-.5.004-1.001-.192-1.003-.392-.001-.2-.308-1.098-.615-1.996-.408-1.097-.112-1.599.988-1.607.9-.007 1.606.787 1.615 1.987M188.874 861.894c-.883 2.307 1.952 6.786 4.252 6.768 2.6-.02 3.077-3.024 1.054-6.008-1.923-2.886-4.425-3.166-5.306-.76m4.73 3.864c.014 1.9-1.587 1.812-2.402-.181-1.12-2.692-.729-3.695.881-2.407.806.694 1.515 1.888 1.52 2.588M284.597 877.66c-1.186 1.709-1.885 1.914-3.392 1.026-3.514-1.873-7.49 1.357-7.453 6.157.055 7.1 9.019 15.431 18.633 17.158 8.21 1.437 10.255-5.88 3.892-14.03-1.92-2.586-3.541-5.374-3.55-6.374-.02-2.6-2.847-6.178-4.847-6.163-.899.107-2.392 1.019-3.283 2.226m4.908.962c.705.695 1.218 2.39 1.23 3.79.01 1.5.926 3.494 2.134 4.585 4.833 4.263 6.59 11.75 3.1 12.876-2.295.718-9.516-1.927-13.94-5.093-3.72-2.672-6.255-7.052-6.281-10.552-.023-3 2.069-4.016 6.476-3.15 2.803.479 3.401.174 3.988-1.53.682-2.406 1.58-2.613 3.293-.926M230.437 883.076c-.586 1.704 1.85 6.386 3.554 6.973 3.71 1.371 4.984-2.139 2.154-6.017-1.618-2.388-5.023-2.961-5.708-.956m5.134 4.36c-.992 1.008-2.804-.578-2.818-2.378-.012-1.5.088-1.5 1.7.087.907.893 1.415 1.89 1.118 2.292M306.153 884.794c-.982 2.408.448 6.297 2.657 7.48 4.217 2.168 5.386-1.941 1.851-6.414-2.322-2.882-3.725-3.272-4.508-1.066m3.614 1.873c.002.2.309 1.097.616 1.995.917 2.293-1.285 2.01-2.603-.38-.913-1.593-.816-1.994.484-2.004.8-.006 1.502.189 1.503.389M323.644 896.56c-.995.708-1.786 1.814-1.781 2.514.005.6-1.292 1.11-2.891 1.122-9.5.073-7.304 12.557 3.346 19.075 2.01 1.285 3.72 2.572 3.723 2.972.007.9 4.822 2.863 6.922 2.847 2.5-.02 5.075-3.24 5.05-6.44-.024-3.2-2.362-8.181-5.588-11.557-1.31-1.39-2.53-3.98-2.745-5.879-.433-4.297-3.45-6.573-6.036-4.654m4.043 5.57c.216 2.098 1.436 4.689 3.15 6.476 5.242 5.46 6.684 10.949 3.703 13.472-1.888 1.614-5.598.243-10.53-3.92-1.913-1.685-3.823-2.97-4.223-2.967-1.5.011-4.955-7.063-4.675-9.665.281-2.502.679-2.805 3.779-2.829 2.7-.02 3.696-.528 4.482-2.334 1.475-3.312 3.882-2.33 4.314 1.767M342.908 904.913c.008 1 .923 2.893 2.033 4.184 1.615 1.988 2.116 2.084 2.907.978 1.483-2.311-.954-7.093-3.554-7.073-.8.006-1.393.91-1.386 1.91m2.714 1.779c-.398.303-.7.005-.705-.695s.292-1.002.694-.705c.303.398.308.998.011 1.4M274.232 908.24c-.882 2.307 1.951 6.685 4.554 7.066 3.104.476 3.371-3.826.446-7.104-2.017-2.185-4.217-2.168-5 .038m4.63 3.865c.312 1.597.113 1.699-1.296.51-1.913-1.586-2.126-3.384-.323-2.898.603.296 1.41 1.29 1.619 2.388M316.114 931.72c-1.387 1.71-.565 4.604 2.053 6.984 3.927 3.47 5.682-2.344 1.952-6.315-2.52-2.581-2.42-2.582-4.005-.67m3.835 4.57c.217 2.298.217 2.298-1.296.51-1.819-2.386-2.03-3.885-.227-3.398.603.295 1.312 1.49 1.523 2.888M481.04 635.144c-.494.704-1.974 3.315-3.155 5.824-1.28 2.51-3.056 5.624-4.046 6.932-1.09 1.308-1.877 3.014-1.87 3.914.017 2.3 2.498-.219 4.068-4.131.686-1.805 1.474-3.412 1.872-3.715.793-.806 5.931-8.945 5.926-9.545-.007-1-1.803-.487-2.794.721M468.214 657.743c-2.375 3.319-2.76 5.322-1.16 5.31.6-.005.997-.508.992-1.208-.005-.6.685-1.906 1.577-2.913s1.382-2.31 1.177-3.009-1.3.01-2.586 1.82M461.7 668.994c-2.957 5.522-3.247 6.925-1.06 5.108.794-.706 1.485-1.912 1.48-2.612-.007-.8.289-1.402.789-1.406 1.1-.008 3.062-4.923 2.157-5.516-.401-.197-1.887 1.714-3.366 4.426M454.893 681.146c-1.582 2.312-2.664 4.62-2.46 5.22.205.598 1.594-.813 3.076-3.224 1.582-2.313 2.664-4.621 2.46-5.22s-1.594.813-3.076 3.224M449.664 690.387c-1.484 2.111-4.341 7.633-4.336 8.333.012 1.5 2.192-1.017 4.064-4.731 1.97-3.815 2.152-6.217.272-3.602M441.076 704.953c-2.666 4.42-2.953 6.223-.763 4.906 1.393-.91 4.344-7.334 3.835-8.53-.104-.499-1.591 1.113-3.072 3.624M368.406 709.211c-3.685 1.929-7.164 4.655-8.151 6.363-.988 1.608-2.877 3.022-4.475 3.334-2.196.417-2.891 1.123-3.073 3.524-.461 5.004 5.978 10.055 7.446 5.943.686-1.805 3.485-2.027 5.198-.34.604.596 1.507.889 1.904.486.296-.403-.11-1.3-1.116-1.992-1.609-1.188-1.51-1.388.673-3.505 2.483-2.32 2.483-2.32 3.117 2.176.84 5.194 2.655 7.18 2.622 2.88-.023-3.1 1.539-8.012 4.1-13.032.887-1.807 1.273-3.51.771-3.806-.401-.197-1.784 2.014-3.061 5.024-2.556 5.82-3.847 6.93-3.876 3.23-.01-1.3-.924-3.193-2.032-4.185-1.107-.991-2.016-2.085-2.019-2.485-.005-.6 5.076-3.139 9.266-4.47.998-.308 1.492-1.012 1.188-1.61-.912-1.493-1.41-1.29-8.482 2.465m-1.147 6.81c.705.694 1.214 1.89 1.22 2.69-.09 1.3-.29 1.202-1.101-.192-.608-.995-2.017-2.184-3.22-2.675-2.107-.784-2.108-.884-.108-.9 1.1-.108 2.503.382 3.209 1.076m-2.382 2.418c2.708.979 1.826 3.386-1.762 4.913-1.894.815-3.685 2.029-3.98 2.73-.49 1.105-.69 1.106-1.2.01-.305-.698-1.314-1.89-2.12-2.784-.807-.794-1.315-1.79-.917-2.093.297-.402 1.2-.109 1.804.486 1.713 1.687 3.111 1.477 2.398-.318-.307-.798.185-1.901 1.181-2.41 1.99-1.214 2.59-1.319 4.596-.534m-9.347 6.972c.003.3-.196.501-.496.503s-.501-.196-.504-.496c-.002-.3.197-.501.497-.504.3-.002.501.197.503.497M434.27 717.306c-3.353 6.126-1.848 6.714 1.706.687 2.564-4.62 2.956-5.723 1.756-5.714-.5.004-1.982 2.315-3.462 5.027M429.143 726.745c-.89 1.407-2.272 3.718-3.062 5.024-.789 1.406-1.079 2.708-.577 3.004.905.594 6.53-9.25 5.723-10.144-.302-.197-1.295.71-2.084 2.116M397.048 727.492c-3.783 2.329-8.442 7.665-8.427 9.565.006.8 2.122 2.884 4.736 4.664 4.423 3.066 4.723 3.063 6.01 1.353 1.781-2.513 1.676-3.113-.937-4.892-1.71-1.187-1.914-1.786-.923-2.993.792-1.007.887-1.607.084-2.101-.503-.296-1.01-1.192-1.014-1.792-.006-.7.697-.306 1.606.787.808 1.094 1.22 2.59.925 3.293-.294.802.517 2.196 1.725 3.187 2.515 1.98 4.612 1.565 2.796-.521-.707-.895-.52-2.497.954-6.008 2.357-5.618 2.357-5.518.557-5.504-.8.006-1.688 1.513-1.973 3.515-.769 4.006-1.566 4.412-3.389 1.426-1.113-1.692-1.017-2.292.97-3.908 3.08-2.623.38-2.703-3.7-.071m-1.946 7.115c-.296.502-1.092 1.008-1.592 1.012-.6.005-.704-.494-.408-.997.296-.602 1.092-1.008 1.592-1.012.6-.005.704.395.408.997m-.072 3.6c.902.294 1.607.988 1.611 1.488.011 1.4-2.592 1.02-4.004-.569-1.312-1.59-.316-1.998 2.393-.918M421.25 740.706c-2.665 4.62-3.056 5.724-1.756 5.714 1-.008 5.531-8.943 4.826-9.637-.303-.298-1.69 1.413-3.07 3.923M410.96 742.085c-.293.903.32 2.498 1.628 3.688 1.815 1.886 2.115 1.884 2.103.384-.007-.9-.413-1.697-1.013-1.692-.5.003-1.003-.493-1.007-.993-.005-.6 1.392-1.01 3.092-1.023 1.7-.014 2.797-.422 2.392-1.019-1.012-1.592-6.509-1.15-7.195.655M410.003 760.693c-.595.605-1.187 1.71-1.183 2.21.004.6-.883 2.206-1.972 3.615-2.08 2.716-2.47 4.019-1.07 4.008 1.2-.01 6.233-8.848 5.823-10.145-.205-.598-.804-.494-1.598.312M399.644 779.073c-3.749 6.73-4.339 8.034-2.646 7.02.895-.606 7.906-12.16 7.899-13.16-.014-1.8-2.196.617-5.253 6.14M391.452 793.137c-1.381 2.51-2.363 4.918-1.96 5.215.706.795.606.895 3.961-5.03 1.48-2.612 2.164-4.717 1.664-4.714-.6.005-2.185 2.017-3.665 4.529M385.628 803.182a139 139 0 0 1-3.06 5.123c-.79 1.406-1.279 2.81-.976 3.208.806.694.905.593 4.457-5.634 1.679-2.813 2.56-5.22 2.06-5.216s-1.591 1.112-2.48 2.519M377.439 817.545c-3.16 5.224-4.04 7.931-2.249 6.718 1.494-.812 6.125-9.748 5.717-10.845-.205-.598-1.79 1.314-3.468 4.127M370.824 828.696c-2.856 5.722-5.225 9.84-7.992 14.062-1.383 2.21-2.365 4.618-2.16 5.217.307.997 6.737-8.152 6.727-9.552-.003-.3 1.379-2.71 3.057-5.524 1.68-2.713 2.857-5.622 2.652-6.32-.306-.798-1.2.109-2.284 2.117M341.348 831.923c.004.5.812 1.593 1.817 2.286 1.106.691 2.62 2.58 3.433 4.173 1.015 1.993 1.719 2.487 2.313 1.683.393-.803-.521-2.696-2.238-4.883-3.028-3.677-5.339-5.06-5.325-3.26M378.883 836.335c-6.39 1.449-10.478 2.88-10.472 3.68.004.6 1.006.792 2.304.482 1.197-.309 3.593-.927 5.19-1.24 1.698-.313 3.994-.83 5.292-1.14 1.198-.21 2.193-.917 2.189-1.417-.008-1-1.009-1.092-4.503-.365M429.69 837.044a1.2 1.2 0 0 0 1.4-.01c.297-.403-.006-.7-.706-.695s-.997.308-.694.705M436.239 843.394c-2.092 1.116-3.782 2.43-3.778 2.93.005.6 1.8.086 3.992-1.031s3.981-2.531 3.977-3.031c-.009-1.2.19-1.301-4.191 1.132M347.509 852.876c.038 5-.33 9.203-.827 9.507-1.99 1.315-1.765 4.613.556 7.295 2.32 2.683 2.32 2.683 5.907.955 1.994-.915 3.787-1.729 3.987-1.73.3-.003.514 1.796.53 3.896.018 2.3.837 4.793 1.948 6.185 2.422 2.881 3.914 1.87 1.79-1.214-1.01-1.392-1.425-3.29-1.038-4.992.288-1.602.063-4.8-.554-7.096-.72-2.595-.85-6.494-.378-10.098.376-3.103.356-5.702-.044-5.7-1.4.011-5.137 8.24-4.031 8.932.502.296 1.315 1.99 1.629 3.787.721 2.795.425 3.297-2.264 4.718-4.481 2.434-5.485 1.942-3.21-1.275 2.177-3.017 2.661-5.121 1.261-5.11-.5.004-1.687 1.713-2.671 3.72-1.674 3.513-1.873 3.615-2.289 1.518-.21-1.298.178-2.901.973-3.508 1.49-1.411 1.157-18.709-.443-18.697-.5.004-.87 4.007-.832 8.907M343.688 876.206c-1.777 3.014-2.555 5.82-1.555 5.812.2-.001 1.487-1.711 2.67-3.82l2.372-3.719.546 5.996c.438 4.897.846 5.994 2.549 6.38 1.602.288 1.7.088.692-1.105-.607-.795-1.327-3.39-1.546-5.888-.558-7.596-2.568-8.88-5.728-3.656"/></svg>