<svg xmlns="http://www.w3.org/2000/svg" viewBox="0 0 869.686 1225.312" fill="currentColor"><path d="M437.104 29.443c-.5.202-.987 3.504-.972 7.304l.026 6.9 8-.03c4.7-.019 7.998-.432 7.996-1.032s-2.804-.989-6.504-.975c-6.3.025-6.5-.075-6.51-2.475-.008-2.4.291-2.5 6.091-2.523 3.9-.015 5.799-.422 5.396-1.02-.402-.6-3.003-.89-5.803-.778-4.699.318-5.2.12-5.507-1.98-.308-2.098-.009-2.2 6.291-2.223 4.1-.016 6.398-.425 5.996-1.023-.503-.899-11.904-.955-14.5-.145M72.528 36.643c-1.388 3.105-2.78 5.31-3.18 4.912-.402-.298-1.41-2.494-2.32-4.79-2.524-6.391-5.022-6.082-7.895 1.03l-2.378 5.809-2.522-5.79c-1.312-3.096-3.022-5.69-3.822-5.686-.8.003-1.199.305-.997.704 1.612 3.194 4.74 10.382 4.743 11.182.004 1.1 2.908 2.289 4.006 1.584.399-.301 1.59-2.706 2.579-5.51.99-2.703 2.08-5.008 2.38-5.009.4-.001 1.71 2.294 3.12 5.188 3.731 7.986 4.63 7.583 8.789-3.033 2.872-7.212.67-7.803-2.503-.59M98.41 31.844c-4.695 1.218-6.289 2.924-6.274 6.724.018 4.7 3.626 6.886 11.126 6.857 4.7-.018 6.199-.424 8.39-2.532 6.477-6.125-2.652-13.69-13.242-11.05m10.512 3.06c2.71 2.589 2.817 4.389.227 6.999-2.49 2.51-10.09 2.838-12.398.447-2.108-1.992-2.02-5.292.07-7.6 2.29-2.609 9.191-2.435 12.101.153M155.518 33.724c-.589 2.903-.889 3.004-5.989 3.023-4.7.018-5.3-.18-5.608-2.278-.205-1.2-1.009-2.196-1.809-2.193-1.1.004-1.594 1.506-1.776 6.207-.278 5.8-.076 6.3 1.824 6.293 1.6-.006 1.998-.608 1.989-3.008-.012-3-.012-3 6.088-3.023s6.1-.024 5.712 2.978q-.44 3.002.911 2.996c.9-.003 1.293-1.905 1.273-7.005-.027-7.2-1.536-9.494-2.615-3.99M166.133 37.684l.027 7 8.2-.032c4.5-.017 7.799-.33 7.397-.728-.401-.399-3.302-.588-6.502-.475-5.099.22-5.9.022-6.406-1.676-.71-2.797-.112-3.1 6.488-3.125 3.7-.014 5.698-.422 5.296-1.02-.302-.599-3.104-.988-6.104-.977-4.7.019-5.4-.179-5.407-1.979s.692-2.002 6.592-2.025c4.1-.016 6.298-.424 5.896-1.023-.302-.599-4.004-.984-8.104-.969l-7.4.029zM192.618 33.782c-6.358 10.824-6.358 10.824-4.958 10.82.8-.004 1.896-.908 2.492-2.01 1.589-2.907 9.29-2.836 11.4.056.805 1.197 1.908 1.992 2.507 1.79 1.398-.505-6.15-13.276-8.052-13.67-.7-.096-2.296 1.21-3.389 3.014m5.31 2.28c1.108 2.395 1.009 2.496-1.791 2.507-3.3.012-3.501-.287-2.012-3.093 1.39-2.605 2.49-2.41 3.802.586M211.133 37.51l.027 7 6.6-.024c7.1-.028 9.796-.938 11.484-4.145 1.49-2.805-.428-7.298-3.734-8.785-1.402-.595-5.204-1.08-8.404-1.068l-6 .023zm13.886-3.652c.703.797 1.111 2.995.918 4.796-.287 3.301-.287 3.301-5.986 3.623-5.799.322-5.799.322-5.818-4.778-.02-5-.02-5 4.88-5.018 3-.012 5.302.48 6.006 1.377M256.808 30.935c-.399.402-.686 3.603-.673 7.103l.024 6.3 7.6-.03c4.7-.017 7.299-.427 6.896-1.026-.302-.598-2.803-.989-5.503-.978-4.9.018-4.9.018-5.222-5.68-.32-5.2-1.428-7.295-3.122-5.689M278.53 36.452c-4.87 7.819-4.87 7.819-3.07 7.812.9-.003 1.896-.907 2.192-2.008.493-1.702 1.492-2.006 5.992-2.023s5.5.278 6.007 1.976c.305 1.1 1.308 1.995 2.008 1.993 1-.004.292-2.201-2.327-6.991-2.216-4.192-4.327-6.984-5.327-6.98-.9.004-3.29 2.713-5.476 6.221m7.6.37c.004.9-1.094 1.405-2.994 1.412-3 .012-3 .012-1.41-2.494 1.293-2.005 1.892-2.307 2.995-1.412.802.597 1.407 1.795 1.41 2.495M298.132 37.177c.025 6.5.227 6.999 2.127 6.992 2-.008 2.099-.408 1.579-5.506-.312-3-.421-5.499-.221-5.5.1 0 1.81 2.494 3.62 5.487 1.812 2.993 4.022 5.484 4.922 5.48s2.79-2.41 4.478-5.817l2.978-5.711.322 5.699c.431 8.198 2.227 7.191 2.195-1.209-.023-6.1-.227-6.999-1.827-6.993-1.2.005-2.893 1.811-4.58 5.018-1.49 2.706-3.08 5.212-3.48 5.513-.499.202-2.407-1.99-4.219-4.983-2.515-3.99-4.02-5.485-5.62-5.479-2.2.009-2.3.409-2.274 7.009M327.132 37.066c.021 5.6.327 6.998 1.527 6.994q1.5-.006 1.488-3.006c-.011-3 .089-3 5.289-3.02 5.5-.021 7.695-1.23 7.684-4.23-.01-2.6-3.115-3.788-9.915-3.762l-6.1.024zm12.988-3.15c.008 2.2-1.888 3.107-6.588 3.125-3 .011-3.401-.287-3.41-2.487-.008-2.3.29-2.501 4.99-2.52 4.2-.015 5.002.282 5.008 1.882M370.132 36.9l.027 7 7.5-.028c4.3-.017 7.498-.43 7.496-1.03-.003-.6-2.704-.989-6.004-.976l-6 .023-.023-6c-.018-4.7-.323-5.999-1.523-5.994s-1.495 1.405-1.473 7.005M390.132 36.824l.026 7 8-.031c4.7-.018 7.999-.43 7.996-1.03s-2.803-.99-6.503-.976c-5.8.022-6.501-.175-6.508-1.975s.692-2.003 5.392-2.02c3-.012 5.798-.523 6.096-1.024.398-.602-1.703-.994-5.403-.98-5.4.021-6.101-.176-6.108-1.976s.692-2.003 5.892-2.023c3.3-.012 6.298-.524 6.596-1.025.398-.601-2.303-.991-7.403-.971l-8.1.03zM413.823 34.533c4.932 8.48 5.837 9.577 7.634 8.87s8.152-12.631 7.148-13.527c-.703-.697-4.386 3.717-4.48 5.317.002.5-.891 2.104-1.787 3.307-1.79 2.407-1.79 2.407-5.212-3.18-4.327-6.983-7.33-7.672-3.303-.787M458.126 35.363c.013 3.2.525 6.298 1.227 6.995 1.406 1.394 12.406 1.552 13.3.149.399-.602-1.503-.994-4.903-.981l-5.6.021-.023-6c-.02-5.3-.223-5.999-2.023-5.992s-1.997.708-1.978 5.808M488.41 31.246c2.01 2.193 2.34 10.191.547 11.998-.598.602-.895 1.404-.493 1.802 1.004.996 2.797-.71 4.185-3.916 1.883-4.507-1.045-11.696-4.645-11.682-.8.003-.698.602.407 1.798M41.52 34.262c-2.59 2.91-2.563 9.91.048 12.8s4.21 2.584 2.199-.408c-.905-1.297-1.616-3.994-1.623-5.994-.008-2 .682-4.703 1.577-6.006 1.988-3.008.387-3.302-2.202-.392M83.635 38.2c-3.87 7.915-3.77 7.815-2.67 7.81.5-.001 1.693-1.706 2.685-3.81.892-2.003 2.28-5.008 3.075-6.611 1.586-3.407 1.686-3.607.586-3.603-.4.002-2.09 2.808-3.676 6.214M478.15 41.486c.002.5.704.997 1.504.994s1.498-.506 1.496-1.006c-.002-.6-.704-.997-1.504-.994s-1.498.406-1.496 1.006M430.187 129.37c-.298.502-.458 11.002-.31 23.502.174 19.1.388 22.799 1.69 23.294 1.602.593 86.202.369 86.9-.234.597-.602.023-45.9-.58-46.598-.903-.897-87.203-.865-87.7.036m85.868 17.47c.031 8.2-.132 17.702-.42 21.003l-.476 6.002-40.7.156-40.8.156-.015-4c-.109-2.2-.335-8.998-.558-14.997-.223-6.1-.153-13.8.134-17.301l.576-6.202 41.1.042 41.101.142z"/><path d="M439.517 137.035c.015 3.9.317 4.599 2.017 4.592 1.5-.006 2.003.692 2.01 2.492.01 2.6-2.387 3.51-3.295 1.213-.303-.599-.601-.198-.596 1.102-.089 3 2.815 4.09 4.606 1.583 2.09-2.808 1.27-7.705-1.434-8.895-1.302-.495-2.306-1.491-2.309-2.191-.002-.6.995-1.304 2.294-1.509 2.899-.411 2.392-2.21-.81-2.597-2.4-.29-2.5-.09-2.483 4.21M452.4 132.585c0 .3-.084 4.2-.167 8.8-.174 6.702.132 8.2 1.231 7.996s1.392-2.005 1.17-7.804c-.116-4.1-.73-7.898-1.232-8.496-.502-.498-.903-.696-1.002-.496M471.914 136.21c-1.685 4.007-1.266 8.805 1.145 11.896 1.508 1.894 1.508 1.894 3-.012 2.488-3.21 2.868-8.41 1.054-12.204-2.017-4.392-3.317-4.287-5.2.32m3.618 4.786c.012 3-.379 5.502-.979 5.504-.5.002-1.01-2.496-1.02-5.496-.012-3 .478-5.502.978-5.504.6-.002 1.01 2.496 1.021 5.496M483.202 133.167c-1.594 1.506-.687 3.403 1.31 2.795 2.498-.81 2.705 1.09.315 3.699-1.493 1.706-1.493 1.806.007 1.8 1.1-.004 1.703.793 1.71 2.493.01 2.9-1.488 3.306-2.898.711-.905-1.496-1.005-1.496-1.098.405.004 1.2.71 2.797 1.613 3.493 2.709 2.19 4.395-1.317 3.969-8.215-.212-3.1-.724-6.197-1.026-6.796-.805-1.197-2.906-1.489-3.902-.385M493.509 134.927c-1.782 4.807-.444 14.502 2.056 14.493 1.6-.007 2.988-2.912 3.472-7.114.873-7.103-3.45-12.887-5.528-7.379m3.815 3.886c.414 3.598-.47 7.602-1.77 7.607-.6.002-1.01-2.497-1.022-5.596-.016-4 .378-5.502 1.28-5.205.6.297 1.306 1.695 1.512 3.194M461.229 140.151c-1.494 1.506-.591 2.403 2.409 2.391 2-.008 2.898-.411 2.695-1.31-.505-1.398-4.008-2.085-5.104-1.08M439.605 159.935c.015 3.9.316 4.298 2.316 4.29 1.8-.106 2.102.393 1.909 2.293-.287 3.302-.786 3.603-2.792 2.011-1.405-1.195-1.605-1.094-1.298.605.304 1.099 1.408 2.095 2.609 2.29 1.7.294 2.399-.31 2.891-2.211.985-4.004-.329-7.599-2.729-7.59-1.4.006-1.902-.492-1.706-1.693.196-1 1.193-1.805 2.193-1.808 1.1-.005 2.097-.609 2.295-1.31.297-.8-.605-1.197-2.605-1.19-3 .012-3.1.213-3.083 4.313M452.489 155.785c0 .2-.086 3.8-.17 8.1-.173 6.901.03 7.7 1.73 7.694 1.2-.004 1.598-.506 1.194-1.604-.303-.9-.617-4.498-.63-7.998-.014-3.6-.425-6.398-1.025-6.396-.5.002-1 .104-1.1.204M472.794 157.207c-1.786 3.607-2.27 7.609-1.158 10.905 1.416 4.094 4.217 4.483 5.804.877 3.074-6.812-1.47-18.094-4.646-11.782m3.012 2.989c.71 2.697-.264 9.4-1.267 8.704-1.202-.695-1.24-10.395-.04-10.4.5-.001 1.103.796 1.307 1.696M483.29 156.167c-1.594 1.506-.686 3.402 1.311 2.795 1.398-.506 2-.208 2.004.892.003.9-.394 1.602-.994 1.604-.5.002-.998.704-.994 1.504.003.8.505 1.498 1.005 1.496.6-.002 1.005 1.096 1.01 2.496.01 2.8-1.487 3.406-2.397.91-.303-.8-1.004-1.197-1.603-.895-1.796 1.107.918 4.697 3.316 4.288 2-.308 2.197-.909 2.276-6.31-.012-3.3-.426-6.798-.83-7.796-.906-1.696-2.909-2.289-4.104-.984M493.597 157.927c-2.078 5.608-.346 13.902 2.851 13.29 2.399-.41 3.774-6.815 2.556-11.51-1.118-4.696-4.021-5.585-5.407-1.78m4.02 5.185c.015 3.9-.875 6.503-2.078 5.708-1.002-.596-1.237-9.695-.241-10.7 1.096-1.104 2.306 1.492 2.32 4.992M502.893 156.892c-.296.9-.192 1.9.21 2.299.4.398 1 .096 1.197-.605.396-1.101 3.293-1.813 3.297-.713.003.8-3.066 8.912-4.058 10.816-1.192 2.205-.386 3.702 2.114 3.692 3.5-.013 4.995-1.22 4.985-3.92-.11-2.399-.21-2.398-1.404-.894-1.193 1.705-3.59 2.514-3.595 1.314 0-.3 1.088-3.304 2.475-6.71 1.387-3.405 2.475-6.309 2.475-6.509-.001-.2-1.601-.294-3.501-.287-2.3.01-3.798.615-4.195 1.517M460.622 164.554c.002.5 1.304.995 2.904.989 1.7-.007 3.298-.513 3.596-1.014.398-.602-.803-.997-2.903-.989-2 .008-3.599.414-3.597 1.014M473.478 179.105c-.498.402-.768 8.103-.734 17.103l.063 16.5-129.7-.103c-166.303-.161-278.605-.63-279.508-1.226-.5-.198-.75 38.903-.566 86.902.084 48 .144 115.6.177 150.3.265 251.402 1.485 490.999 2.389 491.895.803.797 112.204.77 376.502-.045l375.5-1.042-1.395-363.097c-.766-199.599-1.795-363.196-2.196-363.495-.5-.298-62.702-.459-138.302-.269-75.6.09-151.7.183-169.1.05l-31.802-.178-.265-17c-.236-9.398-.664-16.697-1.063-16.295m-179.164 35.688c81.401.087 157.902.194 170.002.247 12.101.154 92.901.043 179.501-.19s160.1-.214 163.201.074l5.802.478 1.386 360.997 1.386 360.898-373.999 1.036c-205.598.69-374.3.837-374.701.338-.803-.697-2.022-266.194-2.714-576.493l-.37-148.3 41.303.441c22.6.214 107.803.486 189.203.474"/><path d="M699.857 251.336c.002.5-.08 5.1-.26 10.301-.24 15.601-5.146 14.02 41.653 13.84 22.2-.085 41.999-.461 44.098-.77 3.697-.713 3.697-.713 3.652-12.513l-.046-11.9-44.5.17c-24.5.095-44.498.472-44.597.872M786 262.306l.039 10-20.2.077c-11.2.043-25.9.2-32.8.226-6.9.126-16.4.163-21.2.081l-8.8-.066-.038-10-.039-10 41.5-.16 41.5-.159z"/><path d="M773.668 254.053c-.398.301-.683 4.202-.667 8.502.03 7.8.03 7.8 2.93 7.789 3.5-.013 4.095-1.316 3.764-9.315-.214-3.799-.823-6.096-1.725-6.693-1.805-1.093-3.405-1.287-4.302-.283m4.317 4.283c.004 1.1-.692 2.003-1.492 2.006s-1.504-.894-1.508-1.994.692-2.003 1.492-2.006 1.504.894 1.508 1.994m.03 7.6c.005 1.5-.592 2.402-1.492 2.406-1.5.005-2.115-3.992-.92-5.297 1.196-1.104 2.401.291 2.411 2.89M708.988 259.2c.015 4.1.217 4.5 2.015 3.893 1.698-.506 1.999-.207 2.009 2.393.012 3.1-1.384 4.205-2.293 1.808-.202-.599-.804-.897-1.202-.495-1.295 1.205.314 3.799 2.414 3.79 3.6-.013 4.567-8.817 1.063-9.703-1.1-.296-2.005-1.393-2.009-2.393-.005-1.2.693-1.902 1.993-1.907 1.1-.005 1.998-.508 1.996-1.008-.002-.6-1.304-.995-3.004-.989-2.9.012-3 .212-2.982 4.612M721.87 254.751c.002.2-.085 3.8-.168 8.101-.174 6.9.03 7.7 1.73 7.694 1.2-.005 1.597-.507 1.193-1.605-.303-.899-.617-4.498-.63-7.998-.014-3.6-.425-6.398-1.025-6.396-.5.002-1 .104-1.1.204M742.077 256.374c-1.49 2.806-1.36 10.405.348 12.599 2.01 2.692 4.203.583 4.883-4.52.971-7.603-2.65-13.09-5.23-8.08m3.716 4.086c.416 4.198-.568 8.302-1.771 7.506-1.504-.994-1.346-11.794.256-11.3.601.297 1.308 1.894 1.515 3.794M752.675 255.833c-.396.902-.193 1.8.308 2.099.401.298 1-.004 1.197-.705.198-.6.997-.803 1.699-.406.902.596.905 1.296-.388 3.201-1.391 2.206-1.39 2.506.012 3 1.602.694 2.115 3.892.619 4.898-.6.302-1.402-.295-2.005-1.192-.504-.998-1.305-1.395-1.704-.994-1.096 1.004.916 4.097 2.817 4.49 1.702.293 4.083-4.416 3.077-6.112-.403-.699-.712-2.998-.82-5.197-.013-3.3-.416-4.099-2.117-4.292-1.2-.196-2.398.409-2.695 1.21M763.375 255.792c-.297.801-.391 2.302-.087 3.3.406 1.599.605 1.498 1.198-.504.395-1.202 1.091-2.204 1.591-2.206 1.5-.006 1.013 3.396-1.07 7.804-2.679 5.51-2.476 6.21 1.024 6.196 2.6-.01 2.999-.312 2.89-2.811-.006-1.5-.309-2.099-.606-1.498-.198.7-1.095 1.304-1.895 1.307-1.2.005-1.104-.795.685-3.902 2.582-4.71 1.965-9.108-1.235-9.096-1.1.005-2.198.609-2.495 1.41M730.5 262.518c-.397.602.804.997 3.004.989s3.399-.413 2.997-1.012c-.303-.599-1.704-.993-3.004-.988s-2.699.41-2.996 1.011M743.22 319.77l.167 43.4-6.086 3.623c-6.186 3.724-6.186 3.724-10.591 2.24-11.916-4.054-20.796 1.08-23.25 13.29-3.927 19.015 4.962 42.081 21.415 55.818 11.537 9.556 23.146 11.911 30.023 5.885 2.79-2.31 6.76-10.426 6.748-13.526-.004-1.1 1.59-2.506 4.286-3.716 2.296-1.01 6.285-3.925 8.775-6.434s5.28-5.02 6.279-5.524c2.195-1.309 3.568-8.414 2.843-14.811-.62-5.098-3.836-9.286-7.538-9.872-1.3-.195-3.108-2.088-4.72-5.181-5.44-10.28-17.479-20.533-23.979-20.509-2.2.009-2.2.009-2.369-43.99-.11-28.7-.469-44-1.169-43.997s-.942 15.104-.833 43.304m10.988 48.858c1.704 1.094 3.21 2.388 3.211 2.888.002.5.704.897 1.504.894s3.309 2.287 5.62 5.178c4.722 5.882 9.456 14.764 7.956 14.77-.5.002-.998.504-.995 1.104.002.5.403.798.901.396.6-.302 1.502.395 2.106 1.492 1.208 2.196 4.01 2.585 5.703.878 1.793-1.806 2.52 5.29 1.457 14.795.003.7-1.292 2.005-2.689 2.91-2.194 1.509-2.694 1.51-3.598.314-.704-.997-.804-.897-.298.701.406 1.599-.388 3.102-3.077 5.812-1.993 2.008-4.088 3.316-4.589 3.018-.601-.398-1.5.006-1.997.707-.696 1.003-.798.504-.306-1.598 3.538-16.114-5.544-37.48-20.183-47.423-2.205-1.492-5.311-2.98-6.813-3.374-2.402-.59-2.703-.89-1.708-2.094.697-.802 1.895-1.507 2.595-1.51.8-.003 1.398-.405 1.396-.905-.01-2.5 8.893-1.834 13.804 1.047m-38.488 3.148c.304.999.804.997 2.1-.108 2.69-2.31 2.998-.512.412 3.098-3.98 5.416-4.965 9.22-4.636 16.718.316 4.299.027 7.1-.573 7.102s-1.114-3.595-1.332-8.194c-.329-7.6.064-9.5 2.843-15.012 1.091-2.204 1.09-2.804.09-2.8-.5.002-1.794 1.907-2.785 4.21-1.388 3.106-1.875 6.508-1.85 12.808.039 10.3 1.964 16.793 8.811 29.066 4.13 7.585 16.976 19.835 20.776 19.82.5-.001 1.102.497 1.305 1.096.201.499 3.404 1.087 7.104 1.173 3.7.085 6.702.474 6.704.874s-1.395 1.505-3.092 2.312c-3.393 1.813-12.294 1.547-14.201-.346-.602-.597-1.804-1.093-2.704-1.09-.9.004-2.604-.89-3.808-1.985s-2.508-1.99-3.008-1.988c-1.3.005-9.233-8.565-13.054-14.15s-7.351-13.372-6.455-14.276c.399-.301-.004-1-.706-1.497-1.603-.894-4.36-15.783-3.163-16.488.499-.302.595-1.402.29-2.501-.304-1.099-.215-4.1.175-6.7.486-3.503 1.579-5.507 4.467-8.518 4.085-4.016 5.582-4.621 6.29-2.624m12.302.553c.602.397 1.118 4.495 1.136 9.395.145 11.6 3.38 20.888 10.82 31.26 4.123 5.783 14.352 13.444 17.952 13.43 1.1-.004 1.703.794 1.71 2.394.02 5.2-10.274 6.94-18.489 3.17-6.611-3.074-15.75-12.939-19.882-21.423-4.234-8.784-5.655-14.379-5.785-22.178-.027-6.9.864-9.403 4.748-13.618 2.888-3.112 5.585-3.922 7.79-2.43m10.625 6.359c5.317 4.38 5.215 4.08 3.246 11.988-1.574 6.906 6.468 17.775 13.168 17.75 3.2-.013 4.512 3.082 4.54 10.582.018 4.6-.279 5.4-1.779 5.407-4.8.018-19.45-13.226-17.661-16.033q.596-1.051-.303-.599c-2.394 1.51-7.946-12.07-8.78-21.066-.525-6.298.253-12.201 1.553-12.206.6-.002 3.307 1.887 6.016 4.177m2.787-3.21c.002.5.604.997 1.404.994.7-.003 3.81 2.485 6.921 5.373 8.13 7.97 13.675 19.548 14.215 29.946.43 7.798-.055 11.6-1.255 11.605-.4.001-.707-1.797-.816-3.997-.437-9.798-8.208-28.169-14.936-35.343-4.016-4.285-7.533-8.571-7.534-9.071-.002-.3.498-.502.998-.504.6-.002 1.001.396 1.003.996m8.059 15.168c.805 1.297 2.516 4.29 3.725 6.686 3.93 7.485 2.636 9.29-2.684 4.11-3.412-3.286-5.332-8.28-4.443-11.183.691-2.402 1.591-2.306 3.402.387m-5.287 3.52c-.399.302-.7.003-.702-.697s.296-1 .697-.702c.301.399.304.999.005 1.4m33.798-.73c1.106 1.697-.092 2.101-1.499.407-.803-.897-.806-1.497-.206-1.5s1.402.495 1.705 1.094m-28.158 11.01c-.598.601-4.315-3.784-4.32-5.184-.002-.5 1.101.395 2.407 1.89s2.212 2.992 1.913 3.293m-33.506-1.372c.606 1.397.912 3.096.615 3.897-.297.702.206 1.6 1.007 1.897.902.396 1.607 1.793 1.613 3.193.005 1.4.41 2.499 1.01 2.497.5-.002 2.106 1.791 3.515 3.986 7.948 12.47 23.98 21.008 31.665 16.879 1.497-.806 1.897-.708 1.901.392.008 2-6.385 3.925-10.787 3.242-5.504-.98-9.21-2.665-9.216-4.165-.003-.7-.605-1.098-1.404-.794-1.897.707-12.537-9.752-16.06-15.739-2.819-4.89-6.655-14.274-6.663-16.474s1.594-1.507 2.804 1.189"/><path d="M749.419 371.447c.003.7.304.998.703.697a1.2 1.2 0 0 0-.006-1.4c-.4-.299-.7.003-.697.703M753.444 377.931c.001.3.202.5.502.498.3-.001.5-.202.498-.502-.001-.3-.202-.499-.502-.498s-.5.202-.498.502M758.467 383.912c.001.3.202.5.502.498.3-.001.5-.202.498-.502-.001-.3-.202-.5-.502-.498-.3.001-.5.202-.498.502M765.47 384.885c.002.3.203.5.503.498.3-.001.499-.202.498-.502s-.202-.5-.502-.498c-.3.001-.5.202-.498.502M762.501 392.896c.002.3.202.5.502.499s.5-.202.498-.502c0-.3-.201-.5-.501-.498-.3 0-.5.201-.499.501M770.532 400.866c.001.3.202.499.502.498s.5-.202.498-.502c-.001-.3-.202-.5-.502-.498-.3 0-.499.202-.498.502M765.84 403.084a1.2 1.2 0 0 0 1.4-.006c.3-.4-.002-.7-.702-.697s-.999.304-.697.703M767.875 412.076a1.2 1.2 0 0 0 1.4-.005c.299-.402-.003-.7-.703-.698s-.998.304-.697.703M769.6 418.37c.002.7.303.998.702.697a1.2 1.2 0 0 0-.005-1.4c-.402-.299-.7.002-.698.702M713.604 419.584c.002.7.303 1 .702.698a1.2 1.2 0 0 0-.005-1.4c-.401-.299-.7.002-.697.702M716.483 388.073c0 .3.202.5.502.498.3-.001.499-.202.498-.502s-.202-.499-.502-.498-.5.202-.498.502M723.483 388.046c0 .3.201.5.501.498.3 0 .5-.202.499-.502s-.202-.499-.502-.498-.5.202-.498.502M726.51 395.035c0 .3.201.499.501.498s.5-.202.498-.502c0-.3-.202-.5-.502-.498-.3 0-.499.202-.498.502M732.57 411.011c.002.3.203.5.503.499s.499-.202.498-.502-.202-.5-.502-.498c-.3 0-.5.201-.498.501M735.895 417.199a1.2 1.2 0 0 0 1.4-.006c.298-.4-.003-.7-.703-.697s-.999.304-.697.703M729.603 419.523c.003.7.304.999.703.697a1.2 1.2 0 0 0-.005-1.4c-.401-.298-.7.003-.698.703M739.475 385.985c0 .3.202.499.502.498s.499-.202.498-.502-.202-.5-.502-.498c-.3.001-.5.202-.498.502M732.498 392.012c.001.3.202.499.502.498s.499-.202.498-.502-.202-.5-.502-.498c-.3 0-.5.202-.498.502M753.49 389.931c.001.3.202.5.502.498.3-.001.5-.202.498-.502-.001-.3-.202-.5-.502-.498-.3.001-.5.202-.498.502M756.513 395.92c.001.3.202.499.502.498s.5-.202.498-.502c-.001-.3-.202-.5-.502-.498-.3 0-.5.201-.498.501M616.231 296.757c-.699.203-1.082 4.605-1.053 12.204l.045 11.8 8.302.369c4.5.182 24.4.206 44.2.13l36-.138.255-11.801c.166-8.901-.145-11.8-1.047-12.197-1.602-.493-85.204-.872-86.702-.367m84.949 12.474.04 10.5-22.702-.413c-12.6-.151-31.201-.38-41.501-.34l-18.8-.028-.039-10-.038-10 41.5-.16 41.5-.159z"/><path d="M624.846 300.524c-.399.402-.69 2.503-.683 4.603.014 3.4.315 3.799 2.615 3.79 2.1-.008 2.502.39 2.208 2.191-.193 1.701-.891 2.204-2.692 2.01-1.8-.192-2.2.21-1.694 1.407.303.8.606 1.798.607 1.998s.802.397 1.802.393c1.8-.007 4.185-3.716 4.175-6.516-.003-.7-1.109-2.196-2.513-3.29-3.01-2.389-3.216-4.188-.416-4.199 1.2-.004 1.898-.507 1.695-1.306-.505-1.398-4.008-2.085-5.104-1.08M637.172 307.277c.013 3.5-.273 7.101-.57 8.002-.395 1.202.007 1.6 1.607 1.594s1.998-.408 1.593-1.606c-.303-.899-.617-4.498-.63-7.998-.014-3.6-.425-6.398-1.025-6.396-.6.003-.989 2.804-.975 6.404M657.157 303.4c-1.98 5.108-.448 13.402 2.351 13.391 3.1-.012 4.863-9.818 2.646-14.11-1.51-2.694-3.909-2.385-4.997.72m3.817 4.386c-.377 6.001-2.173 7.108-2.594 1.61-.416-4.299.175-6.601 1.775-6.607.7-.003 1.007 1.896.819 4.997M667.753 302.26c-.89 2.503-.683 4.502.417 4.498.6-.002.997-.904.992-2.004-.004-1.1.493-2.002.993-2.004 1.7-.006 1.118 4.696-.968 8.504-2.682 4.71-2.479 5.51.921 5.497 2-.008 2.998-.612 3.393-2.013.393-1.702.192-2.001-1.406-1.495q-3.445 1.214-.313-3.299c2.188-3.208 1.467-8.606-1.234-8.995-1.301-.195-2.399.409-2.795 1.31M679.252 302.115c-1.89 2.308-2.468 8.31-1.055 11.605 3.129 7.488 8.597-.733 6.065-9.024-1.215-4.095-3.019-4.988-5.01-2.58m3.308 2.088c.808 2.097-.36 10.501-1.46 10.505-1.4.006-2.217-4.691-1.532-8.494.686-3.702 1.983-4.507 2.992-2.011M691.97 306.767c.314 3.698.025 6.5-.672 7.202-.797.803-1.098.504-1.104-1.096-.005-1.2-.409-2.198-1.009-2.196-.5.002-.997.604-.994 1.404.01 2.7 1.217 4.596 3.017 4.589 1.5-.006 1.996-1.008 2.482-4.81.29-2.601.676-6.203.97-8.004.29-2.5-.013-3.2-1.413-3.194-1.5.005-1.697.806-1.277 6.105M645.678 308.844c-.398.602.804.997 2.904.99 2-.008 3.598-.515 3.596-1.015-.002-.6-1.304-.995-2.904-.988-1.7.006-3.298.412-3.596 1.013M658.622 372.495l-.108 49.8-3.387 3.514c-3.486 3.713-5.465 9.121-5.442 15.121.015 3.8.712 3.197-12.161 10.147-2.195 1.308-4.886 3.619-5.88 5.322-.994 1.604-2.684 4.11-3.88 5.315-1.094 1.305-1.989 2.708-1.987 3.208.007 1.9 3.012 3.088 6.31 2.476 2.098-.408 3.698-.314 4.101.384 1.308 1.995 4.904 1.081 11.988-3.046 3.892-2.315 8.284-4.232 9.684-4.237 1.5-.006 5.406 1.379 8.712 3.066 3.407 1.787 7.212 3.173 8.612 3.167 1.4-.005 2.802.49 3.104.988.402.599 1.402.495 2.798-.51 2.194-1.509 2.291-2.31 2.937-16.512.184-4.2.482-4.602 5.968-8.223 4.788-3.318 5.684-4.322 5.674-6.822-.013-3.4-1.715-3.893-5.505-1.378-1.297.904-2.895 1.31-3.497.913-1.704-1.094-1.116-4.296.981-5.004 1.099-.304 2.494-1.51 2.99-2.511.794-1.603.592-2.203-1.413-3.495-2.306-1.491-2.706-1.49-5 .02-1.396.905-4.591 2.317-7.088 3.126-4.395 1.317-4.695 1.219-5.201-.38-.711-2.797-5.32-5.08-8.718-4.466-2.897.611-2.897.611-2.49-49.59.25-38.802.108-50.102-.792-50.098-1 .004-1.256 11.705-1.31 49.705m9.403 52.864c.902.297 1.605 1.094 1.607 1.694s1.008 2.196 2.313 3.491c2.411 2.791 3.012 2.989-6.11-2.476-3.307-1.987-1.615-4.194 2.19-2.709m16.012 2.939c.403.898.407 1.898.208 2.1-.797.802-2.603-.79-2.609-2.29-.007-1.9 1.593-1.807 2.4.19m-21.192 2.181c1.004.897 2.808 2.09 4.11 2.685 3.407 1.687 8.439 9.967 9.762 15.962 1.834 8.793-.546 14.002-5.555 11.822-2.504-1.19-2.504-1.19-.42-5.199 2.382-4.809 2.469-8.11.251-12.7-3.125-6.589-11.037-9.659-17.526-6.734-2.595 1.11-2.308-2.29.38-5.201 2.49-2.71 6.389-3.025 8.998-.635m1.795-1.207c.002.3-.198.501-.498.502s-.5-.198-.502-.498c0-.3.199-.5.499-.502.3 0 .5.198.501.498m14.608 1.944c2.607 1.79 5.428 7.38 5.442 10.88.014 3.7-1.688 3.206-3.504-1.087-.908-1.997-2.72-5.09-4.027-6.885-1.407-1.794-2.513-3.49-2.514-3.79-.005-1.1 2.597-.61 4.603.882m-2.46 10.21c1.713 3.493 2.926 6.889 2.728 7.49-.198.6-1.204-1.096-2.215-3.792s-2.924-6.289-4.23-8.084c-2.714-3.59-3.12-5.088-.913-3.296.802.697 2.915 4.088 4.63 7.682m15.88-5.261c0 .3-.199.5-.499.502-.3.001-.5-.198-.502-.498-.001-.3.198-.501.498-.502s.501.198.502.498m-2.989 3.111c.003.8-.395 1.402-.995 1.404-.5.002-1.003-.896-1.008-2.096-.004-1.1.494-1.702.995-1.404.601.298 1.005 1.296 1.008 2.096m-32 .023c-.697.803-2.094 1.508-2.994 1.512-1 .004-2.098.608-2.296 1.209-.297.7-.599.302-.603-.898-.109-2.3 1.088-3.104 4.788-3.218 2-.108 2.1.091 1.105 1.395m8.02 5.37c1.71 2.393 2.419 4.79 2.432 8.29.12 5-1.073 6.804-4.573 6.818-2.5.01-2.308-2.091.19-2.7 1.598-.407 1.994-1.409 1.981-4.709-.009-2.3-.618-4.797-1.22-5.395-.703-.697-1.308-1.995-1.312-2.995s-.907-1.796-2.308-1.991c-1.9-.293-2.102-.592-1.206-1.695 1.393-1.706 2.095-1.108 6.017 4.377m13.985-3.954c.002.5-.196 1-.396 1.001-.3.001-.802-.497-1.104-.995-.302-.6-.103-1 .397-1.002.6-.002 1.101.396 1.103.996m-10.186 3.539c-.299.301-.9-.197-1.205-1.195-.605-1.398-.505-1.499.498-.602.703.697 1.006 1.496.707 1.797m-8.695 1.433c4.217 4.184 3.93 7.485-1.059 10.604-2.194 1.409-4.19 2.517-4.39 2.517-.3.001-2.795 1.311-5.589 3.022-2.794 1.61-5.488 3.02-5.888 3.022-.5.002-1.206-1.495-1.513-3.294-.307-1.899-1.617-4.394-2.821-5.589-2.009-2.192-2.01-2.392-.314-3.499 4.59-2.817 17.063-9.665 17.763-9.668.5-.002 2.205 1.291 3.811 2.885m21.223 5.919c.125 6.5-.55 12.702-1.447 13.606-.797.803-5.802-.478-5.807-1.578-.001-.5.497-.902 1.097-.904 3.6-.014 6.37-8.025 4.946-14.12-1.322-5.594-1.327-6.894-.017-4.5.603.998 1.216 4.396 1.228 7.496m-11.614-3.656c-.297.802-.598.503-.602-.597-.104-1.1.193-1.701.495-1.302.301.299.405 1.198.107 1.9m-31.562 9.922c.905 1.396 2.015 3.992 2.422 5.69.611 2.998.413 3.299-1.687 3.307-3.1.012-4.605-1.082-6.418-4.575-1.209-2.296-1.313-3.295-.32-5.2 1.59-2.805 3.59-2.513 6.003.778m31.919 4.877c.802.497 1.104.996.504.998-.5.002-1.702-.493-2.504-.99s-1.004-.996-.504-.998c.6-.003 1.702.493 2.504.99m-38.596 1.048c.906 1.497-1.788 3.107-3.393 2.013-1.303-.795-1.303-.995-.007-1.9 1.896-1.207 2.696-1.21 3.4-.113"/><path d="M634.967 462.387c1.21 2.695 2.813 3.389 2.805 1.189-.005-1.4-2.014-3.692-3.214-3.688-.4.002-.196 1.101.41 2.499M547.062 330.923c-2.799.411-2.799.411-2.753 12.31l.045 11.8 11.302.357c6.1.177 26.101.3 44.2.13l33-.126.253-12.301.253-12.201-31.8.022c-17.5-.033-36.3-.06-41.8-.24-5.501-.078-11.2.043-12.7.25m82.248 12.484.04 10.5-14.2-.345c-7.902-.27-26.302-.4-41.002-.343l-26.8.003-.039-10-.038-10 41-.157 41-.157z"/><path d="M553.977 334.897c-.399.301-.69 2.402-.682 4.502.011 3.1.314 3.8 2.014 3.793 1.5-.006 2.003.692 2.01 2.492.005 1.4-.39 2.501-.99 2.504-.5.002-1.003-.496-1.005-.996-.002-.6-.403-.999-1.003-.997-1.5.006-1.19 2.605.415 3.899 3.01 2.488 6.193-1.824 4.974-6.62-.404-1.198-1.51-2.493-2.51-2.79-2.504-.79-2.414-3.49.086-3.5 1.1-.004 1.997-.708 1.994-1.508-.005-1.5-4.008-2.084-5.303-.78M566.28 335.35c-.1.2-.186 3.8-.27 8.1-.173 6.901.03 7.7 1.73 7.694 1.4-.005 1.698-.507 1.19-2.305-.304-1.198-.618-4.797-.63-7.997-.012-3.1-.422-5.699-1.022-5.696-.5.002-1 .103-.999.203M585.884 336.674c-1.089 2.904-.458 10.902.95 12.897 1.406 1.694 1.707 1.793 3.101.288 1.992-2.008 2.867-8.611 1.453-12.106-1.211-2.995-4.514-3.683-5.504-1.079m4.011 2.785c.812 3.097.23 7.599-1.07 7.904-.5.102-1.108-2.196-1.32-5.095-.32-5.399 1.173-7.305 2.39-2.81M599.585 336.722c-.297 1-1.489 3.105-2.583 4.61-1.988 3.007-1.678 5.706.822 5.696.8-.003 1.504.895 1.508 1.995.004 1.2.707 1.997 1.607 1.993 1.1-.004 1.399-.505.994-1.703-.404-.899-.108-2 .59-2.403.898-.603.896-1.103-.007-2.1-.703-.797-.911-2.896-.62-4.997.686-3.803-1.124-6.296-2.311-3.091m-.574 7.002c-.398.301-.7.003-.702-.697s.296-1.002.697-.703c.302.399.304.999.005 1.4M607.585 336.69c-1.09 2.905-.653 12.303.551 13.499 2.008 1.992 4.699-.418 4.983-4.62.288-3.1-.015-3.7-2.218-4.59-1.702-.594-2.405-1.392-2.01-2.493.496-1.202.895-1.304 1.999-.408 1.705 1.394 2.902.589 2.094-1.608-.808-1.997-4.608-1.882-5.4.22m3.733 8.687c.011 3-1.484 4.205-2.392 2.009-1.01-2.696-.717-4.397.883-4.404.9-.003 1.503.895 1.509 2.395M617.886 337.151c-3.58 5.114-.139 15.801 4.151 13.184.998-.603 1.992-2.007 2.188-3.008.294-1.801.194-1.8-1.6-.194-2.591 2.41-2.991 2.312-3.605-1.186-.915-3.996.166-9 1.866-9.007.8-.003 1.401.394 1.403.994.002.5.504.998 1.004.997.6-.003.997-.904.993-2.004-.011-2.8-4.41-2.683-6.4.224M574.809 343.117c.302.499 1.904.992 3.604.986 1.6-.006 2.898-.511 2.896-1.011-.002-.6-1.604-.994-3.604-.986-2.1.008-3.298.412-2.896 1.01M587.476 386.568c.11 28.5.11 28.5-3.083 30.513-2.893 1.71-2.992 2.011-1.19 2.604 3.805 1.385 6.418 4.575 6.431 8.075.007 1.8.513 3.299 1.013 3.297 2.5-.01.168-8.201-3.243-11.188-1.706-1.494-1.807-1.793-.507-1.798 2.4-.01 5.714 3.578 6.326 6.876.509 2.198 1.01 2.696 2.51 2.39 2.697-.71 2.38-5.21-.638-9.698-1.71-2.593-2.014-3.592-1.014-3.596 2-.007 5.521 5.38 5.533 8.58.008 2.1.31 2.498 1.107 1.695 1.395-1.406-.425-6.599-3.439-10.087-2.811-2.99-.311-2.899 2.801.29 1.807 1.692 2.514 3.49 2.524 6.19.01 2.8.313 3.398 1.009 2.296 1.392-2.106.173-7.001-2.337-9.691-2.812-3.09-1.316-4.195 1.795-1.307 1.806 1.693 2.513 3.39 2.523 6.19.01 2.4.415 3.699 1.013 3.296 2.295-1.409.67-8.002-2.844-11.389-1.204-1.195-1.206-1.595-.207-1.9.799-.302 2.403.792 3.809 2.286 1.708 2.094 2.314 3.691 2.024 6.193-.485 3.901.817 4.396 2.203.791.494-1.402 1.39-2.505 1.79-2.507 1.8-.007 6.18-5.324 6.171-7.524-.017-4.6-5.522-5.778-6.805-1.373-.396 1.101-.195 1.2.9.096 2.093-1.908 3.895-1.415 3.905 1.185.006 1.5-1.087 3.304-2.583 4.51-2.692 2.11-2.692 2.11-6.407-1.875-2.008-2.193-4.215-3.984-4.815-3.982-1.3.005-11.576 6.245-11.973 7.246-.198.5-.797.803-1.297.805s-.944-11.696-1.007-27.996c-.07-18-.508-27.998-1.108-27.996s-.96 10.204-.89 28.503m5.62 31.18c2.509 2.39 3.824 6.384 2.53 7.69-.698.702-.999.503-1.003-.597-.003-.8-1.112-3.195-2.52-5.19-2.514-3.69-1.919-4.893.993-1.904M351.563 409.774l.093 24.2 21.3.118 21.202.22.374 19.198c.382 21.498-.123 20.2 7.885 22.17 3.703.885 14.514 3.644 37.738 9.855 6.006 1.577 11.112 3.057 11.313 3.356.3.2.917 4.397 1.435 9.295 1.448 12.295 2.667 17.19 7.315 29.872 6.265 16.976 14.217 30.346 26.17 44.2 2.41 2.79 2.715 3.89 2.227 6.991-.586 3.603-.285 4.002 5.837 9.578 6.925 6.474 13.543 11.148 14.44 10.245.298-.301-1.408-1.895-3.815-3.586-2.406-1.59-5.716-4.278-7.522-5.87-2.91-2.59-3.011-2.89-1.315-3.996 1.596-.906 2.798-.41 8.014 3.77 3.41 2.686 7.02 5.173 8.121 5.468 2.503.79 2.416 4.091-.079 5.5-2.295 1.21-2.687 3.211-.49 2.403.798-.303 2.7.29 4.205 1.383 4.612 3.083 8.014 3.57 11.004 1.158 1.396-1.105 2.893-1.81 3.195-1.512.4.198 3.703.886 7.305 1.472 7.805 1.17 19.698-.576 17.59-2.568-.2-.299-2.9.011-5.898.523-21.284 4.182-51.758-15.101-72.878-46.32-10.057-14.862-18.536-35.53-21.401-52.319-1.33-7.895-.994-24.396.58-31.502 3.737-16.215 17.393-27.567 33.493-27.629 19-.073 39.949 12.547 58.836 35.274 10.75 13.06 19.409 28.326 24.567 43.406 5.058 15.081 5.978 20.278 6.136 35.477.14 10.4-.238 16.101-1.129 18.504-2.87 7.512-5.555 11.722-9.94 15.739-5.58 5.021-5.074 6.72.609 2.097 4.984-4.119 9.655-11.737 11.33-18.343 1.574-6.506 2.171-7.309 6.967-8.527 2.597-.71 4.192-1.916 4.787-3.418 1.286-3.605.776-32.204-.76-41.698-4.3-25.783-21.604-52.917-42.156-66.338-10.726-6.96-15.032-8.343-26.232-8.3-6.2.024-9.301-.464-12.107-1.853-2.004-.993-5.108-2.18-6.91-2.474-2.101-.492-3.305-1.387-3.711-3.086-1.117-4.295-5.533-8.478-9.033-8.465-4.5.017-13.976 6.254-15.96 10.461-.893 1.804-2.584 4.01-3.781 4.915-9.975 6.638-16.034 17.262-17.283 30.467-.387 3.501-.975 6.503-1.274 6.805-.699.302-16.814-3.636-42.64-10.537l-12.013-3.254-.374-19.098-.273-19.1 21.302.419 21.401.318.41-23.302c.251-12.901.21-23.701-.192-24.1-.301-.399-20.304-.922-44.305-1.23l-43.802-.531zm52.92-20.903c16.8.036 31.102.28 31.803.578 1.101.396 1.217 4.495.783 21.597-.256 11.601-.62 21.103-.72 21.103s-18.5-.029-40.9-.143l-40.8-.143-.083-21.3c-.045-11.7.217-21.601.616-22.003.399-.301 4.798-.418 9.699-.237 5.001.281 22.802.513 39.602.548m90.592 49.753c2.815 3.989 2.118 4.592-6.58 5.125-4.6.218-9.397.836-10.696 1.241-3.595 1.214-2.205-1.392 2.78-5.31 5.384-4.121 12.083-4.547 14.496-1.056m44.16 15.73c18.434 8.53 36.212 28.961 44.597 51.13 3.132 8.187 6.185 21.876 6.104 26.876-.084 4.2-.084 4.2-2.209-2.191-1.72-5.094-2.826-6.89-6.135-9.277-2.307-1.691-5.213-3.38-6.615-3.875-1.803-.693-3.813-3.385-6.937-9.473-5.138-9.98-12.784-21.851-18.61-28.829-5.828-7.077-19.578-20.225-21.781-20.916-1.102-.396-1.904-.993-1.905-1.393-.002-.3-1.406-1.495-3.11-2.488-7.417-4.372 7.185-4.028 16.602.436m39.16 67.35c6.413 3.576 7.523 5.971 10.182 21.361 1.635 9.194 1.976 19.793.783 21.598-.696 1.102-6.883 4.426-8.283 4.431-.4.002-.819-4.797-.841-10.696-.145-11.7-1.884-21.693-5.725-32.379-1.314-3.795-2.026-6.892-1.626-6.894.5-.001 2.904 1.19 5.51 2.58m-85.378 58.029c.603.697.909 2.296.513 3.498-.491 2.202-.491 2.202-2.4.109-1.003-1.096-1.51-2.694-1.213-3.496.594-1.702 1.693-1.806 3.1-.111m33.29 23.572c.006 1.5-3.591 2.114-6.495 1.025-1.903-.693-2.506-1.49-2.11-2.592.296-.901.592-1.902.59-2.402-.001-.4 1.8.093 4.005 1.084 2.204 1.092 4.009 2.385 4.01 2.885m-10.01-2.962c.001.5-.497 1.002-1.097 1.005-.5.001-.702-.498-.404-.999.298-.601.796-1.003 1.096-1.004.2 0 .402.398.404.998"/><path d="M360.896 392.338c-.294 1.402-.287 3.402.117 4.4.304 1.099.11 2.3-.49 2.702-1.596 1.006-1.184 4.005.923 5.896 2.008 1.893 4.805 1.282 5.496-1.22.59-2.503.055-11.6-.85-12.997-1.308-2.095-4.506-1.383-5.196 1.22m4.108 2.085c.004 1-.592 2.002-1.191 2.204-.799.303-1.302-.495-1.309-2.195s.49-2.502 1.292-2.305c.6.298 1.205 1.296 1.208 2.296m.328 7.299c.307 1.698-.191 2.2-1.691 2.206q-2.1.008-2.107-1.792c-.015-3.8 3.284-4.113 3.798-.414M371.195 391.899c-.296 1.101-.091 2.3.41 2.598.5.298.9-.003.898-.503-.002-.6.696-1.103 1.596-1.106 1.1-.004 1.401.494.906 1.696-.99 2.404-1.854 12.008-1.057 11.204.399-.401 1.09-2.804 1.579-5.506.49-2.702 1.177-6.104 1.57-7.706.59-2.502.39-2.701-2.41-2.69-2.1.008-3.098.611-3.492 2.013M393.494 391.713c-1.489 2.806-1.156 11.405.452 13.599 3.218 4.487 6.88-5.127 4.554-12.018-1.315-3.895-3.417-4.487-5.006-1.58m3.824 6.086c.418 4.698-1.172 7.504-2.781 5.01-.805-1.197-.823-5.896-.138-9.8.1-.2.7-.202 1.4-.005.601.298 1.31 2.395 1.519 4.795M405.49 390.467c-.647 14.003-.438 16.302 1.462 16.295 1.2-.005 1.598-.506 1.194-1.605-.304-.899-.618-4.698-.633-8.497-.015-3.9-.426-6.899-1.026-6.897-.5.002-.999.304-.997.704M415.81 395.628c-2.778 5.91-2.873 7.11-.273 7.1 1.5-.005 2.002.693 2.01 2.593.005 1.5.509 2.398 1.208 2.195.6-.202 1.094-1.704 1.087-3.404-.14-10.4-.451-13.398-1.051-13.396-.5.102-1.792 2.207-2.982 4.912m1.711 3.093c.002.5-.496 1.002-1.096 1.004-.5.002-.702-.497-.404-.998.298-.601.796-1.003 1.096-1.004.2-.001.402.398.404.998M381.522 398.86c.001.5 1.603.993 3.503.986s3.498-.514 3.497-1.014c-.003-.6-1.604-.993-3.504-.986s-3.499.413-3.496 1.013M361.181 414.438c-1.093 1.704-1.388 3.105-.784 4.203.604.897.51 2.698-.083 4.4-1.386 3.605 1.429 7.395 4.423 5.883 2.295-1.309 3.382-4.713 1.875-6.507-.904-.997-.907-1.897-.014-3.5.894-1.704.79-2.603-.517-4.598-2.012-2.993-2.912-2.99-4.9.119m3.707 1.785c.303.8.108 2-.39 2.802-1.092 1.904-3.4-.287-2.609-2.49.793-2.003 2.292-2.109 3-.312m.232 8.2c.004 1.1-.792 2.103-1.692 2.306-1.398.305-1.8-.293-1.808-2.293s.39-2.602 1.79-2.307c.902.197 1.705 1.194 1.71 2.294M371.776 413.097c-1.394 1.405-1.581 4.806-.281 4.801.5-.002 1.097-.604 1.395-1.305.197-.601.696-.903 1.097-.605.402.399.312 3.1-.277 6.001-.488 3.002-.577 5.803-.076 6.2.402.5 1.095-1.303 1.385-4.005.39-2.601 1.176-6.104 1.77-7.606.892-2.304.789-3.103-.314-3.8-1.905-1.192-3.304-1.087-4.699.319M393.583 414.813c-1.787 3.307-1.454 11.906.453 13.799 1.606 1.593 1.806 1.593 3.2-.213 1.69-2.406 1.85-12.707.144-14.4-1.707-1.694-2.606-1.49-3.797.814m3.813 3.386c.612 3.097-.766 8.803-2.068 8.308-1.402-.395-2.12-4.992-1.232-8.396.59-2.702 2.79-2.61 3.3.088M405.578 413.467c-.646 14.003-.438 16.302 1.462 16.295 1.2-.005 1.598-.507 1.194-1.605-.303-.899-.618-4.698-.632-8.498-.015-3.9-.427-6.898-1.027-6.896-.5.002-.999.304-.997.704M414.878 413.431c-.8.203-1.292 2.205-1.283 4.405.012 3.2.415 3.899 1.915 3.893 2.5-.01 3.405 1.487 2.615 4.09-.493 1.602-.893 1.803-2.097.808-1.805-1.493-2.702-.69-1.794 1.507 1.01 2.496 4.307 1.883 5.396-1.02 1.387-3.506.172-7.401-2.128-7.393-1.2.005-1.903-.692-1.908-1.992-.005-1.5.693-2.003 2.493-2.01 2.8-.01 3.394-1.513.89-2.403-1.802-.693-2.302-.692-4.1.115M382.11 421.857c.302.5 1.704.994 3.004.989s2.698-.51 2.996-1.012c.398-.601-.804-.997-3.004-.988-2.2.008-3.398.413-2.996 1.011M485.877 439.159c.204 1 1.007 1.796 1.807 1.793 2.2-.008 1.789-2.907-.313-3.299-1.4-.294-1.8.107-1.494 1.506M580.23 530.697a2.77 2.77 0 0 0 2.208 2.192c1.3.295 1.7-.107 1.394-1.406a2.77 2.77 0 0 0-2.208-2.191c-1.301-.295-1.7.106-1.395 1.405M584.615 553.08c-.695 1.203 1.216 3.996 2.716 3.99 1.3-.005.583-4.302-.918-4.696-.601-.198-1.4.105-1.798.707M578.307 420.804c-1.494 1.406-.577 6.002 1.834 8.793 2.612 3.19 3.51 2.386.997-.904-1.709-2.193-2.026-6.592-.626-6.598 3.1-.011 7.03 7.574 4.937 9.582-1.296 1.105-13.284 4.15-21.08 5.18-2.499.31-4.295 1.317-5.29 2.82-1.59 2.507-.978 5.505 1.222 5.496 1.2-.004 1.198-.404.192-2-.805-1.197-.909-2.297-.31-2.8.597-.502 6.192-2.023 12.487-3.247 13.69-2.753 14.987-3.358 14.974-6.658-.021-5.7-6.547-12.475-9.337-9.664M479.84 455.482c-8.59 2.933-15.459 10.86-19.016 22.073-2.37 7.51-2.388 29.01.006 27.5.5-.201.49-2.701-.02-5.4-.412-2.798-.626-6.497-.433-8.298 1.838-16.207 3.42-20.713 9.796-27.238 9.163-9.635 20.557-11.079 36.082-4.638 4.107 1.684 7.512 3.171 7.513 3.371 0 .1-1.189 2.905-2.676 6.11-10.313 22.84 6.747 64.275 33.815 82.071 8.522 5.567 15.531 8.14 22.131 8.115 2.8-.01 3.102.288 3.112 2.988.011 3-.089 3-5.189 3.02-7.6.03-15.208-2.241-21.524-6.417-3.008-1.989-5.914-3.478-6.513-3.275-1.498.506 9.028 7.265 13.734 8.747 2.202.692 5.006 1.58 6.308 2.076 1.302.495 4.703.882 7.703.87 6.4-.024 6.501.275 3.532 8.287-2.574 6.81-7.551 12.729-13.04 15.45-5.99 2.923-8.588 3.333-9.994 1.738-1.607-1.893-3.307-1.787-2.5.21.606 1.498.007 1.6-5.095 1.12-3.202-.388-8.307-1.669-11.311-2.857-5.108-2.08-14.829-7.443-16.034-8.739-.301-.298-2.307-1.89-4.513-3.482-5.115-3.78-13.848-12.447-19.073-18.927-10.751-13.359-18.812-29.128-23.678-46.41-.71-2.497-1.515-3.894-1.713-3.193-.693 1.803 4.567 17.283 8.599 25.667 7.156 14.673 15.3 25.842 27.644 37.594 5.019 4.781 9.935 8.962 10.936 9.358 1.002.297 1.804.893 1.805 1.293.002.5 4.012 2.885 8.82 5.267 18.637 9.428 34.133 8.269 44.588-3.372 6.074-6.923 8.542-15.032 8.49-28.532-.103-27-14.322-57.846-37.209-80.458-11.543-11.256-21.467-17.518-34.383-21.668-8.11-2.47-13.51-2.548-20.7-.02m45.459 15.226c5.114 3.88 14.45 13.144 18.17 18.13 1.608 2.194 3.215 4.088 3.516 4.387 1.103.795 10.462 16.16 12.177 19.953 6.857 14.774 10.91 28.758 10.943 37.358.022 5.6.022 5.6-4.178 5.616-6.1.024-10.606-1.459-17.622-5.632-14.032-8.446-24.885-22.105-33.762-42.27-2.22-5.092-4.987-22.482-4.408-27.884.68-5.503 3.446-14.313 5.042-15.22 1.097-.804 3.602.587 10.122 5.562"/><path d="M501.588 467.999c-1.884 4.207-2.174 6.708-2.137 16.408-.052 12.4.865 16.897 5.813 29.478 3.333 8.487 6.455 14.275 12.79 23.351 4.023 5.885 14.062 16.146 14.055 14.446-.001-.5-2.111-2.992-4.62-5.382-4.919-4.781-15.78-20.64-19.208-27.927-6.453-13.875-9.518-30.863-7.56-41.77.686-3.603 1.87-7.808 2.664-9.411.893-1.704 1.288-3.205.986-3.504-.3-.299-1.593 1.606-2.783 4.31M333.819 528.443c-11.382 4.744-18.66 10.572-22.53 18.187-4.665 9.318-7.406 24.729-6.755 38.026.76 15.298 4.409 28.184 12.978 46.25 13.004 26.951 31.481 47.18 52.42 57l6.712 3.274.155 40.3c.1 26.3.455 40.398 1.155 40.396.6-.003.947-13.804.848-39.504-.09-23.4.248-39.501.748-39.503s3.803.685 7.307 1.572c23.322 5.91 43.965-9.069 48.665-35.187.783-4.403 1.056-11.404.725-19.603-.432-8.298-.162-15.9.717-21.603.68-4.903 1.258-10.905 1.348-13.405-.015-4 .382-4.702 3.076-6.312 3.592-2.014 3.384-4.213-.416-4.198-1.5.105-2.701-.29-2.703-.69s.397-.802.997-.804c.5-.002 2.295-1.409 3.988-3.115 3.187-3.413 3.182-4.713.355-11.802-1.312-3.195-1.613-3.294-5.41-2.679-4.298.717-4.498.617-3.01-2.388.596-1.103 1.39-2.806 1.886-3.808.595-1.202.39-2.401-.514-3.598-1.106-1.596-2.207-1.791-6.905-1.273-5.498.62-5.498.62-5.51-2.78-.016-3.9-1.62-4.793-6.313-3.275-3.097 1.012-3.898.715-9.21-2.565-4.913-3.18-17.637-9.532-19.037-9.527-.2.001-3.91-2.485-8.221-5.568-18.15-13.03-34.767-17.167-47.546-11.818m19.402.626c5.805 1.078 6.806 1.474 14.32 4.945 5.409 2.48 12.226 6.853 17.04 10.735 5.618 4.578 17.668 17.432 20.885 21.92 1.71 2.493 3.318 4.787 3.62 5.086 1.103.996 8.15 12.869 11.071 18.657 4.132 8.285 9.18 20.865 10.703 26.76 3.453 13.786 3.763 16.385 3.415 29.987-.256 11.4-.841 15.203-2.62 20.51-2.474 6.91-4.76 10.718-2.982 4.911 2.864-9.41 3.742-15.214 3.807-24.214-.045-11.6-2.903-26.69-7.143-37.173-.404-1.099-1.414-3.595-2.12-5.492-2.73-7.59-11.593-23.856-17.426-32.434-7.34-10.671-23.002-26.711-30.921-31.681-8.922-5.666-16.736-9.236-23.743-10.909-10.31-2.56-8.714-3.767 2.094-1.608m-4.789 2.918c11.708 1.855 27.342 10.795 39.087 22.45 18.069 17.931 32.263 42.477 39.764 68.748 3.245 11.588 4.217 30.484 2.157 40.692-2.653 12.41-9.714 22.638-18.497 26.872-3.095 1.411-7.192 2.327-12.19 2.646l-7.599.43 5.494-1.522c16.383-4.663 23.951-12.892 27.984-30.307 3.441-15.414 1.673-33.207-5.504-53.28-6.268-17.476-16.932-34.335-30.184-47.784-16.564-16.636-29.492-23.887-44.195-24.73-12.003-.654-19.992 2.276-28.361 10.309-2.392 2.209-4.286 3.716-4.287 3.316-.013-3.2 8.45-12.733 14.039-15.854 5.09-2.72 13.087-3.45 22.292-1.986m9.235 8.965c15.42 5.34 34.789 23.067 47.267 43.319 12.78 20.75 19.461 42.025 19.537 61.725-.057 11.2-3.198 26.713-5.498 26.722-.3 0-.303-.8.093-1.8 1.784-4.208 3.346-14.314 3.419-21.214-.04-36.3-24.21-80.508-54.987-100.69-6.617-4.374-12.928-7.25-21.438-9.917-3.504-1.087-3.404-1.087 1.197-.605 2.601.19 7.306 1.372 10.41 2.46m-12.4.148c6.406 1.375 16.122 5.638 22.038 9.615 17.847 12.232 37.145 37.758 45.13 59.727 1.111 3.196 2.525 6.69 3.03 7.789 1.915 4.092 4.062 16.284 4.701 26.582 1.068 17.596-2.482 30.61-10.453 38.24-4.184 4.116-14.07 7.754-21.07 7.781-8.6.033-22.622-5.713-33.554-13.871-13.238-9.85-33.342-36.972-39.405-53.35-.706-1.697-2.121-5.491-3.233-8.487-7.576-19.77-8.281-47.268-1.527-59.294 6.951-12.627 19.231-17.874 34.343-14.732m56.75 12.582c1.403.894 3.708 2.186 5.11 2.88 5.811 2.878 16.144 11.438 20.063 16.423 6.835 9.074 8.457 14.768 8.521 31.468.031 8-.443 14.702-.941 15.204-.698.702-1.704-1.094-2.92-5.19-6.584-21.874-20.981-47.12-34.231-60.068-4.015-3.885-4.015-3.885-1.112-3.196 1.701.393 4.105 1.484 5.51 2.479m28.147 12.392c.001.3-.397.801-.996 1.104-.499.302-1 .103-1.001-.397-.003-.6.495-1.101.995-1.103.6-.003 1.001.196 1.002.396m4.014 3.684c.004 1-.393 1.902-.993 1.904-.5.002-1.004-1.196-1.01-2.596-.005-1.4.392-2.301.993-1.904.601.298 1.006 1.496 1.01 2.596m7.655 14.371c.613 3.298-.675 6.503-2.575 6.51-1.2.005-1.828-7.393-.733-8.797 1.592-2.006 2.594-1.41 3.308 2.287m-1.052 12.504c-.298.501-1.196 1.005-1.796 1.007-.7.003-.601-.398.296-1.001 1.896-1.207 2.296-1.209 1.5-.006"/><path d="M353.142 560.47c-.896 1.103-1.595 1.306-2.398.509-1.606-1.594-2.605-1.19-2.596 1.01.008 2.1-1.49 2.705-2.496 1.01-1.007-1.697-2.505-1.091-2.497 1.009.005 1.1-.392 2.001-.992 2.004-.5.002-1.002-.496-1.004-.996-.002-.6-.704-.998-1.604-.994-1 .004-1.397.605-1.094 1.504.403.798.207 1.7-.392 2.001-.499.402-1.2-.095-1.504-.894-.808-2.097-2.403-.99-2.394 1.51.008 2.1-1.49 2.605-2.497.809-1.005-1.496-3.59 2.614-2.883 4.411.303.799.007 1.8-.591 2.202-.699.403-1.401-.194-1.706-1.393-.61-2.498-2.809-2.29-2.799.31.004.9-.592 2.003-1.39 2.506-.898.603-.996 1.104-.194 1.5 1.604 1.095 1.31 2.596-.392 2.002-.802-.397-1.501-.194-1.499.406.002.5.705 1.197 1.506 1.594 1.603.594 2.114 3.592.614 3.598-.5.002-.694 1.503-.488 3.202.107 1.8.32 5.199.33 7.599.114 3.9.316 4.298 2.114 3.692 2.397-.81 4.108 2.184 2.013 3.492-1.097.704-1.096 1.104-.09 2.4.702.798 1.008 2.296.712 3.298-.692 2.102.214 3.699 2.718 4.59 1.202.494 1.606 1.593 1.515 3.893-.19 2.601.213 3.5 2.016 4.293 1.202.495 2.207 1.791 2.21 2.791.005 1.1.607 1.698 1.707 1.494.999-.204 1.901.392 2.105 1.392.205 1.299-.094 1.6-1.195 1.204-3.606-1.386-1.194 1.805 3.718 4.886 1.504.994 2.71 2.59 2.715 3.69s1.413 3.394 3.02 5.188c1.706 1.693 3.01 2.688 3.008 2.288s.7-.202 1.603.594c.802.697 1.308 2.095 1.111 3.096-.79 2.703 1.525 6.394 3.623 5.986 1.2-.304 1.702.294 1.709 2.094.015 3.9 1.021 5.696 3.221 5.687 1.1-.004 2.203.792 2.508 1.89.304 1.1 1.007 1.797 1.705 1.494.7-.303 2.601.19 4.205 1.084 3.907 1.985 6.107 1.977 4.4-.017-.704-.897-1.007-1.796-.708-2.097.896-.904 2.702.59 2.708 2.29.005 1.2.305 1.298 1.402.394.997-.804 1.596-.906 2.1-.108.301.499 1.303.995 2.103.992 1.2-.005 1.199-.405.393-2.002-.605-1.097-.81-2.497-.512-2.998.994-1.704 2.5-.11 2.51 2.79.11 2.6.11 2.6 1.504.795 1.293-1.805 1.493-1.806 2.1-.208 1.01 2.596 2.498-.21 1.687-3.107-.305-1.398-.109-2.3.591-2.302a1.11 1.11 0 0 1 1.105 1.096c.002.6.603.898 1.302.595.7-.203 1.094-1.604.888-3.104-.31-2.498-.21-2.699 1.693-1.706 2.907 1.589 3.206 1.388 2.495-1.51-.61-2.497-.51-2.598 1.992-2.007 2.703.69 2.802.589 2.09-2.408-.711-3.098-.711-3.098 3.191-2.413 3.503.687 3.703.586 2.397-1.009-1.206-1.395-1.107-1.796.488-3.102 1.795-1.307 1.794-1.407.192-2-2.103-.792-2.412-3.091-.515-3.799.9-.303.898-.703-.107-2-1.005-1.195-1.11-2.395-.222-5.598 1.281-4.905.777-6.103-2.623-6.09-3 .011-3.106-1.588-.11-2.4 1.998-.608 1.998-.708.494-1.702-1.002-.496-1.808-2.093-1.813-3.393-.006-1.5-.71-2.597-2.111-2.992-1.602-.494-1.905-1.193-1.512-3.094.492-2.002.19-2.6-1.913-3.393-2.504-.99-3.31-2.487-1.613-3.194 1.199-.404.178-5.8-1.022-5.796-.5.002-.898.404-.896 1.004.002.5-.696 1.002-1.496 1.006-1.1.004-1.303-.695-.911-2.897.49-2.402.189-2.9-2.114-3.492-2.002-.492-2.504-1.09-2.01-2.592.395-1.302-.109-2.3-1.412-3.195-1.203-.695-2.107-1.892-2.11-2.692-.004-1-.305-1.099-1.401-.194-1.794 1.507-3.302-.388-1.809-2.193 1.295-1.505-.616-4.198-2.816-4.19-1 .004-1.403-.894-1.31-2.795.094-1.5-.21-2.699-.81-2.697-.5.002-.897.904-.893 2.004.005 1.2-.692 2.003-1.592 2.006-1.3.005-1.503-.694-.916-3.996.586-3.803.485-4.002-1.714-3.794-1.7.207-2.401-.29-2.608-1.99-.205-1.2-.808-2.197-1.308-2.195s-.903-.696-.906-1.496c-.004-.9-1.008-1.997-2.21-2.492-1.302-.495-3.607-1.786-5.31-2.88-3.61-2.486-3.91-2.485-5.503-.579m4.012 3.084c.003.9-.495 1.402-1.196 1.205-1.802-.593-2.11-2.792-.41-2.799a1.58 1.58 0 0 1 1.606 1.594m-4.995 1.42c.002.5-.696 1.002-1.496 1.005s-1.502-.494-1.504-.994c-.002-.6.696-1.003 1.496-1.006s1.502.394 1.504.994m10.006 1.56c.006 1.6-.893 1.804-2.898.512-.702-.497-1.105-1.396-.707-1.897.894-1.504 3.598-.414 3.605 1.386m-15.095 1.359c-.297.601-.997.704-1.799.207-.702-.498-1.005-1.396-.608-2.098.895-1.403 2.9.189 2.407 1.89m9.101.165c.007 1.8-.193 1.9-1.496.906-.803-.697-1.507-1.595-1.509-2.095-.001-.5.697-.902 1.497-.905.9-.004 1.503.894 1.508 2.094m9.907 1.762c-.298.601-.997.704-1.8.207-.701-.498-1.005-1.396-.607-2.098.894-1.403 2.9.189 2.407 1.89m-23.903-.808c.002.5-.397 1.001-.997 1.004-.5.001-1.001-.497-1.003-.997-.003-.6.496-1.002.996-1.003.6-.003 1.001.396 1.004.996m9.002.565c.003.9-.495 1.402-1.196 1.205-1.802-.593-2.11-2.792-.41-2.799a1.58 1.58 0 0 1 1.606 1.594m-12.995 1.45c.005 1.1-.392 2.002-.892 2.003-1.4.006-2.307-1.79-1.612-2.993.994-1.704 2.496-1.11 2.504.99m22.395-1.486c1.802.693 1.209 2.395-.991 2.404-.8.003-1.403-.695-1.406-1.495-.006-1.7.193-1.8 2.397-.909m-14.392 2.055c.005 1.4-.295 1.401-1.499.406-.803-.697-1.505-1.394-1.506-1.594 0-.2.698-.403 1.498-.406s1.503.694 1.507 1.594m9-.134c.703.897 1.006 1.796.707 2.097-.996 1.104-3.702-.486-3.708-2.086-.007-1.9 1.393-1.905 3-.011m-20.994 1.78c.005 1.3-2.298.51-2.804-.989-.203-.7.196-1 1.198-.604.9.296 1.604 1.093 1.606 1.593m7.8-.13c-.198.601-.797 1.003-1.297 1.005s-1.101-.395-1.304-.995c-.202-.599.396-1.101 1.296-1.105.9-.003 1.502.495 1.304 1.095m8.205 1.469c.003.8-.395 1.201-.996.904-.502-.298-1.005-1.296-1.009-2.096-.003-.8.496-1.202.997-.904.601.297 1.005 1.296 1.008 2.096m15.494-1.56c.402.599.505 1.198.206 1.5-.697.702-3.703-.686-3.707-1.686-.005-1.3 2.696-1.11 3.501.186m-5.69 2.322c.304 1.2-.094 1.7-.996 1.404-.7-.297-1.505-1.294-1.608-2.194-.305-1.199.093-1.7.995-1.404.7.298 1.505 1.295 1.608 2.194m-22.701-.013c-.096 1.2-1.497.906-1.902-.392-.302-.6.096-1 .797-.803.601.297 1.103.795 1.105 1.195m8.704 1.067c.305 1.199-.093 1.7-.995 1.404-.7-.297-1.505-1.294-1.608-2.194-.305-1.199.093-1.7.995-1.404.7.297 1.505 1.294 1.608 2.194m24-.192c.204 1.2-.095 1.5-1.196 1.104-1.903-.692-2.215-3.791-.313-3.198.602.297 1.305 1.195 1.508 2.094m-36.998.642c.202.7-.296 1.201-1.196 1.205a1.58 1.58 0 0 1-1.606-1.594c-.006-1.7 2.195-1.409 2.802.389m22.2.215c.005 1.1-2.695 1.21-3.4.013-.3-.4-.304-1.1-.005-1.4.797-.803 3.401.287 3.406 1.387m-26.993 1.703c.008 2-2.396 1.11-2.804-.989-.204-1.2.094-1.5 1.196-1.104.901.296 1.605 1.293 1.608 2.093m36.496-1.04c.007 1.8-1.994 1.508-2.301-.391-.304-.999.094-1.5.995-1.204.701.298 1.304.995 1.306 1.595m-23.499.29c.002.5-.396 1.002-.996 1.004-.5.002-1.002-.496-1.004-.996-.002-.6.496-1.002.996-1.004.6-.002 1.002.396 1.004.996m8.803.767c.203.699-.295 1.2-1.195 1.204a1.58 1.58 0 0 1-1.606-1.594c-.007-1.7 2.194-1.408 2.801.39m-13.296 1.05c.007 1.8-1.994 1.508-2.301-.39-.304-1 .094-1.5.995-1.204.701.297 1.304.995 1.306 1.595m22.497-.886c.802.497 1.104 1.196.806 1.597-.997.904-3.801-.285-3.806-1.585-.005-1.2.995-1.304 3-.012m10.009 2.362c-1.295 1.305-3.503-.687-2.51-2.39.498-.802 1.098-.805 2.101.091 1.003.797 1.206 1.496.409 2.299m-24.202-.407c.303.799-.095 1.2-.896.903-.701-.197-1.504-.994-1.707-1.693-.303-.799.096-1.2.897-.904.7.198 1.504.995 1.706 1.694m9.203.665c.003.8-.695 1.402-1.495 1.405s-1.503-.894-1.507-1.994c-.005-1.3.493-1.802 1.494-1.406.802.397 1.505 1.195 1.508 1.995m-21.998.584c.004 1.1-.393 1.701-.995 1.404-.5-.298-1.005-1.296-1.008-2.096s.495-1.402.995-1.404c.6-.002 1.003.896 1.008 2.096m-3.992 2.015c.002.5-.698.603-1.5.306-.8-.397-1.504-1.294-1.507-2.094-.005-1.3.295-1.301 1.499-.306.802.697 1.506 1.594 1.508 2.094m11.993-1.646c.004.8-.394 1.502-.994 1.504-.5.002-1.002-.696-1.006-1.496-.003-.8.495-1.502.995-1.504.6-.002 1.002.696 1.005 1.496m23.802.309c.303.799-.096 1.2-.897.903-.7-.197-1.504-.994-1.706-1.693-.303-.799.095-1.2.896-.904.701.198 1.504.995 1.707 1.694m10.2.16c.005 1.1-2.695 1.211-3.4.014-.301-.4-.304-1.1-.005-1.4.797-.803 3.401.287 3.406 1.387m-25-.003c.002.5-.696 1.002-1.496 1.005-.8.004-1.502-.494-1.504-.994-.002-.6.696-1.002 1.496-1.006.8-.003 1.502.395 1.504.995m9.805 1.262c.204 1-.293 1.701-1.193 1.705-1.8.007-2.906-1.59-2.112-3.092.895-1.404 2.898-.611 3.305 1.387m-22.799.288c.003.8-.394 1.501-.894 1.503-1.3.005-2.206-1.592-1.41-2.395 1.097-1.104 2.298-.608 2.304.892m8.3-.132c.606 1.597-.19 2.8-1.393 2.005-1.202-.695-1.113-3.396-.013-3.4.5-.002 1.103.596 1.406 1.395m24.702.605c.002.5-.696.903-1.496.906s-1.503-.695-1.506-1.495c-.004-.9.595-1.202 1.496-.905.802.397 1.504.994 1.506 1.494m9-.035c.002.5-.696.903-1.496.906-1.5.006-2.005-1.192-.91-2.296.798-.804 2.401.09 2.406 1.39m-25.094 1.597c.306 1.599.107 1.7-1.298.505-1.906-1.593-2.113-3.392-.311-2.9.601.299 1.405 1.295 1.61 2.395m-21.099.38c.303.8-.095 1.201-.896.904-.7-.197-1.504-.994-1.707-1.693-.303-.8.096-1.2.897-.904.7.198 1.504.994 1.706 1.694m31.096-1.119c.702.498 1.106 1.396.708 1.898-.895 1.503-3.599.413-3.606-1.387-.006-1.6.893-1.803 2.898-.51m-35.597.837c.301.299.305 1.199.008 2-.396 1.101-.895 1.203-1.899.307-.802-.597-1.406-1.494-1.408-1.994-.003-1 2.396-1.21 3.3-.313m12.704.851c.003.8-.395 1.502-.995 1.504-.5.002-1.002-.696-1.005-1.496s.494-1.502.994-1.504c.6-.002 1.003.696 1.006 1.496m8.002.57c.004 1.1-.394 1.701-.995 1.403-.5-.298-1.005-1.296-1.008-2.096s.495-1.402.995-1.404c.6-.002 1.003.897 1.008 2.096m26.296-1.001c2.805 1.289 3.916 4.185 1.213 3.195-.802-.397-1.504-.994-1.506-1.494s-.303-.8-.703-.798c-1.9.308-3.301-.187-3.304-1.087-.005-1.3.995-1.304 4.3.184m-16.292 1.962c.002.5-.697.903-1.497.906s-1.503-.694-1.506-1.494c-.003-.9.596-1.203 1.497-.906.801.397 1.504.994 1.506 1.494m10.002.462c.006 1.6-2.593 1.91-3.499.413-.302-.599-.405-1.398-.008-2 .795-1.303 3.5-.113 3.507 1.587m-32.003-.477c.002.5-.696 1.002-1.496 1.005s-1.502-.494-1.504-.994c-.002-.6.697-1.003 1.497-1.006s1.501.395 1.503.995m7.806 1.37c.304 1.198-.094 1.7-.995 1.403-.701-.297-1.505-1.294-1.608-2.193-.305-1.2.093-1.7.994-1.404.701.297 1.505 1.294 1.609 2.194m9.202.664c.002.5-.696.903-1.496.906-.9.003-1.504-.894-1.508-2.094-.007-1.8.193-1.901 1.496-.906.803.697 1.506 1.594 1.508 2.094m-21.403-.918c.302.6.205 1.5-.193 1.901-1.195 1.205-3.802-.485-3.007-1.888.894-1.404 2.294-1.41 3.2-.013m7.407 1.972c.003.6-.397.702-.998.404-.501-.298-1.004-1.096-1.006-1.596-.003-.6.497-.702.998-.404.601.298 1.004 1.096 1.006 1.596m23.799-.391c.203.699-.295 1.2-1.195 1.204a1.58 1.58 0 0 1-1.607-1.594c-.006-1.7 2.195-1.408 2.802.39m9.2.164c.005 1.1-.392 2.002-.992 2.004-.5.002-1-.196-1.001-.396s-.304-1.099-.608-1.998c-.404-1.098-.106-1.6.994-1.604.9-.003 1.603.794 1.608 1.994m9.8-.137c.303.799-.095 1.2-.896.903-.701-.197-1.504-.994-1.707-1.693-.303-.8.096-1.2.897-.904.7.198 1.504.994 1.706 1.694m-54.996 1.21c.304.8-.095 1.201-.896.904-.7-.197-1.504-.994-1.707-1.693-.303-.799.096-1.2.897-.904.7.198 1.504.995 1.706 1.694m21-.28c-.392 2.202-2.193 2.009-2.6-.09-.205-.999.293-1.6 1.293-1.605s1.503.694 1.307 1.695m10.203.861c.006 1.6-2.593 1.91-3.498.413-.303-.598-.406-1.398-.008-2 .795-1.303 3.5-.113 3.506 1.587m-22.704-.913c.904.897-.386 3.502-1.389 2.806-.501-.299-.905-1.197-.908-1.997-.005-1.4 1.193-1.905 2.297-.809m31.603.579c.603.798.806 1.597.507 1.998-.996.904-3.401-.387-3.407-1.887-.007-1.8 1.393-1.805 2.9-.111m9.602.463c.006 1.8-1.995 1.508-2.302-.391-.304-.999.094-1.5.995-1.204.702.297 1.304.995 1.307 1.595m9.3.064c.303.8-.095 1.2-.897.904-.7-.198-1.503-.994-1.706-1.694-.303-.799.095-1.2.896-.903.701.197 1.504.994 1.707 1.693m-42.8.265c.803.497 1.205 1.195.906 1.496-.797.803-3.902-.485-3.906-1.585s1.096-1.104 3 .089m-12.192 1.946c.303.8-.095 1.2-.897.904-.7-.197-1.503-.994-1.706-1.694-.303-.798.095-1.2.896-.903.701.197 1.504.994 1.707 1.693m8.203.669c.003.8-.395 1.402-.995 1.404-.5.002-1.003-.896-1.008-2.096-.004-1.1.493-1.702.995-1.404.6.298 1.005 1.296 1.008 2.096m12.996-1.05c.003.9-.495 1.402-1.196 1.205-1.802-.593-2.11-2.792-.41-2.799a1.58 1.58 0 0 1 1.606 1.594m9.802.662c.205 1.2-.094 1.5-1.195 1.105-1.903-.693-2.215-3.791-.313-3.199.601.298 1.305 1.195 1.508 2.094m19 .027c.305 1.2-.093 1.7-.994 1.404-.701-.297-1.505-1.294-1.609-2.194-.304-1.198.094-1.7.995-1.403.701.297 1.505 1.294 1.609 2.193m-53.996 1.108c.205 1.199-.094 1.5-1.195 1.104-1.903-.692-2.215-3.791-.313-3.198.601.297 1.305 1.195 1.508 2.094m44.995-1.373c-.197.6-.796 1.003-1.296 1.005s-1.101-.396-1.304-.995c-.202-.6.396-1.101 1.296-1.105.9-.003 1.502.494 1.304 1.095m-23.992 1.892c.303.799-.096 1.2-.897.904-.7-.198-1.504-.995-1.707-1.694-.303-.799.096-1.2.897-.903.7.197 1.504.994 1.707 1.693m9.001.466c.305 1.198-.093 1.7-.994 1.403-.701-.297-1.505-1.294-1.609-2.193-.304-1.2.094-1.7.995-1.404.701.297 1.505 1.294 1.608 2.194m28.197-1.009c.003.8-.695 1.503-1.495 1.506-1.6.006-2.004-1.192-.808-2.297 1.095-1.204 2.297-.809 2.303.791m-49.996 1.292c.004.9-.494 1.402-1.195 1.205-1.802-.593-2.11-2.792-.41-2.799a1.58 1.58 0 0 1 1.605 1.594m7.803.67c.204 1-.294 1.702-1.194 1.705-1 .004-1.603-.894-1.608-2.094-.009-2.4 2.292-2.109 2.802.39m23.998-.592c.303.9-.195 1.301-1.396 1.006-.9-.097-1.904-.893-2.206-1.592-.304-.899.195-1.3 1.396-1.005.9.096 1.903.892 2.206 1.591m9.199-.235c.003.9-.495 1.402-1.195 1.205-1.803-.594-2.111-2.792-.411-2.799a1.58 1.58 0 0 1 1.606 1.594m-45.09 2.473c-.299.601-.998.704-1.8.207-.702-.497-1.005-1.396-.608-2.098.895-1.403 2.9.19 2.407 1.891m21.098-.281c.008 2-2.396 1.11-2.804-.99-.204-1.198.095-1.5 1.196-1.104.901.297 1.605 1.294 1.608 2.094m37.594-1.744c.302.599.206 1.499-.193 1.9-1.195 1.205-3.802-.485-3.007-1.888.894-1.403 2.294-1.409 3.2-.012m-27.895 1.507c.304.899.308 1.899-.091 2.2-.697.703-3.606-1.586-3.61-2.786-.007-1.5 2.995-1.012 3.701.586m9.303.564c.009 2.4-2.292 2.109-2.802-.39-.204-.998.294-1.7 1.194-1.704 1-.004 1.603.894 1.608 2.094m9.097-.635c-.094 1.5-2.395 1.21-2.9-.289-.304-.899.194-1.3 1.195-1.004 1 .096 1.703.693 1.705 1.293m-41.093 1.758c.002.5-.397.901-.997.904-.5.002-1.002-.696-1.006-1.596-.003-.8.495-1.202.997-.904.6.297 1.003.996 1.006 1.596m8.002.47c.006 1.6-1.593 1.905-2.499.409-.805-1.297.388-3.202 1.59-2.506.502.398.906 1.296.909 2.096m-11.996 1.045c.003.8-.395 1.402-.895 1.404-1.1.004-2.21-2.592-1.413-3.395.896-.903 2.301.291 2.308 1.991m21.396-1.082c.403.899.407 1.899.208 2.1-.797.802-2.603-.79-2.61-2.29-.007-1.9 1.594-1.807 2.402.19m9.403.764c.304 1.199-.094 1.7-.995 1.404-.701-.297-1.505-1.294-1.609-2.194-.304-1.199.094-1.7.995-1.404.701.298 1.505 1.294 1.609 2.194m9.794-1.338c.303.6.107 1.6-.491 2.202-.897.904-1.397.806-2.101-.292-.906-1.496-.412-2.998.988-3.003.5-.002 1.202.495 1.604 1.093m8.402.368c.003.8-.394 1.502-.994 1.504-.5.002-1.003-.696-1.006-1.496s.494-1.502.994-1.504c.6-.002 1.003.696 1.006 1.496m-53.189 3.104c.305 1.2-.093 1.7-.994 1.404-.701-.297-1.505-1.294-1.609-2.194-.304-1.198.094-1.7.995-1.403.701.297 1.505 1.294 1.608 2.193m11.998-.546c.304.8-.095 1.2-.896.904-.7-.198-1.504-.994-1.707-1.694-.303-.799.096-1.2.897-.903.7.197 1.504.994 1.706 1.693m9.002.366c.204.999-.294 1.7-1.194 1.704-1 .004-1.603-.893-1.608-2.093-.009-2.4 2.292-2.11 2.802.389m28.2.191c.004.8-.694 1.403-1.494 1.406s-1.503-.894-1.507-1.994c-.005-1.3.493-1.802 1.494-1.406.802.397 1.505 1.194 1.508 1.994m8.798-.833c.202.699-.296 1.2-1.196 1.204a1.58 1.58 0 0 1-1.606-1.594c-.006-1.7 2.195-1.408 2.802.39m-27.8.306c.803.497 1.105 1.196.807 1.597-.997.904-3.801-.285-3.806-1.585-.005-1.2.995-1.304 3-.012m9.504.764c.007 1.8-1.995 1.508-2.302-.391-.304-.999.094-1.5.996-1.204.7.297 1.303.995 1.306 1.595m-31.497.92c.003.9-.495 1.403-1.195 1.206-1.803-.594-2.111-2.792-.411-2.799a1.58 1.58 0 0 1 1.606 1.594m54.8-.01c.203.7-.295 1.202-1.195 1.205a1.58 1.58 0 0 1-1.606-1.594c-.007-1.7 2.194-1.408 2.801.39m-46.796.98c.006 1.7-2.195 1.409-2.802-.39-.202-.698.296-1.2 1.196-1.204a1.58 1.58 0 0 1 1.606 1.594m9.501.364c.009 2.2-2.893 1.81-3.3-.288-.306-1.398.092-1.8 1.493-1.505 1.001.196 1.804.993 1.807 1.793m18.302.33c.304 1.198-.094 1.7-.995 1.403-.701-.297-1.505-1.294-1.608-2.194-.305-1.198.093-1.7.994-1.403.701.297 1.505 1.294 1.609 2.193m9.197-.836c.006 1.7-2.195 1.409-2.802-.39-.203-.698.295-1.2 1.195-1.204a1.58 1.58 0 0 1 1.607 1.594m-48.994 1.688c.007 1.8-.193 1.901-1.497.906-.803-.697-1.506-1.594-1.508-2.094s.697-.903 1.497-.906c.9-.003 1.503.894 1.508 2.094m7.8.27c.305 1.2-.093 1.7-.994 1.404-.701-.297-1.505-1.294-1.608-2.194-.305-1.199.093-1.7.994-1.404.701.298 1.505 1.295 1.609 2.194m23.197-.889c.004.9-.494 1.402-1.195 1.205-1.802-.593-2.11-2.792-.41-2.799a1.58 1.58 0 0 1 1.605 1.594m-14.193 1.655c-.495 1.502-2.296 1.109-2.603-.59-.204-1.1.195-1.401 1.297-1.005.901.396 1.404 1.094 1.306 1.595m9.204.964c.01 2.6-2.394 1.81-2.804-.989-.306-1.599.092-2 1.194-1.604.9.296 1.605 1.493 1.61 2.593m18.999-.173c.005 1.2-2.696 1.11-3.5-.086-1.107-1.696.487-3.202 2.092-1.908.803.597 1.406 1.494 1.408 1.994m8.094-1.63c-.094 1.5-2.396 1.209-2.901-.29-.304-.898.195-1.3 1.196-1.004 1 .096 1.702.693 1.705 1.293m-57.192 2.319c.306 1.599.107 1.7-1.298.505-1.906-1.593-2.113-3.392-.31-2.899.6.298 1.404 1.295 1.608 2.394m8.103.569c.001.5-.697.803-1.497.806-1.5.005-2.008-2.093-.813-3.297.697-.703 2.304 1.09 2.31 2.49m30.995-1.22c.004 1.1-.393 1.702-.995 1.405-.5-.298-1.005-1.296-1.008-2.096s.495-1.402.995-1.404c.6-.003 1.003.896 1.008 2.096m22.8.113c.204 1-.293 1.701-1.193 1.705-1 .004-1.603-.894-1.608-2.094-.01-2.4 2.292-2.109 2.802.39m-45.893 1.777c-.298.6-.997.703-1.8.206-.701-.497-1.004-1.396-.607-2.097.894-1.404 2.9.189 2.407 1.89m9.003.665c.306 1.599.106 1.7-1.298.505-1.906-1.593-2.113-3.392-.311-2.899.6.298 1.405 1.295 1.609 2.394m9.899-.238c.305 1.299-.094 1.7-1.395 1.405a2.77 2.77 0 0 1-2.208-2.191c-.305-1.3.093-1.7 1.394-1.406a2.77 2.77 0 0 1 2.209 2.192m8.603.667c-.795 1.303-2.4.11-2.407-1.79-.005-1.3.295-1.302 1.498-.307.803.697 1.207 1.596.909 2.097m8.593-1.633c.003.8-.394 1.501-.994 1.504-.5.002-1.003-.696-1.006-1.496s.495-1.502.995-1.504c.6-.003 1.002.696 1.005 1.496m14.004 1.046c.007 1.6-1.592 1.906-2.498.41-.805-1.297.388-3.202 1.59-2.506.502.398.905 1.296.908 2.096m-62.196 1.039c.305 1.199-.093 1.7-.995 1.404-.7-.297-1.505-1.294-1.608-2.194-.305-1.199.093-1.7.995-1.404.7.297 1.505 1.294 1.608 2.194m8.2.068c.003.8-.694 1.503-1.494 1.506s-1.503-.694-1.506-1.494.695-1.503 1.495-1.506 1.502.695 1.505 1.494m8.804.867c.304 1.199-.094 1.7-.995 1.404-.701-.298-1.505-1.295-1.608-2.194-.305-1.2.093-1.7.994-1.404.701.297 1.505 1.294 1.609 2.194m27.2.195c.008 2-2.395 1.11-2.803-.989-.205-1.2.094-1.5 1.196-1.105.9.297 1.605 1.294 1.608 2.094m8.996-1.134c.004.9-.494 1.402-1.195 1.204-1.802-.593-2.11-2.792-.41-2.798a1.58 1.58 0 0 1 1.605 1.594m-27.195 1.304c.203.7-.295 1.201-1.195 1.205a1.58 1.58 0 0 1-1.606-1.594c-.007-1.7 2.194-1.409 2.801.39m9.201.265c.01 2.4-2.292 2.109-2.801-.39-.204-.999.293-1.7 1.193-1.704 1-.004 1.604.894 1.608 2.094m22.7.113c-.591 2.002-2.692 1.91-2.7-.19-.005-1.4.493-1.902 1.495-1.406.9.297 1.404.995 1.206 1.596m-53.895 1.307c.305 1.198-.093 1.7-.994 1.403-.701-.297-1.505-1.294-1.609-2.193-.304-1.2.094-1.7.995-1.404.701.297 1.505 1.294 1.608 2.194m8-.031c.305 1.199-.093 1.7-.994 1.404-.701-.298-1.505-1.295-1.609-2.194-.304-1.199.094-1.7.995-1.404.701.297 1.505 1.294 1.608 2.194m36.2.06c.007 1.6-1.592 1.907-2.498.41-.805-1.296.388-3.201 1.59-2.506.502.398.906 1.297.909 2.097m-27.196.805c.204 1.2-.094 1.5-1.196 1.105-1.903-.693-2.215-3.792-.312-3.199.6.298 1.304 1.195 1.508 2.094m18.2.23c.007 1.6-1.592 1.907-2.498.41-.805-1.297.388-3.201 1.59-2.506.502.398.906 1.296.909 2.096m21.999-.584c.004 1.1-.394 1.701-.995 1.404-.501-.298-1.005-1.296-1.008-2.096s.495-1.402.995-1.404c.6-.002 1.003.896 1.008 2.096m-30.197.816c.303.899-.195 1.3-1.396 1.005-.9-.096-1.904-.892-2.207-1.591-.303-.9.195-1.301 1.397-1.006.9.097 1.903.893 2.206 1.592m22.2.115c.006 1.4-1.492 1.905-2.896 1.01-1.704-.993-.512-3.097 1.391-2.305.801.297 1.504.895 1.505 1.295m-52.997.803c.003.9-.495 1.402-1.195 1.205-1.803-.593-2.111-2.792-.411-2.799a1.58 1.58 0 0 1 1.606 1.594m7.803.77c.305 1.2-.094 1.7-.995 1.404-.7-.297-1.505-1.294-1.608-2.194-.305-1.199.093-1.7.995-1.404.7.298 1.505 1.295 1.608 2.194m9.201.265c.008 2-2.396 1.11-2.804-.99-.204-1.199.094-1.5 1.196-1.104.901.297 1.605 1.294 1.608 2.094m26.698-.503c-.592 2.003-2.692 1.91-2.7-.19-.006-1.4.492-1.901 1.494-1.405.901.297 1.404.995 1.206 1.595m22.098-.584c.203.699-.295 1.2-1.195 1.204a1.58 1.58 0 0 1-1.606-1.594c-.007-1.7 2.194-1.408 2.801.39m-39.996 1.153c.203.7-.295 1.201-1.195 1.205a1.58 1.58 0 0 1-1.606-1.594c-.007-1.7 2.194-1.409 2.801.39m9-.034c.203.699-.295 1.2-1.195 1.204a1.58 1.58 0 0 1-1.606-1.594c-.007-1.7 2.194-1.408 2.801.39m22.201.214c.002.5-.696.903-1.496.906-1.5.006-2.005-1.192-.91-2.296.798-.804 2.401.09 2.406 1.39m-9.195 1.236c.204.999-.294 1.7-1.193 1.704-1 .004-1.604-.894-1.609-2.094-.009-2.4 2.292-2.108 2.802.39m-43.797.968c.005 1.1-.393 1.701-.994 1.404-.501-.298-1.005-1.297-1.008-2.097s.494-1.401.994-1.403c.6-.003 1.004.896 1.008 2.096m8-.03c.01 2.4-2.292 2.108-2.801-.39-.204-1 .293-1.701 1.193-1.705 1-.004 1.604.894 1.608 2.094m9-.035c.01 2.4-2.292 2.108-2.801-.39-.204-.999.293-1.7 1.193-1.704 1-.004 1.604.894 1.608 2.094m8.998-.635c.703.897 1.007 1.796.708 2.097-.996 1.104-3.702-.486-3.708-2.086-.007-1.9 1.393-1.905 3-.011m9.004 1.065c.006 1.6-1.593 1.907-2.498.41-.805-1.297.387-3.202 1.59-2.506.502.398.905 1.296.908 2.096m21.996-1.084c.003.9-.495 1.402-1.195 1.205-1.803-.594-2.111-2.792-.411-2.799a1.58 1.58 0 0 1 1.606 1.594m-9.193 1.835c.305 1.2-.093 1.7-.995 1.404-.7-.297-1.505-1.294-1.608-2.194-.305-1.199.093-1.7.995-1.404.7.298 1.505 1.295 1.608 2.194m-43.996 1.17c.305 1.198-.093 1.7-.994 1.403-.702-.297-1.505-1.294-1.609-2.194-.304-1.199.094-1.7.995-1.404.7.298 1.505 1.295 1.608 2.194m9.205 1.264c.01 2.4-2.496.91-2.806-1.69-.308-2.098-.209-2.199 1.195-1.104.903.697 1.608 1.994 1.611 2.794m25.996-1.2c.006 1.6-1.593 1.906-2.499.41-.805-1.297.388-3.202 1.59-2.507.502.399.906 1.297.909 2.097m22.995-1.188c.003.8-.694 1.502-1.494 1.505-.8.004-1.503-.694-1.506-1.494s.695-1.502 1.495-1.506c.8-.003 1.502.695 1.505 1.495m-40.194 1.454c.202.7-.296 1.201-1.196 1.205a1.58 1.58 0 0 1-1.606-1.594c-.006-1.7 2.195-1.409 2.802.39m9-.034c.202.699-.296 1.2-1.196 1.204a1.58 1.58 0 0 1-1.606-1.594c-.007-1.7 2.195-1.408 2.802.39m21.696-.884c.302.499.406 1.399.008 2-.795 1.303-3.5.114-3.506-1.586-.006-1.6 2.593-1.91 3.498-.414m-44.483 4.471c.008 2-.092 2-1.598.506-.903-.896-1.308-2.095-.91-2.696.994-1.604 2.499-.31 2.508 2.19m9-.235c.003 1-.393 1.902-.893 1.904-1.2.005-2.312-2.891-1.516-4.094.794-1.403 2.4-.01 2.408 2.19m9.403.864c-1.395 1.406-3.906-1.385-2.912-3.088.497-.802 1.197-.605 2.302.49 1.104 1.096 1.307 1.896.61 2.598m8.091-2.23c.007 1.8-1.994 1.507-2.301-.392-.304-.999.094-1.5.995-1.204.701.298 1.304.995 1.306 1.595m8.499-.333c.003.8-.394 1.501-.994 1.503-.5.002-1.003-.696-1.006-1.496s.494-1.502.994-1.503c.6-.003 1.003.696 1.006 1.496m13.801.247c.203.699-.295 1.2-1.195 1.204a1.58 1.58 0 0 1-1.607-1.594c-.006-1.7 2.195-1.408 2.802.39m-8.994 1.534c.204 1-.294 1.701-1.194 1.705-1 .004-1.603-.894-1.608-2.094-.009-2.4 2.292-2.109 2.802.39m13.2.25c.004.8-.694 1.402-1.494 1.405-1.5.006-2.108-2.092-.912-3.296.996-.904 2.4.19 2.407 1.89m-21.995 1.084c.006 1.6-1.593 1.906-2.499.41-.805-1.297.388-3.202 1.59-2.507.502.399.906 1.297.909 2.097m-34.6.133c.909 2.196.81 2.397-.89 2.403-.8.003-1.504-.894-1.508-1.994-.01-2.4 1.49-2.706 2.398-.41m8.403.668c.204.999-.294 1.7-1.194 1.704-1 .004-1.603-.894-1.608-2.094-.009-2.4 2.292-2.108 2.802.39m9-.035c.204 1-.294 1.701-1.194 1.705-1 .003-1.603-.894-1.608-2.094-.009-2.4 2.292-2.109 2.802.389m9 .065c.305 1.2-.093 1.7-.995 1.404-.7-.297-1.505-1.294-1.608-2.194-.305-1.198.093-1.7.995-1.403.7.297 1.505 1.294 1.608 2.193m21.2.12c.007 1.6-1.592 1.905-2.498.409-.805-1.297.388-3.202 1.59-2.506.502.398.906 1.296.909 2.096m13.8-.354c.203 1-.294 1.701-1.194 1.705-1 .004-1.604-.894-1.608-2.094-.01-2.4 2.292-2.109 2.801.39m-30.992 2.22c.304 1.198-.094 1.7-.995 1.403-.701-.297-1.505-1.294-1.608-2.194-.305-1.199.093-1.7.994-1.404.701.298 1.505 1.294 1.609 2.194m8.196-.932c.003.8-.394 1.501-.994 1.503-.5.002-1.003-.696-1.006-1.496s.494-1.502.994-1.504c.6-.002 1.003.697 1.006 1.497m13 .05c.004.9-.494 1.402-1.195 1.204-1.802-.593-2.11-2.792-.41-2.798a1.58 1.58 0 0 1 1.605 1.594m-47.192 1.98c.304 1.2-.094 1.701-.995 1.405-.701-.298-1.505-1.294-1.608-2.194-.305-1.199.093-1.7.994-1.404.701.297 1.505 1.294 1.609 2.194m8.2.17c.003.8-.394 1.401-.894 1.403-1.1.004-2.21-2.592-1.413-3.395.896-.903 2.3.291 2.307 1.991m9.801.162c.41 2.398-.689 2.902-2.596 1.01-1.807-1.793-1.515-3.994.586-3.603.9.197 1.805 1.294 2.01 2.593m20.998-.58c.204.998-.293 1.7-1.193 1.704-1 .004-1.604-.894-1.608-2.094-.01-2.4 2.291-2.109 2.801.39m-8.795 1.333c.006 1.6-1.593 1.906-2.498.41-.805-1.297.387-3.202 1.59-2.507.502.398.905 1.297.908 2.097m21.996-1.185c.003.8-.695 1.503-1.495 1.506s-1.502-.694-1.505-1.494.694-1.503 1.494-1.506 1.503.694 1.506 1.494m-9.193 1.936c.305 1.199-.093 1.7-.995 1.404-.7-.298-1.505-1.295-1.608-2.194-.305-1.2.093-1.7.995-1.404.7.297 1.505 1.294 1.608 2.194m-38.797.849c.01 2.4-2.292 2.109-2.801-.39-.204-.999.293-1.7 1.193-1.704 1-.004 1.603.894 1.608 2.094m8.8.166c.205 1-.293 1.701-1.193 1.705-1 .003-1.603-.894-1.608-2.094-.009-2.4 2.292-2.11 2.802.389m9.2-.235c.01 2.4-2.292 2.108-2.802-.39-.203-.999.294-1.7 1.194-1.704 1-.004 1.603.894 1.608 2.094m34.197-.732c.002.5-.495 1.102-1.095 1.305-.599.202-1.101-.396-1.105-1.296-.003-.9.495-1.502 1.095-1.304.601.197 1.103.795 1.105 1.295m-22.196 1.086c.003.8-.394 1.501-.994 1.503-.5.002-1.003-.696-1.006-1.496s.495-1.502.995-1.504c.6-.002 1.002.697 1.005 1.497m13.002.45c.005 1.3-.493 1.802-1.494 1.405-.802-.397-1.505-1.194-1.508-1.994s.694-1.402 1.494-1.406c.8-.003 1.504.895 1.508 1.995m-37.99 2.746c.003.8-.694 1.402-1.494 1.405-1 .004-1.504-.994-1.51-2.594-.009-2.2.19-2.5 1.494-1.406.803.697 1.508 1.895 1.51 2.595m16.994-1.666c.004 1.1-.392 2.002-.892 2.004-1.4.005-2.307-1.791-1.612-2.994.994-1.704 2.496-1.11 2.504.99m13.004 1.05c.002.5-.696.903-1.496.906-.9.004-1.504-.894-1.508-2.094-.007-1.8.192-1.9 1.496-.906.803.697 1.506 1.594 1.508 2.094m-39 .15c.002.5-.396.902-.996.904-.5.002-1.003-.696-1.006-1.596-.003-.8.495-1.202.996-.904.602.298 1.004.996 1.007 1.596m17.801.132c.408 1.898-.592 2.102-2.697.81-1.604-.994-.513-3.398 1.19-2.804.7.197 1.304 1.095 1.507 1.994m34.197-.932c.003.8-.694 1.503-1.494 1.506s-1.503-.694-1.506-1.494.694-1.503 1.494-1.506 1.503.694 1.506 1.494m-21.992 2.285c.01 2.5-.09 2.6-1.595 1.106-.904-.896-1.308-2.095-1.01-2.696 1.292-2.005 2.595-1.11 2.605 1.59m12.498-.748c.002.7-.595 1.502-1.194 1.705-.799.303-1.301-.395-1.306-1.695s.492-2.002 1.293-1.805c.601.297 1.204 1.095 1.207 1.795m13.898-.453c.809 2.196.81 2.396-.79 2.403-1.8.007-2.907-1.59-2.112-2.992.894-1.504 2.195-1.209 2.902.589m-52.392 2.1c.003.8-.394 1.502-.994 1.505-.5.001-1.003-.697-1.006-1.497s.494-1.501.994-1.503c.6-.003 1.003.696 1.006 1.496m9.803.863c.305 1.299-.093 1.7-1.394 1.405a2.77 2.77 0 0 1-2.209-2.191c-.305-1.299.094-1.7 1.395-1.405a2.77 2.77 0 0 1 2.208 2.191m8.199-.331c.007 1.8-.193 1.9-1.497.905-1.504-1.194-1.211-2.995.589-3.002.5-.002.904.997.908 2.097m12.002.454c.005 1.4-.391 2.301-.993 1.903-.501-.298-1.006-1.496-1.01-2.596-.004-1 .493-1.902.993-1.904.6-.002 1.004 1.197 1.01 2.597m12.799-.25c.305 1.2-.094 1.7-.995 1.404-.7-.297-1.505-1.294-1.608-2.194-.305-1.198.093-1.7.994-1.403.702.297 1.505 1.294 1.609 2.193m-28.79 2.91c.01 2.6-2.392 1.81-2.803-.988-.306-1.6.092-2 1.194-1.605.901.297 1.606 1.494 1.61 2.594m7.996-1.23c.004 1.1-.392 2.002-.992 2.004-.5.002-1.004-.896-1.008-1.996s.493-2.002.993-2.004c.6-.002 1.003.896 1.007 1.996m12.295-1.447c.803.797-.287 3.401-1.387 3.405-.5.002-.904-.896-.908-1.996-.007-1.9 1.09-2.604 2.295-1.409m13.204 1.15c.007 1.8-1.994 1.507-2.301-.392-.304-.999.094-1.5.995-1.204.701.298 1.304.995 1.306 1.595m-42.695 1.263c.303.8-.096 1.2-.897.904-.7-.198-1.504-.995-1.706-1.694-.303-.799.095-1.2.896-.903.701.197 1.504.994 1.707 1.693m22.005 1.316c.204.999-.293 1.7-1.193 1.704-1 .004-1.604-.893-1.609-2.093-.009-2.4 2.292-2.11 2.802.389m11.199-.343c.004 1.1-.393 2.001-.993 2.004-.5.002-1.003-.897-1.007-1.997s.492-2.001.992-2.003c.6-.003 1.004.896 1.008 1.996m13.998-.454c.004.9-.495 1.402-1.195 1.205-1.803-.593-2.111-2.792-.411-2.799a1.58 1.58 0 0 1 1.606 1.594m-33.992 2.13c.003.8-.395 1.402-.995 1.404-.5.002-1.003-.896-1.008-2.096-.004-1.1.494-1.702.995-1.404.601.298 1.005 1.297 1.008 2.097m-8.2.232c.304.899-.194 1.3-1.395 1.005-.9-.096-1.904-.892-2.206-1.591-.304-.899.195-1.3 1.396-1.005.9.096 1.903.892 2.206 1.591m21.003.42c.203.999-.294 1.7-1.194 1.704-1 .004-1.603-.894-1.608-2.094-.01-2.4 2.292-2.109 2.802.39m12.198-.347c.005 1.1-.692 2.002-1.492 2.005s-1.503-.894-1.508-1.994c-.004-1.1.693-2.003 1.493-2.006s1.503.895 1.507 1.995m-20.993 1.68c.003.8-.395 1.402-.995 1.404-.5.002-1.003-.896-1.008-2.096-.004-1.1.493-1.702.995-1.404.6.298 1.005 1.296 1.008 2.096m25.6.002c-.297.801-.594 1.702-.593 1.902s-.398.402-.998.404c-.5.002-1.004-1.096-1.01-2.496-.007-1.8.391-2.302 1.593-1.806.801.297 1.305 1.195 1.008 1.996m-41.797.76c.203 1-.294 1.702-1.194 1.705-1 .004-1.603-.894-1.608-2.094-.01-2.4 2.292-2.109 2.802.39m8 .07c.304 1.199-.094 1.7-.995 1.404-.7-.298-1.505-1.295-1.608-2.194-.305-1.2.093-1.7.994-1.404.702.297 1.505 1.294 1.609 2.194m21-.081c.304 1.199-.094 1.7-.995 1.404-.701-.297-1.505-1.294-1.608-2.194-.305-1.199.093-1.7.994-1.404.701.298 1.505 1.294 1.609 2.194m-7.793 1.83c.01 2.6-2.393 1.81-2.804-.99-.306-1.598.092-2 1.194-1.604.9.297 1.605 1.494 1.61 2.594m-16.997.965c.01 2.3-1.59 2.506-2.399.31-1.01-2.497-.713-3.398.89-2.804.801.397 1.505 1.494 1.51 2.494m28.495-1.41c.007 1.8-1.994 1.508-2.301-.39-.304-1 .094-1.5.995-1.204.701.297 1.304.995 1.306 1.595m-20.497.78c.003.8-.394 1.501-.994 1.503-.5.002-1.003-.696-1.006-1.496s.494-1.502.994-1.504c.6-.002 1.003.697 1.006 1.497m13.006 1.55c.007 1.8-.193 1.9-1.497.905-.802-.697-1.506-1.594-1.508-2.094s.697-.903 1.497-.906c.9-.003 1.503.895 1.508 2.095m11.998-.646c.003.8-.695 1.502-1.495 1.505s-1.502-.694-1.505-1.494c-.004-.8.694-1.503 1.494-1.506s1.502.695 1.506 1.495m-20.195 1.377c.202.7-.296 1.201-1.196 1.205a1.58 1.58 0 0 1-1.606-1.594c-.006-1.7 2.195-1.409 2.802.39m-7.795 1.33c.009 2.4-2.292 2.109-2.802-.39-.204-.998.294-1.7 1.194-1.704 1-.004 1.603.894 1.608 2.094m19.998-.577c.003.9-.495 1.402-1.196 1.205-1.802-.593-2.11-2.792-.41-2.799a1.58 1.58 0 0 1 1.606 1.594m-7.997.93c.704.898 1.007 1.797.708 2.098-.996 1.104-3.702-.486-3.708-2.086-.007-1.9 1.393-1.905 3-.011m12.004 1.055c.006 1.6-1.592 1.906-2.498.41-.805-1.297.388-3.202 1.59-2.507.502.398.905 1.297.908 2.097m-19.996 1.077c.003.8-.394 1.401-.994 1.403-.5.002-1.004-.896-1.008-2.096-.005-1.1.493-1.702.994-1.403.601.297 1.005 1.296 1.008 2.096m-8.199.231c.203.7-.295 1.201-1.195 1.205a1.58 1.58 0 0 1-1.606-1.594c-.007-1.7 2.194-1.409 2.801.39m12.207 1.753c.003.8-.395 1.402-.995 1.404-.5.002-1.003-.896-1.008-2.096-.004-1.1.494-1.702.995-1.404.601.298 1.005 1.296 1.008 2.096m7.996-1.03c.003.8-.395 1.201-.997.903-.5-.298-1.003-.996-1.006-1.596-.002-.5.497-.902.997-.904.6-.002 1.003.697 1.006 1.597m-14.992 2.057c.003.8-.395 1.402-.895 1.404-1.2.004-3.21-2.588-2.512-3.29.996-.905 3.401.386 3.407 1.886m18.998-.573c.002.5-.397.902-.997.904-.5.002-1.002-.696-1.006-1.596-.003-.8.495-1.202.997-.904.6.298 1.003.996 1.006 1.596m-6.994 1.527c.006 1.6-2.593 1.91-3.499.413-.302-.598-.405-1.398-.008-2 .795-1.303 3.5-.113 3.507 1.587m-8.195 1.332c.303.798-.096 1.2-.897.903-.7-.197-1.504-.994-1.706-1.693-.304-.8.095-1.2.896-.904.7.197 1.504.994 1.707 1.694M86.172 568.895l.046 11.9 7.301.372c3.902.285 23.902.408 44.202.23l36.999-.242-.046-12-.046-12-44.201-.13-44.3-.03zm85.5-.029c.022 5.4-.262 9.801-.662 9.803l-41.3.159-40.499.155-.036-9.3c-.02-5.2.263-9.701.662-10.002.398-.402 18.897-.673 41.198-.659l40.6.144z"/><path d="M96.343 561.156c-.598.602-1.19 2.704-1.183 4.504.011 2.9.313 3.299 2.513 3.29 2-.007 2.501.49 2.508 2.29.012 3.1-.984 4.005-2.69 2.511-1.705-1.393-2.502-.59-1.694 1.607 1.01 2.596 4.007 1.884 5.395-1.421 1.486-3.506.677-6.003-2.026-6.692s-2.716-4.29.084-4.3c1.2-.005 1.898-.508 1.695-1.307-.607-1.698-3.108-1.988-4.602-.482M107.971 568.51c-.179 5.602.13 7.8 1.031 8.197.701.197 1.402.295 1.5.094.597-1.102-.66-15.897-1.36-15.895-.5.002-.987 3.404-1.171 7.605M128.052 563.534c-.99 2.604-.56 10.402.748 12.397 2.012 3.292 5.393-1.72 5.37-7.92-.126-6.6-4.137-9.485-6.118-4.477m3.918 4.785c-.374 6.601-2.17 7.808-2.593 1.61-.42-4.899.172-7.101 1.772-7.107.7-.003 1.008 1.996.821 5.497M138.847 562.292c-.397.802-.193 1.701.308 2 .602.397 1 .095.998-.405-.002-.6.496-1.102.996-1.103.6-.003 1.004.896 1.008 1.996s-.392 2.001-.992 2.003c-1.5.006-1.192 2.105.613 3.398.902.697 1.207 1.796.81 2.897-.791 2.103-2.39 2.21-2.398.21-.004-.8-.406-1.5-1.006-1.497-1.5.006-1.19 2.605.415 3.899 3.11 2.588 5.995-1.223 4.378-5.717-.405-1.299-.51-2.798-.213-3.3.298-.6.292-2.1-.013-3.5-.71-2.697-4.013-3.284-4.904-.88M148.951 563.254c-1.288 3.005.329 7.498 2.729 7.49.8-.004 1.503.893 1.508 1.993.008 2.2-1.59 2.706-2.298.71-.202-.6-.803-.898-1.202-.496-1.295 1.205.315 3.799 2.415 3.79 1.1-.004 2.096-.908 2.491-2.309.789-2.903.761-10.103-.046-12.1-.91-2.496-4.308-1.883-5.597.922m4.21 2.583c.015 3.8-2.387 3.51-2.801-.389-.208-1.9.09-2.7 1.19-2.704s1.603.993 1.611 3.093M116.672 568.878c-.397.601.804.996 3.004.988s3.399-.413 2.996-1.012c-.302-.598-1.703-.993-3.003-.988s-2.699.41-2.997 1.012M128.132 584.434c-.098.5.05 12.8.205 27.3.301 26.398.301 26.398-2 25.807-2.704-.69-7.793 2.03-8.084 4.331-.48 5.102 2.838 9.99 6.738 9.974 2.5-.01 6.49-2.725 6.483-4.425-.003-.7 2.19-2.708 4.883-4.419 6.285-3.924 7.676-6.329 5.265-9.12-1.708-2.093-1.708-2.093-6.399.325-2.494 1.41-4.891 2.219-5.192 1.92-.201-.3-.546-11.998-.7-26.098-.055-14.1-.4-25.798-.6-26.098-.301-.199-.6.003-.599.503m13.298 51.449c.002.6-.397.701-.999.404-.5-.298-1.004-1.096-1.006-1.596-.002-.6.498-.702.999-.404.6.298 1.004 1.096 1.006 1.596m-2.09 2.508c.306 1.599.106 1.7-1.299.505-1.906-1.593-2.113-3.392-.31-2.899.6.298 1.404 1.295 1.609 2.394m-2.896 1.211c.006 1.5-.194 1.5-1 .204-1.307-1.995-1.312-3.295-.009-2.5.601.298 1.006 1.396 1.01 2.296m-8.597.833c2.309 2.191 3.024 6.189 1.63 7.894-.696.803-2.694 1.51-4.394 1.517q-3.15.012-1.803-.893c1.097-.704 1.096-.904-.205-1.4-.902-.396-1.606-1.393-1.61-2.393-.005-1.4-.205-1.5-.901-.397-.596 1.002-.996 1.004-1.6.106-.906-1.496 3.277-6.012 5.577-6.021 1-.004 2.503.69 3.306 1.587m6.602.475c.002.5-.396.901-.996.904-.5.002-1.003-.697-1.007-1.597-.003-.8.496-1.201.997-.903.601.297 1.004.996 1.006 1.596m-2.598.51c1.01 2.496-.089 2.9-1.398.505-.605-1.198-.708-2.097-.108-2.1.5-.001 1.203.696 1.506 1.595"/><path d="M124.054 642.25c.304.899 1.006 1.596 1.506 1.594s.904.896.908 1.996.508 1.999 1.008 1.997c1.4-.006-1.224-6.196-2.826-6.79-.701-.197-1 .204-.596 1.203M533.254 589.278c-2.095 1.308-.993 1.804 2.705 1.29 1.799-.307 2.996-.912 2.694-1.41-.704-1.198-3.504-1.087-5.4.12M651.384 596.925c-2.895 1.31-5.493 1.72-7.595 1.329-2.702-.49-3.6-.186-4.893 1.719-1.69 2.506-2.158 10.908-.558 10.902.6-.003.992-2.004.982-4.504s.483-4.502.983-4.504c.6-.002 2.604.99 4.508 2.183 3.309 2.187 3.51 2.586 3.531 8.086.023 5.8.023 5.8-3.083 4.212-1.704-.893-3.506-1.486-4.105-1.284-.5.202.604 1.198 2.608 2.29 3.608 1.986 3.608 1.986 3.848 12.485.123 5.8.252 13.4.466 16.999.114 3.6.235 9.299.348 12.698.014 3.5.425 6.299.925 6.297.4-.002.56-10.502.31-23.401-.386-22.4-.29-23.5 1.506-24.506 1.097-.605 2.291-2.21 2.586-3.61.394-1.402 2.286-3.61 4.58-5.018 3.393-2.113 3.989-3.115 3.978-5.815-.008-2.2-.815-4.097-2.22-5.392-3.613-3.186-4.113-3.284-8.705-1.166m7.608 2.07c1.407 1.795 2.22 5.392 1.425 6.495-.298.401-1.794 1.607-3.29 2.613-2.693 1.71-2.793 1.71-2.8-.09-.004-.9-.71-2.697-1.515-3.894-1.408-1.994-1.31-2.295 1.284-4.205 3.19-2.412 3.59-2.514 4.896-.919m-11.689 2.945c1.905 1.193 3.81 2.686 4.213 3.284 1.106 1.696.94 10.597-.16 10.6-.5.003-1.008-2.195-1.019-4.995-.018-4.7-.22-5.1-4.029-7.585-2.205-1.491-4.01-2.784-4.011-2.984-.004-.9 1.699-.307 5.006 1.68M551.686 597.707c2.106 1.592 3.205 1.288 2.099-.408-.303-.598-1.404-1.094-2.304-1.09-1.5.105-1.5.205.205 1.498M189.796 600.797c-6.392 2.225-7.49 2.829-7.484 4.229.003.8.507 1.798 1.008 2.096.6.298.999-.304.994-1.404-.004-1.2.592-2.102 1.392-2.105s2.1-.308 2.998-.612c2.497-.91 1.905 1.193-.59 2.402-1.498.706-1.797 1.107-.697 1.103.8.097 1.999-.408 2.597-1.01 1.295-1.305 4.298-.516 4.304 1.084.002.5-.896 1.003-1.896 1.007-1.1.004-2.298.509-2.596 1.11-.497.702.303.899 2.103.692 3.298-.313 4.189-2.816 1.98-5.108-1.405-1.394-1.21-2.695.59-2.702.7-.003 4.127 7.084 3.628 7.486-.898.504-8.79 2.534-10.19 2.54-1.3.004-1.602-.495-1.108-1.997.593-1.902.393-1.901-1.903-.892-2.795 1.31-3.29 2.512-1.388 3.105 2.102.692-.09 2.6-7.674 6.83-12.374 6.847-17.842 15.068-20.482 30.678-2.445 14.31.844 37.498 7.608 54.372 4.04 10.184 15.717 30.44 20.135 35.123.603.697 3.917 4.385 7.132 8.072 10.144 11.661 27.492 23.995 39.708 28.148l5.508 1.979.437 35.898c.276 19.8.64 36.398.842 36.998.202.499.34-15.502.263-35.702l-.04-36.8 5.801.578c8.204.868 15.297-.959 25.076-6.496 10.377-5.84 17.453-12.168 20.43-18.179 2.977-6.012 3.765-9.115 4.43-18.117.474-6.802.772-7.503 2.573-7.11 6.105 1.176 6.005 1.277 5.57-7.922-.218-4.699-.736-9.297-1.24-10.195-.503-.998-2.708-2.19-5.01-2.78-2.202-.592-4.206-1.585-4.309-2.284-9.83-33.663-28.34-62.492-51.409-80.303-8.625-6.567-24.451-13.407-34.357-14.769-3.502-.486-4.504-1.082-5.312-3.18-2.728-7.289-3.53-7.886-9.422-5.863m19.045 11.727c14.914 3.743 22.93 8.012 35.472 18.764 11.237 9.557 26.413 29.399 32.965 42.974 4.637 9.482 7.464 16.671 9.39 23.464.507 1.598 1.622 5.694 2.635 8.99 1.317 4.495 1.838 9.793 1.883 21.493.159 15.5.159 15.5-3.115 22.212-3.671 7.614-8.353 12.232-18.93 18.573-10.674 6.44-15.67 7.76-26.372 7.1-8.202-.468-9.904-.961-19.221-5.525-26.05-12.8-46.439-35.922-59.36-67.473-5.452-13.48-7.596-24.97-7.659-41.37-.044-11.5.342-15.202 1.923-20.108 3.757-11.315 8.934-17.235 18.717-21.672 6.988-3.127 19.088-3.274 28.599-.41 5.806 1.778 17.228 7.234 18.634 8.828.3.3 2.307 1.891 4.613 3.383 5.514 3.678 17.963 16.53 24.296 25.107 2.815 3.789 5.529 7.478 5.93 7.977 1.91 2.593 4.73 7.582 8.962 15.966 10.58 20.96 15.872 44.639 13.738 61.947-.68 4.903-2.058 10.908-3.249 13.313-1.09 2.404-1.782 4.607-1.38 4.905.3.299.997-.504 1.492-1.806a635 635 0 0 1 2.674-6.91c1.586-3.706 1.872-7.107 1.725-19.507-.053-13.8-.36-15.798-3.299-25.687-5.065-16.98-11.215-29.957-21.274-45.219-1.408-2.194-2.816-4.19-3.117-4.488s-1.809-2.293-3.417-4.387c-4.623-6.082-19.68-20.824-24.693-24.205-12.933-8.65-25.25-13.203-35.75-13.163-7 .027-7.504-.771-1.51-2.594 4.694-1.518 13.593-1.752 18.698-.472m87.176 97.866c2.006 1.492 3.845 11.585 1.94 10.393-.701-.398-1.208-2.096-1.214-3.696-.01-2.6-.312-2.999-2.21-2.691-1.9.207-2.401-.191-2.61-2.49-.412-2.999 1.286-3.605 4.094-1.516m-2.57 8.01c-.296.801-.597.502-.601-.598-.105-1.1.193-1.7.495-1.302.3.3.404 1.199.107 1.9m2.519 4.59c-1.998.608-1.29 2.505.807 1.897 1.299-.305 2-.008 2.003.892.007 1.7-.193 1.701-3.499.214-2.504-1.09-3.41-2.787-1.51-2.794.6-.003.995-1.204 1.089-2.805-.01-2.7-.01-2.7 1.198-.304.908 1.896.91 2.496-.088 2.9"/><path d="M182.372 620.826c-7.787 3.33-11.578 5.644-14.465 9.155-4.28 5.017-7.256 11.428-7.935 16.93-.483 4.203-.484 4.103 1.295-1.404 2.67-7.91 6.545-14.325 10.435-16.94 3.192-2.213 3.192-2.213.603.697-7.568 8.43-10.135 17.04-10.172 33.44.027 7 .556 14.698 1.367 17.495.71 2.697 1.726 6.793 2.335 8.99 10.453 39.86 43.592 76.034 74.512 81.215 7.905 1.37 8.809 2.266 1.406 1.395-15.707-1.74-29.836-9.286-43.89-23.232-21.984-21.716-34.482-47.268-37.797-77.355-1.346-11.995-1.346-11.995-1.416-3.995-.206 24.401 14.623 57.944 35.003 78.866 13.755 14.248 23.48 20.71 37.497 25.156 10.113 3.262 19.312 2.926 27.297-.904 11.479-5.544 17.343-14.967 19.282-30.775 1.551-12.706-.09-23.3-6.26-41.776-10.32-31.06-34.033-60.37-58.58-72.475-10.72-5.36-23.927-7.309-30.517-4.483m23.513 3.21c14.72 5.443 27.358 15.094 40.219 30.845 23.71 28.91 35.868 69.863 28.265 95.092-2.172 7.209-8.343 14.933-13.138 16.25-5.694 1.623-12.095 1.347-20.103-.822-6.807-1.874-19.028-7.227-20.234-8.822-.302-.4-2.508-2.09-5.015-3.781-5.815-3.978-18.365-16.93-24.297-25.207-9.752-13.663-18.124-32.43-21.585-48.317-1.934-8.793-2.217-30.392-.545-37.699 1.574-6.806 4.851-12.718 9.435-16.836 3.39-2.913 3.988-3.115 11.988-3.146 6.5-.025 9.903.562 15.01 2.442m-38.128 18.846c-1.082 4.604-1.362 9.905-.926 19.304.986 22.396 8.065 42.869 22.246 63.915 6.94 10.273 23.203 26.81 30.419 30.983 2.706 1.49 5.112 3.08 5.413 3.38 1.306 1.494 11.922 5.854 18.529 7.528 5.004 1.181 5.004 1.181.905 1.297-4.3.116-15.212-3.142-21.926-6.616-20.038-10.023-39.93-33.647-51.132-60.504-6.258-14.876-9.144-37.365-6.901-52.274.976-6.304 3.25-13.213 4.45-13.217.2-.001-.29 2.8-1.077 6.204M558.999 600.98c-.299.4.305 1.298 1.408 1.994 1.002.696 1.903.793 1.9.293-.004-1.3-2.812-3.29-3.308-2.288M503.614 605.092c-2.097.808-1.491 2.206.706 1.597 1.1-.304 1.997-.907 1.995-1.407-.004-1-.804-.997-2.7-.19M567.32 606.647c.704.798 2.007 1.493 2.907 1.49 1.3-.106 1.298-.306-.306-1.5-2.608-1.89-4.208-1.883-2.6.01M640.72 606.266c-.594 1.502 3.029 7.588 4.629 7.582s1.988-3.208.678-5.803c-1.412-3.094-4.416-4.083-5.307-1.78m4.106 1.684c1.107 1.696-.092 2.1-1.498.406-.804-.897-.806-1.497-.206-1.5s1.402.495 1.704 1.094M495.532 609.623c-1.495 1.506-1.583 4.506-.18 5.3.602.399.998-.503.993-1.903s.49-2.602.99-2.604c.6-.002.998-.504.996-1.004-.005-1.4-1.305-1.295-2.8.211M177.343 613.145c-1.593 1.906.007 1.9 2.6-.01 1.595-1.206 1.594-1.406.294-1.501-.9.003-2.197.708-2.894 1.51M577.645 612.808c.903.896 2.004 1.292 2.403.89.398-.4.096-1.1-.706-1.597-2.506-1.59-3.504-1.086-1.697.707M637.146 612.98c-2.794 1.61-2.089 3.007.706 1.697 1.398-.606 2.494-1.51 2.492-2.01-.004-1.1-1.103-.996-3.198.312M168.661 617.878c-1.298.605-2.294 1.51-2.292 2.01.005 1.4 1.603.893 4.095-1.217 2.592-2.11 1.69-2.506-1.803-.793M499.764 617.907c1.103.796 2.505 1.49 3.005 1.488.6-.002.198-.7-.805-1.497-1.104-.795-2.506-1.49-3.006-1.488-.6.002-.198.7.806 1.497M586.365 618.074c2.607 1.99 4.01 2.485 4.005 1.385s-3.413-3.287-5.012-3.28c-1-.097-.598.602 1.007 1.895M626.37 619.42c-1.592 1.907.008 1.9 2.6-.01 1.596-1.205 1.595-1.405.294-1.5-.9.003-2.197.708-2.894 1.51M158.981 623.215c-1.097.805-1.693 1.707-1.392 2.106.703.597 4.794-1.719 4.79-2.819-.005-1.2-1.304-.895-3.398.713M508.38 622.074c.002.5.905 1.396 2.008 2.092s2.003.793 2 .193c-.002-.5-.905-1.397-2.007-1.993s-2.003-.692-2.001-.292M595.38 621.94c.002.6.905 1.496 2.008 2.092 1.302.695 2.002.692 2 .092s-.906-1.496-2.008-2.092c-1.303-.695-2.003-.692-2-.092M618.786 623.55c-1.695 1.406-1.694 1.506-.096 1 .999-.303 2.298-.608 2.798-.61s.898-.504.896-1.004c-.006-1.4-1.305-1.195-3.598.614M150.201 628.35c-1.597.805-2.793 1.91-2.79 2.41.003 1 5.693-1.622 6.487-3.125.895-1.303-.604-1.098-3.697.714M517.6 627.539c.506 1.498 2.81 2.289 2.804.989-.001-.5-.705-1.298-1.606-1.594-1.001-.396-1.4-.095-1.197.605M604.4 627.005c.003 1 4.806 1.882 7.104 1.273 3.297-.913 2.093-1.808-2.607-1.89-2.5.01-4.5.217-4.498.617M526.02 632.806c2.508 1.89 4.008 1.885 2.4-.009-.702-.797-2.005-1.492-2.805-1.49-1.3.006-1.199.305.406 1.5M534.438 637.174c.002.5.704 1.197 1.606 1.494 2.403.89 2.802.689 1.396-.906-1.406-1.694-3.008-1.988-3.002-.588M542.453 641.243c.002.5.906 1.397 2.008 1.992 1.102.596 2.003.693 2.001.293-.002-.5-.905-1.397-2.008-2.092s-2.003-.793-2-.193M552.476 647.105c.005 1.2 3.913 3.485 4.61 2.782.3-.201-.704-1.197-2.107-2.092-1.404-.894-2.505-1.19-2.503-.69M563.105 654.664c.508 2.098.312 3.099-1.084 4.104-2.593 1.91-1.29 2.705 1.303.795 2.593-1.81 2.782-4.61.575-6.502-1.304-1.095-1.403-.895-.794 1.603M552.446 665.205c-1.297 1.005-1.893 1.907-1.293 2.005.7-.003 2.197-.908 3.493-2.013 1.296-1.005 1.892-1.908 1.292-2.005-.7.002-2.197.908-3.492 2.013M544.163 669.737c-1.097.804-1.694 1.706-1.392 2.105.702.598 4.793-1.718 4.79-2.818-.005-1.2-1.304-.895-3.398.713M604.803 680.204l.348 12.299 13.502.448c7.4.272 27.201.396 44.001.331l30.5-.117-.048-12.5-.048-12.5-44.3-.13-44.301-.03zm76.565-9.494 9.3-.036-.262 10.001-.261 10.101-38.9.05c-21.4.082-40.001-.147-41.302-.442-2.003-.592-2.305-1.19-2.323-5.89-.011-2.9.272-7.402.662-10.003l.581-4.803 31.603.58c17.4.232 35.802.462 40.902.442"/><path d="M613.977 673.369c-.297.8-.39 2.701-.183 4.3.208 2 .81 2.697 2.11 2.492 1.998-.307 3.207 1.988 2.317 4.492-.496 1.201-.895 1.403-1.798.506-1.607-1.593-2.806-1.489-2.8.311.004.8.808 1.897 1.91 2.393 1.403.795 2.202.591 3.497-.814 2.39-2.609 1.672-7.306-1.133-8.595-2.905-1.19-3.013-3.289-.114-3.7 1.199-.204 2.296-.909 2.594-1.61.493-1.702-5.707-1.578-6.4.225M626.401 679.621c-.367 8.502.139 10 2.733 8.49 1.198-.605 1.396-1.106.594-1.603-.602-.397-1.114-3.595-1.13-7.695-.036-9.4-1.833-8.793-2.197.808M646.482 674.544c-1.287 3.305-.558 11.002 1.048 12.596 2.31 2.291 4.598-.618 4.877-6.119.468-8.202-3.548-12.586-5.925-6.477m4.123 5.884c.022 5.8-1.373 7.206-2.491 2.41-.814-3.597.264-9.301 1.568-8.406.5.298.911 2.996.923 5.996M657.679 673.701c-.596 1.102-1.09 2.404-1.089 3.004.008 2 1.805 1.093 2.496-1.21.792-2.102.792-2.102 1.202.496.205 1.5-.483 4.502-1.674 6.806-2.382 4.71-1.676 6.407 2.122 5.792 1.6-.206 2.496-1.11 2.69-2.61.391-2.302-1.312-3.095-2.104-.992-.197.7-.796 1.003-1.197.605-.402-.399-.008-1.9.887-3.304 2.187-3.308 1.762-9.807-.64-10.297-.9-.197-2.097.608-2.693 1.71M668.776 672.958c-2.388 3.11-2.278 5.71.232 8.3 3.112 3.088 3.419 4.886.615 3.997-2.403-.79-2.597.71-.39 2.502 2.207 1.891 4.298-.617 4.777-5.919.672-7.402-2.348-12.49-5.234-8.88m2.815 3.79c.006 1.6-.489 3.001-.989 3.003-1.4.006-2.41-2.59-1.617-4.493.99-2.604 2.594-1.61 2.606 1.49M635.106 680.888c.302.499 1.904.992 3.504.986s3.198-.512 3.496-1.013c.398-.602-1.004-.996-3.504-.987s-3.898.415-3.496 1.014M534.384 675.374c-3.093 1.712-1.888 3.008 1.206 1.396 1.696-.907 2.993-1.812 2.992-2.012-.003-.8-2.402-.49-4.198.616M522.1 679.222c-.599.502-4.89 2.918-9.68 5.537s-11.675 6.445-15.367 8.659c-5.088 3.02-7.385 3.828-9.587 3.337-2.001-.393-3.5.013-4.795 1.218-2.292 2.109-2.484 4.31-.77 8.003 2.119 4.692 9.918 4.562 11.5-.144.594-1.702 2.886-3.711 6.778-5.826 3.293-1.813 7.683-4.33 9.778-5.638 3.692-2.214 3.692-2.214 3.803.686.106 1.5.213 3.499.316 4.299.203.799.343 11.098.488 22.798.156 14.7.58 21.098 1.38 20.695.697-.503.964-9.204.699-26.203-.298-25.5-.298-25.5 2.595-27.41 1.595-1.106 4.39-2.717 6.186-3.524 3.194-1.612 3.69-2.814 2.578-5.81-.707-1.697-4.409-2.183-5.903-.677m4.506 1.682c0 .3-.696 1.203-1.592 2.106-1.096 1.205-1.795 1.307-2.699.41-.803-.796-.704-1.096.596-1.101.9-.004 1.698-.507 1.696-1.007-.002-.6.496-1.002.996-1.004.6-.002 1.001.296 1.003.596m-5.985 4.023c.003.8-.395 1.202-.997.904-.5-.298-1.003-.996-1.006-1.596-.002-.5.497-.902.997-.904.6-.002 1.003.696 1.006 1.596m-2.49 2.41c-.597.902-.897.903-1.601-.094-1.007-1.696-.013-3.4 1.292-2.105.602.598.706 1.597.308 2.199m-3.497 1.113c.005 1.1-.393 1.702-.994 1.404-.501-.298-1.005-1.296-1.008-2.096s.494-1.402.994-1.404c.6-.002 1.004.896 1.008 2.096m-3.09 2.512c.306 1.6.107 1.7-1.298.505-1.906-1.592-2.113-3.392-.311-2.899.601.298 1.405 1.295 1.61 2.394m-3.095 1.312c.303.799-.095 1.2-.896.904-.701-.198-1.504-.995-1.707-1.694-.303-.799.095-1.2.897-.903.7.197 1.503.994 1.706 1.693m-3.793 1.715c.003.8-.396 1.201-.997.904-.501-.299-1.004-.997-1.006-1.597-.002-.5.497-.902.997-.903.6-.003 1.002.696 1.006 1.596m-2.893 1.91c-.094 1.501-2.395 1.21-2.901-.288-.304-.899.195-1.3 1.196-1.005 1 .097 1.703.694 1.705 1.294m-3.595 1.415c.302.498.105 1.2-.394 1.501-.499.302-1.1-.096-1.503-.894-.606-1.598.892-2.104 1.897-.607m-2.895 1.21c1.007 1.697-1.286 3.606-2.691 2.211-1.205-1.195-.413-3.298 1.087-3.304.5-.002 1.202.495 1.604 1.094m-5.194 1.52c.903.797 1.61 2.695 1.616 4.095.011 3 .111 3.1-2.808-1.99-2.215-3.791-1.619-4.894 1.192-2.104m-2.995 1.312c2.008 2.193 1.824 6.193-.274 6.901-.998.304-1.2.005-.705-1.297.396-1.101-.109-2.4-1.513-3.594-1.104-.996-1.81-2.293-1.411-2.795.894-1.603 1.995-1.307 3.903.785M471.354 745.717c-.297.801-.376 6.301-.252 12.401l.342 10.899 44-.17 43.999-.168.258-10.901c.175-6.4-.143-11.3-.746-11.897-.702-.698-17.004-1.135-44.105-1.331-36.701-.26-43.1-.035-43.496 1.167m84.308 1.976c.902.397 1.211 2.896 1.038 9.696-.27 8.101-.465 9.302-1.965 9.208-1 .004-19.6-.025-41.3-.041l-39.501-.049-.032-8.4c-.018-4.6.165-9 .462-9.802.496-1.101 7.395-1.328 40.296-1.154 21.8.016 40.302.345 41.002.542"/><path d="M480.274 750.983c-.295 1.3-.388 3.001-.085 3.7.202.7.008 2.1-.389 3.002-2.184 4.108 3.035 8.988 5.921 5.477 1.294-1.505 1.155-11.805-.152-13.5-1.608-2.093-4.605-1.382-5.295 1.32m4.407 1.783c.204 1-.293 1.701-1.193 1.704-1 .004-1.604-.893-1.608-2.093-.01-2.4 2.292-2.11 2.801.389m.027 6.9c-.488 3.202-2.787 3.51-2.799.41-.006-1.7.49-2.601 1.59-2.606 1-.003 1.403.695 1.209 2.196M490.875 751.042c.008 2.3.21 2.5 1.505 1.394 2.193-1.808 2.998-.511 1.71 2.494-1.389 3.005-1.564 9.506-.264 9.5.5-.001 1.09-2.403 1.38-5.305.289-2.8.875-6.403 1.269-8.004.59-2.503.39-2.702-2.51-2.69-2.7.01-3.099.411-3.09 2.611M512.874 750.958c-3.07 7.911 1.57 18.194 4.842 10.881 2.281-4.909.548-13.502-2.552-13.49-.7.002-1.795 1.207-2.29 2.609m3.815 3.785c.515 3.798-.57 7.802-1.773 7.107-1.503-.994-1.341-10.795.26-10.301.602.297 1.307 1.695 1.513 3.194M524.695 756.312c-.27 7.901-.27 8.001 2.23 7.992 1.9-.008 2.1-.308 1.196-1.205-.702-.697-1.215-3.995-1.23-7.995-.037-9.5-1.833-8.493-2.196 1.208M534.376 751.275c-1.687 3.407-1.874 6.807-.46 10.402 1.213 3.395 4.313 3.383 5.9-.023.991-2.204.888-3.103-.42-4.998-.804-1.297-2.009-2.393-2.509-2.39-.6.002-1.002-.597-1.005-1.397-.003-.9.695-1.202 1.997-.907 2.202.591 2.597-.71.79-2.503s-2.606-1.49-4.293 1.816m3.528 7.387c.006 1.4-.39 2.701-.888 3.103-1.197.705-2.512-3.09-1.617-4.494 1.093-1.804 2.496-1.01 2.505 1.39M501.4 757.402c.301.499 1.703.993 3.003.988s2.698-.51 2.996-1.011c.398-.602-.804-.997-3.004-.989s-3.398.413-2.996 1.012M332.66 773.75c-.397.701-.216 21.6.19 23.5.103.499 20.504.72 45.204.626l45-.173-.049-12.5-.048-12.5-44.9.172c-24.8.096-45.198.474-45.396.875m86.845 11.466.039 10-42 .162-42 .16-.34-10.298-.338-10.199 42.3.038 42.3.137z"/><path d="M342.672 776.611c-.399.402-.69 2.503-.683 4.603.012 3.1.415 3.798 1.915 3.793 2.3-.01 3.51 2.786 2.018 4.592-.797 1.003-1.496 1.106-2.399.41-1.605-1.295-2.8.01-1.393 1.704 1.908 2.193 4.806 1.582 5.495-1.22.886-3.704-.328-7.2-2.73-7.79-2.703-.69-2.012-3.092.987-3.504 1.199-.205 1.996-.908 1.794-1.507-.405-1.398-3.908-2.085-5.004-1.08M355.004 784.964c.026 6.7.33 7.999 1.63 7.994 1.1-.004 1.399-.506.994-1.604-.303-.899-.617-4.498-.63-7.998-.014-3.6-.425-6.398-1.025-6.396-.6.003-.987 3.304-.97 8.004M375.983 779.383c-2.079 5.608-.347 13.902 2.85 13.29 2.4-.41 3.775-6.815 2.557-11.51-1.119-4.696-4.022-5.585-5.407-1.78m3.404 1.087c1.413 3.495.44 10.399-1.46 10.406-.5.002-.91-2.696-.923-5.996-.022-5.7 1.07-7.805 2.383-4.41M386.678 778.142c-.792 2.103.311 2.9 2.006 1.593.997-.904 1.297-.705 1.303.795.004 1-.59 2.502-1.188 3.204-1.096 1.004-.994 1.404.509 2.198.902.597 1.706 1.594 1.71 2.394.008 2.3-1.99 2.807-3.497.913-1.508-1.994-2.003-.792-.893 2.004 1.717 4.293 7.299-.328 5.782-4.723-.504-1.198-.814-3.797-.922-5.696-.01-2.8-.414-3.599-2.114-3.792-1.201-.195-2.4.31-2.696 1.11M397.675 777.4c-1.096 1.104-.78 5.403.32 5.399.6-.002.997-.904.993-2.004s.493-2.002.993-2.004c1.7-.006 1.117 4.596-1.166 8.905-2.581 4.91-1.674 6.806 2.52 5.19 3.195-1.212 3.782-4.614.686-3.602-2.397.809-2.501-.29-.413-3.299 2.188-3.108 1.467-8.606-1.134-8.996-1.201-.195-2.4.01-2.799.411M409.577 777.854c-1.285 3.905-3.243 14.913-2.741 15.311 1.004 1.096 2.197-.608 2.188-3.008-.005-1.3.491-2.402.991-2.404 1-.004 1.302.595 2.619 4.89.303.899.804 1.097 1.402.494.697-.702.386-3.501-.832-8.196-1.929-7.593-2.936-9.39-3.627-7.087m1.127 7.096c-.297.801-.598.502-.602-.598-.104-1.1.193-1.7.495-1.301.301.298.405 1.198.107 1.9M363.603 784.831c-.695 1.103 4.91 2.481 6.407 1.575.598-.302.795-1.103.493-1.602-.804-1.196-6.204-1.176-6.9.027M193.764 852.884c-.298.7-.377 6.201-.253 12.3l.342 10.9 26.002.6c14.302.445 34.103.569 44.002.33l17.999-.268.556-11.503c.275-6.3.054-12-.348-12.498-.603-.598-17.004-1.035-44.405-1.13-36.1-.161-43.5.067-43.895 1.269m70.306 1.43 15.3-.06-.262 10.102-.261 10.001-40.4.055c-22.2.085-40.801-.143-41.203-.442-1.002-.596-1.262-16.395-.272-18.999.594-1.502 2.593-1.61 26.195-1.2 14.102.346 32.503.575 40.903.543"/><path d="M204.28 857.043c-1.294 1.605-1.656 11.507-.549 13.402 1.106 1.596 4.305 1.284 4.998-.519 1.188-3.104.575-6.402-1.43-7.594-1.102-.696-2.007-2.093-2.01-2.993-.009-2.1 1.59-2.406 2.297-.608.203.699.804.997 1.202.595.797-.803-1.214-3.795-2.514-3.79-.4.001-1.298.705-1.994 1.507m3.036 9.489c.012 3.2-1.385 4.005-2.395 1.409-1.01-2.696-.716-4.397.884-4.404q1.5-.005 1.511 2.995M214.483 858.004c-1.487 3.206-1.465 9.006-.155 11.6 1.61 2.795 4.809 2.382 5.597-.72.788-3.104-1.028-7.397-3.128-7.389-.8.003-1.503-.594-1.505-1.294-.009-2.2 1.189-2.805 2.794-1.51 1.204.995 1.403.894 1.097-.705-.611-2.998-3.411-2.987-4.7.018m3.634 8.786c.207 1.9-.09 2.7-1.19 2.705s-1.603-.994-1.611-3.094c-.015-3.8 2.386-3.51 2.801.39M236.578 856.62c-1.99 2.507-2.367 8.608-.853 12.203 1.716 4.093 1.916 4.192 4.008 1.984 1.096-1.004 1.587-3.406 1.572-7.306-.026-6.8-2.239-9.991-4.727-6.882m2.729 7.389c.011 3-.38 5.401-.98 5.404-.6.002-1.01-2.697-1.023-6.096-.014-3.7.378-5.802.98-5.404.6.297 1.011 3.096 1.023 6.096M246.383 857.982c-1.388 3.105-.481 4.701 1.309 2.095.696-.903 1.593-1.707 1.993-1.708 1.2-.005-.377 6.001-2.463 9.71-1.589 2.806-1.686 3.506-.485 3.901 2.804 1.09 5.1-.12 5.39-2.62.193-1.901.092-2.2-.704-.998-1.59 2.406-2.498.31-1.21-2.795 2.774-6.61-.954-13.896-3.83-7.585M259.684 858.03c-.296 1.002-1.189 3.005-1.983 4.508-1.886 3.507-1.783 4.507.72 5.097 1.601.394 1.904 1.093 1.41 2.595-.395 1.502-.192 2.1.808 2.097 1.8-.007 2.389-2.91 1.86-10.307-.421-5.599-1.729-7.494-2.815-3.99m.624 6.198c.002.6-.395 1.302-.994 1.604-.5.302-1-.096-1.004-.896-.003-.9.494-1.602.994-1.604.6-.002 1.002.396 1.004.896M224.308 864.466c.002.5 1.604.994 3.504.987s3.498-.513 3.496-1.013c-.002-.6-1.604-.994-3.504-.987s-3.498.413-3.496 1.013M118.365 1139.775c-1.397 1.006-6.086 3.724-10.477 6.14-4.39 2.417-9.18 5.136-10.676 6.142-3.79 2.714-4.791 2.418-4.807-1.582-.008-2.3-.614-3.698-1.916-4.393-2.105-1.192-2.404-.89-6.078 5.924-1.29 2.505-4.767 8.518-7.648 13.53-2.881 4.91-5.264 9.32-5.263 9.72.006 1.4 19.55 12.724 22.05 12.715.5-.002.99-2.304.979-5.304-.02-5.2-.02-5.2 4.77-7.818 2.595-1.41 6.686-3.726 9.18-5.136 2.495-1.41 6.786-3.826 9.48-5.336 10.079-5.539 9.78-5.138 9.544-14.637-.344-11.399-3.155-14.388-9.138-9.965m7.037 9.873.03 7.8-7.184 4.128c-3.99 2.315-9.48 5.336-12.074 6.846-14.17 7.855-14.17 7.855-14.452 12.456-.191 2.3-.684 4.103-1.085 3.904-5.308-2.18-14.129-7.546-14.133-8.646-.006-1.4 9.233-17.535 12.317-21.647 1.493-1.906 1.493-1.906 1.603.794.015 3.9 2.417 4.39 7.005 1.273 2.194-1.409 4.19-2.616 4.49-2.618.3 0 3.792-2.014 7.783-4.43 9.478-5.736 12.87-7.549 14.47-7.655.8-.003 1.209 2.195 1.23 7.795"/><path d="M116.694 1147.582c-1.895 1.307-2.29 2.509-2.273 6.908.011 2.9.421 5.499.822 5.797 1.103.696 6.392-2.124 7.984-4.13.597-.903 1.189-3.105 1.182-4.805-.02-5.3-3.326-6.887-7.715-3.77m4.707 1.782c1.105 1.295 1.009 2.196-.28 5-2.282 4.71-3.684 4.415-3.703-.785-.023-5.8 1.371-7.305 3.983-4.215M111.608 1151.101c-.497.702-1.19 2.405-1.485 3.806-.39 2.502-.39 2.502-1.2.205-1.012-3.097-2.41-2.791-3.097.812-.688 3.102-2.383 4.209-2.394 1.509-.003-.8-.506-1.498-1.106-1.496-1.2.005-.58 5.102 1.238 9.795.808 2.097 1.209 2.296 1.905 1.193.597-.802.99-2.404.986-3.504s.39-2.601.887-3.403c.696-1.103 1.197-.805 2.306 1.39 1.913 3.494 2.41 2.592 3.28-5.312.675-6.302.472-7.102-1.32-4.995M95.743 1160.162c-3.093 1.912-3.291 2.313-3.27 7.913.013 3.3.423 5.898 1.023 5.896s.995-1.204.99-2.604c-.007-1.7.589-2.802 1.888-3.107 1.998-.508 3.588-3.114 2.584-4.11-.301-.299-1.1.004-1.698.606-1.594 1.607-2.794 1.511-2.8-.189-.004-.8 1.39-2.305 2.987-3.311 1.696-.907 2.992-2.112 2.99-2.512-.004-1.2-1.103-.896-4.694 1.418"/></svg>