<svg xmlns="http://www.w3.org/2000/svg" viewBox="0 0 992 1402" fill="currentColor"><path d="M501 135.8c-.5.2-1 3.5-1 7.3v6.9h8c4.7 0 8-.4 8-1s-2.8-1-6.5-1c-6.3 0-6.5-.1-6.5-2.5s.3-2.5 6.1-2.5c3.9 0 5.8-.4 5.4-1s-3-.9-5.8-.8c-4.7.3-5.2.1-5.5-2s0-2.2 6.3-2.2c4.1 0 6.4-.4 6-1-.5-.9-11.9-1-14.5-.2M136.4 141.6c-1.4 3.1-2.8 5.3-3.2 4.9-.4-.3-1.4-2.5-2.3-4.8-2.5-6.4-5-6.1-7.9 1l-2.4 5.8-2.5-5.8c-1.3-3.1-3-5.7-3.8-5.7s-1.2.3-1 .7c1.6 3.2 4.7 10.4 4.7 11.2 0 1.1 2.9 2.3 4 1.6.4-.3 1.6-2.7 2.6-5.5 1-2.7 2.1-5 2.4-5 .4 0 1.7 2.3 3.1 5.2 3.7 8 4.6 7.6 8.8-3 2.9-7.2.7-7.8-2.5-.6M162.3 136.9c-4.7 1.2-6.3 2.9-6.3 6.7 0 4.7 3.6 6.9 11.1 6.9 4.7 0 6.2-.4 8.4-2.5 6.5-6.1-2.6-13.7-13.2-11.1m10.5 3.1c2.7 2.6 2.8 4.4.2 7-2.5 2.5-10.1 2.8-12.4.4-2.1-2-2-5.3.1-7.6 2.3-2.6 9.2-2.4 12.1.2M219.4 139c-.6 2.9-.9 3-6 3-4.7 0-5.3-.2-5.6-2.3-.2-1.2-1-2.2-1.8-2.2-1.1 0-1.6 1.5-1.8 6.2-.3 5.8-.1 6.3 1.8 6.3 1.6 0 2-.6 2-3 0-3 0-3 6.1-3s6.1 0 5.7 3q-.45 3 .9 3c.9 0 1.3-1.9 1.3-7 0-7.2-1.5-9.5-2.6-4M230 143v7h8.2c4.5 0 7.8-.3 7.4-.7s-3.3-.6-6.5-.5c-5.1.2-5.9 0-6.4-1.7-.7-2.8-.1-3.1 6.5-3.1 3.7 0 5.7-.4 5.3-1-.3-.6-3.1-1-6.1-1-4.7 0-5.4-.2-5.4-2s.7-2 6.6-2c4.1 0 6.3-.4 5.9-1-.3-.6-4-1-8.1-1H230zM256.5 139.2c-6.4 10.8-6.4 10.8-5 10.8.8 0 1.9-.9 2.5-2 1.6-2.9 9.3-2.8 11.4.1.8 1.2 1.9 2 2.5 1.8 1.4-.5-6.1-13.3-8-13.7-.7-.1-2.3 1.2-3.4 3m5.3 2.3c1.1 2.4 1 2.5-1.8 2.5-3.3 0-3.5-.3-2-3.1 1.4-2.6 2.5-2.4 3.8.6M275 143v7h6.6c7.1 0 9.8-.9 11.5-4.1 1.5-2.8-.4-7.3-3.7-8.8-1.4-.6-5.2-1.1-8.4-1.1h-6zm13.9-3.6c.7.8 1.1 3 .9 4.8-.3 3.3-.3 3.3-6 3.6-5.8.3-5.8.3-5.8-4.8 0-5 0-5 4.9-5 3 0 5.3.5 6 1.4M320.7 136.6c-.4.4-.7 3.6-.7 7.1v6.3h7.6c4.7 0 7.3-.4 6.9-1-.3-.6-2.8-1-5.5-1-4.9 0-4.9 0-5.2-5.7-.3-5.2-1.4-7.3-3.1-5.7M342.4 142.2c-4.9 7.8-4.9 7.8-3.1 7.8.9 0 1.9-.9 2.2-2 .5-1.7 1.5-2 6-2s5.5.3 6 2c.3 1.1 1.3 2 2 2 1 0 .3-2.2-2.3-7-2.2-4.2-4.3-7-5.3-7-.9 0-3.3 2.7-5.5 6.2m7.6.4c0 .9-1.1 1.4-3 1.4-3 0-3 0-1.4-2.5 1.3-2 1.9-2.3 3-1.4.8.6 1.4 1.8 1.4 2.5M362 143c0 6.5.2 7 2.1 7 2 0 2.1-.4 1.6-5.5-.3-3-.4-5.5-.2-5.5.1 0 1.8 2.5 3.6 5.5s4 5.5 4.9 5.5 2.8-2.4 4.5-5.8l3-5.7.3 5.7c.4 8.2 2.2 7.2 2.2-1.2 0-6.1-.2-7-1.8-7-1.2 0-2.9 1.8-4.6 5-1.5 2.7-3.1 5.2-3.5 5.5-.5.2-2.4-2-4.2-5-2.5-4-4-5.5-5.6-5.5-2.2 0-2.3.4-2.3 7M391 143c0 5.6.3 7 1.5 7q1.5 0 1.5-3c0-3 .1-3 5.3-3 5.5 0 7.7-1.2 7.7-4.2 0-2.6-3.1-3.8-9.9-3.8H391zm13-3.1c0 2.2-1.9 3.1-6.6 3.1-3 0-3.4-.3-3.4-2.5 0-2.3.3-2.5 5-2.5 4.2 0 5 .3 5 1.9M434 143v7h7.5c4.3 0 7.5-.4 7.5-1s-2.7-1-6-1h-6v-6c0-4.7-.3-6-1.5-6s-1.5 1.4-1.5 7M454 143v7h8c4.7 0 8-.4 8-1s-2.8-1-6.5-1c-5.8 0-6.5-.2-6.5-2s.7-2 5.4-2c3 0 5.8-.5 6.1-1 .4-.6-1.7-1-5.4-1-5.4 0-6.1-.2-6.1-2s.7-2 5.9-2c3.3 0 6.3-.5 6.6-1 .4-.6-2.3-1-7.4-1H454zM477.7 140.8c4.9 8.5 5.8 9.6 7.6 8.9s8.2-12.6 7.2-13.5c-.7-.7-4.4 3.7-4.5 5.3 0 .5-.9 2.1-1.8 3.3-1.8 2.4-1.8 2.4-5.2-3.2-4.3-7-7.3-7.7-3.3-.8M522 141.8c0 3.2.5 6.3 1.2 7 1.4 1.4 12.4 1.6 13.3.2.4-.6-1.5-1-4.9-1H526v-6c0-5.3-.2-6-2-6s-2 .7-2 5.8M552.3 137.8c2 2.2 2.3 10.2.5 12-.6.6-.9 1.4-.5 1.8 1 1 2.8-.7 4.2-3.9 1.9-4.5-1-11.7-4.6-11.7-.8 0-.7.6.4 1.8M105.4 139.1c-2.6 2.9-2.6 9.9 0 12.8s4.2 2.6 2.2-.4c-.9-1.3-1.6-4-1.6-6s.7-4.7 1.6-6c2-3 .4-3.3-2.2-.4M147.5 143.2c-3.9 7.9-3.8 7.8-2.7 7.8.5 0 1.7-1.7 2.7-3.8.9-2 2.3-5 3.1-6.6 1.6-3.4 1.7-3.6.6-3.6-.4 0-2.1 2.8-3.7 6.2M542 148c0 .5.7 1 1.5 1s1.5-.5 1.5-1c0-.6-.7-1-1.5-1s-1.5.4-1.5 1M493.7 235.7c-.3.5-.5 11-.4 23.5.1 19.1.3 22.8 1.6 23.3 1.6.6 86.2.7 86.9.1.6-.6.2-45.9-.4-46.6-.9-.9-87.2-1.2-87.7-.3m85.8 17.8c0 8.2-.2 17.7-.5 21l-.5 6H497v-4c-.1-2.2-.3-9-.5-15-.2-6.1-.1-13.8.2-17.3l.6-6.2 41.1.2 41.1.3z"/><path d="M503 243.4c0 3.9.3 4.6 2 4.6 1.5 0 2 .7 2 2.5 0 2.6-2.4 3.5-3.3 1.2-.3-.6-.6-.2-.6 1.1-.1 3 2.8 4.1 4.6 1.6 2.1-2.8 1.3-7.7-1.4-8.9-1.3-.5-2.3-1.5-2.3-2.2 0-.6 1-1.3 2.3-1.5 2.9-.4 2.4-2.2-.8-2.6-2.4-.3-2.5-.1-2.5 4.2M515.9 239c0 .3-.1 4.2-.2 8.8-.2 6.7.1 8.2 1.2 8s1.4-2 1.2-7.8c-.1-4.1-.7-7.9-1.2-8.5-.5-.5-.9-.7-1-.5M535.4 242.7c-1.7 4-1.3 8.8 1.1 11.9 1.5 1.9 1.5 1.9 3 0 2.5-3.2 2.9-8.4 1.1-12.2-2-4.4-3.3-4.3-5.2.3m3.6 4.8c0 3-.4 5.5-1 5.5-.5 0-1-2.5-1-5.5s.5-5.5 1-5.5c.6 0 1 2.5 1 5.5M546.7 239.7c-1.6 1.5-.7 3.4 1.3 2.8 2.5-.8 2.7 1.1.3 3.7-1.5 1.7-1.5 1.8 0 1.8 1.1 0 1.7.8 1.7 2.5 0 2.9-1.5 3.3-2.9.7-.9-1.5-1-1.5-1.1.4 0 1.2.7 2.8 1.6 3.5 2.7 2.2 4.4-1.3 4-8.2-.2-3.1-.7-6.2-1-6.8-.8-1.2-2.9-1.5-3.9-.4M557 241.5c-1.8 4.8-.5 14.5 2 14.5 1.6 0 3-2.9 3.5-7.1.9-7.1-3.4-12.9-5.5-7.4m3.8 3.9c.4 3.6-.5 7.6-1.8 7.6-.6 0-1-2.5-1-5.6 0-4 .4-5.5 1.3-5.2.6.3 1.3 1.7 1.5 3.2M524.7 246.6c-1.5 1.5-.6 2.4 2.4 2.4 2 0 2.9-.4 2.7-1.3-.5-1.4-4-2.1-5.1-1.1M503 266.3c0 3.9.3 4.3 2.3 4.3 1.8-.1 2.1.4 1.9 2.3-.3 3.3-.8 3.6-2.8 2-1.4-1.2-1.6-1.1-1.3.6.3 1.1 1.4 2.1 2.6 2.3 1.7.3 2.4-.3 2.9-2.2 1-4-.3-7.6-2.7-7.6-1.4 0-1.9-.5-1.7-1.7.2-1 1.2-1.8 2.2-1.8 1.1 0 2.1-.6 2.3-1.3.3-.8-.6-1.2-2.6-1.2-3 0-3.1.2-3.1 4.3M515.9 262.2c0 .2-.1 3.8-.2 8.1-.2 6.9 0 7.7 1.7 7.7 1.2 0 1.6-.5 1.2-1.6-.3-.9-.6-4.5-.6-8 0-3.6-.4-6.4-1-6.4-.5 0-1 .1-1.1.2M536.2 263.7c-1.8 3.6-2.3 7.6-1.2 10.9 1.4 4.1 4.2 4.5 5.8.9 3.1-6.8-1.4-18.1-4.6-11.8m3 3c.7 2.7-.3 9.4-1.3 8.7-1.2-.7-1.2-10.4 0-10.4.5 0 1.1.8 1.3 1.7M546.7 262.7c-1.6 1.5-.7 3.4 1.3 2.8 1.4-.5 2-.2 2 .9 0 .9-.4 1.6-1 1.6-.5 0-1 .7-1 1.5s.5 1.5 1 1.5c.6 0 1 1.1 1 2.5 0 2.8-1.5 3.4-2.4.9-.3-.8-1-1.2-1.6-.9-1.8 1.1.9 4.7 3.3 4.3 2-.3 2.2-.9 2.3-6.3 0-3.3-.4-6.8-.8-7.8-.9-1.7-2.9-2.3-4.1-1M557 264.5c-2.1 5.6-.4 13.9 2.8 13.3 2.4-.4 3.8-6.8 2.6-11.5-1.1-4.7-4-5.6-5.4-1.8m4 5.2c0 3.9-.9 6.5-2.1 5.7-1-.6-1.2-9.7-.2-10.7 1.1-1.1 2.3 1.5 2.3 5M566.3 263.5c-.3.9-.2 1.9.2 2.3s1 .1 1.2-.6c.4-1.1 3.3-1.8 3.3-.7 0 .8-3.1 8.9-4.1 10.8-1.2 2.2-.4 3.7 2.1 3.7 3.5 0 5-1.2 5-3.9-.1-2.4-.2-2.4-1.4-.9-1.2 1.7-3.6 2.5-3.6 1.3 0-.3 1.1-3.3 2.5-6.7s2.5-6.3 2.5-6.5-1.6-.3-3.5-.3c-2.3 0-3.8.6-4.2 1.5M524 271c0 .5 1.3 1 2.9 1 1.7 0 3.3-.5 3.6-1 .4-.6-.8-1-2.9-1-2 0-3.6.4-3.6 1M536.8 285.6c-.5.4-.8 8.1-.8 17.1v16.5l-129.2-.6c-71.1-.3-163.5-.9-205.3-1.2-50-.4-75.7-.2-75 .4 1.4 1.4 56.6 2.1 230.5 2.8 81.7.4 158.4.8 170.5.9 12.1.2 92.9.4 179.5.5s160.1.4 163.2.7l5.8.5v721.9l-374-.4c-205.6-.1-374.3-.6-374.7-1.1-.4-.4-1-30.5-1.3-66.9l-.5-66.2v135l29.5.5c16.2.3 185.5.7 376.3.8l346.7.2V684.1c0-199.7-.4-363.2-.8-363.5-.5-.3-62.7-.7-138.3-.8-75.6-.2-151.7-.4-169.1-.6l-31.8-.3-.2-17c-.2-9.4-.6-16.7-1-16.3"/><path d="M126 333.5c0 .3.2.5.5.5s.5-.2.5-.5-.2-.5-.5-.5-.5.2-.5.5M126.2 358.5c0 1.6.2 2.2.5 1.2.2-.9.2-2.3 0-3-.3-.6-.5.1-.5 1.8M762.9 358.7c0 .5-.1 5.1-.3 10.3-.3 15.6-5.2 14 41.6 14 22.2 0 42-.3 44.1-.6 3.7-.7 3.7-.7 3.7-12.5V358h-44.5c-24.5 0-44.5.3-44.6.7M849 370v10h-20.2c-11.2 0-25.9.1-32.8.1-6.9.1-16.4.1-21.2 0l-8.8-.1v-20h83z"/><path d="M836.7 361.7c-.4.3-.7 4.2-.7 8.5 0 7.8 0 7.8 2.9 7.8 3.5 0 4.1-1.3 3.8-9.3-.2-3.8-.8-6.1-1.7-6.7-1.8-1.1-3.4-1.3-4.3-.3m4.3 4.3c0 1.1-.7 2-1.5 2s-1.5-.9-1.5-2 .7-2 1.5-2 1.5.9 1.5 2m0 7.6c0 1.5-.6 2.4-1.5 2.4-1.5 0-2.1-4-.9-5.3 1.2-1.1 2.4.3 2.4 2.9M772 366.6c0 4.1.2 4.5 2 3.9 1.7-.5 2-.2 2 2.4 0 3.1-1.4 4.2-2.3 1.8-.2-.6-.8-.9-1.2-.5-1.3 1.2.3 3.8 2.4 3.8 3.6 0 4.6-8.8 1.1-9.7-1.1-.3-2-1.4-2-2.4 0-1.2.7-1.9 2-1.9 1.1 0 2-.5 2-1 0-.6-1.3-1-3-1-2.9 0-3 .2-3 4.6M784.9 362.2c0 .2-.1 3.8-.2 8.1-.2 6.9 0 7.7 1.7 7.7 1.2 0 1.6-.5 1.2-1.6-.3-.9-.6-4.5-.6-8 0-3.6-.4-6.4-1-6.4-.5 0-1 .1-1.1.2M805.1 363.9c-1.5 2.8-1.4 10.4.3 12.6 2 2.7 4.2.6 4.9-4.5 1-7.6-2.6-13.1-5.2-8.1m3.7 4.1c.4 4.2-.6 8.3-1.8 7.5-1.5-1-1.3-11.8.3-11.3.6.3 1.3 1.9 1.5 3.8M815.7 363.4c-.4.9-.2 1.8.3 2.1.4.3 1 0 1.2-.7.2-.6 1-.8 1.7-.4.9.6.9 1.3-.4 3.2-1.4 2.2-1.4 2.5 0 3 1.6.7 2.1 3.9.6 4.9-.6.3-1.4-.3-2-1.2-.5-1-1.3-1.4-1.7-1-1.1 1 .9 4.1 2.8 4.5 1.7.3 4.1-4.4 3.1-6.1-.4-.7-.7-3-.8-5.2 0-3.3-.4-4.1-2.1-4.3-1.2-.2-2.4.4-2.7 1.2M826.4 363.4c-.3.8-.4 2.3-.1 3.3.4 1.6.6 1.5 1.2-.5.4-1.2 1.1-2.2 1.6-2.2 1.5 0 1 3.4-1.1 7.8-2.7 5.5-2.5 6.2 1 6.2 2.6 0 3-.3 2.9-2.8 0-1.5-.3-2.1-.6-1.5-.2.7-1.1 1.3-1.9 1.3-1.2 0-1.1-.8.7-3.9 2.6-4.7 2-9.1-1.2-9.1-1.1 0-2.2.6-2.5 1.4M793.5 370c-.4.6.8 1 3 1s3.4-.4 3-1c-.3-.6-1.7-1-3-1s-2.7.4-3 1M126.4 380.5c0 9.9.2 13.8.3 8.7.2-5.1.2-13.2 0-18-.1-4.8-.3-.6-.3 9.3M806 427.3v43.4l-6.1 3.6c-6.2 3.7-6.2 3.7-10.6 2.2-11.9-4.1-20.8 1-23.3 13.2-4 19 4.8 42.1 21.2 55.9 11.5 9.6 23.1 12 30 6 2.8-2.3 6.8-10.4 6.8-13.5 0-1.1 1.6-2.5 4.3-3.7 2.3-1 6.3-3.9 8.8-6.4s5.3-5 6.3-5.5c2.2-1.3 3.6-8.4 2.9-14.8-.6-5.1-3.8-9.3-7.5-9.9-1.3-.2-3.1-2.1-4.7-5.2-5.4-10.3-17.4-20.6-23.9-20.6-2.2 0-2.2 0-2.2-44 0-28.7-.3-44-1-44s-1 15.1-1 43.3m10.8 48.9c1.7 1.1 3.2 2.4 3.2 2.9s.7.9 1.5.9 3.3 2.3 5.6 5.2c4.7 5.9 9.4 14.8 7.9 14.8-.5 0-1 .5-1 1.1 0 .5.4.8.9.4.6-.3 1.5.4 2.1 1.5 1.2 2.2 4 2.6 5.7.9 1.8-1.8 2.5 5.3 1.4 14.8 0 .7-1.3 2-2.7 2.9-2.2 1.5-2.7 1.5-3.6.3-.7-1-.8-.9-.3.7.4 1.6-.4 3.1-3.1 5.8-2 2-4.1 3.3-4.6 3-.6-.4-1.5 0-2 .7-.7 1-.8.5-.3-1.6 3.6-16.1-5.4-37.5-20-47.5-2.2-1.5-5.3-3-6.8-3.4-2.4-.6-2.7-.9-1.7-2.1.7-.8 1.9-1.5 2.6-1.5.8 0 1.4-.4 1.4-.9 0-2.5 8.9-1.8 13.8 1.1m-38.5 3c.3 1 .8 1 2.1-.1 2.7-2.3 3-.5.4 3.1-4 5.4-5 9.2-4.7 16.7.3 4.3 0 7.1-.6 7.1s-1.1-3.6-1.3-8.2c-.3-7.6.1-9.5 2.9-15 1.1-2.2 1.1-2.8.1-2.8-.5 0-1.8 1.9-2.8 4.2-1.4 3.1-1.9 6.5-1.9 12.8 0 10.3 1.9 16.8 8.7 29.1 4.1 7.6 16.9 19.9 20.7 19.9.5 0 1.1.5 1.3 1.1.2.5 3.4 1.1 7.1 1.2s6.7.5 6.7.9-1.4 1.5-3.1 2.3c-3.4 1.8-12.3 1.5-14.2-.4-.6-.6-1.8-1.1-2.7-1.1s-2.6-.9-3.8-2-2.5-2-3-2c-1.3 0-9.2-8.6-13-14.2s-7.3-13.4-6.4-14.3c.4-.3 0-1-.7-1.5-1.6-.9-4.3-15.8-3.1-16.5.5-.3.6-1.4.3-2.5s-.2-4.1.2-6.7c.5-3.5 1.6-5.5 4.5-8.5 4.1-4 5.6-4.6 6.3-2.6m12.3.6c.6.4 1.1 4.5 1.1 9.4.1 11.6 3.3 20.9 10.7 31.3 4.1 5.8 14.3 13.5 17.9 13.5 1.1 0 1.7.8 1.7 2.4 0 5.2-10.3 6.9-18.5 3.1-6.6-3.1-15.7-13-19.8-21.5-4.2-8.8-5.6-14.4-5.7-22.2 0-6.9.9-9.4 4.8-13.6 2.9-3.1 5.6-3.9 7.8-2.4m10.6 6.4c5.3 4.4 5.2 4.1 3.2 12-1.6 6.9 6.4 17.8 13.1 17.8 3.2 0 4.5 3.1 4.5 10.6 0 4.6-.3 5.4-1.8 5.4-4.8 0-19.4-13.3-17.6-16.1q.6-1.05-.3-.6c-2.4 1.5-7.9-12.1-8.7-21.1-.5-6.3.3-12.2 1.6-12.2.6 0 3.3 1.9 6 4.2m2.8-3.2c0 .5.6 1 1.4 1 .7 0 3.8 2.5 6.9 5.4 8.1 8 13.6 19.6 14.1 30 .4 7.8-.1 11.6-1.3 11.6-.4 0-.7-1.8-.8-4-.4-9.8-8.1-28.2-14.8-35.4-4-4.3-7.5-8.6-7.5-9.1 0-.3.5-.5 1-.5.6 0 1 .4 1 1m8 15.2c.8 1.3 2.5 4.3 3.7 6.7 3.9 7.5 2.6 9.3-2.7 4.1-3.4-3.3-5.3-8.3-4.4-11.2.7-2.4 1.6-2.3 3.4.4m-5.3 3.5c-.4.3-.7 0-.7-.7s.3-1 .7-.7c.3.4.3 1 0 1.4m33.8-.6c1.1 1.7-.1 2.1-1.5.4-.8-.9-.8-1.5-.2-1.5s1.4.5 1.7 1.1M812.3 512c-.6.6-4.3-3.8-4.3-5.2 0-.5 1.1.4 2.4 1.9s2.2 3 1.9 3.3m-33.5-1.5c.6 1.4.9 3.1.6 3.9-.3.7.2 1.6 1 1.9.9.4 1.6 1.8 1.6 3.2s.4 2.5 1 2.5c.5 0 2.1 1.8 3.5 4 7.9 12.5 23.9 21.1 31.6 17 1.5-.8 1.9-.7 1.9.4 0 2-6.4 3.9-10.8 3.2-5.5-1-9.2-2.7-9.2-4.2 0-.7-.6-1.1-1.4-.8-1.9.7-12.5-9.8-16-15.8-2.8-4.9-6.6-14.3-6.6-16.5s1.6-1.5 2.8 1.2"/><path d="M812 479c0 .7.3 1 .7.7.3-.4.3-1 0-1.4-.4-.3-.7 0-.7.7M816 485.5c0 .3.2.5.5.5s.5-.2.5-.5-.2-.5-.5-.5-.5.2-.5.5M821 491.5c0 .3.2.5.5.5s.5-.2.5-.5-.2-.5-.5-.5-.5.2-.5.5M828 492.5c0 .3.2.5.5.5s.5-.2.5-.5-.2-.5-.5-.5-.5.2-.5.5M825 500.5c0 .3.2.5.5.5s.5-.2.5-.5-.2-.5-.5-.5-.5.2-.5.5M833 508.5c0 .3.2.5.5.5s.5-.2.5-.5-.2-.5-.5-.5-.5.2-.5.5M828.3 510.7c.4.3 1 .3 1.4 0 .3-.4 0-.7-.7-.7s-1 .3-.7.7M830.3 519.7c.4.3 1 .3 1.4 0 .3-.4 0-.7-.7-.7s-1 .3-.7.7M832 526c0 .7.3 1 .7.7.3-.4.3-1 0-1.4-.4-.3-.7 0-.7.7M776 527c0 .7.3 1 .7.7.3-.4.3-1 0-1.4-.4-.3-.7 0-.7.7M779 495.5c0 .3.2.5.5.5s.5-.2.5-.5-.2-.5-.5-.5-.5.2-.5.5M786 495.5c0 .3.2.5.5.5s.5-.2.5-.5-.2-.5-.5-.5-.5.2-.5.5M789 502.5c0 .3.2.5.5.5s.5-.2.5-.5-.2-.5-.5-.5-.5.2-.5.5M795 518.5c0 .3.2.5.5.5s.5-.2.5-.5-.2-.5-.5-.5-.5.2-.5.5M798.3 524.7c.4.3 1 .3 1.4 0 .3-.4 0-.7-.7-.7s-1 .3-.7.7M792 527c0 .7.3 1 .7.7.3-.4.3-1 0-1.4-.4-.3-.7 0-.7.7M802 493.5c0 .3.2.5.5.5s.5-.2.5-.5-.2-.5-.5-.5-.5.2-.5.5M795 499.5c0 .3.2.5.5.5s.5-.2.5-.5-.2-.5-.5-.5-.5.2-.5.5M816 497.5c0 .3.2.5.5.5s.5-.2.5-.5-.2-.5-.5-.5-.5.2-.5.5M819 503.5c0 .3.2.5.5.5s.5-.2.5-.5-.2-.5-.5-.5-.5.2-.5.5M126 400.5c0 .3.2.5.5.5s.5-.2.5-.5-.2-.5-.5-.5-.5.2-.5.5M679.1 403.8c-.7.2-1.1 4.6-1.1 12.2v11.8l8.3.4c4.5.2 24.4.3 44.2.3h36l.3-11.8c.2-8.9-.1-11.8-1-12.2-1.6-.5-85.2-1.2-86.7-.7m84.9 12.8v10.5l-22.7-.5c-12.6-.2-31.2-.5-41.5-.5L681 426v-20h83z"/><path d="M687.7 407.6c-.4.4-.7 2.5-.7 4.6 0 3.4.3 3.8 2.6 3.8 2.1 0 2.5.4 2.2 2.2-.2 1.7-.9 2.2-2.7 2s-2.2.2-1.7 1.4c.3.8.6 1.8.6 2s.8.4 1.8.4c1.8 0 4.2-3.7 4.2-6.5 0-.7-1.1-2.2-2.5-3.3-3-2.4-3.2-4.2-.4-4.2 1.2 0 1.9-.5 1.7-1.3-.5-1.4-4-2.1-5.1-1.1M700 414.4c0 3.5-.3 7.1-.6 8-.4 1.2 0 1.6 1.6 1.6s2-.4 1.6-1.6c-.3-.9-.6-4.5-.6-8 0-3.6-.4-6.4-1-6.4s-1 2.8-1 6.4M720 410.6c-2 5.1-.5 13.4 2.3 13.4 3.1 0 4.9-9.8 2.7-14.1-1.5-2.7-3.9-2.4-5 .7m3.8 4.4c-.4 6-2.2 7.1-2.6 1.6-.4-4.3.2-6.6 1.8-6.6.7 0 1 1.9.8 5M730.6 409.5c-.9 2.5-.7 4.5.4 4.5.6 0 1-.9 1-2s.5-2 1-2c1.7 0 1.1 4.7-1 8.5-2.7 4.7-2.5 5.5.9 5.5 2 0 3-.6 3.4-2 .4-1.7.2-2-1.4-1.5q-3.45 1.2-.3-3.3c2.2-3.2 1.5-8.6-1.2-9-1.3-.2-2.4.4-2.8 1.3M742.1 409.4c-1.9 2.3-2.5 8.3-1.1 11.6 3.1 7.5 8.6-.7 6.1-9-1.2-4.1-3-5-5-2.6m3.3 2.1c.8 2.1-.4 10.5-1.5 10.5-1.4 0-2.2-4.7-1.5-8.5.7-3.7 2-4.5 3-2M754.8 414.1c.3 3.7 0 6.5-.7 7.2-.8.8-1.1.5-1.1-1.1 0-1.2-.4-2.2-1-2.2-.5 0-1 .6-1 1.4 0 2.7 1.2 4.6 3 4.6 1.5 0 2-1 2.5-4.8.3-2.6.7-6.2 1-8 .3-2.5 0-3.2-1.4-3.2-1.5 0-1.7.8-1.3 6.1M708.5 416c-.4.6.8 1 2.9 1 2 0 3.6-.5 3.6-1 0-.6-1.3-1-2.9-1-1.7 0-3.3.4-3.6 1M126.3 410.5c0 2.7.2 3.8.4 2.2.2-1.5.2-3.7 0-5-.2-1.2-.4 0-.4 2.8M721.2 479.7l-.3 49.8-3.4 3.5c-3.5 3.7-5.5 9.1-5.5 15.1 0 3.8.7 3.2-12.2 10.1-2.2 1.3-4.9 3.6-5.9 5.3-1 1.6-2.7 4.1-3.9 5.3-1.1 1.3-2 2.7-2 3.2 0 1.9 3 3.1 6.3 2.5 2.1-.4 3.7-.3 4.1.4 1.3 2 4.9 1.1 12-3 3.9-2.3 8.3-4.2 9.7-4.2 1.5 0 5.4 1.4 8.7 3.1 3.4 1.8 7.2 3.2 8.6 3.2s2.8.5 3.1 1c.4.6 1.4.5 2.8-.5 2.2-1.5 2.3-2.3 3-16.5.2-4.2.5-4.6 6-8.2 4.8-3.3 5.7-4.3 5.7-6.8 0-3.4-1.7-3.9-5.5-1.4-1.3.9-2.9 1.3-3.5.9-1.7-1.1-1.1-4.3 1-5 1.1-.3 2.5-1.5 3-2.5.8-1.6.6-2.2-1.4-3.5-2.3-1.5-2.7-1.5-5 0-1.4.9-4.6 2.3-7.1 3.1-4.4 1.3-4.7 1.2-5.2-.4-.7-2.8-5.3-5.1-8.7-4.5-2.9.6-2.9.6-2.3-49.6.4-38.8.3-50.1-.6-50.1-1 0-1.3 11.7-1.5 49.7m9.2 52.9c.9.3 1.6 1.1 1.6 1.7s1 2.2 2.3 3.5c2.4 2.8 3 3-6.1-2.5-3.3-2-1.6-4.2 2.2-2.7m16 3c.4.9.4 1.9.2 2.1-.8.8-2.6-.8-2.6-2.3 0-1.9 1.6-1.8 2.4.2m-21.2 2.1c1 .9 2.8 2.1 4.1 2.7 3.4 1.7 8.4 10 9.7 16 1.8 8.8-.6 14-5.6 11.8-2.5-1.2-2.5-1.2-.4-5.2 2.4-4.8 2.5-8.1.3-12.7-3.1-6.6-11-9.7-17.5-6.8-2.6 1.1-2.3-2.3.4-5.2 2.5-2.7 6.4-3 9-.6m1.8-1.2c0 .3-.2.5-.5.5s-.5-.2-.5-.5.2-.5.5-.5.5.2.5.5m14.6 2c2.6 1.8 5.4 7.4 5.4 10.9 0 3.7-1.7 3.2-3.5-1.1-.9-2-2.7-5.1-4-6.9-1.4-1.8-2.5-3.5-2.5-3.8 0-1.1 2.6-.6 4.6.9m-2.5 10.2c1.7 3.5 2.9 6.9 2.7 7.5s-1.2-1.1-2.2-3.8-2.9-6.3-4.2-8.1c-2.7-3.6-3.1-5.1-.9-3.3.8.7 2.9 4.1 4.6 7.7m15.9-5.2c0 .3-.2.5-.5.5s-.5-.2-.5-.5.2-.5.5-.5.5.2.5.5m-3 3.1c0 .8-.4 1.4-1 1.4-.5 0-1-.9-1-2.1 0-1.1.5-1.7 1-1.4.6.3 1 1.3 1 2.1m-32-.1c-.7.8-2.1 1.5-3 1.5-1 0-2.1.6-2.3 1.2-.3.7-.6.3-.6-.9-.1-2.3 1.1-3.1 4.8-3.2 2-.1 2.1.1 1.1 1.4m8 5.4c1.7 2.4 2.4 4.8 2.4 8.3.1 5-1.1 6.8-4.6 6.8-2.5 0-2.3-2.1.2-2.7 1.6-.4 2-1.4 2-4.7 0-2.3-.6-4.8-1.2-5.4-.7-.7-1.3-2-1.3-3s-.9-1.8-2.3-2c-1.9-.3-2.1-.6-1.2-1.7 1.4-1.7 2.1-1.1 6 4.4m14-3.9c0 .5-.2 1-.4 1-.3 0-.8-.5-1.1-1-.3-.6-.1-1 .4-1 .6 0 1.1.4 1.1 1m-10.2 3.5c-.3.3-.9-.2-1.2-1.2-.6-1.4-.5-1.5.5-.6.7.7 1 1.5.7 1.8m-8.7 1.4c4.2 4.2 3.9 7.5-1.1 10.6-2.2 1.4-4.2 2.5-4.4 2.5-.3 0-2.8 1.3-5.6 3-2.8 1.6-5.5 3-5.9 3-.5 0-1.2-1.5-1.5-3.3-.3-1.9-1.6-4.4-2.8-5.6-2-2.2-2-2.4-.3-3.5 4.6-2.8 17.1-9.6 17.8-9.6.5 0 2.2 1.3 3.8 2.9m21.2 6c.1 6.5-.6 12.7-1.5 13.6-.8.8-5.8-.5-5.8-1.6 0-.5.5-.9 1.1-.9 3.6 0 6.4-8 5-14.1-1.3-5.6-1.3-6.9 0-4.5.6 1 1.2 4.4 1.2 7.5m-11.6-3.7c-.3.8-.6.5-.6-.6-.1-1.1.2-1.7.5-1.3.3.3.4 1.2.1 1.9m-31.6 9.8c.9 1.4 2 4 2.4 5.7.6 3 .4 3.3-1.7 3.3-3.1 0-4.6-1.1-6.4-4.6-1.2-2.3-1.3-3.3-.3-5.2 1.6-2.8 3.6-2.5 6 .8m31.9 5c.8.5 1.1 1 .5 1-.5 0-1.7-.5-2.5-1s-1-1-.5-1c.6 0 1.7.5 2.5 1m-38.6.9c.9 1.5-1.8 3.1-3.4 2-1.3-.8-1.3-1 0-1.9 1.9-1.2 2.7-1.2 3.4-.1"/><path d="M697.2 569.5c1.2 2.7 2.8 3.4 2.8 1.2 0-1.4-2-3.7-3.2-3.7-.4 0-.2 1.1.4 2.5M609.8 437.7c-2.8.4-2.8.4-2.8 12.3v11.8l11.3.4c6.1.2 26.1.4 44.2.3h33l.3-12.3.3-12.2-31.8-.1c-17.5-.1-36.3-.2-41.8-.4-5.5-.1-11.2 0-12.7.2m82.2 12.8V461l-14.2-.4c-7.9-.3-26.3-.5-41-.5L610 460v-20h82z"/><path d="M616.7 441.7c-.4.3-.7 2.4-.7 4.5 0 3.1.3 3.8 2 3.8 1.5 0 2 .7 2 2.5 0 1.4-.4 2.5-1 2.5-.5 0-1-.5-1-1 0-.6-.4-1-1-1-1.5 0-1.2 2.6.4 3.9 3 2.5 6.2-1.8 5-6.6-.4-1.2-1.5-2.5-2.5-2.8-2.5-.8-2.4-3.5.1-3.5 1.1 0 2-.7 2-1.5 0-1.5-4-2.1-5.3-.8M629 442.2c-.1.2-.2 3.8-.3 8.1-.2 6.9 0 7.7 1.7 7.7 1.4 0 1.7-.5 1.2-2.3-.3-1.2-.6-4.8-.6-8 0-3.1-.4-5.7-1-5.7-.5 0-1 .1-1 .2M648.6 443.6c-1.1 2.9-.5 10.9.9 12.9 1.4 1.7 1.7 1.8 3.1.3 2-2 2.9-8.6 1.5-12.1-1.2-3-4.5-3.7-5.5-1.1m4 2.8c.8 3.1.2 7.6-1.1 7.9-.5.1-1.1-2.2-1.3-5.1-.3-5.4 1.2-7.3 2.4-2.8M662.3 443.7c-.3 1-1.5 3.1-2.6 4.6-2 3-1.7 5.7.8 5.7.8 0 1.5.9 1.5 2 0 1.2.7 2 1.6 2 1.1 0 1.4-.5 1-1.7-.4-.9-.1-2 .6-2.4.9-.6.9-1.1 0-2.1-.7-.8-.9-2.9-.6-5 .7-3.8-1.1-6.3-2.3-3.1m-.6 7c-.4.3-.7 0-.7-.7s.3-1 .7-.7c.3.4.3 1 0 1.4M670.3 443.7c-1.1 2.9-.7 12.3.5 13.5 2 2 4.7-.4 5-4.6.3-3.1 0-3.7-2.2-4.6-1.7-.6-2.4-1.4-2-2.5.5-1.2.9-1.3 2-.4 1.7 1.4 2.9.6 2.1-1.6-.8-2-4.6-1.9-5.4.2m3.7 8.7c0 3-1.5 4.2-2.4 2-1-2.7-.7-4.4.9-4.4.9 0 1.5.9 1.5 2.4M680.6 444.2c-3.6 5.1-.2 15.8 4.1 13.2 1-.6 2-2 2.2-3 .3-1.8.2-1.8-1.6-.2-2.6 2.4-3 2.3-3.6-1.2-.9-4 .2-9 1.9-9 .8 0 1.4.4 1.4 1 0 .5.5 1 1 1 .6 0 1-.9 1-2 0-2.8-4.4-2.7-6.4.2M637.5 450c.3.5 1.9 1 3.6 1 1.6 0 2.9-.5 2.9-1 0-.6-1.6-1-3.6-1-2.1 0-3.3.4-2.9 1M126 445.5c0 .3.2.5.5.5s.5-.2.5-.5-.2-.5-.5-.5-.5.2-.5.5M126 451c0 .7.3 1 .7.7.3-.4.3-1 0-1.4-.4-.3-.7 0-.7.7M126.4 464c0 5.8.1 8.1.3 5.2.2-2.8.2-7.6 0-10.5-.2-2.8-.3-.5-.3 5.3M650 493.5c0 28.5 0 28.5-3.2 30.5-2.9 1.7-3 2-1.2 2.6 3.8 1.4 6.4 4.6 6.4 8.1 0 1.8.5 3.3 1 3.3 2.5 0 .2-8.2-3.2-11.2-1.7-1.5-1.8-1.8-.5-1.8 2.4 0 5.7 3.6 6.3 6.9.5 2.2 1 2.7 2.5 2.4 2.7-.7 2.4-5.2-.6-9.7-1.7-2.6-2-3.6-1-3.6 2 0 5.5 5.4 5.5 8.6 0 2.1.3 2.5 1.1 1.7 1.4-1.4-.4-6.6-3.4-10.1-2.8-3-.3-2.9 2.8.3 1.8 1.7 2.5 3.5 2.5 6.2 0 2.8.3 3.4 1 2.3 1.4-2.1.2-7-2.3-9.7-2.8-3.1-1.3-4.2 1.8-1.3 1.8 1.7 2.5 3.4 2.5 6.2 0 2.4.4 3.7 1 3.3 2.3-1.4.7-8-2.8-11.4-1.2-1.2-1.2-1.6-.2-1.9.8-.3 2.4.8 3.8 2.3 1.7 2.1 2.3 3.7 2 6.2-.5 3.9.8 4.4 2.2.8.5-1.4 1.4-2.5 1.8-2.5 1.8 0 6.2-5.3 6.2-7.5 0-4.6-5.5-5.8-6.8-1.4-.4 1.1-.2 1.2.9.1 2.1-1.9 3.9-1.4 3.9 1.2 0 1.5-1.1 3.3-2.6 4.5-2.7 2.1-2.7 2.1-6.4-1.9-2-2.2-4.2-4-4.8-4-1.3 0-11.6 6.2-12 7.2-.2.5-.8.8-1.3.8s-.9-11.7-.9-28c0-18-.4-28-1-28s-1 10.2-1 28.5m5.5 31.2c2.5 2.4 3.8 6.4 2.5 7.7-.7.7-1 .5-1-.6 0-.8-1.1-3.2-2.5-5.2-2.5-3.7-1.9-4.9 1-1.9M126.1 479.6c0 1.1.3 1.4.6.6.3-.7.2-1.6-.1-1.9-.3-.4-.6.2-.5 1.3M125.4 506c0 9.1.2 12.8.3 8.2.2-4.5.2-11.9 0-16.5-.1-4.5-.3-.8-.3 8.3M414 515.8V540l21.3.2 21.2.3.3 19.2c.3 21.5-.2 20.2 7.8 22.2 3.7.9 14.5 3.7 37.7 10 6 1.6 11.1 3.1 11.3 3.4.3.2.9 4.4 1.4 9.3 1.4 12.3 2.6 17.2 7.2 29.9 6.2 17 14.1 30.4 26 44.3 2.4 2.8 2.7 3.9 2.2 7-.6 3.6-.3 4 5.8 9.6 6.9 6.5 13.5 11.2 14.4 10.3.3-.3-1.4-1.9-3.8-3.6-2.4-1.6-5.7-4.3-7.5-5.9-2.9-2.6-3-2.9-1.3-4 1.6-.9 2.8-.4 8 3.8 3.4 2.7 7 5.2 8.1 5.5 2.5.8 2.4 4.1-.1 5.5-2.3 1.2-2.7 3.2-.5 2.4.8-.3 2.7.3 4.2 1.4 4.6 3.1 8 3.6 11 1.2 1.4-1.1 2.9-1.8 3.2-1.5.4.2 3.7.9 7.3 1.5 7.8 1.2 19.7-.5 17.6-2.5-.2-.3-2.9 0-5.9.5-21.3 4.1-51.7-15.3-72.7-46.6-10-14.9-18.4-35.6-21.2-52.4-1.3-7.9-.9-24.4.7-31.5 3.8-16.2 17.5-27.5 33.6-27.5 19 0 39.9 12.7 58.7 35.5 10.7 13.1 19.3 28.4 24.4 43.5 5 15.1 5.9 20.3 6 35.5.1 10.4-.3 16.1-1.2 18.5-2.9 7.5-5.6 11.7-10 15.7-5.6 5-5.1 6.7.6 2.1 5-4.1 9.7-11.7 11.4-18.3 1.6-6.5 2.2-7.3 7-8.5 2.6-.7 4.2-1.9 4.8-3.4 1.3-3.6.9-32.2-.6-41.7-4.2-25.8-21.4-53-41.9-66.5-10.7-7-15-8.4-26.2-8.4-6.2 0-9.3-.5-12.1-1.9-2-1-5.1-2.2-6.9-2.5-2.1-.5-3.3-1.4-3.7-3.1-1.1-4.3-5.5-8.5-9-8.5-4.5 0-14 6.2-16 10.4-.9 1.8-2.6 4-3.8 4.9-10 6.6-16.1 17.2-17.4 30.4-.4 3.5-1 6.5-1.3 6.8-.7.3-16.8-3.7-42.6-10.7l-12-3.3-.3-19.1-.2-19.1 21.3.5 21.4.4.5-23.3c.3-12.9.3-23.7-.1-24.1-.3-.4-20.3-1-44.3-1.4l-43.8-.7zm53-20.7c16.8.1 31.1.4 31.8.7 1.1.4 1.2 4.5.7 21.6-.3 11.6-.7 21.1-.8 21.1s-18.5-.1-40.9-.3l-40.8-.3v-21.3c0-11.7.3-21.6.7-22 .4-.3 4.8-.4 9.7-.2 5 .3 22.8.6 39.6.7m90.4 50.1c2.8 4 2.1 4.6-6.6 5.1-4.6.2-9.4.8-10.7 1.2-3.6 1.2-2.2-1.4 2.8-5.3 5.4-4.1 12.1-4.5 14.5-1m44.1 15.9c18.4 8.6 36.1 29.1 44.4 51.3 3.1 8.2 6.1 21.9 6 26.9-.1 4.2-.1 4.2-2.2-2.2-1.7-5.1-2.8-6.9-6.1-9.3-2.3-1.7-5.2-3.4-6.6-3.9-1.8-.7-3.8-3.4-6.9-9.5-5.1-10-12.7-21.9-18.5-28.9-5.8-7.1-19.5-20.3-21.7-21-1.1-.4-1.9-1-1.9-1.4 0-.3-1.4-1.5-3.1-2.5-7.4-4.4 7.2-4 16.6.5m38.9 67.5c6.4 3.6 7.5 6 10.1 21.4 1.6 9.2 1.9 19.8.7 21.6-.7 1.1-6.9 4.4-8.3 4.4-.4 0-.8-4.8-.8-10.7-.1-11.7-1.8-21.7-5.6-32.4-1.3-3.8-2-6.9-1.6-6.9.5 0 2.9 1.2 5.5 2.6m-85.6 57.7c.6.7.9 2.3.5 3.5-.5 2.2-.5 2.2-2.4.1-1-1.1-1.5-2.7-1.2-3.5.6-1.7 1.7-1.8 3.1-.1M588 710c0 1.5-3.6 2.1-6.5 1-1.9-.7-2.5-1.5-2.1-2.6.3-.9.6-1.9.6-2.4 0-.4 1.8.1 4 1.1 2.2 1.1 4 2.4 4 2.9m-10-3c0 .5-.5 1-1.1 1-.5 0-.7-.5-.4-1 .3-.6.8-1 1.1-1 .2 0 .4.4.4 1"/><path d="M423.4 498.4c-.3 1.4-.3 3.4.1 4.4.3 1.1.1 2.3-.5 2.7-1.6 1-1.2 4 .9 5.9 2 1.9 4.8 1.3 5.5-1.2.6-2.5.1-11.6-.8-13-1.3-2.1-4.5-1.4-5.2 1.2m4.1 2.1c0 1-.6 2-1.2 2.2-.8.3-1.3-.5-1.3-2.2s.5-2.5 1.3-2.3c.6.3 1.2 1.3 1.2 2.3m.3 7.3c.3 1.7-.2 2.2-1.7 2.2q-2.1 0-2.1-1.8c0-3.8 3.3-4.1 3.8-.4M433.7 498c-.3 1.1-.1 2.3.4 2.6s.9 0 .9-.5c0-.6.7-1.1 1.6-1.1 1.1 0 1.4.5.9 1.7-1 2.4-1.9 12-1.1 11.2.4-.4 1.1-2.8 1.6-5.5s1.2-6.1 1.6-7.7c.6-2.5.4-2.7-2.4-2.7-2.1 0-3.1.6-3.5 2M456 497.9c-1.5 2.8-1.2 11.4.4 13.6 3.2 4.5 6.9-5.1 4.6-12-1.3-3.9-3.4-4.5-5-1.6m3.8 6.1c.4 4.7-1.2 7.5-2.8 5-.8-1.2-.8-5.9-.1-9.8.1-.2.7-.2 1.4 0 .6.3 1.3 2.4 1.5 4.8M468 496.7c-.7 14-.5 16.3 1.4 16.3 1.2 0 1.6-.5 1.2-1.6-.3-.9-.6-4.7-.6-8.5 0-3.9-.4-6.9-1-6.9-.5 0-1 .3-1 .7M478.3 501.9c-2.8 5.9-2.9 7.1-.3 7.1 1.5 0 2 .7 2 2.6 0 1.5.5 2.4 1.2 2.2.6-.2 1.1-1.7 1.1-3.4-.1-10.4-.4-13.4-1-13.4-.5.1-1.8 2.2-3 4.9m1.7 3.1c0 .5-.5 1-1.1 1-.5 0-.7-.5-.4-1 .3-.6.8-1 1.1-1 .2 0 .4.4.4 1M444 505c0 .5 1.6 1 3.5 1s3.5-.5 3.5-1c0-.6-1.6-1-3.5-1s-3.5.4-3.5 1M423.6 520.5c-1.1 1.7-1.4 3.1-.8 4.2.6.9.5 2.7-.1 4.4-1.4 3.6 1.4 7.4 4.4 5.9 2.3-1.3 3.4-4.7 1.9-6.5-.9-1-.9-1.9 0-3.5.9-1.7.8-2.6-.5-4.6-2-3-2.9-3-4.9.1m3.7 1.8c.3.8.1 2-.4 2.8-1.1 1.9-3.4-.3-2.6-2.5.8-2 2.3-2.1 3-.3m.2 8.2c0 1.1-.8 2.1-1.7 2.3-1.4.3-1.8-.3-1.8-2.3s.4-2.6 1.8-2.3c.9.2 1.7 1.2 1.7 2.3M434.2 519.2c-1.4 1.4-1.6 4.8-.3 4.8.5 0 1.1-.6 1.4-1.3.2-.6.7-.9 1.1-.6.4.4.3 3.1-.3 6-.5 3-.6 5.8-.1 6.2.4.5 1.1-1.3 1.4-4 .4-2.6 1.2-6.1 1.8-7.6.9-2.3.8-3.1-.3-3.8-1.9-1.2-3.3-1.1-4.7.3M456 521c-1.8 3.3-1.5 11.9.4 13.8 1.6 1.6 1.8 1.6 3.2-.2 1.7-2.4 1.9-12.7.2-14.4s-2.6-1.5-3.8.8m3.8 3.4c.6 3.1-.8 8.8-2.1 8.3-1.4-.4-2.1-5-1.2-8.4.6-2.7 2.8-2.6 3.3.1M468 519.7c-.7 14-.5 16.3 1.4 16.3 1.2 0 1.6-.5 1.2-1.6-.3-.9-.6-4.7-.6-8.5 0-3.9-.4-6.9-1-6.9-.5 0-1 .3-1 .7M477.3 519.7c-.8.2-1.3 2.2-1.3 4.4 0 3.2.4 3.9 1.9 3.9 2.5 0 3.4 1.5 2.6 4.1-.5 1.6-.9 1.8-2.1.8-1.8-1.5-2.7-.7-1.8 1.5 1 2.5 4.3 1.9 5.4-1 1.4-3.5.2-7.4-2.1-7.4-1.2 0-1.9-.7-1.9-2 0-1.5.7-2 2.5-2 2.8 0 3.4-1.5.9-2.4-1.8-.7-2.3-.7-4.1.1M444.5 528c.3.5 1.7 1 3 1s2.7-.5 3-1c.4-.6-.8-1-3-1s-3.4.4-3 1M548.2 545.7c.2 1 1 1.8 1.8 1.8 2.2 0 1.8-2.9-.3-3.3-1.4-.3-1.8.1-1.5 1.5M642.2 637.6c.2 1.1 1.1 2 2.2 2.2 1.3.3 1.7-.1 1.4-1.4-.2-1.1-1.1-2-2.2-2.2-1.3-.3-1.7.1-1.4 1.4M646.5 660c-.7 1.2 1.2 4 2.7 4 1.3 0 .6-4.3-.9-4.7-.6-.2-1.4.1-1.8.7M126.4 531.5c0 4.9.1 7.1.3 4.8s.2-6.4 0-9-.3-.8-.3 4.2M640.7 527.7c-1.5 1.4-.6 6 1.8 8.8 2.6 3.2 3.5 2.4 1-.9-1.7-2.2-2-6.6-.6-6.6 3.1 0 7 7.6 4.9 9.6-1.3 1.1-13.3 4.1-21.1 5.1-2.5.3-4.3 1.3-5.3 2.8-1.6 2.5-1 5.5 1.2 5.5 1.2 0 1.2-.4.2-2-.8-1.2-.9-2.3-.3-2.8s6.2-2 12.5-3.2c13.7-2.7 15-3.3 15-6.6 0-5.7-6.5-12.5-9.3-9.7M126 542c0 .7.3 1 .7.7.3-.4.3-1 0-1.4-.4-.3-.7 0-.7.7M126 544.5c0 .3.2.5.5.5s.5-.2.5-.5-.2-.5-.5-.5-.5.2-.5.5M126.3 552c0 2.5.2 3.5.4 2.2.2-1.2.2-3.2 0-4.5-.2-1.2-.4-.2-.4 2.3M542.1 562c-8.6 2.9-15.5 10.8-19.1 22-2.4 7.5-2.5 29-.1 27.5.5-.2.5-2.7 0-5.4-.4-2.8-.6-6.5-.4-8.3 1.9-16.2 3.5-20.7 9.9-27.2 9.2-9.6 20.6-11 36.1-4.5 4.1 1.7 7.5 3.2 7.5 3.4 0 .1-1.2 2.9-2.7 6.1-10.4 22.8 6.5 64.3 33.5 82.2 8.5 5.6 15.5 8.2 22.1 8.2 2.8 0 3.1.3 3.1 3 0 3-.1 3-5.2 3-7.6 0-15.2-2.3-21.5-6.5-3-2-5.9-3.5-6.5-3.3-1.5.5 9 7.3 13.7 8.8 2.2.7 5 1.6 6.3 2.1s4.7.9 7.7.9c6.4 0 6.5.3 3.5 8.3-2.6 6.8-7.6 12.7-13.1 15.4-6 2.9-8.6 3.3-10 1.7-1.6-1.9-3.3-1.8-2.5.2.6 1.5 0 1.6-5.1 1.1-3.2-.4-8.3-1.7-11.3-2.9-5.1-2.1-14.8-7.5-16-8.8-.3-.3-2.3-1.9-4.5-3.5-5.1-3.8-13.8-12.5-19-19-10.7-13.4-18.7-29.2-23.5-46.5-.7-2.5-1.5-3.9-1.7-3.2-.7 1.8 4.5 17.3 8.5 25.7 7.1 14.7 15.2 25.9 27.5 37.7 5 4.8 9.9 9 10.9 9.4 1 .3 1.8.9 1.8 1.3 0 .5 4 2.9 8.8 5.3 18.6 9.5 34.1 8.4 44.6-3.2 6.1-6.9 8.6-15 8.6-28.5 0-27-14.1-57.9-36.9-80.6-11.5-11.3-21.4-17.6-34.3-21.8-8.1-2.5-13.5-2.6-20.7-.1m45.4 15.4c5.1 3.9 14.4 13.2 18.1 18.2 1.6 2.2 3.2 4.1 3.5 4.4 1.1.8 10.4 16.2 12.1 20 6.8 14.8 10.8 28.8 10.8 37.4 0 5.6 0 5.6-4.2 5.6-6.1 0-10.6-1.5-17.6-5.7-14-8.5-24.8-22.2-33.6-42.4-2.2-5.1-4.9-22.5-4.3-27.9.7-5.5 3.5-14.3 5.1-15.2 1.1-.8 3.6.6 10.1 5.6"/><path d="M563.8 574.6c-1.9 4.2-2.2 6.7-2.2 16.4-.1 12.4.8 16.9 5.7 29.5 3.3 8.5 6.4 14.3 12.7 23.4 4 5.9 14 16.2 14 14.5 0-.5-2.1-3-4.6-5.4-4.9-4.8-15.7-20.7-19.1-28-6.4-13.9-9.4-30.9-7.4-41.8.7-3.6 1.9-7.8 2.7-9.4.9-1.7 1.3-3.2 1-3.5s-1.6 1.6-2.8 4.3M126 586.5c0 .3.2.5.5.5s.5-.2.5-.5-.2-.5-.5-.5-.5.2-.5.5M126 592.5c0 .3.2.5.5.5s.5-.2.5-.5-.2-.5-.5-.5-.5.2-.5.5M126.4 606c0 5.8.1 8.1.3 5.2.2-2.8.2-7.6 0-10.5-.2-2.8-.3-.5-.3 5.3M126 621c0 .7.3 1 .7.7.3-.4.3-1 0-1.4-.4-.3-.7 0-.7.7M125 739.5c0 59.3.3 107.6.6 107.3.7-.7.6-213.9-.1-214.6-.3-.3-.5 48-.5 107.3M395.8 634.4c-11.4 4.7-18.7 10.5-22.6 18.1-4.7 9.3-7.5 24.7-6.9 38 .7 15.3 4.3 28.2 12.8 46.3 12.9 27 31.3 47.3 52.2 57.2l6.7 3.3v40.3c0 26.3.3 40.4 1 40.4.6 0 1-13.8 1-39.5 0-23.4.4-39.5.9-39.5s3.8.7 7.3 1.6c23.3 6 44-8.9 48.8-35 .8-4.4 1.1-11.4.8-19.6-.4-8.3-.1-15.9.8-21.6.7-4.9 1.3-10.9 1.4-13.4 0-4 .4-4.7 3.1-6.3 3.6-2 3.4-4.2-.4-4.2-1.5.1-2.7-.3-2.7-.7s.4-.8 1-.8c.5 0 2.3-1.4 4-3.1 3.2-3.4 3.2-4.7.4-11.8-1.3-3.2-1.6-3.3-5.4-2.7-4.3.7-4.5.6-3-2.4.6-1.1 1.4-2.8 1.9-3.8.6-1.2.4-2.4-.5-3.6-1.1-1.6-2.2-1.8-6.9-1.3-5.5.6-5.5.6-5.5-2.8 0-3.9-1.6-4.8-6.3-3.3-3.1 1-3.9.7-9.2-2.6-4.9-3.2-17.6-9.6-19-9.6-.2 0-3.9-2.5-8.2-5.6-18.1-13.1-34.7-17.3-47.5-12m19.4.7c5.8 1.1 6.8 1.5 14.3 5 5.4 2.5 12.2 6.9 17 10.8 5.6 4.6 17.6 17.5 20.8 22 1.7 2.5 3.3 4.8 3.6 5.1 1.1 1 8.1 12.9 11 18.7 4.1 8.3 9.1 20.9 10.6 26.8 3.4 13.8 3.7 16.4 3.3 30-.3 11.4-.9 15.2-2.7 20.5-2.5 6.9-4.8 10.7-3 4.9 2.9-9.4 3.8-15.2 3.9-24.2 0-11.6-2.8-26.7-7-37.2-.4-1.1-1.4-3.6-2.1-5.5-2.7-7.6-11.5-23.9-17.3-32.5-7.3-10.7-22.9-26.8-30.8-31.8-8.9-5.7-16.7-9.3-23.7-11-10.3-2.6-8.7-3.8 2.1-1.6m-4.8 2.9c11.7 1.9 27.3 10.9 39 22.6 18 18 32.1 42.6 39.5 68.9 3.2 11.6 4.1 30.5 2 40.7-2.7 12.4-9.8 22.6-18.6 26.8-3.1 1.4-7.2 2.3-12.2 2.6l-7.6.4 5.5-1.5c16.4-4.6 24-12.8 28.1-30.2 3.5-15.4 1.8-33.2-5.3-53.3-6.2-17.5-16.8-34.4-30-47.9-16.5-16.7-29.4-24-44.1-24.9-12-.7-20 2.2-28.4 10.2-2.4 2.2-4.3 3.7-4.3 3.3 0-3.2 8.5-12.7 14.1-15.8 5.1-2.7 13.1-3.4 22.3-1.9m9.2 9c15.4 5.4 34.7 23.2 47.1 43.5 12.7 20.8 19.3 42.1 19.3 61.8-.1 11.2-3.3 26.7-5.6 26.7-.3 0-.3-.8.1-1.8 1.8-4.2 3.4-14.3 3.5-21.2.1-36.3-23.9-80.6-54.6-100.9-6.6-4.4-12.9-7.3-21.4-10-3.5-1.1-3.4-1.1 1.2-.6 2.6.2 7.3 1.4 10.4 2.5m-12.4.1c6.4 1.4 16.1 5.7 22 9.7 17.8 12.3 37 37.9 44.9 59.9 1.1 3.2 2.5 6.7 3 7.8 1.9 4.1 4 16.3 4.6 26.6 1 17.6-2.6 30.6-10.6 38.2-4.2 4.1-14.1 7.7-21.1 7.7-8.6 0-22.6-5.8-33.5-14-13.2-9.9-33.2-37.1-39.2-53.5-.7-1.7-2.1-5.5-3.2-8.5-7.5-19.8-8.1-47.3-1.3-59.3 7-12.6 19.3-17.8 34.4-14.6m56.7 12.8c1.4.9 3.7 2.2 5.1 2.9 5.8 2.9 16.1 11.5 20 16.5 6.8 9.1 8.4 14.8 8.4 31.5 0 8-.5 14.7-1 15.2-.7.7-1.7-1.1-2.9-5.2-6.5-21.9-20.8-47.2-34-60.2-4-3.9-4-3.9-1.1-3.2 1.7.4 4.1 1.5 5.5 2.5m28.1 12.5c0 .3-.4.8-1 1.1-.5.3-1 .1-1-.4 0-.6.5-1.1 1-1.1.6 0 1 .2 1 .4m4 3.7c0 1-.4 1.9-1 1.9-.5 0-1-1.2-1-2.6s.4-2.3 1-1.9c.6.3 1 1.5 1 2.6m7.6 14.4c.6 3.3-.7 6.5-2.6 6.5-1.2 0-1.8-7.4-.7-8.8 1.6-2 2.6-1.4 3.3 2.3m-1.1 12.5c-.3.5-1.2 1-1.8 1-.7 0-.6-.4.3-1 1.9-1.2 2.3-1.2 1.5 0"/><path d="M415 666.5c-.9 1.1-1.6 1.3-2.4.5-1.6-1.6-2.6-1.2-2.6 1 0 2.1-1.5 2.7-2.5 1s-2.5-1.1-2.5 1c0 1.1-.4 2-1 2-.5 0-1-.5-1-1 0-.6-.7-1-1.6-1-1 0-1.4.6-1.1 1.5.4.8.2 1.7-.4 2-.5.4-1.2-.1-1.5-.9-.8-2.1-2.4-1-2.4 1.5 0 2.1-1.5 2.6-2.5.8-1-1.5-3.6 2.6-2.9 4.4.3.8 0 1.8-.6 2.2-.7.4-1.4-.2-1.7-1.4-.6-2.5-2.8-2.3-2.8.3 0 .9-.6 2-1.4 2.5-.9.6-1 1.1-.2 1.5 1.6 1.1 1.3 2.6-.4 2-.8-.4-1.5-.2-1.5.4 0 .5.7 1.2 1.5 1.6 1.6.6 2.1 3.6.6 3.6-.5 0-.7 1.5-.5 3.2.1 1.8.3 5.2.3 7.6.1 3.9.3 4.3 2.1 3.7 2.4-.8 4.1 2.2 2 3.5-1.1.7-1.1 1.1-.1 2.4.7.8 1 2.3.7 3.3-.7 2.1.2 3.7 2.7 4.6 1.2.5 1.6 1.6 1.5 3.9-.2 2.6.2 3.5 2 4.3 1.2.5 2.2 1.8 2.2 2.8 0 1.1.6 1.7 1.7 1.5 1-.2 1.9.4 2.1 1.4.2 1.3-.1 1.6-1.2 1.2-3.6-1.4-1.2 1.8 3.7 4.9 1.5 1 2.7 2.6 2.7 3.7s1.4 3.4 3 5.2c1.7 1.7 3 2.7 3 2.3s.7-.2 1.6.6c.8.7 1.3 2.1 1.1 3.1-.8 2.7 1.5 6.4 3.6 6 1.2-.3 1.7.3 1.7 2.1 0 3.9 1 5.7 3.2 5.7 1.1 0 2.2.8 2.5 1.9s1 1.8 1.7 1.5 2.6.2 4.2 1.1c3.9 2 6.1 2 4.4 0-.7-.9-1-1.8-.7-2.1.9-.9 2.7.6 2.7 2.3 0 1.2.3 1.3 1.4.4 1-.8 1.6-.9 2.1-.1.3.5 1.3 1 2.1 1 1.2 0 1.2-.4.4-2-.6-1.1-.8-2.5-.5-3 1-1.7 2.5-.1 2.5 2.8.1 2.6.1 2.6 1.5.8 1.3-1.8 1.5-1.8 2.1-.2 1 2.6 2.5-.2 1.7-3.1-.3-1.4-.1-2.3.6-2.3.6 0 1.1.5 1.1 1.1s.6.9 1.3.6c.7-.2 1.1-1.6.9-3.1-.3-2.5-.2-2.7 1.7-1.7 2.9 1.6 3.2 1.4 2.5-1.5-.6-2.5-.5-2.6 2-2 2.7.7 2.8.6 2.1-2.4-.7-3.1-.7-3.1 3.2-2.4 3.5.7 3.7.6 2.4-1-1.2-1.4-1.1-1.8.5-3.1 1.8-1.3 1.8-1.4.2-2-2.1-.8-2.4-3.1-.5-3.8.9-.3.9-.7-.1-2-1-1.2-1.1-2.4-.2-5.6 1.3-4.9.8-6.1-2.6-6.1-3 0-3.1-1.6-.1-2.4 2-.6 2-.7.5-1.7-1-.5-1.8-2.1-1.8-3.4 0-1.5-.7-2.6-2.1-3-1.6-.5-1.9-1.2-1.5-3.1.5-2 .2-2.6-1.9-3.4-2.5-1-3.3-2.5-1.6-3.2 1.2-.4.2-5.8-1-5.8-.5 0-.9.4-.9 1 0 .5-.7 1-1.5 1-1.1 0-1.3-.7-.9-2.9.5-2.4.2-2.9-2.1-3.5-2-.5-2.5-1.1-2-2.6.4-1.3-.1-2.3-1.4-3.2-1.2-.7-2.1-1.9-2.1-2.7 0-1-.3-1.1-1.4-.2-1.8 1.5-3.3-.4-1.8-2.2 1.3-1.5-.6-4.2-2.8-4.2-1 0-1.4-.9-1.3-2.8.1-1.5-.2-2.7-.8-2.7-.5 0-.9.9-.9 2 0 1.2-.7 2-1.6 2-1.3 0-1.5-.7-.9-4 .6-3.8.5-4-1.7-3.8-1.7.2-2.4-.3-2.6-2-.2-1.2-.8-2.2-1.3-2.2s-.9-.7-.9-1.5c0-.9-1-2-2.2-2.5-1.3-.5-3.6-1.8-5.3-2.9-3.6-2.5-3.9-2.5-5.5-.6m4 3.1c0 .9-.5 1.4-1.2 1.2-1.8-.6-2.1-2.8-.4-2.8.9 0 1.6.7 1.6 1.6m-5 1.4c0 .5-.7 1-1.5 1s-1.5-.5-1.5-1c0-.6.7-1 1.5-1s1.5.4 1.5 1m10 1.6c0 1.6-.9 1.8-2.9.5-.7-.5-1.1-1.4-.7-1.9.9-1.5 3.6-.4 3.6 1.4m-15.1 1.3c-.3.6-1 .7-1.8.2-.7-.5-1-1.4-.6-2.1.9-1.4 2.9.2 2.4 1.9m9.1.2c0 1.8-.2 1.9-1.5.9-.8-.7-1.5-1.6-1.5-2.1s.7-.9 1.5-.9c.9 0 1.5.9 1.5 2.1m9.9 1.8c-.3.6-1 .7-1.8.2-.7-.5-1-1.4-.6-2.1.9-1.4 2.9.2 2.4 1.9M404 675c0 .5-.4 1-1 1-.5 0-1-.5-1-1 0-.6.5-1 1-1 .6 0 1 .4 1 1m9 .6c0 .9-.5 1.4-1.2 1.2-1.8-.6-2.1-2.8-.4-2.8.9 0 1.6.7 1.6 1.6m-13 1.4c0 1.1-.4 2-.9 2-1.4 0-2.3-1.8-1.6-3 1-1.7 2.5-1.1 2.5 1m22.4-1.4c1.8.7 1.2 2.4-1 2.4-.8 0-1.4-.7-1.4-1.5 0-1.7.2-1.8 2.4-.9m-14.4 2c0 1.4-.3 1.4-1.5.4-.8-.7-1.5-1.4-1.5-1.6s.7-.4 1.5-.4 1.5.7 1.5 1.6m9-.1c.7.9 1 1.8.7 2.1-1 1.1-3.7-.5-3.7-2.1 0-1.9 1.4-1.9 3 0m-21 1.7c0 1.3-2.3.5-2.8-1-.2-.7.2-1 1.2-.6.9.3 1.6 1.1 1.6 1.6m7.8-.1c-.2.6-.8 1-1.3 1s-1.1-.4-1.3-1 .4-1.1 1.3-1.1 1.5.5 1.3 1.1m8.2 1.5c0 .8-.4 1.2-1 .9-.5-.3-1-1.3-1-2.1s.5-1.2 1-.9c.6.3 1 1.3 1 2.1m15.5-1.5c.4.6.5 1.2.2 1.5-.7.7-3.7-.7-3.7-1.7 0-1.3 2.7-1.1 3.5.2m-5.7 2.3c.3 1.2-.1 1.7-1 1.4-.7-.3-1.5-1.3-1.6-2.2-.3-1.2.1-1.7 1-1.4.7.3 1.5 1.3 1.6 2.2m-22.7-.1c-.1 1.2-1.5.9-1.9-.4-.3-.6.1-1 .8-.8.6.3 1.1.8 1.1 1.2m8.7 1.1c.3 1.2-.1 1.7-1 1.4-.7-.3-1.5-1.3-1.6-2.2-.3-1.2.1-1.7 1-1.4.7.3 1.5 1.3 1.6 2.2m24-.1c.2 1.2-.1 1.5-1.2 1.1-1.9-.7-2.2-3.8-.3-3.2.6.3 1.3 1.2 1.5 2.1m-37 .5c.2.7-.3 1.2-1.2 1.2s-1.6-.7-1.6-1.6c0-1.7 2.2-1.4 2.8.4m22.2.3c0 1.1-2.7 1.2-3.4 0-.3-.4-.3-1.1 0-1.4.8-.8 3.4.3 3.4 1.4m-27 1.6c0 2-2.4 1.1-2.8-1-.2-1.2.1-1.5 1.2-1.1.9.3 1.6 1.3 1.6 2.1m36.5-.9c0 1.8-2 1.5-2.3-.4-.3-1 .1-1.5 1-1.2.7.3 1.3 1 1.3 1.6m-23.5.2c0 .5-.4 1-1 1-.5 0-1-.5-1-1 0-.6.5-1 1-1 .6 0 1 .4 1 1m8.8.8c.2.7-.3 1.2-1.2 1.2s-1.6-.7-1.6-1.6c0-1.7 2.2-1.4 2.8.4m-13.3 1c0 1.8-2 1.5-2.3-.4-.3-1 .1-1.5 1-1.2.7.3 1.3 1 1.3 1.6m22.5-.8c.8.5 1.1 1.2.8 1.6-1 .9-3.8-.3-3.8-1.6 0-1.2 1-1.3 3 0m10 2.4c-1.3 1.3-3.5-.7-2.5-2.4.5-.8 1.1-.8 2.1.1 1 .8 1.2 1.5.4 2.3m-24.2-.5c.3.8-.1 1.2-.9.9-.7-.2-1.5-1-1.7-1.7-.3-.8.1-1.2.9-.9.7.2 1.5 1 1.7 1.7m9.2.7c0 .8-.7 1.4-1.5 1.4s-1.5-.9-1.5-2c0-1.3.5-1.8 1.5-1.4.8.4 1.5 1.2 1.5 2m-22 .5c0 1.1-.4 1.7-1 1.4-.5-.3-1-1.3-1-2.1s.5-1.4 1-1.4c.6 0 1 .9 1 2.1m-4 2c0 .5-.7.6-1.5.3-.8-.4-1.5-1.3-1.5-2.1 0-1.3.3-1.3 1.5-.3.8.7 1.5 1.6 1.5 2.1m12-1.6c0 .8-.4 1.5-1 1.5-.5 0-1-.7-1-1.5s.5-1.5 1-1.5c.6 0 1 .7 1 1.5m23.8.4c.3.8-.1 1.2-.9.9-.7-.2-1.5-1-1.7-1.7-.3-.8.1-1.2.9-.9.7.2 1.5 1 1.7 1.7m10.2.2c0 1.1-2.7 1.2-3.4 0-.3-.4-.3-1.1 0-1.4.8-.8 3.4.3 3.4 1.4m-25-.1c0 .5-.7 1-1.5 1s-1.5-.5-1.5-1c0-.6.7-1 1.5-1s1.5.4 1.5 1m9.8 1.3c.2 1-.3 1.7-1.2 1.7-1.8 0-2.9-1.6-2.1-3.1.9-1.4 2.9-.6 3.3 1.4m-22.8.2c0 .8-.4 1.5-.9 1.5-1.3 0-2.2-1.6-1.4-2.4 1.1-1.1 2.3-.6 2.3.9m8.3-.1c.6 1.6-.2 2.8-1.4 2-1.2-.7-1.1-3.4 0-3.4.5 0 1.1.6 1.4 1.4m24.7.7c0 .5-.7.9-1.5.9s-1.5-.7-1.5-1.5c0-.9.6-1.2 1.5-.9.8.4 1.5 1 1.5 1.5m9 0c0 .5-.7.9-1.5.9-1.5 0-2-1.2-.9-2.3.8-.8 2.4.1 2.4 1.4m-25.1 1.5c.3 1.6.1 1.7-1.3.5-1.9-1.6-2.1-3.4-.3-2.9.6.3 1.4 1.3 1.6 2.4m-21.1.3c.3.8-.1 1.2-.9.9-.7-.2-1.5-1-1.7-1.7-.3-.8.1-1.2.9-.9.7.2 1.5 1 1.7 1.7m31.1-1c.7.5 1.1 1.4.7 1.9-.9 1.5-3.6.4-3.6-1.4 0-1.6.9-1.8 2.9-.5m-35.6.7c.3.3.3 1.2 0 2-.4 1.1-.9 1.2-1.9.3-.8-.6-1.4-1.5-1.4-2 0-1 2.4-1.2 3.3-.3m12.7.9c0 .8-.4 1.5-1 1.5-.5 0-1-.7-1-1.5s.5-1.5 1-1.5c.6 0 1 .7 1 1.5m8 .6c0 1.1-.4 1.7-1 1.4-.5-.3-1-1.3-1-2.1s.5-1.4 1-1.4c.6 0 1 .9 1 2.1m26.3-.9c2.8 1.3 3.9 4.2 1.2 3.2-.8-.4-1.5-1-1.5-1.5s-.3-.8-.7-.8c-1.9.3-3.3-.2-3.3-1.1 0-1.3 1-1.3 4.3.2m-16.3 1.9c0 .5-.7.9-1.5.9s-1.5-.7-1.5-1.5c0-.9.6-1.2 1.5-.9.8.4 1.5 1 1.5 1.5m10 .5c0 1.6-2.6 1.9-3.5.4-.3-.6-.4-1.4 0-2 .8-1.3 3.5-.1 3.5 1.6m-32-.6c0 .5-.7 1-1.5 1s-1.5-.5-1.5-1c0-.6.7-1 1.5-1s1.5.4 1.5 1m7.8 1.4c.3 1.2-.1 1.7-1 1.4-.7-.3-1.5-1.3-1.6-2.2-.3-1.2.1-1.7 1-1.4.7.3 1.5 1.3 1.6 2.2m9.2.7c0 .5-.7.9-1.5.9-.9 0-1.5-.9-1.5-2.1 0-1.8.2-1.9 1.5-.9.8.7 1.5 1.6 1.5 2.1m-21.4-1c.3.6.2 1.5-.2 1.9-1.2 1.2-3.8-.5-3-1.9.9-1.4 2.3-1.4 3.2 0m7.4 2c0 .6-.4.7-1 .4-.5-.3-1-1.1-1-1.6 0-.6.5-.7 1-.4.6.3 1 1.1 1 1.6m23.8-.3c.2.7-.3 1.2-1.2 1.2s-1.6-.7-1.6-1.6c0-1.7 2.2-1.4 2.8.4m9.2.2c0 1.1-.4 2-1 2-.5 0-1-.2-1-.4s-.3-1.1-.6-2c-.4-1.1-.1-1.6 1-1.6.9 0 1.6.8 1.6 2m9.8-.1c.3.8-.1 1.2-.9.9-.7-.2-1.5-1-1.7-1.7-.3-.8.1-1.2.9-.9.7.2 1.5 1 1.7 1.7m-55 1c.3.8-.1 1.2-.9.9-.7-.2-1.5-1-1.7-1.7-.3-.8.1-1.2.9-.9.7.2 1.5 1 1.7 1.7m21-.2c-.4 2.2-2.2 2-2.6-.1-.2-1 .3-1.6 1.3-1.6s1.5.7 1.3 1.7m10.2.9c0 1.6-2.6 1.9-3.5.4-.3-.6-.4-1.4 0-2 .8-1.3 3.5-.1 3.5 1.6m-22.7-1c.9.9-.4 3.5-1.4 2.8-.5-.3-.9-1.2-.9-2 0-1.4 1.2-1.9 2.3-.8m31.6.7c.6.8.8 1.6.5 2-1 .9-3.4-.4-3.4-1.9 0-1.8 1.4-1.8 2.9-.1m9.6.5c0 1.8-2 1.5-2.3-.4-.3-1 .1-1.5 1-1.2.7.3 1.3 1 1.3 1.6m9.3.1c.3.8-.1 1.2-.9.9-.7-.2-1.5-1-1.7-1.7-.3-.8.1-1.2.9-.9.7.2 1.5 1 1.7 1.7m-42.8.1c.8.5 1.2 1.2.9 1.5-.8.8-3.9-.5-3.9-1.6s1.1-1.1 3 .1m-12.2 1.9c.3.8-.1 1.2-.9.9-.7-.2-1.5-1-1.7-1.7-.3-.8.1-1.2.9-.9.7.2 1.5 1 1.7 1.7m8.2.7c0 .8-.4 1.4-1 1.4-.5 0-1-.9-1-2.1 0-1.1.5-1.7 1-1.4.6.3 1 1.3 1 2.1m13-1c0 .9-.5 1.4-1.2 1.2-1.8-.6-2.1-2.8-.4-2.8.9 0 1.6.7 1.6 1.6m9.8.7c.2 1.2-.1 1.5-1.2 1.1-1.9-.7-2.2-3.8-.3-3.2.6.3 1.3 1.2 1.5 2.1m19 .1c.3 1.2-.1 1.7-1 1.4-.7-.3-1.5-1.3-1.6-2.2-.3-1.2.1-1.7 1-1.4.7.3 1.5 1.3 1.6 2.2m-54 .9c.2 1.2-.1 1.5-1.2 1.1-1.9-.7-2.2-3.8-.3-3.2.6.3 1.3 1.2 1.5 2.1m45-1.2c-.2.6-.8 1-1.3 1s-1.1-.4-1.3-1 .4-1.1 1.3-1.1 1.5.5 1.3 1.1m-24 1.8c.3.8-.1 1.2-.9.9-.7-.2-1.5-1-1.7-1.7-.3-.8.1-1.2.9-.9.7.2 1.5 1 1.7 1.7m9 .5c.3 1.2-.1 1.7-1 1.4-.7-.3-1.5-1.3-1.6-2.2-.3-1.2.1-1.7 1-1.4.7.3 1.5 1.3 1.6 2.2m28.2-.9c0 .8-.7 1.5-1.5 1.5-1.6 0-2-1.2-.8-2.3 1.1-1.2 2.3-.8 2.3.8m-50 1.1c0 1.7-2.2 1.4-2.8-.4-.2-.7.3-1.2 1.2-1.2s1.6.7 1.6 1.6m7.8.7c.2 1-.3 1.7-1.2 1.7-1 0-1.6-.9-1.6-2.1 0-2.4 2.3-2.1 2.8.4m24-.5c.3.9-.2 1.3-1.4 1-.9-.1-1.9-.9-2.2-1.6-.3-.9.2-1.3 1.4-1 .9.1 1.9.9 2.2 1.6m9.2-.2c0 .9-.5 1.4-1.2 1.2-1.8-.6-2.1-2.8-.4-2.8.9 0 1.6.7 1.6 1.6m-45.1 2.3c-.3.6-1 .7-1.8.2-.7-.5-1-1.4-.6-2.1.9-1.4 2.9.2 2.4 1.9m21.1-.2c0 2-2.4 1.1-2.8-1-.2-1.2.1-1.5 1.2-1.1.9.3 1.6 1.3 1.6 2.1m37.6-1.6c.3.6.2 1.5-.2 1.9-1.2 1.2-3.8-.5-3-1.9.9-1.4 2.3-1.4 3.2 0m-27.9 1.4c.3.9.3 1.9-.1 2.2-.7.7-3.6-1.6-3.6-2.8 0-1.5 3-1 3.7.6m9.3.6c0 2.4-2.3 2.1-2.8-.4-.2-1 .3-1.7 1.2-1.7 1 0 1.6.9 1.6 2.1m9.1-.6c-.1 1.5-2.4 1.2-2.9-.3-.3-.9.2-1.3 1.2-1 1 .1 1.7.7 1.7 1.3m-41.1 1.6c0 .5-.4.9-1 .9-.5 0-1-.7-1-1.6 0-.8.5-1.2 1-.9.6.3 1 1 1 1.6m8 .5c0 1.6-1.6 1.9-2.5.4-.8-1.3.4-3.2 1.6-2.5.5.4.9 1.3.9 2.1m-12 1c0 .8-.4 1.4-.9 1.4-1.1 0-2.2-2.6-1.4-3.4.9-.9 2.3.3 2.3 2m21.4-1c.4.9.4 1.9.2 2.1-.8.8-2.6-.8-2.6-2.3 0-1.9 1.6-1.8 2.4.2m9.4.8c.3 1.2-.1 1.7-1 1.4-.7-.3-1.5-1.3-1.6-2.2-.3-1.2.1-1.7 1-1.4.7.3 1.5 1.3 1.6 2.2m9.8-1.3c.3.6.1 1.6-.5 2.2-.9.9-1.4.8-2.1-.3-.9-1.5-.4-3 1-3 .5 0 1.2.5 1.6 1.1m8.4.4c0 .8-.4 1.5-1 1.5-.5 0-1-.7-1-1.5s.5-1.5 1-1.5c.6 0 1 .7 1 1.5m-53.2 2.9c.3 1.2-.1 1.7-1 1.4-.7-.3-1.5-1.3-1.6-2.2-.3-1.2.1-1.7 1-1.4.7.3 1.5 1.3 1.6 2.2m12-.5c.3.8-.1 1.2-.9.9-.7-.2-1.5-1-1.7-1.7-.3-.8.1-1.2.9-.9.7.2 1.5 1 1.7 1.7m9 .4c.2 1-.3 1.7-1.2 1.7-1 0-1.6-.9-1.6-2.1 0-2.4 2.3-2.1 2.8.4m28.2.3c0 .8-.7 1.4-1.5 1.4s-1.5-.9-1.5-2c0-1.3.5-1.8 1.5-1.4.8.4 1.5 1.2 1.5 2m8.8-.8c.2.7-.3 1.2-1.2 1.2s-1.6-.7-1.6-1.6c0-1.7 2.2-1.4 2.8.4m-27.8.2c.8.5 1.1 1.2.8 1.6-1 .9-3.8-.3-3.8-1.6 0-1.2 1-1.3 3 0m9.5.8c0 1.8-2 1.5-2.3-.4-.3-1 .1-1.5 1-1.2.7.3 1.3 1 1.3 1.6m-31.5.8c0 .9-.5 1.4-1.2 1.2-1.8-.6-2.1-2.8-.4-2.8.9 0 1.6.7 1.6 1.6m54.8.2c.2.7-.3 1.2-1.2 1.2s-1.6-.7-1.6-1.6c0-1.7 2.2-1.4 2.8.4m-46.8.8c0 .9-.5 1.4-1.2 1.2-1.8-.6-2.1-2.8-.4-2.8.9 0 1.6.7 1.6 1.6m9.5.4c0 2.2-2.9 1.8-3.3-.3-.3-1.4.1-1.8 1.5-1.5 1 .2 1.8 1 1.8 1.8m18.3.4c.3 1.2-.1 1.7-1 1.4-.7-.3-1.5-1.3-1.6-2.2-.3-1.2.1-1.7 1-1.4.7.3 1.5 1.3 1.6 2.2m9.2-.8c0 .9-.5 1.4-1.2 1.2-1.8-.6-2.1-2.8-.4-2.8.9 0 1.6.7 1.6 1.6m-49 1.5c0 1.8-.2 1.9-1.5.9-.8-.7-1.5-1.6-1.5-2.1s.7-.9 1.5-.9c.9 0 1.5.9 1.5 2.1m7.8.3c.3 1.2-.1 1.7-1 1.4-.7-.3-1.5-1.3-1.6-2.2-.3-1.2.1-1.7 1-1.4.7.3 1.5 1.3 1.6 2.2m23.2-.8c0 .9-.5 1.4-1.2 1.2-1.8-.6-2.1-2.8-.4-2.8.9 0 1.6.7 1.6 1.6m-14.2 1.6c-.5 1.5-2.3 1.1-2.6-.6-.2-1.1.2-1.4 1.3-1 .9.4 1.4 1.1 1.3 1.6m9.2 1c0 2.6-2.4 1.8-2.8-1-.3-1.6.1-2 1.2-1.6.9.3 1.6 1.5 1.6 2.6m19-.1c0 1.2-2.7 1.1-3.5-.1-1.1-1.7.5-3.2 2.1-1.9.8.6 1.4 1.5 1.4 2m8.1-1.6c-.1 1.5-2.4 1.2-2.9-.3-.3-.9.2-1.3 1.2-1 1 .1 1.7.7 1.7 1.3m-57.2 2.1c.3 1.6.1 1.7-1.3.5-1.9-1.6-2.1-3.4-.3-2.9.6.3 1.4 1.3 1.6 2.4m8.1.6c0 .5-.7.8-1.5.8-1.5 0-2-2.1-.8-3.3.7-.7 2.3 1.1 2.3 2.5m31-1.1c0 1.1-.4 1.7-1 1.4-.5-.3-1-1.3-1-2.1s.5-1.4 1-1.4c.6 0 1 .9 1 2.1m22.8.2c.2 1-.3 1.7-1.2 1.7-1 0-1.6-.9-1.6-2.1 0-2.4 2.3-2.1 2.8.4m-45.9 1.6c-.3.6-1 .7-1.8.2-.7-.5-1-1.4-.6-2.1.9-1.4 2.9.2 2.4 1.9m9 .7c.3 1.6.1 1.7-1.3.5-1.9-1.6-2.1-3.4-.3-2.9.6.3 1.4 1.3 1.6 2.4m9.9-.2c.3 1.3-.1 1.7-1.4 1.4-1.1-.2-2-1.1-2.2-2.2-.3-1.3.1-1.7 1.4-1.4 1.1.2 2 1.1 2.2 2.2m8.6.7c-.8 1.3-2.4.1-2.4-1.8 0-1.3.3-1.3 1.5-.3.8.7 1.2 1.6.9 2.1m8.6-1.6c0 .8-.4 1.5-1 1.5-.5 0-1-.7-1-1.5s.5-1.5 1-1.5c.6 0 1 .7 1 1.5m14 1.1c0 1.6-1.6 1.9-2.5.4-.8-1.3.4-3.2 1.6-2.5.5.4.9 1.3.9 2.1m-62.2.8c.3 1.2-.1 1.7-1 1.4-.7-.3-1.5-1.3-1.6-2.2-.3-1.2.1-1.7 1-1.4.7.3 1.5 1.3 1.6 2.2m8.2.1c0 .8-.7 1.5-1.5 1.5s-1.5-.7-1.5-1.5.7-1.5 1.5-1.5 1.5.7 1.5 1.5m8.8.9c.3 1.2-.1 1.7-1 1.4-.7-.3-1.5-1.3-1.6-2.2-.3-1.2.1-1.7 1-1.4.7.3 1.5 1.3 1.6 2.2m27.2.3c0 2-2.4 1.1-2.8-1-.2-1.2.1-1.5 1.2-1.1.9.3 1.6 1.3 1.6 2.1m9-1.1c0 .9-.5 1.4-1.2 1.2-1.8-.6-2.1-2.8-.4-2.8.9 0 1.6.7 1.6 1.6m-27.2 1.2c.2.7-.3 1.2-1.2 1.2s-1.6-.7-1.6-1.6c0-1.7 2.2-1.4 2.8.4m9.2.3c0 2.4-2.3 2.1-2.8-.4-.2-1 .3-1.7 1.2-1.7 1 0 1.6.9 1.6 2.1m22.7.2c-.6 2-2.7 1.9-2.7-.2 0-1.4.5-1.9 1.5-1.4.9.3 1.4 1 1.2 1.6m-53.9 1.1c.3 1.2-.1 1.7-1 1.4-.7-.3-1.5-1.3-1.6-2.2-.3-1.2.1-1.7 1-1.4.7.3 1.5 1.3 1.6 2.2m8 0c.3 1.2-.1 1.7-1 1.4-.7-.3-1.5-1.3-1.6-2.2-.3-1.2.1-1.7 1-1.4.7.3 1.5 1.3 1.6 2.2m36.2.2c0 1.6-1.6 1.9-2.5.4-.8-1.3.4-3.2 1.6-2.5.5.4.9 1.3.9 2.1m-27.2.7c.2 1.2-.1 1.5-1.2 1.1-1.9-.7-2.2-3.8-.3-3.2.6.3 1.3 1.2 1.5 2.1m18.2.3c0 1.6-1.6 1.9-2.5.4-.8-1.3.4-3.2 1.6-2.5.5.4.9 1.3.9 2.1m22-.5c0 1.1-.4 1.7-1 1.4-.5-.3-1-1.3-1-2.1s.5-1.4 1-1.4c.6 0 1 .9 1 2.1m-30.2.7c.3.9-.2 1.3-1.4 1-.9-.1-1.9-.9-2.2-1.6-.3-.9.2-1.3 1.4-1 .9.1 1.9.9 2.2 1.6m22.2.2c0 1.4-1.5 1.9-2.9 1-1.7-1-.5-3.1 1.4-2.3.8.3 1.5.9 1.5 1.3m-53 .6c0 1.7-2.2 1.4-2.8-.4-.2-.7.3-1.2 1.2-1.2s1.6.7 1.6 1.6m7.8.8c.3 1.2-.1 1.7-1 1.4-.7-.3-1.5-1.3-1.6-2.2-.3-1.2.1-1.7 1-1.4.7.3 1.5 1.3 1.6 2.2m9.2.3c0 2-2.4 1.1-2.8-1-.2-1.2.1-1.5 1.2-1.1.9.3 1.6 1.3 1.6 2.1m26.7-.4c-.6 2-2.7 1.9-2.7-.2 0-1.4.5-1.9 1.5-1.4.9.3 1.4 1 1.2 1.6m22.1-.5c.2.7-.3 1.2-1.2 1.2s-1.6-.7-1.6-1.6c0-1.7 2.2-1.4 2.8.4m-40 1c.2.7-.3 1.2-1.2 1.2s-1.6-.7-1.6-1.6c0-1.7 2.2-1.4 2.8.4m9 0c.2.7-.3 1.2-1.2 1.2s-1.6-.7-1.6-1.6c0-1.7 2.2-1.4 2.8.4m22.2.3c0 .5-.7.9-1.5.9-1.5 0-2-1.2-.9-2.3.8-.8 2.4.1 2.4 1.4m-9.2 1.2c.2 1-.3 1.7-1.2 1.7-1 0-1.6-.9-1.6-2.1 0-2.4 2.3-2.1 2.8.4m-43.8.8c0 1.1-.4 1.7-1 1.4-.5-.3-1-1.3-1-2.1s.5-1.4 1-1.4c.6 0 1 .9 1 2.1m8 0c0 2.4-2.3 2.1-2.8-.4-.2-1 .3-1.7 1.2-1.7 1 0 1.6.9 1.6 2.1m9 0c0 2.4-2.3 2.1-2.8-.4-.2-1 .3-1.7 1.2-1.7 1 0 1.6.9 1.6 2.1m9-.6c.7.9 1 1.8.7 2.1-1 1.1-3.7-.5-3.7-2.1 0-1.9 1.4-1.9 3 0m9 1.1c0 1.6-1.6 1.9-2.5.4-.8-1.3.4-3.2 1.6-2.5.5.4.9 1.3.9 2.1m22-1c0 .9-.5 1.4-1.2 1.2-1.8-.6-2.1-2.8-.4-2.8.9 0 1.6.7 1.6 1.6m-9.2 1.8c.3 1.2-.1 1.7-1 1.4-.7-.3-1.5-1.3-1.6-2.2-.3-1.2.1-1.7 1-1.4.7.3 1.5 1.3 1.6 2.2m-44 1c.3 1.2-.1 1.7-1 1.4-.7-.3-1.5-1.3-1.6-2.2-.3-1.2.1-1.7 1-1.4.7.3 1.5 1.3 1.6 2.2m9.2 1.3c0 2.4-2.5.9-2.8-1.7-.3-2.1-.2-2.2 1.2-1.1.9.7 1.6 2 1.6 2.8m26-1.1c0 1.6-1.6 1.9-2.5.4-.8-1.3.4-3.2 1.6-2.5.5.4.9 1.3.9 2.1m23-1.1c0 .8-.7 1.5-1.5 1.5s-1.5-.7-1.5-1.5.7-1.5 1.5-1.5 1.5.7 1.5 1.5m-40.2 1.3c.2.7-.3 1.2-1.2 1.2s-1.6-.7-1.6-1.6c0-1.7 2.2-1.4 2.8.4m9 0c.2.7-.3 1.2-1.2 1.2s-1.6-.7-1.6-1.6c0-1.7 2.2-1.4 2.8.4m21.7-.8c.3.5.4 1.4 0 2-.8 1.3-3.5.1-3.5-1.6 0-1.6 2.6-1.9 3.5-.4m-44.5 4.3c0 2-.1 2-1.6.5-.9-.9-1.3-2.1-.9-2.7 1-1.6 2.5-.3 2.5 2.2m9-.2c0 1-.4 1.9-.9 1.9-1.2 0-2.3-2.9-1.5-4.1.8-1.4 2.4 0 2.4 2.2m9.4.9c-1.4 1.4-3.9-1.4-2.9-3.1.5-.8 1.2-.6 2.3.5s1.3 1.9.6 2.6m8.1-2.2c0 1.8-2 1.5-2.3-.4-.3-1 .1-1.5 1-1.2.7.3 1.3 1 1.3 1.6m8.5-.3c0 .8-.4 1.5-1 1.5-.5 0-1-.7-1-1.5s.5-1.5 1-1.5c.6 0 1 .7 1 1.5m13.8.3c.2.7-.3 1.2-1.2 1.2s-1.6-.7-1.6-1.6c0-1.7 2.2-1.4 2.8.4m-9 1.5c.2 1-.3 1.7-1.2 1.7-1 0-1.6-.9-1.6-2.1 0-2.4 2.3-2.1 2.8.4m13.2.3c0 .8-.7 1.4-1.5 1.4-1.5 0-2.1-2.1-.9-3.3 1-.9 2.4.2 2.4 1.9m-22 1c0 1.6-1.6 1.9-2.5.4-.8-1.3.4-3.2 1.6-2.5.5.4.9 1.3.9 2.1m-34.6 0c.9 2.2.8 2.4-.9 2.4-.8 0-1.5-.9-1.5-2 0-2.4 1.5-2.7 2.4-.4m8.4.7c.2 1-.3 1.7-1.2 1.7-1 0-1.6-.9-1.6-2.1 0-2.4 2.3-2.1 2.8.4m9 0c.2 1-.3 1.7-1.2 1.7-1 0-1.6-.9-1.6-2.1 0-2.4 2.3-2.1 2.8.4m9 .1c.3 1.2-.1 1.7-1 1.4-.7-.3-1.5-1.3-1.6-2.2-.3-1.2.1-1.7 1-1.4.7.3 1.5 1.3 1.6 2.2m21.2.2c0 1.6-1.6 1.9-2.5.4-.8-1.3.4-3.2 1.6-2.5.5.4.9 1.3.9 2.1m13.8-.3c.2 1-.3 1.7-1.2 1.7-1 0-1.6-.9-1.6-2.1 0-2.4 2.3-2.1 2.8.4m-31 2.1c.3 1.2-.1 1.7-1 1.4-.7-.3-1.5-1.3-1.6-2.2-.3-1.2.1-1.7 1-1.4.7.3 1.5 1.3 1.6 2.2m8.2-.9c0 .8-.4 1.5-1 1.5-.5 0-1-.7-1-1.5s.5-1.5 1-1.5c.6 0 1 .7 1 1.5m13 .1c0 .9-.5 1.4-1.2 1.2-1.8-.6-2.1-2.8-.4-2.8.9 0 1.6.7 1.6 1.6m-47.2 1.8c.3 1.2-.1 1.7-1 1.4-.7-.3-1.5-1.3-1.6-2.2-.3-1.2.1-1.7 1-1.4.7.3 1.5 1.3 1.6 2.2m8.2.2c0 .8-.4 1.4-.9 1.4-1.1 0-2.2-2.6-1.4-3.4.9-.9 2.3.3 2.3 2m9.8.2c.4 2.4-.7 2.9-2.6 1-1.8-1.8-1.5-4 .6-3.6.9.2 1.8 1.3 2 2.6m21-.5c.2 1-.3 1.7-1.2 1.7-1 0-1.6-.9-1.6-2.1 0-2.4 2.3-2.1 2.8.4m-8.8 1.3c0 1.6-1.6 1.9-2.5.4-.8-1.3.4-3.2 1.6-2.5.5.4.9 1.3.9 2.1m22-1.1c0 .8-.7 1.5-1.5 1.5s-1.5-.7-1.5-1.5.7-1.5 1.5-1.5 1.5.7 1.5 1.5m-9.2 1.9c.3 1.2-.1 1.7-1 1.4-.7-.3-1.5-1.3-1.6-2.2-.3-1.2.1-1.7 1-1.4.7.3 1.5 1.3 1.6 2.2m-38.8.7c0 2.4-2.3 2.1-2.8-.4-.2-1 .3-1.7 1.2-1.7 1 0 1.6.9 1.6 2.1m8.8.2c.2 1-.3 1.7-1.2 1.7-1 0-1.6-.9-1.6-2.1 0-2.4 2.3-2.1 2.8.4m9.2-.2c0 2.4-2.3 2.1-2.8-.4-.2-1 .3-1.7 1.2-1.7 1 0 1.6.9 1.6 2.1m34.2-.6c0 .5-.5 1.1-1.1 1.3s-1.1-.4-1.1-1.3.5-1.5 1.1-1.3 1.1.8 1.1 1.3m-22.2 1c0 .8-.4 1.5-1 1.5-.5 0-1-.7-1-1.5s.5-1.5 1-1.5c.6 0 1 .7 1 1.5m13 .5c0 1.3-.5 1.8-1.5 1.4-.8-.4-1.5-1.2-1.5-2s.7-1.4 1.5-1.4 1.5.9 1.5 2m-38 2.6c0 .8-.7 1.4-1.5 1.4-1 0-1.5-1-1.5-2.6 0-2.2.2-2.5 1.5-1.4.8.7 1.5 1.9 1.5 2.6m17-1.6c0 1.1-.4 2-.9 2-1.4 0-2.3-1.8-1.6-3 1-1.7 2.5-1.1 2.5 1m13 1.1c0 .5-.7.9-1.5.9-.9 0-1.5-.9-1.5-2.1 0-1.8.2-1.9 1.5-.9.8.7 1.5 1.6 1.5 2.1m-39 0c0 .5-.4.9-1 .9-.5 0-1-.7-1-1.6 0-.8.5-1.2 1-.9.6.3 1 1 1 1.6m17.8.2c.4 1.9-.6 2.1-2.7.8-1.6-1-.5-3.4 1.2-2.8.7.2 1.3 1.1 1.5 2m34.2-.8c0 .8-.7 1.5-1.5 1.5s-1.5-.7-1.5-1.5.7-1.5 1.5-1.5 1.5.7 1.5 1.5m-22 2.2c0 2.5-.1 2.6-1.6 1.1-.9-.9-1.3-2.1-1-2.7 1.3-2 2.6-1.1 2.6 1.6m12.5-.7c0 .7-.6 1.5-1.2 1.7-.8.3-1.3-.4-1.3-1.7s.5-2 1.3-1.8c.6.3 1.2 1.1 1.2 1.8m13.9-.4c.8 2.2.8 2.4-.8 2.4-1.8 0-2.9-1.6-2.1-3 .9-1.5 2.2-1.2 2.9.6m-52.4 1.9c0 .8-.4 1.5-1 1.5-.5 0-1-.7-1-1.5s.5-1.5 1-1.5c.6 0 1 .7 1 1.5m9.8.9c.3 1.3-.1 1.7-1.4 1.4-1.1-.2-2-1.1-2.2-2.2-.3-1.3.1-1.7 1.4-1.4 1.1.2 2 1.1 2.2 2.2m8.2-.3c0 1.8-.2 1.9-1.5.9-1.5-1.2-1.2-3 .6-3 .5 0 .9 1 .9 2.1m12 .5c0 1.4-.4 2.3-1 1.9-.5-.3-1-1.5-1-2.6 0-1 .5-1.9 1-1.9.6 0 1 1.2 1 2.6m12.8-.2c.3 1.2-.1 1.7-1 1.4-.7-.3-1.5-1.3-1.6-2.2-.3-1.2.1-1.7 1-1.4.7.3 1.5 1.3 1.6 2.2m-28.8 2.8c0 2.6-2.4 1.8-2.8-1-.3-1.6.1-2 1.2-1.6.9.3 1.6 1.5 1.6 2.6m8-1.2c0 1.1-.4 2-1 2-.5 0-1-.9-1-2s.5-2 1-2c.6 0 1 .9 1 2m12.3-1.4c.8.8-.3 3.4-1.4 3.4-.5 0-.9-.9-.9-2 0-1.9 1.1-2.6 2.3-1.4m13.2 1.2c0 1.8-2 1.5-2.3-.4-.3-1 .1-1.5 1-1.2.7.3 1.3 1 1.3 1.6m-42.7 1.1c.3.8-.1 1.2-.9.9-.7-.2-1.5-1-1.7-1.7-.3-.8.1-1.2.9-.9.7.2 1.5 1 1.7 1.7m22 1.4c.2 1-.3 1.7-1.2 1.7-1 0-1.6-.9-1.6-2.1 0-2.4 2.3-2.1 2.8.4m11.2-.3c0 1.1-.4 2-1 2-.5 0-1-.9-1-2s.5-2 1-2c.6 0 1 .9 1 2m14-.4c0 1.7-2.2 1.4-2.8-.4-.2-.7.3-1.2 1.2-1.2s1.6.7 1.6 1.6m-34 2c0 .8-.4 1.4-1 1.4-.5 0-1-.9-1-2.1 0-1.1.5-1.7 1-1.4.6.3 1 1.3 1 2.1m-8.2.2c.3.9-.2 1.3-1.4 1-.9-.1-1.9-.9-2.2-1.6-.3-.9.2-1.3 1.4-1 .9.1 1.9.9 2.2 1.6m21 .5c.2 1-.3 1.7-1.2 1.7-1 0-1.6-.9-1.6-2.1 0-2.4 2.3-2.1 2.8.4m12.2-.3c0 1.1-.7 2-1.5 2s-1.5-.9-1.5-2 .7-2 1.5-2 1.5.9 1.5 2m-21 1.6c0 .8-.4 1.4-1 1.4-.5 0-1-.9-1-2.1 0-1.1.5-1.7 1-1.4.6.3 1 1.3 1 2.1m25.6.1c-.3.8-.6 1.7-.6 1.9s-.4.4-1 .4c-.5 0-1-1.1-1-2.5 0-1.8.4-2.3 1.6-1.8.8.3 1.3 1.2 1 2m-41.8.6c.2 1-.3 1.7-1.2 1.7-1 0-1.6-.9-1.6-2.1 0-2.4 2.3-2.1 2.8.4m8 .1c.3 1.2-.1 1.7-1 1.4-.7-.3-1.5-1.3-1.6-2.2-.3-1.2.1-1.7 1-1.4.7.3 1.5 1.3 1.6 2.2m21 0c.3 1.2-.1 1.7-1 1.4-.7-.3-1.5-1.3-1.6-2.2-.3-1.2.1-1.7 1-1.4.7.3 1.5 1.3 1.6 2.2m-7.8 1.8c0 2.6-2.4 1.8-2.8-1-.3-1.6.1-2 1.2-1.6.9.3 1.6 1.5 1.6 2.6m-17 .9c0 2.3-1.6 2.5-2.4.3-1-2.5-.7-3.4.9-2.8.8.4 1.5 1.5 1.5 2.5m28.5-1.3c0 1.8-2 1.5-2.3-.4-.3-1 .1-1.5 1-1.2.7.3 1.3 1 1.3 1.6m-20.5.7c0 .8-.4 1.5-1 1.5-.5 0-1-.7-1-1.5s.5-1.5 1-1.5c.6 0 1 .7 1 1.5m13 1.6c0 1.8-.2 1.9-1.5.9-.8-.7-1.5-1.6-1.5-2.1s.7-.9 1.5-.9c.9 0 1.5.9 1.5 2.1m12-.6c0 .8-.7 1.5-1.5 1.5s-1.5-.7-1.5-1.5.7-1.5 1.5-1.5 1.5.7 1.5 1.5m-20.2 1.3c.2.7-.3 1.2-1.2 1.2s-1.6-.7-1.6-1.6c0-1.7 2.2-1.4 2.8.4m-7.8 1.3c0 2.4-2.3 2.1-2.8-.4-.2-1 .3-1.7 1.2-1.7 1 0 1.6.9 1.6 2.1m20-.5c0 .9-.5 1.4-1.2 1.2-1.8-.6-2.1-2.8-.4-2.8.9 0 1.6.7 1.6 1.6m-8 .9c.7.9 1 1.8.7 2.1-1 1.1-3.7-.5-3.7-2.1 0-1.9 1.4-1.9 3 0m12 1.1c0 1.6-1.6 1.9-2.5.4-.8-1.3.4-3.2 1.6-2.5.5.4.9 1.3.9 2.1m-20 1c0 .8-.4 1.4-1 1.4-.5 0-1-.9-1-2.1 0-1.1.5-1.7 1-1.4.6.3 1 1.3 1 2.1m-8.2.2c.2.7-.3 1.2-1.2 1.2s-1.6-.7-1.6-1.6c0-1.7 2.2-1.4 2.8.4m12.2 1.8c0 .8-.4 1.4-1 1.4-.5 0-1-.9-1-2.1 0-1.1.5-1.7 1-1.4.6.3 1 1.3 1 2.1m8-1c0 .8-.4 1.2-1 .9-.5-.3-1-1-1-1.6 0-.5.5-.9 1-.9.6 0 1 .7 1 1.6m-15 2c0 .8-.4 1.4-.9 1.4-1.2 0-3.2-2.6-2.5-3.3 1-.9 3.4.4 3.4 1.9m19-.5c0 .5-.4.9-1 .9-.5 0-1-.7-1-1.6 0-.8.5-1.2 1-.9.6.3 1 1 1 1.6m-7 1.5c0 1.6-2.6 1.9-3.5.4-.3-.6-.4-1.4 0-2 .8-1.3 3.5-.1 3.5 1.6m-8.2 1.3c.3.8-.1 1.2-.9.9-.7-.2-1.5-1-1.7-1.7-.3-.8.1-1.2.9-.9.7.2 1.5 1 1.7 1.7M148 673.9v11.9l7.3.4c3.9.3 23.9.5 44.2.4l37-.1v-24l-44.2-.3-44.3-.2zm85.5.3c0 5.4-.3 9.8-.7 9.8H151v-9.3c0-5.2.3-9.7.7-10 .4-.4 18.9-.6 41.2-.5l40.6.3z"/><path d="M158.2 666.2c-.6.6-1.2 2.7-1.2 4.5 0 2.9.3 3.3 2.5 3.3 2 0 2.5.5 2.5 2.3 0 3.1-1 4-2.7 2.5-1.7-1.4-2.5-.6-1.7 1.6 1 2.6 4 1.9 5.4-1.4 1.5-3.5.7-6-2-6.7s-2.7-4.3.1-4.3c1.2 0 1.9-.5 1.7-1.3-.6-1.7-3.1-2-4.6-.5M169.8 673.6c-.2 5.6.1 7.8 1 8.2.7.2 1.4.3 1.5.1.6-1.1-.6-15.9-1.3-15.9-.5 0-1 3.4-1.2 7.6M189.9 668.7c-1 2.6-.6 10.4.7 12.4 2 3.3 5.4-1.7 5.4-7.9-.1-6.6-4.1-9.5-6.1-4.5m3.9 4.8c-.4 6.6-2.2 7.8-2.6 1.6-.4-4.9.2-7.1 1.8-7.1.7 0 1 2 .8 5.5M200.7 667.5c-.4.8-.2 1.7.3 2 .6.4 1 .1 1-.4 0-.6.5-1.1 1-1.1.6 0 1 .9 1 2s-.4 2-1 2c-1.5 0-1.2 2.1.6 3.4.9.7 1.2 1.8.8 2.9-.8 2.1-2.4 2.2-2.4.2 0-.8-.4-1.5-1-1.5-1.5 0-1.2 2.6.4 3.9 3.1 2.6 6-1.2 4.4-5.7-.4-1.3-.5-2.8-.2-3.3.3-.6.3-2.1 0-3.5-.7-2.7-4-3.3-4.9-.9M210.8 668.5c-1.3 3 .3 7.5 2.7 7.5.8 0 1.5.9 1.5 2 0 2.2-1.6 2.7-2.3.7-.2-.6-.8-.9-1.2-.5-1.3 1.2.3 3.8 2.4 3.8 1.1 0 2.1-.9 2.5-2.3.8-2.9.8-10.1 0-12.1-.9-2.5-4.3-1.9-5.6.9m4.2 2.6c0 3.8-2.4 3.5-2.8-.4-.2-1.9.1-2.7 1.2-2.7s1.6 1 1.6 3.1M178.5 674c-.4.6.8 1 3 1s3.4-.4 3-1c-.3-.6-1.7-1-3-1s-2.7.4-3 1M189.9 689.6c-.1.5 0 12.8.1 27.3.2 26.4.2 26.4-2.1 25.8-2.7-.7-7.8 2-8.1 4.3-.5 5.1 2.8 10 6.7 10 2.5 0 6.5-2.7 6.5-4.4 0-.7 2.2-2.7 4.9-4.4 6.3-3.9 7.7-6.3 5.3-9.1-1.7-2.1-1.7-2.1-6.4.3-2.5 1.4-4.9 2.2-5.2 1.9-.2-.3-.5-12-.6-26.1 0-14.1-.3-25.8-.5-26.1-.3-.2-.6 0-.6.5m13.1 51.5c0 .6-.4.7-1 .4-.5-.3-1-1.1-1-1.6 0-.6.5-.7 1-.4.6.3 1 1.1 1 1.6m-2.1 2.5c.3 1.6.1 1.7-1.3.5-1.9-1.6-2.1-3.4-.3-2.9.6.3 1.4 1.3 1.6 2.4m-2.9 1.2c0 1.5-.2 1.5-1 .2-1.3-2-1.3-3.3 0-2.5.6.3 1 1.4 1 2.3m-8.6.8c2.3 2.2 3 6.2 1.6 7.9-.7.8-2.7 1.5-4.4 1.5q-3.15 0-1.8-.9c1.1-.7 1.1-.9-.2-1.4-.9-.4-1.6-1.4-1.6-2.4 0-1.4-.2-1.5-.9-.4-.6 1-1 1-1.6.1-.9-1.5 3.3-6 5.6-6 1 0 2.5.7 3.3 1.6m6.6.5c0 .5-.4.9-1 .9-.5 0-1-.7-1-1.6 0-.8.5-1.2 1-.9.6.3 1 1 1 1.6m-2.6.5c1 2.5-.1 2.9-1.4.5-.6-1.2-.7-2.1-.1-2.1.5 0 1.2.7 1.5 1.6"/><path d="M185.6 747.4c.3.9 1 1.6 1.5 1.6s.9.9.9 2 .5 2 1 2c1.4 0-1.2-6.2-2.8-6.8-.7-.2-1 .2-.6 1.2M595 696c-2.1 1.3-1 1.8 2.7 1.3 1.8-.3 3-.9 2.7-1.4-.7-1.2-3.5-1.1-5.4.1M713.1 704.1c-2.9 1.3-5.5 1.7-7.6 1.3-2.7-.5-3.6-.2-4.9 1.7-1.7 2.5-2.2 10.9-.6 10.9.6 0 1-2 1-4.5s.5-4.5 1-4.5c.6 0 2.6 1 4.5 2.2 3.3 2.2 3.5 2.6 3.5 8.1 0 5.8 0 5.8-3.1 4.2-1.7-.9-3.5-1.5-4.1-1.3-.5.2.6 1.2 2.6 2.3 3.6 2 3.6 2 3.8 12.5.1 5.8.2 13.4.4 17 .1 3.6.2 9.3.3 12.7 0 3.5.4 6.3.9 6.3.4 0 .6-10.5.4-23.4-.3-22.4-.2-23.5 1.6-24.5 1.1-.6 2.3-2.2 2.6-3.6.4-1.4 2.3-3.6 4.6-5 3.4-2.1 4-3.1 4-5.8 0-2.2-.8-4.1-2.2-5.4-3.6-3.2-4.1-3.3-8.7-1.2m7.6 2.1c1.4 1.8 2.2 5.4 1.4 6.5-.3.4-1.8 1.6-3.3 2.6-2.7 1.7-2.8 1.7-2.8-.1 0-.9-.7-2.7-1.5-3.9-1.4-2-1.3-2.3 1.3-4.2 3.2-2.4 3.6-2.5 4.9-.9m-11.7 2.9c1.9 1.2 3.8 2.7 4.2 3.3 1.1 1.7.9 10.6-.2 10.6-.5 0-1-2.2-1-5 0-4.7-.2-5.1-4-7.6-2.2-1.5-4-2.8-4-3 0-.9 1.7-.3 5 1.7M613.4 704.5c2.1 1.6 3.2 1.3 2.1-.4-.3-.6-1.4-1.1-2.3-1.1-1.5.1-1.5.2.2 1.5M251.5 706.2c-6.4 2.2-7.5 2.8-7.5 4.2 0 .8.5 1.8 1 2.1.6.3 1-.3 1-1.4 0-1.2.6-2.1 1.4-2.1s2.1-.3 3-.6c2.5-.9 1.9 1.2-.6 2.4-1.5.7-1.8 1.1-.7 1.1.8.1 2-.4 2.6-1 1.3-1.3 4.3-.5 4.3 1.1 0 .5-.9 1-1.9 1-1.1 0-2.3.5-2.6 1.1-.5.7.3.9 2.1.7 3.3-.3 4.2-2.8 2-5.1-1.4-1.4-1.2-2.7.6-2.7.7 0 4.1 7.1 3.6 7.5-.9.5-8.8 2.5-10.2 2.5-1.3 0-1.6-.5-1.1-2 .6-1.9.4-1.9-1.9-.9-2.8 1.3-3.3 2.5-1.4 3.1 2.1.7-.1 2.6-7.7 6.8-12.4 6.8-17.9 15-20.6 30.6-2.5 14.3.7 37.5 7.4 54.4 4 10.2 15.6 30.5 20 35.2.6.7 3.9 4.4 7.1 8.1 10.1 11.7 27.4 24.1 39.6 28.3l5.5 2 .3 35.9c.2 19.8.5 36.4.7 37 .2.5.4-15.5.4-35.7l.1-36.8 5.8.6c8.2.9 15.3-.9 25.1-6.4 10.4-5.8 17.5-12.1 20.5-18.1s3.8-9.1 4.5-18.1c.5-6.8.8-7.5 2.6-7.1 6.1 1.2 6 1.3 5.6-7.9-.2-4.7-.7-9.3-1.2-10.2-.5-1-2.7-2.2-5-2.8-2.2-.6-4.2-1.6-4.3-2.3-9.7-33.7-28.1-62.6-51.1-80.5-8.6-6.6-24.4-13.5-34.3-14.9-3.5-.5-4.5-1.1-5.3-3.2-2.7-7.3-3.5-7.9-9.4-5.9m19 11.8c14.9 3.8 22.9 8.1 35.4 18.9 11.2 9.6 26.3 29.5 32.8 43.1 4.6 9.5 7.4 16.7 9.3 23.5.5 1.6 1.6 5.7 2.6 9 1.3 4.5 1.8 9.8 1.8 21.5.1 15.5.1 15.5-3.2 22.2-3.7 7.6-8.4 12.2-19 18.5-10.7 6.4-15.7 7.7-26.4 7-8.2-.5-9.9-1-19.2-5.6-26-12.9-46.3-36.1-59.1-67.7-5.4-13.5-7.5-25-7.5-41.4 0-11.5.4-15.2 2-20.1 3.8-11.3 9-17.2 18.8-21.6 7-3.1 19.1-3.2 28.6-.3 5.8 1.8 17.2 7.3 18.6 8.9.3.3 2.3 1.9 4.6 3.4 5.5 3.7 17.9 16.6 24.2 25.2 2.8 3.8 5.5 7.5 5.9 8 1.9 2.6 4.7 7.6 8.9 16 10.5 21 15.7 44.7 13.5 62-.7 4.9-2.1 10.9-3.3 13.3-1.1 2.4-1.8 4.6-1.4 4.9.3.3 1-.5 1.5-1.8s1.7-4.4 2.7-6.9c1.6-3.7 1.9-7.1 1.8-19.5 0-13.8-.3-15.8-3.2-25.7-5-17-11.1-30-21.1-45.3-1.4-2.2-2.8-4.2-3.1-4.5s-1.8-2.3-3.4-4.4c-4.6-6.1-19.6-20.9-24.6-24.3-12.9-8.7-25.2-13.3-35.7-13.3-7 0-7.5-.8-1.5-2.6 4.7-1.5 13.6-1.7 18.7-.4m86.8 98.2c2 1.5 3.8 11.6 1.9 10.4-.7-.4-1.2-2.1-1.2-3.7 0-2.6-.3-3-2.2-2.7-1.9.2-2.4-.2-2.6-2.5-.4-3 1.3-3.6 4.1-1.5m-2.6 8c-.3.8-.6.5-.6-.6-.1-1.1.2-1.7.5-1.3.3.3.4 1.2.1 1.9m2.5 4.6c-2 .6-1.3 2.5.8 1.9 1.3-.3 2 0 2 .9 0 1.7-.2 1.7-3.5.2-2.5-1.1-3.4-2.8-1.5-2.8.6 0 1-1.2 1.1-2.8 0-2.7 0-2.7 1.2-.3.9 1.9.9 2.5-.1 2.9"/><path d="M244 726.2c-7.8 3.3-11.6 5.6-14.5 9.1-4.3 5-7.3 11.4-8 16.9-.5 4.2-.5 4.1 1.3-1.4 2.7-7.9 6.6-14.3 10.5-16.9 3.2-2.2 3.2-2.2.6.7-7.6 8.4-10.2 17-10.3 33.4 0 7 .5 14.7 1.3 17.5.7 2.7 1.7 6.8 2.3 9 10.3 39.9 43.3 76.2 74.2 81.5 7.9 1.4 8.8 2.3 1.4 1.4-15.7-1.8-29.8-9.4-43.8-23.4-21.9-21.8-34.3-47.4-37.5-77.5-1.3-12-1.3-12-1.4-4-.3 24.4 14.4 58 34.7 79 13.7 14.3 23.4 20.8 37.4 25.3 10.1 3.3 19.3 3 27.3-.8 11.5-5.5 17.4-14.9 19.4-30.7 1.6-12.7 0-23.3-6.1-41.8-10.2-31.1-33.8-60.5-58.3-72.7-10.7-5.4-23.9-7.4-30.5-4.6m23.5 3.3c14.7 5.5 27.3 15.2 40.1 31 23.6 29 35.6 70 27.9 95.2-2.2 7.2-8.4 14.9-13.2 16.2-5.7 1.6-12.1 1.3-20.1-.9-6.8-1.9-19-7.3-20.2-8.9-.3-.4-2.5-2.1-5-3.8-5.8-4-18.3-17-24.2-25.3-9.7-13.7-18-32.5-21.4-48.4-1.9-8.8-2.1-30.4-.4-37.7 1.6-6.8 4.9-12.7 9.5-16.8 3.4-2.9 4-3.1 12-3.1 6.5 0 9.9.6 15 2.5m-38.2 18.7c-1.1 4.6-1.4 9.9-1 19.3.9 22.4 7.9 42.9 22 64 6.9 10.3 23.1 26.9 30.3 31.1 2.7 1.5 5.1 3.1 5.4 3.4 1.3 1.5 11.9 5.9 18.5 7.6 5 1.2 5 1.2.9 1.3-4.3.1-15.2-3.2-21.9-6.7-20-10.1-39.8-33.8-50.9-60.7-6.2-14.9-9-37.4-6.7-52.3 1-6.3 3.3-13.2 4.5-13.2.2 0-.3 2.8-1.1 6.2M620.7 707.8c-.3.4.3 1.3 1.4 2 1 .7 1.9.8 1.9.3 0-1.3-2.8-3.3-3.3-2.3M565.3 711.7c-2.1.8-1.5 2.2.7 1.6 1.1-.3 2-.9 2-1.4 0-1-.8-1-2.7-.2M629 713.5c.7.8 2 1.5 2.9 1.5 1.3-.1 1.3-.3-.3-1.5-2.6-1.9-4.2-1.9-2.6 0M702.4 713.4c-.6 1.5 3 7.6 4.6 7.6s2-3.2.7-5.8c-1.4-3.1-4.4-4.1-5.3-1.8m4.1 1.7c1.1 1.7-.1 2.1-1.5.4-.8-.9-.8-1.5-.2-1.5s1.4.5 1.7 1.1M557.2 716.2c-1.5 1.5-1.6 4.5-.2 5.3.6.4 1-.5 1-1.9s.5-2.6 1-2.6c.6 0 1-.5 1-1 0-1.4-1.3-1.3-2.8.2M239 718.5c-1.6 1.9 0 1.9 2.6 0 1.6-1.2 1.6-1.4.3-1.5-.9 0-2.2.7-2.9 1.5M639.3 719.7c.9.9 2 1.3 2.4.9s.1-1.1-.7-1.6c-2.5-1.6-3.5-1.1-1.7.7M698.8 720.1c-2.8 1.6-2.1 3 .7 1.7 1.4-.6 2.5-1.5 2.5-2 0-1.1-1.1-1-3.2.3M230.3 723.2c-1.3.6-2.3 1.5-2.3 2 0 1.4 1.6.9 4.1-1.2 2.6-2.1 1.7-2.5-1.8-.8M561.4 724.5c1.1.8 2.5 1.5 3 1.5.6 0 .2-.7-.8-1.5-1.1-.8-2.5-1.5-3-1.5-.6 0-.2.7.8 1.5M648 725c2.6 2 4 2.5 4 1.4s-3.4-3.3-5-3.3c-1-.1-.6.6 1 1.9M688 726.5c-1.6 1.9 0 1.9 2.6 0 1.6-1.2 1.6-1.4.3-1.5-.9 0-2.2.7-2.9 1.5M220.6 728.5c-1.1.8-1.7 1.7-1.4 2.1.7.6 4.8-1.7 4.8-2.8 0-1.2-1.3-.9-3.4.7M570 728.7c0 .5.9 1.4 2 2.1s2 .8 2 .2c0-.5-.9-1.4-2-2s-2-.7-2-.3M657 728.9c0 .6.9 1.5 2 2.1 1.3.7 2 .7 2 .1s-.9-1.5-2-2.1c-1.3-.7-2-.7-2-.1M680.4 730.6c-1.7 1.4-1.7 1.5-.1 1 1-.3 2.3-.6 2.8-.6s.9-.5.9-1c0-1.4-1.3-1.2-3.6.6M211.8 733.6c-1.6.8-2.8 1.9-2.8 2.4 0 1 5.7-1.6 6.5-3.1.9-1.3-.6-1.1-3.7.7M579.2 734.2c.5 1.5 2.8 2.3 2.8 1 0-.5-.7-1.3-1.6-1.6-1-.4-1.4-.1-1.2.6M666 734c0 1 4.8 1.9 7.1 1.3 3.3-.9 2.1-1.8-2.6-1.9-2.5 0-4.5.2-4.5.6M587.6 739.5c2.5 1.9 4 1.9 2.4 0-.7-.8-2-1.5-2.8-1.5-1.3 0-1.2.3.4 1.5M596 743.9c0 .5.7 1.2 1.6 1.5 2.4.9 2.8.7 1.4-.9-1.4-1.7-3-2-3-.6M604 748c0 .5.9 1.4 2 2s2 .7 2 .3c0-.5-.9-1.4-2-2.1s-2-.8-2-.2M614 753.9c0 1.2 3.9 3.5 4.6 2.8.3-.2-.7-1.2-2.1-2.1s-2.5-1.2-2.5-.7M624.6 761.5c.5 2.1.3 3.1-1.1 4.1-2.6 1.9-1.3 2.7 1.3.8 2.6-1.8 2.8-4.6.6-6.5-1.3-1.1-1.4-.9-.8 1.6M613.9 772c-1.3 1-1.9 1.9-1.3 2 .7 0 2.2-.9 3.5-2 1.3-1 1.9-1.9 1.3-2-.7 0-2.2.9-3.5 2M605.6 776.5c-1.1.8-1.7 1.7-1.4 2.1.7.6 4.8-1.7 4.8-2.8 0-1.2-1.3-.9-3.4.7M666.2 787.2l.3 12.3 13.5.5c7.4.3 27.2.5 44 .5h30.5v-25l-44.3-.3-44.3-.2zm76.6-9.2h9.3l-.3 10-.3 10.1-38.9-.1c-21.4 0-40-.3-41.3-.6-2-.6-2.3-1.2-2.3-5.9 0-2.9.3-7.4.7-10l.6-4.8 31.6.7c17.4.3 35.8.6 40.9.6"/><path d="M675.4 780.4c-.3.8-.4 2.7-.2 4.3.2 2 .8 2.7 2.1 2.5 2-.3 3.2 2 2.3 4.5-.5 1.2-.9 1.4-1.8.5-1.6-1.6-2.8-1.5-2.8.3 0 .8.8 1.9 1.9 2.4 1.4.8 2.2.6 3.5-.8 2.4-2.6 1.7-7.3-1.1-8.6-2.9-1.2-3-3.3-.1-3.7 1.2-.2 2.3-.9 2.6-1.6.5-1.7-5.7-1.6-6.4.2M687.8 786.7c-.4 8.5.1 10 2.7 8.5 1.2-.6 1.4-1.1.6-1.6-.6-.4-1.1-3.6-1.1-7.7 0-9.4-1.8-8.8-2.2.8M707.9 781.7c-1.3 3.3-.6 11 1 12.6 2.3 2.3 4.6-.6 4.9-6.1.5-8.2-3.5-12.6-5.9-6.5m4.1 5.9c0 5.8-1.4 7.2-2.5 2.4-.8-3.6.3-9.3 1.6-8.4.5.3.9 3 .9 6M719.1 780.9c-.6 1.1-1.1 2.4-1.1 3 0 2 1.8 1.1 2.5-1.2.8-2.1.8-2.1 1.2.5.2 1.5-.5 4.5-1.7 6.8-2.4 4.7-1.7 6.4 2.1 5.8 1.6-.2 2.5-1.1 2.7-2.6.4-2.3-1.3-3.1-2.1-1-.2.7-.8 1-1.2.6s0-1.9.9-3.3c2.2-3.3 1.8-9.8-.6-10.3-.9-.2-2.1.6-2.7 1.7M730.2 780.2c-2.4 3.1-2.3 5.7.2 8.3 3.1 3.1 3.4 4.9.6 4-2.4-.8-2.6.7-.4 2.5 2.2 1.9 4.3-.6 4.8-5.9.7-7.4-2.3-12.5-5.2-8.9m2.8 3.8c0 1.6-.5 3-1 3-1.4 0-2.4-2.6-1.6-4.5 1-2.6 2.6-1.6 2.6 1.5M696.5 788c.3.5 1.9 1 3.5 1s3.2-.5 3.5-1c.4-.6-1-1-3.5-1s-3.9.4-3.5 1M595.8 782.1c-3.1 1.7-1.9 3 1.2 1.4 1.7-.9 3-1.8 3-2 0-.8-2.4-.5-4.2.6M583.5 785.9c-.6.5-4.9 2.9-9.7 5.5s-11.7 6.4-15.4 8.6c-5.1 3-7.4 3.8-9.6 3.3-2-.4-3.5 0-4.8 1.2-2.3 2.1-2.5 4.3-.8 8 2.1 4.7 9.9 4.6 11.5-.1.6-1.7 2.9-3.7 6.8-5.8 3.3-1.8 7.7-4.3 9.8-5.6 3.7-2.2 3.7-2.2 3.8.7.1 1.5.2 3.5.3 4.3.2.8.3 11.1.4 22.8.1 14.7.5 21.1 1.3 20.7.7-.5 1-9.2.8-26.2-.2-25.5-.2-25.5 2.7-27.4 1.6-1.1 4.4-2.7 6.2-3.5 3.2-1.6 3.7-2.8 2.6-5.8-.7-1.7-4.4-2.2-5.9-.7m4.5 1.7c0 .3-.7 1.2-1.6 2.1-1.1 1.2-1.8 1.3-2.7.4-.8-.8-.7-1.1.6-1.1.9 0 1.7-.5 1.7-1 0-.6.5-1 1-1 .6 0 1 .3 1 .6m-6 4c0 .8-.4 1.2-1 .9-.5-.3-1-1-1-1.6 0-.5.5-.9 1-.9.6 0 1 .7 1 1.6m-2.5 2.4c-.6.9-.9.9-1.6-.1-1-1.7 0-3.4 1.3-2.1.6.6.7 1.6.3 2.2m-3.5 1.1c0 1.1-.4 1.7-1 1.4-.5-.3-1-1.3-1-2.1s.5-1.4 1-1.4c.6 0 1 .9 1 2.1m-3.1 2.5c.3 1.6.1 1.7-1.3.5-1.9-1.6-2.1-3.4-.3-2.9.6.3 1.4 1.3 1.6 2.4m-3.1 1.3c.3.8-.1 1.2-.9.9-.7-.2-1.5-1-1.7-1.7-.3-.8.1-1.2.9-.9.7.2 1.5 1 1.7 1.7m-3.8 1.7c0 .8-.4 1.2-1 .9-.5-.3-1-1-1-1.6 0-.5.5-.9 1-.9.6 0 1 .7 1 1.6m-2.9 1.9c-.1 1.5-2.4 1.2-2.9-.3-.3-.9.2-1.3 1.2-1 1 .1 1.7.7 1.7 1.3m-3.6 1.4c.3.5.1 1.2-.4 1.5s-1.1-.1-1.5-.9c-.6-1.6.9-2.1 1.9-.6m-2.9 1.2c1 1.7-1.3 3.6-2.7 2.2-1.2-1.2-.4-3.3 1.1-3.3.5 0 1.2.5 1.6 1.1m-5.2 1.5c.9.8 1.6 2.7 1.6 4.1 0 3 .1 3.1-2.8-2-2.2-3.8-1.6-4.9 1.2-2.1m-3 1.3c2 2.2 1.8 6.2-.3 6.9-1 .3-1.2 0-.7-1.3.4-1.1-.1-2.4-1.5-3.6-1.1-1-1.8-2.3-1.4-2.8.9-1.6 2-1.3 3.9.8M532.5 852.2c-.3.8-.4 6.3-.3 12.4l.3 10.9h88l.3-10.9c.2-6.4-.1-11.3-.7-11.9-.7-.7-17-1.2-44.1-1.5-36.7-.4-43.1-.2-43.5 1m84.3 2.3c.9.4 1.2 2.9 1 9.7-.3 8.1-.5 9.3-2 9.2-1 0-19.6-.1-41.3-.2L535 873v-8.4c0-4.6.2-9 .5-9.8.5-1.1 7.4-1.3 40.3-1 21.8.1 40.3.5 41 .7"/><path d="M541.4 857.5c-.3 1.3-.4 3-.1 3.7.2.7 0 2.1-.4 3-2.2 4.1 3 9 5.9 5.5 1.3-1.5 1.2-11.8-.1-13.5-1.6-2.1-4.6-1.4-5.3 1.3m4.4 1.8c.2 1-.3 1.7-1.2 1.7-1 0-1.6-.9-1.6-2.1 0-2.4 2.3-2.1 2.8.4m0 6.9c-.5 3.2-2.8 3.5-2.8.4 0-1.7.5-2.6 1.6-2.6 1 0 1.4.7 1.2 2.2M552 857.6c0 2.3.2 2.5 1.5 1.4 2.2-1.8 3-.5 1.7 2.5-1.4 3-1.6 9.5-.3 9.5.5 0 1.1-2.4 1.4-5.3.3-2.8.9-6.4 1.3-8 .6-2.5.4-2.7-2.5-2.7-2.7 0-3.1.4-3.1 2.6M574 857.6c-3.1 7.9 1.5 18.2 4.8 10.9 2.3-4.9.6-13.5-2.5-13.5-.7 0-1.8 1.2-2.3 2.6m3.8 3.8c.5 3.8-.6 7.8-1.8 7.1-1.5-1-1.3-10.8.3-10.3.6.3 1.3 1.7 1.5 3.2M585.8 863c-.3 7.9-.3 8 2.2 8 1.9 0 2.1-.3 1.2-1.2-.7-.7-1.2-4-1.2-8 0-9.5-1.8-8.5-2.2 1.2M595.5 858c-1.7 3.4-1.9 6.8-.5 10.4 1.2 3.4 4.3 3.4 5.9 0 1-2.2.9-3.1-.4-5-.8-1.3-2-2.4-2.5-2.4-.6 0-1-.6-1-1.4 0-.9.7-1.2 2-.9 2.2.6 2.6-.7.8-2.5s-2.6-1.5-4.3 1.8m3.5 7.4c0 1.4-.4 2.7-.9 3.1-1.2.7-2.5-3.1-1.6-4.5 1.1-1.8 2.5-1 2.5 1.4M562.5 864c.3.5 1.7 1 3 1s2.7-.5 3-1c.4-.6-.8-1-3-1s-3.4.4-3 1M124 872c0 .5.5 1 1 1 .6 0 1-.5 1-1 0-.6-.4-1-1-1-.5 0-1 .4-1 1M124.3 875.7c.4.3 1 .3 1.4 0 .3-.4 0-.7-.7-.7s-1 .3-.7.7M393.7 879.7c-.4.7-.3 21.6.1 23.5.1.5 20.5.8 45.2.8h45v-25h-44.9c-24.8 0-45.2.3-45.4.7m86.8 11.8v10h-84l-.3-10.3-.3-10.2 42.3.2 42.3.3z"/><path d="M403.7 882.6c-.4.4-.7 2.5-.7 4.6 0 3.1.4 3.8 1.9 3.8 2.3 0 3.5 2.8 2 4.6-.8 1-1.5 1.1-2.4.4-1.6-1.3-2.8 0-1.4 1.7 1.9 2.2 4.8 1.6 5.5-1.2.9-3.7-.3-7.2-2.7-7.8-2.7-.7-2-3.1 1-3.5 1.2-.2 2-.9 1.8-1.5-.4-1.4-3.9-2.1-5-1.1M416 891c0 6.7.3 8 1.6 8 1.1 0 1.4-.5 1-1.6-.3-.9-.6-4.5-.6-8 0-3.6-.4-6.4-1-6.4s-1 3.3-1 8M437 885.5c-2.1 5.6-.4 13.9 2.8 13.3 2.4-.4 3.8-6.8 2.6-11.5-1.1-4.7-4-5.6-5.4-1.8m3.4 1.1c1.4 3.5.4 10.4-1.5 10.4-.5 0-.9-2.7-.9-6 0-5.7 1.1-7.8 2.4-4.4M447.7 884.3c-.8 2.1.3 2.9 2 1.6 1-.9 1.3-.7 1.3.8 0 1-.6 2.5-1.2 3.2-1.1 1-1 1.4.5 2.2.9.6 1.7 1.6 1.7 2.4 0 2.3-2 2.8-3.5.9-1.5-2-2-.8-.9 2 1.7 4.3 7.3-.3 5.8-4.7-.5-1.2-.8-3.8-.9-5.7 0-2.8-.4-3.6-2.1-3.8-1.2-.2-2.4.3-2.7 1.1M458.7 883.6c-1.1 1.1-.8 5.4.3 5.4.6 0 1-.9 1-2s.5-2 1-2c1.7 0 1.1 4.6-1.2 8.9-2.6 4.9-1.7 6.8 2.5 5.2 3.2-1.2 3.8-4.6.7-3.6-2.4.8-2.5-.3-.4-3.3 2.2-3.1 1.5-8.6-1.1-9-1.2-.2-2.4 0-2.8.4M470.6 884.1c-1.3 3.9-3.3 14.9-2.8 15.3 1 1.1 2.2-.6 2.2-3 0-1.3.5-2.4 1-2.4 1 0 1.3.6 2.6 4.9.3.9.8 1.1 1.4.5.7-.7.4-3.5-.8-8.2-1.9-7.6-2.9-9.4-3.6-7.1m1.1 7.1c-.3.8-.6.5-.6-.6-.1-1.1.2-1.7.5-1.3.3.3.4 1.2.1 1.9M424.6 890.9c-.7 1.1 4.9 2.5 6.4 1.6.6-.3.8-1.1.5-1.6-.8-1.2-6.2-1.2-6.9 0M124 884.5c0 .8.5 1.5 1 1.5.6 0 1-.7 1-1.5s-.4-1.5-1-1.5c-.5 0-1 .7-1 1.5M125 894.5c0 .3.2.5.5.5s.5-.2.5-.5-.2-.5-.5-.5-.5.2-.5.5M125 902.5c0 .3.2.5.5.5s.5-.2.5-.5-.2-.5-.5-.5-.5.2-.5.5M125 908c0 .7.3 1 .7.7.3-.4.3-1 0-1.4-.4-.3-.7 0-.7.7M254.5 958.3c-.3.7-.4 6.2-.3 12.3l.3 10.9 26 .7c14.3.5 34.1.7 44 .5l18-.2.6-11.5c.3-6.3.1-12-.3-12.5-.6-.6-17-1.1-44.4-1.3-36.1-.3-43.5-.1-43.9 1.1m70.3 1.7h15.3l-.3 10.1-.3 10-40.4-.1c-22.2 0-40.8-.3-41.2-.6-1-.6-1.2-16.4-.2-19 .6-1.5 2.6-1.6 26.2-1.1 14.1.4 32.5.7 40.9.7"/><path d="M265 962.5c-1.3 1.6-1.7 11.5-.6 13.4 1.1 1.6 4.3 1.3 5-.5 1.2-3.1.6-6.4-1.4-7.6-1.1-.7-2-2.1-2-3 0-2.1 1.6-2.4 2.3-.6.2.7.8 1 1.2.6.8-.8-1.2-3.8-2.5-3.8-.4 0-1.3.7-2 1.5m3 9.5c0 3.2-1.4 4-2.4 1.4-1-2.7-.7-4.4.9-4.4q1.5 0 1.5 3M275.2 963.5c-1.5 3.2-1.5 9-.2 11.6 1.6 2.8 4.8 2.4 5.6-.7s-1-7.4-3.1-7.4c-.8 0-1.5-.6-1.5-1.3 0-2.2 1.2-2.8 2.8-1.5 1.2 1 1.4.9 1.1-.7-.6-3-3.4-3-4.7 0m3.6 8.8c.2 1.9-.1 2.7-1.2 2.7s-1.6-1-1.6-3.1c0-3.8 2.4-3.5 2.8.4M297.3 962.2c-2 2.5-2.4 8.6-.9 12.2 1.7 4.1 1.9 4.2 4 2 1.1-1 1.6-3.4 1.6-7.3 0-6.8-2.2-10-4.7-6.9m2.7 7.4c0 3-.4 5.4-1 5.4s-1-2.7-1-6.1c0-3.7.4-5.8 1-5.4.6.3 1 3.1 1 6.1M307.1 963.6c-1.4 3.1-.5 4.7 1.3 2.1.7-.9 1.6-1.7 2-1.7 1.2 0-.4 6-2.5 9.7-1.6 2.8-1.7 3.5-.5 3.9 2.8 1.1 5.1-.1 5.4-2.6.2-1.9.1-2.2-.7-1-1.6 2.4-2.5.3-1.2-2.8 2.8-6.6-.9-13.9-3.8-7.6M320.4 963.7c-.3 1-1.2 3-2 4.5-1.9 3.5-1.8 4.5.7 5.1 1.6.4 1.9 1.1 1.4 2.6-.4 1.5-.2 2.1.8 2.1 1.8 0 2.4-2.9 1.9-10.3-.4-5.6-1.7-7.5-2.8-4m.6 6.2c0 .6-.4 1.3-1 1.6-.5.3-1-.1-1-.9 0-.9.5-1.6 1-1.6.6 0 1 .4 1 .9M285 970c0 .5 1.6 1 3.5 1s3.5-.5 3.5-1c0-.6-1.6-1-3.5-1s-3.5.4-3.5 1M178 1244.9c-1.4 1-6.1 3.7-10.5 6.1s-9.2 5.1-10.7 6.1c-3.8 2.7-4.8 2.4-4.8-1.6 0-2.3-.6-3.7-1.9-4.4-2.1-1.2-2.4-.9-6.1 5.9-1.3 2.5-4.8 8.5-7.7 13.5-2.9 4.9-5.3 9.3-5.3 9.7 0 1.4 19.5 12.8 22 12.8.5 0 1-2.3 1-5.3 0-5.2 0-5.2 4.8-7.8 2.6-1.4 6.7-3.7 9.2-5.1s6.8-3.8 9.5-5.3c10.1-5.5 9.8-5.1 9.6-14.6-.3-11.4-3.1-14.4-9.1-10m7 9.9v7.8l-7.2 4.1c-4 2.3-9.5 5.3-12.1 6.8-14.2 7.8-14.2 7.8-14.5 12.4-.2 2.3-.7 4.1-1.1 3.9-5.3-2.2-14.1-7.6-14.1-8.7 0-1.4 9.3-17.5 12.4-21.6 1.5-1.9 1.5-1.9 1.6.8 0 3.9 2.4 4.4 7 1.3 2.2-1.4 4.2-2.6 4.5-2.6s3.8-2 7.8-4.4c9.5-5.7 12.9-7.5 14.5-7.6.8 0 1.2 2.2 1.2 7.8"/><path d="M176.3 1252.7c-1.9 1.3-2.3 2.5-2.3 6.9 0 2.9.4 5.5.8 5.8 1.1.7 6.4-2.1 8-4.1.6-.9 1.2-3.1 1.2-4.8 0-5.3-3.3-6.9-7.7-3.8m4.7 1.8c1.1 1.3 1 2.2-.3 5-2.3 4.7-3.7 4.4-3.7-.8 0-5.8 1.4-7.3 4-4.2M171.2 1256.2c-.5.7-1.2 2.4-1.5 3.8-.4 2.5-.4 2.5-1.2.2-1-3.1-2.4-2.8-3.1.8-.7 3.1-2.4 4.2-2.4 1.5 0-.8-.5-1.5-1.1-1.5-1.2 0-.6 5.1 1.2 9.8.8 2.1 1.2 2.3 1.9 1.2.6-.8 1-2.4 1-3.5s.4-2.6.9-3.4c.7-1.1 1.2-.8 2.3 1.4 1.9 3.5 2.4 2.6 3.3-5.3.7-6.3.5-7.1-1.3-5M155.3 1265.2c-3.1 1.9-3.3 2.3-3.3 7.9 0 3.3.4 5.9 1 5.9s1-1.2 1-2.6c0-1.7.6-2.8 1.9-3.1 2-.5 3.6-3.1 2.6-4.1-.3-.3-1.1 0-1.7.6-1.6 1.6-2.8 1.5-2.8-.2 0-.8 1.4-2.3 3-3.3 1.7-.9 3-2.1 3-2.5 0-1.2-1.1-.9-4.7 1.4"/></svg>