<svg xmlns="http://www.w3.org/2000/svg" viewBox="0 0 992 1402" fill="currentColor"><path d="M197.4 217.4c-14.6 9.1-14 6.2-4 21.7 4.9 7.4 9 13.5 9.1 13.7 1 1.1 4.5-2.2 4.5-4.3 0-3 1.8-3.2 5.1-.7 1.3 1 7.5 4.4 13.7 7.6 10.9 5.5 11.4 5.7 13.8 4.2 2.3-1.6 2.4-2 1.8-8.9-.3-3.9-.7-7.7-.9-8.3-.3-1.1-11.3-7.3-27.2-15.4-6.3-3.2-6.3-3.2-6.3-8.6 0-2.9-.3-5.5-.7-5.7-.5-.2-4.5 1.9-8.9 4.7m5.4 8.6c.4 0 .7 3.6.7 8s-.3 8-.7 8-.8 1.5-1 3.2c-.4 2.9-.5 3-1.3 1.3-.5-1.1-1.3-2.5-1.7-3-2.1-2.6-10.8-16.7-10.8-17.5 0-.5 3-2.7 6.8-4.9l6.7-3.9.3 4.4c.2 2.4.6 4.4 1 4.4m12.8 7.1c5.5 2.9 11 5.9 12.4 6.8 1.4 1 3.7 2.2 5.3 2.9 2.6 1.1 2.7 1.5 2.7 8.2 0 7.5-.5 8-4.9 5.6-2.4-1.3-2.4-1.3.1-1.9 4.8-1.2 4.4-8.7-.6-11.8-5-3-5.6-2.6-5.6 4.1v6l-9.8-5.1c-9.3-4.8-9.8-5.3-9.4-7.9.3-2.1.8-2.7 2.3-2.3 2.5.7 2.4-1.3-.1-2.9-1.1-.7-2-1.6-2-2.1 0-.4.9-.3 2 .3 3 1.6 2.4-.5-.7-2.9-4.5-3.3-2.2-2.5 8.3 3m15.2 12.1c.7.7 1.2 2.5 1.2 4 0 2.1-.5 2.8-2 2.8-1.1 0-2-.4-2-.9s-.3-2.3-.6-4c-.7-3.3 1-4.3 3.4-1.9"/><path d="M212.1 236.2c.3 8 2.8 12.4 4.4 7.6.6-2.2.7-2.1 1.4.8q2.55 10.2 4.8.6c1.2-4.9.1-8.1-1.7-5.2-.8 1.2-1 1.1-1-.7 0-2.9-2-4-3.5-1.9-1.1 1.4-1.3 1.3-1.8-1.4-.9-4-2.7-3.8-2.6.2M452.7 226.7c-.6.6-1 23.3-.4 23.3.1 0 9.2.3 20.2.6 11 .4 20.1.8 20.3.9.2.2 0 5.8-.4 12.5l-.7 12.2-163.3-.3c-89.8-.2-163.6 0-164 .4s-.6 188.9-.4 418.9c.2 230.1.3 457 .2 504.3s.1 86.8.4 87.7c.5 1.7 17.1 1.8 329 1.8 180.6 0 328.4-.3 328.5-.8 0-.4.2-86.2.4-190.7s.7-274.6 1-378c1.3-373 1.3-440.4.1-441.4-1.2-.9-141.8-2.1-258.8-2.1H495v-25h45l.1-8.3c.1-4.5.3-9.3.5-10.7.7-6.4 3.7-6-44-6-23.8 0-43.6.3-43.9.7m84.1 11.5-.3 10.3h-7.2c-4 0-22.1-.2-40.3-.3l-33-.2v-20h81.1zm284.5 41.7c1 1 1.1 172.7.2 367.6-.3 68.2-.8 239.6-1.1 381-.3 141.3-.7 257.2-1 257.4-.2.3-147.1.6-326.4.7l-326 .2v-21.1c0-11.7-.2-94.8-.4-184.7-.4-128.7-.8-583.6-.6-772.4v-30.9l327.2.6c188 .4 327.6 1.1 328.1 1.6"/><path d="M462.9 230.6c-1.7 2.1-1.8 12.9-.1 14.6 2 2 4.7-.3 5-4.5.2-2.8-.2-3.9-1.7-4.9-2.2-1.3-2.9-3.8-1.1-3.8.6 0 1 .5 1 1.2 0 .9.3.9 1.2 0 .8-.8.8-1.5-.2-2.7-1.6-1.9-2.4-1.9-4.1.1m3.1 9.8c0 1.4-.4 2.8-1 3.1-.6.4-1-.7-1-2.4s.5-3.1 1-3.1c.6 0 1 1.1 1 2.4M474 236.4c0 3.5-.3 7.1-.6 8-.5 1.2 0 1.6 2.1 1.6s2.6-.4 2.1-1.6c-.3-.9-.6-4.5-.6-8 0-5-.3-6.4-1.5-6.4s-1.5 1.4-1.5 6.4M495.9 230.7c-.1.5 0 3.4.1 6.6.1 3.4-.3 6.4-1 7.2-1 1.3-.8 1.5 1.5 1.5 2.1 0 2.6-.4 2.1-1.6-.3-.9-.6-4.5-.6-8 0-3.6-.4-6.4-1-6.4-.5 0-1.1.3-1.1.7M505.7 235.2c-2.8 5.6-2.7 6.8.4 6.8 2.2 0 2.4 1.1.7 2.8-.9.9-.7 1.2.9 1.2 1.4 0 2.2-.8 2.5-2.3.6-3.4-.3-13.7-1.2-13.7-.4 0-1.9 2.3-3.3 5.2m2.3 2.7c0 .6-.4 1.3-1 1.6-.5.3-1-.1-1-.9 0-.9.5-1.6 1-1.6.6 0 1 .4 1 .9M515 232.6c-2.1 5.5-.6 13.4 2.5 13.4 2.2 0 3.5-3.3 3.5-8.7 0-7-4-10.1-6-4.7m4 5.1c0 3.9-.9 6.5-2.1 5.7-1-.6-1.2-7.4-.3-9.9 1-2.4 2.4.1 2.4 4.2M482.5 238c-.4.6 1 1 3.5 1s3.9-.4 3.5-1c-.3-.6-1.9-1-3.5-1s-3.2.4-3.5 1M500.5 311.1c-7.8 1.2-11.8 2.5-19 6.4-13.1 7.1-22.6 12.1-34.4 18.2-6.8 3.6-13.7 7.8-15.2 9.5-4.7 5-6.3 14.1-3.4 20.1 1.8 3.9 5.3 8 8 9.4 1.7 1 1.9 2 1.6 8.8-.1 4.2.3 11.4 1 16l1.2 8.3-5.9 6c-4.2 4.3-6.8 6.1-8.9 6.4-2.4.2-3.2 1-4.1 3.7-.7 2.3-2.2 4-4.2 5-5.4 2.5-7.3 11.9-2.3 11.3 2-.2 2.2 0 1.1 1.3-1.5 1.8-.1 2 3.5.3 3-1.3 3.4-3.3.5-2.5-2.9.7-2.5 0 1.1-1.8 1.7-.9 3.7-1.4 4.5-1.1.9.3 3.2-.1 5.2-1s3.2-1.8 2.5-2.1c-.6-.2-2.6.3-4.3 1.2-3 1.6-3.2 1.6-2.6-.3.5-1.3-.1-2.2-1.9-3.2-1.4-.7-2.5-1.7-2.5-2.1 0-1.8 4.9-2 8-.4 2.4 1.3 3.1 1.3 2.8.3-.2-.7-2.3-2.2-4.6-3.2-2.3-1.1-4.2-2.3-4.2-2.8 0-1.3 3.5-.9 6.6.6 1.9 1.1 3.3 1.2 4.6.5 2.3-1.2 2.3-2.1.1-1.8-3.1.3-4.3-.1-4.3-1.1 0-1.2 8.9-11 9.9-11 .3 0 1.4 2.1 2.4 4.7 2 5.7 3.4 8 4.2 7.1.4-.3-.2-2.3-1.3-4.5-2.7-5.3-5-15.4-5.7-24.3-.7-9.3.5-7.3 3.5 6 3.5 15.3 5.6 21.4 7.2 20.4.5-.3.5-1.1-.1-1.7-.8-1.1-10.1-36.8-10.1-39 0-1.5 2.2-.4 15.5 7.6 19.6 11.8 18.3 10.2 14.7 17.6-1.6 3.3-2.6 6.3-2.2 6.6.8.5 7-11.1 7-13.1 0-.8.3-1.4.7-1.4 1.3 0 9.2 6.5 9.3 7.7 0 .6.9.9 2 .6s2-.1 2 .5 1.2 1.2 2.7 1.4c3 .3 4.4 2.8 1.6 2.8-1 0-4.9 2.9-8.8 6.5-4.5 4.2-7.3 6.1-7.9 5.5-2-2-3.4-.9-4.2 3.2-.4 2.4-.7 5.3-.5 6.6.1 1.2-.5 2.5-1.4 2.8-.8.3-1.5 1.3-1.5 2.1 0 1.2.6 1.1 3.3-.6 1.9-1.2 3.1-2.7 2.9-3.7-.3-1.2.1-1.5 1.3-1 .9.3 1.8.6 2.1.6.2 0 .1.7-.2 1.5-.4.8-1.2 1.5-2 1.5s-1.4.7-1.4 1.4c0 1.9 5.8 10.6 7.5 11.2.7.3 3.6-.6 6.4-2 6.1-3.1 6.1-3.1 6.1-.5 0 1.1.5 1.7 1 1.4 1.3-.8 1.3-5.8.1-7-1.1-1.1-.3-6.5.9-6.5.7 0 4.1 10.2 7.1 21.5.6 2.2 1.5 5 2 6.3s.9 5.2.9 8.7c0 3.7.4 6.5 1 6.5s1-2.4 1.1-5.3c0-5.2 0-5.2 9.5-10s9.5-4.8 8-1.8c-.9 1.6-1.6 3.7-1.6 4.5s-1.9 2.7-4.2 4.3c-2.4 1.6-4.4 3.8-4.6 5-.4 2.4-4.9 4.6-9.2 4.5-4-.1-13.1-4.9-12.4-6.5.7-2-2.1-3.9-6.2-4-3.5-.2-3.8-.4-5.4-5.5-2.2-6.6-5.8-10.5-13.2-14.3-3.2-1.6-6-2.9-6.3-2.9-1.6 0 1 2.1 5.2 4.2 2.5 1.2 6.3 4 8.5 6.2 3.9 3.7 4 4 3.6 9.3-.4 4.4-1 6-2.9 7.4-3.6 2.8-4.9 2.4-4.9-1.7 0-4.6-3.6-11-7.5-13.3-7.8-4.7-12.5-7-12.5-6 0 .6-.7.9-1.5.5-.8-.3-1.5-.1-1.5.4s3.4 2.7 7.5 5c8.7 4.8 11.5 8.2 11.5 13.9 0 5.5 2.2 6.6 7.8 4.1 4.2-1.9 4.2-1.9 5.7 1.7 1.4 3.4 1.7 3.5 5.1 3 3-.5 4.9.1 10.2 2.8 7.1 3.8 11.4 4.3 15.8 2 2.3-1.2 4.9-1.4 11.9-.9 9.5.7 26.9-1.3 38-4.1 7.8-2.1 20.9-8.3 26.7-12.7 2.6-2 5.6-3.9 6.7-4.3 2-.6 3.8-4 3.2-6-.1-.6-.4-4.9-.6-9.6-.3-6.5-1-9.7-2.6-12.5-1.2-2.2-2.5-4.1-2.9-4.4s-1-4.3-1.3-9c-.2-4.7-1.6-12.5-3.1-17.5-1.4-5-2.6-9.5-2.6-10 0-.7 9.5-.9 28.5-.7 20 .3 28.5 0 28.5-.7 0-.8-6.8-1.1-21.7-1.1-19.2 0-35.2-.7-36.1-1.5s-8.1-29.4-8.9-35.3c-.4-3.4-1.3-4.9-4-6.9-1.8-1.4-4.4-2.7-5.6-2.8s-2.7-.3-3.4-.4c-.6 0-1.6-1.6-2.2-3.4-1.4-4.1-4.9-7.5-12.1-11.7-19.7-11.6-26.4-14.6-35.3-15.9-4.3-.6-8.1-1-8.5-1-.4.1-3.4.5-6.7 1m17 2.2c7.1 1.4 16.1 5.3 24.8 10.9 2.6 1.6 4.7 3.4 4.7 3.9 0 .4.6.6 1.3.3.7-.2 3.1.8 5.4 2.3 3.4 2.1 4.1 3.2 3.9 5.2-.2 1.4-.1 2 .1 1.3 1.3-3.5 4.3.8 4.3 6.2 0 4-4.9 10.4-9.8 12.9-1.5.7-5 2.6-7.9 4.1s-5.6 2.5-6.1 2.2c-.6-.3-1.2.2-1.4 1.2-.3 1-2.2 2.3-4.3 2.9-3.2 1-4.1.9-6.1-.5-2.5-1.8-3.1-3.4-1.1-3 .6.1 2.5-1 4.1-2.5s3.4-2.6 4-2.4c.5.2 1.8-.5 2.8-1.5.9-.9 2.4-1.5 3.3-1.2.9.4 1.5.1 1.5-.8s2-2.8 4.5-4.4c4.3-2.7 4.5-3 4.5-7.5 0-5.6-1.2-6.9-14.3-14.7-10.4-6.3-16.5-8.7-23.8-9.6-7.5-.9-18.2 1.5-24 5.5-2 1.4-2.9 1.5-3.7.7-.9-.9-1.2-.8-1.2.4 0 .9-1.2 2.3-2.6 3.3-2.2 1.4-2.8 1.5-3.5.4s-.9-1-.9.3c0 1.9-12.7 9.1-14.7 8.3-.7-.2-1.3.1-1.3.8 0 1.7-6.8 5-8.2 4.1-.7-.4-.8-.2-.4.4.4.7-1 2-3.6 3.3-5.7 2.8-7.8 5.5-7.8 10.4 0 3 .5 4.4 2 5.3 1.1.7 2 1.9 2 2.6 0 .8.8 1.4 1.8 1.4.9-.1 6.2 2.6 11.7 5.9 11.3 6.8 20.3 9.6 29.4 9.2 3.2-.1 6.3.1 6.9.5.7.4 1.2.3 1.2-.3s2.5-2.3 5.5-3.8c5.6-2.7 5.6-2.7 7.6-.7 1.8 1.8 2 3.5 2.1 19.7.2 18.6-.7 23.2-3.2 15.8-1.5-4.7-3.4-5.7-6.6-3.6-3 1.9-3.3 1.9-3.1-.5.1-1.1.5-2 1.1-2 2.2 0 7.2-5 8.4-8.4 1.9-5.2.8-11-1.9-10.3-2 .6-2.8-1.8-.7-2.5 1.1-.4 2.1-3.8 1.1-3.8-.3 0-1.1.7-1.8 1.6-.7 1-2.7 1.7-5.3 1.8-2.3 0-4.2.4-4.2.8 0 1.2-16.5 1-21.8-.3-6.2-1.4-9.3-3-8.5-4.2.4-.6 0-.8-1.1-.4-1.9.7-6.2-1.5-18.4-9.5-4.1-2.6-7.7-4.8-8.2-4.8-1.4 0-5.8-6.2-6.5-9.1-.4-1.7-.1-3.1.8-4 .7-.8 1.2-2 .9-2.7-1-3.2 13.5-13.1 15.7-10.9.8.8 1.1.6 1.1-.6 0-1.8 6.7-5.7 9.9-5.7 1 0 2.1-.6 2.4-1.3.8-2.2 8.4-5.6 9.6-4.4.8.8 1.1.6 1.1-.6 0-2.5 13.9-9.4 15.2-7.5.8 1 .9.9.5-.4-.7-2 3-3.7 11.8-5.4 8.1-1.6 10.8-1.6 19-.1m-3.4 7.7c1.1 0 1.9.7 1.9 1.5s-.7 1.5-1.5 1.5-1.5-.3-1.5-.8c0-1.5-10.7-.3-20.2 2.3-1.8.5-2.8.3-2.8-.4 0-1.9 14-5.2 19.4-4.5 1.6.2 3.7.4 4.7.4m16.2 6.3c4.9 2.8 9.9 5.8 11.3 6.5 1.3.7 2.2 1.7 1.9 2.3-.5.8-3.4-.5-10.8-4.8-1.1-.6-2.4-1.8-2.9-2.6-.4-.9-1.6-1.3-2.7-1-1.2.3-2.4-.2-3.2-1.4-.8-1.4-2-1.8-4-1.5-2.2.3-2.9 0-2.9-1.2 0-2.9 4.3-1.7 13.3 3.7m-41.3-.5c0 .5-1.1 1.4-2.5 2-2.9 1.3-3.3.5-.7-1.4 2-1.5 3.2-1.8 3.2-.6m28.2 1.7c3.1.8 7.1 2.3 9 3.3l9.9 5.5c7.5 4.2 10.2 6.8 9.7 9.3-.1.9-5.7 5-12.3 9.1-16.3 10-16.3 10-17.9 8.2-2.2-2.2-5.5-14.7-6.2-23.7-.7-8.5-2.4-11.4-2.4-4 0 5.2 3.3 21.3 5.4 26.1 1.4 3.4 1.3 3.6-1.7 6.5-4.8 4.5-14.5 9-21.3 9.7-11.7 1.4-20.9-1.9-40.9-14.3-6.9-4.3-7.2-6.3-1.2-9.3 2.3-1.2 7.6-4.2 11.7-6.7s9.8-5.7 12.5-7.2c2.8-1.5 9.1-4.9 14-7.6 11.7-6.3 20.9-7.7 31.7-4.9m-37.1 3.5c-2.1 1.8-5.1 2.7-5.1 1.5 0-.6 5.3-3.4 6.5-3.4.6 0-.1.9-1.4 1.9m-7.1 3.5c0 .6-6.2 4.5-7.2 4.5-1.9 0-.5-1.9 2.5-3.4 3.3-1.6 4.7-2 4.7-1.1m74 2.6c0 .5-.4.9-1 .9-.5 0-1-.7-1-1.6 0-.8.5-1.2 1-.9.6.3 1 1 1 1.6m-84 2.8c0 .5-.7 1.2-1.6 1.5-2.4.9-2.8.7-1.4-.9 1.4-1.7 3-2 3-.6m-5 2.8c0 1.3-5.9 4.2-6.5 3.3-.3-.5.7-1.6 2.2-2.4 3.2-1.7 4.3-1.9 4.3-.9m114.9 3c1.3.8 1.9 1.8 1.5 2.3-1.1 1-10.7 6-11 5.7-.1-.1 0-2.5.3-5.4.5-5.2.5-5.2 3.7-4.6 1.7.3 4.2 1.2 5.5 2m-124.3 2.9c-1.1.7-2.2 1.1-2.5.8s.3-1.2 1.3-2c1.1-.7 2.2-1.1 2.5-.8s-.3 1.2-1.3 2m-4.6 1.9c0 .3-.2.5-.5.5s-.5-.2-.5-.5.2-.5.5-.5.5.2.5.5m131.8 1.6c-.3 2.2-.6 2.4-22.3 13.9-4.9 2.6-11.7 6.2-14.9 7.9-7.5 4-9.5 2.6-2.6-1.7 2.8-1.8 5.4-3.2 5.7-3.2s1.7-.8 3.1-1.9c3-2.1 6.4-4.1 20.2-11.8 5.2-2.9 9.9-5.3 10.3-5.3.5 0 .7 1 .5 2.1m-14.8-.6c0 .3-.2.5-.5.5s-.5-.2-.5-.5.2-.5.5-.5.5.2.5.5m-2.4 3.4c-.7 1-10.9 7.1-12 7.1-.3 0-.6-.5-.6-1 0-.6.9-1 2-1s2-.5 2-1c0-.6.8-1.4 1.8-1.7.9-.4 2.8-1.5 4.1-2.5 2.4-1.8 3.8-1.8 2.7.1m19 3.8c.3 1.6.8 3.5 1.1 4.3s.9 3 1.3 4.8c1 4.1-1 3.9-2.1-.2-1.3-4.6-2.8-5.7-6.8-5-3.5.6-8 4.6-8.1 7.1 0 1.5-2.6 1.7-3.5.3-.9-1.5-3.5-1.2-3.5.5 0 1.6-7.6 5.9-9 5-.5-.3-1.5.3-2.2 1.3-2 2.9-6.3 5.3-8.2 4.6-1-.4-1.8 0-2.3 1.2-.8 2.2-3.3 4.3-5 4.4-.9 0-1.3-1.7-1.3-5.1 0-4.5.2-5 1.8-4.4.9.4 2.2.8 2.7.8 1 .1 12.6-5.2 13.5-6.3.3-.3 1.8-1.2 3.5-2 1.6-.8 8.1-4.3 14.5-7.7 6.3-3.5 11.8-6.3 12.2-6.3s1 1.2 1.4 2.7m-33.1 4.5c-.3.9-1.7 2-3.1 2.6-3.5 1.7-3.3-1.3.4-3.1 3.1-1.6 3.4-1.5 2.7.5m-111 1.8c.3.5.1 1-.4 1-.6 0-1.1-.5-1.1-1 0-.6.2-1 .4-1 .3 0 .8.4 1.1 1m140.7 3.9c.2 1.9-.2 3.6-.8 3.8-1.3.4-2.9-6.2-1.8-7.8 1-1.7 2.3.3 2.6 4m-53.5 2.1c.2 3.7.1 4.1-.7 2.2-1.2-2.9-4-2.6-5.7.8-1.1 2.2-1.3 2.2-1.9.6-.4-1-.3-2.1.2-2.5.5-.3 1.5-1.9 2.2-3.4.9-2.1 1.8-2.8 3.5-2.5 1.9.3 2.2 1 2.4 4.8m16.8-4c.7 1.1-4.5 3.9-6.2 3.3-.7-.3-1.3.2-1.3 1.1s-.4 1.6-1 1.6c-2.3 0-.7-2.6 2.8-4.7 4.2-2.5 4.9-2.7 5.7-1.3m-94.8 4.7c-.6.5-6.7-3-6.7-3.9 0-.4 1.6.2 3.5 1.4 2 1.1 3.4 2.2 3.2 2.5m81-1.5c-.3.8-.6.5-.6-.6-.1-1.1.2-1.7.5-1.3.3.3.4 1.2.1 1.9m44.4 1.2c1 3.7.4 4.9-3.2 6.5-3.4 1.5-3.4 1.5-4.2-2-.6-2.1-.3-2.8 1.4-3.2 1.1-.3 2.3-1.5 2.6-2.7.7-2.8 2.5-2.1 3.4 1.4m-43.4 17.8c-.2 3.5-.3.9-.3-5.7s.1-9.4.3-6.3c.2 3.2.2 8.6 0 12m-74-13.1c3.2 1.8 6.5 3.7 7.3 4.4s2.5 1.6 3.8 1.9c2.2.7 3.1 2.6 1.2 2.6-1.1 0-19-10.9-19-11.6 0-.8.9-.4 6.7 2.7M583 380c.7 3.3 1 6.3.7 6.6-.9 1-2.7-3.3-3.3-8.1-1-6.7 1.1-5.6 2.6 1.5m-26.1-1.3c1 3.4.8 4-1.2 5.5-3.6 2.8-5.4 2.3-6.2-1.8-.3-2-.5-3.7-.3-3.9.3-.3 6.2-3.4 6.5-3.5.1 0 .7 1.7 1.2 3.7m-35.9 1c0 1.6.3 5.7.6 9.3.6 6.5.6 6.5-3 8.3-2 .9-3.9 1.7-4.1 1.7-.3 0-.5-4.4-.5-9.7 0-8.4.2-9.4 1.3-7.8 1.7 2.3 3.7 1.2 3.7-2.1 0-1.3.5-2.4 1-2.4.6 0 1 1.2 1 2.7m56.9 3.3c1.1 4.8-.1 7.9-1.9 5-1.4-2.2-2.3-7.7-1.6-9.7 1-2.4 2.3-.5 3.5 4.7m-6.5 3.5c.9 4.4.8 4.9-1.3 6.6-4.2 3.5-5.2 2.7-6.6-5.3-.6-3.3-.4-3.8 2.2-5.2 3.9-2.1 4.7-1.6 5.7 3.9m-26-2.9c1.3 3.4.6 5.9-2.1 7.1-3.8 1.8-4 1.7-4.7-1.9-.5-2.7-.2-3.6 1.6-5 2.9-2.2 4.4-2.3 5.2-.2m-74 2.9c2.7.8 8.4 1.5 12.8 1.5 6.3 0 7.8.3 7.8 1.5 0 1.9-5.9 2-16.3.4-7.8-1.2-11.1-2.5-10.2-4 .7-1.1 0-1.2 5.9.6m29.6.9c0 1.6-2.1 2.6-5.6 2.6s-3-1.8.9-2.9c4.5-1.3 4.7-1.3 4.7.3m58.6 2.3c.3 1.6 1 3.8 1.5 5.1s.9 2.4.9 2.6c0 .5-7.1 3.8-7.4 3.4-3.3-5.1-3.2-9.9.2-12 3.6-2.3 4.1-2.2 4.8.9m-24.1 1.3c.8 3.5 0 5-2.4 5-2.3 0-3.8-5.9-1.9-7.2 2.4-1.5 3.6-.8 4.3 2.2m50.9.7c.3 2.1.8 5.4 1.1 7.3l.5 3.5-1.6-3.5c-2-4.4-3-11-1.7-11 .6 0 1.3 1.7 1.7 3.7m-80.4.7c0 2.8-2.4 8.2-4.4 9.8-2.2 1.9-11.6 2.5-11.6.9 0-.5-.8-1.1-1.7-1.3-1.1-.2 1.7-2.3 7.2-5.5 9.9-5.7 10.5-5.9 10.5-3.9m-13.6 1c.5.1-1.2 1.3-3.7 2.6-4.9 2.6-5.9 2.4-11.6-1.9-2.3-1.8-2.2-1.8 6-1.4 4.6.3 8.8.5 9.3.7m89 2.8c1 4 .1 7.7-1.4 6.2-.5-.5-1.3-3.2-1.6-5.8-.6-3.9-.4-4.8.7-4.4.8.2 1.8 2.1 2.3 4m-38.4-2.7c0 .3-.2.5-.5.5s-.5-.2-.5-.5.2-.5.5-.5.5.2.5.5m6.2 4.2c1.4 4.2 1.4 5 .1 6.5-.8.9-2.3 1.8-3.4 2.1-2.1.6-3-.8-4.3-7-.6-2.8-.4-3.4 2.1-4.7 1.5-.8 3.1-1.5 3.4-1.6.3 0 1.3 2.1 2.1 4.7m-19.2-.6c0 1.1-.4 1.7-1 1.4-.5-.3-1-1.5-1-2.6s.5-1.7 1-1.4c.6.3 1 1.5 1 2.6m10-2.7c0 .3-.4.8-1 1.1-.5.3-1 .1-1-.4 0-.6.5-1.1 1-1.1.6 0 1 .2 1 .4m24 2.1c0 .3-.2.5-.5.5s-.5-.2-.5-.5.2-.5.5-.5.5.2.5.5m10.4.3c.3.5.8 2.7 1.2 4.9.6 3.7.4 4-2.7 5.6-4 1.9-4.5 1.5-5.4-4-.6-3.8-.4-4.3 2.2-5.7 3.3-1.8 4-1.9 4.7-.8m-51.4 1.7c0 .2-1.8 1.4-4 2.5-4.4 2.3-5.6.9-1.2-1.4 2.7-1.5 5.2-2 5.2-1.1m10.5.5c.3.5.1 1-.4 1-.6 0-1.1-.5-1.1-1 0-.6.2-1 .4-1 .3 0 .8.4 1.1 1m4.5 2.5c0 .8-.4 1.5-.9 1.5-1.3 0-2.2-1.6-1.4-2.4 1.1-1.1 2.3-.6 2.3.9m25.9 4.2c1.5 5.4 1.4 5.7-2 7.7-3.6 2.1-4.4 1.5-5.5-4.3-.6-2.8-.3-3.7 1.7-5.2 3.5-2.7 4.7-2.3 5.8 1.8m-31.9-1.3c0 .8-.4 1.7-.9 2-1 .7-2.3-1.9-1.4-2.8 1.1-1.1 2.3-.6 2.3.8m60 11.2c0 1.3-1.1 2.6-3.4 3.7-1.9.8-3.7 1.3-4 1-1-1.1-.7-3.4.8-4.8.7-.8 1.7-4 2.1-7.2l.7-5.8 1.9 5.5c1 3 1.9 6.4 1.9 7.6m-52.2-8.6q.3 3-1.2 3c-1.8 0-2.9-4.2-1.3-5.2 1.9-1.2 2.3-1 2.5 2.2m-24.7-.3c-.6 1-1.3 3.1-1.8 4.8-.7 3-.7 3-1.1-.9-.2-2.5.1-4.2 1-4.7 2.1-1.4 2.9-1 1.9.8M526 408c0 1.1-.6 2-1.4 2-2.1 0-3.1-2.1-1.5-3.1 2.2-1.4 2.9-1.1 2.9 1.1m57.9-.8c0 .7-.4 2.2-.8 3.2-.7 1.9-.8 1.8-1.4-.4-.3-1.3-.4-2.7-.1-3.2.8-1.2 2.4-1 2.3.4m-62.9.3c0 .3-.2.5-.5.5s-.5-.2-.5-.5.2-.5.5-.5.5.2.5.5m12.5 2.6c1 3-1 4.7-2.5 2-1.1-2.1-.6-4.1 1-4.1.5 0 1.2.9 1.5 2.1m19.4 1c1.7 4.8 1.3 6.5-1.4 7.7-3.8 1.7-4.2 1.6-5.6-2.5-1.1-3.5-1-3.8 1.7-6 3.7-3 4-2.9 5.3.8m-8.9-1.7c0 .3-.4.8-1 1.1-.5.3-1 .1-1-.4 0-.6.5-1.1 1-1.1.6 0 1 .2 1 .4m-38.9 3.3c1.3 3.4 0 4.8-6.4 6.7-4.2 1.2-4.7 1.2-4.7-.1 0-1.5 7.7-9.2 9.3-9.3.4 0 1.2 1.2 1.8 2.7m14.2-2c.8.7-1.1 3.3-2.4 3.3-.5 0-.9-.9-.9-2 0-1.9 2-2.7 3.3-1.3m59.2 1.3c.8 2.5.1 3.6-3.6 5.5-2.8 1.5-3 1.5-4.1-1.1-1.1-2.3-.9-2.8 1.2-4.5 3.2-2.4 5.7-2.4 6.5.1m-84.5 1.4c0 1.5-4.9 5.1-5.8 4.2-.6-.7 3.7-5.6 5-5.6.4 0 .8.6.8 1.4m33.4.3c.8 1.9-.8 3.8-2.3 2.9-1.6-1-1.3-4.6.3-4.6.8 0 1.7.8 2 1.7m-5.2.5c-.5.7-1.2 2.4-1.4 3.7-.4 3.2-2.4 3.8-3.2.9-.4-1.7.1-2.8 1.7-4 2.6-2 4.4-2.4 2.9-.6m14.8-.7c0 .3-.2.5-.5.5s-.5-.2-.5-.5.2-.5.5-.5.5.2.5.5m5 1.4c0 1.2-2 2.5-2.7 1.8s.6-2.7 1.8-2.7c.5 0 .9.4.9.9m-26 1.5c0 .3-.4.8-1 1.1-.5.3-1 .1-1-.4 0-.6.5-1.1 1-1.1.6 0 1 .2 1 .4m14.7 1.3c-.4.3-.7 0-.7-.7s.3-1 .7-.7c.3.4.3 1 0 1.4m36.3.2c1.5 2.9 1.3 3.4-2.1 5.4-3.7 2.1-4.9 1.5-4.9-2.2 0-1.9.7-3.1 2.3-3.9 3.1-1.5 3.5-1.4 4.7.7m-61.5 2.1c-1.9 2.1-3.5 2.6-3.5 1.2 0-.5 1-1.4 2.3-2 3.1-1.5 3.2-1.4 1.2.8m30.5-1c0 .5-.7 1-1.5 1s-1.5-.5-1.5-1c0-.6.7-1 1.5-1s1.5.4 1.5 1m-44 1.9c0 .5-1 1.1-2.2 1.4-1.3.3-3.3.9-4.5 1.2-1.7.6-2.3.3-2.3-.9 0-.9 1.2-1.8 2.8-2.2 1.5-.3 3.2-.7 3.7-.9 1.3-.3 2.5.4 2.5 1.4m82.7 6.3c-4.5 2.6-8.6 4.8-9 4.8-.5 0-2.1.8-3.5 1.8-1.5 1.1-5.8 3.6-9.7 5.7-3.8 2.1-10.6 5.8-15 8.3-23.2 13-27.1 15-27.7 14.4-.3-.4-.9-2.3-1.3-4.3-.7-3.6-.7-3.6 3.2-3.5 2.1 0 4.1.5 4.4.9.9 1.3 3.7-.3 4.2-2.5.4-1.4 1.1-1.8 2.4-1.4 2.1.7 3.7-.2 4.6-2.7.3-.9 1.6-1.7 2.7-1.7s2.3-.7 2.6-1.5c.7-1.7 3.4-2.1 3.4-.5 0 2.1 1.9.8 2.9-2 1-3.1 2.6-3.9 3.4-1.8.5 1.7 3.7-.8 3.7-2.9 0-.9.6-1.3 1.5-.9 1.9.7 4.5-.3 4.5-1.8 0-1.7 5.7-4.9 6.5-3.6 1.1 1.7 3.5 1.1 3.5-.9 0-2.5 6-6.4 7.7-5 1.4 1.3 3.3.4 3.3-1.6 0-.7 1.4-2.2 3.1-3.3 2.9-1.8 3.3-1.8 5-.4 1.8 1.5 1.4 1.9-6.4 6.4m-60.3-5.5c.7 1.7-1.2 3.6-2.6 2.7-.4-.3-.8-1.4-.8-2.5 0-2.3 2.5-2.5 3.4-.2m14.3 2c-.3.3-1.1.2-1.7-.2-.8-.5-.7-1.1.2-2.2 1.2-1.5 1.3-1.4 1.6.1.2 1 .1 2-.1 2.3m63.9-1.2c.9 3.7.2 4.8-5.4 7.8-4.7 2.6-5.3 2.7-9.5 1.5-5.4-1.4-6.9-.5-8.9 4.8-.9 2.6-1.6 3.3-3 2.8-2.7-.8-5.6 1.3-6 4.3-.3 2.4-1.7 3.5-9.6 7.6-9.3 4.9-9.3 4.9-13.3 3l-3.9-1.9 5.7-3.3c3.2-1.9 8.3-4.7 11.3-6.4 3-1.6 6-3.3 6.5-3.7.6-.4 5.5-3.1 11-6.1 5.5-2.9 12.7-6.9 16-9 7.2-4.5 8.3-4.6 9.1-1.4m-49.4 0c0 .5-.5 1.1-1.1 1.3s-1.1-.4-1.1-1.3.5-1.5 1.1-1.3 1.1.8 1.1 1.3m-45.9 2.5c-2.1 3.6-2.9 3.7-3.8.9-.8-2.3.8-3.9 3.8-3.9 1.7 0 1.7.1 0 3m59.1-.4c.4 1.5.6 2.7.4 2.8-2.8 2-5.4 3.6-5.9 3.6-.4 0-1-1.2-1.4-2.7-.5-2.1-.1-3.1 1.7-4.5 3.2-2.4 4.5-2.2 5.2.8m-74.9-.6c.3.5.1 1-.4 1-.6 0-1.1-.5-1.1-1 0-.6.2-1 .4-1 .3 0 .8.4 1.1 1m66.5-.5c0 .3-.2.5-.5.5s-.5-.2-.5-.5.2-.5.5-.5.5.2.5.5m-56 3.1c1.6 4.2 1.1 5.1-1 1.6-2.3-3.7-2.4-4.2-1-4.2.6 0 1.5 1.2 2 2.6m16-.6c0 1.1-.2 2-.4 2s-1.1.3-1.9.6c-1.5.5-3.1-2.1-2.1-3.7 1.1-1.8 4.4-1 4.4 1.1m9.7-1.3c-.4.3-1 .3-1.4 0-.3-.4 0-.7.7-.7s1 .3.7.7m5.3-.3c0 .2-.3 1.1-.6 2-.9 2.3-2.4 2-2.4-.4 0-1.1.7-2 1.5-2s1.5.2 1.5.4m14.8.8c-.6 1.8-2.8 2.1-2.8.4 0-.9.7-1.6 1.6-1.6s1.4.5 1.2 1.2m-60.2 1.3c-2.1 1.6-3.2 1.3-2.1-.4.3-.6 1.4-1.1 2.3-1.1 1.5.1 1.5.2-.2 1.5m24.4 2.6c0 1.7-.4 2.8-1 2.4-.5-.3-1-1.7-1-3.1 0-1.3.5-2.4 1-2.4.6 0 1 1.4 1 3.1m9-1.6c0 .3-.2.5-.5.5s-.5-.2-.5-.5.2-.5.5-.5.5.2.5.5m20.2 2.7c-.9.9-1.5.9-2.4 0-1-1-1-1.5.2-2.2.9-.6 1.9-.5 2.4 0 .7.7.6 1.4-.2 2.2m-50.2-1.8c0 .3-.4.8-1 1.1-.5.3-1 .1-1-.4 0-.6.5-1.1 1-1.1.6 0 1 .2 1 .4m6 1.1c0 2.1-3.9 4-5.3 2.6-.8-.8-.5-1.5.9-2.6 2.5-1.9 4.4-1.9 4.4 0m29 0c0 .8-.7 1.5-1.5 1.5-1.6 0-2-1.2-.8-2.3 1.1-1.2 2.3-.8 2.3.8m30-.5c0 .5-.7 1-1.5 1s-1.5-.5-1.5-1c0-.6.7-1 1.5-1s1.5.4 1.5 1m-50.4 4.7c-1.1 1.1-1.9-.6-1.1-2.4.8-1.7.8-1.7 1.2 0 .3 1 .2 2.1-.1 2.4M520 431c0 .5-.4 1-1 1-.5 0-1-.5-1-1 0-.6.5-1 1-1 .6 0 1 .4 1 1m15 0c0 .5-.5 1-1.1 1-.5 0-.7-.5-.4-1 .3-.6.8-1 1.1-1 .2 0 .4.4.4 1m60-.4c0 .4-.6 1.2-1.4 1.8-1.2.9-1.3 2.5-.7 8.1 1 8.2.2 9.5-8 13.9-4 2.2-4.9 2.4-4.9 1.2 0-.9-.6-1.6-1.3-1.6s-1.3 1.1-1.2 2.7c0 2.3-.7 2.9-5.5 4.6-9.7 3.4-20.3 5.7-29 6.3-8.5.6-8.5.6-5-1.6 4.3-2.7 4.8-3.5 4.3-6.3-.3-1.9 1-2.9 8.7-6.9 9-4.7 9-4.7 12.4-2.7 2.8 1.6 3.8 1.8 6 .8 1.8-.9 2.6-2 2.6-3.7 0-1.4.3-2.3.6-1.9.8.7 8.6-3.1 9.7-4.7.4-.6.6-2.1.5-3.4-.2-1.7.7-2.8 3.7-4.6 3.8-2.3 8.5-3.3 8.5-2m-178 .9c0 .3-.2.5-.5.5s-.5-.2-.5-.5.2-.5.5-.5.5.2.5.5m92 2.5c-2.1 1.4-3 1.2-3-.4 0-1.8 2.2-2.7 3.5-1.4.6.6.5 1.2-.5 1.8m16-1.6c0 .8-.7 1.6-1.5 2-1 .4-1.5-.1-1.5-1.4 0-1.1.7-2 1.5-2s1.5.6 1.5 1.4m14.1.9c-1.3 1.3-2.6.3-1.6-1.2.3-.6 1.1-.8 1.7-.5.6.4.6 1-.1 1.7m34.6 5c-2.4 4.9-3.7 5.2-3.7.8 0-2.7 3.9-7.6 5.2-6.3.4.4-.3 2.9-1.5 5.5M422 434.7c0 1-5.2 3.5-5.8 2.8-.2-.2-.2-1.1.1-2 .6-1.5 5.7-2.2 5.7-.8m71.8 2.9c.2 2.4-.2 3.3-2.3 4.2-3.4 1.6-3.2 1.7-5-1.9-1.5-2.9-1.5-3.2.2-4.5 1-.8 2.9-1.3 4.3-1.1 2 .2 2.6.8 2.8 3.3m19.2-3.1c0 .3-.2.5-.5.5s-.5-.2-.5-.5.2-.5.5-.5.5.2.5.5m5 1.5c0 1.1-.7 2-1.5 2-1.8 0-1.9-1.2-.3-2.8s1.8-1.5 1.8.8m-14 .5c0 .8-.4 1.5-1 1.5-.5 0-1-.7-1-1.5s.5-1.5 1-1.5c.6 0 1 .7 1 1.5m30-.6c0 1-3 2.4-3.7 1.7-.3-.3-.2-.9.2-1.5.8-1.3 3.5-1.5 3.5-.2m46 .1c0 .5-.2 1-.4 1-.3 0-.8-.5-1.1-1-.3-.6-.1-1 .4-1 .6 0 1.1.4 1.1 1m16 1.6c0 1.4-.4 2.3-1 1.9-.5-.3-1-1.5-1-2.6 0-1 .5-1.9 1-1.9.6 0 1 1.2 1 2.6m-113 .9c0 .3-.2.5-.5.5s-.5-.2-.5-.5.2-.5.5-.5.5.2.5.5m29 1c0 .8-.9 1.9-2 2.5-1.7.9-2 .8-2-.8 0-1 .3-2.2.7-2.5 1.2-1.2 3.3-.7 3.3.8m14.8-.3c-.6 1.8-2.8 2.1-2.8.4 0-.9.7-1.6 1.6-1.6s1.4.5 1.2 1.2m53.9.5c-.4.3-.7 0-.7-.7s.3-1 .7-.7c.3.4.3 1 0 1.4m-4.7 1.9c0 .8-.5 1.2-1 .9-.6-.4-.8-1.1-.5-1.6.9-1.4 1.5-1.1 1.5.7m-56 .8c0 1.6-1.8 3.1-2.7 2.2-.8-.8.5-3.6 1.7-3.6.5 0 1 .6 1 1.4m47-.4c.8.5 1.1 1.2.8 1.6-1 .9-3.8-.3-3.8-1.6 0-1.2 1-1.3 3 0m-61 1c0 .5-.4 1-1 1-.5 0-1-.5-1-1 0-.6.5-1 1-1 .6 0 1 .4 1 1m6.6 4.6c-1.3.9-2.3 1.1-3 .4s-.3-1.5 1-2.4c1.3-1 2.2-1.1 2.9-.5.7.7.4 1.5-.9 2.5m53.6-2.3c3.4 1.2 3.6 1.5 2.5 3.1-1.1 1.5-1.7 1.6-4 .5-1.5-.7-2.7-2-2.7-3.1 0-1 .1-1.8.3-1.8.1 0 1.9.6 3.9 1.3M508 449c0 .5-.4 1-1 1-.5 0-1-.5-1-1 0-.6.5-1 1-1 .6 0 1 .4 1 1m91 5.4c0 1.4-.4 2.8-1 3.1-.6.4-1-.7-1-2.4s.5-3.1 1-3.1c.6 0 1 1.1 1 2.4m-4 2.7c0 2.8-.1 2.8-2 1.2-1.1-1-2-2.5-2-3.4 0-1.2.6-1.6 2-1.2s2 1.4 2 3.4m-7.1.5c-1.2 1.4-8.1 5.4-9.4 5.4-.3 0-.5-.7-.5-1.5s.4-1.5.8-1.5c.5 0 2.9-1.3 5.3-3 4.3-2.8 6.4-2.5 3.8.6m-55 2.4c-2.2 4.1-4.9 5.4-4.9 2.2 0-2.7 2.9-6.2 5-6.2 1.9 0 1.9.1-.1 4m7.1.5c0 3.3-1.5 3.3-1.6 0-.1-1.4.2-2.5.7-2.5s.9 1.1.9 2.5m48.6.9c-4.2 3.5-10.5 6.6-11.1 5.6-.3-.5 1.7-2.1 4.4-3.4 2.7-1.4 5.2-3 5.6-3.6.3-.5 1.4-1 2.3-1 1.3.1 1 .7-1.2 2.4m-12.8 2.3c-.8 4.1-28 10.2-46 10.3-8.5 0-10.8-.5-10.8-2.6 0-1.1 2.6-1.4 13.6-1.4 7.5 0 15.3-.4 17.3-.9s7.7-1.9 12.6-3.2c5-1.2 9.4-2.5 10-3 1.6-1.5 3.7-1 3.3.8m15.2-1.3c0 .3-.5.8-1.2 1.2s-.8.3-.4-.4c.7-1.2 1.6-1.6 1.6-.8m-56.5 1.5c.3.5.1 1.2-.5 1.6-.5.3-1-.1-1-.9 0-1.8.6-2.1 1.5-.7m51.1 2.6c-1.1.8-2.5 1.5-3 1.5-.6-.1 0-.7 1.4-1.5 3.2-1.9 4-1.8 1.6 0m-55.6.5c1.1.7.7 1-1.8 1-2 0-3.1-.4-2.7-1 .8-1.3 2.6-1.3 4.5 0m-37.5.9c.7 1.2-2.6 3.1-5.2 3.1-1.6-.1-1.5-.3.6-2 2.6-2.2 3.7-2.5 4.6-1.1m83.3.2c-.6 1.7-14.8 5.8-25.3 7.3-6.1.8-1.9-1 5.5-2.3 7-1.3 12-2.8 16-4.8 3.1-1.6 4.3-1.6 3.8-.2m5.2.3c0 .3-.5.8-1.2 1.2s-.8.3-.4-.4c.7-1.2 1.6-1.6 1.6-.8m-5.3 3.3c-.4.3-1 .3-1.4 0-.3-.4 0-.7.7-.7s1 .3.7.7m-84.8 3.4c-1.8 1.2-5.1.7-5.6-.8-.3-.7.9-1.3 2.9-1.5 3.5-.3 4.9.9 2.7 2.3m82.1-2.6c0 .3-.2.5-.5.5s-.5-.2-.5-.5.2-.5.5-.5.5.2.5.5m-73.7 2.5c1.5.7 2.7 1.7 2.7 2.1 0 .5-1.6-.1-3.5-1.2-1.9-1.2-3.5-2.3-3.5-2.6 0-.4 0-.4 4.3 1.7m70.4-1.3c-.4.3-1 .3-1.4 0-.3-.4 0-.7.7-.7s1 .3.7.7m-4.2 1.3c-1.1.5-2.7.9-3.5.9-1.3.1-1.3 0 0-.9.8-.5 2.4-.9 3.5-.9 2 0 2 0 0 .9m-20.5.5c0 .3-.2.5-.5.5s-.5-.2-.5-.5.2-.5.5-.5.5.2.5.5m12.7 1.2c-.4.3-1 .3-1.4 0-.3-.4 0-.7.7-.7s1 .3.7.7m-3.4 1c-.7.2-2.1.2-3 0-1-.3-.4-.5 1.2-.5 1.7 0 2.4.2 1.8.5m-32 1c-.7.2-2.1.2-3 0-1-.3-.4-.5 1.2-.5 1.7 0 2.4.2 1.8.5m24.4-.1c-.3.3-1.2.4-1.9.1-.8-.3-.5-.6.6-.6 1.1-.1 1.7.2 1.3.5"/><path d="M504.3 315.7c.4.3 1 .3 1.4 0 .3-.4 0-.7-.7-.7s-1 .3-.7.7M518.3 315.7c.4.3 1 .3 1.4 0 .3-.4 0-.7-.7-.7s-1 .3-.7.7M496 318.5c0 .3.2.5.5.5s.5-.2.5-.5-.2-.5-.5-.5-.5.2-.5.5M525 319c0 .7.3 1 .7.7.3-.4.3-1 0-1.4-.4-.3-.7 0-.7.7M539 325c0 .7.3 1 .7.7.3-.4.3-1 0-1.4-.4-.3-.7 0-.7.7M544.3 331.7c.4.3 1 .3 1.4 0 .3-.4 0-.7-.7-.7s-1 .3-.7.7M552 332c0 .7.3 1 .7.7.3-.4.3-1 0-1.4-.4-.3-.7 0-.7.7M463 332.5c0 .3.2.5.5.5s.5-.2.5-.5-.2-.5-.5-.5-.5.2-.5.5M467 333c0 .7.3 1 .7.7.3-.4.3-1 0-1.4-.4-.3-.7 0-.7.7M552 335.5c0 .3.2.5.5.5s.5-.2.5-.5-.2-.5-.5-.5-.5.2-.5.5M552.3 342.7c.4.3 1 .3 1.4 0 .3-.4 0-.7-.7-.7s-1 .3-.7.7M438.3 344.7c.4.3 1 .3 1.4 0 .3-.4 0-.7-.7-.7s-1 .3-.7.7M444 345c0 .7.3 1 .7.7.3-.4.3-1 0-1.4-.4-.3-.7 0-.7.7M555 348c0 .7.3 1 .7.7.3-.4.3-1 0-1.4-.4-.3-.7 0-.7.7M555 351c0 .7.3 1 .7.7.3-.4.3-1 0-1.4-.4-.3-.7 0-.7.7M548 352.5c0 .3.2.5.5.5s.5-.2.5-.5-.2-.5-.5-.5-.5.2-.5.5M434.3 354.7c.4.3 1 .3 1.4 0 .3-.4 0-.7-.7-.7s-1 .3-.7.7M432.5 359c.3.5.8 1 1.1 1 .2 0 .4-.5.4-1 0-.6-.5-1-1.1-1-.5 0-.7.4-.4 1M541 359c0 .5.5 1 1 1 .6 0 1-.5 1-1 0-.6-.4-1-1-1-.5 0-1 .4-1 1M436 363c0 .7.3 1 .7.7.3-.4.3-1 0-1.4-.4-.3-.7 0-.7.7M532.5 363c-.3.5-.1 1 .4 1 .6 0 1.1-.5 1.1-1 0-.6-.2-1-.4-1-.3 0-.8.4-1.1 1M450 371.5c0 .3.2.5.5.5s.5-.2.5-.5-.2-.5-.5-.5-.5.2-.5.5M455 375.5c0 .3.2.5.5.5s.5-.2.5-.5-.2-.5-.5-.5-.5.2-.5.5M502 378c0 .7.3 1 .7.7.3-.4.3-1 0-1.4-.4-.3-.7 0-.7.7M471 382c0 .7.3 1 .7.7.3-.4.3-1 0-1.4-.4-.3-.7 0-.7.7M477 382.5c0 .3.2.5.5.5s.5-.2.5-.5-.2-.5-.5-.5-.5.2-.5.5M492.9 399.7c-1.2 1.4-1.2 1.6.1 1.1.8-.3 2 .2 2.7 1.1 1.1 1.4 1.2 1.2 1.3-1.2 0-3.1-2-3.6-4.1-1M573.7 454.6c-.8.8.3 3.4 1.4 3.4s1.2-2.7 0-3.4c-.4-.3-1.1-.3-1.4 0M390 362.9c-2.5 1.5-7 4.1-10 5.8-10.4 5.7-15.5 8.6-22 12.3-3.6 2.1-9.6 5.5-13.5 7.5-3.8 2.1-10.1 5.7-14 8-14.4 8.6-20.5 11.5-23.3 10.9-1.5-.2-3.3 0-4.1.5-1.5 1-2.9 8-3 14.9-.1 2.3-1.1 6.3-2.2 8.8-2.1 4.3-2.1 4.8-.6 7.9 1.1 2.2 3.2 4.1 6.8 5.9 9.7 4.8 12.7 3.2 11-6-.6-3.2-1.1-9.7-1.1-14.5v-8.7l13-7.1c7.1-3.9 14.7-8.1 16.7-9.3 2.1-1.1 6.1-3.3 8.8-4.8 2.8-1.5 10.2-5.6 16.5-9.2 6.3-3.5 14.7-8.2 18.5-10.3 3.9-2.1 8.7-4.7 10.8-5.8 2.9-1.6 3.7-2.7 3.7-4.9 0-2.1.5-2.8 2-2.8 1.3 0 2 .7 2 2 0 1.1.4 2 .8 2 .5 0 .7-1.4.4-3-.3-2.3-.9-3-2.6-3-1.2 0-2.7.5-3.3 1.1-.8.8-1.3.8-1.7 0-1.2-1.8-4.8-1.1-9.6 1.8m8.8.3c1.9 1.9 1.4 3.5-1.5 5.1-1.6.7-5 2.6-7.8 4.2-2.7 1.5-6.9 3.8-9.2 5.1-11.4 6.4-13.6 7.6-18 10.1-8.8 4.9-20.8 11.5-26.3 14.6-3 1.6-7.5 4.1-10 5.5-12.1 6.7-12.1 6.7-13 5.2-2-3.1-.8-4.6 7.8-9.2 13-7.1 21.6-11.9 22.7-12.7.6-.5 4.6-2.7 9-5.1s9.1-5.1 10.5-6 4.1-2.4 6-3.3c1.9-1 8.5-4.6 14.5-8.1 11.6-6.7 13.4-7.3 15.3-5.4M304 410.5c0 .3-.2.5-.5.5s-.5-.2-.5-.5.2-.5.5-.5.5.2.5.5m5.7 2.6c.7 1.4 1.2 6.2 1.2 11.4 0 4.9.5 11.7 1 15 .6 3.3 1.1 6.1 1.1 6.2 0 .9-4.1 0-8.1-1.9-6.6-2.9-8-6.3-5.1-12.4 1.4-2.7 2.2-6.4 2.2-9.4 0-2.7.5-5.2 1-5.5.6-.3 1-.2 1 .3s.9 1.2 2.1 1.5c2.8.8 3.6-2 1.6-5.6-1.2-1.9-1.3-2.7-.5-2.5.7.3 1.9 1.5 2.5 2.9m-2.8 2.5c.3 1.6.1 1.7-1.3.5-1.9-1.6-2.1-3.4-.3-2.9.6.3 1.4 1.3 1.6 2.4"/><path d="M305.2 423.3c-.5.6-1.9 3.8-3 7.1-2.4 6.6-1.9 8.4 2.9 10.5 5 2.2 6.1 1 5.4-5.6-1.1-10.1-3.2-14.7-5.3-12m2.8 9.8c.6 6.1.3 6.6-3.2 4.8-2.1-1.1-2-3.2.4-9.2 1.5-3.7 2.1-2.7 2.8 4.4M406 374.6c0 2.5.4 4.3.9 4 .4-.3.8-2.4.8-4.6s-.4-4-.8-4c-.5 0-.9 2.1-.9 4.6M646.5 380.2c-.3 1.3-.5 7-.3 12.8l.3 10.5 43.4.7c23.9.5 43.6.7 43.7.5.8-.8 1.3-22.3.6-23.4-.5-.9-7.4-1.4-23.7-1.8-12.7-.3-32.1-.7-43.2-1-20.3-.5-20.3-.5-20.8 1.7m73.3 1.8H731v21.1l-4.7-.5c-2.7-.3-20.9-.6-40.5-.6l-35.8-.2v-21.1l29.3.6c16 .4 34.3.7 40.5.7"/><path d="M656.6 384.2c-2.2 3-2.1 12.1 0 13.9 2.2 1.8 4.8-.1 5.2-3.8.2-2.3-.3-3.6-2.3-5.1-3-2.4-2.6-4.3.6-3.5 1.9.5 2 .4 1-1.6-1.5-2.7-2.6-2.7-4.5.1m3.4 9.4c0 2.6-1.7 3.3-2.6.9-.8-2 .3-4.8 1.6-4 .5.3 1 1.7 1 3.1M668 383.5c-.6 5.5 0 16 .9 15.9 3.4-.3 3.5-.4 2.3-1.6-.7-.7-1.2-4-1.2-8 0-3.9-.4-6.8-1-6.8-.5 0-1 .2-1 .5M687 390.5c0 4.1-.1 7.8-.2 8.2-.5 1.3 4.2 1.5 5.7.3 1.6-1.4 1.8-12.8.3-14.8-.6-.6-2.1-1.2-3.4-1.2-2.3 0-2.4.3-2.4 7.5m4.5-1.8c-.7 1.7-.8 1.7-1.5-.2-.9-2.4-.2-4.1 1.2-2.7.6.6.7 1.9.3 2.9m.5 5.8c0 1.6-.6 2.5-1.6 2.5-1.1 0-1.4-.5-1-1.6.3-.9.6-2 .6-2.5s.5-.9 1-.9c.6 0 1 1.1 1 2.5M698.9 384.7c-2.1 2.4-1.8 11.8.4 14 2.7 2.7 4.6 0 4.8-6.9.3-7.6-2.2-10.8-5.2-7.1m3.1 6.8c0 3-.4 5.5-1 5.5-.5 0-1-2.5-1-5.5s.5-5.5 1-5.5c.6 0 1 2.5 1 5.5M710.9 383c0 .3-.3 4.2-.5 8.7-.3 7.4-.2 8.3 1.4 8.3 1.5 0 1.7-.9 1.4-7.8-.2-4.2-.8-8.1-1.3-8.7-.5-.5-.9-.7-1-.5M676.5 391c-.7 1.1 3.9 2.5 5.5 1.5.5-.3.8-1.1.5-1.6-.8-1.2-5.2-1.2-6 .1M406 389.4c0 3.1.5 5.6 1 5.6.6 0 1-2.2 1-4.9 0-2.8-.4-5.3-1-5.6-.6-.4-1 1.5-1 4.9M406 406c0 3.2.4 4.9 1 4.5.6-.3 1-2.4 1-4.5s-.4-4.2-1-4.5c-.6-.4-1 1.3-1 4.5M477.3 404.1c-.6.6-.9 1.8-.6 2.5.3.8-.6 1.8-2.1 2.5-2.6 1.2-3.5 2.9-1.6 2.9 2.2 0 5.9-3.2 5.3-4.6-.3-.8.1-1.4 1-1.4 1.9 0 3 2.9 1.7 4.5-1.2 1.5-.3 2.6 1.6 1.8 2.2-.8 1.7-6-.8-7.7-2.7-1.9-3.1-1.9-4.5-.5M463.6 415.5c-1 .8-2.4 1.6-3 1.8s-.8.7-.5 1.1c.8.8 7.9-2.4 7.9-3.6s-2.3-.9-4.4.7M406 419.9c0 2.8.5 5.1 1 5.1.6 0 1-2 1-4.4 0-2.5-.4-4.8-1-5.1-.6-.4-1 1.3-1 4.4M461.1 423.7c-1.7 3.1-3.1 6.3-3.1 7 0 2.6-3.8.6-5.8-3.2-1-1.7-1.1-1.7-1.2-.3 0 .9-.7 2.1-1.6 2.6s-1.6 2.1-1.6 3.6c0 2.7-.7 3.2-2.3 1.7-1.5-1.4-5.9-2.5-5.1-1.3.9 1.5 13.2 7.2 15.5 7.2 1 0 2.1.5 2.3 1.1.4 1.3 8.8-2.9 8.8-4.4 0-1.1-1.4-.8-3.6.8-3 2.3-3.4 1.9-3.4-4 0-5 1.8-10.1 5.2-14.2.5-.7.5-1.3-.1-1.7-.5-.3-2.3 1.9-4 5.1m-6.6 9c2.1 1 3.5 2.4 3.5 3.5 0 2.3-.2 2.2-5-.2-3.9-2-4.7-3-3.3-4.3.9-.9.7-.9 4.8 1"/><path d="M451.7 421.9c-3.9 2.6-4.5 3.5-1.8 2.8 1.7-.4 2.9 0 3.8 1.1 1.3 1.6 1.4 1.5 1-.5-.3-1.3-.1-2.6.4-2.9 1.1-.6 1.2-2.4.2-2.3-.5 0-2 .8-3.6 1.8M441.6 427.5c-1 .8-2.4 1.6-3 1.8s-.8.7-.4 1.1c.9 1.1 7-2.3 6.3-3.4-.8-1.2-.6-1.2-2.9.5M406 432.5c0 2.8.4 4.4 1 4 .6-.3 1-2.1 1-4s-.4-3.7-1-4c-.6-.4-1 1.2-1 4M431.2 437.9c-1 .6-.8 1.2 1 2.3 5.4 3.5 12.7 6.7 13.3 5.8 1-1.6-.1-2.6-6-5.9-5.9-3.4-6.4-3.5-8.3-2.2M405.9 442.6c-.4 1.2-.2 2.8.3 3.7.7 1.3 1.3 1.4 3.3.5 3.2-1.4 3.2-3 .1-2.2-2 .5-2.5.2-2.8-1.8-.3-2.2-.4-2.2-.9-.2M426.8 442.6c-.8 1.7-.3 7.9.7 8.4 1.3.7 1.9-5.5.7-7.6-.5-.9-1.1-1.3-1.4-.8M449.3 446.3c-1.8 1.2-3.3 2.5-3.3 3 0 .8 4.4-1.3 7.5-3.7 3.2-2.5-.4-1.9-4.2.7M495.7 449.6c-1 1.1-.8 6.4.2 6.4 1.4 0 2.3-3.7 1.4-5.5-.5-.9-1.2-1.2-1.6-.9M435.3 454.3c-3.3 2.2-4.2 3.7-2.3 3.7.6 0 1-.3 1-.8 0-.4 1.4-1.3 3-2 1.7-.8 3-1.8 3-2.3 0-1.4-1.1-1-4.7 1.4M244.5 459.1c-.3.8-.4 26.4-.3 56.9l.3 55.5 34 .5 34 .5v11.9c0 8.6.4 12.1 1.3 12.4s1.2-2.6 1.2-12.2V572h73l.1-7.8c.5-42.8.5-103.3-.1-104.3-.6-.9-17.9-1.3-71.9-1.7-60.1-.4-71.1-.3-71.6.9m116.3 1.9H386v109l-69.7-.2-69.8-.3-.3-54.9-.2-54.9 44.7.6c24.7.4 56.2.7 70.1.7"/><path d="M334.5 480c-1.1.5-3.4.9-5.1.9-3.5.1-5.4 3-5.4 8.1 0 1.7-.4 3-1 3-.5 0-1-.5-1-1 0-1.7-2.9-1.1-5 1-1.1 1.1-2.6 2-3.4 2s-1.8.9-2.1 2c-.7 2.3 1 5 3 5s10.3 8.5 11 11.3c.4 1.4 2.2 4.3 3.9 6.3 2.8 3.2 3.9 3.8 7 3.7 2.1-.1 4.3-.6 5-1.3.6-.6 1.1-4.6 1.1-10 0-9.9-1.1-12.4-4.5-10.2-1.9 1.2-2 .9-2-5.1 0-3.5-.5-6.8-1.2-7.5-.8-.8-.5-1.4 1.4-2.1 3.6-1.4 4.1-2.6 2-4.9-1.2-1.5-2.2-1.8-3.7-1.2m2.5 2.9c0 1.2-2.9 2.3-4.1 1.5-.5-.3-.7-1-.4-1.5.8-1.2 4.5-1.2 4.5 0m-8.5 4.1c.3.5.1 1-.4 1-.6 0-1.1-.5-1.1-1 0-.6.2-1 .4-1 .3 0 .8.4 1.1 1m3.9 3.7c.3 1.6.8 5.6 1.1 9 .7 6.7 2.4 8.1 5.1 4.5 1.2-1.5 1.3-.7 1.4 5.6 0 9-1.1 11.6-4.8 10.7-5.6-1.4-8.2-6.7-8.2-16.6 0-3.9-.4-6.9-1-6.9-.5 0-1.1 1-1.1 2.2-.1 1.8-.2 1.9-.6.5-.6-2.5-2.3-1.1-2.3 2 0 2.5 0 2.6-2 .8-1.1-1-2-2.4-2-3.2 0-.7-.9-1.3-2-1.3s-2-.5-2-1c0-.6 1.4-1 3-1 2.1 0 3-.5 3-1.7 0-1.5.2-1.5 1.9.1 2.4 2.2 4.1 1.3 4.1-2.1 0-1.8.4-2.4 1.5-1.9.9.3 1.8-.1 2.1-.9.9-2.3 2.2-1.8 2.8 1.2"/><path d="M329 509.1c-.9 1.6-.7 2.7.7 5.2 3.5 6 9.9 3.9 7.3-2.3-2-4.9-6.2-6.4-8-2.9m4.8 1.1c.7.7 1.2 2.3 1.2 3.7-.1 2.6-.1 2.6-2 .2-3.1-3.6-2.3-7 .8-3.9M377.8 486.6c-2.3 1.2-3.8 3.4-2.5 3.4s6.7-3.3 6.7-4.1c0-1.2-1-1.1-4.2.7M353.2 490.7c-1.6.6-5.2 8.1-5.2 10.9 0 1.2 1.3 3.3 3 4.8 2.5 2.1 3.5 2.4 5.6 1.6 1.4-.6 2.9-.8 3.2-.6 1.2.7 4.2-2 4.3-4 .4-4.4-.3-6.5-3.2-9.9-2.9-3.3-4.8-4-7.7-2.8m3.3 2.3c.3.5-.3 1-1.5 1s-1.8-.5-1.5-1c.3-.6 1-1 1.5-1s1.2.4 1.5 1m2.5 2.5c0 .3-.2.5-.5.5s-.5-.2-.5-.5.2-.5.5-.5.5.2.5.5m-.6 2.7c1.7 2.4 2.1 5.8.7 5.8-.5 0-1.4-1.4-2.1-3-.7-1.7-1.6-3-2.1-3s-.9-.5-.9-1c0-1.8 2.9-1 4.4 1.2m2.6-.7c0 .3-.2.5-.5.5s-.5-.2-.5-.5.2-.5.5-.5.5.2.5.5m-8.3 1.2c-.4.3-1 .3-1.4 0-.3-.4 0-.7.7-.7s1 .3.7.7m1.3 3.8c0 .3-.2.5-.5.5s-.5-.2-.5-.5.2-.5.5-.5.5.2.5.5M366.8 492.8c-2.5 1.5-3.7 3.2-2.3 3.2s6.5-3.2 6.5-4c0-1.4-1.1-1.2-4.2.8M308.6 516.3c-4 3.2-4 9.7.1 13.9 2.4 2.6 3.3 2.9 6.7 2.5 7.3-1 9.9-6.9 6-13.6-3.1-5.3-8.2-6.4-12.8-2.8m9.1 1.5c1.6 1 4.2 7.4 3.6 8.9-.8 2.3-2 1.3-3.2-2.8-.7-2.2-1.9-4.3-2.7-4.6-.7-.3-1.1-.9-.8-1.4.6-1.1 1.5-1.1 3.1-.1M312 520c0 1.3-.7 2-2 2s-2-.7-2-2 .7-2 2-2 2 .7 2 2m3 1.5c0 .3-.2.5-.5.5s-.5-.2-.5-.5.2-.5.5-.5.5.2.5.5m-1 4.1c0 .8-.4 1.2-1 .9-.5-.3-1-1-1-1.6 0-.5.5-.9 1-.9.6 0 1 .7 1 1.6m.2 3.7c1.2 1.9-.2 2.7-2.2 1.5-3-1.9-3.5-4.1-.7-3.2 1.2.4 2.5 1.1 2.9 1.7M292.4 532.1c-1.6 1-4.5 1.8-6.5 1.8-2.5.1-4.3.9-6 2.7-2.4 2.5-2.4 2.5-.4 6.1 1.1 2 2.7 4.1 3.6 4.6 2.7 1.7 7-.1 8.2-3.3.6-1.7 1.9-3.3 2.9-3.6 2.2-.7 8.3-7.1 8.3-8.7 0-1.8-6.7-1.5-10.1.4m5.6 3c0 .5-.4.9-1 .9-.5 0-1-.7-1-1.6 0-.8.5-1.2 1-.9.6.3 1 1 1 1.6m-3 1c0 .6-.4.7-1 .4-.5-.3-1-1.1-1-1.6 0-.6.5-.7 1-.4.6.3 1 1.1 1 1.6m-3 1.5c0 .8-.4 1.2-1 .9-.5-.3-1-1-1-1.6 0-.5.5-.9 1-.9.6 0 1 .7 1 1.6m-7.2.6c.7.7 1.2 1.7 1.2 2.2 0 .6-.7.2-1.6-.9-1.3-1.7-1.6-1.8-2.4-.5-.5.8-1 1-1 .4 0-2.4 2-3 3.8-1.2m3.7.9c1 3 .2 3.2-1.2.3-.6-1.3-.7-2.4-.3-2.4.5 0 1.2.9 1.5 2.1m-5.1 4.4c.3.8 1 1.5 1.6 1.5s.8-.5.5-1c-.3-.6-.2-1 .4-1 1.8 0 2.3 2 .6 2.6-1 .4-2.5-.2-3.8-1.5-1.2-1.1-1.6-2.1-1-2.1s1.3.7 1.7 1.5M603.9 461c2.5 2.1 4.1 2.6 4.1 1.2 0-.9-4.4-3.2-5.8-3.2-.4.1.4 1 1.7 2M421.8 462.1c-3.7 2.8-3.6 4.6.1 2 1.6-1.2 3.2-2.1 3.5-2.1s.6 1.8.6 4 .4 4 .9 4c1.4 0 1.7-1.6 1.3-6.1-.5-4.5-2.1-5-6.4-1.8M495 463.5c0 1.4.5 2.5 1 2.5.6 0 1-1.1 1-2.5s-.4-2.5-1-2.5c-.5 0-1 1.1-1 2.5M613.9 467c1.3 1.1 3.1 2 4 2 1 0 .6-.7-1.4-2-3.9-2.6-5.7-2.5-2.6 0M411.3 468c-4.7 2.8-4.1 4.3.7 1.7 2.2-1.2 4-2.5 4-3 0-1.2-1.3-.8-4.7 1.3M641.3 467.6c-4.3 1.9-4.8 6.1-1.1 10 1.3 1.4 1.6 2.4.9 2.9-1.4.8-1.4 2.5-.1 2.5.6 0 1.5-1.1 2-2.5 1.3-3.4 2.6-3.1 3.9.6 1.4 4.2 1.4 4.2-.8 3.6-2.2-.5-8 2.6-8.2 4.5-.5 5.2 2.3 8 7 7.2 6.7-1.1 8.9-2.4 10.5-6.5 2-5 2-8.8 0-13.8-1.6-4-4.3-5.9-6.6-4.5-.8.5-.9.2-.5-1.1.8-1.9-.8-4.6-2.7-4.4-.6 0-2.6.7-4.3 1.5m4.4 1.1c-.4.3-1 .3-1.4 0-.3-.4 0-.7.7-.7s1 .3.7.7m-2 5c-.4.3-1 .3-1.4 0-.3-.4 0-.7.7-.7s1 .3.7.7m9.2 1.2c1.8 3.3 2.4 9.8 1.1 13.5-1.6 4.9-2.6 4.5-2.2-.9.4-4.4-1.2-10.3-3.1-11.6-1.3-.9 0-2.9 1.8-2.9.8 0 1.9.8 2.4 1.9m-4.9 2.6c0 .3-.2.5-.5.5s-.5-.2-.5-.5.2-.5.5-.5.5.2.5.5m-1.2 11.3c.2 1.2-.1 2.2-.7 2.2-1.3 0-3.2-3.5-2.4-4.4 1.2-1.2 2.8 0 3.1 2.2m-5.1.9c-.4.3-1 .3-1.4 0-.3-.4 0-.7.7-.7s1 .3.7.7m6.4 3.6c-1 .9-1.1.8-.5-.6.3-1 .9-1.5 1.2-1.2s0 1.1-.7 1.8M623.9 473c2.5 2.1 4.1 2.6 4.1 1.2 0-.9-4.4-3.2-5.8-3.2-.4.1.4 1 1.7 2M396.2 476.6c-2.4 1.4-4.1 2.8-3.8 3.1.7.7 9.6-3.9 9.6-4.9 0-1.3-1.3-.9-5.8 1.8M576 479.5c0 2.5.5 4.5 1 4.5.6 0 1-2 1-4.5s-.4-4.5-1-4.5c-.5 0-1 2-1 4.5M631 476.6c0 1.1 3.4 3.3 5 3.3 1 .1.6-.6-1-1.9-2.6-2-4-2.5-4-1.4M426.5 480.2c-.9 2.3-.2 8.3 1 8.3 1.4 0 1.9-7.5.6-8.8-.7-.7-1.2-.5-1.6.5M494.7 485c-.7 3.4.1 6.3 1.4 5.4 1.2-.7 1.2-8.4 0-8.4-.5 0-1.1 1.3-1.4 3M564 486.2c-7.1 3.8-25.4 13.8-33 18.1-1.9 1.1-6 3.3-9 5-13.4 7.2-36.3 20.2-37.9 21.4-.3.2-.5 1.9-.4 3.8.1 2.8-.4 3.5-2.8 4.5-2.7 1.2-4 3-2.1 3 2.4 0 7.2-3.4 7.2-5 0-2.6 1.5-3.3 3-1.5 1 1.2.8 1.8-1 3.3-2.2 1.8-2.2 1.8.2 3.4 1.8 1.2 2.9 3.4 4.2 8.5.9 3.7 2.1 8.1 2.6 9.8.4 1.6 1.8 7.3 3 12.5s2.5 10.6 3 12c.4 1.4 1.4 4.6 2 7.2 1.3 4.8 1.3 4.8 5.7 4.8 3.2 0 6.5-1 11.7-3.7 3.9-2.1 7.3-4 7.6-4.3s1.9-1.2 3.5-2.1c12.6-6.8 41.8-23 42.4-23.5.2-.2.2-.6 0-.9-.7-.7-7.2 1.8-8.4 3.2-.5.6-4.6 3-9 5.3-4.4 2.4-9 4.9-10.2 5.6-2.7 1.7-6.5 3.8-16.8 9.4-4.4 2.4-9.3 5.2-11 6.2-4.3 2.6-5 2.3-6.2-2.5-.6-2.3-2.2-8.5-3.6-13.7s-3.3-12.2-4.1-15.4c-1.2-4.4-1.3-6.3-.5-7.3.9-1 .8-1.3-.3-1.3-1.6 0-4.3-8.2-3.4-10.5.3-.8.1-1.5-.4-1.5-.6 0-1-.7-1-1.5 0-1.9 5.4-4.7 7.5-3.9 1 .4 1.5.2 1.3-.6-.2-.7 2.6-2.8 6.1-4.8 5.2-2.9 6.5-3.2 7.3-2.1s.9 1 .4-.4c-.4-1.3.8-2.4 5.2-4.7 3.1-1.6 7.5-4 9.7-5.3 5.6-3.3 15.8-8.8 28.2-15.4 7.1-3.7 10.8-5.2 11.5-4.5.6.6 1.7.8 2.4.5 1.3-.5 1.5.1 1.8 6.4.1 1 .4 2 .8 2.3.7.6 2.3 5.9 5.9 20 2.2 8.8 2.6 23.5.7 24.3q-1.5.6 0 .6c2.3.2 1.2 2.1-2.9 4.7-5.3 3.3-4.3 4.3 1.3 1.2 4.3-2.3 4.3-2.3 5-10.8.4-5.8.2-10.3-.7-14-1.5-6-5.1-19.7-6.5-24.5-.5-1.7-1.7-6.2-2.7-10-1-3.9-2.2-7.6-2.6-8.3-1.2-1.8-2.7-.5-2.7 2.4 0 2.4-1.5 3.3-2.2 1.3-.2-.7-1.8-.3-4.3 1.1-2.2 1.3-6.5 3.6-9.5 5.3-3 1.6-7.3 4-9.5 5.2s-6.7 3.7-10 5.5-8 4.4-10.5 5.8-7 3.8-10 5.5c-3 1.6-5.9 3.3-6.5 3.7-.9.7-2.4 1.6-12.2 7.1-2.1 1.2-4.5 2.7-5.4 3.5-1.3 1.2-1.8 1-3.7-1.6-2.8-3.8-2.8-4.6.6-6.3 6.3-3.3 21.8-12 22.7-12.7.6-.4 4.4-2.5 8.5-4.7s9.5-5.1 12-6.5 7-3.9 10-5.5c3-1.7 9.3-5.2 14-7.8 4.7-2.5 9.8-4.9 11.3-5.2 2.6-.5 3.3-2.4 1.1-2.9-.5-.1-4.3 1.6-8.4 3.8m-72.3 53.5c-.4.3-.7 0-.7-.7s.3-1 .7-.7c.3.4.3 1 0 1.4m5.6 1.3c.3 1.1.1 2-.4 2s-.9-.9-.9-2 .2-2 .4-2 .6.9.9 2m-4.6 2.7c-.4.3-.7 0-.7-.7s.3-1 .7-.7c.3.4.3 1 0 1.4m6.6 3.5c.6 2.1.2 3.6-.7 2.7-1-1.1-1.6-4.9-.8-4.9.5 0 1.2 1 1.5 2.2m-3.6 6c-.3.8-.6.5-.6-.6-.1-1.1.2-1.7.5-1.3.3.3.4 1.2.1 1.9m6.3 2.5c0 1.3-2 1.9-2 .5 0-.4-.3-1.8-.6-3.2-.5-2.4-.5-2.4 1-.6.9 1.1 1.6 2.6 1.6 3.3m-3.1 7.5c1.2 5.2 1.4 7.4.5 6.5-.4-.3-1-2.5-1.4-4.9-.5-2.4-1.2-5.2-1.6-6.3-.5-1.3-.4-1.7.3-1 .6.5 1.5 3.1 2.2 5.7m4.3-1.7c.3 1.4.1 2.5-.3 2.5-.5 0-.9-.3-.9-.8 0-.4-.3-1.8-.7-3.1-.4-1.6-.2-2.2.4-1.8s1.3 1.8 1.5 3.2m3.8 14.8c1.2 4.8 2 9 1.7 9.3s-1.1-1.4-1.7-3.8c-.7-2.3-1.6-5.4-2-6.8-1.6-4.6-2.3-9.6-1.2-8.5.5.5 2 5 3.2 9.8m-5.1-.6c0 2.5-.1 2.6-.9.8-1.2-2.7-1.2-3.5 0-3.5.6 0 1 1.2.9 2.7m2.1 7c0 2.2-.2 2.5-1 1.3-1.3-2-1.3-4 0-4 .6 0 1 1.2 1 2.7m2.4 9.3c.5 3.2.5 3.4-.9 1.6-.8-1.1-1.5-3.1-1.5-4.5 0-3.4 1.6-1.5 2.4 2.9m3.6-3c0 .5-.1 1.1-.2 1.2-.1.2.4 1.3 1.1 2.5.6 1.3.8 2.3.3 2.3s-1.3-1.6-1.9-3.5c-.6-2-.7-3.5-.2-3.5s.9.4.9 1M494 496.5c-.8.9-2.6 2.4-4 3.5-1.7 1.3-2 1.9-1 2 2.1 0 7.4-4.4 6.9-5.8-.3-.9-.8-.8-1.9.3M426.7 499.6c-.7 3.9 0 6.7 1.4 5.8 1.2-.7 1.2-8.1 0-8.8-.5-.3-1.1 1-1.4 3"/><path d="M571 500.5c0 .3.2.5.5.5s.5-.2.5-.5-.2-.5-.5-.5-.5.2-.5.5M576.7 503.7c-1.1 1-.8 8.1.3 8.8.6.4 1-1.3 1-4.4 0-5.2-.1-5.6-1.3-4.4M479.2 505.2c-1.3 1.3-1.6 2.8-.4 2.8.4 0 1.8-.9 3.2-2 2.3-1.8 2.4-2 .5-2-1.2 0-2.6.5-3.3 1.2M567 504.5c0 .3.2.5.5.5s.5-.2.5-.5-.2-.5-.5-.5-.5.2-.5.5M571 504.5c0 .3.2.5.5.5s.5-.2.5-.5-.2-.5-.5-.5-.5.2-.5.5M470.1 510.8c-1.3 1.8-1.7 3.3-1.1 4.2.7 1.1 1.1.8 1.9-1.3.6-1.5 1.8-3 2.6-3.3 1.9-.8 2-2.4.1-2.4-.8 0-2.4 1.3-3.5 2.8M558.5 509c-.3.5-.1 1 .4 1 .6 0 1.1-.5 1.1-1 0-.6-.2-1-.4-1-.3 0-.8.4-1.1 1M563 509c0 .7.3 1 .7.7.3-.4.3-1 0-1.4-.4-.3-.7 0-.7.7M571 509.5c0 .3.2.5.5.5s.5-.2.5-.5-.2-.5-.5-.5-.5.2-.5.5M552 511.5c0 .3.2.5.5.5s.5-.2.5-.5-.2-.5-.5-.5-.5.2-.5.5M426.4 515.4c-.7 3-.2 5.6 1.1 5.9s1.7-7 .5-7.8c-.5-.3-1.2.5-1.6 1.9M557 515c0 .7.3 1 .7.7.3-.4.3-1 0-1.4-.4-.3-.7 0-.7.7M566.3 515.7c.4.3 1 .3 1.4 0 .3-.4 0-.7-.7-.7s-1 .3-.7.7M545 516.5c0 .3.2.5.5.5s.5-.2.5-.5-.2-.5-.5-.5-.5.2-.5.5M550 516.5c0 .3.2.5.5.5s.5-.2.5-.5-.2-.5-.5-.5-.5.2-.5.5M540.3 517.7c.4.3 1 .3 1.4 0 .3-.4 0-.7-.7-.7s-1 .3-.7.7M468.7 518.7c-1.1 1-.8 5.1.3 5.8.6.4 1-.8 1-2.9 0-3.7-.2-4.1-1.3-2.9M560 519.5c0 .3.2.5.5.5s.5-.2.5-.5-.2-.5-.5-.5-.5.2-.5.5M576 524c0 2.7.5 5 1 5 .6 0 1-2.3 1-5 0-2.8-.4-5-1-5-.5 0-1 2.2-1 5M583 519.5c0 .3.2.5.5.5s.5-.2.5-.5-.2-.5-.5-.5-.5.2-.5.5M536 520.5c0 .3.2.5.5.5s.5-.2.5-.5-.2-.5-.5-.5-.5.2-.5.5M570 521c0 .5.5 1 1.1 1 .5 0 .7-.5.4-1-.3-.6-.8-1-1.1-1-.2 0-.4.4-.4 1M543 522.5c0 .3.2.5.5.5s.5-.2.5-.5-.2-.5-.5-.5-.5.2-.5.5M528 524c0 .7.3 1 .7.7.3-.4.3-1 0-1.4-.4-.3-.7 0-.7.7M538 526c0 .7.3 1 .7.7.3-.4.3-1 0-1.4-.4-.3-.7 0-.7.7M555 525.5c0 .3.2.5.5.5s.5-.2.5-.5-.2-.5-.5-.5-.5.2-.5.5M561 525.5c0 .3.2.5.5.5s.5-.2.5-.5-.2-.5-.5-.5-.5.2-.5.5M584 526.5c0 .3.2.5.5.5s.5-.2.5-.5-.2-.5-.5-.5-.5.2-.5.5M546.3 527.7c.4.3 1 .3 1.4 0 .3-.4 0-.7-.7-.7s-1 .3-.7.7M570 527.5c0 .3.2.5.5.5s.5-.2.5-.5-.2-.5-.5-.5-.5.2-.5.5M426.6 529.6c-1 2.5-.7 8.2.4 8.9.6.4 1-1.5 1-4.9 0-5.8-.3-6.8-1.4-4M532 529c0 .7.3 1 .7.7.3-.4.3-1 0-1.4-.4-.3-.7 0-.7.7M586 529c0 .7.3 1 .7.7.3-.4.3-1 0-1.4-.4-.3-.7 0-.7.7M468.7 529.7c-1.1 1-.8 6.3.3 6.3.6 0 1-1.6 1-3.5 0-3.6-.2-4-1.3-2.8M525 529.5c0 .3.2.5.5.5s.5-.2.5-.5-.2-.5-.5-.5-.5.2-.5.5M566 530c0 .7.3 1 .7.7.3-.4.3-1 0-1.4-.4-.3-.7 0-.7.7M552 532c0 .7.3 1 .7.7.3-.4.3-1 0-1.4-.4-.3-.7 0-.7.7M582 531.5c0 .3.2.5.5.5s.5-.2.5-.5-.2-.5-.5-.5-.5.2-.5.5M536 533c0 .5.5 1 1 1 .6 0 1-.5 1-1 0-.6-.4-1-1-1-.5 0-1 .4-1 1M512 534c0 .7.3 1 .7.7.3-.4.3-1 0-1.4-.4-.3-.7 0-.7.7M517 535c0 .7.3 1 .7.7.3-.4.3-1 0-1.4-.4-.3-.7 0-.7.7M569 535c0 .7.3 1 .7.7.3-.4.3-1 0-1.4-.4-.3-.7 0-.7.7M528 537c0 .5.5 1 1 1 .6 0 1-.5 1-1 0-.6-.4-1-1-1-.5 0-1 .4-1 1M546 537.1c0 .5.5.7 1 .4.6-.3 1-.8 1-1.1 0-.2-.4-.4-1-.4-.5 0-1 .5-1 1.1M559 537c0 .7.3 1 .7.7.3-.4.3-1 0-1.4-.4-.3-.7 0-.7.7M576 540.9c0 2.8.5 5.3 1 5.6.6.4 1-1.5 1-4.9 0-3.1-.4-5.6-1-5.6-.5 0-1 2.2-1 4.9M583 537c0 .7.3 1 .7.7.3-.4.3-1 0-1.4-.4-.3-.7 0-.7.7M522 539.5c0 .3.2.5.5.5s.5-.2.5-.5-.2-.5-.5-.5-.5.2-.5.5M541 540c0 .7.3 1 .7.7.3-.4.3-1 0-1.4-.4-.3-.7 0-.7.7M468.2 543.7c.4 3.3 2.6 4 5.3 1.8 1.9-1.6 1.9-1.6-.7-1-2.3.4-2.8.2-2.8-1.5 0-1.1-.5-2-1.1-2s-.9 1.2-.7 2.7M587 542.5c0 .3.2.5.5.5s.5-.2.5-.5-.2-.5-.5-.5-.5.2-.5.5M504.3 543.7c.4.3 1 .3 1.4 0 .3-.4 0-.7-.7-.7s-1 .3-.7.7M570 543.5c0 .3.2.5.5.5s.5-.2.5-.5-.2-.5-.5-.5-.5.2-.5.5M582.3 543.7c.4.3 1 .3 1.4 0 .3-.4 0-.7-.7-.7s-1 .3-.7.7M549 545c0 .7.3 1 .7.7.3-.4.3-1 0-1.4-.4-.3-.7 0-.7.7M557 544.5c0 .3.2.5.5.5s.5-.2.5-.5-.2-.5-.5-.5-.5.2-.5.5M426.7 546.7c-1.1 1-.8 7.1.3 7.8.6.4 1-1.2 1-3.9 0-4.7-.2-5.1-1.3-3.9M519.3 546.7c.4.3 1 .3 1.4 0 .3-.4 0-.7-.7-.7s-1 .3-.7.7M526 546.5c0 .3.2.5.5.5s.5-.2.5-.5-.2-.5-.5-.5-.5.2-.5.5M539 547c0 .7.3 1 .7.7.3-.4.3-1 0-1.4-.4-.3-.7 0-.7.7M564 546.5c0 .3.2.5.5.5s.5-.2.5-.5-.2-.5-.5-.5-.5.2-.5.5M513 549c0 .7.3 1 .7.7.3-.4.3-1 0-1.4-.4-.3-.7 0-.7.7M556 549c0 .7.3 1 .7.7.3-.4.3-1 0-1.4-.4-.3-.7 0-.7.7M532 550.5c0 .3.2.5.5.5s.5-.2.5-.5-.2-.5-.5-.5-.5.2-.5.5M508.3 551.7c.4.3 1 .3 1.4 0 .3-.4 0-.7-.7-.7s-1 .3-.7.7M568 551.5c0 .3.2.5.5.5s.5-.2.5-.5-.2-.5-.5-.5-.5.2-.5.5M576 557.6c0 3.4.4 5.3 1 4.9.6-.3 1-2.8 1-5.6 0-2.7-.4-4.9-1-4.9-.5 0-1 2.5-1 5.6M581.3 553.7c.4.3 1 .3 1.4 0 .3-.4 0-.7-.7-.7s-1 .3-.7.7M515 555c0 .7.3 1 .7.7.3-.4.3-1 0-1.4-.4-.3-.7 0-.7.7M528.3 554.7c.4.3 1 .3 1.4 0 .3-.4 0-.7-.7-.7s-1 .3-.7.7M545 555c0 .7.3 1 .7.7.3-.4.3-1 0-1.4-.4-.3-.7 0-.7.7M551 557c0 .7.3 1 .7.7.3-.4.3-1 0-1.4-.4-.3-.7 0-.7.7M521 557.5c0 .3.2.5.5.5s.5-.2.5-.5-.2-.5-.5-.5-.5.2-.5.5M525 559c0 .7.3 1 .7.7.3-.4.3-1 0-1.4-.4-.3-.7 0-.7.7M532.5 559c-.3.5-.1 1 .4 1 .6 0 1.1-.5 1.1-1 0-.6-.2-1-.4-1-.3 0-.8.4-1.1 1M544.5 559c.3.5.8 1 1.1 1 .2 0 .4-.5.4-1 0-.6-.5-1-1.1-1-.5 0-.7.4-.4 1M508 560.5c0 .3.2.5.5.5s.5-.2.5-.5-.2-.5-.5-.5-.5.2-.5.5M512.3 560.7c.4.3 1 .3 1.4 0 .3-.4 0-.7-.7-.7s-1 .3-.7.7M557 562c0 .7.3 1 .7.7.3-.4.3-1 0-1.4-.4-.3-.7 0-.7.7M521 563c0 .7.3 1 .7.7.3-.4.3-1 0-1.4-.4-.3-.7 0-.7.7M426 567.4c0 2.5.5 4.8 1 5.1.6.4 1-1.3 1-4.4 0-2.8-.4-5.1-1-5.1-.5 0-1 2-1 4.4M529 564.5c0 .3.2.5.5.5s.5-.2.5-.5-.2-.5-.5-.5-.5.2-.5.5M538.5 565c-.3.5-.1 1 .4 1 .6 0 1.1-.5 1.1-1 0-.6-.2-1-.4-1-.3 0-.8.4-1.1 1M561 565c0 .7.3 1 .7.7.3-.4.3-1 0-1.4-.4-.3-.7 0-.7.7M550 565.5c0 .3.2.5.5.5s.5-.2.5-.5-.2-.5-.5-.5-.5.2-.5.5M514.3 567.7c.4.3 1 .3 1.4 0 .3-.4 0-.7-.7-.7s-1 .3-.7.7M522 569c0 .5.5 1 1.1 1 .5 0 .7-.5.4-1-.3-.6-.8-1-1.1-1-.2 0-.4.4-.4 1M534 569c0 .7.3 1 .7.7.3-.4.3-1 0-1.4-.4-.3-.7 0-.7.7M544 569c0 .7.3 1 .7.7.3-.4.3-1 0-1.4-.4-.3-.7 0-.7.7M555 569c0 .7.3 1 .7.7.3-.4.3-1 0-1.4-.4-.3-.7 0-.7.7M576 573.5c0 2.5.5 4.5 1 4.5.6 0 1-2 1-4.5s-.4-4.5-1-4.5c-.5 0-1 2-1 4.5M509 571c0 .7.3 1 .7.7.3-.4.3-1 0-1.4-.4-.3-.7 0-.7.7M518 571.5c0 .3.2.5.5.5s.5-.2.5-.5-.2-.5-.5-.5-.5.2-.5.5M528 572c0 .7.3 1 .7.7.3-.4.3-1 0-1.4-.4-.3-.7 0-.7.7M546.3 573.7c.4.3 1 .3 1.4 0 .3-.4 0-.7-.7-.7s-1 .3-.7.7M532 575.5c0 .3.2.5.5.5s.5-.2.5-.5-.2-.5-.5-.5-.5.2-.5.5M540 575.5c0 .3.2.5.5.5s.5-.2.5-.5-.2-.5-.5-.5-.5.2-.5.5M512 576.5c0 .3.2.5.5.5s.5-.2.5-.5-.2-.5-.5-.5-.5.2-.5.5M523 576.5c0 .3.2.5.5.5s.5-.2.5-.5-.2-.5-.5-.5-.5.2-.5.5M517 578.5c0 .3.2.5.5.5s.5-.2.5-.5-.2-.5-.5-.5-.5.2-.5.5M426 584.4c0 2.5.5 4.8 1 5.1.6.4 1-1.3 1-4.4 0-2.8-.4-5.1-1-5.1-.5 0-1 2-1 4.4M533.3 581.7c.4.3 1 .3 1.4 0 .3-.4 0-.7-.7-.7s-1 .3-.7.7M519 583c0 .7.3 1 .7.7.3-.4.3-1 0-1.4-.4-.3-.7 0-.7.7M513 584.5c0 .3.2.5.5.5s.5-.2.5-.5-.2-.5-.5-.5-.5.2-.5.5M576 590.6c0 2.7.4 4.3 1 3.9.6-.3 1-2.4 1-4.6 0-2.1-.4-3.9-1-3.9-.5 0-1 2.1-1 4.6M515 589c0 .7.3 1 .7.7.3-.4.3-1 0-1.4-.4-.3-.7 0-.7.7M271.1 599.4c-.8.9-1.1 5.4-.9 12.7l.3 11.4 43.8.3 43.7.2v-25l-17.7-.1c-9.8 0-29.1-.2-43-.4-20.2-.3-25.3-.2-26.2.9m83.9 12.1v10.6l-40.2-.3-40.3-.3-.3-10.3-.3-10.2H355z"/><path d="M280.9 603.6c-1.7 2-1.8 12.9-.3 14.4.7.7 2.1.9 3.4.5 1.8-.6 2.1-1.3 1.8-4.7-.3-3.8-.8-4.4-4.7-6.5-.1-.1 0-.7.4-1.3.5-.8 1-.8 2 0 1.8 1.5 3.1-.6 1.5-2.5s-2.4-1.9-4.1.1m3.1 9.8c0 3-1.5 4.2-2.4 2-1-2.7-.7-4.4.9-4.4.9 0 1.5.9 1.5 2.4M292.7 602.7c-.3.5-.6 4.3-.6 8.5 0 5.7.4 7.8 1.4 8.2 2.1.7 2.5-.5 1.6-4.5-.5-2-.6-4.9-.4-6.6.5-3.2-1-7.3-2-5.6M311.9 602.2c-.4 1.2-.7 16.3-.3 16.9.2.4 1.8.3 3.4-.2 2.8-1 2.9-1.3 2.8-7.2-.1-7.2-1.1-9.7-3.8-9.7-1.1 0-2 .1-2.1.2m4.1 4.8c0 1.1-.4 2-1 2-.5 0-1-.9-1-2s.5-2 1-2c.6 0 1 .9 1 2m0 7.5c0 1.4-.4 2.5-1 2.5-.5 0-1-1.1-1-2.5s.5-2.5 1-2.5c.6 0 1 1.1 1 2.5M323.2 603.2c-1.5 1.5-1.6 4.8-.2 4.8.6 0 1-.7 1-1.5s.5-1.5 1-1.5c1.6 0 1.1 3.8-1 8-2.8 5.5-2.6 7 .9 7 3 0 4.5-1.9 3.4-4.6-.4-1.2-.7-1.3-1.4-.3-1.6 2.6-2 0-.5-3 .9-1.6 1.6-4.1 1.6-5.4 0-2.1-1.6-4.7-3-4.7-.3 0-1.1.5-1.8 1.2M333.5 604.3c-1.7 2.5-2 9.9-.5 12.8 2.4 4.4 6 .9 6-5.8 0-7.9-2.6-11.2-5.5-7m3.5 5.7c0 5-1 7.7-2.1 5.8-1-1.5-1.2-6.9-.3-9.2 1-2.7 2.4-.7 2.4 3.4M300 611c0 .5 1.8 1 4.1 1 2.4 0 3.8-.4 3.4-1-.3-.6-2.2-1-4.1-1s-3.4.4-3.4 1M426 603c0 2.7.5 5 1 5 .6 0 1-2.3 1-5 0-2.8-.4-5-1-5-.5 0-1 2.2-1 5M504 601.5c-16.7 2.3-27.5 5.7-42.5 13.2-10.3 5.2-19.5 12.2-23.9 18.1-1.9 2.6-5.3 6.4-7.5 8.5-3.7 3.5-4.1 4.3-4.1 8.8 0 3.1.4 4.8 1 4.4.6-.3 1-1.9 1-3.4 0-4.6 5.3-3.9 18.1 2.5 10.8 5.5 11.6 6.2 21 17.7.3.5 2.3-.1 4.4-1.3 4.6-2.6 7-2.3 7 1 0 5.2 16.9 11.3 39.2 14.1 14.1 1.8 31.6-.2 46.8-5.3 3.3-1.1 6.4-2.4 7-2.9 1.8-1.7 3.5-.9 3.5 1.6 0 1.4.5 2.5 1 2.5.6 0 1-1.5 1-3.3.1-2.7.9-3.8 5.7-7.2 7.7-5.6 9.9-8.8 11.7-17.5 2.2-10.4 2-16.7-.5-22.1-2.3-4.8-10.8-13.9-13-13.9-.7 0 .9 2.2 3.7 4.9s6.1 7.1 7.3 9.7c2.1 4.4 2.2 5.3 1.2 10.8-2.6 13.8-3.3 15.6-7.8 19.5-6.9 6.1-20.9 12.6-31.3 14.6-1.9.4-4.3.9-5.2 1.1-1.5.4-1.7 0-1.2-2.5.6-2.9.5-3.1-2.4-3.1-1.6 0-3.5.7-4.2 1.5-1.1 1.3-1 1.8.6 2.9 1.7 1.3 1.4 1.5-3.1 2.1-6 1-26.9-.1-33.3-1.6-11.9-2.8-25.2-8.4-25.2-10.6s-2.4-2.5-7-.9c-2.3.8-4.7 1.2-5.4 1-.6-.3-2.8-2.7-4.8-5.4-3.1-4-5.7-5.8-16.7-11.4-7.2-3.7-13.1-6.9-13.1-7.3 0-1.4 7.6-10.6 12.5-15.1 5.3-4.8 17.9-12 28.3-16.1 26.1-10.3 65.1-11 87.7-1.5 1.7.6 4.7 1.9 6.8 2.8 6.3 2.6 4.1-.2-2.5-3.3-11.1-5-33.2-9.2-46.8-9-3 .1-9.8.7-15 1.4m-73.3 44.2c-.4.3-.7 0-.7-.7s.3-1 .7-.7c.3.4.3 1 0 1.4m155.8 19.1c-14.5 14-41.1 20.8-70.5 18.1-16.5-1.6-38.9-9.4-35.7-12.5.3-.3 1.9.2 3.7 1.1 3.9 2 13.2 5 22.5 7.3 11.1 2.6 34.2 2.3 46.9-.7 15.7-3.7 28.3-9.6 34-16 1.1-1.1 2.4-2.1 3-2.1s-1.1 2.2-3.9 4.8M576 604.9c0 2.8.5 5.1 1 5.1.6 0 1-2 1-4.4 0-2.5-.4-4.8-1-5.1-.6-.4-1 1.3-1 4.4"/><path d="M489 609.5c-1 1.2-1 1.8 0 3 1.7 2 4.9 1.6 6.4-.8 2-3.2-3.9-5.2-6.4-2.2M426 619c0 2.7.5 5 1 5 .6 0 1-2.3 1-5 0-2.8-.4-5-1-5-.5 0-1 2.2-1 5M575.7 618.7c-.6 3.8-.2 5.3 1.4 5.3.5 0 .9-2 .9-4.5 0-5.4-1.5-6-2.3-.8M505.1 617.6c-12.4 2.7-23.2 9.9-27 17.9-2.6 5.6-2.6 8.4 0 14 3.4 7.2 11.3 13.1 23.4 17.3 12.9 4.5 34.8 4.4 49.3-.4 6.5-2.1 9.3-3.8 14.9-8.8 6.9-6.2 9-12 6.8-18.7-3.2-9.4-16.1-18.2-31.3-21.4-9-1.9-27.4-1.8-36.1.1m34.9 1.5c9.3 1.8 18.6 5.8 23.6 10.2 5.4 4.8 7.4 8.9 7.3 14.9l-.1 4.3-.9-3.9c-3.4-14.3-20-23.5-43.9-24.3-11.4-.4-21.3 1.5-30.5 5.8-6.3 3-13 9.2-14.9 13.9s-2.6 5-2.6 1.2c0-4.2 5.4-11.6 11-15.2 11.9-7.6 32.7-10.5 51-6.9m-2.5 4.3c13.8 2.6 25.2 9.2 29.1 16.8 1.7 3.3 1.8 10.1.2 13.1-3.1 5.9-13 11.1-25 13.2-29.6 5.2-60.8-5-60.8-20 0-16.7 28.9-28.5 56.5-23.1M426 634.5c0 2.5.5 4.5 1 4.5.6 0 1-2 1-4.5s-.4-4.5-1-4.5c-.5 0-1 2-1 4.5M576 635c0 3.2.4 4.9 1 4.5.6-.3 1-2.4 1-4.5s-.4-4.2-1-4.5c-.6-.4-1 1.3-1 4.5M453 639.5c-1 1.2-1 1.8 0 3 2.5 3 8 .5 6.6-3-.7-1.9-5-1.9-6.6 0m3.7 2.2c-.4.3-1 .3-1.4 0-.3-.4 0-.7.7-.7s1 .3.7.7M575.5 646c-.8 2.5.3 6.2 1.6 5.5.5-.4.9-1.9.9-3.5 0-3.5-1.6-4.8-2.5-2M573 655.9c0 2.2 2.8 3.5 5.4 2.5.9-.3 1.6-1.5 1.6-2.5 0-1.6-.4-1.7-2.5-.9-1.6.6-2.5.6-2.5 0s-.4-1-1-1c-.5 0-1 .9-1 1.9M426 665c0 2.7.5 5 1 5 .6 0 1-2.3 1-5 0-2.8-.4-5-1-5-.5 0-1 2.2-1 5M624.3 663.2c-3.3 1.6-2.8 2.9.7 2.1 2.6-.5 3-.3 3 1.6 0 1.2.4 1.9 1 1.6 1.4-.9 1.2-2-.7-4.3-1.5-1.7-2.2-1.8-4-1M613.3 669.4c-2.1 1-3.1 2.6-1.8 2.6 1 0 6.5-3 6.5-3.5 0-.8-2.3-.4-4.7.9M626.4 672.2c-1.4 1.7-1.8 3.5-1.7 6.7.2 3.1-.2 4.7-1.3 5.6-2.2 1.6-2.1 6.3.2 8 2.7 2 7.8 1.8 9.7-.3 2-2.2 2.2-5.3.5-7-.6-.6-1.3-3.3-1.5-5.9-.4-4.7-2-9.3-3.3-9.3-.3 0-1.5 1-2.6 2.2m3.3 3.4c-.9.9-2.8-.6-2.1-1.8.4-.6 1-.6 1.7.1.6.6.8 1.3.4 1.7m.3 2.4c0 .5-.7 1-1.6 1-.8 0-1.2-.5-.9-1 .3-.6 1-1 1.6-1 .5 0 .9.4.9 1m0 4c0 .5-.4 1-1 1-.5 0-1-.5-1-1 0-.6.5-1 1-1 .6 0 1 .4 1 1m0 3c0 .5-.4 1-1 1-.5 0-1-.5-1-1 0-.6.5-1 1-1 .6 0 1 .4 1 1m-4 2.5c0 1.7 3.5 2.1 4.5.5s2.5-1.2 1.8.6c-.8 2.2-7.7 1.5-8.1-.9-.2-.9.1-1.7.7-1.7s1.1.7 1.1 1.5M601.7 675.6c-1.6.9-2.6 1.8-2.3 2.1.7.8 6.6-1.7 6.6-2.8 0-1.2-1-1.1-4.3.7M426 680.5c0 2.5.5 4.5 1 4.5.6 0 1-2 1-4.5s-.4-4.5-1-4.5c-.5 0-1 2-1 4.5M589.8 681.8c-4 2.4-3.4 3.5.7 1.5 1.9-.9 3.5-2 3.5-2.5 0-1.1-1.1-.9-4.2 1M575.2 686.7c.2 1.5 1 2.9 1.8 3 1.9.3 5.6-2.4 4.7-3.4-.4-.4-1.3-.1-1.9.5-1.8 1.8-2.8 1.5-2.8-.8 0-1.1-.5-2-1.1-2s-.9 1.2-.7 2.7M426 696.5c0 2.5.5 4.5 1 4.5.6 0 1-2 1-4.5s-.4-4.5-1-4.5c-.5 0-1 2-1 4.5M426 712.4c0 2.5.5 4.6 1 4.6.6 0 1-1.8 1-3.9 0-2.2-.4-4.3-1-4.6-.6-.4-1 1.2-1 3.9M500.5 719c-1.1 1.2-3.1 2-5.1 2-4 0-17.9 3.7-28.2 7.5-4.9 1.7-14.4 6.4-15.2 7.4-.3.3-3.1 2.4-6.3 4.6-6.3 4.2-11.2 9.2-14.3 14.3-2.4 4.1-3.4 4-3.4-.3 0-1.9-.4-3.5-1-3.5-.5 0-1 1.8-1 4.1 0 2.2-.4 3.8-.9 3.4-1.6-1-4.1 2.5-3.5 4.9.4 1.9 0 2.5-2.6 3.6-3.3 1.4-5 3.7-5 7 0 1.7-.3 1.9-1.9 1-2.8-1.4-3.6-1.2-2.1.5.7.8 1.9 1.5 2.6 1.5 1.1 0 1.4 1.8 1.4 7.7 0 12 1.8 14.8 13.8 21.4 17.2 9.4 17.9 10 16.8 13-1 3-.2 6.4 1.4 5.4.5-.3 1-2.2 1-4.2 0-3.5 0-3.5 3.8-1.3 9 5.4 14.1 8 16 8 1.1 0 4.4-1.1 7.4-2.5 3.8-1.8 6.3-2.3 8.8-1.9 3 .4 3.3.3 2-.8-1.2-1-1.4-2.8-1-8.1.5-6.7 2-8.9 3.1-4.5.3 1.3.4 3.5.2 4.9-.3 1.5 0 3 .6 3.3.7.5 1.1-1 1.1-4.7 0-4.8.3-5.5 2.5-6.5 2-.9 3-.8 5.5.6 2.9 1.7 3 1.8 3 9.9 0 9.1-.5 9.6-6.4 7.3-1.4-.5-2.8-.5-3.1-.1-.5 1 4.7 3.1 7.6 3.1 1 0 2.5 1 3.3 2.2 1.4 2 1.9 2.1 4.9 1 1.8-.7 6-1.2 9.2-1.2 4.7 0 6.4.5 8.2 2.2 2.3 2.1 2.3 2.1 4.6 0 1.7-1.6 3.7-2.2 8.7-2.4 3.6-.1 7.1.2 7.9.6.7.5 2.1.1 3.4-1.2 2.1-1.8 7.6-3.7 14.2-4.9 1.7-.3 3.9-1.4 5-2.4 3.1-3.1 10.8-7.9 12.6-7.9 2 0 3.9-2 3.9-4 0-2.7 2.4-7 4.2-7.6.9-.3 1.9-1.3 2.2-2.2.3-1 1.9-2.3 3.6-2.9 4-1.5 4-5.6.2-10.9-2.6-3.6-2.8-4.5-2.4-10.7l.4-6.7h26c17 0 25.7-.3 25.3-1-.4-.6-10.2-1-26.1-1H592v-5.8c0-5.2-.5-6.7-4-12.1-2.2-3.4-4-6.7-4-7.5 0-1.6-4.2-5.6-6-5.6-.8 0-4.8-1.8-9-3.9-14.6-7.6-32.2-12-49.3-12.3-5.4-.1-10-.5-10.3-1-1-1.6-7.1-.8-8.9 1.2m8 1c.4.6 5.3 1 11.5 1 6.1 0 13.1.5 15.7 1.1 15.5 3.5 21.1 5.2 27.6 8.4 7.7 3.7 7.1 3.7-3.3-.2-14.6-5.4-24.6-7.3-42.2-8-13.9-.5-16.6-.8-15.7-2 1.3-1.5 5.5-1.8 6.4-.3m24.2 5c16.2 2.2 34.9 9 42.3 15.3 1.9 1.7 5.2 5.3 7.2 8.1 4 5.4 4.8 10.2 2.9 16.2-.5 1.6-1.2 4.1-1.5 5.6-.4 1.6-1 2.8-1.6 2.8-.5 0-3.1-2.1-5.8-4.8-22-21.4-73.6-25.5-110.1-8.6-2.9 1.4-5.5 2.4-5.6 2.2-.2-.2-.5-5.9-.6-12.7-.3-12.5-.3-12.5 2.6-14.1 6.5-3.6 18.5-7.8 25.6-9 4.1-.6 8.1-1.3 8.9-1.5 3.9-.7 28.7-.4 35.7.5m41.8 11c.3.5 1.5 1 2.6 1 2.3 0 4.9 2.2 4.9 4.2 0 .8 1.2 3 2.6 4.9 5.2 7 5.8 9.3 4.6 17.7-.7 4.8-.7 7.8-.1 8 1.5.6 1 4.2-.6 4.2-.9 0-3.9 2.4-6.9 5.2-5.3 5.3-17.4 12.1-24.6 14-8.6 2.3-16.9 3.7-21 3.6-3.7 0-3.3-.2 2.5-.9 19.7-2.5 40.1-13.2 45.4-23.8 2.3-4.5 4.5-16.3 3.7-19.5-.9-3.6-9-14.2-12.5-16.2-3-1.8-4-3.4-2.2-3.4.6 0 1.3.4 1.6 1m-116.6 28.7c0 .2.6.3 1.2.3s2.9 1.3 5.2 2.8 5.9 3.7 8 4.7c4.2 2.2 6.7 4.5 4.9 4.5-.6 0-1.4-.5-1.7-1-.8-1.3-6.8-1.3-8.1 0-.8.8-1.8.8-3.6 0-2-1-3.2-.7-8 1.9-3.1 1.7-6.3 3.1-7.2 3.1-2.5 0-6.6-2.2-6.6-3.6 0-1.2 7.9-8.1 11.8-10.3.9-.5 1.4-1.3 1-1.7-.8-.7-6.3 3-11.4 7.9-3.7 3.4-6.9 3-8.5-1-.7-1.8-1.3-2.2-2.2-1.5-.8.7-1.8.6-3.2-.4-2-1.5-2-1.5-.1-3 2.5-1.8 3.6-1.8 3.6.1 0 .8.4 1.5.9 1.5s.9-1.5.8-3.3c-.1-6.6 5.9-15.2 15.7-22.3l6.1-4.5.6 12.8c.4 7 .7 12.9.8 13M447 743.4c0 .3-.5.8-1.2 1.2s-.8.3-.4-.4c.7-1.2 1.6-1.6 1.6-.8m-3 2.9c0 .2-1 1.2-2.2 2.3-2.3 1.9-2.3 1.9-.4-.4 1.8-2.1 2.6-2.7 2.6-1.9m92.8 6.2c16.7 3 31.4 9.6 39.3 17.7 5.6 5.8 5.3 6.9-4 13.5-4.8 3.5-7.4 4.2-6.5 2 .9-2.4-3.5-12.3-6.9-15.3-8.5-7.6-21-11.4-37.4-11.4-16.7 0-29 3.8-38.3 11.7-3.9 3.3-4 3.4-7.1 1.8-1.7-.9-5.6-3.3-8.7-5.3l-5.6-3.5 6.9-3.2c6.6-3 17.7-6.2 29-8.3 8-1.5 30.1-1.3 39.3.3m-104.3 6.8c-.8 2.1-1.7 3.7-1.9 3.7-.3 0-1.2.3-2.1.6-1.1.5-.6-.9 1.6-3.9 1.8-2.6 3.4-4.5 3.6-4.3.2.1-.4 1.9-1.2 3.9m-5.5 1.2c0 .3-.2.5-.5.5s-.5-.2-.5-.5.2-.5.5-.5.5.2.5.5m111 3.5c12.8 4.7 14.2 5.4 18 9.8 2.2 2.5 4 5.2 4 6.1s.3 2.7.6 4.1c.4 2.3.4 2.4-.8.6-8.5-12.5-20.7-17.2-42.3-16.3-9.2.3-13.4 1-18 2.7-6.8 2.6-12.4 5.9-15.4 9.1-1.1 1.2-2.4 1.8-3 1.5-1.4-.9 2.5-7.2 6.3-10.1 4.2-3.2 13.4-7.4 18.8-8.5 5.9-1.2 27.5-.5 31.8 1m-112.5 12.6c.2 1.1 1.5 2.5 2.9 3.2 3 1.3 4 6.6 1.7 8.6-.9.7-2.2 1.1-2.8.9-.8-.3-1.3.4-1.3 1.5s-.9 2.2-2 2.5-2 1.1-2 1.7c0 .9.8.7 2.4-.4 1.4-.9 2.7-1.2 3.1-.7.5.9 13.8 9.1 19.4 12 7 3.6 16.8 9.8 18.3 11.6 1.9 2.2 2.4 5.5.8 5.5-1.5 0-5.1-1.9-22.5-11.8-26.5-15.2-25.4-14-25.5-28.3 0-8.9.3-10.8 1.8-12.1 3.3-2.9 4.7-2.7 5 .6.1 1.7.4 4 .7 5.2m114.9-4.2c9.5 3 16.4 9.1 18.1 15.9.6 2.2.2 2.6-2.7 3.5-8.3 2.5-24.5 5.2-31.8 5.2-8.6 0-30.2-3.2-38.2-5.6-1.4-.4-1.8-1.6-1.8-5 0-4.1.3-4.7 4.6-7.7 5.3-3.7 12-6.5 18.4-7.8 6.6-1.2 27.7-.3 33.4 1.5m19.6 2.1c0 .3-.2.5-.5.5s-.5-.2-.5-.5.2-.5.5-.5.5.2.5.5m-91.8 4.7c-.7.7-1.2.8-1.2.2 0-1.4 1.2-2.6 1.9-1.9.2.3-.1 1.1-.7 1.7m93.8-1.7c0 .3-.2.5-.5.5s-.5-.2-.5-.5.2-.5.5-.5.5.2.5.5m-88.5 5.2c-1.1 6-2.2 5.9-3.2-.1-.5-3.2-.3-3.6 1.7-3.6s2.2.3 1.5 3.7m89.2-.5c-.3.7-.5.2-.5-1.2s.2-1.9.5-1.3c.2.7.2 1.9 0 2.5m25 3.5c-1.8.6-4.1 1.4-5.2 1.8-1.9.6-1.9.7.4 2.4 1.6 1.2 2 2 1.2 2.5-.6.4-1.4.1-1.7-.8-1-2.6-3.7-2.8-8.1-.5-2.4 1.2-4.3 2.6-4.3 3.1 0 .4-.9.8-2 .8-3.4 0-2.2-1.6 3-4 2.8-1.3 7.4-4.5 10.3-7.1 5.2-4.7 5.2-4.7 7.4-2.1 2.1 2.7 2.1 2.7-1 3.9M461 781.3c0 1.1-5.5 4.5-7.7 4.8-2.2.2-1-2.3 1.9-4.1 3.8-2.3 5.8-2.6 5.8-.7m4 .7c0 1.1-.4 2-1 2-.5 0-1-.9-1-2s.5-2 1-2c.6 0 1 .9 1 2m-22 6.7c0 1.8-.7 1.7-4.6-.8-5-3.1-4.5-5.4.6-2.7 2.2 1.2 4 2.8 4 3.5m35.3-4.3c1.7 1.3 2.5 8.6.9 8.6-.8 0-4.2-7.3-4.2-9 0-1.3 1.1-1.2 3.3.4m-16.3 1.1c0 1-6.2 3.6-7.8 3.2-1.2-.2-.7-.8 1.8-1.9 3.6-1.7 6-2.2 6-1.3m3 7c0 5.4-.1 5.5-4 7.5-4.7 2.4-9 2.6-9 .5 0-.8.7-1.5 1.5-1.5 1.7 0 2-1.6.5-2.5-1.8-1.1-1.2-5.5.8-5.5.9-.1 3.3-.9 5.2-1.9 1.9-1.1 3.8-1.9 4.3-2 .4-.1.7 2.4.7 5.4m97.7-3.8c-.4.3-.7 0-.7-.7s.3-1 .7-.7c.3.4.3 1 0 1.4m25.3-.7c0 .5-.5 1-1.1 1-.5 0-.7-.5-.4-1 .3-.6.8-1 1.1-1 .2 0 .4.4.4 1m-151 3c1.4 1.1 3 2 3.6 2 1.7 0 3.6 2.7 3.2 4.4-.2 1.3-1.7.7-7.1-2.5-6.3-3.8-7.8-5.9-3.9-5.9.9 0 2.8.9 4.2 2m35.1.8c.8-.2 1.5.7 1.7 2 .2 1.6-.5 2.7-2.7 4-2.7 1.5-3 2.2-3.4 7.7-.2 3.4-.4 1-.5-5.4-.2-11.1-.1-11.4 1.7-9.7 1 .9 2.5 1.6 3.2 1.4m122.9.3c0 1-.4 1.9-1 1.9-.5 0-1-1.2-1-2.6s.4-2.3 1-1.9c.6.3 1 1.5 1 2.6m-18 1.4c0 .8-.9 1.5-2 1.5-2.2 0-2.7-1.5-.7-2.3 2.1-.9 2.7-.7 2.7.8m3-1c0 .3-.2.5-.5.5s-.5-.2-.5-.5.2-.5.5-.5.5.2.5.5m-147.5 2.3c-.3.3-1.1 0-1.8-.7-.9-1-.8-1.1.6-.5 1 .3 1.5.9 1.2 1.2m52-.8c.3.6-.1.7-.9.4-1.8-.7-2.1-1.4-.7-1.4.6 0 1.3.4 1.6 1m104.2 3.2c-.3.7-.5.2-.5-1.2s.2-1.9.5-1.3c.2.7.2 1.9 0 2.5m-73.2 1.5 8 .8-4.7 2.7c-6.1 3.7-11 3.7-16.9 0-2.4-1.5-5.6-3.3-7.1-4.1-4.6-2.4-3.2-2.8 5-1.5 4.2.7 11.3 1.6 15.7 2.1m-65.5-1.2c0 .3-.2.5-.5.5s-.5-.2-.5-.5.2-.5.5-.5.5.2.5.5m32.2 9.7c-.2 6.1-.8 10.8-1.5 11.5-.7.6-2.9 1.8-4.9 2.7l-3.8 1.5v-10.8c0-10.7 0-10.7 3.8-12.9 6.5-3.8 6.7-3.5 6.4 8m9.3-9c3 1.4 3.1 1.9.5 3.6-1.8 1.1-2 1-2-.8 0-1.1-.4-2-1-2-.5 0-1-.5-1-1 0-1.3.3-1.3 3.5.2m-52.5.3c0 .3-.2.5-.5.5s-.5-.2-.5-.5.2-.5.5-.5.5.2.5.5m124 10.6c0 11 0 11-3.6 12.5-1.9.8-4.8 1.7-6.5 2.1-2.9.5-2.9.5-2.9-10.9v-11.5l4.3-1.3c2.3-.7 4.7-1.4 5.2-1.5 3.3-1 3.5-.5 3.5 10.6m8.6-10.1c3 0 3.4.3 3.4 2.5 0 3 .1 3-5 .4-4.1-2.2-6.8-4.8-3.6-3.6 1 .4 3.3.7 5.2.7m-129.9.7c-.4.3-1 .3-1.4 0-.3-.4 0-.7.7-.7s1 .3.7.7m88.3-.3c0 .6-12.5 6.6-13.6 6.6-.5 0 1.8-1.6 5.1-3.4 5.6-3.1 8.5-4.2 8.5-3.2m47.7 3.3c-.3 1-.5.4-.5-1.2 0-1.7.2-2.4.5-1.8.2.7.2 2.1 0 3m-30.3 11c-.5 12.3-.9 14.7-2.1 14-.5-.3-.7-6.2-.5-13.1.2-9.8.6-12.6 1.7-12.6s1.2 2.3.9 11.7m17.5 6.7c-.9.8-1 .6-.5-.7.3-1 .7-5.5.8-10l.2-8.2.3 8.9c.3 6 0 9.3-.8 10m17.1-13.9c0 1.9-.4 3.6-.9 3.9-1 .6-2.1-5.2-1.4-7.1.9-2.3 2.3-.3 2.3 3.2m-117.3.5c0 2.2-.1 4-.4 4-.2 0-2-1.1-4-2.4l-3.6-2.5 3.4-1.5c1.9-.8 3.6-1.5 3.9-1.5.3-.1.6 1.7.7 3.9m35.3-3.5c0 .3-.2.5-.5.5s-.5-.2-.5-.5.2-.5.5-.5.5.2.5.5m43 10.5c0 10.9 0 11.1-2.6 12-1.4.6-4.3 1-6.5 1H530v-11.3c0-6.3.3-11.7.7-12 .3-.4 3.3-.7 6.5-.7h5.8zm-94-9.5c0 .3-.2.5-.5.5s-.5-.2-.5-.5.2-.5.5-.5.5.2.5.5m53 0c0 .3-.2.5-.5.5s-.5-.2-.5-.5.2-.5.5-.5.5.2.5.5m70.6 1c1 .8 2.7 1.5 3.8 1.5 1.2 0 1.6.5 1.2 1.6-.3.9-.6 1.9-.6 2.3 0 .9-8 6.5-8.4 5.9-.5-.9.7-12.8 1.3-12.8.4 0 1.6.7 2.7 1.5m-120.6 0c0 .3-.2.5-.5.5s-.5-.2-.5-.5.2-.5.5-.5.5.2.5.5m76 12.5c0 11.3-.1 12-2 12s-2-.7-2-11.4c0-11.1.3-12.2 3.3-12.5.4-.1.7 5.3.7 11.9m-72.5-10c.3.5.4 1 .1 1s-.8-.5-1.1-1c-.3-.6-.4-1-.1-1s.8.4 1.1 1m62.5.5c0 .3-.2.5-.5.5s-.5-.2-.5-.5.2-.5.5-.5.5.2.5.5m-2 1c0 .3-.2.5-.5.5s-.5-.2-.5-.5.2-.5.5-.5.5.2.5.5m6 8.5v9.1l-7.2-.3-7.3-.3-.3-6.8c-.3-6.7-.3-6.7 3-6.7 1.8-.1 4.9-.9 6.8-2s3.8-1.9 4.3-2c.4 0 .7 4.1.7 9m-62-7.5c0 .3-.2.5-.5.5s-.5-.2-.5-.5.2-.5.5-.5.5.2.5.5m49 0c0 .3-.2.5-.5.5s-.5-.2-.5-.5.2-.5.5-.5.5.2.5.5m3 0c0 .3-.2.5-.5.5s-.5-.2-.5-.5.2-.5.5-.5.5.2.5.5m-50 1c0 .3-.2.5-.5.5s-.5-.2-.5-.5.2-.5.5-.5.5.2.5.5m42.8 8.8c.2 4.9-.1 8.7-.7 8.7-1.5 0-2.1-2.8-2.1-10.7 0-5.5.3-7.4 1.3-7.1.8.3 1.3 3.3 1.5 9.1"/><path d="M424.3 780.8c-1.3.2-2.3.7-2.3 1.2 0 1.4 4.1 2.3 5.3 1.1 1.5-1.5-.2-2.8-3-2.3M445 809.6c0 .8.5 1.2 1 .9.6-.3 1-1 1-1.6 0-.5-.4-.9-1-.9-.5 0-1 .7-1 1.6M426 728.4c0 2.5.5 4.6 1 4.6.6 0 1-1.8 1-3.9 0-2.2-.4-4.3-1-4.6-.6-.4-1 1.2-1 3.9M426 742.9c0 2.8.5 5.1 1 5.1.6 0 1-2 1-4.4 0-2.5-.4-4.8-1-5.1-.6-.4-1 1.3-1 4.4M646 767.5V780l37.5.2c20.6.1 40.3.2 43.8.2l6.2.1.3-11.4c.2-7-.1-11.8-.8-12.6-.9-1-10.2-1.3-44-1.4l-43-.2zm84-9c.3.2.5 2.3.4 4.7s-.2 6.7-.3 9.6l-.1 5.3-30.2-.3c-16.7-.1-34.9-.4-40.5-.6l-10.3-.3v-20.2l40.2.7c22 .4 40.4.9 40.8 1.1"/><path d="M655.2 761.5c-2.5 5.4-.8 13.5 2.8 13.5 2.8 0 4.3-4.2 2.8-7.5-.6-1.4-1.7-2.5-2.5-2.5-.7 0-1.3-1-1.3-2.3 0-1.6.3-1.8.9-.8 1.1 1.7 3.2.5 2.4-1.4-.8-2.4-3.9-1.7-5.1 1m3.8 7.9c0 1.4-.4 2.8-1 3.1-.6.4-1-.7-1-2.4s.5-3.1 1-3.1c.6 0 1 1.1 1 2.4M667.9 759.7c-.1.5 0 3.4.1 6.6.1 3.4-.3 6.4-1 7.2-1 1.3-.8 1.5 1.5 1.5 2.1 0 2.6-.4 2.1-1.6-.3-.9-.6-4.5-.6-8 0-3.6-.4-6.4-1-6.4-.5 0-1.1.3-1.1.7M686.5 767.3c0 7.6.2 8.2 2.1 8.5 3.7.5 5.3-2.2 4.9-8.1-.4-7.1-1.2-8.7-4.4-8.7-2.6 0-2.6 0-2.6 8.3m4.5-3.7c0 1.4-.4 2.3-1 1.9-.5-.3-1-1.5-1-2.6 0-1 .5-1.9 1-1.9.6 0 1 1.2 1 2.6m0 6.9c0 1.4-.4 2.5-1 2.5-.5 0-1-1.1-1-2.5s.5-2.5 1-2.5c.6 0 1 1.1 1 2.5M698.2 761.5c-2.1 4.6-1.2 12.9 1.4 13.9 2.5 1 4.4-2.3 4.4-7.5 0-8.2-3.4-11.8-5.8-6.4m3.8 6.2c0 4.3-1.3 6.5-2.4 3.7-.8-2-.8-6.8 0-8.9 1.1-2.6 2.4.3 2.4 5.2M709.2 760.2c-1.5 1.5-1.6 4.8-.2 4.8.6 0 1-.7 1-1.5s.5-1.5 1-1.5c1.7 0 1.1 4.3-1 7.8-2.8 4.6-2.6 6.2 1 6.2 2.6 0 3-.4 3-2.8 0-2-.3-2.3-1-1.2-1.7 2.7-2.2.2-.6-2.9.9-1.6 1.6-4.1 1.6-5.4 0-2.1-1.6-4.7-3-4.7-.3 0-1.1.5-1.8 1.2M676 768c0 .5 1.3 1 2.9 1 1.7 0 3.3-.5 3.6-1 .4-.6-.8-1-2.9-1-2 0-3.6.4-3.6 1M400.6 770.6c-1 2.6-.7 7.6.4 6.9.6-.3 1-2 1-3.6 0-2.6.2-2.9 1.9-1.9 3 1.6 3.6 1.2 1.6-1-2.2-2.4-4.1-2.6-4.9-.4M398 783c-1.8 2.5-2.1 4-1.7 8.5.3 3.9.1 5.8-.9 6.6-1.7 1.4-1.8 6.3-.1 7.6 3.7 2.9 9.7 2 11.7-1.8 1-1.8.8-2.6-.9-5-1.5-2-2.1-4.3-2.1-7.8 0-3.2-.7-6.2-1.9-8.1l-1.9-3.1zm3.8 3.3c.2 1-.3 1.7-1.2 1.7-1.8 0-2.9-1.6-2.1-3.1.9-1.4 2.9-.6 3.3 1.4m-.1 5.4c-.3.3-1.1.2-1.7-.2-.9-.6-.9-1 .1-1.6 1.4-.8 2.7.7 1.6 1.8m.3 2.3c0 .5-.7 1-1.5 1s-1.5-.5-1.5-1c0-.6.7-1 1.5-1s1.5.4 1.5 1m0 4c0 .5-.7 1-1.5 1s-1.5-.5-1.5-1c0-.6.7-1 1.5-1s1.5.4 1.5 1m-3.4 3.5c1.4 1.3 1.3 1.5-.5 1.5-1.2 0-2.1-.6-2.1-1.5 0-.8.3-1.5.6-1.5s1.2.7 2 1.5m6.4 0c0 .9-.9 1.5-2.2 1.5-2.1 0-2.1 0-.2-1.5 2.4-1.8 2.4-1.8 2.4 0M487.6 821.2c-.5 1-.6 2.4-.3 3.2s-.4 2.8-1.7 4.4c-1.7 2.4-2.1 4.2-2 9 .2 4.8-.2 6.4-1.7 7.8-2.6 2.3-2.4 5 .6 7.9 2.8 2.9 8.5 3.4 10.9.9 2-2 2.1-6.3.1-9.1-.8-1.1-1.6-4.8-1.8-8-.2-3.3-.8-6.6-1.3-7.4s-1.1-3.4-1.5-5.9c-.4-3.3-.8-4-1.3-2.8m1.4 10.9c0 .5-.7.9-1.5.9-1.5 0-2-1.2-.9-2.3.8-.8 2.4.1 2.4 1.4m0 3.9c0 .5-.7 1-1.5 1s-1.5-.5-1.5-1c0-.6.7-1 1.5-1s1.5.4 1.5 1m1 4c0 .5-.9 1-2 1s-2-.5-2-1c0-.6.9-1 2-1s2 .4 2 1m-.7 4.7c-.7.2-1.9.2-2.5 0-.7-.3-.2-.5 1.2-.5s1.9.2 1.3.5m-3.9 2.8c.6 1.8 3.7 2 5.4.3s2.8-.2 1.2 1.7c-2.6 3.1-11.5.8-9.5-2.5.9-1.4 2.2-1.2 2.9.5m3.3 6.2c-.4.3-1 .3-1.4 0-.3-.4 0-.7.7-.7s1 .3.7.7M570 824c0 2.2.5 4 1 4 .6 0 1-1.8 1-4s-.4-4-1-4c-.5 0-1 1.8-1 4M444.7 832.7c-.8 1.4.5 8.3 1.4 7.7 1.2-.7 1.2-7.1 0-7.9-.5-.3-1.2-.2-1.4.2M570 839.5c0 3.5.4 5.4 1 5 .6-.3 1-2.6 1-5s-.4-4.7-1-5c-.6-.4-1 1.5-1 5M445 852.6c0 2.7.4 4.3 1 3.9.6-.3 1-2.4 1-4.6 0-2.1-.4-3.9-1-3.9-.5 0-1 2.1-1 4.6M570 856.1c0 3.1.4 4.8 1 4.4.6-.3 1-2.6 1-5.1 0-2.4-.4-4.4-1-4.4-.5 0-1 2.3-1 5.1M510 857c-11.8 2.2-22 6.9-27.6 12.5-6.3 6.3-8.4 17.8-4.4 24.3 2.7 4.3 2.5 7.8-.5 11.4-1.3 1.6-2.9 4.7-3.5 6.9-1.1 4-.5 10.5 1.1 11.5.5.3.9 2.7.9 5.3 0 4.2.5 5.3 3.3 8 3.9 3.9 9.1 6.5 11.2 5.7.9-.3 4.9.5 8.9 1.8 14.5 4.8 32 5.3 47.5 1.4 5.8-1.5 15.6-6.3 18.8-9.2 1.4-1.4 4.2-2.7 6.2-3.1 5.6-1.1 7.8-5.6 4.7-10-.7-1.1-1.6-3.9-2-6.3-.3-2.4-1.3-5.4-2.2-6.7s-1.3-2.8-1-3.3 16.5-1 37.6-1.1l37-.2V917l44.8-.2 44.7-.3v-24h-89l-.3 5.7-.3 5.8h-33.8c-18.6 0-35.3.3-37 .6-3.1.6-3.1.6-3.1-4 0-2.5-.4-4.6-1-4.6-.5 0-1 1.8-1 3.9 0 2.2-.4 4.3-1 4.6-1.4.9-1.3-6.8.2-10 .6-1.4 1.5-2.5 2-2.5.4 0 .8-2.3.8-5 0-2.8-.4-5-1-5-.5 0-1 1.8-1 3.9 0 2.2-.5 4.3-1 4.6-.7.4-1-.8-.8-3.2.5-9.1-.1-11.8-3.6-16-4.1-4.7-15.4-10.9-23.5-12.9-7-1.8-25.1-2.6-31.1-1.4m8.7 3.7c-.4.3-1 .3-1.4 0-.3-.4 0-.7.7-.7s1 .3.7.7m6.3-.2c0 .3-.2.5-.5.5s-.5-.2-.5-.5.2-.5.5-.5.5.2.5.5m-13.3 1.2c-.4.3-1 .3-1.4 0-.3-.4 0-.7.7-.7s1 .3.7.7m-5.7.8c0 .3-.2.5-.5.5s-.5-.2-.5-.5.2-.5.5-.5.5.2.5.5m16.2 10.8c-.5 14.1-2.2 14.9-2.2 1.1 0-10.3.5-13.3 1.9-11.8.3.3.4 5.1.3 10.7m-6.2.7c0 6-.4 11-.8 11-.5 0-.8-4.9-.8-11 .1-6 .4-11 .9-11 .4 0 .7 4.9.7 11m13.2-2.3c-.3 10.3-.9 13.6-2.2 12.8-1.1-.7-1.3-15.6-.4-19.3.4-1.2 1.1-2.2 1.8-2.2s1 2.7.8 8.7m6.1-4c-.8 6.5-1.3 6.7-1.3.5 0-2.9.4-5.2 1-5.2s.7 1.9.3 4.7m14.2-2.7c1.3.6 1.5.9.5.9-.8 0-2.2-.4-3-.9-1.8-1.2-.2-1.2 2.5 0M506 877.5c0 6.5-.4 11.6-1 12s-1-3.8-1-12 .4-12.4 1-12 1 5.5 1 12m38-11.6c0 .5-.7 1.1-1.5 1.5-.9.3-1.5 0-1.5-.9 0-.8.7-1.5 1.5-1.5s1.5.4 1.5.9m-33.3 3.3c-.3.8-.6.5-.6-.6-.1-1.1.2-1.7.5-1.3.3.3.4 1.2.1 1.9m43.8-1.2c.3.5.2 1-.4 1-.5 0-1.3-.5-1.6-1-.3-.6-.2-1 .4-1 .5 0 1.3.4 1.6 1m-54.7 13.5c.1 7.1-.1 12.6-.5 12.1-.4-.4-.8-5.1-.8-10.4-.1-5.3-.5-11-.9-12.6-.7-2.2-.6-2.8.5-2.4s1.5 3.4 1.7 13.3m46.2-.4c0 7.7-.4 11.8-1 11.4-1.9-1.1-1.2-23.5.7-23.5.2 0 .3 5.4.3 12.1m-63.4-7.2c-4.9 5.4-4.2 14 1.8 20.9 2.2 2.6 3.2 4 2.1 3.3-6.3-4.6-9-10-8.2-16.1.5-4 4.5-11.6 5.5-10.6.3.3-.2 1.4-1.2 2.5m5.1-1.2c-.4.3-.7 0-.7-.7s.3-1 .7-.7c.3.4.3 1 0 1.4m6.9 3.8c.1 4 0 4.2-.3 1.1-.2-2.2-1.2-4.6-2.1-5.3-1.6-1.3-1.5-1.4.3-1.1 1.7.3 2 1.1 2.1 5.3M556 872c0 .5-.9 1-2 1-1.9 0-2 .7-2 12 0 7.3-.4 12-1 12s-1-4.7-1-12c0-10.3.2-12 1.8-12.9 2.2-1.3 4.2-1.4 4.2-.1m4-.5c0 .3-.2.5-.5.5s-.5-.2-.5-.5.2-.5.5-.5.5.2.5.5m-69 5.5c0 .6-.9.5-2-.2s-2-1.6-2-2.1c0-.4.9-.3 2 .3s2 1.5 2 2m68.5-1c-.3.5-1.2 1-2 1-.7 0-1.6 1-1.8 2.2-.4 2-.4 2-.6-.4-.1-2.5.9-3.6 3.7-3.7.7-.1 1 .3.7.9m4.2.7c-.4.3-.7 0-.7-.7s.3-1 .7-.7c.3.4.3 1 0 1.4m.3 3.3c0 .5-.8 1-1.9 1-2.8 0-3.9 2-4.4 7.5-.3 3.9-.4 3.6-.3-1.5.1-6 .3-6.5 2.6-7.1 3.6-1 4-1 4 .1m-78.7 3.7c-.7.2-2.1.2-3 0-1-.3-.4-.5 1.2-.5 1.7 0 2.4.2 1.8.5m9.7.8c0 .3-.2.5-.5.5s-.5-.2-.5-.5.2-.5.5-.5.5.2.5.5m30.7 1.1c-.3.3-1.2.4-1.9.1-.8-.3-.5-.6.6-.6 1.1-.1 1.7.2 1.3.5M487 888c-2 1.3-5 1.3-5 0 0-.6 1.5-1 3.3-1 2.4 0 2.8.3 1.7 1m33 .8c0 4.5 4.5 5.5 8 1.7 2.6-2.8 3.8-2.7 10.8.7 6.5 3.2 11.5 7.9 10.7 10-.5 1.3-1.4 1.6-3.1 1.2q-2.4-.6-3 .9c-.5 1.3-.9 1.4-2.5.4-1.5-.9-2.1-.8-3.3.8-1.1 1.6-1.7 1.7-2.9.7s-1.8-.9-3.2.4c-1.4 1.4-2.1 1.5-3.6.6-1.5-1-2.4-.9-4 0-1.7 1-2.3 1-2.6 0-.6-1.5-3.9-1.6-4.8-.1-.5.6-1.3.3-2.2-1-1.1-1.6-1.9-1.9-3.2-1.2s-2 .5-3-1.1c-.9-1.5-1.6-1.7-2.4-.9-1.6 1.6-2.5 1.4-3.2-.9-.3-1.1-1.5-2-2.6-2-1 0-1.9-.4-1.9-1 0-1.4 8.6-7 13.9-9.1 6-2.3 8.1-2.4 8.1-.1m-28 .7c0 .3-.2.5-.5.5s-.5-.2-.5-.5.2-.5.5-.5.5.2.5.5m73.7.1c-.3.3-1.2.4-1.9.1-.8-.3-.5-.6.6-.6 1.1-.1 1.7.2 1.3.5m-77.7 3.9c-.7.8-1.6 1.2-2.1.9-1.3-.8-.1-2.4 1.8-2.4 1.3 0 1.3.3.3 1.5m67 1c0 .3-.2.5-.5.5s-.5-.2-.5-.5.2-.5.5-.5.5.2.5.5m177 9.5v10h-21.7c-12 .1-28.5.1-36.8.2-8.2 0-17.1 0-19.7-.1l-4.8-.1v-9.3c0-5.2.3-9.7.7-10 .3-.4 19-.7 41.5-.7H732zm-237-8.5c0 .3-.2.5-.5.5s-.5-.2-.5-.5.2-.5.5-.5.5.2.5.5m68.7 2.3c-2.8 3-10.6 7.6-11.4 6.8-.3-.3 1.2-1.3 3.4-2.4 2.1-1.1 5.2-3.2 6.8-4.6 4-3.4 4.6-3.3 1.2.2m-71.7-1.4c0 .3-.4.8-1 1.1-.5.3-1 .1-1-.4 0-.6.5-1.1 1-1.1.6 0 1 .2 1 .4m4 4.1c0 .3-.2.5-.5.5s-.5-.2-.5-.5.2-.5.5-.5.5.2.5.5m-11.3 9.2c-.2 1.6-.4.3-.4-2.7s.2-4.3.4-2.8c.2 1.6.2 4 0 5.5m4 7.5c-.2 2.4-.4.5-.4-4.2s.2-6.6.4-4.3c.2 2.4.2 6.2 0 8.5m62.3-11.8c0 .2-.9.6-2 .9s-1.8.1-1.4-.4c.5-.9 3.4-1.3 3.4-.5m-5.3 1.3c-.4.3-1 .3-1.4 0-.3-.4 0-.7.7-.7s1 .3.7.7m-66.7.8c0 .3-.2.5-.5.5s-.5-.2-.5-.5.2-.5.5-.5.5.2.5.5m16 9c0 5-.4 8.5-1 8.5s-1-3.5-1-8.5.4-8.5 1-8.5 1 3.5 1 8.5m59 1.7c0 5.6-.3 9.9-.6 9.5-.3-.3-.6-4.6-.5-9.6 0-10.8 0-10.1.6-10.1.3 0 .5 4.6.5 10.2m-76-8.7c0 .3-.2.5-.5.5s-.5-.2-.5-.5.2-.5.5-.5.5.2.5.5m22.8.4c1.8 1.1.3 17.2-1.5 17.9-1 .3-1.3-2-1.3-9.2 0-9.5.3-10.3 2.8-8.7m48.2 9.5c0 5.3-.4 9.8-1 10.1-.6.4-1-3-1-9.4 0-6.1.4-10.1 1-10.1s1 3.8 1 9.4m-42-6.9c0 .3-.2.5-.5.5s-.5-.2-.5-.5.2-.5.5-.5.5.2.5.5m36 9.1c0 6-.4 9.3-1 8.9-1.1-.7-.9-18.5.3-18.5.4 0 .7 4.3.7 9.6m-27-1c0 4.7-.4 7.3-1 6.9-.5-.3-1-3.7-1-7.6s.4-6.9 1-6.9 1 3.2 1 7.6m7.4-2c-.2 8.8-.4 10.4-1.4 10.4-.6 0-1-3.4-1-8.1 0-6 .3-8 1.3-7.6.7.2 1.2 2.2 1.1 5.3m6.6 2.4c0 6.7-.3 8-1.6 8-1.4 0-1.6-.8-1-5.3.3-2.8.6-6.4.6-8 0-1.5.5-2.7 1-2.7.6 0 1 3.3 1 8m-41.7 4.3c4.6 3.8 10.7 7.1 15 8.1 1.5.3 2.7 1.1 2.7 1.6 0 2.4-14.1-3.7-19-8.2-4-3.6-7-8.4-7-11 .1-1.8.5-1.5 2.1 1.9 1.2 2.3 3.9 5.7 6.2 7.6m81.4-9.6c-.4.3-.7 0-.7-.7s.3-1 .7-.7c.3.4.3 1 0 1.4m-63 2c-.4.3-.7 0-.7-.7s.3-1 .7-.7c.3.4.3 1 0 1.4m58.9 4.8c-2.7 4.5-8.4 9.1-14.4 11.5-5.4 2.1-4.7.5 1-2.5 6.5-3.3 11.2-7.7 13.4-12.4 1-2 1.9-3 2.2-2.3.2.7-.8 3.2-2.2 5.7m-85.7-.5c.1 1.3 0 1.3-.9 0-.5-.8-.9-2.4-.9-3.5 0-2 0-2 .9 0 .5 1.1.9 2.7.9 3.5m26.8 1.7c-.3 1-.5.2-.5-1.7s.2-2.7.5-1.8c.2 1 .2 2.6 0 3.5m63.3-.9c0 3.1-.5 4.1-2.5 5-2.4 1.1-2.4 1.1-.5-2.1 1.1-1.8 2-4 2-5 0-.9.2-1.7.5-1.7s.5 1.7.5 3.8M491 933c.6 0 1 .4 1 1 0 1.5-2.6 1.2-4-.5-.8-1-2.1-1.3-3.9-.8-2.3.6-2.4.4-1.3-.9.9-1.1 1-1.8.2-2.3-.5-.3-1-1.3-1-2.2 0-1 1.3-.4 4 2.1 2.2 2 4.5 3.6 5 3.6m-12.3-4.3c-.4.3-.7 0-.7-.7s.3-1 .7-.7c.3.4.3 1 0 1.4M502 930c0 .5-.4 1-1 1-.5 0-1-.5-1-1 0-.6.5-1 1-1 .6 0 1 .4 1 1m5-.5c0 .3-.2.5-.5.5s-.5-.2-.5-.5.2-.5.5-.5.5.2.5.5m68.5.4c-.6.4-2.3 1.2-3.9 1.5-2.6.6-2.8.5-1.7-.8.8-.9 2.5-1.6 3.9-1.6 1.5 0 2.2.4 1.7.9m-60.9 3.8c-1 1-1.9-.5-1-1.8.6-1.1.8-1.1 1.2 0 .2.7.1 1.5-.2 1.8m8.4-.7c0 1.1-.7 2-1.5 2-1.7 0-1.8-.2-.9-2.4.9-2.3 2.4-2 2.4.4m7 .6c0 .8-.7 1.4-1.5 1.4-1.5 0-2.1-2.1-.9-3.3 1-.9 2.4.2 2.4 1.9m36.4-.2c-.3.8-1.3 1.7-2.2 2.1-1.3.5-1.3.2.3-1.5 2.1-2.4 2.6-2.5 1.9-.6M512 936c1.2.8.9 1-1.2 1-1.5 0-3-.5-3.3-1-.8-1.3 2.5-1.3 4.5 0m33.7-.3c-.4.3-1 .3-1.4 0-.3-.4 0-.7.7-.7s1 .3.7.7m-30.7.8c0 .3-.2.5-.5.5s-.5-.2-.5-.5.2-.5.5-.5.5.2.5.5m27 0c0 .3-.2.5-.5.5s-.5-.2-.5-.5.2-.5.5-.5.5.2.5.5m-23.3 1.1c-.3.3-1.2.4-1.9.1-.8-.3-.5-.6.6-.6 1.1-.1 1.7.2 1.3.5m42.3-.1c0 .3-.2.5-.5.5s-.5-.2-.5-.5.2-.5.5-.5.5.2.5.5m-70 1.9c0 1.1-1.9 1.5-2.5.6-.3-.5.1-1 .9-1 .9 0 1.6.2 1.6.4m8.5 1.6c2.3 1 3.2 1.9 2.2 1.9-2 .1-8.7-2.5-8.7-3.3 0-1 2.4-.5 6.5 1.4m58.5-1.6c0 .2-.7.7-1.6 1-.8.3-1.2.2-.9-.4.6-1 2.5-1.4 2.5-.6m-4.3 2.3c-.4.3-1 .3-1.4 0-.3-.4 0-.7.7-.7s1 .3.7.7m-3.7.8c0 .3-.2.5-.5.5s-.5-.2-.5-.5.2-.5.5-.5.5.2.5.5m-44 1c0 .3-.2.5-.5.5s-.5-.2-.5-.5.2-.5.5-.5.5.2.5.5m39.7.2c-.4.3-1 .3-1.4 0-.3-.4 0-.7.7-.7s1 .3.7.7m-36.7.8c0 .3-.2.5-.5.5s-.5-.2-.5-.5.2-.5.5-.5.5.2.5.5"/><path d="M688.7 895.7c-.4.3-.7 4.2-.7 8.5 0 7.9 0 7.9 3.3 7.6 3.2-.3 3.2-.3 3.3-7.1.1-5.8-.2-7-2-8.2-2.3-1.7-3-1.8-3.9-.8m3.3 4.9c0 1.4-.4 2.3-1 1.9-.5-.3-1-1.5-1-2.6 0-1 .5-1.9 1-1.9.6 0 1 1.2 1 2.6m1 6.3c0 2.6-1.6 3.5-2.4 1.5-1-2.5-.7-3.4.9-3.4.8 0 1.5.9 1.5 1.9M710.9 896.6c-1.8 2.1-1.8 12.9-.1 14.6.9.9 1.7 1 3 .2 2.6-1.7 2.9-12.4.4-14.7-1.8-1.6-2-1.6-3.3-.1m3.1 7.4c0 2.7-.4 5.2-1 5.5-.6.4-1-1.7-1-5.5s.4-5.9 1-5.5c.6.3 1 2.8 1 5.5M656 897.9c-1.6 3-1.3 11.6.5 13.1 1.7 1.4 4.3.7 5.1-1.5 1-2.5-.6-6.7-2.6-7.2-1.1-.3-2-1.1-2-1.9 0-1.8 1.7-2.7 2.3-1.2.2.7.8 1 1.2.6 1.1-1.1-.2-3.8-1.9-3.8-.9 0-2 .9-2.6 1.9m3.5 8.9c0 3.1-1.9 2.8-2.3-.4-.3-1.8 0-2.5 1-2.2.7.3 1.3 1.4 1.3 2.6M668 904c0 7 .2 8 1.8 8s1.8-.8 1.4-6.8c-.4-7.7-.7-9.2-2.2-9.2-.6 0-1 3.2-1 8M700.9 896.2c0 .2-.1 3.8-.2 8.1-.2 6.8 0 7.7 1.6 7.7 1.5 0 1.7-.8 1.3-7.3-.2-3.9-.5-7.5-.5-8-.1-.6-2-1.1-2.2-.5M676.5 904c-.4.6 1 1 3.5 1s3.9-.4 3.5-1c-.3-.6-1.9-1-3.5-1s-3.2.4-3.5 1M445 869.5c0 2.5.5 4.5 1 4.5.6 0 1-2 1-4.5s-.4-4.5-1-4.5c-.5 0-1 2-1 4.5M570 872c0 2.7.5 5 1 5 .6 0 1-2.3 1-5 0-2.8-.4-5-1-5-.5 0-1 2.2-1 5M445 885.5c0 2.5.5 4.5 1 4.5.6 0 1-2 1-4.5s-.4-4.5-1-4.5c-.5 0-1 2-1 4.5M445.7 898.7c-1.1 1-.8 7.3.3 7.3.6 0 1-1.8 1-4 0-4.1-.2-4.5-1.3-3.3M445 919c0 2.2.5 4 1 4 .6 0 1-1.8 1-4s-.4-4-1-4c-.5 0-1 1.8-1 4M445 935c0 2.2.5 4 1 4 .6 0 1-1.8 1-4s-.4-4-1-4c-.5 0-1 1.8-1 4M569.5 939.3c-.8 3.1-.4 5.7 1 6s1.9-6.3.6-7.6c-.7-.7-1.2-.2-1.6 1.6M445.7 948.7c-1.1 1-.8 8.3.3 8.3.6 0 1-2 1-4.5 0-4.6-.2-5-1.3-3.8M570 955c0 3.2.4 4.9 1 4.5.6-.3 1-2.4 1-4.5s-.4-4.2-1-4.5c-.6-.4-1 1.3-1 4.5M570 966.4c0 1.4 0 2.9-.1 3.3 0 .4.4.9 1 1.1 1.4.5 1.5-5.5.1-6.3-.6-.4-1 .5-1 1.9M445.5 966.2c-.9 2.2-.3 6.3.9 6.3 1.3 0 1.8-4.4.7-6.3-.9-1.6-1-1.6-1.6 0M574.4 973.2c.3 1.5.2 3-.4 3.3s-1-.4-1-1.6c0-1.7-.3-2-1.1-1.2-.6.6-1.8.9-2.5.6-2-.8-1.7 1.4.4 2.6 1.3.8 1.4 1 .2 1.1-2.5 0-4.3-1.7-3.7-3.4.8-2.1-.1-2-5 .4-4 1.9-7.3 5.7-7.3 8.3 0 1.9 3.9 5.3 7.9 7 4.9 2.1 7.6.6 9.2-4.9.8-2.4 2.1-4.6 3-4.9s2.4-1.4 3.3-2.4c1.6-1.8 1.6-2-.9-4.7-2.6-2.9-2.6-2.9-2.1-.2m-8.9 4.9c.4.6-.2 2-1.2 3.2-1.1 1.2-2.3 3-2.6 3.9-1.1 3.1-5.7 1.4-5.7-2.1 0-3.9 7.7-8 9.5-5m2.5 6.8c0 .6-.4 1.3-1 1.6-.5.3-1-.1-1-.9 0-.9.5-1.6 1-1.6.6 0 1 .4 1 .9m-2.3 4.8c-.4.3-1 .3-1.4 0-.3-.4 0-.7.7-.7s1 .3.7.7M445.5 981.2c-.8 3.2-.4 5.8 1 6.1 1.2.2 1.5-5.2.4-7.3-.6-1.1-.9-.8-1.4 1.2M569.2 992c-.6 1.1-1.2 4.2-1.2 6.9 0 2.8-.4 5.3-1 5.6-.5.3-1 2-1 3.6 0 2.2.7 3.2 2.5 4.1 5.1 2.3 11.3-2.1 8.7-6.2-.7-1.1-1.5-4.2-1.9-6.8-.6-4.4-2.7-9.2-4.2-9.2-.3 0-1.2.9-1.9 2m2.8 2c0 .5-.5 1-1.1 1-.5 0-.7-.5-.4-1 .3-.6.8-1 1.1-1 .2 0 .4.4.4 1m1 8c0 .5-.4 1-.9 1-.6 0-1.3-.5-1.6-1-.3-.6.1-1 .9-1 .9 0 1.6.4 1.6 1m0 2.5c0 .3-.2.5-.5.5s-.5-.2-.5-.5.2-.5.5-.5.5.2.5.5m-3 3.6c0 .5-.4.9-1 .9-.5 0-1-.7-1-1.6 0-.8.5-1.2 1-.9.6.3 1 1 1 1.6m4 .4c0 .3-.2.5-.5.5s-.5-.2-.5-.5.2-.5.5-.5.5.2.5.5M446 998.5c0 2.5.5 4.5 1 4.5.6 0 1-2 1-4.5s-.4-4.5-1-4.5c-.5 0-1 2-1 4.5M446 1012.5c0 1.9.5 3.5 1 3.5.6 0 1-1.6 1-3.5s-.4-3.5-1-3.5c-.5 0-1 1.6-1 3.5M446 1023.5c0 1.9.5 3.5 1 3.5.6 0 1-1.6 1-3.5s-.4-3.5-1-3.5c-.5 0-1 1.6-1 3.5M383.3 1030.1c-1 1-1.3 11.8-1.3 47.1v45.8h-28v-4.4c0-2.8-.5-4.6-1.4-4.9-1.1-.4-80-1.1-85.3-.8-1 .1-1.3 3.2-1.3 12.1 0 12 0 12 3.8 12.1 2 0 5.1.2 6.7.4 6.3.6 75.5.6 76.5 0 .5-.3 1-3.1 1-6.1v-5.4h28.2l-.2 58.7c-.2 32.4-.2 59.4-.1 60.1.2 1.7 322.7 1.8 324.8.1 1.1-.9 1.3-20.1 1.3-107.4v-106.3l-3.2-.5c-1.8-.3-33.1-.6-69.5-.6-36.4-.1-107.7-.4-158.5-.7-75-.5-92.5-.4-93.5.7m178.7 2c71.8.1 133.5.4 137.3.6l6.7.5V1243l-28.2.1c-109 .5-291.6.8-292.8.4-1.3-.4-1.5-12.8-1.2-105.2.1-57.7.5-105.4.7-106.1.4-1.1 4.8-1.3 23.8-.8 12.7.3 81.9.6 153.7.7m-212 93.7v10.5l-26.2-.6c-14.5-.4-32.7-.7-40.5-.7H269v-20.2l40.5.3 40.5.3z"/><path d="M446.7 1035.7c-1.1 1-.8 7.3.3 7.3.6 0 1-1.8 1-4 0-4.1-.2-4.5-1.3-3.3M446.7 1046.7c-1.1 1-.8 6.3.3 6.3.6 0 1-1.6 1-3.5 0-3.6-.2-4-1.3-2.8M666.3 1050.4c-5.6 3.1-8 10.7-4.9 15.1.7 1.1 1.6 3.2 2 4.7.3 1.6 1.1 2.8 1.6 2.8 2.6 0-.6 7.4-9.9 23-6.7 11.1-23 33.4-23.9 32.6-.2-.3.3-1.7 1.3-3.2 5-7.6 17.5-34 17.5-36.9 0-.7.9-2.3 2-3.5 1.8-2 2-3.5 1.8-9.9-.3-7.6-.3-7.6-4.6-10-4.4-2.3-4.4-2.3-9.5.4-2.9 1.5-5.8 3.5-6.4 4.3-1.5 1.9-1.7 7.8-.3 8.7.6.3 1 2.4 1 4.5 0 3 .5 4 2 4.5 2.1.7 2.7 4.3 1.2 6.1-.5.5-1.9 3.6-3.2 6.9-4.4 11.3-16.1 32.5-22.7 41.2-2 2.6-6.1 8.5-9 13-5.8 9-14.4 19.6-20.7 25.6-6.2 5.8-18.6 15-19.3 14.3-1-1 1.5-5.6 3.1-5.6 1.8 0 2.6-2.2 2.6-7.6 0-3.3-.9-5.7-3.4-9.7-3.4-5.3-3.4-5.3-7.8-4.7-2.3.3-5.8 1.4-7.5 2.5-3.2 2-3.3 2.1-3.3 9.6 0 5.6.4 8 1.5 8.9.8.7 1.5 1.8 1.5 2.5 0 2-3.9 6.4-7.2 8.1-4.6 2.4-24.2 4.4-33 3.4-8.5-1-18.5-3.3-21.5-4.9-5.4-2.8-13-16.1-14-24.1-.5-4.5-.3-5.2 2.1-7.5 2.2-2 2.6-3.1 2.2-6.2-.3-2.1-.5-5-.5-6.4-.1-3.1-6.5-7.9-10.7-7.9-4 0-10.1 3.9-11.9 7.6-2.2 4.8-2 13.9.4 15.6 1.1.8 2.2 3.2 2.6 5.3 1 5.6 5.9 15.4 9.6 19.3 1.7 1.8 2.9 3.5 2.6 3.8-.2.3-3.3 0-6.8-.6-3.5-.5-10.8-1-16.1-1s-10.3-.3-11.2-.6c-2.6-1-1.8-3.1 2-5.3 3.6-2.1 3.6-2.1 2.9-10.9-.7-9.1-1.8-12.7-4.2-13.6-2.9-1.2-9.3.7-12.3 3.5-3.2 3.2-3.6 4.3-4.5 14.1-.5 6.6-.5 6.6 3.5 8.4 2.3 1 4.6 3 5.3 4.4 2.2 4.6 6.9 6 20.4 6 15.2 0 28 2.3 33.2 6 1.4 1.1 5.5 2.4 9.1 3s8.5 1.6 11 2.1c7.4 1.6 28.4.9 39.8-1.3 23.7-4.5 44.7-17.8 61.4-38.8 3.2-4.1 6.9-8.6 8.2-10 1.2-1.4 3.8-4.8 5.7-7.5 1.9-2.8 6.1-8 9.5-11.6 3.3-3.6 8.4-9.5 11.3-13 6.9-8.4 7.2-8.8 10.1-12.9 1.3-1.9 2.7-3.7 3-4 .8-.7 11-17.2 14.6-23.5 1.5-2.8 4.1-7.5 5.7-10.5 1.7-3 3.6-6.2 4.2-7 1.4-1.7 2.4-6 3.2-13.5.4-4.3.1-5.3-1.7-7-2.3-2.1-7.9-2.7-10.7-1.1m6.7 4.1c0 .3-.2.5-.5.5s-.5-.2-.5-.5.2-.5.5-.5.5.2.5.5m-8 .9c0 .3-.5.8-1.2 1.2s-.8.3-.4-.4c.7-1.2 1.6-1.6 1.6-.8m5 2.1c0 .3-.2.5-.5.5s-.5-.2-.5-.5.2-.5.5-.5.5.2.5.5m-4 5.6c0 1.1-.7 1.9-1.5 1.9-1 0-1.5-1-1.5-3.1 0-2.7.2-3 1.5-1.9.8.7 1.5 2.1 1.5 3.1m9 4.9c0 1.7-2.6 4-4.4 4-1.2 0-.5-3.4 1-5.1 1.9-2.1 3.4-1.6 3.4 1.1m-7.7 1.4c.6 1.6-.2 2.8-1.4 2-1.2-.7-1.1-3.4 0-3.4.5 0 1.1.6 1.4 1.4m-30.3 1.1c0 .3-.2.5-.5.5s-.5-.2-.5-.5.2-.5.5-.5.5.2.5.5m12 .9c0 .3-.5.8-1.2 1.2s-.8.3-.4-.4c.7-1.2 1.6-1.6 1.6-.8m-11.2 2.5c1.9 1.7 3.2 7.1 1.7 7.1-2.3 0-5.5-3.6-5.5-6.1 0-3.4.7-3.5 3.8-1m12.2.6c0 .3-.2.5-.5.5s-.5-.2-.5-.5.2-.5.5-.5.5.2.5.5m21 1.1c0 1.3-13.7 24.6-19.8 33.6-4.4 6.5-16.5 22.4-18.1 23.8-.4.3-3.3 3.5-6.5 7.2-3.2 3.8-6.3 6.8-6.8 6.8-1.6 0-.5-1.6 4.8-7.2 11-11.5 28.5-35.8 36.9-51.3 5.9-10.8 7.6-13.5 8.6-13.5.5 0 .9.3.9.6m-28.3 3.6c-.3.8-.6.5-.6-.6-.1-1.1.2-1.7.5-1.3.3.3.4 1.2.1 1.9m5.3-.7c0 .3-.2.5-.5.5s-.5-.2-.5-.5.2-.5.5-.5.5.2.5.5m4 3.6c0 .5-.7.9-1.5.9-1.5 0-2-1.2-.9-2.3.8-.8 2.4.1 2.4 1.4m-12.9.9c2.1 1.2 2.6 4 .6 4-1.7 0-3.7-2-3.7-3.7 0-1.6.5-1.6 3.1-.3m5.9 1.5c0 1.4-.4 2.5-.9 2.5-1.2 0-2.3-2.9-1.5-4.1 1-1.8 2.4-.9 2.4 1.6m2.1 6.2c-.8 1.5-1 1.5-1.1.2 0-1.7 1-3.2 1.8-2.5.2.3-.1 1.3-.7 2.3m-10.2 11.5c-8.4 18.4-23.8 45.5-23.9 42.1 0-.7 1.5-3.6 3.3-6.5 7.2-11.3 15.5-27.2 20.7-39.5 1.9-4.6 3.6-7.6 3.8-6.8s-1.6 5.7-3.9 10.7m8.8-7.5c-.4.3-.7 0-.7-.7s.3-1 .7-.7c.3.4.3 1 0 1.4m-1.7 3.8c0 .3-.2.5-.5.5s-.5-.2-.5-.5.2-.5.5-.5.5.2.5.5m-4 4c0 .3-.2.5-.5.5s-.5-.2-.5-.5.2-.5.5-.5.5.2.5.5m2 1c0 .3-.2.5-.5.5s-.5-.2-.5-.5.2-.5.5-.5.5.2.5.5m-1 2c0 .3-.2.5-.5.5s-.5-.2-.5-.5.2-.5.5-.5.5.2.5.5m-4 2c0 .3-.2.5-.5.5s-.5-.2-.5-.5.2-.5.5-.5.5.2.5.5m3 1c0 .3-.2.5-.5.5s-.5-.2-.5-.5.2-.5.5-.5.5.2.5.5m-6.8 7.7c-.7.7-1.2.8-1.2.2 0-1.4 1.2-2.6 1.9-1.9.2.3-.1 1.1-.7 1.7m-1.9 3.3c-.3.9-.8 1.4-1 1.1-.3-.3-.2-.9.2-1.5.9-1.6 1.5-1.3.8.4m-2 4c-.3.9-.8 1.4-1 1.1-.3-.3-.2-.9.2-1.5.9-1.6 1.5-1.3.8.4m-2.4 4.7c-2.8 5.4-10.2 16.8-10.6 16.4-.3-.2.8-2.4 2.4-4.8s4.2-6.4 5.7-9.1c2.7-4.7 4.7-6.7 2.5-2.5m-12.6 19.5c1.8 1 3.4 1.9 3.5 2 .5.2-5.6 9.1-6.7 9.8-1.4.8-6.1-1.2-6.7-2.9-.5-1.4 4.9-10.6 6.2-10.6.3 0 2 .8 3.7 1.7M466 1150c0 .5-.4 1-1 1-.5 0-1-.5-1-1 0-.6.5-1 1-1 .6 0 1 .4 1 1m4.8.8c.2.7-.2 1-1.2.6-.9-.3-1.6-1.1-1.6-1.6 0-1.3 2.3-.5 2.8 1m-9.1 1.4c-.3.8-.6.5-.6-.6-.1-1.1.2-1.7.5-1.3.3.3.4 1.2.1 1.9m-2.7-.8c0 .3-.5.8-1.2 1.2s-.8.3-.4-.4c.7-1.2 1.6-1.6 1.6-.8m16 7c0 5.4 0 5.4-4.6 8-2.6 1.4-5.1 2.6-5.6 2.6s-.8-2.3-.6-5.2c.3-5.1.4-5.2 5.3-7.9 2.8-1.6 5.1-2.8 5.3-2.9.1 0 .2 2.4.2 5.4m-15.5-1.8c2.2 1.4 2.5 2.4 2.5 7.6 0 6 0 6-3.2 3.9-3-1.8-3.3-2.5-3.6-7.6-.3-6 .3-6.5 4.3-3.9m138.6 10.1c-6.3 8.3-18.2 20.3-24.1 24.3-1.9 1.3-3.7 2.7-4 3-1.2 1.4-12.2 7.2-12.7 6.6-.3-.3.3-.9 1.3-1.3 8.6-3.1 29.9-21.9 39.9-35.1 2.6-3.5 4.9-6.1 5.2-5.9.2.3-2.3 4-5.6 8.4m6-3.4c-1 .9-1.1.8-.5-.6.3-1 .9-1.5 1.2-1.2s0 1.1-.7 1.8m2.8.9c-2.8 5.3-15.5 19-22.9 24.6-1.9 1.5-3.7 2.9-4 3.2-1.4 1.4-9.3 6.2-15.5 9.5-9.5 5-25.5 9.1-25.5 6.5 0-.6 1.6-1 3.5-1 4 0 13.7-3 20.5-6.3 13.6-6.6 30.3-20.4 40.7-34 4.1-5.2 5-5.9 3.2-2.5m-5.9 3.3c0 .3-.2.5-.5.5s-.5-.2-.5-.5.2-.5.5-.5.5.2.5.5m-167 1.5c0 .5-.2 1-.4 1-.3 0-.8-.5-1.1-1-.3-.6-.1-1 .4-1 .6 0 1.1.4 1.1 1m-4 .9c0 1.2-2 2.5-2.7 1.8s.6-2.7 1.8-2.7c.5 0 .9.4.9.9m45.4 15.2c1.6 2.9 3.7 6.5 4.9 8.1 2.8 3.8 1.3 4.8-1.8 1.2-3.6-4.1-8.3-14.1-8.9-19.2-1-6.6.7-7.5 1.9-1.1.7 3.2 2.4 8.1 3.9 11m83.6-14.6c0 .3-.2.5-.5.5s-.5-.2-.5-.5.2-.5.5-.5.5.2.5.5m-131.5 4.3c-.3.3-1.6-.5-2.8-1.7-2.2-2.3-2.2-2.3.6-.6 1.5 1 2.5 2 2.2 2.3m10.2-2.1c-.4.3-.7 0-.7-.7s.3-1 .7-.7c.3.4.3 1 0 1.4m23.8 1c1 4.8 6.5 15 10.7 19.8 4.5 5.1 3.8 6.2-.9 1.2-3.8-4.1-8.6-11.3-10-15.2-1.9-5-2.4-8.5-1.3-8.5.5 0 1.2 1.2 1.5 2.7m5.2-1c-.4.3-.7 0-.7-.7s.3-1 .7-.7c.3.4.3 1 0 1.4m89.7-.2c-.4.8-1 1.2-1.5.9-1.4-.8-1-2.4.6-2.4.9 0 1.2.6.9 1.5m-6.4 0c0 .3-.2.5-.5.5s-.5-.2-.5-.5.2-.5.5-.5.5.2.5.5m-114 4.5c0 2.9.4 4 1.5 4 .9 0 1.5.9 1.5 2.5 0 2.5-2.5 4.7-6.7 6-2 .5-2.3.3-2.3-1.9 0-1.4.5-2.6 1-2.6.6 0 1-2.2 1-4.8 0-4.4 1.2-7.2 3.2-7.2.4 0 .8 1.8.8 4m33.6 6.5c3.2 6.1 4 8.4 2.6 7.2-2.4-2.2-8.2-13.1-8.2-15.5 0-2.2.3-1.8 5.6 8.3m93.4-9c0 .3-.2.5-.5.5s-.5-.2-.5-.5.2-.5.5-.5.5.2.5.5m-137.1 2.2c.5 1 1.2 4.6 1.6 8 .7 6.2.7 6.2-2.4 5-3.3-1.2-3.8-3.1-2.5-11 .7-4 1.8-4.7 3.3-2m127.7 2.4c-.3 1.7-.6 4.2-.6 5.5 0 1.5-.6 2.4-1.5 2.4-1.9 0-2.2-9.6-.2-10.3 2.5-1.1 2.9-.6 2.3 2.4m-123.7 2.1c.1.5-.3.8-.9.8-.5 0-1-1.2-.9-2.8 0-2.4.1-2.5.9-.7.5 1.1.9 2.3.9 2.7m134.1-1.3c0 1.7-.4 3.3-1 3.6-.5.3-1 1.5-1 2.6 0 1.4-.7 1.9-3 1.9-2.9 0-3-.1-3-4.8 0-5.8.3-6.2 4.7-6.2 3 0 3.3.3 3.3 2.9m-10 9.6c0 .3-.9 2.4-2 4.5-1.4 2.7-3.7 4.9-7.3 7q-8.55 4.95-5.7 1.5c.7-.8 1.8-1.5 2.4-1.5 2.3 0 8.5-6.1 9.1-9 .4-1.7 1.3-3 2.1-3s1.4.2 1.4.5m5.4 4.4c-.9 1.6-3.1 3.6-4.8 4.6-3.1 1.8-3.1 1.8-.5-1.1 1.5-1.6 3.2-3.9 3.8-5.2.7-1.2 1.6-2 2.2-1.7.5.4.3 1.8-.7 3.4m-3.7-1.2c-.4.3-.7 0-.7-.7s.3-1 .7-.7c.3.4.3 1 0 1.4m-123.7 1c0 1.9 6.1 3.3 13.9 3.3 13 0 34.1 3.3 34.1 5.2 0 .6-.7.7-1.6.4-4.3-1.6-21-3.6-30.9-3.6-9.2 0-11.5-.3-14.2-2-3.2-1.9-4.4-4-2.3-4 .6 0 1 .3 1 .7m61.3 7.4c4.2 1.1 4.7 1.5 4.7 4.1 0 1.5-.3 2.8-.6 2.8s-2.6-1.1-5.1-2.5c-5.3-3-7.1-2.6-2.2.5 3.4 2.2 3.4 2.2-1.1 1.5-5.6-.8-7.5-2.5-6.6-6 .8-3 .9-3 10.9-.4m57.7-.6c0 .3-.2.5-.5.5s-.5-.2-.5-.5.2-.5.5-.5.5.2.5.5m4.7 1.2c-.4.3-1 .3-1.4 0-.3-.4 0-.7.7-.7s1 .3.7.7m-46.8 2.9c.2.2-1.4.4-3.7.4s-4.2-.4-4.2-.9c0-.9 6.9-.4 7.9.5m27.1 1.9c0 3.1-.3 3.5-3.7 4.1-4.2.8-6.7-.4-7.1-3.5-.4-2.3 1.6-2.8 4.9-1.1 1.3.7 1.9.7 1.9 0 0-.5-.5-1-1.1-1-.5 0-.7-.5-.4-1 .3-.6 1.7-1 3.1-1 2.1 0 2.4.5 2.4 3.5m-21.3-.9c-.3.3-1.2.4-1.9.1-.8-.3-.5-.6.6-.6 1.1-.1 1.7.2 1.3.5m6.1.1c-1 .2-2.6.2-3.5 0-1-.3-.2-.5 1.7-.5s2.7.2 1.8.5m2.2 4.5c0 1-17.9.9-20.2 0-1-.4 3.2-.7 9.2-.7 6.1 0 11 .3 11 .7M446 1059.5c0 1.9.5 3.5 1 3.5.6 0 1-1.6 1-3.5s-.4-3.5-1-3.5c-.5 0-1 1.6-1 3.5M446 1071c0 2.2.5 4 1 4 .6 0 1-1.8 1-4s-.4-4-1-4c-.5 0-1 1.8-1 4M446 1083c0 2.2.5 4 1 4 .6 0 1-1.8 1-4s-.4-4-1-4c-.5 0-1 1.8-1 4M462 1083.8c0 2-4.3 5.2-6.9 5.2-3.7 0-5.5 2.2-4.8 6 .4 1.6.2 3.2-.3 3.5-1.4.8-1.3 5.2.1 6.1.6.4.8 1.9.5 3.7-.4 2.1-.1 3.6 1.1 4.9 1.5 1.7 1.5 1.8 0 1.3-1.2-.5-1.8 0-2.3 1.9-.3 1.4-1 2.6-1.5 2.6-1.2 0-1.1-1.4.2-2.7.7-.7.9-2.3.5-3.9-1-3.7-2.4-1.9-2.8 3.6-.3 4-.1 4.5 2 4.8 1.2.2 2.2-.2 2.2-.9s1-1 2.9-.6c2.2.5 5-.5 11.7-3.9 10.1-5.2 11.6-6.3 10.8-7.5-.8-1.4.6-4.9 2.1-4.9.7 0 2.3.9 3.6 2 2.4 2 2.4 2 .1 3.7-1.2 1-8.1 4.9-15.2 8.6-14.5 7.6-14.8 7.6-23.5 2.8-5.6-3.1-6.3-5-2.2-6.9 1.5-.7 2.7-1.7 2.7-2.3 0-1.5-1.3-1.1-5.3 1.6-4.1 2.9-4.9 6.1-1.9 8.8.9.9 4.8 3 8.5 4.7 4.8 2.3 6.7 3.7 6.7 5.1 0 1 .5 1.9 1 1.9.6 0 1-.9 1-2 0-2.3 1.7-2.5 4.4-.5 1.1.8 2.8 1.3 3.8.9 1.5-.4 1.8 0 1.8 2.5 0 1.7.5 3.1 1 3.1.6 0 1-1.3 1-2.8 0-2.3.8-3.3 3.8-4.8 3.3-1.8 3.7-2.5 4-6.2.3-4.2 2.2-6.1 2.2-2.2 0 1.1.5 2 1 2 .6 0 1-1.5 1-3.3 0-2.7.6-3.6 3.9-5.4 7.1-4.1 6.2-8.9-2.3-13.3-5.8-2.9-6.1-3.4-6.1-9 0-4.1-.3-4.6-4-6.7-4.1-2.3-6.5-2.9-6.5-1.5m5 5.7c0 .3-.2.5-.5.5s-.5-.2-.5-.5.2-.5.5-.5.5.2.5.5m-5 1c0 .3-.2.5-.5.5s-.5-.2-.5-.5.2-.5.5-.5.5.2.5.5m7 2c0 .3-.2.5-.5.5s-.5-.2-.5-.5.2-.5.5-.5.5.2.5.5m0 4c0 1.6-5.2 2.7-6.5 1.4-1.5-1.5 3.6-5.1 5.2-3.7.7.6 1.3 1.6 1.3 2.3m-12-2c0 .3-.2.5-.5.5s-.5-.2-.5-.5.2-.5.5-.5.5.2.5.5m4 0c0 .3-.2.5-.5.5s-.5-.2-.5-.5.2-.5.5-.5.5.2.5.5m7 5.5c0 .5-.5 1-1.1 1-.5 0-.7-.5-.4-1 .3-.6.8-1 1.1-1 .2 0 .4.4.4 1m-16 .5c0 .3-.2.5-.5.5s-.5-.2-.5-.5.2-.5.5-.5.5.2.5.5m8-.1c0 .3-.4.8-1 1.1-.5.3-1 .1-1-.4 0-.6.5-1.1 1-1.1.6 0 1 .2 1 .4m3 2.1c0 .8-6.1 3.7-6.7 3.2-.3-.3.8-1.2 2.4-2.1 2.9-1.6 4.3-1.9 4.3-1.1m6-.1c0 .3-.5.8-1.2 1.2s-.8.3-.4-.4c.7-1.2 1.6-1.6 1.6-.8m-7 5.1c0 .8-.4 1.5-.9 1.5-1.3 0-2.2-1.6-1.4-2.4 1.1-1.1 2.3-.6 2.3.9m11 0c0 .6-5.7 3.5-7 3.5-1.7 0-.1-2 2.4-3 2.4-1 4.6-1.2 4.6-.5m-8 1c0 .3-.2.5-.5.5s-.5-.2-.5-.5.2-.5.5-.5.5.2.5.5m-6 1.5c.8.5 1.1 1 .5 1-.5 0-1.7-.5-2.5-1s-1-1-.5-1c.6 0 1.7.5 2.5 1m-5 1.5c0 .3-.2.5-.5.5s-.5-.2-.5-.5.2-.5.5-.5.5.2.5.5m26.5.5c-.3.5-1.2 1-1.8 1-.7 0-.6-.4.3-1 1.9-1.2 2.3-1.2 1.5 0m-21.5 1c1.3.9 1.3 1.1 0 2-1.8 1.2-5 1.3-5 .2 0-.9 2.1-3.2 3-3.2.3 0 1.2.5 2 1m18 1.5c0 .3-.2.5-.5.5s-.5-.2-.5-.5.2-.5.5-.5.5.2.5.5m-5 2c0 .3-.2.5-.5.5s-.5-.2-.5-.5.2-.5.5-.5.5.2.5.5m-31.5 4.5c.3.6-.1.7-.9.4-1.8-.7-2.1-1.4-.7-1.4.6 0 1.3.4 1.6 1m27.7 2.2c-.6.6-1.5.8-1.9.4s-.1-1.1.7-1.6c1.9-1.2 2.7-.3 1.2 1.2m-25.2-.7c0 .3-.2.5-.5.5s-.5-.2-.5-.5.2-.5.5-.5.5.2.5.5m2.7 1.2c-.4.3-1 .3-1.4 0-.3-.4 0-.7.7-.7s1 .3.7.7m19.2 2.3c.8 2.5.7 3-.5 3-1.7 0-2.8-2.4-2-4.5.8-2.2 1.3-1.9 2.5 1.5m-13.9.5c0 .3-.2.5-.5.5s-.5-.2-.5-.5.2-.5.5-.5.5.2.5.5m8.5 1.5c.3.5.2 1-.4 1-.5 0-1.3-.5-1.6-1-.3-.6-.2-1 .4-1 .5 0 1.3.4 1.6 1"/><path d="M446 1093.9c0 1.7.5 3.3 1 3.6.6.4 1-.8 1-2.9 0-2-.4-3.6-1-3.6-.5 0-1 1.3-1 2.9M446.7 1102.7c-1.1 1-.8 5.1.3 5.8.6.4 1-.8 1-2.9 0-3.7-.2-4.1-1.3-2.9M496.4 1119c-1.2.5-2.5 1.3-2.9 1.9-.8 1.3-.3 1.4 2.9.1 2.5-.9 2.6-.8 2.6 2.5 0 1.9.5 3.5 1.1 3.5 1.3 0 .8-8.2-.6-8.6-.5-.1-2 .1-3.1.6M485.6 1124.5c-1.1.8-1.7 1.7-1.4 2 .7.8 5.8-1.6 5.8-2.7 0-1.3-2.3-.9-4.4.7M475.2 1127.6c.2 1.8 1 3 2.1 3.2 2.1.4 4.9-1.6 4.1-3-.4-.6-1-.6-1.7.1-1.5 1.5-2.7 1.4-2.7-.3 0-.8-.5-1.8-1.1-2.1-.7-.5-.9.3-.7 2.1M490.5 1128.5c-2.2 2.1-2.5 3.3-2.5 9 0 5.9.3 7 3.1 10.4 2.5 3.2 2.9 4.4 2.4 7.2-1.2 6.3 6.7 14.2 11.3 11.2 1.3-.8 1.7-2.5 1.7-7.5 0-4.3.5-7.1 1.5-8.3 1.5-1.8 2.5-12.9 1.5-17-.5-2.5-6-5.9-8.1-5.1-.8.3-2.8-.1-4.4-.9-3.7-1.9-3.7-1.9-6.5 1m2.5 1c0 .3-.2.5-.5.5s-.5-.2-.5-.5.2-.5.5-.5.5.2.5.5m-.8 8.9c-.2 3.1-.8 5.6-1.3 5.6-1 0-1.2-6.3-.3-9.7 1.1-4 1.9-1.7 1.6 4.1m14.8-5.9c0 .3-.2.5-.5.5s-.5-.2-.5-.5.2-.5.5-.5.5.2.5.5m-8 1c0 .3-.2.5-.5.5s-.5-.2-.5-.5.2-.5.5-.5.5.2.5.5m-3.3 2.2c-.4.3-.7 0-.7-.7s.3-1 .7-.7c.3.4.3 1 0 1.4m12.3.3c0 .5-.4 1-1 1-.5 0-1-.5-1-1 0-.6.5-1 1-1 .6 0 1 .4 1 1m-11.6 2.6c1.2.5 1.6 2.1 1.6 6.5 0 5.9-.6 6.9-2.8 4.7-1.1-1.1-1.8-11.8-.8-11.8.2 0 1.1.3 2 .6m9.6 1c0 .8-.5 1.2-1 .9-.6-.4-.8-1.1-.5-1.6.9-1.4 1.5-1.1 1.5.7m-4.7 2.6c-.8 4.6-1.3 4.8-1.3.5 0-2.1.4-3.7 1-3.7.5 0 .7 1.4.3 3.2m5.6 3.4c1 2.2.9 2.8-.6 4-2.6 2-4.7 1.8-3.8-.4.4-.9 1-2.7 1.2-4 .7-2.9 1.7-2.8 3.2.4m-5.1 12.7c.2 2-.1 3.7-.5 3.7-1.8 0-3.3-2.5-3.3-5.3 0-2.2.4-2.8 1.8-2.5 1.2.2 1.8 1.4 2 4.1m2.9 5.2c-.4.8-1.3 1.5-2.2 1.5-1.3 0-1.2-.3.3-1.8 1.9-2.1 2.7-2 1.9.3M446.6 1129.7c-.9.9-.7 3.3.3 3.3 1.2 0 2.2-2.8 1.2-3.4-.5-.3-1.1-.3-1.5.1M439.8 1134.6q-4.5 2.4-1.5 2.4c1.6 0 5.4-2.7 4.7-3.3-.3-.3-1.7.1-3.2.9M451 1138c0 1.1.5 2 1 2 .6 0 1-.9 1-2s-.4-2-1-2c-.5 0-1 .9-1 2M428.5 1141.1c-1.6 1.1-3.4 2.1-4 2.3-.5.2-.7.6-.3 1 .7.8 6.3-1.8 7.3-3.5 1.2-1.8.1-1.7-3 .2M463 1142.1c0 1.1.5 1.7 1 1.4.6-.3 1-1.3 1-2.1s-.4-1.4-1-1.4c-.5 0-1 .9-1 2.1M449.1 1144.5c-1.7 1.8-1.9 2.5-.8 2.5 1.7 0 4-2.5 3.5-3.9-.1-.6-1.4.1-2.7 1.4M415 1148.7c-2.4 1.5-3.9 2.8-3.3 3 1.1.4 9.3-4.2 9.3-5.2s-1.6-.4-6 2.2M439.8 1150.4c-2.6 1.9-2.2 2.7.7 1.4 1.4-.6 2.5-1.5 2.5-2 0-1.2-1.2-.9-3.2.6M400.2 1157.2c-1.8 1.1-3.1 2.2-2.9 2.5.7.6 7.7-2.9 7.7-3.9 0-1.2-1.1-.9-4.8 1.4M427.9 1157.7c-.7 1.8-.6 3 .1 3.7s1 .4 1-1.1c0-1.1 1-2.8 2.3-3.6 2.2-1.6 2.2-1.6-.1-1.6-1.5-.1-2.6.7-3.3 2.6M388.8 1163.8c-1.6.9-2.8 2-2.8 2.5 0 .9 5.6-1.9 6.5-3.3.9-1.5-.6-1.2-3.7.8M276.1 1117.8c-1.2 2.3-1.7 10-.7 12.9 1 3 4 2.9 5.4-.2 1.3-2.9.1-7.2-2.3-8.1-1.7-.7-2.1-3.4-.5-3.4.6 0 1 .4 1 1 0 .5.5 1 1 1 1.6 0 1.1-3.7-.6-4.4-2.2-.8-2.2-.8-3.3 1.2m3.4 9.7c0 1-.6 2-1.2 2.2-.8.3-1.3-.5-1.3-2.2s.5-2.5 1.3-2.3c.6.3 1.2 1.3 1.2 2.3M307.4 1116.9c-.5.3-1 4.1-1 8.4-.1 7.8-.1 7.8 2.9 7.5 3.9-.4 5.7-3 3.9-5.8-.9-1.5-1-2.6-.2-4 1.7-3.3-2.8-8.2-5.6-6.1m3.6 4.1c0 1.1-.4 2-1 2-.5 0-1-.9-1-2s.5-2 1-2c.6 0 1 .9 1 2m0 6.5c0 .8 0 1.8.1 2.2 0 .4-.4.9-1 1.1s-1.1-.8-1.1-2.2.5-2.6 1-2.6c.6 0 1 .7 1 1.5M288 1117.2c-.1.2-.2 3.8-.3 8.1-.2 6.9 0 7.7 1.7 7.7 1.2 0 1.6-.5 1.2-1.6-.3-.9-.6-4.5-.6-8 0-3.6-.4-6.4-1-6.4-.5 0-1 .1-1 .2M319.7 1117.6c-.3.3-.3 2 0 3.7.2 1.8 0 5.1-.5 7.4-.9 4-.9 4.3 1.2 4.3 2 0 2.1-.4 1.8-8-.3-7.3-.9-9-2.5-7.4M328 1121.6c0 4.1.2 4.5 2 3.9 1.7-.5 2-.2 2 2.4 0 1.7-.4 3.1-1 3.1-.5 0-1-.5-1-1 0-.6-.4-1-1-1-.5 0-1 .9-1 2.1 0 1.6.5 2 2.8 1.7 2.4-.3 2.7-.7 3-4.6.3-3.7 0-4.4-1.7-4.9-2.7-.7-2.7-2.9-.1-3.6 3.1-.8 2.4-2.7-1-2.7-2.9 0-3 .2-3 4.6M296 1125c0 .5 1.4 1 3 1 1.7 0 3-.5 3-1 0-.6-1.3-1-3-1-1.6 0-3 .4-3 1M376.3 1170.2c-2.5 1.2-3.1 2.8-1 2.8 1.4-.1 4.7-2.4 4.7-3.4 0-.8-1.1-.7-3.7.6M365.3 1177c-4.6 2.8-4.1 4.4.5 1.9q7.05-3.9 4.2-3.9c-.8 0-3 .9-4.7 2M353.2 1184.1c-1.8 1.2-3 2.4-2.7 2.7.6.7 7.5-3 7.5-4 0-1.3-1.3-.9-4.8 1.3M344.2 1190.2c-1.5 1.5-1.6 5.4-.2 6.3.6.3 1-.3 1-1.5s.5-3 1-4.1c1.2-2.1.1-2.6-1.8-.7M343.2 1202.1c-.9 1.4-1.3 5.5-1.3 12.2 0 5.7-.4 10.6-1 11.3-1.7 2.1-.6 5.7 2.4 7.4 2.4 1.3 3 1.3 5.5 0 2.8-1.6 4-5.3 2.4-7.3-.6-.7-1.1-3.2-1.3-5.7-.1-2.5-.5-4.9-.8-5.5-.2-.5-.6-3.3-.7-6.2-.1-4.8-1.5-8.3-3.3-8.3-.3 0-1.2.9-1.9 2.1m2.8 1.9c0 .5-.4 1-1 1-.5 0-1-.5-1-1 0-.6.5-1 1-1 .6 0 1 .4 1 1m0 4c0 .5-.4 1-1 1-.5 0-1-.5-1-1 0-.6.5-1 1-1 .6 0 1 .4 1 1m.5 4c-.3.5-1 1-1.6 1-.5 0-.9-.5-.9-1 0-.6.7-1 1.6-1 .8 0 1.2.4.9 1m.2 3.6c-.3.3-1.2.4-1.9.1-.8-.3-.5-.6.6-.6 1.1-.1 1.7.2 1.3.5m.3 3.4c0 .5-.4 1-1 1-.5 0-1-.5-1-1 0-.6.5-1 1-1 .6 0 1 .4 1 1m-.3 3.7c-.4.3-1 .3-1.4 0-.3-.4 0-.7.7-.7s1 .3.7.7m1 2.9c-.3.3-1.2.4-1.9.1-.8-.3-.5-.6.6-.6 1.1-.1 1.7.2 1.3.5m-4.7 2.9c0 .3-.2.5-.5.5s-.5-.2-.5-.5.2-.5.5-.5.5.2.5.5"/></svg>