<svg xmlns="http://www.w3.org/2000/svg" viewBox="0 0 992 1402" fill="currentColor"><path d="M196.5 304.4c-10.7 5.8-15.5 8.9-15.5 9.9 0 .7 15.7 25.4 17.5 27.5 1 1.2 4.5-2.2 4.5-4.3 0-2.8 1.6-3.2 4.5-1.1 1.1.7 6.5 3.7 12 6.6s10.4 5.7 11 6.1c1.3 1.3 4.9 1.1 6.3-.3.7-.7 1.2-4.4 1.2-9.4 0-8-.1-8.3-2.7-9.7-1.6-.8-8.6-4.5-15.8-8.3-7.1-3.8-13.9-7.4-15-7.9-1.7-.9-2-1.9-1.7-6.3.3-5.9-.2-6.1-6.3-2.8m1.9 6.1c.1 3.5.5 4.1 5.1 6.8 4.4 2.6 18.4 10.1 26.8 14.4 2.6 1.4 2.7 1.8 2.7 8.9 0 8.1-.7 8.8-5 5.4-2-1.6-2.2-2-.8-2 1 0 2.5-1.1 3.3-2.4 1.5-2.2 1.5-2.7.1-5.4-1.2-2.4-6.3-6.2-8.3-6.2-.1 0-.3 2.7-.3 6 0 3.9.4 6 1.2 6 .6 0 .9.3.6.6s-5.5-2-11.4-5c-6-3-11.5-5.6-12.3-5.8-1-.2-1.7.8-2 2.6-.6 2.8-.9 2.5-7.5-7.3-3.8-5.6-6.9-11-7-11.8-.1-1.7 12-9.5 13.8-9 .5.2 1 2.1 1 4.2m29 24.1c1.7 1.7 2.1 5.9.7 6.8-2.2 1.4-4.1-.7-4.1-4.5 0-4.2.9-4.8 3.4-2.3"/><path d="M199.6 323.7c0 3.4.5 5.8 1.2 6.1.7.2 1.2-.6 1.2-1.8 0-1.7.4-2 2-1.5 1.1.4 2 .2 2-.4s-.9-1.6-2-2.3c-2.8-1.8-2.5-3 .5-2.2 1.4.3 2.5.4 2.5 0 0-.6-5.5-3.6-6.7-3.6-.4 0-.8 2.6-.7 5.7M208.6 326.2c.9 7 1.4 8.8 2.4 8.8.5 0 1.2-.9 1.5-2 .8-2.6 2.5-1.6 2.5 1.4 0 1.3.6 2.9 1.4 3.5 1.1 1 1.6.2 2.6-3.9.7-2.8.9-5.4.5-5.8s-1-.1-1.2.5c-.7 2-2.3 1.5-2.3-.6 0-2.6-1.8-3.7-2.6-1.7-1 2.5-2.1 1.9-2.7-1.4-1-4.7-2.8-3.7-2.1 1.2M473.8 391.7c-1.6.4-1.8 1.9-1.8 12.3v11.8l7.3.4c3.9.2 23.9.3 44.2.3h37l.3-11.8c.2-8.9 0-11.8-1-12.1-1.9-.6-84-1.4-86-.9m84.2 13v10.6l-19.7-.6c-10.8-.4-29.7-.7-42-.7H474v-8.4c0-4.6.3-9.2.6-10 .6-1.5 5-1.6 42-1.6l41.4.1z"/><path d="M483.1 396c-1 .6-1.2 1.3-.5 2.2 1.1 1.5 1 9.4-.1 12-.5 1.4-.2 1.8 1.2 1.8 1.9 0 2-.6 1.6-7.8-.6-9.5-.5-9.3-2.2-8.2M493.3 395.7c-.7.2-1.3 1.4-1.3 2.6 0 1.6.3 1.8 1.2.9 2.8-2.8 3.9-.1 1.2 3-1.6 1.6-1.6 1.8 0 2.4.9.3 1.6 1.5 1.6 2.5 0 2.2-1.1 2.4-2.8.7-.6-.6-1.5-.8-1.9-.5-.4.4.3 1.7 1.5 2.9 1.7 1.8 2.3 1.9 3.6.8 1.2-.9 1.5-2.7 1.2-7.5-.5-8.1-1.1-9.2-4.3-7.8M514.9 395c0 .3-.1 4.2-.2 8.8-.2 6.7.1 8.2 1.3 8.2 1.3 0 1.5-1.3 1.2-7.8-.2-4.2-.8-8.1-1.3-8.7-.5-.5-.9-.7-1-.5M524 397.9c-2.2 4.2-.7 14.1 2.2 14.1 2 0 3.7-3.5 3.8-7.8 0-4.9-1.4-8.2-3.5-8.2-.8 0-1.9.9-2.5 1.9m4 5.1c0 4.6-.9 7.2-2.1 6.4-1-.6-1.2-9.7-.3-10.7 1.4-1.3 2.4.6 2.4 4.3M535.2 398.5c-3.1 6.7.8 16.9 4.6 12.2.6-.6 1.3-2.9 1.7-5 1.4-7.4-3.6-13.1-6.3-7.2m3.8 5.5c0 4.9-1.3 7.3-2.4 4.4-1.4-3.6-.3-10.9 1.5-9.8.5.3.9 2.7.9 5.4M502 404c0 .5.9 1.1 2 1.1 1.1.1 2.5.2 3.2.3.6.1 1.3-.5 1.6-1.2.2-.8-.8-1.2-3.2-1.2-2 0-3.6.4-3.6 1M632 413c-1.3 2.4.3 6 2.5 6 .8 0 1.5.7 1.5 1.6 0 1.1-.6 1.5-2 1.1-1.3-.3-2 0-2 .9 0 1.7 3.2 1.8 4.8.2.7-.7 1.2-3 1.2-5.3 0-6-3.7-8.8-6-4.5m4 1.9c0 1.1-.4 2.2-.9 2.5-1.1.7-2.3-2.2-1.5-3.5.9-1.6 2.4-1 2.4 1M641.4 413.5c-.9 3.4.1 5.5 2.7 5.5 1.2 0 1.9.5 1.6 1.2-.2.7-1.4 1.3-2.6 1.2-1.2 0-2.1.6-2.1 1.3 0 1 .9 1.3 2.8 1.1 2.5-.3 2.7-.7 3-5.1.3-4.9-.9-7.7-3.4-7.7-.8 0-1.6 1.1-2 2.5m4.4 1.7c-.3.7-1.1 1.3-1.8 1.3s-1.5-.6-1.7-1.3c-.3-.7.4-1.2 1.7-1.2s2 .5 1.8 1.2M650.5 413c.3.5 1.3 1 2.1 1 1.6 0 1.9 1.6.4 2.5-.5.3-1 2.2-1 4.1 0 2.1.4 3.3 1 2.9.6-.3 1-1.8 1-3.3s.7-3.6 1.5-4.6c2.2-3 1.9-3.6-2.1-3.6-2.1 0-3.3.4-2.9 1M659.6 413.8c-.9 2.6.2 5 2.5 5.7 2.7.9 1.7 3.1-1.2 2.7-2.3-.3-2.3-.2-.6 1.5 3 3 5.2.6 5.2-5.8 0-5.1-.1-5.4-2.7-5.7-1.9-.2-2.8.2-3.2 1.6m4.4 2.2c0 2.1-1.5 2.7-2.5 1-.7-1.2.2-3 1.6-3 .5 0 .9.9.9 2M698.6 413.6c-3.1 3.1-1.3 12.4 2.4 12.4 2.7 0 4.2-10.4 1.8-12.8-1.6-1.6-2.3-1.5-4.2.4m3.2 6c-.2 2.2-.7 3.9-1.3 3.9-1.2 0-1.9-6-1-8.3 1-2.8 2.7.3 2.3 4.4M670.6 416.9c-1.9 4-1.6 6.1 1 6.1.8 0 1.4.5 1.4 1.2 0 .8.4.8 1.3-.2 1.7-1.8 1.1-11-.7-11-.6 0-1.9 1.8-3 3.9m2 3.8c-1.1 1.1-1.9-.6-1.1-2.4.8-1.7.8-1.7 1.2 0 .3 1 .2 2.1-.1 2.4M690 414.1c-1.2.8-1.2 1.2-.2 1.6.7.3 1.2 2.3 1.2 4.9 0 2.8.4 4.3 1 3.9 1.2-.7 1.4-10.2.2-10.9-.4-.2-1.4 0-2.2.5M706.4 415.4c-.8 3.2.3 4.8 2.7 4.1 2.2-.7 3.8 2 2.1 3.7-.8.8-1.6.7-2.8-.3-1.4-1.2-1.6-1.1-1.3.6.6 2.9 4.3 3.1 5.6.3 1.4-3.1-.1-6.8-2.7-6.8-1.1 0-2-.5-2-1 0-.6.9-1 2-1s2-.5 2-1c0-.6-1.1-1-2.5-1-1.8 0-2.6.7-3.1 2.4M717.1 414.4c-1.8 2.2-1 9.7 1.2 11 3.6 2.2 6.3-5.6 3.7-10.5-1.3-2.3-3.3-2.5-4.9-.5m3.4 5.1c0 2.2-.5 4-1.2 4.2-.9.3-1.3-.9-1.3-4.2s.4-4.5 1.3-4.3c.7.3 1.2 2.1 1.2 4.3M514 425.2v7.1l-17.3-.6c-9.6-.3-17.9-.2-18.5.2-.8.5-1.4 6.5-1.9 17.4l-.6 16.7h-47.8l.3 12.2.3 12.3 6 .8c3.3.5 13.8.6 23.3.4l17.2-.4v11.2c0 11.3 0 11.3-5.7 19.3-3.2 4.5-10.1 14.5-15.3 22.3-12.7 19-13.1 19.4-15.7 18-1.8-.9-3.3-.6-8.7 1.8-7.8 3.5-10.3 7-8 11.2 2.2 4.3 5.6 4.4 13.2.7 6.4-3.2 6.7-3.5 7-7.2.3-3.1 2.6-7.4 10.5-19 5.6-8.3 10.7-15.6 11.2-16.2.6-.6 3.8-5.3 7.3-10.5 6.2-9.5 6.2-9.5 6.9-20.7l.6-11.2 19.6-.2 19.5-.3.1-12v-12L498 466c-19.5-.5-19.5-.5-19.4-3.8 0-1.7.1-8.8.2-15.7l.2-12.5h72v62.5c0 49.4-.3 62.5-1.2 62.5-.7-.1-4-.7-7.3-1.5-3.6-.9-11.1-1.5-19-1.5h-13l-2.5-4.6c-4.1-7.8-5.9-9.6-9.4-9.3-1.7.1-3.8-.1-4.6-.4-1.2-.5-8.4-.4-11.1.2-.4 0-1.2 1.4-1.9 3.1-1.3 3.1-2.4 3.7-3.5 2-.8-1.4-12.6 4.7-13.2 6.8-.2 1-3.5 3.7-7.3 6.1-9.6 6.2-10 7.4-6.4 20.3 2 7.4 2.9 12.7 2.9 18.8.1 5 .8 10.7 1.8 13.9.9 3 1.7 6.9 1.7 8.7 0 5 3.5 8.3 9 8.5 2.5.1 6.1-.1 8-.6 3.3-.7 5.2-1.5 16.6-6.6 2.5-1.1 4.8-1.9 5-1.6.5.5-6.7 14.3-14.3 27.5-2.9 5.2-5.3 9.5-5.3 9.7s-2.3 4.3-5.1 9.2c-2.8 4.8-6 10.4-7.1 12.3-6.9 12.3-8.2 14-11 14-1.7 0-3.1.7-3.8 2-.6 1.1-2.4 2.7-4.1 3.6-2.8 1.4-3.3 1.4-5.6-.1-2.4-1.6-2.6-1.6-4.6.3-2.8 2.9-1.6 6.6 3.4 9.9 2.2 1.4 3.8 3.1 3.6 3.7s-2 2-4 3.1c-3.7 2-3.7 2-7.5-.3-2-1.2-5.6-3.2-7.9-4.4-4.1-2.1-4.1-2.1-10.1 1.8-5.9 3.7-6 4-6.7 9.2-.5 3.8-.3 5.9.8 7.5.8 1.2 1.7 6.1 2 10.9.4 6.4 1.2 9.9 3.1 13.7 1.7 3.3 2.6 6.7 2.6 9.9 0 3.9.5 5.3 2.6 7.3 1.4 1.3 3.3 3.7 4.1 5.4 2.4 4.8 5.4 7.5 8.3 7.5 1.5 0 5.5-1.1 8.9-2.5 6.9-2.9 7.7-2.8 14.4 1.5 4.2 2.6 4.7 3.4 4.7 6.5q0 3.6 2.4 6c1.3 1.3 3.3 3.7 4.5 5.4 4 5.6 7 5.2 19.5-3.1 9.1-6 12-4.7 15.4 7.2 4.3 14.7 5.8 18.5 8.9 21.7 2.5 2.8 3.8 3.4 5.5 2.9 6.6-2 9.4-1.8 14.3.9 9.7 5.4 14.5 9 14.5 10.8 0 2.8 2.6 7.2 5.9 10 3 2.5 3 2.5 8.7.5 4.1-1.5 5.9-1.7 6.7-.9.6.6 1.7 1.1 2.5 1.1s8.8-3.7 17.8-8.3c13.8-6.9 16.6-8 17.4-6.7.9 1.3 1 1.3 1 0 .1-.8.3-5.4.6-10.1.4-5.7.2-8.9-.5-9.3-.7-.5-1.1 1.2-1.1 5.3 0 9.8-.4 10.3-15.1 17.6-7.2 3.6-13.2 6.4-13.3 6.3-.5-.9-2.6-6-2.6-6.3s.7-.5 1.5-.5c2.9 0 7.5-3 9-6 .8-1.6 3.2-3.7 5.3-4.6 4.8-2.3 4.4-1.8 5.1-6.1.4-2.7 1.4-4.1 3.5-5.3 3.9-2.1 4.8-4.5.9-2.5-3.8 2-4.3 1.9-4.3-.9 0-4.6-2.9-7-19-15.8-8-4.4-8.5-5.1-6.7-7.9 1.5-2.5 2.7-16.8 2.7-34 0-9.8 1.2-12.6 5.1-11.6 1.5.4 3.4 2.2 4.7 4.6 1.9 3.3 2.2 5.4 2.2 14.3 0 6.3-.4 10.8-1.1 11.5s-.9 2.7-.5 5.5c.7 4.4.8 13.9.2 14.6-.2.2-2.6-1.1-5.4-2.7-5.5-3.4-7.1-3.9-5.1-1.5 1.4 1.7 10.2 6.4 12 6.4.9 0 1-2.7.6-10.4-.7-10.5-.7-10.5 2.7-12.5 4.1-2.6 4.6-2.6 4.6-.2 0 1.1.5 2.3 1 2.6 1.6 1 1.1 2.5-.8 2.5-2.3 0-5.9 2.6-5 3.5.4.4 1.7 0 3-.9 3.4-2.4 3.7-2.1 3.6 3.8-.1 5.1-.3 5.5-3.5 7-1.8.9-3.3 2-3.3 2.6 0 1 1.3.7 6.2-1.9 3.3-1.6 3.3-1.6 3-9.1-.2-4.1-.7-7.9-1.2-8.4-1.6-1.6-1.2-5.9.5-5.3.8.4 9.7-3.5 19.7-8.6 18.9-9.6 36.4-17.3 45.6-20.3 2.8-.9 5.2-2 5.2-2.5 0-1.2-3.9-.2-11.5 2.9-6.5 2.6-8 3.3-19.9 8.6-7.5 3.4-8.1 3.5-10.3 2-1.4-.8-2.8-1.3-3.1-.9-.4.4.1 1.1 1.1 1.6.9.6 1.5 1.4 1.3 1.8-.5.8-26 14.1-27.1 14.1-.3 0-.5-2.9-.5-6.4 0-6.4 0-6.4 3.8-7.4 4.7-1.3 21.6-7.2 22.1-7.8 2.3-2.2-10 1.1-20.4 5.6-2.5 1.1-4.9 2-5.1 2s-.4-1.8-.4-4c0-5.2-1.6-8.7-6.2-13.3-2.2-2.3-3.2-3.9-2.5-4.2.7-.2 4.6-1.3 8.7-2.5 4.1-1.1 8.4-2.5 9.5-3 3.8-1.7 11-3.8 17-4.9 3.2-.6 6.4-1.6 7-2.2 1.8-1.9-8.3.2-22.5 4.6-18.4 5.8-19.5 6-23.5 4.1l-3.4-1.6 3-4.9c2.9-4.7 3.3-4.9 8.6-5.6 8.6-1.1 24.4-6.7 22.9-8.2-.3-.3-2.4.2-4.8 1.2-6.7 2.7-21.8 6.2-21.8 5.1 0-.7 10-18 11.1-19 .9-1 4.2.5 13.9 6.1 5.7 3.4 7 3.9 7 2.5 0-.5-2.6-2.2-5.7-3.9-7-3.6-13.3-7.4-13.3-7.9 0-.2 2.4-4.7 5.4-10.1 5-9 6-12 5.7-17.9-.1-3.2-2.9-3.8-5-1.2-2.8 3.4-5.5 1.8-4.8-2.9.4-2 .3-3.2-.2-2.7s-5.2 8.5-10.4 17.9c-5.2 9.3-11.5 20.4-13.9 24.5-2.5 4.1-8.4 14-13.1 22-13.2 22.5-20.7 34.5-25 40.1-4 5.3-3.9 7.4.2 5.8 1.5-.6 2.1-1.4 1.7-2.5-.4-.9 1.7-5.1 5.3-10.7 3.2-5.1 8.1-13 10.8-17.7 8.6-14.6 28.6-48.5 28.9-48.8.5-.7 4.4 1 4.4 1.9 0 1-4.7 9.3-19 33.4-4.5 7.7-9.1 15.3-10 17-10 17.5-15 24.5-17.3 24.5-1.6 0-1.7.3-.8 1.4 1 1.1.6 2-1.6 4.1-2.4 2.3-2.5 2.6-.8 2.3 2.1-.3 14.5-17.6 18.7-26 1.2-2.6 2.6-4.8 3.1-4.8.4 0 .7-.5.7-1 0-.6 2-4.3 4.3-8.3 2.4-3.9 7.6-12.7 11.6-19.5 3.9-6.7 7.4-12.2 7.7-12.2.7 0-2.8 6.6-8.5 15.8-2.8 4.6-5.1 8.5-5.1 8.8 0 .7-18.3 30.9-23 37.9-5.1 7.6-6.6 11-5.1 11.9.5.3 1.2-.5 1.5-1.8.3-1.4 2.9-5.9 5.6-10 5.2-7.8 15.4-24.7 19.8-32.6 1.3-2.5 7-12.1 12.6-21.4 9.5-15.9 16.5-28.3 21.8-38.5 2.1-4.1 2.3-4.3 2.6-1.8.2 1.4-.4 4.1-1.4 5.9-2 4-11.8 20.9-14.9 25.8-1.3 1.9-3.4 5.5-4.8 8-1.3 2.5-5.3 9.2-8.8 15-8.1 13.5-14.7 26.6-15.5 30.6-.4 2.2 0 4 1.1 5.8 1 1.5 1.6 2.9 1.3 3.1-.2.2-4.2 2.4-8.8 4.9-4.7 2.5-8.6 5-8.9 5.7-.2.6 4-1.1 9.4-4 5.4-2.8 10.2-5.1 10.6-5.1 2.1 0 .6 2.7-2.3 4.4-1.7 1.1-6 4.3-9.5 7.3l-6.4 5.4-10.7-6.1c-5.9-3.4-11.8-7-13.1-7.9-2.4-1.8-2.4-1.8 3.9-5 3.4-1.8 6.4-3 6.7-2.8.2.3-1 1.6-2.7 3.1-1.8 1.4-3 3.1-2.8 3.7.8 2.5 10.3-9.4 17.6-22.2 7.2-12.6 20.6-35.6 24.4-41.9 13.6-22.7 25.8-44.9 25.8-47.2 0-2-1.5.2-6.5 9.7-2.6 4.9-5.6 10.3-6.5 12-1 1.6-2.9 5-4.2 7.5-4.2 7.6-6.4 11.4-11 19.1-4.2 6.9-10.3 17.4-24.4 41.5-5.9 10.1-5.9 10.1-14.9 14.8-4.9 2.5-9.6 4.6-10.3 4.6-2.1 0-24.1-13.4-23.8-14.5.5-1.7 17.6-11.2 45.6-25.2 15.9-7.9 18-9.3 18-11.4 0-.8-.6-.7-1.7.4-1 .8-10.8 6.1-21.8 11.7s-20.4 10.6-21 11c-.5.4-4.6 2.6-9 5s-9.1 5.1-10.5 6c-2.5 1.7-2.7 1.6-11.8-3.8-9.4-5.6-9.4-5.6-6.6-7.6 3.6-2.7 27.8-17.1 36.9-22.1 6.8-3.7 13.8-7.5 22-12 3.6-2 7.5-3.5 24.5-9.7 8.7-3.1 15-6.1 15-7 0-1.1-.5-1-5.3 1.1-2.3 1-10 4-17.2 6.7-7.1 2.6-14.2 5.3-15.6 6-2.2 1.1-3 1-5.5-.7-4.1-2.7-5.5-2.3-1.9.6 1.6 1.3 2.7 2.6 2.5 2.9-.3.2-5 2.9-10.5 5.9-16.5 8.9-24.9 13.8-26 14.8-.5.5-1.5.9-2.2.9-1.1 0-1.3-1.4-1.1-5.8.3-5.7.3-5.7 10.3-10.7 5.5-2.8 12.5-6.1 15.5-7.5 5.8-2.5 9-4.7 9-6.1 0-.5-1.6.3-3.6 1.6-2 1.4-4.1 2.5-4.6 2.5s-6.5 2.7-13.4 6.1c-6.9 3.3-12.6 5.9-12.7 5.7-.1-.1-.1-4.8.1-10.4l.3-10 6.6-4.3c3.7-2.4 8-5 9.7-5.7s4.5-2.2 6.1-3.3c1.7-1.2 5.5-2.8 8.5-3.7 17-5.1 24-7.9 31-12.7 4.7-3.3 8.9-7.6 9-9.2.2-4 2-3.5 13.4 4 6.4 4.2 12.2 7.5 12.9 7.2 1.2-.4-1-1.9-18.3-12.7-4.7-3-11.4-7.2-15-9.5s-8-5-9.9-6c-1.9-.9-5.6-3.3-8.3-5.1-5.4-3.8-6.6-3-1.5 1l3.2 2.6h-3.6c-4.6 0-9.8-5-14.1-13.7-2.9-6-3.1-6.8-2.6-15.2.8-13.7 6.1-22 15.3-24.1 3.2-.7 4.5-.4 8.7 1.8 3.8 2.1 4.7 3.1 4.3 4.7-.2 1.1-.5 3-.5 4.2 0 1.4-.6 2.3-1.5 2.3-2.3 0-8.3 6.6-10.7 11.8-2.2 4.8-3.9 17-2.1 15.9.5-.3 1-2.7 1.2-5.3.1-2.7 1.4-7.2 2.9-10.3l2.7-5.5.6 5.1c.4 2.7 1.8 7 3.3 9.5s2.6 6 2.6 8c0 3.6 3.1 8.8 5.4 8.8.6 0 2.7-1.1 4.6-2.4 3.4-2.3 3.4-2.3 6.7-.2 2 1.2 3.7 3.5 4.4 5.6.6 1.9 1.6 4.1 2.2 4.7 1.4 1.9 5.2 1.6 9.6-.7 3.8-1.9 5.1-3.6 5.1-6.7 0-.8.9-2.8 2-4.3 1.5-2.1 2-4.3 1.9-8.5-.1-3.9.3-6 1.2-6.6.7-.4 1-1.1.6-1.5-1.7-1.7-3.7 2.1-3.7 7.2 0 5.3-1.6 10.4-3.2 10.4-.4 0-.8-1.7-.8-3.7 0-4.2-2.8-12.3-4.2-12.3-1 0-.1 4 1.3 5.4.5.6.9 3.1.9 5.8 0 4-.4 5-2.5 6.4-3.1 2-2.3 3.7 1.1 2.4 3.3-1.3 3.4-1.3 3.4.5 0 .8-1.1 2.2-2.5 3.1-2.5 1.6-2.7 1.6-5.3-1-1.6-1.4-3.6-2.6-4.5-2.6s-1.7-.6-1.7-1.3c0-.6-3-2.9-6.6-5.1-6.1-3.6-6.6-3.8-7.8-2.1-1.2 1.6-1.3 1.6-1.9.1-.4-.9-1.3-1.6-2.2-1.6-.8 0-1.5-.7-1.5-1.5s-1.3-4.1-3-7.3c-4.4-8.8-3.9-16.2 1.2-16.2 1.1 0 1.8-.7 1.8-1.9 0-2.2 1.6-3.7 2.2-2 .5 1.4 5.8 1.9 5.9.5.3-2.2-.3-4.1-1.7-5.7-.8-.9-1.1-1.9-.7-2.2 1-1 9.6-.8 11.3.3 1.2.8 1.1 1.3-.8 3.3-1.2 1.3-2.2 2.8-2.2 3.4s-1.8 1.8-4 2.7-4 2-4 2.5c0 2.4 12.2 9.6 14.6 8.7.8-.3 3 .3 4.8 1.4 3 1.6 3.5 1.7 4 .4.7-1.9-2-7.3-4-8.1-2.4-.9-1.5-2 2.4-2.8 4.5-.9 10.4-.7 11.6.5.5.5-1.1 3.1-3.8 6.1-4.7 5.3-5.7 7.3-3.1 6.3.8-.4 1.5-1 1.5-1.4s2-2.7 4.4-5c5-4.8 5-6.4-.1-8.5-4.6-2-6.2-1.9-11.8.5-4.7 2-4.7 2-7.6-.1-3.6-2.5-3.6-3.2-.2-6.3 3.2-3 2.3-4.6-3.6-6.6-3.3-1.1-4.6-1-8.4.3s-4.8 1.3-5.7.2c-.6-.7-3.5-2.5-6.4-3.9-5.3-2.6-5.5-2.6-10.2-1-6.2 2-7.5 3.2-11.2 10.2-3.9 7.4-5.5 18.7-3.6 25.1 1 3.3 1 4.8.2 5.8-.6.8-2.1 3.3-3.3 5.6-3.4 6.5-8.4 15.6-12 21.7-1.8 3-4.1 7.1-5.2 9-5.1 9.5-11.6 20-12.3 20-.4 0-1.3-.7-2-1.5-.9-1.1-.8-2 .9-4.4 1.2-1.6 2.1-3.1 2.1-3.4s1.7-3.4 3.8-6.8c6.7-11.2 26.4-48.1 25.8-48.6-.2-.3-1.9 2-3.6 5.1-5.2 9.2-4.6 6 .8-4.2 2.2-4.2 2.2-4.2-.3-4.2-2 0-2.5-.5-2.5-2.5 0-1.5-.6-2.6-1.5-2.7-.8 0-1.9-.1-2.5-.2-.5-.1-2 1.9-3.2 4.4-2.2 4.3-2.5 4.5-6.2 4.2-6.6-.6-16-5.5-18.4-9.6-5.8-9.8-7.8-24.3-5-36.2 1.1-4.7 1.5-5.3 4.3-5.7 1.6-.3 4.8-1 7-1.7 6.2-1.8 46.3-2.5 54.9-1 6.7 1.2 18.7 6.3 29.6 12.6 7.8 4.5 18.4 10.7 20.9 12.2 2.8 1.7 14.5 8 17.8 9.6 1.3.6 2.3 1.4 2.3 1.8 0 .5.4.8 1 .8.5 0 4.7 2.2 9.2 4.9 4.6 2.6 14.8 8.5 22.8 13.1 17.5 9.9 18.3 10.4 29 16.7 8 4.8 10.5 6.2 19.8 11.4 6.6 3.7 6.8 4.2 2.3 5.5-2.2.6-6.3 2.6-9.1 4.3-4 2.5-5.5 2.9-7 2.1-2.8-1.5-3.8-1.2-1.6.5 1.8 1.4 1.8 2 .6 10.7-1.3 9.5-2.6 13.4-5.5 15.8-1.7 1.4-3.4.8-10.8-3.9-3.8-2.4-3.8-2.4-1.6-4.8 2.3-2.3 2.3-2.3 4.6-.1 1.9 1.8 2.7 2 4.8 1 1.4-.6 2.5-2 2.5-3 0-2.4-2.8-6.2-4.7-6.2-.8 0-2.9-1-4.5-2.2-2.3-1.6-3.5-1.9-4.7-1.1-2.1 1.3-2.7 5.3-.8 5.3.8 0 2.1.7 2.8 1.6 1.1 1.4 1 1.9-1.1 3.6-1.4 1.2-3.7 2.5-5.2 3-3.9 1.4-3.5 2.8.9 2.8 2.3 0 5.9 1.3 10 3.6 6.5 3.6 6.5 3.6 9.3.9s3.8-5.6 6-17.5c.6-3.6 1.6-7 2.2-7.7.5-.7 3.7-2.6 7.1-4.3 9.8-4.9 16.6-3.8 21.7 3.7 2.1 3.1 2.5 5 2.8 13.2.2 7.2-.1 10.2-1.2 12.1-.8 1.4-2 3.6-2.6 5-5.1 11.2-6.8 12.6-17.6 14.6-16.5 3.1-15.1 3.2-15.9-1.7-.5-2.6-1.7-5.3-3.1-6.6-1.3-1.2-2.5-3.5-2.5-5-.1-2.8-.1-2.8-.8-.1-.6 2.8-.6 2.8-3.9.8-1.8-1.1-3.8-3.4-4.4-5.1-1.3-3.8-2.2-3.1-1.3 1.1.5 2.4 1.9 3.8 6.1 6.1 6 3.4 8.4 6.2 8.4 9.6 0 2.8-.6 2.8-4.7.3-2.6-1.5-3.3-2.7-3.3-5 0-1.6-.4-3-.9-3-.4 0-.6 1.1-.4 2.4.4 2 0 2.4-3.4 2.9-2.1.4-5.9.7-8.6.7-4.2 0-4.9-.3-5.7-2.6-1.6-4.2-1.1-14.7 1-21 2.2-6.7 2.4-7.8 1-6.9-.5.3-1.9 3.8-3.1 7.8-1.6 5.4-2 8.9-1.7 13.9.3 3.8.3 6.8.1 6.8-.3 0-1.7-.9-3.2-1.9-1.5-1.1-5.4-3.4-8.6-5.2-3.3-1.8-9.3-5.4-13.4-8.1-6.4-4.2-10.1-5.8-10.1-4.4 0 .3 11.6 7.5 16.5 10.2 1.1.6 5.4 3.1 9.5 5.6 4.2 2.6 9.2 5.4 11.2 6.4 3.4 1.6 3.6 1.8 2.5 4.8-1.5 4.5-4.4 8.3-7.7 10.3-3 1.7-3.9 3.3-2 3.3 3.2 0 12-11.3 12-15.3 0-1.1 1.8-1.6 6.8-1.9 5.9-.4 7.4-.2 12.6 2.4 5.9 3 5.9 3 17.5.7 6.4-1.2 13-3.1 14.7-4.1 2.8-1.6 7.4-8.9 7.4-11.8 0-.5 1-1.9 2.3-3 2-2 2.2-3 2.2-12.9-.1-9.8-.3-11.1-2.8-15.3-1.5-2.7-4.5-5.8-7.2-7.4-2.5-1.6-4.5-3.2-4.5-3.6 0-1.2 8.2-2 13.8-1.3 17.5 2 31.2 11.3 38.3 26 2.1 4.4 2.4 6.3 2.3 16.5-.2 27.9-12.3 50-37.2 68-3.4 2.5-5.8 4.6-5.3 4.8 3.1 1 24.5-18.5 30.8-28 4.2-6.2 8.8-16.2 10.2-22.1 3.8-16.1 4.5-22.2 3.1-30.1-3.1-19-20.2-34.1-41.6-37-8.4-1.1-8.8-1.2-9.7-4.1-2.6-7.8-9.4-14.9-18.5-19.2-5.1-2.4-6.8-2.7-17.2-2.7-7.4 0-12.3.4-13.7 1.2-3.5 1.9-6-.2-6.8-5.7-1-6.3-3.6-11-9-16-4.8-4.5-13.5-9.1-17.1-9.1-1.2 0-2.6-.6-3.2-1.3-1.1-1.3-1.2-1.7-1.2-4.7 0-2.9-11.1-10-19-12.2-3.6-.9-9.2-1.7-12.5-1.7-5.6 0-14.7 1.7-16 3.1-.3.3-4.4-1.5-9-4l-8.5-4.5-.2-64.1-.3-64.1-18.2-.3-18.3-.2v-7c0-4-.4-7-1-7s-1 3.1-1 7.2m0 53.3V489h-15.8c-8.7 0-27.4-.3-41.5-.7l-25.7-.6.1-9.9V468H514zm-27.4 66.2c.7 1 1.3 2.9 1.3 4.3 0 2.5 0 2.5-1.2 0-1.5-3.5-1.5-3.4-3.2-2-1.7 1.5-1.9.7-.5-2.1 1.3-2.4 1.9-2.4 3.6-.2m6.9-.2c0 .5-1 1.1-2.2 1.3-1.6.2-2.3-.2-2.3-1.3s.7-1.5 2.3-1.3c1.2.2 2.2.7 2.2 1.3m9.4 1.6c2.7 4.4 5.2 9.1 4.9 9.4-.4.3-18 1.3-17.6 1 1.5-1.4 8.2-4.5 9.7-4.5 2.1 0 3.3-2.2 2.4-4.6-.4-1.2-1.4-1.4-3.9-.9-1.9.3-3.4.2-3.4-.3 0-3 6-3 7.9-.1m-8.5 2.8c.3.5-.1 1.2-1 1.5-2.2.9-2.4.8-2.4-.9 0-1.6 2.5-2.1 3.4-.6m6.6.1c0 .5-.4 1-1 1-.5 0-1-.5-1-1 0-.6.5-1 1-1 .6 0 1 .4 1 1m-23.5 3.4c0 1.6-.6 3.1-1.4 3.4-1.1.4-1.2-.2-.7-2.3.6-2.2.4-2.6-.8-2.1-.9.3-2.3.9-3.1 1.2-2.4 1-1.7-1.2.8-2.4 3.5-1.7 5.2-1 5.2 2.2m8.7.2c.9 1.2-3.6 4.5-8.1 5.9-2.1.6-2.1.6.2-2.9 1.2-1.9 2.7-3.5 3.3-3.6.7 0 1.5-.8 1.9-1.8.6-1.4.8-1.5 1.3-.2.2.8.9 2 1.4 2.6m-19.2.9c0 .3-.2.5-.5.5s-.5-.2-.5-.5.2-.5.5-.5.5.2.5.5m6.3 3.5c.4 1.6 0 2-1.9 2-3.3 0-8.3 2.6-11.8 6.3-2.6 2.7-2.8 3.4-2.2 8.1.3 2.8 1.2 6.9 2 9.1.7 2.2 1.6 5.2 2 6.7.6 2.6.4 2.8-2.7 2.8-3.3 0-3.3 0-6-9.5-3.4-12-3.4-14 .1-17.3 2.9-2.7 16.7-10.2 18.8-10.2.7 0 1.4.9 1.7 2m-.5 6.5c.1.1-.5 2.1-1.3 4.5-3.4 9.7-1 25.6 5.6 36.6 2.6 4.2 4.1 5.7 7.4 6.7 3.2 1.1 3.9 1.9 3.8 3.6-.3 2.2 1.1 2.9 2.2 1.1.8-1.3 7.2-1.3 8 0 .3.6-.2 1.3-1.2 1.6s-3.4 1.4-5.3 2.4c-3.5 1.9-3.5 1.9-9.2-3.9-4.7-4.8-15.7-12.1-18.2-12.1-1.9 0-.1 1.8 3.3 3.2 4.4 1.9 15.5 10.9 17.1 13.8.9 1.7.4 2.2-4.5 4.5-3.1 1.4-6.6 2.5-7.8 2.5-2.4 0-4.7-1.7-4.7-3.4 0-.6.5-.5 1.2.2 2 2 4.4 1.4 5.6-1.3 1-2.1.9-2.8-.9-4.6-2-2-2.2-2-4-.3-1 .9-2.1 1.5-2.3 1.3-.1-.2-1.5-4.4-3-9.2-2.4-7.7-2.5-9.2-1.5-12.2 1.1-3 .9-4.8-1.5-14.4-1.9-7.2-2.6-12.1-2.2-14.3.8-4.3 5.8-7.8 10.1-7 1.7.2 3.1.6 3.3.7m-35.3 1.5c2.1.8 2.6 1.6 2.3 3.7-.2 2-1.4 3.2-4.7 5-4.5 2.3-10.5 3.1-11.6 1.3-.7-1.1.5-6.3 1.3-5.6.3.3 1-.2 1.7-1.1.6-.8 2.6-1.6 4.3-1.7 2.1-.1 3.1-.5 2.7-1.4-.5-1.5.5-1.5 4-.2m157.4 4c6.2 1.1 14.1 4.3 14.1 5.8-.1.4-3.7 2.4-8.1 4.4-8 3.8-8 3.8-11.7 1.8-9.6-5.2-15.7-8.9-16-9.9-.2-.5 1.4-1.3 3.5-1.6 2.1-.4 4.3-.8 4.8-1 2-.7 7.1-.5 13.4.5m20.6 9.6c.9.9 1.5 2.6 1.3 3.7-.2 1.6-1.2 2-4.8 2.2-2.5.1-7.1.6-10.2 1-4.9.7-5.8.5-5.8-.7 0-.9 2.3-2.6 5.3-3.9 9.6-4.3 11.8-4.7 14.2-2.3m8 9.4c2.7 1 2.7 1 .6 4.6-1.3 2.2-1.6 3.4-.9 3.2.7-.3 1.9-1.7 2.6-3.1.7-1.5 1.8-2.7 2.3-2.7 3.4 0 12.4 7.3 15.4 12.5 2.3 3.8 4.3 11.5 3.1 11.5-.3 0-5.6-3-11.8-6.6-20.9-12.3-25.3-14.9-29-16.8-2-1.1-3.5-2.4-3.2-2.8.7-1.2 17.8-1 20.9.2m-71.8 5.7c-.4.3-.7 0-.7-.7s.3-1 .7-.7c.3.4.3 1 0 1.4m-90.1 3.5c-.8 4.1-1.9 5.2-4.5 4.3-2.4-.7-2.5-1.3-1.1-4.9.7-1.9 1.7-2.6 3.6-2.6 2.5 0 2.6.2 2 3.2m105.2 2.8c2.4 2.2 2.7 3.7 1.3 5.9-.9 1.5-3.1.6-8.4-3.3-2.6-1.9-2.7-2.1-1.1-3.3 2.6-1.9 5.7-1.6 8.2.7m-104.4 9.4c2.1 7.2 2.1 7.6-1.3 7.6-2.6 0-3-.5-4.5-5.8-2.1-7.5-2.1-7.2 1.3-7.2 2.7 0 3.1.5 4.5 5.4m39 9.2c-7.5 14.4-11.2 21.2-20.2 37.4-14.1 25.3-21.4 37.9-26 44.8-2.3 3.5-3.1 5.6-2.4 6.1.7.4.4 1.5-.9 3.1-2 2.4-2 2.4-.9.2 1.6-3.3.5-3.9-1.4-.9-1.4 2.1-1.5 2.8-.2 5.8s1.3 3.6-.1 5.2c-.9.9-1.3 2-1 2.3.3.4 1.8-.7 3.2-2.2 2-2.3 2.4-2.4 1.6-.7-1.4 2.7-1.4 5.3-.1 5.3.6 0 1-.8 1-1.8 0-2.3 8.9-16.2 10.5-16.2.6 0 1.7 1 2.3 2.2 2.3 4.8 2.3 6.4-.3 9.2-1.5 1.6-2.5 3.9-2.5 5.6 0 1.6-.4 3.2-1 3.5-.5.3-1 2.2-1 4.1 0 2-.3 3.4-.8 3.2-3.3-1.4-24.2-14.5-24.2-15.1 0-.4 1.3-1 3-1.3 1.6-.4 2.7-1.1 2.4-1.6s.3-1.9 1.4-3.1c3.4-3.8 24.2-36.6 24.2-38.3 0-.3.8-1.8 1.8-3.2 1.1-1.5 3.2-5.2 4.9-8.2 1.6-3 6.1-11.1 10-18 3.8-6.9 9.8-17.9 13.3-24.5 6.3-12.2 8-14.9 8.7-14.1.2.2-2.2 5.2-5.3 11.2m72.6-11.1c0 .3-.2.5-.5.5s-.5-.2-.5-.5.2-.5.5-.5.5.2.5.5m-67.8 8.7c-1.6 2.9-7.2 13.2-12.5 22.8-5.2 9.6-10.3 19.1-11.4 21-5.6 9.7-9.4 16-9.9 16-.4 0 4.5-9.4 9.9-19 1.1-1.9 3.8-6.9 6-11s4.8-8.6 5.7-10 4-7.2 6.9-13c5.6-10.9 7.1-13.3 7.8-12.6.3.2-.9 2.8-2.5 5.8m5.8-3.8c0 .2-1.3 2.8-2.8 5.7-9.1 17.2-13.7 25.7-15.1 27.9-.9 1.4-2.3 3.8-3.1 5.5-.8 1.6-4.5 8.3-8.2 14.8s-6.7 12.1-6.6 12.5-1.7 3.6-4 7.1-4.2 7.2-4.2 8.3c0 1-.4 1.8-1 1.8-.5 0-4 4.5-7.6 10-3.7 5.5-7.1 10-7.7 10-1.4 0-.3-2.2 5.3-10.4 7.3-10.9 10-15.5 27.9-47.6 5.1-9 9.6-16.9 10-17.5.5-.5 3.2-5.7 6.2-11.5 6.8-13.5 8.9-17 10-17 .5 0 .9.2.9.4m174.9 8.5c7.5 3.8 12.5 8.7 15.2 14.9 2.1 4.8 1.8 6.2-1.1 6.2-1 0-2.1.4-2.5 1-.3.5-2.8-.4-5.6-2-2.7-1.7-5.2-3-5.4-3s-3.9-2.2-8.3-4.9-10.4-6.2-13.3-7.8c-7.6-4.2-9.9-5.7-9.9-6.5 0-1.2 4.3-1.6 14.5-1.4 9.1.2 10.6.5 16.4 3.5m-220.9 1c0 1.6.3 3.6.6 4.5.5 1.2-.1 1.6-2.5 1.6-3.4 0-5.1-2.2-5.1-6.4 0-2.3.4-2.6 3.5-2.6 3.2 0 3.5.2 3.5 2.9m7 .2c0 2.4-2.3 2.1-2.8-.4-.2-1 .3-1.7 1.2-1.7 1 0 1.6.9 1.6 2.1m53.9 10.3c3.8 4.2 8.7 6 12.1 4.6 2.5-1 3.5-.7 9.6 3.1 3.8 2.3 8.4 5.1 10.2 6.1 4.5 2.8 4.2 5.8-1.2 11.2-5.9 6-16.3 10.7-35.1 16-5.8 1.7-9.5 1.5-17.6-1-.9-.2-2.7.6-4 2-1.9 2-2.8 2.2-5.3 1.5-1.6-.5-3.2-.6-3.5-.3-.8.8 2.1 2.4 4.5 2.4 1.7 0 4.4 3.4 4.4 5.5 0 .5-8.7 6.5-9.4 6.5-.3 0-.6-.6-.6-1.3s-.9-3-2-5.1c-2.2-4.3-2.8-2.7 8.6-22.6 7.7-13.6 9.3-16.4 15.5-27.7l6.3-11.2 2.4 3.7c1.4 2 3.7 5 5.1 6.6m-21.9-1.3c-1.6 3-3 5-3 4.6 0-1.3 5.1-10.9 5.6-10.5.2.3-.9 2.9-2.6 5.9m51.5-4.2c.3.5.1 1.2-.5 1.6-.5.3-1-.1-1-.9 0-1.8.6-2.1 1.5-.7m-5.5.6c0 .3-.2.5-.5.5s-.5-.2-.5-.5.2-.5.5-.5.5.2.5.5m21 9.5c0 .5-.4 1-1 1-.5 0-1-.5-1-1 0-.6.5-1 1-1 .6 0 1 .4 1 1m-70 .5c0 .3-.2.5-.5.5s-.5-.2-.5-.5.2-.5.5-.5.5.2.5.5m-4 6.9c0 .3-.5.8-1.2 1.2s-.8.3-.4-.4c.7-1.2 1.6-1.6 1.6-.8m-5 8.1c0 .3-.2.5-.5.5s-.5-.2-.5-.5.2-.5.5-.5.5.2.5.5m-1 2c0 .3-.2.5-.5.5s-.5-.2-.5-.5.2-.5.5-.5.5.2.5.5m-1 2c0 .3-.2.5-.5.5s-.5-.2-.5-.5.2-.5.5-.5.5.2.5.5m-1 2c0 .3-.2.5-.5.5s-.5-.2-.5-.5.2-.5.5-.5.5.2.5.5m171.9 5.4c1.6 1.2 2 2 1.2 2.5-1.3.8-6.1-1.9-6.1-3.4 0-1.6 2.3-1.1 4.9.9m-174.9-.4c0 .3-.2.5-.5.5s-.5-.2-.5-.5.2-.5.5-.5.5.2.5.5m181 2.9c0 .2-.7 1.6-1.5 3.2-1.2 2.3-1.5 2.5-2.1 1.1-.8-2.3.2-4.7 2.1-4.7.8 0 1.5.2 1.5.4m-71.5 2.7c-.4 1.1-2.4 5.1-4.6 8.8-4 7-4.4 8.1-3.1 8.1.4 0 2.2-2.8 4-6.3 4-7.5 6-10.3 6.8-9.4.6.6-6.9 15.1-9.9 19.1-1.1 1.5-1.7 1.7-3.5.7-2.2-1.2-2.2-1.2.3-5.9 1.4-2.6 3.4-6.3 4.6-8.2 1.1-1.9 2.7-4.7 3.5-6.3 1.7-3.2 2.8-3.6 1.9-.6m8.5-1.6c0 .3-.2.5-.5.5s-.5-.2-.5-.5.2-.5.5-.5.5.2.5.5m-2.5 4.6c-.9 1.7-1.9 2.9-2.2 2.6-.5-.5 2.5-5.7 3.3-5.7.3 0-.3 1.4-1.1 3.1m67.5-2.7c0 .3-.4.8-1 1.1-.5.3-1 .1-1-.4 0-.6.5-1.1 1-1.1.6 0 1 .2 1 .4m-156.7 7.3c1.1.7-7 5.2-9.4 5.3-2 0-3.2-2.6-2.3-5.3.5-1.7 1.2-1.9 5.7-1.3 2.8.4 5.5 1 6 1.3m-33.3-.2c0 .3-.2.5-.5.5s-.5-.2-.5-.5.2-.5.5-.5.5.2.5.5m119.1 1.8c-1 .9-1.1.8-.5-.6.3-1 .9-1.5 1.2-1.2s0 1.1-.7 1.8M465 689.7c-7 11.6-13.8 21.5-9.3 13.3 1.1-1.9 4.3-7.2 7.2-11.8 2.8-4.6 5.1-8.6 5.1-8.8 0-1 3.3-5.4 3.7-5 .2.2-2.8 5.7-6.7 12.3m21.2-7.5c3.3 5.2 4.1 11.5 3.4 26.6-1.1 22.6-.6 21-8 24.9-2.8 1.5-2.9 1.5-2.2-1 .3-1.4.7-9.9.7-18.9.2-16.1-.9-23.8-3.3-23.8-.6 0-.7.7-.3 1.7 2 4.7 2.4 11.2 1.8 27.3-.6 17.5-.6 17.5-3.7 19.6-3 1.9-3.3 1.9-6 .3-1.6-1-3.3-2.3-3.7-3.1-1.2-1.8-1.1-7.6.1-8.3.6-.3 1-1.8 1-3.2s1.1-3.9 2.5-5.5c2.7-3.2 2.7-4.9-.4-10.3-1.6-2.8-1.6-3.3.2-9 2.8-8.8 5.6-14.2 9.5-18.1 3.7-3.7 5.6-3.5 8.4.8m108.3 4.3c-1.9 3.3-3.5 5.5-3.5 4.9 0-1.4 6.1-11.7 6.6-11.1.2.2-1.1 3-3.1 6.2m-6.1 11c-.9 1.4-1.9 2.4-2.1 2.1-.6-.6 2-4.6 3-4.6.4 0 0 1.1-.9 2.5m-134.9-.5c-.3.5-1.3 1-2.1 1s-1.4-.5-1.4-1c0-.6.9-1 2.1-1 1.1 0 1.7.4 1.4 1m12.1 3.8c-1.7 1.6-1.8 1.6-.5-.5.7-1.2 1.5-2 1.8-1.7.3.2-.3 1.2-1.3 2.2M450 702c-1.2 2.2-2.7 2.5-5 1-1.3-.9-1.3-1.1 0-2 .8-.5 2.5-1 3.8-1 2 0 2.1.3 1.2 2m-8.3 1.1c5.4 3 5.6 3.3 3.5 5.9-1.9 2.3-1.9 2.3-5.3-.1-4.1-2.9-4.9-3.9-4.9-6.2s2.1-2.2 6.7.4m144.3-1.7c0 .3-.5.8-1.2 1.2s-.8.3-.4-.4c.7-1.2 1.6-1.6 1.6-.8m-122 2c0 .3-.5.8-1.2 1.2s-.8.3-.4-.4c.7-1.2 1.6-1.6 1.6-.8m-2 3.1c0 .3-.2.5-.5.5s-.5-.2-.5-.5.2-.5.5-.5.5.2.5.5m-28.2 14c7.9 4.7 14.5 8.5 14.8 8.5s2.4 1.3 4.7 2.9c2.3 1.5 4.7 3 5.2 3.2.6.2 5.5 3.1 10.8 6.4 13 8 13.6 8.3 33.2 19.8 9.4 5.5 20.8 12.2 25.5 15 4.7 2.7 11 6.4 14 8 3 1.7 6.6 3.8 8 4.7s5 3 8 4.7c13.2 7.2 28.1 16.6 29.5 18.6.9 1.3 1.5 4.4 1.5 8.3 0 5.5-.2 6.2-2.5 7.2-3.6 1.6-3.5 1.7-3.5-3.2 0-6.8-1.4-9.1-8-13.5-3.4-2.3-6.3-4.1-6.6-4.1-.2 0-3.4-1.8-7-4s-6.8-4-7-4c-.3 0-2.1-1.1-4.2-2.3-2-1.3-5.7-3.5-8.2-4.9s-6.3-3.6-8.5-4.8c-2.2-1.3-6.9-4-10.5-6s-8.3-4.7-10.5-6c-10.5-6.1-45.4-26.7-67-39.6-13.2-7.8-26.1-15.3-28.7-16.6-2.6-1.2-4.8-2.5-4.8-2.8 0-.7 5.3-3.9 6.5-4 .6 0 7.5 3.8 15.3 8.5m23.2-7c0 .3-.2.5-.5.5s-.5-.2-.5-.5.2-.5.5-.5.5.2.5.5m-43.3 5.6c2.5.9 11.4 6.1 40.7 23.5 5.5 3.2 11.5 6.9 13.5 8.1s5 3 6.6 3.9c1.7.9 8.5 5 15.2 9 6.8 4.1 12.5 7.4 12.7 7.4.3 0 4.1 2.2 8.6 5 4.5 2.7 8.3 5 8.6 5 .2 0 3.4 1.8 7 4s6.8 4 7 4 5.2 2.9 11.1 6.4c5.9 3.4 16.3 9.5 22.9 13.5 6.7 3.9 12.5 7.8 12.8 8.7s.6 4 .6 7c0 4.6-.3 5.4-1.7 5.2-1.1-.2-2.2.8-3.1 2.7-2.1 4.2-4.2 6.4-5.7 5.9-.7-.3-1.6-.1-2 .5-.3.6-1.6 1.1-2.8 1.1-1.9.1-2 .2-.7 1.3 1 .8 1.4 2.6 1.2 5.5-.3 3.7-.5 4.2-1.8 3.1-1.1-.9-2.6-.8-6.9.5-8.5 2.7-11.9.5-13.1-8.7-.6-3.9-.4-4.7 1-4.7.9 0 1.6-.5 1.6-1 0-.6-.6-1-1.4-1s-1.8.4-2.1 1c-1.1 1.8-3.4 1.1-10.8-3.4-11.4-6.8-10.8-6.7-16.1-5.1-7.5 2.3-9.2.4-14.1-15.2-1.4-4.3-2.5-8.1-2.5-8.5 0-.5-1-2.9-2.2-5.4-3.5-7.6-5-7.6-16.8-.4-11.2 6.9-13.9 7.2-16.1 2.1-.8-1.7-2.4-3.5-3.6-4.2-1.8-1-2.3-2.1-2.3-5.4 0-4.5-1.4-5.9-11-10.9-3.5-1.8-3.6-1.8-9.9.8-8.5 3.4-11.4 3.4-14-.3-1.2-1.6-2.1-3.6-2.1-4.4 0-.9-1.3-2.5-3-3.7-2.6-1.8-3-2.8-3-6.5 0-2.6-1.1-6.7-2.6-10.1-1.9-4.1-2.7-7.9-3.1-14.7-.4-6.2-1-9.5-1.9-10-.8-.5-1.4-2.5-1.4-5 0-4 .1-4.1 1.3-1.7 1.4 2.8 5.2 3.9 6 1.7.8-2.1-2-5.7-4.4-5.7-1 0-1.9-.5-1.9-1 0-1.3 2.2-1.3 5.7.1m-.9 4.7c.2.7-.3 1.2-1.2 1.2s-1.6-.7-1.6-1.6c0-1.7 2.2-1.4 2.8.4m165.6 8.7c2.2 1.7 2.2 1.7-2.2 3.9-4.2 2.2-4.7 1.7-2.5-2.3 2.1-3.5 2.1-3.6 4.7-1.6m4.6 6.5c1.1.6 3.1 3 4.5 5.4 2.2 3.8 2.5 5.3 2.5 14.8 0 11.2-.6 12.7-5.7 14.2-2.3.7-2.3.6-2.3-8.8 0-11-.8-13.8-5.6-18.2-3.4-3.3-3.4-3.3-.7-5.8 3-2.8 4.4-3.1 7.3-1.6m-12.5 4c-1 1.1-2 1.8-2.3 1.5-.7-.6 1.8-3.5 3.1-3.5.5 0 .2.9-.8 2m-5 21.8c-.3.3-1.2-.3-2-1.4-1.7-2.1-1.4-6.2.7-10.9 1.2-2.9 1.3-2.7 1.6 4.4.2 4 0 7.6-.3 7.9m-.5 17c0 6.5-.3 8.2-1.9 9.6-1.9 1.7-2.2 1.6-8-1.6-3.3-1.8-6.1-3.6-6.1-4 0-.8 14.1-11.8 15.2-11.8.4 0 .8 3.5.8 7.8m14 52.3c-.7 1.1-1.4 1.9-1.6 1.6-.7-.7.7-3.7 1.7-3.7.6 0 .5.9-.1 2.1m-9 13.5c0 1.3-.4 2.4-1 2.4-.5 0-1-1.4-1-3.1s.4-2.8 1-2.4c.6.3 1 1.7 1 3.1"/><path d="M439.9 469c0 .3-.1 4.2-.2 8.8-.2 6.7.1 8.2 1.3 8.2 1.3 0 1.5-1.3 1.2-7.8-.2-4.2-.8-8.1-1.3-8.7-.5-.5-.9-.7-1-.5M450.3 469.7c-.7.3-1.3 1.2-1.3 2 0 .9.6 1.3 1.5.9 1.8-.7 2.1 2.4.3 4.2-.9.9-.7 1.3.5 1.8 1.8.7 2.3 3.9.8 4.9-.6.3-1.4-.3-2-1.2-.5-1-1.3-1.4-1.7-1-1.1 1.1.9 4.1 3.1 4.5 2.6.6 3.5-1.7 3-7.8-.2-3-.4-6-.5-6.6 0-1.4-2-2.3-3.7-1.7M482.1 470.4c-3.2 3.8-2 15.6 1.5 15.6 3.4 0 4.6-11.3 1.6-15-1.6-2-1.9-2-3.1-.6m2.9 7.6c0 4.9-1.3 7.3-2.4 4.4-1.4-3.6-.3-10.9 1.5-9.8.5.3.9 2.7.9 5.4M504.9 469.7c0 .4 0 3.7.1 7.3.1 5.8 0 6.3-1.3 4.6-1.6-2.2-2.9-.9-2 2.2.6 2.6 4 2.9 4.7.4 1.2-4.1 1.1-14.5-.1-14.9-.7-.3-1.3-.1-1.4.4M472 470.2c-.1.2-.2 3.8-.3 8.1-.2 6.9 0 7.7 1.7 7.7 1.2 0 1.6-.5 1.2-1.6-.3-.9-.6-4.5-.6-8 0-3.6-.4-6.4-1-6.4-.5 0-1 .1-1 .2M492.8 475.4c-2.8 5.6-2.7 6.6.4 6.6 1.5 0 1.8.5 1.3 2s-.2 2 1.2 2 1.8-.7 1.7-3c-.1-1.7-.2-5.3-.3-8 0-2.8-.5-5-.9-5s-2 2.4-3.4 5.4m1.4 3.8c-.7.7-1.2.8-1.2.2 0-1.4 1.2-2.6 1.9-1.9.2.3-.1 1.1-.7 1.7M459.4 478.1c-.3.5 1.2.9 3.2.9 2.1 0 3.4-.3 3.1-.6-1.1-1.1-5.7-1.3-6.3-.3M462 567.5c-1.7 2.1-.4 6.7 1.8 6.3s2.8-5.1.9-6.6c-1.1-1-1.7-.9-2.7.3m2 3.1c0 .8-.5 1.2-1 .9-.6-.4-.8-1.1-.5-1.6.9-1.4 1.5-1.1 1.5.7M445.1 715.4c-.8 1.3-1.1 3-.9 3.7.3.8 1.2-.1 2.1-2 2-3.9 2-4.1.9-4.1-.5 0-1.4 1.1-2.1 2.4M458.7 719.6c-1.6.9-2.7 1.8-2.4 2 .6.6 7.7-2.3 7.7-3 0-1-2.4-.6-5.3 1M427.4 738.5c-.5 1.1-1.6 1.3-4.5.9-4.8-.8-6.9.7-6.9 4.9 0 6.2 6 12 19 18.7 3.9 2 4.3 2 6.6.5 1.6-1 2.4-2.5 2.4-4.3 0-2.8-3.1-8.7-6-11.2-.9-.8-2-2.7-2.4-4.3-1.3-5.2-6.9-8.7-8.2-5.2m4.8 2.2c.8 1 1.5 2.8 1.6 4 0 1.2 1.9 4 4.2 6.3 3.4 3.4 4.1 4.7 3.8 7.3-.4 4.2-3.6 4.7-8.6 1.5-2-1.3-5-3-6.5-3.8-4.8-2.4-8.7-7.6-8.7-11.5 0-2.9.4-3.5 2.1-3.5 1.1 0 3 .5 4.2 1.1 1.8 1 2.3.8 3.6-.9 2-2.6 2.4-2.7 4.3-.5M449.7 748.2c-.6 2.1.3 4.3 2.4 5.6 2.4 1.5 3.9.8 3.9-2 0-3.4-5.3-6.4-6.3-3.6m4.3 2.9c0 .5-.4.9-1 .9-.5 0-1-.7-1-1.6 0-.8.5-1.2 1-.9.6.3 1 1 1 1.6M470.3 764c-.6 2.3-.4 2.3-3.8 1-4.1-1.5-6.5.3-6.5 4.8 0 6 3.6 10.1 13.3 15.2 8.4 4.4 8.5 4.5 10.6 2.6 1.2-1.1 2.1-3.1 2.1-4.5 0-3.2-3.2-8.6-5.9-10-1.4-.8-1.9-2.1-1.9-4.3.2-5.1-6.7-9.3-7.9-4.8m5.5 5.1c.2 2.7 1 4 2.8 5 4.7 2.5 7.3 11 3.8 12.3-2.3.9-15.2-6.3-18.1-10.1-1.3-1.7-2.5-4.4-2.6-6-.2-2.7-.1-2.8 4.4-2.6 3.5.2 4.9-.1 5.3-1.3 1.1-2.9 4.1-1.1 4.4 2.7M449.3 765.1c-2.2 2.2 2.1 8 4.8 6.3 1.4-.8 1.1-4.1-.7-5.8-1.8-1.9-2.6-2-4.1-.5m3.8 2.5c1.2 1.4 1.1 1.6-.5 1.3-1.1-.2-2.1-1-2.4-1.7-.5-1.7 1.3-1.5 2.9.4M492 773.7c.1 2.7 2.6 5.5 4.7 5.1 2.4-.4 2.8-3.2.8-5.2-2.2-2.2-5.5-2.1-5.5.1m4.8 2.2c.3.8-.1 1.2-.9.9-.7-.2-1.5-1-1.7-1.7-.3-.8.1-1.2.9-.9.7.2 1.5 1 1.7 1.7M424.5 774.1c-1.1 1.7 1.6 6.9 3.6 6.9 2.9 0 2.9-4.5.1-6.7-2.1-1.5-2.9-1.6-3.7-.2m3.5 3c0 1.1-.4 1.7-1 1.4-.5-.3-1-1.3-1-2.1s.5-1.4 1-1.4c.6 0 1 .9 1 2.1M517.1 789.7c-.7 1.3-2 1.7-5 1.4-5.4-.3-7 2.5-4.6 8.2 2.9 7.1 14.9 15.6 20.2 14.2 4.9-1.2 4.4-8.5-.9-14.2-1.2-1.3-1.8-2.9-1.4-3.8.4-1.1-.5-2.7-2.3-4.6-3.4-3.3-4.6-3.6-6-1.2m5.5 3.7c.3 1.4.3 3-.1 3.6-.4.7.9 2.6 3 4.5 3 2.8 3.6 4 3.3 6.7-.3 2.9-.6 3.3-2.9 3.1-3.6-.2-11.9-5.5-14.7-9.3-1.3-1.7-2.4-4.3-2.5-5.8-.2-2.3.3-2.8 2.6-3 1.5-.2 2.7.1 2.7.7 0 1.9 2.8 1.2 3.5-.9.9-2.9 4.3-2.6 5.1.4M466.2 795.8c-1 1.9-.5 4.3 1.2 5.4 1.4 1 1.8 1 3.4-.1 1-.6 1.1-1.3.1-3.4-1.5-3.3-3.6-4.1-4.7-1.9m3.6 3.1c.3.8-.1 1.2-.9.9-.7-.2-1.5-1-1.7-1.7-.3-.8.1-1.2.9-.9.7.2 1.5 1 1.7 1.7M537 798.9c0 2.3 2.5 5.1 4.6 5.1 2.3 0 2.8-2.9.9-5-2.3-2.6-5.5-2.6-5.5-.1m4.8 2c.3.8-.1 1.2-.9.9-.7-.2-1.5-1-1.7-1.7-.3-.8.1-1.2.9-.9.7.2 1.5 1 1.7 1.7M553 810.9c-.6 1.3-2 1.9-3.9 1.9-4.1-.1-5.1.9-5.1 4.9s3.1 9.8 6.2 11.4c1.5.8 1.7 1.3.7 2.5-1.6 2-.5 2.8 1.8 1.3 1.6-.9 2.7-.7 6.2 1.1 5.2 2.6 8.6 2.1 9.5-1.6 1-3.7-1-8.9-3.9-10.4-1.9-1-2.5-2.2-2.5-4.5 0-6.3-6.6-11.1-9-6.6m6 3.6c.6 1.9.9 3.9.6 4.4-.4.5.6 1.9 2 3 1.5 1.2 2.5 2.2 2.3 2.4-.2.1-1.3.7-2.3 1.3-3.6 1.9-3.2 3.7.4 1.9 1.7-.9 3.4-1.4 3.8-1.1.7.8.7 6.4-.1 7.2-1 1-5.1-.4-7.4-2.6-1.2-1.1-2.9-2-3.7-2-.9 0-3.1-1.6-5.1-3.5-2.7-2.7-3.5-4.4-3.5-7 0-3 .3-3.5 2.4-3.5 1.4 0 2.8.4 3.1 1 1.1 1.8 2.5 1.1 2.5-1.3 0-4.9 3.4-5.1 5-.2M573.1 817.4c-.5 1.3-1.7 2.6-2.5 2.9-.9.4-1.6 1.1-1.6 1.7 0 .7 1 .6 2.8-.3 1.5-.7 3.4-1.2 4.4-1 2.2.6 3.1-1.2 1.8-3.7-1.4-2.7-3.8-2.5-4.9.4M507.6 820.6c-.8 2 2 6.7 3.6 6.2 2.6-.9 3.3-3.6 1.4-5.7-2.3-2.5-4.2-2.7-5-.5m3.8 2c.9 2.2-.3 3.2-1.4 1.4-1.2-1.9-1.2-3-.1-3 .5 0 1.2.7 1.5 1.6M555.6 843.2c-2.3 1.7-3.2 1.9-4.7 1-2.5-1.6-3.6-1.5-4.3.4-.5 1.2-.1 1.4 1.5.9 1.9-.6 2.1-.4 1.5 1.9-.5 1.9-.3 2.6.9 2.6.8 0 1.5-.6 1.5-1.3 0-.6 1.7-2.1 3.7-3.2s3.8-2.6 4.1-3.3c.5-1.8-.9-1.4-4.2 1M680.3 419.7c.9.2 2.5.2 3.5 0 .9-.3.1-.5-1.8-.5s-2.7.2-1.7.5M676.8 427.6c-.5.4-.8 7.6-.8 16 0 13.9.2 15.7 2.2 19.1 6.5 11.4 6.4 11.2 4.3 12.7-1.6 1.1-1.7 1.8-.8 3.8s.4 3.4-3.8 10.3c-5.4 8.9-6.7 12.9-4.9 15 2.9 3.5 6.5.9 13.1-9.5 2-3 3.8-6.3 4.2-7.3s1.2-1.5 1.7-1.2c.6.4 2.1.4 3.4.1 1.9-.5 2.3-1.2 2.4-5.1 0-4.1-.3-4.8-3.6-7-2-1.4-4.9-2.5-6.5-2.5-1.7 0-3-.7-3.4-1.8-.4-.9-1.9-3.8-3.5-6.5-2.7-4.5-2.8-5.2-3-20.8-.2-8.8-.6-15.7-1-15.3m11.2 46.9c0 .3-.2.5-.5.5s-.5-.2-.5-.5.2-.5.5-.5.5.2.5.5m5 1c.7.9 1 1.8.7 2.1-1 1.1-3.7-.5-3.7-2.1 0-1.9 1.4-1.9 3 0m-.3 5.1c1.8 1.4 3.3 2.9 3.3 3.5 0 1.8-2.2.9-5-2.1-1.7-1.8-3.8-3-5.4-3-1.4 0-2.6-.5-2.6-1.1 0-1.8 5.9-.2 9.7 2.7m3.3-1.6c0 .5-.5 1-1.1 1-.5 0-.7-.5-.4-1 .3-.6.8-1 1.1-1 .2 0 .4.4.4 1m-7.7 2.4c1.7 1.4 2.3 4.1.9 4.9-1.3.9-5.4-3.2-4.8-4.8.7-1.8 1.6-1.8 3.9-.1m-1.3 6.1c.6.8.9 1.9.6 2.4-.9 1.4-5.6-.8-5.6-2.6s3.4-1.7 5 .2m-3.9 3.5c2 1.1 2.5 3.5.9 4.5-.6.3-1.7-.1-2.6-.9-.8-.9-1.9-1.6-2.4-1.6s-.7-.7-.4-1.5c.7-1.8 1.8-1.9 4.5-.5m-1.7 6.2c.5.9.7 2 .4 2.3-.8.8-5.8-2.4-5.8-3.7 0-1.5 4.2-.4 5.4 1.4m-3.4 3.3c0 .3-.2.5-.5.5s-.5-.2-.5-.5.2-.5.5-.5.5.2.5.5M738.7 458.7c-.4.3-.7 2-.7 3.6 0 2 .6 3 2 3.4 1.1.3 2 1.2 2 2 0 1.1-.7 1.3-2.7.8-2.3-.5-2.5-.4-1.4.9 2.9 3.5 6.1.6 6.1-5.6 0-4.5-3.1-7.4-5.3-5.1m3.3 3.4c0 2.4-2.3 2.1-2.8-.4-.2-1 .3-1.7 1.2-1.7 1 0 1.6.9 1.6 2.1M747.5 460c-1 3 .4 6 2.7 6 1.1 0 1.8.5 1.5 1.2-.2.7-1.4 1.2-2.6 1-2.7-.3-2.4 2.1.3 2.6 3.7.7 6-6.4 3.6-10.9-1.4-2.5-4.7-2.5-5.5.1m4.3 2.3c.2 1-.3 1.7-1.2 1.7-1 0-1.6-.9-1.6-2.1 0-2.4 2.3-2.1 2.8.4M756.5 459c-.3.5.3 1 1.4 1 2.2 0 2.9 2.4 1.1 3.5-.5.3-1 2.2-1 4.1 0 2.1.4 3.3 1 2.9.6-.3 1-1.7 1-3.1s.7-3.8 1.5-5.3c.8-1.6 1.1-3.1.8-3.5-1-1-5.1-.7-5.8.4M767.2 459.2c-2 2-1.5 5.9.8 6.5 2 .5 2.6 2.3 1.3 3.6-.3.4-1.2.2-2-.4-.9-.8-1.3-.8-1.3-.1 0 1.6 1.8 2.4 4 1.7 3.4-1.1 2.4-12.5-1-12.5-.3 0-1.1.5-1.8 1.2m2.8 2.8c0 1.9-1.1 2.6-2.3 1.4-.8-.8.3-3.4 1.4-3.4.5 0 .9.9.9 2M795.2 459.2c-.7.7-1.2 3.3-1.2 6 0 3.7.4 5 1.9 5.8 4.1 2.1 6.8-6.2 3.5-10.8-1.7-2.5-2.5-2.7-4.2-1m3.4 3.3c.7 3-.2 7.5-1.6 7.5-.6 0-1-2.3-1-5 0-5.3 1.5-6.7 2.6-2.5M804.6 460.2c-1.6 2.6-1.4 9.4.4 11.2 1.7 1.7 4.5-.7 4.5-4 0-2.2-.5-3-2.2-3.2-2.5-.4-2.7-.9-1.4-3.1.8-1.2 1.2-1.2 2.5-.2 1.3 1.1 1.6 1.1 1.6-.2 0-1.2-1.9-2.7-3.6-2.7-.2 0-1 1-1.8 2.2m3.4 7.9c0 2-1.5 2.6-2.5.9-.9-1.5.3-4.3 1.5-3.5.5.3 1 1.5 1 2.6M777 462.9c-2.1 4.3-2 6.1.6 6.1.8 0 1.4.5 1.4 1.1 0 .8.4.8 1.4 0s1.2-2.5.9-5.4c-.8-6-1.9-6.5-4.3-1.8m1.6 3.8c-1 1-1.9-.5-1-1.8.6-1.1.8-1.1 1.2 0 .2.7.1 1.5-.2 1.8M823 461c-.7 1.4-.7 2 0 2 .5 0 1-.5 1-1 0-.6.7-1 1.5-1 2.2 0 1.8 2.1-.9 5.4-2.8 3.4-2.4 5.6 1 5.6 2.9 0 3.2-1.7.4-2.2-1.9-.3-1.9-.4.5-3.2 2.8-3.2 3.1-4.6 1.3-6.4s-3.6-1.5-4.8.8M814.5 461c-.3.5-.1 1 .4 1 .6 0 1.1 2.2 1.1 5.1 0 3.1.4 4.8 1 4.4.6-.3 1-3.1 1-6.1 0-4-.4-5.4-1.4-5.4-.8 0-1.8.4-2.1 1M832.7 460.6c-1 1-.9 8.6.2 10.2.4.8 1.9 1.2 3.2 1 2.2-.3 2.4-.8 2.4-5.8 0-5.1-.2-5.5-2.5-5.8-1.4-.2-2.9 0-3.3.4m5.1 2.1c.2.8-.5 1.3-1.7 1.3s-2.1-.6-2.1-1.6c0-1.8 3.1-1.5 3.8.3m0 5.6c.2 1.2-.3 1.7-1.7 1.7-1.5 0-2.1-.6-2.1-2.1 0-2.5 3.3-2.2 3.8.4M786.8 466.2c.9.9 1.5.9 2.4 0s.7-1.2-1.2-1.2-2.1.3-1.2 1.2M786.6 479.8c-.3 3.7-.6 8.4-.6 10.4 0 3.5-.2 3.7-5.5 5.7-3.1 1.2-5.8 2.1-6 2.1-.3 0-2.4.9-4.8 1.9-2.3 1.1-10.7 4.5-18.5 7.5-14.4 5.6-14.4 5.6-17.3 3.1-2.3-1.9-3.7-2.3-6.2-1.8-4.2.8-5.5 1.9-5.9 5.1-.2 2.1-1.5 3.3-6.2 5.8-7.2 3.9-8.2 5.4-5.7 8.5 2 2.4 2 2.4 8.5-1 5.2-2.6 7.3-3.2 10-2.7 3 .6 3.7.2 6.5-2.9 1.7-2 3.1-4.3 3.1-5.3 0-1.2 3.1-2.9 11.3-6.1 6.1-2.4 12.6-4.9 14.4-5.7 1.7-.8 3.4-1.4 3.8-1.4.3 0 3-1.1 5.8-2.4 2.9-1.3 7-2.9 9.2-3.6s4.3-1.5 4.7-1.9c1.2-1 2.2-20.8 1.1-21.4-.6-.4-1.3 2.1-1.7 6.1m-57.8 32.8c4.2 2.9 5.3 10.4 1.6 10.4-1.2 0-1.4-.7-.9-2.8.4-2.1.1-3.3-1.3-4.6-1.1-.9-2.4-1.6-3-1.4-1 .3-1.2-.1-1.2-2.2 0-1.5 2.3-1.2 4.8.6m6 1.3c.3.8-.1 1.2-.9.9-.7-.2-1.5-1-1.7-1.7-.3-.8.1-1.2.9-.9.7.2 1.5 1 1.7 1.7m-7 4.9c.3 1.9-.1 2.3-1.5 2-1-.2-1.9-1.4-2.1-2.6-.3-1.9.1-2.3 1.5-2 1 .2 1.9 1.4 2.1 2.6m7.9-1.1c-.4.3-1 .3-1.4 0-.3-.4 0-.7.7-.7s1 .3.7.7m-12.8 3.9c.3 1.6.1 1.7-1.3.5-1.9-1.6-2.1-3.4-.3-2.9.6.3 1.4 1.3 1.6 2.4m-3.2.9c.8 2.2-.6 3.3-1.7 1.5-1.3-2-1.2-3 0-3 .6 0 1.3.7 1.7 1.5m-3.9 2.3c.2 1.2-.1 2.2-.7 2.2-1.3 0-3.2-3.5-2.4-4.4 1.2-1.2 2.8 0 3.1 2.2m-4.1 2.9c-.4.3-.7 0-.7-.7s.3-1 .7-.7c.3.4.3 1 0 1.4M498 496c-3.4 3.4-1.7 8 2.9 8 4.1 0 5.7-3.9 3-7.4-2.5-3.1-3.3-3.2-5.9-.6m5 2c1.3 2.5.5 4-2.1 4-2.5 0-3.5-2.5-1.9-4.5 1.7-2 2.7-1.9 4 .5M515 495.5c-.7.9-1 1.8-.7 2.2.4.3 1.3 0 2.2-.7 2.4-2 1.9 1.3-.5 3.5-2.8 2.5-2.5 3.5 1 3.5 3 0 4-1.4 1.8-2.4-1-.5-1-.7 0-1.2 1.7-.8 1.5-5.1-.4-5.8-2.1-.8-2-.8-3.4.9M483.1 497.8c-.8 2-.9 3.6-.2 5.5 1.4 3.7 3.2 3.5 2.1-.2-.4-1.5-.6-4-.3-5.5.7-3.4-.2-3.3-1.6.2M487 499.5c0 2.5.5 4.5 1 4.5.6 0 1-1.2 1-2.8.1-2.7.1-2.7 1.8.1.9 1.5 2.1 2.6 2.7 2.4 1.4-.5 1.9-6.7.6-8-.8-.8-1.1-.3-1.1 1.8-.1 3-.1 3-2.3.2-1.3-1.5-2.6-2.7-3-2.7s-.7 2-.7 4.5M522 500.5c0 5.9 1.4 7.4 2.4 2.5.5-2.8-.7-8-1.9-8-.3 0-.5 2.5-.5 5.5M368 510.3c0 12.4 0 12.4 3.8 13.1 2 .3 22 .6 44.5.6H457v-12c0-8.8-.3-12.2-1.2-12.5-.7-.2-20.8-.6-44.5-1l-43.3-.6zm68.8-8.7 17.2.6V522h-18.2c-10.1 0-28.8-.3-41.5-.7l-23.3-.6v-7.2c0-14.2-2.3-13 24.8-12.8 13 .1 31.5.5 41 .9"/><path d="M379.9 502c0 .3-.2 3.4-.4 7s-.5 7.2-.7 8c-.2.9.4 1.5 1.6 1.5 1.8 0 1.9-.7 1.7-7.5-.1-4.1-.7-7.9-1.2-8.5-.5-.5-.9-.7-1-.5M389 503.5c-1.7 2-.5 3.2 1.5 1.5 1.3-1.1 1.5-.9 1.5 1.3 0 1.4-.6 2.7-1.2 3-1 .4-1 .7 0 1.8.6.7 1.2 2.4 1.2 3.8-.1 2.5-.1 2.5-1.5.7-1.7-2.3-3.4-1.3-1.9 1.1 2.1 3.4 5.4 2.3 5.4-1.8.1-8.1-.2-10.4-1.1-11.6-1.5-1.7-2.4-1.6-3.9.2M412 503c-.1.3-.2 4-.3 8.3-.2 6.3.1 7.7 1.3 7.7s1.4-1.3 1.2-7.2c-.2-4-.8-7.7-1.3-8.3-.5-.5-.9-.7-.9-.5M423.1 506.3c-.8 1.8-2 4-2.8 4.9-1.8 2-.9 3.8 1.9 3.8 1.5 0 1.9.5 1.5 2-.6 2.3.8 3.6 1.9 1.8 1-1.5.6-14-.4-15-.4-.4-1.4.7-2.1 2.5m.9 5.2c0 .8-.4 1.5-1 1.5-.5 0-1-.7-1-1.5s.5-1.5 1-1.5c.6 0 1 .7 1 1.5M431 507.4c-.9 3.4-.9 5.2 0 8 2.2 6.7 6 3.9 6-4.4 0-8.8-3.9-11.1-6-3.6m4.8 3.2c.2 4.3-1 7-2.7 6-1.2-.8-1.5-8.8-.4-10 1.5-1.5 2.8.2 3.1 4M398 511c0 .5 1.6 1 3.5 1s3.5-.5 3.5-1c0-.6-1.6-1-3.5-1s-3.5.4-3.5 1M507 503c0 .5.5 1 1 1 .6 0 1-.5 1-1 0-.6-.4-1-1-1-.5 0-1 .4-1 1M668.7 517c-2.2 3.6-.6 4.1 1.7.5 1.8-2.7 2-3.5.8-3.5-.4 0-1.6 1.3-2.5 3M663.2 526c-2.7 4.8-1.2 5.4 1.7.6 2.2-3.6 2.5-4.6 1.4-4.6-.5 0-1.8 1.8-3.1 4M411.7 556.2c-.5 30.1-.5 30.1-3.6 32.5-4.3 3.4-6.1 7.3-6.1 13.3 0 2.8-.6 5.7-1.2 6.4-.7.7-4.7 2.9-8.8 5s-9 4.7-10.9 5.9c-3.4 2-3.4 2-5.5-.5-1.2-1.4-2.6-3.3-3.1-4.3-1.4-2.3-5.8-1.4-10 1.9-2.8 2.3-2.9 2.4-1.6 6.6 3.5 11.7 9 20 16.3 24.6 2.2 1.4 5.5 5.1 7.6 8.4 2 3.3 4.4 6 5.3 6 1.7 0 13.1-5.8 14-7.2.3-.5 1.8-.4 3.2.1 1.7.7 2.7.7 2.7.1s-2-1.5-4.5-2.2-4.5-1.7-4.5-2.3-.9-2.7-2-4.8c-1.1-2-2-4.4-2-5.2s2.1-3.8 4.8-6.7c14-15.6 20-26.6 17.4-32.3-.7-1.4-1.2-3.3-1.2-4.2s-.7-2.5-1.7-3.5c-1.5-1.7-1.5-1.8.8-1.8 2.1 0 2.7.8 4.3 6.2 1 3.4 1.9 7.2 1.9 8.5 0 4.8-9.7 19.2-18 26.7-2.4 2.1-4.3 4.7-4.3 5.8 0 1.5 2.2 6.5 4.8 10.7.1.2.5.2.8-.2.4-.3-.5-2.9-2-5.7-1.4-2.7-2.3-5-1.9-5 1.6 0 5.3 7.1 5.3 10 0 1.6.5 3 1 3 1.7 0 1-6.4-1-9-1.1-1.4-2-3-2-3.5 0-.6 2.4-3.6 5.3-6.6 6.9-7.4 15.5-20.3 16.3-24.7.5-2.4 0-5.4-1.6-10.1-2.9-8.4-3.4-8.9-8.7-10.3l-4.4-1.1.7-30.3c.5-20.1.4-30.4-.3-30.4-.6 0-1.2 11.1-1.6 30.2m1.9 35.5c-.3.3-1.6 1.1-2.8 1.7-2.5 1.3-3.8 5.2-2.7 8.2.9 2.4 5.7 4 7.2 2.5 3.9-3.9 3.6 4.1-.4 10.5-1.7 2.7-3.4 5.1-3.8 5.4-.3.3-1.9 2.2-3.5 4.4-1.6 2.1-4.8 5.8-7.2 8.1-5.5 5.6-6.1 8-3.3 13.4 1.2 2.3 1.9 4.4 1.6 4.7s-1.1-.4-1.7-1.6c-.7-1.4-1.7-1.9-2.9-1.5s-2.7-.7-5-3.5c-1.7-2.2-3.8-4-4.5-4-2.1 0-7.3-6.2-10.5-12.8-1.8-3.5-3.8-6.5-4.6-6.9-2.2-.8-1.8-3.3.4-3.3 1 0 2.6 1.1 3.4 2.3.9 1.3 2.9 2.9 4.5 3.6 2.6 1.1 3.5.9 8.1-1.4 5.3-2.8 7.2-4.5 4.9-4.5-.9 0-.9-.3.2-1 2-1.3 3.3-1.3 2.5 0-1 1.6.1 1.2 6.5-2.2 5.5-3 7.8-5.3 6.5-6.6-.3-.3-1.4.4-2.5 1.6-1.2 1.2-2.4 2.2-2.7 2.2s.1-.8 1-1.8c1-1 1.7-2.4 1.7-3 0-.7.4-1.2.9-1.2s1.1-2.4 1.3-5.3c.5-6.6 3.4-11 6.1-9.5 1 .5 1.6 1.2 1.3 1.5m2.4 7.3q0 3-1.5 3c-1.6 0-1.9-1.7-.9-4.4 1-2.6 2.4-1.8 2.4 1.4m7.7-.8c-.3.8-.6.5-.6-.6-.1-1.1.2-1.7.5-1.3.3.3.4 1.2.1 1.9m-14 1c-.3.8-.6.5-.6-.6-.1-1.1.2-1.7.5-1.3.3.3.4 1.2.1 1.9m16.3 4.1c0 .5-.4.5-1 .2-.5-.3-1-1.4-1-2.3 0-1.5.2-1.5 1-.2.5.8 1 1.9 1 2.3m-1.8 9.9c-.8.8-.9.4-.5-1.3.4-1.3.8-1.8 1.1-1 .2.7-.1 1.8-.6 2.3m-27.2.3c0 .3-.2.5-.5.5s-.5-.2-.5-.5.2-.5.5-.5.5.2.5.5m-8 4c0 .3-.2.5-.5.5s-.5-.2-.5-.5.2-.5.5-.5.5.2.5.5m-24 1.5c1.3.8 1.3 1-.2 1-.9 0-2-.5-2.3-1-.8-1.3.5-1.3 2.5 0m22-.5c0 .3-.2.5-.5.5s-.5-.2-.5-.5.2-.5.5-.5.5.2.5.5m-5 3c0 .3-.2.5-.5.5s-.5-.2-.5-.5.2-.5.5-.5.5.2.5.5m-11.7 7.8c3.9 8.4 10.7 15.2 14 14.1 1.1-.3 1.7-.2 1.4.3s1.4 4 3.8 7.8 4.2 7.3 3.9 7.7c-1.5 2.3-4.5.4-8-5.2-2.3-3.5-5.2-6.6-7-7.5-5.7-2.7-12.6-12.9-14.8-21.8-.5-2.2-.3-2.7 1.3-2.7 1.5 0 2.9 1.9 5.4 7.3m9.4 9.1c2.5 2.6 3 3.4 1.5 2.7-2.6-1.4-7.8-8.1-9.8-13-2.3-5.5-1.5-5 1.6 1 1.5 3 4.6 7.2 6.7 9.3m16.3 12c0 .3-.4.8-1 1.1-.5.3-1 .1-1-.4 0-.6.5-1.1 1-1.1.6 0 1 .2 1 .4m-1.9 3.8c1.1 2.1 1.1 2.2-.4.9-1-.7-1.7-1.7-1.7-2.2 0-1.5.9-1 2.1 1.3m7.9-.5c.7.6-2.3 2.3-4.2 2.3-1.8 0-2.4-2-1.1-3.3.6-.7 4.2 0 5.3 1M702.5 530.8c-1.6.9-3.2 1.8-3.4 1.9-.2.2-.2.6.1.9.8.8 6.8-2.4 6.8-3.6 0-1.3.1-1.3-3.5.8M658 535c-1.2 1.6-2 3.6-1.8 4.2s1.5-.5 2.7-2.6c2.9-4.6 2.1-5.9-.9-1.6"/><path d="M677.2 533.2c-.6.8-.7 3.2-.2 6.1.5 3.7.4 5-.6 5.4-.8.3-1.4.9-1.4 1.4 0 1.6 2 .9 4.5-1.5 1.3-1.3 2.8-2 3.5-1.6.9.6.8 1-.5 1.7-1.3.8-1.4 1.2-.5 1.8.6.4 1.9.1 2.7-.8 1.2-1.2 1.3-1.8.1-3.6-1-1.7-1.9-2.1-4-1.7-2.3.5-2.8.2-2.8-1.4 0-2.5.6-2.5 5.5.3 4 2.3 4 2.3 4.3 12.6.3 9.6.1 10.3-1.5 9.6-1-.4-2.8-1-4.1-1.3-3-.6-4.5-3.7-3.9-7.8.3-1.9.1-3.6-.4-3.9-.5-.4-.9 2-.9 5.5 0 6.1 0 6.1 7.8 9.7 5.4 2.6 9.5 3.8 13.7 4.1 6.7.4 8.3-.5 12.4-7.2l2.2-3.5 20 .6c13.4.4 19.9.3 19.9-.4s-7.5-1.3-20.5-1.8c-17-.6-20.4-1-19.4-2.1 1.7-2 .1-5.2-4-7.9-3.1-2.1-4.2-2.3-6.9-1.6-3.2 1-3.2 1-3.2-3.3 0-2.8-.7-5.1-1.9-6.4-2.2-2.6-3.2-2.7-7.2-.6-2.8 1.4-3.3 1.4-5.4 0-2.9-1.9-5.9-2.1-7.3-.4m7.3 2.4c2.1 1.4 2.6 1.4 5.5-.1 3.7-1.9 6.9-1.3 5.1.9-.7.8-2.5 1.9-4.1 2.6-2.6 1.1-3.5.9-7.5-1.4-2.5-1.5-4.5-2.9-4.5-3.1 0-1.1 3.2-.4 5.5 1.1m12.5 8.3c0 6.6.9 7.8 4.2 5.9 2.3-1.3 2.3-1.3.1-1.6-2.4-.4-3.2-2.2-1-2.2.6 0 2.2-.3 3.5-.6 1.6-.5 2.2-.2 2.2 1 0 1 .9 1.6 2.4 1.6 1.3 0 2.7.7 3 1.6.9 2.4-.2 3-2.5 1.6-1.7-1.1-2.5-1.1-4.5.2-2.7 1.9-4.5 7.3-3.2 9.8 1.1 2.2 2.7 2.3 5.7.2 1.7-1.2 2.1-2.2 1.7-4-.4-1.3-.2-2.4.3-2.4 2.1 0 2.1 2.2.1 5.5-3.7 6-7.4 6.8-14.7 3.5-4.3-1.9-4.3-1.9-4.3-11.9 0-9.7.1-10 2.8-12 1.5-1.1 3-2.1 3.5-2.1.4 0 .7 2.7.7 5.9m9 14c-1.2 2.4-4 2.8-4 .7 0-.7 1-2.6 2.3-4.2 2.1-2.8 2.2-2.8 2.5-.7.2 1.2-.2 3.1-.8 4.2M652 545c-1.2 1.6-2 3.6-1.8 4.2s1.5-.5 2.7-2.6c2.9-4.6 2.1-5.9-.9-1.6M755.9 545.2c-1.7.7-1.9 1.8-1.9 12.1v11.4l10.8.6c5.9.3 25.8.5 44.2.4l33.5-.2.3-11.8c.2-8.8-.1-11.8-1-12.2-2.2-.8-83.8-1-85.9-.3m76.1 2.1 7.5.2.3 10.3.3 10.2h-33.3c-18.3 0-37-.3-41.6-.7l-8.3-.6.5-10.1c.2-5.6.5-10.2.5-10.3.1-.2 60.2.6 74.1 1"/><path d="M775.2 549.2c-1.8 1.8-1.4 3 .8 2.3 1.5-.5 2-.2 2 1.3 0 1.1-.6 2.3-1.2 2.6-.9.3-.8.8.5 1.6 2.1 1.4 2.2 3.3.2 5-1.2 1-1.5 1-1.5-.4 0-.9-.4-1.6-1-1.6-1.7 0-1.1 3.7.6 4.4 3 1.2 4.3-1.2 4.2-7.7-.2-7.8-1.7-10.4-4.6-7.5M797 549.5c-1.8 2.2-2.5 10.7-1.1 13.4 1.6 2.9 3.9 2.6 5.2-.6 1.2-3.1-.1-7-2.6-7.9-2.4-.9-1.9-3.7.5-2.9 2.3.7 2.7-.7.6-2.4-1-.9-1.6-.8-2.6.4m2.8 10.2c-.4 3.9-2.8 4.2-2.8.4 0-2.1.5-3.1 1.6-3.1s1.4.8 1.2 2.7M807.7 549.8c-2.3 2.5-2.4 13.7-.2 14.6 2.9 1.1 4.5-.5 4.5-4.5 0-2.8-.6-4.2-2-5.1-2.1-1.3-2.7-3.8-1-3.8.6 0 1 .5 1 1.2 0 .9.3.9 1.2 0 1-1 .9-1.5-.3-2.7-1.4-1.4-1.7-1.4-3.2.3M810 560c0 1.6-.4 3-1 3-.5 0-1-1.4-1-3 0-1.7.5-3 1-3 .6 0 1 1.3 1 3M817.7 548.6c-.4.4-.7 2.7-.7 5.1 0 4 .2 4.4 2 3.8 1.6-.5 2-.2 2 1.8 0 3-1 4-2.6 2.6-.8-.7-1.4-.7-1.9.1-.8 1.4 2.4 4 4.1 3.3 1.6-.6 2.8-5.6 1.9-8.2-.3-1-1.5-2.1-2.5-2.4-2.7-.7-2.5-2.5.3-2.9s2.9-3.2.2-3.6c-1.2-.2-2.4 0-2.8.4M766.1 549c-.1.3-.3 4-.4 8.2-.2 5.3.1 7.8.9 7.8s1-2.2.7-7.3c-.4-6.4-.9-10.2-1.2-8.7M827.8 557.2c-.2 4.6-.2 8.5 0 8.7.1.3 1.5 0 3-.5 2.5-.9 2.7-1.3 2.8-7.4.1-6.9-.7-9-3.6-9-1.6 0-1.9 1.1-2.2 8.2m4.2-3.7c0 1.4-.4 2.5-1 2.5-.5 0-1-1.1-1-2.5s.5-2.5 1-2.5c.6 0 1 1.1 1 2.5m0 6.9c0 1.4-.4 2.8-1 3.1-.6.4-1-.7-1-2.4s.5-3.1 1-3.1c.6 0 1 1.1 1 2.4M784 557c0 .5 1.6 1 3.5 1s3.5-.5 3.5-1c0-.6-1.6-1-3.5-1s-3.5.4-3.5 1M669.8 548.6q-4.5 2.4-1.5 2.4c1.6 0 5.4-2.7 4.7-3.3-.3-.3-1.7.1-3.2.9M659.8 553.6c-4.4 2.3-3.2 3.7 1.2 1.4 2.2-1.1 4-2.3 4-2.5 0-.9-2.5-.4-5.2 1.1M681 552.9c0 .5.6 1.2 1.3 1.4.9.4.9.8-.2 1.5-.9.7-1 1.1-.2 1.7.7.4 1.8.1 2.6-.5 1.1-.9 1.2-1.6.2-3.1-1.2-2-3.7-2.6-3.7-1M644.2 558.2c-1.6 2.9-4.1 6-5.6 6.7-1.4.8-2.6 1.8-2.6 2.3 0 1.1.2 1 3.8-.7 2.1-1.1 4-3.4 5.8-7.1 3.5-7.1 2.5-8-1.4-1.2M272.1 556.2c-1.1 2.9.3 5.8 2.9 5.8 2.3 0 2.6 1.3.7 2.9-1 .8-1.7.7-2.5-.1-.9-.9-1.2-.8-1.2.5 0 2.3 4.6 2.3 5.8-.1.5-.9.7-3.7.3-6.2-.5-3.7-1-4.6-2.9-4.8-1.6-.2-2.5.3-3.1 2m4.2 1.3c.7 1.6-.8 2.9-2.3 2-1-.6-.2-3.5 1-3.5.4 0 1 .7 1.3 1.5M282 555.5c-1.8 2.1-.4 6.5 2 6.5 1.1 0 2 .6 2 1.3 0 2.1-1.2 2.8-2.7 1.5-.7-.6-1.7-.8-2.1-.4s.2 1.4 1.2 2.2c3 2.1 5.6-.7 5.6-6.1 0-5.8-3.1-8.4-6-5m4 2.5c0 1.1-.7 2-1.5 2-1.5 0-2.1-2.1-.8-3.3 1.2-1.3 2.3-.7 2.3 1.3M291.5 555c-.3.5.4 1 1.5 1 1.7 0 2.1.4 1.5 1.7-1.9 4.7-2.4 7.8-1.5 8.7.7.7 1 .3 1-1.2 0-1.2.9-3.8 2.1-5.8 1.6-3 1.8-3.9.7-4.5-1.8-1.2-4.6-1.1-5.3.1M301 556c-1.3 2.4.3 6 2.5 6 1.8 0 2 2.6.4 3.6-.6.3-1.5 0-2-.7-.4-.7-1.1-1-1.5-.6-.8.7 1.4 3.7 2.7 3.7.4 0 1.7-.9 2.8-2.1 1.5-1.6 1.8-3 1.4-5.8-1-6-4.1-8.1-6.3-4.1m4 2c0 1.1-.7 2-1.5 2-1.5 0-2.1-2.1-.8-3.3 1.2-1.3 2.3-.7 2.3 1.3M330.2 555.2c-1.3 1.3-1.6 8.5-.6 11.2.9 2.4 3.9 1.9 5.2-.9 1.6-3.5 1.5-6.6-.4-9.3-1.7-2.5-2.5-2.7-4.2-1m3.3 6.3c0 4.2-1.9 5.8-3 2.5-.9-2.9.3-7.2 1.8-6.7.7.2 1.2 2.1 1.2 4.2M339.8 555.4c-2.2 1.6-2 10.5.4 11.9 2.8 1.8 4.6-.7 4.6-6.4 0-5.5-2-7.7-5-5.5m2.4 3.8c-1.5 1.5-2.6.4-1.8-1.8.5-1.3.9-1.5 1.8-.6s.9 1.5 0 2.4m.8 4.8c0 1.1-.7 2-1.5 2s-1.5-.9-1.5-2 .7-2 1.5-2 1.5.9 1.5 2M312.1 558.6c-2.6 4.4-2.7 6.4-.2 6.4 1.1 0 2.2.6 2.4 1.2.4 1 .8 1 1.4.1 1-1.4.4-11.3-.7-11.3-.4 0-1.7 1.6-2.9 3.6m1.5 5.1c-1.1 1.1-1.9-.6-1.1-2.4.8-1.7.8-1.7 1.2 0 .3 1 .2 2.1-.1 2.4M358.1 556.9c-2.7 4.9 0 12.7 3.6 10.5 2.6-1.6 2.3-5.7-.5-6.9-2.7-1.2-2.3-3.1.7-2.7 2.9.3 2.2-2.2-.7-2.6-1.3-.2-2.5.4-3.1 1.7m3.9 7.1c0 1.1-.7 2-1.5 2s-1.5-.9-1.5-2 .7-2 1.5-2 1.5.9 1.5 2M349.6 556.9c-.4.5-.2 1.2.4 1.6s.7 2.2.4 4.4c-.6 3.9 1 6.8 1.9 3.4 1.4-5.4-.7-12.7-2.7-9.4M652 557.7c-2.4.9-7.2 4.5-6.6 5 .6.6 8.6-4 8.6-5 0-.4-.1-.7-.2-.6-.2 0-1 .3-1.8.6M320 562c0 .5 1.4 1 3.1 1s2.8-.4 2.4-1c-.3-.6-1.7-1-3.1-1-1.3 0-2.4.4-2.4 1M293 569c0 .5.5 1 1 1 .6 0 1-.5 1-1 0-.6-.4-1-1-1-.5 0-1 .4-1 1M629.8 569.6c-4.1 2.2-3.4 3.7.7 1.7 1.9-.9 3.5-2 3.5-2.5 0-1.1-1.1-.9-4.2.8M317.7 583.2c-.4 7.9-.7 19.3-.7 25.5 0 12.1-.3 12.8-5.4 12.8-3.8 0-7.1 4.2-6.2 7.9s9.3 8.9 11.9 7.4c2.2-1.1 3.4-1 17.2 2.6 9.6 2.4 10.1 2.4 11.8.7 2.2-2.2 1.3-4.9-2.2-6.3-1.4-.6-5.8-1.8-9.6-2.8-10.3-2.5-11.5-3-11.5-4.5 0-.7-.9-2.3-1.9-3.6-1.9-2.3-1.9-3.7-1.4-28.2.4-16.9.3-25.7-.4-25.7-.6 0-1.3 5.8-1.6 14.2m-6.7 40.3c0 .3-.2.5-.5.5s-.5-.2-.5-.5.2-.5.5-.5.5.2.5.5m9.4 1.4c1.9 2.1.9 3.5-1.4 2.1-1-.6-2.1-.3-3.2.7-2.2 2-2.3 3.1-.1 5.5 1.5 1.7 1.5 1.8-.5 1.8-2.8 0-4.5-3.3-3.7-7.1 1.1-4.8 5.8-6.4 8.9-3m-10.6 2.8c-.4 2.2-2.2 2-2.6-.1-.2-1 .3-1.6 1.3-1.6s1.5.7 1.3 1.7m9.2 3.3c0 1.3-.5 1.8-1.5 1.4-.8-.4-1.5-1.2-1.5-2s.7-1.4 1.5-1.4 1.5.9 1.5 2m4.3 1c-.3 1.1-.9 2-1.4 2s-.9-.9-.9-2 .6-2 1.4-2c.9 0 1.2.7.9 2m4.3 2.7c-.7 1.7-.8 1.7-1.7 0-1.2-2.1-.2-4.4 1.3-2.9.6.6.8 1.9.4 2.9m5.4-1.8c0 1.7-1.2 4.1-2 4.1-1.1 0-2.1-3-1.4-4.1.7-1.2 3.4-1.2 3.4 0m5 2.4c0 .8-.3 1.7-.7 2-.9.9-3.4-1.3-2.7-2.4.8-1.4 3.4-1.1 3.4.4m4 1.7c0 1.1-.4 2-.9 2-1.4 0-2.3-1.8-1.6-3 1-1.7 2.5-1.1 2.5 1m3.2 2.2c-.9.9-1.2.7-1.2-1.2s.3-2.1 1.2-1.2.9 1.5 0 2.4M635.9 572.7c-2.5 3.2-5 8.3-4 8.3.5 0 2.1-2.1 3.5-4.7 2.7-4.8 3-6.6.5-3.6M622.6 573.5c-1 .8-2.4 1.6-3 1.8s-.8.8-.4 1.2c.7.8 6.8-2.5 6.8-3.7s-1.3-.9-3.4.7M545.9 604.6c-1.3 3.5.4 8.7 3.8 11.4 3.6 2.8 5.9 2.5 7-.8 2.8-8-7.8-18.3-10.8-10.6m6.9 1.4c2.4 2.2 3.8 6.3 2.7 7.9-1.7 2.9-7.1-.3-7.5-4.4-.6-5.9 1-7 4.8-3.5M616.2 605.6c-2.4 3.6-2.6 4.4-1.4 4.4 1.1 0 5.3-6.9 4.4-7.4-.4-.2-1.7 1.1-3 3M564.4 614.5c-2 3.1-1.1 7.5 2.3 10.9 5.3 5.4 10.6 1.9 8.4-5.5-1.1-3.5-5.5-7.9-8-7.9-.6 0-1.8 1.1-2.7 2.5m7 2.8c3 3.9 3.4 7.5 1 8.4-3.6 1.3-8.1-4.7-7-9.3.9-3.3 3-3 6 .9M610.4 615.6c-1.3 2.5-3.6 4.5-7.6 6.5-3.2 1.6-5.8 3.5-5.8 4.2 0 2.6-2 4.1-6.2 4.6-4 .6-4.3.8-4.6 3.9-.6 6.3 3.6 8 9.2 3.7 1.8-1.4 3.8-2.5 4.3-2.5.6 0 1.6-.7 2.3-1.5 1-1.2.9-2-.4-4-.9-1.4-1.3-2.5-.8-2.5 1.2 0 3.4 4.9 2.7 6-.3.5-.1 1.1.5 1.5.7.4.7 1.3-.1 2.6-.8 1.6-1.7 1.9-3.5 1.5-3.5-.9-2.9 1 .7 2.3 3.8 1.3 4.9.7 4.9-2.4 0-1.3.5-2.7 1-3 .6-.3 1-1.4 1-2.4s1.1-3.5 2.5-5.5c2.8-4.1 2.9-4.6 1.5-4.6-.5 0-2 1.8-3.2 4-1.3 2.2-2.5 4-2.8 3.9-.3 0-1.5-1.6-2.7-3.5-2.3-3.5-2.3-3.5 1.2-5 1.9-.7 4.6-1.4 6-1.4 2.7 0 3.4-1.7 1-2.6-1.3-.5-1.2-1 .5-3.4 1.1-1.6 1.6-3.1 1.2-3.4-.5-.3-1.8 1.1-2.8 3M600 631.8c0 1.5-3.6 4.2-5.5 4.2-1.6 0-.1-3.9 1.8-4.8 3.2-1.5 3.7-1.4 3.7.6m-7.4 3.7c.8 2.1-.6 4.1-1.7 2.4-1.2-1.9-1.1-3.9.1-3.9.6 0 1.3.7 1.6 1.5m-3.6 2c0 .3-.2.5-.5.5s-.5-.2-.5-.5.2-.5.5-.5.5.2.5.5M630.7 638.3c-5.2 3-8.5 8.7-6.9 12.1.6 1.4 2.5 3.2 4.2 4.1 2.8 1.4 3.1 1.4 3.7-.1.4-1.1-.2-2.4-1.7-3.6-3-2.4-1.9-3.4 1.4-1.3 2.5 1.7 2.6 1.7 3.6-1.1.5-1.6 1.7-4.2 2.5-5.8.9-1.6 1.3-3.1.9-3.5-.8-.8-3.4 2.9-3.4 4.8 0 1.1-.4 1-1.5-.5-2.2-2.9-1.8-4.4 1.1-4.4 1.5 0 2.4-.5 2.2-1.2-.7-2-2.1-1.9-6.1.5m.1 3.9c1.6 2.1 2.4 5.8 1.3 5.8-.6 0-1.1-.7-1.1-1.6s-.9-1.8-2-2.1c-2.1-.5-2.5-1.5-1.3-2.6 1-1 1.9-.8 3.1.5m-3.8 4.3c0 .3-.2.5-.5.5s-.5-.2-.5-.5.2-.5.5-.5.5.2.5.5M352 639.9c0 1.1 5.9 2.6 6.7 1.7.9-.9.2-1.2-3.4-1.9-1.8-.4-3.3-.2-3.3.2M362.5 643c.3.5 1.7 1 3.1 1s2.2-.4 1.9-1-1.7-1-3.1-1-2.2.4-1.9 1M592.3 645.7c-3.1 4.4-3.5 5.3-2.4 5.3s5.5-6.9 4.8-7.6c-.3-.3-1.4.7-2.4 2.3M659.6 651.6c-4.6 4.6-4.6 4.6-8 3-4-1.9-4.6-2-4.6-.6 0 .5 1.1 1.2 2.5 1.6 2.7.7 3.2 2.3 1.3 4.2-.9.9-1.8.6-3.9-1.4-1.5-1.4-3.2-2.5-3.9-2.2-.6.2 1.2 2.5 4 5.1 5 4.7 5 4.7 5 2 0-2.1 1.5-4.1 5.9-8.1 3.3-2.8 6.2-5.2 6.5-5.2s.6 2.3.6 5.1c0 3.1.4 4.8 1 4.4.6-.3 1-2.6 1-5.1 0-4.1 1.1-5.7 2.5-3.4.7 1.2 2.5 1.3 2.5.2 0-.9-5.3-4.2-6.8-4.2-.5 0-3 2.1-5.6 4.6M586.4 655.4c-.9 1.5-1.4 2.9-1.1 3.2s1.3-.6 2.3-2c.9-1.5 1.4-2.9 1.1-3.2s-1.3.6-2.3 2M415.2 656.2c.4 1.1 9.9 4 10.7 3.2.7-.7-.2-1.1-5.7-2.8-3.6-1-5.2-1.2-5-.4M429 659.9c0 .5.8 1.2 1.8 1.4 5.1 1.4 7.2 1.6 7.2.7 0-.5-1.2-1.2-2.7-1.6-1.6-.3-3.6-.8-4.5-1.1-1-.2-1.8 0-1.8.6M441 662.7c0 .8 6.3 3.3 8.4 3.3 1.6 0 .3-1.8-1.6-2.3-1.3-.3-3.3-.9-4.5-1.2-1.3-.4-2.3-.3-2.3.2M572.4 666.2c-.4.6.2 1.9 1.4 2.9 1.2.9 2.2 2.2 2.2 2.7 0 .8 3.1 2.1 5.3 2.2.4 0 .7-1.1.7-2.5 0-2.8-2.7-4.5-4-2.5-.7 1.1-1.2 1-2.5-.3-1.5-1.6-1.5-1.7.7-1.7 1.8 0 2-.2.8-1-2-1.3-3.7-1.2-4.6.2m8.1 4.8c.3.5.4 1 .1 1s-.8-.5-1.1-1c-.3-.6-.4-1-.1-1s.8.4 1.1 1M454.6 666.9c1.4 1.4 7.4 2.4 7.4 1.3 0-1-3.3-2.2-6.4-2.2-1.2 0-1.6.3-1 .9M695.7 674.6c-3 1.6-7 7.4-8 11.6-1.1 4.4.2 8.7 2.9 9.4 3.8 1 7.7-.4 7.1-2.5-.2-1 .6-3.6 1.9-5.7s2.5-5.3 2.5-6.9c.1-2.5.3-2.6.6-.7.3 1.3 0 3.6-.6 5.3-1.3 3.8.5 3.9 2 .1 1.1-2.8.6-9-.8-10.3-1.8-1.6-5-1.7-7.6-.3m4.8 2.4c1 3.3-1.3 9.5-5.1 13.4-3.9 4.1-5.7 4.2-6.2.6-.6-4.1 1.7-9.7 5.3-12.9 4.2-3.6 5.1-3.8 6-1.1m-3.5 15.4c0 .3-.5.8-1.2 1.2s-.8.3-.4-.4c.7-1.2 1.6-1.6 1.6-.8M572 679.7c.1 3 2.6 7.1 3.7 6 .4-.4.1-1.3-.5-1.9-.7-.7-1.2-2.5-1.2-4s-.4-2.8-1-2.8c-.5 0-1 1.2-1 2.7M624 691.4c0 4.3-1.5 8.5-4.2 11.3-1.1 1.2-1.8 2.7-1.6 3.4.6 1.7 5.1-4.6 6.6-9.2 1.5-4.3 1.6-8.9.2-8.9-.5 0-1 1.5-1 3.4M579.8 698.7c-1.8 3.2-3.5 6.2-3.7 6.8-.2.5-1.7 2.9-3.2 5.2-1.6 2.3-2.9 4.4-2.9 4.7 0 .2-2.2 4-4.8 8.3S558 735.8 555 741s-7.6 12.8-10.3 16.8c-2.7 4.1-4.6 7.6-4.4 7.9.6.5 6.9-7.8 8.9-11.7.7-1.4 2.5-4.4 4-6.7s2.8-4.4 2.8-4.7 1.9-3.6 4.2-7.3c2.2-3.8 4.9-8.2 5.8-9.8 6.7-11.6 12.3-21.2 13-22 .4-.6 2-3.1 3.4-5.8 3.8-6.7 1.5-5.8-2.6 1M701.7 701.7c-.4.3-.7 1.8-.7 3.3 0 3.5-4.1 11.6-8.5 16.5-4.1 4.7-4.7 3.9-.9-1.1 2.8-3.7 6.8-16 5.5-16.9-.5-.2-1.3 2-1.9 4.9-1.6 7.9-7.7 16.9-15.9 23.5-6.2 5-4.4 5.1 3.1.2 10.5-6.9 18.7-17.9 20.2-27 .6-4 .4-4.8-.9-3.4M618.6 709.9c.5.5 2.6 1.9 4.7 3 4.5 2.5 4.6.6.1-2-3.1-1.9-6.5-2.5-4.8-1M633 717.5c0 .9 8.2 5.6 9.2 5.3.6-.2-.8-1.6-3.1-3.1-3.8-2.5-6.1-3.4-6.1-2.2M645.4 724.9c.6 1 9.1 6.1 10 6.1 1.9 0-.1-2-4.4-4.3-5.3-2.9-6.5-3.2-5.6-1.8M658.4 732.9c.9 1.4 10.6 6.2 10.6 5.2 0-.5-2-2.1-4.4-3.5-4.5-2.6-7.2-3.4-6.2-1.7M672.3 740.3c.4 1.2 7.4 5.7 9 5.7 1.7 0-.5-1.9-4.9-4.4-2.5-1.4-4.4-2-4.1-1.3M303.5 749.3c-.8 1.3-1.9 5.7-2.4 9.7-.8 6.4-.7 7.9 1 11.4 1 2.2 1.9 4.3 1.9 4.8 0 .4-9.7.8-21.5.8-13.7 0-21.5.4-21.5 1s4.4 1 11.3 1c6.1.1 16.2.3 22.2.6 9.5.5 11.2.8 12.5 2.6 4.3 5.8 8.4 9.8 11.6 11.3 2.4 1.1 3.3 2.1 3 3.3-2.1 6.9-1.5 11.1 2.2 15.4 3.4 4 9.6.7 10.8-5.7.5-2.9 1.3-3.9 4.2-5.1 3.5-1.4 3.6-1.4 6.7 1.6 2.1 2 4.1 3 6.1 3 2.4 0 3.4.6 4.3 2.7 2.5 5.6 6.6 10.5 10.8 13 4.4 2.5 4.4 2.5 4.1 10-.3 7.1-.2 7.6 2.5 9.9 2.8 2.4 2.9 2.4 5.8.7 2.7-1.6 3.2-2.8 4.2-10.2.1-.7 2.1-1.9 4.4-2.7 4-1.4 4.4-1.3 9 1.2 6.4 3.5 11.3 7.3 11.3 8.6 0 2.2 5 7.6 10.4 11.2 5.6 3.7 5.6 3.7 5.3 10.6-.2 6 .1 7.2 2.1 9.2 2.1 2.1 2.4 2.2 5 .8 1.5-.9 3.1-2.9 3.7-4.8 1.1-3.8 2.1-4.1 2.9-.9.8 3.5 5.7 7.6 17.4 14.7 10.1 6.2 10.7 6.7 11.3 10.4.6 3.6 3.7 7.6 5.9 7.6 1.7 0 6-5.5 6-7.6 0-2.7.5-2.8 6.6-1.3 3.4.9 5.1.8 7.7-.1 3.9-1.6 7.7-4.9 7.7-6.7 0-.9 1-1.3 2.8-1.1 2.7.3 2.7.3 3-9.9.3-10 .2-10.2-2.3-11.9-2.2-1.5-3.2-1.6-5.9-.6-4.7 1.7-5.1 1.6-7.1-2.8-2.3-5.1-5.3-8.7-8.9-10.6-3.8-1.9-4.7-1.8-8.8 1-2.1 1.4-5.5 2.5-8.8 2.8l-5.2.5.6-6.3c.4-4.3.3-7.2-.5-8.7-3.7-6.9-10.4-6-11.1 1.4l-.3 3.4-1.9-3.5c-1-1.8-2.5-4-3.2-4.7-.7-.8-2-2.8-2.9-4.6-4.2-9-11.9-13.1-17.1-9.2-1 .8-3.2 1.5-4.9 1.5-1.6 0-4.1.7-5.5 1.5-3.6 2.1-3.8 1.9-2.9-2.8.4-2.3.8-5.4.9-6.8 0-2.9-4-7.9-6.4-7.9-2.1 0-5.6 4-5.6 6.4-.1 1.6-.5 1.3-1.9-1.4-2.8-5.4-8.8-15-10.8-17.3-1-1.1-3.3-2.6-5-3.3-3-1.3-3.7-1.2-7.7.7-2.5 1.1-5 1.8-5.5 1.5-.6-.4-2.6 0-4.6.8-3.5 1.5-3.5 1.5-3.5-4.4 0-7.2-1.2-10.7-4.4-12.1-3.8-1.8-6.4.3-6.8 5.4l-.3 4.2-1.7-3.8c-1-2.1-3.1-5.5-4.8-7.5-1.6-2-3-4.2-3-4.8s-1.8-3-4-5.3c-3.7-3.8-4.5-4.2-8.8-4-5.4.2-10.2-1.4-10.2-3.4 0-.8-.9-2.6-2.1-4.1-2.7-3.4-7.2-3.5-9.4-.3m6 2.2c2.5 2.4 3.4 6.5 1.5 6.5-.5 0-1 .4-1 .9 0 1 2.2 1.2 11.6 1.1 5.8 0 9.4 2.2 12.1 7.3.8 1.8 2.8 4.6 4.3 6.4 1.5 1.7 3.5 5.4 4.4 8.1 2.1 6.1 3.9 8 6.1 6.2.8-.7 1.2-1.6 1-2.1-.3-.4-.3-1.9.1-3.3.5-2.1.9-2.4 2.4-1.6.9.5 2.1.6 2.5.2s.6 2 .3 5.4c-.5 7.9.7 9.2 5.8 6.3 2.9-1.6 4.2-1.8 6-1s2.6.6 4-1c2.3-2.5 7.4-2.5 10.2.1 3.2 3 12.6 17.9 13.7 22 .8 2.5 1.6 3.5 3 3.5 1.7 0 2.1-.8 2.3-4.7.3-4.6.3-4.6 2.8-2.1 2.3 2.2 2.5 3.1 1.9 6.8-.5 3.7-.3 4.5 1.5 5.8 1.9 1.3 2.5 1.3 5.1 0 1.7-.8 4.1-1.2 5.4-.9 1.8.5 3 .1 4.2-1.4 2.9-3.3 7.5-2.6 11.7 1.7 2 2.1 3.6 4.2 3.6 4.8 0 .5 1.8 3.6 4 6.9 2.2 3.2 4 6.6 4 7.5 0 2 2.7 6.1 4.1 6.1.5 0 .9-2.3.9-5.2 0-4 .3-4.9 1.2-4 1.6 1.6 4.5 1.5 5.1-.1.3-.6.5 2.1.4 6.2-.2 6 .1 7.5 1.5 8.4s2 .8 3.1-.7 2.2-1.8 4.9-1.3c2.8.4 4.1 0 6.4-1.9 2-1.8 3.5-2.3 5.4-1.9 2.9.6 9 7.1 9 9.5 0 .9.9 2.6 2 3.8 1.7 1.8 2.7 2.1 6.5 1.6 6.2-.9 7.5.7 7.5 9.1 0 6.6 0 6.6-2.7 6.3-2.5-.3-2.8.1-3.4 3.5-1.1 6.7-6.8 8.5-14.8 4.6-4.9-2.3-7.1-1.4-7.1 2.8 0 2.1-.2 2.3-1.5 1.3-.8-.7-2.1-1-2.9-.7q-1.5.6-1.8-1.5c-.2-1.3-3.5-4-9.7-7.9-5.1-3.3-9.6-5.9-10-5.9-.3 0-2.5-1.7-4.8-3.8-2.7-2.5-4.5-5.2-5.2-8-.7-2.2-1.7-4.4-2.3-4.8-1.7-1.1-4 2.7-3.5 5.9.5 3.6-1 4.5-2.9 1.8-.8-1.2-2.2-2.1-2.9-2.1-1.1 0-1.4-1.2-1.2-4.7.2-4.4 0-4.8-4.3-7.9-6-4.4-10.7-9.3-12.1-12.6-.7-1.8-3.8-4.4-8.6-7.3-7.8-4.7-9.3-5.1-10.8-3.6-.6.5-2.8 1.1-5 1.3-4.1.3-4.3.6-6.1 7.5-.2.9-1.1.8-3.4-.5-2.8-1.6-3-2-2.4-5.7.3-2.2.7-4.4.8-4.9 0-.5-2.2-2.3-5-4-5.4-3.2-9.1-7.6-11-13-.9-2.6-1.6-3.1-4.9-3.4-2.7-.2-4.6-1.2-6.2-3-1.3-1.5-2.3-3-2.3-3.5 0-1.2-2.7-.8-4 .7-.6.8-2.8 1.6-4.8 1.8-3.6.3-3.7.5-4.8 5.3-.9 4.5-1.1 4.7-1.7 2.4-.9-3.6-3.5-4.5-4.6-1.6-.9 2.2-.9 2.2-1.5-.3-.4-1.4-.3-4.6.3-7 .5-2.4.9-4.5.8-4.6-3.6-2.1-10.6-7.3-11.9-8.9-1-1.1-3.6-5.5-5.8-9.9-3.6-7-4-8.4-3.5-13 .7-6.4 2.5-12.6 3.7-12.6.5 0 2 1.1 3.3 2.5m24.6 12.2c1.3 1.6 1.2 1.7-.3.4-1-.7-1.8-1.5-1.8-1.7 0-.8.8-.3 2.1 1.3m1.9 2.8c0 .3-.2.5-.5.5s-.5-.2-.5-.5.2-.5.5-.5.5.2.5.5m16 8c0 .3-.2.5-.5.5s-.5-.2-.5-.5.2-.5.5-.5.5.2.5.5m2 1c0 .3-.2.5-.5.5s-.5-.2-.5-.5.2-.5.5-.5.5.2.5.5m-1.3 3.7c-.3.8-.6.5-.6-.6-.1-1.1.2-1.7.5-1.3.3.3.4 1.2.1 1.9m-7.7 1.3c0 .3-.2.5-.5.5s-.5-.2-.5-.5.2-.5.5-.5.5.2.5.5m1 3c0 .3-.2.5-.5.5s-.5-.2-.5-.5.2-.5.5-.5.5.2.5.5m-19.3 24.2c-.4.3-.7 0-.7-.7s.3-1 .7-.7c.3.4.3 1 0 1.4m77 1c-.4.3-.7 0-.7-.7s.3-1 .7-.7c.3.4.3 1 0 1.4m-76.2 2.1c-.3.3-1.1 0-1.8-.7-.9-1-.8-1.1.6-.5 1 .3 1.5.9 1.2 1.2m79.6 5.8c-.5 1.6-1 2.1-1 1.2-.1-1.8 1-5.1 1.5-4.5.2.1-.1 1.6-.5 3.3m-25.4 16.1c-.4.3-.7 0-.7-.7s.3-1 .7-.7c.3.4.3 1 0 1.4M453 836c0 .5-.2 1-.4 1-.3 0-.8-.5-1.1-1-.3-.6-.1-1 .4-1 .6 0 1.1.4 1.1 1m-77.3 1.7c-.4.3-.7 0-.7-.7s.3-1 .7-.7c.3.4.3 1 0 1.4m111.2 14.7c-.3.3-1.1-.5-1.8-1.7-1.3-2.1-1.2-2.1.5-.5 1 1 1.6 2 1.3 2.2m2.1 5.1c0 .3-.2.5-.5.5s-.5-.2-.5-.5.2-.5.5-.5.5.2.5.5m13.5 2.5c.3.5.2 1-.4 1-.5 0-1.3-.5-1.6-1-.3-.6-.2-1 .4-1 .5 0 1.3.4 1.6 1m-74.8 5.7c-.4.3-.7 0-.7-.7s.3-1 .7-.7c.3.4.3 1 0 1.4m44.3 25.4c0 .6-.4.7-1 .4-.5-.3-1-1.1-1-1.6 0-.6.5-.7 1-.4.6.3 1 1.1 1 1.6"/><path d="M305.6 752.6c-1.3 3.3 3.1 7.2 4.9 4.4.7-1.2-2-6-3.4-6-.5 0-1.2.7-1.5 1.6m2.9 2.4c.3.5.4 1 .1 1s-.8-.5-1.1-1c-.3-.6-.4-1-.1-1s.8.4 1.1 1M321.9 764.6c-.9 1.2-2.4 1.5-5 1.1-4.6-.6-6.9 1.5-6.9 6.1 0 6.6 3.5 11 12.8 16.3 8 4.5 10.7 5.1 13.1 3.1 3.3-2.8 3.1-7.4-.4-12.6-1.4-2-2.5-4.4-2.5-5.2 0-2.6-3.1-7-6-8.8-3.4-2-3.4-2-5.1 0m6.4 3.1c.8 1 1.9 3.1 2.3 4.7s1.8 4.5 3.1 6.4c2.9 4.3 3.2 10.2.5 10.2-1 0-3.8-1.2-6.3-2.8-2.4-1.5-5.6-3.3-7.2-4.1-3.5-1.9-6.7-7.3-6.7-11.6 0-3.3 0-3.3 3.9-2.8 2.3.3 4.1.1 4.5-.6 1.1-1.7 4.1-1.3 5.9.6m-16.6 5c-.4.3-.7 0-.7-.7s.3-1 .7-.7c.3.4.3 1 0 1.4m2.3 4.6c0 .5-.4.5-1 .2-.5-.3-1-1.4-1-2.3 0-1.5.2-1.5 1-.2.5.8 1 1.9 1 2.3m1 2.2c0 .3-.2.5-.5.5s-.5-.2-.5-.5.2-.5.5-.5.5.2.5.5m6 5c0 .3-.2.5-.5.5s-.5-.2-.5-.5.2-.5.5-.5.5.2.5.5m2 1c0 .3-.2.5-.5.5s-.5-.2-.5-.5.2-.5.5-.5.5.2.5.5M346 793.9c0 1.8.9 3.8 2.2 5.1 2 1.8 2.3 1.9 4 .3s1.7-1.7 0-4.7c-1-1.7-2.8-3.2-4-3.4-1.9-.3-2.2.1-2.2 2.7m5.6 2.8c-.7.7-2.6-.7-2.6-1.9 0-.6.6-.6 1.5.2.9.7 1.3 1.5 1.1 1.7M372 794c0 .5-2 1-4.4 1-3.5 0-4.8.5-6 2.2-4.2 5.9-.2 13.1 11 19.5 11.5 6.7 17.4 6.1 17.4-1.7 0-2.3-.9-4.9-2.5-7.1-1.3-1.9-3.1-5-4-6.9-2.4-5.1-5.4-8-8.7-8-1.5 0-2.8.4-2.8 1m7.1 3.2c1.1 1.1 1.9 3 1.9 4.2 0 1.1 1.1 3 2.3 4.1 3.2 2.7 4.7 5.8 4.7 9.5 0 2.8-.2 3-2.7 2.4-2.9-.8-6.5-2.6-13.2-6.8-4.4-2.8-7.1-7-7.1-11.1 0-2.2.4-2.5 3.4-2.5 1.9 0 3.8-.5 4.1-1 1.1-1.7 4.7-1.1 6.6 1.2m-6.5 15.9c3.3 1.8 6.8 3.7 7.8 4.2 1 .4 1.7 1 1.4 1.3-.8.7-11.8-5.1-14.9-7.8-3.2-2.9-4.9-6-4.8-9 0-1.7.6-.9 2.3 2.8 1.9 4.2 3.4 5.6 8.2 8.5M422 823.4c-.6.8-3 1.6-5.3 1.8-3.4.2-4.4.8-5.5 3-1.1 2.4-1 3.4.6 7.2 1.7 3.8 3.3 5.1 11.4 10 12.4 7.4 16.8 7.3 16.8-.2 0-3.6-1.2-6.5-4-9.7-1-1.1-2-3.2-2.4-4.7-1.5-6.5-8.5-11-11.6-7.4m6.9 2.5c1.1 1.1 2.3 3.6 2.7 5.5.3 2 1 3.6 1.5 3.6 1.6 0 4.9 6.4 4.9 9.3 0 3.4-1 3.2-10.8-1.7-7.8-3.8-11.1-7.2-11.9-11.9-.6-3.7-.5-3.7 2.9-3.7 2 0 4.1-.7 4.8-1.5 1.7-2 3.6-1.9 5.9.4m-14.9 6.8c0 .8 1 2.9 2.2 4.6 1.7 2.4 1.8 2.8.4 1.8-3-2.4-6.3-10.3-3.6-8.6.6.3 1 1.3 1 2.2m10 10.3c1.4 1.1 2.1 2 1.5 2-.5 0-2.1-.9-3.5-2s-2-2-1.5-2c.6 0 2.1.9 3.5 2m7.6 4c2.1 1 3.3 1.9 2.6 2-1.4 0-7.2-2.8-7.2-3.5 0-.8.4-.6 4.6 1.5M472.8 852.2c-1.5 1.5-3.5 2.1-6.7 2.2-4 .1-4.7.4-5.5 2.8-1.6 4.5.8 10.4 5.6 13.8 4.3 3.1 6.1 3.3 3.7.4-1.1-1.3-.4-1.2 3 .5 2.3 1.2 4 2.5 3.7 2.8s-1.2 0-2.1-.7-1.9-1-2.3-.6c-.7.8-.4 1 6.6 5.1 4.8 2.8 6.9 3 9.5 1.1 2.6-2 2.1-6.9-1.3-13.3-1.6-3.1-3-6.4-3-7.4 0-2.3-4.4-7.5-7.1-8.2-1.3-.4-2.8.2-4.1 1.5m6.6 2.3c1.3 1.4 2.6 4.3 3 6.4.3 2.2 1.2 4.6 1.9 5.3 2.2 2.2 3.7 5.5 3.7 8.3 0 2.3-.3 2.5-2.7 1.9-1.6-.4-3.5-1.2-4.3-1.9s-3.5-2.3-5.9-3.5c-2.5-1.2-5-2.7-5.6-3.4-2.7-2.8-4.5-6.3-4.5-8.9s.2-2.8 3.3-2.2c2.9.6 3.6.3 5.1-1.9 2.1-3.2 3.1-3.3 6-.1m-13.1 11.8c2.7 3.9 1.5 4.4-1.7.7-1.7-2-2.6-4.3-2.5-6.3.1-3.2.1-3.2 1.1-.2.6 1.6 2 4.3 3.1 5.8m15.3 10.2c1.8.9 2.3 1.5 1.2 1.5-2.4 0-4.8-1.1-4.8-2.1 0-1.2.3-1.2 3.6.6M442.6 860.9c-2 2.2-1.7 2.5 8.2 8 5 2.8 7.3 3.6 8.1 2.8 2.6-2.6.7-4.8-8.1-9.6-3.1-1.7-5.8-3.1-6-3.1-.3 0-1.2.8-2.2 1.9m7.7 2.8c3.5 2 8.6 6.3 7.4 6.3s-12.7-6.1-13.3-7.1c-.9-1.5 2.6-1 5.9.8M495.6 863.9c-.3.5.3 2 1.3 3.2 1.5 1.8 2.2 2.1 3.1 1.3.9-.9.9-1.7.1-3.3-1.2-2.2-3.6-2.8-4.5-1.2m3.4 2.1c0 .5-.2 1-.4 1-.3 0-.8-.5-1.1-1-.3-.6-.1-1 .4-1 .6 0 1.1.4 1.1 1M684 747.5c0 .5 7.7 5.5 8.5 5.5 1.5 0 .1-1.8-3-3.8-3.3-2.1-5.5-2.8-5.5-1.7M676.7 754.4c-.5 1.3-.1 2.6 1.4 4.2 1.2 1.3 1.9 3 1.6 3.8-1 2.5-2.6 1.9-1.9-.7.5-1.9.3-2-1-.9-.9.7-2.4.9-3.3.5-1.5-.5-1.7-.3-1.2 1.1.6 1.5.4 1.7-1 1.1-1-.4-3.2-.9-5-1.2-3-.5-3.3-.3-5.7 4.9-3.1 6.6-3.3 10.8-.6 12.8 2.8 2 2.6 2.4-2.2 4.5-22.2 9.5-18.9 9-25.5 4.5-8.3-5.5-13.1-8-15.2-8-3.3 0-5.6 3.8-5.7 9.4 0 4.5-.4 5.3-2.7 6.6-2.8 1.5-3.8 6-1.4 6 .6 0 2.3.9 3.6 1.9 2.3 1.8 2.3 1.8-2.4 4.5-6.2 3.7-4.9 4.7 1.6 1.1 4.2-2.3 5.5-2.5 7.5-1.6 2.3 1 3.3 3.6 1.7 4.3-1.6.6-14.3 15.9-14.3 17.1 0 1.4 1.8-.5 11.7-12.3 5.7-6.8 8.5-9.2 13.8-12 7.3-3.7 9.7-6.4 9.3-10-.3-1.9.5-2.6 4.2-4 4.9-1.8 7.7-3 16-6.4 10.3-4.4 13.5-5.1 16.1-3.3 3.3 2.3 6.2.5 5.7-3.4-.5-2.9-.1-3.1 9.8-8.1 5.7-2.8 10.2-5.4 9.9-5.8-.2-.4-4.3 1.2-9.1 3.6s-9.1 4.4-9.5 4.4c-.5 0-.9-2.8-.9-6.3 0-4.8-.4-6.8-1.9-8.4-1-1.1-2.1-2.9-2.3-3.9-.4-1.9-.4-1.9-1.1 0m2.9 19.2c-.7 1.9-3.6.6-3.6-1.7 0-1-1.2-2.7-2.7-3.6-2.7-1.8-2.7-1.8 1.7-2.3 4.5-.5 4.5-.5 4.8 2.9.2 1.8.1 3.9-.2 4.7m-11.5-6.5c1.9 1 1.9 1-.1 3.6-2.6 3.3-2.6 5.9 0 6.6 1.1.3 2 1.1 2 1.7 0 .7-.8 1-2 .7-1-.3-2.1 0-2.2.5-.2.6-1.4.5-3.1-.3-2.3-1-2.7-1.8-2.7-5.4 0-2.8.7-4.8 2-6.3 2.3-2.5 3.3-2.7 6.1-1.1m4.6 3.6c-.4.3-1 .3-1.4 0-.3-.4 0-.7.7-.7s1 .3.7.7m2.6 4.2c2.8 1.5 3.3 2.7 1.9 4.8-1 1.5-7.2-2-7.2-4 0-1.5 1.1-2.9 1.9-2.4.3.1 1.8.9 3.4 1.6m4.4 5.8c-.4.3-.7 0-.7-.7s.3-1 .7-.7c.3.4.3 1 0 1.4m-54.4 6c6.4 3.8 6.4 3.8 4.6 6.3-3.1 4.3-2.8 6.3.8 6.7 2.8.4 3.3.1 3.9-2.3.5-1.8.3-2.9-.4-3.2-1.4-.4-1.6-2.2-.3-2.2 1.6 0 4.2 5 3.6 6.9s-11.1 8.1-13.6 8.1c-.8 0 0-1.1 1.6-2.4 1.7-1.3 2.7-2.7 2.3-3.1s-1.7.2-2.9 1.4c-3 2.8-3.6 2.7-9.9-1.3-5-3.2-5.2-3.4-3.2-4.5 1.8-1 3-.7 6.7 1.4 4.9 2.7 5.5 2.9 5.5 1.7 0-.4-2-1.8-4.5-3.1-7.2-3.8-9-8.4-4.9-12.6 2.2-2.2 3.5-1.9 10.7 2.2m8.7 9.7c0 .3-.4.8-1 1.1-.5.3-1 .1-1-.4 0-.6.5-1.1 1-1.1.6 0 1 .2 1 .4m-4 1.1c0 .3-.2.5-.5.5s-.5-.2-.5-.5.2-.5.5-.5.5.2.5.5m-14.9 6.2c3.3 2 5.7 3.8 5.5 4-.5.5-11.4-5.6-12.2-6.8-1-1.6.7-.9 6.7 2.8M697 754.5c0 .9 8 5.8 8.6 5.2.3-.3-1.2-1.7-3.3-3.1-3.6-2.5-5.3-3.2-5.3-2.1"/><path d="M669.1 757.1c-1.8 1.1-3.1 2.2-2.8 2.5.6.7 7.7-2.8 7.7-3.8 0-1.3-1.2-1-4.9 1.3M168.2 773.2l.3 12.3 25 .7c13.8.5 34.2.7 45.5.5l20.5-.2.3-11.8c.2-9 0-11.7-1-11.8-.7 0-3.3-.2-5.8-.4s-22.6-.6-44.8-1l-40.3-.6zm53-9.1c19.4.6 35.5 1.2 35.7 1.4s0 4.8-.4 10.1l-.7 9.7-39.7-.7c-21.8-.4-40.9-.9-42.6-1.2-2.9-.5-3-.7-2.9-5.7.1-2.9.2-7.3.3-10l.1-4.7h7.4c4.1 0 23.4.5 42.8 1.1"/><path d="M180 771.2c0 3.7-.3 7.3-.6 8.2-.4 1.1 0 1.6 1.2 1.6 1.7 0 1.9-.7 1.6-7.2-.5-9.5-2.2-11.5-2.2-2.6M189.7 766.4c-.8 2 .4 2.8 2 1.5 1-.9 1.3-.7 1.3.8 0 1-.5 2.4-1.1 3-.9.9-.8 1.6.5 2.8.9.9 1.6 2 1.6 2.5 0 1.6-2 2.2-3.4 1.1-1.7-1.4-2.9-.2-1.5 1.6 1.6 1.9 4.7 1.6 5.2-.5.7-2.7.3-11.6-.6-13-1.1-1.6-3.4-1.5-4 .2M214 766.2c-.1.2-.2 3.8-.3 8.1-.1 5.6.1 7.7 1.1 7.7 1.5 0 1.7-14.6.2-15.5-.5-.3-1-.5-1-.3M224.7 766.7c-.2.5-.5 4.1-.6 8-.2 6.7 0 7.3 1.9 7.3 1.1 0 2-.5 2-1 0-.6-.5-1-1.1-1-.8 0-1-1.9-.5-6.4.4-3.8.2-6.7-.3-7-.5-.4-1.1-.3-1.4.1M235.9 766.5c-.1.6 0 3.6.1 6.8.1 3.3-.3 6.4-1 7.2-1 1.2-.9 1.6.4 2.1.9.4 2 .4 2.3 0 1-.9.3-15-.8-16.1-.6-.6-.9-.6-1 0M200 774c0 .5 1.4 1 3 1 1.7 0 3-.5 3-1 0-.6-1.3-1-3-1-1.6 0-3 .4-3 1M708 761.4c0 .3 1.2 1.1 2.8 1.8 1.5.8 3.9 2.2 5.5 3.2 1.5 1 2.7 1.4 2.7.8s-2.1-2.2-4.6-3.6c-4.4-2.5-6.4-3.1-6.4-2.2M816.8 768.1c-2.1 1.2-2.4 5.9-.6 7.7 1.7 1.7 4.9 1.5 6.4-.6 2-2.5 1.7-4.9-.8-6.6-2.6-1.9-2.7-1.9-5-.5m5 4.2c.3 2.3 0 2.7-2.3 2.7-3 0-4.3-2.4-2.5-4.6 1.9-2.2 4.5-1.3 4.8 1.9M722 768.8c0 1.3 8.8 6.7 9.6 6 .2-.3-.7-1.3-2.1-2.2s-3.6-2.3-5-3.2-2.5-1.2-2.5-.6M801.6 770.6c-.7 2.8.1 8.4 1.2 8.4.4 0 .7-2.5.7-5.5 0-5.9-.9-7.2-1.9-2.9M805.7 768.7c-1.1 1-.8 7.1.3 7.8.6.4 1-.6 1-2.2.1-2.8.1-2.8 2.3 0 1.3 1.5 2.6 2.4 3 2.1 1.1-1.1.8-8.4-.3-8.4-.5 0-1 1.2-1 2.7-.1 2.8-.1 2.8-1.8 0s-2.4-3.2-3.5-2M835.4 768.8c-1.3.8-.7 7.2.7 7.2.5 0 .9-1.8.9-4 0-4.3 0-4.3-1.6-3.2M840.5 773.5c0 5.5.7 7 1.9 3.9s.4-9.4-1.3-9.4c-.3 0-.6 2.5-.6 5.5M826 776c0 .7.3 1 .7.7.3-.4.3-1 0-1.4-.4-.3-.7 0-.7.7M735 776.8c0 .6 1.8 1.9 4 3.1 4.5 2.3 5 2.5 5 1.3 0-.6-3.1-2.5-8.2-5-.5-.2-.8.1-.8.6M682 782.8c0 .8 1.4 1.6 6.3 4 .4.2.7 0 .7-.5 0-.8-5.2-4.3-6.4-4.3-.3 0-.6.4-.6.8M748 783.8c0 1.1 7.1 5.4 7.8 4.8.6-.7.7-.7-4-3.4-2.1-1.2-3.8-1.8-3.8-1.4"/><path d="M779 784.9c-.5 1.1-1 3.6-1 5.5 0 3.6 0 3.6-10.7 3.1-6-.3-21-.7-33.5-1-20.8-.4-23-.7-26.3-2.6-3-1.8-4-2-6.1-1-2.7 1.2-4.8 5.4-3.9 8 .8 2.6 11.4 8.2 14.7 7.9 4-.4 6.8-4.9 5-7.8-1.2-2-1.1-2.1 23.5-2 13.7.1 27.6.4 31.1.7 6.2.6 6.2.6 6.2 5.9 0 4.7.3 5.4 2.3 5.9 1.2.3 21.1.4 44.2.3l42-.3v-24l-43.2-.3c-41.9-.2-43.2-.2-44.3 1.7m85 10.6V806h-41l-41-.1V785h82zM703.5 791c-.3.5 0 .7.8.5 1.4-.6 4.1.6 9 3.9 2.9 1.9 3.5 4.4 1.5 6.4-1.4 1.4-6.8 1.6-6.8.2 0-.5-2-1.8-4.5-2.9-4.8-2.1-5.8-4.6-2.9-7.5 1.7-1.8 3.9-2.2 2.9-.6"/><path d="M789.8 793.5c.3 4.4.1 6.9-.8 8-1.1 1.3-.9 1.5 1.1 1.5 2.3 0 2.4-.3 2.1-5.7-.3-7.2-1-10.3-2.1-10.3-.5 0-.6 2.9-.3 6.5M798.4 788.5c-.4.9-.3 1.9.1 2.3s1 .1 1.2-.6c.3-.6.9-1.2 1.4-1.2 1.4 0 1.1 3.8-.3 4.3-1 .3-.8.9.5 2.4 1 1.1 1.5 2.7 1.1 3.7-.8 2-1.4 2-3-.2-1.2-1.5-1.3-1.5-1.4-.1 0 2.2 2.6 4.3 4.5 3.6 1.1-.5 1.4-2.2 1.2-7.9-.2-6.7-.4-7.3-2.5-7.6-1.3-.2-2.5.3-2.8 1.3M822 787.2c-.1.2-.2 3.8-.3 8.1-.2 6.9 0 7.7 1.7 7.7 1.2 0 1.6-.5 1.2-1.6-.3-.9-.6-4.5-.6-8 0-3.6-.4-6.4-1-6.4-.5 0-1 .1-1 .2M831.3 789c-2.9 4.6-.5 15.1 3.1 13.7 3.4-1.3 3-14.8-.4-15.5-.8-.1-2.1.7-2.7 1.8m3.5 6.6c-.2 2.7-.7 4.9-1.3 4.9-1.1 0-1.9-7.9-1-10.3 1.1-3 2.6.5 2.3 5.4M842.9 792c-2.6 4.9-2.4 7 .9 7 .9 0 1.1.7.7 2-.5 1.5-.2 2 1.2 2 1.7 0 1.9-.7 1.5-7.3-.2-3.9-.6-7.5-1-7.9s-1.9 1.5-3.3 4.2m1.7 4.7c-1.1 1.1-1.7-.4-.9-2.3.7-1.8.8-1.8 1.1-.1.2 1 .1 2.1-.2 2.4M854.8 793.7c.3 6.3.2 6.6-1.2 4.9-2-2.5-2.9-1.6-2 1.8.4 1.7 1.3 2.6 2.5 2.6 1 0 1.9-.1 2-.3 0-.1.4-3.7.7-8 .7-6.6.5-7.7-.8-7.7s-1.5 1.1-1.2 6.7M808.5 795c-.9 1.5 2.1 2.3 5.2 1.5 2.1-.5 2.4-.8 1.2-1.6-1.9-1.2-5.6-1.1-6.4.1M711 800c0 .7.3 1 .7.7.3-.4.3-1 0-1.4-.4-.3-.7 0-.7.7M691 787.6c0 1 3.3 3.3 4.8 3.4 1.8 0 1.5-1.7-.5-2.4-1-.3-2.4-.9-3-1.2-.7-.3-1.3-.2-1.3.2M758.5 791c.3.5 1.1 1 1.6 1 .6 0 .7-.5.4-1-.3-.6-1.1-1-1.6-1-.6 0-.7.4-.4 1M762.4 802.7c-1.1 4.6-1.1 4.7.7 2.4 1.1-1.3 1.9-3.4 1.9-4.7 0-4-1.5-2.7-2.6 2.3M594.5 807c-.3.6.5 1.4 1.9 2 1.6.6 2.6 1.7 2.6 2.9 0 1.1.5 2.3 1 2.6 1.9 1.2 1-4.5-1-6.5-2.2-2.2-3.6-2.5-4.5-1M590 808.5c0 .9.6 1.2 1.5.9.8-.4 1.5-1 1.5-1.5s-.7-.9-1.5-.9-1.5.7-1.5 1.5M756.3 812.7c-.3 1-1.5 3-2.5 4.5-2 2.9-2.2 3.8-.9 3.8.5 0 1.4-1.4 2.1-3 .7-1.7 1.6-3 2-3 1.2 0 2-2.9.9-3.5-.5-.4-1.2.2-1.6 1.2M746.1 829.1c-2.7 3.7-2 5.2.8 1.8 1.8-2.1 2.8-4.9 1.8-4.9-.2 0-1.3 1.4-2.6 3.1M769.8 836.4c-2.4 1.7-2.5 9.8-.2 11.7 4.1 3.4 7.5-6.4 3.7-10.9-1.5-1.8-2-2-3.5-.8m2.7 5.9c0 5.2-1.9 5.1-2.3-.2-.2-3.2 0-4.2 1-3.9.8.3 1.3 2 1.3 4.1M684.5 837.6c-.8.9-1.5 2-1.5 2.5 0 2.1 2.1 4.9 3.6 4.9.9 0 1.4.6 1.1 1.2-.2.7-1.5 1.2-2.8 1-2.3-.3-2.3-.3-.6 1.5 2.4 2.4 5.1.7 5.5-3.7.7-6.7-2.1-10.6-5.3-7.4m3.5 3.5c0 2.4-2.3 2.1-2.8-.4-.2-1 .3-1.7 1.2-1.7 1 0 1.6.9 1.6 2.1M693.9 837.8c-2.2 1.9-2.2 2-.6 4.6 1 1.4 2.5 2.6 3.3 2.6 1.4 0 1.4.3.4 1.5s-1.6 1.3-2.6.4c-1.1-.9-1.4-.8-1.4.5 0 2.5 2.8 3.1 5 1.1 2.6-2.4 2.7-8.6.1-10.9-1.7-1.5-2-1.5-4.2.2m3.9 2.9c-.4 2.2-2.2 2-2.6-.1-.2-1 .3-1.6 1.3-1.6s1.5.7 1.3 1.7M713.3 836.7c-1.7.6-1.7 5.8 0 7.2.8.6 1.7.8 2 .4.4-.3.7.2.7 1.1 0 1.3-.6 1.7-2 1.3-1.2-.3-2 0-2 .8 0 1.8 3 2.7 4.6 1.4 1.7-1.4 1.9-10 .2-11.7-1.3-1.3-1.6-1.3-3.5-.5m2.7 3.3c0 1.1-.4 2-1 2-.5 0-1-.9-1-2s.5-2 1-2c.6 0 1 .9 1 2M741.2 837.2c-.7.7-1.2 3-1.2 5.3 0 4.4 1.3 6.5 4.1 6.5 2.1 0 2.9-2 2.9-6.9 0-3.7-1.4-6.1-3.5-6.1-.6 0-1.6.5-2.3 1.2m3.6 5.8c-.5 4.9-2.8 5.1-2.8.2 0-2.1.3-4.2.7-4.5 1.3-1.3 2.4 1.1 2.1 4.3M750.3 837.2c-1.2 1.7-.9 9.6.4 10.9.6.6 2 .8 3.1.5 1.8-.6 2.1-1.5 2-5.9-.1-2.9-.6-5.5-1.2-5.9-1.6-1.1-3.2-1-4.3.4m3.7 2.3c0 .8-.4 1.5-.9 1.5-1.3 0-2.2-1.6-1.4-2.4 1.1-1.1 2.3-.6 2.3.9m0 6.1c0 .8-.4 1.4-1 1.4-.5 0-1-.9-1-2.1 0-1.1.5-1.7 1-1.4.6.3 1 1.3 1 2.1M759.7 836.7c-.4.3-.7 1.3-.7 2.2 0 1.2.3 1.2 1.2.3 1.6-1.6 2.8-1.5 2.8.3 0 .8-.5 1.5-1.2 1.5-.9 0-.9.3 0 1.2 1.4 1.4 1.6 4.8.3 4.8-.5 0-1.1-.6-1.4-1.3-.2-.6-.7-.9-1.1-.6-1.2 1.1.6 3.9 2.5 3.9 2.5 0 4.4-3.7 2.8-5.6-.8-1-.8-1.8-.1-2.7 2-2.4-2.9-6.3-5.1-4M702.5 838c.3.5 1.3 1 2.2 1 1.1 0 1.3.5.8 1.7-1.4 3.2-1.8 8.3-.6 8.3.6 0 1.1-1.2 1.1-2.8.1-1.5.7-3.8 1.5-5.2 2.1-3.6 1.9-4-2.1-4-2.1 0-3.3.4-2.9 1M723 841c-1.1 2.1-2 4.1-2 4.4 0 .2 1.4 1.1 3.1 2 3.4 1.7 4.1 1 3.5-3.9-.3-1.7-.5-3.8-.5-4.8-.1-2.9-2-1.9-4.1 2.3m2.5 3.1c-1 1.5-2.5 1-1.9-.6.4-.8 1-1.2 1.5-.9s.7 1 .4 1.5M533.4 841.9c-3.1 1.9-5.2 4.1-3.9 4.1 1.2 0 8.5-4.5 8.5-5.3 0-1.2-1.3-.8-4.6 1.2M600.7 840.7c-1 .9-.9 7.1.2 7.7 1.1.7 2.3-6.6 1.3-7.6-.5-.5-1.1-.5-1.5-.1M638.7 840.7c-2.1.3-2.9 1.1-3.4 3.3-.3 1.6-1 3.4-1.7 3.8-1.2 1-15.7 8.9-19.3 10.6-3.7 1.8-2.4 7.6 1.7 7.6.8 0 5.7-2.5 10.8-5.5 9.9-5.9 10.7-6.1 14.7-4.3 2.3 1 2.8.8 5.5-2.3 1.6-1.9 2.9-4.4 3-5.7 0-2.2.2-2.2 13.3-2.2 13.4 0 17.7-.5 17.7-2.1 0-.5-7.6-.9-16.9-.9-13.8 0-17.1-.3-18.1-1.5-1.2-1.5-2-1.6-7.3-.8m3.5 4c4 4.7 4.4 9.3.8 9.3-1.3 0-1.6-.6-1.2-2.5.5-3-1.3-5.5-3.9-5.5-1.9 0-2.5-1.1-1.2-2.3 1.2-1.3 4-.7 5.5 1m5.6 1.9c-1 1-2.8-.6-2.8-2.4 0-1.5.1-1.5 1.7.1.9.9 1.4 1.9 1.1 2.3m-8 3.7c.5 2.3-1 2.1-2.6-.4-1.2-1.8-1.1-2 .5-1.7 1 .2 1.9 1.1 2.1 2.1m8.2-.8c0 .3-.2.5-.5.5s-.5-.2-.5-.5.2-.5.5-.5.5.2.5.5m-12.3 2c.8 2.2-.6 3.3-1.7 1.5-1.3-2-1.2-3 0-3 .6 0 1.3.7 1.7 1.5m-3.9 2.9c.3 1.2-.1 1.7-1 1.4-.7-.3-1.5-1.3-1.6-2.2-.3-1.2.1-1.7 1-1.4.7.3 1.5 1.3 1.6 2.2m-3.8 2c0 2.1-2.1 3.1-3.1 1.5-1.4-2.2-1.1-2.9 1.1-2.9 1.1 0 2 .6 2 1.4m-4.5 1.6c1.1 1.7-.5 3.2-2.1 1.9-.8-.6-1.4-1.5-1.4-2 0-1.2 2.7-1.1 3.5.1m-3.7 3.3c.2 1-.3 1.7-1.2 1.7s-1.6-.2-1.6-.4-.3-1.2-.6-2.1c-.5-1.3-.2-1.6 1.2-1.3 1 .2 2 1.1 2.2 2.1m-4.3 1.7c.3.5.4 1 .1 1s-.8-.5-1.1-1c-.3-.6-.4-1-.1-1s.8.4 1.1 1M732 843c-1.2.8-1.2 1 .3 1.6 2.2.8 5-.3 4.2-1.6-.8-1.2-2.5-1.3-4.5 0M520.2 849.6c-2.4 1.4-4.1 2.8-3.8 3.1.7.7 9.6-3.9 9.6-4.9 0-1.3-1.3-.9-5.8 1.8M600.7 850.7c-1.1 1-.8 8.3.3 8.3.6 0 1-2 1-4.5 0-4.6-.2-5-1.3-3.8M510.3 855.2c-2.8 1.7-4.4 3.8-2.9 3.8 1.2 0 7.6-4.3 7.6-5.1 0-1.3-1.1-1-4.7 1.3M571 865.1c0 6.4.4 9.8 1 9.4.6-.3 1-4.8 1-10.1 0-5.6-.4-9.4-1-9.4s-1 4-1 10.1M724.6 862c-3 4.5-3.5 7.8-.7 4.1 3.2-4.1 5.3-8.1 4.3-8.1-.5 0-2.1 1.8-3.6 4M600 863c.1 3.3 6.2 8.2 7.5 5.9.4-.5-.2-1.2-1.2-1.5-1-.4-2.8-1.8-4-3.3-1.5-1.7-2.3-2.1-2.3-1.1M609.5 866c-.3.5-.2 1 .4 1 .5 0 1.3-.5 1.6-1 .3-.6.2-1-.4-1-.5 0-1.3.4-1.6 1M719 871.3c-.7 1.2-2 3.2-2.8 4.4-.8 1.3-1 2.3-.5 2.3 1.3 0 6.3-7.9 5.4-8.4-.4-.3-1.3.5-2.1 1.7M571 882.1c0 3.1.4 4.8 1 4.4.6-.3 1-2.6 1-5.1 0-2.4-.4-4.4-1-4.4-.5 0-1 2.3-1 5.1M606.5 882c-.3.5-1.9 1-3.4 1-4 0-5.5 2.2-4.8 7 .3 2.2.1 4.3-.4 4.6s-.9 1-.9 1.6c0 .7.4.7 1.3 0 1-.8 2-.4 4.1 1.8 3.3 3.5 4.9 3.7 7.6 1 1.1-1.1 2.4-2 2.9-2 .6 0 1.6-.8 2.3-1.9 1.2-1.7 3.5-1.9 26.6-2.6 13.8-.4 25.2-1.1 25.2-1.6s-11.4-.9-25.5-.9c-21.1 0-25.5-.2-25.5-1.4 0-1.9-5.5-7.6-7.3-7.6-.9 0-1.9.4-2.2 1m.1 5.7c1.3 1.4 2.7 3.7 3 5 1.3 5.2-2.4 7.9-5.9 4.3-2.2-2.2-2.2-2.2-.1-1.6 3.4 1 5-1.8 3-5-2.1-3.1-4.8-2.8-5.7.6-.6 2-.7 1.7-.8-1.8-.1-3.6.2-4.2 1.9-4.2 1.2 0 3.2 1.2 4.6 2.7m6.5-1.1c1 1.3 1 1.7-.2 2.5-2 1.2-2.6 1.1-3.3-.7-1.2-3.2 1.2-4.5 3.5-1.8m0 7.7c-1.6 1.6-2.6 0-1-1.9.9-1.1 1.5-1.2 1.7-.4.2.6-.1 1.7-.7 2.3M671.4 884.8c-2.9 2-2.1 8.2 1.1 8.2.8 0 1.5.7 1.5 1.6 0 1.1-.6 1.4-2 .9-2.3-.7-2.9 1.9-.6 2.8 2.8 1.1 4.8-1.7 4.8-6.6 0-6-2-8.8-4.8-6.9m2.6 4.2c0 1.1-.4 2-1 2-.5 0-1-.9-1-2s.5-2 1-2c.6 0 1 .9 1 2M679.5 887c-.9 2.9.3 5.7 2.6 6.3 1.2.3 1.8 1 1.4 1.7-.4.6-1.5.8-2.6.5-2.3-.8-2.5.7-.4 2.5 1.3 1 1.9 1 3.5-.5 2.3-2.1 2.8-9.3.8-11.3-1.8-1.8-4.6-1.4-5.3.8m4.5 2.6c0 1.6-1.6 1.9-2.5.4-.8-1.3.4-3.2 1.6-2.5.5.4.9 1.3.9 2.1M689 886.5c-1.6 2 .2 6.5 2.6 6.5.8 0 1.4.6 1.1 1.2-.2.7-1.4 1.2-2.6 1-2.6-.2-2.4 1.6.3 3.2 1.3.9 2 .7 3.2-.8 1.4-2 1.9-8.2.8-11-.8-2-3.8-2.1-5.4-.1m4 3.1c0 1.6-1.6 1.9-2.5.4-.8-1.3.4-3.2 1.6-2.5.5.4.9 1.3.9 2.1M700.1 889.4c-2.3 4.5-2.2 6.6.5 6.6.8 0 1.4.7 1.4 1.5 0 2.1 2 1.9 2.1-.3.3-3.7-.3-10.7-1-11.5-.4-.4-1.8 1.2-3 3.7m1.5 4.3c-1 1-1.9-.5-1-1.8.6-1.1.8-1.1 1.2 0 .2.7.1 1.5-.2 1.8M707.9 887.7c-1.2 3.1-.6 9 1.1 10.7 2.1 2.1 4.5-.8 4.8-5.8.5-7.2-3.7-10.6-5.9-4.9m4.1 4.4c0 2.1-.4 3.9-1 3.9-.5 0-1-2.1-1-4.6 0-2.7.4-4.3 1-3.9.6.3 1 2.4 1 4.6M727 886.9c-2.6 5 .2 13.7 3.8 11.5 2.1-1.3 2.9-9.9 1.1-12-1.6-2-3.6-1.8-4.9.5m3.8 5.7c-.2 2.2-.7 3.9-1.3 3.9-1.2 0-1.9-6-1-8.3 1-2.8 2.7.3 2.3 4.4M737.2 886.2c-1.7 2.2-1 10.9 1.1 12.2 2.7 1.6 4.4-1.3 4.1-7-.3-5.6-2.8-8-5.2-5.2m2.8 3.3c0 .8-.4 1.5-1 1.5-.5 0-1-.7-1-1.5s.5-1.5 1-1.5c.6 0 1 .7 1 1.5m0 5.5c0 1.1-.4 2-1 2-.5 0-1-.9-1-2s.5-2 1-2c.6 0 1 .9 1 2M746 887.6c-2.3 6 .1 13 3.7 10.8 2.2-1.3 3-9.8 1.2-12s-3.8-1.7-4.9 1.2m4 5c0 3.2-.4 4.4-1.2 4.2-1.6-.5-2.2-4.1-1.4-7.4 1-3.8 2.6-1.8 2.6 3.2M756.2 887.9c-1.1.7-1 1 .3 1.5 1.2.4 1.6 1.6 1.4 4.6-.2 2.2.1 4 .6 4 .6 0 1.1-2.5 1.3-5.5.3-5.6-.5-6.6-3.6-4.6M571 894.5c0 2.7.2 4.6.4 4.4.8-.8 1-7.8.3-8.5-.4-.4-.7 1.4-.7 4.1M718 893c0 .5 1.1 1 2.4 1 1.4 0 2.8-.5 3.1-1 .4-.6-.7-1-2.4-1s-3.1.4-3.1 1M590.5 898.6c-1.1.8-2.7 1.9-3.5 2.4s-1.2 1.1-.8 1.5c.5.6 8.8-4.2 8.8-5.1s-2.7-.2-4.5 1.2M570 904c0 1.3 4.1 5 5.7 5 2.1 0 1.5-1.6-1.2-2.8-1.4-.6-2.5-1.6-2.5-2.2 0-.5-.4-1-1-1-.5 0-1 .4-1 1M581.7 903.7c-1.2 1.2-.7 2.2.8 1.7.8-.4 1.5-1 1.5-1.5 0-1.1-1.4-1.2-2.3-.2M695.3 910.2c-2.2 2.9-6.4 11-6 11.4.6.6 3.8-3.8 6.1-8.4 1.8-3.4 1.7-5.3-.1-3M686 925.7c-2.5 3-5.2 8.3-4.2 8.3 1.1 0 6.4-8 6-9.2-.2-.5-1-.1-1.8.9M676.2 940.7c-1.2 1.9-2.1 4-2 4.5.3.9 5.8-6.4 5.8-7.7 0-1.5-1.8 0-3.8 3.2M669.1 952.4c-1.3 2-2.1 3.9-1.8 4.2.8.8 4.9-5.5 4.5-6.8-.2-.6-1.5.5-2.7 2.6M662.6 962.7c-2.9 4.2-3.4 6.2-1 4.2 1.9-1.5 4.7-6.9 4.1-7.6-.3-.2-1.7 1.3-3.1 3.4M653.5 977.1c-4 6.9-4.3 7.9-1.5 5.4 1.1-1 2-2.3 2-2.8 0-.6 1.1-2.5 2.5-4.3 2.7-3.5 3-4.4 1.5-4.4-.5 0-2.5 2.7-4.5 6.1M645.7 989.7c-1.6 2.5-2.6 5-2.5 5.5.2.6 1.8-1.3 3.5-4.1 1.8-2.8 2.9-5.3 2.4-5.5-.4-.3-1.9 1.6-3.4 4.1M638.1 1001.9c-1.2 1.6-2.1 3.4-2.1 4 0 2.2 1.6 1 3.7-2.9 2.5-4.6 1.4-5.4-1.6-1.1M631.4 1012.9c-1.5 2.3-2.4 4.4-2.1 4.7s1.8-1.3 3.3-3.5c1.5-2.3 2.4-4.4 2.1-4.7s-1.8 1.3-3.3 3.5M624.3 1024.3c-2.4 3.6-3.8 6.7-3 6.7.7 0 6.7-8.5 6.7-9.4 0-1.5-1.7-.3-3.7 2.7M560.1 1041.5c-6.9 4.6-13.7 9.6-15.2 11.2-2.8 2.9-12.9 18.7-12.9 20.3 0 2-3.5 2.5-21.8 3l-19.2.5v-5.7c0-3.1-.3-5.9-.7-6.1-.5-.3-20.5-.8-44.5-1.2l-43.8-.8v24.1l6.3.7c3.4.3 23.3.7 44.2.8l38 .2.3-5.3.3-5.2h41.4l5.4 7.2c2.9 4 6 8.8 6.9 10.7 1.9 3.9 2.2 3.4-12.7 27.9-19.7 32.7-20.4 34-22.5 42.5-.8 2.9-1.7 7.7-2 10.7-.4 3-1.5 6.6-2.3 8-.9 1.4-2.2 3.4-2.8 4.5-8.5 15.6-10.4 18.1-18.3 23.3-8.4 5.5-13.1 10.6-15 16.1-1.2 3.5-1.6 19.9-.6 23.7.3 1.2 1.8 2.8 3.2 3.5 1.5.7 4 2.2 5.5 3.2 3 2 14.4 8.5 21.6 12.3 4.6 2.4 7.5 2.4 13.8-.3 4.2-1.7 6.9-4.5 12.2-12.6 2.9-4.4 4.4-8 4.6-10.6.4-4.4 4.1-11.8 11.2-21.9 5.3-7.6 7.2-9.7 8-8.9s10.3-4.1 10.3-5.3c0-1.4-.7-1.3-3.6.6-4.2 2.8-3.8.8 1.3-5.8 2.7-3.4 6.4-8.8 8.3-11.8 10.3-16.8 19-31.3 19-31.6 0-.2 2.7-4.9 6-10.4s6-10.2 6-10.3c0-.2 2.6-5 5.8-10.8 6-10.5 9.3-16.4 13.6-24.2 6.9-12.3 16.1-28.7 18.2-32.3 1.3-2.2 2.4-4.5 2.4-5 0-1.1-8.3-6.4-19.5-12.6-18.7-10.4-32.7-18.4-38.4-22-2.5-1.5-4.7-2.8-5-2.8-.4 0-6.2 3.8-13 8.5m22.4-1c4.1 2.5 7.9 4.5 8.5 4.5.5 0 1 .4 1 .9s.8 1.1 1.8 1.4c1.6.6 5.1 2.5 17.7 9.7 5.4 3.1 5.7 3.5 3.4 3.8-1.6.2-4.8-1-8-2.9-10.8-6.4-12.2-7-14.3-6.5-2.2.7-4.7 2.6-8.5 6.8-2.3 2.7-2.3 2.7 3.8 6.7 3.4 2.2 6.7 4.2 7.4 4.4.7.3-.6 2.2-3.2 4.6-5.3 5-4.8 6.6.7 2 2.1-1.8 6.7-4.2 10.2-5.3 5.2-1.7 6.5-2.6 7-4.6.4-1.9 1.3-2.6 3.7-2.8 2.6-.3 3.2.1 3.5 2 .3 2.1.9 2.3 7.5 2.8 4 .3 7.7 1 8.3 1.6 1.2 1.2.7 2.1-12.8 26.4-4.2 7.4-9.4 16.9-11.7 21s-5.7 10.2-7.5 13.5-4.1 7.2-5.2 8.7c-1 1.4-1.8 2.8-1.8 3.1 0 .7-9.4 17-18.8 32.7-18.9 31.5-28.1 42.9-39.2 48.5-3 1.6-5 3-4.3 3.2.6.2 2.5-.3 4.2-1.2 1.7-.8 3.1-1.2 3.1-.8 0 .5-1.6 3.2-3.6 6.2-4.9 7.2-8.4 15-8.4 18.6 0 6.6-11.5 19.9-18.7 21.7-2.2.6-2.3.3-2.3-5 0-8 1.7-21.4 3-24.3 1.1-2.4 4.6-4.7 15.3-10 3.2-1.6 5.5-3.4 5.2-3.9s-2.7.3-5.3 1.8c-10.9 6.3-13 6.6-9.7 1.5 2.4-3.7 14.8-20.2 17.2-22.8 1-1.2 4.3-5 7.3-8.5 3-3.6 6-7 6.6-7.6.6-.7 1.8-3.4 2.8-6 1-2.7 3.5-9.4 5.7-14.9 2.1-5.5 3.9-10.3 3.9-10.8 0-.4.9-2.6 1.9-5 1.1-2.3 2.6-6.2 3.5-8.7.8-2.5 2.5-7.2 3.7-10.5 4.6-12.7 18.1-52.1 18.6-54.5.3-1.4.2-2.2-.2-1.8-.8.7-2.3 5.1-12.4 34.8-7.2 20.9-11.7 33.3-18.8 51-3.9 9.6-7.5 19.1-8.2 21-.6 1.9-2.1 4.6-3.3 6-13.1 14.5-25.9 30.9-30.5 38.8-3.8 6.7-5.1 8-10.2 10.3-2.5 1.2-4 2.3-3.3 2.6s2.8-.4 4.7-1.6c1.9-1.1 3.5-1.9 3.5-1.8s-.7 3.7-1.5 8-1.5 10.9-1.5 14.6-.3 7-.6 7.4c-.4.3-2.5-.4-4.8-1.7-20.8-11.8-26.3-15.1-27.3-16.4-1.8-2.3-1.7-21 .1-25.3.8-1.9 3.2-5 5.3-7 4.2-4 11.5-9.1 12.1-8.5.2.3-.9 2.5-2.4 5.1-2.5 4.4-6.5 7.2-8.4 6-.5-.3-1.1-.1-1.4.4-1.1 1.7 2.2 1.9 5.4.3 3-1.6 6.6-6.5 13.9-19.5 1-1.8 4.3-7.5 7.3-12.7 4.3-7.4 5.7-10.8 6.2-15.5 1.6-13.3 2.5-15.4 19.3-43.2 7.3-12.3 13.3-22.5 13.3-22.7s3.6-6.3 8-13.6 8-13.4 8-13.6 1.8-3.1 4-6.5c4.4-6.8 4.6-8.1 2.5-11.9-1.6-2.7-1.8-2.3-1.5 3.2.1 3.6-2 7.8-13.7 26.6-1.4 2.2-1.5 2.1-6.6-5.3-2.9-4.2-6.2-9.4-7.4-11.6-2.3-4-2.3-4 3.5-13.5 3.1-5.3 7.3-10.7 9.2-12.2 8.5-6.6 24.6-17 25.8-16.7.7.3 4.6 2.5 8.7 5m19.4 16.6c6.8 3.9 8.2 5.7 6.3 8.5-.5.7-2.9-.2-7.4-2.9-5.8-3.5-6.8-4.5-6.8-6.9 0-1.5.2-2.8.4-2.8s3.6 1.8 7.5 4.1m-9.9-1.2c0 1.2-1.1 2.3-3 3-3.7 1.2-3.9-.1-.4-2.8 3.3-2.6 3.4-2.6 3.4-.2m6.9 7.7c3.4 2 5.8 4 5.5 4.5-1.2 2-6.8.8-12.1-2.8-4.7-3.1-5.3-3.8-3.7-4.4 3.2-1.3 4-1 10.3 2.7m23.5-.5c2 1.2 3.6 2.2 3.6 2.3 0 .2-1.4.3-3 .4-2 0-3.3-.6-4-1.8-1.9-3.6-1.4-3.8 3.4-.9m-159.9 3c10.5.1 20.5.3 22.3.6 3.3.5 3.3.5 3 10.2l-.3 9.6-37-.4c-20.3-.2-38.8-.4-41-.5-4-.1-4-.1-4.1-4.6-.1-2.5.1-7.2.4-10.4l.5-5.9 18.6.7c10.2.3 27.2.6 37.6.7"/><path d="M550 1056.5c0 .6 7.3 5.5 8.2 5.5 2.1 0 .4-2.2-3.2-4-4-2-5-2.4-5-1.5M571.8 1074.2c-3.3 4.5-5.6 8.2-9.8 15.8-2 3.6-7.4 12.8-12 20.5-4.5 7.7-9.1 15.3-10 17-1 1.6-5 8.4-9 15-10.7 17.5-14.9 27.8-15 36.9 0 3.3-10.1 22.2-23.8 44.6-1.2 1.9-2.2 4.5-2.2 5.6 0 2.2 2.7 4.1 3.9 2.8.3-.4 0-.9-.6-1.1-.7-.3-1.3-1.2-1.3-2 0-1.5 1.3-3.9 13-23.8 9.2-15.7 13-23.2 13-25.9 0-3.5 3.7-17.1 5.7-21 .9-1.7 6.3-11 12.1-20.6s11.9-20 13.6-23c5.8-10.3 17-28.9 17.4-28.6.1.2-1.6 5.7-3.8 12.2-2.3 6.6-4.8 13.9-5.7 16.4-2.2 6.7-9.3 26.2-10.4 28.5-.4 1.1-1.7 4.2-2.8 7-1 2.7-3.7 9.5-6 14.9-2.2 5.5-4.1 11.5-4.1 13.3 0 3.4-1.3 6.7-3.4 8.9-.6.6-4.5 4.8-8.6 9.4s-10.2 11.3-13.6 14.9c-12.3 13.3-14.6 16.1-13.7 16.1.6 0 3.2-2.4 5.9-5.3 35.3-38.1 35.4-38.2 35.4-44.1 0-1.8 2-8.3 4.5-14.2 2.5-6 5.3-12.9 6.1-15.4s1.9-5.4 2.4-6.5c1.1-2.7 4.2-11.2 8-22 1.8-5 4.5-12.6 6-17 5.9-16.7 7-20.2 7-21.9 0-2.5 3-6.7 5.7-7.7 2.8-1 3.1-2.9.4-2.9-1 0-2.9 1.5-4.3 3.2M582.5 1076.5c1.6 1.3 3.2 2.2 3.5 1.9.7-.7-3.9-4.4-5.4-4.4-.6.1.2 1.2 1.9 2.5"/><path d="M522 1167.9c0 .5 2.7 1.8 6 2.9 3.4 1.1 5.9 1.5 5.7.9s-2.8-1.8-5.8-2.8c-6.5-2.2-5.9-2.1-5.9-1M521 1181.8c0 1.2 8.9 3.1 9.6 2.1.6-1-.5-1.5-5.8-2.4-2.1-.3-3.8-.2-3.8.3M481.9 1245.1c-1.3 1.3-1.8 2.7-1.4 3.7.4.9 1 2.5 1.2 3.4 1 3.4 2.4 1.8 1.8-2-.6-3.7-.6-3.7 1.1-.7 1 1.6 2.4 3.5 3.3 4.2 1.4 1.1 1.4 1.2-.1 1.3-2.2 0-2.4 1.6-.3 2.4 1.9.7 4.5-2 4.5-4.8 0-2.6-3.2-7.1-6.1-8.6-1.4-.8-2.3-.6-4 1.1m6.5 3.4c2.2 3.4 2.1 5.2-.3 3.1-2-1.8-3.4-5.6-2.1-5.6.4 0 1.5 1.1 2.4 2.5M413.9 1067.7c-.1.5 0 3.6.1 7 .1 4-.2 6.3-.9 6.3-.6 0-1.1.4-1.1 1 0 .5.9 1 2 1 1.8 0 2-.7 2-8 0-4.7-.4-8-1-8-.5 0-1.1.3-1.1.7M423 1068.5c-.7.9-1 1.8-.7 2.2.4.3 1.3 0 2.2-.7 1.3-1 1.5-.9 1.5.7 0 1-.6 2.5-1.2 3.2-1 1.1-1 1.4 0 1.8 1.2.5 1.8 5.3.6 5.3-.4 0-1.3-.8-2.1-1.8-1.2-1.6-1.3-1.5-1.1.8.2 1.7 1 2.6 2.6 2.8 2.7.4 4.4-3.1 3.1-6.6-.5-1.3-.6-2.8-.3-3.3.9-1.6-.5-5.9-2-5.9-.7 0-1.9.7-2.6 1.5M446 1067.5c0 .6-.2 4.5-.3 8.8-.2 6.3 0 7.7 1.2 7.5 1.1-.2 1.4-1.9 1.2-7.8-.1-4.1-.7-7.9-1.2-8.5q-.9-.75-.9 0M455.5 1068.6c-1.7 1.7-2 4.4-.5 4.4.6 0 1-.7 1-1.5s.5-1.5 1-1.5c1.7 0 1.1 4.8-1 8.2-2.9 4.7-2.6 6 1.3 5.6 2.5-.2 3.3-.8 3.5-2.8.4-2.1.2-2.2-1.2-1.1-2.3 2-3.1.6-1.3-2.2 3.7-5.7 1.4-13.3-2.8-9.1M476.6 1067.8c-.2.4-.6 4.1-.7 8.2-.2 7.1-.1 7.5 2 7.8 3.6.6 4.6-1.3 4.3-8-.3-4.3-.8-6.6-2-7.5-2-1.5-2.9-1.6-3.6-.5m3.4 4.1c0 1.1-.4 2.3-1 2.6-.6.4-1-.5-1-1.9s.5-2.6 1-2.6c.6 0 1 .9 1 1.9m0 7.6c0 1.4-.4 2.5-1 2.5-.5 0-1-1.1-1-2.5s.5-2.5 1-2.5c.6 0 1 1.1 1 2.5M467 1068.2c-.1.1-.2 3.8-.3 8.1-.2 6.3.1 7.7 1.3 7.7 1.3 0 1.6-1.4 1.5-7.7 0-5.2-.4-7.8-1.2-8-.7-.3-1.3-.3-1.3-.1M432.5 1076c.3.5 1.9 1 3.6 1 1.6 0 2.9-.5 2.9-1 0-.6-1.6-1-3.6-1-2.1 0-3.3.4-2.9 1M616.2 1036.7c-1.2 1.9-2.1 4-2 4.5.3.9 5.8-6.4 5.8-7.7 0-1.5-1.8 0-3.8 3.2M609.9 1046.7c-.7 1.6-1.5 3.1-1.7 3.5-.2.5 0 .8.6.8.7 0 1.6-1.4 4-6.3.2-.4 0-.7-.6-.7-.5 0-1.5 1.2-2.3 2.7M642.6 1150.5c-1.1.8-3 1.5-4.2 1.5-3.4 0-6.6 3.2-7.3 7.4-.6 3.9-2 4.9-16.6 12.7-4.8 2.6-8.5 6.4-8.5 8.7 0 2 3.6 4.6 5.1 3.7.5-.4 2.2-.9 3.7-1.1 1.5-.3 4.3-1.5 6.2-2.6 6.4-3.8 11.9-6.8 12.4-6.8.3 0 .7 11.3.8 25 .2 15.8.7 25 1.3 25s.9-9.2.7-26.1c-.3-24.2-.2-26.1 1.3-25.5 4.8 1.8 6.1 1.6 11.2-2.1 7-5.2 7.9-7.3 5.4-12.8-1.2-2.7-3.3-5.3-5.3-6.5-3.9-2.4-3.8-2.3-6.2-.5m3.9 2.5c-.3.5-1.3 1-2.1 1s-1.4-.5-1.4-1c0-.6.9-1 2.1-1 1.1 0 1.7.4 1.4 1m4.9 2.6c1.9 1.9 2 3.6.4 5.2-2 2-3.3 1.4-4.6-2-.9-2.5-.9-3.4.1-4 1.7-1.1 2.4-1 4.1.8m-11.1 1.8c6.1 5.6 7.3 13.6 2.1 13.6-1.9 0-2.5-.4-2-1.5.3-.8.8-2.1 1.1-2.8s-.4-2.6-1.6-4.1c-1.6-2.1-2.7-2.6-4.5-2.2-1.7.5-2.4.2-2.4-.8 0-5 3.2-6 7.3-2.2m6.7 4.9c0 .7-.6.3-1.2-.8s-1.6-2.7-2.2-3.5c-.6-.9-.1-.5 1.2.8 1.2 1.3 2.2 2.8 2.2 3.5m-7.3 5.1c-1 2.4-3.2 1.9-4.6-1.1-1-2.1-.9-2.8.1-3.4 1.8-1.1 5.3 2.4 4.5 4.5m13.3-3.5c0 .5-.7 1.1-1.5 1.5-1.5.5-2-.5-.8-1.7.9-1 2.3-.9 2.3.2m-20.2 2.3c.7.7 1.2 2.1 1.2 3.2 0 2-.2 1.9-2-.4-1.1-1.4-2-2.8-2-3.3 0-1.1 1.5-.8 2.8.5m-3.4 2.4c1.8 1.7 2.1 4 .7 4.9-.7.4-4.1-4.6-4.1-6.2 0-.9 2-.1 3.4 1.3m-3.3 3.5c.7 1.4.7 2.5.1 3.1s-1.5-.1-2.5-2.1c-1.3-2.6-1.3-3.1-.2-3.1.8 0 1.9.9 2.6 2.1m-4.1 1.9c1.7 3.2 0 4.7-2.1 1.9-2.3-2.9-2.4-3.9-.4-3.9.8 0 1.9.9 2.5 2m-4 3.9c-.1 2.6-.1 2.6-1.5.1-1.8-3.2-1.8-4.1 0-3.4.8.4 1.5 1.8 1.5 3.3m-6.3 2.3c-.3.8-.6.5-.6-.6-.1-1.1.2-1.7.5-1.3.3.3.4 1.2.1 1.9m-2.2.8c.3.5.1 1-.4 1-.6 0-1.1-.5-1.1-1 0-.6.2-1 .4-1 .3 0 .8.4 1.1 1M601 1187c-1.4 1.1-4.6 3-7.2 4.1-2.7 1.2-4.8 2.6-4.8 3.1s.6.8 1.3.6c2.3-.6 15.7-8.3 15.7-9.1 0-1.3-2.5-.7-5 1.3M581.5 1197.8c-1.6.9-3.2 1.8-3.4 1.9-.2.2-.2.6.1.9.6.6 8.8-3.3 8.8-4.1 0-1-2.6-.4-5.5 1.3M572.1 1203.1c-1.8 1.1-3 2.3-2.7 2.7.8.7 7.6-2.8 7.6-4 0-1.3-1.2-1-4.9 1.3M562.8 1208.4c-1 .7-1.8 1.6-1.8 2 0 1.2 2.5.5 5-1.4 2.3-1.8 2.3-2 .5-1.9-1.1 0-2.8.6-3.7 1.3M585.2 1228.6c-1.9 2.1-1.1 5.7 1.5 6.9 1.5.8 1.9 1.5 1.3 2.5-.7 1.2-1.1 1.2-2.5 0-1.5-1.3-1.7-1.2-1.4.5.5 2.4 3.4 3.1 5.4 1.5 2-1.7 1.9-9.4-.1-11.4-1.9-1.9-2.5-1.9-4.2 0m3.3 3.2c0 1.8-2 1.5-2.3-.4-.3-1 .1-1.5 1-1.2.7.3 1.3 1 1.3 1.6M594.7 1229.1c-1.8 2.5-1.1 5.6 1.4 6.4 1 .4 1.9 1.3 1.9 2.1 0 1.7-1.2 1.8-2.7.3-.7-.7-1.3-.7-1.7-.1-.3.5.1 1.6 1 2.3 2.7 2.2 4.9-.1 5.2-5.5.4-6.8-2.2-9.7-5.1-5.5m3.3 2.9c0 1.1-.4 2-1 2-.5 0-1-.9-1-2s.5-2 1-2c.6 0 1 .9 1 2M613.7 1228.8c-2.3 2.5-2.1 3.7.9 6.1 1.4 1.1 2.3 2.5 1.9 3.1-.5.8-1.1.8-1.9.1-.7-.6-1.6-.8-1.9-.4-.9.8 1.2 3.3 2.9 3.3 1.9 0 4.4-4 4.4-7 0-2.6-2.5-7-3.9-7-.4 0-1.5.8-2.4 1.8m3.3 2.7c0 .8-.4 1.5-1 1.5-.5 0-1-.7-1-1.5s.5-1.5 1-1.5c.6 0 1 .7 1 1.5M651.2 1229c-2.5 4.1-.8 11 2.7 11 2.3 0 3.1-1.9 3.1-6.9 0-5.7-3.3-8-5.8-4.1m3.8 5.1c0 2.8-.4 3.9-1.2 3.7-1.4-.5-2.3-5.1-1.4-7.4 1-2.7 2.6-.4 2.6 3.7M661 1228.5c-.7.9-.9 1.9-.5 2.3s1 .1 1.2-.6c.8-2.1 2.5-1.3 2.2 1-.2 1.3 0 2.9.5 3.6.5.8.3 1.8-.4 2.5-1 .9-1.4.9-1.7-.1-.6-1.7-2.3-1.5-2.3.2 0 .8 1 1.8 2.2 2.2 3.1 1 4.7-1.7 4-6.9-.7-5.5-2.8-7.1-5.2-4.2M670.8 1228.1c-1.8 1-2.4 4.9-1.1 6.2.3.4 1.2.2 1.9-.4 1.7-1.4 3 1.2 2 3.7-.5 1.3-.9 1.4-2.1.4s-1.5-.9-1.5.4c0 1.7 2.6 2.1 4.8.7s1-6.4-1.8-7.8c-2.4-1.2-2.4-1.4 0-1.7 1.2-.1 1.5-2 .3-2.3-.4-.1-1.6.2-2.5.8M603 1229c0 .5.9 1 1.9 1 1.8 0 1.9.3 1 2.9-.6 1.6-.9 4.2-.7 5.8.4 2.5.6 2.3 1.7-2 .8-2.6 1.7-5 2.2-5.3 2.3-1.4.7-3.4-2.6-3.4-1.9 0-3.5.4-3.5 1M624 1232c-2.5 4.9-2.5 6-.1 6 1.1 0 2.1.6 2.4 1.2.3.9.8 1 1.5.3 1.2-1.2.4-11.5-.9-11.5-.5 0-1.8 1.8-2.9 4m2 3.2c0 1.6-.3 1.9-1.1 1.1-.6-.6-.8-1.6-.5-2.2 1.1-1.7 1.6-1.3 1.6 1.1M643 1229.1c-1.1.8-1.2 1.2-.2 1.6.7.3 1.2 2.3 1.2 4.9 0 2.4.5 4.4 1 4.4.6 0 1-2.7 1-6 0-6.1-.4-6.8-3-4.9M632.5 1235c.3.5 1.5 1 2.5 1s2.2-.5 2.5-1c.4-.6-.7-1-2.5-1s-2.9.4-2.5 1"/></svg>