<svg xmlns="http://www.w3.org/2000/svg" viewBox="0 0 868.444 1217.159" fill="currentColor"><path d="M278.26 134.104c-1.702.494-8.715 4.169-15.53 8.144-19.141 11.13-19.542 11.328-21.936 9.82-10.376-6.539-15.569-8.658-22.867-9.085-4.1-.215-9.3.066-11.503.658s-17.232 8.837-33.368 18.478c-16.235 9.54-29.563 17.392-29.763 17.391-1.3-.005-12.528 7.354-12.53 8.254-.003.5.798.303 1.801-.493.903-.797 2.407-1.791 3.208-2.188.801-.298 3.106-1.59 5.01-2.682 37.682-22.462 62.435-36.672 65.538-37.66 2.303-.692 6.704-1.076 11.003-.76 6.299.423 8.396 1.131 17.079 5.863 5.49 2.92 10.379 5.738 10.977 6.14 1.595 1.506 2.797 1.01 1.503-.594-.697-.903-1.094-1.704-.893-1.904.702-.697 21.046-12.523 21.546-12.52.2 0 2.605-1.391 5.21-2.982 3.91-2.385 6.012-2.978 10.512-2.961 6.4.023 7.698.528 20.67 7.976 13.173 7.548 14.27 8.152 33.93 19.524a3504 3504 0 0 0 21.953 12.58c42.014 23.555 57.878 33.313 58.968 36.117.495 1.302.877 6.203.86 10.903l-.03 8.4-6.486-4.024c-3.592-2.213-6.685-4.024-6.885-4.025-.4-.001-13.374-7.249-27.045-15.1-2.196-1.207-13.173-7.447-24.45-13.889-22.852-12.984-33.13-18.821-43.41-24.66-21.055-12.076-25.45-13.692-31.755-12.016-3.104.89-61.328 34.676-80.072 46.607l-6.815 4.275.041-11.4c.046-12.4.046-12.5 7.06-16.274 12.826-7.153 25.854-14.605 28.16-16.297 1.504-.994 3.007-1.889 3.407-1.887.4.001 2.003-.893 3.608-2.087 2.707-1.89 3.107-1.889 6.101-.478 3.593 1.913 5.095 1.419 1.602-.494-2.495-1.309-5.09-2.818-13.971-7.851-7.185-4.126-14.282-5.052-22.09-2.781-3.103.889-6.208 2.277-7.111 3.074-.803.797-1.706 1.494-2.006 1.493-.2-.001-4.008 2.185-8.318 4.87a1882 1882 0 0 1-22.148 13.018c-7.916 4.471-14.13 8.348-13.931 8.649.299.201 5.61-2.58 11.823-6.257 6.313-3.677 13.428-7.75 15.933-9.141s8.518-4.97 13.33-7.852c10.222-6.262 13.126-7.251 21.126-7.322 4.8-.083 7.198.626 13.187 3.648 4.092 2.015 7.384 4.327 7.381 5.127-.003.7-.405 1.399-.905 1.397-.6-.002-7.715 3.972-15.832 8.742-8.218 4.77-17.036 9.738-19.64 11.028-8.315 3.97-8.82 5.168-8.078 20.97.273 7.502.947 14.404 1.444 15.406.993 1.904 4.783 4.518 15.063 10.155 10.578 5.94 8.786 3.733-2.39-2.808-14.37-8.353-15.559-11.258-7.138-16.827 4.611-3.183 22.25-13.718 22.85-13.716.2 0 2.304-1.192 4.71-2.783 2.406-1.491 5.212-3.18 6.315-3.877 1.102-.596 10.723-6.36 21.346-12.722 10.624-6.36 20.845-12.223 22.748-13.016 7.611-3.072 13.705-1.35 31.967 9.117 2.196 1.208 7.185 4.026 10.978 6.14 3.892 2.114 8.681 4.932 10.677 6.24 2.095 1.307 3.991 2.314 4.191 2.315s3.693 1.913 7.784 4.328c3.992 2.415 9.979 5.937 13.272 7.749 4.99 2.818 43.71 24.76 58.18 33.013 5.588 3.221 7.077 6.226 4.764 9.718-.905 1.397-2.01 2.493-2.51 2.49-.5-.001-4.908 2.283-9.818 5.065-55.618 32.096-51.71 29.71-51.012 30.413.3.301 2.403-.591 4.608-2.083 2.205-1.392 4.21-2.585 4.61-2.583.3.001 1.802-.794 3.206-1.888 1.504-.995 5.012-3.082 7.717-4.572 2.806-1.49 10.221-5.663 16.535-9.34 6.313-3.676 15.232-8.844 19.842-11.427 5.612-3.28 8.42-5.47 8.826-7.068.304-1.299.429-7.998.255-14.999-.256-12.2-.354-12.701-2.747-14.51-6.981-5.226-6.683-4.825-4.778-6.218.903-.696 5.618-4.679 10.433-8.761l8.727-7.468 40.102-.353 40.101-.353-40.198-.448-40.2-.347-11.234 9.459c-11.135 9.459-11.135 9.459-14.328 7.547-3.891-2.314-46.003-26.469-53.488-30.596a670 670 0 0 1-11.775-6.943c-3.392-2.113-6.386-3.824-6.486-3.824-.2 0-9.28-5.234-20.258-11.574-18.06-10.667-27.045-14.8-31.247-14.515-.9-.003-3.001.49-4.803.982"/><path d="M279.857 162.11c-3.402.588-13.322 6.052-37.876 20.762-16.737 10.139-23.051 13.915-28.864 17.294-9.82 5.764-15.535 9.643-16.14 11.141-.809 2.197 1.085 3.904 9.468 8.635 9.181 5.134 9.68 5.335 8.785 4.032-.298-.501-2.892-2.21-5.786-3.721-11.279-5.942-13.169-8.649-7.958-11.63 1.504-.894 4.51-2.683 6.714-3.875 3.609-2.187 3.808-2.186 2.302-.391-1.004 1.196-1.814 3.693-1.821 5.693-.015 4.1-.516 4.398-3.808 2.086-1.296-.905-2.594-1.41-2.796-1.11-.702.697 10.972 7.74 12.672 7.746.8-.097.203-.699-1.194-1.504-3.893-2.114-4.285-4.216-1.174-7.104 2.709-2.49 2.511-3.091-.795-1.403-2.405 1.29-2.696-1.11-.388-3.402 4.516-4.383 17.508-2.136 17.489 3.164-.004 1.1-.504.998-2.4-.309-1.396-.805-3.494-1.412-4.795-1.217-1.8.293-1.402.595 2.194 1.808 5.393 1.82 6.085 4.022 2.372 7.509-3.01 2.789-2.112 3.392 1.397.905 3.008-2.09 3.237-10.188.347-12.799-2.591-2.41-8.587-3.631-12.19-2.645-1.602.494-2.903.69-2.902.49s7.518-4.873 16.838-10.439c9.22-5.566 17.439-10.536 18.24-11.033 26.359-15.803 30.466-17.788 36.866-17.765 4.8.018 5.698.421 47.612 24.175 10.478 5.938 21.655 12.28 24.948 14.091 3.294 1.812 9.381 5.235 13.473 7.55 4.091 2.315 10.678 5.939 14.47 8.053 3.892 2.114 8.682 4.932 10.677 6.239 2.096 1.308 3.992 2.315 4.392 2.316.4.002 3.294 1.612 6.487 3.624 7.982 4.83 7.975 6.73-.342 11.299-4.108 2.185-4.407 2.084-2.697-.81.704-1.098.912-3.197.52-5.498-1.275-6.605-8.965-9.433-16.977-6.163-4.006 1.686-5.217 4.481-4.237 10.085.59 2.902 1.386 3.805 4.381 5.116 2.197.908 5.295 1.32 7.896 1.029 2.401-.191 4.301-.284 4.301-.184-.001.3-21.247 12.822-29.564 17.392-13.928 7.749-19.742 11.327-18.843 11.63.6.203 7.112-3.173 14.428-7.447 7.415-4.272 21.045-12.223 30.264-17.489 9.22-5.366 17.24-10.637 17.743-11.635 1.912-3.393.119-5.1-11.458-11.442-8.284-4.53-33.732-18.724-63.37-35.432-31.237-17.615-30.837-17.414-37.923-21.24-3.593-1.913-7.086-3.926-7.784-4.528-1.894-1.507-9.09-2.433-13.194-1.648m120.852 67.944c.997.904 1.589 3.106 1.678 6.006-.016 4.3-.217 4.7-3.422 5.988-4.307 1.784-6.807 1.775-11-.24-3.293-1.613-4.482-4.617-2.378-5.91 1.604-.994 1.21-2.495-.493-1.901-1.802.693-1.897-.607-.189-2.901 2.613-3.59 12.115-4.156 15.804-1.042"/><path d="M394.2 232.33c.499.502 2.496 1.21 4.395 1.516 3.498.613 3.498.613.503-.898-3.394-1.612-6.392-2.023-4.897-.618M388.485 236.51c-.805 1.496-.809 2.396-.011 3.2.797.802 1.098.503 1.103-.997.009-2.4 2.914-3.79 6.01-2.778 2.497.81 2.59 3.01.284 4.501-1.704.994-1.704 1.094.097.8 2.801-.39 4.312-3.284 2.719-5.19-2.09-2.507-8.792-2.132-10.202.463M249.276 184.199c-9.32 5.665-17.039 10.637-17.04 11.137-.003.6 4.386 3.616 9.774 6.836 9.28 5.634 9.678 6.036 9.666 9.436-.014 3.6 1.473 7.305 2.873 7.31.5.002 6.787 3.425 14.072 7.552s13.373 7.549 13.473 7.55c.2 0 3.792 2.113 8.083 4.629 7.783 4.628 7.783 4.628 14.685 3.954 6.703-.576 7.102-.474 12.69 2.946 3.192 2.012 5.986 3.622 6.186 3.623.2 0 5.49 2.92 11.777 6.543 11.276 6.542 11.276 6.542 14.383 4.653 12.026-7.256 28.56-16.696 30.163-17.39 1.102-.496 1.504-.994.905-1.196-.799-.403-11.92 5.556-21.442 11.521-.802.497-4.209 2.285-7.615 4.072-6.012 3.178-6.012 3.178-10.202.463-2.295-1.409-4.39-2.616-4.69-2.617-.2-.001-2.596-1.31-5.19-2.92-2.694-1.51-7.883-4.528-11.576-6.542l-6.786-3.825 8.819-5.167 8.819-5.068-.372-7.802c-.085-4.2.028-7.7.428-7.698s1.898.707 3.394 1.612c2.695 1.61 2.995 1.511 7.504-1.072 7.216-4.174 6.522-5.876-5.253-12.62l-9.88-5.736-5.109 2.582c-6.011 3.078-6.822 6.075-2.33 8.291 10.88 5.54 10.68 5.24 10.349 13.938-.43 7.899-.43 7.899-7.645 12.272-5.914 3.579-8.717 4.568-15.42 5.544-8.305 1.17-8.305 1.17-16.488-3.56-4.49-2.617-11.576-6.643-15.667-8.858-4.092-2.215-10.58-5.84-14.47-8.153-6.686-3.925-6.985-4.326-7.27-8.227-.286-4.101-.286-4.101 9.235-9.666l9.42-5.666 14.398.753c14.297.752 14.297.752 21.482 5.079 3.99 2.414 7.285 3.926 7.287 3.526.002-.5-4.887-3.617-10.875-7.04-6.087-3.322-11.276-6.54-11.573-7.142-.597-.902 11.032-8.86 13.032-8.952.6.002 7.786 3.928 15.969 8.658 8.283 4.73 19.958 11.474 25.945 14.896 6.088 3.522 13.172 7.648 15.767 9.257 4.489 2.917 4.688 3.118 2.983 4.611-1.004.897-4.11 2.785-6.916 4.275l-5.21 2.781-6.587-3.624c-3.593-1.913-6.588-3.224-6.59-2.824-.003 1 11.474 7.142 13.274 7.148.9.004 5.008-2.081 9.217-4.566 9.922-5.964 10.129-7.763 1.347-12.895a185 185 0 0 1-7.783-4.529 11697 11697 0 0 0-40.114-23.547c-5.289-3.12-10.28-5.637-11.18-5.64-.8-.004-4.707 1.982-8.516 4.468s-7.216 4.474-7.516 4.473-5.39-2.72-11.278-6.042-10.978-6.04-11.278-6.041-8.117 4.67-17.538 10.236m22.224-6.619c17.066 9.463 16.966 9.462 17.555 12.364.393 2.002 1.688 3.307 4.084 4.515 1.996.908 3.593 1.914 3.592 2.214s-5.701.179-12.8-.247l-12.697-.747-9.42 5.666c-5.112 3.18-9.92 5.463-10.52 5.161-3.694-1.613-16.862-10.362-16.86-11.062.103-.7 30.174-19.89 32.076-20.382.1-.1 2.396 1.108 4.99 2.518m54.756 12.2c9.38 5.435 18.66 10.87 20.656 12.177 2.095 1.207 3.891 2.314 4.191 2.315.4.001 10.977 6.34 16.465 9.76 1.496.906 1.993 1.808 1.39 2.405-.702.698-5.094-1.418-12.18-5.544-6.185-3.723-13.07-7.748-15.366-8.957-30.737-17.412-35.626-20.43-35.619-22.33.004-1.1.405-1.299 1.802-.494.898.504 9.38 5.335 18.661 10.669m-21.466-9.378c-.004 1.1-12.935 9.653-14.535 9.647-.3-.001-.498-.702-.495-1.402.005-1.3 12.335-9.555 14.335-9.548.4.002.698.603.695 1.303m40.29 29.948c2.393 2.209-.906 1.997-5.198-.32-2.595-1.409-6.586-3.723-8.882-5.032-2.395-1.209-4.289-2.915-4.286-3.615.003-.9 3.098.31 8.787 3.332 4.79 2.617 9.082 5.133 9.58 5.635m-19.368-8.471c-.004 1-5.816 4.279-7.316 4.273-1.6-.106 4.418-4.984 6.118-4.978.6.003 1.2.305 1.198.705m3.785 4.014c.198.7-.305 1.299-1.105 1.296s-2.002.692-2.705 1.49c-1.607 1.894-.107 1.9 2.4.009 2.106-1.593 4.607-1.984 4.603-.784-.002.5-1.306 1.496-2.809 2.39-2.706 1.49-3.106 1.489-6.699-.324-3.793-2.014-3.793-2.014-.886-3.904 3.108-2.088 6.508-2.176 7.201-.173m5.682 4.92c-3.51 2.688-5.313 3.481-6.009 2.479-.695-1.303 3.415-4.088 6.015-4.078 2 .107 2 .107-.006 1.6m3.999.415c.696 1.103-5.116 4.282-6.714 3.776-.6-.203.405-1.399 2.31-2.592 4.008-2.485 3.608-2.387 4.404-1.184m3.888 3.115c-.905 1.396-6.114 3.877-6.811 3.175-1.196-1.205-.592-2.203 2.113-3.693 2.805-1.39 5.704-1.079 4.698.518M109.991 179.788c-4.51 2.884-8.72 5.668-9.222 6.166-1.606 1.594-.05 13.5 1.848 14.207.898.303 3.892 2.014 6.586 3.724 13.369 8.55 11.37 8.342 21.491 2.48 5.01-2.783 9.32-5.467 9.522-5.966 1.207-1.796 1.541-11.294.444-11.898-.599-.503 1.207-1.996 4.514-3.884 3.006-1.789 5.813-3.679 6.216-4.277.401-.499-1.3.095-3.706 1.486s-6.513 3.676-9.119 5.167c-4.81 2.582-6.816 4.475-5.016 4.481.5.002 1.502-.694 2.205-1.491 2.511-2.991 4.006-1.686 3.987 3.514-.01 2.7-.318 4.999-.618 4.998s-4.193-2.015-8.684-4.532c-4.39-2.516-8.183-4.43-8.384-4.23-.402.498 11.472 7.741 12.572 7.745.5.002 1.497.706 2.194 1.609 1.493 1.805 1.995 1.207-8.126 7.07-3.007 1.789-6.212 3.177-7.012 3.174-2-.007-17.166-9.163-17.262-10.463.003-.6 3.01-2.69 6.718-4.876 3.708-2.086 6.515-3.976 6.316-4.177-.499-.501-11.52 5.458-12.225 6.656-.402.498-1.203.895-2.003.892-.9-.003-1.394-1.705-1.681-5.106-.09-2.8-.08-5.4.22-5.8.905-1.196 16.238-10.04 17.438-10.035.3 0 .69 2.402.88 5.203l.281 5.301.22-5.3.22-5.398 6.586 3.624c3.593 2.013 6.288 3.223 5.89 2.621-.695-1.202-12.87-8.047-14.07-7.951-.5-.002-4.61 2.383-9.22 5.266M522.779 183.901c-.003.7.296 1.001.697.703.302-.4.304-1 .006-1.4-.4-.302-.7-.003-.703.697M527.78 183.42c0 .3.199.5.499.501s.5-.198.502-.498c0-.3-.198-.5-.498-.502-.3 0-.501.198-.502.498M529.78 183.427c0 .3.199.5.499.501s.5-.198.502-.498c0-.3-.198-.5-.498-.501s-.501.198-.502.498M531.78 183.434c0 .3.199.5.499.502.3 0 .5-.198.502-.498 0-.3-.198-.501-.498-.502s-.501.198-.502.498M535.08 183.646c.399.302.999.304 1.4.005.301-.399.003-.7-.697-.702s-1.002.296-.703.697M568.08 183.767c23.399.386 30.897.713 31.194 1.714.198.601.503 26.302.691 56.903l.396 55.802-32.7-.02c-18.1.034-33.902.376-35.304.87-1.502.495 6.397.724 19.998.474 12.401-.254 28.502-.395 35.802-.369l13.2.049.1-27.5.101-27.4 12.802-.353 12.7-.253-12.699-.247-12.799-.247-.078-6c-.088-3.3-.276-6.501-.374-7.002-.098-.6-.258-11.4-.312-24l-.016-23.001-31.7.084-31.801.183zM525.777 184.412c-.001.3.198.5.498.502.3 0 .501-.198.502-.498s-.198-.501-.498-.502-.5.198-.502.498M214.98 210.373c-.701.297-1.306 1.595-1.31 2.895-.01 2.4 1.584 4.206 2.788 3.01.301-.298.004-1-.794-1.502-2.295-1.409.715-4.198 4.414-3.784 2.199.208 3.196 1.011 3.79 2.814.59 2.302.69 2.302.501-.499-.19-2.8-.489-3.001-4.188-3.215-2.2-.108-4.6-.017-5.201.281"/><path d="M218.864 214.787c-.007 1.9.19 2.701.494 1.702.203-.9.209-2.5.012-3.5-.296-.9-.5-.102-.506 1.798M218.927 224.788c-.01 3 .184 4.3.39 2.701.206-1.5.214-3.9.02-5.5-.194-1.5-.399-.201-.41 2.799M222.632 223.501c-.002.5 2.392 2.109 5.287 3.62 5.19 2.619 10.579 5.738 22.653 12.783 3.592 2.113 8.083 4.63 9.979 5.736 1.896 1.107 6.586 3.724 10.379 5.838s6.587 3.325 6.19 2.723c-.398-.701-2.892-2.41-5.587-3.72-2.695-1.41-10.778-5.94-17.863-10.066s-14.47-8.353-16.266-9.36c-1.796-1.106-5.887-3.421-8.981-5.133-3.193-1.811-5.79-2.92-5.791-2.42M361.618 227.51c2.092 2.108 18.96 11.07 18.963 10.17.002-.5-4.588-3.217-10.277-6.238-5.59-2.92-9.483-4.734-8.686-3.931M225.605 230.812c1.396 1.105 3.392 2.313 4.39 2.616 1.099.404 4.792 2.418 8.184 4.43 5.288 3.32 10.976 6.54 36.324 20.934 2.495 1.409 8.88 5.232 14.269 8.452 5.488 3.22 9.979 5.837 10.179 5.837.2.001 4.89 2.718 10.477 6.139 5.488 3.32 10.578 5.938 11.28 5.641.6-.198-.795-1.403-3.19-2.612-2.396-1.308-13.473-7.55-24.45-13.99-11.077-6.34-21.854-12.58-24.049-13.888-2.196-1.208-13.173-7.448-24.25-13.889-20.057-11.473-24.05-13.488-19.164-9.67M629.562 243.293l-.044 12 41.5.152 41.5.152.043-12 .044-12-41.5-.152-41.499-.152zm81.002-.303-.04 10.6-39.499-.145-39.5-.145.037-10 .036-9.9 6.301-.277c3.401-.187 21.202-.322 39.502-.455l33.202-.278z"/><path d="M646.68 238.455c-1.705 1.394-1.907 1.894-.807 1.898 1.2.004 1.695 1.206 1.883 4.706.375 6.602 2.18 5.609 2.604-1.29.425-6.698-.47-7.902-3.68-5.314M662.383 237.513c-1.904 1.093-2.514 3.89-.814 3.897.6.002 1.003-.696 1.006-1.496s.905-1.497 2.005-1.493c2.4.009 2.59 2.51.286 3.801-1.403.895-1.403.995.494 1.602 1.199.404 2.195 1.408 2.192 2.208-.008 2.2-3.11 2.989-4.504 1.084-1.492-2.106-2.492-2.21-2.499-.21-.003.8.893 1.904 2.09 2.508 3.494 1.913 9.313-3.366 6.02-5.378-.498-.302-.694-1.602-.39-2.801.406-1.399.01-2.6-1.187-3.405-2.194-1.608-2.493-1.709-4.699-.317M673.58 238.454c-2.006 1.593-2.207 1.992-.707 1.998 1.4.005 1.696.906 1.684 4.406-.01 2.5.482 4.802.98 5.103.6.403 1.008-1.996 1.024-6.396.015-3.9-.074-7.1-.174-7.1-.2-.001-1.403.894-2.807 1.99M682.18 238.686c-.905 1.196-1.614 3.494-1.62 4.994-.009 2.7 2.976 6.81 4.876 6.818 4.1.015 5.94-10.979 2.248-12.992-2.795-1.51-3.796-1.314-5.505 1.18m4.882 4.718c-.018 4.9-1.723 6.393-3.511 3.087-1.59-2.906-.27-8.201 1.828-7.794 1.3.205 1.695 1.407 1.683 4.707M634.572 240.711c-.011 3 .187 3.3 2.49 2.81 2.801-.49 4.491 2.216 2.584 4.109-.903.896-1.603.894-3.1-.112-2.594-1.61-3.094-1.51-2.4.292.89 2.403 4.289 2.915 6.496.923 3.21-2.888 1.827-7.393-2.273-7.408-2.9-.01-2.09-2.808 1.012-3.296 2.201-.292 2.002-.393-.997-.604-3.7-.113-3.8-.014-3.812 3.286M654.558 244.384c-.002.5.897 1.004 1.997 1.008s2.001-.493 2.003-.993c.002-.6-.896-1.003-1.996-1.007s-2.002.392-2.004.992M218.677 238.387c.084 4.5.28 5.3.888 3.303.81-2.697.628-7.698-.368-8.701-.299-.301-.608 2.097-.52 5.398M222.596 233.201c0 .3 2.793 2.01 6.286 3.923 3.393 1.913 8.183 4.63 10.678 6.04 6.686 3.724 41.313 23.85 58.176 33.813 8.083 4.73 16.565 9.66 18.96 10.87 4.492 2.416 12.49 3.145 14.396 1.252.703-.697 2.6-.09 6.193 2.023 2.894 1.71 5.388 3.12 5.588 3.12.2.001 2.995 1.511 6.188 3.423a904 904 0 0 0 13.672 7.55c7.386 3.827 8.386 4.031 13.488 3.45 6.702-.676 9.507-1.865 8.714-3.868-1.883-4.707-3.784-4.414 27.316-4.3 16 .058 29.101-.294 29.103-.694.001-.4-13.198-.648-29.299-.507l-29.201.293-2.486-3.71c-2.486-3.808-5.28-5.619-23.444-15.485-4.391-2.416-8.383-4.731-8.981-5.133-.499-.402-4.091-2.415-7.784-4.429-6.387-3.523-7.187-3.626-12.689-3.046-3.301.388-6.304 1.177-6.806 1.775-.503.598-.014 3.8 1.072 7.504 1.581 5.206 2.476 6.709 5.47 8.42 3.392 2.012 3.492 2.113 1.089 2.904-3.105 1.189-10.398-.638-14.887-3.755-3.89-2.614-18.957-11.57-19.457-11.571-.2 0-4.292-2.316-9.182-5.134-4.789-2.917-11.276-6.541-14.27-8.252a670 670 0 0 1-11.774-6.943c-3.392-2.113-6.386-3.824-6.586-3.825-.2 0-4.292-2.315-9.181-5.133-14.07-8.252-15.667-9.158-18.064-10.066-1.298-.505-2.297-.709-2.298-.509m112.365 37.112c1.193 1.905-.528 7.598-3.038 10.29-3.815 4.085-6.511 3.175-8.589-2.932-.99-2.804-1.78-5.507-1.777-6.207-.193-2 12.311-3.055 13.404-1.15m4.593 1.917c2.495 1.41 2.48 5.41-.135 9.5-2.515 4.09-6.221 5.777-8.615 4.068-1.695-1.306-1.595-1.406.41-2.498 2.704-1.39 5.222-6.081 5.235-9.581.01-2.8.31-2.9 3.105-1.489m7.386 3.827a740 740 0 0 0 8.482 4.931c18.563 10.168 18.662 10.369 17.546 14.765-.812 3.297-5.431 8.58-7.431 8.572-2-.007-25.555-12.393-30.043-15.81-.299-.2.504-.998 1.707-1.893 2.807-1.89 5.224-6.481 5.236-9.881.011-3 .512-3.098 4.503-.684m31.332 18.615c2.185 4.208-2.847 12.69-7.546 12.673-3.5-.013-3.596-1.314-.284-4.402 1.806-1.793 3.115-4.188 3.524-6.687.716-4.397 2.518-4.99 4.306-1.584m5.062 10.419c-.005 1.2-5.71 2.879-6.707 1.875-.399-.301.105-1.4.908-2.297.804-.997 1.81-2.693 2.214-3.791.707-1.898.807-1.897 2.098.507.795 1.403 1.39 3.005 1.487 3.706M386.142 248.2c-.201.4-2.406 1.792-4.81 2.983-2.405 1.291-5.01 2.682-5.812 3.179s-5.312 3.08-10.021 5.763-10.723 6.06-13.328 7.551c-2.706 1.49-4.611 2.983-4.312 3.284.299.302 2.001-.392 3.805-1.486a157 157 0 0 1 7.816-4.371c5.812-3.279 29.462-16.792 29.964-17.29.2-.2-.299-.401-1.199-.405-.9-.003-1.801.394-2.103.793M218.52 254.186c-.013 3.3.38 5.502.88 5.104 1.103-.596.934-9.097-.162-10.201-.399-.302-.707 1.897-.719 5.097"/><path d="M278.515 255.406c0 .3 7.882 4.93 31.233 18.515 4.29 2.416 7.984 4.23 8.285 4.03.402-.498-10.971-7.84-12.071-7.844-.2 0-3.793-2.014-7.884-4.529-4.19-2.515-7.883-4.529-8.083-4.53-.3 0-2.695-1.41-5.29-3.02-4.589-2.816-6.186-3.522-6.19-2.622M218.464 269.386c-.01 2.7.384 4.302.985 3.904.601-.298 1.01-2.396 1.017-4.596.008-2.1-.386-3.902-.986-3.904-.5-.002-1.007 2.096-1.016 4.596M162.165 268.78c-.507 1.998-.407 2.098.598.702.703-.897 2.107-1.892 3.208-2.188 1.601-.394 1.402-.495-.598-.602-2-.108-2.802.49-3.208 2.088M169.467 268.407c-.003.9 11.073 7.44 11.675 6.942.2-.299-2.393-2.008-5.686-4.02-3.292-2.012-5.988-3.322-5.99-2.922M161.722 280.578c-.017 4.7.176 6.601.385 4.202.208-2.3.222-6.1.031-8.5-.192-2.3-.399-.402-.416 4.298M218.417 282.186c-.012 3.3.38 5.602.98 5.604 1.3.005 1.135-9.796-.162-10.6-.399-.302-.807 1.996-.818 4.996M185.431 278.165c0 .2 2.294 1.609 4.99 3.019 6.188 3.122 6.49 2.623.602-.898-4.39-2.616-5.588-3.02-5.592-2.12M198.405 285.413c-.003.8 4.786 3.717 8.481 5.13 1.897.808-.895-1.402-4.686-3.716-2.096-1.308-3.793-1.914-3.795-1.414M467.199 287.498l-22.8.116-.045 12.2-.045 12.1 38.302-.46c21.002-.322 39.703-.554 41.502-.547 3.2.011 3.2.011 3.244-11.888l.043-11.8-18.7.031c-10.4.062-29 .094-41.501.248m58.157 11.913-.039 10.5-39.5-.145-39.5-.144.04-10.5.038-10.5 39.5.145 39.5.144z"/><path d="M452.277 293.343c-1 .197-2.005 1.393-2.31 2.592-1.114 4.096-.816 4.697 2.386 4.009 2.602-.49 3.001-.29 2.994 1.61-.009 2.5-2.614 3.891-4.308 2.185-.598-.602-1.596-1.106-2.096-1.108-.6.098-.103.9 1.093 1.904 2.892 2.41 6.094 1.623 6.906-1.474.71-2.798-1.08-5.404-3.68-5.414-1.1-.004-1.898-.707-1.895-1.507.004-1 1.006-1.496 3.106-1.489 1.7.007 2.801-.39 2.403-.99-.596-1.003-1.696-1.107-4.599-.318M461.972 294.779c-1.706 1.694-1.807 1.893-.307 1.899 1.3.005 1.697 1.006 1.684 4.506-.01 2.5.483 4.502.983 4.504.6.002 1.01-2.797 1.024-6.497.013-3.6-.276-6.5-.677-6.402-.5-.002-1.703.894-2.707 1.99M480.578 293.347c-.103.7-1.206 1.496-2.407 1.791-2.303.692-2.303.692-.006 1.6 1.997.808 2.195 1.508 1.684 4.406-.407 1.899-.213 3.6.285 4.002 1.597 1.005 1.801-.294 1.126-6.896-.288-3.301-.58-5.503-.682-4.903M487.372 294.772c-2.005 1.593-2.207 1.992-.707 1.997 1.4.006 1.697.907 1.684 4.507-.01 2.5.483 4.501.983 4.503.6.002 1.01-2.796 1.024-6.496.013-3.6-.076-6.5-.176-6.5-.2-.001-1.404.894-2.808 1.989M495.77 295.303c-2.413 3.59-1.234 9.295 2.163 10.108 3.397.912 5.405-1.18 5.42-5.48-.075-6.7-4.465-9.417-7.583-4.628m5.386 3.92c.385 4.201-1.323 6.295-3.516 4.387-2.492-2.11-1.167-9.105 1.632-8.594 1.099.204 1.694 1.606 1.884 4.207M510.36 298.256c-.017 4.5-.32 5.6-1.62 5.594-.9-.003-2.298-.808-2.994-1.81-1.194-1.605-1.295-1.505-1.402.494-.011 3.1 4.684 4.417 6.693 1.825 1.508-2.195 1.837-10.094.34-10.999-.598-.402-1.005 1.496-1.017 4.896M469.35 300.706c-.001.5 1.097 1.004 2.497 1.01 1.4.004 2.502-.492 2.503-.992.003-.6-1.096-1.004-2.496-1.009s-2.501.391-2.503.991M218.385 290.886c-.003.7-.807 1.797-1.71 2.594-1.604 1.294-1.504 1.294.6.102 2.706-1.59 3.914-3.786 2.214-3.792a1.11 1.11 0 0 0-1.104 1.096M209.78 292.255c1.097.804 2.394 1.508 2.994 1.51.5.002.103-.7-.994-1.503-.997-.804-2.295-1.409-2.895-1.41-.5-.003-.102.599.895 1.403M161.653 299.578c-.014 3.6.181 5 .388 3.202.206-1.7.217-4.7.024-6.5-.194-1.701-.4-.302-.412 3.298M267.23 305.865c-5.211 3.181-11.826 7.057-14.531 8.547-4.209 2.385-34.172 19.475-47.5 27.226-2.506 1.49-6.313 3.477-8.417 4.57-2.104 1.092-5.313 3.38-7.118 4.973-3.311 2.988-3.311 2.988-3.451 13.888-.357 15.398.24 16.5 10.517 22.638 4.69 2.718 8.581 5.032 8.781 5.033.2 0 5.888 3.321 12.674 7.346 6.685 4.125 14.268 8.552 16.763 9.962 5.09 2.818 28.44 16.404 56.88 33.008 10.676 6.34 21.554 12.48 24.15 13.789q10.181 4.988 20.101-.526c2.906-1.49 8.417-4.47 12.224-6.556 3.908-2.085 8.718-4.868 10.723-6.16 2.105-1.293 3.908-2.286 4.108-2.285s7.014-3.775 15.231-8.445c8.118-4.67 15.132-8.444 15.532-8.443s1.802-.793 3.106-1.888c1.304-.996 4.912-3.182 7.918-4.771 11.423-6.159 18.538-10.433 19.242-11.53.403-.698.818-4.697.833-8.997l.029-7.7 21.3.078c24.3.09 58.003-.787 58.705-1.485.301-.299-17.498-.464-39.499-.344l-40 .253-.286-4.001c-.469-8.602-.668-8.803-14.14-16.252-5.49-3.02-20.659-11.476-28.942-16.206-6.886-3.826-23.651-13.187-30.937-17.114-3.593-2.013-15.668-8.757-26.945-15.199-35.626-20.13-33.63-19.123-40.93-19.15-6.2-.022-7 .275-16.12 5.741m27.605-1.299c3.893 1.915 9.483 4.835 12.476 6.646 2.994 1.711 14.47 8.153 25.448 14.293a3320 3320 0 0 1 24.45 13.59c2.495 1.31 8.583 4.732 13.472 7.55 4.99 2.718 10.978 6.14 13.473 7.55 2.495 1.408 11.676 6.542 20.458 11.474s16.665 9.561 17.462 10.464c.996 1.004 1.584 4.406 1.755 12.107.362 10.601.362 10.601-2.431 8.59-2.494-1.708-19.758-11.572-37.323-21.136-2.994-1.711-7.984-4.43-10.978-6.04-2.994-1.711-8.583-4.732-12.475-6.846-3.792-2.114-8.682-4.932-10.677-6.24-2.095-1.307-3.992-2.314-4.292-2.315s-2.196-1.008-4.291-2.316c-1.995-1.307-6.585-4.024-10.178-5.937-3.593-2.013-13.772-7.75-22.654-12.683-8.782-5.032-17.865-9.666-20.063-10.274-5.594-1.52-11.4-.042-20.319 5.226-4.109 2.385-9.62 5.564-12.426 7.054-2.706 1.59-14.931 8.546-27.057 15.501-12.125 6.956-24.05 13.812-26.555 15.103-2.505 1.39-6.614 3.676-9.219 5.066l-4.81 2.683.036-9.9c.03-8.1.337-10.1 1.842-11.294 1.705-1.493 27.061-16.7 27.861-16.698.2.001 6.413-3.476 13.729-7.75 23.65-13.913 40.186-23.352 43.793-25.24 5.61-2.779 11.508-2.257 19.493 1.772m-2.777 21.19c2.096.908 9.481 5.035 16.466 9.06 7.086 4.027 12.974 7.348 13.174 7.35.2 0 3.792 2.013 7.883 4.528 4.19 2.515 7.883 4.529 8.083 4.53.2 0 3.893 2.014 8.084 4.53 4.09 2.514 7.683 4.528 7.883 4.528.2.001 2.795 1.41 5.689 3.121 2.894 1.71 7.883 4.629 11.276 6.441 53.992 29.599 54.59 30 52.171 35.292-.604 1.198-2.41 2.791-4.113 3.685-3.807 1.886-11.222 6.059-22.547 12.717-4.61 2.683-8.518 4.87-8.718 4.868-.2 0-4.91 2.682-10.522 5.962s-10.322 5.962-10.622 5.961c-.2 0-4.108 2.185-8.617 4.868-18.24 10.634-26.854 14.502-32.254 14.482-6.1-.022-5.201.381-40.526-20.148-15.068-8.756-29.438-17.008-31.933-18.418-2.495-1.409-4.89-2.817-5.488-3.22-.499-.401-10.078-6.037-21.155-12.377-11.076-6.44-21.654-12.68-23.45-13.786-1.796-1.107-5.388-3.12-7.983-4.53-8.384-4.43-8.668-8.831-.952-13.103 6.113-3.478 21.345-12.122 32.77-18.78 5.01-2.882 11.022-6.26 13.527-7.65s9.019-5.068 14.53-8.247c21.446-12.422 23.35-13.315 28.85-13.295 2.7-.09 6.497.724 8.494 1.631"/><path d="M283.62 336.125c.379 5.702.861 10.504 1.06 10.804.3.202.515-4.098.535-9.698.024-6.5-.362-10.301-1.06-10.804-.898-.503-1.007 1.997-.536 9.698M304.07 349.8c-3.012 2.99-6.723 6.076-8.226 6.87s-2.507 1.891-2.208 2.292c.198.501 5.985 3.922 12.672 7.647 6.786 3.825 13.872 7.75 15.768 8.858 8.681 4.932 27.243 15.5 35.426 20.03 4.89 2.818 9.98 5.736 11.276 6.641 1.796 1.207 2.995 1.311 5.698.52 2.903-.888 3.903-.685 7.495 1.428 2.295 1.409 4.392 2.317 4.693 2.018.501-.499-4.785-4.218-7.182-5.027-.5-.202 1.11-2.896 3.822-5.886 2.611-3.09 4.722-5.983 4.723-6.483.004-1.1-.494-1.401-24.646-14.79-11.376-6.342-27.444-15.3-35.727-19.931-8.183-4.63-15.668-8.758-16.567-9.06-1.098-.405-3.304 1.087-7.018 4.874m11.803-1.056c2.595 1.51 5.29 3.02 5.788 3.421.598.402 4.191 2.415 7.983 4.53 3.893 2.114 10.878 6.04 15.569 8.656 8.582 4.932 14.37 8.053 31.636 17.516 4.99 2.719 9.18 5.434 9.178 6.034-.007 1.7-10.146 12.463-11.646 12.458-3-.011-1.188-3.205 3.722-6.087 6.315-3.877 5.818-4.879-.695-1.302-4.81 2.682-4.81 2.682-8.702.468-2.095-1.308-4.092-2.015-4.393-1.816-.201.299 1.394 1.605 3.59 2.913 2.294 1.308 4.088 3.115 4.085 4.015-.009 2.3-1.708 2.194-5.5-.32-1.596-1.006-3.691-2.214-4.49-2.617-.798-.403-4.79-2.617-8.781-5.032-4.092-2.415-7.485-4.328-7.685-4.328-.2-.001-3.593-1.913-7.684-4.328-3.99-2.415-7.983-4.63-8.781-5.033s-3.294-1.812-5.49-3.02c-2.195-1.308-6.885-3.925-10.478-5.938-18.962-10.37-17.665-9.565-16.26-10.96.904-.897 2.402-.491 5.695 1.42 2.495 1.41 4.592 2.218 4.594 1.818.001-.4-1.594-1.606-3.49-2.713-1.897-1.007-3.493-2.113-3.492-2.313.003-.8 9.437-10.065 10.237-10.062.4.001 2.896 1.21 5.49 2.62"/><path d="M316.341 357.546c-3.606 1.686-4.713 3.482-3.825 6.886.393 1.801 5.282 4.919 20.75 13.476 11.178 6.14 21.459 11.478 22.957 11.884 1.699.406 4.2.015 7.205-1.374 4.007-1.685 4.61-2.383 4.619-4.983.012-3.5-1.683-4.806-16.753-12.861-4.79-2.618-11.976-6.644-16.067-9.06-8.382-5.03-13.878-6.15-18.886-3.968m20.776 6.676c30.738 17.013 30.438 16.811 29.426 20.208-.808 2.297-4.214 3.884-8.514 3.869-2.9-.011-12.683-4.847-32.94-16.321-9.68-5.536-11.476-6.842-11.468-8.942.012-3.2 5.723-6.18 10.02-5.264 1.698.307 7.688 3.228 13.476 6.45M266.137 358.662c-8.52 5.168-16.236 9.64-17.037 9.937-.801.397-3.306 1.788-5.511 3.18-6.115 3.878-7.017 4.374-12.026 7.056-2.605 1.29-4.21 2.585-3.61 2.787.998.303 55.214-31.198 55.217-32.098.004-1.1-2.2.092-17.033 9.138M288.164 351.142c3.392 2.313 6.986 3.926 6.989 3.126.002-.5-1.594-1.606-3.49-2.513-3.994-1.915-5.793-2.221-3.499-.613M271.634 359.282c-5.512 3.48-16.737 10.238-24.855 15.109-8.118 4.77-14.633 8.946-14.334 9.147.399.402 48.403-27.823 50.21-29.616 2.508-2.49-1.9-.307-11.02 5.36M260.293 370.54c-13.43 7.951-24.154 14.712-23.955 14.913.3.3 5.71-2.68 12.124-6.556 6.414-3.777 11.926-6.956 12.126-6.956.2.001 3.507-1.887 7.216-4.273 3.709-2.387 8.418-5.07 10.522-6.162 4.409-2.284 8.72-5.468 7.32-5.473-.5-.002-11.924 6.556-25.353 14.507M268.593 370.57c-10.423 6.262-20.545 12.325-22.45 13.418-1.803 1.094-3.107 2.19-2.908 2.49.498.402 40.283-22.653 44.395-25.838 1.103-.796 1.605-1.494 1.005-1.496-.5-.002-9.519 5.065-20.042 11.427M283.61 366.026c-2.206 1.592-4.31 2.884-4.711 2.982-.4-.001-3.206 1.589-6.213 3.478-3.107 1.888-7.717 4.771-10.323 6.262-8.919 5.067-11.324 6.658-11.327 7.358-.001.4 2.403-.69 5.41-2.48 2.905-1.69 11.424-6.758 18.94-11.13s13.63-8.25 13.732-8.75c.005-1.3-1.397-.705-5.508 2.28M277.284 373.202c-.603.698-3.51 2.588-6.616 4.176s-5.612 3.28-5.614 3.78c-.002.6 1.7-.094 3.805-1.286 10.624-6.461 12.629-7.854 11.129-7.86-.9-.003-2.102.593-2.704 1.19M274.464 378.592c-1.805 1.394-1.806 1.494.398.402 1.202-.596 2.205-1.292 2.206-1.492.003-.8-.498-.602-2.604 1.09M193.056 380.594c1.397.805 25.085 4.192 29.385 4.208 4.5.016.303-.9-10.892-2.44-20.19-2.774-20.09-2.774-18.493-1.768M228.035 386.322c0 .2 2.094 1.608 4.789 3.118 8.182 4.73 23.45 13.686 29.138 17.007 2.993 1.81 8.382 4.83 11.975 6.843 3.593 1.914 8.882 4.933 11.775 6.644 2.894 1.71 5.489 3.12 5.689 3.12.3.002 3.893 2.015 8.083 4.53 4.091 2.515 7.684 4.528 7.984 4.53.2 0 3.792 2.013 7.983 4.529s8.084 4.43 8.584 4.331c.802-.297-11.97-7.944-26.94-16.099-2.895-1.61-8.084-4.53-25.648-14.394-7.884-4.429-37.82-21.838-38.917-22.642-1.397-1.006-4.493-2.017-4.495-1.517M411.973 403.496c-1.901.493-7.705 1.372-12.707 2.054-5.102.581-9.306 1.466-9.307 1.966s.997.703 2.298.408c1.2-.195 7.404-1.173 13.708-2.05 6.303-.877 11.907-1.956 12.509-2.454 1.104-1.096-1.597-1.006-6.5.076M368.422 417.537c-8.218 4.87-17.037 10.037-19.542 11.428-13.227 7.352-20.143 11.527-19.744 11.928.299.201 2.703-.89 5.409-2.48s7.115-4.174 9.82-5.664c9.82-5.364 38.08-21.66 40.085-22.953 1.304-.996 1.505-1.395.505-1.299-.8-.003-8.215 4.07-16.533 9.04M326.102 450.182c-.015 4.1.178 5.8.386 3.701.207-1.999.22-5.399.028-7.5-.193-2-.4-.301-.414 3.799M161.592 316.078c-.014 3.8.18 5.3.388 3.202.208-2 .22-5.2.026-7-.194-1.701-.4-.102-.414 3.798M161.533 332.078c-.013 3.8.181 5.3.389 3.201.207-1.999.219-5.199.025-7-.193-1.7-.4-.101-.414 3.799M161.473 348.578c-.013 3.6.182 5 .388 3.201.206-1.699.217-4.699.024-6.5-.194-1.7-.399-.301-.412 3.299M161.407 366.578c-.015 4.1.179 5.8.386 3.701.208-2 .22-5.399.028-7.5-.193-2-.399-.301-.414 3.799M507.031 387.845l-.044 12 41.3-.049 41.202-.149.343-11.799.343-11.699-41.6-.152-41.5-.152zm80.8-.004.263 10.3-40.1-.146-40-.147.037-10 .037-10 18.3-.133c10.001-.163 27.902-.197 39.701-.154l21.5.079z"/><path d="M524.15 383.007c-1.706 1.394-1.908 1.893-.708 1.898s1.597 1.006 1.584 4.506c-.02 5.2 1.478 6.005 2.395 1.208.51-2.598.032-8.6-.666-9.302-.1-.1-1.302.595-2.606 1.69M551.05 383.006c-2.006 1.593-2.208 1.992-.708 1.997 1.4.006 1.697.907 1.684 4.507-.01 2.5.483 4.501.983 4.503.6.002 1.01-2.796 1.024-6.496.013-3.6-.076-6.5-.176-6.5-.2-.001-1.404.894-2.808 1.989M560.05 383.039c-2.006 1.593-2.208 1.992-.708 1.997 1.4.006 1.697.907 1.684 4.507-.01 2.5.483 4.501.983 4.503.6.002 1.01-2.796 1.024-6.496.013-3.6-.076-6.5-.176-6.5-.2-.002-1.404.894-2.808 1.989M569.84 385.375c-2.523 6.39-3.031 8.689-2.031 8.692.5.002 1.203-.895 1.507-1.994.305-1.299 1.408-1.995 3.008-1.989 1.7.006 2.797.71 3.192 2.012.89 2.803 2.791 2.51 2.001-.293-1.48-5.205-4.06-10.715-4.96-10.718-.5-.002-1.807 1.893-2.716 4.29m4.194 1.915c-.002.5-.703.798-1.503.795-1.5-.006-1.992-2.108-.788-3.303.703-.698 2.296 1.108 2.29 2.508M512.04 385.263c-.01 3 .189 3.3 2.49 2.81 2.802-.49 4.493 2.216 2.586 4.109-.904.896-1.703.793-3.2-.112-2.295-1.508-3.897-.814-2.203.892 1.494 1.505 6.397.723 7.705-1.372 1.509-2.394-.382-5.101-3.78-5.514-3.499-.413-2.89-2.51 1.012-3.296 2.702-.59 2.703-.69-.797-.803-3.7-.114-3.8-.014-3.812 3.286M540.04 385.766c-3.52 5.187-3.52 5.187-.12 5.2 2.1.007 3.098.51 3.095 1.51-.003.8.494 1.502.994 1.504.6.002 1.003-.696 1.006-1.496s.505-1.498 1.205-1.496c.9.004.901-.296.005-1.2-.698-.702-1.19-2.704-1.184-4.504.016-4.4-1.885-4.207-5.002.482m2.995 1.21c-.004 1.1-.708 1.998-1.508 1.995-1.3-.005-1.398-.405-.492-2.002.604-1.098 1.307-1.995 1.507-1.994.3 0 .497.902.493 2.002M532.028 388.936c-.002.5.896 1.004 1.996 1.008s2.002-.493 2.004-.993c.002-.6-.897-1.003-1.997-1.007s-2.001.392-2.003.992M161.345 383.578c-.013 3.6.181 5 .388 3.201.206-1.7.217-4.7.024-6.5-.194-1.7-.4-.301-.412 3.299M161.273 403.077c-.014 3.8.18 5.301.389 3.202.207-2 .219-5.2.025-7-.194-1.7-.4-.101-.414 3.798M161.207 421.077c-.012 3.3.184 4.501.39 2.702s.217-4.5.022-6c-.194-1.5-.4-.002-.412 3.298M157.97 431.466c-1.814 3.493-2.122 5.892-2.165 17.592-.044 11.8-.352 14.099-2.165 17.692-2.72 5.29-1.63 8.194 3.963 9.915 3.996 1.214 3.996 1.214 4.35 13.816l.254 12.6.246-12.599c.246-12.699.246-12.699 3.449-13.287 6.905-1.375 8.723-6.368 4.344-12.184-2.388-3.109-2.485-4.01-2.443-15.61.028-7.4-.353-12.8-1.05-13.503-.498-.502-1.79-2.507-2.684-4.31-2.383-4.709-3.783-4.714-6.1-.122m4.5-.184c1.99 2.707 1.688 3.306-1.612 3.294-2.8-.01-2.9-.11-1.791-2.506 1.31-2.996 1.71-2.994 3.403-.788m3.379 5.812c.697.803 1.094 1.505.894 1.504-4.602.583-9.902.563-9.9.063.01-3 6.815-4.175 9.006-1.567m-.913 3.497c3.492 2.013 2.187 3.508-3.113 3.489-5.4-.02-6.793-1.825-2.687-3.51 3.004-1.19 3.504-1.187 5.8.021m-.719 4.998c4.494 1.716 3.187 3.611-2.413 3.59-6.4-.023-6.491-2.323-.283-4.5.1-.1 1.299.304 2.696.91m.682 5.002c.998.604 1.894 1.807 1.89 2.807-.005 1.4-1.006 1.696-5.006 1.682-5.5-.02-6.495-1.424-2.786-3.91 2.607-1.891 3.307-1.888 5.902-.579m.28 5.601c.898.303 1.594 1.406 1.591 2.306-.004 1.2-1.006 1.596-4.506 1.584-5.1-.12-6.297-.824-4.489-3.017 1.306-1.495 4.608-1.983 7.404-.873m1.874 7.107c1.493 1.706 1.193 1.804-4.807 1.782s-6.3-.123-4.794-1.717c2.109-2.292 7.509-2.273 9.6-.065m-.213 3.5c4.795 1.417 5.984 4.221 2.973 7.21-3.01 2.99-12.11 2.956-15.1-.055-2.59-2.61-1.68-5.206 2.426-6.991 3.906-1.686 4.906-1.682 9.7-.165"/><path d="M161.832 468.78c-.105 1.4-1.006 1.796-3.706 1.786-2.1-.007-3.302.388-2.904.99.298.5 1.897 1.007 3.497 1.013 1.5.005 3.097.611 3.295 1.212q.594 1.502.6.002c.103-.7 1.504-1.195 3.604-1.187 1.9.007 3.502-.487 3.504-.987.002-.6-1.496-1.006-3.396-1.013-2.4-.008-3.598-.513-3.894-1.814-.394-1.601-.494-1.602-.6-.002M479.739 467.645c-.002.6-3.116 4.389-7.031 8.474-3.816 4.186-7.03 8.075-7.033 8.775-.002.7.688 3.502 1.577 6.306 5.73 19.12 10.549 41.338 13.371 62.549 3.018 22.411 2.724 75.21-.485 104.999-4.655 42.383-11.481 76.858-23.232 117.916-6.28 21.977-18.518 59.432-24.071 73.912-1.817 4.693-4.846 12.482-6.663 17.276-2.928 7.589-3.732 8.686-5.43 8.28a316 316 0 0 1-8.991-2.633c-14.484-4.353-22.38-5.482-38.48-5.541-8.5-.032-17.302.536-19.504 1.128-4.005 1.185-4.005 1.185.697.803 2.6-.19 4.6.017 4.298.415-.905 1.397-13.015 4.153-17.014 3.738-3.999-.315-3.999-.315 1.907-1.793 3.302-.688 5.406-1.58 4.806-1.782-1.698-.507-42.34 11.145-53.156 15.305-9.814 3.864-26.446 12.603-36.772 19.465-7.618 5.072-9.43 8.466-9.362 16.966.068 8.8.76 10.703 3.665 9.614 1.202-.496 2.205-1.492 2.208-2.192.003-.8 1.212-3.196 2.62-5.29 2.211-3.193 2.313-3.592.507-1.999-1.104.996-2.613 3.39-3.32 5.188-.706 1.897-1.512 3.394-2.012 3.393-3.3-.012-3.547-14.413-.33-19.202 1.71-2.493 2.41-2.79 7.71-2.771 5.6.02 9.697 1.035 26.776 6.798 3.995 1.314 7.492 2.227 7.793 1.928s-4.792-2.117-11.284-4.241c-14.284-4.452-13.785-4.25-12.178-6.245 1.205-1.295 1.005-1.396-.898-.403-1.203.696-4.805 1.182-8.005 1.17-5.8-.02-5.8-.02-3.292-2.011 7.822-5.972 21.136-9.723 24.525-6.91.898.703 1.797 1.006 2.198.607 1.305-1.295-.992-2.103-6.292-2.123-6.5-.023-5.797-.82 5.623-6.18 16.829-7.937 40.954-14.85 54.357-15.7 7.802-.471 22.716-4.317 25.525-6.606 3.21-2.589 33.495 1.422 49.376 6.58 5.693 1.821 6.691 2.425 6.385 4.224-.105 1.2-.909 2.297-1.71 2.494-.8.297-2.904 1.09-4.607 1.883-1.903.893-4.004 1.185-5.002.782-2.197-1.008-3.897-.815-13.305 1.15-4.103.886-7.006 1.775-6.407 1.977s3.701-.286 6.904-1.174c3.303-.788 7.306-1.474 9.005-1.367 2.2.008.797.803-5.51 2.98-10.113 3.462-21.23 8.022-20.732 8.524.2.2 3.604-.987 7.51-2.673 8.613-3.668 11.214-3.759 5.401-.28-2.405 1.391-4.11 2.685-3.811 2.986.2.2 2.503-.891 5.11-2.481 3.006-1.89 4.21-3.085 3.412-3.488-.799-.303-.598-.502.601-.398 1.1.004 3.102-.288 4.503-.783 1.402-.395-1.707 1.994-6.82 5.375-5.112 3.381-12.333 9.155-16.047 12.841-5.018 5.082-7.926 7.171-11.23 8.159-2.502.69-4.005 1.485-3.306 1.688.7.202 2.1.008 3.202-.588 1.103-.596 2.704-1.09 3.604-1.087s4.912-3.282 8.827-7.268c8.733-8.868 16.955-15.038 18.45-13.532.598.602 4.002-.686 9.713-3.665 8.617-4.468 9.117-4.666 19.92-5.127 8.2-.37 11.402-.858 12.607-2.054 7.326-7.173 16.144-12.14 16.133-9.04-.002.7.598.702 1.9.006 2.805-1.39 5.605-1.279 7.099.426.597.803 1.483 4.606 1.97 8.308l.874 6.803-.275-6.701c-.263-10.101-1.56-11.206-13.062-10.548-4.901.382-10.304 1.062-12.006 1.656-2.703.89-2.603.99 1.498.505l4.502-.483-5.518 4.98c-5.418 4.88-5.618 4.98-12.218 4.955-6.4-.023-6.6-.124-5.992-2.322.304-1.199 1.01-2.496 1.51-2.794.502-.399.004-1-1.195-1.405-2.697-.81-2.696-.91 1.036-9.596 6.658-15.776 8.273-19.87 14.027-34.849 7.776-20.572 20.11-57.327 24.772-74.01 2.027-7.392 4.356-15.384 5.065-17.881 3.846-12.386 11.671-46.558 14.735-63.847 8.167-45.67 11.467-100.158 8.504-137.57-1.24-16.604-5.92-49.321-7.311-51.526-.298-.602-.989-3.104-1.48-5.806-1.47-8.005-4.136-17.215-5.036-17.219a.896.896 0 0 0-.903.897m-55.512 412.4c-.001.3-.202.499-.502.498s-.5-.202-.498-.502c0-.3.202-.5.502-.498.3 0 .499.201.498.501M182.254 490.255c-1.414 3.695-.442 11.398 1.458 11.405.6.003.504-.998-.192-2.1-.695-1.303-.886-4.004-.476-6.502.616-4.498.32-5.599-.79-2.803M186.957 489.372c-.7.198-1.304 1.195-1.308 2.095-.004 1.2.296 1.302 1.199.405.703-.698 1.804-1.194 2.504-1.191 2.2.008 1.49 2.705-1.216 4.396-3.508 2.287-3.217 4.588.483 4.601 1.7.007 3.002-.489 3.004-.989.002-.6-.996-1.003-2.196-1.008-2.3-.108-2.3-.108.007-1.9 2.608-2.19 2.92-5.589.623-6.497-.898-.304-1.597-.606-1.698-.507-.1 0-.8.297-1.402.595M194.136 495.199c-.016 4.2.277 6.1.98 5.403 1.204-1.195 1.13-7.996-.063-10.2q-.894-1.653-.917 4.797M118.596 505.922c-1.708 2.094-.818 4.997 1.78 5.306 2.3.309 2.895 1.61 1.29 2.705-.5.298-1.2.096-1.597-.506-.995-1.603-2.496-1.209-1.902.493.693 1.803 3.492 2.013 5.199.32.702-.698 1.21-2.596 1.215-4.296.018-4.9-3.373-7.213-5.985-4.022m3.99 2.614c-.003 1-.707 1.898-1.507 1.895-1.5-.006-2.088-3.108-.884-4.303 1.104-.996 2.4.308 2.391 2.408M126.496 506.05c-1.708 1.994-.118 4.8 2.98 5.212 1.8.306 1.998.607.994 1.803-.904 1.197-1.504 1.195-2.7.19-1.297-1.104-1.397-1.005-1.002.197.198.8 1.395 1.605 2.494 1.809 1.5.205 2.402-.591 3.31-2.788 2.421-5.691-2.36-10.809-6.076-6.422m5.093 1.92c-.007 1.9-2.011 2.892-3.207 1.688-1.494-1.506-.184-4.301 1.714-3.594.798.303 1.495 1.205 1.493 1.905M135.299 505.183c-.202.5-.51 2.698-.518 4.998-.213 3.4.184 4.3 1.882 4.807 3.995 1.315 5.105-1.481 4.036-9.785-.099-.4-1.198-.705-2.498-.71-1.4-.005-2.7.29-2.902.69m4.291 2.416c-.002.5-.703.897-1.503.894-1.5-.005-1.996-1.207-.892-2.303.803-.797 2.4.109 2.395 1.409m.486 3.802c.298.5.095 1.3-.506 1.598-1.503.894-4.299-.316-3.494-1.513.804-1.297 3.204-1.288 4-.085M143.797 505.714c-3.111 3.089-.339 10.599 3.666 9.314 3.103-.889 2.621-5.89-.577-6.303-2.399-.408-2.994-1.61-1.29-2.704.601-.398 1.8-.094 2.697.71 1.396 1.105 1.596 1.105 1.101-.196-.593-1.903-3.991-2.415-5.597-.82m4.279 5.816c-.003.8-.806 1.597-1.707 1.794-1.3.195-1.799-.307-1.793-1.807.005-1.5.507-1.998 1.806-1.793.9.203 1.697 1.006 1.694 1.806M152.299 505.245c-1.405 1.295-.61 2.498.795 1.303 1.204-.995 1.904-.993 2.7-.19.798.803.696 1.303-.506 1.798-2.103.793-2.209 2.392-.209 2.4.8.002 1.498.705 1.495 1.505-.007 1.8-3.608 1.987-4.3.184-.199-.6-.798-.903-1.2-.504-1.103 1.096 1.387 3.805 3.487 3.813 1 .003 2.202-.592 2.805-1.29 1.104-1.296 1.024-6.596-.17-8.5-.794-1.304-3.893-1.615-4.897-.519M165.195 506.193c-1.312 3.295-.626 7.297 1.37 8.405 1.097.604 2.497.809 3.098.411 3.608-2.187 2.438-10.391-1.562-10.406-1.3-.005-2.602.69-2.906 1.59m5.185 4.319c-.206 1.499-1.01 2.696-2.011 2.892-1.401.295-1.799-.406-1.789-3.106.007-1.8.314-3.7.715-3.998 1.205-1.295 3.394 1.613 3.085 4.212M173.59 507.523c-.009 2.5.29 2.801 2.492 2.31 2.101-.293 2.5.009 2.493 1.809-.006 1.8-.407 2.098-2.506 1.79-1.399-.305-2.5-.209-2.5.191-.005 1.2 2.792 2.01 4.394 1.416 3.304-1.187 2.823-6.39-.477-6.401-2.7-.01-2.39-2.81.413-3.299 1.6-.294 1.301-.495-.998-.604-3-.11-3.301.188-3.31 2.788M182.299 505.355c-.402.299-.705 1.298-.709 2.198-.004 1.1.297 1 1.402-.495 1.206-1.596 1.706-1.694 2.802-.59s.894 1.703-1.112 3.296c-3.109 2.489-2.113 3.592 1.295 1.405 2.707-1.79 3.009-2.39 2.018-4.893-.594-1.602-4.492-2.216-5.696-.92M190.59 507.486c-.008 2.3.39 2.801 2.29 2.808 1.3-.095 2.199.508 2.195 1.408-.003 1-.905 1.397-3.004 1.29-2.8-.211-2.9-.112-1.005 1.295 2.194 1.708 3.395 1.413 4.903-.882 1.408-2.094-.38-5.301-2.782-4.91-.9.197-1.598-.406-1.596-1.206s1.206-1.595 2.807-1.89c2.502-.39 2.502-.39-.497-.601-3-.111-3.301.188-3.31 2.688M160.08 510.574c-.303.499.296 1 1.496 1.005s1.801-.493 1.503-.994c-.298-.601-.996-1.004-1.496-1.006-.5-.001-1.202.396-1.504.995M180.967 513.85c-.905 1.397 2.393 2.01 5.297 1.02 2.803-.89 2.803-.89-.995-1.404-2.1-.208-4-.014-4.302.384"/><path d="M432.734 878.076c-2.203.792-3.305 1.388-2.505 1.39s3.502-.587 6.005-1.278c2.503-.79 3.605-1.386 2.505-1.39s-3.802.586-6.005 1.278M451.529 879.545c-4.01 2.885-8.328 7.67-8.334 9.17-.003.899 16.966 9.261 17.569 8.664.2-.2-2.694-1.81-6.587-3.625-3.794-1.814-6.987-3.725-6.985-4.225.009-2.3 11.84-10.857 15.14-10.845 1.1.004 1.896 1.107 2.289 3.109.981 5.003.642 15.702-.46 16.198-.6.298-.501.398.2.3 1.5-.294 2.343-11.89 1.363-17.394-.391-2.402-1.088-3.204-2.688-3.21-3-.011-10.717 4.66-14.532 8.746-2.911 2.99-3.312 3.188-3.306 1.388.005-1.2 1.513-3.294 3.618-4.886 6.72-5.176 7.923-6.171 7.323-6.274-.3 0-2.404 1.292-4.61 2.884M389.218 882.516c-7.409 2.273-15.217 4.544-17.22 5.137-3.003.89-4.802.782-9.297-.734-3.096-1.011-5.894-1.622-6.095-1.322-.301.299.697.802 2.096 1.107 5.695 1.421 13.582 4.85 13.279 5.75-.202.598-4.31 2.783-9.218 4.865-8.013 3.571-9.514 3.865-14.512 3.347-10.696-1.24-29.07-8.106-29.06-10.906.002-.8 1.008-2.197 2.21-2.992 1.605-1.194 1.806-1.594.706-1.598-1.8-.006-4.911 3.082-4.917 4.782-.005 1.4 9.377 6.235 16.768 8.662 2.796 1.01 5.193 1.919 5.192 2.219 0 .2-4.009 2.385-8.918 4.867-9.817 4.764-16.135 9.641-16.145 12.341-.004 1.1.597.702 1.905-1.293 2.412-3.491 5.32-5.48 16.84-11.038 8.916-4.368 14.22-5.448 17.213-3.537 1.098.704.695 1.302-1.51 2.694-8.018 5.07-17.547 12.836-19.96 16.327-3.015 4.29-4.545 12.284-2.649 13.39 1.995 1.308 1.191 2.405-2.41 2.992-8.307 1.57-13.038 10.152-12.283 22.355.379 5.801 2.449 14.009 2.562 10.41.107-1.9 1.406-1.496 11.688 3.342 5.29 2.52 9.784 4.436 10.084 4.237.402-.498-8.381-4.93-16.669-8.361-5.492-2.32-5.492-2.32-6.372-7.623-1.173-7.405.758-15.898 4.371-19.484 1.506-1.595 4.913-3.383 7.515-4.073 4.605-1.183 4.705-1.183 10.99 2.84 6.984 4.426 31.54 16.516 32.142 15.818.301-.199-1.994-1.607-4.989-3.018l-5.59-2.72 2.117-4.693c1.11-2.696 4.234-9.184 6.954-14.574 2.82-5.39 5.037-10.182 5.04-10.682.001-.6-1.198-.904-2.698-.91-2.3.092-2.4.191-.602.598 2.498.509 2.294 1.608-1.227 7.295-1.911 3.193-5.137 10.082-9.07 19.367l-1.614 3.694-9.88-5.336c-6.688-3.524-9.88-5.836-9.776-6.836.203-.799 6.82-5.175 14.836-9.645 8.017-4.571 13.93-8.25 13.33-8.252-.7-.002-4.206 1.785-7.714 3.972-3.609 2.187-9.22 5.266-12.526 6.954-3.306 1.588-6.915 3.975-8.12 5.17-1.505 1.595-2.306 1.892-3.103 1.09-.797-.804 3.013-3.59 14.538-10.348 8.618-4.968 15.434-9.343 15.235-9.544-.2-.2-7.213 3.674-15.631 8.543-8.319 4.97-16.034 9.041-17.034 9.038-4.8-.018-4.77-8.218.055-14.8 2.814-3.99 13.746-12.55 22.565-17.718 5.512-3.28 19.534-9.428 29.547-12.892 3.605-1.186 5.709-2.279 4.709-2.282-1-.104-3.403.587-5.406 1.38-4.106 1.685-8.907 1.967-9.801.464-.796-1.203 1.407-2.095 18.225-6.933 12.013-3.356 16.619-5.04 13.718-4.95-.5.098-7.006 1.874-14.414 4.047M417.53 879.22c.399.301.999.304 1.4.005.301-.399.002-.7-.698-.703-.7-.002-1 .297-.702.698"/><path d="M328.414 883.393c-6.706 1.476-4.208 2.085 2.697.71 5.604-1.08 10.804-.86 21.098.578 2.299.408 1.7.006-1.497-.806-5.794-1.621-16.093-1.859-22.298-.482M469.37 895.41c-.214 4-.015 4.4 3.08 5.711 7.19 2.927 42.649 14.057 43.25 13.459.402-.399-16.078-5.859-29.264-9.707-3.995-1.215-9.189-3.034-11.685-4.043-3.993-1.815-4.491-2.417-4.879-5.818-.386-3.802-.386-3.802-.501.398M364.641 903.226c-14.026 7.249-18.737 10.232-24.256 15.311-5.618 5.08-10.846 12.56-9.75 13.665 1.296 1.205 40.075-20.453 46.596-26.03 2.91-2.589 6.52-5.576 7.925-6.77 2.508-2.191 2.508-2.191-.499-.402-1.603.894-3.91 2.585-5.013 3.581-4.014 3.786-12.135 9.556-17.546 12.536-3.006 1.589-10.321 5.662-16.233 8.94-5.912 3.279-11.423 6.159-12.224 6.456-3.605 1.387-1.091-2.304 6.736-9.776 7.226-6.973 10.033-8.863 22.756-15.316 15.73-7.843 16.03-8.042 13.93-7.95-.8-.002-6.31 2.578-12.422 5.755M277.343 902.706c-2.405 1.391-4.11 2.685-3.91 2.886.397.501 9.716-4.464 9.718-5.164.003-.8-1.5-.206-5.808 2.278M517.397 915.586c.4.302 1 .304 1.4.005.302-.399.003-.7-.697-.702s-1.001.296-.703.697M520.195 916.296c.398.402 31.661 10.517 35.358 11.43 1.898.407 1.898.407.203-.7-.998-.703-7.79-2.928-14.982-5.054-7.292-2.127-14.484-4.353-15.982-4.959-2.796-1.11-5.394-1.52-4.597-.717M296.185 918.475c.996 1.004 14.08 5.752 14.48 5.354.302-.3-2.593-1.71-6.288-3.124-6.291-2.423-9.288-3.234-8.192-2.23M262.28 919.751c-.902.597.197.9 2.997.911 7.6.028 14.679 5.854 20.937 17.077 1.69 3.006 3.281 5.212 3.482 4.913.302-.3-1.088-3.204-3.076-6.412-3.877-6.414-9.554-12.535-13.546-14.75-3.493-1.812-9.19-2.733-10.794-1.739M313.077 920.637c0 .3.198.501.498.502s.501-.198.502-.498-.198-.5-.498-.502c-.3 0-.5.198-.502.498M313.366 923.638c-.803.898.194 1.801 4.286 3.816 2.995 1.511 5.392 2.22 5.394 1.72s-1.096-1.204-2.494-1.61c-1.399-.304-3.294-1.611-4.29-2.915-1.293-1.705-1.992-1.907-2.896-1.01M558.35 928.736c.398.302.998.304 1.4.006.3-.4.002-.7-.698-.703s-1.001.296-.703.697M554.743 930.423c1.59 2.806-.12 5.7-5.033 8.882-4.61 2.883-10.126 7.263-7.722 6.072.802-.398 4.11-2.585 7.218-4.774 5.814-3.979 5.814-3.979 9.308-2.266 1.897.907 3.493 2.013 3.491 2.413-.002.5-1.907 1.993-4.313 3.484-2.305 1.492-5.514 3.88-7.219 5.274l-3.01 2.589 3.007-1.79c1.703-.893 5.313-3.48 8.22-5.57 4.513-3.283 5.514-3.68 7.31-2.672 1.198.604 2.397.908 2.698.61.301-.2-2.493-1.81-6.087-3.523-5.99-2.722-6.588-3.224-6.08-5.422.406-1.599.11-2.8-1.086-3.804-1.595-1.306-1.696-1.206-.702.497"/><path d="M570.03 933.98c23.556 11.986 41.801 27.053 41.775 34.253-.004 1-.702.597-2.196-1.108-2.39-2.91-16.555-12.461-17.257-11.664-.301.2 1.693 1.706 4.288 3.216 7.384 4.227 11.273 7.441 13.36 10.949.994 1.704 1.89 2.507 1.893 1.807.01-2.6 1.704-.994 2.79 2.71 1.878 6.107 1.46 11.006-1.458 15.795-2.113 3.692-3.016 4.389-5.215 4.08-2.499-.308-2.697-.71-2.979-5.71-.283-4.701.122-6 2.836-9.79 1.809-2.393 3.017-4.589 2.818-4.89-.3-.2-2.007 1.993-3.818 4.887-1.81 2.793-4.322 6.084-5.426 7.18-1.204 1.095-1.706 1.693-1.205 1.195 1.805-1.293 2.403-.79 2.99 2.811.687 3.503 2.876 6.51 4.776 6.518.6.002 2.606-1.59 4.413-3.584 1.907-1.893 3.412-3.088 3.41-2.588-.007 2-6.133 8.978-11.85 13.557-3.41 2.688-6.218 5.077-6.22 5.277-.003 1 7.118-4.674 12.738-10.153 4.617-4.583 6.226-6.977 6.534-9.376.313-3.299.313-3.299 3.305-1.088s2.991 2.21-.098-.8c-2.59-2.41-3.185-3.912-3.569-8.414-.955-12.303-9.514-23.335-27.371-35.1-9.278-6.134-25.646-14.894-27.846-14.902-.5-.002 3.392 2.212 8.582 4.931M259.538 931.141c-2.605 1.49-3.309 2.488-4.626 7.083-.912 3.497-.715 4.298 1.968 8.808 1.79 2.906 3.077 6.31 3.07 8.21-.02 5.7 6.413 23.725 8.413 23.732.3.001-.592-2.202-1.882-4.807-3.475-7.013-5.838-16.922-5.218-22.52.522-5.897 3.035-9.388 8.646-12.568 4.209-2.284 4.209-2.284 6.7.025 2.89 2.71 3.184 4.412.39 2.901-3.394-1.812-2.199-.408 1.891 2.307 2.095 1.408 5.98 5.722 8.565 9.632 2.486 3.909 4.874 7.118 5.074 7.118.9.004-1.983-4.607-8.648-14.131-6.666-9.325-11.35-13.742-17.142-15.863-3.495-1.413-4.695-1.318-7.2.073m8.495 1.431c2.197.908 3.992 2.215 3.99 3.015-.003.7-1.81 2.293-4.013 3.385a13.4 13.4 0 0 0-6.022 5.978c-1.108 2.196-2.315 3.992-2.615 3.99-1-.003-3.374-7.012-3.363-10.012.012-3.3 3.83-7.986 6.43-7.976.9.003 3.397.712 5.593 1.62M251.024 935.01c-.003.8.691 2.403 1.487 3.505 1.792 2.407 1.898.707.01-2.6q-1.341-2.405-1.497-.905"/><path d="M570.593 943.981c.499.402 4.091 2.515 7.884 4.63 3.892 2.114 7.484 4.127 7.983 4.529 1.297.904 4.493 2.016 4.494 1.616.002-.6-6.883-4.725-13.97-8.351-6.687-3.425-8.085-3.93-6.39-2.424M289.99 944.553c-.004.9 7.348 14.027 8.842 15.832 1.294 1.605 9.378 5.835 10.979 5.74.3-.098-1.895-1.406-4.99-3.018-5.09-2.618-5.986-3.622-9.76-10.935-3.673-7.114-5.066-9.22-5.072-7.62M527.96 953.025c-12.127 7.356-14.834 9.246-9.023 6.367 8.716-4.368 23.65-13.913 20.849-13.324-.2 0-5.512 3.18-11.826 6.957M543.858 953.683c-1.306 1.496-1.206 1.496.898.404 2.305-1.192 2.808-2.09 1.308-2.095-.5-.002-1.503.694-2.206 1.691M273.65 955.293c-1.002.596-2.011 2.993-2.219 5.192-.414 3.698-.414 3.798.397.801 1.318-4.895 3.024-6.489 6.021-5.778 6.394 1.624 12.458 11.446 11.83 19.144-.732 8.797-10.42 5.662-15.381-5.056-1.29-2.805-2.385-4.21-2.389-3.11-.01 2.7 5.76 10.922 9.053 12.934 3.592 2.113 6.192 2.023 8.401-.37 1.406-1.594 1.711-2.993 1.228-7.495-.676-6.602-3.558-11.613-8.445-15.03-4.09-2.816-5.989-3.123-8.496-1.232M531.231 960.837c-5.612 3.28-13.928 7.85-18.337 10.133-4.408 2.284-7.816 4.371-7.617 4.672.3.201 6.01-2.578 12.823-6.353 6.814-3.675 13.928-7.549 15.832-8.542 3.707-1.986 8.92-5.667 8.021-5.77-.3-.002-5.11 2.68-10.722 5.86M369.44 958.144c1.096 1.204 19.469 8.572 20.07 8.074.201-.2-3.792-2.114-8.884-4.233-12.88-5.347-12.281-5.045-11.186-3.84"/><path d="M509.622 963.258c-5.712 3.48-5.915 4.278-.204 1.1 5.812-3.18 6.213-3.478 4.913-3.483-.5-.002-2.604 1.09-4.709 2.383M293.123 962.765c.198.5 2.084 4.307 4.168 8.615 3.176 6.512 3.769 8.514 3.255 12.212-.209 2.5-.115 4.2.386 3.901.501-.298.909-2.396.917-4.696l.016-4.2 3.786 3.814c3.686 3.813 3.686 3.813 1.179 5.704-3.811 2.986-11.123 6.16-15.225 6.644-5.202.781-11.69-2.743-17.865-9.565-2.788-3.21-4.682-4.818-4.086-3.715 1.986 3.707 9.46 10.734 13.554 12.65 2.296 1.008 5.593 1.92 7.293 1.926 3.6.013 14.317-4.647 18.23-8.033 2.507-1.99 2.507-1.99-2.675-7.01-3.089-3.011-6.571-7.824-8.656-11.932-1.886-3.907-3.775-7.014-4.075-7.015s-.4.299-.202.7M390.909 966.723c-.001.3 2.395 1.309 5.292 2.22 7.89 2.628 7.89 2.728 5.054 12.418-1.317 4.595-2.335 9.691-2.342 11.491.092 2.2.394 1.602 1.008-2.196.51-2.898 1.83-7.993 2.942-11.29 1.212-3.395 1.924-6.692 1.627-7.393-.198-.701-2.893-2.11-5.79-3.021-2.896-1.011-5.892-2.022-6.49-2.324-.7-.203-1.3-.205-1.301.095"/><path d="M498.401 969.017c-2.204 1.192-8.314 3.87-13.521 5.85-5.208 2.081-8.914 3.768-8.314 3.77.7.103 4.705-1.283 8.81-2.868 8.312-3.27 19.633-8.828 18.033-8.834-.5-.002-2.803.89-5.008 2.082M313.887 972.54c-.107 1.8 5.257 11.72 7.55 13.928 4.384 4.117 2.481 4.91-4.107 1.685-4.292-2.115-7.29-2.726-4.097-.815 2.195 1.208 13.678 5.85 14.478 5.853.3-.098-.497-.701-1.894-1.506-1.397-.806-1.895-1.407-.995-1.404 2.1.008 6.89 2.825 4.99 2.918-.9-.003-.503.598.994 1.504 1.397.805 3.296 1.212 4.297.916 1-.297 1.6-.095 1.497.605-.202.7 2.89 2.61 6.684 4.425 3.894 1.714 12.778 6.146 19.964 9.873 7.087 3.726 13.076 6.548 13.277 6.449.1-.2-2.893-2.011-6.786-4.025-3.892-2.115-6.785-4.125-6.483-4.624s-.295-1.401-1.393-1.905c-2.495-1.41-3.395-1.413-2.5-.01.398.702.197 1.001-.503.799-.699-.303-1.196-.905-1.095-1.404.306-1.4-10.276-6.438-12.378-5.846-1.101.296-1.6.094-1.198-.504.301-.499-3.989-3.215-9.678-6.036-11.38-5.641-13.174-7.148-17.443-15.764-1.688-3.306-3.08-5.611-3.18-5.111m19.92 21.674c.799.503 1.097 1.004.497 1.002-.5-.002-1.698-.507-2.496-1.01-.798-.502-.997-1.003-.497-1.001.6.002 1.699.506 2.497 1.009m4.992 2.518c-.002.3-.202.5-.502.498-.3 0-.5-.202-.498-.502 0-.3.201-.499.501-.498s.5.202.499.502m1.996 1.007c-.001.3-.202.5-.502.499s-.5-.202-.498-.502c.001-.3.202-.5.502-.498.3 0 .499.201.498.501m1.996 1.008c0 .3-.202.5-.502.498-.3-.001-.499-.202-.498-.502s.202-.5.502-.498c.3.001.5.202.498.502m5.991 2.522c.798.503 1.096 1.004.496 1.002-.5-.002-1.698-.507-2.496-1.01-.798-.502-.996-1.003-.496-1.001.6.002 1.698.506 2.496 1.009m6.887 3.625c1.395 1.205-1.9.093-3.496-1.213-1.795-1.406-1.795-1.406.601-.298 1.398.606 2.696 1.31 2.895 1.511m5.788 3.121a1.2 1.2 0 0 1-1.4-.005c-.298-.401.003-.7.703-.697.7.002.999.303.697.702M407.884 973.485c.798.503 1.997 1.008 2.497 1.01.6.002.301-.5-.497-1.002-.798-.503-1.896-1.007-2.496-1.01-.5-.001-.302.5.496 1.002M416.373 976.516c2.797 1.01 5.694 1.821 6.494 1.824s-.698-.802-3.494-1.813c-2.696-1.01-5.693-1.82-6.493-1.823s.797.802 3.493 1.812M496.365 978.81c-3.306 1.587-5.31 2.88-4.51 2.883s4.004-1.285 7.01-2.874c7.014-3.675 5.314-3.68-2.5-.01M357.727 988.901c11.78 5.744 21.563 10.38 21.763 10.18.402-.498-41.224-20.85-42.324-20.755-.4-.001 8.783 4.732 20.561 10.575M427.76 980.058c1.797.807 4.095 1.515 4.995 1.418.9.004.003-.7-1.895-1.407-4.693-1.817-7.393-1.827-3.1-.01M469.46 980.21c-3.005 1.29-3.005 1.29.289 3.002 1.797.907 3.495 1.413 3.796 1.214.2-.3-.497-.802-1.596-1.206-2.897-.91-2.592-2.11.712-3.297 1.502-.595 2.004-.993 1.204-.996s-2.802.49-4.405 1.284M436.851 982.591c2.497.81 8.695 1.332 7.898.63-.2-.201-2.598-.61-5.397-.92-3.398-.413-4.199-.316-2.5.29M461.653 982.182c-.301.3-4.104.985-8.406 1.47l-7.903.87 7.501-.372c6.602-.276 15.309-2.244 10.91-2.36-.9-.103-1.801.093-2.102.392M485.349 983.27c-1.603.793-2.305 1.39-1.505 1.394.8.003 2.602-.59 4.005-1.386 3.206-1.788 1.506-1.794-2.5-.009M475.141 985.332c.1.1 7.785 4.128 17.168 8.963 22.457 11.582 31.537 17.115 34.223 20.925 1.193 1.805 2.19 2.708 2.192 2.108.015-4-13.354-12.549-43.797-28.06-3.194-1.612-4.89-3.018-4.288-3.416.702-.397-.397-.702-2.297-.708s-3.3.087-3.2.188M591.116 992.457c-3.508 2.187-6.116 4.278-5.817 4.479.2.3 1.1-.096 2.003-.793 2.006-1.593 2.106-1.392 2.885 4.21.682 5.003.782 4.903-5.436 9.88-2.909 2.39-.806 1.498 3.305-1.387 2.706-1.79 3.007-1.89 4.5-.284 1.595 1.606 1.494 1.906-1.816 4.694-1.907 1.693-2.61 2.59-1.508 1.994 4.61-2.383 6.818-4.875 6.93-7.875.105-1.6-.19-2.8-.592-2.502-.5.198-.805 1.397-.81 2.597-.006 1.8-.206 1.9-1.402.695-1.992-2.207-2.846-14.71-1.043-15.404 1.502-.494 1.7.107 2.876 6.41.295 1.402.3.202.11-2.499-.188-3.5.12-5.5 1.224-6.795 2.209-2.292 1.708-2.094-5.41 2.58M623.194 998.375c-.113 3.8-.931 8.696-1.84 10.893-2.017 4.892-2.022 6.092-.312 3.499 1.91-2.793 3.738-10.487 3.758-15.887.027-7.3-1.478-6.005-1.606 1.495M397.99 998.95c-.005 1.6.193 2.2.496 1.2.204-.898.209-2.298.011-2.999-.297-.601-.5.098-.506 1.798M576.483 1001.303c-3.708 2.287-6.515 4.276-6.316 4.477.398.502 12.524-6.554 13.228-7.751.805-1.297.605-1.198-6.912 3.274M382.384 1000.892c.997.804 2.294 1.508 2.794 1.51.6.002.103-.7-.994-1.503-.997-.804-2.295-1.509-2.795-1.51-.6-.003-.102.699.995 1.503M428.579 1002.261c1.7.206 4.7.217 6.5.024 1.7-.194.301-.399-3.299-.412s-5 .182-3.201.388"/><path d="M594.779 1002.67c-.002.3.198.501.498.502s.5-.198.502-.498c0-.3-.199-.5-.499-.502-.3 0-.5.198-.501.498M388.273 1003.714c2.294 1.608 5.49 2.82 5.492 2.22s-5.587-3.52-6.687-3.525c-.4-.001.098.6 1.195 1.305M419.567 1005.628l-3.312 3.088 4.01-2.785c2.206-1.592 4.211-2.885 4.412-3.084s-.1-.3-.7-.303c-.7-.002-2.604 1.39-4.41 3.084M441.672 1004.11c1.797.806 3.595 1.512 3.995 1.514 1.3-.095-4.49-2.917-5.89-2.922-.8-.003-.002.6 1.895 1.407M446.765 1006.128c-.001.3.198.5.498.502.3 0 .5-.198.502-.498.001-.3-.198-.501-.498-.502s-.501.198-.502.498M567.764 1006.571c-.001.3.198.501.498.502s.5-.198.502-.498c.001-.3-.198-.5-.498-.502-.3 0-.5.198-.502.498M448.762 1007.035c-.001.2 1.694 1.406 3.79 2.514 3.693 2.114 3.693 2.114.702-.397-2.792-2.31-4.489-3.117-4.492-2.117M557.746 1011.535c-5.11 2.581-9.916 4.363-12.116 4.355-2 .093-6.204.978-9.408 2.066-3.104 1.089-6.106 1.678-6.605 1.376s-.9-.004-.902.496c-.005 1.4.995 1.404 5.701-.279 6.709-2.275 11.71-2.657 14.303-.847 2.095 1.507 2.195 1.508 1.602-.394-.495-1.502.509-2.399 5.919-5.079 7.212-3.473 6.813-3.575 8.588 3.232.691 2.402.792 2.103.406-1.799-.289-2.9.02-5.5.623-6.198 1.507-1.794 1.807-1.893-8.111 3.07M366.75 1009.835c1.398.805 2.996 1.41 3.496 1.413.6.002-.098-.6-1.495-1.406s-2.895-1.41-3.495-1.413c-.5-.002.098.6 1.495 1.406M414.543 1012.11c-1.21 2.495-1.61 2.594-6.304.877-1.298-.405-1.2-.105.497.902 3.692 2.313 5.393 1.92 6.705-1.376 1.414-3.695.715-3.997-.898-.403M373.14 1012.858c1.097.804 2.394 1.509 2.994 1.511.5.002.103-.7-.994-1.504-.997-.803-2.295-1.408-2.895-1.41-.5-.002-.102.6.895 1.403M463.219 1018.688c3.885 4.115 7.072 7.626 7.27 7.927.1.2.4.201.7.003.503-.499-7.565-9.328-11.952-12.944-1.695-1.307.197.9 3.982 5.014M574.428 1016.296c-3.708 2.286-6.615 4.276-6.416 4.476.498.502 12.524-6.554 13.328-7.75.705-1.198.905-1.297-6.912 3.274M427.035 1014.256c.9.203 2.5.209 3.5.012.901-.296.102-.5-1.798-.506s-2.701.19-1.702.494M377.732 1014.875c0 .3.199.5.499.502.3 0 .5-.198.501-.498s-.198-.501-.498-.502-.5.198-.502.498M419.623 1017.429c-2.509 2.49-2.913 3.689-2.93 8.289.09 2.9.776 6.603 1.57 8.306.794 1.603 1.092 2.104.796 1.003-.396-1.102-.883-4.704-1.17-8.105-.38-5.701-.178-6.2 2.833-9.19 1.707-1.793 2.912-3.189 2.512-3.19-.4-.002-2.005 1.292-3.61 2.887M434.031 1015.281c2.398.61 2.095 1.508-1.514 3.795-4.811 3.082-8.832 8.667-9.348 13.066-.514 3.898-.514 3.898.602-.498 1.218-4.896 8.146-12.57 12.45-13.655 2.502-.59 9.894 1.637 7.691 2.429-.7.197.995 1.503 3.69 2.913 6.987 3.426 14.156 11.852 19.518 22.472 2.481 5.009 4.468 8.616 4.47 7.916.005-1.3-6.545-14.824-8.138-16.83-.697-.702-.695-1.202-.095-1.2s3.786 3.814 7.268 8.527c3.483 4.712 6.47 8.523 6.67 8.524.6.002-7.557-11.828-8.655-12.532-2.195-1.408-.791-2.403 2.807-1.99 3.299.413 3.2.312-.997-.803-3.197-.812-6.589-2.924-10.875-6.74-9.968-8.837-22.24-16.382-26.142-15.996-.7.098-.4.299.598.602M614.818 1019.344c-2.408 2.091-4.215 4.085-3.917 4.386.2.3 2.406-1.592 4.815-3.983 5.42-5.48 5.021-5.781-.898-.403M379.728 1015.982c-.002.7 5.191 2.52 5.693 2.021.2-.2-.997-.803-2.595-1.41-1.698-.606-3.097-.91-3.098-.61M585.225 1017.135c-.301.5-.103 1 .397 1.002.6.002 1.102-.496 1.103-.996.003-.6-.196-1-.396-1.001-.3-.002-.801.397-1.104.995M377.722 1017.775c-.003.7 9.279 5.734 9.78 5.236.202-.3-1.894-1.607-4.688-3.017-2.795-1.51-5.092-2.42-5.092-2.22M579.913 1020.516c-4.612 3.283-5.316 4.28-1.407 1.995 1.903-.993 3.809-2.486 4.411-3.184 1.507-1.694.806-1.397-3.004 1.189M565.907 1022.065c-.005 1.4.193 1.9.496 1.202.202-.6.206-1.8.009-2.5-.298-.602-.5-.102-.505 1.298M518.206 1022.39c-4.004.885-5.005 1.282-3.005 1.389 1.7.006 5.302-.58 8.004-1.27 6.207-1.778 3.107-1.79-5-.12M550.9 1024.01c-.007 1.9.19 2.7.494 1.702.203-.9.209-2.5.013-3.5-.297-.902-.5-.102-.507 1.798M388.7 1023.815c-.002.5 12.77 7.947 14.469 8.453.599.203-2.094-1.707-5.985-4.222-6.484-4.223-8.48-5.23-8.484-4.23M505.693 1025.844c-2.71 2.69-2.523 6.19.464 9.802 4.082 4.915 7.38 5.727 17.484 4.464 13.606-1.75 27.027-7.401 27.042-11.401.002-.5-.9.197-2.106 1.592-2.512 3.291-18.13 8.234-28.434 9.196-6.302.477-7.301.373-10.493-1.838-6.085-4.223-6.465-9.624-.854-12.504 1.803-.993 2.004-1.292.704-1.297-1-.004-2.703.89-3.807 1.986M568.187 1027.673c-3.307 1.888-9.519 5.065-13.826 7.05-4.208 1.984-7.514 3.772-7.215 4.073.598.602 25.343-11.707 26.65-13.402 1.506-1.795 1.305-1.696-5.61 2.28M604.183 1028.805c-4.315 3.984-4.516 4.184-.906 1.497 3.81-2.786 7.223-6.074 6.323-6.077-.2 0-2.608 2.09-5.417 4.58M473.674 1031.027c1.192 2.004 2.685 4.01 3.184 4.411 1.397.806-2.28-5.508-3.975-7.014-.797-.603-.402.598.79 2.603M404.667 1032.874c-.002.3.896 1.003 1.994 1.607s1.997.807 1.997.607c.002-.3-.896-1.003-1.994-1.607s-1.997-.807-1.997-.607M594.655 1036.27c-3.511 3.087-3.511 3.087-.303.9 1.804-1.094 3.51-2.488 3.811-2.987 1.006-1.596.204-1.1-3.508 2.087"/><path d="M437.653 1036.595c-1.104 1.096-2.009 2.492-2.011 3.092-.003.7.9.004 2.005-1.392 1.206-1.596 3.31-2.688 5.31-2.98l3.202-.39-3.2-.11c-2.099-.109-4.001.485-5.306 1.78M409.656 1035.892c-.002.3.896 1.003 1.994 1.607s1.997.808 1.997.608c.002-.3-.896-1.004-1.994-1.608s-1.997-.807-1.997-.607M450.045 1038.74c2.094 1.808 5.08 5.319 6.672 7.825 1.59 2.506 2.885 4.11 2.887 3.51.01-2.8-9.848-14.336-12.447-14.445-.5-.002.795 1.402 2.888 3.11M422.651 1037.04c0 .3.199.5.499.502.3 0 .5-.199.501-.499s-.198-.5-.498-.501-.5.198-.502.498M476.847 1038.238c-1.104 1.296-1.005 1.497.695 1.503q2.1.008 1.505-1.495c-.693-1.802-.593-1.802-2.2-.008M420.04 1039.93c.195 1.5 1.088 3.504 1.985 4.408 1.694 1.606 1.794 1.606 1.103-.796-.395-1.402-1.388-3.406-2.084-4.408-1.194-1.805-1.294-1.705-1.003.796M415.84 1040.115c.996 1.003 1.994 1.607 2.195 1.308.301-.299-.496-1.102-1.693-1.806-2.095-1.308-2.096-1.208-.502.498M537.135 1041.66c-5.207 1.88-10.21 2.662-19.511 3.128l-12.503.754 10.2.137c11.399.242 18.403-.932 25.815-4.305 6.41-2.876 4.91-2.782-4 .285M588.539 1040.848c-1.306 1.595-1.207 1.695.398.401.903-.696 1.706-1.494 1.706-1.694.003-.8-.799-.302-2.104 1.293M482.638 1040.76c1.399.405 3.597.813 4.997.818 2.2.008 2.2-.092-.497-.802-1.598-.406-3.897-.814-4.997-.818-1.6-.006-1.5.194.497.802M434.824 1044.584c-.007 1.9.19 2.701.494 1.702.203-.899.209-2.499.012-3.5-.296-.9-.5-.102-.506 1.798M495.129 1043.305c6.793 1.825 10.294 1.738 4-.085-2.697-.71-5.895-1.322-6.995-1.326-1.1.096.298.702 2.995 1.411M582.325 1044.625c-2.005 1.393-3.71 2.786-3.712 3.086-.002.7 5.91-2.878 7.216-4.373 1.607-1.794.706-1.498-3.504 1.287M423.713 1047.544c-.003.8.391 2.401.887 3.503.495 1.302.895 1.403.898.503.003-.8-.391-2.401-.887-3.503-.495-1.302-.895-1.403-.898-.503M572.6 1051.09c-2.505 1.59-4.21 2.984-3.71 2.986 1 .004 8.718-4.868 8.72-5.468.003-.7.003-.7-5.01 2.481M481.604 1050.056c-.006 1.6 1.987 3.707 3.487 3.713.5.002.201-.5-.696-1.103-2.994-1.71-2.09-3.108 1.509-2.494 2.398.508 2.698.41 1.2-.296-2.894-1.41-5.494-1.32-5.5.18M435.603 1050.287c-.01 2.9 5.355 12.32 8.743 15.432l3.688 3.414-3.187-3.512c-1.693-1.906-4.477-6.416-6.164-10.022-1.686-3.607-3.078-5.912-3.08-5.312M492.496 1052.196c1.898.707 3.694 1.813 3.89 2.614.297.901-.103 1.1-1.102.696-.899-.303-3.297-.812-5.396-1.12-3.198-.511-2.998-.41 1.197.905 6.193 1.822 6.493 1.824 6.5.124.007-1.9-3.884-4.615-6.484-4.524-1.3-.005-.902.496 1.395 1.305M459.99 1053.677c1.871 8.007 1.764 9.906-.45 13.598-1.207 2.096-1.51 3.195-.709 2.598 3.712-3.087 4.648-12.883 1.663-17.194-.795-1.203-.896-.904-.503.998M425.59 1053.75c-.006 1.6 4.165 9.716 5.56 10.921.997.804.205-1.3-1.583-4.606-3.676-6.613-3.974-7.114-3.977-6.314M479.577 1057.549c2.284 4.308 5.57 8.22 6.97 8.225 1.7.006 1.09 2.604-1.12 5.396-1.206 1.496-1.91 2.893-1.712 3.094.2.3 1.505-1.295 2.914-3.59 2.112-3.492 2.714-3.89 5.412-3.38 6.795 1.425 10.695 1.44 4.5.017-3.597-.813-7.494-1.728-8.793-2.032-1.199-.305-3.789-2.914-5.778-6.022-4.276-6.415-5.174-7.119-2.393-1.708M564.584 1055.56c-1.402.795-2.005 1.393-1.405 1.495.5.002 1.903-.693 3.005-1.489 2.407-1.791 1.607-1.894-1.6-.006M472.167 1060.221c.39 2.702.774 7.003.665 9.503-.115 4.1-.015 4.2.794 1.503.811-2.897-.348-14.102-1.643-15.406-.299-.301-.206 1.599.184 4.4M555.77 1059.728c-2.906 1.39-5.11 2.681-4.911 2.882.398.501 10.716-4.36 10.718-5.06s.303-.8-5.808 2.178M540.648 1065.572c-4.105 1.385-11.912 3.057-17.514 3.736-8.004 1.07-9.005 1.367-5.006 1.482 2.8.11 7.702-.372 11.004-.96 5.604-.98 20.42-5.625 20.424-6.425.002-.6-.999-.404-8.908 2.167M432.541 1067.076c0 .3.199.5.499.502.3.001.5-.198.501-.498s-.198-.5-.498-.502c-.3-.001-.5.198-.502.498M435.527 1071.087c1.295 1.405 2.59 2.51 2.79 2.51.3.002-.495-1.101-1.79-2.506s-2.591-2.51-2.791-2.51c-.3-.002.496 1.101 1.79 2.506M450.53 1070.142c1.397.805 3.395 1.413 4.495 1.417s.202-.6-1.995-1.408c-4.993-1.818-5.693-1.82-2.5-.009M504.534 1069.24c0 .2 1.798.607 3.997.815 2.2.208 4 .014 4.001-.386.002-.5-1.797-.806-3.997-.814s-4 .185-4.001.385M439.51 1075.602c-.002.5.497 1.002 1.097 1.004.5.002.701-.498.403-.999-.298-.6-.796-1.003-1.096-1.004-.2 0-.402.399-.404.999M480.407 1076.452c-1.306 1.595-1.206 1.695.399.401s2.108-2.092 1.308-2.095c-.2 0-1.003.796-1.707 1.694M442.501 1078.013c0 .2.797 1.003 1.794 1.706 1.495 1.306 1.596 1.206.302-.399s-2.093-2.107-2.096-1.307M472.991 1080.825c-2.706 1.59-4.61 2.883-4.21 2.884 1.3.005 8.514-3.869 9.218-4.966.805-1.297 1.005-1.296-5.008 2.082M447.887 1082.033c1.096.904 2.394 1.608 2.994 1.61 1.2.005.702-.497-2.393-1.908-2.396-1.109-2.396-1.109-.601.298M453.477 1084.653c.798.503 2.396 1.009 3.396 1.013 2.6.009 1.803-.594-1.894-1.407-2.199-.509-2.599-.41-1.502.394M462.977 1084.688c-1.302.595-1.503.894-.503.898.8.003 2.201-.392 3.003-.889 1.804-1.193.204-1.2-2.5-.01"/></svg>