<svg xmlns="http://www.w3.org/2000/svg" viewBox="0 0 992 1402" fill="currentColor"><path d="M203.6 243.8c-.8 1.3 12 6.4 15.1 6 2.2-.2 2.9-.9 3.1-3.1.2-1.5-.1-2.7-.7-2.7s-1.1.9-1.1 2c0 2.5-3.7 2.7-8 .5-4.9-2.5-7.9-3.5-8.4-2.7M302.7 244.6c-.8.8 6.8 6.4 8.5 6.4.7 0-.5-1.6-2.7-3.5-4.1-3.6-4.7-3.9-5.8-2.9M223 248.9c0 .5 1 1.3 2.2 1.7 1.3.4 5 1.9 8.3 3.4s7.1 3.1 8.5 3.5 5.2 2 8.5 3.5c3.3 1.4 8.7 3.7 12 4.9 6.5 2.5 13.6 5.3 20.2 8.2 2.4 1.1 4.9 1.9 5.6 1.9s1.7.4 2.3.9c.5.5 2.9 1.6 5.4 2.4s9.7 3.5 16 6c13 5.1 46.8 17.6 54.8 20.1 4.5 1.5 5.2 2.1 5.2 4.3 0 2 .4 2.4 1.9 2 4.1-1 8.1 9.4 4.9 12.7-3.2 3.1-38 24.4-54.1 33-10.7 5.8-40.5 20.6-46.7 23.4-13.7 6-33.4 12.5-50 16.5-5.8 1.4-13 3.1-16 3.9-7.2 1.7-33.5 1.7-41.5-.1-9.2-2-35.4-10.1-46.5-14.4-.3-.1-.7.2-.9.8-.4 1.3 23.4 9.5 38.7 13.3 6.5 1.7 16.2 3.5 21.7 4.1 9.8 1.2 16.4.6 31.7-2.6 2.7-.5 13.4 4.4 31.3 14.2 2.8 1.5 7.9 4.3 11.5 6.3 20.3 11.1 54.7 32.8 60.3 38.1 3 2.7 7 9.1 8.1 12.7.6 1.8 0 2.2-4.6 3.2-6.8 1.5-19.8 3.2-24.8 3.2-5.7 0-10.9 2.8-13.1 7.2-2.3 4.4-2.4 6.5-.5 10.9 2.1 5.1 5.3 8.6 10.4 11.6 4.4 2.6 5.2 2.7 15.9 2.5 19.4-.4 45-6.8 51.9-12.9 6.9-6.2 9.1-17.7 4.7-23.9-2.6-3.6-2.3-4.1 4.2-6.6 2.2-.9 7-3 10.7-4.7 3.6-1.7 7.1-3.1 7.6-3.1 1.8 0 3.4 10.7 3.3 22.1 0 6.1-.3 11.5-.7 12-.6 1-5.9 3.6-17.4 8.7-2.5 1-8.3 3.3-13 5-23.8 8.6-36.4 11.2-55.2 11.2-13 0-14.5-.2-31.5-4.6-9.8-2.6-19.6-5-21.8-5.5-4.1-.9-9.3-2.2-13.2-3.4-1.2-.4-2.5-1.7-2.9-2.8-1.1-3.5-10.5-18.8-14.9-24.2-14.9-18.7-26.5-28.7-41.8-36.4-20-10-32.2-11.5-46.4-5.5-3.4 1.4-11.3 8.1-11.3 9.5 0 1.9 2.2.8 5-2.5 6.1-6.8 19.3-10.1 31.2-7.6 21.4 4.5 44.2 20.7 61.6 43.8 8 10.6 15.1 22.7 13.9 23.8-.3.3-5.1-.6-10.8-2-10.2-2.6-10.2-2.6-19.8-12-13.9-13.7-29-24.5-43.1-30.7-5.9-2.6-9.2-3.4-15.5-3.7-7.7-.4-8.2-.3-13 3-5.2 3.5-9.8 10.5-9.3 14.3.5 3.3 2.2 1.9 3.1-2.4 1.7-8.6 10.7-14 21.2-12.7 6.2.7 12.5 2.5 12.5 3.4 0 .4-2.3 1.8-5.1 3.2-12.9 6.1-20.9 17.6-21.7 31.2-.3 4.3-.7 7.8-1.1 7.8-1 0-5.3-11.7-5.8-16.1-.4-2.4-1.1-3.9-1.9-3.9s-1.4.6-1.4 1.3c0 2.3 4.1 14.1 6.1 17.5 2.6 4.6 2.4 6-.6 3.2-1.8-1.7-2.8-2.1-3.6-1.3s.2 1.8 3.2 3.4c2.7 1.5 4.6 3.4 5.1 4.9 5.6 19.9 9.1 28.1 17.7 41 16.3 24.6 41.1 39.9 56.5 35 18-5.7 28-10.6 36.5-17.9 3-2.5 6.8-6.7 8.5-9.4 1.9-3.1 3.4-4.6 4.5-4.3 9.9 2.7 28.5 6.5 43.6 8.8 22.1 3.3 55.5-4.8 91.5-22 16.6-8 42-23.7 42-26 0-1.5.6-1.8-11 5.8-27.5 18.1-63.3 33.6-89 38.6-9.7 1.9-33.2 1.9-43 .1-39.8-7.6-43.8-9.2-49-19.1-7.6-14.6-12.3-21.9-21.2-33.4-2.8-3.5-4.8-6.6-4.5-6.8.4-.5 8.3 1.4 66.7 16.2 11.5 2.9 32.3 3.3 46 .9 9.3-1.6 25.1-6.1 33.5-9.5 1.1-.4 5.8-2.3 10.5-4.1 11.4-4.4 34.7-16.4 45.9-23.5.1-.2 0-.8-.4-1.4-.5-.8-1.2-.7-2.3.3-2.5 2-20.2 12-20.7 11.5-.2-.2-.1-2.9.2-5.9.5-5.4.7-5.7 4.7-7.6 8.5-4.1 12.6-6.7 11.8-7.5-.5-.5-4.2.9-8.3 3.1l-7.4 4.1-1.3-8.3c-.7-4.5-1.4-9.2-1.5-10.5-.2-2 1.8-3.3 15.2-10.3 8.4-4.4 18.3-9.8 21.9-11.9 3.6-2.2 7-3.6 7.4-3.2.5.5.7 5.1.6 10.2l-.3 9.3-8.5 5.3c-7.7 4.8-10.6 7.4-8.3 7.4.5 0 4.4-2.3 8.6-5 4.2-2.8 8.3-5 9-5s2.4 1.2 3.6 2.6c2.7 3.1 2.8 3-7.5 9.8-4.3 2.8-8 5.7-8.2 6.4-.4 1.3 9.7-4.5 17.2-9.9 2.3-1.7 7-4.9 10.6-7.3 13.7-8.9 19.5-13.3 24.2-17.8 5-4.8 9.8-13.5 9.8-17.6 0-2.1.1-2.2 2.4-.7 1.3.9 3.6 3.3 5 5.4 2.2 3.1 2.6 4.8 2.6 10.9 0 6.9-1.3 15.6-2.9 19.7-2.6 6.4-6.5 14.3-7.9 16-2.4 2.9-14.6 12.6-30.7 24.5-7.7 5.7-14.2 10.5-14.4 10.6-.2.2-.1.7.2 1.1 1.4 1.3 34.2-23.1 43.2-32.2 6-6 9.4-11.5 11.5-19 .6-2.2 1.6-5.4 2.1-7 .5-1.7 1.2-6.4 1.5-10.5.6-6.9.4-7.9-2.3-13-1.8-3.4-4.3-6.4-6.6-7.9-3.7-2.4-3.7-2.4-3.7-9.7 0-23.4-13.4-43.5-44-66-16-11.7-20.3-14.7-32.5-21.9-12.3-7.4-31.2-16.5-34.3-16.5-.9 0-3-1.1-4.6-2.5-1.7-1.4-3.6-2.3-4.3-2.1-.7.3-3.4-.3-6-1.3-5.2-2.1-9.6-3.7-27.3-10.1-15.5-5.6-37.1-13.9-39.2-15-1-.6-2.2-1-2.8-1s-2.9-.9-5.3-1.9c-2.3-1.1-7-3-10.4-4.2-3.5-1.3-6.3-2.7-6.3-3.1 0-.3 1.6-1.2 3.5-1.8 3-1 4.9-3 2.8-3-1.6 0-7.3 2.5-7.3 3.2 0 .4-.6.8-1.4.8-1.3 0-24.3-9-33.1-13-5.3-2.4-11.7-5-12.1-5-.2 0-.4.4-.4.9m168.7 67.3c35 17 72.2 45.2 84.2 63.8 4 6.1 5.1 10.3 3.2 11.5-.5.3-1.3-.4-1.6-1.6-1.6-5-10.2-11.4-51-37.6-13.5-8.7-27.3-16.9-30-17.9-1.1-.4-2.7-1.3-3.5-2s-3.9-2.4-6.8-3.9c-4.2-2.1-5.2-3-4.6-4.3 1.7-4.1 1.4-5.9-1.5-10-1.7-2.3-2.6-4.2-2.1-4.2.6 0 6.8 2.8 13.7 6.2m-6.3 14.1c3.3 1.8 6.1 3.6 6.3 4.2.1.5-4.3 4-10 7.6-37.6 24.4-93.6 52.6-121.2 60.8-2.2.7-4.9 1.6-6 2.1s-3.1 1.1-4.5 1.4-4.9 1.1-7.7 1.8c-5.2 1.2-5.4 1.1-12.8-2.7-4.1-2.1-7.4-4-7.2-4.2.2-.1 6.9-2.1 14.8-4.3 27.8-7.6 49.5-16.9 87.4-37.5 3.9-2.1 9.3-5 12-6.5 6.2-3.3 25.6-15.1 35-21.3 3.9-2.5 7.2-4.6 7.5-4.6s3.2 1.4 6.4 3.2m21.9 12.5c41.5 25.3 62.8 39.7 66.7 45.2 4 5.6 2.1 12.3-5.8 20.6-1.1 1.1-2.7 3.5-3.6 5.3-.9 1.7-3.2 3.9-5.1 4.8s-3.5 2-3.5 2.5c0 .4-.5.8-1 .8-.6 0-4.5 2.3-8.7 5.2-4.2 2.8-7.8 4.7-8 4.2-1.3-3.6-2.1-3.7-6.1-.5-2.3 1.7-4.2 4.1-4.4 5.3-.2 1.6-2.7 3.5-9.3 7-9.8 5.1-11.5 5.6-11.5 3.2 0-.9-.5-1.4-1.2-1.1-4.9 2.1-6.8 3.6-8.1 6.2-1.6 3.4-3.9 4.7-28.1 15.4-4.1 1.9-8.6 3.1-11.1 3.1-2.3 0-8 .9-12.6 2.1s-10.3 2.2-12.7 2.2c-4.2.2-4.4 0-5.7-3.6-2.1-6.2-8.3-12.5-18.4-19.1-15.4-10-25.1-16.1-32.1-20.1-3.6-2.1-8.1-4.7-10-5.8s-8.7-4.9-15-8.3c-6.6-3.7-10.8-6.5-10-6.8s4.9-1.4 9-2.6c11.9-3.4 21.5-6.9 35.5-12.8 12.2-5.2 48.6-23.1 58.5-28.8 2.5-1.4 8.6-4.9 13.5-7.7 11.2-6.4 22.2-13.1 30-18.5 3.3-2.2 6.4-4.1 6.8-4.1.4-.1 5.8 3 12 6.7m77.3 57.9c3 15.2 1.3 22.5-6.9 31-7.5 7.8-12.7 5.1-12.7-6.5 0-7.5 1.7-11.9 6.9-17.8 2.1-2.4 5.1-7 6.5-10.1 3.3-6.8 4.4-6.2 6.2 3.4m-22 25.4c.2 7.6 2.5 11.3 7.6 11.7 4 .3 7.5-2 11.9-8.1 2.2-3.1 2.9-3.5 2.9-2 0 2.2-3.6 7.9-7.2 11.7-3.7 3.8-21.5 16.9-28.4 20.9-.7.4-1-2.8-1-10.1.1-5.9-.3-13-.7-15.8-.8-5.1-.8-5.1 6-9.7 3.7-2.5 7.3-4.6 7.8-4.6.6-.1 1.1 2.6 1.1 6m-17.5 7.6c1.1 2.8 1.4 26.2.3 27.2-.3.3-1.7-.7-3-2.3-2.1-2.3-2.4-3.5-1.9-7 .3-2.2.2-7-.4-10.6-.9-6-.8-6.6 1.1-8.3 2.6-2.2 2.7-2.2 3.9 1m-10.1-.2c0 .2-1 .9-2.2 1.5-2.2 1.1-2.2 1-.4-.4 2.1-1.7 2.6-1.9 2.6-1.1m-31.3 17.2c-.4.3-1 .3-1.4 0-.3-.4 0-.7.7-.7s1 .3.7.7m-232.8 16.8c6.8 4 7.8 5.1 2.6 2.9-4-1.6-5.5-1.8-5.5-.5 0 .5 2.3 1.6 5.2 2.6 13.7 4.5 27 17.8 37.6 37.5 9.6 18 14.7 39.4 12.5 52.8-.8 4.9-.7 6.2.4 6.2 2 0 2.6-4.4 2-16.4-.9-17.8-7.2-35.7-18.9-53.6-4.9-7.5-4.9-7.5-.8-3 9.7 10.7 22.5 29.1 32.1 46.2 4.6 8.2 6 9.9 9.7 11.7 2.3 1.1 4.2 2.5 4.2 3 0 1.9-8.6 11.6-13.4 15.2-6.6 5-17.4 10.2-28.1 13.4-8.2 2.5-9.6 2.7-15.2 1.8-9.3-1.6-18.9-6.9-28.9-15.9-4.5-4.2-13.4-15.6-17.5-22.5-14.9-25.6-19.1-52.3-10.4-67.4 4.4-7.6 17.5-17.3 23.7-17.4 1.5-.1 5.4 1.5 8.7 3.4m192.2 7.4c2.4 2.5 2.9 3.7 2.9 8.1 0 2.8-.6 6.5-1.4 8.3-1.6 4.1-7.5 9.3-11.8 10.6-1.8.5-6.4 1.9-10.3 3.1-15.4 4.7-39.6 6.5-46.6 3.6-6.7-2.8-10.9-9.2-10.9-16.6 0-6 3.2-8.6 11.7-9.5 16.2-1.6 35.7-4.9 53.3-9 8.3-2 9.9-1.8 13.1 1.4"/><path d="M339.3 423.7c.4.3 1 .3 1.4 0 .3-.4 0-.7-.7-.7s-1 .3-.7.7M164.5 495.4c-4.3 1.9-8.3 7-9 11.4-.3 2-.8 4.4-.9 5.3-.6 2.9 1.4 13.3 3.6 18.9 7.3 18.8 19.6 31 31.8 31.4 6 .1 9.2-1.6 12.1-6.8 2-3.5 2.4-5.4 2.3-12.6 0-5.2-.7-10.4-1.8-13.5-5.1-14.6-14.7-27-24.8-31.9-7.1-3.4-9.7-3.8-13.3-2.2m15.8 6.2c13.4 9.5 22 25.7 22 41.4 0 7.8-1 10.7-4.6 14.7-3.2 3.5-11.8 3.2-17.8-.5-8.7-5.6-13.6-12.1-19.2-25.5-2.6-6.2-3-8.5-3-16.7-.1-8.4.2-9.9 2.4-13.2 2.8-4.3 3.8-4.8 10-4.4 3.6.2 6 1.2 10.2 4.2M345 483.5c0 .3.2.5.5.5s.5-.2.5-.5-.2-.5-.5-.5-.5.2-.5.5M308.1 252.9c-1.4.4-2.7 1.3-2.9 2-.3 1 0 1.2 1.1.8 5.3-2 8.4-1.8 11.4.7 4.7 3.9 6.4 3 1.9-.9-3.9-3.5-6.4-4.1-11.5-2.6M296.5 255.7c-2.9.7-4.3 2.3-1.9 2.3 3 0 6.4-1.1 6.4-2.1 0-.9-1.2-1-4.5-.2M284.1 259.6c-1.9.8-3.2 1.7-2.9 2 .9.8 8.8-1.5 8.8-2.6 0-1.4-1.9-1.2-5.9.6M326 262.4c0 1 8.2 6.8 8.8 6.2.8-.8-5.8-6.6-7.5-6.6-.7 0-1.3.2-1.3.4M258.4 269.4c-1 .8-1.6 1.8-1.1 2.2.4.4 1.3.2 1.9-.4.7-.7 2-1.2 3-1.2s1.8-.5 1.8-1c0-1.5-3.3-1.2-5.6.4M248 273.3c-2.5 1.1-3.9 2.2-3.1 2.5 1.6.5 9.1-1.8 9.1-2.9 0-1.7-1.7-1.5-6 .4M338 272c0 1.5 6.3 6.9 7.3 6.3.5-.3-.2-1.6-1.5-3-2.9-3.1-5.8-4.8-5.8-3.3M238.6 276.8c-.3.5-1.9 1.2-3.6 1.5-1.6.4-3 1.3-3 2.1 0 1.2.7 1.1 4.4-.2 4.2-1.6 5.8-3.3 3.8-4-.6-.2-1.3.1-1.6.6M348 281.8c0 1.6 6.8 7.4 7.4 6.3.4-.6-.8-2.4-2.6-4-3.3-3.1-4.8-3.8-4.8-2.3M221.7 284.4c-2 1.2-3.4 2.5-3.1 2.9.7.7 9.4-3.4 9.4-4.5 0-1.3-2.3-.7-6.3 1.6M212.5 289c-.3.5-1.5 1-2.5 1-2 0-3.6 1.7-2.6 2.7.8.8 8.6-2.7 8.6-3.9 0-1.1-2.7-1-3.5.2M358 292.5c0 1.1 6.7 7.5 7.3 6.9.9-.9-4.3-7.4-5.9-7.4-.8 0-1.4.2-1.4.5M198.5 295.6c-1.1.8-2.7 1.9-3.5 2.4s-1.2 1.1-.9 1.5c.8.7 9.9-3.6 9.9-4.7 0-1.3-3.4-.8-5.5.8M186.5 302.1c-1.6 1.1-3.4 2.1-4 2.3-.5.2-.7.7-.3 1.1.8.8 7.3-1.9 8.3-3.5 1.1-1.7-1.1-1.7-4 .1M173.8 309.2c-3.2 1.7-5 3.8-3.3 3.8 1.3 0 8.5-4.3 8.5-5.1 0-1.3-1-1-5.2 1.3M163.7 315.6c-3.1 2.8-3.7 5.1-.9 3.5 4-2.4 5.6-4.1 4.6-5.1-.6-.6-1.9-.1-3.7 1.6M121 316c0 1.1.7 2 1.5 2 1.7 0 1.8-.2.9-2.4-.9-2.3-2.4-2-2.4.4M369.6 317.5c-1.8 2.8-2 3.5-.7 3.5 1.5 0 4.1-3 4.1-4.6 0-2.2-1.6-1.7-3.4 1.1M123.5 327c0 3.3.4 5 1.3 5 .8 0 1.2-1.7 1.2-5s-.4-5-1.2-5c-.9 0-1.3 1.7-1.3 5M155.6 325.5c-1.1 1.9-1.6 3.8-1.3 4.2.4.3.8.4 1 .2.1-.2 1.2-1.8 2.5-3.6 2.5-3.7 2.7-4.3.9-4.3-.7 0-2.1 1.6-3.1 3.5M361.2 326.8c-3.1 2.6-4 4.2-2.4 4.2 1.2 0 7.2-5.1 7.2-6.1 0-1.5-1.4-1-4.8 1.9M151.6 333.1c-.2.8-.9 2.9-1.5 4.8-1.4 4.2-1.4 4.4 0 3.9 1.6-.5 4-8.1 2.9-9.2-.6-.6-1.1-.4-1.4.5M349.5 334.7c-2.2 1.5-3.4 2.8-2.8 3 1.7.6 9.4-3.8 8.7-4.9-.8-1.2-1.5-1-5.9 1.9M121.7 336.7c-.4.3-.7 1.5-.7 2.6 0 1.6.3 1.7 1.5.7.8-.7 1.5-1.9 1.5-2.6 0-1.5-1.2-1.9-2.3-.7M341.6 338.9c-.3.5-2.1 1.6-4.1 2.5-3.3 1.6-4.7 3.6-2.5 3.6 1.6 0 9-4.1 9-5 0-1.3-1.8-2.1-2.4-1.1M147.2 348c-1.4 4.8-1.5 6-.2 6 .9 0 3-6.1 3-8.8 0-2.6-1.6-1-2.8 2.8M324.8 348.3c-3.6 1.9-4.9 3.7-2.9 3.7 1.5 0 9.1-4.3 9.1-5.2 0-1.3-2.2-.8-6.2 1.5M313.3 353.8c-1.8.9-3.3 2.1-3.3 2.9 0 .9 1.2.7 4.5-.9 2.5-1.2 4.5-2.6 4.5-3 0-1.1-2-.8-5.7 1M144.6 358.2c-1.5 4.7-1.5 7.8-.1 7.8.8 0 1.5-.6 1.5-1.4 0-.7.3-2.8.6-4.5.4-2 .3-3.1-.5-3.1-.6 0-1.3.6-1.5 1.2M300.3 360.3c-4.2 2-5.5 3.7-3.1 3.7 2.2 0 8.7-3.5 8.8-4.8 0-1.6-.7-1.5-5.7 1.1M287.8 366.7c-3.5 1.4-5.1 3.3-2.9 3.3 1.6 0 8-3 8.6-4 .9-1.4-1.4-1.2-5.7.7M160.3 369.7c.4.3 1 .3 1.4 0 .3-.4 0-.7-.7-.7s-1 .3-.7.7M143.6 370.9c-.8 1.3.5 7.1 1.5 7.1.5 0 .9-1.8.9-4 0-3.7-1.1-5.2-2.4-3.1M274.7 372.1c-2.1 1.1-3.5 2.4-3.2 2.9.7 1.1 8.7-2.1 8.7-3.5-.1-1.5-1.5-1.4-5.5.6M262 377.5c-4 1.4-5.6 4.1-1.9 3 4.8-1.3 7.9-2.8 7.9-3.6 0-1.1-1.6-1-6 .6M146.5 379.9c-.5.9 2.5 3.2 5.7 4.4 3.6 1.3 2.6-1.2-1.2-3.2-2.1-1.1-4.2-1.6-4.5-1.2M248.8 382.8c-4.1 1.5-5.6 2.6-4.5 3.4.9.7 9.7-2.9 9.7-3.9 0-.7-.1-1.3-.2-1.2-.2 0-2.4.8-5 1.7M158 386.4c0 .9.8 1.6 1.9 1.6s2.3.4 2.6 1c.7 1.2 4.5 1.4 4.5.2 0-.4-1.7-1.4-3.7-2.2-2.1-.8-4.1-1.6-4.5-1.8-.5-.2-.8.3-.8 1.2M232.1 388.4c-2.5.6-4.6 1.7-4.9 2.4-.4 1.4 1.8 1.6 5 .3 1.3-.5 3.5-1.2 5.1-1.5 3-.7 3.8-2.7 1-2.5-1 .1-3.8.6-6.2 1.3M171.2 391.2c.5 1.4 7.5 3.4 8.5 2.4 1.1-1.1-1-2.3-5.1-3-2.9-.6-3.7-.4-3.4.6M216.2 391.9c-4.3.8-3.7 2.6.8 2.2 4.9-.3 7.1-1.1 6.5-2.2-.7-1-2.2-1-7.3 0M183.4 393.1c-.9 1.5-.4 1.7 5.4 2.5 3.7.5 5.2.3 5.2-.5 0-1.3-1-1.7-6.2-2.4-2.1-.3-4-.1-4.4.4M198.2 393.8c-2.4.8 0 2.2 3.8 2.2 4.3 0 7-.8 7-2.1 0-.8-8.4-.9-10.8-.1M406 454.2c0 .9.9 2.7 2 4.1s2 2.8 2 3.1c0 .4 1.7 3.4 3.8 6.9 14.9 24.6 30.9 67.7 41.8 112.2 1.3 5.5 2.8 11.6 3.4 13.5.5 1.9 1.9 8 3 13.5 1.2 5.5 2.8 12.7 3.5 16 .8 3.3 1.9 9.1 2.5 13 .6 3.8 1.7 9.9 2.5 13.5 3 13.8 7.9 50 9.8 73.4l1.2 14 7-.3c3.8-.1 7.1-.4 7.2-.5s-.5-4-1.3-8.6c-.8-4.7-2.6-15-3.9-23-1.4-8-3-16.5-3.5-19-.6-2.5-2.4-11-3.9-19-3-15-12.5-54-14-57.5-.8-1.8-2.8-8.7-8.1-27.5-3.2-11.4-18.3-56.2-21.5-63.5-.7-1.7-3.4-8.2-6-14.5-6-14.3-11.5-25.7-18.9-38.8-5.9-10.3-8.6-13.8-8.6-11M242.1 524.3c-1.6 1.6-1.3 4.2.7 6.5 1.7 2.2 20.2 8.2 24.9 8.2 3.1 0 3.9-2.4 1.9-5.5-1.5-2.3-4.4-3.4-24.3-9.6-1.1-.4-2.6-.2-3.2.4m8.6 3.5c2.6 1.1 7.1 2.5 9.8 3.2 5 1.3 8.5 3.5 8.5 5.3 0 1-5.5.3-10-1.2-1.4-.5-5.1-1.7-8.3-2.6-4.9-1.5-7.7-3.6-7.7-5.9 0-1.1 2.9-.6 7.7 1.2M450.4 761.2l.4 12.3 43.6.3 43.6.2v-25h-88.1zm84.6-.2v10h-4.2c-2.4.1-20.6.3-40.5.6l-36.3.5V751h81z"/><path d="M460.7 752.6c-.4.4-.7 2.7-.7 5.1 0 4 .2 4.4 2 3.8 1.7-.5 2-.2 2 2.4 0 1.7-.4 3.1-1 3.1-.5 0-1-.5-1-1 0-.6-.4-1-1-1-.5 0-1 .9-1 2.1 0 3.2 5.1 2.2 6-1.1.9-3.2-.5-7-2.5-7-.8 0-1.5-.9-1.5-2q0-2.1 1.8-1.8c1 .2 1.7-.3 1.7-1.2 0-1.6-3.6-2.6-4.8-1.4M493.2 753.2c-1.5 1.5-1.6 5.8-.2 5.8.6 0 1-.9 1-2s.5-2 1-2c1.6 0 1.1 3.8-1 8-2.7 5.2-2.5 6 .9 6 3.3 0 4.6-1.3 3.7-3.7-.6-1.4-.8-1.4-2.1.3-1.9 2.5-1.9.6 0-2.6 2.1-3.6 1.9-8.7-.3-9.9-1.3-.7-2.3-.6-3 .1M502.7 752.6c-1.1 1.1-.8 5.4.3 5.4.6 0 1-.7 1-1.5s.5-1.5 1.1-1.5c.7 0 .9 1 .5 2.5-.4 1.4-.9 4.5-1.3 7-.4 3.6-.3 4.5.9 4.5 1.1 0 1.7-1.7 2.2-6.3.3-3.4.7-7.1.9-8.2.1-1.5-.5-2.1-2.3-2.3-1.4-.2-2.9 0-3.3.4M472.5 761.5c0 7.1.3 8.5 1.5 8.3.8-.2 1.5-.9 1.4-1.6-.1-.6-.2-4.4-.2-8.2-.2-4.9-.6-7-1.4-7-1 0-1.3 2.4-1.3 8.5M513.2 755c-2.6 4.3-.6 14 2.9 14 1 0 2.1-1 2.5-2.3.8-2.4.7-9.1-.2-12-.7-2.3-3.6-2.2-5.2.3m3.8 6c0 5.4-1.7 7.2-2.5 2.7-.9-4.6.2-9.8 1.6-7.6.5.7.9 3 .9 4.9M480.5 760.9c-.3.5-.1 1.3.5 1.6 1.5.9 7.1-.5 6.4-1.6-.7-1.2-6.1-1.2-6.9 0M493.4 776.5c-.4.9-.4 8.6-.1 17.1l.6 15.4h-22.7c-12.5 0-25.8.2-29.7.4-3.8.3-66.8.8-140 1.1-73.1.4-133.2.9-133.5 1.2-.8.8.1 455.8 1 456.7.8.8 296.7.2 311.5-.7 4.4-.3 52.6-.8 107-1.2 156-.9 239.9-1.6 240.1-1.8s-.9-163-2.2-313.7c-.3-47.6-.9-99.3-1.3-115l-.6-28.5-52.5.1c-28.9.1-102.6.5-163.7.9l-111.3.8v-16.6c0-10.1-.4-16.8-1-17.2-.6-.3-1.3.1-1.6 1m328.8 69.7c.1 20.5.2 38.6.3 40.3.1 1.6.5 51.6.9 111 .3 59.4.8 114.7 1.1 123 .3 8.2.8 43.7 1.1 78.8l.6 63.7-46.4.1c-25.4 0-47 .2-47.8.3-.8.2-55.3.6-121 1s-127.6 1-137.5 1.3-82.2.8-160.8 1l-142.7.5V813h79.3c73.6-.1 133.2-.5 199.2-1.5 14.9-.2 71.1-.5 125-.7 53.9-.1 114.4-.5 134.5-.8s53.9-.7 75.3-.8l38.7-.2z"/><path d="M575.5 897.9c-1.4 1.3-9.7 6.1-11.7 6.8-1 .3-1.8.9-1.8 1.4s-.5.9-1 .9c-.6 0-4.3 1.9-8.3 4.3-3.9 2.4-10.3 6.2-14.2 8.4-3.8 2.2-16 9.5-27 16-11 6.6-22 13.1-24.5 14.5s-10.1 5.8-17 9.8-15.4 9-19 11-11.9 6.8-18.5 10.7-16.5 9.6-22 12.8-13.3 7.7-17.2 10.1c-4 2.4-7.7 4.4-8.3 4.4-.5 0-1 .3-1 .7 0 .5-1 1.3-2.3 1.8-3.5 1.7-11.1 5.9-11.7 6.6-.3.3-3 1.9-6 3.5-9.5 5.3-15.1 8.5-30 17.4-8 4.8-16.7 9.9-19.5 11.5-2.7 1.6-8.4 4.8-12.5 7.2-15.1 8.8-17.3 9.5-27.1 9.5s-12.7-.8-20.7-6.1c-5.2-3.4-5.3-3.6-4.7-7.2 1.4-8-3.9-12-10.9-8.4-3.8 2-4.6 1.9-8.1-1.1-1.6-1.4-4.2-3.3-5.7-4.2-7.2-4.2-5.5-10.1 4.4-15.2 10.2-5.3 44.8-25.1 65.3-37.3 2.8-1.6 6.4-3.7 8-4.7 1.7-.9 5.5-3.1 8.5-4.9 3-1.7 6.2-3.6 7-4.1s3.8-2.2 6.5-3.8c10.7-6.1 13.3-7.6 21.3-12.3 4.5-2.7 8.4-4.9 8.6-4.9.7 0 14.1-8.3 15.8-9.7.9-.8 1.4-2.1 1.2-2.8-.3-.7.4-1.8 1.5-2.4 2.7-1.5 3.1-1.4 3.1.7 0 1.7 9.1 7.2 11.9 7.2.7 0 3.3-1.2 5.9-2.7 2.6-1.4 6.3-3.4 8.3-4.4 3.3-1.7 5.9-5.3 5.9-8.3 0-.8.7-1.6 1.5-2 2.1-.8 1.9-6.6-.2-9.6-1-1.4-2.5-3.8-3.3-5.4-.8-1.5-3.2-3.7-5.2-4.9-3.7-2-3.7-2-12.3 2.4-4.8 2.4-9.8 5.4-11.2 6.7-2.3 2.2-2.5 2.9-2 8.2.4 5.2.3 6-1.4 6.5-1 .4-1.9 1.1-1.9 1.7 0 .7-1.4.8-3.8.5-2.9-.5-4.7-.1-8.2 2-2.5 1.4-7.4 4.3-11 6.3s-14.4 8.3-24 14c-9.6 5.6-20 11.6-23 13.3-3 1.6-6.7 3.8-8.2 4.9-1.4 1-2.9 1.8-3.2 1.8s-.6-10.4-.6-23c0-14.7-.4-23-1-23s-1 8.6-1 23.8c0 23.5 0 23.7-2.2 25.1-4 2.5-21.9 12.7-36.8 21.1-3.6 2-7.6 4.3-9 5.2-1.4.8-5.4 3.1-9 5.1-15.9 8.6-18.2 10.1-20.5 13.5-4.9 7.2-2.8 16 5.2 21.8 2.1 1.5 5.7 4.2 8 5.8 4.1 3 4.2 3.3 3.7 7.3-.5 3.6-.2 4.5 1.9 6.7 2.9 2.9 5.1 3.2 8.7 1.1 3.7-2.1 4.1-2 11.4 3.4 13.2 9.8 28.1 11.4 42.9 4.8 5.9-2.7 9.3-3.9 15.7-5.8 2.5-.7 7.2-2.9 10.5-4.9s7.1-4.3 8.5-5.1c4.6-2.6 7-5.2 7-7.6 0-5.3 4.5.2 5.2 6.3.3 2.8.2 2.9-5.8 3.6-3.5.5-8.2 1.9-10.8 3.4-4.6 2.5-4.6 2.6-4.6 7.8 0 4.3-.6 6-3 9.2-1.6 2.1-3 5.1-3 6.6 0 2.2-1.1 3.4-6 6.4-3.6 2.2-6.2 4.6-6.5 5.8-3 15.3-2.3 19.6 2.9 17.6 1.2-.4 5.6-2.9 9.9-5.4s8-4.6 8.3-4.6c.2 0 2.2-1.2 4.3-2.6 3-1.9 4.7-2.4 7.2-2 2.9.5 5-.3 13.4-5.2 9.2-5.3 10-6.1 10.5-9.2.6-4.3 1.5-5.6 6.6-10 6.9-5.9 8.2-6.9 12.2-8.9 4.3-2.2 6.3-5.6 5.1-8.6-.4-1.1-.5-3.5-.2-5.3 1.1-6.7-4.7-8.2-12.9-3.2-2.6 1.6-5.3 3-5.8 3-.6 0-1 .4-1 .8 0 1.5-5 3.2-9.4 3.2-4 0-4.3-.2-4.3-2.6 0-5.7-5.1-10.7-11.3-11-1.9-.1-4.4-.5-5.5-.8-1.4-.5-4.7 1.1-11.4 5.6-5.2 3.4-8.9 6.4-8.3 6.6.7.2 2.5-.6 4.1-1.7 1.6-1.2 3.2-2.1 3.5-2.1.4 0 2.9-1.6 5.7-3.5 4.1-2.8 5.5-3.3 7-2.5 2.4 1.3 2.5 4.2.2 6.2-4.9 4.1-19.5 11.9-25.1 13.3-3.4.9-9.3 3.1-13 4.8-5.6 2.7-8.1 3.2-15.5 3.5-4.9.2-10.9-.1-13.5-.8-3.8-.9-12.3-5.8-17.7-10.3-.5-.4-2.9-2.1-5.2-3.8-2.4-1.7-4.3-3.4-4.3-3.8s.9-1.6 2-2.6c2-1.8 2.2-1.7 10.8 4.1 4.8 3.2 8.9 6.2 9.2 6.5 1.3 1.5 11.3 3.3 17.8 3.2 9-.2 12.2-1.2 23.1-7.5 4.7-2.8 10-5.8 11.6-6.8 1.7-.9 7.6-4.5 13.3-7.9 5.6-3.3 10.4-6.1 10.6-6.1s6.6-3.7 14.2-8.2c7.6-4.4 16.4-9.5 19.4-11.1 3-1.7 6.6-3.8 8-4.7 1.4-1 4.8-2.9 7.5-4.4 2.8-1.4 6.4-3.4 8-4.4 1.7-1 6.4-3.7 10.5-6.1s13.1-7.8 20-11.9 14-8.3 15.8-9.3c1.7-1.1 4.9-2.9 7-4.1 3.7-2.1 10.6-6 23.7-13.5 3.9-2.2 8.7-4.9 10.8-6.1 2-1.2 5.2-3 7-4.1 1.7-1 10.5-6.1 19.5-11.5 40-23.7 48.3-28.6 48.6-28.6.2 0 5.2-2.9 11.1-6.5 6-3.6 11.2-6.5 11.6-6.5 1.1 0 3.9 3 3.9 4 0 1.8-4.5 5.1-14.4 10.7-5.6 3.1-13.2 7.5-17.1 9.8-3.8 2.3-12.8 7.5-20 11.5-7.1 4.1-13.1 7.7-13.3 8.2-.2.4-.8.8-1.4.8-.5 0-2.9 1.3-5.3 3-2.4 1.6-4.6 3-4.9 3-.4 0-3.6 1.8-7.2 4s-6.8 4-7 4-3.7 2-7.7 4.4c-3.9 2.4-9.2 5.4-11.7 6.8s-8.5 4.8-13.4 7.7c-4.9 2.8-9 5.1-9.1 5.1-.2 0-11.6 6.6-26 15-13.2 7.7-26.4 15.4-31.5 18.2-5.6 3.1-9.1 5.1-20.5 11.8-4.9 2.9-11 6.4-13.5 7.8-4 2.2-15.8 9.1-16.9 9.9-.2.2-.2.6.1.9.8.7 4.4-1.2 18.8-9.6 6.3-3.7 16.9-9.8 23.5-13.5 26.3-14.9 24.7-14 41-23.5 17.2-10.1 33-19.3 37.5-21.8 2.5-1.4 7.4-4.2 11-6.2s8.5-4.8 11-6.2 9.1-5.3 14.8-8.7c5.6-3.3 10.5-6.1 10.8-6.1s1.9-.9 3.4-2c3-2.1 28.9-17.2 54.5-31.7 12.3-7 14.9-8.9 15.5-11.3.5-2.2 1.2-2.5 4.5-2.4 4.6.2 7.6 3.4 7.3 7.9-.3 2.9-.5 3-5.8 3.5-3.6.3-7.3 1.6-10.7 3.5-5.3 3-5.3 3-5.3 8.4 0 4.5-.5 5.9-3 8.7-1.6 1.9-3.4 5.1-3.9 7.1-.9 3.1-2 4.3-5.7 6.2-5.3 2.8-5.9 4-6.9 13.4-.6 5.8-.4 7.2 1.1 8.8.9 1 2 1.9 2.4 1.9s3.5-1.8 7-4.1c6.1-3.9 8.9-4.6 5.6-1.4-1.7 1.7-2.1 3.5-.8 3.5 1.5 0 6.4-7.1 5.8-8.6-.6-1.6-3.6-1.9-3.6-.4 0 .5-.5 1-1.1 1s-3 1.3-5.4 3c-2.4 1.6-5.3 3-6.5 3-2 0-2.1-.3-1.5-5.8 1-9.3 1.1-9.5 8.6-14.2 3.9-2.4 8.9-6.5 11-9s8-7.2 13.1-10.4 11.6-7.3 14.3-9.1c2.8-1.8 8.2-5.2 12-7.5 14.9-9 15.5-9.2 15.5-4.4 0 1.3.5 3.3 1.2 4.3 1.5 2.4 0 4.4-5.1 6.8-3.7 1.8-13.4 10.9-16.2 15.2-.8 1.3-2.1 2.2-2.7 2-.9-.3-.8-1 .5-2.4 4.5-4.8 10.5-14.5 10-16-.9-2.3-2.6-1.9-10.6 3-4 2.4-8.6 4.7-10.2 5-1.6.4-4.2 2.2-5.7 4.1-1.5 1.8-4.7 4.7-7.3 6.3-3 2-6.4 5.8-10.2 11.5-7.9 11.7-7.7 12.6 1.8 7.5 5.1-2.8 5.9-3 6.7-1.6.4.9 1.5 1.4 2.3 1 .9-.3 2.2 0 3 .7 1.3 1 3.1.2 10.8-4.5 12.4-7.8 12.9-8.3 12.2-11.6-.5-2.3.3-3.6 6-9.4 3.6-3.6 8.6-7.5 11-8.6 5.6-2.5 6.8-4.7 5.9-10.7-1.4-9.7-3.9-10.4-14.2-4.1-10.3 6.4-11.4 6.9-15.4 6.9-3.6 0-3.8-.2-3.8-3.3 0-2.4-.9-4.2-3.4-6.6-3-2.9-4-3.3-9.2-3.3-4.4 0-6.3-.5-7.7-1.9-2-2.1-2.9-2.3-4.2-1m20.3 9.7c-.4.3-1.2-.5-1.8-1.8-1.2-2.2-1.2-2.2.6-.6 1 1 1.5 2 1.2 2.4m1.8 6.2c-1.1 1-1.5-.4-.8-2.8.7-2.5.7-2.5 1-.2.2 1.3.1 2.6-.2 3M400.4 911c1.4.5 3 1.9 3.7 3.1 1 2 .8 2.6-2.2 5-3.5 2.9-2.1 4.1 1.5 1.4 1.1-.8 2.5-1.5 3-1.5 2.1.1-4 4-6.1 4-1.3 0-2.3.4-2.3 1 0 1.5 4.2 1.1 6.4-.5 2.8-2.2 3.6-1.9 3.6 1.3 0 3-3 5.2-7.2 5.2-1.7 0-1.8.3-.8 1.5.9 1 1.7 1.2 3 .5.9-.5 2-.6 2.4-.3.7.7-3.2 5.3-4.5 5.3-.5 0-3.1 1.3-5.9 3-2.8 1.6-6.1 3-7.4 3-2.7 0-7.9-2.4-9.7-4.6-1.1-1.3-.8-1.9 1.6-3.8 2.8-2.2 2.8-2.3.8-3.7-1.2-.9-2.2-3-2.5-5.7-.4-2.3-.4-4.2-.2-4.2.3 0 1.6.7 3 1.6 3.3 2.2 4.5.8 1.4-1.6-3-2.3-2.7-2.7 6.5-7.4 7.5-3.9 8.2-4.1 11.9-2.6m203.1 5.9c-.3.6-1.8 1.6-3.3 2.4-10.2 5.2-22.4 13.7-26.9 18.6-3.6 3.8-5.2 5-5.3 3.8 0-.9 1.4-3.1 3-4.9 2.6-2.6 3-3.9 3-8.4 0-5.1.1-5.2 4.5-7.9 2.7-1.6 7.1-3 10.8-3.4 8.9-1.2 14.9-1.3 14.2-.2m11.8 2.7c.3.4-.1 1.7-1 3-1.2 1.9-1.8 2.2-3 1.3-1.1-1-1.1-1.5.3-3 1.8-2 2.7-2.3 3.7-1.3m-5.4 5.3c.8 1.5.3 3-2.7 7.5-3.7 5.6-3.7 5.6-5.2 3.4-.8-1.3-2.5-3.3-3.8-4.5-2.3-2.1-2.3-2.1 1-3.2 1.8-.6 4.4-2 5.8-3.1 3.1-2.4 3.7-2.5 4.9-.1m-13.5 7.6c2.7 1.8 5.1 6.8 4.1 8.4-2.4 4-10.6-3.8-8.9-8.4.8-1.9 1.9-1.9 4.8 0M375 934.4c0 .3-.5.8-1.2 1.2s-.8.3-.4-.4c.7-1.2 1.6-1.6 1.6-.8m-6 5.5c0 1.5-6.7 7.1-8.5 7.1-.3 0-3.5 1.8-7.1 4s-6.7 4-6.9 4-3.4 1.9-7.1 4.2c-7.7 4.6-21.5 12.7-28.4 16.6-2.5 1.4-9.2 5.3-15 8.7-24.4 14.4-28.8 17-35 20.5-3.6 2-8.1 4.6-10 5.7s-7.1 3.9-11.5 6.3c-18.6 10.1-21.4 12.4-21.5 17.1 0 2.9 4.5 7.6 11.3 11.7 2 1.3 3.7 2.6 3.7 3 0 1-3.3 4.2-4.3 4.2-2 0-15.7-11.1-17.2-14-.8-1.6-1.5-4.5-1.5-6.5 0-7 2-8.6 29.5-23.7 3.9-2.1 7.7-4.2 8.5-4.7.8-.6 6.7-3.9 13-7.6 6.3-3.6 13.8-7.9 16.5-9.5 2.8-1.7 5.7-3.3 6.5-3.7.8-.3 3.4-1.9 5.7-3.5 2.3-1.5 4.4-2.8 4.7-2.8.2 0 4.1-2.3 8.6-5 4.5-2.8 8.3-5 8.6-5 .2 0 3.7-2 7.7-4.4 3.9-2.4 9.2-5.4 11.7-6.8s10.1-5.8 17-9.8c17.8-10.4 17.1-10 19.2-8.9 1 .5 1.8 1.8 1.8 2.8m225.8 3c1.3.8 1 1.2-1.9 3-3.8 2.4-4.9 2.6-4.9 1 0-.6.9-1.3 2-1.6 2-.5 2.8-2.3 1.1-2.3-1.8 0-10.2 5.3-11.1 7.1-1.1 1.9-6.8 5.4-7.6 4.6-1-1 8.1-12.9 12-15.7l4-3 2.4 3c1.3 1.6 3.1 3.4 4 3.9m13.2-1.7c0 1.6-15.2 11.8-17.4 11.8-3.3 0-1.3-2.2 6.7-7.5 8.4-5.5 10.7-6.5 10.7-4.3m-22.3 7.5c-.4.3-.2 1.2.4 2 1.4 1.6-.8 1.8-3.1.3-1.3-.9-1.3-1.1 0-2 1.7-1.1 3.7-1.4 2.7-.3M247 1051c0 4.3-1.7 5.3-4 2.5-1.8-2.1-3.7-1.9-6.5 1-3.2 3.1-3.2 5.9.1 7.4 3.1 1.4 2.7 3.3-.9 4.5-3.8 1.4-5.7-.7-5.7-5.9 0-3.7.6-5 4.3-8.9 3.7-4.1 4.7-4.6 8.5-4.6 4.2 0 4.2 0 4.2 4m93.4.8c.3.5.8 2.9 1.1 5.3.5 4.3.5 4.3-.5.9-.6-1.9-1.5-4.3-2-5.3-1-1.7.3-2.6 1.4-.9m37.1 3.2c.3.5.1 1.9-.5 3.1-.9 1.5-.9 2.4-.1 3.2 1.9 1.9 1.3 5.5-1 6.2-2.6.9-3.5 0-2-1.9.7-.8.8-1.7.3-2-1.4-.8-3.4 2-3 4.2.2 1.3-1.6 3.5-5.7 6.9-3.3 2.8-7.3 6.5-8.9 8.2-1.7 1.7-3.4 3.1-3.8 3.1-1.1 0 .5-2.9 3.1-5.7 3.6-3.8 7.1-9.5 7.1-11.5 0-4.4-4.3-2.9-18 6.2-3 2-6.6 4-8.1 4.3-1.4.4-5.6 3.7-9.3 7.5-6.7 6.8-15.4 18.8-14.4 19.8.3.3 3.2-.9 6.3-2.6 3.6-2 6.1-2.8 6.7-2.2 1 1-22.7 15.2-25.2 15.2-.9 0-1.1-1.6-.5-6.7.4-3.6.9-7.3 1.3-8.1.3-.8 3.2-3.2 6.5-5.3s9-6.7 12.7-10.1c3.7-3.5 8-7 9.6-7.9s7-4.2 11.9-7.4c5-3.1 10.8-6.7 13-8 2.2-1.2 6.7-3.8 10-5.8 6-3.5 10.8-4.6 12-2.7m-33.5.5c0 .3-.2.5-.5.5s-.5-.2-.5-.5.2-.5.5-.5.5.2.5.5m.7 5.2c-.4.3-.7 0-.7-.7s.3-1 .7-.7c.3.4.3 1 0 1.4m5.3 3c0 .5-5.6 4.1-12.5 8.2-6.8 4-14 8.9-16.1 10.7-2 1.9-4 3.4-4.5 3.4-1.5 0-1-2 1.1-4.2 1.4-1.6 2-3.6 2-7 0-4.3.3-4.9 3.7-7.3 2.5-1.7 5.2-2.5 8.3-2.6 2.5-.1 5.9-.5 7.5-.9 4-1 10.5-1.2 10.5-.3m11 6.2c0 .7-3 4.9-7.5 10.3-.7.9-1.8 2.6-2.5 3.7-1.5 3-3.6 2.6-5.4-1.1-1.9-3.8-2-5.8-.3-5.8.6-.1 3.7-1.9 6.7-4 5.2-3.7 9-5 9-3.1m-24.2 14.3c0 1.8.3 4.3.7 5.5.7 2.2.5 2.3-4.9 2.3-3.2 0-5.6-.4-5.6-1 0-.9 8.8-10 9.6-10 .2 0 .2 1.5.2 3.2m6.6-1.6c.3.9.6 3.1.6 5 0 2.7-.4 3.4-1.9 3.4-2.2 0-3.1-1.9-3.1-6.6 0-2.7.4-3.4 1.9-3.4 1 0 2.2.7 2.5 1.6m-28.7 6.1c-.4.3-.7 0-.7-.7s.3-1 .7-.7c.3.4.3 1 0 1.4m33.3.3c0 .5-.4 1-1 1-.5 0-1-.5-1-1 0-.6.5-1 1-1 .6 0 1 .4 1 1m5.4.8c.2.4.2 1.3-.2 1.9-.6 1-17.7 11.3-18.8 11.3-.2 0-.4-.7-.4-1.5 0-1.3 9.9-8.5 11.8-8.5.4 0 1.8-.9 3.2-2 2.8-2.2 3.6-2.4 4.4-1.2m-26.1 3.8c.9 1-2.9 5.5-6.4 7.6-4 2.4-4.4 2.3-2.4-1 3.8-6 7-8.4 8.8-6.6m10.3 1.7c-1.1.7-3.1 2.3-4.5 3.6-1.8 1.8-2.9 2.1-4 1.4-.9-.6-1.6-1.6-1.6-2.4 0-1.6 5.6-3.8 9.5-3.8 2.4 0 2.4.1.6 1.2"/><path d="M393.3 917.8c-4 2-7.3 4.2-7.3 4.9 0 1.1 14.2-5.6 16.5-7.8 2-2-2.3-.6-9.2 2.9M384.4 931.6c.3 3.8.5 7.8.5 8.8.1 1.4.4 1.7 1.1 1 1.6-1.6.8-15.6-.8-16.2-1-.3-1.2 1.1-.8 6.4M304.6 1101.7c-.9 1-.7 5.5.3 4.9 1.2-.8 2.1-4.5 1.1-5.1-.4-.2-1-.2-1.4.2M244 915.5V928h90v-25h-90zm86 0V926h-40.9c-47.2 0-41.9 1.6-42-12.8l-.1-8.2h83z"/><path d="M312.6 906.7c-.3.3-.6 1.5-.6 2.5s-.4 1.8-1 1.8c-.5 0-1-.9-1-2s-.7-2-1.6-2c-1.6 0-1.4 2.3.7 6.6.8 1.6.6 2.9-1 5.8-2.6 4.5-2.6 4.6-.1 4.6 1.2 0 2-.6 1.9-1.3-.3-2.3.1-3.7 1.1-3.7.6 0 1 1.1 1 2.5 0 1.8.5 2.5 2 2.5 1.9 0 1.9-.1-.2-4.4-2-4.2-2-4.6-.5-8.5 1.5-3.6 1.1-6.1-.7-4.4M253.4 909.4c-1 4-.1 6.1 2.4 5.9 1.8-.2 2.2.2 2.2 2.7 0 1.7-.4 3-1 3-.5 0-1-.5-1-1 0-.6-.7-1-1.5-1-2.1 0-1.9 2.7.2 3.9 3 1.6 5.3-.5 5.3-5 0-3.3-.4-4.1-2.6-4.9-2.8-1.1-2.8-3.5.1-3.5 1 0 2-.6 2.3-1.3q.3-1.2-2.7-1.2c-2.4 0-3.2.5-3.7 2.4M266.7 907.8c-.3.4-.4 4.2-.4 8.5.2 6.8.4 7.7 2.1 7.7 1.4 0 1.7-.5 1.2-2.3-.3-1.2-.6-5-.6-8.5 0-5.5-1-7.7-2.3-5.4M287.2 908.2c-1.5 1.5-1.6 4.8-.2 4.8.6 0 1-.9 1-2s.5-2 1-2c1.6 0 1.1 4.8-1 9.2-2.3 4.8-2.1 5.4 1.7 5.3 2.3-.1 2.9-.7 3.1-3.1.3-2.8.3-2.8-1.1-.9-2.1 2.8-3.3 1.1-1.4-1.8 1.5-2.4 2.2-5.4 1.9-9-.2-2-3.2-2.3-5-.5M297 909.5c-1.2 3.1.3 7.5 2.5 7.5.8 0 1.5.9 1.5 2s-.4 2-1 2c-.5 0-1-.5-1-1.2 0-.9-.3-.9-1.2.1-1.1 1-.9 1.5.6 2.7 1.7 1.2 2.2 1.2 3.8-.3 2-1.8 2.5-8.4.8-12.7-1.3-3.4-4.7-3.5-6-.1m4 2.5c0 1.6-.4 3-1 3-.5 0-1-1.4-1-3 0-1.7.5-3 1-3 .6 0 1 1.3 1 3M275.7 914.7c-1.5 1.5-.5 2.3 2.8 2.3 2.4 0 3.5-.5 3.5-1.5 0-1.5-5-2.2-6.3-.8M624.7 914.7c-.9.8-.9 4.3-.1 4.3s3.3-3.2 3.4-4.3c0-.9-2.4-.9-3.3 0M697.6 931.8c-.9.8-.7 24 .2 24.5.4.3 19.8.6 43.2.8l42.5.4.3-12.3c.2-9.3 0-12.3-1-12.6-2.1-.7-84.6-1.4-85.2-.8m70.7 2.9 11.7.6V955h-38.8c-21.3-.1-39.3-.4-40-.8-.8-.6-1.1-3.5-.8-10.3.3-5.2.5-9.5.5-9.7.2-.5 55.8-.1 67.4.5"/><path d="M706 940.1c0 4.6.2 5 2 4.4 1.6-.5 2-.2 2 1.9 0 2.8-.9 3.3-2.8 1.4-.9-.9-1.2-.7-1.2.9 0 5.3 5.1 4.5 6.4-1 .5-2.1.1-3.3-1.9-5.3-2.5-2.5-2.6-3.9-.2-3.9.7 0 1.3-.8 1.5-1.8.3-1.3-.3-1.7-2.7-1.7-3.1 0-3.1.1-3.1 5.1M718.8 935.5c-.9 1.4-1.4 16.2-.6 17.1.4.3 1.5.4 2.4 0 1.2-.5 1.3-1 .6-1.9-.6-.7-1.2-4.6-1.4-8.7s-.6-7.1-1-6.5M737.5 937.3c-1.7 2.4-2 4.7-.5 4.7.5 0 1.4-.8 1.9-1.8 2-3.4 1.2 2.7-.9 6.8-2.7 5.3-2.6 6 1.4 6 2.6 0 3.6-.5 4.1-2 .9-3-.4-4.5-2.1-2.3-1.8 2.4-1.7.4.2-4.2 2.6-6.3-.7-12.1-4.1-7.2M746.3 937.6c-.3.8 0 2.1.7 2.7 1 .9 1.4.9 1.7-.1.3-.6.8-1.2 1.3-1.2.4 0 .2 2.9-.5 6.5-1.1 6.1-.7 8.4 1.4 7.1.4-.3 1.1-3.4 1.4-6.8.3-3.5.9-7.1 1.2-8.1.6-1.4.1-1.7-2.9-1.7-2.4 0-3.9.5-4.3 1.6M758.7 936.6c-1.6 1.6-.7 3.5 1.3 2.9 2.4-.7 2.6.7.5 2.9-.8.8-1.5 1.7-1.5 2s.7.6 1.5.6c.9 0 1.5.9 1.5 2.5 0 1.4-.4 2.5-1 2.5-.5 0-1-.7-1-1.5 0-1.7-1.6-2-2.5-.5-.8 1.2 1.6 5 3.2 5 2.1 0 4.5-4.7 3.7-7.2-.4-1.3-.8-3.9-.8-5.8-.1-2.7-.6-3.6-2.1-3.8-1.2-.2-2.4 0-2.8.4M770.6 937.1c-.7 1.7-3.6 14.1-3.6 15.1 0 .5.7.8 1.5.8.9 0 1.5-.9 1.5-2.5s.6-2.5 1.5-2.5 1.5.9 1.5 2.5.6 2.5 1.6 2.5c1.3 0 1.5-.6.9-3.3-.4-1.7-1.1-5.1-1.5-7.5-.8-4.8-2.6-7.5-3.4-5.1m1.1 7.6c-.4.3-.7 0-.7-.7s.3-1 .7-.7c.3.4.3 1 0 1.4M725.3 944.2c.2.7 1.9 1.3 3.7 1.3s3.5-.6 3.8-1.3c.2-.8-.9-1.2-3.8-1.2s-4 .4-3.7 1.2M668.7 947.1c-7.7 4.4-8.7 4.6-8.7 2.1 0-.9-.9-2.3-2-3-1.8-1.1-2.8-.7-8.3 2.7-3.4 2.2-6.6 4.4-7.2 4.8-.5.5-4.3 3.1-8.3 5.8-6.2 4.2-8.2 6.3-12.3 13-3.2 5.1-4.9 8.9-4.7 10.5.5 4.5 5.1 3.1 18.8-5.9 15.8-10.3 15.4-10 17.4-13.8 1.8-3.6 7.4-10.3 8.6-10.3.4 0 4-1.8 8.1-4.1 7.2-3.9 7.6-4 15.8-3.8 6 .2 8.6 0 8.9-.9s-2.2-1.2-9.5-1.1c-9.6 0-10 .1-16.6 4m-10.3 2.5c.4.9-.1 2.8-1 4.1-1.9 3.1-2.8 2.5-1.5-1 .8-2.1.7-2.8-.7-3.6-1.5-.9-1.5-1 .4-1.1 1.2 0 2.5.7 2.8 1.6m-7.9 9.8c-2.9 5.1-4.7 7.1-8.8 9.5-9.1 5.3-11.2 6.6-11.7 7.2-.9 1.1-5.2 3.1-5.6 2.6-1.3-1.3 6.9-11.6 12-15.2 3.1-2.2 8.3-5.9 11.4-8.2s5.8-3.8 6-3.3-1.3 3.8-3.3 7.4m-6.5-3.9c0 .3-.2.5-.5.5s-.5-.2-.5-.5.2-.5.5-.5.5.2.5.5m-3 1.9c0 .3-.5.8-1.2 1.2s-.8.3-.4-.4c.7-1.2 1.6-1.6 1.6-.8m13 1.1c0 .3-.2.5-.5.5s-.5-.2-.5-.5.2-.5.5-.5.5.2.5.5m-20.6 4.7c-4.3 3.3-5.1 4.2-7.3 7.9-6.2 10.3-6.8 12.3-3.3 11.3 1.4-.5 1.4-.4-.1.6-1.8 1.2-3.7.6-3.7-1.2 0-3.8 13.3-20.8 16.3-20.8.5 0-.3 1-1.9 2.2M559 954.5c-1.4 1.7-.6 4.9 1.1 4.3 1.3-.4 2.2-5.8 1-5.8-.5 0-1.4.7-2.1 1.5M577.1 957.3c-2.3 2.5-2.8 4.9-.8 4.1 1.8-.7 4.8-5.2 3.8-5.8-.4-.3-1.8.5-3 1.7M668.4 963.6c-2.2 1.2-5.2 3-6.8 3.9s-13.7 8.9-26.9 17.6c-23.6 15.7-25.6 17.3-32 25.5-1.7 2.2-5.3 5.5-7.9 7.3-2.7 1.7-5.7 4.6-6.8 6.4-2 3.2-2.7 9.2-1.2 10.1.5.3 1.5 3 2.2 6.2.8 3.1 2 5.8 2.7 6.1 1.5.6 10.3-1.5 11.7-2.8 1.7-1.6-.4-2.2-3-1-3.6 1.6-4.2.7-2-3.1 1.4-2.2 1.5-2.9.5-2.6-.8.2-2.3 2.1-3.4 4.1s-2.3 3.7-2.6 3.7c-.7 0-2.9-9.3-2.9-12.1 0-3.3 2.8-6.6 10.1-11.5 3.8-2.6 7.3-5.2 7.7-5.9 1.5-2.6 7.4-8.7 7.9-8.2.3.3-.8 2.5-2.5 4.9-4.5 6.6-11.2 17.9-11.2 18.9 0 2.3 1.9.3 5.5-5.8 2.2-3.7 5.1-8.6 6.5-11 1.4-2.3 3.5-5.5 4.7-7 2.2-2.8 2.2-2.8 7.3 2.5 5 5.1 5.1 5.4 4.5 9.5-.4 2.3-1.1 5-1.7 6-1.3 2.5-10.1 9.3-14.8 11.3-2.2 1-4 2.4-4 3.1s.2 1.3.5 1.3c.9 0 8.1-4.3 15-9 3.9-2.6 16.2-10.8 27.5-18.3 11.3-7.4 21.8-14.9 23.4-16.6 2.8-3 3.3-3.1 10.9-3.1 5.7 0 7.8-.3 7.5-1.2-.3-.8-2.7-1.2-7.1-1.1-6.8.1-6.8.1-6.1-3.2.5-2.7 0-3.8-2.4-6.6-2.9-3.4-2.9-3.4-1.1-6.4 2-3.2 2.6-11 .9-12-3.6-2.2-6.9-2.2-10.6.1m6.6 1.4c0 .6-1 1.4-2.2 1.9-1.3.5-3.9 2.2-5.9 3.7-1.9 1.6-8.7 6.2-15 10.3-32.5 21.2-37.7 24.9-44.5 31.8-3.9 4-7.6 7.3-8.2 7.3-1.7 0-7.3 5.1-9.3 8.5-1.8 2.8-1.9 2.9-1.9.6 0-1.4 1.4-3.6 3.8-5.7 6.2-5.8 14.5-13.9 18.9-18.7 2.3-2.4 6.6-5.9 9.5-7.6s14.8-9.4 26.3-17.1c11.6-7.7 21.9-14.4 23-14.9 2.7-1.3 5.5-1.3 5.5-.1m3 3.8c0 1.5-.7 3.8-1.6 5-1.4 2-1.8 2.2-3.3.9-.9-.8-2.5-1.7-3.5-2.1-1.8-.6-1.7-.8 1-2.2 1.6-.8 3.6-2.2 4.4-3 2.1-2.1 3-1.7 3 1.4m-2.9 11.4c7.8 9.9 5.2 13.2-25 32.9-10.1 6.6-18.5 11.8-18.8 11.5-.3-.2 0-1.3.6-2.4 2.7-5 1-9.5-5.8-15.7-3.6-3.3-3.6-3.3-.8-4.6 1.5-.7 2.7-1.6 2.7-2.1 0-.4.4-.8 1-.8.5 0 6.9-4 14.2-8.8 22.4-14.8 23.1-15.2 25.4-15.2 1.6 0 3.6 1.6 6.5 5.2M562.3 974.2c-3 3.1-4.2 5.8-2.7 5.8s6.5-6.2 6.2-7.6c-.2-1.1-1.2-.6-3.5 1.8M697.1 981.9c-.4.9-.9 6.4-1 12.3-.2 10.6-.2 10.6 3.6 11.2 2.1.3 21.9.8 44.1 1.2l40.2.7v-25.2l-5.2-.5c-2.9-.3-22.3-.7-43.1-.9-34-.4-37.9-.3-38.6 1.2m82.9 2.8c.3.5.4 5.2.2 10.7l-.4 9.9-6.2-.7c-3.3-.3-16.7-.7-29.6-.8s-28.1-.3-33.7-.6l-10.3-.4v-20.1l39.7.6c21.8.4 39.9 1 40.3 1.4"/><path d="M706 988.9c0 4.1.3 4.9 1.5 4.5 1.9-.8 3 2 1.6 4.3-.6 1-1.1 1.2-1.1.5 0-.6-.7-1.2-1.6-1.2-1.1 0-1.4.5-1 1.6.3.9.6 1.8.6 2 0 .9 3.7.3 4.8-.8 2-2 1.5-7.6-.8-9-2.6-1.7-2.6-3.8.1-3.8 3 0 1.8-2.4-1.4-2.8-2.6-.3-2.7-.2-2.7 4.7M717.9 985.2c0 .7 0 3.9.1 7.1.1 3.3-.4 6.4-1 7.3-1 1.2-.8 1.4 1.5 1.4 2.1 0 2.6-.4 2.1-1.6-.3-.9-.6-4.7-.6-8.5 0-3.9-.4-6.9-1-6.9-.5 0-1 .6-1.1 1.2M737.1 987.2c-.5 1.3-.7 2.6-.4 3 .7 1.4 2.3.9 2.3-.7 0-.8.5-1.5 1-1.5 1.6 0 1.2 2.2-1.5 7.4-2.7 5.3-2.6 5.8.9 6.3 2.8.4 5.1-2 4.2-4.3-.6-1.6-.8-1.5-2.1.2-2 2.6-1.9 0 .1-3.1 2.3-3.5 1.5-8.9-1.4-9.3-1.6-.2-2.5.3-3.1 2M747 987.5c0 2.6 1.5 3.4 2.3 1.2 1-2.8 1.5.1.7 3.8-1.4 5.8-1.2 9.7.3 9.3.6-.3 1.5-2.9 1.8-5.9.4-3 1-6.6 1.4-8.2.7-2.6.6-2.7-2.9-2.7-3.2 0-3.6.3-3.6 2.5M759 986.5c-.6.8-.9 1.9-.5 2.6.6.8 1 .8 1.6-.2 1.5-2.5 2.3.1.8 2.8-1.1 2-1.1 2.7-.1 3 1.4.5 1.7 4.3.3 4.3-.5 0-1.1-.5-1.3-1.2-.2-.6-1-.8-1.6-.4-1.8 1.1.4 4.6 2.9 4.6 1.1 0 2.3-1 2.8-2.3.9-2.3.6-12.1-.4-13.7-.9-1.5-3.1-1.2-4.5.5M725.7 992.6c-1.3 1.3.5 2.4 3.9 2.4 2.4 0 3.4-.4 3.2-1.3-.5-1.3-6-2.2-7.1-1.1M553.3 984.5c-2 2.2-2.7 3.5-1.8 3.5 1.4 0 6.5-4.8 6.5-6.2 0-1.6-1.6-.7-4.7 2.7M540.8 990.5c-1.3.5-4.3 3.2-6.8 5.9-8.6 9.3-9.7 12.5-6 17.6 1.4 1.9 3.1 3 5.2 3.2l3.2.3-.1 38c-.1 20.9-.2 38.2-.2 38.5-.1.3-4 .2-8.8-.2-22-1.9-47.9-4-59.8-4.8-7.1-.5-19.7-1.4-28-2-8.2-.6-20.5-1.3-27.3-1.7-11.6-.6-12.5-.8-13.9-3-2.3-3.5-5.1-4.6-11.3-4.5-9.7.3-16.9 2.3-19.2 5.4-1.9 2.8-1.9 2.8.2 5.6 2.8 3.5 4.6 4 16.6 4.1 8.6.1 10.3-.2 11.7-1.7 1-1 1.7-2.4 1.7-3.2 0-1.5 4.6-1.3 49.5 2 50.8 3.7 73.3 5.4 83.2 6.5l5.2.6.3 8.6c.2 5.8.7 8.8 1.6 9.1s1.2-10.1 1.2-49.5v-49.9l3.3-3.4c1.7-1.9 4.3-5.1 5.7-7 1.3-1.9 3-4.1 3.7-4.8 1.3-1.3.8-6.1-.8-9.4-1-1.8-6.2-2-10.1-.3m8.2 1.4c0 .5-.7 1.6-1.5 2.5-1.2 1.2-1.3 2-.4 4 1.1 2.3.8 3.1-3.2 8.1-2.4 3.1-4.9 6.3-5.5 7.1-1.6 2-6.1 1.7-8.4-.6-3.6-3.6-2.4-6.8 5.3-14.7 3.9-4 5.6-5.1 7.2-4.7 1.3.3 2.7-.1 3.4-1 1.5-1.8 3.1-2.1 3.1-.7m.7 6.3c-.3.7-.5.2-.5-1.2s.2-1.9.5-1.3c.2.7.2 1.9 0 2.5M395 1082c2.4 2.4 2.5 3.8.4 6.8-1.4 2-2.3 2.2-10.2 2.2-9.5 0-13.5-.7-12.6-2.2.3-.5-.3-1.2-1.5-1.5-2.4-.6-2.8-2.3-.6-2.3 1.8 0 2-1.7.3-2.3-.7-.2-.2-.5 1.2-.5s4.1-.5 6-1c1.9-.6 6.1-1 9.3-1.1 4.5-.1 6.1.3 7.7 1.9"/><path d="M539 998.8c-3.1.5-5 2-5 4 0 1.3.2 1.3 1.8-.1 1-1 2.4-1.7 3-1.7 1.5 0 1.6 3.6.2 4.5-.5.3-1 1.3-1 2.2 0 2.6 2.7-.3 4.1-4.4 1.3-4 .5-5.1-3.1-4.5M532.6 1007.6c-1 2.7-.7 3.4 1.9 3.4 2.8 0 2.9-.3 1.5-3.1-1.3-2.3-2.6-2.4-3.4-.3M376 1086c0 1.6.5 3 1 3 .6 0 1-.9 1-2 0-1.7.7-2 5-2 3.9 0 5 .3 5 1.6 0 .9.6 1.4 1.3 1.1.6-.2 1.2-1.2 1.2-2.3 0-1.7-.9-1.9-7.2-2.2-7.3-.3-7.3-.3-7.3 2.8"/><path d="M380 1088c0 .5 1.4 1 3 1 1.7 0 3-.5 3-1 0-.6-1.3-1-3-1-1.6 0-3 .4-3 1M593.6 1027.6c-1.8 1.7-2.1 4.4-.6 4.4.6 0 1-.8 1-1.8 0-1.1 1.2-.3 3.9 2.8 2.1 2.5 4.2 4.2 4.7 3.7.4-.4-.5-2-1.9-3.5-1.5-1.6-2.7-3.8-2.7-5 0-2.6-2.2-2.9-4.4-.6M604.1 1039c0 2.1 4.7 7.2 6.1 6.8.7-.3-.4-2.1-2.5-4.4s-3.6-3.3-3.6-2.4M611 1047.7c.1 1.9 7.1 8.6 8 7.7.5-.5-.5-2.4-2.6-4.7-3.2-3.4-5.5-4.7-5.4-3M623 1064.3c0 3.5 1.5 6.1 6.6 11.7 7.6 8.2 8.4 9.5 8.4 13 0 3.9 1.4 6 4 6 3.2 0 6.9-2.5 8.4-5.7 1.5-3.3 1.5-3.3 22.3-3.5 28.1-.4 27.5-2.2-.9-2.6-12.1-.1-21.7-.7-22.2-1.2-.6-.6-1.9-1-3-1-1.4-.1-4.4-2.9-8.6-8.2-9.3-11.5-15-14.8-15-8.5m6.4 1.5c.2.4-.4 1.3-1.5 2-1.5 1-1.9 1-1.9-.1 0-2.4 2.3-3.6 3.4-1.9m2.6 3c0 1-2.2 3.2-3.2 3.2-1.3 0-.9-2.8.5-3.3 1.9-.8 2.7-.8 2.7.1m2.3 2.8c.7.8-1.7 3.4-3.2 3.4-1.4 0-1.4-1.3.1-2.8 1.3-1.3 2.2-1.5 3.1-.6m3.1 3.3c.8 1.2-2.1 3.4-3.4 2.6-.8-.5-.8-1.1.1-2.1 1.3-1.6 2.5-1.8 3.3-.5m2.6 4.1c0 1.2-2.8 2.5-3.6 1.7-.9-.9.6-2.7 2.2-2.7.8 0 1.4.5 1.4 1m1.7 3.7c-.9.9-1.9 1.4-2.3 1.1-1-1 .6-2.8 2.4-2.8 1.5 0 1.5.1-.1 1.7m7.2 1.7c.9 1 .9 2 0 4-1.2 2.6-2.9 3.5-2.9 1.6 0-.6.5-1 1-1 .6 0 1-.5 1-1 0-2.5-3.1-.7-3.7 2-.7 3.9-3.7 3.7-4.1-.2-.6-4.7 5.9-8.8 8.7-5.4"/><path d="M695.4 1071.9c-.2.2-.4 6-.4 12.8v12.3l29.3.1c16 .1 35.7.2 43.6.2l14.4.2.3-12.2.3-12.1-6.2-.4c-3.4-.2-20.1-.5-37.2-.7-17-.1-33.9-.3-37.3-.4-3.5-.1-6.6 0-6.8.2m72.4 2.8 11.2.6v19.7h-80v-21h28.8c15.8 0 33.8.3 40 .7"/><path d="M704.7 1075.7c-.4.3-.7 2.6-.7 5 0 4 .2 4.4 2 3.8 1.7-.5 2-.2 2 2.4 0 1.7-.4 3.1-1 3.1-.5 0-1-.5-1-1 0-.6-.4-1-1-1-1.6 0-1.2 2.6.6 4.1 1.4 1.1 1.9 1 3.6-1.1 2.5-3 2-7.2-1-8.5-2.6-1.1-2.5-4.2.1-3.7 1.1.2 1.7-.4 1.7-1.8s-.6-2-2.3-2c-1.3 0-2.7.3-3 .7M716.7 1075.6c-.4.4-.7 4.5-.7 9.1 0 7.4.2 8.3 1.8 8.3 1.7 0 1.8-.8 1.4-8.3-.4-8-1.1-10.5-2.5-9.1M736.4 1077.6c-1.3 1.8-1.4 2.8-.6 3.6s1.4.5 2.1-1.3c1-2.4 1-2.4 1 .3.1 1.4-.8 4.7-1.8 7.1-2.2 5.1-2 5.7 2.1 5.7 2.5 0 2.8-.3 2.8-3.3-.1-2.9-.2-3-1.4-1.5-2.3 3.2-2.7 1.9-.6-2.2 2.5-5 2.5-8.2 0-9.8-1.7-1-2.2-.9-3.6 1.4M746 1078.5c0 2.9.7 3.2 2.7.7 1.3-1.5 1.4-1.4.9 1.3-1.4 7.6-1.8 12.5-1 12.5.6 0 1.6-3.3 2.3-7.2.7-4 1.6-7.8 1.8-8.5.4-.9-.6-1.3-3.1-1.3-3.2 0-3.6.3-3.6 2.5M757 1080.5c0 3.8.3 4.5 2 4.5 1.5 0 2 .7 2 2.4 0 1.4-.4 2.8-1 3.1-.5.3-1 .1-1-.4 0-.6-.7-1.1-1.5-1.1-1.8 0-1.9 1.2-.3 2.8 2 2 4.4 1.4 5.6-1.3 1.7-3.8 1.5-5.1-1.3-7.3-3-2.4-3.2-4.2-.5-4.2 1.1 0 2-.7 2-1.5q0-1.5-3-1.5c-2.9 0-3 .2-3 4.5M767.6 1078.2c-1.9 2.6-2.1 8.6-.4 12.3.8 1.8 1.9 2.5 3.9 2.5 2.5 0 2.7-.3 3.1-4.5.2-3.7 0-4.5-1.3-4.5-1.2 0-1.6.6-1.2 2 .3 1.1.2 2.7-.1 3.6-.5 1.3-.9 1.4-2.1.4-1.9-1.6-1.9-8-.1-10.6 1.4-1.8 1.5-1.8 2.1-.2 1 2.6 2.7 2.2 2.3-.5-.4-3.1-4.2-3.5-6.2-.5M724.5 1084c-.3.6 0 1.3.9 1.6 2.2.8 5.9.1 6.4-1.4s-6.4-1.7-7.3-.2M358 1086c0 .5 1.6 1 3.5 1s3.5-.5 3.5-1c0-.6-1.6-1-3.5-1s-3.5.4-3.5 1M402 1096.1c-.8.5-4.6 2.6-8.4 4.9-3.7 2.2-7 4-7.3 4-.2 0-2.3 1.2-4.6 2.7-2.3 1.6-5.1 3.3-6.2 3.9-2.1 1.1-11 12.4-14.8 18.6-1.9 3.4-4.9 5.2-26 15.8-23.8 12-23.8 12-34.3 12-7.4 0-10.5.3-10.2 1.1s3.8 1.1 10.8 1c10.4-.2 10.4-.2 35-12.6 18.4-9.2 25-12.1 26.2-11.4 1.8 1 5.3-.2 9.8-3.1 1.4-1 5.2-3.2 8.5-5s8.4-4.7 11.3-6.3c3-1.6 6.6-4.7 8-6.8 8.8-12.6 10.1-16.7 6-18.6-1.3-.6-3-.7-3.8-.2m3.7 4.4c.2 1.1-1.9 5.1-4.5 8.9-4 5.7-6.1 7.7-13.5 12.2-4.9 3-9 5.4-9.2 5.4s-3.1 1.6-6.4 3.5c-5.9 3.5-10.1 4.5-10.1 2.4 0-1.8 8.2-13.1 12.5-17.4 2.3-2.2 5.9-5 8.1-6.1 2.1-1.2 7.5-4.2 11.9-6.8 8.5-4.9 10.9-5.3 11.2-2.1"/><path d="M397.5 1102.7c-2.8 1.4-6.2 3.4-7.7 4.4-1.4 1.1-2.9 1.9-3.3 1.9-.3 0-2.6 1.3-5 3-2.4 1.6-4.7 3-5.2 3-1.8.1-11.1 14.6-10 15.6.7.7 9-3.3 16.6-7.8 3.4-2.1 6.7-3.8 7.2-3.8 3.3 0 15-16.3 13.2-18.1-.5-.5-3.1.3-5.8 1.8m1.7 4.5c-3.6 5.7-5.4 7.2-16.2 13.4-12.1 6.9-14.5 8-13.3 6.1 4.7-7.7 7.2-10 17.1-15.4 2.3-1.3 6.3-3.7 8.9-5.3s4.9-2.8 5.1-2.5c.2.2-.5 1.9-1.6 3.7M408.8 1117.8c-20.6 12.6-29.6 18.1-32.8 19.8-13.6 7.4-21.2 12.6-28 19.5-4.1 4.2-9.3 8.8-11.5 10.1-2.2 1.4-4.9 4.2-6 6.2-1.9 3.5-1.9 3.8-.2 8.5 2.2 6.3 2.2 10 0 10.8-1 .4-6.4 3.7-12 7.4-10.1 6.8-10.1 6.8-18.5 7.1-10.7.4-10.2 2.3.7 2.3 8-.1 8-.1 19.5-7.8 9.3-6.2 12-7.6 14.2-7.1 3.1.6 10.8-1.2 10.8-2.6 0-1.3-1.2-1.3-4.4 0-2.5.9-3.7-.2-1.6-1.5 1.3-.8 1.3-2.5 0-2.5-.6 0-1.6 1.1-2.2 2.5-1.7 3.8-2.8 3-2.8-1.9 0-2.5-.4-4.8-1-5.1-1.6-1-1.1-4 1.1-6.9 1.1-1.4 5.1-4.4 8.8-6.6 3.7-2.1 8-5.5 9.5-7.5 1.5-1.9 3.9-4.7 5.4-6.1 5.8-5.5 5.9-4.1.4 3.3-10.7 14.2-15.5 22.2-11.7 19.5.6-.4 3.9-5 7.4-10.2 7.9-11.8 10.4-14.6 16.1-17.6 8.7-4.8 15.6-8.7 29.6-17 7.8-4.6 15-8.4 16.2-8.4s3.7 2 6.2 5.1c4.3 5 4.3 5 3 9-2 5.9-6.1 9.7-18.5 17.1-19.2 11.4-31.5 18.1-32.2 17.5-.2-.3 0-1.4.6-2.5.6-1.2 1.1-4 1.1-6.5 0-3.5-.6-5.1-3.4-8.3-4.3-5-5.9-3.8-1.7 1.3 3.7 4.5 4 9 1.1 15.1-2 4.1-8.3 8.7-16.7 12.1-1.8.7-3.3 1.7-3.3 2.2 0 2.1 4.2.5 13.1-4.9 5.2-3.1 10.8-6.4 12.4-7.2 1.7-.8 8.2-4.5 14.5-8.1 28.2-16.1 30.9-18.1 34.1-25.7 2.4-5.5 2.4-6.3-.2-9.6-2-2.6-2-2.8-.4-6.2 1.9-4.1 1.4-8.7-1.2-11.6-2.7-3-7.1-2.2-15.5 3m12.7-1.9c-1.1 1-17.5 11.1-18 11.1-.2 0-4 2.2-8.5 5-4.5 2.7-8.3 5-8.5 5-.3 0-5 2.7-10.5 6s-10.5 6-11 6c-.6 0-1 .4-1 1 0 .5-.7 1-1.5 1-.9 0-5.1 3.6-9.3 7.9s-9.5 8.8-11.7 9.9-5.5 3.4-7.2 5.1c-1.8 1.7-3.3 2.8-3.3 2.3 0-1.8 3.5-5.5 8.8-9.1 3.2-2.1 7.9-6.3 10.4-9.3 3.8-4.5 15.2-12.8 17.5-12.8.3 0 1.7-.8 3.1-1.9 1.5-1 8.8-5.5 16.2-9.9 7.4-4.3 17.3-10.2 22-13.1 4.7-2.8 9.6-5.1 11-5.1s2 .4 1.5.9m3 3.1c.4 1.1.4 3.4 0 5-.8 3.5-3.4 4-5.3.9-1-1.6-2-1.9-4-1.5-2.4.5-2.5.4-.8-.7 1-.6 3.2-2.2 5-3.4 3.9-2.7 4.3-2.7 5.1-.3m-13.5 6.5c0 .6-7.6 4.5-8.7 4.5-.9 0 6.8-4.8 8-4.9.4-.1.7.1.7.4m-14.9 9c-2.4 1.4-4.6 2.3-4.8 2.1-.5-.5 6.7-4.5 8.2-4.5.6-.1-1 1.1-3.4 2.4m-6.1 2.9c0 .3-.5.8-1.2 1.2s-.8.3-.4-.4c.7-1.2 1.6-1.6 1.6-.8m-3 2.1c0 .3-.2.5-.5.5s-.5-.2-.5-.5.2-.5.5-.5.5.2.5.5m-2 .9c0 .5-6.9 4.6-7.8 4.6-.6-.1 6.9-5 7.6-5 .1 0 .2.2.2.4m-9.5 5.6c-.3.5-1.2 1-1.8 1-.7 0-.6-.4.3-1 1.9-1.2 2.3-1.2 1.5 0m-3.8 2.7c-.4.3-1 .3-1.4 0-.3-.4 0-.7.7-.7s1 .3.7.7m-3.7 1.8c0 .3-.2.5-.5.5s-.5-.2-.5-.5.2-.5.5-.5.5.2.5.5m-2 1c0 .3-.2.5-.5.5s-.5-.2-.5-.5.2-.5.5-.5.5.2.5.5M498.8 1128.9l-.3 12 8 .3c4.4.2 24 .4 43.5.3h35.5l.3-12.3.3-12.2h-87zm83.2.6v10.6l-32.2-.3c-17.8-.1-35.8-.4-40-.6l-7.8-.4V1119h80z"/><path d="M509 1121.5c-1.6 1.9-1.6 13.3-.1 14.8 1.9 1.9 4.6-.6 4.9-4.7.3-3.1 0-3.8-1.7-4.3-1.3-.3-2.1-1.4-2.1-2.5 0-1.6.3-1.8 1.3-.9 1.4 1.1 2.7.6 2.7-1 0-.5-.9-1.3-1.9-1.8-1.4-.8-2.2-.7-3.1.4m3 9.9c0 1.4-.4 2.8-1 3.1-.6.4-1-.7-1-2.4s.5-3.1 1-3.1c.6 0 1 1.1 1 2.4M519.4 1120.8c-3 2-2.6 8.7.7 9.7 1 .4 1.9 1.3 1.9 2.1 0 1.1-.6 1.3-2 .9-2.4-.8-2.9 2.2-.5 3.1 3 1.2 4.5-1.5 4.5-8 0-7.1-1.6-9.9-4.6-7.8m2.6 5.2c0 1.6-.4 3-1 3-.5 0-1-1.4-1-3 0-1.7.5-3 1-3 .6 0 1 1.3 1 3M569.9 1120.4c-.2.2-.3 4.1-.1 8.5.3 5.6.7 8.1 1.6 8.1.8 0 1.1-1 .8-3.1-.3-2.2-.1-3 .7-2.5.6.4 1.1 1.8 1.1 3.2 0 1.8.5 2.4 2.1 2.4 1.1 0 1.9-.3 1.7-.8-.2-.4-1.2-2.4-2.3-4.5-1.8-3.5-1.8-3.9-.2-7.2 1-2.1 1.2-3.7.7-4-.6-.4-1.5.6-2.2 2.2-1 2.5-1.2 2.6-1.6.8-.4-2.2-1.6-3.8-2.3-3.1M540 1121.2c-.1.2-.2 3.8-.3 8.1-.2 7.5-.1 7.7 2.2 7.7 1.7 0 2.2-.4 1.7-1.6-.3-.9-.6-4.5-.6-8 0-5-.3-6.4-1.5-6.4-.8 0-1.5.1-1.5.2M548 1123.5c0 1.4.5 2.5 1 2.5.6 0 1-.7 1-1.5s.5-1.5 1.1-1.5c1 0 .8 5.6-.4 12.4-.1.5.3 1 1 1.3s1.4-1.6 1.9-5.4c.3-3.2 1-6.8 1.5-8.1.8-2 .6-2.2-3.1-2.2-3.6 0-4 .3-4 2.5M559.9 1123.1c-1.3 2.6-.7 11.5 1 13.2 3.3 3.3 6.8-5.2 4.9-12-1.1-3.9-4.1-4.5-5.9-1.2m4.1 5.9c0 3.3-.4 6-.9 6-1.2 0-1.7-3.4-1.2-8.3.5-5.9 2.1-4.3 2.1 2.3M527.5 1129c-.3.5 0 1.3.9 1.6 2.1.8 6.1.1 6.1-1.1 0-1.4-6.2-1.9-7-.5M199.8 1147.6c-.3.5-.5 6.1-.4 12.4l.1 11.5 4.5.6c2.5.4 22.4.7 44.3.8l39.7.2V1148h-6.7c-3.8 0-23.5-.3-43.9-.7-21.9-.3-37.3-.2-37.6.3m60.9 2.4H285v21.3l-40.6-.6c-22.3-.3-40.8-.7-40.9-.9-.3-.3-.8-17.4-.6-20.2.1-.5 7-.6 16.8-.3 9.1.4 27.6.7 41 .7"/><path d="M208.8 1153.2c-.6 4 .3 6.9 2.1 6.6 1.1-.2 1.7.6 1.9 2.4.2 2-.1 2.8-1.2 2.8-.8 0-1.6-.6-1.9-1.3-.2-.6-.8-.8-1.3-.4-.9.9.6 3.9 2.3 4.4.6.2 1.8-.4 2.7-1.3 2.4-2.4 1.7-7.6-1.2-8.9-2.8-1.2-2.5-3.9.6-4.3 2.9-.4 1.8-2.2-1.3-2.2-1.7 0-2.5.6-2.7 2.2M220.9 1151.2c0 .1-.1 4-.2 8.6-.2 7 0 8.2 1.4 8.2s1.6-1.3 1.5-8.2c-.1-5.5-.5-8.3-1.3-8.5-.7-.3-1.3-.3-1.4-.1M241.3 1152.5c-1.5 1.6-1.7 4.5-.5 4.5.5 0 1.4-1 1.9-2.3.9-1.9 1.2-2 1.8-.5.4.9-.4 4-1.9 7.2-1.4 3.1-2.6 5.9-2.6 6.1 0 .3 1.6.5 3.5.5 3.8 0 5.7-2.2 3.6-4.3-.8-.8-1.1-.8-1.1.1 0 .7-.6 1.2-1.4 1.2-1.2 0-1.1-.8.5-4.4 1.5-3.4 1.7-5 .9-7-1.1-2.9-2.8-3.3-4.7-1.1M253.8 1151.8c-2.3.3-2.8.8-2.8 3 0 2.5.1 2.5 1.4.6 2.1-2.8 2.8-1.3 1.7 3.7-1.3 5.6-1.4 8.9-.2 8.9.6 0 1.3-2.1 1.6-4.8.4-2.6 1.1-6 1.6-7.6 1.1-3.5.4-4.3-3.3-3.8M263.4 1152.4c-1 .8-1.4 1.8-1 2.5.6.9 1.2.7 2.2-.6 1.2-1.7 1.3-1.6 1.4.7 0 1.5-.5 3.1-1.2 3.8-.9.9-.8 1.5.7 2.6 1.1.8 1.6 1.9 1.2 3-.8 2-2.7 2.1-2.7.1 0-.8-.4-1.5-1-1.5-1.8 0-1.1 3.5 1 4.8 3.2 2 5-1.9 4.3-9.5-.6-6.5-1.9-8.1-4.9-5.9M273.5 1159.2c-2.2 9.3-2.2 9-.7 9.5q1.2.45 1.2-2.7c0-2.5.4-3.1 1.8-2.8 1 .2 1.7 1.3 1.7 2.7s.6 2.6 1.3 2.9c1.5.5 1.6-2.7.2-7.7-.5-2-1.2-4.8-1.5-6.4-.9-4.5-2.2-3.1-4 4.5m2.2 1c-.3.8-.6.5-.6-.6-.1-1.1.2-1.7.5-1.3.3.3.4 1.2.1 1.9M228.5 1160c.3.5 2.2 1 4.1 1s3.4-.5 3.4-1c0-.6-1.8-1-4.1-1-2.4 0-3.8.4-3.4 1M335.6 1177.2c-.8 1.2-1.3 2.6-.9 3.1.3.5.9.3 1.4-.4.7-1.1 1.6-.6 3.8 2.1 1.6 1.9 3.3 3.1 3.7 2.7s-.5-2-2-3.5c-1.7-1.9-2.4-3.5-2-4.5.9-2.5-2.2-2.1-4 .5M345 1186.8c0 1.2 4.9 5.6 5.5 5 .7-.7-3.4-5.8-4.6-5.8-.5 0-.9.4-.9.8M353 1195.4c0 1.6 4.8 6.2 5.6 5.3.7-.7-2.6-5.4-4.3-6.1-.7-.3-1.3 0-1.3.8M200.4 1195.9c-.2.2-.4 6-.4 12.8v12.3h18.8c10.3 0 29.8.3 43.4.7 16.7.4 25.2.2 26-.5 1-.7 1.2-4.1 1-12.5l-.3-11.6-5.2-.5c-6.1-.7-82.7-1.3-83.3-.7m70.9 3.1h14.8l-.3 10.1-.3 10.2-40.4-.2c-22.3-.1-40.8-.4-41.3-.7-.4-.3-.8-5-.8-10.6v-10l26.8.6c14.7.3 33.4.5 41.5.6"/><path d="M209.7 1199.7c-.4.3-.7 2.6-.7 5 0 3.8.2 4.3 2.2 4 1.7-.1 2.4.4 2.6 2.2.3 2.1.1 2.3-2.3 1.7-2.2-.6-2.6-.4-2.3 1.1.5 2.5 3.9 2.9 5.5.7 2.1-2.8 1.6-6.2-1.2-8-3-2-3.3-4.4-.5-4.4 1.1 0 2-.7 2-1.5 0-1.5-4-2.1-5.3-.8M222 1200.2c-.4 2.5-.2 16 .3 16.4.3.4 1.4.4 2.3 0 1.3-.5 1.5-.9.6-1.8-.7-.7-1.2-4.2-1.2-8 0-3.9-.4-6.8-1-6.8-.5 0-1 .1-1 .2M242.2 1201.2c-1.5 1.5-1.6 4.8-.2 4.8.6 0 1.5-1 1.9-2.3.8-1.9 1-2 1.6-.5.4 1-.4 3.8-1.9 6.8-1.4 2.8-2.6 5.6-2.6 6.1s1.6.9 3.5.9c3.3 0 3.5-.2 3.5-3.3-.1-2.9-.2-3-1.4-1.5-2.3 3.2-2.7 1.9-.6-2.2 1.1-2.1 2-4.7 2-5.8 0-2-1.8-4.2-3.5-4.2-.6 0-1.6.5-2.3 1.2M252 1202.5c0 2.6 1.5 3.4 2.3 1.2.2-.6.8-.9 1.2-.5.5.5.3 2.5-.3 4.7-1.4 4.6-1.6 9.1-.3 9.1.5 0 1.4-3 2-6.8.7-3.7 1.4-7.5 1.7-8.5.4-1.4-.1-1.7-3-1.7-3.2 0-3.6.3-3.6 2.5M264 1201.5c-.9 1.1-1 1.9-.3 2.6.8.8 1.3.7 1.7 0 .4-.6 1.1-1.1 1.7-1.1 1.5 0 1 1.8-1.1 3.8-2.1 1.9-2.1 1.9 0 2.5 1.1.3 2 1.3 2 2.4 0 3.1-1.1 3.4-3.1 1-1.5-1.8-1.8-1.9-1.9-.5-.1 4.4 3.1 6.3 5.8 3.6 1.4-1.4 1.6-6.4.2-7.3-.5-.3-.6-1.5-.1-2.8 1.7-4.4-2.1-7.5-4.9-4.2M229.7 1207.6c-1.3 1.3.5 2.4 3.8 2.4 3.7 0 5.4-1.4 2.9-2.4-2.1-.8-5.9-.8-6.7 0M361.4 1207.2c.5 3.4 1.8 5.5 6.1 9.8 3 3.1 5.5 5.8 5.5 6.2 0 .6-14.3 11.3-23.7 17.6-3.4 2.3-6.5 4.6-6.8 5.2-.4.6-9.9 1-25.6 1-15.9 0-24.9.4-24.9 1 0 1.4 48.5 1.3 51.1-.1 1.2-.6 2.8-1.7 3.7-2.4.9-.8 5.8-4.3 10.7-7.9 5-3.5 10.9-7.9 13.3-9.6 3.7-2.7 4.4-2.9 5.7-1.6.8.8 1.5 3 1.5 4.8 0 6.5 4.3 7.6 10.3 2.7 2.7-2.2 3.7-3.8 3.7-5.9 0-2.9-2.4-5.1-4.6-4.3-.6.2-4.9-3.7-9.5-8.7-8.2-9-12.1-12-15.5-12-1.4 0-1.5.7-1 4.2m4-1.3c.3.5-.1 1.1-.9 1.5-.9.3-1.5 0-1.5-.9 0-1.6 1.6-2 2.4-.6m3.6 3.1c0 1.2-3.5 3.1-4.4 2.3-.8-.9 1.4-3.3 3-3.3.8 0 1.4.4 1.4 1m3 3c0 .5-.4 1-1 1-.5 0-1 .5-1 1 0 .6 1.1.8 2.5.4 3-.7 3.4 1.1.6 2.6-2.6 1.3-3.1 1.3-3.1-.4 0-.8-.7-1.7-1.6-2-1.3-.5-1.4-.9-.4-2.1 1.4-1.7 4-2 4-.5m6 5.8c0 1-4.1 3.5-4.7 2.8-.9-.8 1.7-3.6 3.3-3.6.8 0 1.4.3 1.4.8m2.5 3.1c.3.6-.3 1.5-1.4 2-2.6 1.4-3.1 1.4-3.1-.3 0-2.1 3.4-3.4 4.5-1.7m3.3 3.3c-.6 1.6-3.6 3.4-4.4 2.5-.9-.9 1.5-3.7 3.3-3.7.8 0 1.3.5 1.1 1.2m6.2 3.9c0 1.5-.5 1.9-1.9 1.4-1.9-.6-3.6 1.7-3.2 4.2.1.8-.9 1.3-2.4 1.3-3.5 0-3.4-4.1.1-6.9 3.6-2.8 7.4-2.8 7.4 0M199.5 1234.2c-.3.7-.4 6.2-.2 12.3l.3 11 10.5.6c5.7.4 26.1.7 45.2.8l34.8.1-.3-12.2c-.3-11.2-.4-12.1-2.3-12.3-1.1-.2-21.2-.6-44.8-.9-34.4-.5-42.8-.4-43.2.6m86.3 2.3c.8.3 1.2 3.3 1.2 10.5v10h-16.3c-9 0-27.9-.3-42-.7l-25.6-.6-.3-9.4c-.2-5.1-.2-9.7 0-10.1.2-.7 80.6-.4 83 .3"/><path d="M208.8 1239.2c-.6 4.1.3 6.8 2.3 6.8 1.4 0 1.9.7 1.9 2.5 0 2.7-.9 3.2-2.7 1.4-.7-.7-1.3-.7-1.7-.1-1.1 1.8 2.3 4.3 4.3 3.2 3.9-2 2.9-10-1.1-10-2.6 0-2.2-2.8.4-3.2 3.5-.5 3.4-2.8 0-2.8-2.4 0-3.1.5-3.4 2.2M221.9 1237.2c0 .2-.1 4-.2 8.6-.2 7.1 0 8.2 1.5 8.2 2 0 3.2-1.6 1.8-2.5-.5-.3-1-3.7-1-7.6s-.4-6.9-1-6.9c-.5 0-1 .1-1.1.2M243.2 1238.2c-1.5 1.5-1.6 5.8-.2 5.8.6 0 1-.9 1-2s.5-2 1-2c1.7 0 1.1 4.8-1 8.2-2.8 4.7-2.6 5.8 1.5 5.8 3.1 0 3.5-.3 3.5-2.5 0-2.6-1.5-3.4-2.3-1.3-.2.7-.7 1-1.1.7-.4-.4.3-2.5 1.5-4.8 2-3.9 2-4.3.5-6.6-1.8-2.8-2.7-3-4.4-1.3M252.7 1238.7c-1.1 1-.8 4.3.3 4.3.6 0 1-.5 1-1 0-.6.7-1 1.6-1 1 0 1.4.6 1 1.7-1.2 4.4-1.8 11.3-.8 11.3.5 0 1.4-2.8 1.9-6.3.6-3.4 1.4-7 1.8-8 .6-1.4.2-1.7-2.7-1.7-1.9 0-3.8.3-4.1.7M264 1242.5c0 4 .2 4.5 2.2 4.2 1.5-.1 2.3.4 2.6 1.7.5 2.2-1.8 4.8-2.5 2.8-.6-1.7-2.3-1.5-2.3.3 0 2.1 3.5 3.8 4.8 2.2 2.1-2.5 2.4-6.4.7-8.1-.9-.9-2.1-1.6-2.6-1.6s-.9-.7-.9-1.5.9-1.5 2-1.5 2-.7 2-1.5q0-1.5-3-1.5c-2.9 0-3 .2-3 4.5M275 1239.9c-.5 1.1-1 3.8-1 6.1 0 5.3 1.5 8 4.4 8 2 0 2.4-.6 2.9-4.2.6-4.8.4-5.3-1.9-4.4-1.3.5-1.4.9-.4 2.1 1.5 1.8.6 4.5-1.5 4.5-1.2 0-1.5-1.2-1.5-5.4 0-6 1-7.5 3.4-5 1.5 1.4 1.6 1.3 1.6-1 0-2.1-.5-2.6-2.5-2.6-1.4 0-2.9.8-3.5 1.9M230 1246c0 .5 1.8 1 4 1s4-.5 4-1c0-.6-1.8-1-4-1s-4 .4-4 1M102.3 1025.7c.4.3 1 .3 1.4 0 .3-.4 0-.7-.7-.7s-1 .3-.7.7M109.8 1033.7c.7.3 1.6.2 1.9-.1.4-.3-.2-.6-1.3-.5-1.1 0-1.4.3-.6.6"/></svg>