<svg xmlns="http://www.w3.org/2000/svg" viewBox="0 0 867.518 1221.899" fill="currentColor"><path d="M156.655 104.487c-.806 1.296 11.97 6.454 15.072 6.068 2.201-.19 2.904-.887 3.114-3.086.207-1.499-.088-2.7-.688-2.703s-1.104.895-1.109 1.995c-.011 2.5-3.712 2.683-8.002.464-4.888-2.522-7.884-3.536-8.387-2.738M255.75 105.737c-.804.796 6.77 6.43 8.47 6.438.7.003-.492-1.602-2.683-3.512-4.084-3.619-4.683-3.921-5.787-2.926M176.031 109.675c-.002.5.994 1.304 2.192 1.71 1.299.406 4.992 1.922 8.285 3.437s7.086 3.133 8.484 3.539 5.19 2.024 8.484 3.539c3.294 1.414 8.683 3.739 11.978 4.954 6.488 2.53 13.575 5.362 20.162 8.291 2.395 1.111 4.892 1.923 5.592 1.926s1.698.408 2.295.91c.498.503 2.893 1.613 5.39 2.425s9.683 3.544 15.972 6.072c12.977 5.16 46.72 17.813 54.708 20.349 4.493 1.52 5.19 2.123 5.18 4.323-.008 2 .39 2.402 1.892 2.009 4.104-.981 8.057 9.437 4.842 12.722-3.214 3.086-38.11 24.227-54.25 32.754-10.725 5.752-40.592 20.416-46.805 23.188-13.727 5.938-33.456 12.348-50.074 16.273-5.807 1.374-13.014 3.041-16.018 3.827-7.207 1.668-33.507 1.548-41.499-.288-9.19-2.042-35.354-10.26-46.434-14.61-.3-.102-.701.196-.904.795-.406 1.298 23.357 9.606 38.64 13.476 6.492 1.729 16.183 3.573 21.68 4.198 9.795 1.244 16.398.674 31.712-2.456 2.702-.488 13.38 4.46 31.235 14.342 2.794 1.512 7.88 4.336 11.472 6.352 20.25 11.192 54.55 33.048 60.126 38.373 2.988 2.714 6.959 9.132 8.042 12.737.592 1.802-.01 2.2-4.614 3.179-6.807 1.469-19.814 3.11-24.814 3.087-5.7-.026-10.913 2.75-13.133 7.14-2.32 4.39-2.43 6.49-.55 10.898 2.078 5.11 5.262 8.624 10.348 11.647 4.388 2.62 5.188 2.724 15.888 2.573 19.402-.312 45.03-6.596 51.958-12.665 6.929-6.168 9.18-17.658 4.809-23.878-2.584-3.612-2.282-4.11 4.23-6.581 2.204-.89 7.013-2.968 10.721-4.651 3.608-1.684 7.114-3.068 7.614-3.066 1.8.008 3.351 10.715 3.2 22.115-.028 6.1-.353 11.498-.755 11.996-.604.998-5.916 3.574-17.44 8.621-2.504.99-8.314 3.263-13.022 4.941-23.838 8.492-36.45 11.035-55.25 10.95-13-.06-14.499-.266-31.479-4.743-9.788-2.645-19.577-5.089-21.775-5.599-4.095-.919-9.29-2.242-13.184-3.46-1.198-.405-2.492-1.711-2.887-2.813-1.084-3.505-10.415-18.847-14.79-24.267-14.815-18.768-26.37-28.82-41.635-36.59-19.954-10.09-32.147-11.646-46.374-5.71-3.407 1.384-11.337 8.049-11.343 9.448-.009 1.9 2.196.81 5.011-2.477 6.13-6.772 19.346-10.012 31.234-7.458 21.38 4.597 44.106 20.9 61.4 44.079 7.953 10.636 14.998 22.768 13.793 23.863-.302.298-5.098-.623-10.791-2.05-10.188-2.645-10.188-2.645-19.745-12.089-13.838-13.763-28.889-24.631-42.96-30.895-5.889-2.627-9.185-3.442-15.484-3.77-7.698-.435-8.198-.338-13.013 2.94-5.216 3.477-9.848 10.456-9.365 14.258.485 3.302 2.191 1.91 3.11-2.386 1.74-8.592 10.764-13.951 21.258-12.603 6.197.728 12.489 2.556 12.485 3.456-.002.4-2.308 1.79-5.115 3.177-12.927 6.041-20.98 17.505-21.841 31.101-.32 4.299-.736 7.797-1.135 7.795-1-.004-5.247-11.724-5.727-16.126-.39-2.402-1.083-3.905-1.883-3.909-.8-.003-1.402.594-1.406 1.294-.01 2.3 4.036 14.119 6.021 17.528 2.58 4.611 2.373 6.01-.615 3.197-1.792-1.708-2.79-2.113-3.594-1.316s.192 1.8 3.185 3.414c2.693 1.512 4.584 3.42 5.078 4.923 5.51 19.925 8.972 28.141 17.513 41.08 16.189 24.674 40.919 40.086 56.341 35.256 18.026-5.618 28.048-10.473 36.58-17.734 3.012-2.487 6.831-6.67 8.543-9.361 1.914-3.092 3.421-4.585 4.52-4.28 9.888 2.745 28.47 6.63 43.56 8.998 22.084 3.4 55.52-4.548 91.598-21.585 16.637-7.924 42.108-23.509 42.118-25.809.007-1.5.608-1.797-11.026 5.75-27.582 17.975-63.452 33.312-89.174 38.196-9.709 1.856-33.209 1.75-43-.095-39.766-7.78-43.758-9.399-48.913-19.323-7.534-14.634-12.2-21.955-21.049-33.495-2.784-3.513-4.77-6.622-4.469-6.82.403-.499 8.294 1.437 66.626 16.502 11.487 2.952 32.285 3.446 45.996 1.109 9.307-1.558 25.127-5.987 33.542-9.348 1.102-.395 5.81-2.274 10.519-4.053 11.42-4.348 34.774-16.242 46.006-23.291.1-.2.004-.8-.394-1.402-.496-.802-1.196-.705-2.301.29-2.509 1.988-20.254 11.908-20.752 11.406-.199-.201-.087-2.9.227-5.9.524-5.397.726-5.696 4.734-7.578 8.519-4.061 12.63-6.643 11.834-7.446-.498-.503-4.204.88-8.314 3.062l-7.418 4.066-1.263-8.306c-.68-4.503-1.358-9.206-1.452-10.506-.19-2.001 1.815-3.292 15.247-10.231 8.42-4.362 18.344-9.717 21.953-11.8 3.61-2.184 7.017-3.569 7.415-3.167.498.502.677 5.103.554 10.203l-.343 9.298-8.524 5.261c-7.721 4.765-10.633 7.352-8.333 7.363.5.002 4.41-2.28 8.622-4.961 4.213-2.781 8.323-4.962 9.023-4.96.7.004 2.395 1.212 3.588 2.617 2.686 3.112 2.787 3.013-7.544 9.766-4.313 2.78-8.026 5.664-8.23 6.363-.405 1.298 9.721-4.456 17.246-9.822 2.307-1.69 7.022-4.868 10.633-7.252 13.74-8.838 19.56-13.211 24.28-17.69 5.022-4.777 9.861-13.455 9.88-17.555.01-2.1.11-2.2 2.403-.69 1.296.906 3.585 3.317 4.976 5.423 2.185 3.11 2.578 4.812 2.55 10.912-.031 6.9-1.37 15.594-2.99 19.686-2.628 6.389-6.564 14.27-7.972 15.964-2.413 2.89-14.657 12.534-30.81 24.36-7.726 5.666-14.248 10.436-14.449 10.535-.2.2-.103.7.195 1.101 1.394 1.307 34.305-22.944 43.346-32.003 6.027-5.973 9.452-11.458 11.586-18.948.61-2.197 1.625-5.393 2.132-6.99.508-1.698 1.229-6.395 1.548-10.493.63-6.898.435-7.899-2.241-13.01-1.785-3.409-4.271-6.42-6.565-7.93-3.689-2.417-3.689-2.417-3.656-9.717.107-23.4-13.202-43.56-43.7-66.2-15.946-11.772-20.233-14.791-32.4-22.047-12.266-7.455-31.125-16.641-34.225-16.655-.9-.004-2.995-1.114-4.588-2.52-1.694-1.409-3.59-2.317-4.29-2.12-.702.296-3.4-.316-5.995-1.328-5.19-2.123-9.583-3.743-27.254-10.223-15.474-5.67-37.036-14.069-39.131-15.178-.997-.605-2.196-1.01-2.796-1.013s-2.895-.913-5.29-1.924c-2.296-1.11-6.987-3.032-10.382-4.247-3.494-1.316-6.287-2.729-6.286-3.129.002-.3 1.606-1.192 3.509-1.784 3.004-.986 4.913-2.977 2.813-2.987-1.6-.007-7.311 2.467-7.314 3.167-.002.4-.604.797-1.404.794-1.3-.006-24.259-9.11-33.04-13.15-5.29-2.424-11.678-5.054-12.078-5.055-.2-.001-.402.398-.404.898m168.393 68.065c34.923 17.158 71.994 45.527 83.91 64.181 3.972 6.118 5.053 10.323 3.147 11.515-.5.297-1.298-.406-1.592-1.608-1.578-5.007-10.148-11.446-50.83-37.83-13.46-8.762-27.222-17.024-29.918-18.037-1.098-.405-2.694-1.312-3.49-2.016-.797-.703-3.89-2.417-6.783-3.93-4.19-2.12-5.186-3.024-4.58-4.321 1.718-4.092 1.427-5.894-1.455-10.007-1.69-2.308-2.58-4.212-2.08-4.21.6.003 6.787 2.831 13.671 6.263m-6.364 14.071c3.292 1.815 6.084 3.628 6.281 4.229.098.5-4.318 3.98-10.034 7.554-37.71 24.23-93.838 52.175-121.475 60.25-2.203.69-4.907 1.577-6.01 2.072s-3.104 1.086-4.506 1.38a289 289 0 0 0-7.708 1.765c-5.205 1.176-5.405 1.075-12.788-2.758-4.09-2.119-7.381-4.034-7.18-4.233.2-.099 6.91-2.069 14.819-4.233 27.834-7.473 49.576-16.675 87.57-37.103 3.909-2.082 9.322-4.957 12.029-6.445 6.215-3.272 25.668-14.984 35.096-21.141 3.911-2.482 7.22-4.567 7.52-4.566s3.194 1.414 6.386 3.229m21.843 12.6c41.385 25.487 62.62 39.984 66.494 45.501 3.975 5.619 2.045 12.31-5.893 20.574-1.105 1.095-2.716 3.488-3.624 5.283-.908 1.696-3.218 3.886-5.122 4.777-1.904.892-3.509 1.984-3.511 2.484-.002.4-.504.798-1.004.796-.6-.003-4.51 2.28-8.723 5.16-4.213 2.781-7.821 4.665-8.02 4.164-1.283-3.606-2.082-3.71-6.097-.528-2.308 1.69-4.218 4.081-4.424 5.28-.207 1.6-2.716 3.488-9.332 6.958-9.823 5.055-11.525 5.548-11.514 3.148.004-.9-.494-1.402-1.195-1.106-4.91 2.078-6.816 3.57-8.128 6.164-1.615 3.392-3.921 4.682-28.17 15.272-4.108 1.881-8.614 3.06-11.114 3.05-2.3-.011-8.004.863-12.609 2.042-4.605 1.18-10.31 2.153-12.71 2.143-4.2.18-4.4-.02-5.683-3.626-2.072-6.21-8.244-12.538-18.314-19.184-15.354-10.07-25.026-16.213-32.008-20.245-3.59-2.116-8.079-4.737-9.974-5.845-1.895-1.109-8.677-4.94-14.962-8.368-6.583-3.73-10.77-6.55-9.969-6.846s4.906-1.377 9.012-2.559c11.915-3.346 21.531-6.802 35.558-12.639 12.223-5.144 48.704-22.879 58.63-28.534 2.506-1.388 8.622-4.86 13.535-7.638 11.228-6.35 22.259-13 30.083-18.364 3.31-2.185 6.419-4.071 6.819-4.07.4-.097 5.786 3.027 11.97 6.755m77.037 58.25c2.93 15.213 1.198 22.505-7.041 30.968-7.535 7.766-12.723 5.042-12.67-6.558.034-7.5 1.754-11.892 6.98-17.768 2.111-2.39 5.132-6.977 6.546-10.07 3.33-6.786 4.428-6.18 6.185 3.427m-22.115 25.3c.165 7.6 2.448 11.31 7.546 11.734 3.999.318 7.51-1.966 11.937-8.046 2.214-3.09 2.916-3.487 2.91-1.987-.01 2.2-3.637 7.884-7.254 11.667-3.717 3.783-21.576 16.802-28.494 20.771-.702.397-.988-2.804-.955-10.104.127-5.9-.24-13.002-.628-15.803-.777-5.104-.777-5.104 6.044-9.673 3.711-2.483 7.32-4.567 7.82-4.565.601-.097 1.089 2.605 1.074 6.005m-17.535 7.52c1.088 2.805 1.281 26.206.177 27.2-.302.3-1.697-.707-2.99-2.313-2.09-2.31-2.384-3.51-1.868-7.008.31-2.199.232-7-.352-10.602-.873-6.004-.77-6.604 1.138-8.295 2.61-2.188 2.71-2.188 3.895 1.018m-10.099-.246c0 .2-1.004.895-2.206 1.49-2.205 1.09-2.205.99-.399-.402 2.108-1.69 2.609-1.888 2.605-1.088m-31.377 17.058a1.2 1.2 0 0 1-1.4-.007c-.299-.401.003-.7.703-.696.7.003.998.304.697.703M122.94 328.036c6.782 4.031 7.776 5.136 2.587 2.912-3.993-1.618-5.492-1.825-5.498-.525-.002.5 2.293 1.61 5.188 2.624 13.68 4.562 26.919 17.922 37.43 37.67 9.518 18.043 14.52 39.466 12.26 52.856-.823 4.896-.728 6.197.372 6.202 2 .009 2.62-4.388 2.074-16.391-.82-17.804-7.038-35.732-18.657-53.685-4.866-7.522-4.866-7.522-.786-3.004 9.651 10.744 22.368 29.202 31.89 46.345 4.563 8.221 5.955 9.927 9.647 11.744 2.295 1.11 4.188 2.52 4.186 3.02-.008 1.9-8.652 11.56-13.469 15.138-6.622 4.97-17.446 10.121-28.16 13.273-8.211 2.462-9.612 2.656-15.208 1.73-9.293-1.642-18.869-6.985-28.828-16.03-4.48-4.22-13.329-15.661-17.397-22.58-14.784-25.667-18.863-52.386-10.094-67.446 4.434-7.58 17.578-17.22 23.778-17.292 1.5-.093 5.393 1.524 8.685 3.44m192.164 8.272c2.389 2.511 2.883 3.713 2.863 8.113-.012 2.8-.63 6.498-1.437 8.294-1.619 4.093-7.542 9.266-11.848 10.546-1.803.492-6.409 1.871-10.314 3.053-15.421 4.63-39.63 6.32-46.616 3.389-6.687-2.83-10.858-9.25-10.825-16.65.028-6 3.24-8.585 11.743-9.446 16.207-1.527 35.722-4.738 53.34-8.758 8.31-1.962 9.909-1.755 13.094 1.46"/><path d="M291.537 285c.398.303.998.305 1.4.007.302-.398.003-.7-.697-.703s-1.001.295-.703.697M116.413 355.907c-4.308 1.88-8.331 6.962-9.051 11.359-.31 1.999-.82 4.396-.924 5.296-.614 2.897 1.34 13.306 3.514 18.916 7.214 18.833 19.459 31.089 31.657 31.544 6 .127 9.207-1.558 12.13-6.745 2.016-3.491 2.425-5.39 2.358-12.59.023-5.2-.653-10.403-1.739-13.508-5.034-14.623-14.577-27.066-24.655-32.012-7.084-3.432-9.683-3.844-13.29-2.26m15.772 6.271c13.357 9.561 21.883 25.8 21.812 41.5-.036 7.8-1.049 10.695-4.667 14.679-3.216 3.485-11.814 3.146-17.797-.58-8.675-5.64-13.545-12.162-19.085-25.588-2.571-6.212-2.96-8.513-2.924-16.713-.062-8.4.245-9.9 2.46-13.19 2.82-4.286 3.822-4.782 10.02-4.354 3.6.217 5.995 1.227 10.18 4.246M296.965 344.826c-.001.3.198.501.498.502s.501-.197.502-.497-.197-.501-.497-.503c-.3-.001-.501.198-.503.498M261.112 114.061c-1.402.394-2.706 1.288-2.909 1.987-.304.998-.005 1.2 1.096.805 5.31-1.976 8.409-1.762 11.397.752 4.682 3.92 6.386 3.029 1.904-.892-3.884-3.518-6.381-4.129-11.488-2.652M249.5 116.808c-2.904.687-4.31 2.28-1.91 2.292 3 .013 6.404-1.071 6.409-2.071.004-.9-1.196-1.006-4.5-.22M237.082 120.652c-1.904.791-3.208 1.685-2.91 1.987.897.804 8.808-1.46 8.813-2.56.006-1.4-1.895-1.209-5.903.573M278.969 123.642c-.005 1 8.169 6.837 8.772 6.24.803-.796-5.77-6.626-7.47-6.634-.7-.003-1.301.194-1.302.394M211.338 130.335c-1.004.796-1.608 1.793-1.11 2.195.398.402 1.299.206 1.902-.391.703-.697 2.005-1.191 3.005-1.186 1 .004 1.802-.492 1.805-.992.006-1.5-3.295-1.215-5.602.374M200.92 134.188c-2.505 1.089-3.91 2.182-3.111 2.486 1.598.507 9.108-1.759 9.113-2.859.008-1.7-1.693-1.507-6.002.373M290.925 133.296c-.007 1.5 6.269 6.929 7.271 6.334.502-.298-.192-1.601-1.486-3.007-2.886-3.113-5.778-4.827-5.785-3.327M191.504 137.645c-.302.499-1.905 1.192-3.606 1.484-1.602.393-3.006 1.286-3.01 2.086-.005 1.2.695 1.104 4.401-.18 4.207-1.58 5.815-3.273 3.818-3.982-.599-.203-1.3.094-1.603.592M300.88 143.142c-.007 1.6 6.767 7.43 7.372 6.333.403-.598-.79-2.403-2.582-4.012-3.286-3.114-4.783-3.821-4.79-2.321M174.57 145.169c-2.005 1.19-3.411 2.484-3.113 2.885.697.704 9.415-3.357 9.42-4.457.006-1.3-2.297-.71-6.307 1.572M165.35 149.727c-.303.498-1.505.993-2.505.988-2-.009-3.608 1.684-2.612 2.689.796.803 8.612-2.661 8.617-3.861.005-1.1-2.695-1.013-3.5.184M310.832 153.887c-.005 1.1 6.666 7.53 7.269 6.933.904-.896-4.267-7.42-5.867-7.427-.8-.003-1.4.194-1.402.494M151.32 156.263c-1.104.795-2.71 1.888-3.511 2.384-.803.497-1.205 1.095-.907 1.496.797.704 9.916-3.555 9.921-4.655.006-1.3-3.396-.815-5.504.775M139.29 162.709c-1.605 1.092-3.41 2.084-4.01 2.281-.501.198-.703.697-.305 1.1.796.803 7.308-1.868 8.316-3.463 1.107-1.695-1.093-1.705-4 .082M126.558 169.751c-3.208 1.685-5.017 3.777-3.317 3.785 1.3.006 8.52-4.261 8.523-5.061.006-1.3-.996-1.005-5.206 1.276M116.43 176.105c-3.114 2.786-3.724 5.083-.917 3.496 4.011-2.382 5.619-4.075 4.623-5.08-.597-.602-1.9-.108-3.707 1.584M73.728 176.311c-.005 1.1.69 2.003 1.49 2.007 1.7.008 1.802-.192.912-2.396-.89-2.304-2.391-2.01-2.402.39M322.318 178.94c-1.812 2.791-2.016 3.49-.716 3.496 1.5.007 4.114-2.981 4.121-4.581.01-2.2-1.592-1.707-3.405 1.084M76.178 187.323c-.015 3.3.377 5.001 1.277 5.005.8.004 1.208-1.694 1.223-4.994s-.378-5.002-1.178-5.006c-.9-.004-1.307 1.695-1.322 4.995M108.284 185.968c-1.108 1.895-1.617 3.793-1.319 4.194.399.302.798.404 1 .205.1-.2 1.207-1.795 2.516-3.589 2.516-3.688 2.72-4.288.92-4.296-.7-.003-2.108 1.59-3.117 3.486M313.876 188.201c-3.112 2.586-4.019 4.182-2.419 4.19 1.2.005 7.223-5.068 7.228-6.068.007-1.5-1.396-1.006-4.809 1.878M104.25 193.55c-.204.8-.913 2.896-1.522 4.793-1.419 4.194-1.42 4.394-.018 3.9 1.603-.493 4.037-8.082 2.942-9.187-.597-.602-1.098-.405-1.402.494M302.14 196.048c-2.206 1.49-3.412 2.785-2.813 2.987 1.697.608 9.417-3.757 8.722-4.86-.794-1.204-1.495-1.007-5.908 1.873M74.334 197.014c-.402.298-.707 1.497-.712 2.597-.007 1.6.292 1.701 1.497.707.803-.697 1.508-1.893 1.512-2.593.006-1.5-1.192-1.906-2.297-.71M294.222 200.212c-.303.499-2.108 1.59-4.112 2.481-3.307 1.585-4.716 3.58-2.516 3.59 1.6.006 9.018-4.06 9.023-4.96.005-1.3-1.79-2.108-2.395-1.11M99.782 208.43c-1.422 4.793-1.527 5.993-.227 5.999.9.004 3.028-6.086 3.04-8.786.012-2.6-1.596-1.008-2.813 2.787M277.379 209.536c-3.609 1.883-4.917 3.678-2.917 3.687 1.5.006 9.12-4.26 9.124-5.16.006-1.3-2.197-.809-6.207 1.473M265.854 214.984c-1.804.891-3.31 2.085-3.313 2.885-.004.9 1.197.705 4.504-.88 2.506-1.189 4.512-2.58 4.514-2.98.005-1.1-1.997-.809-5.705.975M97.136 218.618c-1.521 4.693-1.535 7.793-.135 7.8.8.003 1.502-.594 1.506-1.394.003-.7.313-2.798.62-4.497.41-1.998.314-3.099-.486-3.102-.6-.003-1.302.594-1.505 1.193M252.825 221.424c-4.21 1.981-5.517 3.675-3.117 3.686 2.2.01 8.716-3.46 8.822-4.76.007-1.6-.693-1.503-5.705 1.074M240.296 227.768c-3.506 1.384-5.115 3.277-2.915 3.286 1.6.008 8.014-2.963 8.618-3.96.906-1.396-1.394-1.207-5.703.674M112.784 230.19c.398.3.998.304 1.4.005.301-.398.003-.7-.697-.703s-1.002.296-.703.697M96.078 231.313c-.806 1.297.468 7.102 1.468 7.107.5.002.908-1.796.918-3.996.017-3.7-1.076-5.205-2.386-3.11M227.172 233.108c-2.105 1.09-3.511 2.384-3.214 2.886.695 1.103 8.71-2.06 8.716-3.46-.093-1.501-1.493-1.408-5.502.574M214.447 238.45c-4.006 1.382-5.618 4.075-1.913 2.992 4.805-1.278 7.912-2.764 7.916-3.564.005-1.1-1.596-1.008-6.003.573M98.937 240.326c-.504.898 2.486 3.212 5.68 4.426 3.595 1.316 2.606-1.188-1.185-3.205-2.095-1.11-4.193-1.62-4.495-1.22M201.223 243.69c-4.106 1.482-5.611 2.575-4.515 3.38.897.704 9.713-2.856 9.717-3.856.004-.7-.094-1.3-.194-1.2-.2-.002-2.404.788-5.008 1.677M110.408 246.878c-.004.9.793 1.604 1.893 1.61 1.1.004 2.298.41 2.595 1.01.695 1.204 4.494 1.421 4.5.221 0-.4-1.695-1.407-3.69-2.216-2.097-.81-4.094-1.62-4.493-1.82-.499-.203-.801.295-.805 1.195M184.498 249.215c-2.503.588-4.608 1.679-4.91 2.377-.407 1.399 1.792 1.609 4.998.323 1.302-.494 3.505-1.184 5.107-1.477 3.003-.686 3.812-2.682 1.01-2.495-1 .095-3.802.583-6.205 1.272M123.586 251.738c.494 1.403 7.484 3.434 8.489 2.439 1.105-1.095-.99-2.305-5.086-3.023-2.898-.613-3.699-.417-3.403.584M168.582 252.643c-4.303.78-3.711 2.583.79 2.203 4.902-.278 7.105-1.068 6.51-2.17-.695-1.004-2.195-1.01-7.3-.033M135.777 253.694c-.907 1.496-.408 1.698 5.389 2.524 3.698.517 5.198.324 5.202-.476.006-1.3-.992-1.705-6.189-2.428-2.099-.31-4-.119-4.402.38M150.574 254.46c-2.404.79-.01 2.2 3.79 2.218 4.3.02 7.003-.768 7.01-2.068.003-.8-8.397-.938-10.8-.15M358.098 315.803c-.004.9.887 2.704 1.981 4.11 1.094 1.404 1.987 2.808 1.986 3.108-.002.4 1.684 3.408 3.769 6.917 14.788 24.668 30.592 67.84 41.29 112.389 1.275 5.506 2.747 11.613 3.339 13.515.491 1.902 1.863 8.009 2.938 13.514 1.175 5.505 2.743 12.712 3.428 16.015.785 3.304 1.858 9.109 2.44 13.012.584 3.802 1.656 9.907 2.44 13.51 2.937 13.814 7.673 50.036 9.466 73.445l1.137 14.005 7.001-.268c3.8-.083 7.102-.368 7.202-.468s-.482-4.002-1.26-8.606c-.78-4.703-2.533-15.011-3.796-23.017-1.364-8.006-2.925-16.513-3.414-19.016-.589-2.502-2.35-11.01-3.814-19.017-2.932-15.014-12.255-54.056-13.739-57.563-.792-1.804-2.76-8.713-7.975-27.537-3.148-11.414-18.045-56.282-21.211-63.596-.693-1.704-3.363-8.216-5.935-14.528-5.935-14.327-11.383-25.751-18.723-38.885-5.854-10.327-8.538-13.839-8.55-11.039M193.881 385.159c-1.607 1.592-1.319 4.194.67 6.503 1.69 2.207 20.163 8.291 24.863 8.313 3.1.014 3.911-2.383 1.925-5.492-1.49-2.306-4.384-3.42-24.256-9.71-1.098-.405-2.599-.212-3.202.386m8.584 3.539c2.595 1.111 7.089 2.532 9.786 3.244 4.994 1.323 8.484 3.539 8.476 5.339-.005 1-5.502.275-9.995-1.246-1.398-.506-5.092-1.723-8.288-2.637-4.893-1.523-7.684-3.635-7.673-5.935.005-1.1 2.902-.587 7.694 1.235M401.104 623.001l.344 12.302 43.598.498 43.6.398.056-12.5.057-12.5-44.1-.2-44-.2zm84.6.184-.045 10-4.2-.019c-2.4.09-20.601.207-40.503.416l-36.301.336.047-10.5.048-10.6 40.5.184 40.5.183z"/><path d="M411.443 614.448c-.402.398-.712 2.697-.723 5.097-.018 4 .18 4.4 1.983 3.81 1.702-.493 2-.192 1.989 2.408-.008 1.7-.414 3.098-1.014 3.096-.5-.003-.998-.505-.996-1.005.003-.6-.395-1.002-.995-1.004-.5-.003-1.004.895-1.01 2.095-.014 3.2 5.09 2.223 6.005-1.073.915-3.196-.468-7.002-2.468-7.011-.8-.004-1.496-.907-1.491-2.007q.01-2.1 1.808-1.792c1 .205 1.702-.292 1.706-1.192.007-1.6-3.589-2.616-4.794-1.422M443.94 615.196c-1.507 1.493-1.626 5.792-.226 5.799.6.003 1.004-.896 1.009-1.996s.509-1.997 1.009-1.995c1.6.007 1.083 3.805-1.037 7.995-2.723 5.188-2.527 5.989.873 6.004 3.3.015 4.606-1.279 3.717-3.683-.594-1.403-.794-1.403-2.101.29-1.912 2.492-1.903.592.011-2.6 2.117-3.59 1.94-8.69-.255-9.9-1.296-.706-2.297-.611-3 .086M453.443 614.639c-1.105 1.095-.825 5.396.275 5.401.6.003 1.003-.695 1.007-1.495.003-.8.507-1.498 1.107-1.495.7.003.895 1.004.488 2.502-.406 1.398-.92 4.496-1.331 6.994-.417 3.598-.32 4.499.88 4.504 1.1.005 1.707-1.692 2.228-6.29.315-3.398.732-7.097.937-8.196.107-1.5-.49-2.102-2.29-2.31-1.399-.206-2.9-.013-3.301.385M423.202 623.402c-.032 7.1.262 8.501 1.463 8.306.8-.196 1.504-.893 1.407-1.593-.097-.6-.18-4.401-.163-8.201-.177-4.9-.568-7.003-1.368-7.006-1-.005-1.31 2.394-1.339 8.494M463.932 617.087c-2.62 4.288-.664 13.997 2.836 14.013 1 .004 2.105-.99 2.51-2.29.811-2.395.742-9.096-.145-12-.69-2.303-3.59-2.216-5.201.277m3.772 6.017c-.024 5.4-1.732 7.192-2.512 2.688-.879-4.604.245-9.799 1.635-7.592.496.702.886 3.004.877 4.904M431.205 622.838c-.302.499-.106 1.3.493 1.602 1.496.907 7.102-.467 6.407-1.57-.694-1.204-6.094-1.228-6.9-.032M444.034 638.496c-.404.899-.439 8.599-.177 17.1l.53 15.402-22.7-.103c-12.5-.056-25.8.083-29.702.266-3.8.282-66.802.496-140.003.464-73.101.069-133.203.296-133.504.594-.804.797-1.969 455.796-1.073 456.7.797.804 296.696 1.547 311.5.714 4.402-.28 52.603-.561 107.005-.715 156.002-.192 239.904-.51 240.105-.71s-.16-163.002-.776-313.707c-.084-47.6-.45-99.303-.778-115.004l-.47-28.503-52.5-.138c-28.9-.031-102.602.034-163.703.157l-111.303.295.076-16.6c.046-10.1-.324-16.802-.922-17.204-.599-.303-1.3.094-1.605.992m328.48 71.192c.008 20.5.025 38.6.118 40.3.092 1.601.266 51.602.396 111.004.03 59.4.28 114.702.542 123.003.263 8.202.601 43.704.742 78.805l.311 63.702-46.4-.11c-25.4-.116-47-.014-47.8.082-.802.197-55.303.35-121.004.451s-127.603.421-137.504.676c-9.902.255-82.203.427-160.803.27l-142.701-.147 1.03-227.098 1.03-227.097 79.3.36c73.6.233 133.201.104 199.205-.597 14.9-.132 71.101-.177 125.002-.132 53.9.144 114.4.019 134.502-.19 20.101-.209 53.903-.455 75.303-.458l38.7-.025z"/><path d="M525.582 760.268c-1.405 1.293-9.727 6.056-11.73 6.747-1.002.295-1.804.891-1.807 1.391s-.504.898-1.004.896c-.6-.003-4.308 1.88-8.32 4.262-3.91 2.382-10.327 6.153-14.237 8.336-3.81 2.182-16.043 9.427-27.072 15.877-11.03 6.55-22.06 13-24.566 14.389s-10.126 5.754-17.044 9.722-15.44 8.93-19.05 10.914c-3.609 1.984-11.93 6.746-18.548 10.616s-16.544 9.525-22.058 12.7c-5.515 3.175-13.335 7.64-17.246 10.022-4.01 2.382-7.72 4.365-8.32 4.362-.5-.002-1.001.296-1.003.696-.002.5-1.006 1.295-2.308 1.79-3.508 1.683-11.127 5.849-11.73 6.546-.301.299-3.008 1.886-6.016 3.473-9.524 5.257-15.138 8.431-30.078 17.263-8.022 4.764-16.745 9.825-19.552 11.412-2.708 1.588-8.422 4.762-12.533 7.143-15.14 8.731-17.343 9.421-27.143 9.377-9.8-.045-12.696-.858-20.672-6.194-5.184-3.423-5.283-3.624-4.667-7.221 1.436-7.994-3.846-12.018-10.862-8.45-3.809 1.983-4.608 1.88-8.095-1.136-1.593-1.408-4.185-3.32-5.68-4.226-7.182-4.233-5.455-10.125 4.468-15.18 10.224-5.254 44.914-24.896 65.469-37.003 2.807-1.588 6.417-3.671 8.021-4.664 1.704-.892 5.514-3.075 8.522-4.861 3.008-1.687 6.217-3.572 7.019-4.069s3.81-2.182 6.517-3.77c10.728-6.051 13.334-7.54 21.356-12.203 4.512-2.68 8.422-4.862 8.622-4.861.7.003 14.137-8.236 15.844-9.628.903-.796 1.41-2.094 1.212-2.795-.297-.701.408-1.798 1.511-2.393 2.707-1.488 3.106-1.386 3.097.714-.008 1.7 9.067 7.241 11.867 7.254.7.003 3.306-1.185 5.912-2.673 2.607-1.388 6.316-3.372 8.32-4.363 3.308-1.685 5.924-5.273 5.938-8.273.003-.8.707-1.596 1.509-1.993 2.103-.79 1.93-6.591-.157-9.6-.993-1.405-2.482-3.812-3.275-5.416-.793-1.503-3.183-3.714-5.178-4.923-3.69-2.017-3.69-2.017-12.31 2.344-4.811 2.378-9.825 5.356-11.23 6.65-2.31 2.189-2.514 2.888-2.038 8.19.376 5.202.273 6.001-1.43 6.494-1.001.395-1.904 1.09-1.907 1.69-.003.7-1.404.795-3.802.484-2.898-.513-4.7-.122-8.21 1.962-2.506 1.39-7.419 4.267-11.028 6.25-3.609 1.984-14.437 8.235-24.063 13.891-9.625 5.557-20.053 11.51-23.06 13.196-3.007 1.586-6.717 3.77-8.222 4.863-1.405.993-2.909 1.786-3.209 1.785s-.552-10.403-.495-23.002c.067-14.7-.296-23.002-.896-23.005-.6-.002-1.039 8.596-1.108 23.796-.106 23.5-.107 23.7-2.314 25.09-4.011 2.481-21.957 12.6-36.895 20.932-3.61 1.984-7.62 4.266-9.024 5.16-1.403.793-5.414 3.075-9.023 5.058-15.938 8.528-18.245 10.018-20.56 13.407-4.933 7.178-2.873 15.987 5.1 21.824 2.094 1.509 5.681 4.225 7.974 5.836 4.086 3.018 4.185 3.319 3.667 7.316-.516 3.598-.22 4.5 1.87 6.709 2.886 2.913 5.085 3.223 8.694 1.14 3.71-2.084 4.11-1.982 11.385 3.451 13.155 9.86 28.048 11.528 42.878 4.995 5.912-2.673 9.317-3.858 15.726-5.729 2.503-.689 7.213-2.867 10.522-4.852s7.12-4.268 8.523-5.062c4.612-2.579 7.023-5.168 7.034-7.568.024-5.3 4.5.22 5.172 6.324.287 2.801.187 2.9-5.817 3.573-3.502.485-8.208 1.863-10.815 3.351-4.611 2.48-4.612 2.58-4.635 7.78-.02 4.3-.627 5.997-3.042 9.186-1.61 2.092-3.023 5.086-3.03 6.586-.01 2.2-1.115 3.395-6.029 6.373-3.61 2.183-6.22 4.572-6.526 5.77-3.07 15.286-2.39 19.59 2.82 17.613 1.202-.394 5.613-2.874 9.924-5.355 4.312-2.48 8.021-4.563 8.321-4.562.2 0 2.206-1.19 4.312-2.58 3.009-1.887 4.71-2.38 7.209-1.968 2.898.513 5.001-.277 13.423-5.139 9.224-5.258 10.028-6.055 10.542-9.152.62-4.298 1.525-5.593 6.645-9.97 6.927-5.869 8.232-6.863 12.24-8.845 4.31-2.18 6.326-5.571 5.14-8.577-.395-1.101-.485-3.502-.176-5.3 1.13-6.695-4.663-8.222-12.886-3.259-2.607 1.588-5.313 2.976-5.813 2.974-.6-.003-1.002.395-1.004.795-.007 1.5-5.014 3.177-9.414 3.158-4-.019-4.3-.22-4.288-2.62.025-5.7-5.052-10.723-11.25-11.051-1.9-.109-4.398-.52-5.497-.825-1.397-.506-4.705 1.079-11.425 5.548-5.215 3.376-8.929 6.36-8.33 6.562.7.204 2.503-.588 4.108-1.681 1.605-1.193 3.21-2.085 3.51-2.084.4.002 2.906-1.587 5.715-3.474 4.113-2.782 5.515-3.275 7.011-2.468 2.394 1.31 2.481 4.21.172 6.2-4.918 4.078-19.554 11.812-25.16 13.186-3.404.885-9.314 3.058-13.022 4.741-5.612 2.675-8.114 3.164-15.515 3.43-4.901.178-10.9-.15-13.497-.861-3.795-.917-12.273-5.856-17.653-10.38-.498-.403-2.89-2.114-5.182-3.824-2.393-1.71-4.285-3.42-4.283-3.82s.907-1.595 2.012-2.59c2.008-1.791 2.207-1.69 10.781 4.149 4.785 3.221 8.872 6.24 9.17 6.541 1.294 1.506 11.285 3.352 17.786 3.281 9-.16 12.205-1.145 23.134-7.395 4.712-2.779 10.026-5.755 11.63-6.747 1.704-.893 7.62-4.466 13.336-7.84 5.615-3.275 10.428-6.053 10.628-6.052s6.616-3.67 14.237-8.135c7.62-4.366 16.443-9.426 19.45-11.012 3.008-1.686 6.617-3.77 8.021-4.664 1.405-.993 4.813-2.878 7.52-4.366 2.806-1.387 6.415-3.37 8.02-4.363 1.704-.993 6.417-3.671 10.527-6.053 4.111-2.381 13.136-7.74 20.054-11.809 6.919-4.068 14.038-8.236 15.842-9.228 1.705-1.092 4.913-2.878 7.019-4.068 3.71-2.083 10.627-5.952 23.76-13.392 3.91-2.183 8.723-4.86 10.828-6.051 2.006-1.191 5.214-2.977 7.019-4.069 1.704-.992 10.527-6.052 19.552-11.411 40.107-23.518 48.43-28.38 48.73-28.38.2.002 5.212-2.876 11.129-6.449 6.016-3.572 11.229-6.449 11.629-6.447 1.1.005 3.886 3.018 3.882 4.018-.008 1.8-4.523 5.08-14.449 10.634-5.614 3.075-13.234 7.44-17.144 9.722-3.81 2.283-12.834 7.442-20.052 11.41-7.118 4.067-13.135 7.64-13.337 8.14-.202.398-.804.796-1.404.793-.5-.002-2.906 1.287-5.313 2.976-2.407 1.589-4.614 2.979-4.914 2.977-.4-.001-3.608 1.784-7.218 3.968-3.61 2.183-6.818 3.969-7.018 3.968s-3.709 1.983-7.72 4.365c-3.91 2.382-9.224 5.358-11.73 6.747-2.507 1.388-8.522 4.761-13.435 7.639-4.913 2.778-9.023 5.059-9.123 5.059-.2-.001-11.63 6.547-26.068 14.881-13.235 7.64-26.47 15.28-31.582 18.057-5.614 3.075-9.124 5.059-20.554 11.707a811 811 0 0 1-13.535 7.739c-4.01 2.182-15.841 9.028-16.945 9.823-.2.2-.203.6.096.9.797.704 4.406-1.18 18.843-9.514 6.317-3.671 16.945-9.723 23.562-13.393 26.367-14.78 24.763-13.888 41.106-23.314 17.245-10.022 33.087-19.15 37.598-21.63 2.507-1.388 7.42-4.166 11.028-6.15 3.61-1.983 8.522-4.761 11.028-6.15 2.507-1.388 9.124-5.258 14.84-8.632 5.615-3.275 10.527-6.053 10.827-6.051s1.904-.892 3.41-1.985c3.009-2.086 28.977-17.069 54.643-31.452 12.331-6.944 14.94-8.833 15.55-11.23.51-2.198 1.212-2.494 4.511-2.38 4.6.221 7.585 3.435 7.265 7.934-.314 2.898-.514 2.997-5.816 3.473-3.602.284-7.307 1.567-10.716 3.452-5.314 2.976-5.314 2.976-5.338 8.376-.02 4.5-.527 5.897-3.04 8.686-1.608 1.893-3.423 5.084-3.932 7.082-.914 3.096-2.02 4.291-5.728 6.174-5.312 2.776-5.918 3.973-6.96 13.369-.627 5.797-.433 7.198 1.06 8.805.895 1.004 1.99 1.909 2.39 1.91.4.002 3.509-1.784 7.02-4.068 6.117-3.872 8.92-4.56 5.606-1.374-1.708 1.692-2.116 3.49-.816 3.496 1.5.007 6.432-7.07 5.839-8.574-.593-1.602-3.592-1.916-3.598-.416-.003.5-.505.998-1.105.995s-3.006 1.287-5.413 2.976c-2.408 1.589-5.314 2.976-6.514 2.97-2-.009-2.099-.31-1.474-5.807 1.043-9.295 1.143-9.495 8.665-14.16 3.91-2.383 8.93-6.46 11.04-8.95 2.112-2.49 8.033-7.164 13.147-10.34 5.115-3.178 11.633-7.248 14.342-9.036a628 628 0 0 1 12.034-7.445c14.94-8.933 15.541-9.13 15.52-4.33-.007 1.3.484 3.302 1.18 4.305 1.489 2.407-.02 4.4-5.131 6.777-3.708 1.783-13.45 10.84-16.269 15.126-.806 1.297-2.11 2.19-2.709 1.988-.898-.304-.795-1.003.511-2.398 4.522-4.779 10.566-14.452 10.073-15.954-.89-2.304-2.592-1.912-10.614 2.952-4.01 2.382-8.621 4.66-10.223 4.954-1.601.392-4.21 2.18-5.718 4.074-1.508 1.793-4.721 4.678-7.329 6.266-3.009 1.987-6.426 5.771-10.252 11.454-7.953 11.664-7.757 12.565 1.766 7.508 5.113-2.777 5.914-2.973 6.707-1.57.396.902 1.494 1.407 2.296 1.011.901-.296 2.2.01 2.997.714 1.295 1.006 3.099.214 10.82-4.451 12.435-7.744 12.938-8.242 12.253-11.545-.49-2.302.316-3.598 6.042-9.373 3.616-3.583 8.634-7.46 11.039-8.55 5.611-2.474 6.821-4.669 5.949-10.673-1.356-9.706-3.853-10.417-14.182-4.164-10.329 6.353-11.43 6.848-15.43 6.83-3.6-.016-3.8-.217-3.786-3.317.011-2.4-.88-4.204-3.37-6.616-2.987-2.913-3.985-3.318-9.185-3.341-4.4-.02-6.297-.529-7.691-1.935-1.99-2.11-2.89-2.313-4.196-1.02m20.256 9.792c-.401.298-1.197-.506-1.792-1.808-1.19-2.206-1.19-2.206.603-.598.996 1.005 1.491 2.007 1.19 2.406m1.772 6.208c-1.104.995-1.498-.407-.787-2.804.711-2.497.711-2.497 1-.195.195 1.3.089 2.6-.213 2.999m-197.185-3.695c1.398.506 2.991 1.914 3.686 3.117.99 2.004.788 2.603-2.223 4.99-3.513 2.884-2.119 4.09 1.494 1.407 1.103-.795 2.506-1.49 3.006-1.487 2.1.11-4.018 3.982-6.118 3.972-1.3-.005-2.301.39-2.304.99-.007 1.5 4.195 1.12 6.402-.47 2.81-2.188 3.609-1.885 3.594 1.315-.013 3-3.023 5.187-7.223 5.168-1.7-.008-1.802.291-.807 1.496.895 1.004 1.694 1.208 2.998.514.902-.496 2.002-.591 2.4-.29.698.704-3.223 5.286-4.523 5.28-.5-.002-3.106 1.286-5.914 2.973-2.807 1.588-6.113 2.973-7.413 2.967-2.7-.013-7.89-2.436-9.68-4.644-1.093-1.305-.79-1.904 1.618-3.793 2.81-2.187 2.81-2.287.817-3.696-1.196-.906-2.187-3.01-2.474-5.712-.39-2.301-.381-4.201-.181-4.2.3 0 1.596.707 2.992 1.613 3.29 2.215 4.497.82 1.408-1.594-2.99-2.313-2.688-2.712 6.533-7.37 7.518-3.866 8.219-4.063 11.912-2.546m203.071 6.822c-.303.598-1.807 1.591-3.31 2.385-10.224 5.153-22.463 13.598-26.985 18.477-3.617 3.784-5.223 4.977-5.317 3.776.004-.9 1.414-3.093 3.022-4.886 2.612-2.588 3.018-3.886 3.038-8.386.023-5.1.124-5.2 4.536-7.88 2.707-1.588 7.113-2.968 10.815-3.35 8.906-1.16 14.906-1.233 14.201-.136m11.788 2.753c.298.401-.108 1.7-1.014 2.996-1.209 1.894-1.81 2.191-3.006 1.286-1.095-1.005-1.093-1.505.314-2.999 1.809-1.991 2.71-2.287 3.706-1.283m-5.424 5.276c.793 1.503.286 3-2.734 7.487-3.726 5.583-3.726 5.583-5.216 3.377-.794-1.304-2.485-3.312-3.78-4.518-2.29-2.11-2.29-2.11 1.015-3.195 1.803-.592 4.41-1.98 5.814-3.074 3.111-2.386 3.711-2.483 4.9-.077m-13.535 7.538c2.692 1.812 5.07 6.823 4.062 8.419-2.418 3.989-10.583-3.848-8.862-8.44.809-1.897 1.909-1.892 4.8.021m-221.406.896c-.001.3-.504.797-1.206 1.194-.701.397-.8.296-.398-.402.706-1.197 1.608-1.592 1.604-.792m-6.025 5.472c-.007 1.5-6.732 7.07-8.532 7.062-.3-.002-3.508 1.784-7.118 3.967-3.61 2.184-6.718 3.97-6.918 3.969-.2 0-3.409 1.885-7.12 4.168-7.72 4.565-21.557 12.602-28.474 16.47-2.507 1.39-9.224 5.259-15.04 8.633-24.465 14.289-28.876 16.869-35.092 20.34-3.61 1.984-8.121 4.564-10.026 5.655s-7.118 3.868-11.529 6.248c-18.645 10.015-21.456 12.303-21.577 17.002-.013 2.9 4.466 7.62 11.247 11.751 1.994 1.31 3.688 2.617 3.686 3.017-.004 1-3.319 4.185-4.319 4.18-2-.009-15.65-11.17-17.136-14.077-.793-1.604-1.48-4.507-1.47-6.507.031-7 2.038-8.591 29.607-23.566 3.91-2.082 7.719-4.165 8.52-4.661.804-.597 6.719-3.87 13.035-7.541 6.317-3.572 13.836-7.838 16.543-9.425 2.808-1.688 5.715-3.275 6.517-3.67.801-.297 3.409-1.885 5.716-3.475 2.307-1.49 4.412-2.78 4.712-2.779.2.001 4.11-2.281 8.623-4.96 4.513-2.78 8.323-4.963 8.623-4.961.2 0 3.709-1.984 7.72-4.366 3.91-2.382 9.224-5.358 11.73-6.746s10.126-5.754 17.045-9.723c17.847-10.32 17.145-9.922 19.24-8.813.997.505 1.792 1.808 1.787 2.808m225.784 4.025c1.296.806.995 1.204-1.914 2.991-3.81 2.383-4.911 2.578-4.904.978.003-.6.906-1.296 2.007-1.59 2.002-.492 2.81-2.288 1.11-2.296-1.8-.008-10.223 5.254-11.131 7.05-1.11 1.895-6.825 5.369-7.621 4.565-.996-1.004 8.158-12.863 12.07-15.645l4.014-2.982 2.387 3.01c1.293 1.607 3.084 3.415 3.982 3.919m13.208-1.64c-.008 1.6-15.254 11.73-17.454 11.72-3.3-.014-1.29-2.205 6.734-7.469 8.425-5.462 10.73-6.451 10.72-4.251m-22.334 7.399c-.402.298-.206 1.199.39 2.001 1.393 1.607-.807 1.797-3.1.286-1.296-.906-1.296-1.106.009-2 1.704-1.092 3.706-1.383 2.7-.287m-339.16 100.761c-.02 4.3-1.725 5.293-4.012 2.482-1.79-2.108-3.692-1.916-6.505.97-3.214 3.086-3.226 5.886.067 7.401 3.093 1.414 2.685 3.312-.92 4.496-3.807 1.383-5.697-.726-5.674-5.926.017-3.7.623-4.997 4.34-8.88 3.72-4.083 4.721-4.579 8.521-4.562 4.2.02 4.2.02 4.182 4.02m93.395 1.224c.297.502.786 2.904 1.075 5.305.48 4.302.48 4.302-.504.898-.591-1.903-1.48-4.307-1.976-5.309-.992-1.705.312-2.599 1.405-.894m37.085 3.369c.297.501.091 1.9-.514 3.097-.907 1.496-.911 2.396-.115 3.2 1.891 1.908 1.275 5.506-1.028 6.195-2.604.888-3.5-.016-1.991-1.909.703-.797.807-1.696.309-1.998-1.397-.807-3.41 1.984-3.02 4.186.195 1.3-1.615 3.493-5.73 6.874-3.313 2.785-7.33 6.467-8.938 8.16-1.707 1.692-3.414 3.084-3.814 3.082-1.1-.005.513-2.897 3.126-5.686 3.617-3.783 7.143-9.467 7.152-11.467.02-4.4-4.287-2.92-18.028 6.118-3.009 1.986-6.618 3.97-8.12 4.263-1.401.394-5.616 3.675-9.333 7.458-6.731 6.77-15.485 18.73-14.49 19.734.299.302 3.204-.885 6.312-2.571 3.609-1.984 6.113-2.772 6.71-2.17.995 1.005-22.769 15.097-25.269 15.086-.9-.004-1.093-1.605-.47-6.702.417-3.598.934-7.296 1.337-8.094.304-.799 3.215-3.186 6.524-5.27 3.31-2.086 9.03-6.66 12.746-10.043 3.716-3.483 8.032-6.964 9.636-7.856 1.604-.893 7.019-4.169 11.933-7.346 5.014-3.078 10.83-6.651 13.036-7.941 2.206-1.19 6.717-3.77 10.026-5.755 6.016-3.473 10.821-4.55 12.013-2.645m-33.502.348c-.002.3-.203.499-.503.497-.3-.001-.499-.202-.497-.502.001-.3.202-.499.502-.498s.5.203.498.503m.676 5.203c-.401.298-.7-.003-.697-.703s.305-1 .703-.697a1.2 1.2 0 0 1-.006 1.4m5.286 3.024c-.002.5-5.618 4.074-12.537 8.143-6.818 3.97-14.04 8.836-16.148 10.627-2.009 1.89-4.015 3.382-4.515 3.38-1.5-.007-.991-2.005 1.119-4.196 1.407-1.593 2.016-3.59 2.031-6.99.02-4.3.323-4.9 3.733-7.284 2.508-1.688 5.212-2.476 8.312-2.562 2.5-.089 5.902-.473 7.504-.866 4.005-.982 10.506-1.152 10.501-.252m10.972 6.25c-.003.7-3.022 4.886-7.546 10.265-.705.897-1.812 2.592-2.517 3.69-1.514 2.992-3.612 2.583-5.395-1.125-1.883-3.809-1.974-5.81-.274-5.802.6-.097 3.709-1.883 6.718-3.97 5.217-3.676 9.023-4.958 9.014-3.058m-24.264 14.19c-.009 1.8.28 4.301.675 5.503.69 2.203.49 2.302-4.91 2.278-3.2-.015-5.599-.426-5.596-1.026.004-.9 8.845-9.96 9.645-9.956.2 0 .193 1.5.186 3.2m6.607-1.57c.296.901.586 3.102.577 5.002-.012 2.7-.415 3.398-1.915 3.392-2.2-.01-3.092-1.914-3.07-6.614.012-2.7.415-3.399 1.915-3.392 1 .005 2.197.71 2.493 1.612m-28.728 5.97c-.401.298-.7-.004-.696-.704.003-.7.304-.998.703-.697a1.2 1.2 0 0 1-.007 1.4m33.299.45c-.003.5-.405.999-1.005.996-.5-.002-.998-.505-.995-1.005.002-.6.504-.997 1.004-.995.6.003.998.404.996 1.004m5.396.825c.198.4.194 1.3-.209 1.899-.604.997-17.75 11.22-18.85 11.215-.2-.001-.398-.702-.394-1.502.006-1.3 9.939-8.455 11.839-8.447.4.002 1.804-.891 3.209-1.985 2.81-2.187 3.61-2.384 4.405-1.18m-26.117 3.681c.895 1.005-2.925 5.487-6.434 7.571-4.011 2.382-4.41 2.28-2.396-1.01 3.827-5.983 7.038-8.369 8.83-6.56m10.292 1.747c-1.103.695-3.11 2.286-4.516 3.58-1.808 1.792-2.91 2.087-4.006 1.382-.898-.605-1.593-1.608-1.59-2.408.008-1.6 5.618-3.774 9.518-3.757 2.4.011 2.4.111.594 1.203"/><path d="M343.294 779.34c-4.009 1.983-7.319 4.168-7.322 4.868-.005 1.1 14.225-5.536 16.535-7.725 2.01-1.991-2.297-.61-9.213 2.858M334.332 793.1c.282 3.802.464 7.802.46 8.802.093 1.4.392 1.702 1.095 1.005 1.607-1.592.87-15.596-.726-16.203-1-.305-1.205 1.094-.83 6.396M253.76 962.836c-.904.996-.725 5.497.278 4.902 1.204-.795 2.12-4.49 1.123-5.095-.399-.202-.999-.205-1.4.193M194.006 776.363l-.057 12.5 45 .204 45 .205.056-12.5.057-12.5-45-.204-45-.205zm86 .39-.049 10.5-40.9-.185c-47.199-.214-41.906 1.41-41.94-12.99l-.063-8.201 41.5.188 41.499.189z"/><path d="M262.645 767.875c-.301.298-.607 1.497-.611 2.497s-.408 1.798-1.008 1.795c-.5-.002-.996-.904-.991-2.004s-.691-2.003-1.591-2.007c-1.6-.008-1.41 2.293.67 6.603.793 1.603.587 2.902-1.026 5.795-2.62 4.488-2.621 4.588-.121 4.6 1.2.005 2.002-.591 1.906-1.292-.29-2.301.116-3.7 1.116-3.695.6.003.995 1.105.99 2.505-.01 1.8.488 2.502 1.988 2.509 1.9.008 1.9-.092-.18-4.401-1.981-4.21-1.98-4.609-.462-8.502 1.517-3.593 1.128-6.095-.68-4.403M203.434 770.306c-1.019 3.995-.128 6.1 2.373 5.91 1.8-.191 2.199.21 2.188 2.71-.008 1.7-.414 2.999-1.014 2.996-.5-.002-.998-.504-.996-1.004.003-.6-.695-1.003-1.495-1.007-2.1-.01-1.912 2.691.182 3.9 2.993 1.614 5.303-.475 5.323-4.975.015-3.3-.381-4.102-2.578-4.912-2.795-1.113-2.784-3.513.116-3.5 1 .005 2.003-.59 2.306-1.289q.306-1.199-2.695-1.212c-2.4-.011-3.202.485-3.71 2.383M216.74 768.766c-.301.399-.418 4.199-.438 8.498.17 6.801.365 7.702 2.065 7.71 1.4.006 1.702-.492 1.21-2.295-.294-1.201-.577-5.002-.56-8.502.024-5.5-.966-7.705-2.276-5.41M237.239 769.26c-1.507 1.493-1.622 4.792-.222 4.798.6.003 1.004-.895 1.009-1.995s.51-1.998 1.01-1.995c1.599.007 1.077 4.804-1.043 9.195-2.321 4.79-2.124 5.39 1.676 5.308 2.3-.09 2.903-.687 3.114-3.086.313-2.799.313-2.799-1.096-.905-2.112 2.79-3.305 1.085-1.391-1.807 1.51-2.393 2.224-5.39 1.94-8.99-.19-2.002-3.19-2.315-4.997-.524M247.033 770.604c-1.214 3.094.266 7.501 2.466 7.511.8.004 1.496.907 1.49 2.007-.004 1.1-.409 1.998-1.009 1.995-.5-.002-.997-.504-.994-1.204.004-.9-.296-.902-1.2.094-1.105.995-.907 1.496.587 2.703 1.695 1.208 2.195 1.21 3.802-.283 2.008-1.79 2.538-8.388.857-12.696-1.284-3.406-4.684-3.521-6-.127m3.988 2.518c-.007 1.6-.413 2.998-1.013 2.995-.5-.002-.994-1.404-.987-3.004.008-1.7.514-2.998 1.014-2.996.6.003.994 1.305.986 3.005M225.71 775.707c-1.507 1.493-.511 2.298 2.789 2.313 2.4.01 3.502-.484 3.507-1.484.006-1.5-4.99-2.223-6.297-.829M574.706 777.29c-.904.797-.92 4.297-.12 4.3s3.315-3.185 3.42-4.284c.004-.9-2.396-.911-3.3-.015M647.527 794.721c-.903.796-.809 23.997.09 24.501.398.302 19.796.69 43.195.996l42.498.593.356-12.298c.242-9.3.056-12.3-.943-12.605-2.097-.71-84.593-1.784-85.196-1.187m70.686 3.221 11.698.653-.045 9.9-.045 9.8-38.8-.176c-21.299-.197-39.297-.578-39.995-.981-.798-.604-1.084-3.505-.754-10.304.324-5.199.544-9.498.544-9.698.203-.499 55.8.154 67.397.806"/><path d="M655.89 803.06c-.021 4.6.177 5 1.98 4.409 1.602-.493 2-.191 1.991 1.909-.013 2.8-.915 3.295-2.806 1.387-.896-.904-1.197-.706-1.204.894-.024 5.3 5.08 4.524 6.404-.97.51-2.098.115-3.3-1.876-5.31-2.488-2.51-2.582-3.91-.182-3.9.7.003 1.303-.794 1.508-1.793.306-1.299-.292-1.701-2.692-1.712-3.1-.014-3.1.086-3.123 5.086M668.71 798.518c-.906 1.396-1.473 16.193-.677 17.097.398.302 1.498.407 2.4.01 1.202-.494 1.304-.993.608-1.897-.596-.702-1.179-4.605-1.36-8.706s-.568-7.103-.97-6.504M687.402 800.402c-1.71 2.393-2.021 4.691-.521 4.698.5.002 1.403-.793 1.908-1.791 2.015-3.391 1.188 2.705-.931 6.796-2.724 5.287-2.627 5.988 1.373 6.006 2.6.012 3.602-.484 4.109-1.981.913-2.996-.38-4.502-2.09-2.31-1.81 2.392-1.702.392.22-4.199 2.628-6.288-.646-12.103-4.068-7.219M696.2 800.742c-.303.799-.009 2.1.688 2.704.996.904 1.396.906 1.7-.093.303-.598.806-1.196 1.306-1.194.4.002.187 2.901-.53 6.498-1.127 6.095-.737 8.397 1.368 7.106.402-.298 1.116-3.395 1.431-6.793.316-3.499.932-7.096 1.237-8.095.606-1.397.108-1.7-2.892-1.713-2.4-.011-3.902.482-4.307 1.58M708.605 799.799c-1.607 1.592-.716 3.496 1.287 2.906 2.403-.69 2.597.711.487 2.902-.804.796-1.508 1.693-1.51 1.993 0 .3.698.603 1.498.607.9.004 1.496.907 1.488 2.507-.006 1.4-.41 2.498-1.01 2.495-.5-.002-.998-.705-.994-1.505.008-1.7-1.591-2.007-2.498-.51-.805 1.195 1.578 5.006 3.178 5.014 2.1.01 4.52-4.68 3.732-7.184-.394-1.301-.782-3.903-.774-5.803-.087-2.7-.583-3.603-2.082-3.81-1.2-.205-2.4-.01-2.802.388M720.503 800.353c-.708 1.696-3.664 14.083-3.669 15.083-.002.5.696.803 1.496.807.9.004 1.505-.893 1.512-2.493s.611-2.497 1.511-2.493 1.496.906 1.489 2.506c-.008 1.6.588 2.503 1.588 2.508 1.3.006 1.503-.594.915-3.296a141 141 0 0 1-1.466-7.507c-.778-4.804-2.566-7.512-3.376-5.115m1.065 7.605c-.401.298-.7-.004-.697-.704s.305-.998.703-.696a1.2 1.2 0 0 1-.006 1.4M675.17 807.247c.198.7 1.895 1.309 3.695 1.317s3.503-.584 3.806-1.283c.203-.799-.895-1.204-3.795-1.217s-4.002.382-3.705 1.183M618.558 809.89c-7.72 4.365-8.72 4.56-8.71 2.06.005-.9-.889-2.303-1.986-3.008-1.795-1.109-2.796-.713-8.312 2.662-3.41 2.184-6.62 4.37-7.221 4.767-.503.498-4.314 3.08-8.327 5.762-6.219 4.172-8.228 6.263-12.359 12.945-3.223 5.085-4.94 8.877-4.747 10.478.48 4.502 5.086 3.123 18.826-5.815 15.847-10.228 15.446-9.93 17.463-13.72 1.816-3.592 7.447-10.267 8.647-10.261.4.002 4.008-1.782 8.118-4.063 7.218-3.868 7.618-3.966 15.817-3.729 6 .227 8.6.04 8.904-.86.304-.898-2.194-1.21-9.495-1.142-9.6-.044-10 .054-16.618 3.924m-10.311 2.453c.396.902-.113 2.8-1.019 4.096-1.914 3.091-2.81 2.487-1.495-1.007.81-2.096.713-2.797-.684-3.603-1.496-.907-1.495-1.007.405-1.098 1.2.005 2.497.711 2.793 1.612m-7.944 9.764c-2.923 5.087-4.733 7.08-8.843 9.46-9.124 5.26-11.23 6.55-11.733 7.147-.905 1.096-5.214 3.077-5.612 2.575-1.294-1.306 6.953-11.569 12.07-15.146 3.11-2.185 8.326-5.862 11.436-8.148s5.817-3.773 6.015-3.272c.198.5-1.317 3.794-3.333 7.384m-6.483-3.929c-.001.3-.202.5-.502.498s-.499-.203-.498-.503.203-.499.503-.497c.3.001.499.202.497.502m-3.008 1.886c-.002.3-.504.798-1.206 1.195-.701.397-.801.296-.398-.402.706-1.197 1.607-1.593 1.604-.793m12.995 1.16c-.002.3-.203.498-.503.497s-.499-.202-.497-.502c.001-.3.202-.5.502-.498.3.001.499.202.498.502m-20.621 4.606c-4.315 3.28-5.12 4.177-7.336 7.867-6.247 10.271-6.856 12.269-3.351 11.285 1.402-.494 1.401-.394-.103.6-1.806 1.19-3.703.582-3.695-1.218.018-3.8 13.395-20.74 16.395-20.726.5.003-.305 1-1.91 2.192M508.826 816.792c-1.408 1.694-.622 4.898 1.08 4.305 1.302-.394 2.227-5.79 1.027-5.795-.5-.002-1.404.693-2.107 1.49M526.913 819.674c-2.311 2.49-2.822 4.888-.819 4.097 1.803-.692 4.824-5.178 3.827-5.783-.399-.302-1.803.492-3.008 1.686M618.183 826.389c-2.205 1.19-5.213 2.976-6.817 3.869-1.604.892-13.74 8.837-26.98 17.477-23.67 15.593-25.678 17.184-32.115 25.355-1.71 2.192-5.325 5.476-7.933 7.264-2.708 1.688-5.721 4.574-6.83 6.37-2.014 3.19-2.741 9.187-1.245 10.094.499.302 1.486 3.006 2.172 6.21.786 3.103 1.973 5.809 2.672 6.112 1.497.607 10.307-1.454 11.713-2.747 1.707-1.592-.39-2.202-2.996-1.014-3.607 1.584-4.203.681-1.986-3.109 1.41-2.193 1.513-2.893.512-2.597-.8.196-2.31 2.089-3.418 4.084-1.11 1.995-2.317 3.69-2.617 3.688-.7-.003-2.858-9.313-2.845-12.113.015-3.3 2.83-6.587 10.152-11.454 3.812-2.583 7.323-5.167 7.726-5.865 1.512-2.593 7.44-8.666 7.938-8.164.298.301-.812 2.496-2.523 4.889-4.53 6.58-11.28 17.849-11.285 18.849-.01 2.3 1.898.308 5.526-5.775a1971 1971 0 0 0 6.55-10.97c1.41-2.294 3.525-5.485 4.732-6.98 2.212-2.79 2.212-2.79 7.288 2.534 4.977 5.122 5.076 5.423 4.457 9.52-.41 2.298-1.123 4.995-1.727 5.992-1.312 2.494-10.142 9.254-14.851 11.233-2.205.99-4.011 2.382-4.014 3.082s.194 1.3.494 1.302c.9.004 8.12-4.263 15.04-8.932 3.912-2.582 16.25-10.726 27.583-18.175 11.334-7.348 21.868-14.8 23.475-16.493 2.814-2.988 3.314-3.085 10.914-3.05 5.7.025 7.802-.266 7.506-1.167-.297-.801-2.695-1.212-7.095-1.132-6.8.07-6.8.07-6.086-3.228.512-2.697.017-3.8-2.37-6.61-2.884-3.414-2.884-3.414-1.07-6.405 2.014-3.191 2.65-10.989.954-11.996-3.59-2.217-6.89-2.232-10.6.052m6.594 1.43c-.003.6-1.006 1.395-2.209 1.89-1.302.494-3.91 2.182-5.916 3.673-1.908 1.591-8.728 6.16-15.047 10.232-32.596 21.052-37.813 24.728-44.644 31.597-3.918 3.983-7.633 7.266-8.233 7.263-1.7-.008-7.323 5.067-9.338 8.458-1.813 2.792-1.913 2.891-1.903.591.006-1.4 1.416-3.593 3.826-5.683 6.226-5.771 14.563-13.834 18.984-18.614 2.311-2.39 6.627-5.87 9.535-7.556 2.908-1.687 14.842-9.333 26.377-16.98 11.635-7.648 21.965-14.301 23.068-14.796 2.705-1.288 5.505-1.275 5.5-.075m2.983 3.813c-.007 1.5-.718 3.797-1.623 4.993-1.41 1.993-1.81 2.192-3.304.885-.896-.804-2.492-1.711-3.49-2.116-1.798-.608-1.697-.808 1.01-2.195 1.603-.793 3.61-2.184 4.413-2.98 2.11-2.09 3.008-1.687 2.994 1.413m-2.952 11.387c7.755 9.935 5.14 13.223-25.15 32.786-10.129 6.554-18.552 11.716-18.851 11.415-.3-.202.006-1.3.61-2.398 2.723-4.987 1.044-9.495-5.728-15.726-3.585-3.316-3.585-3.316-.779-4.603 1.503-.694 2.707-1.588 2.71-2.088.001-.4.403-.798 1.003-.796.5.003 6.918-3.968 14.24-8.735 22.467-14.698 23.169-15.095 25.469-15.085 1.6.008 3.592 1.617 6.476 5.23M512.036 836.507c-3.014 3.086-4.226 5.781-2.726 5.788s6.528-6.17 6.235-7.572c-.196-1.1-1.198-.605-3.509 1.784M646.8 844.819c-.404.898-.929 6.396-1.056 12.295-.248 10.599-.248 10.599 3.55 11.216 2.098.31 21.896.9 44.093 1.4l40.197.883.057-12.6.057-12.6-5.197-.524c-2.899-.313-22.297-.8-43.096-1.095-33.998-.554-37.898-.472-38.605 1.025m82.886 3.176c.298.501.377 5.202.152 10.7l-.445 9.899-6.197-.728c-3.298-.315-16.696-.776-29.596-.935-12.9-.158-28.098-.427-33.697-.753l-10.298-.446.046-10.1.045-10 39.697.78c21.798.499 39.895 1.181 40.293 1.583"/><path d="M655.668 851.859c-.018 4.1.278 4.901 1.48 4.507 1.903-.792 2.99 2.013 1.58 4.307-.604.997-1.105 1.195-1.102.495.003-.6-.695-1.203-1.595-1.207-1.1-.005-1.402.493-1.007 1.595.296.902.592 1.803.591 2.003-.004.9 3.699.317 4.804-.778 2.009-1.991 1.534-7.593-.76-9.004-2.592-1.712-2.582-3.812.118-3.8 3 .014 1.81-2.391-1.388-2.806-2.598-.311-2.699-.212-2.72 4.688M667.585 848.213c-.003.7-.018 3.9.068 7.1.085 3.3-.43 6.399-1.033 7.296-1.006 1.195-.807 1.396 1.493 1.407 2.1.01 2.602-.389 2.107-1.59-.296-.902-.578-4.704-.561-8.503.018-3.9-.369-6.902-.969-6.905-.5-.002-1.002.596-1.105 1.195M686.776 850.3c-.506 1.298-.712 2.597-.414 2.998.694 1.403 2.296.91 2.303-.69.004-.8.507-1.497 1.007-1.495 1.6.008 1.19 2.206-1.534 7.393-2.724 5.288-2.626 5.789.872 6.304 2.798.413 5.109-1.976 4.22-4.28-.594-1.603-.794-1.504-2.102.19-2.011 2.59-1.9-.009.114-3.1 2.316-3.489 1.54-8.893-1.357-9.306-1.6-.207-2.502.289-3.11 1.986M696.674 850.645c-.012 2.6 1.485 3.407 2.295 1.21 1.012-2.795 1.5.107.682 3.804-1.426 5.793-1.244 9.694.258 9.3.602-.296 1.513-2.892 1.827-5.89.414-2.999 1.03-6.596 1.437-8.194.712-2.597.612-2.698-2.888-2.714-3.2-.014-3.6.284-3.61 2.484M708.679 849.7c-.604.797-.91 1.895-.512 2.597.596.803.996.805 1.6-.192 1.512-2.494 2.3.11.788 2.803-1.11 1.995-1.112 2.695-.114 3 1.398.506 1.68 4.307.28 4.3-.5-.001-1.097-.504-1.294-1.205-.197-.6-.996-.804-1.598-.407-1.805 1.092.38 4.602 2.88 4.613 1.1.005 2.304-.99 2.81-2.287.91-2.296.654-12.098-.338-13.702-.893-1.504-3.095-1.214-4.502.48M675.351 855.648c-1.306 1.294.49 2.403 3.89 2.418 2.4.01 3.401-.385 3.205-1.285-.494-1.303-5.99-2.228-7.095-1.133M502.99 846.766c-2.01 2.191-2.716 3.488-1.816 3.492 1.4.006 6.522-4.77 6.528-6.17.007-1.6-1.597-.708-4.712 2.678M490.463 852.71c-1.303.493-4.315 3.18-6.827 5.868-8.642 9.261-9.757 12.456-6.08 17.573 1.391 1.906 3.086 3.014 5.186 3.224l3.198.314-.272 38c-.195 20.899-.374 38.198-.375 38.498-.101.3-4 .182-8.799-.24-21.991-2-47.881-4.217-59.778-5.071-7.097-.533-19.693-1.49-27.99-2.127-8.197-.638-20.494-1.393-27.292-1.824-11.597-.653-12.496-.857-13.886-3.063-2.285-3.51-5.08-4.623-11.28-4.551-9.701.256-16.91 2.223-19.224 5.312-1.913 2.792-1.913 2.792.174 5.601 2.784 3.513 4.582 4.021 16.582 4.175 8.599.14 10.3-.153 11.707-1.646 1.005-.996 1.711-2.393 1.715-3.193.006-1.5 4.606-1.279 49.49 2.225 50.783 3.93 73.275 5.733 83.17 6.877l5.197.624.26 8.601c.175 5.801.661 8.803 1.56 9.107.898.305 1.245-10.094 1.424-49.494l.227-49.9 3.315-3.384c1.709-1.892 4.323-5.08 5.732-6.974 1.308-1.894 3.018-4.086 3.721-4.783 1.306-1.294.828-6.097-.757-9.404-.992-1.804-6.19-2.028-10.098-.346m8.193 1.437c-.002.5-.707 1.596-1.511 2.493-1.206 1.194-1.31 1.994-.418 3.998 1.09 2.305.786 3.103-3.237 8.085-2.414 3.09-4.929 6.278-5.532 7.075-1.61 1.993-6.108 1.673-8.397-.638-3.584-3.616-2.37-6.81 5.366-14.676 3.918-3.982 5.623-5.074 7.222-4.667 1.298.306 2.7-.088 3.404-.985 1.508-1.793 3.11-2.085 3.103-.685m.672 6.303c-.304.698-.501.197-.495-1.203s.209-1.899.506-1.297c.197.7.191 1.9-.011 2.5m-155.08 83.097c2.39 2.41 2.484 3.811.37 6.802-1.409 1.993-2.31 2.19-10.21 2.153-9.5-.043-13.497-.761-12.59-2.257.303-.499-.294-1.201-1.493-1.507-2.397-.61-2.79-2.312-.59-2.302 1.8.008 2.008-1.691.311-2.299-.7-.203-.198-.5 1.202-.495 1.4.007 4.102-.481 6.005-.972 1.902-.592 6.104-.973 9.305-1.058 4.5-.08 6.098.328 7.69 1.935"/><path d="M488.625 861.001c-3.102.486-5.009 1.977-5.018 3.977-.006 1.3.194 1.301 1.8-.091 1.005-.996 2.408-1.69 3.008-1.687 1.5.007 1.584 3.607.18 4.501-.502.298-1.006 1.295-1.01 2.195-.012 2.6 2.7-.287 4.12-4.38 1.318-3.995.523-5.099-3.08-4.515M482.185 869.772c-1.012 2.695-.715 3.397 1.885 3.409 2.8.012 2.901-.287 1.514-3.094-1.29-2.305-2.59-2.411-3.399-.315M325.231 947.46c-.007 1.6.486 3.003.986 3.005.6.003 1.004-.895 1.01-1.995.007-1.7.708-1.997 5.008-1.978 3.9.018 4.999.323 4.993 1.623-.004.9.594 1.403 1.295 1.106.601-.197 1.206-1.195 1.21-2.295.008-1.7-.89-1.904-7.19-2.232-7.298-.333-7.298-.333-7.312 2.767"/><path d="M329.222 949.479c-.002.5 1.395 1.006 2.995 1.013 1.7.008 3.003-.486 3.005-.986.003-.6-1.296-1.006-2.996-1.014-1.6-.007-3.001.387-3.004.987M543.094 890.049c-1.808 1.691-2.12 4.39-.62 4.397.6.003 1.003-.796 1.008-1.796.005-1.1 1.201-.294 3.887 2.818 2.089 2.51 4.181 4.219 4.683 3.721.402-.398-.49-2.002-1.884-3.508-1.492-1.607-2.682-3.812-2.677-5.012.012-2.6-2.187-2.91-4.397-.62M553.542 901.496c-.01 2.1 4.667 7.221 6.069 6.828.701-.297-.39-2.102-2.48-4.412s-3.585-3.316-3.59-2.416M560.402 910.227c.092 1.9 7.061 8.632 7.965 7.737.503-.498-.489-2.403-2.578-4.712-3.185-3.415-5.479-4.725-5.387-3.025M572.327 926.882c-.016 3.5 1.472 6.106 6.547 11.73 7.562 8.234 8.357 9.537 8.34 13.037-.017 3.9 1.373 6.007 3.973 6.018 3.2.015 6.912-2.468 8.426-5.661 1.515-3.293 1.515-3.293 22.316-3.4 28.101-.272 27.51-2.074-.888-2.603-12.1-.155-21.697-.799-22.195-1.3-.597-.604-1.895-1.01-2.995-1.014-1.4-.107-4.387-2.92-8.563-8.24-9.248-11.542-14.933-14.867-14.961-8.567m6.393 1.529c.198.4-.406 1.298-1.509 1.993-1.505.993-1.905.991-1.9-.109.011-2.4 2.317-3.59 3.409-1.884m2.586 3.011c-.004 1-2.214 3.19-3.214 3.186-1.3-.006-.887-2.804.515-3.298 1.903-.791 2.703-.788 2.7.112m2.288 2.81c.696.804-1.716 3.393-3.216 3.386-1.4-.006-1.394-1.306.113-2.8 1.306-1.293 2.207-1.49 3.103-.585m3.085 3.315c.794 1.203-2.116 3.39-3.412 2.584-.798-.503-.795-1.103.11-2.1 1.307-1.593 2.508-1.788 3.302-.484m2.581 4.112c-.005 1.2-2.811 2.487-3.608 1.683-.896-.904.613-2.697 2.213-2.69.8.004 1.397.507 1.395 1.007m1.683 3.707c-.904.896-1.906 1.392-2.305 1.09-.995-1.005.613-2.797 2.413-2.79 1.5.008 1.5.108-.108 1.7m7.192 1.733c.896 1.004.891 2.004-.018 4-1.212 2.594-2.916 3.487-2.907 1.587.003-.6.505-.998 1.005-.996.6.003 1.002-.495 1.004-.995.011-2.5-3.097-.714-3.709 1.983-.718 3.897-3.717 3.683-4.099-.219-.579-4.702 5.94-8.773 8.724-5.36"/><path d="M644.692 934.81c-.201.2-.428 5.998-.458 12.798l-.056 12.3 29.299.233c16 .173 35.699.362 43.599.398l14.399.265.355-12.198.355-12.099-6.198-.428c-3.4-.215-20.098-.591-37.197-.869-17-.177-33.898-.454-37.298-.57-3.499-.115-6.6-.029-6.8.17m72.386 3.129 11.197.65-.045 9.9-.044 9.8-40-.181-40-.182.048-10.5.048-10.5 28.8.131c15.8.072 33.798.453 39.996.882"/><path d="M653.974 938.652c-.401.298-.711 2.597-.722 4.997-.019 4 .18 4.4 1.982 3.809 1.703-.492 2.001-.19 1.99 2.41-.008 1.7-.415 3.097-1.015 3.095-.5-.003-.997-.505-.995-1.005.003-.6-.396-1.002-.996-1.005-1.6-.007-1.211 2.595.582 4.103 1.395 1.106 1.895 1.009 3.605-1.084 2.513-2.988 2.032-7.19-.962-8.504-2.595-1.112-2.48-4.211.117-3.7 1.1.206 1.702-.392 1.708-1.792s-.59-2.002-2.29-2.01c-1.3-.006-2.702.288-3.004.686M665.975 938.607c-.402.398-.72 4.496-.742 9.096-.033 7.4.163 8.301 1.763 8.308 1.7.008 1.803-.791 1.437-8.293-.363-8.002-1.052-10.505-2.458-9.111M685.665 940.696c-1.308 1.794-1.412 2.794-.616 3.597.796.804 1.398.507 2.106-1.29 1.01-2.396 1.01-2.396.999.304.093 1.4-.822 4.697-1.833 7.092-2.223 5.09-2.026 5.691 2.074 5.71 2.5.01 2.802-.288 2.815-3.288-.086-2.9-.186-3-1.393-1.506-2.314 3.19-2.708 1.888-.59-2.203 2.523-4.988 2.537-8.188.045-9.8-1.696-1.007-2.196-.91-3.607 1.384M695.261 941.64c-.013 2.9.686 3.203 2.697.712 1.307-1.494 1.406-1.394.894 1.304-1.434 7.593-1.857 12.492-1.057 12.495.6.003 1.615-3.292 2.333-7.19.718-3.996 1.635-7.792 1.839-8.491.404-.898-.595-1.303-3.095-1.314-3.2-.015-3.6.284-3.61 2.484M706.252 943.69c-.017 3.8.28 4.5 1.98 4.509 1.5.006 1.996.709 1.989 2.409-.007 1.4-.413 2.798-1.014 3.095-.502.298-1 .095-.999-.405.003-.6-.695-1.103-1.495-1.106-1.8-.008-1.905 1.191-.312 2.798 1.99 2.01 4.393 1.42 5.606-1.274 1.717-3.793 1.523-5.093-1.267-7.306-2.99-2.414-3.181-4.215-.481-4.202 1.1.005 2.003-.691 2.007-1.491q.006-1.5-2.994-1.514c-2.9-.013-3 .187-3.02 4.486M716.862 941.438c-1.911 2.591-2.139 8.59-.455 12.298.791 1.803 1.888 2.508 3.888 2.517 2.5.012 2.701-.287 3.12-4.486.217-3.699.02-4.5-1.28-4.505-1.199-.006-1.602.592-1.208 1.994.295 1.101.188 2.701-.116 3.6-.506 1.297-.907 1.396-2.102.39-1.893-1.608-1.864-8.008-.052-10.6 1.408-1.794 1.508-1.793 2.1-.19.989 2.604 2.69 2.212 2.303-.49-.386-3.102-4.184-3.52-6.198-.528M673.736 947.042c-.302.599-.005 1.3.893 1.604 2.197.81 5.9.127 6.406-1.37.507-1.499-6.392-1.73-7.299-.234M307.231 947.379c-.002.5 1.596 1.007 3.496 1.016 1.9.008 3.502-.484 3.504-.984.003-.6-1.595-1.008-3.495-1.016s-3.502.384-3.505.984M351.185 957.678c-.802.497-4.612 2.58-8.422 4.862-3.71 2.183-7.018 3.968-7.318 3.967-.2 0-2.306 1.19-4.613 2.68-2.307 1.589-5.114 3.276-6.217 3.871-2.105 1.09-11.056 12.35-14.884 18.533-1.916 3.391-4.924 5.177-26.072 15.681-23.854 11.892-23.854 11.892-34.354 11.845-7.4-.034-10.501.252-10.205 1.053.296.802 3.795 1.118 10.795 1.05 10.401-.153 10.401-.153 35.057-12.442 18.442-9.116 25.055-11.986 26.252-11.28 1.795 1.008 5.3-.177 9.814-3.056 1.404-.994 5.214-3.176 8.522-4.961s8.422-4.662 11.329-6.25c3.007-1.586 6.621-4.67 8.03-6.763 8.858-12.56 10.176-16.654 6.085-18.572-1.297-.606-2.997-.714-3.8-.218m3.68 4.417c.195 1.101-1.923 5.091-4.54 8.88-4.026 5.681-6.135 7.672-13.556 12.138-4.913 2.978-9.024 5.36-9.224 5.358-.2 0-3.107 1.586-6.416 3.471-5.916 3.474-10.12 4.454-10.11 2.355.007-1.8 8.259-13.063 12.578-17.344 2.31-2.19 5.923-4.973 8.128-6.063 2.105-1.19 7.519-4.166 11.93-6.746 8.523-4.861 10.924-5.25 11.21-2.049"/><path d="M346.655 964.258c-2.806 1.387-6.215 3.372-7.72 4.365-1.405 1.094-2.909 1.887-3.309 1.885-.3-.001-2.605 1.288-5.013 2.977-2.407 1.59-4.714 2.979-5.214 2.977-1.8.091-11.166 14.55-10.07 15.554.696.703 9.015-3.26 16.635-7.725 3.41-2.084 6.717-3.77 7.217-3.767 3.3.015 15.074-16.232 13.282-18.04-.498-.502-3.101.286-5.808 1.774m1.68 4.508c-3.626 5.683-5.433 7.175-16.261 13.326-12.131 6.845-14.536 7.934-13.328 6.04 4.735-7.68 7.246-9.968 17.17-15.323 2.306-1.29 6.317-3.671 8.924-5.26 2.607-1.587 4.913-2.777 5.111-2.476.2.2-.508 1.898-1.616 3.693M357.886 979.409c-20.657 12.506-29.682 17.966-32.89 19.651-13.633 7.338-21.256 12.504-28.087 19.373-4.12 4.181-9.34 8.757-11.546 10.047-2.206 1.39-4.92 4.178-6.028 6.173-1.916 3.491-1.917 3.791-.239 8.5 2.172 6.31 2.155 10.009-.049 10.799-1.002.395-6.416 3.671-12.033 7.346-10.131 6.754-10.131 6.754-18.532 7.015-10.702.352-10.21 2.254.69 2.304 8-.064 8-.064 19.535-7.712 9.328-6.158 12.034-7.545 14.232-7.035 3.097.614 10.805-1.151 10.811-2.551.006-1.3-1.194-1.306-4.4-.02-2.504.888-3.699-.217-1.593-1.507 1.304-.795 1.311-2.495.011-2.5-.6-.003-1.604 1.092-2.21 2.49-1.718 3.792-2.814 2.987-2.792-1.913.011-2.5-.378-4.802-.977-5.105-1.595-1.007-1.082-4.005 1.131-6.895 1.107-1.395 5.12-4.376 8.83-6.56 3.71-2.083 8.025-5.463 9.534-7.456 1.509-1.894 3.921-4.683 5.428-6.076 5.825-5.473 5.918-4.073.385 3.302-10.765 14.151-15.6 22.13-11.789 19.447.602-.398 3.923-4.983 7.447-10.167 7.953-11.764 10.466-14.552 16.18-17.526 8.72-4.76 15.639-8.63 29.676-16.866 7.82-4.564 15.038-8.332 16.238-8.326 1.2.005 3.69 2.016 6.177 5.128 4.277 5.02 4.277 5.02 2.959 9.013-2.027 5.891-6.144 9.673-18.577 17.016-19.252 11.313-31.582 17.957-32.28 17.354-.198-.301.007-1.4.612-2.497.605-1.198 1.118-3.995 1.13-6.495.015-3.5-.578-5.103-3.363-8.316-4.277-5.02-5.883-3.826-1.706 1.293 3.68 4.516 3.96 9.018 1.032 15.104-2.019 4.091-8.34 8.663-16.755 12.025-1.803.691-3.308 1.685-3.31 2.185-.01 2.1 4.198.519 13.122-4.84 5.214-3.077 10.829-6.352 12.433-7.145 1.703-.792 8.22-4.462 14.536-8.034 28.273-15.972 30.982-17.96 34.216-25.545 2.425-5.489 2.429-6.289-.156-9.6-1.988-2.61-1.987-2.81-.372-6.202 1.919-4.092 1.44-8.694-1.147-11.606-2.687-3.012-7.09-2.232-15.514 2.93m12.709-1.842c-1.105.995-17.55 11.02-18.05 11.018-.2-.001-4.01 2.182-8.523 4.961-4.512 2.68-8.323 4.963-8.523 4.962-.3-.002-5.012 2.677-10.527 5.952s-10.527 5.952-11.027 5.95c-.6-.003-1.002.395-1.004.995-.003.5-.705.997-1.505.994-.9-.004-5.116 3.576-9.336 7.857s-9.54 8.757-11.744 9.847-5.516 3.375-7.223 5.067c-1.808 1.692-3.313 2.785-3.31 2.285.007-1.8 3.524-5.484 8.84-9.06 3.21-2.085 7.929-6.264 10.442-9.252 3.82-4.483 15.258-12.731 17.558-12.72.3 0 1.704-.793 3.109-1.887 1.504-.993 8.825-5.46 16.245-9.826 7.42-4.266 17.346-10.121 22.059-13 4.713-2.779 9.623-5.056 11.023-5.05s1.998.409 1.496.907m2.986 3.113c.395 1.102.384 3.402-.023 5-.816 3.497-3.418 3.985-5.304.876-.993-1.604-1.991-1.909-3.993-1.518-2.402.49-2.502.389-.797-.704 1.003-.595 3.21-2.185 5.015-3.377 3.913-2.682 4.313-2.68 5.102-.277m-13.53 6.439c-.002.6-7.62 4.465-8.72 4.46-.9-.004 6.822-4.769 8.022-4.863.4-.098.7.103.698.403m-14.94 8.932c-2.407 1.39-4.61 2.28-4.81 2.078-.498-.502 6.72-4.47 8.22-4.462.601-.098-1.004 1.095-3.41 2.384m-6.113 2.873c-.002.3-.504.797-1.206 1.194s-.801.296-.398-.402c.705-1.197 1.607-1.592 1.604-.792m-3.01 2.086c-.001.3-.202.499-.502.498s-.5-.203-.498-.503c.001-.3.202-.499.502-.497.3.001.5.202.498.502m-2.004.89c-.002.5-6.92 4.57-7.82 4.565-.6-.102 6.922-4.968 7.622-4.965.1 0 .199.2.198.4m-9.525 5.558c-.303.498-1.205.994-1.805.991-.7-.003-.598-.402.305-.998 1.905-1.192 2.305-1.19 1.5.007m-3.813 2.682a1.2 1.2 0 0 1-1.4-.006c-.298-.401.004-.7.704-.697s.998.305.696.703m-3.708 1.784c-.001.3-.202.499-.502.497-.3-.001-.499-.202-.498-.502s.203-.5.503-.498.499.203.497.503m-2.004.99c-.002.3-.202.5-.502.498-.3-.001-.5-.202-.498-.502.001-.3.202-.5.502-.498s.5.202.498.502M447.835 990.917l-.354 11.999 7.998.336c4.4.22 23.998.509 43.498.498l35.5.16.356-12.298.355-12.198-43.5-.198-43.499-.197zm83.196.978-.048 10.6-32.198-.446c-17.8-.181-35.798-.563-39.997-.782l-7.798-.435.045-9.9.045-9.9 40 .181 40 .182z"/><path d="M458.068 983.564c-1.608 1.892-1.66 13.292-.167 14.8 1.892 1.908 4.603-.58 4.922-4.679.314-3.098.017-3.8-1.68-4.307-1.3-.306-2.094-1.41-2.09-2.51.008-1.6.309-1.798 1.305-.894 1.395 1.106 2.697.612 2.704-.988.002-.5-.894-1.304-1.892-1.808-1.396-.807-2.197-.71-3.102.386m2.956 9.913c-.007 1.4-.413 2.798-1.015 3.096-.601.397-.996-.705-.989-2.405s.514-3.098 1.014-3.095c.6.002.995 1.104.99 2.404M468.472 982.91c-3.01 1.987-2.64 8.689.656 9.704.998.404 1.894 1.309 1.89 2.109-.005 1.1-.606 1.297-2.004.89-2.396-.81-2.91 2.187-.514 3.098 2.994 1.214 4.507-1.48 4.536-7.98.032-7.1-1.555-9.906-4.564-7.82m2.576 5.213c-.007 1.6-.414 2.998-1.014 2.995-.5-.002-.993-1.404-.986-3.004.008-1.7.514-2.998 1.014-2.996.6.003.994 1.305.986 3.005M518.973 982.74c-.201.2-.319 4.099-.139 8.5.275 5.6.664 8.103 1.564 8.107.8.003 1.104-.995.814-3.097-.29-2.201-.087-3 .71-2.496.6.402 1.093 1.805 1.086 3.205-.008 1.8.49 2.402 2.09 2.409 1.1.005 1.9-.291 1.703-.792-.198-.401-1.189-2.406-2.28-4.51-1.784-3.509-1.782-3.909-.167-7.201 1.01-2.096 1.217-3.695.718-3.997-.598-.403-1.502.593-2.21 2.19-1.011 2.495-1.211 2.594-1.603.792-.39-2.201-1.583-3.807-2.286-3.11M489.07 983.404c-.101.2-.218 3.8-.337 8.099-.234 7.499-.135 7.7 2.165 7.71 1.7.008 2.202-.39 1.707-1.592-.296-.902-.58-4.503-.564-8.003.023-5-.27-6.401-1.47-6.407-.8-.003-1.501.093-1.501.193M497.059 985.74c-.006 1.4.489 2.503.989 2.505.6.003 1.003-.695 1.006-1.495s.507-1.498 1.107-1.495c1 .004.775 5.603-.456 12.398-.102.5.295 1.001.994 1.304s1.407-1.593 1.925-5.391c.314-3.199 1.03-6.795 1.536-8.093.81-1.996.61-2.197-3.09-2.214-3.6-.017-4.001.282-4.011 2.482M508.96 985.395c-1.311 2.594-.751 11.496.94 13.204 3.286 3.315 6.824-5.169 4.955-11.978-1.082-3.905-4.08-4.518-5.894-1.226m4.074 5.918c-.015 3.3-.427 5.998-.927 5.996-1.2-.005-1.685-3.408-1.163-8.305.527-5.898 2.12-4.29 2.09 2.31M476.534 991.148c-.302.498-.006 1.3.893 1.604 2.096.81 6.1.127 6.105-1.073.006-1.4-6.191-1.928-6.998-.531M148.753 1008.26c-.302.499-.527 6.098-.456 12.398l.048 11.5 4.497.621c2.498.411 22.397.802 44.296 1.001l39.699.38.056-12.5.058-12.6-6.7-.03c-3.8-.017-23.499-.406-43.897-.9-21.898-.398-37.298-.368-37.6.13m60.889 2.677 24.3.11-.05 10.7-.047 10.6-40.597-.785c-22.298-.4-40.796-.885-40.896-1.085-.298-.301-.72-17.404-.508-20.203.102-.5 7.003-.568 16.801-.223 9.098.44 27.597.825 40.997.886"/><path d="M157.728 1013.901c-.618 3.997.268 6.901 2.07 6.61 1.1-.195 1.697.607 1.889 2.408.19 2.001-.113 2.8-1.213 2.795-.8-.004-1.597-.608-1.894-1.309-.197-.6-.796-.804-1.298-.406-.904.896.582 3.903 2.28 4.41.599.203 1.802-.391 2.706-1.287 2.41-2.39 1.734-7.592-1.16-8.906-2.794-1.212-2.482-3.91.62-4.297 2.901-.387 1.81-2.192-1.29-2.206-1.7-.007-2.503.589-2.71 2.188M169.837 1011.956c0 .1-.118 4-.24 8.599-.231 7-.037 8.2 1.363 8.206s1.606-1.292 1.538-8.193c-.075-5.5-.463-8.302-1.262-8.506-.698-.303-1.298-.306-1.4-.106M190.23 1013.349c-1.507 1.593-1.72 4.492-.52 4.497.5.003 1.405-.993 1.91-2.291.91-1.896 1.21-1.995 1.803-.492.396.902-.418 3.998-1.933 7.191-1.414 3.094-2.627 5.889-2.627 6.089-.002.3 1.597.507 3.497.515 3.8.018 5.71-2.174 3.62-4.283-.797-.804-1.097-.805-1.1.095-.004.7-.606 1.197-1.406 1.193-1.2-.005-1.097-.805.52-4.397 1.515-3.393 1.722-4.992.932-6.996-1.087-2.905-2.785-3.313-4.695-1.121M202.734 1012.705c-2.302.29-2.804.788-2.814 2.988-.011 2.5.089 2.5 1.397.606 2.113-2.79 2.806-1.287 1.683 3.708-1.325 5.594-1.44 8.893-.24 8.899.6.002 1.31-2.094 1.622-4.793.412-2.598 1.127-5.995 1.634-7.593 1.116-3.495.42-4.298-3.282-3.815M212.33 1013.349c-1.003.795-1.407 1.794-1.01 2.495.595.903 1.196.706 2.202-.59 1.208-1.694 1.307-1.594 1.397.707-.007 1.5-.514 3.097-1.217 3.794-.904.896-.807 1.497.688 2.603 1.096.805 1.591 1.908 1.186 3.006-.809 1.996-2.71 2.087-2.7.087.004-.8-.393-1.501-.993-1.504-1.8-.008-1.116 3.495.978 4.804 3.19 2.015 5.008-1.877 4.343-9.48-.57-6.503-1.863-8.108-4.873-5.922M222.4 1020.195c-2.242 9.29-2.241 8.99-.743 9.496q1.197.456 1.212-2.694c.011-2.5.414-3.098 1.813-2.792.999.205 1.694 1.308 1.687 2.708s.589 2.602 1.287 2.906c1.498.506 1.612-2.693.235-7.7-.49-2.002-1.178-4.805-1.47-6.406-.88-4.504-2.187-3.11-4.021 4.482m2.195 1.01c-.303.798-.602.497-.597-.603-.095-1.1.208-1.7.506-1.298.299.302.394 1.202.091 1.9M177.397 1020.79c.297.502 2.195 1.01 4.095 1.019s3.402-.485 3.405-.985c.002-.6-1.796-1.008-4.096-1.018-2.4-.011-3.802.383-3.404.984M284.418 1038.476c-.806 1.197-1.312 2.594-.915 3.096.298.501.9.304 1.402-.394.705-1.096 1.603-.592 3.79 2.118 1.592 1.907 3.287 3.115 3.688 2.716.402-.398-.49-2.002-1.984-3.509-1.691-1.907-2.384-3.51-1.98-4.509.912-2.495-2.19-2.11-4.001.482M293.774 1048.119c-.006 1.2 4.874 5.622 5.477 5.025.703-.697-3.374-5.816-4.574-5.821-.5-.002-.901.396-.903.796M301.735 1056.755c-.008 1.6 4.772 6.222 5.576 5.325.703-.696-2.576-5.411-4.273-6.12-.698-.302-1.3-.005-1.303.795M149.134 1056.563c-.2.199-.427 5.998-.458 12.798l-.056 12.3 18.8.085c10.3.047 29.798.435 43.396.897 16.698.475 25.2.314 26.002-.382 1.004-.696 1.219-4.095 1.057-12.496l-.247-11.6-5.198-.524c-6.097-.728-82.693-1.676-83.296-1.078m70.885 3.421 14.8.067-.346 10.099-.346 10.198-40.399-.383c-22.299-.201-40.797-.585-41.296-.887-.399-.302-.777-5.004-.752-10.604l.045-10 26.797.722c14.699.367 33.398.651 41.497.788"/><path d="M158.417 1060.405c-.402.298-.712 2.597-.723 4.996-.017 3.8.18 4.301 2.182 4.01 1.7-.092 2.398.411 2.59 2.212.29 2.102.09 2.3-2.308 1.69-2.197-.61-2.598-.412-2.305 1.09.489 2.502 3.887 2.917 5.497.724 2.113-2.79 1.628-6.192-1.164-8.005-2.99-2.014-3.28-4.415-.48-4.402 1.1.005 2.003-.691 2.007-1.491.007-1.5-3.99-2.118-5.296-.824M170.714 1060.96c-.411 2.499-.272 16 .226 16.402.298.401 1.398.406 2.3.01 1.302-.494 1.504-.893.608-1.797-.697-.703-1.18-4.206-1.164-8.005.018-3.9-.369-6.802-.969-6.805-.5-.002-1 .096-1 .196M190.91 1062.052c-1.507 1.493-1.622 4.793-.222 4.8.6.002 1.504-.994 1.91-2.292.809-1.896 1.01-1.996 1.602-.493.396 1.002-.417 3.798-1.93 6.791-1.413 2.794-2.626 5.589-2.628 6.089s1.596.907 3.496.915c3.3.015 3.5-.184 3.515-3.284-.087-2.9-.187-3-1.393-1.506-2.315 3.19-2.709 1.888-.59-2.203 1.11-2.095 2.02-4.69 2.026-5.79.009-2-1.781-4.209-3.481-4.216-.6-.003-1.602.492-2.305 1.19M200.704 1063.397c-.012 2.6 1.484 3.406 2.294 1.21.203-.599.804-.896 1.202-.494.498.502.289 2.5-.321 4.698-1.42 4.594-1.641 9.093-.341 9.099.5.002 1.413-2.994 2.03-6.791.717-3.697 1.435-7.494 1.74-8.492.405-1.399-.093-1.7-2.993-1.714-3.2-.015-3.601.284-3.611 2.484M212.708 1062.451c-.905 1.096-1.009 1.896-.312 2.599.797.803 1.297.706 1.7.007.403-.598 1.105-1.095 1.705-1.092 1.5.007.992 1.805-1.117 3.795-2.109 1.89-2.109 1.89-.011 2.5 1.098.305 1.994 1.31 1.989 2.41-.014 3.1-1.116 3.394-3.105.985-1.492-1.807-1.791-1.908-1.898-.509-.12 4.4 3.072 6.314 5.784 3.627 1.406-1.394 1.63-6.393.233-7.3-.498-.302-.593-1.502-.087-2.8 1.72-4.392-2.066-7.51-4.881-4.222M178.38 1068.395c-1.305 1.294.49 2.403 3.79 2.418 3.7.016 5.406-1.376 2.91-2.387-2.096-.81-5.896-.827-6.7-.03M310.081 1068.593c.485 3.402 1.775 5.508 6.056 9.828 2.985 3.113 5.473 5.824 5.471 6.224-.002.6-14.35 11.235-23.78 17.493-3.41 2.284-6.52 4.57-6.823 5.169-.402.598-9.904.955-25.604.884-15.9-.072-24.902.287-24.904.887-.007 1.4 48.493 1.52 51.1.132 1.202-.595 2.807-1.688 3.71-2.384.904-.796 5.82-4.273 10.736-7.851 5.016-3.477 10.936-7.85 13.344-9.54 3.712-2.683 4.413-2.88 5.707-1.574.796.804 1.486 3.007 1.478 4.807-.03 6.5 4.266 7.62 10.288 2.747 2.71-2.188 3.717-3.783 3.726-5.883.014-2.9-2.376-5.111-4.58-4.321-.6.197-4.883-3.722-9.46-8.743-8.16-9.037-12.046-12.055-15.446-12.07-1.4-.007-1.503.693-1.019 4.195m4.006-1.282c.298.502-.105 1.1-.907 1.496-.901.296-1.5-.007-1.496-.907.008-1.6 1.61-1.992 2.403-.589m3.586 3.116c-.006 1.2-3.514 3.085-4.41 2.28-.796-.903 1.414-3.293 3.014-3.286.8.004 1.399.406 1.396 1.006m2.986 3.014c-.002.5-.404.998-1.004.996-.5-.003-1.003.495-1.005.995-.003.6 1.097.805 2.498.411 3.003-.686 3.395 1.116.589 2.603-2.606 1.288-3.106 1.286-3.099-.414.004-.8-.692-1.703-1.59-2.007-1.298-.506-1.396-.907-.391-2.102 1.408-1.694 4.009-1.982 4.002-.482m5.974 5.827c-.005 1-4.116 3.482-4.713 2.779-.896-.804 1.717-3.592 3.316-3.585.8.004 1.4.306 1.397.806m2.486 3.112c.297.6-.307 1.498-1.41 1.993-2.606 1.388-3.106 1.386-3.098-.314.01-2.1 3.415-3.384 4.508-1.68m3.285 3.314c-.608 1.598-3.616 3.384-4.412 2.48-.895-.904 1.517-3.693 3.317-3.684.8.003 1.298.505 1.095 1.204m6.182 3.929c-.007 1.5-.509 1.897-1.906 1.391-1.898-.609-3.608 1.684-3.22 4.185.097.8-.905 1.296-2.405 1.29-3.5-.016-3.382-4.116.131-6.9 3.613-2.784 7.413-2.766 7.4.034M148.06 1094.858c-.303.699-.428 6.198-.256 12.299l.25 11.001 10.498.648c5.698.426 26.096.818 45.196 1.005l34.799.258-.245-12.201c-.249-11.202-.345-12.102-2.244-12.31-1.1-.206-21.197-.697-44.795-1.104-34.398-.656-42.798-.594-43.203.404m86.289 2.692c.799.303 1.185 3.305 1.152 10.505l-.045 10-16.3-.074c-9-.04-27.898-.427-41.996-.89l-25.597-.717-.258-9.401c-.177-5.1-.156-9.7.046-10.1.203-.7 80.601-.034 82.998.677"/><path d="M157.337 1099.9c-.618 4.097.27 6.802 2.27 6.81 1.4.007 1.896.71 1.888 2.51-.012 2.7-.914 3.195-2.706 1.387-.697-.703-1.297-.706-1.7-.108-1.108 1.795 2.28 4.31 4.286 3.22 3.909-1.983 2.945-9.987-1.055-10.005-2.6-.012-2.187-2.81.415-3.198 3.502-.484 3.412-2.785.012-2.8-2.4-.011-3.102.486-3.41 2.184M170.446 1097.96c0 .2-.118 4-.239 8.599-.232 7.099-.037 8.2 1.463 8.206 2 .01 3.207-1.585 1.811-2.491-.498-.303-.983-3.705-.965-7.605s-.369-6.902-.969-6.904c-.5-.003-1 .095-1.1.195M191.742 1099.056c-1.507 1.494-1.627 5.793-.227 5.8.6.002 1.004-.896 1.01-1.996.004-1.1.508-1.998 1.008-1.996 1.7.008 1.079 4.805-1.037 8.196-2.821 4.687-2.626 5.788 1.474 5.807 3.1.014 3.501-.285 3.511-2.484.012-2.6-1.484-3.407-2.294-1.31-.203.698-.704.996-1.103.694-.398-.402.311-2.499 1.522-4.793 2.017-3.89 2.02-4.29.53-6.598-1.788-2.808-2.687-3.012-4.394-1.32M201.24 1099.6c-1.105.994-.82 4.296.28 4.3.6.003 1.002-.495 1.004-.995.003-.6.705-.997 1.605-.992 1 .004 1.397.606.992 1.704-1.22 4.395-1.851 11.292-.851 11.296.5.003 1.413-2.793 1.928-6.291.616-3.397 1.432-6.994 1.837-7.992.606-1.397.207-1.699-2.693-1.712-1.9-.009-3.8.283-4.103.681M212.522 1103.45c-.018 4 .18 4.502 2.18 4.21 1.501-.093 2.299.411 2.593 1.712.49 2.203-1.822 4.792-2.513 2.789-.592-1.703-2.293-1.51-2.3.29-.01 2.1 3.482 3.815 4.79 2.221 2.11-2.49 2.428-6.389.736-8.096-.896-.904-2.093-1.61-2.593-1.612s-.897-.704-.893-1.504.907-1.496 2.007-1.491 2.003-.691 2.006-1.491q.007-1.5-2.993-1.514c-2.9-.013-3 .187-3.02 4.487M223.534 1100.9c-1.312 2.495-1.344 9.695-.056 12.2.596 1.003 2.092 1.91 3.392 1.916 2 .009 2.402-.59 2.919-4.187.621-4.797.424-5.298-1.88-4.408-1.303.494-1.404.893-.41 2.098 1.492 1.806.58 4.502-1.52 4.493-1.2-.006-1.495-1.207-1.476-5.407.027-6 1.034-7.495 3.423-4.984 1.493 1.406 1.594 1.307 1.604-.993.01-2.1-.488-2.602-2.488-2.611-1.4-.007-2.903.786-3.508 1.884M178.506 1106.796c-.002.5 1.796 1.009 3.996 1.018s4.002-.481 4.004-.981c.003-.6-1.795-1.009-3.995-1.018s-4.002.381-4.005.981"/></svg>