<svg xmlns="http://www.w3.org/2000/svg" viewBox="0 0 870.754 1227.063" fill="currentColor"><path d="M583.69 186.625c-6.901.268-12.904.84-13.205 1.138-.302.299-.328 5.799.042 12.2l.545 11.703 15.1-.029c27.9.032 70.707-1.266 71.611-2.162.503-.498.629-5.997.358-12.199l-.547-11.202-30.601.056c-16.8.02-36.301.228-43.303.495m72.148 11.34-.047 9.8-24.203.586c-13.4.237-31.804.75-40.905 1.008l-16.603.621-.57-6.402c-.283-3.502-.461-8.203-.35-10.402l.218-4 16.501-.221c9.1-.057 17.202-.32 18.003-.516s12.002-.343 24.802-.383l23.2.01z"/><path d="M590.969 191.16c-.704.797-1.114 2.995-.923 4.796.187 2.8.685 3.303 2.586 3.012 1.802-.292 2.2.21 2.19 2.21-.013 2.7-1.52 4.293-2.512 2.588-.893-1.504-2.495-1.211-2.502.389-.006 1.3 1.987 2.609 3.987 2.618 1.7.008 3.12-4.085 2.533-6.988-.392-1.602-1.485-3.207-2.583-3.512-2.596-.812-2.384-3.511.216-3.5 1.2.007 1.903-.49 1.706-1.291-.691-1.803-3.29-2.016-4.698-.322M611.854 194.458c-.02 4.1.178 4.501 1.981 3.91 1.703-.492 2.001-.19 1.989 2.41-.016 3.299-.819 3.895-2.81 1.886-.895-.904-1.196-.706-1.203.894-.013 2.6 2.283 3.611 4.49 1.921 2.51-1.788 1.737-7.792-1.156-9.105-2.795-1.213-2.984-3.514-.284-3.502 1.1.006 2.003-.69 2.007-1.49.004-.9-.893-1.504-2.493-1.512-2.3-.01-2.502.388-2.521 4.588M624.975 189.92c-.101.3-.319 3.999-.439 8.298-.232 6.9-.036 7.7 1.664 7.708 1.4.007 1.602-.392 1.008-1.795-.396-.902-1.078-4.605-1.361-8.207-.383-3.602-.77-6.303-.872-6.004M633.467 191.56c-1.011 2.495-.749 10.397.342 12.502 1.487 2.707 3.688 2.417 4.504-.879 1.321-4.594 1.33-6.494-.154-9.9-1.383-3.507-3.68-4.318-4.692-1.723m3.982 3.919c.682 3.803-.14 8.5-1.54 8.493-.5-.003-1.191-1.806-1.581-4.008-1.167-7.005 1.854-11.391 3.121-4.485M581.146 195.914c-2.324 5.089-2.332 6.789.168 6.8.7.004 1.496.908 1.69 2.008.195 1.201.791 2.104 1.291 2.007 1.1.005.967-14.096-.228-15.202-.398-.302-1.707 1.592-2.92 4.387m1.684 3.408c-.003.8-.505 1.197-1.004.895-.598-.403-.795-1.104-.492-1.602.906-1.396 1.505-1.093 1.496.707M600.833 198.806c-.002.5 1.395 1.007 2.995 1.015 1.7.008 3.003-.486 3.005-.986.003-.6-1.295-1.006-2.995-1.014-1.6-.008-3.002.385-3.005.985M611.914 266.56c.263 29.1.642 54.703.931 57.004.672 5.904-.627 5.697-14.487-2.668-14.16-8.467-33.01-19.256-33.71-19.259-.3-.001-1.696-.808-3.091-1.815-1.495-1.107-5.185-3.224-8.177-4.938-2.993-1.614-9.275-5.344-13.962-8.066-10.371-6.249-13.668-6.865-22.978-4.808-3.904.881-8.306 1.26-9.704.854-1.499-.307-6.087-2.729-10.176-5.248-8.575-5.24-35.7-21.169-43.978-25.808-2.992-1.714-8.378-4.84-11.868-6.956-3.39-2.116-6.482-3.83-6.682-3.831s-2.693-1.413-5.585-3.227c-9.274-5.543-17.053-9.88-22.74-12.707-5.487-2.726-5.487-2.726-43.488-2.605-24.401.185-38.704.618-40.007 1.312-5.313 2.775-5.529 6.074-2.137 29.19 1.358 8.806 3.294 22.316 4.358 30.02 2.512 18.713 4.287 24.121 10.352 31.45 2.089 2.41 2.68 4.313 2.957 9.214.27 6.101 2.253 9.91 5.153 9.924.8.004 2.696.913 4.19 2.12 2.292 1.711 3.291 1.916 4.895 1.023 2.707-1.387 3.207-1.385 3.2.215-.004.8.889 2.205 1.984 3.21 2.788 2.613 2.701-.188-.185-3.201-1.691-1.808-1.887-2.61-.983-3.505 1.607-1.592 1.52-4.293-.273-5.801-.896-.804-1.29-2.106-.883-3.504.815-3.297-2.165-7.51-5.465-7.526-3.2-.115-6.885-3.133-10.757-9.051-4.866-7.423-5.354-9.925-10.081-46.548-.58-4.403-1.449-10.907-2.032-14.51s-.86-8.504-.648-11.003c.321-4.499.321-4.499 4.824-5.077 2.502-.389 19.603-.508 38.002-.321 33.399.257 33.499.258 37.488 2.676 4.188 2.52 5.884 3.428 16.954 9.78 3.89 2.119 8.378 4.74 9.973 5.748 1.695 1.008 3.79 2.017 4.789 2.322.898.404 1.695 1.008 1.693 1.508s.496.902.996.905c.6.003 3.991 1.819 7.58 4.036s6.782 4.032 6.982 4.033c.2 0 7.18 4.133 15.557 9.173 8.376 5.14 16.852 10.18 18.747 11.188 1.895 1.11 5.785 3.328 8.477 4.94 6.582 3.731 11.48 4.455 19.687 2.693 8.308-1.66 9.407-1.255 23.768 7.012 10.172 5.948 15.558 8.974 24.933 14.318 2.493 1.312 6.981 3.933 9.973 5.747 18.05 10.685 23.733 14.112 26.426 15.625 1.695 1.008 8.577 5.04 15.458 9.073 6.78 4.032 13.761 8.165 15.457 9.073 1.596.907 7.678 4.636 13.462 8.063 5.784 3.527 13.362 8.063 16.953 10.08s10.571 6.15 15.457 9.073c13.363 7.863 15.358 9.073 22.439 13.106 21.343 12.2 21.741 12.503 34.36 29.662 4.87 6.623 9.143 12.243 9.441 12.545s1.69 2.108 2.982 4.014c1.29 1.906 12.32 16.858 24.443 33.215s22.556 30.707 23.25 31.91c2.676 5.113.663 7.904-18.425 26.614-17.38 17.018-18.786 18.112-29.312 23.562-6.014 3.072-13.233 7.038-16.04 8.624-4.513 2.58-5.714 2.874-11.412 2.447-5.298-.425-6.8-.132-9.508 1.655-1.706 1.192-3.21 2.185-3.411 2.284-.1.1-.408 1.698-.717 3.497-.208 1.799-1.318 3.893-2.422 4.688-1.203.795-2.11 2.09-2.113 2.89s-1.61 2.193-3.515 3.084c-1.904.89-3.51 1.983-3.512 2.483-.006 1.3 1.196 1.006 4.606-1.078 2.206-1.29 3.507-1.584 4.204-.88.696.703 2.097.61 4.501-.28 2.805-.986 3.905-.98 5 .024 2.69 2.213 8.806-1.258 12.233-7.042 2.52-4.188 4.227-5.58 10.04-8.553 3.91-1.981 7.22-3.866 7.52-4.164.302-.299 4.312-2.48 9.023-4.858 10.726-5.45 15.143-9.029 33.13-27.244 23.11-23.491 23.004-22.092 4.518-46.48-5.168-6.824-9.14-12.642-8.839-12.941s3.3-.085 6.598.431c6.095 1.029 7.5.235 4.812-2.477-.995-1.005-.39-2.002 2.722-4.588l3.916-3.381-4.18-4.32-4.28-4.22-3.215 3.085c-3.717 3.582-5.219 3.975-6.107 1.571-1.285-3.306-2.4-.111-1.924 5.091.955 9.505.756 9.304-22.592-23.107-5.166-7.224-9.637-13.245-9.936-13.547-.299-.301-3.776-5.018-7.65-10.536-11.028-15.452-13.716-17.965-27.68-25.63-4.389-2.421-12.367-6.959-17.752-10.284-5.284-3.225-9.872-5.847-10.072-5.848s-5.585-3.226-11.967-7.056c-6.382-3.93-11.767-7.056-11.967-7.057-.3-.001-4.09-2.32-8.576-5.04-4.487-2.821-8.277-5.04-8.377-5.04-.2 0-6.283-3.63-13.562-8.064-7.379-4.435-13.661-8.164-14.061-8.266-.898-.404-2.599-63.913-2.461-93.113.081-17.3-.184-24.7-.984-24.705-.8-.003-.97 14.696-.748 52.697M403.5 226.276c2.197.81 9.977 4.947 17.257 9.281 7.38 4.235 16.255 9.477 19.846 11.494 3.59 2.017 8.477 4.94 10.97 6.352 2.493 1.511 8.277 4.839 12.965 7.46 4.688 2.623 8.676 5.042 8.774 5.542.198.401.796.804 1.296.806s6.385 3.33 13.165 7.462c6.681 4.032 13.562 8.164 15.358 9.073 3.691 1.817 8.89 2.142 12.997.561 1.503-.593 5.105-1.076 7.806-1.163 4.2.02 6.197.63 12.48 4.259 4.088 2.42 9.275 5.344 11.469 6.654 7.28 4.034 26.728 15.226 39.393 22.686 14.36 8.368 17.651 10.383 22.239 13.005 1.695 1.008 7.28 4.234 12.166 7.157 29.618 17.64 43.38 25.805 47.368 28.224a401 401 0 0 0 9.474 5.544c5.884 3.328 19.846 11.494 34.306 20.062 5.684 3.427 12.262 7.958 14.652 10.17 2.39 2.21 9.845 11.646 16.7 21.078 21.065 28.9 29.81 40.741 32.89 44.756 1.69 2.108 4.572 6.021 6.46 8.63s5.763 7.728 8.546 11.34c9.146 11.644 10.335 13.85 10.31 19.25-.024 5-.024 5-11.278 16.447-23.212 23.69-26.023 26.077-35.947 31.23-3.609 1.784-6.717 3.569-7.019 3.868-.301.298-3.008 1.785-6.016 3.371s-7.418 3.865-9.824 5.154c-4.612 2.578-7.615 3.064-7.006 1.167.406-1.198 2.512-2.488 12.337-7.742 22.857-12.092 24.965-13.682 43.954-32.593 15.674-15.726 16.78-17.021 16.797-20.521.01-2-.478-4.703-1.072-5.905-.99-2.005-8.641-12.541-9.836-13.747-.597-.503-31.898-42.85-35.078-47.166-8.443-12.14-25.735-35.021-27.627-36.73-1.991-1.81-13.756-9.265-26.322-16.525-17.253-10.08-28.023-16.432-33.807-19.959-3.689-2.317-6.98-4.233-7.18-4.234-.2 0-4.987-2.823-10.57-6.15-5.685-3.427-11.668-7.055-13.364-7.963-1.695-1.008-6.382-3.83-10.47-6.25-16.154-9.776-30.614-18.444-36.996-22.174-3.79-2.118-10.073-5.747-13.963-7.966-3.989-2.319-10.173-5.748-13.763-7.765-3.591-1.917-9.774-5.546-13.763-7.965s-9.972-5.847-13.364-7.563c-5.986-3.028-5.986-3.028-13.894-1.365-7.408 1.565-12.907 1.339-15.398-.573-.498-.402-3.49-2.116-6.482-3.73s-11.569-6.655-18.948-11.09c-12.166-7.357-28.022-16.532-39.89-23.288-4.49-2.421-9.874-5.647-21.442-12.501-13.363-7.963-9.366-7.344-46.964-7.822-18.699-.288-35.799-.268-38.1.12-7.406 1.066-7.618 3.565-2.868 35.488.775 5.203 1.838 13.109 2.318 17.51 1.822 16.41 3.792 22.719 9.457 30.246 2.385 3.111 2.375 5.311-.025 5.3-1.2-.006-3.882-3.819-7.65-10.536-.992-1.805-2.371-6.212-2.955-9.714-.584-3.403-1.459-8.607-1.946-11.31-.487-2.802-1.36-8.406-1.941-12.509-2.026-15.81-3.966-28.42-4.364-29.02-.198-.402-.481-3.903-.662-7.904-.345-11.702-2.748-11.113 42.351-10.9 29.9.14 38.499.48 41.693 1.596m-58.235 92.226c-.006 1.3-5.02 4.377-5.817 3.573-.398-.402.407-1.498 1.712-2.592 2.51-1.988 4.112-2.38 4.105-.98m6.495 1.131c.297.501.095 1-.405.998-.6-.003-1.098-.505-1.095-1.005.003-.6.205-1 .405-.998.3.001.798.404 1.095 1.005m-2.506 1.188c-.007 1.5-6.528 5.87-7.424 5.065-1.194-1.305-.488-2.402 2.72-4.287 3.711-2.282 4.712-2.478 4.704-.778m3.987 2.819c-.002.5-.905.996-2.105.99-1.1-.005-1.697-.508-1.395-1.006.303-.599 1.305-.994 2.105-.99.8.003 1.398.406 1.395 1.006m-7.721 4.464c-1.51 1.893-3.014 2.986-3.211 2.285-.197-.601.81-2.197 2.317-3.49q5.723-4.923.894 1.205m-4.298-.52c-.002.5-.404.998-1.004.995-.5-.003-.998-.505-.996-1.005.003-.6.505-.998 1.005-.995.6.003.998.404.995 1.004m7.695 1.036c-1.405 1.093-2.909 1.986-3.309 1.984s.104-.9 1.11-1.995c1.005-1.095 2.509-1.988 3.309-1.984.9.004.597.703-1.11 1.995m2.286 3.01c-2.108 1.79-3.711 2.483-3.908 1.782-.494-1.402 3.522-4.783 5.822-4.772 1.1.005.496 1.002-1.914 2.99m2.09 2.11c-1.305 1.094-2.708 1.688-3.006 1.386-.298-.401.507-1.497 1.912-2.49 3.21-2.386 4.206-1.381 1.094 1.104m362.904 233.513c-3.616 3.283-3.718 3.783-1.533 6.993 1.39 2.007 2.19 2.21 5.692 1.727 3.503-.584 3.902-.482 2.696.913-.704.796-2.507 1.488-4.107 1.48-2.2-.01-3.397-.816-4.885-3.323-3.473-5.716-2.15-10.71 2.85-10.687 2.4.012 2.4.012-.713 2.897m7.9-.063c-.004 1 .49 2.303 1.186 3.006 1.99 2.01-.112 2.6-2.203.69-2.29-2.111-2.674-5.513-.474-5.503.8.004 1.496.807 1.491 1.807m-4.007 1.581c-.003.7.69 1.904 1.488 2.608 1.494 1.207 1.185 3.005-.515 2.997-1.5-.007-4.277-4.82-3.471-6.016.907-1.496 2.505-1.188 2.498.411m-10.008 1.753c-.008 1.6-.31 1.899-1.106 1.095-.597-.603-.792-1.604-.49-2.202 1.109-1.695 1.607-1.293 1.596 1.107m7.678 4.537c-.804.796-3.782-3.718-3.178-4.715.504-.698 1.2-.095 2.093 1.61.793 1.503 1.286 2.906 1.085 3.105m-5.3-.125c.89 2.404.685 3.403-.815 3.396-1.3-.006-2.59-2.012-2.58-4.112.006-1.5 2.704-.988 3.396.716m-6.418 3.87c-.001.3-.202.498-.502.497s-.499-.202-.498-.502.203-.5.503-.498c.3.001.499.202.497.502m10.498.549c.298.501-.105 1-.905.996-.9-.005-1.597-.508-1.595-1.008.003-.6.405-.998.905-.996.6.003 1.298.406 1.595 1.008"/><path d="M474.956 321.015c-3.72 3.982-.749 10.296 3.96 8.518 3.806-1.382 4.424-5.179 1.339-8.293-2.488-2.512-3.188-2.516-5.3-.225m5.081 3.924c.291 1.901-.11 2.3-2.21 2.29s-2.598-.513-2.588-2.613.412-2.498 2.31-2.19c1.4.207 2.295 1.112 2.488 2.513"/><path d="M460.253 321.645c-1.107 1.295-1.125 5.295.055 9.5.294 1.302-1.407 1.494-10.809 1.75l-11.3.246-.056 11.8-.057 11.9 6.299.43c3.399.216 23.397.61 44.496.81l38.298.58-.242-12.401-.242-12.301-13.798-.365c-12.7-.26-13.798-.466-13.09-2.062 1.617-3.693 1.64-8.793.047-10.1-1.394-1.207-1.495-1.007-1.008 1.695.392 1.702.278 4.702-.032 6.7l-.717 3.597-17.898-.285c-17.8-.183-17.8-.183-18.483-3.687-.291-1.901-.278-4.801.03-6.4.715-3.196.317-3.598-1.493-1.407m64.598 21.805c.08 4.1-.041 8.7-.349 10.198-.512 2.598-.512 2.598-10.71 2.35-5.6-.226-24.499-.515-41.898-.697l-31.8-.25.049-10.1.047-10.1 42.298.6 42.198.498z"/><path d="M448.756 342.091c-2.825 5.387-2.733 6.988.467 7.003 1.6.007 1.898.509 1.39 2.006-.405 1.298-.209 2 .791 2.004s1.308-1.694 1.236-7.494c-.081-4.1-.364-7.802-.663-8.004-.298-.3-1.708 1.692-3.22 4.485m2.389 2.412c-.004.8-.409 1.798-1.01 2.095-.502.298-.999-.305-.994-1.405.006-1.2.51-2.097 1.01-2.095.6.003.998.605.994 1.405M460.076 337.845c-.102.5-.105 1.2-.008 1.7.682 3.803.65 10.703-.053 11.2-1.604.992-.91 2.395 1.19 2.405 1.5.007 1.901-.39 1.507-1.593-.296-.901-.58-4.503-.563-8.003.017-3.6-.37-6.401-.97-6.404-.5-.003-1.1.295-1.103.695M480.873 338.643c-.81 1.996.386 2.802 1.993 1.51 1.004-.896 1.303-.695 1.295.905-.005 1.2-.511 2.398-1.112 2.695-.703.497-.506 1.298.687 2.603 2.09 2.31 1.173 5.806-1.118 3.895-1.892-1.609-2.796-.913-1.907 1.391.89 2.404 3.891 1.918 5.205-.975.909-1.796.915-3.096.221-4.5-.595-1.102-.788-2.403-.486-3.002.403-.498.41-2.098.117-3.5-.688-2.603-3.984-3.318-4.895-1.022M491.569 339.493c-1.117 3.495-.856 11.796.438 13.102 1.692 1.708 4.502-.479 4.918-3.877.31-2.098-.284-3.401-2.176-4.91s-2.29-2.41-1.584-3.507c.906-1.296 1.106-1.295 1.9.009 1.192 1.805 2.597.712 1.807-1.492-.89-2.304-4.491-1.821-5.303.675m3.558 8.817c-.015 3.2-1.419 3.993-2.406 1.389-.988-2.705-.68-4.404.92-4.396q1.5.007 1.486 3.007M502.37 339.344c-1.512 2.393-1.645 9.392-.257 12.099 3.37 6.216 7.919-4.063 5.054-11.476-1.086-3.106-3.085-3.315-4.797-.623m3.579 4.417c.383 3.602-.536 7.597-1.836 7.591-.6-.003-.988-2.504-.974-5.604.02-4 .426-5.498 1.325-5.194.599.303 1.292 1.706 1.485 3.207M469.34 345.388c.691 2.004 5.79 2.328 5.799.428.005-1.1-.993-1.605-3.093-1.615q-3-.015-2.705 1.187M463.238 324.66c-.011 2.5.48 4.502.98 4.504.6.003 1.003-.895 1.009-1.995.005-1.1.309-1.999.809-1.996.4.001 1.296.906 1.99 2.009 1.985 3.21 3.19 2.315 3.212-2.485.012-2.5-.378-4.502-.978-4.505-.5-.002-1.006 1.196-1.013 2.696-.113 2.8-.113 2.8-1.6-.008-2.28-4.31-4.384-3.52-4.409 1.78M492.556 320.998c-.701.196-1.306 1.193-1.31 2.093-.006 1.2.294 1.302 1.198.406 1.608-1.592 2.807-1.487 2.8.113-.004.7-.909 1.796-2.012 2.49-2.808 1.688-2.62 4.188.38 4.203 1.4.006 2.802-.487 3.105-.986.303-.598.105-1-.395-1.002-.6-.002-1.097-.705-1.093-1.505.003-.8.507-1.497 1.007-1.495 1.6.007 1.117-3.695-.58-4.403-.898-.304-1.597-.607-1.697-.508-.1 0-.802.296-1.403.594M483.222 328.254c-.003.5.495 1.002.995 1.004.6.003 1.002-.495 1.005-.995.002-.6-.396-1.002-.996-1.005a1 1 0 0 0-1.004.996M386.69 334.799c-1.605.992-3.81 1.882-4.81 1.877-2 .09-8.114 3.162-18.243 9.314l-7.02 4.167-1.05 10.495c-.527 5.798-1.452 11.094-1.955 11.791-1.31 1.994.088 2.6 1.896.81.904-.896 2.108-1.59 2.608-1.588s1.405-1.094 1.911-2.491c.912-2.496 3.017-3.486 3.008-1.486-.01 1.9 5.708-1.873 6.32-4.17.507-1.698.909-1.996 1.804-1.092 1.593 1.607 6.908-1.568 6.62-4.069-.094-1.3 1.313-2.794 4.522-4.679 4.813-2.777 4.813-2.777 9.8-.054 5.685 3.127 6.989 2.433 7.017-3.566.015-3.2.015-3.2 18.515-3.113 11.7.055 18.502-.313 18.504-.913s-6.695-1.032-17.995-1.085c-18-.085-18-.085-17.986-2.985.008-1.6-.584-3.302-1.181-3.905-1.395-1.107-8.676-5.241-9.076-5.143-.1 0-1.505.893-3.21 1.885m8.185 3.238c3.49 2.117 3.49 2.117 2.76 8.213-.315 3.299-.93 6.396-1.131 6.795-1.108 1.695-2.298-.41-1.786-3.008.409-1.898.015-3.2-.88-4.104-1.296-1.007-1.797-.809-3.108 1.585-1.614 2.992-1.913 2.691-1.687-2.708.22-4.499 1.142-8.995 1.842-8.991.3.001 2.095 1.01 3.99 2.218m-7.11 1.867c-.307 1.698-.62 4.497-.628 5.997-.01 2.2-.816 3.396-3.223 4.885-5.315 3.175-5.613 2.773-3.672-5.917.819-3.897 1.726-5.392 3.73-6.483 4.01-2.081 4.51-1.879 3.794 1.518m-9.328 6.056c-.316 3.499-.934 7.196-1.44 8.393-.405 1.198-4.921 4.577-10.136 7.653-9.326 5.556-9.326 5.556-9.613 2.854-.386-3.101 1.924-5.19 5.724-5.173 4.3.02 12.13-6.143 12.145-9.443.014-3-5.492-1.725-10.312 2.452-5.322 4.675-6.723 4.968-6.705 1.168.011-2.5 1.116-3.395 9.84-8.353 5.314-3.075 10.026-5.653 10.426-5.651.4-.098.487 2.702.071 6.1m14.383 3.568c-.401.298-.7-.003-.696-.703.003-.7.304-.999.703-.697a1.2 1.2 0 0 1-.007 1.4m-19.708 1.807c-.005 1-5.325 5.275-7.329 5.966-3.405 1.083-3.196-.816.318-3.699 3.112-2.585 7.018-3.867 7.01-2.267"/><path d="M391.767 339.723c-.807 1.296 1.978 4.51 3.282 3.715.802-.496.806-1.296.113-2.7-1.09-2.004-2.488-2.511-3.395-1.015M383.295 354.983c-1.706 1.092-3.012 2.386-2.714 2.887.596.903 7.514-3.064 7.52-4.364.006-1.1-1.196-.706-4.806 1.477M391.025 369.82c-1.208 1.594-2.914 2.986-3.814 2.982-.8-.004-3.505.883-5.81 1.972-3.608 1.783-4.312 2.68-5.33 6.475-.612 2.397-1.13 6.395-1.142 8.795-.017 3.7.478 4.802 2.472 6.112 3.19 2.115 4.493 1.32 4.511-2.48.012-2.399.414-2.897 2.514-2.887 1.6.007 4.207-1.48 6.919-3.968 4.318-3.98 4.318-3.98 24.518-3.884 11.7.055 20.102-.305 20.104-.805.003-.6-9.394-1.145-22.193-1.405-21.899-.403-22.399-.406-25.109 1.782-3.714 2.982-5.914 2.972-5.5.074.206-1.4 1.411-2.494 3.515-3.184 4.206-1.38 9.533-7.155 9.146-9.857-.485-3.202-2.385-3.111-4.801.278m-1.63 6.492c-2.008 1.49-5.41 1.975-5.404.675.105-1.1 6.418-3.77 6.914-2.868.097.5-.508 1.498-1.51 2.193m-6.408 1.47c-.005 1.2-2.812 2.487-3.608 1.683-.896-.904.613-2.697 2.213-2.69.8.004 1.398.507 1.395 1.007m-2.044 9.39c-.026 5.5-1.14 8.295-2.934 7.187-1.097-.706-1.456-9.307-.443-12.003a1.553 1.553 0 0 1 2.004-.89c.998.304 1.39 2.106 1.373 5.706m12.023-4.843c-.002.3-.203.499-.502.498-.3-.002-.5-.203-.498-.503.001-.3.202-.499.502-.497.3.001.5.202.498.502m-3.017 3.486c-.005 1.2-3.314 2.984-5.414 2.974-2.3-.01-1.993-1.41.713-2.596 2.907-1.487 4.707-1.578 4.701-.378M438.726 369.644c-.402.398-.727 5.797-.757 12.097-.039 8.2.246 11.501 1.245 11.806 1.897.609 80.893 1.481 83.996.896 2.903-.487 2.903-.487 2.955-11.686-.07-6.2-.245-11.702-.542-12.203-.695-1.103-85.792-2.004-86.897-.91m84.086 3.297c.1.1.279 4.401.454 9.602l.156 9.4-41.2-.093-41.3.005.048-10.2.048-10.2 40.797.592c22.4.306 40.797.693 40.997.894"/><path d="M448.785 378.492c-2.827 5.587-2.732 6.587.368 6.602 1.5.007 1.798.508 1.291 2.006-.507 1.397-.21 1.999.89 2.004 1 .005 1.605-.892 1.711-2.292.225-5.299-.242-12.301-.939-12.905-.397-.501-1.907 1.592-3.321 4.585m2.185 3.11c-.004.8-.407 1.498-1.007 1.495-.5-.002-.997-.704-.993-1.504s.507-1.498 1.007-1.495c.6.002.997.704.993 1.504M458.707 373.839c-1.607 1.492-.716 3.396 1.286 2.806 2.404-.789 2.597.712.387 2.902-1.407 1.493-1.408 1.693-.01 2.2.898.304 1.591 1.707 1.585 3.007-.013 2.8-1.515 3.193-2.403.689-.494-1.203-.994-1.305-1.798-.509-.803.796-.807 1.496.188 2.701 1.69 2.008 4.69 1.922 5.4-.274.61-2.098.057-11.8-.837-13.205-.695-1.103-2.794-1.313-3.798-.317M480.3 375.24c-3.123 4.886-.775 15.897 3.032 14.415 3.206-1.185 1.95-10.391-1.35-10.407-.6-.002-.997-.704-.993-1.604.005-1.1.607-1.398 2.104-.89 1.697.608 1.999.309 1.705-1.092-.487-2.603-3.086-2.815-4.498-.422m3.155 9.515c-.004 1-.609 1.997-1.21 2.195-.801.296-1.298-.506-1.29-2.206s.512-2.498 1.311-2.294c.599.303 1.194 1.305 1.19 2.305M490.602 374.889c-.911 2.396-.812 2.596 1.391 1.906 2.303-.689 2.794 1.314.784 3.304-.904.896-.907 1.496-.01 2.4 1.393 1.407 1.577 4.808.177 4.801-.5-.002-1.297-.706-1.793-1.608-.694-1.204-1.094-1.306-1.698-.408-.403.698.09 2.1 1.384 3.406 2.19 2.01 2.19 2.11 3.599.217 1.509-1.893 1.557-12.193.168-14.5-.992-1.604-3.294-1.315-4.002.482M500.7 375.536c-.917 3.496.267 6.802 2.367 6.812 1.4.006 1.897.709 1.888 2.609-.011 2.3-.312 2.498-2.51 1.988-2.696-.713-3.201.285-1.31 2.194 1.592 1.607 2.293 1.51 4.202-.38 2.41-2.29 1.928-5.991-.862-8.205-2.988-2.414-3.18-4.215-.48-4.202 1.1.005 2.004-.69 2.007-1.49.012-2.5-4.69-1.923-5.303.674M467.967 382.182c-.002.5 1.596 1.008 3.496 1.017s3.502-.484 3.504-.984c.003-.6-1.595-1.007-3.495-1.016s-3.502.383-3.505.983M330.288 377.433c-1.807 1.492-3.315 3.285-3.318 3.885-.004.8-4.506 1.179-14.707 1.33-19.701.308-19.61 2.108.09 2.301 14.9.07 14.9.07 16.486 2.978 2.479 4.511 4.275 5.22 9.283 3.644 5.608-1.674 7.016-3.367 5.732-6.774-1.284-3.506-.578-4.802 3.531-6.683 2.005-.99 3.61-2.083 3.612-2.583.008-1.6-2.295-.91-5.708 1.673-3.412 2.584-3.412 2.584-5.4-.025-2.584-3.313-5.584-3.227-9.6.254m9.09 2.243c2.387 2.812 4.364 7.521 3.46 8.317-.2.199-1.403.693-2.604.987-2.604.788-3.295-1.115-.79-2.003 2.204-.89 1.81-2.392-.59-2.103-2.802.287-4.987-3.024-2.88-4.314.802-.496 1.105-1.195.707-1.596-.298-.402-1.299-.207-2.002.39-1.606 1.393-2.803.587-1.993-1.41.91-2.295 4.007-1.58 6.692 1.732m-4.627 5.679c2.082 3.71 2.08 4.31.777 4.803-.901.296-2.401.289-3.3-.115-1.695-.808-1.695-.808.006-1.2.902-.296 1.706-1.092 1.709-1.792.004-.9-.694-1.203-1.696-.908-1.502.493-1.602.392-.297-.502 1.203-.794 1.206-1.294.21-2.299-.995-1.004-1.495-1.007-2.2.19-1.109 1.795-2.503.588-1.593-1.508 1.012-2.695 3.905-1.181 6.384 3.33M203.98 378.938c-1.413 2.594.271 6.002 2.971 6.014 1.1.006 1.999.41 1.996.91-.006 1.4-2.815 3.287-4.012 2.58-.499-.301-1-.104-1.002.396-.008 1.7 4.694 1.322 5.402-.474 2.632-6.688-2.228-15.211-5.355-9.426m4.495 1.021c.794 1.304-1.42 4.194-2.616 3.388-.499-.302-.893-1.404-.888-2.504.01-2 2.412-2.589 3.504-.884M214.183 378.186c-2.11 2.09-1.425 5.394 1.37 6.607 2.793 1.313 2.384 3.211-.716 3.197-1.1-.006-1.702.392-1.404.993.992 1.605 4.194 1.22 4.902-.577 1.62-4.192.154-11.4-2.346-11.411-.3-.002-1.102.495-1.806 1.191m3.391 1.916c.794 1.404-1.115 3.295-2.511 2.489-1.097-.706-.383-3.602.917-3.596.5.002 1.197.505 1.594 1.107M224.286 377.734c-.701.197-1.309 1.794-1.317 3.494-.01 2.2.586 3.103 1.984 3.51 2.496.71 2.181 3.91-.317 3.498-.899-.205-1.7.192-1.704.792-.006 1.4 3.294 1.315 4.801-.178s1.634-7.192.247-9.899c-1.091-1.905-1.59-2.107-3.694-1.217m2.681 3.913c-.007 1.6-1.609 1.892-2.502.388-.793-1.304.415-3.198 1.612-2.493.498.403.894 1.305.89 2.105M242.183 378.318c-1.306 1.294-1.635 7.493-.648 10.197.988 2.505 4.291 1.92 5.004-.876.713-2.797-.974-5.505-3.274-5.516-.8-.003-1.297-.606-.994-1.304.203-.6 1.405-1.094 2.605-.888 1.499.107 2.1-.29 1.904-.991-.591-1.803-3.09-2.115-4.597-.622m3.368 6.916c.992 1.705-1.317 3.594-2.71 2.187-1.195-1.205-.385-3.301 1.115-3.294.5.002 1.197.505 1.595 1.107M260.98 379.107c-2.12 3.99-.553 11.097 2.447 11.112.8.003 1.904-.891 2.51-1.889 2.118-3.99.551-11.097-2.449-11.111-.8-.004-1.904.89-2.508 1.888m3.776 4.918c.185 3.3-.02 4.2-1.22 4.194s-1.594-1.107-1.578-4.607c.028-5.9 2.426-5.49 2.798.413M269.878 379.549c-.808 1.696-.817 3.496.069 6.5 1.08 4.305 2.875 5.314 4.987 2.724 1.71-1.992.923-4.796-1.772-6.009-3.193-1.415-2.881-3.913.415-3.098 1.898.51 2.499.312 2.203-.59-.789-2.403-4.69-2.121-5.902.473m4.067 6.82c-.01 2.399-2.31 2.088-2.798-.414-.195-1.001.308-1.699 1.208-1.694 1 .004 1.596.907 1.59 2.107M279.98 379.196c-1.413 2.694-1.235 7.195.356 9.302 1.689 2.308 3.289 2.316 4.6-.078 2.119-3.99.552-11.098-2.448-11.112-.8-.004-1.904.891-2.509 1.888m3.977 4.72c-.015 3.2-.42 4.397-1.22 4.194-1.397-.507-2.276-5.111-1.365-7.407 1.114-2.995 2.606-1.188 2.585 3.212"/><path d="M290.08 379.244c-2.22 3.89-.255 11.499 2.748 10.913 1.802-.391 3.028-5.986 2.146-9.79-.685-3.103-3.482-3.816-4.895-1.123m3.676 4.917c.185 3.301-.02 4.2-1.22 4.195-1.2-.006-1.594-1.108-1.578-4.608.028-5.9 2.426-5.488 2.798.413M233.274 380.176c.394 1.302.683 3.604.676 5.104-.007 1.6.487 2.802 1.087 2.805 1.6.007.744-9.297-.954-9.805-.998-.405-1.2.094-.809 1.896M253.252 384.87c.9.205 2.3.211 3 .015.602-.297-.097-.5-1.797-.509-1.6-.007-2.201.19-1.203.495M392.93 389.829c-.003.8.888 2.604 1.982 4.01 1.292 1.705 1.99 2.009 1.995 1.009.004-.8-.888-2.605-1.981-4.01-1.292-1.706-1.99-2.01-1.995-1.01M398.89 398.357c-.002.5 1.09 2.305 2.482 4.012 1.292 1.606 2.388 2.511 2.491 1.811.003-.7-1.088-2.505-2.481-4.011-1.293-1.506-2.389-2.412-2.492-1.812M403.65 406.78c-3.112 2.785-3.112 2.785-1.027 5.895 1.192 1.605 1.883 3.709 1.579 4.507-.608 1.697 1.173 5.706 2.473 5.712s14.335 13.868 21.294 22.6c8.649 10.841 16.615 18.079 26.089 23.624 15.956 9.275 23.51 18.91 29.224 37.238 3.054 9.814-.196 20.4-7.515 24.365-5.012 2.676-15.127 5.729-16.323 5.023-.599-.303-2.4-.111-4.203.48-2.304.89-3.404.884-4.3-.02-.597-.603-2.194-1.11-3.594-1.117-2.8-.013-9.116 3.357-9.123 4.857-.003.5-1.006 1.095-2.206 1.29-1.401.193-2.908 1.486-3.817 3.482-1.01 2.095-2.516 3.388-4.218 3.78-1.502.393-3.005 1.086-3.307 1.584-.906 1.296 3.894 1.119 5.301-.275.904-.896 1.603-.692 2.896.914 1.492 1.607 3.09 2.014 8.29 2.039 6.4.13 13.008-1.639 13.017-3.439.004-1 14.332-6.832 19.037-7.81 3.002-.586 3.002-.586 2.933 14.114l-.07 14.7-18.198-.286-22-.104-3.8.082-.06 12.5-.058 12.5 43.8.006 43.701-.094.358-12.298.358-12.199-21.1-.099-21-.099.073-15.5c.06-12.5.373-15.498 1.473-15.493 2.2.01 9.335-7.256 11.154-11.448 2.124-4.89 2.48-16.688.616-24.497-1.665-7.408-7.81-19.137-13.974-26.866-5.268-6.625-12.442-12.259-23.014-18.309-10.372-5.949-24.699-21.416-30.146-32.642-.99-2.205-2.676-5.213-3.669-6.718-.993-1.404-1.783-3.508-1.778-4.508.01-2.3-2.975-5.314-5.175-5.324-.9-.005-2.295-1.111-3.188-2.515-2.085-3.21-2.886-3.114-6.802.368m3.188 2.615c-.704.896-1.506 1.292-1.904.99-.299-.3.104-.999.907-1.495 2.106-1.39 2.405-1.189.997.505m2.088 2.61c-1.305 1.093-2.708 1.687-3.006 1.285-.697-.703 2.816-3.386 4.316-3.38.6.103-.005 1-1.31 2.094m1.884 3.408c-2.41 1.989-4.416 3.38-4.715 3.178-.796-.904.916-3.396 3.524-4.983 4.813-2.878 5.508-1.774 1.191 1.805m7.784 3.537c.096.8-1.212 2.394-3.017 3.486-4.814 2.877-4.814 2.877-4.8.077.02-4.2 7.035-7.467 7.817-3.563m.062 7.9c-1.305 1.094-2.608 1.788-2.807 1.487-.696-.703 2.116-3.39 3.616-3.383 1 .005.797.604-.809 1.896m4.089 2.52c-.002.3-.404.798-1.006 1.095-.501.298-1 .095-.998-.405.003-.6.505-1.097 1.005-1.095.6.003 1 .205.999.405m5.274 5.525c1.49 2.207 2.68 4.212 2.678 4.512-.001.3 1.79 2.309 3.979 4.52s3.98 4.418 3.976 5.018c-.002.5.795 1.204 1.793 1.508 2.696.913 11.257 9.154 10.453 10.15-.502.397-.103.6.798.304 2.204-.79 7.892 1.837 7.883 3.637-.005 1 .594 1.303 1.496.907 1.001-.296 1.5-.093 1.296.806-.203.699.594 1.303 1.794 1.308 3.6.117 11.859 8.756 19.205 20.191 2.283 3.61 2.973 5.714 2.565 7.512-.409 1.798-.31 2.099.395 1.002.906-1.296 1.006-1.295 1.4.007 2.363 7.91 3.235 13.715 3.106 20.015-.344 9.298-.344 9.198-1.34 8.593-.5-.302-1.308 1.494-2.019 3.79-.712 2.598-1.921 4.592-2.923 4.887-1.001.295-3.808 1.782-6.315 3.27-2.607 1.488-4.61 2.179-4.807 1.478-.197-.601-1.2-.206-2.505.888-1.406 1.393-2.307 1.69-2.804.887s-1.397-.507-3.004.986c-2.41 2.188-5.912 2.472-6.603.569-.493-1.603 13.037-7.94 14.733-6.931.598.303.999.205 1.001-.295.002-.4 1.608-1.593 3.512-2.484 2.004-.89 4.013-2.781 4.72-4.178 1.01-2.295 1.21-2.294 2.403-.688 1.192 1.605 1.293 1.506 1.402-.494.006-1.2-.488-2.502-.987-2.804-.698-.404-.593-1.303.113-2.7.706-1.297.82-4.096.435-7.398-.48-4.102-.275-5.401.725-5.397.9-.095.902-.395-.293-1.301-1.395-1.107-3.175-5.515-3.361-8.316.005-1.2-2.57-6.512-3.465-7.416-1.195-1.206-2.976-5.114-2.97-6.514.004-.8-.593-1.503-1.193-1.506-2.3-.11-4.977-4.924-4.364-7.62.407-1.399.212-2.4-.388-2.403-.6-.002-.902.296-.704.697.298.502-.206 1.4-1.01 2.195-1.306 1.194-1.506 1.193-1.1-.005.608-1.797-1.282-3.806-3.085-3.114-.802.296-1.2.094-.798-.504.403-.598.107-1.6-.69-2.203-1.095-.906-1.495-.907-1.9.09q-.606 1.348-.599-.302c-.095-1-.993-1.505-2.293-1.511-1.7.092-2.198-.41-1.992-1.71.31-1.898-1.389-2.306-2.097-.51q-.606 1.198-.599-.302c-.095-1-.892-1.604-1.793-1.509-1-.004-1.697-.508-1.494-1.207.104-.8-.195-1.1-.797-.703-1.504.893-8.179-4.439-7.373-5.735.503-.698.104-.9-.897-.504-1.102.394-1.7.092-1.697-.708.003-.7-1.091-1.906-2.488-2.612s-2.492-1.712-2.49-2.212c.002-.4-1.588-2.507-3.578-4.517-1.99-2.11-4.675-5.422-5.965-7.528-1.29-2.006-2.781-3.913-3.38-4.316-.797-.504-.794-1.104.11-2.1 1.81-2.191 3.208-1.584 6.189 2.53m18.912 103.59c-1.004.795-2.213 2.69-2.72 4.287-.814 2.796-.814 2.796-.9-.304-.084-3.3 1.426-5.393 3.926-5.382 1.2.106 1.199.306-.306 1.399m-4.706 1.078c-.001.3-.202.499-.502.497-.3-.001-.499-.202-.498-.502s.203-.499.503-.498.499.203.497.503m12.689 2.56c.888 2.404.885 3.004-.215 2.999-1.3-.007-2.49-2.112-2.478-4.612.011-2.4 1.507-1.493 2.693 1.613m-3.404.684c.293 1.6.286 3 .085 3.3-.704.697-2.39-2.311-2.38-4.311.013-2.7 1.71-1.992 2.295 1.01m6.106-1.172c.296.802.093 1.5-.407 1.498-.6-.002-.997-.704-.993-1.504s.207-1.5.407-1.498c.2 0 .597.702.993 1.504m-9.413 2.656c-.012 2.5-.313 2.899-1.008 1.795-1.29-2.006-1.277-5.006.023-5 .6.003.993 1.505.985 3.205m-6.002.372c1.384 3.506 1.28 4.406-.52 4.397-1.7-.008-3.879-4.618-2.872-6.113 1.008-1.596 2.405-.889 3.392 1.716m-5.017 3.676c-.002.5-.402.498-1 .195-.5-.302-.994-1.404-.99-2.304.007-1.5.207-1.5 1-.196.497.803.992 1.905.99 2.305m-3.2.185c-.302.299-.9-.204-1.195-1.206-.594-1.402-.493-1.502.503-.597.696.703.993 1.504.691 1.803m11.208-1.947c-.001.3-.202.499-.502.497-.3-.001-.499-.202-.498-.502s.203-.499.503-.498.499.203.497.503m4.085 3.32c-.701.196-1.8-.11-2.297-.612-.797-.803-.396-.902 1.302-.494 1.298.407 1.796.809.995 1.105m-3.404.883a1.2 1.2 0 0 1-1.4-.007c-.298-.4.003-.7.703-.696.7.003.999.304.697.703m45 21.412 26.198.224-.049 10.5-.05 10.5-40.999-.194-41-.193.05-10.5.049-10.4 12.801-.24c7.001-.166 13.601-.135 14.7-.03 1.1.105 13.8.265 28.3.333"/><path d="M444.61 458.073c-.004.7.295 1.001.696.703.302-.398.305-.998.007-1.4-.399-.301-.7-.003-.704.697M454.583 463.62c-.001.3.198.501.498.503.3 0 .501-.198.502-.498s-.197-.501-.497-.502-.501.197-.503.497M465.053 470.17c.297.501 1.095 1.005 1.595 1.007.6.003.702-.497.405-.998-.297-.601-1.096-1.005-1.596-1.008-.6-.002-.701.397-.404.999M471.816 477.902c.399.301.999.304 1.4.006.302-.398.004-.7-.696-.703s-1.002.295-.704.697M480.467 488.342c-.002.5.497.703.998.405.602-.297 1.004-.795 1.006-1.095 0-.2-.399-.402-.999-.405-.5-.002-1.002.495-1.005 1.095M483.451 491.757c-.001.3.198.5.498.502.3.001.5-.198.502-.498s-.197-.5-.497-.502-.501.198-.503.498M484.713 499.963c.398.301.998.304 1.4.006.301-.398.003-.7-.697-.703s-1.002.295-.703.697M485.395 503.766c-.002.3.197.5.497.502s.501-.197.503-.497c.001-.3-.198-.501-.498-.503-.3-.001-.501.198-.502.498M486.307 522.27c-.003.7.296 1.002.697.704.302-.399.305-.999.007-1.4-.399-.302-.7-.004-.704.696M483.265 531.256c-.003.7.295 1.001.697.703.302-.398.304-.998.006-1.4-.398-.302-.7-.003-.703.697M469.235 537.69c-.002.3.197.501.497.502s.501-.197.503-.497c.001-.3-.198-.501-.498-.503-.3-.001-.501.198-.502.498M454.065 573.619c-.554 11.497-.28 16.999.92 17.004 1 .005 1.309-1.893 1.138-7.994-.08-4.4-.66-8.403-1.158-9.006q-.895-.904-.9-.004M474.262 574.414c-1.809 1.792-1.415 3.093.788 2.504 2.403-.589 2.693 1.513.483 3.602-1.306 1.294-1.208 1.695.786 3.004 1.894 1.209 1.992 1.61.785 3.104-1.307 1.494-1.507 1.493-2.7-.113-1.191-1.706-1.292-1.606-1.401.393-.006 1.2.887 2.705 1.984 3.31 2.693 1.512 3.905-1.082 3.84-8.482-.164-7.601-1.752-10.109-4.565-7.322M484.657 575.463c-.906 1.196-1.315 3.194-1.021 4.395.294 1.202.086 3-.42 4.098-1.21 2.195-.027 5.8 2.27 6.711 3.093 1.215 4.404-1.08 4.338-8.18.041-8.8-1.946-11.509-5.167-7.024m3.387 2.816c-.012 2.5-1.817 3.592-2.608 1.588-.79-2.104.323-4.899 1.62-4.093.498.303.992 1.505.988 2.505m-.036 7.6c-.015 3.1-2.313 2.79-2.798-.413-.193-1.501.21-2.2 1.21-2.194 1.1.005 1.596.907 1.588 2.607M495.657 575.415c-2.215 3.19-2.152 11.09.135 13.9 1.69 2.109 1.89 2.11 3.197.516 2.112-2.49 2.061-12.99-.029-15.1-1.493-1.508-1.793-1.409-3.303.684m2.984 3.414c.785 3.104-.345 9.499-1.645 9.492-.6-.002-.987-2.704-.971-6.004.028-6.1 1.438-8.094 2.616-3.488M442.74 578.866c-2.825 5.286-2.834 7.186-.234 7.199.7.003 1.496.907 1.69 2.008.39 2.501 2.288 2.71 2.3.21.004-.9.41-2.298.814-2.996.503-.697.406-1.198-.194-1.2-.5-.003-1.089-2.406-1.275-5.307l-.276-5.201zm1.285 3.206c-.002.5-.505.997-1.105.995-.5-.003-.697-.504-.395-1.002.303-.599.805-.997 1.105-.995.2 0 .398.402.395 1.002M462.525 582.159c-.403.598.795 1.004 2.995 1.014s3.402-.384 3.005-.986c-.297-.601-1.695-1.008-2.995-1.014s-2.702.387-3.005.986M320.757 426.39c-1.412 2.692-1.334 7.393.256 9.4.993 1.505 1.197.706 1.223-4.794.017-3.6-.07-6.5-.17-6.5-.1-.001-.704.896-1.309 1.893M324.463 425.207c-1.105.994-.838 8.096.259 8.8.598.404 1.002-.594 1.01-2.194.113-2.8.113-2.8 2.3-.09 1.293 1.607 2.587 2.813 2.987 2.815s.711-2.297.724-5.097c.015-3.1-.377-4.802-.98-4.405-.5.298-1.008 1.796-1.015 3.295-.012 2.7-.012 2.7-2.097-.61-2.283-3.51-2.283-3.51-3.188-2.514M334.254 427.153c-1.51 2.293-1.513 2.693-.024 5 2.681 4.112 8.488 2.74 8.51-2.06.012-2.5-2.874-5.514-5.174-5.525-.9-.004-2.305 1.19-3.312 2.585m6.287 2.73c.29 2.3-.013 2.7-2.113 2.69-2.9-.014-4.287-2.62-2.577-4.713 1.81-2.091 4.405-1.079 4.69 2.022M359.235 431.17c-.02 4.3.272 6.102.975 5.405.603-.597 1.014-2.995 1.025-5.395.012-2.4-.377-4.902-.974-5.405-.697-.703-1.005 1.096-1.026 5.395M352.857 426.54c-1.103.695-1.105.995.192 1.701.798.504 1.392 1.807 1.286 2.906-.005 1.1.29 2.102.79 2.304 1.298.306 1.432-6.993.134-7.4-.499-.202-1.6-.007-2.402.49M800.531 433.05c-3.011 2.486-5.835 7.573-5.85 10.473-.016 3.6 2.859 9.013 5.948 11.228 3.787 2.718 10.686 2.95 14.498.468 7.423-4.765 7.378-16.465.005-22.3-3.686-2.918-10.986-2.952-14.6.131m14.492 1.768c2.989 2.414 4.566 7.222 3.845 11.819-1.342 8.893-14.257 11.933-19.722 4.607-3.976-5.22-3.14-12.715 1.978-16.691 3.012-2.486 10.611-2.35 13.9.265"/><path d="M804.001 439.466c-2.605.988-1.209 1.895 2.193 1.51 1.901-.19 3.5.017 3.498.517-.003.5-1.607 1.493-3.51 2.184-2.705.887-3.51 1.783-3.518 3.683-.011 2.4.188 2.501 5.29 2.125 5.202-.475 5.202-.475 4.918-3.777-.576-5.102-1.868-6.909-4.968-6.823-1.5-.007-3.301.284-3.903.581m6.47 6.531c-.304.699-2.007 1.39-3.808 1.582-3.001.286-3.2.185-2.094-1.21 1.609-1.892 6.51-2.17 5.901-.372M344.724 433.602c-.003.5.495 1.002 1.095 1.005.5.003.702-.496.405-.998-.297-.601-.796-1.004-1.096-1.005-.2 0-.401.398-.404.998M296.892 440.177c-.903.596-1.218 3.794-1.058 12.295l.247 11.401 20.798.398 20.699.298-.06 12.5-.058 12.4 7.756 9.336c4.176 5.12 8.651 10.441 9.745 11.846 1.89 2.21 12.729 15.06 18.696 22.089 4.972 5.923 9.544 11.945 9.541 12.445-.001.3-2.81 1.986-6.217 3.67-9.222 4.557-9.02 4.258-6.248 10.171 2.87 6.214 2.964 7.714.564 7.703-1-.005-2.704.687-3.807 1.482-1.706 1.192-1.707 1.392-.207 1.499.9.004 2.801-.387 4.304-.98 5.61-2.073 3.773 5.818-2.04 8.59-3.708 1.683-3.708 1.683-3.347 9.985.26 8.301.26 8.301-3.237 7.785-2.698-.413-4-.119-5.005 1.076-1.207 1.495-1.21 1.895.186 2.901.897.604 2.485 3.212 3.674 5.618 2.871 6.013 3.965 7.418 7.556 9.335 2.394 1.212 3.394 1.216 4.598.422 2.308-1.79 3.924-5.182 3.94-8.582.018-3.7 2.124-4.99 6.921-4.367 3.298.416 4.2-.08 10.128-5.852 3.616-3.483 9.442-8.856 12.957-12.04 5.322-4.774 6.43-6.37 6.542-9.069.11-1.9.72-4.096 1.423-4.893 1.508-1.693 1.41-1.893-8.293-22.54-2.972-6.113-5.648-11.226-5.948-11.228-.3 0-3.207 1.485-6.316 3.37-9.926 5.654-8.53 6.26-21.656-9.301-6.564-7.631-13.823-16.266-16.31-19.277-2.485-3.012-7.457-8.936-11.136-13.353l-6.764-7.832.06-12.5.058-12.4 22.5.106 22.5.106.131-6.8c.118-3.699.244-9.198.358-12.198l.126-5.5-43.499-.404c-23.899-.313-44.1-.108-44.802.289m84.59 2.398c.899.205 1.186 2.906 1.152 10.206l-.047 10-42-.198-42-.198.048-10 .046-9.9 9.302-.256c9.101-.257 71 .135 73.499.346m24.01 103.815c1.981 4.21 3.665 7.717 3.664 7.917 0 .1-1.805.892-4.008 1.581-2.203.69-4.008 1.681-4.01 2.181-.006 1.2 1.595 1.008 5.503-.574 3.908-1.681 3.608-1.783 6.375 5.13 2.273 5.811 2.475 5.412-5.947 9.972-13.635 7.436-22.053 11.297-22.95 10.792-1.696-1.108-12.978-26.061-12.966-28.661.005-1.1 9.328-5.956 11.428-5.946 1.8.008 2.486 3.012 1.863 8.009-.723 4.796.956 9.304 4.443 12.02 3.387 2.717 6.688 2.532 9.103-.556 4.124-5.181 2.063-13.49-4.12-17.22-4.287-2.52-5.272-5.825-2.363-7.611 3.71-2.283 8.12-4.462 9.221-4.557.6.003 2.684 3.413 4.765 7.523m-16.51 2.222c.194 1.4-.21 2.199-1.11 2.195-1.9-.01-3.988-2.62-3.181-4.015 1.108-1.795 4.003-.581 4.291 1.82m6.073 5.829c2.69 2.212 3.084 3.314 3.065 7.314-.024 5.1-1.333 7.094-4.433 7.08-4.4-.121-7.578-4.636-7.55-10.736.032-6.7 3.64-8.183 8.918-3.658m18.004 20.385c-.012 2.5-24.318 24.985-27.018 24.973-5.1-.024-6.592-1.631-10.446-11.55-3.753-9.817-3.753-9.817-1.242-12.306s2.512-2.488 5.682 3.927c3.963 7.919 3.664 7.617 6.272 5.93 1.203-.695 6.517-3.57 11.73-6.245 5.212-2.675 9.924-5.253 10.527-5.75 1.707-1.592 4.504-.98 4.495 1.02m-38.569 14.518c3.36 8.716 3.653 9.917 2.537 13.412-.61 1.997-1.123 4.895-1.13 6.295-.01 2-.613 2.797-2.515 3.288-3.504.884-6.793-1.632-9.367-7.044-2.97-6.514-2.762-8.013.934-7.296 2.997.614 2.997.614 3.042-8.786.059-12.5 1.559-12.492 6.5.131m-13.537 7.836c-.001.3-.202.5-.502.498-.3-.001-.5-.202-.498-.502.001-.3.202-.5.502-.498.3.001.5.202.498.502"/><path d="M318.577 443.479c-.002.3-.12 4.2-.242 8.799-.231 6.699.062 8.2 1.163 8.006 1.1-.195 1.41-1.994 1.236-7.795-.08-4.1-.662-7.903-1.16-8.505-.497-.503-.896-.705-.997-.505M339.973 444.28c-1.502.593-1.715 3.292-.315 3.298.6.003 1.002-.495 1.005-1.195.005-.9.305-.898 1.2.006.996 1.004.992 1.704-.116 3.4-1.007 1.595-1.01 2.295-.212 2.598 1.298.406 1.476 5.207.176 5.201-.5-.002-1.098-.605-1.394-1.306-.197-.601-.796-.804-1.298-.407-1.105.995.88 4.205 2.68 4.213 2 .01 3.624-5.183 2.235-7.39-.695-1.103-.79-2.303-.184-3.4.605-1.097.611-2.397-.083-3.7-1.09-2.006-1.59-2.208-3.694-1.318M350.768 445.53c-1.715 3.093-1.456 11.694.436 13.503 1.99 2.11 2.09 2.11 3.805-1.082 1.211-2.394 1.215-3.194.026-5.4-.693-1.503-1.987-2.91-2.785-3.213-.898-.404-1.294-1.306-.99-2.205.506-1.298.906-1.296 2.101-.29 1.296 1.006 1.496.907 1.203-.594-.587-2.703-2.585-3.113-3.796-.718m3.357 9.117c-.013 2.7-2.219 3.89-3.108 1.585-.79-2.204.323-4.899 1.92-4.291.6.203 1.194 1.406 1.188 2.706M362.073 444.484c-1.705.992-2.631 6.488-1.95 10.49.78 4.105 3.374 5.617 5.185 3.125 1.61-2.092 1.747-9.791.36-12.498-1.191-2.006-1.89-2.309-3.595-1.117m2.563 7.812c-.025 5.2-1.134 7.095-2.418 3.789-.79-2.004-.768-6.804.041-8.8 1.215-2.994 2.403-.489 2.377 5.011M306.851 448.924c-2.726 5.587-2.73 6.487-.23 6.499 1.5.007 1.996.71 1.988 2.51-.016 3.4 1.785 3.208 2.201-.29.52-4.098-.238-13.202-1.038-13.205-.4-.002-1.71 1.992-2.92 4.486m1.786 3.008c-.004.8-.407 1.498-1.007 1.496-.5-.003-.997-.705-.993-1.505s.507-1.498 1.007-1.495c.6.002.997.704.993 1.504M327.134 452.52c.298.5 1.696 1.007 2.996 1.014 1.3.006 2.702-.488 3.004-.986.403-.598-.795-1.004-2.995-1.014s-3.402.384-3.005.985M391.428 560.024c-3.205 1.085-4.513 2.778-2.113 2.79 2 .01 7.812-2.364 7.815-3.164.005-1-1.595-.907-5.702.374M367.628 602.412c-2.31 2.19.957 9.305 4.157 9.32 2.6.012 3.215-3.185 1.432-6.894-1.386-2.906-4.081-4.019-5.589-2.426m4.285 3.22c1.288 2.606 1.281 4.106-.119 4.1s-3.786-3.018-3.877-4.819c.009-1.9 2.806-1.386 3.996.72M244.365 488.33c-.206 1.299-.332 6.698-.157 12l.254 9.8 20 .095 19.9.094-.05 10.5c-.05 10.5-.05 10.5 4.228 15.32 5.77 6.427 12.733 14.16 15.121 16.67 1.095 1.206 5.173 5.825 9.151 10.444 5.57 6.527 7.058 9.034 7.047 11.334-.108 1.699.384 3.501.98 4.104.697.703 1.188 2.606 1.18 4.306-.009 2 .882 3.904 2.973 5.814 3.484 3.316 3.778 4.718.978 4.705-1.1-.006-2.002.39-2.005.99-.01 2.1 4.196.82 13.72-4.035 12.93-6.64 12.63-6.44 10.846-9.95-1.882-3.708-1.983-3.509 1.623-4.792 1.703-.592 2.807-1.486 2.41-2.088s-1.297-.606-2.5-.012c-1.103.595-2.807 1.387-3.909 1.881-2.306 1.19-4.098-.419-4.083-3.619s-2.66-8.312-4.36-8.32c-2.4-.012-3.913 2.581-2.724 4.887.595 1.103 1.084 3.505 1.074 5.505-.009 1.9.482 3.802.98 4.105 1.397.906 1.278 4.806-.229 6.299-3.114 3.085-8.8-.142-8.776-5.042.011-2.4-3.963-7.919-6.458-8.93-.5-.203-2.29-2.011-3.882-3.919-2.883-3.513-7.061-8.233-17.905-20.084-14.825-16.07-13.536-13.664-13.48-25.564l.05-10.5 22.5.106 22.599.106-.244-11.8-.245-11.702-43.098-.503c-43.199-.404-43.199-.404-43.51 1.795m85.053 10.2-.048 10-41.5-.195-41.499-.196.047-10 .048-10 41.5.196 41.499.196zm10.674 69.052c-.002.5-.904.996-2.004.99-1.1-.005-1.998-.51-1.996-1.01.003-.6.905-.995 2.005-.99s1.998.41 1.995 1.01m.576 5.203c.294 1.301 1.285 3.106 2.08 4.01 1.592 1.807.983 3.804-1.117 3.794-1.7-.008-4.868-6.723-4.16-8.62.81-2.096 2.409-1.688 3.197.816m-16.014 2.824c.297.602.093 1.6-.51 2.198-.904.895-1.404.793-2.099-.31-.496-.802-.991-1.805-.989-2.305.005-1.1 2.804-.787 3.598.417m2.866 7.214c1.092 1.705 2.084 3.51 2.282 3.81.099.401-.504.898-1.406 1.294-2.905 1.086-6.974-5.533-4.663-7.722 1.105-1.195 1.703-.792 3.787 2.618m19.907-1.306c.695 1.103-.61 2.197-5.924 5.072-2.206 1.19-5.715 3.073-7.82 4.263-2.707 1.487-4.009 1.781-4.805.977-1.593-1.607-.286-3.001 3.418-3.784 1.702-.392 4.308-1.68 5.714-2.973 4.519-3.979 8.326-5.46 9.417-3.555"/><path d="M254.532 495.278c-2.422 4.688-2.33 6.389.17 6.4.7.004 1.295 1.007 1.49 2.208.193 1.3.789 2.303 1.289 2.306 1 .005 1.07-14.795.073-15.5-.3-.201-1.71 1.892-3.022 4.586m1.478 4.607c-1.105 1.095-1.897-.61-1.088-2.405.808-1.697.808-1.697 1.2.005.295 1.002.19 2.101-.112 2.4M264.449 491.724c-.004.9.594 1.203 1.496.908 1.903-.791 2.085 3.21.28 4-.9.297-.803.797.493 1.603 1.695 1.108 2.28 4.111.975 5.305-.302.398-1.5-.007-2.495-1.012-1.593-1.407-1.793-1.408-1.8-.108-.012 2.6 2.68 4.312 4.487 2.82 1.305-.993 1.637-7.792.668-14.296-.194-1.401-4.097-.72-4.104.78M285.547 492.224c-.605 1.097-1.119 3.895-1.13 6.295.069 6.7 3.951 10.418 5.874 5.527 1.317-3.493.236-7.699-1.964-7.709-1.3-.006-1.896-.709-1.89-2.109.008-1.6.41-1.898 2.107-1.39 1.498.507 1.998.31 1.703-.592-.69-2.203-3.59-2.217-4.7-.022m3.864 7.518c-.01 2.4-1.221 4.594-2.118 3.99-1.496-.907-.975-5.404.625-5.397.8.004 1.497.607 1.493 1.407M296.048 491.973c-.406 1.198-.107 1.4 1.396.907s2-.19 1.993 1.41c-.005 1.1-.51 2.297-1.112 2.594-.602.497-.406 1.198.69 2.003.997.705 1.492 1.908 1.087 2.906-.708 1.696-2.71 2.187-2.703.587.003-.6-.395-1.002-.995-1.005-1.7-.008-1.114 2.895.881 3.904 1.397.807 2.197.71 3.102-.285 1.107-1.495 1.212-2.594.64-8.597-.29-1.901-.48-4.102-.477-4.802-.092-1.7-3.793-1.518-4.502.378M306.437 494.422c-.016 3.3.28 4.002 1.98 4.01 1.5.007 1.997.71 1.989 2.61-.01 2.1-.412 2.397-2.01 1.89-2.396-.812-2.603.687-.412 2.598 1.395 1.106 1.796 1.008 3.003-.586 2.315-3.19 1.835-7.392-1.06-8.505-2.995-1.114-3.286-3.016-.482-3.702 2.803-.687 2.51-2.289-.49-2.303-2.2-.01-2.501.388-2.518 3.988M318.445 492.679c-.006 1.3-.722 4.697-1.435 7.493-.815 3.096-1.026 5.495-.528 5.898.498.302.903-.596.91-1.996.006-1.4.512-2.798 1.014-3.095 1.304-.794 4.093 1.42 3.786 2.918-.203.599-.006 1.3.494 1.402.4.102.7-.097.702-.597.104-.7-1.657-9.108-2.64-12.512-.589-2.503-2.29-2.111-2.303.489m1.574 5.507c-1.005.996-1.898-.509-.991-1.804.605-1.097.805-1.096 1.2.005.196.701.092 1.5-.209 1.8M274.418 498.272c-.002.5 1.395 1.006 2.995 1.014 1.7.008 3.003-.486 3.005-.986.003-.6-1.295-1.006-2.995-1.014-1.6-.008-3.002.386-3.005.986M415.965 552.24c-2.604.987-3.812 2.681-1.912 2.69 1.9.01 7.11-2.266 7.114-3.066.005-1.1-1.695-1.008-5.202.375M358.378 570.668c-2.806 1.187-3.116 3.385-.312 2.599 1.101-.295 2.904-.887 4.005-1.182 1.102-.294 2.005-.99 2.007-1.49.006-1.1-2.794-1.113-5.7.073M299.018 583.288c-.803.497-3.904.882-6.904.768-4.7-.122-5.701.273-7.713 2.664-1.307 1.493-2.415 3.288-2.419 4.088-.003.7-2.21 2.09-4.914 2.977-9.915 3.153-11.439 8.246-6.194 19.871 1.782 3.809 3.356 9.416 3.642 12.317.575 5.303.474 5.603-5.366 14.075-3.223 4.785-7.35 10.566-9.161 12.957s-3.724 5.083-4.228 5.98c-1.714 2.892-2.802.287-5.438-13.325-1.466-7.207-2.93-14.614-3.522-16.517-.49-1.902-1.37-6.407-1.953-10.01-1.945-11.609-1.447-11.106-12.649-10.86-6.6.17-9.803.655-10.107 1.453-.304.999 2.094 1.31 9.594 1.345 9.9.047 9.9.047 10.485 3.25.391 1.802 1.954 9.81 3.616 17.817s3.716 17.918 4.596 22.122 1.259 8.706.953 10.005c-.306 1.298-2.823 4.886-5.537 7.874l-4.926 5.476-14.903.43c-20.103.606-20.905 1.102-25.972 15.278-3.547 9.983-7.482 17.365-11.703 21.945-2.111 2.29-2.913 2.586-4.508 1.679-4.987-2.824-4.988-2.624-.054-9.8 13.09-18.939 13.995-41.335 2.027-48.091-2.095-1.21-5.49-2.226-7.49-2.236-2.6-.012-3.898-.518-4.292-1.72-.988-2.605-4.87-6.223-7.765-7.337-6.988-2.733-15.103.43-24.045 9.387-10.75 10.65-16.82 25.421-16.993 40.92-.135 7.4.253 10.002 2.036 13.51 1.981 4.11 1.98 4.41.374 5.602-.904.796-2.007 1.39-2.307 1.39-.3-.002-1.61 2.092-3.022 4.685-2.22 4.49-2.428 5.989-2.81 23.287-.378 16.698-.688 18.697-2.395 20.289-2.31 2.19-2.642 8.888-.45 10.698.796.704 1.49 2.107 1.485 3.107-.012 2.6 2.677 4.913 5.877 4.928s5.107-1.576 5.12-4.276c.005-1 .712-2.497 1.515-3.293 2.311-2.29 2.043-9.09-.45-10.602-1.894-1.21-1.988-2.41-1.912-18.51.044-9.4.486-18.297 1.092-19.695.507-1.397 2.116-3.29 3.52-4.183 2.408-1.589 2.908-1.586 6-.072 1.796.909 4.892 1.923 6.79 2.232 1.898.41 4.492 1.821 5.785 3.128 2.19 2.31 2.19 2.41.38 4.401-1.005 1.096-1.31 1.994-.71 1.997s1.403-.493 1.705-.992c.907-1.496 4.906-1.177 7.097.634 1.793 1.408 1.793 1.508-.604.897-2.297-.611-2.298-.511-.704.796 1.295 1.106 1.686 2.908 1.662 8.108-.038 8.1 1.558 8.808 9.08 4.043 3.31-2.084 3.915-2.981 3.929-5.881.015-3.3.216-3.5 3.516-3.484 5.4.026 14.532-6.632 14.55-10.631.007-1.3 1.923-4.691 4.136-7.581 5.23-6.475 11.49-18.946 13.123-26.139.715-2.996 1.93-6.09 2.733-6.787 1.003-.795 6.606-1.369 16.107-1.624 17.003-.52 19.006-1.21 25.947-9.878 5.433-6.974 5.03-6.376 10.266-13.951 2.516-3.489 5.133-7.076 5.738-7.973 2.816-3.387 9.46-12.756 11.979-16.744 3.728-6.083 3.772-15.283.014-24.3-4.153-9.92-4.147-11.22-.44-12.603 2.504-.888 3.604-.883 5.1.024.997.605 1.892 1.51 1.89 1.91-.012 2.7 10.505-.951 11.42-3.947.404-.998 2.412-2.689 4.617-3.678 3.708-1.683 4.01-2.081 4.026-5.681.033-6.8-4.25-10.62-8.962-7.943m4.189 2.32c-1.809 1.792-1.422 4.594.772 6.004 2.393 1.511 2.586 2.812.386 2.802s-4.286-2.92-4.37-6.12c.013-2.9.718-3.898 2.918-3.887 1.2.005 1.198.305.294 1.201m-11.204.747c-.002.5-.304.999-.804.997-.4-.002-1.305.893-2.01 1.99-1.007 1.595-1.013 2.695.175 5.401 1.582 3.808 3.973 5.619 6.677 4.932 1.101-.295 1.9.009 1.897.609s-1.505 1.092-3.405 1.083c-4-.018-6.188-2.729-7.159-8.833-.386-2.902-.18-4.301 1.126-5.495 1.809-1.892 3.51-2.184 3.503-.684m8.268 6.84c.497.702.693 1.603.29 2-1.004.896-4.582-3.62-4.572-5.72.014-3.1 1.415-3.294 2.401-.39.493 1.503 1.284 3.407 1.881 4.11m-15.083-3.672c-.703.697-1.203.795-1.2.195.006-1.4 1.212-2.595 1.908-1.891.199.3-.105 1.1-.708 1.696m20.498.497c-.904.896-2.797-.613-2.091-1.81.402-.598 1.002-.595 1.7.108.596.603.793 1.304.391 1.702m-10.7.15c-.005 1 .686 2.803 1.58 4.007 1.888 2.709.98 4.305-1.11 2.095-1.89-1.91-3.062-7.915-1.562-7.908.6.003 1.096.805 1.091 1.805m-2.81 1.886c.293 1.602.783 3.704 1.178 4.806.692 1.703.492 1.702-1.298-.406-2.09-2.31-2.867-7.114-1.167-7.106.5.003 1.094 1.205 1.287 2.706m-5.218 3.976c1.48 4.307 1.478 4.607.076 5.1-1.102.395-2.49-2.112-3.472-6.116-.98-4.205 1.716-3.392 3.396 1.016m-4.207 1.48c.194 1.2-.81 2.196-3.215 3.185-4.409 1.779-4.62 4.078-1.155 11.494 3.17 6.615 4.732 14.423 3.808 19.619-.62 4.197-2.433 7.088-19.646 30.907-12.985 17.94-14.09 19.134-19.702 21.608-3.707 1.582-6.008 1.772-14.606 1.331-6.399-.33-11.7-.055-14.204.733-3.905 1.082-4.106 1.28-7.25 10.566-1.724 5.192-4.455 11.68-5.868 14.373-3.026 5.485-8.763 13.458-9.664 13.554-.4-.002-1.394-1.206-2.387-2.611-1.589-2.508-1.588-2.708 1.43-6.493 3.923-4.782 9.678-16.555 11.914-24.145 1.221-4.494 2.43-6.388 5.14-8.475 3.412-2.584 4.113-2.681 15.613-2.627 16.8.08 19.605-1.008 26.245-9.576 2.415-3.189 4.43-6.18 4.432-6.68s.305-1.098.806-1.296c2.004-.79 20.633-28.303 21.448-31.499 1.123-4.795-.443-12.102-4.104-20.32-3.86-8.518-3.448-10.916 2.365-13.789 5.011-2.376 8.11-2.261 8.6.14m8.175 5.338c-.002.3-.203.5-.503.498-.3-.001-.499-.202-.497-.502.001-.3.202-.5.502-.498s.499.202.498.502M166 650.262c3.593 1.517 7.97 6.138 7.164 7.534-1.209 1.894-4.608 1.678-6.298-.43-2.484-3.311-4.383-3.62-8.792-1.741-13.027 5.739-24.924 26.383-25.005 43.483-.045 9.5 1.538 13.207 7.518 17.535 3.986 2.92 7.264 7.635 5.96 8.428-.401.199-2.3-.11-4.296-.82-11.581-4.054-16.832-14.58-15.254-30.972 1.793-19.892 13.878-37.835 29.304-43.362 4.007-1.482 5.607-1.374 9.699.345m-.938 8.096c.896.804 1.591 1.808 1.59 2.108-.002.3-2.012 2.39-4.622 4.578-6.828 5.968-12.167 14.143-17.326 26.718-.607 1.498-1.428 5.894-1.846 9.792-.734 7.196-2.045 9.49-5.142 8.876-2.098-.41-3.083-3.615-3.15-10.815-.23-14.502 9.052-32.158 20.689-39.803 5.316-3.475 7.517-3.765 9.807-1.454m19.988 2.494c11.58 4.455 8.645 32.841-4.928 48.478-3.318 3.784-3.619 3.883-6.113 2.57-1.396-.806-2.591-1.811-2.589-2.311.002-.4 1.614-2.893 3.626-5.383 11.571-15.146 14.767-35.531 5.978-37.773-6.293-1.63-18.439 8.113-25.297 20.481-2.824 4.987-6.279 16.67-6.3 21.37-.021 4.3 3.935 13.62 7.218 17.235 3.582 3.917 7.474 5.435 13.076 5.062 4.902-.277 5.101-.176 5.389 2.425.287 2.802.287 2.802-5.313 2.775-10.5-.05-18.176-5.086-22.73-14.907-3.96-8.719-4.335-13.92-1.584-24.608 3.464-13.684 12.728-27.14 23.059-33.692 4.814-2.977 11.517-3.645 16.508-1.722m-1.35 10.694c2.963 7.814-3.82 25.482-13.87 35.935-.603.597-2.104.89-3.303.584-1.098-.305-3.2.185-4.505 1.08-5.316 3.374-9.425 5.355-10.022 4.752-.399-.302 1.111-2.395 3.321-4.584 8.944-9.258 17.014-24.02 18.763-34.512 1.028-5.896 1.028-5.996 5.128-5.976 2.8.013 3.598.517 4.488 2.721m-13.15 10.338c-4.047 10.081-15.63 27.827-18.23 27.815-1.7-.008-.865-7.605.945-9.596 4.724-5.078 11.278-16.647 12.907-22.74.307-1.398 1.817-3.591 3.322-4.684 2.61-2.088 2.61-2.088 2.896.814.193 1.6-.725 5.396-1.84 8.391m-6.992-1.533c-.004.9-5.854 11.473-7.565 13.765-2.113 2.69-2.807 1.486-1.29-2.006 2.83-6.487 8.868-14.459 8.855-11.759m7.351 31.535c2.195 1.21 5.985 3.228 8.479 4.64 10.074 5.448 13.135 13.662 6.615 18.032-4.214 2.88-4.714 2.877-4.7-.223.027-5.6-4.153-9.92-15.125-15.771-4.29-2.22-7.78-4.337-7.778-4.737.005-1 5.319-3.975 7.02-4.067.8.004 3.295 1.016 5.49 2.126m-27.511 2.37c-.008 1.6-.909 1.796-3.002.386-1.296-.906-1.295-1.106.009-1.9 1.706-1.192 3.002-.485 2.993 1.515m15.292 1.673c1.197.705 2.393 1.51 2.692 1.812.298.302 3.09 1.915 6.283 3.53 7.582 3.936 10.368 6.749 11.746 11.555 1.083 3.506.98 4.305-.327 5.699-1.105.995-2.106 1.19-3.303.584-1.496-.907-1.495-1.107-.09-2.2q3.013-2.535.033-6.9c-1.291-1.906-2.09-2.11-5.392-1.625q-9.007 1.457-8.985-3.343c.015-3.1-2.57-6.312-5.07-6.324-2.1-.01-3.293-1.515-2.386-3.011.806-1.296 2.106-1.29 4.8.223m-26.32 4.176c1.094 1.305.79 2.103-1.821 4.591-3.215 3.185-4.029 5.981-4.58 16.979-.226 5.399-.327 5.598-2.423 4.788s-2.293-1.41-2.257-9.21c.029-6 .544-9.198 1.856-11.792 3.532-6.783 6.64-8.569 9.225-5.356m27.685 3.23c.889 2.404-.513 2.898-2.704.887-2.788-2.513-2.676-5.012.117-3.5 1.097.606 2.291 1.812 2.587 2.613m11.128 15.353c.897.604 1.09 2.005.678 4.703-.514 2.898-1.52 4.393-3.727 5.682-5.113 2.876-5.91 2.273-5.883-3.627.014-2.9.527-5.798 1.23-6.495 1.407-1.393 5.708-1.573 7.702-.263m-45.847 9.884c.5.002.883 3.604.862 8.004-.037 7.9-.037 8-2.537 7.988s-2.5-.112-2.46-8.612c.035-7.4.24-8.499 1.638-7.992.898.304 1.997.61 2.497.612m2.108 19.51c-.202.499-2.105.99-4.205.98-2.2-.01-4.3.28-4.703.678-.402.498-1.204.794-1.804.791-.6-.002.005-.9 1.41-1.993 2.61-2.088 9.711-2.354 9.302-.456m2.39 2.211c-.402.298-.7-.003-.697-.703s.305-.999.703-.697a1.2 1.2 0 0 1-.006 1.4m-1.207 1.495c2.394 1.11 3.186 2.815 1.88 4.008-.3.299-1.597-.507-2.89-1.813-3.086-3.115-4.987-3.024-8.001.062-1.609 1.893-2.51 2.188-3.107 1.385-.992-1.704 3.223-4.884 6.723-4.868 1.5.007 3.998.519 5.395 1.226m-3.212 2.484c-.701.197-2.101.19-3-.014-.999-.304-.398-.502 1.202-.494 1.7.008 2.4.211 1.798.508m2.685 3.213c-.003.5-2.004.89-4.504.879s-4.498-.421-4.496-.921 2.004-.89 4.504-.88c2.5.013 4.498.422 4.496.922m-1.713 2.792c.297.501-1.004.795-2.805.887-1.9-.01-3.198-.315-2.896-.814.605-.997 5.105-1.076 5.7-.073m-1.117 3.495c-.904.896-1.504.893-2.4-.011-.896-.905-.694-1.204 1.206-1.195 1.9.01 2.098.31 1.194 1.206"/><path d="M165.871 741.363c-1.908 1.79-2.118 3.99-.423 4.998 1.496.907 4.915-3.177 4.124-5.08-.691-1.904-1.791-1.91-3.7.082m1.791 1.908c-.403.798-1.005 1.195-1.504.893-1.097-.605-.188-2.4 1.112-2.395.5.003.696.704.392 1.502M688.504 587.224c-2.007 1.29-2.41 1.989-1.41 1.993 1.8.009 7.118-3.866 5.419-3.974-.5-.003-2.304.889-4.01 1.98M677.777 592.773c-1.603.793-2.808 1.687-2.809 1.887-.005 1.2 2.999.314 5.107-1.476 2.811-2.287 1.512-2.493-2.298-.41M666.249 598.82c-1.304.793-2.31 1.988-2.312 2.488-.005 1 2.3-.089 5.512-2.574 2.81-2.087-.19-2.1-3.2.085M147.254 596.473l-15.301.228-.056 11.9-.057 12 43.8.006 43.702-.094.053-11.3c.035-7.4-.345-11.701-1.042-12.305-1.096-.905-26.596-1.025-71.099-.435m69.642 12.529-.047 10-41.5-.196-41.5-.196.048-10 .047-10 41.5.196 41.499.196z"/><path d="M174.133 601c-1.808 1.792-1.513 2.693.79 2.104 2.303-.59 2.5.012.987 2.705-.706 1.396-.711 2.496.082 3.8.695 1.103.887 2.804.483 3.802-.709 1.797-.809 1.796-2.2-.01-1.093-1.605-1.392-1.707-1.399-.407-.01 2.3 2.282 3.911 3.987 2.82 1.003-.596 1.412-2.594 1.234-7.195-.268-6.701-1.854-9.709-3.964-7.619M183.531 601.344c-.91 2.296-.81 2.397 1.492 1.807 2.103-.59 2.198.51.256 9.402-.206 1.299-.011 2.3.489 2.302.7.003 2.238-8.09 2.563-13.488.108-1.7-4.092-1.72-4.8-.023M195.233 601c-1.909 1.89-1.758 12.291.135 13.9 2.49 2.112 4.502-.478 4.528-5.978.026-5.6-2.553-10.013-4.663-7.922m2.665 7.512c-.019 4-.426 5.498-1.225 5.194-1.397-.506-2.267-7.01-1.355-9.406 1.215-3.194 2.605-1.088 2.58 4.212M142.411 605.55c-2.524 5.089-2.524 5.089-.029 6.1 2.097.81 2.494 1.412 1.986 3.11-.507 1.498-.31 1.999.592 1.703 1.001-.295 1.311-2.394 1.137-7.895-.181-4-.465-7.502-.664-7.703s-1.509 1.893-3.022 4.686m2.488 2.512c-.007 1.6-1.814 3.092-2.71 2.188-.796-.804.517-3.598 1.717-3.592.5.002.997.604.993 1.404M153.396 608.702c-.028 6.1.263 8.002 1.363 8.007.9.004 1.103-.695.71-2.297-.294-1.201-.577-4.802-.562-8.002.015-3.1-.273-5.702-.673-5.704-.5-.002-.817 3.597-.838 7.996M161.896 608.743c-.002.5 1.396 1.006 2.996 1.014 1.7.008 3.002-.486 3.004-.986.003-.6-1.295-1.006-2.995-1.014-1.6-.008-3.002.386-3.005.986M655.613 606.47c-2.516 3.187-4.64 8.577-3.341 8.583.3.002 1.308-1.593 2.117-3.59.81-1.996 2.722-4.687 4.328-5.98 2.009-1.79 2.312-2.388 1.112-2.394-.9-.004-2.808 1.487-4.216 3.38M651.926 624.852c-.116 3.3.276 5.101.878 4.704 1.203-.694 1.224-5.194.037-8-.593-1.503-.897-.604-.915 3.296M142.92 624.953c-1.507 1.493-1.447 9.994.046 11.5 1.692 1.709 4.801-.377 4.815-3.277.009-1.8-.688-2.603-2.585-3.112-3.197-.815-2.881-4.014.417-3.698 1.2.206 2.2-.09 2.203-.59.007-1.4-3.69-2.017-4.896-.823m2.861 8.214c-.012 2.6-1.415 3.293-2.507 1.488-.893-1.404.119-4 1.519-3.993.5.003.995 1.105.988 2.505M171.318 625.387c-3.316 3.285-.862 13.196 2.944 11.814 3.206-1.285 2.335-7.389-1.065-7.405-.9-.004-1.396-.707-1.191-1.806.204-.999 1.107-1.594 2.106-1.39 2.098.41 2.307-1.389.21-2.199-.798-.304-2.1.19-3.004.986m2.964 7.714c-.013 2.6-2.012 2.49-2.3-.21-.292-1.602.111-2.2 1.01-1.896.698.303 1.294 1.206 1.29 2.106M190.317 625.577c-2.009 1.89-1.647 9.992.547 11.302 1.595 1.008 3.599.317 4.308-1.68.81-1.996-2.069-6.61-3.473-5.716-.702.397-.9-.104-.694-1.203.306-1.299 1.108-1.795 2.608-1.688 2.698.313 2.801-.287.308-1.698-1.497-.807-2.398-.612-3.604.683m2.964 7.614c-.012 2.6-2.011 2.49-2.299-.211-.292-1.602.11-2.2 1.01-1.895.698.303 1.294 1.206 1.29 2.106M104.21 626.87c-.713 2.898.874 5.605 3.274 5.616.8.004 1.297.606.994 1.205-.203.7-1.405 1.193-2.605 1.088-1.099-.205-2.1.19-2.103.69-.003.6 1.395 1.006 2.995 1.014 3.1.015 3.1.015 2.827-5.787-.276-5.001-.573-5.702-2.471-6.011-1.699-.308-2.402.288-2.91 2.186m4.394 1.322c-.512 2.497-2.813 2.786-2.802.386.006-1.2.61-2.097 1.61-2.092.9.004 1.397.707 1.192 1.706M113.812 626.516c-.908 1.696-.612 2.497 1.478 4.607 2.589 2.512 2.477 5.012-.118 4-1.598-.608-1.905.99-.31 1.898 1.695 1.108 4.913-2.577 4.927-5.677.029-6-3.757-9.017-5.977-4.828m3.99 2.019c-.005 1.1-.709 1.997-1.509 1.993s-1.496-.907-1.49-2.007c.005-1.1.709-1.997 1.509-1.993s1.496.907 1.49 2.007M123.317 625.56c.297.502 1.195 1.007 1.995 1.01 1.1.005 1.197.606.386 2.902-.608 1.697-.919 3.996-.625 5.297.39 2.002.391 1.902.603-.497.007-1.5.819-4.096 1.626-5.592.808-1.596 1.115-3.095.816-3.496-1.095-1.006-5.496-.726-4.801.377M132.518 625.304c-1.008 1.696-.05 10.5 1.247 11.306 2.791 1.813 4 .02 3.827-5.882-.276-4.901-.573-5.603-2.472-5.911-1.099-.206-2.3-.011-2.602.487m4.088 2.52c-.608 1.797-2.81 2.086-2.802.386a1.58 1.58 0 0 1 1.608-1.592c.9.004 1.397.507 1.194 1.206m-.327 5.798c-.003.7-.607 1.497-1.208 1.694-.802.297-1.298-.406-1.292-1.706s.51-1.997 1.308-1.794c.599.303 1.195 1.106 1.192 1.806M161.518 625.44c-.402.299-.714 2.798-.726 5.398-.017 3.7.376 5.101 1.773 5.808 1.297.706 2.297.61 3-.086 1.306-1.294 1.636-7.592.648-10.197-.592-1.603-3.49-2.216-4.695-.922m3.772 5.819c-.013 2.9-.419 3.998-1.519 3.993s-1.593-1.308-1.78-4.309c-.281-3.801-.079-4.3 1.52-3.993 1.399.207 1.793 1.309 1.78 4.309M181.914 626.237c-.805.996-.907 1.596-.21 2.1.599.302.89 2.103.581 4.002-.209 1.899-.017 3.7.482 4.002.598.403 1.008-1.895 1.025-5.395.016-3.4-.171-6.1-.371-6.102-.2 0-.903.596-1.507 1.393M90.404 628.206c-.504.797.157 9.1 2.26 29.71.477 4.903 1.331 14.607 1.899 21.51.567 6.903 1.422 16.507 1.898 21.51 2.001 21.009 1.999 21.509-.001 21.5-1-.005-3.306 1.284-5.014 2.876-4.018 3.78-4.342 8.98-.66 12.597 2.39 2.511 6.485 3.43 6.494 1.53.007-1.5 6.305-1.17 10.397.55 4.99 2.123 4.9-.077-.377-4.902-2.589-2.313-3.978-4.52-3.971-6.02.006-1.4-.685-3.202-1.581-4.107-1.493-1.507-3.133-14.215-6.167-49.53-2.466-28.411-2.844-33.013-3.414-39.316l-.669-6.703 4.7.022c2.9.014 4.502-.379 4.105-.98-.695-1.204-9.194-1.344-9.9-.247m3.43 99.817c-1.41 1.993-2.522 4.488-2.526 5.488-.006 1.1-.41 1.898-1.01 1.896-1.7-.008-1.075-5.106 1.139-8.095 3.121-4.486 5.418-3.775 2.396.711m7.504-.965c-.005 1-.606 1.398-1.405 1.094-3.094-1.215-5.822 4.572-4.14 8.48.494 1.303.291 1.802-.909 1.796-3.5-.016-3.273-5.615.549-10.297 2.314-2.99 5.917-3.573 5.905-1.073m-2.014 3.091c-.003.5-.708 1.697-1.513 2.693-1.51 1.993-2.005.99-.892-1.804.608-1.597 2.41-2.189 2.405-.889m1.078 4.605c-1.608 1.593-2.6-.012-.991-1.905.905-1.095 1.505-1.192 1.702-.392.197.601-.108 1.7-.711 2.297m2.493 1.412c-1.004.995-1.897-.51-.991-1.805.605-1.097.805-1.096 1.2.006.196.7.093 1.5-.209 1.799m2.095 1.01c-.4.298-.7-.004-.696-.704.003-.7.305-.998.703-.696a1.2 1.2 0 0 1-.007 1.4M151.788 631.695c-.002.5 1.095 1.005 2.495 1.012s2.503-.488 2.505-.988c.003-.6-1.095-1.005-2.495-1.012s-2.502.388-2.505.988M651.759 639.051c-.015 3.2.377 4.902.979 4.505.601-.297 1.011-2.395 1.02-4.495s-.38-4.202-.978-4.505c-.598-.403-1.006 1.295-1.021 4.495M651.69 653.651c-.016 3.4.375 5.302.977 4.905.601-.297 1.013-2.795 1.026-5.595.013-2.7-.376-4.902-.976-4.905-.5-.002-1.012 2.495-1.027 5.595M651.622 668.05c-.015 3.2.377 4.903.98 4.506.6-.298 1.01-2.396 1.02-4.496s-.38-4.201-.979-4.504c-.598-.403-1.006 1.295-1.02 4.495M651.559 681.55c-.015 3.2.173 5.602.374 5.403.804-.697 1.046-9.796.35-10.499-.398-.402-.71 1.897-.724 5.097M651.793 695.552c-.016 3.3.178 4.5.387 2.702.208-1.8.221-4.5.028-6s-.4-.002-.415 3.298M602.284 697.219c-11.417 3.746-18.754 11.512-18.894 20.011-.027 5.6 3.333 14.216 6.915 18.033 1.592 1.707 2.983 3.514 2.98 4.114-.008 1.9 9.064 29.043 11.34 34.054 1.386 3.006 2.172 6.01 1.766 7.308-.407 1.498-3.92 4.082-11.239 8.147-18.75 10.612-19.553 11.208-20.77 14.902-.71 1.897-.923 4.896-.731 6.597.68 4.103-.12 4.1-7.902.263-3.292-1.716-6.185-3.03-6.285-3.03-.2 0-.508 1.698-.718 3.697-.317 3.598-.518 3.797-3.818 3.882-5.601.174-6.202.27-5.507 1.374.397.702 4.996.824 12.798.46 12.203-.642 12.203-.642 14.685 3.17 2.88 4.513 11.15 10.552 14.35 10.567 2.3.011 4.005-.78 17.64-8.417 4.713-2.578 11.73-6.344 15.54-8.427 11.63-6.145 30.98-16.954 32.386-18.047.703-.597 5.905-.972 12.204-.843 10.4.15 11.3.054 17.114-2.819 6.515-3.27 6.817-3.768 15.712-23.926.81-1.896 2.325-5.09 3.133-6.986 3.637-7.683.187-18.399-6.997-21.833-1.596-.807-9.791-1.846-19.088-2.49-16.295-1.077-16.295-1.077-21.708 1.598-7.217 3.566-10.733 7.05-12.055 11.743-.61 2.197-1.417 3.594-1.915 3.091s-2.67-6.512-4.937-13.423c-3.45-10.716-3.938-13.219-3.315-18.016.732-6.697-1.526-15.607-5.106-20.024-2.884-3.414-11.867-7.056-17.167-6.981-2-.01-6.705.968-10.41 2.25m17.697.783c12.983 3.561 15.929 15.075 6.484 24.631-5.93 6.172-12.14 8.543-22.14 8.596-10.601.05-16.29-2.477-18.662-8.288-5.932-14.428 15.742-30.126 34.318-24.939m14.099 21.467c-.827 5.596-3.746 9.682-9.764 13.454-12.337 7.842-26.037 7.877-34.2.139-3.883-3.719-2.58-4.412 2.907-1.586 4.19 2.22 5.688 2.426 12.49 2.058 6.102-.37 8.905-1.058 13.818-3.735 6.315-3.27 11.64-8.645 12.66-12.64 1.12-4.195 2.71-2.387 2.089 2.31m2.707 19.613c1.774 5.708 4.733 14.222 6.311 18.93 3.553 10.017 3.644 12.017 1.13 14.805-7.239 8.366-33.039 8.245-38.5-.181-2.382-3.611-11.247-32.354-10.342-33.35.3-.198 2.4.112 4.797.723 8.59 2.24 23.412-2.49 30.045-9.458 1.406-1.394 2.61-2.388 2.81-2.287.2.201 1.876 5.109 3.75 10.818m45 .112c16.195 1.276 18.192 1.886 21.466 7.401 2.878 4.714 2.45 10.512-1.287 18.394-9.192 19.457-11.512 23.646-13.615 24.336-2.104.79-2.103.59-1.19-1.905 1.011-2.596 5.863-13.573 10.107-22.853 2.425-5.389 2.434-7.288-.14-12.8-3.563-7.718-6.158-8.83-22.853-10.008-7.997-.538-14.694-1.17-14.993-1.371-.797-.804 2.51-2.288 5.01-2.277 1.4.007 9.198.544 17.495 1.083m-6.521 4.57c12.097.656 16.59 2.077 18.873 5.688 1.29 2.106 1.29 2.106-1.4-.006-3.487-2.817-4.287-2.82-5.6.173-1.516 3.193 1.355 9.407 4.751 10.223 3.096.814 3.7.117 3.62-4.083-.092-1.9.315-3.199.813-2.896.499.302.888 2.504.878 4.804-.02 4.2-.931 6.495-8.71 23.359-1.92 4.09-3.437 7.784-3.44 8.184-.01 2.4-4.818 3.977-11.718 3.945l-7.2-.034 1.618-3.693c4.854-11.577-7.648-32.336-19.448-32.392-3.3-.015-3.3-.015-2.682-3.812 1.436-7.594 6.354-11.47 13.65-10.736 2.5.312 9.697.846 15.995 1.275m16.068 6.775c2.59 2.012 4.173 5.82 3.067 6.915-.602.597-1.703.792-2.602.487-2.196-.91-4.874-5.423-4.166-7.22.709-1.796 1.61-1.892 3.701-.182m-34.059 12.44c5.776 5.127 9.837 13.446 9.806 20.046-.028 5.8-.738 8.097-2.538 8.088-1-.005-1.097-.705-.487-2.902 2.541-8.688-7.282-25.035-15.973-26.876-4.197-.82-3.59-2.317 1.01-2.295 3 .014 4.697.822 8.182 3.939m-3.118 3.785c6.872 5.932 10.917 17.752 7.89 23.337-.504.998-4.016 3.482-7.726 5.564-3.81 2.082-8.422 4.56-10.327 5.651-21.156 11.9-28.374 15.667-28.772 15.165-.995-.905 1.817-3.591 3.817-3.582 1 .005 3.306-1.284 5.114-2.876 3.013-2.686 3.316-3.384 3.341-8.784.023-4.7-.468-6.603-2.752-10.013-3.178-4.715-8.564-7.74-13.365-7.563-3 .085-3.3-.116-3.287-2.816.017-3.5-.083-3.5 4.807-1.377 5.788 2.427 18.49 2.287 24.602-.384 6.413-2.77 9.931-6.654 9.852-11.054.002-.3-.293-1.501-.687-2.803-.983-3.505 2.413-2.789 7.493 1.535m-33.605 22.142c2.59 2.412 2.59 2.412.08 4.3-3.612 2.583-3.219 3.985.391 1.902 3.008-1.586 3.208-1.585 4.5.221 3.974 5.42-.17 14.7-6.976 15.968-10.209 1.852-19.848-11.194-15.103-20.572 1.716-3.392 1.424-5.093-.586-3.103-.703.697-1.905 1.192-2.705 1.188-1-.105-.697-.604.906-1.396 1.504-.893 5.206-1.275 9.606-1.255 6.2.23 7.597.636 9.887 2.747m-19.73 6.407c-.136 7.6 5.227 15.525 11.72 17.155 1.397.407 2.194 1.11 1.89 1.81-.302.598-.808 1.796-1.111 2.594-.609 1.797-1.11 2.095-11.637 7.745-7.72 4.264-11.423 4.947-14.915 3.13-3.092-1.714-2.184-3.31 1.613-2.792 3.998.519 4.804-.778 1.109-1.795-1.598-.408-2.593-1.512-2.983-3.614-.293-1.602-2.08-4.51-3.97-6.419-2.389-2.411-3.28-4.116-2.973-5.714.306-1.299-.096-.9-1.005.995-.808 1.796-2.015 3.29-2.615 3.288-1.4-.007-1.167-7.206.342-8.999 3.218-3.884 4.32-4.18 8.31-1.96 7.38 4.234 12.344 11.758 12.312 18.658-.01 1.9.483 3.402 1.083 3.405.8.004.907-1.296.52-3.998-.583-3.702.425-5.398 1.814-3.091.794 1.204 6.585 3.23 6.589 2.33.002-.4-1.992-1.808-4.485-3.12-6.185-3.33-7.87-6.337-7.935-13.838.015-3.3-.272-5.901-.674-5.603-.5.198-.81 2.196-.82 4.396-.021 4.4-.723 4.797-4.01 1.881-1.194-1.105-3.09-2.214-4.088-2.519-2.596-.812-1.59-2.108 3.422-4.684 3.509-1.783 7.114-2.866 11.918-3.644.4.002.69 1.903.579 4.403m-18.193 19.614c2.987 2.815 3.259 8.816.359 8.802-2.5-.012-6.076-5.028-6.06-8.428.015-3.3 2.516-3.389 5.701-.374"/><path d="M604.969 700.531c-3.304.685-9.827 5.554-12.344 9.242-3.323 4.885-3.634 7.283-1.654 11.493 1.98 4.31 7.665 7.436 13.564 7.564 8.3.039 18.43-6.113 21.061-12.901 3.544-9.284-8.015-18.038-20.627-15.398m13.779 4.465c5.17 6.425-3.075 15.886-13.675 15.836-4-.019-5.398-.525-7.786-2.937-3.185-3.215-3.478-4.716-1.66-8.507 2.223-4.99 8.737-7.76 16.333-7.024 3.499.317 5.495 1.126 6.788 2.632m5.083 3.524c1.58 4.308-.145 9.7-4.462 13.18-10.842 8.849-28.027 5.768-27.976-5.132.02-4.4 1.524-5.093 2.305-.99.683 3.604 4.77 6.323 10.167 6.949 8.095 1.038 17.829-6.017 17.86-12.716.015-3.2 1.118-3.795 2.106-1.29M651.531 751.051c-.014 3 .18 4.301.387 2.702.208-1.499.219-3.899.026-5.5-.193-1.5-.399-.202-.413 2.798M656.833 750.776c-.305.999-.811 2.297-1.114 2.895-.303.699.493 1.403 1.791 1.809 3.696.917 11.262 8.153 13.439 13.063 3.07 6.515 3.834 13.918 1.619 17.208-.907 1.396-1.314 2.894-.915 3.196.398.402.9.104 1.203-.695 1.014-2.895 4.024-4.98 6.42-4.37 1.599.408 2 .21 1.303-.493-.498-.503-1.894-1.21-2.993-1.414-1.5-.208-2.094-1.41-2.676-5.113-1.16-8.406-8.509-19.44-14.597-21.87-1.797-.708-2.194-1.41-1.684-3.407.713-2.797-.784-3.504-1.796-.809"/><path d="M661.227 751.997c-.003.5 1.094 1.205 2.493 1.512 7.091 1.833 14.338 13.068 14.395 22.168.081 4.1.278 4.701 1.086 3.105 2.318-3.889-1.526-15.707-7.099-21.534-1.592-1.707-4.482-3.72-6.478-4.63-4.292-1.82-4.392-1.82-4.397-.62M651.146 769.15c-.005 1.1.492 1.702.993 1.405.602-.298 1.006-1.296 1.01-2.096s-.393-1.402-.993-1.404c-.5-.003-1.004.895-1.01 2.095M647.808 777.234c-1.508 1.693-2.516 3.288-2.217 3.59.596.703 4.412-2.68 5.623-4.974 1.513-2.793-.29-2.001-3.406 1.384M637.877 783.787c-2.407 1.39-3.715 3.183-2.515 3.189 1 .004 6.715-3.169 7.219-4.066 1.007-1.496-1.795-1.009-4.704.877M628.953 788.845c-3.212 2.585-2.017 3.491 1.494 1.208 1.505-.993 2.31-2.09 1.812-2.492-.499-.302-2.101.29-3.306 1.284M610.939 791.76c-3.413 2.685-3.24 8.585.445 11.703 4.979 4.423 10.69 2.25 10.518-3.85-.187-2.802-.186-2.902-.597-.703-.716 3.496-2.123 4.99-4.923 4.976-3.6-.017-6.584-3.53-6.166-7.329.314-2.898.715-3.196 4.318-3.68 3.802-.482 3.902-.581 1.808-1.79-2.793-1.514-2.693-1.514-5.403.674M583.468 806.631c-.302.599.393 1.502 1.691 2.008 3.394 1.316 5.58 4.227 6.659 8.732.883 3.704.883 3.704.996.804.224-4.999-7.432-14.435-9.346-11.544M651.73 709.052c-.015 3 .179 4.3.386 2.702.207-1.5.219-3.9.026-5.5-.193-1.501-.399-.202-.413 2.798M651.668 722.052c-.014 3 .18 4.3.387 2.702.207-1.5.218-3.9.026-5.5-.193-1.501-.399-.202-.413 2.798M220.842 726.522c-5.815 3.072-6.016 3.371-6.336 7.57-.321 4.598-3.342 8.884-6.142 8.871-2.5.088-5.212 2.575-6.026 5.672-.509 1.797-2.318 3.789-5.427 5.674-4.613 2.778-4.613 2.778-8.204.761-3.989-2.418-4.895-1.123-1.006 1.396 2.192 1.51 2.489 2.312 2.462 8.011-.028 5.8.17 6.501 3.256 9.316 1.692 1.708 3.685 3.117 4.285 3.12.5.002 3.107-1.385 5.714-2.973 2.608-1.688 5.114-2.976 5.514-2.974s1.805-.892 3.21-1.985 2.81-1.987 3.31-1.984c.4.002.674 5.403.643 12.003-.035 7.3.343 12.002.943 12.004.6.003 1.028-5.895 1.075-15.795.04-8.7.375-16.098.677-16.497.904-.895 3.398.416 3.392 1.816s3.179 4.515 4.578 4.522c1.9-.091 6.241-8.67 6.866-13.868.723-4.997.526-5.597-1.865-7.509-2.29-1.91-2.586-3.012-3.148-10.915-.278-4.801-.858-8.904-1.157-9.205-.399-.202-3.305 1.084-6.614 2.969m6.275 5.33c.186 2.9-.025 5.2-.425 5.197-1-.004-9.274-5.443-9.37-6.244.004-.9 7.322-4.665 8.52-4.36.6.103 1.088 2.605 1.275 5.406m-8.013 2.761c4.988 2.524 14.542 12.37 13.335 13.763-.603.698-1.014 2.896-.923 4.896.086 2.9-.52 4.298-2.73 6.287-2.812 2.587-2.812 2.587-5.995-.928-7.96-8.737-7.563-7.936-7.52-17.135.023-4.7.24-8.5.34-8.499.2.001 1.797.708 3.493 1.616m-4.859 12.378c-.01 2.2-.218 3.999-.418 3.998s-2.196-1.01-4.49-2.221c-4.09-2.22-4.482-3.822-1.082-3.806 1 .005 2.202-.49 2.505-.988.302-.598 1.304-.994 2.104-.99 1 .005 1.395 1.207 1.381 4.007m-3.52 4.183c2.395 1.311 4.488 2.721 4.485 3.321.085 3.1-3.645 9.583-6.151 10.872-3.408 1.683-4.106 1.18-2.69-2.013 1.009-1.995.812-2.796-1.178-4.906-1.293-1.406-3.188-2.515-4.088-2.52-5-.023-8.145 9.563-3.957 12.182 1.096.706 1.991 1.81 1.988 2.41-.007 1.6-3.413 2.784-3.807 1.482-.197-.601-.894-1.104-1.594-1.108-1.9-.009-2.953-10.114-1.245-11.706.603-.697 3.21-2.285 5.717-3.573 2.907-1.486 4.614-3.078 4.82-4.477.414-2.798 2.114-2.79 7.7.036m7.478 4.835c-.01 2-3.342 8.985-4.242 8.98-.6-.002-.697-.803-.292-1.8.404-.899 1.115-3.196 1.724-4.993.813-2.896 2.82-4.486 2.81-2.187m-17.313 2.619c-.4.298-.7-.003-.696-.703.003-.7.304-.999.703-.697a1.2 1.2 0 0 1-.007 1.4m-1.404.893c.896 1.005-.416 3.398-1.916 3.391-1.6-.007-1.599-.207-.788-2.403.608-1.698 1.609-1.993 2.704-.988m5.686 3.027c-.013 2.7-3.532 6.784-5.028 5.877-.598-.403-.995-1.105-.992-1.605.003-.6.503-.698 1.002-.395.598.402 1.002-.496 1.01-1.996.009-2.1.411-2.598 1.609-2.092s1.4.106.907-1.496c-.493-1.502-.391-1.902.407-1.498.598.403 1.092 1.805 1.085 3.205m5.977 4.928c-.704.797-1.607 1.493-2.107 1.49-.5-.002-3.006 1.286-5.614 2.974-4.514 2.879-7.82 4.063-5.71 2.073 1.507-1.493 12.738-8.04 13.738-8.035.5.002.397.702-.307 1.498"/><path d="M219.468 742.215c-1.808 1.792-1.424 5.194 1.058 8.905 2.88 4.414 7.275 5.235 8.192 1.639.815-2.996-1.562-7.907-4.652-10.122-2.69-1.913-3.09-1.915-4.598-.422m4.79 2.323c1.093 1.305.99 1.805-.615 2.997-2.509 1.888-3.108 1.785-3.8-.118-.592-1.603.921-4.396 2.421-4.389.4.002 1.297.707 1.993 1.51m2.968 6.514c-.006 1.3-.709 1.997-1.909 1.991-2.2-.01-3.493-1.516-2.586-3.012 1.21-1.895 4.505-1.079 4.495 1.021M651.609 734.552c-.013 2.7.182 3.8.39 2.201.207-1.499.217-3.699.023-5-.194-1.2-.4-.001-.413 2.799M149.265 742.684c-.005 1.1.49 2.003.99 2.005.6.003 1.005-.895 1.01-1.995s-.39-2.002-.99-2.005c-.5-.002-1.005.895-1.01 1.995M115.562 743.226c.896.904 1.994 1.31 2.396.911.402-.398.105-1.1-.693-1.603-2.492-1.612-3.494-1.117-1.703.692M149.228 750.584c-.005 1.1.489 2.303.988 2.605.598.403 1.002-.495 1.008-1.895s-.387-2.602-.987-2.605c-.5-.002-1.004.895-1.01 1.895M177.232 749.716c-.005 1.1 3.089 2.415 3.893 1.619.301-.299-.096-1-.893-1.505-1.895-1.208-2.995-1.214-3-.114M130.52 752.296c.895.904 1.893 1.41 2.294 1.111 1.005-.995-.586-2.803-2.386-2.811-1.5-.007-1.5.093.092 1.7M135.709 754.62c-.403.599-.405.999-.105 1 .2.001 1.098.305 1.997.61.899.304 1.6.207 1.602-.393.007-1.4-2.79-2.313-3.494-1.216M142.788 758.954c.592 1.703 5.685 3.227 7.39 2.235 1.304-.794 1.316-3.494.016-3.5-.5-.002-1.002.495-1.005 1.095-.005 1.1-1.604.893-5.297-.625-1.298-.506-1.599-.307-1.104.795M123.24 790.562c-.01 1.9.186 2.701.491 1.703.204-.9.212-2.5.017-3.5-.296-.902-.5-.103-.509 1.797M173.726 793.5c-.402.298-.725 5.197-.751 10.797-.034 7.3.35 10.602 1.246 11.406 1.495 1.107 81.692 1.985 86.297.907 2.403-.59 2.404-.79 2.456-11.989l.054-11.4-44.3-.209c-24.4-.115-44.7.09-45.002.488m87.047 11.41-.346 9.8-42.201.1h-42.3l.047-9.999.047-10 42.5.2 42.599.201z"/><path d="M228.311 796.758c-.7.196-1.31 2.193-1.32 4.293-.014 3 .481 4.003 1.979 4.51 1.098.305 1.993 1.51 1.987 2.61-.01 2.2-1.111 2.394-2.803.686-.896-.904-1.196-.806-1.202.394-.011 2.4 3.185 3.215 4.694 1.222 1.812-2.491 1.752-10.891-.24-12.8-.795-.905-1.592-1.608-1.692-1.509-.1 0-.802.296-1.403.594m2.68 4.312c-.015 3.1-1.62 4.093-2.607 1.488-.791-1.904.221-4.499 1.62-4.492.5.002.995 1.304.987 3.004M238.503 798.506c-3.223 4.784.123 16.3 3.64 12.817 1.909-1.891 1.656-11.892-.335-13.802-1.493-1.507-1.694-1.408-3.305.985m3.27 6.215c-.212 2.7-.722 4.897-1.322 4.894-1.1-.005-1.863-7.909-.952-10.305 1.114-2.994 2.598.513 2.275 5.411M186.505 797.96c-.604.798-1.815 3.092-2.825 5.187-1.717 3.792-1.717 3.792.778 4.704 1.597.608 2.293 1.51 1.889 2.509-.304.799-.208 1.499.392 1.502 1.4.006 1.817-3.492 1.247-9.894-.38-4.102-.776-5.104-1.481-4.007m.47 6.403c-.004.8-.707 1.497-1.507 1.493-1.6-.008-1.995-1.21-.79-2.304 1.106-1.195 2.304-.79 2.297.81M196.081 803.006c.083 3.6-.133 7.1-.536 7.697-.605 1.097-.007 1.4 2.195 1.11.4-.097.602-.396.504-.797-.099-.3-.384-3.502-.767-7.104-.86-8.604-1.657-9.108-1.396-.906M217.003 798.504c-.005.9.594 1.203 1.495.907 1.804-.691 1.992 1.71.284 3.402-.904.895-.807 1.496.688 2.603 1.196.906 1.591 1.908 1.086 3.105-.507 1.398-.908 1.596-1.804.692-1.89-1.91-2.993-1.414-1.803.791 1.288 2.506 3.687 2.618 4.399.22.304-.898.317-3.698.129-6.199s-.376-5.101-.373-5.801c-.092-1.7-4.093-1.52-4.101.28M205.373 804.85c.496.802 5.598.326 5.602-.474 0-.2-1.398-.407-3.098-.415-1.6-.007-2.802.387-2.504.889M122.79 801.06c-.614 2.998-.32 4.299.784 3.304.302-.398.409-1.898.217-3.499-.287-2.801-.287-2.801-1.001.195M463.642 811.867c-5.44 8.574-5.443 9.274-.543 9.297 1.8.009 2.797.513 2.793 1.513-.004.8.593 1.503 1.292 1.507 1.5.007 3.722-4.583 2.627-5.688-.398-.402-.886-2.804-1.075-5.205-.373-5.702-2.07-6.21-5.094-1.424m2.28 4.31c-.005 1.1-.71 1.997-1.51 1.993-1.5-.007-2.09-2.11-.784-3.303 1.206-1.295 2.304-.69 2.294 1.31M488.14 812.482c-4.43 6.38-4.539 8.179-.44 8.598 1.998.21 3.195.915 3.19 1.815-.01 2.2 1.993 1.61 2.905-.886 1.014-2.895-.04-12.9-1.537-13.407-.599-.203-2.507 1.488-4.118 3.88m2.784 3.313c-.007 1.6-.611 2.497-1.511 2.493-1.8-.008-1.99-2.11-.283-3.801s1.808-1.592 1.794 1.308M498.55 810.531c-1.914 2.691-2.046 9.59-.257 12 1.49 2.106 5.588 2.425 7.397.634 1.909-1.891 1.555-11.793-.437-13.402-2.59-2.012-4.992-1.724-6.704.768m5.788 2.427c1.68 4.408-.048 10.1-2.843 9.087-1.098-.505-1.591-1.907-1.576-5.007.01-2.4.322-4.699.723-4.997 1.106-1.195 3.103-.685 3.696.917M475.248 810.621c-2.806 1.287-3.016 3.586-.316 3.599 1.7.008 1.996.71 1.975 5.11-.016 3.6.377 4.901 1.279 4.605.6-.197 1.204-.894 1.107-1.494-.097-.7-.182-3.901-.166-7.201-.17-6.301-.27-6.402-3.879-4.619M435.636 813.135c-.902.496-2.203.69-2.702.387-1.396-.807-2.815 3.187-2.229 6.19.39 2.201.789 2.403 6.59 2.13 5.502-.273 6.203-.57 7.415-3.064.807-1.597 2.112-2.69 3.312-2.685 1 .005 1.903-.49 1.905-.99.012-2.6-10.68-4.051-14.29-1.968m7.998.537c2.097.61 2.097.61.08 4-2.116 3.59-2.717 3.788-7.712 2.765-2.398-.512-3.095-1.215-3.086-2.915.008-1.8.811-2.496 3.815-3.282 4.806-1.277 4.406-1.28 6.903-.568M121.924 815.056c-.01 1.9.183 3.501.383 3.502s.608-1.597.817-3.496.016-3.5-.384-3.502-.807 1.596-.816 3.496M537.728 815.216c-7.203.566-5.811 2.273 1.789 2.308 4.8.023 6.501-.269 6.206-1.27-.494-1.403-1.493-1.507-7.995-1.038M515.422 816.41c-.706 1.097-.506 1.198 2.994 1.215 8.2.039 10.601-.25 10.006-1.153-.298-.601-3.296-1.016-6.496-1.03-3.2-.016-6.202.37-6.504.969M121.969 826.757c-.014 2.8.185 3 .893 1.304 1.214-2.794 1.222-4.494.022-4.5-.5-.002-1.007 1.495-.915 3.196M75.224 836.037c-2.408 1.788-4.428 5.979-4.444 9.479-.015 3 .58 4.103 2.774 5.513 1.495 1.007 3.288 2.415 4.085 3.12 1.294 1.305 4.696.821 6.604-.87 1.206-1.194 4.205-1.08 5 .124.595.903-1.475 15.893-3.73 27.483-2.357 12.089-5.149 31.576-4.854 32.677.297.701 1.01-2.095 1.73-6.192.619-4.097 1.646-9.992 2.16-12.99.615-2.997 1.748-10.192 2.576-15.988 2.38-16.889 3.808-22.982 5.308-22.975.7.003 2.896.914 4.891 1.923 2.893 1.614 4.092 1.72 5.996.928 3.106-1.385 3.305-1.084 4.076 5.12.768 6.703 2.164 7.61 1.495 1.007-.476-5.003-.476-5.003 2.22-4.29 3.796.918 3.202-.285-1.387-2.607-2.295-1.21-4.485-3.22-4.98-4.523-.591-1.703-3.183-3.515-8.471-5.94-5.688-2.727-7.482-3.935-7.474-5.535.005-1.1-.988-2.705-2.184-3.51-2.792-1.714-9.886-2.947-11.39-1.954m3.996.918c.899.305 1.395 1.007 1.093 1.506-.705.996-3.5-.017-3.494-1.217.005-1.1.305-1.098 2.401-.289m-1.823 4.792c-.305 1.098-.61 2.397-.613 2.797-.002.5-.904.796-2.004.79-2.2-.01-2.782-3.813-.873-5.704 1.809-1.791 4.102-.28 3.49 2.117m9.407-1.356c-.007 1.4-.61 1.897-2.208 1.69-3.299-.316-5.219 3.975-3.234 7.085 1.788 2.708.679 4.603-2.218 3.99-3.497-.617-3.065-7.415.757-12.097 2.515-3.288 6.917-3.668 6.903-.668m-3.724 4.983c-.305 1.198-.809 1.896-1.107 1.595-.497-.603.517-3.598 1.217-3.595.2.001.196.901-.11 2m3.996 1.019c-.61 2.197-2.117 3.49-3.013 2.685-.199-.3-.193-1.5.212-2.599.813-2.796 3.513-2.783 2.8-.086m3.698.317c-.009 1.9-2.725 5.287-3.621 4.483-.895-1.004 1.227-5.794 2.627-5.788.5.003.997.605.994 1.305m-15.503.627c1.092 1.705-.515 3.198-2.109 1.89-.697-.603-1.093-1.505-.79-2.004.705-1.196 2.105-1.09 2.899.114m18.496.987c-.008 1.7-1.22 4.094-2.12 4.09-1-.005-1.184-3.305-.18-4.3.905-.996 2.305-.89 2.3.21m2.583 3.612c-.714 2.897-2.616 3.388-2.604.688.009-1.8 2.022-4.49 2.818-3.687.199.201.192 1.601-.214 3m4.404-.979c-.005 1.2-2.426 5.489-3.226 5.485-.9-.004-1.09-2.205-.179-4.401.507-1.398 3.411-2.384 3.405-1.084m2.987 2.914c-.008 1.6-2.82 4.187-3.616 3.283-.299-.301-.293-1.501.112-2.6.711-2.296 3.514-2.883 3.504-.683M121.914 838.257c-.011 2.5.088 2.6.897.804 1.212-2.694 1.216-3.494.016-3.5-.5-.002-1.006 1.195-.913 2.696M122.161 849.558c.082 3.9 1.582 3.907 1.6.007.008-1.7-.386-3.001-.886-3.004-.4-.002-.806 1.296-.714 2.997"/><path d="M197.552 851.713c-4.612 2.479-4.712 2.478-8.504.86-5.588-2.626-10.788-2.55-13.6.036-1.306 1.194-3.311 2.185-4.511 2.179s-2.905 1.086-3.812 2.482c-.906 1.396-2.612 2.488-3.811 2.482-1.1-.005-4.81 1.877-8.12 4.062-5.216 3.375-6.518 3.87-9.815 3.254-3.298-.516-4.1-.22-6.21 2.27-1.508 1.593-2.52 4.088-2.528 5.788-.01 2.2-.716 3.297-2.52 4.089-2.906 1.386-3.504.883-3.485-3.017.018-3.8-.578-4.703-4.47-6.621-2.593-1.412-3.393-1.416-5.999-.128-3.608 1.683-5.418 3.874-5.53 6.474-.01 1.9-.11 1.9-2-.21-1.194-1.205-2.589-2.212-3.089-2.214-2.3-.011-8.016 3.362-9.927 5.753-3.219 3.985-2.321 4.49 1.297.706 3.92-4.281 8.425-5.36 11.213-2.747 3.286 2.916 9.738 13.146 9.033 14.143-.705 1.096-9.215 3.156-13.015 3.138-1.8-.008-3.194-1.315-5.576-5.026-1.787-2.808-3.377-5.016-3.577-5.017-.6-.003 1.382 3.807 3.666 7.218 1.094 1.405 1.885 3.208 1.882 4.008-.005 1 .993 1.305 3.395 1.016 4.002-.48 7.09 2.034 10.46 8.45 1.09 2.105 1.985 3.31 2.088 2.61.007-1.6-2.572-5.912-5.756-9.428-1.89-2.108-2.187-2.81-1.085-3.205.801-.196 3.405-.884 5.908-1.572 6.107-1.571 11.025-5.348 11.04-8.448.008-1.7.913-2.896 3.019-3.986 3.708-1.882 4.008-1.88 3.998.32-.004.9 1.581 4.007 3.468 6.916 3.773 5.717 5.243 11.924 3.529 15.016-.908 1.696-19.763 13.207-21.563 13.199-.3-.002-.595-.903-.59-2.003s-.39-2.002-.99-2.005c-.5-.002-1.007 1.296-1.014 2.896-.019 3.9-2.923 4.886-7.012 2.367-1.595-.908-2.99-2.115-2.988-2.515s-.596-.802-1.196-.805c-2.3.089 5.472 6.026 7.872 6.037 1.2.006 4.807-1.477 8.015-3.362 12.735-7.24 15.641-8.627 16.237-7.624.397.502 1.201-.294 2.009-1.99 2.325-5.29 3.517-3.684 4.67 6.322.285 3.201.173 5.8-.227 5.799-1.9-.01-3.292-1.716-4.176-5.02-.689-2.503-.987-2.805-1.094-1.305-.22 4.099 1.867 7.009 5.861 8.227 4.593 1.422 7.693 1.437 8.5.14 1.208-1.894 3.104-.985 8.18 3.94 5.078 4.923 5.078 4.923 6.39 2.33.908-1.596 1.013-2.696.414-2.899-.5-.202-3.193-1.615-5.986-3.128-4.887-2.723-4.987-2.724-6.154-9.73-1.652-10.207-1.646-11.507.754-11.496 2.6.013 11.22-4.247 12.93-6.339.805-.896 1.908-1.59 2.608-1.588.8.004 2.205-1.09 3.312-2.484 1.207-1.494 3.011-2.486 4.511-2.479 1.4.007 3.203-.585 4.007-1.38.804-.797 3.01-2.087 5.014-2.977 4.007-1.581 7.736-7.564 7.758-12.364.01-2.2 1.017-3.495 4.629-6.078 4.414-2.98 4.616-3.378 4.132-6.78-.583-3.604-2.868-6.814-5.661-8.228-.898-.504-3.301.185-6.208 1.671m7.297.535c2.093 1.61 3.876 5.118 3.864 7.618-.006 1.4-1.312 2.694-4.019 4.081q-6.015 3.122-5.998-.328c.003-.7-.89-2.304-1.983-3.71-2.683-3.512-2.478-4.711 1.333-6.993 3.71-2.283 4.611-2.379 6.803-.668m-18.507 1.512c3.989 2.42 7.765 7.537 9.44 12.645 1.48 4.507 2.869 6.714 2.88 4.414.003-.7-1.48-4.407-3.362-8.116-3.665-7.418-3.06-8.315.807-1.496 2.777 4.913 4.345 11.72 2.645 11.712-.6-.003-1.105 1.095-1.111 2.395-.015 3-4.239 8.18-5.834 7.173-.898-.505-.894-1.305-.188-2.601 1.514-2.893 1.233-6.995-1.043-12.005-2.574-5.713-5.26-8.625-10.348-11.25-5.087-2.623-5.187-2.724-3.482-3.816 2.407-1.488 6.305-1.07 9.596.945m-5.032 6.677c7.066 7.233 10.41 19.05 6.686 24.232-.805 1.196-2.31 2.189-3.31 2.184-1.5-.007-1.796-.908-1.773-5.808.04-8.6-5.12-16.725-12.407-19.76-3.293-1.315-3.791-1.817-2.785-3.012.804-.896 3.007-1.486 5.607-1.474 3.7.018 4.897.623 7.982 3.638m-12.015 3.243c6.88 4.233 12.912 18.661 10.185 24.448-2.122 4.69-3.619 3.983-4.19-2.02-.286-3.1-1.072-6.104-1.669-6.707-.796-.804-.899-.304-.309 1.898 1.474 5.607.85 10.604-1.66 12.593-3.111 2.585-3.81 2.382-3.395-.916.307-1.499.018-3.8-.575-5.203-.79-2.104-.992-1.705-1.015 2.995-.129 6.2-1.337 7.994-5.037 7.976-2.6-.112-2.6-.112.21-2.099 1.505-1.092 2.712-2.587 2.715-3.187s-1-.105-2.205.99c-1.305 1.094-3.11 2.285-4.112 2.58-1.203.495-1.607 1.393-1.214 2.895.194 1.3.873 5.704 1.354 9.806 1.06 8.505-.052 11-5.052 10.977-2.5-.012-2.798-.414-3.775-5.318-2.244-11.911-3.018-17.315-2.998-21.515.016-3.4-.28-4.301-1.382-3.906-.902.396-2.396-.911-3.984-3.319-2.086-3.11-2.576-5.212-2.554-9.812.015-3.2.53-6.298 1.233-6.994 1.507-1.493 5.207-1.476 8.1.038 1.197.605 2.893 1.413 3.691 1.817s1.79 2.209 2.08 4.11c.586 3.103.586 3.103.798.604.007-1.5.513-2.698 1.013-2.695 1.5.007 7.065 7.333 7.056 9.233-.004.9.49 2.002 1.089 2.405.898.504 1-.095.51-2.198-.586-2.902-.586-2.902.902-.395 2.182 3.81 1.793 1.508-.585-3.203-2.279-4.51-4.964-7.524-9.151-10.343-2.194-1.41-2.49-2.012-1.485-3.207 2.715-3.288 11.593 1.454 15.761 8.274 1.19 2.006 2.384 3.411 2.685 3.113 1.005-.996-5.258-8.825-9.245-11.544-2.393-1.511-4.086-3.12-3.684-3.517 1.306-1.194 6.903-.468 9.894 1.346m19.984 3.394c.793 1.604 1.383 3.607 1.18 4.306-.204.8-1.595-1.107-3.08-4.215-1.783-3.708-2.276-5.21-1.18-4.305.897.704 2.287 2.71 3.08 4.214m-8.635 7.56c1.185 3.005 1.87 6.209 1.666 7.108-.205.999-.702.496-1.193-1.406-.982-3.905-5.143-12.224-6.439-13.03-.499-.303-.995-1.105-.992-1.705.012-2.6 5.081 4.024 6.958 9.033m-25.386-3.12c-.401.298-1.4-.206-2.394-1.211-1.592-1.808-1.592-1.808.602-.597 1.298.606 2.094 1.41 1.792 1.808m-27.303.471c1.296 1.007 1.687 2.808 1.663 7.908-.028 5.9-.332 6.799-2.64 8.588-3.413 2.684-3.612 2.583-5.597-.726-.893-1.505-2.582-3.813-3.775-5.218-1.691-1.908-1.985-3.21-1.472-6.007.309-1.899 1.42-4.094 2.323-4.79 2.107-1.59 7.207-1.465 9.498.245"/><path d="M144.147 873.862c-1.012 2.495-1.122 4.595-.342 8.798 1.363 7.907 1.965 7.51 1.204-.794-.57-6.203-.365-7.502 1.143-9.195 1.106-1.195 1.31-1.994.61-1.997s-1.807 1.492-2.615 3.188M148.344 874.382c-.401.298-.707 1.496-.712 2.696-.01 2-.01 2 1.5.007.804-.996 1.51-2.193 1.512-2.693.005-.9-1.395-.906-2.3-.01M155.092 885.514c.284 3.5.867 7.104 1.462 8.007.595 1.202.7.003.318-3.799-.86-8.404-2.345-11.711-1.78-4.208M164.774 889.26c-.007 1.6.19 2.2.495 1.202.204-.9.21-2.3.014-3-.297-.602-.5.097-.509 1.797M152.656 914.402c-1.01 1.896-.62 4.297.68 4.304.4.002.806-1.397.814-2.997.016-3.5-.283-3.701-1.494-1.307M122.42 858.26c-1.105.994-.825 5.295.275 5.3.6.003 1.007-1.395 1.014-2.995.015-3.1-.183-3.5-1.289-2.306M127.18 866.582c.894 1.404 7.582 4.136 8.883 3.742.601-.197-.993-1.405-3.588-2.517-5.188-2.525-6.187-2.73-5.294-1.225M108.717 880.195c-.005 1 .387 2.702.882 3.804.692 1.603.894 1.304.908-1.796.11-2-.282-3.701-.882-3.704-.5-.002-1.004.795-.908 1.696M110.578 888.404c-.005 1.1.39 2.202.888 2.504.399.302.603-.597.31-1.899-.487-3.002-1.185-3.305-1.198-.605M117.533 898.037c-.001.2 1.793 1.408 3.988 2.518s3.992 1.72 3.994 1.22-1.592-1.608-3.488-2.517c-3.792-1.818-4.49-2.021-4.494-1.221M103.516 901.47c-.003.7.296 1.002.697.704.302-.399.305-.999.007-1.4-.399-.302-.7-.003-.704.697M129.706 903.794c.493 1.402 6.78 4.232 6.785 3.032.003-.5-1.592-1.607-3.588-2.517-2.394-1.211-3.493-1.416-3.197-.515M104.49 906.875c-.004 1.1 2.97 6.614 3.57 6.617.2.001-.293-1.501-1.185-3.305-1.883-3.61-2.379-4.412-2.384-3.312M79.236 918.356c-.409 1.899-1.028 5.996-1.242 8.995-.626 5.497-.626 5.497 1.005-.996.817-3.596 1.336-7.593 1.242-8.994-.29-2.101-.39-2.002-1.005.995M75.325 941.938c-.722 4.697-1.04 8.695-.742 8.997.198.3.913-2.796 1.532-6.893.62-4.097 1.438-8.093 1.843-8.991.304-.999.208-1.7-.292-1.702-.6-.003-1.618 3.793-2.34 8.59M174.362 934.405c-.006 1.3 5.767 6.927 6.47 6.33.201-.299-1.09-2.105-2.982-3.914-1.89-1.909-3.486-2.916-3.488-2.416M187.3 947.366c1.892 1.909 3.784 3.518 4.384 3.52.5.003-.492-1.602-2.383-3.51-1.891-1.91-3.784-3.518-4.384-3.521-.5-.003.493 1.602 2.384 3.511M73.064 954.828c-.614 2.997-.32 4.298.785 3.303.302-.398.409-1.898.216-3.499-.286-2.8-.286-2.8-1 .196M194.272 953.499c-.006 1.3 5.768 6.927 6.47 6.33.202-.299-1.09-2.105-2.981-3.914-1.891-1.909-3.487-2.916-3.489-2.416M123.854 957.067c-.904.896-1.61 2.093-1.612 2.593-.01 2.3 2.177 4.91 3.977 4.918 2.4.012 2.594 1.313.386 3.102-1.305.994-1.705.992-2.5-.212-.496-.802-.895-.904-.898-.304s.592 1.703 1.289 2.306c1.096.805 1.797.609 3.204-.885 2.111-2.29 1.644-9.292-.745-11.703-1.193-1.306-1.594-1.208-3.1.185m3.779 4.618c-.303.499-1.204.894-2.004.89-1.4-.006-1.986-3.109-.68-4.403.905-.895 3.389 2.416 2.684 3.513M133.252 957.511c-.505 1.098-1.016 3.396-1.024 5.096-.028 6.1 3.657 9.217 5.977 5.028 1.311-2.394-.272-6.001-2.472-6.012-.9-.004-1.496-.907-1.49-2.107.008-1.6.51-1.998 2.008-1.59 2.397.61 2.703-.788.408-1.699-2.197-.81-2.197-.81-3.407 1.284m3.463 7.917c-.014 3.1-1.913 2.79-2.298-.411-.291-1.801.012-2.5 1.01-2.195.7.303 1.294 1.406 1.288 2.606M153.252 957.606c-.505 1.097-1.016 3.395-1.024 5.095-.029 6.2 3.657 9.217 6.077 4.929 1.513-2.793.35-10.499-1.647-11.308-2.196-.81-2.196-.81-3.406 1.284m4.183 3.72c.883 3.504.17 6.4-1.63 6.392-1.4-.007-2.865-7.614-1.857-9.31.908-1.495 2.7-.086 3.487 2.917M163.657 956.555c-.602.397-1.114 3.094-1.028 6.095.08 4 .573 5.703 1.869 6.509 2.792 1.713 4.607-1.379 3.934-7.182-.38-4.102-1.47-6.207-3.17-6.215-.3-.001-1.003.396-1.605.793m3.588 2.717c-.004.8-.707 1.496-1.507 1.493-.8-.004-1.497-.708-1.493-1.508.003-.8.707-1.496 1.507-1.492.8.003 1.496.707 1.493 1.507m-.23 6.199c-.511 2.497-2.813 2.786-2.801.386.005-1.2.61-2.097 1.61-2.092.9.004 1.396.707 1.191 1.706M173.558 956.501c-.701.197-1.306 1.194-1.31 1.994-.005 1.2.294 1.302 1.499.307 2.71-2.187 4.697.722 2.185 3.21-.804.697-2.012 2.391-2.618 3.688-1.109 1.895-1.111 2.495-.015 3.2 1.895 1.21 4.895 1.123 4.9-.077.004-.6-.895-1.004-1.995-1.01-2.5-.01-2.496-.81.02-3.999 2.413-2.989 2.63-6.588.434-7.398-.898-.304-1.597-.608-1.697-.508-.1 0-.802.296-1.403.593M182.958 956.546c-1.407 1.293-.748 10.096.844 11.804 2.588 2.612 4.4.12 4.428-5.98.019-3.9-.374-5.401-1.572-5.907-1.996-.81-2.896-.814-3.7.083m4.07 6.219c.283 3.701.08 4.2-1.518 3.893-1.899-.31-2.978-4.614-1.865-7.51 1.114-2.794 3.104-.684 3.383 3.617M94.25 957.928c-1.81 2.091-.43 6.498 1.97 6.509 1.4.007 1.996.71 1.99 2.11-.008 1.7-.51 1.997-2.508 1.688-1.999-.41-2.299-.311-1.404.793 2.883 3.514 6.003-.572 5.13-6.576-.673-5.603-2.764-7.413-5.178-4.524m3.989 2.418c-.005 1.1-.41 2.199-.812 2.497-1.404.893-3.494-1.217-2.887-2.814.911-2.296 3.71-1.983 3.699.317M103.748 958.472c-1.014 2.996.371 6.002 2.571 6.013 1.4.006 1.898.509 1.692 1.708-.205 1.099-1.208 1.794-2.508 1.688-1.3-.006-1.902.39-1.606 1.292.692 1.803 2.793 1.613 4.402-.28 1.207-1.493 1.433-6.992.35-10.698-.69-2.303-4.09-2.219-4.901.277m4.491 1.822c-.011 2.4-.815 3.196-2.612 2.487-2.196-.81-1.68-4.308.62-4.297 1.3.006 1.997.71 1.992 1.81M113.252 957.517c-.002.5.896 1.004 1.996 1.01 2.4.01 2.399.11.477 4.702-.91 1.996-1.32 4.394-.924 5.196.495 1.102.897.504 1.409-1.894.409-1.898 1.123-4.995 1.532-6.793.714-2.996.615-3.197-1.885-3.209-1.4-.006-2.602.388-2.605.988M296.921 964.583c-5.535 7.374-5.946 9.772-1.746 9.792q3 .014 2.993 1.514c-.013 2.6 3.692 1.717 4.204-.98.307-1.399.114-2.8-.285-3.102-.499-.302-.888-2.504-.877-4.904.027-5.7-1.27-6.306-4.289-2.32m2.277 4.81c-.005 1.1-.71 2.297-1.512 2.693-2.104.79-2.8-.113-1.988-2.609.813-2.696 3.513-2.683 3.5-.083M310.33 962.746c-.705.997-2.008 1.69-2.708 1.687-.8-.004-1.403.694-1.407 1.494s.893 1.504 1.993 1.509c1.7.008 1.996.71 1.977 4.91-.014 2.8.375 5.201.873 5.604 1.596.907 1.803-.692 1.242-8.895-.467-6.902-.764-7.703-1.97-6.31M320.615 965.994c-3.73 6.383-3.638 7.883.36 8.302 2 .21 3.196.915 3.192 1.815-.01 2.2 1.392 1.607 2.705-1.087.607-1.397.713-2.697.215-3.099-.499-.302-.888-2.704-.874-5.504.03-6.4-1.97-6.51-5.598-.427m3.583 3.517c-.01 2.3-1.215 3.095-2.91 2.087-.996-.705-1.094-1.306-.186-3.001 1.412-2.394 3.11-1.886 3.096.914M331.43 962.845c-1.207 1.295-1.622 4.493-1.445 9.394.183 3.6 3.768 6.817 6.373 5.83 3.606-1.383 4.84-8.578 2.363-13.49-1.684-3.207-5.38-4.125-7.291-1.734m5.266 7.225c-.02 4.3-.324 4.999-2.024 4.99-1.6-.007-2.096-.81-2.282-3.91-.376-4.902.332-6.799 2.53-6.388 1.4.306 1.794 1.408 1.776 5.308M72.226 963.024c-.004.9 2.194 1.31 7.494 1.335 9.8.046 9.708-1.654.01-2.2-5.499-.226-7.5-.035-7.504.865M144.224 963.663c-.003.5.895 1.004 1.995 1.01 1.1.005 2.002-.491 2.005-.991.002-.6-.896-1.004-1.996-1.01-1.1-.005-2.002.391-2.004.991M207.206 967.46c4.28 4.42 4.679 4.622 9.48 4.345 6.602-.37 6.01-2.172-.788-2.604-4.499-.221-5.896-.828-8.185-3.239-1.591-1.707-3.285-3.015-3.885-3.018s.99 2.005 3.378 4.516M268.914 965.95c-.401.299-1.703.693-3.004.787-1.9.09-2.203.69-2.219 4.09-.017 3.7.082 3.9 3.978 4.618 5.596.926 8.1.138 9.516-3.255.708-1.697 1.913-2.791 2.813-2.687 2.697.513 2.51-2.188-.285-3.201-2.995-1.114-9.794-1.346-10.799-.351m9.094 1.244c1.097.705 1.096.905-.106 1.4-.902.295-1.708 1.591-1.914 2.89-.31 2.099-.81 2.296-5.21 2.076-4.8-.123-6.892-1.533-5.982-3.829 1.013-2.595 10.421-4.35 13.212-2.537M226.896 969.653c-1.407 1.493.689 2.403 5.289 2.425 5.5.026 8.304-.761 7.41-2.065-.596-1.003-11.694-1.255-12.699-.36M244.695 970.037c-.303.498-.106 1.2.492 1.602 1.396.907 13.103-.538 12.408-1.542-.695-1.203-12.095-1.157-12.9-.06M761.95 1001.975c-.201.199-22.003.496-48.404.671-26.4.176-48.002.374-48.002.374-.403.598-.107 171.302.285 172.904.39 2.201.39 2.201 66.19 2.511 36.099.17 68.6.024 72.102-.36l6.302-.57-.323-80.002c-.192-44.002-.607-83.404-.987-87.606l-.564-7.603-23.098-.409c-12.7-.16-23.2-.209-23.501.09m45.818 17.516.228 15.3-33.7-.158-33.7-.159 4.114-2.88c8.73-6.36 7.59-18.865-2.19-23.51-8.48-4.14-17.51 2.317-17.557 12.316-.024 5 1.959 8.71 6.245 11.73 3.189 2.315 3.189 2.315-30.611 2.156l-33.7-.159.068-14.4.069-14.5 12.3-.242c6.702-.168 31.103-.353 54.103-.345 23.1.01 42.201-.2 42.403-.5.2-.199 7.401-.265 16.1-.124l15.6.273zm-63.16-8.498c3.29 2.115 4.67 6.022 4.046 11.32-1.045 9.594-13.063 13.338-19.129 6.01-4.972-5.824-4.547-11.122 1.08-16.696 3.114-3.085 3.915-3.382 7.513-2.865 2.198.31 5.094 1.324 6.49 2.23m62.977 26.197c.398.302 1.093 43.906 1.366 91.907l.38 46.703-14.8-.07c-8.1-.038-39.9.112-70.502.368-46.802.28-55.8.037-56.196-1.065-.296-.801-.448-32.103-.472-69.603l-.078-68.201 16.101-.224c8.8-.159 36.901-.226 62.502-.306 25.5-.08 46.702-.38 47.003-.578.403-.498 14.098.566 14.696 1.069"/><path d="M732.98 1016.838c-1.409 1.794-.71 1.997 1.997.61 2.005-1.09 5.002-.377 4.994 1.123-.002.5-1.104.895-2.304.89-3-.015-6.216 3.37-5.326 5.574.493 1.403 1.493 1.507 5.795 1.028 2.902-.387 5.404-.775 5.505-.974.1-.1-.39-2.202-1.078-4.606-1.181-4.105-1.58-4.507-4.778-4.822-2.199-.21-3.901.281-4.805 1.177m7.772 5.837c-.507 1.498-6.811 2.368-6.804.968.007-1.5 1.31-2.194 4.31-2.18 1.8.009 2.698.413 2.494 1.212M719.35 1044.374l-23.002.392-.057 12-.057 12 21.099.4 21.099.298.134 14.001c.134 14.001.134 14.001-3.884 17.782-4.721 4.478-4.925 5.277-1.84 8.292 2.19 2.11 2.19 2.11-2.199-.11-4.689-2.323-5.99-1.929-6.61 2.068-1.85 10.591-2.657 12.088-8.57 15.06-4.912 2.377-6.02 3.972-6.04 8.172-.018 3.9.28 4.3 5.267 7.124 2.793 1.614 6.985 3.233 9.184 3.544 3.398.416 3.995.919 4.085 3.019-.006 1.4.88 4.404 1.769 6.708 1.384 3.407 2.678 4.613 7.268 6.835 4.489 2.32 5.888 2.528 7.892 1.637 1.303-.594 2.408-1.589 2.411-2.289.016-3.5 5.772-15.173 8.38-17.16 1.606-1.093 3.516-3.284 4.323-4.78 1.615-3.093 1.945-9.391.549-10.298-.499-.302-.686-3.003-.372-6.001.625-5.298.527-5.598-3.058-8.815-1.991-1.91-4.077-4.92-4.568-6.822-.787-2.703-1.982-3.909-6.072-5.928-2.794-1.413-5.187-2.725-5.386-3.026s-.568-6.902-.93-14.804l-.633-14.203 19 .09c10.4.048 20.4-.205 22.102-.497 3.103-.685 3.103-.685 3.159-12.485.05-10.6-.144-11.9-1.644-12.008-4.998-.423-42.598-.5-62.8-.196m-6.014 2.972c2.798.413 4.396.82 3.795.918-.8.096-1.308 1.794-1.322 4.694-.02 4.1.179 4.5 1.982 3.91 1.702-.493 2-.191 1.988 2.408-.015 3.3-.818 3.897-2.808 1.887-.896-.904-1.197-.805-1.203.495-.01 2.3 2.585 3.312 4.492 1.72 2.41-1.988 1.932-6.69-.96-8.604-2.99-2.014-3.183-3.415-.38-4.102 1.101-.294 1.805-1.091 1.508-1.793-.493-1.402 5.512-2.474 14.012-2.434 5.8.028 6.199.33 3.888 2.619-2.814 2.887-1.34 8.294 2.655 9.612.698.304.894 1.205.49 2.203-.608 1.497-1.008 1.595-2.204.59-1.195-1.006-1.495-1.008-1.501.292-.011 2.4 1.985 3.11 3.693 1.418 2.01-1.99 2.339-8.19.66-12.597-.692-1.804-1.284-3.506-1.283-3.706.002-.3 9.101-.258 20.3-.105l20.2.395-.048 10-.047 10-41.201.106-41.301.105-.082-3.8c-.09-2.1-.27-6.501-.354-9.802s.03-6.3.232-6.799c.504-.897 8.204-.761 14.799.37m28.471 6.134c-.016 3.5-1.418 3.894-3.005.986-1.189-2.306-.58-4.003 1.62-3.992.9.004 1.394 1.106 1.385 3.006m7.754 52.237c-.002.4-.806 1.197-1.808 1.692-1.403.693-3.201.285-6.992-1.633-2.894-1.414-5.187-2.925-5.185-3.325s1.005-1.095 2.208-1.69c1.704-.791 3.302-.384 6.993 1.634 2.593 1.412 4.786 2.922 4.784 3.322m-10.006 1.253c4.489 2.321 6.178 4.63 4.173 5.82-.903.596-8.187-2.839-10.078-4.748-1.195-1.205-.883-3.604.517-3.597.3.001 2.695 1.112 5.388 2.525m11.968 6.857c-.017 3.5.269 6.601.567 7.002.398.302 1.7-.092 3.004-.885 1.304-.894 2.806-1.287 3.404-.884 1.296.806 1.284 3.506-.026 5.5-.906 1.295-1.206 1.294-1.999-.21-.893-1.404-1.493-1.507-3.497-.616-3.307 1.484-4.003.58-3.675-5.218.22-4.399.023-5-1.777-5.008-1.1-.005-1.997-.61-1.993-1.41.006-1.3 3.62-4.383 5.321-4.475.4-.098.687 2.704.67 6.204m-20.19-2.396c2.296 1.111 4.188 2.72 4.184 3.52s-.307 1.499-.707 1.497c-1.6-.108-8.678-4.541-9.072-5.843-.492-1.702.807-1.496 5.596.826m10.488 2.75c5.086 2.924 6.28 4.33 4.574 5.422-2.006 1.29-2.905 1.086-2.897-.614.004-.8-1.687-2.608-3.68-4.017-4.288-2.82-2.685-3.413 2.003-.791m11.705-1.145c0 .3-.202.5-.502.498s-.499-.203-.497-.503c0-.3.202-.499.502-.497.3.001.499.202.497.502m-21.618 3.898c4.188 2.52 4.288 2.62 3.172 6.015-1.421 4.394-4.12 4.28-4.2-.12s-1.173-5.705-4.476-5.02c-3.103.585-3.7-.218-1.69-2.209 1.708-1.692 2.407-1.488 7.194 1.334m8.5-.06c.796.904.987 2.805.477 5.003-.514 2.897-.317 3.598.983 3.604.8.004 2.004-.89 2.61-1.987 1.512-2.793 2.51-2.489 2.695.912.189 2.301-.415 3.098-2.519 3.988-7.014 2.867-18.751 10.812-19.06 12.81-.516 3.198-2.213 2.69-2.198-.61.01-2 .916-3.295 3.524-4.983 1.905-1.191 3.81-2.182 4.31-2.18 2.1.01 4.919-3.977 4.53-6.278-.294-1.402.116-3.5.822-4.797.707-1.296 1.216-3.394 1.023-4.695-.289-2.501 1.113-2.895 2.803-.787m17.102-.42c-.005 1.1-3.911 2.483-4.708 1.779-.299-.302-.195-1.001.208-1.6.806-1.296 4.507-1.478 4.5-.178m-29.015 3.164c-.103.7-2.318 3.79-5.032 6.777-2.814 2.986-5.027 5.776-5.029 6.176-.002.5-.704.797-1.504.793s-1.496-.707-1.493-1.507c.005-.9-.594-1.203-1.495-.907-.802.396-1.5.093-1.498-.607.004-.7.805-.997 2.004-.69 1.498.406 3.304-.885 7.225-5.367 5.128-5.876 6.833-6.968 6.822-4.668m14.987 2.87c-.003.5-.505.999-1.105.996-.5-.003-.697-.504-.395-1.002.303-.599.805-.996 1.105-.995.2 0 .398.402.395 1.002m-14.016 3.335c-.003.7-1.61 1.992-3.614 2.883-3.808 1.782-3.805 1.082-.086-3 2.011-2.291 3.71-2.183 3.7.117m26.286 2.924c1.69 2.308 1.786 3.108.774 5.603-1.618 3.793-7.834 7.164-14.437 7.733-5.802.572-12.697-.66-12.89-2.161-.097-.6 3.916-3.282 8.829-5.959 4.913-2.777 10.027-5.753 11.432-6.746 3.01-2.086 3.809-1.882 6.292 1.53m-22.504.794c-.507 1.497-9.831 6.753-12.032 6.843-3.6-.017-1.687-2.808 3.525-5.283 5.613-2.774 9.116-3.357 8.507-1.56m27.183 3.828c-.03 6.5-10.158 12.152-21.557 12.098-5.7-.026-11.493-1.654-11.485-3.254.003-.6.703-.696 1.8-.191 3.293 1.615 16.493 1.677 20.2.095 6.112-2.471 8.525-5.16 8.546-9.66.017-3.5.118-3.8 1.21-2.294.696 1.003 1.29 2.406 1.286 3.206m-41.518 3.604c1.496 1.007 2.488 2.612 2.481 4.012-.006 1.3-.21 2.399-.41 2.398-1.8-.008-10.57-6.65-10.563-8.05.012-2.6 1.215-3.094 3.707-1.482 1.296.806 3.39 2.216 4.785 3.122m17.625 15.983c2.478 4.812 3.46 8.517 2.16 8.51-1.6-.007-6.48-4.43-7.766-7.236-2.278-4.61-2.067-7.01.731-6.597 1.5.208 3.091 1.915 4.875 5.323m11.819-3.944c-.015 3.1-2.254 11.49-3.257 12.085-1.103.695-.248-11.001.86-12.796.806-1.296 2.404-.889 2.397.711m3.005-1.086c-.001.3-.404.798-1.005 1.096-.502.297-1 .095-.998-.405.003-.6.505-1.098 1.005-1.095.6.002.999.204.998.404m-9.714 2.955c1.59 2.307 2.05 10.61.75 10.603-1-.005-5.947-11.328-5.342-12.325.907-1.396 3.103-.686 4.592 1.722m2.403-.69c-.401.299-.7-.002-.696-.702.003-.7.304-.999.703-.697a1.2 1.2 0 0 1-.007 1.4"/><path d="M758.921 1050.46c-1.516 3.394-.33 6.4 2.962 8.115 1.596.907 1.794 1.408.788 2.604-.905 1.095-1.506 1.193-2.6.187-1.296-1.006-1.497-.907-1.204.595.49 2.302 1.887 2.909 3.692 1.717 1.805-1.091 2.448-10.188.962-13.095-1.684-3.408-3.284-3.516-4.6-.122m3.686 3.018c.289 2.402-.015 3.2-1.013 2.895-.699-.303-1.391-1.906-1.583-3.707-.289-2.401.015-3.2 1.014-2.895.698.303 1.39 1.906 1.582 3.707M769.425 1049.81c-2.215 3.09-2.047 9.99.239 12.902 1.889 2.309 1.888 2.409 3.997.518 1.206-1.094 2.112-2.39 2.114-2.89.003-.6-.899-.204-1.903.691-2.912 2.587-4.106 1.181-4.077-4.919.027-5.8 1.537-7.893 3.723-4.982.993 1.504 1.293 1.506 1.299.406.007-1.6-1.882-3.91-3.082-3.915-.5-.002-1.505.993-2.31 2.19M749.729 1048.917c-1.005.996.226 15.602 1.326 15.607.8.004 1.11-2.195.934-7.196-.269-6.601-1.055-9.605-2.26-8.41M707.616 1051.52c-2.218 3.689-3.736 7.582-3.139 8.184.399.302 1.497.607 2.497.612 1.1.005 1.797.709 1.791 2.009-.005 1.1.39 2.001.89 2.004.7.003.467-13.998-.33-14.802-.1-.1-.903.796-1.71 1.992m1.178 4.705c-.006 1.2-2.012 2.49-2.709 1.787-.696-.703.613-2.697 1.813-2.692.5.003.898.405.896.905M725.793 1056.405c-.002.5 1.595 1.007 3.595 1.017 2.1.01 3.302-.385 2.905-.987-.297-.601-1.895-1.009-3.595-1.017-1.6-.007-2.902.387-2.905.987M120.002 1138.051c-7.622 4.664-14.24 8.433-14.74 8.43-.5-.002-.893-1.604-.884-3.504.012-2.5-.582-3.702-2.078-4.61-1.197-.605-2.497-.711-2.9-.213-.401.398-3.225 5.485-6.252 11.27-3.028 5.786-6.961 12.968-8.677 16.16l-3.226 5.585 4.288 2.52c6.681 4.031 18.354 9.787 19.654 9.793.9.004 1.007-1.496.624-4.997-.673-5.804-2.28-4.411 19.481-17.209l15.544-9.227-.253-9.901c-.075-5.5-.552-10.303-.95-10.705-.399-.301-1.796-.908-3.194-1.215-1.898-.409-5.707 1.373-16.437 7.823m18.402-.513c-.01 2.1.273 5.801.562 8.202.479 4.403.479 4.403-5.74 8.373-3.51 2.184-7.221 4.466-8.424 5.06-1.103.596-6.317 3.571-11.53 6.547-9.527 5.555-9.527 5.555-9.646 9.654-.011 2.3-.321 4.399-.723 4.697-1.105 1.095-15.666-7.074-15.658-8.774.004-1 1.721-4.592 3.837-7.982 2.217-3.49 5.443-9.174 7.26-12.566 3.631-6.683 5.033-7.176 5.007-1.676-.008 1.9.484 3.402.984 3.404.9.005 11.83-6.444 27.076-15.972 6.018-3.772 7.017-3.667 6.995 1.033"/><path d="M130.195 1139.399c-2.607 1.488-2.81 2.087-2.84 8.387-.036 7.9.662 8.303 6.283 3.73 3.413-2.785 3.817-3.583 3.534-7.184-.374-5.402-3.065-7.315-6.977-4.933m4.98 4.324c.288 2.5-3.037 7.885-4.937 7.876-1.4-.006-1.06-8.405.346-9.798 1.909-1.891 4.305-.98 4.591 1.922M123.875 1143.77c-.204.698-.613 2.596-.82 4.295-.414 2.799-.514 2.898-1.204.695-1.084-3.405-3.889-2.319-4.608 1.778-.615 3.097-.716 3.297-1.406 1.193-.394-1.201-1.19-2.205-1.69-2.207-.6-.003-.804.996-.51 2.197.294 1.302.982 3.905 1.373 5.807 1.276 5.106 3.678 4.617 4.103-.781.423-4.798 1.425-5.293 3.108-1.485 1.682 3.708 2.79 1.913 3.628-5.983.522-4.798.431-6.698-.369-6.702-.6-.003-1.402.593-1.605 1.192M107.026 1154.09c-2.608 1.688-3.714 2.983-3.319 3.984.296.902.582 3.803.57 6.503-.026 5.3 1.372 5.907 2.295 1.011.408-1.798 1.415-3.193 2.717-3.587 1.101-.295 2.006-1.29 2.01-2.09.007-1.7-.493-1.703-3.099-.415-3.308 1.784-2.289-2.311 1.12-4.295 1.705-.992 3.011-2.186 3.014-2.786.006-1.4-1.095-1.005-5.308 1.675"/></svg>