<svg xmlns="http://www.w3.org/2000/svg" viewBox="0 0 992 1402" fill="currentColor"><path d="M541.8 121.5c-.2.1-83.2.5-184.6.8-101.4.4-184.7.9-185.2 1.2-.6.4-.9 3.9-.8 7.8.2 7.2.2 7.2.5 1.2.2-3.3.7-6.3 1.1-6.6.4-.4 75.6-1 167.2-1.3s213.6-.9 271.3-1.2l104.7-.7v30.4c0 16.7.3 34 .5 38.4.5 7.5 1.2 40.6 3.5 159.5.5 26.1 1.2 85.6 1.6 132.2l.7 84.8h-86.4c-47.5 0-96.1.2-107.9.4-11.8.3-95.6.8-186.1 1.2-164.6.7-164.6.7-165.2-1.7-.4-1.4-.6-25.9-.7-54.4 0-44.1-.5-80.6-2.4-160-.1-7.2-.1 11.7.1 42 .5 96.9 1.4 172.9 2 174.9.5 1.8 4.1 1.9 157.7 1.2 269.2-1 388-1.7 389.5-2.2s1.3-45.2-.6-161.7l-.6-41.7h8.9c4.9 0 16-.3 24.6-.6l15.7-.6.3 5.3.3 5.4 41 .3c22.6.1 42 0 43.3-.3 2.1-.5 2.2-.9 2.2-12 0-11.2-.1-11.6-2.3-12.4-3.1-1.2-81.7-1.2-83.9 0-1.4.8-1.6 1.9-1.2 6.4l.6 5.5h-9.4c-5.2 0-16.2.3-24.5.6l-15 .7-.7-22.9c-1.5-48.7-2.6-102.2-3.1-158.9-.4-32.5-.9-59.6-1.1-60.3-.3-1.1-16.3-1.3-87.9-1.1-48.1.1-87.6.3-87.7.4m298 231.4 16.3.1-.3 10.2-.3 10.3h-82l-.3-10.2-.3-10.3 17.8-.2c9.8-.2 21.2-.2 25.3-.1s14.8.2 23.8.2"/><path d="M811.9 356.4c-1.5 3.2-.4 7.3 2.1 8.1 2 .6 2.6 2.5 1.3 3.8-.3.4-1.3.1-2.1-.5-1.2-1-1.4-.9-1.1.7.3 1.1 1.1 2.1 2 2.3 3.5.7 5.3-10.4 2.3-14.6-2-2.8-3.2-2.8-4.5.2m3.9 3.5c.3 2.4 0 3.2-1 2.9-.7-.3-1.4-1.9-1.6-3.7-.3-2.4 0-3.2 1-2.9.7.3 1.4 1.9 1.6 3.7M823.2 355.2c-2 2-1.5 7.6.8 8.8 1.1.6 2 2 2 3.2 0 1.7-.2 1.8-1.5.8-2.2-1.9-3.2-.3-1.1 1.8 1.6 1.6 1.8 1.6 3.2-.2 2.1-2.9 1.9-11.9-.4-13.9-1.4-1.3-2.1-1.4-3-.5m2.8 4.3c0 1.9-.4 3.5-.9 3.5-1.3 0-1.8-2-1.3-4.7.7-3.6 2.2-2.7 2.2 1.2M833.6 356.2c-2.9 4.2-1.6 13.8 2 13.8 2.1 0 3.1-3.7 2.6-9.2-.5-5.9-2.4-7.8-4.6-4.6m2.9 6.3c0 3-.5 5-1.2 5.2-1 .4-1.3-1.1-1.3-5.2s.3-5.6 1.3-5.3c.7.3 1.2 2.3 1.2 5.3M781.8 359.4c-3.4 5.9-3.4 6.4-.5 6.8 1.6.2 2.1.9 1.9 2.5-.2 1.3.1 2.3.6 2.3 1.4 0 1.9-3.8 1.2-10.5l-.5-6zm2.2 3c0 .8-.4 1.7-.9 2.1-1.2.7-2.4-1.2-1.6-2.5.9-1.5 2.5-1.2 2.5.4M792 363c0 6.7.3 8 1.6 8 1.1 0 1.4-.5 1-1.6-.3-.9-.6-4.5-.6-8 0-3.6-.4-6.4-1-6.4s-1 3.3-1 8M800 363c0 .5 1.6 1 3.6 1 2.1 0 3.3-.4 2.9-1-.3-.6-1.9-1-3.6-1-1.6 0-2.9.4-2.9 1M244.3 138.5c-15.4 4.3-26.3 15.3-26.3 26.4 0 2 .4 4.1.9 4.6.4.6 1.4 3.9 2.1 7.5 1.6 7.6 4.3 11.1 11.5 14.7 7 3.5 22.1 3.7 30.8.4 11.6-4.5 20.3-13.9 21.4-23.2l.6-4.9 25.6.2 25.6.3-.2 7c-.1 3.8-.2 14.5-.2 23.7L336 212h-43.8l-1.2-3.8c-2.2-6.6-7.2-10.4-17.3-13.2-8.4-2.3-23.7 2.3-30.5 9.1-8.7 8.6-9.4 18.7-1.7 25.9 1.5 1.4 3.3 3.9 4 5.6 2.6 6.4 13.4 11.3 21.6 10 12.8-2.1 23.9-12.4 22.6-21.1-.3-1.7.1-4.4.8-6.2 1.5-3.5 4.3-4.5 11.5-3.9 2.5.2 11.1.5 19.2.5l14.7.1.3 23.7c.2 13.1.1 24.4-.1 25-.2 1-4.2 1.3-15.6 1.3h-15.3l-1.1-4.4c-2.3-9.4-10.7-14.7-23.4-14.7-12.5 0-22.2 4.7-28.7 14.1-3.4 4.8-3.5 13.2-.2 17.8 9.5 13.3 36.3 11.7 48.6-2.8 1.4-1.8 2.9-4.2 3.2-5.6.6-2.4.6-2.4 17.3-2.6l16.6-.3.5-25.9.5-25.8 9-.2c12.4-.2 12.6-2 .3-2.4l-9.8-.3-.2-24.7-.3-24.7-26.6-.3-26.7-.2-1.7-7c-1.4-5.7-2.4-7.6-5.6-10.5-2.1-1.9-5.6-4.2-7.6-5.1-5.3-2.2-18.5-2.7-25-.9m26 3.5c8.7 4.1 12.5 11.1 10.4 19.5-2.2 8.2-8.6 14.2-20.5 18.7-7.2 2.9-23.9 3.2-28.5.7-2.9-1.6-2.9-1.6-.1-3.4 2.4-1.6 3.4-1.6 9.4-.6 5.2 1 7.7.9 11.6 0 9.1-2.2 15.7-6.7 18.8-12.6 3.6-7 1.2-13.3-7.3-18.9-6.3-4.3-6.5-4.4-11.3-5.4-3.6-.8-2.8-.9 4.2-.6 6.2.3 9.8 1 13.3 2.6m-27.1-.1c-2.8 1-6.2 2.7-7.3 3.7-2.8 2.5-7.7 13-8.1 17.3-.2 2.7-1 3.8-3.7 5.3-1.8 1-3.6 1.6-4 1.3-1.1-1.2-.3-10.2 1.3-13.2 3.6-7 17.6-16.1 25.1-16.2 1.1 0-.4.8-3.3 1.8m15.2 1.6c9.6 4 8.1 14.2-2.9 19.8-7.4 3.7-15.4 3.3-20.5-.9-2.4-2.1-3-3.3-3-6.6 0-9.7 15.4-16.9 26.4-12.3m11.9 10.8c2.1 4.3 1.3 8.3-2.5 12.8-6 6.9-23.9 10.7-30.7 6.5-1.2-.8-1.5-7.6-.3-7.6.4 0 2.4.5 4.5 1.1 10.2 2.8 24.7-5.7 24.7-14.5 0-3.7 2-3 4.3 1.7m-37.9 8.8c-.3.5-1.2.9-2 .9-1.4 0-2-3.1-.7-4.4.9-.9 3.4 2.4 2.7 3.5m51.5 3.6c.1.7-.3 1.3-.9 1.3-.5 0-1-1.5-.9-3.3 0-2.7.2-2.9.9-1.2.5 1.1.9 2.6.9 3.2m-49.1 2.2c.4 3.6-.9 5.6-4.8 7.6-2.5 1.3-2.8 1.2-5.3-2l-2.7-3.4 5.2-3.1c2.9-1.6 5.8-2.8 6.3-2.7.6.2 1.1 1.8 1.3 3.6m47.1 1.9c0 2.5-.1 2.5-1 .7-.7-1.5-.8-1.2-.4 1.5.4 2.8.2 3.1-.6 1.7-1.2-2-.2-8 1.2-7.1.5.3.9 1.7.8 3.2m-3.9 2.4c0 .7.3 2.4.6 3.8.5 2.5.5 2.5-1 0-1.8-2.9-2-5-.6-5 .6 0 1 .6 1 1.2m-53 3.7c.6 1.6 1 4.2.8 5.7-.4 2.9-.4 2.9-2.1-.8-1.8-4-2.2-7.8-.8-7.8.5 0 1.4 1.3 2.1 2.9m51.5 2.1c.5 2.5.4 3.2-.4 2.5-.6-.6-1.4-2.6-1.7-4.5-.5-2.4-.3-3.2.4-2.5.5.5 1.3 2.6 1.7 4.5m-2.1 2.2c.3 1.6.2 2.8-.3 2.8-1.2 0-2.1-2.6-2.1-5.8.1-3.1 1.3-1.5 2.4 3m-2.4 3.5c0 .7-.4 1.3-.9 1.3-1 0-2.1-3.6-2-6.5 0-1.6.4-1.3 1.4 1 .8 1.6 1.4 3.6 1.5 4.2m-3.5-1.1c.7 3.9-.1 5.7-1.5 3.4-1.2-1.9-1.3-7-.1-7 .5 0 1.2 1.6 1.6 3.6m-39.1.6c.6 2.8.2 4.8-.8 3.7-.8-1-1.5-6.9-.7-6.9.5 0 1.1 1.4 1.5 3.2m35.6.4c.9 2.5.9 3.9.1 4.7-1.1 1.1-3.1-2.8-3.1-6.4 0-3.1 1.8-2.2 3 1.7m-31.6 2.6c.3 1.6.2 2.8-.3 2.8-1.1 0-2.1-2.5-2.1-5.3 0-2.7 1.5-1.1 2.4 2.5m27.6-1.6c1.4 3.5 1.2 5.4-.4 5.4s-2.6-2.1-2.6-5.6c0-3.2 1.8-3.1 3 .2m-25-.7c0 .5.3 2.4.6 4.2.5 3.4.5 3.4-1 .9-1.8-2.9-2.1-6-.6-6 .6 0 1 .4 1 .9m4.5 4c.6 2.6.4 3.2-.6 2.9-.8-.3-1.5-2.2-1.7-4.4-.4-4.6 1.2-3.6 2.3 1.5m15.9-3.2c.2 1 .7 2.8 1.1 4 .5 1.9.2 2.3-1.4 2.3s-2.1-.6-2.1-2.4c0-1.4-.5-2.8-1-3.1-.6-.4-.8-1.1-.5-1.6 1-1.5 3.3-1 3.9.8m-11.9 2.9c.7 3.8.1 5.4-1.4 3.8-.8-.8-1.5-4.6-1.2-6.7s2-.2 2.6 2.9m3.6.5c.4 1.8.5 3.6.3 3.8-.8.9-2.2-1.4-2.9-4.8-.5-2.5-.4-3.2.6-2.9.8.3 1.7 2 2 3.9m4.2-.2c.4 1.8.6 3.6.2 3.9-.9.9-2.2-1.1-3-4.7-1-4.5 1.6-3.8 2.8.8m25.8 9.2c7.1 1.8 11.9 7.6 11.9 14.4 0 4.7-1.9 8.3-6.8 12.7-11.8 10.7-32 11.9-41.4 2.5-3.5-3.4-3.8-4.1-3.8-9.6 0-4.5.5-6.5 2.3-8.7 3.3-4.3 6.7-7.1 11.4-9.4 5.7-2.7 7.9-2.5 2.6.3-6.5 3.4-12.1 9.2-12.9 13.3-2 10.9 7.5 19.2 20.9 18.2 10.3-.9 19.5-6.6 23.2-14.5 2.1-4.3 1.4-8.4-2.1-13-3.4-4.4-8.2-6.3-16.8-6.4-5.8-.1-6.5-.3-3.6-.9 3.7-.8 9.2-.4 15.1 1.1m-1.4 3.1c3.1 1.3 7.3 4.7 7.3 5.9 0 .4-1.8-.1-4-1.2-2.7-1.3-6.1-1.9-11.3-1.9-6.2 0-8.3.5-13.6 3.1-5.7 2.9-11.1 8.1-11.1 10.7 0 .7-.4 1.2-1 1.2-1.6 0-1.2-3.8 1-7.9 1.9-3.9 6.6-7.5 12.5-9.8 4-1.5 16.7-1.6 20.2-.1m3.9 6.8c5.1 2.5 5.8 3.9 3.9 8.2-5.3 12.7-28.4 18.4-38.2 9.5-3-2.7-2.9-4.9.3-9.7 4-6.1 12.7-9.9 22.3-10 5.5 0 8.6.5 11.7 2m7.4 19.5c0 5.6-6.8 11.8-16 14.6-6.5 1.9-7.7 2-13.1.9-4-.9-7.1-2.3-9.6-4.5-4.3-3.8-3.8-5.5 1-3.7 9.8 3.5 25.9-.2 34.1-7.9 1.7-1.6 3.2-2.9 3.4-2.9.1 0 .2 1.6.2 3.5M274 249c-.8.5-2.2 1-3 1-2.9 0-11.8 6.4-14.4 10.3-3.2 5-3.3 8.7-.4 13.8 3.9 7.1 14.3 10.2 24.8 7.5 16.2-4.2 23.9-17 15.8-26.2-1.8-2-5.1-4.5-7.3-5.5-4.8-2.1-2.3-2.5 2.7-.5 12 5 14.3 16.7 5.2 25.8-6.4 6.4-14.2 9.3-25 9.2-11-.2-16.9-3-20.2-9.6-2.8-5.5-2.4-8.5 1.5-14.6 3.5-5.4 14.3-11.8 20.3-12.1 1.3-.1 1.3 0 0 .9m13.6 2.1c9.1 2.3 13.4 10.1 9.5 17.6-2 4-3.5 5.3-10.8 9.4-5.1 2.9-18.2 3.3-23 .6-5.6-3-7.3-5.6-7.3-10.9 0-3.9.6-5.4 3.1-8.3 6.8-7.8 18-11 28.5-8.4M171.1 143.6c0 1.1.3 1.4.6.6.3-.7.2-1.6-.1-1.9-.3-.4-.6.2-.5 1.3M172 152c0 .7.3 1 .7.7.3-.4.3-1 0-1.4-.4-.3-.7 0-.7.7M172 154.5c0 .3.2.5.5.5s.5-.2.5-.5-.2-.5-.5-.5-.5.2-.5.5M172 160c0 .7.3 1 .7.7.3-.4.3-1 0-1.4-.4-.3-.7 0-.7.7M172.2 165.5c0 1.6.2 2.2.5 1.2.2-.9.2-2.3 0-3-.3-.6-.5.1-.5 1.8M172 172c0 .7.3 1 .7.7.3-.4.3-1 0-1.4-.4-.3-.7 0-.7.7M172 176.5c0 .3.2.5.5.5s.5-.2.5-.5-.2-.5-.5-.5-.5.2-.5.5M171 193c0 .7.3 1 .7.7.3-.4.3-1 0-1.4-.4-.3-.7 0-.7.7M171.3 207c0 4.7.2 6.6.4 4.2.2-2.3.2-6.1 0-8.5-.2-2.3-.4-.4-.4 4.3"/><path d="m393.3 201.8-33.3.2v24l44.3-.2 44.2-.3.5-11.4c.3-7.1.1-11.5-.5-11.7-2.1-.6-23.5-.9-55.2-.6m53.2 11.7v10l-41.6.3-41.7.2-.3-3.7c-.2-2.1-.2-6.6-.1-10l.4-6.3 30.6-.2c16.9-.2 35.7-.3 41.7-.3h11z"/><path d="M381 206.5c-1.7 2-.5 3.2 1.5 1.5 1.3-1.1 1.5-.9 1.5 1.3 0 1.4-.6 2.8-1.2 3.1-.9.3-.8.8.5 1.6 1.8 1.2 2.3 4.5.8 5.5-.6.3-1.4-.3-2-1.2-.5-1-1.3-1.5-1.7-1-.4.4.1 1.6 1.2 2.8 1.9 2.1 1.9 2.1 3.5 0 1.2-1.5 1.5-3.3 1.1-7.3-.6-7.2-2.5-9.5-5.2-6.3M403 207c-1.4 2.7-.2 7.1 1.8 6.8 1.8-.3 2.7 2.4 1.7 5-.6 1.6-.7 1.6-2-.1-.9-1.2-1.5-1.5-2-.7-.4.6.1 1.8 1.1 2.5 1.7 1.3 2.1 1.2 3.7-.6.9-1.2 1.7-2.9 1.7-3.9 0-2-2.5-5-4.1-5-.5 0-.9-.7-.9-1.5s.9-1.5 2-1.5 2-.7 2-1.5c0-2.2-3.8-1.8-5 .5M413.4 206.3c-.3.9-.4 2.8-.2 4.4.2 2 .8 2.8 2.3 2.8s2 .7 2 2.5c0 2-.4 2.5-2.3 2.2-3-.3-2.4 2.2.6 2.6 1.6.2 2.5-.3 3.1-1.9 1.1-3.2.3-5.7-2.5-7.6-3-1.9-3-3.1-.1-3.5s2.9-2.2-.1-2.6c-1.3-.2-2.4.3-2.8 1.1M425.3 205.7c-.7.2-1.3 1.7-1.2 3.1 0 2.7 0 2.7 1.1.4.6-1.2 1.5-2.2 2-2.2 1.3 0 1 3.8-.6 6.8-.7 1.5-1.7 3.7-2 4.9-.7 2-.4 2.3 2.3 2.3 2.5 0 3.1-.4 3.1-2.1s-.3-1.9-1.3-1c-2.3 1.9-2.7.1-.6-3.2 2.2-3.7 2.4-6.8.7-8.5-1.3-1.3-1.6-1.3-3.5-.5M435.2 206.2c-1.9 1.9-1.4 4.4 1.3 6.9 1.3 1.3 2.5 3.2 2.5 4.1 0 2-2.6 2.4-3.3.5-.2-.6-.8-.9-1.2-.5-1.4 1.3.4 3.8 2.9 3.8 4.2 0 4.9-4.9 1.1-8.2-1.4-1.2-2.5-3-2.5-4 0-2.1 1.1-2.3 2.8-.6 1.5 1.5 2.6.4 1.9-1.7-.7-1.8-3.8-2-5.5-.3M371.1 210.9c-2.4 4.9-2.1 7.7.6 6.7 1-.4 1.3 0 1.1 1.6-.2 1.1.3 2.3 1 2.5 1.3.5 1.5-1.5 1.2-9.7-.2-6.4-1.3-6.7-3.9-1.1m1.5 3.8c-1 1-1.9-.5-1-1.8.6-1.1.8-1.1 1.2 0 .2.7.1 1.5-.2 1.8M392.2 212.8c-2.5.8-1 2.3 2.1 2 1.7-.2 3-.7 2.7-1.3-.5-1-2.9-1.4-4.8-.7M171.1 218.6c0 1.1.3 1.4.6.6.3-.7.2-1.6-.1-1.9-.3-.4-.6.2-.5 1.3M171.1 236.6c0 1.1.3 1.4.6.6.3-.7.2-1.6-.1-1.9-.3-.4-.6.2-.5 1.3M171.3 247c0 3 .2 4.3.4 2.7.2-1.5.2-3.9 0-5.5-.2-1.5-.4-.2-.4 2.8M171.3 258.5c0 2.7.2 3.8.4 2.2.2-1.5.2-3.7 0-5-.2-1.2-.4 0-.4 2.8M171.5 264.9c-.3.5-.1 1.2.5 1.6.5.3 1-.1 1-.9 0-1.8-.6-2.1-1.5-.7M172.4 287.5c0 10.4.2 14.6.3 9.2.2-5.4.2-13.9 0-19-.1-5.1-.3-.7-.3 9.8M651.1 284.9c-2.7 2.5-3.1 3.6-3.1 8 0 6 2.6 12.1 7.7 18 6.6 7.8 13.3 9.3 18.5 4 2.9-2.8 3-3.3 2.5-8.9-.3-3.7-1.5-7.7-3.3-11-3-5.6-7.9-10.4-9.6-9.4-.5.3-1.6-.3-2.4-1.5-2.2-3-6.5-2.7-10.3.8m7.3.7c1.8.7 2.2 5.4.5 5.4-.6 0-.8-.8-.4-1.9 1-3.3-1.2-3.3-3.9 0-3 3.6-3.4 5.6-2 11.7.2 1.3.9 2 1.4 1.7.6-.3.7.1.4 1-.8 2.1 3.1 6.3 7.4 8.2 3 1.2 3.7 1.2 5.8-.2 3.5-2.2 3.4-9.8-.2-15-1.8-2.7-2.2-4.1-1.5-4.8 2.4-2.4 8.1 9.2 8.1 16-.1 6-1.7 8.3-5.9 8.3-9 0-18.1-11.3-18.1-22.4 0-7.3 2.9-10.1 8.4-8m5.6 3.3c0 .6-.4 1.3-1 1.6-.5.3-1-.1-1-.9 0-.9.5-1.6 1-1.6.6 0 1 .4 1 .9m-2.4 5.3c3.4 1.7 4.7 3.1 6 6.4 3.2 8.3-.3 12-6.5 6.9-3.1-2.6-7.3-11.9-6.4-14.2.7-1.8 1.9-1.6 6.9.9M284.5 287.6c-10.8 2.7-20.4 10.4-22.4 18.1-1.4 5.1-.9 7.5 8.5 41.3 1.4 5.2 2.8 11.1 3.1 13 .2 1.9.8 4.4 1.4 5.5.5 1.1 1.6 4 2.4 6.5.9 2.4 2.3 5.2 3.2 6.2 1.3 1.5 1.6 3.7 1.5 11.1-.2 9.6.4 11.3 4.5 13.5 2.9 1.6 9.5 1.5 11.7-.1 1.1-.8 1.9-3.2 2.3-7 .3-3.1.6-5.7.7-5.7s1.9.9 4.1 2c7.8 4 18.5 1.2 18.5-4.9 0-1.1 1.8-3.6 3.9-5.6 5.5-5.1 6.7-8.4 5.3-14.7-.7-2.7-1.2-6.2-1.2-7.7s-.5-3.2-1.1-3.8c-1.4-1.4-6.1-17.8-6.3-21.9-.1-1.7-.6-3.7-1.2-4.5-.7-.8-1.5-3-1.9-4.9s-1.3-5.3-2-7.5-1.8-7.3-2.5-11.3c-1.3-8.1-4.3-12.6-10.3-15.8-3.2-1.7-17.9-2.8-22.2-1.8m18.8 2.4c2.2.6 5.5 2.6 7.4 4.4 3 2.7 3.6 4.1 4 8.3.4 4.1.1 5.9-1.6 8.7-5.4 8.6-15.7 13.8-27.6 13.9-8.9 0-14.3-1.5-18.6-5.3-3.3-2.8-3.4-3.2-3.4-10 0-7.1 0-7.1 4.5-11.4 4.6-4.4 8.8-7.1 9.7-6.3.2.3-.5.8-1.6 1.2-1.1.3-3.8 2.6-6 5.1-9.1 10.4-4.8 21.3 9.7 24.4 8.5 1.9 18.9-1.2 25.5-7.5 11.2-10.6 5.7-23.3-11.5-26.5l-5.3-.9 5.5.4c3 .2 7.2.9 9.3 1.5m-20.3.4c0 .2-.9.6-2 .9s-1.8.1-1.4-.4c.5-.9 3.4-1.3 3.4-.5m16.5 1.7c5.3 1.5 10.5 7 10.5 11.2 0 3-2.6 8.5-5.4 11.2-3 3-14.3 7.5-18.9 7.5-5.7 0-13.5-3-16.3-6.3-5.4-6.4-1.3-16.6 8.5-21.3 7.1-3.4 14.7-4.2 21.6-2.3m16 21.9c-1.6 5-11.4 12.6-19.1 14.8-5.4 1.6-17 1.5-21.4-.2-7.4-2.8-7.7-2.8-5.1-.9 8.9 6.5 25.9 5.6 37.2-2 1.9-1.2 4.7-4.1 6.4-6.4 1.6-2.3 3.2-4.2 3.5-4.2.6-.1 3.7 10.1 4.7 14.9.6 3.2-4.1 8.2-10.7 11.2-6.3 2.9-21.4 3.6-29.2 1.4-7.6-2.3-13.7-6.8-14-10.4-.1-1.5-.2-3.6-.3-4.7s-.5-2.6-.9-3.3c-1.4-2.3-.1-2.2 4.8.3 6.3 3.2 12.8 4.1 19.7 2.6 8.3-1.7 15.1-5.4 20-10.9 4.7-5.3 5.5-5.7 4.4-2.2m9.8 29c.8 3 2.2 7.6 3 10.1 1.6 5.2 1.1 6.8-3.2 10.7-6.2 5.7-18.8 8.6-30.2 7-5.8-.8-15.9-4.9-17.9-7.3-1-1.2-6.2-20.6-5.7-21.2.2-.1 2.7.9 5.5 2.3 14.2 7 34.7 4.7 42.8-4.9 1.6-1.9 3.2-3.1 3.6-2.8.3.3 1.3 3.1 2.1 6.1m-10.8-1c-.3.5-1.2 1-1.8 1-.7 0-.6-.4.3-1 1.9-1.2 2.3-1.2 1.5 0m-5.5 2.5c0 .3-.2.5-.5.5s-.5-.2-.5-.5.2-.5.5-.5.5.2.5.5m-2.3 1.2c-.4.3-1 .3-1.4 0-.3-.4 0-.7.7-.7s1 .3.7.7m-5 1c-.4.3-1 .3-1.4 0-.3-.4 0-.7.7-.7s1 .3.7.7m29.7 18.9c1.3 3.3.6 9.2-1.4 11.7-1.1 1.4-4.6 3.8-7.8 5.4-5.1 2.5-6.8 2.8-15.7 2.8-12 0-17.3-1.4-22.4-6.1-3.6-3.2-7-8.9-5.9-9.9.3-.3 3.6.9 7.4 2.7 6.4 3 7.7 3.3 16.9 3.3 8.7 0 10.7-.3 15.5-2.6 3.1-1.4 6.9-4 8.5-5.7 3.5-3.6 4.1-3.8 4.9-1.6m-12.4 4.9c0 .3-.2.5-.5.5s-.5-.2-.5-.5.2-.5.5-.5.5.2.5.5m-5 2c0 .3-.2.5-.5.5s-.5-.2-.5-.5.2-.5.5-.5.5.2.5.5m-5.3 1.2c-.4.3-1 .3-1.4 0-.3-.4 0-.7.7-.7s1 .3.7.7M295.9 387c4.3 1.1 4.3 1.1 3.9 6.5-.3 3-1 6.1-1.7 6.9-1.6 1.9-7.9 2.1-11.6.4-2.4-1.1-2.5-1.5-2.5-10V382l3.8 1.9c2 1 5.7 2.4 8.1 3.1m27.1-1.3c0 .3-.7 1.5-1.7 2.5-1.2 1.3-3.1 1.8-7.4 1.8-5.7 0-9.6-1.9-4.2-2.1 1.5 0 4.8-.6 7.3-1.3 5.7-1.7 6-1.7 6-.9M629.5 300.1c-1.6 1-3.8 1.9-4.8 1.9-.9 0-2.5.4-3.5.8-.9.5-3 1.5-4.7 2.3-2 1-3.9 3.3-5.6 6.9-1.7 3.5-3.8 6.2-5.8 7.3-1.7 1-3.1 2.4-3.1 3 0 .7-3.3 3-7.3 5.3-3.9 2.2-11.2 6.4-16 9.2-8.9 5.2-11 5.9-13.6 4.3-1.7-1.1-5.6.4-8.8 3.3-7.7 6.7 1.8 27.6 12.7 27.6 5.1 0 11-6.5 11-12.1 0-2 2-3.4 18-12.8 8.8-5.1 11-6 13.7-5.5 2.3.4 4 .1 6-1.4 2.5-1.7 3.5-1.8 9-.9 6.2 1 6.2 1 12.4-4.7 3.4-3.1 6.8-5.6 7.4-5.6.7 0 2.2-.9 3.5-2 4.4-3.8 2.4-15.1-4.1-22.5-5.8-6.6-10.9-7.9-16.4-4.4m10.3 1.3c8.2 4.4 14 20.3 8.7 24.2-1.9 1.4-2 1.3-2.6-3.3-1-7.9-5-15-10.5-18.4-5.5-3.3-1.5-5.6 4.4-2.5m-7 6c2.6 2.9 2.9 3.8 2.2 6.3-.4 1.5-.9 2.3-.9 1.6-.1-1.4-8-9.3-9.3-9.3-.4 0-.8-.5-.8-1 0-.6 1.3-1 2.8-1 2 0 3.8 1.1 6 3.4M620 307c0 .5.6.7 1.4.4 2.1-.8 11 7.1 10 8.8-.3.5.2.8 1.1.8 1.1 0 1.5.7 1.3 2.2-.4 2.9-2.8 3.6-2.8.9 0-1.2-.7-2.4-1.6-2.8-1.1-.4-1.2-.8-.4-1.3.7-.4.9-1.3.5-2-.6-.9-.9-.9-1.5.1-.6.9-1.6.6-4-1.4q-3.15-2.7-6.6-2.7c-3.7 0-4.4-1.3-1.6-2.9 2.2-1.3 4.2-1.4 4.2-.1m22 7.4c1.2 2.4 2 5.2 1.8 6.2-.2 1.3-1 .2-2.2-3.1-1.1-2.7-3-6.1-4.3-7.5-1.3-1.3-2.3-2.9-2.3-3.4 0-1.8 4.8 3.5 7 7.8m-22.9-.2c5.4 3 9.2 9.1 9.7 15.7.3 3.8.1 5.6-.9 6.2-3 1.9-3.7.9-1.9-2.6 2.4-4.7 1-9.5-4.7-15.4-3.8-3.9-4.6-4.3-7.5-3.8-3.1.6-3.2.6-1.4-.8 2.5-1.9 2.1-1.9 6.7.7m19.5 2.5c-.3.7.1 1.3.8 1.3 2.5 0 3.6 11.4 1.2 12.3-1 .4-1.2-.3-1-2.4.2-1.6-.1-2.9-.7-2.9-.7 0-.9-1-.5-2.6s.3-2.3-.3-2c-.6.4-1.5-.2-2-1.3-1.3-2.4-1.4-3.4-.2-2.7.4.3.6-.7.4-2.2-.4-2.6-.4-2.6 1.2-.7.8 1.1 1.3 2.5 1.1 3.2m-14.6-2.2c0 .3-.2.5-.5.5s-.5-.2-.5-.5.2-.5.5-.5.5.2.5.5m-4.8 3.5c5.2 4.1 7.5 13.2 4.1 16.2-3.3 2.8-10.1 6.1-11.6 5.5-.7-.3-1.4-1.9-1.5-3.5-.1-3.7-1.7-7-4.9-9.7-1.2-1.1-2.3-2.4-2.3-2.8 0-1.1 10.3-7.6 12.1-7.6.9-.1 2.8.8 4.1 1.9m11.7 6.9c.5 1.9.8 3.7.6 3.9-.3.3-.7-.4-1-1.4-.4-1-1.4-3.5-2.3-5.4-2.5-5.3-2.5-5.7-.4-3.1 1.1 1.4 2.5 4 3.1 6m5.7 3.4c.5 4.8.3 5.7-1 5.7-.9 0-1.6.7-1.6 1.5s-.2 1.5-.4 1.5-1.2.3-2 .6c-1.4.6-1.4.2.1-2.5 1-1.7 2.4-3.1 3.1-3.1.6 0 1.2-.5 1.2-1.1 0-.5-.4-.8-.9-.5s-1.2-.5-1.5-1.8-.9-3.1-1.2-3.9c-.3-1 .1-1.7 1.3-1.9 1-.3 1.9-.4 2.1-.3.1.1.5 2.7.8 5.8m-30.9.9c5 5.5 4.1 9.5-2.7 12.9-2.7 1.3-5 2.7-5 3.1 0 .5-.4.8-.8.8-.5 0-4.7 2.2-9.3 5-8.8 5.3-9.9 5.7-9.9 3.9 0-.6-1.3-3.1-3-5.6-3.4-5-3.7-6.8-1.2-7.7 1.9-.6 5.4-2.6 12.7-7.3 12.5-7.9 15.8-8.7 19.2-5.1m-34.3 18.1c5.1 5.7 7.6 12.9 6 17.1-1 2.6-2 1.8-2.1-1.7-.1-5.1-3.7-11.9-8.4-16.2-4.1-3.7-4.2-3.8-1.3-3.1 1.6.4 4.2 2.1 5.8 3.9m-9.7-.3c-.6 2.4 1.6 5.9 2.7 4.1.4-.7.5-1.8.2-2.6-1-2.7 1.2-1.6 3.8 1.8 7.3 9.5 7.4 19.6.2 19.7-8.1.1-17.4-18.1-12-23.4 2.3-2.4 5.8-2.1 5.1.4"/><path d="M628 306.5c0 .3.2.5.5.5s.5-.2.5-.5-.2-.5-.5-.5-.5.2-.5.5M639.3 323.7c.4.3 1 .3 1.4 0 .3-.4 0-.7-.7-.7s-1 .3-.7.7M556.4 351.6c.3.9.6 1.8.6 2s.7.4 1.5.4 1.5-.9 1.5-2c0-1.4-.7-2-2.1-2-1.5 0-1.9.4-1.5 1.6M566.5 354c-.7 1.2 1.2 4 2.7 4 1.3 0 .6-4.3-.9-4.7-.6-.2-1.4.1-1.8.7M558.7 357.6c-.8.9 1.1 4.4 2.4 4.4.6 0 .9-1 .7-2.2-.3-2.2-1.9-3.4-3.1-2.2M568 361.4c0 .7.7 1.9 1.5 2.6 1.2 1 1.6.9 2.1-.3.3-.9.3-2.1-.1-2.7-.9-1.5-3.5-1.2-3.5.4M564.2 365.2c.2 1.2.9 2.3 1.5 2.6 1.9.6 2.9-2.8 1.2-3.9-2.3-1.4-3.1-1-2.7 1.3M172.1 309.6c0 1.1.3 1.4.6.6.3-.7.2-1.6-.1-1.9-.3-.4-.6.2-.5 1.3M172 314.4c0 .9.5 1.6 1 1.6.6 0 1-.4 1-.9 0-.6-.4-1.3-1-1.6-.5-.3-1 .1-1 .9M172 325.9c0 4.7.4 8.1 1 8.1s1-3.1 1-7.4c0-4.1-.4-7.8-1-8.1-.6-.4-1 2.3-1 7.4M394 342v12l17.3.1c51.3.2 70.8.2 71.2-.3.2-.2.2-5.7-.2-12.1l-.6-11.7H394zm86-.1c0 8.5-.2 10-1.7 10.3-.9.2-19.6.2-41.5 0L397 352v-20h83z"/><path d="M467.9 333.3c0 .1-.1 3.9-.2 8.5-.2 7.8-.1 8.2 1.9 8.2 1.2 0 2.6-.6 3.2-1.3 1.1-1.3 1-11.7-.2-13.5-.5-.8-4.4-2.4-4.7-1.9m4.1 4.8c0 1-.7 1.9-1.5 1.9-1.5 0-2.1-3.1-.9-4.3 1.1-1 2.4.3 2.4 2.4m0 7.5c0 2.6-1.7 3.3-2.6.9-.8-2 .3-4.8 1.6-4 .5.3 1 1.7 1 3.1M405.1 338.5c-2.4 4.8-2.2 7.5.4 7.5 1.2 0 1.5.6 1 2-.5 1.5-.2 2 1 2s1.6-.6 1.2-2c-.3-1.1-.1-2.3.4-2.6.6-.3.6-1.1-.1-1.9s-1-3-.9-4.9c.5-5.1-.5-5.2-3-.1m1 4.8c-.8.8-1.1.7-1.1-.4 0-2 1.3-3.4 1.8-1.9.3.7-.1 1.7-.7 2.3M414.4 335.3c-1.4 3.8.4 7.8 4.4 9.3.1.1 0 .9-.4 1.8-.5 1.3-.9 1.4-2 .5-2.1-1.7-3.1-.1-1.1 1.8 1.3 1.4 1.9 1.4 3.2.3 1.2-1 1.5-2.8 1.3-7.9-.3-6-.5-6.6-2.6-6.9-1.3-.2-2.4.3-2.8 1.1m3.7.4c.5 3.3.2 5.7-.8 6-1.4.5-2.8-4-1.8-5.6.7-1.3 2.4-1.5 2.6-.4M435.6 335.5c-.3.9-.6 3.7-.6 6.1 0 7.7 3.4 11.1 5.8 5.9 1.5-3.2.1-7-2.8-7.8-2.8-.7-2-3.3.9-2.9 1.5.1 2.1-.3 1.9-1-.7-2-4.5-2.1-5.2-.3m4.4 8.9c0 2.9-1.9 4.4-3.1 2.5-1.6-2.5-1-4.9 1.1-4.9 1.5 0 2 .7 2 2.4M446.5 335c-1 1.7-1.3 11.4-.3 13.2.5 1 1.8 1.8 2.9 1.8 3.3 0 4.2-4.9 2.3-13.8-.5-2.3-3.7-3.1-4.9-1.2m3.5 3.1c0 2-1.5 2.6-2.4 1-.8-1.3.4-4.2 1.5-3.5.5.3.9 1.4.9 2.5m.4 5.4c.7 1.8-.2 4.5-1.5 4.5s-2.2-2.7-1.5-4.5c.3-.8 1-1.5 1.5-1.5s1.1.7 1.5 1.5M457 335.9c-2.2 4.2-.5 14.1 2.4 14.1 4 0 4.4-9.3.5-10.3-1-.3-1.9-1.2-1.9-2.1 0-1.9 1.1-2.1 2.8-.4.9.9 1.2.7 1.2-1 0-2.8-3.5-3-5-.3m3.8 8.6c-.2 1.4-.7 2.6-1.3 2.6-.5 0-1.1-1.2-1.3-2.6-.2-1.8.1-2.5 1.3-2.5s1.5.7 1.3 2.5M424 342c0 .5 1.6 1 3.5 1s3.5-.5 3.5-1c0-.6-1.6-1-3.5-1s-3.5.4-3.5 1M365.3 342.7c-.7.2-1.3 1.1-1.3 1.9s-.4 1.4-1 1.4c-.5 0-1 .4-1 .9s-2.1 4.6-4.6 9.2c-5.3 9.5-24.2 44.2-26.2 47.9-.7 1.4-2.1 3.6-3.1 4.8-1.6 2.2-2 2.3-6 1.2-7.7-2.1-19.2 1.5-22.1 6.9-1.3 2.6-1.3 7.7.2 10.4.6 1.2 1.3 4.2 1.3 6.6.2 5.2 2.6 7.4 9.9 9.2 3.8.9 6.1.9 10.3-.1 7-1.5 10.3-4.3 10.3-8.6 0-1.7.7-4.8 1.6-6.9 1.8-4.5 1.1-10.9-1.5-12.8-3.5-2.5-3.3-3.7 2.2-13.5 3-5.3 7.1-12.9 9.2-16.7 4.3-7.9 12.5-22.7 16.3-29.5 1.4-2.5 3.2-5.7 3.9-7.3 1.3-2.4 2-2.7 7.1-2.8 3.1-.1 6.4-.3 7.2-.4s4.3-.3 7.8-.4c3.4 0 6.2-.6 6.2-1.1 0-1-24.3-1.3-26.7-.3M321 412c1 0 2.6.7 3.4 1.6.9.8 1.6 1.1 1.6.5 0-1.9 2-1.2 4.5 1.5 4.1 4.4 3.2 7.4-3.5 11.3-2.9 1.6-15.3 1.7-19.5.1-3.2-1.2-7.5-4.8-7.5-6.2 0-1.9 4.5-6.8 6.2-6.8 1 0 1.8-.4 1.8-.9 0-1 7.3-2 9.8-1.4.8.2 2.2.3 3.2.3m-15.8 16c1.8 1.1 4.1 2 5.1 2 .9 0 1.7.5 1.7 1.1 0 2.5-10.9-1.8-11-4.4 0-1.1.6-.9 4.2 1.3m24.7 2.1c-.9.5-1.5.4-1.8-.2-.2-.6.3-1.5 1-2 .9-.5 1.5-.4 1.8.2.2.6-.3 1.5-1 2m-3.9.9c0 .8-5.9 2-9.7 2-1.3 0-2.3-.5-2.3-1.1s.9-.9 1.9-.6c1 .2 2.5.1 3.2-.4 1.6-.9 6.9-.9 6.9.1m-19.3 2.2c.4.7 1.9 1.4 3.3 1.4 1.4.1 3.9.3 5.5.4 4.4.4 12.9-1.1 13.7-2.4.4-.6.8.1.8 1.5 0 3.1-2.1 5.2-4.4 4.3-1-.4-1.6-.1-1.6.9 0 .8-.7 1.8-1.6 2.1-2.6 1-5.4.7-5.4-.7 0-.8-.4-.7-1 .3-.8 1.2-1.3 1.3-3 .2-1.1-.6-3.1-1.2-4.5-1.2-1.6 0-2.5-.6-2.5-1.5 0-.8-.7-1.5-1.5-1.5-1.6 0-1.9-.9-.9-3.4.7-1.9 2-2.1 3.1-.4"/><path d="M309.3 417.6c-1.1 2.3-.9 2.9 1.3 5.1s3.1 2.4 6.7 1.9c2.3-.4 4.9-1.5 5.7-2.5.9-1 2.2-2 3-2.3 2.9-.9-5.6-4.8-10.6-4.8-4.3 0-5.1.3-6.1 2.6m12.7.9c1.7 2.1.4 3.3-4 3.5-4.4.3-8-.8-8-2.5s1.6-2.3 6.6-2.4c2.6-.1 4.6.5 5.4 1.4"/><path d="M319 418.5c0 .3.2.5.5.5s.5-.2.5-.5-.2-.5-.5-.5-.5.2-.5.5M330 419.5c0 .3.2.5.5.5s.5-.2.5-.5-.2-.5-.5-.5-.5.2-.5.5M302 421c0 .7.3 1 .7.7.3-.4.3-1 0-1.4-.4-.3-.7 0-.7.7M314 438.5c0 .3.2.5.5.5s.5-.2.5-.5-.2-.5-.5-.5-.5.2-.5.5M529 357.7c-1.9 2.4-2.1 3.7-1.7 8.9.5 6.4 1.4 8.6 6.4 15 3.9 5 9.3 7.8 13.2 6.9 8.4-1.8 6.8-18.3-2.6-28-6-6.2-11.8-7.2-15.3-2.8m8.6.3c2.1 0 8.1 6.5 10.8 11.5 3 5.7 3.5 12.5 1 14.9-5.3 5.3-16.5-3-20.3-15.1-2.2-6.6.7-13.1 5.3-11.9 1.2.3 2.6.6 3.2.6M509.5 371.7c-7.8 1-11.8 3.7-13 9.2-1.1 5.3 2.7 15.4 7.8 20.5s10 5.9 14.9 2.4c4.1-2.9 8.8-10.5 8.8-14.2-.1-7.1-9-18.9-13.9-18.5-.9.1-2.9.4-4.6.6m3.9 5.4c1.9 1.7 4.4 4.5 5.5 6.3 2.4 3.9 4.2 11.4 3.4 14.4-.9 3.6-2 2.5-2.1-2.2-.2-5.9-3.5-12.7-8.3-17.1-2.1-1.9-3.9-3.7-3.9-4 0-1.3 2.2-.2 5.4 2.6m6.3-.9c4 4.4 6.3 9.3 6.3 13.5 0 2.4-.4 4.3-1 4.3-.5 0-1-.9-1-2 0-3.3-4.1-11-7.7-14.6-3.3-3.3-3.3-3.4-1-3.4 1.3 0 3.3 1 4.4 2.2m-12.5.9c8.1 4.3 14.2 18.7 10.4 24.4-1.9 2.9-6.1 3.4-9.2 1-1.8-1.5-1.8-1.5.9-.9 9.3 2.1 8.7-14.8-.8-20.6-5-3.1-8-1.7-9.3 4.2l-1 4.3-.1-4.9c-.2-7.4 3.6-10.5 9.1-7.5m-.3 9.4c.7 2.4 2.6 5.8 4.3 7.5 2.4 2.5 2.7 3.4 1.7 4.6-.6.8-1.7 1.4-2.5 1.4-2.4 0-8.3-6.8-8.9-10.4-1.6-8 3.1-10.8 5.4-3.1m7.4 5.1c.3 1.6 0 2.3-.7 2.1-1.8-.6-5.6-6.8-5.6-9.1.1-1.9.4-1.7 2.9 1.2 1.6 1.9 3.1 4.5 3.4 5.8M475.5 394.7c-1.6.3-3.4 1.1-3.8 1.9s-1.6 1.4-2.6 1.4-2.6.9-3.6 2c-2.1 2.3-1.6 2.5 1.8.9 2-.9 3-.8 5.1.6 6.7 4.4 10.2 17.6 4.9 18.3-1.7.3-2.4-.3-2.9-2.5-1.7-7.1-5.6-12.3-10.7-14.2-2.4-1-3.1-.8-5.1 1.4-1.3 1.4-3.2 2.5-4.3 2.5s-2.6.7-3.3 1.5c-1 1.2-.6 1.3 2.5.8 4.2-.7 7.4 1.7 10.6 7.9 3 5.8 2.5 9.6-1.6 11.3-2 .8-2 .8 0 1.3 1.1.2 2.6-.4 3.6-1.7 1-1.1 2.7-2.1 3.8-2.1s2.6-.9 3.3-2 2.3-2 3.5-2c2.6 0 5.3-3.5 5.3-6.7 0-3.6-3.9-11-7.2-13.8-4.7-4-1.5-6.2 4.2-2.8 5.9 3.5 9.3 14.9 5.3 17.9-1 .7-1.5 1.5-1.2 1.9.8.7 7.3-5.4 8.1-7.6 1.2-3.1-1.4-9.9-4.9-13.4-3.4-3.4-4.4-3.7-10.8-2.8m9.2 3.5c2.9 3.2 5.3 8.3 5.3 11.3 0 3.8-1.4 3-2.8-1.8-.7-2.3-2.7-5.9-4.3-8-3.3-4.1-1.7-5.3 1.8-1.5M468.1 409c5.8 6.1 6.6 15 1.3 15-1.7 0-2.4-.5-2.4-2 0-3.5-2.8-9-6.2-12.2-2.6-2.4-2.9-3.1-1.7-3.9 2.7-1.7 5.2-.9 9 3.1"/><path d="M443.9 412.6c-1.1 1.3-.9 1.4 1.4.9 5.7-1.5 12.7 6.4 12.7 14.3 0 3.2-.4 4.2-2 4.7-1.1.3-2 1.1-2 1.6 0 1.3 1.2 1.1 3.8-.7 4.6-3.2 1.2-15.3-5.7-20-4.1-2.8-6.3-3-8.2-.8"/><path d="M436.7 416.7c-1.4 1.3-.6 1.9 2.1 1.5 7.5-1.1 15.8 15.1 9.8 19-1.9 1.3-2.2.9-3.6-3.5-1.8-5.4-5.4-11.3-7.9-12.7-2.8-1.5-6.7-1.2-8.1.5-.7.9-1.9 1.4-2.7 1.1-.7-.3-2.2.3-3.3 1.4s-2.7 2-3.5 2-2.4.9-3.5 2-2.6 2-3.2 2c-3.2.1-5.3 3.1-5.3 7.4 0 5 1.7 8.8 5.9 13.3 3.6 4 8.8 4.6 10.6 1.3.6-1.2 2.1-2 3.5-2s2.5-.4 2.5-.9 1.7-1.8 3.8-2.8c2.8-1.4 3.8-2.5 4-4.7.6-5.2-.8-9.6-4.4-13.5-4.1-4.7-4.3-6.1-.6-6.1 3.9 0 8.8 5.3 10.4 11.4 1.3 4.8 1.3 4.8-1.7 7.2-2.2 1.8-2.6 2.4-1.3 2.4 1 0 2.5-.9 3.5-1.9 1-1.1 2.3-1.7 3-1.3.7.5 1.3 14.2 1.8 43.9l.7 43.3-20.8.2-20.9.3v24h87v-24l-21.8-.2-21.8-.2-.4-10.3c-.1-5.7-.4-25.4-.5-43.9-.1-25.8.1-34.2 1.1-36 2.2-4.1.4-11.1-4.3-17-2.6-3.1-8.4-5-10.1-3.2m-6.3 10.4c5.1 4 8.1 13.3 5.1 16.2-2.2 2.2-3.5 2.1-3.5-.2 0-3-2.8-8.8-6.1-12.5-4.6-5.3-1.2-8 4.5-3.5m-6.8 3.6c4.5 4.1 6.4 7.6 6.4 11.9 0 3.2-.5 4.6-1.9 5.3-2.1 1.2-3.1.5-3.1-2.2 0-2.8-2.8-8.2-6.1-11.7-1.6-1.7-2.7-3.5-2.4-4 1-1.6 5-1.1 7.1.7m-6.4 4.3c4.2 3.5 7.4 10.6 6.4 14.5-.5 1.9-1.3 2.5-3.5 2.5-6.3 0-13.5-11.7-10.9-17.6 1.5-3.2 3.6-3 8 .6M492 540v10h-82v-20h82z"/><path d="M414 435.3c0 2.3 2.6 8 4.9 10.6 3.4 3.9 3.6 1.5.2-2.6-1.7-2.1-3.1-4.8-3.1-6s-.4-2.5-1-2.8c-.5-.3-1 0-1 .8M429 531c-.1.3-.2 4.2-.3 8.8-.1 5.4.2 8.2.9 8.2s1-2.5.7-7.8c-.4-6.9-.9-10.6-1.3-9.2M458.7 531.7c-1.1 1-.8 4.3.3 4.3.6 0 1-.5 1-1 0-.6.5-1 1.1-1 1.1 0 1 1.1-.8 10.2-.3 1.6-.1 2.8.4 2.8.6 0 1.3-1.9 1.7-4.3.3-2.3.9-5.9 1.2-8 .6-3.4.4-3.7-1.8-3.7-1.4 0-2.8.3-3.1.7M470.6 532.6c-1.6 1.6-2.2 9.6-1 12.8.9 2.4 3.9 1.9 5.2-.9q2.4-5.25-.3-10.5c-1.8-3.5-1.9-3.5-3.9-1.4m3.2 6c.3 5.6-2.4 9.3-2.9 3.8-.1-1-.1-3.4-.1-5.2.3-4.7 2.6-3.6 3 1.4M418.4 535c-3.5 6.1-3.6 7-.8 8 1.4.6 2.4 1.6 2.2 2.4s.1 1.6.6 1.8c1.2.4 1.4-3.2.7-10.1l-.6-5.6zm1.6 4.5c0 .8-.7 1.5-1.5 1.5-.9 0-1.2-.6-.9-1.5.4-.8 1-1.5 1.5-1.5s.9.7.9 1.5M449.3 537.1c-2.2 5-2.2 5.1-.3 5.6 1 .3 2 1.4 2.2 2.4.4 2.8 2.3 1.9 2.2-1.1-.2-9.1-.5-12-1.1-12-.5 0-1.8 2.3-3 5.1m2.7 3c0 .5-.7.9-1.5.9-.9 0-1.2-.6-.9-1.5.6-1.5 2.4-1.1 2.4.6M437 540c0 .5 1.4 1 3 1 1.7 0 3-.5 3-1 0-.6-1.3-1-3-1-1.6 0-3 .4-3 1M347.9 439.5c-5.6 2-11.4 5.2-14.8 8.1-3 2.5-3.5 2.6-7 1.5-4.8-1.4-15.4-1.4-20.3-.1-4.9 1.4-9.8 6.3-9.8 9.9 0 3.1-1.6 5.1-4.1 5.1-.9 0-3.1 1.3-4.8 2.9-2.9 2.7-3.1 3.4-3.2 9.8-.1 3.7-.4 7.8-.7 9-.6 2-12.9 10.4-23.2 15.9-6.8 3.7-21.6 14.2-23.4 16.7-1.6 2.2-2.1 4.3-2 9.2 0 5.3.7 7.7 3.8 14 4.7 9.5 12.4 17.5 18.4 19.3 4.1 1.3 4.5 1.2 12.1-2.7 4.2-2.2 9.5-4.9 11.7-6.2 4.4-2.5 9.2-5.1 17.6-9.8 3.1-1.7 7.2-3.1 9-3.2 4.9 0 13-4.8 14.8-8.6 2.3-4.9 21.1-15.8 25.4-14.7 1.8.4 3.8-.1 6.3-1.6 3.1-1.8 4.6-2.1 9.4-1.5 5.4.6 6.4.4 13.2-3.1 7.8-3.9 8.6-4.8 15.8-17.9 10.9-20 15.1-28.2 15.6-30.6 1.4-7.3-6.7-19.7-14.4-21.8-5.6-1.6-40.9-1.3-45.4.4m41.8 1.5c4.4 0 5.8.5 8.8 3.2 7.1 6.2 9.7 16.4 5.5 21.8-1.1 1.4-2 2.8-2 3.1 0 .5-8.1 15.7-14.8 27.9-3 5.4-7.6 10-8.8 8.7-.3-.3.3-1.8 1.3-3.4 1.1-1.5 3.1-5.1 4.5-7.8 1.4-2.8 5.3-10.3 8.6-16.7 6.7-12.8 6.9-14.1 3-22.3-2.4-5.1-3.6-6.6-7.5-9.3-3-2.1-4.1-2.2-23.2-2.2-12.3 0-20.1-.4-20.1-1 0-2.1 7.2-2.9 23-2.5 9.1.2 18.8.4 21.7.5m-1.6 7.1c3.5 2.5 7.5 9.1 8.4 14 .8 4.2.5 4.9-10.2 24.9-4 7.4-8.1 15.1-9.1 17-2 3.8-7.2 7-11.4 7-3.6 0-4.1-1.1-2.2-4.9 1.2-2.4 2-3 3.5-2.6 2.5.8 2.4-1.1-.1-2.5-1.5-.8-2-2.1-2-5.3 0-9.5-5.5-21.9-13.4-30.5-3.2-3.3-6.6-6.4-7.7-6.7-1.3-.4-1.9-1.5-1.9-3.6 0-1.6-.4-2.9-1-2.9-.5 0-1 .9-1 2 0 1.7-.4 1.9-2.7 1.4-5.9-1.4-6.8-4.1-2.5-7.3 2.5-1.9 4.1-2 26.5-2.1 22.6 0 24.1.1 26.8 2.1m-60.5 3.5c1.8.8 4.2 2.6 5.4 4.1 2.2 2.8 2.2 3.2 1.7 24.5-.4 13.4-.2 22 .3 22.3.6.4 1-5.3 1-15 0-18.4.7-19.2 7.7-8.7 6.3 9.4 8.6 18.8 6.9 27.7-.7 3.4-.6 3.8.5 2.7 1-.9 1.4-3.8 1.3-9.5 0-7.2-.5-9.1-3.4-15-1.8-3.8-5.5-9.2-8.1-12.2-4.9-5.2-6.2-8.5-3.5-8.5 1.9 0 11.2 10.4 13.7 15.3 3.6 6.9 5.2 13.9 5.2 22.1.1 7.1-.2 8.1-2.2 9.8-1.7 1.3-2.7 1.5-3.6.8-1.6-1.3-3.3-.6-12 4.5-7.5 4.5-13.1 7.5-14 7.5-.3 0-.5-2.4-.5-5.4s-.5-7.7-1.2-10.5c-1.3-5.8-.9-6.8 2.2-5.1 1.1.6 3.3 1 4.8.8 2.9-.5 2.5-.7-4.7-2.9-2.6-.8-5.2-2.4-6.4-4.1-1.5-2.1-2.9-2.8-5.4-2.8-3.3 0-3.3 0-3.3-8.9 0-10.6.6-11.5 8.3-12.4 5.8-.7 12.1-3 13.2-4.8 1.2-1.9-.1-1.9-3.9.1-2.1 1-5.9 2.2-8.5 2.5-7.9 1-8.7 1.4-9.9 4-.7 1.5-1.2 7.5-1.2 14.6 0 9.1-.3 12.1-1.3 12.5-.8.3-4.9-.5-9.3-1.8-11.2-3.2-13.7-2.9-21.9 2.3-3.8 2.4-7.5 4.8-8 5.4-2.4 2.3-3.8 7.7-3.2 12.9l.5 5.3-5.1-5.4c-2.8-3-6.7-6.1-8.7-6.9-3.5-1.5-3.5-1.5-1-3.4 2.3-1.7 25.1-15.7 30.8-18.8 2.3-1.3 2.3-1.2 1.7 1-.4 1.3-1.4 3.1-2.3 4-.9 1.1-1.1 1.8-.4 1.8 2.4 0 4.5-5.3 5.2-13.1.4-4.4.9-8.2 1.2-8.4.3-.3 1.8.1 3.4 1 4.5 2.3 17.4 1.8 17.4-.7 0-.6-1.3-.7-3.2-.3-8.7 1.9-17.8-.7-17.8-5.1 0-1.2 1-3 2.2-3.8 3.3-2.4 4.5-1.9 2 .7-2.8 2.9-2.8 4.2 0 6.1 4.9 3.5 15.8 1.1 15.8-3.4 0-2.7-3.8-5-8.4-5-3.7 0-3.8-.1-2.3-1.8 1-1 1.7-2.8 1.7-3.9 0-2.7 3.6-7.2 6.9-8.5 6.7-2.8 17.3-2.9 23.7-.2m16.8 9.3c5.7 3.9 10.9 10.5 14.5 18.2 6.4 13.9 6.8 25.3 1.2 29.6-.9.7-1.8 1.3-2.1 1.3s-.4-3.6-.2-7.9c.3-6.2-.1-9.5-1.7-14.6-3.2-10-10.6-20.5-17.3-24.9-1.6-1-2.8-2.5-2.8-3.2 0-2.3 3.9-1.6 8.4 1.5m-46.4 8.6c0 .3-.2.5-.5.5s-.5-.2-.5-.5.2-.5.5-.5.5.2.5.5m-2.7 3.2c-.7.2-2.1.2-3 0-1-.3-.4-.5 1.2-.5 1.7 0 2.4.2 1.8.5m6.7.2c0 .4-1.1.6-2.5.3-1.4-.2-2.5-.6-2.5-.8s1.1-.4 2.5-.4 2.5.4 2.5.9m15.4 25.3c3.2 5 5 12.4 5 20.8.1 7.3-.2 8.9-2.2 11.7-2.5 3.5-4.9 4.5-3.7 1.5 2.5-5.8 1.3-21.7-2.2-28.5-2.1-4.1-2.9-2.5-.9 1.8 2.4 5 3.8 14.9 3 21.2-.8 6.4-4.1 10.7-7.7 9.8-1.6-.4-4.7.7-10.2 3.8-4.4 2.4-11.1 6.1-15 8.2-3.8 2.1-7.4 4.2-8 4.6-2.5 2.3-3.5.8-3.5-5.1 0-3.3-.7-7.7-1.5-9.7-1.9-4.4-1.2-5.3 1.8-2.6 5.9 5.5 10.4 5.6 19.9.5 9.6-5.1 12.2-8.6 12.2-16.5-.1-6.1-1.7-11-5.2-15-2.1-2.4-1.3-2.8 3.5-1.5 3.7.9 4.4 1.6 6.4 6.2 2.4 5.4 3.1 16.8 1.5 21.5-.6 1.6-.6 2.2.1 1.8.6-.4 1.6-2.6 2.3-5.1 1-3.7.9-5.5-.5-11.3-.9-3.7-2.4-8.3-3.2-10.1-1.2-2.5-1.3-3.6-.4-4.5.6-.6 1.1-2.1 1.1-3.4 0-1.9.5-2.3 3-2.3 2 0 3.4.7 4.4 2.2m-22.9 4c6.3 4.2 10.6 15.1 8.4 21.5-1.9 5.7-7.5 10.3-12.6 10.3-3.1 0-8.8-3.1-11.6-6.4-3.1-3.5-4.7-8.5-4.7-14.3 0-3.4-.4-5.2-1-4.8-1.5.9-1.2 7.5.5 12.7 1.8 5 6.8 10.9 11.5 13.3 3.9 2 3 3.5-2.1 3.5-4.7 0-8.4-1.7-12.1-5.7-3.6-3.8-4.8-7.3-4.8-14.3 0-6.9 1.1-8.5 9.5-14 7.4-4.7 13.5-5.3 19-1.8m-41.7 13.7c4 2.1 13.2 13.6 15.2 19 2.7 7 3.5 15.8 1.8 19.1-.7 1.4-3 3.3-5.2 4.4-3.2 1.6-4.4 1.7-7.6.7-4-1.2-13.1-8.5-12.9-10.4 0-.8.2-.8.6.1.9 2.3 6.4 4.3 12.4 4.5 5.2.2 5.7 0 4.2-1.1-1.1-.9-3.4-1.2-6.1-.9-3.8.4-4.8.1-8-2.7-6.6-5.8-9-14.8-5.2-19.6 1.1-1.4 2-3.6 2-4.9 0-1.9-.6-1.3-2.6 2.5-2.2 4.2-2.5 5.7-2 10.1.3 2.9.4 5.3.2 5.3-1.1 0-3.6-11.3-3.6-16.2 0-4.6.4-5.8 2.8-8 5.2-4.8 7.9-5.2 14-1.9"/><path d="M384.7 452.7c-.4.3-.7 2.1-.7 3.9 0 5.5 5.9 10 8.3 6.3 2.6-4.1-4.4-13.5-7.6-10.2m2.8 6.3c.9 1.8 1.1 3 .5 3-.9 0-3-4-3-5.6 0-1.2 1.1-.1 2.5 2.6m3.9.2c-.4.6-1 .5-1.5-.3-1.4-2.2-1-3.3.6-1.9.8.7 1.2 1.7.9 2.2M346 455c0 .5.8 1 1.8 1 2.7.1 11 6.7 14.5 11.6 4.8 6.8 7.7 14.9 7.7 21.4 0 3.1-.5 6.1-1.1 6.7-.7.7-.7 1.3 0 1.7 2.1 1.3 3.5-6.9 2.2-13.4-2.1-10.6-11.4-24.4-19.3-28.6-3.1-1.6-5.8-1.8-5.8-.4M309 453.8c-2 1-3.9 2.9-4.4 4.4-2.1 5.9 7.4 11 16.3 8.8 5.7-1.4 8.1-3.5 8.1-7 0-6.5-12-10.3-20-6.2m13.1 1.4c3.4 1.2 6.5 3.5 5.7 4.3-.2.3-2.2-.4-4.3-1.5-4.3-2.2-10.5-2.6-13.6-.9-1.1.6-2.5.8-3.2.6-1.8-.7 5.3-3.6 8.9-3.7 1.7 0 4.6.5 6.5 1.2m0 4c5.5 1.6 5.2 4.2-.6 5.8-3.7 1-5.4 1-8.8 0-7.4-2.1-8.7-4.4-3.4-5.9 4.5-1.3 8.3-1.3 12.8.1M285.3 505.7c-.7.2-1.3.9-1.3 1.4s-.9 1.8-2 2.9c-2.3 2.3-2.7 7.9-.9 11.3 2.9 5.2 7.6 7 11.6 4.2 1.2-.9 2.7-1.4 3.4-1.3 3.3.8 2.3-11-1.2-14.4-4.1-4-7-5.2-9.6-4.1m8 4.9c2.9 2.8 4.4 8.3 3.1 11.1-.6 1.5-.8 1.2-1.1-1.2-.6-5.1-2.5-8.7-5.7-10.6-2.7-1.6-2.8-1.9-1-1.9 1.2 0 3.3 1.2 4.7 2.6m-3.8 4.6c1 1.8 2 2.7 2.3 2 .2-.7-.2-1.9-.8-2.8-.7-.8-1.1-1.7-.8-2 .7-.6 3.8 5.9 3.7 7.8 0 .7-.4.4-.9-.7-.9-2-.9-2-1 0-.1 1.6-.4 1.5-1.7-1-.8-1.7-2.2-3.8-3.1-4.8-.8-.9-1.1-1.7-.6-1.7s1.8 1.4 2.9 3.2m-5.3.5c1.3 1.6 3.8 6.7 3.8 7.8 0 .3-.4.5-1 .5-.5 0-1-.6-1-1.4 0-.7-1.1-3-2.5-5-2.5-3.7-2-5 .7-1.9m4.4 2.4c.8 1.7 1.3 3.6 1.1 4.2-.3.7-.8.3-1.1-.8-.4-1.1-1.3-3.3-2.1-4.8s-1-2.5-.5-2.2c.6.4 1.7 2 2.6 3.6m-5.2 1.5c1 2.5-.1 2.9-1.4.5-.6-1.2-.7-2.1-.1-2.1.5 0 1.2.7 1.5 1.6M248 521.9c0 .5.9 1.3 2 1.6 2.6.8 8.6 6.9 10.6 10.9.9 1.7 1.8 6 2.2 9.6.3 4.5.7 5.8 1.3 4.5 2.4-6.4-5-22.3-12.2-26.1-3.3-1.6-3.9-1.7-3.9-.5M246 528.6c0 .3 1.3 1.6 2.9 3 3.2 2.7 6.1 8.1 7.2 13.4.7 3.4.7 3.4.8.5.1-3.8-3.2-11.2-6.6-14.8-2.5-2.5-4.3-3.4-4.3-2.1M830.5 588.1c-2.4.5-1.9.7 2.4.8 3 0 5.1-.2 4.7-.6-.9-.9-3.5-1-7.1-.2M844 588c0 .5 2.1 1 4.6 1 2.7 0 4.3-.4 3.9-1-.3-.6-2.4-1-4.6-1-2.1 0-3.9.4-3.9 1M860.5 588c.3.5 2.2 1 4.1 1s3.4-.5 3.4-1c0-.6-1.8-1-4.1-1-2.4 0-3.8.4-3.4 1M874.3 587.6c1 1 8.7 1.2 8.7.3 0-.5-2.1-.9-4.7-.9-2.5 0-4.3.3-4 .6M889.8 587.7c1.2.2 3.2.2 4.5 0 1.2-.2.2-.4-2.3-.4s-3.5.2-2.2.4M702.4 588.9c-1.3 1.4.1 2.2 3.4 1.9 4.2-.3 4.2-2.1-.1-2.2-1.6-.1-3.1.1-3.3.3M716 589c0 .5 1.8 1 4.1 1 2.4 0 3.8-.4 3.4-1-.3-.6-2.2-1-4.1-1s-3.4.4-3.4 1M731 589c0 .5 2 1 4.5 1s4.5-.5 4.5-1c0-.6-2-1-4.5-1s-4.5.4-4.5 1M746 589c0 .5 1.8 1 4 1s4-.5 4-1c0-.6-1.8-1-4-1s-4 .4-4 1M760 589c0 .5 1.6 1 3.5 1s3.5-.5 3.5-1c0-.6-1.6-1-3.5-1s-3.5.4-3.5 1M772 589c0 .5 1.8 1 3.9 1 2.2 0 4.3-.5 4.6-1 .4-.6-1.2-1-3.9-1-2.5 0-4.6.4-4.6 1M785.5 589c.3.5 2.2 1 4.1 1s3.4-.5 3.4-1c0-.6-1.8-1-4.1-1-2.4 0-3.8.4-3.4 1M798.5 589c.3.5 2.4 1 4.5 1s4.2-.5 4.5-1c.4-.6-1.3-1-4.5-1s-4.9.4-4.5 1M813.4 588.7c1.1 1.1 7.5 1.3 8.1.2.4-.5-1.4-.9-4.1-.9-2.6 0-4.4.3-4 .7M617.1 589.9c-2.1 1.4.4 2.3 4.4 1.5 1.9-.3 3.2-1 2.9-1.5-.7-1.1-5.5-1.1-7.3 0M630.6 589.9c-.3.5 1 1.1 3 1.3 3.4.4 5-.3 3.7-1.6-1-.9-6.1-.7-6.7.3M642.5 590c-.4.6 1.2 1 4 1s4.4-.4 4-1c-.3-.6-2.1-1-4-1s-3.7.4-4 1M656 590c0 .5 2.3 1 5 1 2.8 0 5-.5 5-1 0-.6-2.2-1-5-1-2.7 0-5 .4-5 1M672 590c0 .5 1.8 1 4 1s4-.5 4-1c0-.6-1.8-1-4-1s-4 .4-4 1M686.5 590c.3.5 2.6 1 5.1 1 2.4 0 4.4-.5 4.4-1 0-.6-2.3-1-5.1-1-3.1 0-4.8.4-4.4 1M489.5 591.1c-.4.5.2.9 1.2 1 1 0 3.1.2 4.6.4 1.8.2 2.7 0 2.4-.8-.4-1.4-7.4-1.9-8.2-.6M504 591c0 .5 1.8 1 4.1 1 2.4 0 3.8-.4 3.4-1-.3-.6-2.2-1-4.1-1s-3.4.4-3.4 1M517.5 591c-.4.6 1.2 1 3.9 1 2.5 0 4.6-.5 4.6-1 0-.6-1.8-1-3.9-1-2.2 0-4.3.4-4.6 1M531.5 591c-.4.6 1.2 1 3.9 1 2.5 0 4.6-.5 4.6-1 0-.6-1.8-1-3.9-1-2.2 0-4.3.4-4.6 1M545 591c0 .5 2.1 1 4.6 1 2.7 0 4.3-.4 3.9-1-.3-.6-2.4-1-4.6-1-2.1 0-3.9.4-3.9 1M559 591c0 .5 2.1 1 4.6 1 2.7 0 4.3-.4 3.9-1-.3-.6-2.4-1-4.6-1-2.1 0-3.9.4-3.9 1M573 591c0 .5 2 1 4.5 1s4.5-.5 4.5-1c0-.6-2-1-4.5-1s-4.5.4-4.5 1M587.5 591c.3.5 2.4 1 4.6 1 2.1 0 3.9-.5 3.9-1 0-.6-2.1-1-4.6-1-2.7 0-4.3.4-3.9 1M602 591c0 .5 1.8 1 3.9 1 2.2 0 4.3-.5 4.6-1 .4-.6-1.2-1-3.9-1-2.5 0-4.6.4-4.6 1M431.5 592c-.4.6 1.2 1 4 1s4.4-.4 4-1c-.3-.6-2.1-1-4-1s-3.7.4-4 1M446.5 592c-.4.6 1.2 1 4 1s4.4-.4 4-1c-.3-.6-2.1-1-4-1s-3.7.4-4 1M460 592c0 .5 1.8 1 4 1s4-.5 4-1c0-.6-1.8-1-4-1s-4 .4-4 1M474 592c0 .5 1.8 1 3.9 1 2.2 0 4.3-.5 4.6-1 .4-.6-1.2-1-3.9-1-2.5 0-4.6.4-4.6 1M312.4 593.1c-.3.5 1.8.9 4.6.9s4.9-.4 4.6-.9c-.3-.4-2.4-.8-4.6-.8s-4.3.4-4.6.8M328 593c0 .5 2.1 1 4.6 1 2.7 0 4.3-.4 3.9-1-.3-.6-2.4-1-4.6-1-2.1 0-3.9.4-3.9 1M342.5 593c-.4.6 1.2 1 3.9 1 2.5 0 4.6-.5 4.6-1 0-.6-1.8-1-3.9-1-2.2 0-4.3.4-4.6 1M358 593c0 .5 2 1 4.5 1s4.5-.5 4.5-1c0-.6-2-1-4.5-1s-4.5.4-4.5 1M373 593c0 .5 2.3 1 5 1 2.8 0 5-.5 5-1 0-.6-2.2-1-5-1-2.7 0-5 .4-5 1M388 593c0 .5 2 1 4.4 1 2.5 0 4.8-.5 5.1-1 .4-.6-1.3-1-4.4-1-2.8 0-5.1.4-5.1 1M404.7 593c1.2.5 3.4.5 5 0 2.4-.7 2.1-.8-2.2-.9-3.8 0-4.5.2-2.8.9M419.8 592.7c1.2.2 3.2.2 4.5 0 1.2-.2.2-.4-2.3-.4s-3.5.2-2.2.4M230.9 594.1c-.9.6.4.9 3.5.9 2.7 0 4.6-.3 4.2-.7-1.1-1.1-6.1-1.2-7.7-.2M244.5 594c-.4.6 1.2 1 3.9 1 2.5 0 4.6-.5 4.6-1 0-.6-1.8-1-3.9-1-2.2 0-4.3.4-4.6 1M258.5 594c.3.5 2.2 1 4.1 1s3.4-.5 3.4-1c0-.6-1.8-1-4.1-1-2.4 0-3.8.4-3.4 1M271.4 593.7c1 1 6.6 1.1 6.6.1 0-.4-1.6-.8-3.7-.8-2 0-3.3.3-2.9.7M286.3 593.7c1.5.2 3.7.2 5 0 1.2-.2 0-.4-2.8-.4-2.7 0-3.8.2-2.2.4M300.3 593.7c1.5.2 3.7.2 5 0 1.2-.2 0-.4-2.8-.4-2.7 0-3.8.2-2.2.4M129 595c0 .5 1.5 1 3.4 1s3.8-.5 4.1-1c.4-.6-1-1-3.4-1-2.3 0-4.1.4-4.1 1M143.5 595c.3.5 2.2 1 4.1 1s3.4-.5 3.4-1c0-.6-1.8-1-4.1-1-2.4 0-3.8.4-3.4 1M157.5 595c.3.5 2.4 1 4.5 1s4.2-.5 4.5-1c.4-.6-1.3-1-4.5-1s-4.9.4-4.5 1M172 595c0 .5 2 1 4.5 1s4.5-.5 4.5-1c0-.6-2-1-4.5-1s-4.5.4-4.5 1M186.5 595c.7 1.1 8 .9 9.1-.3.4-.4-1.6-.7-4.5-.7-3.2 0-5 .4-4.6 1M204 595c2 .5 3.9.5 4.5-.1.5-.5-.8-.9-3.5-.8-4.5.1-4.5.1-1 .9M217.3 594.7c1.5.2 3.7.2 5 0 1.2-.2 0-.4-2.8-.4-2.7 0-3.8.2-2.2.4M474.7 619.7c-.4.3-.7 5.5-.7 11.4v10.8l4.4.6c3.3.5 81.5.1 83.4-.4.1-.1.1-5.2 0-11.4l-.3-11.2-43.1-.3c-23.7-.1-43.4.1-43.7.5m85.3 10.7c0 9.4 0 9.4-3.2 9.9-1.8.3-20.5.6-41.5.7l-38.3.1V621h83z"/><path d="M517.3 622.8c-.6.4-1.4 1.9-1.8 3.4-.6 2.2-.2 3.2 1.9 5.1 2.5 2.4 3.4 4.7 1.8 4.7-.4 0-1.3-.5-2-1.2-.9-.9-1.2-.7-1.2 1 0 3 3.8 3 4.9-.1 2.1-5.4-.5-14.8-3.6-12.9m2.7 4.8c0 2.7-2.4 3.3-3.4.8-.7-1.9 1.2-4.7 2.5-3.8.5.3.9 1.6.9 3M527.1 623.4c-.7.8-1.1 2.3-.8 3.3.4 1.6.6 1.5 1.2-.5.4-1.2 1.1-2.2 1.6-2.2 1.6 0 1 5-1.1 9-2.6 5-2.6 5 1 5 2.4 0 3-.4 3-2.1 0-1.9-.2-2-1.7-.8s-1.6 1.2-1.1-.6c.4-1.1 1.2-3.5 1.9-5.3 2-4.7-1.2-9.2-4-5.8M496.2 630.5c.2 5.5.7 7.5 1.7 7.5.8 0 1.1-.6.7-1.6-.3-.9-.6-4.2-.6-7.5 0-3.4-.4-5.9-1-5.9-.7 0-1 2.8-.8 7.5M537.2 625.5c-2.1 4.7-.6 12.5 2.4 12.5 1.9 0 3.4-3.3 3.4-7.5 0-6.9-3.6-9.9-5.8-5m3.8 5.1c0 4-.4 5.5-1.2 5.2-1.4-.5-2.3-8-1.4-10.5 1.2-3 2.6 0 2.6 5.3M485.1 628c-2.6 5.1-2.6 6 0 6 1.6 0 2 .5 1.6 2-.3 1.3 0 2 1 2 1.3 0 1.4-1.1.9-6.7-.3-3.6-.8-6.8-1-7s-1.3 1.4-2.5 3.7m1.5 3.7c-1 1-1.9-.5-1-1.8.6-1.1.8-1.1 1.2 0 .2.7.1 1.5-.2 1.8M504.5 631c.3.5 1.7 1 3.1 1 1.3 0 2.4-.5 2.4-1 0-.6-1.4-1-3.1-1s-2.8.4-2.4 1M519.1 646.5c-.1.5-.2 5.4-.2 10.7v9.8l-183.7.2-183.7.3-.1 36c0 19.8.3 50.8.6 69 .6 24.9.7 16.3.6-35.3l-.1-68.3 366 .7c201.3.4 366.2.9 366.5 1.1.3.3.7 45.3.8 100.1.2 54.8.7 100 1 100.4.8.8.4-177-.4-192.7l-.6-11-101.1-.1c-55.7 0-138-.1-182.9-.2l-81.7-.2-.4-10.8c-.1-5.9-.4-10.3-.6-9.7"/><path d="M462.7 726.7c-.4.3-.7 6-.7 12.5V751h88.1l-.3-12.3-.3-12.2-43.1-.3c-23.7-.1-43.4.1-43.7.5m83.1 2.3c.9 0 1.2 2.7 1.2 10v10h-83v-9.8c0-5.4.2-10.1.4-10.3.3-.3 57.1-.2 81.4.1"/><path d="M482 731.9c-1.6 3-1.2 5 1.5 7.7 2.5 2.5 3.2 4.4 1.7 4.4-.4 0-1.3-.5-2-1.2-.9-.9-1.2-.9-1.2.3 0 2.9 2.2 4 4.2 2.2 2.1-1.9 2.6-12.1.6-14.1-1.8-1.8-3.6-1.5-4.8.7m4 3.1c0 1.6-.5 3-1 3-1.4 0-2.4-2.6-1.6-4.5 1-2.6 2.6-1.6 2.6 1.5M515.2 730.8c-.7.5-1.5 3.2-1.9 6-.4 3.9-.2 5.8 1.1 7.8 1.7 2.5 1.8 2.5 3.7.8 2.7-2.4 2.4-6.1-.7-8.9-2.8-2.6-2.5-5.6.3-3.3 1.3 1 1.5.9 1.2-.6-.5-2.2-1.9-2.9-3.7-1.8m2.8 10.8c0 2.6-1.7 3.3-2.6.9-.8-2 .3-4.8 1.6-4 .5.3 1 1.7 1 3.1M525 731.9c-1.7 3.4-1.2 11.6.9 13.5 2.6 2.4 4 .3 4.3-6.6.3-7.4-2.7-11.4-5.2-6.9m3 6.1c0 3.3-.4 6-1 6s-1-2.7-1-6 .4-6 1-6 1 2.7 1 6M472.2 735.6c-2.3 4.5-2.2 6.4.3 6.4.7 0 1.5.9 1.7 2 .4 2.9 2.3 2 2.2-1-.2-9.1-.5-12-1.1-12-.5 0-1.8 2.1-3.1 4.6m1.4 4.1c-1 1-1.9-.5-1-1.8.6-1.1.8-1.1 1.2 0 .2.7.1 1.5-.2 1.8M504.2 735.6c-2.3 4.6-2.2 6.4.4 6.4.8 0 1.4 1 1.4 2.6 0 1.5.5 2.4 1.2 2.2.6-.2 1.1-1.7 1.1-3.4-.1-9.5-.4-12.4-1-12.4-.5 0-1.8 2.1-3.1 4.6m1.4 4.1c-1 1-1.9-.5-1-1.8.6-1.1.8-1.1 1.2 0 .2.7.1 1.5-.2 1.8M492.7 737.6c-1.1 1.2.3 2.4 2.9 2.4 1.6 0 2.4-.5 2.2-1.3-.5-1.3-4-2.2-5.1-1.1M614 733.7c-5.2 3-10.8 6.3-12.5 7.3-1.6.9-10.9 6.3-20.5 12s-20.4 12-24 14-11 6.3-16.5 9.6c-15.8 9.5-30 17.4-31.3 17.4-.9 0-1.2-5.2-1.2-20 0-13.6-.3-20-1.1-20-.7 0-1 6.6-.8 21 .2 19.8.1 21.1-1.7 22.4-1 .8-7.1 4.4-13.4 8.1-14.8 8.4-14.3 8.1-29 16.8-6.9 4.1-17.4 10.2-23.5 13.7-12 6.8-26.9 15.4-35.5 20.5-3 1.8-7.5 4.4-10 5.7-2.5 1.4-6 3.4-7.9 4.4l-3.3 1.9.6 39c.3 21.4.9 64.1 1.3 94.7.6 55.7.6 55.7-1.8 57.7-2.4 1.9-2.4 1.9 2.1 1.4 8.4-.9 18.7 6.3 23.6 16.5 2.5 5.2 3.1 14.4 1 16.1-1.7 1.5-2.1 3.1-.7 3.1.5 0 1.6-1.6 2.6-3.6 4.3-9.1-4.4-25.7-16.7-32-2.6-1.3-5.4-2.4-6.3-2.4-1.3 0-1.5-2.3-1.7-15.3 0-8.3-.2-17.9-.4-21.2-.2-4.8-1.4-102.7-1.8-143.3-.1-9.3-.1-9.3 2.9-11 1.7-.9 3.2-1.9 3.5-2.2s2.3-1.4 4.5-2.6c8.3-4.4 16.4-9 30-17.1 7.6-4.6 14.2-8 14.6-7.5.3.4.9 22.5 1.3 49.2s.9 52.5 1.1 57.5c.4 8.7.8 34.9 2 128.5.4 23.9.8 45 1.1 46.8.6 3.8 1.6 3.8 9.2-.8 27.3-16.3 42.4-25 43.1-25 .5 0 1.1-.3 1.3-.8.3-.7 13.7-8.9 22.8-14 2.5-1.4 7.9-4.5 12-6.9s8.2-4.7 9-5.2c1.3-.7 1.5-4.2 1.5-21.5.1-23.2-.4-21.6 8.5-26.4 9.4-4.9 17.4-9.4 20.2-11.4 1.4-1 3-1.8 3.6-1.8 1.8 0 9.1-7.7 9.8-10.4 1.3-5.4-.2-13.3-3.9-20.9-7.8-15.7-19.3-22.3-29.2-16.7-1.9 1.1-5 2.9-6.7 3.9-1.8 1-7.3 4.2-12.2 7.1-17.6 10.1-19.6 12.3-19.6 20.6 0 2.3-.6 3.7-2 4.4-1.1.6-2.6 2.3-3.4 3.9-.8 1.5-3.1 4.7-5 7-2.2 2.6-3.6 5.4-3.6 6.9 0 3.3 3.2 8.7 6 10.2 2.5 1.4 16.3.5 19.8-1.2 1.8-.9 3.1-.7 7 1 2.6 1.2 5.6 2.3 6.7 2.4 1.9.3 2 1.2 2.3 20.9l.2 20.5-5 2.4c-2.7 1.4-5 2.8-5 3.2 0 .5-.4.8-.9.8-.9 0-11.3 6-39.6 22.8-8.8 5.2-18.4 10.8-21.4 12.5-2.9 1.6-9.2 5.3-14 8.2-4.7 3-8.9 5.1-9.2 4.7-.4-.4-.9-15.6-1.3-33.7-.3-18.2-.8-44.3-1.1-58-1.3-64.8-2.5-133.8-2.7-161.9l-.3-31 7-4.1c17.7-10.6 29.6-17.5 30.1-17.5.3 0 2.5-1.4 4.9-3 2.4-1.7 4.6-3 4.8-3 .3 0 4.5-2.4 9.4-5.4 4.8-2.9 14.8-8.8 22.2-13.1 18.6-10.7 19.8-11.4 27.1-15.5 3.6-2 11.1-6.4 16.8-9.8 5.6-3.4 10.4-6.2 10.6-6.2s3.4-1.8 7.1-4.1c3.7-2.2 8.2-4.9 9.9-5.9 1.7-.9 7.2-4.1 12.1-7 13.3-7.8 18.9-11 19.8-11 .4 0 .7 11.7.7 26 0 16.9.4 26 1 26 1.4 0 .9-54.2-.5-54.6-.5-.2-5.3 2.2-10.5 5.3m-47.7 226.7c4.6 1.9 11.4 9.2 14.5 15.6 2.1 4.3 2.8 7.3 3 13.6.4 8 .4 8-3.1 11.5-1.9 1.9-5.6 4.6-8.3 5.9-2.7 1.4-8.5 4.6-12.9 7.2-4.4 2.7-8.2 4.8-8.5 4.8s-.6-3.3-.6-7.3c-.1-6-.6-8.3-3.4-14.2-4.1-8.4-13-17.9-17.8-19-1.8-.3-3.2-1-3.2-1.3 0-.4 6.9-4.6 15.3-9.4 16-9.2 18.8-10 25-7.4M533 983c4.6 3 11.2 11.3 13.9 17.5.7 1.6 1.5 6.1 1.8 10 .5 6.1.3 7.3-1.7 9.7-2.6 3.4-7.9 3.8-13.5 1.1-4.5-2.1-4.2-3.9 1.3-6.8 2.4-1.3 5-3.2 5.7-4.2 3.4-4.4.4-14-5.8-18.7-4.2-3.3-5-3.2-11.5.1-4.7 2.5-5.3 2.6-6.8 1.2-1.3-1.3-1.4-2.3-.5-5.5 1.3-4.7 2-5.7 4.6-7.2 2.8-1.7 7-.7 12.5 2.8m.7 9.8c3.4 2.7 6.3 8.4 6.3 12.4 0 3.2-.5 4.1-3.7 6.3-2.1 1.4-4 2.5-4.3 2.5-.4 0-1.4-2.7-2.4-5.9-1-3.4-3-7.3-4.7-9-1.6-1.7-2.9-3.5-2.9-3.9 0-1 5.9-4.1 8-4.1.8 0 2.5.7 3.7 1.7m-14.1 7.4c6.6 5.8 9.9 17.4 5.5 19.7-2.6 1.5-3.1.4-1.4-3 3.5-7.1-4.7-19-11.9-17.1-2.1.5-2.2.4-.9-1.1 2-2.5 4.6-2.1 8.7 1.5m6.2 3.3c-.3.3-1.3-.7-2.3-2.2-1.7-2.8-1.7-2.8.6-.6 1.2 1.2 2 2.5 1.7 2.8m-8.9 2c6.5 7.5 6.3 15.5-.4 15.5-3.1 0-3.5-.3-3.5-2.8 0-3.1-2.7-7.6-5.9-9.9-2.2-1.5-2.2-1.5 0-3.9 3.1-3.4 6.1-3 9.8 1.1m11.1 3c0 .5-.5.3-1-.5s-1-2-1-2.5c0-.6.5-.3 1 .5s1 1.9 1 2.5m-6.2 0c-.3.3-.9-.2-1.2-1.2-.6-1.4-.5-1.5.5-.6.7.7 1 1.5.7 1.8m-13.4 3.6c4.4 5.2 4.6 9.9.5 9.9-3.2 0-6.9-4.4-6.9-8.3 0-5.7 2.4-6.3 6.4-1.6m14.6-1.6c0 .3-.2.5-.5.5s-.5-.2-.5-.5.2-.5.5-.5.5.2.5.5"/><path d="M802 751.2c-26.7 15.9-30 17.8-30.6 17.8-.3 0-1.8.8-3.2 1.8-1.5 1.1-5.2 3.3-8.2 4.9-3 1.7-11.1 6.3-18 10.3s-14.5 8.4-17 9.8-13.3 7.8-24 14.2c-10.7 6.5-20.8 12.5-22.5 13.4-1.6.9-4.8 2.8-7 4.1-2.2 1.4-4.7 2.8-5.5 3.2s-5 2.9-9.3 5.5-8 4.8-8.2 4.8-4.9 2.7-10.5 6.1c-5.6 3.3-10.5 5.8-10.8 5.4-.3-.3-.8-9.5-1-20.5-.3-13.1-.8-19.7-1.5-19.3-.6.4-.8 7.7-.4 21.2l.5 20.7-9.1 5.3c-5.1 2.9-10.4 6.2-11.9 7.2-1.5 1.1-2.9 1.9-3.2 1.9s-2.9 1.4-5.8 3.1c-2.9 1.8-6.8 4-8.5 5-1.8 1.1-4.8 2.7-6.5 3.8-1.8 1-5.7 3.2-8.6 5-2.9 1.7-5.4 3.1-5.6 3.1s-5.7 3.2-12.2 7.2c-10.3 6.2-15.4 9.2-31.9 18.8-19.6 11.4-29.1 16.8-34.5 19.8-3.6 1.9-10 5.5-14.3 8l-7.9 4.5.4 31 .3 31.1-6.6 4c-3.7 2.2-7.4 5.1-8.2 6.5-8.2 14 7.7 41.1 24.2 41.1 5.2 0 15.7-6.3 18.3-11.1 6-10.8-7.9-36.4-21.8-40.1l-4.3-1.2-.3-29.5c-.2-18.9.1-30 .7-30.8.5-.6 2.7-2.1 4.8-3.2 2-1.2 5.3-3 7.2-4.1 9.5-5.5 11.3-6.5 15.5-8.8 2.5-1.4 14.3-8.2 26.4-15.1 12-6.9 23.8-13.8 26.2-15.2 2.5-1.4 5.3-3.1 6.2-3.7 1.5-1.1 5-3.2 19.2-11.5 1.9-1.1 6.4-3.7 10-5.7s12.1-7 19-11c12-6.9 15.7-9.1 25.3-14.4 2.3-1.2 8.9-5.1 14.7-8.6 10.4-6.2 15.6-9.3 19.5-11.4 3.3-1.8 31.7-18.7 35.5-21.1 3.1-2 10-6.1 19.5-11.5 6.1-3.5 21.1-12.4 24.5-14.5 1.9-1.2 5.5-3.3 8-4.7s10.1-5.7 16.8-9.6c6.8-4 12.5-7.2 12.7-7.2.1 0 6.3-3.6 13.6-8.1 12.6-7.6 22.2-12.9 23.4-12.9.3 0 .5 10.3.5 23 0 15.4.3 23 1.1 23 1.3 0 .8-46.5-.6-47.8-.6-.6-6 2-14.5 7m-326.2 262.9c10.1 5.5 17.3 18.4 16.9 30.1-.2 4.9-.6 6-3.2 8.2-1.7 1.4-3.3 2.6-3.7 2.6-.5 0-.8-3-.8-6.6 0-5.5-.6-7.7-3.5-13.6-2-3.8-4.2-7.6-5-8.5-.8-.8-1.5-1.8-1.5-2.2 0-1.1-11.5-9.1-13.2-9.1-.7 0-.2-.9 1.2-2 2.9-2.4 7.1-2 12.8 1.1m-13.8 3.8c0 .5-1.8.8-3.9.7-2.2 0-3.7-.4-3.5-.8.7-1.1 7.4-1 7.4.1m4.4 1.6c.8.8 1.9 1.5 2.4 1.5 1.1 0 4.7 4 5.5 6.2.4 1 1.1 1.8 1.7 1.8 1.3 0 5.4 8.5 6.9 14.2 1.3 5.5.3 11.8-2.3 14.4-2.6 2.5-2.8 1.2-.6-3.4 1.1-2.2 2-4.7 2-5.4 0-2.4-4.4-15.3-5.7-16.6-.7-.7-2-2.6-2.9-4.1-1-1.6-3.7-4.1-6.1-5.6-2.3-1.6-4.3-3.2-4.3-3.6 0-1.4 1.7-1.1 3.4.6m-3.7 2.1c1.9 1 5.2 3.4 7.3 5.5 4.3 4.3 9.5 14.1 8.7 16.4-.4.8-.2 1.7.3 2 1.5.9 1.2 5.2-.5 8.4-1.9 3.8-7.1 4.9-12 2.5-8.6-4-16.5-16.9-16.5-26.5.1-9.1 4.7-12 12.7-8.3"/><path d="M454 1027.5c0 .3.2.5.5.5s.5-.2.5-.5-.2-.5-.5-.5-.5.2-.5.5M460.4 1028.2c-5.6 2.7-4.8 11.2 1.7 18 4.1 4.3 7.6 4.9 10.4 1.8 3.6-4-.9-16.7-6.6-18.5-1-.4-1.9-1.1-1.9-1.6 0-1.1-.9-1.1-3.6.3m5.7 3.5c1.6 1 2.9 2.3 2.9 2.9s.6 1.7 1.4 2.3c.8.7 1.3 2.9 1.2 5.8-.1 4.3-.3 4.7-2.9 5-4 .5-9.2-4.8-10.2-10.5-1.1-6.8 1.8-8.9 7.6-5.5M838.5 782.8c-3.1 1.1-8.5 4.5-8.5 5.4 0 .4-.7.8-1.6.8-1.5 0-6.5 3.1-9.2 5.7-.7.7-2.5 1.6-4 1.9-1.5.4-4.4 2-6.5 3.6-2 1.6-5.2 3.4-7 4-1.7.6-4.3 1.9-5.6 3-1.3 1-3.5 1.8-4.8 1.8-3 0-7.8 2.4-17.5 8.8-9.3 6.2-11.8 10.6-11.8 21 0 9.2 5.1 24.4 9.6 29 .8.7 1.4 1.7 1.4 2 0 1.3 10.2 11.3 14 13.8 7.8 5.2 18 6 23 2 .8-.7 4.7-3.1 8.6-5.4 3.9-2.2 8.3-5.7 9.8-7.7 1.5-1.9 3.3-3.5 4-3.5s2.5-1.4 4.1-3c1.6-1.7 3.5-3 4.3-3 1.9 0 9.2-4.1 9.2-5.2 0-.5 2.4-1.9 5.4-3.2 2.9-1.3 5.7-2.9 6-3.5.4-.6 2.3-1.8 4.2-2.6 9.7-4 13.4-13.2 14.8-36 .3-4.6.3-4.7-.1-.3-.4 5.1-1.4 6.1-2.9 2.8q-.9-2.1-.9 8.7c0 11-1.5 17.3-4 17.3-.8 0-2.2 1.2-3.3 2.7-2.7 3.6-3.8 2.3-2.4-2.6 3.9-12.8-2.2-32.2-13.3-42.7-2.9-2.8-6.9-5.7-8.7-6.4s-3.7-1.7-4.2-2.2c-.6-.4-2.5-.8-4.2-.8-5 0-4.9-1.6.1-3.6 13.4-5.1 29.4 4.6 37.4 22.8 1.1 2.4 2 3.8 2 3.1.2-2.8-7.7-16.5-10.9-19-2.6-2-.4-2.5 3.1-.7 4 2 6.2 4.5 9 10.2 1.2 2.4 2.4 4.1 2.7 3.8.6-.7-1.2-4.6-4.1-8.9-2.7-3.9-9.5-8.7-12.4-8.7-1.3 0-4.7-1.2-7.5-2.6-5.2-2.6-13.6-3.9-17.3-2.6m2.5 9.4c10.3 3.2 19.7 14.1 24 28 1.2 4 1.7 14.8.8 18.8-1.3 6.1-2.1 8-3.3 8-.7 0-1.5.9-1.8 2-.3 1.2-1.4 2-2.5 2s-2.2.6-2.5 1.2c-.2.7-.7 1-1.1.7s-.2-1.8.4-3.3c1.7-4.5 1.2-17.1-.9-23.4-4.9-14.5-16.3-26.9-27.1-29.5-5.3-1.2-5.8-1.8-3.7-3.6 3.4-2.8 10.2-3.1 17.7-.9m-14.6 6.3c4.8.8 10.8 4.5 16.1 10.1 11.2 11.6 15.8 33 9.5 44.2-3 5.3-12.3 11.1-10.6 6.5 5.8-15.1-1.3-37.1-15.6-48.5-4.5-3.6-11.7-7.4-13.2-7-.4.2-1.7 0-2.7-.3-1.9-.6-1.9-.7.3-2.4 3-2.3 7.8-4 10.3-3.6 1.1.2 3.7.7 5.9 1m-9.1 8.9c14 6.1 24.7 23.3 24.7 39.5 0 8.4-1.6 12.7-6.5 17.6l-4 4-.6-9c-.9-14.8-7.3-28.7-18-39.5-3.6-3.7-8.7-7.6-11.3-8.8-2.5-1.2-4.6-2.4-4.6-2.7s1.5-1.1 3.3-1.9c4.9-2.2 11-1.9 17 .8m-16.5 5.2c1.8.8 3.2 1.9 3.2 2.2 0 .4 1.4 1.3 3 2.1 5.2 2.2 20.6 23.8 18.6 25.9-.3.3 0 1.3.8 2.1 1.9 2 2.9 7.6 3 16.2.1 5.7-.3 7.2-2.5 10.3-2.4 3.3-11.6 10.2-12.5 9.3-.2-.2.1-1.9.6-3.8 4.8-16.7-10.3-46.6-27.7-55-2.4-1.2-4.7-2.8-5.3-3.7-.5-1-1-1.2-1-.5s-.9 1.3-2 1.3c-2.2 0-2.7-1.5-.7-2.4.6-.3 3-1.7 5.2-3 4.8-2.9 12.6-3.4 17.3-1m-16.9 9.6c2 .7 4.3 2.1 5.2 3 .9 1 2 1.8 2.5 1.8 2.9.1 13.4 12.7 16.6 20 .9 1.9 2.5 5.7 3.7 8.4 2.9 6.4 3.3 21.3.7 25.5-.4.6-2.6 2.3-4.8 3.8-3.4 2.1-4.9 2.4-8.5 1.9-5.8-.8-12.9-4.5-18.4-9.7-4.9-4.7-12.6-15.6-11.6-16.5.9-.9 2.7.5 2.7 2.2 0 2.4 8 10.8 14.7 15.5 8 5.6 17.7 4.3 21.3-2.7 1.6-3.1 2.3-18.4.9-18.4-.5 0-.9-.6-.9-1.3 0-1.3-5.1-11.9-7.2-15.1-3.8-5.5-14.4-14.7-16.2-14-.8.3-1.7.1-2.1-.5-1.7-2.8-9.7-.2-13.3 4.4-1.1 1.4-2.5 2.5-3.2 2.5-.6 0-.9.4-.5.9.3.6.7 5.1.9 10.1s.8 9.6 1.5 10.3c.6.6 1.1 2 1.1 3.1 0 1.2-.3 1.6-.9 1-1.5-1.6-4.3-11.4-3.7-12.9.3-.8 0-1.7-.5-2.1-2.3-1.4.3-15.3 3.6-18.9 3.2-3.6 10-4.5 16.4-2.3m-3.4 11.1c0 3.4.3 6.9.6 7.7.4.8 1.6 3.9 2.7 6.7 3.9 9.9 11.8 19.4 19.5 23.4 4 2.1 4 2 3.1 4.3-.7 1.9-4.2 2-9.7.4-9.2-2.8-23-20.5-23.1-29.6 0-1.7-.4-3.2-.8-3.2s-.8-2.1-.8-4.8c0-5.9 3-11.2 6.2-11.2 2.1 0 2.3.4 2.3 6.3m15.3 4.1c7.3 7.7 11.5 17 12 26.3.5 8.3.1 8.6-5.9 4.8-8.5-5.4-15.8-15.5-18.5-25.9-1.4-5.3-1.9-12.8-.8-13.9 1.3-1.2 8 3.2 13.2 8.7m-24.8-1.9c-.5 3-.4 5.8.2 6.9.5 1 .8 2.7.5 3.7s-.1 2.2.4 2.5.7 1 .4 1.5c-.4.5.4 2.3 1.5 4 1.2 1.6 2.3 4.1 2.4 5.4 0 1.3.4 2.3.7 2.2s3.2 2.6 6.4 6.1c5.6 6.1 11.3 10 16.5 11.3 2.2.6 2 .7-1 .8-7.2.2-11.2-1.8-18.3-9-7.6-7.7-12-15.8-12.3-22.7-.1-2.4-.4-4.6-.8-4.9-1-1 .6-9.8 2.2-11.6.8-.9 1.6-1.6 1.8-1.5.1.2-.2 2.5-.6 5.3"/><path d="M829 805.5c0 .3.2.5.5.5s.5-.2.5-.5-.2-.5-.5-.5-.5.2-.5.5M842.5 822c.3.5.8 1 1.1 1 .2 0 .4-.5.4-1 0-.6-.5-1-1.1-1-.5 0-.7.4-.4 1M851 844.5c0 .3.2.5.5.5s.5-.2.5-.5-.2-.5-.5-.5-.5.2-.5.5M849 850c0 .7.3 1 .7.7.3-.4.3-1 0-1.4-.4-.3-.7 0-.7.7M848 855.1c0 .5.5.7 1 .4.6-.3 1-.8 1-1.1 0-.2-.4-.4-1-.4-.5 0-1 .5-1 1.1M824 820.5c0 .3.2.5.5.5s.5-.2.5-.5-.2-.5-.5-.5-.5.2-.5.5M834 850.5c0 .3.2.5.5.5s.5-.2.5-.5-.2-.5-.5-.5-.5.2-.5.5M787 813.5c0 .3.2.5.5.5s.5-.2.5-.5-.2-.5-.5-.5-.5.2-.5.5M795.5 814c-.3.5-.1 1 .4 1 .6 0 1.1-.5 1.1-1 0-.6-.2-1-.4-1-.3 0-.8.4-1.1 1M797 820c0 .7.3 1 .7.7.3-.4.3-1 0-1.4-.4-.3-.7 0-.7.7M800.3 822.7c.4.3 1 .3 1.4 0 .3-.4 0-.7-.7-.7s-1 .3-.7.7M800.5 828c-.3.5-.1 1 .4 1 .6 0 1.1-.5 1.1-1 0-.6-.2-1-.4-1-.3 0-.8.4-1.1 1M813 845.5c0 .3.2.5.5.5s.5-.2.5-.5-.2-.5-.5-.5-.5.2-.5.5M822 847.5c0 .3.2.5.5.5s.5-.2.5-.5-.2-.5-.5-.5-.5.2-.5.5M818 852.5c0 .3.2.5.5.5s.5-.2.5-.5-.2-.5-.5-.5-.5.2-.5.5M777 822.5c0 .3.2.5.5.5s.5-.2.5-.5-.2-.5-.5-.5-.5.2-.5.5M809 880.5c0 .3.2.5.5.5s.5-.2.5-.5-.2-.5-.5-.5-.5.2-.5.5M776 841.5c0 .3.2.5.5.5s.5-.2.5-.5-.2-.5-.5-.5-.5.2-.5.5M777 846.4c0 .2.7.7 1.6 1 .8.3 1.2.2.9-.4-.6-1-2.5-1.4-2.5-.6M781 854.5c0 .3.2.5.5.5s.5-.2.5-.5-.2-.5-.5-.5-.5.2-.5.5M791 845c0 .7.3 1 .7.7.3-.4.3-1 0-1.4-.4-.3-.7 0-.7.7M798 856.1c0 .5.5.7 1 .4.6-.3 1-.8 1-1.1 0-.2-.4-.4-1-.4-.5 0-1 .5-1 1.1M580.7 785.7c-.4.3-.7 6-.7 12.5V810h88.1l-.3-12.3-.3-12.2-43.1-.3c-23.7-.1-43.4.1-43.7.5m84.8 11.8v10h-83l-.3-9c-.1-4.9 0-9.5.3-10.2.3-1.1 8.8-1.3 41.7-1.1l41.3.3z"/><path d="M600 791.5c-1.2 3.1.3 7.5 2.5 7.5.8 0 1.5.9 1.5 2.1 0 1.6-.4 1.9-2 1.4-1.4-.5-2-.2-2 .9 0 2.1 4.6 2.1 5.4 0 1.1-2.8.6-12-.6-13.2-1.9-1.9-3.8-1.4-4.8 1.3m4 2.6c0 3.8-2.4 3.5-2.8-.4-.2-1.9.1-2.7 1.2-2.7s1.6 1 1.6 3.1M631.3 790.5c-.3.9-.2 1.9.2 2.3s1 .1 1.2-.6c.3-.6.9-1.2 1.4-1.2s.7 3.1.4 7.2c-.4 6.7-.3 6.9.6 2.8.6-2.5 1.4-5.9 1.8-7.7.5-1.8.6-3.4.3-3.7-1.2-1.2-5.3-.5-5.9.9M643.2 790.2c-1.5 1.5-1.6 10.2-.2 12.9 1.3 2.3 3.6 2.5 4.4.3 1.8-4.7.2-14.4-2.4-14.4-.3 0-1.1.5-1.8 1.2m3.4 3.2c.8 3.5.1 8.9-1.3 9.4-1 .3-1.3-1.3-1.3-5.7 0-6.1 1.4-8.2 2.6-3.7M590.7 794.8c-2.8 5.2-2.8 5.2-.5 6.1 1.3.4 2.3 1.4 2.3 2.2s.5 1.6 1 1.9c1.2.6 1.3-2.5.5-10.1l-.6-5.4zm2.3 2.7c0 .8-.4 1.5-1 1.5-.5 0-1-.7-1-1.5s.5-1.5 1-1.5c.6 0 1 .7 1 1.5M622.8 794.4c-3 5.1-2.9 6.6.3 6.6 1.6 0 1.9.5 1.4 2s-.2 2 1 2q1.65 0 1.2-1.5c-.4-.8-.2-1.7.4-2.1q1.05-.6 0-1.8c-.5-.6-1.1-3.2-1.3-5.6l-.3-4.5zm2.2 3.1c0 .8-.7 1.5-1.5 1.5-.9 0-1.2-.6-.9-1.5.4-.8 1-1.5 1.5-1.5s.9.7.9 1.5M610.5 798c.3.5 1.7 1 3.1 1 1.3 0 2.4-.5 2.4-1 0-.6-1.4-1-3.1-1s-2.8.4-2.4 1M152.3 840.5c0 18.7.3 38.3.7 43.5.9 12.8 1-34.7.1-59.5-.7-15.9-.8-14.1-.8 16M166.7 850.7c-.4.3-.7 5.5-.7 11.4 0 9.7.2 10.9 2 11.9 1.2.7 16.3.9 44.7.8l42.8-.3.3-11.4c.2-8.5-.1-11.7-1-12.3-1.5-.9-87.2-1.1-88.1-.1m86.1 12.1.3 10.2-37.8-.2c-20.8-.1-39.9-.4-42.5-.6l-4.8-.4V852l42.3.2 42.2.3z"/><path d="M176.7 854.7c-1.2 1.2-.7 2.2.8 1.7 1.8-.7 2.1 2.6.3 4.4-.9.9-.7 1.3.5 1.8 1.7.6 2.3 3.5 1 4.7-.3.4-1.2.2-2-.5-2-1.6-2.5-.5-.9 1.8 1.3 1.7 1.6 1.7 3 .4 1.3-1.2 1.4-2.9.9-8.3-.5-6.2-1.6-8-3.6-6M186.9 855.6c-1.2 1.5-1.1 1.6.9 1 1.7-.6 2.2-.3 2.2 1.1 0 1.1-.5 2.4-1.2 3.1-.9.9-.7 1.3.5 1.8 1.9.7 2.3 3.9.6 4.9-.6.4-1.7-.1-2.4-1.1-1.2-1.6-1.4-1.7-1.5-.3 0 2.2 2.6 4.3 4.5 3.5 1.2-.4 1.4-2 1.2-6.8-.3-8.5-1.9-10.7-4.8-7.2M209 856.6c-2 5.2-.5 13.4 2.5 13.4 1.9 0 3.6-4 2.8-6.9-.3-1.1-1.4-2.3-2.4-2.6-1-.4-1.9-1.5-1.9-2.6 0-2.2 1.1-2.4 2.8-.7.9.9 1.2.8 1.2-.4 0-1.3-1.9-2.8-3.6-2.8-.3 0-.9 1.2-1.4 2.6m3.5 8.2c0 3.1-1.9 2.8-2.3-.4-.3-1.8 0-2.5 1-2.2.7.3 1.3 1.4 1.3 2.6M219.8 856.5c-1.4 3 .3 7.5 2.8 7.5.9 0 1.4.7 1.2 1.7-.2 1.1-1.1 1.7-2.1 1.5-2.2-.4-2.2 1.7-.1 2.5.9.3 2 0 2.5-.8 1-1.6 1.2-10.9.3-13.3s-3.3-1.9-4.6.9m4.2 2.5q0 3-1.5 3c-1.8 0-3-2.4-2.1-4.5 1-2.8 3.6-1.7 3.6 1.5M230.7 854.7c-1.4 1.3-.6 2.4 1.3 1.8 1.5-.5 2-.2 2 1.2 0 1.1-.6 2.5-1.2 3.2-1.1 1-1 1.4.5 2.2 1.9 1.1 2.1 1.8.7 3.9-.8 1.3-1.1 1.2-2.4-.5s-1.5-1.7-1.6-.4c0 2.6 2.7 4.4 4.4 3 1.6-1.3 1.7-11.5.3-13.9-.9-1.3-3-1.6-4-.5M242.7 856c-1 3.1-2.7 10.9-2.7 12.5 0 .9.5 1.3 1 1 .6-.3 1-1.5 1-2.6 0-2.8 3.4-2.1 3.8.9.2 1.2.8 2.2 1.4 2.2.5 0 .7-.8.4-1.7-.4-.9-1.1-3.7-1.7-6.1-.5-2.5-1.4-5.2-1.9-6.1-.7-1.4-.9-1.4-1.3-.1m1 6.2c-.3.7-.5.2-.5-1.2s.2-1.9.5-1.3c.2.7.2 1.9 0 2.5M197.5 862c-.4.6.7 1 2.5 1s2.9-.4 2.5-1c-.3-.6-1.5-1-2.5-1s-2.2.4-2.5 1M731.7 868.1c-2.6 1.6-4.9 2.9-5.3 2.9-.3 0-3.2 1.8-6.4 4s-6.3 4-6.8 4-3 1.2-5.6 2.6c-4.4 2.5-7.6 6.6-7.6 9.7 0 .8-4.8 4.3-10.7 7.7-6 3.5-14.6 8.5-19.3 11.3-4.7 2.7-10.5 6.1-13 7.5-2.5 1.3-5.8 3.2-7.5 4.2-1.6 1-5.6 3.2-8.7 4.9-9.9 5.3-16 8.7-24.8 13.6-4.7 2.7-11 6.2-14 7.8-8.2 4.5-10 6.4-10 10.9 0 2.7.8 4.6 2.9 7 4.3 4.9 7.4 4.3 21.6-3.7 6.6-3.7 15.4-8.7 19.5-11s9.5-5.3 12-6.7 7-3.9 10-5.5c5-2.8 12.4-6.9 27.7-15.4 2.8-1.6 5.4-2.9 5.7-2.9s.6 18.2.6 40.4c0 26.7.4 40.7 1 41.1.7.5 1-12.7 1-41.1-.1-41.7-.1-41.7 2.7-43.6 7.3-5 11.8-6.6 17.8-6.5 5.2.1 6.6-.3 10.7-3.1 2.6-1.7 4.9-3.2 5.1-3.2.6 0 20-11 21.3-12.1 1.8-1.5 6.4-10.9 6.4-13.1 0-1 .5-2.8 1-3.9.8-1.3.7-2.5-.1-4.1-2.5-4.6-2.9-4.7-17.4-6.2-4.4-.4-5.7-.1-9.8 2.5m12 .9c3.6 2.1 7.4 7.6 9.2 13.2 1.3 4 .4 7-2.8 9.5-1.6 1.3-13.9 8.3-14.5 8.3-.2 0-.6-2-.9-4.5-.9-6.4-6.6-14.7-12.2-18.1-1.6-.9-.7-1.7 6.1-5.7 8.8-5.2 10.5-5.5 15.1-2.7m6.5.2c2.8 2.2 5.8 8.2 5.8 11.6 0 3.9-1.5 3.5-2.3-.6-.3-1.6-2.2-5-4.1-7.6-3.4-4.3-3-6.2.6-3.4m6.4 1.5c1.5 2 1.8 5.3.6 5.3-.8 0-1.6-1.4-4-6.3-.7-1.5 2.1-.6 3.4 1m-33.1 9.5c1.4.6 2.5 1.5 2.5 2 0 1.1-1.7 1-2.5-.2-.3-.5-2-1.4-3.8-1.9-2.4-.7-2.7-.9-1-1 1.2-.1 3.4.4 4.8 1.1m-6.2 2c5.4 2.8 10.6 11.7 10.7 18 0 3.3-.5 4.1-3.7 6.2-7.2 4.7-13.6 4.6-8.8-.1 3.1-3.2 3.2-5.5.1-10.7-3.2-5.4-6.6-7.4-10.2-5.7-1.5.6-2.9.9-3.2.6-.8-.8 1.9-5.3 3.5-5.9 1.7-.7 8.2 2.5 10.4 5 2.7 3 5.9 10.1 5.9 12.9 0 1.4.5 2.5 1.1 2.5 1.5 0 .3-6.3-2.1-11-1.8-3.6-7.5-9.3-10.1-10.2-1.8-.6-.1-2.8 2.2-2.8 1.1 0 3 .5 4.2 1.2m9.7 5.4c1.9 2.7 3 5.5 2.9 7.6 0 3.2-.1 3.1-1.9-1.7-1.1-2.8-3.1-6.3-4.5-7.9-2.9-3.4-3-3.7-1-2.9.9.3 2.9 2.5 4.5 4.9m3.4.6c2.5 5 3.3 9.9 2 13.2-.3.9-1 1.4-1.4 1.1-.5-.3-.3-1.8.3-3.4 1.3-3.4-.4-9.8-3.5-13-2-2.2-2.3-3.1-.9-3.1.5 0 2.1 2.3 3.5 5.2m-17.5 6.5c3.5 4.2 4 8.2 1.4 10.5-1 .8-5.2 3.4-9.3 5.8-10.9 6.2-28.5 16.1-36 20.2-6.3 3.4-10.8 5.9-20.7 11.5-13.2 7.4-18.6 10.3-19 10.3-.3 0-1.7.8-3.1 1.8-4 2.8-16 9.2-17.2 9.2-.5 0-1-1-1-2.3s-1.6-4.2-3.5-6.5c-3.6-4.1-3.6-4.1-1.3-5.6 2.2-1.4 13.7-7.8 24.3-13.6 21.4-11.7 47.3-26.3 61.5-34.7 17.5-10.4 17.2-10.2 19.2-10.3.9 0 3 1.7 4.7 3.7m-106.8 66c1.6 5 .7 6.3-4.4 6.3-4.6 0-6.9-1.6-8.1-5.8-1-3.2.1-6 3.1-7.6 2.4-1.2 2.9-1.1 5.4 1.2 1.6 1.3 3.3 4 4 5.9M887.2 874c-.6 3.7-.1 71.5.6 72.2.4.4.6-11.5.4-26.5-.2-30.4-.7-47.9-1-45.7M210.4 889.8c.7 12.9.7 13.2-1.3 13.2-5.1 0-9.8 4.6-10.7 10.5-.3 2.4-1.5 5.2-2.5 6.1-2.1 1.9-2.5 6.4-.9 9.4 3 5.6 13.5 8.8 22.1 6.8 9.9-2.3 13.6-9.4 8.9-17-1.1-1.8-2-4.5-2-5.9 0-3.5-4.9-8.7-8.9-9.5-3.1-.7-3.1-.7-3.1-13 0-8.2-.4-12.5-1.1-13-.9-.5-1 2.6-.5 12.4m7.6 17c2.3 1.9 2.3 1.9 0 4-4.1 3.8-15 2.1-15-2.3 0-3.7 11.1-4.9 15-1.7m-13.6 6.4c1.8 1.5 1.9 1.7.4 1.8-1.8 0-3.9-2.9-3.7-5.2 0-.9.2-.9.6.2.4.8 1.6 2.2 2.7 3.2m17.6-2.4c0 1.3-3.9 4.6-4.6 3.9-.3-.3.3-1.4 1.3-2.5 1.9-2.2 3.3-2.7 3.3-1.4m-17.7 5.7c4.6 1.9 10.4 1.9 14.1 0 3.8-2 4.9-1.9 4.1.5-.4 1.1-.2 2 .4 2s1.1 1.3 1.1 3c0 3.8-3.1 5.9-9.8 6.7-6.4.7-11.3-.2-14.2-2.7-1.9-1.6-2.1-2.5-1.5-5.7.7-3.7 1.3-5.3 1.9-5.3.2 0 2 .7 3.9 1.5m4.7-1c0 .3-.2.5-.5.5s-.5-.2-.5-.5.2-.5.5-.5.5.2.5.5m6.3.2c-.7.2-2.1.2-3 0-1-.3-.4-.5 1.2-.5 1.7 0 2.4.2 1.8.5m-13.5 13.1c2.1 1.2 3 2.2 2.2 2.2-3 0-8-3.9-7.9-6.2 0-2.3 0-2.3 1.1-.2.5 1.2 2.6 3.1 4.6 4.2m24.9-4.1c-.4.3-.7 0-.7-.7s.3-1 .7-.7c.3.4.3 1 0 1.4m-1.7 2.8c0 .2-1.5 1.2-3.2 2-3.3 1.6-3.3 1.6-.8-.4 2.4-2 4-2.6 4-1.6m-26 3c0 .3-.2.5-.5.5s-.5-.2-.5-.5.2-.5.5-.5.5.2.5.5m26-.1c0 .3-.5.8-1.2 1.2s-.8.3-.4-.4c.7-1.2 1.6-1.6 1.6-.8m-15.3 1.3c-.4.3-1 .3-1.4 0-.3-.4 0-.7.7-.7s1 .3.7.7m5.6 0c-.7.2-1.9.2-2.5 0-.7-.3-.2-.5 1.2-.5s1.9.2 1.3.5m-12.6 1c-.4.3-1 .3-1.4 0-.3-.4 0-.7.7-.7s1 .3.7.7m17.8.2c-1.6 1.5-6.5 2.5-6.5 1.3 0-.6 1.2-1.3 2.8-1.5 1.5-.2 3.1-.5 3.7-.6.6 0 .6.2 0 .8M208 934c0 .5-.7 1-1.5 1s-1.5-.5-1.5-1c0-.6.7-1 1.5-1s1.5.4 1.5 1m4 0c0 .5-.7 1-1.6 1-.8 0-1.2-.5-.9-1 .3-.6 1-1 1.6-1 .5 0 .9.4.9 1M153.8 930.5c.2 19.8.5 36.7.6 37.5.7 2.9.4-56.6-.3-65-.3-4.7-.5 7.7-.3 27.5M280 948.4c0 11.3 0 11.3 3.1 12 1.7.3 21.5.6 44 .6H368v-24h-88zm85.5.6v9.5h-83l-.3-9.8-.3-9.7 41.8.2 41.8.3z"/><path d="M301.3 940.7c-2.2.8-1.5 3.5.7 2.8 2.3-.7 2.7 1.3.8 3.4-1 1.1-1 1.4 0 1.8 1.2.5 1.8 5.3.6 5.3-.4 0-1.3-.8-2-1.8-1.2-1.6-1.3-1.6-1.4.4 0 2.9 3.1 4 4.7 1.8.9-1.2 1.1-3.5.7-6.9-.9-7.8-1.1-8.1-4.1-6.8M290 942.5c0 .9.6 1.2 1.5.9 1.7-.7 2.1 2.1.5 3.1-1.5.9-1.2 2.5.5 2.5s2 3.5.4 4.6c-.6.3-1.5 0-2-.7-.4-.7-1.1-1-1.5-.6s0 1.5.9 2.4c1.5 1.5 1.9 1.6 3.2.2 1.2-1.2 1.4-2.8.9-7.7-.6-5.1-1-6.2-2.5-6.2-1.1 0-1.9.7-1.9 1.5M321.6 942.8c-1.1 3.5-.9 10.1.4 11.7 2.6 3.1 5 1.2 5-4.1 0-1.6-.8-2.8-2.5-3.6-3.4-1.5-3.4-4.2 0-3.4 1.9.5 2.3.3 1.9-.9-.8-2.1-4.1-1.9-4.8.3m3.9 7.3c.8 2.3-.7 4.5-2.4 3.5-1.2-.8-1.5-3.9-.4-4.9 1.2-1.2 2.2-.7 2.8 1.4M332.1 943.2c-1.1 2.9-.3 5.7 2 7.1 2.6 1.6 2.5 4-.1 3.2-2.2-.7-2.6.5-.8 2.3.9.9 1.6.8 3-.5 1.8-1.6 2.5-9.2 1.2-12.7-.9-2.4-4.3-1.9-5.3.6m3.9 2.4c0 2.6-1.7 3.3-2.6.9-.8-2 .3-4.8 1.6-4 .5.3 1 1.7 1 3.1M344.6 948.7c.1 5.9.5 7.8 1.5 7.8.8 0 1.2-.7.9-1.5-.2-.8-.6-4.3-.8-7.8-.5-8.8-1.7-7.7-1.6 1.5M311.3 948.7c.9.2 2.5.2 3.5 0 .9-.3.1-.5-1.8-.5s-2.7.2-1.7.5M264 949.7c-.8.3-2.8 1.1-4.5 1.8-1.6.7-4.6 1.8-6.5 2.5-4.1 1.4-6.5 2.3-10 3.8-18.4 7.6-21 8-21 3.1 0-1.1-1.4-2.8-3.2-3.9-8.5-5.2-16.8.3-16.8 10.9 0 1.2-1.3 3.4-3 4.8-3 2.5-3 2.5-3 12.9s0 10.4 3.9 13.2c3.7 2.6 3.8 2.8 3.9 9.2.2 13.9 2.4 33.3 3.9 35.7 2.8 4.2 8.4 4.4 11.4.3 1.4-2 1.9-4.8 2.1-13.6.2-9 .1-10.8-1-9.8-1.7 1.7-7.5 2.8-10.4 1.9-4.3-1.4-4.8-2.4-4.8-10.7 0-7.2.2-7.9 1.8-7.3 4.8 2 7.1 2.2 10.6 1 4.3-1.5 4.4-1.5 4.9 6.5.3 3 .3 1.8.2-2.6-.3-7.8-.1-8.3 2.2-9.5 4-2.1 5.3-5.9 5.3-15.4 0-8.3-.1-8.8-3-11.7-1.7-1.7-3-3.7-2.8-4.5s2.6-2.4 5.3-3.5c2.8-1.1 5.9-2.4 7-2.9s4.7-1.8 8-2.9c3.3-1.2 6.9-2.5 8-3 10.4-4.2 13.3-5 19.1-5 3.6 0 6.4-.4 6.4-1 0-1-11.3-1.3-14-.3m-53.7 8.5c-2.4 1.1-3.2 4.8-1.1 4.8.6 0 .9.3.6.6-.9.8-4.8-1.5-4.8-2.8 0-1.6 3.2-3.7 5.5-3.7 1.9 0 1.8.1-.2 1.1m8 .2c2.4 1.9 2.1 4.1-.8 5.4-3.9 1.8-5.3 1.4-2.5-.7 2.4-1.9 2.4-2 .6-4-2.2-2.4-.3-2.9 2.7-.7m-3.5 2.3c.2.8-.6 1.3-2.2 1.3-2.6 0-4-1.2-2.9-2.4 1.1-1.1 4.6-.2 5.1 1.1m-4.2 5.3c2 .4 4.6.2 7-.6 2.2-.8 4-1.4 4.2-1.4.1 0 .2 1.1.2 2.3 0 3.1-3.5 4.7-10 4.7-3.7 0-5.5-.5-7-2-2.9-2.9-2.3-5.8.9-4.4.9.3 3 1 4.7 1.4m1.9 6.5c2.8 0 6.1-.4 7.4-.9 1.6-.6 2.1-.5 1.7.3-1.8 2.9-14.2 3-16.9.1-1-1-.8-1.1.8-.4 1.1.5 4.3.9 7 .9m-10.9 2.1c-1 3.8 1.6 7.1 6.5 8.4 8.2 2.2 16.2-1.2 16.2-6.9 0-1.7.3-3.1.7-3.1 1.6 0 3 2.7 3 5.6 0 8.5-19.4 11.4-28.4 4.3-3.2-2.5-3.3-5.5-.4-8.6 2.8-2.9 3.2-2.9 2.4.3m4.9 1.4c3 2.8 8.4 2.8 12.9.1 3.6-2.3 3.6-2.3 3.6.3 0 2.8-1.8 4.1-7.1 5.1-6.8 1.3-15.6-3-13.4-6.5.9-1.4 1.6-1.2 4 1m-6.4 9.7c1.4 1.7 1.9 10.6.7 11.8-.3.3-1.3-.1-2.2-1-1.1-1.1-1.6-3.4-1.6-7.1 0-5.7.7-6.5 3.1-3.7m28.8 1.5c0 4.3-2.1 10-3.6 10.6-1 .3-1.3-1.3-1.3-5.7 0-4.7.4-6.2 1.8-7 2.7-1.6 3.2-1.3 3.1 2.1m-14.2 1.2 7.1-.1.4 5.1c.3 2.8 0 5.7-.5 6.3-1.3 1.7-15.8 1.8-17.5.1-.7-.7-1.2-3.8-1.2-7.1 0-5.6.1-5.8 2.3-5 1.2.4 5.4.8 9.4.7m.6 15.7c-1.9.6-4 .5-5.5 0-1.8-.8-1.2-1 3.2-.9 5 0 5.2.1 2.3.9m4.7 27.7c0 5.5-.4 9.2-1.2 10-.7.7-3 1.2-5.3 1.2s-4.6-.5-5.3-1.2-1.2-4.4-1.2-9.6c0-8.5 0-8.5 3.3-8 1.7.3 4.3.2 5.7-.3 1.4-.4 2.8-.7 3.3-.8.4-.1.7 3.9.7 8.7M888.4 963.5c0 7.7.2 10.7.3 6.7.2-4 .2-10.3 0-14s-.3-.4-.3 7.3M154 981c0 3.3.4 6 1 6s1-2.7 1-6-.4-6-1-6-1 2.7-1 6M888 981.5c0 .3.2.5.5.5s.5-.2.5-.5-.2-.5-.5-.5-.5.2-.5.5M296 991c-2.7 3.7-2.9 10.7-.5 14.4 2.2 3.3 3.4 3.3 2.7.1-.2-1.4-.8-2.5-1.3-2.5-1.6 0-1-9 .7-11.6 2.4-3.6 1-4-1.6-.4M351 989.7c.1.5.7 1.9 1.5 3.3s1.4 3.9 1.5 5.7c0 3.5-1.8 8.3-3.2 8.3-.4 0-.8.4-.8 1 0 .5.5 1 1 1 1.8 0 5-6.4 5-10 0-1.9-.9-5-2-6.8-1.9-3.1-3-4-3-2.5M312.6 991.6c-.9.8-1.6 2.4-1.6 3.4 0 1.5-.9 1.9-4.7 2.2-5.9.4-5.9 2.3-.1 2.3 3.5 0 4.3.4 4.6 2 .9 4.5 4.1 5.8 7.4 2.8 1.7-1.5 1.9-1.5 3.6 0 2.5 2.2 4.9 2.1 6.2-.2 1.7-3.3 1.1-4.7-1-2.1-2 2.4-2.1 2.5-3.5.6-1.7-2.2-1.9-6.4-.5-8.6.8-1.2 1.3-1.3 3-.3 2.4 1.5 3 1.6 3 .4s-2.9-4.1-4-4.1c-1.8 0-5 4.4-5 6.8s-.1 2.5-2 .7c-1-.9-2.6-1.5-3.5-1.2-1.7.7-2-1-.5-3.3.8-1.2 1.1-1.2 2.8.3 2.4 2.2 3.7 1 1.5-1.5-2-2.2-3.7-2.3-5.7-.2m4.3 7.7c.8 1 .7 1.8-.3 3.2-1.5 2.1-3.6 1.3-3.6-1.4 0-3.1 2-4 3.9-1.8M331.6 991.9c-2.6 2.8-1.9 11.9 1.1 13.8 1.9 1.3 2.4 1.2 4.2-.6 2.9-2.9 2.9-10.3.1-13.1-2.5-2.5-3.2-2.5-5.4-.1m4.9 3.2c1 3-.3 8.9-1.9 8.9s-2.6-2.2-2.6-5.5c0-5.3 3.2-7.7 4.5-3.4M342.7 991.7c-.8 1.8.9 13.7 2.1 14.1.9.3 1.2-1.6 1.2-7.2 0-6-.3-7.6-1.4-7.6-.8 0-1.7.3-1.9.7M888.1 993.6c0 1.1.3 1.4.6.6.3-.7.2-1.6-.1-1.9-.3-.4-.6.2-.5 1.3M888.2 1032.7c-.2 25.3.1 37.3.8 37.3 1.2 0 1.2-48 0-64.5-.5-6.7-.7 2.2-.8 27.2M155.4 1025c0 12.4.2 17.4.3 11.2.2-6.1.2-16.3 0-22.5-.1-6.1-.3-1.1-.3 11.3M649.7 1004.6c-.4.4-.7 5.6-.7 11.5 0 9.7.2 10.9 2 11.9 1.2.7 16 .9 43.7.8l41.8-.3.2-11.6.3-11.6-6.8-.5c-10.7-.9-79.7-1-80.5-.2m64.1 2.1 20.2.6v19.7h-82v-21h20.8c11.4 0 29.8.3 41 .7"/><path d="M691.7 1008.7c-.4.3-.7 1.3-.7 2.1 0 1.2.3 1.2 1.5.2 1.3-1.1 1.5-.8 1.5 1.3 0 1.4-.6 2.8-1.2 3.1-.9.3-.8.8.5 1.6.9.6 1.7 1.7 1.7 2.5 0 2-2.1 3-3.1 1.4-.4-.7-1.1-1-1.5-.6-1.2 1.2 2.2 4 4 3.4 1.1-.5 1.5-2.1 1.4-6.9-.2-7.3-1.8-10.5-4.1-8.1M660.3 1012.5c-2.8 4.3-2.9 6.1-.3 6.8 1.2.3 2 1.4 2 2.6s.4 2.1.9 2.1.9-3.4.9-7.5-.3-7.5-.6-7.5c-.4 0-1.7 1.6-2.9 3.5m1.3 5.2c-1.1 1.1-1.9-.6-1.1-2.4.8-1.7.8-1.7 1.2 0 .3 1 .2 2.1-.1 2.4M671.5 1016.5c0 5.6.3 7.5 1.4 7.5.8 0 1.1-.6.7-1.6-.3-.9-.6-4.2-.6-7.5 0-3.2-.3-5.9-.7-5.9-.5 0-.8 3.4-.8 7.5M702.3 1014.1c-2.2 5-2.2 5.1-.3 5.6 1.1.3 2 1.4 2 2.4 0 3 1.8 3.1 2.2.2.4-4-.3-13.3-1-13.3-.4 0-1.7 2.3-2.9 5.1m1.7 3.1c0 1.6-.3 1.9-1.1 1.1-.6-.6-.8-1.6-.5-2.2 1.1-1.7 1.6-1.3 1.6 1.1M714 1009.2c-.1.2-.2 3.8-.3 8.1-.1 5.6.1 7.7 1.1 7.7 1.5 0 1.7-14.6.2-15.5-.5-.3-1-.5-1-.3M680 1016.4c0 1.1.9 1.6 2.6 1.6 3.1 0 2.8-2.3-.4-2.8-1.5-.2-2.2.2-2.2 1.2M280.2 1025.7l.3 11.8 43.8.3 43.8.2-.3-11.7-.3-11.8-43.8-.3-43.8-.2zm85.3-4.5c.4 2.9.5 7.5.3 10.3l-.3 5-39.5.2c-21.7.1-40.5 0-41.7-.3-2.2-.4-2.3-.9-2.3-10.4v-10h82.9z"/><path d="M300.2 1018.2c-.6.6-1.2 1.9-1.2 2.7 0 1.2.3 1.2 1.2.3 2.3-2.3 2.7-1.2 2.3 5.5-.4 4.9-.2 6 .4 4.1.5-1.5 1.1-5.1 1.3-8 .2-4.1 0-5.3-1.2-5.6-.9-.1-2.1.3-2.8 1M356 1023.9c0 3.8-.4 7.3-1 7.6-.5.3-1-.1-1-.9 0-.9-.5-1.6-1.1-1.6s-.8.7-.5 1.6.6 1.8.6 2c0 1.2 3.9.2 4.4-1.2 1-2.6.7-13.2-.4-13.9-.6-.4-1 2-1 6.4M291.7 1025.3c.1 3.9.5 7.4.9 7.7.9.6.5-13.2-.4-14.2-.4-.4-.7 2.5-.5 6.5M321.6 1019.6c-.4 1.2-.1 1.4 1.4.9 2.2-.7 2.7.9 1 3.5-.6 1-.4 2 .7 3.2 1.3 1.4 1.3 2 .3 3.3-1.1 1.4-1.4 1.3-2.7-.2-1.4-1.7-1.4-1.7-.9 0 .3 1 .6 2.1.6 2.3 0 1.1 3.8.2 4.3-.9.6-1.7 0-11.4-.8-12.7-.9-1.5-3.2-1.2-3.9.6M344 1025.4c0 6.5.8 9.5 2.1 8.2.8-.8-.3-15.6-1.2-15.6-.5 0-.9 3.3-.9 7.4M333.1 1023.5c-2.2 4.5-2.1 6.5.3 6.5.8 0 1.7 1 2.1 2.2.6 2.3.6 2.3 1.4-.2.8-3 .2-13-.8-13-.4 0-1.8 2-3 4.5m1.5 4.2c-1.1 1.1-1.9-.6-1.1-2.4.8-1.7.8-1.7 1.2 0 .3 1 .2 2.1-.1 2.4M310 1026c0 .5 1.4 1 3 1 1.7 0 3-.5 3-1 0-.6-1.3-1-3-1-1.6 0-3 .4-3 1M254.3 1035.8c-6.2 5.9-17.2 16.6-24.6 23.9-10.5 10.4-13.7 13.1-15.3 12.7-2.6-.7-5.4 1.9-5.4 5 0 2.6 2.8 5.6 5.3 5.6 2.4 0 4.9-4.3 4.2-7.2-.5-2.1 2.3-5.3 23-25.6C265 1027 265 1027 271 1027c3.2 0 6.2-.5 6.5-1 .4-.6-1.7-1-5.7-1-6.3 0-6.3 0-17.5 10.8m-37.2 39.8c2.6 3.1-2.5 7-5.6 4.4-1.8-1.5-1.9-4.7-.2-5.3 2.4-1 4.5-.7 5.8.9M424.5 1047.3c-1.1.6-3.1 1.2-4.4 1.2s-2.6.5-2.8 1.1c-.2.7.5 1 2.1.7 6.3-1.2 15.2 9.1 14.4 16.7-.4 4.2.6 5.4 1.7 2.1 1.3-4.2-2-12-7.3-16.9-1.9-1.8-3.2-3.5-2.9-3.9 1.5-1.4 7.2 1.5 10.1 5.1 2.6 3.2 3.1 4.6 3.1 9.2 0 4.7.2 5.2 1.3 3.7 2.9-3.9-1.2-13.5-7.6-17.8-4.1-2.8-4.9-2.9-7.7-1.2M155 1048.5c0 .3.2.5.5.5s.5-.2.5-.5-.2-.5-.5-.5-.5.2-.5.5"/><path d="M410 1051.9c0 .6-1.9 1.1-4.2 1.3s-4.3.8-4.5 1.4.8.9 2.5.6c5.4-.8 13.3 5.2 17 12.8 1 2 1.7 5.9 1.7 9.2 0 3.6.4 5.3.9 4.8 1.7-1.7.9-10.3-1.3-14.3-3.8-6.8-5.1-8.5-8.6-10.9-4.1-2.8-4.4-3.8-1-3.8 8.3 0 17.9 12.4 15.9 20.5-.4 1.5-.2 2.5.5 2.5 2 0 1.3-9.2-1-13-2.8-4.7-6.8-8.9-10.1-10.6-3.1-1.6-7.8-1.9-7.8-.5M155 1054.5c0 .3.2.5.5.5s.5-.2.5-.5-.2-.5-.5-.5-.5.2-.5.5"/><path d="M392.4 1056.4c-1.7 1.3-1.6 1.4 2.1.9 8-1 19.7 9.8 22.7 21.1 1 3.9 1 5-.5 8.1-.9 1.9-1.2 3.5-.7 3.5 1.8 0 3.2-5.4 2.7-10.1-1-8.4-8.7-18.8-17-22.8-5.1-2.5-6.7-2.6-9.3-.7M155 1060.5c0 .3.2.5.5.5s.5-.2.5-.5-.2-.5-.5-.5-.5.2-.5.5M372.7 1065c-1.5 1.2-4.1 2-6.4 2-3.8.1-7.3 1.8-7.3 3.8 0 .6-1.5 1.3-3.2 1.7-6.8 1.5-11.9 8.7-11.9 16.8 0 5.6 2.8 14.8 4.8 15.4.7.3.4-1.1-.7-3.5-7.7-16 1-30.2 16-26.2 5.4 1.5 14.6 10.4 17.9 17.4 3.9 8.4 4.1 18.5.3 20.5-3.4 1.8-7.6-.1-13.9-6.6-3.5-3.4-6.3-7-6.3-7.8s-.4-1.5-.8-1.5c-1.2 0-5.2-12-5.2-15.7 0-1.7-.5-3.5-1.2-3.9-.8-.5-.9.7-.5 4.6 1.8 15.1 18.4 35.6 27 33.5 6.1-1.6 7-13.3 1.8-23.5-3.4-6.7-10.9-15.3-15.3-17.6-1.5-.8-3.8-1.4-5.3-1.4-2.7 0-3.2-.9-1.3-2.8 1.7-1.7 10.4-1.5 14 .4 5 2.6 12.6 10.3 16 16.3 2.8 4.7 3.3 6.6 3.3 12.2 0 6.8-.9 8.6-5 10.4-2 .8-2 .8 0 1.3 3.4.8 6.5-4.4 6.5-11.1 0-10.6-9.6-25.4-19.5-30.1-6.6-3.2-2.7-5.7 5.4-3.5 12.5 3.5 24.5 25.2 18.5 33.7-.9 1.3-1.4 2.6-1.1 2.9 1.1 1 2.4-.6 3.7-4.6 4-12.2-13-35.1-26-35.1-1 0-2.9.9-4.3 2M156 1072.5c0 .3.2.5.5.5s.5-.2.5-.5-.2-.5-.5-.5-.5.2-.5.5"/><path d="M374 1075.2c0 1.5.5 3 1 3.3 1.3.8 1.3-2.5 0-4.5-.8-1.2-1-.9-1 1.2M156 1075.5c0 .3.2.5.5.5s.5-.2.5-.5-.2-.5-.5-.5-.5.2-.5.5M156 1078.5c0 .3.2.5.5.5s.5-.2.5-.5-.2-.5-.5-.5-.5.2-.5.5M365 1080.2c0 2.7 3 9.8 6.6 15.3 3.4 5.3 10.4 12.6 10.4 10.9 0-.6-.9-1.9-2.1-3-4.4-3.9-8.3-9.8-11.5-17.2-1.9-4.2-3.4-6.9-3.4-6M889.3 1088c0 3 .2 4.3.4 2.7.2-1.5.2-3.9 0-5.5-.2-1.5-.4-.2-.4 2.8M156 1086c0 .7.3 1 .7.7.3-.4.3-1 0-1.4-.4-.3-.7 0-.7.7M304 1092.9c-3.3.8-8.9 3.8-23.7 12.7-6.8 4.1-12.5 7.4-12.7 7.4s-3.4 1.8-7 4-7.2 4-8 4-3.8-1.4-6.6-3c-2.8-1.7-5.3-3-5.5-3s-3.1-1.7-6.4-3.8c-11.4-7.4-24-7.8-35.7-1.2-8.7 5-8.8 5.4-9.4 28.4-.5 19.9-.5 19.9-4.3 21.9-2.1 1.1-5 3.5-6.5 5.5-2.4 3.1-2.7 4.4-2.7 11.1.1 8.8 2.6 16.2 8.6 25.1 6.7 10 12.9 15.2 21.7 18 4.9 1.6 3.9 2 27.3-11.2 3.9-2.2 3.9-2.2 5.6.2 4.1 5.9 10 12.5 11.4 12.8 2.2.4 12.9-6.4 18.5-11.6 2.7-2.6 8.5-8.8 12.9-13.7 7.9-8.9 14.4-16.1 23.7-26 2.6-2.8 6.5-6 8.5-7.2 25.5-13.8 26-14.3 27-23.5.7-6.7-1.6-16.1-5.9-24.6-7.4-14.6-21.2-24.6-30.8-22.3m11.3 3.6c4.8 2 13.4 10.7 17.5 17.7 4.3 7.3 3.7 9.4-.8 3.3-1.9-2.6-4.2-5-5-5.5-.9-.5-3.7 0-7 1.2-4.5 1.7-7.4 4-16 12.7-5.8 5.8-13.3 13.7-16.5 17.4-3.8 4.4-7 7-8.7 7.4-3.2.6-3.8 2.3-.8 2.3 2.4 0 5.3-2.7 19.8-18.6 12.2-13.3 19.9-19.3 25.9-20.1 3.3-.4 4.2-.2 5.5 1.8.9 1.3 2.7 3.7 4.2 5.4 3.2 3.7 3.3 5.5.4 5.5-4.6 0-11.3 5.6-24.8 21-4.1 4.6-7.9 8.9-8.5 9.6-.5.6-5.5 6.1-11 12.3-10.1 11.4-11.2 12.2-27.5 20.8-3 1.6-7.4 4.1-9.7 5.6-2.4 1.5-4.5 2.7-4.7 2.7s-5.9 3.1-12.6 7c-6.7 3.8-12.5 7-12.8 7-.4 0-.7-4.4-.7-9.8 0-8.9-.3-10.3-3.2-16.5-1.8-3.8-4.6-8.6-6.3-10.7-1.6-2.1-3-4-3-4.3 0-.2 2.5.4 5.7 1.4 6.1 2 13.3 2.5 13.3.9 0-.6-1.6-1-3.5-1-4.1 0-13.5-2.4-17.7-4.5-4.7-2.3-5.7-1.8-2.2 1.3 4.5 3.9 10 11.5 13 18 3.4 7.3 4.4 19 2.1 24.4-5.1 12.2-22.7 6.9-34.5-10.4-12.6-18.4-11-39.8 2.9-39.8 2.2 0 4.9.5 6 1 2.8 1.6 2.3.2-1.1-3-3-2.8-3-2.8-3-21.9 0-12.1.4-19.1 1-19.1s1 .6 1 1.4c0 2.2 4.8 7.4 8.3 9 6 2.6 10 3.6 15.1 3.6 9.1 0 18.4-4 21.6-9.3 2-3.2 2-3.2 2 16.8-.1 14.8-.5 21-1.5 24-1.7 4.6-1.9 6.4-.7 4.9 2.8-3.2 3.7-10.6 3.7-31.2 0-11.6.1-21.2.2-21.2s1.8.9 3.8 2c1.9 1.1 5.1 2.9 7 4 6.5 3.6 11.5 7.3 11.5 8.2 0 1.1-8.3 16.9-10.6 20.3-1.6 2.3-1.9 8.1-.4 9 .6.4.7-.5.4-2.3-.4-1.8.1-4 1.3-6.3 7.6-13.5 11.4-21.2 11-22.2-.2-.7-2.6-2.3-5.1-3.6-2.6-1.2-4.5-2.8-4.4-3.3.3-.9 9-6.2 29.6-17.9 1.8-1.1 4.5-2.7 6-3.7 9.5-6.2 17.3-7.7 24.5-4.7m-84.6 14.3c2.4 1.2 5 3.4 6 4.8 1.6 2.5 1.6 2.8-.3 6.3-7 13.1-39.6 11.5-42.8-2.1-.9-3.8 3.3-8.4 9.2-10.3 7.1-2.2 22.5-1.5 27.9 1.3m107.3 19c0 1-.8 2.7-1.7 3.8-1 1.1-5.2 5.8-9.3 10.4-4.1 4.7-8.4 9.4-9.5 10.6s-4.9 5.4-8.5 9.4-6.9 7.8-7.5 8.4c-12.1 13.2-22.8 25-26 28.5-8.8 9.8-18.3 17.3-23.8 18.6-3.4.9-3.7-1.4-.7-5.2 2.6-3.3 28.1-31.3 34-37.3.3-.3 3.9-4.3 8-9s8.2-9.2 9-10c.9-.8 4.9-5.3 9-10 8.9-10.1 14.9-15.8 17.3-16.6.9-.3 1.7-.9 1.7-1.4 0-.8 2.5-1.6 6.3-1.9 1 0 1.7.6 1.7 1.7m2 7.6c0 4.1-2.2 9.6-4.7 11.7-1 .8-4.3 2.9-7.3 4.5-3 1.7-7.2 4.1-9.2 5.3-2.1 1.3-3.8 1.9-3.8 1.4 0-.4 2.7-3.7 6-7.3s8.5-9.5 11.7-13.1c3.2-3.7 6.1-6.4 6.6-6.2.4.2.7 1.9.7 3.7m-67.7 51c-.4.7-5.2 6.1-10.5 11.8-5.4 5.8-10.7 11.8-12 13.4-1.2 1.6-2.3 3.1-2.5 3.3-.2.3-1.1-.6-2.1-1.8-.9-1.3-2.7-3.5-3.9-5.1-1.3-1.5-2.3-3.2-2.3-3.7 0-.8 31.6-19.1 33.3-19.2.4-.1.4.5 0 1.3"/><path d="M209.4 1113c-4.7 1.5-7 4.5-5.8 7.8 2.9 8.3 22.3 7.6 22.4-.9 0-5.4-9-9.2-16.6-6.9m14 4c2.7 2.7 1.6 3.3-2.7 1.5-4.4-1.8-7-1.8-12.2 0-4.4 1.6-5.4 1.3-3.5-1 3.1-3.8 14.7-4.1 18.4-.5m-1.1 3.9c1.7 1.7-.5 3.3-5.7 3.8-4.5.5-10.6-1.1-10.6-2.8 0-2.6 13.9-3.4 16.3-1M324 1136.8c-4.2 4.1-5.1 6.2-2.4 6.2 3.6 0 12.1-7.1 10.9-9-1.2-2-4.5-.9-8.5 2.8m6-.9c0 1.3-5.4 5.1-7.2 5.1-.7 0 .2-1.4 2-3 3.3-3 5.2-3.8 5.2-2.1M258.2 1209c-2.3 1.7-4.2 3.7-4.2 4.5 0 2.5 4.3 1.7 8.3-1.6 6.9-5.7 3.3-8.3-4.1-2.9m3.5 1.5c-2.5 2.2-5.7 3.3-5.7 2 0-.8 6.3-4.5 7.5-4.5.6.1-.3 1.2-1.8 2.5M889.3 1113.5c0 11 .3 23.4.7 27.5.9 10.3 1-18.8 0-35.5-.6-11.1-.7-10.5-.7 8M387 1097.5c0 1.1 5.5 5.3 6.2 4.8.5-.2-.5-1.5-2.1-2.9-2.8-2.4-4.1-2.9-4.1-1.9M156.2 1160.5c.1 23.7.6 44.8 1 47s.5-16.9.2-42.4c-.2-25.5-.7-46.7-1-47s-.4 18.8-.2 42.4"/><path d="m890.2 1188.9-.2 40.4-311.2-.8c-171.2-.4-314.7-.8-318.8-.9s-28.7-.3-54.7-.4c-44-.2-47.2-.3-47.6-2-.3-1.2-.5-1.3-.6-.2 0 .8.3 2 .7 2.6 1 1.6 96.3 2.2 443.9 3 236.9.6 287.5.5 288.8-.6 1.4-1.1 1.6-4.9 1.4-29.9-.1-15.7-.5-33.8-.9-40.1-.4-7.7-.7 1.7-.8 28.9M157 1214.5c0 .3.2.5.5.5s.5-.2.5-.5-.2-.5-.5-.5-.5.2-.5.5M202.5 1243.9c-1.1 1-15.5 10-21.5 13.3-1.9 1.1-4 2.4-4.6 2.9-1.6 1.3-2.4 0-2.4-3.5 0-3.2-3.3-6.6-4.5-4.6-.4.6-3.8 7.2-7.7 14.8-3.9 7.5-7.6 14.7-8.4 15.8-1.2 2.1-.3 4.4 1.8 4.4.4 0 3.1 1.4 6 3.1 9.6 5.7 13.7 7.9 14.7 7.9.7 0 1.1-2.4 1.1-6 0-5.9 0-5.9 6.8-10.2 8.7-5.6 20.7-13 23.6-14.5 4.2-2.3 4.5-3.2 3.4-12.7-.7-6.4-1.4-9.4-2.6-10.3-2-1.5-4.4-1.7-5.7-.4m6 10c.4 3.8.4 7.8.1 8.8s-3 3.1-5.8 4.8c-9 5.1-10.5 6.1-17.5 10.5-3.7 2.4-7.8 4.9-9 5.7-1.9 1.1-2.3 2.2-2.3 6.3 0 2.8-.2 5-.5 5-.2 0-2.6-1.2-5.2-2.8-2.6-1.5-6-3.4-7.5-4.1-3.5-1.8-3.5-3.3.1-9.6 1.5-2.8 4.3-7.7 6.1-11s3.9-6.7 4.6-7.5c1.2-1.2 1.4-.9 1.4 2.2 0 2 .3 3.9.8 4.1.4.3 3.9-1.5 7.7-3.9 3.9-2.5 7.9-4.9 9-5.4 1.1-.6 5.1-3 9-5.5 3.8-2.5 7.3-4.5 7.6-4.5.4 0 1 3.1 1.4 6.9"/><path d="M200.3 1252.7c-2 1.3-2.3 2.4-2.3 8.5v6.9l3.9-2.2c5.8-3.2 7.6-8.3 4.5-12.7-1.8-2.6-3.1-2.7-6.1-.5m4.5 5c.3 2.9-1.8 6.3-3.9 6.3-1.4 0-1.1-8.8.4-9.3 2.2-.9 3.2-.1 3.5 3M194.8 1256.6c-.5.4-.8 2-.8 3.6 0 3.3-1.6 3.7-2.5.7-1-2.9-2.9-1.8-3.3 1.9s-1.7 4.2-2.7.9c-.4-1.5-.8-1.8-1.2-.8-.6 1.6 1.7 12.1 2.7 12.1 1.6 0 3-2.7 3-5.7 0-1.8.5-3.3 1-3.3.6 0 1 .6 1 1.4 0 .7.7 1.9 1.5 2.6 1.2 1 1.6.9 2-.2.9-2.2.1-14.1-.7-13.2M178.5 1266.6c-1.1.8-2.6 1.9-3.3 2.3-1 .6-1.2 2.3-.6 6.9.6 6 2.4 8.7 2.4 3.7 0-1.5.9-3.1 2.5-4.1 1.4-.9 2.5-2.3 2.5-3 0-1.6-1.6-1.9-2.5-.4-.3.5-1 1-1.6 1-1.9 0-.8-2.4 2.4-5.1 3.4-3 1.8-4.1-1.8-1.3"/></svg>