<svg xmlns="http://www.w3.org/2000/svg" viewBox="0 0 866.752 1215.957" fill="currentColor"><path d="M87.77 76.661c-.3.401-3.895 2.51-7.99 4.619-4.095 2.209-8.49 4.619-9.687 5.622-2.196 1.605-2.196 1.605.112 5.5 7.428 12.082 15.253 23.365 16.353 23.362 2-.004 3.695-2.208 3.69-4.708-.007-2.8.193-2.8 4.8-.011 2.003 1.295 8.51 4.88 14.418 7.967 9.11 4.78 11.112 5.475 13.31 4.67 2.398-.905 2.498-1.306 2.48-9.406l-.02-8.4-9.712-5.278a2374 2374 0 0 0-17.521-9.26c-7.809-3.982-7.809-3.982-7.822-9.782-.012-5.2-1.017-7.198-2.411-4.895m-1.382 8.204c.312 5.199.312 5.199 11.325 11.074 6.108 3.186 13.617 7.069 16.72 8.562 5.706 2.687 5.706 2.687 5.824 10.387.01 4.3-.383 7.8-.783 7.802-.5 0-4.404-1.99-8.81-4.48-4.306-2.49-11.214-6.175-15.219-8.266-4.705-2.39-7.01-4.184-6.711-4.985.298-.8.495-2.3.492-3.4-.004-1.7.196-1.801 1.498-.804.902.698 1.902.895 2.302.495.399-.401-.304-1.4-1.505-2.197-2.805-1.894-3.009-3.693-.307-2.8 1.1.298 2 .196 2-.304-.002-.7-1.805-1.896-6.31-3.986-.5-.198-.693 2.802-.484 6.702.108 3.9.016 7.1-.384 7.1-.5.002-.796 1.702-.792 3.702.009 3.8.009 3.8-3.304-1.692a5149 5149 0 0 1-7.527-11.883c-2.308-3.495-4.215-6.69-4.216-7.09 0-.4 2.396-1.806 5.293-3.313 2.797-1.406 6.092-3.314 7.19-4.116 2.995-2.307 3.396-2.008 3.708 3.492"/><path d="M95.727 101.943c.407 2.9.813 5.899 1.015 6.498.705 2.199 2.303 1.395 2.997-1.407.495-2.1.794-2.401 1.597-1.203.502.699.906 2.598.909 3.998.011 5 2.61 4.094 3.897-1.31 1.188-5.502.683-7.5-1.21-4.296-1.095 1.902-1.196 1.802-1.702-.897-.507-3.098-3.01-4.893-3.005-2.193.006 2.7-1.796 1.804-2.202-1.095-.203-1.4-.907-2.798-1.607-3.096-1-.298-1.198.803-.689 5.001M109.142 108.413c-.282 8.1.42 9.3 5.32 9.288 2.1-.005 2.9-.607 3.395-2.408.892-3.902.087-5.9-3.518-8.292-4.607-3.09-5.107-2.888-5.197 1.412m5.2.288c1.202.697 1.905 2.096 1.91 4.096.006 2.6-.293 3-2.194 2.705-1.9-.196-2.402-.995-2.61-4.094-.308-4-.109-4.2 2.894-2.707M257.469 384.577c-.299.7-.386 6.201-.272 12.3l.225 11 44.3.2 44.2.1-.026-11.9-.028-12-10.2-.277c-5.7-.187-25.501-.342-44.102-.5-27.3-.238-33.8-.024-34.097 1.077M336.172 386l6.801.384-.278 9.6-.278 9.701-41-.107-41-.106-.02-8.3c-.01-4.6.08-9.1.377-10.101.297-1.701 2.396-1.806 34.497-1.679 18.7.158 37.2.416 40.901.608"/><path d="M266.885 391.856c.01 4 .21 4.5 2.21 4.195 2.5-.206 3.404 1.892 1.81 4.296-.797 1.302-1.098 1.202-2.502-.495-1.504-1.996-1.604-1.896-1.298.503.204 1.9.905 2.498 2.805 2.494 2.2-.005 2.5-.506 2.79-4.306.292-3.701-.01-4.3-2.311-5.195-2.903-1.094-2.507-2.994.593-3.001 1-.003 1.898-.705 1.897-1.505q-.004-1.5-3.004-1.493c-2.9.007-3 .207-2.99 4.507M277.886 391.93c.009 4.1.21 4.5 2.008 3.896 1.7-.504 2-.204 2.006 2.496s-.193 3-1.895 2.004c-2.203-1.095-3.4-.092-2.196 1.905.501.699 1.902 1.096 3.202.893 2.1-.305 2.398-.806 2.389-4.806-.009-3.9-.31-4.499-2.21-4.795-3.202-.492-3.008-3.193.192-3.2 1.6-.004 2.499-.606 2.496-1.506q-.003-1.5-3.003-1.493c-2.9.007-3 .207-2.99 4.607M300.686 392.28c-3.386 6.207-3.484 7.007-.184 7 2.1-.005 2.401.394 1.905 1.995-.497 1.501-.196 2 1.204 1.998 1.4-.004 1.799-.705 1.694-3.004-.104-1.7-.213-5.3-.319-8-.006-2.8-.411-4.999-.811-4.998-.5.001-1.995 2.305-3.489 5.008m2.207 2.994c.003 1.1-.695 2.002-1.495 2.004-1.3.002-1.301-.298-.305-2 .698-1.101 1.396-2.003 1.496-2.003.2 0 .302.9.304 2M311.777 388.254c-.287 5.8.034 15 .534 14.999l1.4-.003c.4-.001.592-3.602.382-8.001-.21-4.4-.818-7.998-1.318-7.997-.5 0-.9.402-.998 1.002M320.88 389.833c-2.484 6.606-.065 15.1 3.73 12.792 2.097-1.305 2.977-10.207 1.27-13.403-1.507-2.797-3.906-2.491-5 .611m3.913 5.391c.009 3.9-1.282 7.903-1.985 6.405-.904-1.598-1.119-8.198-.424-10.5.993-3.001 2.499-.505 2.41 4.095M288.695 396.006c1.2.198 3.2.193 4.5-.01 1.2-.203.199-.4-2.301-.395s-3.5.208-2.2.405M302.75 420.475l-.276 10.3-19-.057c-10.4-.076-43.501-.201-73.501-.333l-54.501-.276-.138 27.2c-.064 16 .261 27.3.861 27.298.5 0 .875-11.102.84-26.402l-.06-26.5 52.801.38c29 .135 93.402.389 143.202.576 49.8.087 90.601.294 90.801.294.1 0 .254 23.599.32 52.499.106 46.9-.082 52.5-1.482 52.503-12.1.028-44.592 3.602-65.884 7.15-33.287 5.776-56.071 12.627-80.844 24.683-29.467 14.367-46.431 30.306-54.283 51.424-2.187 5.805-2.481 8.305-2.458 18.705.03 13.1 1.95 22.196 6.974 32.485 3.818 7.991 12.744 19.27 20.258 25.754 10.22 8.777 11.223 9.874 11.83 13.073.404 1.699 2.01 4.295 3.713 5.792 8.618 7.88 11.326 11.274 14.843 18.666 4.923 10.289 6.94 17.784 7.666 29.183.828 12.498-.06 17.7-3.95 22.109-2.992 3.406-2.992 3.606-1.189 4.902 2.204 1.695 7.104 1.784 8 .282.898-1.302 2.4-.705 9.01 3.68 7.31 4.783 20.822 10.153 30.126 11.831 10.605 2.076 25.404 1.843 34-.377 3.797-1.008 10.091-3.623 13.886-5.731 22.273-12.15 36.055-20.082 36.653-20.983.398-.601.794-2.702.79-4.602-.008-3.4.39-3.701 12.774-11.03 6.991-4.115 13.381-8.33 14.38-9.232 1.097-1.102 1.89-4.204 2.28-8.605.49-4.701 1.184-7.203 2.382-7.906.899-.502 4.294-2.51 7.59-4.317s9.288-5.32 13.283-7.73c4.094-2.41 7.49-4.317 7.69-4.317.1 0 3.396-1.808 7.09-4.017 6.792-4.015 6.892-4.015 7.497-1.817.303 1.3.01 4.2-.686 6.502-.594 2.301-.89 4.402-.589 4.701 1.504 1.597 5.7.087 15.088-5.434 5.692-3.313 10.486-6.024 10.686-6.024s4.095-2.31 8.789-5.02c4.693-2.81 8.788-5.02 9.188-5.02.4-.002 1.202.796 1.904 1.695 1.204 1.597 1.504 1.596 5.4-.112 2.198-1.105 4.095-2.31 4.094-2.81-.001-.4.698-.801 1.598-.803.8-.002 7.192-3.417 13.983-7.532 6.79-4.116 12.583-7.529 12.783-7.53.3 0 4.994-2.71 10.586-6.023s10.286-6.024 10.486-6.024 4.894-2.711 10.487-6.024c5.592-3.313 10.486-6.024 10.986-6.025.4 0 3.294-2.707 6.287-6.014 4.09-4.41 5.983-7.414 7.074-11.416 4.465-15.31-1.584-36.797-15.526-55.565-5.818-7.787-17.043-18.661-22.55-21.949-2.203-1.295-4.907-3.089-6.01-4.086-5.11-4.489-44.14-17.8-60.547-20.763-34.814-6.121-51.918-7.882-76.518-7.826l-18.5.042-.12-53.3-.021-53.2-70.1-.141-70.001-.042-.024-10.5c-.031-13.7-1.832-13.895-2.2-.294m202.476 121.44c22.406 2.65 39.014 5.812 54.024 10.178 10.106 2.977 20.815 6.853 16.513 5.962-1.6-.296-10.401-.676-19.502-.855-22-.45-37.895 2.086-64.477 10.246-16.488 5.037-18.786 5.943-34.17 13.478-21.176 10.448-45.936 28.104-64.994 46.447-4.69 4.51-18.055 19.941-22.242 25.75-4.785 6.512-9.868 14.023-9.867 14.423 0 .2-1.892 3.704-4.282 7.81-11.953 20.627-21.989 49.05-25.635 72.858-3.548 23.108 4.707 47.09 19.226 55.657 5.107 3.088 5.208 3.288 2.408 3.294-8.3.02-30.22-8.531-38.835-15.112-2.203-1.695-4.207-3.19-4.207-3.19-.1-.1.493-3.301 1.284-7.103 5.342-25.612-9.043-63.08-27.663-71.937-2.303-1.095-4.507-2.79-4.809-3.79-.302-.899-.904-1.698-1.304-1.697-1.8.004-15.528-12.664-20.442-18.853-17.15-21.761-21.016-50.753-9.664-71.879 6.772-12.715 15.251-21.634 28.93-30.665 28.658-18.765 63.632-30.545 113.214-38.257 37.987-5.786 82.685-6.888 116.494-2.765m70.442 18.24c17.106 2.662 32.225 10.828 44.755 24.2 15.939 16.963 23.979 34.745 24.02 52.845-.067 14.4-3.854 20.509-18.434 29.342-10.485 6.224-39.547 23.09-39.947 23.09-.2 0-2.597 1.306-5.394 2.913-5.592 3.412-4.79 4.11-8.716-7.28-1.309-3.898-2.117-7.296-1.718-7.697.5-.4 9.587-6.021 20.272-12.546 11.984-7.227 20.87-13.347 23.164-15.852 5.387-5.913 8.07-13.519 7.551-21.618-1.037-16.297-17.784-37.06-37.204-45.815-10.811-4.976-13.912-5.469-33.713-5.524-15.4.035-20.299.446-28.995 2.266-11.694 2.527-33.58 8.676-38.375 10.787-1.699.704-5.595 2.413-8.592 3.62-2.997 1.206-9.99 4.522-15.483 7.435-8.59 4.52-13.982 7.832-26.463 16.36-15.676 10.735-38.621 34.888-51.577 54.417-21.427 32.049-33.73 74.877-27.385 94.862 2.518 7.695 9.736 15.478 16.44 17.663 5.505 1.888 13.504 1.47 17.998-.94 5.993-3.114 19.377-10.545 30.262-16.87 6.592-3.714 11.985-6.727 12.185-6.527.1.1-.089 4.8-.376 10.4-.474 11.402.223 10.3-10.164 16.024-35.854 19.981-39.151 21.389-51.251 21.416-14 .032-23.714-5.946-30.643-18.93-5.624-10.488-8.464-28.281-6.187-38.186.495-2.401 1.98-8.805 3.068-14.307 7.518-35.817 25.041-69.757 51.075-99.016 8.778-9.92 34.33-31.278 49.007-41.112 26.06-17.559 61.53-30.64 95.42-35.216 6.298-.915 12.596-1.729 13.996-2.032 4.298-.61 22.9.448 31.404 1.829m-12.26 17.629c16.204 1.963 28.218 7.935 39.945 19.709 5.312 5.388 8.823 10.08 12.036 16.073 4.118 7.79 4.52 9.09 4.435 15.49-.08 8.4-2.666 14.806-8.154 20.118-1.996 1.905-9.983 7.423-17.673 12.04-7.689 4.718-14.88 9.034-15.978 9.737-10.385 6.423-8.385 6.419-21-.153-13.016-6.87-9.616-7.178-27.493 2.963-5.194 2.911-10.587 6.024-11.985 6.727-1.398.803-4.295 2.41-6.492 3.715-2.197 1.205-6.691 3.715-9.987 5.522-3.296 1.908-6.392 3.715-6.99 4.116-.5.401-3.496 2.108-6.492 3.715-11.586 6.326-42.647 23.797-46.141 26.105-2.098 1.204-3.995 2.309-4.295 2.31-.2 0-3.896 2.008-8.09 4.518-4.094 2.509-7.69 4.517-7.89 4.518-1.5.003-12.483 7.428-12.48 8.428.001.7 3.507 3.292 7.813 5.882 4.206 2.59 8.812 5.48 10.114 6.477 2.405 1.895 2.405 1.895-3.487 5.308-3.296 1.908-6.692 3.815-7.59 4.418-4.994 3.01-18.177 10.34-24.57 13.755-6.192 3.214-8.39 3.82-13.29 3.83-12.1.028-20.919-8.052-23.85-21.745-2.122-9.796-1.923-10.296 5.468-14.113 3.696-1.908 11.885-6.427 18.277-10.141 6.392-3.615 14.78-8.434 18.576-10.543 14.083-7.732 40.349-22.591 54.93-31.124 14.58-8.433 19.973-11.546 31.46-17.872 2.996-1.607 5.992-3.313 6.49-3.714.6-.402 3.496-2.108 6.592-3.715 7.69-4.218 61.52-35.24 65.914-38.05 4.294-2.71 7.184-7.016 9.169-13.92 4.068-14.11-4.467-29.39-20.885-37.454l-8.01-3.981 6.6-.015c3.6-.009 10.402.476 15.003 1.066m-14.89 4.133c16.317 7.763 24.45 22.245 20.481 36.154-2.679 9.206-6.671 12.515-32.938 27.175-2.797 1.506-7.29 4.116-9.987 5.822-4.394 2.61-16.978 9.839-31.06 17.77-8.19 4.52-21.772 12.25-49.935 28.414-15.88 9.036-31.66 17.972-34.955 19.88-41.847 23.395-56.928 31.829-57.128 31.73-.502-.6 3.059-18.008 5.242-25.413 8.929-31.32 25.766-59.058 51.109-84.416 32.027-32.073 67.885-50.454 116.464-59.864 9.596-1.822 14.197-1.232 22.706 2.748m2.698 87.394c18.723 10.158 16.618 8.263 19.74 17.756 2.215 6.495 2.62 8.894 1.822 9.896-1.795 2.104-11.484 6.726-15.483 7.435-5.298.812-6.702-.785-6.717-7.485-.014-6.3-2.857-24.994-4.161-27.19-1.406-2.398-.995 2.602.621 9.498.808 3.298 1.52 8.596 1.527 11.696l.013 5.7-17.677 10.54c-9.686 5.823-18.076 10.342-18.477 10.043s-.803-1.599-.807-2.999c-.003-1.4-.605-2.398-1.405-2.396-1.5.003-9.99 4.422-16.78 8.738-2.097 1.304-3.995 2.309-4.195 2.31s-4.994 2.71-10.586 6.023-10.387 6.024-10.587 6.024-2.297 1.205-4.494 2.61c-3.195 2.008-3.993 3.11-3.888 5.21.411 4.898.014 6.3-1.684 6.903-1 .402-3.696 1.909-5.992 3.514-2.297 1.505-4.394 2.81-4.594 2.81-.3 0-3.996 2.01-8.19 4.519-7.59 4.517-7.59 4.517-6.997 1.116.692-3.402.692-3.402-10.424-10.577-6.11-3.986-11.118-7.675-11.119-8.075 0-.5 1.497-1.503 3.295-2.407 1.698-.804 4.994-2.511 7.191-3.716 2.197-1.305 6.492-3.715 9.488-5.422s14.082-8.032 24.469-13.955c10.486-6.024 21.472-12.25 24.468-13.856 4.794-2.61 10.387-5.724 23.97-13.454 1.897-1.105 10.686-6.125 19.475-11.045 18.476-10.542 21.672-12.249 22.672-12.351.4-.001 2.902 1.193 5.506 2.587m-2.328 32.106c.304 1.6.507 2.799.407 2.899-.1 0-4.794 2.81-10.486 6.224-5.692 3.413-10.486 6.223-10.686 6.224-.2 0-3.795 2.009-7.89 4.518-4.194 2.51-7.89 4.518-8.09 4.518-.3 0-.502-1.099-.505-2.499-.005-2.2 3.385-6.507 5.185-6.511.4-.001 4.195-2.11 8.49-4.62 4.294-2.51 10.286-6.023 13.282-7.63 2.997-1.707 6.192-3.714 6.99-4.416 2.096-2.005 2.697-1.706 3.303 1.293m7.212 5.283c-.298.501-1.497 1.004-2.597 1.006-1 .003-1.901-.495-1.903-.995 0-.6 1.198-1.003 2.598-1.006s2.301.395 1.902.995m-270.084 7.113c5.007 3.189 10.62 8.976 10.625 10.976 0 .4 1.407 2.997 3.113 5.693 1.606 2.796 4.42 9.09 6.132 14.186 2.517 7.495 3.125 11.093 3.547 20.592.316 7.2-.068 14.1-.858 18.502-1.284 7.003-1.284 7.003-5.084 7.312-4.399.41-4.6-.29-1.009-3.998 6.784-7.115 4.422-34.51-4.317-51.79-4.52-8.79-9.034-14.68-12.94-17.071-1.801-.996-3.806-3.091-4.41-4.49-2.11-4.395-1.91-4.396 5.2.088m224.61 4.49c.011 4.6-1.678 9.504-3.278 9.508-.5.001-.602-.799-.204-1.8.398-.9.99-4.102 1.284-7.002.586-6.302 2.185-6.905 2.199-.705m-52.32 35.32c-.397 1-6.487 5.314-13.578 9.53-11.684 6.927-12.983 7.53-12.987 5.53-.004-1.8 2.691-3.706 13.277-9.93 7.19-4.217 13.283-7.53 13.484-7.331.2.2.102 1.2-.195 2.2"/><path d="M450.153 553.54c-1.097 1.303-.897 1.402 1.402.897 2.498-.705 2.699-.506 2.706 2.594.004 2 .406 2.9.905 2.298.499-.501.694-2.402.39-4.2-.608-3.5-3.11-4.294-5.403-1.589M444.959 556.252c-1.497 1.204-1.283 7.703.317 7.7.4-.001.498-1.202.194-2.7q-.456-2.55 1.191-3.904c.999-.602 1.297-1.503.796-1.801-.5-.3-1.6.003-2.498.705M326.67 561.02c.702 1.199 9.603 1.479 9.6.179-.001-.5-2.203-.995-5.103-.989-2.7.007-4.799.411-4.498.81M341.771 561.786c4.802.79 11.502.874 11.5.174 0-.5-3.001-.693-6.701-.685-3.8.11-5.9.314-4.799.511M357.272 562.151c.001.5 2.502.994 5.502.988s5.5-.513 5.498-1.013c-.001-.6-2.502-.994-5.502-.987s-5.5.412-5.498 1.012M372.272 562.217c.001.5 2.502.894 5.602.887 3-.006 5.3-.412 4.998-.91-.803-1.2-10.603-1.177-10.6.023M386.774 563.084c.301.5 2.802.994 5.602.988 2.7-.007 4.9-.512 4.898-1.012-.001-.6-2.502-.994-5.602-.987-3.4.008-5.3.412-4.898 1.011M401.274 563.051c.001.6 2.902.994 6.602.985 4.1-.009 6.3-.414 5.898-1.013-.301-.6-3.302-.993-6.602-.985-3.3.007-5.9.413-5.898 1.013M417.675 563.214c-.3.5 2.501.694 6.301.686 7.3-.117 6.799-.616-1.002-1.098-2.7-.194-5.1.012-5.3.412M433.575 563.578c1.203 1.197 8.704 1.58 8.701.48 0-.6-2.002-1.095-4.702-1.089-2.5.006-4.4.31-3.999.609M455.785 567.828c.608 3.398.41 3.999-1.39 4.603-1.998.604-2.994 2.507-1.294 2.503 1.3-.003 6.69-4.915 5.489-5.013-.8.002-1.303-1.297-1.307-2.997s-.507-2.999-1.107-2.997c-.7.001-.797 1.402-.39 3.9M445.293 571.151c.007 3.1 1.115 6.798 1.915 6.796.4 0 1.598-.703 2.696-1.606 1.797-1.504 1.797-1.504-.302-.9-1.998.605-2.299.306-2.305-2.394-.004-1.6-.408-3.3-1.008-3.598s-1 .402-.996 1.702M313.208 578.151c-2.794 2.407-1.394 2.803 1.801.596 2.097-1.505 2.297-1.405 3.204 1.693 1.008 3.298 1.008 3.298.8-.202-.21-4.2-2.311-4.995-5.805-2.087M304.618 582.47c-1.299.604-2.297 1.506-2.296 2.006.003 1.3 1.303.897 3.998-1.21 2.695-2.105 1.794-2.503-1.702-.795M319.026 586.038c.303 1.3-.395 2.2-2.293 3.005-1.399.703-2.397 1.606-1.996 1.905 1.303 1.297 5.596-2.013 5.59-4.413-.003-1.3-.405-2.299-.905-2.298s-.698.802-.396 1.801M295.93 587.79c-1.498 1.104-1.596 1.904-.79 4.202 1.006 2.798 1.006 2.798 1.098-.502.096-2.1.593-3.202 1.493-3.204.8-.001 1.799-.504 2.098-1.004.896-1.502-1.703-1.197-3.899.508M309.142 593.06c-3.995 2.41-3.392 3.508.703 1.499 1.898-.904 3.496-2.008 3.495-2.508-.003-1.1-1.102-.898-4.198 1.01M264.843 593.361c.3.5 2.402.995 4.502.99s4.199-.51 4.498-1.01c.398-.601-1.303-.998-4.503-.99-3.2.007-4.899.41-4.497 1.01M275.842 593.336c.302.5 2.603.994 5.003.989s4.699-.511 4.997-1.012c.4-.6-1.502-.996-5.002-.988s-5.399.412-4.998 1.011M288.342 593.308c.002.5 1.103.997 2.503.994s2.499-.506 2.497-1.006c0-.6-1.102-.997-2.502-.994s-2.499.406-2.498 1.006M296.453 597.99c-.192 3.3 1.108 3.497 5.502.787 2.097-1.405 3.194-2.507 2.294-2.505-.8.001-2.398.705-3.496 1.507-2.496 1.906-3.196 1.908-3.701-.291-.403-1.3-.503-1.199-.599.501M288.434 633.808c-.798.901-.796 1.501-.196 1.5s1.399-.503 1.797-1.204c.498-.801 1.2.097 2.005 2.295l1.308 3.397-.208-3.5c-.209-3.899-2.512-5.093-4.706-2.488M282.144 638.122c-1.895 2.104-2.09 4.105-.586 6.201.803 1.198.902.798.597-1.401-.405-2.2.092-3.4 1.69-4.704 1.097-1.003 1.595-1.804.995-1.902-.6.001-1.798.804-2.696 1.806M244.954 642.406c.3.5 2.902.994 5.602.988 6.5-.015 5.597-1.513-1.104-1.798-3.2-.093-4.9.211-4.498.81M259.256 643.274c1.902 1.095 9.203 1.279 9.2.079-.001-.6-2.402-.995-5.202-.988-3.2.007-4.8.41-3.998.909M272.456 643.344c-1.098.702-.298 1 3.002.893 3.4-.008 4-.21 2.498-.906-2.703-1.194-3.703-1.191-5.5.013M293.46 645.096c.004 1.8.507 3.199 1.007 3.198.6-.001.798-1.102.394-2.801-1.009-3.898-1.41-3.997-1.401-.397M282.175 651.522c.608 3.598 1.01 4.398 1.808 3.596s-.616-6.799-1.616-6.797c-.5.001-.596 1.502-.192 3.2M294.581 654.394c-.094 2.6-.79 4.101-2.288 5.205-1.298.903-1.796 1.604-1.196 1.603.7.098 2.198-.705 3.495-1.808 1.997-1.605 2.195-2.205 1.189-5.203l-1.108-3.398zM283.593 659.819c-.092 3.5 1.411 4.896 3.809 3.591 2.496-1.406 2.694-2.406.395-1.9-1 .201-2.3-.496-3.004-1.694-1.204-1.997-1.204-1.997-1.2.003M109.327 498.714l-.072 12 45.5-.103 45.4-.103-.028-12-.027-12-45.4.103-45.4.103zm87.478-9.799c.401.3.62 8.599.534 14.899l-.187 5.8-17.2-.46c-9.501-.28-28.702-.436-42.502-.504l-25.3.057-.021-9.5c-.017-7.1.278-9.6 1.376-10.203 1.199-.703 82.599-.787 83.3-.089"/><path d="M119.809 490.39c-.4.3-.695 2.401-.69 4.501.007 3.3.308 3.7 2.208 3.495 2.5-.205 3.506 2.692 1.812 5.296-.797 1.302-1.098 1.203-2.501-.494-1.605-1.996-1.605-1.996-1.3.003.203 1.4 1.104 1.997 2.804 1.994 2.2-.005 2.5-.406 2.491-4.006-.007-3.2-.51-4.199-2.211-4.995-3.103-1.293-2.908-3.494.192-3.5 1.6-.004 2.498-.606 2.496-1.506-.003-1.5-4.004-2.091-5.301-.788M130.808 490.265c-.399.4-.694 2.501-.69 4.701.008 3 .31 3.8 1.409 3.397 2.398-.905 3.904 1.791 2.61 4.294-1.096 2.103-1.196 2.103-2.5.306-1.404-1.697-1.404-1.697-1.499.503.005 2 .405 2.3 2.805 1.994 2.3-.305 2.698-.806 2.99-4.007s-.108-4-2.21-4.995c-3.404-1.492-3.41-3.792-.01-3.8 1.6-.003 2.4-.505 2.198-1.305-.503-1.399-4.005-2.09-5.103-1.088M174.711 491.465c-1.795 2.004-2.09 4.705-.487 5.701.8.399.802.899.004 1.7-1.497 1.504-1.389 5.003.115 6.5 3.107 3.093 7.698-.617 6.188-5.114-.403-1.2-.608-3.599-.512-5.399.29-4.1-2.814-6.193-5.308-3.388m3.408 3.692c.008 3.1-2.293 2.806-2.8-.393-.204-1.5.195-2.2 1.195-2.203 1.1-.002 1.602.896 1.605 2.596m.412 4.9c.804 2.098-.29 4.5-1.99 4.504-.8.002-1.402-.997-1.405-2.297-.009-3.6 2.188-5.105 3.395-2.207M153.92 495.012c-3.288 5.808-3.386 6.608-.886 6.602 2.3-.005 3.604 1.592 2.106 2.496-1.298.803-.295 2.5 1.605 2.496 1-.002 1.299-.703.795-2.502-.404-1.699-.206-2.5.594-2.501.9-.002.9-.402.197-1.3-.601-.7-1.207-3.298-1.413-5.697l-.31-4.5zm2.206 2.995c.004 1.7-1.394 2.904-2.296 2.006-.801-.799.293-3.401 1.393-3.404.5 0 .901.598.903 1.398M163.512 491.99c-.298.801-.395 2.302-.092 3.3.403 1.6.603 1.5 1.199-.502.397-1.2 1.095-2.202 1.595-2.204 1.5-.003 1.007 3.298-1.084 7.303-2.788 5.206-2.585 6.706 1.015 6.698 2.6-.006 3-.307 2.894-2.807-.003-1.5-.305-2.1-.603-1.499-.199.7-1.097 1.303-1.897 1.305-1.1.002-1.002-.798.59-4.102 2.589-5.005 2.281-8.305-.82-8.698-1.3-.197-2.399.306-2.797 1.207M140.127 498.644c.001.5 1.603.996 3.503.992s3.498-.508 3.497-1.008c-.001-.6-1.602-.997-3.502-.992-1.9.004-3.5.408-3.498 1.008M155.229 543.31c.309 48.199.598 43.298-2.804 42.306-3.202-.893-11-.175-12.698 1.129-.599.501-.794 2.602-.488 5.1.507 3.2 1.21 4.598 2.812 5.295 1.501.596 2.505 2.194 2.91 4.193.708 3.798 1.408 3.997 3.902 1.291 1.197-1.303 3.096-2.007 5.696-2.013 3.6-.008 3.8-.208 3.194-2.507-.505-2.199-.306-2.5 1.794-2.504 1.3-.003 3.299-.708 4.397-1.51.998-.802 3.597-1.508 5.697-1.513 3-.007 3.699-.408 3.695-2.008-.003-1.1-.405-2-.905-1.998-.5 0-1.203-1.398-1.606-2.997-.809-3.598-2.009-3.695-7.601-.482-2.397 1.405-4.695 2.51-5.095 2.511-.5.001-.838-16.698-.884-36.998-.056-25-.384-37-1.084-36.998s-1.078 9.703-.932 29.703m11.999 43.572c-1.498 1.204-2.793 3.107-2.99 4.207-.594 2.902-3.295 2.508-3.702-.491-.205-2.1.393-2.901 2.99-4.207 4.895-2.511 6.795-2.216 3.702.491m-16.897 1.339c.003 1.6-6.496 2.015-8.9.52-1-.698-.202-1.2 2.997-1.807 4.897-1.111 5.898-.913 5.903 1.287m6.3.285c1.502.597 2.605 1.995 2.908 3.494.708 3.398-1.492 3.403-3 .107-.703-1.499-2.005-2.496-3.205-2.493-1.1.002-2.001-.495-2.003-.995-.002-1.3 2.098-1.305 5.3-.113m12.7-.428c0 .3-.2.5-.5.5-.3.001-.5-.198-.5-.498-.001-.3.198-.5.498-.501.3 0 .5.199.501.499m2.505 2.494c.401.6-.598 1.001-2.398 1.005-1.6.004-3.3-.492-3.602-.991-.401-.6.598-1.002 2.398-1.006 1.6-.003 3.3.393 3.602.992m-28.495 2.065c.002 1.1.504 1.999 1.104 1.997.6-.001.899-.602.597-1.401-.604-1.599 1.294-2.603 5.094-2.612 3.1-.007 2.302.895-3.19 4.007-3.796 2.11-4.096 2.11-5.3.412-1.705-2.396-1.61-4.396.19-4.4.8-.002 1.502.897 1.505 1.997m12.302.972c.403 1.599.004 2-1.896 2.004-1.4.003-3.798.709-5.396 1.512-4.495 2.31-3.6.408 1.294-2.703 5.092-3.311 5.292-3.412 5.998-.813m.711 4.998c.001.5-1.198 1.003-2.698 1.006-1.6.004-3.899.31-5.298.612-2.4.506-2.4.506-.602-.998 2.195-1.805 8.595-2.22 8.598-.62M295.568 560.591c-2.399.506-4.297 1.41-4.295 1.91 0 .6.801.698 1.8.296.9-.402 3.798-1.009 6.398-1.215 2.599-.306 4.497-.91 4.196-1.41-.602-1.098-2.502-.994-8.099.42M306.268 560.267c0 .5 1.602.996 3.602.992 2.1-.005 3.299-.408 2.898-1.007-.302-.6-1.903-.996-3.603-.992-1.6.004-2.899.407-2.897 1.007M282.283 567.021c-2.397 1.506-3.894 2.81-3.293 3.008 1.3.497 8.291-3.619 8.289-4.819s.097-1.2-4.996 1.811M269.499 574.15c-2.397 1.306-4.094 2.61-3.793 2.909.6.599 7.394-2.617 8.19-3.919 1.097-1.702-.103-1.5-4.397 1.01M257.514 580.978c-2.396 1.405-4.093 2.809-3.793 3.108.502.599 9.59-4.422 9.589-5.222-.003-1-1.601-.396-5.796 2.114M243.332 588.71c-4.794 2.71-6.293 3.114-11.694 2.826-4.1-.19-6.3.115-6.298.815.001.6 2.003 1.095 4.803 1.089l4.7-.011-3.495 2.208c-4.494 2.81-4.394 2.71-3.793 3.309.2.3 2.698-.907 5.394-2.713 4.294-2.81 5.693-3.113 11.193-2.925 3.6.092 6.2-.314 6.199-.814-.002-.6-2.003-.896-4.702-.59l-4.799.411 3.994-2.509c2.197-1.305 4.295-2.41 4.795-2.41.4-.001.699-.502.698-1.002-.003-1.4-.803-1.198-6.995 2.316M178.54 592.057c1.102 1.097 12.603 1.571 13.3.57.4-.701-1.802-1.096-6.602-1.085-4 .009-7 .215-6.699.515M195.34 592.519c.002.6 2.703.994 6.003.986 3.3-.007 5.999-.414 5.997-1.014s-2.702-.993-6.002-.986-5.999.414-5.998 1.014M212.34 592.48c.002.5 2.303.995 5.003.989 2.8-.007 4.999-.512 4.997-1.012-.001-.6-2.202-.995-5.002-.988-2.7.006-4.999.411-4.998 1.011M253.84 592.386c-.398.6.503.999 2.003.995 1.5-.003 2.399-.405 1.997-1.004-.301-.6-1.202-.997-2.002-.996s-1.7.404-1.998 1.005M217.565 603.168c-2.397 1.406-4.094 2.71-3.894 3.01.602.598 8.393-3.42 9.19-4.722.896-1.502-.602-.998-5.296 1.712M204.082 610.699c-6.191 3.914-5.49 4.712.902 1.198 5.893-3.214 5.693-3.113 4.692-3.71-.4-.2-2.998.906-5.594 2.512M190.199 618.23c-2.697 1.407-4.793 3.011-4.792 3.511 0 .5 2.199-.305 4.995-1.911 2.697-1.506 4.993-3.111 4.992-3.611-.002-1 .098-1-5.195 2.011M175.418 626.564c-2.997 1.607-4.894 2.911-4.294 3.01 1.8-.004 10.29-4.224 10.289-5.224-.003-1 .397-1.2-5.995 2.214M165.832 633.086c-1.594 2.403-1.593 2.703.11 4.5 1.003 1.097 3.005 1.993 4.405 1.89 2.4-.106 2.4-.206-.603-1.1-3.602-1.191-4.207-3.19-1.613-5.996.898-1.002 1.096-1.802.496-1.8-.6 0-1.898 1.104-2.795 2.506M176.447 639.562c1.401.396 3.902.79 5.502.887 2.3-.005 2.6-.206 1.498-.903-.801-.498-3.302-.893-5.502-.888-3.5.108-3.7.209-1.498.904M188.548 639.934c1.002.898 10.903 1.375 10.901.575-.001-.6-2.502-.994-5.702-.987-3.1.007-5.4.213-5.199.412M204.049 640.299c-.399.6 1.803 1.196 5.503 1.388 3.3.092 6.3-.015 6.599-.515.199-.4-.402-.7-1.402-.797-1 .002-3.7-.192-5.901-.487-2.3-.295-4.5-.09-4.8.411M220.451 641.362c.002.7 2.303 1.095 6.203 1.086 7.4-.017 7.098-1.016-.604-1.699-3.801-.391-5.6-.187-5.599.613M572.897 705.162c.604 1.899 1.508 3.497 2.008 3.496s.598-.802.196-1.8c-.402-.9-1.006-2.498-1.208-3.498-.302-.9-.904-1.698-1.304-1.697-.5.001-.296 1.6.308 3.5M575.714 712.856c.002.7.908 3.298 2.014 5.795 1.81 4.196 1.91 4.296 1.302.997-.81-4.198-2.118-7.995-2.918-7.993-.3 0-.499.601-.398 1.2M581.954 730.342c.81 4.198 2.72 8.594 3.318 7.992.699-.601-2.524-10.694-3.324-10.692-.3 0-.297 1.2.006 2.7M586.184 743.632c.504 1.5-.294 2.4-4.39 4.51-2.796 1.407-5.093 2.912-5.092 3.412s2.4-.406 5.396-2.012l5.393-2.913 1.509 3.697c2.211 5.095 2.104 1.995-.01-4-1.61-4.396-4.115-6.99-2.806-2.694M567.512 755.975c-2.097 1.104-3.595 2.308-3.294 2.507.602.699 8.493-3.12 8.49-4.12-.002-1.1-1.101-.697-5.196 1.613M591.715 757.22c.005 2.1 2.52 8.394 3.32 8.392.5 0 .597-.801.195-1.8-.402-.9-1.006-2.698-1.209-3.997-.505-2.1-2.31-4.195-2.306-2.595M555.527 762.702c-3.495 1.908-5.69 4.013-4.19 4.01 1-.003 9.388-5.022 9.387-5.522-.002-.9-1.5-.397-5.197 1.512M542.444 770.132c-6.091 3.613-6.688 5.115-.895 2.202 2.797-1.507 5.193-3.112 5.192-3.612-.003-1.2.397-1.301-4.297 1.41M594.551 773.113c-.194 2.5.11 4.5.51 4.5.5-.002.702.698.404 1.498-.398.801-.196 1.7.304 2 .501.298.703 1.198.305 1.999-.298.8.003 1.5.603 1.499.6-.002.802.598.503 1.398-.298.801.004 1.7.605 2.099.801.498.504 1.499-1.093 3.103-1.795 1.904-1.994 2.604-.89 3.902.7.798 1.903 1.495 2.703 1.493.7-.001 1.601.697 1.903 1.496.402.8 1.703 1.496 3.003 1.493 2.4-.005 2.4-.005 2.444 19.095.023 10.4.442 18.799.842 18.498.499-.301.68-9.002.456-19.401-.243-18.9-.243-18.9 2.154-20.005 2.198-1.005 2.496-1.806 2.486-6.106-.009-4.1-.411-5.099-2.012-5.595-1.101-.298-2.401-.395-3 .007-.6.301-.7-.099-.402-.9.298-.9.096-1.6-.504-1.598-.6.001-1.102-.898-1.105-1.998s-.404-1.999-.904-1.998-1.203-1.097-1.506-2.496c-.706-2.599-5.319-8.488-6.719-8.485-.4 0-.895 2.002-1.09 4.502m3.406 2.693c-.898.902-1.198.702-1.202-1.198s.295-2.1 1.197-1.202.903 1.498.005 2.4m2.806 2.293c.001.8-.597 1.502-1.397 1.503-2 .005-2.904-1.693-1.405-2.296 2.198-.905 2.798-.707 2.802.793m1.407 3.397c.301.5-.097 1.2-.996 1.502-1.999.805-2.9.107-1.903-1.295.797-1.302 2.197-1.405 2.9-.207m1.607 3.096c.003 1.2-2.794 2.507-3.596 1.709-.902-.898.594-2.702 2.194-2.705.8-.002 1.401.496 1.402.996m1.01 3.898c.002 1.2-2.796 2.207-3.398 1.208-.301-.5-.303-1.1.096-1.5.898-.902 3.299-.708 3.301.292m4.803 1.79c-2.792 3.406-12.786 6.028-12.792 3.428-.003-1.5 2.294-2.505 4.995-2.311 1.6.196 3.299-.508 4.396-1.71 2.095-2.305 5.396-1.812 3.401.592m-.886 5.901c-1.797 1.704-6.095 2.214-6.599.715-.201-.6.997-1.402 2.596-1.806 1.7-.403 3.397-1.207 3.796-1.808.498-.801.798-.702 1.1.197.202.7-.195 1.9-.893 2.702M526.964 778.867c-2.896 1.706-5.092 3.311-4.892 3.61.702.6 10.69-4.923 10.687-5.923-.003-1.1.197-1.2-5.795 2.313M512.982 786.898c-2.996 1.707-5.192 3.312-4.892 3.612.702.598 10.69-4.925 10.687-6.025-.002-1 .098-1-5.795 2.413M414.795 792.521c0 .2.403 1.4.906 2.698.503 1.3 1.207 3.197 1.51 4.197.402.999.903 1.598 1.202 1.297.799-.802-1.62-8.696-2.62-8.694-.6.001-.999.202-.998.502M499.3 794.43c-2.198 1.305-4.395 2.51-4.995 2.71-.499.302-.698.702-.397 1.102.802.798 10.89-4.525 10.887-5.725-.002-1.1-1.202-.697-5.496 1.913M485.118 802.462c-5.993 3.513-5.39 4.812.703 1.498 2.697-1.406 4.993-2.911 4.992-3.411-.003-1.2-1.302-.797-5.695 1.913M418.821 804.212c.005 2.1 2.418 7.795 3.318 7.793.5-.001.598-.802.196-1.8-.402-.9-1.007-2.899-1.31-4.498-.406-2.599-2.21-3.895-2.204-1.495M471.036 810.494c-2.397 1.405-4.094 2.809-3.793 3.108.501.6 9.59-4.421 9.588-5.221-.002-1-1.601-.397-5.795 2.113M421.844 814.405c.004 1.4 2.114 5.796 2.613 5.394.798-.801-.713-5.798-1.713-5.796-.5.001-.9.202-.9.402M459.15 817.22c-2.896 1.507-5.292 3.313-5.29 3.813.002.9 8.392-3.32 10.388-5.224 2.095-2.005-.203-1.4-5.097 1.412M423.863 822.5c.003 1.5 3.415 6.893 3.713 5.892.497-1.6-1.514-6.396-2.714-6.394-.5.002-1 .203-1 .503M446.867 824.149c-4.494 2.81-4.394 2.71-3.793 3.308.702.799 7.792-3.418 7.79-4.618-.003-1.2-.003-1.2-3.997 1.31M641.874 827.306c-.693 2.802-.689 4.802.116 7.1 1.007 2.898.908 3.398-.989 4.702-2.496 1.806-2.979 9.407-.574 11.401 2.605 2.195 5.002.79 4.993-3.01-.006-2.9-.408-3.6-2.308-3.796-1.601-.296-2.202-.795-1.805-1.896.298-.8.596-1.7.596-2-.001-.3.7-.003 1.501.696.802.598 1.902.795 2.601.394.799-.502.698-.902-.503-1.6-.902-.497-1.403-1.296-1.105-1.797.3-.4.096-2-.508-3.498-.704-1.799-.708-3.899-.113-6.1.495-1.901.591-3.602.09-3.9-.5-.3-1.396 1.203-1.992 3.304m1.845 19.896c-.395 2.2-2.195 2.005-2.6-.094-.202-1 .297-1.6 1.297-1.603s1.501.697 1.303 1.697"/><path d="M645.571 825.898c-.795 2.002.406 2.799 2.003 1.395 2.595-2.206 2.701.294.007 2.8-3.593 3.308-3.39 4.408.81 4.398 3.5-.008 5.095-2.011 1.795-2.004-1.7-.096-1.7-.096-.003-1.4.898-.702 1.694-2.504 1.69-4.004-.004-2.2-.405-2.599-2.905-2.593-1.6.004-3.099.607-3.397 1.408M654.174 827.378c.805 2.198.81 3.898.015 6.5-1.19 3.903-.79 4.602 1.304 1.797 1.596-2.103 1.785-6.604.38-9.3-1.708-2.997-3.006-2.194-1.699 1.003M432.88 829.98c-3.399.608-3.499.608-.797 1.302 1.4.397 3.6.292 4.9-.111 3.097-1.207.395-2-4.103-1.19M556.401 839.3c-2.195 2.205-1.487 5.703 1.316 6.897 2.703 1.194 2.307 3.095-.694 2.702-2.8-.294-2.295 2.105.406 2.699 3.802.691 5.984-7.214 3.473-12.008-1.305-2.297-2.405-2.395-4.5-.29m3.11 3.993c-.498 1.301-.997 1.402-1.8.604-.6-.599-.803-1.798-.406-2.799.497-1.301.997-1.402 1.799-.604.601.599.804 1.798.406 2.799M575.6 838.957c-2.196 1.704-1.775 10.604.528 11.998 2.704 1.794 4.598-.71 4.586-6.21-.013-5.4-2.318-7.995-5.113-5.788m3.107 2.792c-.199.6-.798 1.002-1.298 1.003-.5.002-1.1-.397-1.302-.997s.397-1.1 1.297-1.103 1.502.497 1.303 1.097m.013 5.6c-.395 2.201-2.196 2.005-2.6-.094-.203-1 .296-1.6 1.296-1.603s1.501.697 1.304 1.697M613.6 838.87c-1.098.803-1.693 2.804-1.886 6.005-.088 5.2 1.016 7.097 3.815 6.49 1.5-.302 1.997-1.404 2.186-5.904.286-6.3-1.22-8.797-4.115-6.59m2.708 3.294c1.006 2.598.712 5.099-.786 6.302-1.796 1.504-2.3.205-1.81-4.496.392-3.6 1.59-4.404 2.596-1.806M565.103 839.88c-.699.702-1.196 1.803-1.195 2.403.005 2 3.11 4.593 4.71 3.99.998-.403 1.3-.004 1.102 1.197-.297 1.2-1.197 1.603-3.297 1.407-2.5-.294-2.7-.094-1.597 1.204 3.108 3.793 7.3.083 6.886-5.916-.311-5.099-3.716-7.191-6.61-4.285m4.009 3.991c-.998 1.003-1.498 1.004-2.1-.095-.502-.799-.705-2.098-.407-2.8.497-1.2.797-1.2 2.1.096s1.404 1.797.407 2.8M584.601 839.336c-.298.5-.793 2.802-1.088 5.003-.589 5 1.117 7.797 4.215 6.89 4.297-1.41 3.483-7.608-.917-7.598-2.1.005-2.402-.794-.807-2.998.798-1.102 1.198-1.203 1.6-.304.201.7 1.103 1.298 2.003 1.296.8-.002 1.298-.603 1.097-1.303-.503-1.399-5.405-2.187-6.103-.986m3.32 8.393c.004 2-1.495 2.603-2.498.905-.904-1.498.29-4.3 1.492-3.503.5.299 1.003 1.498 1.005 2.598M593.601 839.316c-.399.3-.695 1.901-.692 3.501.006 2.5.307 2.8 2.006 2.296 2.398-.806 3.904 1.99 2.108 3.795-.898.902-1.398.803-2.1-.295-1.105-1.798-2.502-.595-1.697 1.504 1.005 2.397 4.604 1.79 5.898-.914 1.293-3.003.387-5.6-2.214-6.295-2.602-.694-2.606-2.294-.006-2.3 1.1-.002 2-.504 1.998-1.004-.002-1.1-4.303-1.39-5.3-.288M620.908 842.154c.007 3.1.308 3.499 2.007 2.895 1.598-.503 2-.204 2.004 1.896.006 2.9-.893 3.302-2.897 1.306-1.002-.998-1.202-.797-.898.802.506 2.9 4.407 3.19 5.8.387 1.395-2.603-.115-6.9-2.515-6.894-.8.002-1.501-.497-1.502-.997-.002-.6.897-1.002 1.997-1.004s2-.505 1.998-1.005c-.001-.6-1.302-.997-3.002-.993-2.8.006-3 .307-2.992 3.607M631.404 840.53c-1.596 1.804-1.595 2.004-.195 2 1.3-.003 1.702.996 1.71 4.496.006 2.5.51 4.5 1.01 4.498 1.2-.003 1.274-11.703.072-12.4-.4-.3-1.6.304-2.597 1.406M650.102 839.387c-.7.402-.994 2.903-.886 6.103.21 4.899.412 5.499 2.613 5.794 1.3.197 2.8-.107 3.298-.608.998-1.002 1.278-10.003.476-10.901-.902-.798-4.403-1.09-5.501-.388m3.806 2.592c.001.8-.697 1.501-1.497 1.503-.9.002-1.201-.597-.903-1.498.398-.8.996-1.502 1.496-1.503s.902.698.904 1.498m.012 5.4c.002 1.1-.395 2.3-.994 2.602-.6.401-1.001-.498-1.005-1.898-.003-1.4.495-2.6.995-2.602.6-.001 1.002.898 1.004 1.898M603.416 845.593c-.399.601.702.999 2.402.995s3.099-.507 3.098-1.007c-.002-.6-1.103-.998-2.403-.995-1.4.004-2.799.407-3.097 1.007"/></svg>