<svg xmlns="http://www.w3.org/2000/svg" viewBox="0 0 992 1402" fill="currentColor"><path d="M827 146.2c-8.8 4.1-35.6 17.6-40 20.2-2.5 1.4-7.4 4.1-11 6-8.7 4.5-21.3 11.9-33.5 19.6-5.5 3.5-10.5 6.3-11.1 6.3s-4.1-1.2-7.8-2.6c-6.5-2.7-14.1-3.4-19.3-1.9-3.6 1.1-14.3 9.3-13.6 10.5q.45.9-.6.3c-.7-.5-4.3 1.6-9.1 5.3-4.3 3.4-8.1 6.1-8.4 6.1s-1.1-1.8-1.7-4c-2.5-8.3-8.5-10.3-12.6-4.1-2.7 4-3.1 12.6-.9 16.9 1.4 2.7 1.3 2.9-4.7 8.2-3.4 3-10.7 10.2-16.1 16.1-6 6.4-11.8 11.5-14.5 13-2.5 1.3-7.5 4-11 6.1-3.4 2.1-6.5 3.8-6.7 3.8-.6 0-27.8 18.2-28.4 19-.3.3-2.1 1.7-4 3-4.8 3.3-9.5 7.8-8.9 8.4.3.3 1.6-.5 2.9-1.7 3.2-2.9 17.2-13.3 23-17.2 16.2-10.7 35.9-22.1 36.1-20.8.6 4.3-1.5 7.3-8.1 11.1-2.5 1.4-4.7 2.9-5 3.2s-2.5 1.6-5 2.9c-6.6 3.7-27.4 17.5-36.5 24.5-4.4 3.3-8.2 6.2-8.4 6.3-.2.2-.2.6.2.9.5.5 7.5-4.2 9.7-6.6.3-.3 3.4-2.5 7-5 3.6-2.4 7-4.8 7.5-5.2 2.7-2.1 19.8-12.9 25.9-16.3 3.8-2.1 8.4-5.1 10.1-6.6 2.4-2.2 3.5-2.5 4.3-1.7.7.7 1.2 1.6 1.2 2.1s1.6 4.2 3.6 8.2c11 22.2 33 37 82.9 55.6 7.2 2.6 26.5 7.5 37.4 9.3 5.2.9 9.7 1.8 10 2.2 1.5 1.5-3.4 6.4-12.4 12-5.5 3.4-10.5 6.7-11.2 7.3s-1.5 1.1-1.8 1.1c-.8 0-9.3 5.9-11.3 7.7-.7.7-1.7 1.3-2.2 1.3s-1.5.6-2.2 1.3-6 4.6-11.8 8.7-11.2 8.1-12 8.7c-10.5 8.6-22.7 17.2-23.8 16.8-1.3-.5-4.5-2.5-19.4-12.1-10.8-7-10.7-7-28.9 10.5l-15.5 14.9-11.5-5.7c-6.3-3.2-14.7-7.6-18.7-9.9-4.1-2.3-7.7-4.2-8-4.2-.4 0-1.8-.9-3.2-2-2.7-2.1-4-2.5-4-1.2 0 .5 1.9 1.9 4.3 3.2 15.6 8.6 22.1 11.9 37.4 19.5 9.5 4.7 17.5 8.5 17.7 8.5s4.3 1.8 9 4 9.1 4 9.7 4c3 0 12.6 8.4 17.2 15 1.7 2.5 4 5.3 5.2 6.2 2.2 1.9 2.3 1.8-5.5 3.7-9 2.1-14.6 3-21.5 3.5-5.9.4-6.7.3-5.2-.8.9-.7 1.7-2.4 1.7-3.8 0-2.7-3.9-4.8-20-10.8-4.7-1.7-9.5-3.6-10.8-4.1-6-2.4-11.2 1.1-9.8 6.6.7 2.6 3.3 3.6 22.6 8.6 4.7 1.2 9.9 2.9 11.5 3.6 2.7 1.3 2.2 1.3-5.5.8-23.2-1.7-52.2-11.9-78.6-27.8-10.4-6.2-24.2-19-30.4-28.1-2.5-3.6-4.6-6.2-4.8-5.6-1.1 3.3 20.4 26.5 29.6 32.1 3.1 1.8 5.9 3.6 6.2 3.9 3.1 3.3 33.6 17.2 44.5 20.4 3.3 1 8 2.3 10.5 3.1 14.6 4.3 37.6 5.3 51 2.2 9.2-2.2 28.2-7.2 36.5-9.6 11.2-3.4 11.5-5.4-2.8 20.4-6.1 11.1-9.1 12.9-20.7 11.9-11.1-1-27-.6-32.8.8-8.9 2-24.6 2.2-30.2.3-2.8-.9-4.9-1.9-4.6-2.2s1.8-.1 3.3.5c9.7 3.9 11.8.5 4.7-7.6-5.5-6.2-7.9-7.6-19.3-10.9-4.7-1.3-9.9-3-11.6-3.7-1.6-.8-5.2-2.4-8-3.6-19.6-8.6-38.4-21.8-50.6-35.7-2-2.2-4-4.2-4.5-4.4-3-1.2-8.9-19.9-9.9-31.2l-.6-7.2 2 5c1 2.7 2.7 7.1 3.7 9.8 1 2.6 2.3 4.6 2.9 4.3.6-.2 1.9.2 3 1 2.6 1.9 4.1 1.8 6.5-.6 2.3-2.3 2.6-5.3.7-7.2-.7-.7-2.4-2.9-3.7-4.8s-2.7-3.7-3-4c-.7-.6-5.1-7.4-8-12.3-2-3.4-2.1-4.3-1.1-7.6 1.1-3.9 4.1-8.1 5.8-8.1.5 0 1.8.8 2.9 1.8 1 .9 5.7 4.6 10.4 8.1 4.7 3.6 10.1 7.6 12 9.1 7.7 5.9 25 17 25 16.1 0-.5-5.2-4.4-11.5-8.7-6.4-4.3-12-8.3-12.5-9-.8-.8 2.6-4.9 11.9-14.5 11.7-12 13-13.1 13.1-10.7 0 1.6.5 2.8 1 2.8.6 0 1-1.6 1-3.5 0-2.1-.5-3.5-1.2-3.5s-7.4 6.2-14.9 13.9l-13.6 14-7.5-5.7c-12.1-9.2-14.8-11.5-14.8-12.7 0-1.1 21.8-22.2 24.5-23.7.7-.5 5.7 1.2 11.6 3.8 5.7 2.5 11 4.8 11.8 5.1.9.4 1.2.2.7-.5-.4-.7-2.6-2-4.9-3.1-2.3-1-7-3.1-10.4-4.6-3.5-1.5-6.3-3-6.3-3.2 0-.9 20.4-18.3 21.4-18.3.3 0 .6.7.6 1.5s.5 1.5 1 1.5c.6 0 1-1.6 1-3.5s-.4-3.5-1-3.5c-.5 0-1 .7-1 1.5s-.5 1.5-1.1 1.5c-1.6 0-16.6 12.7-28.4 24.2-5.5 5.3-10.2 9.4-10.4 9.2-.8-.7 10.2-12.9 24.1-26.7 7.7-7.6 13.7-14.1 13.4-14.4-.7-.7-29 27.6-34.2 34.2-2.1 2.7-4.2 5.2-4.5 5.5-.4.3-3.8 4.7-7.7 9.9-9 12-11.4 18.9-11.4 32.3.1 5.1.6 11.5 1.2 14.3 2.6 11.7 9.3 26.7 17.3 39 4.9 7.5 20.3 22.8 28.2 28.2 12.5 8.5 31.5 17.2 46.5 21.4 2.5.7 5 1.6 5.5 2 .6.4 4.5 1.3 8.8 2 6.8 1.1 9.3 1.1 20.5-.5 8.2-1.2 16.9-1.8 24.7-1.6 6.6.1 14 .3 16.5.4 2.9 0 6-.7 8.9-2.2 4.3-2.3 4.3-2.3 7.5.2 1.7 1.3 4 3.3 5.2 4.4 5 4.8 20.8 9.8 27.9 8.8 16-2.1 34.8-21.9 42.1-44.4 2.1-6.5 3.1-8.2 4.6-8.2 2.8 0 6.9-2.4 10.3-6 3.6-3.9 15.8-13 21.1-15.9 2.2-1.2 8.4-4.9 13.9-8.2 5.5-3.4 11.4-6.9 13-7.9 1.7-.9 5.3-3.1 8-4.7 2.8-1.7 8.2-4.8 12-7 3.9-2.2 17.1-10 29.5-17.4 20.7-12.3 26.2-15.9 24.5-15.9-.9 0-9.1 4.6-15 8.5-6.7 4.3-19.5 12-27.5 16.5-3.6 2-8.2 4.6-10.2 5.8-2.1 1.2-5.3 3-7 4-11.6 6.6-45.5 27.3-51.3 31.3-3.9 2.6-8.8 6.6-11 8.9-4.6 4.7-5.7 5-4.4 1.2.5-1.5 1.3-4.5 1.9-6.7.7-2.8 1.8-4.6 3.9-5.8 1.7-1 3.6-2.3 4.3-3s2.9-2.4 4.8-3.7 4.4-3.2 5.4-4.2c1.1-1 2.3-1.8 2.7-1.8s6.9-3.8 14.5-8.3c7.7-4.6 21.8-13 31.4-18.7 22.7-13.3 28.6-16.9 33.5-19.8 2.2-1.4 8.7-5.3 14.5-8.8s9.9-6.4 9.3-6.4c-1.2 0-9.2 4.7-61.8 36-9.9 5.9-19.6 11.6-21.5 12.6-1.9 1.1-7 4.1-11.3 6.8s-8 4.6-8.3 4.3c-.3-.2.5-3.5 1.7-7.2 1.7-5.3 2-7.9 1.5-12.5-.7-5.8-.6-5.9 2.2-7.4 2.6-1.3 26.4-15.2 30.2-17.6.8-.5 3.8-2.2 6.5-3.8 7.3-4.2 12.7-7.3 15.7-9.1 1.4-.9 5.7-3.4 9.5-5.7 9.1-5.5 24.6-14.9 30.6-18.7 2.6-1.6 4.6-3.2 4.3-3.4-.2-.2-7.8 4-16.7 9.4-9 5.5-17.5 10.6-18.9 11.3-1.4.8-2.7 1.7-3 2s-4.5 2.8-9.5 5.6c-7.9 4.5-27.2 15.6-37.5 21.7-1.9 1.1-5.4 3.1-7.7 4.4l-4.1 2.4-.6-5.8c-1.3-12.8-2.9-21-5.2-26.2-1.9-4.1-2.4-6.9-2.2-11 .3-5.3.4-5.4 4.2-6.8 5.6-1.9 24-11 31.4-15.5 3.4-2.1 6.5-3.8 6.7-3.8.3 0 .5.9.5 2 0 3.1 4.2 3.6 9 1.1 2.2-1.2 4.7-2.1 5.5-2.1 2.3 0 1.8 1.9-.7 3-1.3.6-4.3 2.4-6.8 4-10.5 6.7-24.2 14.4-41.8 23.4-1.9 1-3.2 2-2.9 2.3.8.8 33.7-16.7 40.6-21.6 1.6-1.2 3.2-2.1 3.5-2.1s3.6-2 7.2-4.6c3.7-2.5 8.1-4.8 9.8-5.1 4.4-.8 8.1-3.1 10-6.3.9-1.5 3.9-4.2 6.8-6 5.6-3.5 21-13.2 21.7-13.7.2-.2.2-.6-.2-.9-.3-.3-1.8.3-3.4 1.4-1.5 1.1-7.5 4.9-13.3 8.6l-10.4 6.6-3.3-3.5c-3.2-3.4-4.2-5.5-2.5-5.5.4 0 1.7-.7 2.7-1.5 1.1-.9 7.2-5.3 13.6-9.8 15.1-10.7 17.3-12.6 16.5-13.4-.4-.4-1-.3-1.4.3s-3.8 3.4-7.7 6.2c-3.8 2.8-7.4 5.5-8 6-4 3.2-19.3 13.2-20.4 13.2-2.2 0-.2-1.9 7.6-7.1 4.1-2.8 8.3-5.7 9.2-6.5.9-.7 5.3-4.1 9.9-7.4 4.6-3.4 8.1-6.4 7.8-6.7-.4-.5-10.7 6.7-12.6 8.7-.3.3-2.1 1.7-4 3s-3.7 2.7-4 3-4.3 3.1-8.8 6.2c-8.4 5.7-8.4 5.7-15.1 5.1-5-.4-7.5-.2-9.8 1-3 1.6-3.1 1.6-3.7-.6-.3-1.2-.6-4-.6-6.2 0-5.7-2-24.4-3.1-28.5-1-3.9-.6 3.4 1.2 22.5.6 6 1.2 13.8 1.4 17.2.2 4.3.9 7 2.3 9.1 1.6 2.2 1.8 3.2 1 4-1.5 1.5-3.2 1.6-2.3.2.8-1.2-.7-1.3-2-.1-1.1.9-9.5 5.6-20 11-7.4 3.9-17.2 8.1-18.6 8.1-.5 0-.2-1.7.7-3.8 9.4-21.4 22.2-56.7 21.1-57.8-.3-.3-1.7 3.2-3.2 7.8-3.1 9.8-8.1 23.4-12.5 33.8-1.7 4.1-4.2 10.3-5.6 13.7-1.4 3.3-3.3 6.8-4.2 7.6-2.2 1.9-6.2 3.1-6.2 1.9 0-.6 2-5.2 4.4-10.4 10-21.4 25.6-63.7 25.6-69.2 0-5.4-8.3-12.5-29.6-25.6-20.8-12.7-50.4-27.8-69.8-35.6-6.1-2.5-14-3.2-15.1-1.4-.3.5-1.1 1-1.7 1-1.9 0 3-4 7-5.7 6.7-2.8 13.7-1.9 25.8 3.2 12.7 5.4 45.4 21.6 49.4 24.5 1.6 1.1 3.1 2 3.4 2 1.1 0 21.3 12.4 32.8 20.2 13.9 9.4 14.5 10.8 7.7 17.3-4 4-7.9 10.2-7.9 12.7 0 .7 1.1-.5 2.3-2.8 2.9-5.4 3.7-6.4 7-9.4 2.4-2.1 3-2.2 3.8-1 .8 1.1.9 0 .6-3.8-.4-5.2-1.4-6.8-6.3-10-4.4-2.8-8-5.2-9.4-6.2-.8-.5-5.8-3.7-11-7s-10-6.4-10.7-7c-.7-.5-1.4-1-1.7-1-.2 0-5.7-3-12.2-6.6-12.8-7.1-37.5-19.4-39.2-19.4-.5 0-1.5-.6-2.1-1.4-1.3-1.5 3.1-4.6 27.2-19 5.8-3.4 21.3-11.3 23.8-12 15.2-4.4 27-5.8 39.9-4.7 5.2.5 12 1.8 15 3 6.4 2.4 6 2.4 6 1.2 0-.4-2.5-1.6-5.5-2.6-5.7-1.7-6.7-2.8-3.9-3.9.9-.4 1.5-.9 1.2-1.2s-2.2.3-4.2 1.2c-2.7 1.3-3.9 1.5-4.7.7-.9-.9 0-1.7 3.5-3.3 4.2-2 6.7-4 5.1-4-.4 0-3.5 1.5-7 3.4-5.7 3.2-6.9 3.5-14.6 3.5-9.1-.1-13.6.5-21.3 2.7-2.7.8-5.2 1.4-5.5 1.4-1.9 0 11.2-6.8 37.9-19.7 3.6-1.8 5.8-3.2 5-3.2s-3.5.9-6 2.1m-108.7 60.1c4.2 2.1 8 3.7 8.3 3.7.8 0 31.2 15.4 36.4 18.4 2.5 1.4 7 4 10 5.6 5.6 3.1 18.7 11.2 20.5 12.8.6.4 3.9 2.8 7.5 5.2 8.2 5.5 8.9 6.5 9 12.1 0 4.6-8.4 30.2-14.9 45.4-6.6 15.4-13.6 30.8-15.2 33.3-1.8 3.1-2 3.2-9.4 3.2-4.1 0-9.4-.4-11.7-1-2.4-.5-9.2-1.9-15.3-3-6-1.2-12.3-2.5-14-3.1-1.6-.5-6.6-2-11-3.3-25.2-7.6-55.6-22.7-69.2-34.2-6.7-5.7-13-14.2-17.5-23.5-5.7-11.7-5.8-10.8 1.9-19 19.5-20.6 35.3-35 56.3-51.3 7.5-5.8 7.5-5.8 14-5.4 4.8.4 8.5 1.4 14.3 4.1m-50.3 2.9c1.9 3.2 2.8 9.8 1.3 9.8-.5 0-2.5 1.6-4.5 3.5s-4.1 3.5-4.7 3.5c-1.6 0-3.4-7-2.8-11.2 1.2-8.8 6.9-11.8 10.7-5.6m16.3 1.1c-2.1 1.8-7.3 6.2-11.6 9.6-11.3 9.1-22.9 20-37.1 35-4.3 4.5-8 8-8.3 7.7-2.1-2.1 28.4-31.6 50.2-48.5 9.5-7.3 13.1-9.4 6.8-3.8m171.1 94.9c5.4 1.6 8.9 4.9 8.9 8.3 0 3.5-3.1 5.9-9.5 7.4-10.2 2.3-16.2.6-20.6-5.9-2.5-3.7-2.2-6.5 1-9.3 2.4-2.1 13.8-2.4 20.2-.5M842 322.9c0 1-3.4 2.1-6.7 2.1-2.3 0-3-1-1.6-2.3 1-1 8.3-.8 8.3.2m-52.6 35c2.8 5.2 4.5 13 5.2 24.3l.7 10.3-7.4 5c-4.1 2.7-7.6 5.2-7.9 5.5-.3.4-2.7 2.1-5.3 3.9-4.9 3.3-4.9 3.3-7 1.3-3.9-3.5-10.9-6-9.2-3.2.3.5 1.5 1 2.5 1s3.2 1.1 4.7 2.4c2.3 2 2.6 2.7 1.5 3.8-1 1-1.6 1-3 0-7.2-5-15.4-5.4-26-1.3-14 5.6-28.7 20.2-36.4 36.2-4.1 8.4-4.5 9-8.3 10-2.2.6-4.7 1.4-5.5 1.8-.8.5-5.7 1.9-10.9 3.2l-9.3 2.3-3.7-4.1c-2-2.2-5.1-6.1-7-8.6s-5.2-5.6-7.2-6.9c-2.1-1.2-3.9-2.8-3.9-3.4 0-1.9 19.9-19.6 39.3-34.7 13.5-10.5 17-13.1 27.8-20.6 3.5-2.5 6.6-4.7 6.9-5.1.5-.6 20.9-14.2 33.8-22.5 4.1-2.5 8.1-6 9-7.6 1.5-2.5 2.3-2.9 6.2-2.9 4.7-.1 15.7-2.4 16.8-3.5.4-.4.9 1.7 1.2 4.7.3 2.9 1.4 6.8 2.4 8.7m-286.5 24.7c.6 1.4 2.4 4.2 3.9 6.2 11.1 14.5 11.8 16.2 8 18.6-2.1 1.3-4.5-.7-8.9-7.6-4-6.2-7.5-19.8-5.1-19.8.5 0 1.4 1.2 2.1 2.6m291 20.7c0 3.9-.8 8.4-2.3 12.2-2 5.2-3.3 6.8-10 12.2-4.2 3.5-8 6.3-8.5 6.3s-1.2-2.4-1.5-5.3c-.4-2.8-1.6-7.2-2.7-9.6-1-2.4-1.7-4.6-1.4-5 .2-.5 3.5-2.9 7.2-5.4 3.7-2.6 9.3-6.5 12.3-8.6s5.8-3.7 6.3-3.4c.4.2.7 3.2.6 6.6M653 401.9c3 2.1 8.5 5.5 12.2 7.7 3.7 2.1 6.8 4.3 6.7 4.9 0 .5-2.1 2.7-4.7 4.7-2.6 2.1-8.7 7.6-13.7 12.3-4.9 4.6-9.7 8.4-10.6 8.5-1.5 0-5.2-1.3-12.4-4.5-13.8-6.1-18.5-8.5-18.5-9.4 0-1.3 27.4-27.3 29.7-28.2 2.5-1 5-.1 11.3 4m104.9 11.9c4.4 4.6 6.1 9.8 6.1 18.3 0 8.7-1.3 10.2-2.9 3.7-.8-2.9-2.3-6.7-3.4-8.3-2.5-3.7-10.4-11.5-13.6-13.6-3.7-2.3-1.8-3.9 4.6-3.9 5.2 0 5.9.3 9.2 3.8m4.2-1.2c6.8 3.5 9.8 19.4 6.2 32.4-1.5 5.3-2.2 6.6-4.1 6.8-1.8.3-2.2-.1-2.2-2.1 0-1.4.7-4.1 1.5-6.1 3.8-9.1 2.8-20.4-2.6-28.4-3.2-4.7-3.1-4.9 1.2-2.6m-18.3 3.1c2.3 1.5 4.2 3 4.2 3.3 0 .4-2.8.7-6.3.7-7.9.1-14.2 3.1-22.7 11-12.6 11.6-20.5 26-24 43.7-1.8 8.8.4 20.8 4.8 25.9 2.4 2.7 1 2.8-4 .3-6.5-3.3-13.8-9.5-13.8-11.7 0-1 1.3-4 2.8-6.6 2.4-4.1 11-20.1 14-26 .5-1 2.4-4.7 4.2-8.3s4.7-8.5 6.4-11c4.1-6 14-16 19.6-19.7 7.7-5.1 9.1-5.3 14.8-1.6m4.1 5.9c3.6.7 10.1 6.7 10.1 9.3 0 .9.5 2.2 1.1 2.8s1.3 4.8 1.5 9.4l.4 8.4-1.4-6.3c-3.1-13.4-8.7-18.7-18.7-17.9-7.8.7-13.3 3.8-21.6 12.3-19.3 19.7-24.3 51.3-9.8 61.3 2 1.3 5.1 2.4 7.4 2.4 2.1.1 3.7.6 3.4 1.1-.8 1.2-13.5.1-16-1.4-5-3.1-8.1-11.3-8.2-21.2-.2-16.3 9.5-36.8 23.6-50 9.2-8.5 18.9-12 28.2-10.2m2.3 9c7.4 3.8 10.1 19.8 5.7 34-1.2 3.8-3 8.1-4 9.6-1.1 1.4-1.9 2.9-1.9 3.3 0 1.6-6.8 10.4-11.3 14.6-15.2 14.4-30.9 12.7-35.5-3.7-1.6-5.7-1.5-8.9.7-17.6 5.4-21.2 19.4-38.1 34.6-41.9 3.5-.8 7.9-.2 11.7 1.7m-211.3 27.8c7 5.3 23.6 15.5 30.1 18.5 10.7 4.9 14.2 6 29.2 9.7 4.9 1.2 6.9 2.2 7.4 3.6.3 1.1.4 2.1.2 2.3-1.1 1.1-22.1-5.5-33.5-10.6-2.4-1-4.5-1.9-4.7-1.9-1.9 0-29.7-17.4-34.3-21.5-.6-.5-3.4-2.8-6.1-5-4.6-3.8-8.9-9.2-13.9-17.9-1.3-2.1-2.3-4-2.3-4.2 0-.3 5.7 5.3 12.8 12.3 7 7.1 13.8 13.7 15.1 14.7m68.3-4.1c3.7 1.3 7.1 2.6 7.5 3 .3.4 1.3.7 2 .7.8 0 4.8 1.5 8.9 3.4 4.9 2.3 7.4 4 7.4 5.1 0 1.4-.7 1.6-3.7 1.2-2.1-.3-5.4-1-7.3-1.5-1.9-.6-8.3-2.4-14.2-4.1-12.7-3.5-12.8-3.6-12.8-6.5 0-4.4 2.3-4.6 12.2-1.3m-59.2 6.1c11.2 6.8 24 12.3 39 16.6 5.9 1.8 11.3 4.5 13 6.6 1.3 1.5 1.1 1.6-2.8.9-2.3-.4-6.6-1.5-9.4-2.6-2.9-1-6-1.9-6.8-1.9-4.9-.1-33.1-16.2-42-24.1-3.9-3.5-4.7-3.9 9 4.5m6.8 14.4c2.4 1.3 4.1 2.7 3.8 2.9-.6.6-15.6-8.5-15.6-9.4 0-.3 1.7.5 3.8 1.8 2 1.2 5.6 3.3 8 4.7m13.7 7.1c4.4 2.1 9 4.2 10.3 4.6s2.1.9 1.8 1.3c-.7.7-20.6-8-20.6-9.1 0-1-.4-1.1 8.5 3.2m17.2 7.8c-.4.3-1 .3-1.4 0-.3-.4 0-.7.7-.7s1 .3.7.7m8 2c-.4.3-1 .3-1.4 0-.3-.4 0-.7.7-.7s1 .3.7.7"/><path d="M771.5 367.6c-6.1 3.2-18.8 10-23.2 12.6-7.8 4.4-10.4 5.8-20 11.6-5.6 3.4-12.6 7.6-15.5 9.5s-9.1 5.8-13.8 8.7c-16.5 10.4-19.6 12.4-30.3 19.8-6 4.1-10.6 7.6-10.3 7.9s6.5-3.5 13.8-8.4c15.3-10.3 39.6-25.6 61.3-38.6 17-10.2 19.2-11.4 33-18.7 5.5-2.8 10.4-5.6 11-6.1 1.7-1.7-.9-.9-6 1.7M730.8 438c-8.4 4.5-16.4 15.6-20.7 28.9-2.5 7.7-2.6 12.2-.5 18.3 2 6 5.2 8.9 10.7 9.5 14.6 1.7 32.7-20.7 32.9-40.6 0-7.4-2.4-13.7-6.4-16.5-3.1-2.2-11.4-2-16 .4m15.9 1.2c2.5 2 5.3 8.9 5.3 13 .1 14.8-10.7 33.7-22.4 39.2-4.7 2.2-10.9 2.3-14.2.1-13.7-9 .5-47.3 20-53.7 3-1 9.4-.2 11.3 1.4M123.4 232.9c.4.6 1.5 1.1 2.4 1.1 1 0 6.2 1.6 11.7 3.6s11 3.8 12.2 4.1c2.8.7 5.3 3.3 3 3.3-.8 0-3.3-.6-5.5-1.4-4-1.4-8.9-1.9-18.9-1.7-9.8.2-5.4 1.6 5.5 1.8 5.9.1 11.8.6 13.2 1.1 2.5 1 2.5 1 0 2-1.4.5-6.1 1.2-10.5 1.6-4.4.3-9.3 1.1-11 1.6-2.3.7-1.4.8 4 .5 7.7-.5 7.7-.4-.9 2-3.2.9-5.6 1.8-5.3 2.1s2.1.1 4.1-.4c4.7-1.3 4.6-.7-.5 1.8-2.3 1.2-3.8 2.4-3.5 2.7s3.9-1.3 8-3.6c4.1-2.2 9.6-4.8 12.3-5.6 2.6-.9 5.7-2 6.8-2.5s6.1-1.9 11-3c5-1.1 10.6-2.5 12.5-2.9 1.9-.5 8.2-1.5 14-2.1 21.2-2.4 42.2 3.3 69.5 18.9 7.3 4.1 19.5 12 19.5 12.6 0 .2-2.6 1.1-5.7 2-11.5 3.2-19.8 5.8-20.8 6.5-.5.4-2.3 1-4 1.4-7 1.7-32.7 13.6-47.3 21.9-14.5 8.3-33.9 21.5-37 25.3-1.8 2.2-3.9 6.1-4.7 8.9-2.5 8.3-5.5 21.6-5.5 24.2 0 6 6.7 12.9 15.9 16.4 16.5 6.2 35 4.7 60.1-4.8 19.6-7.5 22.6-8.7 23.5-9.5.5-.4 1.5-.8 2.3-.8 2.2 0 31.5-14.9 42.2-21.5 22.6-13.8 26.7-17.1 29.5-23.9 1.3-3 1.3-3 2.9.2 2.6 5.1 1.2 6.7-15.9 18.2-26.8 18-51.7 30.5-86 43.2-19.2 7.1-24.1 8.2-38.5 8.2-14.5.1-19.1-.8-36.5-6.6-10.5-3.5-25.6-9.6-26.8-10.8-.5-.4 2.3-7.3 6.2-15.2 8.4-17.2 9.8-24.2 6.3-32-2-4.6-6.8-9-11.2-10.3-2.4-.7-2.4-.7-.5.9 1.1.8 2.5 1.6 3.1 1.6 2 0 7.2 6.6 8.5 10.7 1.4 4.9 0 13.8-3.1 20-9.9 19.8-11.8 24.2-10.7 25.1 3.4 2.8 32.7 13.5 47.2 17.3 6.5 1.7 24.2 1.8 33 0 7-1.3 7-1.3 28 9.3 27 13.6 41 21.3 50.8 27.8 5.5 3.7 9.8 8.9 11.1 13.4.5 1.7 0 2.2-4.1 3.1-2.7.6-8.4 1.7-12.8 2.3s-9 1.3-10.2 1.6c-3.2.6-8.3 5.3-8.3 7.5 0 4.8 5.9 11.7 12.2 14.3 7.6 3.2 24.6 1.4 38.5-4 8.1-3.2 10.5-5.2 13.2-11 2.5-5.2 2.7-10.1.6-13.1-1.4-2-1.4-2.3.5-3.3 1.6-.9 2.2-.8 2.6.4.3.8.3 2-.1 2.6-.3.5.1 1.3.9 1.6.9.3 1.6 1.7 1.6 3s.5 2.4 1.1 2.4.9-1.4.7-3.2c-.2-1.9.2-3.3 1-3.5 1.2-.5 1.9 6.9 1.5 17.4-.1 2.4 0 4.3.1 4.3.2 0 1.8-.8 3.7-1.8 3.4-1.7 3.4-1.7.7-2-2.4-.3-2.8-.8-2.8-3.5 0-3.4-.2-3.2 11-9.5 7.5-4.2 21-12.8 30.3-19.2 6.6-4.6 8.8-4.9 11-1.8 1.6 2.3 1.6 2.3 1.6-.5.1-2-.4-2.7-1.8-2.7s-2-1-2.5-4.6c-.3-2.5-.3-5 0-5.5 1.1-1.9 2.4-.8 2.4 2.1 0 1.6.5 3 1.1 3 .8 0 .9-1.3.5-4-.5-3.3-.3-4 1-4 1.4 0 1.5 1.3 1.2 9.5-.1 5.2-.2 9.5 0 9.5 1.6 0 9.5-5.1 13.2-8.6 4.9-4.6 10-13.4 10-17.2 0-3.1 1.4-3.4 4-1 3.5 3.2 5 8.1 5 15.9 0 8.6-2.1 16.4-5.9 21.6-1.6 2.2-8.1 8.2-14.5 13.3-6.4 5.2-11.6 9.8-11.6 10.3 0 .8 2.2-.5 4-2.3.3-.3 2.5-2.1 5-4 7.4-5.7 8.2-6.3 12.8-10.5 13.4-12 16.2-37.1 5.1-46.4-2.4-2-2.9-3.2-2.9-7 0-5.9-1.4-11-5.1-18.9-3.8-8.2-6.6-12.2-13.1-19-5-5.2-23.1-18-32.8-23.3-2.5-1.3-4.7-2.7-5-3-.9-1.1-25.5-12.7-29.5-13.9-2.7-.9-6.1-3.5-10.5-7.9-3.6-3.6-9.9-9.5-14-13.1s-7.7-6.7-8-7-3-2.6-6.1-5.1c-14.1-11.3-42.3-28-56.9-33.7-14.1-5.4-30.5-8.2-41-6.9-11 1.3-31.4 4.9-33.1 5.8-1.1.6-3.3.1-6.5-1.5-5.4-2.6-21-8-26.3-9.1-2.3-.5-3.1-.4-2.7.4m163.1 44.3c7.2 5.4 10.5 8.2 20.9 17.8 17 15.6 18.9 18.9 14.5 25.1-4.8 6.8-36.5 26.2-59.1 36.3-13.5 6-16.5 7.3-19.8 8.5-1.9.8-4.8 1.9-6.5 2.6-5.4 2.4-24.4 8.5-30.7 10-12.7 3-32.8 1.3-41.4-3.5-4.9-2.8-10.1-8.1-10.9-11.2-.3-1.3.3-6.4 1.5-11.3 1.2-5 2.5-10.6 2.9-12.6 1.7-7.9 7-13.7 20.1-22.1 27.2-17.6 52-29.7 77-37.7 6.9-2.2 14.5-4.6 17-5.4 6.7-2.2 6.9-2.1 14.5 3.5m48.7 38c10.9 4.9 28.1 14.3 38.3 20.9 15.8 10.4 20.9 14.7 26.8 22.6 6.2 8.1 8.4 13 6.9 14.5-.8.8-1.4.5-2.2-1.6-.5-1.5-1.7-3.4-2.5-4.2-1.8-1.9-27-17.9-34.5-22.1-3-1.7-7.1-3.9-9-5.1-9.6-5.6-13.2-7.6-20.8-11.5-7.6-3.8-8.2-4.4-7.7-6.7.3-1.5-.2-4-1.4-6.3-1-2-1.7-3.7-1.5-3.7s3.6 1.5 7.6 3.2m-1.4 12.8c2.3 1.1 4.2 2.4 4.2 2.9 0 1.1-6 5.7-16.5 12.8-26.4 17.6-51.8 30.9-77.7 40.5-20.9 7.7-18.1 7.2-24.4 4.3-3-1.4-5.9-2.5-6.4-2.5-.6 0-1-.3-1-.8 0-.4 4.9-2.2 10.8-4.1 9.5-3.1 22.6-8.3 36.2-14.3 19.1-8.5 44.1-22.9 59.9-34.5 4.7-3.4 9.1-6.2 9.7-6.2.5-.1 2.9.8 5.2 1.9m13.2 7c2.8 1.6 5.2 3 5.4 3s3.4 1.8 7 4 6.8 4 7 4c1.6 0 34.7 21.8 36.3 23.9 2.5 3.2 1.5 8.7-2.7 15.3-2.2 3.5-4.7 7.1-5.7 8.1-2 2-14.9 10.7-15.9 10.7-.6 0-23 12.5-34.9 19.5-8.3 4.9-14.1 7.6-21 9.8-7.6 2.4-26.2 6-27.3 5.3-.5-.3-1.2-1.9-1.5-3.5-1.2-6-9.5-12.6-28.7-23-15.3-8.3-21.4-11.6-28.8-15.2-4.6-2.3-7.9-4.6-7.5-5 .5-.5 4.2-2 8.3-3.4 7.2-2.5 12.6-4.7 21.7-8.6 2.4-1.1 4.5-1.9 4.9-1.9.9 0 23.5-11.5 29.2-14.9 2.9-1.7 5.5-3.1 5.8-3.1s2.5-1.4 4.9-3c2.4-1.7 4.6-3 5-3 .5 0 17.4-11.1 20-13.2 8.4-6.7 11.2-8.7 12.2-8.7.7-.1 3.5 1.2 6.3 2.9m63.9 42.2c3.4 11.3 2.4 20.3-2.8 25.9-6.2 6.4-12.1 4.6-12.1-3.8 0-3.9 3-11.9 5-13.3.3-.3 1.7-2.5 3-5 4.4-8.2 5.3-8.7 6.9-3.8M395 396.5c0 .3-.2.5-.5.5s-.5-.2-.5-.5.2-.5.5-.5.5.2.5.5m.9 8.9c1.6 4 6.3 4.8 10.4 1.6 5.6-4.4 4.1-.8-2.5 6-4.3 4.6-10.6 9.5-11.2 8.9-.6-.7-1.4-17.8-.8-18.3 1.3-1.3 3.3-.4 4.1 1.8m-18.1 3.8c-.3 2.3-10.7 9.2-25 16.8-7 3.7-8 3.7-7.6.4.3-2.5 3.4-4.6 22-14.4 3.1-1.6 5.9-3.4 6.3-4 .3-.5 1.5-1 2.6-1 1.5 0 2 .6 1.7 2.2m4.2 5.1c0 3.1-.7 3.8-8.2 8.9-15.5 10.3-37.6 23.8-39.1 23.8-.4 0-.7-2.4-.7-5.3 0-5.4 0-5.4 5.3-7.7 10.6-4.8 15.3-7.1 20.2-10 2.8-1.7 5.9-3.4 7-3.9s4.7-2.8 8-5 6.3-4.1 6.8-4.1c.4 0 .7 1.5.7 3.3M320.1 438c4.7 2.6.5 17.1-5.9 20.4-13.7 7-36.7 9.9-45.1 5.6-5.1-2.5-9.1-7.4-9.1-11 0-3.5 4.1-7 8.2-7 1.6 0 4.8-.4 7.1-.9 2.3-.6 9.5-2 16-3.2s13.5-2.8 15.5-3.5c4.5-1.6 10.6-1.8 13.3-.4M552 246.8c-4.5 2.4-7.2 7.5-6.6 12.5.6 5.3 2.7 8.1 8 10.6 3.2 1.5 4.6 2.7 4.6 4.1 0 1.1.4 2 1 2 .5 0 .9-1 .7-2.2-.1-1.7.7-2.6 3.3-3.9 4.9-2.4 7.1-5.1 7.7-9.7 1.4-10.5-9.5-18.4-18.7-13.4m13.7 3.5c7.8 7 2.7 18.7-8.1 18.7-6.8 0-13-8.1-10.6-13.9 1.4-3.5 4.8-6.7 7.5-7.3 3.6-.8 8.9.4 11.2 2.5"/><path d="M554.5 253.3c-1.1.9-1.5 1.9-1 2.7.6 1 1.1.9 2.1-.5.8-1 2-1.5 2.9-1.1 2.4.9 1.6 7-.9 7.4-1.5.3-1.8 0-1.3-1.8.4-1.6.1-2-1.1-1.8-2.1.4-2.8 4.4-1 5 .7.3 3.2.3 5.5 0 3.8-.4 4.1-.6 3.3-2.2-.6-1-1-2.9-1-4.2 0-4.4-3.8-6.1-7.5-3.5M558 284.6c0 2.1.4 3.3 1 2.9.6-.3 1-1.9 1-3.6 0-1.6-.4-2.9-1-2.9-.5 0-1 1.6-1 3.6M558 295.1c0 1.7.4 2.8 1 2.4.6-.3 1-1.7 1-3.1 0-1.3-.4-2.4-1-2.4-.5 0-1 1.4-1 3.1M558 305c0 1.6.5 3 1 3 .6 0 1-1.4 1-3 0-1.7-.4-3-1-3-.5 0-1 1.3-1 3M892.7 303.7c-1 .9-.9 5.3.1 5.3.5 0 .9-1.4.9-3 0-3.3-.1-3.3-1-2.3M558.7 325.7c-1.1 1-.8 8.3.3 8.3.6 0 1-2 1-4.5 0-4.6-.2-5-1.3-3.8M559 343c0 1.6.5 3 1 3 .6 0 1-1.4 1-3 0-1.7-.4-3-1-3-.5 0-1 1.3-1 3M559 368.5c0 2.5.5 4.5 1 4.5.6 0 1-2 1-4.5s-.4-4.5-1-4.5c-.5 0-1 2-1 4.5M559 382c0 2.2.5 4 1 4 .6 0 1-1.8 1-4s-.4-4-1-4c-.5 0-1 1.8-1 4M560 395c0 2.5.4 3.9 1 3.5.6-.3 1-1.9 1-3.5s-.4-3.2-1-3.5c-.6-.4-1 1-1 3.5M560 404.9c0 2.3-.5 3.1-1.8 3.1-1.1 0-2.7.9-3.6 1.9-2.2 2.4-1.4 5.5 2 7.8 5.2 3.4 10.2-3 5.8-7.4-1-1.1-1.4-2.6-1-4.4.3-1.6.1-3.1-.4-3.4-.6-.4-1 .7-1 2.4M150 413.4c-5.5 1.7-9.6 5.2-12 10.1-1.2 2.5-2.6 4.5-3.1 4.5-.6 0-2.8-.9-4.9-2-2.2-1.1-4-1.7-4-1.2 0 .8 8.3 5.2 9.9 5.2.5 0 1.4-1.4 2-3 2.9-8.6 9.9-13 20.5-13 15.9 0 30.3 7 45.1 21.8 7 7 13.5 15.3 16.4 20.9 2.2 4.4 2.8 7.8 1.2 6.8-.6-.3-3.6-1-6.7-1.6-5-.9-6.4-1.8-10.8-6.3-12-12.2-23.3-19.7-39.9-26.5-4.3-1.7-12.3-1.3-16.5.8-5.7 2.9-7.7 7.2-7.6 16.1.1 5.7.7 9 2.7 13.5 1.4 3.3 2.4 6.2 2.2 6.4s-3.1-1.5-6.4-3.8c-3.4-2.2-6.4-4.1-6.8-4.1-.3 0-1.5-.7-2.5-1.7-1-.9-2.1-1.3-2.4-1-.4.3 3.6 3.3 8.7 6.6 5.2 3.3 10.4 6.7 11.5 7.5 1.4 1 2.4 3.1 2.9 6.2.9 6.1 7 20.2 11.7 27.4 5.3 8 15.8 18.1 22 21.2 11.5 5.9 19.6 5.4 33.7-1.7 6.6-3.3 18.6-13.6 20.8-17.9 1-1.7 1.3-1.8 9.4-.2 17.1 3.2 20.5 3.6 31.5 3.6 13.4 0 17.9-.8 33.9-6.2 12.3-4.1 16-5.6 15.2-6.4-.2-.2-4.6 1.2-9.8 3.1-16.4 6-23.8 7.5-38.1 7.5-12.9 0-20.7-.8-34.8-3.6-11.4-2.3-13.2-3.5-17-11.2-3.1-6.5-9.8-18.2-10.9-19.2-1.9-1.6-5.2-7.3-4.6-7.8.6-.6 15.1 2.2 36.2 7.2 17.8 4.2 27.2 5.2 37 3.7 4.7-.6 10.9-1.8 13.7-2.5 6.7-1.8 26.8-9.4 28-10.6 1.7-1.7-1.6-1.1-6.4 1.1-9 4.2-25.5 8.9-34.8 10-9.4 1.1-27.4-.1-32.7-2.2-1.1-.4-6.3-1.7-11.5-2.9-17.9-3.9-17.5-3.8-19-7.8-2.1-5.9-10.5-17.6-17.9-25-17.6-17.6-40.3-26.6-55.1-21.8m15 17.8c2.4.9 2.2 1.1-3.3 4.1-9.2 4.9-13.7 13.2-13.7 25.1 0 3.1-.4 5.6-.9 5.6-1.7 0-5.3-10.7-5.8-17.6-.7-8.5.8-13.6 4.6-16.3 4.1-2.9 12.5-3.3 19.1-.9m10.2 4.9c2.3 1.4 2.6 1.9 1.1 1.4-4.5-1.3-2.2.5 5 3.8 6.8 3.2 11.8 7.4 20.2 17.2 3.8 4.4 11.9 21 14 28.5 1.9 6.9 2.5 17.7 1.2 22.2-.4 1.7-.3 2.8.2 2.8 1.5 0 2.4-8.5 1.7-15.9-1-10.8-7.4-26.3-14.9-36.2-2.1-2.8-3.6-5.3-3.4-5.5.8-.8 11.4 12 16.6 20.1 2.9 4.3 7 11.5 9.1 16 3 6.3 4.6 8.4 7.4 9.9 2 1.1 3.6 2.4 3.6 2.9 0 1.9-11.6 12.6-17.5 16.2-6.7 4-17 7.5-22.1 7.5-8.9 0-21.9-7.8-30.5-18.3-4.8-5.9-14.1-23.4-15.2-28.7-.3-1.4-1.1-4.5-1.7-7-.7-2.7-1-8-.7-13.1.8-12.1 3.2-17 11-22 6.8-4.4 10.2-4.8 14.9-1.8"/><path d="M169.3 456.6c-7.6 3.8-8.4 18.4-1.9 31.7 6.3 12.7 14.9 19.7 24.4 19.7 6.1 0 9.8-3.4 11.1-10.3 3.7-20-19.4-48.3-33.6-41.1m13.8 3c1.4.7 4.9 3.8 7.7 6.9 6.3 6.8 11.2 18.6 11.2 26.8 0 14.5-13.2 18-24.8 6.7-13.2-12.7-17.6-36.5-7.8-41.4 3.4-1.8 9.2-1.3 13.7 1M376.5 432.5c-6.2 4.5-22.9 14.7-30.2 18.4-4 2-6.4 4.1-4.6 4.1.8 0 3.4-1.3 9.6-4.8 2-1.2 5.4-3.2 7.5-4.3 6.6-3.8 25.2-16.4 25.2-17.2 0-1.3-1.5-.6-7.5 3.8M386.7 430.7c-1.1 1-.8 7.3.3 7.3.6 0 1-1.8 1-4 0-4.1-.2-4.5-1.3-3.3M386.5 443.2c-.4 1-.4 2.6 0 3.5.8 1.7.8 1.7 1.2 0 .3-.9.3-2.5 0-3.5-.4-1.6-.4-1.6-1.2 0M328 454.5c0 1.4.5 2.5 1 2.5.6 0 1-1.1 1-2.5s-.4-2.5-1-2.5c-.5 0-1 1.1-1 2.5M387 454.9c0 1.7.5 3.1 1 3.1.6 0 1-1.1 1-2.4 0-1.4-.4-2.8-1-3.1-.6-.4-1 .7-1 2.4M373 469.9c-11.1 7.6-20.8 13.2-33.7 19.4-3.5 1.7-6.3 3.4-6.3 3.9 0 1 20-9 30-15 10.7-6.4 22-14.3 22-15.3 0-1.2 1-1.8-12 7M329.3 468.5c0 2.2.2 3 .4 1.7.2-1.2.2-3 0-4-.3-.9-.5.1-.4 2.3M387.5 469.2c-.3.7-.1 2.6.4 4.3.9 2.9.9 2.9 1-1.3.1-4.1-.5-5.4-1.4-3M664.8 469.5c-6.9 1.5-10.8 3.9-10.8 6.5 0 2.4 2.9 2.6 11.2.9 7.4-1.5 10.5-2.8 11-4.7 1.2-4.4-1.2-5-11.4-2.7m10.2 1.4c0 1.4-1.3 2-7.5 3.7-7 1.8-11.8 1.9-11.3.1.8-2.3 18.8-6 18.8-3.8M229.1 477.9c-1.2.8-1.3 1.5-.4 3.4.9 1.8 2.9 3 7.6 4.6 8.8 2.8 13 3.1 13.5.9.6-3.1-3.9-6.4-10.7-7.7-3.5-.7-6.8-1.4-7.5-1.7-.6-.2-1.7 0-2.5.5m9.8 2.9c6.8 1.7 10.6 4.1 8.9 5.7-.7.7-13.2-2.2-16-3.7-1.8-.8-2.5-3.8-1-3.8.4 0 4 .8 8.1 1.8M329 479.4c0 1.4.5 2.6 1 2.6.6 0 1-.9 1-1.9 0-1.1-.4-2.3-1-2.6-.6-.4-1 .5-1 1.9M388.2 483c0 1.9.2 2.7.5 1.7.2-.9.2-2.5 0-3.5-.3-.9-.5-.1-.5 1.8M640.3 483.8c-9.3.1-15.3.6-15.3 1.2 0 .7 7 .9 19.4.8 10.7-.2 19.2-.6 18.8-.9-1.2-1.2-7.4-1.5-22.9-1.1M329 488.4c0 1.4.5 2.6 1 2.6.6 0 1-.9 1-1.9 0-1.1-.4-2.3-1-2.6-.6-.4-1 .5-1 1.9M388 492.8c0 2.3-.6 3-3.5 4-5.5 2-8.5 6.4-8.5 12.4 0 4.3.4 5.4 3.3 8.3 5.9 5.9 13.5 5.9 19.4 0 2.7-2.7 3.3-4 3.3-7.8 0-5.6-3.2-10.6-7.9-12.2-3.3-1.1-5.7-4.6-4.5-6.6.3-.5 0-.9-.5-.9-.6 0-1.1 1.3-1.1 2.8m7.8 7.9c4.2 3.5 5.7 9.4 3.6 13.4-2.1 4.1-5.3 5.9-10.5 5.9-5.6 0-9.3-2.5-10.9-7.5-3.6-10.8 9.1-19.1 17.8-11.8"/><path d="M383.4 502.6c.3.9.6 4.5.6 8.1 0 5.1.3 6.4 1.4 6 .7-.3 1.8-.1 2.4.5s2.2.8 3.7.4c6.1-1.6 4.7-11.3-1.6-10.4-2.6.4-2.9.2-2.9-2.3 0-1.5-.7-2.9-1.6-3.3-2.4-.9-2.7-.8-2 1m8.4 9.8c.3 3.4.1 3.7-2 3.4-2.7-.4-3.7-4.1-1.7-6.4 1.9-2.3 3.4-1.1 3.7 3M329 499.4c0 .8.5 1.8 1 2.1.6.3 1-.3 1-1.4 0-1.2-.4-2.1-1-2.1-.5 0-1 .6-1 1.4M330.1 507.4c-.1 2.6.2 3.7.9 3 .6-.6.6-2.1.1-3.9-.9-3-.9-3-1 .9M330 518c0 1.8.4 2.9 1 2.5.6-.3 1-1.5 1-2.5s-.4-2.2-1-2.5c-.6-.4-1 .7-1 2.5M330 525.8c0 1.2-1.5 2.5-4.2 3.8-5.9 2.7-8.3 6.4-8.2 12.5.2 13.5 18.1 17.2 24.4 4.9 1.5-3 1.7-4.4.9-8.1-1.2-5.1-3.2-7.7-7.6-9.6-2.2-.8-3.3-2-3.3-3.3 0-1.1-.4-2-1-2-.5 0-1 .8-1 1.8m6 5.7c1.6.9 3.6 2.9 4.5 4.5 4.6 8.9-2.8 18.3-12.9 16.4-9.6-1.7-11.8-15.3-3.4-20.4 3.9-2.4 7.8-2.5 11.8-.5"/><path d="M326.3 538.6c-1.5 2.4-1.5 2.9-.2 5.3.8 1.4 2.4 2.7 3.6 2.9 2.7.4 6.6-1.6 5.7-2.9-.4-.6-1.3-.4-2.5.7-1.5 1.4-2.1 1.4-3.4.4-2-1.7-1.9-5.9.2-6.7.9-.4 1.9-.1 2.1.5.2.7 1.1 1.2 1.9 1.2 1 0 1.3-.6.9-1.6-.3-.9-.6-1.8-.6-2s-1.3-.4-3-.4c-2.1 0-3.5.8-4.7 2.6M280.9 771.3c-7.3 4.9-8.7 13.2-3.3 19.6 5 6 13.3 6.1 19 .4 3-3 3.4-4 3.4-8.7 0-5.9-2.1-9.6-7-12.1-4.1-2.1-8.2-1.9-12.1.8m11.6.9c6.8 3.1 8.5 13.5 2.9 18.3-7.8 6.7-19.4 1.9-19.4-7.9 0-8.4 8.8-13.9 16.5-10.4"/><path d="M284 777.7c-1.1.8-1.8 1.9-1.4 2.4.4.6 1.3.4 2.4-.6 1-.9 2.4-1.4 2.9-1 1.9 1.1 1.2 2.1-2.4 3.4-2.4.8-3.5 1.9-3.5 3.2 0 2.2-.1 2.1 6.1 2.3 4.6.2 4.6.2 4.1-3.9-.2-2.2-.9-4.5-1.4-5.1-1.5-2-4.6-2.3-6.8-.7m4.8 6.5c-.7 1.9-3.8 2.2-3.8.4 0-1 .9-1.6 2.1-1.6s1.9.5 1.7 1.2M344.8 769.8l-32.8.2v22h18.5c14 0 18.7.3 19 1.2.2.7.6 13 .8 27.4l.3 26.1-8.5 1.2c-19.3 2.7-33.7 9.3-44.1 20-19.4 20-19.8 46.2-1.1 65 12.9 13 29.1 19.6 50.6 20.7 36.9 1.9 67.4-16.2 72.4-42.9.6-3.2 1.2-6.1 1.5-6.5.2-.4-.2-4.2-1-8.6-4.3-25.1-26.8-43.4-58.5-47.7-8.7-1.2-8.7-1.2-9.1-6.1-.3-2.6-.6-14.9-.7-27.3l-.2-22.5 18.8-.2 18.8-.3.3-10.8c.3-10.5.2-10.7-2-10.8-7.6-.4-13.5-.4-43-.1M388 781v9l-27.7.1c-15.3 0-31.9.2-36.9.5l-9.1.5-.6-5.3c-.9-6.9-.9-12.3 0-13.1.3-.4 17.2-.7 37.5-.7H388zm-18 70.1c7.2 1.5 17.1 5.5 24.4 9.7 17.6 10.3 28.4 31.4 24.7 48.3-3 13.2-11.8 25.1-24 32.2-7.9 4.7-18.9 8.6-27.6 9.8-3.8.5-9 1.3-11.4 1.6-5.3.7-19.1-1.2-28.6-3.9-17.7-5-32-16-38.7-29.6-5.7-11.5-4.9-28.3 1.7-39.8 11-19 36.5-31 63.5-29.9 5.8.2 13 .9 16 1.6"/><path d="M344.5 776c-.3.5-.3 1.1.2 1.1.4.1 1.3.2 1.8.4.6.1 1.5.3 2.2.3.7.1.5 1.6-.8 4.3-1.1 2.2-1.9 4.5-1.7 5.1s1.7-1.4 3.2-4.5 2.5-6.1 2.1-6.7c-.8-1.3-6.2-1.3-7 0M356.7 776.9c-1.5 1.6-1.6 1.9-.3 2.4.9.4 1.6 2.3 1.9 4.9.2 3.2.4 2.5.5-2.5.1-3.7.1-6.7 0-6.6-.2 0-1.1.8-2.1 1.8M377.4 778.7c-.8 2.1-1.9 4.6-2.5 5.6-1.3 2.4-.3 3.5 1.4 1.5 2.1-2.7 5.4-3.2 6.2-.8.3 1.1 1.1 2 1.7 2s.7-.7.3-1.8c-.4-.9-1.4-3.6-2.2-6-.8-2.3-1.9-4.2-2.4-4.2-.6 0-1.7 1.7-2.5 3.7m3.6 1.9c0 .8-.7 1.4-1.5 1.4-1.5 0-2.1-2.1-.9-3.3 1-.9 2.4.2 2.4 1.9M319.6 777.6c-1.2 3.1-.6 4.4 1.9 4.4 2.8 0 4.4 2.5 2.7 4.2-.7.7-1.7.6-3.1-.1-1.3-.7-2.1-.8-2.1-.2s.9 1.5 2.1 2.1c1.6.9 2.5.8 4-.6 3.2-2.9 1.8-7.4-2.3-7.4-1 0-1.8-.5-1.8-1 0-.6.9-1 1.9-1 1.1 0 2.3-.5 2.6-1 .4-.6-.6-1-2.3-1-1.8 0-3.2.6-3.6 1.6M331.1 777.4c-.8 1-.9 1.6-.1 2.1.5.3 1 2.1 1 4s.5 3.7 1 4c.6.4 1-1.7 1-5.4 0-6.1-.7-7.3-2.9-4.7M365.4 777.5c-1.7 1.3-1.7 1.4-.1 1.5 1.3 0 1.7.9 1.7 4 0 2.2.5 4 1 4 .6 0 1-2.5 1-5.5 0-5.8-.5-6.4-3.6-4M339 783c0 .5.7 1 1.5 1s1.5-.5 1.5-1c0-.6-.7-1-1.5-1s-1.5.4-1.5 1M338.5 852.5c-28.3 5.4-45.6 23.8-44.3 47 .7 11.4 4.1 18.1 13.7 27 2.7 2.5 3.4 2.7 4.2 1.5.9-1.2 1-1.2.5.3-.4 1.3 1 2.4 6.8 5.2 4.1 1.9 8.3 3.5 9.3 3.5s2.3.4 2.9.9c.5.5 3 1.2 5.5 1.5 3.6.5 5 .3 6.3-.9 2.9-2.9 1.8-5.4-5.7-12.8-8.3-8.1-14.2-15.6-16.3-20.6-2.1-5.1-1.8-15.9.6-20.9 2.5-5.1 13.3-16.8 19.2-20.8 2.4-1.6 4.4-3.2 4.6-3.6.8-1.8 7.1-1.9 10.3-.2 1.9.9 3.6 2 3.9 2.3.3.4 1.4 1.4 2.6 2.2 9.1 6.3 18 16.3 20.2 23 1.6 4.8 1.5 13.9-.2 18-1.9 4.5-7.6 12-15 19.7-7.8 8.1-8.9 10.7-5.6 13.4 7.6 6.1 31.4-4.7 40.9-18.6 3.8-5.4 7.1-15.6 7.1-21.6 0-12.5-9-27.6-21.3-35.8-13.4-8.9-33.9-12.9-50.2-9.7m16.5 1.9c0 2.2-1.5 2.7-4.4 1.6-3.7-1.4-3.2-3 .9-3 2.4 0 3.5.5 3.5 1.4m-14.3.2c-.3.3-1.2.4-1.9.1-.8-.3-.5-.6.6-.6 1.1-.1 1.7.2 1.3.5M335 856c-.8.5-2.1 1-2.9 1-.7 0-5.1 1.9-9.7 4.2-12 6-22.5 17.5-24.8 27.2-.4 1.5-1 2.6-1.3 2.2-.7-.6 3.4-12.2 5.1-14.4 7.6-9.6 14.7-14.8 26.6-19.3 5.1-2 9.5-2.5 7-.9m32.1 1c14.3 4.3 25.7 12.1 32.3 22.1 7.8 12 8.5 23.5 2.2 35.7-3.8 7.4-14.5 15.9-24.6 19.5-11.6 4.1-12.8 2.9-4.7-4.8 7-6.7 12.9-14 15.8-19.5 3.3-6.5 3.4-18.6 0-25.7-3.3-7.1-16.7-19.8-25.3-24.1-10.6-5.3-8.3-6.9 4.3-3.2m-20.6 0c-.3.5-2.3 1.7-4.3 2.7-2 .9-3.9 1.9-4.2 2.2-.3.4-1.6 1.2-3 2-8.7 4.8-16.7 13.7-20.3 22.8-1.5 3.7-1.8 6.4-1.4 11.8.7 10 3.9 15.8 15.4 27.6 5.3 5.5 9.3 10.2 9 10.6-1 .9-8-1.5-15.8-5.3-8.8-4.4-16.8-11.8-20.9-19.6-3.1-5.7-3.4-7-3.2-14.1.2-9.8 3.7-17.9 11.3-25.4 8.1-8.2 24.9-16 34.7-16.2 1.9-.1 3.1.3 2.7.9m26.2-.4c-.3.3-1.2.4-1.9.1-.8-.3-.5-.6.6-.6 1.1-.1 1.7.2 1.3.5m13 5.8c7.9 4.6 14.5 11.6 18.5 19.4 3 5.9 3.3 7.5 3.5 15.6l.1 9.1-.7-9c-.6-7.5-1.3-10.1-4-15.2-4-7.4-12.9-16.6-19.3-19.9-2.7-1.3-4.8-2.7-4.8-2.9 0-.9.8-.5 6.7 2.9m-18.7 2.1c0 .3-.2.5-.5.5s-.5-.2-.5-.5.2-.5.5-.5.5.2.5.5m11.3 9.7c3.7 3.7 7.7 8.7 8.7 11 2.1 4.7 2.7 15 1.1 20.5-1.5 5.2-7.5 13.3-15.6 21.3-5.2 5.2-7.4 8.1-7.1 9.3.3 1.3-.1 1.7-1.2 1.5s-1.7-1.3-1.7-3c0-1.9 1.8-4.6 6.5-9.5 12.8-13.3 17-20.7 17-29.8 0-6.8-4.6-15.9-11.8-23.5-10.3-10.7-7.2-9 4.1 2.2m-49.7-1.3c-10.1 10.7-12.9 21-8.7 32.1 2.3 6 6.2 11.1 15.9 20.9 5 5.1 7.2 8.1 7 9.4-.3 2.2-2.8 3.6-2.8 1.7 0-.7-4.4-5.9-9.8-11.5-11.8-12.2-14.5-17.1-15-27.2-.6-10.7 1.6-16.1 9.9-24.6 3.7-3.7 7.3-6.7 7.9-6.7.7 0-1.2 2.7-4.4 5.9m-32.9 24.8c-.3 1-.5.2-.5-1.7s.2-2.7.5-1.8c.2 1 .2 2.6 0 3.5m4 14.1c1.2 2.6 3.9 6.8 6 9.2l3.8 4.5-3.7-2.8c-2.1-1.6-4.8-5.2-6.4-8.5-1.5-3.1-2.9-6-3.1-6.5-.2-.4-.1-.7.4-.7.4.1 1.8 2.2 3 4.8m107.3-3.3c0 .3-.2.5-.5.5s-.5-.2-.5-.5.2-.5.5-.5.5.2.5.5m-1.8 4.7c-.7.7-1.2.8-1.2.2s.3-1.4.7-1.7c.3-.4.9-.5 1.2-.2.2.3-.1 1.1-.7 1.7m-1.2 2.2c0 .3-.5.8-1.2 1.2s-.8.3-.4-.4c.7-1.2 1.6-1.6 1.6-.8m-2.9 4.4c-.5 1-1.8 2.5-2.7 3.3-1.1.9-.9.2.6-1.9 2.6-3.5 3.6-4.2 2.1-1.4m-5.1 5.6c0 .3-.5.8-1.2 1.2s-.8.3-.4-.4c.7-1.2 1.6-1.6 1.6-.8m-5 4.1c0 .2-1 .9-2.2 1.5-2.2 1.1-2.2 1-.4-.4 2.1-1.7 2.6-1.9 2.6-1.1m-5 3c0 .3-.2.5-.5.5s-.5-.2-.5-.5.2-.5.5-.5.5.2.5.5m-2 .9c0 .3-.5.8-1.2 1.2s-.8.3-.4-.4c.7-1.2 1.6-1.6 1.6-.8"/><path d="M345.5 867.1c-8.2 2.4-14.9 11.8-14.9 20.9-.1 9 5 17.2 13 20.9 10.7 5.1 23.2.5 28.3-10.4 8.1-17.3-8.2-36.8-26.4-31.4m12.5 1.5c3.6.8 11 7.5 12.8 11.7 1.8 4.1 1.4 14.6-.6 18.7-1 2-3.9 4.9-6.6 6.7-4.1 2.8-5.7 3.3-10.8 3.3-7 0-12.6-2.5-16.1-7.2-6.3-8.5-6.2-18.8.3-27.1 2.3-2.8 6.9-5.7 9.2-5.7.7.1-.3.9-2.2 1.8-2 1-4.9 3.9-6.7 6.6-5.6 8.2-4.3 18.2 3.3 25.4 3.2 3 6.6 4.2 12.5 4.2 7.8 0 13.2-3.7 16.4-11.2 2.8-6.8 1.4-14.6-3.7-20.4-3.4-3.9-6.1-5.3-12.3-6.4-2.9-.5-3.3-.8-1.4-.9 1.5 0 4.1.2 5.9.5m2 3.9c5 2.6 10 10.7 10 16.3 0 4-3.9 11-7.8 14-6.3 4.8-18 3.1-23.1-3.4-6.6-8.3-4.5-21.1 4.3-26.5 3.8-2.3 12.5-2.5 16.6-.4M643.3 772c-11.1 6.7-6.2 24.3 6.7 24.3 10 0 16.3-12.1 10.7-20.4-4.1-6-11.3-7.7-17.4-3.9m12.8 1c4.9 2.7 6.4 13.6 2.4 18-2.8 3.1-8.8 4.3-12.7 2.7-4.5-1.9-6-3.9-6.5-9.1-.6-4.9 2.3-11.1 5.5-11.9 3.3-.9 9.3-.7 11.3.3"/><path d="M647.2 779c-2.6 2.4-2.8 4.7-.6 7.8 1.9 2.7 5.5 2.8 7.9.2 1-1.1 1.3-2 .7-2s-1.4.4-1.7 1c-.3.5-1.7 1-3.1 1-2.3 0-2.5-.3-2.2-3.7.2-2.7.8-3.9 2.1-4.1 1-.2 1.7.3 1.7 1.2 0 1.9 1.6 2.1 2.6.4.7-1.1-2.1-3.8-4.1-3.8-.6 0-2.1.9-3.3 2M673.8 770.8c-1.8.2-2.8 1-2.9 2-.7 10.3-.7 15.6.1 17.7 1 2.5 1 2.5 18.8 2.5h17.9l.6 8.2c.4 4.6.7 16 .7 25.3v17.1l-5.5 3.9c-3 2.2-5.5 4.3-5.5 4.7 0 1-5.7 1-6.2 0-.1-.4-2.2-2.2-4.4-4-4.2-3.2-4.2-3.2-20.8-3.2-19.1 0-17.4-.8-24.7 11.5-2.8 4.7-5 7.5-6.1 7.5s-4.1-3.5-7.8-9l-6.1-9h-8.7c-4.8 0-9.3.4-10 .8-.9.7-1.2 5.3-1 19.8l.3 18.9 6.6.3c5 .2 6.9-.1 7.9-1.3 1.6-1.9 8.8-1.9 11.4 0s11.3 1.9 15 0c3.2-1.7 10.2-2 11.1-.5.4.6 6.1 1 13.7 1 10 0 13.5-.3 14.7-1.4 2.1-1.9 23.6-2.5 25.4-.7s21.2 1.5 23.1-.4c1.7-1.7 6.3-2 6.8-.4.3.8 7.5 1.1 23.8 1 26.1-.2 26-.1 30.8-7.2 2-2.8 2.3-4.3 1.9-8.6-.3-2.9-1.2-6.2-2-7.3-1.1-1.6-1.3-3.8-.9-8.7.3-4 .1-6.8-.6-7.2-.5-.3-12.6-.4-26.9-.1l-25.8.5-.3 5.5c-.2 3-.9 5.8-1.5 6.2-.7.4-5.5.8-10.7.7h-9.5l5.9-5.3c3.5-3.1 5.6-5.8 5.2-6.4-.5-.8-3-1-8.1-.5-5.9.5-7.5.3-7.9-.8-.2-.8-.7-12.5-.9-26.2l-.5-24.7h19.4c22.6 0 20.7 1.2 20.2-13l-.3-8.5-36.5-.5c-20.1-.3-37.7-.4-39.2-.2m38.3 2.2H748v18h-76v-8.8c0-9.2.4-10.6 2.8-9.7.7.3 17.5.5 37.3.5m78.9 76.6c0 1.9-.5 4.3-1.2 5.4-1 1.6-.9 2.3.7 4 2.7 3 3.3 13.7 1 16.5-1.7 2-1.7 2-.8 0 .4-1.1.8-4.6.8-7.7 0-4.7-.4-6.2-2.3-8-2.1-2.2-3.1-2.3-20.2-2.6-9.9-.2-18-.7-18-1.1s7.9-1.1 17.6-1.5c9.6-.4 18.2-1 19-1.3.9-.3 1.4-1.9 1.4-4.5 0-2.3.4-3.7 1-3.3.6.3 1 2.2 1 4.1m-80.2-2.6c-2.1.4-4.6 1.4-5.6 2.3-1 1-2.3 1.7-2.8 1.7s.5-1.1 2.1-2.5c2-1.6 4.2-2.4 6.5-2.3 3.5 0 3.5 0-.2.8m14.2-.4c0 .4-2.3 2.8-5.1 5.3-4.8 4.4-5.1 4.8-3.5 6.4.9.9 1.6 2.7 1.5 3.9-.6 6.7-.5 6.8 7.1 6.8 7 0 7 0 7-4.3 0-2.4-.5-4.8-1.2-5.5-.9-.9-.3-1.2 2.9-1.2 2.3 0 4.5-.5 4.8-1 1.3-2.1 2.1-.9 1.7 2.5-.7 6.3 0 6.5 19.8 6.5 9.8 0 18.5.3 19.4.6s1.6 1.4 1.6 2.4c0 2.2-3.5 2.6-24 2.9-8.5.1-15.9.6-16.3 1-.5.5-.7 2.4-.5 4.2.3 3.4.3 3.4 22.3 3.9l22 .6-22.1.2c-18.1.2-22.4-.1-24-1.3-2.4-1.8-5.9-1.9-7.6-.1-1.8 1.7-20.8 3.2-20.8 1.6 0-.6 2.9-1 7-1 3.9 0 7-.4 7-.8 0-1.1-5.4-6.1-12.7-11.6-3.5-2.6-6.3-5.1-6.3-5.6s3.3-3.5 7.3-6.7c10.9-8.7 11.1-8.9 7.5-9.6q-2.1-.45 1.5-.6c2 0 3.7.2 3.7.5m16.4.9c-.4.8-.8 1.5-1 1.5s-.4-.7-.4-1.5.4-1.5 1-1.5c.5 0 .7.7.4 1.5m-90.6.4c-1.2 3.3-13.5 23-14.4 23.1-.6 0-3.8-3.9-7-8.8-8.7-12.9-9.9-14.9-8.1-13.4.8.7 3.7 4.6 6.4 8.7 7.3 11.4 8.9 11.2 16.3-1.5 2.9-5 5.7-9 6.2-9s.8.4.6.9m19.2.5c0 .8 1.7 2.8 3.7 4.3 4.9 3.7 6.2 4.7 10.1 7.9 3.8 3.1 4.6 1.8-8.1 12.2l-7.7 6.3v-14.5c0-8.6-.4-14.7-1-15.1-1.7-1-1.1-2.5 1-2.5 1.1 0 2 .7 2 1.4m117.5 1.1c0 1.9-.9 2-18.5 2.8-10.1.4-18.8 1.1-19.3 1.6s-.6 1.8-.2 3c.6 2 1.2 2.1 18.5 2.1 21.5 0 22.1.2 22.3 9.2.1 4.8-.3 6.2-2.3 8.3-2.3 2.5-2.3 2.5-24.2 2.5-21.8 0-21.8 0-21.8-2.4s0-2.4 18.8-2.8c19.5-.3 22.2-.9 22.2-4.7-.1-4.3-1.1-4.6-21.2-5.1l-19.3-.5-.3-7.7-.3-7.7 7.3-.3c4-.2 14.3-.3 22.8-.3 14.8 0 15.5.1 15.5 2M606 848.4c0 .3-.4.8-1 1.1-.5.3-1 .1-1-.4 0-.6.5-1.1 1-1.1.6 0 1 .2 1 .4m79 .1c0 .3-.2.5-.5.5s-.5-.2-.5-.5.2-.5.5-.5.5.2.5.5m-19 16c0 15.5 0 15.5-3.5 15.5-3.2 0-3.5-.2-3.7-3.3-.1-1.7-.3-4.3-.4-5.7s-.3-5.3-.3-8.8c-.1-3.4-.4-6.2-.9-6.2-.7 0-3.8 4.8-12.2 19.2-3.4 5.8-3.5 5.8-8.1 5.8-4.8 0-4.8 0-9.8-7.3-9.5-13.8-11.6-16.7-12.3-16.7-.5 0-.8 5.3-.8 11.9 0 11.8 0 11.8-3.1 12.5-1.7.3-3.5.3-4 0s-.9-7.5-.9-16V850h6.3c7.4 0 6.8-.5 15.8 13 6.3 9.5 7.7 11.2 9 10.5.3-.3 3.5-5.3 6.9-11.2 3.5-5.9 6.8-11.4 7.3-12.1.6-.7 3.5-1.2 7.8-1.2h6.9zm22.4-11c3.3 2.5 6.4 4.5 7 4.5s3.7-2 6.9-4.6c5.4-4.2 6.1-4.5 11-4.2l5.2.3-8.2 6.4c-4.6 3.5-8.3 6.7-8.3 7.1s1.1 1.5 2.5 2.4c4.7 3.1 15.5 12 15.5 12.8 0 .4-2.1.8-4.7.8-4.3 0-5.5-.6-10.8-5-3.3-2.8-6.8-5-7.8-5-1.6 0-7.1 3.1-8.7 5-3.8 4.3-7.5 6-12.8 6l-5.7-.1 3.5-2.9c1.9-1.6 6.3-5.2 9.8-8 3.4-2.8 6.2-5.4 6.2-5.8s-2.4-2.6-5.2-4.7c-2.9-2.2-6.2-4.8-7.2-5.8-1.1-.9-2.3-1.7-2.8-1.7-.4 0-.8-.5-.8-1 0-.6 2.1-1 4.8-1 4 0 5.6.7 10.6 4.5m8.6 1.9c0 .3-.4.8-1 1.1-.5.3-1 .1-1-.4 0-.6.5-1.1 1-1.1.6 0 1 .2 1 .4m-28.5 26.3c6 0 11.8-.3 12.9-.9 1-.5 4.6-3.2 7.9-5.9 3.4-2.7 6.5-4.9 7-4.9 1.1 0 11.7 8.3 11.7 9.1 0 .4-5.4.8-12 1.1-7.4.2-12.5.9-13.2 1.6-1.5 1.5-26.4 1.7-27.3.2s-9.7-1.1-11.9.5c-2.5 1.9-10.8 1.9-16.2 0-4.2-1.4-10.9-1.1-12 .6-.3.5-3 .9-6 .9-5 0-5.4-.2-5.3-2.3.1-1.6.2-1.8.6-.5.3 1.4 1.5 1.8 4.8 1.8 2.4 0 4.6-.4 4.9-.8.2-.4.6-5.4.7-11s.6-10.2.9-10.2c.4 0 3.6 4.4 7.1 9.7s7 10.3 7.7 11c1.7 1.6 9.2 1.7 11.3 0 .8-.7 3.9-5.3 6.8-10.2 7.9-13.4 7.5-13.4 8.1-.9l.5 10.9zm62.3-18c-.3 2.7-.6 2.8-6 3.1-5.8.3-5.8.3-5.8-2.8 0-3 0-3 6.1-3 6 0 6 0 5.7 2.7m-126.1 12.5c-.3.7-.5.2-.5-1.2s.2-1.9.5-1.3c.2.7.2 1.9 0 2.5"/><path d="M679 778.1c-1.2 2.2-.6 5.4.9 4.5 1.6-1 4.1.6 4.1 2.6 0 1.8-.5 2-3.1 1.4-2.7-.5-3-.4-1.9.9 2.9 3.4 7.7.5 6.6-4-.5-1.8-1.3-2.5-3.1-2.5-1.6 0-2.5-.6-2.5-1.5s.9-1.5 2.5-1.5c1.4 0 2.5-.5 2.5-1 0-1.9-4.9-1-6 1.1M704.5 776.9c-.4.7.3 1.1 1.8 1.1 3.5 0 3.8.8 1.5 4.6-1.1 1.8-1.8 4.1-1.5 5.1.4 1.6.5 1.6 1.1-.2.4-1.1 1.7-3.7 2.8-5.8s1.8-4 1.7-4.1c-1.2-1.1-6.8-1.6-7.4-.7M690.1 778.4c-.9 1-.8 1.5.3 1.9.9.4 1.3 1.7 1.2 3.7-.1 1.7.1 3.3.6 3.6.4.3.8-2 .8-5 0-5.6-.8-6.8-2.9-4.2M715.4 778.2c-1.5 2.4-.9 9 .9 10.2 2.8 1.8 5.2-.4 5.3-5 0-2.2-.1-4.5-.4-5.2-.5-1.5-4.8-1.6-5.8 0m4.2.9c.8 1.4-1.8 3.1-3 1.9-.9-.9 0-3 1.4-3 .5 0 1.2.5 1.6 1.1m.2 6.2c.2 1.2-.3 1.7-1.7 1.7-1.5 0-2.1-.6-2.1-2.1 0-2.5 3.3-2.2 3.8.4M726 778.5c-.9 1-.9 1.5-.1 1.5.6 0 1.1 1.7 1.1 3.9s.5 4.3 1 4.6c.6.4 1-1.7 1-5.4 0-6.2-.7-7.3-3-4.6M698 784c0 .5.9 1 2 1s2-.5 2-1c0-.6-.9-1-2-1s-2 .4-2 1M454.3 1055.6c-7.6 3.8-9 13.6-2.9 19.7 5.7 5.7 14 5.6 19-.4 2.1-2.5 2.6-4.1 2.6-8.4 0-4.5-.4-5.9-2.6-8-4.7-4.7-10.4-5.7-16.1-2.9m11.7 1c2.5.7 6 6.8 6 10.5 0 2.4-.9 4.6-2.9 6.9-2.6 3.2-3.3 3.5-8.3 3.5-4.6 0-5.8-.4-8.2-2.8-5.5-5.6-4.1-14.7 2.8-18.2 2.8-1.3 5.7-1.3 10.6.1"/><path d="M455.4 1060.5c.3.9.6 4.5.6 7.9 0 6.6-.2 6.4 6.5 6.6 3.7.1 6-6.1 3.3-8.8-.7-.7-2.7-1.2-4.4-1.2-2.9 0-3.3-.3-3.1-2.7.1-2-.3-2.8-1.7-3.1s-1.7 0-1.2 1.3m8.1 9.5c0 2.8-.4 3.5-2 3.5-1.3 0-2.1-.8-2.3-2.3-.5-3.4.5-5.4 2.5-5 1.3.2 1.8 1.3 1.8 3.8M482.3 1056.7c-2.2.4-2.3.9-2.3 10.3 0 5.4.4 10.2 1 10.5.5.3 9 .6 18.8.6l17.9-.1.6 18.2c.4 10 .7 22.7.7 28.3 0 10.2 0 10.2-3.7 10.9-2.1.3-6.1.6-9 .6-7.7 0-8.3.5-8.3 6s.6 6 8.4 6c3.2 0 6.1-.6 7.6-1.7 3.6-2.4 12-10.3 11.2-10.4-.4-.1-1.4-.2-2.2-.3-1.7-.1-2.7-14.2-2.9-41.8l-.1-15.8 18.8-.2 18.7-.3.3-10.8.3-10.7-36.8.1c-20.2.1-37.8.4-39 .6m74.5 9.6c.2 6.4-.1 8.8-1 9.2-.7.2-17.6.5-37.6.7l-36.2.3V1058l32.3-.3c17.7-.1 34.5-.3 37.2-.2h5zM521 1138c0 .5-2.1 2.5-4.7 4.5-4.3 3.3-5.2 3.6-10.3 3.3-5.5-.3-5.5-.3-5.8-4s-.3-3.7 8.5-4.1c4.8-.1 9.6-.4 10.6-.5.9-.1 1.7.2 1.7.8"/><path d="M542.7 1061.7c-.4.3-.7 3-.7 5.9 0 5.8 1.4 7.1 6.3 5.9 2.9-.8 4.1-2.9 2.8-5.3-.4-.9-.6-2.3-.4-3 1.1-2.9-5.7-5.9-8-3.5m6.1 3c-.2 1-1.3 1.9-2.6 2.1-1.7.3-2.2-.2-2.2-1.7 0-1.6.6-2.1 2.6-2.1 1.9 0 2.5.5 2.2 1.7m.7 5.3c0 .9-1.1 1.6-2.7 1.8-2.3.3-2.8-.1-2.8-1.8s.5-2.1 2.8-1.8c1.6.2 2.7.9 2.7 1.8M487.9 1064.1c-1.2 2.3-.4 3.5 2.6 4.1 1.2.2 2 1.1 2 2.3 0 1.6-.6 2-2.8 1.8-1.5-.1-2.5.2-2.2.8 1 1.5 6.2 1 6.9-.7 1.2-3.1.6-4.5-2.4-5.5-3.2-1.2-3.2-2.9.1-2.9 1 0 1.9-.5 1.9-1 0-1.9-4.9-1-6.1 1.1M499.7 1063.4c-1.2.9-1.4 1.6-.8 2.1.6.3 1.1 2.1 1.1 4s.5 3.7 1 4c.6.4 1-1.7 1-5.4 0-3.4-.1-6.1-.2-6.1-.2 0-1.1.7-2.1 1.4M513 1063c0 .5 1.1 1 2.5 1 2.4 0 2.4 0 .5 4.5-1.1 2.6-1.5 4.7-1 5 .6.4 1 .1 1-.5s.9-3 2-5.2c2.7-5.5 2.6-5.8-1.5-5.8-1.9 0-3.5.4-3.5 1M525 1063c-1.2.7-1.2 1.2-.2 2.2.6.6 1.2 3 1.2 5.2 0 3 .3 3.7 1.1 2.9.9-.9.9-2.7.3-6.2-.7-4.1-1.2-4.9-2.4-4.1M535.3 1063.1c-.8.8-.9 1.7-.4 2.3s1.1 2.7 1.3 4.6.5 3 .8 2.5c.3-.6.3-3.2 0-5.8-.4-3.8-.8-4.6-1.7-3.6M507.6 1068.8c-.3.6-.1 1.4.5 1.7 1.5 1 2.5-.3 1.2-1.6-.7-.7-1.3-.7-1.7-.1M580.9 1134.7c-1 .2-2 1.9-2.4 4.1-1.1 5.9 1.4 7.2 13.6 7.2 5.5 0 9.9.4 9.9.9 0 .6-4.6 1.1-10.2 1.3-5.7.2-11.1.7-12 1.2-1.5.7-1.8.3-1.8-2.2 0-4.4-1.6-7.4-5.4-10-3.1-2.1-4.2-2.2-22.6-2.2h-19.3l-5.6 4.8c-3.1 2.7-6.7 5.7-8 6.8-1.3 1-5.7 4.7-9.7 8.1-4 3.5-7.7 6.3-8.2 6.3s-1.1-3.5-1.4-7.8c-.5-9.1-2.6-13.4-7.6-15.8-4.6-2.2-28.7-1.7-30.3.6-1.2 1.9-.4 8.1 1.3 9.2.7.4 5.6.8 10.8.8 10.9 0 10.6 1.6-.4 1.8-4 .1-8.5.6-9.9 1.1-2.9 1.1-2.6 1.6-4.2-6.3-.3-1.3-1.3-3.4-2.4-4.7-2.5-3.1-7.8-3.5-33.1-2.9l-19.5.5-.3 18.3c-.2 18.2-.2 18.2 2.3 19.2 3.4 1.3 8.1 1.3 10.7-.1 1.8-1 2-1.9 1.7-12.7-.4-11.7-.4-11.7 2.2-12 2.5-.3 2.6 0 3.2 5 .4 2.9.7 8 .7 11.3 0 8.2.5 8.7 8.1 8.3l6.4-.3.3-12.3c.3-12.3.3-12.3 3-12s2.7.3 3 11.2c.1 6.1.8 11.6 1.4 12.3 1.2 1.5 12.8 1.8 12.8.3 0-1.4 3.7-1.3 4.6.1.5.8 6.2 1 20.8.4 11-.3 26.8-.7 35-.8 17-.2 17.7-.6 16-7.4-.9-3.8-.9-3.8-8.3-4.3l-7.3-.5 7.6-6.5c4.2-3.6 8-6.6 8.5-6.8.4-.1 1.1 5 1.4 11.5.6 12.8 1.5 14.7 6.7 13.9 1.4-.2 8.4-.5 15.6-.5 11.6-.1 13.3-.3 15.2-2.1 2.5-2.4 4-2.5 6.6-.5 2.9 2.2 33.8 2.2 35.6 0 1.6-1.9.5-28.7-1.2-31.5-2.6-4.2-6-5-19.5-4.9-7 .1-13.5.3-14.4.6m30.6 3.5c2.6 2.3 2.6 2.5 2.8 16.8l.2 14.5-16 .3c-14.9.2-16.1.1-18.8-1.9-2.9-2.1-2.9-2.1-5.5.4s-3.1 2.6-18.4 2.8c-8.6.2-16 0-16.3-.3s-.9-6.3-1.2-13.2-1-12.6-1.5-12.6c-1.1 0-14.2 10.6-20.7 16.7-2.4 2.4-4.8 4.3-5.1 4.3-.4 0-2.2 1.3-4 2.9-3.4 2.9-3.4 2.9-21.5 3.6-18.8.8-24.3.3-25.2-2.1-.7-2-3.1-1.7-2.9.3.1 1.5-.9 1.9-5.6 2.1l-5.8.3v-10.8c0-5.9-.4-11.3-.8-11.9-1.3-2-5.2-3.5-7.2-2.9-1.8.6-2 1.6-2 13.1v12.4h-10.8l-.8-12.3-.9-12.2h-8l-.5 12.5-.5 12.5h-10l-.3-17.3-.2-17.2h23.8c23.7 0 23.9 0 26 2.3 1.8 1.9 2.3 3.7 2.5 9.5.2 7.2 1 9 2.2 5.2.9-2.7 3.4-3.9 8.6-4.1 2.4 0 7.5-.3 11.2-.6 6.7-.5 6.8-.5 5.4-2.7-1.3-1.9-2.6-2.2-11.8-2.6-10.4-.5-10.4-.5-10.7-3.6-.3-2.6.1-3.3 2-3.8 3.6-.9 23.4-.7 26.2.4 4.3 1.6 5.9 5.4 6.7 15.6.7 9.4 1.3 11.8 2.7 9.9.4-.6 3.2-3 6.2-5.5 3-2.4 10.1-8.4 15.7-13.2l10.1-8.8h19.7c19.7 0 19.7 0 22.4 2.8 2.2 2.2 2.9 4 3.5 9 .4 3.4 1.1 6.2 1.6 6.2.6 0 1-.7 1-1.5 0-2.5 3.6-3.5 13.2-3.5 10.8 0 14.3-1.3 11.3-4.3-1.3-1.4-3.6-1.7-11.4-1.7-6.2 0-10.1-.4-10.9-1.2-1.6-1.6-1.5-5.5.1-6.1.6-.3 7.1-.6 14.4-.6 12.3-.1 13.4.1 15.8 2.1m-79 29.8c0 3.5 0 3.5-11 3.7l-11 .3 4.5-4c4.4-3.9 4.7-4 11-3.8 6.5.3 6.5.3 6.5 3.8m-17.5-2.5c0 .3-.2.5-.5.5s-.5-.2-.5-.5.2-.5.5-.5.5.2.5.5m-5 4.5c0 .5-.5 1-1.1 1-.5 0-.7-.5-.4-1 .3-.6.8-1 1.1-1 .2 0 .4.4.4 1"/><path d="M549.2 1146.2c-1.2 1.2-1.7 12.4-.6 15.2.5 1.2 2.1 1.6 7.4 1.6 8.4 0 10-1.4 10-8.8 0-4.3-.4-5.4-2.6-7.1-3-2.4-12.2-2.9-14.2-.9m13.7 2.2c.7.8 1.1 3.7.9 6.8-.3 5.3-.3 5.3-7 5.6l-6.8.3v-6.4c0-3.5.3-6.7.7-7 1.3-1.3 11-.7 12.2.7M594.3 1156.8c-2.9.2-4.6.9-5.3 2.2-1.6 2.9 1 4.1 8.2 3.8 6.2-.3 6.3-.3 6.3-3.2 0-3.2-1-3.5-9.2-2.8m8 2.7c-.2.5-2.8 1.1-5.8 1.3-5.1.3-6.6-.4-4.8-2.2 1.1-1.1 10.8-.2 10.6.9M474.5 1158.7c-2.9.8-4.5 2.3-4.5 4.4 0 1.6.8 1.9 5.9 1.9 3.3 0 6.6-.3 7.5-.6 2-.8 2.1-5.4.2-5.4-.7 0-2.6-.2-4.2-.4s-3.8-.2-4.9.1m8.5 3.3c0 .5-2.5 1-5.5 1s-5.5-.5-5.5-1c0-.6 2.5-1 5.5-1s5.5.4 5.5 1"/></svg>