<svg xmlns="http://www.w3.org/2000/svg" viewBox="0 0 865 1222" fill="currentColor"><path d="M633.3 152.7c-1 .3-1.3 3.8-1.3 12.4V177h5.8c3.1.1 22.8.2 43.7.3l38 .2.3-12.3.3-12.2h-22.3c-12.3-.1-31.5-.2-42.8-.4s-21.1-.1-21.7.1m46.8 2.3h38l-.3 10.2-.3 10.3-41-.3c-22.5-.2-41.2-.5-41.5-.7s-.4-4.6-.2-9.8c.3-8.9.5-9.6 2.5-10 1.2-.2 2.8-.3 3.5-.1.8.2 18.4.4 39.3.4"/><path d="M652.6 157.6c-1.2 1.1-1.5 2.5-1.1 4.5.4 1.5.2 3.7-.4 4.7-1.6 2.9 2 7.2 4.6 5.6s2.9-12.6.3-14.9c-1.6-1.5-1.9-1.5-3.4.1m3.4 3.5c0 1-.7 1.9-1.5 1.9-1.5 0-2.1-3.1-.9-4.3 1.1-1 2.4.3 2.4 2.4m-.2 6.6c-.2 1.4-.8 2.8-1.4 3-1.7.6-2.6-2.7-1.3-4.3 1.8-2.2 3.1-1.6 2.7 1.3M674.1 157.3c-.6.6-1.1 2-1.1 3.1.1 2 .1 2 1.4.3 3.2-4.1 3.6.4.6 6-2.8 5.4-2.6 6.5 1.3 6.1 2-.2 3.2-.8 3.2-1.8s-.8-1.4-2.2-1.2c-2.2.3-2.2.3-.3-4 2-4.5 1.8-8.3-.5-9.2-.7-.2-1.8.1-2.4.7M641.6 158.6c-.3.9-.6 3.7-.6 6.4s.3 5.5.6 6.4c1.6 4.3 6.2-.9 5-5.7-.3-1.4-1.5-2.7-2.6-3s-2-1.3-2-2.2c0-1.2.6-1.6 2-1.2 1.3.3 2 0 2-.9 0-1.9-3.6-1.8-4.4.2m4.4 8.3c0 2.1-2.3 4.5-3.3 3.4-.4-.3-.7-1.7-.7-3 0-1.6.6-2.3 2-2.3 1.3 0 2 .7 2 1.9M684.7 157.7c-.4.3-.7 1.8-.6 3.2 0 2.6 0 2.6 1.1.3.6-1.2 1.5-2.2 2-2.2 1.5 0 .8 3.9-1.2 7.2-2.9 4.8-2.7 7 .8 6.6 2-.2 2.8-.9 3-2.8.4-2.1.2-2.2-1.2-1.1-2.6 2.1-2.7.9-.5-3.6 1.6-3.3 1.8-4.6.9-6.2-1.1-2.1-3-2.7-4.3-1.4M695 157.8c0 .6-.3 1.7-.6 2.6s-.1 1.6.5 1.6 1.1-.7 1.1-1.5.5-1.5 1-1.5c1.7 0 1.1 4.8-1 9-2.6 5-2.6 5 1 5 2.4 0 3-.4 3-2.1 0-1.8-.2-1.9-1.5-.9-2.1 1.7-2-.8.1-3.8 2.3-3.3 1.5-8.6-1.3-9-1.3-.2-2.3.1-2.3.6M706 162.7c-.6 3.2-1.4 6.8-1.7 8-.3 1.3-.1 2.3.5 2.3s1.2-1.2 1.4-2.8.9-2.7 1.8-2.7 1.6 1.1 1.8 2.7.8 2.8 1.3 2.8c1.1 0 1.1-1.1-.4-8.2-1.8-8.5-3.2-9.1-4.7-2.1m3 1.4c0 .5-.4.9-1 .9-.5 0-1-.7-1-1.6 0-.8.5-1.2 1-.9.6.3 1 1 1 1.6M662 165c0 .5 1.4 1 3 1 1.7 0 3-.5 3-1 0-.6-1.3-1-3-1-1.6 0-3 .4-3 1M675.9 180.6c0 .5 0 8.6.1 18.1l.1 17.2-4 2.6c-4 2.4-5.1 4.7-3.1 6 .5.3.7 1.8.4 3.4-.5 2.5-.1 3.1 4.1 5.5 4 2.4 5 2.6 7.7 1.7 4.9-1.7 6.8-4 6.8-8 0-3.7-.5-4.3-6.6-8-3.8-2.3-4.3-5.2-4.4-25 0-7.4-.3-13.7-.5-14-.3-.2-.5 0-.6.5m6 40.2c2.2 1.5 2.2 1.6.5 2.9-2.5 1.8-5.5 1.6-8.4-.7-2.4-2-2.5-2.1-.6-3.5 2.1-1.6 4.5-1.2 8.5 1.3m-6.7 4.3c1.6 1.2 2.7 2.3 2.4 2.6-.5.5-7.6-3.5-7.6-4.3 0-1 2.4-.2 5.2 1.7m10.8 2.3c0 2.5-.7 3.9-2.2 5-2.6 1.8-3.8 2-3.8.6 0-.6.9-1 1.9-1 1.1 0 2.3-.9 2.6-2.1.8-2.3-.8-4.8-1.9-3-.8 1.3-2.6 1.5-2.6.3 0-.8 3.6-3 5.3-3.1.4-.1.7 1.4.7 3.3m-10.1 1.3c3.4 2 3.5 2.1 2.2 4.2-.8 1.2-1.5 1.1-4.5-1-2-1.3-3.1-2.6-2.6-2.7.6-.2.8-.8.4-1.3-.8-1.4 1.2-1.1 4.5.8m8.1.1c0 1.3-1.2 2.2-2.2 1.6s-.1-2.4 1.3-2.4c.5 0 .9.4.9.8"/><path d="M673.4 230.5c1.1.8 2.5 1.5 3 1.5.6 0 .2-.7-.8-1.5-1.1-.8-2.5-1.5-3-1.5-.6 0-.2.7.8 1.5M337.5 197.3c-.3 1.2-.5 11.4-.3 22.7l.3 20.5 21 .6c11.6.3 21.5.7 22 .8.6 0 .9 3.8.8 9.3l-.1 9.3-141.3.3c-111.5.2-141.5.5-142.1 1.5-1.1 1.6 0 434.4 1.1 456.3.5 9.3 1 28.8 1.1 43.4s.4 26.7.7 27c1.4 1.4 554.6-.1 559.1-1.6 1-.3 1.2-15.3.7-77.1-.3-42.3-.8-95-1.1-117.3-.4-22.3-.8-105.9-.9-185.8-.2-80-.5-145.5-.7-145.8-.3-.2-7.1-.5-15.1-.6-8.1 0-14.7-.5-14.7-1 0-.4.5-.8 1-.8.6 0 1-.5 1-1 0-1.6-1.9-1.1-3.7.9-1.6 1.9-4.6 1.9-122.5 2.1l-120.8.1v-9.6c0-9.5 0-9.5 2.8-9.6H406c9.6.1 18-.2 18.7-.6.8-.6 1.1-7 1-22.6-.2-20.9-.3-21.8-2.2-22.2-1.1-.2-20.8-.6-43.7-.9-41.8-.5-41.8-.5-42.3 1.7m84.2 1.1c.6.5 1 35.1.5 38.5l-.5 3.4-40.1-.6c-22.1-.4-40.4-.7-40.8-.7-.5 0-.8-9.2-.8-20.5v-20.4l6.3-.3c7.3-.4 75 .2 75.4.6m234.4 77.4c0 7 .2 68.9.4 137.7.2 68.7.6 130.4.9 137 .9 19.4 2.3 234.2 1.5 234.9-1.6 1.3-556 2.9-557.2 1.6-1.8-2-3-205-2.7-468.7V263h278.5l278.5.1z"/><path d="M347.2 201.5c-1.5 3.2-1.5 10-.2 12.6 1.5 2.7 3.9 2.4 5-.6s.4-5.4-2.3-7.6c-1.3-1.1-1.8-2.2-1.3-3.4.6-1.7.7-1.7 2.1.1 1.2 1.5 1.4 1.6 1.5.3 0-1.5-1.8-3.9-3-3.9-.4 0-1.2 1.1-1.8 2.5m3.6 9.2c-.4 3.9-2.8 4.2-2.8.4 0-2.1.5-3.1 1.6-3.1s1.4.8 1.2 2.7M357 202c-.8 1.4-.8 2.6 0 4.1s.8 2.4 0 3.4c-1.3 1.6-.6 4.8 1.6 6.5 1.2 1 1.8.9 3.4-.5 2.1-1.9 2.6-5 1-6-.5-.3-.7-1.9-.3-3.5 1-5.1-3.5-8.2-5.7-4m4 2.6c0 3.1-2.3 2.8-2.8-.4-.2-1.5.2-2.2 1.2-2.2 1.1 0 1.6.9 1.6 2.6m.5 7.4c0 3.6-2.9 3.3-3.3-.3-.3-2.3 0-2.8 1.5-2.5 1.2.2 1.8 1.2 1.8 2.8M378 204.6c0 4 .2 4.5 1.9 3.9 2.4-.7 3.5.9 2.7 4.1-.6 2.1-.9 2.4-2.2 1.3-2.1-1.7-3.1-.2-1.1 1.8 2.4 2.4 4.7.1 4.7-4.8 0-2.9-.5-3.9-2-4.4-1.1-.3-2-1.2-2-2 0-.7.9-1.5 2-1.8 3.1-.8 2.4-2.7-1-2.7-2.9 0-3 .2-3 4.6M389.7 200.7c-1.1 1-.8 4.3.3 4.3.6 0 1-.7 1-1.5s.5-1.5 1-1.5c1.7 0 1.1 4.8-1 9.1-1.2 2.2-1.8 4.4-1.5 4.9.9 1.5 5.5 1.2 6.1-.5.8-2-.6-4.1-1.7-2.4-1.8 2.9-2.1-.3-.4-4.1 1.5-3.2 1.6-4.5.7-6.5-1.1-2.4-3.1-3.2-4.5-1.8M401.2 201.2c-1.8 1.8-1.6 13.3.3 14.8 1.3 1.1 1.8 1 3-.6 2.5-3.4 1.5-15.4-1.3-15.4-.5 0-1.3.5-2 1.2m2.8 7.3c0 5.4-1.2 7.9-2.4 4.9-.8-2.1-.8-9.9 0-10.7 1.5-1.5 2.4.7 2.4 5.8M411.2 206.7c-.8 3.2-1.6 6.8-1.9 8-.4 1.7-.1 2.3 1.2 2.3 1.1 0 1.5-.6 1.1-1.8-.7-2.2.8-4.7 2.3-3.8.6.4 1.1 1.8 1.1 3.2 0 1.5.6 2.4 1.6 2.4s1.3-.6 1-1.8c-.8-2.4-3.6-13.2-3.6-13.7 0-.3-.3-.5-.8-.5-.4 0-1.3 2.6-2 5.7m2.8 1.5c0 1.6-.3 1.9-1.1 1.1-.6-.6-.8-1.6-.5-2.2 1.1-1.7 1.6-1.3 1.6 1.1M367.5 208c-.4.6.8 1 3 1s3.4-.4 3-1c-.3-.6-1.7-1-3-1s-2.7.4-3 1M347.6 221.2c-2 2.8-2.1 11.7-.2 14.3 1.2 1.6 1.6 1.7 3 .6.8-.7 1.8-2.1 2.1-3.1.8-2.4-1.1-7-3-7-.8 0-1.5-.9-1.5-2 0-2.3 1-2.6 2.8-.8.9.9 1.2.8 1.2-.4 0-.8-.6-2.1-1.4-2.7-1.1-1-1.7-.7-3 1.1m2.9 7.9c1 1.5-.4 6.1-1.5 5.4-1.3-.8-1.3-6.5-.1-6.5.6 0 1.3.5 1.6 1.1M357.4 222.5c-.3 1.4-.4 3.1-.1 3.9s.1 2.8-.5 4.4c-1.3 3.5.1 6.2 3.2 6.2 2.3 0 4.8-5.6 3.2-7.2-.6-.6-.8-2.4-.5-3.9 1-5.1-4-8.3-5.3-3.4m3.6 2c0 2.6-1.4 3.3-2.5 1.5-.9-1.4.1-4 1.5-4 .5 0 1 1.1 1 2.5m.5 7.5c0 2.7-2.2 3.9-3.1 1.6-.8-2.2.3-4.9 1.9-4.3.6.2 1.2 1.4 1.2 2.7M378 224.5c0 4.1.2 4.5 2.5 4.5 2 0 2.5.5 2.5 2.4 0 2.9-1.9 4.4-3.1 2.5-1-1.7-2.3-.5-1.6 1.6 1 2.3 4.6 1.8 5.6-.8 1.3-3.5.2-7.7-2-7.7-1.2 0-1.9-.7-1.9-2s.7-2 2-2c1.1 0 2-.7 2-1.5q0-1.5-3-1.5c-2.9 0-3 .2-3 4.5M389.6 221.6c-.3.9-.6 2.3-.6 3.2.1 1.6.2 1.5 1.4-.1 3.2-4.1 3.6.4.6 6.3-2.7 5.2-2.5 6 1 6 2.4 0 3-.4 3-2.1 0-1.8-.2-1.9-1.5-.9-1.9 1.6-1.9.6.1-4.7 1.3-3.4 1.5-4.9.6-6.8-1.3-2.8-3.7-3.3-4.6-.9M401.2 221.2c-1.2 1.2-1.7 11.4-.6 14.2.8 2.2 3.1 2 4.4-.3 2.1-4 .7-15.1-1.8-15.1-.5 0-1.3.5-2 1.2m2.8 7.3c0 5.4-1.2 7.9-2.4 4.9-1.4-3.7-.3-12 1.5-10.8.5.3.9 2.9.9 5.9M408.9 221.9c.6 1.2 1.6 3 2.1 4.1.6 1.1 1 4 1 6.5s.5 4.5 1 4.5c.6 0 1-1.5 1-3.3 0-1.7.7-5 1.5-7.2 1.7-4.7 1.8-6.5.6-6.5-.5 0-1.2 1.6-1.6 3.6-.7 3.9-2.1 3.6-2.7-.6-.2-1.4-1.1-2.6-2.1-2.8-1.5-.3-1.7-.1-.8 1.7M367 228.4c0 .8 6.1 1.2 6.6.4.3-.4-1.1-.8-3-.8-2 0-3.6.2-3.6.4M612.3 266.2c-2 1-3.2 2.8-1.8 2.8 1.2 0 5.5-2.4 5.5-3.2 0-1-.9-.9-3.7.4M601.8 272.1c-2.1 1.1-3.8 2.4-3.8 3s1.1.4 2.8-.5c1.5-.8 3.5-1.7 4.5-2 .9-.3 1.7-1 1.7-1.6 0-1.4-.9-1.2-5.2 1.1M590 279c-1.4 1.1-3 2-3.6 2-1.3 0-4.1 3-2.9 3 1.4 0 10.5-5.3 10.5-6.2 0-1.3-1.3-.9-4 1.2M573.5 288.5c-2.2 1.4-4.4 2.7-5 2.9-.5.2-.7.6-.4 1 .8.8 9.9-4.2 9.9-5.5 0-1.2.1-1.2-4.5 1.6M555.8 298.4c-2.1 1.1-3.8 2.6-3.8 3.3s2.1-.1 5-1.9c2.8-1.7 5-3.3 5-3.4 0-.9-2.8 0-6.2 2M543.3 305.7c-2.4 1.4-4.3 2.9-4.3 3.5 0 .9 6-2.2 8.4-4.3 2.1-1.9-.2-1.4-4.1.8M529 313.7c-2.4 1.5-3.9 2.8-3.3 3 1.3.5 8.3-3.8 8.3-5 0-1 0-1-5 2M515.1 321.8c-2.5 1.4-4 2.7-3.3 3 1.4.4 9.2-3.8 9.2-5s-1.1-.9-5.9 2M457.5 328.5c-18 4.7-19.7 5.1-31.5 8.7-8.1 2.4-16.4 6.4-25 11.9-3 1.9-7.5 4.6-9.9 6-2.5 1.3-9.4 5.4-15.5 9.1-18.5 11.2-26 15.2-28.4 15-1.8-.1-6.3 2.1-11.1 5.5-.3.2-.8 5.2-1.1 11.1-.5 6.6-1.4 12.4-2.6 15.2-1.6 3.9-1.9 8.6-2.4 34.5-.6 30-.6 30-4.9 44-2.3 7.7-5.5 18.3-7.1 23.5-3.8 12.8-8.7 28.6-10.4 33.5-.7 2.2-1.9 6-2.6 8.5s-2.1 7-3.1 10-3.6 11.6-5.9 19-4.5 14.4-5 15.5-2 5.8-3.3 10.5-3.9 13-5.6 18.5c-1.8 5.5-4 12.7-5 16-1.9 6.1-10.8 22.2-13.6 24.5-1.1.9-1.5 3.2-1.5 8.1 0 3.8-.4 6.9-1 6.9-.5 0-1.7 1.1-2.6 2.5-2 3-1.1 4.5 4.2 7 2.8 1.3 3.8 1.4 5 .5 1.6-1.4 4.4.2 4.4 2.6 0 .8 1.1 1.6 2.4 2 2.3.5 6-1.1 17.1-7.4 2.9-1.6 21-9.9 23.3-10.6 1.1-.4 5.2-2.2 9.1-4.1 4-1.9 7.3-3.5 7.6-3.5.2 0 4.8-2 10.1-4.5s9.7-4.5 9.9-4.5 4.2-1.8 8.9-4 8.9-4 9.3-4c.5 0 3.7 1.4 7.2 3.1 4.3 2.1 8.1 3.2 11.9 3.4 6.5.3 8.1.8 13.7 4.4 8.7 5.5 11.3 6.3 13.4 3.8.9-1.2 3.3-12.5 6.1-29.2.9-5.4 4.5-24.8 6-33 .6-2.8 1.4-7.7 2-11 .5-3.3 1.4-8.3 2-11 .6-2.8 1.4-7.5 1.9-10.5 2.3-13.5 6.8-36.7 7.6-38.8.3-.9 2-.4 6.2 1.9 12.1 6.6 23.9 13.3 27.3 15.4 2 1.3 5.9 3.4 8.8 4.9 8 4.1 9.1 3.2 12.6-10 1.5-6 3.1-12.3 3.6-13.9.5-1.7 1.5-5.6 2.4-8.8s1.6-9.3 1.6-13.6c0-6.7.4-8.3 2.8-12.2 1.5-2.4 3.4-5.7 4.2-7.2 2-4 4.7-6.5 13.1-12.2 4.1-2.7 7.6-5.2 7.9-5.5.5-.5 3.5-2.7 20.5-14.7 3.3-2.3 10.7-7.5 16.5-11.4 12.5-8.6 11.5-7.8 10.7-8.5-.6-.6-5.1 2.4-24.1 16.1-4.6 3.3-12.3 8.7-17 12-22 15.2-26.2 18.4-27.6 21.1-.8 1.6-2.8 4.9-4.4 7.3-2.5 3.8-3 5.8-3.7 14.1-.8 9.5-9.4 44.8-11.3 46.8-.9.9-.7-2 .5-5.8.5-1.9 2.1-7.6 3.4-12.5 1.3-5 3.1-11.7 4-15s1.6-9.1 1.6-12.8c0-6.1.5-7.7 4.6-15.7 4.3-8.2 5.2-9.3 13.2-15.3 4.7-3.5 10.9-7.9 13.6-9.7 2.8-1.9 5.2-3.7 5.5-4 .3-.4 5-3.7 10.5-7.4s12.1-8.2 14.7-10.1c2.6-1.8 5.3-3.5 6-3.8.7-.2 1-.7.7-1.1-1-1.1-9.1 4.3-47.8 31.6-11.1 7.9-11.6 8.4-17 17.5-4.8 8-5.3 9.3-5.2 14.4.1 6.2-1.7 16.3-5 27.9-2.2 7.8-3.6 13.6-4.6 18.3-.3 1.6-1.1 3.1-1.8 3.3-1.3.5-7.9-2.4-12.5-5.6-1.4-.9-5.4-3.2-9-5-3.6-1.9-7.7-4.2-9.1-5.1-1.4-1-6.1-3.6-10.5-5.8-7.9-4.1-7.9-4.1-9.6-2-1 1.2-1.8 3.2-1.8 4.4 0 1.3-.4 3.5-.9 4.9-.6 1.3-1.7 7.1-2.6 12.8-1 5.7-2.1 12.3-2.5 14.8s-1.7 9.7-2.8 16-2.7 15.1-3.6 19.5c-.8 4.4-2.2 12-3.1 17-1.9 10.7-4.3 23.5-5.5 29-.5 2.2-1.2 6.6-1.5 9.8-.4 3.1-1.1 6-1.6 6.2-.4.3-2.5-.4-4.6-1.6-10.6-6.2-12-6.7-18.3-7.2-4.5-.3-8.2-1.3-11.8-3.2-6.7-3.5-8.4-3.4-16.3.3-19.2 9-22.7 10.6-45.8 20.6-4.3 1.9-9.7 4.4-11.9 5.5-5.1 2.6-5.2 2.6-5.2-.2 0-2.3 3.7-4.8 20-13.4 4.1-2.2 10.9-6 15-8.3 4.1-2.4 10.4-5.9 14-8 3.6-2 8.3-4.7 10.5-6 2.2-1.2 5.3-3 6.9-3.9 1.6-1 3.2-2.3 3.4-2.9.2-.7-2 .2-5 1.9-5.9 3.6-32.8 18.7-45.8 25.9-4.7 2.5-10.5 5.8-13 7.2-8.4 4.8-12.4 6.8-12.8 6.4-.2-.3 1.6-3.5 4.1-7.3 7.3-11.2 7.8-12.5 14.8-36.3 1.1-3.6 2.3-8.1 2.9-10 .5-1.9 2.3-7.8 3.9-13s3.9-12.9 5-17c1.2-4.1 3.2-11.1 4.6-15.5 10.8-35.8 12.1-38.9 18.6-43.2 5-3.3 7.7-7.7 9.9-16.1 6.3-23.5 11.2-41.1 12.2-43.7 1.3-3.2 2.9-82.4 1.7-83.1-.4-.2-.9 17.3-1.2 38.9-.5 39.2-.5 39.2-4.6 54.2-12.1 43.3-12.4 44.2-18.7 48.3-7.3 4.8-8.8 8.4-20.5 48.7-1.1 3.8-2.6 8.8-3.4 11-.7 2.2-2.1 6.9-3 10.5s-2.1 7.4-2.6 8.5c-.9 2.2-4.6 14.6-8.5 29-1.4 4.9-4.2 12.3-6.2 16.2-4.3 8.4-14.8 21.5-21.1 26.2l-4.3 3.3-4.4-4.3-4.3-4.2 3.4-3.8c1.8-2 4.2-5 5.2-6.6 1-1.5 2.4-3.5 3.2-4.2 2.5-2.7 7.8-15.5 13-31.5 2.8-8.7 5.1-16.4 5.1-17.2s.4-2.2.9-3.2c.5-.9 2.4-6.4 4.1-12.2 1.8-5.8 3.7-12.1 4.3-14s1.8-6 2.8-9c.9-3 2.2-7.5 2.9-10s1.6-5.4 2-6.5c1.3-3.1 11.7-36.9 19.1-61.8 1.6-5.3 4.3-14.3 6.1-20 3.2-10.2 3.2-10.2 3.4-38 .1-27 .5-31 3.6-38.7.6-1.4 1.3-6.9 1.6-12.3.2-5.3.8-9.7 1.3-9.7 1.1 0 7.5 3.6 11.4 6.4 3.3 2.3 11.7 2.8 13.7.8 1.8-1.8 2.3-1.5 5.2 2.8 3.1 4.7 4.7 5 7.6 1.3 1.7-2.2 2.1-3.9 1.9-8.5-.3-6.7-1.6-5.2 17.1-18.2 17.6-12.3 17.1-12.3 45.9 5.2 7.3 4.5 13.5 8.2 13.8 8.2s1.9 1 3.5 2.2c2.3 1.6 4.6 2.1 9.3 2.2 5.4.1 6.8-.3 11.6-3.3 8.7-5.5 17.9-11.1 21.5-13.2 6.7-3.7 10-5.7 15.3-8.8 6.3-3.7 8.1-3.6 13.1 1.1 1.9 1.8 7.3 6.7 12 10.8s8.7 7.7 9 8 3.9 3.4 8 7 7.7 6.7 8 7 3.4 3 6.9 6c7.8 6.6 12.1 10.6 12.1 11.1 0 .3-2.5 2.2-5.6 4.4-12.2 8.8-13.4 9.7-13.4 10.6 0 1.1 8.8-4.7 16.8-11 4.1-3.2 5.2-4.8 5.2-7 0-1.9.7-3.2 2.3-4 2-1.1 3-.9 7.7 1.7 3 1.7 5.6 3.5 5.8 4 .1.5-1.6 2.3-4 4s-4.8 3.5-5.4 4c-.5.5-2.1 1.5-3.5 2.2-1.3.7-2.6 1.6-2.9 2-.3.3-3.3 2.5-6.7 4.9-3.5 2.3-6.3 4.6-6.3 5.2 0 1 4.6-2.1 22.3-14.5 3.7-2.6 6.7-4.4 6.7-3.9s-1.2 1.6-2.7 2.5c-1.6.9-4.1 2.8-5.8 4.2-1.6 1.4-3.3 2.6-3.7 2.6-1.3 0-14.8 10.2-14.8 11.2 0 .7 8.6-4.6 13.5-8.5.5-.4 4.3-3.1 8.3-5.8 7-4.9 7.3-5.3 7-8.7-.3-3.3-.8-3.8-7.1-7.1-6.7-3.5-6.8-3.5-9.8-1.7-3 1.7-3 1.7-6.7-1-2-1.6-5.7-4.7-8.2-7s-6.1-5.5-8-7c-1.9-1.6-3.7-3.1-4-3.4s-4.3-3.9-9-8-8.7-7.7-9-8-4.8-4.3-10-9-10.3-9.4-11.3-10.4c-1.5-1.6-2.1-1.7-4-.7-2.1 1.1-3 .9-7.6-1.8-2.8-1.7-5.4-3.1-5.7-3.1s-1-.5-1.7-1c-3-2.6-12.3-8-13.7-7.9-.8 0-2.4.4-3.5.8-2.8 1.2-5.3-.4-6.9-4.3-.8-1.8-2.7-4.2-4.2-5.3-5.2-3.7-9.5-3.5-27.9 1.2m26-.3c1.4.6 2.5 1.5 2.5 1.9 0 1.7-4.7 3.9-8.5 3.9-5.7.1-12 3.2-14 7-1.2 2.4-1.4 3.5-.5 4.5 1.5 1.9 1 2.6-4.3 5.4-4.4 2.4-4.4 2.4-11.7-1.7-3.9-2.3-7.9-4.2-8.8-4.2-2.3 0-8.1 4.2-8.8 6.4q-.6 1.95 1.2 3.3c2.7 2 23.4 14.3 24 14.3.3 0 2.4 1.3 4.7 2.8 7.8 5.2 9.1 5.6 12.3 3.9 3.9-2 7.5-6 6.6-7.3-.4-.7-2.3-2.1-4.2-3.2-8.8-4.9-10-5.8-10-6.7 0-2.1 7-5.5 11.1-5.5 8.9 0 16.9-4.8 16.9-10.2 0-1.4.5-1.8 1.5-1.4 2.1.8 4.5-.4 5.4-2.6.6-1.6 1.5-1.3 9.5 3.7 14.9 9.4 17.3 10.5 20.6 9.9 2.7-.6 3-.4 3 1.8 0 1.9-1.3 3.1-6.7 6.2-14.5 8.3-31 18.1-34.7 20.8-2.1 1.5-5.5 3.2-7.4 3.8-7.1 1.9-11.1.4-32.9-12.6-28.5-16.9-28.9-17-47.3-3.4-15.7 11.5-15.5 11.4-18.9 10-2.7-1.1-3.3-.9-8 2.6-5.6 4.2-5.8 4.6-3.6 6.4 2.1 1.7 1.1 2.7-3.5 3.5-3.5.6-5.1.1-13.5-4.5-9.4-5-9.6-5.1-12.7-3.6-1.7.9-3.3 1.4-3.6 1.2-.8-.9 5.7-3.6 8.5-3.6 1.8 0 10.2-4.4 23.5-12.3 11.3-6.7 22.5-13.3 24.9-14.7s5.4-3.2 6.8-4c16.4-9.7 21.8-11.5 58.1-20.1 4.6-1.1 8.6-2.2 8.9-2.5.9-.9 11.1-.4 13.6.8m3.1 6.3c-2.6 1.9-4.2 1.9-2.6 0 .7-.8 2-1.5 2.9-1.5 1.3.1 1.3.3-.3 1.5m5.1 5.1c-.6.6-5.7-1.7-5.7-2.7 0-.4.6-.9 1.3-1.2 1.2-.4 5.3 3.1 4.4 3.9m-18-2.9c-.4.3-1 .3-1.4 0-.3-.4 0-.7.7-.7s1 .3.7.7m11 4c6.1 3.1 6.4 4.7 1.4 7.7-2.4 1.4-5 1.9-9 1.8-5.2-.1-6.2.2-11.2 3.9-2.9 2.3-5.5 4.7-5.7 5.5-.3 1.3 3.6 4.2 9.1 6.7 1.5.6 2.7 1.5 2.7 1.9 0 .5.7.8 1.5.8 2 0 1.9 1.3-.2 3.2-3.8 3.3-4.9 3-16.3-3.7-3-1.8-10-5.8-15.4-9-9.9-5.8-9.9-5.8-7.6-7.7 1.2-1 3.1-1.8 4.1-1.8 2 0 12.5 5.5 13.5 7.1 1 1.7 3.7.9 9.1-2.7 5.3-3.5 5.4-3.7 4.8-7.4-.6-3.4-.3-4.1 1.9-5.6 2.5-1.5 7.2-3.1 10.5-3.3.8-.1 3.8 1.1 6.8 2.6m-46.2 7.3c-2.8 1.2-3.7 1.2-3 0 .3-.6 1.6-1 2.8-.9 2.1 0 2.1.1.2.9m3.5.5c0 .3-.2.5-.5.5s-.5-.2-.5-.5.2-.5.5-.5.5.2.5.5m2 1c0 .3-.2.5-.5.5s-.5-.2-.5-.5.2-.5.5-.5.5.2.5.5m6.2 3.5c1.8 1.1 2.9 2 2.5 2-1.1 0-6.7-2.9-6.7-3.5 0-.9.9-.5 4.2 1.5m94.1 10.2c5.1 4.6 9.9 9 10.7 9.8s4.9 4.4 9 8c4.1 3.5 7.7 6.7 8 7s3.9 3.4 8 7 8.4 7.3 9.5 8.4c1.1 1 3 2.5 4.3 3.3 2.3 1.6 2.9 3.3 1.3 3.3-.6 0-3.4-2.2-6.3-4.9s-8.7-7.7-12.8-11.1-9.5-8.1-12-10.4c-2.5-2.2-6.5-5.9-9-8-10.8-9.5-21-19.1-21-19.8 0-1.6 1.4-.6 10.3 7.4m-159.9 17.4c2.2.9 2.3 13.6.1 15.4-1.4 1.1-1.4 1-.5-1.4 1.5-4.1 1.2-11.1-.5-12.6-1.3-1.1-2.2-.8-5.5 1.9-5.3 4.2-6.5 3.9-1.5-.4 4.1-3.6 5.2-3.9 7.9-2.9m-.6 7.2c.3 4-1.1 8.2-2.7 8.2-.4 0-1.8-1.9-3.1-4.2-2.3-4.1-2.3-4.1.6-6.5 3.8-3 4.8-2.5 5.2 2.5m-38.4 4.9c-.4 4.9-1.6 11.9-2.7 15.8-1.7 6-2.1 11.3-2.7 36.5-.4 16.4-1.1 31.1-1.7 33s-1.9 6.4-2.8 10c-1 3.6-2.1 6.9-2.5 7.5-.4.5-1.3 3.2-1.9 6-.7 2.7-2.3 8.4-3.6 12.5s-3.6 11.5-5.1 16.5c-1.5 4.9-4.8 15.7-7.4 24-8.3 26.3-11 35.1-11 36.3 0 .7-.4 2-.9 3-.5.9-1.9 5.1-3.1 9.2s-3 10-4 13c-.9 3-3.2 10.2-5 16-5 16.4-7 22-10.1 28.5-3 6.4-12.4 19.5-14 19.5-1.1 0-1.2-7.7-.1-8.2 2.6-1.1 13-18.5 14.5-24.3.8-3.1 6.6-22.3 8.8-29 1.1-3.3 2.3-7.4 2.8-9 2.8-10.1 3.5-11.5 5.3-11.5 1.5 0 1.6-.3.6-1.9-1.2-1.9-.4-6.3 2.3-12.6.4-1.1 1.8-5.4 2.9-9.5 1.2-4.1 2.5-8.6 3-10 .4-1.4 2.3-7.2 4-13 1.8-5.8 4-13 5-16s2.8-8.9 4-13c2.6-9 3.2-10.8 7-23 1.6-5.2 3.6-12.1 4.4-15.3.8-3.1 1.7-6.1 2-6.6.3-.4.8-13.8 1-29.7.5-27.3 1-32.4 3.4-38.4.5-1.4 1.3-6.9 1.7-12.3.6-8.3 1.1-10 2.8-11.2 1.2-.8 2.5-1.5 3-1.5.4 0 .5 3.9.1 8.7m-9.5 16.7c-2 5.5-2.3 8.8-2.9 33.1-.3 14.8-.8 25.6-.9 24-.2-1.7-.2-13.5-.1-26.3.1-20 .4-24.1 2-29 1.2-3.4 2-8.6 2-12.7 0-10.8 1.4-13.6 1.8-3.6.2 6.6-.2 9.7-1.9 14.5m-5.9 74c-1.2 4.4-3 10.8-4 14.1s-3.3 10.7-5 16.5c-1.8 5.8-5.6 18.1-8.5 27.5-5.2 16.5-10.6 34.2-14.6 47.5-1.1 3.6-3.9 12.8-6.4 20.5-2.4 7.7-6 19.4-8 26-4 13.3-9.8 26-14.6 31.8-4.4 5.4-4.7 3.9-.5-2.7 7.4-11.6 8.4-14.1 20.1-52.1 2-6.6 4.5-14.5 5.5-17.5.9-3 2.8-8.9 4-13 1.3-4.1 3.1-10 4.1-13 1.5-4.9 3.3-10.7 12.4-40 1.3-4.1 3.5-11.6 5-16.5 1.5-5 3.6-11.7 4.6-15 3.1-9.8 6.9-23.8 7-26 .1-1.2.4-.9.6.9.3 1.5-.5 6.5-1.7 11m109 56.3c-1.6 7.5-5 25.8-7.9 43.3-1.9 11.3-8.6 48.5-10.2 56.5-.5 2.7-1.8 9.6-2.9 15.2-1.1 5.5-2 11-2 12.1 0 1.2-.5 2.4-1.2 2.8-1.2.7-1-1 1.2-12.6.6-3 1.5-8 2-11 .8-5.1 2-11.5 4-21.5.4-2.2 1.3-7.2 1.9-11 .6-3.9 1.8-10.2 2.6-14 .8-3.9 2.1-10.9 3-15.8 2.1-12.4 4.2-23.5 6.5-36 1.1-5.9 2-11 2-11.3 0-.2.4-.4.9-.4s.5 1.6.1 3.7m-174.1 138c-.1 4.7-.1 4.7-.9 1.4-.7-3.1-.4-6.1.6-6.1.2 0 .4 2.1.3 4.7m23.9 5.2c-.7 1.1-1.9 2.3-2.6 2.6s-.3-.8 1-2.4c2.6-3.2 3.6-3.4 1.6-.2m7.6 1.7c.8 2 1.9 1.2-9.3 7.4-6.8 3.7-9.7 4.8-10.5 4-1.9-1.9.7-4.2 9.5-8.7 4.6-2.3 8.7-4.3 9-4.3.4 0 1 .7 1.3 1.6m-32.4 1.9c0 .8-.9 1.5-2 1.5-2.2 0-2.7-1.5-.7-2.3 2.1-.9 2.7-.7 2.7.8m6.8 3.8c2.3 2.3 4.2 4.9 4.2 5.6 0 .8-.9.2-2-1.2-2.4-3.1-5.9-4.4-7-2.7-.6.9-1.5.8-4-.5-1.7-.9-3-1.9-2.7-2.2.3-.2 1.4 0 2.5.6 2.2 1.2 3.2.6 3.2-2.1s1.2-2.2 5.8 2.5"/><path d="M480.4 331.5c-1.6 1.2-1.6 1.4-.3 1.5.9 0 2.2-.7 2.9-1.5 1.6-1.9 0-1.9-2.6 0M468.3 331.7c.4.3 1 .3 1.4 0 .3-.4 0-.7-.7-.7s-1 .3-.7.7M437.3 338.3c.3 1.2 16.5 11.6 18 11.7 2.3 0-.4-2.2-8.9-7.2-5.2-3.1-9.4-5.2-9.1-4.5M470 357.9c0 1.3 26 16.5 26.8 15.6.9-.8-.7-2-7.3-5.6-3.3-1.8-8.9-5-12.4-7.1-6.8-4.1-7.1-4.2-7.1-2.9M501.3 329.7c-3.6 2.1-5.6 4.3-3.8 4.3 1 0 9.5-5.5 9.5-6.2 0-1.2-1.1-.8-5.7 1.9M175.9 368.7c-.1 2.3-.1 18.9.1 21.5 0 .5 20.2.8 44.9.8 42 0 45-.1 45.4-1.8.7-2.3.2-20.6-.6-21.8-.3-.6-18.8-1.1-45.1-1.3-44.6-.3-44.6-.3-44.7 2.6m62.7.3H264v10c0 5.5-.3 10-.7 10.1-1.7.1-11.5.1-47.5 0L178 389v-9.9c0-7 .4-10.1 1.3-10.5.6-.3 8.6-.3 17.6-.1 9 .3 27.8.5 41.7.5"/><path d="M186.6 371.5c-2.2 2.2-2.2 11.8 0 13.9 1.8 1.9 3.2 1.3 4.4-1.9 1.3-3.3.1-6.4-2.7-7.1-2.9-.8-2.4-3 .6-2.6 1.6.1 2.2-.3 1.9-1.5-.4-2.3-2.3-2.7-4.2-.8m2.9 9.5c0 2.7-2.2 3.9-3.1 1.6-.8-2.2.3-4.9 1.9-4.3.6.2 1.2 1.4 1.2 2.7M197.1 371.4c-.6.7-1.1 2.9-1.1 4.7v5.7c-.2 4.6 4 6.9 5.9 3.4 1.3-2.5.5-13.3-1.1-14.3-1.8-1.2-2.4-1.1-3.7.5m3.4 3.1c0 1-.6 2-1.2 2.2-.8.3-1.3-.5-1.3-2.2s.5-2.5 1.3-2.3c.6.3 1.2 1.3 1.2 2.3m0 7.5c0 1.3-.5 2.5-1.2 2.7-1.3.5-2.7-3.2-1.8-4.7 1.1-1.8 3-.5 3 2M219.5 371.4c-1.3.9-1.6 2.1-1.2 4.1.3 1.6.1 3.9-.3 5.1-1 2.5 1.2 6.4 3.5 6.4 2.9 0 3.5-3.2 2.6-14.6-.2-1.9-2.7-2.4-4.6-1m3 3.1c0 1-.6 2-1.2 2.2-.8.3-1.3-.5-1.3-2.2s.5-2.5 1.3-2.3c.6.3 1.2 1.3 1.2 2.3m0 7.5c0 1.3-.5 2.5-1.2 2.7-1.3.5-2.7-3.2-1.8-4.7 1.1-1.8 3-.5 3 2M242.3 370.8c-1.9.3-2.3 1-2.3 4.2s.4 3.9 2.2 4.2c2.6.3 3.3 2.6 1.7 4.8-.8 1.1-1.2 1.2-1.6.2-.6-1.6-2.3-1.5-2.3.2 0 1.9 3 2.9 4.6 1.5.8-.6 1.4-2.7 1.4-4.6 0-2.6-.5-3.6-2-4-1.1-.3-2-1.4-2-2.4 0-1.2.7-1.9 2-1.9 1.1 0 2-.4 2-.9 0-1.4-1.1-1.8-3.7-1.3M230.2 372.2c-1.6 1.6-1.6 12 0 13.6 1.9 1.9 3.4 1.4 4.6-1.3 1.5-3.2.1-7-2.7-7.8q-2.1-.45-1.5-2.1c.4-1.1 1.3-1.5 2.6-1 1.5.4 1.9.2 1.6-.7-.6-1.9-3.1-2.2-4.6-.7m3.8 8.5c0 2.1-1.7 5-2.4 4.3-.2-.3-.7-1.7-1.1-3.3-.6-2.3-.4-2.7 1.4-2.7 1.3 0 2.1.6 2.1 1.7M250.8 377.7c.2 3.8.9 7.4 1.4 8 2.9 3.7 5.8-.9 5.8-9.2 0-3-.4-5.5-1-5.5s-1 2.8-1 6.4c0 6.4-1.3 9.2-3.2 6.5-.5-.8-.7-4-.5-7.2.2-3.7-.1-5.7-.8-5.7s-1 2.2-.7 6.7M207 379c0 .5 1.6 1 3.5 1s3.5-.5 3.5-1c0-.6-1.6-1-3.5-1s-3.5.4-3.5 1M421 431.7c0 37.2-.4 67.2-.9 68.9-.5 1.8-2.8 6.3-5 10-2.3 3.8-4.4 8-4.7 9.4-.5 2.3-3.7 12.3-5.1 16-1.9 5-19.7 57.2-26.3 77-4.3 12.9-8.1 24.3-8.5 25.2-.4 1.1-.3 1.8.4 1.8.6 0 1.1-.7 1.1-1.5s.4-2.3.9-3.3c.5-.9 3.2-8.7 6-17.2 2.7-8.5 8-24.1 11.6-34.5 3.6-10.5 7-20.4 7.5-22 1-3.8 3.7-11.4 5-14 .5-1.1 3.2-8.9 5.9-17.3 2.8-8.4 6.3-17.2 7.9-19.5 6-9.1 5.7-4.5 5.9-76.9.2-44.2-.1-66.9-.7-67.3-.7-.4-1 21-1 65.2M511.1 393.9c-3.3 3.3-2.4 9.6 1.1 7.5.8-.5.6-1.1-.6-1.9-.9-.7-1.4-1.9-1-2.9.7-1.9 2.5-2.1 4.2-.4 1.6 1.6 2.9.1 1.6-1.9-1.6-2.5-3.1-2.6-5.3-.4M221.8 393.6c-.5.4-.8 12.6-.8 27.1 0 14.4-.4 26.3-.8 26.3-.5 0-2.1-1.4-3.7-3-2.2-2.2-3.8-3-6.5-3-4.6 0-6 1.5-6 6 0 4.6 2.7 7.3 6.7 6.8 3.6-.4 4-3.9.4-4.8-1.4-.3-2.6-1.1-2.9-1.8-.6-1.8 3.8-1.5 6 .5 2 1.8 2.5.4.6-1.5-.8-.8-.8-1.2-.1-1.2 2.3 0 3.4 2.7 2.1 5.5-.9 2.1-.9 3.1 0 4.6.7 1.1.9 2.5.5 3.2-.9 1.5-.5 4.8.9 6.4 1.6 2 3.9 1.6 10.8-2l6.4-3.4 5.9 3.4c3.2 1.8 6.1 3.3 6.4 3.3 1.6 0-2.3-3-6.7-5-3.4-1.6-4.7-2.7-4-3.4.5-.5 1-2.9 1-5.3 0-3.6-.4-4.5-2.2-5.2-2.4-.9-5.8-.3-5.8.9 0 .4-.9 1-2.1 1.3-1.5.4-2.3 0-2.6-1.4-.3-1-.9-1.9-1.4-1.9s-1-12-1.1-26.6c-.2-14.6-.6-26.2-1-25.8m-8.8 50.2c0 .4-1.6.8-3.5.9s-3.5-.3-3.5-.8 1.6-.9 3.5-.9 3.5.4 3.5.8m-5 6.3c0 .5-.4.9-1 .9-.5 0-1-.7-1-1.6 0-.8.5-1.2 1-.9.6.3 1 1 1 1.6m16-.1c0 1.6-.7 2-3 2-3.6 0-3.9-1.3-.7-2.8s3.7-1.4 3.7.8m11.8 3.4c-.3 3.9-.6 4.3-6.3 7.3-6.1 3.3-9.9 4.1-11 2.3-.3-.6.4-1 1.7-1 1.4 0 3.3-.7 4.4-1.5 1-.8 2.5-1.5 3.3-1.5 2.4 0 4.9-3 4.4-5.1-.7-2.4-1.3-2.4-7 .2-2.5 1.1-5.2 1.7-6.1 1.3-1.4-.5-1.1-.8 1.1-1.4 1.5-.5 5-2 7.8-3.4 6.5-3.2 8.1-2.6 7.7 2.8m-23.8-1.9c0 .9-.6 1.2-1.5.9-.8-.4-1.5-1-1.5-1.5s.7-.9 1.5-.9 1.5.7 1.5 1.5m19 3.5c0 1.4-7.5 5-10.6 5-2.2 0-2.5-.2-1.4-1.5.7-.8 2-1.5 2.9-1.5.9-.1 2.7-.7 4.1-1.5 2.9-1.7 5-1.9 5-.5M479.5 449.7c.4 86.4.4 84.5 1.6 83.8.7-.5.8-4 .5-10.4-.3-5.3-.5-36.7-.6-69.9 0-33.9-.4-60.2-.9-60.2s-.7 24.5-.6 56.7"/><path d="M514 399c0 1.1 8.9 5.4 9.6 4.7.4-.4-8.2-5.7-9.2-5.7-.2 0-.4.4-.4 1M546.6 399.9c-2.4 2.6-1.7 6.5 1.1 6.9 1.4.2 2.7-.5 3.8-2.2 3.3-5-1-9-4.9-4.7m1.8 2.5c-.6 1.6-2.4 2.3-2.4.8 0-1 2.2-3.3 2.7-2.8.2.2.1 1.1-.3 2m2.6.6c-.6 1.1-1.2 2-1.4 2s-.2-.9.1-2 .9-2 1.5-2c.5 0 .4.9-.2 2M527 405.9c0 .5 2 2.1 4.5 3.4 3.4 1.9 4.5 2.2 4.5 1.1 0-.8-.6-1.4-1.2-1.4-.7 0-2.4-.9-3.8-2-2.7-2.1-4-2.5-4-1.1M539 413.5c0 .8 10.2 5.7 10.7 5.2.6-.6-7.9-5.7-9.5-5.7-.7 0-1.2.2-1.2.5M554 421.8c0 .7 8.2 5.2 9.5 5.2 1.9 0-.2-2-4-3.8-5-2.4-5.5-2.6-5.5-1.4M568 429.7c0 .5 1.8 1.8 4.1 3 4.6 2.5 4.9.8.3-1.8-3.3-2-4.4-2.3-4.4-1.2M562 437c-8.6 6.2-33 23.1-51.7 35.9-7.7 5.2-10.2 7.9-14.9 15.6-6 10.1-6.5 11.4-7 19.3-.5 8.4-3.9 24.1-6.1 28.4-1.5 3.1-4.6 3.7-7.2 1.4-.9-.7-5.4-3.4-10.1-5.8-19.4-10.3-24.5-13.2-24.8-14-.2-.4-.9-.8-1.5-.8-.7 0-2.3-.9-3.7-2-2.8-2.2-4-2.5-4-1.1 0 .9 3.4 3 19 11.4 4.1 2.2 7.7 4.4 7.8 4.9.2.4.8.8 1.2.8.5 0 4.8 2.2 9.6 5 13 7.5 14.3 7 17.4-6 .4-1.9 1.5-6 2.3-9s1.8-9.1 2.1-13.5c.6-7 1.3-9 5.4-16.4 4.7-8.4 7.3-11 18.2-18.7 11.1-7.8 20.8-14.4 32-22 6.3-4.3 11.7-8.1 12-8.4.3-.4 2.6-2.1 5.3-3.9 2.6-1.7 4.7-3.6 4.7-4.1 0-1.3.3-1.4-6 3M580 436.2c0 .8 2 2.4 4.5 3.6 5.4 2.6 6.2 2.7 4.5.7-.7-.8-1.7-1.5-2.2-1.5-.6 0-2.3-.9-3.9-2.1-2.1-1.5-2.9-1.7-2.9-.7M572.8 441.8c-2.7 1.6-3.7 3.2-2 3.2.4 0 2.1-1.1 3.7-2.5 3.4-2.8 2.3-3.3-1.7-.7M592 443.5c0 .5 8.4 5.5 9.3 5.5 1.9 0 .2-1.9-3.4-3.8-4-2.1-5.9-2.7-5.9-1.7M606 450.9c0 1.3 8.9 6.5 9.7 5.7.8-.7.9-.6-4.9-4-2.7-1.5-4.8-2.2-4.8-1.7M620 459.1c0 .5.8 1.2 1.8 1.6.9.3 2.9 1.5 4.4 2.5s2.9 1.4 3.2.9-.9-1.8-2.7-2.8c-4.5-2.7-6.7-3.4-6.7-2.2M632 465.8c0 1 8.9 5.6 9.6 5 .3-.3-1.5-1.7-4-3.2-4.7-2.8-5.6-3.1-5.6-1.8M252 467.8c0 .9 9 5.5 9.7 4.9.3-.4-8.3-5.7-9.3-5.7-.2 0-.4.4-.4.8M645 473.5c0 .2 1.8 1.4 4 2.5s4 1.6 4 1c0-.5-1.3-1.6-3-2.5-2.9-1.5-5-1.9-5-1M267 475.9c0 .5.5 1.3 1 1.6.6.4 1.7 2.1 2.4 3.8 1.3 2.8 1.4 2.9 1.5.9.1-1.9.5-2.2 2.4-1.7 2.2.6 2.2.6.2-1-3.1-2.6-7.5-4.6-7.5-3.6"/><path d="M504 481.8c0 .5 1.1 1.4 2.5 2 2.9 1.4 3.4-.2.6-1.8-2.4-1.2-3.1-1.3-3.1-.2M280.5 484c.8 1.4 8.6 5.3 9.2 4.7.5-.5-7.8-5.7-9.1-5.7-.4 0-.4.5-.1 1M271.7 489.7c-.5 2.7-.2 4.1.7 3.2 1.1-1 1.7-5.9.8-5.9-.5 0-1.2 1.2-1.5 2.7M293 490.4c0 .1 2.3 1.7 5 3.4 2.8 1.7 5 2.7 5 2.2s-2-2.1-4.3-3.5c-4.1-2.4-5.7-3-5.7-2.1M408 501.7c-14.1 8.3-25 14.7-39 22.9-16.2 9.5-15.6 9.1-14.8 9.9.4.4 2-.2 3.6-1.4 3.4-2.4 5.3-2.6 7-.9.7.7 1.2.8 1.2.2 0-.5-.5-1.5-1.1-2.1-.8-.8-.5-1.5 1.2-2.4 3.7-1.9 8-4.4 13.4-7.6 10.3-6.2 25.2-14.9 29.7-17.3 5.4-2.9 10.8-6.9 9.3-6.9-.5 0-5.3 2.5-10.5 5.6M268.2 499.7c-.5 1.5-1.3 3.6-1.7 4.5-.4 1-.3 1.8.2 1.8 1.1 0 3.7-7.9 3-8.6-.3-.3-.9.8-1.5 2.3M307.4 498.9c.6.9 8.2 5.1 9.2 5.1 1.4 0-1.2-2.2-4.6-4-4.3-2.2-5.4-2.5-4.6-1.1M426 501.1c0 1.7-1.3 5.9-2.9 9.3-1.6 3.3-3.4 8.1-4.1 10.6-.6 2.5-1.8 6.5-2.7 9-.8 2.5-2.3 7.4-3.3 11s-3.2 11.2-5 17c-4.8 16.1-14.9 50.6-17.1 58.8-1.1 4-2.5 9.2-3.3 11.5-.7 2.3-2.1 6.9-3 10.2-1 3.3-2.4 8.1-3.2 10.7s-1.4 5.3-1.4 6c.1 2.3 1.9-1.6 3.4-7.3 2-7.5 6.2-22.1 8.6-29.9 1.8-5.9 3.9-13.1 10.1-34.5 1.2-3.9 2.4-8.1 2.9-9.5.4-1.4 1.3-4.3 1.9-6.5s2.2-7.6 3.5-12c5.7-18.7 7.6-25.3 9-30.5.8-3 1.9-6.6 2.5-8 1.5-3.6.4 3.6-2.6 17.5-2.3 10.6-5.5 27.4-7.3 38-.4 2.7-1.7 10.4-2.9 17-1.1 6.6-3.8 22.6-6 35.5s-4.4 25.5-5 28c-1.3 5.5-1.3 7-.3 7 .4 0 1.8-6 3.1-13.3 1.2-7.2 3.6-20.9 5.3-30.2 1.6-9.4 3.2-18.4 3.5-20 .2-1.7 1.6-9.5 3-17.5s2.9-17 3.4-20c.8-5.1 2.5-13.7 6.4-31.5.8-3.9 1.7-9.3 1.9-12 .2-2.8 1.1-7 2-9.4 1.8-5 2.1-8.1.6-8.1-.5 0-1 1.4-1 3.1M493 502c0 1.2 2.8 2.5 3.6 1.7.3-.3-.4-1-1.5-1.7-1.5-.7-2.1-.7-2.1 0M262.2 515c-1.1 2.7-1.7 5-1.3 5 1 0 4.5-8.9 3.8-9.6-.2-.2-1.4 1.8-2.5 4.6M332 512.5c0 .8.2 1.5.4 1.5s1.1.3 2 .6c2.3.9 2-.9-.4-2.4-1.7-1-2-1-2 .3M492 515c0 1.4 4.9 4.4 5.8 3.6.4-.4-.4-1.6-1.8-2.6-2.8-2.2-4-2.5-4-1M406.4 516.9c-.5.5-2.5 1.7-4.4 2.8-1.9 1-5.3 3-7.5 4.4s-7.6 4.5-12 6.9-9.2 5.1-10.7 6.1c-1.4 1.1-2.9 1.9-3.2 1.9-.4 0-4 2-8.1 4.5s-8.2 4.8-9.2 5.2c-4.2 1.6-13.6 7.7-12.5 8.1.7.2 1.8 0 2.5-.6.7-.5 4.4-2.6 8.2-4.7 7-3.8 32.8-18.5 48.3-27.6 4.5-2.7 8.6-4.9 9.2-4.9 1.3 0 2.2-1.8 1.2-2.4-.5-.3-1.3-.1-1.8.3M340 517.8c0 .5.9 1.2 2.1 1.5 1.3.3 1.9.1 1.6-.6-.5-1.5-3.7-2.2-3.7-.9M347.5 522c.3.5 1 1 1.6 1 .5 0 .9-.5.9-1 0-.6-.7-1-1.6-1-.8 0-1.2.4-.9 1M257 527.7c-.8 2.1-1.6 4.1-1.8 4.5-.2.5 0 .8.5.8s1.5-1.7 2.3-3.8l1.8-4.5c.2-.4 0-.7-.5-.7s-1.5 1.7-2.3 3.7M356 527c0 .5.5 1 1 1 .6 0 1-.5 1-1 0-.6-.4-1-1-1-.5 0-1 .4-1 1M369 533.9c0 .5.7 1.1 1.5 1.5.8.3 1.5.1 1.5-.3 0-.5-.7-1.1-1.5-1.5-.8-.3-1.5-.1-1.5.3M252 539.4c-.5 1.4-1.4 3.7-2 5.1-.5 1.4-.6 2.5-.1 2.5 1.1 0 4.5-8.9 3.7-9.7-.3-.3-1 .6-1.6 2.1M376.6 537.7c-.3.3.2 1.2 1.2 1.9 1.9 1.5 3.2 1.8 3.2.6 0-1.1-3.7-3.2-4.4-2.5M392.4 539.5c1.1.8 2.7 1.5 3.5 1.5 1.3-.1 1.2-.4-.3-1.5-1.1-.8-2.7-1.5-3.5-1.5-1.3.1-1.2.4.3 1.5M387.4 540.1c-.9 1.1-1.2 10.9-.5 14 .4 2.3 7.1 1.9 7.1-.4 0-.8-.3-.8-1.2.1-1.7 1.7-2.8 1.5-2.8-.4 0-.8-.4-1.2-1-.9-.5.3-1-.3-1-1.4 0-1.2.6-2.1 1.4-2.1s1.8-.5 2.1-1.1c.4-.6 0-.9-1.1-.7-1.4.2-2-.4-2.2-2.2-.2-1.4.1-2.1.5-1.5.4.5 1.5 1.1 2.5 1.3 1.2.2 1.5-.3 1.1-1.8-.3-1.1-1.1-2-1.8-2s-1.5-.5-1.7-1.1c-.2-.7-.7-.7-1.4.2M394.7 542.6c-.4.4-.7 1.4-.7 2.3 0 1.1.3 1.2 1.1.4.6-.6 1-1.6.7-2.3-.2-.6-.7-.8-1.1-.4M421.6 543.3c.2.7 2.3 2.1 4.7 3.2 2.3 1.1 4.5 2.1 5 2.3.4.2.7-.1.7-.7 0-.5-2.3-2.1-5.1-3.5-5.8-3-6-3-5.3-1.3M397 543.9c0 .6.5 1.3 1 1.6.6.3 1-.1 1-.9 0-.9-.4-1.6-1-1.6-.5 0-1 .4-1 .9"/><path d="M392.5 549c-.3.5-.1 1 .4 1 .6 0 1.1-.5 1.1-1 0-.6-.2-1-.4-1-.3 0-.8.4-1.1 1M396.7 548.7c-.4.3-.7 1.1-.7 1.7s.5.5 1.2-.2c.6-.6.9-1.4.7-1.7-.3-.3-.9-.2-1.2.2M245.9 554.7c-.9 2.5-.3 11 .8 10 .5-.6 1.1-12.7.6-12.7-.2 0-.8 1.2-1.4 2.7M248.6 569.3c2.3 3 10.3 7.9 12.3 7.5 1-.3.3-1-2.2-2.2-2.1-1-5.1-3.2-6.8-4.7-3.7-3.4-5.7-3.8-3.3-.6M265.6 579.9c1.8 1.7 8.6 5.2 9.2 4.6s.7-.6-4.1-3.3c-3.9-2.2-6.9-3-5.1-1.3M280 587.7c0 1.3 7.9 5.2 8.5 4.3.3-.5-1.3-1.8-3.7-3-4.7-2.3-4.8-2.3-4.8-1.3M304 601c0 .5.7 1 1.6 1 .8 0 1.2-.5.9-1-.3-.6-1-1-1.6-1-.5 0-.9.4-.9 1M310 603.9c0 1.1 3.1 2.4 3.9 1.6.3-.3-.1-1-.9-1.5-1.9-1.2-3-1.2-3-.1M320 609c0 .9 3.1 3 4.4 3 1.6 0 .3-1.8-1.9-2.8-1.4-.7-2.5-.8-2.5-.2M329.4 614.5c2.6 1.9 4.2 1.9 2.6 0-.7-.8-2-1.5-2.9-1.5-1.3.1-1.3.3.3 1.5M336 617.9c0 .5.7 1.2 1.6 1.5 2.4.9 2.8.7 1.4-.9-1.4-1.7-3-2-3-.6M356 621.5c0 .9-.8 1.4-2.2 1.2-1.8-.1-2.4.4-2.6 2.3-.2 1.4.1 2 .5 1.5.4-.6 2.3-1.8 4-2.7 3.7-1.9 5-1 4.4 3.1-.1 1.3.1 2.1.7 1.7.6-.3 1.3 0 1.6.6.3.7.3-.5-.1-2.7-.6-3.9-2.5-6.4-5-6.5-.7 0-1.3.7-1.3 1.5M344 621.9c0 1 3.1 3.1 4.5 3.1 1.1 0-.5-2-2.6-3-1.2-.7-1.9-.7-1.9-.1"/><path d="M355.7 625.7c-.3.5.1 1.4.9 2.1 1.2 1 1.4 1 1.4-.2 0-1.7-1.6-3-2.3-1.9M352 630.1c0 1.1.5 1.7 1 1.4.6-.3 1-1.3 1-2.1s-.4-1.4-1-1.4c-.5 0-1 .9-1 2.1M358.1 631.6c0 1.1.3 1.4.6.6.3-.7.2-1.6-.1-1.9-.3-.4-.6.2-.5 1.3M355 631.5c0 .3.2.5.5.5s.5-.2.5-.5-.2-.5-.5-.5-.5.2-.5.5M360 633c0 .7.3 1 .7.7.3-.4.3-1 0-1.4-.4-.3-.7 0-.7.7M352 636.5q0 1.5 3 1.5c3.2 0 4-1.4 1.4-2.4-2.7-1-4.4-.7-4.4.9M368.7 647.7c-.4 2.1-.3 4.1.2 4.6s1-1.1 1.2-3.7c.5-5.5-.6-6.1-1.4-.9M665.5 236.4c-1.1.6-2.9 1.6-4 2.3-1.1.6-1.7 1.4-1.4 1.7.6.6 9.9-4.1 9.9-5 0-.7-2.5-.2-4.5 1M650.3 244.6c-2.4 1.4-4.3 3-4.3 3.5 0 1.4 1.6 1.1 2.9-.5.6-.8 2.5-1.9 4.1-2.6 1.7-.7 3-1.6 3-2.1 0-1.4-1.2-1-5.7 1.7M635.8 253.1c-3.7 2.8-3.6 4.6.1 2 1.6-1.2 3.4-2.1 3.9-2.1.6 0 1.4-.5 1.7-1 1.1-1.8-2.9-1-5.7 1.1M698.7 429.6c-.4.4-.7 5.8-.7 11.9v11.2l8.8.6c4.8.3 24.5.6 43.9.7 33.1.1 35.2 0 36.2-1.8 1.2-2.3.5-20.2-.9-21.6-1.3-1.3-86.1-2.2-87.3-1m86.1 12.1.3 10.3h-37.9c-20.9 0-39.9-.3-42.3-.6l-4.4-.6.1-9.2c0-5 .2-9.4.2-9.9.1-.4 19-.6 42-.5l41.7.3z"/><path d="M708 434.9c-2.4 4.5-.4 14.5 2.8 13.9 3.4-.6 2.7-9.8-.8-9.8-1.1 0-2-.6-2-1.4 0-1.9 2.3-3.3 2.8-1.8.2.7.8 1 1.2.7 1.3-.8 0-3.5-1.6-3.5-.7 0-1.8.9-2.4 1.9m4 9.1c0 3.2-2.3 4.2-3.4 1.4-1.1-2.9-.6-4.4 1.4-4.4 1.6 0 2 .7 2 3M718.7 434.7c-.3 1-.4 4.2-.3 7.2.1 5.9 2.3 8.8 4.8 6.3 1.5-1.5 1.2-12-.3-13.9-1.6-1.8-3.7-1.6-4.2.4m3.3 2.9c0 3.1-2.3 2.8-2.8-.4-.2-1.5.2-2.2 1.2-2.2 1.1 0 1.6.9 1.6 2.6m1 6.9c0 2.5-2.3 3.5-3.5 1.5-1-1.6.2-4 2-4 .9 0 1.5.9 1.5 2.5M763.3 433.7c-.7.3-1.3 1.2-1.3 2.1 0 1.2.3 1.3 1.2.4.7-.7 1.6-1.2 2-1.2 1.3 0 .9 3.5-.4 4.9-1 1.1-1 1.4 0 1.8 1.3.5 1.7 5.3.4 5.3-.4 0-1.4-.6-2.1-1.3-1-1-1.2-.8-.9.8.2 1.2 1.3 2.1 2.5 2.3 2.6.4 4.1-3.5 2.5-6.5-.6-1-.8-3-.5-4.4.5-2.7-1.3-4.9-3.4-4.2M741 434.1c0 1.3-2.1 11.5-2.6 13.1-.3 1-.1 1.8.5 1.8s1.1-1.1 1.1-2.5c0-1.8.5-2.5 2-2.5 1.9 0 2.4 1 2.1 3.7-.1.7.5 1.3 1.3 1.3 1.3 0 1.3-.5.1-4.1-.8-2.3-1.5-4.9-1.5-5.8 0-1.6-2.9-6.4-3-5m1.6 7.6c-1.1 1.1-1.9-.6-1.1-2.4.8-1.7.8-1.7 1.2 0 .3 1 .2 2.1-.1 2.4M750.9 437.8c-.9 3.1-.8 4.5.5 7.5 1.5 3.8 3.3 4.6 5.4 2.5 1.7-1.7 1.5-3.3-.3-1.8-.8.7-2.2 1-3 .6-2.2-.8-2.1-10.4.1-11.3.9-.3 2 0 2.4.8.5.7 1.2 1 1.5.7 1.2-1.2-.6-2.8-3-2.8-1.9 0-2.7.8-3.6 3.8M730.3 441.7c.9.2 2.5.2 3.5 0 .9-.3.1-.5-1.8-.5s-2.7.2-1.7.5M742.4 486.8l.7 30.1-3.8 1.6c-3.7 1.6-3.9 1.6-9.9-1.4-6.3-3.2-9.8-3.9-10.9-2-1.5 2.4.8 5.8 6.5 9.8 5 3.5 6 4.7 6 7.1 0 4.1 2.6 6.3 6.5 5.6 2-.4 4.3-.1 6.1.9 2.4 1.2 3.2 1.2 4.9.1 5-3.2 5.6-10.3 1.1-12.4-1.5-.6-2.7-2.3-3.1-4.1-.4-1.7-1.1-3.1-1.6-3.1s-.9-12.6-.9-30.4c0-22-.3-30.7-1.2-31.2-.8-.5-.9 6.7-.4 29.4M725 516c.8.5 1.2 1.2.9 1.5-.8.8-3.9-.5-3.9-1.6s1.1-1.1 3 .1m-2.1 4.6c.3 1.6.1 1.7-1.3.5-1.9-1.6-2.1-3.4-.3-2.9.6.3 1.4 1.3 1.6 2.4m3.4.1c-.6 1.5-.4 1.6.9.5 1.1-.9 1.8-1 2.3-.2.4.6.3 1-.2.9-.4-.1-1 0-1.3.1-3.2 1.2-5.4-.3-3.3-2.3 1.3-1.3 2.2-.7 1.6 1m18.7 1.4c1.6 3.7.3 5.6-2.7 4-3.5-1.8-6.1 3.7-3.1 6.7 1.8 1.8-.3 3.4-3.8 3-2.5-.3-2.9-.8-3.2-4-.3-3.6 3.1-10.8 5.1-10.8.5 0-.1 1.3-1.2 2.9-1.2 1.6-2.4 4.4-2.6 6.3-.5 3.2-.5 3.1 1.2-.9s6.9-10.3 8.4-10.3c.3 0 1.2 1.4 1.9 3.1m-11 .1c-.1 1.8-2.9 5.3-3.6 4.5-1.1-1.1.6-5.7 2.1-5.7.8 0 1.5.6 1.5 1.2m8.3 5.4c.9 1-.4 3.4-1.9 3.4-1.6 0-1.6-.2-.8-2.4.6-1.7 1.6-2 2.7-1m2.3 3.7c-1.5 3-2.2 3.7-2.4 2.4-.4-1.9 2.3-6.7 3.7-6.7.4 0-.1 1.9-1.3 4.3m6.9-2.3c1.1 1.7-1.5 7.9-3.6 8.5-4.2 1.4-5.3-2.5-1.8-6.9 2.1-2.7 4.3-3.3 5.4-1.6M661 481.9c0 .6 1.3 1.7 3 2.6 3.4 1.8 4.4 1.9 3.5.5-1-1.6-6.5-4.2-6.5-3.1M673 489.5c0 .5 5.5 3.5 6.5 3.5 1.5 0 .2-1.8-2-2.8-2.7-1.3-4.5-1.5-4.5-.7M684.5 496c.3.5 1.2 1 1.9 1 .8 0 1.9.7 2.6 1.5s1.8 1.5 2.4 1.5c1.5-.1-4.6-5-6.2-5-.7 0-1 .4-.7 1M696 501.8c0 .8 5.3 4.2 6.5 4.2.4 0 .2-.7-.5-1.5s-1.9-1.5-2.6-1.5c-.8 0-1.4-.5-1.4-1 0-.6-.4-1-1-1-.5 0-1 .4-1 .8M707.6 508.8c2.4 2.2 8.4 5.2 8.4 4.3 0-.6-1.8-2-4-3.1-4.1-2.1-6.1-2.6-4.4-1.2M110 1023.9c-1.4 1-6.3 3.8-11 6.1-4.7 2.4-9.7 5.1-11.2 6.2-3.7 2.6-4.8 2.3-4.8-1.5 0-3-1.4-5.7-3.1-5.7-.4 0-2.6 3.3-4.9 7.2-2.4 4-6.5 10.7-9.2 14.9-2.6 4.1-4.8 7.8-4.8 8.1 0 .7 11.6 8.8 12.6 8.8.4 0 1.7.9 2.8 1.9 1.2 1.1 3 2.1 4.1 2.3 1.7.3 2.1-.4 2.5-5 .5-5.4.5-5.4 9.5-10.1 5-2.6 12.7-6.6 17.3-9.1l8.2-4.3v-9.7c0-9.4-.1-9.7-2.5-10.8-3.1-1.4-2.5-1.5-5.5.7m6.7 3.7c.3.8.2 4.7-.3 8.6l-.9 7.1-11.5 5.9c-22.9 11.8-22 11.2-22 16.2 0 2.5-.4 4.8-1 5.1-.5.3-2.5-.5-4.2-1.8-1.8-1.3-5.4-3.6-8.1-5.1-4.7-2.7-4.7-2.7-3.3-5.5 1.5-2.8 9.8-15.7 11.5-17.7.4-.5 1.4-2 2-3.2 1.8-3.4 3.1-2.6 3.1 1.8 0 4 .7 4.8 2.5 3.1.6-.5 4.9-2.9 9.6-5.4s11-5.9 14-7.6c6.2-3.5 7.7-3.7 8.6-1.5"/><path d="M108 1032c-2.1 1.6-2.5 2.6-2.3 7 0 2.8.4 5.4.7 5.7s2-.3 3.8-1.4c4-2.3 5.5-7.5 3.2-11.1-1.8-2.7-2.2-2.7-5.4-.2m4.8 3.4c.2 1.9-.4 3.6-1.9 5.2-3.2 3.4-3.9 3-3.9-2.1 0-3.1.5-4.7 1.8-5.4 2.5-1.5 3.7-.8 4 2.3M102.7 1034.7c-.4.3-.7 2.1-.7 4 0 3.6-1.9 4.5-2.7 1.3s-3.3-2.4-3.3 1c0 3.5-1.4 4-2.5.7-.8-2.2-.8-2.2-1.2 0-.2 1.2.1 3.1.6 4.2.6 1.1 1.1 2.9 1.1 4 0 1.2.5 2.1 1 2.1.6 0 1-1 1-2.3 0-3.3 1.1-6.7 2.1-6.7.5 0 1.4 1.2 2 2.7 1.4 3.7 2.4 1.8 3.3-6 .6-5.7.5-6.3-.7-5M86.3 1044.2c-2.1 1.2-3.3 2.8-3.3 4.1 0 1.2-.3 3.9-.6 5.9-.5 2.5-.3 3.8.5 3.8.6 0 1.1-1.1 1.1-2.5 0-1.8.7-2.8 2.5-3.5 1.4-.5 2.5-1.4 2.5-2 0-1.3-1.7-1.3-2.5 0-1 1.7-2.5 1.1-2.5-1 0-1.2 1.2-2.6 3-3.5 1.7-.9 3-2 3-2.5 0-1.2.2-1.3-3.7 1.2"/></svg>