<svg xmlns="http://www.w3.org/2000/svg" viewBox="0 0 992 1402" fill="currentColor"><path d="M578.7 360.7c-.4.3-.7 2-.7 3.6 0 2 .6 3 2 3.4 1.1.3 2 1.2 2 2 0 1-.6 1.2-2 .8-1.1-.3-2-.2-2 .4 0 1.6 1.8 2.3 4 1.6 1.6-.5 2-1.5 2-5.4 0-4.6-1.2-7.1-3.5-7.1-.7 0-1.5.3-1.8.7m3.3 3.3c0 1.9-1.1 2.6-2.3 1.4-.8-.8.3-3.4 1.4-3.4.5 0 .9.9.9 2M587.5 362c-1 3 .4 6 2.7 6 1.1 0 1.8.5 1.5 1.2-.2.7-1.4 1.2-2.6 1-2.8-.3-2.3 2.1.4 2.7 2.4.4 4.5-2.5 4.5-6.3-.1-5.6-5.1-9.1-6.5-4.6m4.3 2.3c.2 1-.3 1.7-1.2 1.7-1 0-1.6-.9-1.6-2.1 0-2.4 2.3-2.1 2.8.4M597 361.5c-2 2.4-.5 5.5 3.8 7.1.1.1 0 .9-.4 1.8-.5 1.3-.9 1.4-2 .5-2.1-1.7-3.1-.1-1.1 1.8 1.5 1.6 1.8 1.5 3.7-.2 1.3-1.1 2-3.1 2-5.2 0-6.2-3.1-9.2-6-5.8m3.8 2.8c.2 1-.3 1.7-1.2 1.7-1 0-1.6-.9-1.6-2.1 0-2.4 2.3-2.1 2.8.4M615.2 362.5c-2.2 4.8-.8 10.5 2.6 10.5 2.8 0 4.2-2.1 4.2-6-.1-6.4-4.6-9.4-6.8-4.5m4.6 3.4c.2 1.8-.3 3.9-1 4.8-1.1 1.4-1.4 1-1.9-2.8-.4-2.4-.4-4.8-.2-5.2 1-1.7 2.8.1 3.1 3.2M634.7 360.7c-1.2 1.1-.8 10.8.5 12.1.7.7 1.7.8 3 .1 3.5-1.9 2.1-12.9-1.7-12.9-.7 0-1.5.3-1.8.7m3.3 6.4c0 4.2-1.4 5.2-2.5 1.8-.9-2.6.2-7.2 1.5-6.4.6.3 1 2.4 1 4.6M643.4 362.5c-.4 1.4-.4 2.9-.1 3.2.4.3.2 1.4-.3 2.3-.7 1.3-.5 2.4.8 4 1.6 2 2.1 2.1 4 .9 2.3-1.5 2.9-4.3 1.2-5.4-.8-.5-.8-1.1 0-2 .8-1 .8-1.9-.2-3.4-1.8-2.9-4.6-2.7-5.4.4m4.4 1.3c.2.7-.3 1.2-1.2 1.2s-1.6-.7-1.6-1.6c0-1.7 2.2-1.4 2.8.4m0 5.9c-.4 2.2-2.2 2-2.6-.1-.2-1 .3-1.6 1.3-1.6s1.5.7 1.3 1.7M653.2 361.2c-1.9 1.9-1.5 9.2.7 11.2 1.7 1.6 2 1.6 3.5.1 2.9-2.9 1.5-12.5-1.7-12.5-.7 0-1.8.5-2.5 1.2m3.3 5.1c0 5.2-1.9 5.1-2.3-.2-.2-3.2 0-4.2 1-3.9.8.3 1.3 2 1.3 4.1M662.3 361.5c-.8 2.1.6 3.3 1.7 1.5.5-.8 1.2-1.1 1.7-.7.4.4.2 1.6-.3 2.5-.8 1.2-.8 2.2 0 3.4 1.3 2.2.1 3.5-1.9 1.8-1.2-1-1.5-1-1.5.3 0 .8.7 2.1 1.6 2.8 1.4 1.1 1.9 1 3.5-1 1.3-1.5 1.6-2.8 1-3.8-.5-.9-.6-2.4-.4-3.4 1-3.7-4-6.8-5.4-3.4M607.5 364.4c-1.9 3.9-1.5 6.6 1 6.6.8 0 1.5.5 1.5 1.2 0 .8.3.9 1.1.1 1.4-1.4.7-10.5-.8-11-.6-.2-1.9 1.2-2.8 3.1m2.1 4.3c-1.1 1.1-1.9-.6-1.1-2.4.8-1.7.8-1.7 1.2 0 .3 1 .2 2.1-.1 2.4M625.5 368c.3.5 1.2 1 2 1s1.7-.5 2-1c.4-.6-.5-1-2-1s-2.4.4-2 1M624 402.4c0 26.3 0 26.3-2.9 26.9-3.4.7-4.3 2.6-3.5 7.5.4 2.8 1.5 4.4 4.4 6.5 2.1 1.5 4.4 2.7 5 2.7.7 0 3-1.8 5.2-4 3.4-3.4 3.9-4.4 3.3-6.9-.8-3.7-3.4-6.7-6.8-8C626 426 626 426 626 401c0-16-.4-25-1-25s-1 9.5-1 26.4m4.5 27.6c-.3.5-1.3 1-2.1 1s-1.4-.5-1.4-1c0-.6.9-1 2.1-1 1.1 0 1.7.4 1.4 1m-2.9 2.7c2.3 2.4 4.5 7.9 3.8 9.7-.3.9-1.4 1.6-2.3 1.6-1.8-.1-5.1-2.3-5.1-3.6 0-.4.5-.3 1.2.4 1.7 1.7 2.6 1.5 3.3-.8 1.4-4.5-4.1-8.2-6.4-4.3-.9 1.6-1 1.5-1.1-.8 0-1.4.3-2.9.7-3.2 1.2-1.2 4.1-.7 5.9 1m7.1-.1c1 2.6-1.4 4.1-3.5 2.1-1.5-1.6-1.5-1.9-.2-2.7 2.1-1.4 3-1.2 3.7.6m-7.9 5.9c.3 1.1 0 1.5-.7 1-.6-.3-.9-1-.6-1.5.3-.4 0-1.1-.5-1.3-.6-.3-.5-.4.2-.3s1.5 1.1 1.6 2.1m8.7-.5c-.3.5-1.1 1-1.6 1-.6 0-.7-.5-.4-1 .3-.6 1.1-1 1.6-1 .6 0 .7.4.4 1M472.3 381.8l-23.3.2v12c0 8.8.3 12.2 1.3 12.5.6.3 20.5.1 44.2-.3l43-.7-.3-11.5c-.2-6.3-.6-11.9-.9-12.3-.3-.5-9.6-.7-20.7-.5-11 .2-30.6.4-43.3.6m61.7 11.7V404h-82v-20l19.8-.2c10.8-.2 29.3-.4 41-.6l21.2-.3z"/><path d="M459.2 386.2c-1.5 1.5-1.6 5.8-.2 5.8.6 0 1-.9 1-2s.5-2 1-2c1.6 0 1.2 3.8-1 8.2-2.6 5.4-2.5 5.8.9 5.8s4.6-1.3 3.6-3.8c-.5-1.4-.7-1.4-1.5-.2-1.7 2.7-2.2.2-.6-2.9.9-1.6 1.6-4.1 1.6-5.4 0-2.1-1.6-4.7-3-4.7-.3 0-1.1.5-1.8 1.2M469.8 386.8c-1.8 2-2.2 12-.6 13.9 3.1 3.8 8.2-1.2 5.8-5.7-.8-1.4-.8-2.6-.2-3.2 1.3-1.3.3-4.7-1.8-5.8-1.3-.7-2.2-.5-3.2.8m3.2 3.2c0 1.1-.4 2-1 2-.5 0-1-.9-1-2s.5-2 1-2c.6 0 1 .9 1 2m.4 8.3c-.3.9-1 1.7-1.5 1.7-1.4 0-2.2-2.7-1.5-4.7.6-1.5.8-1.5 2.2-.2.8.9 1.2 2.3.8 3.2M492 385.7c-.7 15-.6 16.3 1.9 16.3 1.8 0 2.2-.4 1.6-1.8-.5-.9-1-4.7-1.3-8.5-.2-3.7-.8-6.7-1.3-6.7s-.9.3-.9.7M500.7 385.6c-.4.4-.7 2.5-.7 4.6 0 3.5.2 3.9 2.3 3.6 1.8-.2 2.3.2 2.5 2.4.3 2.9-.6 3.6-2.5 1.7-1.6-1.6-2.8.8-1.3 2.6 1.8 2.2 3.9 1.8 5.1-.9 1.5-3.2.3-7.7-2.1-8.3-2.7-.7-2.5-3.1.3-3.5 1.2-.2 2.1-.8 2-1.3-.3-1.2-4.6-1.9-5.6-.9M511.7 385.7c-.4.3-.7 2.4-.7 4.5 0 3.5.2 3.9 2.3 3.6 1.3-.2 2.2.2 2.1.9-.3 4.3-.4 4.4-2.4 3.8-2.4-.7-2.6.7-.5 2.5 1.3 1 1.9 1 3.5-.5 3.1-2.8 2-9.5-1.5-9.5-.8 0-1.5-.7-1.5-1.5s.9-1.5 2-1.5 2-.7 2-1.5c0-1.5-4-2.1-5.3-.8M479 394c0 .5 1.6 1 3.5 1s3.5-.5 3.5-1c0-.6-1.6-1-3.5-1s-3.5.4-3.5 1M538.7 395.2c-.7.4.4.8 2.3.8 11.5.1 46.7 1.2 47.8 1.5 1.5.5 1.8 47.5.2 47.5-.6 0-1 3.5-1 8.4 0 8.5 0 8.5 4.5 11.7 2.5 1.8 4.5 3.8 4.5 4.5s-2 3-4.4 5.1c-4.5 3.8-4.5 3.8-4.7 12.7l-.3 8.9 5.7 3.9c7.5 5.1 8.7 4.3 8.7-5.2 0-6.5.1-6.8 3.5-9.4 5-3.8 8.8-10.9 8.8-16.2 0-5.2-.8-6.4-7.2-9.3-3.7-1.8-5-3-5.4-5.1-.4-1.9-2-3.6-5.2-5.4l-4.5-2.7v-24.8c0-19.1-.3-25.1-1.3-25.9-1.5-1.3-50.2-2.1-52-1m60.3 64.7c0 3.2-.3 6-.6 6.4-.3.3-2.3-.7-4.5-2.1-3.8-2.7-3.8-2.7-3.9-9.5v-6.8l4.5 3.1c4.5 3.1 4.5 3.2 4.5 8.9m5.1.2c2 1 2 1.1.2 2.4-2.6 2-3.3 1.8-3.3-1s.3-2.9 3.1-1.4m7.7 9.4c.2 4.3-.2 5.7-2.8 9.3-4.6 6.4-7 7.1-12 3.7-2.2-1.5-4.4-2.5-4.8-2.1s.1 1.2 1.1 1.7c5.4 3.1 6.3 5.1 5.9 12.6l-.4 7.3-4.4-3.1c-2.8-1.9-4.4-3.7-4.4-5.1 0-2 .1-2 1.8.3 2.6 3.1 5.2 2 5.2-2.4s-2.3-6.6-5.1-4.9c-1.7 1.1-1.9.9-1.9-2.3 0-2.7.9-4.5 3.6-7.5 2-2.2 4.4-5 5.3-6.2 3.1-4.5 6.5-6.8 9.6-6.5 2.9.2 3 .4 3.3 5.2M595 491c0 3.2-1.4 4-2.4 1.4-1-2.7-.7-4.4.9-4.4q1.5 0 1.5 3"/><path d="M591.6 453.6c-.7 1.8 1.8 6.4 3.5 6.4 1.6 0 2.2-3 1.1-5.6-1.3-2.8-3.7-3.2-4.6-.8m3.4 2.5c0 .6-.4.7-1 .4-.5-.3-1-1.1-1-1.6 0-.6.5-.7 1-.4.6.3 1 1.1 1 1.6M438.2 434.2l.3 12.3h87.7l-.1-11.4c-.1-6.3-.4-11.8-.7-12.3-.3-.4-20.1-.8-44-.8h-43.5zm84.8.3V445h-80.8l-.4-5.3c-.2-2.8-.2-7.6 0-10.5l.4-5.2H523z"/><path d="M447.6 428.2c-.8 3.1-.7 3.8.3 3.8.5 0 1.2-1 1.6-2.3.8-2.2.8-2.2 1.2.1.3 1.3-.5 4.3-1.6 6.8-1.2 2.4-2.1 4.6-2.1 4.9s1.6.5 3.5.5c3.1 0 3.5-.3 3.5-2.5 0-2.6-1.5-3.4-2.3-1.3-.2.7-.7 1.1-1 .7-.4-.3.3-2.4 1.4-4.6 1.6-3.3 1.8-4.6.9-6.2-1.4-2.8-4.6-2.7-5.4.1M458.4 427.1c-.8 1.3-1.3 11.9-.7 13.6.8 2 6.1 1.6 6.6-.5.7-2.5.2-11.5-.7-13s-4.2-1.6-5.2-.1m3.6 3.4c0 1.4-.4 2.5-1 2.5-.5 0-1-1.1-1-2.5s.5-2.5 1-2.5c.6 0 1 1.1 1 2.5m.7 6.1c.8 2.1-1.3 4.2-2.8 2.7-1.3-1.3-.5-4.3 1.1-4.3.6 0 1.3.7 1.7 1.6M480.8 433.9c-.3 7.5-.2 8.1 1.7 8.1s2-.5 1.5-7.7c-.7-10.7-2.7-10.9-3.2-.4M491.2 427.2c-1.4 1.4-1.6 11.6-.3 13.6.5.8 1.7 1.2 2.7 1 1.6-.3 2-1.4 2.2-6.6.4-7.8-1.5-11.1-4.6-8m2.8 6.8c0 3.3-.4 6-1 6s-1-2.7-1-6 .4-6 1-6 1 2.7 1 6M501.2 427.2c-1.4 1.4-1.6 4.8-.4 4.8.5 0 1.4-1 2-2.3 1-2.2 1.1-2.1 1.1.6.1 1.5-.8 4.5-1.9 6.7s-2 4.2-2 4.5 1.6.5 3.5.5c2.8 0 3.5-.4 3.5-1.9 0-1.4-.5-1.8-2.1-1.4-2.1.6-2.1.6 0-3.6 1.4-2.6 1.9-5 1.5-6.6-.7-2.7-3.2-3.3-5.2-1.3M468.5 433.9c-.7 1.3 1.7 2.4 4 1.9.9-.1 1.6-.8 1.6-1.3 0-1.4-4.8-1.9-5.6-.6M528 434c0 .5 3.7 1 8.3 1.2l8.2.3.3 20.7c.2 20 .2 20.7-1.8 21.3-2.7.9-7 6.7-7 9.6-.1 1.8-1.1 2.9-4.2 4.4-2.3 1.1-4.4 2.6-4.6 3.3-.3.8 1.3.3 3.7-1.2 2.2-1.4 4.3-2.6 4.6-2.6s.5 2.7.5 6c0 5.8.1 5.9 3.6 7.6 3 1.5 3.7 1.5 4.5.3.7-1.1 1.5-.7 3.8 1.8 2.8 3 6.1 4.4 6.1 2.5 0-.4 1.6-1.4 3.5-2.1 6.4-2.3 11.7-11.7 9.6-16.9-1.2-2.8-6.1-6.2-9-6.2-1 0-3.6-1.7-5.9-3.8l-4.2-3.9v-20.4c0-14.6-.3-20.8-1.2-21.7-1.5-1.5-18.8-1.7-18.8-.2m17.8 46.1c-.9.5-2.4 1.7-3.3 2.5-2 2.1-3.2 1-1.4-1.2 1.4-1.8 5.1-3.4 5.9-2.7.3.2-.3.9-1.2 1.4m5.1 1.3c1 1.2.5 1.6-2.4 2.6-1.9.6-3.5 1.8-3.5 2.5 0 .8-.4 1.6-.9 2-.6.3-.9-.6-.8-2s.7-2.6 1.2-2.7c.6 0 1.6-.9 2.3-1.9 1.6-2.3 2.6-2.4 4.1-.5m-.8 7.9c-1.1 2.9-1.8 3.2-4.1 1.7-1.3-.8-1.2-1 .3-1 2 0 2.3-1.6.5-2.4-.7-.4-.3-.4 1-.2 1.9.4 2.2.1 1.7-1.2-.4-1.2-.3-1.4.5-.6.7.7.8 1.9.1 3.7m7.9-3.5c0 1.5-2.4 3.2-4.4 3.2-1.8 0-1.7-.1.4-2 2.4-2.1 4-2.6 4-1.2m-18.3 2.2c-.3 1.3 0 2 .9 2 .8 0 1.4.7 1.4 1.6 0 .8.5 1.2 1.1.9.5-.4 1.8 0 2.7.9 1.2 1 2.2 1.2 3.2.6 2.3-1.5 2.5-1.3 2.7 3 .2 3.8.2 3.9-2.3 3-5.1-2-6.3-3-5.8-4.8.5-1.3.4-1.4-.4-.3-.6.8-1.8 1.1-3.1.6-1.6-.5-2.1-1.4-2.1-4.4q0-5.1 1.8-5.1c.2 0 .2.9-.1 2m24 .8c.6.4 1.1 2.5 1.1 4.7 0 3.9 0 3.9-1.4.7-1.5-3.7-4.7-4.3-6.6-1.2-.7 1.1-1.6 2-2 2-1.6 0-.7-2.4 1.8-4.6 2.5-2.4 5-3 7.1-1.6m-1.7 6.4c0 2.5-2.7 5.8-4.7 5.8-.7 0-1.3-.8-1.3-1.8 0-1.8 1.9-5.4 2-3.7 0 .5.5.2 1.1-.8 1.4-2.4 2.9-2.1 2.9.5m-18 4.9c0 .6.5.7 1 .4.6-.3 1-.1 1 .4 0 .6-.9 1.1-2 1.1s-2 .5-2 1c0 .7-.6.7-2 0-1.3-.7-2-2.1-2-4.1 0-3 0-3 3-1.4 1.7.9 3 2 3 2.6m11-2.6c0 .3-.2.5-.5.5s-.5-.2-.5-.5.2-.5.5-.5.5.2.5.5m9 1.5c0 .5-.5 1-1.1 1-.5 0-.7-.5-.4-1 .3-.6.8-1 1.1-1 .2 0 .4.4.4 1m-13.3 4.3c.7.5 1 1.3.7 1.8-.7 1.2-4.4-1.3-4.4-2.9 0-1.3 1.1-1 3.7 1.1m11.3-1.4c0 .5-1.1 1.6-2.4 2.4-2.7 1.8-6.6 1.2-6.6-1 0-1.1.9-1.3 3.5-1 1.9.3 3.8.1 4.1-.4.7-1.2 1.4-1.2 1.4 0m-11 5.6c0 .3-.2.5-.5.5s-.5-.2-.5-.5.2-.5.5-.5.5.2.5.5"/><path d="M546 496.5c0 .3.2.5.5.5s.5-.2.5-.5-.2-.5-.5-.5-.5.2-.5.5M560.3 489.7c.4.3 1 .3 1.4 0 .3-.4 0-.7-.7-.7s-1 .3-.7.7M539.7 499.4c-.4 1-.5 2.1-.2 2.4.9.9 1.7-.6 1.3-2.5-.3-1.7-.4-1.7-1.1.1M612.3 442.2c-1.3.6-2.3 1.5-2.3 2 0 1.4 1.6.9 4.1-1.2 2.6-2.1 1.7-2.5-1.8-.8M604.9 447c-1.3 1-1.9 1.9-1.3 2 .7 0 2.2-.9 3.5-2 1.3-1 1.9-1.9 1.3-2-.7 0-2.2.9-3.5 2M343 459.9c-1.7 1.6-2.8 3.5-2.4 4.3.3.7 3.1 2.5 6.2 4.1 3.1 1.5 9.8 5.1 14.7 8 5 2.9 11.5 6.7 14.5 8.4s9.3 5.2 14 7.8c12.7 7.1 27.5 15.3 36 19.8 4.1 2.2 8.7 4.8 10.2 5.8 1.4 1.1 2.8 1.9 3 1.9.3 0 5.2 2.7 11.1 5.9 5.8 3.3 13 7.3 15.9 8.9 7.1 3.9 13.8 7.7 19.6 10.9 2.6 1.4 10.8 6 18.2 10.1 7.4 4 14.9 8.2 16.5 9.2 1.7 1 6.6 3.7 11 6s8.2 4.6 8.5 5 2 1.5 3.7 2.4c1.8.9 4 2.8 4.9 4.2 3.2 4.7 1.5 6.1-22.6 19.2-15.4 8.3-19.1 10.3-26 13.9-4.1 2.2-9.3 5-11.4 6.2-2.8 1.6-4.9 2.1-7 1.7-2.2-.5-4.5.1-8.5 2.1-8.3 4.2-11.1 7.3-11.1 12.1 0 9.1 11.4 11.1 18.4 3.3 2.6-2.8 1.2-2.6-2.8.4-4.2 3.2-7.1 3.2-9.2 0-2-3.1-1.1-8 2-10 1.2-.8 5.8-1.8 10.1-2.2 7.8-.6 7.8-.6 7.3 2-.6 2.9.6 3.6 1.9 1.3.4-.7 3.5-2.8 6.8-4.6s8.9-5 12.5-7c3.6-2.1 9.7-5.5 13.5-7.5 3.9-2.1 8.8-4.9 11-6.1 2.2-1.3 7.6-4.4 12-6.9 9.6-5.5 12.5-9.1 12.5-15.9 0-7.8-3.8-11.7-20-20.3-11.5-6.2-22.3-12.3-23-13-.3-.3 11-.3 25 0s26.4.1 27.5-.3c1.1-.5 1.6-.9 1-.9-.5 0-14-.4-30-.7-29-.6-29-.6-34.8-4-3.2-1.9-6-3.4-6.2-3.4s-4.2-2.3-9-5c-4.8-2.8-8.9-5-9.2-5s-1.9-1-3.5-2.2c-3-2.1-3-2.1-.7-3.9 1.5-1.2 1.9-1.9 1-1.9-.8 0-2.2.7-3.2 1.6-1.7 1.5-2.6 1.2-12.6-4.4-5.9-3.3-13-7.2-15.8-8.7-9.1-5-13.9-7.7-20.5-11.5-3.6-2-9.4-5.3-13-7.2-9-4.9-15.6-8.5-22-12.3-8.6-5.1-38.2-22.1-40.8-23.4-2-1.1-2.6-.8-5.2 1.8m12.3 3.8c4.5 2.6 8.4 5.1 8.5 5.5.2.4.8.8 1.2.8.5 0 3.3 1.4 6.2 3.1 2.9 1.8 7.3 4.3 9.8 5.7s9.7 5.5 16 9c6.3 3.6 15.6 8.7 20.5 11.4 5 2.7 9.7 5.3 10.5 5.8.8.6 3.6 2.1 6.2 3.5 2.5 1.3 9.9 5.4 16.5 9.1 6.5 3.7 13.7 7.7 16.1 9 2.3 1.3 6.3 3.6 9 5.1 2.6 1.4 12.6 7 22.2 12.3s18.6 10.3 20 11.2c1.4.8 6.1 3.4 10.5 5.8 24.3 12.9 28.1 16.2 27.8 24.3-.1 5.3-2.7 9.1-8.1 11.8-1.5.8-4.9 2.7-7.7 4.3-2.7 1.6-7 4-9.5 5.4s-9.7 5.5-16 9c-21.4 12.2-23.9 13.4-26 12.7-2.6-.8-13.4-.8-16.3 0-2.1.6-2 .6.3-1.1 1.4-1.1 4.6-1.9 7.7-2.1 4.4-.2 7.6-1.5 19.2-7.7 13-7 21-11.3 37.2-19.8 12.9-6.9 15.6-9.7 13.9-14.4-1.1-2.7-4.6-6.4-6.1-6.4-.4 0-1.4-.6-2.1-1.3s-5.6-3.6-10.8-6.4c-14.7-7.8-31-16.7-36.8-20.2-2.9-1.7-5.4-3.1-5.6-3.1-.1 0-4.9-2.6-10.7-5.8-5.7-3.3-12.5-7.1-15.1-8.5-6.2-3.5-12.4-6.9-22.3-12.5-4.4-2.5-12.5-7-18-10-17.3-9.4-19.9-10.8-24.5-13.4-2.5-1.4-8.1-4.6-12.5-7-4.4-2.5-13.4-7.6-20-11.4s-13.1-7.5-14.5-8.2-3.2-1.8-4.1-2.5c-1.8-1.4-3.4-7.7-1.8-7.7.5 0 4.7 2.1 9.2 4.7M344 463c0 .5-.4 1-1 1-.5 0-1-.5-1-1 0-.6.5-1 1-1 .6 0 1 .4 1 1m122.2 173.5c-.3 2.6.1 5.2.8 6 1.5 1.8-.1 2-1.8.3-1.3-1.3-1.7-9-.5-10.1 1.4-1.5 1.8-.5 1.5 3.8M582.6 460.9c-1.5 1-2.4 2.1-1.9 2.4 1 .6 6-2.9 5.2-3.7-.2-.3-1.7.3-3.3 1.3M572.8 466.8c-2.7 1.6-3.7 3.2-2 3.2.4 0 2.1-1.1 3.7-2.5 3.4-2.8 2.3-3.3-1.7-.7M563.5 472.5c-3 2.5-3 2.5.8.8 2-.9 3.7-2 3.7-2.5 0-1.4-1.4-.9-4.5 1.7M555.9 476.9c-1.3 1.1-1.9 2-1.3 2.1 1.5 0 5-2.7 4.3-3.4-.3-.4-1.7.2-3 1.3M517.5 499.2c-2.2 1.2-3.5 2.3-2.9 2.5 1.1.4 8.4-3.4 8.4-4.3 0-.8-1.6-.3-5.5 1.8M507.3 505.1c-4.7 3-4.1 4.4.7 1.7 2.2-1.3 4-2.6 4-3.1 0-1.2-1.3-.8-4.7 1.4M493.5 513.5c-1.6 1.3-2.5 2.4-2 2.5 1.2 0 7.5-3.7 7.5-4.5 0-1.3-2.8-.3-5.5 2"/><path d="M481.5 520.5c-1.6 1.3-2.6 2.4-2.1 2.5 1 0 7.6-3.9 7.6-4.6 0-1.2-2.8-.1-5.5 2.1M456.2 535.2c-3.5 2.2-3.9 2.8-1.9 2.8 1.6-.1 6.3-3.7 5.7-4.4-.3-.3-2 .4-3.8 1.6M570.7 536.6c-.4.4-.7 6.1-.7 12.6V561l19.8.1c10.8 0 30.6.2 44 .5l24.2.6v-25l-4.2-.4c-8-.8-82.3-1-83.1-.2m63.1 2.3 21.2.1v20h-40.4c-37.7 0-40.5-.1-41-1.8-.4-1.3-.1-18.1.3-18.9.1-.1 8.8 0 19.4.2 10.5.1 28.8.3 40.5.4"/><path d="M580.2 541.2c-1.4 1.4-1.6 4.8-.3 4.8.5 0 1.2-1 1.6-2.3.8-2.1.8-2.1 1.2.5.2 1.5-.5 4.5-1.7 6.8s-2 4.3-1.8 4.5 1.7.5 3.3.7c2.5.2 3.1-.1 3.3-2 .4-2.3-1.3-3.1-2.1-1-.2.7-.8 1-1.2.5-.5-.4.1-2.5 1.3-4.6 1.9-3.3 2.1-4.3 1.1-6.5-1.3-2.8-2.8-3.3-4.7-1.4M591 541.5c-1.9 2.3-2.2 12.2-.4 14 .9.8 1.9 1.5 2.4 1.5s1.5-.7 2.4-1.5c2.8-2.8.8-15.5-2.4-15.5-.4 0-1.3.7-2 1.5m3 3c0 1.4-.4 2.5-1 2.5-.5 0-1-1.1-1-2.5s.5-2.5 1-2.5c.6 0 1 1.1 1 2.5m.4 6.2c.9 2.2-1 4.1-2.5 2.6-1.3-1.3-.5-4.3 1-4.3.5 0 1.2.8 1.5 1.7M613.7 540.7c-.3.5-.7 4.2-.8 8.3-.2 6.8-.1 7.5 1.7 7.5q1.8 0 1.5-1.5c-.3-.8-.4-3.9-.3-6.9.1-5.4-1-9.2-2.1-7.4M623 541.4c-1.6 2-1.7 12-.1 14 1 1.2 1.8 1.3 3.2.5 3.4-1.8 2.2-15.9-1.4-15.9-.3 0-1 .6-1.7 1.4m3 7.1c0 5.6-1.4 7.5-2.2 3.1-.6-3.2.2-8.6 1.3-8.6.5 0 .9 2.5.9 5.5M634.6 540.8c-.3.6-.6 4.5-.5 8.7.1 6.3.4 7.5 1.7 7.3s1.5-1.6 1.3-7.3c-.3-7.1-1.3-10.7-2.5-8.7M600 549c0 .5 1.6 1 3.5 1s3.5-.5 3.5-1c0-.6-1.6-1-3.5-1s-3.5.4-3.5 1M447.4 540c-2 .8-4.2 3-3 3 1.3 0 5.6-2.4 5.6-3.2 0-.9.1-.9-2.6.2M439 545c-.8.5-1.2 1.2-.9 1.5.8.8 3.9-.5 3.9-1.6s-1.1-1.1-3 .1M432.6 549.1c-2.1 1.6-2.6 2.8-2.4 5.2.2 1.7.9 3.2 1.5 3.5.9.2 1.1-.5.7-2.6-.5-2.3-.1-3.4 1.7-5.1 3.1-2.8 1.9-3.7-1.5-1M435 558.9c0 1.3 3.8 3.3 5.3 2.8.7-.2-.3-1.1-2-2.1-1.8-.9-3.3-1.2-3.3-.7M456.7 572.1c1.1 1.2 2.9 1.9 3.9 1.7 1.5-.3 1.2-.7-1.5-2.1-4.5-2.2-5-2.1-2.4.4M464 575.8c0 .9 4.4 3.2 5.8 3.2 1-.1-3.8-4-4.9-4-.5 0-.9.4-.9.8M473 580.6c0 1.1 3.4 3.3 5 3.3 1 .1.6-.6-1-1.9-2.6-2-4-2.5-4-1.4M353.7 582.7c-2 1.9 0 7.1 2.8 7.1.5 0 1.1.5 1.3 1.1.4 1.1-1 1.5-3.5 1.2-1.8-.3-1.6 1.6.2 2.3 3.8 1.4 6.9-5.9 4.5-10.5-1-1.9-4-2.6-5.3-1.2m4.1 3c-.4 2.2-2.2 2-2.6-.1-.2-1 .3-1.6 1.3-1.6s1.5.7 1.3 1.7M362.4 584.5c-.7 2.8 1 5.5 3.3 5.5.8 0 1.3.6 1 1.2-.2.7-1.4 1.2-2.6 1.1-2.8-.3-2.7 1.4.1 2.3 3.8 1.2 5.9-4 4.2-10.4-.9-3.2-5.2-3-6 .3m4.1 1.5c0 .7-.6 1.5-1.2 1.7-.8.3-1.3-.4-1.3-1.7s.5-2 1.3-1.8c.6.3 1.2 1.1 1.2 1.8M372.2 583.7c-1.2 2.3.2 6.3 2.3 6.3.8 0 1.5.7 1.5 1.5 0 1.1-.7 1.4-2.5.9-2-.5-2.4-.3-1.9 1 .3.9 1.4 1.6 2.3 1.6 3.4 0 4.2-1.6 3.9-7.1-.3-4.7-.6-5.4-2.5-5.7-1.3-.2-2.5.4-3.1 1.5m3.8 2.3c0 1.1-.4 2-1 2-.5 0-1-.9-1-2s.5-2 1-2c.6 0 1 .9 1 2M391.2 584c-1.8 3-1.5 8.4.7 10.4 1.8 1.7 2 1.7 4-.3 2.5-2.5 2.7-6.8.5-9.9-1.9-2.7-3.5-2.8-5.2-.2m3.8 4.5c0 4.3-1.1 5.8-2.5 3.4-.9-1.4.4-7.9 1.5-7.9.6 0 1 2 1 4.5M383.8 585.2c-2.7 4.2-3.1 6.7-1.1 7.5 1 .4 2.1 1.1 2.6 1.7.9 1.4 2.9-1.4 2.2-3.2-.3-.8-.5-2.9-.5-4.8 0-3.9-1.1-4.4-3.2-1.2m.8 5.5c-1 1-1.9-.5-1-1.8.6-1.1.8-1.1 1.2 0 .2.7.1 1.5-.2 1.8M419 584.9c-2.1 4-.2 11.1 3 11.1 1.8 0 4-3.9 4-7.1 0-3.1-1.9-5.9-4-5.9-1.1 0-2.4.9-3 1.9m4.2 2.3c.5 3.5-.3 6.9-1.6 6.5-1-.4-1.7-6.4-.9-8 .8-1.5 2.2-.6 2.5 1.5M429.2 584.2c-1.3 1.3-1.6 7.5-.6 10.2.3.9 1.6 1.6 2.9 1.6 2.6 0 3.5-1.7 3.5-6.9 0-3.7-1.4-6.1-3.5-6.1-.6 0-1.6.5-2.3 1.2m3.6 5.8c-.5 4.9-2.8 5.1-2.8.2 0-2.1.3-4.2.7-4.5 1.3-1.3 2.4 1.1 2.1 4.3M438.6 584.6c-3.4 3.3-1.1 12 3 11.2 1.5-.3 2-1.3 2.2-5.7.2-3.7-.1-5.7-1-6.2-1.8-1.2-2.4-1.1-4.2.7m3.4 4.9c0 2.5-.4 4.5-1 4.5-.5 0-1-2-1-4.5s.5-4.5 1-4.5c.6 0 1 2 1 4.5M410.5 585c-.3.5-.1 1 .4 1 .6 0 1.1 2.1 1.1 5 0 2.7.5 5 1 5 .6 0 1-2.7 1-6 0-4.6-.3-6-1.4-6-.8 0-1.8.4-2.1 1M484.9 588.1c1.8 1.1 3.6 1.8 3.9 1.4.9-.8-3.1-3.4-5.3-3.5-1.5 0-1.2.5 1.4 2.1M401.5 590c.3.5 1.5 1 2.6 1 1 0 1.9-.5 1.9-1 0-.6-1.2-1-2.6-1s-2.3.4-1.9 1M492 591c0 1.3 4.6 4.3 5.9 3.8.6-.1-.5-1.3-2.4-2.6-1.9-1.2-3.5-1.8-3.5-1.2M502 596.8c0 1.3 4.9 3.7 5.7 2.8.4-.4-.3-.9-1.5-1.3-1.2-.3-2.2-.9-2.2-1.4s-.4-.9-1-.9c-.5 0-1 .4-1 .8M400 604.2c.1 5 .3 5.5 4.3 8.5 2.3 1.8 5.4 4.3 6.9 5.5 1.4 1.3 5.8 4.9 9.7 8.1 7 5.7 7.1 5.9 6.5 9.7-.8 5.1 2.4 8.5 9 9.5 4.1.7 5 .4 7.2-1.6 2.9-2.7 3.2-7.7.7-11.5-2.3-3.6-5-4.3-10.1-2.8-5.3 1.6-4.6 2.1-24.4-15-7.5-6.5-7.8-6.9-7.8-11.2 0-2.4-.4-4.4-1-4.4-.5 0-1 2.4-1 5.2m42 27.8c2.3 2.3 2.8 8.8.8 10.8-1.7 1.7-6.3 1.5-7.8-.3-1.7-2.1-1.8-8.9-.1-10.9 1.8-2.2 4.7-2 7.1.4m-10 1c0 .5-.5 1-1.1 1-.5 0-.7-.5-.4-1 .3-.6.8-1 1.1-1 .2 0 .4.4.4 1m-.6 4.6c.7 1.9-.2 3.7-1.5 2.9-1.2-.8-1.2-4.5 0-4.5.5 0 1.2.7 1.5 1.6"/><path d="M436.6 633.6c-2.9 2.8-1.6 7.4 2 7.4 3.4 0 5-3.5 2.9-6.6-1.8-2.8-2.8-3-4.9-.8m3.8 1.9c.7 1.8-.2 4.5-1.5 4.5s-2.2-2.7-1.5-4.5c.3-.8 1-1.5 1.5-1.5s1.1.7 1.5 1.5M650.6 601.3c-2.4 1.7-1.7 5.8 1.1 7.2 2.7 1.4 1.5 3.9-1.3 2.9-1.8-.7-1.8-.6-.1 1.2 2.7 2.9 5.1.8 5.5-4.8.2-3.3-.2-4.8-1.6-6.1-1.5-1.4-2.1-1.5-3.6-.4m2.9 3.5c0 1.8-2 1.5-2.3-.4-.3-1 .1-1.5 1-1.2.7.3 1.3 1 1.3 1.6M668.9 601.6c-1.6 2-1.2 9.4.6 11.3 1.3 1.3 1.7 1.2 3.4-.3 1.5-1.4 1.9-2.8 1.6-6.3-.5-5.8-2.9-7.9-5.6-4.7m3.1 1.9c0 .8-.4 1.5-1 1.5-.5 0-1-.7-1-1.5s.5-1.5 1-1.5c.6 0 1 .7 1 1.5m.2 6c0 .5-.5 1.1-1.1 1.3s-1.1-.4-1.1-1.3.5-1.5 1.1-1.3 1.1.8 1.1 1.3M705.9 602.7c-2 5.4.6 11.2 4.5 9.7 1.8-.7 2.3-2.9 1.6-7.9-.4-3.2-1-4.1-2.7-4.3-1.7-.3-2.6.4-3.4 2.5m4.1 3.8c0 2.5-.4 4.5-1 4.5-.5 0-1-2-1-4.5s.5-4.5 1-4.5c.6 0 1 2 1 4.5M716.7 604c-2.2 5.1-2.1 6 .3 6 1.1 0 2 .4 2 1 0 .5.7 1 1.5 1 1.6 0 1.9-2.2.9-8.3-.8-4.8-2.5-4.7-4.7.3m2 3.7c-.4.3-.7 0-.7-.7s.3-1 .7-.7c.3.4.3 1 0 1.4M724.7 600.7c-.4.3-.7 1.9-.7 3.5 0 2.5.3 2.8 2 2.3 1.3-.4 2.2-.1 2.6.9.9 2.3-.5 3.9-2.2 2.5-1.6-1.3-3-.6-1.9 1 .9 1.6 5.5 1.3 6.1-.4 1.1-2.7-.5-6.5-2.6-6.5-1.1 0-2-.5-2-1 0-.6.9-1 2-1s2-.5 2-1c0-1.1-4.3-1.4-5.3-.3M640.7 601.7c-1.6 1.5-.7 6.2 1.3 6.8 1.1.3 2 1.3 2 2.1 0 1.1-.6 1.3-2 .9-2.4-.8-2.8 1.3-.4 2.2 2.5.9 4.6-2.1 4.6-6.6 0-2.2-.4-4.5-.7-5.1-.7-1.1-3.8-1.3-4.8-.3m3.3 3.3c0 1.1-.4 2-1 2-.5 0-1-.9-1-2s.5-2 1-2c.6 0 1 .9 1 2M658.5 602c.3.5 1.3 1 2.2 1 1.1 0 1.3.5.8 1.7-1.4 3.2-1.8 8.3-.6 8.3.6 0 1.1-1 1.1-2.3.1-1.2.7-3.3 1.5-4.7 2.3-4 1.9-5-2.1-5-2.1 0-3.3.4-2.9 1M679 605c-2.3 4.4-2 6 1.1 6 1 0 1.9.5 1.9 1.2 0 .9.3.9 1.1.1 1.3-1.3.2-11.3-1.2-11.3-.5 0-1.8 1.8-2.9 4m3 2.5c0 .8-.4 1.5-1 1.5-.5 0-1-.7-1-1.5s.5-1.5 1-1.5c.6 0 1 .7 1 1.5M697.4 602.2c-.4.6-.2 1.4.4 1.6.7.2 1.2 2.3 1.2 4.9 0 2.7.4 4.3 1.1 4.1.6-.2 1-.7 1-1.1-.1-.4-.1-3-.1-5.7 0-3.7-.4-5-1.4-5-.8 0-1.8.5-2.2 1.2M512.4 603.5c2.6 1.9 4.2 1.9 2.6 0-.7-.8-2-1.5-2.9-1.5-1.3.1-1.3.3.3 1.5M688 607c0 .5 1.4 1 3.1 1s2.8-.4 2.4-1c-.3-.6-1.7-1-3.1-1-1.3 0-2.4.4-2.4 1M529 612.5c0 .2 1.9 1.4 4.3 2.5 4.2 2.1 4.2 2.1 1.2-.5-2.7-2.2-5.5-3.3-5.5-2M686.8 623.7l-.3 7.8-16.8.3c-15.6.2-17 .1-18.5-1.7-.9-1-3.8-2.8-6.3-3.9-4.7-2-6.5-1.7-9.7 1.5-.7.7-3.4 1.4-6 1.4-2.6.1-9.2.4-14.7.8-9.5.6-10 .7-10.3 2.9-.7 4.7 1 5.2 15.9 5.2 13.4 0 13.9.1 16.3 2.5 2.9 2.9 4.7 3.1 8.4 1.1 1.5-.8 3.5-1.7 4.5-2 .9-.3 2.2-1.7 2.7-3.1.9-2.5.9-2.5 18.7-2.7l17.8-.3.3-8.8c.2-5.3-.1-8.7-.7-8.7s-1.1 3.5-1.3 7.7m-48.8 5.5c-2.6 2.8-2.5 5.8.2 9.3 1.4 1.8 1.7 2.6.7 2.3-4.9-1.6-4.6-13.7.4-13.8.4 0-.1 1-1.3 2.2m4 .3c0 .3-.2.5-.5.5s-.5-.2-.5-.5.2-.5.5-.5.5.2.5.5m7.8 4.1c.2 3.1-.1 4.3-1.4 4.8-2.4.9-4.4-1.2-4.4-4.9 0-3.8.7-4.7 3.5-4.3 1.6.2 2.1 1.2 2.3 4.4m-41-.1c0 1.5-.6 2.5-1.4 2.5-1.7 0-1.8-3.7-.1-4.3.6-.3 1.3-.6 1.3-.6.1-.1.2 1 .2 2.4m4.2 0c0 2.8-1.7 3.4-2.7.9-.3-.9 0-2 .8-2.5 1.9-1.2 1.9-1.2 1.9 1.6m5 0c0 1.5-.6 2.5-1.4 2.5-1.9 0-3-3.2-1.4-4.2 2.1-1.3 2.8-.9 2.8 1.7m16 0c0 2.4-.2 2.5-7 2.5s-7-.1-7-2.5.2-2.5 7-2.5 7 .1 7 2.5m8 0c0 1.8-.5 2.5-2 2.5s-2-.7-2-2.5.5-2.5 2-2.5 2 .7 2 2.5m.7 5.1c-.3.3-1.2.4-1.9.1-.8-.3-.5-.6.6-.6 1.1-.1 1.7.2 1.3.5M540 619.1c3.6 2.4 7 3.9 7 3 0-.5-1.4-1.7-3.2-2.5-3.5-1.8-6.1-2.1-3.8-.5M547.8 625.5c-9.6 6.5-6.1 19.3 5.7 21 4.3.7 4.3.8 5.8 6.3.8 3.2 4.3 15.1 7.7 26.7 8.9 30.3 17.2 58.7 22.4 76.7 2.5 8.6 4.6 16.6 4.6 17.8 0 1.1-1.6 3.6-3.6 5.5-3.2 3.1-3.6 4-3 6.8.4 1.7 1.9 4.8 3.5 6.7 4.2 5.2 7.3 5.1 16.8-.6 4.3-2.5 8.4-5.4 9.1-6.2 1.9-2.5 1.4-7.9-1-11.7-2.3-3.5-4.3-4.5-8.9-4.5-2.3 0-2.7-.7-5.7-10.3-1.7-5.6-3.4-11.4-3.7-12.8-.6-2.6-.6-2.6 21.9-2.1 16 .3 22.6.1 22.6-.7s-7-1.1-22.9-1.1h-22.8l-1.7-5.3c-1.6-5-9.5-32-13.7-46.2-1.1-3.9-2.4-8.4-2.9-10-.5-1.7-1.8-6.4-2.9-10.5-1-4.1-2.6-9.5-3.4-12-3.8-11-4-13.1-1.8-15.4 1.1-1.2 2.7-3.7 3.4-5.6 1.4-3.2 1.3-3.9-.7-8-2.7-5.6-5.4-7-14.1-7-5.9 0-7.6.4-10.7 2.5m10.8 2.7c-.4 2.4-1.1 4.7-1.7 5.2-1.4 1.5-1.1 7.2.6 8.6 2.4 2 1.7 3-2 3-6.7 0-10.8-6.7-8.6-14.2 1.3-4.1 5-6.7 10-6.8 2.2 0 2.3.2 1.7 4.2m8.9-2.6c1.6.6 4.5 5.4 4.5 7.4 0 .5-1.1 1-2.5 1s-2.5.4-2.5 1c0 .5-.7 1-1.5 1-2.3 0-1.9-4.1.5-4.7 1.1-.3 1.8-.9 1.5-1.3-.3-.5-1.4-.6-2.5-.3-2.6.7-3.7 5-1.8 6.9 1.3 1.3 1.8 1.3 4.3 0 3.7-1.9 4.6-1.3 3.3 2.5-1.6 4.7-8.8 6.6-11.4 3.1-2-2.5-1.7-3.8.4-1.9 2.2 2 7.3 2.2 9 .5 2-2 1.3-3-1-1.4-4.7 3.3-8 1.1-8.2-5.5 0-3 .5-4.5 1.9-5.6 1.1-.8 1.9-1.9 1.8-2.4-.3-1 1.8-1.2 4.2-.3m-22.8 11.6c-.3.7-.5.2-.5-1.2s.2-1.9.5-1.3c.2.7.2 1.9 0 2.5m13 .5c-.4.3-.7 0-.7-.7s.3-1 .7-.7c.3.4.3 1 0 1.4m-11.7 2.8c0 .3-.2.5-.5.5s-.5-.2-.5-.5.2-.5.5-.5.5.2.5.5m20.5 7.2c.4 1 1.1 3.1 1.5 4.8.5 1.6 1.8 6.1 3 10 2.1 6.8 3.2 11 6.4 22.5.8 3 2.9 10 4.6 15.5s4 13.1 5.1 17c3.6 12.6 3.4 11.8 12.3 41.5 2.9 9.8 3.2 13.3 1.1 15-2.5 2-4.1.5-5.9-5.7-4.8-15.9-7.7-25.9-11.1-37.3-2-6.9-4.5-15.4-5.6-19-2-6.9-6.5-22.5-7.9-27.5-.4-1.7-1.7-6.2-2.8-10-8.5-29.3-8.4-28.5-4.3-28.5 1.8 0 3.2.7 3.6 1.7m44.4 126.2c3.1 3.1 5.3 8.1 4.7 10.5-.3 1.2-1.8 2.9-3.3 3.6-1.6.8-4 2.2-5.5 3.2-3.5 2.4-3.5 2.4-4.2-1.8-.5-2.2-2.2-4.9-4.7-7.4-3.8-3.7-3.9-3.9-2-4.9 1.1-.6 2.6-1.1 3.3-1.1.8 0 2.1-.9 3.1-2 2.1-2.5 6.1-2.6 8.6-.1m-16.5 7.1c1.4.5 3 1.9 3.7 3.2 1.1 2.1 1 2-2-.5-2.8-2.3-3.6-2.5-5.4-1.5-2 1-2.1 1-.8-.5 1.6-2 1.3-2 4.5-.7m.1 3c.3.5-.3 1-1.5 1s-1.8-.5-1.5-1c.3-.6 1-1 1.5-1s1.2.4 1.5 1m1.5 5.6c0 1.7-.8 1.8-2.4.1-1.8-1.7-.9-4.2 1-2.6.8.6 1.4 1.8 1.4 2.5m5 2.9c0 1.4-.4 2.5-.9 2.5-.4 0-.6-1.1-.3-2.5.2-1.4.6-2.5.8-2.5s.4 1.1.4 2.5m-9-1c0 .3-.2.5-.5.5s-.5-.2-.5-.5.2-.5.5-.5.5.2.5.5m6.7 1.2c-.4.3-.7 0-.7-.7s.3-1 .7-.7c.3.4.3 1 0 1.4m-4.7.8c0 .3-.2.5-.5.5s-.5-.2-.5-.5.2-.5.5-.5.5.2.5.5m3.7 2.2c-.4.3-1 .3-1.4 0-.3-.4 0-.7.7-.7s1 .3.7.7M302.3 625.7c.7 1.1 3.6 2.9 18.2 11 4.4 2.5 12.3 7 17.5 10 5.2 3.1 12.4 7.3 16 9.3s10.4 6 15.3 8.9c4.8 2.8 8.9 5.1 9.1 5.1s3.4 1.8 7 4 7 4 7.5 4 1.1.3 1.3.7c.2.5 2.1 1.8 4.3 3 4.6 2.5 4.8 3.6.6 4.4-1.7.4-5.5 1.8-8.4 3.3l-5.5 2.6-6.7-4.1c-3.7-2.2-8.2-4.9-9.9-5.9-4.2-2.4-31.2-18.1-34.5-20.1-1.4-.8-5.1-2.9-8.1-4.6-3-1.6-8.6-4.8-12.4-7.1-3.7-2.3-7-4.2-7.2-4.2s-3.7-2-7.7-4.4c-7.8-4.7-15.2-8.6-16.4-8.6-.8 0 9 6 15.7 9.6 2.5 1.3 5.9 3.2 7.5 4.2 9.3 5.4 17.5 10.2 21.5 12.4 2.5 1.4 8.6 4.9 13.5 7.8 5 2.9 11 6.4 13.5 7.8s6.9 4 9.8 5.9c2.9 1.8 5.4 3.3 5.7 3.3.4 0 10.5 5.9 13.3 7.8 1 .7-.2 2.4-4.5 6.8-5.7 5.8-10.5 14-13.3 22.9-.7 2.2-1.7 5.1-2.3 6.5s-1.2 7-1.2 12.5c-.1 5.5-.3 10.6-.3 11.2-.3 2.4-6.4 7.1-16.4 12.7l-10 5.7-6.4-4.1c-3.5-2.2-9.4-5.9-13.1-8.2-6.5-3.9-10.6-6.5-18.3-11.4-1.9-1.2-7.1-4.3-11.5-6.9-4.4-2.7-10.2-6.3-13-8-5.2-3.3-8.5-5.4-32.5-20.2-15.6-9.6-23-14.1-27-16.4-1.4-.8-2.7-1.6-3-1.9s-1.6-1.1-3-1.9-6.5-3.9-11.3-6.9c-4.9-3-9.1-5.2-9.4-4.9-.6.6-.6.6 19.7 12.7 15.7 9.3 17.9 10.7 28.3 17.4 3.2 2 7.3 4.5 9 5.5 1.8 1 6.9 4.1 11.5 7 4.5 2.8 11.9 7.4 16.5 10.2 4.5 2.9 9.4 5.9 10.9 6.8 24.3 14.6 25.7 15.7 25.1 18-.3 1.1.7 3.9 2.1 6.3 1.9 3.3 2.6 5.9 2.6 9.6 0 5 .1 5.3 4.3 7.8 2.3 1.5 6.5 4.1 9.2 5.9 2.8 1.7 8.2 5.1 12 7.5 3.9 2.4 9.4 5.8 12.3 7.7 3 1.9 5.6 3.2 6 2.9.3-.3.3-.7.1-.9-3.2-2.2-10.6-6.8-19.9-12.3-6.3-3.8-11.7-7.1-12-7.4s-2.6-1.8-5.2-3.3c-4.6-2.7-4.8-3-4.8-7.2 0-4.5-1.5-8.9-3.7-11.3-1.3-1.3-1.8-6.2-.8-6.2.8 0 21.7 13.1 23.8 14.8.9.8 1.7 2.6 1.7 3.9 0 1.5 1.8 4.1 5.2 7.3 6.9 6.6 10 7.9 16.8 7.3 5-.5 6.1-.2 10.8 2.8 2.9 1.7 5.5 2.9 5.8 2.6s-1.7-1.8-4.5-3.4c-2.8-1.5-5.1-3.4-5.1-4.2 0-1.8 5.6-6.6 10.6-9.1 4.9-2.4 8.9-2.5 16.5-.4 3.7 1 7.2 1.4 9.5 1 4.8-1 3.7-1.8-2.8-2.1-2.9-.1-7.3-.7-9.8-1.4-8-2.2-13.9 0-24 8.8-4.5 4-11 5.1-15.5 2.6-1.8-.9-5.4-3.9-8.1-6.6-4.8-4.8-4.8-5-3.4-7.6 1.3-2.3 14.9-11.2 17.3-11.3.4 0-.4 2.3-1.9 5.1-1.4 2.8-2.3 5.3-2 5.6.2.3 1.5-1.5 2.8-3.9 1.2-2.3 2.8-5.4 3.6-6.8.7-1.4 3-4.5 5.2-6.9 2.2-2.5 4.7-6.1 5.7-8 2.1-4.3 3-16.8 1.4-18.4-.8-.8-1.1.9-1.1 6.6 0 5.3-.5 8.8-1.6 11-1.7 3.2-1.7 3.2-2.6.7-2-5.2-.3-16.9 4.3-28.5 3.9-10 4.8-11.6 10.8-17.5 10.2-10 20-14 34.8-14 4.5 0 11.7.7 16 1.6s10.1 2.1 12.8 2.6c2.8.6 13 1.1 22.8 1.3 9.8.1 18.8.7 20 1.2 1.2.6 3.4 1.5 5 2.2 3.5 1.4 3.4 2.8-.3 4.9-3 1.7-3.4 2.8-4.5 11.9-.7 5.1-.7 5.1-7.3 6.2-10.6 1.7-17.7 1.8-17.4.3.4-2-1.6-1.4-2.3.8-.4 1.2.6 4.5 2.7 8.7 3.9 8.2 3.7 7.8 4.4 7 .3-.3-.8-3.3-2.5-6.7-2.2-4.3-2.7-6.2-1.9-6.5.7-.2 6.4-.9 12.6-1.6 12.8-1.3 12.8-1.3 13.8-10.5.6-5.1 1.1-6.3 4.2-9 4.3-3.7 3.8-4.8-3.7-8.2-5.1-2.3-6.6-2.5-17.6-2.3-10.4.2-12.4 0-14.5-1.6-1.4-1-5-3.2-8-4.7-3-1.6-6.2-3.4-7-4-.8-.7-3.3-2.1-5.5-3.3-2.2-1.1-5.8-3.1-8-4.4-2.2-1.2-7.4-4-11.5-6.2s-8.6-4.8-10-5.7c-1.4-1-5.6-3.4-9.5-5.4-3.8-2-8.8-4.6-11-5.9s-7.4-4.2-11.5-6.4-12.3-6.7-18.2-10.1c-6-3.3-10.8-5.6-10.8-5.2 0 .7 4.5 3.4 21 12.3 4.5 2.4 22.3 12.3 45 25 1.9 1.1 8.5 4.7 14.5 8.2 6.1 3.4 13 7.3 15.5 8.7s6.3 3.5 8.5 4.8c2.2 1.2 4.4 2.6 5 3.1 1.3 1.3-3.8 1-12.5-.7-4.1-.8-10.9-2.2-15-3s-10.6-1.3-14.5-1.1c-7 .3-7 .3-17.3-6-5.7-3.5-10.5-6.3-10.7-6.3s-5.9-3.2-12.7-7.2c-13.1-7.6-22.8-13.1-31.8-18.1-3-1.7-8.4-4.8-11.9-6.9-3.4-2.1-6.5-3.8-6.6-3.8-.4 0-10-5.5-16.4-9.3-1.9-1.2-3.1-1.6-2.8-1M470 635c-1.1 2.1.2 6 2 6 2 0 4-1.3 4-2.6 0-1 1.3-1.4 4.2-1.4 2.3 0 3.8-.3 3.4-.7s-2.2-.6-4-.5c-2 .2-3.7-.3-4.5-1.2-1.8-2.2-3.8-2-5.1.4m2 2.5c0 .3-.2.5-.5.5s-.5-.2-.5-.5.2-.5.5-.5.5.2.5.5M532.5 635c-.4.6 1 1 3.4 1 2.3 0 4.1-.5 4.1-1 0-.6-1.5-1-3.4-1s-3.8.4-4.1 1M578 635c0 1 8.7.7 9.7-.4.4-.3-1.7-.6-4.5-.6-2.9 0-5.2.4-5.2 1M593.3 634.7c1.5.2 3.9.2 5.5 0 1.5-.2.2-.4-2.8-.4s-4.3.2-2.7.4M486 636c0 .5 1.5 1 3.4 1s3.8-.5 4.1-1c.4-.6-1-1-3.4-1-2.3 0-4.1.4-4.1 1M497 636c0 .7 1.4.8 3.8.4 5.1-.9 5.3-1.4.4-1.4-2.3 0-4.2.5-4.2 1M508.4 635.7c.7.7 8.7.5 9.5-.3.2-.2-2-.4-4.9-.4s-5 .3-4.6.7M522.8 635.7c1.2.2 3.2.2 4.5 0 1.2-.2.2-.4-2.3-.4s-3.5.2-2.2.4M448 637c0 .5 2.3 1 5 1 2.8 0 5-.5 5-1 0-.6-2.2-1-5-1-2.7 0-5 .4-5 1"/><path d="M577 639c0 1.1 7 5.2 8.3 4.7.6-.2-1-1.5-3.6-2.9-2.6-1.5-4.7-2.3-4.7-1.8M589 645.8c0 1.1 6.9 4.7 7.6 3.9.3-.3-1.2-1.5-3.5-2.7-2.3-1.1-4.1-1.7-4.1-1.2M458 646.4c0 .2 7 4.3 15.6 9.1 8.6 4.7 17.2 9.6 19.2 10.7 2.1 1.2 8.7 4.9 14.7 8.3 6.1 3.4 13.3 7.4 16 9 2.8 1.6 7.9 4.5 11.5 6.5 11 6.3 13 7.5 13 8.2 0 .3-3.5 2.5-7.7 4.9-4.3 2.3-9.4 5.1-11.3 6.2s-6 3.3-9 5-6.7 3.8-8.2 4.9c-1.4 1-2.8 1.8-3.1 1.8s-4.4 2.3-9.2 5c-4.8 2.8-9.6 5.2-10.8 5.5-1.5.4-4.7-.9-10-4.1-4.3-2.5-8-4.4-8.3-4.2-.5.5 8.9 6.9 12.1 8.3 2 .8 2 .8 0 1.2-2.5.5-5.6 2-12 5.7-6.3 3.7-13.1 7.5-26.8 15.1-10.7 5.9-15.7 9.7-15.7 12 0 .6-1.7 2-3.7 3.2-2.1 1.1-7.8 4.3-12.6 7.2-4.9 2.8-9.1 5.1-9.4 5.1s-1.7.8-3.1 1.8c-1.5 1.1-5.2 3.3-8.2 4.9-3 1.7-14.5 8.2-25.5 14.5s-22.9 13-26.5 15c-10.6 5.7-18.6 10.6-19.7 12-1.3 1.6-7.8 13.6-13.4 24.7-3.7 7.3-4.2 9.2-4.3 15.4l-.1 7.1-12.7 10.3c-7.1 5.7-13.7 10.3-14.7 10.3-1.5 0-4.4-5-13.2-22.8-11.4-22.8-22.9-44.3-28.7-53.7-1.7-2.8-4.2-7.1-5.6-9.6-3.6-6.6-10.3-13.6-16.7-17.2-3.1-1.8-23.5-13.9-45.3-27.1-21.8-13.1-39.9-23.6-40.2-23.3-.3.2 10.7 7.1 24.3 15.3s25 15.2 25.1 15.6c.2.4.7.8 1.2.8.4 0 6.8 3.7 14.1 8.2 7.4 4.5 16.2 9.7 19.6 11.5 5.6 3 15.3 12.2 15.3 14.4 0 .5 1.5 3.2 3.4 6.1 1.8 2.9 5.3 8.9 7.8 13.3s5.5 9.8 6.8 12c3.9 6.9 29 57.4 29 58.5 0 .5-2.1 6.1-4.6 12.4-3.6 9.2-5 11.5-6.8 12-2.2.5-3.6 3.1-3.6 6.8 0 1 3.8 4.4 9.8 8.5 5.3 3.7 9.9 7 10.2 7.3s2.1 1.7 3.9 3c2.7 1.9 4.6 2.4 8.5 2.2 6.3-.3 8.3-2.1 12.9-11.6 2.3-4.8 4.8-8.3 7.3-10.3 5.7-4.3 6.9-4.9 6.1-3-.8 2.2 1 14.3 2.8 17.7 2 3.9 5 6.8 13.7 13.2 10 7.4 27.5 15.3 54.3 24.2 6.1 2.1 11.9 4.1 13 4.6s6.1 2.3 11 4c5 1.7 10.7 3.8 12.9 4.6 2.1.8 4.1 1.2 4.4 1 .9-.9-9.1-4.7-37.8-14.2-7.4-2.5-14.4-4.9-15.5-5.4-1.1-.4-4.7-1.8-8-3.1-21-7.9-39.8-19.4-45.6-27.8-2-2.9-2.5-4.9-2.7-12.6-.3-7.4-.1-9.4 1.2-10.4 1.4-1.2 1.6-.7 1.6 4.9 0 3.5.5 8 1.2 10.2 1.6 5.5 10.2 12.9 21.3 18.3 14 6.8 24.5 10.9 67 25.9 8.3 3 17.5 6.3 20.5 7.5 6.3 2.4 6 2.4 6 1.3 0-.5-2.1-1.6-4.7-2.5-4.6-1.5-23.2-8.1-42.8-15.2-32.9-11.9-48.6-18.9-56.9-25.2-7.9-6.1-9-8.2-9.7-18.1-.5-8 .1-11.2 2.1-11.2.5 0 1.1 1.3 1.5 2.9 1.3 5.8 10.8 12.9 26.7 20 2.6 1.2 5.4 2.1 6.1 2.1s1.7.4 2.2.9c.8.8 36.7 13.1 38.1 13.1.2 0 .4-.4.4-.8 0-.5-4.2-2.1-9.2-3.6-14-4.3-18-5.6-21.3-7.1-1.6-.7-5.2-2.1-8-3-9.2-3.1-23-10.3-27.7-14.4-2.7-2.4-5.2-5.7-5.9-7.8-1.3-4.1-1.4-4 8.9-10.9 2.8-2 5.5-4 5.8-4.5 1.1-1.8 3.4-.8 5 2.3 2 3.9 2.7 4.6 8.4 8.4 7.3 4.9 18.8 9.5 36 14.4 2.5.7 5.6 1.6 7 2 1.4.5 6.8 1.8 12 3s11.3 2.5 13.5 3.1c2.2.5 10.8 2.1 19 3.5 8.3 1.4 17.3 3 20 3.5 11.1 2 32.4 5.1 38 5.5 8.8.6 4-1.1-7-2.5s-44.3-6.7-50.5-8c-2.5-.5-8.5-1.7-13.5-2.6-38.9-7.1-70.4-18.1-79.2-27.6-2.8-3.1-4.7-8-3.4-8.8 1.6-1 3.1-5.9 3.1-10.1 0-7.8 1-8 9.4-2.3 8.9 6.1 13.2 4.4 23.3-9 12-15.8 31.8-34.3 45.6-42.6 3.8-2.3 3.8-2.3 6.2-.1 1.3 1.3 4.7 2.9 7.5 3.6 4.3 1.1 5.8 1.1 9.3-.1 9.7-3.2 20.1-5.5 29-6.3 10-.9 28.6 0 35 1.8 2 .5 5.6 1.5 8 2.1 12 3.3 10.3 1.5 22.9 22.4 4.7 7.7 11.5 18.9 15.3 25 3.8 6 8.2 13.3 9.9 16 5.4 8.8 7.6 11.1 8.7 9.5 1.2-1.8.6-14.5-.8-16.2-.6-.7-4.3-7.6-8.3-15.3-3.9-7.7-7.6-14.4-8.1-14.9-1.8-1.9-.8.8 2.8 7.8 11.4 22.3 13.3 26.3 13.9 29.4.4 1.8.2 4.2-.3 5.4-.9 2.1-.9 2.1-19.6-27.7-2.8-4.4-6.5-10.4-8.4-13.2-1.8-2.9-3.3-5.5-3.3-5.7s-2.3-4.1-5.1-8.6-4.9-8.3-4.7-8.5c.6-.6 16.4 7.6 19.2 10 1.6 1.4 3.2 2.5 3.5 2.5s1.7 1 3.1 2.3c1.4 1.2 4.5 3.8 7 5.7s4.7 3.7 5 4 3 2.5 6 5 6.1 5.1 6.8 5.8c.8.7 3 2.5 5 4 2.1 1.5 4 3.1 4.4 3.7.4.5 1 .6 1.4.3.7-.8-.5-2.1-5.8-6-2-1.5-4.2-3.4-5-4.1-3.2-3.1-26.9-21.7-32.4-25.5-7-4.7-14.3-8.1-26.1-12.3-13.5-4.7-22.4-6.2-38.3-6.3-15.8-.1-25.2 1.2-36.8 5.1-5.6 1.9-8.3 2.3-11.5 1.8-4.6-.8-9.7-3.9-9.7-5.9 0-.6-1.8-3-4-5.1s-4-4.4-4-5.1c0-1.3-5.2-7-7.1-7.7-2-.7-.5-1.9 6.6-5.8 3.3-1.8 9.6-5.4 14-8 8-4.7 8-4.7 11-2.6 1.6 1.2 3.2 2.4 3.5 2.8 1.1 1.5 8.1 2 13.2.9 10.1-2.1 28.4-4 40-4 11.7 0 11.7 0 23.7-6.1 6.6-3.3 12.4-6.6 13-7.3s1.3-4.1 1.6-7.6c.2-3.4.8-7.6 1.4-9.4 1.5-5.1 2.2-11.4 1.2-12-.5-.3-1.2 1.8-1.6 4.6-.4 2.9-1.3 7.7-2 10.5-.8 2.9-1.1 6.8-.8 8.7.5 3.2.2 3.6-3.7 6.1-2.4 1.5-7.9 4.5-12.3 6.7-8 4-8 4-22.6 4.3-16.7.4-30 1.8-38.3 4-6.2 1.6-8.7 1.1-13.9-2.6-3.7-2.6-3.6-3.2.4-5.2 4.2-2.2 14.3-8 47.5-27.7 6.6-3.9 12.8-7 13.9-7 1 0 2.9.9 4.1 2 3 2.8 4 2.5 1.3-.4-2.9-3-2.1-4.6 4.2-8.6 2.6-1.6 4.9-3 5.2-3 .2 0 7.1-4.1 15.4-9 8.4-5 15.3-9 15.6-9 1 0 10.5-6.4 10.5-7.1 0-.5-3 1-6.7 3.3-3.8 2.2-8.3 4.9-10 6-7.3 4.1-10 5.7-15.1 8.7-2.9 1.7-5.5 3.1-5.8 3.1s-1.7.8-3.2 1.9c-1.5 1-4.9 3.1-7.6 4.7-8 4.7-9.2 5.4-38.6 22.7-4.7 2.7-9.8 5.8-11.5 6.7-1.6 1-7 4.1-12 7-4.9 2.9-14.2 8.3-20.5 12s-14.6 8.5-18.4 10.8c-3.7 2.3-7 4.2-7.2 4.2s-5.2 2.9-11.1 6.4c-5.9 3.4-14.6 8.5-19.2 11.2-11.1 6.5-16.9 11.9-22.1 20.4-8 13.2-12.3 25.1-13.6 37.5-.6 5.9-2.1 10.2-3.7 10.8-1.3.5-32 23-38 27.9-2.4 1.9-5.1 5.8-7.3 10.4-2 4-4.1 7.7-4.8 8.2-.6.5-3.2 1.2-5.7 1.6-4.2.6-5.1.4-9-2.6-2.4-1.8-7.3-5.3-10.9-7.7-9.3-6.3-11-8.1-11-11.3 0-2.1.5-2.8 2-2.8 2 0 6-5.2 6-7.7 0-.6 1.6-4.9 3.6-9.6 3-7.2 4.1-8.8 6.9-10.1 1.9-.9 4-2.2 4.7-2.9.7-.6 2.9-2.4 5-3.9 2-1.5 4.2-3.3 5-4 .7-.8 3.3-2.9 5.8-4.8 6.6-5.1 6.9-5.7 6.7-13.5-.2-7.7.4-9.3 9.8-26 2.8-5 5.4-9.8 5.8-10.7.8-2.1 4.9-4.8 24.7-15.8 16.1-9.1 46.8-26.5 58-33 10.8-6.3 15.2-8.8 21.8-12.2 3.9-2.1 6.2-3.9 6.2-5 0-2 4.1-5.2 12-9.5 7.7-4.2 26.6-15 32.3-18.4 2.7-1.6 6.3-2.9 8.1-2.9 3.9 0 6.1-1 23.1-10.8 7.2-4.1 15-8.6 17.5-10s7.4-4.2 11-6.2c3.6-2.1 9-5.1 12-6.7 12.6-6.8 18.3-10.3 17.6-11-.3-.3-3.2 1.2-6.6 3.3-6.2 3.8-6.2 3.8-9.9 1.7-2-1.1-9-5.1-15.6-8.8s-14-7.9-16.5-9.3c-6.4-3.6-26.7-15-32-18-2.5-1.4-8.7-4.9-13.8-7.8-8.5-4.9-11.2-6.1-11.2-5m-39.5 171.2c2 .9 4.1 3.1 5.5 5.9 1.3 2.5 3.4 5.2 4.6 6 3.3 2.1 3 3.9-1.1 6.1-1.9 1-3.5 2.2-3.5 2.6 0 .3-.8.9-1.7 1.2-1 .3-2.9 1.6-4.3 2.8-1.4 1.3-4.2 3.5-6.2 5-7.2 5.4-22.7 21.6-29.8 31.2-4 5.4-7.9 10-8.9 10.4-4.1 1.6-9.7.7-14.5-2.5-2.6-1.8-5.3-3.4-5.9-3.6-.8-.2-.8-1.7 0-5.4 1.7-7 10.4-25.2 12.6-26.1.4-.2.7-.9.7-1.6 0-2.7 11.3-11.7 23-18.4 9.8-5.5 21.4-12.4 23.3-13.7 2.6-1.8 2.2-1.8 6.2.1M602.8 654c1.8 1.1 3.6 2 4 2 1.4-.1-4.3-4-5.8-4-.8 0 0 .9 1.8 2M609.4 657.5c1.1.8 2.5 1.5 3 1.5.6 0 .2-.7-.8-1.5-1.1-.8-2.5-1.5-3-1.5-.6 0-.2.7.8 1.5M615 660.4c0 .7 6.1 3.6 7.4 3.6.6 0-.2-.9-1.9-2-2.8-1.8-5.5-2.6-5.5-1.6M626 666.5c0 .7 8.1 4.7 8.6 4.2.3-.3-1.1-1.4-3.1-2.6-3.5-2-5.5-2.6-5.5-1.6M637 672.5c0 .7 8.1 4.7 8.6 4.2.3-.3-1.1-1.4-3.1-2.6-3.5-2-5.5-2.6-5.5-1.6M649 678.7c0 .6.5 1.5 1 1.8 1.7 1 1.1 3.7-1.2 6.2-1.2 1.3-1.6 2.3-1 2.3 1.6 0 5.2-3.7 5.2-5.4s-3.9-6.6-4-4.9M643.5 691c-.3.5-.2 1 .4 1 .5 0 1.3-.5 1.6-1 .3-.6.2-1-.4-1-.5 0-1.3.4-1.6 1M583 692.3c0 .3 2.6 2 5.7 3.7 5.7 3.2 5.7 3.2 3.2 5.1-1.3 1-2.7 1.9-3.1 1.9-.5 0-.8.4-.8 1 0 .5 1.6 0 3.5-1.1 4.4-2.6 8.5-1.9 8.5 1.4 0 1.7-1.1 2.9-4.6 4.5-4.8 2.3-5.5 3.6-1.6 2.5 1.2-.3 2.2-.9 2.2-1.4s.7-.9 1.5-.9c1 0 1.5 1 1.5 2.7 0 4.6 1.8 1.2 2.5-4.7.6-5.5.6-5.5-7.7-10s-10.8-5.6-10.8-4.7M637.4 694.5c-1 .8-1.4 1.5-.8 1.5.5 0 1.9-.7 3-1.5 1-.8 1.4-1.5.8-1.5-.5 0-1.9.7-3 1.5"/><path d="M408 697.6c-8.6 1.7-20.4 7.9-25.1 13.1-2.4 2.7-2.4 2.7 1.1 0 5.4-4.2 13.1-8.6 17.5-9.9 2.2-.7 9-1.3 15.2-1.3s10.9-.3 10.5-.7c-.9-.9-15.9-1.8-19.2-1.2M628.8 699.1c-2.8 1.6-2.1 3 .7 1.7 1.4-.6 2.5-1.5 2.5-2 0-1.1-1.1-1-3.2.3M466.6 702.2c-7.1.5-13.2 1-13.4 1.3-1.4 1.4 1.5 1.6 9.5.6 4.8-.6 11.2-1.1 14.1-1.1 2.8 0 5.2-.4 5.2-.8 0-.5-.6-.8-1.2-.8-.7 0-7.1.4-14.2.8"/><path d="M416.5 703c-12.8 1-21 4.1-27.7 10.5-3.2 3.1-5.8 5.8-5.8 6.2s1-.3 2.3-1.5c2.8-2.7 4.1-2.8 2.8-.4-4 7.4 12.7 14.8 25.6 11.3 8.9-2.4 10.9-7.5 6.2-15.6-2.8-4.8-3.2-5.2-8.4-6.7-4-1.1-4-1.1-1-1.9 1.7-.3 6.3-.7 10.3-.8 4 0 7.2-.5 7.2-1.1s-.8-.9-1.7-.8c-1 .1-5.4.4-9.8.8m-2.8 6.2c4.1 2 5.1 4.3 2.9 6.7-2.1 2.3-1.5 2.7 1.4 1.1 1.5-.8 1.9-.5 2.4 1.6 1 4-.1 6-4.4 7.9-7.5 3.4-22.9.8-26.2-4.5-1.4-2.2.9-7.7 2.4-6.2.7.7 1.6 1.2 2.2 1.2s.5-.5-.2-1.2c-2.3-2.3-1.3-4.6 3.1-6.7 4.6-2.3 11.5-2.3 16.4.1M618.9 705c-3.1 2.5-1.2 2.6 2.1 0 1.4-1.1 2-2 1.4-2-.7 0-2.2.9-3.5 2M608 711c-1.7 1.3-2 2-1 2 .8 0 2.6-.9 4-2 1.7-1.3 2-2 1-2-.8 0-2.6.9-4 2M164.1 716.3c2 1.4 5.1 3.4 7 4.5s7.1 4.2 11.7 7.1c4.6 2.8 8.6 5.1 8.8 5.1.3 0 2.5 1.3 4.9 3 2.4 1.6 4.7 3 5 3 .4 0 1.9.8 3.3 1.9 1.5 1 4.3 2.8 6.2 3.9s9.6 5.7 17 10.2c22 13.5 49.3 30.1 52.7 32.1 1.7 1 5.1 3 7.5 4.6 2.4 1.5 5.2 3.3 6.3 3.9s5.8 3.5 10.5 6.4c27.2 16.9 28 17.3 28 16.3 0-.4-4.2-3.3-9.3-6.4-5-3.1-16.4-10-25.2-15.4s-16.9-10.3-18-10.9-3.9-2.4-6.2-3.9c-2.4-1.5-4.7-2.7-5.2-2.7s-1.1-.3-1.3-.8c-.3-.7-14.2-9.3-29.7-18.4-4.6-2.7-9.6-5.7-11-6.7s-4.2-2.8-6.1-3.8c-1.9-1.1-8.9-5.3-15.5-9.3-6.6-4.1-15.6-9.5-20-12-4.4-2.6-11.1-6.6-14.8-8.9-7.9-4.9-11.9-6.5-6.6-2.8M565 716.9c-9.4 5.9-27.1 16.1-28 16.1-.6 0-1 .3-1 .8 0 .4-2.1 1.8-4.7 3.2-2.7 1.4-7.7 4.2-11.2 6.3-3.5 2.2-7.9 4.7-9.7 5.8-1.9 1-4.9 2.8-6.8 3.8-1.8 1-6.6 3.9-10.7 6.4-4.1 2.4-9.4 5.5-11.9 6.9-4.7 2.7-22 12.7-37.5 21.8-10.3 6-14.2 8.2-18.7 10.9-1.8 1-7.3 4.2-12.3 7.1-10.2 6-14.3 8.3-20 11.3-2.2 1.2-4.4 2.6-5 3-.5.5-4.3 2.6-8.3 4.9-4.1 2.2-7.1 4.2-6.8 4.5s2.4-.6 4.8-1.9c2.4-1.4 13.1-7.6 23.8-13.8s22-12.6 25-14.3c3-1.6 6-3.3 6.5-3.8.6-.4 6.5-3.9 13.3-7.8 6.7-3.9 17.6-10.3 24.3-14.1 6.6-3.9 12.3-7 12.5-7s2.8-1.5 5.7-3.4c2.8-1.8 9.7-5.9 15.2-9.1s11.2-6.6 12.7-7.6c1.5-1.1 3-1.9 3.3-1.9s3.8-2 7.8-4.4c8.4-5.1 24.8-14.6 32.8-19 7.5-4.2 10.5-6.3 9.9-6.9-.3-.3-2.6.7-5 2.2M597 717.5c-1.9 1.4-3.1 2.5-2.7 2.5 1.1 0 8.7-4 8.7-4.5 0-1.3-2.9-.3-6 2M496.5 721c1.7 1.1 3.5 2 4 2 1.6-.1-3.8-4-5.5-4-.8 0-.1.9 1.5 2M446.4 724.1c-2.7 3.1-12.3 10.3-16.3 12.4-8.9 4.5-17.4 6.6-27.1 6.6-5.6-.1-11.2-.7-13.5-1.5-3.8-1.3-5.6-1.3-4.2 0 1.3 1.4 12.5 3.4 18.7 3.4 10.4 0 21.4-3.6 31.5-10.4 6.8-4.5 14.2-11.2 13.4-12-.3-.4-1.4.3-2.5 1.5M572.7 732.1c-2.2 1.1-3.7 2.2-3.5 2.4.6.6 7.8-2.8 7.8-3.7 0-1 .2-1.1-4.3 1.3M645.9 732.6c-.8 7.8-.5 21.6.4 21.9.7.2 18.4.6 39.5.8l38.2.6V733h-9.2c-5.1 0-22.7-.3-39-.7-17.1-.3-29.8-.2-29.9.3m46.9 2.3 29.2.1v18h-37c-20.3 0-37-.3-37.1-.8-.1-1.2-.1-12.5 0-15.5.1-2.7.1-2.7 7.9-2.3 4.2.3 20.9.5 37 .5"/><path d="M652.4 738.4c-1 .8-1.6 1.8-1.2 2.2s1.5.1 2.3-.6c1.3-1 1.8-1.1 2.8-.1.9 1 .8 1.5-.5 2.5-1.5 1.1-1.5 1.3.4 2.5s1.9 1.4.5 2.9c-1.5 1.4-1.8 1.4-3.8-.4-2.1-1.9-2.1-1.9-1.8.1.6 2.8 6.4 3.4 7.8.8.5-1.1.6-2.5.2-3.2-.5-.7-.6-2.2-.3-3.4.3-1.3-.2-2.5-1.3-3.3-2.3-1.7-2.7-1.7-5.1 0M663.6 740.6c-3.1 4.6-3.3 6.4-.6 6.4 1 0 2.3.7 2.8 1.6 1.4 2.6 2.6-.2 2.3-5.5-.3-6.3-1.5-6.9-4.5-2.5m2.4 2.9c0 .8-.7 1.5-1.5 1.5-.9 0-1.2-.6-.9-1.5.4-.8 1-1.5 1.5-1.5s.9.7.9 1.5M686.6 737.9c-.8 1.3.9 2.2 2.7 1.5 2.5-.9 2.9 1.3.7 4.8-2.1 3.5-2.6 6.8-1 6.8.6 0 1-.7 1-1.5s1.2-3.5 2.6-6.1c1.4-2.5 2.4-4.7 2.2-4.9-1.1-.9-7.7-1.4-8.2-.6M710.1 738.7c-1.1 2.2-4.1 10.4-4.1 11.5 0 1.7 1.8.7 2.3-1.2.3-1.3 1.4-2 3-2s2.6.7 3 2c.5 2 2.7 2.8 2.7 1 0-1.4-4-11.4-5-12.4-.4-.4-1.3.1-1.9 1.1m2.9 5.5c0 .5-.7.8-1.5.8-1.7 0-1.8-.2-.9-2.5.5-1.3.8-1.4 1.5-.3.5.7.9 1.6.9 2M678.4 739.4c-1.8 1.4-1.8 1.5-.1 2.1 1.2.5 1.7 1.8 1.7 4.5 0 2.2.5 4.2 1 4.5.6.4 1-1.8 1-5.9 0-6.9-.4-7.5-3.6-5.2M697 739.9c-1.4 2.7-1.2 7.2.4 9.3 3.2 4.2 8.2.1 7.3-5.8-.9-5.4-5.5-7.5-7.7-3.5m5 4.6c0 4.8-2.3 6.4-3.5 2.4-.9-2.9.2-6.9 2-6.9 1.1 0 1.5 1.2 1.5 4.5M671.5 744.9c-.7 1.2 1.2 2.4 2.5 1.6 1.1-.7.4-2.5-1-2.5-.5 0-1.1.4-1.5.9M560.5 739.1c-4 2.5-1.5 2.5 2.7-.1 1.8-1.1 2.6-2 1.8-1.9-.8 0-2.8.9-4.5 2M158 739.3c.8.8 13.2 9.2 27.5 18.8 14.3 9.5 26.5 17.7 27 18.1.6.5 4.2 3.2 8 6 8 6 9.6 7.5 14.5 13.8 1.9 2.5 3.8 4.9 4.3 5.5.4.5 5.1 7.1 10.3 14.5s11.2 15.2 13.2 17.3 10.7 9.1 19.2 15.4c8.5 6.4 16.1 12.1 16.8 12.6q1.2.9 1.2 0c0-.6-2.8-3-6.1-5.4-3.4-2.4-6.6-4.9-7.3-5.4-.6-.6-2.7-2.2-4.6-3.5s-3.7-2.7-4-3-3-2.4-6.1-4.7c-6.8-5.2-12.1-11-17.4-18.7-2.2-3.3-4.4-6.4-5-7-.5-.6-3-4-5.4-7.6-12.9-18.8-16.3-21.6-62.1-52-9.1-6-17-11.3-17.6-11.9-.6-.5-2.6-1.7-4.5-2.6-2.6-1.3-3-1.4-1.9-.2M551.8 744c-5.4 2.9-5.7 4.4-.4 1.8 2.5-1.2 4.6-2.6 4.6-3 0-1 .2-1.1-4.2 1.2M539.1 751.1c-1.8 1.1-3.1 2.3-2.8 2.6.6.5 7.7-3.4 7.7-4.3s-1.6-.3-4.9 1.7M527.8 753.4c-1 .7-1.8 1.7-1.8 2.2 0 .4.5.3 1.2-.4s2-1.2 3.1-1.2c1 0 1.5-.5 1.2-1-.8-1.3-1.6-1.2-3.7.4M533 756c0 .7.3 1 .7.7.3-.4.3-1 0-1.4-.4-.3-.7 0-.7.7M520 757c0 .7.3 1 .7.7.3-.4.3-1 0-1.4-.4-.3-.7 0-.7.7M523 756.5c0 .3.2.5.5.5s.5-.2.5-.5-.2-.5-.5-.5-.5.2-.5.5M532.5 759c-.3.5-.1 1 .4 1 .6 0 1.1-.5 1.1-1 0-.6-.2-1-.4-1-.3 0-.8.4-1.1 1M523 759.5c0 .3.2.5.5.5s.5-.2.5-.5-.2-.5-.5-.5-.5.2-.5.5M512 762c0 .5.5 1 1 1 .6 0 1-.5 1-1 0-.6-.4-1-1-1-.5 0-1 .4-1 1M524.4 762.6c.3.9.6 2 .6 2.5 0 1.7 1.8.9 2.3-1 .3-1.2-.1-2.2-1-2.5-2.2-.9-2.6-.7-1.9 1M529 761.5c0 .3.2.5.5.5s.5-.2.5-.5-.2-.5-.5-.5-.5.2-.5.5M521 765c0 .5.5 1 1.1 1 .5 0 .7-.5.4-1-.3-.6-.8-1-1.1-1-.2 0-.4.4-.4 1M513 765.5c0 .3.2.5.5.5s.5-.2.5-.5-.2-.5-.5-.5-.5.2-.5.5M515 768c0 .7.3 1 .7.7.3-.4.3-1 0-1.4-.4-.3-.7 0-.7.7M523.3 768.1c-2.5.9-3.1 2.9-.9 2.9 1.4 0 4.2-2.7 3.5-3.4-.2-.2-1.4 0-2.6.5M624.8 769.8c-2.7 1.5-4.8 3-4.8 3.4 0 1 2.9-.1 6.2-2.4 3-2.1 5.4-2.3 6.2-.6.3.7.5.4.3-.7-.3-2.9-2.6-2.8-7.9.3M517.5 771c.3.5 1 1 1.6 1 .5 0 .9-.5.9-1 0-.6-.7-1-1.6-1-.8 0-1.2.4-.9 1M632.7 774.7c-1.1 1-.8 12.1.3 12.8.6.4 1-2 1-6.4 0-7.1-.1-7.7-1.3-6.4M528.5 776c-.3.5.7.8 2.5.7 1.6-.1 3-.5 3-1 0-1.1-4.8-.9-5.5.3M525.5 778c-.3.5-.1 1 .4 1 .6 0 1.1-.5 1.1-1 0-.6-.2-1-.4-1-.3 0-.8.4-1.1 1M515.7 779.1c-1.8 1-1.8 1.1 0 2.5 2.4 1.8 3.9 1.8 2.3-.1-1-1.2-.9-1.5.4-1.5 1 0 1.4-.5 1.1-1-.8-1.2-1.5-1.2-3.8.1M521.7 779.6c-.7.8 1.4 5.4 2.5 5.4.5 0 .5-.8 0-1.8-.5-.9-.7-2.3-.5-3 .5-1.2-.9-1.7-2-.6M533.5 781.1c-.4.6-.5 1.3-.2 1.6.7.7 2.7-.6 2.7-1.8s-1.7-1.2-2.5.2M512 783.5c0 .3.2.5.5.5s.5-.2.5-.5-.2-.5-.5-.5-.5.2-.5.5M530 784.1c0 .5.5.7 1 .4.6-.3 1-.8 1-1.1 0-.2-.4-.4-1-.4-.5 0-1 .5-1 1.1M512.1 786.6c0 1.1.3 1.4.6.6.3-.7.2-1.6-.1-1.9-.3-.4-.6.2-.5 1.3M520 786.4c0 .8.5 1.8 1 2.1.6.3 1-.1 1-.9s-.4-1.8-1-2.1c-.5-.3-1 .1-1 .9M525.2 786.2c-.7.7-1.2 2-1.2 3 0 1.1-.7 1.8-2 1.8-1.1 0-2 .4-2 .9s-.8 1.2-1.7 1.4c-1.7.4-1.7.5 0 .6 2.9.2 5.3-1.6 7.6-5.4 2-3.4 1.7-4.7-.7-2.3M514 791c0 .7.3 1 .7.7.3-.4.3-1 0-1.4-.4-.3-.7 0-.7.7M630.6 792.8c-.4 1-2.2 2.6-4.2 3.6-4.3 2-4 3.3.2 1.4 4.4-1.9 8.3-6.8 5.5-6.8-.5 0-1.2.8-1.5 1.8M580.2 795c-2.3 1.7-4.2 3.7-4.2 4.6 0 1.1.8.8 2.8-1.4 1.5-1.6 3.7-3.2 5-3.6 1.2-.4 2.2-1.2 2.2-1.7 0-1.6-1.5-1-5.8 2.1M670.1 799.2c-1.1 3.1-.2 5.8 2 5.8 1.1 0 1.9.6 1.9 1.3 0 2.1-1.2 2.8-2.7 1.6-1-.9-1.3-.8-1.3.5s.7 1.6 2.7 1.4c3.4-.4 5.1-5.5 3.2-9.9-1.4-3.5-4.6-3.9-5.8-.7m3.9 1.8c0 1.1-.4 2-1 2-.5 0-1-.9-1-2s.5-2 1-2c.6 0 1 .9 1 2M679.5 799c-1 3 .4 6 2.7 6 1.1 0 1.8.5 1.5 1.2-.2.7-1.4 1.2-2.6 1.1-2.4-.3-2.8.9-.8 2.5 1 .9 1.9.7 3.5-.4 1.7-1.1 2.2-2.5 2.2-5.8 0-2.3-.5-4.7-1.2-5.4-1.8-1.8-4.6-1.4-5.3.8m3.5 2.2c0 1.6-.3 1.9-1.1 1.1-.6-.6-.8-1.6-.5-2.2 1.1-1.7 1.6-1.3 1.6 1.1M688.8 799.5c-1.2 2.7.2 5.5 2.9 5.5.8 0 1.3.6 1 1.2-.2.7-1.2 1.2-2.1 1.2-.9-.1-1.6.4-1.6 1.2s1 1.4 2.5 1.4c4 0 5.7-5.2 3.3-10.5-1.4-3.2-4.5-3.2-6 0m4.2 2.1c0 .8-.4 1.4-1 1.4-.5 0-1-.9-1-2.1 0-1.1.5-1.7 1-1.4.6.3 1 1.3 1 2.1M708 799c-1.5 2.9-.8 9.1 1.1 10.3 3.1 2 4.9.1 4.9-5.1 0-6.7-3.6-9.8-6-5.2m4 5.1c0 2.1-.4 3.9-1 3.9-.5 0-1-2.1-1-4.6 0-2.7.4-4.3 1-3.9.6.3 1 2.4 1 4.6M736.6 799.2c-.9 1.2-1.6 3.4-1.6 4.9 0 3.6 3 7.2 5.2 6.4 3.6-1.4 3.2-12.6-.4-13.3-.9-.2-2.3.7-3.2 2m3.4 4.9c0 2.1-.4 3.9-1 3.9-.5 0-1-2.1-1-4.6 0-2.7.4-4.3 1-3.9.6.3 1 2.4 1 4.6M746.2 798.2c-2.7 2.7-.7 12.8 2.7 12.8 1.8 0 3.1-2.8 3.1-7 0-4.5-1.3-7-3.5-7-.6 0-1.6.5-2.3 1.2m3.8 6.5c0 1.8-.4 3.3-.9 3.3-1.4 0-2.1-2.8-1.4-6.1.7-3.8 2.3-1.9 2.3 2.8M755 799.6c-2.1 5.4-.1 11.4 3.8 11.4 1.7 0 3.2-3.4 3.2-7.2-.1-6.2-5.1-9.3-7-4.2m4 4.4c0 2.2-.4 4-1 4-.5 0-1-1.8-1-4s.5-4 1-4c.6 0 1 1.8 1 4M700 801.2c-2.5 4.1-2.5 5.7-.2 6.5.9.4 2.1 1.3 2.6 2.1 1.9 3.2 3.4-4 2-9.6-.9-3-2.1-2.8-4.4 1m2 3.3c0 .8-.4 1.5-1 1.5-.5 0-.7-.7-.4-1.5.4-.8.8-1.5 1-1.5s.4.7.4 1.5M728.1 798.9c-1.1.7-1.2 1.3-.4 2.3.7.7 1.3 3.1 1.5 5.3s.8 4 1.3 4c1.2 0 1.9-6.8 1.1-10.2-.7-2.5-1.3-2.8-3.5-1.4M616.5 801.6c-1.6.9-4.3 2.2-5.8 3.1-1.6.8-2.7 1.7-2.4 1.9.6.7 11.7-4.8 11.7-5.8s0-1-3.5.8M575 810.3c0 4.3.4 6.6 1 6.2 1.3-.8 1.3-9.5 0-11.5-.7-1-1 .5-1 5.3M718 805c0 1.2 1.7 1.2 4.5 0 1.7-.7 1.5-.9-1.2-.9-1.8-.1-3.3.3-3.3.9M270.2 807.6c-4.9 3.4-1.3 16.7 5.9 21.8 3.4 2.4 8.5 2.1 10.3-.6 1.8-2.6 2-3.8.6-3.8-.5 0-1 .7-1 1.5 0 2.8-4.3 3.9-7.9 2.1-8.4-4.4-12.1-20.6-4.6-20.6 1.4 0 2.5-.5 2.5-1 0-1.5-3.3-1.2-5.8.6M596.8 812.1c-3.2 1.6-5.8 3.2-5.8 3.5 0 .9 4.3-.7 7.2-2.7 3.4-2.5 3.5-2.5 4.2 1.6.4 2 1 3.4 1.4 3.1.9-.5.3-8.6-.7-8.6-.3.1-3.2 1.4-6.3 3.1M714.9 816.7c-.1 2.1-.1 4.6 0 5.5.2 1.6-3.3 6.1-10.4 13.3-1.6 1.7-5.3 5.7-8.2 8.9-5.2 5.9-5.2 5.9-7.9 4.1-2.3-1.5-3.2-1.6-6.8-.5-6 1.7-7 2.4-8 5.2-1.7 4.9 5.1 14.8 10.3 14.8.5 0 2.2-1.1 3.7-2.5s3.1-2.5 3.5-2.5c2 0 3-4.1 1.9-7.6-1-3-.9-3.7.7-5.2 1-.9 3.3-3.5 5.2-5.7s6.7-7.5 10.7-11.8c7.4-7.8 7.4-7.8 7.4-13.7 0-6.5-1.9-8.5-2.1-2.3M685 849.4c0 .3-.4.8-1 1.1-.5.3-1 .1-1-.4 0-.6.5-1.1 1-1.1.6 0 1 .2 1 .4m-2.4 4.3c3.9 4.2 4.7 11.4 1.3 12.1-2.1.4-7.9-4.5-7.9-6.6.1-1.2.5-.9 1.5.9 1.5 2.8 4 4.3 5.6 3.3 1.6-.9 1-5-1.1-7.2-2.5-2.6-2.8-2.7-5.2-.5-1.6 1.4-1.8 1.4-1.8 0 0-5.2 3.7-6.2 7.6-2m7.4-.6c1.3 2.4.7 4.9-1.2 4.9-1.5 0-4.9-5.5-4-6.4 1.2-1.3 4.2-.5 5.2 1.5m-9.2 4.1c.7.7 1.2 2.1 1.2 3.2 0 1.8-.1 1.9-2 .1-2-1.8-2.7-4.5-1.2-4.5.4 0 1.3.5 2 1.2M691 860c0 .5-.7 1-1.6 1-.8 0-1.2-.5-.9-1 .3-.6 1-1 1.6-1 .5 0 .9.4.9 1M583.5 819.2c-1.7 1.1-3.9 1.6-5.2 1.3-2.5-.6-3.2 1.2-.9 2.1 1.6.6 11.3-4 10-4.8-.5-.3-2.2.3-3.9 1.4M621.2 822.5c-1.8.8-4.6 2.3-6 3.4-1.5 1.1-4.1 2.1-5.7 2.3-2.6.4-2.8.5-1.1 1.3 1.3.6 2.9.3 5-1 8.4-4.9 9.9-5.5 12.7-5.5 2.5 0 8.6 3.6 11.9 7 .3.3 4 3.1 8.2 6.3s7.9 6.5 8.2 7.4c.8 1.9-.4 23.3-1.3 25.1-.7 1.3-3.3-.5-12.8-9.2-4.1-3.7-4.3-4.1-4.3-9.5 0-6.7-1.6-13-3.5-13.7-1.2-.5-11.3 4-12.5 5.5-.3.3-2.3 1.6-4.6 2.8-4.1 2.2-4.1 2.2-6.3.2-1.2-1.2-2.5-1.9-2.8-1.6s2.3 3.2 5.7 6.4l6.3 5.8-.6 13c-.6 12.8-.6 13.1 1.8 15.7 1.3 1.6 2.7 2.8 3 2.8.7 0-1.1-3.5-2.8-5.2-1-1-1.1-3.5-.3-11.4 1.1-11.7.6-14.2-3.4-18.8-2.3-2.6-2.7-3.6-1.7-4.3 3-2.4 15.7-9.3 17-9.3 1.9 0 2.7 3.1 2.7 11.2 0 6.7 0 6.7 8.6 14.3 4.8 4.1 9 7.5 9.5 7.5.4 0 .9.9 1.1 2 .3 1.8.6 1.7 5.6-1.2 6.1-3.5 6.4-4.9.3-1.9-4.9 2.6-5.4 2.6-4.3.3.5-.9 1.2-7.1 1.6-13.7.7-14.4 1.3-13.4-14.4-25.2-14.8-11.3-15-11.3-20.8-8.8M353.2 822.9c.1.6 2.7 2.8 5.7 5.1 5.2 3.8 9.1 5.1 9.1 3 0-.6-.8-1-1.8-1s-4.5-1.8-7.6-4c-3.2-2.3-5.6-3.6-5.4-3.1M603 829c0 4 .4 7 1 7s1-3 1-7-.4-7-1-7-1 3-1 7M555.6 826.9c3.7 3.5 25.7 18.1 27.1 18.1 2.2 0 16-4.4 17-5.3 1.2-1.2-2.1-.7-8.1 1.3-3.3 1.1-7.1 2-8.5 2-2.1 0-14.2-7.5-20.6-12.7-3.5-2.8-9.6-5.8-6.9-3.4M603.6 840.6c-.8 2.2-.6 8.5.4 10.9.6 1.4.9-.3.9-5.3.1-7.3-.2-8.5-1.3-5.6M604.1 862.3c-.1 5 .3 7.6.9 7.2 1.2-.7 1.2-8.9 0-12.5-.6-1.7-.8-.1-.9 5.3M670 863.7c-4.3 2.1-4.5 2.2-3.8 2.8.7.8 7.8-2.6 7.8-3.7 0-1 .1-1.1-4 .9M345 870.6c-2.3 5.3-5.4 17.4-4.6 18.1.2.2 1.2-2.2 2.1-5.4s2.5-8.2 3.7-11.1c2.6-6.7 1.6-8.1-1.2-1.6M604 880.5c0 3.7.4 6.5 1 6.5s1-2.8 1-6.5-.4-6.5-1-6.5-1 2.8-1 6.5"/><path d="M643.2 878.7c-3.5 1.9-6.1 3.8-5.8 4 .7.7 12.6-5.8 12.6-6.8 0-1.2.4-1.3-6.8 2.8M608.8 884.4c-3.7 3.9-4.8 5.9-4.8 8.7 0 2.9-.1 3-2.2 1.5-3.5-2.5-8.7-2.1-9.7.6-1.5 4.2-2.2 9.8-1.2 9.8.5 0 1.3-2 1.6-4.5.8-5.3 2.4-6.8 5.9-5.9 4.2 1 7.9 6.7 8.4 12.8.3 3.3 0 5.6-.7 6-.6.4-3.5-.7-6.6-2.4-3-1.7-5.5-2.6-5.5-2.1 0 1.5 12.1 7.3 13.8 6.6 1.2-.4 1.4-2 1-7.4l-.5-6.9 5.6 3.1c3.1 1.6 6.1 3.4 6.8 3.9 1.6 1.3 2.4-.5 3-7.1.7-7.8-2.9-14.7-9.1-17.1-3.6-1.3-4.2-1.3-5.8.4m9.6 4.8c3.2 3.7 3.6 4.8 3.6 9.9 0 3.2-.4 6.1-1 6.4-.5.3-4-1.1-7.6-3.1-6.6-3.7-6.6-3.7-5.9-9.3.4-3.1 1.2-6.2 1.7-6.9 2-2.4 5.6-1.3 9.2 3"/><path d="M612 891c-1 1.9-1 2 .9.8 1.8-1.1 2.3-1 3.5.7 2.2 2.8 1.9 4.3-.6 4.8-2.1.3-2.1.4-.5 1.2 1.2.5 2.4.2 3.4-.8 1.4-1.4 1.4-1.9-.4-4.9-2.3-4-4.8-4.7-6.3-1.8M629.2 886.1c-2.8 1.7-5.2 3.5-5.2 4 0 .4 2.4-.5 5.3-2.2 5.9-3.5 6.2-3.7 5.6-4.3-.2-.3-2.8.9-5.7 2.5M627.9 894.7c1.1 1.6 3.2 4.1 4.7 5.8 2.1 2.4 15.8 18.9 21.1 25.5 11.5 14.3 18.3 23.5 18.3 24.9 0 1.7 11.6 12.8 12.5 12 .6-.6-2.8-4.2-6.8-7.2-2-1.5-3.7-3.7-3.7-4.7 0-1.4-9.8-15-13-18-.4-.4-11.6-14.3-15.3-19-.7-.8-3.2-4-5.7-7s-5-6.2-5.7-7c-4.3-5.5-6.6-8-7.5-8-.5 0 0 1.2 1.1 2.7M335.8 898.8c-.2.6-8.9 8-14.8 12.5-9.9 7.7-18.8 15.7-17.4 15.7.5 0 1.9-.8 3-1.8 1-.9 4.4-3.7 7.4-6.2s5.7-4.7 6-5 2.5-2.1 5-4 5.4-4.3 6.5-5.2 3.1-2.5 4.4-3.6c1.5-1.2 2-2.1 1.3-2.5-.5-.4-1.2-.4-1.4.1M596.5 899.6c-1.2 1.2-1.3 1.9-.5 2.9.9 1.1.2 1.9-3.2 3.6-2.4 1.2-3.8 2.4-3.2 2.6s3.3-.9 6-2.4c3.4-1.9 4.4-2.9 3.2-3.1-2.1-.4-2.3-1.7-.6-2.8 1.2-.8 3.8 2.1 3.8 4.3 0 .7-1 1.3-2.2 1.3-2 .1-2.1.2-.6 1 3.6 2.2 6-1 3.8-5-1.7-3.2-4.6-4.3-6.5-2.4M580.7 912.7c-2.6 1.5-4.7 3-4.7 3.4 0 .5 2.1-.3 4.8-1.8 5.5-3 5.7-3.2 5.1-3.7-.2-.3-2.6.7-5.2 2.1M568.8 919.4c-3.6 1.9-7.4 4.6-6.5 4.6 1.4 0 9.7-4.4 9.7-5.2 0-1 0-1-3.2.6M596.2 922.9c-7.7 2.2-13.3 6.5-14.9 11.4-1.3 3.9-.5 8.7 2.1 11.2 1.5 1.5 12.9 8.8 24.7 15.7l6.6 3.9 12.4-7.7c18.8-11.6 22.9-14.3 22.9-15.2 0-.7-5.8-4.4-14-9-1.9-1-5.8-3.3-8.7-5-11.2-6.6-21-8.3-31.1-5.3m18.6 1.3c2.6.6 6.1 1.9 7.7 2.8 11.3 6.4 23.2 13.4 24.3 14.3 1.2.9-3 4.2-13.9 10.6-1.3.8-5.9 3.6-10.2 6.3-7.8 4.8-7.8 4.8-12 2.7-2.3-1.2-6.1-3.5-8.4-5-2.3-1.6-4.6-2.9-5.2-2.9s-1.1-.3-1.1-.8c0-.4-2-1.8-4.6-3.1-5.5-3-9.4-7.4-9.4-10.7 0-10.7 17.2-18.1 32.8-14.2"/><path d="M599 926.2c-5.9 1.3-13 6.2-13.1 9.1-.2 4 .3 6.2 1.8 7.9 2.1 2.3 24.6 15.8 26.4 15.8.8 0 3-1 4.9-2.2 1.9-1.1 5.5-3.2 8-4.6 7.4-4.2 15-9.2 15-10s-2.1-2.2-8.9-5.9c-2.5-1.4-7.1-4.1-10.1-5.9-3.1-1.9-8.1-3.7-11.4-4.3-6.7-1.2-6.5-1.2-12.6.1m15.1 2.1c5.4 1.4 25.1 12.7 24.6 14.2-.4 1-15.2 10.5-16.5 10.5-.4 0-1.8.9-3.2 2s-3.4 2-4.6 2c-2 0-10.2-4.5-21.1-11.7-9.9-6.4-8-13.5 4.5-16.9 5.8-1.6 10.3-1.6 16.3-.1M553.7 927.5c-3.4 2-7.7 5.5-5.2 4.3.6-.2 2.7-1.2 4.7-2.2 3.4-1.5 5.5-3.3 4.7-4-.2-.1-2.1.7-4.2 1.9M538.5 936.1c-2.7 1.6-5.4 3-6 3.2-.5.2-.7.7-.4 1.1.4.4 3.1-.7 6-2.5 6.1-3.5 6.4-3.8 5.8-4.3-.2-.2-2.6.9-5.4 2.5M290.9 938.3c-3.5 4.3-5.1 7.6-4.6 9 .3.7.9.1 1.5-1.3.5-1.4 2.4-4.2 4.1-6.4 3.3-4.1 3.5-4.6 2.4-4.6-.5 0-2 1.5-3.4 3.3M522.2 945.1c-3 1.7-5.2 3.3-4.9 3.6.7.6 10.7-4.9 10.7-6 0-1 .1-1-5.8 2.4M412.4 946.5c.8 2.2-2.1 4.5-5.9 4.5-4.6 0-6.5-.9-6.5-3.1 0-1-.5-1.9-1.1-1.9s-.9 1-.7 2.2c.2 1.7 1.5 2.7 4.5 3.8 3.8 1.3 4.6 1.2 7.8-.3 2.6-1.3 3.5-2.3 3.5-4.2 0-1.4-.5-2.5-1.1-2.5s-.9.7-.5 1.5M426.6 952.1c-1.8 2.6-.8 5.2 2.6 7 3.3 1.8 13.5.7 15.3-1.7 1.6-2.1 1.6-5.5-.1-6.1-.6-.2-.9.7-.6 2.5.3 2.3-.1 3-2.3 4-6.9 3.2-17.1-1-13.4-5.5.7-.7.9-1.6.6-1.9s-1.2.5-2.1 1.7M508.5 952.7c-5.8 2.9-6 3.1-5.3 3.8.6.6 9.5-4.2 10.3-5.6.8-1.2.7-1.2-5 1.8M683.3 954.7c-.7.2-1.3 1-1.3 1.6 0 .8.4.7 1.2-.1 2.8-2.8 10 .1 16 6.4 6.2 6.7 9.7 19.9 6.8 25.5-.6 1-3.6 3.3-6.8 4.9-3.1 1.7-8.8 4.8-12.7 7-3.8 2.2-7.3 4-7.7 4-.3 0-.4-1.9-.1-4.3.3-3.1.2-3.8-.6-2.7-.6.8-1.1 2.7-1.1 4.2 0 3.7-3.3 6.8-7 6.8-9.5 0-20-13.6-20-25.6.1-6.3 1.3-8.8 5.1-10.3 2.3-.9 2.3-1 .2-1-2.5-.1-7.3 5.1-7.3 8 0 1.4-.7 1.9-2.6 1.9-2.5 0-8.7 2.8-17.6 7.9-2.1 1.1-5.5 3.1-7.5 4.2-2.1 1.2-5 3-6.5 4-1.4 1.1-4 1.9-5.7 1.9s-3.1.4-3.1 1c0 .5 1.5 1 3.4 1 5.7 0 12.2 6.1 16.7 15.7 3.8 8.1 3.9 13.5.3 16.8-2.4 2.3-26.6 16.5-28 16.5-.3 0-.4-.7 0-1.5 1-2.7-.8-1.6-2.6 1.5-1.4 2.5-2.3 3-5.4 3-5.3 0-10.5-3.4-14.4-9.3-4.6-7-6.3-12.3-5.7-17.9.6-6.5 2.1-8.1 7.1-7.6 2.3.3 4.9.8 5.9 1.2 1 .5 1.7.4 1.7-.2s-1.6-1.6-3.6-2.2c-3.6-1.2-7.9-.7-10.1 1.2-2.2 1.8-3.4 8.3-2.4 13 .6 2.3.9 4.4.7 4.5-.2.3-13.1-4.1-49.1-16.9-17-6-35.1-12.3-42.5-14.8-3-1-11.2-3.9-18.2-6.4-7.1-2.5-12.8-4.2-12.8-3.8 0 .7 10.8 4.7 44.5 16.2 9.4 3.2 22.2 7.7 28.5 10s13.3 4.7 15.5 5.4 10.1 3.6 17.5 6.3c7.4 2.8 14.5 5.4 15.7 5.8 2.1.6 6.9 7.3 5.9 8.2-.4.4-13.1-3.6-22.3-7.1-2.1-.8-11.7-4.2-21.3-7.6-9.6-3.3-18.4-6.5-19.5-7s-5.4-2-9.5-3.4c-14.3-4.8-28.5-9.7-30.5-10.6-1.1-.4-5.4-2-9.5-3.4-4.1-1.3-11.3-3.9-15.9-5.5-9.2-3.4-10-3.6-8.5-2.1.9.9 20.8 8.1 38.9 14.1 3.3 1.1 6.9 2.4 8 2.9s8.3 3 16 5.6 15.4 5.3 17 6c1.7.7 6.4 2.4 10.5 3.8s12.5 4.4 18.5 6.6c13.2 4.9 27.2 9.9 30 10.7 1.1.4 3.9 1.9 6.2 3.5 5.6 3.8 8.7 3.5 17.3-1.2 4-2.2 7.4-4 7.5-4 .2 0 3.4-1.9 7.1-4.1 3.8-2.3 8.3-4.8 10.2-5.6 2.3-.9 3.8-2.6 4.9-5.1 3.5-8.3-4-24.3-14.6-31.2-2.3-1.6-2.2-1.7 8.4-7.5 17.5-9.8 18.9-10.4 22-10.5 2.8 0 3.1.4 4.7 5.9 3.1 10.4 12.3 20.1 19.5 20.4 3.2.1 6.6-1.4 18.7-8.1 8.2-4.5 15.2-8.2 15.5-8.2.4 0 1.8-1.2 3.2-2.6 2.1-2.2 2.4-3.5 2.3-9.2-.2-10.1-5.5-19-15.4-25.6-2.3-1.5-7.1-2-9.7-.9M493 961.5c-1.9 1.4-3.1 2.5-2.7 2.5 1.1 0 8.7-3.9 8.7-4.5 0-1.2-2.8-.2-6 2M478.6 963.6c-2.3 2.3-2 3 .4.9 1.1-1 2-2 2-2.2 0-.7-.9-.2-2.4 1.3M421 963.4c0 .3 6.6 2.6 14.8 5.1 8.1 2.6 17.1 5.5 20 6.6 6 2.2 6.5 2.3 5.7.9-.3-.5-3.8-1.9-7.8-3.1-4-1.1-12.4-3.9-18.9-6-11.1-3.7-13.8-4.4-13.8-3.5"/><path d="M640 964.4c-4.8 1.4-11.8 4.9-24.6 12.4-11.5 6.7-11.9 7-11.4 7.6.3.3 4.2-1.6 8.5-4.3 4.4-2.6 10.7-6.2 14-8s6.5-3.6 7-4.1c2.4-1.8 12.2-3.2 19.4-2.7 7 .4 7.3.4 4.6-.9-3.7-1.6-11.5-1.6-17.5 0M480.8 968c-3.4 1.8-5.8 4-4.3 4 .7 0 7.3-3.4 9.5-4.9 2.8-1.9-1.1-1.2-5.2.9M493.9 969.3c-1.4 1.8-2.6 2.2-6.8 2.1-2.8 0-5.1.3-5.1.8 0 1.2 8.8 1 11.3-.3 2.2-1.2 3.7-2.8 3.7-4.2s-1.5-.6-3.1 1.6M466.2 976.3c-2.9 1.6-5.1 3.1-4.9 3.4.7.6 9.4-3.4 10.2-4.8 1.2-1.9.1-1.6-5.3 1.4M535.7 975.8c-1 1-1.7 3-1.7 4.3 0 3.2 6.5 6.9 12.1 6.9 7.4 0 13.2-4.8 10.9-9-1.5-2.8-2-2.5-1.4.9.5 2.2.1 3.2-1.7 4.5-2.8 1.9-11.6 2.2-15.4.4-3-1.3-3.4-5.2-.8-8 .9-1 1.2-1.8.6-1.8-.5 0-1.7.8-2.6 1.8M471.6 979.9c.5.4 3.8 1.6 7.4 2.6 3.6.9 9.7 2.7 13.5 4 7 2.3 10.3 3.4 38 12 8.3 2.6 17.7 5.6 21 6.6 3.3 1.1 11.6 3.1 18.5 4.4 6.9 1.4 14.2 3.3 16.3 4.2 2 .9 4 1.3 4.3 1 1.2-1.1-7.2-3.9-17.6-5.9-11.3-2.1-17.6-3.9-52.5-14.8-4.9-1.6-16.4-5.1-25.5-8-9.1-2.8-17.5-5.5-18.8-6-2.9-1.2-5.9-1.3-4.6-.1M451.5 984.5c-2.2 1.4-4.4 2.7-5 2.9-.5.2-.7.6-.4 1 .3.3 3.2-.9 6.4-2.9 3.3-1.9 5.2-3.5 4.4-3.5s-3.2 1.2-5.4 2.5M595.6 991.4c-.9 1.4-1.6 4.5-1.6 6.9 0 3.6.6 4.9 3.3 7.5 4.3 4.2 6 4.1 2-.1-3.9-4.1-4.7-7.7-2.8-12.3 1.8-4.4 1.4-5.4-.9-2M438 992.1c-1.9 1.1-4.3 2.5-5.3 3-1 .6-1.6 1.3-1.3 1.6.5.5 11.6-5.5 11.6-6.3s-1.5-.3-5 1.7M423.6 999.9c-.3.5-2.1 1.6-4.1 2.5-1.9.9-3.5 2.1-3.5 2.7 0 .5 2.6-.5 5.8-2.3 7.1-3.9 7-3.8 4.4-3.8-1.1 0-2.3.4-2.6.9M401.4 1007.6c-3.8 2-9.3 4.9-12.3 6.6-5.3 2.8-5.5 2.8-8.8 1.3-4.1-2-5.9-1.5-7.5 2.2-.7 1.5-2.1 3.4-3 4.1-2.3 1.7-2.3 4.2-.1 8.1 2.4 4.1 5.4 5.6 8.2 4.2 1.1-.6 3.1-.9 4.4-.6 3.1.8 5.7-1.7 5.7-5.5 0-1.9.6-2.9 2-3.3 1.9-.5 2 0 2 16.4 0 10.6.4 16.9 1 16.9s1-6.6 1-17.8v-17.7l9.5-5c5.2-2.8 9.6-5.5 9.9-6 .6-1.7-1.2-5.3-3.2-6.4-1.5-.8-3.4-.3-8.8 2.5m9.6.4c1.2 2.2.6 4-1.3 4-1.3 0-3.8-4.6-2.9-5.5 1.2-1.1 3.2-.4 4.2 1.5m-4.5 3c.6 2 0 4-1.4 4-.7 0-3.1-4.3-3.1-5.5 0-1.5 4-.2 4.5 1.5m-4.7 3.1c.5 3.9-2.4 4.6-4.3 1-1.6-3.2-1-4.3 2-3.9 1.3.2 2.1 1.2 2.3 2.9m-5.5 2.1c.8 1.2.7 2.1-.3 3.3-1.2 1.4-1.5 1.3-3.1-1.1-1-1.5-1.5-3.2-1.2-3.6.8-1.3 3.4-.5 4.6 1.4m-13.7 3.4c5.5 5.8 4.4 14.9-1.4 11.9-1.8-.9-2-1.5-1.1-2.1.7-.4 1.4-.3 1.7.4.8 2.5 2.2 1 2.2-2.4 0-3.9-4.4-9.4-7.5-9.4-.9 0-1.3-.5-1-1 1.2-1.9 3.8-1 7.1 2.6m9-.4c.6 2-1.5 4.8-3.8 4.8-1.2 0-3-4-2.4-5.6.9-2.3 5.4-1.7 6.2.8M377 1021c-1.9 1.3-3 1.3-3 0 0-.6 1-1 2.3-1 1.8 0 1.9.2.7 1m4.6 2.6c1.5 2.2 1.5 2.7.3 3.5-2.3 1.4-3.6 1-4.2-1.3-.5-1.8.7-4.8 1.9-4.8.2 0 1.1 1.2 2 2.6m-6.2 1.6c1.9 2.6 2.1 7.8.4 7.8-2.3 0-5.8-4.3-5.8-7.2 0-3.5 3.1-3.9 5.4-.6M349 1064.5c-1.7 2-.9 4.8 1.8 6 3.2 1.4 2.9 3.9-.4 3.1-1.9-.5-2.5-.3-2.2.6.7 2.1 5 2.2 6.5.2 3.9-5.4-1.5-14.9-5.7-9.9m4 2.5c0 1.1-.4 2-.9 2-1.4 0-2.3-1.8-1.6-3 1-1.7 2.5-1.1 2.5 1M358.4 1065.7c-.5 2-.2 3 1.4 4.4 2.9 2.3 2.9 4.2.1 3.4-1.5-.5-2-.3-1.7.6.6 1.9 3.6 2.3 5.3.9 1.8-1.5 2-9.1.3-10.8-2.1-2.1-4.7-1.4-5.4 1.5m4.1 1.3c0 .7-.6 1.5-1.2 1.7-.8.3-1.3-.4-1.3-1.7s.5-2 1.3-1.8c.6.3 1.2 1.1 1.2 1.8M368 1064c0 .5.9 1 1.9 1 1.9 0 1.9.2.5 3.5-1.6 4-1.8 7.5-.4 7.5.6 0 1-1 1-2.3 0-1.2.7-3.5 1.5-5.1 2.3-4.3 1.9-5.6-1.5-5.6-1.6 0-3 .4-3 1M377.9 1063.2c0 .2-.3 2.8-.5 5.9-.3 4.2 0 6 1.1 6.9 1.3 1 1.9 1 3.4-.4 1.5-1.3 1.9-2.9 1.7-6.1-.4-5.2-1.1-6.5-3.7-6.5-1 0-1.9.1-2 .2m4.1 2.7c0 1.4-1.8 2.3-3 1.6-.6-.4-.8-1.1-.5-1.6.8-1.2 3.5-1.2 3.5 0m0 6.7c0 1.4-2.1 1.9-3.3.7-.9-.9 1.3-3.4 2.4-2.7.5.3.9 1.2.9 2M415.7 1064.8c-3.2 3.5-1.6 12.2 2.2 12.2 3.6 0 5.3-7.8 2.5-11.8-1.8-2.7-2.6-2.7-4.7-.4m3.3 5.8c0 4.8-1.6 5.9-2.6 1.9-.8-3.1.3-7.8 1.6-7 .6.3 1 2.6 1 5.1M388 1068c-2.1 4.1-2 6 .5 6 .7 0 1.6.7 1.9 1.7.6 1.5.8 1.5 2-.2.9-1.3 1-2.9.3-6.6-.5-2.7-1.3-4.9-1.8-4.9s-1.8 1.8-2.9 4m2 2.5c0 .8-.4 1.5-1 1.5-.5 0-.7-.7-.4-1.5.4-.8.8-1.5 1-1.5s.4.7.4 1.5M407 1065.1c-1.1.8-1.2 1.2-.2 1.6.7.3 1.2 2.4 1.2 5.4 0 2.7.5 4.9 1 4.9.6 0 1-2.8 1-6.5 0-6.6-.4-7.3-3-5.4M425.9 1068.6c-1.8 3.4-2.1 4.8-1.1 5.1.7.3 1.9 1.2 2.8 2.1 1.2 1.2 1.8 1.2 2.4.3.8-1.5.1-10.2-1-11.4-.4-.4-1.8 1.3-3.1 3.9m1.7 4.1c-1.1 1.1-1.9-.6-1.1-2.4.8-1.7.8-1.7 1.2 0 .3 1 .2 2.1-.1 2.4M433.7 1064.7c-.4.3-.7 1.9-.7 3.5 0 2.5.4 2.9 2.3 2.6 1.6-.2 2.3.3 2.5 1.9.4 2.5-2.3 3.3-3.1 1-.2-.6-.7-.9-1.1-.6-1.5 1.4.7 4 3.3 3.7 2.3-.3 2.6-.8 2.6-3.8 0-2.7-.5-3.7-2.2-4.5-2.8-1.2-3-2.5-.3-2.5 1.1 0 2-.5 2-1 0-1.1-4.3-1.4-5.3-.3M396.5 1071c.3.5 1.7 1 3.1 1 1.3 0 2.4-.5 2.4-1 0-.6-1.4-1-3.1-1s-2.8.4-2.4 1M163.5 1289.4c-17.8 9.5-23.9 12.5-24.6 12-.5-.3-.9-1.8-.9-3.3 0-2.5-2.4-6-3.4-5-.2.2-2.6 4.2-5.3 8.9s-6.8 11.5-9.1 15.3l-4.1 6.7 6.7 4.3c3.7 2.4 8.8 5.5 11.4 7l4.7 2.7.3-5.7c.3-6.4-1.8-4.7 27.3-20.8l6-3.3.3-9.5c.2-8.3.1-9.5-1.5-10.1-1-.3-2.2-.8-2.8-1-.5-.2-2.8.6-5 1.8m7.5 9.4c0 7.8 0 7.8-3.7 9.9-2.1 1.1-5.4 2.9-7.3 4s-7.1 3.9-11.5 6.3c-12.1 6.6-11.5 6-11.5 10.7 0 2.4-.5 4.3-1 4.3-2.4 0-13.9-7.6-14-9.2 0-1.8 12.4-23.3 14.1-24.3.5-.4.9 1 .9 2.9 0 2.8.4 3.6 1.8 3.6 1 0 2.2-.4 2.7-.9.6-.4 3.7-2.3 7-4.1 15-8.3 20.1-10.9 21.3-11 .8 0 1.2 2.2 1.2 7.8"/><path d="M162.2 1296.6c-1.9 1.3-2.2 2.4-2.2 7.5 0 3.2.2 5.9.5 5.9.2 0 2-.7 3.9-1.6 5.1-2.5 7-7.9 4.2-11.7-1.6-2.1-3.5-2.2-6.4-.1m4.8 3.6c0 3-2.3 6.8-4.2 6.8-1.3 0-1-7.4.4-8.8 2.2-2.2 3.8-1.3 3.8 2M156.7 1299.7c-.4.3-.7 2.2-.8 4.2-.1 3.6-.1 3.6-1.2.8-1.3-3.3-3.1-3-3.5.6-.4 3.2-2.2 3.7-2.2.6 0-1.2-.5-1.9-1.2-1.6-.7.2-1.1 1.1-.9 1.8.2.8.8 3.3 1.3 5.7 1.2 5.4 3 5 4.2-.9.9-4.4.9-4.4 2.3-1 1.9 4.4 3 3.1 3.9-4.7.6-5.7 0-7.5-1.9-5.5M140.8 1308.6c-2.6 1.4-2.8 1.9-2.8 7.9 0 3.7.4 6.5 1 6.5s1-1.3 1-2.8c0-2.1.7-3.2 2.5-4 2.6-1.2 3.4-3.2 1.2-3.2-.7 0-1.8.5-2.5 1.2-.9.9-1.2.7-1.2-1 0-1.2.3-2.2.8-2.2.4 0 1.8-.9 3.2-2 3-2.4.8-2.6-3.2-.4"/></svg>