<svg xmlns="http://www.w3.org/2000/svg" viewBox="0 0 992 1402" fill="currentColor"><path d="M462.3 469.7c-2.2.4-2.3.8-2.3 11.4V492h40v140.5l-5.2 2.9c-2.9 1.6-9.6 5.1-14.8 7.9-5.2 2.7-9.9 5.3-10.5 5.7-1.1.8-6.3 3.8-13 7.3-8 4.3-7.5 2.1-7.5 30.7 0 25.7 0 25.7-2.7 27.1-1.6.7-5.7 3-9.2 5.1-3.4 2.1-6.5 3.8-6.7 3.8s-4.8 2.6-10.1 5.8c-16.1 9.6-22.6 12.9-26.4 13.6-2.1.4-5.4 1.8-7.4 3.1-3.5 2.4-3.9 2.5-9.5 1.3-5.8-1.2-6-1.1-12.7 2.3-3.9 1.9-7.2 4.4-7.8 5.6-.7 1.8-3.3 3-11 5.4-5.5 1.7-10.8 3.8-11.9 4.7-2.3 2.1-5.1 7.7-6 11.9q-.75 3.15-3.9 5.1c-1.8 1-4.1 3.5-5.2 5.6-1.2 2.2-3.7 4.7-6 5.9-2.2 1.2-4.2 2.4-4.5 2.7s-2.3 1.4-4.5 2.6c-2.2 1.1-5.8 3.1-8 4.4-5 2.8-10.3 5.8-18 10-3.3 1.8-7.3 4-9 5-1.6 1-5 2.9-7.5 4.2-2.5 1.4-6.5 3.7-9 5-2.5 1.4-8.8 4.9-14 7.7-5.2 2.9-11 6.8-12.7 8.6-3 3.1-3.3 4.1-3.3 9.4 0 6.6 3 13.4 8.7 19.5 3.4 3.8 11.2 7.1 14.5 6.2 2-.5 8.7-4.1 28-14.9 5.4-3 11.7-6.5 18.3-10.2 2.5-1.4 5.6-3.1 6.8-3.9 1.2-.7 5.1-2.9 8.7-4.8 3.6-2 11.5-6.3 17.5-9.8 12.5-7.1 18.2-8.4 24.9-5.6 8.5 3.6 17.1 1.2 23.1-6.4 3.6-4.6 6.8-6.5 11.8-7.3 3.5-.5 18.1-9.4 20-12.1.4-.6 1.4-3.5 2.3-6.3 1.2-4.1 2.1-5.4 3.9-5.9 1.3-.3 3.1-1.4 4.1-2.5.9-1 2.3-1.9 3-1.9s2.1-1.3 3-2.9 4.7-4.6 8.3-6.7c3.6-2 9.9-5.7 14-8.2 4.1-2.4 8.9-5.3 10.7-6.3 1.9-1 4.9-2.7 6.7-3.8 1.7-1 8.8-5.1 15.6-9s13.5-7.9 15-9c1.4-1 3.1-2 3.6-2.2 2.9-1.2 12.5-7.2 12.1-7.6-.5-.5-14.3 7.3-23.8 13.3-2.1 1.3-4 2.4-4.3 2.4-.2 0-5.1 2.8-10.7 6.2-5.7 3.4-13.2 7.8-16.8 9.8s-8.2 4.6-10.2 5.8c-2.1 1.2-5.3 3-7 4.1-1.8 1-4.9 2.8-6.8 3.9-1.9 1.2-3.8 2.2-4.1 2.2-.4 0-.8-2.6-1.1-5.8-.6-8.1-4.8-16.4-11.7-23.2-3.1-3-6.5-6-7.6-6.7-1.9-1.1-1.9-1.2-.2-2.5 1-.8 4-2.5 6.5-3.8 2.6-1.4 4.9-2.7 5.2-3 .3-.4 3-2 6-3.6 3-1.7 7.6-4.3 10.3-5.7 2.6-1.5 6.6-3.8 9-5.1 2.3-1.3 6.6-3.7 9.5-5.5 2.9-1.7 5.5-3.1 5.7-3.1s3-1.5 6.2-3.4c3.2-1.8 8.3-4.7 11.3-6.3 3-1.7 8.9-5 13-7.3s10-5.6 13-7.3c3-1.6 5.9-3.4 6.5-3.8 2-1.9 6.3-.9 8.5 1.8 2.5 3.2 2.1 7.3-1.2 12.9-1.1 1.9-1.8 3.7-1.5 4 .9.9 5.7-9.9 5.7-12.9 0-3.3-4.8-8.7-7.7-8.7-1 0-3.4 1-5.3 2.2-3.4 2-6.5 3.8-16.7 9.4-2.7 1.4-5.2 3-5.8 3.4-.5.4-3.9 2.3-7.5 4.3-3.6 1.9-9.8 5.3-13.9 7.6s-7.5 4.1-7.8 4.1c-.2 0-.2-11.3-.1-25.1l.3-25 6.1-3.4c3.4-1.8 10.9-5.9 16.5-9 5.7-3.2 13.8-7.6 17.9-9.8s8.5-4.6 9.7-5.3c2-1.3 4.8-2.8 12.6-7.2 1.7-1 6.8-3.8 11.2-6.2s9.2-5.1 10.7-6.1c1.4-1.1 2.8-1.9 3.1-1.9.2 0 5.5-2.9 11.8-6.4 6.2-3.6 11.6-6.3 12.1-6s.8 10.9.8 23.5l-.1 22.9-6.7 3.6c-3.7 2-8.3 4.7-10.2 5.9s-8.7 5.2-15 9c-6.3 3.7-12.1 7.4-12.7 8.3-3.1 3.8-.1 11.4 6 15.4 3.1 2 3.5 2.8 4.1 8.1.7 7.4 4.1 13.8 7.9 15.2 2.5.8 3.9.4 9.5-2.6 9.1-4.8 40.6-22.9 51.5-29.5 4.9-3 9.1-5.4 9.4-5.4s1.7-.8 3.1-1.9c1.5-1 4.4-2.8 6.5-4 7-4 10.2-5.8 15.7-9.1 5.8-3.5 15.7-9.1 25-14.3 3-1.6 5.9-3.4 6.5-3.8.5-.5 2.3-.9 4-.9 1.9 0 4.5-1.2 7.3-3.4 4.3-3.4 4.3-3.4 8.8-1.9 6.4 2.2 12.3 1.1 17.1-3.2 3.1-2.8 4.6-3.5 8.2-3.5 2.5 0 6-.5 7.8-1.2 2.7-1 3.8-1 5.4.1 2.7 1.6 3.8.5 1.3-1.4-1.8-1.4-1.8-1.4.9-1.5 1.5 0 2.7-.5 2.7-1 0-1.5-1.1-1.3-9.4 1.5-10.4 3.5-11.8 3.3-7.9-.8 11.1-11.8 14-25.4 6.2-28.9-1.6-.7-2.9-1.6-2.9-1.9 0-3.6-14.3 1.2-15.5 5.2-.7 2.2-4.2 3.9-8 3.9-3.2 0-5.8-3.9-4.9-7.4.6-2.5.9-2.6 7.5-2.6 3.8 0 6.9-.4 6.9-.8 0-1.4 6.7-4.1 8.8-3.5 1.1.2 3.8-.5 6-1.6 2.3-1.2 5.3-2.1 6.7-2.1 2.5 0 2.5 0 2.5 13.4 0 13.1 0 13.4-2.7 16-1.4 1.4-2.4 2.8-2.2 3 .6.7 4.5-2.8 5.8-5.1 1.2-2.3 1.6-24.9.5-27.7-.9-2.2-5.7-2-10.6.5-2.8 1.4-4.4 1.7-5.1 1s-2.7-.1-6.4 1.9c-8.3 4.6-17.9 4-24-1.4-2.1-1.8-3.3-5.3-1.5-4.4 6.6 3.4 9.1 4 15.8 3.6 6.1-.4 7.8-1 13-4.4 3.2-2.2 7-4.4 8.4-5.1 6-2.6 8.2-3.3 10.5-3.3 1.3 0 2.7-.5 3-1 .3-.6-.2-1-1.3-1-4.5 0-15.1 4.5-22.4 9.6-6.5 4.4-15.5 5.1-23 1.8-3.9-1.8-5.4-4.2-4.3-7.2.6-1.9 8.7-8.2 10.7-8.3.7 0 4-1.5 7.3-3.2 4-2.1 6.1-3.9 6.2-5.2.2-1.1 0-1.4-.3-.7-.7 1.5-11.7 7.2-14 7.2-1.5 0-1.6-.8-1-6.1.3-3.4.6-8.4.6-11.1 0-3.4.4-5 1.5-5.4 1.8-.7 1.8-.7 13.2 6.4 5 3.1 15.7 9.7 23.8 14.5 10.6 6.5 15 9.7 16.1 12 1.4 2.6 1.6 5.6 1 19.6-.3 9.1-.6 21.9-.6 28.3 0 11.7 0 11.8-2.3 11.8-1.3 0-3.2-.7-4.3-1.5-2.9-2.2-4.3-1.7-1.5.5 1.3 1.1 3.5 2 4.9 2 2.7 0 11.8-5.3 12.4-7.3.3-.7.6-13.7.7-29 .3-27.8.3-27.8-2.4-31.2-1.4-1.9-3-3.5-3.6-3.5-.9 0-3.3-1.5-19.1-11.7-3.7-2.3-7.2-4.3-7.7-4.3s-1.1-.7-1.5-1.5c-.3-.8-1-1.5-1.6-1.5s-4.6-2.1-8.8-4.6c-8.5-5.2-10.7-5.6-15-2.5-1.7 1.1-3.5 2.1-4.1 2.1-2.1 0-3.1 5.1-3.1 15.5s0 10.4-3.2 12.6c-5.2 3.7-5.8 4.5-5.8 8.3 0 3.2-1.9 5.6-4.4 5.6-1.2 0-.5-3.4 1.1-5.2.9-1 1.1-1.8.5-1.8-1.4 0-4.3 4.1-3.6 5.2.9 1.5-1.7 3.8-4.2 3.8-1.2 0-2.5.4-2.8.9s-1.9 1.4-3.6 1.9c-4.5 1.6-3.9-.8 1.7-6.2 4.7-4.6 9.8-7.6 12.7-7.6.9 0 1.6-.5 1.6-1.1 0-2.7-9.5 2-15.6 7.7-3.6 3.4-5.4 6.5-5.4 9.4 0 1.5-1.2 2.6-4.4 4.1-2.5 1.1-5.5 3.3-6.8 4.9-2 2.6-6.9 6-17.3 12-1.6.9-7.7 4.5-13.5 8s-13 7.7-16 9.3c-3 1.7-6.6 3.8-8 4.7-5 3.3-20.8 12-21.9 12-.8 0-1.1-6.7-1.1-23.5 0-18.2-.3-23.5-1.2-23.5-.7.1-3.5 1.4-6.3 3.1-2.7 1.6-7 4.1-9.5 5.4-9.8 5.5-14.7 8.3-20.5 11.5-3.3 1.8-6.4 3.6-7 4-.5.4-4.9 2.8-9.7 5.4l-8.8 4.7V492h40v-22h-13.2c-7.3 0-24.8-.2-38.8-.3-14-.2-26.5-.2-27.7 0m78.2 11.3v9.5l-11-.1c-6-.1-23.9-.2-39.7-.3L461 490v-19l39.8.2 39.7.3zm165.8 60.4c2.9 1.8 9.5 6 14.7 9.3 5.2 3.4 13.4 8.4 18.3 11.3 4.8 2.9 9.3 6.2 9.9 7.3.8 1.6 1.1 10.6.9 30.2-.2 26.9-.3 28.1-2.3 29.7-1.1 1-2.4 1.8-2.9 1.8s-.9-12.4-.9-28.1c0-32.7.4-31.3-10.8-37.5-3.7-2-6.9-4-7.2-4.3s-2.5-1.7-5-3c-2.5-1.4-8.5-5.1-13.3-8.3-4.9-3.2-9.1-5.8-9.5-5.8s-1.8-.9-3.2-2c-2.5-2-2.5-2-.5-3.6 2.5-1.9 5.2-1.2 11.8 3M676 583.2c0 2 4.5 6.8 6.4 6.8.9 0 1.6.8 1.6 2 0 1.1-.7 2-1.5 2s-1.5-.4-1.5-.9c0-1.6-5.9-7.3-6.9-6.7-1.5 1-2.4-1.4-1.1-2.9 1.5-1.8 3-1.9 3-.3m-4.2 4.2c2.5 1.3 9 7.9 15 15.1 2 2.4 2.8 2.7 6.7 2.3 2.8-.4 7-2.1 11.3-4.7 7.4-4.4 10.5-5 13.4-2.4 4.6 4.1.4 15.6-9.4 25.6-8.4 8.6-12 10.7-18.4 10.7-5.7 0-9.5-2-7.7-4.1 2.5-3.2 3.4-8.7 2.2-13.1-.6-2.4-1.1-5.7-1.1-7.3.1-2.9-5.4-13.5-7-13.5-1.3 0-.9.9 1.2 3.2 4.3 4.7 1.7 3.4-3.3-1.6-5.3-5.3-8.3-6.6-15.3-6.6-3.5 0-4.6-1.3-1.8-2.4 3.1-1.2 6.1-.5 10.7 2.4 5.2 3.3 5.7 3.5 5.7 2.1 0-.5-2.5-2.2-5.5-3.6-3-1.5-5.5-2.9-5.5-3.1 0-1 6.4-.3 8.8 1m-11.9 7.6c4.8 2.4 12.5 10.9 15.4 16.9 2.2 4.9 3.7 19.5 2.1 21.1-.5.5-.9-2.3-1-6.3 0-4.5-.7-8.7-1.7-11.1-2.5-5.7-3-3.9-.7 2.5 3 8.1 2.2 17.8-1.6 19.3-1.2.5-1.2.1.1-2.4 2-3.9 1.8-12.6-.5-17.5-2.2-4.8-2.5-3.6-.5 2 3 8.3.8 17.3-4.7 19.1-1.3.4-3.9 1.7-5.8 2.9s-6 3.5-9 5.2c-7.4 4.1-26.4 15.1-43.5 25.3-20.2 12-30.2 17.9-36.5 21.3-3 1.6-6.7 3.8-8.2 4.9-1.4 1-2.9 1.8-3.3 1.8s-5 2.5-10.2 5.7c-10.6 6.3-12.7 6.4-16.7 1-2.8-3.8-3.5-16.6-1.2-23.3.9-2.6 1.6-5.7 1.6-6.9 0-2.2-2.9-5.9-5.2-6.8-1.8-.6.4-2.8 6.2-5.8 2.5-1.3 4.7-2.7 5-3s3-1.9 6-3.6c13.6-7.4 17.7-9.7 20.2-11.5 1.4-1 2.9-1.8 3.2-1.8.4 0 3.6-1.8 7.2-4s6.8-4 7-4 5.4-3 11.6-6.6c36.3-21.4 45.5-27.1 47.4-29.1 4.2-4.5 11.8-2.7 20 4.9 2.5 2.3 4.7 3.9 5 3.6.2-.3-2-2.8-5-5.5-3.7-3.4-6.9-5.4-10-6.2-5.6-1.4-6.1-2.6-.8-1.7 5.5.8 9.5 3.1 13.7 7.7 2 2.3 3.9 3.9 4.2 3.6 1-1.1-7.1-8.7-12-11.1-2.8-1.4-4.3-2.6-3.4-2.6 1 0 3.5.9 5.6 2m9.1 3.9c6.2 6.1 11.4 15.4 10.8 19.5-.2 1.4-.9.3-2.2-3.4-2.2-6.6-8.2-15-13.8-19-2.4-1.8-3.4-3-2.5-3s4.4 2.7 7.7 5.9m4.6-.5c5.8 5.8 9.5 13.3 10.1 20.4.3 3.5.1 6.2-.4 6.5-.6.4-1.3-1.6-1.6-4.9-.8-7.6-5-15.8-11.4-22.2-3.9-3.9-4.7-5.2-3.1-4.7 1.3.4 4.2 2.6 6.4 4.9m38.4-4.7c-.1.8-13 8.5-13 7.8 0-3 6.9-8.5 10.7-8.5 1.3 0 2.3.3 2.3.7m-30 11.4c0 .6-.4.7-1 .4-.5-.3-1-1.1-1-1.6 0-.6.5-.7 1-.4.6.3 1 1.1 1 1.6m13-1.6c0 .3-.2.5-.5.5s-.5-.2-.5-.5.2-.5.5-.5.5.2.5.5m-14 25.8c-.7 1.7-.9 1-.9-2.8.1-4.3.2-4.6.9-2.2.5 1.6.5 3.8 0 5m-150.5 43.2c3.4 3.3 3.1 5-.3 2.5-2-1.5-3.6-1.9-5.5-1.5-4.8 1.2-4.4 6.3.8 11.7 1.4 1.6 2.2 2.8 1.7 2.8s-2.4-1.4-4.1-3.2c-5.5-5.7-3.6-14.8 3.2-14.8 1 0 2.9 1.1 4.2 2.5m-.3 4.2c2.1 1.9 2.3 5.2.5 7.7s-4.7.9-7.3-3.9c-1.6-3.1-1.7-3.7-.4-4.5 2.3-1.5 5.1-1.2 7.2.7M400 745c-.7.4-.2 1.3 1.4 2.3 3.5 2.3 4.3 2.1 2-.5-1.9-2.2-1.9-2.2 1.3 0 7.9 5.5 14.5 15.6 15.7 24.2l.7 4.5-1.9-5c-2.2-5.8-5.4-12.2-7.6-15-2.2-2.9-2-1.2.4 2.8 1.1 1.9 1.8 4.1 1.5 4.9-.3.7.1 3.3 1 5.7 2.2 6.5 2 15.2-.6 18.5-1.1 1.4-2.5 2.6-3.1 2.6s-.4-.8.5-1.8c4.3-4.8 4.2-15.8-.3-24.5-1.4-2.7-1.8-4.2-1.1-4.7 1.6-.9-5.3-8.5-10.5-11.6-2.4-1.4-4.4-2.7-4.4-2.7 0-.1 1.4-.2 3.1-.3s2.6.2 1.9.6m-6 1c1.1.7.7 1-1.7 1-1.8 0-3.3-.5-3.3-1 0-1.3 3-1.3 5 0m-15.1 3.1c4.3.9 5.9 2 11.8 8.2 9.8 10.4 12.5 17 8.6 21.3-1 1.1-3.5 3.3-5.6 4.8-2.1 1.6-3.5 3.1-3.2 3.4.9.9 8.4-5 10.4-8.1 2.2-3.5 2.2-3.5 4.5 5.5 2.8 10.8-.1 18-9.7 24.4-8.9 5.9-13.1 7.3-16.5 5.3-3.9-2.1-4.2-8.2-.8-14.9 1.4-2.7 2.2-5 1.7-5-1.3 0-5.3 8.9-5.8 13-.7 5.1-2.3 4.2-2.3-1.2 0-5.5 3.2-11.8 8.2-16.3 2.8-2.6 3.8-4.2 3.5-5.6-.4-1.4.3-2.4 2.6-3.6 5.8-2.9 8.6-7.8 7.3-12.6-.7-2.7-6.4-9.2-7.3-8.3-.4.3.8 2 2.5 3.7 2.5 2.4 3.2 4 3.2 6.8 0 4.2-1.7 6.3-7.9 10.1-3 1.7-4.1 3.1-4.1 4.8 0 1.4-1.7 4.3-3.8 6.7-4.5 5.2-6.9 13.4-5.2 17.9.8 2.2.6 3.2-.8 5.1-2.1 3-5 4.1-6.6 2.5-1.9-1.9-1.4-18.6.8-25.4 1.7-5.2 3.2-7.2 10.9-14.7 8.9-8.7 8.9-8.7 8.9-14.7 0-9.1-1.9-11.5-10.5-13.2-2.3-.4-3.2-.8-2-.9s4.4.4 7.2 1m16.8.4c4.2 1.8 4.6 1.8 3.8.5-1.3-2.1.7-.8 5 3.1 2.5 2.3 4.5 4.7 4.5 5.3s-1.8-.9-4-3.3-4.3-4.2-4.5-3.9c-.3.3 1.2 2.4 3.4 4.7 4.8 5.1 7.9 11.6 9.3 19.2.9 5.1.8 6.3-.9 9.1-2.8 4.8-4.9 4.8-5.6 0-1.5-9.3-9-22.6-17.2-30.4-2.4-2.3-4.1-4.6-3.9-5 .8-1.3 6.2-.9 10.1.7m-23.9 1.7c-.2.7.7 1.4 1.9 1.6 2.3.3 5 2.9 4 3.8-.3.3-1.4.1-2.5-.5-2.7-1.4-9.8-1.4-12.4 0-1.6.8-1.9.8-1.6-.2.2-.7 1.3-1.7 2.4-2.3 1-.6 2.3-1.7 2.7-2.4 1-1.6 5.8-1.6 5.5 0m-9.5 1.5c-3.2 2.2-3.1 6.8.2 8.9 3.8 2.5 12.2 2.1 15.1-.7 3.1-2.9 3-4-.2-7.3-3-3-1.2-3.6 2.4-.8 2.2 1.7 4.4 9.5 2.6 9.1-.5-.1-2.6.5-4.6 1.4-4.6 2.1-10.7 2.2-15.4.2-2.6-1.1-3.4-1.1-3.2-.2.3.6 2.9 1.8 6 2.6 5.6 1.4 8 1.1 16.1-2.4 1.3-.5 1.7-.2 1.7 1.5 0 1.5-2.8 5-8.1 10.2-8.9 8.8-12 14.3-13.9 24.6-1.7 9.6.5 20.1 4.2 20.2.5 0 2.6-1.6 4.8-3.7 3.8-3.3 4.2-3.5 5.7-2 1.5 1.4 1.2 2-3.2 6.9-2.6 2.9-5.6 5.9-6.6 6.6-2 1.4-13.9 2-15.8.8-1.7-1.1-1.3-2.4 1-3.6 1.7-.9 2.3-.8 3.6.7 1.3 1.7 1.4 1.6.9-.9-.3-1.5-.1-4.9.5-7.7.8-3.7.8-6.4-.1-9.8-2.3-9.7-2.3-10.3.5-16.9 1.5-3.6 2.6-6.7 2.3-6.9-.4-.5-3.8 6.6-5.3 11-.7 2-.7 2-1.8 0-2-3.4-12.1-13-15-14.3-1.5-.7-4.2-1.2-5.8-1.2-2.7 0-3-.3-2.4-2.3 1.3-4.3 4.2-9.1 6.6-10.9 1.3-1 5.6-2.7 9.4-3.9 3.9-1.1 7.8-2.3 8.8-2.6 1.2-.4 1.7 0 1.7 1.6 0 1.1.5 2.1 1.1 2.1.7 0 .9-1.1.5-3.1-.5-2.5-.1-3.6 2.3-6 1.6-1.6 3.5-2.9 4.3-2.8.7 0 .3.7-.9 1.6m14.1 5.3c1.6 1.6-.8 3.2-5.7 3.7-6.9.8-11.5-2.6-6.4-4.7 2.6-1.1 10.7-.4 12.1 1m42.3 17.4c.3 2.8 0 6.2-.6 7.6-1 2.4-1.1 2.3-.5-.7.6-3.5-1.4-15-2.7-15.9-.5-.3-.9-1.3-.9-2.2.1-3.5 4.2 6.3 4.7 11.2m-80.6 7.2c3.8 1.9 11.3 10.6 13.8 15.8 2.5 5.4 3.7 14 2.5 19.3-.7 3.5-.8 3-1.5-4.5-.3-4.6-1.2-8.9-1.9-9.5-1-1-1.1-.7-.4 1.3.4 1.4.8 6 .9 10.3 0 7.2-.2 8-2.5 9.7-1.4 1-2.6 1.7-2.8 1.5s.6-2.1 1.7-4.4c4.1-7.9 1.7-19.6-5.8-28.9-4.3-5.3-12.8-9.7-17.1-8.8-3.8.7-3.8.1-.1-1.8 2.6-1.4 3.2-1.3 7.8.9 4.8 2.4 8.8 5.8 11.7 10 .8 1.1 1.7 1.7 2.1 1.3 1-1-6.4-8.7-11.2-11.5-2.3-1.3-4.3-2.7-4.3-3 0-.6 3.9.6 7.1 2.3m43.6 3.1c-.4.3-.7 0-.7-.7s.3-1 .7-.7c.3.4.3 1 0 1.4m-52.3 1.7c1.9.8 4.9 2.7 6.6 4.3 1.8 1.5 3.6 2.7 4.1 2.6.4-.2.5.5.2 1.4-.5 1.2-.2 1.5 1 1 1-.4 2.1.2 2.9 1.6 2.1 3.3 3 5.9 1.7 5.1-.8-.4-.9.4-.5 2.7.6 2.9.2 2.5-2.4-2.4-3.5-6.5-10.4-14.1-13.8-14.9-2.9-.8-2.9.9.1 1.7 3.3 1.1 6.5 4.3 10.8 10.9 3.6 5.5 3.9 6.4 3.9 13.3 0 8.8 1.9 9.2 2.2.5.2-5.7.2-5.7.5-.8.5 6.5-.3 9.6-2.5 9.6-1 0-2.7.7-3.8 1.5-1 .8-2.5 1.5-3.2 1.5-1.2 0-5.8 2.4-23.4 12.3-11.9 6.7-14.7 8.3-21.3 12-3.8 2.2-10.8 6.1-15.5 8.7s-12.6 7-17.7 9.8c-10.1 5.7-12 6.3-10.3 3.3 2.1-4-.1-16.7-2.7-15.7-.7.3-2.1-1-3.2-2.8-2.6-4.2-8.9-8.6-12.3-8.6-3.1 0-5.5 2.1-6.4 5.7-.7 2.6 1.3 10 2.9 11 .7.4.7-.1.2-1.3-1.4-3.2-1.8-10.5-.6-11.7.8-.8 1.1-.4 1.1 1.4 0 5.4 2.3 10.3 7 15 2.7 2.7 5.6 4.9 6.5 4.9.8 0 1.5.4 1.5 1 0 2.3-5.2.8-9-2.6-2.2-2-4-3.2-4-2.6 0 1.4 6.4 6.9 8.9 7.7 5 1.6 8.7-4 7.6-11.5-.4-3.2-.3-4.1.4-3 1.5 2.2 1.3 13.2-.3 15.2-3.9 5.2-15.3-1.1-20.7-11.5-4.4-8.5-2.9-20.7 2.6-20.7 3 0 8.8 2.5 10.5 4.4.7.9 1.7 1.6 2.3 1.6 2 0-3.6-5-6.9-6-1.9-.7-3.4-1.5-3.4-2 0-.4 2.2-1.9 4.8-3.3 2.7-1.4 6.6-3.5 8.8-4.8 2.1-1.2 6.4-3.5 9.4-5.1s5.9-3.3 6.5-3.7c.5-.5 4.2-2.5 8-4.6 9.4-5 15.3-8.3 25.5-14 4.7-2.6 12.9-7.2 18.2-10.2 8.7-4.8 14-8.7 9.5-7-1 .3-1.7.2-1.7-.3 0-.8 2-1.6 4.8-1.9.7 0 2.8.5 4.6 1.3m18.3 20.3c-.4.3-.7 0-.7-.7s.3-1 .7-.7c.3.4.3 1 0 1.4m1 5.5c-.3.8-.6.5-.6-.6-.1-1.1.2-1.7.5-1.3.3.3.4 1.2.1 1.9m-116.2 36.7c-1.1 5.3 1.2 11.5 5.8 14.9 2.2 1.8 4.7 3.2 5.4 3.2s1.3.4 1.3 1c0 1.4-1.6 1.2-4.8-.4-5.5-2.9-9.5-9.1-10.5-16.3-.5-4.4-.2-5.3 2-5.3 1.1 0 1.3.8.8 2.9m5.3 3.7c-.9.9-2.2 1.4-3 1.1q-1.2-.45 1.2-1.5c3.5-1.5 3.7-1.4 1.8.4m5.2 3.4c0 .9-5.6 4-7.2 4-1.8 0-.6-1.9 2.5-3.8s4.7-2 4.7-.2m0 4c-2.6 2-5 2.6-5 1.2 0-.9 3.9-2.9 6-3.1.9 0 .6.7-1 1.9m1.5 4c-.3.5-1.2 1-1.8 1-.7 0-.6-.4.3-1 1.9-1.2 2.3-1.2 1.5 0"/><path d="M468 476.5c-.7.9-1 1.8-.6 2.2.3.4 1.3-.2 2-1.3 1.4-1.8 1.5-1.8 3.3-.1 1.7 1.8 1.7 1.9-.7 3.8-4.6 3.6-5.1 4.1-4.7 5.2.5 1.5 7.7 2.2 7.7.8 0-.6-1.1-1.1-2.5-1.1-3.3 0-3.2-1.4.5-4 3.4-2.4 3.6-3.2 1.4-5.4-2-2-4.8-2-6.4-.1M478.7 475.7c-.4.3-.7 1.8-.7 3.3 0 2.2.4 2.6 2.8 2.5 2 0 2.7.5 2.7 2 0 1.6-.6 2-2.7 1.8-3-.2-3.8 1.1-1.3 2.1 2 .7 4.4-.3 5.5-2.4 1.2-2.2-1.4-6-4.1-6-1 0-1.9-.5-1.9-1 0-.6 1.1-1 2.5-1s2.5-.5 2.5-1c0-1.1-4.3-1.4-5.3-.3M496.5 476.4c-1.8 1.3-1.8 1.4-.1 3.1 1.2 1.2 1.5 2.6 1.1 4.6-.4 1.8-.2 2.9.4 2.9.7 0 1.1-2.4 1.1-6 0-3.3-.1-6-.3-6s-1.2.6-2.2 1.4M505.2 476.2c-2 2-1.5 9.1.8 10.6 3.3 2 6-.4 6-5.3 0-4.3-1.3-6.5-4-6.5-.9 0-2.1.5-2.8 1.2m4.8 5.4c0 3.8-.3 4.5-1.7 4.2-1.3-.2-1.9-1.5-2.1-4.6-.3-3.7-.1-4.2 1.7-4.2s2.1.6 2.1 4.6M515.2 476.2c-1.9 1.9-1.5 8.2.7 10.2 1.5 1.4 2.4 1.5 4 .6 1.6-.8 2.1-2 2.1-5.3 0-4.5-1.3-6.7-4-6.7-.9 0-2.1.5-2.8 1.2m5.6 3.1c.7 3.4-.7 6.7-2.8 6.7-1.7 0-2-.7-2-4.6 0-4.1.2-4.5 2.2-4.2 1.3.2 2.4 1.1 2.6 2.1M488 483c0 .5.7 1 1.5 1s1.5-.5 1.5-1c0-.6-.7-1-1.5-1s-1.5.4-1.5 1M745 570c-.8.5-1.1 1.2-.7 1.6s1.5 0 2.4-.9c1.8-1.8.8-2.3-1.7-.7M674 595c0 .5.5 1 1 1 .6 0 1-.5 1-1 0-.6-.4-1-1-1-.5 0-1 .4-1 1M706.3 602.2c-4.6 5.1-5.6 10.3-2.5 13.1 2.6 2.4 8.2 2 8.2-.6 0-.7-.4-.7-1.2.1-1.1 1.1-4.8 1.7-4.8.8 0-.2 1.6-2 3.5-3.9 2.5-2.5 3.5-4.4 3.5-6.6 0-4.4 1.8-3.9 2.2.6.3 3.1.6 3.4 1.2 1.9.5-1 .5-3 0-4.5-1.3-3.7-7.1-4.2-10.1-.9m5.7 2c0 2.6-4.6 8.8-6.6 8.8-2.1 0-1.7-4.7.7-8.1 2.5-3.5 5.9-3.9 5.9-.7M692.9 610.9c1.7 3.1 2.4 12.4 1.3 16.4-.6 2-.7 3.7-.2 3.7 2.1 0 2.7-11.9.8-18.1-.6-2.2-1.5-3.9-2-3.9s-.4.9.1 1.9M407 751.5c1.3 1.4 2.6 2.3 2.8 2 .7-.7-2.9-4.5-4.1-4.5-.6 0 0 1.1 1.3 2.5M384.3 795.8c-4.3 4.2-5.8 8.5-4.3 12.2 1 2.5 1.8 3 4.6 3 1.9 0 3.4-.5 3.4-1.1s-.9-.8-2.2-.3c-1.9.6-1.9.2 1-3.7 1.8-2.4 3.2-5.5 3.2-7.1 0-1.5.5-2.8 1-2.8.6 0 1 1.7 1 3.7 0 2.8.3 3.4 1 2.3 1.5-2.4 1.2-4.8-1-7-2.7-2.7-4.2-2.5-7.7.8m4.7 2.6c-.8 3.8-4.6 9.6-6.1 9.6-1.4 0-2.2-2.7-1.5-5.3.7-2.8 5.3-7.7 7.1-7.7.9 0 1.1.9.5 3.4M358.9 767.4c.6.7 3.8 2 7.1 2.7l6 1.3-4.2 3.8c-6.2 5.4-3.6 4.7 3.1-.9 3.1-2.6 5.9-4.9 6.4-5.3.4-.3-1.9-.4-5.1-.2-3.9.3-7-.1-9.6-1.2-4.7-2-5.2-2-3.7-.2"/><path d="m740.2 524.3.3 11.2 19.9.3 19.9.2-.7 26.8c-.7 26.7-.7 26.7-4.1 29.7-1.9 1.6-3.5 3.8-3.7 4.9s-3 3.3-7.1 5.6c-9.1 4.9-10.4 6.2-9.1 9.7.5 1.5 1.7 2.9 2.7 3.1s5.5-1.5 9.9-3.9c6.9-3.5 8.4-4 10.1-3 1.5 1 2.6.9 5.3-.4 6.6-3.1 6.7-10.2.3-16-3.9-3.5-3.9-3.5-3.4-14.3.5-10.4 1.4-34.2 1.5-39.2 0-2.5 0-2.5 20-2.2l20 .4.2-8.6c.1-4.7.2-9.6.2-10.8.1-1.6-.7-2.4-2.9-2.9-1.6-.4-20.2-1-41.3-1.3l-38.3-.5zm80.8-7.5c.3.4.4 4.6.2 9.4l-.3 8.8h-12.2c-6.7 0-24.7-.3-39.9-.7l-27.8-.6v-19l39.8.7c21.8.4 39.9 1 40.2 1.4M781.5 593c-.3.5-1.3 1-2.1 1s-1.4-.5-1.4-1c0-.6.9-1 2.1-1 1.1 0 1.7.4 1.4 1m-1.8 3.2c4.6 5.1 5.6 10.2 2.3 11.3-2.9.9-4.3-.3-2.5-2.2 2.6-2.6-.9-9.1-4.2-7.9-1.3.6-1.8-1.6-.6-2.7 1.2-1.3 2.9-.7 5 1.5m5-1.4c1.7 1.1 2.8 6.2 1.3 6.2-1.7 0-3.9-3-4-5.3 0-1.8.8-2.1 2.7-.9m-5.6 6.4c1 1.8.8 2.4-1.1 4-3 2.4-3.3 2.3-4.9-1.3-1.2-2.7-1.2-3.3 0-4 2.4-1.5 4.8-1 6 1.3m-7.1 3.4c1.2 3.1 1.2 3.4.2 3.4-.8 0-3.2-4.3-3.2-5.5 0-1.6 2.2-.1 3 2.1m15-1.2c0 .8-.4 1.8-1 2.1-.5.3-1-.3-1-1.4 0-1.2.5-2.1 1-2.1.6 0 1 .6 1 1.4m-18.2 1.8c1.4 1.4 1.6 4.8.3 4.8-.5 0-1.1-.8-1.5-1.8-.3-.9-.9-2.3-1.2-3-.7-1.5.8-1.6 2.4 0m-2.3 2.8c1 3.2-.6 4.6-2.1 1.9-1.7-3.1-1.7-3.9 0-3.9.8 0 1.7.9 2.1 2m-3.5 1.5c.7 1.4 1 2.8.7 3.2-.8.8-3.6-2.6-3.7-4.5 0-2 1.6-1.4 3 1.3m-2.5 2.2c.3.9.1 2.1-.5 2.7-1.4 1.4-4.5-1.7-3.7-3.8.7-1.8 3.3-1.1 4.2 1.1"/><path d="M749.2 519.2c-.7.7-1.2 1.6-1.2 2.2s.5.5 1.2-.2 2-1.2 3-1.2c2.9 0 2.1 3.4-1.2 5.3-1.7 1-3 2.7-3 3.8 0 1.5.7 1.9 3.6 1.9 2.1 0 3.3-.4 2.9-1-.3-.6-1.5-1-2.6-1-2.4 0-2.5-1.7-.1-2.4 3-1 4.3-4 2.6-6.5-1.7-2.4-3.4-2.7-5.2-.9M758.7 519.7c-.4.3-.7 1.7-.7 3 0 1.9.5 2.3 3 2.3 2.3 0 3 .4 3 2 0 2.6-2.5 3.6-4.7 1.9-1.4-1.2-1.6-1.2-1.1.1.7 2.4 5.5 2.5 6.7.1 1.5-2.6.4-5-2.5-5.7-3.3-.8-3-3.2.4-3.7 2.6-.4 2.6-.4-.4-.6-1.7 0-3.4.2-3.7.6M785.4 520.4c-1.1.8-1.5 1.8-1 2.3.5.4 1.1.2 1.3-.5.3-.6 1.3-1.2 2.4-1.2 3 0 2.3 3.6-1.1 5.7-1.6.9-3 2.5-3 3.5 0 1.4.8 1.8 4.1 1.8 2.4 0 3.8-.4 3.4-1-.3-.6-1.7-1-3.1-1-3.2 0-3-1.1.6-3.2 3.5-2 4-5.2 1.1-6.8-2.5-1.3-2.3-1.3-4.7.4M795.3 520.5c-1 .8-1.4 1.7-.9 2.2.5.4 1.1.2 1.3-.5.3-.6 1.1-1.2 1.8-1.2 2.3 0 2.8 2.1.9 3.5-1.8 1.3-1.8 1.4-.1 1.5 2.4 0 2.3 4-.1 4-1 0-2.4-.6-3.1-1.3-1-1-1.2-.8-.9.8.4 2.3 4.2 3.2 6.3 1.5 1-.8 1.3-2.6 1-5.4-.2-2.2-.4-4.4-.4-4.7-.2-1.4-4.1-1.6-5.8-.4M776.1 520.9c-1.1.7-1.1 1 .2 1.7.9.5 1.7 2.7 2 4.9.3 3.3.4 3 .5-1.8.2-5.7-.2-6.4-2.7-4.8M768.8 526.7c.6.2 1.8.2 2.5 0 .6-.3.1-.5-1.3-.5s-1.9.2-1.2.5M690.3 545.7c-.7.3-1.2 1.7-1.2 3.1.2 2.4.2 2.4.6.4.5-2.4 2.2-2.9 4.1-1 1.7 1.7 1.5 3.3-.3 1.8-.9-.8-1.5-.9-1.5-.2 0 .6.5 1.4 1 1.7.8.5.7 1.2-.2 2.2-1 1.3-.9 1.5.7 1.2 2.8-.6 2.8-6.7 0-8.4-1.1-.7-2.6-1.1-3.2-.8M684.3 571.7c-5.3 3.6-.6 10.3 7.2 10.3 7.6 0 11.5-7.4 5.5-10.5-3.7-1.9-3.8-1.2-.2 2.1 2.7 2.5 2.7 2.5-.8 1.8-4.4-.9-5.7-.9-9.7 0-4.2 1-4.4-.8-.3-2.9 1.7-.9 3-1.8 3-2 0-1-2.6-.3-4.7 1.2m11.1 4.9c2.6 1 1.8 3.4-1.1 3.6-7 .3-11.3-1.3-8.3-3.2 1.7-1.1 7-1.3 9.4-.4M732.6 573.9c-.9 1-1.6 2.4-1.6 3.2 0 1.2.2 1.2 1-.1 1.2-1.9 2.2-.8 2.4 2.4.1 3.1 2.6 3.4 4.4.6 1.4-2.2.3-4.8-2.8-6.8-1.4-.8-2.1-.7-3.4.7m5.4 4.3c0 .6-.7.5-1.5-.2s-1.5-1.7-1.5-2.2c0-.6.7-.5 1.5.2s1.5 1.7 1.5 2.2M728 597.5c0 11.3.3 20.5.8 20.5.4 0 .9-9.2 1-20.5.3-14.1 0-20.5-.7-20.5-.8 0-1.1 6.6-1.1 20.5M731.6 622.6c-.8 2.1.2 3.3 1.3 1.6.6-1 1.2-.7 2.4 1.2 2.1 3.1 2.1 4 .2 3.2-.8-.3-1.5-.1-1.5.4 0 1.7 3.8 1.1 4.9-.7 1-1.8-.2-5.1-2.3-6.5-1.9-1.3-4.4-.9-5 .8m5.4 1.9c0 .3-.2.5-.5.5s-.5-.2-.5-.5.2-.5.5-.5.5.2.5.5M725.3 631.1c-1.8 1.2-3.3 2.7-3.3 3.4 0 .8 1.5 0 3.5-1.8 3.1-2.8 4-3.7 3.3-3.7-.2 0-1.8 1-3.5 2.1M721 639c0 .7.3 1 .7.7.3-.4.3-1 0-1.4-.4-.3-.7 0-.7.7M721 651.5c0 .3.2.5.5.5s.5-.2.5-.5-.2-.5-.5-.5-.5.2-.5.5M721 655.5c0 .3.2.5.5.5s.5-.2.5-.5-.2-.5-.5-.5-.5.2-.5.5M721 660.8c0 .5-1.6 1.7-3.5 2.8-1.9 1-3.5 2.2-3.5 2.6 0 .9 7.7-3 8.5-4.2.3-.5.1-1.1-.5-1.5-.5-.3-1-.2-1 .3M699 662.3c-1.9 1-2.6 2.1-2.8 5.3-.4 5.4 1.6 7.2 5 4.5 1.9-1.5 2.8-1.7 3.6-.9s1.2.8 1.2.1c0-.6-.7-1.7-1.6-2.4-1.4-1.1-1.9-1-3.5 1-2.3 2.8-3.9 2-3.9-1.9 0-5.2 5.2-6.1 9-1.5.8 1 1.6 1.2 2 .6.3-.6.7.4.8 2.2.2 1.7.4 4.5.5 6.1.2 3.5-2.4 5.7-5 4-2.6-1.6-2.7-3.2-.2-3.6 1.2-.2 2.4-.9 2.7-1.6.3-1-.3-1-3 .1-4.6 1.9-4.8 4.2-.3 5.8l3.5 1.3-.2 43.6-.3 43.5-11.9.1c-8.3 0-12.1.4-12.4 1.2-.4 1.4 24.3 1.8 25.2.4.2-.4.5-20.5.7-44.7.2-40.9.4-44.2 2.1-46.4 1-1.4 1.8-4 1.8-6.4 0-3.2-.7-4.6-3.9-7.8-4.2-4.2-5.3-4.5-9.1-2.6m8.5 2.7c.3.5.4 1 .1 1s-.8-.5-1.1-1c-.3-.6-.4-1-.1-1s.8.4 1.1 1"/><path d="M679.2 673.8c-1.8.9-3.5 2.6-3.8 3.8-.9 3.6 1.4 9 5.2 12.3 3.4 3 3.4 3 3.4 23.1v20h-29.9l-.3-5.3-.3-5.2-8.5-.6c-4.7-.3-23.1-.5-41-.5l-32.5.1v22l40.4.7c32 .6 40.6.5 41.3-.5.4-.6.8-2.9.8-4.9v-3.7l15.8-.3 15.7-.3.3-21.2.2-21.3 4-2.6c4.3-2.9 5.2-6.2 2.9-10.7-3.4-6.6-7.4-8.1-13.7-4.9m7.3.1c.8 1.4-1.3 2.4-3.3 1.6-1.4-.5-1.4-.7-.2-1.5 1.9-1.2 2.7-1.2 3.5-.1m-4 2.9c2.7 1.8 5.6 7.4 5.3 9.9-.4 3.5-4 4.3-7 1.6-5.1-4.6-6.1-12.3-1.5-12.3 1.2 0 2.7.4 3.2.8m8.3.4c.7.7 1.2 2 1.2 3 0 2.1-3 2.4-4.8.6s-1.5-4.8.6-4.8c1 0 2.3.5 3 1.2m2.2 6.6c0 .5-.9 1.7-2 2.7-1.9 1.8-2 1.7-2-.3 0-1.8 1.1-2.9 3.3-3.1.4-.1.7.3.7.7m-45.7 39.9 4.7.5V743h-13.8c-7.6 0-25.4-.3-39.5-.7l-25.7-.6V723l34.8.1c19.1.1 36.8.4 39.5.6"/><path d="M679.1 680.3c-1.6 1.6-1.4 2.4.9 3 1.1.3 2 1.2 2 2.1 0 2 1.4 2.1 2.9.2 2.4-2.9-3.2-7.9-5.8-5.3m4.9 2.8c0 .5-.4.9-1 .9-.5 0-1-.7-1-1.6 0-.8.5-1.2 1-.9.6.3 1 1 1 1.6M580.6 727.6c-2.3 2.2-2 4 .3 2 2-1.8 4.1-1.4 4.1.7 0 .7-1.6 2.5-3.5 4-4.2 3.4-3.8 4.7 1.6 4.7 2.4 0 3.8-.4 3.4-1-.3-.6-1.8-1-3.3-1-2.7-.1-2.7-.1.6-2.8 1.8-1.5 3.2-3.2 3.2-3.9 0-1.3-2.7-4.3-4-4.3-.5 0-1.6.7-2.4 1.6M589.6 728.6c-1.3 3.3-.6 4.4 2.4 4.4 2.3 0 3 .5 3 1.9 0 2.4-1.9 3.2-4.4 1.9-1.4-.8-1.7-.7-1.4.4.3.7 1.7 1.4 3.1 1.6 2.1.3 3-.3 3.8-2.2 1.4-3-.1-5.6-3.2-5.6-1.1 0-1.9-.5-1.9-1 0-.6 1.1-1 2.5-1s2.5-.5 2.5-1c0-1.7-5.7-1.2-6.4.6M607.7 728.4c-1.2.9-1.4 1.6-.8 2.1.6.3 1.1 2.4 1.1 4.6 0 2.1.5 3.9 1 3.9.6 0 1-2.7 1-6s-.1-6-.2-6c-.2 0-1.1.7-2.1 1.4M616 729c-.7 1.4-.7 2 0 2 .5 0 1-.5 1-1 0-1.4 3.7-1.3 4.6.2.4.6-.1 1.7-1.2 2.5-6.7 4.8-7 6.4-1.1 6.1 4-.1 4-.1.7-.5l-3.5-.5 3.4-2.7c2.8-2.3 3.3-3.2 2.7-5.4-.8-3.3-5-3.8-6.6-.7M628 730.5c-3 4-3.2 5.8-.5 6.4 1.1.2 2.3.8 2.8 1.5 1.3 2 2.5-1.4 2-5.8-.7-5.6-1.4-6-4.3-2.1m2 2.5c0 1.1-.7 2-1.5 2-1.8 0-1.9-1.2-.3-2.8s1.8-1.5 1.8.8M599 734c0 .5.9 1 2.1 1 1.1 0 1.7-.5 1.4-1-.3-.6-1.3-1-2.1-1s-1.4.4-1.4 1M509.7 707.5c.7 6 3.8 13 6.5 14.9 1.9 1.3 1.7 1.6-2.9 4.2-5.9 3.4-5.8 3.3-5.1 3.9.3.3 3.3-1.2 6.8-3.2 4.2-2.5 6.8-4.8 7.8-7.1 1.5-3.1 1.5-3.6-.3-7-1.4-2.4-3.6-4.4-7-6-2.7-1.4-5.3-3-5.7-3.6-.5-.6-.5 1.1-.1 3.9m6.2 4c3.1 3.6 3.9 5.9 2.3 6.9-1.3.8-6-4.5-6.7-7.7-1-3.7.6-3.4 4.4.8m4-.1c3 3.2 2.7 9.9-.5 10.4-1.1.2-2.7-.4-3.4-1.3-1.1-1.3-.9-1.5 1.1-1.3 3.3.4 3.7-3.2.9-7.2-2.5-3.6-1.3-4 1.9-.6M350.5 756c-1.6 1.1-2.5 2-1.9 2 1.1 0 6.4-3.9 5.4-4-.3 0-1.8.9-3.5 2M600 764.5c-1.7 2-.9 4.8 1.8 6.1s1.4 2.8-1.5 1.8c-1.4-.5-1.5-.4-.7.5 3.4 3.7 8-2.6 5.4-7.4-1.5-2.8-3.2-3.2-5-1m4 2.5c0 1.1-.6 2-1.4 2-1.8 0-2.9-1.6-2.1-3 1.1-1.8 3.5-1.1 3.5 1M608.5 764.6c-2.1 2.1-1.6 4.6 1.3 5.9 3.1 1.4 2.8 2.9-.5 2-2.2-.5-2.5-.4-1.6.6.7.7 2.2.9 3.7.5 2.2-.5 2.6-1.2 2.6-4.6 0-4.8-2.8-7-5.5-4.4m3.8 1.8c.7 1.6-.1 2.6-2 2.6-.7 0-1.3-.9-1.3-2 0-2.3 2.5-2.7 3.3-.6M616.7 764.7c-.4.3-.7 1.7-.7 2.9 0 1.7.7 2.5 2.5 3 1.4.3 2.2 1.1 1.9 1.6-.4.5-1.5.8-2.5.5-2.3-.6-2.5.8-.3 1.7 2.1.8 3.3 0 4.4-3 1.2-3.2-.4-7.4-2.8-7.4-1 0-2.2.3-2.5.7m4.1 2.6c.2 1.2-.3 1.7-1.7 1.7-1.2 0-2.1-.6-2.1-1.3 0-3.1 3.2-3.4 3.8-.4M624.5 765c.3.5 1.2.7 2 .3 1.6-.6 2.2 3.2.6 4.1-1.1.7-2.1 4.6-1.1 4.6.7 0 4-7.7 4-9.3 0-.4-1.4-.7-3.1-.7s-2.8.4-2.4 1M655.5 765.4c-2.1 1.5-1.7 7.5.7 9 2.2 1.3 3.5.1 4.2-3.9.6-3 .6-3-.5-.3-1.6 4.1-3.9 3.6-3.9-.8 0-3.1.3-3.6 2-3.1 2.3.6 2.8-.8.6-1.6-.8-.3-2.2 0-3.1.7M663.6 765.9c-3.1 3.4-1.5 9.1 2.6 9.1 3.3 0 3.7-9.1.4-10.3-.8-.3-2.1.2-3 1.2m4.2 2.9c.4 2.5-1.5 5.5-2.9 4.6-.5-.3-.9-2.1-.9-4 0-2.8.4-3.5 1.8-3.2.9.2 1.8 1.4 2 2.6M634.7 769.2c.8 5.9 1.3 6.1 1.3.5 0-2.6-.4-4.7-.9-4.7s-.7 1.9-.4 4.2M647.7 765.6c-.3.4-.2 1.5.3 2.5.6.9.7 2.4.4 3.2s-.1 1.8.5 2.2c.7.4 1.1-1 1.1-3.9 0-4.3-.7-5.5-2.3-4M671.5 766.4c-.3.9-.7 2.2-.9 2.8-.7 2.4 1.3 5.8 3.4 5.8 4.3 0 4.5-9.2.2-9.8-1.3-.2-2.4.3-2.7 1.2m4 3.7c0 2.4-.5 3.4-1.5 3.4-1.6 0-2.5-3.7-1.6-6.2 1-2.6 3.1-.8 3.1 2.8M641.8 770.7c.7.3 1.6.2 1.9-.1.4-.3-.2-.6-1.3-.5-1.1 0-1.4.3-.6.6M175 1249.9c-6 3.6-23.8 13.1-24.5 13.1-.3 0-.5-1.8-.5-3.9 0-3.4-1.2-5.1-3.5-5.1-.4 0-7.5 11.2-10.4 16.3-1 1.7-3.3 5.5-5.1 8.4s-3 5.8-2.7 6.6c.7 1.9 19.8 14.8 20.8 14.1.5-.3.9-3.1.9-6.2 0-6.2-.3-5.7 7.9-10.5 2-1.1 8.6-4.8 14.6-8.2l11-6.2.5-8.8c.5-9.4.5-9.7-2.5-11.2-1.6-.8-3-.4-6.5 1.6m7 4.8c0 3.4-.1 3.6-1.4 1.7-1.4-1.8-1.6-1.8-4.3-.2-2.1 1.3-3 2.7-3.6 6.3-.4 2.5-.4 5.2 0 6 1.3 2.2 5.4-.3 7.5-4.5l1.8-3.5-.3 3.5c-.2 3.2-.8 3.8-6.7 7.1-3.6 1.9-8.1 4.5-10 5.6s-6.5 3.6-10.2 5.7c-6.8 3.8-6.8 3.8-6.8 8.7 0 2.7-.4 4.9-.8 4.9-.8 0-9.9-5.6-13.7-8.3-2.3-1.7-2.8-.6 7.9-18.2 6.1-10 6.1-10 6.4-5.7q.3 4.35 1.5 3.9c.7-.2 8-4.1 16.2-8.6 8.3-4.4 15.3-8.1 15.8-8.1.4 0 .7 1.7.7 3.7m-3 6.7c0 3.3-1.5 5.6-3.6 5.6-.9 0-1.1-1.1-.7-3.8 1-6.7 4.3-8.1 4.3-1.8"/><path d="M169.2 1260.2c-.7.7-1.2 2.5-1.2 4s-.4 2.8-1 2.8c-.5 0-1-.9-1-2.1 0-3.3-2.2-1.7-3.6 2.7-1.2 3.9-1.2 3.9-1.3.6-.1-1.7-.3-3.2-.6-3.2-.6 0-7.7 4-9.2 5.2s-1.8 12.8-.3 12.8c.6 0 1-1.3 1-2.9 0-2 .9-3.6 2.8-5.1 2.7-2.1 2.7-2.1 0-1.5-3.9.8-3.7-1.6.3-3.9 1.7-1 3.2-1.6 3.4-1.4.3.2.8 2.1 1.2 4.2 1.1 5 2.6 5 3.8-.2 1.1-4.5 2.5-4.7 2.5-.3 0 4.1 1.8 1.2 3.5-5.7 1.7-6.7 1.7-8-.3-6"/></svg>