<svg xmlns="http://www.w3.org/2000/svg" viewBox="0 0 866.139 1219.337" fill="currentColor"><path d="M465.695 347.83c-1.408 1.493-1.823 4.491-.623 4.497.3.002 1.404-.693 2.408-1.588 1.909-1.69 3.906-1.18 3.895 1.02-.003.6-1.613 2.692-3.523 4.582s-3.521 4.183-3.526 5.183c-.008 1.5.79 1.804 4.99 1.825 3.8.02 5.002-.375 5.008-1.475.005-1-.992-1.505-3.192-1.516l-3.2-.016 3.216-3.284c3.62-3.682 4.134-6.579 1.446-8.993-2.19-2.11-5.29-2.126-6.899-.235M477.595 347.89c-1.911 2.191-2.549 9.588-1.063 12.495 2.476 4.713 9.785 2.85 9.812-2.45.015-3-3.37-5.917-5.973-5.23-1.602.392-2.001.09-1.795-1.11.307-1.298 1.308-1.593 4.307-1.378 4 .22 4 .22 1.61-1.791-2.69-2.314-5.088-2.526-6.898-.535m5.25 10.027c-.007 1.3-.811 2.096-2.212 2.29-1.902.29-2.3-.112-2.289-2.312s.413-2.598 2.312-2.289c1.399.207 2.195 1.011 2.188 2.311M492.095 347.964c-.404.798-1.308 1.493-2.208 1.489-.8-.004-1.503.692-1.507 1.492s.692 1.504 1.392 1.507c1.1.006 1.592 1.508 1.774 5.21.18 3.9.673 5.303 1.773 5.308 1.2.006 1.507-1.492 1.34-7.993-.062-7.4-1.246-10.606-2.564-7.013M499.991 348.704c-3.223 4.584-1.267 13.294 3.127 14.516 3.495.918 6.213-2.569 6.24-8.068.026-5-2.256-8.612-5.456-8.628-1.3-.007-3.105.984-3.911 2.18m6.17 6.131c.18 3.601-.126 4.9-1.328 5.294-2.104.889-2.8-.015-3.08-3.816-.277-4.701.535-6.997 2.433-6.588 1.299.207 1.792 1.61 1.974 5.11M439.38 350.697c-4.405 1.078-4.506 1.277-4.526 5.077s.08 3.9 4.477 4.623c5.795 1.03 7.898.34 9.217-3.253.71-2.097 1.614-2.892 3.414-2.883 2.8.014 3.208-1.484.714-2.796-3.19-1.717-8.69-2.044-13.296-.768m10.591 1.754c.397.702.296.801-.502.397-.697-.503-1.301.294-1.712 2.392-.82 3.896-1.621 4.292-7.017 3.464-3.898-.52-4.496-.923-4.186-2.821.206-1.199 1.414-2.693 2.817-3.386 3.108-1.584 9.609-1.651 10.6-.046M477.281 370.29c-.005 1.1.489 2.302.987 2.604.598.403 1.003-.495 1.01-1.895s-.387-2.602-.987-2.605c-.5-.002-1.004.895-1.01 1.895M72.231 379.24l-.055 10.8 4.597.722c2.598.314 11.597.66 19.996.702l15.4.078-.18 35.7c-.292 37.898-.294 38.198-5.001 39.674-1.302.394-2.71 1.887-3.216 3.184s-1.713 2.391-2.513 2.387c-.9-.004-2.207 1.49-3.016 3.185-.709 1.797-2.32 4.089-3.425 4.983-1.206 1.094-2.115 2.99-2.124 4.69-.008 1.6-.717 3.396-1.621 4.191-1.004.795-1.411 2.193-1.12 3.794.293 1.602-.116 3.3-1.021 4.295-1.207 1.394-1.31 2.094-.416 3.098.596.803.787 2.704.478 4.403-.614 2.797-.316 3.198 3.973 5.32 2.494 1.213 4.387 2.622 3.984 3.12-.302.499-1.8.191-3.396-.617-2.394-1.212-2.794-1.314-2.4-.112.69 1.803 8.969 6.245 13.264 7.067 4.196.821 10.906-1.145 12.219-3.538.505-.998 1.909-1.79 3.009-1.785s2.405-.988 3.011-2.285 2.014-2.69 3.216-3.184c1.303-.593 2.31-2.088 2.52-3.787.207-1.499.913-2.695 1.713-2.691 1.7.008 3.516-3.082 3.53-5.882.006-1.2.41-2.098.81-2.096 1.6.008 3.124-4.685 2.03-5.79-.796-.804-.592-1.503.513-2.598 1.91-1.99 1.548-9.392-.728-14.303-2.87-6.015-15.438-12.279-18.952-9.396-.804.695-1.905.89-2.503.487s-.936-12.505-.817-36.005l.18-35.5 19.3-.102 19.201-.202.056-11 .056-11-40.198-.504-40.299-.404zm66.34-7.865 13.697.67-.045 9-.045 8.9-39.197-.7c-21.598-.409-39.397-.799-39.497-.8-.2-.1-.278-4.2-.254-9.1l.046-9 25.8.13c14.3.072 31.998.462 39.496.9m-15.782 95.221c-.003.6-.705.997-1.505.993s-1.499-.208-1.498-.408-.293-1.201-.689-2.103c-.492-1.503-.292-1.602 1.503-.593 1.197.706 2.192 1.611 2.19 2.111m-6.494-1.033c.297.502-.105 1-.905.996-.9-.005-1.598-.508-1.595-1.008.003-.6.405-.998.905-.996.6.003 1.298.407 1.595 1.008m-1.711 2.192c1.69 1.708 1.485 2.807-.615 2.797-1.9-.01-4.19-1.821-4.183-3.221.006-1.2 3.504-.883 4.798.424m11.2-.043c-.004.7.995.905 2.497.512 1.803-.49 2.501-.187 2.496.913-.004.8.892 1.504 1.892 1.51 1.4.006 1.798.509 1.39 2.006-.306 1.199.089 2.2.987 2.505.998.506 1.39 1.908 1.173 5.306-.431 6.298-.532 6.398-1.806 1.191-1.372-5.407-6.054-9.03-11.654-9.059-10.2-.051-23.08 15.784-23.446 28.882-.117 3.2.365 6.902 1.158 8.306 1.683 3.208 6.67 5.734 11.57 5.759 2.3.011 3.399.417 2.995 1.115-.403.598-1.404.793-2.202.489-.799-.304-1.999-.31-2.601.086-2.006 1.19-7.604.862-8.197-.541-.197-.701-1.294-1.207-2.195-1.011-1.301.193-1.7-.209-1.492-1.608.205-1.099-.387-2.502-1.284-3.206-1.295-1.007-1.391-1.707-.583-3.303.706-1.297.81-2.196.113-2.6-1.396-.807-1.277-4.506.123-4.5.7.004.905-1.095.613-2.696-.29-1.802.119-3.6 1.427-5.193 1.106-1.294 1.716-3.191 1.42-4.093-.394-1.102.312-2.298 2.018-3.39 1.404-.893 2.512-2.487 2.518-3.587.006-1.3 1.012-2.395 2.515-2.987 1.402-.493 2.71-1.987 3.118-3.485.409-1.797 1.312-2.493 3.012-2.484 1.3.006 2.805-.886 3.41-1.983.808-1.496 1.71-1.891 3.507-1.382 1.798.409 2.7.113 3.105-.985.71-1.796 2.411-2.187 2.403-.487m-16.412 2.316c.996.806 1.392 1.508.792 1.505-.5-.003-1.896-.71-2.992-1.516-.996-.805-1.392-1.507-.792-1.504.5.003 1.896.71 2.992 1.515m-.018 3.6c.991 1.705-1.216 3.194-3.512 2.383-1.997-.61-2.783-3.414-1.476-4.808.803-.696 3.996.82 4.988 2.425m-6.212 2.369c2.291 1.712 1.282 3.407-1.11 1.894-1.894-1.21-2.883-3.414-1.583-3.408.4.002 1.697.709 2.693 1.514m27.792 1.64c2.785 2.915 2.982 3.516 2.555 8.914-.856 10.996-9.923 24.15-18.436 26.707-4.907 1.475-10.3-.052-11.483-3.358-3.65-9.719 3.127-24.985 14.365-32.628 5.419-3.573 9.118-3.454 12.999.366m-19.62 3.901c-5.028 5.375-8.56 11.857-9.794 18.451-.819 3.696-.818 3.596-.395-1.002.214-2.799 1.335-6.893 2.446-9.088 2.122-4.289 9.968-13.35 11.568-13.341.5.002-1.212 2.294-3.825 4.98m-8.593-1.543c.895 1.104.99 1.905.287 2.601-1.407 1.393-5.297-.626-5.287-2.626s3.41-1.883 5 .025m-4.615 3.077c1.497.607 2.283 3.411.983 3.405s-4.39-2.123-4.385-3.023c.005-1.1 1.106-1.294 3.402-.382m-.024 4.7c1.793 1.309 1.276 4.706-.824 4.695-1.8-.009-3.59-2.118-3.578-4.218.01-2.1 1.911-2.29 4.402-.477m37.581 3.79c-.003.6-.406 1.298-1.008 1.595-.501.297-1-.105-.995-.905.004-.9.508-1.598 1.008-1.595.6.003.998.405.995.905m-41.603.49c.899.304 1.595 1.007 1.593 1.507-.007 1.4-2.605.987-3.997-.62-1.292-1.606-.29-2.001 2.404-.888m.677 4.503c2.294 1.211 1.586 2.908-1.114 2.894-2.1-.01-3.393-1.517-2.485-3.012.807-1.296 1.206-1.194 3.6.118m-2.12 3.89c.798.503 1.195 1.205.893 1.504-.804.796-3.897-.52-3.892-1.62.006-1.1 1.106-1.095 3 .115m1.08 4.005c2.394 1.312 2.485 3.012.185 3-2.6-.013-4.692-1.623-3.885-2.92.907-1.395 1.207-1.393 3.7-.08"/><path d="M80.752 375.082c-2.11 2.09-1.913 2.59.594 1.203 3.108-1.584 5.196.727 2.486 2.713-1.806 1.19-1.807 1.39-.307 1.399 2.3.011 3.386 2.917 1.58 4.108-2.007 1.19-2.506 1.087-4.496-.923-1.692-1.609-1.792-1.61-1.1.094.395 1.002.689 2.104.688 2.304s1.298.406 2.898.414c3.7.02 4.615-2.976 3.256-11.083-.192-1.501-4.192-1.621-5.599-.229M92.057 374.14c-.9.195-1.905 1.09-2.21 1.888-.608 1.597.89 1.905 1.898.41.806-1.196 1.606-1.192 3.5.018 1.296.806 1.195 1.106-.411 2.298-1.706 1.191-1.707 1.391-.21 1.999.898.404 1.593 1.308 1.589 2.108-.01 1.8-3.015 2.985-4.408 1.577-1.492-1.507-2.594-1.213-2.003.49.691 1.804 5.69 2.03 7.2.237.603-.697.815-3.096.527-5.498-.578-4.403-2.368-6.212-5.472-5.527M109.04 377.626c-3.423 4.382-3.528 5.482-.332 6.298 1.398.407 2.494 1.113 2.492 1.613-.008 1.6 1.694 1.108 2.403-.588.404-.898.21-2.2-.286-2.802-.497-.602-1.087-2.705-1.277-4.606l-.282-3.502zm2.185 2.91c-.006 1.1-.71 1.997-1.51 1.993-1.7-.009-1.8-.209-.888-2.404.912-2.296 2.41-1.988 2.398.412M116.25 375.562c-.002.5 1.395 1.007 2.995 1.015 3.5.018 3.697.619.98 4.005-2.114 2.69-2.63 5.987-1.03 5.995.6.003 1.003-.695 1.007-1.495.005-.9.917-3.295 2.028-5.49 1.111-2.194 2.021-4.19 2.023-4.49.001-.3-1.798-.509-3.998-.52-2.2-.01-4.002.38-4.005.98M128.847 376.126c-1.706 1.291-1.707 1.491-.31 2.098 1.198.406 1.69 1.809 1.677 4.509-.01 2.1.48 3.902.98 3.905.6.003 1.014-2.695 1.03-5.995.033-6.3-.365-6.802-3.377-4.517M100.22 381.481c-.003.5.895 1.005 1.995 1.01s2.002-.49 2.005-.99c.003-.6-.895-1.004-1.995-1.01-1.1-.005-2.002.39-2.005.99M119.73 478.281c-2.905.985-9.24 7.753-11.562 12.242-5.05 9.774-2.901 19.985 4.199 20.021 6 .03 14.037-7.229 17.28-15.713 2.735-6.986 2.552-10.387-.529-14.102-2.485-3.013-5.58-3.829-9.388-2.448m5.375 5.027c-1.235 6.994-5.576 15.072-10.6 19.747-5.225 4.873-6.427 5.267-7.315 2.863-3.256-8.717 7.134-26.364 15.534-26.322 3 .015 3.1.116 2.38 3.712m2.973 5.315c-.83 5.896-5.973 14.37-10.688 17.447-5.92 3.87-6.515 2.867-1.488-2.408 5.127-5.374 9.264-12.753 10.293-18.448 1.128-5.395 2.712-2.386 1.883 3.41m1.281 3.707c-.401.298-.7-.004-.696-.704.003-.7.305-.998.703-.696a1.2 1.2 0 0 1-.007 1.4M477.21 384.39c-.017 3.3.37 6.001.97 6.004s1.013-2.695 1.03-5.995-.37-6.002-.97-6.005-1.013 2.695-1.03 5.995M477.856 395.093c-1.105.994-.861 12.095.235 12.8.598.404 1.01-1.994 1.033-6.394.035-7.1-.061-7.7-1.268-6.406M477.855 414.993c-1.105 1.094-1.062 12.195.035 12.9.498.303 1.099.206 1.3-.193.609-1.497-.63-13.504-1.335-12.707M349.874 430.645c-1.305 1.094-2.11 2.19-1.713 2.592.398.402 1.4.007 2.405-.888.905-.996 2.407-1.388 3.505-1.082 2.296.811 2.605-.987.31-1.899-2.096-.81-1.896-.91-4.507 1.277M477.659 434.092c-.203.5-.117 3.3.268 6.302.767 6.403.868 6.304 1.503-.693.324-4.698-.56-7.703-1.771-5.609M360.95 435.301c-.002.6 7.273 5.537 8.173 5.542 1.9.01.509-1.698-3.18-3.816-3.89-2.22-4.988-2.626-4.992-1.726M347.808 443.735c-.528 5.497-.434 6.798.67 5.803.302-.298.416-2.998.23-5.898l-.272-5.402zM374.112 443.068c.492 1.503 8.768 6.245 8.774 5.045.005-.9-7.368-6.238-8.568-6.244-.3-.001-.403.498-.206 1.2M477.678 449.992c-.102.5-.213 2.5-.222 4.4-.116 3.099-.418 3.497-3.02 3.784-2.5.287-2.702.586-2.215 2.989 1.862 7.61 2.644 11.213 3.717 16.519.684 3.203 1.67 5.808 2.07 5.81.901-.095 1.367-32.893.472-33.798-.298-.401-.7-.203-.802.296M386.873 450.733c-.003.7 9.269 6.247 10.569 6.253 1.4.007-.99-2.105-5.178-4.426-5.085-2.926-5.385-3.027-5.39-1.827M347.416 461.933c-.513 2.598-.528 5.598-.033 6.5.593 1.403.894 1.105 1.208-1.494.208-1.699.223-4.699.033-6.5-.385-3.002-.386-2.802-1.208 1.494M402.824 460.514c.696.803 1.792 1.509 2.392 1.512s2.196.91 3.59 2.018c2.69 2.114 3.987 2.52 3.994 1.22.005-.9-9.069-6.246-10.469-6.253-.4-.002-.203.7.493 1.503M419.377 469.898c.497.502 2.59 1.913 4.684 3.123 2.791 1.714 3.69 1.919 3.695.919.004-.8-1.589-2.208-3.484-3.118-3.79-1.819-6.588-2.333-4.895-.924M431.465 472.259c-2.106 1.19-4.731 6.076-4.745 8.876-.008 1.5 2.083 3.41 7.366 6.737 9.967 6.45 10.458 8.353 4.297 20.222-2.423 4.688-4.743 8.576-5.344 8.773-.5.098-2.584-3.113-4.463-7.222-3.561-7.819-4.856-8.825-8.968-6.346-1.706 1.092-2.206.989-2.9-.015-.496-.802-2.693-1.513-4.892-1.624-2.3-.112-4.398-.523-4.796-.825-.298-.401-1.9-.21-3.602.382-4.308 1.478-6.333 6.568-4.556 10.977 1.68 4.109 3.87 6.02 7.169 6.237 3.1.115 3.096.715-.018 3.6-2.412 2.287-2.412 2.287-5.499-.328-2.688-2.314-3.687-2.619-7.79-2.14-5.603.772-8.712 2.456-9.526 5.252-.408 1.698.983 3.305 6.66 7.834 3.984 3.22 8.069 6.34 9.166 6.946 1.694 1.009 1.693 1.209-.42 3.898-3.623 4.482-2.93 5.986 5.54 11.729 4.186 2.82 8.57 6.043 9.565 7.048 2.19 2.011 9.97 5.85 11.87 5.86.8.004 3.095 1.116 4.988 2.525 1.993 1.31 5.582 3.529 7.875 4.84 2.394 1.313 8.176 4.742 12.962 7.666 8.674 5.144 11.17 5.957 12.279 4.162.806-1.296 4.806-1.275 6.1.031.696.704 1.896.81 3.499.218 1.303-.594 4.407-1.478 6.91-2.165s5.108-1.374 5.809-1.57c.6-.198 1.204-.895 1.208-1.695.004-.7 2.914-2.685 6.423-4.367 5.814-2.87 6.417-3.468 7.035-6.965.41-2.098 1.024-4.695 1.23-5.794.407-1.598-.388-2.602-3.379-4.317-3.889-2.22-3.889-2.22-7.999-.24-6.616 3.166-8.213 2.558-7.384-3.138.412-2.398 1.115-2.894 5.62-3.871 7.909-1.76 8.21-1.859 10.72-4.046 1.306-1.093 3.612-2.282 5.113-2.574 3.604-.682 5.616-3.072 5.937-7.27.322-4.299-1.46-7.808-4.654-9.024-3.493-1.418-3.174-5.216.845-8.896 2.913-2.685 3.116-3.184 2.028-5.59-2.274-5.111-9.928-14.15-13.519-16.068-1.994-1.11-4.183-3.221-4.875-4.825-.593-1.503-2.384-3.312-3.88-4.02-1.597-.608-2.792-1.514-2.79-1.814.005-1.2-5.387-2.827-13.48-4.068-5.496-.828-9.39-2.148-12.58-4.164-2.492-1.512-5.686-2.729-6.986-2.635-1.3.093-5.393-1.527-8.983-3.546-7.18-4.036-7.579-4.138-10.186-2.651m8.681 3.644c5.685 3.129 6.58 4.033 5.87 6.03-.405.997.295.901 2.502-.388 2.908-1.585 3.208-1.584 6.699.234 4.388 2.422 5.183 3.426 3.377 4.617-2.006 1.19-.412 2.198 3.587 2.418 2.4.013 3.502-.382 3.507-1.282.005-1 .706-1.196 2.304-.888 1.199.306 4.296.922 6.994 1.235 2.598.413 4.994 1.226 5.391 1.828s-.004.8-.902.495c-.898-.405-3.695-1.019-6.293-1.432-3.498-.518-4.598-.423-4.103.48.397.601 2.195 1.11 3.894 1.22 1.8.108 4.298.52 5.695 1.028 1.597.508.497.602-3.201.184-3.498-.318-5.8-.13-5.802.47-.006 1.1 5.588 2.229 11.688 2.26 2.3.011 4.299.321 4.496.822.198.401 3.186 2.716 6.774 5.135 6.977 4.635 15.325 14.877 14.71 17.874-.308 1.499-1.81 1.891-8.812 2.356-8.902.455-12.298-.362-18.278-4.493-1.594-1.008-3.091-1.615-3.393-1.317-.804.796-.704.796 5.477 4.528 4.686 2.824 6.184 3.131 13.184 3.167 7.9.04 7.9.04 6.785 3.134-1.015 2.895-1.316 3.093-5.214 2.674-3.398-.418-8.488-2.343-14.771-5.675-.5-.203-.8-.004-.803.496-.008 1.6 10.869 6.255 17.462 7.488 6.894 1.235 10.482 3.653 10.465 7.053-.016 3.1-1.935 6.89-3.535 6.882-1.7-.008-5.009 1.675-7.82 3.96-2.811 2.187-13.521 4.133-15.915 2.82-2.493-1.312-3.9-.12-1.506 1.293 1.496.807 1.691 1.708 1.073 5.305-.93 5.996 1.263 7.207 8.478 4.443 4.608-1.676 5.409-1.772 7.302-.463 1.993 1.41 1.992 1.51-2.117 3.29-2.205.988-4.11 2.079-4.112 2.479-.006 1.1.195 1 4.504-.777 2.004-.79 3.906-1.28 4.205-1.08.199.302-.01 2-.42 3.799-.713 2.696-2.02 3.99-6.33 6.268-3.009 1.585-5.919 3.47-6.323 4.268-1.109 1.794-5.319 3.773-11.026 5.144-4.505 1.077-5.105.974-9.991-1.75-8.576-4.744-9.572-5.549-10.558-8.354-1.084-3.106-17.832-13.39-20.237-12.503-.902.396-2.108 1.69-2.815 3.086-1.514 2.693-1.815 2.791-5.407 1.373-1.398-.507-2.592-1.713-2.587-2.613.007-1.4-.293-1.402-1.498-.408s-2.204.789-5.493-1.428c-2.193-1.41-3.983-3.32-3.979-4.22.006-1.1-.493-1.402-1.695-1.009-.902.396-1.901.29-2.199-.21-.298-.402-2.988-2.316-5.778-4.23-3.689-2.319-5.28-4.027-5.272-5.527.014-2.8 3.834-6.78 6.03-6.17 1.3.307 1.702-.19 1.714-2.49.01-2-.388-2.503-1.091-1.806-2.714 2.686-9.896-.95-19.949-10.201-1.493-1.408 2.425-4.888 5.324-4.773 1.4.007 3.501-.183 4.603-.577q2.104-.59 4.791 1.824c2.29 1.912 2.685 2.914 2.074 5.11-.307 1.4-1.515 3.093-2.518 3.688-1.103.494-1.708 1.391-1.41 1.993 1.29 1.906 2.596.713 5.123-4.574 3.132-6.384 4.942-8.275 5.83-5.97.295.9.087 2.5-.418 3.497-1.514 2.793-1.238 7.594.455 9.003.896.704 3.391 1.717 5.789 2.129 10.788 2.355 10.888 2.355 12.298.462 2.114-2.79 1.72-4.091-.59-2.003-1.507 1.393-2.908 1.585-6.505.967-2.599-.313-4.893-1.325-5.19-2.126-.394-1.102-.893-1.205-1.898-.31-2.108 1.69-3.4.083-3.38-4.017.02-3.8 2.94-7.985 3.728-5.481.197.701 2.195 1.011 4.796.824 3.902-.28 4.5-.077 4.492 1.623-.006 1.1.888 2.405 2.085 3.01 2.892 1.615 3.798.32 1.108-1.594-2.492-1.712-3.07-6.015-.675-5.003.799.304 1.5.107 1.502-.393.003-.6-.495-1.002-1.095-1.005-.5-.003-.697-.504-.294-1.102.303-.598.207-1.399-.491-1.802-.598-.403-1.285-2.907-1.572-5.608-.286-2.702-.873-5.305-1.47-5.908-1.592-1.608-1.177-4.606.823-4.596 1.1.006 2.69 2.014 4.471 5.823 1.484 3.108 2.67 6.114 2.667 6.614s.792 1.404 1.689 2.108c1.395 1.007 1.492 1.608.486 2.803s-.908 1.495.79 2.004c2.497.612 2.582 3.513.273 5.301-1.004.695-1.408 1.593-1.01 2.095.497.403 1.7-.191 2.706-1.386 1.51-1.893 1.615-2.892.831-6.096-.882-3.505-.577-4.603 3.765-12.881 4.646-9.077 5.055-10.775 4.787-17.076-.09-2.1-.684-3.204-1.784-3.21-.8-.003-4.19-1.82-7.48-4.037-6.577-4.534-7.365-6.838-3.645-10.719 2.714-2.886 2.914-2.885 9.197.447m-32.042 28.138c.994 1.105 1.49 2.007 1.09 2.005-1.4-.007-4.59-2.123-4.585-3.023.008-1.6 1.605-1.092 3.495 1.018m-1.113 2.394c2.295 1.012 4.893 1.525 6.495 1.133 2.002-.39 2.201-.289 1.097.506-2.207 1.389-5.706 1.17-9.097-.546-5.286-2.827-6.601.266-2.327 5.388 1.788 2.21 2.184 3.111 1.084 3.106-1.9-.01-4.678-4.324-4.663-7.324.011-2.2 1.925-4.99 3.022-4.385.3.202 2.295 1.112 4.39 2.122m8.607-1.356c-.002.5-.905.995-2.105.99-1.1-.006-1.697-.51-1.394-1.008.303-.598 1.305-.993 2.105-.99.8.005 1.397.408 1.394 1.008m-4.83 5.975c2.2.112 2.2.112.393 1.503-1.104.794-2.608 1.486-3.508 1.482-1.9-.01-5.085-2.926-5.076-4.726.005-1.1.505-1.097 2.999.215 1.596.808 3.892 1.52 5.192 1.526m9.686 2.75c.585 3.103 1.065 7.005 1.057 8.605-.014 2.8-.215 2.899-3.112 2.284-1.698-.308-4.197-.621-5.497-.628-2.1-.01-2.397-.512-2.38-3.812.021-4.3 2.641-8.186 5.541-8.172 1.1.006 1.503-.492 1.207-1.394-.593-1.403.013-2.6 1.313-2.593.4.002 1.187 2.606 1.871 5.71m-11.914 2.74c-.001.3-.202.498-.502.497s-.5-.203-.498-.503.203-.499.503-.497c.3.001.499.202.497.502m31.051 49.257c8.08 4.141 14.556 8.774 15.046 10.776.294 1.202 2.583 3.413 5.075 5.026 4.386 2.622 5.176 4.726 1.776 4.71-1.5-.008-8.483-3.444-11.272-5.658-.797-.604-3.488-2.318-5.981-3.63-8.277-4.642-11.965-7.06-11.961-7.76.004-.9 3.026-5.086 3.626-5.083.3.002 1.896.71 3.691 1.62"/><path d="M446.639 497.236c-.007 1.2 8.864 7.045 10.764 7.054.6.003 1.203-.493 1.205-.993.003-.6-.695-1.004-1.495-1.008s-1.495-.908-1.49-2.008c.012-2.3-3.079-4.115-3.79-2.119-.304.899-1.003.795-2.797-.414-1.296-.807-2.394-1.112-2.397-.512M467.572 510.342c4.585 3.123 5.982 3.63 5.99 2.23.004-.9-7.474-5.238-9.174-5.246-.7-.004.693 1.403 3.184 3.016M416.769 550.485c-1.004.795-1.609 1.692-1.31 1.994.298.301 1.4-.093 2.504-.788 1.004-.794 1.608-1.691 1.31-1.993-.299-.301-1.4.093-2.504.787M422.365 551.214c-.004.8 3.185 2.916 4.385 2.922 1.5.008.308-1.599-1.886-2.71-1.397-.607-2.496-.712-2.499-.212M426.338 556.634c-.705.896-1.11 1.794-.81 1.996.298.301 1.1-.095 1.805-.991.704-.897 1.109-1.794.81-1.996-.299-.302-1.1.094-1.805.99M184.939 476.811c-2.207 1.289-1.129 5.594 1.57 5.908 2.997.515 2.789 2.214-.411 2.198-1.4-.007-2.302.388-1.905.99 1.19 1.906 4.494 1.023 5.507-1.372 1.013-2.695.333-6.698-1.361-7.807-1.395-1.007-1.795-1.009-3.4.083m3.284 3.117c-.004.7-.608 1.497-1.209 1.694-.801.296-1.298-.407-1.291-1.707.006-1.3.51-1.997 1.309-1.793.598.303 1.194 1.106 1.19 1.806M201.238 476.994c-.303.598.293 1.401 1.39 1.807 1.897.71 1.996.91.583 3.603-1.817 3.29-1.924 4.59-.524 4.597.6.003 1.004-.695 1.008-1.595s.915-2.895 2.124-4.59c1.208-1.593 2.015-3.09 1.816-3.19-1.195-1.006-5.893-1.43-6.397-.632M347.438 477.434c-1.106.994-.863 12.295.237 12.3.6.004 1.014-2.794 1.033-6.494.033-6.5-.064-7.1-1.27-5.806M192.83 478.351c-1.508 1.792-.322 4.598 1.978 4.61 1 .005 1.898.41 1.894 1.01-.002.5-.905.995-2.005.99s-2.002.39-2.005.99c-.002.5 1.095 1.005 2.495 1.012 2.8.014 4.217-3.279 3.138-7.484-.686-2.804-3.582-3.418-5.494-1.128m3.89 2.12c-.004.8-.707 1.496-1.507 1.492s-1.497-.707-1.493-1.507.708-1.497 1.508-1.493 1.496.708 1.492 1.508M209.228 479.034c-.813 2.496.079 4.1 1.882 3.41 1.804-.691 3.093 1.515 1.786 2.809-.804.796-1.603.692-2.798-.315-1.494-1.207-1.694-1.208-1.2.094.589 2.103 5.387 2.528 6.096.631.912-2.295-.078-4.3-2.574-5.113-2.196-.81-2.196-.81.106-1.2 3.003-.584 2.812-2.285-.188-2.3-1.6-.008-2.704.686-3.11 1.984M217.626 479.477c-2.326 4.988 1.345 10.706 4.763 7.324 2.01-1.89.828-5.696-1.772-5.71-1-.004-1.897-.509-1.894-1.109.004-.7 1.005-.895 2.702-.386 2.297.511 2.498.412 1.404-.893-1.888-2.31-3.99-2.02-5.203.774m4.073 5.22c-.004.9-.707 1.397-1.706 1.192-2.497-.513-2.786-2.815-.386-2.802 1.2.006 2.097.61 2.092 1.61M239.03 478.685c-.704.796-1.315 2.993-1.325 4.893-.015 3 .381 3.702 2.579 4.213 2.896.815 4.403-.677 4.422-4.377.026-5.1-3.061-7.716-5.676-4.73m3.87 6.02c-1.618 3.491-3.216 3.083-3.197-.817.022-4.2.927-5.195 2.917-3.285 1.194 1.206 1.19 2.006.28 4.102M231.727 479.248c-1.104.794-1.206 1.194-.208 1.599.599.203 1.19 1.806 1.183 3.406-.009 1.6.485 2.902.985 2.905.6.003 1.01-1.995 1.023-4.495.023-4.7-.474-5.202-2.983-3.415M246.429 478.922c-1.508 1.493-.512 2.298 2.091 1.71 2.403-.587 2.503-.486 1.396.808-.906 1.095-1.01 1.795-.212 2.299 1.496.908 1.183 3.506-.417 3.498-.8-.004-1.597-.608-1.894-1.31-.197-.6-.795-.904-1.197-.506-.804.796 1.18 3.806 2.58 3.813 1.9.01 3.716-3.08 3.432-6.182-.191-1.801-.382-3.602-.38-4.102-.095-.9-4.495-.923-5.4-.028M254.62 480.664c-2.325 4.988 1.547 10.508 4.863 7.224 1.508-1.492 1.934-6.59.744-8.596-1.19-1.906-4.495-1.023-5.607 1.372m4.584 3.123c-.01 2-.615 3.097-1.716 3.291-1.502.293-1.798-.409-1.784-3.309s.318-3.598 1.817-3.29c1.099.205 1.693 1.308 1.683 3.308M225.202 484.115c.298.501.995 1.005 1.595 1.008.5.003.903-.495.905-.995.003-.6-.695-1.004-1.595-1.009-.8-.004-1.202.394-.905.996M222.566 511.102c-.107 21-.107 21-2.612 21.987s-5.528 5.572-5.544 8.672c-.01 1.9 7.153 9.336 8.953 9.345.6.004 1.903-.49 2.906-1.185 1.605-.992 3.003-.585 8.289 2.242 3.39 1.817 7.479 4.138 8.973 5.246 3.289 2.316 4.689 2.323 6.4.032 2.718-3.486 1.626-4.992-7.945-10.74-7.678-4.54-9.47-6.148-9.858-8.45-.489-2.203-1.483-3.308-4.178-4.222l-3.494-1.317.108-21.3c.068-13.5-.292-21.302-.892-21.305s-1.04 7.695-1.106 20.995m-1.726 24.792c.694 1.103-3.13 5.784-4.025 4.88-.398-.403-.19-1.802.416-3.199 1.113-2.494 2.617-3.187 3.609-1.681m9.39 1.947c.196.801-.606 1.297-2.006 1.29-1.3-.007-2.903.485-3.606 1.182-1.709 1.691-1.53 5.692.267 6.401 1.996.81.888 2.405-1.612 2.392-1.5-.008-1.896-.71-1.881-3.71.03-5.8 7.261-12.063 8.838-7.555m-6.799-.234c-.001.3-.202.499-.502.497-.3-.001-.5-.202-.498-.502s.203-.5.503-.498.499.203.497.503m8.974 5.245c5.085 2.926 5.681 3.729 3.968 6.32-.706 1.197-1.506 1.093-5.296-.827-5.885-2.93-7.376-4.737-5.666-6.728 1.61-1.892 1.11-1.995 6.994 1.235m-12.3-.062c-.401.298-.7-.004-.696-.704.003-.7.305-.998.703-.696a1.2 1.2 0 0 1-.007 1.4m-3.005.985c-.401.298-.7-.004-.696-.704.003-.7.305-.998.703-.696a1.2 1.2 0 0 1-.007 1.4m22.968 6.416c-.606 1.097-1.51 1.992-1.91 1.99-1.2-.006-.888-2.504.419-3.798 1.709-1.69 2.902-.385 1.49 1.808m2.79 1.914c-.306 1.199-1.11 1.895-1.608 1.592-.498-.402-.493-1.402.213-2.599 1.313-2.593 2.31-1.788 1.395 1.007m4.501-.177c-.109 1.8-2.822 4.386-3.516 3.282-.397-.602-.092-1.7.512-2.497 1.308-1.594 3.01-1.985 3.004-.785m1.785 3.009c-.205.899-.81 1.796-1.51 1.992-.702.297-.899-.304-.592-1.603.613-2.497 2.614-2.786 2.102-.389"/><path d="M273.107 502.958c-4.915 2.975-11.232 6.443-13.84 7.83-5.615 2.971-7.13 6.064-6.262 12.268 1.255 9.007 8.609 18.144 16.298 20.283 5.493 1.428 12.744 11.065 14.505 18.874.585 2.803.383 3.202-1.417 3.192-2.9-.014-8.727 5.456-9.444 8.753-.923 4.495.165 6.9 3.856 8.72 2.993 1.415 3.39 2.117 3.373 5.416-.025 4.9-1.649 9.592-4.973 14.276-2.618 3.686-8.64 7.756-11.34 7.742-2.5-.012-6.724 4.966-7.443 8.563q-.616 3.447.872 5.704c2.084 3.11 8.069 6.141 10.373 5.253 1.604-.692 1.505-.893-.692-1.504-2.098-.51-2.494-1.212-2.378-4.412.113-2.6.923-4.595 2.732-6.286 3.317-3.283 5.712-2.471 5.59 1.928-.015 3-.115 3.1-.905.996-1.086-2.706-2.186-2.812-4.298-.422-2.312 2.488-2.122 4.29.666 6.703 2.49 2.113 2.49 2.113.277 4.702-2.817 3.186-11.55 9.741-14.455 10.827-6.413 2.367-4.959 11.475 2.902 19.315l5.174 5.126-.72 82.897-.82 82.897-61.595-.912c-33.998-.572-65.096-1.029-69.296-1.05l-7.6-.039-.477-24.302c-.333-13.302-.449-69.404-.269-124.703l.309-100.5 20.5.104 20.4.103.352-10.398c.239-7.7-.046-10.7-.943-11.305-.698-.404-10.196-.852-20.995-.907l-19.8-.1.065-12.9.065-12.9 9.805-.95c5.303-.573 13.007-1.334 17.009-1.614 7.202-.463 7.202-.463 7.186 2.737-.023 4.5 4.233 13.321 7.422 15.437 1.395.907 4.69 1.824 7.29 1.937 9.998.55 20.543-8.296 25.61-21.47 3.951-10.28 2.873-14.586-5.683-23.23-2.29-2.211-3.587-2.718-7.886-2.74-7.6-.038-14.824 4.526-20.365 12.698-2.418 3.487-4.336 7.178-4.341 8.178-.017 3.2-2.822 4.186-14.726 5.025-6.502.367-14.405 1.027-17.507 1.412l-5.803.57-.07 13.9-.071 13.9-18.5-.094-18.6-.094.246 10.702.246 10.801 18.397.593c18.397.593 18.397.593 18.584 3.094.193 1.401.309 57.602.368 125.004.058 67.4.378 122.803.676 123.205.399.302 17.395.988 37.693 1.39 45.696.932 169.488 2.958 175.288 2.888l4.2-.079-.077 15.3-.078 15.4-18.4-.094c-15.8-.08-18.5.107-19.007 1.504-.913 2.496-.904 40.196.093 40.801.399.302 18.395.993 39.993 1.403l39.096.898.107-21c.092-18.3-.093-21.2-1.49-21.708-.899-.305-9.897-.65-19.997-.701l-18.4-.093.08-15.7.079-15.6 78.297.796 78.196.796.347-9.198.347-9.299 19.7-.1 19.702-.2.056-11 .055-11-19.497-.599-19.497-.598.12-4c.279-15.498.076-15 4.791-17.976 6.222-4.168 15.266-12.923 22.009-21.389 3.22-4.083 6.24-7.968 6.643-8.466 2.013-2.59 9.185-16.754 12.021-23.94 10.837-27.045 10.056-50.55-1.88-63.11-5.87-6.13-19.929-14.2-26.624-15.135-9.193-1.346-23.518 3.481-35.26 11.822-9.334 6.553-26.73 25.665-26.749 29.265-.008 1.5 10.663 7.254 12.366 6.663.802-.296 1.707-1.192 2.01-1.99.508-1.398 1.907-1.29 7.8.24 2.895.814 3.266 6.716.933 13.204-4.565 12.777-6.291 17.969-7.92 23.66-2.137 7.19-6.57 13.867-10.784 16.546-2.909 1.685-4.31 1.878-13.406 1.232-12.096-.861-12.197-.762-10.345 8.848 2.73 13.614 7.5 19.738 21.361 27.408 8.975 4.946 8.975 4.946 18.475 4.994 8-.06 10.502-.447 16.014-2.72 3.507-1.381 6.613-2.466 6.812-2.265s-.021 4.1-.444 8.698l-.643 8.397-18.398-.393-18.398-.493-.056 11.1c-.03 6 .343 11.202.842 11.504.398.302 8.797.645 18.496.694l17.7.29-.344 8.598-.344 8.698-8.5-.143c-4.7-.124-25.498-.329-46.198-.534l-37.799-.291.069-13.5c.05-10.1.368-13.498 1.368-13.493.6-.097 9.8-.15 20.201-.198l19.001-.104.346-8.998c.574-14.797 2.568-13.487-20.832-13.606l-20.1-.101.82-43.297c.52-23.698 1.13-45.695 1.447-48.793.627-5.497.627-5.497 5.034-6.775 8.112-2.359 16.26-12.018 19.517-23.101 2.239-7.59 2.239-7.59.261-12.1-2.174-5.01-5.963-7.23-9.97-5.75-1.704.592-2.209 1.59-2.222 4.19q-.03 5.7 4.471 5.722c1.9.01 1.998.41 1.47 5.907-.736 7.097-4.366 13.178-9.881 16.05-2.006 1.09-4.413 2.478-5.316 3.174-2.61 1.787-6.893-1.435-6.874-5.135.007-1.5.315-3.099.717-3.497.905-.895 3.439-7.582 3.751-10.08.208-1.4 1.01-1.896 2.51-1.788 2.598.313 4.215-2.979 3.435-7.083-1.072-5.505-4.478-4.322-9.816 3.25-8.06 11.66-8.625 24.557-1.05 29.596 2.691 1.713 2.691 1.713 2.02 15.91-.44 7.698-1.151 29.795-1.548 48.893l-.876 34.796-17.899-.29c-9.8-.15-18.2.107-18.603.505-.401.298-.726 5.197-.754 10.796l-.052 10.2 18.798.395 18.7.295-.072 14.1-.071 14-21.699-.31c-12-.16-25.497-.53-29.996-.852l-8.297-.542.28-55.3.28-55.398 20.3-.098 20.202-.197.346-8.999c.474-14.798 2.468-13.488-20.232-13.602l-19.5-.1.083-16.299.082-16.3 5.327-5.173c2.914-2.885 5.826-5.17 6.526-5.167s4.59 1.823 8.58 4.044c3.988 2.22 8.08 4.04 9.08 4.046 1 .005 3.705-1.082 5.911-2.37 10.23-5.949 17.603-20.312 14.747-28.926-1.18-3.906-4.367-6.622-14.24-12.072-9.173-5.147-11.876-4.66-20.218 3.597-8.543 8.557-11.796 18.94-8.132 26.06.793 1.503 1.484 3.307 1.481 3.807-.003.6-2.518 3.487-5.532 6.372l-5.528 5.372-.08 16-.081 16-18.701.105-18.802.205-.055 11-.056 11 17.997.69c9.898.35 18.097.692 18.296.793.1.1.073 25.201-.082 55.7l-.28 55.5-26.2-.133c-14.5-.073-31.399-.459-37.496-.89l-11.297-.657.365-72.099c.2-39.7.69-77.097 1.121-83.295.656-11.097.656-11.097 4.766-12.976 2.305-.988 5.014-2.675 6.12-3.87 1.105-1.094 5.52-3.871 9.831-6.15 5.716-3.07 8.42-4.057 10.318-3.547 1.698.408 3.9-.08 6.909-1.665 4.712-2.477 6.127-5.47 5.355-10.973-.29-2.102.313-2.499 6.02-3.97 3.405-.983 7.714-2.661 9.62-3.751 8.526-5.257 18.406-21.007 13.206-21.034-.8-.004-1.503.693-1.507 1.493-.022 4.3-6.366 12.868-12.083 16.339-6.52 3.867-7.713 2.46-1.987-2.61 5.826-5.171 14.193-18.329 10.08-15.75-.502.298-1 .095-.998-.405.01-2.2-1.695-1.008-3.312 2.284-3.537 7.382-13.184 16.633-15.776 15.02-1.296-.807-1.26-7.907.064-12.7.61-2.097 2.63-5.787 4.542-8.277 1.913-2.49 3.524-4.682 3.524-4.782.001-.2-.898-.305-2.099-.21-3.601.28-9.658 11.55-10.096 18.948-.332 6.399.158 8.401 2.547 10.613 3.084 3.016 3.177 4.416.286 2.802-3.79-2.02-4.68-4.124-4.747-10.524.035-7 1.255-10.994 5.39-17.673 3.629-5.782 3.036-7.285-.692-1.804-4.029 5.78-6.667 13.367-6.699 19.566-.015 3-.328 5.499-.628 5.497-1.9-.01-3.279-4.116-3.35-9.717.033-6.6 2.367-13.388 6.696-18.966 2.617-3.487 2.921-4.285 1.421-4.293-1.2-.006-7.05 9.865-8.775 14.956-.71 1.896-1.33 5.993-1.346 9.093-.03 6 1.06 7.706 8.63 13.644 2.79 2.214 2.79 2.214-.011 2.3-7.5.062-11.369-6.258-10.412-17.353.633-6.497 2.052-10.39 7.196-19.064 1.917-3.29 2.527-5.187 1.83-5.89-.696-.704-1.4-.108-2.11 1.889-.608 1.597-2.124 4.89-3.437 7.382-4.846 9.076-7.005 20.665-4.627 25.077 1.881 3.71.381 3.702-6 .07l-6.282-3.732.54-7.697c.741-8.297 2.972-14.285 8.31-21.758 4.33-6.079 4.835-6.976 3.635-6.982-.5-.003-2.009 1.69-3.219 3.684-2.318 3.688-2.318 3.688-3.203.683-.492-1.602-1.082-3.605-1.378-4.407-.788-2.404-1.064-7.005-.364-7.002.3.002 1.995.91 3.59 2.019 1.694 1.108 3.29 2.016 3.59 2.018 1.2.006 1.72-4.091.936-7.295-.391-1.702-1.077-4.506-1.37-6.007-.39-1.902-1.783-3.31-4.077-4.421-1.896-.91-3.488-2.318-3.485-3.018.011-2.2-3.952-9.52-7.53-13.938-3.378-4.217-3.472-5.418-.272-5.402 1 .005 2.605-1.086 3.513-2.482.907-1.395 1.912-2.49 2.312-2.488s2.379 4.212 4.554 9.223c2.074 5.11 4.94 11.825 6.225 14.832 1.284 3.006 3.064 7.115 3.854 9.02.79 1.903 1.878 4.309 2.374 5.211.494 1.003.887 2.405.884 3.105s.689 2.203 1.483 3.307c3.279 4.217.124-4.799-8.477-24.243-.99-2.205-2.767-6.514-3.852-9.52a1091 1091 0 0 0-4.347-10.422 340 340 0 0 1-4.545-11.023c-2.269-6.111-3.955-8.92-3.965-6.82-.003.6.884 3.205 1.97 5.81 1.977 4.71 2.455 9.013 1.34 11.907-.912 2.396-2.61 1.887-1.897-.51 2.234-6.688-8.875-24.845-15.174-24.977-2.6-.113 1.416-3.092 11.443-8.442 6.919-3.765 9.022-4.454 11.62-3.941 3.695.919 9.964 7.05 12.736 12.565 2.278 4.511 2.639 12.213.53 13.902-1.104.895-1.8.191-3.48-3.817-1.087-2.706-1.772-5.61-1.468-6.408s.109-1.8-.49-2.202c-1.395-.807-1.524 4.892-.136 7.3 2.873 5.314 12.86 27.665 12.459 27.963-.202.299-1.4-.007-2.497-.613-2.593-1.413-6.103.47-6.116 3.17-.013 2.399 5.56 7.727 7.96 7.74 1 .005 2.205-.89 2.511-2.088.914-2.795 1.41-2.093 7.649 10.139 5.346 10.627 5.346 10.627 2.448 10.213-3.197-.517-6.108 1.669-8.432 6.257-2.322 4.388-3.223 4.584-8.009 1.76-2.392-1.413-4.29-2.022-4.292-1.522-.008 1.6 6.973 5.335 9.275 5.047 1.1-.195 2.91-1.886 4.019-3.78 1.01-1.895 2.62-3.987 3.524-4.682 2.007-1.49 6.208-1.669 6.201-.269-.003.5 1.695 1.009 3.895 1.02 2.8.014 4.496.723 6.487 2.633 2.387 2.512 3.277 4.416 1.977 4.41-.3-.002-2.494-1.113-4.887-2.525-3.988-2.42-4.687-2.524-8.893-1.445-2.503.587-5.109 1.774-5.712 2.471-2.012 2.39-.313 2.599 3.197.516 3.511-2.182 7.514-2.662 9.707-1.25.797.603-.409 1.597-3.816 3.08-2.706 1.186-5.014 2.675-5.016 3.175-.007 1.3.494 1.202 4.205-1.079 1.806-1.09 4.71-1.876 6.31-1.868 2.8.114 2.699.214-.905.995-2.203.49-4.507 1.378-5.31 1.974-1.507 1.292-1.817 3.29-.413 2.497.502-.397 1.1-.094 1.298.507.295.902.995.905 2.7.014 2.908-1.586 4.903-.775 5.289 2.127.192 1.6.889 2.204 2.29 2.111 1.1-.094 2.397.512 2.793 1.314.395.802 1.492 1.408 2.292 1.412 1.2.006 1.304-.793.82-3.796-.39-2.002-1.176-4.806-1.869-6.21s-1.88-4.01-2.47-5.812c-1.284-3.307-5.664-7.229-8.164-7.242-3.1-.015-5.082-3.525-22.595-40.514-4.156-8.822-4.155-8.922-2.538-12.313 1.92-3.99 2.034-6.79.458-11.398-2.758-8.314-12.309-18.063-17.61-17.89-1.5-.007-6.613 2.467-11.628 5.442m-89.816 3.045c-10.412 2.347-20.472 14.197-22.332 25.987-.93 5.996-.05 10 3.033 13.316 1.89 2.01 1.986 2.61.788 2.304-6.094-1.23-7.73-13.84-2.98-23.815 5.056-10.875 14.496-18.927 21.796-18.79 3.5.117 3.5.117-.305.998m.684 3.204c-.609 1.697-8.036 6.959-10.237 7.248-4.204.679-11.088 17.244-9.92 23.75.486 2.602.385 2.802-.507 1.197-1.685-2.808-.436-12.502 2.192-18.089 3.03-6.084 8.861-12.055 14.373-14.427 4.61-2.077 5.01-1.975 4.099.32m8.988 2.345c1.392 1.507 2.584 3.213 2.58 3.813-.002.6-.999-.105-2.09-1.71-1.491-1.908-2.987-2.716-4.987-2.726-1.8-.009-2.798-.414-2.395-1.012 1.11-1.794 4.206-1.079 6.892 1.635m-26.915 2.864c-3.12 3.984-5.946 9.17-7.873 14.36-.406 1.198-.606 1.197-.599-.203-.185-2.9 4.561-12.077 7.98-15.56 4.422-4.477 4.62-3.976.492 1.403m21.49 2.009c-.018 3.5-.83 5.896-4.367 13.278-3.335 6.783-11.372 14.142-13.864 12.63-2.093-1.41-.43-13.803 2.495-18.788 3.833-6.48 12.063-12.439 15.055-10.924.4.202.69 1.904.681 3.804m3.991 1.72c-.029 5.8-3.976 15.18-8.3 19.758-3.418 3.683-8.335 6.958-10.534 6.847-1.5-.008-1.399-.307.708-1.697 4.516-3.077 9.847-9.15 11.97-13.64 2.627-5.386 4.364-12.777 3.575-14.881-.395-1.102-.092-1.6 1.008-1.595 1.3.006 1.594 1.108 1.573 5.208m73.819-3.426c6.283 3.331 12.134 12.961 12.098 20.061-.044 8.8-7.75 9.86-15.41 2.122-5.274-5.227-7.549-10.238-7.519-16.138.035-7 4.448-9.378 10.83-6.045m-72.575 14.532c-1.927 5.39-10.68 15.647-13.379 15.633-.8-.004.208-1.5 2.217-3.289 4.922-4.475 9.46-11.852 11.09-17.944 1.123-4.394 1.425-4.793 1.613-2.392.192 1.601-.527 5.197-1.54 7.992m-23.879 15.58c.895 1.004 3.09 2.115 4.888 2.324 2.998.416 2.898.415-.602.497-5.702.272-7.787-2.639-7.648-10.238l.23-6.1.671 5.804c.384 3.202 1.467 6.608 2.461 7.713m136.47 6.19c.796.905.793 1.505.193 1.502-1.8-.01-4.194-1.222-4.19-2.122.008-1.4 2.606-.987 3.998.62m-1.02 3.995c-.006 1.2-2.901.286-3.395-1.017-.393-1.302-.193-1.4 1.403-.493 1.097.606 1.993 1.31 1.992 1.51m3.998.52c-1.212 2.295-3.014 2.685-3.004.685.009-1.7 1.014-2.694 2.714-2.686 1.1.006 1.097.506.29 2.002m-176.828 5.106 29.8.15-.05 9.7-.048 9.6-11.197-.656c-6.198-.432-23.796-.82-38.996-.898l-27.8-.14.049-9.6.049-9.7 9.196.746c4.999.326 22.497.714 38.997.798m157.267 6.796c-.302.498-1.905 1.09-3.507 1.482-3.504.782-8.034 6.56-8.053 10.36-.012 2.3-.112 2.399-1.604.891-3.682-3.618 1.464-12.792 7.064-12.764 1.4.007 2.702-.386 3.105-.984.303-.499 1.204-.694 2.002-.39.798.404 1.295 1.006.993 1.405m3.853 9.32c.68 3.903.68 3.903-2.41 2.087-2.592-1.613-3.392-1.717-5.097-.626-1.204.794-2.306 1.089-2.505.888-.896-.805.819-3.696 2.219-3.69.8.005 1.402-.492 1.405-1.092.009-1.7-3.197-.616-4.709 1.776-1.31 1.894-1.212 2.394.579 4.203 2.09 2.11 1.181 3.706-1.414 2.693-2.695-1.014-1.765-6.909 1.451-9.993 3.316-3.083 6.115-2.869 6.098.431-.006 1.1.49 2.003 1.09 2.006.7.003.905-1.096.614-2.897-.292-1.602-.283-3.202.118-3.5.704-.796 1.393 1.407 2.561 7.713m-7.352 10.362c1.48 3.908.244 10.902-2.68 15.887-2.825 4.686-8.248 9.358-10.848 9.345s-8.435 6.758-9.254 10.553c-.516 3.098-.817 3.296-2.711 2.287-4.09-2.22-.335-12.902 4.465-12.878 3.4.017 10.228-5.548 13.657-11.23 2.319-3.79 3.537-7.283 3.956-11.08.63-6.098 1.836-7.092 3.415-2.884m50.07 5.854c.897.704 1.987 2.61 2.279 4.311.585 2.903.585 2.903-1.2.094-1.985-3.11-4.38-4.122-8.78-3.944-2.302.188-2.6-.013-1.497-.808 2.107-1.39 7.206-1.163 9.199.347m-2.524 4.887c-.304.799-.603.497-.597-.603-.095-1.1.208-1.699.506-1.297.299.301.394 1.202.09 1.9m-52.49 17.535c-.53 6.097-.834 6.696-3.944 8.78-2.609 1.687-3.41 1.883-3.404.783.004-.8.509-1.798 1.111-2.195.702-.396.912-2.295.624-4.797-.481-3.702-.278-4.301 2.634-6.686 1.808-1.491 3.313-2.584 3.413-2.583 0 .1-.115 3.1-.434 6.698m46.401-.065c-1.41 2.092-3.824 4.88-5.332 6.273-2.912 2.485-2.912 2.485-.8-.004 1.208-1.394 3.423-4.383 4.935-6.776 1.511-2.292 3.02-3.984 3.219-3.783.299.201-.71 2.096-2.022 4.29m48.765 7.146c2.792 1.515 5.384 3.028 5.782 3.43.498.402-1.11 1.894-3.516 3.282-8.425 4.857-14.778 15.325-14.924 24.325-.014 2.9-.326 5.298-.726 5.296-.5-.002-1.896-.91-3.29-2.017s-2.99-2.015-3.69-2.018c-.6-.003-2.094-1.21-3.187-2.616-5.961-7.63 1.126-24.895 12.556-30.737 4.11-2.08 5.21-1.974 10.995 1.055m-104.899-.53c-.304.898-.609 1.796-.61 1.996s-.702.397-1.502.393c-1.8-.01-1.894-1.21-.286-2.802 1.709-1.691 3.108-1.484 2.398.412m16.176 4.781c3.09 1.816 6.482 3.633 7.48 4.038 3.294 1.217 1.36 8.007-3.562 12.282-3.014 2.585-13.345 8.733-17.854 10.51-2.004.89-4.113 2.68-4.922 4.375-2.527 5.388-2.73 5.787-3.73 6.082-1.904.59-7.88-4.24-10.06-8.251-3.765-6.72-3.154-9.017 3.567-13.183 3.11-1.984 8.333-6.357 11.65-9.64 4.926-5.176 10.248-9.549 11.448-9.543.2.001 2.892 1.515 5.983 3.33m25.194 1.328c1.093 1.306.993 1.405-.405.898-.898-.305-1.595-1.008-1.592-1.508.006-1.3.605-1.097 1.997.61m76.985 3.09c1.094 1.205 1.983 3.31 1.976 4.71-.112 2.5-.112 2.5-1.497-.608-1.58-3.808-4.77-5.724-8.275-4.942-2.002.49-2.302.389-1.198-.406 2.509-1.687 6.806-1.065 8.994 1.246m-2.612 2.286c2.487 2.613 2.774 5.315 1.044 11.106-1.12 3.994-2.834 6.786-6.05 9.97-3.92 3.88-5.023 4.374-8.922 4.354-3.5-.017-4.798-.524-5.59-1.928-1.19-2.306-1.161-7.806.053-10.6.606-1.297.702-.496.287 2.502-.417 3.498-.125 4.999 1.365 6.907 5.267 6.526 18.322-4.308 18.377-15.208.024-4.6-2.065-6.91-6.065-6.83-2.4.087-2.899-.215-1.896-.81 2.207-1.389 5.706-1.171 7.397.537m-88.318 3.353c-.804.796-1.102.495-1.095-.905.014-2.7 1.42-4.093 1.81-1.89.195.9-.112 2.199-.715 2.795m7.796.84c1.189 2.206 1.185 2.906-.027 5.4-.808 1.596-1.915 2.99-2.416 3.188-1.202.394-3.457-8.518-2.647-10.514.71-1.996 3.505-.982 5.09 1.926m79.378 4.602c-1.232 6.394-4.454 10.577-9.564 12.552-2.905 1.085-5.803.57-5.795-1.03.003-.5.605-.897 1.405-.893 3.6.019 10.555-10.946 10.686-16.946.105-1.1.604-.797 1.996.81 1.391 1.707 1.784 3.21 1.272 5.507m-5.276-4.827c-.015 3.1-3.144 8.784-6.258 11.568-1.808 1.591-3.615 2.882-4.015 2.88-1.8-.009-.481-3.702 2.235-6.989 1.71-1.89 3.021-4.084 3.026-4.984.01-1.9 1.92-3.99 3.72-3.982.7.004 1.296.707 1.292 1.507m-81.018 3.49c-.004.8-1.615 2.792-3.623 4.382-4.92 3.975-18.457 11.206-18.45 9.806.004-.7 3.618-3.481 8.132-6.158 4.414-2.778 9.03-5.955 10.137-7.25 2.512-2.487 3.814-2.78 3.804-.78m73.195 1.17c-.704.697-1.204.794-1.201.194.007-1.4 1.213-2.593 1.91-1.89.198.301-.106 1.1-.71 1.696m150.778 4.564c2.393 1.412 2.193 1.51-4.01 2.08-3.602.381-9.109 1.653-12.215 2.838-12.122 4.438-27.986 17.058-37.852 30.008-2.416 3.188-5.03 5.775-5.73 5.772-1.8-.01-8.477-4.343-8.073-5.241.102-.4 3.122-4.285 6.645-8.767 10.365-12.948 27.026-24.863 38.74-27.704 5.507-1.372 19.404-.702 22.495 1.014m-223.2-.43c-.205.999-1.11 1.894-2.11 2.09-1.602.291-1.701.09-.492-1.703 1.612-2.492 3.113-2.684 2.602-.387m126.585 3.14c3.873 5.52.705 18.805-6.235 26.67-14.382 16.327-28.844 8.654-21.243-11.308 3.548-9.482 11.081-15.944 11.049-9.544-.007 1.3-.71 1.896-2.11 1.889-2.6-.013-4.813 2.576-4.929 5.675-.013 2.7-2.036 7.29-3.236 7.284-1.6-.008-.835 6.796 1.152 9.306 3.18 4.016 5.18 4.126 11.098.556 6.219-3.769 8.029-5.66 10.857-11.245 3.535-6.982 3.298-19.484-.317-16.502-1.908 1.59-3.502.382-3.486-2.618.01-2 .512-2.397 2.912-2.385 2 .01 3.496.818 4.488 2.223m101.792 1.916c2.098.41 4.791 1.724 6.085 3.03 2.189 2.212 6.632 13.335 6.617 16.434-.008 1.5-21.886 16.89-23.986 16.88-.5-.003-1.19-1.807-1.58-4.109-.485-2.902-1.972-5.41-4.956-8.525l-4.277-4.522 4.546-9.177c2.526-5.087 5.048-9.474 5.65-9.871 1.505-.893 6.905-.965 11.901-.14m-18.92 4.004c-.405.998-2.225 4.789-3.943 8.38-3.233 6.484-3.334 6.684-8.037 7.36-4.303.578-9.212 2.253-10.418 3.447-.301.299-1.505 1.093-2.809 1.786-2.005 1.09-2.305.988-3.193-1.316-.593-1.503-.986-2.805-.985-3.005.005-1 15.062-12.224 20.276-14.998 7.12-3.764 10.122-4.349 9.109-1.654m-234.311 1.514c-.004.8-1.312 2.394-3.018 3.585-2.71 1.886-3.01 1.985-3.002.385.01-2.1 2.827-5.386 4.727-5.376.7.003 1.297.606 1.293 1.406m96.78 4.29c1.7.009 4.002-.58 5.105-1.174 1.203-.594 2.104-.79 2.103-.59-.001.3-1.306 1.194-3.01 2.085-5.414 2.773-10.007 1.35-11.282-3.557-.588-2.403-.588-2.403 1.698.409 1.689 2.208 3.085 2.916 5.385 2.827m171.496 1.168c9.424 15.048 6.787 42.035-6.748 68.767-5.758 11.271-11.095 18.644-20.545 28.496-8.947 9.255-16.575 14.717-26.498 19.266-5.713 2.572-7.815 2.961-15.615 3.021-7.5.063-9.699-.349-12.99-2.165l-3.988-2.22 7.5-.063c20.4.004 40.369-13.495 58.702-39.703 4.029-5.68 13.626-24.831 13.637-27.131.004-.8.41-1.798.912-2.396 1.709-1.691 5.207-21.074 5.248-29.073.035-6.9-1.228-14.307-3.401-19.618-1.383-3.407 1.008-1.595 3.786 2.82m-41.38 15.791c-.023 4.3-.124 4.5-3.828 5.38-2.103.59-4.609 1.677-5.713 2.472-3.011 2.285-4.01 1.98-6.788-2.335-2.184-3.21-2.38-4.112-1.275-5.006 3.214-2.684 9.426-4.952 13.426-5.032 4.2.021 4.2.021 4.177 4.521m9.4.048c.893 1.304 1.876 4.51 2.264 7.011l.576 4.603-3.482-3.518c-2.587-2.613-3.676-4.818-4.258-8.221-.579-4.303-.478-4.503 1.317-3.494.997.605 2.69 2.214 3.582 3.619m27.608-1.66c-.003.5-1.508 1.592-3.313 2.583l-3.209 1.683 3.013-2.484c3.313-2.684 3.514-2.783 3.509-1.783m-61.015 2.69c-.01 2-3.831 6.281-5.631 6.272-2.6-.013-2.39-2.012.727-5.396 3.118-3.585 4.92-3.875 4.904-.875m60.808 18.409c-1.227 5.293-3.059 11.584-4.07 13.88-2.124 4.788-2.725 4.985-12.215 2.937l-5.794-1.229-.252-9.501-.252-9.502 12.14-8.038 12.142-8.04.274 5.002c.187 2.701-.747 9.297-1.973 14.49M480.72 678.91c-.001.3-.202.499-.502.497-.3-.001-.499-.202-.498-.502s.203-.5.503-.498.499.203.497.503m50.99 2.258c-.001.2-1.005.895-2.208 1.489-2.205 1.089-2.205.989-.398-.402 2.109-1.69 2.61-1.887 2.606-1.087m-47.942 8.057c1.09 2.006.987 2.605-1.425 4.993-2.714 2.686-2.714 2.686-2.701.286.006-1.3-.681-3.803-1.572-5.708-1.385-2.807-1.38-3.707-.274-5.001 1.107-1.394 1.506-1.292 2.996.815.993 1.305 2.383 3.312 2.976 4.615m25.806-1.07c3.08 3.916 2.576 4.814-1.313 2.494-6.38-4.032-13.588-2.269-20.825 4.995-13.067 13.134-15.967 33.02-5.699 39.272 2.89 1.814 2.99 2.015.988 2.305-1.2.194-3.896-.82-6.088-2.231-3.689-2.319-4.085-3.021-4.66-7.924-.866-6.804 1.48-15.993 5.819-23.57 3.43-5.884 7.051-10.065 8.751-10.057.5.003 1.705-.991 2.511-2.187 2.518-3.487 7.629-5.661 13.33-5.733 4.4.023 5.497.428 7.186 2.637m15.011-2.223c-.2.099-1.304.893-2.408 1.688-1.907 1.39-1.907 1.39-.599-.303.705-.897 1.809-1.691 2.409-1.688q.9.005.598.303m-4.915 3.075c-.001.2-1.106 1.094-2.51 1.987-1.405.893-2.507 1.288-2.504.788.002-.5 1.007-1.395 2.31-1.989 2.706-1.286 2.706-1.286 2.704-.786m-20.021 4.099c-11.031 6.144-18.19 17.708-19.156 30.803-.538 7.397-.64 7.797-1.726 4.991-1.972-5.41-2.069-6.11-1.041-11.505 2.468-13.488 14.136-26.829 23.436-26.882 2.9.015 2.9.115-1.513 2.593m9.792 1.65c1.89 1.909 1.343 11.206-.988 17.394-1.216 3.094-4.04 7.88-6.355 10.668-6.238 7.669-17.065 12.914-19.247 9.403-1.786-2.909-.528-14.303 2.202-20.189 5.763-12.47 19.512-22.201 24.388-17.277m5.153 9.225c-.077 15.3-11.556 30.742-23.863 32.08l-4.802.476 5.012-2.475c2.807-1.386 7.022-4.164 9.331-6.053 5.625-4.871 11.282-16.143 12.023-24.24.737-7.396 2.336-7.187 2.299.212M377.3 702.288c1.599.208 1.792 1.609 2.051 9.61l.253 9.301-20.297-.702c-11.197-.457-28.296-.844-37.996-.893l-17.8-.09.05-9.6.048-9.7 35.996.883c19.798.5 36.795 1.086 37.695 1.19m144.818 16.433c3.197.616 6.494 1.333 7.193 1.536 3.395 1.017-13.934 26.43-25.086 36.674-3.316 3.083-6.428 5.567-6.828 5.565-.8-.004-1.382-3.707-2.609-18.113-.566-6.603-.566-6.603 2.54-7.887 3.808-1.481 12.153-10.34 14.578-15.327 1.92-3.99 1.92-3.99 10.212-2.448m-52.602 20.034c-2.914 2.885-3.214 2.884-4.807 1.375-1.491-1.607-1.49-1.907-.182-3.5.905-.996 2.418-3.588 3.429-5.683l1.82-3.891 1.378 4.307c1.478 4.307 1.478 4.307-1.638 7.392m12.897.765c2.2.111 1.998.31-1.51 1.992-2.205.99-5.31 1.874-6.91 1.865-2.9-.014-2.9-.014-.487-2.602 1.609-1.692 3.012-2.285 4.41-1.978 1.099.306 3.097.616 4.497.723m9.679 4.15c-.207 1.298-.403.497-.392-1.703-.088-2.2.117-3.2.412-2.298.195 1.001.186 2.801-.02 4m-.756 11.095c1.952 9.51 1.442 11.308-3.573 14.283-6.619 3.766-15.832 6.32-22.932 6.284-6.6-.034-12.592-1.564-12.583-3.264.002-.5 1.314-2.794 2.825-5.086 2.62-3.887 5.342-8.173 10.89-17.545 1.916-3.29 2.617-3.587 7.52-4.062 3.101-.284 7.608-1.562 10.416-3.047l5.013-2.675.774 5.204c.386 2.802 1.163 7.306 1.65 9.908m-28.53-13.844c2.594 1.013 1.986 2.71-4.567 13.077-9.476 14.952-8.571 14.057-10.251 10.148-.69-1.903-1.67-5.908-1.955-8.91-.478-4.402-1.17-6.006-3.361-7.717-2.789-2.314-2.789-2.314 4.311-2.278 5.9.03 7.702-.361 10.512-2.347 1.907-1.29 3.513-2.482 3.613-2.482.1-.1.799.204 1.697.509m4.585 2.923c-.002.3-.203.499-.503.498s-.499-.203-.497-.503c.001-.3.202-.499.502-.497.3.001.5.202.498.502m-27.919 3.559c3.092 1.715 3.986 2.92 4.371 5.722 1.16 7.906 2.831 13.715 4.617 16.424 4.17 5.92-1.02 4.094-6.488-2.333-4.374-5.222-9.789-22.05-6.989-22.036.4.002 2.395 1.012 4.49 2.223m26.909-1.664c-.001.3-.504.797-1.206 1.194s-.802.296-.398-.402c.706-1.197 1.608-1.592 1.604-.792m27.743 11.24c-.013 2.6-.112 2.5-.894-1.004-.39-2.202-.773-5.404-.665-7.003.013-2.6.113-2.5.895 1.004.389 2.202.773 5.304.664 7.004m-29.759-8.15c-.001.3-.202.499-.502.497-.3-.001-.5-.202-.498-.502s.203-.5.503-.498.499.203.497.503m-2.017 3.49c-.606 1.097-1.31 1.993-1.61 1.992-.2-.001.004-.9.61-1.997.605-1.097 1.31-1.994 1.61-1.992.2 0-.005.9-.61 1.997m-4.94 7.675c-4.64 7.976-5.546 9.272-6.346 9.268-.4-.002 1.014-2.795 3.231-6.184 2.217-3.289 4.033-6.48 4.035-6.98.003-.4.405-.798 1.005-.795.5.003-.311 2.099-1.924 4.69m-16.484 36.417.256 8.801-38.6-.195-38.5-.195.046-9 .046-9 38.298.394 38.198.493zm69.69 2.253c11 .055 20.998.406 22.296.712 2.098.511 2.195 1.012 2.152 9.511l-.045 9-8.697-.644c-4.899-.325-21.697-.61-37.497-.79l-28.8-.145.05-9.6.048-9.6 15.297.677c8.298.342 24.196.723 35.196.879M373.25 870.169l4.999.226-.138 7.499c-.02 4.1-.165 12.9-.299 19.499l-.26 11.998-15.7-.279c-8.698-.244-25.796-.63-37.994-1.092l-22.297-.713.1-19.6.098-19.5 33.296.869c18.198.492 35.496.98 38.195 1.093"/><path d="M258.031 517.982c-2.311 2.288-1.544 8.792 1.532 13.507 3.174 5.017 9.058 8.346 11.865 6.86 5.314-2.773 4.155-10.779-2.51-17.712-4.376-4.723-7.972-5.54-10.887-2.655m9.982 3.65c1.89 1.91 3.773 5.22 4.461 7.623.982 3.705.877 4.604-.631 6.197-4.123 4.579-13.38-4.068-13.337-12.468.009-1.8.319-3.698.72-3.996 1.609-1.692 5.703-.472 8.787 2.644M90.291 564.933c-1.509 1.792-.71 1.897 2.098.51 1.504-.892 2.103-.689 2.597.614.395 1.002.19 1.9-.511 2.197-1.803.591-1.512 2.193.388 2.202 2.2.011 1.283 3.407-1.019 3.795-1 .195-2.199-.21-2.695-.913-.397-.702-1.095-1.006-1.497-.608-1.005.995 1.581 3.708 3.581 3.718 1 .005 2.203-.589 2.807-1.286 1.308-1.593 1.25-9.993-.145-10.9-1.794-1.21-4.296-.922-5.604.671M100.392 564.884c-.805.896-.808 1.596-.21 2 .498.402 1.199.205 1.602-.393.907-1.495 3.506-1.182 3.498.418-.005.8-.609 1.597-1.21 1.894-.902.295-.705.896.59 1.903.996.805 1.59 2.008 1.187 2.606-1.008 1.595-4.307 1.478-4.9-.125-.196-.6-.795-.904-1.197-.506-1.105.995 1.381 3.807 3.381 3.817 3.4.017 4.509-1.677 4.234-6.678-.087-2.6-.774-5.104-1.372-5.507-1.894-1.21-4.296-.922-5.603.571M118.093 564.674c-2.307 1.288-3.129 5.684-1.746 9.091.888 2.305 1.686 2.809 3.787 2.62 2-.19 2.705-.987 3.116-3.285 1.232-6.194-1.446-10.507-5.157-8.426m3.673 5.418c-.017 3.3-.32 3.999-2.02 3.99-1.5-.007-2.097-.81-2.286-2.811-.48-3.903.53-5.898 2.527-5.488 1.4.208 1.794 1.31 1.779 4.31M127.89 565.123c-2.311 2.389-2.926 5.386-1.643 8.592 1.384 3.307 4.88 4.025 6.993 1.436 2.012-2.39-.267-6.502-3.467-6.518-1.4-.007-2.498-.413-2.495-.913.006-1.3 2.71-2.086 4.507-1.477.798.404 1.5.208 1.502-.392.003-.5-.693-1.304-1.592-1.608-2.096-.81-1.996-.81-3.804.88m4.363 7.523c-.008 1.5-.71 1.996-2.51 1.987-2.4-.012-3.391-1.817-1.784-3.31 1.508-1.492 4.304-.677 4.294 1.323M136.885 566.269c-1.317 3.293-.622 4.397 2.378 4.412 2.4.012 2.998.415 2.99 2.115-.01 1.8-.511 2.098-3.01 1.685-1.898-.31-2.899-.115-2.702.586.59 1.803 5.893 1.33 7.103-.664 1.411-2.193-.274-5.101-3.272-5.516-2.498-.413-2.286-2.712.214-2.7.8.005 1.902-.39 2.304-.788s-.597-.703-2.297-.711c-1.9-.01-3.303.583-3.708 1.581M109.758 571.532c.298.501 1.295 1.006 2.095 1.01s1.403-.493 1.405-.993c.003-.6-.895-1.004-2.095-1.01-1.1-.006-1.702.391-1.405.993M254.972 648.168c-1.906 1.19-.735 6.896 2.054 9.21 2.588 2.313 5.587 2.529 6.397.433s-1.363-7.307-3.954-9.02c-2.391-1.713-2.59-1.814-4.497-.623m5.468 6.327c.995 1.006 1.49 2.108 1.088 2.406-1.106 1.194-4.396-.722-5.584-3.228-1.383-3.207-.272-5.402 1.514-2.793.695 1.004 2.087 2.71 2.982 3.615M419.864 650.102c-.002.5.495 1.003.995 1.005.6.003 1.003-.495 1.005-.995.004-.6-.394-1.002-.994-1.005a1 1 0 0 0-1.006.995M407.14 654.738c.4.302 1 .305 1.4.007.303-.398.004-.7-.696-.703s-1.001.294-.703.696M530.031 696.46c-2.207 1.39-3.424 4.783-2.23 5.99.895.904 1.596.807 3.002-.486 2.813-2.485 2.138-7.389-.772-5.503m.587 2.704c-.002.3-.203.498-.503.497s-.499-.203-.497-.503c.001-.3.202-.499.502-.497s.5.203.498.503M309.58 706.045c-.705.896-1.01 1.895-.612 2.297s1.2-.094 1.706-1.092c.604-.897 1.608-1.691 2.308-1.688 2.1.01 2.687 2.714.783 3.504-1.603.592-1.504.792.19 2.001 2.091 1.61 1.477 4.508-.823 4.496-.8-.004-1.896-.81-2.492-1.713-1.089-2.105-2.393-1.312-1.505.993 1.085 3.005 6.684 3.234 7.598.438.304-.698.317-3.298.03-6-.377-4.402-.576-4.703-3.176-4.716-1.5-.007-3.303.683-4.007 1.48M319.98 706.097c-.405.898-.41 1.898-.011 2.2.298.402.6.103.602-.497.004-.7 1.106-1.194 2.506-1.187 2.7.014 3.392 1.717.987 2.605-.802.396-1.505.993-1.508 1.493-.002.5.696.903 1.496.907 2 .01 1.885 2.91-.119 3.7-1.002.395-2.2-.112-2.994-1.216-1.59-2.108-2.692-1.613-1.804.791 1.085 3.006 6.584 3.234 7.698.44.204-.7.116-3.2-.171-5.702-.48-4.002-.877-4.504-3.376-4.817-1.799-.209-2.9.186-3.306 1.283M335.97 707.978c-1.515 3.093-1.518 3.593-.032 6.5 2.772 5.514 7.583 3.339 7.616-3.261.035-6.8-4.855-8.825-7.584-3.239m5.594 1.329c.691 1.703.584 3.203-.123 4.5-2.12 3.989-6.098-.332-4.077-4.521 1.517-3.293 3.017-3.285 4.2.02M347.666 708.938c-3.222 4.283-3.23 5.783-.13 5.8 1 .004 2.297.71 2.792 1.713.893 1.405 1.093 1.406 2.203-.689.91-1.795.912-2.395.015-3-.897-.504-.99-2.005-.577-4.403.924-4.795-.477-4.602-4.303.579m2.89 1.814c-.005 1.1-.71 1.997-1.51 1.993-1.7-.009-1.798-.21-.887-2.405.911-2.295 2.41-1.988 2.398.412M355.082 705.775c-.403.598.695 1.004 2.395 1.012 3.6.018 3.796.82 1.073 5.206-2.218 3.589-2.629 5.787-1.029 5.795.6.003 1.004-.695 1.008-1.495s.915-2.996 2.025-4.99c2.926-5.185 2.633-6.487-1.367-6.507-1.9-.01-3.802.38-4.105.98M330.052 711.649c-.303.498.295 1.001 1.495 1.007s1.802-.49 1.505-.992c-.297-.602-.995-1.005-1.495-1.008-.5-.002-1.202.394-1.505.993M371.453 790.56c-1.503.591-1.717 3.29-.317 3.298.6.003 1.003-.495 1.005-.995.003-.6.905-.996 2.005-.99 1.1.005 1.997.71 1.993 1.51s-.708 1.496-1.508 1.492-1.502.393-1.505.993c-.002.5.695 1.003 1.495 1.007s1.495.908 1.49 2.008c-.011 2.2-3.515 2.882-4.304.678-.197-.601-.795-.904-1.197-.506-1.106 1.094 1.38 3.807 3.48 3.818 2.6.013 3.811-2.081 3.834-6.481-.171-5.801-2.162-7.611-6.471-5.833M381.453 790.61c-.701.196-1.306 1.193-1.31 1.993-.007 1.3.293 1.302 1.498.308 1.607-1.292 4.504-.678 4.495 1.022-.002.5-.705.997-1.505.993s-1.502.392-1.505.992c-.003.5.695 1.004 1.495 1.008s1.495.907 1.49 2.007c-.012 2.3-2.914 2.686-4.804.776-.896-.904-1.196-.806-1.203.494-.01 2.1 4.483 3.323 6.492 1.733 1.606-1.292 1.744-8.691.254-10.799-.994-1.205-3.192-1.516-5.397-.527M397.748 791.592c-3.115 2.984-1.458 11.393 2.142 11.411 2.9.015 4.21-2.079 4.233-6.478.03-6-2.958-8.316-6.375-4.933m5.375 5.027c-.013 2.6-1.323 4.394-3.123 4.385-1.5-.008-1.896-.71-1.88-3.91.011-2.2.521-4.097 1.322-4.393 1.303-.494 3.69 2.018 3.68 3.918M418.251 790.996c-1.705 1.091-2.445 8.988-1.054 10.795 1.392 1.607 5.491 1.728 6.5.133.403-.698.714-2.997.525-5.198-.27-5.801-2.46-7.912-5.97-5.73m3.686 2.919c.196.7-.606 1.197-1.706 1.191-2.1-.01-2.695-1.114-1.388-2.407.904-.895 2.6-.187 3.094 1.216m-.028 5.5c.194 1.2-.309 1.698-1.709 1.691-1.2-.006-2.097-.61-2.093-1.31.015-3.1 3.217-3.384 3.802-.381M408.433 794.546c-2.922 4.386-2.928 5.486.072 5.5 1.5.008 2.597.714 2.792 1.715.782 3.604 2.51-1.987 2.033-6.49-.475-5.102-1.974-5.31-4.897-.725m2.69 2.014c-.004.8-.707 1.496-1.507 1.492-.9-.004-1.197-.606-.893-1.504.404-.798 1.008-1.495 1.508-1.493s.896.705.892 1.505M390.116 797.954c-.003.5.895 1.004 1.995 1.01 1.1.005 2.002-.49 2.005-.99.003-.6-.895-1.005-1.995-1.01s-2.002.39-2.005.99M466.092 802.838c-1.51 1.893-.517 3.398 1.191 1.706 1.709-1.691 4.808-1.475 4.799.325-.004.8-1.31 2.093-2.915 2.885-2.807 1.486-4.52 4.077-3.727 5.381.694 1.104 7.096.836 7.401-.262.103-.6-.894-1.105-2.393-1.313-2.598-.413-2.598-.413.716-3.196 2.812-2.386 3.216-3.084 2.324-4.688-1.388-2.307-5.686-2.83-7.396-.838M476.082 804.889c-1.218 3.594-.638 7.397 1.356 8.707 2.192 1.51 4.696.824 5.808-1.67.91-2.096.814-2.797-.677-4.504-.994-1.205-2.49-1.813-3.192-1.616-.701.296-1.3-.107-1.295-.907.004-.8.907-1.495 2.007-1.49s1.998.51 1.995 1.11c-.003.5.496.703.998.405 1.705-.991-.883-3.504-3.483-3.517-1.8-.01-2.604.786-3.517 3.482m5.772 5.43c-.512 2.397-3.813 2.68-3.801.28.005-1 .31-2.099.613-2.497 1.105-1.094 3.497.518 3.188 2.216M492.09 803.47c-1.212 2.294-.813 2.496 1.995.81 1.505-.992 2.205-.989 3.2.016 1.094 1.106.892 1.605-.714 2.797-7.226 5.163-7.537 7.362-1.038 7.394 2.5.013 4.503-.477 4.505-.977.003-.6-1.294-1.006-2.994-1.015-3.3-.017-4.093-1.52-1.188-2.406 2.804-.886 4.421-4.278 3.233-6.584-1.387-2.607-5.587-2.628-7-.035M502.688 803.723c-3.122 4.385-1.355 10.794 2.845 10.815 2.7.014 4.512-2.377 3.826-5.08-.59-2.004-3.683-3.42-5.288-2.427-1.304.793-1.297-.507.013-2.5.807-1.296 1.307-1.294 3.1-.185 1.895 1.21 2.095 1.21 1.502-.292-.295-.902-.59-1.903-.589-2.103.007-1.4-4.2-.021-5.409 1.772m4.165 7.022c-.414 2.698-2.318 3.388-3.207 1.283-.79-2.104.118-3.499 2.018-3.49 1 .006 1.396.808 1.189 2.207M513.59 803.179c-1.405 1.093-1.608 1.792-.71 2.096.699.304 1.19 2.206 1.179 4.306s.478 4.203.977 4.505c.598.403 1.009-1.795 1.03-5.895.018-3.6-.067-6.6-.167-6.6-.2-.002-1.204.793-2.308 1.588M485.564 808.437c-.807 1.296 1.988 2.41 3.592 1.518.803-.596.705-.996-.192-1.6-1.794-1.11-2.594-1.114-3.4.082M307.429 874.236c-.402.298-.707 1.297-.711 2.097-.006 1.2.294 1.201 1.901-.19 1.105-.995 2.508-1.488 3.006-1.086 1.794 1.11 1.182 3.406-1.124 4.595-5.314 2.773-5.13 5.874.37 5.902 4.4.022 4.308-1.479-.188-2.201-2.498-.413-2.498-.413.309-1.799 2.806-1.286 4.525-4.977 3.235-6.883-.694-1.204-5.793-1.53-6.798-.435M317.823 875.289c-3.23 6.083-.065 12.9 4.948 10.325 3.31-1.783 2.136-6.99-1.664-7.009-2.6-.013-2.897-.714-1.385-3.007.706-1.196 1.206-1.194 2.2-.189 1.692 1.71 3.293 1.517 1.802-.29-1.69-2.009-4.69-1.924-5.9.17m4.57 5.923c.987 2.605-1.42 4.093-3.51 2.082-1.492-1.607-1.49-1.907-.186-2.7 2.107-1.39 3.006-1.186 3.696.618M335.224 875.277c-1.406 1.093-1.61 1.792-.71 2.096.698.304 1.187 2.306 1.174 4.906-.012 2.4.478 4.403.978 4.405.6.003 1.014-2.795 1.033-6.495.018-3.6-.067-6.5-.167-6.5-.2-.002-1.204.793-2.308 1.588M344.422 875.623c-1.608 1.592-1.61 1.892-.212 2.4.998.404 1.49 2.007 1.476 4.707-.013 2.5.38 3.902.982 3.505 1.104-.695 1.464-12.493.363-12.398-.5-.003-1.604.791-2.609 1.786M352.92 875.966c-1.608 1.592-1.64 7.992-.048 9.6 1.691 1.709 5.492 1.528 6.202-.368 1.013-2.595.74-7.897-.554-9.203-.696-.704-1.894-1.21-2.794-1.214s-2.102.489-2.806 1.185m4.575 5.024c-.215 2.999-.822 4.295-1.822 4.29s-1.593-1.308-1.778-4.309c-.281-3.701-.079-4.2 1.821-4.19s2.098.51 1.78 4.209M365.322 875.63c-1.714 2.79-4.456 11.177-3.656 11.18.6.004 1.303-.693 1.607-1.491.405-.898 1.908-1.49 3.508-1.482 1.9.01 2.897.514 2.892 1.514-.004.8.493 1.503.993 1.505 1.4.007 1.305-1.093-1.066-6.905-2.075-4.91-3.17-6.016-4.278-4.322m2.379 4.211c-.01 1.9-1.113 2.595-2.307 1.389-.796-.804.317-3.399 1.417-3.393.5.002.896.904.89 2.004M326.191 881.631c.298.502 1.195 1.006 1.995 1.01s1.703-.491 2.005-.99c.403-.598-.495-1.002-1.995-1.01-1.5-.007-2.402.388-2.005.99M307.338 892.236c-.402.298-.707 1.296-.711 2.096-.006 1.2.294 1.202 1.9-.19 1.106-.994 2.508-1.487 3.006-1.085 1.994 1.21 1.083 3.406-1.824 4.89-2.407 1.289-4.118 3.38-4.127 5.18 0 .2 2.098.41 4.598.423 2.7.014 4.302-.378 3.905-.98-.297-.601-1.795-1.009-3.295-1.017-2.7-.113-2.7-.113.715-2.896 2.61-2.087 3.216-3.184 2.725-4.886-.492-1.603-1.489-2.208-3.489-2.218-1.5-.008-3.101.284-3.403.683M317.23 893.786c-2.216 3.089-2.033 6.39.355 8.802 1.692 1.708 2.391 1.812 4.095 1.02 4.312-2.278 3.136-6.984-1.764-7.008-1.5-.008-2.298-.512-1.994-1.31.203-.6 1.606-1.092 3.105-.985 1.7.109 2.601-.187 2.305-.988-.689-2.204-4.39-1.922-6.102.469m5.169 6.126c.39 2.002-2.517 3.388-4.01 1.88s-.077-4.4 1.92-3.99c1 .205 1.895 1.11 2.09 2.11M335.133 893.277c-1.406 1.092-1.61 1.791-.711 2.096.698.304 1.189 2.206 1.178 4.406-.01 2.1.48 3.902.98 3.905.6.003 1.014-2.695 1.03-5.995s-.07-6-.17-6c-.2-.002-1.203.793-2.307 1.588M361.636 892.61c-.007 1.5 2.469 6.213 3.269 6.217.4.002.693 1.404.684 3.104s.386 2.802.988 2.405c.602-.297 1.009-1.695 1.015-2.895.006-1.3 1.017-3.495 2.125-4.99 1.208-1.493 1.815-2.99 1.417-3.392s-1.703.591-3.01 2.185l-2.316 2.888-1.583-3.208c-1.585-3.008-2.58-3.913-2.589-2.313M344.229 894.023c-1.707 1.291-1.707 1.391-.21 1.999 1.297.506 1.593 1.408 1.079 4.105-.41 1.998-.218 3.599.38 4.002.697.504 1.104-.794 1.119-3.794.012-2.4.326-5.099.63-5.997.71-1.997-.589-2.103-2.998-.315M352.728 894.166c-1.71 2.091-1.044 8.694 1.15 10.006 2.691 1.713 5.102-.475 5.524-4.773.42-4.097-1.067-6.605-3.767-6.619-1-.005-2.303.589-2.907 1.386m4.877 4.624c-.017 3.3-.32 3.999-2.02 3.99s-1.997-.71-1.98-4.01.32-3.998 2.02-3.99 1.997.71 1.98 4.01M326.1 899.63c.298.502 1.295 1.007 2.095 1.012.8.004 1.403-.493 1.405-.993.003-.6-.895-1.005-2.095-1.011-1.1-.006-1.702.391-1.405.993M347.331 498.433c-1.105.995-.857 11.296.243 11.302.6.003 1.014-2.695 1.03-5.995.031-6.1-.067-6.5-1.273-5.307M346.493 525.73c-.017 3.3.37 6.001.97 6.004s1.013-2.695 1.03-5.995-.37-6.001-.97-6.005-1.013 2.695-1.03 5.995M346.397 544.63c-.014 2.8.474 5.302.972 5.604.598.403 1.008-1.495 1.025-4.895.016-3.1-.372-5.602-.972-5.605-.5-.002-1.01 2.195-1.025 4.895M252.329 557.953c-.004.8 2.787 2.514 8.274 5.142.399.202.7.004.702-.496.004-.8-2.787-2.514-8.174-5.142-.499-.202-.8-.004-.802.496M346.306 562.729c-.014 2.7.474 5.002.974 5.005.6.003 1.012-2.295 1.026-4.995.014-2.8-.375-5.002-.975-5.005-.5-.003-1.011 2.195-1.025 4.995M267.281 567.329c1.395 1.107 3.19 2.016 3.99 2.02 1 .005.704-.696-.99-2.005-1.394-1.107-3.19-2.016-3.99-2.02-1-.005-.703.696.99 2.005M346.222 579.229c-.012 2.5.477 4.502.977 4.505.6.003 1.01-1.995 1.023-4.495s-.377-4.502-.977-4.505c-.5-.003-1.01 1.995-1.023 4.495M346.139 595.728c-.014 2.7.474 5.003.974 5.005.6.003 1.012-2.294 1.026-4.994.014-2.8-.375-5.002-.975-5.005-.5-.003-1.011 2.194-1.025 4.994M311.155 592.351c-.003.7 2.988 2.516 8.275 5.042.399.202.7.004.703-.496.004-.9-6.974-5.336-8.374-5.343-.3-.001-.602.397-.604.797M326.114 600.527c-.005 1.1 7.968 6.44 8.771 5.745.704-.697.704-.697-4.48-4.023-2.392-1.412-4.288-2.222-4.29-1.722M343.075 608.313c-2.307 1.288-2.407 1.388-.407 1.398 1.2.006 2.703-.686 3.407-1.483 1.51-1.792.41-1.798-3 .085M636.851 653.3c-.134 6.8-.234 6.8-12.836 7.036-9 .154-11.703.54-12.309 1.737-.404.798-3.138 7.585-5.975 14.97-2.838 7.386-6.078 15.27-6.989 17.465-1.011 2.195-2.43 5.788-3.14 7.984-.712 2.197-2.534 6.688-4.051 9.98s-3.54 8.082-4.554 10.677c-1.014 2.695-2.324 4.788-3.024 4.785-1.4-.007-5.879-4.23-8.66-8.044-1.887-2.61-5.884-3.03-8.495-.943-1.607 1.392-4.335 6.878-4.345 8.878-.01 1.9 5.17 6.026 7.57 6.039 1.3.006 6.487 2.532 11.571 5.558 5.085 3.026 9.573 5.549 9.973 5.55 1.8.01 4.82-4.175 4.832-6.475.01-2-1.083-3.305-4.97-5.725-2.792-1.714-4.882-3.625-4.58-4.223.204-.6 5.268-13.274 11.243-28.044 5.875-14.87 11.748-29.34 12.962-32.135l2.227-5.288 11.3.057 11.2.056-.025 4.9c-.014 2.8.374 5.202.772 5.504.499.303 18.097.692 39.296.9l38.4.294.325-5.099.326-5.098 7.5.038 7.4.037-.097 19.2-.097 19.1-42.598-.616-42.697-.616-1.828 5.49c-1.015 2.996-2.846 9.087-3.968 13.48-2.853 10.387-9.054 30.455-9.76 31.552-.302.498-2.403.588-4.801.276-4.697-.724-10.108 1.448-16.734 6.615-3.313 2.583-3.914 2.68-6.709 1.666-6.187-2.431-12.915 3.035-15.362 12.322-1.426 5.193-.247 9.3 3.148 10.317 1.497.507 1.69 1.808 1.55 9.807-.255 10.9 1.03 14.006 7.308 18.238 6.379 4.232 10.176 4.751 16.688 2.384 13.726-5.03 26.727-24.965 26.809-41.165.04-8.1-1.935-12.81-7.12-16.036-3.588-2.318-3.583-3.118.477-15.098 1.32-3.893 3.048-9.484 3.863-12.48.816-2.996 2.85-9.886 4.478-15.378l2.95-9.985 7.4.037c4.1.021 23.498.52 43.196 1.02l35.696.98.05-10 .051-10.1 7.9.04c8 .04 8 .04 7.78 4.04-.11 2.099.08 4.1.278 4.4.299.202 18.096.693 39.496.9l38.997.598.357-11.198.356-11.198-34.798-.477c-19.098-.296-36.898-.386-39.499-.2-4.802.276-4.802.276-4.826 5.076-.028 5.6-.33 5.799-9.529 5.652l-5.999-.13-.252-9.402c-.074-5.2-.75-10.104-1.346-10.807-.695-.903-3.593-1.318-8.393-1.342-7.4-.038-7.4-.038-7.377-4.538l.023-4.5-10.3-.052c-5.7-.029-23.298-.418-38.996-.897-28.697-.745-28.697-.745-28.709 1.655m57.295 1.19 19.9.101-.532 6.198c-.418 3.498-.638 7.497-.646 9.097-.114 2.699-.114 2.699-37.312 2.31l-37.298-.488-.252-9.401-.253-9.402 18.197.692c9.998.45 27.196.838 38.196.894m130.95 29.864c-.325 5.098-.747 9.296-.847 9.296 0 0-17.099-.187-37.998-.493l-37.798-.491.616-3.097c.309-1.698.629-5.697.645-8.897l.03-5.9 38.1.193 38.099.193zm-257.801 39.195c-2.825 4.886-2.825 4.886-2.816 3.086.007-1.4 3.634-6.781 4.534-6.777.3.002-.508 1.698-1.718 3.691m7.211-2.263c-.001.3-1.309 1.793-3.017 3.385-1.609 1.692-3.02 4.084-3.027 5.384-.11 2-.21 2.1-1.103.595-1.586-2.808 2.848-9.586 6.45-9.768.4.002.698.204.697.404m.978 4.305c-.108 1.6-3.928 5.68-4.625 4.977-1.094-1.106 1.429-5.693 3.129-5.685.8.004 1.498.308 1.496.708m3.986 2.82c-.006 1.3-2.428 5.488-3.228 5.484-1.5-.008-2.084-3.01-.777-4.504 1.107-1.395 4.01-2.08 4.005-.98m3.99 2.02c-.008 1.6-2.628 5.487-3.728 5.482-1.6-.009-1.693-1.409-.08-4 1.11-1.695 3.815-2.782 3.808-1.482m3.99 2.02c-.008 1.6-2.628 5.487-3.728 5.482-1.6-.008-1.693-1.409-.08-4 1.109-1.695 3.814-2.781 3.808-1.481m2.472 5.513c-.909 1.696-2.014 2.79-2.513 2.487-2.193-1.41-.072-5.5 2.728-5.486 1.1.006.997.605-.215 3m4.496.823c-.01 1.9-1.821 4.19-3.221 4.184-1.2-.006-.883-3.505.424-4.798 1.709-1.692 2.807-1.486 2.797.614m27.418 16.339c-.303.498-1.006.995-1.506.992-2.1-.01-11.735 6.941-14.754 10.726-7.749 9.56-12.925 24.635-11.875 34.64.282 3.402.177 4.501-.418 3.498-2.877-4.515-2.009-18.11 1.53-25.693 4.953-10.575 13.803-20.33 21.62-23.59 4.009-1.78 6.31-1.969 5.403-.573m7.99 2.04c.297.502-.11 1.9-.916 3.096s-1.215 2.794-.918 3.495c.789 2.204 3.192 1.616 4.505-1.077 1.416-3.093 2.316-3.088 4.4.022 3.077 4.716 1.694 21.01-2.335 26.789-1.814 2.79-2.702.286-1.38-3.907.913-2.696.92-4.196.032-6.5-1.482-3.408-8.754-8.945-11.954-8.96-8.3-.043-17.674 14.41-15.22 23.622.785 3.004 1.978 4.41 4.969 6.126 5.484 3.127 9.885 2.95 14.104-.729 6.729-5.666 6.914-2.865.279 4.102-5.63 5.971-10.544 8.646-17.048 9.513-4.703.577-4.803.576-2.993-1.415 1.91-2.19 2.225-4.889.73-5.796-1.596-1.008-4.008 1.48-4.022 4.08-.015 3-.715 2.996-3.1.184-4.475-5.123-4.717-16.424-.666-26.604 1.923-4.59 2.325-4.988 3.418-3.483s1.492 1.508 2.898.415c2.108-1.69 2.129-5.69.033-6.5-3.494-1.318 9.067-13.254 16.981-16.114 4.108-1.48 7.409-1.663 8.202-.359m1.175 4.706c-.401.298-.7-.003-.696-.703s.305-.999.704-.697a1.2 1.2 0 0 1-.008 1.4m-29.907 1.449c.895 1.005.489 2.203-1.625 4.792-1.51 1.892-3.829 5.78-5.143 8.574-2.527 5.287-4.533 6.477-6.92 4.065-2.786-2.814-.34-11.902 4.482-16.278 2.913-2.685 7.516-3.262 9.206-1.153m22.452 9.414c.298.401-1.11 1.894-3.217 3.384-4.617 3.376-9.16 11.753-9.187 17.153-.021 4.2-1.324 4.894-3.108 1.685-1.585-3.108-.454-9.103 2.673-14.487 3.53-5.982 10.452-10.147 12.84-7.735m-19.625 5c-.402.299-.7-.003-.697-.703s.305-.998.704-.696a1.2 1.2 0 0 1-.007 1.4m22.778 4.316c-.923 4.595-2.84 7.886-2.218 3.589.308-1.599.12-3.8-.475-4.903-.694-1.303-.59-2.103.314-2.698 2.206-1.29 3.099.215 2.38 4.012m1.569 6.208c-2.526 5.187-5.847 9.27-8.552 10.157-1.202.494-.496-.803 2.018-3.49 3.921-4.18 5.436-7.173 7.067-13.264.815-2.996.815-2.996 1.202-.394.093 1.5-.623 4.597-1.735 6.99m-9.597-.549c-2.319 3.589-2.813 2.486-.691-1.803.91-1.896 1.814-2.891 2.01-2.09s-.412 2.498-1.32 3.893m-3.796-.919c-.401.298-.7-.003-.696-.703.003-.7.305-.999.703-.697a1.2 1.2 0 0 1-.007 1.4m6.289 2.232c-.606 1.197-1.51 2.092-2.11 2.09-.5-.003-.195-1.102.811-2.397 2.115-2.789 2.914-2.685 1.299.307m.984 3.105c-2.417 3.388-5.627 5.372-7.022 4.464-1.695-1.008-1.088-2.505.912-2.495 1.1.006 3.306-1.083 4.813-2.476 3.716-3.18 3.915-3.08 1.297.507m8.692 1.744c-.402.298-.7-.004-.697-.704s.305-.998.704-.696a1.2 1.2 0 0 1-.007 1.4m-25.775 14.67c-.002.3-.203.499-.503.497-.3-.001-.499-.202-.497-.502.001-.3.202-.5.502-.498s.5.203.498.503"/><path d="M645.03 657.442c-.703.697-1.21 1.894-1.213 2.694-.006 1.1.395 1.002 2.002-.39 2.41-2.188 3.906-1.18 2.192 1.511-1.613 2.492-1.515 2.993.285 3.002.8.004 1.496.707 1.492 1.507-.009 1.8-4.61 2.077-5.3.173-.198-.6-.796-.904-1.299-.406-.402.398.192 1.7 1.286 2.906 2.09 2.011 2.29 2.012 4.697.424 2.308-1.488 2.51-1.987 1.933-6.39-.77-5.904-3.16-7.916-6.075-5.03M654.427 658.19c-1.006 1.095-1.312 2.193-.813 2.496.598.303 1.2-.094 1.604-.892.812-2.196 3.61-1.782 3.598.518-.006 1.1-.41 1.998-1.01 1.995a1 1 0 0 0-1.005.995c-.003.5.695 1.003 1.495 1.007 2 .01 1.885 2.91-.12 3.7-1.001.395-2.199-.111-2.894-1.015-1.49-2.107-2.489-2.213-2.499-.213-.004.8.89 1.905 2.087 2.511 1.596.908 2.596.813 4.503-.477 2.107-1.39 2.31-1.989 1.83-5.791-1.067-6.705-3.458-8.518-6.776-4.834M670.423 658.97c-3.015 2.985-.958 11.396 2.842 11.415 2 .01 4.52-3.977 4.536-7.177.015-2.8-2.27-5.812-4.47-5.823-.7-.003-2.104.69-2.908 1.586m5.186 2.727c.876 4.804-2.646 9.187-4.226 5.079-.789-2.104-.77-5.904.135-6.8 1.206-1.194 3.8-.08 4.091 1.72M681.125 658.625c-4.327 5.278-.773 14.396 4.244 11.021 3.311-2.183 1.736-7.19-2.164-7.21-1.6-.009-2.397-.513-2.093-1.311.203-.6 1.606-1.092 3.105-.985 1.7.11 2.601-.186 2.305-.988-.491-1.702-4.19-2.021-5.397-.527m4.462 7.522c-.205 1-1.21 1.794-2.31 1.789s-2.095-.81-2.29-1.812c-.294-1.301.308-1.698 2.308-1.688s2.598.413 2.292 1.711M690.423 659.072c-.904.795-1.61 1.992-1.613 2.492-.008 1.5 1.695 1.008 2.403-.588.81-2.096 3.61-1.882 3.598.318-.005 1-1.314 2.793-3.02 3.985-4.316 3.178-3.926 5.18.974 5.205 4.8.024 5.408-1.673.811-2.196l-3.298-.417 3.21-1.884c2.407-1.387 3.313-2.683 3.323-4.583.02-3.8-3.574-5.118-6.388-2.332M663.296 664.335c-.303.498.295 1.001 1.494 1.007s1.803-.49 1.506-.992c-.297-.602-.995-1.005-1.495-1.008-.5-.002-1.202.394-1.505.993M756.426 678.406c-.402.398-.708 1.397-.711 2.097-.006 1.2.294 1.101 1.6-.092.805-.896 2.008-1.59 2.508-1.588 1.4.007 1.081 3.806-.321 4.299-.902.295-.705.896.59 1.903.996.805 1.59 2.008 1.187 2.606-1.008 1.595-4.308 1.478-4.9-.125-.196-.601-.795-.904-1.297-.407-1.508 1.393 2.28 4.012 4.883 3.325 3.103-.684 3.61-1.982 2.838-7.586-.48-3.902-.977-4.505-3.075-4.815-1.4-.207-2.9-.015-3.302.383M765.72 679.353c-1.609 1.892-.516 3.398 1.192 1.706.704-.696 1.806-1.19 2.506-1.187 1.7.009 1.687 2.709.084 3.3-.902.296-.705.897.59 1.903.996.805 1.59 2.008 1.187 2.606-1.008 1.595-4.308 1.479-4.9-.124-.197-.601-.795-.904-1.197-.506-1.106 1.094 1.38 3.807 3.48 3.817 1 .005 2.304-.688 3.109-1.584 1.51-1.892 1.348-9.493-.347-10.602-1.894-1.21-4.395-.922-5.703.671M782.42 679.738c-4.325 4.678.626 14.403 5.048 10.025.704-.696 1.216-2.993 1.227-5.293.031-6.1-2.958-8.316-6.276-4.732m5.08 3.726c.282 3.701-1.13 5.994-3.226 5.183-1.597-.608-2.266-6.711-.859-8.104 1.608-1.492 3.8.019 4.085 2.92M792.317 680.188c-3.424 4.783-.859 11.596 3.747 10.419 2.103-.49 2.607-1.287 2.618-3.587.016-3-2.775-4.914-5.082-3.426-.702.397-.9-.104-.694-1.203.307-1.399 1.209-1.794 3.108-1.684 2.9.214 3.706-1.082 1.111-2.095-2.495-1.012-3.196-.716-4.808 1.576m4.669 6.224c.69 1.803-.114 2.599-2.514 2.587-1.1-.006-1.796-.71-1.79-2.01.012-2.3 3.515-2.781 4.304-.577M803.115 680.543c-1.706 1.29-1.707 1.39-.207 1.498 1.3.007 1.794 1.11 1.976 4.71.276 4.702.276 4.702.808-1.495.317-3.399.23-6.2-.07-6.2-.3-.002-1.403.692-2.507 1.487M775.188 685.901c.297.502 1.295 1.007 2.095 1.01.8.005 1.402-.492 1.405-.992.003-.6-.895-1.005-2.095-1.01-1.1-.006-1.702.39-1.405.992M730.053 732.273c-.305.899-.63 5.697-.656 10.897l-.046 9.2 9.796.75c16.994 1.186 67.286 2.94 68.29 2.345.5-.297.925-5.195.954-10.895l.053-10.4-4.197-.521c-5.597-.628-54.987-2.878-65.386-2.931-6.5-.033-8.302.258-8.808 1.555m38.692 1.596c8.097.641 19.595 1.1 25.495 1.13s11.197.456 11.795.859c1.595 1.008.205 18.801-1.293 18.494-.7-.104-13.497-.769-28.493-1.445-15.098-.576-31.293-1.458-36.092-1.782l-8.796-.745.044-8.7c.024-4.8.245-8.899.547-9.197.603-.597 17.2.087 36.793 1.386"/><path d="M737.828 737.113c-1.104.794-1.509 1.792-1.011 2.295.498.402 1.099.205 1.302-.494.303-.598 1.306-1.193 2.406-1.188 3 .016 2.381 3.713-.826 5.196-1.604.692-2.912 2.286-3.118 3.585-.31 1.998.088 2.2 3.688 2.218 2.3.012 4.103-.479 4.105-.979.003-.6-1.294-1.007-2.994-1.015-3.8-.02-3.795-1.02.016-3.2 3.51-1.982 4.026-5.18 1.134-6.794-2.493-1.313-2.293-1.312-4.702.376M747.624 737.962c-2.01 1.99-1.549 9.593.546 10.703s6.205-1.068 6.216-3.268c.01-1.8-3.675-4.919-4.879-4.125-.601.297-1.1-.106-1.095-.906.01-2 1.916-3.09 3.308-1.683 1.592 1.608 2.693 1.414 2.102-.39-.69-1.803-4.49-2.022-6.198-.33m4.565 7.024c-.207 1.299-1.012 2.294-1.812 2.29s-1.595-1.008-1.788-2.309c-.292-1.701.21-2.199 1.81-2.19s2.098.51 1.79 2.209M763.823 738.244c-1.104.795-1.51 1.793-1.012 2.295.498.403 1.1.206 1.303-.493.303-.599 1.306-1.194 2.406-1.188 3.1.016 2.28 3.712-1.128 5.494-1.805.891-3.012 2.285-3.018 3.485-.008 1.6.69 2.004 3.59 2.018 2.1.011 3.302-.383 2.905-.985-.297-.601-1.495-1.008-2.595-1.013-2.8-.014-2.294-1.212 1.116-3.194 3.51-1.983 4.027-5.18 1.135-6.795-2.494-1.312-2.294-1.311-4.702.376M773.121 738.591c-.401.298-.708 1.697-.715 2.997-.01 1.8.488 2.302 2.488 2.312 2.9.015 4.388 2.523 2.578 4.314-.904.895-1.704.791-3.199-.117-2.791-1.714-3.395-1.017-1.106 1.195 2.19 1.91 4.793 1.324 6.207-1.369 1.413-2.493.324-4.698-2.573-5.413-3.295-.917-3.082-3.416.42-3.898 2.602-.387 2.602-.387-.397-.602-1.7-.008-3.4.183-3.703.581M784.916 739.651c-1.406 1.093-1.609 1.692-.71 1.997.698.303 1.188 2.406 1.274 5.106.076 4.7.076 4.7.996.705.612-2.197.927-5.195.734-6.696-.287-2.502-.387-2.602-2.294-1.112M792.392 744.489c-.033 6.5-.033 6.5 3.867 6.52 4.5.022 5.205-.974 4.435-7.078-.675-4.903-1.57-5.908-5.47-5.928-2.8-.014-2.8.086-2.832 6.486m6.512-2.467c-.012 2.3-4.91 1.975-5.298-.327-.293-1.501.209-1.799 2.507-1.487 1.7.208 2.796.914 2.791 1.814m.279 4.201c1.492 1.508-.32 3.799-2.92 3.786-2.2-.011-3.291-1.617-2.482-3.513.71-1.796 3.71-1.981 5.402-.273M757.191 744.51c.599.204 1.799.21 2.5.014.601-.297.102-.5-1.298-.507s-1.9.19-1.202.494M715.712 740.3c-.701.197-1.308 1.494-1.315 2.894-.01 2.1-1.442 8.293-5.109 21.475-.61 1.997-1.82 3.99-2.821 4.285-.902.296-2.805.986-4.208 1.48-4.307 1.377-13.64 7.73-19.969 13.598-11.956 10.94-23.546 28.781-29.128 44.953-4.363 12.379-5.5 19.773-5.265 32.574.345 10.902.635 12.804 3.11 17.916 5.343 11.127 15.708 18.08 27.905 18.742 7.797.54 15.008-1.624 24.838-7.375 6.318-3.568 17.972-14.309 22.002-20.189 1.31-1.893 2.719-3.686 3.12-3.984 1.707-1.291 11.398-19.242 14.134-26.429 5.268-13.373 7.112-21.964 7.27-33.463.292-18.2-4.656-28.424-17.022-35.287-6.183-3.431-13.974-5.17-19.078-4.397-4.103.68-4.203.68-3.492-1.617.407-1.298 1.936-7.09 3.466-12.883l2.753-10.486 4.698.324c5.198.426 7.902-.46 5.71-1.871-1.496-.908-9.595-1.149-11.6-.26m1.05 29.407c-8.112 2.559-14.527 5.526-19.644 8.9-6.422 4.268-16.069 13.42-20.498 19.297-1.711 2.191-3.222 4.184-3.523 4.482-3.116 3.084-10.888 17.445-14.537 26.927-3.447 9.282-6.727 25.166-6.769 33.466-.03 6.1 1.433 13.207 4.394 21.022 1.48 3.808-1.301.194-4.172-5.52-2.575-5.114-2.669-6.314-2.71-18.015.038-7.3.675-14.596 1.49-17.492 6.52-23.968 16.208-41.219 30.98-55.444 12.36-11.738 25.396-18.772 34.495-18.626 3.5.118 3.5.118.495 1.003m16.282 3.682c12.071 5.861 17.792 21.49 14.99 41.476-1.245 9.094-3.9 19.781-5.207 21.274-.503.598-.908 1.596-.912 2.396-.013 2.5-9.705 20.65-14.538 27.127-11.88 15.94-22.524 24.486-35.946 28.818-17.93 5.81-32.391-1.764-36.305-18.884-2.935-12.715-.64-31.404 5.739-47.072 10.936-26.945 31.85-49.539 51.08-55.342 6.71-1.966 16.71-1.915 21.1.207"/><path d="M703.56 790.14c-11.229 5.543-22.59 17.686-29.963 31.949-5.656 11.171-8.111 21.959-7.571 33.862.446 10.702 2.918 16.215 9.494 20.848 3.588 2.518 5.285 3.127 9.985 3.15 4.9.026 7.303-.762 17.228-5.612 12.431-6.137 16.548-9.316 22.288-17.388 10.474-14.547 13.331-25.832 11.53-45.242-1.99-21.91-15.046-30.476-32.992-21.567m18.701-.305c5.99 2.03 11.849 10.16 11.817 16.46-.015 2.9-.515 2.997-3.202.383-1.095-1.005-5.382-3.627-9.372-5.647-5.984-3.03-8.081-3.641-11.084-3.156-17.814 2.81-36.445 28.516-36.555 50.315-.057 11.3 4.114 17.122 16.582 23.285 3.99 1.92 6.982 3.635 6.881 3.835-.2.199-2.805.985-5.709 1.77-9.813 2.551-17.396-.787-21.851-9.61-3.168-6.416-2.992-21.515.562-32.198 4.977-15.175 13.343-28.132 23.987-36.879 10.444-8.547 19.759-11.5 27.944-8.558M719.6 802.02c1.794 1.31 1.693 1.409-1.61 2.092-7.008 1.465-17.048 9.314-22.89 17.685-9.57 13.851-13.252 30.033-9.714 42.351.883 3.204-.815 2.896-4.396-.822-12.535-12.964-.253-48.902 20.706-60.496 4.713-2.476 14.916-3.025 17.904-.81m10.867 6.555c4.779 4.225 6.142 11.632 4.186 22.622-1.85 9.69-7.71 21.761-14.247 28.928-4.525 4.977-4.525 4.977-4.607 1.377.016-3.2-1.37-5.907-3.07-5.916-.4-.002-2.106 1.19-3.813 2.581-2.31 1.888-3.117 3.384-3.13 5.884-.01 1.9.482 3.703.98 4.005 1.794 1.11 1.088 2.306-2.117 3.39-4.809 1.675-8.307 1.258-11.994-1.261-5.083-3.426-6.86-7.835-6.814-16.935.02-4.2.444-8.698.95-9.995.507-1.298 1.926-4.99 3.242-8.284 2.534-6.587 8.28-15.558 12.398-19.337 2.612-2.387 2.612-2.387 2.595 1.013-.01 1.9.48 4.102.975 4.905.794 1.304 1.394 1.207 4.703-.476 3.51-1.883 3.812-2.381 3.73-5.982-.089-2.2-.275-4.901-.47-5.902-.292-1.602.511-2.198 4.116-3.08 4.906-1.274 9.102-.353 12.387 2.463m-17.43 6.012c-.014 2.8-2.226 4.99-4.926 4.975-2.1-.01-1.17-5.706 1.237-7.293 2.81-1.886 3.707-1.282 3.689 2.318m.765 46.305c-.018 3.7-1.528 5.692-4.228 5.678-2.6-.013-2.276-4.811.435-7.097 3.014-2.685 3.813-2.381 3.793 1.419"/><path d="M722.643 813.137c-2.412 2.488-2.129 5.69.473 5.302 2.702-.386 4.322-4.178 2.43-5.787-.996-.805-1.697-.709-2.903.485m2.39 1.912c-.001.3-.404.798-1.005 1.095-.502.297-1 .095-.998-.405.003-.6.506-1.098 1.006-1.095.6.003.999.205.998.405M727.985 824.664c-2.714 2.686-2.438 7.488.362 7.502s6.326-5.068 5.036-7.175c-1.587-2.608-3.086-2.615-5.398-.327m3.991 1.72c-.105 1.1-2.621 4.287-3.421 4.283s-.783-3.504.121-4.3c.905-.895 3.305-.883 3.3.017M711.482 825.18c-6.016 3.07-10.246 9.049-11.986 17.04-.92 3.896 1.451 9.608 4.644 11.024 8.98 4.145 22.894-18.485 16.134-26.419-2.485-2.913-5.283-3.427-8.792-1.644m5.782 3.63c1.275 4.906-2.674 14.487-7.797 19.06-2.31 1.989-6.416 3.268-7.41 2.163-1.195-1.206-.445-11.002 1.17-14.094 4.242-8.179 12.764-12.436 14.037-7.13m.533 13.203c-2.022 4.39-6.949 9.565-9.149 9.554-.5-.003.406-1.098 2.013-2.49 3.816-3.181 8.16-11.76 8.483-16.358.118-3.499.217-3.399.497.503.286 2.901-.328 5.698-1.844 8.79M695.562 829.1c-2.311 2.188-2.127 5.39.373 5.402 2.2.011 4.417-3.378 3.628-5.582-.69-1.803-2.09-1.81-4.001.18m2.388 2.412c-.003.5-.405.998-1.005.995-.5-.002-.998-.505-.995-1.005.003-.6.505-.997 1.005-.995.6.003.998.405.995 1.005M726.626 836.357c-1.005.895-.822 4.296.178 4.301.5.003 1.403-.693 2.108-1.489 1.71-2.091-.376-4.802-2.286-2.812M722.382 844.936c-1.411 2.293-1.229 5.694.471 5.702 1 .006 4.018-3.48 4.024-4.68.003-.6-.592-1.602-1.389-2.206-1.195-1.006-1.796-.81-3.106 1.184m2.492 1.713c-.003.5-.505.997-1.105.994-.5-.002-.698-.503-.395-1.002.303-.598.805-.996 1.105-.994.2 0 .398.402.395 1.002M689.463 848.67c-2.115 2.889-2.034 6.69.062 7.5s6.521-4.167 6.136-7.07c-.385-3.001-4.183-3.32-6.198-.43m4.395 1.022c-.108 1.5-2.424 4.787-3.424 4.782-1.1-.005-.683-3.503.624-4.796 1.608-1.592 2.807-1.486 2.8.014M695.997 861.703c-1.407 1.393-1.622 4.391-.326 5.198 1.395.907 3.902-.38 4.31-2.178 1.02-3.695-1.471-5.508-3.984-3.02m1.482 3.507c-.401.298-.7-.003-.696-.703.003-.7.305-.999.703-.697a1.2 1.2 0 0 1-.007 1.4M599.59 744.313c1.393 1.307 11.166 6.757 12.166 6.762 1.7.008-.79-2.004-5.875-4.93-5.684-3.229-8.68-4.144-6.291-1.832M766.322 856.959c-6.519 3.667-10.654 10.546-10.792 18.045-.122 4.5.173 5.401 2.762 7.514 2.49 2.013 3.989 2.32 11.189 2.357l8.2.041.002 19.2c.047 10.601.084 23.001.16 27.602l.059 8.3-18.501.107-18.5.106-.346 8.998c-.577 15.198-5.469 13.473 40.23 13.704l39.5.2.053-10.4c.03-5.8-.346-10.702-.744-11.004-.4-.202-9.597-.648-20.497-.803l-19.698-.4.143-28.3c.143-28.2.143-28.2 2.662-31.887 1.41-1.993 2.524-4.787 2.53-6.087.012-2.2-2.559-8.013-4.052-9.32-.299-.302-.892-1.705-1.284-3.207-.292-1.502-1.384-3.207-2.381-3.712-3.092-1.616-8.59-2.144-10.695-1.054m8.89 1.945c3.693 1.418 3.185 3.016-.711 2.296-2.898-.415-4-.02-7.518 3.362-2.713 2.586-4.225 4.979-4.738 7.576-.82 4.096-.044 8.7 1.556 8.708.6.003.604-.697-.09-2.1-1.288-2.307-.782-3.504.913-2.396.598.303.99 2.005.882 3.605-.214 2.599-.615 2.897-2.814 2.685-2.299-.311-2.496-.812-2.772-5.614-.178-4.2.232-6.199 2.248-9.488 2.523-4.388 6.141-8.07 8.646-8.957.801-.296 1.603-.592 1.703-.591.1-.1 1.298.306 2.695.914m-10.713 2.645c-2.916 3.086-5.645 8.872-6.773 14.266-.817 3.496-.817 3.496-.897-.504-.072-5.6 6.083-16.47 9.383-16.453.5.003-.206 1.199-1.713 2.691m11.288 2.258c-.006 1.2-2.911 2.285-4.107 1.479-1.795-1.01-.888-2.405 1.612-2.392 1.4.007 2.498.413 2.495.913m-5.212 2.373c.796.904.49 1.903-.818 3.696-1.107 1.395-2.016 3.09-2.02 3.69-.003.7-.906 1.295-2.006 1.29-2.7-.014-2.583-3.313.136-7.1 2.316-3.188 3.118-3.484 4.708-1.576m9.202-.253c-.003.5-.805.996-1.705.991-2.2.089-4.309 1.678-6.627 5.167-2.016 3.19-2.342 8.388-.446 9.098.6.203.896.804.494 1.202s-1.402.493-2.3.188c-1.897-.81-1.97-5.91.048-9.7 2.524-4.687 10.551-10.046 10.536-6.946m-1.618 3.492c-.404.798-1.008 1.495-1.408 1.493s-1.71 1.89-2.82 4.185c-2.122 4.19-2.122 4.19-2.107 1.29.016-3.3 1.327-5.494 4.437-7.278 2.607-1.487 2.507-1.487 1.898.31m5.087 2.625c.787 2.504-.22 3.9-1.108 1.495-.295-.902-1.292-1.607-2.092-1.61-.8-.005-1.097-.506-.795-1.005 1.109-1.694 3.306-1.083 3.995 1.12m-2.625 4.987c-.506.998-1.411 2.093-2.013 2.49-.803.496-.8.096.007-1.4 1.717-3.291 1.22-3.894-.894-1.205-1.812 2.291-2.012 2.39-2.002.39.015-3 1.923-4.49 4.116-3.079 1.296.807 1.492 1.508.786 2.804m-2.722 4.286c1.402-.392 1.8-.19 1.397.508-.403.597-1.805 1.09-3.205 1.083-1.8-.009-2.398-.512-2.389-2.312.11-2 .21-1.999 1.102-.394.694 1.203 1.692 1.608 3.095 1.115m40.287 61.805c.1 0 .18 4.101.155 9.001l-.046 9-37.698-.39-37.798-.492-.253-9.402-.252-9.401 37.797.791c20.797.506 37.895.892 38.095.893"/><path d="M748.867 946.771c-1.005 1.095-1.31 1.994-.71 1.997s1.403-.493 1.705-.992c1.11-1.794 3.506-1.082 3.495 1.018-.006 1.1-.41 1.998-1.01 1.995a1 1 0 0 0-1.005.995c-.003.5.695 1.003 1.495 1.008 2 .01 1.885 2.91-.119 3.699-1.002.395-2.2-.111-2.994-1.215-.795-1.004-1.692-1.609-2.094-1.21-.804.895 2.576 4.712 4.176 4.72 2.7.014 4.518-3.477 3.838-7.48-.966-6.605-3.358-8.217-6.777-4.535M758.867 946.822c-1.006 1.095-1.31 1.993-.71 1.996s1.402-.493 1.705-.991c1.109-1.794 3.505-1.082 3.495 1.018-.006 1.1-.41 1.998-1.01 1.995a1 1 0 0 0-1.005.995c-.003.5.695 1.003 1.495 1.007 2 .01 1.885 2.91-.02 3.7-.9.296-2.498-.313-3.493-1.218-1.592-1.508-1.992-1.51-1.998-.31-.005.8 1.089 2.106 2.485 2.813 2.095 1.11 2.695 1.114 4.402-.378 1.507-1.392 1.813-2.59 1.43-5.893-.865-6.804-3.357-8.517-6.776-4.734M775.367 946.905c-2.513 2.488-2.636 7.087-.151 10.1 2.981 3.615 5.492 1.628 5.923-4.67.22-4-.074-5.1-1.768-6.21-1.695-1.008-2.296-.91-4.004.78m4.777 4.525c.281 3.701-1.13 5.994-3.226 5.183-1.597-.608-2.266-6.711-.86-8.104 1.608-1.492 3.8.02 4.086 2.92M785.952 949.76c-3.223 4.683-3.226 5.183-.126 5.199 1.6.008 2.497.612 2.493 1.512-.01 1.8 1.59 2.008 2.199.211.71-1.896-.246-10.701-1.146-10.706-.4-.002-1.909 1.69-3.42 3.783m2.39 2.211c-.006 1.1-.71 1.997-1.51 1.993-1.8-.01-1.895-1.21-.287-2.802s1.808-1.49 1.796.81M794.364 947.502c-.705.896-.91 1.895-.512 2.297s1 .105 1.203-.594c.507-1.297 3.509-1.682 4.603-.577.796.904-1.122 4.395-2.422 4.388-1.6-.008-3.913 2.68-3.922 4.38-.006 1.2.992 1.605 3.992 1.62 2.2.012 4.002-.48 4.005-.98.003-.6-1.295-1.006-2.995-1.014-3.8-.02-3.795-1.02.016-3.2 2.006-1.19 3.013-2.485 3.02-4.085.019-3.6-4.574-5.023-6.988-2.235M767.837 952.867c-.303.499.294 1.002 1.494 1.008s1.803-.49 1.505-.992c-.296-.602-.994-1.005-1.494-1.008-.5-.002-1.202.394-1.505.992M101.317 1152.596c-14.641 8.126-24.265 12.778-25.062 12.274-1.496-.908-2.512 2.387-1.22 3.694.797.804 2.7.313 6.91-1.865 19.151-10.004 25.567-13.171 26.767-13.165s1.393 1.507.962 7.605c-.22 4.099-.64 7.897-.942 8.295-.203.5-3.713 2.481-7.723 4.561-12.332 6.238-24.264 12.578-25.57 13.67-.702.497-1.314 2.894-1.327 5.294s-.222 4.4-.522 4.398c-.7-.004-4.888-2.425-5.484-3.128-.298-.402-2.392-1.612-4.786-2.824-7.082-3.636-6.978-4.236 3.299-19.484 3.225-4.884 6.746-9.066 7.747-9.26 2.103-.59 2.516-3.288.726-5.097-2.19-2.211-3.294-1.217-8.338 7.458-2.724 4.686-6.958 11.465-9.176 14.853l-4.232 6.38 5.183 3.425c7.375 4.938 15.451 9.679 16.551 9.684.6.003 1.012-2.395 1.027-5.295.027-5.3.027-5.3 8.348-9.457 12.131-6.14 25.166-13.073 26.07-13.969.403-.398.824-4.596.948-9.395.239-7.599-.055-8.9-1.748-10.209-2.49-1.913-1.99-1.91-8.408 1.557"/><path d="M101.583 1159.298c-2.51 1.887-3.838 7.58-2.655 10.887.79 2.104.99 2.105 3.896.72 4.812-2.276 6.84-7.966 4.06-11.68-1.59-2.108-2.49-2.113-5.3.073m4.482 3.623c.385 2.902-2.134 6.589-4.533 6.577-2.1-.01-1.661-7.709.545-8.898 2.507-1.487 3.704-.78 3.988 2.32M95.969 1162.17c-.402.297-.71 1.896-.718 3.396-.019 3.8-1.422 4.393-3.005 1.085-1.286-2.707-1.286-2.707-2.507 1.287-1.22 3.894-1.22 3.894-2.408 1.688-1.882-3.61-2.29-2.112-1.02 3.795.976 4.905 1.274 5.206 2.483 3.512.805-.996 1.414-2.893 1.42-4.092.018-3.4 1.82-3.891 3.205-.984 1.78 4.009 2.485 3.112 3.119-3.585.633-6.496.537-7.297-.57-6.103M79.024 1170.984c-1.604.792-2.81 1.786-2.911 2.185-.526 4.998-.457 11.198.243 11.202.4.002.804-.896.81-1.896.005-1.1 1.214-2.794 2.72-3.887 1.605-1.092 2.511-2.387 2.113-2.789s-1.399-.207-2.102.39c-.803.695-1.704.89-2.002.49-1.493-1.408-.584-3.104 2.322-4.29 1.703-.69 3.008-1.584 3.01-2.084.006-1.2-.994-1.105-4.203.679"/></svg>