<svg xmlns="http://www.w3.org/2000/svg" viewBox="0 0 861.484 1216.05" fill="currentColor"><path d="M396.74 361.266c-2.2.403-2.299.803-2.286 11.403l.014 10.9 20-.024 20-.025.085 70.3.086 70.2-5.196 2.906c-2.898 1.604-9.594 5.112-14.79 7.918-5.197 2.707-9.894 5.313-10.494 5.713-1.099.802-6.295 3.808-12.99 7.316-7.995 4.31-7.498 2.11-7.463 30.71.031 25.7.031 25.7-2.667 27.103-1.6.702-5.696 3.007-9.194 5.11-3.397 2.105-6.495 3.809-6.695 3.809s-4.797 2.606-10.093 5.812c-16.088 9.62-22.584 12.928-26.383 13.633-2.1.402-5.398 1.806-7.397 3.109-3.497 2.404-3.897 2.504-9.498 1.311-5.801-1.193-6.001-1.092-12.697 2.316-3.898 1.905-7.195 4.409-7.793 5.61-.698 1.8-3.297 3.003-10.994 5.413-5.498 1.706-10.795 3.813-11.894 4.714-2.297 2.103-5.09 7.706-5.985 11.908q-.747 3.15-3.894 5.104c-1.799 1.003-4.096 3.505-5.193 5.607-1.198 2.201-3.695 4.704-5.993 5.907-2.199 1.203-4.197 2.405-4.497 2.706-.3.3-2.298 1.402-4.497 2.605-2.198 1.103-5.796 3.107-7.994 4.41-4.997 2.806-10.293 5.812-17.988 10.022-3.298 1.804-7.295 4.009-8.994 5.01-1.599 1.003-4.996 2.907-7.495 4.21-2.498 1.403-6.495 3.708-8.994 5.01a1119 1119 0 0 1-13.99 7.718c-5.197 2.906-10.992 6.813-12.69 8.616-2.996 3.103-3.295 4.104-3.288 9.404.008 6.6 3.016 13.396 8.724 19.489 3.404 3.796 11.208 7.086 14.507 6.182 2-.502 8.695-4.11 27.982-14.934 5.396-3.007 11.692-6.514 18.287-10.222 2.499-1.403 5.597-3.107 6.796-3.909 1.199-.701 5.096-2.906 8.694-4.81 3.597-2.005 11.492-6.314 17.488-9.822 12.491-7.115 18.19-8.422 24.893-5.63 8.504 3.59 17.101 1.179 23.092-6.428 3.594-4.605 6.792-6.509 11.791-7.315 3.5-.504 18.089-9.422 19.985-12.124.4-.6 1.396-3.502 2.293-6.303 1.195-4.101 2.093-5.403 3.892-5.905 1.3-.301 3.099-1.403 4.097-2.505.9-1 2.298-1.903 2.998-1.903.7-.001 2.098-1.303 2.997-2.904.898-1.601 4.694-4.606 8.291-6.71 3.598-2.005 9.893-5.712 13.99-8.217 4.097-2.405 8.894-5.311 10.693-6.313a145 145 0 0 0 6.695-3.809c1.699-1.002 8.794-5.11 15.589-9.019s13.49-7.916 14.989-9.018c1.399-1.002 3.097-2.004 3.597-2.204 2.899-1.204 12.491-7.216 12.091-7.615-.5-.5-14.291 7.317-23.784 13.329-2.098 1.303-3.997 2.405-4.297 2.405-.2 0-5.096 2.806-10.692 6.213-5.696 3.407-13.19 7.816-16.788 9.82s-8.195 4.61-10.193 5.813c-2.099 1.203-5.297 3.007-6.995 4.109-1.799 1.002-4.897 2.806-6.795 3.908-1.899 1.202-3.798 2.205-4.098 2.205-.4 0-.803-2.599-1.107-5.798-.61-8.1-4.82-16.395-11.728-23.186-3.104-2.996-6.507-5.992-7.608-6.69-1.902-1.099-1.902-1.199-.203-2.5.999-.802 3.997-2.506 6.495-3.809 2.598-1.403 4.897-2.706 5.196-3.006.3-.4 2.998-2.004 5.996-3.607 2.998-1.704 7.595-4.31 10.293-5.713 2.598-1.503 6.595-3.808 8.994-5.11 2.298-1.304 6.595-3.709 9.493-5.512 2.898-1.704 5.496-3.107 5.696-3.107s2.998-1.504 6.196-3.408c3.198-1.804 8.294-4.71 11.292-6.314 2.998-1.703 8.894-5.01 12.991-7.316 4.098-2.305 9.994-5.612 12.991-7.316 2.999-1.603 5.896-3.407 6.496-3.807 1.998-1.903 6.299-.908 8.502 1.79 2.504 3.196 2.109 7.297-1.184 12.9-1.098 1.902-1.796 3.703-1.495 4.002.9.9 5.688-9.907 5.684-12.907-.004-3.3-4.81-8.694-7.71-8.69-1 .001-3.4 1.004-5.298 2.206-3.398 2.005-6.495 3.808-16.689 9.42a71 71 0 0 0-5.795 3.408c-.5.4-3.898 2.305-7.495 4.309-3.598 1.904-9.794 5.312-13.89 7.617-4.098 2.305-7.496 4.11-7.796 4.11-.2 0-.214-11.3-.13-25.1l.269-25 6.096-3.408c3.398-1.804 10.893-5.913 16.489-9.02 5.696-3.207 13.79-7.617 17.888-9.822 4.097-2.205 8.494-4.61 9.693-5.312 1.999-1.302 4.797-2.806 12.592-7.215 1.698-1.002 6.795-3.809 11.192-6.214s9.194-5.111 10.693-6.113c1.398-1.102 2.797-1.904 3.097-1.904.2 0 5.497-2.907 11.792-6.414 6.196-3.608 11.593-6.315 12.093-6.015s.813 10.899.829 23.499l-.072 22.9-6.696 3.608c-3.697 2.005-8.294 4.71-10.193 5.913-1.898 1.202-8.693 5.21-14.989 9.018-6.295 3.708-12.09 7.415-12.69 8.315-3.095 3.804-.086 11.4 6.02 15.393 3.102 1.996 3.503 2.796 4.11 8.095.708 7.4 4.116 13.795 7.918 15.19 2.5.797 3.9.396 9.497-2.611 9.094-4.811 40.572-22.95 51.463-29.563 4.897-3.006 9.094-5.411 9.394-5.412.3 0 1.699-.802 3.098-1.903 1.498-1.002 4.396-2.806 6.495-4.008 6.995-4.009 10.193-5.813 15.689-9.12 5.795-3.507 15.688-9.119 24.982-14.33 2.998-1.604 5.896-3.407 6.495-3.808.5-.5 2.3-.903 4-.905 1.9-.002 4.498-1.205 7.295-3.409 4.296-3.405 4.296-3.405 8.798-1.91 6.402 2.192 12.301 1.085 17.096-3.221 3.096-2.804 4.596-3.506 8.196-3.51 2.5-.003 5.999-.508 7.798-1.21 2.699-1.003 3.799-1.005 5.4.094 2.702 1.596 3.8.495 1.299-1.402-1.802-1.398-1.802-1.398.898-1.501 1.5-.002 2.7-.503 2.698-1.003-.001-1.5-1.101-1.3-9.398 1.511-10.395 3.513-11.796 3.314-7.9-.79 11.085-11.814 13.968-25.417 6.164-28.908-1.6-.698-2.902-1.596-2.902-1.896-.005-3.6-14.299 1.217-15.494 5.219-.697 2.2-4.195 3.905-7.995 3.91-3.2.003-5.805-3.894-4.91-7.395.598-2.5.898-2.6 7.498-2.609 3.8-.004 6.9-.408 6.899-.808-.002-1.4 6.695-4.108 8.795-3.511 1.1.199 3.8-.505 5.998-1.607 2.299-1.203 5.298-2.107 6.698-2.109 2.5-.003 2.5-.003 2.516 13.397.016 13.1.017 13.4-2.68 16.004-1.399 1.401-2.397 2.803-2.197 3.002.601.7 4.497-2.805 5.794-5.107 1.197-2.301 1.57-24.902.466-27.7-.902-2.2-5.702-1.993-10.599.513-2.798 1.403-4.398 1.705-5.099 1.006-.7-.7-2.7-.097-6.397 1.908-8.295 4.61-17.896 4.022-24.002-1.371-2.102-1.797-3.307-5.296-1.506-4.398 6.605 3.392 9.105 3.989 15.805 3.58 6.1-.407 7.799-1.009 12.994-4.415 3.198-2.204 6.995-4.409 8.394-5.11 5.997-2.608 8.196-3.31 10.496-3.313 1.3-.002 2.7-.504 2.999-1.004.3-.6-.201-1-1.301-.998-4.5.005-15.095 4.518-22.389 9.627-6.494 4.408-15.493 5.119-22.997 1.828-3.903-1.795-5.405-4.193-4.31-7.195.599-1.9 8.69-8.21 10.69-8.313.7 0 3.999-1.505 7.297-3.209 3.997-2.105 6.095-3.907 6.193-5.207.2-1.1-.001-1.4-.3-.7-.699 1.5-11.692 7.214-13.992 7.217-1.5.002-1.6-.798-1.007-6.099.296-3.4.59-8.4.586-11.1-.004-3.4.394-5 1.494-5.402 1.799-.702 1.799-.702 13.208 6.384 5.003 3.094 15.711 9.68 23.817 14.47 10.608 6.488 15.012 9.682 16.115 11.98 1.403 2.6 1.607 5.599 1.024 19.6-.289 9.1-.573 21.9-.566 28.3.015 11.7.015 11.8-2.285 11.803-1.3.002-3.2-.696-4.302-1.495-2.903-2.196-4.302-1.694-1.5.502 1.302 1.099 3.503 1.996 4.903 1.994 2.7-.003 11.794-5.314 12.391-7.315.3-.7.583-13.7.665-29 .266-27.801.266-27.801-2.438-31.198-1.403-1.898-3.005-3.496-3.605-3.495-.9 0-3.301-1.496-19.114-11.677-3.703-2.295-7.205-4.291-7.705-4.29-.5 0-1.101-.7-1.502-1.499-.301-.8-1.002-1.498-1.602-1.498-.6.001-4.602-2.094-8.805-4.589-8.507-5.19-10.707-5.587-15.003-2.482-1.7 1.102-3.498 2.105-4.098 2.105-2.1.003-3.094 5.104-3.081 15.504s.013 10.4-3.185 12.604c-5.195 3.706-5.794 4.507-5.79 8.307.004 3.2-1.893 5.602-4.393 5.605-1.2.002-.504-3.399 1.094-5.2.899-1.002 1.098-1.802.498-1.801-1.4.001-4.295 4.105-3.594 5.204.902 1.499-1.695 3.802-4.195 3.805-1.2.001-2.5.403-2.799.903-.3.5-1.898 1.403-3.598 1.905-4.498 1.605-3.9-.795 1.693-6.202 4.694-4.606 9.79-7.612 12.69-7.616.9 0 1.6-.502 1.6-1.102-.004-2.7-9.498 2.012-15.591 7.72-3.596 3.404-5.393 6.506-5.389 9.406.002 1.5-1.197 2.601-4.395 4.105-2.499 1.103-5.496 3.307-6.794 4.909-1.997 2.602-6.893 6.008-17.285 12.02-1.6.903-7.695 4.51-13.49 8.017-5.796 3.507-12.991 7.716-15.99 9.32-2.997 1.703-6.595 3.808-7.993 4.71-4.996 3.306-20.786 12.025-21.886 12.026-.8.001-1.108-6.698-1.128-23.498-.023-18.2-.33-23.5-1.23-23.499-.699.101-3.497 1.404-6.295 3.108-2.698 1.603-6.995 4.108-9.494 5.411-9.793 5.512-14.69 8.318-20.486 11.525-3.298 1.805-6.395 3.608-6.995 4.009-.5.4-4.896 2.806-9.693 5.412l-8.794 4.71-.085-69.5-.085-69.6 20-.024 20-.024-.014-11-.013-11-13.2.016c-7.3.009-24.8-.17-38.8-.253-14-.182-26.5-.167-27.7.034m78.214 11.205.012 9.5-11-.087c-6-.093-23.9-.17-39.7-.251l-28.8-.065-.012-9.5-.012-9.5 39.8.151 39.7.252zm165.874 60.197c2.902 1.797 9.507 5.988 14.711 9.282 5.204 3.394 13.41 8.384 18.314 11.278 4.803 2.894 9.308 6.188 9.909 7.288.802 1.599 1.113 10.598.937 30.199-.167 26.9-.266 28.1-2.264 29.702-1.099 1.002-2.398 1.803-2.898 1.804-.5 0-.915-12.399-.934-28.099-.04-32.7.362-31.3-10.846-37.487-3.702-1.995-6.905-3.991-7.205-4.291s-2.502-1.697-5.004-2.994c-2.502-1.397-8.506-5.09-13.31-8.284-4.904-3.194-9.107-5.789-9.507-5.788s-1.801-.898-3.202-1.996c-2.503-1.997-2.503-1.997-.505-3.6 2.498-1.903 5.199-1.206 11.804 2.986m-30.25 41.837c.003 2 4.51 6.795 6.41 6.792.9 0 1.6.798 1.602 1.998.001 1.1-.698 2.001-1.498 2.002s-1.5-.398-1.501-.898c-.002-1.6-5.909-7.293-6.908-6.692-1.499 1.002-2.402-1.397-1.104-2.898 1.498-1.802 2.998-1.904 3-.304m-4.194 4.205c2.502 1.297 9.01 7.89 15.018 15.082 2.003 2.397 2.804 2.696 6.703 2.292 2.8-.404 6.998-2.109 11.295-4.714 7.394-4.41 10.493-5.013 13.397-2.416 4.605 4.094.419 15.599-9.37 25.611-8.389 8.61-11.986 10.715-18.386 10.722-5.7.007-9.502-1.988-7.705-4.09 2.496-3.203 3.39-8.704 2.184-13.103-.603-2.4-1.107-5.698-1.109-7.298.096-2.9-5.416-13.494-7.016-13.492-1.3.002-.9.901 1.203 3.199 4.306 4.694 1.705 3.398-3.302-1.596-5.306-5.294-8.308-6.59-15.308-6.582-3.5.005-4.601-1.294-1.802-2.397 3.098-1.204 6.099-.508 10.702 2.386 5.204 3.294 5.705 3.494 5.703 2.094 0-.5-2.503-2.197-5.504-3.594-3.002-1.496-5.504-2.893-5.504-3.093-.001-1 6.4-.308 8.801.99m-11.89 7.615c4.802 2.394 12.513 10.884 15.42 16.88 2.206 4.898 3.724 19.496 2.126 21.098-.5.5-.903-2.299-1.008-6.298-.005-4.5-.71-8.7-1.714-11.098-2.506-5.697-3.004-3.897-.696 2.5 3.01 8.097 2.221 17.798-1.577 19.302-1.2.502-1.2.102.097-2.4 1.995-3.902 1.785-12.602-.521-17.5-2.206-4.796-2.505-3.596-.498 2.002 3.01 8.296.821 17.299-4.676 19.105-1.3.402-3.898 1.705-5.797 2.907-1.898 1.203-5.996 3.508-8.994 5.211-7.394 4.11-26.381 15.133-43.469 25.353-20.185 12.025-30.178 17.937-36.474 21.345-2.998 1.604-6.695 3.808-8.194 4.91-1.398 1.002-2.897 1.804-3.297 1.804s-4.997 2.506-10.193 5.713c-10.593 6.313-12.693 6.415-16.7 1.02-2.804-3.797-3.52-16.596-1.228-23.299.897-2.6 1.593-5.702 1.592-6.902-.003-2.2-2.907-5.896-5.208-6.793-1.801-.598.396-2.8 6.193-5.808 2.498-1.303 4.696-2.705 4.996-3.006s2.998-1.903 5.996-3.607c13.59-7.417 17.688-9.722 20.185-11.525 1.4-1.002 2.898-1.803 3.198-1.804.4 0 3.598-1.804 7.195-4.009s6.795-4.008 6.995-4.008 5.397-3.007 11.592-6.614c36.274-21.445 45.467-27.156 47.365-29.158 4.194-4.505 11.796-2.715 20.006 4.875 2.503 2.297 4.705 3.895 5.004 3.594.2-.3-2.003-2.797-5.007-5.494-3.704-3.395-6.906-5.391-10.007-6.187-5.602-1.394-6.103-2.593-.802-1.7 5.5.794 9.504 3.089 13.71 7.684 2.002 2.297 3.904 3.895 4.204 3.595.998-1.101-7.111-8.692-12.014-11.086-2.802-1.396-4.303-2.594-3.403-2.595 1-.002 3.501.895 5.602 1.993m9.104 3.889c6.208 6.092 11.419 15.386 10.824 19.486-.198 1.4-.9.302-2.204-3.397-2.208-6.597-8.219-14.99-13.823-18.983-2.403-1.797-3.404-2.996-2.504-2.997s4.403 2.695 7.707 5.89m4.6-.506c5.807 5.793 9.516 13.288 10.124 20.388.305 3.5.108 6.2-.392 6.5-.6.4-1.302-1.598-1.606-4.898-.809-7.599-5.019-15.794-11.427-22.186-3.905-3.895-4.706-5.194-3.106-4.696 1.301.398 4.204 2.595 6.406 4.892m38.394-4.747c-.1.8-12.99 8.516-12.99 7.816-.004-3 6.889-8.508 10.689-8.513 1.3-.002 2.3.297 2.3.697m-29.986 11.437c0 .6-.4.7-1 .401-.5-.3-1.001-1.099-1.002-1.599 0-.6.5-.7 1-.401.6.3 1.001 1.099 1.002 1.599m12.998-1.616c0 .3-.2.5-.5.5s-.5-.199-.5-.499.2-.5.5-.5.5.199.5.499m-13.969 25.817c-.698 1.7-.899 1.001-.903-2.799.095-4.3.194-4.6.897-2.201.502 1.6.505 3.8.006 5m-150.447 43.384c3.404 3.296 3.106 4.996-.297 2.5-2.002-1.497-3.602-1.895-5.502-1.493-4.798 1.206-4.392 6.305.815 11.699 1.402 1.598 2.203 2.797 1.703 2.798s-2.402-1.397-4.104-3.195c-5.507-5.693-3.618-14.796 3.182-14.804 1-.001 2.901 1.096 4.203 2.495m-.295 4.2c2.103 1.898 2.307 5.197.51 7.7-1.797 2.502-4.7.905-7.305-3.892-1.604-3.098-1.705-3.697-.406-4.5 2.299-1.502 5.099-1.205 7.201.692m-130.116 68.46c-.7.4-.199 1.3 1.403 2.297 3.502 2.296 4.302 2.095 1.999-.502-1.903-2.198-1.903-2.198 1.3-.002 7.907 5.49 14.519 15.583 15.73 24.181l.705 4.5-1.906-4.998c-2.207-5.798-5.415-12.194-7.618-14.991-2.204-2.897-2.002-1.198.403 2.8 1.102 1.898 1.805 4.097 1.506 4.898-.3.7.104 3.3 1.007 5.698 2.208 6.498 2.019 15.198-.577 18.501-1.099 1.401-2.497 2.603-3.097 2.604s-.401-.8.498-1.8c4.294-4.806 4.18-15.806-.33-24.5-1.404-2.699-1.806-4.198-1.106-4.699 1.599-.902-5.31-8.493-10.514-11.587-2.402-1.397-4.404-2.695-4.404-2.695 0-.1 1.4-.201 3.1-.304s2.6.197 1.9.598m-5.999 1.006c1.1.7.701 1-1.699 1.003-1.8.002-3.3-.496-3.301-.996-.002-1.3 2.998-1.304 5-.007m-15.096 3.119c4.3.895 5.902 1.993 11.81 8.186 9.813 10.388 12.52 16.984 8.626 21.289-.999 1.101-3.496 3.304-5.594 4.807-2.098 1.602-3.497 3.104-3.196 3.404.9.899 8.394-5.01 10.39-8.113 2.196-3.503 2.196-3.503 4.507 5.495 2.813 10.796-.078 18-9.67 24.411-8.893 5.911-13.092 7.316-16.494 5.32-3.903-2.095-4.21-8.194-.818-14.898 1.396-2.702 2.194-5.003 1.694-5.003-1.3.002-5.29 8.907-5.784 13.008-.694 5.1-2.295 4.202-2.302-1.198-.007-5.5 3.186-11.804 8.18-16.31 2.797-2.603 3.795-4.204 3.493-5.604-.401-1.4.297-2.4 2.596-3.603 5.796-2.907 8.59-7.81 7.285-12.609-.704-2.7-6.412-9.192-7.31-8.291-.4.3.802 1.999 2.504 3.697 2.503 2.397 3.205 3.996 3.208 6.796.005 4.2-1.692 6.302-7.887 10.11-2.998 1.703-4.097 3.105-4.095 4.805.002 1.4-1.694 4.302-3.791 6.704-4.494 5.206-6.884 13.409-5.179 17.907.803 2.199.604 3.199-.793 5.1-2.097 3.003-4.995 4.107-6.597 2.509-1.903-1.898-1.423-18.599.769-25.401 1.693-5.202 3.19-7.204 10.882-14.714 8.89-8.71 8.89-8.71 8.882-14.71-.011-9.1-1.914-11.498-10.516-13.188-2.3-.397-3.201-.796-2.001-.897 1.2-.102 4.4.394 7.2.99m16.8.38c4.202 1.794 4.602 1.794 3.8.495-1.302-2.099.7-.801 5.005 3.094 2.502 2.297 4.505 4.694 4.506 5.294 0 .6-1.801-.898-4.004-3.295s-4.305-4.195-4.505-3.894c-.3.3 1.203 2.398 3.406 4.695 4.806 5.095 7.914 11.59 9.324 19.189.906 5.099.807 6.299-.89 9.101-2.793 4.804-4.893 4.806-5.6.007-1.51-9.298-9.027-22.589-17.236-30.379-2.403-2.297-4.106-4.595-3.907-4.995.799-1.301 6.2-.908 10.101.687m-23.898 1.729c-.199.7.702 1.399 1.902 1.597 2.3.297 5.004 2.894 4.005 3.795-.3.3-1.4.102-2.5-.497-2.702-1.396-9.802-1.388-12.4.016-1.6.802-1.9.802-1.6-.198.198-.7 1.297-1.702 2.396-2.303 1-.602 2.298-1.703 2.697-2.404.998-1.6 5.798-1.607 5.5-.006m-9.498 1.511c-3.197 2.204-3.091 6.804.211 8.9 3.803 2.495 12.203 2.085 15.1-.718 3.096-2.904 2.994-4.004-.21-7.3-3.003-2.997-1.204-3.599 2.4-.803 2.201 1.697 4.41 9.494 2.61 9.097-.5-.1-2.599.503-4.598 1.405-4.597 2.106-10.697 2.213-15.4.22-2.6-1.098-3.4-1.097-3.2-.197.3.6 2.902 1.796 6.003 2.593 5.602 1.393 8.002 1.09 16.097-2.42 1.3-.502 1.7-.202 1.702 1.498.002 1.5-2.794 5.003-8.087 10.21-8.89 8.81-11.983 14.314-13.87 24.617-1.689 9.602.524 20.1 4.224 20.195.5-.001 2.598-1.604 4.796-3.706 3.796-3.305 4.196-3.505 5.697-2.007 1.502 1.398 1.203 1.998-3.191 6.904-2.597 2.903-5.593 5.907-6.592 6.608-1.998 1.402-13.898 2.017-15.8.82-1.7-1.099-1.302-2.4.997-3.602 1.698-.902 2.299-.803 3.6.695 1.302 1.699 1.402 1.599.9-.9-.303-1.5-.107-4.9.49-7.701.795-3.701.792-6.401-.112-9.8-2.312-9.697-2.313-10.297.48-16.9 1.495-3.603 2.591-6.704 2.29-6.904-.4-.499-3.791 6.605-5.286 11.007-.697 2-.697 2-1.8.002-2.004-3.397-12.116-12.985-15.017-14.282-1.501-.698-4.202-1.194-5.802-1.192-2.7.003-3-.297-2.402-2.298 1.294-4.301 4.188-9.105 6.586-10.908 1.299-1.001 5.597-2.706 9.395-3.911 3.9-1.105 7.798-2.31 8.797-2.61 1.2-.402 1.7-.003 1.702 1.597.002 1.1.503 2.1 1.103 2.099.7-.001.898-1.101.496-3.1-.503-2.5-.104-3.6 2.293-6.004 1.598-1.602 3.496-2.904 4.296-2.805.7 0 .301.7-.898 1.601m14.107 5.283c1.602 1.598-.796 3.201-5.696 3.707-6.899.808-11.503-2.586-6.406-4.692 2.6-1.103 10.7-.413 12.102.985m42.32 17.348c.304 2.8.008 6.2-.59 7.601-.997 2.401-1.097 2.301-.5-.7.595-3.5-1.419-14.998-2.72-15.896-.5-.3-.902-1.299-.903-2.199.096-3.5 4.208 6.295 4.714 11.194m-80.59 7.299c3.802 1.895 11.313 10.586 13.819 15.783 2.507 5.397 3.717 13.995 2.524 19.297-.696 3.5-.797 3-1.506-4.498-.305-4.6-1.21-8.899-1.911-9.498-1.002-.999-1.101-.699-.399 1.3.402 1.4.807 6 .913 10.3.008 7.2-.19 8-2.488 9.702-1.4 1.002-2.598 1.704-2.799 1.504-.2-.2.598-2.1 1.695-4.402 4.09-7.905 1.676-19.602-5.835-28.893-4.307-5.295-12.812-9.684-17.111-8.78-3.8.705-3.8.105-.102-1.8 2.598-1.402 3.198-1.303 7.8.891 4.804 2.394 8.808 5.79 11.713 9.986.801 1.1 1.702 1.698 2.102 1.297.998-1-6.411-8.692-11.214-11.486-2.302-1.297-4.304-2.695-4.304-2.995 0-.6 3.9.596 7.103 2.292m43.604 3.046c-.4.301-.7.001-.701-.699s.298-1 .699-.7c.3.4.301 1 .002 1.4m-52.298 1.764c1.9.798 4.903 2.694 6.605 4.292 1.802 1.498 3.603 2.696 4.103 2.595.4-.2.5.5.202 1.4-.499 1.2-.198 1.5 1.001.999 1-.401 2.1.197 2.902 1.596 2.104 3.298 3.007 5.897 1.706 5.098-.8-.399-.9.401-.497 2.7.604 2.9.204 2.5-2.402-2.396-3.508-6.496-10.418-14.088-13.819-14.883-2.9-.797-2.899.903.102 1.7 3.302 1.095 6.506 4.292 10.814 10.886 3.606 5.496 3.908 6.396 3.916 13.296.01 8.8 1.911 9.197 2.2.497.194-5.7.194-5.7.5-.8.508 6.499-.289 9.6-2.489 9.602-1 .001-2.699.704-3.798 1.505-.999.801-2.498 1.503-3.198 1.504-1.2.001-5.797 2.407-23.385 12.328-11.892 6.715-14.69 8.318-21.285 12.026-3.798 2.205-10.793 6.114-15.49 8.72-4.696 2.605-12.591 7.015-17.688 9.821-10.093 5.712-11.992 6.315-10.296 3.313 2.095-4.003-.12-16.7-2.719-15.697-.7.3-2.101-.998-3.203-2.796-2.605-4.197-8.91-8.59-12.31-8.585-3.1.004-5.498 2.107-6.394 5.708-.697 2.6 1.312 9.998 2.914 10.996.7.4.7-.1.198-1.3-1.404-3.198-1.813-10.498-.614-11.7.799-.8 1.1-.4 1.102 1.4.006 5.4 2.312 10.296 7.018 14.99 2.703 2.697 5.606 4.894 6.506 4.893.8-.001 1.5.398 1.501.998.003 2.3-5.199.806-9.003-2.59-2.203-1.996-4.004-3.194-4.003-2.594.001 1.4 6.408 6.892 8.91 7.689 5.001 1.594 8.694-4.01 7.585-11.51-.404-3.199-.305-4.099.396-3 1.503 2.198 1.317 13.199-.281 15.2-3.894 5.205-15.301-1.08-20.714-11.474-4.41-8.495-2.925-20.697 2.575-20.703 3-.004 8.803 2.489 10.505 4.387.701.899 1.702 1.598 2.302 1.597 2-.002-3.606-4.996-6.907-5.992-1.901-.697-3.402-1.495-3.403-1.995 0-.4 2.198-1.903 4.796-3.306 2.698-1.404 6.596-3.508 8.794-4.811 2.099-1.203 6.396-3.508 9.394-5.112 2.998-1.603 5.896-3.307 6.496-3.707.499-.501 4.196-2.506 7.994-4.61 9.394-5.012 15.29-8.319 25.483-14.031a2608 2608 0 0 0 18.187-10.223c8.694-4.81 13.99-8.717 9.492-7.011-1 .301-1.7.202-1.7-.298-.002-.8 1.997-1.603 4.797-1.906.7 0 2.8.497 4.602 1.294m18.324 20.278c-.4.3-.7 0-.7-.7-.001-.7.298-1 .699-.7.3.4.3 1 .001 1.4m1.007 5.499c-.299.8-.6.5-.6-.6-.102-1.1.197-1.7.498-1.3.3.3.401 1.2.102 1.9m-116.155 36.842c-1.093 5.301 1.214 11.498 5.818 14.893 2.202 1.797 4.704 3.194 5.404 3.193s1.3.398 1.301.998c.002 1.4-1.598 1.202-4.8-.394-5.504-2.893-9.511-9.088-10.52-16.287-.505-4.4-.206-5.3 1.994-5.302 1.1-.002 1.3.798.803 2.899m5.305 3.693c-.9.901-2.199 1.403-3 1.104q-1.2-.45 1.2-1.502c3.497-1.504 3.697-1.404 1.8.398m5.204 3.394c0 .9-5.595 4.007-7.195 4.009-1.8.002-.603-1.9 2.495-3.803s4.698-2.006 4.7-.206m.005 4c-2.598 2.003-4.997 2.606-4.999 1.206-.001-.9 3.897-2.905 5.996-3.107.9-.001.601.699-.997 1.9m1.504 3.998c-.299.5-1.198 1.002-1.798 1.002-.7.001-.6-.399.298-1 1.899-1.202 2.299-1.203 1.5-.002"/><path d="M402.449 368.06c-.7.9-.998 1.8-.598 2.2.3.4 1.3-.202 1.999-1.302 1.398-1.802 1.498-1.802 3.3-.104 1.702 1.797 1.702 1.897-.696 3.8-4.595 3.606-5.095 4.107-4.693 5.206.501 1.5 7.702 2.19 7.7.79 0-.6-1.1-1.098-2.5-1.096-3.3.004-3.202-1.396.494-4 3.397-2.405 3.596-3.205 1.394-5.403-2.003-1.997-4.803-1.994-6.4-.092M413.148 367.246c-.4.3-.698 1.801-.696 3.301.002 2.2.403 2.6 2.803 2.497 2-.003 2.7.496 2.702 1.996.002 1.6-.597 2.001-2.698 1.804-3-.197-3.798 1.104-1.297 2.101 2 .698 4.4-.305 5.497-2.406 1.197-2.202-1.407-5.999-4.107-5.995-1 0-1.9-.498-1.901-.998-.001-.6 1.098-1.002 2.498-1.003 1.4-.002 2.5-.503 2.5-1.003-.002-1.1-4.303-1.395-5.301-.294M430.949 367.924c-1.799 1.303-1.799 1.403-.097 3.1 1.202 1.2 1.504 2.599 1.106 4.6-.398 1.8-.197 2.9.403 2.899.7-.001 1.098-2.402 1.093-6.002-.004-3.3-.107-6-.307-6-.2.001-1.2.602-2.198 1.403M439.648 367.714c-1.997 2.002-1.489 9.102.813 10.599 3.303 1.996 6-.407 5.994-5.307-.005-4.3-1.308-6.499-4.008-6.496-.9.002-2.1.503-2.799 1.204m4.807 5.394c.005 3.8-.295 4.5-1.695 4.202-1.3-.198-1.902-1.498-2.106-4.597-.304-3.7-.105-4.2 1.695-4.202 1.8-.003 2.101.597 2.106 4.597M449.648 367.702c-1.897 1.902-1.49 8.201.713 10.199 1.501 1.398 2.402 1.497 4 .595 1.6-.802 2.098-2.003 2.094-5.303-.005-4.5-1.308-6.698-4.008-6.695-.9.001-2.1.503-2.799 1.204m5.604 3.093c.704 3.399-.692 6.7-2.792 6.703-1.7.002-2-.697-2.005-4.597-.005-4.1.194-4.5 2.195-4.203 1.3.198 2.4 1.097 2.602 2.097M422.457 374.535c0 .5.7.999 1.5.998s1.5-.502 1.5-1.002c-.001-.6-.702-.999-1.502-.998s-1.5.402-1.498 1.002M679.563 461.22c-.8.502-1.099 1.202-.698 1.602.4.4 1.5-.002 2.399-.903 1.797-1.802.797-2.301-1.701-.698M608.593 486.308c0 .5.502.999 1.002.998.6 0 .999-.5.998-1 0-.6-.4-1-1-1-.5 0-1 .402-1 1.002M640.902 493.468c-4.594 5.106-5.587 10.307-2.484 13.103 2.603 2.397 8.203 1.99 8.2-.61-.002-.7-.402-.7-1.2.102-1.1 1.1-4.798 1.705-4.8.805 0-.2 1.598-2.002 3.496-3.904 2.497-2.503 3.494-4.404 3.492-6.604-.006-4.4 1.795-3.902 2.2.597.304 3.1.605 3.4 1.203 1.899.498-1 .496-3-.006-4.5-1.304-3.699-7.105-4.192-10.1-.888m5.703 1.993c.003 2.6-4.59 8.806-6.59 8.808-2.1.003-1.705-4.698.69-8.1 2.496-3.504 5.896-3.908 5.9-.708M627.513 502.184c1.704 3.098 2.415 12.397 1.32 16.399-.598 2-.696 3.7-.196 3.7 2.1-.003 2.686-11.903.778-18.1-.603-2.2-1.505-3.9-2.005-3.898-.5 0-.399.9.103 1.9M341.785 643.134c1.301 1.398 2.603 2.296 2.802 1.996.7-.7-2.905-4.496-4.105-4.495-.6 0 .001 1.1 1.303 2.499M319.139 687.461c-4.295 4.206-5.79 8.507-4.285 12.206 1.003 2.498 1.803 2.997 4.603 2.994 1.9-.002 3.4-.504 3.4-1.104-.002-.6-.902-.8-2.201-.298-1.9.603-1.9.203.995-3.7 1.797-2.403 3.193-5.505 3.192-7.105-.002-1.5.496-2.8.996-2.8.6-.002 1.002 1.698 1.005 3.698.003 2.8.304 3.4 1.002 2.299 1.497-2.402 1.195-4.802-1.008-7-2.703-2.696-4.203-2.494-7.7.81m4.703 2.595c-.795 3.8-4.588 9.605-6.088 9.607-1.4.002-2.204-2.697-1.507-5.298.697-2.801 5.29-7.707 7.09-7.709.9 0 1.102.899.505 3.4M293.704 659.092c.601.7 3.803 1.996 7.103 2.692l6.002 1.292-4.195 3.805c-6.194 5.408-3.595 4.705 3.099-.903a577 577 0 0 1 6.393-5.308c.4-.3-1.9-.398-5.1-.194-3.9.305-7-.091-9.602-1.188-4.702-1.994-5.202-1.994-3.7-.196"/><path d="m674.707 415.527.314 11.2 19.9.275 19.9.176-.667 26.8c-.667 26.701-.667 26.701-4.064 29.706-1.898 1.602-3.495 3.804-3.694 4.904s-2.996 3.304-7.093 5.609c-9.094 4.91-10.392 6.212-9.088 9.71.502 1.5 1.703 2.899 2.704 3.098 1 .198 5.498-1.507 9.895-3.913 6.896-3.508 8.395-4.01 10.096-3.012 1.501.998 2.601.897 5.3-.406 6.596-3.108 6.687-10.209.28-16-3.904-3.496-3.904-3.496-3.417-14.297.487-10.4 1.358-34.201 1.452-39.201-.003-2.5-.003-2.5 19.997-2.225l20 .376.19-8.6c.094-4.7.188-9.6.187-10.8.098-1.6-.703-2.4-2.904-2.897-1.6-.398-20.2-.976-41.301-1.25l-38.3-.453zm80.79-7.599c.301.4.406 4.6.212 9.4l-.29 8.8-12.2.015c-6.7.008-24.7-.27-39.9-.651l-27.8-.566-.012-9.5-.012-9.5 39.801.651c21.8.373 39.901.951 40.202 1.351m-39.406 76.248c-.3.5-1.299 1.002-2.099 1.003s-1.4-.499-1.401-.999c0-.6.899-1 2.099-1.002 1.1-.001 1.7.398 1.4.998m-1.796 3.202c4.606 5.095 5.612 10.194 2.313 11.298-2.898.903-4.3-.295-2.502-2.197 2.597-2.604-.911-9.1-4.21-7.895-1.3.601-1.802-1.598-.603-2.7 1.198-1.301 2.899-.703 5.002 1.494m4.998-1.406c1.701 1.098 2.808 6.197 1.308 6.199-1.7.002-3.904-2.996-4.007-5.295-.002-1.8.798-2.101 2.699-.904m-5.592 6.407c1.002 1.799.803 2.4-1.095 4.001-2.997 2.404-3.297 2.304-4.902-1.294-1.203-2.698-1.204-3.298-.005-4 2.398-1.502 4.799-1.005 6.002 1.293m-7.096 3.409c1.204 3.098 1.204 3.398.204 3.4-.8 0-3.205-4.297-3.207-5.497-.002-1.6 2.2-.102 3.003 2.097m14.998-1.219c.001.8-.397 1.8-.997 2.102-.5.3-1-.3-1.002-1.4-.001-1.2.498-2.1.998-2.1.6-.001 1 .598 1.001 1.398m-18.197 1.823c1.401 1.398 1.606 4.798.306 4.8-.5 0-1.101-.8-1.503-1.799-.3-.9-.902-2.299-1.203-2.998-.702-1.5.798-1.601 2.4-.003m-2.297 2.802c1.004 3.2-.594 4.601-2.098 1.903-1.703-3.098-1.704-3.898-.004-3.9.8 0 1.7.898 2.102 1.997m-3.498 1.505c.702 1.399 1.003 2.799.704 3.199-.8.8-3.603-2.596-3.706-4.496-.002-2 1.599-1.402 3.002 1.297m-2.497 2.203c.3.9.102 2.1-.497 2.7-1.398 1.402-4.502-1.694-3.705-3.795.698-1.8 3.299-1.104 4.202 1.095"/><path d="M683.7 410.416c-.699.7-1.197 1.601-1.197 2.201.001.6.5.5 1.2-.201s1.999-1.203 2.999-1.204c2.9-.004 2.104 3.397-1.194 5.301-1.699 1.003-2.997 2.704-2.995 3.804.002 1.5.702 1.9 3.602 1.896 2.1-.003 3.3-.404 2.899-1.004-.3-.6-1.501-.998-2.601-.997-2.4.003-2.502-1.697-.103-2.4 2.998-1.003 4.295-4.005 2.592-6.503-1.703-2.398-3.404-2.696-5.201-.893M693.201 410.904c-.4.3-.698 1.7-.696 3 .002 1.9.503 2.3 3.003 2.297 2.3-.003 3 .397 3.002 1.997.003 2.6-2.495 3.603-4.698 1.905-1.401-1.198-1.601-1.198-1.1.102.704 2.399 5.504 2.493 6.7.092 1.498-2.602.395-5.001-2.506-5.697-3.301-.796-3.004-3.197.395-3.7 2.6-.404 2.6-.404-.4-.6-1.7.002-3.4.204-3.7.604M719.902 411.571c-1.099.802-1.498 1.802-.997 2.302.5.4 1.1.198 1.3-.502.299-.6 1.298-1.201 2.398-1.203 3-.003 2.304 3.597-1.093 5.702-1.6.901-2.997 2.503-2.996 3.503.002 1.4.802 1.8 4.102 1.795 2.4-.003 3.8-.404 3.399-1.004-.3-.6-1.701-.998-3.101-.996-3.2.004-3.002-1.097.596-3.2 3.497-2.005 3.994-5.206 1.092-6.802-2.502-1.297-2.302-1.297-4.7.405M729.802 411.66c-.999.8-1.398 1.701-.897 2.2.5.4 1.1.2 1.3-.501.299-.6 1.098-1.201 1.798-1.202 2.3-.003 2.802 2.096.904 3.499-1.798 1.302-1.798 1.402-.098 1.5 2.4-.003 2.305 3.997-.095 4-1 .001-2.4-.597-3.102-1.296-1.001-1-1.2-.799-.899.8.403 2.3 4.204 3.196 6.302 1.493.999-.801 1.297-2.602.993-5.401-.202-2.2-.405-4.4-.405-4.7-.202-1.4-4.102-1.595-5.8-.393M710.603 412.083c-1.1.701-1.1 1.001.202 1.7.9.498 1.703 2.698 2.006 4.897.304 3.3.403 3 .498-1.8.193-5.7-.208-6.4-2.706-4.797M703.31 417.892c.6.199 1.8.198 2.5-.003.6-.301.1-.5-1.3-.499s-1.9.203-1.2.502M624.833 436.988c-.7.3-1.198 1.701-1.196 3.101.203 2.4.203 2.4.6.4.497-2.401 2.197-2.903 4.1-1.006 1.701 1.698 1.503 3.299-.299 1.8-.9-.798-1.5-.897-1.5-.197 0 .6.502 1.399 1.002 1.698.8.5.702 1.2-.197 2.2-.999 1.302-.898 1.502.701 1.2 2.8-.604 2.792-6.704-.01-8.4-1.1-.699-2.601-1.097-3.2-.796M618.865 462.995c-5.296 3.606-.588 10.3 7.212 10.291 7.6-.01 11.491-7.414 5.488-10.507-3.703-1.895-3.802-1.195-.198 2.1 2.703 2.497 2.703 2.497-.798 1.802-4.4-.895-5.7-.893-9.7.012-4.198 1.005-4.4-.795-.303-2.9 1.699-.902 2.998-1.804 2.997-2.004 0-1-2.6-.297-4.698 1.206m11.106 4.886c2.601.997 1.804 3.398-1.096 3.602-7 .308-11.301-1.286-8.304-3.19 1.699-1.102 6.999-1.309 9.4-.412M667.167 465.136c-.898 1.001-1.597 2.402-1.596 3.202.002 1.2.202 1.2 1-.101 1.198-1.902 2.2-.803 2.403 2.397.104 3.1 2.604 3.397 4.4.594 1.398-2.201.295-4.8-2.807-6.796-1.401-.799-2.101-.698-3.4.704m5.406 4.293c0 .6-.7.501-1.5-.198-.801-.699-1.503-1.698-1.503-2.198 0-.6.7-.5 1.5.198.8.7 1.502 1.698 1.503 2.198M662.596 488.742c.014 11.3.325 20.5.825 20.499.4 0 .89-9.202.975-20.502.283-14.1-.025-20.5-.725-20.499-.8.001-1.092 6.602-1.075 20.502M666.227 513.837c-.797 2.101.204 3.3 1.302 1.599.599-1.001 1.2-.702 2.401 1.197 2.104 3.097 2.105 3.997.204 3.2-.8-.3-1.5-.099-1.5.401.003 1.7 3.802 1.096 4.9-.706.998-1.801-.206-5.1-2.308-6.497-1.902-1.298-4.401-.895-4.999.806m5.402 1.894c0 .3-.2.5-.5.5s-.5-.2-.5-.5.2-.5.5-.5.5.2.5.5M659.937 522.345c-1.798 1.202-3.296 2.704-3.295 3.404 0 .8 1.5-.002 3.497-1.804 3.097-2.804 3.996-3.705 3.296-3.704-.2 0-1.799 1.002-3.498 2.104M655.647 530.25c0 .7.301 1 .7.7.3-.401.3-1.001 0-1.4-.401-.3-.7 0-.7.7M655.662 542.75c0 .3.2.5.5.5s.5-.201.5-.501-.2-.5-.5-.5-.5.201-.5.501M655.667 546.75c0 .3.2.5.5.5s.5-.201.5-.501-.2-.5-.5-.5-.5.201-.5.501M655.674 552.05c0 .5-1.598 1.702-3.497 2.804-1.899 1.003-3.497 2.205-3.497 2.605.001.9 7.697-3.01 8.495-4.21.3-.501.099-1.1-.502-1.5-.5-.3-1-.199-1 .301M633.676 553.577c-1.9 1.002-2.598 2.103-2.794 5.303-.393 5.4 1.609 7.198 5.005 4.494 1.899-1.502 2.798-1.703 3.6-.904.8.799 1.2.798 1.2.098-.001-.6-.703-1.699-1.603-2.398-1.402-1.098-1.902-.997-3.5 1.005-2.296 2.802-3.897 2.004-3.902-1.896-.006-5.2 5.193-6.106 8.999-1.51.8.998 1.601 1.197 2 .597.3-.6.7.4.803 2.199.202 1.7.406 4.5.508 6.1.204 3.5-2.394 5.702-4.996 4.005-2.602-1.596-2.704-3.196-.204-3.6 1.2-.2 2.399-.902 2.698-1.603.299-1-.301-1-3 .104-4.598 1.906-4.795 4.206-.293 5.8l3.502 1.296-.147 43.6-.247 43.5-11.9.115c-8.3.01-12.1.415-12.398 1.215-.398 1.4 24.302 1.77 25.2.37.2-.4.475-20.501.646-44.701.15-40.9.346-44.2 2.043-46.403.998-1.401 1.795-4.002 1.792-6.402-.004-3.2-.705-4.6-3.91-7.795-4.204-4.195-5.305-4.494-9.102-2.59m8.503 2.69c.3.5.401.999.101 1-.3 0-.8-.5-1.101-1-.3-.599-.401-.999-.101-1 .3 0 .8.4 1.1 1"/><path d="M613.89 565.101c-1.8.902-3.497 2.604-3.796 3.805-.895 3.6 1.411 8.998 5.215 12.293 3.404 2.996 3.404 2.996 3.428 23.096l.025 20-14.9.018-15 .019-.307-5.3-.306-5.2-8.5-.59c-4.701-.293-23.101-.47-41.001-.45l-32.5.14.013 11 .014 11 40.4.651c32.001.561 40.601.45 41.3-.55.4-.6.796-2.901.794-4.901l-.005-3.7 15.8-.32 15.7-.319.274-21.2.174-21.3 3.997-2.605c4.296-2.905 5.192-6.206 2.887-10.704-3.409-6.595-7.41-8.09-13.706-4.883m7.3.091c.801 1.4-1.297 2.402-3.298 1.604-1.401-.498-1.401-.698-.202-1.5 1.898-1.202 2.698-1.203 3.5-.104m-3.997 2.905c2.702 1.797 5.61 7.393 5.312 9.894-.395 3.5-3.994 4.304-6.998 1.608-5.105-4.594-6.115-12.292-1.515-12.298 1.2-.001 2.7.397 3.201.796m8.3.39c.702.7 1.203 1.998 1.204 2.998.003 2.1-2.997 2.404-4.799.606-.7-.699-1.202-1.998-1.204-2.998-.002-2.1 2.998-2.404 4.8-.606m2.209 6.597c0 .5-.898 1.701-1.997 2.703-1.898 1.802-1.998 1.702-2-.298-.002-1.8 1.096-2.901 3.296-3.104.4-.1.7.3.7.7M582.05 615.04l4.7.494.012 9.4.011 9.4-13.8.017c-7.6.01-25.4-.269-39.5-.652l-25.701-.568-.012-9.4-.011-9.3 34.8.057c19.1.077 36.8.355 39.5.552"/><path d="M613.798 571.601c-1.599 1.602-1.398 2.402.903 3 1.1.298 2.002 1.197 2.003 2.097.002 2 1.402 2.098 2.9.196 2.396-2.903-3.21-7.896-5.806-5.293m4.903 2.794c0 .5-.399.9-.999.901-.5.001-1-.698-1.002-1.598 0-.8.499-1.2.999-.902.6.3 1.001 1 1.002 1.6M515.355 619.022c-2.297 2.202-1.995 4.002.303 2 1.998-1.803 4.098-1.406 4.1.694.002.7-1.596 2.502-3.494 4.004-4.196 3.406-3.795 4.705 1.605 4.698 2.4-.002 3.8-.404 3.4-1.004-.302-.6-1.802-.997-3.302-.996-2.7-.096-2.7-.096.596-2.8 1.799-1.503 3.197-3.204 3.196-3.904-.002-1.3-2.706-4.297-4.006-4.295-.5 0-1.599.702-2.398 1.603M524.357 620.01c-1.296 3.302-.595 4.401 2.405 4.398 2.3-.003 3 .496 3.002 1.896.003 2.4-1.896 3.202-4.397 1.905-1.401-.798-1.701-.698-1.4.402.301.7 1.702 1.398 3.102 1.596 2.1.298 3-.303 3.797-2.204 1.397-3.002-.106-5.6-3.206-5.597-1.1.002-1.901-.497-1.902-.997 0-.6 1.1-1.002 2.5-1.003 1.4-.002 2.498-.503 2.498-1.003-.002-1.7-5.702-1.193-6.4.608M542.456 619.788c-1.199.902-1.398 1.602-.797 2.101.6.3 1.103 2.399 1.106 4.599.002 2.1.504 3.9 1.004 3.899.6 0 .997-2.701.993-6.001s-.107-6-.207-6c-.2 0-1.1.701-2.099 1.402M550.757 620.378c-.698 1.401-.697 2.001.003 2 .5 0 .999-.5.998-1-.001-1.4 3.699-1.305 4.6.193.401.6-.097 1.7-1.196 2.502-6.695 4.808-6.993 6.408-1.093 6.101 4-.105 4-.105.7-.5l-3.501-.496 3.397-2.704c2.797-2.304 3.296-3.205 2.693-5.404-.804-3.299-5.005-3.794-6.6-.692M562.759 621.864c-2.995 4.003-3.193 5.804-.492 6.4 1.1.199 2.3.797 2.802 1.497 1.302 1.998 2.498-1.403 1.992-5.803-.706-5.599-1.407-5.998-4.302-2.094m2.003 2.497c.001 1.1-.698 2.001-1.498 2.002-1.8.002-1.901-1.198-.303-2.8s1.798-1.502 1.8.798M533.763 625.399c0 .5.901.999 2.101.997 1.1 0 1.7-.502 1.4-1.001-.302-.6-1.302-.999-2.102-.998s-1.4.402-1.399 1.002M444.43 599.008c.708 6 3.817 12.996 6.52 14.892 1.9 1.298 1.701 1.598-2.896 4.204-5.896 3.407-5.796 3.307-5.095 3.906.3.3 3.299-1.204 6.796-3.208 4.197-2.505 6.794-4.809 7.791-7.11 1.497-3.102 1.496-3.602-.308-7-1.403-2.398-3.606-4.395-7.007-5.99-2.702-1.398-5.304-2.994-5.705-3.594-.5-.6-.499 1.1-.095 3.9m6.206 3.993c3.104 3.596 3.907 5.895 2.308 6.897-1.299.801-6.005-4.493-6.71-7.692-1.004-3.699.597-3.4 4.402.795m4-.105c3.004 3.196 2.712 9.896-.488 10.4-1.1.202-2.7-.396-3.401-1.296-1.102-1.298-.902-1.498 1.098-1.3 3.3.395 3.696-3.205.891-7.202-2.504-3.597-1.305-3.998 1.9-.602M285.29 647.703c-1.598 1.102-2.497 2.003-1.897 2.002 1.1-.001 6.395-3.908 5.395-4.007-.3 0-1.8.903-3.498 2.005M534.8 655.898c-1.697 2.002-.894 4.8 1.808 6.098 2.701 1.296 1.403 2.798-1.498 1.801-1.4-.498-1.5-.398-.7.501 3.405 3.696 7.998-2.61 5.392-7.406-1.504-2.798-3.204-3.196-5.002-.994m4.003 2.495c.002 1.1-.597 2-1.397 2.002-1.8.002-2.902-1.597-2.104-2.998 1.098-1.801 3.499-1.104 3.501.996M543.3 655.987c-2.097 2.103-1.594 4.602 1.308 5.899 3.101 1.396 2.803 2.896-.498 2-2.2-.497-2.5-.397-1.6.602.702.7 2.202.898 3.702.496 2.199-.503 2.598-1.203 2.594-4.603-.006-4.8-2.809-6.997-5.505-4.394m3.803 1.796c.702 1.599-.097 2.6-1.997 2.602-.7.001-1.301-.898-1.303-1.998-.002-2.3 2.497-2.703 3.3-.604M551.5 656.077c-.399.3-.697 1.701-.696 2.901.002 1.7.703 2.5 2.504 2.997 1.4.298 2.201 1.097 1.902 1.598-.4.5-1.5.802-2.5.503-2.3-.597-2.499.803-.297 1.7 2.1.798 3.3-.004 4.396-3.005 1.196-3.202-.41-7.4-2.81-7.397-1 .002-2.199.303-2.498.703m4.104 2.595c.201 1.2-.298 1.7-1.698 1.702-1.2.002-2.1-.597-2.102-1.297-.003-3.1 3.196-3.404 3.8-.405M559.301 656.368c.3.5 1.2.698 2 .297 1.6-.602 2.204 3.198.605 4.1-1.099.701-2.094 4.602-1.094 4.601.7 0 3.99-7.705 3.989-9.305 0-.4-1.401-.698-3.101-.696s-2.8.403-2.399 1.003M590.302 656.73c-2.099 1.503-1.691 7.502.71 9 2.202 1.296 3.5.095 4.196-3.906.596-3 .596-3-.5-.3-1.596 4.103-3.896 3.605-3.902-.795-.003-3.1.296-3.6 1.997-3.102 2.3.597 2.799-.803.598-1.6-.8-.3-2.2.002-3.1.703M598.402 657.22c-3.096 3.404-1.489 9.102 2.611 9.097 3.3-.004 3.69-9.105.388-10.3-.8-.3-2.1.202-2.999 1.203m4.204 2.895c.403 2.5-1.494 5.502-2.895 4.603-.5-.299-.902-2.098-.905-3.998-.003-2.8.396-3.5 1.796-3.203.9.2 1.802 1.398 2.004 2.598M569.506 660.555c.807 5.9 1.308 6.099 1.3.499-.002-2.6-.405-4.7-.905-4.7-.5.002-.698 1.902-.395 4.201M582.502 656.94c-.3.4-.198 1.5.303 2.5.6.898.703 2.398.404 3.199-.3.8-.098 1.8.502 2.199.7.4 1.1-1.001 1.096-3.901-.006-4.3-.707-5.5-2.305-3.997M606.303 657.71c-.3.9-.698 2.201-.897 2.802-.697 2.4 1.307 5.798 3.407 5.795 4.3-.005 4.489-9.205.188-9.8-1.3-.198-2.4.303-2.698 1.203m4.004 3.696c.003 2.4-.496 3.4-1.496 3.401-1.6.002-2.504-3.697-1.607-6.198.997-2.6 3.099-.803 3.103 2.797M576.608 662.047c.7.299 1.6.198 1.9-.103.4-.3-.2-.6-1.3-.498-1.1.001-1.4.302-.6.6M110.394 1141.817c-5.996 3.607-23.784 13.129-24.484 13.13-.3 0-.502-1.8-.505-3.9-.004-3.4-1.206-5.098-3.506-5.096-.4.001-7.486 11.21-10.38 16.313a521 521 0 0 1-5.09 8.406c-1.796 2.903-2.993 5.804-2.692 6.604.702 1.899 19.818 14.775 20.817 14.074.5-.3.896-3.1.893-6.2-.008-6.2-.307-5.7 7.887-10.51 1.999-1.103 8.594-4.811 14.59-8.218l10.992-6.214.49-8.8c.488-9.4.488-9.7-2.514-11.197-1.601-.798-3-.397-6.498 1.608m7.006 4.791c.004 3.4-.096 3.6-1.398 1.702-1.402-1.798-1.602-1.798-4.3-.195-2.099 1.303-2.997 2.704-3.593 6.304-.397 2.501-.393 5.201.008 6 1.302 2.199 5.4-.306 7.494-4.509l1.796-3.502-.296 3.5c-.196 3.2-.795 3.801-6.691 7.109-3.598 1.904-8.095 4.51-9.993 5.612-1.9 1.102-6.496 3.608-10.193 5.712-6.796 3.809-6.796 3.809-6.79 8.709.003 2.7-.394 4.9-.794 4.9-.8.002-9.907-5.587-13.71-8.283-2.302-1.697-2.8-.596 7.878-18.21 6.088-10.007 6.088-10.007 6.393-5.707q.305 4.35 1.505 3.898c.7-.2 7.995-4.11 16.189-8.62 8.295-4.41 15.29-8.118 15.79-8.119.4 0 .702 1.7.705 3.7m-2.992 6.704c.004 3.3-1.493 5.602-3.593 5.604-.9.001-1.102-1.098-.705-3.799.992-6.701 4.29-8.105 4.298-1.805"/><path d="M104.606 1152.124c-.699.7-1.197 2.501-1.195 4.001s-.396 2.8-.996 2.801c-.5.001-1.001-.898-1.003-2.098-.004-3.3-2.202-1.698-3.597 2.704-1.195 3.902-1.195 3.902-1.299.602-.102-1.7-.304-3.2-.604-3.2-.6.001-7.695 4.01-9.193 5.212-1.499 1.201-1.785 12.802-.285 12.8.6 0 .999-1.301.997-2.901-.003-2 .895-3.601 2.793-5.104 2.698-2.103 2.698-2.103-.001-1.5-3.9.805-3.702-1.595.295-3.9 1.699-1.002 3.198-1.604 3.398-1.404.3.2.803 2.099 1.205 4.198 1.106 4.999 2.606 4.997 3.8-.204 1.095-4.502 2.494-4.703 2.5-.303.005 4.1 1.801 1.197 3.493-5.705 1.692-6.702 1.69-8.002-.308-6"/></svg>