<svg xmlns="http://www.w3.org/2000/svg" viewBox="0 0 992 1402" fill="currentColor"><path d="M527.3 445.5c-1.4 1.5-1.8 4.5-.6 4.5.3 0 1.4-.7 2.4-1.6 1.9-1.7 3.9-1.2 3.9 1 0 .6-1.6 2.7-3.5 4.6s-3.5 4.2-3.5 5.2c0 1.5.8 1.8 5 1.8 3.8 0 5-.4 5-1.5 0-1-1-1.5-3.2-1.5h-3.2l3.2-3.3c3.6-3.7 4.1-6.6 1.4-9-2.2-2.1-5.3-2.1-6.9-.2M539.2 445.5c-1.9 2.2-2.5 9.6-1 12.5 2.5 4.7 9.8 2.8 9.8-2.5 0-3-3.4-5.9-6-5.2-1.6.4-2 .1-1.8-1.1.3-1.3 1.3-1.6 4.3-1.4 4 .2 4 .2 1.6-1.8-2.7-2.3-5.1-2.5-6.9-.5m5.3 10c0 1.3-.8 2.1-2.2 2.3-1.9.3-2.3-.1-2.3-2.3s.4-2.6 2.3-2.3c1.4.2 2.2 1 2.2 2.3M553.7 445.5c-.4.8-1.3 1.5-2.2 1.5-.8 0-1.5.7-1.5 1.5s.7 1.5 1.4 1.5c1.1 0 1.6 1.5 1.8 5.2.2 3.9.7 5.3 1.8 5.3 1.2 0 1.5-1.5 1.3-8-.1-7.4-1.3-10.6-2.6-7M561.6 446.2c-3.2 4.6-1.2 13.3 3.2 14.5 3.5.9 6.2-2.6 6.2-8.1 0-5-2.3-8.6-5.5-8.6-1.3 0-3.1 1-3.9 2.2m6.2 6.1c.2 3.6-.1 4.9-1.3 5.3-2.1.9-2.8 0-3.1-3.8-.3-4.7.5-7 2.4-6.6 1.3.2 1.8 1.6 2 5.1M501 448.5c-4.4 1.1-4.5 1.3-4.5 5.1s.1 3.9 4.5 4.6c5.8 1 7.9.3 9.2-3.3.7-2.1 1.6-2.9 3.4-2.9 2.8 0 3.2-1.5.7-2.8-3.2-1.7-8.7-2-13.3-.7m10.6 1.7c.4.7.3.8-.5.4-.7-.5-1.3.3-1.7 2.4-.8 3.9-1.6 4.3-7 3.5-3.9-.5-4.5-.9-4.2-2.8.2-1.2 1.4-2.7 2.8-3.4 3.1-1.6 9.6-1.7 10.6-.1M539 467.9c0 1.1.5 2.3 1 2.6.6.4 1-.5 1-1.9s-.4-2.6-1-2.6c-.5 0-1 .9-1 1.9M134 478.9v10.8l4.6.7c2.6.3 11.6.6 20 .6H174v35.7c-.1 37.9-.1 38.2-4.8 39.7-1.3.4-2.7 1.9-3.2 3.2s-1.7 2.4-2.5 2.4c-.9 0-2.2 1.5-3 3.2-.7 1.8-2.3 4.1-3.4 5-1.2 1.1-2.1 3-2.1 4.7 0 1.6-.7 3.4-1.6 4.2-1 .8-1.4 2.2-1.1 3.8s-.1 3.3-1 4.3c-1.2 1.4-1.3 2.1-.4 3.1.6.8.8 2.7.5 4.4-.6 2.8-.3 3.2 4 5.3 2.5 1.2 4.4 2.6 4 3.1-.3.5-1.8.2-3.4-.6-2.4-1.2-2.8-1.3-2.4-.1.7 1.8 9 6.2 13.3 7 4.2.8 10.9-1.2 12.2-3.6.5-1 1.9-1.8 3-1.8s2.4-1 3-2.3 2-2.7 3.2-3.2c1.3-.6 2.3-2.1 2.5-3.8.2-1.5.9-2.7 1.7-2.7 1.7 0 3.5-3.1 3.5-5.9 0-1.2.4-2.1.8-2.1 1.6 0 3.1-4.7 2-5.8-.8-.8-.6-1.5.5-2.6 1.9-2 1.5-9.4-.8-14.3-2.9-6-15.5-12.2-19-9.3-.8.7-1.9.9-2.5.5s-1-12.5-1-36V491l19.3-.2 19.2-.3v-22l-40.2-.3-40.3-.2zm66.3-8.2 13.7.6v17.9l-39.2-.5c-21.6-.3-39.4-.6-39.5-.6-.2-.1-.3-4.2-.3-9.1v-9h25.8c14.3 0 32 .3 39.5.7M185 566c0 .6-.7 1-1.5 1s-1.5-.2-1.5-.4-.3-1.2-.7-2.1c-.5-1.5-.3-1.6 1.5-.6 1.2.7 2.2 1.6 2.2 2.1m-6.5-1c.3.5-.1 1-.9 1-.9 0-1.6-.5-1.6-1 0-.6.4-1 .9-1 .6 0 1.3.4 1.6 1m-1.7 2.2c1.7 1.7 1.5 2.8-.6 2.8-1.9 0-4.2-1.8-4.2-3.2 0-1.2 3.5-.9 4.8.4m11.2-.1c0 .7 1 .9 2.5.5 1.8-.5 2.5-.2 2.5.9 0 .8.9 1.5 1.9 1.5 1.4 0 1.8.5 1.4 2-.3 1.2.1 2.2 1 2.5 1 .5 1.4 1.9 1.2 5.3-.4 6.3-.5 6.4-1.8 1.2-1.4-5.4-6.1-9-11.7-9-10.2 0-23 15.9-23.3 29-.1 3.2.4 6.9 1.2 8.3 1.7 3.2 6.7 5.7 11.6 5.7 2.3 0 3.4.4 3 1.1-.4.6-1.4.8-2.2.5s-2-.3-2.6.1c-2 1.2-7.6.9-8.2-.5-.2-.7-1.3-1.2-2.2-1-1.3.2-1.7-.2-1.5-1.6.2-1.1-.4-2.5-1.3-3.2-1.3-1-1.4-1.7-.6-3.3.7-1.3.8-2.2.1-2.6-1.4-.8-1.3-4.5.1-4.5.7 0 .9-1.1.6-2.7-.3-1.8.1-3.6 1.4-5.2 1.1-1.3 1.7-3.2 1.4-4.1-.4-1.1.3-2.3 2-3.4 1.4-.9 2.5-2.5 2.5-3.6 0-1.3 1-2.4 2.5-3 1.4-.5 2.7-2 3.1-3.5.4-1.8 1.3-2.5 3-2.5 1.3 0 2.8-.9 3.4-2 .8-1.5 1.7-1.9 3.5-1.4 1.8.4 2.7.1 3.1-1 .7-1.8 2.4-2.2 2.4-.5m-16.4 2.4c1 .8 1.4 1.5.8 1.5-.5 0-1.9-.7-3-1.5-1-.8-1.4-1.5-.8-1.5.5 0 1.9.7 3 1.5m0 3.6c1 1.7-1.2 3.2-3.5 2.4-2-.6-2.8-3.4-1.5-4.8.8-.7 4 .8 5 2.4m-6.2 2.4c2.3 1.7 1.3 3.4-1.1 1.9-1.9-1.2-2.9-3.4-1.6-3.4.4 0 1.7.7 2.7 1.5m27.8 1.5c2.8 2.9 3 3.5 2.6 8.9-.8 11-9.8 24.2-18.3 26.8-4.9 1.5-10.3 0-11.5-3.3-3.7-9.7 3-25 14.2-32.7 5.4-3.6 9.1-3.5 13 .3m-19.6 4c-5 5.4-8.5 11.9-9.7 18.5-.8 3.7-.8 3.6-.4-1 .2-2.8 1.3-6.9 2.4-9.1 2.1-4.3 9.9-13.4 11.5-13.4.5 0-1.2 2.3-3.8 5m-8.6-1.5c.9 1.1 1 1.9.3 2.6-1.4 1.4-5.3-.6-5.3-2.6s3.4-1.9 5 0m-4.6 3.1c1.5.6 2.3 3.4 1 3.4s-4.4-2.1-4.4-3c0-1.1 1.1-1.3 3.4-.4m0 4.7c1.8 1.3 1.3 4.7-.8 4.7-1.8 0-3.6-2.1-3.6-4.2s1.9-2.3 4.4-.5m37.6 3.6c0 .6-.4 1.3-1 1.6-.5.3-1-.1-1-.9 0-.9.5-1.6 1-1.6.6 0 1 .4 1 .9m-41.6.7c.9.3 1.6 1 1.6 1.5 0 1.4-2.6 1-4-.6-1.3-1.6-.3-2 2.4-.9m.7 4.5c2.3 1.2 1.6 2.9-1.1 2.9-2.1 0-3.4-1.5-2.5-3 .8-1.3 1.2-1.2 3.6.1M155 600c.8.5 1.2 1.2.9 1.5-.8.8-3.9-.5-3.9-1.6s1.1-1.1 3 .1m1.1 4c2.4 1.3 2.5 3 .2 3-2.6 0-4.7-1.6-3.9-2.9.9-1.4 1.2-1.4 3.7-.1"/><path d="M142.5 474.7c-2.1 2.1-1.9 2.6.6 1.2 3.1-1.6 5.2.7 2.5 2.7-1.8 1.2-1.8 1.4-.3 1.4 2.3 0 3.4 2.9 1.6 4.1-2 1.2-2.5 1.1-4.5-.9-1.7-1.6-1.8-1.6-1.1.1.4 1 .7 2.1.7 2.3s1.3.4 2.9.4c3.7 0 4.6-3 3.2-11.1-.2-1.5-4.2-1.6-5.6-.2M153.8 473.7c-.9.2-1.9 1.1-2.2 1.9-.6 1.6.9 1.9 1.9.4.8-1.2 1.6-1.2 3.5 0 1.3.8 1.2 1.1-.4 2.3-1.7 1.2-1.7 1.4-.2 2 .9.4 1.6 1.3 1.6 2.1 0 1.8-3 3-4.4 1.6-1.5-1.5-2.6-1.2-2 .5.7 1.8 5.7 2 7.2.2.6-.7.8-3.1.5-5.5-.6-4.4-2.4-6.2-5.5-5.5M170.8 477.1c-3.4 4.4-3.5 5.5-.3 6.3 1.4.4 2.5 1.1 2.5 1.6 0 1.6 1.7 1.1 2.4-.6.4-.9.2-2.2-.3-2.8s-1.1-2.7-1.3-4.6l-.3-3.5zm2.2 2.9c0 1.1-.7 2-1.5 2-1.7 0-1.8-.2-.9-2.4.9-2.3 2.4-2 2.4.4M178 475c0 .5 1.4 1 3 1 3.5 0 3.7.6 1 4-2.1 2.7-2.6 6-1 6 .6 0 1-.7 1-1.5 0-.9.9-3.3 2-5.5s2-4.2 2-4.5-1.8-.5-4-.5-4 .4-4 1M190.6 475.5c-1.7 1.3-1.7 1.5-.3 2.1 1.2.4 1.7 1.8 1.7 4.5 0 2.1.5 3.9 1 3.9.6 0 1-2.7 1-6 0-6.3-.4-6.8-3.4-4.5M162 481c0 .5.9 1 2 1s2-.5 2-1c0-.6-.9-1-2-1s-2 .4-2 1M182 577.7c-2.9 1-9.2 7.8-11.5 12.3-5 9.8-2.8 20 4.3 20 6 0 14-7.3 17.2-15.8 2.7-7 2.5-10.4-.6-14.1-2.5-3-5.6-3.8-9.4-2.4m5.4 5c-1.2 7-5.5 15.1-10.5 19.8-5.2 4.9-6.4 5.3-7.3 2.9-3.3-8.7 7-26.4 15.4-26.4 3 0 3.1.1 2.4 3.7m3 5.3c-.8 5.9-5.9 14.4-10.6 17.5-5.9 3.9-6.5 2.9-1.5-2.4 5.1-5.4 9.2-12.8 10.2-18.5 1.1-5.4 2.7-2.4 1.9 3.4m1.3 3.7c-.4.3-.7 0-.7-.7s.3-1 .7-.7c.3.4.3 1 0 1.4M539 482c0 3.3.4 6 1 6s1-2.7 1-6-.4-6-1-6-1 2.7-1 6M539.7 492.7c-1.1 1-.8 12.1.3 12.8.6.4 1-2 1-6.4 0-7.1-.1-7.7-1.3-6.4M539.8 512.6c-1.1 1.1-1 12.2.1 12.9.5.3 1.1.2 1.3-.2.6-1.5-.7-13.5-1.4-12.7M411.9 528.9c-1.3 1.1-2.1 2.2-1.7 2.6s1.4 0 2.4-.9c.9-1 2.4-1.4 3.5-1.1 2.3.8 2.6-1 .3-1.9-2.1-.8-1.9-.9-4.5 1.3M539.7 531.7c-.2.5-.1 3.3.3 6.3.8 6.4.9 6.3 1.5-.7.3-4.7-.6-7.7-1.8-5.6M423 533.5c0 .6 7.3 5.5 8.2 5.5 1.9 0 .5-1.7-3.2-3.8-3.9-2.2-5-2.6-5-1.7M409.9 542c-.5 5.5-.4 6.8.7 5.8.3-.3.4-3 .2-5.9l-.3-5.4zM436.2 541.2c.5 1.5 8.8 6.2 8.8 5 0-.9-7.4-6.2-8.6-6.2-.3 0-.4.5-.2 1.2M539.8 547.6c-.1.5-.2 2.5-.2 4.4-.1 3.1-.4 3.5-3 3.8-2.5.3-2.7.6-2.2 3 1.9 7.6 2.7 11.2 3.8 16.5.7 3.2 1.7 5.8 2.1 5.8.9-.1 1.2-32.9.3-33.8-.3-.4-.7-.2-.8.3M449 548.8c0 .7 9.3 6.2 10.6 6.2 1.4 0-1-2.1-5.2-4.4-5.1-2.9-5.4-3-5.4-1.8M409.6 560.2c-.5 2.6-.5 5.6 0 6.5.6 1.4.9 1.1 1.2-1.5.2-1.7.2-4.7 0-6.5-.4-3-.4-2.8-1.2 1.5M465 558.5c.7.8 1.8 1.5 2.4 1.5s2.2.9 3.6 2c2.7 2.1 4 2.5 4 1.2 0-.9-9.1-6.2-10.5-6.2-.4 0-.2.7.5 1.5M481.6 567.8c.5.5 2.6 1.9 4.7 3.1 2.8 1.7 3.7 1.9 3.7.9 0-.8-1.6-2.2-3.5-3.1-3.8-1.8-6.6-2.3-4.9-.9M493.7 570.1c-2.1 1.2-4.7 6.1-4.7 8.9 0 1.5 2.1 3.4 7.4 6.7 10 6.4 10.5 8.3 4.4 20.2-2.4 4.7-4.7 8.6-5.3 8.8-.5.1-2.6-3.1-4.5-7.2-3.6-7.8-4.9-8.8-9-6.3-1.7 1.1-2.2 1-2.9 0-.5-.8-2.7-1.5-4.9-1.6-2.3-.1-4.4-.5-4.8-.8-.3-.4-1.9-.2-3.6.4-4.3 1.5-6.3 6.6-4.5 11 1.7 4.1 3.9 6 7.2 6.2 3.1.1 3.1.7 0 3.6-2.4 2.3-2.4 2.3-5.5-.3-2.7-2.3-3.7-2.6-7.8-2.1-5.6.8-8.7 2.5-9.5 5.3-.4 1.7 1 3.3 6.7 7.8 4 3.2 8.1 6.3 9.2 6.9 1.7 1 1.7 1.2-.4 3.9-3.6 4.5-2.9 6 5.6 11.7 4.2 2.8 8.6 6 9.6 7 2.2 2 10 5.8 11.9 5.8.8 0 3.1 1.1 5 2.5 2 1.3 5.6 3.5 7.9 4.8 2.4 1.3 8.2 4.7 13 7.6 8.7 5.1 11.2 5.9 12.3 4.1.8-1.3 4.8-1.3 6.1 0 .7.7 1.9.8 3.5.2 1.3-.6 4.4-1.5 6.9-2.2s5.1-1.4 5.8-1.6c.6-.2 1.2-.9 1.2-1.7 0-.7 2.9-2.7 6.4-4.4 5.8-2.9 6.4-3.5 7-7 .4-2.1 1-4.7 1.2-5.8.4-1.6-.4-2.6-3.4-4.3-3.9-2.2-3.9-2.2-8-.2-6.6 3.2-8.2 2.6-7.4-3.1.4-2.4 1.1-2.9 5.6-3.9 7.9-1.8 8.2-1.9 10.7-4.1 1.3-1.1 3.6-2.3 5.1-2.6 3.6-.7 5.6-3.1 5.9-7.3.3-4.3-1.5-7.8-4.7-9-3.5-1.4-3.2-5.2.8-8.9 2.9-2.7 3.1-3.2 2-5.6-2.3-5.1-10-14.1-13.6-16-2-1.1-4.2-3.2-4.9-4.8-.6-1.5-2.4-3.3-3.9-4-1.6-.6-2.8-1.5-2.8-1.8 0-1.2-5.4-2.8-13.5-4-5.5-.8-9.4-2.1-12.6-4.1-2.5-1.5-5.7-2.7-7-2.6s-5.4-1.5-9-3.5c-7.2-4-7.6-4.1-10.2-2.6m8.7 3.6c5.7 3.1 6.6 4 5.9 6-.4 1 .3.9 2.5-.4 2.9-1.6 3.2-1.6 6.7.2 4.4 2.4 5.2 3.4 3.4 4.6-2 1.2-.4 2.2 3.6 2.4 2.4 0 3.5-.4 3.5-1.3 0-1 .7-1.2 2.3-.9 1.2.3 4.3.9 7 1.2 2.6.4 5 1.2 5.4 1.8s0 .8-.9.5c-.9-.4-3.7-1-6.3-1.4-3.5-.5-4.6-.4-4.1.5.4.6 2.2 1.1 3.9 1.2 1.8.1 4.3.5 5.7 1 1.6.5.5.6-3.2.2-3.5-.3-5.8-.1-5.8.5 0 1.1 5.6 2.2 11.7 2.2 2.3 0 4.3.3 4.5.8.2.4 3.2 2.7 6.8 5.1 7 4.6 15.4 14.8 14.8 17.8-.3 1.5-1.8 1.9-8.8 2.4-8.9.5-12.3-.3-18.3-4.4-1.6-1-3.1-1.6-3.4-1.3-.8.8-.7.8 5.5 4.5 4.7 2.8 6.2 3.1 13.2 3.1 7.9 0 7.9 0 6.8 3.1-1 2.9-1.3 3.1-5.2 2.7-3.4-.4-8.5-2.3-14.8-5.6-.5-.2-.8 0-.8.5 0 1.6 10.9 6.2 17.5 7.4 6.9 1.2 10.5 3.6 10.5 7 0 3.1-1.9 6.9-3.5 6.9-1.7 0-5 1.7-7.8 4-2.8 2.2-13.5 4.2-15.9 2.9-2.5-1.3-3.9-.1-1.5 1.3 1.5.8 1.7 1.7 1.1 5.3-.9 6 1.3 7.2 8.5 4.4 4.6-1.7 5.4-1.8 7.3-.5 2 1.4 2 1.5-2.1 3.3-2.2 1-4.1 2.1-4.1 2.5 0 1.1.2 1 4.5-.8 2-.8 3.9-1.3 4.2-1.1.2.3 0 2-.4 3.8-.7 2.7-2 4-6.3 6.3-3 1.6-5.9 3.5-6.3 4.3-1.1 1.8-5.3 3.8-11 5.2-4.5 1.1-5.1 1-10-1.7-8.6-4.7-9.6-5.5-10.6-8.3-1.1-3.1-17.9-13.3-20.3-12.4-.9.4-2.1 1.7-2.8 3.1-1.5 2.7-1.8 2.8-5.4 1.4-1.4-.5-2.6-1.7-2.6-2.6 0-1.4-.3-1.4-1.5-.4s-2.2.8-5.5-1.4c-2.2-1.4-4-3.3-4-4.2 0-1.1-.5-1.4-1.7-1-.9.4-1.9.3-2.2-.2-.3-.4-3-2.3-5.8-4.2-3.7-2.3-5.3-4-5.3-5.5 0-2.8 3.8-6.8 6-6.2 1.3.3 1.7-.2 1.7-2.5 0-2-.4-2.5-1.1-1.8-2.7 2.7-9.9-.9-20-10.1-1.5-1.4 2.4-4.9 5.3-4.8 1.4 0 3.5-.2 4.6-.6q2.1-.6 4.8 1.8c2.3 1.9 2.7 2.9 2.1 5.1-.3 1.4-1.5 3.1-2.5 3.7-1.1.5-1.7 1.4-1.4 2 1.3 1.9 2.6.7 5.1-4.6 3.1-6.4 4.9-8.3 5.8-6 .3.9.1 2.5-.4 3.5-1.5 2.8-1.2 7.6.5 9 .9.7 3.4 1.7 5.8 2.1 10.8 2.3 10.9 2.3 12.3.4 2.1-2.8 1.7-4.1-.6-2-1.5 1.4-2.9 1.6-6.5 1-2.6-.3-4.9-1.3-5.2-2.1-.4-1.1-.9-1.2-1.9-.3-2.1 1.7-3.4.1-3.4-4 0-3.8 2.9-8 3.7-5.5.2.7 2.2 1 4.8.8 3.9-.3 4.5-.1 4.5 1.6 0 1.1.9 2.4 2.1 3 2.9 1.6 3.8.3 1.1-1.6-2.5-1.7-3.1-6-.7-5 .8.3 1.5.1 1.5-.4 0-.6-.5-1-1.1-1-.5 0-.7-.5-.3-1.1.3-.6.2-1.4-.5-1.8-.6-.4-1.3-2.9-1.6-5.6s-.9-5.3-1.5-5.9c-1.6-1.6-1.2-4.6.8-4.6 1.1 0 2.7 2 4.5 5.8 1.5 3.1 2.7 6.1 2.7 6.6s.8 1.4 1.7 2.1c1.4 1 1.5 1.6.5 2.8s-.9 1.5.8 2c2.5.6 2.6 3.5.3 5.3-1 .7-1.4 1.6-1 2.1.5.4 1.7-.2 2.7-1.4 1.5-1.9 1.6-2.9.8-6.1-.9-3.5-.6-4.6 3.7-12.9 4.6-9.1 5-10.8 4.7-17.1-.1-2.1-.7-3.2-1.8-3.2-.8 0-4.2-1.8-7.5-4-6.6-4.5-7.4-6.8-3.7-10.7 2.7-2.9 2.9-2.9 9.2.4M470.5 602c1 1.1 1.5 2 1.1 2-1.4 0-4.6-2.1-4.6-3 0-1.6 1.6-1.1 3.5 1m-1.1 2.4c2.3 1 4.9 1.5 6.5 1.1 2-.4 2.2-.3 1.1.5-2.2 1.4-5.7 1.2-9.1-.5-5.3-2.8-6.6.3-2.3 5.4 1.8 2.2 2.2 3.1 1.1 3.1-1.9 0-4.7-4.3-4.7-7.3 0-2.2 1.9-5 3-4.4.3.2 2.3 1.1 4.4 2.1m8.6-1.4c0 .5-.9 1-2.1 1-1.1 0-1.7-.5-1.4-1 .3-.6 1.3-1 2.1-1s1.4.4 1.4 1m-4.8 6c2.2.1 2.2.1.4 1.5-1.1.8-2.6 1.5-3.5 1.5-1.9 0-5.1-2.9-5.1-4.7 0-1.1.5-1.1 3 .2 1.6.8 3.9 1.5 5.2 1.5m9.7 2.7c.6 3.1 1.1 7 1.1 8.6 0 2.8-.2 2.9-3.1 2.3-1.7-.3-4.2-.6-5.5-.6-2.1 0-2.4-.5-2.4-3.8 0-4.3 2.6-8.2 5.5-8.2 1.1 0 1.5-.5 1.2-1.4-.6-1.4 0-2.6 1.3-2.6.4 0 1.2 2.6 1.9 5.7m-11.9 2.8c0 .3-.2.5-.5.5s-.5-.2-.5-.5.2-.5.5-.5.5.2.5.5m31.3 49.1c8.1 4.1 14.6 8.7 15.1 10.7.3 1.2 2.6 3.4 5.1 5 4.4 2.6 5.2 4.7 1.8 4.7-1.5 0-8.5-3.4-11.3-5.6-.8-.6-3.5-2.3-6-3.6-8.3-4.6-12-7-12-7.7 0-.9 3-5.1 3.6-5.1.3 0 1.9.7 3.7 1.6"/><path d="M509 595c0 1.2 8.9 7 10.8 7 .6 0 1.2-.5 1.2-1 0-.6-.7-1-1.5-1s-1.5-.9-1.5-2c0-2.3-3.1-4.1-3.8-2.1-.3.9-1 .8-2.8-.4-1.3-.8-2.4-1.1-2.4-.5M530 608c4.6 3.1 6 3.6 6 2.2 0-.9-7.5-5.2-9.2-5.2-.7 0 .7 1.4 3.2 3M479.4 648.4c-1 .8-1.6 1.7-1.3 2s1.4-.1 2.5-.8c1-.8 1.6-1.7 1.3-2s-1.4.1-2.5.8M485 649.1c0 .8 3.2 2.9 4.4 2.9 1.5 0 .3-1.6-1.9-2.7-1.4-.6-2.5-.7-2.5-.2M489 654.5c-.7.9-1.1 1.8-.8 2 .3.3 1.1-.1 1.8-1s1.1-1.8.8-2c-.3-.3-1.1.1-1.8 1M247.2 575.9c-2.2 1.3-1.1 5.6 1.6 5.9 3 .5 2.8 2.2-.4 2.2-1.4 0-2.3.4-1.9 1 1.2 1.9 4.5 1 5.5-1.4 1-2.7.3-6.7-1.4-7.8-1.4-1-1.8-1-3.4.1m3.3 3.1c0 .7-.6 1.5-1.2 1.7-.8.3-1.3-.4-1.3-1.7s.5-2 1.3-1.8c.6.3 1.2 1.1 1.2 1.8M263.5 576c-.3.6.3 1.4 1.4 1.8 1.9.7 2 .9.6 3.6-1.8 3.3-1.9 4.6-.5 4.6.6 0 1-.7 1-1.6s.9-2.9 2.1-4.6c1.2-1.6 2-3.1 1.8-3.2-1.2-1-5.9-1.4-6.4-.6M409.7 575.7c-1.1 1-.8 12.3.3 12.3.6 0 1-2.8 1-6.5 0-6.5-.1-7.1-1.3-5.8M255.1 577.4c-1.5 1.8-.3 4.6 2 4.6 1 0 1.9.4 1.9 1 0 .5-.9 1-2 1s-2 .4-2 1c0 .5 1.1 1 2.5 1 2.8 0 4.2-3.3 3.1-7.5-.7-2.8-3.6-3.4-5.5-1.1m3.9 2.1c0 .8-.7 1.5-1.5 1.5s-1.5-.7-1.5-1.5.7-1.5 1.5-1.5 1.5.7 1.5 1.5M271.5 578c-.8 2.5.1 4.1 1.9 3.4s3.1 1.5 1.8 2.8c-.8.8-1.6.7-2.8-.3-1.5-1.2-1.7-1.2-1.2.1.6 2.1 5.4 2.5 6.1.6.9-2.3-.1-4.3-2.6-5.1-2.2-.8-2.2-.8.1-1.2 3-.6 2.8-2.3-.2-2.3-1.6 0-2.7.7-3.1 2M279.9 578.4c-2.3 5 1.4 10.7 4.8 7.3 2-1.9.8-5.7-1.8-5.7-1 0-1.9-.5-1.9-1.1 0-.7 1-.9 2.7-.4 2.3.5 2.5.4 1.4-.9-1.9-2.3-4-2-5.2.8m4.1 5.2c0 .9-.7 1.4-1.7 1.2-2.5-.5-2.8-2.8-.4-2.8 1.2 0 2.1.6 2.1 1.6M301.3 577.5c-.7.8-1.3 3-1.3 4.9 0 3 .4 3.7 2.6 4.2 2.9.8 4.4-.7 4.4-4.4 0-5.1-3.1-7.7-5.7-4.7m3.9 6c-1.6 3.5-3.2 3.1-3.2-.8 0-4.2.9-5.2 2.9-3.3 1.2 1.2 1.2 2 .3 4.1M294 578.1c-1.1.8-1.2 1.2-.2 1.6.6.2 1.2 1.8 1.2 3.4s.5 2.9 1 2.9c.6 0 1-2 1-4.5 0-4.7-.5-5.2-3-3.4M308.7 577.7c-1.5 1.5-.5 2.3 2.1 1.7 2.4-.6 2.5-.5 1.4.8-.9 1.1-1 1.8-.2 2.3 1.5.9 1.2 3.5-.4 3.5-.8 0-1.6-.6-1.9-1.3-.2-.6-.8-.9-1.2-.5-.8.8 1.2 3.8 2.6 3.8 1.9 0 3.7-3.1 3.4-6.2-.2-1.8-.4-3.6-.4-4.1-.1-.9-4.5-.9-5.4 0M316.9 579.4c-2.3 5 1.6 10.5 4.9 7.2 1.5-1.5 1.9-6.6.7-8.6-1.2-1.9-4.5-1-5.6 1.4m4.6 3.1c0 2-.6 3.1-1.7 3.3-1.5.3-1.8-.4-1.8-3.3s.3-3.6 1.8-3.3c1.1.2 1.7 1.3 1.7 3.3M287.5 583c.3.5 1 1 1.6 1 .5 0 .9-.5.9-1 0-.6-.7-1-1.6-1-.8 0-1.2.4-.9 1M285 610c0 21 0 21-2.5 22s-5.5 5.6-5.5 8.7c0 1.9 7.2 9.3 9 9.3.6 0 1.9-.5 2.9-1.2 1.6-1 3-.6 8.3 2.2 3.4 1.8 7.5 4.1 9 5.2 3.3 2.3 4.7 2.3 6.4 0 2.7-3.5 1.6-5-8-10.7-7.7-4.5-9.5-6.1-9.9-8.4-.5-2.2-1.5-3.3-4.2-4.2l-3.5-1.3v-21.3c0-13.5-.4-21.3-1-21.3s-1 7.7-1 21m-1.6 24.8c.7 1.1-3.1 5.8-4 4.9-.4-.4-.2-1.8.4-3.2 1.1-2.5 2.6-3.2 3.6-1.7m9.4 1.9c.2.8-.6 1.3-2 1.3-1.3 0-2.9.5-3.6 1.2-1.7 1.7-1.5 5.7.3 6.4 2 .8.9 2.4-1.6 2.4-1.5 0-1.9-.7-1.9-3.7 0-5.8 7.2-12.1 8.8-7.6m-6.8-.2c0 .3-.2.5-.5.5s-.5-.2-.5-.5.2-.5.5-.5.5.2.5.5m9 5.2c5.1 2.9 5.7 3.7 4 6.3-.7 1.2-1.5 1.1-5.3-.8-5.9-2.9-7.4-4.7-5.7-6.7 1.6-1.9 1.1-2 7 1.2m-12.3 0c-.4.3-.7 0-.7-.7s.3-1 .7-.7c.3.4.3 1 0 1.4m-3 1c-.4.3-.7 0-.7-.7s.3-1 .7-.7c.3.4.3 1 0 1.4m23 6.3c-.6 1.1-1.5 2-1.9 2-1.2 0-.9-2.5.4-3.8 1.7-1.7 2.9-.4 1.5 1.8m2.8 1.9c-.3 1.2-1.1 1.9-1.6 1.6-.5-.4-.5-1.4.2-2.6 1.3-2.6 2.3-1.8 1.4 1m4.5-.2c-.1 1.8-2.8 4.4-3.5 3.3-.4-.6-.1-1.7.5-2.5 1.3-1.6 3-2 3-.8m1.8 3c-.2.9-.8 1.8-1.5 2-.7.3-.9-.3-.6-1.6.6-2.5 2.6-2.8 2.1-.4"/><path d="M335.5 601.6c-4.9 3-11.2 6.5-13.8 7.9-5.6 3-7.1 6.1-6.2 12.3 1.3 9 8.7 18.1 16.4 20.2 5.5 1.4 12.8 11 14.6 18.8.6 2.8.4 3.2-1.4 3.2-2.9 0-8.7 5.5-9.4 8.8-.9 4.5.2 6.9 3.9 8.7 3 1.4 3.4 2.1 3.4 5.4 0 4.9-1.6 9.6-4.9 14.3-2.6 3.7-8.6 7.8-11.3 7.8-2.5 0-6.7 5-7.4 8.6q-.6 3.45.9 5.7c2.1 3.1 8.1 6.1 10.4 5.2 1.6-.7 1.5-.9-.7-1.5-2.1-.5-2.5-1.2-2.4-4.4.1-2.6.9-4.6 2.7-6.3 3.3-3.3 5.7-2.5 5.6 1.9 0 3-.1 3.1-.9 1-1.1-2.7-2.2-2.8-4.3-.4-2.3 2.5-2.1 4.3.7 6.7 2.5 2.1 2.5 2.1.3 4.7-2.8 3.2-11.5 9.8-14.4 10.9-6.4 2.4-4.9 11.5 3 19.3l5.2 5.1-.3 82.9-.4 82.9-61.6-.6c-34-.4-65.1-.7-69.3-.7h-7.6l-.6-24.3c-.4-13.3-.8-69.4-.9-124.7l-.2-100.5h40.9l.3-10.4c.2-7.7-.1-10.7-1-11.3-.7-.4-10.2-.8-21-.8H184v-25.8l9.8-1c5.3-.6 13-1.4 17-1.7 7.2-.5 7.2-.5 7.2 2.7 0 4.5 4.3 13.3 7.5 15.4 1.4.9 4.7 1.8 7.3 1.9 10 .5 20.5-8.4 25.5-21.6 3.9-10.3 2.8-14.6-5.8-23.2-2.3-2.2-3.6-2.7-7.9-2.7-7.6 0-14.8 4.6-20.3 12.8-2.4 3.5-4.3 7.2-4.3 8.2 0 3.2-2.8 4.2-14.7 5.1-6.5.4-14.4 1.1-17.5 1.5l-5.8.6V658h-37.1l.3 10.7.3 10.8 18.4.5c18.4.5 18.4.5 18.6 3 .2 1.4.6 57.6 1 125s1 122.8 1.3 123.2c.4.3 17.4.9 37.7 1.2 45.7.7 169.5 2.1 175.3 2l4.2-.1V965h-18.4c-15.8 0-18.5.2-19 1.6-.9 2.5-.7 40.2.3 40.8.4.3 18.4.9 40 1.2l39.1.7v-21c0-18.3-.2-21.2-1.6-21.7-.9-.3-9.9-.6-20-.6H404v-31.3l78.3.4 78.2.4.3-9.2.3-9.3 19.7-.2 19.7-.3v-22L581 894l-19.5-.5.1-4c.2-15.5 0-15 4.7-18 6.2-4.2 15.2-13 21.9-21.5 3.2-4.1 6.2-8 6.6-8.5 2-2.6 9.1-16.8 11.9-24 10.7-27.1 9.8-50.6-2.2-63.1-5.9-6.1-20-14.1-26.7-15-9.2-1.3-23.5 3.6-35.2 12-9.3 6.6-26.6 25.8-26.6 29.4 0 1.5 10.7 7.2 12.4 6.6.8-.3 1.7-1.2 2-2 .5-1.4 1.9-1.3 7.8.2 2.9.8 3.3 6.7 1 13.2-4.5 12.8-6.2 18-7.8 23.7-2.1 7.2-6.5 13.9-10.7 16.6-2.9 1.7-4.3 1.9-13.4 1.3-12.1-.8-12.2-.7-10.3 8.9 2.8 13.6 7.6 19.7 21.5 27.3 9 4.9 9 4.9 18.5 4.9 8-.1 10.5-.5 16-2.8 3.5-1.4 6.6-2.5 6.8-2.3s0 4.1-.4 8.7l-.6 8.4-18.4-.3-18.4-.4v11.1c0 6 .4 11.2.9 11.5.4.3 8.8.6 18.5.6l17.7.2-.3 8.6-.3 8.7-8.5-.1c-4.7-.1-25.5-.2-46.2-.3L466 933v-13.5c0-10.1.3-13.5 1.3-13.5.6-.1 9.8-.2 20.2-.3l19-.2.3-9c.5-14.8 2.5-13.5-20.9-13.5h-20.1l.6-43.3c.4-23.7.9-45.7 1.2-48.8.6-5.5.6-5.5 5-6.8 8.1-2.4 16.2-12.1 19.4-23.2 2.2-7.6 2.2-7.6.2-12.1-2.2-5-6-7.2-10-5.7-1.7.6-2.2 1.6-2.2 4.2q0 5.7 4.5 5.7c1.9 0 2 .4 1.5 5.9-.7 7.1-4.3 13.2-9.8 16.1-2 1.1-4.4 2.5-5.3 3.2-2.6 1.8-6.9-1.4-6.9-5.1 0-1.5.3-3.1.7-3.5.9-.9 3.4-7.6 3.7-10.1.2-1.4 1-1.9 2.5-1.8 2.6.3 4.2-3 3.4-7.1-1.1-5.5-4.5-4.3-9.8 3.3-8 11.7-8.5 24.6-.9 29.6 2.7 1.7 2.7 1.7 2.1 15.9-.4 7.7-1 29.8-1.3 48.9l-.7 34.8-17.9-.2c-9.8-.1-18.2.2-18.6.6-.4.3-.7 5.2-.7 10.8v10.2l18.8.3 18.7.2v28.1l-21.7-.2c-12-.1-25.5-.4-30-.7l-8.3-.5V821l20.3-.2 20.2-.3.3-9c.4-14.8 2.4-13.5-20.3-13.5H405v-32.6l5.3-5.2c2.9-2.9 5.8-5.2 6.5-5.2s4.6 1.8 8.6 4 8.1 4 9.1 4 3.7-1.1 5.9-2.4c10.2-6 17.5-20.4 14.6-29-1.2-3.9-4.4-6.6-14.3-12-9.2-5.1-11.9-4.6-20.2 3.7-8.5 8.6-11.7 19-8 26.1.8 1.5 1.5 3.3 1.5 3.8 0 .6-2.5 3.5-5.5 6.4L403 765v32l-18.7.2-18.8.3v22l18 .6c9.9.3 18.1.6 18.3.7.1.1.2 25.2.2 55.7V932h-26.2c-14.5 0-31.4-.3-37.5-.7l-11.3-.6v-72.1c0-39.7.3-77.1.7-83.3.6-11.1.6-11.1 4.7-13 2.3-1 5-2.7 6.1-3.9 1.1-1.1 5.5-3.9 9.8-6.2 5.7-3.1 8.4-4.1 10.3-3.6 1.7.4 3.9-.1 6.9-1.7 4.7-2.5 6.1-5.5 5.3-11-.3-2.1.3-2.5 6-4 3.4-1 7.7-2.7 9.6-3.8 8.5-5.3 18.3-21.1 13.1-21.1-.8 0-1.5.7-1.5 1.5 0 4.3-6.3 12.9-12 16.4-6.5 3.9-7.7 2.5-2-2.6 5.8-5.2 14.1-18.4 10-15.8-.5.3-1 .1-1-.4 0-2.2-1.7-1-3.3 2.3-3.5 7.4-13.1 16.7-15.7 15.1-1.3-.8-1.3-7.9 0-12.7.6-2.1 2.6-5.8 4.5-8.3s3.5-4.7 3.5-4.8c0-.2-.9-.3-2.1-.2-3.6.3-9.6 11.6-10 19-.3 6.4.2 8.4 2.6 10.6 3.1 3 3.2 4.4.3 2.8-3.8-2-4.7-4.1-4.8-10.5 0-7 1.2-11 5.3-17.7 3.6-5.8 3-7.3-.7-1.8-4 5.8-6.6 13.4-6.6 19.6 0 3-.3 5.5-.6 5.5-1.9 0-3.3-4.1-3.4-9.7 0-6.6 2.3-13.4 6.6-19 2.6-3.5 2.9-4.3 1.4-4.3-1.2 0-7 9.9-8.7 15-.7 1.9-1.3 6-1.3 9.1 0 6 1.1 7.7 8.7 13.6 2.8 2.2 2.8 2.2 0 2.3-7.5.1-11.4-6.2-10.5-17.3.6-6.5 2-10.4 7.1-19.1 1.9-3.3 2.5-5.2 1.8-5.9s-1.4-.1-2.1 1.9c-.6 1.6-2.1 4.9-3.4 7.4-4.8 9.1-6.9 20.7-4.5 25.1 1.9 3.7.4 3.7-6 .1l-6.3-3.7.5-7.7c.7-8.3 2.9-14.3 8.2-21.8 4.3-6.1 4.8-7 3.6-7-.5 0-2 1.7-3.2 3.7-2.3 3.7-2.3 3.7-3.2.7-.5-1.6-1.1-3.6-1.4-4.4-.8-2.4-1.1-7-.4-7 .3 0 2 .9 3.6 2 1.7 1.1 3.3 2 3.6 2 1.2 0 1.7-4.1.9-7.3-.4-1.7-1.1-4.5-1.4-6-.4-1.9-1.8-3.3-4.1-4.4-1.9-.9-3.5-2.3-3.5-3 0-2.2-4-9.5-7.6-13.9-3.4-4.2-3.5-5.4-.3-5.4 1 0 2.6-1.1 3.5-2.5s1.9-2.5 2.3-2.5 2.4 4.2 4.6 9.2c2.1 5.1 5 11.8 6.3 14.8s3.1 7.1 3.9 9 1.9 4.3 2.4 5.2c.5 1 .9 2.4.9 3.1s.7 2.2 1.5 3.3c3.3 4.2.1-4.8-8.6-24.2-1-2.2-2.8-6.5-3.9-9.5-1.2-2.9-3.2-7.6-4.4-10.4-1.2-2.7-3.3-7.7-4.6-11-2.3-6.1-4-8.9-4-6.8 0 .6.9 3.2 2 5.8 2 4.7 2.5 9 1.4 11.9-.9 2.4-2.6 1.9-1.9-.5 2.2-6.7-9-24.8-15.3-24.9-2.6-.1 1.4-3.1 11.4-8.5 6.9-3.8 9-4.5 11.6-4 3.7.9 10 7 12.8 12.5 2.3 4.5 2.7 12.2.6 13.9-1.1.9-1.8.2-3.5-3.8-1.1-2.7-1.8-5.6-1.5-6.4s.1-1.8-.5-2.2c-1.4-.8-1.5 4.9-.1 7.3 2.9 5.3 13 27.6 12.6 27.9-.2.3-1.4 0-2.5-.6-2.6-1.4-6.1.5-6.1 3.2 0 2.4 5.6 7.7 8 7.7 1 0 2.2-.9 2.5-2.1.9-2.8 1.4-2.1 7.7 10.1 5.4 10.6 5.4 10.6 2.5 10.2-3.2-.5-6.1 1.7-8.4 6.3-2.3 4.4-3.2 4.6-8 1.8-2.4-1.4-4.3-2-4.3-1.5 0 1.6 7 5.3 9.3 5 1.1-.2 2.9-1.9 4-3.8 1-1.9 2.6-4 3.5-4.7 2-1.5 6.2-1.7 6.2-.3 0 .5 1.7 1 3.9 1 2.8 0 4.5.7 6.5 2.6 2.4 2.5 3.3 4.4 2 4.4-.3 0-2.5-1.1-4.9-2.5-4-2.4-4.7-2.5-8.9-1.4-2.5.6-5.1 1.8-5.7 2.5-2 2.4-.3 2.6 3.2.5 3.5-2.2 7.5-2.7 9.7-1.3.8.6-.4 1.6-3.8 3.1-2.7 1.2-5 2.7-5 3.2 0 1.3.5 1.2 4.2-1.1 1.8-1.1 4.7-1.9 6.3-1.9 2.8.1 2.7.2-.9 1-2.2.5-4.5 1.4-5.3 2-1.5 1.3-1.8 3.3-.4 2.5.5-.4 1.1-.1 1.3.5.3.9 1 .9 2.7 0 2.9-1.6 4.9-.8 5.3 2.1.2 1.6.9 2.2 2.3 2.1 1.1-.1 2.4.5 2.8 1.3s1.5 1.4 2.3 1.4c1.2 0 1.3-.8.8-3.8-.4-2-1.2-4.8-1.9-6.2s-1.9-4-2.5-5.8c-1.3-3.3-5.7-7.2-8.2-7.2-3.1 0-5.1-3.5-22.8-40.4-4.2-8.8-4.2-8.9-2.6-12.3 1.9-4 2-6.8.4-11.4-2.8-8.3-12.4-18-17.7-17.8-1.5 0-6.6 2.5-11.6 5.5m-89.8 3.5c-10.4 2.4-20.4 14.3-22.2 26.1-.9 6 0 10 3.1 13.3 1.9 2 2 2.6.8 2.3-6.1-1.2-7.8-13.8-3.1-23.8 5-10.9 14.4-19 21.7-18.9 3.5.1 3.5.1-.3 1m.7 3.2c-.6 1.7-8 7-10.2 7.3-4.2.7-11 17.3-9.8 23.8.5 2.6.4 2.8-.5 1.2-1.7-2.8-.5-12.5 2.1-18.1 3-6.1 8.8-12.1 14.3-14.5 4.6-2.1 5-2 4.1.3m9 2.3c1.4 1.5 2.6 3.2 2.6 3.8s-1-.1-2.1-1.7c-1.5-1.9-3-2.7-5-2.7-1.8 0-2.8-.4-2.4-1 1.1-1.8 4.2-1.1 6.9 1.6m-26.9 3c-3.1 4-5.9 9.2-7.8 14.4-.4 1.2-.6 1.2-.6-.2-.2-2.9 4.5-12.1 7.9-15.6 4.4-4.5 4.6-4 .5 1.4m21.5 1.9c0 3.5-.8 5.9-4.3 13.3-3.3 6.8-11.3 14.2-13.8 12.7-2.1-1.4-.5-13.8 2.4-18.8 3.8-6.5 12-12.5 15-11 .4.2.7 1.9.7 3.8m4 1.7c0 5.8-3.9 15.2-8.2 19.8-3.4 3.7-8.3 7-10.5 6.9-1.5 0-1.4-.3.7-1.7 4.5-3.1 9.8-9.2 11.9-13.7 2.6-5.4 4.3-12.8 3.5-14.9-.4-1.1-.1-1.6 1-1.6 1.3 0 1.6 1.1 1.6 5.2m73.8-3.8c6.3 3.3 12.2 12.9 12.2 20 0 8.8-7.7 9.9-15.4 2.2-5.3-5.2-7.6-10.2-7.6-16.1 0-7 4.4-9.4 10.8-6.1m-72.5 14.9c-1.9 5.4-10.6 15.7-13.3 15.7-.8 0 .2-1.5 2.2-3.3 4.9-4.5 9.4-11.9 11-18 1.1-4.4 1.4-4.8 1.6-2.4.2 1.6-.5 5.2-1.5 8M231.5 644c.9 1 3.1 2.1 4.9 2.3 3 .4 2.9.4-.6.5-5.7.3-7.8-2.6-7.7-10.2l.2-6.1.7 5.8c.4 3.2 1.5 6.6 2.5 7.7m136.5 5.5c.8.9.8 1.5.2 1.5-1.8 0-4.2-1.2-4.2-2.1 0-1.4 2.6-1 4 .6m-1 4c0 1.2-2.9.3-3.4-1-.4-1.3-.2-1.4 1.4-.5 1.1.6 2 1.3 2 1.5m4 .5c-1.2 2.3-3 2.7-3 .7 0-1.7 1-2.7 2.7-2.7 1.1 0 1.1.5.3 2m-176.8 6H224v19.3l-11.2-.6c-6.2-.4-23.8-.7-39-.7H146v-19.3l9.2.7c5 .3 22.5.6 39 .6m157.3 6c-.3.5-1.9 1.1-3.5 1.5-3.5.8-8 6.6-8 10.4 0 2.3-.1 2.4-1.6.9-3.7-3.6 1.4-12.8 7-12.8 1.4 0 2.7-.4 3.1-1 .3-.5 1.2-.7 2-.4.8.4 1.3 1 1 1.4m3.9 9.3c.7 3.9.7 3.9-2.4 2.1-2.6-1.6-3.4-1.7-5.1-.6-1.2.8-2.3 1.1-2.5.9-.9-.8.8-3.7 2.2-3.7.8 0 1.4-.5 1.4-1.1 0-1.7-3.2-.6-4.7 1.8-1.3 1.9-1.2 2.4.6 4.2 2.1 2.1 1.2 3.7-1.4 2.7-2.7-1-1.8-6.9 1.4-10 3.3-3.1 6.1-2.9 6.1.4 0 1.1.5 2 1.1 2 .7 0 .9-1.1.6-2.9-.3-1.6-.3-3.2.1-3.5.7-.8 1.4 1.4 2.6 7.7m-7.3 10.4c1.5 3.9.3 10.9-2.6 15.9-2.8 4.7-8.2 9.4-10.8 9.4s-8.4 6.8-9.2 10.6c-.5 3.1-.8 3.3-2.7 2.3-4.1-2.2-.4-12.9 4.4-12.9 3.4 0 10.2-5.6 13.6-11.3 2.3-3.8 3.5-7.3 3.9-11.1.6-6.1 1.8-7.1 3.4-2.9m50.1 5.6c.9.7 2 2.6 2.3 4.3.6 2.9.6 2.9-1.2.1-2-3.1-4.4-4.1-8.8-3.9-2.3.2-2.6 0-1.5-.8 2.1-1.4 7.2-1.2 9.2.3m-2.5 4.9c-.3.8-.6.5-.6-.6-.1-1.1.2-1.7.5-1.3.3.3.4 1.2.1 1.9M343.3 714c-.5 6.1-.8 6.7-3.9 8.8-2.6 1.7-3.4 1.9-3.4.8 0-.8.5-1.8 1.1-2.2.7-.4.9-2.3.6-4.8-.5-3.7-.3-4.3 2.6-6.7 1.8-1.5 3.3-2.6 3.4-2.6 0 .1-.1 3.1-.4 6.7m46.4-.3c-1.4 2.1-3.8 4.9-5.3 6.3-2.9 2.5-2.9 2.5-.8 0 1.2-1.4 3.4-4.4 4.9-6.8 1.5-2.3 3-4 3.2-3.8.3.2-.7 2.1-2 4.3m48.8 6.9c2.8 1.5 5.4 3 5.8 3.4.5.4-1.1 1.9-3.5 3.3-8.4 4.9-14.7 15.4-14.8 24.4 0 2.9-.3 5.3-.7 5.3-.5 0-1.9-.9-3.3-2s-3-2-3.7-2c-.6 0-2.1-1.2-3.2-2.6-6-7.6 1-24.9 12.4-30.8 4.1-2.1 5.2-2 11 1m-104.9 0c-.3.9-.6 1.8-.6 2s-.7.4-1.5.4c-1.8 0-1.9-1.2-.3-2.8 1.7-1.7 3.1-1.5 2.4.4m16.2 4.7c3.1 1.8 6.5 3.6 7.5 4 3.3 1.2 1.4 8-3.5 12.3-3 2.6-13.3 8.8-17.8 10.6-2 .9-4.1 2.7-4.9 4.4-2.5 5.4-2.7 5.8-3.7 6.1-1.9.6-7.9-4.2-10.1-8.2-3.8-6.7-3.2-9 3.5-13.2 3.1-2 8.3-6.4 11.6-9.7 4.9-5.2 10.2-9.6 11.4-9.6.2 0 2.9 1.5 6 3.3m25.2 1.2c1.1 1.3 1 1.4-.4.9-.9-.3-1.6-1-1.6-1.5 0-1.3.6-1.1 2 .6m77 2.7c1.1 1.2 2 3.3 2 4.7-.1 2.5-.1 2.5-1.5-.6-1.6-3.8-4.8-5.7-8.3-4.9-2 .5-2.3.4-1.2-.4 2.5-1.7 6.8-1.1 9 1.2m-2.6 2.3c2.5 2.6 2.8 5.3 1.1 11.1-1.1 4-2.8 6.8-6 10-3.9 3.9-5 4.4-8.9 4.4-3.5 0-4.8-.5-5.6-1.9-1.2-2.3-1.2-7.8 0-10.6.6-1.3.7-.5.3 2.5-.4 3.5-.1 5 1.4 6.9 5.3 6.5 18.3-4.4 18.3-15.3 0-4.6-2.1-6.9-6.1-6.8-2.4.1-2.9-.2-1.9-.8 2.2-1.4 5.7-1.2 7.4.5m-88.3 3.8c-.8.8-1.1.5-1.1-.9 0-2.7 1.4-4.1 1.8-1.9.2.9-.1 2.2-.7 2.8m7.8.8c1.2 2.2 1.2 2.9 0 5.4-.8 1.6-1.9 3-2.4 3.2-1.2.4-3.5-8.5-2.7-10.5.7-2 3.5-1 5.1 1.9m79.4 4.2c-1.2 6.4-4.4 10.6-9.5 12.6-2.9 1.1-5.8.6-5.8-1 0-.5.6-.9 1.4-.9 3.6 0 10.5-11 10.6-17 .1-1.1.6-.8 2 .8 1.4 1.7 1.8 3.2 1.3 5.5m-5.3-4.8c0 3.1-3.1 8.8-6.2 11.6-1.8 1.6-3.6 2.9-4 2.9-1.8 0-.5-3.7 2.2-7 1.7-1.9 3-4.1 3-5 0-1.9 1.9-4 3.7-4 .7 0 1.3.7 1.3 1.5m-81 3.9c0 .8-1.6 2.8-3.6 4.4-4.9 4-18.4 11.3-18.4 9.9 0-.7 3.6-3.5 8.1-6.2 4.4-2.8 9-6 10.1-7.3 2.5-2.5 3.8-2.8 3.8-.8m73.2.8c-.7.7-1.2.8-1.2.2 0-1.4 1.2-2.6 1.9-1.9.2.3-.1 1.1-.7 1.7M586 744c2.4 1.4 2.2 1.5-4 2.1-3.6.4-9.1 1.7-12.2 2.9-12.1 4.5-27.9 17.2-37.7 30.2-2.4 3.2-5 5.8-5.7 5.8-1.8 0-8.5-4.3-8.1-5.2.1-.4 3.1-4.3 6.6-8.8 10.3-13 26.9-25 38.6-27.9 5.5-1.4 19.4-.8 22.5.9m-223.2.7c-.2 1-1.1 1.9-2.1 2.1-1.6.3-1.7.1-.5-1.7 1.6-2.5 3.1-2.7 2.6-.4m126.6 2.5c3.9 5.5.8 18.8-6.1 26.7-14.3 16.4-28.8 8.8-21.3-11.2 3.5-9.5 11-16 11-9.6 0 1.3-.7 1.9-2.1 1.9-2.6 0-4.8 2.6-4.9 5.7 0 2.7-2 7.3-3.2 7.3-1.6 0-.8 6.8 1.2 9.3 3.2 4 5.2 4.1 11.1.5 6.2-3.8 8-5.7 10.8-11.3 3.5-7 3.2-19.5-.4-16.5-1.9 1.6-3.5.4-3.5-2.6 0-2 .5-2.4 2.9-2.4 2 0 3.5.8 4.5 2.2m101.8 1.4c2.1.4 4.8 1.7 6.1 3 2.2 2.2 6.7 13.3 6.7 16.4 0 1.5-21.8 17-23.9 17-.5 0-1.2-1.8-1.6-4.1-.5-2.9-2-5.4-5-8.5l-4.3-4.5 4.5-9.2c2.5-5.1 5-9.5 5.6-9.9 1.5-.9 6.9-1 11.9-.2m-18.9 4.1c-.4 1-2.2 4.8-3.9 8.4-3.2 6.5-3.3 6.7-8 7.4-4.3.6-9.2 2.3-10.4 3.5-.3.3-1.5 1.1-2.8 1.8-2 1.1-2.3 1-3.2-1.3-.6-1.5-1-2.8-1-3 0-1 15-12.3 20.2-15.1 7.1-3.8 10.1-4.4 9.1-1.7M338 755.4c0 .8-1.3 2.4-3 3.6-2.7 1.9-3 2-3 .4 0-2.1 2.8-5.4 4.7-5.4.7 0 1.3.6 1.3 1.4m96.8 3.8c1.7 0 4-.6 5.1-1.2 1.2-.6 2.1-.8 2.1-.6 0 .3-1.3 1.2-3 2.1-5.4 2.8-10 1.4-11.3-3.5-.6-2.4-.6-2.4 1.7.4 1.7 2.2 3.1 2.9 5.4 2.8m171.5.3c9.5 15 7 42-6.4 68.8-5.7 11.3-11 18.7-20.4 28.6-8.9 9.3-16.5 14.8-26.4 19.4-5.7 2.6-7.8 3-15.6 3.1-7.5.1-9.7-.3-13-2.1l-4-2.2 7.5-.1c20.4-.1 40.3-13.7 58.5-40 4-5.7 13.5-24.9 13.5-27.2 0-.8.4-1.8.9-2.4 1.7-1.7 5.1-21.1 5.1-29.1 0-6.9-1.3-14.3-3.5-19.6-1.4-3.4 1-1.6 3.8 2.8m-41.3 16c0 4.3-.1 4.5-3.8 5.4-2.1.6-4.6 1.7-5.7 2.5-3 2.3-4 2-6.8-2.3-2.2-3.2-2.4-4.1-1.3-5 3.2-2.7 9.4-5 13.4-5.1 4.2 0 4.2 0 4.2 4.5m9.4 0c.9 1.3 1.9 4.5 2.3 7l.6 4.6-3.5-3.5c-2.6-2.6-3.7-4.8-4.3-8.2-.6-4.3-.5-4.5 1.3-3.5 1 .6 2.7 2.2 3.6 3.6m27.6-1.8c0 .5-1.5 1.6-3.3 2.6l-3.2 1.7 3-2.5c3.3-2.7 3.5-2.8 3.5-1.8m-61 3c0 2-3.8 6.3-5.6 6.3-2.6 0-2.4-2 .7-5.4 3.1-3.6 4.9-3.9 4.9-.9m60.9 18.1c-1.2 5.3-3 11.6-4 13.9-2.1 4.8-2.7 5-12.2 3l-5.8-1.2-.3-9.5-.3-9.5 12.1-8.1 12.1-8.1.3 5c.2 2.7-.7 9.3-1.9 14.5M544 776.5c0 .3-.2.5-.5.5s-.5-.2-.5-.5.2-.5.5-.5.5.2.5.5m51 2c0 .2-1 .9-2.2 1.5-2.2 1.1-2.2 1-.4-.4 2.1-1.7 2.6-1.9 2.6-1.1m-47.9 8.3c1.1 2 1 2.6-1.4 5-2.7 2.7-2.7 2.7-2.7.3 0-1.3-.7-3.8-1.6-5.7-1.4-2.8-1.4-3.7-.3-5 1.1-1.4 1.5-1.3 3 .8 1 1.3 2.4 3.3 3 4.6m25.8-1.2c3.1 3.9 2.6 4.8-1.3 2.5-6.4-4-13.6-2.2-20.8 5.1-13 13.2-15.8 33.1-5.5 39.3 2.9 1.8 3 2 1 2.3-1.2.2-3.9-.8-6.1-2.2-3.7-2.3-4.1-3-4.7-7.9-.9-6.8 1.4-16 5.7-23.6 3.4-5.9 7-10.1 8.7-10.1.5 0 1.7-1 2.5-2.2 2.5-3.5 7.6-5.7 13.3-5.8 4.4 0 5.5.4 7.2 2.6m15-2.3c-.2.1-1.3.9-2.4 1.7-1.9 1.4-1.9 1.4-.6-.3.7-.9 1.8-1.7 2.4-1.7q.9 0 .6.3m-4.9 3.1c0 .2-1.1 1.1-2.5 2s-2.5 1.3-2.5.8 1-1.4 2.3-2c2.7-1.3 2.7-1.3 2.7-.8m-20 4.2c-11 6.2-18.1 17.8-19 30.9-.5 7.4-.6 7.8-1.7 5-2-5.4-2.1-6.1-1.1-11.5 2.4-13.5 14-26.9 23.3-27 2.9 0 2.9.1-1.5 2.6m9.8 1.6c1.9 1.9 1.4 11.2-.9 17.4-1.2 3.1-4 7.9-6.3 10.7-6.2 7.7-17 13-19.2 9.5-1.8-2.9-.6-14.3 2.1-20.2 5.7-12.5 19.4-22.3 24.3-17.4m5.2 9.2c0 15.3-11.4 30.8-23.7 32.2l-4.8.5 5-2.5c2.8-1.4 7-4.2 9.3-6.1 5.6-4.9 11.2-16.2 11.9-24.3.7-7.4 2.3-7.2 2.3.2m-137.3-1c1.6.2 1.8 1.6 2.1 9.6l.3 9.3-20.3-.6c-11.2-.4-28.3-.7-38-.7H367v-19.3l36 .7c19.8.4 36.8.9 37.7 1m144.9 15.7c3.2.6 6.5 1.3 7.2 1.5 3.4 1-13.8 26.5-24.9 36.8-3.3 3.1-6.4 5.6-6.8 5.6-.8 0-1.4-3.7-2.7-18.1-.6-6.6-.6-6.6 2.5-7.9 3.8-1.5 12.1-10.4 14.5-15.4 1.9-4 1.9-4 10.2-2.5m-52.5 20.3c-2.9 2.9-3.2 2.9-4.8 1.4-1.5-1.6-1.5-1.9-.2-3.5.9-1 2.4-3.6 3.4-5.7l1.8-3.9 1.4 4.3c1.5 4.3 1.5 4.3-1.6 7.4m12.9.7c2.2.1 2 .3-1.5 2-2.2 1-5.3 1.9-6.9 1.9-2.9 0-2.9 0-.5-2.6 1.6-1.7 3-2.3 4.4-2 1.1.3 3.1.6 4.5.7m9.7 4.1c-.2 1.3-.4.5-.4-1.7-.1-2.2.1-3.2.4-2.3.2 1 .2 2.8 0 4m-.7 11.1c2 9.5 1.5 11.3-3.5 14.3-6.6 3.8-15.8 6.4-22.9 6.4-6.6 0-12.6-1.5-12.6-3.2 0-.5 1.3-2.8 2.8-5.1 2.6-3.9 5.3-8.2 10.8-17.6 1.9-3.3 2.6-3.6 7.5-4.1 3.1-.3 7.6-1.6 10.4-3.1l5-2.7.8 5.2c.4 2.8 1.2 7.3 1.7 9.9m-28.6-13.7c2.6 1 2 2.7-4.5 13.1-9.4 15-8.5 14.1-10.2 10.2-.7-1.9-1.7-5.9-2-8.9-.5-4.4-1.2-6-3.4-7.7-2.8-2.3-2.8-2.3 4.3-2.3 5.9 0 7.7-.4 10.5-2.4 1.9-1.3 3.5-2.5 3.6-2.5.1-.1.8.2 1.7.5m4.6 2.9c0 .3-.2.5-.5.5s-.5-.2-.5-.5.2-.5.5-.5.5.2.5.5m-27.9 3.7c3.1 1.7 4 2.9 4.4 5.7 1.2 7.9 2.9 13.7 4.7 16.4 4.2 5.9-1 4.1-6.5-2.3-4.4-5.2-9.9-22-7.1-22 .4 0 2.4 1 4.5 2.2m26.9-1.8c0 .3-.5.8-1.2 1.2s-.8.3-.4-.4c.7-1.2 1.6-1.6 1.6-.8m27.8 11.1c0 2.6-.1 2.5-.9-1-.4-2.2-.8-5.4-.7-7 0-2.6.1-2.5.9 1 .4 2.2.8 5.3.7 7m-29.8-8c0 .3-.2.5-.5.5s-.5-.2-.5-.5.2-.5.5-.5.5.2.5.5m-2 3.5c-.6 1.1-1.3 2-1.6 2-.2 0 0-.9.6-2s1.3-2 1.6-2c.2 0 0 .9-.6 2m-4.9 7.7c-4.6 8-5.5 9.3-6.3 9.3-.4 0 1-2.8 3.2-6.2 2.2-3.3 4-6.5 4-7 0-.4.4-.8 1-.8.5 0-.3 2.1-1.9 4.7m-16.3 36.5.3 8.8H428v-18l38.3.2 38.2.3zm69.7 1.9c11 0 21 .3 22.3.6 2.1.5 2.2 1 2.2 9.5v9l-8.7-.6c-4.9-.3-21.7-.5-37.5-.6H524v-19.2l15.3.6c8.3.3 24.2.6 35.2.7m-137 72.2 5 .2-.1 7.5c0 4.1-.1 12.9-.2 19.5l-.2 12-15.7-.2c-8.7-.2-25.8-.5-38-.9l-22.3-.6v-39.1l33.3.7c18.2.4 35.5.8 38.2.9"/><path d="M320.5 616.7c-2.3 2.3-1.5 8.8 1.6 13.5 3.2 5 9.1 8.3 11.9 6.8 5.3-2.8 4.1-10.8-2.6-17.7-4.4-4.7-8-5.5-10.9-2.6m10 3.6c1.9 1.9 3.8 5.2 4.5 7.6 1 3.7.9 4.6-.6 6.2-4.1 4.6-13.4-4-13.4-12.4 0-1.8.3-3.7.7-4 1.6-1.7 5.7-.5 8.8 2.6M153 664.5c-1.5 1.8-.7 1.9 2.1.5 1.5-.9 2.1-.7 2.6.6.4 1 .2 1.9-.5 2.2-1.8.6-1.5 2.2.4 2.2 2.2 0 1.3 3.4-1 3.8-1 .2-2.2-.2-2.7-.9-.4-.7-1.1-1-1.5-.6-1 1 1.6 3.7 3.6 3.7 1 0 2.2-.6 2.8-1.3 1.3-1.6 1.2-10-.2-10.9-1.8-1.2-4.3-.9-5.6.7M163.1 664.4c-.8.9-.8 1.6-.2 2 .5.4 1.2.2 1.6-.4.9-1.5 3.5-1.2 3.5.4 0 .8-.6 1.6-1.2 1.9-.9.3-.7.9.6 1.9 1 .8 1.6 2 1.2 2.6-1 1.6-4.3 1.5-4.9-.1-.2-.6-.8-.9-1.2-.5-1.1 1 1.4 3.8 3.4 3.8 3.4 0 4.5-1.7 4.2-6.7-.1-2.6-.8-5.1-1.4-5.5-1.9-1.2-4.3-.9-5.6.6M180.8 664.1c-2.3 1.3-3.1 5.7-1.7 9.1.9 2.3 1.7 2.8 3.8 2.6 2-.2 2.7-1 3.1-3.3 1.2-6.2-1.5-10.5-5.2-8.4m3.7 5.4c0 3.3-.3 4-2 4-1.5 0-2.1-.8-2.3-2.8-.5-3.9.5-5.9 2.5-5.5 1.4.2 1.8 1.3 1.8 4.3M190.6 664.5c-2.3 2.4-2.9 5.4-1.6 8.6 1.4 3.3 4.9 4 7 1.4 2-2.4-.3-6.5-3.5-6.5-1.4 0-2.5-.4-2.5-.9 0-1.3 2.7-2.1 4.5-1.5.8.4 1.5.2 1.5-.4 0-.5-.7-1.3-1.6-1.6-2.1-.8-2-.8-3.8.9m4.4 7.5c0 1.5-.7 2-2.5 2-2.4 0-3.4-1.8-1.8-3.3 1.5-1.5 4.3-.7 4.3 1.3M199.6 665.6c-1.3 3.3-.6 4.4 2.4 4.4 2.4 0 3 .4 3 2.1 0 1.8-.5 2.1-3 1.7-1.9-.3-2.9-.1-2.7.6.6 1.8 5.9 1.3 7.1-.7 1.4-2.2-.3-5.1-3.3-5.5-2.5-.4-2.3-2.7.2-2.7.8 0 1.9-.4 2.3-.8s-.6-.7-2.3-.7c-1.9 0-3.3.6-3.7 1.6M172.5 671c.3.5 1.3 1 2.1 1s1.4-.5 1.4-1c0-.6-.9-1-2.1-1-1.1 0-1.7.4-1.4 1M318.1 746.9c-1.9 1.2-.7 6.9 2.1 9.2 2.6 2.3 5.6 2.5 6.4.4s-1.4-7.3-4-9c-2.4-1.7-2.6-1.8-4.5-.6m5.5 6.3c1 1 1.5 2.1 1.1 2.4-1.1 1.2-4.4-.7-5.6-3.2-1.4-3.2-.3-5.4 1.5-2.8.7 1 2.1 2.7 3 3.6M483 748c0 .5.5 1 1 1 .6 0 1-.5 1-1 0-.6-.4-1-1-1-.5 0-1 .4-1 1M470.3 752.7c.4.3 1 .3 1.4 0 .3-.4 0-.7-.7-.7s-1 .3-.7.7M593.4 793.8c-2.2 1.4-3.4 4.8-2.2 6 .9.9 1.6.8 3-.5 2.8-2.5 2.1-7.4-.8-5.5m.6 2.7c0 .3-.2.5-.5.5s-.5-.2-.5-.5.2-.5.5-.5.5.2.5.5M373 804.5c-.7.9-1 1.9-.6 2.3s1.2-.1 1.7-1.1c.6-.9 1.6-1.7 2.3-1.7 2.1 0 2.7 2.7.8 3.5-1.6.6-1.5.8.2 2 2.1 1.6 1.5 4.5-.8 4.5-.8 0-1.9-.8-2.5-1.7-1.1-2.1-2.4-1.3-1.5 1 1.1 3 6.7 3.2 7.6.4.3-.7.3-3.3 0-6-.4-4.4-.6-4.7-3.2-4.7-1.5 0-3.3.7-4 1.5M383.4 804.5c-.4.9-.4 1.9 0 2.2.3.4.6.1.6-.5 0-.7 1.1-1.2 2.5-1.2 2.7 0 3.4 1.7 1 2.6-.8.4-1.5 1-1.5 1.5s.7.9 1.5.9c2 0 1.9 2.9-.1 3.7-1 .4-2.2-.1-3-1.2-1.6-2.1-2.7-1.6-1.8.8 1.1 3 6.6 3.2 7.7.4.2-.7.1-3.2-.2-5.7-.5-4-.9-4.5-3.4-4.8-1.8-.2-2.9.2-3.3 1.3M399.4 806.3c-1.5 3.1-1.5 3.6 0 6.5 2.8 5.5 7.6 3.3 7.6-3.3 0-6.8-4.9-8.8-7.6-3.2m5.6 1.3c.7 1.7.6 3.2-.1 4.5-2.1 4-6.1-.3-4.1-4.5 1.5-3.3 3-3.3 4.2 0M411.1 807.2c-3.2 4.3-3.2 5.8-.1 5.8 1 0 2.3.7 2.8 1.7.9 1.4 1.1 1.4 2.2-.7.9-1.8.9-2.4 0-3-.9-.5-1-2-.6-4.4.9-4.8-.5-4.6-4.3.6m2.9 1.8c0 1.1-.7 2-1.5 2-1.7 0-1.8-.2-.9-2.4.9-2.3 2.4-2 2.4.4M418.5 804c-.4.6.7 1 2.4 1 3.6 0 3.8.8 1.1 5.2-2.2 3.6-2.6 5.8-1 5.8.6 0 1-.7 1-1.5s.9-3 2-5c2.9-5.2 2.6-6.5-1.4-6.5-1.9 0-3.8.4-4.1 1M393.5 810c-.3.5.3 1 1.5 1s1.8-.5 1.5-1c-.3-.6-1-1-1.5-1s-1.2.4-1.5 1M435.3 888.7c-1.5.6-1.7 3.3-.3 3.3.6 0 1-.5 1-1 0-.6.9-1 2-1s2 .7 2 1.5-.7 1.5-1.5 1.5-1.5.4-1.5 1c0 .5.7 1 1.5 1s1.5.9 1.5 2c0 2.2-3.5 2.9-4.3.7-.2-.6-.8-.9-1.2-.5-1.1 1.1 1.4 3.8 3.5 3.8 2.6 0 3.8-2.1 3.8-6.5-.2-5.8-2.2-7.6-6.5-5.8M445.3 888.7c-.7.2-1.3 1.2-1.3 2 0 1.3.3 1.3 1.5.3 1.6-1.3 4.5-.7 4.5 1 0 .5-.7 1-1.5 1s-1.5.4-1.5 1c0 .5.7 1 1.5 1s1.5.9 1.5 2c0 2.3-2.9 2.7-4.8.8-.9-.9-1.2-.8-1.2.5 0 2.1 4.5 3.3 6.5 1.7 1.6-1.3 1.7-8.7.2-10.8-1-1.2-3.2-1.5-5.4-.5M461.6 889.6c-3.1 3-1.4 11.4 2.2 11.4 2.9 0 4.2-2.1 4.2-6.5 0-6-3-8.3-6.4-4.9m5.4 5c0 2.6-1.3 4.4-3.1 4.4-1.5 0-1.9-.7-1.9-3.9 0-2.2.5-4.1 1.3-4.4 1.3-.5 3.7 2 3.7 3.9M482.1 888.9c-1.7 1.1-2.4 9-1 10.8 1.4 1.6 5.5 1.7 6.5.1.4-.7.7-3 .5-5.2-.3-5.8-2.5-7.9-6-5.7m3.7 2.9c.2.7-.6 1.2-1.7 1.2-2.1 0-2.7-1.1-1.4-2.4.9-.9 2.6-.2 3.1 1.2m0 5.5c.2 1.2-.3 1.7-1.7 1.7-1.2 0-2.1-.6-2.1-1.3 0-3.1 3.2-3.4 3.8-.4M472.3 892.5c-2.9 4.4-2.9 5.5.1 5.5 1.5 0 2.6.7 2.8 1.7.8 3.6 2.5-2 2-6.5-.5-5.1-2-5.3-4.9-.7m2.7 2c0 .8-.7 1.5-1.5 1.5-.9 0-1.2-.6-.9-1.5.4-.8 1-1.5 1.5-1.5s.9.7.9 1.5M454 896c0 .5.9 1 2 1s2-.5 2-1c0-.6-.9-1-2-1s-2 .4-2 1M530 900.5c-1.5 1.9-.5 3.4 1.2 1.7s4.8-1.5 4.8.3c0 .8-1.3 2.1-2.9 2.9-2.8 1.5-4.5 4.1-3.7 5.4.7 1.1 7.1.8 7.4-.3.1-.6-.9-1.1-2.4-1.3-2.6-.4-2.6-.4.7-3.2 2.8-2.4 3.2-3.1 2.3-4.7-1.4-2.3-5.7-2.8-7.4-.8M540 902.5c-1.2 3.6-.6 7.4 1.4 8.7 2.2 1.5 4.7.8 5.8-1.7.9-2.1.8-2.8-.7-4.5-1-1.2-2.5-1.8-3.2-1.6-.7.3-1.3-.1-1.3-.9s.9-1.5 2-1.5 2 .5 2 1.1c0 .5.5.7 1 .4 1.7-1-.9-3.5-3.5-3.5-1.8 0-2.6.8-3.5 3.5m5.8 5.4c-.5 2.4-3.8 2.7-3.8.3 0-1 .3-2.1.6-2.5 1.1-1.1 3.5.5 3.2 2.2M556 901c-1.2 2.3-.8 2.5 2 .8 1.5-1 2.2-1 3.2 0 1.1 1.1.9 1.6-.7 2.8-7.2 5.2-7.5 7.4-1 7.4 2.5 0 4.5-.5 4.5-1 0-.6-1.3-1-3-1-3.3 0-4.1-1.5-1.2-2.4 2.8-.9 4.4-4.3 3.2-6.6-1.4-2.6-5.6-2.6-7 0M566.6 901.2c-3.1 4.4-1.3 10.8 2.9 10.8 2.7 0 4.5-2.4 3.8-5.1-.6-2-3.7-3.4-5.3-2.4-1.3.8-1.3-.5 0-2.5.8-1.3 1.3-1.3 3.1-.2 1.9 1.2 2.1 1.2 1.5-.3-.3-.9-.6-1.9-.6-2.1 0-1.4-4.2 0-5.4 1.8m4.2 7c-.4 2.7-2.3 3.4-3.2 1.3-.8-2.1.1-3.5 2-3.5 1 0 1.4.8 1.2 2.2M577.5 900.6c-1.4 1.1-1.6 1.8-.7 2.1.7.3 1.2 2.2 1.2 4.3s.5 4.2 1 4.5c.6.4 1-1.8 1-5.9 0-3.6-.1-6.6-.2-6.6-.2 0-1.2.8-2.3 1.6M549.5 906c-.8 1.3 2 2.4 3.6 1.5.8-.6.7-1-.2-1.6-1.8-1.1-2.6-1.1-3.4.1M371.7 972.7c-.4.3-.7 1.3-.7 2.1 0 1.2.3 1.2 1.9-.2 1.1-1 2.5-1.5 3-1.1 1.8 1.1 1.2 3.4-1.1 4.6-5.3 2.8-5.1 5.9.4 5.9 4.4 0 4.3-1.5-.2-2.2-2.5-.4-2.5-.4.3-1.8 2.8-1.3 4.5-5 3.2-6.9-.7-1.2-5.8-1.5-6.8-.4M382.1 973.7c-3.2 6.1 0 12.9 5 10.3 3.3-1.8 2.1-7-1.7-7-2.6 0-2.9-.7-1.4-3 .7-1.2 1.2-1.2 2.2-.2 1.7 1.7 3.3 1.5 1.8-.3-1.7-2-4.7-1.9-5.9.2m4.6 5.9c1 2.6-1.4 4.1-3.5 2.1-1.5-1.6-1.5-1.9-.2-2.7 2.1-1.4 3-1.2 3.7.6M399.5 973.6c-1.4 1.1-1.6 1.8-.7 2.1.7.3 1.2 2.3 1.2 4.9 0 2.4.5 4.4 1 4.4.6 0 1-2.8 1-6.5 0-3.6-.1-6.5-.2-6.5-.2 0-1.2.8-2.3 1.6M408.7 973.9c-1.6 1.6-1.6 1.9-.2 2.4 1 .4 1.5 2 1.5 4.7 0 2.5.4 3.9 1 3.5 1.1-.7 1.4-12.5.3-12.4-.5 0-1.6.8-2.6 1.8M417.2 974.2c-1.6 1.6-1.6 8 0 9.6 1.7 1.7 5.5 1.5 6.2-.4 1-2.6.7-7.9-.6-9.2-.7-.7-1.9-1.2-2.8-1.2s-2.1.5-2.8 1.2m4.6 5c-.2 3-.8 4.3-1.8 4.3s-1.6-1.3-1.8-4.3c-.3-3.7-.1-4.2 1.8-4.2s2.1.5 1.8 4.2M429.6 973.8c-1.7 2.8-4.4 11.2-3.6 11.2.6 0 1.3-.7 1.6-1.5.4-.9 1.9-1.5 3.5-1.5 1.9 0 2.9.5 2.9 1.5 0 .8.5 1.5 1 1.5 1.4 0 1.3-1.1-1.1-6.9-2.1-4.9-3.2-6-4.3-4.3m2.4 4.2c0 1.9-1.1 2.6-2.3 1.4-.8-.8.3-3.4 1.4-3.4.5 0 .9.9.9 2M390.5 980c.3.5 1.2 1 2 1s1.7-.5 2-1c.4-.6-.5-1-2-1s-2.4.4-2 1M371.7 990.7c-.4.3-.7 1.3-.7 2.1 0 1.2.3 1.2 1.9-.2 1.1-1 2.5-1.5 3-1.1 2 1.2 1.1 3.4-1.8 4.9-2.4 1.3-4.1 3.4-4.1 5.2 0 .2 2.1.4 4.6.4 2.7 0 4.3-.4 3.9-1-.3-.6-1.8-1-3.3-1-2.7-.1-2.7-.1.7-2.9 2.6-2.1 3.2-3.2 2.7-4.9-.5-1.6-1.5-2.2-3.5-2.2-1.5 0-3.1.3-3.4.7M381.6 992.2c-2.2 3.1-2 6.4.4 8.8 1.7 1.7 2.4 1.8 4.1 1 4.3-2.3 3.1-7-1.8-7-1.5 0-2.3-.5-2-1.3.2-.6 1.6-1.1 3.1-1 1.7.1 2.6-.2 2.3-1-.7-2.2-4.4-1.9-6.1.5m5.2 6.1c.4 2-2.5 3.4-4 1.9s-.1-4.4 1.9-4c1 .2 1.9 1.1 2.1 2.1M399.5 991.6c-1.4 1.1-1.6 1.8-.7 2.1.7.3 1.2 2.2 1.2 4.4 0 2.1.5 3.9 1 3.9.6 0 1-2.7 1-6s-.1-6-.2-6c-.2 0-1.2.8-2.3 1.6M426 990.8c0 1.5 2.5 6.2 3.3 6.2.4 0 .7 1.4.7 3.1s.4 2.8 1 2.4c.6-.3 1-1.7 1-2.9 0-1.3 1-3.5 2.1-5 1.2-1.5 1.8-3 1.4-3.4s-1.7.6-3 2.2l-2.3 2.9-1.6-3.2c-1.6-3-2.6-3.9-2.6-2.3M408.6 992.3c-1.7 1.3-1.7 1.4-.2 2 1.3.5 1.6 1.4 1.1 4.1-.4 2-.2 3.6.4 4 .7.5 1.1-.8 1.1-3.8 0-2.4.3-5.1.6-6 .7-2-.6-2.1-3-.3M417.1 992.4c-1.7 2.1-1 8.7 1.2 10 2.7 1.7 5.1-.5 5.5-4.8.4-4.1-1.1-6.6-3.8-6.6-1 0-2.3.6-2.9 1.4m4.9 4.6c0 3.3-.3 4-2 4s-2-.7-2-4 .3-4 2-4 2 .7 2 4M390.5 998c.3.5 1.3 1 2.1 1s1.4-.5 1.4-1c0-.6-.9-1-2.1-1-1.1 0-1.7.4-1.4 1M409.7 596.7c-1.1 1-.8 11.3.3 11.3.6 0 1-2.7 1-6 0-6.1-.1-6.5-1.3-5.3M409 624c0 3.3.4 6 1 6s1-2.7 1-6-.4-6-1-6-1 2.7-1 6M409 642.9c0 2.8.5 5.3 1 5.6.6.4 1-1.5 1-4.9 0-3.1-.4-5.6-1-5.6-.5 0-1 2.2-1 4.9M315 656.7c0 .8 2.8 2.5 8.3 5.1.4.2.7 0 .7-.5 0-.8-2.8-2.5-8.2-5.1-.5-.2-.8 0-.8.5M409 661c0 2.7.5 5 1 5 .6 0 1-2.3 1-5 0-2.8-.4-5-1-5-.5 0-1 2.2-1 5M330 666c1.4 1.1 3.2 2 4 2 1 0 .7-.7-1-2-1.4-1.1-3.2-2-4-2-1 0-.7.7 1 2M409 677.5c0 2.5.5 4.5 1 4.5.6 0 1-2 1-4.5s-.4-4.5-1-4.5c-.5 0-1 2-1 4.5M409 694c0 2.7.5 5 1 5 .6 0 1-2.3 1-5 0-2.8-.4-5-1-5-.5 0-1 2.2-1 5M374 690.8c0 .7 3 2.5 8.3 5 .4.2.7 0 .7-.5 0-.9-7-5.3-8.4-5.3-.3 0-.6.4-.6.8M389 698.9c0 1.1 8 6.4 8.8 5.7.7-.7.7-.7-4.5-4-2.4-1.4-4.3-2.2-4.3-1.7M406 706.6c-2.3 1.3-2.4 1.4-.4 1.4 1.2 0 2.7-.7 3.4-1.5 1.5-1.8.4-1.8-3 .1M700 750.1c-.1 6.8-.2 6.8-12.8 7.1-9 .2-11.7.6-12.3 1.8-.4.8-3.1 7.6-5.9 15s-6 15.3-6.9 17.5c-1 2.2-2.4 5.8-3.1 8s-2.5 6.7-4 10-3.5 8.1-4.5 10.7c-1 2.7-2.3 4.8-3 4.8-1.4 0-5.9-4.2-8.7-8-1.9-2.6-5.9-3-8.5-.9-1.6 1.4-4.3 6.9-4.3 8.9 0 1.9 5.2 6 7.6 6 1.3 0 6.5 2.5 11.6 5.5s9.6 5.5 10 5.5c1.8 0 4.8-4.2 4.8-6.5 0-2-1.1-3.3-5-5.7-2.8-1.7-4.9-3.6-4.6-4.2.2-.6 5.2-13.3 11.1-28.1 5.8-14.9 11.6-29.4 12.8-32.2l2.2-5.3H699v4.9c0 2.8.4 5.2.8 5.5.5.3 18.1.6 39.3.7l38.4.1.3-5.1.3-5.1H793v38.3l-42.6-.4-42.7-.4-1.8 5.5c-1 3-2.8 9.1-3.9 13.5-2.8 10.4-8.9 30.5-9.6 31.6-.3.5-2.4.6-4.8.3-4.7-.7-10.1 1.5-16.7 6.7-3.3 2.6-3.9 2.7-6.7 1.7-6.2-2.4-12.9 3.1-15.3 12.4-1.4 5.2-.2 9.3 3.2 10.3 1.5.5 1.7 1.8 1.6 9.8-.2 10.9 1.1 14 7.4 18.2 6.4 4.2 10.2 4.7 16.7 2.3 13.7-5.1 26.6-25.1 26.6-41.3 0-8.1-2-12.8-7.2-16-3.6-2.3-3.6-3.1.4-15.1 1.3-3.9 3-9.5 3.8-12.5s2.8-9.9 4.4-15.4l2.9-10h7.4c4.1 0 23.5.4 43.2.8l35.7.8V782h7.9c8 0 8 0 7.8 4-.1 2.1.1 4.1.3 4.4.3.2 18.1.6 39.5.7l39 .4.3-11.2.3-11.2-34.8-.3c-19.1-.2-36.9-.2-39.5 0-4.8.3-4.8.3-4.8 5.1 0 5.6-.3 5.8-9.5 5.7l-6-.1-.3-9.4c-.1-5.2-.8-10.1-1.4-10.8-.7-.9-3.6-1.3-8.4-1.3-7.4 0-7.4 0-7.4-4.5V749h-10.3c-5.7 0-23.3-.3-39-.7-28.7-.6-28.7-.6-28.7 1.8m57.3.9h19.9l-.5 6.2c-.4 3.5-.6 7.5-.6 9.1-.1 2.7-.1 2.7-37.3 2.5l-37.3-.3-.3-9.4-.3-9.4 18.2.6c10 .4 27.2.7 38.2.7m131.1 29.2c-.3 5.1-.7 9.3-.8 9.3 0 0-17.1-.1-38-.3l-37.8-.3.6-3.1c.3-1.7.6-5.7.6-8.9V771h76.2zm-257.6 40.5c-2.8 4.9-2.8 4.9-2.8 3.1 0-1.4 3.6-6.8 4.5-6.8.3 0-.5 1.7-1.7 3.7m7.2-2.3c0 .3-1.3 1.8-3 3.4-1.6 1.7-3 4.1-3 5.4-.1 2-.2 2.1-1.1.6-1.6-2.8 2.8-9.6 6.4-9.8.4 0 .7.2.7.4m1 4.3c-.1 1.6-3.9 5.7-4.6 5-1.1-1.1 1.4-5.7 3.1-5.7.8 0 1.5.3 1.5.7m4 2.8c0 1.3-2.4 5.5-3.2 5.5-1.5 0-2.1-3-.8-4.5 1.1-1.4 4-2.1 4-1m4 2c0 1.6-2.6 5.5-3.7 5.5-1.6 0-1.7-1.4-.1-4 1.1-1.7 3.8-2.8 3.8-1.5m4 2c0 1.6-2.6 5.5-3.7 5.5-1.6 0-1.7-1.4-.1-4 1.1-1.7 3.8-2.8 3.8-1.5m2.5 5.5c-.9 1.7-2 2.8-2.5 2.5-2.2-1.4-.1-5.5 2.7-5.5 1.1 0 1 .6-.2 3m4.5.8c0 1.9-1.8 4.2-3.2 4.2-1.2 0-.9-3.5.4-4.8 1.7-1.7 2.8-1.5 2.8.6m27.5 16.2c-.3.5-1 1-1.5 1-2.1 0-11.7 7-14.7 10.8-7.7 9.6-12.8 24.7-11.7 34.7.3 3.4.2 4.5-.4 3.5-2.9-4.5-2.1-18.1 1.4-25.7 4.9-10.6 13.7-20.4 21.5-23.7 4-1.8 6.3-2 5.4-.6m8 2c.3.5-.1 1.9-.9 3.1s-1.2 2.8-.9 3.5c.8 2.2 3.2 1.6 4.5-1.1 1.4-3.1 2.3-3.1 4.4 0 3.1 4.7 1.8 21-2.2 26.8-1.8 2.8-2.7.3-1.4-3.9.9-2.7.9-4.2 0-6.5-1.5-3.4-8.8-8.9-12-8.9-8.3 0-17.6 14.5-15.1 23.7.8 3 2 4.4 5 6.1 5.5 3.1 9.9 2.9 14.1-.8 6.7-5.7 6.9-2.9.3 4.1-5.6 6-10.5 8.7-17 9.6-4.7.6-4.8.6-3-1.4 1.9-2.2 2.2-4.9.7-5.8-1.6-1-4 1.5-4 4.1 0 3-.7 3-3.1.2-4.5-5.1-4.8-16.4-.8-26.6 1.9-4.6 2.3-5 3.4-3.5s1.5 1.5 2.9.4c2.1-1.7 2.1-5.7 0-6.5-3.5-1.3 9-13.3 16.9-16.2 4.1-1.5 7.4-1.7 8.2-.4m1.2 4.7c-.4.3-.7 0-.7-.7s.3-1 .7-.7c.3.4.3 1 0 1.4m-29.9 1.6c.9 1 .5 2.2-1.6 4.8-1.5 1.9-3.8 5.8-5.1 8.6-2.5 5.3-4.5 6.5-6.9 4.1-2.8-2.8-.4-11.9 4.4-16.3 2.9-2.7 7.5-3.3 9.2-1.2m22.5 9.3c.3.4-1.1 1.9-3.2 3.4-4.6 3.4-9.1 11.8-9.1 17.2 0 4.2-1.3 4.9-3.1 1.7-1.6-3.1-.5-9.1 2.6-14.5 3.5-6 10.4-10.2 12.8-7.8m-19.6 5.1c-.4.3-.7 0-.7-.7s.3-1 .7-.7c.3.4.3 1 0 1.4m22.8 4.2c-.9 4.6-2.8 7.9-2.2 3.6.3-1.6.1-3.8-.5-4.9-.7-1.3-.6-2.1.3-2.7 2.2-1.3 3.1.2 2.4 4m1.6 6.2c-2.5 5.2-5.8 9.3-8.5 10.2-1.2.5-.5-.8 2-3.5 3.9-4.2 5.4-7.2 7-13.3.8-3 .8-3 1.2-.4.1 1.5-.6 4.6-1.7 7m-9.6-.5c-2.3 3.6-2.8 2.5-.7-1.8.9-1.9 1.8-2.9 2-2.1s-.4 2.5-1.3 3.9m-3.8-.9c-.4.3-.7 0-.7-.7s.3-1 .7-.7c.3.4.3 1 0 1.4m6.3 2.2c-.6 1.2-1.5 2.1-2.1 2.1-.5 0-.2-1.1.8-2.4 2.1-2.8 2.9-2.7 1.3.3m1 3.1c-2.4 3.4-5.6 5.4-7 4.5-1.7-1-1.1-2.5.9-2.5 1.1 0 3.3-1.1 4.8-2.5 3.7-3.2 3.9-3.1 1.3.5m8.7 1.7c-.4.3-.7 0-.7-.7s.3-1 .7-.7c.3.4.3 1 0 1.4M669 905.5c0 .3-.2.5-.5.5s-.5-.2-.5-.5.2-.5.5-.5.5.2.5.5"/><path d="M708.2 754.2c-.7.7-1.2 1.9-1.2 2.7 0 1.1.4 1 2-.4 2.4-2.2 3.9-1.2 2.2 1.5-1.6 2.5-1.5 3 .3 3 .8 0 1.5.7 1.5 1.5 0 1.8-4.6 2.1-5.3.2-.2-.6-.8-.9-1.3-.4-.4.4.2 1.7 1.3 2.9 2.1 2 2.3 2 4.7.4 2.3-1.5 2.5-2 1.9-6.4-.8-5.9-3.2-7.9-6.1-5M717.6 754.9c-1 1.1-1.3 2.2-.8 2.5.6.3 1.2-.1 1.6-.9.8-2.2 3.6-1.8 3.6.5 0 1.1-.4 2-1 2-.5 0-1 .4-1 1 0 .5.7 1 1.5 1 2 0 1.9 2.9-.1 3.7-1 .4-2.2-.1-2.9-1-1.5-2.1-2.5-2.2-2.5-.2 0 .8.9 1.9 2.1 2.5 1.6.9 2.6.8 4.5-.5 2.1-1.4 2.3-2 1.8-5.8-1.1-6.7-3.5-8.5-6.8-4.8M733.6 755.6c-3 3-.9 11.4 2.9 11.4 2 0 4.5-4 4.5-7.2 0-2.8-2.3-5.8-4.5-5.8-.7 0-2.1.7-2.9 1.6m5.2 2.7c.9 4.8-2.6 9.2-4.2 5.1-.8-2.1-.8-5.9.1-6.8 1.2-1.2 3.8-.1 4.1 1.7M744.3 755.2c-4.3 5.3-.7 14.4 4.3 11 3.3-2.2 1.7-7.2-2.2-7.2-1.6 0-2.4-.5-2.1-1.3.2-.6 1.6-1.1 3.1-1 1.7.1 2.6-.2 2.3-1-.5-1.7-4.2-2-5.4-.5m4.5 7.5c-.2 1-1.2 1.8-2.3 1.8s-2.1-.8-2.3-1.8c-.3-1.3.3-1.7 2.3-1.7s2.6.4 2.3 1.7M753.6 755.6c-.9.8-1.6 2-1.6 2.5 0 1.5 1.7 1 2.4-.6.8-2.1 3.6-1.9 3.6.3 0 1-1.3 2.8-3 4-4.3 3.2-3.9 5.2 1 5.2 4.8 0 5.4-1.7.8-2.2l-3.3-.4 3.2-1.9c2.4-1.4 3.3-2.7 3.3-4.6 0-3.8-3.6-5.1-6.4-2.3M726.5 761c-.3.5.3 1 1.5 1s1.8-.5 1.5-1c-.3-.6-1-1-1.5-1s-1.2.4-1.5 1M819.7 774.6c-.4.4-.7 1.4-.7 2.1 0 1.2.3 1.1 1.6-.1.8-.9 2-1.6 2.5-1.6 1.4 0 1.1 3.8-.3 4.3-.9.3-.7.9.6 1.9 1 .8 1.6 2 1.2 2.6-1 1.6-4.3 1.5-4.9-.1-.2-.6-.8-.9-1.3-.4-1.5 1.4 2.3 4 4.9 3.3 3.1-.7 3.6-2 2.8-7.6-.5-3.9-1-4.5-3.1-4.8-1.4-.2-2.9 0-3.3.4M829 775.5c-1.6 1.9-.5 3.4 1.2 1.7.7-.7 1.8-1.2 2.5-1.2 1.7 0 1.7 2.7.1 3.3-.9.3-.7.9.6 1.9 1 .8 1.6 2 1.2 2.6-1 1.6-4.3 1.5-4.9-.1-.2-.6-.8-.9-1.2-.5-1.1 1.1 1.4 3.8 3.5 3.8 1 0 2.3-.7 3.1-1.6 1.5-1.9 1.3-9.5-.4-10.6-1.9-1.2-4.4-.9-5.7.7M845.7 775.8c-4.3 4.7.7 14.4 5.1 10 .7-.7 1.2-3 1.2-5.3 0-6.1-3-8.3-6.3-4.7m5.1 3.7c.3 3.7-1.1 6-3.2 5.2-1.6-.6-2.3-6.7-.9-8.1 1.6-1.5 3.8 0 4.1 2.9M855.6 776.2c-3.4 4.8-.8 11.6 3.8 10.4 2.1-.5 2.6-1.3 2.6-3.6 0-3-2.8-4.9-5.1-3.4-.7.4-.9-.1-.7-1.2.3-1.4 1.2-1.8 3.1-1.7 2.9.2 3.7-1.1 1.1-2.1-2.5-1-3.2-.7-4.8 1.6m4.7 6.2c.7 1.8-.1 2.6-2.5 2.6-1.1 0-1.8-.7-1.8-2 0-2.3 3.5-2.8 4.3-.6M866.4 776.5c-1.7 1.3-1.7 1.4-.2 1.5 1.3 0 1.8 1.1 2 4.7.3 4.7.3 4.7.8-1.5.3-3.4.2-6.2-.1-6.2s-1.4.7-2.5 1.5M838.5 782c.3.5 1.3 1 2.1 1s1.4-.5 1.4-1c0-.6-.9-1-2.1-1-1.1 0-1.7.4-1.4 1M793.6 828.6c-.3.9-.6 5.7-.6 10.9v9.2l9.8.7c17 1.1 67.3 2.6 68.3 2 .5-.3.9-5.2.9-10.9v-10.4l-4.2-.5c-5.6-.6-55-2.6-65.4-2.6-6.5 0-8.3.3-8.8 1.6m38.7 1.4c8.1.6 19.6 1 25.5 1s11.2.4 11.8.8c1.6 1 .3 18.8-1.2 18.5-.7-.1-13.5-.7-28.5-1.3-15.1-.5-31.3-1.3-36.1-1.6l-8.8-.7V838c0-4.8.2-8.9.5-9.2.6-.6 17.2 0 36.8 1.2"/><path d="M801.4 833.4c-1.1.8-1.5 1.8-1 2.3.5.4 1.1.2 1.3-.5.3-.6 1.3-1.2 2.4-1.2 3 0 2.4 3.7-.8 5.2-1.6.7-2.9 2.3-3.1 3.6-.3 2 .1 2.2 3.7 2.2 2.3 0 4.1-.5 4.1-1 0-.6-1.3-1-3-1-3.8 0-3.8-1 0-3.2 3.5-2 4-5.2 1.1-6.8-2.5-1.3-2.3-1.3-4.7.4M811.2 834.2c-2 2-1.5 9.6.6 10.7s6.2-1.1 6.2-3.3c0-1.8-3.7-4.9-4.9-4.1-.6.3-1.1-.1-1.1-.9 0-2 1.9-3.1 3.3-1.7 1.6 1.6 2.7 1.4 2.1-.4-.7-1.8-4.5-2-6.2-.3m4.6 7c-.2 1.3-1 2.3-1.8 2.3s-1.6-1-1.8-2.3c-.3-1.7.2-2.2 1.8-2.2s2.1.5 1.8 2.2M827.4 834.4c-1.1.8-1.5 1.8-1 2.3.5.4 1.1.2 1.3-.5.3-.6 1.3-1.2 2.4-1.2 3.1 0 2.3 3.7-1.1 5.5-1.8.9-3 2.3-3 3.5 0 1.6.7 2 3.6 2 2.1 0 3.3-.4 2.9-1-.3-.6-1.5-1-2.6-1-2.8 0-2.3-1.2 1.1-3.2 3.5-2 4-5.2 1.1-6.8-2.5-1.3-2.3-1.3-4.7.4M836.7 834.7c-.4.3-.7 1.7-.7 3 0 1.8.5 2.3 2.5 2.3 2.9 0 4.4 2.5 2.6 4.3-.9.9-1.7.8-3.2-.1-2.8-1.7-3.4-1-1.1 1.2 2.2 1.9 4.8 1.3 6.2-1.4 1.4-2.5.3-4.7-2.6-5.4-3.3-.9-3.1-3.4.4-3.9 2.6-.4 2.6-.4-.4-.6-1.7 0-3.4.2-3.7.6M848.5 835.7c-1.4 1.1-1.6 1.7-.7 2 .7.3 1.2 2.4 1.3 5.1.1 4.7.1 4.7 1 .7.6-2.2.9-5.2.7-6.7-.3-2.5-.4-2.6-2.3-1.1M856 840.5c0 6.5 0 6.5 3.9 6.5 4.5 0 5.2-1 4.4-7.1-.7-4.9-1.6-5.9-5.5-5.9-2.8 0-2.8.1-2.8 6.5m6.5-2.5c0 2.3-4.9 2-5.3-.3-.3-1.5.2-1.8 2.5-1.5 1.7.2 2.8.9 2.8 1.8m.3 4.2c1.5 1.5-.3 3.8-2.9 3.8-2.2 0-3.3-1.6-2.5-3.5.7-1.8 3.7-2 5.4-.3M820.8 840.7c.6.2 1.8.2 2.5 0 .6-.3.1-.5-1.3-.5s-1.9.2-1.2.5M779.3 836.7c-.7.2-1.3 1.5-1.3 2.9 0 2.1-1.4 8.3-5 21.5-.6 2-1.8 4-2.8 4.3-.9.3-2.8 1-4.2 1.5-4.3 1.4-13.6 7.8-19.9 13.7-11.9 11-23.4 28.9-28.9 45.1-4.3 12.4-5.4 19.8-5.1 32.6.4 10.9.7 12.8 3.2 17.9 5.4 11.1 15.8 18 28 18.6 7.8.5 15-1.7 24.8-7.5 6.3-3.6 17.9-14.4 21.9-20.3 1.3-1.9 2.7-3.7 3.1-4 1.7-1.3 11.3-19.3 14-26.5 5.2-13.4 7-22 7.1-33.5.2-18.2-4.8-28.4-17.2-35.2-6.2-3.4-14-5.1-19.1-4.3-4.1.7-4.2.7-3.5-1.6.4-1.3 1.9-7.1 3.4-12.9l2.7-10.5 4.7.3c5.2.4 7.9-.5 5.7-1.9-1.5-.9-9.6-1.1-11.6-.2m1.2 29.4c-8.1 2.6-14.5 5.6-19.6 9-6.4 4.3-16 13.5-20.4 19.4-1.7 2.2-3.2 4.2-3.5 4.5-3.1 3.1-10.8 17.5-14.4 27-3.4 9.3-6.6 25.2-6.6 33.5 0 6.1 1.5 13.2 4.5 21 1.5 3.8-1.3.2-4.2-5.5-2.6-5.1-2.7-6.3-2.8-18 0-7.3.6-14.6 1.4-17.5 6.4-24 16-41.3 30.7-55.6 12.3-11.8 25.3-18.9 34.4-18.8 3.5.1 3.5.1.5 1m16.3 3.6c12.1 5.8 17.9 21.4 15.2 41.4-1.2 9.1-3.8 19.8-5.1 21.3-.5.6-.9 1.6-.9 2.4 0 2.5-9.6 20.7-14.4 27.2-11.8 16-22.4 24.6-35.8 29-17.9 5.9-32.4-1.6-36.4-18.7-3-12.7-.8-31.4 5.5-47.1 10.8-27 31.6-49.7 50.8-55.6 6.7-2 16.7-2 21.1.1"/><path d="M767.4 886.6c-11.2 5.6-22.5 17.8-29.8 32.1-5.6 11.2-8 22-7.4 33.9.5 10.7 3 16.2 9.6 20.8 3.6 2.5 5.3 3.1 10 3.1 4.9 0 7.3-.8 17.2-5.7 12.4-6.2 16.5-9.4 22.2-17.5 10.4-14.6 13.2-25.9 11.3-45.3-2.1-21.9-15.2-30.4-33.1-21.4m18.7-.4c6 2 11.9 10.1 11.9 16.4 0 2.9-.5 3-3.2.4-1.1-1-5.4-3.6-9.4-5.6-6-3-8.1-3.6-11.1-3.1-17.8 2.9-36.3 28.7-36.3 50.5 0 11.3 4.2 17.1 16.7 23.2 4 1.9 7 3.6 6.9 3.8-.2.2-2.8 1-5.7 1.8-9.8 2.6-17.4-.7-21.9-9.5-3.2-6.4-3.1-21.5.4-32.2 4.9-15.2 13.2-28.2 23.8-37 10.4-8.6 19.7-11.6 27.9-8.7m-2.6 12.2c1.8 1.3 1.7 1.4-1.6 2.1-7 1.5-17 9.4-22.8 17.8-9.5 13.9-13.1 30.1-9.5 42.4.9 3.2-.8 2.9-4.4-.8-12.6-12.9-.5-48.9 20.4-60.6 4.7-2.5 14.9-3.1 17.9-.9m10.9 6.5c4.8 4.2 6.2 11.6 4.3 22.6-1.8 9.7-7.6 21.8-14.1 29-4.5 5-4.5 5-4.6 1.4 0-3.2-1.4-5.9-3.1-5.9-.4 0-2.1 1.2-3.8 2.6-2.3 1.9-3.1 3.4-3.1 5.9 0 1.9.5 3.7 1 4 1.8 1.1 1.1 2.3-2.1 3.4-4.8 1.7-8.3 1.3-12-1.2-5.1-3.4-6.9-7.8-6.9-16.9 0-4.2.4-8.7.9-10s1.9-5 3.2-8.3c2.5-6.6 8.2-15.6 12.3-19.4 2.6-2.4 2.6-2.4 2.6 1 0 1.9.5 4.1 1 4.9.8 1.3 1.4 1.2 4.7-.5 3.5-1.9 3.8-2.4 3.7-6-.1-2.2-.3-4.9-.5-5.9-.3-1.6.5-2.2 4.1-3.1 4.9-1.3 9.1-.4 12.4 2.4M777 911c0 2.8-2.2 5-4.9 5-2.1 0-1.2-5.7 1.2-7.3 2.8-1.9 3.7-1.3 3.7 2.3m1 46.3c0 3.7-1.5 5.7-4.2 5.7-2.6 0-2.3-4.8.4-7.1 3-2.7 3.8-2.4 3.8 1.4"/><path d="M786.6 909.5c-2.4 2.5-2.1 5.7.5 5.3 2.7-.4 4.3-4.2 2.4-5.8-1-.8-1.7-.7-2.9.5m2.4 1.9c0 .3-.4.8-1 1.1-.5.3-1 .1-1-.4 0-.6.5-1.1 1-1.1.6 0 1 .2 1 .4M792 921c-2.7 2.7-2.4 7.5.4 7.5s6.3-5.1 5-7.2c-1.6-2.6-3.1-2.6-5.4-.3m4 1.7c-.1 1.1-2.6 4.3-3.4 4.3s-.8-3.5.1-4.3c.9-.9 3.3-.9 3.3 0M775.5 921.6c-6 3.1-10.2 9.1-11.9 17.1-.9 3.9 1.5 9.6 4.7 11 9 4.1 22.8-18.6 16-26.5-2.5-2.9-5.3-3.4-8.8-1.6m5.8 3.6c1.3 4.9-2.6 14.5-7.7 19.1-2.3 2-6.4 3.3-7.4 2.2-1.2-1.2-.5-11 1.1-14.1 4.2-8.2 12.7-12.5 14-7.2m.6 13.2c-2 4.4-6.9 9.6-9.1 9.6-.5 0 .4-1.1 2-2.5 3.8-3.2 8.1-11.8 8.4-16.4.1-3.5.2-3.4.5.5.3 2.9-.3 5.7-1.8 8.8M759.6 925.6c-2.3 2.2-2.1 5.4.4 5.4 2.2 0 4.4-3.4 3.6-5.6-.7-1.8-2.1-1.8-4 .2m2.4 2.4c0 .5-.4 1-1 1-.5 0-1-.5-1-1 0-.6.5-1 1-1 .6 0 1 .4 1 1M790.7 932.7c-1 .9-.8 4.3.2 4.3.5 0 1.4-.7 2.1-1.5 1.7-2.1-.4-4.8-2.3-2.8M786.5 941.3c-1.4 2.3-1.2 5.7.5 5.7 1 0 4-3.5 4-4.7 0-.6-.6-1.6-1.4-2.2-1.2-1-1.8-.8-3.1 1.2m2.5 1.7c0 .5-.5 1-1.1 1-.5 0-.7-.5-.4-1 .3-.6.8-1 1.1-1 .2 0 .4.4.4 1M753.6 945.2c-2.1 2.9-2 6.7.1 7.5s6.5-4.2 6.1-7.1c-.4-3-4.2-3.3-6.2-.4m4.4 1c-.1 1.5-2.4 4.8-3.4 4.8-1.1 0-.7-3.5.6-4.8 1.6-1.6 2.8-1.5 2.8 0M760.2 958.2c-1.4 1.4-1.6 4.4-.3 5.2 1.4.9 3.9-.4 4.3-2.2 1-3.7-1.5-5.5-4-3m1.5 3.5c-.4.3-.7 0-.7-.7s.3-1 .7-.7c.3.4.3 1 0 1.4M663.2 841.3c1.4 1.3 11.2 6.7 12.2 6.7 1.7 0-.8-2-5.9-4.9-5.7-3.2-8.7-4.1-6.3-1.8M830.5 953.1c-6.5 3.7-10.6 10.6-10.7 18.1-.1 4.5.2 5.4 2.8 7.5 2.5 2 4 2.3 11.2 2.3h8.2l.1 19.2c.1 10.6.2 23 .3 27.6l.1 8.3-18.5.2-18.5.2-.3 9c-.5 15.2-5.4 13.5 40.3 13.5H885v-10.4c0-5.8-.4-10.7-.8-11-.4-.2-9.6-.6-20.5-.7l-19.7-.3v-28.3c0-28.2 0-28.2 2.5-31.9 1.4-2 2.5-4.8 2.5-6.1 0-2.2-2.6-8-4.1-9.3-.3-.3-.9-1.7-1.3-3.2-.3-1.5-1.4-3.2-2.4-3.7-3.1-1.6-8.6-2.1-10.7-1m8.9 1.9c3.7 1.4 3.2 3-.7 2.3-2.9-.4-4 0-7.5 3.4-2.7 2.6-4.2 5-4.7 7.6-.8 4.1 0 8.7 1.6 8.7.6 0 .6-.7-.1-2.1-1.3-2.3-.8-3.5.9-2.4.6.3 1 2 .9 3.6-.2 2.6-.6 2.9-2.8 2.7-2.3-.3-2.5-.8-2.8-5.6-.2-4.2.2-6.2 2.2-9.5 2.5-4.4 6.1-8.1 8.6-9 .8-.3 1.6-.6 1.7-.6.1-.1 1.3.3 2.7.9m-10.7 2.7c-2.9 3.1-5.6 8.9-6.7 14.3-.8 3.5-.8 3.5-.9-.5-.1-5.6 6-16.5 9.3-16.5.5 0-.2 1.2-1.7 2.7m11.3 2.2c0 1.2-2.9 2.3-4.1 1.5-1.8-1-.9-2.4 1.6-2.4 1.4 0 2.5.4 2.5.9m-5.2 2.4c.8.9.5 1.9-.8 3.7-1.1 1.4-2 3.1-2 3.7 0 .7-.9 1.3-2 1.3-2.7 0-2.6-3.3.1-7.1 2.3-3.2 3.1-3.5 4.7-1.6m9.2-.3c0 .5-.8 1-1.7 1-2.2.1-4.3 1.7-6.6 5.2-2 3.2-2.3 8.4-.4 9.1.6.2.9.8.5 1.2s-1.4.5-2.3.2c-1.9-.8-2-5.9 0-9.7 2.5-4.7 10.5-10.1 10.5-7m-1.6 3.5c-.4.8-1 1.5-1.4 1.5s-1.7 1.9-2.8 4.2c-2.1 4.2-2.1 4.2-2.1 1.3 0-3.3 1.3-5.5 4.4-7.3 2.6-1.5 2.5-1.5 1.9.3m5.1 2.6c.8 2.5-.2 3.9-1.1 1.5-.3-.9-1.3-1.6-2.1-1.6s-1.1-.5-.8-1c1.1-1.7 3.3-1.1 4 1.1m-2.6 5c-.5 1-1.4 2.1-2 2.5-.8.5-.8.1 0-1.4 1.7-3.3 1.2-3.9-.9-1.2-1.8 2.3-2 2.4-2 .4 0-3 1.9-4.5 4.1-3.1 1.3.8 1.5 1.5.8 2.8m-2.7 4.3c1.4-.4 1.8-.2 1.4.5-.4.6-1.8 1.1-3.2 1.1-1.8 0-2.4-.5-2.4-2.3.1-2 .2-2 1.1-.4.7 1.2 1.7 1.6 3.1 1.1m40.6 61.6c.1 0 .2 4.1.2 9v9l-37.7-.2-37.8-.3-.3-9.4-.3-9.4 37.8.6c20.8.4 37.9.7 38.1.7"/><path d="M813.5 1043c-1 1.1-1.3 2-.7 2s1.4-.5 1.7-1c1.1-1.8 3.5-1.1 3.5 1 0 1.1-.4 2-1 2-.5 0-1 .4-1 1 0 .5.7 1 1.5 1 2 0 1.9 2.9-.1 3.7-1 .4-2.2-.1-3-1.2-.8-1-1.7-1.6-2.1-1.2-.8.9 2.6 4.7 4.2 4.7 2.7 0 4.5-3.5 3.8-7.5-1-6.6-3.4-8.2-6.8-4.5M823.5 1043c-1 1.1-1.3 2-.7 2s1.4-.5 1.7-1c1.1-1.8 3.5-1.1 3.5 1 0 1.1-.4 2-1 2-.5 0-1 .4-1 1 0 .5.7 1 1.5 1 2 0 1.9 2.9 0 3.7-.9.3-2.5-.3-3.5-1.2-1.6-1.5-2-1.5-2-.3 0 .8 1.1 2.1 2.5 2.8 2.1 1.1 2.7 1.1 4.4-.4 1.5-1.4 1.8-2.6 1.4-5.9-.9-6.8-3.4-8.5-6.8-4.7M840 1043c-2.5 2.5-2.6 7.1-.1 10.1 3 3.6 5.5 1.6 5.9-4.7.2-4-.1-5.1-1.8-6.2-1.7-1-2.3-.9-4 .8m4.8 4.5c.3 3.7-1.1 6-3.2 5.2-1.6-.6-2.3-6.7-.9-8.1 1.6-1.5 3.8 0 4.1 2.9M850.6 1045.8c-3.2 4.7-3.2 5.2-.1 5.2 1.6 0 2.5.6 2.5 1.5 0 1.8 1.6 2 2.2.2.7-1.9-.3-10.7-1.2-10.7-.4 0-1.9 1.7-3.4 3.8m2.4 2.2c0 1.1-.7 2-1.5 2-1.8 0-1.9-1.2-.3-2.8s1.8-1.5 1.8.8M859 1043.5c-.7.9-.9 1.9-.5 2.3s1 .1 1.2-.6c.5-1.3 3.5-1.7 4.6-.6.8.9-1.1 4.4-2.4 4.4-1.6 0-3.9 2.7-3.9 4.4 0 1.2 1 1.6 4 1.6 2.2 0 4-.5 4-1 0-.6-1.3-1-3-1-3.8 0-3.8-1 0-3.2 2-1.2 3-2.5 3-4.1 0-3.6-4.6-5-7-2.2M832.5 1049c-.3.5.3 1 1.5 1s1.8-.5 1.5-1c-.3-.6-1-1-1.5-1s-1.2.4-1.5 1M726 1046.5c0 .3.2.5.5.5s.5-.2.5-.5-.2-.5-.5-.5-.5.2-.5.5M167 1252.1c-14.6 8.2-24.2 12.9-25 12.4-1.5-.9-2.5 2.4-1.2 3.7.8.8 2.7.3 6.9-1.9 19.1-10.1 25.5-13.3 26.7-13.3s1.4 1.5 1 7.6c-.2 4.1-.6 7.9-.9 8.3-.2.5-3.7 2.5-7.7 4.6-12.3 6.3-24.2 12.7-25.5 13.8-.7.5-1.3 2.9-1.3 5.3s-.2 4.4-.5 4.4c-.7 0-4.9-2.4-5.5-3.1-.3-.4-2.4-1.6-4.8-2.8-7.1-3.6-7-4.2 3.2-19.5 3.2-4.9 6.7-9.1 7.7-9.3 2.1-.6 2.5-3.3.7-5.1-2.2-2.2-3.3-1.2-8.3 7.5-2.7 4.7-6.9 11.5-9.1 14.9l-4.2 6.4 5.2 3.4c7.4 4.9 15.5 9.6 16.6 9.6.6 0 1-2.4 1-5.3 0-5.3 0-5.3 8.3-9.5 12.1-6.2 25.1-13.2 26-14.1.4-.4.8-4.6.9-9.4.2-7.6-.1-8.9-1.8-10.2-2.5-1.9-2-1.9-8.4 1.6"/><path d="M167.3 1258.8c-2.5 1.9-3.8 7.6-2.6 10.9.8 2.1 1 2.1 3.9.7 4.8-2.3 6.8-8 4-11.7-1.6-2.1-2.5-2.1-5.3.1m4.5 3.6c.4 2.9-2.1 6.6-4.5 6.6-2.1 0-1.7-7.7.5-8.9 2.5-1.5 3.7-.8 4 2.3M161.7 1261.7c-.4.3-.7 1.9-.7 3.4 0 3.8-1.4 4.4-3 1.1-1.3-2.7-1.3-2.7-2.5 1.3-1.2 3.9-1.2 3.9-2.4 1.7-1.9-3.6-2.3-2.1-1 3.8 1 4.9 1.3 5.2 2.5 3.5.8-1 1.4-2.9 1.4-4.1 0-3.4 1.8-3.9 3.2-1 1.8 4 2.5 3.1 3.1-3.6.6-6.5.5-7.3-.6-6.1M144.8 1270.6c-1.6.8-2.8 1.8-2.9 2.2-.5 5-.4 11.2.3 11.2.4 0 .8-.9.8-1.9 0-1.1 1.2-2.8 2.7-3.9 1.6-1.1 2.5-2.4 2.1-2.8s-1.4-.2-2.1.4c-.8.7-1.7.9-2 .5-1.5-1.4-.6-3.1 2.3-4.3 1.7-.7 3-1.6 3-2.1 0-1.2-1-1.1-4.2.7"/></svg>