<svg xmlns="http://www.w3.org/2000/svg" viewBox="0 0 866.4 1219.225" fill="currentColor"><path d="M235.733 194.298c-.603.497-5.42 3.267-10.837 6.034-10.634 5.635-10.13 4.938-16.12 19.702-2.334 5.486-2.441 6.685-1.458 9.491 2.555 7.216 6.923 12.543 14.691 17.79 4.282 2.927 8.662 6.254 9.655 7.46 1.29 1.508 2.461 6.315 3.998 16.624 1.251 8.008 2.707 15.217 3.302 16.02 1.985 2.613 6.47 5.04 9.27 5.058 3 .018 9.32-3.444 9.532-5.242.426-4.198-1.37-37.71-2.425-45.016l-.578-3.704 14.3.088c7.8.047 13.902-.215 13.505-.718-.398-.402-4.196-.725-8.396-.751-4.299-.126-10.498-.264-13.898-.385-6.298-.238-6.298-.238-6.266-5.538.017-2.8.745-7.396 1.562-10.091 1.53-4.99 1.53-4.99-2.136-10.513-4.16-6.526-13.995-17.186-15.695-17.196-.6-.004-1.503.39-2.006.887m6.178 3.738c1.39 1.409 2.383 2.715 2.182 2.814-.2.198-4.013 2.175-8.428 4.548-4.414 2.273-8.428 4.649-8.93 5.046-1.81 1.589-5.206.868-7.492-1.446-1.887-2.112-1.984-2.612-.678-3.604 2.312-1.886 17.96-9.89 19.461-9.982.7.005 2.393 1.215 3.885 2.624m7.543 9.246c5.651 8.035 5.65 8.135 4.004 15.825-1.133 5.293-1.252 8.493-.585 13.897.86 6.405 1.882 19.312 3.35 41.021.272 4.402.147 8.501-.256 9.099-1.11 1.493-6.827 4.358-8.827 4.346-1.9-.012-2.195-.814-3.445-9.021-3.457-23.422-2.67-21.417-11.32-29.37-4.276-4.026-8.257-7.25-8.857-7.254-2.7-.017-9.563-6.059-11.935-10.573-1.484-2.71-2.569-5.216-2.466-5.716.103-.399-.09-1.6-.584-2.603-.689-1.804 5.61-17.866 7.313-18.356.4-.097 2.095.813 3.687 2.123l2.885 2.417-3.351 8.38c-3.96 9.876-4.464 10.473-6.554 8.76-3.084-2.619-2.197-.413 1.576 3.91 2.086 2.413 3.876 3.924 3.88 3.424.002-.5-.492-1.403-1.188-2.108-1.292-1.308-.371-4.702 2.874-11.982.91-1.795 2.13-4.887 2.741-6.784 1.118-2.993 2.626-4.184 11.254-8.831 5.518-2.866 10.533-5.336 11.233-5.332.6-.096 2.687 2.117 4.571 4.728m-9.28 62.145c2.7 16.517 2.884 19.118 1.188 18.407-.898-.305-1.785-2.41-2.171-4.713s-1.255-7.408-1.932-11.212c-.676-3.904-1.546-8.81-1.833-10.911-.476-3.903-.476-4.003 1.412-1.992 1.292 1.308 2.37 4.815 3.336 10.42"/><path d="M236.137 210.001c-3.612 1.978-7.226 4.256-8.131 5.15-1.711 1.79-6.988 14.258-7.001 16.458-.004.6 4.763 6.13 10.625 12.265 11.726 12.272 10.74 9.766 14.102 32.587 1.345 8.908 1.838 10.011 3.938 10.024 3.4.021 5.218-2.868 4.645-7.372-.285-2.301-.74-9.604-1.1-16.407-.358-6.702-1.023-12.506-1.521-12.81-.698-.403-.807 1.096-.526 4.198 1.426 12.209 1.736 26.91.643 25.804-.697-.604-1.564-6.01-2.027-12.012-1.492-17.71-4.717-30.03-8.892-34.055-2.685-2.517-2.685-2.517.564-10.497 2.844-7.183 3.348-7.88 5.647-7.666 2.298.314 2.496.715 2.174 4.314-.868 11.094-.726 20.495.268 21.502.795.804 1.005-.794.636-5.897-.275-4.001.16-9.699.88-13.095 1.337-5.991 1.337-5.991-2.032-11.012-1.884-2.712-4.07-4.925-4.87-4.93s-4.41 1.573-8.022 3.451m11.093 1.268c1.783 2.71 1.78 3.21.48 3.203-1.5-.01-5.577-3.734-5.57-5.034.008-1.1 1.314-2.092 2.212-1.787.499.203 1.789 1.811 2.878 3.618m-4.904.67c.887 2.105.576 3.804-2.166 10.787-3.048 7.781-3.652 8.478-7.764 10.453-5.417 2.667-6.617 2.66-8.802.246-1.49-1.71-1.386-2.309 1.76-9.69 3.044-7.281 3.649-8.077 8.766-10.946 6.825-3.959 6.825-3.959 8.206-.85m-2.44 22.885c.893 1.106.288 1.902-3.525 3.979-4.415 2.473-4.815 2.47-6.605.86-1.989-1.813-1.583-2.71 2.43-4.786 3.11-1.78 6.31-1.761 7.7-.053m4.443 9.328c1.96 6.412 1.95 8.212.145 8.9-1.403.492-10.255-7.362-10.74-9.665-.293-1.202 7.436-5.955 8.33-5.05.298.303 1.383 2.91 2.265 5.815m2.92 13.018c1.053 7.706 1.667 21.81.872 21.006-.994-.907-4.36-22.827-3.654-23.923 1.111-1.793 2.304-.586 2.782 2.917m4.335 27.027c-1.61 1.79-2.71 1.583-3.395-.72-.981-3.107.427-4.398 2.614-2.385 1.392 1.309 1.588 2.01.781 3.105M221.434 243.312c.993 1.106 1.989 1.812 2.29 1.514.704-.596-1.778-3.511-3.078-3.519-.5-.003-.206.899.788 2.005M294.343 225.557l-10.101.238.027 11.9.027 12.001 44.799.274 44.8.273.075-12.5.077-12.6-34.7.089c-19.202.083-39.403.16-45.004.325m76.992 1.57c.4.103.67 4.804.636 10.504l-.063 10.4-41.702.145c-23 .06-41.902.144-42.002.144-.1-.1-.27-4.802-.335-10.602l-.236-10.502 27.503-.332c23.202-.258 53.502-.173 56.2.243"/><path d="M295.216 229.962c-1.81 1.79-1.58 13.29.21 14.802 2.188 1.913 4.503-.473 4.528-4.573.017-2.8-.478-3.603-2.473-4.415-2.394-.914-3.182-2.92-1.774-4.31.303-.399 1.202-.193 1.898.411.796.605 1.396.709 1.8.011 1.01-1.594-2.88-3.218-4.189-1.926m2.737 10.417c-.015 2.4-.42 3.398-1.22 3.193-2.395-.815-2.158-6.813.242-6.799.5.003.99 1.606.978 3.606M305.216 230.023c-.604.697-.925 4.195-.947 7.695.17 4.8.56 6.603 1.854 7.511 2.092 1.313 4.906-.97 4.825-3.97-.24-9.802-.924-12.406-3.324-12.42-.8-.006-1.804.588-2.408 1.184m3.78 3.324c-.01 1.6-.615 2.496-1.515 2.49s-1.495-.909-1.485-2.509.615-2.496 1.515-2.49 1.495.909 1.485 2.509m.162 6.2c.685 2.505-.126 4.3-1.826 4.29-.9-.006-1.393-1.109-1.382-3.009.02-3.3 2.426-4.185 3.208-1.28M327.012 230.857c-2.328 4.485-.687 14.096 2.413 14.115 5 .03 4.397-15.874-.602-16.004-.4-.003-1.205.892-1.811 1.889m3.757 7.023c-.217 2.798-.732 5.195-1.333 5.392-1.101.193-1.847-8.712-.932-11.106 1.119-3.093 2.597.516 2.265 5.714M337.719 229.722c-.402.298-.71 1.596-.717 2.696.089 1.9.189 1.9 1.098.306 1.616-2.59 4.314-2.173 3.397.521-1.323 3.792-1.874 12.089-.87 11.495.602-.396 1.32-3.292 1.64-6.49.42-3.198.94-6.594 1.346-7.492.508-1.397.01-1.7-2.29-1.714-1.6-.01-3.302.28-3.604.678M350.92 229.603c-.004.6-.127 4.299-.25 8.198-.236 5.899.055 7.3 1.255 7.308 1.2.007 1.408-1.291 1.244-7.192-.176-4.002-.753-7.705-1.25-8.308-.596-.604-.896-.606-1-.006M315.468 237.886c.297.502 1.694 1.01 2.994 1.019 1.3.007 2.703-.484 3.006-.982.404-.598-.794-1.005-2.993-1.018-2.2-.014-3.403.379-3.007.981M405.26 354.237c-.044 7.1.324 12.302.922 12.706.597.403 20.794 1.027 44.992 1.475l43.995.868.074-12.1c.04-6.6-.225-12.301-.624-12.503-.498-.303-20.694-.927-44.991-1.475l-44.295-.97zm59.354-8.738 27.696.77-.064 10.5-.065 10.5-42.195-.859c-23.297-.542-42.395-.959-42.495-.96-.2 0-.271-4.701-.236-10.5l.064-10.5 14.8.09c8.1.05 27.198.466 42.495.96"/><path d="M416.003 347.202c-1.107 1.094-.816 2.495.39 1.703.601-.297 1.5.009 1.995.712 1.089 1.807 2.096.613 1.309-1.492-.59-1.604-2.487-2.115-3.694-.923M426.5 347.767c-.505.696-1.027 4.293-1.05 7.993-.143 7.1 1.047 8.807 4.759 6.83 1.605-.89 1.912-1.989 1.644-7.29-.078-3.501-.557-6.904-.954-7.507-.89-1.605-3.09-1.519-4.4-.026m3.28 3.32c-.007 1-.613 1.996-1.214 2.192-.802.295-1.297-.508-1.287-2.208s.515-2.497 1.314-2.292c.598.304 1.192 1.308 1.186 2.308m-.047 7.5c-.008 1.3-.515 2.496-1.216 2.692-1.303.492-2.68-3.216-1.771-4.71 1.11-1.794 3.003-.482 2.987 2.017M448.499 347.9c-.704.697-1.224 3.893-1.245 7.393-.04 6.4 1.345 9.009 4.251 7.927 3.108-1.281 2.558-9.485-.742-9.505-1-.006-1.494-.91-1.484-2.61.014-2.3.216-2.498 1.509-1.39 1.99 1.712 3.197.52 1.509-1.49-1.489-1.81-2.188-1.914-3.798-.324m2.737 10.318c-.012 1.9-.421 3.497-1.021 3.494-.5-.003-.99-1.606-.979-3.506s.521-3.497 1.021-3.494c.6.003.99 1.606.979 3.506M458.792 349.064c-1.715 2.49-2.06 9.887-.578 12.797 2.373 4.314 6.698.34 5.531-5.167-.487-2.003-1.282-2.908-2.582-2.916-1.2-.007-1.895-.711-1.889-1.811.017-2.8 1.121-3.393 2.609-1.384 1.19 1.607 1.29 1.508 1.402-.392.02-3.1-2.577-3.716-4.493-1.127m3.24 9.82c-.108 1.3-.714 2.295-1.313 2.192-1.299-.308-1.782-3.011-1.07-5.007 1.015-2.394 2.9-.082 2.383 2.815M468.886 350.025c-.922 3.595-.759 9.696.328 11.903 3.46 6.521 8.126-4.35 4.87-11.57-1.38-3.11-4.38-3.328-5.198-.333m4.161 6.426c-.216 2.699-.73 4.896-1.33 4.892-1.1-.007-1.851-7.911-.937-10.306 1.118-2.993 2.597.516 2.267 5.414M480.362 354.096c-.722 3.495-1.444 7.091-1.75 7.99-.305.997-.11 1.798.49 1.802s1.107-1.093 1.115-2.493c.011-1.8.515-2.497 2.015-2.488 1.4.009 1.996.712 1.986 2.312-.016 2.6.876 3.906 2.08 3.213.402-.297.314-2.198-.173-4.301-2.637-10.416-3.126-12.22-3.826-12.224-.4-.002-1.317 2.792-1.937 6.189m2.891 1.417c-.005.8-.409 1.398-1.008 1.394-.5-.003-.995-.906-.988-2.106.007-1.1.51-1.697 1.009-1.394.598.304.992 1.306.987 2.106M414.354 355.192c-.148 7.8 3.634 10.723 5.972 4.637 1.117-2.893-1.056-7.307-3.456-7.321-.8-.005-1.696-.61-1.892-1.312-.296-.602-.607 1.097-.624 3.996m4.886 2.33q-.02 3-1.519 2.991c-1.8-.01-2.985-2.418-2.072-4.513 1.017-2.793 3.61-1.678 3.59 1.522M436.251 355.626c-.003.5 1.594 1.01 3.494 1.022 1.9.011 3.503-.479 3.506-.979.004-.6-1.594-1.01-3.493-1.021-1.9-.012-3.503.378-3.507.978M449.108 379.205l-.059 9.6-164.196-1.103-164.297-1.104-.88 193.299c-.45 106.299-.72 199.599-.567 207.3s.104 81.302-.099 163.502c-.102 82.201-.057 156.803.188 165.705l.502 16.103 4.196.626c6.595.94 363.297 1.619 440.604.791 16.201-.2 68.703-.28 116.503-.288 47.901-.008 89.004-.256 91.405-.542l4.404-.573-.117-79.102c-.133-43.602-.324-94.304-.511-112.705-.188-18.402-.322-61.903-.41-96.505-.089-34.7-.18-85.302-.314-112.504-.133-27.201-.134-92.502-.114-145.003s-.074-118.803-.3-147.305l-.284-51.702-62.102.12c-34.201.091-73.103.254-86.604.471-13.502.218-58.404.444-99.706.591l-75.302.14.055-9.1c.03-5-.342-9.402-.94-9.706-.598-.403-1.017 2.794-1.055 8.994m323.849 25.679c.049 8.4.182 19.301.351 24.303.17 4.9.216 63.002.112 129.003-.135 136.701.323 340.108 1.011 407.513.247 25.002.357 72.604.254 105.804l-.068 60.2-38.8-.036c-21.3-.03-41.902.044-45.802.12-3.8.077-56.302.156-116.503.188s-126.805.326-148.006.496c-21.202.27-98.203.2-171.302-.146-107-.454-132.798-.812-133.092-1.813-.296-.702-.284-68.103-.085-149.804.1-81.7.147-155.002-.104-163.003-.408-15.103-.173-282.807.297-376.006l.327-53.499 224.997 1.075c123.799.656 256.5.967 295 .802 38.503-.165 83.805-.388 100.805-.384l30.701-.113z"/><path d="M388.093 463.334c-14.85 8.01-21.568 11.069-31.088 14.31-12.426 4.125-42.617 19.04-50.152 24.595-12.256 9.125-28.407 17.426-33.806 17.393-1.1-.006-3.905.776-6.212 1.862-2.306.986-6.614 2.36-9.619 3.042-11.916 2.627-43.576 12.434-49.093 15.2-1.505.79-3.317 2.78-4.028 4.476-1.522 3.59-.881 13.294 1.005 15.606.694.904 5.079 3.431 9.765 5.66s19.842 9.621 33.5 16.505c42.771 21.261 40.375 20.647 55.12 13.437 6.92-3.358 22.766-10.861 42.924-20.338 6.118-2.863 17.35-8.195 25.073-11.848 7.723-3.652 17.15-8.095 20.96-9.772 8.022-3.55 7.523-3.754 12.56 6.577 2.962 6.218 2.962 6.218 14.135 10.787 9.975 4.06 11.473 4.37 13.28 3.18 1.105-.792 2.709-1.383 3.709-1.376 1 .006 2.705-.884 3.913-2.077 1.911-1.888 1.913-2.188.523-3.797-.895-.905-5.18-3.231-9.569-5.158-8.08-3.35-8.08-3.35-11.535-10.57-1.776-4.012-3.353-7.721-3.35-8.321.003-.5 2.212-1.887 4.92-3.07 2.706-1.084 18.251-8.489 34.6-16.39 16.348-7.9 29.888-14.317 30.188-14.315.2.001 2.808-1.383 5.619-3.066 5.017-2.87 5.919-3.064 19.621-3.48 8.303-.35 14.306-.913 14.31-1.513s-5.195-.831-14.197-.586c-12.903.42-14.402.312-15.892-1.398-.793-1.004-7.377-3.745-14.463-6.088s-19.56-6.42-27.644-9.169c-8.184-2.75-15.47-4.995-16.17-4.999-.8-.005-3.482-3.021-6.058-6.837-6.147-8.738-5.55-8.234-9.444-9.258-1.897-.511-6.989-1.843-11.382-2.97-4.393-1.226-8.687-2.153-9.487-2.157s-6.416 2.66-12.536 5.923m23.212-1.958c13.778 3.584 13.28 3.281 17.537 10.307 3.96 6.624 5.94 10.037 11.477 20.27 3.362 6.121 3.637 10.323 1.027 11.907-1.605.89-21.06 9.872-29.584 13.62-2.707 1.183-8.323 3.749-12.334 5.624-4.112 1.875-7.62 3.154-7.918 2.852-.894-.905-.794-.905 10.737-6.034 5.816-2.565 13.738-6.117 17.548-7.793 3.911-1.777 10.027-4.44 13.737-6.017 8.523-3.748 9.334-5.443 6.173-11.962-1.383-2.709-3.263-6.02-4.254-7.526-.891-1.406-4.062-6.225-6.934-10.743-2.773-4.517-5.747-8.735-6.443-9.34-1.592-1.41-19.461-6.418-20.166-5.723-.302.299.795.805 2.293 1.114 1.598.41 3.994 1.025 5.391 1.533 1.398.409 4.592 1.428 7.188 2.044 3.993 1.125 5.188 2.032 8.16 6.65 7.33 11.245 15.542 25.896 15.232 27.394-.309 1.498-9.34 6.443-22.374 12.163a862 862 0 0 1-11.531 5.03c-3.009 1.382-10.228 4.538-16.043 7.002-5.816 2.565-11.432 5.13-12.536 5.724-3.311 1.88-6.62 3.46-14.541 6.811-4.11 1.675-12.634 5.523-18.852 8.385-6.318 2.961-11.633 5.33-11.933 5.327-.2-.001-5.314 2.268-11.131 5.132-12.036 5.727-15.038 6.109-29.724 3.819-4.396-.727-11.09-1.768-14.986-2.392-3.797-.523-9.491-1.458-12.488-1.976s-9.091-1.456-13.488-2.083c-15.486-2.294-20.68-3.226-22.275-4.136-3.986-2.324-15.557-7.095-15.96-6.697-.804.795 16.05 8.498 21.042 9.728 2.597.516 11.388 1.97 19.481 3.12 8.093 1.149 17.585 2.507 21.181 3.129 16.684 2.702 27.675 4.17 31.175 4.19 2.4.015 7.11-1.456 12.425-3.924 4.713-2.171 8.824-3.946 9.024-3.945s4.11-1.775 8.624-3.847c24.169-11.253 35.098-15.986 36.195-15.58.699.305-1.71 1.79-5.32 3.468-3.61 1.578-17.75 8.092-31.49 14.408-17.348 7.894-26.07 11.441-28.57 11.426-3.2-.02-12.792-1.278-31.575-4.193-3.297-.42-11.19-1.668-17.485-2.507-21.481-3.131-31.07-5.09-33.458-6.904-2.589-1.916-14.46-6.789-14.464-5.989-.004.6.694 1.004 1.494 1.01 1.1.006 1.493 1.208 1.47 5.008-.023 3.7-.431 4.998-1.431 4.992-.8-.005-1.803.389-2.106.987-.404.597.495.803 2.197.413 1.903-.388 4.898.43 9.285 2.457 3.59 1.622 8.776 4.054 11.468 5.27 10.87 5.067 17.451 8.107 28.917 13.677 6.581 3.14 14.757 7.09 18.148 8.711 3.39 1.52 6.577 3.64 7.071 4.643.594 1.004 1.391 1.509 1.794 1.111 1.308-1.392-1.976-4.012-9.056-7.355-3.789-1.823-13.062-6.28-20.44-9.925-14.656-7.19-23.032-11.041-35.598-16.718-7.979-3.449-8.278-3.65-8.258-6.95.025-4 .925-4.095 7.106-.857 6.978 3.543 7.778 3.648 44.844 9.274 5.795.835 15.686 2.296 21.98 3.234 21.281 3.23 19.18 3.418 32.017-2.604 6.318-2.962 14.14-6.514 17.35-7.994 29.581-13.32 36.2-16.48 37.008-17.675.909-1.494 7.994.95 13.97 4.886 5.28 3.332 5.969 5.136 2.561 6.416-1.303.492-11.332 5.23-22.364 10.463-11.033 5.333-27.48 13.133-36.608 17.477-29.686 14.119-35.405 17.084-35.914 18.58-.407 1.198-.208 1.3.898.306 1.508-1.19 29.493-15.12 44.235-21.93 14.842-6.81 48.34-22.805 50.146-23.794 2.61-1.484 5.508-1.166 6.197.538.394 1.102-.311 1.898-2.116 2.587-1.503.49-10.428 4.636-19.756 9.18-9.428 4.542-20.76 9.873-25.173 11.946s-14.542 6.811-22.566 10.662c-29.385 13.821-35.401 16.484-38.001 16.469-3.5-.022-17.762-6.41-43.482-19.466-11.465-5.77-24.725-12.352-29.412-14.58-10.87-4.967-11.962-6.274-11.918-13.373.037-6.1 1.961-10.089 4.961-10.07.9.005 2.103-.387 2.706-.884 1.007-1.094 13.934-5.515 25.454-8.844 4.108-1.175 8.616-2.548 10.02-3.14 9.02-3.144 15.223-3.706 34.817-2.687 19.794 1.021 27.186 2.266 35.862 6.22 7.979 3.548 4.858 6.93-8.96 9.845-11.014 2.333-16.115 2.502-20.706.873-3.492-1.22-3.884-2.623-1.272-4.507 1.607-1.19 1.608-1.29.008-1.4-1-.006-2.206.986-2.912 2.082-.91 1.694-.816 2.495.476 3.803 2.685 2.616 23.187 2.242 30.905-.611 5.713-2.165 8.726-4.347 8.737-6.147.01-1.5-4.765-5.63-7.262-6.245-1.198-.307-3.993-1.024-6.19-1.637-10.482-2.965-19.974-4.223-31.174-4.29-6.8-.042-12.297-.476-12.295-.876.008-1.3 12.02-3.127 20.62-3.074 12.5.076 30.026-4.217 44.267-10.93 4.813-2.17 8.226-4.25 7.627-4.453-.499-.203-4.608 1.371-9.021 3.445-4.313 2.073-9.226 4.243-10.93 4.933-8.22 3.05-37.244 6.972-35.93 4.88.302-.498 2.51-1.784 5.017-2.869 2.407-1.185 8.83-5.046 14.253-8.613 9.44-6.443 13.152-8.52 27.798-16.03 11.537-5.93 26.674-11.938 30.073-11.917 1.1.007 3.106-.881 4.513-1.973 1.406-1.091 3.212-1.98 4.012-1.975.9.005 2.002-.388 2.505-.885 1.81-1.589 21.473-11.869 25.08-13.047 3.307-1.08 5.006-.97 13.194 1.08m30.377 20.186c1.297.508 12.374 4.275 24.75 8.351 12.376 3.976 23.653 7.745 25.25 8.354 4.39 1.627 3.374 4.121-3.045 7.182-3.21 1.58-20.862 10.073-39.116 18.961-18.354 8.788-34.2 16.092-35.3 16.085s-2.297-.414-2.593-1.016c-.594-1.003 65.005-33.403 74.225-36.647l5.011-1.77-4.3-.026c-2.5-.115-12.383-2.875-23.66-6.744-10.577-3.665-19.959-6.622-20.759-6.627-1.9-.012-5.677-3.835-5.665-5.735.01-1.5 2.01-1.688 5.202-.368m20.414 14.225c17.064 5.904 19.06 6.716 18.154 7.51-.302.299-38.115 18.668-61.483 29.826-3.812 1.876-7.52 3.354-8.22 3.35-.8-.005-3.69-1.823-6.576-4.04-2.887-2.218-5.776-4.036-6.476-4.04-.6-.004-1.497-.51-1.793-1.011-.397-.603 1.913-2.189 5.221-3.568 3.21-1.48 10.028-4.54 15.143-6.908 5.114-2.369 9.527-4.342 9.627-4.341.2 0 4.31-1.774 9.024-3.945 10.73-4.935 12.042-6.927 8.883-13.546-1.186-2.408-2.171-4.714-2.17-4.914.007-1.2 4.3-.073 20.666 5.627m-65.605 33.4c1.593 1.01 3.886 2.223 4.982 2.93 4.982 2.93 12.829 11.679 15.693 17.596 1.578 3.51 3.357 7.02 3.752 7.823.79 1.505 2.385 2.415 12.555 7.377 2.792 1.317 4.982 2.93 4.978 3.63-.014 2.2-8.427 4.45-12.02 3.227-16.466-5.7-17.96-6.71-20.323-12.624-1.183-2.907-3.26-6.62-4.65-8.229-1.49-1.709-3.276-4.02-4.168-5.325-1.981-3.012-13.331-11.282-15.531-11.295-1-.006-2.697-.517-3.893-1.124-1.893-1.112-1.692-1.41 3.424-3.98 5.919-3.063 9.82-3.14 15.2-.006"/><path d="M358.376 482.353c-1.311 1.792-2.722 3.583-3.224 3.88-.502.397-.807 1.195-.61 1.797.195.6 2.106-1.188 4.123-3.875 2.117-2.787 3.33-4.98 2.83-4.983s-1.909 1.488-3.12 3.18M393.918 491.97c-8.227 4.35-13.843 7.016-17.553 8.593-1.905.788-5.515 2.366-8.021 3.451-9.826 4.24-25.351 8.245-37.06 9.574-8.005.951-14.116 2.714-16.029 4.802-4.127 4.375.554 7.504 11.354 7.57 7.2.044 24.114-2.253 27.623-3.632 3.509-1.478 1.908-1.388-8.502.248-11.811 1.828-27.812 1.83-29.4-.08-2.978-3.617 1.636-5.89 14.946-7.508 14.81-1.71 26.43-4.839 37.861-9.869 3.41-1.58 6.718-2.859 7.218-2.856s4.41-1.773 8.724-4.047c4.314-2.173 9.53-4.942 11.637-5.929 3.51-1.778 4.618-2.872 3.018-2.881-.5-.003-3.008 1.181-5.816 2.564M376.865 516.966c-3.309 1.38-7.521 3.455-9.529 4.642s-4.415 2.473-5.317 2.868c-1.002.294-1.807 1.089-1.811 1.789-.004.6-.706.896-1.503.49-1.697-.61-8.512 1.949-8.52 3.349-.004.5 1.389 1.708 2.984 2.518 2.691 1.416 3.491 1.421 7.299.145 5.811-1.865 11.73-4.729 11.735-5.629.001-.3 1.205-.892 2.807-1.183 1.502-.29 5.912-1.964 9.722-3.64 7.02-3.158 7.02-3.158 4.234-5.575-3.382-2.92-4.482-2.927-12.101.226m11.892 1.273c.297.502-.008 1.3-.71 1.696-.603.396-1.401.191-1.598-.41-.195-.701-.792-1.205-1.392-1.208-.6-.004-.804.595-.509 1.396.69 1.805-3.418 2.98-4.508 1.273-.99-1.606-.982-2.906.114-2.3.399.303 1.602-.29 2.609-1.383 1.711-1.89 4.509-1.473 5.994.936m-10.824 3.934c-.108 1.3-.911 1.795-2.61 1.784-1.4-.008-2.705.584-2.908 1.182-.509 1.397-4.91 1.47-5.7.066-.297-.602.207-1.3 1.21-1.693 1.001-.294 2.207-1.187 2.612-1.984 1.01-1.594 3.91-1.676 5.6-.066.994 1.106 1.095.907.504-.597-.492-1.303-.39-1.702.407-1.197.598.303.991 1.506.885 2.505m-9.74 6.44c-.002.4-.903.595-2.001.288-1.098-.306-2-.112-2.003.388-.007 1.2-4.706 1.072-5.499-.133-.296-.602.306-.998 1.306-.992 1.1.006 2.504-.685 3.21-1.48.906-1.095 1.606-1.191 3.1-.182.997.606 1.89 1.612 1.887 2.112m-10.21 1.538c.99 1.706.989 2.006-.211 2-.8-.006-1.698-.411-2.094-1.014-.297-.502-1.196-.707-1.998-.312-.802.295-1.5.09-1.497-.51.006-.999 1.612-1.99 3.513-2.078.6-.096 1.595.81 2.288 1.914"/><path d="M372.534 521.94c.398.303.998.306 1.4.009.303-.399.005-.7-.695-.705-.7-.004-1.002.294-.705.696M532.444 488.116c-2.504.685-2.504.685-2.577 12.585l-.073 12 34.997.513c19.299.318 39.2.24 44.301-.029l9.204-.644.076-12.4.076-12.4-41.7-.154c-23-.04-42.902.138-44.304.53m82.929 11.907-.064 10.5-6.203.362c-3.5.179-21.902.366-41.003.45l-34.8-.013-.071-4.8c-.073-4.501.002-16.8.102-16.8s18.601-.087 41.102-.15l41-.049z"/><path d="M540.314 492.964c-2.014 2.288-1.872 11.79.116 13.801 2.584 2.616 4.895.93 4.922-3.57.02-3.3-.375-4.102-2.57-4.915-2.993-1.219-2.678-3.617.42-3.198 2.397.415 2.804-.783 1.015-2.594-1.59-1.61-2.29-1.514-3.903.476m3.835 10.724c-.207 1.199-1.013 2.094-1.813 2.09-1.6-.01-2.483-2.816-1.568-5.21.914-2.295 3.798.423 3.381 3.12M550.919 492.33c-1.111 1.792-1.476 12.39-.388 14.297.593 1.104 1.79 1.711 3.091 1.519 2.002-.288 2.205-.887 2.445-7.285.023-3.9-.354-7.602-.85-8.306-1.29-1.507-3.39-1.62-4.298-.226m3.478 3.52c-.01 1.6-.615 2.497-1.515 2.491-1.5-.009-2.081-3.112-.774-4.304 1.309-1.393 2.304-.586 2.29 1.814m-.05 8.1c-.018 3.1-2.316 2.786-2.797-.417-.19-1.5.214-2.198 1.214-2.192 1.1.006 1.594.91 1.584 2.61M572.314 493.06c-2.115 2.587-1.872 11.889.314 14.102 1.79 1.711 1.89 1.712 3.804-.577 1.008-1.294 1.918-2.888 1.923-3.688.009-1.5-2.97-4.918-4.867-5.53-.698-.304-.892-1.205-.486-2.203.508-1.397.909-1.494 2.103-.487 1.294 1.008 1.494.91 1.203-.593-.484-2.603-2.281-3.014-3.994-1.024m3.452 8.021c.295.802.084 2.5-.623 3.696-1.113 2.094-1.113 2.094-1.998-.312-.884-2.605-.37-5.002 1.13-4.993.5.003 1.196.707 1.49 1.61M582.12 492.22c-1.106.993-.826 4.295.274 4.302.6.003 1.004-.694 1.01-1.594.005-.9.608-1.397 1.306-1.092.599.203.993 1.106.889 1.805-1.331 5.092-1.97 11.488-1.175 12.293 1.092 1.207 1.603-.49 2.245-7.386.318-2.998.838-6.295 1.245-7.293.608-1.396.21-1.699-2.19-1.713-1.6-.01-3.302.28-3.604.678M593.512 493.49c-2.83 5.082-.002 16.8 3.314 14.12.804-.695 1.719-3.09 2.134-5.487 1.041-6.794-3.02-13.219-5.448-8.634m3.29 1.72c1.378 3.508.336 10.402-1.564 10.39-.5-.003-.883-2.705-.863-6.005.035-5.7 1.148-7.793 2.427-4.385M560.37 500.387c-.004.5 1.593 1.01 3.493 1.021 1.9.012 3.503-.478 3.506-.978.004-.6-1.593-1.01-3.493-1.021-1.9-.012-3.503.378-3.506.978M444.444 569.68c-.404.598-2.513 2.185-4.622 3.572-2.208 1.387-3.918 2.976-3.721 3.477.196.602 3.884 2.624 8.272 4.551 7.879 3.548 7.879 3.548 11.79 1.772 9.826-4.34 8.838-6.246-6.623-12.74-4.588-1.929-4.288-1.927-5.096-.632m8.875 4.055c3.59 1.722 6.578 3.64 6.573 4.44-.004.7-1.812 2.089-4.018 3.075-3.81 1.677-4.01 1.676-8.698-.453-2.592-1.216-5.384-2.533-6.182-2.938-1.993-1.112-2.58-3.215-.88-3.205.7.004 2.405-.885 3.812-1.977 1.406-1.091 2.612-1.984 2.612-1.984.1 0 3.091 1.419 6.781 3.042M498.5 609.711c-2.802.383-2.802.383-2.875 12.283-.072 11.8-.072 11.8 3.225 12.42 4.395.827 85 .22 85.805-.676.403-.398.436-5.897.075-12.2l-.53-11.503-41.498-.354c-22.8-.239-42.7-.16-44.201.03m83.127 12.308-.064 10.5-37.7-.13c-39.7-.043-43-.063-45-.275-.999-.106-1.282-2.808-1.238-10.008l.06-10 5.303-.267c2.8-.183 21.702-.368 42.002-.344l36.701.024z"/><path d="M506.775 613.962c-2.209 1.386-3.268 11.08-1.585 13.79 1.882 3.012 3.683 2.923 5.402-.167 1.617-2.89.145-7.499-2.455-7.515-.8-.005-1.494-.909-1.487-2.009s.512-1.997 1.012-1.994c.6.004.997.506.993 1.206-.006.9.294.902 1.2.008 1.71-1.69-1.073-4.507-3.08-3.32m2.84 9.817c-.012 2-1.73 4.99-2.326 4.286-.199-.301-.69-1.704-1.08-3.306-.486-2.303-.284-2.702 1.416-2.692 1.2.008 1.996.712 1.99 1.712M516.872 614.424c-1.31 1.592-1.977 12.688-.888 14.494.99 1.606 4.09 1.525 5.4-.067 1.51-1.69.684-13.796-1.009-14.906s-2.294-1.014-3.503.479m2.78 3.217c-.008 1.4-.415 2.497-1.015 2.493-.5-.003-.993-1.106-.984-2.506.008-1.4.515-2.497 1.015-2.493.6.003.993 1.106.984 2.506m.455 7.502c-.008 1.3-.516 2.497-1.117 2.694-1.403.491-2.486-2.216-1.674-4.21.814-2.296 2.807-1.183 2.79 1.516M538.67 614.757c-1.914 2.288-1.774 12.19.213 14.301 1.59 1.51 1.79 1.511 3.3.02 1.207-1.192 1.62-3.29 1.545-7.39-.055-7.4-2.237-10.314-5.058-6.931m2.958 6.918c-.018 3-.435 5.797-1.037 6.094-.602.396-.99-1.706-.967-5.406.02-3.4.437-6.098 1.037-6.094s.986 2.406.967 5.406M548.375 614.016c-1.106.993-.826 4.295.274 4.302.6.003 1.003-.494 1.006-.994.004-.6.506-.997 1.106-.993 1.1.006.985 2.506-.767 10.895-.515 2.497-.42 3.298.583 2.904.701-.196 1.513-2.191 1.726-4.29.213-2.199.835-5.695 1.247-7.692.512-1.997.624-3.897.326-4.298-.795-.705-4.696-.63-5.5.166M559.668 615.285c-1.619 2.99-1.264 10.392.62 13.004 1.586 2.41 1.586 2.41 3.5.121 2.518-3.084 2.567-11.084.08-13.3-2.386-2.214-2.886-2.117-4.2.175m3.46 6.621c-.02 3-.531 4.997-1.233 5.193-1.002.394-1.293-1.108-1.268-5.208s.334-5.598 1.333-5.292c.698.304 1.186 2.307 1.167 5.307M525.625 622.177c-.003.5 1.794 1.011 3.994 1.025 2.2.013 4.003-.476 4.006-.976.003-.6-1.794-1.011-3.994-1.024s-4.002.375-4.006.975M539.514 656.763l.172 21.001-11.43 4.73c-6.315 2.562-16.04 6.502-21.553 8.669a995 995 0 0 0-16.04 6.502c-8.322 3.55-9.925 4.14-28.07 11.529a6636 6636 0 0 0-18.548 7.687c-1.404.591-3.409 1.379-4.512 1.872-16.138 6.302-19.556 9.18-19.6 16.48-.025 4 .468 5.104 4.245 8.827 3.081 3.119 5.772 4.735 10.164 6.062 3.294.92 6.987 2.143 8.284 2.65 1.297.509 3.394.921 4.694.93 1.3.007 3.592 1.321 5.082 3.03 3.18 3.32 5.373 4.333 13.363 6.082 2.995.718 6.89 1.742 8.586 2.253 2.495.915 3.596.722 5.804-.665 6.125-3.963 9.097-15.845 5.432-21.567-1.387-2.109-3.78-3.223-11.167-5.368-8.885-2.555-13.084-2.78-15.996-.698-2.11 1.587-7.211 1.756-10.403.336-1.795-.81-4.491-1.427-5.791-1.435-4.7-.029-1.685-2.41 7.838-6.152a983 983 0 0 0 25.465-10.645c2.206-.987 8.723-3.647 14.537-5.911 5.814-2.265 11.929-4.728 13.533-5.418 1.704-.69 16.542-6.899 33.085-13.798 36.795-15.375 36.494-15.277 39.606-17.258 1.406-.892 5.72-3.365 9.533-5.442 8.528-4.548 10.039-6.239 7.854-8.752-.894-.906-2.89-1.718-4.49-1.728-3.5-.021-24.54 6.65-35.369 11.284-8.121 3.45-10.927 4.434-11.324 3.931-.298-.302-.646-8.904-.882-19.306-.137-10.3-.783-19.205-1.28-19.708-.596-.603-.939 6.395-.822 19.996m51.266 5.713c.99 1.606-18.268 10.989-22.367 10.963-4.1-.025-8.095-.949-8.089-1.949.002-.3 4.813-2.07 10.825-3.934 5.911-1.864 11.223-3.731 11.725-4.128 1.004-.694 4.01-1.576 6.21-1.762.6.003 1.399.308 1.696.81m1.081 3.107c-.91 1.494-21.074 11.971-32.102 16.604-5.514 2.266-11.932 5.127-14.238 6.113-2.406 1.085-4.512 1.972-4.812 1.97-.2 0-2.806 1.083-5.714 2.366-2.908 1.282-9.826 4.24-15.34 6.506s-12.232 5.125-15.04 6.308c-2.706 1.184-6.616 2.76-8.521 3.548-1.904.689-3.91 1.677-4.513 2.173-.503.397-1.505.79-2.205.786s-5.611 1.766-11.025 4.033c-42.91 17.738-41.405 17.048-41.415 18.647-.006 1 4.583 2.829 9.278 3.657 4.296.726 5.388 1.933 3.676 3.923-.705.795-1.32 3.292-1.333 5.492-.23 4.698-.93 4.794-9.515 2.342-8.884-2.555-14.862-6.291-16.638-10.202-2.074-4.313-1.244-9.208 1.874-12.089 2.112-1.887 12.942-6.821 27.275-12.134 2.806-1.082 5.914-2.364 7.017-2.757 1.103-.493 3.61-1.578 5.514-2.366a692 692 0 0 0 8.121-3.45c2.508-1.185 7.02-3.058 10.026-4.14a354 354 0 0 0 8.421-3.448c1.705-.79 5.314-2.268 8.02-3.251 7.618-2.854 33.684-13.595 46.518-19.116 11.53-4.93 11.53-4.93 16.42-3.3 2.695.916 5.99 1.637 7.19 1.644 1.3.008 7.015-2.457 12.734-5.422 11.436-5.93 11.236-5.832 10.327-4.437m-117.55 73.383c3.793 1.123 3.793 1.123 1.377 3.708-3.624 3.978-4.846 7.57-4.886 14.07l-.036 5.8-6.588-1.84c-3.594-1.022-7.186-2.444-7.982-3.048-3.582-3.022.31-17.899 5.122-19.97 2.306-.885 6.903-.457 12.993 1.28m-18.317 2.688c-.607 1.096-1.827 4.389-2.645 7.284l-1.532 5.29.332-5.197c.217-2.8 1.239-6.393 2.147-7.787 2.019-2.988 3.317-2.68 1.698.41m-4.009 1.376c-1.005.893-1.105.793-.496-.603.306-.999.91-1.495 1.207-1.193s-.006 1.1-.71 1.796m32.202-.104c1.79 1.711 1.944 9.012.117 13.501-1.83 4.89-4.746 7.471-8.246 7.45-6.2-.038-5.613-14.135.827-20.795 2.114-2.187 5.114-2.27 7.302-.156m-34.64 6.489c-.403.297-.7-.004-.696-.704s.306-.999.704-.696a1.2 1.2 0 0 1-.009 1.4"/><path d="M476.365 746.379c-1.911 1.888-2.521 3.484-2.542 6.984-.03 4.9 1.248 8.508 3.148 8.52.6.003 2.407-1.286 3.918-2.977 3.12-3.18 3.846-7.576 1.976-12.388-1.18-3.307-3.38-3.32-6.5-.14m5.295.832c.389 1.902-.613 2.096-2.705.783-1.593-1.01-.479-3.403 1.218-2.792.698.204 1.293 1.108 1.487 2.009m.478 3.703c.497.403.689 1.804.48 3.103-.312 2.098-.814 2.395-3.712 2.077-1.9-.111-3.598-.422-3.796-.623-.2-.101.01-1.7.32-3.398.618-2.796.92-3.094 3.316-2.58 1.398.409 2.994 1.018 3.392 1.42m-2.85 7.983c-.302.498-1.305.992-2.105.987s-1.397-.509-1.394-1.009c.004-.6.906-.994 2.106-.987 1.1.007 1.698.41 1.394 1.009M633.382 662.336l-.077 12.5 44.8.074 44.702-.027.073-12 .073-12-44.697-.573-44.798-.474zm86.243-6.773c.085 2.4.156 7.2.134 10.8l.06 6.501-42-.256-41.999-.257-.237-10.201-.238-10.202 9.302-.243c5.1-.17 24.002-.254 42.103-.343h32.7z"/><path d="M643.53 654.298c-1.913 2.288-2.449 8.085-1.172 11.993 1.274 4.208 3.271 4.62 5.492 1.234 1.817-2.69.842-6.895-1.852-7.912-.897-.405-1.591-1.41-1.585-2.31.007-1.3.308-1.398 1.403-.491 1.89 1.612 3.203-.48 1.614-2.39s-2.388-1.915-3.9-.124m2.836 10.618c-.01 1.6-.418 2.997-1.018 2.993-.5-.003-.992-1.406-.982-3.006.01-1.7.518-2.997 1.018-2.994.6.004.992 1.307.982 3.007M654.43 654.465c-1.612 1.89-2.17 11.387-.884 13.794.593 1.104 1.79 1.711 3.09 1.52 2.002-.288 2.206-.887 2.444-7.186.352-8.498-1.527-11.81-4.65-8.128m2.979 3.518c-.01 1.6-.419 2.997-1.019 2.994-.5-.003-.991-1.406-.981-3.006.01-1.7.518-2.997 1.018-2.994.6.003.992 1.306.982 3.006m.648 8.404c-.405.897-1.11 1.593-1.71 1.59-1.5-.01-2.384-2.615-1.57-4.71.608-1.496.808-1.495 2.3-.086.894.905 1.285 2.408.98 3.206M677.435 653.805c-.786 13.996-.6 16.297 1.3 16.308 1.2.008 1.603-.49 1.21-1.592-.295-.902-.572-4.704-.548-8.504.023-3.9-.358-6.902-.958-6.906-.5-.003-1.002.294-1.004.694M688.336 653.672c-.004.6-.228 4.498-.254 8.698-.239 6.399.053 7.8 1.253 7.808 1.3.008 1.508-1.29 1.247-7.792-.174-4.202-.75-8.105-1.246-8.708-.597-.604-.897-.606-1-.006M698.025 655.43c-4.034 5.576-.014 18.601 4.02 13.226 1.713-2.29 1.669-11.39-.017-13.7-1.687-2.211-2.187-2.214-4.003.475m3.361 6.322c-.033 5.4-1.248 7.892-2.43 4.885-1.279-3.408-.127-11.901 1.566-10.79.499.302.883 2.905.864 5.905M663.384 662.02c-.003.5 1.794 1.01 3.994 1.024 2.2.013 4.003-.476 4.006-.976.004-.6-1.794-1.01-3.994-1.024s-4.002.375-4.006.975M677.192 693.504l-.1 16.5-7.622 3.454c-4.212 1.974-7.822 3.552-8.022 3.55-2-.012-15.544 7.206-16.354 8.8-2.123 3.788-4.231 5.075-8.43 5.05-2.9-.018-5.707.965-8.92 2.945-4.415 2.673-4.82 3.37-4.84 6.77-.023 3.7-.224 3.9-5.238 6.169-2.908 1.182-9.827 4.34-15.343 6.906-5.515 2.466-14.84 6.51-20.754 8.874-6.014 2.263-10.829 4.633-10.831 5.033-.003.5-.606.897-1.206.893-.7-.004-2.606 1.084-4.315 2.474-2.513 2.084-2.816 2.583-1.521 3.49.797.505 2.693 1.017 4.193 1.026 3.1.02 12.017-2.726 12.825-4.022.303-.398 6.623-3.66 14.044-7.114 33.095-15.498 30.19-14.516 34.07-11.492 1.394 1.109 3.089 2.019 3.789 2.023 2.1.013 9.624-4.041 11.037-6.032 1.009-1.494 2.611-1.885 7.211-1.856 6.1.037 6.5-.06 25.555-8.845 4.412-1.973 10.227-4.437 12.834-5.521 11.928-4.627 15.195-15.608 6.739-22.76-3.78-3.223-9.175-4.156-13.087-2.28-1.705.89-3.31 1.58-3.51 1.58-.1-.002-.255-7.203-.202-16.002.061-10-.302-16.003-.902-16.006s-1.037 6.094-1.1 16.393m10.905 15.667c-.006.9-25.786 13.843-27.386 13.833-.3-.002-3.61 1.778-7.524 3.954-7.627 4.354-9.53 4.842-8.513 2.148 1.218-2.992 3.126-4.18 16.563-10.299 24.067-10.853 26.873-11.836 26.86-9.636m8.082 2.95c4.77 4.929 3.621 12.822-2.19 14.587-2.704.783-4.61 1.671-24.764 10.448-2.707 1.184-6.217 2.763-8.021 3.452-3.61 1.578-10.311 1.837-10.302.337.003-.6.906-.995 2.106-.988 1.9.012 13.127-4.42 33.28-12.996 3.81-1.577 7.516-2.655 8.314-2.35s1.4.109 1.403-.391c.01-1.8-2.087-2.113-5.497-.634-15.641 6.805-34.187 14.192-37.291 14.873-4.405.873-6.118 2.962-3.427 4.379 4.086 2.325 6.19 1.738 22.436-5.763 2.607-1.184 5.012-2.07 5.21-1.768.3.201-4.716 2.77-11.034 5.632-10.328 4.637-11.93 5.028-16.228 4.501-4.396-.627-4.997-.43-7.714 2.353-1.71 1.69-3.32 3.08-3.72 3.078-.3-.002-.886-2.106-1.171-4.608-.28-3.401-1.267-5.408-3.751-8.023-2.087-2.113-2.877-3.817-2.274-4.314.503-.497 4.407-1.173 8.709-1.347 5.701-.265 8.606-.947 10.514-2.335 2.31-1.686 21.468-11.07 33.601-16.495 2.107-.988 4.115-2.375 4.42-3.174.914-2.294 4.21-1.574 7.39 1.546m-2.202 16.587c-.002.3-.203.498-.503.496-.3-.001-.499-.203-.497-.503s.203-.498.503-.497.5.204.497.504m-9.024 3.944c-.002.3-.203.5-.503.497-.3-.001-.499-.203-.497-.503s.203-.498.503-.497.499.203.497.503m-3.006.982c-.002.3-.203.499-.503.497s-.499-.203-.497-.503.203-.499.503-.497.499.203.497.503m-2.006.988c-.002.3-.203.499-.503.497s-.499-.203-.497-.503.203-.499.503-.497.499.203.497.503m-47.33 4.71c3.081 3.12 3.376 3.922 3.05 8.22-.224 3.898-.73 4.895-2.331 5.086-1.1.093-2.898-.418-3.993-1.225-1.891-1.411-1.891-1.411.42-3.297 2.01-1.688 2.214-2.187 1.226-4.093-.89-1.705-1.788-2.11-3.59-1.622-2.204.587-2.502.285-2.486-2.415.017-2.7.924-3.895 3.425-4.08.4-.097 2.39 1.515 4.28 3.427m-3.037 6.082c.393 1.203-.31 1.599-15.751 8.304-15.642 6.905-22.261 9.965-36.003 16.78-5.115 2.47-11.123 3.733-11.113 2.133.006-1.1 6.33-4.862 12.043-7.127 1.905-.688 6.316-2.561 9.826-4.14 3.409-1.479 6.417-2.76 6.617-2.76.4.003 18.15-8.089 27.176-12.434 5.115-2.368 6.616-2.56 7.205-.756"/><path d="M688.068 713.771c-1.905.889-9.928 4.64-17.851 8.391s-14.842 6.81-15.342 6.807-1.607 1.09-2.415 2.385c-.908 1.394-3.017 2.882-4.621 3.472-1.603.49-2.908 1.382-2.912 1.982-.007 1.1 3.798.323 4.606-.972.303-.498 2.505-.885 5.005-.87 3.1.02 7.008-1.156 13.024-3.92 4.714-2.171 8.825-3.946 9.025-3.945s2.706-1.083 5.614-2.365 6.417-2.661 7.82-3.053c3.606-1.078 5.014-2.37 5.029-4.87.012-2-1.672-4.61-2.872-4.617-.4-.002-2.205.787-4.11 1.575m5.483 2.834c-.008 1.3-3.219 3.08-13.545 7.417-7.42 3.155-15.14 6.408-17.246 7.395-2.006.988-5.11 1.569-7.008 1.357-2.898-.318-1.593-1.21 13.25-8.32 21.665-10.367 21.363-10.169 23.062-9.958.8.104 1.494 1.009 1.487 2.109M636.93 736.36c-.806.894-.81 1.494-.21 1.498 1.8.01 4.208-1.174 4.213-2.074.009-1.4-2.594-1.016-4.004.575M640.914 738.884c-.003.5.494 1.003.994 1.006.6.003 1.003-.494 1.006-.994.004-.6-.394-1.003-.994-1.006a1 1 0 0 0-1.006.994M640.198 741.58c-1.704.589-1.72 3.289-.02 3.3 1.4.008 3.712-1.978 3.719-3.178.005-.9-1.795-.911-3.7-.123M289.129 702.634l-.073 11.9 7.798.447c4.198.226 24.097.448 44.197.57l36.5.223.073-12 .073-12-44.197-.57-44.298-.47zm85.995 1.125-.064 10.5-41.198-.452-41.298-.552-.237-10.301-.238-10.202 41.6.254 41.499.254z"/><path d="M299.162 697.295c-3.049 7.982 1.687 18.41 5.133 11.032 1.418-2.992-.255-7.502-2.755-7.517-.9-.006-1.395-.709-1.189-1.808.206-.998 1.11-1.593 2.209-1.386 2.297.414 1.613-2.19-.684-2.604-1.099-.207-2.104.587-2.714 2.283m3.947 8.624c-.023 3.8-2.421 3.486-2.797-.417-.189-1.9.116-2.699 1.216-2.692s1.594 1.01 1.581 3.11M309.772 695.66c-.304.598-.517 2.797-.43 4.897-.013 2.2-.127 4.4-.43 4.898-1.11 1.693 1.067 5.407 3.167 5.42 2.8.016 3.82-3.277 3.161-9.982-.472-4.603-.866-5.505-2.764-5.817-1.1-.206-2.401.086-2.704.584m3.38 3.22c-.02 3.2-1.424 3.992-2.409 1.486-.589-1.804.228-4.499 1.528-4.49.5.002.892 1.305.881 3.005m.366 5.603c.984 2.606.673 4.404-.827 4.395-2-.012-2.89-1.618-2.075-4.013.814-2.395 2.116-2.587 2.902-.382M331.16 697.59c-2.031 5.188-.581 13.397 2.319 13.415 2.2.013 3.62-3.178 3.648-7.978.045-7.3-3.933-10.924-5.966-5.436m3.77 4.924c-.44 6.597-2.247 7.786-2.61 1.584-.37-4.902.244-7.099 1.844-7.089.7.004.988 2.006.767 5.505M342.369 696.26c-1.61 1.59-1.673 11.99-.083 13.599 1.888 1.911 3.791 1.423 4.808-1.27 1.219-3.093-.254-7.503-2.454-7.516-.8-.005-1.495-.91-1.488-2.01.013-2.199 1.616-2.69 2.305-.785.195.701.794 1.005 1.196.607 1.106-.993-.177-3.8-1.777-3.81-.7-.005-1.803.488-2.507 1.184m3.542 9.52c-.424 3.898-2.826 4.184-2.803.384.013-2.1.52-3.097 1.62-3.09 1.1.006 1.394.808 1.183 2.707M352.867 696.623c-.405.798-.21 1.699.288 2.002.597.404.999.106 1.002-.394.004-.6.507-1.097 1.007-1.094 1.4.009 1.28 3.308-.23 4.799-.905.894-.707 1.296.49 1.803 1.895.712 2.276 3.914.57 4.904-.603.396-1.7-.11-2.394-1.115-.793-1.105-1.491-1.41-1.495-.71-.015 2.4 1.273 4.309 2.973 4.319 2.3.014 4.23-4.874 2.845-7.383-.494-.903-.685-2.404-.38-3.302 1.015-2.394-.267-5.302-2.367-5.315-1-.006-2.004.688-2.31 1.486M320.924 703.628c1.198.208 2.998.219 4 .025.901-.295-.098-.5-2.298-.414-2.2-.014-3.001.181-1.702.39M164.894 691.675c-1.006.894-1.041 23.094-.045 23.6.399.302 20.496.725 44.695 1.073l43.996.669.374-12.098.374-12.098-30.195-.784c-38.494-1.136-58.394-1.257-59.2-.362m74.084 2.752 12.2.075-.065 10.6-.065 10.7-14.696-.69c-8.198-.45-27.095-.866-41.995-.957l-27.3-.166.066-10.7.064-10.6 29.796.782c16.298.5 35.195.915 41.995.956"/><path d="M174.265 696.432c-.706.896-1.125 3.993-.948 7.795.264 5.901.362 6.302 2.762 6.317 4.1.025 4.947-7.77.955-8.995-.998-.406-1.891-1.511-1.885-2.611.013-2.1 1.616-2.59 2.305-.686.195.7.794 1.005 1.196.607 1.107-1.093-.177-3.801-1.777-3.81-.8-.006-2.003.587-2.608 1.383m3.341 9.62c-.008 1.3-.615 2.497-1.216 2.693-.902.295-1.297-.608-1.284-2.707.013-2.1.418-2.998 1.317-2.792.598.303 1.191 1.507 1.183 2.807M184.464 696.595c-.306.898-.318 2.898-.028 4.5.39 1.602.18 3.2-.32 3.498-1.707.99-1.126 4.093.962 6.006 1.99 1.812 2.09 1.812 4.302-.274 1.812-1.89 2.016-2.588 1.131-5.093-.59-1.504-.778-3.505-.374-4.203.405-.797.415-2.397-.077-3.7-.985-2.506-4.682-3.029-5.596-.734m4.387 2.126c.787 2.105-1.326 4.192-2.816 2.683-1.292-1.308-.474-4.303 1.126-4.293.6.004 1.296.708 1.69 1.61m-.251 8.399c-.017 2.7-2.224 3.886-3.11 1.581-.787-2.205.33-4.898 1.926-4.288.599.203 1.192 1.407 1.184 2.707M206.656 697.93c-2.119 3.087-1.665 10.69.82 13.105 2.186 2.314 3.697.523 4.634-5.471 1.247-7.793-2.223-12.614-5.454-7.634m3.465 5.721c-.033 5.5-1.249 7.993-2.43 4.986-.787-2.105-.746-8.905.16-9.7 1.61-1.69 2.3-.286 2.27 4.714M218.163 696.8c-1.712 2.09-2.458 9.486-1.177 12.693 1.279 3.408 3.478 3.622 5.597.435 1.817-2.69.647-7.597-1.853-7.612-2-.012-2.792-1.417-1.878-3.611.61-1.597.71-1.596 1.9.011.792 1.205 1.391 1.409 1.896.612.707-1.096-1.076-4.007-2.476-4.015-.4-.003-1.304.692-2.009 1.487m2.936 10.519c-.02 3.2-1.424 3.99-2.408 1.385-.984-2.706-.674-4.404.926-4.395q1.5.01 1.482 3.01M229.264 696.668c-.603.597-1.113 2.193-1.022 3.594-.016 2.6-.016 2.6 1.098.307.608-1.197 1.514-2.191 2.014-2.188 1.4.009.876 3.905-1.247 7.693-2.833 5.382-2.64 6.484 1.263 6.107 2.4-.185 3.304-.78 3.515-2.578.414-2.298-1.28-3.108-2.093-1.013-.205.699-.807.995-1.204.593-.398-.403.015-2.4 1.026-4.294 1.824-3.89 1.448-7.891-.846-8.806-.698-.304-1.9-.011-2.504.585M240.237 701.135c-.716 2.696-1.638 6.29-2.149 7.987-.615 2.597-.52 3.297.58 3.304.8.005 1.406-.992 1.416-2.591.012-1.9.415-2.498 1.813-2.19 1.099.307 1.593 1.21 1.485 2.61-.21 1.598.286 2.201 1.686 2.21 1.6.01 1.903-.388 1.211-1.793-.494-.903-1.472-4.509-2.151-8.013-.68-3.404-1.562-6.21-1.962-6.212s-1.313 2.092-1.929 4.688m2.387 2.215c.297.502.092 1.2-.51 1.597-.502.297-1-.106-.994-.906.01-1.8.612-2.097 1.504-.691M195.118 704.16c-.003.5 1.394 1.008 2.994 1.018 1.7.01 3.003-.482 3.006-.982.003-.6-1.294-1.008-2.994-1.018-1.6-.01-3.002.382-3.006.982M329.966 729.484c-.064 10.5-.27 11.499-1.87 11.489-1.1-.007-2.695-.917-3.688-2.023-1.887-2.111-5.484-2.733-5.494-1.033-.003.5-2.206.986-5.006.969-3.7-.023-4.997-.43-4.991-1.43.014-2.4-1.783-2.811-5.791-1.536-4.208 1.274-8.228 4.55-8.24 6.55-.008 1.3-3.82 3.277-21.368 11.07-2.708 1.183-5.612 1.965-6.51 1.56-1.596-.61-14.23 5.013-14.24 6.413-.005.9-4.518 3.072-20.561 10.075-9.325 4.043-11.83 4.727-17.23 4.694l-6.3-.038.174-28.4c.122-19.9-.124-28.7-.921-29.206-.797-.505-1.044 7.194-.874 28.495l.222 29.102-3.807 1.177c-5.11 1.469-9.134 5.444-8.45 8.249.488 1.803-.116 2.399-3.522 3.478-5.912 1.964-8.933 5.346-8.963 10.246-.019 3.1.572 4.503 2.661 6.316 2.288 2.014 2.888 2.118 4.595.928 1.004-.694 3.018-2.882 4.33-4.874 3.228-4.58 5.635-5.765 10.03-4.938s4.888 2.03 2.96 6.518c-.812 1.995-1.228 4.592-.936 5.894.488 2.003.987 2.206 5.59 1.634 7.306-.955 10.519-2.935 12.75-8.022 1.826-4.289 2.228-4.586 19.578-12.78 10.03-4.84 19.052-8.484 20.652-8.474 3.5.02 12.827-4.422 13.64-6.517.305-.798 2.414-2.286 4.72-3.272 23.063-10.259 21.962-9.966 30.462-9.914 9.1.056 16.812-1.997 19.53-5.08 2.217-2.587 2.468-10.986.28-12.799-1.195-1.007-1.478-3.809-1.418-13.609.047-7.6-.324-12.402-.924-12.406-.6-.003-1.027 4.494-1.07 11.494m-23.06 9.86c-.035 5.6 8.756 7.153 11.187 2.068 1.723-3.79 6.816-2.659 6.79 1.541-.016 2.6-7.536 5.954-13.336 5.919-6.5-.04-10.208 1.237-27.154 8.734-7.52 3.354-9.322 3.643-11.81 1.628-1.891-1.412-2.378-3.615-.878-3.605.5.003 3.808-1.277 7.318-2.856s8.423-3.748 11.03-4.933c3.008-1.281 5.32-3.167 6.33-5.06 1.62-3.091 5.737-5.866 8.837-5.947 1.2.007 1.695.81 1.685 2.51m9.484 2.557c-.303.498-2.206.987-4.106.975-1.9-.011-3.397-.52-3.394-1.02.003-.6 1.806-.99 4.106-.976 2.4.015 3.797.424 3.394 1.021m16.177 3.7c1.189 1.906 1.382 3.008.575 4.203-1.818 2.889-7.733 5.353-13.835 5.715l-6.003.464 4.311-1.874c5.715-2.365 8.229-4.65 8.246-7.45.008-1.3.316-2.698.718-2.995 1.41-1.492 4.304-.574 5.988 1.936m-9.22 3.443c-.915 2.294-6.226 4.062-12.928 4.321-7.501.254-17.017 2.796-24.84 6.548-3.21 1.48-6.617 2.76-7.616 2.654-1.8-.011-1.7-.11 8.828-4.646 14.94-6.51 16.243-6.901 24.146-7.353 3.6-.178 7.806-1.052 9.512-1.942 3.21-1.68 3.71-1.577 2.897.418m9.867 5.36c-1.422 3.492-5.73 4.865-17.434 5.494-10.404.536-12.206.925-19.026 4.084-10.129 4.738-15.04 6.708-16.64 6.698-3-.018-1.09-1.707 5.428-4.667 22.363-10.363 19.959-9.578 29.757-9.318 7.1.143 9.701-.14 12.51-1.624 4.314-2.273 6.116-2.462 5.405-.667m-27.91 1.43c-.303.498-1.106.993-1.606.99-.6-.004-6.415 2.46-13.133 5.42s-12.532 5.123-12.93 4.821c-1.594-1.01-.888-1.905 2.42-3.285 1.705-.79 5.014-2.17 7.22-3.156 5.013-2.17 15.635-5.705 17.335-5.794.7.004.998.406.694 1.004m-34.72 3.288c3.087 2.119 4.178 3.625 5.547 8.634 2.059 6.713 1.957 7.012-5.163 10.368-4.915 2.37-6.313 1.962-6.29-1.838-.071-4.6-2.94-9.818-6.625-12.24-1.793-1.112-3.186-2.22-3.184-2.52-.096-.8 8.33-4.85 10.23-4.838.9-.094 3.393 1.021 5.485 2.434m-13.34 6.418c5.977 3.737 5.372 4.633-6.361 10.062-5.917 2.664-12.436 5.724-14.442 6.812-2.207 1.086-4.01 1.475-4.306.873-.495-.803 19.266-10.782 21.366-10.77.9.006 5.924-3.863 5.225-3.968-.7-.004-22.36 9.764-25.772 11.643-1.605.89-2.313 2.186-2.325 4.086-.022 3.6-3.336 5.88-9.641 6.741-4.704.572-4.704.572-4.18-3.425.834-5.395-.455-7.303-4.755-7.33-3.2-.019-3.602.379-5.426 4.368-1.015 2.393-2.33 4.685-2.83 4.982-1.808 1.09-7.184-2.744-7.17-5.044.035-5.7 19.553-8.68 26.826-4.236 3.686 2.323 4.185 2.426 4.194 1.026.004-.6-1.19-1.507-2.687-2.117-2.793-1.117-2.693-1.216 4.227-4.474 3.811-1.777 9.526-4.242 12.534-5.523 3.008-1.282 6.819-3.059 8.524-3.948 3.813-2.077 3.213-2.08 7 .242m5.448 8.534c-.005.9-1.112 1.993-2.515 2.485-1.403.49-4.411 1.773-6.818 2.858-2.306 1.086-7.72 3.453-12.133 5.426-8.323 3.75-9.626 4.141-9.616 2.541.006-1 27.59-14.632 29.89-14.717.601-.097 1.197.607 1.192 1.407m-.03 5c-.005.8-.61 1.496-1.41 1.491s-6.314 2.362-12.332 5.325c-5.918 2.864-12.939 6.221-15.546 7.405s-6.22 3.362-8.03 4.951c-4.222 3.574-8.335 5.65-13.24 6.42-3.704.677-3.803.576-3.19-1.62 2.04-6.388 2.043-7.088-.842-9.405-2.787-2.218-2.786-2.318-1.071-4.807 1.211-1.893 2.516-2.585 4.816-2.57 3.1.018 3.1.018 2.37 5.014-.731 4.995-.731 4.995 3.368 5.02 4.3.027 9.611-1.74 12.025-4.026.805-.795 5.018-2.87 9.229-4.644 4.211-1.874 10.73-4.834 14.54-6.611 7.624-3.754 9.326-4.143 9.313-1.943m-47.33 4.81c.195.702-1.107 1.094-3.607 1.079-3-.019-3.798-.324-3.392-1.421.71-1.696 6.409-1.36 6.998.343m-14.743 6.81c2.392 1.315 2.392 1.415.391 1.503-1.2-.007-2.695-.716-3.39-1.52-1.589-1.91-.289-1.902 3 .018m-4.7.072c.596.604-4.75 8.071-6.759 9.559-1.707 1.19-4.592-1.228-4.578-3.628.011-1.8 1.018-2.894 4.327-4.374 4.514-2.172 6.016-2.563 7.01-1.557m32.698.4c-.008 1.3-6.42 3.16-10.619 3.035-3.699-.123-3.599-.122 1.808-1.289 3.204-.68 6.11-1.463 6.412-1.86 1.005-.895 2.405-.886 2.4.114m-28.518 2.926c.297.501-.308 1.198-1.41 1.591-1.102.293-3.213 2.18-4.825 4.07-1.512 1.991-3.624 3.979-4.527 4.473-2.107 1.087-4.801.07-4.79-1.73.007-1.1.507-1.196 1.803-.488 2.193 1.213 2.896.718 7.129-4.657q4.837-6.12 6.62-3.26m7.096.643c1.99 1.512 1.289 1.808-2.306.886-1.297-.408-2.293-1.014-2.29-1.514.008-1.4 2.406-1.085 4.596.628m14.74 9.89c-.712 1.896-7.429 4.655-11.429 4.63-5.2-.031-2.882-2.917 2.318-2.985 1.201-.093 3.806-.877 5.712-1.866 4.012-1.975 4.312-1.973 3.399.221"/><path d="M297.866 745.688c-.004.7 4.381 3.127 5.481 3.134 1.7.01.01-1.7-2.483-2.716-1.597-.61-2.995-.818-2.998-.418M265.75 764.592c-1.407 1.092-2.012 1.988-1.412 1.992 1.3.008 7.417-2.855 7.422-3.555.006-1.1-3.8-.123-6.01 1.563M270.01 771.318c-1.806.89-3.313 1.98-3.316 2.48-.006.9 5.006-1.07 7.017-2.857 1.91-1.688.31-1.498-3.702.377M180.955 959.978c-.201.199-.434 5.497-.472 11.797-.073 12 .517 13.504 4.728 11.83 1.605-.79 1.605-.79.007-1.2-1.597-.41-1.789-1.812-1.735-10.611l.062-10.2 40.698.548c22.498.338 41.396.753 42.094.958.799.305 1.18 3.407 1.133 11.007l-.064 10.5-18.196-.612c-46.992-1.587-61.79-1.777-61.796-.877-.004.6 4.994 1.03 11.793 1.172 6.4.039 12.798.278 14.197.487 1.4.108 14.697.49 29.496.78l26.997.565.073-12c.073-11.9.073-11.9-3.423-12.621-3.795-.823-84.888-2.219-85.592-1.523"/><path d="M191.63 964.043c-.803.495-1.62 3.19-1.938 6.289-.326 4.198-.036 5.8 1.353 7.608 2.582 3.016 4.791 1.53 4.82-3.27.02-3.3-.97-4.807-3.764-5.824-.499-.203-.593-1.103-.287-2.102.61-1.596 1.01-1.593 2.303-.485 1.392 1.208 1.593 1.11 1.303-.493-.486-2.303-1.882-2.911-3.79-1.723m2.337 10.415c-.024 3.9-1.923 3.788-2.299-.214-.285-2.402.02-3.2 1.018-2.894.698.304 1.29 1.708 1.28 3.108M202.226 964.708c-2.012 1.988-2.179 12.987-.189 14.6 3.682 3.022 6.426-4.162 4.878-12.671-.483-2.803-2.878-3.718-4.689-1.929m3.278 3.62c-.006 1-.711 1.896-1.511 1.89-1.5-.008-2.081-3.112-.874-4.305 1.106-.993 2.398.315 2.385 2.415m-.042 6.9c-.021 3.5-2.525 4.185-3.506.979-.785-2.405.125-4 2.125-3.988.9.006 1.393 1.109 1.381 3.009M223.413 967.037c-1.32 3.292-.668 10.997.923 12.606.795.805 1.594.91 2.899.118 2.108-1.387 3.072-11.781 1.185-13.993-1.786-2.21-3.89-1.724-5.007 1.27m4.064 5.925c-.025 4-.434 5.498-1.232 5.193-1.397-.509-2.251-8.014-1.336-10.508 1.218-2.993 2.6.016 2.568 5.315M233.517 966.4c-.014 2.2 1.583 2.709 2.295.713.204-.599.806-.895 1.203-.492.398.402.179 3.5-.441 6.797-.72 3.296-.94 6.594-.544 7.197s1.31-1.692 2.032-5.288c.822-3.495 1.645-7.39 1.953-8.688.513-1.997.214-2.199-2.986-2.218-2.8-.017-3.503.378-3.512 1.978M244.913 966.969c-.408 1.397-.317 2.898-.02 3.3.398.302.903-.395 1.31-1.592.307-1.198.913-2.195 1.413-2.192 1.6.01.97 5.006-1.155 8.993-1.113 2.194-2.025 4.188-2.027 4.488s1.597.51 3.497.522c2.8.017 3.502-.38 3.512-1.98.014-2.199-1.583-2.709-2.295-.813-.204.699-.806.995-1.203.493-.498-.403-.29-1.702.318-2.999 2.936-5.882 2.566-10.684-.734-10.704-1.3-.008-2.206.886-2.616 2.484M211.48 972.265c-.003.5 1.594 1.01 3.594 1.022 2.1.012 3.303-.38 2.906-.983-.296-.601-1.894-1.011-3.593-1.022-1.6-.01-2.903.383-2.907.983M225.186 987.849c-.202.298-.382 13.398-.179 29.2l.224 28.801-3.308 1.38c-1.905.788-9.025 4.045-15.945 7.203-6.92 3.257-14.541 6.81-17.048 7.896-20.154 8.777-24.574 12.05-19.992 14.978 1.295.808 3.298.32 8.313-2.05 3.71-1.777 7.02-3.157 7.32-3.155.6.004 2.003-.588 21.86-9.866a6300 6300 0 0 0 20.56-9.675c5.214-2.368 20.058-9.478 32.895-15.6 12.838-6.221 23.87-11.254 24.47-11.25s2.492 1.215 4.283 2.726c9.152 7.856 10.448 8.564 12.758 6.878.904-.594 1.71-1.69 1.714-2.29s-4.074-4.324-9.05-8.255c-6.568-5.14-9.657-6.959-11.06-6.468-1.002.294-6.317 2.662-11.633 5.33-26.98 13.135-41.322 19.747-42.722 19.739-1.4-.009-1.58-3.11-1.432-27.41.148-24.299-.218-29.801-2.028-28.112m66.076 36.804c6.768 5.241 10.047 8.662 9.142 9.556-.705.696-4.093-1.125-6.679-3.54-.994-1.007-3.581-3.023-5.573-4.435-3.684-2.622-3.684-2.622-14.615 2.41-10.93 5.034-12.335 5.726-19.96 9.68a846 846 0 0 1-14.04 6.713c-5.516 2.467-16.347 7.6-24.07 11.254-12.837 6.121-16.247 7.7-28.079 12.828-2.206.987-6.116 2.663-8.723 3.847-5.415 2.367-7.817 2.652-7.805.752.004-.7 4.22-3.274 9.335-5.643 5.014-2.269 14.842-6.91 21.762-10.167 6.92-3.258 17.45-8.093 23.466-10.757s21.362-9.97 34.1-16.192c12.638-6.223 23.569-11.256 24.269-11.252.6.004 3.987 2.225 7.47 4.946m-121.714 51.057c-.402.298-.7-.004-.696-.704s.306-.998.704-.696a1.2 1.2 0 0 1-.008 1.4"/></svg>