<svg xmlns="http://www.w3.org/2000/svg" viewBox="0 0 992 1402" fill="currentColor"><path d="M287.5 302.9c-.6.5-5.4 3.3-10.8 6.1-10.6 5.7-10.1 5-16 19.8-2.3 5.5-2.4 6.7-1.4 9.5 2.6 7.2 7 12.5 14.8 17.7 4.3 2.9 8.7 6.2 9.7 7.4 1.3 1.5 2.5 6.3 4.1 16.6 1.3 8 2.8 15.2 3.4 16 2 2.6 6.5 5 9.3 5 3 0 9.3-3.5 9.5-5.3.4-4.2-1.6-37.7-2.7-45l-.6-3.7h14.3c7.8 0 13.9-.3 13.5-.8-.4-.4-4.2-.7-8.4-.7-4.3-.1-10.5-.2-13.9-.3-6.3-.2-6.3-.2-6.3-5.5 0-2.8.7-7.4 1.5-10.1 1.5-5 1.5-5-2.2-10.5-4.2-6.5-14.1-17.1-15.8-17.1-.6 0-1.5.4-2 .9m6.2 3.7c1.4 1.4 2.4 2.7 2.2 2.8-.2.2-4 2.2-8.4 4.6-4.4 2.3-8.4 4.7-9 5.1-1.7 1.6-5.1.9-7.4-1.4-1.9-2.1-2-2.6-.7-3.6 2.3-1.9 17.9-10 19.4-10.1.7 0 2.4 1.2 3.9 2.6m7.6 9.2c5.7 8 5.7 8.1 4.1 15.8-1.1 5.3-1.2 8.5-.5 13.9.9 6.4 2 19.3 3.6 41 .3 4.4.2 8.5-.2 9.1-1.1 1.5-6.8 4.4-8.8 4.4-1.9 0-2.2-.8-3.5-9-3.6-23.4-2.8-21.4-11.5-29.3-4.3-4-8.3-7.2-8.9-7.2-2.7 0-9.6-6-12-10.5-1.5-2.7-2.6-5.2-2.5-5.7.1-.4-.1-1.6-.6-2.6-.7-1.8 5.5-17.9 7.2-18.4.4-.1 2.1.8 3.7 2.1l2.9 2.4-3.3 8.4c-3.9 9.9-4.4 10.5-6.5 8.8-3.1-2.6-2.2-.4 1.6 3.9 2.1 2.4 3.9 3.9 3.9 3.4s-.5-1.4-1.2-2.1c-1.3-1.3-.4-4.7 2.8-12 .9-1.8 2.1-4.9 2.7-6.8 1.1-3 2.6-4.2 11.2-8.9 5.5-2.9 10.5-5.4 11.2-5.4.6-.1 2.7 2.1 4.6 4.7m-8.9 62.2c2.8 16.5 3 19.1 1.3 18.4-.9-.3-1.8-2.4-2.2-4.7s-1.3-7.4-2-11.2c-.7-3.9-1.6-8.8-1.9-10.9-.5-3.9-.5-4 1.4-2 1.3 1.3 2.4 4.8 3.4 10.4"/><path d="M288 318.6c-3.6 2-7.2 4.3-8.1 5.2-1.7 1.8-6.9 14.3-6.9 16.5 0 .6 4.8 6.1 10.7 12.2 11.8 12.2 10.8 9.7 14.3 32.5 1.4 8.9 1.9 10 4 10 3.4 0 5.2-2.9 4.6-7.4-.3-2.3-.8-9.6-1.2-16.4-.4-6.7-1.1-12.5-1.6-12.8-.7-.4-.8 1.1-.5 4.2 1.5 12.2 1.9 26.9.8 25.8-.7-.6-1.6-6-2.1-12-1.6-17.7-4.9-30-9.1-34-2.7-2.5-2.7-2.5.5-10.5 2.8-7.2 3.3-7.9 5.6-7.7 2.3.3 2.5.7 2.2 4.3-.8 11.1-.6 20.5.4 21.5.8.8 1-.8.6-5.9-.3-4 .1-9.7.8-13.1 1.3-6 1.3-6-2.1-11-1.9-2.7-4.1-4.9-4.9-4.9s-4.4 1.6-8 3.5m11.1 1.2c1.8 2.7 1.8 3.2.5 3.2-1.5 0-5.6-3.7-5.6-5 0-1.1 1.3-2.1 2.2-1.8.5.2 1.8 1.8 2.9 3.6m-4.9.7c.9 2.1.6 3.8-2.1 10.8-3 7.8-3.6 8.5-7.7 10.5-5.4 2.7-6.6 2.7-8.8.3-1.5-1.7-1.4-2.3 1.7-9.7 3-7.3 3.6-8.1 8.7-11 6.8-4 6.8-4 8.2-.9m-2.3 22.9c.9 1.1.3 1.9-3.5 4-4.4 2.5-4.8 2.5-6.6.9-2-1.8-1.6-2.7 2.4-4.8 3.1-1.8 6.3-1.8 7.7-.1m4.5 9.3c2 6.4 2 8.2.2 8.9-1.4.5-10.3-7.3-10.8-9.6-.3-1.2 7.4-6 8.3-5.1.3.3 1.4 2.9 2.3 5.8m3 13c1.1 7.7 1.8 21.8 1 21-1-.9-4.5-22.8-3.8-23.9 1.1-1.8 2.3-.6 2.8 2.9m4.5 27c-1.6 1.8-2.7 1.6-3.4-.7-1-3.1.4-4.4 2.6-2.4 1.4 1.3 1.6 2 .8 3.1M273.5 352c1 1.1 2 1.8 2.3 1.5.7-.6-1.8-3.5-3.1-3.5-.5 0-.2.9.8 2M346.3 333.8l-10.1.3.1 11.9.1 12H426v-25.1l-34.7.3c-19.2.2-39.4.4-45 .6m77 1.1c.4.1.7 4.8.7 10.5v10.4l-41.7.4c-23 .2-41.9.4-42 .4-.1-.1-.3-4.8-.4-10.6l-.3-10.5 27.5-.5c23.2-.4 53.5-.5 56.2-.1"/><path d="M347.2 338.2c-1.8 1.8-1.5 13.3.3 14.8 2.2 1.9 4.5-.5 4.5-4.6 0-2.8-.5-3.6-2.5-4.4-2.4-.9-3.2-2.9-1.8-4.3.3-.4 1.2-.2 1.9.4.8.6 1.4.7 1.8 0 1-1.6-2.9-3.2-4.2-1.9m2.8 10.4c0 2.4-.4 3.4-1.2 3.2-2.4-.8-2.2-6.8.2-6.8.5 0 1 1.6 1 3.6M357.2 338.2c-.6.7-.9 4.2-.9 7.7.2 4.8.6 6.6 1.9 7.5 2.1 1.3 4.9-1 4.8-4-.3-9.8-1-12.4-3.4-12.4-.8 0-1.8.6-2.4 1.2m3.8 3.3c0 1.6-.6 2.5-1.5 2.5s-1.5-.9-1.5-2.5.6-2.5 1.5-2.5 1.5.9 1.5 2.5m.2 6.2c.7 2.5-.1 4.3-1.8 4.3-.9 0-1.4-1.1-1.4-3 0-3.3 2.4-4.2 3.2-1.3M379 338.9c-2.3 4.5-.6 14.1 2.5 14.1 5 0 4.3-15.9-.7-16-.4 0-1.2.9-1.8 1.9m3.8 7c-.2 2.8-.7 5.2-1.3 5.4-1.1.2-1.9-8.7-1-11.1 1.1-3.1 2.6.5 2.3 5.7M389.7 337.7c-.4.3-.7 1.6-.7 2.7.1 1.9.2 1.9 1.1.3 1.6-2.6 4.3-2.2 3.4.5-1.3 3.8-1.8 12.1-.8 11.5.6-.4 1.3-3.3 1.6-6.5.4-3.2.9-6.6 1.3-7.5.5-1.4 0-1.7-2.3-1.7-1.6 0-3.3.3-3.6.7M402.9 337.5c0 .6-.1 4.3-.2 8.2-.2 5.9.1 7.3 1.3 7.3s1.4-1.3 1.2-7.2c-.2-4-.8-7.7-1.3-8.3-.6-.6-.9-.6-1 0M367.5 346c.3.5 1.7 1 3 1s2.7-.5 3-1c.4-.6-.8-1-3-1s-3.4.4-3 1M458 461.8c0 7.1.4 12.3 1 12.7s20.8.9 45 1.2l44 .6v-12.1c0-6.6-.3-12.3-.7-12.5-.5-.3-20.7-.8-45-1.2l-44.3-.7zm59.3-9.1 27.7.6v21l-42.2-.6c-23.3-.4-42.4-.7-42.5-.7-.2 0-.3-4.7-.3-10.5V452h14.8c8.1 0 27.2.3 42.5.7"/><path d="M468.7 454.7c-1.1 1.1-.8 2.5.4 1.7.6-.3 1.5 0 2 .7 1.1 1.8 2.1.6 1.3-1.5-.6-1.6-2.5-2.1-3.7-.9M479.2 455.2c-.5.7-1 4.3-1 8-.1 7.1 1.1 8.8 4.8 6.8 1.6-.9 1.9-2 1.6-7.3-.1-3.5-.6-6.9-1-7.5-.9-1.6-3.1-1.5-4.4 0m3.3 3.3c0 1-.6 2-1.2 2.2-.8.3-1.3-.5-1.3-2.2s.5-2.5 1.3-2.3c.6.3 1.2 1.3 1.2 2.3m0 7.5c0 1.3-.5 2.5-1.2 2.7-1.3.5-2.7-3.2-1.8-4.7 1.1-1.8 3-.5 3 2M501.2 455.2c-.7.7-1.2 3.9-1.2 7.4 0 6.4 1.4 9 4.3 7.9 3.1-1.3 2.5-9.5-.8-9.5-1 0-1.5-.9-1.5-2.6 0-2.3.2-2.5 1.5-1.4 2 1.7 3.2.5 1.5-1.5-1.5-1.8-2.2-1.9-3.8-.3m2.8 10.3c0 1.9-.4 3.5-1 3.5-.5 0-1-1.6-1-3.5s.5-3.5 1-3.5c.6 0 1 1.6 1 3.5M511.5 456.3c-1.7 2.5-2 9.9-.5 12.8 2.4 4.3 6.7.3 5.5-5.2-.5-2-1.3-2.9-2.6-2.9-1.2 0-1.9-.7-1.9-1.8 0-2.8 1.1-3.4 2.6-1.4 1.2 1.6 1.3 1.5 1.4-.4 0-3.1-2.6-3.7-4.5-1.1m3.3 9.8c-.1 1.3-.7 2.3-1.3 2.2-1.3-.3-1.8-3-1.1-5 1-2.4 2.9-.1 2.4 2.8M521.6 457.2c-.9 3.6-.7 9.7.4 11.9 3.5 6.5 8.1-4.4 4.8-11.6-1.4-3.1-4.4-3.3-5.2-.3m4.2 6.4c-.2 2.7-.7 4.9-1.3 4.9-1.1 0-1.9-7.9-1-10.3 1.1-3 2.6.5 2.3 5.4M533.1 461.2c-.7 3.5-1.4 7.1-1.7 8-.3 1-.1 1.8.5 1.8s1.1-1.1 1.1-2.5c0-1.8.5-2.5 2-2.5 1.4 0 2 .7 2 2.3 0 2.6.9 3.9 2.1 3.2.4-.3.3-2.2-.2-4.3-2.7-10.4-3.2-12.2-3.9-12.2-.4 0-1.3 2.8-1.9 6.2m2.9 1.4c0 .8-.4 1.4-1 1.4-.5 0-1-.9-1-2.1 0-1.1.5-1.7 1-1.4.6.3 1 1.3 1 2.1M467.1 462.7c-.1 7.8 3.7 10.7 6 4.6 1.1-2.9-1.1-7.3-3.5-7.3-.8 0-1.7-.6-1.9-1.3-.3-.6-.6 1.1-.6 4m4.9 2.3q0 3-1.5 3c-1.8 0-3-2.4-2.1-4.5 1-2.8 3.6-1.7 3.6 1.5M489 463c0 .5 1.6 1 3.5 1s3.5-.5 3.5-1c0-.6-1.6-1-3.5-1s-3.5.4-3.5 1M502 486.5v9.6l-164.2-.1-164.3-.1.3 193.3c.2 106.3.5 199.6.7 207.3s.6 81.3.9 163.5c.4 82.2.9 156.8 1.2 165.7l.6 16.1 4.2.6c6.6.9 363.3-.6 440.6-1.9 16.2-.3 68.7-.7 116.5-1 47.9-.3 89-.8 91.4-1.1l4.4-.6-.6-79.1c-.4-43.6-.9-94.3-1.2-112.7s-.7-61.9-1-96.5c-.3-34.7-.7-85.3-1-112.5s-.7-92.5-1-145-.8-118.8-1.2-147.3l-.6-51.7-62.1.5c-34.2.3-73.1.7-86.6 1s-58.4.8-99.7 1.2l-75.3.6v-9.1c0-5-.4-9.4-1-9.7-.6-.4-1 2.8-1 9m324 23.7c.1 8.4.3 19.3.5 24.3.2 4.9.6 63 .9 129 .7 136.7 2.4 340.1 3.5 407.5.4 25 .8 72.6.9 105.8l.3 60.2-38.8.2c-21.3.1-41.9.3-45.8.4-3.8.1-56.3.5-116.5.9s-126.8 1.1-148 1.4c-21.2.4-98.2.8-171.3.9-107 .2-132.8 0-133.1-1-.3-.7-.7-68.1-1-149.8-.4-81.7-.8-155-1.1-163-.5-15.1-1.9-282.8-2-376v-53.5l225-.3c123.8-.1 256.5-.6 295-1s83.8-.9 100.8-1l30.7-.3z"/><path d="M441.5 571c-14.8 8.1-21.5 11.2-31 14.5-12.4 4.2-42.5 19.3-50 24.9-12.2 9.2-28.3 17.6-33.7 17.6-1.1 0-3.9.8-6.2 1.9-2.3 1-6.6 2.4-9.6 3.1-11.9 2.7-43.5 12.7-49 15.5-1.5.8-3.3 2.8-4 4.5-1.5 3.6-.8 13.3 1.1 15.6.7.9 5.1 3.4 9.8 5.6s19.9 9.5 33.6 16.3c42.9 21 40.5 20.4 55.2 13.1 6.9-3.4 22.7-11 42.8-20.6 6.1-2.9 17.3-8.3 25-12s17.1-8.2 20.9-9.9c8-3.6 7.5-3.8 12.6 6.5 3 6.2 3 6.2 14.2 10.7 10 4 11.5 4.3 13.3 3.1 1.1-.8 2.7-1.4 3.7-1.4s2.7-.9 3.9-2.1c1.9-1.9 1.9-2.2.5-3.8-.9-.9-5.2-3.2-9.6-5.1-8.1-3.3-8.1-3.3-11.6-10.5-1.8-4-3.4-7.7-3.4-8.3 0-.5 2.2-1.9 4.9-3.1 2.7-1.1 18.2-8.6 34.5-16.6s29.8-14.5 30.1-14.5c.2 0 2.8-1.4 5.6-3.1 5-2.9 5.9-3.1 19.6-3.6 8.3-.4 14.3-1 14.3-1.6s-5.2-.8-14.2-.5c-12.9.5-14.4.4-15.9-1.3-.8-1-7.4-3.7-14.5-6s-19.6-6.3-27.7-9c-8.2-2.7-15.5-4.9-16.2-4.9-.8 0-3.5-3-6.1-6.8-6.2-8.7-5.6-8.2-9.5-9.2-1.9-.5-7-1.8-11.4-2.9-4.4-1.2-8.7-2.1-9.5-2.1s-6.4 2.7-12.5 6m23.2-2.1c13.8 3.5 13.3 3.2 17.6 10.2 4 6.6 6 10 11.6 20.2 3.4 6.1 3.7 10.3 1.1 11.9-1.6.9-21 10-29.5 13.8-2.7 1.2-8.3 3.8-12.3 5.7-4.1 1.9-7.6 3.2-7.9 2.9-.9-.9-.8-.9 10.7-6.1 5.8-2.6 13.7-6.2 17.5-7.9 3.9-1.8 10-4.5 13.7-6.1 8.5-3.8 9.3-5.5 6.1-12-1.4-2.7-3.3-6-4.3-7.5-.9-1.4-4.1-6.2-7-10.7-2.8-4.5-5.8-8.7-6.5-9.3-1.6-1.4-19.5-6.3-20.2-5.6-.3.3.8.8 2.3 1.1 1.6.4 4 1 5.4 1.5 1.4.4 4.6 1.4 7.2 2 4 1.1 5.2 2 8.2 6.6 7.4 11.2 15.7 25.8 15.4 27.3s-9.3 6.5-22.3 12.3c-3.3 1.5-8.5 3.8-11.5 5.1-3 1.4-10.2 4.6-16 7.1-5.8 2.6-11.4 5.2-12.5 5.8-3.3 1.9-6.6 3.5-14.5 6.9-4.1 1.7-12.6 5.6-18.8 8.5-6.3 3-11.6 5.4-11.9 5.4-.2 0-5.3 2.3-11.1 5.2-12 5.8-15 6.2-29.7 4-4.4-.7-11.1-1.7-15-2.3-3.8-.5-9.5-1.4-12.5-1.9s-9.1-1.4-13.5-2c-15.5-2.2-20.7-3.1-22.3-4-4-2.3-15.6-7-16-6.6-.8.8 16.1 8.4 21.1 9.6 2.6.5 11.4 1.9 19.5 3s17.6 2.4 21.2 3c16.7 2.6 27.7 4 31.2 4 2.4 0 7.1-1.5 12.4-4 4.7-2.2 8.8-4 9-4s4.1-1.8 8.6-3.9c24.1-11.4 35-16.2 36.1-15.8.7.3-1.7 1.8-5.3 3.5-3.6 1.6-17.7 8.2-31.4 14.6-17.3 8-26 11.6-28.5 11.6-3.2 0-12.8-1.2-31.6-4-3.3-.4-11.2-1.6-17.5-2.4-21.5-3-31.1-4.9-33.5-6.7-2.6-1.9-14.5-6.7-14.5-5.9 0 .6.7 1 1.5 1 1.1 0 1.5 1.2 1.5 5 0 3.7-.4 5-1.4 5-.8 0-1.8.4-2.1 1-.4.6.5.8 2.2.4 1.9-.4 4.9.4 9.3 2.4 3.6 1.6 8.8 4 11.5 5.2 10.9 5 17.5 8 29 13.5 6.6 3.1 14.8 7 18.2 8.6 3.4 1.5 6.6 3.6 7.1 4.6.6 1 1.4 1.5 1.8 1.1 1.3-1.4-2-4-9.1-7.3-3.8-1.8-13.1-6.2-20.5-9.8-14.7-7.1-23.1-10.9-35.7-16.5-8-3.4-8.3-3.6-8.3-6.9 0-4 .9-4.1 7.1-.9 7 3.5 7.8 3.6 44.9 9 5.8.8 15.7 2.2 22 3.1 21.3 3.1 19.2 3.3 32-2.8 6.3-3 14.1-6.6 17.3-8.1 29.5-13.5 36.1-16.7 36.9-17.9.9-1.5 8 .9 14 4.8 5.3 3.3 6 5.1 2.6 6.4-1.3.5-11.3 5.3-22.3 10.6-11 5.4-27.4 13.3-36.5 17.7-29.6 14.3-35.3 17.3-35.8 18.8-.4 1.2-.2 1.3.9.3 1.5-1.2 29.4-15.3 44.1-22.2 14.8-6.9 48.2-23.1 50-24.1 2.6-1.5 5.5-1.2 6.2.5.4 1.1-.3 1.9-2.1 2.6-1.5.5-10.4 4.7-19.7 9.3-9.4 4.6-20.7 10-25.1 12.1s-14.5 6.9-22.5 10.8c-29.3 14-35.3 16.7-37.9 16.7-3.5 0-17.8-6.3-43.6-19.2-11.5-5.7-24.8-12.2-29.5-14.4-10.9-4.9-12-6.2-12-13.3 0-6.1 1.9-10.1 4.9-10.1.9 0 2.1-.4 2.7-.9 1-1.1 13.9-5.6 25.4-9 4.1-1.2 8.6-2.6 10-3.2 9-3.2 15.2-3.8 34.8-2.9 19.8.9 27.2 2.1 35.9 6 8 3.5 4.9 6.9-8.9 9.9-11 2.4-16.1 2.6-20.7 1-3.5-1.2-3.9-2.6-1.3-4.5 1.6-1.2 1.6-1.3 0-1.4-1 0-2.2 1-2.9 2.1-.9 1.7-.8 2.5.5 3.8 2.7 2.6 23.2 2.1 30.9-.8 5.7-2.2 8.7-4.4 8.7-6.2 0-1.5-4.8-5.6-7.3-6.2-1.2-.3-4-1-6.2-1.6-10.5-2.9-20-4.1-31.2-4.1-6.8 0-12.3-.4-12.3-.8 0-1.3 12-3.2 20.6-3.2 12.5 0 30-4.4 44.2-11.2 4.8-2.2 8.2-4.3 7.6-4.5-.5-.2-4.6 1.4-9 3.5-4.3 2.1-9.2 4.3-10.9 5-8.2 3.1-37.2 7.2-35.9 5.1.3-.5 2.5-1.8 5-2.9 2.4-1.2 8.8-5.1 14.2-8.7 9.4-6.5 13.1-8.6 27.7-16.2 11.5-6 26.6-12.1 30-12.1 1.1 0 3.1-.9 4.5-2s3.2-2 4.1-2c.8 0 1.9-.4 2.5-.9 1.7-1.6 21.3-12 24.9-13.2 3.3-1.1 5-1 13.2 1m30.5 20c1.3.5 12.4 4.2 24.8 8.2 12.4 3.9 23.7 7.6 25.3 8.2 4.4 1.6 3.4 4.1-3 7.2-3.2 1.6-20.8 10.2-39 19.2-18.3 8.9-34.1 16.3-35.2 16.3s-2.3-.4-2.6-1c-.6-1 64.8-33.8 74-37.1l5-1.8h-4.3c-2.5-.1-12.4-2.8-23.7-6.6-10.6-3.6-20-6.5-20.8-6.5-1.9 0-5.7-3.8-5.7-5.7 0-1.5 2-1.7 5.2-.4m20.5 14.1c17.1 5.8 19.1 6.6 18.2 7.4-.3.3-38 18.9-61.3 30.2-3.8 1.9-7.5 3.4-8.2 3.4-.8 0-3.7-1.8-6.6-4s-5.8-4-6.5-4c-.6 0-1.5-.5-1.8-1-.4-.6 1.9-2.2 5.2-3.6 3.2-1.5 10-4.6 15.1-7s9.5-4.4 9.6-4.4c.2 0 4.3-1.8 9-4 10.7-5 12-7 8.8-13.6-1.2-2.4-2.2-4.7-2.2-4.9 0-1.2 4.3-.1 20.7 5.5m-65.4 33.8c1.6 1 3.9 2.2 5 2.9 5 2.9 12.9 11.6 15.8 17.5 1.6 3.5 3.4 7 3.8 7.8.8 1.5 2.4 2.4 12.6 7.3 2.8 1.3 5 2.9 5 3.6 0 2.2-8.4 4.5-12 3.3-16.5-5.6-18-6.6-20.4-12.5-1.2-2.9-3.3-6.6-4.7-8.2-1.5-1.7-3.3-4-4.2-5.3-2-3-13.4-11.2-15.6-11.2-1 0-2.7-.5-3.9-1.1-1.9-1.1-1.7-1.4 3.4-4 5.9-3.1 9.8-3.2 15.2-.1"/><path d="M411.9 590.2c-1.3 1.8-2.7 3.6-3.2 3.9-.5.4-.8 1.2-.6 1.8s2.1-1.2 4.1-3.9c2.1-2.8 3.3-5 2.8-5s-1.9 1.5-3.1 3.2M447.5 599.6c-8.2 4.4-13.8 7.1-17.5 8.7-1.9.8-5.5 2.4-8 3.5-9.8 4.3-25.3 8.4-37 9.8-8 1-14.1 2.8-16 4.9-4.1 4.4.6 7.5 11.4 7.5 7.2 0 24.1-2.4 27.6-3.8 3.5-1.5 1.9-1.4-8.5.3-11.8 1.9-27.8 2-29.4.1-3-3.6 1.6-5.9 14.9-7.6 14.8-1.8 26.4-5 37.8-10.1 3.4-1.6 6.7-2.9 7.2-2.9s4.4-1.8 8.7-4.1c4.3-2.2 9.5-5 11.6-6 3.5-1.8 4.6-2.9 3-2.9-.5 0-3 1.2-5.8 2.6M430.6 624.7c-3.3 1.4-7.5 3.5-9.5 4.7s-4.4 2.5-5.3 2.9c-1 .3-1.8 1.1-1.8 1.8 0 .6-.7.9-1.5.5-1.7-.6-8.5 2-8.5 3.4 0 .5 1.4 1.7 3 2.5 2.7 1.4 3.5 1.4 7.3.1 5.8-1.9 11.7-4.8 11.7-5.7 0-.3 1.2-.9 2.8-1.2 1.5-.3 5.9-2 9.7-3.7 7-3.2 7-3.2 4.2-5.6-3.4-2.9-4.5-2.9-12.1.3m11.9 1.2c.3.5 0 1.3-.7 1.7-.6.4-1.4.2-1.6-.4-.2-.7-.8-1.2-1.4-1.2s-.8.6-.5 1.4c.7 1.8-3.4 3-4.5 1.3-1-1.6-1-2.9.1-2.3.4.3 1.6-.3 2.6-1.4 1.7-1.9 4.5-1.5 6 .9m-10.8 4c-.1 1.3-.9 1.8-2.6 1.8-1.4 0-2.7.6-2.9 1.2-.5 1.4-4.9 1.5-5.7.1-.3-.6.2-1.3 1.2-1.7 1-.3 2.2-1.2 2.6-2 1-1.6 3.9-1.7 5.6-.1 1 1.1 1.1.9.5-.6-.5-1.3-.4-1.7.4-1.2.6.3 1 1.5.9 2.5m-9.7 6.5c0 .4-.9.6-2 .3s-2-.1-2 .4c0 1.2-4.7 1.1-5.5-.1-.3-.6.3-1 1.3-1 1.1 0 2.5-.7 3.2-1.5.9-1.1 1.6-1.2 3.1-.2 1 .6 1.9 1.6 1.9 2.1m-10.2 1.6c1 1.7 1 2-.2 2-.8 0-1.7-.4-2.1-1-.3-.5-1.2-.7-2-.3-.8.3-1.5.1-1.5-.5 0-1 1.6-2 3.5-2.1.6-.1 1.6.8 2.3 1.9"/><path d="M426.3 629.7c.4.3 1 .3 1.4 0 .3-.4 0-.7-.7-.7s-1 .3-.7.7M586 594.9c-2.5.7-2.5.7-2.5 12.6v12l35 .3c19.3.2 39.2 0 44.3-.3l9.2-.7V594l-41.7.1c-23 .1-42.9.4-44.3.8m83 11.4v10.5l-6.2.4c-3.5.2-21.9.5-41 .7l-34.8.2-.1-4.8c-.1-4.5-.1-16.8 0-16.8s18.6-.2 41.1-.4l41-.3z"/><path d="M593.9 599.7c-2 2.3-1.8 11.8.2 13.8 2.6 2.6 4.9.9 4.9-3.6 0-3.3-.4-4.1-2.6-4.9-3-1.2-2.7-3.6.4-3.2 2.4.4 2.8-.8 1-2.6-1.6-1.6-2.3-1.5-3.9.5m3.9 10.7c-.2 1.2-1 2.1-1.8 2.1-1.6 0-2.5-2.8-1.6-5.2.9-2.3 3.8.4 3.4 3.1M604.5 599c-1.1 1.8-1.4 12.4-.3 14.3.6 1.1 1.8 1.7 3.1 1.5 2-.3 2.2-.9 2.4-7.3 0-3.9-.4-7.6-.9-8.3-1.3-1.5-3.4-1.6-4.3-.2m3.5 3.5c0 1.6-.6 2.5-1.5 2.5-1.5 0-2.1-3.1-.8-4.3 1.3-1.4 2.3-.6 2.3 1.8m0 8.1c0 3.1-2.3 2.8-2.8-.4-.2-1.5.2-2.2 1.2-2.2 1.1 0 1.6.9 1.6 2.6M625.9 599.6c-2.1 2.6-1.8 11.9.4 14.1 1.8 1.7 1.9 1.7 3.8-.6 1-1.3 1.9-2.9 1.9-3.7 0-1.5-3-4.9-4.9-5.5-.7-.3-.9-1.2-.5-2.2.5-1.4.9-1.5 2.1-.5 1.3 1 1.5.9 1.2-.6-.5-2.6-2.3-3-4-1m3.5 8c.3.8.1 2.5-.6 3.7-1.1 2.1-1.1 2.1-2-.3-.9-2.6-.4-5 1.1-5 .5 0 1.2.7 1.5 1.6M635.7 598.7c-1.1 1-.8 4.3.3 4.3.6 0 1-.7 1-1.6s.6-1.4 1.3-1.1c.6.2 1 1.1.9 1.8-1.3 5.1-1.9 11.5-1.1 12.3 1.1 1.2 1.6-.5 2.2-7.4.3-3 .8-6.3 1.2-7.3.6-1.4.2-1.7-2.2-1.7-1.6 0-3.3.3-3.6.7M647.1 599.9c-2.8 5.1.1 16.8 3.4 14.1.8-.7 1.7-3.1 2.1-5.5 1-6.8-3.1-13.2-5.5-8.6m3.3 1.7c1.4 3.5.4 10.4-1.5 10.4-.5 0-.9-2.7-.9-6 0-5.7 1.1-7.8 2.4-4.4M614 607c0 .5 1.6 1 3.5 1s3.5-.5 3.5-1c0-.6-1.6-1-3.5-1s-3.5.4-3.5 1M196 657c0 .7.3 1 .7.7.3-.4.3-1 0-1.4-.4-.3-.7 0-.7.7M498.5 677c-.4.6-2.5 2.2-4.6 3.6-2.2 1.4-3.9 3-3.7 3.5.2.6 3.9 2.6 8.3 4.5 7.9 3.5 7.9 3.5 11.8 1.7 9.8-4.4 8.8-6.3-6.7-12.7-4.6-1.9-4.3-1.9-5.1-.6m8.9 4c3.6 1.7 6.6 3.6 6.6 4.4 0 .7-1.8 2.1-4 3.1-3.8 1.7-4 1.7-8.7-.4-2.6-1.2-5.4-2.5-6.2-2.9-2-1.1-2.6-3.2-.9-3.2.7 0 2.4-.9 3.8-2s2.6-2 2.6-2c.1 0 3.1 1.4 6.8 3M552.8 716.7c-2.8.4-2.8.4-2.8 12.3 0 11.8 0 11.8 3.3 12.4 4.4.8 85-.3 85.8-1.2.4-.4.4-5.9 0-12.2l-.6-11.5-41.5-.1c-22.8-.1-42.7.1-44.2.3m83.2 11.8V739l-37.7.1c-39.7.2-43 .2-45 0-1-.1-1.3-2.8-1.3-10v-10l5.3-.3c2.8-.2 21.7-.5 42-.6l36.7-.2z"/><path d="M561.1 720.9c-2.2 1.4-3.2 11.1-1.5 13.8 1.9 3 3.7 2.9 5.4-.2 1.6-2.9.1-7.5-2.5-7.5-.8 0-1.5-.9-1.5-2s.5-2 1-2c.6 0 1 .5 1 1.2 0 .9.3.9 1.2 0 1.7-1.7-1.1-4.5-3.1-3.3m2.9 9.8c0 2-1.7 5-2.3 4.3-.2-.3-.7-1.7-1.1-3.3-.5-2.3-.3-2.7 1.4-2.7 1.2 0 2 .7 2 1.7M571.2 721.3c-1.3 1.6-1.9 12.7-.8 14.5 1 1.6 4.1 1.5 5.4-.1 1.5-1.7.6-13.8-1.1-14.9s-2.3-1-3.5.5m2.8 3.2c0 1.4-.4 2.5-1 2.5-.5 0-1-1.1-1-2.5s.5-2.5 1-2.5c.6 0 1 1.1 1 2.5m.5 7.5c0 1.3-.5 2.5-1.1 2.7-1.4.5-2.5-2.2-1.7-4.2.8-2.3 2.8-1.2 2.8 1.5M593 721.5c-1.9 2.3-1.7 12.2.3 14.3 1.6 1.5 1.8 1.5 3.3 0 1.2-1.2 1.6-3.3 1.5-7.4-.1-7.4-2.3-10.3-5.1-6.9m3 6.9c0 3-.4 5.8-1 6.1-.6.4-1-1.7-1-5.4 0-3.4.4-6.1 1-6.1s1 2.4 1 5.4M602.7 720.7c-1.1 1-.8 4.3.3 4.3.6 0 1-.5 1-1 0-.6.5-1 1.1-1 1.1 0 1 2.5-.7 10.9-.5 2.5-.4 3.3.6 2.9.7-.2 1.5-2.2 1.7-4.3.2-2.2.8-5.7 1.2-7.7.5-2 .6-3.9.3-4.3-.8-.7-4.7-.6-5.5.2M614 721.9c-1.6 3-1.2 10.4.7 13 1.6 2.4 1.6 2.4 3.5.1 2.5-3.1 2.5-11.1 0-13.3-2.4-2.2-2.9-2.1-4.2.2m3.5 6.6c0 3-.5 5-1.2 5.2-1 .4-1.3-1.1-1.3-5.2s.3-5.6 1.3-5.3c.7.3 1.2 2.3 1.2 5.3M580 729c0 .5 1.8 1 4 1s4-.5 4-1c0-.6-1.8-1-4-1s-4 .4-4 1M594.1 763.5l.3 21-11.4 4.8c-6.3 2.6-16 6.6-21.5 8.8s-12.7 5.2-16 6.6c-8.3 3.6-9.9 4.2-28 11.7-8.8 3.7-17.1 7.2-18.5 7.8s-3.4 1.4-4.5 1.9c-16.1 6.4-19.5 9.3-19.5 16.6 0 4 .5 5.1 4.3 8.8 3.1 3.1 5.8 4.7 10.2 6 3.3.9 7 2.1 8.3 2.6s3.4.9 4.7.9 3.6 1.3 5.1 3c3.2 3.3 5.4 4.3 13.4 6 3 .7 6.9 1.7 8.6 2.2 2.5.9 3.6.7 5.8-.7 6.1-4 9-15.9 5.3-21.6-1.4-2.1-3.8-3.2-11.2-5.3-8.9-2.5-13.1-2.7-16-.6-2.1 1.6-7.2 1.8-10.4.4-1.8-.8-4.5-1.4-5.8-1.4-4.7 0-1.7-2.4 7.8-6.2 9.3-3.8 17.7-7.4 25.4-10.8 2.2-1 8.7-3.7 14.5-6s11.9-4.8 13.5-5.5c1.7-.7 16.5-7 33-14 36.7-15.6 36.4-15.5 39.5-17.5 1.4-.9 5.7-3.4 9.5-5.5 8.5-4.6 10-6.3 7.8-8.8-.9-.9-2.9-1.7-4.5-1.7-3.5 0-24.5 6.8-35.3 11.5-8.1 3.5-10.9 4.5-11.3 4-.3-.3-.7-8.9-1-19.3-.2-10.3-.9-19.2-1.4-19.7-.6-.6-.9 6.4-.7 20m51.3 5.4c1 1.6-18.2 11.1-22.3 11.1s-8.1-.9-8.1-1.9c0-.3 4.8-2.1 10.8-4 5.9-1.9 11.2-3.8 11.7-4.2 1-.7 4-1.6 6.2-1.8.6 0 1.4.3 1.7.8m1.1 3.1c-.9 1.5-21 12.1-32 16.8-5.5 2.3-11.9 5.2-14.2 6.2-2.4 1.1-4.5 2-4.8 2-.2 0-2.8 1.1-5.7 2.4s-9.8 4.3-15.3 6.6-12.2 5.2-15 6.4c-2.7 1.2-6.6 2.8-8.5 3.6-1.9.7-3.9 1.7-4.5 2.2-.5.4-1.5.8-2.2.8s-5.6 1.8-11 4.1c-42.8 18-41.3 17.3-41.3 18.9 0 1 4.6 2.8 9.3 3.6 4.3.7 5.4 1.9 3.7 3.9-.7.8-1.3 3.3-1.3 5.5-.2 4.7-.9 4.8-9.5 2.4-8.9-2.5-14.9-6.2-16.7-10.1-2.1-4.3-1.3-9.2 1.8-12.1 2.1-1.9 12.9-6.9 27.2-12.3 2.8-1.1 5.9-2.4 7-2.8 1.1-.5 3.6-1.6 5.5-2.4s5.6-2.4 8.1-3.5c2.5-1.2 7-3.1 10-4.2 3-1.2 6.8-2.8 8.4-3.5 1.7-.8 5.3-2.3 8-3.3 7.6-2.9 33.6-13.8 46.4-19.4 11.5-5 11.5-5 16.4-3.4 2.7.9 6 1.6 7.2 1.6 1.3 0 7-2.5 12.7-5.5 11.4-6 11.2-5.9 10.3-4.5m-117.1 74.1c3.8 1.1 3.8 1.1 1.4 3.7-3.6 4-4.8 7.6-4.8 14.1v5.8l-6.6-1.8c-3.6-1-7.2-2.4-8-3-3.6-3 .2-17.9 5-20 2.3-.9 6.9-.5 13 1.2m-18.3 2.8c-.6 1.1-1.8 4.4-2.6 7.3l-1.5 5.3.3-5.2c.2-2.8 1.2-6.4 2.1-7.8 2-3 3.3-2.7 1.7.4m-4 1.4c-1 .9-1.1.8-.5-.6.3-1 .9-1.5 1.2-1.2s0 1.1-.7 1.8m32.2-.3c1.8 1.7 2 9 .2 13.5-1.8 4.9-4.7 7.5-8.2 7.5-6.2 0-5.7-14.1.7-20.8 2.1-2.2 5.1-2.3 7.3-.2m-34.6 6.7c-.4.3-.7 0-.7-.7s.3-1 .7-.7c.3.4.3 1 0 1.4"/><path d="M531.5 853.5c-1.9 1.9-2.5 3.5-2.5 7 0 4.9 1.3 8.5 3.2 8.5.6 0 2.4-1.3 3.9-3 3.1-3.2 3.8-7.6 1.9-12.4-1.2-3.3-3.4-3.3-6.5-.1m5.3.8c.4 1.9-.6 2.1-2.7.8-1.6-1-.5-3.4 1.2-2.8.7.2 1.3 1.1 1.5 2m.5 3.7c.5.4.7 1.8.5 3.1-.3 2.1-.8 2.4-3.7 2.1-1.9-.1-3.6-.4-3.8-.6-.2-.1 0-1.7.3-3.4.6-2.8.9-3.1 3.3-2.6 1.4.4 3 1 3.4 1.4m-2.8 8c-.3.5-1.3 1-2.1 1s-1.4-.5-1.4-1c0-.6.9-1 2.1-1 1.1 0 1.7.4 1.4 1M688 768.5V781l44.8-.2 44.7-.3v-24l-44.7-.3-44.8-.2zm86.2-7.3c.1 2.4.2 7.2.2 10.8l.1 6.5h-84l-.3-10.2-.3-10.2 9.3-.3c5.1-.2 24-.4 42.1-.6l32.7-.2z"/><path d="M698.1 760.4c-1.9 2.3-2.4 8.1-1.1 12 1.3 4.2 3.3 4.6 5.5 1.2 1.8-2.7.8-6.9-1.9-7.9-.9-.4-1.6-1.4-1.6-2.3 0-1.3.3-1.4 1.4-.5 1.9 1.6 3.2-.5 1.6-2.4s-2.4-1.9-3.9-.1M701 771c0 1.6-.4 3-1 3-.5 0-1-1.4-1-3 0-1.7.5-3 1-3 .6 0 1 1.3 1 3M709 760.5c-1.6 1.9-2.1 11.4-.8 13.8.6 1.1 1.8 1.7 3.1 1.5 2-.3 2.2-.9 2.4-7.2.3-8.5-1.6-11.8-4.7-8.1m3 3.5c0 1.6-.4 3-1 3-.5 0-1-1.4-1-3 0-1.7.5-3 1-3 .6 0 1 1.3 1 3m.7 8.4c-.4.9-1.1 1.6-1.7 1.6-1.5 0-2.4-2.6-1.6-4.7.6-1.5.8-1.5 2.3-.1.9.9 1.3 2.4 1 3.2M732 759.7c-.7 14-.5 16.3 1.4 16.3 1.2 0 1.6-.5 1.2-1.6-.3-.9-.6-4.7-.6-8.5 0-3.9-.4-6.9-1-6.9-.5 0-1 .3-1 .7M742.9 759.5c0 .6-.2 4.5-.2 8.7-.2 6.4.1 7.8 1.3 7.8 1.3 0 1.5-1.3 1.2-7.8-.2-4.2-.8-8.1-1.3-8.7-.6-.6-.9-.6-1 0M752.6 761.2c-4 5.6.1 18.6 4.1 13.2 1.7-2.3 1.6-11.4-.1-13.7-1.7-2.2-2.2-2.2-4 .5m3.4 6.3c0 5.4-1.2 7.9-2.4 4.9-1.3-3.4-.2-11.9 1.5-10.8.5.3.9 2.9.9 5.9M718 768c0 .5 1.8 1 4 1s4-.5 4-1c0-.6-1.8-1-4-1s-4 .4-4 1M732 799.4v16.5l-7.6 3.5c-4.2 2-7.8 3.6-8 3.6-2 0-15.5 7.3-16.3 8.9-2.1 3.8-4.2 5.1-8.4 5.1-2.9 0-5.7 1-8.9 3-4.4 2.7-4.8 3.4-4.8 6.8 0 3.7-.2 3.9-5.2 6.2-2.9 1.2-9.8 4.4-15.3 7-5.5 2.5-14.8 6.6-20.7 9-6 2.3-10.8 4.7-10.8 5.1 0 .5-.6.9-1.2.9-.7 0-2.6 1.1-4.3 2.5-2.5 2.1-2.8 2.6-1.5 3.5.8.5 2.7 1 4.2 1 3.1 0 12-2.8 12.8-4.1.3-.4 6.6-3.7 14-7.2 33-15.7 30.1-14.7 34-11.7 1.4 1.1 3.1 2 3.8 2 2.1 0 9.6-4.1 11-6.1 1-1.5 2.6-1.9 7.2-1.9 6.1 0 6.5-.1 25.5-9 4.4-2 10.2-4.5 12.8-5.6 11.9-4.7 15.1-15.7 6.6-22.8-3.8-3.2-9.2-4.1-13.1-2.2-1.7.9-3.3 1.6-3.5 1.6-.1 0-.3-7.2-.3-16 0-10-.4-16-1-16s-1 6.1-1 16.4m11 15.6c0 .9-25.7 14-27.3 14-.3 0-3.6 1.8-7.5 4-7.6 4.4-9.5 4.9-8.5 2.2 1.2-3 3.1-4.2 16.5-10.4 24-11 26.8-12 26.8-9.8m8.1 2.9c4.8 4.9 3.7 12.8-2.1 14.6-2.7.8-4.6 1.7-24.7 10.6-2.7 1.2-6.2 2.8-8 3.5-3.6 1.6-10.3 1.9-10.3.4 0-.6.9-1 2.1-1 1.9 0 13.1-4.5 33.2-13.2 3.8-1.6 7.5-2.7 8.3-2.4s1.4.1 1.4-.4c0-1.8-2.1-2.1-5.5-.6-15.6 6.9-34.1 14.4-37.2 15.1-4.4.9-6.1 3-3.4 4.4 4.1 2.3 6.2 1.7 22.4-5.9 2.6-1.2 5-2.1 5.2-1.8.3.2-4.7 2.8-11 5.7-10.3 4.7-11.9 5.1-16.2 4.6-4.4-.6-5-.4-7.7 2.4-1.7 1.7-3.3 3.1-3.7 3.1-.3 0-.9-2.1-1.2-4.6-.3-3.4-1.3-5.4-3.8-8-2.1-2.1-2.9-3.8-2.3-4.3.5-.5 4.4-1.2 8.7-1.4 5.7-.3 8.6-1 10.5-2.4 2.3-1.7 21.4-11.2 33.5-16.7 2.1-1 4.1-2.4 4.4-3.2.9-2.3 4.2-1.6 7.4 1.5m-2.1 16.6c0 .3-.2.5-.5.5s-.5-.2-.5-.5.2-.5.5-.5.5.2.5.5m-9 4c0 .3-.2.5-.5.5s-.5-.2-.5-.5.2-.5.5-.5.5.2.5.5m-3 1c0 .3-.2.5-.5.5s-.5-.2-.5-.5.2-.5.5-.5.5.2.5.5m-2 1c0 .3-.2.5-.5.5s-.5-.2-.5-.5.2-.5.5-.5.5.2.5.5m-47.3 5c3.1 3.1 3.4 3.9 3.1 8.2-.2 3.9-.7 4.9-2.3 5.1-1.1.1-2.9-.4-4-1.2-1.9-1.4-1.9-1.4.4-3.3 2-1.7 2.2-2.2 1.2-4.1-.9-1.7-1.8-2.1-3.6-1.6-2.2.6-2.5.3-2.5-2.4s.9-3.9 3.4-4.1c.4-.1 2.4 1.5 4.3 3.4m-3 6.1c.4 1.2-.3 1.6-15.7 8.4-15.6 7-22.2 10.1-35.9 17-5.1 2.5-11.1 3.8-11.1 2.2 0-1.1 6.3-4.9 12-7.2 1.9-.7 6.3-2.6 9.8-4.2 3.4-1.5 6.4-2.8 6.6-2.8.4 0 18.1-8.2 27.1-12.6 5.1-2.4 6.6-2.6 7.2-.8"/><path d="M743 819.6c-1.9.9-9.9 4.7-17.8 8.5s-14.8 6.9-15.3 6.9-1.6 1.1-2.4 2.4c-.9 1.4-3 2.9-4.6 3.5-1.6.5-2.9 1.4-2.9 2 0 1.1 3.8.3 4.6-1 .3-.5 2.5-.9 5-.9 3.1 0 7-1.2 13-4 4.7-2.2 8.8-4 9-4s2.7-1.1 5.6-2.4 6.4-2.7 7.8-3.1c3.6-1.1 5-2.4 5-4.9 0-2-1.7-4.6-2.9-4.6-.4 0-2.2.8-4.1 1.6m5.5 2.8c0 1.3-3.2 3.1-13.5 7.5-7.4 3.2-15.1 6.5-17.2 7.5-2 1-5.1 1.6-7 1.4-2.9-.3-1.6-1.2 13.2-8.4 21.6-10.5 21.3-10.3 23-10.1.8.1 1.5 1 1.5 2.1M692 842.5c-.8.9-.8 1.5-.2 1.5 1.8 0 4.2-1.2 4.2-2.1 0-1.4-2.6-1-4 .6M696 845c0 .5.5 1 1 1 .6 0 1-.5 1-1 0-.6-.4-1-1-1-.5 0-1 .4-1 1M695.3 847.7c-1.7.6-1.7 3.3 0 3.3 1.4 0 3.7-2 3.7-3.2 0-.9-1.8-.9-3.7-.1M344 810.9v11.9l7.8.4c4.2.2 24.1.3 44.2.3h36.5v-24l-44.2-.3-44.3-.2zm86 .6V822l-41.2-.2-41.3-.3-.3-10.3-.3-10.2H430z"/><path d="M354 805.5c-3 8 1.8 18.4 5.2 11 1.4-3-.3-7.5-2.8-7.5-.9 0-1.4-.7-1.2-1.8.2-1 1.1-1.6 2.2-1.4 2.3.4 1.6-2.2-.7-2.6-1.1-.2-2.1.6-2.7 2.3m4 8.6c0 3.8-2.4 3.5-2.8-.4-.2-1.9.1-2.7 1.2-2.7s1.6 1 1.6 3.1M364.6 803.8c-.3.6-.5 2.8-.4 4.9 0 2.2-.1 4.4-.4 4.9-1.1 1.7 1.1 5.4 3.2 5.4 2.8 0 3.8-3.3 3.1-10-.5-4.6-.9-5.5-2.8-5.8-1.1-.2-2.4.1-2.7.6m3.4 3.2c0 1.6-.4 3-.9 3-1.3 0-2.1-2.7-1.5-4.5 1-2.5 2.4-1.7 2.4 1.5m.4 5.6c1 2.6.7 4.4-.8 4.4-2 0-2.9-1.6-2.1-4s2.1-2.6 2.9-.4M386 805.6c-2 5.2-.5 13.4 2.4 13.4 2.2 0 3.6-3.2 3.6-8 0-7.3-4-10.9-6-5.4m3.8 4.9c-.4 6.6-2.2 7.8-2.6 1.6-.4-4.9.2-7.1 1.8-7.1.7 0 1 2 .8 5.5M397.2 804.2c-1.6 1.6-1.6 12 0 13.6 1.9 1.9 3.8 1.4 4.8-1.3 1.2-3.1-.3-7.5-2.5-7.5-.8 0-1.5-.9-1.5-2 0-2.2 1.6-2.7 2.3-.8.2.7.8 1 1.2.6 1.1-1-.2-3.8-1.8-3.8-.7 0-1.8.5-2.5 1.2m3.6 9.5c-.4 3.9-2.8 4.2-2.8.4 0-2.1.5-3.1 1.6-3.1s1.4.8 1.2 2.7M407.7 804.5c-.4.8-.2 1.7.3 2 .6.4 1 .1 1-.4 0-.6.5-1.1 1-1.1 1.4 0 1.3 3.3-.2 4.8-.9.9-.7 1.3.5 1.8 1.9.7 2.3 3.9.6 4.9-.6.4-1.7-.1-2.4-1.1-.8-1.1-1.5-1.4-1.5-.7 0 2.4 1.3 4.3 3 4.3 2.3 0 4.2-4.9 2.8-7.4-.5-.9-.7-2.4-.4-3.3 1-2.4-.3-5.3-2.4-5.3-1 0-2 .7-2.3 1.5M375.8 811.7c1.2.2 3 .2 4 0 .9-.3-.1-.5-2.3-.4-2.2 0-3 .2-1.7.4M219.7 800.7c-1 .9-.9 23.1.1 23.6.4.3 20.5.6 44.7.8l44 .4.3-12.1.3-12.1-30.2-.6c-38.5-.9-58.4-.9-59.2 0m74.1 2.3H306v21.3l-14.7-.6c-8.2-.4-27.1-.7-42-.7H222v-21.3l29.8.6c16.3.4 35.2.7 42 .7"/><path d="M229.1 805.4c-.7.9-1.1 4-.9 7.8.3 5.9.4 6.3 2.8 6.3 4.1 0 4.9-7.8.9-9-1-.4-1.9-1.5-1.9-2.6 0-2.1 1.6-2.6 2.3-.7.2.7.8 1 1.2.6 1.1-1.1-.2-3.8-1.8-3.8-.8 0-2 .6-2.6 1.4m3.4 9.6c0 1.3-.6 2.5-1.2 2.7-.9.3-1.3-.6-1.3-2.7s.4-3 1.3-2.8c.6.3 1.2 1.5 1.2 2.8M239.3 805.5c-.3.9-.3 2.9 0 4.5.4 1.6.2 3.2-.3 3.5-1.7 1-1.1 4.1 1 6 2 1.8 2.1 1.8 4.3-.3 1.8-1.9 2-2.6 1.1-5.1-.6-1.5-.8-3.5-.4-4.2.4-.8.4-2.4-.1-3.7-1-2.5-4.7-3-5.6-.7m4.4 2.1c.8 2.1-1.3 4.2-2.8 2.7-1.3-1.3-.5-4.3 1.1-4.3.6 0 1.3.7 1.7 1.6m-.2 8.4c0 2.7-2.2 3.9-3.1 1.6-.8-2.2.3-4.9 1.9-4.3.6.2 1.2 1.4 1.2 2.7M261.5 806.7c-2.1 3.1-1.6 10.7.9 13.1 2.2 2.3 3.7.5 4.6-5.5 1.2-7.8-2.3-12.6-5.5-7.6m3.5 5.7c0 5.5-1.2 8-2.4 5-.8-2.1-.8-8.9.1-9.7 1.6-1.7 2.3-.3 2.3 4.7M273 805.5c-1.7 2.1-2.4 9.5-1.1 12.7 1.3 3.4 3.5 3.6 5.6.4 1.8-2.7.6-7.6-1.9-7.6-2 0-2.8-1.4-1.9-3.6.6-1.6.7-1.6 1.9 0 .8 1.2 1.4 1.4 1.9.6.7-1.1-1.1-4-2.5-4-.4 0-1.3.7-2 1.5m3 10.5c0 3.2-1.4 4-2.4 1.4-1-2.7-.7-4.4.9-4.4q1.5 0 1.5 3M284.1 805.3c-.6.6-1.1 2.2-1 3.6 0 2.6 0 2.6 1.1.3.6-1.2 1.5-2.2 2-2.2 1.4 0 .9 3.9-1.2 7.7-2.8 5.4-2.6 6.5 1.3 6.1 2.4-.2 3.3-.8 3.5-2.6.4-2.3-1.3-3.1-2.1-1-.2.7-.8 1-1.2.6s0-2.4 1-4.3c1.8-3.9 1.4-7.9-.9-8.8-.7-.3-1.9 0-2.5.6M295.1 809.7c-.7 2.7-1.6 6.3-2.1 8-.6 2.6-.5 3.3.6 3.3.8 0 1.4-1 1.4-2.6 0-1.9.4-2.5 1.8-2.2 1.1.3 1.6 1.2 1.5 2.6-.2 1.6.3 2.2 1.7 2.2 1.6 0 1.9-.4 1.2-1.8-.5-.9-1.5-4.5-2.2-8-.7-3.4-1.6-6.2-2-6.2s-1.3 2.1-1.9 4.7m2.4 2.2c.3.5.1 1.2-.5 1.6-.5.3-1-.1-1-.9 0-1.8.6-2.1 1.5-.7M250 813c0 .5 1.4 1 3 1 1.7 0 3-.5 3-1 0-.6-1.3-1-3-1-1.6 0-3 .4-3 1M385 837.5c0 10.5-.2 11.5-1.8 11.5-1.1 0-2.7-.9-3.7-2-1.9-2.1-5.5-2.7-5.5-1 0 .5-2.2 1-5 1-3.7 0-5-.4-5-1.4 0-2.4-1.8-2.8-5.8-1.5-4.2 1.3-8.2 4.6-8.2 6.6 0 1.3-3.8 3.3-21.3 11.2-2.7 1.2-5.6 2-6.5 1.6-1.6-.6-14.2 5.1-14.2 6.5 0 .9-4.5 3.1-20.5 10.2-9.3 4.1-11.8 4.8-17.2 4.8H264v-28.4c0-19.9-.3-28.7-1.1-29.2s-1 7.2-.7 28.5l.4 29.1-3.8 1.2c-5.1 1.5-9.1 5.5-8.4 8.3.5 1.8-.1 2.4-3.5 3.5-5.9 2-8.9 5.4-8.9 10.3 0 3.1.6 4.5 2.7 6.3 2.3 2 2.9 2.1 4.6.9 1-.7 3-2.9 4.3-4.9 3.2-4.6 5.6-5.8 10-5s4.9 2 3 6.5c-.8 2-1.2 4.6-.9 5.9.5 2 1 2.2 5.6 1.6 7.3-1 10.5-3 12.7-8.1 1.8-4.3 2.2-4.6 19.5-12.9 10-4.9 19-8.6 20.6-8.6 3.5 0 12.8-4.5 13.6-6.6.3-.8 2.4-2.3 4.7-3.3 23-10.4 21.9-10.1 30.4-10.1 9.1 0 16.8-2.1 19.5-5.2 2.2-2.6 2.4-11 .2-12.8-1.2-1-1.5-3.8-1.5-13.6 0-7.6-.4-12.4-1-12.4s-1 4.5-1 11.5m-23 10c0 5.6 8.8 7.1 11.2 2 1.7-3.8 6.8-2.7 6.8 1.5 0 2.6-7.5 6-13.3 6-6.5 0-10.2 1.3-27.1 8.9-7.5 3.4-9.3 3.7-11.8 1.7-1.9-1.4-2.4-3.6-.9-3.6.5 0 3.8-1.3 7.3-2.9s8.4-3.8 11-5c3-1.3 5.3-3.2 6.3-5.1 1.6-3.1 5.7-5.9 8.8-6 1.2 0 1.7.8 1.7 2.5m9.5 2.5c-.3.5-2.2 1-4.1 1s-3.4-.5-3.4-1c0-.6 1.8-1 4.1-1 2.4 0 3.8.4 3.4 1m16.2 3.6c1.2 1.9 1.4 3 .6 4.2-1.8 2.9-7.7 5.4-13.8 5.8l-6 .5 4.3-1.9c5.7-2.4 8.2-4.7 8.2-7.5 0-1.3.3-2.7.7-3 1.4-1.5 4.3-.6 6 1.9m-9.2 3.5c-.9 2.3-6.2 4.1-12.9 4.4-7.5.3-17 2.9-24.8 6.7-3.2 1.5-6.6 2.8-7.6 2.7-1.8 0-1.7-.1 8.8-4.7 14.9-6.6 16.2-7 24.1-7.5 3.6-.2 7.8-1.1 9.5-2 3.2-1.7 3.7-1.6 2.9.4m9.9 5.3c-1.4 3.5-5.7 4.9-17.4 5.6-10.4.6-12.2 1-19 4.2-10.1 4.8-15 6.8-16.6 6.8-3 0-1.1-1.7 5.4-4.7 22.3-10.5 19.9-9.7 29.7-9.5 7.1.1 9.7-.2 12.5-1.7 4.3-2.3 6.1-2.5 5.4-.7m-27.9 1.6c-.3.5-1.1 1-1.6 1-.6 0-6.4 2.5-13.1 5.5s-12.5 5.2-12.9 4.9c-1.6-1-.9-1.9 2.4-3.3 1.7-.8 5-2.2 7.2-3.2 5-2.2 15.6-5.8 17.3-5.9.7 0 1 .4.7 1m-34.7 3.5c3.1 2.1 4.2 3.6 5.6 8.6 2.1 6.7 2 7-5.1 10.4-4.9 2.4-6.3 2-6.3-1.8-.1-4.6-3-9.8-6.7-12.2-1.8-1.1-3.2-2.2-3.2-2.5-.1-.8 8.3-4.9 10.2-4.9.9-.1 3.4 1 5.5 2.4m-13.3 6.5c6 3.7 5.4 4.6-6.3 10.1-5.9 2.7-12.4 5.8-14.4 6.9-2.2 1.1-4 1.5-4.3.9-.5-.8 19.2-10.9 21.3-10.9.9 0 5.9-3.9 5.2-4-.7 0-22.3 9.9-25.7 11.8-1.6.9-2.3 2.2-2.3 4.1 0 3.6-3.3 5.9-9.6 6.8-4.7.6-4.7.6-4.2-3.4.8-5.4-.5-7.3-4.8-7.3-3.2 0-3.6.4-5.4 4.4-1 2.4-2.3 4.7-2.8 5-1.8 1.1-7.2-2.7-7.2-5 0-5.7 19.5-8.8 26.8-4.4 3.7 2.3 4.2 2.4 4.2 1 0-.6-1.2-1.5-2.7-2.1-2.8-1.1-2.7-1.2 4.2-4.5 3.8-1.8 9.5-4.3 12.5-5.6s6.8-3.1 8.5-4c3.8-2.1 3.2-2.1 7 .2m5.5 8.5c0 .9-1.1 2-2.5 2.5s-4.4 1.8-6.8 2.9c-2.3 1.1-7.7 3.5-12.1 5.5-8.3 3.8-9.6 4.2-9.6 2.6 0-1 27.5-14.8 29.8-14.9.6-.1 1.2.6 1.2 1.4m0 5c0 .8-.6 1.5-1.4 1.5s-6.3 2.4-12.3 5.4c-5.9 2.9-12.9 6.3-15.5 7.5s-6.2 3.4-8 5c-4.2 3.6-8.3 5.7-13.2 6.5-3.7.7-3.8.6-3.2-1.6 2-6.4 2-7.1-.9-9.4-2.8-2.2-2.8-2.3-1.1-4.8 1.2-1.9 2.5-2.6 4.8-2.6 3.1 0 3.1 0 2.4 5s-.7 5 3.4 5c4.3 0 9.6-1.8 12-4.1.8-.8 5-2.9 9.2-4.7 4.2-1.9 10.7-4.9 14.5-6.7 7.6-3.8 9.3-4.2 9.3-2m-47.3 5.1c.2.7-1.1 1.1-3.6 1.1-3 0-3.8-.3-3.4-1.4.7-1.7 6.4-1.4 7 .3m-14.7 6.9c2.4 1.3 2.4 1.4.4 1.5-1.2 0-2.7-.7-3.4-1.5-1.6-1.9-.3-1.9 3 0m-4.7.1c.6.6-4.7 8.1-6.7 9.6-1.7 1.2-4.6-1.2-4.6-3.6 0-1.8 1-2.9 4.3-4.4 4.5-2.2 6-2.6 7-1.6m32.7.2c0 1.3-6.4 3.2-10.6 3.1-3.7-.1-3.6-.1 1.8-1.3 3.2-.7 6.1-1.5 6.4-1.9 1-.9 2.4-.9 2.4.1m-28.5 3.1c.3.5-.3 1.2-1.4 1.6-1.1.3-3.2 2.2-4.8 4.1-1.5 2-3.6 4-4.5 4.5-2.1 1.1-4.8.1-4.8-1.7 0-1.1.5-1.2 1.8-.5 2.2 1.2 2.9.7 7.1-4.7q4.8-6.15 6.6-3.3m7.1.6c2 1.5 1.3 1.8-2.3.9-1.3-.4-2.3-1-2.3-1.5 0-1.4 2.4-1.1 4.6.6m14.8 9.8c-.7 1.9-7.4 4.7-11.4 4.7-5.2 0-2.9-2.9 2.3-3 1.2-.1 3.8-.9 5.7-1.9 4-2 4.3-2 3.4.2"/><path d="M353 853.9c0 .7 4.4 3.1 5.5 3.1 1.7 0 0-1.7-2.5-2.7-1.6-.6-3-.8-3-.4M321 873c-1.4 1.1-2 2-1.4 2 1.3 0 7.4-2.9 7.4-3.6 0-1.1-3.8-.1-6 1.6M325.3 879.7c-1.8.9-3.3 2-3.3 2.5 0 .9 5-1.1 7-2.9 1.9-1.7.3-1.5-3.7.4M237.4 1068.9c-.2.2-.4 5.5-.4 11.8 0 12 .6 13.5 4.8 11.8 1.6-.8 1.6-.8 0-1.2s-1.8-1.8-1.8-10.6v-10.2l40.7.3c22.5.2 41.4.5 42.1.7.8.3 1.2 3.4 1.2 11v10.5l-18.2-.5c-47-1.3-61.8-1.4-61.8-.5 0 .6 5 1 11.8 1.1 6.4 0 12.8.2 14.2.4 1.4.1 14.7.4 29.5.6l27 .4v-12c0-11.9 0-11.9-3.5-12.6-3.8-.8-84.9-1.7-85.6-1"/><path d="M248.1 1072.9c-.8.5-1.6 3.2-1.9 6.3-.3 4.2 0 5.8 1.4 7.6 2.6 3 4.8 1.5 4.8-3.3 0-3.3-1-4.8-3.8-5.8-.5-.2-.6-1.1-.3-2.1.6-1.6 1-1.6 2.3-.5 1.4 1.2 1.6 1.1 1.3-.5-.5-2.3-1.9-2.9-3.8-1.7m2.4 10.4c0 3.9-1.9 3.8-2.3-.2-.3-2.4 0-3.2 1-2.9.7.3 1.3 1.7 1.3 3.1M258.7 1073.5c-2 2-2.1 13-.1 14.6 3.7 3 6.4-4.2 4.8-12.7-.5-2.8-2.9-3.7-4.7-1.9m3.3 3.6c0 1-.7 1.9-1.5 1.9-1.5 0-2.1-3.1-.9-4.3 1.1-1 2.4.3 2.4 2.4m0 6.9c0 3.5-2.5 4.2-3.5 1-.8-2.4.1-4 2.1-4 .9 0 1.4 1.1 1.4 3M279.9 1075.7c-1.3 3.3-.6 11 1 12.6.8.8 1.6.9 2.9.1 2.1-1.4 3-11.8 1.1-14-1.8-2.2-3.9-1.7-5 1.3m4.1 5.9c0 4-.4 5.5-1.2 5.2-1.4-.5-2.3-8-1.4-10.5 1.2-3 2.6 0 2.6 5.3M290 1075c0 2.2 1.6 2.7 2.3.7.2-.6.8-.9 1.2-.5s.2 3.5-.4 6.8c-.7 3.3-.9 6.6-.5 7.2s1.3-1.7 2-5.3c.8-3.5 1.6-7.4 1.9-8.7.5-2 .2-2.2-3-2.2-2.8 0-3.5.4-3.5 2M301.4 1075.5c-.4 1.4-.3 2.9 0 3.3.4.3.9-.4 1.3-1.6.3-1.2.9-2.2 1.4-2.2 1.6 0 1 5-1.1 9-1.1 2.2-2 4.2-2 4.5s1.6.5 3.5.5c2.8 0 3.5-.4 3.5-2 0-2.2-1.6-2.7-2.3-.8-.2.7-.8 1-1.2.5-.5-.4-.3-1.7.3-3 2.9-5.9 2.5-10.7-.8-10.7-1.3 0-2.2.9-2.6 2.5M268 1081c0 .5 1.6 1 3.6 1 2.1 0 3.3-.4 2.9-1-.3-.6-1.9-1-3.6-1-1.6 0-2.9.4-2.9 1M281.8 1096.5c-.2.3-.3 13.4 0 29.2l.4 28.8-3.3 1.4c-1.9.8-9 4.1-15.9 7.3-6.9 3.3-14.5 6.9-17 8-20.1 8.9-24.5 12.2-19.9 15.1 1.3.8 3.3.3 8.3-2.1 3.7-1.8 7-3.2 7.3-3.2.6 0 2-.6 21.8-10 6.1-2.9 15.3-7.3 20.5-9.8 5.2-2.4 20-9.6 32.8-15.8 12.8-6.3 23.8-11.4 24.4-11.4s2.5 1.2 4.3 2.7c9.2 7.8 10.5 8.5 12.8 6.8.9-.6 1.7-1.7 1.7-2.3s-4.1-4.3-9.1-8.2c-6.6-5.1-9.7-6.9-11.1-6.4-1 .3-6.3 2.7-11.6 5.4-26.9 13.3-41.2 20-42.6 20s-1.6-3.1-1.6-27.4-.4-29.8-2.2-28.1m66.3 36.4c6.8 5.2 10.1 8.6 9.2 9.5-.7.7-4.1-1.1-6.7-3.5-1-1-3.6-3-5.6-4.4-3.7-2.6-3.7-2.6-14.6 2.5s-12.3 5.8-19.9 9.8c-2.2 1.1-8.5 4.2-14 6.8-5.5 2.5-16.3 7.7-24 11.4-12.8 6.2-16.2 7.8-28 13-2.2 1-6.1 2.7-8.7 3.9-5.4 2.4-7.8 2.7-7.8.8 0-.7 4.2-3.3 9.3-5.7 5-2.3 14.8-7 21.7-10.3s17.4-8.2 23.4-10.9 21.3-10.1 34-16.4c12.6-6.3 23.5-11.4 24.2-11.4.6 0 4 2.2 7.5 4.9m-121.4 51.8c-.4.3-.7 0-.7-.7s.3-1 .7-.7c.3.4.3 1 0 1.4"/></svg>