<svg xmlns="http://www.w3.org/2000/svg" viewBox="0 0 866.768 1222.957" fill="currentColor"><path d="M420.14 195.708c-.197 1-.285 6.3-.273 11.8l.123 10 10.001.477c5.5.288 25.5.242 44.5-.1l34.499-.579-.022-9.5c-.011-5.2-.123-10.5-.326-11.8-.405-2.198-.405-2.198-44.205-2.099-41 .093-43.9.2-44.296 1.8m86.324 10.204.023 9.9-42 .095-42 .095-.023-10-.023-10 41.3-.293c22.6-.252 41.5-.295 42-.096.4.2.71 4.799.723 10.299"/><path d="M441.347 198.56c-2.094 2.604-1.773 11.904.432 14.099 1.804 1.695 1.904 1.695 3.3-.108 2.093-3.005 1.873-11.904-.532-13.999-1.703-1.496-1.903-1.495-3.2.007m3.116 6.892c.007 3-.388 5.501-.888 5.502-1.6.004-2.11-4.795-1.223-10.297 0-.4.598-.701 1.098-.702.6-.002 1.006 2.497 1.013 5.497M473.745 197.586c-1.499.503-1.79 4.304-.39 4.3.5 0 1.098-.602 1.397-1.302.199-.6.798-.902 1.199-.503.4.4.307 3.3-.386 6.5-.691 3.602-.786 6.003-.185 6.601 1.103 1.098 1.3.197 2.779-9.606.493-3.101.686-5.902.486-6.201-.602-.599-3.302-.493-4.9.211M484.15 199.362c-.692 3.902.314 6.5 2.414 6.495 1.3-.003 1.901.696 1.905 2.296.007 3.1-.99 4.002-2.694 2.506-.702-.599-1.702-.796-2.101-.396-.4.401.203 1.4 1.305 2.198 1.803 1.295 2.203 1.295 3.798-.71 2.393-3.005 2.088-5.404-.817-7.697-3.006-2.393-3.21-4.193-.41-4.2 2.6-.005 1.995-2.404-.806-2.798-1.5-.196-2.2.405-2.595 2.306M429.65 199.986c-1.893 3.104-1.478 9.403.828 12.098 2.005 2.396 2.005 2.396 3.501.492 2.592-3.406 1.783-7.604-1.72-8.896-1-.298-1.803-1.296-1.805-2.196-.004-1.8 1.195-1.903 2.8-.306.901.898 1.2.697 1.197-1.003-.006-2.8-3.107-2.893-4.8-.189m3.62 8.492c-.197 1.4-.694 2.601-1.294 2.603-.5 0-1.103-1.198-1.306-2.597-.204-1.8.094-2.5 1.294-2.503s1.502.696 1.306 2.497M463.05 199.51c-1.094 2.903-.576 10.902.928 12.798 2.408 3.195 4.501.39 4.487-5.91-.015-6.6-.72-8.498-3.02-8.493-1 .002-2.098.705-2.396 1.605m3.804 1.992c.804 1.998-.379 9.4-1.479 9.403-.5.001-.905-2.498-.912-5.498-.012-5.3 1.083-7.202 2.39-3.905M450.964 205.938c-.399.6.802.998 2.902.993 2-.004 3.6-.508 3.598-1.008-.001-.6-1.302-.997-2.902-.993-1.7.003-3.3.407-3.598 1.008M463.532 235.81c.02 9-.364 16.1-.864 16.101-2.1.005-15.58 8.636-18.573 11.942l-3.292 3.508 4.018 7.59c2.209 4.096 5.12 8.89 6.424 10.686 3.21 4.293 3.012 5.493-1.383 7.603-11.188 5.426-12.884 7.03-9.878 9.623.801.598 2.608 3.494 4.115 6.59 1.607 2.997 4.415 6.89 6.32 8.486 3.005 2.693 4.006 2.991 10.106 2.977 8.5-.019 14.893-2.934 17.382-8.04 2.29-4.404 1.368-13.802-1.436-15.796-3.205-2.293-2.11-4.595 3.183-7.307 5.494-2.713 5.594-2.713 6.473-12.015.585-6.601.585-6.601-2.418-7.794-1.701-.797-3.405-2.493-4.21-4.39-1.91-4.697-6.623-10.186-10.528-12.277-3.404-1.892-3.404-1.892-3.438-17.092-.02-9-.435-15.4-1.036-15.798-.701-.398-.989 5.002-.965 15.402m4.143 19.19c3.605 1.892 6.01 4.286 8.62 8.68 1.405 2.397 2.41 4.395 2.21 4.595-.2.1-1.997 1.205-3.994 2.41-3.595 2.208-3.595 2.208-7.507-2.984-2.206-2.895-5.414-6.187-7.116-7.283-1.803-1.096-3.205-2.193-3.306-2.493-.002-.9 5.391-3.812 7.291-3.916 1-.103 2.701.393 3.802.99m-10.286 5.823c.8.498-.399.701-2.899.707-3.6-.092-4.5.31-5.495 2.312-1.194 2.403-4.089 4.71-4.89 3.911-.201-.2 1.095-2.002 2.99-4.106 3.391-3.708 7.289-4.817 10.294-2.824m-4.192 3.61c-2.097 1.605-3.197 1.307-2.101-.395.298-.601 1.397-1.104 2.297-1.106 1.5.097 1.5.197-.196 1.5m8.607 3.18c1.404 1.597 3.109 3.793 3.711 4.992 1.306 2.497 1.517 7.296.317 7.3-1.2.002-4.609-3.89-7.118-7.985-3.915-6.59-1.822-9.496 3.09-4.307m-9.2-.179c0 .3-.2.5-.5.501-.3 0-.5-.199-.5-.499-.001-.3.198-.5.498-.5.3-.001.5.198.502.498m-1.998.905c0 .3-.399.8-.998 1.102-.5.301-1 .102-1-.398-.002-.6.497-1.1.997-1.102.6-.001 1 .198 1 .398m6.41 4.585c.905 2.198 3.512 5.492 5.817 7.387 4.509 3.89 4.312 5.59-.688 5.602-2.7.006-4.101-.791-7.31-4.484-4.912-5.489-6.121-9.386-3.625-11.192 2.795-2.106 3.896-1.609 5.806 2.687m-7.392 3.517c4.521 9.39 12.032 14.273 16.825 10.862 1.697-1.104 2.194-2.505 2.187-5.705-.011-4.9 1.69-3.904 2.203 1.295.206 2.7.707 3.398 2.107 3.195 1-.202 1.7.296 1.703 1.296.004 1.7-.496 1.801-3.499.508-1.401-.497-2.6-.194-4.197 1.31-2.196 2.005-2.296 2.005-7 .215-2.602-.994-5.806-2.986-7.11-4.383-2.306-2.695-6.223-10.286-6.227-12.086-.001-.5-.402-1-1.002-.998-.5.001-1.001-.498-1.003-.998-.006-2.8 2.2-.305 5.013 5.489m31.689-4.972c.302 1-5.69 4.413-7.69 4.417-2.2.005-.807-2.798 2.29-4.305 3.396-1.707 4.896-1.71 5.4-.112m-12.995 2.13c-.4.3-.7.001-.702-.699s.298-1 .698-.702c.301.4.303 1 .004 1.4m14.706 2.766c-2.496 1.806-5.294 2.512-5.897 1.513-.3-.399 1.196-1.702 3.294-2.807 3.895-2.009 5.797-1.113 2.603 1.294m-8.997 1.32c.301.5.205 2.2-.292 3.801-.793 2.902-.793 2.902-1.202-.897-.507-3.399.29-4.8 1.494-2.903m9.61 4.079c.003 1.9-.793 3.402-2.49 4.505-3.495 2.308-4.496 2.01-4.504-1.39-.005-2.2.693-3.301 2.79-4.406 3.795-2.108 4.196-2.01 4.203 1.29m-11.58 9.026c.3.5-.098 1.2-.997 1.502-2.198.905-2.398.806-2.402-.894-.004-1.6 2.495-2.106 3.399-.608m-11.998 1.127c1.401.497 2.603 1.394 2.605 1.994.003 1.6-1.498 1.204-4.103-.99-2.705-2.194-2.205-2.495 1.498-1.004m6.605 1.985c0 .5-.398 1.001-.998 1.003-.5 0-1.001-.498-1.002-.998-.002-.6.497-1.001.997-1.002.6-.002 1.001.397 1.003.997m5.002.989c.003 1.3-5.79 4.213-7.292 3.716-.7-.198.597-1.3 2.795-2.506 4.794-2.51 4.494-2.41 4.497-1.21m-14.896 2.034c2.403 1.094 5.507 3.087 6.81 4.484 1.304 1.397 2.706 2.494 3.206 2.493s.901.398.903.998c0 .5-.699.702-1.5.403-1.5-.596-2.097 1.105-2.783 7.107-.393 3.4-1.196 2.002-2.209-3.795-.61-3.999-5.423-10.188-8.625-11.18-1.302-.498-3.4.207-5.896 1.913-4.394 2.91-4.993 3.111-4.996 1.611-.002-.6.497-1.001.997-1.002.6-.002 2.198-1.105 3.595-2.508 2.993-3.007 4.793-3.111 10.498-.524m3.9-.51c0 .3-.2.501-.5.502-.3 0-.5-.199-.5-.499-.001-.3.198-.5.498-.501.3 0 .5.199.501.499m14.006 2.77c.004 1.9-4.792 3.91-7.293 3.116-2.002-.596-2.002-.696.394-2.501 2.795-2.207 6.894-2.516 6.899-.616m-24.793 3.355c-1.198.803-2.797 1.207-3.398.808-.901-.598-.502-.999 1.197-1.503 4.097-1.109 4.597-1.01 2.201.695m26.804 1.64c.006 2.6-.592 3.6-2.49 4.505-3.696 1.709-4.496 1.51-4.503-1.19q-.005-2.4 3.29-4.507c1.698-1.104 3.295-2.108 3.495-2.108.1 0 .204 1.5.208 3.3m-22-.05c.001.7 1.205 2.397 2.609 3.894 1.804 1.895 2.407 3.294 1.91 4.795-1.19 4.003-6.195 1.914-10.009-4.077-1.505-2.497-1.506-2.697.69-4.202 2.696-1.906 4.796-2.11 4.8-.41m-7.993 3.318c.002.6 1.507 2.896 3.312 4.992 3.007 3.393 3.708 3.792 8.408 3.781 2.8.094 5.9-.513 6.697-1.215 1.398-1.203 1.598-1.104 1.602.696.004 1.6-.895 2.102-5.394 2.612-6.098.814-7.8.218-11.61-4.073-3.207-3.493-7.025-11.384-4.62-9.39.901.798 1.604 1.897 1.605 2.597m10.993-3.025c.001.3-.198.5-.498.5-.3.001-.5-.198-.502-.498 0-.3.2-.5.5-.501.3 0 .5.199.5.499m17.522 9.56c-.797 1.302-5.593 3.113-6.294 2.414-.3-.2.997-1.102 2.895-1.906 4.196-1.81 4.196-1.91 3.4-.508M466.265 338.603c-3.298.808-3.496 1.608-1.886 6.305 2.315 6.494 8.874 32.38 11.907 46.973 3.64 17.791 5.676 33.587 5.7 44.487.016 6.5.422 9.499 1.222 9.497 1.3-.003.434-29.2-1.291-40.497-3.248-20.893-6.388-38.586-9.117-51.38-1.618-7.896-3.033-14.693-3.035-15.193-.002-.9-.302-.999-3.5-.192"/><path d="M283.822 363.717c-8.197 1.519-12.792 3.73-18.88 9.243-9.28 8.421-15.451 21.335-20.103 42.446-.495 2.501-1.386 6.303-1.881 8.504-3.367 14.708-5.907 41.214-5.858 62.514.074 32.8 4.326 55.49 14.17 74.968 3.315 6.692 10.041 18.077 11.143 18.974.3.3 1.204 1.598 1.907 2.996 2.31 4.395 12.537 16.272 20.053 23.355 7.115 6.684 16.23 13.163 22.136 15.75 2.903 1.293 2.903 1.293 2.956 24.993.036 15.5.455 23.899 1.156 24.297.7.499.885-6.602.647-23.001-.353-23.7-.353-23.7 2.148-23.105 16.107 3.163 22.808 3.648 35.506 2.52 19.096-1.644 27.19-3.962 43.472-12.1 9.49-4.72 11.987-6.127 21.773-11.949 2.896-1.706 5.493-3.112 5.793-3.113s2.397-1.305 4.694-2.81c2.296-1.606 8.688-5.32 14.181-8.233 5.494-2.912 17.378-9.64 26.467-14.86s21.671-12.45 27.963-15.963c6.292-3.615 12.385-7.029 13.483-7.731 1.098-.703 5.792-3.413 10.487-5.924 14.781-8.033 24.077-10.154 42.977-10.197 17.2-.04 28.405 2.535 39.52 9.01 8.01 4.682 18.22 9.059 26.526 11.24 8.605 2.28 12.606 2.571 53.908 3.478 10.2.276 14.701.766 19.005 2.356 6.905 2.385 11.606 2.474 15.6.065 4.295-2.51 5.587-5.713 5.172-12.512-.312-5.199-.714-6.298-3.72-8.891s-3.807-2.892-8.606-2.48c-3.4.307-6.597 1.414-9.193 3.02-2.696 1.806-5.694 2.813-9.793 3.122-6.599.515-21.093 3.348-23.39 4.553-.799.402-8.499.52-17 .139-13.8-.569-16.402-.963-24.308-3.745-4.804-1.789-11.11-4.475-14.014-6.168-4.506-2.49-13.316-6.87-20.223-9.854-8.608-3.78-29.512-5.333-43.507-3.302-15.095 2.335-22.289 4.951-35.77 12.982-5.094 3.011-9.488 5.521-9.788 5.522-.3 0-1.798.804-3.196 1.807-1.498 1.104-5.193 3.312-8.189 4.919a2352 2352 0 0 0-17.977 10.34c-6.89 4.016-14.98 8.635-17.976 10.341-2.996 1.707-6.692 3.816-8.19 4.919-1.397 1.003-2.795 1.806-3.095 1.807-.6.001-24.27 13.055-34.657 19.079a877 877 0 0 1-10.985 6.325c-10.886 6.224-21.076 10.847-29.47 13.366-8.095 2.419-10.694 2.725-25.494 2.858-17.3.14-23.402-.747-32.01-4.627-12.714-5.871-34.464-27.822-42.698-43.103-.503-1.1-2.611-4.894-4.62-8.49-4.618-8.29-9.244-19.679-11.163-27.975-3.938-16.79-4.244-19.59-4.302-44.99-.065-28.6 1.298-44.703 5.943-69.014 1.384-7.403 6.247-23.714 8.336-28.319 6.668-14.215 22.448-22.95 36.055-19.781 7.204 1.683 17.115 6.46 30.434 14.83 24.435 15.345 39.756 24.71 79.11 48.321 16.522 9.863 30.241 18.232 30.542 18.53.3.3 2.504 1.595 5.007 2.89 2.503 1.394 4.706 2.689 5.007 3.088 1.103 1.298 14.82 8.667 20.024 10.655 12.711 4.971 29.912 5.532 41.703 1.305 5.795-2.113 6.395-2.114 8.498-.72 5.51 3.888 11.202.776 12.984-7.029.99-4.302 1.888-5.604 4.983-7.51 2.097-1.306 12.874-11.43 23.85-22.455 22.548-22.551 31.03-30.57 32.53-30.574.5-.001 1.798-.904 2.796-2.006.997-1.103 2.495-2.006 3.395-2.008 1.5-.003 17.067-14.539 17.064-16.039-.003-1.2-6.223-9.986-7.123-9.984-.4.001-2.403-1.394-4.207-2.99-1.904-1.696-4.307-2.99-5.407-2.988-1 .002-4.793 2.911-8.285 6.519s-6.885 6.516-7.385 6.517c-1.2.002-4.59 4.01-4.587 5.61.001.7 1.104 2.098 2.407 3.095 2.304 1.695 2.304 1.795.511 4.999-.996 1.802-3.588 5.108-5.883 7.413-2.195 2.305-3.99 4.609-3.989 5.109.002.9-5.983 7.414-27.931 30.163-5.188 5.412-10.976 10.725-12.673 11.83-3.296 2.107-3.296 2.107-8.9.02-4.104-1.391-6.204-1.686-7.503-.984-2.497 1.306-4.886 6.112-4.878 9.712.004 1.6-.592 3.4-1.19 3.902-4.393 3.31-20.69 4.347-30.896 1.97-6.904-1.684-16.714-5.962-23.423-10.147-2.705-1.793-6.91-4.284-9.213-5.579-2.303-1.194-12.917-7.57-23.532-13.946-10.615-6.476-20.628-12.553-22.33-13.45-1.603-.996-3.205-1.992-3.506-2.292s-1.602-1.096-3.004-1.893-6.108-3.686-10.514-6.376c-4.407-2.79-13.62-8.47-20.53-12.653-17.924-10.96-32.445-20.027-37.352-23.216-7.511-4.883-20.124-10.454-25.225-11.043-2.701-.393-5.702-.887-6.503-1.085-.8-.098-4.4.21-7.997.918m15.905 2.564c6.803 1.285 13.71 4.37 22.723 10.149 6.51 4.285 21.932 13.65 27.439 16.837 1.402.797 2.703 1.594 3.004 1.894.3.299 3.906 2.59 8.011 4.982 4.106 2.39 10.114 6.077 13.219 8.17s5.909 3.786 6.209 3.785 4.305 2.39 8.812 5.28c4.606 2.99 13.92 8.769 20.829 12.853 6.91 4.185 16.322 9.863 21.029 12.753 28.139 17.236 33.946 20.323 43.352 22.801 13.908 3.769 27.605 2.538 37.892-3.186 3.096-1.807 3.996-1.909 5.299-.812 2.304 1.895 1.807 3.296-1.788 5.604-11.383 7.326-32.08 8.373-48.194 2.41-2.903-1.094-17.421-9.16-32.141-18.027-14.82-8.767-28.239-16.836-29.94-17.733-1.603-.996-9.113-5.479-16.523-9.962-7.41-4.583-14.62-8.867-16.022-9.664a160 160 0 0 1-6.71-4.085c-2.403-1.494-8.01-4.881-12.517-7.671-4.606-2.69-8.712-5.28-9.313-5.679-.501-.499-5.008-3.389-10.015-6.477-4.907-3.09-11.516-7.174-14.52-9.167-7.511-4.783-19.323-9.757-25.224-10.543-8.603-1.18-19.894 2.745-26.38 9.26-3.99 4.009-9.27 12.82-11.357 18.925-1.986 5.805-6.642 25.516-8.023 33.919-5.129 31.111-5.328 75.612-.577 98.001 4.851 22.69 18.81 48.158 36.35 66.118 11.627 11.974 19.54 17.656 30.049 21.432 7.806 2.882 9.107 3.08 24.207 3.145 16.4.063 20.999-.548 32.99-4.675 8.992-3.12 14.287-5.532 21.477-9.749 17.177-10.139 26.166-15.259 33.457-19.176 14.782-8.033 37.552-20.885 53.432-30.12 6.291-3.715 13.582-7.932 16.079-9.237 2.496-1.406 7.89-4.618 11.984-7.028 12.982-7.93 18.476-10.342 29.37-12.766 24.589-5.456 48.896-2.211 67.522 9.047 7.61 4.682 13.616 7.369 20.52 9.353 7.806 2.182 22.31 4.25 30.31 4.231 7.1-.016 7.2-.016 7.206 2.584.006 2.7.006 2.7-14.695 2.133-8.2-.381-17.503-1.26-20.804-1.953-7.704-1.782-18.915-6.257-24.022-9.645-5.809-3.787-12.415-6.672-21.221-9.152-6.604-1.885-10.205-2.177-22.805-2.148-13 .13-16.3.437-24.294 2.755-8.295 2.319-23.678 9.654-34.063 16.177-1.997 1.305-5.592 3.413-8.09 4.819-5.292 3.012-8.289 4.718-20.972 12.147-10.386 6.024-29.96 17.168-39.45 22.29-3.295 1.807-9.987 5.622-14.78 8.433-4.894 2.811-9.089 5.121-9.389 5.122s-1.698.804-3.095 1.907c-2.796 1.906-18.178 9.841-24.172 12.455-5.595 2.412-9.792 3.522-21.887 5.75-23.59 4.253-44.497 1.6-58.717-7.468-20.63-13.153-38.68-35.212-50.64-61.785-8.443-18.88-10.98-34.975-11.057-69.075-.183-36.3 1.685-50.704 10.61-84.024 4.163-15.71 14.133-29.332 24.822-34.057 5.494-2.512 15.29-4.534 18.291-3.841.8.198 3.902.791 6.903 1.384m295.62 8.53c-5.386 6.112-7.282 7.816-8.482 7.819-2.1.005-.804-1.898 4.585-6.91 6.685-6.216 9.084-6.721 3.898-.91m5-.512c-.397 1.601-.792 3.802-1.09 5.003-.295 1.7-1.094 2.302-3.094 2.307-1.5.003-4.397 1.51-6.992 3.616-2.395 2.005-4.692 3.31-5.093 3.011-.301-.4.896-1.902 2.792-3.406 1.897-1.505 5.689-5.013 8.382-7.92 2.694-2.905 5.088-5.31 5.288-5.311.2 0 .103 1.2-.194 2.7m4.907 3.389c1.403 1.097 3.308 3.393 4.212 5.09 1.707 3.297 1.608 3.497-3.979 9.51-3.391 3.807-5.19 4.111-6.097 1.313-.302-1.099-2.307-3.294-4.311-4.99-3.607-2.892-3.607-2.992-1.107-2.997 3.2-.008 8.188-5.519 7.281-8.217-.705-2.398.695-2.301 4.001.291m5.205 2.388c1.505 1.997 2.51 3.795 2.21 3.995-.3.3-1.703-1.296-3.208-3.492-3.311-4.893-2.712-5.194.998-.503m-26.888 5.261c-.898.902-1.896 1.405-2.297 1.105-1.002-.997.594-2.8 2.393-2.805 1.5-.003 1.5.097-.096 1.7m11.212 4.975c3.909 3.891 5.415 6.588 4.317 7.69-.299.4-1.302-.797-2.206-2.595-.804-1.798-2.91-4.193-4.712-5.29-3.304-1.992-4.208-3.49-2.208-3.494.6-.002 2.704 1.694 4.809 3.689m-12.904-1.67c.001.5-.198 1-.398 1-.3 0-.801-.498-1.102-.997-.302-.6-.102-1 .398-1.001.6-.002 1.1.397 1.102.997m11.41 4.073c3.007 3.493 3.21 5.093 1.015 6.998-1.397 1.103-1.798 1.004-3.001-.593-2.81-3.894-4.413-5.49-5.413-5.488-.6.001-.799.402-.498 1.001.302.5.103 1-.397 1.001-1.3.003-1.3-.197-.108-3.4 1.392-3.703 5.092-3.411 8.401.481m-6.588 5.515c3.105 2.193 2.71 4.794-1.38 9.403-3.49 3.808-3.79 4.009-5.494 2.413-2.605-2.394-2.408-3.495 1.584-7.404 1.896-1.804 3.191-3.607 2.99-3.907-.3-.199-2.296 1.306-4.492 3.41-5.188 5.012-5.99 4.114-1.202-1.297 4.089-4.709 4.788-4.91 7.994-2.618m-9.776 10.622c1.102 1.198 2.006 2.596 2.007 3.096.002 1.1-5.008-3.389-5.01-4.589-.003-1.2.797-.802 3.003 1.493m-1.196 2.003c.702.699 1.204 1.697 1.205 2.297.004 1.4-34.816 36.88-40.506 41.392-4.891 3.712-5.49 3.913-7.097 1.317-1.104-1.798-.905-2.298 1.89-4.305 3.695-2.508 13.273-12.23 29.633-29.767 6.185-6.614 11.873-12.127 12.473-12.128.7-.002 1.7.496 2.402 1.194m-54.305 42.023c5.01 3.89 8.634 14.58 5.638 16.388-.6.301-1.001-.398-1.004-1.698-.11-4.3-3.824-10.591-8.131-13.682-3.907-2.89-4.007-3.09-1.707-3.096 1.4-.003 3.702.892 5.204 2.088m-.988 5.303c2.307 2.794 3.011 4.693 3.02 8.293.108 3.8-.29 4.8-1.69 5.104-.999.202-2.5-.195-3.301-.893-1.302-.997-1.204-1.497.592-3.401s1.894-2.604.89-4.802c-1.408-3.197-4.11-4.19-6.907-2.685-1.798 1.005-1.998.805-2.005-2.395-.013-5.8 4.387-5.41 9.401.779m8.603.98c.002 1.2-.499.701-1.906-2.396-1.105-2.397-1.105-2.397.299-.6.902 1.098 1.605 2.396 1.607 2.996m185.986 81.778c1.202.798 2.204 1.995 2.205 2.495.002.6-1.2.103-2.602-.994-3.606-2.792-6.006-2.586-8.899.52-6.584 7.115.545 19.7 8.635 15.28 1.398-.702 1.796-1.603 1.393-3.002-.503-1.4-.204-1.9 1.396-1.903 1.8-.004 1.9.295.906 2.598-1.095 2.402-5.388 5.412-7.788 5.417-.7.002-2.502-.894-4.004-1.99-1.803-1.297-3.104-1.594-3.503-.993-.797 1.302-4.497 1.31-4.5.01-.001-.6 1.198-1.002 2.598-1.005 2.1-.005 2.5-.406 1.896-1.805-.402-.899-.907-3.098-1.211-4.897-.507-2.899-.807-3.098-3.406-2.592-1.9.404-2.9.106-2.902-.694-.001-.8 1.198-1.102 3.398-.807 3.001.293 3.6.091 4.096-2.11.396-1.5.093-2.8-.708-3.298q-1.351-.897.9-.302c1.2.297 2.4.094 2.798-.506.897-1.503 6.798-1.216 9.302.578m-2.796 1.907c.702.898 1.004 1.797.705 2.198-.798.702-3.703-1.491-3.706-2.791-.003-1.4 1.597-1.104 3.001.593m-10.999.525c.001.5-.998 1.002-2.198 1.005-1.9.004-2-.196-.802-.998 1.897-1.305 2.997-1.307 3-.007m-7.088 5.216c-.096 1.8.31 4.8.915 6.498 1.107 3.397.31 4.3-1.596 2.003-1.804-2.096-2.414-6.194-1.32-8.997 1.392-3.603 2.092-3.404 2.001.496m13.094-2.73c0 .3-.199.5-.499.501-.3 0-.5-.199-.501-.499 0-.3.199-.5.499-.5.3-.001.5.198.5.498m-19.193 3.044c-.796 1.901-.793 3.101.011 5 1.608 3.496 1.708 3.496-2.692 3.506s-6.304-1.686-6.313-5.686c-.007-3.3 2.588-5.306 6.888-5.316 3.1-.007 3.2.093 2.106 2.496m30 .232c.305 2.099-.494 2.7-3.494 2.308-.6-.1-1.4.303-1.798.904-.3.5-2.098 1.004-3.898 1.008-2.6.006-3.501-.492-3.905-2.19-.807-2.999-.109-3.8 3.891-3.81 2.5-.005 3.401.393 3.504 1.693.003 1.4.303 1.199.999-.503 1.093-2.902 4.294-2.61 4.701.59m-27.196 1.761c-.09 4.1-1.589 4.804-1.598.704-.006-2.4.69-4.202 1.49-4.203.1 0 .104 1.6.108 3.5m-13.397 1.43c.41 4.3-.588 5.102-6.388 5.115-4.5.01-5.802-.987-5.81-4.487-.008-3.6.79-4.001 8.59-4.42 3-.106 3.2.094 3.608 3.793m22.796-1.951c.001.5-1.098 1.002-2.498 1.006-1.4.003-2.5-.495-2.502-.995-.001-.6 1.098-1.002 2.498-1.005 1.4-.004 2.5.394 2.502.994m1.01 3.998c0 .5-1.099 1.002-2.499 1.005-1.4.004-2.5-.494-2.502-.994-.001-.6 1.098-1.002 2.498-1.006 1.4-.003 2.5.395 2.502.995m12.403 1.472c-.597 1.6-2.396 2.105-2.399.705-.002-1.1 1.095-2.203 2.095-2.205.5 0 .602.699.304 1.5m-5.4.012c0 .3-.2.5-.5.5-.3.002-.5-.198-.5-.498-.001-.3.198-.5.498-.501.3 0 .5.199.502.499m2-.005c0 .3-.2.5-.5.501s-.5-.198-.5-.498c-.001-.3.198-.5.498-.502.3 0 .5.2.502.5m-4.99 4.512c0 .5-.698 1.001-1.598 1.003-.8.002-1.201-.497-.902-.998.298-.6.998-1.002 1.598-1.003.5-.002.9.398.902.998"/><path d="M582.519 406.24c-1.596 2.003-2.292 3.505-1.593 3.203 1.599-.503 6.585-6.815 5.385-6.812-.5.001-2.197 1.605-3.792 3.609M616.967 559.562c-.798 1.202-4.987 5.811-9.277 10.321-20.252 21.246-31.917 36.573-45.764 60.004-7.471 12.617-17.723 33.74-20.703 42.647-1.391 4.003-2.683 7.506-2.883 7.707-.299.3-2.409-4.095-4.722-9.79-8.646-20.38-20.293-40.954-32.33-56.926-7.923-10.483-10.93-13.776-20.952-23.453-13.33-12.97-16.832-13.962-4.803-1.29 14.935 15.567 27.781 35.838 37.635 59.516 6.334 15.185 8.348 21.18 11.476 33.374 1.01 4.397 1.01 4.397 5.608 3.687 2.5-.306 7.399-.617 10.799-.624 6.2-.015 6.2-.015 7.49-4.318 5.657-18.812 14.012-38.731 22.578-53.75 9.761-17.123 17.036-28.24 27.605-41.964 5.583-7.312 6.68-8.715 15.357-18.735 3.391-4.007 6.183-7.614 6.182-7.914-.002-1.2-2-.295-3.296 1.508M265.83 675.959c-.199.6-.486 6.001-.573 12.001l-.175 10.9 11.501.575c9.101.479 68.503 1.044 76.302.826 1.5-.103 1.697-1.403 1.673-12.103-.02-8.8-.328-12.2-1.229-12.498-.7-.198-20.6-.453-44.201-.6-30.2-.13-43 .098-43.298.899m57.003 1.27 28.7-.065.025 10.9.024 10.9-11.2-.374c-6.201-.186-25.102-.643-42.003-.905l-30.801-.53-.024-10.5-.024-10.5 13.301.47c7.201.384 26.102.64 42.002.605"/><path d="M275.14 680.538c-2.89 4.106-1.266 14.803 2.134 14.795 1.9-.004 3.69-4.408 2.883-7.407-.303-1.299-1.506-2.796-2.607-3.094-1.1-.297-2.003-1.295-2.004-1.995-.005-1.9 1.693-2.804 2.297-1.305.201.7.802.998 1.201.597.998-.902-.109-3.8-1.409-3.797-.5.001-1.697 1.004-2.495 2.206m2.921 9.093c.009 3.9-1.891 3.805-2.3-.195-.306-2.399-.008-3.2.993-2.902.7.299 1.304 1.697 1.307 3.097M286.439 679.912c-1.994 2.505-1.773 12.004.432 14.1 1.804 1.695 1.904 1.695 3.3-.108 1.894-2.705 1.872-12.005-.232-14-1.905-1.995-1.905-1.995-3.5.008m3.116 6.893c.012 5.4-1.182 7.903-2.39 4.906-1.408-3.697-.326-12 1.476-10.804.5.3.907 2.898.914 5.898M308.74 680.462c-1.596 1.603-1.475 11.003.23 13.3 1.204 1.596 1.604 1.695 3.002.592 2.994-2.507 1.766-15.104-1.434-15.096-.3 0-1.1.502-1.798 1.204m3.206 2.392c1.408 3.497.423 10.4-1.477 10.404-.5 0-.906-2.698-.913-5.998-.013-5.7 1.082-7.803 2.39-4.406M318.141 680.84c-.398.901-.295 2 .005 2.3.401.3.9-.002 1.099-.702.298-.6.897-1.202 1.497-1.204.7-.001.804 1.699.41 4.7-1.08 8.102-1.08 8.602.021 9 .7.198 1.296-2.004 1.687-5.904.292-3.501.884-7.102 1.181-8.103.597-1.401.197-1.7-2.303-1.695-1.8.004-3.2.607-3.597 1.608M330.14 680.113c-1.296 2.003-1.678 9.804-.673 12.302 2.113 5.395 6.106 2.286 6.09-4.614-.014-6-3.525-10.892-5.417-7.688m3.416 7.092c.01 4.7-.287 6.001-1.487 6.004-1.1.002-1.503-1.297-1.512-5.297-.007-3 .287-5.7.687-6.001 1.696-1.704 2.3-.206 2.312 5.294M296.056 687.29c-.399.601.802.999 2.902.994 2-.005 3.599-.508 3.598-1.008-.002-.6-1.303-.997-2.903-.994-1.7.004-3.299.408-3.597 1.008M518.274 694.886c-4.895 2.611-5.49 4.313-2.783 7.907 1.104 1.597 2.11 3.795 2.111 4.795.005 1.9 3.414 6.192 5.014 6.188.5 0 1.698-1.103 2.595-2.505 2.99-4.707 7.995-2.019 9.11 4.879.509 3.499-.784 6.602-2.884 6.606-1.8.005-2.007-3.095-.21-4.5 1.797-1.303 1.796-1.403-.706-2.498-2.102-.995-3.102-.792-6.198 1.015-3.695 2.208-8.679 9.22-8.672 12.22.002.8 1.205 2.097 2.606 2.793 2.103 1.196 2.703 1.194 3.4.093.399-.801 1.498-1.104 2.499-.806 1.501.597 1.502.897.106 2.9-2.093 3.004-1.99 4.104.717 7.498 2.106 2.495 2.307 3.095 1.213 5.797-1.193 2.703-.992 3.503 2.222 9.495 4.82 8.89 5.321 9.288 9.719 8.378 5.298-.912 10.087-5.823 11.972-12.227 1.39-4.803 1.388-5.603-.12-8.7-1.908-3.895-1.314-6.197 1.984-7.404 1.399-.503 2.696-1.706 3.094-2.707.596-1.502 2.096-1.605 16.097-1.237 8.6.28 15.7.165 16-.236.796-1.302-5.405-1.988-18.605-1.958-14.7.034-14.6.133-17.423-10.06-3.629-12.592-4.836-15.99-6.14-17.386-.801-.699-1.404-2.197-1.407-3.297-.007-3-2.31-4.395-4.606-2.79-.999.703-3.497 1.608-5.496 2.013-3.398.607-3.799.408-5.806-2.887-2.31-3.995-4.01-4.291-9.403-1.379m7.301.684c.003 1.4-2.293 3.205-4.193 3.21-2 .004-2.506-2.595-.507-3.3 1.998-.804 4.698-.81 4.7.09m-5.987 5.713c.908 3.398 3.014 6.193 3.61 4.692.3-.6 1.598-1.204 2.898-1.207 1.2-.002 2.798-.706 3.497-1.507 1.097-1.303 1.497-1.104 3.103 1.693 3.816 6.89 4.722 9.589 7.048 20.984 2.63 13.094 2.136 15.995-2.174 11.505-4.11-4.191-13.82-8.87-17.018-8.162-2 .505-2.9.307-2.902-.593-.003-1.4 4.88-8.911 5.78-8.913.3-.001 2.303 1.194 4.306 2.59 3.004 1.993 4.105 2.29 5.703 1.487 5.194-2.812 1.864-16.204-4.238-16.89-2-.296-3.2.307-4.296 1.71-2.492 3.605-5.295 2.111-5.307-2.789-.002-1-.905-2.598-2.008-3.595-2.405-2.195-2.608-3.794-.307-3.3.9.198 2.003 1.196 2.305 2.295m7.998-1.118c.003 1.5-4.793 3.111-5.896 2.113-.702-.798 2.792-3.506 4.592-3.51.7-.002 1.302.597 1.304 1.397m13.998-.532c.002.6-.397 1.301-.996 1.603-.5.3-1-.098-1.002-.898-.002-.9.496-1.601.996-1.602.6-.002 1.001.397 1.002.897m-6.391 3.615c-.199.7.605 2.298 1.907 3.496 1.504 1.396 2.91 4.393 3.618 7.891 1.617 7.497 3.635 15.192 4.44 17.29.804 1.998-.895 2.502-2.099.705-.602-.999-2.422-9.594-3.84-17.991-.405-1.9-1.712-5.096-3.116-6.893-2.508-3.395-3.518-7.692-1.415-6.497.6.399.803 1.298.505 1.999m6.202.986c2.398-.706 3.604 1.692 6.226 11.586 1.21 4.597 2.721 9.394 3.224 10.592.603 1.299.906 2.598.507 2.9-.998 1.002-3.513-5.493-5.232-13.789-.91-4.198-2.319-8.495-3.221-9.493-1.705-2.096-2.008-3.495 2.832 14.094 1.613 5.996 2.725 11.094 2.526 11.394-1.198 1.103-2.403-1.294-3.616-6.992-2.023-10.095-3.836-15.69-6.043-18.686-1.103-1.597-2.007-3.495-2.01-4.195 0-.8.7-.302 1.603.896 1.003 1.398 2.205 2.095 3.204 1.693m-13.068 14.23c-.4.3-1 .302-1.4.003-.3-.4-.002-.7.698-.702s1.001.298.702.698m25.132 13.842c-.395 2.201-8.784 7.12-8.789 5.12-.003-1.3 6.485-6.514 8.285-6.618.5-.102.701.598.504 1.498m-20.993 3.448c1.703 1.096 3.206 2.393 3.207 2.993.004 1.9 5.107 3.188 8.205 2.081 2.698-1.006 3.9.091 1.703 1.496-4.693 2.911-16.195 1.937-19.104-1.656-2.205-2.595-2.207-3.295-.212-5.3 1.996-2.004 2.196-2.005 6.201.386m14.92 8.666c-.4.301-1 .303-1.4.003-.3-.399-.002-.7.698-.701s1.001.298.702.698m-16.697 1.538c.005 1.9-1.79 4.304-2.491 3.606-.902-.898.389-4.801 1.589-4.804.5 0 .901.598.902 1.198m4.008 3.391c.003 1.4.508 3.399 1.11 4.498.503 1.098.908 3.198.71 4.598-.294 2.3-.594 2.101-3.005-2.493-2.31-4.195-2.613-5.594-1.817-7.696 1.193-3.103 2.994-2.407 3.002 1.093m5.998-.914c.004 1.6-.492 3.502-.99 4.303-.897 1.302-1.097 1.302-2 .004-1.405-2.097-1.213-5.697.286-6.3 2.297-1.006 2.698-.707 2.704 1.993m4.803 1.19c.408 3.599-3.074 11.607-5.272 12.512-2.198.805-1.91-4.296.482-7.902 1.096-1.702 1.99-4.304 1.987-5.804-.009-4 2.393-2.905 2.803 1.194m1.712 5.196c-.796 1.902-1.295 2.603-.997 1.602.298-1 .792-3.702 1.187-6.003.592-3.401.791-3.702 1.096-1.602.203 1.5-.39 4.2-1.286 6.003m-14.493 3.133c1.808 3.496 2.613 5.694 1.711 4.996-2.004-1.696-7.025-11.184-5.925-11.187.4 0 2.306 2.795 4.214 6.19"/><path d="M521.338 723.48c-1.297 1.202-.694 2.3 2.41 3.894 2.602 1.294 3.302 1.392 4 .19 1.295-2.002 1.094-2.402-1.608-3.596-3.004-1.393-3.904-1.49-4.802-.489m4.306 2.29c0 .5-.198 1-.398 1-.3.001-.801-.498-1.102-.997-.302-.6-.103-1 .397-1 .6-.002 1.101.397 1.103.997M532.247 727.155c-2.895 2.206-2.895 2.206.51 4.298 3.905 2.492 4.905 2.19 4.896-1.61-.01-4.4-2.112-5.396-5.406-2.688m3.405 2.092c.001.8-.397 1.5-.897 1.502-1.3.003-2.204-1.595-1.405-2.397 1.097-1.102 2.298-.605 2.302.895M589.659 732.324l.027 12 26.801.64c37.102.815 58.803.866 60.1.063.7-.501 1.09-4.802 1.075-11.502-.025-10.9-.025-10.9-2.726-11.494-1.601-.297-21.402-.852-44.003-1.2l-41.302-.507zm71.78-9.063 13.2.27.024 10.5.024 10.6-9.202-.579c-5.1-.288-23.602-.846-41.002-1.107l-31.801-.527-.023-9.9-.023-10 27.801.236c15.2.066 33.7.324 41.001.507"/><path d="M599.147 727.103c-.297 1.4-.692 3.601-.989 5.002-.594 2.701 1.92 8.496 3.52 8.492 1.7-.004 3.289-4.607 2.583-7.306-.303-1.4-1.506-2.696-2.707-2.994-2.401-.694-2.007-3.295.493-3.1.9.097 1.6-.404 1.597-1.204-.006-2.6-3.903-1.592-4.497 1.11m3.52 8.592c.008 3.8-2.393 3.505-2.802-.394-.204-1.9.094-2.7 1.194-2.703s1.603.997 1.607 3.097M609.647 727.179c-1.491 3.803-1.18 8.703.625 11.199 2.007 2.795 2.807 2.793 4.2-.31 2.289-4.905.57-13.501-2.53-13.494-.7.001-1.798 1.204-2.295 2.605m3.811 4.891c-.385 6.601-2.182 7.805-2.596 1.606-.411-4.899.184-7.1 1.784-7.104.7-.001 1.004 1.998.812 5.498M631.645 726.43c-1.095 2.102-1.377 10.002-.371 12.5.805 2.198 3.104 1.993 4.4-.31 2.09-4.005.667-14.102-2.033-14.095-.5 0-1.398.903-1.996 1.904m3.505 2.091c.907 2.998-.377 10.201-1.778 9.704-1.3-.397-2.218-7.995-1.323-10.297.795-2.002 2.396-1.705 3.101.593M641.245 726.107c-1.094 2.703-.692 3.702.905 2.398 2.296-1.905 2.698-.806 1.712 5.396-.493 3.101-.586 5.902-.086 6.2.4.2 1.097-1.702 1.39-4.303.395-2.7.987-6.002 1.484-7.503.496-1.401.593-2.901.292-3.2-1.302-1.198-5.1-.49-5.697 1.012M653.662 733.58c.012 5.3.418 7.898 1.117 7.697.6-.202.999-.703.998-1.103-.101-.4-.11-3.9-.118-7.7-.009-4-.416-6.998-1.016-6.997s-.992 3.402-.981 8.102M662.748 727.358c-2.191 4.005-.768 14.102 1.932 14.096 1.3-.003 3.993-3.009 3.99-4.309-.002-.7-.501-.399-1.1.503-3.087 5.407-6.404-2.086-3.919-8.792.994-2.602 1.094-2.602 3.098-.807 2.104 1.896 2.104 1.896 1.8-.104-.606-2.798-4.507-3.19-5.801-.587M620.66 732.554c-1.1.702-.698 1.002 1.802.996 1.7-.004 3.198-.507 3.197-1.007-.003-1.3-3.003-1.294-5 .011M200.85 993.507c-7.69 3.918-14.484 7.033-15.284 7.035s-1.303-1.297-1.308-3.497c-.004-1.9-.408-3.6-1.008-3.698-.5.001-1.4-.097-1.9-.196-1.1-.097-19.04 27.044-19.035 28.744 0 .6 1.705 2.296 3.808 3.591 8.112 5.282 16.223 10.063 17.223 10.061.5-.001.994-2.402.988-5.302l-.012-5.2 17.48-9.04c9.588-4.922 17.478-9.24 17.478-9.54-.001-.3.29-4.2.58-8.6.583-7.702.482-8.202-1.722-9.797-1.302-.897-2.604-1.594-2.904-1.593-.3 0-6.792 3.215-14.384 7.032m17.21 4.061-.282 8.2-17.68 9.14c-17.778 9.141-17.778 9.141-17.768 13.941.007 2.7-.289 4.701-.79 4.502-4.504-1.99-15.22-9.365-15.223-10.465-.004-1.8 14.845-24.334 16.045-24.337.5-.001.903 1.598.908 3.498.004 1.9.308 3.5.808 3.498.4 0 7.691-3.617 16.182-7.936 8.49-4.42 16.081-8.037 16.781-8.039 1-.102 1.205 1.898 1.019 7.998"/><path d="M210.254 994.986c-2.098 1.105-2.595 2.206-2.984 7.407-.389 4.8-.186 6 .813 5.598.8-.302 1.699-.504 2.099-.505.5-.001 1.998-1.104 3.494-2.508 3.094-2.807 3.484-7.408.878-9.802-1.503-1.296-2.203-1.395-4.3-.19m3.809 4.091c.307 3.1-3.082 7.907-4.884 6.911-1.402-.896-.816-6.698.98-8.802 1.994-2.404 3.496-1.608 3.904 1.891M203.265 1000.102c-.597 1.401-.993 3.202-.99 4.002.001.8-.398 1.2-.999.902-.5-.299-1.003-1.497-1.006-2.597-.007-3.2-1.904-2.096-2.596 1.605-.592 3.402-2.389 4.906-2.395 2.106-.002-.8-.504-1.799-1.105-2.198-1.102-.697-.691 3.902.82 8.999.505 1.898.605 1.898 1.9.095.798-1.002 1.394-2.903 1.391-4.103-.008-3.6 1.692-3.704 2.9-.207 1.51 4.297 2.706 2.594 3.488-5.007.686-6.502.182-7.9-1.408-3.597M187.081 1007.238c-1.798.905-2.795 2.207-2.791 3.607.002 1.2-.292 3.9-.587 5.901-.494 2.501-.291 3.8.509 3.799.6-.001 1.098-.802 1.095-1.802-.002-.9 1.394-2.904 3.19-4.408 2.396-2.005 2.794-2.806 1.594-2.803-.9.002-1.999.504-2.298 1.005-.697 1.101-2.499.406-2.502-.994-.001-.5 1.396-1.704 2.994-2.707 1.698-.904 2.995-2.107 2.994-2.507-.002-1.1-1.002-.898-4.198.91"/></svg>