<svg xmlns="http://www.w3.org/2000/svg" viewBox="0 0 862 1218" fill="currentColor"><path d="M627 138.5c-1.4 1.8-3.5 3.8-4.8 4.4-1.2.6-2.8 2.3-3.5 3.8-.6 1.6-3.5 5.1-6.3 7.9-2.9 2.8-6 6.4-6.9 7.8-1.4 2-2.5 2.6-4.6 2.4-3.7-.4-10.8 7-31.9 33.2-9 11.3-17.5 21.7-18.8 23.1-1.2 1.4-2.8 3.4-3.5 4.3-1.2 1.7-1.9 1.4-9.8-3.3-4.7-2.8-9.1-5.1-9.8-5.1s-2.4 1.4-3.8 3c-2.5 3-2.5 3-22.2 2.8l-19.6-.3-.3-5.2c-.2-2.8-.8-5.3-1.5-5.6-.7-.2-20.5-.2-44 .1l-42.8.5.3 12.1.3 12.1 28-.1c15.4-.1 35.1-.2 43.8-.3l15.7-.1v-5.4c0-3.5.4-5.5 1.3-5.7 2.3-.7 35.7.2 35.7.9 0 .4-3.4 4.7-7.5 9.5-6.9 7.9-7.5 9.1-7.5 13 0 4.3.1 4.5 6 8.1 3.3 2.1 6 4.3 6 4.9-.1.7-1.4 2.8-3 4.7-1.7 1.9-3 4-3 4.7 0 2.3-2.3 6.3-3.6 6.3-.8 0-3.2 2.3-5.5 5.2-3 3.9-3.9 5.8-3.6 7.7.4 2.2-2.8 7.8-6.3 11.1-.5.5-7.9 9.4-10.7 13-.7.8-3.8 4.7-7 8.5-3.2 3.9-7.6 9.3-9.8 12-5.1 6.2-9.8 11.9-10.5 12.5-.5.4-12.7 15.5-13.6 16.9-.2.2-4.2-1.8-9-4.4-8.7-4.7-8.7-4.7-12.6-2.5-3.1 1.8-4.5 2-6.6 1.2-1.5-.5-4.6-1.5-6.9-2.1-4.8-1.3-5.1-1.8-2.6-3.7 3.1-2.2.5-2.7-3-.5-2.8 1.7-4 1.9-6.7 1.1-2.9-.8-4-.6-7.7 1.8-2.4 1.5-4.3 3-4.3 3.3 0 1.4-3.1 1.8-5.7.8-2.2-.8-3-.6-5 1.3-2.1 1.9-2.3 2.8-1.7 6.3.7 3.9 2.7 6.4 5.3 6.5 1 0 1.2-.9.8-3.8-.6-3.7-.6-3.7 1.6.8 3 6.2 6 7.1 11.5 3.6 5.3-3.3 6.3-3.3 15.3.4 12 5 14.9 6.3 14.9 7.1 0 .3-4.3 3.7-9.5 7.4-6.1 4.3-9.5 7.4-9.5 8.5 0 1 .5 4.2 1.2 7 1 4.4 1.7 5.5 5 7.3 3.7 2.2 4.7 4 2.8 5.2-.5.3-1 1.4-1 2.3.1 1.3.6 1 2.1-1.1 1.6-2 2.6-2.6 4.2-2.1 1.9.6 2 .3 1.4-3.8-.6-4.4-.6-4.4 5.6-7.6 4.3-2.3 7.4-3.2 9.9-3 3.7.2 6.9-2.2 8.3-6.5.8-2.3 3.6-2.2 8 .3 4.9 2.8 10.7 2.6 14.1-.3 2.7-2.4 2.7-2.4-1.4-8.3-2.3-3.3-4.2-6.4-4.2-6.9 0-.9 4.5-7 9.3-12.5 1.2-1.4 4.2-5 6.7-8s4.7-5.7 5-6 2.5-3 5-6 5.2-6.4 6.2-7.5c.9-1.1 4.5-5.6 7.9-10 3.5-4.4 6.8-8.5 7.4-9.1.5-.6 3.5-4.3 6.4-8.2 4-5.2 6.1-7.2 7.7-7.2 2.6 0 11.4-10 11.4-13 0-2.5 3.8-7 5.9-7 1 0 3.7-2.2 6-5 3.5-4.2 4.5-4.8 6-3.9 1.4.9 2.5.6 5.7-1.4 2.1-1.4 4.6-3.3 5.4-4.4 3.8-4.7 10.7-13 12.2-14.6 1.6-1.8 1.7-1.8 3.3.7 2.6 3.9 4 3.1 1.6-.8-2.1-3.4-2.1-3.4.4-6.4 2.4-2.9 3.3-6.2 1.7-6.2-.5 0-1.7-.6-2.7-1.4-1.8-1.3-1.6-1.7 4-8.7 3.3-4.1 6.2-7.6 6.5-7.9s2.1-2.5 4-5 3.7-4.7 4-5c3.1-3 17.7-22.1 19.2-25.2 1.1-2.2 3.1-5.2 4.4-6.5 2-2 2.3-3.1 1.8-5.8-.5-2.6-.1-4.2 1.7-6.7 1.3-1.8 2.6-3.5 3-3.8.3-.3 1.6-2.5 2.9-5 1.2-2.5 3.8-5.8 5.6-7.3 1.9-1.6 3.4-3.6 3.4-4.5s1.4-3.4 3-5.6c3.2-4.2 2.9-6.5-1-8.6-3-1.6-4.3-1.2-7 2.5m7.6-.1c1 .8 1.6 1.7 1.2 2.1-.7.7-4.8-1.6-4.8-2.7 0-1.2 1.4-.9 3.6.6m-1.6 4.4c0 1.3-1.1 1-3.7-1.1-.7-.5-1-1.3-.7-1.8.7-1.2 4.4 1.3 4.4 2.9m-3 1.7c1.9 2.3.8 2.6-2 .5-1.9-1.5-2.1-2-.9-2 .9 0 2.2.7 2.9 1.5m-7 1.5c0 .5-.4 1-1 1-.5 0-1-.5-1-1 0-.6.5-1 1-1 .6 0 1 .4 1 1m4.5 1.1c1 1.5-.1 2.3-2 1.5-.9-.3-1.3-1-1-1.6.8-1.3 2.2-1.3 3 .1M625 151c2.3 1.7 2.4 2 .9 3.2-1 .7-2.5 3-3.6 5l-1.8 3.7-3.8-3.1-3.8-3.2 3.8-3.8c4.4-4.3 4.9-4.4 8.3-1.8m4.1.3c-1 .9-1.1.8-.5-.6.3-1 .9-1.5 1.2-1.2s0 1.1-.7 1.8m-12.8 10.1c2.5 2.1 3.7 5.6 2 5.6-.5 0-1.7 1.4-2.8 3-1.8 2.7-4.5 4.1-4.5 2.2 0-.4-1.4-1.6-3-2.7-3.6-2.4-3.7-2.9-.4-7.2 3-3.9 4.9-4.1 8.7-.9m-10.5 8.3c4.5 3.4 8.2 7.2 8.2 8.4 0 1.4-3.2 6.9-4 6.9-.3 0-2.4-1.8-4.5-4.1-2.2-2.2-5.7-5-7.7-6.1-2.1-1.2-3.8-2.5-3.8-2.8 0-.4.9-1.9 2.1-3.4 2.4-3.1 4.4-2.8 9.7 1.1m-6.9 7.7c4 2.6 9.1 8 9.1 9.8 0 .6-2.4-1.1-5.2-3.8-2.9-2.7-6.4-5.7-7.8-6.6-3.9-2.6-.4-2.1 3.9.6m-3.6 1.8c8.2 5.5 13.8 12.7 10.9 14-.4.1-4.6 5-9.2 10.8-4.7 5.8-8.8 10.7-9.1 11s-3.4 4.1-6.9 8.5c-3.4 4.4-7.8 9.7-9.7 11.9l-3.5 3.9-6.2-3.3c-3.3-1.9-7.8-4.3-9.8-5.4-2.1-1.1-3.8-2.4-3.8-2.9 0-.8 12.2-16.6 16.5-21.4.5-.6 6-7.4 12-15.2 12-15.3 13-15.9 18.8-11.9m-117.5 44.4.3 10.2-33.3.7c-18.3.4-36.7.5-40.8.3l-7.5-.3-.3-10.2-.3-10.3 30.3-.2c16.7-.2 35-.3 40.8-.3h10.5zm51.8-3.7c.5.4 3.4 2.2 6.4 3.8 3 1.7 7.3 4 9.5 5.3 2.2 1.2 7.7 4.3 12.2 6.7 7.9 4.3 10.6 6.3 8.4 6.3-1.6 0-6.1 4.9-6.1 6.6 0 2.8 3 2.7 6.1-.2 1.6-1.5 2.9-3.4 2.9-4.1 0-1.5 2.6-1.8 3.5-.3.7 1.1-5.7 9.5-19.6 25.3l-2.5 3-5.5-3.4c-11.1-7-12.4-7.5-15.3-5.6-2.4 1.6-2.7 1.6-6.8-.7-3.8-2.1-4.3-2.8-4-5.4.3-2.8-.3-3.4-6.7-7.6-3.9-2.5-7.1-4.8-7.1-5.2 0-.6 8.8-10.8 16.5-19.2 2.2-2.4 4.2-4.8 4.3-5.3.5-1.1 2.5-1.2 3.8 0m35.8 26.6c-1.5 2.3-3.4 3.3-3.4 1.8 0-1 3.2-4.3 4.2-4.3.5 0 .1 1.1-.8 2.5m-51.7 6.9c2.8 1.8 4.5 4.6 2.8 4.6-1.6 0-11.5-5.7-12-6.8-1-2.6.6-3.3 3.3-1.6 1.5 1 4.2 2.7 5.9 3.8m7 11.1c5.3 2.6 5.7 3.9 2.4 7.4-1.6 1.7-3.4 3.1-4 3.1-1.1 0-.5-2.6 1.2-4.8.7-.9.5-1.8-.7-3-1.4-1.4-2-1.5-3.7-.4-2.7 1.7-3.2 1.1-1.3-1.6 1.8-2.6 2.2-2.7 6.1-.7m15.8 1.7c1.4.6 2.5 1.5 2.5 2 0 .4.7.8 1.5.8s1.5.9 1.5 2c0 2-.2 2-5.2-.7-7.3-4-7.6-7.4-.3-4.1m-18.5 2.3c0 .3-.2.5-.5.5s-.5-.2-.5-.5.2-.5.5-.5.5.2.5.5m17.4 3.1c2.5 1.4 4.6 2.7 4.6 2.8 0 .2-1.2 1.7-2.7 3.5l-2.8 3.1-4.1-4.7c-6.3-7.3-3.8-9.6 5-4.7M515 271c0 .5-.4 1-1 1-.5 0-1-.5-1-1 0-.6.5-1 1-1 .6 0 1 .4 1 1m-1.2 7.1c-1.8 1.2-2.4 1.1-3.8-.6-.6-.8-.9-2.3-.5-3.5.7-2.1.7-2.1 3.2.6 1.9 2.1 2.2 2.9 1.1 3.5m33.2-4.5c0 1.7-2.2 1.4-2.8-.4-.2-.7.3-1.2 1.2-1.2s1.6.7 1.6 1.6m-31-.1c0 .3-.2.5-.5.5s-.5-.2-.5-.5.2-.5.5-.5.5.2.5.5m13.5 4.7c3.1 3.7 3.4 4.4 1.8 4.7-.9.2-2.9 1.7-4.4 3.3l-2.6 3.1-4.9-4.8c-2.7-2.6-4.4-4.9-3.9-5.1.6-.2 2.8-1.5 5-2.9 2.2-1.3 4.3-2.5 4.7-2.5.3 0 2.3 1.9 4.3 4.2m-16.1 3.7c4.2 2.9 10.6 9.5 10.6 10.9 0 .4-1.3 2.4-3 4.4l-3 3.6-6-5.8c-3.3-3.2-7.5-6.3-9.3-7.1-1.7-.7-3.4-1.4-3.5-1.5-1-.7 6.4-7.4 8-7.4 1.1 0 3.9 1.3 6.2 2.9m-8.3 9.6c3.9 2.6 10.9 9.3 10.9 10.6 0 .4-.8.5-1.8.2-1.2-.3-2.5.4-3.6 2.2-1.6 2.4-29.3 37.3-30.6 38.5-.3.3-1.7 2.1-3.2 4.2-1.5 2-3.3 4.2-4 5-.7.7-2.6 2.9-4.3 4.9-7.5 8.9-12.2 14.5-14.8 17.3-2.8 3.1-2.8 3.1-4.5.6-.9-1.4-3.4-4.3-5.4-6.4-2.4-2.4-3.5-4.3-3-5 1.7-2.2 14.7-18.1 15.2-18.6.3-.3 2.5-3 5-6s4.7-5.7 5-6 4.4-5.2 9-11c4.7-5.8 8.7-10.7 9.1-11 .3-.3 4.1-4.9 8.4-10.3 6.2-7.8 7.6-10.1 6.4-10.8-1.1-.7-1.1-.9.4-.9.9 0 3.5 1.1 5.8 2.5m-107.6 65.1c12.8 4 15.7 4.5 19.2 3.3 1.9-.6 3.5-.9 3.7-.7.1.1 1.7 2.2 3.5 4.6 3.8 4.9 3.7 7.6-.8 12.2-2.9 3.1-4.9 3.6-7.9 2.1-5.9-3.2-21.4-9.1-23.6-9.1-1.2 0-3.6.9-5.4 2s-3.6 2-4.1 2c-1 0-4.6-10.9-3.8-11.6.2-.3 2.2-1.8 4.3-3.4 4.5-3.4 7.7-3.7 14.9-1.4m35.4 7.5c8.7 4.7 8.6 4.7 7.8 5.5-.4.4-1.7 0-3-.9s-4.1-1.7-6.1-1.9c-2.9-.2-4.1-1-5.7-3.6-1.2-1.7-1.8-3.2-1.4-3.2s4.2 1.9 8.4 4.1m-58.5-2.2c1.7.6 4.5 6.8 4.6 9.8 0 2.8-1.9 1-3.2-3-1.1-3-2-4.2-3.4-4.2-1.5 0-1.8.6-1.6 2.7.4 3.5-1.4 3.7-2.2.2-1.4-5.3.9-7.4 5.8-5.5m56.6 8.6c-.7.9-1.5 1.3-1.7 1.1-.7-.7.7-2.6 1.9-2.6.6 0 .6.6-.2 1.5m5.5 1.6c.4.6 2.2.8 4.4.4 3.7-.6 3.8-.5 8.1 5.7 2.4 3.5 4.7 6.5 5 6.8.4.3 1.5 2 2.6 3.8 1.9 3.3 1.9 3.4 0 4.8-2.7 1.9-6.5 1.8-11.4-.6-5.2-2.5-6.3-2.5-10.9.2-2.1 1.1-7.2 3.9-11.3 6.1s-7.9 4.4-8.4 4.8c-1.6 1.5-3.4 1-4.1-1-.3-1-2.6-2.9-5-4.2-2.5-1.3-4.5-2.7-4.5-3.1s2.6-2.5 5.8-4.7c3.1-2.3 10.7-7.7 16.7-12.1 6.1-4.4 11.3-8 11.7-8s1 .5 1.3 1.1m-28.8 31.3c.7.6 1.5 3.1 1.9 5.5l.7 4.4-4.3-2.4c-4.3-2.4-5.2-3.7-6.5-9.8-.7-3.4-.7-3.4 3.1-1.1 2.2 1.3 4.4 2.8 5.1 3.4m23-4.7c-.4.3-1 .3-1.4 0-.3-.4 0-.7.7-.7s1 .3.7.7"/><path d="M403.1 216.3c-1.6 1.6-1.4 2.8.5 2.5 2.3-.4 2.8 1.6 1 3.4-1.3 1.3-1.2 1.7.6 3.2 1.4 1.3 1.7 2.1 1 2.8-.8.8-1.6.7-2.7-.2-1.2-1-1.5-1-1.5.3 0 2.1 2.4 3.9 4.3 3.1 1.3-.5 1.5-1.9 1.3-7.2-.2-3.7-.4-7-.5-7.3-.2-1.3-2.9-1.7-4-.6M413.4 217.5c-2 3-1.1 4.7 1.1 1.9 1.4-1.8 1.4-1.7 1.4 1.1 0 1.6-.6 4.1-1.4 5.5-2.4 4.1-1.9 6.2 1.3 5.8 2-.2 2.8-.9 3-2.8.4-2.1.2-2.2-1.2-1.1-2.5 2.1-2.8.8-.7-3.4 1.9-4 1.8-6.7-.4-8.5-1.1-.9-1.8-.5-3.1 1.5M445 217.5c-1.1 3-1.3 7.8-.4 11.3.5 1.6 1.3 2.2 2.8 2 3.1-.4 4.4-6.5 2.5-11.4-1.8-4.7-3.6-5.4-4.9-1.9m3.8 5.4c.2 2.4 0 5.1-.3 5.9-1.1 2.8-2.5-.7-2.5-6.1 0-6.2 2.4-6 2.8.2M456.2 216.2c-1.4 1.4-1.6 11.6-.3 13.6.5.8 1.7 1.2 2.7 1 1.6-.3 2-1.4 2.2-6 .4-7.8-1.6-11.6-4.6-8.6m2.8 7.4c0 3-.4 5.4-1 5.4s-1-2.7-1-6.1c0-3.7.4-5.8 1-5.4.6.3 1 3.1 1 6.1M435.7 223.7c.2 6.4.5 7.9 1.9 8.2 1.2.2 1.5-.2 1-1.4-.3-.9-.6-4.6-.6-8.1 0-4.5-.4-6.4-1.3-6.4s-1.2 2-1 7.7M423 224c0 .5 1.4 1 3 1 1.7 0 3-.5 3-1 0-.6-1.3-1-3-1-1.6 0-3 .4-3 1M525.5 224.7c-3.3 3.6-3.3 6.3-.1 6.3 2.8 0 8.2-6.2 7.1-8s-4.4-1.1-7 1.7m2.7 2.5c-1.2 1.2-2.4 2-2.7 1.7-.2-.3.5-1.6 1.6-2.8 1.2-1.2 2.4-2 2.7-1.6.3.3-.4 1.5-1.6 2.7M513.9 238.2c-3.3 3.6-3.7 5.6-1.3 6.5 1 .4 2.8-.7 5.1-3s3.4-4.1 3-5.1c-1-2.5-3.6-1.9-6.8 1.6m5.1-.7c0 1.3-5 5.8-5.6 5.2-.4-.4.3-1.8 1.6-3.2 2.2-2.3 4-3.2 4-2M550.1 258.7c-3.5 4.2-3.8 5.8-1.5 6.7 1.1.4 3-.7 5.5-3.3 2.6-2.5 3.7-4.4 3.3-5.5-1-2.7-4.1-1.8-7.3 2.1m3.5 1.8c-.9 1.4-2.4 2.5-3.2 2.5-1.4 0-1.5-.2-.3-1.8 1.8-2.2 4.3-4.1 4.8-3.6.2.2-.4 1.5-1.3 2.9M521 259c0 .7.3 1 .7.7.3-.4.3-1 0-1.4-.4-.3-.7 0-.7.7M526 262c0 .5.5 1 1.1 1 .5 0 .7-.5.4-1-.3-.6-.8-1-1.1-1-.2 0-.4.4-.4 1M402 404.1c0 2 2.1 4.9 3.5 4.9 1.8 0 2-3.1.3-4.8-1.5-1.5-3.8-1.6-3.8-.1M164 214c0 .7.3 1 .7.7.3-.4.3-1 0-1.4-.4-.3-.7 0-.7.7M575 262.2c0 1.7 3.8 6.9 4.4 6 .3-.6-.5-2.3-1.9-3.9-1.3-1.5-2.5-2.5-2.5-2.1M582 273.3c0 1.1 2.9 6.7 3.5 6.7.3 0 .5-.6.5-1.4 0-1.4-3.9-6.7-4-5.3M588 283.3c0 1.4 3.3 6.7 4.2 6.7.4 0 .8-.3.8-.8 0-1-4.9-6.9-5-5.9M594 293.3c0 1.4 3.3 6.7 4.2 6.7.4 0 .8-.3.8-.8 0-1-4.9-6.9-5-5.9M600 303.3c0 1.4 3.3 6.7 4.2 6.7.4 0 .8-.3.8-.8 0-1-4.9-6.9-5-5.9M605.8 313.1c-2.4 1.4-2.3 3.2.8 8 1.7 2.8 2.4 5 2.1 6.7-.6 3.2.8 7.2 2.5 7.2.7 0 1.9.9 2.6 2 .8 1.4 2.3 2 4.6 2 3.7 0 6.2-2.2 6.8-6 .1-1.4 1-2.5 1.8-2.6s4.3-.2 7.8-.2c9.5-.3 7.6-2.2-2.2-2.2-7.9 0-8.4-.1-9-2.3-.5-2.2-4.2-4.7-6.9-4.7-.7 0-2.5-2-4-4.5-3-4.7-4-5.1-6.9-3.4m3.2 2.4c0 .8-.9 1.5-2 1.5-2 0-2.6-1.1-1.3-2.3 1.2-1.3 3.3-.7 3.3.8m2 3c0 .9-.9 1.5-2.2 1.5-2.1 0-2.1 0-.2-1.5 2.4-1.8 2.4-1.8 2.4 0m2.5 3.5c-.3.5-1.3 1-2.1 1s-1.2-.5-.9-1c.3-.6 1.3-1 2.1-1s1.2.4.9 1m.7 4.2c-.6.6-1.5.8-1.9.4s-.1-1.1.7-1.6c1.9-1.2 2.7-.3 1.2 1.2m7.8-.7c2.7 3.3-2.4 8.9-7.6 8.3-2.7-.3-5.4-3.1-4.2-4.4.4-.3 1.4.1 2.3 1 1.9 1.9 2 1.9 4.7.5 1.6-.8 1.9-1.7 1.4-4-.6-3.2 1.2-4 3.4-1.4m-5 2.5c0 .5-.7 1-1.6 1-.8 0-1.2-.5-.9-1 .3-.6 1-1 1.6-1 .5 0 .9.4.9 1m7 4.5c0 .3-.2.5-.5.5s-.5-.2-.5-.5.2-.5.5-.5.5.2.5.5m-2.9 3.8c-1.3 1.3-2.6.3-1.6-1.2.3-.6 1.1-.8 1.7-.5.6.4.6 1-.1 1.7m-4.1.2c0 .3-.2.5-.5.5s-.5-.2-.5-.5.2-.5.5-.5.5.2.5.5M701.7 322.7c-.4.3-.7 2.6-.7 5 0 3.1.5 4.5 1.6 5 2.1.8 3.1-1 2.9-5.1-.3-4.8-1.9-6.8-3.8-4.9m2.3 2.3c0 .5-.4 1-1 1-.5 0-1-.5-1-1 0-.6.5-1 1-1 .6 0 1 .4 1 1m1 5.1c0 .5-.7.9-1.5.9-1.5 0-2-1.2-.9-2.3.8-.8 2.4.1 2.4 1.4M709.4 323.1c-.5.9-.2 1 .9.6 1.3-.5 1.7 0 1.9 1.8 0 1.4.1 3.1.2 3.7.1.7-.7 1.2-1.7 1.2-1.4-.2-1.5.1-.6 1.3 1 1.2 1.4 1.2 2.6 0 1-.9 1.1-2.4.5-5.2-.8-4-2.5-5.5-3.8-3.4M718.2 322.9c-1.9 1.2-1 4.7 1.1 4.3 1.2-.2 1.7.4 1.7 1.9s-.5 1.9-1.5 1.5c-.9-.3-1.5 0-1.5.9 0 1.8 2.1 2 3.8.3 1.9-1.9 1.4-4.6-1-5.9-1.4-.8-1.8-1.4-1-1.7 1.3-.4 1.7-2.2.5-2.2-.5 0-1.4.4-2.1.9M652.3 325.3c-2.3 5 1 11.3 4.2 8.1 1.8-1.8 1.5-6.5-.6-9.1-1.6-1.9-2.4-1.6-3.6 1m3.5 5c-.2 1.2-.7 2.2-1.3 2.2-1.2 0-1.9-4.1-1-6.3.6-1.6.7-1.6 1.6.1.6 1 .9 2.8.7 4M660.5 324c-.3.5.1 1 1 1 1.2 0 1.5.5 1.1 1.6-1.4 3.8-1.7 6.2-.7 6.8.7.5 1.1-.3 1.1-2.1 0-1.6.5-3.4 1.1-4 .7-.7.9-1.9.6-2.7-.7-1.8-3.3-2.1-4.2-.6M668.7 323.6c-1.4 1.4-.7 4.3 1.4 5.8 2 1.4 1.8 4.3-.2 3.1-.5-.4-.9-.2-.9.4 0 1.7 1.7 2.1 2.9.7 1.8-2.1 1-10-.9-10.4-.9-.1-1.9 0-2.3.4m3.3 3c0 1.7-2.2 1.4-2.8-.4-.2-.7.3-1.2 1.2-1.2s1.6.7 1.6 1.6M694.7 323.6c-.7.8.4 8.7 1.4 9.8.5.6.9-1.2.9-4.1 0-4.8-.9-7.1-2.3-5.7M644.7 324.7c-1.4 1.3-.6 4.3 1.3 5.5 2.4 1.5 2.6 2.8.5 2.8-.8 0-1.5.5-1.5 1.1s.8.9 1.8.7c2.2-.4 3.1-8.6 1-9.9-1.6-1.1-2.3-1.1-3.1-.2m3.1 3.1c.2.7-.3 1.2-1.2 1.2s-1.6-.7-1.6-1.6c0-1.7 2.2-1.4 2.8.4M678.1 327.6c-1.4 4-1.5 3.9 1.7 4.9 2.2.6 2.3.5 2-3.6-.4-5.4-2-6-3.7-1.3m1.6 2.6c-.3.8-.6.5-.6-.6-.1-1.1.2-1.7.5-1.3.3.3.4 1.2.1 1.9M685.5 329c-.4.6.5 1 2 1s2.4-.4 2-1c-.3-.6-1.2-1-2-1s-1.7.4-2 1M418 333.5c-3.2.8-4.9 1.9-6 3.9-1.5 2.7-1.5 2.7-19.2 2.5-9.8-.1-17.8.2-17.8.7s8.2 1.1 18.3 1.4c18.3.5 18.3.5 21.6 4.2 1.8 2.1 4 3.8 5 3.8.9 0 3.5-1.9 5.9-4.1 4.5-4.3 4.7-5.7 1.7-10.5-1.8-2.8-4-3.2-9.5-1.9m4 2c0 .3-.2.5-.5.5s-.5-.2-.5-.5.2-.5.5-.5.5.2.5.5m-3.4 2c1.2.8 2.7 2.8 3.4 4.5 1.1 2.7 1.1 3.4-.3 4.7-1 1-2.2 1.3-3.4.8-1.6-.8-1.6-.9.5-1.2 1.4-.3 2.2-1.1 2.2-2.4 0-5.6-5.9-8.6-6.1-3.2 0 2.7-.1 2.7-1.1.6-.8-1.7-.8-2.6.2-3.8 1.5-1.9 2-1.9 4.6 0m7.4 1.5c-2.1 1.4-3 1.2-3-.4 0-1.8 2.2-2.7 3.5-1.4.6.6.5 1.2-.5 1.8m-7 3.6c0 .8-.4 1.2-1 .9-.5-.3-1-1.3-1-2.1s.5-1.2 1-.9c.6.3 1 1.3 1 2.1m8-.6c0 .5-.4 1-1 1-.5 0-1-.5-1-1 0-.6.5-1 1-1 .6 0 1 .4 1 1m-11 2.5c0 .3-.2.5-.5.5s-.5-.2-.5-.5.2-.5.5-.5.5.2.5.5M290.6 335.6c-2.3 2.2-2 4 1 6.3 2.9 2.3 2.3 4.5-.9 3.5-1.9-.6-2-.5-.8 1 .7.9 1.7 1.6 2.2 1.6 2 0 3.9-3.5 3.9-7 0-3.2-1.9-7-3.5-7-.2 0-1.1.7-1.9 1.6m3.2 3.1c-.4 2.2-2.2 2-2.6-.1-.2-1 .3-1.6 1.3-1.6s1.5.7 1.3 1.7M300.2 335.2c-1.9 1.9-1.4 5.6.8 7 1.1.7 2 1.9 2 2.6 0 .9-.7 1.1-2 .7-2.4-.8-2.7 1-.3 1.9 2.7 1.1 4.7-1.8 4.5-6.5-.3-5.8-2.4-8.3-5-5.7m2.8 3.8c0 1.1-.4 2-1 2-.5 0-1-.9-1-2s.5-2 1-2c.6 0 1 .9 1 2M318.7 336c-1.7 2.5-1.4 8.8.6 10.7 1.3 1.3 1.8 1.2 3.7-.7 1.5-1.5 2-2.9 1.6-4.3-.3-1.2-.6-3-.6-3.9 0-1-.9-2.2-1.9-2.8-1.6-.8-2.3-.6-3.4 1m4.1 4.3c.4 3-1.4 6.1-2.9 5.1-.5-.3-.9-2.3-.9-4.5 0-3.3.3-4 1.8-3.7 1 .2 1.8 1.4 2 3.1M338.2 335.2c-.7.7-1.2 3.3-1.2 5.8 0 5.4 1.4 7.4 4.2 5.9 1.4-.7 1.8-2.1 1.8-5.9s-.4-5.2-1.8-5.9c-1.3-.7-2.3-.6-3 .1m3.3 3.8c.7 2.2-.2 6-1.5 6-1 0-2-4.9-1.3-6.7.7-1.9 2.1-1.6 2.8.7M348 335c-.7.4-1.4 2.8-1.5 5.4-.4 5.4 1.5 8.2 4.5 6.6 1.3-.7 1.8-2.1 1.7-5.9-.1-5.1-2.1-7.7-4.7-6.1m2.8 3.1c-.2.6-.8 1-1.3 1s-1.1-.4-1.3-1 .4-1.1 1.3-1.1 1.5.5 1.3 1.1m0 5.6c-.4 2.2-2.2 2-2.6-.1-.2-1 .3-1.6 1.3-1.6s1.5.7 1.3 1.7M356.6 335.9c-2 2.2-2.1 7-.1 9.8 3.1 4.4 7.2-.5 5.5-6.6-1.2-4.5-3.2-5.7-5.4-3.2m3.7 3.2c.7 2.6-1 7.2-2.3 6.4-1.6-1-1.3-8.5.4-8.5.7 0 1.6.9 1.9 2.1M366.7 335.5c-2.2 2.1-2.2 8.8-.1 11 1.5 1.5 1.8 1.5 3.5-.1 2.4-2.2 2.5-7.5.1-10.4-1.7-2.1-1.9-2.1-3.5-.5m3.1 5.7c-.2 2.4-.7 4.3-1.3 4.3-.5 0-1.1-1.9-1.3-4.3-.3-3.3 0-4.2 1.3-4.2s1.6.9 1.3 4.2M280.1 336.8c-1.2 2.2 1.3 6.7 3.1 5.6.6-.4.8.1.6 1.2-.2 1.2-1.1 1.8-2.2 1.6s-1.7.2-1.4 1c.8 2.3 3.6 2 5.4-.7 2.3-3.6.9-9.9-2.3-10.3-1.3-.2-2.6.4-3.2 1.6m3.9 2.2c0 1.1-.4 2-.9 2-1.1 0-2.2-2.6-1.4-3.4 1.2-1.2 2.3-.5 2.3 1.4M310.5 339c-1.9 3.6-1.9 6-.1 6 .8 0 1.6.5 1.8 1.2.9 2.7 2.6-.5 2.3-4.5-.2-2.3-.4-4.5-.4-5-.2-1.7-2.2-.5-3.6 2.3m1.9 4.2c-.9 1.4-2.3-.2-1.7-1.8.4-1.2.8-1.3 1.4-.3.4.7.5 1.7.3 2.1M328 342c0 .5 1.1 1 2.5 1s2.5-.5 2.5-1c0-.6-1.1-1-2.5-1s-2.5.4-2.5 1"/><path d="M407 347c-1.4 1-2.2 2.1-2 2.4.8.7 5.3-1.7 5.8-3.2.5-1.7-.9-1.5-3.8.8M424.7 412.7c-.4 1.5-.2 18.9.2 21.5 0 .5 19.9.8 44.1.8h44.1l-.3-11.8-.3-11.7-43.7-.3c-41-.2-43.7-.1-44.1 1.5M510 423v10h-83v-20h83z"/><path d="M435.3 414.7c-.7.3-1.3 1.2-1.3 2 0 1.2.3 1.3 1.4.4 2-1.7 3 .3 1.5 3.1-.9 1.6-.9 2.3 0 2.6 1.3.4 1.5 4.8.2 5.7-.6.3-1.4-.3-2-1.2-.5-1-1.3-1.4-1.7-1-1.2 1.2 2.9 4.8 4.4 3.8 1.4-.8 1.7-3 1.4-10.2-.2-4.6-1.3-6.1-3.9-5.2M445.1 415.9c-1.6 2.9-1.4 5 .3 2.8 3.2-4.2 3.6.3.5 6.2-1.1 2.2-1.8 4.5-1.4 5.1 1.1 1.8 4.5 1.1 5.4-1.3 1-2.6.4-3.8-.9-1.7-1.8 2.9-2.2 0-.5-3.6 1.3-2.7 1.5-4.5.9-6.2-1.2-3.3-3-3.8-4.3-1.3M476.7 414.7c-1.5 1.4-.5 2.3 1.9 1.7s2.6-.5 1.9 1.7c-.4 1.3-1.3 3.5-2 4.9s-1.5 3.7-1.9 5.2c-.6 2.6-.4 2.8 2.8 2.8 3.6 0 5.6-2.4 3.6-4.4-.7-.7-1-.5-1 .7 0 .9-.7 1.7-1.5 1.7-2.3 0-1.9-2.8 1.7-10.7.6-1.1.7-2.6.4-3.2-.8-1.2-4.9-1.5-5.9-.4M488.6 415.5c-1.8 1.8-2.1 4.5-.6 4.5.6 0 1-.7 1-1.5s.5-1.5 1-1.5c1.6 0 1.2 4.3-.9 8.6-2.2 4.5-1.9 5.4 1.5 5.4 1.7 0 2.4-.5 2.4-2 0-1.4-.5-1.8-1.6-1.3-1.3.5-1.5.2-.9-1.8.4-1.3 1.1-2.8 1.6-3.4 1.4-1.4 1.1-6.1-.5-7.4-1.1-.9-1.8-.8-3 .4M467 419.7c-2 8.2-2.3 11.3-1.1 11.3.6 0 1.1-1.1 1.1-2.5 0-1.8.5-2.5 2-2.5s2 .7 2 2.5c0 1.4.5 2.5 1.1 2.5.8 0 .9-1.1.4-3.3-.4-1.7-1.1-4.9-1.5-7-1.2-6.2-2.6-6.5-4-1m1.7 2.5c-.3.8-.6.5-.6-.6-.1-1.1.2-1.7.5-1.3.3.3.4 1.2.1 1.9M455 423c0 .5 1.4 1 3 1 1.7 0 3-.5 3-1 0-.6-1.3-1-3-1-1.6 0-3 .4-3 1M378.1 425c-1.5 2.1-2.8 2.9-4 2.5-2.4-.7-6.1 3-6.1 6.3s-8.4 16.2-10.6 16.2c-2.4 0-7.4 2.9-11.5 6.8-2.1 1.9-4.8 4.1-5.8 4.9-1.6 1-1.9 2.1-1.4 4.3.6 3.5.6 3.5-3.6 1.4-3.1-1.6-3.4-1.5-5.9.3-1.5 1.1-3.2 3.1-3.9 4.4-1.3 2.6-1.4 2.6-18.8 2.8-7.8.1-10.6.4-9.8 1.2.7.7 5.8.9 14.6.7 13.5-.3 13.5-.3 14.6 2.9.7 1.8 3.2 4.9 5.7 7 2.5 2 5.4 5.4 6.5 7.5 2 3.8 2 3.8-.6 6.6-2.4 2.5-3.1 4.2-2 4.2.3 0 1.7-1.2 3-2.8 2.4-2.7 2.4-2.7 7 1.8 2.5 2.5 5.3 5.8 6.2 7.5 3 5.6 6.9 8 10.7 6.5 2.9-1.1 4.6-3.8 4.6-7.5 0-1.4.7-2.8 1.5-3.1.8-.4 1.5-1.2 1.5-1.8 0-.7 1.4-2.3 3.1-3.5 3-2.3 3.3-2.3 6.6-.7 4.5 2.1 5.5 2 8.1-.7 2.8-3 2.8-8 .1-13.2-2.2-4-4.9-13.2-4.9-16.4 0-1 .9-2.1 1.9-2.4 2.6-.6 5.7-6.5 4.2-8-.6-.6-1.1-1.6-1.1-2.2 0-1.9 5.2-7.5 6.9-7.5 1 0 2.2-.5 2.9-1.2.8-.8 1.6-.5 3.1 1.3 1.6 1.8 2 2 2.1.8 0-.9-.6-2.2-1.3-2.8-1.5-1.2-1.2-6.3.5-9.8 1.3-2.6-1.1-6.4-6.7-10.9-8.9-7.2-13.8-8.1-17.4-3.4m10.5.9c5.7 3.3 12.4 9.6 12.4 11.7 0 .8-.9 1.4-1.9 1.4-1.5 0-1.9.7-1.7 3.2.1 2.9-.2 3.3-2.6 3.6-2 .2-2.8.9-2.8 2.2 0 3.5-1.6 2.9-7.2-2.3-3-2.9-7.4-6.1-9.7-7.1-2.2-1.1-4.1-2.2-4.1-2.5 0-.9 11-13.1 11.8-13.1.4 0 3 1.3 5.8 2.9m-17 5.6c-.9.9-1.6 1.3-1.6.8 0-1.2 2.2-3.4 2.8-2.8.2.2-.3 1.1-1.2 2m4.2 9.4c3.7 2 9.7 7 12.1 10.3 1 1.4.9 2.1-.4 4.2-1.2 1.8-1.5 3.5-1 5.8l.8 3.2-3.9-2.9c-2.2-1.6-4.4-3.4-5.1-4-.6-.7-4.5-2.9-8.7-4.9-8.6-4.3-8.2-3-3-11.1 2-3 4.2-3.1 9.2-.6m-4 17.8c5.5 5.5 10.3 14.5 11.6 21.7.4 2.2 1.9 6.2 3.2 8.9 1.4 2.7 2.3 5.6 2.1 6.5-.2 1.1-.6.7-1.2-1.3-.4-1.7-1.6-4.2-2.7-5.7-1-1.5-2.6-5.3-3.4-8.5s-2.5-7.8-3.7-10.3c-2.7-5.6-10.9-14-15.9-16.3-4.9-2.3-4.8-2.7.5-1.4 2.9.7 5.8 2.7 9.5 6.4m-6.4-.7c7.2 4.9 12.2 13 14.6 23.4.6 2.7 2 6.2 3.1 7.8 2.7 3.8 3.7 10.5 1.7 11.3-.8.3-2.8-.1-4.4-1-1.6-.8-3.4-1.5-4.1-1.5-.6 0-3.8 2.3-7.2 5-5.4 4.6-6 5.5-6.3 9.3-.4 5.2-2.7 6-6.3 2-1.4-1.5-4.9-5.5-7.9-8.8s-7-8.8-9-12.3c-2.1-3.4-4-6.2-4.4-6.2-1.2 0-5.8-4.4-7-6.7-.7-1.2-1.2-3.8-1.2-5.7 0-3.1.3-3.6 2.4-3.6 1.4 0 2.8.4 3.1 1 1.9 3.1 9.2-2.4 8.2-6.2-.3-1.2 1.1-3.1 4.5-6 2.8-2.4 5.8-4.6 6.7-5 2.9-1.3 9.2.2 13.5 3.2m10.9.1c2.7 1.4 8.7 7 8.7 8.1 0 .4-1 .8-2.2.7-1.5 0-3.6-1.7-6.1-5-3.9-5.1-4-5.6-.4-3.8m-41.7 11.4c1.6 1.2 1.6 1.4.3 1.5-.9 0-2.2-.7-2.9-1.5-1.6-1.9 0-1.9 2.6 0"/><path d="M395 444c0 .5.5 1 1 1 .6 0 1-.5 1-1 0-.6-.4-1-1-1-.5 0-1 .4-1 1M347.3 472.3c-6.6 5.1-7.7 9-4.4 16.3 2.2 4.7 8.6 10.4 11.8 10.4 2 0 8.1-4.4 11-8 3.4-4.2-.4-15.3-6.5-19.5-4.8-3.3-6.8-3.1-11.9.8m12.4 1.9c4.1 4.4 5.3 7 5.3 11.2 0 2.9-.8 4.4-4.1 7.6-5 4.9-7.6 5-12 .7-4.5-4.3-5.9-6.9-5.9-11.4 0-3.2.6-4.4 4.2-7.5 5.4-4.7 8.4-4.8 12.5-.6M329 475.5c0 2.6 2.5 4.4 4 2.9 1.2-1.3-.7-5.4-2.5-5.4-.9 0-1.5.9-1.5 2.5m2 0c0 .3-.2.5-.5.5s-.5-.2-.5-.5.2-.5.5-.5.5.2.5.5M379.4 492.5c-.8 1.9.5 4.6 2.4 5.3 2.3.7 2.5-2.9.4-5.1-2-2-2.2-2-2.8-.2m2.3 3.2c-.4.3-.7 0-.7-.7s.3-1 .7-.7c.3.4.3 1 0 1.4M356.2 508.9c-1 .6-1.1 1.3-.1 3.4 1.4 3 3.6 3.5 4.6 1.1.8-2.1-2.7-5.6-4.5-4.5m2.8 3.1c0 .5-.2 1-.4 1-.3 0-.8-.5-1.1-1-.3-.6-.1-1 .4-1 .6 0 1.1.4 1.1 1M399 425c-1.2 1.7-1.9 3.4-1.6 3.7.3.4.7.4.9.2.1-.2 1.2-1.6 2.5-3 1.4-1.6 1.9-2.9 1.4-3.3-.6-.3-2 .8-3.2 2.4M467 451.4v14.3l-4.2 1.6c-2.4.9-7.7 2.5-11.8 3.7s-9.4 2.8-11.8 3.6c-5.9 1.9-7.1 1.8-8.4-1.1-.6-1.4-1.5-2.5-2.1-2.5-.5 0-1.8 1.1-2.9 2.5-2.5 3.2-4.1 3.2-5.8 0-1-1.8-1.7-2.2-2.6-1.5-.9.8-2.1 0-4.6-3-3.8-4.3-4.9-4.8-6.7-2.6-.8 1-2.4 1.2-5.1.9-4-.6-4-.5-4.1 2.8-.1 1.9 0 4.5 0 5.9.1 1.4-1.2 4.7-2.9 7.3-1.6 2.6-3 5.1-3 5.5 0 2.4 17 12.2 21.3 12.2 2.6 0 6.4-3.8 15.6-15.2 5.9-7.4 5.6-7.2 23.1-12.3 6.9-2 13.6-4 15-4.4 2.5-.8 2.5-.8 2.8-16.4.2-10.2-.1-15.7-.8-15.7-.6 0-1 5.2-1 14.4m-52 22.1c4.2 4.2 5.3 5.8 4.5 6.9-.6.8-2.7 3.9-4.8 7-3.7 5.5-3.7 5.5-7 3.6-5.1-3.1-10-8.6-9.1-10.2 1.6-2.6 9.9-12.8 10.4-12.8.3 0 3 2.5 6 5.5m-11.9-1.6c-.6 1-1.8 2.4-2.7 3.2-1.6 1.2-1.7 1.2-1.1-.4.4-1 .7-2.4.7-3.1 0-.6.9-1.2 2-1.3 1.6-.1 1.8.2 1.1 1.6m27.4 6.1c0 1.3-.5 2.5-1.1 2.7-1.3.4-2.6-3.5-1.8-4.9 1-1.6 2.9-.2 2.9 2.2m-4.5 2.5c0 1.7-3.8 4-4.8 2.9-.4-.4-.1-.9.6-1.1.6-.3 1.2-1.1 1.2-1.9s.7-1.4 1.5-1.4 1.5.7 1.5 1.5m-23.9 8.2c10.7 9.6 11.4 11.4 2.8 6.9-6.7-3.6-10.4-7-9.6-9 .9-2.4 2.2-2 6.8 2.1m20.9.2c0 .5-.6 1.4-1.4 2-1.2 1-1.7.8-2.6-.9-1.5-2.8-.4-4.3 2.1-3 1 .6 1.9 1.4 1.9 1.9m-5.2 3.7c.1 1-.2 2.6-.8 3.4-.8 1.3-1.1 1.3-2.6-.1-1.3-1.4-1.4-2-.2-3.8 1.5-2.5 3.2-2.3 3.6.5M404 454.3c0 .8.7 2 1.5 2.7 1.2 1 1.5 1 1.5-.3 0-.8-.7-2-1.5-2.7-1.2-1-1.5-1-1.5.3"/><path d="M409 461.4c0 .8.7 1.6 1.5 2 1.7.6 1.8.4.9-1.8-.8-2-2.4-2.1-2.4-.2M213.3 462.8l-9.3.3V487h45.4c40.8 0 45.4-.2 46-1.6.3-.9.3-6.5 0-12.5l-.7-11-36.1.3c-19.9.2-40.3.4-45.3.6m79.7 11.6V485h-86v-9.8c0-5.4.2-10.1.4-10.3.3-.3 19.6-.6 43-.8l42.6-.3z"/><path d="M258.7 465.7c-1.6 1.5-.6 3 1.8 2.5 3-.5 3-.3.6 5.1-3.7 8.1-3.7 8.7.3 8.7 3.1 0 3.6-.3 3.5-2.3 0-1.2-.3-1.6-.6-1-.2.7-1.3 1.3-2.4 1.3-2 0-1.9-.7 1.3-7.9 1-2.4 1.7-5 1.4-5.7-.5-1.4-4.7-1.9-5.9-.7M214.7 466.6c-.4.4-.7 1.4-.7 2.2 0 1.1.3 1.2 1.4.3.9-.7 1.7-.8 2-.2.8 1.2-.3 4.1-1.5 4.1-.5 0-.9.4-.9 1 0 .5.7 1 1.5 1 .9 0 1.5.9 1.5 2.4 0 3.2-2 4.4-2.7 1.7-.3-1.1-.9-1.8-1.4-1.5-1.3.8.9 4.4 2.6 4.4 2.5 0 3.5-3.5 2.7-9.6-.5-4.1-1.2-6-2.3-6.2-.8-.1-1.8 0-2.2.4M225.4 467.4c-.3.8-.4 2.3-.1 3.3.4 1.6.6 1.5 1.2-.5.4-1.2 1.1-2.2 1.6-2.2 1.6 0 1 4.8-1.1 8.5-2.7 4.8-2.5 5.5 1 5.5q3 0 3-1.5c0-.8-.7-1.5-1.6-1.5-1.1 0-1.4-.5-.9-1.8 2.8-6.6 2.9-7.3 1.9-9-1.5-2.3-4.3-2.7-5-.8M249.7 467c-.3.8-1.1 4.5-1.9 8.2-1.3 5.8-1.3 6.8-.1 6.8.8 0 1.3-.6 1.2-1.3-.5-4.3 2.6-5.4 3.7-1.2.3 1.4 1.1 2.5 1.6 2.5.6 0 .7-.8.3-1.7-.3-1-1.1-4-1.7-6.8-.6-2.7-1.4-5.7-1.8-6.5-.8-1.3-.9-1.3-1.3 0m1.3 6.1c0 1.1-.4 1.8-1 1.4-.5-.3-.7-1.2-.3-2 .7-2.1 1.3-1.9 1.3.6M271.9 466c0 .3-.1 4-.2 8.3-.2 6.3.1 7.7 1.3 7.7 1.3 0 1.5-1.2 1.2-7.3-.2-3.9-.8-7.6-1.3-8.2-.5-.5-.9-.7-1-.5M236.5 474c-.4.6.8 1 3 1s3.4-.4 3-1c-.3-.6-1.7-1-3-1s-2.7.4-3 1M413 466.1c.1 1.5 2.3 4.9 3.4 4.9 1.3 0 .5-2.8-1.4-4.5-1.5-1.4-2-1.5-2-.4M372 504.9c0 .9 2.4 2.1 4.2 2.1.6 0 .6-.6-.2-1.5-1.4-1.6-4-2-4-.6M330.1 509.4c-1 1.8-1 2.9-.2 4.5 1.6 3 2.4 2.6 1.6-.8-.3-1.7-.2-3.2.4-3.6 1.3-.7 1.5-2.5.3-2.5-.5 0-1.4 1.1-2.1 2.4M377.2 511c0 1.4.2 1.9.5 1.2.2-.6.2-1.8 0-2.5-.3-.6-.5-.1-.5 1.3M399 509.7c-1.9.3-4.1.9-4.7 1.5-1.4 1.1-1.7 4.9-.7 8.3.5 2.1 6.1 6.5 8.1 6.5 1.5 0 6.8-5.1 7.6-7.3.6-1.5 2.2-1.7 14.7-1.7 8.7 0 14-.4 14-1s-5.4-1-14.3-1c-14.3 0-14.3 0-17.2-3-1.6-1.7-3.1-2.9-3.4-2.8-.3 0-2.2.3-4.1.5m2.5 6.4c2.2 4.1 2 7.9-.4 7.9-1 0-2.4-.7-3.2-1.6-1.1-1.4-1-1.5.6-1.2 2.3.4 3.2-2.6 1.5-4.7s-2.9-1.9-4 .7c-.8 2.1-.9 2.1-.9-.8-.1-1.7.2-3.3.5-3.6 1.2-1.3 4.6.6 5.9 3.3m5.3-.3c.2 1.2 0 2.2-.5 2.2-1.2 0-3.3-3.7-2.6-4.4 1.2-1.2 2.8 0 3.1 2.2M442 511.5c-1.7 2-.9 4.8 1.8 6s2.3 3.1-.7 2.7c-2.7-.3-2.4 2.1.3 2.6 3.9.8 6.3-8 3-11.2-1.9-2-2.8-2-4.4-.1m3.2 3.7c-1.5 1.5-2.6.4-1.8-1.8.5-1.3.9-1.5 1.8-.6s.9 1.5 0 2.4M451.5 511.7c-2.1 2-1.5 4.6 1.3 5.8 2.7 1.2 2.3 3.1-.6 2.8-1.5-.2-2 .2-1.6 1.2 1 2.5 4.1 1.7 5.4-1.4 2.3-5.7-1-12-4.5-8.4m3.5 2.9c0 1.6-1.6 1.9-2.5.4-.8-1.3.4-3.2 1.6-2.5.5.4.9 1.3.9 2.1M460.6 511.6c-1.9 1.8-1.9 2-.6 4.5.6 1 1.8 1.9 2.6 1.9.9 0 1.4.6 1.1 1.2-.2.7-1.4 1.2-2.7 1-1.9-.2-2.1 0-1 1.3 2.8 3.3 6 .5 6-5.4 0-2.4-2.1-6.1-3.5-6.1-.2 0-1.1.7-1.9 1.6m2.6 3.9c-1.2 2.2-2.7.2-1.8-2.2.5-1.2 1-1.3 1.7-.6s.8 1.7.1 2.8M470.7 513.9c-2.3 3.8-2.2 6.2.3 6.8 1.1.3 2 1 2 1.7 0 .6.4.4.9-.4.9-1.7.3-11-.8-11-.4 0-1.4 1.3-2.4 2.9m2.3 3.6c0 .8-.7 1.5-1.5 1.5-.9 0-1.2-.6-.9-1.5.4-.8 1-1.5 1.5-1.5s.9.7.9 1.5M478.2 512.2c-2.5 2.5-.5 10.8 2.6 10.8 2.5 0 4.1-6.5 2.6-10.4-.7-1.9-3.5-2.1-5.2-.4m3.6 4.8c-.5 4.9-2.8 5.1-2.8.2 0-2.1.3-4.2.7-4.5 1.3-1.3 2.4 1.1 2.1 4.3M496.2 512.2c-2.5 2.5-.5 10.8 2.6 10.8 2.5 0 4.1-6.5 2.6-10.4-.7-1.9-3.5-2.1-5.2-.4m3.8 4.9c0 2.8-.4 3.9-1.5 3.9s-1.5-1.1-1.5-3.8c0-2.1.3-4.2.6-4.5 1.4-1.3 2.4.6 2.4 4.4M504.4 514.6c-1.2 6.4 3 11.2 5.6 6.4.9-1.7.6-2.5-1.5-4.6-2.6-2.5-2.5-5 .1-4 .8.3 1.4.1 1.4-.4 0-.6-1.1-1-2.5-1-2 0-2.5.6-3.1 3.6m4.6 4.4c0 1.1-.7 2-1.5 2s-1.5-.9-1.5-2 .7-2 1.5-2 1.5.9 1.5 2M513.5 513.3c-1 3.8-.2 7.9 1.8 9.1 2.5 1.6 3.8-.8 3.5-6.4-.3-3.8-.7-4.5-2.5-4.8-1.7-.2-2.4.3-2.8 2.1m4.2 6.1c-.4.9-1.1 1.6-1.7 1.6-1.1 0-1.4-7.3-.2-8.4 1-1 2.6 4.9 1.9 6.8M522.7 512.4c-.4 1 0 1.2 1.5.8 1.7-.4 1.9-.2 1.3 1.7-.4 1.2-.2 2.8.5 3.6 1.6 1.9-.6 3-2.7 1.3-1.5-1.1-1.6-1.1-1 .5.4 1 .7 2.1.7 2.3s.9.4 1.9.4c2.6 0 3.2-3.1 2.2-11-.2-1.5-3.8-1.2-4.4.4M377.2 519c0 1.9.2 2.7.5 1.7.2-.9.2-2.5 0-3.5-.3-.9-.5-.1-.5 1.8M488.3 517.7c.9.2 2.3.2 3 0 .6-.3-.1-.5-1.8-.5-1.6 0-2.2.2-1.2.5M340.2 520.5c3.7 2.5 5.8 3.2 5.8 1.7-.1-.8-6.6-4.2-8.3-4.2-.6 0 .5 1.1 2.5 2.5M386 524.5c-1.9 2.3-.9 2.5 2.5.4 2.6-1.7 2.7-1.9.9-1.9-1.2 0-2.7.7-3.4 1.5M377.2 525.2c.8 2.2 3.6 3.4 5 2 .9-.9.7-1.2-1-1.2-1.2 0-2.2-.5-2.2-1 0-.6-.5-1-1.1-1s-.9.5-.7 1.2M353 526.8c0 1 7 4.5 7.7 3.9.4-.5-6-4.7-7.1-4.7-.3 0-.6.4-.6.8M367 534.4c0 .4 6.8 4.6 7.6 4.6 1.6 0-.2-2-3-3.4-3.4-1.6-4.6-1.9-4.6-1.2M381 541.7c0 .8 6.4 5.3 7.5 5.3 1.7 0-.1-1.9-3.5-3.9-2.2-1.2-4-1.9-4-1.4M395 549.8c0 1 7.1 4.5 7.7 3.8.5-.5-5.6-4.6-6.9-4.6-.5 0-.8.4-.8.8M409 557.4c0 .4 7.8 5.6 8.5 5.6 1.8 0-.1-2.3-3.5-4-3.9-2-5-2.3-5-1.6M426.5 567.5c2.7 2.3 5.5 3.3 5.5 2 0-.8-6.3-4.5-7.5-4.5-.5.1.4 1.2 2 2.5M438.5 574c1.3 1.4 1.6 2.8 1.1 5.7-.6 3.5-.5 3.7.9 1.9 1.9-2.5 1.9-6-.1-8-2.3-2.3-4-2-1.9.4M434.6 587.4c-.9 1.5-1.6 3.2-1.4 3.8s1.2-.1 2.2-1.6c.9-1.5 1.6-3.2 1.4-3.8s-1.2.1-2.2 1.6M428.7 596c-2.4 2.9-2.1 4.9.4 2.3 1.2-1.1 2-2.6 1.8-3.2-.3-.7-1.1-.3-2.2.9M413.2 601c-2.2 3.3-3.2 4-5.2 3.6-3.6-.6-4-.2-10.4 9.4-4.7 6.9-5.6 9-5.2 11.5.3 1.6.2 3.7-.3 4.4-.6.9-.6 2.2 0 3.3.8 1.4.3 2.9-2.2 6.4-2.8 4.1-3.5 4.5-6.3 4.1-4.7-.7-8.7 1.4-16.9 9.2-4.1 3.9-7.9 7.1-8.5 7.1-.5 0-2.2-.6-3.6-1.4-4-2-8-.5-10.5 4.1-1.2 2.4-1.1 2.7 4.4 13.1 1.7 3.2 1.7 3.4-.9 7.2-2.9 4.3-3.2 6.1-1.5 8.8.9 1.5.5 2.8-2.1 7-1.8 2.9-2.9 5.9-2.6 6.7.5 1.3-1.6 1.5-14.4 1.5-8.5 0-15 .4-15 .9s6.5 1.1 14.4 1.3c8 .2 14.7.6 15.1 1s-4.5 8.5-10.8 18-11.8 18.4-12.2 19.8-2.5 5.2-4.6 8.6c-2.2 3.4-3.7 6.8-3.4 7.6s-.7 3.7-2.3 6.4c-5.6 9.6-16.4 25.3-17.7 25.8-1.5.6-9.5 12-9.5 13.6 0 .5.5 1.9 1.2 2.9.9 1.5.7 2.6-1 5.5-2.6 4.3-1.2 4.8 1.8.6 1.7-2.4 2.7-2.9 5.7-2.7 3.8.2 4.7-.7 5.8-5.6.3-1.5 1.2-2.7 1.9-2.7 1.7 0 4.9-4.7 4.1-6.1-.4-.5 3.2-6.9 8-14.1s8.9-13.7 9.2-14.4 1.3-1.6 2.3-1.9 3.6-3.2 5.6-6.3c2.1-3.1 5.6-8 7.8-10.8 2.3-2.7 8.6-11.8 14.1-20.1 7.9-12 10.5-15.2 12.9-15.9 2-.6 3.9-2.4 5.6-5.4 2.3-3.9 3.1-4.5 6.1-4.6 2-.1 4.2.6 5.4 1.6 3 2.6 4.8 2.9 8.2 1.5 4.1-1.7 5.6-4.6 4.3-8-.9-2.4-.6-3 3.2-6.5 3.7-3.4 4.9-4 9-4 3.5 0 5.2-.5 6.8-2.2 2.1-2.3 2.7-6.3 1-7.3-.5-.3-1-2.3-1-4.3 0-7.3-4.7-20-8.4-23.1-2.2-1.9-2-4.6.7-8.4 2.6-3.8 3.8-4.8 4.9-4.1.5.3 2.2-.6 3.8-1.9 1.6-1.4 3.3-2.7 3.8-2.9 1.8-.7 12.2-17.4 12.2-19.6 0-1.3.4-2 1-1.7 1.3.8 5-5.4 5-8.5 0-1.7-1.3-3.9-3.7-6.2-7.5-7.1-11.1-7.6-15.1-1.8m11.4 1c4.8 3.4 6.3 6.8 4.5 10.6-2.2 5-11.4 1.6-10.4-3.9.4-2.2.1-2.8-2.1-3.7-2.9-1.1-3-1.3-1.6-4.1 1.5-2.7 4.5-2.4 9.6 1.1m-9.2 4.6c1.7.7 2.2 3.4.6 3.4-.5 0-1-.6-1-1.4s-.6-1.7-1.2-1.9c-.7-.3-1-.6-.6-.6.3-.1 1.3.2 2.2.5m-6.8 2.9c.7 1.8-1.3 4.5-3.3 4.5-1.9 0-2.8-2.7-1.3-4.5 1.6-1.9 3.9-1.9 4.6 0m4.4-.1c0 .8-1.3 3.5-3 5.9-1.6 2.5-3 4.9-3 5.3 0 1.1 7.5 7.4 8.7 7.4.4 0 2.1-2 3.6-4.5 2.7-4.2 4.7-5.7 4.7-3.5 0 1-7.9 12.8-9.1 13.6-.5.2-2.4-1-4.3-2.8s-6.1-4.7-9.3-6.3c-3.2-1.7-6-3.1-6.2-3.2-.2-.2.8-2.1 2.4-4.2 2.6-3.9 2.8-4 5.2-2.4 2.3 1.5 2.6 1.5 5.1-.4 1.5-1.1 2.8-3 3-4.2.4-2.3 2.2-2.9 2.2-.7m6.8 7.5c.4 2.7-1.4 5.1-3.9 5.1s-3.2-1.6-1.8-4.2c2.3-4.3 5.2-4.8 5.7-.9m-8.2 1.5c-.6 1.9-1.4 3.2-1.8 3-.7-.5 1.7-6.4 2.6-6.4.2 0-.2 1.5-.8 3.4m-9 8.7c5.4 3.4 9.4 6.8 9.4 8 0 .4-.7 1.5-1.6 2.4-1.5 1.4-1.9 1.2-5.2-2-2-2-5.2-4.1-6.9-4.7-2.6-1-3.2-1.6-2.7-3.1.4-1.1 0-2.3-.7-2.8-1.1-.7-.9-.9.7-.9 1.1 0 4.2 1.4 7 3.1m.7 9c4 3.3 4.7 4.9 2 4.9-1 0-3.2 2.2-5.1 5l-3.2 5-4-2.8c-2.1-1.5-3.9-3.1-4-3.5 0-.5 1.4-2.8 3.1-5.3 2-2.9 2.8-5.1 2.4-6.4-.6-1.7-.3-1.8 2.3-.9 1.5.5 4.5 2.3 6.5 4m-14.5 11.3c3.4 1.8 11.4 10.2 13.5 14.3 2.1 4 4.7 11.4 4.6 13.3 0 .8-1.4-2.1-3.1-6.4-2.4-6.3-4.3-9.2-8.7-13.6-3.1-3.1-6.7-6.4-8.1-7.3-3.1-2-1.9-2.2 1.8-.3m-.5 3.5c6.9 4.7 11.8 11.2 14 18.6 1.8 5.9 2.8 15.7 1.5 14.9-1-.6-3.8 1.4-3.8 2.7 0 .4.7 1.5 1.7 2.4 1.5 1.6 1.5 1.7-.3 1.5-3.5-.4-4.1 0-10.3 5.6-3.7 3.4-6.1 6.5-6.1 7.7 0 1.6-.3 1.8-1.2.9-.7-.7-2.1-1.2-3.1-1.2-1.6 0-1.9.5-1.3 3.1.5 2.7.4 2.8-.9 1.5-.8-.8-1.5-1.7-1.5-2s3.6-6 8-12.7c8.3-12.5 9-14.6 6.9-21-3.3-10.4-8.2-15.9-14-15.9-3.3 0-15.6 8.6-22 15.4l-4.6 4.9-3.1-5.5c-3.6-6.2-3.9-8-1.7-9.8 1.2-1 2.3-.9 5.6.4 4.9 2 4.8 2 15.4-7.8 6.6-6.1 7.3-6.5 11.8-6.6 3.7 0 5.8.7 9 2.9m-4.4 10.6c3.6 3.1 6.4 10.1 6.5 16.5.1 4.2-.6 5.8-6.8 15-6.9 10.4-6.9 10.4-9 7.9-4.9-5.6-19.8-14.9-24-14.9-.9 0-1.6-.6-1.6-1.3 0-1.5 12.6-16.7 13.8-16.7.5 0 1.7-.8 2.8-1.8 3.3-3 10.8-7.1 13.1-7.2 1.2 0 3.5 1.1 5.2 2.5m-29.9-1c0 .3-.2.5-.5.5s-.5-.2-.5-.5.2-.5.5-.5.5.2.5.5m55 24.8c0 .5-.4.5-1 .2-.5-.3-1-1.4-1-2.3 0-1.5.2-1.5 1-.2.5.8 1 1.9 1 2.3m-5 1.7c0 .5-.4 1-1 1-.5 0-1-.5-1-1 0-.6.5-1 1-1 .6 0 1 .4 1 1m-44.1 4.8c6.7 3.7 15.1 11 15.1 13 0 .7-.9 1.2-2 1.2-1.3 0-2-.7-2-1.9 0-4.6-15.7-14.8-21.1-13.6-2.5.6-2.9.4-2.9-1.5s.4-2.1 3.3-1.5c1.7.4 6.1 2.3 9.6 4.3m-2.1 2.6c6 3.1 11.2 7.5 11.2 9.4 0 2.1-5.3 10.2-6.6 10.2-.7 0-1.4-.6-1.7-1.3-.7-1.8-11.1-8.7-13.1-8.7-3.6 0-2.8-4.6 1.8-9.8 2.4-2.7 2.6-2.7 8.4.2m31.2 11.7c0 1-.4 1.9-1 1.9-.5 0-1-1.2-1-2.6s.4-2.3 1-1.9c.6.3 1 1.5 1 2.6m-39 .9c4.6 2.3 11 7.7 11 9.2 0 .7-.5.6-1.3-.1-1.1-.9-3.8 2.5-13 16.4-6.5 9.6-12.1 17.5-12.5 17.5-.5 0-1.7-.9-2.6-1.9-1-1.1-3.3-2.7-5.2-3.6-2.3-1.1-3.2-2-2.7-2.9.5-.7 5.7-8.5 11.7-17.4 10.5-15.5 10.9-16.3 9-17.7-1.8-1.3-1.8-1.4-.1-1.5 1 0 3.5.9 5.7 2m33 0c0 .5-.4 1-1 1-.5 0-1-.5-1-1 0-.6.5-1 1-1 .6 0 1 .4 1 1m1.7 2.7c-.4.3-.7 0-.7-.7s.3-1 .7-.7c.3.4.3 1 0 1.4m-54.9 39.1c3.6 2.8 3.7 3 1.7 5.6-1.4 1.9-1.6 1.8-5.5-.9-2.2-1.5-4-3.2-4-3.7s-.4-.6-1-.3c-1.3.8-1.3-.1 0-2.5 1.2-2.3 4.2-1.7 8.8 1.8m-4.8 6 3.4 2.9-3 4.6c-3.1 5-4.4 5.6-6.4 3.2-.7-.8-1.8-1.5-2.5-1.5s-1.8-.7-2.5-1.5c-.9-1.1-.6-2.3 2-6 1.7-2.5 3.7-4.5 4.3-4.5.7 0 2.8 1.3 4.7 2.8m-7.9 11.2c2.1 1.2 2.4 2.5.9 4.3-.6.7-5.1 7.4-10 14.9-4.9 7.6-9.3 13.8-9.8 13.8-.4 0-1.7-.6-2.7-1.4-1.9-1.3-1.5-2.1 7.8-16 5.3-8 9.7-15 9.7-15.6 0-1.3 1.6-1.3 4.1 0m-28.7 37.2c-1.6 2.3-2.9 4.5-3.1 4.7s-.5.2-.7 0c-.3-.3.9-2.6 2.6-5.2s3.3-4.6 3.5-4.3c.3.2-.8 2.4-2.3 4.8m2.7 1c-1.6 2.9-3.5 5.4-4.3 5.7-.9.3-.8-.3.3-2 .9-1.3 2.4-3.9 3.3-5.7.9-1.7 2.1-3.2 2.7-3.2s-.3 2.4-2 5.2m5.9-3.7c0 1.3-7.5 11.6-7.8 10.7-.4-1.2 5.9-11.2 7.1-11.2.4 0 .7.2.7.5m2 2.4c0 .5-.7 1.4-1.5 2.1-1.6 1.4-1.8 1-.9-1.4.6-1.7 2.4-2.2 2.4-.7m-11 10.9c-.7.3-1.9-.3-2.8-1.3-1.6-1.5-1.5-1.6 1.2-.4 1.5.7 2.3 1.5 1.6 1.7"/><path d="M426 609c0 .5.7 1 1.5 1s1.5-.5 1.5-1c0-.6-.7-1-1.5-1s-1.5.4-1.5 1M347 665.5c0 2.9 2.5 4.4 4.3 2.6 1.4-1.4-.2-4.4-2.7-4.9-1.1-.3-1.6.4-1.6 2.3m3 .5c0 .5-.4 1-1 1-.5 0-1-.5-1-1 0-.6.5-1 1-1 .6 0 1 .4 1 1M530 604.1c-14 .3-32.1.7-40.2.8l-14.8.1v11.4c0 8.8.3 11.6 1.5 12.6 1.1.9 5.4 1.1 16.7.6 8.4-.3 27.5-.9 42.3-1.2 14.9-.4 27.3-1.1 27.6-1.6.4-.7 0-21.9-.5-22.5-.6-.7-11-.8-32.6-.2m30.5 21.6s-18.3.4-40.7.8l-40.8.8-.1-6.9c-.1-3.8-.3-8.4-.5-10.2l-.4-3.2 22.8-.1c12.5-.1 30.8-.4 40.7-.8l18-.6.5 10c.3 5.5.5 10.1.5 10.2"/><path d="M486.3 608.7c-.7.2-1.3 1.4-1.3 2.5 0 1.7.3 1.8 1.5.8s1.5-.9 1.5.7c0 1-.5 2.4-1.2 3.1-.9.9-.7 1.3.5 1.8.9.3 1.7 1.5 1.7 2.5 0 2.2-1.1 2.4-2.8.7-.9-.9-1.2-.7-1.2.9 0 2.5 2.7 3.8 4.7 2.2 2-1.7.7-16.1-1.6-15.8-.3 0-1.2.3-1.8.6M496.2 609.2c-1.4 1.4-1.6 4.8-.3 4.8.5 0 1.2-1 1.6-2.3.8-2.1.8-2.1 1.2.5.2 1.5-.5 4.5-1.7 6.8-2.3 4.4-1.7 6.5 1.5 5.8 2.1-.4 4.2-3.4 3.2-4.5-.5-.4-1.2-.1-1.7.7-1.7 2.7-2.2.2-.6-2.9.9-1.6 1.6-4.1 1.6-5.4 0-2.1-1.6-4.7-3-4.7-.3 0-1.1.5-1.8 1.2M517 609.9c-2.2 4.2-.5 14.1 2.4 14.1 1.9 0 4-7.3 3.1-10.9-1.3-5-3.7-6.4-5.5-3.2m4 5.8c0 3.9-.9 6.5-2.1 5.7-1-.6-1.2-9.7-.2-10.7 1.1-1.1 2.3 1.5 2.3 5M527 610.5c-1.2 3.1.3 7.5 2.5 7.5.8 0 1.5.9 1.5 2 0 2.2-1.6 2.7-2.3.7-.2-.6-.8-.9-1.3-.4-.4.4 0 1.5.9 2.4 2.7 2.7 4.7.1 4.7-6.2 0-3-.3-6-.6-6.9-1-2.5-4.3-1.9-5.4.9m4 2.6c0 3.8-2.4 3.5-2.8-.4-.2-1.9.1-2.7 1.2-2.7s1.6 1 1.6 3.1M537.4 609.4c-1.5 3.8.1 7 4.4 9.3.2.1-.1 1-.7 2s-1.1 1.2-1.1.5c0-1.3-3-1.7-3-.3 0 1.5 2.9 3.3 4.4 2.8 1.9-.8 2.9-6 2.1-11.3-.5-3.8-.9-4.4-3.1-4.4-1.4 0-2.7.6-3 1.4m4.3 5c-.4.9-1.1 1.6-1.7 1.6-1.1 0-1.4-5.3-.3-6.4 1.1-1 2.7 3 2 4.8M505.5 617c.3.5 1.7 1 3 1s2.7-.5 3-1c.4-.6-.8-1-3-1s-3.4.4-3 1M434.6 612.6c-2.3 2.3-2 4.1 1.4 6.5 1.6 1.3 3.4 3.6 4 5.3 1 3 1.5 3.3 10 6.2 2.5.8 6.9-3.3 7.6-7.1.6-3.5.6-3.5 8-3.5 4.3 0 7.4-.4 7.4-1s-3.5-1-8.4-1c-8 0-8.5-.1-11.7-3.1-3.1-2.9-3.6-3.1-6.6-2-2.7 1-3.7 1-5.5-.3-2.8-2-4.3-2-6.2 0m3.8 1.3c.7 1-2.2 3.7-3 2.8-.9-.8.3-3.7 1.5-3.7.5 0 1.2.4 1.5.9m8.4 2.8c-1.4 1.6-3 4.1-3.6 5.8-.9 2.6-1.1 2.7-1.1.7-.1-2.7 1.6-6.2 3.8-7.9 2.9-2.3 3.5-1.3.9 1.4m-5.4.8c-.4.8-1 1.5-1.5 1.5s-.9-.7-.9-1.5.7-1.5 1.5-1.5c.9 0 1.2.6.9 1.5m10.1-.5c.3.5-.1 1-1 1s-1.3-.5-1-1c.3-.6.8-1 1-1s.7.4 1 1m-3.5 5.5c-.9 1.1-1.6 1.3-2.3.6s-.6-1.5.3-2.6 1.6-1.3 2.3-.6.6 1.5-.3 2.6m7.6-2c.8 2-1.4 7.2-3.4 8-3.6 1.4-4.1-4.5-.6-7.9 2-2 3.3-2 4-.1M221.7 695.7c-.4.3-.7 6-.7 12.5V720l44.8-.2 44.7-.3v-24l-44.1-.3c-24.2-.1-44.4.1-44.7.5m85.3 11.7V718h-83.8l-.1-9.9c-.1-10-.1-10 3.2-10.3 1.7-.2 20.6-.5 42-.6l38.7-.3z"/><path d="M231.7 699.7c-1.3 1.3-.7 3.2.8 2.7 1.8-.7 2 1.7.3 3.5-1.1 1-1 1.4.5 2.2.9.6 1.7 1.6 1.7 2.4 0 2.3-2 2.8-3.6.9-1.4-1.8-1.4-1.8-1.2.6.4 3.4 4.2 4 5.8.9.9-1.6.9-2.7 0-4.5-.7-1.2-1-3-.6-3.9 1.1-2.9-1.9-6.7-3.7-4.8M242.2 699.9c-.8.5-1.2 1.9-.9 3.2.4 2.4.4 2.4 1.2.1.4-1.2 1.1-2.2 1.6-2.2 1.6 0 .9 4.9-1.2 8.6-2.4 4.3-1.9 6.7 1.3 6.2 1.5-.2 2.4-1.1 2.6-2.5.3-1.8 0-2.2-1.4-1.6-1.4.5-1.6.3-1-1.3 2.9-6.8 3-7.5 2-9.1-1.3-2.1-2.5-2.5-4.2-1.4M263.5 700.2c-.6 1.8-.8 5.6-.7 9.9.2 4 2.5 5.8 4.8 3.8 1.7-1.4 1.9-10.1.4-13-1.2-2.1-3.8-2.5-4.5-.7m3.5 7.4c0 4-.4 5.5-1.2 5.2-1.4-.5-2.3-8-1.4-10.5 1.2-3 2.6 0 2.6 5.3M273.8 701.5c-1.3 3 .3 7.5 2.7 7.5.8 0 1.5.9 1.5 2 0 2.3-1 2.6-2.8.8-.9-.9-1.2-.8-1.2.5 0 2.3 2.6 3.3 4.5 1.7 1.8-1.5 2.1-10.1.5-13.1-1.5-2.6-3.8-2.4-5.2.6m4.2 2.6c0 3.8-2.4 3.5-2.8-.4-.2-1.9.1-2.7 1.2-2.7s1.6 1 1.6 3.1M285 701.6c-2.7 7.1 1 16.8 4.6 11.9 1.6-2.2 1.8-9.8.4-12.6-1.5-2.7-3.9-2.4-5 .7m4 5.4c0 4.9-1.3 7.3-2.4 4.4-.8-2.1-.8-8.9 0-9.7 1.5-1.4 2.4.7 2.4 5.3M295 707c0 8 0 8 2.9 8 3.6 0 4.2-1.5 3.6-8.8-.6-6.5-1-7.2-4.1-7.2-2.3 0-2.4.2-2.4 8m4.5-3.7c0 2.6-2 2.5-2.3-.2-.3-1.6.1-2.2 1-1.9.7.3 1.3 1.2 1.3 2.1m.5 7.2c0 1.6-.6 2.5-1.5 2.5s-1.5-.9-1.5-2.5.6-2.5 1.5-2.5 1.5.9 1.5 2.5M252.5 708c.3.5 1.5 1 2.5 1s2.2-.5 2.5-1c.4-.6-.7-1-2.5-1s-2.9.4-2.5 1M275.4 827.4c-.9 1.5-1.4 2.9-1.1 3.2s1.3-.6 2.3-2c.9-1.5 1.4-2.9 1.1-3.2s-1.3.6-2.3 2"/><path d="M259.3 827.7c-3.6.7-4.4 2.5-2.9 6.6 2.6 7.7 11.8 14 20.3 13.9 6.4-.1 7.6-.7 6.9-3.8-.6-2.4-.6-2.4 12.4-2.4s13 0 13.2 2.7c0 1.6.2 3.2.3 3.8.2.5.3 1.8.4 2.8.1 1.6 2.8 1.7 45.4 1.5l45.2-.3V841l-.1-11.5-15.4-.5c-8.5-.3-29-.3-45.5 0l-30 .5-.1 4c0 2.2-.2 4.4-.2 5-.1.6-5.1.9-13.4.7-12.9-.3-13.2-.4-16-3.1-3.2-3.1-14.6-9.2-16.9-9-.8.1-2.4.4-3.6.6m8.2 5c5.2 2.6 14.5 10.6 14.5 12.5 0 .5-1.7-.8-3.7-3.1-4.5-4.8-14.2-10.1-18.4-10.1-1.9 0-2.8-.4-2.4-1.1.8-1.2 5.7-.3 10 1.8M397 841v10h-84v-20h84zm-129-4.5c5 2.5 11.5 8.3 10.5 9.3-.3.3-1.2-.4-2.1-1.7-2-2.8-8.8-7.1-13.9-8.7-2.7-.9-3.3-1.3-1.7-1.3 1.2-.1 4.5 1 7.2 2.4m7.5-1.5c.3.5.4 1 .1 1s-.8-.5-1.1-1c-.3-.6-.4-1-.1-1s.8.4 1.1 1m3.5 2.5c1.1 1.3 1 1.4-.4.9-.9-.3-1.6-1-1.6-1.5 0-1.3.6-1.1 2 .6m-16.8.7c-.9.9-1.5.9-2.4 0s-.7-1.2 1.2-1.2 2.1.3 1.2 1.2m12.8 6.9c0 .5-.4.9-1 .9-.5 0-1-.7-1-1.6 0-.8.5-1.2 1-.9.6.3 1 1 1 1.6"/><path d="M320.2 833.2c-1.8 1.8-1.4 3 .8 2.3 1.5-.5 2-.2 2 1.3 0 1.1-.6 2.3-1.2 2.6-.9.3-.8.9.6 2 1 .9 1.6 2.2 1.3 3.1-.7 1.7-2.7 2.1-2.7.5 0-.6-.4-1-1-1-1.7 0-1.1 2.9.8 3.9 3.1 1.7 4.1-.1 4-6.9-.2-8.1-1.7-10.7-4.6-7.8M331.6 833.5c-1.8 1.8-2.1 4.5-.6 4.5.6 0 1-.7 1-1.5s.4-1.5.9-1.5c2.2 0 2.1 2.3-.4 7.2-1.7 3.3-2.2 5.5-1.6 6.1 1.4 1.4 6.1-.1 6.1-1.9 0-1.1-.6-1.3-2-.9-2.3.7-2.5-.1-.5-3.5 3-5.3.7-12.1-2.9-8.5M354.4 832.8c-1.6 1-2.8 5.2-1.5 5.2.5 0 1.5-.8 2-1.8.9-1.5 1-1.4 1.1.6 0 1.2-.7 3.9-1.5 5.9-2.2 5.3-2 6.5 1.3 6.1 2-.2 2.8-.9 3-2.8.4-2.1.2-2.2-1.2-1.1-2.6 2.2-2.9.6-.7-3.8 1.7-3.3 1.9-4.4.9-6.6-1.2-2.7-1.7-2.9-3.4-1.7M366.1 832c-.9 1.6-.5 17 .5 17 1.7 0 2.5-1.2 1.4-2.4-.5-.7-1.1-4.3-1.3-8.1-.1-3.9-.4-6.8-.6-6.5M374.7 832.7c-.4.3-.7 1.5-.7 2.6 0 1.6.2 1.7 1.5.7 2.4-2 2.7-.7 1.6 5.6-1 5.3-.9 7.5.4 6.2.3-.2.7-2.8 1-5.7s.9-6 1.5-7c.5-1 .6-2.1.3-2.5-.8-.8-4.8-.8-5.6.1M341 841c0 .5 1.6 1 3.6 1 2.1 0 3.3-.4 2.9-1-.3-.6-1.9-1-3.6-1-1.6 0-2.9.4-2.9 1M262.6 847.6c-.9 2.4-.7 2.8.9 1.4 1.7-1.4 2-3 .6-3-.5 0-1.2.7-1.5 1.6M251.2 851.1c-3.1 2-6.2 6.5-6.2 8.9 0 .5-1 2.6-2.2 4.5-1.7 2.5-3 3.5-5 3.5-1.9 0-2.9.7-3.4 2.2-.3 1.3-1.5 3.1-2.6 4.1-1 1.1-1.8 2.9-1.6 4.1.1 1.3-.5 3-1.4 4-1.3 1.3-1.5 2.2-.8 4.2 1.1 2.7.3 4.8-3.1 9.3-1.1 1.3-1.9 3.4-1.9 4.6 0 5.2 12.4 12.9 16.9 10.6 1.2-.7 2.1-2.1 2.1-3.1 0-2.4.4-2.5 3.6-.4 1.3.9 2.8 1.3 3.2.9s-.4-1.5-1.8-2.4c-1.3-.9-3.1-2.4-3.9-3.4-2.1-2.3-3.8-2.2-4.7.5-.4 1.4-.1 2.5 1 3.3 1.4 1.1 1.4 1.4.1 2.5-2.9 2.4-14.5-4-14.5-8.1 0-1.8 4.7-9.9 5.7-9.9.3 0 1.8.9 3.4 2 1.5 1.2 4.9 3 7.4 4.1 4.1 1.8 4.6 2.4 4.1 4.5-.8 2.9 1 3.3 1.9.4.4-1.2 1.5-2 2.9-2 2.8 0 5-2.4 4.2-4.5-.3-.9.3-2.4 1.5-3.6 1.1-1.1 1.7-2.4 1.4-2.9s.4-1.5 1.6-2.4c1.6-1.1 2-2.1 1.5-4-.6-2.6-.6-2.6 24.9-2.6 16.3 0 25.5-.4 25.5-1 0-.9-15.4-1.4-41.7-1.2-5.7.1-10.3-.1-10.3-.4s.5-1.4 1-2.4c.8-1.4 1.8-1.8 4.3-1.3 2.3.3 3.7 0 4.6-1.1.7-.9 2-1.6 2.7-1.6 1 0 .9-.9-.6-3.6-1.1-1.9-1.9-4.8-1.8-6.4.3-3.4-2.2-6.5-7.2-9-5.9-3-7.3-3.1-10.8-.9m11.5 3.4c2.9 1.8 4.3 3.3 4.3 4.7 0 1.9-.2 1.9-2.7-.7-1.5-1.5-4.3-3.5-6.3-4.6-2.5-1.3-2.9-1.8-1.6-1.9 1.1 0 3.9 1.1 6.3 2.5m-4 2c4.6 2.8 5.1 3.6 2.9 5.4-1.8 1.5-12.4-3.6-12.5-6.2s4.4-2.2 9.6.8m-5.9 6.9c3.5 1.8 7.7 7.5 6.5 8.7-.6.6-2.9-.3-6.2-2.6-2.9-1.9-5.9-3.5-6.7-3.5-1.4 0-1.9-2.2-.7-3.3 1.1-1.1 4.2-.8 7.1.7m13.6.5c1.5 1.6 1.5 1.9.1 3.1-1.9 1.6-1.9 3 .1 3 .8 0 1.2.4.9 1-.8 1.3-4.4-1-5.1-3.2-.6-2.1.4-5.8 1.5-5.8.4 0 1.5.8 2.5 1.9m-15.5 6.2c1.9 1.1 4.1 2.7 4.9 3.5 2.7 2.8.4 2.5-4.4-.5-2.6-1.7-5.4-3.1-6-3.1-.7 0-1.6-.5-1.9-1-1.1-1.8 3.9-1.1 7.4 1.1m-4.6 2.3c6.4 2.8 12.7 8.1 12.7 10.7 0 2.8-2.7 2.3-7-1.1-2.1-1.7-6.8-4.4-10.4-6.1s-6.6-3.4-6.6-3.8c0-2.8 4.5-2.7 11.3.3m-3.7 6c6.3 2.9 12.4 8.2 12.4 10.7 0 2.8-2.4 2.3-7.7-1.5-2.7-1.8-6.6-3.9-8.8-4.7-5.2-1.7-6.5-2.7-6.5-5 0-2.7 4.2-2.5 10.6.5m-.9 7.8c2.4 1.1 5.8 3.6 7.6 5.5 5.7 6 3.5 7.7-5.6 4.3-6.5-2.4-15.5-9.9-14.3-11.9 1-1.6 6.3-.7 12.3 2.1m-.7 17.3c0 .3-.2.5-.5.5s-.5-.2-.5-.5.2-.5.5-.5.5.2.5.5M312.7 866.6c-.4.4-.7 6-.7 12.5 0 11.5.1 11.9 2.3 12.4 1.2.3 21.1.4 44.2.3l42-.3.3-12.1.3-12.1-10.3-.5c-15.8-.9-77.3-1-78.1-.2m66.1 2.4h19.3l-.3 10.2-.3 10.3h-30c-16.5 0-35.1-.2-41.2-.3l-11.3-.4v-20.9l22.3.5c12.2.3 30.9.6 41.5.6"/><path d="M322 871.5c-.7.9-1 1.8-.7 2.2.4.3 1.3 0 2.2-.7 1.3-1 1.5-.9 1.5.7 0 1-.6 2.5-1.2 3.2-1 1.1-1 1.4 0 1.8.6.3 1.2 1.6 1.2 2.9 0 2.5-1.5 3.3-2.3 1.1-.2-.6-.8-.8-1.3-.4-.9.8.6 3.9 2.2 4.4 1.9.6 3.5-1.5 3.4-4.5v-6.4c-.1-3.1-1.5-5.8-3-5.8-.4 0-1.3.7-2 1.5M332.1 872.6c-.6 1.5-1 2.9-.7 3.1.8.9 2.6-.8 2.6-2.3 0-.8.5-1.2 1-.9 1.6 1 1.2 3.1-1.4 8.5-2.3 4.7-2.3 5-.5 5.5 2.6.8 5.9-.3 5.9-2 0-1.9-1.7-2.8-2.3-1.3-.2.7-.8 1-1.2.6s0-2.5.9-4.7c2.6-6.7-1.4-12.8-4.3-6.5M354.2 871.3c-.6.7-1 4.4-.9 8.3.2 6.3.4 6.9 2.4 7.2 3.1.4 4.2-2.3 3.8-9.2-.4-6.8-2.7-9.5-5.3-6.3m2.8 3.2c0 1.4-.4 2.5-1 2.5-.5 0-1-1.1-1-2.5s.5-2.5 1-2.5c.6 0 1 1.1 1 2.5m.5 7.5c0 1.3-.6 2.5-1.2 2.7-1.6.6-2.7-2.1-1.9-4.3.9-2.3 3.1-1.1 3.1 1.6M364.7 870.7c-.4.3-.7 2.4-.7 4.5 0 3.2.3 3.8 2 3.8 2.6 0 3.6 2.5 2 4.6-1 1.2-1.5 1.2-2.1.2-1-1.7-2.3-.3-1.6 1.7 1.1 2.6 4.4 1.7 5.7-1.5 1-2.5 1-3.4-.4-5.5-.9-1.4-2.3-2.5-3.1-2.5-2.4 0-1.7-2 1.1-3 1.4-.6 2.2-1.4 1.9-2-.7-1.1-3.8-1.3-4.8-.3M375.9 871.6c-2 2.4-1.8 11.9.3 14 2.9 3 4.8.2 4.8-7 0-7.7-2.1-10.6-5.1-7m3.1 6.8c0 5.9-1.4 8.3-2.3 3.9-.6-3.4.3-9.3 1.4-9.3.5 0 .9 2.4.9 5.4M342 879c0 .5 1.6 1 3.5 1s3.5-.5 3.5-1c0-.6-1.6-1-3.5-1s-3.5.4-3.5 1M275.1 871.2c.1 2.7 1.5 5.2 2.3 4 .4-.6.2-2.1-.4-3.2-1.2-2.3-2-2.6-1.9-.8M270.6 884.5c-1.8 2.7-2 3.5-.8 3.5.4 0 1.6-1.4 2.5-3 2.2-3.6.6-4.1-1.7-.5M263.6 895.5c-2.6 4.7-1.4 5.6 1.3 1 2.3-4 2.5-4.5 1.3-4.5-.4 0-1.6 1.6-2.6 3.5M256.9 905.4c-1.3 2.2-2.9 3.6-4.1 3.6-2.7 0-1.5 1.4 3.2 3.9 2.3 1.2 4.2 1.6 4.5 1.1.4-.6-.5-1.4-1.9-2-3.1-1.2-3.1-1-.5-5.5 1.2-2 1.9-3.8 1.6-4.2-.4-.3-1.6 1.1-2.8 3.1M264 916.1c0 1.1 6 4.2 6.8 3.5.7-.7-2.6-3.3-5-3.9-1-.3-1.8-.1-1.8.4M273 919.9c-1.5 2.8-.3 4.9 4.2 7.2 2.5 1.3 4.3 3.1 4.9 4.9.8 2 2.2 3.2 5.2 4.3 2.3.8 5 1.8 5.9 2.2 1.3.5 2.8-.3 5.4-2.9 3.6-3.6 3.6-3.6 23.5-3.6 12.6 0 19.9-.4 19.9-1s-4.3-1.1-10.7-1.1c-6-.1-11.7-.3-12.8-.4s-5.5-.2-9.7-.3c-5.9-.2-7.8-.5-7.8-1.6 0-.7-1.4-1.9-3-2.6-1.7-.7-3.7-2.2-4.5-3.3-1.3-1.9-1.8-2-4.9-.9-3 1.1-3.9 1-7-.8-4.6-2.5-7.2-2.5-8.6-.1m4 .8c-.1 1.8-1.8 3.5-2.4 2.4-.4-.6-.4-1.6-.1-2.1.7-1.2 2.5-1.3 2.5-.3m2.8 3.2c-.7 1.1-1.5 1.8-2 1.5-1.1-.7.3-3.4 1.8-3.4 1.2 0 1.2.4.2 1.9m11.2-1.4c0 .3-.9 1.5-2 2.7s-2.3 3.6-2.6 5.5c-.7 3.6-2.4 3.5-2.4-.2 0-2.4 4.4-8.5 6.1-8.5.5 0 .9.2.9.5m-7.2 2.7c-.6 1.8-2.8 2.1-2.8.4 0-.9.7-1.6 1.6-1.6s1.4.5 1.2 1.2m10.9.4c-.3.3-1.2.4-1.9.1-.8-.3-.5-.6.6-.6 1.1-.1 1.7.2 1.3.5m-2.8 2.3c1.2.8 1.3 1.2.1 2.6s-1.5 1.4-2.8.1c-.8-.8-1.1-1.9-.8-2.5.9-1.3 1.6-1.4 3.5-.2m7.9 1.4c.5 2.6-2.5 6.7-4.8 6.7-1.5 0-2-.7-2-2.7 0-5 6-8.5 6.8-4m-9.3 4.7c.3.5.2 1-.4 1-.5 0-1.3-.5-1.6-1-.3-.6-.2-1 .4-1 .5 0 1.3.4 1.6 1M362 919l-18.5.5v24l43-.3c23.7-.2 43.8-.6 44.8-.9 1.6-.4 1.8-1.6 1.4-12.1l-.3-11.7h-26c-14.2 0-34.2.2-44.4.5m67 11.4V941h-28.2c-15.6 0-34 .3-41 .7l-12.8.6V921l26.3-.2c14.4-.2 32.8-.4 41-.6l14.7-.3z"/><path d="M364.5 924c-1.1 1.2-1.5 2.6-1 3.7.6 1.6.8 1.5 1.8-.7 1.1-2.5 1.1-2.5 1.4.2.3 1.4-.5 4.5-1.6 6.8-1.6 3.3-1.7 4.2-.6 4.6 2.7 1.1 5-.1 5.3-2.6.2-1.8 0-2.1-.6-1.1-1.9 2.6-3.3.7-1.7-2.3 3.1-5.9.8-12.8-3-8.6M386.2 924c-1.8 2.9-1.5 11.5.4 13.5 2.7 2.6 4.5-.1 4.5-6.8.1-7.6-2.3-10.8-4.9-6.7m3.2 2.6c1.3 3.4.3 9.4-1.5 9.4-.5 0-.9-2.5-.9-5.5 0-5.3 1.1-7.2 2.4-3.9M396.2 924.5c-1.5 3.2 0 7.5 2.8 8.2 2.2.6 2.6 1.8.9 2.9-.6.3-1.5.1-1.9-.6-.6-.9-.9-.9-1.5 0-.4.7 0 1.9.8 2.8 1.3 1.3 1.9 1.3 3.1.2 2-1.5 2.2-13 .4-14.8-1.9-1.9-3.4-1.4-4.6 1.3m4.8 3.6c0 2.3-2.8 2.5-3.6.4-.4-.8-.3-2.2 0-3.1.5-1.3.9-1.4 2.1-.4.8.7 1.5 2.1 1.5 3.1M407 924.6c-1.3 3.3-.3 7.2 2.1 7.9 2 .7 2.7 3.5.9 3.5-.5 0-1-.5-1-1 0-.6-.4-1-1-1-1.4 0-1.2 3.8.3 4.3.6.2 2 0 3-.5 1.3-.7 1.7-2.2 1.7-7.1 0-6.2-1.1-8.7-3.7-8.7-.8 0-1.8 1.2-2.3 2.6m4 3c0 2.6-1.7 3.3-2.6.9-.8-2 .3-4.8 1.6-4 .5.3 1 1.7 1 3.1M353.7 923.7c-.4.3-.7 1.3-.7 2.1 0 1.2.3 1.2 1.5.2 1.3-1.1 1.5-.8 1.5 1.4 0 1.4-.4 2.6-1 2.6-.5 0-1 .4-1 1 0 .5.7 1 1.5 1 1.6 0 2.1 3.5.6 4.5-.6.3-1.4-.2-1.9-1.1s-1.2-1.2-1.5-.7c-.4.6 0 1.9.8 2.9 1.1 1.5 1.7 1.7 3.2.8 1.4-.9 1.8-2.4 1.8-6.5 0-3-.3-6.2-.8-7.2-.8-1.7-2.8-2.3-4-1M373.5 931c-.4.6 1 1 3.4 1 2.3 0 4.1-.5 4.1-1 0-.6-1.5-1-3.4-1s-3.8.4-4.1 1M78 930.8c0 .4 2.1 1.8 4.8 3.2 2.6 1.3 9.4 5.1 15.1 8.2 5.8 3.2 10.7 5.8 11 5.8s1.5.7 2.5 1.5c1.7 1.3 1.7 1.7.5 3.2-1.3 1.5-1.2 1.6.6.8 1.1-.4 3.6-1 5.5-1.2l3.5-.4-3.7 2.1c-9 4.9-16.7 16.1-16.9 24.5 0 2.2-.3 3.4-.6 2.7-.2-.6-.9-1.2-1.4-1.2-1 0 0 3 1.7 4.7 2.4 2.4 10.9 7.3 12.7 7.3s1.8.1-.2 3.6c-2.9 4.9-2.7 5.9 1.7 7.9 2 1 5.8 3.1 8.4 4.7s5.2 2.7 5.8 2.3c.6-.3 1.9-2.4 3-4.5 3-5.9 8.9-8 9.1-3.3.1 3 5.3 10.7 8.9 13 4.8 3.3 8.6 2.9 14.2-1.6 1.4-1.1 2.1-1.1 4.5.1 3.5 1.8 7.4 4 8.7 5.1.6.5 2.9 1.8 5.1 3.1 2.7 1.5 4.1 2.9 4.3 4.6.5 3.9 5.5 10.4 8.8 11.5 1.6.5 4.3 2 6.1 3.2 1.7 1.3 3.6 2.3 4.3 2.3.6 0 2.3.9 3.7 2s3.1 2 3.8 2c2 0 14.8 7 17.6 9.6 1.4 1.3 3.2 2.4 4.1 2.4.8 0 2.1.7 2.8 1.6.8.8 2.9 2.1 4.7 2.9 1.9.8 4.1 2.1 4.9 3 .8.8 2.7 1.8 4.2 2.2 1.5.3 3.3 1.5 4.2 2.5.8 1.1 3.3 2.2 5.7 2.5 3.3.4 5.1 0 8.8-2.1 3.9-2.1 5.9-2.5 11.8-2.5 7.6.1 9.5.9 25.7 10.4 6.2 3.6 17.7 10.3 23 13.2 1.9 1.1 8.2 4.9 14 8.3 5.8 3.5 13.4 8 17 10s12.1 7 19 11 15 8.6 18 10.3c4.9 2.6 14 10.9 14 12.7 0 1.1 5.1 3.1 6.1 2.4.5-.3 4.4 1.4 8.7 3.7 4.2 2.3 10 5.5 12.9 7.1 5.8 3.2 11.7 3.6 18.2 1.3 4.1-1.4 4.1-1.4 4.1 2.9 0 2.9.8 5.2 2.5 7.6 2.9 3.9 3.2 8.4 1 14.5-2.1 5.8-1.9 8.2 1.1 10.1 4.4 3 7.5 1 9.9-6.2s5.1-10.8 8.7-11.7c3.4-.9 7.6-5 8.4-8.3.3-1.3.1-3.8-.6-5.4-.9-2.1-.9-3.7-.2-6 2.2-6.2-3.9-14-11-14-1.8 0-5.3-.7-7.7-1.6-4.1-1.4-4.9-1.4-11.2.6-3.7 1.1-7.3 2-8 2-1.3 0-19.9-8.9-20.9-10-.3-.3-1.7-1.1-3.2-1.9-1.6-.8-2.8-2.2-2.8-3.2 0-2.1-3.5-4.3-5.6-3.5-.8.3-2.5 0-3.9-.6-1.8-.8-3.2-.8-4.9 0-1.8.8-2.8.7-4.2-.2-1.8-1.2-6.6-3.9-19.4-11-3-1.6-5.6-3.3-5.8-3.8-.2-.4-.8-.8-1.3-.8s-3.9-1.8-7.5-4-6.8-4-7-4-8-4.5-17.4-10c-9.5-5.5-17.4-10-17.6-10-.3 0-1.7-.8-3.2-1.9-1.5-1-6.1-3.7-10.2-6.1-13.6-7.7-19.4-11.2-23.3-13.8-5-3.3-8-9.8-8.3-17.8-.2-7.7-2.3-11.9-6.8-13.4-1.8-.6-4.1-1.9-5.1-3s-3.3-2.4-5.1-3c-1.9-.7-3.4-1.5-3.4-2 0-.4-1.7-1.5-3.7-2.4-5.5-2.3-10.6-5.4-11.8-6.9-.5-.8-3.7-2.6-7-4.2-3.3-1.5-6.7-3.1-7.5-3.6s-3.1-1.6-5-2.5-4.3-2-5.2-2.5c-1-.5-2.5-.9-3.4-.9s-2.5-1-3.5-2.1c-2.3-2.6-8.2-3.4-16.4-2.1-5.2.8-6.5.7-10.2-1.1-4-2-5.8-4.7-3-4.7 1.5 0 5.5-3.5 8.5-7.4 2.8-3.6 3-10.8.4-15.1-1.9-3-1.9-3 5.7-12.9 4.2-5.4 8.4-11 9.3-12.5 5.4-8-3.2-14-10.1-7-1.7 1.7-3.1 3.5-3.1 4.1s-1 2-2.2 3.2c-2.9 2.8-6.9 7.4-9.1 10.6-1.6 2.3-2.3 2.5-10.2 2.5-8.2 0-8.4.1-12 3.5-2 1.9-4.5 5.1-5.5 7.1-1.6 3.1-2.2 3.5-4.9 3.1-4.6-.6-5.5-2.3-3.6-6.7.8-2.1 1.5-4.3 1.5-5 0-1.2-14.4-9.5-16.6-9.5-.6 0-2.1 1.6-3.3 3.5-1.9 3.2-2.4 3.5-6.9 3.5-2.7 0-6.6-.7-8.5-1.5-2-.8-4.8-1.5-6.2-1.5s-2.5-.5-2.5-1c0-.6-.4-1-.8-1-.7 0-22.2-11.1-30.4-15.8-2.1-1.2-3.8-1.8-3.8-1.4m138.4 2.8c.4.9.1 2.3-.5 3-.6.8-.8 1.4-.3 1.4s.2.6-.7 1.3c-.8.7-1.8 2-2.2 2.9-.3 1-1.5 1.8-2.6 1.8-1.4 0-1.8.5-1.4 2 .3 1.1 0 2-.6 2s-1.1.6-1.1 1.2c0 .7-3.2 5.3-7 10.2-3.9 4.9-7 9.4-7 10s1.2-.4 2.6-2.2c2.5-3.1 2.7-3.2 3.9-1.5 2 2.8 2.8 8.5 1.6 11.5-1.8 4.7-5 6.8-10.3 6.8-5.6 0-6.6 2-1 2.1 3 0 3.3.2 1.7.9-6 2.6-16.6-.9-22.2-7.3-3.6-4.1-5.9-10.8-4.5-13.3.7-1.3 1.2-.5 2.1 3.1.7 2.6 1.4 4.5 1.8 4.2.3-.3 0-2-.6-3.8-1.7-5-1.3-7.6 1.8-11.1 2.5-2.8 3.6-3.2 9-3.6 7.7-.6 9.5.7 6.1 4.3-1.3 1.4-2.1 2.7-1.8 3.1.3.3 2.5-2 4.9-5.1s5.6-7.1 7.1-8.8c1.5-1.8 2.8-3.6 2.8-4.1 0-.4.7-.6 1.5-.2q1.5.6 1.5-1.5c0-1.5.5-1.9 1.5-1.5 1.1.4 1.5-.1 1.5-1.8 0-3 1-3.9 2.8-2.3 1.3 1 1.5.9.9-.7-.4-1-.2-2.5.4-3.2 1.6-2 7.5-1.8 8.3.2M139 951.2c-1.1 2.3-1.1 2.3.9 0 1-1.2 2.4-2.2 3-2.2 1.5 0 8.1 3.3 8.1 4 0 1.9-4.4 5-7.2 5-6.2 0-11.2 2.3-16.6 7.7-6 6-10.2 14.3-10.2 20.4 0 3.3-.3 4-1.7 3.7-1-.2-2.2-1.8-2.8-3.6-.5-1.7-1.3-3.2-1.8-3.2s-.7.6-.4 1.2c1.6 4.4 1.8 5.8.6 5.8-1.9 0-4.9-3.1-4.9-5.1 0-1-.5-2.1-1.2-2.5-.8-.5-.9 0-.6 1.4.7 2.5-.7 3-1.6.6-2.3-5.9 2.3-18.5 8.9-24.3 5.3-4.6 9.1-6 14.7-5.4 6.5.7 9.4-.2 11.4-3.7 2.1-3.4 3.1-3.3 1.4.2m16.5 4.8c.3.5-.3 2.6-1.3 4.7-1.1 2.1-1.7 4.4-1.5 5 .3.8-.6 1.3-2.4 1.4-3.4.2-1.7.6 6 1.4 6.6.7 7.4 2.4 3.2 7.3-1.4 1.7-2.5 3.4-2.5 3.8.1.5 1-.2 2.2-1.6 1.3-1.6 2.2-2.1 2.5-1.3.3.7 1.4 2.3 2.5 3.5 2 2.3 2 2.3.4-.4-.9-1.5-1.6-3.7-1.6-5 0-1.7.6-1.3 2.9 2.4 3 4.7 6.8 7.9 12.3 10.3 1.9.8 2.5 1.4 1.6 1.5-1 0-1.8.5-1.8 1.1 0 .8 1.4 1 4.1.6 3.2-.4 3.9-.2 3.5.9-.3.8-.1 1.4.4 1.4.6 0 1-.5 1-1 0-2 3.9-.9 9.9 2.8.3.1-.8 1.6-2.4 3.2-3.5 3.7-3 3.8 1.5.5 3.8-2.8 5.9-3.3 4-1-.7.8-.8 1.5-.2 1.5.5 0 1.5-.7 2.2-1.5.6-.8 1.9-1.4 2.8-1.2 1 .1 3.6-.5 5.9-1.2 3.4-1.1 4.8-1.2 7.2-.1 1.7.7 3.1 1.6 3.1 1.9 0 .4-1.6 1.5-3.6 2.5-2 .9-3.4 2-3 2.3.3.3 1.1.1 1.8-.5 2-1.6 8.4-2.5 10.4-1.4 1.5.8 1.2 1.2-2 2.7-4.7 2.2-4.1 3 .7 1 4.6-1.9 9.1-1.9 10.7 0 1.1 1.3.8 1.6-1.9 2.1-1.7.4-3.1 1.1-3.1 1.6 0 .6.7.7 1.8.2 2.5-1.2 10.5-1.1 10.9.1.2.6-1.3 1.7-3.2 2.4s-3.5 1.7-3.5 2.2 1.3.3 3-.6c3.6-1.8 8.9-1.9 11.3-.1 2.3 1.8 2.2 2.2-1 2.9-3.5.8-6 2.4-5 3.3.3.4 1.4.1 2.2-.6 2-1.7 10-1.9 11.6-.3.9.9.4 1.5-2.3 2.6-2 .8-3.9 2-4.3 2.7s.5.5 2.3-.4c3.8-1.9 10.5-2.1 12.1-.3.8 1 .2 1.7-2.9 3.1-2.2 1-4 2.1-4 2.6 0 .4 1.8 0 4-1.1 4.5-2.2 6.9-2.4 10.5-.7 3.3 1.5 3.2 3.2-.2 4.4-2.3.9-1.8 1 2.8.6 5.2-.4 5.7-.2 8.2 2.8 2.1 2.5 2.7 4.2 2.7 8.1 0 4.4-.2 4.9-1.7 4.1-1.2-.7-2.4-.5-4 .5-2.9 1.9-3.1 3.8-.2 2.3 2.6-1.4 6.9-.5 6.9 1.5 0 .8-.5 1.5-1.2 1.5-.6 0-.8.3-.5.7.4.3.2 1.2-.5 2-1 1.2-.7 1.3 1.5.8 2.9-.8 3.8.8 1.2 1.9-2.4.9-1.7 2.2 1.3 2.1 2 0 2.6.4 2.4 1.7q-.3 1.8 1.2 1.2c.9-.3 5.5 1.9 10.6 5s9.3 5.6 9.5 5.6c.4 0 34.5 19.9 36 21 .6.4 3.5 2.1 6.5 3.7 3 1.7 14.3 8.1 25 14.3s21.4 12.4 23.7 13.7c2.4 1.4 4.5 2.8 4.8 3.3.4.6-1.4 5-3.3 8-.2.2-1.3-.2-2.5-1-2.8-1.7-38-22.1-46.7-27-3.6-2-9.9-5.7-14-8.2s-9.5-5.6-12-7-10.1-5.8-16.8-9.7c-6.8-3.9-12.8-7.1-13.3-7.1s-.9-.3-.9-.8c0-.4-2.3-1.8-5-3.1-2.8-1.4-5-3.1-5-3.8 0-.9-.8-1.1-2.4-.7-1.8.4-2.5.1-3-1.8-.7-2.2-.7-2.2-1.5-.3-.5 1.1-.7 2.3-.4 2.7.2.5-.1.8-.7.8-.7 0-1.4-.9-1.7-2-.6-2.4-1.6-2.5-3.7-.5-3 3-5.5 1.1-4.7-3.8 0-.4-.3-.7-.8-.7-1.7 0-1.9 5-.3 5.9 2.4 1.3.1 3.6-5.2 5.1-7.5 2.1-12.6-2.1-12.6-10.2 0-1.7-.3-2.8-.7-2.4s-.6 2.3-.4 4.2c.2 2.8-.1 3.4-1.8 3.4-3.2 0-6.1-5.1-6.1-10.9 0-3.2-.4-5.1-1.1-5.1-.8 0-1 1.8-.6 6 .7 6 .7 6.1-1.6 4.9-3.6-2-4.6-4.1-4.7-9.6 0-2.8-.5-5.5-1.2-5.9-.8-.5-1 .9-.5 5.4.6 6.9-.1 7.6-3.8 3.6-1.8-1.9-2.5-3.8-2.5-6.5 0-2.2-.5-3.9-1.1-3.9-.8 0-1 1.2-.6 3.5.4 2.6.2 3.5-.8 3.5-1.7 0-2.5-1.2-4.8-7-1.7-4.5-1.7-4.5-1.2-.8.5 2.8.2 3.8-.8 3.8-2.4 0-4.8-3.6-5.4-7.9-.3-2.3-.9-4.1-1.4-4.1s-.6 2-.2 4.5c.6 4.8 0 5.4-3.5 2.9-1.3-.9-2.4-3-2.8-5.5-.4-2.1-1-3.9-1.4-3.9s-.4 1.6 0 3.5c.6 2.5.4 3.5-.4 3.5-2.2 0-5.4-4.4-6.5-9l-1-4.5.3 4.7c.4 5.4-.8 6.2-4.1 2.5-3-3.2-4.3-6.2-4.3-9.6 0-1.7-.4-3.1-1-3.1-.5 0-.7-1.5-.5-3.3.4-2.7.4-2.9-.4-.7-1.4 4.2-2.4-.1-1.1-5 .6-2.3.9-4.4.7-4.6-.8-.9-2.8 8.8-2.2 10.7.4 1 .4 1.9.1 1.9-.5 0-16.7-9.8-17.5-10.6-.3-.2.1-1 .7-1.6.7-.7 1.1-2.8 1-4.7-.1-3.6-.1-3.6-.5-.3-.4 2.8-.7 3.1-1.9 2.1-1.2-.9-1.4-.6-1.4 1.9 0 4.3-1.6 4.8-2.5.9-.8-3.2-.8-3.2-1.4 1.3-.5 3.6-1.1 4.6-3.2 5.4-1.8.6-3.4.4-5.4-.5-3.6-1.7-4.2-3.5-1.5-4.2 2-.5 2.9-2.7 1-2.7-.5 0-1 .5-1 1.1 0 2.1-4.5.4-5.9-2.3-1.4-2.4-1.4-2.8.3-4.7 1.1-1.2 1.7-2.3 1.4-2.6s-1.1.1-1.8 1q-3 3.6-3-1.8c0-4.1 1.5-5.7 5.3-5.7 1.6 0 2.6-.4 2.2-1s.5-1 1.9-1 2.6-.5 2.6-1c0-.6.8-1 1.7-1 1.2 0 1.4-.3.7-1-1.1-1.1-1.9-.9-10 2.6-1.7.8-3.7 2-4.4 2.9-.9 1.1-1.7 1.2-3.1.4-2.4-1.2-2.5-.1-.1 1.7 2.9 2.2-2.3 3.5-8.1 2-6.7-1.7-8.2-3.6-8.3-10.1 0-3-.4-5.8-.8-6.2-1-1-.3 10.5.8 13.2.6 1.5.1 1.3-1.8-.8-1.9-2-2.6-3.9-2.6-6.7 0-3.9 2.3-12.2 4-14.4 7.7-9.9 13.2-13.6 20.4-13.6 2.5 0 4.8-.5 5.1-1 .3-.6 1.4-1 2.5-1 1 0 2-.7 2.4-1.5.6-1.7 2.2-2 3.1-.5m-30.3 43c1.4 0 2.7.3 3.1.6.7.8-2.4 7.4-3.5 7.4-.5 0-3.5-1.4-6.8-3-6.4-3.2-6.5-3.5-2.9-10.2 1-1.9 1.2-1.9 4.4 1.6 2 2.3 4.2 3.6 5.7 3.6m7.8 2.1c0 1.6-4.2 8.9-5.1 8.9-1.6 0-1.5-2.7.3-6.3 1.7-3.4 4.8-5.1 4.8-2.6m286.4 126.8c.4.5-1 1.9-2.9 3.1-3.1 1.9-3.5 2.6-3.5 6.6 0 4.5-.7 5.3-2.8 3.2-2.5-2.5-1-8.5 3.1-12.1 2.2-1.8 5.2-2.3 6.1-.8m5.6 2.7c-1.3 3.3-1.3 3.3.9 2.7 1.1-.3 7.4 2.5 15.6 6.7 14.4 7.5 14.5 7.5 22 4.6 4.4-1.7 11.1-2.1 11.9-.7.3.5-.5 1.6-1.9 2.5s-2.9 3.3-3.5 5.6c-.8 3.1-1.6 4.1-3.8 4.6-1.5.3-4.5 1.2-6.7 2-2.3.8-6.2 1.4-8.9 1.4-4.7 0-7.9-1.4-26.1-11.4-3.8-2.1-5.5-3.9-5.5-6-.1-1.8-.3-1.8-1.6.7-2.1 3.8-3.4 2.5-3.4-3.3 0-4.8.2-5.1 4.8-8.5 5.8-4.2 7.5-4.5 6.2-.9m64.9 18c2.9 3.7 2.6 10.2-.5 11.6-3 1.4-3.2 2.8-.3 2.1 1.9-.5 2.1-.3 1.7 2.1-.4 2-.2 2.6.8 2.2.9-.4 1.4.2 1.4 1.7-.1 4.8-4.6 7.7-11.9 7.7-9.8 0-16.1-4.5-16.1-11.6 0-2.5.6-4.7 1.5-5.4.8-.7 1.5-.9 1.5-.5 0 .5.9 0 2-1 1.3-1.1 2-3.1 2-5.2 0-2.2.4-3.2 1.1-2.8.6.4 1.7-.2 2.5-1.4 1.2-1.7 2.6-2.1 6.9-2.1 4.6 0 5.7.4 7.4 2.6M479 1178c2.7 0 2.5 1.2-.5 4-1.4 1.3-2.3 2.6-2 2.8.3.3-.2 1.4-1.2 2.4-1.3 1.4-1.3 1.8-.2 1.8 1 .1.9.4-.4 1.4-1.2 1-1.4 1.5-.6 1.8 1.9.6 0 2.8-2.4 2.8-4.6 0-5.2-1.3-3.3-7.8.9-3.3 1.4-6.7 1-7.6-.3-.9-.4-2.3-.1-3.1.5-1.3 1-1.3 4.1 0 2 .8 4.5 1.5 5.6 1.5"/><path d="M77.5 964c.4.6 3.2 2.4 6.3 4 9.8 5.2 12.7 6.9 14 8.7 1.1 1.5 1.2 1.5 1.2-.4 0-1.2.3-3 .6-4 .5-1.7.5-1.7-.9 0s-1.6 1.7-4.8-.1c-10.1-5.7-17-9.1-16.4-8.2M121 1148.9c-4.8 2.9-25.9 14.1-26.6 14.1-.2 0-.4-1.5-.4-3.4 0-3.5-2.1-6.2-4.3-5.3-1.1.4-19.7 30.6-19.7 32 0 .3 2.1 1.8 4.8 3.3 12 6.9 18.5 10.4 19.3 10.4.5 0 .9-2.6.9-5.8 0-6.4-2.1-4.8 23.2-18.2 5.9-3.2 11.4-6.3 12.3-7 1.1-.9 1.5-3.4 1.5-9.9 0-9.2-.3-9.9-3.7-11.9-2.7-1.4-1.8-1.6-7.3 1.7m8 6.3c-.1 5.3-.1 5.3-1.6 2.5-1.8-3.4-4.4-3.4-8.3-.1-1.6 1.4-3.3 2.4-3.7 2.2s-1.2 1.5-1.8 3.6c-1.1 3.9-1.1 3.9-2.4 1.2-1.5-3.3-2.7-2.7-3.6 1.6-.6 3-.7 3.1-2 1.2-3-4-2.9-.7 0 9.5.8 2.5 3.4-.9 3.4-4.5 0-4.4 1.5-5.1 3-1.4.7 1.7 1.6 3 2 3s1.2-2.6 1.8-5.8c.9-5.6.9-5.6 1.1-1.5 0 2.4.6 4.3 1.1 4.3 2.5 0 8.5-4.2 9.6-6.7 1.2-2.8 1.2-2.8 1.3.2.1 3.3 1.6 2.3-23.9 15.8-6.3 3.3-11.8 6.5-12.1 7-.4.5-.4 2.9-.1 5.3.2 2.4.1 4.4-.3 4.4-1 0-17.5-9.1-17.5-9.6s5.8-9.9 12.1-19.8c4.4-6.8 4.4-6.8 4.7-3.5.5 4.8 1.6 5.5 5.4 3.1 4.5-2.7 30.5-16.8 31.6-17.1.1-.1.2 2.3.2 5.1m-3.7 6.3c-.1 1.7-1.2 3.8-2.5 4.9-2.3 1.8-2.3 1.8-2.6-1.9-.4-5.1.3-6.7 3-6.3 1.9.2 2.3.9 2.1 3.3"/><path d="M97.5 1169.3c-4 2.2-4 2.3-4.3 9.1-.2 5.2 0 6.7 1 6.4.7-.3 1.4-1.7 1.6-3.2.2-1.7 1.2-3.1 2.8-3.8 1.3-.6 2.4-1.7 2.4-2.5 0-1.6-.5-1.6-3-.3-1.2.6-2.1.6-2.5.1-.5-1-.1-1.5 4.5-5 3.7-2.8 2-3.3-2.5-.8"/></svg>