<svg xmlns="http://www.w3.org/2000/svg" viewBox="0 0 864 1214" fill="currentColor"><path d="M338 19.3c0 .4.7 1.9 1.6 3.3.9 1.3 1.7 4.2 1.7 6.4s-.8 5.1-1.7 6.4c-1.8 2.8-2 3.6-.8 3.6.5 0 1.7-1.8 2.7-4 2.2-4.9 1.6-11.4-1.4-14.4-1.2-1.1-2.1-1.7-2.1-1.3M322.4 21.2c-5 2.7-6 8.9-2.1 13.4 2.1 2.4 2.7 2.6 6.6 1.9 3.2-.5 4.1-1.1 3.7-2.2-.3-.8-.6-2.6-.6-3.9 0-1.9-.5-2.4-2.5-2.4-1.4 0-2.5.4-2.5 1 0 .5.9 1 2 1s2 .4 2 .9c0 1.4-2.9 4.1-4.4 4.1-3.7 0-6.2-8-3.4-10.8 1.7-1.7 4.8-1.5 7 .5 1.6 1.4 1.8 1.4 1.8.1 0-3-4.6-5.1-7.6-3.6M41.5 23.4c-2.3 3.4-2.3 11.8 0 15.2 2.2 3.4 3 2.5 1-1.2-1.9-3.7-1.9-9.1 0-12.8 2-3.7 1.2-4.6-1-1.2M271.3 21.7c-.9.3-1.3 2.8-1.3 7.3 0 7.3 1.4 10.1 2.5 5 .5-2.5 1.1-3 3.6-3 2.2 0 2.9.5 2.9 1.9 0 2.8 1.1 5.2 2 4.6.5-.3.4-2-.1-3.7s-.6-4.8-.3-6.9c.5-3.1.3-3.9-1.4-4.8-2.1-1.1-5.7-1.3-7.9-.4M279 26c0 1.6-.7 2-3.5 2s-3.5-.4-3.5-2 .7-2 3.5-2 3.5.4 3.5 2M294.7 21.7c-.4.3-.7 3.9-.7 8 0 7.3 0 7.3 3.8 7.3 5.5 0 6-.8 5.9-7.8 0-5-.4-6.5-1.8-7.3-2-1-6.3-1.2-7.2-.2m6.2 2.2c2.1 1.3.5 4.1-2.4 4.1-2 0-2.5-.5-2.5-2.5 0-2.6 2.2-3.3 4.9-1.6m.9 8.3c-.2 1.7-1.1 2.4-3 2.6-2.4.3-2.8 0-2.8-2.2s.4-2.6 3.1-2.6c2.6 0 3 .3 2.7 2.2M307.7 28.7c-1.5 4.2-2.4 7.9-2.2 8.1.8.9 2.5-1 2.5-2.9 0-3.2 5.4-2.6 7 .8.7 1.6 1.4 2.3 1.6 1.8.6-1.5-4.1-14.8-5.3-15.2-.6-.2-2.2 3.1-3.6 7.4m4.3-2.8c0 .5.3 1.6.6 2.5.4 1.1.1 1.6-1 1.6-1 0-1.6-.9-1.6-2.5 0-1.4.5-2.5 1-2.5.6 0 1 .4 1 .9M85.5 23c-.4.7.1 1.4 1.3 1.7 2.2.5 3.2 3.9 3.2 10.5 0 2.4.4 3.7 1 3.3.6-.3 1-3.5 1-7.1 0-5.8.2-6.4 2.1-6.4 1.2 0 1.9-.5 1.7-1.3-.6-1.6-9.4-2.2-10.3-.7M111.2 23.2c-1.6 1.6-1.6 11.9.1 14.2.9 1.2 2.3 1.7 5 1.4 4.7-.4 4.9-2.2.2-2.6-3-.3-3.5-.7-3.5-2.8s.5-2.4 3.6-2.4c2.2 0 3.3-.4 2.9-1.1-.4-.6-1.9-.7-3.6-.4-2.2.5-2.9.3-2.9-.9v-2.4c-.1-.4 1.5-.9 3.5-1.2s3.7-1 3.8-1.5c.3-1.5-7.6-1.8-9.1-.3M123.7 22.7c-1.1 1.1-.8 15.3.3 15.3.6 0 1-1.4 1-3.1 0-2.8.2-3 3.3-2.7 2.7.2 3.3.8 3.5 3 .2 1.6.7 2.8 1.2 2.8 1.4 0 .6-12.5-.9-14.3-1.3-1.7-7.1-2.3-8.4-1m7.3 2.8c1.7 2-.3 4.5-3.6 4.5-1.8 0-2.4-.5-2.4-2.3 0-1.3.3-2.7.7-3 1.1-1.2 4-.8 5.3.8M152.7 22.6c-.4.4-.7 1.5-.7 2.5s-.5 3-1.1 4.6c-1 2.6-1.2 2.7-1.9.8-.5-1.1-1.1-3.2-1.4-4.8-.4-1.5-1-2.7-1.5-2.7-.8 0-.4 2.6 1.6 10.9.5 1.9 1.4 3.6 2 3.8 1.2.4 1.7-.9 2.8-7.1.8-4.7 2.1-3.4 3.1 3.1.9 6.3 2.9 5.3 4.8-2.5s2-9.6.6-8.7c-.5.3-1 1.4-1 2.4s-.6 3.4-1.4 5.2c-1.5 3.4-1.5 3.4-2.2-.8-.7-4.6-2.5-7.8-3.7-6.7M164 29.9c0 4.7.4 8.1 1 8.1s1-1.6 1-3.5c0-3.2.2-3.5 3-3.5s3 .3 3 3.5c0 1.9.5 3.5 1 3.5.6 0 1-3.3 1-8s-.4-8-1-8c-.5 0-1 1.6-1 3.5 0 3.2-.2 3.5-3 3.5-2.7 0-3-.3-3-2.9 0-1.7-.4-3.3-1-3.6-.6-.4-1 2.3-1 7.4M176.7 22.7c-.2.5-.2 4.1.1 8 .4 7.3.4 7.3 5.3 7.3 2.7 0 4.9-.5 4.9-1 0-.6-1.8-1-4-1-3.6 0-4-.3-4-2.5s.4-2.5 3.5-2.5c1.9 0 3.5-.5 3.5-1 0-.6-1.6-1-3.5-1-3.1 0-3.5-.3-3.5-2.5s.4-2.5 3.5-2.5c1.9 0 3.5-.5 3.5-1 0-1.1-8.7-1.4-9.3-.3M188.4 23.4c-.3.7-.4 4.2-.2 7.7.3 6.4.3 6.4 5.6 6.7 3.1.2 5.2-.1 5.2-.7s-1.8-1.1-4-1.1c-3.6 0-4-.3-4-2.5s.4-2.5 3.6-2.5c2.4 0 3.4-.4 3.1-1.3-.2-.6-1.8-1.1-3.6-1.1-2.6.2-3.1-.1-3.1-2.2s.5-2.4 3.5-2.4c1.9 0 3.5-.5 3.5-1 0-1.6-9-1.2-9.6.4M200.6 23.1c-.4.9-.6 4.5-.4 8 .3 6.4.3 6.4 4.6 6.7 2.5.2 4.2-.1 4.2-.7s-1.3-1.1-3-1.1c-2.7 0-3-.3-3.1-3.3-.1-5.5-1.5-11.4-2.3-9.6M220 23.2c.1 2.7 2.9 13.1 3.8 14 1 1 1.5 0 2.7-5.9.9-4.7 2.3-4.9 3-.6 1.6 9.3 3.3 9.6 5.1.7 1.5-7.2 1.7-9.4.5-9.4-.5 0-1.1 2.2-1.5 5-.4 2.7-1.1 5-1.5 5-.5 0-1.3-2.1-1.7-4.7-1-5.1-3-6.8-3.8-3.1-.3 1.3-.8 3.6-1.2 5.3l-.7 3-1.3-3c-.7-1.7-1.3-4-1.4-5.3 0-1.2-.4-2.2-1-2.2-.5 0-1 .6-1 1.2M244.5 25.7c-.4 2.1-1 4.8-1.6 6.1-.5 1.3-.9 3.7-.8 5.5.1 2.7.3 2.3 1.6-2.3 2.4-9.3 3.1-13 2.2-13-.4 0-1.1 1.7-1.4 3.7M254.2 29.2c-2.5 8.1-2.6 8.8-1.3 8.8.5 0 1.1-1 1.3-2.3.4-3.1 6.3-3.8 7.3-.8.3 1.2 1.1 2.1 1.7 2.1s.7-.7.3-1.8c-.4-.9-1.5-4.2-2.5-7.2-2.5-7.8-4-7.5-6.8 1.2m4.8-.7c0 1.6-.6 2.5-1.5 2.5-1.5 0-2.1-3.1-.8-4.3 1.3-1.4 2.3-.6 2.3 1.8M265 29.6c0 5.6.3 7.5 1.3 7.1.6-.2 1.2-.9 1.1-1.5-.1-.7-.2-3.9-.2-7.2-.3-8.8-2.2-7.4-2.2 1.6M52 30.9V39h4.6c2.7 0 4.3-.4 3.9-1-.3-.6-1.9-1-3.6-1-2.9 0-2.9 0-2.9-6.4 0-3.6-.4-6.8-1-7.1-.6-.4-1 2.3-1 7.4M62 31v8h6.4c6 0 6.4-.2 7-2.5.5-2 1.3-2.5 3.6-2.5s3.1.5 3.6 2.5c.3 1.4 1 2.5 1.5 2.5 1 0 .2-4.7-1.1-6.5-.3-.6-1.2-2.9-1.9-5.3s-1.7-4.2-2.4-3.9c-.6.2-2 3.4-3.2 7.2-1.1 3.7-2.3 6.7-2.7 6.6-.5 0-2.6-.1-4.8-.1-3.6 0-4-.3-4-2.5s.4-2.5 3.5-2.5c1.9 0 3.5-.5 3.5-1 0-.6-1.6-1-3.5-1-3.1 0-3.5-.3-3.5-2.5 0-2.3.4-2.5 4.1-2.5 2.4 0 3.8-.4 3.4-1-.3-.6-2.6-1-5.1-1-4.4 0-4.4 0-4.4 8m18-3.1c0 .5.3 1.6.6 2.5.4 1.2 0 1.6-1.6 1.6s-2-.4-1.6-1.6c.3-.9.6-2 .6-2.5s.5-.9 1-.9c.6 0 1 .4 1 .9M97.6 24.1c-1 2.3-.3 14.5.9 14.1.6-.1 1-1.7 1-3.5 0-2.9.3-3.2 3.3-3.5 3.1-.3 3.2-.2 3.2 3.2 0 2 .5 3.6 1 3.6.6 0 1-3.2 1-7.5s-.4-7.5-1-7.5c-.5 0-1 1.3-1 3 0 2.8-.3 3-3.4 3-3.2 0-3.5-.3-3.8-3.3-.3-2.3-.6-2.8-1.2-1.6M211 38.6c0 1.4.4 2.3 1 1.9.6-.3 1-1.5 1-2.6 0-1-.4-1.9-1-1.9-.5 0-1 1.2-1 2.6M58.8 78.3c-9.8 6.1-11 7.6-8.5 10.6.7.9 4.6 7.1 8.6 13.8 4 6.8 7.5 12.3 7.8 12.3 2.2 0 4.3-2.5 4.3-5 0-1.7.3-3 .6-3s7.2 3.6 15.4 8 15.5 7.7 16.3 7.4c1.9-.7 2.4-4.2 1.9-13l-.4-7.1-10.7-6c-5.8-3.3-12.8-7-15.5-8.4-6.1-3-7.7-5.5-7.4-11 .2-3.2-.1-4.4-1.2-4.6-.8-.1-5.9 2.6-11.2 6m8.2 2.1c0 5.2-2.2 3.6 30.3 22 4.7 2.7 4.7 2.7 4.7 10.6 0 4.4-.2 8-.6 8-.5 0-5.5-2.7-15.9-8.5-18.7-10.5-18.1-10.4-18.7-3.8-.3 3-.9 2.2-8.2-9.9-7.8-13.1-7.8-13.1-5.5-14.9 1.3-1 2.9-1.9 3.6-1.9.6 0 1.3-.4 1.5-.8.3-.9 6.8-5 8.1-5.1.4-.1.7 1.9.7 4.3"/><path d="M68.2 95.2c.2 4.1.8 6.3 1.7 6.6 1 .3 1.1-.2.6-1.8-.7-2.1-.5-2.2 1.9-1.6 3.4.8 3.3-.3-.1-3-3.5-2.8-2.6-3.9 1.5-1.8 2.4 1.1 3.3 2.4 3.7 5.2 1 5.8 2 8.5 3.3 9 .8.2 1.2-.8 1.2-2.9 0-4.1 1.1-3.1 1.9 1.8.9 5.5 2.7 5.2 4-.7.6-2.9.9-5.6.5-6.1-.9-1.5-2.4 0-2.5 2.4-.1 1.5-.4 1.1-1.1-1.3-1.4-5.1-2.5-5.7-3.6-1.9-.9 3.4-.9 3.4-1.6-.8-.7-3.7-1.3-4.5-5.7-6.7-2.7-1.4-5.1-2.6-5.4-2.6s-.5 2.8-.3 6.2M91 108c0 5.7.1 6 3.2 7.6 3 1.5 3.2 1.5 4.5-.2 1.7-2.3 1.6-3.7-.1-7.9-1.3-3.1-4.1-5.5-6.5-5.5-.7 0-1.1 2.4-1.1 6m5.9 0c1.2 3.7.5 6.2-1.8 5.8-2.2-.4-2.9-8.8-.8-8.8.8 0 2 1.4 2.6 3M323.7 236.7c-.4.3-.7 5.5-.7 11.5V259h41v35l-62.7.1c-34.6.1-65.5.2-68.8.4-3.3.1-33.2.3-66.5.5s-62.7.5-65.4.8l-4.9.4.6 128.2c.4 70.4.9 180.5 1.2 244.6s.8 120.7 1.1 125.9l.6 9.4 136.2-.6c74.8-.4 148.5-.9 163.6-1.2s67.1-.8 115.5-1.1 89.1-.7 90.5-.9 9.9-.4 18.9-.4l16.4-.1-.8-127.5c-.4-70.2-.8-131.1-1-135.3-.1-4.2-.4-54.3-.6-111.2s-.6-110.5-.9-119l-.5-15.5-90 .4c-49.5.2-92.9.5-96.5.6s-23.8.4-45 .6l-38.5.3-.3-17.2-.2-17.2h40v-23h-40.8c-22.5 0-41.2.3-41.5.7m80.3 10.8v9.5h-26.7c-14.8 0-32.5.3-39.5.5-12.8.5-12.8.5-13-2.7-.4-9.1-.4-15.4-.1-16.1.2-.4 18.2-.7 39.9-.7H404zm231.1 62c.4 8.8.7 51.5.8 95 0 43.4.4 109.4.7 146.5.8 94.7 2 246.5 1.9 246.7-.2.6-57.6 1.3-145.5 1.8-54.7.3-111.6.7-126.5 1-14.8.3-80.9.8-146.7 1.1l-119.8.7-.1-80.9c-.1-44.5-.2-83.4-.4-86.4-.1-3-.5-80.1-1-171.3L97.8 298l23.3-.2c12.9 0 27-.2 31.4-.3 12.1-.4 119.8-1.4 222-2.1 50.1-.4 126.6-1 170-1.3 43.5-.3 81.5-.6 84.5-.6h5.5z"/><path d="M331 243.5c-1.6 1.9-.5 3.4 1.2 1.7.7-.7 1.8-1.2 2.5-1.2 1.7 0 1.7 2.7.1 3.3-.9.3-.7.9.7 2 1.6 1.3 1.8 1.8.7 2.9-1 1-1.6 1-3.3 0-2.7-1.7-4-.5-1.5 1.4 2.6 1.8 4.1 1.8 6.1-.2 1.4-1.5 1.4-5.4 0-10.2-.6-1.7-5-1.5-6.5.3M341.6 243.6c-.4.9-.3 2 0 2.3.4.3.9 0 1.1-.7.3-.6 1.3-1.2 2.4-1.2 2.8 0 2.4 3.4-.5 5-2.7 1.4-4 3.6-3 5.1.7 1.2 5.5 1.1 7.4-.1 1.1-.7.7-1-1.7-1-1.8 0-3.3-.3-3.3-.6s1.4-1.9 3.1-3.5c2.5-2.4 2.8-3.1 1.9-4.9-1.3-2.5-6.5-2.8-7.4-.4M357.4 244.5c-.8 3.1 1 5.5 4.2 5.5 1.3 0 2.4.4 2.4.9 0 1.3-2.5 2-5.2 1.5-2.2-.5-2.2-.5-.4 1 2.6 2.1 3.2 2 5.6-.4 2.2-2.2 2.7-7.9.8-9.8-.7-.7-2.5-1.2-4-1.2-2.1 0-2.9.6-3.4 2.5m6.6 1.5c0 1.5-.7 2-2.5 2s-2.5-.5-2.5-2 .7-2 2.5-2 2.5.5 2.5 2M368.4 243.2c-1.5 1.9-1 9.8.7 10.9 1.4.9 4.7.3 6.2-1.1.4-.4.4-2.9 0-5.6-.7-4.3-1.2-4.9-3.4-5.2-1.4-.2-3 .3-3.5 1m4.6 2.3c0 .8-.7 1.5-1.5 1.5s-1.5-.7-1.5-1.5.7-1.5 1.5-1.5 1.5.7 1.5 1.5m1 5c0 .9-.7 1.8-1.6 2.2-1.8.7-3.9-1.1-3-2.6 1.1-1.7 4.6-1.3 4.6.4M377.9 244.7c-.6 1.7-.7 4-.2 5.8.8 2.6 1.3 3 4.3 3 3.4 0 3.5-.1 3.8-4.3.4-5-1-7.2-4.4-7.2-1.7 0-2.8.8-3.5 2.7m6.1 3.3c0 3.3-.3 4-2 4s-2-.7-2-4 .3-4 2-4 2 .7 2 4M351.7 250.1c.8.8 1.6.8 3 0 1.6-.9 1.4-1-1.1-1.1-2.2 0-2.7.3-1.9 1.1M154.5 309.2c-5.2 3-6.2 10.2-2 14.3 6.8 6.9 17-2 12.3-10.8-2.3-4.5-6.3-5.8-10.3-3.5m7.3 3c1.7 1.7 1.5 8.4-.4 10.2-2 2.1-5.8 2-7.5 0-.7-.9-1.3-3.1-1.3-4.9s.6-4 1.3-4.9c1.6-1.9 6.2-2.1 7.9-.4M167.7 308.6c-1.1 1.2.3 2.4 2.9 2.4 2.3 0 2.4.2 2.4 7.1 0 5.2.3 7 1.3 6.7.7-.3 1.3-2.9 1.5-7.1.2-5.7.6-6.6 2.3-6.9 1.1-.2 2.1-.8 2.2-1.3.2-1.1-11.5-2-12.6-.9M183.2 309.2c-1.6 2-1.4 14.4.3 15.8 1.6 1.3 11 .8 11-.6 0-.5-2.1-1-4.7-1.2-4.3-.3-4.8-.5-4.8-2.8 0-2.2.4-2.4 4.6-2.4 3.2 0 4.4-.4 4.1-1.3-.2-.6-2.1-1.2-4.3-1.3-3.2 0-4-.4-4.2-2.2-.3-1.8.2-2.1 4.5-2.4 2.6-.2 4.8-.8 4.8-1.3 0-1.6-10-1.8-11.3-.3M134 317.5c0 9.7 1.8 11.6 2.2 2.4l.3-6.1 4 5.8c2.2 3.2 4.5 5.9 5 5.9.6 0 1.1-3.6 1.3-8.3.2-6.5 0-8.3-1-7.9-.8.2-1.3 2.2-1.3 5.5.1 2.9-.2 5.2-.6 5.2-.3 0-2.3-2.5-4.3-5.5s-4.1-5.5-4.6-5.5c-.6 0-1 3.6-1 8.5"/><path d="M290.8 316.5c-.2.1-20.5.5-45.3.8-24.7.4-45.2.6-45.5.7-.2 0 0 .4.5.8.6.5 27.3.5 59.5.1s83.8-.8 114.6-.8c56.2-.1 56.2-.1 56.6 2.2.3 1.3.6 21.8.7 45.5l.2 43.2h-34.8c-19.1 0-57.3.2-84.8.5s-82.5.7-122.2 1l-72.3.5-.1-36.8c0-20.2-.2-40.5-.2-45.2l-.2-8.5 6.8-.3c8.9-.4 7.8-2.2-1.4-2.2H116l.2 47.2.3 47.3h29c38 0 261.1-1.7 265-2 1.7-.1 7.7-.3 13.4-.4l10.4-.1-.6-37.3c-.4-20.4-.7-41.6-.7-47v-9.8l-70.9.2c-39.1.1-71.1.2-71.3.4"/><path d="M257.2 324c-7.3 1.7-12.3 10.3-10.1 17.1 1.6 4.7 3.7 6.9 8.7 9.1 3.7 1.7 4.8 1.8 8 .7 9.8-3.1 13.3-12.4 8.3-21.8-2.1-3.9-9.3-6.4-14.9-5.1m7 2c1.1 0 3.3 1.3 4.9 2.9 2.5 2.5 2.9 3.7 2.9 8.4 0 4.5-.4 5.9-2.7 8.1-5 5-12.9 4.8-17.7-.5-2.5-2.9-2.8-3.7-2.4-8.5.4-4.4 1-5.8 3.3-7.8 3-2.6 5.9-3.6 8.3-3 .8.2 2.3.4 3.4.4"/><path d="M258 331.5c-.7.9-1 2.5-.6 4.1.4 1.4.2 3.2-.4 3.9-1.8 2.2-.1 4.5 3.5 4.5 3.7 0 5.4-2.6 3.6-5.7-.6-1.1-.6-2.4 0-3.5s.4-2.1-.7-3.2c-1.9-2-3.8-2-5.4-.1m4 2.1c0 .9-.5 1.4-1.2 1.2-1.8-.6-2.1-2.8-.4-2.8.9 0 1.6.7 1.6 1.6m-.2 7.7c.2 1-.3 1.7-1.2 1.7-1 0-1.6-.9-1.6-2.1 0-2.4 2.3-2.1 2.8.4M199.5 325.8c-3.6 2.2-4.8 3.7-6.5 8-2.4 6 1.6 14 8.3 17 11.7 5.1 23.5-9.4 16.7-20.5-3.7-6.1-12.4-8.2-18.5-4.5m12.5 1.7c7.6 3.9 8.1 15.7.8 20-7 4.1-15.1 1.3-17.6-6-3.4-10.2 7.2-19 16.8-14"/><path d="M205.4 331.7c-.7.2-.9 2.2-.6 5.3.3 3.2 0 5.5-.8 6.5-1.1 1.3-.8 1.5 1.6 1.5 2.9 0 2.9 0 2.6-6.2-.4-6.5-.9-7.8-2.8-7.1M341.5 325l-37 .5-.3 11.2-.3 11.3 35.8-.1c19.7-.1 38.5-.4 41.8-.8l6-.6.3-9.9c.1-5.5-.1-10.3-.6-10.8-1.3-1.3-4.6-1.4-45.7-.8m44.3 10.7-.3 9.8-39.7.3c-45.5.4-40.6 1.7-40.4-10.8l.1-7.5 19-.5c10.5-.3 28.6-.6 40.3-.8l21.3-.3z"/><path d="M372.7 329.7c-1 .3-2.5 1.9-3.2 3.5-1.2 3.1-1.2 3.1-2.6.2-.8-1.7-2.4-3-3.7-3.2-3.3-.5-5.8 5.7-4 9.6 1.8 3.8 5.8 3.7 7.6-.1 1.4-2.9 1.4-2.9 3.3.3 1.6 2.6 2.5 3.1 5.1 2.8 3.1-.3 5.9-3.1 4.4-4.5-.4-.4-1.2 0-1.7 1-2.1 3.6-6.9 1.3-6.9-3.3 0-4.7 3.7-6.5 7.2-3.3 1.7 1.5 1.8 1.5 1.8-.1 0-1.3-4.3-4.1-5.3-3.5-.1.1-1 .3-2 .6m-7.7 4.9c.7 1.7.6 3.2-.1 4.5-1.4 2.7-3.3 1.9-3.7-1.5-.7-5.5 2.1-7.7 3.8-3M312.5 331.6c-1.9 2-1.2 3.2.9 1.5.8-.7 2-1 2.6-.6 1.6 1 1.2 3.3-.7 3.8-1.5.4-1.5.6.5 1.2 1.2.4 2.2 1.3 2.2 2 0 1.9-3 2.7-4.7 1.4-.7-.7-1.7-.9-2.1-.5-.7.7 2.4 3.6 3.9 3.6.4 0 1.7-.8 3-1.8 1.6-1.4 2-2.4 1.4-3.8-.4-1-.7-2.9-.6-4.1.1-1.3-.6-2.6-1.8-3.2-2.5-1.4-2.7-1.4-4.6.5M323.8 331.1c-1 .5-1.8 1.8-1.8 2.7.1 1.5.2 1.5 1.5-.2 1.6-2 4.5-1.5 4.5.8 0 .8-1.3 2.4-3 3.6-4.3 3.1-3.9 5 1.1 5 2.6 0 3.8-.4 3.3-1.1-.3-.6-1.7-.8-3-.5-3.3.9-3-.6.6-3.2 3.1-2.4 3.8-5 1.8-7-1.4-1.4-2.7-1.5-5-.1M340 331.1c-2.3.6-2.3.7.8.8 1.7.1 3.2.3 3.2.6s-.9 2.3-2 4.5c-2.2 4.4-2.5 6-1 6 .6 0 1-.5 1-1.1s1.1-3.3 2.4-5.9c2.4-4.8 2.4-4.8.3-5.2-1.2-.2-3.3-.1-4.7.3M350.7 334.8c-3.4 4.8-3.4 5.2.3 5.2 2.2 0 3 .5 3 1.7.1 1.7.1 1.7 1.4.1 1.5-2 .7-9.9-1-10.5-.6-.2-2.3 1.4-3.7 3.5m3.3 1.2c0 1.1-.7 2-1.5 2-1.7 0-1.8-.2-.9-2.4.9-2.3 2.4-2 2.4.4M332.5 338c-.3.5.3 1 1.5 1s1.8-.5 1.5-1c-.3-.6-1-1-1.5-1s-1.2.4-1.5 1M288.3 333.7c-6.2.6-5.3 2.3 1.2 2.3 3 0 5.5.4 5.5 1 0 .5-2.5 1-5.5 1-6.7 0-7.3 1.7-.8 2.2 3.3.2 5.2-.1 6.7-1.3 2-1.7 2.1-1.7.2-3.8-1.1-1.2-2.2-2-2.5-1.9s-2.5.3-4.8.5M225.7 335.4c-.6 1.5.1 2.6 1.5 2.6 1.1 0 1-2.7-.1-3.4-.5-.3-1.1 0-1.4.8M232.4 335.3c-.8 2.1.2 3.5 1.6 2.1.5-.5.6-1.5 0-2.4-.8-1.2-1-1.2-1.6.3M239 336.5c0 .9.5 1.5 1.1 1.3s1.1-.8 1.1-1.3-.5-1.1-1.1-1.3-1.1.4-1.1 1.3M277 355l-35.5.5v22l29.5.3c16.2.1 34.9-.1 41.5-.5l12-.8.3-9.9c.2-6.2-.1-10.3-.8-11-1.3-1.3-.4-1.3-47-.6m46 10.4v9.3l-8.2.6c-4.6.4-22.6.7-40 .7H243v-19l26.8-.3c14.7-.1 32.7-.3 40-.5l13.2-.2z"/><path d="M310.5 359.8c-4.7 1-6.2 8.9-2.3 11.6 1.2.9 3 1.6 3.9 1.6 2.2 0 6.6-3.6 5.7-4.6-.5-.4-1.6 0-2.6.9-3.5 3.2-7.2 1.4-7.2-3.5 0-4 4.1-5.9 7-3.3 1.9 1.8 2.7 1.1 1.2-1.1-1-1.4-3.3-2.1-5.7-1.6M260.6 361.6c-.9.8-1.6 2-1.6 2.5 0 1.5 1.7 1 2.4-.6.7-2 2.5-1.9 3.3.1.4 1-.6 2.6-2.6 4.4-4.2 3.9-3.9 5 1.2 4.9 4.2-.2 4.2-.2.7-.8l-3.5-.6 3.2-2.4c4.2-3.1 4.7-4.7 2.3-7.1s-3.4-2.5-5.4-.4M296.9 361.6c-1.8 2.2-1.6 8.1.3 10 1.1 1.1 2.5 1.4 4.2 1 2.3-.6 2.6-1.1 2.6-5.4 0-2.6-.5-5.3-1.2-6-1.7-1.7-4.3-1.5-5.9.4m4.6 5.5c0 3.2-.4 4.4-1.5 4.4-1.6 0-2.6-5.4-1.6-8.2 1.2-3 3.1-.6 3.1 3.8M249.7 361.6c-.4.4-.7 1.4-.7 2.2 0 1.2.4 1.2 2-.3 1.9-1.7 2-1.7 2.7.1.4 1 .2 1.9-.5 2.2-1.7.5-1.5 2.2.3 2.2 2 0 1.9 2.9-.1 3.7-1 .4-2.2-.1-2.9-1.1-.8-1-1.6-1.3-1.9-.7-.9 1.4 3.8 4.3 5.7 3.5 2.2-.8 2.7-3.1 1.9-7.9-.6-3.3-1.2-4.1-3.2-4.3-1.4-.2-2.9 0-3.3.4M275.5 362c.3.5 1.7 1 3.1 1 2.4 0 2.4 0 .4 3.7-2.1 4-2.5 6.3-1.2 6.3.5 0 1.4-1.7 2-3.9.7-2.1 1.9-4.4 2.7-5.1 2.6-2.1 1.7-3-3.1-3-2.7 0-4.3.4-3.9 1M287.6 364.8c-3.2 4.6-3.2 5.2-.5 5.2 1.2 0 2.8.8 3.5 1.7 1.2 1.6 1.3 1.6 1.4.1 0-.9.6-1.9 1.3-2.2 1-.5 1-.7 0-1.2-.7-.3-1.3-2.1-1.3-4 0-4.4-1.1-4.3-4.4.4m2 2.9c-1 1-1.9-.5-1-1.8.6-1.1.8-1.1 1.2 0 .2.7.1 1.5-.2 1.8M269.5 367.9c-.7 1.2 1.2 2.4 2.5 1.6 1.1-.7.4-2.5-1-2.5-.5 0-1.1.4-1.5.9M362.8 362.1c-2.9 1.6-2.1 3.9 1.8 5.5 2.7 1.1 3.4 1.8 2.6 2.6s-1.8.8-3.7 0c-3-1.4-3.4.2-.5 1.8 2.3 1.2 6-.2 6-2.3 0-1.9-2.1-3.7-4.3-3.7-1.1 0-1.7-.5-1.4-1.3.2-.7 1.7-1.1 3.3-.9 2.8.2 2.8.2 1-1.3-2.3-1.8-2.5-1.8-4.8-.4M376.6 362.6c-2.4 2.3-2 3.2 2.1 4.9 2.7 1.2 3.4 1.8 2.5 2.7s-1.8.9-3.8 0c-2-1-2.5-1-2.2 0 .6 1.7 5.6 2.2 7.3.8 2-1.6.3-4.8-2.7-5.2-3.2-.4-2.3-2.3 1-2.1 2.6.2 2.6.1.8-1.2-2.5-1.9-3.1-1.9-5 .1M385.2 361.9c-1 .6-.9 1 .7 1.4 1.7.4 2.1 1.3 2.1 4.7 0 2.5.4 3.9 1 3.5.6-.3 1-2.4 1-4.6 0-2.9.4-3.9 1.6-3.9.8 0 1.2-.5.9-1-.8-1.2-5.5-1.3-7.3-.1M395.8 362.1c-2.6 1.4-2.2 3.8.7 4.5 3.4.8 5.2 3.2 3.1 4-.9.3-2.3.1-3.1-.6-1.7-1.4-3.1-.8-2 .9.9 1.5 6 1.4 7.4-.2 1.3-1.7-.5-4.4-3.3-4.9-1.1-.1-2.1-.9-2.4-1.7-.4-1.1.2-1.3 2.7-.8 3.2.7 4.3-.6 1.5-1.7-2.1-.8-2.6-.7-4.6.5M409.7 362.8c-3.3 3.6-1.1 9.2 3.5 9.2 3.1 0 5.1-2.1 5.1-5.5 0-5.2-5.3-7.4-8.6-3.7m4.7-.2c1 .4 1.6 1.8 1.6 4.1 0 3.2-.2 3.4-2.7 3.1-3.1-.3-4.3-3.8-2.3-6.4 1.4-1.6 1.3-1.6 3.4-.8M420.7 361.7c-1.1 1-.8 10.3.3 10.3.6 0 1-1.1 1-2.5 0-2 .5-2.5 2.8-2.6 2.4 0 2.4-.1.7-.8-1.1-.5-2.3-.7-2.7-.4-.5.2-.8-.3-.8-1.1 0-1 .9-1.6 2.4-1.6 1.4 0 2.8-.5 3.1-1 .7-1.1-5.7-1.4-6.8-.3M205.9 363.6c-.6.7-.9 3.2-.7 5.6.3 4.2.4 4.3 4.1 4.6 2.1.2 3.7-.1 3.7-.7s-1.3-1.1-3-1.1q-3 0-3-1.5c0-.9.9-1.5 2.5-1.5 1.4 0 2.5-.5 2.5-1 0-.6-1.1-1-2.5-1-3.3 0-3.2-1.8 0-2.2 1.4-.2 2.7-.8 2.8-1.3.3-1.4-5.2-1.3-6.4.1M221.3 363.5c-3.2 2.3-3.5 5.4-.8 8.1 1.3 1.3 2.9 2.4 3.5 2.4 1.7 0 5-3.9 5-6 0-2-3.2-6-4.8-6-.4 0-1.7.7-2.9 1.5m5.2 4.5c0 2.8-.4 3.6-2.2 3.8-2.9.4-4.8-3-3.3-5.9.7-1.3 1.9-1.9 3.3-1.7 1.8.2 2.2 1 2.2 3.8M231.2 363.2c-1.4 1.4-1.6 8.4-.3 9.3.5.3 1.1-.5 1.3-1.7.2-1.4 1.3-2.5 2.8-2.9 2.5-.7 2.5-.7-.3-.8-3.6-.1-3.1-2.5.6-2.9 1.5-.2 2.5-.8 2.2-1.3-.9-1.3-4.9-1.1-6.3.3M328 364.5c-1.8 4.8 2 9.6 6.3 7.9 1.7-.6 3.1-3.4 1.7-3.4-.5 0-1.2.4-1.5 1-1.2 2-4.5 1-5.1-1.5-.8-3.4 1.2-5.8 4.3-5 1.3.3 2.3.1 2.3-.5 0-.5-1.6-1-3.5-1-2.9 0-3.7.5-4.5 2.5M339 363.9c-1.7 3.2-1.1 6 1.5 7.7 4.9 3.2 9.7-1.3 7.6-7-.9-2.1-1.7-2.6-4.5-2.6-2.5 0-3.8.6-4.6 1.9m7 .6c.7.9 1 2.5.6 4.1-.5 2-1.2 2.5-3.4 2.2-2.1-.2-2.8-.9-3-3.2-.5-4.2 3.2-6.2 5.8-3.1M350 367c0 2.7.5 5 1 5 .6 0 1-1.4 1-3 0-1.7.4-3 .8-3s1.6 1.3 2.5 3c2.6 4.4 3.7 3.7 3.6-2.3-.2-5-.2-5.1-.8-1.3l-.6 4-2.5-3.7c-3.5-5.2-5-4.8-5 1.3M371 366.4c0 2.5.5 4.8 1 5.1.6.4 1-1.3 1-4.4 0-2.8-.4-5.1-1-5.1-.5 0-1 2-1 4.4M122 364c0 .5.7 1 1.5 1 1.1 0 1.5 1.2 1.5 4.5 0 2.5.5 4.5 1 4.5.6 0 1-2 1-4.5 0-3.3.4-4.5 1.5-4.5.8 0 1.5-.5 1.5-1 0-.6-1.8-1-4-1s-4 .4-4 1M142.7 363.7c-.4.3-.7 2.8-.7 5.5 0 4.8 0 4.8 4.6 4.8 2.7 0 4.3-.4 3.9-1-.3-.6-2-1-3.6-1-2 0-2.9-.4-2.6-1.3.2-.6 1.3-1.2 2.4-1.2 1.2 0 2.5-.3 2.9-.8.4-.4-.7-.7-2.4-.7-2.2 0-3.2-.5-3.2-1.5q0-1.5 3-1.5c1.7 0 3-.5 3-1 0-1.1-6.3-1.4-7.3-.3M157.2 363.9c-.9.5-1.2 2.3-.9 5.2.3 4.1.6 4.4 3.4 4.7 3.3.3 6.3-2.5 6.3-5.9 0-3.5-5.5-6.1-8.8-4m6.3 4.6c0 2.5-.4 3-2.7 3.3-2.6.3-2.8.1-2.8-3.3s.2-3.6 2.8-3.3c2.3.3 2.7.8 2.7 3.3M173.6 364.5c-1.9 2-2 5.4-.2 7.7 1.5 2.1 4.7 2.3 6.4.6 1.9-1.9 1.4-3-.7-1.7-2.6 1.7-5.1.4-5.1-2.4 0-3.5 2.3-5.2 5.1-3.7 1.7 1 2 .9 1.7-.2-.7-1.9-5.3-2.2-7.2-.3M184 365c-1.1 1.1-2 2.7-2 3.5 0 2.1 3.6 5.5 5.9 5.5 2.2 0 5.1-3.5 5.1-6.2 0-2.2-2.7-4.8-5.1-4.8-1 0-2.8.9-3.9 2m5.8.2c1.7 1.7 1.5 5.8-.4 6.5-3.6 1.3-6.8-3.3-4.4-6.2 1.5-1.8 3.2-1.9 4.8-.3M194.7 363.7c-.4.3-.7 2.6-.7 5 0 4.9 1.6 6.2 5.8 4.7 3.7-1.3 5.1-5.7 2.7-8.4-1.7-1.9-6.4-2.7-7.8-1.3m7 2.9c.8 2.2-.9 4.8-3.6 5.2-1.8.3-2.1-.1-2.1-3.2 0-3.2.3-3.6 2.5-3.6 1.5 0 2.8.7 3.2 1.6M131.9 369.2c.3 2.9.7 4.3.9 3 .3-1.7 1-2.2 3.2-2.2s3 .5 3.3 2.2c.2 1.3.5-.2.5-3.2.1-4.6-.1-5.1-1-3.3-1.4 2.8-4.8 3-5.5.3-1-3.8-1.8-2-1.4 3.2M168 370c0 .5.5 1 1 1 .6 0 1-.5 1-1 0-.6-.4-1-1-1-.5 0-1 .4-1 1M378.1 380.8c-4.9 2.7-7.3 7.5-6.8 13.7.4 4.2 1 5.4 4.1 8.1 6.1 5.3 14.4 5 19.8-.8 5.1-5.5 4.6-13.7-1.2-19.3-3.8-3.7-11-4.5-15.9-1.7m12.4 1.7c7.3 3.5 8.1 15.2 1.4 19.9-2.7 1.9-9.7 2.1-13.3.5-5.7-2.6-7.2-13.5-2.6-18.4 3.4-3.6 9.3-4.4 14.5-2"/><path d="M381.1 387.8c-.6 1.1-.6 2.4 0 3.5.7 1.1.6 2.4-.1 3.7-1.5 2.8 1.1 5.4 4.6 4.6 3.1-.8 4-3 2.6-6-.7-1.5-.7-2.7-.1-3.3.5-.5.7-1.7.3-2.6-.8-2.3-6-2.2-7.3.1m4.9 1.2c0 1.1-.4 2-1 2-.5 0-1-.9-1-2s.5-2 1-2c.6 0 1 .9 1 2m-.5 7.3c0 2.6-2 2.5-2.3-.2-.3-1.6.1-2.2 1-1.9.7.3 1.3 1.2 1.3 2.1M266.9 381.5c-6.2 3.3-8.7 13-5 19.1 2 3.3 8.1 6.7 12.1 6.7s10.1-3.4 12.1-6.7c3.8-6.2 1.7-14.9-4.4-18.6-3.8-2.4-11-2.6-14.8-.5m13 1.9c6.7 3.5 8.2 12.2 3.2 17.8-2.7 3.1-3.4 3.3-9.1 3.3-5.9 0-6.4-.2-9.1-3.5-8.5-10.1 3.2-23.7 15-17.6"/><path d="M272.5 387.8c-.5.4-1 3.4-1 6.7 0 5.7.1 6 2.5 6 2.5 0 2.5-.1 2-6.4-.5-6.2-1.4-7.9-3.5-6.3M325 390.7c-4.8 3.3-.2 12.1 4.9 9.3 3.2-1.6 4.3-4.5 3-7.3-1.4-3-5.1-3.9-7.9-2m6 1.8c2.6 3.1-1.3 8.2-4.4 5.6-1.6-1.4-2.2-5.2-.9-6.4 1.1-1.2 4-.8 5.3.8M348.2 390.6c-2.4 1.7-3 6.2-1 8.2.7.7 2.9 1.2 5 1.2 3.4 0 3.8-.3 3.8-2.5 0-2.8-2.5-4.4-4.3-2.6-.8.8-.7 1.1.6 1.1 1.9 0 2.3 1.5.7 2.5-2.2 1.4-5-.6-5-3.6 0-3.4 2.3-4.8 5.1-3 1.1.6 1.9.7 1.9.1 0-.8-3.1-3-4.2-3-.2 0-1.4.7-2.6 1.6M217.2 391.2c-1.3 1.3-1.6 5.6-.6 8.2.7 1.7 5 2.1 7.2.7 1.6-.9.6-8.1-1.2-9.3-1.7-1.1-4.1-.9-5.4.4m5.1 2.3c-.4 1.5-3.6 1.2-4.1-.3-.3-.9.3-1.3 1.9-1 1.3.1 2.3.7 2.2 1.3m.5 4.2c.5 1.7-2.6 2.9-4 1.5-.6-.6-.7-1.5-.3-2.2.9-1.4 3.7-.9 4.3.7M226.9 392.7c-.5 1.5-.9 3.8-.7 5.2.3 2.2.9 2.6 4.1 2.9 2.1.2 3.7-.1 3.7-.7s-1.4-1.1-3.1-1.1c-3.9 0-3.4-2.3.7-3.1l2.9-.6-2.9-.4c-4.1-.6-4.6-2.9-.7-2.9 1.7 0 3.1-.5 3.1-1 0-.6-1.4-1-3-1-2.4 0-3.3.6-4.1 2.7M236.7 390.7c-1.1 1-.8 9.1.3 9.8.6.3 1-.3 1-1.3 0-2 2.5-3.6 4.1-2.6.5.3.9 1.1.9 1.9s.4 1.7 1 2c1.3.8 1.1-7.6-.3-9.3-1-1.3-5.9-1.7-7-.5m6.1 2.5c-.7 2-4.8 2.3-4.8.4 0-1.1.9-1.6 2.6-1.6 1.6 0 2.4.5 2.2 1.2M248 391.5c-1.6 2-.6 4.5 1.9 4.5s3.7 1.8 2.2 3.3c-.8.8-1.4.8-2.3-.1-1.4-1.4-2.8-1.6-2.8-.3 0 .5.9 1.3 2 1.6 5.7 1.8 8.5-3.7 3-5.8-3.9-1.5-3.9-3.1.1-2.3 2.7.5 3 .4 1.9-.9-1.6-1.9-4.4-1.9-6 0M292.3 391.4c1.1.8 1.7 2.7 1.7 5 0 2 .5 3.6 1 3.6.6 0 1-1.8 1-4 0-2.8.4-4 1.4-4 .8 0 1.8-.5 2.1-1 .4-.6-1.2-1-4.2-1-4.2.1-4.6.2-3 1.4M301.8 390.6c-1.2 1.1-1 9.4.2 9.4.6 0 1-.9 1-2 0-1.5.7-2 2.5-2s2.5.5 2.5 2c0 1.1.5 2 1 2 .6 0 1-2.3 1-5.1 0-3.1-.4-4.8-1-4.4-.5.3-1 1.3-1 2.1 0 2.4-4.8 1.8-5.2-.7-.2-1.1-.6-1.7-1-1.3M312 394.9c0 2.8.5 5.1 1 5.1.6 0 1-.9 1-2 0-1.5.7-2 2.5-2s2.5.5 2.5 2c0 1.1.4 2 1 2 .5 0 .8-2.1.7-4.8-.2-4.7-.2-4.7-4.4-5-4.3-.3-4.3-.3-4.3 4.7m6.8-2.2c.2.8-.6 1.3-2.2 1.3-1.7 0-2.6-.5-2.6-1.6 0-1.9 4.1-1.6 4.8.3M335 393.7c0 4.9 1.2 6.5 4.5 6.5s4.5-1.6 4.5-6.5c0-5.1-1.8-4.7-2.2.5-.2 3.5-.7 4.3-2.3 4.3s-2.1-.8-2.3-4.3c-.4-5.2-2.2-5.6-2.2-.5M358 395.1c0 3.1.4 4.8 1 4.4.6-.3 1-1.3 1-2.1s1-1.4 2.5-1.4c1.9 0 2.5.5 2.5 2.1 0 3.7 1.6 1.1 1.8-3 .3-4.2-1.2-6.4-2.1-3.1-.7 2.7-4.7 2.7-4.7 0 0-1.1-.4-2-1-2-.5 0-1 2.3-1 5.1M122.7 391.7c-1.1 1-.8 9.1.3 9.8.6.4 1-.5 1-1.9 0-2.1.5-2.6 2.8-2.7 2.7-.1 2.7-.1.3-.8-3.7-1-3.8-3.1-.2-3.1 1.7 0 3.1-.5 3.1-1 0-1.1-6.3-1.4-7.3-.3M132 396.5c0 3.5.4 5.4 1 5 .6-.3 1-2.6 1-5s-.4-4.7-1-5c-.6-.4-1 1.5-1 5M137.2 392.2c-1.6 1.6-1.5 7.3.1 8.7.8.6 3 1 5 .9 3.4-.1 3.7-.4 3.7-3 0-2.4-.4-2.8-2.7-2.7-1.8.1-2.2.3-1 .6 2.6.7 1.5 2.7-1.6 3.1-2.5.3-2.7 0-2.7-3.1 0-3.8 2.3-5.6 4.7-3.6 1.5 1.3 2.8.6 1.8-1-.9-1.5-5.8-1.4-7.3.1M148.2 395.7c-.2 4.9 0 5.3 2.5 5.9 4.4 1.1 7.6-4.2 5.6-9.3-.6-1.3-.9-.6-1.3 2.7-.4 4-.8 4.5-3 4.5s-2.6-.5-3.1-4.5c-.6-4.5-.6-4.5-.7.7M158.7 391.6c-1.1 1.1-.8 9.2.3 9.9.6.4 1-.5 1-1.9 0-3.6 3.5-3.5 5.4.1 1.4 2.7 1.4 2.7 1.3-2.7-.2-5.5-.2-5.5-3.8-5.8-1.9-.2-3.8 0-4.2.4m5.8 2.4c0 .8-1 1.6-2.2 1.8-1.8.3-2.3-.2-2.3-1.8s.5-2.1 2.3-1.8c1.2.2 2.2 1 2.2 1.8M169.4 392.4c-.3.8-.4 3.1-.2 5.2.3 3.7.5 3.9 4.1 4.2 2.1.2 3.7-.1 3.7-.7s-1.3-1.1-3-1.1q-3 0-3-1.5c0-.9.9-1.5 2.5-1.5 1.4 0 2.5-.5 2.5-1 0-.6-1.2-1-2.6-1-3.5 0-2.6-2.3 1.2-3.1 2.7-.6 2.7-.7-.9-.8-2.4-.1-4 .4-4.3 1.3M183.7 391.7c-1.1 1.1-.8 9.5.3 8.8.6-.3 1-1.8 1-3.3 0-2.7 0-2.7 2.6.5 1.4 1.8 3 3.3 3.5 3.3 1.2 0 1.2-8.7-.1-9.5-.6-.4-1 .7-1 2.7l-.1 3.3-2.8-3.3c-1.5-1.7-3.1-2.9-3.4-2.5M194.1 395.1c-.1 5.7 1.7 7.8 5.4 6.1 2.1-1 2.5-1.8 2.5-5.7 0-2.8-.4-4.4-1-4-.5.3-1 2.4-1 4.6 0 3.2-.3 3.9-2 3.9-1.4 0-2.1-.9-2.5-3.8-1-5.8-1.3-6.1-1.4-1.1M204.7 391.7c-1 1-.8 8.1.2 8.8.5.3 1.1-.7 1.3-2.2.4-2.8.4-2.8 1.6-.1.6 1.6 1.4 2.8 1.6 2.8.3 0 1.2-1.2 2-2.8 1.5-2.7 1.5-2.7 1.6.1 0 1.6.4 2.6 1 2.2 1.3-.8 1.3-8.2 0-9-.5-.3-1.8 1.1-2.8 3.1l-1.9 3.8-1.2-3.7c-1.2-3.6-2.1-4.4-3.4-3M403 398.5c0 .3.2.5.5.5s.5-.2.5-.5-.2-.5-.5-.5-.5.2-.5.5M357.3 426.3c-3.7 2.5-7.3 8.4-7.3 11.8 0 2.4 2.9 8 5.6 10.6.8.8 2.7 1.8 4.2 2.2 2.7.7 2.7.7 3 11.7.1 6-.2 11.5-.7 12.3s-3.1 1.4-7.2 1.5c-6.5.2-13.9 2.1-13.9 3.6 0 2.1 5.7 4.2 11.9 4.5 3.6.2 7.7.8 9.1 1.2 3.5 1.3 5.5.6 6.9-2.3 1.6-3.6 1.4-5-1.4-8-2.3-2.5-2.5-3.4-2.5-12.9 0-10.2 0-10.2 4-11.4 7.9-2.3 12-12.1 8.2-19.1-4.2-7.6-13.2-10.2-19.9-5.7m13.8 2c3.8 2.5 5.9 6 5.9 9.7 0 5.8-6.4 12-12.4 12s-12.6-6.2-12.6-12 6.6-12 12.6-12c1.7 0 4.6 1 6.5 2.3m-4.3 51.9c-.3 3.8-.6 4.3-2.8 4.3-2.7 0-3.6-2-2.6-6.1.5-1.7 1.3-2.4 3.2-2.4 2.3 0 2.5.3 2.2 4.2m-15.8.3c0 .8-.4 1.5-.9 1.5-1.3 0-2.2-1.6-1.4-2.4 1.1-1.1 2.3-.6 2.3.9m4.4-.6c.3.5-.1 1.1-.9 1.5-.9.3-1.5 0-1.5-.9 0-1.6 1.6-2 2.4-.6m3.6.6c0 .8-.4 1.5-1 1.5-.5 0-1-.7-1-1.5s.5-1.5 1-1.5c.6 0 1 .7 1 1.5m-12.3.2c-.4.3-1 .3-1.4 0-.3-.4 0-.7.7-.7s1 .3.7.7"/><path d="M362.8 437c.3 3.2 0 5.5-.8 6.5-1.1 1.3-.7 1.5 2.6 1.4 2.2 0 3.3-.3 2.7-.6-.9-.3-1.3-2.6-1.3-6.4 0-5.1-.3-5.9-1.9-5.9s-1.7.6-1.3 5M460.7 456.4c-2.1.8-4 1.6-4.1 1.8-.1.1-1.2 1.6-2.4 3.2-2.8 3.7-3 10.9-.3 15.2 1.1 1.8 3.8 4 6 5l4.1 1.8.1 20c.1 11.1.2 24.6.2 30.1l.2 10-11.2 16.6-11.1 16.6-6.9.6c-12.2 1.2-15.3.9-15.3-1.2 0-2.3 1.9-3.1 7.3-3.1 3.7 0 12.2-3.4 15-6 1.4-1.3-3-9.9-5.5-11.1-1.6-.7-3.2-.7-5 0-3 1.1-10 7-9.4 8 .2.3-1.6 2.6-4 5.1-5 5-5.7 8.6-2.3 11.6 1.8 1.6 3.6 1.9 12 1.8 8.6-.2 9.9.1 9.9 1.5s-1.9 1.6-16 1.6h-15.9l-4.5-9.5-4.5-9.5-.2-40c-.3-39.9-.3-40 1.8-40.3 1.2-.2 3.8-1.8 5.8-3.6 3.4-2.8 3.8-3.8 4.2-8.7.5-7-2-11.2-8.2-14-3.8-1.7-5.1-1.8-8.4-.9-10.5 2.8-14.3 15.3-7.1 23 1.6 1.7 4.2 3.3 5.9 3.6 1.7.4 3.1.7 3.1.8 0 0 .3 18.3.7 40.6l.6 40.5 5.3 11c3 6.2 5.4 12.7 5.6 15 .3 4 .3 4 6.6 4.9 6.2.9 6.2.9 6.2 5.2 0 4.4 0 4.4-5.5 4.4-3 0-5.5.4-5.5 1s2.7 1 6 1c7 0 8.4 2.2 2.4 3.7-5.3 1.2-6.1 3.1-3.8 8.7 1 2.5 2.2 4.6 2.7 4.6 1.1 0 .9-1.5-.8-4.6-.8-1.6-1.5-3.5-1.5-4.1 0-1.8 6.8-4.6 11.5-4.7 3.3-.1 4.1-.5 4.3-2.3.2-1.4-.4-2.6-1.8-3.3-2.6-1.4-4.3-.4-3.7 2.1.6 2.3-.8 2.6-1.7.3-.3-.9-.6-3.8-.6-6.6 0-4.7.1-5 2.3-4.4 1.2.3 2.8.6 3.5.6s1.2 1.4 1.2 3.5c0 1.9.5 3.5 1 3.5.6 0 1-2 1-4.5 0-4.2.2-4.5 2.6-4.5 2.1 0 2.4-.4 1.9-2s0-2.3 2.7-3.4c3-1.3 3.5-1.3 5.5.6 1.2 1.1 3.7 2.3 5.5 2.7 3.4.7 5.4 4.1 2.4 4.1-2.3 0-18.6 7.8-18.6 8.9 0 1.3 2.6 2.1 6.7 2.1 2.6 0 4 .7 5.5 2.5 1.1 1.4 2.6 2.5 3.5 2.5 1.9 0 1.2 3.5-2.3 10.4-1.4 2.7-2.3 5.4-2.1 6 .3.6 2.1-2.4 4.2-6.7 2.7-5.5 3.6-8.6 3.3-10.9-.5-3.2 2.6-8.3 4.4-7.2.4.3 1.1-.3 1.4-1.3s1.2-3 2-4.4c.7-1.4 1.1-2.9.7-3.3-.3-.3-.1-.6.5-.6s1.4.4 1.7 1c1 1.6 15.6 1.2 17.4-.4.9-.8 3.8-2.6 6.4-3.9 3.8-2.1 5.3-2.4 7.5-1.6 3.3 1.1 6.8 6.3 7.7 11.3.4 2 1.2 3.9 1.7 4.2 1.5.9 0-5.2-2.4-10.4-2.7-5.8-6.9-8.4-11.2-6.9-1.7.5-4.1 1.6-5.2 2.4-1.9 1.2-2.2 1.2-2.8-.2-.3-.9-.6-2.6-.6-3.8 0-3.9-4.1-13.1-7.2-16.3l-3-3.2 3.9-1.2c6.9-2.3 10.3-5.1 10.3-8.6 0-3.2-1.3-4.9-5.3-6.9-1.6-.7-2.6-2.9-3.7-8-1.7-7.5-3.5-11.5-5-11.5-1.4 0-1.2 1.1.5 3 .8.9 2.1 4.6 2.9 8.3 1.5 7.2 2.8 9.4 6.3 10.8 1.7.6 2.3 1.6 2.3 3.9 0 2.5-.7 3.3-4.1 5-3.2 1.7-17.3 5-21.2 5-1.2 0-2.9 5.2-2.8 8.7.1 4.5-2.5 5.1-6.3 1.4l-2.9-3 9.9-15c5.4-8.2 10.5-16 11.2-17.3 1-1.8 1.2-8.4.7-31.5l-.6-29.2 4.9-2.1c5.3-2.3 9.2-7.5 9.2-12.4 0-9.9-9.9-16.6-19.3-13.2m14.1 5.2c7.5 8.6.6 20.7-10.9 19.1-6.3-.8-9.9-5.1-9.9-11.5.1-11.5 13.2-16.3 20.8-7.6m-71.1 2.9c3.3 3.3 3.5 3.8 3.1 8.7-.7 7.2-4.7 10.8-11.8 10.8-4.1 0-5.6-.5-8.2-2.9-3-2.6-3.2-3.4-3.2-8.7.1-5.2.5-6.1 3.3-8.6 2.6-2.3 4.1-2.8 8.2-2.8 4.5 0 5.5.4 8.6 3.5m34.9 95.2c2.5 3.3 1.7 6.7-2 8.7-4 2.1-5 1.7-6.4-2.4-1-2.7-.8-3.2 2.1-5.5 3.8-3 4.6-3.1 6.3-.8m-7.6-.3c0 .2-.7.7-1.6 1-.8.3-1.2.2-.9-.4.6-1 2.5-1.4 2.5-.6m-4.3 4.3c-.4.3-1 .3-1.4 0-.3-.4 0-.7.7-.7s1 .3.7.7m1.4 3.6c-.1 1.2-1.5.9-1.9-.4-.3-.6.1-1 .8-.8.6.3 1.1.8 1.1 1.2m-5.1 1.2c0 .3-.2.5-.5.5s-.5-.2-.5-.5.2-.5.5-.5.5.2.5.5m-2 2.4c0 .5-.7 1.4-1.5 2.1-2.2 1.8-1.8 4.6.7 6.4 2.6 1.8 2 2-1.6.6-3.1-1.1-3.5-4.9-.9-8 1.8-2.1 3.3-2.6 3.3-1.1m47.2 1c4.2 1.6 8.7 10.2 10.3 19.4.7 4.6-.6 6.7-4.4 6.7-2.6-.1-2.6-.1.3-1.6 2.7-1.5 2.8-1.9 2.3-6.4-.7-6.2-4.3-13.7-7.5-15.8-1.3-.9-4.3-1.9-6.6-2.3-4.1-.6-4.1-.6-.4-.8 2 0 4.7.3 6 .8m1.5 8.6c1.2 2.2 2.7 6 3.2 8.5 1.3 5.8 0 7.3-6 6.8-4.4-.3-4.4-.3-1.6-1.7 6.5-3.3.9-16.2-6.4-14.6-2.5.6-2.9.4-2.9-1.5s.5-2.1 5.7-1.8c5.5.3 5.8.4 8 4.3m-29.7-2.1c0 .3-.4.8-1 1.1-.5.3-1 .1-1-.4 0-.6.5-1.1 1-1.1.6 0 1 .2 1 .4m-4 1.1c0 .3-.2.5-.5.5s-.5-.2-.5-.5.2-.5.5-.5.5.2.5.5m27 3.5c0 1.2-4 3.4-4.7 2.6-.9-.8 1.7-3.6 3.3-3.6.8 0 1.4.4 1.4 1m-5.1 4.3c1.7 2.1 2.5 7.4 1.2 8.1-.6.4-1.6-.5-2.3-2.1-.7-1.5-2.1-3.5-3-4.4-1-.9-1.8-1.9-1.8-2.3 0-1.2 4.8-.6 5.9.7m6.6-.3c-.3.5-1 1-1.6 1-.5 0-.9-.5-.9-1 0-.6.7-1 1.6-1 .8 0 1.2.4.9 1m-49.5 3.5c0 2.4-.6 3.7-1.9 4.5-3.8 2-5.1 1.3-5.1-2.8 0-4.6.5-5.2 4.2-5.2 2.5 0 2.8.3 2.8 3.5m8.6-2c1.6.8 4.1 1.5 5.7 1.5 2.8 0 3.7 1.4 1.5 2.3-1 .4-1 .7 0 1.5 1.4.9-4.9 2.2-10.9 2.2-2.7 0-2.9-.3-2.9-3.8 0-5.6 1.4-6.4 6.6-3.7m27.9.5c.3.5-.1 1-.9 1s-1.8-.5-2.1-1c-.3-.6.1-1 .9-1s1.8.4 2.1 1m14.1 1.1c.7 1.2-1.2 2.9-3.3 2.9-2.8 0-1.1-3.6 1.9-3.9.4-.1 1 .4 1.4 1m-12.6 4.4c.7.8.8 1.5.2 1.5-.5 0-1.5-.7-2.2-1.5s-.8-1.5-.2-1.5c.5 0 1.5.7 2.2 1.5m-3.5 8.3c-3.8 3.2-8.6 6.2-9.9 6.2-3.1 0-1.5-1.9 3.7-4.4 5.4-2.5 7.9-3.3 6.2-1.8m5.5-.1c-.1 1.8-1.8 3.5-2.4 2.4-.4-.6-.4-1.6-.1-2.1.7-1.2 2.5-1.3 2.5-.3m-5 4.8c0 .9-.6 1.2-1.5.9-.8-.4-1.5-1-1.5-1.5s.7-.9 1.5-.9 1.5.7 1.5 1.5m-23.3 4.2c-.4.3-.7 0-.7-.7s.3-1 .7-.7c.3.4.3 1 0 1.4"/><path d="M463 463.5c-1.1 1.3-1 1.4.3 1 1.9-.8 3.3 1.3 1.8 2.8-.8.8-.6 1.6.5 2.8 2.3 2.5 1.2 4.8-2 4.2-1.5-.3-2.6-.1-2.6.6 0 .6 1.3 1.1 3 1.1 3.9 0 6.7-3.8 5-7-.6-1.1-.8-2.5-.5-3.1.8-1.2-1.3-3.9-3-3.9-.7 0-1.8.7-2.5 1.5M391 467.5c-1.2 1.4-1.1 1.6 1.3 1s2.7-.4 2.7 1.7c0 2.3-2.4 6.6-4.4 8-1.8 1.2-.2 1.6 3.9.9 2.7-.4 4.1-1.2 4.3-2.4.3-1.6.1-1.7-1.7-.5-3 1.8-3.8.2-1.2-2.6 3-3.2 2.5-7-1-7.4-1.5-.2-3.1.4-3.9 1.3M322 479.1c0 1.4.7 3.4 1.5 4.5 1.4 1.8 1.4 1.6.9-1.6-.8-4.4-2.4-6.3-2.4-2.9M328 479c0 .5 2.1 1 4.6 1 2.7 0 4.3-.4 3.9-1-.3-.6-2.4-1-4.6-1-2.1 0-3.9.4-3.9 1M327.2 491.7c1.5 3.4 2.8 5.1 2.8 3.5 0-1.8-2.2-6.2-3.1-6.2-.5 0-.3 1.2.3 2.7M407.8 493.3c-7.1 1.3-11.1 3.4-4.3 2.3 2.2-.3 7.9-.9 12.7-1.2 11.3-.8 23.5 2 36.7 8.2 9.2 4.5 13.3 5.5 6.9 1.7-16.7-9.7-36.2-13.8-52-11M385.3 499.5c-4.2 1.8-16.8 9.2-18.5 10.8-.7.7-2.6 2.3-4.3 3.5-4.8 3.7-13.5 12.4-13.5 13.5 0 .6 2.8-1.6 6.3-4.9 11-10.5 23.7-19.1 31.6-21.6 2.3-.7 4.1-1.6 4.1-2 0-1.2-2.1-.9-5.7.7M332 501.8c0 1.8 3.9 8.6 4 6.9 0-1-.7-3.1-1.5-4.7-1.5-3-2.5-3.8-2.5-2.2M147.7 502.7c-.4.3-.7 5.5-.7 11.4V525l20.3.2 20.2.3v53.8l-6 2.2c-8.8 3.1-34.2 16.1-40.7 20.6-1.4 1.1-3.1 1.9-3.7 1.9s-1.1.4-1.1.9-.9 1.3-2.1 1.6c-5.3 1.7-12.6 13.6-14.8 24.3-3.5 16.6 1.6 35.1 9.7 35.2 1.5.1 4.3 1.4 6.1 3 3.5 2.9 3.5 3 5.5 1.1 2.5-2.3 5.6-1.2 5.6 1.9 0 2.2 1.5 2.7 2.5.9.9-1.4-2.2-4.7-6-6.5-3-1.4-2.9-1.4 2.3-1 6.4.4 8.4 2 12.4 10.1 4.2 8.3 4.8 16.4 1.8 23.1l-2.2 4.9-1.3-4c-.7-2.2-1.9-6.2-2.6-8.8-.6-2.7-3-7.6-5.3-11-2.2-3.4-4.3-6.8-4.6-7.6-.4-.9-1.5-.2-3.4 2.4-3.1 4-3 5.9.2 2.5 2-2.1 2-2.1 4 0 5.3 5.7 10.2 18.8 10.2 27.3 0 5.2 1.9 8.1 7.1 10.8 8.2 4.1 15.3-1.1 20.9-15.6 1.3-3.3 3.9-7.7 5.9-9.9 5.9-6.3 18.2-15.2 27.7-19.9 10.7-5.4 15.7-7.2 24.8-8.9 6.1-1.1 8.9-2.8 7.3-4.4-1.5-1.6-21.9 4.2-30.9 8.7-4.4 2.2-15.9 9-16.8 9.9-.3.3-2.4 1.8-4.8 3.4-6.4 4.4-14.9 14-15.7 17.8-1.2 5.3-4.1 10.2-8.4 14.1-4.7 4.2-4.3 4.1-8 2.3-5.1-2.7-5.2-3.6-2-10.4 3.2-6.5 4.1-15 2.5-21.8-.7-3-.5-3.3 5.1-6.5 7.7-4.6 8.6-5.1 25.8-15.4 16.3-9.7 17.9-11 20.6-17.2 3.7-8 3.5-11.7-1.1-24.3-2.3-6.3-4.8-12.9-5.5-14.5-.7-1.7-1.7-4.2-2-5.7-.4-1.5-2.5-4.4-4.7-6.4-2.2-1.9-3.8-3.7-3.6-4 .5-.4 19.5-5.8 23.8-6.7 1.4-.3 5.1-1.2 8.3-2.1 9-2.5 10.4-2.2 11.2 2 .3 2 1.1 4.6 1.7 5.8 1 2.3 8.5 6.6 11.3 6.6 2 0 1.9.6-.4 3.8-3.3 4.7-5.5 17.2-3.3 18.6 1.8 1.1 3-1.2 3.4-6.4.2-3 1.5-7.6 2.8-10.2 2.8-5.6 2-7.2-3.9-8.2-5.4-.8-8.7-3.8-10-9-.6-2.5-1.1-4.6-1.1-4.8s1.6-1.2 3.5-2.2c6.1-3.3 4.7-4-7.5-3.6-8.6.2-25.3 2.8-36.1 5.5-5.4 1.4-10.2 2.5-10.8 2.5-.8 0-1.1-8.4-1.1-26.5V525h14.8c8.1 0 17.1-.3 20-.7l5.3-.6-.3-10.6-.3-10.6-40.6-.3c-22.3-.1-40.8.1-41.2.5m80.1 10.6.3 9.7H148v-19l38.8-.2c21.3-.2 39.2-.3 39.7-.2.6 0 1.1 4.2 1.3 9.7m9.2 59.8c-6.5 1.7-27.4 6.4-39.5 9-20.5 4.3-34.9 11.4-47 23.4-8.3 8.2-10.2 10.3-14.5 16.5-1.3 1.9-2.9 4-3.5 4.6-.5.6-1.9 2.2-3.1 3.5-3.5 4-8.5 8.1-9.2 7.5-1.9-2 4.3-20 8.6-25.1 5-5.9 40.4-25.1 55.7-30.2 17.7-5.9 42.3-10.6 57.5-11 1.4-.1-.9.8-5 1.8m-41 11.4c0 .3-.2.5-.5.5s-.5-.2-.5-.5.2-.5.5-.5.5.2.5.5m4.8 6.9c2.4 2.2 3.7 4.5 7 13.6 1.1 3 3.4 9.2 5.1 13.7 3.3 8.8 3.8 13.3 1.9 19.4-1.1 3.9-7.1 11.9-8.9 11.9-.5 0-3.3 1.5-6.2 3.4-10.4 6.7-36.1 21.6-37.3 21.6-.7 0-1.5-.9-1.9-1.9-.3-1-1.9-3.7-3.5-6-2.5-3.4-4-4.4-9.9-6.1-3.8-1.2-7.6-2.7-8.5-3.3-1.4-1.1-7.3-15.4-8.2-20.2-.3-1.3.8-3.4 3.1-5.9 3.4-3.7 3.5-3.8 3.5-1.2 0 2.8 2.9 5 5.3 4 2.4-.9 3-5.4 1.1-7.6-1-1-2.4-1.6-3.1-1.4-2.3.9-1.4-1.1 2.9-6.6 4.7-5.9 5.9-5.1 3.9 2.7-.9 3.4-.8 5.6.3 9.7 2.3 8.7 3.2 10.3 9.3 16.8 8.7 9.1 9.8 9.2 25.3 1.4 6.9-3.4 13.7-6.5 15.2-6.8 3.5-.8 4.5-4 2.1-7.3-4.7-6.7-6.6-11.2-7.3-16.8-.4-3.3-1.5-7.8-2.5-9.8-2.5-5.3-9.1-11.5-13.7-12.9s-4.2-1.6 6.2-5.2c11.8-4 13.7-3.9 18.8.8m-17.8-2.9c0 .3-.2.5-.5.5s-.5-.2-.5-.5.2-.5.5-.5.5.2.5.5m-7.2 9c4.6 2 7.7 4.8 11.3 10.4 2.3 3.6 2.9 5.6 2.9 10.3 0 4.5-.3 5.8-1.5 5.8-1 0-1.5-1-1.5-3.3 0-7.5-3.8-14.7-9.8-18.6-2.7-1.8-4.5-2.2-8.9-1.9-5.4.3-5.4.3-2.8-2 3.1-2.6 5.2-2.8 10.3-.7m-18.9 5.2c-4.3 5.3-8.6 9.6-10.4 10.5-1.1.6.9-1.9 4.5-5.6 6.1-6.3 8.8-8.5 5.9-4.9m17.8 4.6c3.6 3.9 5.3 8.6 5.3 14.1 0 4-.2 4.2-7.7 9.2-4.3 2.9-8.2 5-8.9 4.7-2.7-1-5.4-8.1-5.4-14.2 0-14 9.4-21.8 16.7-13.8m-17.9 1.9c-3.4 6.5-3.2 17.6.4 24 3.1 5.6 2.4 6.4-1 1.2-2.2-3.4-4.6-14.1-3.7-16.7.2-.7.9-3.1 1.5-5.4.9-3.7 3.2-7.3 4.6-7.3.2 0-.6 1.9-1.8 4.2m25.8 10.1c.3 6.2.3 6.2-.5 1-.5-2.9-1.8-7.1-3-9.3-2.9-5.5-2.6-6.3.5-1.6 1.9 2.8 2.7 5.4 3 9.9m-31.5-3.7c-.5 2.1-.9 3-1 1.9-.1-2.4 1-6.7 1.5-6.2.3.2 0 2.2-.5 4.3m-.4 7.6c-.3.7-.5.2-.5-1.2s.2-1.9.5-1.3c.2.7.2 1.9 0 2.5m-14.7 3.3c0 .3-.2.5-.5.5s-.5-.2-.5-.5.2-.5.5-.5.5.2.5.5m53 .3c0 .5-4.4 3.2-9.7 6.2-16.3 8.8-17.3 10-13.8 16.6 1.6 3.2.7 4.1-2.5 2.4-2.4-1.3-4-4.9-4-9.1 0-2.4.4-2.9 2.5-2.9 1.4 0 2.8-.6 3.1-1.3.7-1.9 13-10 17.3-11.3 4.4-1.5 7.1-1.7 7.1-.6m-47 2.2c0 .5-.4 1-1 1-.5 0-1-.5-1-1 0-.6.5-1 1-1 .6 0 1 .4 1 1m-9 .5c0 .3-.2.5-.5.5s-.5-.2-.5-.5.2-.5.5-.5.5.2.5.5m21.4 7.9c2.8 3.1 3.6 7.9 1.2 7-1.6-.6-6.6-11.3-6.6-14 .1-1.3.5-1 1.4 1.1.8 1.6 2.6 4.3 4 5.9m38.4-4.7c2.1 4.6 1.6 6.4-1.4 5.7-2.3-.6-2.5-.4-1.9 1.5.3 1.2.2 2.1-.4 2.1s-3.4 1.4-6.3 3.1c-12.6 7.5-12.8 7.6-12.8 5.6 0-1.1 1.3-2 10-6.9 5.8-3.3 7.2-5 6.6-7.9-.4-2 0-3.1 1.7-4.3 2.9-2 3-2 4.5 1.1m-60.8-1.2c0 .3-.2.5-.5.5s-.5-.2-.5-.5.2-.5.5-.5.5.2.5.5m-2 2c0 .3-.2.5-.5.5s-.5-.2-.5-.5.2-.5.5-.5.5.2.5.5m54.6 4.2c-.6 2-14.5 10.5-15.8 9.7-1.7-1-.7-4.5 1.5-5.4 1.2-.5 4.7-2.5 7.7-4.3 5.6-3.5 7.7-3.5 6.6 0m-55 3c.4 1.6 2 5.9 3.6 9.7 1.5 3.8 2.8 7 2.8 7.2s-2.6.4-5.8.4c-5.3 0-6-.2-7-2.5-2-4.5-1.5-12.5 1-15.2 2.9-3 4.6-2.9 5.4.4m69.1-1c-.4.3-.7 0-.7-.7s.3-1 .7-.7c.3.4.3 1 0 1.4m-78 2c-.4.3-.7 0-.7-.7s.3-1 .7-.7c.3.4.3 1 0 1.4m18.8 19.3c-.3.5-3.5 1-7.1 1s-6.4-.4-6.4-1 3-1 7.1-1c4.4 0 6.8.4 6.4 1m-.5 5.4c0 .2.3 1.1.6 2 .8 2.1-.6 2-3.6-.4-2.5-2-2.5-2 .3-2 1.5 0 2.7.2 2.7.4"/><path d="M182.6 508.6c-3.1 3.1-1.3 12.4 2.5 12.4 1.7 0 4.9-4 4.9-6.1 0-3.4-2.9-7.8-5.2-7.9-.4 0-1.4.7-2.2 1.6m5 3.8c.7 3.1-1.1 6.7-3.1 6-1-.4-1.5-2-1.5-4.5 0-3.2.3-3.9 2-3.9 1.2 0 2.2.9 2.6 2.4M203.2 507.7c-4.1 1.7-2.9 8.3 1.5 8.3 1.3 0 2.3.4 2.3.9 0 1.7-1.9 2.2-4 1.1-1.3-.7-2-.7-2-.1 0 .9 3.1 3.1 4.4 3.1 1.5 0 4.6-4.7 4.6-7 0-1.4-.9-3.6-2-4.8-2.1-2.3-2.6-2.4-4.8-1.5m3.5 2.4c1.6 1.6.5 3.9-1.8 3.9-1.2 0-1.9-.7-1.9-1.8 0-3.1 1.7-4.1 3.7-2.1M155 510c-.7 1.4-.7 2 0 2 .5 0 1-.5 1-1 0-.6.9-1 2-1 2.2 0 2.8 2.5.8 3.3-.9.3-.7.9.7 2 1.6 1.3 1.8 1.8.7 2.9-1 1-1.6 1-3.3 0-2.7-1.7-4-.5-1.5 1.4 2.5 1.8 5 1.8 6.5.1 1.1-1.4.8-8.7-.4-10.7-1.1-1.8-5.4-1.1-6.5 1M165.6 509.6c-.4.9-.3 2 0 2.3.4.3.9 0 1.1-.7.6-1.6 4.3-1.6 4.3.1 0 .7-1.6 2.7-3.5 4.6-1.9 1.8-3.3 3.7-2.9 4.2.9 1.5 8.6 1.1 8.1-.4-.2-.6-1.4-1.1-2.6-1-2.8.4-2.7-.4.9-3.7 2.7-2.6 2.9-3.1 1.8-4.9-1.6-2.6-6.3-2.8-7.2-.5"/><path d="M193.6 511.4c-3.3 4.3-3.3 5.6-.1 5.6 1.6 0 2.5.6 2.5 1.5 0 .8.5 1.5 1 1.5.6 0 1-.6 1-1.4s.6-1.7 1.3-1.9q1.5-.6 0-.6c-.8-.1-1.3-1.6-1.3-4.1 0-2.2-.4-4-.9-4s-2 1.5-3.5 3.4m2.4 2.6c0 1.1-.7 2-1.5 2-1.8 0-1.9-1.2-.3-2.8s1.8-1.5 1.8.8M175.5 515c-.3.5.3 1 1.5 1s1.8-.5 1.5-1c-.3-.6-1-1-1.5-1s-1.2.4-1.5 1M189.6 598.5c-2.8 2.9-1.7 7.5 1.9 7.5 4.7 0 5.9-5 1.9-7.7-1.9-1.2-2.4-1.2-3.8.2m2.1 3.2c-.4.3-.7 0-.7-.7s.3-1 .7-.7c.3.4.3 1 0 1.4M156.5 655.6c-3.4 3.4-.4 10.5 3.5 8.4 1-.6 2.2-1.5 2.5-2.1 1.1-1.7-.3-5.3-2.4-6.6-1.6-1-2.3-1-3.6.3m2.2 4.6c-.3.8-.6.5-.6-.6-.1-1.1.2-1.7.5-1.3.3.3.4 1.2.1 1.9M404 511.2c-4.6 1.3-6.7 3.3-2.5 2.4 17.3-3.7 25.5-3.1 40.5 2.7 5.7 2.2 14.6 7.4 17.4 10.2.9.9 2.2 1.5 2.8 1.3 1.6-.6-6.9-6.8-14.5-10.7-9.9-5.2-18.2-7.1-29.8-7-5.7 0-12 .5-13.9 1.1M468 510.7c0 .4 1.4 1.8 3.1 3 7.7 5.3 22 21.2 27.3 30.4 5.2 8.9 11.4 22.7 14.4 31.9 2.9 9.3 3.8 12.9 6.3 25.7.6 3.5 1.6 6.3 2.1 6.3s.7-.8.4-1.8c-.3-.9-1.4-6.3-2.5-11.8-6.3-32-20.8-58.7-42.2-77.9-6.7-5.9-8.9-7.4-8.9-5.8M338 514.1c0 1.9 2.3 6.9 3.3 6.9 1.1 0 .8-1.2-1.3-5-1.1-1.9-1.9-2.8-2-1.9M384.3 518.9c-2.9 1.6-7.2 4.4-9.5 6.2-5.6 4.2-19 18-18.3 18.7.3.3 3.5-2.6 7.2-6.4 7.8-8 15.5-14 23.1-17.9 2.8-1.5 5.2-2.9 5.2-3.1 0-1.1-3-.1-7.7 2.5M343 525.6c0 1.5 3.3 7.4 4.1 7.4.5 0 0-1.8-1.1-4-1.9-3.7-3-4.9-3-3.4"/><path d="M339.4 538.3c-13.1 17.8-21.4 38.9-26.5 66.7-1.6 8.8-1.6 40.6 0 50 6 35.3 21.1 63.3 45.6 85.1 9.8 8.6 24.6 16.5 38.3 20.4 5.3 1.5 19.3 2.2 27.2 1.4 24.7-2.5 49.4-17.1 66.3-39.2 9.7-12.7 22.5-36.1 21.3-39-.2-.7-.8-.1-1.2 1.3-1.6 5.5-12.8 25.8-18.1 32.9-5.4 7.2-16 18.4-21.2 22.5-5 3.9-16.9 11.3-20.2 12.5-1.9.7-4.3 1.7-5.4 2.1-10 4-17.8 5.4-30.5 5.4-24.4-.1-44.8-9.6-65.2-30.8-6.6-6.8-17.9-22.8-21-29.6-.9-1.9-2.7-6-4.1-9.1-3.9-8.7-7.6-21.3-9.8-33.9-1.8-9.8-1.8-44 0-54 4.1-23.8 11.7-43 24.3-61.8 5.2-7.7 5.4-9.9.2-2.9"/><path d="M350 541c2.5 5 3.5 5.2 1.5.4-.8-2-1.5-3.8-1.5-4s-.5-.4-1-.4c-.6 0-.1 1.8 1 4M598.9 545.3c-4.6 3-7.1 8.1-6.5 13.1.6 5.2 3.3 8.7 8.4 11.1 4.2 1.9 4.2 1.9 4.3 11.5 0 5.2.2 14.9.5 21.6.6 14 2.6 10.9-15.1 24-9.4 7-12.5 8.6-12.5 6.5 0-1.5-3.1-2.1-5.2-1-1.1.6-5.9 1.3-10.7 1.5-6.7.4-9 .9-10.5 2.3-1.8 1.9-1.8 2 2.5 4 2.8 1.4 6.2 2.1 10 2.1 3.2 0 6.1.4 6.4 1 .9 1.4 7.1 1.2 8.2-.3.6-.6 1.3-2.4 1.7-4 .5-2 3.4-4.8 10.9-10.2 19.1-14 17-9.5 16.2-35-.6-22.3-.6-22.3 2.2-22.9 3.3-.8 7.4-4.1 9.1-7.3 1.5-2.8 1.5-9.8 0-12.6-3.8-7.3-13.2-9.9-19.9-5.4m13.1 1.2c4.1 2.1 6 5.3 6 10.3 0 5.5-2.8 9.6-7.5 11.2-12.8 4.2-22-11.1-11.9-19.9 3.9-3.5 8.6-4.1 13.4-1.6m-34.2 92c-.1 3-.5 3.5-2.2 3.3-3.7-.5-3.4-6.8.3-6.8 1.7 0 2 .6 1.9 3.5m-22.3-1.5c.3.5.1 1-.4 1-.6 0-1.1-.5-1.1-1 0-.6.2-1 .4-1 .3 0 .8.4 1.1 1m5 0c.3.5-.1 1-.9 1-.9 0-1.6-.5-1.6-1 0-.6.4-1 .9-1 .6 0 1.3.4 1.6 1m4.5 1c0 .5-.7 1-1.5 1s-1.5-.5-1.5-1c0-.6.7-1 1.5-1s1.5.4 1.5 1m4.5 0c.3.5.1 1-.4 1-.6 0-1.1-.5-1.1-1 0-.6.2-1 .4-1 .3 0 .8.4 1.1 1"/><path d="M604.1 551.7c-1.9 3.8-1.7 5.6.9 6.3 1.4.3 2.6 1.4 2.8 2.4.4 1.6-.1 1.8-2.7 1.3-2.3-.5-3.1-.3-3.1.8 0 1.8 5.1 2 6.8.3 2.1-2.1 1.4-5.6-1.5-7.5-2.6-1.7-2.6-1.7-.3-2.3 1.3-.3 2.5-1.1 2.8-1.8.6-1.9-4.6-1.4-5.7.5M354 549.8c0 1.5 3.2 7.4 3.7 6.8.7-.7-1.9-7.6-2.9-7.6-.4 0-.8.4-.8.8M484 552.8c0 .5 1.1 1.4 2.4 2.2 3.7 1.9 5.3 6.6 3.5 9.7-1.6 2.8-7.6 5.2-12.9 5.3-2.5 0-3.1.3-2 .9 1.9 1.2 10.6-.4 13.7-2.5 3.1-2 4.2-5.1 3.2-8.9-1.1-3.8-7.9-9.6-7.9-6.7M558.3 554c-4.6 2.8-6.7 6.5-6.7 11.9 0 5.8 2.2 9.2 7.9 12.2 4.5 2.4 4.5 2.4 4.5 13.6 0 6.1.2 11.7.5 12.5.9 2.2-3.2 3.8-9.8 4-3.4 0-7.6.6-9.2 1.3-1.7.7-5.6 1.1-8.8.9-3.1-.2-5.9.1-6.2.6-.4.6.6 1 2.2 1.1 6.4.3 9 .7 12.8 2.3 2.3 1 6.7 1.7 10.2 1.7s6.5.4 6.8 1c.4.5 1.9.9 3.5.9 5 0 6.6-5.7 3-10.3-1.7-2.1-2.1-4.6-2.7-14.9-.6-12.3-.6-12.3 2.9-13.6 11.7-4.2 14.1-17.3 4.6-24.6-4.3-3.2-10.8-3.5-15.5-.6m14.4 2.2c7.9 5.5 6 17.8-3.2 20.8-4.7 1.6-9.1.4-12.6-3.2-2.3-2.5-2.9-4-2.9-7.5 0-5.5 1.2-7.9 5.3-10.3 4.2-2.6 9.3-2.5 13.4.2m-4.9 54.3c-.3 1.3 0 2.6.6 2.8 2 .8-1 2.9-3.5 2.5-1.6-.2-2.5-1.1-2.7-2.6-.5-3.6.5-5.2 3.4-5.2 2.3 0 2.6.3 2.2 2.5m-17.2 3.3c-.4.3-1.2 0-1.9-.7-.9-.9-.9-1.4.3-2.1 1.1-.7 1.6-.5 1.8.6.2.9.1 1.8-.2 2.2m5.4-1.3c0 .8-.7 1.5-1.5 1.5s-1.5-.7-1.5-1.5.7-1.5 1.5-1.5 1.5.7 1.5 1.5m4 0c0 .8-.4 1.5-1 1.5-.5 0-1-.7-1-1.5s.5-1.5 1-1.5c.6 0 1 .7 1 1.5"/><path d="M564.4 561.8c-4.6 6-5 8.2-1.2 8.2 1 0 1.8.4 1.8 1 0 1.7 2.5 1.1 3.7-1 .8-1.2.9-2.1.3-2.5-.6-.3-1-2.4-1-4.6 0-4.6-.7-4.8-3.6-1.1m.6 3.7c0 .8-.7 1.5-1.6 1.5-1.4 0-1.4-.3-.4-1.5.7-.8 1.4-1.5 1.6-1.5s.4.7.4 1.5M344.7 561.7c-9.6 19-14.1 35.5-15.3 55.7-.6 9.5-.4 11.7 1.1 14.5 1.2 2.4 1.5 4.5 1.1 7.5-1.8 11.9-1.8 12.7-.1 14.7 1 1 2.6 1.9 3.6 1.9 2 0 8.5-6.2 9.4-9.1 1.1-3.2-.2-3.4-1.9-.2-2.8 5.1-5.4 7.5-7.8 7.1-2.1-.3-2.3-.8-2.3-5.8 0-5.5 0-5.5 5.9-6.4 4.6-.8 6.4-.7 8.4.5 3.7 2.1 8.1 11.3 8.8 18.6.8 7.2-.3 9.3-4.7 9.3-1.8 0-4.1 1.1-6.1 2.9-2.9 2.6-3.3 3.5-3.2 7.9.1 8.5 6 20.4 16.8 33.7 2.2 2.7 4.1 5.2 4.3 5.4s.6.2.9-.2c.4-.3-.1-1.3-1-2.2-4-4-12.6-16.6-15.7-22.9-4-8.2-4.7-17.2-1.7-20.3 1.7-1.6 2-1.5 5.7 2.1 2.1 2 5.6 4.3 7.7 5.1 4.2 1.4 4 1.1 6.4 13.8 1.2 6.6 1.2 6.9-.9 8.3-2.3 1.7-3 8.1-1 10.1.6.6 1.2 2.6 1.4 4.3.3 4 4.5 7.1 7.3 5.4 1.9-1.3 3.6-13.2 2.1-14.9-.5-.5-.9.7-.9 3.2 0 11.8-3.2 13.7-7.3 4.3-3.3-7.4-3.4-9.5-.2-11.6 2.1-1.4 3.5-1.5 9.4-.6 3.8.5 9 1.9 11.6 3.1 4.8 2.1 4.8 2.1 3.9 7.4-.5 2.8-.9 9.1-.9 13.9 0 8 .2 8.8 2.5 10.8 4.6 4.1 8.6 5.1 20.9 5.3 7 0 13.2-.4 15.6-1.2 25.7-8.2 43.6-23.3 56.9-48.2 3.1-5.8 5.6-11.2 5.6-12-.1-.8-2.4 3.1-5.3 8.6-7.1 13.7-10.8 18.8-19.2 27.1-16.8 16.5-32.9 23.7-52.5 23.6-11.8 0-17.5-1.2-20.8-4.2-1.9-1.8-2.2-3.1-2.2-10.3 0-4.5.5-10.1 1-12.5 1.3-5.3.2-7.7-4.3-9.6-2.8-1.1-3.4-2-4.5-7.2-.6-3.2-1.3-7.7-1.4-9.8-.3-3.9-.3-3.9 6.2-5.7 17.3-4.7 20.7-6 25.8-9.6 3.1-2.1 5.4-4.3 5.1-4.8-.2-.6 2-1.3 5.1-1.6 4.3-.5 5-.8 3.3-1.4-1.3-.4-2.1-1.1-1.8-1.5.3-.5.1-1.1-.4-1.4s-1.1.1-1.5.9c-.7 2-2.6 1.9-4.1-.1-1-1.5-1.3-1.3-1.8 1.5-.4 1.7-1.1 3.1-1.7 3.1s-3 .9-5.2 2c-5.1 2.4-8.4 2.7-5 .3 1.2-.8 2.2-2.2 2.2-2.9 0-.9 1.1-1.4 3.1-1.4 1.7 0 2.8-.4 2.4-1-.3-.6-2.8-1-5.5-1s-5.2.4-5.5 1c-.4.6.6 1 2.2 1 2.8 0 2.8 0-1.1 3.3-3.6 3.1-7.7 4.9-18.4 7.9-5.3 1.4-6.1.6-5.5-6 .3-3.9.2-4.4-.8-2.8-1.2 2-.8 12 1 21.1.6 2.7 1.3 7 1.7 9.3.7 4.4.7 4.4-5.2 3.7-3.2-.4-6-.8-6.1-.9-1-.8-4.2-24.3-3.7-27.8.9-6.6-5.5-19.9-13.6-28-3.3-3.4-6-6.4-6-6.7s1.9-3.5 4.3-7.1c2.3-3.6 6.2-9.9 8.7-14 5.9-10 8.6-13.3 12.4-14.7 3.1-1.1 3.1-1.1-1.5-1.2-5.5-.1-5.6 0-16 16.4-9.7 15.3-9.3 14.6-8.1 15.4.7.4.3 1.5-.9 3.1-2 2.4-2 2.4-.9.2.6-1.3.8-2.7.4-3-.4-.4-.9-.2-1.1.4-.9 2.7-3 4.3-6.3 4.9-3.5.6-3.5.6-5.4-6-1.6-5.6-1.8-8.5-1.2-18 1.1-19.7 5.6-35.6 15.2-54.3 2.4-4.5 3.9-8.2 3.4-8.2-.4 0-2.8 3.9-5.3 8.7m19.9 46.1c-1.8 1.6-1.8 1.6-.6-.6.6-1.3 1.4-2.1 1.8-1.8.3.4-.2 1.4-1.2 2.4m-1.6 2.6c0 .3-.5.8-1.2 1.2s-.8.3-.4-.4c.7-1.2 1.6-1.6 1.6-.8m-2 3.1c0 .3-.2.5-.5.5s-.5-.2-.5-.5.2-.5.5-.5.5.2.5.5m-2 3c0 .3-.2.5-.5.5s-.5-.2-.5-.5.2-.5.5-.5.5.2.5.5m-3 4.9c0 .3-.5.8-1.2 1.2s-.8.3-.4-.4c.7-1.2 1.6-1.6 1.6-.8m-4.5 7.2c-3.2 4.8-4.2 5.7-2.5 2.4 2.1-4.1 4.2-7.1 4.7-6.6.2.2-.8 2.1-2.2 4.2m7.6 27c2.7 6.3 1.8 6.5-1.5.4-1.5-2.7-2.2-5-1.6-5s2 2.1 3.1 4.6m1.4 8.4c1.5 3 2 7.6.9 10.4-.8 2.1-1.6 2-4.2-.5-2.1-1.8-2.1-2.2-.7-4.2.8-1.2 1.5-3.6 1.5-5.4 0-4.1.5-4.1 2.5-.3m4.4 9.2c-.1 2.9.2 7.8.6 10.8 1 6.9-.1 6.2-1.5-1.1-1-4.8-.5-14.9.6-14.9.3 0 .4 2.4.3 5.2m-10.5.3c.3.8 2.1 2.3 4.1 3.2 3.7 1.8 4.6 3.3 1.9 3.3-3 0-10.4-5.1-10.4-7.2 0-1.4 3.8-.9 4.4.7M398 678c-2.4 1.6-11.6 4-14.9 4-4.5 0-3.8-1.8 1.2-3 2.3-.5 6.2-1.6 8.7-2.4 4.6-1.3 7.9-.4 5 1.4m-30.2 20c0 2.5 0 2.5-.8 0-.4-1.4-.8-3.9-.8-5.5v-3l.8 3c.4 1.6.8 4.1.8 5.5"/><path d="M360 561.9c0 1.8 3.3 8.6 3.7 7.5.2-.6-.3-2.7-1.2-4.7-1.5-3.5-2.5-4.7-2.5-2.8M365 573.4c0 1.6 3.2 7.6 4.1 7.6.5 0 .3-1.2-.3-2.8-1.3-2.9-3.8-6.2-3.8-4.8M372.1 589.2c1.2 2.4 2.4 3.8 2.6 3.1.5-1.5-2.4-7.3-3.7-7.3-.6 0-.1 1.9 1.1 4.2M264.9 598.5c-1.3 1.3-3.4 2.5-4.6 2.5-2.8 0-4.3 2.7-3.6 6.3 1 5.3-9.9 23.6-16.8 28.2-4.6 3-4.9 4.9-1.7 12.6 2.6 6.5 3.2 6.9 7 5.8 2.6-.7 3-.5 3.9 1.9 2.4 6.7 3.2 8 5.4 9.2 1.4.7 2.7 2.1 3 3.1 1.4 4.3 7.1 3.6 15.4-2 3.1-2.1 12.2-7.5 20.3-12.1s14.5-8.7 14.2-9.2-1.8.1-3.4 1.2c-1.5 1.1-3.1 2-3.4 2s-5.1 2.7-10.6 6-10.3 6-10.6 6-3.2 1.8-6.5 4.1c-6.1 4.1-10.8 5.4-11.6 3.1-.3-.7.4-1.2 1.9-1.2 3 0 4.8-1.7 4.8-4.6 0-1.3.5-2.6 1-2.9 1.3-.8 1.3-4.2.1-5-.8-.5-14.7-2.4-19.1-2.6-.8-.1-2.5.2-3.7.6-1.8.6-2.4 0-4.2-4-1.2-2.6-2.1-5.2-2.1-5.7s2.4-3.3 5.4-6.1c3.7-3.6 6.1-5.2 8-5.2 1.8 0 2.6.5 2.6 1.7 0 2.2 3.5 2.4 4.4.3.9-2.4-.5-4.6-2.8-4.3-4.3.5-4.7-1-2-6.5 1.5-2.9 3.5-6.4 4.5-7.9 2.5-3.4 2.5-5.7.2-3.5-1.7 1.4-1.8 1.4-1.8-.9 0-1.6.4-2.3 1.3-1.9.8.3 2.3-.2 3.5-1 2.3-1.6 4.1-2 3.3-.7-.2.4.2 1.6 1 2.7 1.3 1.8 1.5 1.8 3.1.2 1.5-1.5 1.6-2 .4-3.8-1.1-1.8-1-2.4.3-3.8 1.3-1.3 2-1.3 3.6-.3 1.2.7 5.6 1.2 10.9 1.2 8.4 0 8.9.1 8.4 2-.4 1.5 0 2 1.6 2 2.2 0 2.8-1.9 1-3.7-.7-.7.6-1.3 4.7-1.8 3.2-.4 6.9-1.1 8.2-1.6 4.6-1.8 1.5-2-5.9-.4-8.4 1.7-25.7 2.2-28.5.7-1.1-.5-2.9-1.4-4.1-2-3.2-1.7-3.8-1.5-6.4 1.3m5.3 1c0 .5-.5 1.1-1.1 1.3s-1.1-.4-1.1-1.3.5-1.5 1.1-1.3 1.1.8 1.1 1.3m-7.8 5c-.6 1.6-2.4 2.1-2.4.7 0-1.1 1.1-2.2 2.1-2.2.5 0 .6.7.3 1.5m7.6 2.5c0 .5-.2 1-.4 1-.3 0-.8-.5-1.1-1-.3-.6-.1-1 .4-1 .6 0 1.1.4 1.1 1m-20 21.5c0 .3-.2.5-.5.5s-.5-.2-.5-.5.2-.5.5-.5.5.2.5.5m9 2.5c0 .5-.4 1-1 1-.5 0-1-.5-1-1 0-.6.5-1 1-1 .6 0 1 .4 1 1m-19 15.1c0 .6-.4.7-1 .4-.5-.3-1-1.1-1-1.6 0-.6.5-.7 1-.4.6.3 1 1.1 1 1.6m11.7 7.6c-.4.3-1 .3-1.4 0-.3-.4 0-.7.7-.7s1 .3.7.7m9.9 2.1c1.8 1.2 3.6 5.3 3 6.8-.4 1.1-1.8 1.4-5.3 1.2-4.1-.3-4.9-.7-6.6-3.5-1-1.8-1.6-3.7-1.2-4.3.7-1.1 8.4-1.3 10.1-.2m6.4-.3c0 .3-.2.5-.5.5s-.5-.2-.5-.5.2-.5.5-.5.5.2.5.5m-1 3c0 .3-.2.5-.5.5s-.5-.2-.5-.5.2-.5.5-.5.5.2.5.5"/><path d="M257.3 657.6c-.8 2 .9 4.9 2.8 4.9 1.8 0 2.4-3.2.9-5-1.6-2-2.9-1.9-3.7.1m2.4 2.1c-.4.3-.7 0-.7-.7s.3-1 .7-.7c.3.4.3 1 0 1.4M376 597.2c0 1.7 4 8.2 4.6 7.5.6-.5-3.3-8.7-4.1-8.7-.3 0-.5.6-.5 1.2M408 601c-1.4.4-7.7.9-14 1-13.1.1-12.3 1.6 1.1 1.9 7.5.1 19.1-1.7 20.7-3.4.8-.8-5-.4-7.8.5M371.3 604.7c-.7.2-1.3 1.6-1.3 2.9 0 1.8.5 2.4 2.1 2.4 1.7 0 1.9-.3 1-1.4-.6-.7-.9-2.1-.5-3 .7-1.7.6-1.7-1.3-.9M287.4 606.1c-1 1.7 1.3 3.6 2.7 2.2 1.2-1.2.4-3.3-1.1-3.3-.5 0-1.2.5-1.6 1.1M406.3 605.7c.4.3 1 .3 1.4 0 .3-.4 0-.7-.7-.7s-1 .3-.7.7M374 607c0 .5 1.4 1 3 1 1.7 0 3-.5 3-1 0-.6-1.3-1-3-1-1.6 0-3 .4-3 1M395 608.4c0 .9 1.4 1.4 4.5 1.4 2.6.1 4.5-.3 4.5-.9 0-.7-1.4-1-3.5-.7-1.9.2-3.5 0-3.5-.4s-.4-.8-1-.8c-.5 0-1 .6-1 1.4M293.3 609.6c-.7 1.9 2 4.9 3.6 4 .6-.4 1.1-1.8 1.1-3.2 0-1.7-.5-2.4-2-2.4-1.1 0-2.3.7-2.7 1.6m3.7.8c0 .3-.4.8-1 1.1-.5.3-1 .1-1-.4 0-.6.5-1.1 1-1.1.6 0 1 .2 1 .4M455.5 610c-.3.5.4 1.1 1.7 1.2 7.7.5 10 .2 7.7-1.3-1.9-1.2-8.6-1.1-9.4.1M272.4 611.8c-3.1 2.6-4.5 5.8-4.6 10.3q-.15 8.1 5.4 11.4c3.1 1.8 3.1 1.8.4 4-2.2 1.8-2.7 2.7-2.1 4.5 1.2 3.9 4.9 10.3 6.5 11.2 1.9 1.2 21.7-9.5 22.2-12 .4-1.8-4-12.1-5.7-13.5-.5-.4-1.8-.5-2.7-.2-1 .3-2.7.8-3.9 1.1-1.9.6-2 .4-1.4-2.8.9-4.7-1.1-11.5-3.8-13.3-3.8-2.4-7.9-2.7-10.3-.7m7.5 2.3c2.2 2.4 3 6.6 2.3 12.5-.4 3.5-.9 4.5-3.2 5.4-3.2 1.3-6.3.2-8-3-1.4-2.5-1.3-3.7.2-2.2 1.9 1.9 4.6 1.4 6.4-1.3 3.2-4.8-.7-10.1-5.6-7.5-2.8 1.5-2.7-.6.2-3.7 2.7-2.9 5.1-2.9 7.7-.2m4.8 9.1c-.2 1.3-.4.5-.4-1.7-.1-2.2.1-3.2.4-2.3.2 1 .2 2.8 0 4m-8.2-3.1c1.2 1.9-.4 6.1-2.3 5.7-3-.6-2.8-6.8.2-6.8.8 0 1.8.5 2.1 1.1m22 18.8c.3 1.1.1 2.2-.5 2.6s-1-.4-1-1.7-.6-3.2-1.4-4.3c-.7-1.1-1.6-3.1-2-4.5-.8-2.8 3.9 4.7 4.9 7.9m-6.1-6.4c.9 1.4 1.9 3.8 2.2 5.4.6 2.7.1 3.2-6.4 7.4-10.2 6.6-10.7 6.7-13.2 1.3-2.5-5.6-2.5-5.8.3-8.4 1.2-1.2 3.1-3 4.1-4.1 1.5-1.7 5.4-3.1 10.7-4 .4-.1 1.4 1 2.3 2.4M470 611c0 .5 2.3 1 5 1 2.8 0 5-.5 5-1 0-.6-2.2-1-5-1-2.7 0-5 .4-5 1M485 611c0 .5 2.5 1 5.5 1s5.5-.5 5.5-1c0-.6-2.5-1-5.5-1s-5.5.4-5.5 1M500 611c0 .5 2.3 1 5 1 2.8 0 5-.5 5-1 0-.6-2.2-1-5-1-2.7 0-5 .4-5 1M515.5 611c-.4.6 1.5 1 5 1s5.4-.4 5-1c-.3-.6-2.6-1-5-1s-4.7.4-5 1M228.2 612.6c-3.2 2.2-2.7 7.3 1 9.3 2.4 1.4 2.8 1.4 4.7-.3 2.7-2.4 2.7-5.6.1-8.4-2.5-2.6-2.9-2.7-5.8-.6m4.6 1.3c2.2 1.3 1.1 6.6-1.3 6.6-2.1 0-3.2-3.2-2.1-6.1.6-1.6 1.5-1.7 3.4-.5M373.9 612.4c-3.1 1.8-6.9 10.1-6.8 14.8.1 2 .3 2.5.6 1.3 1.2-5.7 3.6-11.4 5.4-13.3 3.9-4.3 9.4-1.9 12.5 5.4.9 2.2 1.9 3.4 2.1 2.7s-.1-2.2-.7-3.3c-.6-1.2-.9-2.4-.6-2.7.2-.3 1.2 1.2 2.2 3.3.9 2.2 1.8 3.4 2.1 2.7.6-1.6-2.3-7.7-4.7-9.8-2.6-2.3-8.9-2.9-12.1-1.1M398.8 611.6c-1.2 1.1-1 4.2.3 4.9 1.4 1 1.6.4 1-2.8-.3-1.6-.9-2.5-1.3-2.1M406 614.4c0 .8-.6 1.6-1.2 1.9-.7.2-1 .8-.6 1.2.9.9 5.8-2.1 5.8-3.5 0-.6-.9-1-2-1s-2 .6-2 1.4M454 614.8c0 1.4-2.8 9.7-5.5 16.4-.4 1-.3 1.8.3 1.8.5 0 1.2-.8 1.5-1.8.3-.9 1.7-4.9 3.1-8.7 2.8-7.6 3.1-9.5 1.6-9.5-.5 0-1 .8-1 1.8M502.1 621.7c.2 12 1.7 14.7 1.8 3.1.1-5.5-.3-9.9-.9-10.3s-1 2.2-.9 7.2M521.4 624.5c0 5.5.1 7.6.3 4.7s.2-7.4 0-10-.3-.2-.3 5.3M396.5 621.6c-1.1.8-2.7 1.9-3.5 2.4s-1.2 1.1-.8 1.5c.7.7 7.8-3.6 7.8-4.8 0-1.1-1.3-.8-3.5.9M302.1 623.4c-1.8 2.1-.9 5.1 1.4 5.1 2.4 0 3.2-3.6 1.2-5.3-1.1-1-1.7-.9-2.6.2m1.9 2.6c0 .5-.4 1-1 1-.5 0-1-.5-1-1 0-.6.5-1 1-1 .6 0 1 .4 1 1M405.2 626.2c-.7.7-.8 1.7-.1 3 1.4 2.7 2.6 2.2 2.6-1.2 0-3.2-.6-3.7-2.5-1.8M408 627.9c0 1.3 3.7 2.4 5 1.6.6-.4.8-1.1.5-1.6-.8-1.2-5.5-1.2-5.5 0M382.8 630.5c-2.4 1.7-5.1 2.5-7.7 2.5-2.3 0-4.1.4-4.1 1 0 .5 2.2 1 4.8 1 3.6 0 5.4-.5 6.7-2 1-1.1 2.6-2.2 3.6-2.5 1.1-.4 1.9-1.1 1.9-1.6 0-1.5-1.3-1.1-5.2 1.6M390.5 629c-.3.6.4 1 1.8 1s3.9.3 5.6.6c2.6.6 3 .4 2.5-1-.7-1.8-8.8-2.3-9.9-.6"/><path d="M413.5 631c-3.2 2.4-4.7 2.9-7.5 2.5-1.9-.3-4.1-.1-4.8.3-.9.6.5 1.1 3.9 1.5 4.6.6 5.7.3 8.6-1.9 1.8-1.4 3.3-2.1 3.3-1.5 0 2.3-1.4 4.1-3.1 4.1-1 0-1.9.4-1.9 1s2.7 1 6.1 1c3.7 0 5.8-.4 5.4-1-.3-.6.1-1 .9-1 .9 0 1.6-.5 1.6-1 0-.6-1.5-1-3.4-1-3.7 0-5.4-2.3-3.5-4.6 2.1-2.5-1.3-1.5-5.6 1.6M304.4 632.4c-.9 2.4.4 4.8 2.3 4.4 1.2-.2 1.8-1.2 1.8-2.8 0-2.9-3.2-4.1-4.1-1.6m2.3 2.3c-.4.3-.7 0-.7-.7s.3-1 .7-.7c.3.4.3 1 0 1.4M360 633.5c0 1.4.4 2.5.9 2.5s.9-1.1.9-2.5-.4-2.5-.9-2.5-.9 1.1-.9 2.5M363.5 633c-.3.5.1 1 1 1s1.3-.5 1-1c-.3-.6-.8-1-1-1s-.7.4-1 1M386 634c0 .5 2.3 1 5 1 2.8 0 5-.5 5-1 0-.6-2.2-1-5-1-2.7 0-5 .4-5 1M430.5 635c-.4.6 1.7 1 5.5 1s5.9-.4 5.5-1c-.3-.6-2.8-1-5.5-1s-5.2.4-5.5 1M446 635c0 .5 2.5 1 5.6 1 3.4 0 5.3-.4 4.9-1-.3-.6-2.8-1-5.6-1-2.7 0-4.9.4-4.9 1M462.6 634.9c-1.8.7-1.8.8.5 1.4 3.6 1 7.9.8 7.9-.3 0-.6-.9-1-1.9-1-1.1 0-2.5-.2-3.3-.4-.7-.3-2.2-.1-3.2.3"/><path d="M475.2 636.5c-.7.8-2.6 1.5-4.2 1.5-1.5 0-4.1 1.1-5.7 2.3-2.6 2.2-3.3 2.3-9.8 1.6-3.8-.4-7.6-.8-8.2-.8-.7-.1-1.3-1.1-1.3-2.4-.1-2-.2-2.1-1.4-.5-1.5 2.1-4.2 2.4-4.9.5-.3-.9-.7-.9-2 .1-.9.8-2.5 1.1-3.6.7-1-.3-2.2-.1-2.6.5-.3.5-.5 1-.3 1.1 1.2.2 18.7 2 25 2.5 4.3.4 8.2 1.2 8.7 1.8s.7 2.4.4 3.9c-.5 2.4-1 2.8-3.7 2.7-5.2-.3-6.7 0-6.1 1 .3.5 2.8 1 5.4 1 4.8 0 4.9 0 5.8-3.9.6-2.2.7-4.5.2-5.4-.7-1.2-.1-1.7 3.2-2.2 4.8-.8 6.1.3 5.7 5-.2 2.4.1 3 1.7 3 3.4 0 3.3-5.9-.2-9.1-2.8-2.7-2.8-2.7-.3-2.1 1.4.4 2.8.7 3.3.7.4 0 .7 2.2.7 4.9 0 2.8.5 5.3 1 5.6.6.4 1-1.1 1-3.8 0-2.4.3-4.6.6-5 .3-.3 2.4.1 4.6.9 6.8 2.4 12.8 1.5 12.8-2 0-.6-.5-.5-1.2.2-1.8 1.8-7.6 1.5-13.7-.8-6.6-2.4-7.3-3-3.3-3 1.8 0 3.2-.5 3.2-1 0-1.6-9.3-1.1-10.8.5m2.8 10c0 .3-.2.5-.5.5s-.5-.2-.5-.5.2-.5.5-.5.5.2.5.5M400.3 638.7c-2.4 1.4-4.3 2.9-4.3 3.4 0 1.1 7.6-2.6 8.5-4.2 1.2-1.8.1-1.6-4.2.8M493.8 636.7c1.8.2 4.5.2 6 0s0-.4-3.3-.4-4.5.2-2.7.4M507 637c2 1.3 8.7 1.3 9.5 0 .4-.6-1.6-1-5.2-1-4.1 0-5.4.3-4.3 1M521 637c0 .5 2.5 1 5.5 1s5.5-.5 5.5-1c0-.6-2.5-1-5.5-1s-5.5.4-5.5 1M536 637c0 .5 2.5 1 5.6 1 3.4 0 5.3-.4 4.9-1-.3-.6-2.8-1-5.6-1-2.7 0-4.9.4-4.9 1M350.8 637.5c-.7.7 3.4 8.5 4.5 8.5 1.2 0 .8-1.3-1.6-5.3-1.3-2.1-2.6-3.5-2.9-3.2M374 638.7c-.1 1-.2 3.9-.1 6.5 0 4.7-.1 4.8-3 4.8-1.8 0-2.8.4-2.4 1 1 1.6 6.5 1.2 7.2-.6.3-.8 0-2.7-.6-4.1-.8-1.8-.9-2.9-.1-3.7 1.3-1.3 1.3-5.6.1-5.6-.6 0-1 .8-1.1 1.7M409.6 638.4c.3.9 1.1 1.6 1.6 1.6 1.3 0 .5-2.3-1-2.8-.7-.2-1 .2-.6 1.2M425 640c-1.9 1.6-3.1 3-2.6 3 1.4 0 7.6-4.1 7.6-5.1 0-1.5-1.4-1-5 2.1M304.5 639c-1.1 1.7.5 3.2 2.1 1.9.7-.6 1.1-1.5.8-2-.7-1.2-2.1-1.1-2.9.1M403.7 640.5c-1.7 1.2-1.7 1.5-.2 4.5 1.8 3.5 4.1 4.8 5.7 3.2.8-.8.6-1.9-.8-3.9-1-1.5-2.1-3.3-2.4-4-.4-.9-1-.8-2.3.2m3.4 5.2c1.3 1.6 1.2 1.7-.3.4-1-.7-1.8-1.5-1.8-1.7 0-.8.8-.3 2.1 1.3M520.7 640c-1 2.6-1.5 11-.6 11 1 0 2.3-8.1 1.7-10.6-.4-1.5-.6-1.6-1.1-.4M386.5 647c-2.2 1.6-4.6 2.9-5.2 3-.7 0-1.3.4-1.3 1 0 .5 2.3 1 5 1 2.8 0 5-.5 5-1 0-.6-1-1-2.1-1-2 0-1.9-.2.7-2.2 4.6-3.4 4.9-3.8 3.4-3.8-.8.1-3.3 1.4-5.5 3M414.2 647.1c-2.3 1.7-4.2 3.4-4.2 3.9 0 .6 9.1 2.4 9.5 1.8.9-1.2 1.3-5.8.5-5.8-.5 0-1 .7-1 1.5 0 1-1 1.5-2.7 1.5-2.8 0-2.8 0 .2-2.4 4.5-3.6 2.5-4-2.3-.5M262.9 646.6c-1.5 1.8-.1 4.9 2.2 4.9 1.9 0 2.3-3.9.6-5.3-1.1-1-1.7-.9-2.8.4m1.8 3.1c-.4.3-.7 0-.7-.7s.3-1 .7-.7c.3.4.3 1 0 1.4M365 650.4c0 1.4.5 2.8 1.1 3.1 1.6 1 2.3-.3 1.1-1.8-.9-1-.8-1.7 0-2.5.9-.9.8-1.2-.5-1.2-1.1 0-1.7.8-1.7 2.4M565 650c-.8.6-4 1-7 1-10.8 0-16.4 2.5-12.4 5.5 1 .8 2.7 1.5 3.6 1.5s2 .4 2.3 1c.3.5 3.3 1 6.6 1s5.9.4 5.9 1c0 .5-2.2 1-5 1-2.7 0-5 .4-5 1 0 1.4 9.4 1.2 10.8-.2.8-.8 1.5-.8 2.1-.3.5.6 3.2 7.7 6 16 4.9 14.5 5.1 15.3 5.1 26.2 0 9.4-.3 11.3-1.5 11.3-2.7 0-8.4 4.4-10 7.7-3.4 7-.7 15.1 6 18.3 5.2 2.5 9.1 2.5 13.2 0 4.6-2.8 6.6-6.4 6.7-12 .1-6-2.3-9.7-8.2-12.5-4.1-2-4.1-2-4.2-12.8 0-10.3-.3-11.6-5-26-2.7-8.3-5-15.7-5-16.3 0-.7.7-1.4 1.5-1.8 2-.7 2-8-.1-10-1.8-1.8-4.2-2-6.4-.6m5.5 4c-.1 1.1-.4 2.2-.7 2.6-.4.3-.4 1.2-.1 2 .8 2.2-2.5 1.7-3.7-.6-1.6-2.9-.3-6 2.4-6 1.6 0 2.2.5 2.1 2m-12.5.5c0 .8-.7 1.5-1.5 1.5-1.6 0-2-1.2-.8-2.3 1.1-1.2 2.3-.8 2.3.8m-8 .5c0 .5-.4 1-1 1-.5 0-1-.5-1-1 0-.6.5-1 1-1 .6 0 1 .4 1 1m4 0c0 .5-.4 1-1 1-.5 0-1-.5-1-1 0-.6.5-1 1-1 .6 0 1 .4 1 1m8 0c0 .5-.4 1-1 1-.5 0-1-.5-1-1 0-.6.5-1 1-1 .6 0 1 .4 1 1m23.6 65.1c4.4 2.7 6 7.8 4.5 13.7-1 3.4-1.9 4.6-5.1 6.2-4.7 2.4-6.9 2.5-11.3.4-6.2-2.9-8.4-10.2-5.2-16.4 3-5.9 11-7.7 17.1-3.9"/><path d="M575 725c-1 1.8-.8 1.9 2.1 1.3 3.1-.6 3.2-.5 2.5 2.3-1.5 6.3-1.8 8.9-.9 7.9 1.4-1.5 4.4-11.6 3.7-12.6-1-1.7-6.3-1-7.4 1.1M394 650.9c0 .6 2.4 1.1 5.3 1.3l5.2.3-3.8 2.9c-2.9 2.2-4.8 2.9-7.7 2.8-2.1-.1-4.2.3-4.5.8-.4.6 1.5 1 4.9 1 3.1 0 5.6-.4 5.6-.8s1.3-1.5 2.9-2.5c3.3-1.9 4.6-5.3 2.4-6.1-2.4-1-10.3-.7-10.3.3M424.5 652c.3.5 1.4 1 2.3 1 1.3 0 1.2.3-.6 1.6-1.2.8-2.2 2.2-2.2 3 0 .9-1.1 1.4-3 1.4-1.6 0-3 .4-3 1 0 .5 2.4 1 5.3 1 4.5 0 5.7-.4 8-2.8 2.6-2.7 3-2.8 8.4-2.1 3.2.5 9.5 1.1 14.1 1.5 6.6.6 8.5 1.1 9.3 2.6.5 1 1.9 1.8 3.1 1.8 1.1 0 2.7.8 3.4 1.7 1 1.4 2.8 1.8 8.8 1.9 9.1 0 12.9 2.1 13.4 7.2.4 3.7 2.2 4.3 2.2.8 0-1.4-1.2-3.9-2.7-5.7-2.8-3.2-2.8-3.2.2-2.5 1.7.4 3.8 1.5 4.8 2.3.9.9 1.7 1.2 1.7.6 0-1.3-3.3-4.3-4.8-4.3-.6 0-1.8-.7-2.7-1.6-.9-1-3.3-1.6-5.8-1.6-6.4-.1-7.5.2-5.2 1.2 1.7.6 1.4.9-1.7 1.5-2.1.4-4.4.3-5.5-.4-1.7-1-1.7-1 0-1.1.9 0 1.7-.5 1.7-1 0-.6-1.5-1-3.4-1-2.3 0-3.9-.7-4.8-1.9-1-1.4-3.2-2.1-9.1-2.6-5.9-.6-7.5-1-6.7-2 1.5-1.8.1-2.5-5.2-2.5-3.6 0-4.8.4-4.8 1.5 0 .8-.6 1.5-1.4 1.5-.7 0-1.9-.7-2.6-1.5-1.4-1.7-12.6-2.2-11.5-.5m5.3 4.7c-.2 1-1.4 2-2.8 2.2-2.5.3-2.5.3-.6-1.8 2.3-2.6 3.9-2.7 3.4-.4M470 653c0 .5 2.3 1 5 1 2.8 0 5-.5 5-1 0-.6-2.2-1-5-1-2.7 0-5 .4-5 1M485.5 653c-.4.6 1.5 1 5 1s5.4-.4 5-1c-.3-.6-2.6-1-5-1s-4.7.4-5 1M500.5 653c-.4.6 1.6 1 5.2 1 4.1 0 5.4-.3 4.3-1-2-1.3-8.7-1.3-9.5 0M377.5 655.3c.6 2.3.4 2.7-1.4 2.7-1.2 0-2.1.4-2.1 1 0 .5 2.3 1 5 1 2.8 0 5-.5 5-1 0-.6-.9-1-2-1s-2-.6-2-1.4c0-.7-.7-1.9-1.6-2.7-1.3-1.1-1.4-.9-.9 1.4M515.5 654c.3.5 2.8 1 5.6 1 2.7 0 4.9-.5 4.9-1 0-.6-2.5-1-5.6-1-3.4 0-5.3.4-4.9 1M530.5 654c-.4.6 1.4 1 4.4 1 2.8 0 5.1-.4 5.1-.8 0-1.1-8.8-1.3-9.5-.2M271.6 657.5c-.3.9.1 1.8 1 2.2 1.9.7 2.6 0 1.8-2.1-.8-2-2-2.1-2.8-.1M369.1 657.4c-1.2 1.5-.5 4.6 1.1 4.6.5 0 .6-.9.3-2-.5-1.4-.2-2 1-2 .9 0 1.3-.5 1-1-.9-1.4-2-1.3-3.4.4"/><path d="M474 656.9c0 .5.9 1.1 2 1.4 1.3.3 2 0 2-.9 0-.8-.9-1.4-2-1.4s-2 .4-2 .9M480 657c0 .5.5 1 1 1 .6 0 1-.5 1-1 0-.6-.4-1-1-1-.5 0-1 .4-1 1M517.9 657.7c-.1 1-.1 2.1 0 2.5 0 .5-1.9.8-4.4.8s-4.5.4-4.5 1c0 .5 2.2 1 4.9 1 4.7 0 4.9-.1 5.3-3 .3-1.7.1-3.3-.4-3.6-.4-.3-.9.3-.9 1.3M606.5 658.9c-.6.5-4.8 1.1-9.5 1.3s-9.5 1-10.8 1.7c-2.2 1.2-2.3 1.4-.7 3.1 1.5 1.7 7.3 3.1 14.2 3.5 5.6.3 7.9 2.8 10.3 10.7 1.2 4 2.6 8.3 3.1 9.6s.9 6.7.9 12.1c0 9.8 0 9.8-2.9 10.4-4 .8-8.9 6.1-9.7 10.3-2.5 13.4 13.5 22.5 22.9 13 7.6-7.6 4.5-20.9-5.3-23.1-3-.7-3-.7-3-10.5 0-5.5-.4-10.9-.9-12.2-.6-1.3-2-5.6-3.2-9.6-2.2-7.3-2.2-7.3-.1-8.7 2.9-2.1 3.8-7 1.8-10-1.7-2.5-5.3-3.3-7.1-1.6m5.9 3c.3.5.3 2.3 0 4-.5 2.5-1.1 3.1-2.8 2.9-2.4-.3-3.4-4.1-1.6-6.4 1.4-1.6 3.6-1.9 4.4-.5M590 664c0 .5-.4 1-1 1-.5 0-1-.5-1-1 0-.6.5-1 1-1 .6 0 1 .4 1 1m4.2.5c0 .5-.5 1.1-1.1 1.3s-1.1-.4-1.1-1.3.5-1.5 1.1-1.3 1.1.8 1.1 1.3m5.6-.3c-.3.7-1.1 1.3-1.8 1.3s-1.5-.6-1.7-1.3c-.3-.7.4-1.2 1.7-1.2s2 .5 1.8 1.2m3.6.9c-.3.5-1 .7-1.5.3-.5-.3-.7-1-.3-1.5.3-.5 1-.7 1.5-.3.5.3.7 1 .3 1.5m20.4 51.2c2.1 2.2 2.6 3.6 2.6 8.1.1 4.7-.3 6-2.5 8.1-7.7 7.8-20.9 2.7-20.9-7.9 0-4.7 2.6-9.1 6.4-10.7 4-1.7 11.5-.4 14.4 2.4"/><path d="M611.9 718.7c-.5 2.6-.6 10.1-.2 11.5.5 2.1 4.6 2.4 6.1.5.8-.9.9-6.4.3-12-.1-.4-1.4-.7-3.1-.7-1.6 0-3.1.3-3.1.7m4.1 2.4c0 1.1-.4 1.7-1 1.4-.5-.3-1-1.3-1-2.1s.5-1.4 1-1.4c.6 0 1 .9 1 2.1m0 7.4c0 2.6-1.4 3.3-2.5 1.5-.9-1.4.1-4 1.5-4 .5 0 1 1.1 1 2.5M403.5 660c.3.5 2.8 1 5.6 1 2.7 0 4.9-.5 4.9-1 0-.6-2.5-1-5.6-1-3.4 0-5.3.4-4.9 1M433.3 660.2c-.2.5.5.9 1.6 1 6 .5 8.2.4 8.6-.3.3-.4-1.8-.9-4.6-1.1-2.8-.1-5.3 0-5.6.4M448.5 661c.3.5 2.8 1 5.6 1 2.7 0 4.9-.5 4.9-1 0-.6-2.5-1-5.6-1-3.4 0-5.3.4-4.9 1M494.1 661.4c1.1.9 9.9 1.5 9.9.6 0-.6-2.3-1-5.2-1-2.8 0-4.9.2-4.7.4M524 661.9c0 .8 9 2.1 9.9 1.5.1-.2 0-.7-.4-1.3-.8-1.3-9.5-1.5-9.5-.2M374.6 662.7c-1.8 1.9-.4 3.2 3.2 2.8 2-.2 4.4-.4 5.2-.5 1.3-.1 1.3-.2 0-.9-2.2-1.2-7.7-2.1-8.4-1.4M539.5 663c.3.5 2.6 1 5 1s4.7-.5 5-1c.4-.6-1.5-1-5-1s-5.4.4-5 1M573 663c0 .5 1.6 1 3.6 1 2.1 0 3.3-.4 2.9-1-.3-.6-1.9-1-3.6-1-1.6 0-2.9.4-2.9 1M388 665c0 .5 2.3 1 5 1 2.8 0 5-.5 5-1 0-.6-2.2-1-5-1-2.7 0-5 .4-5 1M516 667.5c-1.9 4.9-2.5 8.9-1.2 8.1.7-.4 1.2-1.6 1.2-2.7s.5-2.9 1.1-4 .8-2.5.6-3.2c-.3-.7-1 .1-1.7 1.8M434.6 667c1.1.4 2.8 2 3.8 3.5 2.4 3.6 3.2 2.4 1-1.4-1.3-2.2-2.6-3.1-4.4-3-2.3 0-2.4.1-.4.9M456.3 671.6c-1.8.8-3.3 2.1-3.3 2.9 0 1.2-1.3 1.5-5.5 1.5-3 0-5.5.4-5.5 1s2.6 1 5.8 1c5.4 0 5.8.2 7 3 1.5 3.4 4.2 3.9 9.9 1.8 3.6-1.3 4.6-3.5 1.1-2.3-4.1 1.3-8.6 1.7-9.1.8-.2-.4-.8-2.2-1.1-3.9-.6-2.6-.3-3.2 1.8-4.2 2-.9 3.3-.8 6 .3 4.1 1.7 4.6 1.8 4.6.6 0-.8-1.3-1.5-7-3.4-.8-.3-3 .1-4.7.9M548.4 673c-.5.5-4.1 1.2-7.9 1.6-13.5 1.1-17.9 3.5-11.7 6.3 1.5.7 5.1 1.5 8 1.8l5.2.6v18.3c0 18.2 0 18.4-2.2 18.4-1.2 0-3.8 1.8-6 4-3.4 3.7-3.8 4.6-3.8 9.3 0 6.8 3.8 11.8 10.3 13.6 3.9 1.1 4.9 1 8.9-.8 4.9-2.4 8.8-7.9 8.8-12.5 0-6.2-6.5-13.6-11.9-13.6-2.1 0-2.1-.4-2.1-18.5V683l4.5.7c5.2.7 7.4-1.1 7.5-5.9 0-4-5.1-7.3-7.6-4.8m4 1.6c1.8.7 2.2 3.4.5 3.4-.8 0-.9.4 0 1.3 1.4 1.8.4 2.7-3.1 2.7-2.4 0-2.8-.4-2.8-2.8 0-4.1 2.1-5.9 5.4-4.6m-16.4 3.9c0 .8-.4 1.5-1 1.5-.5 0-1-.7-1-1.5s.5-1.5 1-1.5c.6 0 1 .7 1 1.5m4 0c0 .8-.4 1.5-1 1.5-.5 0-1-.7-1-1.5s.5-1.5 1-1.5c.6 0 1 .7 1 1.5m5 0c0 .8-.7 1.5-1.5 1.5s-1.5-.7-1.5-1.5.7-1.5 1.5-1.5 1.5.7 1.5 1.5m-13 .5c0 .5-.4 1-1 1-.5 0-1-.5-1-1 0-.6.5-1 1-1 .6 0 1 .4 1 1m14.8 43c2 0 6.4 3.7 8 6.7 1.7 3.2 1.5 6.7-.8 10.6-2.6 4.3-6.7 6.1-12.5 5.4-6.4-.7-9.5-4.4-9.5-11.4 0-4.4.4-5.6 3-8.2 3-2.9 6.2-4.2 8.8-3.5.8.2 2.1.4 3 .4"/><path d="M543.3 727.9c-3.3 2.1-4.7 6-3.2 9.8 1 2.7 5 3.1 6.9.8 1.8-2.1.4-6.5-2-6.5-2.6 0-2.5-1.5.2-3.4 3.2-2.3 1.7-2.8-1.9-.7m1.7 8.7c0 2.6-1.7 3.3-2.6.9-.8-2 .3-4.8 1.6-4 .5.3 1 1.7 1 3.1M368 674c0 1.1 6.8 2.5 7.7 1.6s.2-1.3-3.9-1.9c-2.1-.3-3.8-.2-3.8.3M458.7 674.7c-.4.3-.7 1.7-.7 3 0 2.7 3.4 3.3 4.4.7.5-1.2.2-1.5-1-1-1.2.4-1.4.1-.9-1.4.6-1.9-.5-2.7-1.8-1.3M467.5 677c-.4.6 1.5 1 4.9 1 3.1 0 5.6-.5 5.6-1 0-.6-2.2-1-4.9-1-2.8 0-5.3.4-5.6 1M482.5 677c-.4.6 1.5 1 5 1s5.4-.4 5-1c-.3-.6-2.6-1-5-1s-4.7.4-5 1M497.5 677c-.4.6 1.4 1 5.1 1 6.7 0 6.8-.5.2-1.4-2.9-.4-4.9-.3-5.3.4M514.5 678c2.8 1.2 8.5 1.2 8.5 0 0-.6-2.4-1-5.2-.9-3.9 0-4.8.3-3.3.9M132 685c-1.2 1.7-2 3.5-1.8 4.1s1.6-.7 3.1-3c3.1-4.7 2-5.7-1.3-1.1M124.1 696.5c-1.1 1.9-1.8 3.5-1.5 3.5.9 0 3-2.4 4.3-4.8 1.9-3.6-.5-2.5-2.8 1.3M116.3 707.2c-1.2 1.8-2 3.4-1.7 3.7.5.6 5.3-4.9 5.4-6.2 0-1.6-1.6-.5-3.7 2.5M109.1 717.5c-1.3 2-2.1 3.8-1.9 4.1.8.7 5-5.4 4.6-6.6-.2-.5-1.4.6-2.7 2.5M114.3 721.7c1.5.2 3.7.2 5 0 1.2-.2 0-.4-2.8-.4-2.7 0-3.8.2-2.2.4M126.5 722c.3.5 2.2 1 4.1 1s3.4-.5 3.4-1c0-.6-1.8-1-4.1-1-2.4 0-3.8.4-3.4 1M139.1 722.4c1 .8 8.9 1.3 8.9.5 0-.5-2.1-.9-4.7-.9-2.5 0-4.4.2-4.2.4M152.5 723c.3.5 2.4 1 4.6 1 2.1 0 3.9-.5 3.9-1 0-.6-2.1-1-4.6-1-2.7 0-4.3.4-3.9 1M166 723c0 .5 2.1 1 4.6 1 2.7 0 4.3-.4 3.9-1-.3-.6-2.4-1-4.6-1-2.1 0-3.9.4-3.9 1M179.2 723.5c.8.8 7.7.9 8.5.2.3-.4-1.5-.7-4.2-.7s-4.6.2-4.3.5M192 724c0 .5.5 1 1.1 1s.9.7.5 1.5c-.3.8-.2 1.5.2 1.5 1.1 0 3.2-3.7 2.5-4.4-1-1-4.3-.7-4.3.4M188.2 734.6c-1.3 2-2.1 3.8-1.9 4.1.5.5 5.7-5.9 5.7-7 0-1.7-1.7-.4-3.8 2.9M180.7 745.5c-2.4 5-2.1 5.5.8 1.5 2.6-3.5 3.1-5 1.7-5-.5 0-1.6 1.6-2.5 3.5M173.5 756c-1.8 3.4-1.9 4.4-.5 3.5 1.6-1 4.2-6.5 3.1-6.5-.6 0-1.7 1.3-2.6 3M166 767c-1.2 1.6-2 3.6-1.8 4.2s1.5-.5 2.7-2.6c2.9-4.6 2.1-5.9-.9-1.6M158.2 778.6c-1.3 2-2.1 3.8-1.9 4.1.5.5 5.7-5.9 5.7-7 0-1.7-1.7-.4-3.8 2.9M150.5 789.5c-2.6 3.5-2.9 5.5-.6 4 1.4-.8 4.4-6.5 3.8-7.1-.2-.3-1.7 1.2-3.2 3.1M144.7 797.7c-1 .9-.9 2.3.2 2.3.5 0 1.1-.7 1.5-1.5.5-1.5-.5-2-1.7-.8M656.5 536.4c-2.3 1.7-1.6 5 1.3 5.4 3.1.5 2.8 2-.5 2.4-2.5.4-2.6.5-.9 1.3 2.8 1.2 5.1-.7 5.4-4.8.4-4.3-2.3-6.5-5.3-4.3m3.5 3.2c0 1.7-2.6 1.9-3.6.3-.7-1.2 1.5-3.1 2.8-2.3.4.3.8 1.2.8 2M664.5 536.6c-.9.9-1.4 2.3-1.1 3.1s.6 1.7.6 1.9.9.4 2 .4 2 .4 2 1c0 .5-.9 1-2 1s-2 .4-2 1c0 1.6 4.7 1.1 5.4-.6 2.2-5.6-1.4-11.3-4.9-7.8m3.5 2.4c0 2.1-1.5 2.7-2.5 1-.7-1.2.2-3 1.6-3 .5 0 .9.9.9 2M673.2 535.9c-2.2 1.3-1.1 5.6 1.6 5.9 1.2.2 2.2.8 2.2 1.4s-1.1.8-2.5.5c-1.6-.3-2.4 0-2.2.7.6 1.9 4 1.9 5.4 0 1.8-2.4 1.6-5.9-.3-7.8-1.8-1.8-2.4-1.9-4.2-.7m3.4 2.2c1 1.7-1.3 3.6-2.7 2.2-1.2-1.2-.4-3.3 1.1-3.3.5 0 1.2.5 1.6 1.1M689.6 536.2c-2 6.5-1.3 9.8 2.3 9.8 2 0 4.5-3.6 3-4.5-.5-.4-.9-1.4-.7-2.3.3-2.2-1-4.2-2.8-4.2-.8 0-1.6.6-1.8 1.2m3.4 1.8c0 .5-.7 1-1.5 1s-1.5-.5-1.5-1c0-.6.7-1 1.5-1s1.5.4 1.5 1m.8 4.7c.2.8-.5 1.3-1.7 1.3s-2.1-.6-2.1-1.6c0-1.8 3.1-1.5 3.8.3M704.2 536.3c-.7.8-.8 2.6-.2 5.1 1.3 5.8 2 5.5 2-.7 0-6.1-.2-6.4-1.8-4.4M711 536.5c-1.4 1.7 0 2.1 1.8.3.9-.9 1.3-.7 1.8.6s-.1 2.5-2.1 4c-1.7 1.3-2.5 2.8-2.1 3.4.9 1.5 6.6 1.6 6.6.2 0-.6-1.2-1-2.7-1-2.8 0-2.8 0 .1-2.3 1.8-1.5 2.7-3 2.5-4.2-.5-2.5-4.1-3.1-5.9-1M719.2 536.2c-1.6 1.6-1.5 6 .2 8.4 1.2 1.5 1.8 1.7 3.3.8 1-.6 2-2.1 2.1-3.4.4-2.1.5-2.1 2.3.9 2.2 3.7 3.7 3.6 5.9-.1 1.1-2.1 1.2-3.1.2-5.2-1.4-3.2-4.7-3.4-6.3-.4-1.2 2.3-1.2 2.3-2.2 0-1.1-2.4-3.6-2.9-5.5-1m4.4 5.2c-1 3.9-3.6 3.3-3.6-.7 0-4.1.9-5.2 2.8-3.3.9.9 1.2 2.4.8 4m7.9-1.3c0 2.4-.5 3.4-1.5 3.4-1.6 0-2.5-3.7-1.6-6.2 1-2.6 3.1-.8 3.1 2.8M682.1 538.9c-2.6 3.6-2.6 4.1-.2 4.1 1 0 2.2.8 2.6 1.7.7 1.7.8 1.7 1.4 0 .9-2.3.2-8.7-.9-8.7-.5 0-1.8 1.3-2.9 2.9m1.5 2.8c-1 1-1.9-.5-1-1.8.6-1.1.8-1.1 1.2 0 .2.7.1 1.5-.2 1.8M697.8 541.7c.7.3 1.6.2 1.9-.1.4-.3-.2-.6-1.3-.5-1.1 0-1.4.3-.6.6M695 562.8c0 9.9-.3 13.2-1.5 14.7-.8 1.1-4.3 5.8-7.7 10.5s-9.2 12.5-12.8 17.5c-3.7 4.9-7.6 10.3-8.7 12-2.1 2.9-2.3 3-9.7 2.6-9.2-.3-11.6.9-13.5 6.7-1.6 4.8-1 8 2.5 12.1 2.3 2.8 3.1 3.1 8.4 3.1 3.2 0 6.2-.5 6.5-1 .3-.6 1.6-1 2.9-1 6.1 0 8.9-9.8 4.1-14.6-3-3-2.9-2.6-.7-5.2.9-1.1 3.8-5.1 6.4-8.9 2.6-3.7 9.5-13.3 15.3-21.3l10.5-14.5v-12.8c0-7.8-.4-12.7-1-12.7s-1 4.9-1 12.8m-44.2 59.8c.6 1.1 1.1 1.3 1.6.5.4-.6 1.9-1.1 3.4-1.1 2.7.1 2.7.1-.6 1.5-1.8.8-3.5 2.2-3.9 3.1-.5 1.5-.7 1.5-1.5 0-.5-.9-2-1.6-3.3-1.6-3.1 0-3.2-1.4-.2-2.8 3-1.5 3.5-1.4 4.5.4m12.8 2.8c1 .8 1.6 1.8 1.1 2.2-.4.4-.7.2-.7-.4 0-.7-.7-1.2-1.6-1.2-4.8 0-6 8.4-1.4 10.7 2.5 1.3 2.5 1.3-.2 1.3-2.2 0-2.9-.6-3.5-2.8-.9-3.8-.7-6 1.2-8.8 1.8-2.8 2.4-2.9 5.1-1m-7.7 2.3c-.6 1.6-.8 4.5-.5 6.5.4 2.1.3 3.8-.2 3.8-1.9 0-3.2-2.7-3.2-6.5 0-4.1 1.3-6.5 3.7-6.5 1 0 1 .6.2 2.7m-8.8-.7c.5 0 .9 1.8.9 4 0 3.8-.2 4-3 4s-3-.2-3-3.8c0-4.3.7-5.5 2.8-4.7.7.3 1.8.5 2.3.5m16.9 2.5c1 1.2 1 2.1.2 4-.7 1.4-1.6 2.5-2.1 2.5-1.8 0-3.3-3-2.7-5.5.7-2.8 2.7-3.3 4.6-1m-11.5 8.5c1 1.1 1.3 2 .7 2s-1.3-.6-1.6-1.3c-.5-1-.7-1-1.2 0-.8 1.8-3.9 1.6-5.5-.3-1.3-1.5-1.1-1.7 1.8-1.2 3.2.4 3.2.4 2.8-4.1-.4-4.4-.4-4.4.4-.9.4 2.1 1.6 4.7 2.6 5.8M798.5 568.2c-13.9 1.2-26.7 3.9-42.5 8.6-33.6 10.2-48 17.9-65 35.1-10.1 10.1-19 22.9-19.3 27.8-.2 2.8-.2 2.8 7.9 2.4 8-.3 8.2-.2 10.1 2.5 3.1 4.4 6.5 14.7 6.1 18.5-.3 3.2-.6 3.4-5.5 4.4-7 1.3-7.8 2.3-5.9 6.9 1.4 3.3 7.1 12.4 8.6 13.6.3.3 1.7 2.1 3 4s2.7 3.7 3.1 4c.3.3 1.3 1.9 2.2 3.6 2.4 4.6 3.7 5.3 8.2 4.5 2.2-.4 6.3-.5 9-.2 4.8.6 5 .7 5 3.6 0 3.6 1.9 4.2 8 2.5 3.2-.9 6.4-3.3 13.1-9.9 9.5-9.3 16.1-14.7 17-13.9.3.3.8 16 1.1 34.9s.7 34.6.9 34.8.4-15.8.4-35.7v-36.1l4.6-3.2c11.9-8.2 31.6-15.3 51.9-18.7 3.7-.6 4.2-1.3 5-7.7.4-2.7 1.1-6.6 1.6-8.6.6-2.3.6-4.6 0-6-.9-2.1-1-1.9-1 1.6-.1 4.1-2.5 16.6-3.5 18.3-.3.5-2.5 1.2-4.8 1.6-28 4.2-54.2 17.8-75.2 38.9l-5.9 6-6.1-2.1c-9.9-3.3-16.6-4.4-20.6-3.2-5.2 1.5-5.6 1.3-8.1-2.8-1.2-2-4-5.8-6.1-8.4-5.2-6.2-11-16-10.1-16.9 1.2-1 13.5-3.9 14.4-3.4.4.3 1 1.9 1.4 3.6.4 1.6 1.5 3.5 2.6 4.2 1 .6 1.9 1.5 1.9 2 0 1.1 11.3 17.8 11.7 17.3.3-.2-2.1-4.2-5.2-8.9-3.2-4.7-5.4-9-5.1-9.6.8-1.2 32.7-22.4 39.3-26.1 4.3-2.4 4.3-2.4 7.9 1.3 4.7 4.7 9.2 6.2 13.8 4.7 8.6-2.8 13.6-10.8 13.6-21.9 0-6.9 0-6.9 3.8-9.2 2-1.2 5.3-3.2 7.2-4.4 19.4-12.1 23.2-14.5 23.8-14.5.4 0 1.8-.9 3.2-2s2.7-2 3-2 .6 6.4.6 14.3c.1 7.8.5 15.2 1 16.4.6 1.3.9-6.6.8-20.5 0-18.6-.4-23.8-1.8-28.7-2-6.7-5.8-14.6-7.8-16.2-1.8-1.5-8.8-1.9-17.3-1.1m12.1 1.3c4.9.6 5.1.7 7.6 5.8 3 6.2 5.4 14.3 6.4 21.3.6 5.1.6 5.1-5.2 8.4-6.4 3.6-23.9 14.3-32.1 19.6-6 3.9-6.9 4.1-7.8 1.5-.8-2.5-5.3-7.4-8.2-8.9-5.6-3-14.1-.1-18.5 6.3-4 5.9-5.2 12.1-3.7 18.9.7 3.1 1 5.7.8 5.9s-5.8 3.8-12.4 8c-6.6 4.3-12.7 8.2-13.5 8.7-4.2 2.8-16.6 10.7-17.6 11.3-2 1.2-4.3-3.8-5.4-11.5-1.9-12.7-7.8-26.2-11.8-27-1-.2-4.8 0-8.6.5-3.8.4-7 .6-7.2.4-.5-.4 3.1-7.2 6.4-12.2 9.1-13.6 25.8-27.7 42.3-35.8 20-9.7 51.7-18.5 75.9-21 1.4-.1 3.6-.4 5-.5 1.4-.2 4.8 0 7.6.3m-40.2 48.9c2 .8 4.7 3.4 6.6 6.2 3 4.3 3.3 5.4 3.3 11.8 0 8.2-1.7 12.7-6.3 17.1-2.7 2.6-3.8 3-9 3-4.8 0-6.3-.4-8.6-2.5-8.1-7.5-8.6-22.4-1-32.3 1.4-1.8 7.6-4.6 10.4-4.7.7 0 2.8.6 4.6 1.4m-78.9 23.2c2.6 2.8 5.5 9.8 7.5 18.2 1.3 5.7.9 8.2-1.5 8.2-1.3 0-1.4-.4-.5-2 1.2-2.3.3-6.9-3.2-16-2.4-6.1-4.3-8.8-7.3-10.1-1.9-.7-1.9-.8.3-.8 1.3-.1 3.4 1.1 4.7 2.5m-11.2-.9c-.7.2-1.9.2-2.5 0-.7-.3-.2-.5 1.2-.5s1.9.2 1.3.5m11.4 29c-.4.3-1 .3-1.4 0-.3-.4 0-.7.7-.7s1 .3.7.7m-4 .9c-.3.3-1.2.4-1.9.1-.8-.3-.5-.6.6-.6 1.1-.1 1.7.2 1.3.5m41.7 36.3c.3.5-.4 1.1-1.6 1.4-2.5.7-3.3.3-2.3-1.2.8-1.3 3.2-1.4 3.9-.2m4.1.1c.3.5.1 1-.4 1-.6 0-1.1-.5-1.1-1 0-.6.2-1 .4-1 .3 0 .8.4 1.1 1"/><path d="M803 573.2c-6.2 1.9-25.8 8.8-30.7 10.9-2.7 1.1-6.6 2.8-8.8 3.7-17 7-45.7 24.5-56.5 34.3-2.5 2.2-6.4 5.7-8.7 7.6-2.4 2-4.3 4-4.3 4.5 0 .6 1.9-.7 4.3-2.8 5.9-5.4 9.4-8.3 14.7-12.4 2.5-1.9 4.7-3.7 5-4.1 1.4-1.8 20.2-13.3 29.7-18.2 17.3-8.9 53.6-22.7 59.5-22.7.9 0 2-.5 2.3-1 .8-1.2-1.9-1.1-6.5.2M759.8 622.2c-2 1.1-4.1 3.2-4.7 4.6-1.6 3.5-.7 3.8 1.4.5 2.7-4.2 4.6-5.2 9.1-5.3 6.7 0 10.4 5.3 10.4 15 0 9.9-4.4 16-11.5 16-2.8 0-8.1-4.2-9-7.1-.4-1.1-.9-1.8-1.2-1.6-.6.7 1.5 4.7 4 7.4 1.6 1.8 3.2 2.3 6.7 2.3 3.9 0 5.1-.5 7.7-3.3 3.2-3.3 5.3-9 5.3-14.2-.1-4.1-3.5-11.3-6.8-14.1-3.3-2.9-6.6-3-11.4-.2M752.4 634.4c-.3 1.9-.1 4.8.4 6.3.9 2.4 1.1 2 1.1-3.5.1-6.9-.5-8-1.5-2.8M724.7 757.6c-1.2 1.3-.8 19.9.5 21.2.9.9 11.3 1.2 40.5 1.2 45.4 0 40.3 1.6 40-13l-.2-8.5-6-.6c-9.2-.8-73.9-1.1-74.8-.3m61.1 2.3 18.3.1-.3 8.7-.3 8.8h-77l-.3-7.9c-.2-4.4 0-8.6.3-9.3.4-1.2 3.8-1.4 20.8-.9 11.1.2 28.4.5 38.5.5"/><path d="M730.6 763.6c-.3.9-.6 2.7-.6 4.1 0 2.1.2 2.3 1.5 1.3 1.9-1.6 4.5-.6 4.5 1.9 0 2.1-2.6 3.6-3.5 2.1-.8-1.3-2.5-1.3-2.5 0 0 1.6 2.7 2.3 5.5 1.6 4.4-1.1 2.9-8.6-1.7-8.6-1 0-1.8-.5-1.8-1 0-.6 1.1-1 2.5-1s2.5-.5 2.5-1c0-1.7-5.7-1.2-6.4.6M740 763c0 .5 1.1 1 2.5 1 2.8 0 3.2 1.7 1 4.6-1.5 2-2.1 6.9-.7 6 .5-.3 1.5-2.3 2.2-4.6.7-2.2 1.9-4.5 2.7-5.1.7-.6 1-1.5.7-2-.7-1.2-8.4-1.1-8.4.1M756 768.5c0 3.7.4 6.5 1 6.5s1-1.1 1-2.4c0-4.9 2.8-4.2 5.9 1.3.5.7 1.3 1.2 2 1 .7-.3.1-1.9-1.6-4.3-2.8-3.8-2.8-3.8-.4-5.7 1.3-1.1 2.1-2.2 1.7-2.6-.3-.4-1.9.6-3.4 2-3.5 3.3-4.2 3.4-4.2.2 0-1.4-.4-2.5-1-2.5s-1 2.8-1 6.5M769.2 764c-2 3.2-1.5 8.7 1 10.4 2.9 2.1 5.5.5 6.4-3.9 1.2-6.4-4.4-11.3-7.4-6.5m5.2 2.4c.8 3.1-1 7.9-2.7 7.4-1.3-.5-2.2-6.1-1.3-8.4.9-2.2 3.3-1.6 4 1M779.2 764.5c-1.8 3.8-1.5 7.2.8 9.5 2.6 2.6 3.5 2.5 5.4-.2 1.8-2.6 2.1-7.1.6-9.9s-5.4-2.4-6.8.6m5.6 3.5c.3 4.7-1.1 6.9-3.2 5.1-1.6-1.4-2.2-7.2-.9-8.5 1.7-1.7 3.8.1 4.1 3.4M750 770c0 .5.9 1 2 1s2-.5 2-1c0-.6-.9-1-2-1s-2 .4-2 1M137.1 809.6c-2 2.5-2.7 4.4-1.7 4.4.8 0 4.8-6.1 4.3-6.6-.2-.3-1.4.7-2.6 2.2M124.9 823c-4.5 6.2-5.4 7-8.3 7-3.1 0-3.4.3-3.9 3.7-.7 4.1.7 6.4 5.6 9 2.6 1.3 3.1 1.3 4.6-.1 1-.9 2.3-1.6 2.9-1.6 1.5 0 1.6-3.2.1-4.7-.8-.8-.8-1.7 0-3.2 1-1.8 2.1-2.1 8.4-2.2 4-.1 19.4-.5 34.2-.8l27-.7-32.7-.2c-23.2-.1-32.8-.5-32.8-1.3 0-.6 1.3-2.8 3-4.9 2.8-3.6 2.9-3.8 1.1-5.4-.9-.9-2.3-1.6-2.9-1.6-.7 0-3.5 3.1-6.3 7m9.1-3.8c0 1.3-2.3.5-2.8-1-.2-.7.2-1 1.2-.6.9.3 1.6 1.1 1.6 1.6m-2 2.3c0 1.7-.2 1.8-2.4.9-2.3-.9-2-2.4.4-2.4 1.1 0 2 .7 2 1.5m-2.2 3.3c.3.9-.2 1.3-1.4 1-.9-.1-1.9-.9-2.2-1.6-.3-.9.2-1.3 1.4-1 .9.1 1.9.9 2.2 1.6m-2 2.9c.2.8-.5 1.3-1.7 1.3s-2.1-.6-2.1-1.6c0-1.8 3.1-1.5 3.8.3m-2.9 2.7c.8 1 .8 1.6-.3 2.5-1 .9-1.6.8-2.6-.3-1.2-1.5-.6-3.6.9-3.6.5 0 1.4.6 2 1.4M116 835c0 .5-.4 1-1 1-.5 0-1-.5-1-1 0-.6.5-1 1-1 .6 0 1 .4 1 1m5.6.1c.3.6.1 1.6-.4 2.1-1.3 1.3-4.5-.8-3.6-2.3.7-1.2 3.1-1.1 4 .2m-3.4 3.5c2.5 1.3 3.2 1.3 3.9.3.4-.8 1.1-1 1.5-.7.3.4-.1 1.5-1.1 2.4-1.5 1.6-1.9 1.6-5.1.1-1.9-.9-3.4-2.1-3.4-2.7 0-1.4.6-1.3 4.2.6m7.5 1.1c-.4.3-.7 0-.7-.7s.3-1 .7-.7c.3.4.3 1 0 1.4M278.7 824.7c-1.1 1-.8 10.1.3 10.8.6.4 2.4.4 4 0 2.8-.6 3-1 3-5 0-3.4-.5-4.7-1.9-5.5-2.3-1.2-4.5-1.3-5.4-.3m5.3 2.8c0 .8-.9 1.5-2 1.5s-2-.7-2-1.5.9-1.5 2-1.5 2 .7 2 1.5m0 5c0 .8-.9 1.5-2 1.5s-2-.7-2-1.5.9-1.5 2-1.5 2 .7 2 1.5M199.2 825.9c-2.2 1.3-1.1 5.6 1.6 5.9 1.2.2 2.2.8 2.2 1.4s-1 .8-2.6.4c-1.9-.5-2.5-.3-2.2.6.7 2.1 4 2.2 5.5.2 3.5-4.8 0-11.4-4.5-8.5m3.8 2.6c0 .8-.7 1.5-1.5 1.5s-1.5-.7-1.5-1.5.7-1.5 1.5-1.5 1.5.7 1.5 1.5M207.1 826.4c-1.8 2.2-.9 5 1.7 5.4 1.2.2 2.2.8 2.2 1.4s-1.1.8-2.7.3c-2.3-.5-2.5-.4-1.4.9 2.3 2.7 5 1.9 5.9-1.7.5-1.7.6-4.1.2-5.2-.9-2.5-4.3-3.1-5.9-1.1m3.9 2.1c0 .8-.7 1.5-1.5 1.5s-1.5-.7-1.5-1.5.7-1.5 1.5-1.5 1.5.7 1.5 1.5M215 826c0 .5.9 1 2 1 1.9 0 2 .2.5 3-.8 1.6-1.5 3.6-1.5 4.5 0 2.7 1.5 1.6 2.8-2.3 2.6-7.6 2.7-7.2-.7-7.2-1.7 0-3.1.4-3.1 1M223.9 825.7c-.1.5-.3 1.8-.4 2.9-.1 1.2-.5 2.5-.8 3s.1 1.8.8 2.8c1 1.3 2.1 1.7 3.9 1.2 2.3-.6 2.6-1.1 2.4-4.9 0-2.3-.6-4.5-1.2-4.9-1.4-1-4.6-1-4.7-.1m4.1 2.3c0 .5-.7 1-1.5 1s-1.5-.5-1.5-1c0-.6.7-1 1.5-1s1.5.4 1.5 1m0 4.5c0 .8-.7 1.5-1.5 1.5s-1.5-.7-1.5-1.5.7-1.5 1.5-1.5 1.5.7 1.5 1.5M231.8 827.5c-1.7 3.8 0 8 3.2 8 2.1 0 2.6-.5 2.8-3.2.2-2.4-.1-3.3-1.7-3.8-1.2-.3-2.1-1.1-2.1-1.6 0-1.3 1.4-1.1 2.9.3 1.1 1.1 1.3 1 .9-.2-.8-2.7-4.7-2.4-6 .5m4.2 4.5c0 2.1-1.5 2.7-2.5 1-.7-1.2.2-3 1.6-3 .5 0 .9.9.9 2M245 826.9c-1.3 2.6-1.2 5.2.4 7.3 1.8 2.4 3.8 2.3 5.4-.3 1.3-2 1.3-2 3.2.3 1.5 1.9 2.2 2.1 3.7 1.2 2.6-1.6 2.8-5 .5-6.3-1.1-.6-2.2-.7-2.6-.4-.3.3-.6.1-.6-.5 0-1.6 2.3-2.8 2.8-1.4.4 1.4 2.2 1.6 2.2.3 0-.5-1-1.3-2.2-1.7-1.6-.5-2.7-.1-3.9 1.5-1.8 2.2-1.8 2.2-2.9.1-1.4-2.5-4.6-2.6-6-.1m4.6 1.6c.8 3.1-.2 5.8-1.9 5.3-1.4-.5-2.1-4.2-1.3-6.4s2.5-1.7 3.2 1.1m8.4 3.5c0 1.1-.7 2-1.5 2s-1.5-.9-1.5-2 .7-2 1.5-2 1.5.9 1.5 2M261.7 826.4c-.7 1.8.8 2.2 1.8.6 1-1.7 2.5-1.1 2.5.9 0 1.1-.9 2.2-1.9 2.6-2.1.6-3.4 3.1-2.5 4.6.7 1.2 6.4 1.1 6.4-.1 0-.6-.9-1-2-1-2.6 0-2.6-1.2.1-2.8 2.9-1.9 2.2-5.6-1.2-6-1.7-.2-2.9.3-3.2 1.2M270 827.6c-1.2 3-.4 7 1.6 7.8 3.8 1.5 6.6-3.4 4.5-8-1.4-3.2-4.9-3.2-6.1.2m4.6.9c1.1 4.3-1.5 7.7-3 3.9-.7-1.9.3-6.4 1.5-6.4.5 0 1.1 1.1 1.5 2.5M240 831c0 .5.7 1 1.5 1s1.5-.5 1.5-1c0-.6-.7-1-1.5-1s-1.5.4-1.5 1M100.6 847.9c-1.1 1.2-1.5 2.7-1.1 4 .9 3 6.1 6.9 10 7.7 2.5.4 4.7 2.1 8.2 6.3 11.4 13.5 8.1 12.1 30 12.1 12.2 0 19.3-.4 19.3-1s-7.2-1-19.5-1c-10.7 0-19.5-.3-19.5-.8 0-.4-1.5-2.3-3.3-4.3-9.3-10.4-9.8-11.1-9.1-14.6.7-4-1.3-6.8-6.3-8.9-4.4-1.9-6.7-1.7-8.7.5m6.7 1.2c1.2.6 3.2 2.1 4.5 3.2 6.4 5.9-1.6 8.2-8.4 2.3-3.4-2.9-3.7-3.5-2.5-5 1.6-1.9 3.4-2 6.4-.5"/><path d="M104 850.4c0 .9 7.1 4.8 7.7 4.3.3-.3-1-1.5-2.8-2.6-3.3-2-4.9-2.6-4.9-1.7M168.4 867.3c-.2.7-.3 5.8-.2 11.3l.3 9.9h36c19.8.1 38.1-.1 40.8-.3l4.7-.4V866h-40.5c-32.7 0-40.7.3-41.1 1.3m80.2 9.9c-.1 9.3-.1 9.3-3.1 9.4-1.6.1-19.2.2-39 .4l-36 .2-.3-9.6-.3-9.6h78.8z"/><path d="M212.8 871.6c-.5.4-.8 3.4-.8 6.6 0 5.8 0 5.8 4.8 5.7 4.4-.2 4.5-.2 1.2-.8-3.5-.6-3.5-.7-4-6.4-.3-3.3-.8-5.5-1.2-5.1M176.4 873.5c-.8 2.1.5 3.4 1.6 1.6.5-.9 1.5-1.1 2.6-.7 1.8.7 1.8.8 0 2.1-1.7 1.3-1.7 1.5-.3 2.1 1 .3 1.7 1.3 1.7 2 0 2.1-2.7 2.9-4.5 1.4s-2.7-1-1.6.9c1 1.6 5.8 1.8 7.2.4.6-.6.7-2.9.2-5.9-.7-4.4-1.1-4.9-3.6-5.2-1.8-.2-2.9.2-3.3 1.3M187 873.5c-.7.8-.9 1.9-.5 2.3s1 .1 1.2-.6c.3-.6 1.3-1.2 2.4-1.2 3 0 2.3 3.3-1.1 5.2-4.6 2.6-3.9 4.8 1.3 4.7 4.2-.2 4.2-.2.7-.8l-3.5-.6 3.3-2.4c2.5-1.8 3.2-2.9 3-5-.2-2-.9-2.7-2.9-2.9-1.4-.2-3.1.4-3.9 1.3M202.4 873.4c-1.3 3.3 0 6.1 2.9 6.4 3.6.4 2.9 2.8-.7 2.5-1.4-.1-2.6.2-2.6.8 0 .5 1.6.9 3.5.9 3.1 0 3.5-.3 4.4-3.7.8-2.9.7-4.2-.4-6-1.7-2.6-6.2-3.1-7.1-.9m5.6 2.6c0 1.3-.7 2-2 2s-2-.7-2-2 .7-2 2-2 2 .7 2 2M224.6 873.5c-1.7 1.3-1.7 1.5-.3 2.1 1.2.4 1.7 1.8 1.7 4.5 0 2.1.5 3.9 1 3.9.6 0 1-2.7 1-6 0-6.3-.4-6.8-3.4-4.5M196.5 878.9c-.7 1.2 1.2 2.4 2.5 1.6 1.1-.7.4-2.5-1-2.5-.5 0-1.1.4-1.5.9"/></svg>