<svg xmlns="http://www.w3.org/2000/svg" viewBox="0 0 864 1214" fill="currentColor"><path d="M55.5 15.6c-2.7 4.1-2.2 11.1.9 14.3 1.4 1.4 2.6 2.1 2.6 1.4 0-.6-.7-1.6-1.5-2.3-2-1.6-2-10 0-12.6 1.7-2.2 1.9-3.4.6-3.4-.5 0-1.6 1.2-2.6 2.6M81 15.5c-.9 1.1-1.6 1.3-2.4.5-.5-.5-2.5-1-4.3-1-3.3 0-3.3 0-3.3 6.9 0 3.9.5 7.3 1 7.6.6.4 1-.8 1-2.9 0-4.5 1.6-4.6 3.6-.3 1.5 3.2 2 3.4 7 3.6 5.5.2 7.6-1.5 2.7-2.1-3.5-.4-4.8-4.8-1.4-4.8 1.1 0 2.3-.5 2.6-1 .4-.6-.5-1-1.9-1-3.8 0-3.6-3.8.2-4.2 3.7-.4 3.4-2.2-.4-2.6-1.9-.2-3.6.3-4.4 1.3m-3.4 2.6c.7 1.2-1.2 2.9-3.3 2.9-.7 0-1.3-.9-1.3-2 0-2.2 3.4-2.8 4.6-.9m3.2 6.4c-.1 1.9-.5 3.5-.9 3.5-1.2 0-2.2-4.7-1.5-6.6 1-2.6 2.5-.6 2.4 3.1M225.3 15.2c-.5.7-1.7 3-2.6 5-.9 2.1-2.4 5.4-3.3 7.3-.9 2-1.4 3.8-1.2 4.1.3.2 2.4-3.4 4.7-8.2 3.8-8 4.8-11.3 2.4-8.2M287 14.6c0 .5.7 1.9 1.5 3 1.9 2.6 1.9 9.9-.1 13-.9 1.3-1.4 2.7-1.1 3 .3.4 1.5-.9 2.6-2.7 3-4.8 2.8-11-.4-14.6-1.3-1.5-2.5-2.3-2.5-1.7M61 20.9c0 4.1.5 6.5 1.6 7.5 2 2.1 4.4 2 6-.2 1.6-2 1.9-13.2.4-13.2-.6 0-1 2.7-1 6 0 4.6-.4 6.2-1.6 6.7-2.3.9-3.4-1.5-3.4-7.5 0-2.8-.4-5.2-1-5.2s-1 2.6-1 5.9M90 16c0 .5.7 1 1.5 1 1 0 1.5 1.6 1.7 6.2.2 3.8.8 6.3 1.6 6.6.9.3 1.2-1.3 1.2-5.9 0-4.7.4-6.5 1.8-7.5 1.5-1.2 1.1-1.3-3-1.4-2.7 0-4.8.4-4.8 1M100 22.5c0 4.3.4 7.5 1 7.5s1-1.6 1-3.5c0-2.8.4-3.5 1.9-3.5s2.1.8 2.3 3.2c.2 2.5.8 3.4 2.5 3.6 1.7.3 2.4-.3 2.9-2.2.8-3.3 3.2-3.3 4.4 0 .7 1.9 1.6 2.5 3.3 2.2 1.9-.3 2.2-.8 1.9-4.6-.2-2.3-.1-4.2.3-4.2.3 0 1.4 2 2.5 4.5 2.8 6.4 4 5.7 4-2.4 0-7.7-1.7-10.7-2.2-3.9l-.3 4.3-2.3-4.3c-1.2-2.3-2.7-4-3.2-3.7-.6.4-1 2.9-1 5.7 0 6-.8 5.7-2.5-.9-.7-2.7-1.8-4.8-2.5-4.8-1.2 0-3.8 6.2-4.2 10-.1 1.1-.4-.6-.7-3.8-.6-5.9-2.3-7.8-2.9-3.2-.5 3.9-4.2 3.5-4.2-.5 0-1.7-.4-3-1-3s-1 3.2-1 7.5m15-.6c0 .6-.4 1.3-1 1.6-.5.3-1-.1-1-.9 0-.9.5-1.6 1-1.6.6 0 1 .4 1 .9M129.4 16.4c-.3.7-.4 4-.2 7.2.3 5.9.3 5.9 4.6 6.2 2.9.2 4.2 0 3.7-.7-.3-.6-1.7-1.1-3.1-1.1-1.9 0-2.4-.5-2.4-2.5 0-1.8.5-2.5 2-2.5 1.1 0 2-.5 2-1 0-.6-.9-1-2-1-1.3 0-2-.7-2-2 0-1.5.7-2 2.5-2 1.4 0 2.5-.5 2.5-1 0-1.5-7-1.2-7.6.4M169.7 15.7c-.4.3-.7 3.7-.7 7.5 0 6.8 0 6.8 4.6 6.8 2.7 0 4.3-.4 3.9-1-.3-.6-1.7-1-3.1-1-3.1 0-3.4-3.5-.3-4.3 1.2-.3 1.8-1 1.5-1.6-.4-.6-1.3-.8-2-.5-1.4.6-3-2.2-2-3.7.3-.5 1.6-.9 3-.9s2.2-.4 1.9-1c-.7-1.1-5.8-1.4-6.8-.3M179.7 15.7c-.4.3-.7 3.7-.7 7.4v6.8h9.5c5.8 0 9.3-.4 9-.9-.4-.6-1.9-1-3.6-1-2.9 0-2.9 0-2.9-6 0-4.7-.3-6-1.5-6s-1.5 1.4-1.5 6.3c0 6.3 0 6.3-3.6 5.9-2.9-.4-3.5-.8-3.2-2.6.2-1.1 1-2.1 1.8-2.2 3.1-.2 3.4-.6 1-1.3-3.6-1-3.4-4.5.3-4.9 1.5-.2 2.5-.8 2.2-1.3-.7-1-5.8-1.2-6.8-.2M268 17c-2.7 2.7-2.8 10-.2 12.3 2.5 2.2 4.9 2.1 6.2-.2 1.3-2.5 1.3-4.1 0-4.1-.5 0-1 .6-1 1.4 0 2.4-2.2 3-3.7 1.1-1.5-2.2-1.7-6.3-.3-8.5.8-1.2 1.3-1.3 3-.3 2.4 1.5 3 1.6 3 .4s-2.9-4.1-4.1-4.1c-.5 0-1.8.9-2.9 2M149.5 22.7c.4 3.8.8 7 1 7.2.9.9 2.5-1.3 2.5-3.5 0-1.3.5-2.4 1-2.4.6 0 1 1.4 1 3.1 0 4.7 2.4 3 3.1-2.2l.5-4.4.5 4.4c.5 5.6 2.9 6.9 2.9 1.6 0-3 .3-3.6 1.6-3.1.9.3 1.8.6 2 .6s.4 1.3.4 3c0 1.6.5 3 1 3 .6 0 1-3 1-7 0-6.8-1.5-9.8-2.2-4.3-.4 3.7-3.2 3.7-3.6.1-.3-2.5-.6-2.7-5.2-2.6-4.1.1-5 .5-5.3 2.2-.4 2-.4 2-.6-.2 0-1.2-.6-2.2-1.2-2.2-.8 0-.9 2-.4 6.7m7.2-3c-.4.3-.7 0-.7-.7s.3-1 .7-.7c.3.4.3 1 0 1.4M207.7 21.7c.2 3.2.6 6.4.9 7 .7 2.3 2.1 1.3 2.9-2 .8-3.2.8-3.2 1.4-.3.7 3.3 3.1 4.8 3.1 1.9 0-1 .3-4.2.6-7.1.5-3.6.3-5.2-.5-5.2-.6 0-1.1 1.2-1.2 2.7-.1 2.8-.1 2.8-1.1 0-1.2-3.3-2.5-3.5-3.1-.5-.4 2.3-.4 2.3-.6 0 0-1.2-.7-2.2-1.5-2.2-1.2 0-1.3 1.2-.9 5.7M227.3 23.2c.2 7.4 1.9 10.1 2.5 4 .2-2.4.8-3.2 2.3-3.2 1.4 0 1.9.7 1.9 3 0 1.6.5 3 1 3 .6 0 1-3 1-7s-.4-7-1-7c-.5 0-1 1.3-1 3 0 2.3-.4 3-2 3s-2-.7-2-3c0-1.9-.5-3-1.4-3-1.2 0-1.4 1.5-1.3 7.2M250 23.5c0 4.3.4 7.5 1 7.5s1-3.2 1-7.5-.4-7.5-1-7.5-1 3.2-1 7.5M199.6 27.8c-.8 1.3.5 5.3 1.5 4.6 1.2-.7 1.2-4.1 0-4.9-.5-.3-1.2-.2-1.5.3M238.6 28.7c-1.2 1.2-.6 3.3.9 3.3.8 0 1.5-.6 1.5-1.4 0-1.7-1.4-2.8-2.4-1.9M257.7 29.4c-.7 1.9 1.1 3.2 2.4 1.9.6-.6.5-1.4-.4-2.2-1.2-.9-1.6-.8-2 .3M277.5 29c-.7 1.2.2 3 1.6 3 1.2 0 1.2-2.7 0-3.5-.5-.3-1.2-.1-1.6.5M295.2 41.8l-8.3.3.3 11.2.3 11.2 12.5-.1c6.9-.1 24.5-.2 39.3-.3L366 64V40.9l-31.2.3c-17.2.2-35 .4-39.6.6m69.6 10.9.3 9.3H289V43l37.8.2 37.7.3z"/><path d="M294.6 47.6c-2.3 2.2-2 4 .3 2 1.1-1 2.5-1.5 3-1.1 1.6.9 1.3 3.5-.4 3.5-2.2 0-1.8 1.7.6 2.3 1.2.3 1.9 1.2 1.7 1.9-.6 1.8-3.9 2.3-4.9.7-.4-.7-1.1-1-1.5-.6-1.1 1.1 1.7 3.7 4 3.7 2.6 0 5.2-3.6 3.7-5.4-.6-.7-.8-2.2-.4-3.4.6-2.4-1.2-5.2-3.3-5.2-.7 0-2 .7-2.8 1.6M304.6 47.6c-2.3 2.2-2 4 .3 2 2-1.8 4.1-1.4 4.1.6 0 .7-1.6 2.6-3.6 4.4s-3.3 3.8-2.9 4.4c.8 1.3 8.5 1.3 8.5 0 0-.6-1.3-1-3-1-3.7 0-3.9-1.2-.5-3s4.4-5.9 2-7.7c-2.4-1.7-3-1.6-4.9.3M319.5 48.4c-2.1 3.1-.6 6.3 3 6.8 1.9.2 2.2.6 1.5 1.8-.8 1.3-1.3 1.3-3.1.2-1.6-1.1-2-1.1-1.7-.1.2.7 1.2 1.7 2.2 2.3 1.4.9 2.1.6 3.7-1.3 2.3-2.8 2.5-6.9.3-9.9-2-2.9-4-2.8-5.9.2m5.3 2c.6 2.9-1.5 4.3-3.5 2.4-1.4-1.4-1.4-2-.3-3.3 1.6-1.9 3.4-1.5 3.8.9M330 47.5c-.7.8-1 2.3-.7 3.4.2 1 0 2.6-.5 3.5-.7 1.3-.5 2.3.8 3.7 3.7 4.1 7.7 1 6.8-5.4-1-6.4-3.6-8.5-6.4-5.2m4 2.5c0 1.1-.7 2-1.5 2s-1.5-.9-1.5-2 .7-2 1.5-2 1.5.9 1.5 2m.8 5.7c-.2 1-1.2 1.8-2.3 1.8s-2.1-.8-2.3-1.8c-.3-1.3.3-1.7 2.3-1.7s2.6.4 2.3 1.7M339.6 48.2c-.9 1.2-1.6 3.4-1.6 4.8 0 3.1 2.6 7 4.5 7 2.5 0 4.8-4.7 4.1-8.2-1.2-5.9-4.3-7.5-7-3.6m5 2.3c.9 3.8-.3 7.7-2.4 7.3-3.3-.6-2.4-9.8.9-9.8.5 0 1.1 1.1 1.5 2.5M313.5 54c-.3.5.3 1 1.5 1s1.8-.5 1.5-1c-.3-.6-1-1-1.5-1s-1.2.4-1.5 1M325.8 67.6c-.5.4-.8 7.4-.8 15.6V98h-92.4c-83.3 0-92.4.2-93 1.6-.3.9-.6 13.9-.6 29V156H59l-.2 60.7c-.2 104.4-.2 131 0 192.2l.2 59.4 176.4-.5c97.1-.3 177-.9 177.6-1.3.9-.6 1.1-15.3.9-58.9l-.4-58.1 41.3-.3 41.2-.2-.2-125.8-.3-125.7-84.2.4-84.2.3-.3-15.7c-.2-8.6-.6-15.3-1-14.9M494 223.4V347l-41.2.2-41.3.3.4 58.1c.2 33.6 0 58.3-.5 58.6s-79.5.9-175.6 1.3l-174.8.7V158h80l.2-24.3c.1-13.3.1-26.1 0-28.4l-.1-4.3 22.7-.2c12.5-.2 91.9-.4 176.5-.6l153.7-.3z"/><path d="M306.5 117.5c-10.3 1.7-17 3.8-25.4 8-19 9.6-36.3 28.5-47.6 52-4.7 9.7-10.6 27.4-12.5 37-.6 3.3-1.5 7.6-2 9.5s-1.2 10-1.6 18-1 14.9-1.4 15.5c-1.5 1.9-4 12.4-4 16.4 0 4.6 1.9 12.5 4.6 19.1 2.4 5.7 6.7 13 7.7 13 1.1 0 .8-1.7-.6-3.2-1.9-2-5.4-9.6-7.7-16.7-2.3-7.4-2.6-15.7-.6-22.1 1.3-4.3 1.4-4.4 2.1-1.8.4 1.4.2 3.5-.4 4.6-1.4 2.6-1.4 10.5 0 15.7 1.8 7.2 5.1 14.5 6.4 14.5.8 0 2.1 2.4 3.1 5.2 2.2 6.9 9.2 20.7 14.3 28.3 16 24.2 39.2 39.1 66.3 42.7 29.4 3.9 61.2-12.3 81.7-41.7 5.6-8 13.2-21.9 15.6-28.5.9-2.5 2.1-5.4 2.5-6.5 1.9-4.4 4-11.7 3.9-13.8 0-2.6-1.4.8-4.8 11.7-3.8 12.1-14.4 31.6-22.5 41.5-19.7 24-42.3 36-67.8 36.1-24.7.1-50.3-12.8-67.1-33.7-14-17.4-21.4-33.8-26.8-59.3-1.8-8.6-2.2-13.9-2.3-29-.1-18.7.6-25.2 4.5-41.2 10.7-43.6 37.3-76.5 70.1-86.7 11.3-3.5 26.4-4.3 37.6-2.1 8.3 1.7 21.7 7.6 29.9 13.2 7.5 5.2 17.5 14.6 22.1 20.7 1.5 2 3.3 4.2 3.9 4.9 1.4 1.5 8.3 13 8.3 13.8 0 .3.8 1.8 1.8 3.2 5.8 8.4 13.5 34.7 15.4 52.6.7 6.4 1.6 11.6 2 11.6 1 0 1-.7-.3-11.5-3.9-33.7-17.5-64.2-37.4-84-21-21.1-46.7-30.8-71-27m-84.6 169.3c1 4 1.5 7 1.1 6.5-1.9-2.1-4.1-10.3-4.5-16.2-.4-6.4-.4-6.4.6-2.1.5 2.5 1.8 7.8 2.8 11.8M428.1 131c-1.2 3.5-.5 8.4 1.4 10 .9.7 1.1-.3.7-4.5-.3-3.5 0-6 .8-7 1-1.2 1-1.5-.3-1.5-.8 0-2 1.4-2.6 3M432.9 132c-.1 2.2-.2 4.5-.3 5.2-.1.6.5 1.3 1.2 1.5.7.3 1.2-.6 1.2-2.4.1-2.8.1-2.8 2.4.1 2.4 2.9 4.5 2.8 4.7-.2 0-1.3.3-1.2 1.1.5 2.2 4.5 8.2 3.7 9.4-1.2.8-3.1-1.9-7.5-4.6-7.5-2.3 0-5 2.5-5.1 4.8-.1.9-.4.4-.8-1.2-.8-3.8-2.4-3.9-3.1-.3-.5 2.8-.5 2.8-2.3-.2-2.5-4.2-3.7-3.9-3.8.9m16.9 1.7c-.3 3.1-3.4 4.4-4.4 1.9-.9-2.4.3-4.6 2.6-4.6 1.7 0 2.1.5 1.8 2.7M459.2 129.2c-1.5 1.5-1.6 3.8-.2 3.8.6 0 1-.5 1-1 0-.6.5-1 1-1 1.8 0 1 2.6-1.5 4.8-1.4 1.2-2.7 1.7-3 1.1-.8-1.2-2.7-.1-2.3 1.3.5 1.3 7.4 2.2 9.7 1.3 1.4-.6 1.4-.8-.2-1.9-1.5-1.2-1.5-1.5-.2-2.6 1.9-1.6 1.9-3.4-.1-5.4-1.9-1.9-2.6-2-4.2-.4M466.5 130.5c1 3.8 1 5.2.1 9.5-.8 3.4-.7 3.4 1 1.7 2.6-2.4 2.6-10 0-12.4-1.8-1.7-1.8-1.7-1.1 1.2"/><path d="M305 135.4c-24.5 7.3-41.8 21.7-54.8 45.1C239 201 234 222.4 234 250.2c0 21.8 2.3 31.8 7.3 31.8 2.1-.1 2.1-.1-.5-2.1-3.3-2.4-3.7-4.9-.8-4.9 5.2 0 13.2 13.7 16 27.4.5 2.7.3 5.2-.6 7.9-3.3 9.4-1.3 15.3 8.5 24.6 12 11.4 23.4 17.2 43.4 22 6.6 1.5 8.4 1.4 10.7-.9 2.5-2.5 2.7-9.1.5-14.4-1.5-3.6-1.5-3.6 1.2-4.2 7.8-1.6 14.3-4.1 19.3-7.3 3-1.9 4.9-3.6 4.3-3.8s-2.9.7-5 2.2c-8.5 5.5-23.3 8.9-24.1 5.4-.2-1.4.4-1.6 4.1-1.2 2.7.3 4.7.1 5.1-.6.5-.7-.9-1.1-4.3-1.1-3.9 0-5.1-.4-5.1-1.5 0-1.2.8-1.4 4-.9 2.7.4 4 .3 4-.5 0-.6-1-1.1-2.1-1.1-1.8 0-1.9-.2-.9-1.5.7-.8 2.3-1.5 3.6-1.5 5.1 0 3.2-2.2-12.8-15.2-4.2-3.5-7.7-6.6-7.8-6.9 0-.4 1.4-1.2 3-1.9 1.7-.7 3-1.6 3-2.1 0-1.3-1.4-1.1-3.6.6-3 2.3-4.1 1.8-5.8-2.6-1.9-4.7-1.7-5.2 2.4-6.9 1.6-.7 3-1.6 3-2.1s-.2-.9-.4-.9c-1 0-8.6 4.5-8.6 5.1 0 1.4 4.9 11.7 5.8 12 .5.2 4.2 3.3 8.2 6.9 4.1 3.6 8.7 7.7 10.4 9.2s2.6 2.8 2.1 2.8c-.6 0-6.3-4.5-12.7-10-9.5-8-11.9-10.7-12.8-13.7-1.4-5.1-1.8-5.6-7-7.3-3-1-4.6-2.1-4.8-3.5-.4-1.8-.3-1.9 1-.3.7.9 3.1 2 5.3 2.3 3.7.6 3.9.5 2.1-.9-1.8-1.5-1.8-1.6.8-2.5 1.4-.6 2.6-1.5 2.6-2 0-.9 4.6-.1 8.2 1.4.9.3 2.6 3.1 3.8 6.1 1.3 3 2.8 5.8 3.5 6.2s4.3 3.4 8.1 6.7c3.7 3.3 8.9 7.9 11.6 10.2l4.8 4.2-3.8 1.8c-3.5 1.7-7.1 4.9-7.2 6.6 0 .4 2.7-1 5.9-3.3 3.3-2.2 6.3-4 6.6-4 .4 0 2.7-1.4 5.2-3.1 3.8-2.7 4.9-3 6.4-2 1.6.9 1.9.8 1.9-.9s.7-2 4.2-2c4.1 0 4.1 0 2.2 2.1-1 1.1-4 3.7-6.7 5.6-2.6 1.9-4.6 3.7-4.3 4 .8.8 5-1.9 9.3-6l4.2-4 3.1 6.9c3.2 6.9 5.6 10.4 7.2 10.4.4 0 .8-.5.8-1.2s1.1-2.3 2.4-3.7c3-3.2 11.7-17.3 13.6-22.1.7-1.9 1.7-4 2.1-4.5 1-1.4 4.9-14.8 4.9-16.9 0-1-.5-1.4-1-1.1-.6.3-1 1.4-1 2.4 0 4-8.7 26.3-11 28.1-.4.3-.9 1.2-1.2 2-.8 2.2-9.8 14-10.7 14-.4 0-2.7-4.1-5.1-9.1-4.4-9.1-4.4-9.1-9.4-8.5-9 1.1-17 2.4-19.3 3.1-1.8.6-3.5-.4-8.5-4.6-12.7-10.9-16.5-14.9-17.8-19-1.6-4.7-4-6.7-9.2-7.6-2.1-.3-3.8-1.1-3.8-1.8s-.7-1.9-1.6-2.6c-1.5-1.2-1.6-1.1-.9 1.1.4 1.4.9 2.9 1.1 3.5.2.5-1.5 1.8-3.8 2.7-2.3 1-4.2 1.7-4.2 1.5-.1-.1-1-2-2.1-4.1-1.7-3.3-2.8-4.2-6.7-5.3-5.3-1.5-6.5-2.6-1.9-1.7 1.6.4 3.2.1 3.5-.5.4-.6.1-1.1-.8-1.1-.8 0-2-.8-2.5-1.8-.6-.9-1.1-1.2-1.1-.5 0 .6-1.5 1.3-3.2 1.5-1.8.2-3.3.8-3.3 1.4s-2.1 3.4-4.7 6.3c-4.6 5-7.8 6.5-7.8 3.6 0-1.5-.9-1.8-4-1.6-1.8.1-6.1-5.9-11.2-15.4-3.2-5.9-3.8-8-3.8-13.2 0-6 1.4-9.1 2.6-5.9.8 2.1 4.4 2.1 4.4 0 0-.8-.4-1.2-1-.9-.6.4-.7-.6-.4-2.5.7-3.2-1-4.2-3.4-1.8-1.6 1.6-1.6-.4.1-2.4.6-.8 2.8-2.5 4.8-3.7 3.7-2.1 3.7-2.1 6.4 1.1 3.9 4.6 5.8 5.1 10.5 2.7 2.2-1.2 4.2-2.5 4.5-2.9.2-.4 1.6-.5 2.9-.3 3.2.6 10.3-3.3 11.9-6.6.7-1.3 2.7-3.2 4.6-4.2 5.9-3.1 6.3-3.9 5.3-10.3-.9-5.8-.9-5.8 3.7-8.7 5.3-3.3 8.9-3.7 11.9-1 2.8 2.4 2.8 3.8 0 4.4q-2.85.45.6.6c1.7 0 4.2 1.2 5.6 2.6 2.6 2.5 3 2.5 9.8 1.7 7-.8 7-.8 7.6 2.2.9 4.4 1.9 2.3 1.1-2.4-.5-2.9-1-3.8-1.8-3.2-1.6 1.3-14.7 2.6-14.7 1.5 0-1.2-5.9-7.5-9-9.6-1.3-.9-3.4-1.7-4.6-1.7-3.2 0-11.6 2.9-14.3 4.9-2.2 1.7-2.3 2-1.1 7.5 1.3 6.4 1.1 6.8-5.8 10.1-1.8.9-3.8 2.7-4.3 3.9-1.4 2.9-6.2 5.8-8.4 5-1.7-.7-4.9.6-9.6 3.8-2.9 1.9-2.5 2.2-9.6-6.8-5-6.3-8.5-19.1-6.7-23.8.5-1.3.9-1.4 2-.5 1.6 1.3 1.8 4.5.4 5.4-.6.4-.8 1.1-.5 1.6.4.5 1.4 3.9 2.3 7.6 1.5 5.9 2.1 6.8 4.7 7.6 3.9 1.3 4 1.4 2.5 3.2-1 1.2-1 1.5.3 1.5.8 0 1.7-.7 2.1-1.5.8-2.2-.4-4.5-2.4-4.5-1.4 0-2.3-1.8-4-8.3-2.7-10.1-4.2-14.9-5.1-16.1-.8-.9.6-5.5 4.1-13.2 9.5-21 25.4-38.6 42.5-47.2 11.2-5.6 15.9-6.7 29.5-6.7 11.5 0 13 .2 19.5 2.9 17.6 7.3 31.6 20 42.7 38.6 2.4 4.1 5.2 9.5 6.2 11.9 2.4 6.1 1.2 7.1-9.5 7.8-6.9.5-8.7 1-10.6 2.9-1.3 1.3-2.3 3.1-2.3 4.1s-.8 2.8-1.8 4c-1.5 1.9-3.2 2.3-14.2 3.3-14.2 1.2-17.3 1.7-16.6 2.9.5.7 6 .3 24-2 7.3-.9 9-.9 9.7.2 1.8 2.9 5.1 15.1 4.3 15.9-.5.4-3.6 1.4-6.9 2.3-10.7 2.7-24 6.9-25.1 7.8-.6.5-1.9.7-2.7.3-.9-.3-2.4-.1-3.4.5-1.5.8-1 1 2.4 1.1 2.3 0 4.8.3 5.7.6 1 .4 1.6.1 1.6-.9s1.9-2.1 5.3-3.1c16.7-5 20-5.7 20.9-4.8.6.6 1.6.9 2.2.6.6-.2 2.6.9 4.4 2.6 3.1 2.7 5 3.3 14.2 4.2 1.4.2 2.4.7 2.2 1.3-.2.5.5 1.2 1.5 1.6 2.7 1.1 9.3 1 9.3-.1 0-.6-1-1-2.3-1s-4.2-.9-6.5-2c-2.2-1.1-5-2-6.2-2-1.1 0-2-.5-2-1 0-.6.8-1 1.8-1 2.3.1 10.4 2.3 12 3.4.7.4 1.6.6 1.9.3 1.3-1.4-10.4-5.6-13.7-5-.3.1-.6-3.2-.8-7.2-.3-9.9-4.3-22.7-7.9-25.3-2.5-1.8-2.5-2-.7-2.5 1-.3 4-.8 6.6-1.2 6.9-.9 7.4-2.5 3.4-11.6-4.6-10.7-11.9-21.3-20.6-29.9-8.8-8.9-16.5-14.1-27.5-18.9-7.3-3.2-8.9-3.6-19-3.8-7.1-.2-12.6.2-15.5 1.1m69.9 66.5c3.1 1.6 4.2 3.1 6 7.8 1.3 3.2 2.8 9.7 3.4 14.4.9 7.7.9 9-.6 11.3-2.1 3.2-2.5 3.2-6.7.1-2.9-2.2-3.1-2.5-1.4-3 5.8-1.9 6.1-4.9 2.1-17.5-2.4-7.5-2.4-7.5-6.6-7.8-3.5-.3-4.1-.6-4.1-2.6 0-2.2 1.7-4.6 3.2-4.6.5 0 2.6.9 4.7 1.9m-86.4 20.8c-.2.7-1 1.3-1.6 1.3-.9 0-.9-.3 0-1.4s.9-2.5 0-6c-.6-2.5-.8-5.4-.3-6.3.8-2 2.7 10.2 1.9 12.4m82.5-11.5c.5 1.3 2.2 5.9 3.7 10.3s2.9 7.3 3.1 6.5c.1-.8-.9-4.8-2.3-8.9-2.6-7.8-3.2-11.2-1.6-9.6.5.6 1.9 4.4 3.1 8.5s2.4 8.2 2.7 9.1c.3 1.2-.5 2-2.8 2.8-4.1 1.4-4.9 1.4-4.3-.2.7-1.8-4.2-16.6-6.2-18.8-1.6-1.8-1.6-1.9 1-1.9 1.8 0 2.9.7 3.6 2.2m-130.2 11.4c1.6 5.6 1.6 5.9-1.4 7.3-2.7 1.2-2.7 1.2-2.1-4.1.4-2.9.7-6.2.7-7.3 0-2.8 1.5-.7 2.8 4.1m37.2 8.3c-1.3 2.5-3.2 2.8-2.3.3.7-1.8 2.5-3.4 3.1-2.7.2.2-.1 1.3-.8 2.4m-33-.1c0 .8-7.1 5.2-8.4 5.2-1.9 0-.1-2.9 2.7-4.3 3.6-1.8 5.7-2.1 5.7-.9m0 3.6c0 .2-.7.7-1.6 1-.8.3-1.2.2-.9-.4.6-1 2.5-1.4 2.5-.6m29 0c0 .2-.7.7-1.6 1-.8.3-1.2.2-.9-.4.6-1 2.5-1.4 2.5-.6m-35.2 4.4c-1.6 2-2.4 2.4-2.6 1.5-.2-.8.5-2.1 1.5-2.8 3-2.4 3.6-1.7 1.1 1.3m25.2-2.3c0 .3-.2.5-.5.5s-.5-.2-.5-.5.2-.5.5-.5.5.2.5.5m-3 1.9c0 .3-.5.8-1.2 1.2s-.8.3-.4-.4c.7-1.2 1.6-1.6 1.6-.8m-21.1 34.5c-1.8.6-2.8-1.2-3.4-5.9l-.5-4.5 2.5 5c1.5 3 2 5.1 1.4 5.4m37.6 6.3c1.7.8 2.9 2.5 3.7 5.2 1.5 5.4 3 7.1 7.7 8.4 3.3 1 4.1 1.9 5.6 5.9 1 2.7 2.3 5.2 3 5.8.6.5 4 3.5 7.5 6.5 3.6 3 7.1 6.1 7.9 6.8s2.4 2 3.7 2.9c3.1 2 3 2.4-1.1 5.1-3 1.9-3.5 2.7-3.5 6.2 0 2.2.4 4 .9 4 1.8 0 5.1 8.6 5.1 13.2 0 6.6-1.3 7.3-10.4 5.9-11.9-1.9-26.8-8.1-33.5-14-1.3-1.2-2.7-2.1-3.1-2.1-1.4 0-14.1-13.5-14.6-15.7-.6-2.1-.3-5.3 1.2-16.4.4-3.2 0-6.3-1.5-10.9-2.7-8-2.7-8 .8-8 2.2 0 3.9-1.2 7.2-4.9 4.7-5.4 8.1-6.3 13.4-3.9m-23 5.8c.3.5-.1 1-.9 1-.9 0-1.6-.5-1.6-1 0-.6.4-1 .9-1 .6 0 1.3.4 1.6 1m87 30.5c-3.2 2.6-5 2.8-5 .4 0-.7 1.4-1.7 3-2 4.9-1.1 5.1-.9 2 1.6M408.7 147.7c-.4.3-.7 5.5-.7 11.5V170h79.1l-.3-11.3-.3-11.2-38.6-.3c-21.2-.1-38.8.1-39.2.5m76.1 11 .3 9.3H410v-19l37.3.2 37.2.3z"/><path d="M415.2 153.2c-.7.7-1.2 1.9-1.2 2.7.1 1.3.3 1.2 1.5-.3.8-1.1 2.1-1.6 3-1.3 2.2.9 1.9 2.6-.7 3.7-2.3.9-2.3.9 0 1.6 1.2.3 2.2 1.3 2.2 2 0 2-3 3-4 1.3-.5-.7-1.2-1-1.6-.6-1 1 1.6 3.7 3.6 3.7 1 0 2.2-.6 2.8-1.3 1.1-1.4 1.1-9.6-.1-11.5-1-1.5-3.9-1.6-5.5 0M425.2 153.2c-.7.7-1.2 1.9-1.2 2.7.1 1.3.3 1.2 1.5-.3 1.5-2 4.5-1.6 4.5.7 0 .7-1.2 2-2.6 2.7-3.1 1.7-5 4.8-3.6 6.2 1.2 1.2 7.7.6 7.7-.7 0-.6-1.3-1.1-2.8-1.3-2.3-.3-2.6-.6-1.6-1.8.6-.8 1.8-1.4 2.5-1.4 1.9 0 2.9-4.7 1.4-6.5s-4.2-1.9-5.8-.3M439.5 153c-.3.5-.3 1.1.2 1.2.4 0 1.3.2 1.8.3.6.2 1.6.3 2.4.4 1.1.1 1.1.5-.1 2.3-1.9 3-3.1 7.8-1.9 7.8.5 0 1.2-1.2 1.6-2.7.3-1.5 1.5-3.9 2.6-5.5 1.1-1.5 1.7-3.2 1.4-3.8-.8-1.3-7.2-1.3-8 0M451.8 155.9c-3.5 4.8-3.5 6.1-.3 6.1 1.6 0 2.5.6 2.5 1.5 0 .8.5 1.5 1 1.5.6 0 1-.7 1-1.5s.5-1.5 1.2-1.5c.9 0 .9-.3 0-1.2-.7-.7-1.2-2.9-1.2-5s-.3-3.8-.7-3.8c-.5 0-2 1.8-3.5 3.9m1.8 3.8c-1 1-1.9-.5-1-1.8.6-1.1.8-1.1 1.2 0 .2.7.1 1.5-.2 1.8M460 154.2c-2.3 2.5-2.5 4.6-.9 8.2 2.1 4.6 5.9 4.4 8-.5 1-2.6.9-3.6-.4-6.5-1.9-3.9-3.8-4.3-6.7-1.2m4.5.8c2.2 3.5.3 10.3-2.3 8.6-1.3-.8-1.7-7.8-.5-8.9.9-1 2.1-.9 2.8.3M470.6 154.2c-3 4.2-.9 11.8 3.2 11.8 2.5 0 6.2-2.8 6.2-4.7 0-1.3-.5-1.2-2.5.7-2.1 1.9-3 2.2-4.3 1.4-3.5-2.3-2.7-9.4 1.1-9.4 1.3 0 2.8.5 3.5 1.2 1.7 1.7 2.8.2 1.2-1.7-1.9-2.3-6.6-1.9-8.4.7M434 160c0 .5.9 1 2 1s2-.5 2-1c0-.6-.9-1-2-1s-2 .4-2 1M448.7 172.6c-.4.4-.7 4.9-.7 10v9.3l-6.7.3-6.8.3-.3 40.7-.2 40.8h-3.5c-3.9 0-8.5 2.5-8.5 4.6 0 2.3 4.3 4.4 9.2 4.4 4 0 5.4.5 8 3 1.7 1.6 3.7 3 4.5 3 2 0 8.3-6.4 8.3-8.4 0-2.6-2.8-7.4-4.9-8.6-2.1-1.1-6.4 0-7.6 1.9-2.2 3.6-2.5-1.8-2.5-39.4V194h26v46h-4.3c-4.3 0-8.7 2.2-8.7 4.3 0 2 3.9 3.8 9.4 4.4 3 .3 5.9 1.3 7.2 2.4 2.7 2.5 6.6 2.4 9.2-.4 3.3-3.6 3.6-6.8 1-10.7-2.5-3.7-6-4.9-8.4-2.9-.8.6-1.7.9-2 .6s-.7-9.9-.9-21.4c-.1-11.4-.3-21.6-.4-22.5-.1-1.4-1.3-1.8-7.3-2l-7.3-.3-.3-9c-.2-9.9-.4-11-1.5-9.9m22 67.2c-2.1 2.3-2.2 7.6-.2 9.6.8.8 1.5 1.7 1.5 2 0 1.3-2 .5-4-1.6-3.4-3.7-1.5-11.8 2.8-11.8 1.3 0 1.3.3-.1 1.8m5.3 1.3c0 .6-.7.8-1.6.5-1.2-.4-1.5-.2-1.1.9.4.8.2 1.7-.3 2-1.7 1.1-1.1 2.5 1.1 2.5 1.8 0 1.9.2.9 1.5-1 1.2-1.6 1.3-2.6.4-1.4-1.2-1.9-7-.7-8.2 1.1-1.1 4.3-.8 4.3.4m-19 2.8c0 2.3-1.6 3.6-2.5 2.1-.9-1.4.1-4 1.5-4 .5 0 1 .9 1 1.9m2.7 1.8c-.3 1-.5.4-.5-1.2 0-1.7.2-2.4.5-1.8.2.7.2 2.1 0 3m4.9-.8c.2 2.8-2 2.1-2.4-.8-.3-1.6.1-2.2 1-1.9.7.3 1.4 1.5 1.4 2.7m12.4.6c0 .3-.2.5-.5.5s-.5-.2-.5-.5.2-.5.5-.5.5.2.5.5m-32.6 29c-.4.8-1 1.5-1.4 1.5-1.4 0-1.7 4.8-.4 7.9 1.5 3.5.6 4-2 1.2-1.4-1.6-1.6-2.9-1.1-6.1.6-3.7 1.7-4.9 5.2-5.9.1-.1 0 .6-.3 1.4m4.7 2.6c1 1.9.8 2-1 1.4-1.8-.5-2.1-.2-2.1 2 0 1.5.4 2.4 1 2 .6-.3 1 .1 1 .9 0 2.5-2.9 1.9-4.2-.9-.9-1.9-.8-2.9.6-5 2-3 3.2-3.2 4.7-.4m-22.1.9c0 1.1-.7 2-1.5 2-1.8 0-1.9-1.2-.3-2.8s1.8-1.5 1.8.8m5 .4c0 1.4-.5 2.8-1 3.1-1.3.8-2.4-2-1.6-4 .9-2.4 2.6-1.7 2.6.9m4-1.2c0 .7-.5 2-1 2.8-.8 1.2-1 .9-1-1.3 0-1.5.5-2.7 1-2.7.6 0 1 .6 1 1.2M180 191.6c-7.6.7-23.2 3.5-27.5 4.9-2.2.7-7.1 2.3-11 3.5-8.3 2.6-18.4 7.3-24.2 11.2-2.3 1.5-4.6 2.8-5 2.8-1.4 0-6.9 6.2-8.8 9.9-1.8 3.7-1.7 8.7.6 20.2 1 5.2 1 9.9.3 20.5-1 13.3-.9 14 1.3 19.9 4.5 11.4 7.2 16.3 10.7 19s3.7 2.7 14.1 2l10.5-.7v16.3c0 9 .3 19.4.7 23.1l.6 6.8H94v-41.4c0-41.4 0-41.4 3-42.5 1.7-.5 3-1.5 3-2.1 0-.7-.6-.8-1.9 0-5.2 2.7-12.7.1-17.4-6.2-7.8-10.2-7-26.1 1.8-36.1 2.2-2.5 3-2.7 9.8-2.7 4.3 0 7.8.5 8.5 1.2.6.6 1.5.9 1.9.5 1.1-1.2-3-3.5-7.3-4.2-5.2-.7-12.4.4-12.4 2 0 .6-1 2-2.1 3.1-1.2 1-3.3 4.4-4.7 7.4-6.2 13.8-.4 31.8 11.9 36.7l3.9 1.5V310c0 35.8.2 41.9 1.5 43 1 .9 4.8 1.1 12.7.9l11.3-.4.3 11.3c.3 14.6 2.2 14 2.2-.7v-10.9h10.9c6 0 11.5-.3 12.1-.7.9-.5 1.1-6.9.8-24.2l-.4-23.5 5.8.6c8.7.9 15.8 4.9 26 14.6 5 4.7 10.5 9.3 12.3 10.4 3.8 2.2 8 1.6 8.8-1.3.2-1 1.7-2.5 3.3-3.3 4-2 7.8-4.2 8.4-4.8.6-.7 16-9.8 17.4-10.4.7-.2.7-.8-.1-1.7-1.1-1.1-1.5-1-2.5.3-1.5 1.8-26.1 16.8-27.6 16.8-.5 0-1.5-.6-2.1-1.4-1-1.2-.1-2.1 5-5.1 3.4-2 6.4-3.4 6.6-3.1.3.3-2.1 2-5.3 3.8-3.5 1.9-5.3 3.4-4.3 3.6 1.7.3 20.9-11.6 20.9-13 0-1.3-.6-1-5.2 2.1-2.4 1.6-4.5 2.7-4.8 2.4s0-.7.5-.9c2.6-1 7.5-4.5 7.5-5.4s-2.4.4-16.4 9l-6.9 4.2-3.1-3.1c-1.7-1.7-2.5-3.1-1.9-3.1.7 0 1.5.4 1.8 1 .9 1.4 7.4 1.2 8.9-.3 5.9-5.8 4.5-15.3-2.6-18.1-7.5-3.1-14.4-.8-13.6 4.4.3 2.5.3 2.5 1.8-.5.8-1.6 2.4-3.1 3.4-3.3 1.1-.3 1.6 0 1.2.7-.9 1.4-.1 1.4 2.2 0 1.4-.9 2.5-.8 5 .5 3.3 1.7 4.6 4.6 4 8.7-.4 3-4.6 3.7-8.2 1.3-1.5-.9-2.6-1.2-2.6-.5 0 1.2 5.2 4.1 7.5 4.1.9 0 1.3.4 1 1-1 1.6-6.3 1.2-9.2-.7-1.4-.9-3.3-1.7-4.2-1.8s-3.8-1.8-6.5-3.9c-10.7-8.1-18.8-10.9-30.8-10.4-5.1.3-11.9 1.2-15.1 2.1-5.1 1.5-6.1 1.5-8.6.3-3.8-2-7.8-7.9-10.1-15.3-.7-2.1-1.7-4.3-2.2-5-1-1.3.6-5.3 2.2-5.3.5 0 1.2-.9 1.5-2 .9-2.9 1.9-1.9 5.7 5.7 1.8 3.7 5.6 9 8.4 11.9 6.5 6.7 9.6 7.4 19.2 4.2 6.4-2.2 7.3-2.3 8.7-.9 1.3 1.4 1.5 1.4 1.5-.1 0-.9-.4-2-1-2.3-.5-.3-1-2.6-1-5.1 0-2.4.5-4.4 1-4.4.6 0 1-.5 1-1 0-.6-2.1-1-4.7-1-3.5 0-6-.8-10-3.2-4.8-2.9-5.3-3.6-5.3-6.8 0-4.3-3.3-10-5.9-10-4.5 0-5.4-19.5-1.5-31 3.2-9.2 13.3-14.8 16.4-9 .7 1.4.2 2.5-2.5 5.2-4.2 4.4-6.5 11.9-6.5 21 0 20.6 20.1 31.5 32.2 17.5 5-5.8 6.3-9.9 6.3-19.2 0-8-.3-9.5-2.7-13.7-3.1-5.2-9.3-10.8-12.1-10.8-2.7 0-5.7-1.9-5.7-3.5 0-.8-.5-1.5-1.2-1.5-.6 0-.4-.7.5-1.8 1-1 1.7-2.4 1.7-3 0-2.1 3.6-2.2 7.6-.3 8 3.9 17.1 16.5 15.9 22-.3 1.6.1 4.7.9 7.1 2.4 6.9-.1 21.8-4.5 27.4-2.7 3.4-2.3 5.7.4 2.4 1.6-2 2.6-2.5 3.7-1.8 2.9 1.9 6.6 1.1 7.8-1.5 1-2.2.8-2.9-1.8-5.9-2.4-2.7-3-4.3-3-7.9 0-6.5.7-7.7 4.5-7.7 3.3 0 3.3 0 4 7.5 1.2 13-.4 17.3-8.5 22.6-1.4.9-2.2 2-1.9 2.3 1.1 1.1 9.4-5.1 11-8.1.9-1.9 1.4-6.4 1.4-14.3 0-7.2.5-13.1 1.4-15.8 1.3-3.8 1.3-4.6-.3-7.8-.9-2-2.5-3.8-3.5-4.1-2.5-.6-4.4-7.2-4.6-15.8-.1-3.9-.5-7.7-.9-8.6-.6-1.4.7-1.8 9.4-2.8 5.5-.6 14.1-1.1 19-1.1 5.3 0 9-.4 9-1s-4.3-1-10.7-1.1c-8.3 0-10.2-.3-8.3-1 1.4-.6 6-.9 10.3-.7 7.5.3 9.9-.4 5.5-1.6-3-.7-32.9-1.5-38.8-1m18.5 2c-12.7 1.5-27.9 4.7-36 7.6-6.4 2.3-12.5 5.2-12.5 6 0 1.1.2 1.1 5.4-1.1 10.1-4.4 22.9-8.1 27.6-8 1.4 0-1.3 1.1-6 2.4-10.5 2.8-21.2 6.6-26.5 9.2-12.6 6.4-16.4 8.6-20.2 11.5-2.4 1.7-4.5 2.9-4.8 2.6-.5-.5 10.7-8.1 15.8-10.7 1.5-.8 2.7-1.8 2.7-2.3 0-1.3-1.5-.9-4.1.9-2.7 2-6 4-10.3 6.1-5.4 2.8-11.2 9.4-13.5 15.5-2.2 6-2.7 10.7-1.2 10.7.4 0 .4 1.7-.1 3.7-.4 2.1-1.6 8-2.6 13.2-1.4 7.7-2.1 9.7-4.1 10.9-2.3 1.6-2.3 1.6-1.7-9.9.4-7 .3-13.5-.4-16.9-4.2-20.8-1.9-25.5 17.2-35.3 12.4-6.4 18.7-8.8 30.3-11.5 9.4-2.3 18.6-4.1 23.5-4.5 4.6-.5 25.4-.5 21.5-.1m-2 3.5c-2.2.4-5.6.8-7.5.7-3.5 0-3.5 0-.5-.8 1.7-.4 5-.8 7.5-.8 4.5 0 4.5 0 .5.9m-13.1 7.2c1.4 3.8-.3 7.9-3.7 9.1-2.2.8-3 .6-4.2-1-1.7-2.2-2-9.4-.4-9.4.5 0 .7.5.4 1.1-.4.5-.4 2.1-.1 3.5.5 1.7 1.3 2.4 3.1 2.4 2.5 0 3.5-1.5 1.4-2.2-.8-.3-.9-1.5-.4-3.6.8-3.8 2.6-3.7 3.9.1m-11.4 3.2c0 4.2 4 9 6.8 8.2.9-.2 2.3-.6 3.1-.8.9-.3 1.9 1.3 2.9 4.9.8 2.9 1.3 5.4 1.1 5.6s-1.9.1-3.7-.1c-2.3-.4-3.7-1.4-4.7-3.4-.9-1.6-3.3-4.7-5.5-6.9-4.9-5-5.6-11-1.3-11 .8 0 1.3 1.3 1.3 3.5m-6 .1c0 1.1-.5 1.4-1.6 1-.9-.3-1.8-.6-2-.6-.3 0-.2-.5.1-1 1-1.6 3.5-1.2 3.5.6m-15.9 5.4c-1.3 1.1-2.8 2-3.5 2-.6-.1 0-1 1.3-2 1.3-1.1 2.8-2 3.5-2 .6.1 0 1-1.3 2m3.5 6.8c-.3.2-1.9.1-3.7-.3-3.3-.7-3.3-.7-.8-2.1 2.1-1.1 2.6-1.1 3.6.3.7.9 1.1 1.8.9 2.1m3.7 4.8c1.4 1.1 3.6 3.7 4.8 5.9 2.2 4 2.2 4-.5 1.5-2.4-2.2-3.6-2.4-10.2-2.4-4.3 0-8 .6-8.6 1.2-.7.7-1.6 1.2-2 1.2-1.3 0 1.1-3.9 4.6-7.5 2.6-2.7 3.6-3 6.2-2.5 1.8.4 4.3 1.6 5.7 2.6m8 1c6 5.7 7.1 8.7 7.2 19 0 8.4-.2 9.4-3 14-3.1 4.9-8.5 9.4-11.3 9.4-1 0-.6-.9 1.3-2.7 3.9-3.9 7-10.4 5.5-11.3-.9-.6-.9-1.3-.1-2.8.6-1.2 1.2-5.4 1.3-9.4.2-8.2-1.3-12.2-6.5-17-2.9-2.8-2.9-2.8-.6-2.8 1.4 0 4.1 1.6 6.2 3.6m-43.3 2.3c-.5 1.1-1.5 2.3-2.2 2.7-.7.5-.8.2-.3-.7 2.1-3.7 4.4-5.5 2.5-2m5-1.3c0 .3-.5 2.5-1.1 5-1.1 4.1-1.3 4.4-2.7 3s-1.4-1.9.1-5.1c1.4-3 3.7-4.8 3.7-2.9m55.3 2.5c-.4 1.5-.8 1.7-1.4.8-.8-1.4-.3-2.9 1.1-2.9.4 0 .6.9.3 2.1m9.1 1.1c3.2 4.6.8 11.8-3.9 11.8-1.4 0-2.9-.8-3.5-2-1.5-2.8-1.5-8.6 0-10.5 1.8-2.2 5.6-1.8 7.4.7m-72.4 2.3c0 .3-.2.5-.5.5s-.5-.2-.5-.5.2-.5.5-.5.5.2.5.5m27.3.7c.3 1 .8 1 2.1-.1.9-.8 1.9-1.1 2.3-.7.3.3.1.6-.5.6-1.8 0-6.2 8.4-6.2 11.8 0 1.6-.6 3.2-1.2 3.5-.9.2-.3 2 2 5.6 3 4.9 3.1 5.2 1 4.5-1.3-.3-3.5-1.5-5-2.6-2.7-1.9-2.8-2.3-2.8-10.4 0-7.9.2-8.7 2.6-10.9 3-2.7 5-3.2 5.7-1.3m-28.6 2.5c-.4.3-.7 0-.7-.7s.3-1 .7-.7c.3.4.3 1 0 1.4m6.2 6.3c0 4.1-3.5 7.5-6 5.9-1.1-.8-.9-1.3 1.4-3 2.6-2 3.9-6.9 1.7-6.9-.5 0-1-1-1-2.3 0-2.2 0-2.2 2 .3 1.1 1.4 2 4 1.9 6m30.6-5c2.1 4.1 1.9 10.8-.5 14.7-2.6 4.3-4.4 4.2-6.9-.4-2.3-4.4-1.2-11.1 2.7-15.6 2.1-2.4 2.9-2.2 4.7 1.3m7.9-.8c2.1 2.9 2.1 12 .1 15.9-.9 1.6-2 2.7-2.5 2.4s-1.1-.1-1.5.5c-.7 1.2-4.5 1.4-4.5.2 0-.4.9-1.8 2-3.2 2.4-3.1 2.7-10.8.5-15-1.5-3-1.5-3 1.4-3 2 0 3.5.8 4.5 2.2m-36.9 23.6c-1 1-2.4-1.3-3.3-5.5-.7-2.8-.6-4.5.1-5.2.8-.8 1.5.4 2.4 4.5.7 3.2 1.1 5.9.8 6.2m-4.8-4.6c1 3.7.9 4.5-.8 6.6-2.3 2.9-2.5 8.9-.4 11.8 1.4 2.1 8.8 4.8 11.6 4.3 3.2-.5 4.9 1.3 4.9 5.2 0 5.3 2.8 8.4 6.7 7.4 3.2-.8 4.3-2.1 4.3-5.3 0-1.7.6-2.2 2.5-2.2 2.2 0 2.5.4 2.5 3.9 0 3.7-.1 3.9-5.6 6-9.3 3.5-11.9 3-18.4-3.7-3.5-3.5-7.2-8.9-9.8-14-4.2-8.4-4.2-8.4-3.1-15 1.5-8.8 1.6-9.2 3.2-9.2.7 0 1.8 1.9 2.4 4.2m41.3 3.7c-1.1 2.2-3.5 5.2-5.4 6.6-3.2 2.5-3.6 2.5-6.9 1.2-3.1-1.4-7.7-5.3-7.7-6.6 0-.3 3.1-.5 6.9-.3 6 .3 7.4 0 10.7-2.2 2.2-1.3 4-2.5 4.2-2.5.1-.1-.7 1.7-1.8 3.8m-11-1.4c0 .3-.2.5-.5.5s-.5-.2-.5-.5.2-.5.5-.5.5.2.5.5m30 3.5c-.5 1-.7 2.7-.3 3.7.6 1.6.5 1.6-1.1.4-1.2-1-1.4-1.7-.6-2.5.5-.5 1-1.8 1-2.9 0-1 .5-1.5 1-1.2.7.4.7 1.2 0 2.5m-58 2.5c-.7.8-1.1 3.4-.8 6 .3 4.5-.4 5.9-1.6 2.9-1-2.6-.7-7.9.6-9.2 1.7-1.7 3.3-1.5 1.8.3m9.4.7c1.9 2.7 2 7.7.2 10-1.6 2.2-5.2 2.3-7.2.4-1.7-1.8-1.9-9.7-.2-11.4 1.9-1.9 5.5-1.4 7.2 1m53.6-1.5c0 1.7-1.8 3.5-2.9 2.9-.8-.5-.7-1.1.2-2.1 1.3-1.6 2.7-1.9 2.7-.8m-77.9 12.9c-1.9 2.5-2 2.8-.5 6.2.9 2.1 2.3 5.7 3.2 8.1 1.9 4.9 7.7 12.1 9.7 12.1.8 0 1.7.4 2 1 .3.5-.3 1-1.3 1-3.8 0-8.5-6.3-12.6-17-4-10.3-4-10.3-1.7-12.1 3.2-2.6 3.6-2.4 1.2.7M138 277c1.2 1.1 3.1 2.2 4.2 2.6 1.4.4 1.7.9 1 1.6s-2.3.1-5.1-2.1c-2.3-1.8-4.1-3.5-4.1-3.7 0-1 1.9-.2 4 1.6m2 8.1c0 1.7-.4 2.8-1 2.4-.5-.3-1-1.7-1-3.1 0-1.3.5-2.4 1-2.4.6 0 1 1.4 1 3.1m5-1.7c0 .2-.7.7-1.6 1-.8.3-1.2.2-.9-.4.6-1 2.5-1.4 2.5-.6m-2 4.1c0 .3-.2.5-.5.5s-.5-.2-.5-.5.2-.5.5-.5.5.2.5.5m14.7 13.6c8.6 3.6 12.1 5.5 18.6 10.3 9.5 7 20.2 18.6 17.2 18.6-.3 0-3.8-3.4-7.8-7.5-4.1-4.1-8-7.5-8.8-7.5-.7 0 1.7 3 5.5 6.6 3.7 3.6 6.5 6.8 6.2 7.1-.3.4-4.3-3-8.9-7.4-4.5-4.4-9.2-8.5-10.4-9.2-1.4-.7-2-1.7-1.7-2.6.5-1.1-1-2.3-5.2-4.3-5.3-2.4-7-2.7-16.9-2.7-6 0-12.8.4-15 .8-5.1 1.1-3.7-.4 1.8-2 5.5-1.5 21.9-1.6 25.4-.2"/><path d="M185.2 232c-1.6 2.6-1.5 3.5.3 5.4 3.1 3 6.7-1.3 4.5-5.4-1.4-2.5-3.2-2.6-4.8 0m2.8 1.9c0 .6-.4 1.3-1 1.6-.5.3-1-.1-1-.9 0-.9.5-1.6 1-1.6.6 0 1 .4 1 .9M126.5 266.4c-1.7 2.6-1.2 5.1 1.2 6 3.4 1.3 5.9-4.4 3.1-7.2-1.7-1.7-2.6-1.5-4.3 1.2m3.2 2.8c-.3.8-.6.5-.6-.6-.1-1.1.2-1.7.5-1.3.3.3.4 1.2.1 1.9M393.8 196.7c-.3 2.6-.7 2.8-5.3 3.1-7.1.5-8.2 2.2-1.4 2.2 6.1 0 8.9-1.8 8.9-5.8 0-3.2-1.8-2.7-2.2.5M299.4 210.5c-.3 1.4-.4 3.2 0 4 .6 1.7 4.6 2.1 4.6.5 0-.6-.4-1-1-1-.5 0-.7-1.3-.3-3 .4-2.3.2-3-1.1-3-.8 0-1.8 1.1-2.2 2.5M317 211c0 .5 1.8 1 3.9 1 2.2 0 4.3-.5 4.6-1 .4-.6-1.2-1-3.9-1-2.5 0-4.6.4-4.6 1M314.7 218.7c-.4.6-.3 2.2.3 3.5.5 1.3 1.6 5.2 2.4 8.7.8 3.4 1.7 6.6 2 6.9 1.5 1.4 1.4-.9-.4-7.3-3.2-11.8-3.6-13-4.3-11.8M86.9 224.3c-7.8 5.1-10.8 19.3-6.1 28.4 3.1 6 8.5 9.8 13.8 9.8 2.4 0 4.9-.6 5.5-1.2 1.8-1.8.4-2.7-2.1-1.3-5.1 2.7-13.3-2.1-16.5-9.6-3.4-8.1-.6-20.1 5.7-24.5 2.9-2.1 8.5-2.3 13.3-.5 1.7.7 1.7.5-.4-1.3-3.1-2.8-8.8-2.7-13.2.2M331.5 229.7c.7 4 1.2 4.9 2 4.2.8-.9-.7-7.9-1.7-7.9-.6 0-.7 1.5-.3 3.7M291.2 237.2c-1.7 1.7-1.5 5.3.3 6.8 1.3 1.1 1.8 1.1 2.8 0 .8-.8.9-1.4.1-1.6-.6-.3-.8-1.8-.6-3.4.4-3.1-.6-3.8-2.6-1.8M309.2 238.1c-1.1 1.7-1.1 2.5.2 4.5 1 1.4 2.2 2.1 3.1 1.8 1.7-.7 2-2.1.4-2.6-.7-.2-.7-1.2 0-3.1.9-2.3.8-2.7-.7-2.7-.9 0-2.3.9-3 2.1M316 240c0 .5 2.5 1 5.5 1s5.5-.5 5.5-1c0-.6-2.5-1-5.5-1s-5.5.4-5.5 1M346 241c0 .5 2.5 1 5.5 1s5.5-.5 5.5-1c0-.6-2.5-1-5.5-1s-5.5.4-5.5 1M361.5 241c-.4.6 1.4 1 5.1 1 6.7 0 6.8-.5.2-1.4-2.9-.4-4.9-.3-5.3.4M276.6 242.6c-4 4-3 11.7 1.7 12.2 2.6.3 3.3-.8 2.8-4.1 0-.4.4-.7 1-.7.5 0 .7-.5.4-1-.3-.6.1-1.3.9-1.6 2.1-.8 2-2-.4-4.4s-4.3-2.5-6.4-.4m5.4 2.4c0 .5-.4 1-1 1-.5 0-1-.5-1-1 0-.6.5-1 1-1 .6 0 1 .4 1 1m-3.3.7c-.4.3-1 .3-1.4 0-.3-.4 0-.7.7-.7s1 .3.7.7M376.5 242c.3.5 2.8 1 5.6 1 2.7 0 4.9-.5 4.9-1 0-.6-2.5-1-5.6-1-3.4 0-5.3.4-4.9 1M406 243c0 .6 2.7 1 6.1 1 3.7 0 5.8-.4 5.4-1-.3-.6-3.1-1-6.1-1s-5.4.4-5.4 1M421.5 243c-.3.5-.3 1 .2 1 .4.1 2.9.3 5.6.5 5.6.5 6.4-1 1-1.9-5.2-.8-6.1-.8-6.8.4M317.8 244.6c-2.3 1.2-2.6 1.9-2.2 4.3.5 2.4.2 3-2.9 4.4-1.9 1-4.5 1.7-5.7 1.7s-4.1 1.1-6.5 2.5c-4.2 2.5-6.2 5.9-8.2 14.2-.4 1.9-1.2 2.3-4.4 2.3-2.2 0-3.9.4-3.9 1 0 .5 2.3 1 5 1 4.4 0 5-.2 5-2.1 0-1.2.9-4.8 2.1-7.9 2.2-6.1 4.6-8 11.9-9.4 1.9-.4 5-1.5 6.8-2.4 2.9-1.5 3.3-2.1 2.8-4.5-.5-2.2-.1-3 1.9-3.9 1.4-.6 2.5-1.5 2.5-2 0-1.1-1.1-1-4.2.8M438 244c0 .5 2.1 1 4.6 1 2.7 0 4.3-.4 3.9-1-.3-.6-2.4-1-4.6-1-2.1 0-3.9.4-3.9 1M244 245.4c0 1.2 1.1 1.6 4.1 1.6 5.2 0 4.8-2.4-.4-2.8-2.8-.2-3.7.1-3.7 1.2M257.5 245c-.4.6 1.2 1 4 1s4.4-.4 4-1c-.3-.6-2.1-1-4-1s-3.7.4-4 1M269.8 249.5c.2 1.9.8 3.8 1.3 4.1 1 .6 1.2-3.6.3-6-1.1-2.8-2-1.7-1.6 1.9M396.6 256.1c-.4 5.7-1.1 12.1-1.5 14.2-.9 3.6.3 5.3 1.3 1.9 1.2-4 2.6-23.3 1.8-24.8-.6-1.1-1.1 1.8-1.6 8.7M207.7 250.4c-6.9 6.8-9.8 17.3-7.8 28.1 1.1 6.2 7.4 20.1 11 24.5 3.2 3.9 2.4.6-1.2-5.2-7-11-8-14.4-8.1-25.3 0-11.2 1.3-14.6 8.2-21.8 4.5-4.6 2.5-5-2.1-.3M413.1 261.1c-.7 7.7-1.1 14.3-.8 14.6.9.8 1.5-3 2.7-15.1 1.2-13.2 1.2-13.6.2-13.6-.4 0-1.4 6.3-2.1 14.1M262 254.9c-1.4 2.7-1.3 4.6.5 6.1 1.3 1.1 1.8 1.1 2.8 0 .9-1 .9-1.3 0-1.7-.9-.3-.9-1.2-.2-2.9 1.2-3.3 1.2-3.4-.6-3.4-.8 0-1.9.9-2.5 1.9M272.3 261.4c.4 2.2 1.1 4.4 1.7 5 .9.8 1 0 .5-2.9-1-5.4-3-7.3-2.2-2.1M249 271.5c-1 1.2-1 2.1-.2 4 1.2 2.5 3.6 3.3 4.7 1.5.3-.6.2-1-.4-1s-.8-1.2-.4-3c.6-3.4-1.5-4.2-3.7-1.5M174.1 273c0 .8 1.7 3.5 3.9 6s3.9 3.8 3.9 3-1.7-3.5-3.9-6-3.9-3.8-3.9-3M254 274c0 .5 2.3 1 5 1 2.8 0 5-.5 5-1 0-.6-2.2-1-5-1-2.7 0-5 .4-5 1M163.3 277.4c-5.2 3.1-5.2 3.1-5.3 9.8 0 3.9.4 6.8 1 6.8s1-1.2 1-2.8c0-2.3.9-3.2 6.6-6.2 3.6-1.9 7.7-3.3 9-3.2s2.4-.3 2.4-.8c0-.6-.6-1-1.4-1s-2.3-1.4-3.3-3c-2.1-3.7-3.4-3.6-10 .4m8.2 1.1c0 1.2-1.8 2.9-5 4.6-6 3.4-6.5 3.5-6.5.9 0-1.3 1.7-3 4.8-5 5.1-3.2 6.7-3.3 6.7-.5M298.5 275c-.4.6 1.7 1 5.5 1s5.9-.4 5.5-1c-.3-.6-2.8-1-5.5-1s-5.2.4-5.5 1M313.5 275c-.7 1.2-1.2 1.1 5.3 1.6 3.6.2 5.2 0 5-.7-.5-1.4-9.5-2.2-10.3-.9M328.5 276c.3.5 3.1 1 6.1 1 3.4 0 5.3-.4 4.9-1-.3-.6-3.1-1-6.1-1-3.4 0-5.3.4-4.9 1M344.1 276.4c1.2 1 9.9 1.6 9.9.7 0-.7-2.2-1.1-5.2-1.1-2.8 0-4.9.2-4.7.4M358 277c0 .5 2.5 1 5.5 1s5.5-.5 5.5-1c0-.6-2.5-1-5.5-1s-5.5.4-5.5 1M373 277c0 .5 2.5 1 5.6 1 3.4 0 5.3-.4 4.9-1-.3-.6-2.8-1-5.6-1-2.7 0-4.9.4-4.9 1M391.5 278.1c5.5 1.1 7.5 1.1 7.5-.1 0-.6-2.5-.9-5.7-.9-5.7.1-5.8.1-1.8 1M404 278c0 .5 2.5 1 5.6 1 3.4 0 5.3-.4 4.9-1-.3-.6-2.8-1-5.6-1-2.7 0-4.9.4-4.9 1M122.5 295.3c-2.2 1.1-3.5 2.2-2.8 2.4 1.5.5 8.9-3.2 7.7-4-.5-.3-2.7.4-4.9 1.6M189.2 304c-1 1.7-.9 2.3.8 4 1.1 1.1 2.4 2 2.9 2 1.7 0 2.3-2 1.2-3.4-.6-.7-.9-2.1-.5-3 .9-2.4-2.8-2.1-4.4.4M314.4 308.4c-.5 1.3-.2 2.3 1.2 3.3 2.2 1.6 5.6 1.4 6.2-.5.3-.9-.3-1.1-2.2-.6-2.1.5-2.8.2-3.5-1.7-.8-2.2-1-2.3-1.7-.5M337.5 323.5c-12 7.2-12.1 7.3-11.3 8 .6.7 22.2-12.2 22.6-13.5.6-1.6.2-1.4-11.3 5.5M175 327.5c-1.8 1.9-3.1 3.8-2.7 4.1.7.7 6.7-5.5 6.7-6.9 0-1.2-.4-.9-4 2.8M167.7 335.7c-1 1-.8 9.3.2 9.3.5 0 1.1-2.3 1.3-5 .3-4.8-.1-5.8-1.5-4.3M326.6 342c1.4 7.8.9 11.8-1.5 14.4-1.4 1.5-2 2.6-1.3 2.6 1.7 0 5.1-4.9 5.7-8.4.4-2.1-.1-4.6-1.4-7.6-2.1-4.4-2.1-4.4-1.5-1M167 354.4c0 3.1.5 5.6 1 5.6.6 0 1-2.2 1-4.9 0-2.8-.4-5.3-1-5.6-.6-.4-1 1.5-1 4.9M167 369.6c0 3.4.4 5.3 1 4.9.6-.3 1-2.8 1-5.6 0-2.7-.4-4.9-1-4.9-.5 0-1 2.5-1 5.6M100.5 379l-20 .5-.1 5.5c0 3 .1 7.9.4 10.7l.5 5.3h38.2c29.4 0 38.5-.3 39.3-1.3.9-1.1.7-17.7-.3-20.5-.5-1.3-12-1.3-58-.2m57.5 10.5v9.5H82v-8.8c0-4.9.3-9.2.7-9.5.3-.4 17.4-.7 38-.7H158z"/><path d="M87.7 384.7c-.4.3-.7 1.3-.7 2 0 1.2.3 1.1 1.6-.1.8-.9 2-1.4 2.5-1.1 1.3.9 1.1 3.3-.3 3.8-.9.3-.7.9.6 1.9 2 1.6 1.5 3.8-.9 3.8-.8 0-1.8-.7-2.3-1.6s-1.2-1.2-1.5-.7c-1 1.6 1 3.5 3.8 3.5 1.5 0 3.1-.5 3.5-1.2.7-1.2.4-6.6-.6-9.8-.4-1.3-4.6-1.7-5.7-.5M97 385.5c-.7.8-1 1.9-.6 2.3s1.2-.1 1.7-1.1c1.5-2.6 3.9-2.1 3.9.8 0 1.4-.4 2.5-1 2.5-1.3 0-5 3.7-5 5 0 .5 1.8 1 4 1s4-.5 4-1c0-.6-1.5-1-3.2-1h-3.3l3.3-2c2.7-1.6 3.3-2.6 3-4.8-.2-2.1-.9-2.8-2.9-3-1.4-.2-3.1.4-3.9 1.3M113.1 385.4c-1.7 2.1-1 8.7 1.2 10 3.7 2.4 6.8-2.9 5.3-9-.7-2.8-4.6-3.3-6.5-1m4.4 4.7c0 3.2-.4 4.4-1.5 4.4-1.6 0-2.6-5.4-1.6-8.2 1.2-3 3.1-.6 3.1 3.8M124.3 387.5c-2.8 4.3-2.9 5.5-.3 5.5 1 0 2.3.7 2.8 1.7.9 1.5 1.1 1.4 2.1-.5.7-1.4.8-2.3.1-2.7-.5-.3-1-2.2-1-4.1 0-4.3-.9-4.3-3.7.1m2.7 1.9c0 .8-.4 1.7-.9 2.1-1.2.7-2.4-1.2-1.6-2.5.9-1.5 2.5-1.2 2.5.4M132.7 384.7c-.4.3-.7 1.9-.7 3.4 0 2.8 2.8 4.7 5 3.4.5-.3 1 .1 1 1.1 0 1.3-.6 1.5-3.1 1-2.2-.4-2.9-.2-2.7.7.7 2 5 2.1 6.5.1 1.6-2.2 1.7-7.6.1-9.2-1.3-1.3-5-1.6-6.1-.5m5.1 3.1c.3 1.6-.2 2.2-1.7 2.2-2.4 0-3.3-1.3-2.5-3.5.9-2.3 3.8-1.4 4.2 1.3M106.5 391c-.3.5.3 1 1.5 1s1.8-.5 1.5-1c-.3-.6-1-1-1.5-1s-1.2.4-1.5 1M167 384.6c0 3.4.4 5.3 1 4.9.6-.3 1-2.8 1-5.6 0-2.7-.4-4.9-1-4.9-.5 0-1 2.5-1 5.6M167 399c0 2.7.5 5 1 5 .6 0 1-2.3 1-5 0-2.8-.4-5-1-5-.5 0-1 2.2-1 5M167 413.5c0 3 .5 5.5 1 5.5.6 0 1-2.5 1-5.5s-.4-5.5-1-5.5c-.5 0-1 2.5-1 5.5M167 428.5c0 3.5.4 5.4 1 5 .6-.3 1-2.6 1-5s-.4-4.7-1-5c-.6-.4-1 1.5-1 5M167 443c0 2.7.5 5 1 5 .6 0 1-2.3 1-5 0-2.8-.4-5-1-5-.5 0-1 2.2-1 5M167 457c0 2.7.5 5 1 5 .6 0 1-2.3 1-5 0-2.8-.4-5-1-5-.5 0-1 2.2-1 5M83.4 88.7c-11 6.3-17.6 10.6-18 11.8-.5 1.3 2.2 6.3 13.3 24.2 4.4 7.2 4.4 7.3 6.9 5.7 1.5-1 2.4-2.6 2.4-4.1 0-3.1-.3-3.3 16 6.2 7.3 4.1 13.7 7.5 14.4 7.5 2.8 0 3.6-2.6 3.6-11.6v-9.3l-9.2-5.4c-13.5-8-17.9-10.5-21.5-12.4-3.2-1.6-3.3-1.9-3.3-8 0-3.5-.3-6.3-.8-6.3-.4 0-2.1.8-3.8 1.7m.6 8c.1 4.8.1 4.8 17 14.8l17 10v8.2c0 4.6-.4 8.3-.8 8.3s-5-2.6-10.2-5.8c-9.8-5.9-21.3-12.2-22.4-12.2-.3 0-.6 1.8-.6 4s-.4 4-.8 4-1.8-1.9-3-4.3c-1.2-2.3-3.3-6-4.7-8.2s-2.8-4.7-3.2-5.5c-.3-.8-1.5-2.7-2.5-4.2-1-1.4-1.8-3.2-1.8-4 0-1.4 12.4-9.6 14.8-9.7.8-.1 1.2 1.5 1.2 4.6"/><path d="M84.6 104.7c-.3.4-.6 3.5-.6 7 0 4.9.3 6.3 1.5 6.3.8 0 1.5-.9 1.5-2 0-2.3 1-2.6 2.8-.8.6.6 1.5.8 1.9.4.5-.4-.4-1.8-1.9-3-3.8-3-3.7-4.8.2-3.3 2.5 1 3.1 1.9 4 6.7 1.6 7.7 2 9 3.1 9 .5 0 .9-.9.9-1.9 0-1.1.5-2.3 1-2.6.6-.4 1 .6 1 2.2 0 3.3 1.4 5.8 2.8 5 .5-.4 1.2-2.4 1.6-4.6.3-2.2.9-4.6 1.2-5.5.4-1.1.1-1.6-1-1.6-.9 0-1.6.7-1.6 1.6 0 2.5-1.7.7-2.3-2.6-.8-3.7-2.2-3.9-3.5-.3-1 2.8-1 2.8-1.1-.4-.1-2.4-.8-3.7-2.8-5-1.6-1-3-2-3.3-2.3-1.3-1.3-4.8-2.8-5.4-2.3M107 124.5c0 6.2.1 6.5 3.1 8 3.8 2 5.9.7 5.9-3.7 0-3.6-1.5-6.7-4.4-9-3.8-3.1-4.6-2.3-4.6 4.7m6.8 3.4c-.2 1.5-.9 2.6-1.8 2.6-1.7 0-3.5-5.7-2.6-8.2.7-1.6.9-1.6 2.7.6 1.1 1.4 1.9 3.6 1.7 5M577.2 199.9c-2 1.2-1.1 4.4 1.6 5.7s1.4 2.8-1.5 1.8c-1.7-.7-1.7-.6-.1 1.1 1.7 1.8 1.8 1.8 3.8 0 4.4-4 1-11.7-3.8-8.6m3.6 2.4c.2 1-.3 1.7-1.2 1.7-1 0-1.6-.9-1.6-2.1 0-2.4 2.3-2.1 2.8.4M585.2 199.9c-2.2 1.3-1.1 5.6 1.6 5.9 1.2.2 2.2.8 2.2 1.4s-1.1.8-2.7.3c-2.6-.6-2.7-.5-1.2 1 2 2 4.5 1.1 5.3-2 .5-2.1.8-2.2 3.1-1.2 3 1.5 3.3 3.1.4 2.2-1.6-.5-2-.3-1.7.6.3.8 1.5 1.4 2.8 1.4 3.9 0 5.2-8.5 1.5-9.9-2.2-.8-4.5.4-4.5 2.2 0 1.3-.4 1.1-1.6-.6-1.6-2.3-3.1-2.7-5.2-1.3m3.6 2.8c-.4 2.2-2.2 2-2.6-.1-.2-1 .3-1.6 1.3-1.6s1.5.7 1.3 1.7m7.7.3c0 .7-.6 1.5-1.2 1.7-.8.3-1.3-.4-1.3-1.7s.5-2 1.3-1.8c.6.3 1.2 1.1 1.2 1.8M602 202.4c-2.4 2.6-2.2 5.6.5 5.6.8 0 1.5.6 1.5 1.2.1.8.5.7 1.3-.4 1.3-1.7 1.1-8.8-.2-8.8-.4 0-1.8 1.1-3.1 2.4m2 2.6c0 .5-.4 1-1 1-.5 0-1-.5-1-1 0-.6.5-1 1-1 .6 0 1 .4 1 1M608.7 200.7c-.2.5-.3 2.6-.3 4.8.1 3.4.4 4 2.5 4.3 2.9.5 3.9-1 3.5-5.2-.1-1.7-.3-3.4-.3-3.9-.1-.4-1.2-.7-2.5-.7-1.4 0-2.7.3-2.9.7m3.4 2.6c-1.3 1.3-2.6.3-1.6-1.2.3-.6 1.1-.8 1.7-.5.6.4.6 1-.1 1.7m.7 3.5c.2.7-.3 1.2-1.2 1.2s-1.6-.7-1.6-1.6c0-1.7 2.2-1.4 2.8.4M623 201.5c-.9 1-.9 1.5-.1 1.5.6 0 1.1 1.6 1.1 3.6 0 2.1.4 3.3 1 2.9 1.2-.8 1.3-8.2.1-8.9-.5-.3-1.4.1-2.1.9M629.6 201.6c-.4.9-.4 1.9-.1 2.2s.5 0 .5-.6c0-.7.9-1.2 2-1.2 2.7 0 2.5 1.6-.5 3.6-3.4 2.2-3.2 4.1.5 4.6 1.9.3 2.9.1 2.7-.6-.2-.6-1.3-.9-2.3-.8-1.6.3-1.4-.2 1-2.7s2.7-3.3 1.6-4.6c-1.6-2-4.6-1.9-5.4.1M638.3 201.2c-2.1 2.7-2.3 5.1-.8 7.4 1.9 2.9 3 3 5.2.4 1.7-1.9 1.7-1.9 3 0 1.8 2.5 3.9 2.5 5.3.1 1.5-2.9 1.2-4.6-1-7.2-2-2.4-2-2.4-4-.1-1.9 2.3-1.9 2.3-3.2.3-1.5-2.4-3.1-2.7-4.5-.9m3.5 4c-.3 3.6-3 4.6-3.6 1.5-.5-2.6.5-4.7 2.3-4.7 1.2 0 1.5.8 1.3 3.2m8.2.4c0 2.8-.3 3.5-1.7 3.2-3.1-.6-2.9-6.8.2-6.8 1.1 0 1.5 1 1.5 3.6"/><path d="M541.3 205.2c-1 1.3-1.7 3.7-7.3 25.5-3.3 13-3.4 13.3-6.3 13.3-4.7.1-7.9 4.8-7.9 11.7 0 3.5.6 5.1 2.4 6.9 4.8 4.7 17 2.6 19.7-3.3 2.1-4.7 1.3-8.2-2.6-11.8-2.1-1.9-4.4-3.5-5.1-3.5-.8 0-1-.9-.6-2.8.7-2.9 4.4-17.3 7.3-28.2l1.7-6.5 15.7-.3c21.1-.3 20.9-2.2-.2-2.2-11.5 0-16.1.3-16.8 1.2M527 246.5c0 .3-.2.5-.5.5s-.5-.2-.5-.5.2-.5.5-.5.5.2.5.5m4.3 1.5c-2 1.2-3.4 2.9-3.5 4.2-.2 3.9.3 7.3 1.3 8.2 1.9 2 .8 2.8-1.2 1-4.2-3.8-.8-15.4 4.5-15.4 1.7 0 1.5.3-1.1 2m-6 2.2c-.4 1.3-.8 4-.7 6 0 4.3-2 5.2-3 1.3-.6-2.3 0-6.8 1.1-8.8.2-.4 1.1-.7 1.9-.7 1.2 0 1.3.6.7 2.2m13.9-.5c2.5 3 2.9 5.3 1.3 8.4-.9 1.6-1.7 2.9-1.9 2.9-.3 0-1.1.3-1.9.6-1 .3-2-.3-2.8-1.8-1.1-2.1-1.1-2.2.4-.9 2.6 2.1 4.5.8 3.9-2.9-.3-2.1 0-3.5.9-4.1 1.1-.6 1-.9-.5-1.5-2.5-.9-5 .7-5.6 3.7-.5 2.5-4 4-4 1.7 0-3.4 1.4-5.8 3.9-6.7 3.8-1.4 4.6-1.3 6.3.6m-3.6 6c-1.1 1.1-1.7-.4-.9-2.3.7-1.8.8-1.8 1.1-.1.2 1 .1 2.1-.2 2.4m-3.6 4.4c0 .6-.4.7-1 .4-.5-.3-1-1.1-1-1.6 0-.6.5-.7 1-.4.6.3 1 1.1 1 1.6m-6.3 2.6c-.4.3-1 .3-1.4 0-.3-.4 0-.7.7-.7s1 .3.7.7m8.3.8c0 .3-.2.5-.5.5s-.5-.2-.5-.5.2-.5.5-.5.5.2.5.5M616 206c0 .5.6 1 1.4 1s1.8-.5 2.1-1c.3-.6-.3-1-1.4-1-1.2 0-2.1.4-2.1 1M590.1 316.4c-.8.9-1.1 5-.9 11.2l.3 9.9 39.3.3 39.2.2v-11c0-9.8-.2-11-1.7-11.1-1-.1-18.3-.3-38.5-.5-29.9-.3-36.8-.1-37.7 1m56.6 1.6H667l-.1 6.7c-.1 12.6 4.4 11.3-38.5 11.3H591v-8.9c0-5.1.4-9.1 1-9.3s8.6-.2 17.8-.1 25.8.2 36.9.3"/><path d="M596.5 321.6c-1.9 2-1.2 3.2.9 1.5.8-.7 2-1 2.6-.6 1.6 1 1.2 3.3-.7 3.8-1.5.4-1.5.6.5 1.2 1.2.4 2.2 1.4 2.2 2.1 0 2.3-2.9 2.8-5 .9-1.8-1.7-2-1.7-2-.1 0 .9 1.2 2.2 2.6 2.8 2.3 1.1 2.9 1 4.5-1.1 1-1.3 1.6-2.8 1.2-3.4s-.6-2.4-.5-3.9c.2-1.8-.4-3.1-1.7-3.8-2.5-1.3-2.7-1.3-4.6.6M606.6 321.6c-2.3 2.2-2 4 .3 2 2-1.8 4.1-1.4 4.1.6 0 .7-1.4 2.3-3.2 3.8-4.1 3.4-3.4 6.3 1.4 5.8 1.8-.2 3.1-.8 2.9-1.3-.2-.6-1.2-.9-2.2-.7-3.1.5-3.1-1.7.1-3.3 3.5-1.8 4.1-5.8 1.1-7.5-2.5-1.3-2.7-1.3-4.5.6M623 321c-.8.5-1.5 1.9-1.6 3.2s-.5 3.1-.9 4.1c-.8 1.9 1.9 5.7 4.1 5.7 2.9 0 4.4-3 3.7-7.8-.7-5.7-2.2-7.2-5.3-5.2m3 3.1c0 2.4-2.3 2.1-2.8-.4-.2-1 .3-1.7 1.2-1.7 1 0 1.6.9 1.6 2.1m.8 5.6c-.2 1-1.2 1.8-2.3 1.8s-2.1-.8-2.3-1.8c-.3-1.3.3-1.7 2.3-1.7s2.6.4 2.3 1.7M632 322c-2.5 2.5-2.6 7.1-.1 10.1 1.6 1.9 2.3 2.2 3.7 1.3 4-2.4 4.2-10.4.4-12.4-1.5-.8-2.4-.6-4 1m4.6 2.5c.8 3.3-.3 7.5-2 7.5-2.6 0-3.6-6.6-1.4-8.8 1.8-1.8 2.7-1.5 3.4 1.3"/><path d="M642 322c-2.4 2.4-2.6 6.7-.4 9.8q3 4.35 6-.3c2-3.1 1.1-9-1.6-10.5-1.5-.8-2.4-.6-4 1m3.8 1.2c1.4 1.4 1.6 5.7.3 7.7-1.7 2.6-4.1.4-4.1-3.7 0-5.1 1.3-6.5 3.8-4M615 328c0 .5.9 1 2.1 1 1.1 0 1.7-.5 1.4-1-.3-.6-1.3-1-2.1-1s-1.4.4-1.4 1M627 353.5V366h-95.9c-96 0-96 0-96.6 2.2-.4 1.1-.5 26.4-.1 56.2.3 29.8.9 96.2 1.2 147.6s.7 93.6.9 93.8c.4.4 199.9.1 212.5-.3 5.8-.2 43.6-.5 84-.7 40.4-.1 77.9-.4 83.3-.6l9.8-.3-.3-140.2c-.1-77.1-.4-144.5-.7-149.7l-.6-9.5-37.5.1c-20.6 0-64.3.4-97.1.8-54.5.6-59.7.5-60.3-.9-.3-.9-.6-6.6-.6-12.6 0-6.6-.4-10.9-1-10.9s-1 4.8-1 12.5m195.9 14c.3.4.8 66.8.9 147.6l.4 146.9-28.9.1c-15.8.1-31.9.2-35.8.4-3.8.1-77.8.6-164.2 1l-157.3.7-.2-66.8c-.1-36.8-.2-69.2-.3-71.9-.1-4.2-.6-150.6-.5-155.7 0-1.6 4.8-1.7 75.3-1.8 85.4 0 289-1.1 289.6-1.6s20.3.5 21 1.1"/><path d="M734 387.5c-30.8 4.3-61 17.4-76.6 33.2-6.3 6.3-6.9 8.9-6.9 28.2 0 19.2-.4 18 7 20 3.1.8 4.6 2 6.7 5.3 5.7 9.1 7.5 18.8 3.8 20.8-2.2 1.2-2.6 3-.8 4.8.8.8 2 .7 4.6-.3 6.3-2.7 24.5-1.5 29 1.8.6.5 1.2 1.7 1.2 2.6 0 1.7 3.8 4.6 4.8 3.7.3-.4-.3-1.3-1.4-2-1-.8-1.6-1.7-1.3-2 1.1-1.1 11.7 7 19.7 15.2 8.3 8.5 8.3 8.5 15 7.8 10.5-1.1 26.5-9.3 36-18.5 4.3-4.2 4.3-4.2 3.5-13.4-1.1-12.8-.8-29.5.6-34.2 4.9-15.8 9.6-23.3 20.3-31.8 5.7-4.7 7-7.9 5.8-15.1-2-12.1-5.8-21-10.3-23.8-5.7-3.6-41.7-5-60.7-2.3m50.6 1.6c4.4.6 8.7 1.7 9.5 2.3 4.5 3.4 8.6 13.8 9.6 24.3.6 6 .5 6.2-2.8 9.3-15.9 14.8-19.1 19.5-23 33.5-1.7 6.4-2.2 10.6-2.2 20.5.1 6.9.6 14.4 1.2 16.7 1.9 7-.3 10.3-11.9 18.2-10.2 6.8-21 11.1-28.3 11.1-4 0-4.8-.6-14.3-9.8-14.3-13.9-25-19.2-39-19.2h-7.1l-.6-5.3c-1.1-11-7-23.1-13-26.7-3.3-2.1-9.3-2.8-8.2-1 .3.5 1.9 1 3.5 1 4.4 0 9.4 5.7 12.9 15 3.9 10.1 4.2 17.6.9 18.9-1.3.5-2.6.7-3 .4-1.4-.8-.8-2.1 1.2-2.6 1.6-.4 2-1.4 2-4.6 0-2.2-.5-5.3-1.1-6.8-5-12.2-7.4-15.3-13.5-17.3l-4.9-1.7-.3-16.1c-.2-14.6-.1-16.5 1.8-20.6 3.7-7.6 15.2-16.8 31.8-25.1 7.6-3.8 12-5.5 27.7-10.5 2.5-.8 9.9-2.1 24.5-4.3 5.8-.9 39.2-.6 46.6.4"/><path d="M777.5 393.1c-19.5 2.3-25.8 3.2-34.7 5-5.3 1.1-11.6 2.8-14 3.9-5.2 2.5-3 2.2 10.7-1.3 8.2-2.1 41.9-6.7 48.8-6.7.9 0 1.7-.5 1.7-1 0-1.1-2.4-1.1-12.5.1M752 410.9c-3.6 1.1-9.9 2.9-14 4.1-18.3 5.3-42.1 19.7-46.1 27.7-2.8 5.7-3 15.5-.5 21.1 1.7 3.8 3.5 5.1 20.2 15.2 10.1 6 18.8 11 19.3 11s1.1.5 1.3 1.1c.2.5 2.2 1.3 4.5 1.6 3.4.4 5.3 0 9.5-2.2C759 483.9 763 480 764.3 473c.4-1.9 1.1-5.3 1.6-7.5.6-2.2 1.5-6 2-8.5.6-2.5 2-8.3 3.2-13 4.2-17 3.6-24.3-2.5-30.8-4-4.2-8.1-4.7-16.6-2.3m14.4 2.2c1.4 1.1 3.3 3.4 4.1 4.9 2 3.8 1.9 14.3 0 21.7-.9 3.2-2.4 9.6-3.5 14.3-3.7 16.6-5.4 22.5-7.1 25-2.3 3.4-15.5 11.1-20.1 11.7-2.6.4-4.6 0-7-1.5-1.8-1.1-4.9-2.8-6.8-3.9-12.4-6.6-30.4-18-31.9-20.2-2.7-3.7-3.5-10.8-2.1-17.5 1-4.9 1.8-6.1 6.5-10.2 9.8-8.3 23.1-15.4 38.5-20.3 21.9-7 25.1-7.4 29.4-4"/><path d="M742.2 469.2c-3.8 2.6-4.3 3.4-3.7 5.7 1.2 5.1 2.6 5.4 8.3 1.8 4.5-2.8 5.1-3.5 4.6-5.7-.7-3-2.2-5-3.8-5-.6.1-3 1.5-5.4 3.2m7.2.5c.8 2-4.9 7.4-7.4 7-3.2-.5-2.2-4.2 1.7-6.5 4.6-2.6 4.9-2.7 5.7-.5M702.5 413.9c-11.6 5.7-22.2 18.3-32 38.1-1.5 3-3.4 6.3-4.3 7.3-.8.9-1.2 2-.8 2.5 1 1 3-1.9 8.2-11.8 6.2-11.9 12.6-21.5 16.8-25.4 6.2-5.6 10.7-8.7 14.9-10.5 2.6-1.1 4.7-2.3 4.7-2.6 0-1-1.6-.5-7.5 2.4M685.3 491.7c-5.9 2-5.4 3.6.5 1.8 10.9-3.4 24.3-.2 35.7 8.5 3.1 2.4 12.9 12.2 15.3 15.4 2.4 3.1 4.3 3 2.1-.2-2.8-3.9-9.5-10.8-14.4-14.8-13.4-10.9-27.5-14.7-39.2-10.7"/><path d="M688.5 389c-1.1.5-3.3.9-4.8.9-3.1.1-19 3.7-22.2 5.1-10.4 4.3-13.7 5.2-17.2 4.4-2.1-.4-5.9-.6-8.5-.5-4 .2-6-.4-13.2-4.3-5.8-3.1-9.7-4.6-12.2-4.6-3.7 0-12.4 3.5-12.4 4.9 0 .4-1.8 1.7-4 3-2.2 1.2-4.5 3-5.2 4-1.6 2.3-6.4 5-14.3 8.1-3.3 1.3-7.1 3.1-8.5 4-1.4 1-4.2 2-6.4 2.4-2.6.5-5.4 2.2-8.7 5.3-4.6 4.3-4.9 4.9-4.9 9.7 0 2.8.9 7.6 2.1 10.6 1.1 3 2.5 6.8 3.1 8.5.6 1.6 1.5 3.4 1.9 3.9.5.6.9 1.7.9 2.5 0 .9 1.3 3.1 2.9 5 2.4 2.8 3 4.4 2.9 8-.1 2.6.7 6.3 1.8 8.6 3.5 7.3 11.3 8 26.1 2.4 6.2-2.4 6.2-2.4 11.7.3 4.3 2.2 5.5 3.3 6.1 5.7.4 1.7 1.1 3.1 1.7 3.1s.8-.9.5-2-.1-2 .4-2c1.7 0 5.9 3.2 5.9 4.4 0 .6 1.4 2.8 3.1 4.9 3.8 4.6 7.7 4.9 13.2 1.1 3.4-2.3 4.6-2.5 11-2.2 4 .2 8 .8 9 1.2 1 .5 1.7.4 1.7-.2 0-1.7-6.9-3.2-15.5-3.3-11.1-.1-5.8-1.7 6.3-1.8 5.4-.1 9.2-.5 9.2-1.1 0-1.4-11-1.6-19.1-.4-3.6.5-3.6.5-4.7-6-1-6.1-4.5-14.7-7.5-18.7-1.6-2.2-7.8-5.9-9.7-5.9-1.3 0-1.5-1.2-1.3-6.8.8-16.8 3.6-24.3 11.7-32 6.1-5.8 22.1-16.7 25.6-17.4 1.4-.3 5.2-1.6 8.5-2.8 16.9-6.3 32.1-9 49.9-9 7.7 0 12.6-.4 12.6-1 0-1.2-26.6-1.2-29.5 0m-82 4c-.3.5-1.3 1-2.1 1s-1.2-.5-.9-1c.3-.6 1.3-1 2.1-1s1.2.4.9 1m14.5 2.6c3.9 2 6.9 4.2 6.7 4.7-.9 2.8-3.4 2.9-9 .3-3.2-1.4-6.1-2.6-6.5-2.6s-1.8-.7-3-1.6c-1.8-1.3-2.1-1.9-1.1-3 1.9-2.3 5.4-1.6 12.9 2.2m-20.9 2.8c-.6 1.4-.8 3.2-.5 4 .8 2 6.3 2.6 8 .9 2.1-2.2 1.7-3.9-.5-1.9-1.8 1.7-2 1.6-2.6-.4-1.3-4.2.9-4.2 10.3-.3 8.4 3.6 9.1 4 10.2 7.6 1.1 3.8 1.1 3.8-4.9 9.7-3.4 3.3-6.1 6.4-6.1 7 0 .5-.9 1-1.9 1-1.1 0-3.3.8-5.1 1.7-2.8 1.7-3.2 1.7-4.3.2-1-1.3-3-1.6-10.7-1.4-9.4.2-9.6.2-18.2-4.1-4.9-2.4-8.8-4.7-8.8-5 0-1.1 3.4-3.3 5.1-3.4.9 0 2.2 1.3 2.9 3s2 3 3 3c2.4 0 18-7.9 18-9.1 0-.5.9-.9 2-.9 2.5 0 2.5.1-.5 5.9-1.5 2.7-2.3 5.5-1.9 6.5.8 2.1 4.7 3.1 7.1 1.8 1-.6 4-1.3 6.8-1.7 5.7-.9 11.2-5.4 10.7-8.9-1.2-8.7-5.2-10-9.4-3-1.6 2.5-2.8 5.1-2.8 5.9 0 1.8-5.7 6.5-8 6.5-3.1 0-3.3-1.7-.7-7.3 2.8-6.1 2.5-7.7-1.3-7.7-1.9 0-3.3-.8-4.5-2.7-1.7-2.6-1.7-2.7 0-3.8.9-.5 3.4-2.2 5.4-3.6 2-1.5 3.7-2.5 3.9-2.4.1.1-.2 1.4-.7 2.9m2.9 3.2c0 .8-.4 1.2-1 .9-.5-.3-1-1.3-1-2.1s.5-1.2 1-.9c.6.3 1 1.3 1 2.1m29.2 1.2c-.2 1.7.2 2.2 1.7 2.2 1.2 0 2.1.5 2.1 1.1 0 1.6-6.2.6-7.3-1.3-.8-1.2-.7-2.1.3-3.2 1.7-2.2 3.6-1.5 3.2 1.2m10.1-2.1c1 .9-2.5 3.2-5 3.3-1.2 0-2.4-.4-2.8-.9-1.2-2 6.1-4.2 7.8-2.4m-51.2 6.9c1.3 2.5 1.2 2.8-1 4.3-1.4.9-4.4 2.4-6.8 3.3-3.8 1.4-4.5 1.4-5 .2-.8-2.2-2.5-1.7-1.8.6 1 3.1-1.2 2.4-2.3-.8-.9-2.6-.7-2.8 6.7-6.4 4.2-2 7.9-3.7 8.2-3.7.3-.1 1.2 1.1 2 2.5m36.9-.6c0 .5.7 1 1.5 1 2 0 1.9 1.9 0 2.7-1.9.7-2 .5-2.9-2.5-.5-1.3-.3-2.2.3-2.2s1.1.4 1.1 1m-12.1 4.7c1.1 3.9.3 5.2-2.9 5.3-.8 0-2.6.3-3.9.7-2.1.5-2.3.4-1.7-1.3 1.2-3.3 5.1-8.4 6.3-8.4.7 0 1.7 1.7 2.2 3.7M559 419c0 .5-1.3 1.6-3 2.5-2.1 1.1-2.8 2-2.3 3.3 1 2.5 2.3 3.2 6.9 3.2 3.8 0 13.6 3.2 15.8 5.1 1.8 1.6-2.2 2-5.1.6-3.3-1.6-11.2-1.1-11.9.8-.6 1.5.4 5.2 3.9 14.8 3 8.1 2.9 11.7-.3 12.9-3.6 1.3-6.1-2.1-10.9-14.4-5.3-13.8-5.5-19-.8-24 2.6-2.9 6.2-5.6 7.5-5.8.1 0 .2.4.2 1m12.7 4.2c6.4 3.3 8 4.5 7.1 5.5-1.9 2.3-4.3 1.7-16.6-3.9-4.2-1.9-4.3-2-2.6-3.9.9-1 2.2-1.9 2.8-1.9.5 0 4.7 1.9 9.3 4.2m39.3-3.7c0 .3-.2.5-.5.5s-.5-.2-.5-.5.2-.5.5-.5.5.2.5.5m-2.3 1.1c-.3.3-1.2.4-1.9.1-.8-.3-.5-.6.6-.6 1.1-.1 1.7.2 1.3.5M557 425c0 .5-.2 1-.4 1-.3 0-.8-.5-1.1-1-.3-.6-.1-1 .4-1 .6 0 1.1.4 1.1 1m54.2 5.7c-1.9 5.1-3.1 12.7-3.4 22.3-.3 8.9-.2 9.6 1.8 10.4 2.1.9 5.1 7.2 4.1 8.3-1 1-2.6-.8-2-2.2.3-1-.2-1.5-1.6-1.5s-2.1.6-2.1 1.9c0 1.1-.4 2.2-.9 2.5-1.6 1-4.1-.5-4.1-2.5 0-1-.6-1.9-1.2-1.9-.7 0-3-.3-5-.6-2.5-.5-3.8-.3-3.8.5 0 .6 1.1 1.1 2.5 1.1 3.9 0 3.2 3.4-1.2 6.5-5.7 3.8-6.6 3.4-10.7-5.1-2-4.2-3.6-8.2-3.6-9 0-.7 2.8-3.1 6.3-5.3 12.5-7.9 13.7-9 13.7-11.5 0-1.4 1.4-4.8 3-7.6 1.7-2.8 3-5.4 3-5.8 0-.9 5.3-4.2 5.9-3.7.2.3-.1 1.7-.7 3.2m-20.2-1.8c0 1.1-2.5 2.1-5.1 2.1-1.9 0-2.5-1.1-1.2-2.3 1-1 6.3-.8 6.3.2m10 .1c0 .5-.2 1-.4 1-.3 0-.8-.5-1.1-1-.3-.6-.1-1 .4-1 .6 0 1.1.4 1.1 1m-5.5 1.3c-1.1.8-2.9 1.7-4 2-1.7.6-1.7.4.4-1.3 1.3-1.1 3-2 3.9-2 1.3 0 1.3.3-.3 1.3m-11.5 2.9c0 1.4-4.8.8-5.3-.6-.3-.8-.3-1.6-.1-1.9.7-.6 5.4 1.6 5.4 2.5m13.6-.7c-1.1.8-2.7 1.5-3.5 1.4-.9 0-.2-.7 1.4-1.4 3.9-1.8 4.5-1.8 2.1 0m3.4 4.8c-1.6 3-3 6.3-3 7.4 0 2-5.4 6.1-13.1 10.1-4.8 2.4-7.1 5.2-6.5 7.8.6 2.3.4 2.4-4.9 2.4-6 0-5.5.7-6-7.5-.1-1.7-1.6-6.8-3.3-11.4-1.8-4.6-3.2-9-3.2-9.7 0-2 7.6-2.8 10.1-1 2.7 1.8 11.5 1.1 14.2-1.3 1.7-1.4 1.9-1.4 2.8.2 1.3 2.3 6.4 2.1 10.9-.3 1.9-1.1 3.8-1.9 4.3-2 .4 0-.6 2.4-2.3 5.3m14.7 24.6c5.9 3.6 11.9 18 11.1 26.8-.3 3.7-2.8 6-2.8 2.6 0-2-3.2-10.4-7.6-20.1-1.3-2.9-2.4-5.7-2.4-6.1 0-.5-1.2-1.9-2.7-3-2.5-1.8-2.6-2-.8-2.1 1.1 0 3.4.9 5.2 1.9m-53 3.8c-.4.3-.7 0-.7-.7s.3-1 .7-.7c.3.4.3 1 0 1.4m14.8 2.3c.3.5 1.2.7 1.9.4.8-.3 2.2 1.4 3.7 4.8 1.3 2.9 2.5 5.6 2.7 5.9.3.7-9.8 3.9-12.4 3.9-4.6 0-8.9-2-10.1-4.7-1.8-4.2-2.4-7.7-1.6-9 1.3-1.9 14.7-3.1 15.8-1.3m37 7.5c1.7 1.4 2.4 2.5 1.7 2.5s-1.8-.5-2.5-1c-.7-.6-2.1-1.7-3.2-2.5-1.5-1.1-1.6-1.4-.5-1.4.8 0 2.9 1.1 4.5 2.4m-5.9.6c2.4 1.1 4.5 2.8 4.8 3.7 1.1 4 1.7 8.6.9 7.7-.4-.6-4.6-3-9.3-5.4-10.3-5.3-9.5-4.6-7.9-6.5 1.9-2.1 6.5-2 11.5.5m11.1 7.6c.9 2.1 1.9 5.4 2.2 7.3.6 3.4.8 3.5 4.6 3.2 3.8-.2 3.9-.2 2.1 1.3-1.1.8-2.8 1.5-3.7 1.5-3.5 0-9.9-11.8-8.5-15.5.8-2.3 1.6-1.8 3.3 2.2"/><path d="M595.3 452.6c-3.6 1.8-4.8 4.1-3.2 6s2.9 1.7 6.3-1c2.1-1.8 2.6-2.9 2.1-4.5-.8-2.5-1-2.5-5.2-.5m3.7 1.1c0 1.2-3.3 4.3-4.7 4.3-2 0-1.6-1.7.9-3.4 2.4-1.7 3.8-2 3.8-.9M604 456c0 1.9.3 2.1 1.2 1.2s.9-1.5 0-2.4-1.2-.7-1.2 1.2M586 461c0 .5.5 1 1 1 .6 0 1-.5 1-1 0-.6-.4-1-1-1-.5 0-1 .4-1 1M602 464c0 .5.9 1 2.1 1 1.1 0 1.7-.5 1.4-1-.3-.6-1.3-1-2.1-1s-1.4.4-1.4 1M587.7 465.2c-.6 1.8.4 4.8 1.5 4.8.5 0 .8-.8.6-1.8-.2-.9.3-2.2 1.2-2.9 1.3-1.1 1.2-1.2-.7-1.3-1.2 0-2.3.6-2.6 1.2M590 473c0 .5.5 1 1 1 .6 0 1-.5 1-1 0-.6-.4-1-1-1-.5 0-1 .4-1 1M572.5 470c.3.5 1.1 1 1.6 1 .6 0 .7-.5.4-1-.3-.6-1.1-1-1.6-1-.6 0-.7.4-.4 1M578.5 479c-2.3 2.6-.4 2.6 2.6 0 1.8-1.5 2-1.9.8-2-.9 0-2.4.9-3.4 2M679.5 400.4c-24 10.1-41.9 23.9-50.5 38.7-2.4 4.1-5.9 9.6-7.8 12.2s-3.2 5-3 5.2c.9.9 5.3-5 11-14.6 10.4-17.5 29.3-31.8 55.3-41.9 3.3-1.3 6.4-2.7 7-3.2 2-1.8-2.4-.5-12 3.6M521.6 413.3c-11.1 6.2-10.5 5.7-6.6 5.5 3.3-.3 3.7 0 5.9 4.4 1.3 2.7 2.9 4.8 3.6 4.8.8 0 1.5 1 1.7 2.2.2 1.5 1 2.3 2.3 2.3 1.7 0 2-.6 1.8-3.5-.3-3.5-.3-3.5 1.2-.8 1.9 3.4 4.5 2.7 4.5-1.3 0-1.6.5-2.9 1-2.9.6 0 1-.5 1-1 0-.6-2.2-1-5-1-3.2 0-5 .4-5 1.2 0 2.1-1.8-.5-2.2-3.2-.4-2.2-.5-2.3-1.3-.6-.5 1.1-.4 2.6.3 3.7 1.4 2.2 1.5 2.9.4 2.9-.8 0-5.2-8.3-5.2-9.9 0-1.2 5-3.2 6.1-2.5.6.3 1.5 1.7 2 3.1 1.2 3.2 2.4 2.3 1.5-1.1-1-4-3.5-4.7-8-2.3m12.4 12.9c0 1.9-.2 2-1 .8-1.3-1.9-1.3-3 0-3 .6 0 1 1 1 2.2m-5 4.3c0 .5-.5.3-1-.5s-1-2-1-2.5c0-.6.5-.3 1 .5s1 1.9 1 2.5M463.8 415.4c-1 .7-1.8 2.6-1.8 4.3 0 5 5.9 8.6 9.6 5.8 1-.8 3.6-1.5 5.6-1.5 2.6 0 4-.6 4.8-1.9 1.3-2.6-1.1-5.1-5-5.1-1.6 0-3.5-.7-4.4-1.5-1.8-1.8-6.5-1.9-8.8-.1m6.2.1c0 .3-.8 1.7-1.7 3.2-1.6 2.4-1.6 2.6.2 3.9 2.1 1.5 1.4 3-1 2.1-1.5-.6-2.2-7.7-.8-9 .8-.8 3.3-.9 3.3-.2m1 3.9c0 .3-.5.8-1.2 1.2s-.8.3-.4-.4c.7-1.2 1.6-1.6 1.6-.8m3 1.7c0 1.1-.4 1.7-1 1.4-.5-.3-1-1.3-1-2.1s.5-1.4 1-1.4c.6 0 1 .9 1 2.1m2.7.6c-.4.3-.7 0-.7-.7s.3-1 .7-.7c.3.4.3 1 0 1.4m3 0c-.4.3-.7 0-.7-.7s.3-1 .7-.7c.3.4.3 1 0 1.4M487.5 420.9c.3.6 1.9 1.1 3.4 1.1 2.5 0 3 .5 4.2 4.5.7 2.5 1.7 4.5 2.2 4.5s.6-1 .2-2.3c-.4-1.2-.8-3.6-1-5.2-.2-2.8-.4-3-4.9-3.3-3.2-.2-4.6 0-4.1.7M504.3 421.7c1.5.2 3.9.2 5.5 0 1.5-.2.2-.4-2.8-.4s-4.3.2-2.7.4M543.5 423c-.3.5.3 1 1.5 1s1.8-.5 1.5-1c-.3-.6-1-1-1.5-1s-1.2.4-1.5 1"/><path d="M516 444.5c0 18.5 0 18.5-3.2 18.6l-3.3.1 3.3 1 3.2 1.1v117.6l-19.7.3c-10.9.2-20 .2-20.3 0-.6-.4-.9-22.6-1.3-97.4-.2-31.2-.6-57.1-1-57.5-.4-.3-.9-.4-1.2-.1-.9.8 1 155.6 1.8 156.5.8.7 119.4.6 138-.2l7.7-.3V597c0 17.5 1.9 18.1 2.2.8l.3-13.3 67-.5 67-.5.3-10.9c.2-6.6-.1-11.3-.8-12s-1 2.5-1 10.2V582h-56v-17.5c0-11-.4-17.5-1-17.5s-1 6.5-1 17.5V582h-17.7c-9.8 0-37.7.3-62 .7l-44.3.6-.2-18.4c-.2-10.1-.3-21.7-.3-25.6-.1-4-.6-7.3-1.1-7.3s-.8 10.1-.5 25.5l.3 25.5H531v-55.7c0-42.1-.3-55.4-1.2-54.5-.8.8-1 15.5-.9 55.7l.2 54.6-5.3-.3-5.3-.3-.2-58c-.1-33.6.2-58.5.8-59.1.5-.6.5-1.4.1-1.8-.7-.7-1-7.4-1.1-27.9-.1-5.7-.5-9.7-1.1-9.7s-1 6.8-1 18.5M645.4 433.2c-4.2 4.5-7 8.8-7.8 12-1 4.1.1 3.4 2.5-1.7 1.1-2.4 3.9-6.5 6.1-9 4.5-5.1 3.8-6.2-.8-1.3"/><path d="M499.6 438.7c.8 3.2 3.4 7.4 3.4 5.5 0-1.7-2.8-8.2-3.5-8.2-.3 0-.2 1.2.1 2.7M504.5 451.7c.4 1 1 2.8 1.2 4.1.6 2.4 2.3 4.1 2.3 2.1 0-2.2-2.4-7.9-3.3-7.9-.5 0-.6.8-.2 1.7M534 457.7c-2.7 1.1-3.9 3.5-2.8 6.2 1.1 3-1.1 5.2-4.2 4.4-2.3-.6-3.8 2.3-2.1 4 .8.8 1.1.7 1.1-.6 0-2.1.2-2.1 4.6-.2 4.3 1.8 8.3.5 9.9-3.3.8-1.7 1.8-2.2 4.7-2.2 2.1 0 3.8-.5 3.8-1 0-.6-2.3-1-5.1-1-3.8 0-5 .3-4.6 1.3.6 1.7-1.3 4.3-4 5.1-3 1-3.9-1.1-1.4-3.3 2.2-1.9 2.9-5.1 1.1-5.1-.5 0-1 .5-1 1.1 0 .5-.4.7-1 .4-1.6-1-1.2-2.3 1.1-3.5 1.5-.9 2.4-.8 3.6.1 1.3 1.1 1.5 1 1.2-.6-.4-2.1-2.4-2.8-4.9-1.8M631.1 465.6c-2.1 2.7-2.1 5.4.1 8.1 1.2 1.5 7.2 1.8 6.3.3-.3-.6-1.5-1-2.5-1-2.7 0-4.4-3.4-3-6.1.9-1.6 1.8-1.9 3.7-1.4 1.8.4 2.4.2 2.1-.7-.8-2.5-4.5-2-6.7.8"/><path d="M525 465c0 .5.9 1 2 1s2-.5 2-1c0-.6-.9-1-2-1s-2 .4-2 1M554.5 466c.3.5 1.3 1 2.1 1s1.4-.5 1.4-1c0-.6-.9-1-2.1-1-1.1 0-1.7.4-1.4 1M638 470c3.6 1.2 8 1.2 8 0 0-.6-2.4-1-5.2-.9-4.2.1-4.8.3-2.8.9M648 474.7c0 1.3 2.6 8.2 3.3 8.9 1 1.1.8-1.4-.5-5.7-.6-2.2-1.5-3.9-2-3.9-.4 0-.8.3-.8.7M654 476.8c0 .7 1.4 1.7 7.8 5.5 5.1 3 3.7.4-1.7-3.1-5.1-3.3-6.1-3.7-6.1-2.4M541.4 480.1c-6 1.7-7.2 6.9-1.7 6.9 2.8 0 2.8.1-1.4 3.6-4 3.3-4.3 3.9-4.3 8.3 0 5.6 1.2 7.5 10.4 16.7 8.3 8.2 15.8 11.8 25.6 12.2 6.3.3 8.2 0 11.2-1.8 5.1-3 6.8-6 6.8-12.1 0-5.1 0-5.1 4-4.7 3.2.3 4 0 4-1.3 0-1-.5-1.9-1.2-2.1-.7-.3-.9-1.2-.5-2.2.5-1.1 1.3-1.6 2.3-1.2s1.4.1 1.2-.6c-.7-2-10.5-2.2-14.4-.3-3.7 1.7-4.3 3.9-1.9 7.1 1.8 2.3 1.9 9.4.3 11.6-2.1 2.7-9 4-14.3 2.8-9.1-2-16-6.6-23.2-15.4-6.9-8.3-5.8-11.3 6.8-18.6 5.7-3.4 7-4.6 6.7-6.3-.2-1.3-1.1-2.3-2.3-2.4-7.5-.9-11.4-.9-14.1-.2m9 2.3c-.5 1.3-3.4 3.1-3.4 2.2 0-1.6 1.4-3.6 2.6-3.6.7 0 1.1.6.8 1.4M545 484c-1.3 2.4-7 2.9-7 .6 0-1.7 1.5-2.4 5.3-2.5 2.5-.1 2.7.1 1.7 1.9m11-1.1c0 1.4-1.8 2.3-3 1.6-.6-.4-.8-1.1-.5-1.6.8-1.2 3.5-1.2 3.5 0m-7 5.1c-1.4 1.1-2.8 2-3.3 2-.4 0-2.3 1.4-4.2 3.2-6.1 5.5-4 11.9 7.1 21.7 9.6 8.4 20.1 12 28.3 9.5 5.9-1.7 7-3 8.1-9.1l.8-4.8.1 4.6c.1 4.2-.3 5-3.3 7.7-10.1 8.9-29.8 2.1-43.1-14.8-2.8-3.6-3.5-5.4-3.5-9 0-3.2.5-4.9 1.8-5.8 7.4-5.1 10.9-7.2 12.2-7.2 1 0 .7.7-1 2m43.3 14.7c-.7.2-2.1.2-3 0-1-.3-.4-.5 1.2-.5 1.7 0 2.4.2 1.8.5m-3.7 1.8c1.9 1.4 1.9 1.4-.2 1.5-1.2 0-2.4-.7-2.8-1.5-.7-1.9.5-1.9 3 0m-3.8 1.6c1.5 2.4 1 3.4-1.3 2.6-1.5-.6-2.2-4.7-.7-4.7.4 0 1.3.9 2 2.1M653 488.3c0 1.8 3.4 9.7 4.2 9.7.6 0 .7-.8.3-1.8-.4-.9-1.1-3.2-1.7-5-.5-1.7-1.3-3.2-1.8-3.2-.6 0-1 .1-1 .3M658.6 489.9c-.3.4 1.2 1.5 3.4 2.4 2.3.9 4.2 1.1 4.6.6.3-.5.3-.9.1-.9-.3 0-2.1-.7-4-1.5-2-.8-3.8-1.1-4.1-.6M608 495.6c0 2.1 2.5 8.4 3.3 8.4.5 0 .6-.8.2-1.8-.4-.9-1-2.9-1.3-4.5-.2-1.5-.8-2.7-1.3-2.7s-.9.3-.9.6M661.6 498.7c-.3.3 1.8 2.2 4.7 4.1 2.8 2 5.4 3.8 5.7 4.1s4 3.9 8.1 7.9c7.6 7.4 7.6 7.4 12 6.2 5.3-1.4 17.8-7.2 17.9-8.3 0-1.3-1.9-.7-8.5 2.8-3.6 1.9-8.1 3.7-10.1 4.1-3.5.6-3.9.4-11.7-7.3-8.5-8.3-17-14.7-18.1-13.6"/><path d="M681.1 504.7c2.5 2.7 5.4 6.1 6.6 7.8 1.2 1.6 2.4 2.7 2.7 2.4.7-.7-5.8-9.5-9.3-12.6-4.6-4-4.5-2.4 0 2.4M658.5 503.7c.4 1 1 2.8 1.2 4 .3 1.2 1.2 2.8 2.1 3.5 1.3 1.1 1.4 1 .8-1.2-1.5-5-2.9-8-3.8-8-.6 0-.7.8-.3 1.7M599.3 505.1c-1.1.4.2.8 3.5 1 2.8.2 5.2.1 5.2-.2 0-1-6.6-1.6-8.7-.8M714 513.1c0 2.5 2.4 8.9 3.3 8.9.5 0 .6-.8.2-1.8-.3-.9-.9-2.9-1.2-4.5-.6-2.8-2.3-4.8-2.3-2.6M664 517.2c0 2 2.4 7.8 3.2 7.8 1.2 0 1-1.3-.7-5.4-1.5-3.6-2.5-4.6-2.5-2.4M718.4 528.2c.4 1.3.9 3.5 1.2 5 .4 1.6 1.1 2.8 1.6 2.8.6 0 .7-1 .4-2.3-.4-1.2-.9-3.4-1.2-5-.4-1.5-1.1-2.7-1.6-2.7-.6 0-.7 1-.4 2.2M696.5 531c-1.2 1.3-3.1 2-5.5 2-8.5 0-9.3 6-.9 7 2.4.3 5.6 1.3 7.1 2.3 6.8 4.6 14.4-5.1 8.8-11.1-2.6-2.8-7.1-2.8-9.5-.2m1.7 4.7c-.2 2.4-.8 4-1.3 3.7-1.3-.8-1.1-5.8.3-7.2 1.5-1.5 1.6-1.4 1 3.5m7.8-1.4c1.3 2.3 1.3 2.8-.4 4.6-2.4 2.6-4.2 2.7-5.5.3-1.7-3.3.7-8.7 3.4-7.9.6.2 1.7 1.5 2.5 3m-18 2.2c0 .8-.4 1.5-1 1.5-.5 0-1-.7-1-1.5s.5-1.5 1-1.5c.6 0 1 .7 1 1.5m4 0c0 .8-.4 1.5-1 1.5-.5 0-1-.7-1-1.5s.5-1.5 1-1.5c.6 0 1 .7 1 1.5"/><path d="M702 536c0 .5.5 1 1 1 .6 0 1-.5 1-1 0-.6-.4-1-1-1-.5 0-1 .4-1 1M669.4 531.3c.3 1 .6 2.5.6 3.2 0 1.7 3.1 2.8 4.4 1.5.7-.7.5-1-.7-1-.9 0-1.7-.4-1.7-.8 0-.5-.7-1.7-1.6-2.8-1.4-1.7-1.5-1.7-1-.1M680 536.1c0 .5.5.7 1 .4.6-.3 1-.8 1-1.1 0-.2-.4-.4-1-.4-.5 0-1 .5-1 1.1M722 541c0 .5.4 1.9.9 3.2s1.2 3.2 1.5 4.2c1.3 4 1.8.4.5-3.9-1.2-4-2.9-6.1-2.9-3.5M756.6 546.5c-1.6.9-3.7 1.3-4.6 1-1-.3-3 0-4.6.6-2.9 1.1-2.9 1.1-.4 2.1 2.5 1.1 2.5 1.1-.2 2.1-1.6.6-2.8 1.7-2.8 2.4 0 1.3 1.7 1.8 8 2.7 1.9.2 5.2.9 7.2 1.4 3.4.9 4 .7 6.3-1.5 3-3.1 3.2-7.1.5-10.1-2.4-2.6-5.4-2.8-9.4-.7m8.2 1.7c1.6 1.6 1.5 6.6-.2 8.4-1.9 1.9-5.2 1.8-6-.2-1.7-4.4-.2-9.4 2.8-9.4 1.2 0 2.7.5 3.4 1.2m-8.2 4.3c0 2.9-.2 3-3.8 2.7-3.7-.4-4.8-1.5-2.8-2.7.5-.3.7-1.2.4-2-.4-1 .3-1.3 2.8-1.2 3.1.2 3.4.5 3.4 3.2M729.5 551c-.4.6 1.4 1 4.7 1 3.8 0 4.9-.3 3.8-1-2-1.3-7.7-1.3-8.5 0M582.8 613.8c-2.8.3-2.8.3-2.8 11.3V636l39.8-.2 39.7-.3-.3-10c-.1-5.5-.4-10.6-.7-11.3-.4-1.1-7.6-1.3-36.7-1-20 .1-37.5.4-39 .6m75 10.9.3 9.3H582v-8.8c0-4.9.3-9.1.6-9.5.3-.3 17.3-.5 37.8-.4l37.1.2z"/><path d="M586.8 619.1c-1 .5-1.8 1.7-1.8 2.6 0 1.4.3 1.4 2-.2 1.6-1.5 2.3-1.6 3.3-.6.9 1 .8 1.5-.6 2.5-1.6 1.3-1.6 1.4.5 2.8 1.2.8 1.8 1.9 1.4 2.6-1 1.7-4.4 1.5-5.4-.4-.6-1.1-1.2-1.3-1.6-.6-.9 1.5 3.7 4.4 5.8 3.6 2.2-.8 3.9-4.1 2.6-4.9-.5-.3-1-2.1-1-4 0-2.1-.6-3.5-1.6-3.9-1.9-.7-1.5-.8-3.6.5M596.8 619.1c-1 .5-1.8 1.8-1.8 2.7.1 1.5.2 1.5 1.5-.2 1.6-2.1 4.5-1.5 4.5.8 0 .9-1 2.1-2.2 2.7-2.4 1.3-4.7 3.8-4.8 5.1 0 .5 2.1.7 4.8.6 3.6-.1 3.9-.2 1.5-.5-4.1-.5-4.1-1.6-.3-4.3 3.4-2.4 3.7-4.1 1.4-6.4-1.8-1.9-2.3-1.9-4.6-.5M610.5 619c-.4.6.7 1 2.4 1 3.7 0 3.7.3 1 5.9-1.1 2.4-1.8 4.5-1.5 4.9.7.6.4 1.1 3.8-5.7 1.5-3 2.5-5.8 2.2-6.2-.7-1.2-7.1-1.1-7.9.1M631.6 620.2c-3.3 4.6-1.1 11.3 3.4 10.6 3.3-.4 4.8-5.4 2.9-9.4-1.8-3.7-4.3-4.1-6.3-1.2m5 2.3c.9 3.8-.3 7.7-2.4 7.3-1.7-.3-2.9-5.6-1.8-8.4.9-2.3 3.5-1.6 4.2 1.1M641.6 620.2c-3.2 4.5-.7 10.8 4.3 10.8 3 0 5.1-1.6 5-4 0-1.1-.4-.9-1.6.7-2.8 4.1-7.3 2.3-7.3-2.8 0-2.6 2.2-5.9 3.8-5.9.4 0 1.8.7 3 1.6 2.3 1.6 3 .6 1-1.4s-6.5-1.4-8.2 1M624.7 619.6c-.3.4-.3 1.9 0 3.5.4 2.4.2 2.9-1.3 2.9-1.4 0-1.5-.3-.6-1.2.7-.7 1.2-1.7 1.2-2.3 0-1.1-3.9 3.5-4 4.7 0 .5 1.1.8 2.4.8s2.7.7 3 1.7c.6 1.4.8 1.4 2.1-.3.8-1.2 1-2.3.4-2.9-.5-.5-.9-2.4-.9-4.2 0-3.1-.9-4.1-2.3-2.7M605 626c0 .5.9 1 2 1s2-.5 2-1c0-.6-.9-1-2-1s-2 .4-2 1M617.4 639.8c-.6.4-1.6 1.7-2.3 3-2.9 5.4 5.1 9.9 8.4 4.8 2.9-4.4-1.9-10.7-6.1-7.8m4.6 5.3c0 2.6-.3 3-2.2 2.7-1.7-.2-2.4-1.1-2.6-3.1-.3-2.3 0-2.7 2.2-2.7s2.6.4 2.6 3.1M600.5 641c-1.1 1.8-.8 9 .5 10.5 1.8 2.2 2.2 1.3.9-2.3-.8-2.3-.8-4.1 0-6.2.9-2.8 0-4.2-1.4-2M605 645c0 2.7.5 5 1 5 .6 0 1-1.5 1-3.3v-3.2l2.1 3.2c1.2 1.8 2.5 3.3 3 3.3s.9-2.3.9-5c0-2.8-.4-5-1-5-.5 0-1 1.2-1 2.7-.1 2.8-.1 2.8-2.3 0-1.3-1.5-2.6-2.7-3-2.7s-.7 2.2-.7 5M632.1 641.4c-.8 1-.9 1.6-.1 2.1.5.3 1 1.9 1 3.6 0 1.6.5 2.9 1 2.9.6 0 1-2.3 1-5 0-5.1-.8-6.1-2.9-3.6M639.3 643c.8 2.2.8 3.8 0 6-1.4 3.7 0 4.9 1.6 1.4 1.4-3.1 1.4-4.7-.1-7.9-1.6-3.5-2.9-3.1-1.5.5M626 649c0 .5.5 1 1 1 .6 0 1-.5 1-1 0-.6-.4-1-1-1-.5 0-1 .4-1 1M167 475.5c0 2.5.5 4.5 1 4.5.6 0 1-2 1-4.5s-.4-4.5-1-4.5c-.5 0-1 2-1 4.5M167 487.7c0 2.1.5 4.5 1 5.3.7 1.1 1 0 1-3.8 0-2.8-.4-5.2-1-5.2-.5 0-1 1.7-1 3.7M168 499.9c0 1-1 3-2.1 4.5-2.7 3.4-1.7 4.8 1 1.5 1.8-2.1 2.9-7.9 1.6-7.9-.3 0-.5.8-.5 1.9M157.7 514.2c-2 2.3-3.4 4.5-3.1 4.7.6.6 5.3-3.9 6.6-6.2 1.9-3.6 0-2.8-3.5 1.5M146.2 522c-1.5 1.6-3.6 3-4.7 3-4.4 0-6.7 1.4-8.5 5.1-2.8 5.4-2.5 7.7 1.5 11.3 3.5 3.2 3.5 3.2 3.5 18.4 0 9.5.4 15.2 1 15.2s1-6 1-15.9v-16l3.9-1.7c4.3-1.9 6.4-5.3 5.6-8.7-.4-1.6.2-3 1.9-4.7 3.1-2.8 3.4-6.5.7-8-2.8-1.4-3-1.4-5.9 2m5.8 1.5c0 2.8-1.2 3.2-3 1-1.4-1.6-.6-3.5 1.6-3.5.8 0 1.4 1 1.4 2.5m-2.5 4.3c-.9.9-3.5-.8-3.5-2.4s.2-1.6 2 .1c1.1 1 1.8 2 1.5 2.3m-9.5.7c0 .8-.4 1.5-1 1.5-1.4 0-1.3 3.3.2 4.8s5.1 1.5 6.6 0c1.7-1.7 2.5-.3 1.3 2.1-1.8 3.3-5.8 3.8-8.7 1-4.1-3.8-4.8-5.7-2.9-8.5 1.7-2.7 4.5-3.2 4.5-.9m5.8-.3c1.6 1.6 1.5 2.9-.2 2.2-1.6-.6-3-3.4-1.8-3.4.5 0 1.3.5 2 1.2m-2.3 2.8c.3.5.2 1-.4 1-.5 0-1.3-.5-1.6-1-.3-.6-.2-1 .4-1 .5 0 1.3.4 1.6 1m-1.8 2.7c-.4.3-1 .3-1.4 0-.3-.4 0-.7.7-.7s1 .3.7.7m-5.7 4.4c.7 1.1 1 2.3.7 2.5-.6.6-3.7-2.5-3.7-3.7 0-1.7 1.9-.9 3 1.2m4 3.4c0 .3-.2.5-.5.5s-.5-.2-.5-.5.2-.5.5-.5.5.2.5.5M99.3 577.7c-.7.2-1.3 1.8-1.3 3.4 0 2.2.5 2.9 2 2.9 2.7 0 2.5 1.8-.2 2.3-2 .3-2.1.4-.5 1.1 2.6 1.2 4.7-1.1 4.7-5.4 0-2.5-.5-4-1.6-4.4-.9-.3-1.6-.6-1.7-.5-.1 0-.8.3-1.4.6m3.3 2.4c1 1.7-1.3 3.6-2.7 2.2-1.2-1.2-.4-3.3 1.1-3.3.5 0 1.2.5 1.6 1.1M106.4 579.3c-.3.8-.4 3-.2 4.9.2 2.5.8 3.4 2.5 3.6 2.4.4 3.8-2.6 3.1-6.9-.4-2.8-4.5-3.9-5.4-1.6m4 1.3c.9 2.3-.2 5.4-2 5.4-.9 0-1.4-1-1.4-2.8 0-4.2 2.2-5.8 3.4-2.6M115.8 578.7c2.6.5 2.6.3.7 3.9-.8 1.6-1.5 3.6-1.4 4.4 0 1.4 4.8-6.6 4.9-8.3 0-.4-1.5-.6-3.2-.6-2.4.1-2.7.3-1 .6M122.7 578.6c-1.3 1.4-.7 2.2 1.3 1.7 2.8-.8 2.5 1.5-.6 3.9-3 2.4-2 4.1 2.2 3.6 2.9-.4 2.9-.4.4-1.5-2.4-1-2.4-1-.2-2.2 2.9-1.5 2.6-5.5-.3-5.9-1.2-.2-2.4 0-2.8.4M132.3 579.2c-.9 1.6-.4 7 .8 8.2.5.6.9-1 .9-4.2 0-5.4-.3-6.1-1.7-4M143.2 579.2c-2.9 2.9-.1 10.5 3.3 9.1 2.1-.7 3-5 1.6-7.9-1.2-2.6-3-3.1-4.9-1.2m4.3 1.9c1.1 1.6-.4 5.9-2 5.9-1 0-1.5-1.1-1.5-3.5 0-3.5 2-4.9 3.5-2.4M151 579.9c-1.7 3.2-1.2 6.9 1.1 8.2 1.7.9 2.4.8 3.6-.4 2-1.9.8-5.7-1.8-5.7-1 0-1.9-.5-1.9-1 0-.6.9-1 2-1s2-.5 2-1c0-1.8-3.9-1.1-5 .9m4.5 5.1c0 .8-.8 1.6-1.7 1.8-1.3.2-1.8-.3-1.8-1.8s.5-2 1.8-1.8c.9.2 1.7 1 1.7 1.8M167.4 580.6c-3.2 4.8 1.9 11.5 5.2 6.9 1.7-2.3.1-5.5-2.7-5.5-1.2 0-1.7-.4-1.3-1.1.3-.6 1.5-.8 2.6-.6 1.6.4 1.7.3.7-.9-1.6-2-2.6-1.8-4.5 1.2m4.4 5.1c-.2 1-1 1.8-1.8 1.8s-1.6-.8-1.8-1.8c-.2-1.2.3-1.7 1.8-1.7s2 .5 1.8 1.7M175 583.4c0 5.5.1 5.6 2.9 5.6 3.9 0 5-1.7 4.2-6.5-.6-3.6-.9-4-3.9-4.3-3.2-.3-3.2-.3-3.2 5.2m6-2.4c0 .5-1.1 1-2.5 1s-2.5-.5-2.5-1c0-.6 1.1-1 2.5-1s2.5.4 2.5 1m0 4.5c0 .9-.9 1.5-2.5 1.5-2.4 0-3.2-1-1.8-2.3 1.2-1.3 4.3-.7 4.3.8M160.4 580.1c-.3.6-.1 1.5.6 1.9.8.5 1 1.7.6 3.4-.4 1.5-.2 2.6.4 2.6.5 0 1-2 1-4.5 0-4.3-1.1-5.8-2.6-3.4M138 584c0 .5.7 1 1.6 1 .8 0 1.2-.5.9-1-.3-.6-1-1-1.6-1-.5 0-.9.4-.9 1M805.2 696.7c-.6.2-1 .9-.6 1.4.7 1.2 10.1 1.2 10.9-.1.4-.6-.8-1-2.9-1-1.9 0-4-.2-4.8-.4-.7-.3-1.9-.2-2.6.1M819.8 696.6c-1.5 1.5.5 2.4 5.2 2.4 2.7 0 5.2-.5 5.5-1 .4-.6-.7-1-2.7-1-1.8 0-4.2-.3-5.3-.6s-2.4-.2-2.7.2M689.2 697.8c-3 .2-5 .7-4.7 1.3.8 1.2 11.5 1.2 11.5 0 0-1.4-1-1.6-6.8-1.3M700.7 697.6c-1.7 1.8-.3 2.5 4.3 2.2 2.8-.2 5.1-.7 5.3-1.3.2-1.1-8.5-1.9-9.6-.9M714.5 698c-.3.6 0 1.3.8 1.6 2.5.9 10 0 10.5-1.4.5-1.5-10.4-1.7-11.3-.2M729.6 697.9c-.3.5.2 1.1 1.2 1.3 2.6.7 10.2-.3 10.2-1.3 0-1.2-10.7-1.2-11.4 0M744 698c0 .6 2.7 1 6 1s6-.4 6-1-2.7-1-6-1-6 .4-6 1M759 698c0 .6 2.7 1 6 1s6-.4 6-1-2.7-1-6-1-6 .4-6 1M774 698c0 .5 2.4 1 5.4 1s5.8-.5 6.1-1c.4-.6-1.7-1-5.4-1-3.4 0-6.1.4-6.1 1M789.5 698c.3.5 2.8 1 5.5 1s5.2-.5 5.5-1c.4-.6-1.7-1-5.5-1s-5.9.4-5.5 1M568.8 698.7c-4.9.8-3 2.3 2.8 2.3 4 0 5.5-.4 5.2-1.3-.5-1.3-3.6-1.7-8-1M580.7 698.7c-1.5 1.4.8 2.3 5.9 2.3 4 0 5.5-.4 5.2-1.3-.5-1.2-10-2.2-11.1-1M595.5 699c-.3.6 0 1.3.8 1.6 2.5.9 10 0 10.5-1.4.5-1.5-10.4-1.7-11.3-.2M610.3 699.2c.2.8 2.3 1.3 5.7 1.3s5.5-.5 5.8-1.3c.3-.9-1.3-1.2-5.8-1.2s-6.1.3-5.7 1.2M625.6 698.9c-.9 1.3 1.4 1.8 6.6 1.3 2.7-.2 4.5-.8 4.2-1.3-.7-1.2-10.1-1.2-10.8 0M640 699c0 .6 2.7 1 6.1 1 3.7 0 5.8-.4 5.4-1-.3-.6-3.1-1-6.1-1s-5.4.4-5.4 1M655 699c0 .5 2.5 1 5.5 1s5.5-.5 5.5-1c0-.6-2.5-1-5.5-1s-5.5.4-5.5 1M670 699c0 .5 2.5 1 5.5 1s5.5-.5 5.5-1c0-.6-2.5-1-5.5-1s-5.5.4-5.5 1M478.7 699.8c-5.6.5-3.4 2.2 2.9 2.2 3.8 0 5.4-.4 5.2-1.2-.5-1.3-2.7-1.6-8.1-1M491.3 699.6c-3.1 1.3-.8 2.4 4.8 2.4 4.4 0 6-.3 5.7-1.3-.5-1.2-8.2-2-10.5-1.1M505.5 700c-.3.5 0 1.3.8 1.6 2.3.8 10.2 0 10.2-1.1 0-1.4-10.2-1.9-11-.5M520.5 699.9c-.3.5-.2 1.2.2 1.4 1.3.8 11.3-.5 11.3-1.4 0-1.2-10.7-1.1-11.5 0M536 700c0 .5 2.5 1 5.6 1 3.4 0 5.3-.4 4.9-1-.3-.6-2.8-1-5.6-1-2.7 0-4.9.4-4.9 1M551 700c0 .5 2.5 1 5.5 1s5.5-.5 5.5-1c0-.6-2.5-1-5.5-1s-5.5.4-5.5 1M178.8 700.7c-5.8.6-4.5 2.3 1.7 2.3 5.3 0 7.2-1.1 3.9-2.4-.9-.3-1.6-.5-1.7-.4s-1.9.3-3.9.5M190.4 700.9c-1.4 1.4.3 2.1 5.6 2.1 3.3 0 6-.4 6-1 0-1.1.1-1.1-6.3-1.4-2.6-.1-5 0-5.3.3M205.7 700.7c-1.7 1.6-.3 2.3 4.8 2.3 4.2 0 5.5-.3 5.5-1.5 0-1.1-1.2-1.5-4.8-1.5-2.7 0-5.2.3-5.5.7M220 701.5c0 1.3 1 1.5 5.5 1.3 3-.2 5.5-.8 5.5-1.3 0-.6-2.5-1.1-5.5-1.3-4.5-.2-5.5 0-5.5 1.3M235.7 700.7c-1.7 1.6-.3 2.3 4.8 2.3 4.2 0 5.5-.3 5.5-1.5 0-1.1-1.2-1.5-4.8-1.5-2.7 0-5.2.3-5.5.7M250 701.5c0 1.3 1 1.5 5 1.3 6.7-.4 6.9-2.2.3-2.6-4.3-.2-5.3 0-5.3 1.3M264.5 700.9c-.8 1.5.6 1.9 5 1.5 2.2-.1 4.6-.3 5.3-.3.6-.1 1.2-.6 1.2-1.1 0-1.3-10.7-1.3-11.5-.1M280 701c0 .6 2.7 1 6.1 1 3.7 0 5.8-.4 5.4-1-.3-.6-3.1-1-6.1-1s-5.4.4-5.4 1M294.5 701c-.4.6 1.8 1 6 1s6.4-.4 6-1c-.3-.6-3-1-6-1s-5.7.4-6 1M310 701c0 .6 2.7 1 6.1 1 3.7 0 5.8-.4 5.4-1-.3-.6-3.1-1-6.1-1s-5.4.4-5.4 1M325 701c0 .6 2.7 1 6.1 1 3.7 0 5.8-.4 5.4-1-.3-.6-3.1-1-6.1-1s-5.4.4-5.4 1M340 701c0 .6 2.7 1 6 1s6-.4 6-1-2.7-1-6-1-6 .4-6 1M355 701c0 .5 2.4 1 5.4 1s5.8-.5 6.1-1c.4-.6-1.7-1-5.4-1-3.4 0-6.1.4-6.1 1M370 701c0 .6 2.7 1 6 1s6-.4 6-1-2.7-1-6-1-6 .4-6 1M385 701c0 .6 2.7 1 6 1s6-.4 6-1-2.7-1-6-1-6 .4-6 1M400 701c0 .6 2.7 1 6 1s6-.4 6-1-2.7-1-6-1-6 .4-6 1M415.5 701c.3.5 3.1 1 6.1 1s5.4-.5 5.4-1c0-.6-2.7-1-6.1-1-3.7 0-5.8.4-5.4 1M430 701c0 .6 2.7 1 6 1s6-.4 6-1-2.7-1-6-1-6 .4-6 1M445.5 701c.3.5 3.1 1 6.1 1s5.4-.5 5.4-1c0-.6-2.7-1-6.1-1-3.7 0-5.8.4-5.4 1M460 701c0 .6 2.7 1 6 1s6-.4 6-1-2.7-1-6-1-6 .4-6 1M103.7 701.8c-2 .2-3.5.7-3.2 1.3.8 1.2 11.5 1.2 11.5 0 0-1.1-3.5-1.7-8.3-1.3M115.5 702c-.3.6.1 1.3.9 1.6 2.3.9 10.8-.5 10.1-1.7-.8-1.2-10.2-1.2-11 .1M130.6 701.9c-.3.5.3 1.1 1.4 1.4 2.7.7 10-.3 10-1.4 0-1.2-10.7-1.2-11.4 0M145.5 702c-.4.6 1.7 1 5.4 1 3.4 0 6.1-.4 6.1-1s-2.4-1-5.4-1-5.8.4-6.1 1M160 702c0 .6 2.7 1 6 1s6-.4 6-1-2.7-1-6-1-6 .4-6 1M47 703c0 .5 1.1 1 2.5 1s2.5-.5 2.5-1c0-.6-1.1-1-2.5-1s-2.5.4-2.5 1M55.5 703c.3.5 3.1 1 6.1 1s5.4-.5 5.4-1c0-.6-2.7-1-6.1-1-3.7 0-5.8.4-5.4 1M70 703c0 .6 2.7 1 6 1s6-.4 6-1-2.7-1-6-1-6 .4-6 1M85.5 703c.3.5 2.8 1 5.5 1s5.2-.5 5.5-1c.4-.6-1.7-1-5.5-1s-5.9.4-5.5 1M328 711.2c2.4 4 2.6 8.8.4 12.9-2.2 4.3-1 4.9 1.5.8 1.2-1.9 2.1-5 2.1-6.9 0-3.6-3.2-10-5-10-.5 0-.1 1.5 1 3.2M264 711.5c-.6 1.6-2.5 5.8-4.1 9.1-3.3 7-3.6 8.2-1.4 6.4.8-.7 1.5-1.8 1.5-2.4 0-.7 1.4-4.1 3-7.5 1.7-3.5 2.9-6.8 2.7-7.5-.3-.6-1 .2-1.7 1.9M230.1 711.6c-1.1.8-2.2 2.5-2.2 3.7-.1 1.6-.3 1.4-.8-.8-.9-4.2-2.6-3.2-2.3 1.3.3 3.4.2 3.5-1 1.7-.7-1.1-1.8-2.9-2.3-3.9-1.5-2.6-2.9-2.5-3.3.3-.4 2.4-.4 2.4-1.6 0-1.5-3.2-5-3.6-6.9-.9-1.4 2.1-1.4 2.1-2-.1-.8-3.1-2.4-1.5-3.2 3.1-.7 4.4-2.5 5.5-2.5 1.6 0-3.5-1-5.6-2.7-5.6-1.1 0-1.3.7-.8 2.9.6 3 .6 3-4.2 3.3-2.6.2-4.7.7-4.5 1.3.1.5 2.2.8 4.7.6 4.4-.2 4.5-.2 4.5 2.8 0 3.6 1.7 4.2 2.3.8.4-2.2.4-2.2.6 0 0 1.3.7 2.3 1.5 2.3s1.7-1 1.9-2.3c.4-2.2.4-2.2.6 0 .1 2.6 2.1 3.2 2.1.6 0-1.4.3-1.3 2 .5 2.9 3 4.5 2.7 6.8-1.3 1.1-1.9 1.1-1.9 1.2.2 0 1.5.6 2.3 1.6 2.3 1.4 0 1.6-.7 1.1-4.5-.4-2.5-.4-4.5-.1-4.5s1.4 2 2.5 4.5c2 4.5 3.9 5.9 3.9 2.9 0-1.3.4-1.2 2.6.5 4.2 3.3 7.4.5 7.4-6.4 0-6.5-3-9.6-6.9-6.9m-15.3 7.2c.3 4.6.1 5.2-1.7 5.2-2.5 0-3.9-5.7-2.1-9 1.8-3.4 3.5-1.8 3.8 3.8m19.7-2.4c.8 4.1-.1 7.6-2 7.6-1.6 0-2.5-2.2-2.5-6.4 0-5.7 3.5-6.6 4.5-1.2m-6.8 5.3c-.4.3-.7 0-.7-.7s.3-1 .7-.7c.3.4.3 1 0 1.4M273.8 713.2c-.2 2.5-.8 3.3-2.3 3.3-1.4 0-2.1-.8-2.3-2.8-.2-1.5-.8-2.7-1.3-2.7-.6 0-.9 3-.7 7.2.2 4.3.7 7.2 1.3 7 .6-.1 1-1.6 1-3.2 0-2.5.4-3 2.2-3 2 0 2.3.5 2.3 3.5 0 1.9.5 3.5 1 3.5 1.3 0 1.3-14.7.1-15.5-.5-.3-1.1.9-1.3 2.7M290 717.4c0 4.1.5 7.8 1 8.1.6.4 1-2.3 1-7.4 0-4.7-.4-8.1-1-8.1s-1 3.1-1 7.4M307 711.9c-1.7 3.3-1.2 9.9 1 12.1 1.1 1.1 2.4 2 3 2 1.3 0 4.4-4.9 3.6-5.8-.6-.6-1.9.7-3 3.3-.8 1.7-3.6-2.7-3.6-5.6 0-5.6 2.1-7.5 4.6-4.2 1.7 2.4 2.9 1 1.4-1.6-1.4-2.7-5.6-2.8-7-.2M56.1 714.1c-3.2 5.3-2.2 12.1 2.3 15.8 2.1 1.8 2 .8-.4-3.1-2.4-4-2.5-6.7-.5-11.5 2-4.7 1.2-5.4-1.4-1.2M161.2 711.8c-.9.6-1.2 2.9-1 7.8.3 6.9.3 6.9 3.7 7.2 1.8.2 3.8-.1 4.4-.7.8-.8.2-1.1-2.1-1.1-2.7 0-3.2-.4-3.2-2.5 0-1.8.5-2.5 2-2.5 2.7 0 2.5-1.8-.2-2.2-1.3-.2-2.4-1.1-2.6-2.1-.3-1.3.3-1.7 2.8-1.7 2.1 0 3-.4 2.8-1.3-.5-1.5-4.8-2.1-6.6-.9M170.7 711.6c-.4.4-.7 4-.7 8.1 0 7.3 0 7.3 4 7.3 2.6 0 4-.5 4-1.3 0-.7-1.2-1.3-2.7-1.2-2.2 0-2.9-.5-3.1-2.3-.3-1.8.1-2.2 2.2-2.2 1.4 0 2.6-.5 2.6-1 0-.6-1.1-1-2.5-1-3.7 0-3.5-3.8.3-4.2 1.5-.2 2.7-.8 2.7-1.3 0-1.2-5.7-1.9-6.8-.9M246.8 711.5c-.2.3 0 3.6.5 7.5 1 7.3 2.7 8.9 3.7 3.4.6-2.9.6-2.9 1.8.4 1.8 5.1 3.2 2.9 3.2-4.9 0-4.4-.4-6.8-1-6.4-.5.3-1 1.6-1.1 2.8-.1 2.2-.1 2.2-.7-.1-.4-1.3-1.1-2.3-1.7-2.3-.5 0-1.3 1-1.7 2.3-.6 2.3-.6 2.3-.7.1-.1-2.1-1.4-3.7-2.3-2.8M72.7 712.6c-.4.4-.7 4-.7 8.1v7.3h5c4.4 0 5.2-.3 6.2-2.5 1.5-3.3 3.6-3.2 5 .2 2 4.9 2-.5 0-7.2-2.6-8.5-3.3-8.1-6.2 3.2-1 4-1.3 4.3-4.5 4.3-3.1 0-3.5-.3-3.5-2.5 0-2 .5-2.5 2.5-2.5 1.4 0 2.5-.5 2.5-1 0-.6-1.2-1-2.6-1-2.1 0-2.5-.4-2.2-2.2.2-1.6 1-2.3 2.5-2.3 1.3 0 2.4-.5 2.5-1 .3-1.2-5.4-1.9-6.5-.9m13 7.6c-.3.7-.5.2-.5-1.2s.2-1.9.5-1.3c.2.7.2 1.9 0 2.5M90.5 713c-.4.7.2 1.4 1.4 1.7 1.9.5 2.1 1.3 2.1 6.9 0 3.6.4 6.4 1 6.4s1-.6 1.1-1.3c0-.6.1-3.7.2-6.7.2-4.3.6-5.5 2-5.8s1.7.5 1.7 5.1c0 3.1.3 6.2.6 7.1.9 2.4 2.4.9 2.4-2.5 0-2.2.5-2.9 2-2.9 1.6 0 2 .7 2 3 0 1.6.5 3 1 3 .6 0 1-3 1-7s-.4-7-1-7c-.5 0-1 1.1-1 2.5 0 3.7-3.8 3.5-4.2-.2-.3-2.5-.7-2.7-5.9-3.1-3.6-.2-6 .1-6.4.8M110.7 712.7c-1.3 1.2-.8 13.1.6 14 1.7 1.1 6.6 1.2 7.3.2.3-.5-.9-.9-2.5-.9-2.8 0-3.1-.3-3.1-3 0-2.6.4-3 2.6-3 1.4 0 2.3-.4 1.9-1-.3-.6-1.8-1-3.2-1-1.9 0-2.4-.4-1.9-1.6.3-.9.6-1.8.6-2s1.1-.4 2.5-.4 2.5-.5 2.5-1c0-1.1-6.3-1.4-7.3-.3M120 719.5c0 4.3.4 7.5 1 7.5s1-1.6 1-3.5.4-3.5.9-3.5 1.5 1.6 2.2 3.5 1.9 3.5 2.6 3.5c1.1 0 1-.7-.3-3.1-1.1-2.3-1.3-3.4-.5-4.2 1.5-1.5 1.4-5-.1-6.5-.7-.7-2.5-1.2-4-1.2-2.8 0-2.8 0-2.8 7.5m6-3.5c0 1.3-.7 2-2 2s-2-.7-2-2 .7-2 2-2 2 .7 2 2M140.1 716.7c.2 8.9 2.8 13 3.9 6.1.4-2.6.7-2.9 1.3-1.5.4 1 .7 2.7.7 3.8 0 3.4 1.9 2 2.5-1.9 1.1-6.6 1.3-6.8 1.4-1.4.1 3.8.5 5.2 1.4 4.9.7-.2 1.1-1.6.9-3.5-.3-2.9-.1-3.2 2.2-3.2s2.6.4 2.6 3.5c0 1.9.5 3.5 1 3.5.6 0 1-3.2 1-7.6 0-5.6-.3-7.5-1.2-7.1-.7.2-1.2 1.6-1 3.1.2 2.2-.1 2.6-2.3 2.6-2.1 0-2.5-.5-2.5-3 0-2.3-.4-3-2-3-1.4 0-2 .7-2 2.2 0 1.3-.5 3-1 3.8-.7 1.1-1 .5-1-2.3 0-4.3-2-4.7-3.1-.6-.7 2.3-.7 2.3-.8.2-.1-1.2-.5-2.5-1.1-2.8-.6-.4-1 1.2-.9 4.2M179.5 713.2c-.3.7-.2 4 .2 7.3.8 6 .8 6 4.6 6.3 2.8.2 3.7 0 3.7-1.2 0-1.1-.9-1.6-3-1.6-3 0-3 0-3-6 0-5.5-1.3-8-2.5-4.8M62 720.5c0 7.5 0 7.5 3.9 7.5 2.2 0 4.3-.5 4.6-1 .4-.6-.8-1-2.9-1-3.6 0-3.6 0-3.6-6.5 0-3.7-.4-6.5-1-6.5s-1 3.2-1 7.5M239.9 723c-.7 2.3-.3 6 .6 5.7 1.5-.5 1.9-3.7.6-5-.6-.6-1.2-.9-1.2-.7M278.5 724c-1 1.6.7 3.1 2.3 2.1 1-.6 1-1-.2-2-1-.9-1.6-.9-2.1-.1M298 725c0 1.3.5 2 1.3 1.7.6-.2 1.2-1 1.2-1.7s-.6-1.5-1.2-1.8c-.8-.2-1.3.5-1.3 1.8M317.6 723.7c-1.1 1.1-.6 2.3.9 2.3.8 0 1.5-.4 1.5-.9 0-1.3-1.6-2.2-2.4-1.4M285.3 759.7c-1.9.7-1.8 21.6.1 23.2.9.8 12.6 1 41.2.9l39.9-.3.3-11.8.3-11.7-21.8-.1c-12-.1-30.1-.3-40.3-.4-10.2-.2-19.1-.1-19.7.2m71 2.3h9.8l-.5 4.7c-.2 2.7-.5 7.2-.5 10.1l-.1 5.3-39.5-.2-39.5-.1V772c0-5.3.3-10 .8-10.5.4-.4 14-.5 30.2-.1 16.2.3 33.9.6 39.3.6"/><path d="M290 766.5c-1.1 1.3-.8 1.4 1.9.9 2.4-.5 3.1-.3 3.1 1 0 .9-.7 1.6-1.5 1.6-2.2 0-1.8 1.7.6 2.3 1.2.3 1.9 1.2 1.7 1.9-.6 1.8-3.9 2.3-4.9.7-.4-.7-1.1-1-1.5-.6-1 1 1.6 3.7 3.6 3.7 2.7 0 5.4-3.5 4.2-5.6-.5-.9-.7-2.6-.4-3.6.9-3.4-4.4-5.2-6.8-2.3M300.5 766.6c-.9.9-1.3 1.9-1 2.2s1.1 0 1.7-.6c1.6-1.6 4.8-1.5 4.8 0 0 .7-1.6 2.7-3.7 4.4-4.3 3.6-3.8 5.4 1.8 5.4 5 0 5.1-1.8.2-2.2l-3.8-.3 3.3-2c3.7-2.2 4.9-4.9 3.2-7-1.6-2-4.5-1.9-6.5.1M317.3 765.7c-2 .7-1.6 6.1.5 7.1.9.5 2.3.7 3 .5 1.8-.7 1.5 1.6-.3 2.3-.8.4-2.2 0-3.1-.7-1.4-1.2-1.6-1.1-1.3.6.6 3.2 5.3 3.2 6.7 0 3.1-6.8.1-12.1-5.5-9.8m4.5 3.5c-.4 2.7-3.3 3.6-4.2 1.3-.8-2.2.1-3.5 2.5-3.5 1.5 0 2 .6 1.7 2.2M327.3 766.2c-.6.7-1 3.5-.9 6.3.1 4.4.4 5 2.4 5.3 3.5.5 5.1-1.4 5-6.1-.2-4.8-1.3-6.7-3.8-6.7-1 0-2.2.6-2.7 1.2m4.7 2.3c0 .8-.9 1.5-2 1.5s-2-.7-2-1.5.9-1.5 2-1.5 2 .7 2 1.5m0 5.5c0 2.1-3.3 2.9-4.5 1-.9-1.5.4-3 2.6-3 1.2 0 1.9.7 1.9 2M337.6 766.3c-1.3.9-1.7 2.4-1.4 5.6.3 5.1 2.7 7.3 5.6 5.5 2.5-1.6 2.9-9.4.6-11.1-1-.7-2.1-1.3-2.4-1.3s-1.4.6-2.4 1.3m4.8 3c.8 3.4-.4 6.7-2.5 6.7-1.6 0-1.9-.8-1.9-4.5s.3-4.5 1.9-4.5c1.1 0 2.1.9 2.5 2.3M310 773c0 .5.9 1 2 1s2-.5 2-1c0-.6-.9-1-2-1s-2 .4-2 1M324 811v25h-7.7c-15.7.1-35.8 7.4-50.3 18.2-3 2.3-5.7 4.4-6 4.7s-2.5 2.4-4.9 4.5c-14.6 12.9-27.4 32-38.2 57.1-2.7 6.1-6.5 23.7-7.8 35.7-4.9 44 8.2 84.4 36.3 112.3 13.3 13.2 27 19.8 46.8 22.5 25.6 3.5 58.7-10.1 80.4-33.1 13.8-14.7 25.5-35.1 33.4-58.4 4.1-11.9 4.8-15.5 3-15.5-.5 0-1 1-1 2.3 0 2.2-3.3 13.3-6.5 21.7-5.5 14.5-15.4 31.2-26.1 44-22 26.2-53.6 40.3-83.4 37-25.3-2.8-44-15.1-60.7-40.1-21.3-31.9-26.8-74.8-15.4-119.7 4.9-19.1 19.9-44 36.6-60.7 15.8-15.9 31.5-25.1 50.5-29.6 9.1-2.2 29-1.7 38.5 1 7.8 2.2 22.1 8.6 24.5 11.1.3.3 2.3 1.8 4.5 3.5 9.9 7.4 21 21.1 27.3 33.9 7.1 14.3 10.4 26.3 13.2 48.1 1.2 8.8.9 30.2-.5 37.7-.4 2.3-.3 3.8.2 3.8.6 0 1.6-5.4 2.3-12.1 1.9-17.9-.6-40.9-6.6-59.9-10.1-32.3-31.1-55.8-58.4-65.6-7.4-2.6-14.9-4.4-18.5-4.4H326v-25c0-16-.4-25-1-25s-1 9-1 25M542.4 839.3c-.2.7-.3 6-.2 11.8l.3 10.4h82l.3-11.8.3-11.7H584c-33.1 0-41.2.3-41.6 1.3M623 850v10h-79v-20h79z"/><path d="M548.5 844.6c-2 2-1.1 3.2 1 1.4 1.2-1 1.9-1 2.7-.2.9.9.7 1.5-.7 2.5-1.7 1.3-1.7 1.4.4 2 1.1.3 2.1 1.2 2.1 2 0 2.3-3.1 2.9-5.1 1.1-2.3-2.1-2.5-.2-.3 2 2 2.1 2.7 2 5.5-.3 2.1-1.7 2.2-2.3 1.2-4-.7-1.1-1-2.7-.7-3.6.7-1.8-1.2-4.5-3.2-4.5-.7 0-2 .7-2.9 1.6"/><path d="M559.8 843.7c-1.7.4-3.2 3.2-2.2 4.2.3.3 1-.2 1.5-1.2.6-.9 1.6-1.7 2.4-1.7 2.9 0 2.6 2.3-.9 5.5-4.8 4.4-4.6 5.5 1 5.5 2.7 0 4.3-.4 3.9-1-.3-.6-1.7-1-3.1-1-3.1 0-3.1-1.4.1-2.8 3.4-1.6 4.1-3.9 2-6.2-1-1.1-2.1-1.9-2.4-1.9-.3.1-1.3.3-2.3.6M575.8 844.2c-.9.7-1.7 2.9-1.8 4.8-.4 7-.3 7.1 3.8 6.8 3.7-.3 3.7-.3 3.8-5.1.1-6.5-2.3-9.2-5.8-6.5m4 2.5c.2.8-.5 1.3-1.7 1.3s-2.1-.6-2.1-1.6c0-1.8 3.1-1.5 3.8.3m-.1 4.9c.8 2-.9 3.6-3 2.8-2-.7-2.2-3-.4-3.7 2.1-.9 2.7-.7 3.4.9M585.8 844c-4 2.4-2.9 12 1.5 12 1.3 0 2.8-.5 3.5-1.2 1.9-1.9 1.5-8.2-.6-10.1-2.1-2-2.2-2-4.4-.7m4.2 6c0 4-1.9 5.7-3.9 3.7-2.6-2.6-.5-9.2 2.5-8 .9.3 1.4 2 1.4 4.3M595.5 844.6c-1.1 1.2-1.5 3-1.3 6.3.3 3.9.6 4.6 2.6 4.9 1.3.2 3-.2 3.8-.8 1.9-1.6 1.8-8.5-.2-10.4-2-2-2.9-2-4.9 0m4.3 5.2c.3 3.6 0 4.2-1.6 4.2-2.4 0-3.7-4.2-2.2-7.1 1.7-3.1 3.5-1.7 3.8 2.9M567.5 851c-.4.6.5 1 2 1s2.4-.4 2-1c-.3-.6-1.2-1-2-1s-1.7.4-2 1M310 853.7c-4.6.7-11.5 2.5-14.5 3.8-1.6.7-4.7 2-6.8 2.9-5.9 2.4-18.7 11.3-25 17.5-6.4 6.1-15.6 17.7-20.3 25.6-6.2 10.3-12.9 26.8-15.5 38.2-1.9 8.3-3.9 25.5-3.9 33.5 0 6.7.5 10.4 2.5 20.4.7 3.3 4 6.4 6.9 6.4 1.4 0 2.6-.5 2.6-1 0-.6-1-1-2.3-1-2.5 0-4.7-1.7-4.7-3.5 0-.7 1.8-1.8 4-2.5 3.4-1.1 4.2-1.1 6.5.4 2.4 1.6 2.5 2 2.5 11.6 0 5.4-.4 10.1-.9 10.5-.5.3-1.9 3-3 6.1-2.1 5.5-2.1 5.5 0 9.7 6.1 11.9 18 25.2 29 32.3 11.4 7.3 29.6 12.1 42.1 11.1 8-.7 19.5-3.4 22.5-5.4 3.7-2.5 4-8.7.7-16.7-.8-2-.9-2 5.4 0 1.3.4 4.4-1.5 10.2-6.1l8.4-6.6 2.8 3c3.2 3.5 5.5 3.9 8.4 1.5 1.8-1.5 1.8-1.5 0-1-1.8.6-1.8.5-.3-1.6 13-18.3 22.3-36.9 25.5-50.8.6-2.5 1.4-5.9 1.8-7.5.4-1.7.9-3.7 1-4.5s.7-4.4 1.3-8c1.9-11.5 1.2-33.9-1.4-45.7-.6-2.5-5.2-5.3-8.7-5.3-1.5 0-4.2-1.8-7.3-5.1-2.8-2.8-6.3-5.7-7.9-6.4-2.8-1.2-2.8-1.2.5-3.6 10.1-7 11.2-13.8 4-23.4-13.9-18.4-35.7-29.7-56.6-29.3-3.8 0-8.1.2-9.5.5m31.1 4.6c11.1 4.2 18.1 8.7 26.4 17.1 9.1 9.2 12 14.1 11.2 19.3-.7 4.3-1.7 5.5-8.7 10.7-11.9 8.8-10.8 8.6-42.5 8.6-28.2 0-28.2 0-35 3.1s-6.8 3.1-11.4 1c-11.1-5.1-21.2-5.4-29.9-1-10.1 5-17 15.1-19.5 28.7-1.9 9.8 0 22 4.3 28.2 1 1.4 2.2 4.7 2.8 7.5 1.1 4.9 1.1 5.1-1.8 7.7-3.4 3.2-7.7 4.5-9.2 3-.6-.6-1.3-6.1-1.6-12.2-1.3-28.1 6.6-57.8 21.5-80.4 7.6-11.5 17.8-22.5 26-28.2 3.2-2.1 6-4.2 6.3-4.5.7-1 11.8-6.4 17-8.3 7.3-2.7 13.7-3.5 26-3.2 9.3.3 12.7.8 18.1 2.9m36.1 57.8c2.6 2.7 4.2 4.9 3.5 4.9s-3.3-2-5.7-4.5-5.2-4.5-6.2-4.5-1.8-.5-1.8-1.1c0-2.4 5.5.4 10.2 5.2m-13.9-2.2c-5.5 3.4-9.5 3.9-36.6 4-26.6.2-26.7.2-31.2 2.8-3.7 2-5.1 2.3-6.8 1.5-2.1-1-2.1-1 .8-2.2 1.7-.6 4.3-1.8 5.9-2.6 2.3-1.1 8.7-1.4 31.5-1.4 26.3-.1 28.9-.2 32.1-2 1.9-1.1 4.4-1.9 5.5-2 1.6 0 1.3.4-1.2 1.9m3.7.6c0 .3-.2.5-.5.5s-.5-.2-.5-.5.2-.5.5-.5.5.2.5.5m7.5 3.5c3.4 3.5 3.6 3.2-5.7 8-6.1 3.2-7.8 3.6-7.8 2 0-.5 2-1.9 4.5-3 4.5-2 5.8-4.3 3.1-5.3-.7-.3-2.6.1-4.1.9-3 1.5-6.5 1.9-6.5.6 0-.9 10.6-6.1 12.6-6.2.5 0 2.3 1.4 3.9 3M262 916.5c0 .3-1.6 1.2-3.6 2-3.9 1.6-11.3 8.5-13.3 12.3-1.8 3.4-.7 3.8 1.4.5 6-9.3 17-15.1 26.6-14 7.9 1 9.3 2.5 2.3 2.5-12.9 0-24 10.2-28.5 26-.8 2.8-2.3 5.1-4.2 6.4-3 2.2-3 2.2-2.4-2.5.4-2.6 1-5.9 1.3-7.4.5-2.1.4-2.5-.5-1.7-.6.5-1.7 3.7-2.3 7-.7 3.2-1.8 6.5-2.5 7.2s-1.1 2.3-.9 3.5c.3 1.2.7 4.9 1 8.2.5 4.9.4 5.6-.5 3.5-8.1-18.2-.2-43.2 16.3-51.7 3.8-2 9.8-3.1 9.8-1.8m97 2c0 .3-.2.5-.5.5s-.5-.2-.5-.5.2-.5.5-.5.5.2.5.5m-34 1.5c-3.6 1.2-2.2 1.3 15.9 1.4 11.1.1 16.5.5 16.8 1.2.4 1.1-7.4 1.9-35.9 4-7.8.5-9.8 1.1-9.8 2.9 0 2.3 1.6 2.6 11.2 1.6 33.8-3.5 40-3.7 35.9-1.1-.8.4-5.7 1.6-11 2.5s-14.2 2.6-19.8 3.6c-10.6 2.1-15.8 1.7-17.5-1.1-.4-.8-1.9-4-3.3-7-2.1-4.7-2.4-5-1.9-2 .4 1.9 1.3 4.8 2.1 6.3.8 1.6 1.2 3.1.9 3.4s-3.5-.8-7.1-2.6c-4.2-2-8.1-3.1-10.8-3.1-2.4 0-4.8-.5-5.5-1.2-1.7-1.7-11.1-1.4-14.7.5-4.4 2.3-9 7.5-12 13.6-2.3 4.4-2.7 6.7-2.7 13.5-.1 9.4 1.4 13.6 6.6 19.3 4 4.5 10 6.9 14.3 5.9 7.8-2 9.8-1.8 14.8 1.3 2.7 1.7 5.5 3.1 6.1 3.1.7 0 2 1.2 3 2.7.9 1.6 5.8 6.1 11 10.2 11.9 9.4 13.6 11 12.9 12.2-1.3 2-4.5.5-14.8-7.1-10.9-8.1-13.1-9.1-14-6.6-.6 1.5 2.3 4.4 8.3 8.5 11.1 7.7 18.4 13.9 25.8 22 7.7 8.4 9.1 11.1 5.8 11.1-1.1 0-18.7-18.2-19.4-20.1-.2-.5.1-.9.8-.9.6 0 .8-.5.5-1-.5-.8-1.1-.7-2.1.1s-2.4.4-6.1-1.9c-2.7-1.7-8.8-5.4-13.6-8.3-4.9-2.9-10.2-7-11.8-9-2.5-3.2-3.7-3.8-8.2-4.4-7-1-11.5-3.4-16.4-8.9-2.3-2.5-4.8-4.6-5.5-4.6-1.6 0-3-2.4-4.9-9-.7-2.5-1.9-5-2.5-5.5-.6-.6-1.4-2.5-1.8-4.4-.5-3-.2-3.7 3.2-6.7 2.5-2.1 4.3-4.8 5.1-7.6 1.9-6.3 4.9-11.9 8.4-15.5 1.7-1.8 2.8-3.6 2.4-3.9-.9-1-6.5 5.3-8.9 9.9-1.1 2.2-2.6 6.2-3.4 8.8-1 3.5-2.5 5.6-5.5 8-3.1 2.5-3.9 3.7-3.4 5.3.4 1.7 4.5 26.8 4.5 28.1 0 1-5.3 5.6-5.8 5.1-.3-.4.4-1.5 1.6-2.6 2.6-2.5 2.6-.6.2-18.3-1.1-8.1-1.7-15.3-1.4-16 .3-.8 1.6-1.9 2.9-2.5 1.8-.8 2.9-2.7 4.1-6.9 2-7.2 7-15.7 10.9-18.7 5.3-4 9.7-5.9 10.5-4.6.6.9 1.3.9 2.8.1 3.3-1.7 9.8-1.3 14.8 1.1 4.6 2.1 4.6 2.1 9 0 3.3-1.7 6.3-2.2 11.9-2.2 7.1 0 10.2-1.3 5.3-2.3-1.3-.2 1.3-.4 5.7-.5 5.4 0 7.2.3 5.5.8m8.7-.3c-.4.3-1 .3-1.4 0-.3-.4 0-.7.7-.7s1 .3.7.7m33.8 2.3c-.7 1.2-7.2 4-8.9 4-1.2-.1 7.3-4.9 8.7-5 .5 0 .5.5.2 1m24.1 2.5c3.2 2.2 4.8 15.7 4.2 35.4-.2 8.9-.7 16.3-1 16.6-.2.3-2.6.1-5.1-.4-2.6-.4-4.7-.5-4.7-.1 0 .9 3.6 2 6.8 2 2.8 0 2.8 1.7.2 11.5-2.3 8.6-5.6 17.5-9.6 26-3.4 7.3-14.4 24.2-17.7 27.3-2.5 2.3-2.5 2.3-4.6-.6-1.1-1.6-3.4-3.5-5.1-4.2-1.8-.7-3.9-2.8-5-4.9-2.7-4.9-4.9-7.6-5.6-6.8-.4.4-.1 1.5.7 2.4 1.1 1.5 1 1.5-.9-.1-1.7-1.5-1.9-2.2-1-2.7.9-.6.2-1.9-2.7-4.9-2.4-2.5-4.1-3.6-4.6-2.9-.4.7-.9.8-1.3.1-.3-.6 0-1.2.6-1.5 1.6-.5-3.8-6.8-9.7-11.5-2.2-1.7-5.3-4.3-7-5.8-1.6-1.4-5.6-4.7-8.8-7.2-3.6-2.8-5.4-4.9-4.8-5.5.5-.5 3.3-1.1 6.3-1.2 7-.4 9.9-1.6 14.2-6 3.6-3.6 7-10 6.3-11.9-.2-.6-1.2.7-2.1 2.9s-3.3 5.6-5.2 7.6c-7.6 7.8-17 7.4-22.9-.9-2.6-3.8-3-5.4-3.3-12-.3-6.1.1-8.7 1.7-12.5 1.1-2.6 1.7-4.7 1.2-4.7s-1.8 2.3-3 5.1c-2.6 6.5-2.7 13.8-.1 20.9 1.9 5.2 1.9 5.4.1 3.1-7.6-9.9-3.7-30.5 6.9-36.1 1.5-.8 2.5-.9 2.9-.2s1.2.8 2.1.2c2.7-1.7 10.3-1.1 13.8 1 4.1 2.5 7.5 9.7 7.6 16.2.1 4.5 1.5 6.9 1.7 3 .5-8.2-2.1-15.3-6.9-19.4-3.8-3.2-3.9-3.8-.9-3.8 2.1 0 17.6-2.7 29.7-5.1 3-.6 9.3-3 14-5.4 7.1-3.6 9.5-4.4 14.5-4.4 3.8-.1 6.8.4 8.1 1.4m-41.7 1.9c-.2.2-2.6.6-5.4 1-3.6.5-4.6.4-3.5-.3 1.3-1 9.9-1.6 8.9-.7m2.1.1c0 .3-.2.5-.5.5s-.5-.2-.5-.5.2-.5.5-.5.5.2.5.5m-13.7 1.2c-.7.2-1.9.2-2.5 0-.7-.3-.2-.5 1.2-.5s1.9.2 1.3.5m-11.8 1.4c-2.2.4-6 .7-8.5.7l-4.5-.1 4.5-.7c2.5-.4 6.3-.7 8.5-.7l4-.1zm-43.9.9c1.4 0 2.2.4 1.9 1-.3.5-2.3 1-4.4 1-2.8 0-4.4.7-6.5 2.9-1.6 1.7-2.5 3.4-2.1 4.1s-.6 2.5-2.3 4.3c-3.4 3.6-5.4 9.6-4.5 13.8.4 2.2.2 2.9-1.1 2.9-1.9 0-2 1.2-.4 7.9.9 3.9 1.6 5.1 3 5.1 2.6 0 9.8 4.7 9.8 6.4 0 1.3-4.3.5-8-1.4-9.9-5.1-13.7-21.5-8-34.6 2.2-5.2 9-12.1 12.7-12.9 1.5-.4 3.3-.8 3.8-1 .6-.2 1.6-.2 2.3.1.8.2 2.5.4 3.8.4m7.4 2.8c0 .4-.5 1.3-1.2 2-2.1 2.1.5 1.3 2.8-.9 2.2-2.1 2.4-2.1 5.9-.5 1.9 1 5 2.3 6.7 3 3.1 1.4 3.1 1.4.7 2.6-1.3.7-3.6 2.6-5.2 4.1-2.6 2.8-4.7 3.7-4.7 2.1 0-.4-1.8-2.6-4-4.8-3.8-4-4.1-4.1-8.2-3.3-6.8 1.3-7.5 1.2-5.5-.8 2.4-2.4 12.7-5.2 12.7-3.5m-15 4.7c0 .3-.2.5-.5.5s-.5-.2-.5-.5.2-.5.5-.5.5.2.5.5m16 5.1c3 3.3 4.1 5.2 3.7 6.7-.3 1.2-1.1 4.8-1.8 7.9-1 4.6-1.7 5.8-3.2 5.8-1.6 0-1.7-.3-.8-1.4 1.9-2.2 2.5-11.1 1.1-14.6-1.4-3.4-5.8-6.9-8.7-7.1-1.3-.1-1.1-.3.7-.9 4.2-1.3 4.6-1.2 9 3.6m-15.7 0c-.5 1.4-.3 1.5 1.5.5 6-3.2 12.2 1.6 12.2 9.5 0 7.5-2 10.9-7.4 12.4-3.7 1-5 1-5.9.1-.9-1-.7-1.1 1.3-.7 1.4.4 3 .3 3.5-.1 1.7-1.3 3.5-5.5 4.4-10.3.5-2.5.9-3.6 1-2.6.1 1.5.4 1.7 1.2.9s.7-1.7-.2-3.4c-2-3.8-3.9-5.2-7.1-5.2-6.6 0-10.9 9.4-7.4 16.4 1.8 3.6 1.4 4.8-.9 2.9-1-.9-1.5-3.1-1.5-7.6 0-3.6-.4-6.4-1-6.4-.5 0-1 2.4-1.1 5.2 0 4.3-.2 4.9-1 3-1.4-3.6.8-10.8 4.3-13.7 3.4-2.9 5-3.2 4.1-.9m6.1 4c3.7 3.7.6 15.4-4.1 15.4-4.9 0-6.1-10.1-1.8-14.5 3-2.9 3.8-3.1 5.9-.9m-42 11.6c.3 1.3.7 4.1.9 6.3.3 2.2 1 8.2 1.7 13.4 1.1 9.1 1.1 9.5-1 11.5-2.2 2.1-2.2 2.1-1-.3s.8-11.8-1-19.1c-1.5-6.6-2.1-14-1.1-14 .6 0 1.3 1 1.5 2.2m32.2 6.4c4.8 2.7 7.5 2.8 17 .9 3-.7 3.1-.5 4.4 4.2.7 2.6 1.7 5.2 2.1 5.7.5.6.9 1.6.9 2.4 0 1-1.7 1.3-7.7 1-7.8-.3-7.8-.3-8.7-5.1-1.1-5.7-2.6-6.3-1.9-.7.3 2.2.3 4 0 4-.4 0-2.7-1.4-5.1-3.2-3.1-2.1-4.7-4.1-5.2-6.2-.9-4.4-1.6-5.3-2.5-3-.7 1.7-.8 1.7-.8-.4-.1-2.9 1.7-2.8 7.5.4m-5.9 5.1c-.4.3-.7 0-.7-.7s.3-1 .7-.7c.3.4.3 1 0 1.4m-17.7 3.1c0 .7-.4 1-1 .7-.5-.3-1-1.6-1-2.8 0-1.8.2-1.9 1-.7.5.8 1 2.1 1 2.8m2.9 11.7c-.1 3.5-.2 3.7-.9 1.5-.4-1.4-.8-3.9-.9-5.5 0-2.3.2-2.6.9-1.5.5.8.9 3.3.9 5.5M301 982c1.1.7 1.2 1.2.4 2s-2.1.7-4.8-.4c-2-.8-3.6-1.7-3.6-2 0-1 6.4-.6 8 .4m-42 5.3c0 .6-1.1 0-2.5-1.3s-2.5-2.8-2.5-3.3c0-.6 1.1 0 2.5 1.3s2.5 2.8 2.5 3.3m46-2.8c0 .3-.2.5-.5.5s-.5-.2-.5-.5.2-.5.5-.5.5.2.5.5m-40.8 8.6c2.5.9 4 2.6 6.2 7 4 8.1 7 10.8 18.8 16.9 12.4 6.5 19.6 10.6 21.2 12.3 17.1 18.6 19.2 21.4 22.2 30.3 1.5 4.4 1.5 4.8-.3 7.1-4.3 5.8-27.1 9.3-40 6.1-8.5-2-16.5-5-21.7-8-11.4-6.7-23.4-19.4-29.6-31.1l-3.3-6.4 3.1-6.5c1.8-3.5 3.2-7.8 3.2-9.4 0-2.2 1.1-4.1 4-6.9 4-3.9 4-3.9 4-11.7V985l4.5 3.4c2.5 1.9 5.9 4 7.7 4.7m39.3-4.1c.3.5.4 1 .1 1s-.8-.5-1.1-1c-.3-.6-.4-1-.1-1s.8.4 1.1 1m-55.5 4.3c0 .2-1 1.2-2.2 2.3-2.3 1.9-2.3 1.9-.4-.4 1.8-2.1 2.6-2.7 2.6-1.9m62.5 1.7c.3.5.4 1 .1 1s-.8-.5-1.1-1c-.3-.6-.4-1-.1-1s.8.4 1.1 1m-60.3 2.7c-.5 2.8-3.8 7.3-5.4 7.3-.4 0-.8-1.4-.8-3.1 0-2.7.2-3 1.5-1.9 1.2 1 1.5.9 1.5-.7 0-1.9 1.7-4.3 3.1-4.3.3 0 .4 1.2.1 2.7m26.5 2.9c1.9 3.9 3.8 6.1 6.3 7.5 1.9 1.1 8.6 5.1 14.8 8.9 6.1 3.8 11.2 6.5 11.2 6s-1.2-1.6-2.7-2.4c-1.6-.8-2.4-1.5-1.9-1.6 1.3 0 10 5.7 12.1 7.9.9 1.1 1.5 2.3 1.2 2.8-.3.4 2.8 4.6 6.9 9.2 8.1 9.2 10.5 15 2.7 6.6-14.4-15.6-20.1-21.2-22.8-22.5-9.8-4.7-26.4-14.2-28.1-16.2-2.4-2.7-6.4-9.5-6.4-10.9 0-.5.9-.9 2-.9 1.4 0 2.7 1.6 4.7 5.6m5.9-1.7c1.5 2.5 5.9 5.5 24.7 17 8.6 5.1 30.7 28 30.7 31.7 0 1.5-2.1-.1-3.8-2.9-3.5-5.9-19.6-21.8-26.5-26.3-3.7-2.4-7-4.4-7.3-4.4s-3.2-1.8-6.4-4-6.2-4-6.5-4c-1.5 0-6.7-4.7-8-7.2-1.9-3.9.7-3.9 3.1.1m27.3 7.3c6.3 4.5 13.9 10.7 16.9 13.7 13.1 13.5 15 15.7 15.7 18.1.6 2.1.2 1.8-2.6-1.5-7.6-9-18.8-20-25.9-25.3-4.1-3.1-9.6-7.1-12.2-9.1-2.7-1.9-4.8-3.6-4.8-3.8 0-1 2.8.7 12.9 7.9m9.5-3.3c-.3.3-1.5-.6-2.7-1.8-2.2-2.4-2.2-2.4.5-.5 1.4 1 2.4 2.1 2.2 2.3m-37.4 1.6c0 .3-.2.5-.5.5s-.5-.2-.5-.5.2-.5.5-.5.5.2.5.5m41 1c0 .3-.2.5-.5.5s-.5-.2-.5-.5.2-.5.5-.5.5.2.5.5m-36.3 2.2c-.4.3-1 .3-1.4 0-.3-.4 0-.7.7-.7s1 .3.7.7m41.8 2.3c1 1.1 1.6 2 1.3 2s-1.3-.9-2.3-2-1.6-2-1.3-2 1.3.9 2.3 2m-38.5-.5c0 .3-.2.5-.5.5s-.5-.2-.5-.5.2-.5.5-.5.5.2.5.5m2.5 1.5c.3.5.4 1 .1 1s-.8-.5-1.1-1c-.3-.6-.4-1-.1-1s.8.4 1.1 1m35.8 2.2c10.3 10.9 15.9 18 15.3 19.4-.5 1.3-2.7-.4-10.2-8.1-5.8-5.9-9.3-10.3-9-11.1.7-1.7 2.4-1.8 3.9-.2m-32.3.3c0 .3-.2.5-.5.5s-.5-.2-.5-.5.2-.5.5-.5.5.2.5.5m36 0c0 .3-.2.5-.5.5s-.5-.2-.5-.5.2-.5.5-.5.5.2.5.5m-29 4.1c0 .2-1.3-.2-3-1.1-1.6-.9-3-1.8-3-2.1 0-.2 1.4.2 3 1.1 1.7.9 3 1.8 3 2.1m35 2.9c0 .3-.2.5-.5.5s-.5-.2-.5-.5.2-.5.5-.5.5.2.5.5m9.9 16.7c1.2 3.4.7 4.2-4.9 8.1-3.3 2.3-3.6 2.2-4.9-1.5-1.5-4.3.3-6.3 2.7-3.1 2.5 3.3 4.5 1.6 3.7-3.1-.6-2.8-.4-3.6.8-3.6.8 0 2 1.4 2.6 3.2m5.9 2.8c-.1.5-3.4 3.4-7.2 6.5-6.5 5.1-10.6 6.9-10.6 4.5 0-.6.8-1 1.8-1 2.2 0 13.2-8.1 13.2-9.8 0-.6.7-1.2 1.6-1.2s1.4.4 1.2 1"/><path d="M291.7 994.1c-3.2 2.3-5.6 4.3-5.3 4.6.8.8 11.6-6.5 11.6-7.7 0-1.3.3-1.5-6.3 3.1M309.9 946.3c-3.8 2.4-8.9 11.5-8.9 15.6 0 4.6 2.1 10.1 4.9 13.3 2.3 2.5 3.6 3.1 7.2 3.2 4.9.1 11.9-3.8 10.1-5.6-.6-.6-.5-1.9.4-3.6.7-1.4 1.1-2.9.7-3.2-.3-.3-.8.1-1.1.9-.2.8-2 3.1-3.9 5.2-2.8 3.1-4.2 3.9-7.1 3.9-8.3 0-12.1-13.5-6.5-23 1.4-2.5 2-2.7 6.2-2.3 2.5.2 6.3 1.2 8.3 2.1 3.4 1.5 3.8 2.1 3.8 5.4 0 3.1.4 3.8 2 3.8s2-.7 2-3.5c0-5.3-3.2-10.7-7.4-12.8-4.8-2.2-6.6-2.2-10.7.6m5.1 1.2c0 1-1 1.5-2.7 1.5-2.7-.1-2.7-.1-.9-1.5 2.5-1.9 3.6-1.9 3.6 0m5.4 1.1c1.6 1.5 2.1 3.4 1.1 3.4-1.5 0-5.4-3.3-4.9-4.1.8-1.3 2.1-1.1 3.8.7m6.3 11.1c-.4.3-.7 0-.7-.7s.3-1 .7-.7c.3.4.3 1 0 1.4"/><path d="M308.6 960.9c.5.5 3.2 1.2 5.9 1.5 5 .5 5 .5 1-.9-4.7-1.6-8.3-1.9-6.9-.6M323 963.9c2.2 1.4 9.7 2.6 8.5 1.3-.5-.5-3-1.3-5.5-1.6q-4.5-.75-3 .3M338 966.8c.8.5 3.8 1.2 6.5 1.6 6.1.7 3.1-.8-3.5-1.8-2.9-.4-4-.4-3 .2M354 969.9c0 .9 4.9 2.1 8.4 2.1 1.6-.1 1.8-.2.6-.9-2.2-1.2-9-2.1-9-1.2M370 972.9c0 .6.9 1.1 2.1 1.1 1.1 0 3 .5 4.1 1.1 1.3.7 2.4.7 3 .1s-.3-1.2-2.7-1.6c-2-.4-4.3-1-5.1-1.3s-1.4 0-1.4.6M582.8 863.6c-.5.4-.8 4.3-.8 8.6v7.8h-24.8c-18 0-25.1.3-26 1.2-1.5 1.5-1.7 24.4-.2 25.3.6.4 1-3.6 1-11.3v-11.9l7.3-.6c3.9-.3 28.7-.6 55-.7l47.7-.1v10.8c0 5.9.5 11.5 1 12.3.7 1 1-2.8 1-11.8V880h-59.9l-.3-8.6c-.2-4.7-.6-8.2-1-7.8M417.5 886.6c-2 2-1.5 3.6 1.3 4.9 2.8 1.2 2.9 2.9.1 2.2-1.3-.3-1.9-.1-1.6.6.8 2.4 4.3 1.9 5.5-.8 1.6-3.5 1.5-5-.4-6.9-2-2-2.9-2-4.9 0m4 2.4c0 2.2-2.9 1.8-3.3-.3-.3-1.4.1-1.8 1.5-1.5 1 .2 1.8 1 1.8 1.8M426.7 886.1c-2.6 1.5-2.1 4.6 1.1 6.3 2.7 1.5 2.7 1.5-.1 1.6-1.6 0-2.6.4-2.2 1 1 1.7 4.4 1.1 5.5-.9 2.6-4.9-.3-10.2-4.3-8m3.1 2.6c-.4 2.2-2.2 2-2.6-.1-.2-1 .3-1.6 1.3-1.6s1.5.7 1.3 1.7M434.6 886.6c-.9.8-1.6 1.9-1.6 2.4 0 1.4 3.1 4.1 4.1 3.5.5-.4.9-.1.9.6 0 .6-.8.9-2 .6-1.3-.3-2 0-2 .9 0 1.7 3.2 1.8 4.8.2 2.4-2.4.9-9.8-1.9-9.8-.4 0-1.5.7-2.3 1.6m3.4 2.4c0 1.1-.4 2-.9 2-1.4 0-2.3-1.8-1.6-3 1-1.7 2.5-1.1 2.5 1M451.7 886.3c-1.7 1.3-2.5 6.5-1.4 8.5 1 1.6 5.4 1.6 5.9-.1.9-2.2-.4-8.5-1.7-9.1-.7-.2-2 .1-2.8.7m2.5 2.2c0 .5-.5 1.1-1.1 1.3s-1.1-.4-1.1-1.3.5-1.5 1.1-1.3 1.1.8 1.1 1.3m.6 4.7c-.6 1.8-2.8 2.1-2.8.4 0-.9.7-1.6 1.6-1.6s1.4.5 1.2 1.2M443.2 889c-1.2 1.6-2.2 3.1-2.2 3.4 0 .2 1.3 1.1 2.9 1.9 2.1 1.1 3.1 1.2 3.4.3.6-1.6-.4-8.6-1.2-8.6-.4 0-1.7 1.3-2.9 3m1.5 2.7c-.4.3-.7 0-.7-.7s.3-1 .7-.7c.3.4.3 1 0 1.4M465.7 886.7c-.7 1.4.5 9.3 1.4 9.3.5 0 .9-2.3.9-5 0-4.4-1.1-6.5-2.3-4.3M472 887.5c0 1.2.4 1.4 1.9.5 3.2-1.7 3.8 1 .8 3.2-3.8 2.7-3.5 4.8.6 4.7 2.3-.1 2.6-.3 1-.6-2.8-.5-2.9-1.9-.3-3.3 1.2-.6 2-2.1 2-3.5 0-2.1-.5-2.5-3-2.5q-3 0-3 1.5M480.4 887.4c-.3.8-.4 2.9-.2 4.8.2 2.5.8 3.4 2.5 3.6 3.1.5 5.1-3.7 3.5-7.3-1.3-2.7-4.9-3.4-5.8-1.1m4.4 3.8c-.4 3.9-2.5 4.8-3.4 1.4-.7-2.9.1-4.6 2.2-4.6 1.1 0 1.4.9 1.2 3.2M489.2 887.2c-2.7 2.7-1.1 8.8 2.3 8.8 2.4 0 3.5-1.7 3.5-5.4 0-2.4-1.7-4.6-3.5-4.6-.6 0-1.6.5-2.3 1.2m4.3 2.7c.7 2.3-.3 5.1-2 5.1-1.5 0-2.6-3.5-1.8-5.6.7-2 3.1-1.7 3.8.5M459 892c0 .5.5 1 1 1 .6 0 1-.5 1-1 0-.6-.4-1-1-1-.5 0-1 .4-1 1M388 896.9c0 2.1-.9 3.7-3.1 5.6-1.7 1.4-2.9 2.8-2.6 3.2.4.3 2.2-1 4.2-3 3.4-3.4 4.5-7 2.5-8.2-.6-.4-1 .6-1 2.4M456 918c0 18 0 18-6 33.8-3.3 8.8-6 16.4-6 17 0 2.1-2 2.3-8 .7-9.2-2.4-14.2-.2-18.4 8.2-3.5 6.9-.7 17.7 5.5 20.9 1.9.9 6 1.6 10.3 1.7 6.5.2 7.4 0 9.8-2.4 3.9-3.9 5.1-6.9 5.2-12.9.1-4-.5-6.6-2.1-9.2-2.2-3.7-2.2-3.8-.3-8.5 1-2.7 4.2-10.9 6.9-18.4 5.1-13.6 5.1-13.6 5.1-31.2 0-11.1-.4-17.7-1-17.7s-1 6.7-1 18m-24.6 52.6c2.7 1-3.7 5.6-6.8 4.8-3.5-.8-3.3-2.2.7-3.9 3.7-1.7 4-1.7 6.1-.9m10 2.5c7.4 3.4 7.2 19.8-.3 24.2-6.5 3.8-12.2 1.2-14.2-6.5-1.6-5.9-.1-11.4 4.2-15.7 3.2-3.3 6.2-3.8 10.3-2m-15.6 4.4c.2.2-.2 2.8-1 5.9-.9 4-1.7 5.5-2.6 5.1-.8-.3-2-.5-2.8-.5-1.7 0-1.9-5.8-.2-9.4.9-2.1 1.6-2.4 3.7-1.9 1.4.3 2.7.7 2.9.8m.1 16.5c1.4 2.9 1.6 4 .6 4-1.7 0-6.3-3.7-7.5-6.1-1-1.7-.7-1.9 1.9-1.9s3.4.6 5 4"/><path d="M434.2 980.3c-3.2 3.4-3 9.1.3 11.3 2.3 1.5 2.7 1.5 5 0 1.4-.9 2.3-2.2 1.9-2.8q-.6-1.05-1.5.3c-1.2 2.1-1.6.8-1.1-3.9.3-3.5.7-4.1 1.8-3.1 1.1.9 1.4.8 1.4-.3 0-.8-1.1-2-2.5-2.6-3.2-1.5-2.8-1.6-5.3 1.1m3.8 3.5c-.1 2.4-2.6 6.7-3.3 5.5-.3-.5-.2-1.5.4-2.3.5-.8.9-2.5.9-3.8s.4-2 1-1.7 1 1.4 1 2.3M605.9 915.7c0 4.3-.2 9.1-.4 10.8-.2 1.6.1 3.5.6 4.2.8.9 10.4 1.2 41.5 1.3H688v-22.7l-14.2-.5c-7.9-.3-26.3-.6-41-.7l-26.8-.3zm80.1 4.4v9.9l-39.2-.2-39.3-.3-.2-9.8-.2-9.8 39.4.1 39.5.2z"/><path d="M610.7 915.4c-.7 1.8.8 2.2 1.8.6.9-1.5 3.5-1.2 3.5.4 0 .8-.6 1.7-1.2 2-.9.3-.8.8.5 1.6.9.6 1.7 1.7 1.7 2.4 0 2.1-2.8 2.7-4.5.9-2-1.9-3.3-.9-1.5 1.2 1.5 1.9 5.4 2 6.9.2.7-.9.8-2.9.3-5.8-.7-4-1-4.4-3.8-4.7-2.1-.2-3.3.2-3.7 1.2M621 915.5c-1.8 2.2-.5 3.1 1.5 1.1 1.8-1.8 3.1-2 3.9-.7.9 1.4-.4 4.1-2 4.1-1.3 0-4.4 3.7-4.4 5.2 0 .5 2.1.8 4.7.8 5.1 0 5-1.6-.2-2.2-3-.3-3-.3.1-2 3.4-1.9 4.7-3.9 3.8-6.3-.8-2-5.8-1.9-7.4 0M637.4 916.5c-.7 3 1 5.5 3.8 5.5 1.7 0 1.8.3.8 1.5-.9 1.1-1.7 1.2-3.2.4-1.6-.9-1.9-.8-1.6.3.7 2.1 5 2.2 6.5.2 1.6-2.2 1.7-7.6.1-9.2-2.2-2.2-5.7-1.4-6.4 1.3m5.6 1.5c0 1.3-.7 2-1.9 2-2.2 0-3.5-1.5-2.6-3 1.2-1.9 4.5-1.1 4.5 1M647.8 914.7c0 .5-.2 1.9-.3 3.3-.2 1.4-.4 2.9-.5 3.5-.8 3.5 2.9 6.1 6.2 4.4 1.6-.9 1.8-3.5.9-11.2-.1-.4-1.4-.7-3.1-.7-1.6 0-3.1.3-3.2.7m5 2.5c-.3.7-1.1 1.3-1.8 1.3s-1.5-.6-1.7-1.3c-.3-.7.4-1.2 1.7-1.2s2 .5 1.8 1.2m.1 4.2c.9 1 .8 1.6-.4 2.6-1.9 1.6-4.1-.1-3.2-2.4.8-2 2.1-2 3.6-.2M659.7 915.4c-2.1 1.6-2.2 2.6-.2 2.6 1.1 0 1.5 1.1 1.5 4 0 2.2.5 4 1 4 1.2 0 1.4-10.6.2-11.4-.4-.2-1.5.1-2.5.8M631 921c0 .5.7 1 1.5 1s1.5-.5 1.5-1c0-.6-.7-1-1.5-1s-1.5.4-1.5 1M490.2 921.7l.3 11.8 39.9.3c29.1.2 40.2-.1 41.3-.9 1-.9 1.3-3.7 1.1-11.8l-.3-10.6-41.3-.3-41.3-.2zm80.6 0-.3 9.8-39.2.3-39.3.2v-20h79.1z"/><path d="M496.2 916.2c-1.7 1.7-1.5 3.3.3 1.8.8-.7 2.3-.9 3.2-.5 1.7.6 1.7.7-.2 2.1s-1.9 1.6-.2 2.5c2.6 1.5 2.1 3.9-.8 3.9-1.4 0-2.5-.5-2.5-1.1 0-.5-.5-.7-1-.4-1.8 1.1 1 3.5 4.1 3.5 3.2 0 4-1.7 3.4-7.4-.5-5.1-3.5-7.2-6.3-4.4M505.9 916.9c-1.3 1.1-2.1 2.3-1.7 2.7.5.4 1.7-.1 2.8-1.1 1.4-1.3 2.4-1.5 3.1-.8 1.1 1.1.2 4.3-1.2 4.3-1.2 0-4.9 3.8-4.9 5 0 .5 2 1 4.5 1s4.5-.5 4.5-1c0-.6-1.5-1-3.2-1h-3.3l3.3-2.6c3.6-2.9 4.1-5.8 1.3-7.4-2.5-1.3-2.5-1.3-5.2.9M522.8 916.1c-3.5 2-1.6 7.9 2.4 7.9 1 0 1.8.5 1.8 1.1 0 .7-1.1.9-3 .6-2.3-.5-2.8-.3-2.3.8.7 1.9 4.7 1.9 6.2.2 2.3-2.9 2.4-7.4.2-9.6-2.4-2.4-2.9-2.5-5.3-1m4.2 2.4c1.3 1.6.6 3.5-1.5 3.5-1.8 0-2.8-1.7-2.1-3.5.7-1.9 2-1.9 3.6 0M533.1 915.9c-1.4.9-2.4 7.4-1.5 10.3.7 2.3 5.7 2.4 7.5.2 1-1.3 1-2 0-3.6-.9-1.4-.9-2.3-.1-3.3s.6-1.7-1.2-2.9c-2.6-1.8-2.8-1.9-4.7-.7m4.2 2.6c.1.5-.6 1.1-1.5 1.3-1.1.2-1.8-.3-1.8-1.3 0-1.7 3-1.8 3.3 0m.5 5.8c.3 1.2-.3 1.7-2.2 1.7-2.5 0-3.5-1.8-1.9-3.4 1.2-1.2 3.8-.2 4.1 1.7M541.7 915.6c-1.3 1.3.5 2.4 2.9 1.8 2.7-.7 3 .2 1 3.1-.7 1.1-1.6 3.3-2 4.9-.6 2.6-.5 2.8.8 1.7.9-.8 1.6-2 1.6-2.8s.9-2.8 2.1-4.4c1.1-1.6 1.7-3.3 1.4-3.9-.7-1.1-6.8-1.4-7.8-.4M515 923c0 .5.9 1 2 1s2-.5 2-1c0-.6-.9-1-2-1s-2 .4-2 1M642.6 970.4c.7 36.4.7 36.4-2.2 37.9-1.6.8-4.1 1.7-5.5 2-6.9 1.7-14.9 15.7-8.9 15.7 1.3 0 2 .7 2 2s-.7 2-2 2c-3.8 0-1.9 4.3 4.9 11.1 6.1 6.1 8.5 7.2 15.7 7.3 9.2.1 13.8-3.9 17.8-15.5 1.9-5.3 2-7.2.4-11.8-2.7-8-7.7-12.3-15.9-13.6-3.6-.5-3.6-.5-4.2-13.3-.4-7-.7-23.4-.7-36.5 0-15.3-.4-23.7-1-23.7-.7 0-.8 12.1-.4 36.4m-1.2 41.4c-5.2 4.6-7.8 10.7-7.7 18.2 0 6.2 3 16 4 13.3.2-.7 0-2.1-.6-3.2-1.9-3.5-1.1-4.7.9-1.3 2.1 3.4 7.4 7.2 10 7.2.9 0 3.3-.9 5.5-2 4.7-2.4 5.1-2.5 3.5-.6-2 2.5-7.7 3.8-13.1 3.1-11.3-1.6-16.8-12.9-12.4-25.6 1.9-5.3 4.1-8.1 8-10.2 4.5-2.5 5.4-2 1.9 1.1m12.6-1.2c3.7 1.5 9.4 7.4 7.2 7.4-.5 0-.7 2.9-.4 6.8.3 4.8 0 7.8-1.2 10.6-.9 2.1-1.3 4.2-1 4.7s-.2.6-1 .3c-.9-.3-1.6-.2-1.6.3 0 1.5-4.7 3.3-8.4 3.3-3.3 0-6.2-2.3-8.5-6.7-1.9-3.7-1.4-13.4 1-17.2 2.2-3.7 1.8-5.6-.7-2.5-1.4 1.8-1.5 1.8-.4-.4s8.5-8.2 10.1-8.2c.5 0 2.7.7 4.9 1.6m-23.3 8.5c-2 4.2-3.2 5.8-3.9 5.1-1.5-1.5-.3-5.3 2.7-8.5 4-4.2 4.4-3.2 1.2 3.4m6.4 3.6c-.8 1.5-1 1.5-1.1.2 0-1.7 1-3.2 1.8-2.5.2.3-.1 1.3-.7 2.3m-1.4 9.5c-.2 1.3-.4.3-.4-2.2s.2-3.5.4-2.3c.2 1.3.2 3.3 0 4.5m-6.7 3.1c0 .5-.4.5-1 .2-.5-.3-1-1.4-1-2.3 0-1.5.2-1.5 1-.2.5.8 1 1.9 1 2.3"/><path d="M645.8 1012.6c-2.1.9-3.8 2-3.8 2.5 0 1.2.3 1.2 3.6-.6 4.2-2.2 7.8-1.8 11.3 1.1 3.6 3 4.2 1.8.8-1.4-3.1-2.9-7.4-3.5-11.9-1.6"/><path d="M647.5 1016.9c.3.5 2.5 1.7 5 2.7 2.8 1 4.5 2.3 4.5 3.3 0 1.2-.2 1.3-.8.3-.5-.7-1.6-1-2.5-.6-.9.3-1.7.2-1.7-.3 0-.6-1.8-1.7-4-2.6-4.7-1.8-5.4-.5-.9 1.8 3 1.6 3 1.6-2.1 5.8-3.1 2.5-4.9 4.6-4.5 5.5.3.8.8 2.5 1.1 3.8.6 2.4.6 2.4 4.2-.7 3.6-3.2 5.2-2.7 3.3 1-1.4 2.5-1.4 5.1-.1 5.1.6 0 1-.9 1-2.1 0-1.5.5-1.9 1.5-1.5 1 .3 1.8-.1 2.1-1.2 1.4-4.3 4.6-12.9 5.5-14.4.7-1.5 0-2.2-4.6-4.3-5.8-2.6-8-3.1-7-1.6m7.3 12.2c-.6 1.6-1.2 2.9-1.3 2.7-.6-.6.8-5.8 1.6-5.8.4 0 .3 1.4-.3 3.1m-2.8 7.4c0 .3-.2.5-.5.5s-.5-.2-.5-.5.2-.5.5-.5.5.2.5.5M530.9 935.5c-.4.3-.4 4.4-.2 8.9.3 4.6.3 9.5 0 10.8-1 3.8-6.9 5.1-18.8 4.3-16.4-1.2-24.9 1.6-35.2 11.4-7.2 6.9-9.9 12.3-10.5 21.8-.3 4.4-1 7.7-1.8 8.4-1.1.9-1.3 3.9-.8 15.3.6 13.2.5 14.4-1.5 18.4-2.2 4.3-2 9.2.3 9.2 1.6 0 3.6 4.3 3.6 7.6 0 1.3-.9 3.2-2 4.1-2.4 2.1-2.5 3.6-.5 5.7 2.1 2.1 5.8.8 14.1-5.1 13.3-9.4 12.1-9 16.2-5.1 6 5.6 6.3 5.8 9.2 7.3 1.5.8 5.7 2.5 9.3 3.9 3.6 1.3 8.7 3.6 11.2 5.1 6.6 3.6 17.6 12.8 22.1 18.1 4.9 6.1 10.6 10.1 16.7 11.9 4.4 1.3 5.3 1.3 7.3 0 4.8-3.2 14.4-12.8 14.4-14.6 0-1-1.2-4.4-2.6-7.6s-4.3-9.6-6.4-14.3c-7.1-15.8-8.5-27.3-4.9-41.8 1.3-5.3 1.3-5.3 6.9-4.8l5.5.6-5-1.7c-2.7-.9-5.2-1.8-5.4-2-1-.7 2.6-9.2 6-14.3 5.9-8.8 14.7-16.6 25.4-22.5 6.7-3.6 7.5-4.4 6.8-6.3-.6-1.5-4.6-6.7-10.7-13.9-2.4-2.8-6.3-3-13.2-.4-8.6 3.1-19.8 4.3-37.4 3.9l-16.5-.3-.5-11.3c-.3-6.3-.8-11.1-1.1-10.7m67.1 19.8c2.3 1.8 11 12.8 11 13.8 0 .5-2.8 2.3-6.2 4-10.8 5.4-21.4 15.1-27.3 25.1-3.5 5.8-4.4 8.6-6.6 19.3-.7 3.3-1.6 6.4-2.1 6.9-.4.6-.8 4.3-.8 8.4 0 8.2 2.4 17.6 7.1 27.9 3.1 6.8 3.5 8.3 1.9 8.3-1.1 0-1.4 4.3-.4 5.3.4.3 1.4.2 2.4-.3 1.5-.8 2-.2 3.4 3.3.9 2.4 1.6 5 1.6 5.9s-2.6 3.8-5.7 6.5c-3.2 2.6-5.9 5.1-6.1 5.5-.5 1.2-6 1-10.5-.4-2.9-.9-6.8-4-15.1-12.3-11.2-11.2-19.4-16.9-30.6-21-8.2-3.1-13.3-6-17.9-10.2l-4.6-4.1 3.7-1.6c6.2-2.6 19.9-1.8 30.3 1.9 4 1.4 10.6 4.9 11.6 6.2.6.7 1.6 1.3 2.2 1.3 1.8 0-3.4-4.8-7.2-6.6-6.1-2.9-20.3-6.3-26.3-6.4-7.4 0-14 2.6-25.1 10.1-4.8 3.2-8.9 5.9-9.1 5.9s-.6-3.7-.8-8.2c-.4-6.8-.8-8.4-2.7-9.9-1.2-1-2.7-1.9-3.4-2.2-.9-.3-.9-1.1.1-3.9 1.4-4.1 1.5-11.5.2-21.7-.8-6-.7-7.9.4-9.6.8-1.2 1.7-5.2 2.1-9.1.4-3.8 1.8-9.2 3-11.9 2.8-6.2 10.2-13.5 17.5-17.1 8.3-4.2 23-4.4 43.9-.7 2.4.4 3.2.2 2.7-.6-.4-.6-2-1.1-3.6-1.1s-3.2-.5-3.5-1c-.7-1.1 6.3-1.4 25-1 12.9.2 25.9-1.4 32.4-4 5.4-2.1 11-2.4 13.1-.7m-130.5 85.9c.6.5 1 5 1 10.1 0 8.8-.1 9.2-2.2 9.5-2.9.4-2.9-.7-.2-5.3 2-3.3 2.1-4 .8-7.7-.7-2.2-2.1-4.5-3.1-5.2-2.7-1.6-2.3-3.9.5-3.1 1.2.4 2.7 1.1 3.2 1.7"/><path d="M589 956.9c-1.6.9-16.6 6-23.5 8-2.2.6-8.8 1.5-14.7 2-9.6.8-11.5 1.3-17.9 4.8-7 3.7-19.9 15.2-19.9 17.6 0 .7 2.2-1.1 4.8-3.8 11.3-12.1 19.9-16.2 36.1-17.5 7.3-.6 13.4-1.7 19.6-3.8 12.4-4.1 17.5-6.3 17.5-7.3 0-1.1-.1-1.1-2 0M538 981.3c-4.4 1.4-11.1 8.2-14 14.3-2.7 5.8-3.7 16.1-2.1 22 1.3 4.8 6 11.6 9.5 14 3.5 2.2 9.3 2.8 14.5 1.4 7.4-2 17.1-14 15.7-19.4-.4-1.5 0-1.7 2.5-1.4 3 .5 4-.6 1.4-1.6-1.1-.4-1.5-2-1.5-5.5 0-10-5.5-19.3-13.7-23.5-3.6-1.8-7.2-1.9-12.3-.3m8 3c0 1.7-.9 2.6-3.7 3.6-2.1.8-5.2 2.9-7 4.8-2.6 2.7-3.7 3.2-5.8 2.7-3-.7-3-1.2-.8-4.4 3.7-5.4 9.4-8.9 14.6-9 2.2 0 2.7.4 2.7 2.3m8.4 1.6c3 2.6 5.8 7 5.1 8.1-.3.6-1.7-.3-3.1-1.9-1.4-1.7-3.4-3.3-4.4-3.6-1.1-.4-2-1.3-2-2.1s-.4-1.2-1-.9c-.5.3-1-.1-1-1 0-2 3.4-1.2 6.4 1.4M550 995c2.3 4.4 2.6 11.3.9 17.1-2.2 7.1-9.9 13.3-14.4 11.5-2.4-.9-1.8-2.4 1.3-3.1 5.7-1.2 9.7-6.6 10.8-14.2.7-6-1.2-11.4-5.1-13.9-2.5-1.6-2.6-1.9-.9-2.5 2.8-1 5.1.7 7.4 5.1m3.9-3.3c1.1 1 3 3.6 4.1 5.8 1.5 3.2 1.9 3.6 2 1.7 0-1.3.4-2 1-1.7s1 3.3 1 6.6c0 5.2-.2 5.9-2 5.9-1.4 0-2 .7-2 2.1 0 5.8-8.2 13.9-14.1 13.9-2 0-1.8-.4 1.9-3.5 7.7-6.6 10.3-19 5.8-27.8-2.5-5-1.6-6.2 2.3-3m-11 2c2.9 2.8 4.1 5.8 4.1 10.3 0 8.4-5.4 15.4-11.4 14.8-2.6-.3-3.3-.9-4.5-4.3-1.7-5.2-.3-12.7 3.5-18.4 2.9-4.5 5.4-5.2 8.3-2.4m-12.4 4.2c1 1.8-1.7 2.3-3.3.7-1.5-1.5-1.5-1.6.5-1.6 1.2 0 2.4.4 2.8.9m-3.1 2.6c2 1.3 2.2 2.1 1.6 4.8-.7 3.4.8 11.7 2.9 15.5 1.2 2.2.8 4.2-.9 4.2-.5 0-.7-.7-.4-1.5.4-.9 0-1.5-1-1.5-.9 0-1.6.4-1.6 1 0 2.4-1.9.7-3.4-3-1.6-4-2.1-14.4-1-18.8.7-2.6.8-2.6 3.8-.7m31.2 18.6c-2.4 5.7-12.6 14.3-14.1 11.9-.7-1.2.2-3 1.6-3 2.3 0 9.6-6 11.4-9.4 2.4-4.4 3-4.1 1.1.5m-20.2 7.4c4.7 2 5.1 5.5.7 5.5-2.7 0-9.1-2.8-9.1-4 0-.3 1-1 2.3-1.6 1.2-.7 2.3-1.2 2.3-1.3.1 0 1.8.6 3.8 1.4M494.4 1010.7c-2.7 3.2-7.6 8.7-10.9 12.3-3.3 3.5-6.6 7-7.2 7.8-1.6 1.7-1.7 2.5-.1 1.6 1.4-.9 11.4-11.5 15.4-16.4 1.6-1.9 3.7-4.4 4.7-5.5 2-2.1 4-5.5 3.4-5.5-.2 0-2.6 2.6-5.3 5.7M560.5 1035.8c-3.7 5-10.4 10-14.4 10.8-3.5.7-5.2 2.4-2.4 2.4 5.2-.1 15.4-7.5 19.8-14.3 2.6-4.1.3-3.3-3 1.1M547 1063.6c0 .3 1.9 3.3 4.3 6.7s6.5 9.9 9.1 14.5c4.9 8.2 7.4 10.5 4.2 3.7-1.8-3.8-1-6.5 1.9-6.5.7 0 1.8-.7 2.5-1.6 1.1-1.2 1-1.8-.3-3.1-1.5-1.5-1.9-1.4-4.9 1.7-1.7 1.9-3.3 2.9-3.5 2.3-.5-1.5-12.3-18.3-12.9-18.3-.2 0-.4.3-.4.6m21 14.9c0 .3-.2.5-.5.5s-.5-.2-.5-.5.2-.5.5-.5.5.2.5.5M570.1 1073.4c-1.1 1.4-.5 4.6.9 4.6 1.5 0 3-2.8 2.4-4.4-.8-2-1.8-2-3.3-.2M400.5 979c-.3.4.8 1 2.4 1.3s4 .9 5.5 1.3c1.4.3 2.6.2 2.6-.3 0-1.1-9.9-3.2-10.5-2.3M587.9 1016.6c1.8.8 4.1 1.2 5 .8 1.2-.5.9-.9-1.4-1.4-5.3-1.3-7.3-1-3.6.6M598 1018c0 1.1 6.8 2.5 7.7 1.6s.2-1.3-3.9-1.9c-2.1-.3-3.8-.2-3.8.3M611.5 1020.7c.6.6 2.8 1.3 4.9 1.6 5.1.8 3.4-.9-1.9-1.8-2.6-.5-3.7-.4-3 .2M341.5 1061.4c0 5 .3 6.2 1.3 5.4 1.6-1.4 1.6-7.9-.1-10.2-1-1.4-1.2-.7-1.2 4.8"/></svg>