<svg xmlns="http://www.w3.org/2000/svg" viewBox="0 0 992 1402" fill="currentColor"><path d="M487.7 174.7c-1.1 1.1-.8 23.1.3 23.8.6.4 20.3.9 43.9 1.2l42.9.6.5-4.9c.3-2.7.4-8.3.4-12.4l-.2-7.5-18.5-.6c-26.1-.9-68.5-1-69.3-.2m61.4 2.3c25.9 0 24.2-1 23.1 13.9l-.5 7.4-14.1-.7c-7.8-.3-26.1-.6-40.8-.6H490v-21.2l18.3.6c10 .3 28.4.5 40.8.6"/><path d="M498 186c0 6.7.3 8 1.6 8 1.1 0 1.4-.5 1-1.6-.3-.9-.6-4.5-.6-8 0-3.6-.4-6.4-1-6.4s-1 3.3-1 8M507.6 179.6c-.8 2.2.3 3.3 1.4 1.4.8-1.2 1-1.2 1.6.3.3.9 0 2.5-.7 3.4-1.1 1.3-1.1 1.7-.1 2 1.3.5 1.7 5.3.4 5.3-.4 0-1.3-.5-2-1.2-2-2-2.4-.2-.4 2.2 1.7 2 2 2.1 3.4.6 1.5-1.5 1.6-2.2.9-14.4-.1-1.8-3.8-1.5-4.5.4M529.3 180c-1.8 2.7-1.7 12.4.1 13.9 2.5 2.1 4.6.2 4.6-4 0-2.8-.6-4.2-2-5.1-2.7-1.7-2.7-4.1.1-3.3 1.7.6 2 .3 1.7-1.1-.5-2.6-3.1-2.8-4.5-.4m3.2 8c.7 2.1 0 4-1.6 4-.5 0-.9-1.4-.9-3 0-3.4 1.5-4 2.5-1M539.4 179.3c-.3.8-.4 3-.2 4.9.2 2.5.8 3.3 2.3 3.3 1.8 0 2.1.6 1.7 3.5-.3 1.4-2.9 1.2-3.5-.3-.3-.6-.6-.2-.6 1.1-.1 3 2.8 4.1 4.6 1.6 2.1-2.8 1.3-7.7-1.4-8.9-1.3-.5-2.3-1.3-2.3-1.7 0-.3 1-.8 2.3-1 1.2-.2 2.2-1 2.2-1.8 0-2-4.3-2.6-5.1-.7M551.3 179.1c-2.9 3.7-2.6 14.2.5 15.4 2.5.9 4.2-2.2 4.2-7.6 0-5.5-2.8-10.1-4.7-7.8m2.7 8c0 3.6-.4 4.9-1.2 4.7-1.4-.5-2.3-7-1.4-9.5 1.1-2.8 2.6-.1 2.6 4.8M560 187c0 8.7.1 9 2.3 9 2.6 0 4.7-1.7 4.7-3.9 0-1.2-.3-1.2-1.2-.3-2 2-3.8 1.4-3.8-1.3 0-1.6.6-2.5 1.5-2.5.8 0 1.5-.7 1.5-1.5s-.7-1.5-1.5-1.5c-.9 0-1.5-.9-1.5-2.1 0-1.8.4-2 2.5-1.5 1.4.4 2.5.3 2.5-.2 0-1.5-2.4-3.2-4.7-3.2-2.2 0-2.3.3-2.3 9M517 187c0 .5 1.6 1 3.5 1s3.5-.5 3.5-1c0-.6-1.6-1-3.5-1s-3.5.4-3.5 1M528.2 213.7c0 6.5-.1 13.3-.1 15.1l-.1 3.3-35.7-.5c-83.2-1.2-326-1.9-326.6-.9-.7 1.1-2.1 525-1.4 524.3 1.2-1.3 1.7-69.1 1.7-269.6 0-119.8.3-225.9.7-235.8l.6-17.8 118.6.6c65.2.4 141.6.9 169.6 1.1 28.1.3 130.4.5 227.4.5h176.4l-.7 217.2c-.3 119.5-.9 229.7-1.1 244.8-.3 15.1-1 79.5-1.6 143s-1.3 117.7-1.4 120.5c-.5 9.6-1.7 281-1.2 280.5.6-.6 1.6-74 2.2-174 .7-115.6 1.7-228.9 2-233.5.2-2.2.4-32.4.6-67 .1-34.7.6-76.5 1-93s1-122.2 1.3-234.8c.5-162.5.3-204.9-.7-205.2-.6-.3-75-.6-165.2-.8l-164-.2v-14.4c-.1-9.6-.4-14.6-1.2-14.8-.7-.3-1.1 3.3-1.1 11.4"/><path d="M365.4 521.9c-7 4.2-8.5 16.2-2.9 22.1 5.3 5.5 13.3 6.3 18.9 1.9 8.3-6.5 7.2-19.8-2.1-24.7-3.3-1.8-10.4-1.4-13.9.7m14 2c11 7.3 4.5 24.8-8.3 22.6-8.4-1.4-12.7-10.6-8.6-18.5 3-5.8 11.3-7.7 16.9-4.1"/><path d="M369.8 526.4c-2.9 1.4-3.2 5.9-.5 6.4 1.6.3 1.8-.1 1.2-2.7-.6-2.7-.4-3.1 1.4-3.1 3.5 0 2.8 5.3-1.4 9.7-4.9 5.2-4.6 6.3 1.9 6.3 5.1 0 5.4-.2 5.9-2.8.5-2.8-.2-4.7-1-2.5-.5 1.3-5.3 1.9-5.3.7 0-.3 1.4-1.7 3.1-3.1 5.9-5 1.6-12.3-5.3-8.9M634.2 535.1c-1.3.5-2.8.7-3.3.3-1.7-1-6.7 2.9-7.6 5.9-.5 1.9-2.2 3.8-4.4 5.1-7.6 4.4-8.3 5-7.5 7.9 1.1 4.6 3.7 5 10.1 1.6 4.3-2.3 6.4-2.9 8.4-2.3 3.9 1.1 5.3.6 8.2-2.8 2.6-3.1 2.6-3.1 13-2.7 6.4.3 10.5 0 10.7-.6.1-.6-3.6-1.1-9.4-1.3-7.8-.2-9.5-.5-9-1.7.3-.8.1-1.7-.4-2-.6-.4-1-1.3-1-2.1 0-.9-.6-2.1-1.3-2.7-3.1-3-4.3-3.4-6.5-2.6m1.8 2.4c0 .3-.2.5-.5.5s-.5-.2-.5-.5.2-.5.5-.5.5.2.5.5m4 3.1c0 1.6-1.6 1.9-2.5.4-.8-1.3.4-3.2 1.6-2.5.5.4.9 1.3.9 2.1m-8.5.7c1.8 1.5 2.8 3.6 3.2 6.5.5 3.8.4 4.2-1.6 4.2-2.4 0-2.5-.4-1-3.1 1.3-2.6-1.2-6.9-4.1-6.9-2 0-2.6-1.1-1.3-2.3 1.1-1.1 2.1-.8 4.8 1.6m3.9-.1c.9 1.2 1.6 2.9 1.6 3.8-.1.8-.8.1-1.7-1.5-.9-1.7-2.1-3.3-2.7-3.7-.8-.6-.8-.8.1-.8.6 0 1.9 1 2.7 2.2m-5 4.4c1 2.6-.5 3.9-2.1 1.9-.7-1.1-1.3-2.2-1.3-2.7 0-1.5 2.8-.8 3.4.8m10.6-.6c0 .5-.5 1-1.1 1-.5 0-.7-.5-.4-1 .3-.6.8-1 1.1-1 .2 0 .4.4.4 1m-14.6 2.6c1 2.6-.5 3.9-2.1 1.9-.7-1.1-1.3-2.2-1.3-2.7 0-1.5 2.8-.8 3.4.8m-4 2c1.1 2.7.7 3.7-.9 2.4-1.6-1.4-2-4-.6-4 .5 0 1.2.7 1.5 1.6m-3 2.7c1.5 2.4-.3 3.5-2 1.3-.8-1.1-1.4-2.4-1.4-2.9 0-1.3 2.2-.3 3.4 1.6m-3.6 2.7c.3 2.1.2 2.2-1.2 1.1-1.9-1.6-2.1-4.4-.3-3.9.6.3 1.4 1.5 1.5 2.8M672.5 535.2c-7 3.8-9.6 13.1-5.6 19.5 2.2 3.5 8.6 7.3 12.2 7.3 3.4 0 10.4-3.7 11.7-6.3 4.1-8 3.3-13.9-2.7-18.8-2.9-2.4-4.5-2.9-8.6-2.9-2.7 0-5.9.6-7 1.2m12.5 2.3c8.4 4.3 7.7 17.4-1 20.9-7.4 2.9-15.1-1.3-16.6-9.2-1.8-9.4 8.7-16.3 17.6-11.7"/><path d="M675.4 541.2c-.3.5.2 1.1 1 1.4 2.3.9 2.3 10.9 0 11.8-2.7 1-.7 2 4.1 2.1 4.4.1 5.9-1 3-2.1-1.1-.5-1.5-2.3-1.5-7.5 0-6.9 0-6.9-3.1-6.7-1.7.1-3.3.6-3.5 1M371 557.9c0 7.5-.1 8.1-2.1 8.1-7.9 0-11.8 9.4-6.4 15.8 2.4 2.9 2.5 3.4 2.5 18.6 0 15.6 0 15.6 2.6 16.8 1.8.9 3 .9 4.2.1 1.4-.8 1.8-3.5 2.3-17.2.5-14.9.7-16.2 2.7-18.1 1.5-1.5 2.2-3.3 2.2-6 0-5.2-.8-6.8-4.1-8.5-2.7-1.5-2.8-1.6-2.3-8.9.3-4.5.1-7.7-.6-8.1-.6-.4-1 2.2-1 7.4m3.8 11.7c4.3 3 1.6 6.4-5.1 6.4-4 0-8.4-3-7.3-4.9 1.9-3.1 8.9-4 12.4-1.5m-10 9.4c.3 2.1.2 2.2-1.2 1.1-1.9-1.6-2.1-4.4-.3-3.9.6.3 1.4 1.5 1.5 2.8m12.2-.6c0 .8-.4 1.7-.9 2.1-1.2.7-2.4-1.2-1.6-2.5.9-1.5 2.5-1.2 2.5.4m-4 1.6c0 1.6-.7 2-3 2s-3-.4-3-2 .7-2 3-2 3 .4 3 2m-1 5.7c0 .9-.8 1.3-2.2 1.1-3-.4-3.3-2.3-.3-2.4 1.6-.1 2.5.3 2.5 1.3m0 4.3c0 .5-.9 1-1.9 1-1.1 0-2.3-.5-2.6-1-.4-.6.5-1 1.9-1s2.6.4 2.6 1m0 4.1c0 .5-1.1.9-2.5.9s-2.5-.6-2.5-1.4c0-.9.8-1.2 2.5-.8 1.4.2 2.5.8 2.5 1.3m0 3.8c0 1.2-2.1 1.9-3.7 1.3-2.2-.8-1.4-2.2 1.2-2.2 1.4 0 2.5.4 2.5.9m-.7 4.1c.8 0 .8.3 0 1.1-1.3 1.3-4.3.5-4.3-1.2 0-.6.7-.8 1.6-.5s2.1.6 2.7.6m.7 4.1c0 1.4-1.9 2.1-4 1.4-1.1-.4-1.8-1-1.5-1.4.6-1.1 5.5-1.1 5.5 0m-.5 4.9c-.3.5-1.5 1-2.5 1s-2.2-.5-2.5-1c-.4-.6.7-1 2.5-1s2.9.4 2.5 1m0 4c-.3.5-1.5 1-2.6 1-1 0-1.9-.5-1.9-1 0-.6 1.2-1 2.6-1s2.3.4 1.9 1M566.5 554.4c-1.1.7-6.4 3.7-11.8 6.5-15.5 8.1-14.6 7.1-16.7 20.6-.8 5.1-1.8 7.7-3.6 9.6s-2.5 3.5-2.2 5.5c.3 2.9.3 2.9 2.9.1 1.5-1.5 3.1-2.7 3.7-2.7 1 0 2.5-4.1 3.4-9.5.3-2.1 3.7-4.1 8.5-5.1 2.4-.5 3.6.1 6.8 3 2.2 2 4.3 3.6 4.7 3.6 1.3 0 7.8-4.2 7.8-5.1 0-1.2-1.1-1.1-4 .6-1.4.8-2.9 1.4-3.4 1.5-.8 0 0-9.6 1-11.2.3-.4 3.7 2.4 7.5 6.2 3.9 3.9 7.3 7 7.6 7 .2 0 1.3-.5 2.4-1 2.4-1.3 2.4-.2.4 9.5-1 4.6-1.1 7.3-.5 7.9s1 1.9 1 3.1c0 2.8 10.7 10.7 13.8 10.2 2.6-.5 2.9 0 5.6 9.5 1.6 5.6 1.6 6.1-.9 19.5-5.6 29.4-9.6 48.8-10.3 49.5-.4.4-2.5 1-4.7 1.3-3.8.5-4.5.2-11.5-5.5-4.4-3.6-8.3-5.9-9.4-5.8-1.3.2-2.4 1.9-3.4 5.2-1.2 3.8-1.8 4.5-2.6 3.4-.6-.7-2.6-2.4-4.4-3.7-1.8-1.2-3.9-3.5-4.7-5.1-2.4-4.7-7-5-8.1-.5-.6 2.3 1.6 7.5 4.4 10.8 1.3 1.4 1.3 1.7.1 1.2-2.5-1-5.9-7-5.9-10.6 0-1.9.7-5.4 1.6-7.9s1.7-6.2 1.7-8.3c.2-3.4-.4-4.4-4.1-7.6-3.8-3.4-4.5-4.7-6.2-11.7-2.1-8.6-2.1-9.1 3.5-34.9.8-3.8 1.5-8.1 1.5-9.4 0-3.4-1.8-1.5-2.2 2.3-.3 3.3-2.8 4.9-2.8 1.8 0-2-2.3-3.6-3.4-2.5s-.6 4 .9 5.3c2.2 1.9 1.8 4.6-1.1 6.7-1.4 1-2.9 3.4-3.4 5.3s-1.3 5.2-1.8 7.2c-.8 3-.7 4 .5 5s1.4 2.5.9 7c-1 9.5-.1 11.5 8.2 19.6l7.5 7.2-1.8 7.9c-1.1 4.7-1.5 9-1.1 10.7 1 4.1 9.2 11.6 15 13.8 4.7 1.8 4.8 1.8 7.4-.1 1.5-1.1 2.8-3 3-4.2.4-2.8 1-2.7 6 1 3.5 2.5 4.4 2.8 6.2 1.9 1.8-1 2.8-.7 5.8 1.3 2 1.4 4.4 2.7 5.2 2.8 2.3.4 5.7-1 6.4-2.6.3-.8 1.4-1.5 2.5-1.5s3.5-.9 5.4-2c3.2-1.9 3.4-1.9 5.3-.2 1 1 3.6 2.8 5.6 4 3.7 2.3 3.7 2.3 10.6-1.3 8-4.1 8-4.1 11.2-20 1.2-6.1 2.6-12 3.1-13.3 2.1-5.4 1.1-7.2-7.5-13.5-2-1.5-1.8-3.3 2.1-20.1l1.6-6.8 16.4.7c14.5.6 16.3.5 16.3-.9 0-1.3-1.4-1.6-7.7-1.7-12-.1-23.4-.7-24-1.2-.2-.3.3-3.8 1.1-7.8 2.1-10.3 1.4-11.5-13.4-23.5-6.8-5.5-12.8-10.4-13.4-10.9-8.5-7.7-14.5-12.4-15-11.7-.3.6 1.6 2.8 4.2 5 9.8 8.3 23.9 19.9 28.9 23.7 6.8 5.3 8.6 8.5 7.8 13.5-.7 4.4-.8 4.5-3.3 2.9-1.3-.8-3-.4-7.6 2-7 3.7-7.6 3.8-7.6.6s-6.3-9.5-18.7-19c-5.1-3.9-9.4-7.5-9.7-8.2s-.1-3.9.5-7.2c.6-3.9.6-6.8-.1-8.6-.5-1.4-1-2.8-1-3s2.3-1.6 5-3.1c4.8-2.6 6.3-4.4 3.8-4.4-.6 0-3.1 1.2-5.5 2.6-4.4 2.5-4.4 2.5-8.1-1-3.5-3.5-10.9-7.6-13.4-7.6-2.5.1-4.6 2.6-5.3 6.3-.9 4.7-1.9 5.3-4.9 3-3.6-2.6-3.8-4-.8-5.6 1.5-.8 4.3-2.3 6.3-3.4 5-2.9 9.3-3.7 11-2.1 4.5 4.3 12.1 10 12.6 9.5.9-1-1.3-3.3-7.9-8.2-6.3-4.7-9.8-5.6-13.3-3.1m3.2 8.8c5 2.2 11.1 8 12.9 12.4 2.2 5.2 1.6 6.4-.7 1.7s-6.1-8.8-10-10.8c-2.2-1.2-2.9-1.2-4.8.1-1.8 1.3-2.1 1.3-2.1 0 0-1.5 1-4.6 1.5-4.6.1 0 1.6.6 3.2 1.2m11.7 4.7c4.3 4.5 2.7 3.8-2.5-1-2.4-2.3-3.5-3.7-2.4-3.1s3.3 2.4 4.9 4.1m-24.3 1.2c3.7 2.9 5 6.1 3 7.3-1 .7-12.1-8-12.1-9.5 0-2 5.4-.7 9.1 2.2m17.9 2.4c3.8 3.7 5 5.3 5 6.7 0 .7-1 .1-2.3-1.3-1.2-1.4-3.4-3.4-4.9-4.3-1.6-1-2.8-2.2-2.8-2.7 0-1.7 2.5-.9 5 1.6m-31.1.1c-.8.9-1.9 3.8-2.5 6.3-.8 3.1-1.2 3.8-1.3 2.1-.2-4.3 1.9-10 3.6-10 1.3 0 1.3.2.2 1.6m42.1 3.2c0 1.5-.2 1.5-1 .2-1.3-2-1.3-3.3 0-2.5.6.3 1 1.4 1 2.3m-37.7-.4c2.3 1.8 2.2 2.2-1.3 3.5-2.8.9-3 .8-3-1.3 0-3.7 1.3-4.4 4.3-2.2m28.8 4.8 2.2 3.3-3.1-2.9c-3.4-3.2-3.7-3.6-2.3-3.6.5 0 2 1.5 3.2 3.2m9.9 1.3c0 .3-.2.5-.5.5s-.5-.2-.5-.5.2-.5.5-.5.5.2.5.5m-47.3 6.7c-.3.7-.5.2-.5-1.2s.2-1.9.5-1.3c.2.7.2 1.9 0 2.5m45.8 1.8c-.4 1.7-.9 2.9-1.2 2.6-.3-.2-.2-1.9.2-3.6s.9-2.9 1.2-2.6c.3.2.2 1.9-.2 3.6m4.4 6.4c2.3 2.4 2.3 2.4-.9 3.1-3.8.8-4 .7-3.3-2.8.7-3.3 1.3-3.4 4.2-.3m-1.4 8.6c.3.5.4 1 .1 1s-.8-.5-1.1-1c-.3-.6-.4-1-.1-1s.8.4 1.1 1m10.2 2.7c-.4.3-.7 0-.7-.7s.3-1 .7-.7c.3.4.3 1 0 1.4m-8.5 1.8c1.6 1.4 2.6 2.5 2.1 2.5-1.1-.1-7-5-5.9-5 .4 0 2.1 1.1 3.8 2.5m21.3 4.9c3 3.9 3.3 8.1.6 9.5-1.6.9-2 .5-3.1-3-.8-2.2-2.6-5.1-4.2-6.4-2.3-1.9-2.7-3-2.2-5 .6-2.5.6-2.5 3.5-.4 1.6 1.1 4 3.5 5.4 5.3M598 611c0 .5-.4 1-1 1-.5 0-1-.5-1-1 0-.6.5-1 1-1 .6 0 1 .4 1 1m-64.3 5.2c-.3.8-.6.5-.6-.6-.1-1.1.2-1.7.5-1.3.3.3.4 1.2.1 1.9m73 6.1c.4 3.1-.7 10.7-3.1 22.9-1.9 10.1-4.2 21.7-5 25.8-3.8 19.5-5.7 27.5-6.8 28.5-.8.7-.9.5-.5-.6.7-2.2 4.1-18.7 6.7-32.9 1.1-6.3 2.5-13.1 3-15 1.7-6.7 5-24.6 5-27.3 0-3-1.9-7.7-3.2-7.7-.4 0-.8-.6-.8-1.2 0-.7.9-.3 2.1.9 1.3 1.2 2.3 3.9 2.6 6.6m-2.7-.3c0 1.1-.2 2-.4 2s-.6-.9-.9-2-.1-2 .4-2 .9.9.9 2m25.6 2.7c-.3 2.7-1.5 8.4-2.6 12.8s-2 8.8-2 9.7c0 1-.7 1.8-1.5 1.8-1.9 0-14.7 6.9-15.7 8.4-1.4 2.1-1.9-.3-.9-4.1.6-2.1 2-8.5 3-14.2 1.5-7.6 2.5-10.8 3.8-11.5 5.2-3 14-7.3 15.2-7.5 1.1-.1 1.2.9.7 4.6m-97.3 1c-.8 5.2-2 8.3-3.3 8.3-1.4 0-1.3-3.2.2-8 1.7-5.2 3.9-5.4 3.1-.3m77.6 5c0 .5-.4 1.7-.9 2.8-.8 1.8-.9 1.7-.9-.8-.1-1.5.4-2.7.9-2.7.6 0 1 .3.9.7m-3.7 17c-1.2 5.9-2.4 12.6-2.8 14.8s-.9 3.5-1.1 2.9c-.2-.7.8-7.4 2.2-14.9 1.4-7.6 2.5-14.1 2.5-14.3 0-.3.3-.3.6.1.4.3-.3 5.5-1.4 11.4m-77.7-3.9c-.6 5.5-.5 6.1 2.9 11 4 6.1 2.9 6-1.5 0-2.9-4.2-3.5-7.5-2.3-13.7 1.1-5.2 1.6-3.5.9 2.7m3.5 7c0 1.5-.2 1.5-1 .2-1.3-2-1.3-3.3 0-2.5.6.3 1 1.4 1 2.3m89.6 9.7c1.1.8 2.4 1.5 3 1.5 2 0 3.6-2.8 2.9-5.1s-.7-2.3 2.6-.1c1.9 1.1 3.5 2.5 3.6 2.9.2.4-2.4 2.3-5.7 4.1l-6 3.2-5.3-4.1c-2.8-2.3-5.2-4.5-5.2-5s1.6-1.7 3.5-2.8c3.5-1.9 3.5-1.9 4.1 1.1.4 1.6 1.5 3.5 2.5 4.3m4.4-3.4c0 1.9-2 1.8-3-.1-1.5-2.8-.1-4.9 1.7-2.5.7 1.1 1.3 2.2 1.3 2.6m-19 2.4c0 .3-.2.5-.5.5s-.5-.2-.5-.5.2-.5.5-.5.5.2.5.5m8.4 5.1c3.6 3 5.5 5.3 5.2 6.3-.2.9-.7 3.3-1.1 5.3-.3 2.1-1 3.8-1.6 3.8s-3.4-1.9-6.4-4.3c-3.6-2.7-5.2-4.7-4.8-5.7.3-.8.8-3.4 1-5.8.3-2.3.9-4.2 1.3-4.2s3.3 2.1 6.4 4.6m-75.9-1.6c.3.5.4 1 .1 1s-.8-.5-1.1-1c-.3-.6-.4-1-.1-1s.8.4 1.1 1m95.5 0c0 1.6-9.1 7.3-10.1 6.3-.5-.5 1.2-2.1 4.4-4 6.2-3.7 5.7-3.5 5.7-2.3m-33.3 6.2c-.3.8-.6.5-.6-.6-.1-1.1.2-1.7.5-1.3.3.3.4 1.2.1 1.9m3 1c-.3.7-.5.2-.5-1.2s.2-1.9.5-1.3c.2.7.2 1.9 0 2.5m29.3 1.5c-.5 2.1-1.3 6.3-2 9.3s-1.5 7.2-2 9.3c-.8 3.9-2 6.1-2 3.6 0-.8.7-4.6 1.5-8.4.9-3.9 2-9.4 2.7-12.3.6-2.8 1.4-5.2 1.8-5.2s.4 1.7 0 3.7m-3.6 1.5c-.3 1.8-1.4 6.7-2.4 10.8s-2.1 8.7-2.4 10.2c-.7 3.1-4.6 6-4.6 3.3 0-.8.7-1.5 1.5-1.5 1.1 0 1.5-1.1 1.5-3.9 0-2.2.5-4.3 1.1-4.7.6-.3.9-2.2.7-4.3-.3-2.4 0-4 1-4.7.8-.5 1.4-2.7 1.4-4.7 0-2.5.5-3.7 1.4-3.7 1 0 1.2.9.8 3.2m-7.3 6.8c-3.7 17.3-5.2 22.2-6.6 20.8-.3-.3.3-4.6 1.5-9.4 1.1-4.9 2.6-10.9 3.1-13.4 1.7-6.9 2.1-7.9 2.7-5.5.2 1-.1 4.4-.7 7.5m-22.4-4.8c-.3.8-.6.5-.6-.6-.1-1.1.2-1.7.5-1.3.3.3.4 1.2.1 1.9m9.3 5.7c1.9 1.7 3.2 3.3 2.9 3.6-.8.7-9.9-6.3-9.9-7.6s2.5.2 7 4m-11.1 4.3c-.6 3.4-1.5 6.7-2 7.2-.4.4-.4-.9.1-3 .4-2.2 1.1-5.6 1.5-7.8.3-2.1.9-3.6 1.1-3.3.3.3 0 3.4-.7 6.9m15.6-4.2c.3.5.4 1 .1 1s-.8-.5-1.1-1c-.3-.6-.4-1-.1-1s.8.4 1.1 1m.4 8c.6 0 1.1 1.1 1.1 2.4 0 2.4-1.9 8.6-2.6 8.6-.3 0-2.7-1.7-5.4-3.7-5.2-3.8-5.6-5-4.4-11.2l.6-3.1 4.8 3.5c2.6 1.9 5.3 3.5 5.9 3.5m-68-.9c1.7 2.8 3 5.4 2.7 5.6-.7.7-6.6-7.7-6.6-9.4 0-2.1.5-1.6 3.9 3.8m.6-4.1c.3.5.4 1 .1 1s-.8-.5-1.1-1c-.3-.6-.4-1-.1-1s.8.4 1.1 1m69.5 2c0 .5-.5 1-1.1 1-.5 0-.7-.5-.4-1 .3-.6.8-1 1.1-1 .2 0 .4.4.4 1m-65.8 2.3c1.3 1.3 3.2 2.9 4.3 3.5s1.7 1.3 1.3 1.7c-.9.9-5.4-2.2-7.3-5.1-2-3-1.3-3.1 1.7-.1m49.5-.6c-.4.3-.7 0-.7-.7s.3-1 .7-.7c.3.4.3 1 0 1.4m-28.2 2.8c2.3 2 3.4 3.4 2.5 3.5-1.6 0-8-5-8-6.3 0-1.4 1.6-.6 5.5 2.8m28.5-1c0 .3-.2.5-.5.5s-.5-.2-.5-.5.2-.5.5-.5.5.2.5.5m-29.4 6.2c-.6.6-5.5-2.9-5.6-4 0-.5 1.4.1 3.1 1.3 1.6 1.2 2.8 2.4 2.5 2.7m29.8-2.1c.9 2.2.8 2.4-.9 2.4-.8 0-1.5-.9-1.5-2 0-2.4 1.5-2.7 2.4-.4m-47.9 2.2c-.3.3-1.1 0-1.8-.7-.9-1-.8-1.1.6-.5 1 .3 1.5.9 1.2 1.2m36 1.2c.3.5-.3 1-1.4 1-1.2 0-2.1-.5-2.1-1 0-.6.6-1 1.4-1s1.8.4 2.1 1m-31.5 2c0 .5-.4 1-1 1-.5 0-1-.5-1-1 0-.6.5-1 1-1 .6 0 1 .4 1 1m27 1.5c0 .3-.2.5-.5.5s-.5-.2-.5-.5.2-.5.5-.5.5.2.5.5m3.7 1.2c-.4.3-1 .3-1.4 0-.3-.4 0-.7.7-.7s1 .3.7.7M605.3 558c-3 1.8-4.4 4-2.6 4 1.1 0 7.3-4.4 7.3-5.3 0-1.2-1.3-.8-4.7 1.3M300.3 582c-1.8 1.1-3.3 2.5-3.3 3.2s-.9 1.9-2.1 2.6c-1.6 1.1-1.9 1.9-1.4 4.5.4 1.8 1.5 4.6 2.4 6.3 1.8 3 6.1 15.4 6.1 17.4 0 .6-4.4 1-12 1-7.3 0-12 .4-12 1s5 1 12.8 1.1c7 0 13.5.4 14.6.8 1 .4 3 2.5 4.5 4.7 1.5 2.1 4.3 4.8 6.2 5.8 2.8 1.5 3.8 2.9 4.9 6.5 1.6 5.7 1.9 6.3 3 5.6.5-.3.2-2.7-.8-5.3-1.3-3.5-1.7-7-1.4-13.7.2-5 .4-10.1.4-11.5.1-1.4-.8-4.4-2-6.7-1.1-2.4-2.5-6.7-3.2-9.5-.6-2.9-1.7-7.1-2.4-9.3-2-6.4-8.1-8.3-14.3-4.5m9 .9c2.2.9 4.3 3.8 3.3 4.8-.5.5-11.5-2.3-12.3-3.1-.6-.6 3.3-2.4 5.4-2.5.6-.1 2.3.3 3.6.8m-2 6.2c2.6.7 4.7 1.7 4.7 2.2s-.8.6-1.7.2c-1-.4-3.4-1.2-5.3-1.7s-3.9-1.5-4.5-2c-.7-.8-.5-.9.5-.6.8.3 3.6 1.1 6.3 1.9m-4.7 2c5.3 1.4 5.6 2.4 1 3.3-3.5.7-6.6 0-7.8-1.8-2-2.9-.3-3.2 6.8-1.5m10 4.8c-2.7 2.9-9.5 4.5-13.1 3-3-1.2-3-1.2 2-2.2 2.8-.5 6.1-1 7.4-1.1 1.4-.2 3-1 3.5-1.9.6-1 1.3-1.2 1.5-.6.1.5-.4 1.8-1.3 2.8m1.9 3.3c-1.3 3.3-12.4 6.4-14 3.8-.4-.6.6-1 2.4-1 1.7 0 5-1.1 7.3-2.4 4.7-2.6 5.1-2.7 4.3-.4m1.5 3.9c-1.3 2.3-6.7 4.9-10.4 4.9-4.2 0-3.8-1.7.6-2.3 2.3-.3 5.3-1.5 6.7-2.6 3.4-2.6 4.4-2.6 3.1 0m2 2.7c0 3.1-10.4 7.2-13.6 5.4-1.6-1-1.4-1.1 1.7-1.2 2.2 0 5-1 7-2.4 3.7-2.6 4.9-3.1 4.9-1.8m2 3c0 1.5-4.4 4.9-7.8 6-2 .7-4.1.8-5.5.2-2.2-.9-2.2-.9.2-.9 3-.1 11.1-3.9 11.1-5.2 0-.5.5-.9 1-.9.6 0 1 .4 1 .8m0 5.5c0 1.8-3.3 3.6-8 4.3-2.7.4-4 .3-4-.5 0-.6 1.2-1.1 2.8-1.1 1.5 0 4.1-.9 5.7-1.9 3.7-2.4 3.5-2.4 3.5-.8m-13 3.2c0 .3-.2.5-.5.5s-.5-.2-.5-.5.2-.5.5-.5.5.2.5.5m13 3c0 1.8-3.5 3.7-6.2 3.3-3.4-.5-3.1-2.3.4-3.4 4.8-1.6 5.8-1.6 5.8.1m-.4 8.1c-.4 1.2-1 1.2-2.6.4-2.6-1.4-2.5-2.3.3-3.5 2.4-1.1 3.4.3 2.3 3.1"/><path d="M550.8 590c-4.1 2.2-5.7 4-3.4 4 1.9 0 8.6-3.9 8.6-5.1 0-1.3-1-1.1-5.2 1.1M536.8 598c-4.1 2.2-5.7 4-3.4 4 1.9 0 8.6-3.9 8.6-5.1 0-1.3-1-1.1-5.2 1.1M521.2 606.7c-2.3 1.3-4 2.9-3.6 3.4.6 1 8.7-3.4 9.2-5.1.5-1.5-.8-1.1-5.6 1.7M196 617.8V629h7.3c3.9 0 21.9.3 40 .7l32.7.6V608h-12.8c-7.1 0-25.1-.3-40-.7l-27.2-.6zm60.2-7.8h18.9l-.3 8.7-.3 8.8-24.5.3c-13.5.2-30.9 0-38.7-.3l-14.3-.7v-8.2c0-4.6.3-8.6.8-9.1.4-.4 9.4-.5 20.1-.1 10.7.3 27.9.6 38.3.6"/><path d="M202.6 613.1c-1.7 1.7-1.8 1.9-.3 1.9 1.3 0 1.7 1 1.7 4.5 0 2.5.5 4.5 1 4.5 1.2 0 1.4-11.7.3-12.3-.5-.3-1.7.4-2.7 1.4M211.2 612.2c-1.4 1.4-1.6 3.8-.3 3.8.5 0 1.1-.7 1.5-1.5.3-.8 1.2-1.5 2.1-1.5 1.8 0 2 2.7.3 3.2-.9.3-.8.9.5 2.2.9 1 1.7 2.2 1.7 2.7 0 1.3-4.4 1.1-5.9-.4-1-1-1.2-.8-.9.8.4 2.3 5.3 3.4 7.1 1.6 1.3-1.3 1-9-.5-10.8-1.3-1.6-4-1.7-5.6-.1M226 612.2c.1 3.1 2.7 11.2 3.7 11.5.7.3 1.7-1.4 2.4-3.6.7-2.3 1.6-4.1 2-4.1s1 1.8 1.4 4c1 5.7 3.1 5.1 4.9-1.4 1.8-6.2 2-7.6.7-7.6-.5 0-1.2 1.8-1.6 4-.9 5.5-2.2 5.8-3.2.8-1.1-5.5-2.9-5.9-4.3-.9-1.4 5.2-2.8 5.2-3.6.1-.6-3.6-2.4-5.8-2.4-2.8M244 613c0 .5 1.4 1 3.1 1 2.5 0 2.9.3 2 1.3-.6.8-1.7 3-2.6 5-1.4 3.3-1.4 3.7 0 3.7.9 0 1.5-.9 1.5-2.3 0-1.2.9-3.3 2-4.7 3-3.8 2.5-5-2-5-2.2 0-4 .4-4 1M254.7 612.7c-.4.3-.7 1.9-.7 3.4 0 2.6.2 2.8 3 2.2 2.7-.5 3-.3 3 2.1 0 2.8-2.6 3.6-4.8 1.4-.9-.9-1.2-.8-1.2.4 0 2.2 3.4 3.2 6 1.8 3.6-1.9 2-8-2.2-8-1 0-1.8-.5-1.8-1 0-.6 1.1-1 2.4-1 1.4 0 2.8-.5 3.1-1 .7-1.1-5.7-1.4-6.8-.3M220 619c0 .5 1.2 1 2.6 1s2.3-.4 1.9-1c-.3-.6-1.5-1-2.6-1-1 0-1.9.4-1.9 1M624.8 610.1c-5.6 3-7.9 5.7-3.8 4.4 3.4-1.1 11-5.6 11-6.6 0-1.4-1-1.1-7.2 2.2M446.5 614.2c-2.2 1.2-5.3 2.1-6.8 2-1.7-.2-5.6 1.3-9.5 3.4-3.7 2.1-11.4 6.3-17.2 9.4s-13 7-16 8.7c-3 1.6-9.4 5.1-14.2 7.7-4.9 2.6-8.8 5.2-8.8 5.7s.2.9.5.9c.6 0 15.6-7.9 17-9 .6-.4 4.4-2.5 8.5-4.7s9.5-5.1 12-6.5 9.4-5.1 15.5-8.2c10.9-5.7 10.9-5.7 15.2-3.5 2.4 1.2 4.8 2.8 5.3 3.4 1 1.2-9.4 7.4-34 20.2-4.1 2.2-9.5 5.1-12 6.5s-8 4.4-12.2 6.6c-12 6.3-16.8 9.3-16.8 10.4 0 .6.9.8 2 .5 1.7-.4 2 0 2 2.9 0 2.2-.6 3.7-1.5 4-1.5.6-2.1 3.4-.7 3.4.4 0 1.4.5 2.2 1 1.3.8 1 1.4-1.5 3.4-3.4 2.8-2.8 4.7.7 2.2 2.9-2.1 7.2-2 9.3.1 1.3 1.3 1.6 3.1 1.3 8.2-.3 5.4-.9 7.4-3.6 11.3-1.7 2.5-4.5 5.2-6.2 5.9-3.1 1.4-4.4 3.4-3.4 5 1.6 2.6 11.6-3.9 15.1-9.8 1.3-2.4 3.1-4.3 3.8-4.3 2.4 0 4.5 1.2 4.5 2.6 0 .8.4 1.4 1 1.4 1 0 1.1-.5 3.1-9.5 1.3-6.1 4-9.2 9.3-10.6 2.5-.7 5.2-2.4 7.1-4.6 2.2-2.6 3.7-3.4 5.5-3.2 2.2.4 1.8.9-4.1 5.5-7.3 5.8-18.6 18.1-17.5 19.2.4.4 1.7-.4 2.7-1.8 8.2-10.4 21.4-20.9 29.2-23.1 5.1-1.4 6.9-4.5 2-3.3-1.6.4-3.4 1.1-4.1 1.7-2.4 1.9-2.5-.3-.2-2.8 2.9-3.1 5.7-3.2 8.7-.3 1.5 1.4 2.7 1.8 3.3 1.2.9-.9-.2-1.9-11.2-10.4-1.8-1.4-4.2-8.6-3.2-10.1.8-1.3 7.5-2 8.9-.9.9.8 1.5.8 2 0 .3-.5 1.5-1 2.6-1 1.7 0 1.9.7 1.9 7.5 0 4.1-.4 7.5-.9 7.5s-2.1-1.4-3.6-3.1c-2.9-3.5-4.1-3.4-2.5.3 1.2 2.6 2.3 3.4 10.9 8.1 2.9 1.6 8.8 5 13 7.6s8.5 5.1 9.6 5.5c1.6.7.8 1.2-4.5 3-15.8 5.4-28 15.1-38.9 31.1-7.8 11.4-16.8 32.2-14.8 34.2.4.3.8 0 1-.8 2.8-10.1 8.9-23.4 14.8-32 4.8-7.1 17-19.9 20.9-21.9 1.4-.7-1 2-5.3 6-11.6 10.8-20.5 24.9-26.7 42.2-1.5 4.3-2.4 8-2 8.3.5.3 1.8-2.6 3-6.5 5.6-18.7 19.9-38.8 35.3-49.4 5.9-4.1 18.1-8.6 23.3-8.6 8.9 0 18.4 6.4 22 14.8 3.3 8.1 2.8 27-1.2 38.9-4.4 13.1-13.6 28.2-23 37.6-3.1 3.1-5.5 6-5.1 6.3.9.9 12.3-11.4 17.2-18.6 4.6-6.8 10.2-18.1 12.9-26.2 3.4-10.2 4.5-24.6 2.5-32.3-.6-2.2-1.2-8.5-1.3-14-.2-6-1-12.4-2-15.8-2.1-6.8-2.1-6.7 5.7-11.3 4.7-2.7 5.2-3.4 5.5-6.8.3-3.1-.2-4.4-2.5-6.8-3.2-3.3-6.4-3.3-11.3.2-1.5 1.1-3.8 2.1-5.1 2.2-2.4.3-2.4.2-3-12.7-.5-11.7-1.3-16.7-3.4-21.7-.3-.9-2.2-2.4-4-3.3-3.3-1.5-3.6-1.5-9.4 1.4-6.6 3.4-7 3.2-10.5-3.6-1.6-3.1-6.1-6.3-8.8-6.3-.7.1-3.1 1-5.3 2.2m10.7 3.5c1.4 1.6 3.3 4 4.2 5.5 1.7 2.6 1.7 2.7-.8 4.3-2.7 1.8-5.3 1-7.8-2.3-.7-.9-3-2.8-5.1-4.2-3.7-2.5-3.7-2.5-1.6-4.3 3.2-2.6 8.1-2.2 11.1 1m24 5.7c1 .7 2.5 2.9 3.3 4.9 1.4 3.4 1.4 3.7-.7 5.1-2.8 2-4.2 2-5.8.1s-5-1.9-5 0c0 .8.6 1.2 1.3.9 1.8-.6 4.2 2.2 2.7 3.1-.6.4-1 5-1 11.4 0 10.8 0 10.8 5 18.5 2.8 4.2 5 8.3 5 9.1 0 .7.5 1.7 1 2 2 1.2.9 3.1-3.2 5.3-2.4 1.2-4.8 2.2-5.4 2.2-.7 0-4.1-1.7-7.5-3.8-3.5-2.1-8.3-4.9-10.6-6.2-2.4-1.3-4.3-2.8-4.3-3.2 0-.5 1.2-1.4 2.8-2.1 4.4-2 14.1-7.8 14.8-8.9 1.6-2.5-1.2-1.5-9.9 3.6-5.2 3.1-10 5.6-10.7 5.6-.6 0-2.4-.7-4-1.5-3-1.5-3-1.6-3-10.3 0-8.8 0-8.8 5.3-11.5 11.6-6.1 18.2-10.4 18.5-12 .2-1-1-3-2.7-4.6l-3-2.8 5.7-3.1c6.2-3.4 8.8-3.8 11.4-1.8m-23.1 7.9c6.6 3.9 9.6 6.7 7.1 6.7-.5 0-5 2.2-10 5-10.4 5.8-13.2 6.3-13.2 2.4s-1.7-6.1-5.6-7.4c-2.4-.8-3.2-1.6-2.6-2.2 1.1-1.1 15.3-8.7 16.4-8.8.3 0 3.9 1.9 7.9 4.3m6.9.2c1.4 1.6 1 1.8-1.4.9-.9-.3-1.6-1-1.6-1.5 0-1.4 1.6-1.1 3 .6m21 15.1c0 10.5 0 10.7 4.1 18.3 2.2 4.2 4.9 10.1 5.9 13.1 2.1 6.3 3.8 21 2.4 21-2 0-4.5-4.4-6.3-11.3-2.2-8-6.7-17.8-11.2-24.3-2.7-4-2.9-4.9-2.9-14.1 0-9.6.1-9.8 2.8-11.5 5-3 5.2-2.7 5.2 8.8m-47.7-5.2c4.1 3.1 1.5 6.2-6.1 7.2-4 .5-5.7 1.3-6.9 3-.9 1.5-2.9 2.6-5.1 2.9-7.3 1.2-8 1.5-9.1 4.4-1.4 3.2-4.7 5.1-9.1 5.1-2 0-3.6.9-5.3 3.1-2.8 3.6-8.9 4.9-13.7 2.9-4.2-1.7-4.1-5.4.1-6.9 1.8-.6 4.2-1.1 5.5-1.1s3.2-1.2 4.4-2.7c2.4-3 7.6-5.6 9.8-4.8 2.1.8 5.2-1.3 5.2-3.5 0-2.6 2.9-4 8.5-4 3.4 0 4.7-.4 5.2-1.8 1.4-4 3.5-5.2 9.2-5.2 3.1 0 6.4.7 7.4 1.4m-32.6 10.3c-.4.3-1 .3-1.4 0-.3-.4 0-.7.7-.7s1 .3.7.7m21.3 7.2c.6 2.2 2.2 4.9 3.5 5.9 3 2.4 3 2.3.6 5.1-2.5 2.8-3.8 2.1-4.7-2.5-.8-4.5-2.3-5-7.3-2.5-2.2 1.2-4.3 2.1-4.6 2.1s-.5-2-.5-4.5c0-4.4.1-4.5 3.3-4.5 1.7-.1 4.3-.7 5.7-1.5s2.6-1.4 2.7-1.5c.1 0 .7 1.8 1.3 3.9m78.9-2.2c1.2 1 2.3 3.1 2.4 4.8.2 2.6-.5 3.3-5.3 6.2-3 1.8-6 3.3-6.7 3.3-1 0-5.3-7.6-5.3-9.4 0-.6 11-6.5 12.1-6.6.4 0 1.6.8 2.8 1.7m-93.9 9.2c0 1.7.5 3.3 1 3.6.6.3 1 1.5 1 2.5s.9 2.2 2 2.5 2 .9 2 1.3c0 1-5.9 7.2-6.8 7.2-.5 0-3.2-1.5-6.2-3.3-5-2.9-5.5-3.6-5.8-7-.4-4.6 1.1-6.7 4.7-6.7 1.5 0 3.6-.7 4.7-1.5 2.8-2.1 3.4-1.8 3.4 1.4m12.4 1.7c.9 2.3.2 2.8-2.9 2-2.2-.6-2.5-.9-1.5-2.1 1.6-2 3.6-1.9 4.4.1m-31.9 5.3c4.5-1.7 4.5-1.7 4.5 1.2 0 2.3.9 3.6 4.5 6.1 4.5 3.2 4.5 3.2 2.1 5.7-2.8 3-5.6 9.3-5.6 12.7 0 2.3 0 2.3-3 .6-2.3-1.3-3-2.4-3-4.7-.1-5.6-3.4-11.1-8.7-14.1-2.6-1.5-5-2.9-5.1-3-.2-.1-.1-1.6.3-3.3.6-3 .6-3 5.1-1.3 4.1 1.5 4.8 1.5 8.9.1m33 .2c1.5 1.4-3.7 1-7-.6-3-1.5-3-1.5 1.5-.9 2.5.3 4.9 1 5.5 1.5m64.5 13.5c1.9 5 1.4 5.6-3 3.4-4.6-2.3-4.9-3.3-1.7-4.8 3.2-1.6 3.7-1.5 4.7 1.4M387.9 703c-3.5 6.1-5.1 5.6-1.8-.7 1.6-3 3-6.5 3.1-7.7 0-1.1.3-.6.5 1.2.3 2.1-.3 4.6-1.8 7.2m66.1-7.5c0 .3-.2.5-.5.5s-.5-.2-.5-.5.2-.5.5-.5.5.2.5.5"/><path d="M459.8 647c-3.4 3.6-3.8 4.7-3.8 9.1 0 4.2.3 5.1 2.4 6 7.5 3.5 16.9-14.2 9.6-18.1-3-1.6-4.1-1.2-8.2 3m8.7.9c.6 2.1-1.6 8.3-3.8 10.6-1.4 1.3-3.1 1.8-5.4 1.6-1.6-.1-1.7-6.5-.1-9.4 2.5-4.7 8.1-6.4 9.3-2.8M481.7 658.1c-2.4 1.4-1.1 3.2 1.4 1.9 1-.6 1.9-1.5 1.9-2 0-1.3-1-1.2-3.3.1M509.6 612.9c-.3.5-2.1 1.6-4.1 2.5-3.1 1.5-4.8 3.6-2.7 3.6 1.5-.1 8.6-4.5 9-5.8.4-1.4-1.4-1.7-2.2-.3M550.6 619.4c-5.5 6.4-5.8 9.4-2 17 5 9.9 9.5 13 17.8 12 7.3-.9 9.7-3.4 9.8-10.2 0-8.7-5.7-18.4-13.3-22.2-5.7-3-7.2-2.5-12.3 3.4m8.4-1.9c0 .3-.2.5-.5.5s-.5-.2-.5-.5.2-.5.5-.5.5.2.5.5m5 1.5c0 .5-.2 1-.4 1-.3 0-.8-.5-1.1-1-.3-.6-.1-1 .4-1 .6 0 1.1.4 1.1 1m1 5.3c3.9 3.8 5.8 7.3 6.6 12.5.9 5.9-1.1 5.9-2.6-.1-1.4-5.8-5.4-12-8.7-13.8-1.3-.7-2.3-1.6-2.3-2 0-1.5 3.9.4 7 3.4m5 .7c1.2 1.7 1.8 3 1.3 3-.4 0-1.8-1.6-3.1-3.6-2.8-4.2-1.3-3.7 1.8.6m-16-.4c0 .3-.5 1.4-1.1 2.6-.8 1.4-.7 2.8.1 4.9 1.4 3.3 2.3 3.5 6.4 1.4 5.7-3 6.5-.8.9 2.5-3.6 2.1-3.7 2.2-1.8 3.7 1.2.8 3.1 1.2 4.6.9 2.3-.4 2.6-.2 2.2 1.4-.4 1.4-1.4 2-3.5 2-6.2 0-13.6-11.8-11-17.5 1-2.2 3.2-3.5 3.2-1.9m6.8 3.6c1.3 1.3-1.2 3.7-4 3.8-1.8 0-2.5-3-1.1-4.3 1-1.1 3.8-.8 5.1.5m13.6 7.3c.3 2.5.3 3.3-.3 2-1.5-3.6-2.3-8.1-1.3-7 .5.5 1.2 2.8 1.6 5m-.7 6.7c-.3.8-.6.5-.6-.6-.1-1.1.2-1.7.5-1.3.3.3.4 1.2.1 1.9M668.8 615.6c-.5.4-.8 5.8-.8 12 0 10.8.1 11.2 2.3 11.7 2.6.7 86.5 1.3 87 .6.8-.8 1.6-22.9.9-23.3-1.4-.7-88.7-1.8-89.4-1m86 3c1 .3 1.3 2.4 1.1 8.2-.5 12.6 2.9 11.3-28.8 11.1-15.2 0-34-.3-41.8-.6l-14.3-.6v-19.4l41.3.4c22.6.2 41.8.6 42.5.9"/><path d="M679.9 619.2c0 .2-.1 3.8-.2 8-.2 5.7.1 7.8 1 7.8s1.3-2.3 1.3-8c0-4.7-.4-8-1-8-.5 0-1 .1-1.1.2M689.3 620.7c-.5 1-.8 4.5-.8 7.8 0 5.8.1 6 2.7 6.3 2.2.3 2.8-.1 3.2-2 .7-4.1.4-11.3-.6-12.6-1.5-1.7-3.6-1.5-4.5.5m3.7 2.3c0 1.1-.7 2-1.5 2-1.5 0-2.1-2.1-.8-3.3 1.2-1.3 2.3-.7 2.3 1.3m-.2 7.2c-.5 3.2-2.8 3.5-2.8.4 0-1.7.5-2.6 1.6-2.6 1 0 1.4.7 1.2 2.2M711.4 621.5c-1.8 2.8-1.1 6 1.7 7.5 2.6 1.5 2.6 4.3-.1 3.5-1.2-.4-2-.2-2 .5 0 1.8 3.1 2.4 4.6.9 1.9-1.9 2.2-11.2.5-13.3-1.8-2.2-2.8-2-4.7.9m4.1 2.5c.3 1.1.3 2.5 0 3-1 1.6-3.5-.8-3.5-3.1 0-2.5 2.7-2.4 3.5.1M733.6 621.1c-2 2.9-2.1 10.7-.1 13.4 1.4 1.8 1.6 1.8 3.3.2 2.3-2.4 2.4-11.9.1-14.3-1.5-1.5-1.8-1.4-3.3.7m3.2 4.9c.4 4.2-.6 8.3-1.8 7.5-1.5-1-1.3-11.8.3-11.3.6.3 1.3 1.9 1.5 3.8M723.9 620.7c0 .5 0 3.6.1 7 .1 4.5-.2 6.3-1.1 6.3-1 0-1 .3-.2 1.1.7.7 1.8.9 2.5.7 1.5-.6 1.3-15.8-.3-15.8-.5 0-.9.3-1 .7M745.8 620.7c-.3.4-.6 3.3-.7 6.3s-.4 6.3-.7 7.2c-.4 1.3 0 1.8 1.3 1.8 1.6 0 1.8-.9 1.8-7.4 0-6.9-.7-9.9-1.7-7.9M699.7 626.6c-1.2 1.2.4 2.4 3.4 2.4 1.9 0 2.9-.5 2.9-1.5 0-1.5-5-2.2-6.3-.9M494.4 621.4c-1 .8-1.6 1.7-1.2 2.1.7.7 4.8-1.6 4.8-2.7 0-1.2-1.4-.9-3.6.6M369 628.4c0 2.5.5 4.8 1 5.1.6.4 1-1.3 1-4.4 0-2.8-.4-5.1-1-5.1-.5 0-1 2-1 4.4M369.7 638.7c-1.1 1-.8 9.1.3 9.8.6.4 1-1.5 1-4.9 0-5.7-.1-6.1-1.3-4.9M325.5 648.7c.3 1 1.2 3.5 1.8 5.5 1.1 3.7 2.7 5.1 2.7 2.6 0-2.3-3.3-9.8-4.2-9.8-.6 0-.7.8-.3 1.7"/><path d="M331.3 649.7c-2.9 1.1-1 2.3 3.5 2.3 5.7 0 8.2 2 8.2 6.6 0 5.1-8.5 11.4-15.2 11.4-1.9 0-6 .7-9.2 1.5-4.2 1.1-6.2 1.2-7.7.4-1.9-1-1.8-1.2 2-5.4 2.3-2.5 4.1-4.9 4.1-5.4 0-1.2 4.4-5.7 6.2-6.4.7-.2 1-.8.6-1.2-1.2-1.3-5.7 2.3-9 7.4-1.8 2.6-4.7 5.8-6.5 7-4.1 2.7-4.2 4.5-.1 8.3 3.9 3.6 11.5 24.3 9.7 26.4-.6.7-.7 2.8-.3 4.8.7 3.8.1 4.2-5 3.7-2.8-.2-4.6 1.8-4.6 5 0 1.6-.4 2.9-.9 2.9-2.4 0-4.3 3.4-3.6 6.7.6 3.4-.2 4.2-2.3 2.1-.7-.7-3.3-1.3-6-1.5-2.6-.2-7.7-.6-11.3-.9-6.3-.6-6.9-.4-15.5 3.9-4.9 2.5-9.7 5.5-10.8 6.8-2.6 3.2-6.3 11.7-7.1 16.4-.6 4-.6 4 4.7 7.2 2.9 1.7 7 3.4 9.1 3.7 3.5.7 3.7.5 3.7-1.9 0-1.4.3-2.5.6-2.5.8 0 8.4 8.5 10.6 11.9 1.6 2.4 1.6 2.7.1 5.1-.9 1.4-2.3 3.1-3 3.8s-1.3 2.3-1.3 3.5c0 1.7.6 1.3 3-2.3 2.8-4.1 3.1-4.3 3.6-2.3.8 2.7 1.3 2.8 2.9.6 1.2-1.6 1.4-1.6 3.9 0 1.4 1 2.6 2.6 2.6 3.7 0 2.4-.4 2.5-3.5.4-2.3-1.5-2.7-1.5-5 0-1.4.9-2.5 2.2-2.5 2.8 0 .9.3.9 1.2 0 1.5-1.5 5.4-1.6 6.3-.2 1.1 1.7 4.9 1.1 7.9-1.3 2.7-2.2 2.8-2.5 1.6-6.1-.6-2-2.3-4.4-3.6-5.2-2.2-1.5-2.6-1.4-5.7.5-4.5 2.7-5.7 2.6-5.7-.4 0-1.9-2.8-6.2-7-10.5-7.5-7.8-7.3-7.5-5.1-12.4 1.1-2.5 2.4-4.6 3-4.6.5 0 1.9 1.2 3.1 2.7 4.6 5.9 10.3 11.4 11.3 11 .7-.2 1.6-2.7 2.2-5.6l1-5.2 4.3 3.6c4.1 3.6 4.2 3.7 4.2 10.2 0 7.1 1.6 11.7 6.2 17.3 1.6 1.9 3.4 4.1 4 4.9s1.2 3.8 1.3 6.7c.2 3.4 1 6.5 2.5 8.8 1.3 2.2 1.9 4.3 1.5 5.4-.5 1.4-1.7.5-6.4-4.7-5.2-5.8-5.9-6.3-7.9-5.2-1.9 1-2.2 2-2.2 8.2v7l-4-2.2c-4.5-2.5-4.8-3.3-5.2-13.6-.2-4-.8-7.7-1.4-8.3-.7-.7-.9 1.7-.6 7.7.5 8.8.5 8.8-1.6 7-1.1-1-3.3-3.6-4.8-5.8-1.5-2.1-3.1-3.9-3.6-3.9-1.8 0 1.7 4.7 8.7 11.7 5.2 5.2 8.6 7.6 12.3 8.9 2.9 1 5.2 2.3 5.2 2.8 0 1.3-7.5-.2-12.4-2.4-4.6-2.2-13.5-10.6-17.9-17-1.2-1.8-1.7-2-1.7-.8 0 2.4 8.3 12.1 13.7 16 6.5 4.6 10.8 6.2 16.9 6.2 6 0 11.3-3.3 13.6-8.4.7-1.6 1.7-2.8 2.3-2.6.5.3 2.7 1 4.8 1.7 4.4 1.5 4.8 3.6 1.6 10.4-8.5 18.2-32.7 14-51.2-8.8-3.2-4-6.4-8.1-7.2-9.2-.7-1.1-1.6-1.7-1.9-1.4-.9.9 8 12.6 13.9 18.2 8.8 8.5 15.5 12.5 23.6 14.2 6.3 1.3 12.8.2 17.5-3.1 1.5-1 4.1-2.7 5.8-3.7 4.1-2.5 9.4-7.6 10.2-9.9.3-1 1.1-1.8 1.8-1.8 2.1 0 5.6 4 5.6 6.4 0 1.2 1 3.2 2.3 4.3 2.6 2.4 15.6 9.3 17.4 9.3 1.9 0 13.6-6 14.5-7.4.4-.6.8-2.9.8-5.2 0-3.2-.6-4.6-3-6.9-1.6-1.6-3.3-2.5-3.7-2.1s.7 2 2.5 3.4c1.8 1.5 3.2 3.2 3.2 3.9 0 1.3-10.2 8.3-12 8.3-.6 0-1-1.3-1-3 0-2.8.2-2.9 2.6-2 3.1 1.2 6.4-.3 6.4-3 0-1-.9-2.2-2.1-2.5-1.8-.6-2-1.2-1.4-4.5.4-2.2.2-4.7-.4-5.7-.8-1.4-1-.6-1.1 3.8 0 5.2-.9 6.9-3.5 6.9-.8 0-.1-8.5.8-9.1.5-.4.3-1.6-.4-2.8-1.1-1.6-1.1-2.5-.2-3.9 1.3-2.2.5-3.8-2.2-4.3-1.7-.4-2-1.3-2.3-6.4-.2-5.4.1-6.6 3.3-11.9 1.9-3.2 3.3-6.1 3.1-6.3-.2-.3-1.8.3-3.5 1.1-1.6.9-3.2 1.6-3.6 1.6-.8 0-.6-46.3.3-47.6.4-.6 2-1.7 3.6-2.5 3.3-1.6 4-2.8 2.6-4.9-.8-1.2-1.2-1.2-3.7 0-1.5.8-3.1 1.9-3.5 2.4-.4.6-1.3.4-2.2-.3-1.3-1.1-1.6-1.1-1.6.2 0 .9.5 1.9 1 2.2.6.3 1 3.3 1 6.6 0 6 0 6-3 3.9-2.9-2.1-3-2.3-3-10.8v-8.7l7.8-4c7.7-4 7.7-4 8.3-9.5.3-3 .4-5.7.2-6-.8-.9-2.3 2.6-2.3 5.7 0 3.4-1.6 4.9-10.2 9.3-4.6 2.4-4.8 2.4-8.3.7-2-1-3.5-2.2-3.3-2.8.6-1.7 7.8-5.5 12.1-6.3 4.4-.8 5-2.6.8-2.6-2.9 0-11.2 3.9-13.8 6.6-1 1-2.5 1.3-4 1-2.6-.7-7.7 1.6-9.1 4.1-1.2 2.1-4.2 1-4.2-1.7 0-1.1-.5-2-1.2-2-.9 0-.9-.3 0-1.2.6-.6 3.3-1.3 6-1.5 12.2-.7 24.2-11.1 24.2-20.8 0-3.9-1.6-2.1-2.4 2.5-.9 5.6-7.7 12.4-14.3 14.3-5.3 1.6-6.3 1.4-6.3-1.1 0-.9-1.7-6.8-3.7-13-3.7-11.4-3.7-11.4-8.1-10.8-3.8.5-4.3.4-3.3-.8.7-.8 3.8-1.8 6.9-2.1 10.5-1.2 15.7-3.2 19.6-7.5 3.8-4.3 4.6-4.7 4.6-2.8 0 .7 1.1 4.6 2.4 8.7 2.9 9.3 4.8 10.6 10.3 6.8 2.1-1.4 5.1-3.1 6.7-3.7 2.1-.8 2.6-1.4 1.8-2.2-1.4-1.4-6.2.5-8.8 3.3-.9 1-2.7 1.9-3.9 1.9-1.8 0-2.5-1-3.9-5.1-1-3.4-1.3-5.6-.7-6.3s4.4-3 8.5-5.1c4.2-2.2 7.6-4.6 7.6-5.2 0-.8-3.5.6-8.5 3.2-4.7 2.5-9 4.3-9.5 4-.4-.3-1.2-2-1.6-3.7-1-4.7-3.4-7.9-7.1-9.4-3.3-1.4-5.8-1.6-8-.7m-19.7 26.1c-.4.3-1.4-.2-2.4-1.2-1.6-1.8-1.6-1.8.6-.6 1.3.6 2.1 1.4 1.8 1.8m13.6 13.8c2 6 3.4 11.2 3.2 11.6-1 1.6-2.4.7-2.4-1.5 0-1.3-.3-2.7-.7-3-.5-.6-6.2-17.4-6.3-18.5 0-.2.6-.2 1.2 0 .7.3 2.9 5.4 5 11.4m-4.4-.4c1.8 5.1 3.2 10.1 3.2 11 0 3.6-2.8 1.7-4.4-3-1-2.6-2.6-6.9-3.7-9.6-2.4-6.1-2.4-7.6-.1-7.6 1.4 0 2.6 2.2 5 9.2m-.1 15.5c-.4.3-1 .3-1.4 0-.3-.4 0-.7.7-.7s1 .3.7.7m2.8 8.5c2.2 4.5 2.7 9.8.9 9.8-.8 0-1.4-.6-1.4-1.4s-1.1-2.8-2.5-4.5c-2.3-2.6-2.4-3.3-1.3-5 1.7-2.8 2.4-2.6 4.3 1.1m11.7.7c-.9 2.2-2 3.6-2.5 3.2-1.1-1.1 1.3-7.1 2.8-7.1 1.1 0 1 .8-.3 3.9m-4.8 3c-.4 2.6-1.2 4.1-2.1 4.1-1.1 0-1.3-.8-.8-3.3.7-3.2 2.4-6.1 3.2-5.4.2.3.1 2.3-.3 4.6m17.6 1.5v3.1l-2.6-3.3c-1.4-1.7-3.2-3.2-4-3.2s-1.4-.4-1.4-.8c0-1.9 1.4-2 4.6-.5 2.8 1.4 3.4 2.2 3.4 4.7m-10.7-3.9c-.3.9-.8 1.4-1 1.1-.3-.3-.2-.9.2-1.5.9-1.6 1.5-1.3.8.4m-17.4 5.4c1.2 1.6 2.1 3.4 2.1 3.9 0 1.5-7.4 5.6-7.8 4.3-.2-.6-1.4-2.6-2.7-4.5-2.3-3.5-2.3-3.5-.2-5 3.4-2.4 6.3-1.9 8.6 1.3m23.8-.7c4.2 3.9 3.1 6.1-5.3 11.2-7.7 4.6-9.4 5.3-9.4 3.7 0-.4-1.1-2.4-2.5-4.4-1.3-2-2.1-3.8-1.7-4.1.4-.2 3-1.6 5.7-3.1 2.8-1.6 5.9-3.4 7-4.1 2.6-1.9 3.5-1.8 6.2.8m-33.8 5.4c2.5 3.2 2.7 5.2.4 6.1-2.1.8-5.3-3-5.3-6.3 0-3.2 2.3-3.1 4.9.2m-22.8 3.5c13 4.2 24 13.5 34.3 28.9 2 3 3.6 5.8 3.6 6.1 0 .4-1.7 1.7-3.7 3-2.5 1.5-3.3 2.4-2.3 2.6 2.4.5 2.1 8-.3 8.7-1 .2-1.7 1-1.6 1.8.8 5.9-4.1 4.4-5.7-1.7-.6-2.6-.5-2.8 2-2.3 1.4.3 3.3 0 4.2-.6 1.4-1 1.3-1.5-.6-3.9-1.9-2.3-1.9-2.8-.6-3.3 2.5-1 1.9-3-2.6-9.7-5.5-8.1-14-17-20.3-21.1-5.6-3.6-14.7-7.5-17.9-7.7-1.9-.1-1.8-.2.4-.9 3.7-1.2 7.3-1.1 11.1.1m60.9 1.4c0 2.7-.6 3-3 1.5-1.3-.8-1.2-1.1.5-2.4 2.6-2 2.5-2 2.5.9m-46.7.6c9.2 4.7 25.9 24.3 27.4 32.1.3 1.8 1.2 4.6 2 6.1.8 1.6 1.3 3.3 1.1 3.9-.3.9-1.8-2.1-6.5-13.2-3.6-8.4-15.2-21.2-25.7-28.2-4.9-3.3-4.1-3.6 1.7-.7m23.6.5c2.9 3.6 2.8 6.6-.1 6.2-2.6-.4-5.4-4.8-4.5-7.1.9-2.4 2.2-2.1 4.6.9m-6.9 2.6c1.1 1.2 1.9 2.2 1.7 2.3-.8.5-9.7-.8-9.7-1.4 0-.8 3.7-2.9 5.2-3 .4-.1 1.6.9 2.8 2.1m-31.8 2.3c7.5 3.9 15.4 10.6 20.9 17.7 2.4 3.2 5.2 6.7 6.2 7.9 2.2 2.9 2.2 4.6-.2 5.9-1.1.5-2.2 1-2.4 1s-2.8-3.1-5.6-7c-8.8-11.8-18.1-18-27.1-18-2.8 0-6.1.5-7.3 1.1-3.7 1.9-7.6 6.9-8.3 10.8-1.1 6.1-1.5 6.3-6.2 3.5-5.1-3-5.4-5.7-1.8-13.6 2.6-5.7 6.6-10 10.6-11.7 4.7-2 15-.8 21.2 2.4m59.8-1.4c.3.4 1.7 1 3.1 1.4 1.5.4 3.6 1.8 4.8 3.1 2 2.3 2.1 3.6 2.1 19.4 0 10.7-.4 17-1 17-.5 0-1 .7-1 1.6 0 1.2-.6 1.5-2.5 1-2.1-.5-2.4-.3-2.2 1.5.3 2.7-5.9 6.7-7.7 4.9-.8-.8-.2-1.9 2.2-4.1 1.7-1.6 3.5-4.2 3.9-5.7.3-1.4 1.5-4.1 2.6-6 1.6-2.6 1.9-4.4 1.4-8.8-.6-5.5-4.2-14-7.7-17.9-1-1.1-2-3.7-2.2-5.8-.4-3.4-.2-3.6 1.7-3.1 1.1.4 2.2 1 2.5 1.5m-6 1.3c0 1.3.3 3.9.6 5.7.5 2.3.3 3.1-.3 2.4-1.3-1.3-2.3-10.5-1.2-10.5.5 0 .9 1.1.9 2.4m-4.3 2.3c-.4.3-1 .3-1.4 0-.3-.4 0-.7.7-.7s1 .3.7.7m-11.3 3.5c9.3 6.1 15.6 17.4 16.3 29.3.3 4.4.2 7.7-.3 7.2-.4-.4-.9-3-1.1-5.7-.7-11.6-8.6-24.8-19.3-32.2-4.6-3.1-.4-1.8 4.4 1.4m12.6 1.5c0 1.9-1 1.6-3.7-.9-3.2-3-2.9-4.2.7-2.1 1.7.9 3 2.3 3 3m-1.4 4.9c5.6 7.8 8.4 15.7 8.3 22.8-.1 5.1-.1 5.1-1.4-2.1-1.7-9.5-5.3-17.1-10.9-23.1-4.9-5.3-5.8-6.9-2.6-5.2 1 .6 4 4 6.6 7.6m-10.8-1.2c2.6 2.4 6 6.7 7.5 9.5 2.9 5.5 6 15.8 5.1 17.2-1 1.8-2.1-.1-2.8-4.7-.8-6.2-6.1-15.9-11.8-21.7-5.9-5.9-4.3-6.2 2-.3M349 755c1.7 6 .9 6.8-1.1 1-1-3-2.5-6.7-3.4-8.2-2.5-4.3-1.6-4.6 1-.3 1.4 2.2 3 5.6 3.5 7.5m-64.3-8.8c2.8 1 3.3 1.7 3.3 4.3 0 1.8-.3 3.4-.6 3.8-.5.5-8.4-7.8-8.4-8.9 0-.7 2.3-.4 5.7.8m-5.1 3 2.9 3.3-3.2-2.9c-3.1-2.8-3.8-3.6-3-3.6.2 0 1.6 1.5 3.3 3.2m63.7 3.3c2.4 4.7 3.1 7.4 3.3 13.4.3 7.6.3 7.6-.6 2-.9-5.8-5.6-18.5-7.1-19.5-1.3-.8-1.1-2.6.3-2.2.6.2 2.5 3.1 4.1 6.3m-75.8.2c-.8 2.7-1.5 5.8-1.5 7.1 0 3.2-2.4 2.3-2.8-1.1s3.2-10.5 5.5-10.7c.1 0-.4 2.1-1.2 4.7M284 754c0 .5-.2 1-.4 1-.3 0-.8-.5-1.1-1-.3-.6-.1-1 .4-1 .6 0 1.1.4 1.1 1m17.7 9.2c-.3.8-.6.5-.6-.6-.1-1.1.2-1.7.5-1.3.3.3.4 1.2.1 1.9m4.8 2.4c1.6 2.4 1.6 2.8.1 4.3-1.5 1.4-1.8 1.4-2.6.1-1.2-1.9-1.3-7-.1-7 .5 0 1.6 1.2 2.6 2.6m25.5-1.1c0 .8-.2 1.5-.4 1.5s-.6-.7-1-1.5c-.3-.8-.1-1.5.4-1.5.6 0 1 .7 1 1.5m-31.3 2.2c-.4.3-.7 0-.7-.7s.3-1 .7-.7c.3.4.3 1 0 1.4m28 4.4c2.3 4.7 3 8.4 1.3 7.4-.5-.3-1-1.7-1-3.1s-1.2-3.5-3-5c-1.6-1.5-2.7-3.1-2.4-3.6 1.1-1.7 2.9-.2 5.1 4.3m-27-1.4c-.4.3-.7 0-.7-.7s.3-1 .7-.7c.3.4.3 1 0 1.4m3.3 5.7c0 .5-.7.1-1.5-1-.8-1-1.4-2.4-1.4-2.9 0-.6.6-.1 1.4.9.8 1.1 1.5 2.4 1.5 3m9.6-3.3c.4.7 0 .9-1.4.5-1.4-.5-2.5 0-3.5 1.5-1.3 1.8-1.3 2.6-.2 5.2.7 1.8 2.5 4.1 3.9 5.1 2.5 1.9 2.6 1.9 4.6.1 1.1-1 2-2.7 2-3.7 0-1.5.3-1.7 1.9-.8 1.1.5 5.4 1 9.6 1 5.1 0 7.7.4 8 1.2.3.7.6 4 .7 7.3.3 6 .3 6-4.9 6-3.5 0-5.8.6-7.1 1.9-2 1.7-2.1 1.7-4.6-2.2-2.8-4.4-5.9-5.8-8.1-3.5-1.9 1.8-1.9 2.7 0 6.3s5.1 5.9 7.5 5.3c2.3-.6 3.7 1.5 1.4 2.4-2.6 1-7.9-2.5-10.4-6.9-1.7-3-2.1-5-1.7-8.1.4-3.2.1-4.6-1.9-7.2-2.6-3.4-4-8.5-3.1-11 .7-1.7 6.2-2.1 7.3-.4m11.4.9c2.2 2.2 2.5 3.6.9 4.5-1.4.9-4.9-2.4-4.9-4.7 0-2.4 1.5-2.3 4 .2m-33.1 2.4c.9 1 .8 1.5-.4 2-.8.3-2.2.3-3 0-1.2-.5-1.3-1-.4-2 .6-.8 1.5-1.4 1.9-1.4s1.3.6 1.9 1.4m43.1.6c1.1.7 1.2 1.2.3 2.1-1.3 1.3-3.3.4-3.3-1.7 0-1.6.9-1.8 3-.4m22.4 6.7c-1.3 3.2-2.4 6.8-2.4 8 0 1.3-.2 2.3-.4 2.3-.7 0-10.6-6.2-10.6-6.6 0-.2 1.5-1.1 3.3-2 1.7-.9 4.8-3 6.7-4.5 5.3-4.4 6.1-3.7 3.4 2.8m-63.1-2.2c.8 1.8-1.1 3.1-2.5 1.7-1.1-1.1-.3-3.2 1.2-3.2.4 0 1 .7 1.3 1.5m49.7 9c0 .3-.2.5-.5.5s-.5-.2-.5-.5.2-.5.5-.5.5.2.5.5m9.8 10.1C358 803 358 803 358 816c0 7.1-.3 13-.6 13s-3.5-1.6-7-3.6c-5.2-2.9-6.4-4-6.4-6.1 0-1.7-1.4-3.8-4.1-6.3-2.3-2.1-3.7-4-3.1-4.4.6-.3 1.3-2.5 1.7-4.9.4-2.3 1.8-5.5 3.1-7 1.3-1.6 2.4-3.3 2.4-3.9 0-1.5 7 3 10.8 6.8m-32.8-3.4c2.5 4.1 2.5 4.8.1 4.8-2.2 0-5.1-3.5-5.1-6.2 0-2.9 2.9-2.1 5 1.4m37.5 3.1c1.2 1.6 1.5 5.2 1.5 15.3 0 9.8.3 13.4 1.3 14.3.8.6 1.8.7 2.2.3.5-.4.5-.1.1.5-.4.7-1.6 1.3-2.7 1.3-1.8 0-1.9-.8-1.9-12.3 0-14.3-1-18.7-5-22.1-1.7-1.3-3-2.8-3-3.1 0-1.1 5.9 3.5 7.5 5.8M332 799c0 .5-.4 1-1 1-.5 0-1-.5-1-1 0-.6.5-1 1-1 .6 0 1 .4 1 1m-23.9 5.1c5.1 6.1 4.6 8.4-1.7 8.4-3.9 0-3.9 0-4.2-6.8-.2-3.8.1-6.7.7-6.7.5 0 2.8 2.3 5.2 5.1m28.6-.4c-.3 1-.5.2-.5-1.7s.2-2.7.5-1.8c.2 1 .2 2.6 0 3.5m-3.1 2c-.5 1.3-.9 1.3-2.2.2-.8-.7-2-2.1-2.5-3.2-.9-1.6-.8-1.8.9-1.3 1.2.4 2.4.1 2.9-.6 1-1.6 1.8 2.6.9 4.9m-2.2 2.4c1.4 1.1 2.6 2.5 2.6 3 0 .6-1.4 3-3 5.5-3.3 4.7-5.7 5.9-4.5 2.1 1.9-6.4 2.3-9.3 1.5-10.1-1.2-1.2-1.3-2.6-.1-2.6.4 0 2 .9 3.5 2.1m37.9 11.4c-.4 1.5-3.6 1.2-4.1-.3-.3-.9.3-1.3 1.9-1 1.3.1 2.3.7 2.2 1.3m4.1 6c-1 .8-2.3 1.4-2.9 1.4-.5 0-.1-.6.9-1.4 1.1-.8 2.4-1.5 3-1.5.5 0 .1.7-1 1.5m-4.9 2.5c-.3.5-1.2 1-1.8 1-.7 0-.6-.4.3-1 1.9-1.2 2.3-1.2 1.5 0"/><path d="M333.2 654.2c.3.7 1.4 1.4 2.6 1.6 1.7.3 2.2 1 2.2 3.3 0 3.6-4.7 6.9-10 6.9-6 0-7.8-3.5-3.8-7.7 1.7-1.8 1.8-2.3.6-2.3-1.9 0-4.8 4.2-4.8 6.8 0 4.1 5.8 6.6 11.6 5 7.4-2 11-9.9 6.2-13.2-2.7-1.9-5.1-2.1-4.6-.4M369.7 653.7c-1.1 1-.8 10.1.3 10.8.6.4 1-1.7 1-5.4 0-6.2-.1-6.6-1.3-5.4M368.5 674c-.7 5-.1 7.5 1.6 6.5 1.2-.8 1.2-11.5 0-11.5-.5 0-1.2 2.2-1.6 5M355.5 688.2c.8 5.5 3.5 12.8 4.6 12.8 1.3 0 1.1-1.7-.5-4.8-.7-1.5-1.7-4.8-2-7.5-.4-2.6-1.2-4.7-1.7-4.7-.7 0-.8 1.6-.4 4.2M368.5 686.2c-.4.9-.5 3.7-.3 6.4.3 4.3.6 4.9 2.3 4.6 1.1-.2 3.3-1.9 4.9-3.8 3.6-4.4 6.9-4.4 7.4.1.5 4.1-2.4 9.1-6.4 11-3.5 1.6-4.5 3.5-2 3.5s7.8-5.3 9.8-9.7c1.6-3.7 1.7-4.7.6-7.1-2.1-4.3-6.7-4.2-10.6.2-1.7 2-3.4 3.6-3.7 3.6s-.5-2-.4-4.5c.3-4.6-.6-6.9-1.6-4.3M467.5 695.4c-18.7 5.9-34.5 22.9-44.8 48.3-2.4 5.9-4.4 14.3-3.4 14.3.3 0 1.9-4.4 3.6-9.8 7.9-24.4 25.4-44.2 44.6-50.3 6.1-1.9 7.4-2.1 11.5-1 9.6 2.6 13.8 7.3 16.1 18.1 2 9.4-1.1 25.4-7.7 39.7-3.3 7-9.6 15.7-16.8 23-3.9 4-6.4 7.3-5.6 7.3 1.7 0 11.8-10.4 16-16.5 4.1-6 10.4-18.7 13.1-26.5 1.9-5.4 2.3-8.7 2.3-19 .1-11.3-.1-12.9-2.2-16.9-5.5-10.2-15.5-14.2-26.7-10.7M368.7 703.7c-1.1 1-.8 9.1.3 9.8.6.4 1-1.5 1-4.9 0-5.7-.1-6.1-1.3-4.9M368.7 717.7c-1.1 1-.8 10.3.3 10.3.6 0 1-2.5 1-5.5 0-5.6-.1-6-1.3-4.8M374.5 719.7c-1.7.3-2 1.1-1.8 5.9.2 8.5 1.2 8.2 2.8-.9.4-2.8 1.1-3.7 2.5-3.7 1.1 0 2-.5 2-1 0-1-1.7-1.1-5.5-.3M363.2 728.6c-2 2.2-1.1 6.8 1.3 7.2 1.6.3 1.8.1.8-.9-1.5-1.6-1.7-4.9-.3-4.9.6 0 1-.7 1-1.5 0-1.9-1.1-1.9-2.8.1M368 736.5c0 3 .5 5.5 1 5.5.6 0 1-1.4 1-3.1 0-2.4.4-3 1.5-2.5.8.3 2.2.9 3 1.2 2.7 1.1 1.6-1.5-1.5-3.3-1.6-.9-3-2.1-3-2.5s-.4-.8-1-.8c-.5 0-1 2.5-1 5.5M217.4 733c-1.2.5-3.4 2.5-5 4.5-2.1 2.8-2.8 4.8-2.8 8.4 0 14.4 18.8 19.3 26.4 6.9 5.6-9.2-1.7-20.9-12.8-20.7-2 0-4.7.4-5.8.9m10.8 2c6.5 1.8 9.6 9.6 6.3 16s-10.2 8.8-16.5 5.5c-4.3-2.2-6-5.3-6-11 .1-5.5 1.3-7.7 5.6-10 3.4-1.8 5.6-1.9 10.6-.5"/><path d="M220.8 739.1c-2.2 1.2-2.4 4.9-.3 4.9.9 0 1.5-.9 1.5-2.1 0-2.8 3.4-2.1 3.8.9.2 1.6-.3 2.5-1.9 3-2.3.9-2.3.9 0 1.5 1.8.4 2.2 1.1 1.9 3.4-.4 3.3-3.8 4.7-3.8 1.4 0-2.7-1.5-3.4-3.1-1.5-2.8 3.4 5.7 6.6 9.5 3.4 2.1-1.6 2-5.7 0-6.8-1.4-.8-1.4-1 0-2.1 2.2-1.9 2-3.7-.6-5.5s-4.6-2-7-.5M371.7 741.2c-.6 2.4.5 12.5 1.8 16.6.6 1.7.4 2.1-.6 1.7-1.1-.4-1.3.6-1.1 5 .2 3 .7 5.3 1.2 5 .4-.2 1.9.1 3.4.8 1.9.9 2.6 1.9 2.6 4.2 0 4.6-1.7 9.7-4.5 13.5-2.5 3.3-3.4 8-1.6 8 1.5 0 6.3-6.2 8.4-11 1.1-2.5 2-6.4 2-8.7 0-3.9.1-4.1 2.4-3 1.7.8 2.3 1.8 2.3 4.3 0 1.8-.5 3.4-1.1 3.6s-1.3 3.2-1.6 6.6c-.5 5.6-.8 6.2-2.9 6.2-1.2 0-2.9.3-3.8.6-2.9 1.1-1.7 2.4 2.1 2.4 2.6 0 5.6 1.2 9.8 3.7 6.7 4.2 12.4 4.9 16.9 2 4.2-2.8 5.6-2.2 5.6 2.4 0 3.9-.1 4.1-5.6 6.6-6.9 3.1-10.7 2.8-18.6-1.8-5.6-3.2-5.8-3.4-6-7.9-.1-4.5-.1-4.5-.5-.3s-.4 4.2-5.1 4.9c-5.6.8-6.8 1.4-5.2 2.4.7.4 2.9.3 5.1-.2 4-1.1 3.5-1.2 16.9 5.9 1.4.7 3.3 1.3 4.3 1.3 1.4 0 1.7.9 1.7 5.7 0 6.7 1.4 6.3 1.5-.5.1-4.7.1-4.7 6.3-7.6 6.2-3 6.2-3 6.2-9.7 0-3.7-.4-7.1-1-7.4-1.8-1.1-1.1-2.5 1.7-3.6 2.2-.8 3-.6 5.2 1.5 5.7 5.4 10.1 7 18.6 6.9 6.2 0 9.3-.6 13.6-2.4 6.9-3 10.6-5.5 9.7-6.5-.5-.4-1.6 0-2.5.8-4.1 3.4-13.6 6.2-20.8 6.1-16.6-.2-24.3-9.4-24.5-29.3 0-6-.3-7.1-1.2-5.6-.6 1.1-.8 4.5-.5 8.5s.2 5.8-.3 4.6c-.5-1.1-.9-5.1-.9-8.8-.1-4.8-.4-6.6-1.2-6.1-1.5.9-.5 13.5 1.5 19.2.8 2.3 1.3 4.2 1 4.2-.5 0-3.2-1.5-11.5-6.1-1.3-.8-2.6-1.7-2.9-2-1.4-1.5-16.2-8.9-17.9-8.9-1.4 0-2.1-.9-2.6-3.3-.3-1.7-1.3-5.2-2.1-7.7-.7-2.5-1.6-7.6-1.8-11.3-.4-7.4-1-9.1-1.9-5.5m4.3 24c0 1-.4 1.8-1 1.8-.5 0-1-1.5-1-3.3 0-2.4.3-2.8 1-1.7.5.8 1 2.3 1 3.2m4 18.7c-1.2 2.8-2.9 5.6-3.8 6.3-.9.8-.4-.7 1.1-3.4 1.4-2.6 2.9-6.4 3.4-8.5.5-2.7.8-3.2 1.1-1.6.2 1.2-.7 4.4-1.8 7.2m14.6-5.7c.4.6-.1 1.7-1.1 2.5-2.9 2-4.3 1.6-3.7-1.2.5-2.6 3.5-3.5 4.8-1.3m7.2 4c.7.7 1.2 2.7 1.2 4.6 0 3.2-.1 3.3-2.9 2.7-2-.4-4.2 0-7 1.4-5.1 2.7-6.1 2.6-6.1-.2 0-3.9 1.2-6.7 2.9-6.7.9-.1 2.7-.7 4.1-1.5 3.1-1.8 6.2-1.9 7.8-.3m4.2 5.8c0 1.6-.4 3-1 3-.5 0-1-1.4-1-3 0-1.7.5-3 1-3 .6 0 1 1.3 1 3m6.2.2c3.5 1.6 3.5 2-.2 4.1-3.8 2.3-5 1.5-5-3 0-3.7 0-3.7 5.2-1.1m-7.1 6c3.2 1.7 5.9 3.4 5.9 3.8 0 1.4-4.7 3.2-9.4 3.6-4.1.4-5.9 0-9-1.8-2.2-1.3-4.1-2.8-4.3-3.3-.3-1.1 7.1-5.3 9.5-5.4.7-.1 4 1.3 7.3 3.1"/><path d="M397.3 794.7c-2.2.8-1.4 3.9 1.4 5.2 2.3 1 2.9.9 4.5-.7 1.8-1.8 1.8-2 .3-3.6-1.6-1.6-3.8-1.9-6.2-.9m5.2 2.3c.4.6-.5 1-1.9 1s-2.6-.5-2.6-1c0-.6.9-1 1.9-1 1.1 0 2.3.4 2.6 1M380.5 740.9c.9 1.5 9.8 6.2 10.9 5.8.6-.2-1.1-1.8-3.9-3.5-4.9-3.1-8.2-4.1-7-2.3M368 753.1c0 3.1.4 4.8 1 4.4.6-.3 1-2.6 1-5.1 0-2.4-.4-4.4-1-4.4-.5 0-1 2.3-1 5.1M396 749.7c0 .8 8.2 6.3 9.4 6.3 1.9 0 .1-2.2-3.7-4.5-4.6-2.6-5.7-3-5.7-1.8M413 759.7c0 .4 1 1.4 2.3 2.2 1.2.8 3.2 2.1 4.5 2.9 1.9 1.2 2.2 1.2 2.2 0s-2.3-2.8-8.2-5.6c-.5-.2-.8 0-.8.5M164.1 762.6c0 1.1.3 1.4.6.6.3-.7.2-1.6-.1-1.9-.3-.4-.6.2-.5 1.3M362.4 763.2c-1.2 2.8-.7 5.8.9 5.8.8 0 1.2-1.6 1.2-4q0-6.75-2.1-1.8M222 783.9v22l-3.7 2.8c-2.1 1.5-4 2.8-4.2 3-1 .6 0 8.8 1.3 10.8 2.5 3.7 5.8 6.5 7.9 6.5 2.7 0 10.5-4.8 10.9-6.8 1.2-5.5-3.4-14.2-8.4-15.8-1.6-.5-1.8-1.7-1.8-9.9v-9.4l7.3-4 7.2-4 .3 7.6c.3 7.5.2 7.7-2.8 10.1-2.4 1.9-3 3.1-3 6 0 2 .4 4.3.9 5.1 1.3 2.1 5.1-.4 5.1-3.4 0-1.4.4-2.5 1-2.5 1.5 0 5 4.2 5.7 6.8.7 3-.3 3.9-2.7 2.4-2.1-1.2-7-.1-7 1.7 0 1.3 6.6 6.1 8.4 6.1 2.5 0 7.4-3.4 8.6-5.9 2.3-5.1-3.8-16.1-10.1-18.3-2.8-1-2.8-1-2.4-8.8.3-4.6.1-8.2-.5-8.5-.9-.6-11.3 4.5-13.4 6.6-2.2 2.1-2.6.4-2.6-10.6 0-7-.4-11.5-1-11.5s-1 8-1 21.9m25.1 15.8c4.3 4.7 6.4 12.2 3.9 13.8-.6.3-1-.5-1-1.9 0-3.6-1.9-7.6-5.4-11.4-2.1-2.2-2.5-3.2-1.5-3.2.8 0 2.7 1.2 4 2.7m-2.9 2.3c2.1 2.3 3.8 4.9 3.8 5.8-.1 1-.9.1-2.1-2-3.2-6.2-8.2-7.7-10.1-3.1-1.1 2.7-1.2 2.8-1.6.5-.4-2.9 1.4-5.2 4.1-5.2 1.1 0 3.7 1.8 5.9 4m-6.2 2.5c0 .3-.2.5-.5.5s-.5-.2-.5-.5.2-.5.5-.5.5.2.5.5m-12 4.5c0 1.2-4.8 2.5-5.8 1.6-.8-.9 1.8-2.6 4.1-2.6.9 0 1.7.4 1.7 1m4.2 2.7c2.5 2.2 2.3 6-.3 6.8-1.1.4-2.2.5-2.3.3-3.8-5.8-3.9-6.1-2-7.5 2.3-1.6 2.4-1.6 4.6.4m-9.2.6c2.9 2.3 6.1 8.6 5.8 11.4-.6 5-6.8 4-10.1-1.7-3.8-6.4-.6-13.6 4.3-9.7m27.1 2.6c-1.2 2.2-5.5 2.9-6.6 1.1-.3-.6.5-1 1.9-1 1.6 0 2.7-.7 3.1-2.1.5-1.4 1-1.8 1.7-1.1.6.6.6 1.7-.1 3.1m-15.1 5.4c0 .8-.9 2.2-2 3.2-1.8 1.6-2 1.7-2.6.1-.4-1.1.1-2.2 1.2-3.1 2.4-1.8 3.4-1.9 3.4-.2"/><path d="M217 816c-1.3 2.3.9 7.4 3.6 8.4 4.5 1.7 5.5-5.1 1.2-8.7-2.6-2.2-3.5-2.2-4.8.3m5.4 3.2c.5 1.5.6 3.1.2 3.5-1.3 1.3-4.1-1.3-4.4-4.1-.3-2.2 0-2.7 1.5-2.4.9.2 2.2 1.5 2.7 3M367.4 763.3c-.8 2.3 0 9.2 1.1 8.9 1.2-.3 1.5-9.1.3-9.8-.4-.3-1.1.1-1.4.9M164.1 766.6c0 1.1.3 1.4.6.6.3-.7.2-1.6-.1-1.9-.3-.4-.6.2-.5 1.3M418.1 771.2c-.3 13.5 9.8 24.8 22.3 24.8 4.8 0 13-2.3 16-4.6 3.4-2.4 1-2.6-3.6-.3-3.3 1.7-6.1 2.2-11.9 2.3-7.1.1-8-.1-12-3-5.3-3.8-7.9-8.7-9.5-17.3-1.2-6.6-1.2-6.6-1.3-1.9M429 768.8c0 1.3 8.1 6.5 8.8 5.7.8-.7-1.8-2.8-6-5.1-1.6-.8-2.8-1-2.8-.6M164.2 772.5c0 1.6.2 2.2.5 1.2.2-.9.2-2.3 0-3-.3-.6-.5.1-.5 1.8M371 775c0 .6.7 1.3 1.5 1.6 1.7.7 2.1 5.9.5 6.9-1.2.7-1.3 3.5-.2 3.5.9 0 3.2-5.9 3.2-8.2 0-1.5-3-4.8-4.3-4.8-.4 0-.7.5-.7 1M578 774.8c-4.5.6-9.4 2.4-11.4 4.5-1.2 1-3.5 2.5-5.2 3.3-4.1 1.7-9.1 6.5-10.4 9.8-1.3 3.6-1.3 11.2.2 13.9.6 1.2 3.1 4.1 5.5 6.4 2.3 2.3 4.3 4.6 4.3 5.1 0 1.3 3.1 4.6 6.3 6.7 2.8 1.8 2.8 1.8-.4 5.1-2.7 2.7-3.4 3.1-5 2.1-1.5-.9-2.9-.6-7.2 1.5-5.4 2.6-5.4 2.6-6 11.4-.4 7.2-.2 9.5 1.4 13.1 2.4 5.7 2.4 8.4-.1 12.8-2.3 4.1-2.8 15.9-.7 18.6.7.9 3.2 2.6 5.7 3.9 2.4 1.2 6 3.3 8 4.6 5 3.3 10.9 4 15.1 1.9 5.6-2.9 21.7-15.2 22.9-17.6.7-1.2 1.4-4.9 1.7-8.3.6-8.3.9-8.9 3.1-7.7 4.3 2.3 4.7.4 5-22l.3-21.2 16 .6c8.7.3 15.9.2 15.9-.2 0-1.2-9-2.1-21.2-2.1h-10.6l-.4-6.8c-.2-3.7 0-7.5.4-8.4s.8-4.6.8-8.1c0-6.2-.1-6.6-4.1-10.6-2.3-2.2-4.6-4.1-5.2-4.1-.5 0-2.5-1.1-4.3-2.5-5.5-4.2-13.9-6.5-20.4-5.7m10.7 3.7c1.1.8 2.4 3 2.7 4.9.4 1.9 1.3 3.7 2.1 4 1.7.6 2.1-.9.5-1.9-.5-.3-1-2-1-3.6 0-2.7.2-2.9 2.1-1.9 1.9 1.1 8.9 14.6 8.9 17.3 0 2.3-3.1 5.7-7.3 7.9-3.5 1.9-5.8 2.3-14.2 2.3-8.7 0-10.6-.3-14.8-2.5-2.7-1.4-5.6-3.7-6.5-5.2-1.4-2.4-1.5-3.2-.3-6.5 2.6-7.2 5.1-11.8 7.2-13.1 2.9-1.9 3.7-.6 1.7 2.9-1.3 2.3-1.4 2.9-.4 2.9.8 0 1.9-1.4 2.5-3.1.6-1.8 1.9-3.8 2.8-4.5 2.4-1.8 11.3-1.8 14 .1m-26.7 7.8c0 .7-.4 1.7-.8 2.2-.4.6-1.4 2.7-2 4.7-5.4 15.8 29.5 24 43.3 10.3 2.9-3 3.3-8 .9-12.6-.8-1.7-1.4-3.8-1.2-4.7.3-1.3 1.1-1 4.1 1.8 11.1 10.3.1 22.4-21.6 23.7-6.7.4-10.9.1-15.5-1.1-6.6-1.7-14.4-6.3-16.2-9.6-2.6-4.9-.2-11.5 5.5-14.8 2.6-1.5 3.5-1.5 3.5.1m1.4 24.7c13.1 5.6 32.3 3.9 42.4-3.7 4.6-3.4 5-2.3.8 1.9-5.6 5.6-15.1 8.2-27.9 7.6-13.5-.6-22.2-4.4-25.9-11.2-.8-1.5-.3-1.3 2.3.7 1.9 1.4 5.6 3.5 8.3 4.7m45.8 1.7c.6 2.6-.2 48.5-.8 50.3-.4 1.2-.9 1-2.5-.9-1.7-2.1-1.9-4-1.9-19 0-15.3-.2-16.9-2-18.9-2.7-2.9-2.6-3.7 1.6-8.8 4-4.8 5.1-5.3 5.6-2.7m-10.2 4.7c-4.6 5.7-26.4 6.7-33 1.6-2.5-1.9-2.5-1.9 0-1.4 1.4.2 4.5.9 7 1.4 5.7 1.1 16.2.4 22-1.4 2.5-.8 4.7-1.5 4.9-1.5.2-.1-.2.6-.9 1.3m-2.2 7.7c.8 1.3 1.5 7.6 1.9 17.7.3 9.4 1.1 16.7 1.8 18.2 1.3 2.6.6 16.4-1 20.3-.9 2.1-20.9 16.5-24.2 17.3-3.6.9-9.6-1.2-17.7-6.1-7.1-4.3-7.1-4.3-7.4-11.1-.2-5.5.2-7.9 2-11.7 2.2-4.9 2.2-4.9.3-9.5-1.1-2.8-2-8.1-2.2-13.1-.5-8.4-.5-8.4 1.9-7.7 6.2 2 6.4 1.9 11.4-3.3 2.7-2.8 5.2-5.1 5.6-5.1.5 0 .8 5.8.8 12.9 0 11.8.2 13.2 2.5 17.3 2.2 4 2.3 4.7 1 6.4-.8 1-1.5 4-1.5 6.6 0 4.5.2 4.9 4 6.8 5.5 2.8 9.4 2.6 11.9-.6 2.4-3 2.9-10.2.9-13.3-.9-1.5-.7-2.7 1-6.3 1.9-3.9 2.2-6.1 2.2-18.4 0-9.5-.4-14.4-1.2-15.2-.9-.9-.8-1.5.8-2.7 2.6-2 3.7-1.9 5.2.6m5.1 18.2c-.2 12.3-.4 14.8-.9 10.2-1.2-9.3-1.2-27.7 0-27 .6.4.9 6.9.9 16.8M588 828.4c0 5.2-12.8 5.5-13.8.3-.3-1.5.6-1.7 6.7-1.7 5.4 0 7.1.3 7.1 1.4m2 3.1c0 .3-.2.5-.5.5s-.5-.2-.5-.5.2-.5.5-.5.5.2.5.5m-8.3 5.3c2.7-.3 5.6-.8 6.6-1.2 1.3-.6 1.7-.4 1.7 1 0 3.5-1.7 4.7-7.4 5.2-6.7.5-10.6-1.4-10.6-5.3 0-2.5.1-2.5 2.5-.9 1.7 1.1 3.9 1.5 7.2 1.2m-26 .8c-.9.9-2.8-.6-2.1-1.8.4-.6 1-.6 1.7.1.6.6.8 1.3.4 1.7m5.3-2.1c0 .3-.2.5-.5.5s-.5-.2-.5-.5.2-.5.5-.5.5.2.5.5m20.5 8.9c1.7 0 4.4-.4 6-.8 3-.7 3-.7.6 1.3-2.6 2.4-9.4 2.8-13.6.9-3.6-1.6-3.1-3.1.8-2.2 1.7.5 4.6.8 6.2.8m1.3 4.1c6.1 0 7 .2 5.6 1.2-3.9 2.9-16.4 1.4-16.4-1.8q0-1.05 1.8-.3c.9.5 5 .9 9 .9m-4.5 5c1.9.4 5.1.2 7.1-.4 2.7-.7 3.6-.7 3.3.2-1 3.1-13.3 3.1-15.9 0-1.1-1.4-1.1-1.6.4-1 .9.3 3.2.9 5.1 1.2m5.9 4.2c4.9-.6 6.6.6 2.6 1.7-4.7 1.2-10.6.6-12.9-1.4-2.4-1.9-2.4-1.9 1.6-.8 2.2.5 6.1.8 8.7.5m2.1 5.9c-.6 1.6-4.7 2.6-7.7 1.8-1.4-.3-2.7-1.1-2.9-1.8-.4-.9 1.1-1.3 5.3-1.3s5.7.4 5.3 1.3m-7.9 8.3c-.7.9-3.4-1-3.4-2.4 0-1.3.3-1.2 1.8.2 1 1 1.7 2 1.6 2.2m5.6-2.9c0 .5-1.1 1-2.4 1-1.4 0-2.8-.5-3.1-1-.4-.6.7-1 2.4-1s3.1.4 3.1 1m2.5 1.9c-.3.6-1.1 1.1-1.6 1.1s-.4-.6.3-1.4c1.4-1.6 2.4-1.3 1.3.3m-3.2 5.8c-.3.7 0 2 .7 2.8 1 1.2.9 1.5-.8 1.5-1.4 0-2.2-.8-2.4-2.2s-1.2-2.4-2.7-2.8c-1.4-.3-2.6-1-2.8-1.6-.3-.8.9-.9 4.1-.1 3.1.7 4.3 1.4 3.9 2.4m4.7-3.2c0 .3-.2.5-.5.5s-.5-.2-.5-.5.2-.5.5-.5.5.2.5.5m-10 4.5c.8.5 1.2 1.1.9 1.4s-1.4-.1-2.5-.9c-2.1-1.6-.8-2 1.6-.5"/><path d="M574.2 785.2c.7 1.9 7.3 3.1 11.5 2.1 2-.4 3.8-1.4 4.1-2.1.3-1-.3-1.1-2.5-.5-1.5.4-3.9.8-5.3.8s-3.8-.4-5.3-.8c-2.2-.6-2.8-.5-2.5.5"/><path d="M572.2 788.1c1.2 3.6 14.2 4.9 17.4 1.7 1.1-1.1 0-1.3-6.4-1.3-4.2 0-8.5-.4-9.6-.9-1.4-.7-1.8-.6-1.4.5"/><path d="M567.3 791.5c7.3 6.4 24.2 6.1 30.3-.6 1.6-1.7 1.6-1.9.1-1.9-1 0-1.7.4-1.7.9 0 1.9-6.8 3.6-14.6 3.5-6.5 0-8.9-.5-11.8-2.2-4.8-2.9-5.8-2.7-2.3.3M164 778c0 .7.3 1 .7.7.3-.4.3-1 0-1.4-.4-.3-.7 0-.7.7M367.7 777.7c-1 1-.8 9.3.2 9.3.5 0 1.1-1.9 1.3-4.3.5-4.1-.2-6.4-1.5-5M444 777.8c0 .4 1 1.3 2.3 2.1 1.2.8 3.2 2 4.4 2.8 1.3.9 2.4 1 2.7.4.3-.5-1.5-2.1-4-3.5-5.1-2.8-5.4-3-5.4-1.8M363.2 781.2c-2.2 2.7-2.5 6.8-.7 8.8 1 1.1 2.2 1.7 2.7 1.4s.1-1.5-.8-2.5c-1.5-1.7-1.6-2.5-.6-5.1 1.3-3.5 1.1-4.5-.6-2.6M164 784.2c0 1.8-.2 25.6-.4 52.8-.3 27.2-.1 47.2.3 44.5.8-5.7 1.4-100.5.6-100.5-.3 0-.5 1.5-.5 3.2M267 788.1c-3 1.6-5.9 3-6.5 3.2-.5.2-.8.7-.5 1 1.2 1.3 14-4.7 14-6.5 0-1.1-.8-.9-7 2.3M271.3 789.6c-5.7 3.4-5.5 5 .2 2.2 2.5-1.2 4.5-2.8 4.5-3.5 0-1.6.3-1.7-4.7 1.3M461 787.8c0 1.2 7.9 5.4 9.2 5 .7-.3-.8-1.7-3.3-3.1-4.9-2.9-5.9-3.2-5.9-1.9M367.7 791.7c-1.1 1-.8 9.3.3 9.3.6 0 1-2.3 1-5 0-5.1-.1-5.5-1.3-4.3M259.6 795.9c-.3.5-2.1 1.6-4.1 2.5-1.9.9-3.5 2.1-3.5 2.6 0 1.4.4 1.3 5-1.1 4.4-2.3 5.5-3.5 4.1-4.3-.5-.4-1.2-.2-1.5.3M477 796.7c.1 1.4 9 6.3 9 5 0-.7-1.8-2.2-4-3.5-4.2-2.4-5-2.6-5-1.5M494 806.1c0 1 7.4 5.9 9 5.9 2 0 .1-1.8-4.5-4.3-2.5-1.4-4.5-2.1-4.5-1.6M645.7 809.6c-.3.5-.8 5.9-1.2 11.9-.6 8.8-.4 11.3.6 12.2 1 .7 15 1.2 44.4 1.4l43 .4.5-11.5c.3-6.3.2-12-.3-12.6-.5-.8-7.3-1.2-22-1.3-11.7 0-30.9-.4-42.8-.7-12.4-.4-21.8-.3-22.2.2m54.8 2.9c11 .2 22.1.4 24.8.5h4.7v20.5l-40.2-.3c-22.2-.1-40.9-.5-41.6-.7-1-.4-1.2-2.4-.8-8.2.3-4.3.5-9 .5-10.6.1-2.7.1-2.7 16.4-2.2 8.9.3 25.2.7 36.2 1"/><path d="M655.8 821.2c-.3 7.4.6 11.1 2.2 9 .9-1.1-.1-17.2-1-17.2-.5 0-1 3.7-1.2 8.2M666.2 814.2c-1.7 1.7-1.5 3.1.3 2.4 1.8-.6 2.1 2.9.4 4-.8.5-.6 1 .5 1.6 1.8 1 2.2 4.3.6 5.3-.6.3-1.3-.1-1.6-.9-.3-.9-1-1.6-1.5-1.6-1.6 0-1 2.6 1 4.4 3 2.8 4.7-.3 4.3-8.2-.3-8.3-1.2-9.8-4-7M684.6 813.9c-.4.5-.1 4.4.5 8.6.8 4.9 1.5 7.2 2 6.3.5-.7.9-2.4.9-3.8 0-2 .2-2.2 1-1 .5.8 1 2.5 1 3.8 0 3.7 1.7 1.6 2.4-3 .3-2.4.9-6 1.2-8.1.4-2.4.2-3.7-.5-3.7-.6 0-1.1 1.5-1.1 3.4s-.4 3.8-1 4.1c-.6.4-1-1-1-3.5s-.4-3.9-1-3.5c-.5.3-1 2.3-1 4.3-.1 3.1-.2 3.4-1.1 1.9-.6-1-.9-2.7-.6-3.8.5-2-.8-3.6-1.7-2M697.4 815.1c-.3.6-.8 3.9-1 7.4-.4 6.6.8 9.1 3.8 8 2.1-.8 4-5.2 2.7-6.1-.7-.4-.8-2-.4-4.1s.2-4-.6-4.9c-1.4-1.7-3.5-1.8-4.5-.3m3.6 3.5c0 3.1-2.3 2.8-2.8-.4-.2-1.5.2-2.2 1.2-2.2 1.1 0 1.6.9 1.6 2.6m-.2 7.1c-.4 3.9-2.8 4.2-2.8.4 0-2.1.5-3.1 1.6-3.1s1.4.8 1.2 2.7M707.9 816.7c-1.3 3.4-.7 11.9 1 13.6 2.8 2.7 6.1-6.8 4.4-12.6-1.2-4.2-4-4.7-5.4-1m3.9 5.8c-.4 7-2.8 7.2-2.8.2 0-2.9.3-5.7.7-6 1.4-1.5 2.4 1.2 2.1 5.8M675 822c0 .5 1.6 1 3.6 1 2.1 0 3.3-.4 2.9-1-.3-.6-1.9-1-3.6-1-1.6 0-2.9.4-2.9 1M510.6 815.8c-.6 1 8.3 6.7 9.1 5.8.4-.3.4-.7.2-.9-4.6-3.2-8.9-5.5-9.3-4.9M526 825.5c0 .9 8.2 5.6 9.2 5.3.6-.2-.8-1.6-3.1-3.1-3.8-2.5-6.1-3.4-6.1-2.2M366 836.4c0 2.7-.5 3.6-2.2 4.2-3.2.9-5.8 3.4-5.8 5.5 0 1.5-1 1.9-6.2 2.1-7.7.4-7.9 2.2-.3 2.6 4.2.2 6.1.9 7.9 2.7 3.5 3.5 6.9 4 11.3 1.8 3.6-1.7 3.8-2 3.8-6.8 0-4.5-.3-5.1-3.2-7-2.5-1.6-3.2-2.7-3.3-5.3 0-1.7-.4-3.2-1-3.2-.5 0-1 1.5-1 3.4m6.5 9.1c0 1-.4 2-1 2.2-.5.1-1-.8-1-2.2s.5-2.4 1-2.2c.6.2 1 1.2 1 2.2m-10.5.6c0 1.1-.4 1.7-1 1.4-.5-.3-1-1.3-1-2.1s.5-1.4 1-1.4c.6 0 1 .9 1 2.1m7.4-1.2c.3.5-.1 1.2-1 1.5-2.7 1-4.4.7-4.4-.9s4.5-2.1 5.4-.6M362 851c0 1.1-.4 2-1 2-.5 0-1-.9-1-2s.5-2 1-2c.6 0 1 .9 1 2m10.6 1.7c-1.1 1.1-1.9-.6-1.1-2.4.8-1.7.8-1.7 1.2 0 .3 1 .2 2.1-.1 2.4m-2.6-.2c0 1.8-4.8 3.1-6.2 1.7-1.6-1.6 0-3.2 3.3-3.2 1.9 0 2.9.5 2.9 1.5M400.3 839c0 3.6.2 5 .4 3.2.2-1.7.2-4.7 0-6.5-.2-1.7-.4-.3-.4 3.3M541.2 834.2c.6 1.7 3.6 3.4 4.4 2.5.4-.4-.1-1.4-1.2-2.2-2.3-1.8-3.7-1.9-3.2-.3"/><path d="M321.3 839.3c-1.8 1.2-4.2 4.1-5.3 6.5-1.8 3.7-1.9 4.9-.9 8.5 3.5 13 20.5 15.2 26.6 3.4 6.4-12.5-8.9-26.2-20.4-18.4m13.5 1.1c8.5 4.6 8.1 18.1-.6 22.2-9.9 4.7-20.6-6.1-16.3-16.4 2.3-5.6 11.6-8.8 16.9-5.8"/><path d="M326.2 848.5c-4.7 5.9-4.7 7.5-.1 7.5 3.1 0 3.6.9 1.7 2.8-.9.9-.3 1.2 3 1.2 2.3 0 4.2-.5 4.2-1 0-.6-.4-1-1-1-.5 0-1-.7-1-1.5s.4-1.5.9-1.5c.6 0 .3-1.2-.5-2.8-.7-1.5-1.4-4.2-1.4-6 0-1.7-.3-3.2-.7-3.2-.5.1-2.7 2.5-5.1 5.5m2.8 3c0 1.8-.5 2.5-2 2.5-1.7 0-1.8-.3-.8-2.5.6-1.4 1.5-2.5 2-2.5.4 0 .8 1.1.8 2.5M399.7 849.7c-1.1 1-.8 10.3.3 10.3.6 0 1-2.5 1-5.5 0-5.6-.1-6-1.3-4.8M412.5 862.3c-6.6 3.5-8 4.6-8.2 6.8-.1 2.2.2 2.5 2.5 2.2 1.9-.3 5.7 1.4 13.2 5.8 5.8 3.4 11.7 6.9 13.2 7.8 3.4 1.9 3.5 3.2.5 4.7-1.2.6-4.4 2.3-7 3.8-5.8 3.3-7 3.1-16.1-2.4-3.6-2.2-7-4-7.4-4-.5 0-.7 1.2-.4 2.6.3 1.8 2 3.4 5.8 5.6 3 1.6 5.6 3.4 5.9 3.9.3.4-2.4 2.5-6 4.6-3.6 2-6.5 4.1-6.5 4.5 0 1.3.9 1 6.8-2.3 7.4-4 8.3-4.9 7.7-6.8-.4-1.3.3-1.6 3.8-1.7 3.1 0 5.9-1.1 10.7-4.1 8-4.9 8.5-6.9 2.9-10.4-4.1-2.6-4.1-2.6-.8-3.3 1.9-.3 4.7-1.7 6.4-3 3-2.4 3-2.4 1.1-4.5-1.1-1.2-5.3-4-9.3-6.2-4.1-2.3-7.2-4.3-7-4.6.3-.2 2 .5 3.8 1.5 1.9 1.1 6.1 3.5 9.4 5.4 7.2 4.1 7.9 6 3.2 8.8-5.1 3-5.4 4.9-1.5 8.2 3.9 3.2 3.9 3.1-6.7 9-4.4 2.5-10.1 5.7-12.7 7.1-2.7 1.5-6.9 3.9-9.5 5.3-5.6 3-8.4 5.4-6.5 5.4.7 0 5.9-2.6 11.5-5.9 5.6-3.2 13.4-7.5 17.2-9.6 3.9-2.1 7.8-4.5 8.8-5.3 2.5-2.2 2.1-5.3-1-7.8-2.8-2.2-2.8-2.2 1-4.4 3.5-2.1 5.6-5.8 4.3-7.8-.9-1.5-19.8-12-22.6-12.6-1.8-.4-4.8.7-10.5 3.7m5.5.2c0 .3-.2.5-.5.5s-.5-.2-.5-.5.2-.5.5-.5.5.2.5.5m-4 2.5c-1.1 1.1-2 2.7-2 3.5 0 1.1-.8 1.3-3.2.8-1.8-.3-3.4-.7-3.6-.8-.4-.3 8.9-5.2 10.1-5.4.4-.1-.2.8-1.3 1.9m18 3.6c4.4 2.5 8 4.9 8 5.3 0 .5-1.9 1.6-4.1 2.7-4.6 2-2.7 2.6-17.7-5.6-4.6-2.6-4.9-3.8-1.1-5.7 4-2.1 6.6-1.5 14.9 3.3m-23 23.9c0 .3-.2.5-.5.5s-.5-.2-.5-.5.2-.5.5-.5.5.2.5.5m2 1c0 .3-.2.5-.5.5s-.5-.2-.5-.5.2-.5.5-.5.5.2.5.5M399 870.6c0 3.4.4 5.3 1 4.9.6-.3 1-2.8 1-5.6 0-2.7-.4-4.9-1-4.9-.5 0-1 2.5-1 5.6M604 870.7c0 .5 1.8 1.8 4 3.1 4.8 2.7 5.4 1.2.6-1.7-3.6-2.2-4.6-2.5-4.6-1.4M393.5 871.9c-.6.5-5 3.1-10 5.7-14.8 7.7-17.9 9.5-20.2 11.6-2 1.9-3.3 2-27.4 1.6-19.5-.2-25.3 0-25.6.9-.4 1 5.2 1.3 25.5 1.3 24.2 0 26 .1 26.4 1.8.3 1 4.3 4.1 8.9 6.9s11.4 6.9 15.1 9.2c6.7 4 9.8 5 9.8 3.1 0-.6-.6-1-1.3-1-1.6 0-27.6-15.5-30.1-18-2.6-2.5-1.6-4.3 4-7.4 5.5-3.1 7.2-2.9 1.9.3-7 4.1-5.8 6.4 7.4 14.2 4.7 2.8 10.1 5.9 11.8 7 1.8 1.1 4.1 1.9 5 1.7 1.4-.3 1.2-.7-1.2-1.9-11-5.7-25.5-15-25.5-16.3 0-1.5 15-9.6 17.9-9.6 1.1 0 3.5.9 5.3 2s3.8 2 4.5 2c1.7 0 .3-4.2-2.1-6.2-2.1-1.8-1.8-2.6 1.9-4.2.6-.3.4-.8-.4-1.4-.9-.7-1-1.2-.2-1.6 1.3-.8 1.5-2.6.3-2.6-.4 0-1.2.4-1.7.9m-2 5.1c-1.4 1.5-1.5 2.3-.6 3.4 1 1.1.4 1.3-3.3.9-3.5-.4-5.4 0-8.2 1.6-2 1.2-3.9 2-4.1 1.7-.4-.4 16.2-9.4 17.6-9.5.2-.1-.4.8-1.4 1.9m2.5 6.5c0 .3-.2.5-.5.5s-.5-.2-.5-.5.2-.5.5-.5.5.2.5.5M218.4 879.3c-.2.7-.3 6.2-.2 12.3l.3 10.9 43.8.3 43.8.2-.3-12.2-.3-12.3-43.3-.3c-35.2-.2-43.3 0-43.8 1.1m84.5 2.3c.5.5.9 16.7.3 18.1-.3 1-9.5 1.3-41.3 1.3H221v-21.1l40.8.6c22.4.4 40.9.9 41.1 1.1"/><path d="M229.9 882.4c-.4 2.9-.1 15.8.4 16.2.3.3 1.1.3 1.7-.1.8-.5.8-1 0-2-.7-.9-1-3.7-.7-7.4.3-3.4.1-6.3-.4-6.7-.5-.3-.9-.3-1 0M239.1 883.4c-.8 1-.9 1.6-.1 2.1.5.3 1 .1 1-.4 0-.6.5-1.1 1-1.1 1.4 0 1.2 3.3-.2 4.9-1 1.1-1 1.4 0 1.8 1.4.6 1.7 5.3.2 5.3-.5 0-1-.7-1-1.5s-.4-1.5-1-1.5c-1.6 0-1.2 3.7.5 4.4 3.5 1.3 4.5-.4 4.2-6.8-.3-8.1-1.9-10.5-4.6-7.2M257.3 883.3c.3.8.8 4.3 1.2 8 .7 6.6 2.5 8.4 2.5 2.6 0-1.8.4-2.8 1-2.4.6.3 1 2 1 3.7 0 4.6 1 2.8 2.6-4.4 1.9-9.1 2.1-8.8-3.7-8.8-3.8 0-5 .3-4.6 1.3m3.9 3.8c-.9 2.4-.9 2.4-1.6.1-.8-2.6.2-4.8 1.5-3.5.6.6.6 1.9.1 3.4m2.9 1.2c-.8.8-1.1.4-1.1-1.4 0-3.3 1.4-4.7 1.8-1.9.2 1.2-.1 2.7-.7 3.3M271.3 882.8c-2 1.3-2.5 12.8-.7 14.7 3.4 3.3 5.3.8 5.2-7 0-7.3-1.4-9.7-4.5-7.7m2.7 4.3c0 2-1.5 2.6-2.5.9-.9-1.5.3-4.3 1.5-3.5.5.3 1 1.5 1 2.6m.4 5.5c.7 1.9-.1 3.4-1.9 3.4-2.1 0-2.8-1.9-1.5-3.5 1.6-1.9 2.6-1.9 3.4.1M281 883.9c-1.7 3.2-1.1 5.8 1.7 7.9 1.6 1.1 2.3 2.4 1.9 3.1-.6.9-1.1.9-2.1.1-2.1-1.7-2.7.5-.6 2.4 1.6 1.5 1.9 1.5 3.1.1 1.7-2.1 2.4-9.4 1.1-12.8-1.2-3.2-3.6-3.5-5.1-.8m4 3.7c0 1.5-.6 2.4-1.5 2.4-1.5 0-2.1-4-.9-5.3 1.2-1.1 2.4.3 2.4 2.9M248.5 889.9c-.7 1.3 1.7 2.4 4 1.9.9-.1 1.6-.8 1.6-1.3 0-1.4-4.8-1.9-5.6-.6M617 878.5c0 .9 8 5.8 8.6 5.2.3-.3-1.2-1.7-3.3-3.1-3.6-2.5-5.3-3.2-5.3-2.1M398.9 881.2c-1.1 2.5-.4 12.7.7 11.5 1-1 1.4-11.7.4-11.7-.5 0-1 .1-1.1.2M631 886.8c0 .6 2.1 2.2 4.6 3.6s4.4 2 4.2 1.3c-.6-1.6-8.8-6.2-8.8-4.9M163.2 889.5c0 1.6.2 2.2.5 1.2.2-.9.2-2.3 0-3-.3-.6-.5.1-.5 1.8M643.6 891.9c-2.7 3-2 6.3 1.9 8.8 1.9 1.3 3.7 2.3 4.1 2.3.3 0 1.9.9 3.5 2.1 2.1 1.4 2.9 2.9 2.9 5 0 4 2.8 6.5 8.5 7.2 5.2.8 8.5-.6 10.5-4.3 1-1.8 2.1-2 11.6-2 6.8 0 10.3-.4 9.9-1-.3-.6-4.8-1-10-1-9.2 0-9.3 0-10.3-2.8-1.3-3.6-7-9.2-9.4-9.2-1.1 0-2.8.4-3.8 1-1.4.8-3.2.1-8.2-2.8-8.4-5.1-9.3-5.4-11.2-3.3m3.4 1.5c0 .2-.3 1.1-.6 2-.9 2.3-2.4 2-2.4-.4 0-1.1.7-2 1.5-2s1.5.2 1.5.4m4 2.4c0 .5-.6 1.6-1.3 2.7-1.6 2-3.1.7-2.1-1.9.6-1.6 3.4-2.3 3.4-.8m4 2c0 1.5-2.8 4.7-3.5 4-1.1-1.1.5-4.8 2.1-4.8.8 0 1.4.4 1.4.8m4 3c0 .5-.6 1.7-1.4 2.8-1.2 1.5-1.7 1.6-2.7.7-1-1-.9-1.5.1-2.8 1.3-1.6 4-2.1 4-.7m1.7 3.5c-1.2 2.3-2.3 3.7-2.5 3-.3-1.2 3.4-7.3 4.3-7.3.2 0-.6 1.9-1.8 4.3m4.8-1.1c-2.5 2.4-3.8 4.6-4.4 7.8l-.9 4.5-.1-4.2c-.1-3.4.5-4.8 3.3-7.7 1.8-2 3.8-3.6 4.5-3.6.6 0-.5 1.5-2.4 3.2m7.9 1.4c2.2 2.1 2.2 5.2.1 3.4-1.3-1.1-1.5-.8-1.5 1.4 0 1.4-.5 2.6-1.1 2.6s-.8.7-.5 1.5c.8 2.2-2 3-5.1 1.6-2.2-1-2.5-1.6-2-4.8 1.1-6.4 6.4-9.5 10.1-5.7"/><path d="M706.3 897.1c-12.1 5.9-10.5 22.4 2.6 26.8 5 1.6 10.3-.1 14-4.7 2.6-3.1 3.1-4.5 3.1-9.3 0-4.9-.4-6-3.2-9.1-2.9-3.2-8.1-5.9-11.2-5.8-.6.1-3 1-5.3 2.1m11.7 2.4c4.3 2.2 6 5.3 6 11 0 3.8-.5 5.7-2.1 7.4-7.8 8.4-21.9 2.9-21.9-8.6 0-2.8.8-4.4 3.9-7.4 4.3-4.4 8.8-5.1 14.1-2.4"/><path d="M710.8 902.7c-2.6.4-2.8.7-2.8 5.5 0 5.1 0 5.1 2.1 3.2 2.7-2.4 5.4-.8 5.4 3.2 0 3.5-3 4.6-3.8 1.4-.6-2.4-2.5-2.7-3.3-.5-.9 2.2 1.4 4.5 4.5 4.5 3.2 0 4.4-.8 6-3.8 2.3-4.4-1.5-9-6.5-7.8-1.3.4-2.4.2-2.4-.4 0-.5 1.2-1.3 2.8-1.6 3-.8 5.2-2.2 5.2-3.5 0-.9-2.2-1-7.2-.2M162.7 909.7c-1.1 22.4-.8 133.1.3 133.8.7.4 1-24.3 1-73.4 0-40.8-.2-74.1-.3-74.1-.2 0-.7 6.1-1 13.7M398.7 897.7c-1.1 1-.8 10.1.3 10.8.6.4 1-1.7 1-5.4 0-6.2-.1-6.6-1.3-5.4M424.5 907.3c-1.1.8-5.6 3.3-10 5.7-9.1 4.8-10.5 5.8-10.5 7.2 0 .6 2.1-.2 4.6-1.7 11.9-7 19.8-10.4 22.3-9.8 3.7.8 5 2.3 2.1 2.3-3.2 0-14.4 6.2-14.8 8.2-.5 2.3 2.6 4.8 5.9 4.8 3.4 0 10-3.1 13-6.1 1.6-1.6 1.7-2.3.8-4-.6-1.2-.7-2-.2-1.7.4.2 2.1 1 3.6 1.8 2.2 1.1 3.2 1.2 4.7.2 1.1-.7 2.6-1.2 3.4-1.2.7 0 2.7-.7 4.2-1.5 1.6-.8 4-1.5 5.3-1.5 3 0 22.3 10.8 21.9 12.2-.2.6-3.1 2.4-6.3 4.2-13.1 6.9-15.1 8.5-17 12.9-.9 2.3-2 4.9-2.4 5.7-.7 1.3-7.3 5.5-12.1 7.7-.8.4-3.5 1.9-6 3.3-2.5 1.5-8.1 4.6-12.5 7-11.1 6-16.3 9.6-17 12-.4 1.1-.4 4.9 0 8.3.8 7.5-.1 8.8-7.3 9.5-3.9.3-8.1-.7-23.2-5.7-10.2-3.3-22.8-7.5-28-9.2-13.3-4.3-18.3-7-19.4-10.2-1.8-5.1 1.5-7.7 26.4-20.9 4.1-2.2 10.7-5.7 14.5-7.8 3.9-2.1 11.1-5.9 16-8.5 10.1-5.3 10.1-5.3 9.2-6.1-.5-.5-13.6 6-25.7 12.8-2.5 1.4-9.2 5-15 8.1-20.3 10.7-23.7 12.7-25.5 14.7-1.5 1.7-1.8 3.5-1.6 11.2.2 10.3 1.2 12.8 6 14.9 3.4 1.5 4.7 4.1 5.5 11.3.7 5.9 4 10.6 9.6 13.7 3.1 1.8 4 2.9 4 5 0 1.4.7 3.2 1.5 3.9 2.4 2 1.9 2.7-4.1 6.7-7.6 5.1-10.8 10.6-10.7 18.8 0 4.6.7 7.4 2.4 10.4 2.2 4 2.2 4.1.3 5.6-1 .8-3.3 1.5-5.1 1.5-3.9 0-9.3 5.9-9.3 10.2 0 3.2 3.1 6.8 5.8 6.8 5.6 0 9.4-1.4 10.7-3.9.7-1.5 3.8-3.9 6.7-5.5l5.4-2.8 15.4 9.2c8.5 5.1 16.5 10.5 17.8 12.1s3.2 2.9 4.3 2.9 3.2.6 4.7 1.4c2.4 1.2 3.2 1.2 6.7-.5 5.7-2.7 10.7-10.5 10.9-16.9.1-4.6-.2-5.1-4.7-9.4-2.9-2.9-5.6-4.6-7.2-4.6-3.7 0-3.8-1.6-.3-3.8 12.6-7.5 12.5-7.5 18.6-4.5 5.2 2.5 6.7 2.8 16.7 2.8 6.8 0 11.8.5 13.2 1.3 10.1 5.6 28.3-7.4 38.3-27.4 2-4 4.9-8.7 6.3-10.4 2.4-2.8 2.7-4 2.7-10.8 0-4.2.3-10 .6-12.9.6-4.9.9-5.2 5.4-7.7 4.8-2.6 4.8-2.6 30.4-2.6 16.4 0 25.6-.4 25.6-1s-9-1-25-1h-25v-8c0-8 0-8 5.5-10.6 3-1.4 6-2.4 6.7-2.1 1.5.5 11.9-4.5 13.6-6.5.6-.8 1.4-4.6 1.8-8.4.6-6.3.4-7.4-2.1-12.2-2-3.8-3.4-5.4-5.4-5.8-1.4-.3-3.2-.8-3.9-1-.8-.2-2.6.5-4.2 1.6-1.5 1.1-3.3 2-3.9 2s-1.7 1-2.5 2.2c-.8 1.3-3.1 3.1-5 4.2-3.4 1.8-3.4 1.8-10.3-1.9-17.7-9.8-17.2-9.3-17.5-13.2-.3-2.9-.9-3.9-4.3-5.7-2.2-1.2-6.7-3.7-10-5.6-9.5-5.6-11-6.1-14.7-4.8-1.8.6-3.7 1.5-4.2 1.9-.6.5-1.9.9-3.1.9s-2.6.5-3.2 1.1c-.8.8-2.9.1-7.5-2.5-6.9-3.9-10.2-4.4-13.3-2.3m11.4 7.1c1.3 1.5-.3 2.8-7.1 5.9-3.6 1.7-8.8 1.5-8.8-.3 0-1.3 10.1-6.8 12.6-6.9 1.2 0 2.7.5 3.3 1.3m47.6 10.6c.3.5.1 1-.4 1-.6 0-1.1-.5-1.1-1 0-.6.2-1 .4-1 .3 0 .8.4 1.1 1m-1.2 3.4c1 .8 1.5 1.6 1 1.9-1.2.7-8.3 4.6-12.8 7-2.2 1.2-4.2 2.5-4.5 2.8-1 1-7.1 3.2-7.6 2.6-1.2-1.2 2.9-6.8 6.4-8.7 2-1.1 5.5-3.1 7.7-4.4 4.6-2.8 7.2-3.1 9.8-1.2m8.2 4.6c1.9 1.1 5 2.8 6.8 3.9 1.7 1 5.2 3 7.7 4.4 4.7 2.6 6.1 5 3.6 6q-1.5.6-.9-.9c.9-2.4-.6-1.7-15.2 6.6-23.4 13.4-29 16.2-31.6 15.6-3.5-.7-11.6 4.1-16.7 9.9-5.3 6-8.3 12.7-8.9 19.7-.4 4.2-1 5.7-2.3 6.1-1.1.3-2.8 3.3-4.5 8.2-2.3 6.2-2.9 9.6-2.9 16.2-.1 4.5-.3 8.3-.4 8.3-.2 0-1.7-1.4-3.3-3.1-4.7-5-6.1-13.4-3.9-23.6 1.6-7.4 2.2-8 6-5.3 1.7 1.2 3.4 1.9 3.8 1.5.9-.9-3.9-4.5-6-4.5-4.6 0-.2-26.2 5.7-33.9 4.1-5.4 10-10.4 15.5-13.3 3.6-1.9 8.3-4.5 10.5-5.8s6.3-3.5 9-5.1c2.8-1.5 9.1-4.9 14-7.7 5-2.7 9.3-5 9.7-5.1.4 0 2.3.8 4.3 1.9m45.7 4.7c1.4 1.2 1.8 3.1 1.8 8.4 0 3.7-.3 7.5-.6 8.4-.5 1.3-5.3 4.5-6.8 4.5-.2 0-.6-3.7-.9-8.3-.2-4.5-.7-9.1-1.1-10.3-.6-1.5-.2-2.3 1.6-3.1 3.2-1.6 3.9-1.5 6 .4m-13.7 2.3c-.3.5-1.1 1-1.6 1-.6 0-.7-.5-.4-1 .3-.6 1.1-1 1.6-1 .6 0 .7.4.4 1m-3.5 1.5c0 .8-6.1 3.7-6.7 3.2-.2-.3.8-1.2 2.4-2 3-1.6 4.3-2 4.3-1.2m7.8.7c.7.7 1.2 4.3 1.2 9 0 6.5-.3 7.8-1.6 7.8-.9 0-5.5 2.2-10.3 4.9-14.4 8.1-22 12.1-23.1 12.1-.6 0-1-2.6-1-6.3 0-6.1.1-6.4 3.3-8 14.4-7.6 30.7-17 30.7-17.9 0-1.4-1-1-8.9 3.6-14.2 8.2-24.8 13.6-26.7 13.6-3.3 0-1.9-.8 25.1-15.1 10.2-5.5 9.7-5.3 11.3-3.7M499 952.5c0 .3-.2.5-.5.5s-.5-.2-.5-.5.2-.5.5-.5.5.2.5.5m-2 .9c0 .2-.7.7-1.6 1-.8.3-1.2.2-.9-.4.6-1 2.5-1.4 2.5-.6m-4.5 2.6c-.3.5-1.2 1-1.8 1-.7 0-.6-.4.3-1 1.9-1.2 2.3-1.2 1.5 0m-4.5 2.5c0 .3-.2.5-.5.5s-.5-.2-.5-.5.2-.5.5-.5.5.2.5.5m-4 3c-2.9 3.1-2.4 3.8 2 2.5 1.8-.5 3.7-.7 4.1-.4.5.3.9 3.4.9 6.8 0 6.2 0 6.3-3.2 7.2-1.7.5-3.4 1.6-3.6 2.3-.4 1.1 0 1.2 1.4.6 1.1-.4 3-1 4.4-1.2 3.1-.6 5.9-1.9 12.9-6.1 3-1.7 5.8-3.2 6.3-3.2.4 0 .8 2.9.8 6.4 0 7.2-.7 8.4-7 11.6-2.1 1.1-4.6 3-5.5 4.2-1.4 2.1-1.4 2.4.1 3.5 1.4 1 1.5 2.6 1 11-.4 5.3-1 10.1-1.4 10.5s-.7-3.4-.7-8.5c-.1-13.5-2.2-16.8-15.1-23.3-7.3-3.6-8.1-3.7-14.6-1.8-1.6.5-1.8-.2-1.8-6 0-7.4-.3-7.1 14-15 7.8-4.2 8-4.3 5-1.1m-60.2 10.2c-4 7.4-4.2 8-4.6 18.5-.3 5.9-.7 10.8-1 10.8s-2.3-.8-4.4-1.7c-3.5-1.6-3.8-2-3.8-5.8 0-4.8 1.3-6.5 5.3-6.5 1.9 0 2.7-.4 2.4-1.3-.4-1.3-3.1-1.4-5.8-.3-2.2 1-4.5-7.4-2.8-10.1 1-1.7 16.5-11.3 18.2-11.3.4 0-1.1 3.5-3.5 7.7m39.2 5.9c0 5.7-.2 6.5-1.7 6.2s-1.9-1.6-2.1-6.6c-.3-5.7-.1-6.2 1.8-6.2 1.8 0 2 .6 2 6.6M333.2 974c1.8 1 16.3 6.2 32.3 11.5 24.7 8.2 29.7 9.6 34 9.3 2.7-.3 5.8-.8 6.8-1.2 1.4-.7 1.7-.3 1.7 2.8 0 2.9-.5 3.8-3.1 5.1-4.4 2.3-19 1.4-29.4-1.8-4.4-1.4-12.7-4-18.5-5.7s-11.9-3.6-13.6-4.1c-1.8-.5-4-1.9-4.9-2.9-1-1.1-2.4-2-3.1-2-2.4 0-6.4-6-6.4-9.6 0-1.9.2-3.4.4-3.4.3 0 2 .9 3.8 2m123.8 3.5c0 5-.2 5.6-2.9 6.9-1.5.8-6.1 5-10.1 9.3l-7.3 7.8.6-5c.8-6.8 4-12.6 10.8-19.1 7.5-7.1 8.9-7.1 8.9.1m7 8.6c1.4 0 5-.3 8.1-.7 4.2-.4 5.8-.2 6.7.9 1 1.2.8 1.6-1.5 2.1-5.6 1.3-11.3 5-17 11-10.1 10.6-14.3 18.4-17.1 31.7-1.5 7.3-1.5 8.5-.1 13.9.9 3.3 1.3 6 1 5.9-1.9-.2-12.8-7.9-14.5-10.2-1.8-2.5-2.1-4.2-2-12.5.1-11.9 3.1-21.2 6.7-21.2 1.6 0 2.9-1.2 4.2-3.7 2.2-4 10.2-12.7 15-16.1 2.1-1.5 3.8-2 5.5-1.6 1.4.3 3.6.6 5 .5m23.9 5.3c12.8 6.7 8.5 35.5-7.8 53-9.2 9.7-19.1 14.1-26.5 11.6-15.4-5-11.6-35.7 6.9-54.4 9.8-10 20.2-13.9 27.4-10.2m-139.8 2.2c7.1 2.1 7.6 2.6 7.7 7.9.1 2.5.6 5.4 1.2 6.5 1.6 3-1.7 4.3-5.8 2.3-6.6-3.2-10.2-8.4-10.2-14.9 0-3.9-.1-3.9 7.1-1.8m24.8 7.3c5.8 1.7 10.9 3.5 11.5 4.1 1.9 1.9-.3 2.3-3.8.6-4.2-2-5.6-2-5.6-.1 0 .9.9 1.5 2.3 1.5 1.2 0 3.7.9 5.6 2.1 3.4 2.1 3.4 2.1 8.3-.6 2.7-1.5 6.5-2.9 8.4-3.1 4.2-.5 7.2-2 9.4-4.5 1.4-1.7 1.7-1.6 5.3.7 2.8 1.8 3.7 3 3.2 4.2-4.4 11.3-1.9 25.3 5.5 31.6 2.8 2.3 3 2.8 1.9 4.8-1.6 3-3.3 4.2-15.9 11.1-9.1 5.1-10.8 5.7-12.5 4.6-1.1-.7-3.7-2.2-5.7-3.3-2.1-1.1-3.8-2.3-3.8-2.8 0-.4 1.8-1.8 4-3 4.5-2.6 5.3-4.3 1.5-3.4-2.3.6-2.4.5-1.4-2.1 3.3-8.7-7.2-29-17.3-33.5-2.3-1-2.6-1.7-2.1-4.3.5-3 .5-3-1.1-.8-1 1.3-2.2 2.3-2.8 2.3s-2 .7-2.9 1.6c-1.7 1.5-2 1.5-4.4 0-1.4-.9-2.5-2.5-2.5-3.5s-.3-3.3-.7-5.1c-.6-3.2-.5-3.3 2.3-2.7 1.6.2 7.6 1.9 13.3 3.6m17.7 5.6c-2.5 1.9-3.6 1.9-3.6 0 0-1 1-1.5 2.8-1.5 2.6.1 2.6.1.8 1.5m-11.8 9.2c6.9 6.9 10.6 15.1 10.6 23.4.1 5.2-.3 7.2-1.8 8.8-2.4 2.7-4 2.6-8.4-.1-3.4-2.1-3.4-2.1-.6-3.6 4.7-2.4 5.5-4.1 5.1-10.5-.4-6.6-4.1-12.8-9.5-16-3.2-1.9-3.2-1.9-8.2.7-2.7 1.4-5.2 2.6-5.5 2.6-1.3 0-.3-4.5 1.6-7.1 1.8-2.5 2.7-2.9 7-2.9 4.6 0 5.3.4 9.7 4.7m-20.8-.8c-1.3 2.6-2.7 3.4-3.5 2.1-.8-1.4 1.3-4 3.2-4 1 0 1.1.4.3 1.9m1 3.6c0 .3-.2.5-.5.5s-.5-.2-.5-.5.2-.5.5-.5.5.2.5.5m16.6 2.2c4.3 2.8 8 12 6.8 16.8-.7 2.8-6.7 7-8.9 6.1-.9-.3-1.5-1.8-1.5-3.6 0-1.6-.4-3-1-3-1.4 0-1.2 5.3.3 7.2.6.9 7.4 5.3 15 9.8l13.7 8.2-4.9 5.4c-3.6 3.9-5.2 6.7-6.1 10.4-.7 2.7-1.5 5-2 5-.9 0-9-4.3-14-7.5-1.9-1.2-7.5-4.6-12.5-7.5-12.6-7.3-15.4-9.7-17.6-14.4-3.4-7.4-1.6-17 4.2-22.2 3.6-3.3 21.1-12.4 23.7-12.4 1.2 0 3.4.7 4.8 1.7m54.4 23.5c1.1 1.2 4.6 3.6 7.7 5.3 8.5 4.6 8.2 5.9-.8 5.2-7.3-.6-13.2-1.9-15.7-3.5-.9-.6-.2-1.9 2.5-4.9 2.1-2.3 3.9-4.2 4-4.2.1-.1 1.2.9 2.3 2.1m-79.9 19.5c3.7 2.2 3.6 3.4-.2 5.5-4 2.3-4.7 2.3-7-.5s-2.4-4.3-.1-5.6c2.4-1.5 4-1.3 7.3.6m54.5 1.6c-8.1 5.1-13.2 13.3-12.3 20 .4 2.6.2 3.7-.6 3.4-1.7-.5-2.1-8.4-.6-12.1 2.8-7 8.8-12.7 13.4-12.5 1.9 0 1.9 0 .1 1.2m-64.1 2.8c3.7 4.5 3.2 8.3-1.2 8.7-2.8.3-3.3 0-3.3-1.7 0-1.2-.9-3-2.1-4.2-2-2-2-2.2-.3-4 2.4-2.6 3.8-2.4 6.9 1.2m65.8.1c-2.7 1.3-3.1 3.4-.5 2.3 4.2-1.8 6-1.7 7.6.6.9 1.3 1.6 3.5 1.6 4.9-.1 2.3-.2 2.2-1.8-1-1.8-3.7-5.2-5.1-7.7-3-1 .8-1.4.8-1.7-.1-1.2-3.6-7.8 7.9-7.8 13.6 0 1.9-.4 3.5-1 3.5-2.1 0-1.1-9.2 1.6-13.7 2.5-4.4 7.6-8.3 10.4-8.2.9 0 .6.4-.7 1.1m-72.9 5c2 2.8 2 4.8.1 4.8-1.8 0-4.9-4.5-4-6 1-1.6 2.2-1.2 3.9 1.2m78.4 4.3c.4 5.3-4.4 11.5-8.9 11.5-2.8 0-2.9-.2-2.9-4.6 0-3.9.5-5.1 3.5-8.1 4.8-4.8 7.9-4.3 8.3 1.2m1.9 3.2c-.4.3-.7 0-.7-.7s.3-1 .7-.7c.3.4.3 1 0 1.4m-11.5 10.6c2.2.4 2.2.4-.2.6-3.3.1-5-1.6-5-4.9.1-2.4.1-2.4 1.5.7.8 1.9 2.2 3.3 3.7 3.6"/><path d="M475 1004.3c-4.5 2.1-10.7 8.7-13.9 14.7-9.4 17.5-1.5 33.7 12.6 25.9 9.5-5.2 15.4-15.1 16-26.2.5-12.5-5.7-18.6-14.7-14.4m8.4 1.7c1.4.5 2.6 1.4 2.6 1.9 0 .6-.7.8-1.5.5-2.3-.9-1.8.8 1 3.5 4.1 3.9 3.2 13.5-2.2 22.1-3.6 5.8-10.4 10.4-14.6 9.8-1.2-.1-2.8.1-3.6.6-2.1 1.3-5.2-2.6-6.2-7.7-2.3-12.7 9.2-29.8 21.3-31.6.4-.1 1.8.3 3.2.9"/><path d="M476 1008.7c-3 1.2-9.3 8-11.5 12.3-3.6 7.2-4.9 17-2.6 19.3.5.5.7-.9.4-3.7-1-8.9 6.1-21.9 13.9-25.3 5-2.2 4.9-4.6-.2-2.6M398 1011.1c0 2.4.4 3.8 1 3.4.6-.3 1-2.2 1-4.1s-.4-3.4-1-3.4c-.5 0-1 1.8-1 4.1M401 1007.9c0 .5 1.3 1.9 3 3.1 4.8 3.4 8 9.8 8 15.9 0 3.2.4 5 1 4.6 1.5-.9 1.2-8-.4-12-.8-1.8-3.3-5.4-5.7-7.9-4-4.5-5.9-5.6-5.9-3.7M398 1022.6c0 2.7.4 4.3 1 3.9.6-.3 1-2.4 1-4.6 0-2.1-.4-3.9-1-3.9-.5 0-1 2.1-1 4.6M398 1036.6c0 3.4.4 5.3 1 4.9.6-.3 1-2.8 1-5.6 0-2.7-.4-4.9-1-4.9-.5 0-1 2.5-1 5.6M406.5 1037.4c-2.1 1.3-4.1 2.9-4.3 3.5-.5 1.6.6 1.4 4.5-1 2.6-1.6 4.2-2 7.1-1.4 3.7.7 3.7.7 1.8-1.4-2.4-2.6-4.1-2.6-9.1.3M398 1051c0 3.2.4 4.9 1 4.5.6-.3 1-2.4 1-4.5s-.4-4.2-1-4.5c-.6-.4-1 1.3-1 4.5M456.2 913.2c-3.2 3.2 1.7 7.1 6.3 5 4.2-1.9 2.5-6.2-2.5-6.2-1.4 0-3.1.5-3.8 1.2m6.6 2c-.7 2-5.8 2.3-5.8.4 0-1.1 1-1.6 3.1-1.6q3 0 2.7 1.2M398.7 913.7c-1.1 1-.8 9.3.3 9.3.6 0 1-2.3 1-5 0-5.1-.1-5.5-1.3-4.3M437.3 922.3c-5.7 3.4-7 6.7-3.4 8.7 3 1.5 4.9 1.2 10.6-1.6 6.7-3.4 8-5.4 5.4-8.3-2.7-2.9-6.4-2.5-12.6 1.2m10.1-.7c2.9 1.1 1.6 3.4-3.5 6-5.3 2.7-9.9 2.7-9.9 0 0-.8 2.1-2.6 4.8-3.9 5.2-2.7 6.3-3 8.6-2.1M404.3 924.4c-1.3.6-2.3 1.5-2.3 2 0 .8 1.8.5 5.1-.8 1.8-.8 2.9 2.7 2.9 9 0 2.8-.5 3.4-3.5 4.5-1.9.7-3.5 1.5-3.5 1.9 0 .3 4.6 3.2 10.2 6.4l10.1 5.9 7.3-3.9c4.1-2.1 8.4-4.7 9.6-5.6 2.2-1.6 2.2-1.7.3-3.8-1-1.1-4.6-3.5-7.9-5.4-3.4-1.8-9.5-5.2-13.7-7.4-7.8-4.3-10.6-4.8-14.6-2.8m20.2 8.1c6.6 3.6 12.7 7.3 13.5 8.1 1.7 1.7 1.7 1.7-8.4 7.1l-6 3.2-5.8-3.2c-5.8-3.1-5.8-3.1-5.7-8.1.1-2.8-.2-7.3-.6-10-.4-2.8-.4-4.7.1-4.3.5.2 6.3 3.5 12.9 7.2m-14.5 9.1c0 .8-.5 1.2-1 .9-.6-.4-.8-1.1-.5-1.6.9-1.4 1.5-1.1 1.5.7M398 932.9c0 2.2.5 4.3 1 4.6.6.4 1-1.2 1-3.9 0-2.5-.4-4.6-1-4.6-.5 0-1 1.8-1 3.9M392.9 931.6c-1 1.3-.9 1.9.9 3.7 1.2 1.2 2.2 1.6 2.2 1 0-.7-.5-1.5-1-1.8-.8-.5-.8-1.1 0-2 .7-.8.7-1.6.2-1.9-.6-.3-1.5.1-2.3 1M371.7 942.1c-5.9 3.4-8.7 5.6-8.5 6.7.2.8 5.3 4.3 11.3 7.7 6.1 3.4 13.4 7.6 16.3 9.3 3.1 1.9 5.2 2.7 5.2 1.9 0-.7-1.6-2.1-3.5-3.1-4.1-2.2-4.5-3.6-1.1-3.6 1.4 0 2.8-.5 3.1-1 .4-.6-.9-1-3-1s-4.9-.9-6.5-2c-2.7-1.9-2.7-2.2-2.2-9.2.2-4 .6-7.5.8-7.6.1-.2 2.3.8 4.8 2.3s5.1 2.5 5.8 2.3c1.3-.5-10.5-7.8-12.5-7.8-.7 0-5.2 2.3-10 5.1m9.3 5.6c-.4 6.4-.8 7.8-2.2 8.1-1.9.4-14.2-6.7-13.3-7.7 1.1-1.1 14-8.1 15-8.1.6 0 .8 2.9.5 7.7m3.5 11.3c.3.6-.1.7-.9.4-1.8-.7-2.1-1.4-.7-1.4.6 0 1.3.4 1.6 1M398.7 943.7c-1.1 1-.8 8.1.3 8.8.6.4 1-1.3 1-4.4 0-5.2-.1-5.6-1.3-4.4M403 950c0 .6 1.6 1.8 3.5 2.7s3.5 2 3.5 2.4-1.8 1-4 1.4c-5 .8-5.3 2.9-.4 2.3 3.7-.4 3.7-.4 1.4 1.4-1.3 1-3 2.3-3.9 2.8s-1.3 1.2-.9 1.6c1.2 1.1 11.8-5.8 11.8-7.8 0-.9-2-3.1-4.4-4.8-4.6-3.1-6.6-3.7-6.6-2M398 961.5c0 2.5.5 4.5 1 4.5.6 0 1-2 1-4.5s-.4-4.5-1-4.5c-.5 0-1 2-1 4.5M335.8 963.1c-4.8 2.7.5 8.1 5.7 5.7 3.3-1.5 3.2-4.6-.1-5.8-3.1-1.2-3.4-1.2-5.6.1m6.2 2.9c0 .5-1.3 1-3 1-1.6 0-3-.5-3-1 0-.6 1.4-1 3-1 1.7 0 3 .4 3 1M398 977.6c0 3.4.4 5.3 1 4.9.6-.3 1-2.8 1-5.6 0-2.7-.4-4.9-1-4.9-.5 0-1 2.5-1 5.6M565.3 972.7c-1 .3-1.3 3.8-1.3 12.4V997h89v-11.9c0-11.8 0-11.8-3.7-12.5-4.5-.7-82.2-.7-84 .1m9.1 4.8c-1.9 3-.8 5.8 1.3 3 1.2-1.8 1.3-1.8 1.3.2 0 1.1-.9 4-2 6.4-2.1 4.8-1.5 6.3 2.1 5.7 1.8-.2 2.5-1 2.7-3.3.2-2.7.1-2.8-1.1-1.3-2.3 3-2.6.9-.4-3.5 1.8-3.9 1.9-4.4.4-6.9-1.6-2.8-1.6-2.8 19.5-2.8 20.4 0 21.1.1 19.5 1.8-2.3 2.5-2.4 13.4-.1 15.2 1.2 1.1 1.7 1.1 2.9-.1 2.6-2.7 2.3-8.9-.5-9.6-1.1-.3-2-1.2-2-2 0-1 .6-1.2 2-.8 2.3.7 2.8-1.3.8-3.3-.9-.9 2.2-1.2 14-1.2H650v20h-41c-26.6 0-41-.4-41.1-1s-.1-3-.1-5.5c0-14.2-.2-13.5 4.2-13.5 4 0 4 0 2.4 2.5M620 987c0 1.6-.4 3-1 3-.5 0-1-1.4-1-3 0-1.7.5-3 1-3 .6 0 1 1.3 1 3"/><path d="M585.2 977.2c-1.8 1.8-1.6 13.3.4 14.8 1.2 1.1 1.8 1 3.2-.4 2.2-2.2 2.4-13.3.2-14.6-2-1.3-2.4-1.2-3.8.2m3.1 3.9c.7 2.6-.3 8.9-1.4 8.9-.5 0-.9-2.5-.9-5.5 0-5.5 1.3-7.4 2.3-3.4M606 978.6c-3 7.8 1.5 19 5 12.5 1.7-3.2 1.1-6.1-1.6-8.6-1.5-1.4-2.3-2.6-1.8-2.6.5-.1 1.4-.2 1.9-.4.6-.1 1.4-.3 1.9-.3 1.3-.3-1.5-3.2-3-3.2-.8 0-1.9 1.2-2.4 2.6m4 9c0 2.6-1.7 3.3-2.6.9-.8-2 .3-4.8 1.6-4 .5.3 1 1.7 1 3.1M627.5 979c-2.1 4-1.9 9 .5 12 2 2.4 2.1 2.5 3.5.6 2.5-3.2 2.9-8.4 1.1-12.2-1.9-4.2-3.1-4.3-5.1-.4m3.5 5.5c0 3-.4 5.5-.9 5.5-1.4 0-2.3-5.3-1.5-8.4 1.1-4.4 2.4-2.9 2.4 2.9M596.7 983.8c-1.5.2-2.5.8-2.2 1.3.8 1.2 6.2 1.2 6.9 0 .8-1.2-1.2-1.7-4.7-1.3M395.3 984.7c-2.2.8-1.4 4.3 1.2 5.5 1.9.8 3.1.8 5 0 6-2.7 0-8-6.2-5.5m5.6 1.2c1.7 1.1.5 3.1-1.9 3.1s-3.6-2-1.9-3.1c.8-.5 1.6-.9 1.9-.9s1.1.4 1.9.9M162 1047c0 .5.5 1 1 1 .6 0 1-.5 1-1 0-.6-.4-1-1-1-.5 0-1 .4-1 1M162.6 1051.6c-.3.9-.5 30.7-.4 66.2.1 35.6.5 57.9.8 49.7.7-19.3 1.2-117.5.7-117.5-.3 0-.8.7-1.1 1.6M772.3 1074.7c-1.9 1.3-2.3 2.4-2.2 6.7 0 2.8.3 6.9.7 9.1.7 4 .7 4 17.7 12.6s17 8.6 17.3 13c.4 6.6.7 7 3.4 5.6 1.3-.7 6.3-3.8 11.1-7 5.9-3.8 8.6-6.1 8.1-7-.5-.6-4.2-6.4-8.3-12.8-4.2-6.4-8.2-12.6-8.9-13.7-1.5-2.6-2.5-2.7-4.6-.6-1 1-1.4 2.4-1 4 .9 3.7-1 3.1-16.5-4.6-7.7-3.9-14.2-7-14.3-6.9-.2 0-1.3.7-2.5 1.6m18.4 10.2c8.6 4.4 16.1 7.7 16.5 7.5.4-.3.8-1.9.8-3.6 0-2.6.2-2.9 1.6-1.7.8.7 2.2 2.6 3.1 4.3s1.9 3.3 2.2 3.6c1.4 1 9.1 13.3 9.1 14.4s-12.2 9.6-13.9 9.6c-.4 0-1.1-1.7-1.4-3.8-.6-3.7-.8-3.8-17.2-12.1-9.1-4.6-16.9-8.9-17.4-9.5-.4-.6-1.1-4.6-1.5-8.9-.6-6.4-.4-7.7.8-7.7.8 0 8.6 3.6 17.3 7.9"/><path d="M774.2 1086.2c.2 3 .8 5.3 1.6 5.6.6.2 1.2-.4 1.2-1.3 0-1.1.5-1.5 1.5-1.1.9.3 1.5 0 1.5-.8s-.7-1.6-1.5-2c-2.4-.9-1.8-2.8.8-2.1 2.1.6 2.1.6-.3-1.4-4.1-3.4-5.1-2.7-4.8 3.1M784 1089.4c0 2.4.3 5.1.6 6 .8 2 3.4 2.1 3.4.1 0-2.6 1.7-1.6 2.6 1.6 1.3 4.3 2.8 3.8 3.6-1.2.7-4 .1-6.9-.9-4.2-.7 2-2.3 1.5-2.3-.6 0-2.6-1.8-3.7-2.6-1.7-.9 2.4-2.4 1.9-2.4-.8 0-1.4-.4-2.8-1-3.1-.6-.4-1 1.1-1 3.9M797 1097c0 5.5 1.8 8 5.5 8 5.1 0 5.3-7 .3-10.1-5.3-3.4-5.8-3.2-5.8 2.1m7 3.2c0 2.5-.4 2.9-2.2 2.6-1.9-.2-2.4-1-2.6-4.1-.3-3.7-.3-3.7 2.2-2.5 1.9.8 2.6 1.9 2.6 4M397 1100.6c0 2.1.4 3.3 1 2.9.6-.3 1-1.9 1-3.6 0-1.6-.4-2.9-1-2.9-.5 0-1 1.6-1 3.6M397 1113.1c0 2.4.4 3.8 1 3.4.6-.3 1-2.2 1-4.1s-.4-3.4-1-3.4c-.5 0-1 1.8-1 4.1M394 1121c-1.8 1.8-2 3.3-2 17.3 0 14.1-.1 15.3-2 16.5-1.6.9-2 2.3-2 6.3 0 6.1 1.1 8.4 5.1 10.5 3.7 1.8 7.4 1.2 10.7-1.8 3.1-2.9 3.2-12.6.2-15.3-1.2-1.1-2-3.1-2-5.2 0-3.3 0-3.3 7.8-3.5 4.2-.1 8.6-.3 9.7-.4s3.5-.2 5.3-.3c1.7-.1 3.2-.6 3.2-1.2 0-.8-4-1-13-.8l-13 .4v-11.2c0-10.1-.2-11.3-1.9-12.3-2.8-1.4-3.8-1.3-6.1 1m5.8 1.7c.2.8-.5 1.3-1.7 1.3-2.1 0-3.5-1.3-2.4-2.4 1-1 3.6-.3 4.1 1.1m.2 3.5c0 1.2-4.8 1-5.5-.2-.3-.5.7-.8 2.5-.7 1.6.1 3 .5 3 .9m1 3.8c0 .5-1.6 1-3.5 1s-3.5-.5-3.5-1c0-.6 1.6-1 3.5-1s3.5.4 3.5 1m-1 4.5c0 1.6-1.7 1.9-4.4.9-2.6-1-1.8-2.4 1.4-2.4q3 0 3 1.5m0 4.3c0 .9-1 1.2-2.7 1-3.8-.4-4.1-2.5-.3-2.4 1.7.1 3 .6 3 1.4m0 3.3c0 1.4-2 2-4 1.4-3-.9-2.4-2.2 1-2.2 1.7 0 3 .4 3 .8m0 4.6c0 1.7-1.3 2.3-3.8 1.6-3.3-.8-2.7-3 .8-2.9 1.6.1 3 .6 3 1.3m-.3 4.7c-.5 1.5-4.9 1.4-5.4-.1-.3-.7.7-1.1 2.7-1.1 1.7.1 2.9.6 2.7 1.2m-1.1 3.6c.8 0 1.4.4 1.4 1 0 .5-1.3 1-3 1-2.1 0-3-.5-3-1.6s.5-1.4 1.6-1c.9.3 2.2.6 3 .6m-5.6 2.5c.7.8 2.5 1.5 4 1.5s3.3-.7 4-1.5c1.8-2.2 3.2-1.8 2.8.7-.6 4.5-13 4.5-13.6 0-.4-2.5 1-2.9 2.8-.7m9.4 6.7c-.7 1.1-10.2 1-10.8 0-.3-.5 2.1-.8 5.4-.8 3.2 0 5.6.4 5.4.8m-3.2 2.6c5.3-.6 6 .7 1.7 2.9-3.9 2.1-10.9-.1-10.9-3.4 0-1.1.4-1.1 2.1-.2 1.2.6 4.4.9 7.1.7M439.2 1132.3c-9.1 2.9-12.5 14.9-6.4 22.6 6.3 7.8 18.2 6.9 23.1-1.9 2.7-4.8 2.7-8.7 0-13.8-3.1-5.7-10.6-8.9-16.7-6.9m11.2 3.8c3.1 2.4 5.6 6.9 5.6 10 0 3.2-3.9 9.5-6.7 10.8-1.3.6-4.2 1.1-6.4 1.1-3.3 0-4.8-.7-7.4-3.3-8.3-8.3-3.4-20.6 8.1-20.7 2.7 0 5 .7 6.8 2.1"/><path d="M442.6 1138.7c-3.6.9-5 3.3-5 8.6 0 4 .5 5.3 2.3 6.8 3 2.4 5.6 2.4 8.1-.1s2.5-5.2 0-7.5c-1.3-1.2-2.7-1.5-4.6-1.1-2.4.6-2.6.5-2-1.6.3-1.3.6-2.6.6-3.1 0-1.6 2.8-.6 3.3 1.3.6 2.2 3.7 1.8 3.7-.6 0-1.1-3.2-3.6-4.2-3.3-.2.1-1.2.4-2.2.6m3.2 12.1c.3 2.7 0 3.2-1.7 3.2s-2.1-.6-2.1-3.6c0-2.8.3-3.5 1.8-3.2 1.1.2 1.8 1.4 2 3.6M538.5 1146.7c1.5 3.5 1.7 7.4.4 8.9-1 1.3-1 1.7.1 2.4 2.2 1.4 2.8.3 2.3-4-.3-2.2-.3-4 .1-4 .3 0 1.7 1.8 3.2 4.1 2.9 4.7 3.9 4.4 4-1.4 0-2.3.4-5 .8-6 .6-1.3.4-1.7-1.2-1.7-2.4 0-3.7 1.6-2.2 2.5 1.1.7 1.4 5.5.3 5.5-.5 0-1.8-1.8-3.1-4-2.2-4-6.2-5.9-4.7-2.3M557.6 1147.2c-2.2 3.1-2 7.4.4 9.8 2.6 2.6 3.6 2.5 6.5-.5 3-3 3.1-5.4.4-8.9-2.5-3.2-5.3-3.3-7.3-.4m6.6 2.4c1.4 3.1.1 5.7-3 6.2-2.9.4-4.9-3.6-3.3-6.7 1.6-2.9 4.9-2.7 6.3.5M574.2 1146.2c-.7.7-1.2 1.9-1.2 2.7 0 1.1.5 1 2.1-.5 2.1-1.9 2.1-1.9 1.8 4.1-.3 4.8-.1 6 1.1 6s1.4-1.1 1.2-5.1c-.4-5.1 1.2-8.2 2.4-5 .3.9 1 1.3 1.5 1s.5-1.3-.1-2.5c-1.2-2.2-6.8-2.7-8.8-.7M590.5 1145.9c-.3.5-.1 1.2.5 1.6 1.4.8 1.3 7.8-.1 9.2-1.5 1.5 3 2.8 6.6 1.9 4-1 3.1-3.3-1-2.8-2.8.3-3.5.1-3.5-1.3 0-1.3.6-1.6 2.5-1.1 2.2.6 2.5.3 2.5-2s-.2-2.5-1.5-1.4c-1.8 1.5-4.2-.1-3.1-1.9.9-1.5 3.9-1.4 5.4.1.9.9 1.2.8 1.2-.4 0-.9-.7-1.9-1.6-2.2-2.4-.9-7.2-.7-7.9.3"/><path d="M509.7 1152.4c-.3.8-.9 21.7-1.3 46.5l-.7 45.1 10.9.2c6 0 15.9.2 21.9.3 6.1.1 70.5.6 143.3.9l132.2.7v-12.3c0-6.8.2-15.9.5-20.3.2-4.4.7-20 1-34.6l.6-26.7-3.3-.3c-8.3-.9-208.8-.3-208.8.6 0 .7 35.8 1.1 104.9 1.3l104.9.2-.4 18.8c-.2 10.3-.6 30.4-.9 44.7-.2 14.3-.5 26.1-.5 26.3 0 .1-6.2 0-13.7-.2-7.6-.3-68.5-.8-135.3-1.2s-124.9-.8-129-.9c-4.1-.2-11.7-.3-16.9-.4l-9.4-.1.6-39.8c.4-21.8 1-41.4 1.3-43.4.7-3.7.7-3.7 12.5-4 16.3-.4 15.6-2.2-1-2.6-10.5-.2-13 0-13.4 1.2"/><path d="M565.9 1158.8c-4 .5-9.1 5.3-10.5 10-3.3 11.2 7.9 21.9 18.5 17.6 10-4 12.2-16.1 4.5-23.8-3.4-3.4-6.9-4.4-12.5-3.8m8.9 3.6c10.3 5.7 6.6 22.5-5.1 22.6-7.8 0-12.7-5-12.7-13.1 0-3.5.6-4.7 3.6-7.5 2.9-2.8 4.3-3.4 7.7-3.4 2.3.1 5.2.6 6.5 1.4"/><path d="M569 1164.8c-3.3.5-4.8 2-2.7 2.8 2.5.9 2.4 11.1 0 13-1.6 1.2-1.1 1.3 3.7 1.3 4.7 0 5.3-.1 3.8-1.3-1.3-.9-1.8-3.1-2-8.7-.3-7.3-.3-7.4-2.8-7.1M620.4 1161.2c-13.5 9.3-3.6 31 11.9 25.9 6.7-2.2 9.9-6.7 9.9-13.7 0-11.4-12.6-18.4-21.8-12.2m12.2.8c4.5 1.8 7.4 5.9 7.4 10.8 0 8.1-3.8 12.1-11.5 12.2-5.7 0-8.8-1.7-11-6-5.3-10.3 4.3-21.1 15.1-17"/><path d="M626.4 1166.2c-3.9 1.9-5.7 9.4-3.3 13.9 2.8 5.3 10.9 3.8 10.9-1.9 0-3.6-1.7-5.2-5.2-5.2-3.2 0-3.9-2.8-1.2-5 1.3-1.1 1.6-1 2.1.8.6 2.3 2.7 2.9 3.8 1.1.8-1.2-2.3-4.9-3.9-4.8-.6 0-2.1.5-3.2 1.1m3.6 12.3c0 4.1-2.6 4.9-3.6 1.1-.7-2.9.1-4.6 2.2-4.6.9 0 1.4 1.1 1.4 3.5M702 1170.8c0 8.4.4 12.3 1.3 13 1.9 1.6 85.3 1.7 86.3 0 .9-1.5.9-22.6 0-23.6-.4-.3-20.2-.8-44.1-1l-43.5-.4zm21-6.9c-1.5 2.8-1.3 3.3 1 2.6s2.6.6.8 3.6c-1 1.7-1 2.3 0 2.6 1.4.6 1.6 4.3.2 4.3-.5 0-1-.5-1-1 0-.6-.4-1-1-1-1.5 0-1.2 2.6.5 4 1.2 1 1.8 1 3 0 1.9-1.6 1.8-13.6-.2-15.6-1.3-1.2 2.8-1.4 30.1-1.4H788v20l-41.2-.2-41.3-.3-.3-9.8-.3-9.7h9.6c9.2 0 9.5.1 8.5 1.9"/><path d="M713.9 1163c0 .3-.1 4.2-.2 8.8-.2 6.6.1 8.2 1.2 8s1.4-2 1.2-7.8c-.1-4.1-.7-7.9-1.2-8.5-.5-.5-.9-.7-1-.5M741.3 1166.2c.3 1.8.9 5.4 1.3 8 .7 5.5 2.4 6.4 2.5 1.5l.1-3.2.9 3.2c1.3 4.6 2.6 4.1 3.3-1.5.4-2.6 1-6.2 1.3-8 .5-3.2.5-3.2-4.7-3.2s-5.2 0-4.7 3.2m3.7 2c0 2.5-.3 2.9-1 1.8-1.3-2-1.3-5 0-5 .6 0 1 1.5 1 3.2m4 0c0 2.5-.3 2.9-1 1.8-1.3-2-1.3-5 0-5 .6 0 1 1.5 1 3.2M755.1 1164.4c-.7.8-1.4 3.9-1.6 6.9-.5 6.5 1 9.3 4.3 8.3 1.9-.6 2.1-1.4 2.1-7.4-.1-8.2-1.9-11.3-4.8-7.8m2.9 3.1c0 2.5-1.4 3.4-2.4 1.6-.8-1.2.3-4.1 1.5-4.1.5 0 .9 1.1.9 2.5m0 8.1c0 3.1-2.3 2.8-2.8-.4-.2-1.5.2-2.2 1.2-2.2 1.1 0 1.6.9 1.6 2.6M764 1164.9c0 1.1.5 2.3 1.1 2.7 1.1.6.8 5.9-.6 10.1-.5 1.5-.3 2.3.4 2.3.6 0 1.1-1.1 1.1-2.5s.4-2.5 1-2.5c.5 0 1.2 1.1 1.6 2.5.3 1.4 1.2 2.5 2 2.5 1.8 0 1.8.2-.7-4.9-1.2-2.6-1.7-4.7-1.2-5.4s1.4-2.4 2.1-4c.9-2.2.9-2.7-.3-2.7-.7 0-1.5.9-1.7 2-.2 1.2-.7 2.1-1.3 2.1-.5 0-1.1-.9-1.3-2.1-.4-2.6-2.2-2.6-2.2-.1M732 1172c0 .5 1.6 1 3.5 1s3.5-.5 3.5-1c0-.6-1.6-1-3.5-1s-3.5.4-3.5 1M663.4 1165.3c-.4 1.1-1.7 1.7-4 1.7-3.1 0-3.4.3-3.4 3 0 2.8.3 3 3.5 3 2 0 3.7.6 4.2 1.5.8 1.3 1.4 1 3.8-1.5l2.9-3-3.2-3.2c-2.7-2.7-3.2-2.9-3.8-1.5m4.2 3.2c.8 2.1-1.6 4.9-3 3.5-.5-.5-2.2-1-3.7-1s-3.1-.5-3.4-1c-.4-.6.8-1 2.9-1 2 0 3.6-.5 3.6-1 0-1.6 3-1.2 3.6.5M589.5 1174c.3.5 1 1 1.6 1 .5 0 .9-.5.9-1 0-.6-.7-1-1.6-1-.8 0-1.2.4-.9 1M598 1174c0 .5.5 1 1 1 .6 0 1-.5 1-1 0-.6-.4-1-1-1-.5 0-1 .4-1 1M606.5 1174c.4.6 1.1.8 1.6.5 1.4-.9 1.1-1.5-.7-1.5-.8 0-1.2.5-.9 1M162.4 1196.5c0 7.1.1 9.9.3 6.2s.2-9.6 0-13-.3-.4-.3 6.8M632 1200.9c0 5.5.3 10.2.8 10.4.4.3 17.6.7 38.2.8l37.5.4v-21l-38.2-.3-38.3-.2zm10-.7c-.6 6.8-.2 8.4 1.7 7.6.4-.2.6-3.6.4-7.6-.3-7.2-.3-7.2 4-7.2 4 0 4.1.1 2.6 1.8-1.9 2-1.3 3.4.9 2.5 1.6-.6 1.9 1.3.3 2.3-.8.4-.8.9 0 1.7.6.6 1.1 2 1.1 3 0 1.6-.2 1.7-1.5.7-2.1-1.7-2.9-.7-1.5 1.9 2.6 5 5.2.5 4.4-7.8l-.5-6.1h11.9l.9 7c.8 7.1 2.3 9.1 3.4 4.8.6-2.1.6-2.1 1.1.7.4 3 .4 3 1.5.5.6-1.4 1.3-4.6 1.7-7.2.7-4.7.7-4.7-3.1-5.1-2.9-.3-2.4-.4 2-.5 5.1-.2 7.2.8 4.8 2.2-1.3.8-1.9 8.7-1 11.3 1 2.7 2.2 2.9 4.2.8 1.8-1.7 1.6-11.7-.2-12.3-2.2-.7-1-2.2 1.9-2.2 2.3 0 3 .4 3 2 0 1.1.5 2.9 1.2 3.9.9 1.5.8 2.6-.5 5.2-1.6 3.3-1.4 5.4.4 4.4.5-.4.9-1.3.9-2.1s.5-1.4 1-1.4c.6 0 1 .9 1 2s.4 2 .8 2c1.9 0 2-1.4.5-4.5-1.4-3-1.4-3.7-.1-7 1.5-3.8 1.5-3.8 8.2-4.1l6.7-.4-.3 8.8-.3 8.7-34.5-.4c-19-.2-34.8-.5-35.1-.7-.4-.2-.7-4-.8-8.4-.2-8-.2-8 3.6-8s3.8 0 3.3 7.2m48-4.7c0 1.4-.4 2.5-1 2.5-.5 0-1-1.1-1-2.5s.5-2.5 1-2.5c.6 0 1 1.1 1 2.5m-20 2.5c0 1.1-.4 2-1 2-.5 0-1-.9-1-2s.5-2 1-2c.6 0 1 .9 1 2m3-.5c0 .8-.4 1.5-1 1.5-.5 0-1-.7-1-1.5s.5-1.5 1-1.5c.6 0 1 .7 1 1.5m8 1.1c0 1.7-2.2 1.4-2.8-.4-.2-.7.3-1.2 1.2-1.2s1.6.7 1.6 1.6m-.2 6.1c-.4 2.2-2.2 2-2.6-.1-.2-1 .3-1.6 1.3-1.6s1.5.7 1.3 1.7"/><path d="M658.5 1200.8c-.3.3-.5.9-.5 1.4 0 1.1 5.7 1 6.4-.1.6-.9-5-2.1-5.9-1.3M519.3 1198.7c-1.8.7-1.6 2.3.2 2.3 1.1 0 1.5 1.2 1.5 5 0 3.3.4 5 1.3 5 .8 0 1.1-1.5.8-5.1-.3-4.4-.1-5.1 1.3-4.6 1 .4 1.6.1 1.6-.7 0-2.1-3.7-3.2-6.7-1.9M536.7 1198.7c-.2.5-.3 3.5-.3 6.8.1 5.9.1 6 3 6 1.6 0 3.1-.6 3.4-1.3.2-.7-.6-1.2-2.2-1.2-1.7 0-2.6-.6-2.6-1.5 0-1 .7-1.5 1.8-1.3 1 .2 1.7-.3 1.7-1.2 0-.8-.7-1.5-1.5-1.5s-1.5-.7-1.5-1.5c0-1 .8-1.4 2.3-1.3 1.2.2 2.2-.1 2.2-.6 0-1.7-5.5-2.9-6.3-1.4M553.6 1199.2c-.3.7-.6 3.7-.8 6.5-.3 6 1 7.3 4.8 4.8 1.8-1.2 2.4-2.5 2.4-5.3 0-4.4-.8-5.7-3.8-6.6-1.4-.5-2.4-.3-2.6.6m4.4 5.9c0 2.8-.4 3.9-1.5 3.9s-1.5-1.1-1.5-3.8c0-2.1.3-4.2.6-4.5 1.4-1.3 2.4.6 2.4 4.4M527.2 1205c0 4.2.2 5.6.7 4 1-3.5 4.1-4 4.1-.6 0 1.4.5 2.6 1 2.6.6 0 1-2.7.9-6.3-.1-4.2-.3-5.4-.8-3.7-.4 1.6-1.4 2.5-2.6 2.5s-2.2-.9-2.6-2.5c-.5-1.6-.7-.2-.7 4M570.7 1199.6c-.4.4-.7 2.9-.7 5.4 0 5 1.6 7.5 4.3 6.4 1.8-.6 3.1-3.4 2.1-4.3-.4-.3-.9 0-1.1.6-.3.7-1.1 1.3-1.9 1.3-1 0-1.4-1.2-1.4-4.1 0-3.9.1-4.1 2.6-3.5 1.9.5 2.5.3 2.2-.6-.5-1.4-5-2.3-6.1-1.2M579.2 1201c-1.9 3-1.5 7.5.9 9.6 2.1 1.9 2.1 1.8 4-.5 2.2-2.7 2.4-6.8.5-9.4-1.7-2.3-3.8-2.2-5.4.3m4.3 4.1c0 2.4-.5 3.5-1.7 3.7-1.4.3-1.8-.4-1.8-3.1 0-1.8.3-3.7.7-4.1 1.5-1.4 2.8.2 2.8 3.5M587.5 1205.5c0 5.9.1 6.5 2 6.5 3.1 0 4.5-1.9 4.5-6.1 0-5.4-.9-6.9-3.9-6.9-2.5 0-2.6.1-2.6 6.5m4.5-.5c0 2.2-.4 4-1 4-.5 0-1-1.8-1-4s.5-4 1-4c.6 0 1 1.8 1 4M596 1205.6c0 6.5 0 6.5 3.3 6.2 3.7-.3 4.3-2.1 1-2.6-1.3-.2-2.3-1-2.3-1.8s.7-1.4 1.6-1.2c1 .2 1.9-.3 2.2-1.1.3-.9-.1-1.1-1.7-.6-1.7.5-2.1.2-2.1-1.4s.6-2.1 2.5-2.1c1.4 0 2.5-.5 2.5-1 0-.6-1.6-1-3.5-1-3.5 0-3.5 0-3.5 6.6M613.2 1201.5c-1.7 3.7-1.5 6.9.6 8.8 1 1 2.2 1.7 2.7 1.7 1.5 0 3.4-3.5 3.5-6.3 0-6.3-4.6-9.1-6.8-4.2m4.8 3.5c0 3.3-.3 4-2 4-1.6 0-2-.7-2-3.3 0-3.6.6-4.7 2.7-4.7.9 0 1.3 1.3 1.3 4M622 1205.5c0 3.7.4 6.5 1 6.5s1-1.3 1-2.9c0-1.7.5-2.8 1.3-2.7.6 0 1.2-.4 1.2-.9 0-.6-.5-.9-1.2-.7s-1.3-.6-1.3-1.8c0-1.3.7-2 2-2 1.1 0 2-.5 2-1 0-.6-1.3-1-3-1-3 0-3 0-3 6.5M715.6 1201.2c-2.1 3-2 7.1.3 9.9 1.9 2.3 1.9 2.3 4 .5 1.1-1 1.8-2.3 1.5-2.7-.3-.5-1.2-.2-2.1.7-2 2-3.3.3-3.3-4.3 0-3.7 1.4-5 3.6-3.2.8.6 1.8.9 2.2.5.7-.7-2.4-3.6-3.9-3.6-.4 0-1.5 1-2.3 2.2M724.6 1201.2c-2.2 3-2 7.1.3 9.9 2 2.4 2 2.4 3.5.4 1.9-2.5 2-8.4.2-10.8-1.7-2.2-2.2-2.2-4 .5m3.2 5.4c-.2 2.2-.7 3.9-1.3 3.9-1.2 0-1.9-6-1-8.3 1-2.8 2.7.3 2.3 4.4M731.8 1205.2c-.3 2.9-.1 5.7.4 6.2.4.6.8-.5.8-2.3 0-3.6 1.6-3.4 3 .5 1.6 4.1 2.6 2.7 2.8-3.8.3-6.4-1.3-7.4-2-1.3-.3 3-.3 3-2.1-.8-1-2-2-3.7-2.2-3.7-.1 0-.5 2.4-.7 5.2M740.9 1201.6c-1.2 1.5-1 2 2.1 4.5 2.7 2.3 3.1 3.2 2.2 4.1s-1.5.9-2.4 0c-1.9-1.9-2.9-1.4-1.6.8 1.7 2.6 4 2.5 5.7-.2 1.3-2 1.1-2.4-2-5-2.6-2.2-3-3.1-2.1-4s1.5-.8 2.7.8c1.6 1.9 1.6 1.9 1.3-.1-.4-2.6-4-3.1-5.9-.9M750.5 1206.5c0 5.4.3 6.5 1.7 6.5.9 0 2-.5 2.3-1 .3-.6.1-1-.4-1-1.5 0-1.4-8.3.1-9.8.9-.9.7-1.2-1.2-1.2-2.4 0-2.5.3-2.5 6.5M758.1 1201.3c-1.5 1.8-.5 4.4 2 5.2 1 .4 1.9 1.5 1.9 2.6 0 2-1.5 2.6-2.5.9-1.2-2-2.6-1-1.5 1.1 1.6 2.9 5.4 2.2 5.8-1.1.3-1.7-.4-3.1-2.4-4.7-3.1-2.4-2.5-4.5.7-2.5 1.8 1.2 2 1.1 1.7-.5-.4-2.2-4.1-2.9-5.7-1M766 1201.5c0 .9.5 1.3 1 1 .6-.4 1 1.5 1 5 0 3.9.4 5.5 1.2 5.3q1.2-.45.9-6.3c-.2-5.5-.1-5.8 1.5-4.4 1.5 1.2 1.7 1.2 1.2-.1-.7-2.2-6.8-2.6-6.8-.5M775.2 1201.2c-2 2-1.4 3.7 1.8 5.3 1.7.9 3 2 3 2.6 0 1.6-3.1 2.3-4 .8-.5-.7-1.2-1-1.6-.7-.9 1 2.1 3.8 4 3.8.9 0 1.9-1.2 2.2-2.7.7-2.5-.7-4.5-3.9-5.6-.6-.2-.7-1.1-.4-2.1.7-1.8.8-1.8 2.7-.1 1.1 1 2 1.4 2 .9 0-1.3-2.1-3.4-3.5-3.4-.6 0-1.6.5-2.3 1.2M792 1201.9c-2.1 4-.5 11.1 2.5 11.1 2 0 3.5-3.2 3.5-7.2 0-5.4-3.8-7.8-6-3.9m4.4 1.7c.8 2.2.7 4.7-.3 6.3-.8 1.2-1.2 1.2-2.5.2-1.9-1.6-2.1-5.2-.4-6.9 1.6-1.6 2.5-1.5 3.2.4M800.2 1206.6c0 4.6.3 6.4 1.1 6.1.7-.2 1.1-1.6.9-3.1-.3-2.1 0-2.7 1.4-2.4.9.2 1.9-.3 2.1-1 .3-.7-.4-1.2-1.7-1.2-1.5 0-2-.5-1.8-1.8.2-1 1.1-1.6 2.1-1.4.9.2 1.7-.2 1.7-.8 0-.5-1.3-1-2.9-1-2.9 0-2.9 0-2.9 6.6M562 1206c0 .5 1.4 1 3 1 1.7 0 3-.5 3-1 0-.6-1.3-1-3-1-1.6 0-3 .4-3 1M162 1213.5c0 .3.2.5.5.5s.5-.2.5-.5-.2-.5-.5-.5-.5.2-.5.5M649.5 1215.5c-5.3 2.7-7.5 6.4-7.5 12.2 0 4.8.3 5.6 4 9.3 3.5 3.5 4.6 4 8.5 4 3.7 0 5-.6 8.4-3.8 4.9-4.6 6.1-9.4 3.6-14.6-3.2-6.8-11.2-10.1-17-7.1m11.5 3.5c3.8 2.7 5.5 8 4.1 12.2-4.2 12.1-21.1 8.7-21.1-4.2 0-8.5 9.8-13.1 17-8"/><path d="M651.4 1220.9c-.9.9-.3 2.1 1.1 2.1 1.1 0 1.5 1.2 1.5 4.9 0 3.4-.4 5.1-1.5 5.5-3.1 1.1-1.3 2.6 3.2 2.6s4.6 0 2.8-2c-1.5-1.6-1.7-3-1.2-7.9.7-6 .7-6-2.4-5.8-1.7.1-3.2.4-3.5.6M741.3 1217.2c-1.8 1.3-3.7 3.3-4.2 4.6-1.4 3-1.4 9.4 0 12.4 3 6.6 14.1 9.1 19.6 4.4 9.6-8.1 4-23.6-8.4-23.6-2.4 0-5 .9-7 2.2m14.5 2.6c5.4 5 5.4 11.1.2 16.3-2.3 2.3-3.7 2.9-7.3 2.9-3.7 0-5.1-.6-7.6-3.1-5.2-5.2-4-14.2 2.4-17.7 3.8-2.1 9.1-1.4 12.3 1.6"/><path d="M745.7 1222.5c-1 .7-2.1 3.2-2.4 5.4-.7 5.3 1.6 9.1 5.5 9.1 3.5 0 5.2-1.6 5.2-5 0-3-2.9-5.1-6.1-4.3-1.8.5-2.1.3-1.6-1.1.4-1 .7-2.2.7-2.7s.7-.9 1.5-.9 1.5.7 1.5 1.5c0 1.7 2.6 2 3.5.5 1-1.6-1.4-4-3.9-4-1.1 0-2.9.7-3.9 1.5m4.6 7.9c.8 2.1-.4 5.7-1.7 5.3-.6-.2-1.3-1.1-1.4-2.1-.7-3.6 1.9-6.3 3.1-3.2M519 1217.2c-.6 2.8-.1 12.4.6 12.5.5.2 1-.3 1-1 .1-.6.2-1.8.3-2.5 0-.6.8-1.2 1.6-1.2s1.5-.5 1.5-1c0-.6-.7-1-1.5-1s-1.5-.9-1.5-2.1c0-1.6.4-1.9 2-1.4 1.4.5 2 .2 2-.9s-.9-1.6-3-1.6c-1.6 0-3 .1-3 .2M529 1217.2c-.1.2-.2 3.3-.3 7.1-.2 5.6.1 6.7 1.4 6.7s1.5-.9 1.1-5c-.3-2.9 0-5.5.7-6.3 1.2-1.5.5-2.7-1.6-2.7-.7 0-1.3.1-1.3.2M536.7 1218.8c-3.5 3.9-1.1 12.8 3.2 12 2.2-.4 2.9-6.8.6-6.8-1.2 0-1.4.6-.9 2.6s.3 2.5-.7 2.2c-1.7-.6-2.5-6.6-1-8.1.7-.7 1.5-.6 2.5.2 2 1.7 3-.4 1-2.3-2-2-2.7-2-4.7.2M554.3 1217.8c-1.6 1-2 12.5-.5 13 .7.2 1.2-.5 1.2-1.7 0-2.7 1.7-2.7 2.5-.1.4 1.1 1.1 1.8 1.6 1.5.5-.4.5-1.4-.1-2.6-.8-1.3-.7-2.5 0-4 .7-1.1.9-2.7.6-3.4-.7-1.9-4-3.5-5.3-2.7m3.2 4.2c0 .7-.6 1.5-1.2 1.7-.8.3-1.3-.4-1.3-1.7s.5-2 1.3-1.8c.6.3 1.2 1.1 1.2 1.8M544.2 1223.6c.3 6.4 2.3 8.9 5.2 6.5 1.8-1.5 2.4-12.7.6-11.6-.5.3-1 2.6-1 5 0 4.6-1.6 6.7-3.2 4.4-.5-.8-.7-3.1-.4-5.1.2-2.1 0-4.1-.5-4.4-.6-.3-.9 1.7-.7 5.2M561.5 1224.5c0 6.5 0 6.5 3.3 6.5 2.2 0 3.2-.5 3.2-1.5 0-.9-.8-1.4-2.2-1.2-1.5.1-2.3-.3-2.3-1.3 0-.9.7-1.4 1.8-1.2 1 .2 1.7-.3 1.7-1.3 0-.9-.9-1.5-2.1-1.5-2.7 0-1.9-2.4.9-2.8 3.4-.5 2.6-2.2-1-2.2-3.3 0-3.3 0-3.3 6.5M578 1224.5c0 6.7 1.6 9 2.2 3.2.4-3.2.4-3.2 1.5-.5 1.7 3.9 3.3 4.4 3.3 1.1.1-2.8.1-2.8 1.6-.1 1.5 2.9 4.2 3.6 6.2 1.6 1.4-1.4 1.6-11.8.3-11.8-.6 0-1.1 2.4-1.3 5.2-.2 3.9-.7 5.3-1.8 5.3s-1.6-1.4-2-5c-.4-3.8-.9-5-2.2-5.1-1.4-.1-1.8.6-1.8 3.2 0 4.4-1.5 4.3-3.1-.1-1.9-5.3-2.9-4.2-2.9 3M600.5 1220c-.7 2.4-2.3 2.6-3.1.5-1.3-3.3-2.4-1.2-2.4 4.5 0 3.3.4 6 1 6s1-1.7 1-3.8c0-2.7.3-3.3 1-2.2.5.8 1 1 1.1.5.1-.6.4.3.8 2 1 4.8 2.6 3 2.6-3.1 0-5.8-.9-7.9-2-4.4M604.4 1224.5c-.1 6.5-.1 6.5 2.8 6.5 1.5 0 2.9-.3 2.9-.8.7-3.4.4-9.9-.4-11-.5-.6-1.9-1.2-3.1-1.2-1.9 0-2.1.6-2.2 6.5m4.1-1.5c-.5.8-1.1.8-1.7.2s-.7-1.6-.3-2.2c.5-.8 1.1-.8 1.7-.2s.7 1.6.3 2.2m.3 4.3c.2 1-.3 1.7-1.2 1.7-1 0-1.6-.9-1.6-2.1 0-2.4 2.3-2.1 2.8.4M612.5 1224.5c0 6.5 0 6.5 3.8 6.5 2 0 3.7-.5 3.7-1 0-.6-1.1-1-2.5-1-1.8 0-2.5-.5-2.5-2 0-1.3.5-1.8 1.5-1.4.9.4 1.5 0 1.5-1s-.6-1.3-1.5-1c-1 .4-1.5 0-1.5-1.5q0-2.1 1.8-1.8c.9.1 1.9-.3 2.2-.8.3-.6-1.1-1.1-3-1.3-3.5-.3-3.5-.3-3.5 6.3M621.5 1224.5c0 4.7.4 6.5 1.3 6.5s1.1-.7.7-2c-.4-1.2-.2-2 .5-2s1.4.9 1.7 2c1 3.6 1.9 2.1 2-3.3.1-5.8-.9-7.7-4.1-7.7-1.9 0-2.1.5-2.1 6.5m4.5-1.4c0 2-1.5 2.6-2.4 1-.8-1.3.4-4.2 1.5-3.5.5.3.9 1.4.9 2.5M630.6 1219.6c-2.4 2.3-1.7 4.4 1.7 5.7.9.3 1.7 1.3 1.7 2.2 0 1.8-1.2 1.9-2.8.3-1.7-1.7-2.8-.2-1.2 1.7.7.8 2.3 1.5 3.6 1.5 3.5 0 3.4-5.2-.1-6.8-1.4-.6-2.5-1.6-2.5-2.2 0-1.4 3.7-1.2 4.3.2.3.7.6.3.6-.8.1-1.2-.6-2.5-1.5-2.8-2.1-.8-2-.8-3.8 1M672 1219.9c0 1.2.5 1.9 1 1.6.6-.4 1 1.5 1 5 0 4 .4 5.5 1.2 5.3.8-.3 1.1-2.3.9-5.6-.2-4.2.1-5.2 1.3-5.2.9 0 1.6-.5 1.6-1 0-.6-.6-1-1.2-1-.7 0-2.3-.3-3.5-.6-1.9-.5-2.3-.2-2.3 1.5M680 1224.9c0 3.3.5 6.3 1 6.6.6.4 1-.7 1-2.4 0-2.4.4-3.1 2-3.1s2 .7 2 3.1c0 1.7.4 2.8 1 2.4.6-.3 1-3.3 1-6.6s-.4-5.9-1-5.9c-.5 0-1 1.1-1 2.5 0 1.8-.5 2.5-2 2.5s-2-.7-2-2.5c0-1.4-.4-2.5-1-2.5s-1 2.6-1 5.9M689.6 1225c.2 6.1 1.4 8 2.5 3.8.6-2.2.7-2.2 1.9.7.7 1.6 1.4 2.5 1.7 1.8.2-.7 0-2-.6-3.1-.7-1.3-.7-2.2.1-3 .6-.6.8-2.2.4-3.6-.5-2-1.3-2.6-3.4-2.6-2.7 0-2.7.1-2.6 6m4.4-2c0 1.1-.4 2-1 2-.5 0-1-.9-1-2s.5-2 1-2c.6 0 1 .9 1 2M697.9 1221.4c-.7 1.4-.9 4-.5 5.9 1.1 5.8 6.1 6 7.1.3 1.3-6.9-4-11.9-6.6-6.2m4.9 3.2c.3 3.4-1.1 6-2.7 5-1.2-.8-1.5-6.8-.4-8 1.3-1.3 2.8.1 3.1 3M706.2 1224.6c.3 6.4 2.3 8.9 5.2 6.5 1.2-1 1.6-2.9 1.4-7-.1-5.3-.2-5.4-.5-1.1-.7 8-4.3 9.7-4.3 2.1 0-2.8-.5-5.3-1.1-5.6-.7-.5-.9 1.2-.7 5.1M715.2 1221c-2.9 4.7-.5 11.5 3.9 10.8 2.9-.4 3.8-3.8 1.4-5.8-1.3-1.1-1.5-.9-1.3 1.1q.3 2.4-1.2 2.4c-2.3 0-2.7-7.3-.5-8.2 1-.3 2.1 0 2.5.8.5.7 1.2 1 1.6.6 1-1-1.5-3.7-3.5-3.7-.9 0-2.2.9-2.9 2M723 1225.6c0 3.7.3 6.4.7 6s.8-1.5.8-2.4.8-1.8 1.8-2c1.3-.3 1.7.3 1.7 2.2 0 1.4.5 2.6 1 2.6.6 0 1-2.9 1-6.6 0-4.1-.4-6.3-1-5.9-.5.3-1 1.7-1 3.1 0 1.5-.6 2.4-1.5 2.4s-1.5-.9-1.5-2.4c0-1.4-.4-2.8-1-3.1-.6-.4-1 1.9-1 6.1M162 1228.5c0 .3.2.5.5.5s.5-.2.5-.5-.2-.5-.5-.5-.5.2-.5.5M767 1231c0 .5.5 1 1 1 .6 0 1-.5 1-1 0-.6-.4-1-1-1-.5 0-1 .4-1 1M162 1231.5c0 .3.2.5.5.5s.5-.2.5-.5-.2-.5-.5-.5-.5.2-.5.5M162.3 1237.5c0 2.2.2 3 .4 1.7.2-1.2.2-3 0-4-.3-.9-.5.1-.4 2.3M853.2 1245.5c-.1 2.7-.6 5.6-1.1 6.4-.8 1.2-18.7 1.3-125.8.8-68.6-.4-139.2-.9-156.8-1.2s-81.5-.8-142-1.1c-60.5-.4-117.9-.8-127.5-1s-38.6-.4-64.5-.6c-25.8-.1-52.7-.4-59.7-.6-12.8-.3-12.8-.3-12.8-2.8 0-1.3-.5-2.4-1.1-2.4-1.4 0-.2 5.2 1.4 6.2.7.4 8.2.8 16.7.9s16.9.2 18.5.4c1.7.1 36.8.5 78 .9 41.3.3 93.5.8 116 1.1 22.6.3 83.5.7 135.5 1s146.4.8 209.7 1.1c101.7.6 115.3.5 115.8-.8.4-.9.4-4.2.2-7.4-.3-5.9-.3-5.9-.5-.9"/></svg>