<svg xmlns="http://www.w3.org/2000/svg" viewBox="0 0 992 1402" fill="currentColor"><path d="M158 234.3c-7 3.9-9.5 5.7-9.3 7.1 0 1 3.8 7.4 8.4 14.2 7.1 10.6 8.5 12.2 10.1 11.3 1-.5 1.8-2.1 1.8-3.4 0-3.2 1.4-3.1 7 .1 9.8 5.7 11.7 6.8 17.1 9.5 9.5 4.9 10.9 3.9 10.9-7.6v-8.1l-8.2-4.2c-10-5.1-22.5-11.9-25.5-13.8-2-1.2-2.2-2-1.6-5.9.3-2.5.2-4.5-.3-4.5s-5.2 2.4-10.4 5.3m7.2 2.3c.3 5.1-.5 4.4 21.8 16.2 14.2 7.4 13.2 6.4 12.6 13.5-.3 3.4-.5 6.8-.6 7.5 0 .8-1.6.4-4.7-1.4-11.4-6.3-27.1-14.4-28.2-14.4-.6 0-1.1 1.3-1.1 3 0 1.6-.3 3-.7 2.9-.5 0-4.1-5.2-8.2-11.5-7-10.9-7.3-11.5-5.5-12.9 1.1-.8 2.2-1.5 2.7-1.5.4 0 2.8-1.3 5.5-3 2.6-1.6 5-3 5.4-3s.8 2.1 1 4.6"/><path d="M166 249.9c0 3.4.4 6.1 1 6.1s1-.9 1-2.1c0-1.6.4-1.9 2-1.4 1.1.3 2 .2 2-.4 0-.5-.9-1.3-2-1.6s-2-1.3-2-2.1c0-1.1.6-1.3 2-.9 2.5.8 2.7-1 .3-1.9-1-.3-2.4-.9-3-1.2-1-.4-1.3 1-1.3 5.5M175.5 254.6c.4 3.3.9 6.1 1.2 6.4.2.3 1.3-.6 2.3-2 1.8-2.5 1.8-2.5 2.5.5 1.3 5.8 1.7 6.1 3 2.5.8-1.9 1.4-4.6 1.4-6 0-2.5 0-2.5-1.4 0s-1.4 2.5-2.1-.8c-.7-3.6-2-4.2-2.9-1.2-1 3-2.5 2.4-2.5-.9 0-1.7-.5-3.3-1.1-3.7-.7-.4-.9 1.1-.4 5.2M188.6 256.7c-.3.4-.6 2.8-.6 5.4 0 3.8.5 5.1 2.2 6.3 3.1 2.2 4.5 2 6.3-.8 1.5-2.2 1.5-2.7 0-5.5-1.5-3.1-6.7-6.6-7.9-5.4m5.2 3.9c3.3 2.3 2.7 6.9-.8 6.9-2.2 0-2.5-.5-2.8-4.3-.3-4.6.2-5 3.6-2.6M719.5 375.2c-.3.8-.4 5.9-.3 11.4l.3 9.9 26 .8c14.3.4 32.1.6 39.5.5l13.5-.3.3-10.4c.1-5.7-.1-10.8-.5-11.2s-18.2-1.1-39.5-1.5c-33.6-.6-38.8-.5-39.3.8m65.8 1.8H797v19.2l-37.7-.7c-20.8-.4-37.9-.8-38-.9-.5-.4-1-17.5-.5-18.1.4-.4 12.4-.5 26.7-.1 14.3.3 31.3.6 37.8.6"/><path d="M727.2 380.3c-3.4 4.1-1.9 11.7 2.2 11.7 3.3 0 5.1-3.2 3.4-6-.7-1.1-2.3-2-3.5-2-1.3 0-2.3-.5-2.3-1 0-1.7 2.9-2.3 4.5-1 1 .8 1.5.9 1.5.2 0-.6-.9-1.6-1.9-2.2-2.5-1.3-2.6-1.3-3.9.3m4.6 8c.3 1.2-.3 1.7-2.2 1.7-2.5 0-3.5-1.8-1.9-3.4 1.2-1.2 3.8-.2 4.1 1.7M737.6 383.4c-3.2 4.2-3.3 5.6-.5 5.6 1.2 0 2.8.8 3.5 1.7 1.2 1.6 1.3 1.6 1.4.1 0-.9.6-1.9 1.3-2.1q1.5-.6 0-.6c-.8-.1-1.3-1.6-1.3-4.1 0-2.2-.4-4-.9-4s-2 1.5-3.5 3.4m2.4 2.6c0 1.9-1.1 2.6-2.3 1.4-.8-.8.3-3.4 1.4-3.4.5 0 .9.9.9 2M752.2 381.2c-2.6 2.6-.6 6.8 3.1 6.8 1.1 0 1.7.5 1.4 1.2-.2.7-1.4 1.2-2.6 1.1-1.1-.2-2.1.2-2.1.7 0 1.8 5 1.5 6.2-.3.9-1.5 1-6.9.2-9.1-.7-1.9-4.5-2.1-6.2-.4m4.8 2.8c0 1.3-.7 2-2 2s-2-.7-2-2 .7-2 2-2 2 .7 2 2M762 381.5c-.7.8-1 2.5-.6 4 .5 2 1.3 2.5 3.7 2.5 2.7 0 3 .2 1.9 1.5-.7.9-2.1 1.3-3.1 1-1.1-.4-1.9-.2-1.9.4s.2 1.1.4 1.1 1.1.3 1.9.6c3.6 1.3 6.1-6 3.7-10.7-1.3-2.3-4.3-2.5-6-.4m5 2.5c0 1.3-.7 2-2 2s-2-.7-2-2 .7-2 2-2 2 .7 2 2M772 381.5c-.7.8-1 2.5-.6 4 .5 2 1.3 2.5 3.7 2.5 2.7 0 3 .2 1.8 1.6-.7.8-2.1 1.3-3.1 1.1-1-.3-1.8-.1-1.8.4s.2.9.4.9 1.1.3 1.9.6c3.6 1.3 6.1-6 3.7-10.7-1.3-2.3-4.3-2.5-6-.4m5.4 2.2c.7 1.7-1.1 3.5-2.9 3-.5-.2-1.1-1.3-1.3-2.5-.3-1.6.2-2.2 1.6-2.2 1.1 0 2.3.8 2.6 1.7M783.2 386c-1.1 3.3-1.7 6-1.2 6 .4 0 1-.7 1.4-1.5.3-.8 1.7-1.5 3.1-1.5s2.8.7 3.1 1.5c.4.8 1 1.5 1.5 1.5.4 0-.1-2.1-1.1-4.6-1.1-2.5-2-5.2-2-6s-.6-1.4-1.4-1.4c-.7 0-2.2 2.6-3.4 6m4.8.1c0 2-1.5 2.6-2.5.9-.9-1.5.3-4.3 1.5-3.5.5.3 1 1.5 1 2.6M746 387c0 .5.7 1 1.5 1s1.5-.5 1.5-1c0-.6-.7-1-1.5-1s-1.5.4-1.5 1M756 415.2l-.1 16.3-8.7 17c-7.9 15.4-9 17-11.3 17-5.6.1-7.5 5.4-3.9 10.6 1.9 2.5 2.6 2.8 7.3 2.7 2.9-.1 6.2.2 7.5.6 3 1.1 2.9-.8-.3-3.6-1.6-1.4-2.5-3.2-2.5-5.2 0-1.6-.7-3.7-1.5-4.6-1.3-1.4-.6-3.4 7-18.6l8.5-16.9v-15.8c0-9.8-.4-15.7-1-15.7s-1 6.1-1 16.2m-21.6 54.3c-1.6 2.5-3.4 3.3-3.4 1.6 0-1.2 2.9-4.1 4.1-4.1.5 0 .2 1.1-.7 2.5m8-.9c.9 2.3-.3 3.7-2 2.3-1.2-1-1.8-.9-3.2.5s-1.5 2-.4 3.7c1.5 2.4 1 3.4-1.3 2.6-2.1-.9-1.9-5 .6-8.1 2.3-2.9 5.4-3.4 6.3-1M740 473c0 .5-.4 1-1 1-.5 0-1-.5-1-1 0-.6.5-1 1-1 .6 0 1 .4 1 1m1.7 2.7c-.4.3-.7 0-.7-.7s.3-1 .7-.7c.3.4.3 1 0 1.4m3.3.8c0 .3-.2.5-.5.5s-.5-.2-.5-.5.2-.5.5-.5.5.2.5.5M630.4 416.3c-.2.7-.3 5.6-.2 10.8l.3 9.4 12.5.5c6.9.3 24.7.6 39.5.5h27V427c0-10.3 0-10.4-2.5-11.1-1.4-.4-19-.7-39.3-.8-29.9-.1-36.8.1-37.3 1.2m70.1 1.4 7.5.6V436l-37.7-.2-37.8-.3-.3-9.3-.3-9.3 30.6.1c16.8.1 34 .4 38 .7"/><path d="M638.3 421.2c-3.9 4.8-.8 13.1 4.1 11.2 3.9-1.5 2.2-7.4-2-7.4-1.6 0-2.4-.5-2.1-1.3.2-.6 1.6-1.2 3.1-1.2 1.4.1 2.5-.4 2.3-1-.5-1.5-4.2-1.8-5.4-.3m4.5 7.1c.4 2.2-2.7 3.5-3.8 1.6-1-1.5.7-4.2 2.4-3.6.6.2 1.2 1.1 1.4 2M647.9 421.6c-2 2.4-1.6 8.4.6 10 3.5 2.6 5.8.9 5.8-4.5 0-6.2-3.4-9.1-6.4-5.5m4.6 4.9c0 3.3-.3 4-2 4-1.5 0-2.1-.8-2.3-2.8-.5-3.9.5-5.9 2.5-5.5 1.4.2 1.8 1.3 1.8 4.3M664.6 422.1c-1.7 1.7-1.8 1.9-.3 1.9 1.3 0 1.7.9 1.7 4 0 2.2.5 4 1 4 1.1 0 1.4-10.7.3-11.3-.5-.3-1.7.4-2.7 1.4M674.2 421.3c-.5.7-1.2 3.1-1.6 5.3-.7 4.9 1 7 4.9 6 2.3-.6 2.5-1 2.2-5.8-.2-4.2-.6-5.2-2.4-5.9-1.4-.5-2.5-.3-3.1.4m3.8 2.7c0 2.3-2.5 2.7-3.3.6-.7-1.6.1-2.6 2-2.6.7 0 1.3.9 1.3 2m0 4.9c0 1.1-.4 2.2-.8 2.5-1.4.9-3.5-1.2-2.9-2.8.9-2.3 3.7-2 3.7.3M692.4 421.4c-.3.7-.4 3.5-.2 6.2.3 4.9.3 4.9 5.1 5.2 3.3.2 4.7 0 4.2-.7-.3-.6-2.2-1.1-4.1-1.1-2.4 0-3.4-.5-3.4-1.5s1-1.5 2.9-1.5c4.2 0 4.8-1.8.9-2.2q-3.3-.3-3.6-2.1c-.3-1.4.4-1.7 3.2-1.7 2 0 3.6-.5 3.6-1 0-1.6-8-1.2-8.6.4M684.6 422.3c-1.7 1.2-1.7 1.4-.2 2 1.1.5 1.6 1.9 1.6 4.9 0 3.2.3 3.9 1.1 3.1.9-.9.9-2.7.3-6.3-.8-4.8-1-5-2.8-3.7M657 428c0 .5.7 1 1.5 1s1.5-.5 1.5-1c0-.6-.7-1-1.5-1s-1.5.4-1.5 1M672 453.4v14.5l5.8 4.6c3.1 2.5 7.5 6.1 9.7 7.8 5.8 4.7 22.8 18.8 23.9 19.8.5.5-.2 1.3-1.8 1.9-1.5.5-5.3 2.2-8.4 3.6-20.8 9.7-20.5 9.6-22.9 8.5-2-.9-2.3-.8-2.1.6.2 1.3-.8 2-4.2 2.8-6.8 1.6-11.7 4.1-13 6.6-.7 1.3-1 4.4-.8 7.6.4 4.2 1.1 6 3.1 8.1 2.3 2.3 3 2.5 4.5 1.4.9-.7 2.4-1.5 3.2-1.8 10.8-4.2 13.2-5.2 21-8.7 15.2-6.8 25.5-8.9 41.6-8.4 13.4.4 24.2 2.4 35.9 6.7 3.3 1.2 8 2.6 10.5 3.1 2.5.4 5.9 1.1 7.6 1.5 2.3.4 4.5-.1 8.2-2 9.2-4.7 9.6-9.2 1.6-17.7-5.1-5.3-5.6-6.2-5-9 1-5.3-3-8.4-7.3-5.7-1.5.9-2.5.6-6-2.2-2.2-1.8-4.4-3-4.8-2.5-.5.4-.2 1 .4 1.2.7.3 2.3 1.3 3.5 2.3 1.9 1.6 2 1.9.6 2-.9 0-2.3.8-3 1.7-2.5 3.4-9.8 5.9-9.8 3.4 0-1.9-11.6-6.4-20.1-7.8-7.9-1.4-9.9-1.4-17.6 0-4.9.8-9.5 1.8-10.3 2.1-1.3.6-6.7-3.3-18.5-13.2-1.1-.9-4-3.3-6.5-5.2s-5.1-4-5.8-4.8c-.8-.7-3-2.5-5-4-6.4-4.7-6.2-4-6.2-18.6 0-7.9-.4-13.7-1-14.1s-1 4.5-1 13.9m77.6 46.6c7.7 2.1 14.4 5.6 14.4 7.7 0 1.5-7.8 2.7-12.2 1.8-1.8-.4-4.9-1.7-6.8-2.9-2.9-1.9-9.2-4.6-10.6-4.6-.2 0-.4.4-.4 1 0 .5.7 1 1.6 1 .8 0 4.7 1.7 8.7 3.7 8.8 4.7 14.5 4.9 22.2 1l5-2.6 1.3 4.7c.7 2.6 2.6 8 4.2 11.9 3.5 8.8 3.5 8.8-10.3 4.4-5.1-1.6-11.7-3.5-14.7-4.2-3.6-.8-6.7-2.4-9-4.5-1.9-1.8-5.3-4.2-7.5-5.3-4.6-2.4-5.6-2.3-19 2-5.2 1.7-11.2 2.9-14.2 2.9-2.8 0-5.5.4-5.8 1-.4.6.7 1 2.4 1 5.5 0 3.2 4.2-3.7 7-1.8.7-3.5 1-3.9.7-.3-.4.4-3 1.7-5.8 1.4-3.4 2-6.4 1.7-8.4-.4-2.7-.1-3.3 2.1-4.2 1.5-.6 6.3-2.7 10.7-4.7 14.9-6.6 28.9-8.1 42.1-4.6m39.8 1.9c.8 1.2-.4 4.1-1.6 4.1-.5 0-.6-.5-.3-1 .3-.6.3-1.5-.1-2.1-.4-.8-.9-.7-1.5.2-.4.7-1.1 1-1.6.6-.8-.9 1.5-2.7 3.4-2.7.6 0 1.4.4 1.7.9m-13.6 2.1c-1.4 2.2-2.4 1.9-1.5-.5.4-.8 1.1-1.5 1.7-1.5s.6.7-.2 2m6.7 0c.3.6-.1.7-.9.4-1.8-.7-2.1-1.4-.7-1.4.6 0 1.3.4 1.6 1m-1.1 2.2c7.9 5.4 15.6 13.7 15.6 16.8 0 2.4-8 7.3-11.1 6.8-2.4-.3-5.7-5-5.8-8.2-.1-1.3.3-1.6 1.7-1.1.9.4 4.6 1 8.1 1.3 4.7.4 6.2.2 5.7-.7-.4-.6-3.3-1.1-6.4-1.2-8.6-.2-10.2-.9-11.8-5.4-1.9-5.6-1.8-10.5.3-10.5.2 0 1.9 1 3.7 2.2m6.2 2c1.9 2.3 1.9 2.3-.6.3-1.4-1.1-2.7-2.1-2.9-2.2q-.3-.3.6-.3c.5 0 1.8 1 2.9 2.2m-94 5.1c.3.8 0 2.6-.6 4.2-1.1 2.9-2.4 2.5-3.3-1-.4-1.5-.5-1.4-.6.7-.1 1.7-.9 3.2-2.2 3.9-1.8.9-2 .8-1.5-.9.4-1.1.2-2.3-.4-2.7-.5-.3-1 .1-1 .9 0 .9-.5 1.6-1.1 1.6-.8 0-.8.5.1 1.5.7.8 1 1.5.7 1.5s-1.3.3-2.2.6c-1.4.6-1.6.1-1.3-2.7.3-2.9 1-3.8 5.3-6.1 5.6-3.1 7.3-3.4 8.1-1.5m43.1 2.2c5.5 2.8 8.2 6.3 4.1 5.1-1.3-.3-5.3-.6-9-.6-5.7 0-6.8-.3-6.8-1.7 0-2.2 2.9-5.3 5-5.3.9 0 3.9 1.1 6.7 2.5m-13.1 1.9c-.5 2.1-1.4 2.6-5.4 3.1-2.6.4-6.9 1.3-9.7 2-5.2 1.5-6.6 1.2-4.7-.7 1.1-1.1 19.4-7.6 20.1-7.2.2.2.1 1.4-.3 2.8m-46.8 3.8c-.3 2.6-4.1 3.6-6.4 1.8-2-1.7-1.7 0 .4 2.8 1.8 2.3 2.1 2.3 6.3 1.1 2.4-.7 5.9-2.1 7.7-3.1 5.2-2.8 6.1-2.5 4.9 2-1 3.9-1.2 4.1-9.9 7.7-3.8 1.5-3.8 1.5-3.8-1.5 0-3.4 0-3.3-3.4-2-2.3.8-2.6.5-4.7-3.6-2.3-4.8-1.9-6 2.1-6.7 6-1.1 7.2-.8 6.8 1.5m120 7c-1.3 1-2.7 1.8-3.3 1.7-.5 0 .2-.9 1.8-2 2-1.5 2.7-3 2.9-5.7.1-3.7.1-3.7.5.2.4 3.3 0 4.3-1.9 5.8m-130.4-1.7c1.7 2.5 2 5.5 1 9.2-1.5 5.5-5.3.8-5.4-6.5 0-5.9 1.6-6.9 4.4-2.7m125.1 4.5c-.3.5-1.1 1-1.6 1-.6 0-.7-.5-.4-1 .3-.6 1.1-1 1.6-1 .6 0 .7.4.4 1m-3.8 1.7c-.4.3-1 .3-1.4 0-.3-.4 0-.7.7-.7s1 .3.7.7m-114 2c-.4.3-.7 0-.7-.7s.3-1 .7-.7c.3.4.3 1 0 1.4m-12.7 1.8c0 .3-.2.5-.5.5s-.5-.2-.5-.5.2-.5.5-.5.5.2.5.5m10-.1c0 .3-.4.8-1 1.1-.5.3-1 .1-1-.4 0-.6.5-1.1 1-1.1.6 0 1 .2 1 .4"/><path d="M712.5 507.1c-8.2 2.8-15.4 5.5-16 6.1-.7.7-.2.9 1.5.5 3.8-.8 23.3-7.5 25.2-8.7 1-.5 2.4-1 3.2-1s1.8-.5 2.1-1c.9-1.5.3-1.3-16 4.1M500 453.8V465l5.3.1c2.8 0 6.6.2 8.2.3 1.7.2 17.2.5 34.5.7l31.5.4.3-11.3.3-11.2h-14.4c-7.9 0-25.9-.3-40-.7l-25.7-.6zm55.2-7.8H578v18h-21.3c-11.8 0-28.9-.3-38-.7l-16.7-.6v-18l15.2.6c8.3.4 25.4.7 38 .7"/><path d="M507.2 450c-3.5 5.6 1.3 14.1 5.6 9.8 2.9-2.9.4-7.6-3.7-6.9-.7.1-1.1-.4-.8-1.1.2-.7 1.6-1.2 3.1-1.1 2.9.2 3.5-1.1 1-2.1-2.6-1-3.9-.7-5.2 1.4m4.6 6.8c.2 1.4-.2 2.2-1.2 2.2-1.9 0-2.9-1.7-2.2-3.6.8-2.2 3-1.2 3.4 1.4M517.2 449.6c-1.9 2.1-1.1 9.4 1.1 10.8 2.8 1.8 5.2-.4 5.5-5.3.5-6-3.4-9.2-6.6-5.5m4.6 5.2c.3 3.7.1 4.2-1.7 4.2s-2.1-.6-2.1-3.8c0-6.8 3.3-7.1 3.8-.4M534.6 450.3c-1.8 1.3-1.8 1.4-.2 2 1.3.5 1.7 1.6 1.5 4.2-.2 1.9.1 3.5.6 3.5.6 0 1.1-2.5 1.3-5.5.3-5.7-.2-6.4-3.2-4.2M543 450.5c-.7.8-1 1.8-.6 2.2.3.4 1.2-.2 2-1.2 1.4-1.9 3.6-1.3 3.6 1 0 .7-1.3 2.3-3 3.5-4.3 3.1-3.9 5 1.1 5 2.2 0 3.8-.4 3.5-.9-.3-.4-1.7-.6-3.1-.3-3.4.6-3.2-1 .6-3.2 2.3-1.4 2.9-2.4 2.7-4.4-.2-2.1-.9-2.8-2.9-3-1.4-.2-3.1.4-3.9 1.3M553.1 450.9c-1.7 3.2-1.3 7.6 1 9.7 2.5 2.3 4.9 1 6.1-3.1 1.5-5.9-4.5-11.5-7.1-6.6m5.2 2.7c.7 3.8-.3 6.5-2.2 6.2-1.6-.3-2.7-4.8-1.7-7.4.9-2.3 3.3-1.6 3.9 1.2M526 456c0 .5.9 1 2 1s2-.5 2-1c0-.6-.9-1-2-1s-2 .4-2 1M539 491.2c0 23.1 0 23.1 3.4 34.2 5.6 18.1 5.7 16.7-1.6 20.1-13.5 6.1-38.3 18.8-39 19.8-1.5 2.3-.8 5.9 1.6 8s2.4 2.1.2 3.8c-1.8 1.4-3 1.5-6.6.8-6.1-1.1-6.6-1.1-5.2.3.6.6 3 1.4 5.3 1.7 3.7.5 4.4 1 5.4 4.1 1.3 3.8 3 4.1 7.3 1.4 1.3-.8 3.2-1.2 4.3-.9 1.2.4 4.7-.7 9.5-3 8.4-4.1 7.7-4.1 25.4-1 8.8 1.5 9.8 1.9 13 5.4 4.5 4.7 8.4 9.2 14 16.1 2.5 3 5.3 6.4 6.3 7.5 5.6 6.1 12.7 15.4 12.7 16.6 0 .8-2.1 2.2-4.8 3.2-9.6 3.7-9.7 3.7-10 9.6-.4 6.5 2.3 12.5 7.9 17.5 5.2 4.7 9.1 4.8 13.4.3 4.5-4.6 6.8-6.3 13.4-9.6 3.2-1.7 6.8-4.2 8-5.7 2.8-3.5 4.3-9.6 3.5-13.9-.5-3-8.3-14.3-16.3-24-2-2.4-3.2-5.8-6.5-19.2-3.6-14.5-2.2-19.7 6.6-24.1 5.1-2.5 20.2-8.3 30.8-11.8 9.2-3.1 11-5 11-11.5 0-4-.4-5.1-2.4-6.4-2.5-1.6-2.1-1.7-12.1 2-1.2.4-.5-.8 2-3.2 2.8-2.7 6-4.6 10-5.8 6.4-1.9 12.5-7 12.5-10.4 0-2.3-10-9.1-13.4-9.1-2.6 0-30.3 8.8-42.1 13.4-3.8 1.5-9.5 3.7-12.5 4.9-8.3 3.1-32.3 13.3-36.6 15.5-2.2 1.1-4.9 2.2-6 2.6-2.5.8-2.8.2-7.5-15.9-2.8-9.8-2.9-10.5-2.9-33.3 0-14.8-.4-23.2-1-23.2s-1 8.4-1 23.2m116.4 17.5c2.5 1.6 4.6 3.4 4.6 4.1 0 .8-1.8 0-4.6-1.8-2.5-1.8-4.7-3-5-2.7-.2.2 1.4 1.6 3.6 3.1 4.7 3.1 5 4.1 1.3 5-1.6.3-3.8.8-4.9 1.2-1.6.4-2.3 0-2.7-1.5-.3-1.2-1.3-2.1-2.5-2.1-5.1 0-57.9 19.3-60.7 22.2-1.3 1.3 2.6.3 8.2-2.3 2.4-1 4.6-1.9 5.1-1.9s2.6-.8 4.8-1.9c5.6-2.7 39.4-14.1 41.8-14.1 3.4 0 .4 1.6-7.4 3.9-8.2 2.5-12.4 3.9-15.5 5.1-1.1.4-6.9 2.7-13 5-6 2.3-12.3 4.8-14 5.5-1.6.7-5.4 2.3-8.4 3.5-5.2 2-7.5 3-19.8 8.6-11 5-21.2 9.8-34 16.1-7.3 3.6-13.8 6.3-14.5 6-1.9-.6 25.5-14.2 55.5-27.4 2-.9 3.7-2 3.7-2.5 0-1.2-.7-1-7.4 2.1-3.3 1.6-7.9 3.7-10.1 4.6-2.2 1-12.5 5.9-23 11C518.8 566 514 568.9 514 571c0 2.6 4.8 1.1 20.3-6.4 25.4-12.3 36.6-17.6 42.1-19.8 2.7-1 6.8-2.7 9-3.8 7.6-3.4 19.9-8.1 20.3-7.7.2.3-2.2 1.5-5.4 2.7-3.2 1.3-8.6 3.6-12.1 5.2-3.4 1.5-6.4 2.8-6.6 2.8s-6.1 2.7-13 6c-7 3.3-12.9 6-13.1 6-.3 0-9.1 4.3-19.7 9.5-10.5 5.2-19.9 9.5-20.7 9.5-2.4-.1-11.6-5.6-11.9-7.1-.1-.8.8-2 2-2.8 4-2.5 50-25.1 51.1-25.1.3 0 4.4-1.8 9.1-4s8.8-4 9.1-4 2.4-.9 4.8-1.9c2.3-1 6.2-2.6 8.7-3.6 2.5-.9 5.9-2.3 7.5-3 7.2-3.1 14.6-5.7 15-5.3.3.3-2.8 1.7-6.7 3.3-4 1.5-12 4.8-17.8 7.3-10.1 4.2-12.7 5.4-27 12-3.6 1.6-11.7 5.3-18 8.2-11.5 5.2-32.1 15-32.9 15.7-.2.1-.2.5.1.8s7-2.6 14.9-6.3c7.9-3.8 16.7-7.9 19.4-9.2 2.8-1.3 8.7-4 13.2-6.1 4.6-2.2 8.4-3.9 8.7-3.9.2 0 4.3-1.8 9-4s8.8-4 9.1-4c.2 0 3.3-1.3 6.7-2.8 3.5-1.6 7.9-3.4 9.8-4.1s4.4-1.7 5.5-2.2c3.1-1.4 33.6-12 37.8-13.1 2-.6 3.7-1.7 3.7-2.4 0-2.3 4.5-1.6 9.4 1.3m-15.4-.2c0 .3-.2.5-.5.5s-.5-.2-.5-.5.2-.5.5-.5.5.2.5.5m-4.5 1.5c-1.1.5-2.7.9-3.5.9-.9 0-.8-.4.5-.9 1.1-.5 2.7-.9 3.5-.9.9 0 .8.4-.5.9m-7.5 2.5c-1.4.8-3.2 1.4-4 1.4s-.1-.7 1.5-1.4c3.9-1.8 5.7-1.8 2.5 0m-7 2.5c-.8.5-2.2.9-3 .9-1 0-.8-.3.5-.9 2.7-1.2 4.3-1.2 2.5 0m-6 2c-.8.5-1.9 1-2.5 1-.5 0-.3-.5.5-1s2-1 2.5-1c.6 0 .3.5-.5 1m41 1.7c0 .5-8.2 3.5-18.3 6.8-21.8 7.1-21.1 6.9-20.3 5.7.3-.5 1.6-1.2 2.8-1.5 1.3-.2 6.1-1.9 10.8-3.7 11.3-4.2 21-7.4 24.3-7.9.4 0 .7.2.7.6m-18 9.2c0 .5-1.5 2-3.2 3.4-1.8 1.3-4.6 3.8-6.3 5.3-1.6 1.6-4.3 3.9-6 5.2-1.6 1.3-4.8 4-7 6-2.2 2.1-9.5 8.6-16.2 14.5-6.8 6-12.3 11.4-12.3 12.1 0 1.3 3.1 6.3 6.3 10.1.9 1.1 3.9 4.9 6.7 8.5s5.6 7.2 6.3 8c.7.9 4.1 5.4 7.7 10 3.5 4.7 7 9.1 7.6 9.7 2.2 2.3 3.6 8.4 3 12.5-.9 5.8-3.2 8.6-9.6 11.8l-5.8 2.9-.6-4c-.8-4.9-4.6-11.1-8.6-14-1.6-1.3-3-3.1-3-4 0-1-.6-2.4-1.3-3.1s-3.7-4.2-6.7-7.8-5.7-6.7-6-7-2.5-3-5-6-5.2-6.3-6-7.2-3.5-4.1-6-7.2c-2.5-3-5.6-5.9-7-6.5-2.9-1.2-22.2-5.1-25.4-5.1-1.1 0-2.7-.4-3.5-.9-1-.7 1.1-2.2 8-5.7 23.7-12 58.6-27.5 78.4-34.8 5.5-2 12.3-4.5 15-5.6 5.8-2.2 6.5-2.3 6.5-1.1m-20.3.8c-.4.3-1 .3-1.4 0-.3-.4 0-.7.7-.7s1 .3.7.7M613 531c-.8.5-1.9 1-2.5 1-.5 0-.3-.5.5-1s2-1 2.5-1c.6 0 .3.5-.5 1m36.3 1.5c1.1 1 1.4 2.7 1 5.7-.6 4.6-2.2 6.5-6.3 7.5-2.6.5-16.7 5.6-28 10.1-16.5 6.4-19.3 13.8-12.7 33.2.3.8.8 2.8 1.2 4.5.6 3 .6 3-1.7.5-4.8-5.2-13.8-17.7-13.8-19.2 0-.8 1.2-2.6 2.8-3.9 1.5-1.3 6.1-5.3 10.2-8.9s7.7-6.7 8-7 3.9-3.4 8-7 8.7-7.6 10.3-9c1.5-1.4 6.3-3.7 10.5-5.2 9.2-3.2 8.7-3.2 10.5-1.3m-40.6.2c-.4.3-1 .3-1.4 0-.3-.4 0-.7.7-.7s1 .3.7.7m6.8.3c-.3.5-1.2 1-2 1-1.2 0-11.4 4-20.2 8.1-2.4 1-4.5 1.9-4.8 1.9-.2 0-3.5 1.4-7.2 3.1-3.8 1.7-10.8 4.9-15.8 7.2-4.9 2.2-17.9 8.5-28.7 13.9-10.9 5.5-20.3 9.8-21 9.5-.9-.3-.6-.7.7-1.2 1.1-.4 10.6-4.9 21-10 10.5-5.1 21.7-10.5 25-12s10.7-4.8 16.5-7.5c5.8-2.6 13.4-5.9 17-7.3s9-3.7 12-5.1c5.9-2.7 8.5-3.2 7.5-1.6m-105.1 47.2c.5 2.3.1 2.9-2.5 4.2-3.2 1.6-2.9 1.7-4.3-2.7-.5-1.7.4-3.1 2.9-4.5 2.3-1.2 3-.7 3.9 3m17.6-3.4c0 1-8.5 5.2-10.5 5.2-2.5 0-1.7-2 1.3-3 1.5-.6 3.4-1.4 4.2-1.9 1.9-1.2 5-1.4 5-.3m-13.6 3.7c.3.9 0 1.5-.9 1.5-.8 0-1.5-.7-1.5-1.5s.4-1.5.9-1.5 1.1.7 1.5 1.5m86.1 51.7c5.5 4.3 8.3 15.1 4.8 19-2.3 2.6-3.3 2.2-3.3-1.2 0-3.9-3.3-10.4-7.6-14.9-1.9-2-3.4-3.9-3.4-4.4 0-1.6 6.9-.6 9.5 1.5m-8.6 2.4c4.3 3.1 8.1 10.3 8.1 15.6 0 5.8-1.6 6.9-6.6 4.5-4.4-2.1-8.5-8.5-9.1-14.2-.8-6.9 2.5-9.5 7.6-5.9m-9.5 2.3c-1.2 5.9 3.7 15.4 10 19.2 2 1.2 2.5 1.9 1.4 1.9-2.6 0-8.1-5.3-10.6-10.3-2.2-4.3-2.8-9-1.6-12.1 1-2.6 1.4-1.8.8 1.3m14.6 21.6c0 .3-.2.5-.5.5s-.5-.2-.5-.5.2-.5.5-.5.5.2.5.5"/><path d="M572.2 569.7c-3 .6-9.2 6.6-9.2 8.9 0 1.4.5 1.1 2.3-1.3 3-4.4 7.9-6.7 12.5-5.8 2.5.4 3.4.3 2.7-.4-1.3-1.3-5.4-2-8.3-1.4M644.7 539.8c-.7 2.7.9 5 2.4 3.5 1.3-1.3.9-4.5-.7-5-.6-.2-1.4.5-1.7 1.5M506.1 580.4c-1 1.2-.6 2.6 1 2.6 1.1 0 1.9-2.9 1-3.5-.5-.2-1.4.1-2 .9M814.4 481.2c-2.9 3.5-4.4 6.5-4.4 9.2 0 2.4.4 3.7 3.5 11.1.7 1.6 2 4.6 2.8 6.7.8 2 2.5 3.9 3.6 4.3 2.1.6 2.1.6 2.1 60.1V632h-18.2c-10.1 0-22-.3-26.5-.7l-8.3-.6v-8.3c0-4.9-.4-8.4-1-8.4-1.5 0-1.3 17.3.2 18.8.8.8 5.6 1.2 14.9 1.2h13.7l-.5 8.4c-.3 5.5-.1 8.6.6 9 .8.5 1.1-2 1.1-8.3V634h26v-60c0-60 0-60 2.8-60 2.9 0 12.4-4.2 15.5-6.8 1-.9 1.7-2.9 1.7-5 0-3.1-1-4.5-7.2-10.7-12.4-12.3-18.3-15-22.4-10.3m4.4.6c-1 .2-2.2 1.8-2.7 3.5l-.9 3.2-.1-3.2c-.1-3.3 2.3-5.8 4.4-4.5.6.4.2.8-.7 1m2.2 6.1c-1.2 2.3-3 2.8-3 .8 0-.7.8-2.4 1.7-3.7 1.5-2.1 1.8-2.2 2.1-.8.2.9-.2 2.6-.8 3.7m16.3 5.9c8.2 8.7 7.7 11.7-2.6 16.1-6.6 2.9-8.4 2.7-10.7-1.2-1.9-3.1-2-3.1-2-.7-.1 2.2-.4 2-1.9-1.5-3.3-7.1-6.4-15.6-5.9-16 .3-.3 1.8 3 3.5 7.2 1.7 4.3 3.5 7.8 4.1 7.8s1.9 1 3 2.2c1.1 1.3 2.9 2.3 4.1 2.3 2.7 0 10.2-3.7 11.8-5.9 1.3-1.8-.2-5.4-3.6-8.5-1.8-1.7-2.1-1.7-2.1-.3 0 2.7-5.3 12.7-6.7 12.7-.7 0-1.3-.5-1.3-1.1 0-1.2 4.7-9.6 6.7-12 1.2-1.4.7-2.2-3.4-6.4-3.3-3.3-3.9-4.1-1.8-2.7 1.7 1.1 5.6 4.7 8.8 8m-13.3-2.3c-2.5 4.8-4 5.8-4 2.6 0-3.1 4.1-9.4 5.3-8.2.7.7.3 2.4-1.3 5.6m4.6-1c-.8 3.2-4.6 9.5-5.7 9.5-1.5 0-1-1.8 1.7-7 2.8-5.3 5-6.7 4-2.5m-12.6 9.6c2.1 5.7 3.7 10.5 3.5 10.7-.8.9-8.5-18.1-8.5-21 0-2.2 1.1.1 5 10.3m16-7.9c0 2.1-6.3 13.7-7.2 13.2-1.5-.9-.8-3.2 2.4-8.8 3.1-5.4 4.8-6.9 4.8-4.4m6 7.6c0 2-5.5 9-6.4 8.2-.3-.3.7-2.9 2.1-5.8 2.4-5 4.3-6 4.3-2.4m1.7 3.7c-.4.8-1.1 1.5-1.7 1.5-.7 0-.7-.6 0-2.1 1.3-2.3 2.6-1.9 1.7.6M752 481.9c0 .5.6 1.2 1.3 1.4.9.4.8.8-.3 1.6-1.2.8-.6 1.1 2.5 1.1 4 0 4 0 1.1-2.5-3-2.6-4.6-3.1-4.6-1.6M743.3 486.7c-1.3.2-2.3.9-2.3 1.5s1 .8 2.3.4c1.2-.3 2.8-.6 3.5-.6.6 0 1.2-.5 1.2-1 0-1-.8-1.1-4.7-.3M764 490c1.4 1.1 3.2 2 4 2 1 0 .7-.7-1-2-1.4-1.1-3.2-2-4-2-1 0-.7.7 1 2M731.3 489.7c-1.8.2-3.3.9-3.3 1.4 0 1.1 5.4.3 8-1.2 1.7-.9 1.5-1-4.7-.2M716.8 493.2c-2.1.6-3.8 1.4-3.8 1.8 0 .9 8.1-.9 9.5-2.1q1.65-1.65-5.7.3M404.1 495.9c-2.1 1.3-.6 6.1 1.9 6.1 2.7 0 2.5 1.8-.2 2.3-2.1.3-2.1.4-.5 1.1 3.4 1.6 5.9-4.3 3.7-8.5-1.2-2.1-2.7-2.4-4.9-1m3.9 2.6c0 .8-.9 1.5-2 1.5-2 0-2.6-1.1-1.3-2.3 1.2-1.3 3.3-.7 3.3.8M412.6 496.3c-2.4 1.7-1.3 5.7 1.5 5.7 1 0 1.9.4 1.9 1 0 .5-.9 1-2 1s-2 .4-2 1c0 1.4 3.3 1.3 4.8-.2 1.7-1.7 1.5-6.4-.4-8.2-1.9-1.9-1.6-1.9-3.8-.3m3.4 2.2c0 .8-.9 1.5-2 1.5-2 0-2.6-1.1-1.3-2.3 1.2-1.3 3.3-.7 3.3.8M419.7 500.2c-.7 4.8-.3 5.8 2.2 5.8 3.3 0 4-2 3.2-9.3-.1-.4-1.2-.7-2.5-.7-2 0-2.4.6-2.9 4.2m4.3-1.7c0 .8-.4 1.5-.9 1.5-1.3 0-2.2-1.6-1.4-2.4 1.1-1.1 2.3-.6 2.3.9m0 4c0 .8-.9 1.5-2 1.5-2 0-2.6-1.1-1.3-2.3 1.2-1.3 3.3-.7 3.3.8M427.9 498.4c-.7 1.4-.9 3.6-.5 5.1.5 2.1 1.2 2.6 3.4 2.3 3.4-.4 4.3-4.1 1.4-5.7-1.1-.6-2.3-.7-2.7-.3s-.6 0-.3-.8 1.5-1.4 2.7-1.3c1.3.2 2-.1 1.6-.7-1.2-1.9-4.5-1-5.6 1.4m4.6 4.6c0 2.2-2.9 1.8-3.3-.3-.3-1.4.1-1.8 1.5-1.5 1 .2 1.8 1 1.8 1.8M436.7 496.7c-1.5 1.5-.6 4.2 1.6 4.5 1.2.2 2.2 1 2.2 1.8 0 1-.8 1.4-2.2 1.3-2.4-.3-3.2 1.2-1 2 4.2 1.5 6.5-5.1 2.5-7.1-1.8-.8-1.9-1.1-.6-1.1 2.7-.1 3.2-2.1.5-2.1-1.3 0-2.7.3-3 .7M450 498c-2.5 4.7.9 11 4.4 8.1.9-.8 1.6-2.8 1.6-4.5 0-5.3-3.9-7.5-6-3.6m4.3 1.4c.8 2.1-.3 5.6-1.9 5.6-1.9 0-2.7-1.8-2-4.6.7-2.6 3.1-3.2 3.9-1M458.7 496.7c-.4.3-.7 1.7-.7 2.9 0 1.6.7 2.4 2.3 2.6 2.5.3 2.1 2.3-.5 2.2-1 0-1.8.3-1.8.7 0 1.4 2 2 4 1.4 2.7-.9 2.7-5.5 0-6.2-1.1-.3-2-.9-2-1.4s.9-.9 2-.9 2-.5 2-1c0-1.1-4.3-1.4-5.3-.3M702.3 496.8c-1.3.2-2.3.8-2.3 1.3 0 .9 3.7.3 4.9-.7.8-.7-.4-1-2.6-.6M467.4 498.5c-1.1.8-1.4 1.5-.6 1.5.7 0 1.2 1.3 1.2 2.9 0 1.7.5 3.3 1 3.6.6.4 1-1.3 1-4.4 0-2.8-.1-5.1-.3-5.1s-1.2.7-2.3 1.5M475.3 497.7c-.7.2-1.3 1.1-1.3 1.9 0 1.2.4 1.2 2 .2 3.2-2 3.7.2.6 2.7-1.9 1.5-2.7 2.9-2.3 3.9.7 1.7 5.7 2.3 5.7.6 0-.6-.9-1-2-1-2.6 0-2.6-1.2.1-2.8 3.7-2.4 1.3-7.3-2.8-5.5M691.6 499.4c-2.2.7-3.6 1.5-3 1.8 1.3.7 7.4-1.1 7.4-2.2 0-.6-.1-1-.2-.9-.2.1-2.1.7-4.2 1.3M680.1 502.1c-2.4.5-4.7 1.1-5 1.5-1 1.1 9.2-.5 10.3-1.6s.9-1.1-5.3.1M444.8 502.7c.7.3 1.6.2 1.9-.1.4-.3-.2-.6-1.3-.5-1.1 0-1.4.3-.6.6M671.4 506.4c-.8 2-.1 4.9 1.2 5.3.6.2 1-1.2 1-3.2 0-3.6-1.2-4.7-2.2-2.1M445.4 520.5c.1 7.4.6 12.8 1.4 14 .7 1.1 3.4 8.4 6.1 16.2 4.9 13.9 4.9 14.1 3 15.9-3.2 2.9-2.5 6.9 1.7 9.3 4.2 2.5 5.7 2.6 8.8.6 2.5-1.7 13-1.4 17.9.4 1.6.6 3.3.8 3.9.5.6-.4-3.3-2.1-8.6-3.9-6.8-2.3-10.4-4.2-12.5-6.3-2-2.2-3.4-2.9-4.9-2.5-2.5.6-1.8 1.9-9.8-19.7-5-13.6-5.7-16.8-6.4-26l-.8-10.5zm20.6 47c1 1.3.9 1.5-.9 1.5-2.7 0-3.8 2.6-2.2 5.1.9 1.6.8 1.9-.7 1.9-4 0-5.3-3.9-2.6-7.8 1.8-2.5 4.6-2.9 6.4-.7m-8.7 2.3c-.3 1.2-.9 2.2-1.4 2.2-1.2 0-1.1-.7.2-3.2s2-1.9 1.2 1m7.7 1.7c0 .3-.2.5-.5.5s-.5-.2-.5-.5.2-.5.5-.5.5.2.5.5m3 1c0 .8-.4 1.5-1 1.5-.5 0-1-.7-1-1.5s.5-1.5 1-1.5c.6 0 1 .7 1 1.5m2.7 1.2c-.4.3-.7 0-.7-.7s.3-1 .7-.7c.3.4.3 1 0 1.4M328 543.5c-1.6 1.9-.3 5.5 2.1 5.5 1 0 1.9.4 1.9 1 0 .5-1 1-2.2 1-1.8 0-2 .2-.9.9 3.4 2.2 6.3-2.9 4.2-7.5-1.2-2.7-3.3-3.1-5.1-.9m4 2.6c0 2.5-3.3 2.2-3.8-.4-.2-1.2.3-1.7 1.7-1.7 1.5 0 2.1.6 2.1 2.1M336 543.5c-1.7 2.1-.8 5 1.8 5.3 2.9.4 2.9 2.2 0 2.2-1.5 0-1.9.3-1.2 1 .6.6 1.8.8 2.7.4 2.5-.9 3.2-5 1.3-7.9s-2.9-3.1-4.6-1m4 2.5c0 2.1-2.4 2.8-3.5 1-.8-1.4.3-3 2.1-3 .8 0 1.4.9 1.4 2M345.3 543.2c-3.2 4.1-1.4 10.6 2.5 9.4 1.8-.6 2.1-1.4 1.9-4.4-.3-3.9-1.3-6.2-2.6-6.2-.5 0-1.3.6-1.8 1.2m2.5 1.9c-.2.6-.8 1-1.3 1s-1.1-.4-1.3-1 .4-1.1 1.3-1.1 1.5.5 1.3 1.1m.5 4.4c.1.5-.6 1.1-1.5 1.3-1.1.2-1.8-.3-1.8-1.3 0-1.7 3-1.8 3.3 0M353.8 543.1c-2.3 1.3-2.5 8.4-.3 9.3 4.5 1.7 6-3.8 1.7-6-2.7-1.3-1.4-2.8 1.5-1.7 1.6.6 1.6.5.4-1-.7-.9-1.4-1.7-1.5-1.7 0 0-.9.5-1.8 1.1m3.2 6.2c0 1.9-1 2.7-2.6 2-2.1-.8-1.7-3.3.6-3.3 1.1 0 2 .6 2 1.3M361.2 543.2c-2.2 2.2-1.4 4.8 1.3 4.8 1.6 0 2.5.6 2.5 1.6 0 1.2-.7 1.5-2.5 1.2-3.1-.6-3.3.8-.3 1.8 2.8.9 5.2-2 3.7-4.7-.5-1.1-1.6-1.9-2.4-1.9s-1.5-.5-1.5-1c0-.6.9-1 2-1s2-.5 2-1c0-1.4-3.3-1.3-4.8.2M374.6 543.5c-2.7 2.8-1.8 9.5 1.3 9.5 4.1 0 5.6-6.3 2.2-9.4-1.7-1.6-2-1.6-3.5-.1m3.2 3.4c.2 1.2.1 3-.3 3.9-.5 1.4-.7 1.4-2.2 0-1.1-1.1-1.3-2.5-.9-4.3.8-3.1 3-2.8 3.4.4M382.7 542.7c-.4.3-.7 1.7-.7 3 0 1.6.6 2.3 2 2.3s2 .7 2 2.1c0 1.7-.5 2-2.1 1.6-1.5-.4-1.9-.3-1.1.5.5.5 2 .7 3.2.3 2.9-.9 2.3-4.5-1-6.2-2.5-1.3-2.5-1.3-.2-1.9 1.2-.4 2.2-1 2.2-1.5 0-1-3.4-1.2-4.3-.2M398.7 543.7c-1.4 1.3-.6 2.5.8 1.3 1.3-1 1.8-1.1 2.8-.1.9 1 .6 1.7-1.5 3.3-3.9 2.7-3.6 4.8.5 4.7 2.3-.1 2.6-.3 1-.6-2.8-.5-2.9-1.4-.3-3.1 2.4-1.5 2.6-4.7.4-5.6-2-.8-2.9-.8-3.7.1M390.5 545c-.3.5-.1 1 .4 1 .6 0 1.1 1.3 1.1 3 0 1.6.5 3 1 3 .6 0 1-1.8 1-4 0-2.8-.4-4-1.4-4-.8 0-1.8.4-2.1 1M368 549c0 .5.7 1 1.5 1s1.5-.5 1.5-1c0-.6-.7-1-1.5-1s-1.5.4-1.5 1M773.7 555.2c-1 .5-3.7 1.1-6 1.3-6.2.4-9.6 2.1-10.3 4.9-1.1 4.6 1 5.4 8.4 3.1 2.2-.7 2.2-.7 2.2 9.9 0 5.9.3 10.5.8 10.3.4-.3.8-5.4 1-11.3.3-10.3.5-11 3.4-14.6 3.2-4.1 3.4-5.3.5-3.6m-4.3 5.8c-.5.4-2 1.1-3.3 1.5-3.1.9-2.4-1.5 1-3.2 2.4-1.3 4.1 0 2.3 1.7m-7 .5c-.6 1.6-3.4 2.1-3.4.7 0-1.3 1.1-2.2 2.6-2.2.8 0 1.1.6.8 1.5M368.2 565.7c-.2 10-1.3 15.8-7 35.3-1.8 6.2-2 6.5-5.5 7.1-7.9 1.3-10.1 7-4.4 11.3 3.9 3 6.9 3.3 8.7 1.1.8-1 2.3-1.4 3.9-1.1 1.4.3 6.2.7 10.6 1 8 .5 8 .5 3.5-1-2.5-.8-6.4-2.3-8.7-3.4-2.4-1.1-4.7-2-5.3-2s-1.5-1.2-2-2.6c-1-2.6 1.6-15.7 5.6-28.4 1-3.1 1.4-8 1.1-16l-.3-11.5zM360 611c0 .5-.9 1-1.9 1-2.8 0-3.7 3.7-1.5 6.1 1.6 1.8 1.6 1.9-.2 1.9-4 0-5.6-4.1-3.2-8 1.3-2.1 6.8-2.9 6.8-1m-8.7 3c-.3 1.1-.7 2-.9 2s-.4-.9-.4-2 .4-2 .9-2 .7.9.4 2m6.4 2.2c-.3.8-.6.5-.6-.6-.1-1.1.2-1.7.5-1.3.3.3.4 1.2.1 1.9m2.5 0c-.7.7-1.2.8-1.2.2 0-1.4 1.2-2.6 1.9-1.9.2.3-.1 1.1-.7 1.7m3.8.3c0 .8-.4 1.5-1 1.5-.5 0-1-.7-1-1.5s.5-1.5 1-1.5c.6 0 1 .7 1 1.5m3.7 1.2c-.4.3-1 .3-1.4 0-.3-.4 0-.7.7-.7s1 .3.7.7M254.7 585.6c-1 6.1-.8 18.2.3 18.9.6.4 8.6.9 17.8 1.2s21.7.8 27.7 1.2c6.1.5 16 .8 22 .7l11-.1.3-10.4c.1-5.9-.2-10.9-.7-11.4-.6-.6-11.5-1.3-24.3-1.8-12.8-.4-30.1-1.1-38.4-1.5l-15.1-.6zm43.9-.1c10.4.3 22.2.8 26.2 1.1l7.2.6v19.1l-15.2-.6c-8.4-.4-24.1-.9-34.8-1.2-28.6-.9-26 .2-26-11.2v-9.6l11.9.6c6.5.4 20.3.9 30.7 1.2"/><path d="M263.9 587.7c-1.8.4-3.9 4.3-3.9 7.2 0 4.9 7.2 7.4 8.3 2.9.7-2.4-2.6-6-4.8-5.2-.8.4-1.5.2-1.5-.4 0-1.7 2.7-3.3 4.4-2.6.9.3 1.6.2 1.6-.4 0-1.2-2-1.9-4.1-1.5m2.9 8.6c.4 2-2.5 3.4-4 1.9s-.1-4.4 1.9-4c1 .2 1.9 1.1 2.1 2.1M272.2 589.2c-2.1 2.7-2.3 7.4-.4 9.8 3.3 4.1 7.1 1.1 7.2-5.7 0-4-4.6-6.8-6.8-4.1m4.3 5.3c0 3.3-.3 4-2 4-2.2 0-3-2.4-2.1-6.1.5-1.7 1.2-2.4 2.4-2.2 1.3.2 1.7 1.3 1.7 4.3M289.4 590.5c-1.1.8-1.4 1.5-.6 1.5s1.2 1.6 1.2 4.5c0 2.5.5 4.5 1 4.5.6 0 1-2.7 1-6s-.1-6-.3-6-1.2.7-2.3 1.5M298.2 590.2c-.7.7-1.2 1.6-1.2 2.2s.5.5 1.2-.2c1.5-1.5 4.8-1.6 4.8 0 0 .6-1.6 2.6-3.6 4.4s-3.3 3.8-2.9 4.4c.8 1.3 7.5 1.3 7.5 0 0-.6-1.1-1-2.5-1-3.2 0-3.2-1.3 0-3 1.3-.7 2.7-2.2 3.1-3.2 1.1-3.7-3.6-6.4-6.4-3.6M309.3 589.6c-2.2.9-3.6 7-2.2 9.6 1.6 3.1 3 3.8 5 2.7 2.4-1.3 3.3-6.3 1.7-9.5-1.4-2.9-2.5-3.6-4.5-2.8m3.5 5.3c.4 3.7-1.2 6.3-3.4 5.4-1.8-.7-1.9-7.9-.1-8.6 2.2-.9 3.2-.1 3.5 3.2M317.6 589.9c.5.5 2 1.1 3.3 1.3 2.4.3 2.4.3-1.3 5.1-2 2.6-3.4 5.2-3.1 5.7.8 1.3 8.5 1.3 8.5 0 0-.6-1.3-1-3-1-1.6 0-3-.2-3-.5s1.6-2.7 3.5-5.3c1.9-2.7 3.2-5.2 2.8-5.5-.3-.4-2.4-.7-4.7-.7-2.4 0-3.6.4-3 .9M282 596c0 .5.5 1 1 1 .6 0 1-.5 1-1 0-.6-.4-1-1-1-.5 0-1 .4-1 1M730.6 588.8c-1.5.3-1.6 1.7-1.4 11.5l.3 11.2 39.3.3 39.2.2v-11c0-7.9-.4-11.2-1.2-11.5-1.5-.5-73.6-1.2-76.2-.7m75.4 11.7v9.5h-75v-19h75z"/><path d="M735.4 597.6c-2.6 6.2 1.6 12.6 5.7 8.8 1.1-1 1.9-2.3 1.9-3 0-1.9-3.1-4.6-4.6-4-1.6.6-1.9-2-.4-2.9.6-.4 1.7-.2 2.4.4 1.7 1.4 2.9.2 1.5-1.6-2.1-2.5-4.9-1.5-6.5 2.3m5.3 5c.3.8.1 2-.6 2.7-1.4 1.4-4.7-1.5-3.7-3.2 1-1.6 3.6-1.3 4.3.5M747.1 598.4c-3.7 5.4-3.8 5.6-.7 5.6 1.3 0 2.7.8 3.1 1.7.6 1.7.7 1.7 2.1-.1 1-1.4 1.1-2.3.3-3.3-.6-.7-.9-2.7-.7-4.3.7-4.7-.7-4.5-4.1.4m2.9 2.1c0 .9-.9 1.5-2.1 1.5-1.8 0-1.9-.2-.9-1.5.7-.8 1.6-1.5 2.1-1.5s.9.7.9 1.5M762.2 595.2c-.7.7-1.2 1.9-1.2 2.7.1 1.3.2 1.3 1.1-.2 1.4-2.3 3.9-2.2 3.9.3 0 1.1-.4 2-1 2-.5 0-1 .4-1 1 0 .5.7 1 1.5 1 2 0 1.9 2.9 0 3.6-.8.4-2.2.1-3-.6-.9-.7-1.8-1-2.2-.6-.7.7 2.6 3.5 4.2 3.6 2.7 0 3.8-2 3.7-6.6-.3-6.5-2.9-9.3-6-6.2M771.9 595.9c-2 1.6-2.2 2.2-1.2 4.4.7 1.6 2.2 2.7 3.7 2.9 2 .2 2.3.6 1.6 1.8-.8 1.3-1.3 1.3-3.1.2-1.6-1.1-2-1.1-1.7-.1.2.7 1.2 1.7 2.1 2.3 2 1.3 4.4-.7 4.7-3.9.8-7.7-1.9-11-6.1-7.6m4.7 4c-.4.6-1.6 1.1-2.7 1.1-2.1 0-2.7-3.5-.6-4.3 1.6-.6 4.1 1.8 3.3 3.2M782.6 599c-2.7 4-2.7 6.6 0 5.6.7-.3 1.8.3 2.4 1.2.8 1.5 1.1 1.5 2 .2.6-.8.8-2.4.5-3.5-.2-1.1-.5-3.2-.5-4.8 0-3.8-1.3-3.4-4.4 1.3m2.1 3.7c-.3.3-1.1.2-1.7-.2-.8-.5-.7-1.1.2-2.2 1.2-1.5 1.3-1.4 1.6.1.2 1 .1 2-.1 2.3M754.5 602c-.3.5.3 1 1.4 1 1.2 0 2.1-.5 2.1-1 0-.6-.6-1-1.4-1s-1.8.4-2.1 1M435 605.5c-1.6 1.9.3 4.5 3.1 4.5 1.1 0 1.9.4 1.9 1 0 .5-1.2 1-2.6 1s-2.3.4-1.9 1c1.2 1.9 4.5 1 5.5-1.5 1.9-5.1-2.8-9.8-6-6m4.6.6c1 1.7-1.3 3.6-2.7 2.2-1.2-1.2-.4-3.3 1.1-3.3.5 0 1.2.5 1.6 1.1M443.4 605.4c-.9 2.5.3 4.6 2.7 4.6 1.2 0 1.9.5 1.6 1.2-.2.7-1.5 1.2-2.8 1-1.7-.2-2.1 0-1.2.9 3 3 7.3-1.3 5.7-5.8-1.1-3.2-5-4.4-6-1.9m4.4 1.9c.2 1-.3 1.7-1.2 1.7-1.8 0-2.9-1.6-2.1-3.1.9-1.4 2.9-.6 3.3 1.4M451.9 604.7c0 .5-.2 2.3-.4 4.1-.4 4.1 1.8 6.6 4.5 5.2 1.5-.8 1.8-1.9 1.5-4.8-.2-2-.4-4-.4-4.5-.1-.4-1.2-.7-2.6-.7s-2.5.3-2.6.7m4.1 1.8c0 .8-.7 1.5-1.5 1.5-1.6 0-2-1.2-.8-2.3 1.1-1.2 2.3-.8 2.3.8m0 5.1c0 .9-.5 1.4-1.2 1.2-1.8-.6-2.1-2.8-.4-2.8.9 0 1.6.7 1.6 1.6M460.5 605.1c-2.2 3.4 0 10.5 2.9 9.6 3.5-1.1 3.1-6.7-.5-6.7-1.2 0-1.9-.5-1.6-1.3.2-.6 1.4-1.1 2.7-.9 1.4.2 2 0 1.6-.7-.9-1.4-4.3-1.4-5.1 0m3.5 5.9c0 2.1-1.5 2.7-2.5 1-.7-1.2.2-3 1.6-3 .5 0 .9.9.9 2M468 606.8c0 2.3.4 2.8 2.3 2.8 1.3-.1 2.2.5 2.2 1.4 0 1-.8 1.4-2.2 1.3-2.4-.3-3.2 1.2-1 2 2.1.8 4.7-1.3 4.7-3.8 0-1.5-.7-2.6-2-3-2.7-.8-2.5-2.3.3-2.8 1.6-.3 1.3-.5-1-.6-3-.1-3.3.2-3.3 2.7M481.2 605.2c-2.5 2.5-.7 9.8 2.3 9.8.9 0 2.3-1.2 3.3-2.8 1.7-2.7 3.6-3.3 6-1.9 2 1.3.2 2.9-2.6 2.2-2.2-.5-2.4-.4-1.3.9 1.7 2 3 2 5.2 0s1.4-4.2-2-5.6c-2.3-1-2.4-1.2-.6-1.6 3.4-.7 4.1-2.2 1.1-2.2-1.9 0-2.9.6-3.3 2-.3 1.1-.9 2-1.3 2-.5 0-1.2-.9-1.5-2-.7-2.2-3.5-2.6-5.3-.8m4.3 4.3c0 4.3-2.9 4-3.3-.3-.3-2.8 0-3.3 1.5-3 1.3.2 1.8 1.2 1.8 3.3M505.7 605.8c-3.2 3.5-1.6 9.2 2.4 9.2 2.4 0 3.2-1.6 2.5-4.6-.4-1.5-1.3-2.4-2.7-2.4-1.1 0-1.7-.4-1.4-1 .4-.6 1.6-.8 2.8-.4 1.9.6 2 .5.8-1-1.7-2.1-2.4-2-4.4.2m3.6 5.7c.1.5-.6 1.1-1.5 1.3-1.1.2-1.8-.3-1.8-1.3 0-1.7 3-1.8 3.3 0M513 609c0 5.5 1.1 6.7 5.5 5.6 2.1-.5 2.4-1.1 2.2-4.4-.3-5-1.3-6.2-4.8-6.2-2.8 0-2.9.1-2.9 5m5.5-2c.3.5-.3 1-1.4 1-1.2 0-2.1-.5-2.1-1 0-.6.6-1 1.4-1s1.8.4 2.1 1m.3 4.7c.2.8-.6 1.3-2.2 1.3-2.5 0-3.3-1-1.9-2.4 1-1 3.6-.3 4.1 1.1M498.1 605.9c-.9.6-1 1.1-.2 1.5.6.4 1.1 2 1.1 3.7 0 1.6.5 2.9 1 2.9.6 0 1-2 1-4.5 0-4.6-.4-5.1-2.9-3.6M293.7 608.7c-.4.3-.3 2.6 0 5.2.5 3.7 2.7 7.6 10.7 19.4 19.7 29 21.6 31.8 21.6 32.6 0 .4-4.4 3.8-9.7 7.4-25.8 17.4-26.9 18.3-25.9 22 .6 2.4 2.1 3.4 11.7 7.5 4 1.8 4.7 2.5 5.2 5.7.7 4.2 3.2 7.5 5.7 7.5.9 0 4.9-2.1 9-4.7 28.8-17.9 27.8-17.4 36-17.6 6.8-.2 8.2.1 15.3 3.6 4.3 2 8.2 3.7 8.5 3.7 2.5 0 20.4 8.8 24.2 11.9 2.5 2 9 7.1 14.6 11.3 8.6 6.4 11.2 7.8 17.4 9.3 8.2 2 13.3 1.3 24.4-3.2 3.5-1.5 6.8-2.2 8.5-1.9 6.5 1.4 10.1-7.2 6.4-15.6-4.5-10.1-13.3-16-18.8-12.4-1.4.9-2.5 2.3-2.5 3 0 1.3-8.6 5.6-11.2 5.6-1.5 0-7.4-3.5-9.5-5.6-.8-.8-2.4-1.9-3.5-2.5-1.8-1-8.7-5.9-12.8-9.2-.8-.7-5.3-4.1-10-7.6-10.5-7.9-16-13.4-16-15.8 0-1.6 8.2-14.9 10-16.3.3-.3 2-2.5 3.7-5 2.1-3.1 4.9-5.5 8.8-7.5 7.9-4.2 8.9-5.5 8.1-10.9-.8-5.1-1.7-6.1-4.4-4.7-1.3.7-2.8.3-5.7-1.5-5-3-6.3-3-12 .1-4.8 2.6-10.5 5.8-18.2 10.1-6.1 3.4-30 17.2-33.5 19.3-12.6 7.6-17.4 10.6-17.8 11.1-.3.4-1.3.9-2.2 1.3-1.4.5-2.8-.8-6-5.6-2.3-3.4-4.7-6.7-5.2-7.3-1.7-1.8-18.9-27.4-21.4-31.8-1.6-2.9-2.1-5-1.7-7.3.5-3-.5-5-1.8-3.6M414.3 625c5.6 3.5 5.7 3.5 5.7 1.3 0-1.4.2-1.5 1.3-.4 1 1.1 1 1.4 0 1.8-.7.3-1.3 1-1.3 1.7s-1.1 1.8-2.5 2.4c-3.3 1.5-3.3 1.5-3.1-.5.3-3.9-5.5-2.1-20.4 6.4-17.1 9.8-61.2 36.7-66.5 40.6-1.1.9-1.8 1.8-1.5 2 .3.3 4.9-2.4 10.3-5.9s10.2-6.4 10.6-6.4c.5 0 1.1-.3 1.3-.8.3-.7 37.3-23.2 38.3-23.2.2 0 2.6-1.3 5.2-2.8 11-6.5 18.3-10.2 20-10.2 1.4.1 1.1.6-1.2 2.5-1.6 1.4-3.3 2.5-3.6 2.5-2 0-41.3 23-40.6 23.7.3.2 1.5-.1 2.7-.7 1.5-.8 2-.8 1.6-.1-1.2 1.9.8 1.2 5.7-1.9 2.6-1.7 5-3 5.2-3 .4 0 7-3.8 23.5-13.5 8.9-5.2 14.3-7.8 13.8-6.5-.2.7-4 3.1-8.3 5.4-14.6 7.7-37.2 21.1-50.3 29.8-4.1 2.6-7.5 4.8-7.7 4.8-.3 0-10.3 6.5-22.3 14.5-12.1 8-22.8 14.5-23.8 14.5-1.6 0-1.4-.3.6-1.3 6.3-3.3 46.9-31.1 46.5-31.8-.3-.4 0-1.1.6-1.5.8-.4.9-.3.5.4-1.1 1.8.3 1.4 5.2-1.4 3.4-2 4.1-2.9 3.1-3.6s-.9-.8.6-.4c1.1.3 3.1-.3 4.5-1.4 2.5-1.9 2.5-1.9-1.2-1.6-2.1.2-5.7 1.6-8 3.1-2.4 1.5-5.6 3.6-7.3 4.6-1.6 1-11.9 7.7-22.8 14.9-18 11.8-22.7 14.4-22.7 12.2 0-.4 3.5-2.9 7.6-5.7 4.2-2.7 7.2-5.1 6.5-5.3-1.4-.5-14 8.5-14.8 10.5-1.2 3.1 1.5 3.8 5.7 1.4 2.2-1.2 4-2 4-1.8 0 1.1-8.2 5.7-10 5.7-2.4 0-11.5-4.4-12.5-6-1.1-1.8 1.1-3.6 22.9-18.1 11.6-7.7 21.6-14.3 22.1-14.7 2.4-1.7 29.1-17.5 42-24.7 7.7-4.3 16.5-9.3 19.5-11.1 6.9-4.1 9.4-4.1 15.3-.4m8.7 6.4c0 .3-.4.8-1 1.1-.5.3-1 .1-1-.4 0-.6.5-1.1 1-1.1.6 0 1 .2 1 .4m-19.8 17.8c-7.5 10.3-11 15.4-11.6 17.6-.7 2.1 1.7 8.2 3.2 8.2.4 0 1.8 1 3.2 2.3 5.7 5.2 39.1 29.6 44 32.2 2.6 1.4 3.3 1.3 7.5-.5 2.6-1.1 5.9-2 7.3-2 5.4.1 11.2 7.6 11.2 14.7 0 4.2-.1 4.3-5.4 6.7-10.8 5-23.3 5.4-31.5 1.2-2.7-1.5-21.2-15.1-34.1-25.3-3-2.4-5.9-4.7-6.5-5.1-.5-.4-3.6-2.7-6.8-5.1l-5.7-4.3-13.3 1.1c-7.2.6-17.5 1.6-22.7 2.2s-11.1 1-13 .8c-3.4-.4-2.8-.9 14.5-12.2 23.8-15.6 32.4-21.1 37.1-23.6 5.9-3.2 14.3-8.1 19.4-11.2 6.7-4.1 7.5-3.5 3.2 2.3M374 657c0 .5-.5 1-1.1 1-.5 0-.7-.5-.4-1 .3-.6.8-1 1.1-1 .2 0 .4.4.4 1m-16 9.4c0 .3-.5.8-1.2 1.2s-.8.3-.4-.4c.7-1.2 1.6-1.6 1.6-.8m-6 4c0 .2-.7.7-1.6 1-.8.3-1.2.2-.9-.4.6-1 2.5-1.4 2.5-.6m-4 2c0 .3-.5.8-1.2 1.2s-.8.3-.4-.4c.7-1.2 1.6-1.6 1.6-.8m-3 2c0 .3-.5.8-1.2 1.2s-.8.3-.4-.4c.7-1.2 1.6-1.6 1.6-.8m-3.5 2.6c-.3.5-1.6 1.5-2.8 2.1-1.9.9-1.9.8.3-1 2.8-2.3 3.4-2.6 2.5-1.1m-5.9 3.9c-.3.5-2.3 1.9-4.3 3-3.5 2-3.6 2-1.3.1 1.4-1.1 3-2.4 3.5-2.9 1.3-1.3 2.8-1.4 2.1-.2m-8.6 5.5c0 .2-1.2 1.1-2.7 2-2.8 1.7-2.8 1.7-.4-.3 2.3-2.1 3.1-2.5 3.1-1.7m-6 4c0 .2-1.2 1.1-2.7 2-2.8 1.7-2.8 1.7-.4-.3 2.3-2.1 3.1-2.5 3.1-1.7m63.5 6.1c8.9 6.6 10 7.5 9.2 7.5s-10-3.6-14.2-5.5c-1.6-.7-4.9-2.1-7.2-3-5.3-2.1-4.7-3.5 1.5-3.5 4 0 5.6.7 10.7 4.5m-39.5-1.7c0 .4-4.9 3.8-10.9 7.4-10.9 6.5-10.9 6.5-11.5 3.6-.8-4-3-2.5-2.3 1.6.4 2.5.1 3.5-1.4 4.5-2.5 1.5-3.9.6-3.9-2.4 0-1.3-.7-3-1.5-3.9-2.2-2.2-1.9-2.9 3-6.4 3.6-2.5 5.6-3.2 9.8-3.3s14.7-1.1 18-1.8c.4 0 .7.3.7.7m124.5 9.3c3.6 3.2 6.7 8.9 7.9 14.5.5 2.3.2 3.7-1.3 5.5-2.1 2.4-2.1 2.4-1-.9 2.2-6.4-5.4-19-12.7-21.2-2.9-.8-2.9-.8.3-.9 2.3-.1 4.3.8 6.8 3m-3.4 1.9c6.1 5 9.9 15.6 6.7 18.8-2.1 2.1-2.8 1.3-2.8-2.7 0-5.7-3.7-12.1-8.7-15.2-1.8-1.2-3.3-2.5-3.3-3 0-1.9 4.7-.8 8.1 2.1m-153.3 1.5c2.4 5.3.7 9.4-2.2 5.3-2-2.8-2.1-7.8-.3-7.8.8 0 1.9 1.1 2.5 2.5"/><path d="M402.5 624.9c-.6.4-3.5 2.2-6.5 3.8-11.3 6.2-19.8 11.1-30 17.2-5.8 3.5-12 7.2-13.8 8.2-9.2 5.3-53.3 34.7-55.9 37.3-1.6 1.5 2.5.4 4.3-1.2 1-1 10.9-7.8 21.9-15 11-7.3 20.5-13.6 21.1-14 .5-.4 2.1-1.4 3.5-2.1 1.3-.8 7.6-4.6 13.9-8.5 6.3-3.8 13-7.7 14.8-8.8 3.9-2.2 9-5.1 14-8 2-1.1 6.2-3.4 9.2-5 6.3-3.4 8.1-4.8 5.9-4.8-.8 0-1.9.4-2.4.9M410.2 625.2c.5 1.5 6.6 5.3 7.4 4.6.2-.3-1.4-1.7-3.7-3.2s-3.9-2.2-3.7-1.4M383.5 672c-4.9 2-10.7 11.2-8.5 13.4.7.7 1 .3 1-1.3 0-3.6 2.9-7.7 7.2-10.1 4.9-2.8 5.2-4.1.3-2M476.8 610.7c.7.3 1.6.2 1.9-.1.4-.3-.2-.6-1.3-.5-1.1 0-1.4.3-.6.6M480 633c0 16.1 0 16.1-3.5 19.1-5.8 5.1-3.9 11.9 3.2 11.9 3.6 0 8.3-3.4 8.3-6 0-.9 1.6-3 3.5-4.4 1.9-1.5 3.5-3.1 3.5-3.7 0-1.9-3.2-2.2-6.6-.6-6.2 3-6.4 2.4-6.4-15.9 0-10.3-.4-16.4-1-16.4s-1 6-1 16m1.3 19.7c-.7.2-1.3 1.5-1.3 2.9 0 1.8.7 2.5 3.3 3.2 3.1.8 3.2.9 1 2.1-1.6.8-2.9.9-4.2.1-4-2.1-3.8-9.1.2-8.9 1.2 0 1.6.3 1 .6m8.7-.2c0 .3-.2.5-.5.5s-.5-.2-.5-.5.2-.5.5-.5.5.2.5.5m-3 1.5c0 .5-.4 1-1 1-.5 0-1-.5-1-1 0-.6.5-1 1-1 .6 0 1 .4 1 1m-3 2.6c0 .8-.4 1.2-1 .9-.5-.3-1-1-1-1.6 0-.5.5-.9 1-.9.6 0 1 .7 1 1.6m-7.3 2.9c.6 1.4.8 2.5.4 2.5-1.2 0-3.1-2.3-3.1-3.7 0-2.1 1.4-1.5 2.7 1.2M388 623c1.4.4 3.6.8 5 .9 2 .1 2.2-.1 1-.9-.8-.5-3.1-.9-5-.9-3.2.1-3.3.2-1 .9M508.5 641c-.3.6.4 1 1.7 1s2.9.5 3.6 1.2c.6.6 1.5.8 1.9.4 1-1-2.5-3.6-4.8-3.6-1 0-2.1.4-2.4 1M538.5 647.4c-18.4 9.7-38.1 21-39.2 22.5-.6.9-1.4 2.8-1.7 4.2s-1.7 3.7-3.2 5c-8.3 7.4-8.4 7.6-8.4 12.4 0 7.9 5.8 16.5 13.1 19.5 2.8 1.2 3.6 1.1 9.5-1.8 3.5-1.7 7-2.9 7.8-2.6s2.7 2.1 4.1 3.9c2.9 3.9 2.7 3.9 12.7-1.6 3.8-2.1 7.6-4 8.6-4.3 2.7-.9 6.5 9.9 7 19.6.5 9.3 2.2 10.5 2.2 1.5-.1-4.2-1-8.9-2.9-14.5-2.9-8.3-2.9-8.3-.8-9.5 1.2-.7 3.6-2 5.2-3 1.7-1 6.4-3.5 10.5-5.6s8.6-4.7 9.9-5.8c2.4-1.9 2.4-2.1.8-5.3-2-3.9-2.1-5.5-.6-11.2 3-11.6-10.4-27.2-19.7-22.9-3.2 1.4-3.4 1.4-3.4-.2 0-.8-.8-2.1-1.8-3-1.6-1.5-2.3-1.2-9.7 2.7m2.5 1.1c0 .3-.2.5-.5.5s-.5-.2-.5-.5.2-.5.5-.5.5.2.5.5m8.8 2.6c3.9 3.7 4 4.4.5 6.6-1.6.9-3 1.8-3.2 2-.3.2.5 1.3 1.6 2.6 1.2 1.2 3.1 4.1 4.3 6.5 1.9 3.5 2.6 4.2 4.4 3.6 2.8-.9 5.6-3.4 5.6-5.1 0-1.2.2-1.2 1.3-.1 2.9 3 5.7 7.8 5.7 9.8 0 1.1.7 3.4 1.5 5 1.5 2.9 1.5 3-2.2 5.3-4.7 2.9-13.2 7.6-24.3 13.5-4.7 2.4-10.9 5.7-13.8 7.3s-5.9 2.9-6.7 2.9c-1.5 0-2.5-2.2-2.5-5.6 0-2.3-5.7-11.3-7.2-11.4-.4 0-.6 2.3-.6 5.1.1 3.4-.3 5.4-1.3 6-2.3 1.4-2.6 1.1-3.1-3.5-.9-7.8-5.6-15.2-12.2-19.1-1.6-.9-1.6-1.2 0-4.4 1.6-3.1 1.8-3.3 2.5-1.5.8 2.3 5.9 6 5.9 4.4 0-.5-.9-1.5-2-2.2-3.4-2.2-2.6-6.1 1.8-8.5 2-1.2 10-5.6 17.7-9.8 7.7-4.3 15.6-8.8 17.5-10.1 4.5-3 4.9-2.9 8.8.7m16.3 2.8c4 4.4 6.5 11.6 5.5 15.6-.6 2.3-2.6 3.6-2.6 1.6 0-.9-8.6-11.5-14.3-17.5-3.3-3.6-2.2-4.9 3.8-4.2 3.1.3 4.8 1.4 7.6 4.5m-28.1-3.5c0 .2-.7.7-1.6 1-.8.3-1.2.2-.9-.4.6-1 2.5-1.4 2.5-.6m-4 2.1c0 .3-.2.5-.5.5s-.5-.2-.5-.5.2-.5.5-.5.5.2.5.5m-2 1c0 .3-.2.5-.5.5s-.5-.2-.5-.5.2-.5.5-.5.5.2.5.5m-4 2.5c-1.4 1.1-2.9 2-3.5 2-.5 0 .1-.9 1.5-2s3-2 3.5-2c.6 0-.1.9-1.5 2m-5.2 2.6c-1.3 1.3-16.2 9.4-16.5 9-.3-.2 3.3-2.5 7.9-5 8-4.4 9.8-5.2 8.6-4m35.4 2.1c2.5 2.2 2.3 4.9-.4 5.7-1.7.4-2.9-.2-4.6-2.2-2.2-2.5-2.2-2.7-.6-3.9 2.3-1.7 3.4-1.6 5.6.4m1.3 9c-1.1.7-2.2 1.3-2.7 1.3-1.4 0-.8-1.9.9-2.9 2.5-1.3 4-.1 1.8 1.6m-55-.7c-.3.5-1.2 1-1.8 1-.7 0-.6-.4.3-1 1.9-1.2 2.3-1.2 1.5 0m-4.8 16.9c4.4 3.7 8.3 11.2 8.3 16.1 0 6.9-2.9 8.7-9.1 5.4-6.2-3.2-11.7-16.2-9-21.3 1.5-2.7 6.7-2.8 9.8-.2m-9.7 12.6c0 .3-.2.5-.5.5s-.5-.2-.5-.5.2-.5.5-.5.5.2.5.5m31 7.1c0 1.7-1 1.7-3.2 0-1-.7-1.8-2.6-1.8-4.2.1-2.9.1-2.9 2.5-.1 1.4 1.5 2.5 3.5 2.5 4.3"/><path d="M536.5 654.4c-3.9 2.3-10.9 6.3-15.5 8.8-14.5 7.7-18.4 10.2-17.1 10.6.7.2 3.5-1 6.2-2.7 2.8-1.7 5.2-3.1 5.4-3.1s2.8-1.4 5.6-3.1c5.2-3 5.9-3 7.2.6.3.5.8.7 1.2.3s.2-1.5-.6-2.4c-1.6-2-.6-2.9 9.9-8.2 6.7-3.4 8.9-5.3 6-5.1-.7 0-4.5 2-8.3 4.3M545.3 667.2c-1.3.6-2.3 1.5-2.3 2 0 1.4 2.4.8 5-1.2 2.8-2.2 1.1-2.6-2.7-.8M531.6 670.4c.7 1.8 5 3.7 6.9 3 2.5-1 1.7-2.4-1.4-2.4-1.7 0-3.3-.5-3.6-1-.9-1.5-2.5-1.2-1.9.4M516.6 677.6c-.3.9-1.3 1.3-2.3 1s-2.7.1-3.7.9c-1.9 1.4-1.9 1.5 0 3.7 1 1.3 2.2 2.5 2.6 2.8s1.4 2.2 2.3 4.3c1.8 4.3 3 4.5 7.6 1.4 4.6-3 4.8-6.1.9-11.5-3.2-4.3-6.3-5.4-7.4-2.6m5.7 3.4c2.2 2.6 2.2 3.9 0 5.6-2.7 2-3.7 1.7-5.7-1.8-1.8-3-1.8-3.2-.1-4.5 2.6-1.8 3.8-1.6 5.8.7m1.3 8.6c-1.9 1.3-4.6 1.9-4.6.9 0-.8 5.5-3.4 6-2.8.3.2-.4 1.1-1.4 1.9"/><path d="M517.2 682.7c.2 1 1 1.8 1.8 1.8 2.2 0 1.8-2.9-.3-3.3-1.4-.3-1.8.1-1.5 1.5M545.2 689.2c-11.7 6.6-21 12.3-20.8 12.5.5.5 6-1.9 11.6-5.3 2.5-1.5 6.5-3.8 9-5.2 2.5-1.3 7.1-4 10.3-5.8 3.2-1.9 6.1-3.4 6.5-3.4 1.1 0 6.8-4.9 5.7-5-.5 0-10.6 5.5-22.3 12.2M554.2 662.6c.1.9.9 1.9 1.6 2.2.9.3 1.3-.2 1-1.4-.1-.9-.9-1.9-1.6-2.2-.9-.3-1.3.2-1 1.4M499 646c-1.4 1.1-2 2-1.3 2 1.8 0 6.3-2.2 6.3-3.2 0-1.4-2.4-.8-5 1.2M518 647.2c0 1.4 3.9 6.8 4 5.5 0-1.1-2.9-6.7-3.5-6.7-.3 0-.5.6-.5 1.2M758.8 654.5c-.5.5-.8 5.5-.8 11.1 0 5.7.3 10.5.8 10.7.4.3 18.4.8 40 1.2l39.2.7v-11c0-6.1-.4-11.3-.9-11.6-1.4-.9-77.5-1.9-78.3-1.1m55.5 2.2 21.7.6v19l-37.1-.6c-20.4-.4-37.5-.9-38-1.2-.5-.4-.9-4.6-.9-9.6V656h16.3c8.9 0 26 .3 38 .7"/><path d="M766 661.2c-2.3 2.5-2.5 4.6-.8 8.3 1.3 3 5.3 3.4 6.6.7 1.7-3.2-.8-6.6-4-5.6-2.2.7-2.3-.9-.3-2.6 1.2-1 1.8-1 3 0s1.5 1 1.5-.3c0-.8-.7-1.8-1.6-2.1-2.2-.8-2.1-.9-4.4 1.6m4.5 7.2c0 2.2-1.4 2.9-3.4 1.7-1.9-1.2-.6-4.3 1.6-3.9 1 .2 1.8 1.2 1.8 2.2M775 662.4c-2.2 4.2 1.1 11.3 4.6 9.9 4.4-1.7 3.5-12.3-1-12.3-1.4 0-2.8 1-3.6 2.4m5.8 3.1c.3 3.7-1.1 6-3.2 5.2-1.6-.6-2.3-6.7-.9-8.1 1.6-1.5 3.8 0 4.1 2.9M792.6 661.6c-1.7 1.2-1.7 1.4-.3 2 1.2.4 1.7 1.8 1.7 4.5 0 2.1.5 3.9 1 3.9 1.2 0 1.4-10.6.2-11.4-.4-.2-1.6.2-2.6 1M801.2 662c-1.6 2.6-1.5 7.2.1 9.5 1 1.3 2.1 1.6 4 1.1 2.2-.5 2.7-1.2 2.7-3.6 0-2.6-.5-3.1-3-3.7-1.6-.3-3-1.2-3-1.9 0-1.7 3.2-1.8 4.8-.2.7.7 1.2.8 1.2.2 0-1.5-2.2-3.4-4-3.4-.8 0-2.1.9-2.8 2m4.6 6.8c.3 1.7-.2 2.2-1.7 2.2q-2.1 0-2.1-1.8c0-3.8 3.3-4.1 3.8-.4M814 661c0 .5-.7 1-1.5 1s-1.5.4-1.5 1c0 .5.7 1 1.4 1 1.1 0 1.6 1.4 1.9 4.7.3 4 .4 3.7.5-2 .1-3.7 0-6.7-.3-6.7s-.5.4-.5 1M784.6 666.9c-.3.5 0 1.1.8 1.4 1.5.6 2.6-.1 2.6-1.5 0-1.1-2.7-1-3.4.1M170.3 657.6c-.2.6-.2 5.7-.1 11.5l.3 10.4 40.3.3 40.2.2v-11c0-7.9-.4-11.2-1.2-11.5-2.9-1.1-79.1-1-79.5.1m79.5 11.1.3 9.3H172v-19l38.8.2 38.7.3z"/><path d="M177.4 665.4c-1.4 2.9-1.5 3.9-.5 6.5 1.7 4 4.1 4.8 6.3 2.1s2.2-3.4.2-5.5c-1-.9-2.4-1.3-3.6-.9-1.6.5-1.9.2-1.6-1.3.3-1.3 1.2-1.7 3.2-1.6 3.3.2 3.1-2-.2-2.5-1.6-.3-2.6.5-3.8 3.2m5.3 5.2c.3.8.1 2-.6 2.7-1.4 1.4-4.7-1.5-3.7-3.2 1-1.6 3.6-1.3 4.3.5M189.1 666.3c-1.7 2.5-3.1 4.8-3.1 5.1s1.4.6 3 .6c2.2 0 3 .5 3 1.7 0 1.3.3 1.4 1.2.5 1.3-1.3 1.2-10.2-.1-11.5-.5-.5-2.3 1.2-4 3.6m2.9 1.7c0 1.1-.6 2-1.4 2-.9 0-1.2-.7-.9-2 .3-1.1.9-2 1.4-2s.9.9.9 2M204.2 663.2c-2.8 2.8-.2 8.8 3.3 7.4.9-.3 1.5 0 1.5.9 0 2-2 2.9-3.3 1.6-1.4-1.4-2.7-1.4-2.7-.1 0 .5.9 1.4 2 2 4.5 2.4 7.9-5.9 4.4-10.8-1.7-2.5-3.4-2.8-5.2-1m4.6 3.6c.3 1.6-.2 2.2-1.7 2.2-2.4 0-3.3-1.3-2.5-3.5.9-2.3 3.8-1.4 4.2 1.3M214.6 663.6c-.9.8-1.6 2-1.6 2.5 0 2.2 2.2 5 3.8 4.7.9-.1 1.7.2 1.7.7 0 .6-1 1-2.2 1-2.7-.1-3.1 2-.7 2.9 1 .4 2.5-.1 3.6-1.1 1.6-1.4 1.9-2.7 1.5-6.2-.6-5.7-3.1-7.5-6.1-4.5m4.4 1.9c1.5 1.8.5 3.5-2 3.5-1 0-2.2-.5-2.5-1-.7-1.1 1.2-4 2.5-4 .4 0 1.3.7 2 1.5M224.6 663.6c-2.9 2.9-1 7.4 3.1 7.4 2.5 0 2.6.1 1.1 1.7-1.4 1.3-2 1.4-3.2.3-1.3-1-1.6-1-1.6.3 0 4.3 5.6 2.9 6.8-1.6.9-3.4-.1-7.6-2.1-8.9-1.7-1.1-2.4-1-4.1.8m4.4 2c1.1 1.2 1.1 1.8-.2 3.1-1.9 1.8-3.8 1-3.8-1.6 0-3.3 2-4 4-1.5M237.7 662.8c-.5.7-4.7 11.5-4.7 11.9 0 .2.4.3.9.3s1.2-.9 1.6-2c.4-1.4 1.3-1.8 2.8-1.6 1.2.3 2.5.5 2.8.5.4.1 1 1.1 1.4 2.3.4 1.5.8 1.8 1.2 1 .3-.7-.5-3.3-1.6-5.7-1.2-2.5-2.1-4.9-2.1-5.4 0-1.3-1.7-2.3-2.3-1.3m2.3 5.8c0 .8-.7 1.4-1.5 1.4-1.5 0-2.1-2.1-.9-3.3 1-.9 2.4.2 2.4 1.9M197.5 670c-.3.5.3 1 1.5 1s1.8-.5 1.5-1c-.3-.6-1-1-1.5-1s-1.2.4-1.5 1M210.1 698.7l.4 16.8-6.4 10.7c-6.4 10.7-6.5 10.8-10.2 10.8-3.1 0-4.2.6-5.9 3-2.2 3.1-2.2 3.1.4 7 2.7 4.2 4.4 4.8 7.4 2.9 1.4-.9 3.2-.7 7.8 1 6.9 2.4 7.4 2.5 7.4 1.1 0-.5-2.5-2.6-5.5-4.6-5.2-3.5-5.5-3.9-5.5-7.8 0-3 .9-5.6 3-8.9 1.7-2.6 3-5 3-5.2s1.4-2.6 3-5.2c3-4.7 3-4.7 3-21.5 0-11.6-.3-16.8-1.1-16.8s-1 5-.8 16.7m-19.9 43.5c-1.3 2.6-1.7 2.9-2 1.5-.2-1 .2-2.4.8-3.2 2.2-2.6 2.9-1.6 1.2 1.7m8.5-1.6c.2.7-.8 1.5-2.3 1.8-2.3.6-2.6 1.1-2 3.7.5 2.7.3 3-1.7 2.7-2.9-.4-3.2-2.6-.7-6.6 1.5-2.4 2.7-3.2 4.2-3 1.2.2 2.3.8 2.5 1.4m-1.7 3.8c0 .3-.4.8-1 1.1-.5.3-1 .1-1-.4 0-.6.5-1.1 1-1.1.6 0 1 .2 1 .4m3 1.6c0 .5-.4 1-1 1-.5 0-1-.5-1-1 0-.6.5-1 1-1 .6 0 1 .4 1 1m1.7 2.7c-.4.3-.7 0-.7-.7s.3-1 .7-.7c.3.4.3 1 0 1.4m3.3.8c0 .3-.2.5-.5.5s-.5-.2-.5-.5.2-.5.5-.5.5.2.5.5M272 701.5c-1.8 1-2 1.4-.8 1.5 2.3 0 4.8-1.1 4.8-2.1 0-1.2-1.1-1.1-4 .6M277 701.7c0 .7 3.2 3.2 4.3 3.3 1.7 0 .5-1.8-1.8-2.8-1.4-.6-2.5-.9-2.5-.5M288.5 703.9c-.3.6-1.6 1.1-2.8 1.1-1.6 0-1.8.3-.9 1.2.7.7 1.2 2.8 1.2 4.7 0 3.3-.5 3.9-5.8 7.3-7.9 5.1-15.2 12.6-22.3 23-4.9 7.1-6.2 9.9-7 14.8-1 6.1 0 13 2.3 15.7.5.7.7 2.1.3 3.3-1.6 4.9 3 9 7.1 6.3 1.9-1.2 2.7-1 8.5 2.8 3.5 2.3 7.6 5.3 9.1 6.7 2.2 2 3.4 2.4 6.2 1.9l3.6-.6v25c0 15.9.4 24.9 1 24.9s1-9.2 1-25.7v-25.6l4-3.7c2.5-2.3 4-4.6 4-6.1 0-4-1.5-5.7-18-20.7-1.9-1.8-4.1-3.2-4.7-3.2-2.3 0-1.4-3 2.6-8.9 2.2-3.2 4.9-8.8 6.1-12.4 2.1-6.6 2.1-6.6 5.5-6 2.3.4 4.3 0 5.9-1.1 1.4-.9 3.2-1.6 4-1.6 3.6 0 3-11.6-.7-15.4-1.2-1.2-2.7-3.5-3.2-5.2-.7-2.1-1.8-3-3.7-3.2-1.4-.2-2.9.2-3.3.7m5.9 4.3c.5 2.7.2 3.6-1.5 5-3 2.5-3.9 2.2-3.9-1 0-2.8 2.4-7.2 3.9-7.2.5 0 1.1 1.5 1.5 3.2m-5.4-1.7c0 .3-.2.5-.5.5s-.5-.2-.5-.5.2-.5.5-.5.5.2.5.5m9 8.8c0 .7-2.3 2.3-5.1 3.7-2.9 1.4-6.6 4.3-8.4 6.5-4.1 5-12 17.4-14.7 23.1-2 3.9-2 4.4-.6 6.6 1.4 2.1 1.4 2.7.1 5.2-2 3.7-1.3 13.7 1.1 18.9 1 2.1 1.7 4 1.4 4.2-.2.3-2.1-.7-4.2-2.1-3.7-2.5-3.8-2.7-3.4-7.9.3-5.2.3-5.2-2.7-4.3-7.6 2.5-8.1 2.1-9.9-6.5-.8-3.6.1-3.4 3.9 1 1.8 2.1 3.6 3.5 3.9 3.2.4-.4-.9-2.3-2.8-4.3-4.8-4.9-5.4-7.9-2.7-13 5.7-10.9 19-25.7 27.1-30.4 2.5-1.4 4.8-3.1 5.3-3.7.5-.7 1-.6 1.6.3.7 1.1 1.6 1 4.7-.6 4-2 5.4-2 5.4.1m0 3.5c0 .4-1 1.2-2.2 1.7-1.7.7-2.3 1.8-2.3 4.2 0 3-.3 3.3-3 3.3-2.3 0-2.7-.3-1.5-1 1.3-.8 1.3-1-.1-1-2.4 0-3.9 2.3-6.3 9.3-2.4 7.3-10.4 20.9-11.7 20.1-1.6-.9-.9-5.8 1.1-8.4 1.1-1.4 2-2.9 2-3.3 0-1 9.8-15.6 12.2-18.1 2-2.2 9.9-7.6 11.1-7.6.4 0 .7.3.7.8m1.7 1.9c-.4.3-.7 0-.7-.7s.3-1 .7-.7c.3.4.3 1 0 1.4m-2.7.8c0 .3-.2.5-.5.5s-.5-.2-.5-.5.2-.5.5-.5.5.2.5.5m2.7 3.2c-.4.3-.7 0-.7-.7s.3-1 .7-.7c.3.4.3 1 0 1.4m-5 1c-.4.3-.7 0-.7-.7s.3-1 .7-.7c.3.4.3 1 0 1.4M273 758.5c0 .3-.2.5-.5.5s-.5-.2-.5-.5.2-.5.5-.5.5.2.5.5m12.3 11c6.4 6.3 8.7 9.2 8.7 11.1 0 1.4.4 2.3 1 1.9.6-.3 1-.2 1 .4 0 1.6-1.8 2.2-2.3.9-.4-.9-.8-1-1.4-.3-1.9 2.5-7.3 5.5-9.7 5.5-3.1 0-6.2-4.4-10.2-14.3-2.8-7.2-2.6-9.6.5-5.6 1.6 2.1 15 10.9 16.6 10.9 1.7 0 0-1.8-3.2-3.5-9.9-5.1-16.1-11-14.9-14.1 1.3-3.4 5.3-1.3 13.9 7.1m-23 5.7c.7 2.6-1.7 5.8-4.5 5.8-2.3 0-2.4-3.7-.1-6.2 2.2-2.4 3.9-2.3 4.6.4m-7.1 1c-.7.7-1.2.8-1.2.2 0-1.4 1.2-2.6 1.9-1.9.2.3-.1 1.1-.7 1.7m34.8 12.3c0 .3-.2.5-.5.5s-.5-.2-.5-.5.2-.5.5-.5.5.2.5.5m-3 2c0 .3-.2.5-.5.5s-.5-.2-.5-.5.2-.5.5-.5.5.2.5.5m-2.3 1.1c-.3.3-1.2.4-1.9.1-.8-.3-.5-.6.6-.6 1.1-.1 1.7.2 1.3.5"/><path d="M290.7 709c-.3 1.3 0 2 .9 2 .8 0 1.4-.9 1.4-2s-.4-2-.9-2-1.1.9-1.4 2M258.3 777c-.1 1.1.2 2 .7 2 1 0 2-2.6 1.3-3.4-1.2-1.1-1.9-.6-2 1.4M266.5 706c-.3.5-.2 1 .4 1 .5 0 1.3-.5 1.6-1 .3-.6.2-1-.4-1-.5 0-1.3.4-1.6 1M261 712c-1.2 1.6-1.7 3-1.1 3 .5 0 1.9-1.4 3.1-3 1.2-1.7 1.7-3 1.1-3-.5 0-1.9 1.3-3.1 3M254.4 719.3c-3.6 4.1-3.8 5.3-.3 2 1.8-1.8 3.1-3.5 2.8-3.8-.3-.2-1.4.5-2.5 1.8M246 728.5c-1.3 1.4-2.1 2.7-1.8 3 .2.3 1.5-.6 2.8-2s2.1-2.7 1.8-3c-.2-.3-1.5.6-2.8 2M237.6 737.5c-3.5 4.6-1.9 4.6 1.7 0 1.5-1.9 2.4-3.5 1.9-3.5s-2.2 1.6-3.6 3.5M511.4 735.3c-.3.8-.3 5.6-.2 10.8l.3 9.4 7.5.6c4.1.3 21.9.7 39.6.8l32.1.2.7-6.2c.9-9.3.7-14.4-.6-15.7-1.8-1.8-78.7-1.7-79.4.1m78.1 10.2v9h-76l-.3-9.3-.3-9.2 38.3.2 38.3.3z"/><path d="M517.3 741c-3.1 4.9 0 11.5 4.7 10.3 4.1-1.1 2.7-7.3-1.6-7.3-1.6 0-2.4-.5-2.1-1.3.2-.6 1.6-1.1 3.1-1 3.4.2 3-2.1-.5-2.5-1.5-.2-2.8.4-3.6 1.8m4.7 6.5c0 2.5-2.3 3.5-3.5 1.5-1-1.6.2-4 2-4 .9 0 1.5.9 1.5 2.5M530 740c0 .5-.7 1-1.5 1s-1.5.4-1.5 1c0 .5.7 1 1.5 1 1.1 0 1.5 1.1 1.5 4 0 2.2.5 4 1 4 .6 0 1-2.7 1-6s-.4-6-1-6c-.5 0-1 .4-1 1M543 741c-1.2 2.3-.8 2.5 2 .8 1.5-1 2.2-1 3.2 0s.5 1.9-2.5 4.3c-2 1.7-3.7 3.4-3.7 3.9 0 1.3 7.1 2.3 8.3 1.1.8-.8.2-1.1-2.1-1.1-3.8 0-4.2-1.6-.8-3.2 3.1-1.3 3.9-3.3 2.6-5.9-1.4-2.5-5.6-2.5-7 .1M553.7 739.7c-.4.3-.7 1.8-.7 3.3 0 2.4.3 2.7 2.5 2.2 2.8-.5 4.5 2.2 2.6 4.1-.9.9-1.6.9-3.1-.1-1.1-.7-2.1-.8-2.5-.2-.8 1.3 3.3 3.2 5.5 2.5 4-1.3 3.5-7.1-.6-8.1-3.2-.8-3.1-2.4.1-2.4 1.4 0 2.5-.5 2.5-1 0-1.1-5.3-1.4-6.3-.3M563.2 741c-.7 1.1-.8 2-.3 2 .6 0 1.3-.5 1.6-1 .3-.6 1.3-1 2.1-1 1.7 0 1.9 2.7.2 3.3-.9.3-.7.9.7 2 1.6 1.3 1.8 1.8.7 2.9-1 1-1.6 1-3.3 0-2.5-1.6-3.7-.8-1.9 1.3 1.7 2 5.7 1.9 6.8-.3.5-.9.7-3.7.3-6.2-.5-3.9-1-4.5-3.1-4.8-1.6-.2-2.9.4-3.8 1.8M573.6 741.2c-2.2 3-2 6 .4 8.6 2.6 2.8 5.4 2.8 8 0 2.4-2.7 1.7-3.8-.9-1.4-3.7 3.3-8 .3-6.7-4.7.5-2.2 1.2-2.7 3.5-2.7 1.6 0 3.1.6 3.4 1.2.2.7.8 1 1.2.6 1.4-1.3-1.6-3.8-4.6-3.8-1.7 0-3.4.8-4.3 2.2M536.7 745.6c-.9 1 .2 2.4 1.9 2.4.8 0 1.4-.7 1.4-1.5 0-1.5-2.1-2.1-3.3-.9M230 745.5c-1.3 1.4-2.1 2.7-1.8 3 .2.3 1.7-.9 3.3-2.5 1.6-1.7 2.4-3 1.9-3-.6 0-2.1 1.1-3.4 2.5M222.8 753.6c-2.2 2.2-2.9 2.4-4.7 1.5-1.1-.7-2.1-.8-2.1-.3 0 .8 6.3 4.2 7.7 4.2.3 0 0-.6-.6-1.3-.8-1-.6-1.9 1-3.6 3-3.2 1.8-3.6-1.3-.5M316.4 752.5c-1.2.8-2.9 3.1-3.9 5.1-2.5 5.2-1.5 11.2 3.8 22.2 2.7 5.7 3.8 6.4 10.2 6.9 4.9.4 6 0 10-2.7 2.5-1.7 5.1-4 5.8-5.1 1.1-1.8 3.1-1.9 68.4-1.9H478v9.7c0 5.4-.3 14.2-.7 19.5l-.6 9.7-13.4.3c-18.3.4-18 2.2.5 2.6 10.8.2 14.4 0 14.7-1 .3-.7.6-5.4.7-10.3l.3-9 8.8-.3c5.3-.2 8.5-.7 8.2-1.2-.4-.6-2.5-1-4.8-1s-5.9-.3-7.9-.6c-3.8-.7-3.8-.7-3.8-10.5 0-9.9 0-9.9-3.7-9.9-6.4 0-126.6-.8-129.9-.9-2.4-.1-3.7-1-6.1-4.4-1.7-2.3-6.3-7.5-10.2-11.5-7.3-7.6-9.7-8.6-13.7-5.7m4.7 1.4c-.7.5-1.7 1.5-2.2 2.2-.6 1-.9.8-.9-.9 0-1.6.6-2.2 2.3-2.2 1.6 0 1.8.3.8.9m-3.7 16.6c.6 2.4.5 2.7-.4 1.2-.6-.9-1.3-5-1.5-9-.4-7.2-.4-7.2.4-1.2.5 3.3 1.2 7.3 1.5 9M323 757c-1.9 1.3-3 1.3-3 0 0-.6 1-1 2.3-1 1.8 0 1.9.2.7 1m3 3c0 .5-1.3 1-3 1-1.6 0-3-.5-3-1 0-.6 1.4-1 3-1 1.7 0 3 .4 3 1m-6.5 6.4c.6 3.8 5.1 13.4 7.7 16.7.7.9 2 1.8 2.8 2.2 1.3.5 1.3.6-.1.6-.9.1-2.5-.7-3.5-1.7-2.7-2.3-8-14.7-8.7-20.2-.7-5.3.7-3.3 1.8 2.4m-6.8-3.7c-.4.3-.7 0-.7-.7s.3-1 .7-.7c.3.4.3 1 0 1.4m16.7.2c.7 1-7.4 2.2-8.8 1.3-.6-.3 0-.9 1.4-1.3 3.6-1 6.8-1 7.4 0m4.1 1.1c.3.5.4 1 .1 1s-.8-.5-1.1-1c-.3-.6-.4-1-.1-1s.8.4 1.1 1m-19.8 3.2c-.3.8-.6.5-.6-.6-.1-1.1.2-1.7.5-1.3.3.3.4 1.2.1 1.9m18.3-1.3c0 .9-4.8 2.1-8.8 2.1-3.4 0-1.7-1.7 2.3-2.3 5.4-.7 6.5-.7 6.5.2m2.4 2.7c2.7 1 1.8 2.4-1.7 2.4-1.7 0-4.7.4-6.4.9-2.1.6-3.5.6-3.9 0-.9-1.6.3-2.3 5.4-3 2.6-.3 4.8-.7 4.9-.8.1 0 .8.2 1.7.5m-15.7 9.7c1.3 2.7 1.9 4.6 1.3 4.2-1.5-.9-6-10.5-5.9-12.5 0-.8.5-.4 1.1 1 .5 1.4 2.1 4.7 3.5 7.3m19.9-5.2c1.1 1.9-.9 2.8-7.8 3.5-5.9.6-6.8.5-6.8-.9 0-1.7 1.8-2.4 8-3 1.9-.2 4-.5 4.7-.5.6-.1 1.5.3 1.9.9m3.4 3.1c0 .9-.4 1.9-.9 2.2s-.9-1-.9-3.1c0-2.4.3-3.2.9-2.2.5.8.9 2.2.9 3.1m-23-1.7c0 .3-.2.5-.5.5s-.5-.2-.5-.5.2-.5.5-.5.5.2.5.5m16.6 5c-2.2 1.7-8.2 2-9.1.6-.5-1 2.5-1.7 8-1.9 2.8-.1 2.9-.1 1.1 1.3M231.5 762.9c.7 1.2 6.7 4.3 7.2 3.7.4-.4-3.5-3-6-3.9-1-.4-1.6-.3-1.2.2M244 769.5c0 .7 5.7 3.5 7.2 3.5.7 0-.2-.9-2-2-3.1-1.9-5.2-2.5-5.2-1.5M498 796.3v11.5l4.3.4c2.3.3 20.2.4 39.7.4l35.5-.1.3-11.3.3-11.2h-7.8c-4.3-.1-22.3-.3-40-.6l-32.3-.6zm54.3-8.3H576v19l-19.7-.4c-10.9-.2-28-.4-38-.5L500 806v-19.3l14.3.6c7.8.4 24.9.7 38 .7"/><path d="M505 792.5c-1.7 2.1-1.6 9.5.1 10.6 2.5 1.6 4.9.9 6.1-1.7 1.1-2.3 1-2.9-1.1-4.5-1.3-1-2.7-1.6-3.2-1.3s-.9-.2-.9-1.2c0-1.3.6-1.5 3.1-1 2.7.5 3 .4 1.9-.9-1.6-1.9-4.4-1.9-6 0m4.8 7.4c-.5 2.4-3.8 2.7-3.8.3 0-1 .3-2.1.6-2.5 1.1-1.1 3.5.5 3.2 2.2M515.3 792.2c-3.2 4.1-2.3 10.5 1.5 11.5 3.1.7 5.2-1.7 5.2-6.1-.1-5.3-4.2-8.6-6.7-5.4m4.2 5.3c0 4.5-2.8 6.3-4 2.5-1-3.3.3-7.2 2.3-6.8 1.3.2 1.7 1.3 1.7 4.3M532.5 792.6c-1.6 1.2-1.7 1.6-.6 2.4.8.4 1.5 2.3 1.5 4.2.2 6.1 2.1 4.5 2.4-2s-.1-7.1-3.3-4.6M541.2 793c-1.5 2.5-1.6 8.2 0 9.8 1.7 1.7 5.5 1.5 6.6-.4 1.5-2.7.2-5.5-2.9-6.1-3.2-.6-3.8-2-1.3-3 .9-.3 2 0 2.4.8.5.7 1.2 1 1.6.6 1-1-1.5-3.7-3.5-3.7-.9 0-2.2.9-2.9 2m4.6 7.2c-.2 1.3-1 2.3-1.8 2.3s-1.6-1-1.8-2.3c-.3-1.7.2-2.2 1.8-2.2s2.1.5 1.8 2.2M552.5 792.6c-1.6 1.2-1.7 1.6-.6 2.4.8.5 1.5 2.5 1.5 4.6.1 2 .7 3.9 1.4 4.1.9.4 1.2-1.3 1.2-6.1 0-3.6-.3-6.6-.7-6.6-.5 0-1.7.7-2.8 1.6M560 792c0 .5 1.4 1 3 1 1.7 0 3 .3 3 .6s-1.3 2.3-3 4.4c-1.6 2.1-3 4.3-3 4.9 0 .7 2 1.1 5.1 1.1s4.8-.4 4.4-1c-.3-.6-1.9-1-3.6-1-1.6 0-2.9-.3-2.9-.6s1.6-2.5 3.5-4.8c1.9-2.4 3.5-4.6 3.5-5 0-.3-2.2-.6-5-.6-2.7 0-5 .4-5 1M524 799c0 .5.9 1 2 1s2-.5 2-1c0-.6-.9-1-2-1s-2 .4-2 1M655.7 796.2c-.7 4-.1 17.3.8 18.7.7 1.2 61.7 1.6 72.4.5l6.2-.7-.3-10.6-.3-10.6-39.1-.3-39.2-.2zM733 804v9l-25.2.1c-13.9.1-30.8.3-37.5.5-9.2.3-12.3 0-12.4-.9-.5-4.1-.6-16.3-.2-17 .2-.4 17.3-.7 37.9-.7H733z"/><path d="M662.6 799.5c-3.7 3.7-2.5 11.5 1.8 11.5 2.4 0 4.6-1.7 4.6-3.6 0-2.2-3.1-4.5-5.1-3.9-1 .4-1.9.2-1.9-.3 0-1.7 2.7-3.3 4.4-2.6.9.3 1.6.2 1.6-.4 0-.5-.7-1.3-1.6-1.6-2.1-.8-2-.8-3.8.9m4.2 7.8c.2 1.2-.3 1.7-1.7 1.7-1.5 0-2.1-.6-2.1-2.1 0-2.5 3.3-2.2 3.8.4M673.3 802.1c-3.3 4.7-3.3 5.9-.2 5.9 1 0 2.2.7 2.7 1.6 1.5 2.7 2.1-.5 1.3-6.7l-.6-5.4zm2.7 2.4c0 .9-.9 1.5-2.1 1.5-1.8 0-1.9-.2-.9-1.5.7-.8 1.6-1.5 2.1-1.5s.9.7.9 1.5M686.5 799c-.6 1 .1 1.4 1.9 1.1 2.9-.6 3.4.9 1.5 4.6-2.1 4.1-2.4 6.3-.9 6.3.6 0 1-.8 1-1.8 0-.9.9-3.2 2-5 2.9-4.8 2.6-6.2-1.4-6.2-1.9 0-3.8.4-4.1 1M697.7 798.7c-.2.5-.7 2.1-1.1 3.6-.6 2.6-.5 2.8 2.1 2.5 2.3-.2 2.9.1 3.1 2.1.3 2.2.1 2.3-2.8 1.7-2.8-.5-3.1-.4-2 .9 1.8 2.1 4.6 1.9 6.4-.7s.5-5.8-2.4-5.8c-1.1 0-2-.7-2-1.5 0-.9 1-1.5 2.6-1.5 1.4 0 2.3-.4 1.9-1-.7-1.2-5.2-1.4-5.8-.3M708.6 799.9c-1.5 1.6-1.5 1.9-.1 2.4 1 .4 1.5 2 1.5 4.7 0 2.3.4 3.9.9 3.6 1.1-.7 1.2-11.4.1-12.1-.4-.2-1.5.4-2.4 1.4M681 806c0 .5.7 1 1.5 1s1.5-.5 1.5-1c0-.6-.7-1-1.5-1s-1.5.4-1.5 1M366.4 806.3c-.2.7-.3 6-.2 11.8l.3 10.4 39.5.6c21.7.3 40 .1 40.5-.3.6-.5 1.2-5.6 1.3-11.3.3-8.1.1-10.6-1-10.9-.7-.2-19-.7-40.6-1-31.9-.5-39.4-.3-39.8.7m69.9 2.5 9.8.4-.3 9.2c-.3 9.1-.3 9.1-4.5 9.1-2.4-.1-19.8-.2-38.8-.3L368 827v-19.1l29.3.2c16 .1 33.6.4 39 .7"/><path d="M374 812.9c-1.7 3.3-1.2 8.6 1 10.6 1.9 1.7 2.1 1.7 4 0 3.3-3 2-7.5-2.2-7.5-1 0-1.8-.7-1.8-1.5 0-1.8 3.1-2 4.8-.3.7.7 1.2.8 1.2.2 0-3.4-5.3-4.5-7-1.5m4.5 7.6c0 2.8-2.9 2.5-3.3-.3-.3-1.9 0-2.3 1.5-2 1 .2 1.8 1.2 1.8 2.3M387.5 812.3c-2.4 2.8-4.5 6.2-4.5 7.4 0 .7 1.1 1.3 2.5 1.3 1.6 0 2.5.6 2.5 1.5 0 2.1 1.7 1.9 2.2-.3.6-2.4-.2-11.2-1.1-11.2-.3.1-1.1.6-1.6 1.3m.5 4.7c0 1.1-.7 2-1.5 2-1.3 0-1.4-.4-.5-2 .6-1.1 1.3-2 1.5-2 .3 0 .5.9.5 2M400.8 812.1c-1 .5-1.8 1.7-1.8 2.6 0 1.4.3 1.4 2-.2 1.6-1.5 2.3-1.6 3.3-.6.9 1 .8 1.5-.6 2.6-1.8 1.3-1.8 1.4.2 2.4 1.2.7 1.8 1.7 1.5 2.6-.8 2-3.4 1.9-5.1-.3-1.3-1.6-1.4-1.6-1.1.2.4 2.8 3.4 4.4 5.6 3 1.2-.8 1.7-2.5 1.8-6 .1-6.8-1.7-8.8-5.8-6.3M410.6 812.6c-3 2.9-1.3 7.4 2.7 7.4 1.1 0 1.7.5 1.4 1.2-.2.7-1.6 1.2-3.1 1.1-2.3-.2-2.6 0-1.6 1.3 1.7 2 4.7 1.7 6-.5 2.3-4.3.4-12.1-3-12.1-.5 0-1.6.7-2.4 1.6m4.2 3.2c.3 1.7-.2 2.2-1.7 2.2q-2.1 0-2.1-1.8c0-3.8 3.3-4.1 3.8-.4M421.3 815.7c-3.4 5.3-3.4 6.3.2 6.3 1.4 0 2.5.7 2.7 1.7.4 1.6.5 1.6 1.4-.2 1.1-2.1.7-12.5-.5-12.5-.3 0-2 2.1-3.8 4.7m2.4 4c-.3.3-1.1.2-1.7-.2-.8-.5-.7-1.1.2-2.2 1.2-1.5 1.3-1.4 1.6.1.2 1 .1 2-.1 2.3M393 819c0 .5.9 1 2 1s2-.5 2-1c0-.6-.9-1-2-1s-2 .4-2 1M340.5 812.2c-1.1.7-2.7 1.2-3.6 1.3-.8.1-3.2 1.1-5.2 2.2-4.4 2.6-5.9 6.9-3.2 8.9 1.5 1.2 2.5 1 6.7-1.4 2.6-1.5 5-3.4 5.3-4.3.4-1.3 2.3-1.4 12.5-1.1 8.5.3 12 .1 12-.7 0-.7-2.8-1.2-7.7-1.2-4.3-.1-8.7-.3-9.8-.4s-2.9-.2-3.9-.3c-1.6-.2-1.7-.5-.8-1.4 2.6-2.6 1.1-3.6-2.3-1.6m-.5 4.1c0 1.3-2.1 3.6-4.7 5.1-2.2 1.2-1.5-2.2.9-4.4 2.5-2.3 3.8-2.6 3.8-.7m-7.9 3.9c-.9 2.5-3.1 3.6-3.1 1.6 0-1.5 1.9-3.8 3.2-3.8.4 0 .4 1-.1 2.2M692.9 817.7c0 .4 0 17.3.1 37.5.1 29.1-.1 36.8-1.2 37.7-.7.7-7.4 4.8-14.8 9.1-13.6 8.1-17.1 10.6-22.6 17-5.7 6.7-5.7 6.7-10.5.3-2.3-3.2-5.4-6.8-6.8-8-3.4-3.1-9.9-6.5-11.1-5.8-.5.3-2.8-.1-5.2-1-5.5-1.9-12.7-1.9-15.2 0-1.1.8-2.8 1.5-3.9 1.5-2.1 0-8.6 2.8-10.3 4.5-5.6 5.4-3.7 18.2 4.2 27.4 6.6 7.6 11.7 8.9 17.4 4.1 5.2-4.5 7-4 7 1.7 0 2.7.4 5.3.8 5.9 1.9 2.9 28.7 17.4 32.1 17.4 2.4 0 2.6-.1 29.8-16.4 18.8-11.3 21.4-13.1 22.5-16.2 1.2-3.4 1.2-3.4 2.5-.9 1.5 2.8 2.4 3 5.6 1.4 2.9-1.6 3.8-3 3.1-5.2-.4-1.2 0-1.7 1.3-1.7 1.5 0 15-7.3 22.3-12 .8-.5 3.6-2.1 6.1-3.4 9-4.8 10.5-6.8 12.8-16.5 1.2-4.9 2.1-9.5 2-10.2-.1-2.3-2 3.1-3.8 10.6-1.5 6.4-2 7.2-6.5 10.6-2.7 2.1-6.1 4.3-7.5 5.1-1.4.7-6.9 3.9-12.1 7-5.2 3.2-10.1 5.8-10.7 5.8-.9 0-1.3-1.9-1.3-6.2 0-3.4-.2-5.9-.6-5.6-.3.3-.5 3.3-.5 6.7-.1 5.3-.3 6.2-1.7 5.9-1.3-.2-1.8-1.6-2-5.3-.2-2.8-.7-5.4-1.3-6-1.6-1.6-1 8.9.7 13.1 1.5 3.5 1.5 3.9-.2 5.1-2.8 2-3.4 1.5-1.9-1.4 1.8-3.4.2-5.7-1.9-2.7-1.4 1.9-1.5 1.9-2.2 0-.5-1.3-.2-2.3.9-3.1 1.9-1.4 1.2-2.6-.9-1.8-1 .4-1.4-.3-1.4-2.5 0-1.7-.2-3.6-.5-4.4-.7-1.8 4.1-4.6 9.6-5.4 4.2-.7 7.8-2.6 23.6-12.1 4-2.3 7.7-4.3 8.3-4.3.5 0 1-.5 1-1 0-1.6-.7-1.3-11.9 5.1-5.8 3.4-11.9 6.9-13.6 7.8-1.6 1-5.6 2.3-8.7 3-5.3 1.1-8.3 3.1-12.3 8.1-.5.7-.9 5.2-.7 9.9.1 4.7-.1 9.1-.5 9.7-.7 1-10 6.9-18.3 11.6-1.9 1.1-7.3 4.3-12 7.1-14 8.2-14.9 8.7-17.9 8.7-1.5 0-3.4-.8-4.2-1.8-2.2-2.6-16.2-31.3-15.6-31.9.5-.4 3.7 1.6 16.5 10.7 4.3 3 6.9 3.9 5.7 2s-21.4-15-23.1-15c-1.2 0-1.4-.5-.8-1.8.4-.9.9-4 1.2-6.8.5-6.3 3.1-8.7 6.4-5.7 3.4 3 9.3 12.4 11.8 18.7 1.3 3.3 2.5 5.5 2.7 4.9s-.5-3.3-1.6-6.2c-1.2-2.8-1.6-5.1-1.1-5.1.6 0 4.2 2.1 8 4.7 3.9 2.5 7.3 4.3 7.6 4s-2.6-2.7-6.5-5.3-7.1-5.1-7.1-5.5c0-.5 2.7-3.6 5.9-7l5.9-6.1 4.9 2.8c2.6 1.6 7.9 4.8 11.7 7.1 3.8 2.4 7.2 4 7.5 3.6.3-.3 0-.8-.7-1-.7-.3-1.8-1-2.5-1.7-.6-.6-4.9-3.4-9.5-6.1-4.6-2.6-8.5-5.2-8.8-5.6-.2-.4.6-1.3 1.8-2 1.3-.6 9.9-5.6 19.1-11.1 12.7-7.6 17.4-9.9 19.1-9.4 1.3.3 6.9 3.3 12.5 6.7s10.4 6 10.7 5.7c.5-.6-2.2-2.5-8-5.7-5.6-3.2-10.6-6.6-10.6-7.2 0-.3 2.3-.9 5.1-1.2 2.9-.4 5.4-.9 5.7-1.2 2.7-2.7-15.9 0-21.7 3.1-2.4 1.3-4.5 2.4-4.7 2.4s-.4-16.4-.4-36.4c0-23.3-.4-36.7-1-37.1-.5-.3-1-.3-1.1.2m-72.6 88.5c2.1.6 5.2 2.5 6.8 4.1 2.6 2.5 2.9 3.6 2.9 8.8 0 3.4-.7 7.3-1.5 8.9-1.3 2.5-6.3 7-7.9 7-.3 0-.6-2.2-.6-4.9 0-7.2-5.7-19.1-9.2-19.1-.5 0-2-.7-3.4-1.6-5.5-3.7 3.7-6 12.9-3.2m12.7 6.2c-.8.8-1.6.5-3-1.4-2.9-3.7-2.4-4.4 1.1-1.9 2.3 1.6 2.8 2.4 1.9 3.3m-31.3-3.7c-.4.3-1 .3-1.4 0-.3-.4 0-.7.7-.7s1 .3.7.7m-5.4 5.4c-.7 3.5 1.1 9.8 4.3 14.9 2.7 4.3 5.1 6.6 8.7 7.9 3 1.2 3.5 2.8 1.2 3.7-4 1.6-12.5-5-15.6-12.1-3.7-8.4-3.4-17.5.6-17.5 1.1 0 1.3.8.8 3.1m8 .2c4.4 4 8.7 12.9 8.7 17.9 0 4.4-1.1 4.7-5.5 1.7-5.9-4.1-10.6-14.6-9.1-20.4.8-3.3 1.6-3.2 5.9.8m4.7-1.3c0 .5-.5 1-1.1 1-.5 0-.7-.5-.4-1 .3-.6.8-1 1.1-1 .2 0 .4.4.4 1m6.8 7c1.3 2.7 2.2 6.2 2.2 9.1 0 9-2.4 10.9-3.3 2.5-.3-2.9-1.7-7.6-3.1-10.4-3.2-6.2-3.2-6.4-.3-6 1.5.2 2.9 1.8 4.5 4.8m-18.1 16c2 2.3 5.1 4.9 6.7 5.6 1.7.7 2.5 1.3 1.8 1.4-2.4 0-7.1-3-9.6-6.3-3.2-4.1-6.6-11.6-6.5-14.2 0-1.1.9.5 2 3.6s3.6 7.5 5.6 9.9m106.6-5.5c-.7 4-.7 4-1.3-1-.4-2.8-.4-5.9-.2-7 1-3.6 2.3 3.6 1.5 8m-69 12c3.1 6.3 5.7 11.9 5.7 12.3 0 .7-6.4-6.1-10.7-11.6-2.4-3-4.3-4.1-4.3-2.5 0 .5 4 5.1 8.9 10.3s8.8 9.6 8.6 9.8c-.4.5-6.8-2.9-14.5-7.6-6.5-3.9-6.5-3.9-6.8-9.7-.3-5.4-.1-6 3-9.1 1.8-1.8 3.5-3.3 3.8-3.3.3-.1 3.1 5.1 6.3 11.4M825.5 824c-16.7 8.5-19.7 11.3-19.7 18.4 0 10.6 9.9 19.3 17.8 15.7 1.4-.6 2.9-1.1 3.4-1.1.6 0 1 10.7 1 27.5 0 17.7.4 27.5 1 27.5s1-10.1 1-28.3v-28.3l4.3-1.2c6.3-1.9 10.4-4.6 12.3-8.3 4-7.8 0-19.4-7.9-23-5.5-2.5-6.2-2.4-13.2 1.1m13.3.7c3.7 2.1 6.9 6.8 7.7 11.5 1.4 7.8-3.4 14.4-11.3 15.5-3.2.4-4.5 0-8.1-2.8-7.3-5.6-9.2-16-4-21.5 2.2-2.4 4.6-3.3 3.4-1.4-.3.5-.2 1 .2 1 2.1 0 3.2 3.8 2 6.9-.6 1.7-1.5 3.1-1.9 3.1-1.1 0-1-4.2.1-5.9 1-1.5-1.5-4.9-2.7-3.7-.3.4-.1 1 .5 1.4.9.6.8 1.7-.3 4.7l-1.5 4 .6-4.5c.4-2.8.2-4.1-.3-3.5-2.9 3.1-1.5 12.3 2.5 16.7 6.7 7.5 18.3 3.4 18.3-6.5 0-4.5-1.2-7.1-5.3-11.5-2.5-2.5-3.9-3.2-7-3.2-2.3 0-3.6-.4-3.2-1 1-1.6 7-1.2 10.3.7m-6.9 6.3c0 1-.3.8-.9-.5-1.2-2.7-1.2-4.3 0-2.5.5.8.9 2.2.9 3m4.1-3.5c0 .3-.2.5-.5.5s-.5-.2-.5-.5.2-.5.5-.5.5.2.5.5m2 3.5c1.8 1.8 2.7 4 1.6 4-.2 0-1.8-1.4-3.6-3-2.2-2.1-2.7-3-1.6-3 .9 0 2.5.9 3.6 2m-19 2.1c-1.3 4.5 2.1 13 6.8 16.9 2.5 2 3.1 3 2 3-1 0-3.4-1.7-5.5-3.8-2-2-4.4-3.6-5.3-3.4-1.2.2-1.2.1-.2-.6.9-.6 1.1-2 .7-4.6-.8-4.1.1-10.6 1.5-10.6.5 0 .5 1.3 0 3.1m-3-.1c0 .5-.9 1.4-2 2-2.8 1.5-2.7 5 .1 4.3 2-.6 2.1-.3 1.5 2.9-.8 4.4.1 6.8 2.4 6.8s4.5 2.6 3 3.5c-1.6 1-1.2 2.2 1.3 3 1.9.7 1.7.9-1.5 1.2-9 1-15.9-8.9-12.8-18.2 1.3-4 8-8.6 8-5.5m20.4 3.9c0 1.1.3 2.1.8 2.1.4 0 .8.4.8 1 0 1.7-1.4 1-3.3-1.5-1-1.4-1.5-3-1.2-3.6 1.1-1.7 3-.4 2.9 2m-4.4-.9c0 .5-.4 1-1 1-.5 0-1-.5-1-1 0-.6.5-1 1-1 .6 0 1 .4 1 1m10 0c0 .5-.7 1-1.6 1-.8 0-1.2-.5-.9-1 .3-.6 1-1 1.6-1 .5 0 .9.4.9 1m-2.1 6.2c-.7 1.3-1.4 1.8-1.6 1.1-.3-.7.1-2.2.8-3.5s1.4-1.8 1.6-1.1c.3.7-.1 2.2-.8 3.5m-13.2-2.5c-.4.3-1 .3-1.4 0-.3-.4 0-.7.7-.7s1 .3.7.7m5.9.2c-.4.5-.1 1.2.4 1.4.6.3.5.4-.2.3-1.5-.3-2.3-2.6-.8-2.6.6 0 .9.4.6.9m10.1 1.8c-.4.3-.7 0-.7-.7s.3-1 .7-.7c.3.4.3 1 0 1.4m-9.8 5.3c1.2 0 2.1.4 2.1 1 0 1.8-3.2 1-6.7-1.6-1.8-1.4-3.3-3.1-3.3-3.9s1.2-.1 2.9 1.6c1.6 1.6 3.9 2.9 5 2.9m-1.1-4.1c1.2 1.1 2.2 2.2 2.2 2.5 0 1.3-2 .5-4.7-1.9-3.3-2.9-1-3.5 2.5-.6m3.9.8c-.4.3-.7 0-.7-.7s.3-1 .7-.7c.3.4.3 1 0 1.4m5.3 1.8c-.7.9-1.5 1.3-1.8 1-.3-.2.1-1.1.8-2s1.5-1.3 1.8-1c.3.2-.1 1.1-.8 2m-4.3 1.2c-.4.3-.7 0-.7-.7s.3-1 .7-.7c.3.4.3 1 0 1.4m-12.7 6.8c0 .3-.2.5-.5.5s-.5-.2-.5-.5.2-.5.5-.5.5.2.5.5m2 2c0 .3-.2.5-.5.5s-.5-.2-.5-.5.2-.5.5-.5.5.2.5.5"/><path d="M768.1 841.5c-1.9.9-5.3 2.9-7.5 4.6-2.3 1.6-6.2 4.3-8.8 5.9s-6 4.7-7.5 6.9c-1.6 2.2-3.6 4.3-4.6 4.7-2.7.9-13.1 11.4-15.1 15.2-2.3 4.5-1.4 5.2 1.2.8 3-5.1 7-9.3 12.1-12.7 2.5-1.6 6.1-5.1 8.1-7.6 4.2-5.6 6.4-6.7 5.4-2.9-.4 1.6-.2 2.6.5 2.6.6 0 1.1-1.3 1.1-2.9s.6-3.3 1.3-3.9c1-.9 1.3.5 1.3 6.4 0 5.6-.3 6.9-.9 5-1.3-3.8-5-3.2-10.5 1.9-2.9 2.7-2.4 3.8 2.6 6.5 2 1.1 4.7 2.7 6 3.6 1.2.9 2.2 1.3 2.2.8s-2.5-2.5-5.5-4.4-5.5-3.8-5.5-4.2c0-1.1 5.7-4.8 7.4-4.8 1 0 2.2 2.2 3.5 6.6 1.8 5.7 1.9 6.9.7 9.2-.7 1.5-1.6 4-1.9 5.7-.3 1.6-.9 3.8-1.2 4.7-.4 1-.3 1.8.2 1.8.6 0 1.6-2.5 2.3-5.5.7-3.1 1.7-5.8 2.1-6.1.5-.3 1.9.2 3.1 1 2 1.3 2.6 1.3 4.2 0 2.7-1.9 5.6-1.8 5.6.3 0 1 .9 3.3 2 5 1.5 2.5 2.7 3.3 4.8 3.3 3.8 0 6.1-3.8 4.4-7.5-1.8-3.9-1.5-5 2.1-6.7 4.7-2.3 8.1-9.5 7.4-15.8-1.6-13.5-12.6-22-22.6-17.5m16 5.4c4.4 4.9 6.3 12 4.8 17.7-.6 2.2-1.6 4.3-2.1 4.9-.8.7-.9.4-.3-1 2.9-7.9-.2-17.8-7.5-23.4-4.2-3.2-4.3-3.4-1.5-2.7 1.7.3 4.6 2.4 6.6 4.5m-8.3-2.5c8.9 4.6 13 17.4 8.2 25.3-2.4 4-4.5 4.4-2.4.5 3.4-6.5 1-15.9-5.7-22.5-5-4.8-5-5.8-.1-3.3m-1.4 3.6c4.6 4 6.6 8.7 6.6 15.2 0 6.4-2.8 11.8-6.2 11.8-3.3 0-8.4-4-11-8.5-2.9-5.1-3.2-14.7-.5-18.8 2.4-3.7 6.6-3.6 11.1.3m-13.4 1.6c-2.6 6.7.4 19 5.5 22.8 1.4 1 3.3 2.5 4.2 3.3 1.7 1.3 1.6 1.4-.4.9-1.3-.3-3.3-.9-4.5-1.3-1.5-.4-1.9-.3-1.4.5.4.7.3 1.2-.3 1.2-.5 0-1.3-.5-1.6-1-.3-.6-1.4-1-2.4-1s-2.2-1.3-3-3.6c-1.3-3.6-.8-6.3.6-2.8.8 2.3 5.2 6.8 5.9 6.1.2-.2-.9-1.8-2.5-3.6-3.2-3.4-5.7-11.6-4.6-15.3 1.3-4.1 3.7-8.8 4.6-8.8.5 0 .4 1.2-.1 2.6m1.5 28.4c.3.5-.1 1-.9 1-.9 0-1.6-.5-1.6-1 0-.6.4-1 .9-1 .6 0 1.3.4 1.6 1m16.9 3.4c1.1 4.1-.7 7.2-3.6 6.1-1.5-.6-5.4-7.3-4.6-7.9 1.5-1 5.5-2.4 6.3-2.2.6.1 1.4 1.9 1.9 4"/><path d="M775.5 883c-.7 1.2.2 3 1.6 3 .5 0 .9-.9.9-2 0-2.1-1.5-2.7-2.5-1M252.3 844.6c-.2.6-.2 5.7-.1 11.5l.3 10.4 39.8.3 39.7.2v-21.9l-5.2-.5c-10.5-1.1-74-1.1-74.5 0m52.5 1.4H330v19h-76v-20.2l12.8.6c7 .3 24.1.5 38 .6"/><path d="M259.2 850.2c-1.7 1.7-1.5 9.3.3 10.8 3.2 2.6 8.1-1.3 5.9-4.8-.6-.9-2.1-1.8-3.3-2-1.1-.2-2.1-1-2.1-1.9 0-1.2.7-1.4 3.1-.9 2.7.5 3 .4 1.9-.9-1.5-1.8-4.2-1.9-5.8-.3m4.6 8c-.2 1.3-1 2.3-1.8 2.3s-1.6-1-1.8-2.3c-.3-1.7.2-2.2 1.8-2.2s2.1.5 1.8 2.2M269.7 850.8c-2 2.2-2.2 8.3-.5 10 .7.7 2 1.2 3 1.2 3.7 0 5.2-8.4 2-11.3-2.3-2.1-2.5-2.1-4.5.1m4.7 2.6c.7 2.8-.8 7.6-2.4 7.6-1.7 0-3.3-4.6-2.6-7.4.8-3.4 4.2-3.5 5-.2M286.6 851.1c-1.7 1.7-1.8 1.9-.3 1.9 1.3 0 1.7 1 1.7 4.6 0 2.7.4 4.3 1 3.9 1.2-.7 1.4-11.2.3-11.8-.5-.3-1.7.4-2.7 1.4M296.2 850.2c-.5.7-1.2 3.4-1.6 5.9-.6 4.1-.4 4.6 1.8 5.9 3.8 2 5.6 0 5.4-5.9-.2-4.8-1.2-7.1-3.3-7.1-.7 0-1.7.6-2.3 1.2m3.8 2.8c0 1.1-.6 2-1.4 2-1.8 0-2.9-1.6-2.1-3 1.1-1.8 3.5-1.1 3.5 1m.3 6.6c-.8 2.1-4.3 1.8-4.3-.5 0-1.1.6-2.1 1.3-2.4 1.7-.6 3.7 1.2 3 2.9M305.5 851c-1 1.1-1.3 2-.7 2 .7 0 1.2-.5 1.2-1 0-1.6 3.7-1.2 4.4.5.3.9-.8 2.4-2.9 4.1-1.9 1.4-3.5 3.2-3.5 3.9 0 1.3 5.6 2.9 7.1 1.9 1.8-1-.3-2.6-2.7-2-3.2.8-3.1-1.1.1-2.6 3-1.3 4.3-5.2 2.5-7.3-1.7-2-3.3-1.9-5.5.5M314.9 849.2c-.7 1.8-.4 11.6.3 12.5 1.2 1.5 7.4 1.7 8.3.4.3-.6-1.2-1.1-3.2-1.3-2.7-.2-3.9-.8-4.1-2.1-.3-1.4.4-1.7 3.2-1.7 4.5 0 4.8-1.8.4-2.2q-3.3-.3-3.6-2.1c-.3-1.4.4-1.7 3.7-1.7 2.3 0 4.1-.5 4.1-1 0-.8-8.8-1.5-9.1-.8M278.5 857c-.3.5.3 1 1.4 1 1.2 0 2.1-.5 2.1-1 0-.6-.6-1-1.4-1s-1.8.4-2.1 1M491.5 882.2c-.3.8-.4 5.9-.3 11.4l.3 9.9 14 .6c7.7.4 25.6.7 39.8.8l25.7.1.1-6.8c0-3.7.2-8.6.4-10.9.2-2.4 0-4.5-.3-4.7-.4-.2-18.4-.7-39.9-1.1-33.7-.6-39.4-.5-39.8.7m56 1.9c10.4.1 19.6.4 20.2.6.9.4 1.3 3.2 1.3 9.3v8.9l-36.7-.5c-20.3-.3-37.4-.7-38-.9-1.4-.5-1.9-16.6-.5-17.9.4-.5 8.4-.6 17.7-.2 9.4.3 25.5.6 36 .7"/><path d="M498.6 887.6c-3.1 3-1.3 12.4 2.4 12.4 1.5 0 4-3.1 4-4.9 0-2.2-1.9-4.1-4.2-4.1-1 0-1.8-.4-1.8-.9 0-1.7 2.1-2.3 3.6-1 .8.6 1.8.9 2.2.5.7-.7-2.4-3.6-3.9-3.6-.4 0-1.5.7-2.3 1.6m4.2 7.7c.2 1.2-.3 1.7-1.7 1.7-1.2 0-2.1-.6-2.1-1.3 0-3.1 3.2-3.4 3.8-.4M508.9 888.7c-1.1 1.3-1.1 1.7-.1 2 .7.3 1.2 2.1 1.2 4.4 0 2.1.5 3.9 1 3.9.6 0 1-2.7 1-6 0-6.2-.7-7.2-3.1-4.3M525.8 888.4c-2.2 1.6-2.3 2.6-.4 2.6 1.1 0 1.3 1 .9 3.9-.3 2.3-.1 4.1.6 4.5.8.5 1.1-1.3 1.1-5.8 0-3.6-.1-6.6-.2-6.6-.2 0-1.1.7-2 1.4M534 889.5c-2.1 5.4-.5 10.5 3.3 10.5 3 0 5.1-3.4 3.7-6-1.1-2-2.1-2.4-4.9-2.1-.7.2-1.1-.4-.8-1.1.2-.7 1.6-1.2 3.1-1.1 3.6.3 2.9-2.1-.7-2.5-2.1-.3-2.9.2-3.7 2.3m5.8 6.2c.5 1.7-2.6 2.9-4 1.5-.6-.6-.7-1.5-.3-2.2.9-1.4 3.7-.9 4.3.7M545.8 888.4c-2.2 1.6-2.3 2.6-.2 2.6 1.2 0 1.5.9 1.2 3.7-.2 2.1.2 4 .7 4.3.6.3 1.1-2 1.3-5.8.3-6.4-.1-7.1-3-4.8M517 894c0 .5.9 1 2.1 1 1.1 0 1.7-.5 1.4-1-.3-.6-1.3-1-2.1-1s-1.4.4-1.4 1M725 883.8c0 .5 1.5 1.5 3.3 2.3 1.7.7 4.9 2.4 6.9 3.7s4.3 2.2 5 2c.7-.3-1.7-2.1-5.2-4.1-7.9-4.4-10-5.2-10-3.9M765.6 887.3c-2 1.4-2.7 7.8-1 8.4.7.2.9-.8.6-2.6-.3-2.2.1-3.3 1.7-4.3 2.1-1.3 2.8-2.8 1.3-2.8-.5 0-1.6.6-2.6 1.3M730.3 891.7c.4.3 1 .3 1.4 0 .3-.4 0-.7-.7-.7s-1 .3-.7.7M381.2 893.8c-.4.9-.7 6-.7 11.2v9.5l23.5.7c12.9.5 31.2.7 40.5.5l17-.2.3-10.8c.2-8.1-.1-10.8-1-11.1-.7-.3-18.8-.7-40.1-1-35.7-.4-38.9-.3-39.5 1.2m59.1 1.2H460v18.7l-37.7-.4c-20.8-.2-38.4-.6-39-.8-1.4-.5-1.9-16.5-.5-18 .4-.4 9-.5 19.2-.1 10.2.3 27.4.6 38.3.6"/><path d="M389.1 898.4c-.7.8-1.5 3-1.8 4.9-.9 6 5 9.7 7.7 4.7 1.2-2.2-1.4-6-4.1-6-1 0-1.9-.5-1.9-1 0-1.7 2.9-2.3 4.5-1 1.8 1.5 2-.1.3-1.8-1.6-1.6-3.3-1.5-4.7.2m4.7 7.9c.3 1.2-.3 1.7-2.2 1.7-2.5 0-3.5-1.8-1.9-3.4 1.2-1.2 3.8-.2 4.1 1.7M399.8 901.4c-3.4 5.3-3.4 5.6-.3 5.6 1.6 0 2.5.6 2.5 1.5 0 .8.5 1.5 1 1.5.6 0 1-.7 1-1.5s.5-1.5 1.2-1.5c.9 0 .9-.3 0-1.2-.7-.7-1.2-2.9-1.2-5s-.3-3.8-.7-3.8c-.5 0-2 2-3.5 4.4m2.2 2.1c0 .8-.7 1.5-1.5 1.5-.9 0-1.2-.6-.9-1.5.4-.8 1-1.5 1.5-1.5s.9.7.9 1.5M415.3 898.5c-3.7 2.6-2.4 7.5 1.9 7.5 1 0 1.8.4 1.8.9 0 1.7-2.1 2.3-3.6 1-1.9-1.6-3-.4-1.4 1.6 2 2.4 4.8 1.8 6.5-1.5 2-3.9 1.9-5.4-.7-8.5-2.2-2.4-2.4-2.5-4.5-1m4.3 2.6c1 1.7-2.3 4.6-3.7 3.2-.7-.7-.9-1.9-.6-2.7.7-1.8 3.3-2.1 4.3-.5M423.8 900.5c-1.4 3.1.3 5.5 3.9 5.5 2.2 0 2.4.2 1.3 1.5-.8.9-2.1 1.3-3.3.9-1.4-.4-1.8-.2-1.5.7.6 1.9 3.6 2.3 5.3.9 1.8-1.5 2-9.1.3-10.8-2-2-4.8-1.4-6 1.3m6 1.8c.4 2-2.5 3.4-4 1.9s-.1-4.4 1.9-4c1 .2 1.9 1.1 2.1 2.1M434.6 899.6c-.9.8-1.6 2.1-1.6 2.8 0 2.2 3.5 4.7 5.5 4 1.3-.5 1.6-.3 1.3.7-.3.9-1.7 1.3-3.7 1.2-2.6-.1-3 .1-2 1.3 2.9 3.5 7.3.4 7.3-5.1 0-5.6-3.6-8.2-6.8-4.9m5.2 2.7c.4 2-2.5 3.4-4 1.9s-.1-4.4 1.9-4c1 .2 1.9 1.1 2.1 2.1M446.1 902.2c-2.8 6.5-3.3 8.8-2.2 8.8.5 0 1.3-.9 1.6-2 .9-2.7 4.8-2.6 6.8.2 1.2 1.8 1.6 1.9 1.6.7.1-2.3-4-11.9-5.1-11.9-.5 0-1.7 1.9-2.7 4.2m3.9 1.4c0 .8-.7 1.4-1.5 1.4-1.7 0-1.8-.2-.9-2.4.7-1.8 2.4-1.2 2.4 1M407.6 904.9c-.8 1.2 1.8 2.1 3.3 1.1 1-.5.8-.9-.4-1.4-2.1-.8-2.3-.8-2.9.3M765.4 902c.3 1.4.6 3.5.6 4.7 0 1.3.4 2.3.9 2.3 1.2 0 .2-7.1-1.2-8.5-.6-.7-.8-.2-.3 1.5M528 922.4c0 16.3 0 16.3-2.7 16.9-1.6.3-7.1 3.2-12.3 6.3-8.9 5.4-29.2 17.2-37 21.6-4.7 2.7-6.8 4.7-8.3 7.7-.7 1.4-2.2 2.7-3.5 2.9-1.2.2-2.2.8-2.2 1.3s1.1.7 2.4.3c2-.5 2.4-.1 3 2.7.3 1.7.6 5.6.6 8.6 0 7 3.7 14.4 9 18.1 2.1 1.5 4.7 4.5 5.6 6.6 1 2.1 3.1 4.7 4.7 5.7 3.3 1.9 5.8 1.4 13.5-2.8 3.2-1.8 4.6-2.1 6.1-1.3 1.1.5 3.2 1 4.6 1 1.7 0 2.5.5 2.3 1.2-.3.7.7 2.2 2 3.2 2.5 2 2.5 2 9.9-1.8 4.1-2.1 8.5-5.3 9.8-7 2.7-3.5 4.1-10.1 3.1-14.2-1-3.9-1.7-2.3-2 4.5-.2 5.2-.7 6.6-3.2 9.2-2.8 3-9.3 6.9-11.4 6.9-2.4 0-.7-2.1 2.1-2.7 4.5-.9 10.6-7 11.4-11.6.4-2 .4-4.5-.1-5.4-.5-1.3-.9-.5-1.4 2.9-.8 6.1-2 7.3-2 2 0-2.3-.4-4.2-1-4.2-.5 0-1 2.2-1 4.8 0 5.4-2.3 8.4-7.3 9.6-6.1 1.4-14.7-7.8-14.7-15.8 0-4.4 2.2-9.1 5-10.6 2.5-1.3 8.3.9 12.3 4.7 1.5 1.5 2.7 2.1 2.7 1.4 0-1.4-1.4-2.9-5-5.4-1.7-1.2-2-1.7-.9-1.7.9 0 3.3 1.1 5.4 2.5 2 1.5 3.9 2.4 4.2 2.2.6-.7-5.7-5.4-8.7-6.6-1.5-.6-1.8-1-.9-1 2.4-.1 7.2 2.5 9.8 5.3 2.4 2.5 2.4 2.5 5.2.6 2.3-1.7 3.2-1.8 5.6-.9 1.5.6 6.2 1.2 10.3 1.3 4.1.2 8.3.6 9.2 1 4.4 2 16-.9 20.6-5.2 1.4-1.2 2.9-2.2 3.3-2.2.5 0 .9-1.2.9-2.7 0-2.8-6.2-13.3-6.8-11.5-.2.6.8 2.8 2.2 4.9s2.6 4.7 2.5 5.8c0 1.8-.1 1.7-1-.4-.9-2.3-1-2.4-2.4-.5-1.6 2.2-2 4.8-.5 3.9.6-.3 1-.3 1 .2 0 1.3-9.6 6.3-12 6.3-2 0-1.9-.3 1.1-2.3 5.2-3.5 9-13.3 5.9-15.2-.6-.4-1 .9-1 3.2 0 2.1-.5 4.5-1 5.3-.7 1.1-1 .2-1-3.3 0-2.6-.5-4.7-1-4.7-.6 0-1 1-.9 2.2.5 5.1-.2 7.8-2.5 10.2-4.4 4.8-13.3 2.4-17.6-4.6-3.7-6.1-1.9-17.7 3-19.3 3.2-1 8.2.5 11.2 3.3 1.5 1.4 3.1 2.2 3.5 1.8.5-.4-.8-2.1-2.7-3.7s-2.8-2.9-2-2.9 2.8 1.1 4.4 2.5c3.4 2.9 4 3.1 3.2.9-.5-1.4-.4-1.5.9-.4.9.7 1.8 1 2.2.6.7-.7-2.8-4-6.8-6.3-1.4-.9-3.8-4.2-5.4-7.5-3.2-6.8-8.6-11.8-12.7-11.8-1.5 0-5.1 1.2-8.1 2.6-5.3 2.6-5.3 2.6-8.5-.5-3.3-3-3.3-3-3.9-19.1-.3-8.8-1-16-1.5-16-.4 0-.8 7.4-.8 16.4m5.4 20.2c.9.8 1.6 2.2 1.6 3 0 1.7-4.1 1.9-5.8.2-1.4-1.4-.6-1.8-27.2 13.9-25 14.9-24.7 14.6-26.5 18.9-1.7 4-4.2 4.5-5.1.8-1.2-4.9 1.2-7.6 12.9-14.3 1.8-1 7.3-4.2 12.2-7.1 5-2.9 11.9-7 15.5-9s8.1-4.6 10-5.8c4.1-2.6 10.2-2.9 12.4-.6m14.6-1.1c0 .3-.2.5-.5.5s-.5-.2-.5-.5.2-.5.5-.5.5.2.5.5m6.8 1.1c3.1 2.2 8.2 9.3 8.2 11.5 0 1.2-1.1 2-3.2 2.5-4.8 1-7.7 3.2-9.9 7.5-3.5 7-2.1 16.2 3.5 22.2 1.4 1.5 2.6 3.1 2.6 3.4s-2.6.3-5.7-.1c-5.8-.6-10.9-2.1-15-4.4-2.8-1.6-3.3-1.5-3.3.3 0 .8.9 1.5 1.9 1.5 2.3 0 3.6 1.6 2.1 2.5-.6.4-2.2-.2-3.6-1.2-8.3-5.9-14.7-6.9-20.4-3-8 5.3-9.4 13.6-4.2 23.7 1.8 3.5 3 6.5 2.7 6.8-.2.3-2.9-.7-5.9-2.2-4.7-2.3-5.8-2.5-8-1.5-1.9.9-3 .9-3.8.1-1.6-1.6-.3-4.1 2.7-5.2 1.5-.6 2.3-1.5 2-2.1-.5-.7-1.5-.5-3.1.5-1.3.9-2.5 1.6-2.8 1.6-.2 0-.7-2.1-1.1-4.7-.8-5.6-2.8-9.8-6.3-13.6-2.2-2.3-2.4-3-1.3-3.7 1.2-.7.9-1.4-1.1-3.9-1.4-1.6-2.9-2.7-3.2-2.4-.3.4-.6-.1-.6-1s6.1-5.2 16-11.1c8.8-5.3 16.3-9.6 16.7-9.6s1.4-.6 2.2-1.4c.9-.7 4.6-3 8.4-5 6.9-3.8 10.3-4 7.1-.5-2.3 2.6-1.1 2.4 4.2-.6 2.4-1.4 6.5-3.7 9-5.1 3-1.7 4.5-2.1 4.3-1.2-.4 3.2.2 4.8 2 4.8 2.9 0 4.7-2.8 3.3-5.1-1.6-2.5.3-2.6 3.6-.3m12.2 16.9c0 .3-.2.5-.5.5s-.5-.2-.5-.5.2-.5.5-.5.5.2.5.5m2 1c0 .3-.2.5-.5.5s-.5-.2-.5-.5.2-.5.5-.5.5.2.5.5m2 1c0 .3-.2.5-.5.5s-.5-.2-.5-.5.2-.5.5-.5.5.2.5.5m-92 20.3c0 1.3-1.2 2.2-2.2 1.6s-.1-2.4 1.3-2.4c.5 0 .9.4.9.8m1.2 5.3c3.6 2.6 7.8 9.1 7.8 12 0 2.1-.1 2.2-2 .4-1.1-1-3.1-4-4.5-6.8-2.6-5.3-3.5-4-1.1 1.6 1.7 3.8 5.9 8.7 7.5 8.7s1.3 3.6-.5 5.4c-3.7 3.7-10.9.1-15.3-7.7-2-3.7-3-13.5-1.4-15 1.4-1.4 6.6-.6 9.5 1.4m11.1 26c1.3 1.5 2.4 1.8 4 1.3 7.8-2.6 8.7.8 1.1 4.3-5.7 2.6-5.7 2.6-8.1-.3-4.3-5.5-1.5-10.6 3-5.3m26.7 5.1c0 1.7-2 1.7-2.9-.1-1.6-2.9-1.4-3.3.9-1.9 1.1.7 2 1.6 2 2"/><path d="M496.7 968c-12.1 3.8-13.4 7.2-3 8.3 4.7.5 6.4.2 9.5-1.5 4.4-2.5 4.7-3.7 1.6-6.5-2.3-2.1-2.4-2.1-8.1-.3m8.1 2.8c.6 1.8-4.6 3.8-6.1 2.3-.9-.9-.9-1.4.3-2.1 1.1-.7 1.7-.4 2.2.8.5 1.4.7 1.2.7-.6.1-2.4 2.1-2.6 2.9-.4m-9.8.2c-.8.5-1.9 1-2.5 1-.5 0-.3-.5.5-1s2-1 2.5-1c.6 0 .3.5-.5 1m1.3 2.7c-.7.2-2.1.2-3 0-1-.3-.4-.5 1.2-.5 1.7 0 2.4.2 1.8.5M535.7 972.7c-1.9 3.8-2.9 8.3-1.8 8.3 1 0 4.5-10 3.7-10.7-.2-.3-1.1.8-1.9 2.4M500.1 996.1c-1.3 3.9-1.4 5.9-.2 5.9.5 0 1.1-1.2 1.3-2.8.3-1.5.9-3.5 1.3-4.5s.3-1.7-.3-1.7-1.5 1.4-2.1 3.1M792.7 913.7c-1 .9-.9 21.1.1 21.6.4.3 18 .6 39.2.8l38.5.4.3-11.1.3-11.1-7.7-.7c-10.1-.8-69.9-.8-70.7.1m77.1 2.3c.8.1 0 18-.9 18.6-.6.3-17.7.3-38-.1l-36.9-.8v-19l37.8.6c20.7.4 37.8.6 38 .7"/><path d="M799.3 921.4c-1.3 2.9-1.4 3.9-.3 6.5 1.5 3.7 5.3 4.3 7 1 1.5-2.6-1.3-6.2-4.2-5.3q-1.8.45-1.8-.9c0-1.8 2.4-2.9 4.5-2.1.8.4 1.5.2 1.5-.4 0-1-2.3-2.2-4.1-2.2-.5 0-1.7 1.5-2.6 3.4m5.4 5.2c.3.8.1 2-.6 2.7-1.4 1.4-4.7-1.5-3.7-3.2 1-1.6 3.6-1.3 4.3.5M811.2 921.9c-3.8 5.3-3.9 6.1-.7 6.1 1.3 0 2.8.7 3.3 1.6 1.5 2.7 2.1-.5 1.3-6.7l-.6-5.4zm2.8 2.6c0 .9-.9 1.5-2.1 1.5-1.8 0-1.9-.2-.9-1.5.7-.8 1.6-1.5 2.1-1.5s.9.7.9 1.5M854.7 918.7c-.4.3-.7 3.2-.7 6.4 0 4.8.3 5.9 1.9 6.4 4.3 1.3 9.2-1.8 7.4-4.8-.4-.6-.6-2.4-.5-3.9.2-1.8-.4-3.1-1.7-3.8-2.2-1.1-5.4-1.3-6.4-.3m6.8 3.3c0 .9-1.1 1.6-2.7 1.8-2.3.3-2.8-.1-2.8-1.8s.5-2.1 2.8-1.8c1.6.2 2.7.9 2.7 1.8m.3 5.7c-.2 1.1-1.4 1.9-3.1 2.1-2.2.3-2.7-.1-2.7-1.7 0-1.7.6-2.1 3.1-2.1 2.4 0 3 .4 2.7 1.7M825.8 919.7c0 .4-.2 1.9-.4 3.3-.1 1.4-.4 3.3-.6 4.3-.2 1.1.6 2.5 1.9 3.4 2 1.3 2.3 1.3 4.3-.7 1.1-1.1 1.8-2.6 1.4-3.2s-.7-2.5-.8-4.2c-.1-2.6-.5-3.2-2.8-3.4-1.6-.2-2.9 0-3 .5m4.2 2.8c0 .8-.7 1.5-1.5 1.5s-1.5-.7-1.5-1.5.7-1.5 1.5-1.5 1.5.7 1.5 1.5m.4 4.1c.8 2-.1 3.4-2 3.4-2 0-3-3-1.3-4.1 2-1.2 2.6-1.1 3.3.7M836.6 920.3c-1.7 1.2-1.7 1.4-.2 2 1.1.4 1.6 1.9 1.6 4.7 0 2.2.5 4 1 4 .6 0 .9-2.5.8-6-.2-3.3-.6-6-.9-6s-1.3.6-2.3 1.3M844.8 922c-.4 2.7-.2 3 2.4 3 2.3 0 2.8.4 2.8 2.5 0 1.8-.5 2.5-1.9 2.5-1.1 0-2.1-.6-2.4-1.3-.2-.6-.8-.8-1.3-.4-1.5 1.4 2.5 3.7 4.9 2.8 4.1-1.5 2.9-8.1-1.4-8.1-1.1 0-1.9-.5-1.9-1 0-.6 1.1-1 2.4-1 1.4 0 2.8-.5 3.1-1 .4-.6-.8-1-2.8-1-3.1 0-3.5.3-3.9 3M818.5 926c-.3.5.3 1 1.4 1 1.2 0 2.1-.5 2.1-1 0-.6-.6-1-1.4-1s-1.8.4-2.1 1M767.4 916.3c.3 1 .6 3.4.6 5.3s.5 3.4 1.1 3.4c1.5 0 .5-7.8-1.2-9.4-.9-.8-1-.7-.5.7M420.6 917.7c-.3.3-.6 7-.6 14.8v14.1l-4.5 2.2c-8.5 4.1-6.7 10.9 3.3 11.9 4.3.4 5.1.2 5.6-1.4.4-1.1 2.3-2.4 4.9-3.1 10-2.8 9.7-6.4-.5-7.2l-6.1-.5.1-15.3c0-14.1-.5-17.2-2.2-15.5m-1 32.8c-2.4 1.8-1.5 5.8 1.6 7.3 2.3 1.1 2.3 1.1-.2 1.1-3.2.1-5-1.6-5-4.5 0-3.7 1.1-5.4 3.4-5.4 2 .1 2 .1.2 1.5m7.4 3.8c0 .5-.4.5-1 .2-.5-.3-1-1.4-1-2.3 0-1.5.2-1.5 1-.2.5.8 1 1.9 1 2.3m3-1.7c0 .8-.4 1.2-1 .9-.5-.3-1-1-1-1.6 0-.5.5-.9 1-.9.6 0 1 .7 1 1.6m2.7.1c-.4.3-.7 0-.7-.7s.3-1 .7-.7c.3.4.3 1 0 1.4m-18.3 1.5c1.1 4.1.8 5.2-.9 3.8-1.6-1.3-2.1-6-.6-6 .5 0 1.1 1 1.5 2.2m9.6-.6c0 .8-.4 1.2-1 .9-.5-.3-1-1-1-1.6 0-.5.5-.9 1-.9.6 0 1 .7 1 1.6m-3.3 1.1c-.4.3-.7 0-.7-.7s.3-1 .7-.7c.3.4.3 1 0 1.4M678.7 933c-9.2 5.5-17.1 10-17.6 10-.4 0-1.6.9-2.6 2s-1.3 2-.8 2c1.1 0 37.1-21.4 38.8-23.1 2.7-2.7-2.6.1-17.8 9.1M769 929.7c0 .9-1 2.7-2.2 4-2.6 2.8-.6 3.1 2.2.3 2.1-2.1 2.7-6 1-6-.5 0-1 .8-1 1.7M731.3 935c-2.7 1.6-3.3 2.6-3.3 5.5 0 3.7 2.1 5.7 7.3 6.9 2.7.6 2.8.9 2.6 5.9-.5 14.8.2 36 1.1 35.1.5-.5 1.1-10.3 1.2-22.8l.3-21.9 4-1.4c4.3-1.5 7.3-3.8 6.2-4.9-.4-.4-3.2-.9-6.2-1.2-3-.2-6-1.1-6.6-1.8-1.5-1.9-2.8-1.8-6.6.6m4.3 1.9c-2.2 2.4-1.3 6.1 1.5 6.1 1 0 1.9.4 1.9 1 0 1.4-4.3 1.3-5.8-.2-2.7-2.7-.8-8.8 2.7-8.8 1.1 0 1.1.4-.3 1.9m9.4 2.7c0 1.6-1.6 1.9-2.5.4-.8-1.3.4-3.2 1.6-2.5.5.4.9 1.3.9 2.1m-4 .5c0 .5-.4.9-1 .9-.5 0-1-.7-1-1.6 0-.8.5-1.2 1-.9.6.3 1 1 1 1.6m-10 2.4c0 .5-.5.3-1-.5s-1-2-1-2.5c0-.6.5-.3 1 .5s1 1.9 1 2.5m5.7-1.8c-.4.3-.7 0-.7-.7s.3-1 .7-.7c.3.4.3 1 0 1.4M754.8 936.7c-2 .5-2.4 2.3-.5 2.3.6-.1 2.6-.7 4.2-1.5 2.9-1.3 2.9-1.3.5-1.3-1.4 0-3.3.2-4.2.5M812.3 939.2c-1.9 2.4-2.2 4.8-1.2 7.8q2.4 6.9 2.4-3c.1-3.3 0-6-.1-6s-.6.6-1.1 1.2M815.7 938.6c-1.1 1.1-.8 9.4.3 9.4.6 0 1-1.2 1-2.8.1-2.7.1-2.7 2.3.1 1.3 1.5 2.6 2.4 3 2.1 1.1-1.1.8-8.4-.3-8.4-.5 0-1 1-1 2.2-.1 2.2-.1 2.2-2.3-.5-1.3-1.5-2.6-2.4-3-2.1M825.6 939.6c-2.9 2.9-1.1 8.4 2.7 8.4 3.1 0 4.7-1.8 4.7-5.2 0-4.2-4.5-6.2-7.4-3.2m5.2 2.8c.5 2.4-1 3.8-3.1 3-2-.7-2.3-4-.4-4.7 1.9-.8 3.2-.2 3.5 1.7M843.2 939.2c-1.8 1.8-1.4 3 .8 2.3 1.1-.4 2-.2 2 .4s-.9 1.6-2 2.3c-3.1 2-2.5 3.8 1.3 3.8 2.9-.1 3-.2 1.4-1.4-1.5-1.2-1.5-1.5-.2-2.6 2-1.6 1.9-4.6-.1-5.4s-1.8-.8-3.2.6M849.5 944.5c0 3.2.4 5.4 1 5.2s1-2.5 1-5.2-.4-5-1-5.2-1 2-1 5.2M835 947c0 .7.3 1 .7.7.3-.4.3-1 0-1.4-.4-.3-.7 0-.7.7M439.7 949.6c-.4.4-.4 1-.2 1.4.6 1 4.5 0 4.5-1.1 0-1-3.3-1.2-4.3-.3M446 949.9c0 .5.9 1.1 2 1.4s2.4 1.7 3 3.1c1.1 3.1 2 3.4 2 .6 0-1-1-2.8-2.2-4-2.2-2.1-4.8-2.7-4.8-1.1M653.5 951.2c-1.1 3.1-2.2 10.8-1.5 10.8.5 0 1.1-1.4 1.4-3 .3-1.7.9-4.4 1.2-6 .6-3-.2-4.2-1.1-1.8M204 953.8c-.6.2-1 5-1 11.2 0 10.8 0 10.8 2.8 11.4 1.5.2 19.6.6 40.2.8l37.5.3v-22l-29-.7c-15.9-.4-33.6-.8-39.3-1-5.6-.2-10.7-.2-11.2 0m41.5 2.7c17.6.4 33 .8 34.3 1.1 2.2.4 2.3.8 2 9.7-.2 6.1-.7 9.1-1.4 9-.6-.1-14.4-.5-30.5-.8-16.2-.3-33.1-.8-37.7-1.1l-8.3-.6.5-5.1c.3-2.9.5-7.2.5-9.6.1-4.4.1-4.4 4.4-3.7 2.3.3 18.6.8 36.2 1.1"/><path d="M210.4 961.6c-2.6 3.8-.9 9.8 2.8 10.2 3.8.4 5.7-3.1 3.2-5.9-1.1-1.2-2.6-1.8-3.7-1.5-1.3.3-1.7 0-1.5-1.2.3-1.2 1.3-1.6 3.2-1.5 2.3.2 2.6 0 1.6-1.3-1.8-2.1-3.7-1.7-5.6 1.2m5.4 6.5c.4 1.9-2.7 3.4-4.1 2s0-4.3 2-3.9c1 .2 1.9 1 2.1 1.9M222.3 962.9c-3.9 5.2-4 6.1-1.2 6.1 1.2 0 2.8.8 3.5 1.7 1.3 1.7 1.3 1.7 1.4 0 0-.9.5-1.7 1.1-1.7.8 0 .8-.4.1-1.3-.6-.7-1.2-3-1.4-5.2l-.3-4zm1.7 2.1c0 1.1-.7 2-1.5 2-1.3 0-1.4-.4-.5-2 .6-1.1 1.3-2 1.5-2 .3 0 .5.9.5 2M236 962c-1.8 3.5.7 6.6 4.9 6.1.7-.2 1.1.4.8 1.1-.2.7-1.6 1.2-3.1 1.1-3.1-.2-3.5 1.3-.6 2.2 4.2 1.3 7.1-4.5 4.9-9.7-1.4-3.4-5.3-3.9-6.9-.8m4.8.2c1.7 1.7 1.5 3.5-.5 4.2-2.2.9-3.6-.7-2.8-3.3.7-2.4 1.6-2.6 3.3-.9M247.4 960.8c-3.4 2.3-1.1 8.9 2.8 7.6 1.5-.4 1.9-.2 1.6.7-.3.8-1.7 1.3-3.2 1.2-3.2-.2-3.1 2 .1 2.5 2.4.4 5.3-3.1 5.3-6.3 0-2.5-2.7-6.5-4.3-6.5-.7 0-1.7.4-2.3.8m4.4 3.5c.4 2-2.5 3.4-4 1.9s-.1-4.4 1.9-4c1 .2 1.9 1.1 2.1 2.1M257.7 961.1c-1 .6-1.7 2.2-1.7 4 0 2.5.5 3 3 3.5 3.9.8 3.9 2.8 0 2.2-1.9-.3-2.9-.1-2.7.6.2.6 1.5 1.2 2.9 1.4 2.2.3 2.8-.2 3.8-3.2 1.9-5.8-1.2-10.8-5.3-8.5m4.1 3.2c.4 2-2.5 3.4-4 1.9s-.1-4.4 1.9-4c1 .2 1.9 1.1 2.1 2.1M267.7 966.2c-1.4 3.5-2.3 6.5-2 6.8s.7 0 1-.5c1-2.6 2-3.3 4.6-2.8 1.5.3 2.7 1.2 2.7 1.9 0 .8.5 1.4 1.1 1.4.7 0 .8-.7.4-1.8-.4-.9-1.1-2.8-1.5-4.2-1.5-5.3-2.3-7-3-7-.4 0-1.9 2.8-3.3 6.2m4.3-.2c0 1.1-.7 2-1.5 2-1.7 0-1.8-.2-.9-2.4.9-2.3 2.4-2 2.4.4M229.5 966.9c-.8 1.4 1 2.2 3 1.5 1.3-.5 1.4-.8.3-1.5-1.7-1.1-2.6-1.1-3.3 0M451 965.5c0 2.5.5 4.5 1 4.5.6 0 1-2 1-4.5s-.4-4.5-1-4.5c-.5 0-1 2-1 4.5M582 966c0 .5 1 1 2.3 1s2.8.5 3.5 1.2c.6.6 1.5.9 1.9.5 1-1.1-2.8-3.6-5.4-3.7-1.3 0-2.3.4-2.3 1M574.5 968.8c-4.1 2.1-1.3 2.8 3 .7 1.9-.9 3.5-1.8 3.5-2 0-1-3.6-.2-6.5 1.3M590.2 971.7c.2.5 1.2 2.7 2.2 5 1 2.4 2.2 4 2.7 3.8 1-.7-3.1-9.5-4.4-9.5-.5 0-.7.3-.5.7M564.8 973.2c-1.6.5-2.8 1.4-2.8 1.9 0 1.5 2.7 1 5.1-1.1 2.6-2.1 1.9-2.4-2.3-.8M452 975.7c0 2.8 4.3 5.8 6.7 4.8 1.5-.7 1.3-.9-1-1.4-1.6-.3-3.5-1.7-4.2-3.1-1.4-2.4-1.4-2.4-1.5-.3M561.5 980.1c-1.6 1.6-3.3 2.9-3.7 2.9-.5 0-.8.4-.8 1 0 1.8 1.5 1.1 6-3 2.5-2.2 3.8-3.9 3-3.9s-2.8 1.3-4.5 3M246 984.5c0 3.2.5 6.1 1.3 6.8.6.7 4.1 3.7 7.7 6.7s7 6 7.6 6.6c.7.6 2.7 2.3 4.5 3.8 2.8 2.4 3.1 3 2.1 4.7-2.9 4.6 0 8.4 7.1 9.6 2.7.4 3.7.1 4.9-1.5.9-1.4 3.5-2.6 7.3-3.4 3.2-.7 5.8-1.8 5.9-2.3.1-.6-2.4-1.3-5.5-1.6-3.6-.4-6.7-1.5-8.8-3-2.7-2-3.5-2.2-5.2-1.1-1.8 1.2-2.9.6-10.5-6-4.7-4-10.2-8.7-12.4-10.3-3.7-2.8-3.9-3.3-4-8.2 0-2.8-.4-5.5-1-5.8-.6-.4-1 1.5-1 5m33.4 27.4c.3.5-.3 1.1-1.4 1.4-2.8.7-2.8 5.7 0 5.7 1.1 0 2 .4 2 1 0 .5-1.3 1-3 1-2.5 0-3-.4-3.6-3.5-.4-2.2-.2-4.1.6-5 1.4-1.7 4.6-2 5.4-.6m-7.7 4.6c.1 1.9-.3 3.2-.8 2.9-1.1-.7-1.2-6.4-.1-6.4.4 0 .8 1.6.9 3.5m8.3 0c0 .8-.4 1.5-1 1.5-.5 0-1-.7-1-1.5s.5-1.5 1-1.5c.6 0 1 .7 1 1.5m4-.5c0 .5-.7 1-1.5 1s-1.5-.5-1.5-1c0-.6.7-1 1.5-1s1.5.4 1.5 1m3.7-.3c-.4.3-1 .3-1.4 0-.3-.4 0-.7.7-.7s1 .3.7.7M597 985.5c0 1.5 4.5 9.3 5.1 8.9 1-.6-3.1-9.4-4.3-9.4-.4 0-.8.2-.8.5M703.7 990.7c-1 .9-.8 19.5.1 21.1.7.9 9.3 1.2 39.8 1l38.9-.3v-22l-39.1-.3c-21.5-.1-39.3.1-39.7.5m77.1 11.2.3 9.4-34.8-.6c-19.1-.4-36.3-.7-38-.7-3.3 0-3.3 0-3.3-9.1v-9l37.8.3 37.7.3z"/><path d="M709.4 998.5c-1.2 3-1.3 4-.2 6.3 1.7 3.4 5.3 4.1 6.8 1.3 1.5-2.9-.3-6.1-3.5-6.1-1.8 0-2.3-.4-1.8-1.6.4-1.1 1.3-1.4 3-.9 1.8.4 2.4.2 2.1-.7-.3-.7-1.4-1.4-2.6-1.6-1.8-.3-2.6.5-3.8 3.3m5.4 5.2c-.5 2.6-3.8 2.9-3.8.4 0-1.5.6-2.1 2.1-2.1 1.4 0 1.9.5 1.7 1.7M721.6 998.7c-3.3 4.7-3.3 6.3-.1 6.3 1.4 0 2.5.4 2.5 1 0 1.6 1.7 1.2 2.4-.6.4-.9.1-2.3-.5-3-.6-.8-.8-2.5-.5-3.8 1-4-1.1-3.9-3.8.1m2.4 2.3c0 1.1-.7 2-1.5 2-1.7 0-1.8-.2-.9-2.4.9-2.3 2.4-2 2.4.4M735.3 997.6c-1.6 2.6-1.6 2.7.5 4.5 1.3 1 3 1.5 3.9 1.2 1.1-.4 1.4-.2 1.1.8-.3.8-1.6 1.3-3.2 1.1-1.4-.1-2.6.2-2.6.7 0 1.6 2 2.3 4.5 1.7 3.3-.8 4.4-6.5 2.1-10.1-2.1-3.2-4.1-3.2-6.3.1m5.2 1.8c0 2.2-1.4 2.9-3.4 1.7-1.9-1.2-.6-4.3 1.6-3.9 1 .2 1.8 1.2 1.8 2.2M745.6 997.2c-2.4 3.4-.1 6.5 4.3 5.9.7-.2 1.1.4.8 1.1-.2.7-1.6 1.2-3.1 1.1-3.2-.2-3.1 2 .1 2.5 4.6.7 7-6 3.7-10.6-1.9-2.8-3.9-2.8-5.8 0m5.2 2.1c.4 2-2.5 3.4-4 1.9s-.1-4.4 1.9-4c1 .2 1.9 1.1 2.1 2.1M755.6 997.1c-2 2.9-.5 5.9 3 5.9 1.6 0 2.4.5 2.1 1.2-.2.7-1.6 1.2-3.1 1.1-1.4-.1-2.6.2-2.6.7 0 1.5 2 2.2 4.4 1.6 2.9-.7 4.1-5.7 2.3-9.5-1.6-3.4-4.1-3.8-6.1-1m5.2 2.2c.4 2-2.5 3.4-4 1.9s-.1-4.4 1.9-4c1 .2 1.9 1.1 2.1 2.1M768.1 997.2c-.5 1.3-1.6 4-2.4 6-1.7 4.1-1.1 5.8 1 2.8 1.8-2.6 4.9-2.6 6.3.1 2.1 3.8 2 1.3-.1-4.9-2.2-6.6-3.4-7.6-4.8-4m2.9 3.8c0 1.1-.7 2-1.5 2-1.5 0-2.1-2.1-.8-3.3 1.2-1.3 2.3-.7 2.3 1.3M729.8 1003.2c.9.9 1.5.9 2.4 0s.7-1.2-1.2-1.2-2.1.3-1.2 1.2M382.5 992.6c-4.4 1.2-14.1 4.8-15.3 5.8-2.7 2-18.7 10.7-20.8 11.2-1.7.4-2.3 0-2.8-2-.7-3-2.6-3.3-6.2-1-2.1 1.4-2.5 2.4-2.2 5.7.3 4 .3 4-7.2 8.2-4.1 2.3-9.2 5.2-11.4 6.4-2.1 1.2-7.4 5.3-11.7 9-4.6 4-13.3 9.9-20.7 14-13.4 7.5-16.8 10.1-19 13.9-.7 1.3-1.5 7.4-1.9 13.5-.5 9.7-.3 11.5 1.1 12.9 2 2 2 3.2 0 8.3-1.4 3.8-1.4 4.7.5 12.9 2.1 9.5 1.6 8.7 14.8 22.2 5.1 5.3 5.1 5.3 12.4 5.1 5-.1 7.4.2 7.7 1.1.2.8-.9 1.2-3.7 1.2-2.3 0-4.1.4-4.1 1 0 .5 2.1 1 4.6 1 3.5 0 5 .5 6.3 2.2 1.3 1.6 2.4 1.9 4.4 1.4 3.3-.8 4.2-3.6 2.6-8.3-1-3-.9-3.8.3-4.7 1.5-1.2 1.7-2.1 2-11.9.1-5.3-.3-7.1-2.4-10.8-2.8-4.7-5.2-7.1-8.2-8.2-1.1-.4-1.7-1-1.4-1.3.8-.7 6 1.5 8.2 3.4 5 4.6 7.7 17.4 4.7 23-1.3 2.5-1.4 3.2-.3 3.2 1.6 0 3.2-5.1 3.2-10.4 0-8.9-4.1-16.1-11.1-19.6-2.1-1.1-3.9-2.7-3.9-3.4 0-.8 1-3.9 2.1-7 2.3-5.8 3-6.4 17.9-14.5 1.4-.7 5.5-4.8 9.3-9 5.9-6.8 8.3-8.6 19.8-15 9-5 13.8-7.1 15.3-6.7 1.1.3 14.6 13.1 30 28.6l27.9 28h9.4c6 0 9.2-.4 8.8-1-.3-.6-4.5-1-9.3-1h-8.7l-28.4-28.4c-32.3-32.3-30.6-28.1-14.8-36.4 10.3-5.5 12.6-5.8 22.2-3.2 4.4 1.2 13.1 3.4 19.3 4.8 10.3 2.4 11.8 2.5 18.2 1.4 3.9-.7 8.7-2.1 10.8-3.2 2-1 5.8-2.9 8.3-4 5.6-2.6 7.5-5.7 7.2-12.3-.4-9-9.6-20.9-17.1-22.2-3.3-.5-4.7-.2-8.9 2.4-2.8 1.7-6.1 3.1-7.5 3.1s-7.9-2.1-14.4-4.6c-11.1-4.3-12.6-4.6-22.9-5-6-.1-11.9-.1-13 .2m30.5 4.3c7.9 3.3 9.3 3.8 11.5 4.6 1.9.6 1.8.8-1.2 3.3-4.4 3.7-9.1 14.2-6.3 14.2.6 0 1-1 1-2.3 0-2.6 3.4-8.4 6.4-11 1.3-1.1 3.4-1.7 5.6-1.6 1.9.1 4.7-.2 6.3-.6 4-1.1 6.9 0 11.4 4.4 4.9 4.8 7.5 10 8.1 16.3.4 4.1.1 5-2.3 7.2-5.8 5.4-23.7 7.6-30.2 3.6-1.7-1-3.7-2.9-4.3-4-.6-1.2-1.4-1.9-1.7-1.7-.2.3.1 1.5.7 2.7 1.2 2.2 1.1 2.2-2.6 1.6-2.2-.4-7.8-1.9-12.6-3.2-9.8-2.8-11.3-2.7-20.8 2.2l-6.5 3.4-.3-5.5c-.3-6.3 0-6-14.9-14-5.1-2.8-9.4-5.4-9.6-5.9-.2-1 13.1-8.5 15.1-8.6.8 0 4.6 1.9 8.5 4.1 4 2.3 9.1 5.2 11.5 6.6 2.3 1.3 4.2 2 4.2 1.5s-4.8-3.5-10.7-6.8c-5.8-3.2-10.8-6.4-11-7-.4-1.3 2.7-2.7 10.7-4.9 8.4-2.3 26.9-1.5 34 1.4m38.4 2.1c7.7 2.9 14.6 16 13 24.7-.8 4.4-2.1 4.3-1.6-.2.9-7.3-5.5-19-12.8-23.3-3.7-2.2-2.9-2.9 1.4-1.2m-6.4 1.8c0 1.4-1.1 2.1-2.6 1.5-2.1-.8-1.7-2.3.6-2.3 1.1 0 2 .4 2 .8m4.5 1.2c.3.5.4 1 .1 1s-.8-.5-1.1-1c-.3-.6-.4-1-.1-1s.8.4 1.1 1m-1 2c.3.5-.1 1-.9 1-.9 0-1.6-.5-1.6-1 0-.6.4-1 .9-1 .6 0 1.3.4 1.6 1m3.5.5c0 .3-.2.5-.5.5s-.5-.2-.5-.5.2-.5.5-.5.5.2.5.5m5.5 5.7c2.9 4.4 4.3 11.5 3.1 16.2-1.1 4.3-3.1 3.1-3.2-1.8-.1-4.3-4.3-14.2-6.8-15.9-.8-.5-.7-1 .4-1.7 2.6-1.7 3.6-1.1 6.5 3.2m-114.5.9c1.3 3.9 1.3 4.2-1 5.9-1.4 1-2.8 1.6-3.2 1.4-1.4-.9-.9-4.2.7-4.8 1.7-.6 2-3.2.4-4.1-.6-.4-1.7.1-2.4 1.1-1.3 1.7-1.4 1.7-1.5.2 0-1.7 2.5-3.7 4.6-3.8.6 0 1.7 1.8 2.4 4.1m11.5 4c2.8 1.6 7.4 4.2 10.3 5.6 2.8 1.5 5.2 3 5.2 3.3 0 .8-4.6 3-6.3 3-.6 0-5.4 1.3-10.7 2.9-5.2 1.6-13.4 4.1-18.3 5.6-5 1.5-9.1 3.4-9.6 4.3-.5 1-1.4 4.2-2.1 7.2-2.3 9.9-1.7 9.7-13.8 3.3-5.9-3.1-10.9-5.8-11.1-5.9-.4-.4.9-1.7 8.1-7.7l5.6-4.8 5.7 3.2c3.1 1.7 5.8 2.9 6.1 2.6s-1.7-1.8-4.5-3.4c-2.8-1.5-5.1-3.1-5.1-3.5 0-.3 1.2-1.3 2.8-2.1 1.5-.7 4.3-2.3 6.2-3.4 14.2-8.3 14-8.2 14-5.8 0 2.2 1.5 1.9 6.3-1.2 5.4-3.5 5.4-3.5 4-4-.7-.3-1.3-.9-1.3-1.4 0-1.7 3.5-.8 8.5 2.2m18.5 16.8c0 5.9 0 5.9-6.2 9.4-3.5 1.9-8.4 4.6-11 6.1-2.7 1.4-6.9 3.8-9.5 5.2-2.7 1.4-5.2 3-5.7 3.5-.6.5-1.8.9-2.8.9-1.5 0-1.8-.9-1.8-5.4 0-4.9.3-5.6 2.8-6.9 5.4-2.9 24.8-13.5 29.2-16.1 2.5-1.4 4.6-2.6 4.8-2.6.1 0 .2 2.7.2 5.9m-10-2.5c0 .3-1.2 1.1-2.7 1.8-1.6.8-7.9 4.3-14.1 7.8l-11.3 6.3-2.9-2.8c-3.5-3.3-3.9-2.6-.9 1.6 2 2.9 2 2.9-2.7 8.4-6.7 7.7-7.5 7.5-5-1.7 3.2-11.5 3-11.1 7.2-12.4 2.1-.6 8.6-2.6 14.4-4.4 5.8-1.7 11.6-3.5 13-4 2.8-1 5-1.2 5-.6m-57 21c17 8.7 15.5 7.2 15.5 16.1v7.8l-7 3.8c-3.8 2.1-7.5 3.9-8.1 3.9-.7 0-1.4-2.4-1.6-5.7-.4-4.9-.9-6.1-3.8-8.4-1.8-1.5-5.3-3.8-7.9-5.1-2.5-1.3-4.8-2.5-5.1-2.8s-2.2-1.4-4.3-2.5c-2-1.1-3.6-2.4-3.4-2.9.4-1.3 13.8-8.6 15.7-8.6.9 0 5.4 2 10 4.4m29 3.9c0 5-.3 5.7-5.2 11.1-4.5 5.1-5.3 5.6-5.9 4-2-5.1-1-8.4 4.2-14.5 2.9-3.2 5.6-5.9 6-5.9.5 0 .9 2.4.9 5.3m-52.5 4.3c9.1 4.7 18.5 10.6 18.5 11.6 0 .5-1.8.7-4.2.3-7.4-1.1-30-2.1-30.4-1.3-.5.8 4 1.4 21.4 2.6 7.3.5 13.8 1.4 14.4 2s1.3 3.5 1.5 6.4c.5 5.3.5 5.3-1.6 2-1.8-2.7-2.7-3.2-5.9-3.2-2.2 0-8.8-.3-14.7-.7-6.7-.4-10.6-.3-10.2.3.3.5 2.9 1 5.9 1.1 12.2.5 22.9 1.6 23.4 2.5 1.6 2.6-2.1 3.3-16.7 3.3-14.9 0-14.9 0-14.9-2.7 0-1.5-.9-4.6-2.1-6.8-2.1-4-2.1-6.3.2-12 .8-2.1 8.1-7.9 9.9-8 .3 0 2.8 1.2 5.5 2.6m-14.5 27.1c0 2.9-.3 5.3-.6 5.3-1.9 0-3.3-4.1-3.3-9.5-.1-6-.1-6 1.9-3.5 1.4 1.7 2 4.1 2 7.7m34 2.5c0 3-1.5 5.2-2.8 4.4q-1.2-.6 0-3.6c1.2-3.5 2.8-4 2.8-.8m-5.1.2c1 1.1 1 2 .1 3.6-1.1 2.1-1.7 2.1-15.1 1.8-7.6-.2-13.9-.7-13.9-1.1s.7-1.9 1.6-3.2c1.6-2.4 2-2.5 13.9-2.5 9.4 0 12.5.3 13.4 1.4m2.1 8.2c0 1.4-.4 2.3-1 1.9-.5-.3-1-1.5-1-2.6 0-1 .5-1.9 1-1.9.6 0 1 1.2 1 2.6m-3.7.1c1.7 1 .3 2.2-6 5.3-8.2 4-10.1 5.5-11.8 9.7-2.1 5-4.4 4.5-9.1-2.2-4-5.8-4.5-7.1-3.1-9.7 2.8-5.3 2.1-5.1 16.1-4.3 7.2.4 13.4.9 13.9 1.2m2.9 6.3c10.6 3 16.4 17.7 10.6 27-2.4 4-3.5 2.7-1.8-2.4 2.4-7.5-5-21.3-12.5-23.2-1.4-.3-2.2-1-1.9-1.5.7-1.1 1.1-1.1 5.6.1m-.8 4.9c8.7 5.8 11.4 19.5 5 25.8-3.1 3.1-12-.5-15.8-6.5-6.1-9.4-3.4-24.4 4.2-22.6 1.5.4 4.5 1.9 6.6 3.3m-14.2.3c-.7.7-1.2 4-1.2 7.9 0 5.9.4 7.3 3.3 11.5 1.7 2.7 5 5.9 7.2 7.1 3.9 2.2 3.9 2.3 1.2 2.3-8.1 0-15.7-9.2-15.7-19.2 0-4.5 3-10.8 5.2-10.8.9 0 .9.3 0 1.2m-12.6 6.3c1 1.4 2.6 2.5 3.5 2.5 1.1 0 1.9 1.2 2.4 3.7.9 5 3.1 9.1 6.8 13 1.7 1.8 2.6 3.3 2 3.3-.5 0-4.6-3.8-8.9-8.5-7.4-8-10.4-13.4-10.4-18.5.1-1.6-.1-1.7 4.6 4.5m37.9 24.1c1.2 2.8 1.2 4 .3 5.1-1.9 2.3-5.2 1.1-6.9-2.7-1.7-3.4-1.6-3.5.4-4.7 3.5-2 4.6-1.5 6.2 2.3"/><path d="M390 1016.4c-5.1 1.7-15 6.9-15 7.8 0 1.2.4 1.1 6.2-2.1 10-5.4 11.9-5.6 20.5-2.6 4.1 1.4 8.8 3.2 10.4 4 3.3 1.7 3.9 1.8 3.9.6 0-.5-1.2-1.3-2.7-1.9-1.6-.5-6.4-2.4-10.8-4.1s-8.2-3.1-8.5-3-2.1.6-4 1.3M312.8 1065.3c-3.2 1.7-5.8 3.5-5.8 4 0 .7 12.6-5.5 13.9-6.9 1.6-1.5-3.4.2-8.1 2.9M304.3 1140.6c-.7 1.8 1.7 3.8 3 2.5.9-.9-.1-4.1-1.4-4.1-.5 0-1.2.7-1.6 1.6M538 994c0 .5.6 1 1.3 1s2.3.9 3.6 2.1c3 2.8 3.7 1.9 1-1.4-2-2.6-5.9-3.7-5.9-1.7M580 995.5c0 1.5.4 2.4 1 2 .6-.3 1-1.2 1-2s-.4-1.7-1-2c-.6-.4-1 .5-1 2M532.8 995.7c-2.1.8-3.8 1.9-3.8 2.4 0 1.2.1 1.2 4.4-.6 2-.8 3.6-2 3.6-2.5 0-1.2.4-1.3-4.2.7M520.7 1001.1c-2.2 1.1-3.6 2.3-3.3 2.6.8.8 8.6-2.7 8.6-3.9s-1.1-.9-5.3 1.3M578.9 1000.6c-1.2 1.4-1.1 1.6.5 1.3 1.1-.2 2.1-1 2.4-1.7.5-1.7-1.3-1.5-2.9.4M604 999.5c0 1.3 4.2 8.7 4.6 8.2.7-.6-2.9-8.7-3.8-8.7-.5 0-.8.2-.8.5M546.2 1003.7c.2.5 1.2 2.7 2.3 5 1.7 3.6 3.5 5.6 3.5 3.8 0-1.5-4.4-9.5-5.2-9.5-.5 0-.8.3-.6.7M571.9 1004.6c-1.2 1.5-1.1 1.6 1.1.9 3.5-1 4.9-2.5 2.3-2.5-1.1 0-2.7.7-3.4 1.6M514.3 1005.5c.4 1.3 7.7 1.9 7.7.7 0-.6-1.8-1.2-4-1.4-2.5-.2-3.9 0-3.7.7M564 1008.5c-1.6 1.9-.3 1.9 3 0 2.4-1.3 2.4-1.4.4-1.5-1.2 0-2.7.7-3.4 1.5M659.5 1012c-2.7 1.6-7.6 4.3-10.7 5.9-6.4 3.4-8.8 6.9-8.8 12.6 0 9.9 10.6 18 19 14.5 1.7-.7 3.3-1 3.6-.7 1.1 1.1 1.7 60.7.7 60.7s-5.1-2.9-8.7-6.2c-1-.9-6-4.9-11.2-9-5.1-4-9.3-7.8-9.4-8.3 0-.6 1.4-1.9 3-3 1.7-1.1 4-4 5.1-6.5 2-4.3 2.1-4.7.5-9.6-1.8-5.9-3.7-8.3-8.6-11.3-5.6-3.4-9.9-2.7-18.5 2.9-2.2 1.5-5.5 3.2-7.3 3.9-5.7 2.3-8.2 6.4-8.2 13.2 0 5.1-.3 5.9-1.9 5.9-1 0-2.4.7-3.1 1.5-1.5 1.8-1.2 1.8 2.8.4 2.9-1 3.3-.8 6.1 2.3 4.4 5 9 6.2 15.5 3.8 11-4 9.4-4.5 27.9 10.2l16.7 13.3v11.7c0 8.2.4 11.8 1.1 11.8.9 0 1.1-11.4.7-44.3l-.5-44.4 3.6-1.2c8.8-3 11.5-5.3 13.1-11 2.2-8.4-3.3-18.1-11.9-21-4.6-1.5-4.9-1.5-10.6 1.9m12.9.9c1.3.6 3.7 2.6 5.2 4.7 2.4 3.1 2.9 4.7 2.9 9.5 0 4.7-.5 6.2-2.4 8.3-1.4 1.4-2.8 2.6-3.3 2.6s0-1 1.1-2.1c8.2-8.8-2.3-26.3-13.1-21.8-1.7.7-3.9 2.6-4.9 4.3-1.6 2.6-1.9 2.8-1.9 1 0-2.3 3.3-5.8 7-7.3 2.5-1 5-.8 9.4.8m-9 8.6c-.5 2.1-.3 2.4 1.1 1.9 1.9-.8 3.5 1 3.5 3.8 0 2.4-1.6 2.3-2.3-.2-.4-1.4-1.4-2-3.2-2-2.8 0-2.9-.5-.9-5.5.7-1.8.6-1.8-.9-.6-.9.7-1.8 2.5-1.8 4-.2 2.2-.2 2.3-.6.4-.2-1.2.3-3.3 1.2-4.7 1.5-2.2 1.9-2.4 3.1-1.1.9.9 1.2 2.3.8 4m8.2-2.4c1.9 2.1 1.9 2.1-.9.8-1.5-.7-2.7-1.6-2.7-2.1 0-1.4 1.6-.9 3.6 1.3m-17.8 4.2c-.1 6.1 1.8 10.4 6.2 14.1 3.8 3.1 1.5 3.6-2.5.4-4.5-3.5-7-12.7-4.9-18.2 1-2.6 1.2-1.9 1.2 3.7m-3.4-3.4c.3.4-.4 1.9-1.5 3.2-1.9 2.2-1.9 2.4-.3 3.6 1.1.8 1.4 2 1.1 3.5-.7 2.8.3 4.6 3.4 6.2 1.3.6 2.5 2.2 2.7 3.4.2 1.5 1 2.2 2.5 2.2 1.8 0 1.9.2.7 1-.8.5-3.3 1-5.4 1-3.3 0-4.5-.7-7.8-4-3.4-3.7-3.8-4.6-3.8-9.3 0-5.4 1.6-8.4 5.5-10.5 2.5-1.4 2.3-1.4 2.9-.3m5.3 4.3c-.3.8-.6.5-.6-.6-.1-1.1.2-1.7.5-1.3.3.3.4 1.2.1 1.9m16.1.1c.2 1-.3 1.7-1.2 1.7-1 0-1.6-.9-1.6-2.1 0-2.4 2.3-2.1 2.8.4m3.9-.6c-.4.3-1 .3-1.4 0-.3-.4 0-.7.7-.7s1 .3.7.7m-1.1 6.9c-.3.8-1 1.4-1.5 1.4s-.4-1.3.2-3.1c.8-2.1 1.3-2.6 1.5-1.4.2.9.1 2.3-.2 3.1m-14.1 3.4c1.1 1.3 3.4 2.9 5 3.6 2.8 1.2 2.9 1.3.6 1.4-3.1 0-10.1-7.2-10-10.3.1-2 .1-2 1.2.5.7 1.4 2.1 3.6 3.2 4.8m.5-6.5c0 .3-.2.5-.5.5s-.5-.2-.5-.5.2-.5.5-.5.5.2.5.5m11 1c0 .3-.2.5-.5.5s-.5-.2-.5-.5.2-.5.5-.5.5.2.5.5m5.1 2.8c-.5 1.4-1.5 2.8-2 3.2-1.5.8-1.4.4.5-3.4 1.9-3.7 2.9-3.6 1.5.2m-10.8-.4c1.5.8 2.7 1.8 2.7 2.3 0 1.1-3.9.1-5.7-1.4-1.4-1.1-1.8-3.2-.5-2.6.4.2 1.9 1 3.5 1.7m-.2 4.1c.8 0 2.1.5 2.9 1 1.2.8 1.1 1-.7 1-1.3 0-3.5-1.2-5.1-2.8-1.5-1.5-1.8-1.9-.7-1 1.2 1 2.8 1.8 3.6 1.8m4.9-3.5c0 .3-.2.5-.5.5s-.5-.2-.5-.5.2-.5.5-.5.5.2.5.5m1 3c0 .3-.2.5-.5.5s-.5-.2-.5-.5.2-.5.5-.5.5.2.5.5m.7 4.1c-.3.3-1.2.4-1.9.1-.8-.3-.5-.6.6-.6 1.1-.1 1.7.2 1.3.5m-38.2 14.6c5.9 3.9 8.7 12 6.1 18.1-1.9 4.7-6.8 7.7-12.4 7.7-3.5 0-4.9-.6-7.6-3.3-4.5-4.4-5.6-6.8-5.6-12.2 0-5.9 1.2-8 5.8-10.4 4.9-2.7 9.5-2.6 13.7.1m-26.1 8.9c-1.8 2-1.8 2.1 0 3.4 1.5 1.1 1.7 2.1 1.2 5-.6 3.1-.4 3.6 1.6 4.4 3 1.1 5.2 3.7 4.3 5.1-.4.6.1 1.7 1.1 2.5 1.8 1.3 1.7 1.4-.7 2-3.6.9-9.9-2.4-12.1-6.3-2-3.3-2.4-11.2-.8-14.2 1-2 6.1-5.2 6.9-4.4.2.2-.4 1.3-1.5 2.5m6.9 10.6c.9 1.7 2.9 4.1 4.3 5.2 1.5 1.2 2.2 2.1 1.6 2.1-2.2 0-8.1-7.1-9.2-10.9-.5-2.1-.7-5.4-.3-7.2.7-3.2.8-3.1 1.4 2.1.3 3 1.3 6.9 2.2 8.7m4.7 9.8c0 .3-.2.5-.5.5s-.5-.2-.5-.5.2-.5.5-.5.5.2.5.5"/><path d="M620.3 1055.4c-2.5 2.2-2.8 3.1-2.8 8.5.1 5 .5 6.5 2.5 8.7 5.8 6.1 12.9 6.8 17 1.7 2.8-3.6 3.3-6.3 2.1-11.1-2.4-8.8-12.7-13.1-18.8-7.8m10.7.1c0 .3-.2.5-.5.5s-.5-.2-.5-.5.2-.5.5-.5.5.2.5.5m-9 .9c0 .3-.5.8-1.2 1.2s-.8.3-.4-.4c.7-1.2 1.6-1.6 1.6-.8m1 5.7c-1.1 2.5-3 4-3 2.4 0-1.8 3.3-7.8 3.7-6.7.3.7 0 2.6-.7 4.3m9.2-3.4c1 .9 1.8 2.3 1.8 3.2 0 1.1-.4.9-1.6-.7-.8-1.2-2.2-2.2-3-2.2s-1.4-.5-1.4-1c0-1.5 2.1-1.2 4.2.7m3.6 1.8c-.3.3-.9-.2-1.2-1.2-.6-1.4-.5-1.5.5-.6.7.7 1 1.5.7 1.8m-8.8-1c0 .3-.2.5-.5.5s-.5-.2-.5-.5.2-.5.5-.5.5.2.5.5m4 4.6c0 2.4-2.3 2.1-2.8-.4-.2-1 .3-1.7 1.2-1.7 1 0 1.6.9 1.6 2.1m-3 4.1c0 1-.4 1.8-1 1.8-.5 0-1-.9-1-1.9 0-1.1-.3-2.8-.6-3.8-.6-1.6-.5-1.6.9.2.9 1.1 1.7 2.8 1.7 3.7m7.7-3.5c-.4.3-1 .3-1.4 0-.3-.4 0-.7.7-.7s1 .3.7.7m.9 7.9c-.9 1.3-2.2 2.4-2.8 2.4-.7 0-.5-.7.5-1.8.8-.9 1.9-3.1 2.3-4.7.8-2.7.9-2.8 1.2-.7.2 1.3-.4 3.4-1.2 4.8m-4.6-4.6c0 .5-.5 1-1.1 1-.5 0-.7-.5-.4-1 .3-.6.8-1 1.1-1 .2 0 .4.4.4 1m3.3 1c-.6 2.1-2.1 3.5-2.9 2.7-.6-.6 1.8-4.7 2.7-4.7.4 0 .5.9.2 2m-9.3 2c1.8 1.4 2.1 2 .9 2-.9 0-2.4-.9-3.4-2-2.3-2.6-.8-2.6 2.5 0m4 .5c0 .3-.2.5-.5.5s-.5-.2-.5-.5.2-.5.5-.5.5.2.5.5m1 2c0 .3-.2.5-.5.5s-.5-.2-.5-.5.2-.5.5-.5.5.2.5.5m-2.9 2.3c-.7.2-1.8-.1-2.3-.6-.8-.8-.4-.9 1.3-.5 1.3.4 1.8.8 1 1.1M325.1 1011.9c-.7.5-.9 1.1-.5 1.3 1.4.8 8.4-.3 8.4-1.3 0-1.1-6.1-1.1-7.9 0M557.3 1011.7c-2.1.8-1.5 2.2.7 1.6 1.1-.3 2-.9 2-1.4 0-1-.8-1-2.7-.2M611 1013c0 1.9 4.3 9.5 4.7 8.3.2-.6-.5-3-1.7-5.2-2-4.1-3-5-3-3.1M311 1014c0 1.2 3.7 1.2 6.5 0 1.5-.7 1-.9-2.2-.9-2.4-.1-4.3.3-4.3.9M297.5 1015c-.3.5-.1 1 .6 1s0 1.3-1.6 3c-4 4.2-1.4 3.8 2.8-.4 1.9-1.9 4.3-3.6 5.3-3.9 1.1-.3 0-.5-2.3-.6-2.3 0-4.5.3-4.8.9M545.5 1018c-.3.5.1 1 .9 1s1.8-.5 2.1-1c.3-.6-.1-1-.9-1s-1.8.4-2.1 1M554 1019.2c.1 1.9 4.9 10.5 4.9 8.8.1-1.8-3.6-10-4.4-10-.3 0-.5.6-.5 1.2M509.5 1021c-.3.5-.2 1 .4 1 .5 0 1.3-.5 1.6-1 .3-.6.2-1-.4-1-.5 0-1.3.4-1.6 1M538 1021.5c-3.3 1.9-1 1.9 2.6 0 1.6-.8 2.2-1.5 1.4-1.5-.8.1-2.6.7-4 1.5M508.7 1023.7c-.2.5-.1 1.9.4 3.3.7 2.3.7 2.3.8-.8s-.3-4-1.2-2.5M287 1028.5c-1.9 1.9-2.9 3.5-2.4 3.5.6 0 2.5-1.6 4.4-3.5s2.9-3.5 2.4-3.5c-.6 0-2.5 1.6-4.4 3.5M529 1026c-1.3.8-1.3 1 .2 1 .9 0 2-.5 2.3-1 .8-1.3-.5-1.3-2.5 0M618 1026.8c0 1.7 3.2 7.2 4.1 7.2.5 0 0-1.8-1.1-4-2-3.9-3-4.9-3-3.2M519.4 1030.5c-1 .8-1.4 1.5-.8 1.5.5 0 1.9-.7 3-1.5 1-.8 1.4-1.5.8-1.5-.5 0-1.9.7-3 1.5M509 1032.2c0 .9.3 2.3.6 3.1.5 1.3.9 1.3 3.5-.1 3.4-2 3.9-3.5.7-2.3-1.7.6-2.6.4-3.5-.8-1.1-1.5-1.2-1.5-1.3.1M562.1 1037c1 2.1 1.9 4.4 1.9 5 0 .5.5 1 1 1 .6 0 1-.2 1-.5 0-1.3-4.3-9.5-5-9.5-.5 0 0 1.8 1.1 4M276.9 1037.9c-1.9 1.6-3.2 3.1-2.9 3.4s2-.8 3.8-2.5c4.4-3.8 3.6-4.6-.9-.9M637.8 1038.1c-2.8 1.6-2.1 3 .7 1.7 1.4-.6 2.5-1.5 2.5-2 0-1.1-1.1-1-3.2.3M624 1038.7c0 1.7 3.5 4.3 5.8 4.3 1.2 0 2.2-.5 2.2-1 0-.6-1-1-2.2-1s-3-.7-4-1.7c-1-.9-1.8-1.2-1.8-.6M510 1041.5c0 1.5.4 2.4 1 2 .6-.3 1-1.2 1-2s-.4-1.7-1-2c-.6-.4-1 .5-1 2M266.5 1048c-2.2 2.2-3.5 4-2.9 4 1.3 0 7.9-6.8 7.3-7.5-.3-.2-2.3 1.3-4.4 3.5M479.9 1048.3c-1.9 1.2-3.5 3.2-3.7 4.4-.4 3 2.9 6 7.4 6.9 3.2.6 4 .3 5.6-1.5 1.4-1.8 2.4-2.1 5-1.6 1.8.3 4.2 1 5.3 1.5s7.4 2.5 14 4.4c17.3 5 31.6 9.2 42.8 12.7l9.7 3.1v6c0 3.7.4 5.7 1 5.3.6-.3 1-3.2 1-6.4 0-6.7.6-6.2-13-10.1-4.1-1.2-8.6-2.6-10-3.1-1.4-.4-9.5-2.9-18-5.3-8.5-2.5-18.9-5.6-23-6.9-7.4-2.4-7.5-2.5-4.8-3.7 3.7-1.7 2.8-2.7-3.1-3.5-2.9-.4-5.7-1.5-6.7-2.6-2.3-2.5-5.4-2.4-9.5.4m8.1.6c0 .5-.9 1.1-2 1.4-2.7.7-2.6 4.2.2 6.1 2.1 1.5 2.1 1.6.3 1.6-3.3 0-4.8-1.6-4.7-4.9 0-1.7.3-3.5.7-4.1.8-1.2 5.5-1.3 5.5-.1m-8 4.7c0 1.4-.4 2.3-1 1.9-.5-.3-1-1.5-1-2.6 0-1 .5-1.9 1-1.9.6 0 1 1.2 1 2.6m8 0c0 .8-.4 1.4-1 1.4-.5 0-1-.9-1-2.1 0-1.1.5-1.7 1-1.4.6.3 1 1.3 1 2.1m4-1.1c0 .8-.7 1.5-1.5 1.5-1.6 0-2-1.2-.8-2.3 1.1-1.2 2.3-.8 2.3.8m3 0c0 .3-.2.5-.5.5s-.5-.2-.5-.5.2-.5.5-.5.5.2.5.5M509.7 1048.2c-.8 3-.1 3.5 1.2.9.6-1.1.7-2.2.2-2.5s-1.1.4-1.4 1.6M568 1049.2c.1 1.8 4.9 10.6 5 9 0-1.5-3.8-10.2-4.5-10.2-.3 0-.5.6-.5 1.2"/><path d="M504 1052c0 .5.4 1 .9 1 .6 0 1.3-.5 1.6-1 .3-.6-.1-1-.9-1-.9 0-1.6.4-1.6 1M255.5 1058.5c-2.1 2-3.5 3.8-3.2 4.1s2.2-1.1 4.2-3.1c4.8-4.7 4-5.5-1-1M575 1064c0 1.7 3.4 9 4.2 9 1.2 0 1-.6-1.3-5.5-2.1-4.5-2.9-5.4-2.9-3.5M245 1068.5c-1.9 1.9-2.9 3.5-2.4 3.5.6 0 2.5-1.6 4.4-3.5s2.9-3.5 2.4-3.5c-.6 0-2.5 1.6-4.4 3.5M235.7 1077.7c-2.1 1.9-3.6 3.7-3.3 4 .2.3 2.1-1.2 4.1-3.2 4.8-4.7 4.1-5.4-.8-.8M582 1079.2c0 2.1 4.4 4.3 6.7 3.3 1.6-.8 1.5-.9-.7-1.3-1.4-.2-3.3-1.1-4.2-1.9-1.6-1.4-1.8-1.4-1.8-.1M343.5 1084c-2.7 1.6-7.4 4-10.2 5.4-10.8 5.1-12.4 16.4-3.5 24.9 3.9 3.8 8.5 4.4 15 1.9l5.2-2v19.4c0 12.3.4 19.4 1 19.4s1-7.2 1-19.5c0-17.8.2-19.6 1.8-20.1 10.2-3.3 14.8-8.1 14.6-15.4-.1-3.2-1.1-6.1-2.8-8.9-5.4-8.5-13.2-10.3-22.1-5.1m18.4 2.9c3 3 4.1 5.1 4.6 8.4 1.1 7.4-1.1 11.7-7.4 14.3-6.7 2.8-12 1.1-16.4-5.3-2.1-3.1-2.7-5.1-2.7-9.4 0-3 .6-6.2 1.3-7.1 2.1-2.8 7-4.7 12-4.8 4.2 0 5.1.4 8.6 3.9m-21.5 16.4c1.3 2.3 3.9 5.3 5.7 6.6 3.4 2.4 3.4 2.4.4 1.7-3.8-.9-6.2-3.1-8.6-7.8-2-3.8-2.5-9.3-1.1-12.5.5-1.2.8-.3 1 3 .2 2.7 1.4 6.7 2.6 9M335 1092c0 .5-.9 1.4-2 2-2.7 1.4-2.6 4 .1 4 1.9 0 2.1.4 1.6 3-.7 3.5 0 6 1.8 6 1.9 0 4.8 3.7 3.5 4.5-1.9 1.2.2 2.7 3.1 2.1 1.6-.3 2.9-.2 2.9.3 0 1-4.9 2.1-9 2.1-5.7 0-11-6.8-11-14 0-5.1 1.2-7.5 4.8-9.4 3.2-1.8 4.2-1.9 4.2-.6"/><path d="M347.4 1085c-3.4 1.4-5.4 5-5.4 9.8 0 8.2 5.4 14.2 12.8 14.2 8.7 0 12.4-10.1 6.9-18.6-3-4.6-10-7.2-14.3-5.4m-1.1 4c-.9 1.1-1.9 1.7-2.1 1.5-.6-.6 1.8-3.5 2.9-3.5.5 0 .1.9-.8 2m5.7 0c0 1.1-.2 2-.4 2s-.6-.9-.9-2-.1-2 .4-2 .9.9.9 2m4.8.6c1.2.8 2.2 2.2 2.2 3 0 1.1-.7.9-3-.8-4.5-3.3-3.8-5.4.8-2.2m-6.8-.3c0 .2-.7 1.8-1.6 3.6-1.5 3-3.8 3.5-2.9.6.3-.8.7-2.2 1-3 .4-1.2 3.5-2.3 3.5-1.2m-6.3 4.4c-.4.3-.7 0-.7-.7s.3-1 .7-.7c.3.4.3 1 0 1.4m7.9 2c-.7.7-2.6-.7-2.6-1.9 0-.6.6-.6 1.5.2.9.7 1.3 1.5 1.1 1.7m4.8-1c.9 2.2-1 4.1-2.5 2.6-1.3-1.3-.5-4.3 1-4.3.5 0 1.2.8 1.5 1.7m3.6.8c0 .3-.2.5-.5.5s-.5-.2-.5-.5.2-.5.5-.5.5.2.5.5m-11.5 2.5c-.3.5-1.6 1-2.8.9-2.1 0-2.1-.1-.2-.9 2.8-1.2 3.7-1.2 3 0m12.5.1c0 1.7-2 4.9-3.1 4.9-.6 0-.7-.5-.3-1.1.3-.6 0-1.6-.7-2.1-1.1-.8-1-.9.4-.4 1.1.3 1.7 0 1.7-.9 0-.8.5-1.5 1-1.5.6 0 1 .5 1 1.1m2 1.3c0 2.3-3.8 8.1-4.7 7.2-.3-.3.2-1.3 1.1-2.2s2-2.9 2.3-4.5c.7-3.5 1.3-3.8 1.3-.5m-10-.6c0 1.3-1.2 2.2-2.2 1.6s-.1-2.4 1.3-2.4c.5 0 .9.4.9.8m-5.2 3.5c.7-1 1.4-1 3.5 0 1.5.6 2.7 1.5 2.7 1.9 0 1.2-2.8 1-3.5-.2s-2.5-1.3-2.5-.2c0 .5 1.5 1.6 3.3 2.5 1.7.8 2.7 1.6 2.1 1.6-1.7.1-7.7-4.2-8.1-5.9-.4-1.3-.3-1.3.6 0 .9 1.2 1.3 1.2 1.9.3m8.5 2.3c.5 3-.8 2-1.8-1.5-.4-1.5-.3-2.1.3-1.7.5.3 1.2 1.7 1.5 3.2M225.2 1087.3c-1.8 1.8-3 3.6-2.6 3.9.3.4 2-.9 3.6-2.8 4-4.5 3.1-5.4-1-1.1M444.5 1089.2c-.3.8-.4 5.9-.3 11.4l.3 9.9 38.5.7c21.2.4 39.1.6 39.8.3 1.4-.5 1.8-21 .4-21.9-.4-.2-18.2-.8-39.5-1.2-33.5-.6-38.7-.5-39.2.8m53.3 1.8H522v19.3l-18.2-.6c-9.9-.4-27-.7-38-.7H446v-19.3l13.8.6c7.5.4 24.6.7 38 .7"/><path d="M452.7 1094.8c-2.1 2.3-2.2 8.6-.1 10.6 1.8 1.9 2 1.9 4.5.6 2.5-1.4 2.5-5.6-.1-7-1.1-.6-2.5-.8-3-.5-.6.3-1-.1-1-.9 0-2.2 1.7-2.8 4-1.6 2.2 1.2 2.7.1.8-1.8-1.7-1.7-3.2-1.5-5.1.6m4 6.8c.8 2.1-1.3 4.2-2.8 2.7-1.3-1.3-.5-4.3 1.1-4.3.6 0 1.3.7 1.7 1.6M463.8 1097.4c-3.4 5.3-3.4 5.6-.3 5.6 1.6 0 2.5.6 2.5 1.5 0 .8.5 1.5 1 1.5.6 0 1-.7 1-1.5s.5-1.5 1.2-1.5c.9 0 .9-.3 0-1.2-.7-.7-1.2-2.9-1.2-5s-.3-3.8-.7-3.8c-.5 0-2 2-3.5 4.4m2.2 2.1c0 .8-.7 1.5-1.6 1.5-1.4 0-1.4-.3-.4-1.5.7-.8 1.4-1.5 1.6-1.5s.4.7.4 1.5M477.5 1095c.3.5 1.5 1 2.6 1 2.3 0 2.4.9.4 4.6-.8 1.6-1.5 3.8-1.5 4.9.1 1.2 1.3-.4 3-3.8 1.7-3.3 3-6.3 3-6.8s-1.8-.9-4.1-.9c-2.4 0-3.8.4-3.4 1M488 1096.1c-1.5 2.8-.8 4.4 2.1 4.4 1.7 0 2.5.6 2.7 2.2.4 2.6-2.4 3.2-4.7 1-1.1-1-1.3-.9-.7.6.3 1 .6 2.1.6 2.3 0 1.1 4.9.2 6-1.1 1.9-2.2.4-6.4-2.5-7.1-2.8-.7-2.4-2.4.6-2.4 1 0 1.9-.5 1.9-1 0-1.9-4.9-1-6 1.1M499.5 1095.6c-1.4 1.1-1.6 1.8-.7 2.1.7.3 1.2 2.3 1.2 4.9 0 2.4.5 4.4 1 4.4.6 0 1-2.8 1-6.5 0-3.6-.1-6.5-.2-6.5-.2 0-1.2.8-2.3 1.6M507 1094.9c0 .6 1.4 1.1 3.1 1.3 3.1.3 3.1.3-.7 5.1-2 2.6-3.5 4.9-3.3 5.1 1.2 1.1 9.3 1 9.6-.2.3-.8-.7-1.2-3.2-1.2h-3.7l3.6-4.9c2-2.7 3.6-5.1 3.6-5.5 0-.3-2-.6-4.5-.6s-4.5.4-4.5.9M471.5 1100.9c-.7 1.2 1.2 2.4 2.5 1.6 1.1-.7.4-2.5-1-2.5-.5 0-1.1.4-1.5.9M531.7 1092.4c-1.2 3.1-.8 20.1.5 21.4.9.9 11.2 1.2 40 1.2H611v-23h-11.2c-6.2 0-23.9-.3-39.4-.7-26.1-.6-28.1-.5-28.7 1.1m77.5 3c.4.6.7 4.7.5 9.1l-.2 8-21-.1c-11.5-.1-28.8-.2-38.2-.3l-17.3-.1v-19.2l37.8.7c26 .5 37.9 1.1 38.4 1.9"/><path d="M538.6 1098.6c-1.4 3.5-.6 9.3 1.3 10.4 2.6 1.4 5 .3 5.7-2.7.7-2.6-2-5.6-4.3-4.8-1.9.6-2.5-1.1-.8-2.5 1.2-1 1.8-1 3 0s1.5 1 1.5-.4c0-2.2-5.6-2.2-6.4 0m5.1 6c.3.8.1 2-.5 2.6-1.5 1.5-4.3-.8-3.5-2.8.7-1.9 3.2-1.8 4 .2M550.3 1100.5c-2.8 4.3-2.9 6.5-.4 6.5 1.1 0 2.3.5 2.6 1.1.5.6 1.2.4 2-.8.9-1.1 1-2.2.4-2.8-.5-.5-.9-2.4-.9-4.2 0-4.2-.9-4.2-3.7.2m2.7 1.9c0 1.6-1.8 3.1-2.7 2.2-.8-.8.5-3.6 1.7-3.6.5 0 1 .6 1 1.4M564.4 1098.4c-1.3 3.3 0 6.1 2.9 6.4 3.6.4 2.9 2.8-.7 2.5-2.9-.2-3.5 1.1-1 2.1.9.4 2.7-.1 4-.9 2.6-1.7 3.2-6.1 1.4-9.6-1.2-2.2-5.8-2.6-6.6-.5m5.6 2.5c0 1.9-2.3 3.5-3.4 2.4-1.4-1.5-.5-4.3 1.4-4.3 1.3 0 2 .7 2 1.9M574.4 1098.4c-1.3 3.3 0 6.1 2.9 6.4 3.6.4 2.9 2.8-.7 2.5-2.8-.2-3.5 1.1-1.1 2.1 4.2 1.6 7.3-3.5 5.5-9-.9-2.6-1.7-3.4-3.6-3.4-1.4 0-2.7.6-3 1.4m5.4 2.7c.4 1.9-1.9 3.1-3.8 1.9-1.8-1.1-.4-4.2 1.7-3.8 1 .2 1.9 1 2.1 1.9M584 1099c-1.5 2.9.4 6 3.6 6 1.6 0 2.4.5 2.1 1.2-.2.7-1.6 1.2-3.1 1.1-3.1-.2-3.5 1.3-.6 2.2 4.2 1.3 7.1-4.5 4.9-9.7-1.4-3.4-5.3-3.9-6.9-.8m5.8 2.1c.4 1.9-2.7 3.4-4.1 2s0-4.3 2-3.9c1 .2 1.9 1 2.1 1.9M595.3 1103.2c-2.3 6.1-2.5 8.8-.3 4.9 1.4-2.7 5.6-2.8 6.5-.1.3 1.1 1.1 2 1.7 2s.7-.8.3-1.8c-.4-.9-1.4-3.8-2.2-6.5-.9-2.6-2.1-4.7-2.7-4.7s-2.1 2.8-3.3 6.2m4.7-.6c0 .8-.7 1.4-1.5 1.4-1.5 0-2.1-2.1-.9-3.3 1-.9 2.4.2 2.4 1.9M558 1104c0 .5.9 1 2.1 1 1.1 0 1.7-.5 1.4-1-.3-.6-1.3-1-2.1-1s-1.4.4-1.4 1M218 1094.5c-2 2.4-.6 2.8 1.5.5 1-1.1 1.3-2 .8-2-.6 0-1.6.7-2.3 1.5M210.6 1101.6c-1.5 1.4-2.6 2.8-2.3 3.1s1.8-.7 3.3-2.1c3.6-3.3 2.8-4.2-1-1M200.5 1111.5c-1.5 1.4-2.6 2.7-2.4 3 .3.2 1.8-.7 3.4-2 1.5-1.4 2.6-2.7 2.4-3-.3-.2-1.8.7-3.4 2M192.3 1119.3c-1.3 1.3-2.3 2.6-2.3 3.1 0 .9 5.9-3.6 5.9-4.7.1-1.3-1.3-.6-3.6 1.6M186.5 1126.9c-.6 1.9.2 5.1 1.4 5.1.3 0 .6-1.6.6-3.5 0-3.8-1-4.6-2-1.6M627.3 1132.7c-1.4.5-1.9 20.8-.5 21.6.4.3 12.6.8 27.2 1.1 14.6.4 31.6.9 37.8 1.2 8.1.4 11.7.3 12.7-.6 1.1-1 1.5-3.7 1.5-11.5v-10.3l-22.7-.6c-46.4-1.2-54.8-1.4-56-.9m32.9 2.4c13.9.1 29.5.4 34.6.7l9.3.4-.3 9.2c-.2 5-.6 9-1.1 9-.4-.1-17.4-.5-37.7-.9l-37-.8v-8.7c0-4.7.3-9 .7-9.4.5-.4 2-.5 3.5-.2s14.1.6 28 .7"/><path d="M634.6 1138.6c-3.5 3.4-3.2 9.5.6 11.5 1.5.8 2.4.7 3.9-.7 1-.9 1.9-2.3 1.9-3 0-2.2-3.1-4.5-5.1-3.9-2.3.8-2.5-.8-.4-2.5 1.2-1 1.8-1 3 0 1.8 1.5 2-.1.3-1.8-1.6-1.6-2.3-1.5-4.2.4m4.1 7c.8 2-.9 3.6-3 2.8-2-.7-2.2-3-.4-3.7 2.1-.9 2.7-.7 3.4.9M645.1 1141.7c-3.7 4.5-3.8 5.3-.7 5.3 1.3 0 2.7.8 3 1.7.6 1.4.9 1.5 1.5.4.9-1.4.7-9.8-.2-10.7-.3-.3-1.9 1.2-3.6 3.3m2.1 3.5c-1.5 1.5-2.6.4-1.8-1.8.5-1.3.9-1.5 1.8-.6s.9 1.5 0 2.4M660.7 1139.2c-1 .5-1.7 1.9-1.6 3.1s-.1 3-.6 4c-1 2.4 1.3 4.9 4.4 4.5 2.4-.3 2.6-.7 2.8-5.5.2-5.8-1.6-8.1-5-6.1m3.3 2.3c0 .8-.9 1.5-2 1.5-2 0-2.6-1.1-1.3-2.3 1.2-1.3 3.3-.7 3.3.8m.3 4.9c.7 1.8-.1 2.6-2.5 2.6-1.8 0-2.5-2-1.1-3.3 1.1-1.2 3.1-.8 3.6.7M689 1139.4c-.5.5-1 3.3-1 6.2 0 4.7.2 5.2 2.4 5.8 3.5.9 7.6-.9 7.6-3.3 0-1.1-.5-2.3-1-2.6-.8-.5-.7-1.1.1-2.1.9-1.1.9-1.7 0-2.8-1.5-1.8-6.7-2.6-8.1-1.2m5.9 1.5c.7.5 1 1.4.7 2-1 1.6-5.6 1.4-5.6-.2 0-2.6 2.3-3.5 4.9-1.8m1.1 6.6q0 1.5-3 1.5t-3-1.5 3-1.5 3 1.5M670.4 1140.4c-1.8 1.4-1.8 1.5-.1 2.1 1.2.5 1.7 1.8 1.7 4.7 0 2.3.4 3.7 1 3.3 1.2-.7 1.4-11.5.2-11.5-.5 0-1.7.6-2.8 1.4M679 1140.4c0 .8-.3 2.1-.6 3-.5 1.3.1 1.6 2.5 1.6 2.5 0 3.1.4 3.1 2.1 0 1.8-.5 2.1-3 1.7-1.9-.3-2.9-.1-2.7.6.2.6 1.9 1.1 3.8 1.1 2.8 0 3.5-.4 3.7-2.3.4-2.8-1.4-5.2-3.9-5.2-1.1 0-1.9-.5-1.9-1 0-.6 1.4-1 3-1 1.7 0 3-.5 3-1 0-.6-1.6-1-3.5-1-2.4 0-3.5.5-3.5 1.4M652.5 1146c.3.5 1.3 1 2.1 1s1.4-.5 1.4-1c0-.6-.9-1-2.1-1-1.1 0-1.7.4-1.4 1M189 1135.5c0 .8 4.4 4.5 5.4 4.5.5 0-.1-1.1-1.4-2.5-2.1-2.3-4-3.2-4-2M200.3 1139.7c1.5.2 3.7.2 5 0 1.2-.2 0-.4-2.8-.4-2.7 0-3.8.2-2.2.4M211.5 1140c.3.5 2.8 1 5.6 1 2.7 0 4.9-.5 4.9-1 0-.6-2.5-1-5.6-1-3.4 0-5.3.4-4.9 1M228 1140.2c0 .4 2.4.7 5.3.7 5.4-.1 4.9-.5-1.5-1.1-2.1-.2-3.8 0-3.8.4M241.5 1141c.4.6 1.1.8 1.6.5 1.4-.9 1.1-1.5-.7-1.5-.8 0-1.2.5-.9 1M250.5 1141c-.4.6 1.1 1 4.1 1 5.4 0 5.5-.4.2-1.4-2.1-.4-3.9-.2-4.3.4M264.5 1142c.3.5 2.4 1 4.5 1s4.2-.5 4.5-1c.4-.6-1.3-1-4.5-1s-4.9.4-4.5 1M278 1142c0 .5 2.3 1 5 1 2.8 0 5-.5 5-1 0-.6-2.2-1-5-1-2.7 0-5 .4-5 1M314.4 1153.9c-.7.8-.4 21 .4 21.4.4.3 18.5.6 40.2.8l39.5.4.3-10.8c.2-8-.1-10.8-1-11.2-1.7-.5-78.8-1.1-79.4-.6m78.4 2.6c1.5.5 1.7 17.1.2 18-.5.3-18.1.3-39-.1l-38-.7v-18.2l37.7.3c20.8.2 38.4.5 39.1.7"/><path d="M319.9 1161.7c-1.3 3.5-.3 8.9 1.7 9.7 1.8.7 5-.8 5.7-2.6.8-2.3-1.3-4.8-3.9-4.8-1.6 0-2.4-.5-2.1-1.3.2-.6 1.5-1.2 2.9-1.2 1.7.1 2.4-.4 2.1-1.2-.3-.7-1.6-1.3-2.9-1.3-1.7 0-2.8.8-3.5 2.7m5.9 5.6c.4 2-2.5 3.4-4 1.9s-.1-4.4 1.9-4c1 .2 1.9 1.1 2.1 2.1M333.4 1160.3c-4.6 5.3-5.2 8.7-1.4 8.7 1 0 2.1.6 2.3 1.2.7 1.8 2.9-1.2 2.2-3-.3-.8-.5-2.9-.5-4.8 0-3.6-.8-4.2-2.6-2.1m.6 4.7c0 1.1-.7 2-1.5 2-1.8 0-1.9-1.2-.3-2.8s1.8-1.5 1.8.8M346.6 1160.2c-.3.7-.7 3-1 5-.7 5.8 3.2 8.8 6.8 5.2 1.9-1.8 2-3 .5-3.9-.6-.4-.8-1.4-.4-2.2 1-2.8-.5-5.3-3.1-5.3-1.4 0-2.6.6-2.8 1.2m4.4 2.3c0 .8-.6 1.5-1.4 1.5-1.7 0-2.8-1.4-1.9-2.4 1.2-1.2 3.3-.6 3.3.9m.8 5.2c.5 1.7-2.6 2.9-4 1.5-.6-.6-.7-1.5-.3-2.2.9-1.4 3.7-.9 4.3.7M366.7 1159.7c-.4.3-.7 1.8-.7 3.3 0 2.2.4 2.6 2.8 2.5 2.1 0 2.8.5 3 2.4.3 2.2.1 2.3-2.7 1.8-3.3-.7-4.3.8-1.2 1.8 2.5.8 4.9-.3 5.6-2.6.8-2.4-1.1-4.9-3.6-4.9-1.1 0-1.9-.7-1.9-1.5 0-.9.9-1.5 2.5-1.5 1.4 0 2.5-.5 2.5-1 0-1.1-5.3-1.4-6.3-.3M376.2 1165.2c.3 6 .4 6.3 3 6.6 3.3.4 6.8-1.3 6.8-3.3 0-.8-.4-1.5-1-1.5-.5 0-1 .7-1 1.5q0 1.5-3 1.5c-2.3 0-3-.4-3-2 0-1.5.7-2 2.8-2 1.7 0 3.2-.8 4-2.1 1.9-3-.1-4.9-5-4.9-3.9 0-3.9 0-3.6 6.2m7.6-2.5c.2.9-.7 1.3-2.7 1.3-2.1 0-3.1-.5-3.1-1.6 0-1.9 5.1-1.6 5.8.3M357.8 1160.7c-2.2.5-2.4 2.3-.3 2.3 1.1 0 1.5 1.1 1.5 4 0 2.2.5 4 1.1 4s.9-2.1.7-5.5c-.2-3-.5-5.4-.8-5.4-.3.1-1.3.3-2.2.6M339.5 1166c-.3.5.3 1 1.5 1s1.8-.5 1.5-1c-.3-.6-1-1-1.5-1s-1.2.4-1.5 1M645 1160.1c-1.1 2.5-1 3.6.2 6.2 1.6 3.2 1.6 3.2 1.9-3.1.4-6.8-.2-7.8-2.1-3.1M649 1161.5c0 2.5.5 4.5 1 4.5.6 0 1-1.2 1-2.8 0-2.7 0-2.7 2.2.6 2.5 3.9 3.8 2.9 3.8-3.1 0-4.1-1.5-5-2.6-1.5-.7 2.3-.7 2.3-1.7 0-1.8-3.9-3.7-2.7-3.7 2.3M659.2 1158.2c-1.9 1.9-1.4 6.2.9 7.6 2.5 1.6 5.5.7 7-1.9 2.3-4.3-4.4-9.2-7.9-5.7m5.3 3.8c0 2.9-3.2 4.1-4.1 1.6-.9-2.4.4-4.8 2.3-4.4 1.2.2 1.8 1.2 1.8 2.8M678.3 1158.8c-1.3.8-.3 7.2 1.2 7.5 1.2.2 2-6.2.8-7.4-.4-.4-1.3-.5-2-.1M683.8 1163.9c-.3 5.3-.1 5.9 1.2 4.6 1.7-1.7 1.9-8 .3-9.6-.8-.8-1.2.5-1.5 5M669 1166.1c0 .5.5.7 1 .4.6-.3 1-.8 1-1.1 0-.2-.4-.4-1-.4-.5 0-1 .5-1 1.1M334.9 1180.4c-1.1 2.4-.5 9.1.9 10 .4.2.7-2.5.7-6s-.1-6.4-.3-6.4c-.1 0-.7 1.1-1.3 2.4M338.7 1178.6c-1.1 1.1-.9 8.2.3 8.9.6.4 1-.5 1-1.9 0-3.3 1.3-3.3 2.8-.1 1.8 3.9 3.2 3 3.2-2 0-2.5-.4-4.5-1-4.5-.5 0-1 1-1 2.2 0 2.2-.1 2.2-2.3-.5-1.2-1.6-2.6-2.5-3-2.1M349.8 1179.1c-2.3 1.3-2.5 7.4-.2 8.3 5.7 2.2 10-3.7 5.8-7.8-1.8-1.8-3.2-2-5.6-.5m4.7 4.4c0 1.3-.8 2.1-2.2 2.3-1.9.3-2.3-.1-2.3-2.3s.4-2.6 2.3-2.3c1.4.2 2.2 1 2.2 2.3M366.7 1179.7c-1.4 1.3-.6 2.4 1.3 1.8 1.1-.4 2-.2 2 .4s-.9 1.6-2 2.3c-3.1 2-2.5 3.8 1.3 3.7 1.7-.1 2.4-.3 1.5-.6-2.2-.6-2.2-1.2-.2-3.4.9-1 1.4-2.5 1.1-3.4-.6-1.5-3.8-2.1-5-.8M373.5 1184.5c0 3.2.4 5.4 1 5.2s1-2.5 1-5.2-.4-5-1-5.2-1 2-1 5.2M358 1187c0 .5.5 1 1 1 .6 0 1-.5 1-1 0-.6-.4-1-1-1-.5 0-1 .4-1 1"/></svg>