<svg xmlns="http://www.w3.org/2000/svg" viewBox="0 0 867.175 1216.258" fill="currentColor"><path d="M764.205 79.562c-9.389 4.224-27.165 13.47-33.954 17.688-4.492 2.812-8.286 5.122-8.486 5.123-.6.001-14.278 8.537-22.663 14.26-4.792 3.212-9.285 5.823-10.085 5.826-.7.001-4.603-1.088-8.506-2.478s-8.407-2.478-9.907-2.474c-5.2.013-17.279 8.045-30.747 20.28-2.993 2.708-2.993 2.708-4.3.012-4.925-9.488-8.63-11.578-11.917-6.47-2.092 3.206-2.368 12.307-.355 17.002 1.308 3.096 1.308 3.096-12.257 16.732-7.38 7.52-13.864 13.636-14.464 13.638-.5.001-4.594 2.212-9.087 5.024-4.493 2.711-8.387 5.022-8.587 5.022-.4.001-5.291 3.314-17.768 12.047-3.594 2.509-22.058 16.357-22.556 16.959-.3.3-4.29 4.011-8.979 8.123-15.663 13.941-24.14 22.964-39.688 42.704-3.588 4.61-8.062 14.421-9.147 20.324-1.48 7.804-1.146 20.603.674 28.099 1.72 7.495 7.35 19.58 13.476 28.964 2.409 3.594 4.517 6.689 4.918 6.988.3.299 1.906 2.295 3.611 4.39 8.73 11.677 24.96 22.435 43.576 28.886 2.502.794 6.506 2.283 9.008 3.077 4.505 1.688 11.21 3.57 21.016 5.945 6.604 1.682 13.805 1.863 21.101.444 2.998-.607 14.297-1.237 25.296-1.566 17.399-.445 20.198-.753 22.894-2.46 3.095-1.908 3.095-1.908 6.601.683 2.004 1.495 3.808 2.89 4.109 3.19 1.204 1.396 8.113 4.878 13.418 6.864 10.11 3.674 16.407 2.557 26.687-4.97 6.388-4.617 12.668-12.133 17.147-20.245 2.687-4.907 7.651-18.72 7.644-21.32-.002-1 .996-1.502 2.896-1.507 2-.006 4.696-1.713 9.684-6.126 6.685-5.917 13.572-10.835 31.143-21.781 4.493-2.912 11.681-7.431 15.974-10.142 4.193-2.711 13.678-8.536 20.866-13.155 7.288-4.519 13.577-8.736 13.875-9.236.399-.601.298-.901-.201-.6-2.696 1.507-18.97 11.35-19.37 11.851-.298.3-1.596 1.204-2.994 1.908-1.398.803-7.388 4.52-13.479 8.235-5.99 3.816-15.575 9.64-21.166 13.056-11.282 6.93-19.067 12.65-25.152 18.266-2.195 2.005-4.29 3.71-4.59 3.712-.4 0-.404-1.5-.109-3.3.592-3.202.592-3.202-.9-.198-.796 1.602-1.39 3.604-1.49 4.204.002.7-1.096 1.303-2.396 1.306-2.4.007-2.4.007-1.012-4.697 1.685-5.604 1.753-17.705.141-22.4-1.41-4.197-4.623-8.888-6.023-8.885-.6.002-.398.801.404 1.7 3.21 3.59 4.822 8.387 5.441 15.585.513 5.099.32 7.6-.479 8.101-.698.502-1.1-.097-1.104-1.597-.111-4.4-3.727-10.29-9.942-16.074-3.408-3.09-6.615-5.683-7.215-5.68-2.3.005-.504-1.6 3.093-2.81 2.797-.906 4.597-.911 6-.215 1 .498 2.601.693 3.4.391 1.499-.604 5.904 1.585 8.111 4.08 2.607 2.792 3.716 6.29 4.234 13.088.311 4.1.82 7.398 1.02 7.397s3.193-2.408 6.586-5.317c7.982-6.72 9.58-7.825 18.864-13.55 4.293-2.61 17.771-11.046 29.952-18.678 12.28-7.632 24.16-15.163 26.456-16.57 2.297-1.405 4.193-2.91 4.292-3.31-.003-.8-6.992 3.218-15.478 8.74-2.695 1.807-8.386 5.322-12.48 7.733-4.093 2.51-12.679 7.833-18.968 11.85-15.674 10.04-21.166 13.255-21.567 12.756-.2-.2.492-2.901 1.584-6.104 1.092-3.103 2.078-8.405 2.269-11.806.184-6.2.184-6.2 8.67-11.523 4.692-2.912 12.18-7.732 16.772-10.644 24.759-15.765 32.945-20.886 35.941-22.494 1.698-.904 3.195-2.108 3.194-2.508-.002-.5-.602-.599-1.2-.197-1.299.803-22.265 13.758-40.735 25.307a918 918 0 0 0-16.272 10.442c-3.893 2.71-5.891 3.516-6.094 2.616-.301-.699-.713-5.198-1.026-9.997-.415-5.699-1.63-11.596-3.646-17.49-1.612-4.796-3.027-10.393-3.032-12.393-.008-3.1.39-3.9 2.787-4.807 7.992-3.221 22.472-10.759 32.955-17.386 2.596-1.607 3.096-1.708 2.599-.407-1.39 3.603 6.41 3.583 10.4-.027 1.098-.903.697-1.302-2.105-1.795-5.002-.887-7.11-3.781-7.426-9.88-.422-8.5-1.848-18.596-2.75-19.393-.501-.399-.597 1.401-.19 4.2.308 2.7.923 8.398 1.333 12.497.311 4.099 1.022 8.297 1.424 9.196.704 1.298-.593 2.602-7.382 6.62-9.385 5.724-29.46 15.777-30.06 15.178-.201-.2 1.585-5.304 3.97-11.41 4.57-11.412 5.065-13.014 3.368-12.01-.5.302-1 .203-1.001-.397-.002-.9.494-2.3 3.077-8.608.398-1.1 1.788-4.904 2.878-8.507 1.19-3.603 2.58-7.407 3.078-8.508a175 175 0 0 0 2.876-9.008c1.19-3.903 2.58-8.007 3.076-9.308 1.291-3.403.978-8.403-.628-10.598-5.117-6.687-90.435-51.364-98.035-51.344-.9.002-1.6-.496-1.602-.996-.005-1.9 7.997-1.02 14.704 1.562 14.415 5.562 51.962 23.764 58.574 28.347 1.403 1.096 2.805 1.892 3.105 1.891.8-.002 27.643 16.428 29.748 18.223 2.305 1.894 2.716 6.193.72 7.398-3.095 1.908-6.078 8.416-12.629 27.433-3.77 11.21-6.646 20.517-6.445 20.717.3.3.699-.402 1.096-1.403.793-2.502 4.168-12.01 5.857-16.415.795-1.902 2.58-7.307 3.969-12.01 3.173-10.31 6.855-16.919 9.555-17.026.7-.002 2.62 7.893 3.438 14.391.407 2.7 1.115 5.797 1.618 6.996.604 1.498.802.798.394-2.401-.918-6.698-3.558-22.09-4.366-24.989-.706-2.198-9.824-9.374-16.935-13.255-1.201-.697-8.512-4.878-16.424-9.457-11.117-6.371-36.451-19.405-48.866-25.073-.8-.298-1.603-1.095-1.804-1.595-.303-1 22.457-16.159 32.643-21.785 8.488-4.623 24.175-9.464 35.571-10.894 9.497-1.224 18.7-.349 28.307 2.526 2.502.694 7.106 2.082 10.108 2.974s7.406 2.48 9.71 3.574c5.506 2.486 8.006 2.38 2.999-.107-5.607-2.786-20.72-7.646-26.122-8.432-5.502-.886-5.105-1.787 2.284-5.906 4.993-2.713 4.993-2.713 12.799-.734 4.302.99 9.306 2.376 11.207 2.971 2.402.694 3.102.692 2.4-.006-1.203-1.197-14.113-4.963-19.514-5.55-4.002-.489-4.905-1.686-2.207-2.693.899-.403 1.397-.904 1.097-1.203s-5.195 1.913-10.888 4.928c-9.486 5.025-10.985 5.43-19.284 6.15-4.899.414-12.795 1.834-17.391 3.246-4.697 1.313-8.594 2.223-8.795 2.023-.4-.399 11.283-6.63 23.168-12.36 4.994-2.413 8.289-4.322 7.489-4.22-.8.002-2.599.507-3.997 1.21m26.009 3.331c.002 1-12.08 7.432-13.681 7.336-2.7.007-1.004-1.597 4.988-4.713 6.191-3.216 8.69-3.923 8.693-2.623m-119.385 44.013c6.806 2.582 40.349 18.695 44.556 21.484 1.402.896 5.709 3.385 9.514 5.375 16.623 8.856 30.845 17.119 34.052 19.81 3.006 2.393 3.509 3.391 3.519 7.191.006 2.3-1.08 7.603-2.37 11.607-1.289 4.103-3.57 11.209-4.958 15.913-1.488 4.704-3.075 9.408-3.573 10.51-.497 1.1-3.179 7.907-5.86 15.114-2.781 7.108-6.36 15.117-8.054 17.722-2.987 4.707-2.987 4.707-9.787 4.725-24.1.063-67.035-13.224-97.28-30.045-15.321-8.46-27.155-21.33-33.295-36.413-1.81-4.195-1.81-4.195 1.878-8.505 6.181-7.116 31.316-31.982 39.199-38.803 4.09-3.61 8.18-7.221 8.979-8.023 4.189-4.211 12.376-9.133 16.673-10.044.2 0 3.203 1.092 6.807 2.382m-39.181 7.403c4.318 6.788 4.32 7.488-1.268 12.203-3.293 2.809-5.19 3.814-5.393 2.914-2.318-7.194-2.63-11.493-1.14-15.097 1.988-4.905 4.688-4.912 7.8-.02m-36.474 48.095c-.4.301-.7.002-.702-.698s.297-1 .698-.702c.301.4.303 1 .004 1.4m-.696 1.802c.001.3-.198.5-.498.502-.3 0-.5-.2-.502-.5 0-.3.2-.5.5-.5.3-.001.5.198.5.498m-5.988 4.516c.007 2.6-.691 3.302-5.185 5.614-6.292 3.216-15.676 9.24-25.257 16.466-3.793 2.81-8.284 6.121-9.981 7.326-17.566 13.146-55.971 49.347-57.158 54.15-.199.6 1.298-.604 3.392-2.81 10.87-11.728 16.754-17.543 17.954-17.546 3.2-.009 22.424 9.141 22.429 10.741.003 1.5-23.827 27.963-25.327 28.166-.5.102-5.108-2.986-10.218-6.873-8.817-6.577-9.218-7.076-9.027-10.376.292-3.001 3.18-7.709 8.065-13.221.499-.702 2.592-3.107 4.486-5.512 4.884-6.113 19.047-20.35 27.927-28.073 4.09-3.511 7.682-6.62 7.981-6.921.3-.301 2.495-2.107 4.99-4.013 2.495-1.907 4.69-3.713 4.99-4.013 1.894-2.005 28.147-20.174 34.337-23.79 5.293-2.914 5.593-2.915 5.602.685m4.399-.512c-.398.801-1.096 1.503-1.596 1.505-.6.001-.502-.6.196-1.5.698-.803 1.396-1.505 1.596-1.505s.102.7-.196 1.5m3.61 3.991c.002.5-.499.301-1.001-.497-.502-.8-1.005-1.998-1.007-2.498-.001-.6.5-.301 1.002.498s1.005 1.897 1.006 2.497m-5.683 6.315c3.1.392 3.302.891 1.108 3.297-1.495 1.704-1.394 2.104 1.217 6.297 1.606 2.496 3.512 4.49 4.312 4.589.7-.002 4.608 3.087 8.618 6.877 16.44 15.457 38.07 26.4 75.1 37.804 1.7.495 4.402 1.188 6.103 1.584 2.001.394 3.404 1.39 3.707 2.49.707 2.798 5.41 3.586 9.104 1.576 3.695-2.01 6.897-1.218 6.104 1.384-.397 1.301.105 1.9 2.006 2.395 1.401.396 3.101.392 3.7-.01.699-.402.8-.302.401.4-.298.6-7.485 5.719-15.87 11.34-12.778 8.734-30.844 21.681-36.632 26.297-.798.702-3.492 2.809-5.987 4.715-2.495 1.907-5.788 4.716-7.484 6.22-3.292 3.109-5.99 3.516-8.396 1.422-3.207-2.692-22.036-13.542-23.536-13.538-1.9.004-12.476 9.132-23.048 19.86-8.876 9.123-7.777 8.92-18.49 4.048-26.13-11.831-61.083-32.04-61.092-35.34-.004-1.4 5.878-8.315 17.047-20.045 4.389-4.511 7.878-8.72 7.876-9.32-.006-2.3-3.01-4.192-13.522-8.365-7.508-3.08-9.51-4.075-9.512-4.675 0-.3 3.29-3.509 7.282-7.019 3.89-3.51 7.382-6.62 7.681-6.92s2.994-2.508 5.987-5.016c2.994-2.508 5.688-4.715 5.987-5.016.3-.3 3.393-2.708 6.986-5.418 3.593-2.61 7.585-5.62 8.983-6.623 12.276-9.233 16.667-12.344 17.866-12.847.8-.302 3.895-2.11 6.99-3.919 5.591-3.414 5.591-3.414 6.097-1.115.404 1.598 1.406 2.396 3.307 2.59m8.698-.823c1.105 2.097 2.01 4.295 2.012 4.695-.097 1-5.018-6.887-5.02-7.987-.005-1.6 1.098-.503 3.008 3.292m34.085 32.411c0 .3-.199.5-.499.501s-.5-.198-.501-.498.198-.5.498-.502c.3 0 .5.199.502.499m114.929 10.9c-3.974 10.21-5.864 14.015-5.87 11.715-.002-1 3.275-9.61 6.456-16.917.696-1.702 1.59-3.905 1.887-4.905.398-1.001.896-1.603 1.197-1.304.3.3-1.286 5.404-3.67 11.41m-107.42-7.42c.301.5.202 1-.398 1.001-.5.002-1.3-.496-1.602-.995-.302-.6-.203-1 .397-1.001.5-.002 1.301.396 1.603.995m147.9.213c2.203.894 1.007 2.397-1.993 2.405-2.3.006-3.102-.992-1.706-2.295.798-.902 1.698-.905 3.7-.11m-143.394 2.276c.001.3-.198.5-.498.5-.3.002-.5-.198-.502-.498 0-.3.199-.5.499-.501.3 0 .5.199.501.499m12.013 4.968c.001.3-.198.5-.498.501s-.5-.198-.502-.498c0-.3.2-.5.5-.502.3 0 .5.2.5.5m86.045 17.075c.006 2.1 1.119 6.997 2.429 10.794 2.72 7.492 4.648 18.487 4.668 26.087.012 4.7-.087 4.9-4.381 7.112-2.397 1.306-5.192 3.114-6.29 4.116-.997.903-3.393 2.71-5.289 4.114-1.897 1.305-3.793 2.81-4.091 3.311-.399.601-2 .105-3.603-1.09-3.006-2.093-8.31-3.879-8.307-2.779 0 .3 1.803 1.295 3.905 2.19 3.904 1.49 5.81 3.785 4.113 4.89-.5.3-2.7-.394-5.004-1.588-9.914-5.174-27.096 1.471-40.559 15.807-4.786 5.112-7.775 9.42-12.751 18.633-1.99 3.705-4.481 7.212-5.48 7.814-1.098.503-7.192 2.82-13.687 5.036-13.488 4.536-12.287 4.832-18.812-4.75-2.61-3.794-6.32-7.384-11.83-11.37-1.603-1.195-.906-2.197 7.473-10.42 4.987-5.012 12.07-11.53 15.662-14.54s6.685-5.618 6.984-5.919 2.495-2.106 4.99-4.013c2.495-1.906 4.69-3.712 4.99-4.013s2.095-1.705 3.992-3.01c1.896-1.405 4.192-3.011 4.99-3.713 2.894-2.408 12.576-9.233 25.453-17.967 7.187-4.819 13.176-9.035 13.476-9.335.299-.401 2.993-2.408 5.987-4.616 5.49-3.914 7.59-4.32 13.993-3.037 2 .395 3.599-.31 6.991-3.218 4.19-3.71 4.29-3.811 1.889-4.405-2.302-.594-2.302-.694-.404-1.299 1.1-.403 2.697-1.107 3.496-1.609 3.495-2.01 4.997-1.213 5.007 2.787m-22.494 2.359c-.297.8-1.494 2.004-2.692 2.807-1.997 1.205-1.997 1.105.295-1.7 2.492-3.107 3.291-3.41 2.397-1.107m2.2-.406c-.4.301-.7.002-.702-.698s.297-1 .698-.702c.3.4.302 1 .003 1.4m-7.688 4.72c0 .3-.498.801-1.197 1.203s-.8.302-.401-.399c.697-1.201 1.596-1.604 1.598-.804M489.924 278.18c3.008 2.992 10.624 8.972 12.727 10.167.901.498 1.803 1.195 2.104 1.594.702.999 20.336 13.947 29.25 19.324 8.914 5.277 33.247 17.813 42.858 21.888 3.604 1.59 8.91 3.877 11.814 5.169s5.806 2.385 6.506 2.383 1.7.395 2.202.894c.601.399 3.304 1.592 6.007 2.584 14.814 5.262 23.229 10.94 26.847 18.03.905 1.698 2.31 3.594 3.112 4.292.902.798 1.604 1.696 1.605 2.096.002.8-12.491 3.333-25.387 5.166-7.097 1.019-10.697 1.028-17.9.047-34.712-4.909-66.248-18.426-88.4-38.168-4.21-3.69-12.436-13.668-12.44-15.068 0-.3 1.1-.403 2.5-.007 3.003.793 6.496-1.917 6.488-4.917-.003-1.1-2.512-4.693-5.621-7.985s-6.119-7.084-6.722-8.382c-.503-1.199-1.306-2.297-1.706-2.296-1.6.004-3.216-6.091-2.525-9.693.59-3.602 3.075-9.308 3.975-9.31.2-.001 1.503.995 2.706 2.192m-4.752 18.313c1.506 2.396 5.018 6.987 7.926 10.08 6.118 6.583 6.319 6.983 4.724 8.887-3.09 3.808-8-.18-12.627-10.267-2.514-5.394-4.335-13.189-3.135-13.192.3 0 1.705 1.995 3.112 4.492m-.87 11.502c1.41 3.796 4.425 9.689 6.634 12.983 3.715 5.69 13.643 16.364 18.452 19.952 19.638 14.348 35.357 21.707 61.076 28.64 12.508 3.367 13.709 3.464 30.509 3.52 16-.042 18.4-.248 28.492-2.875 10.993-2.829 27.38-8.071 30.775-9.88.998-.503 1.998-.806 2.198-.606.3.2-2.683 6.407-6.464 13.817-3.88 7.41-6.964 13.718-6.963 14.018 0 .3-1.097 1.303-2.394 2.206-1.997 1.406-5.696 1.815-22.794 2.36-11.3.33-22.897 1.06-25.796 1.568-2.899.607-7.698 1.02-10.698 1.028-5 .013-5.3-.086-4.806-2.288.594-2.601-4.023-8.89-5.218-7.086-.598.801-2.399.606-6.302-.584-3.002-.992-8.607-2.677-12.51-3.867-8.707-2.677-8.807-2.677-21.022-8.445-10.013-4.774-22.232-12.342-24.74-15.235-.702-.898.899-.403 3.703 1.19 14.722 8.262 27.236 13.729 42.048 18.39 5.505 1.686 11.711 4.17 13.715 5.564 4.007 2.59 4.807 2.788 4.804 1.588-.004-1.6-9.216-6.376-16.722-8.557-15.913-4.758-35.135-13.208-46.554-20.578-3.506-2.29-10.823-8.771-16.438-14.457-8.624-8.977-10.33-11.273-12.144-16.668-1.209-3.397-2.422-8.494-2.83-11.193-.306-2.799-.816-6.498-1.12-8.297-.814-4.998.19-3.8 3.11 3.792m266.203.603c-.292 3.401-1.478 8.704-2.67 11.807-1.787 4.605-3.382 6.61-9.07 11.324-3.792 3.11-7.085 5.619-7.285 5.62-.2 0-.608-2.9-.817-6.499-.31-3.599-1.32-7.696-2.324-9.094-1.707-2.595-1.607-2.696.587-4.901 3.79-3.71 19.262-14.55 20.762-14.555 1.1-.003 1.303 1.297.817 6.298M619.3 307.342c1.902.895 3.505 1.99 3.506 2.49.001.4.602.799 1.303.897 1.3-.003 15.023 8.96 15.126 9.86.1.3-5.385 5.815-12.068 12.432L615 344.853l-14.315-5.662c-7.908-3.08-14.716-5.962-15.117-6.36-1.102-1.098 26.03-27.17 28.23-27.175 1.1-.003 3.501.79 5.504 1.686m86.036 13.674c2.706 2.293 2.806 2.493.805 2.098-6.303-1.383-19.384 6.051-26.96 15.271-6.579 7.917-6.878 8.118-4.191 3.311 4.28-7.911 21.04-22.955 25.84-23.168.8-.102 2.902 1.093 4.506 2.488m4.912 4.788c3.705 1.59 8.018 6.579 9.73 11.474 1.613 4.596.414 5-1.698.605-3.52-7.391-13.125-9.666-22.114-5.342-14.282 6.937-27.223 29.47-27.177 47.17.037 13.9 5.155 20.787 15.755 20.76 3.9.09 4.5.288 3.003 1.092-2.996 1.808-13.097 1.334-16.102-.658-7.613-4.88-10.055-20.974-5.494-35.886 3.866-12.81 14.825-28.839 23.41-34.361 9.085-5.924 14.881-7.24 20.687-4.854m-1.483 6.204c4.302.888 8.814 5.476 10.227 10.573.707 2.598.92 7.497.634 12.698-.581 7.402-1.175 9.603-5.253 17.914-8.058 16.221-18.934 25.25-30.434 25.28-6.1.016-8.504-1.478-11.62-7.27-2.11-3.894-2.344-17.094-.46-23.199 5.355-17.114 16.419-31.043 27.908-35.173 4.196-1.51 4.896-1.613 8.998-.823M510.93 356.926c4.211 4.089 10.725 9.272 14.63 11.561 11.819 6.87 21.028 10.445 50.952 19.667 2.202.694 4.105 1.99 4.308 2.889.303 1.399-.197 1.4-4.5.211-11.808-3.269-21.316-6.344-29.324-9.423-7.508-2.88-23.33-10.939-24.233-12.336-.602-.799-1.102-.698-1.699.404-.797 1.202-1.297 1.203-3-.392-1.103-.997-1.807-2.195-1.608-2.596.3-.4-1.205-2.097-3.309-3.591-2.004-1.595-5.211-4.287-7.016-6.182-4.11-3.99-14.247-17.963-14.251-19.463-.002-.7 2.604 1.694 5.714 5.285s9.126 9.877 13.336 13.966M672.905 347c0 .3-.199.501-.499.502-.3 0-.5-.199-.501-.499s.199-.5.499-.501.5.198.5.498m-2.987 5.008c0 .3-.199.5-.499.502-.3 0-.5-.2-.501-.5 0-.3.199-.5.499-.5.3-.001.5.198.5.498m-1.89 4.205c-5.97 10.816-7.617 31.22-3.198 38.609 1.205 2.097 2.21 3.994 2.211 4.294.003 1-7.709-3.48-11.017-6.471-1.904-1.695-3.808-3.09-4.208-3.09-1.7.005-.609-3.398 4.068-12.31 2.687-5.107 6.467-12.517 8.456-16.622 2.09-4.006 3.982-7.11 4.183-6.811.3.3.103 1.3-.494 2.401M524.974 373.39c.001.3-.198.5-.498.501-.3 0-.5-.199-.502-.499 0-.3.2-.5.5-.5.3-.002.5.198.5.498m13.017 6.466c.802.498 1.103.997.503.998-.5.002-1.701-.495-2.503-.993-.8-.498-1.002-.997-.502-.999.6-.001 1.701.496 2.502.994m5.006 1.987c1.302.796 1.302.996-.198 1-.9.003-2.001-.495-2.302-.994-.804-1.298.496-1.301 2.5-.006m5.006 2.487c0 .3-.199.5-.499.5-.3.002-.5-.198-.5-.498-.002-.3.198-.5.498-.501.3 0 .5.199.501.499m3.703 1.19c-.399.3-.999.303-1.4.004-.3-.4-.002-.7.698-.702s1.001.297.702.698m6.305 1.783c0 .3-.199.5-.499.502-.3 0-.5-.199-.501-.499 0-.3.199-.5.499-.501s.5.198.5.498"/><path d="M725.726 278.563c-3.594 2.21-8.087 4.921-9.984 6.026s-4.593 2.812-5.99 3.816c-1.398 1.003-7.089 4.518-12.58 7.833-13.679 8.136-26.457 16.47-57.202 37.35-10.382 7.027-11.48 7.93-10.878 8.528.3.3 3.197-1.208 6.39-3.517 6.888-4.718 7.986-5.52 11.48-7.83 1.498-.904 8.386-5.622 15.473-10.34 7.088-4.719 15.573-10.341 18.868-12.45s8.286-5.321 10.981-7.028c2.796-1.808 8.386-5.322 12.48-7.733 11.682-7.13 29.453-18.077 29.852-18.478.2-.2-.201-.4-1-.298-.8.002-4.296 1.812-7.89 4.12M570.624 354.57c-.997 1.002-1.692 3.004-1.688 4.504.009 3.4 2.813 4.792 15.02 7.66 5.203 1.187 10.607 2.573 12.008 3.069 3.303 1.191 8.304 1.478 9.802.474 2.496-1.506 1.286-5.303-2.019-6.894-3.103-1.392-30.027-10.622-31.027-10.62-.3.002-1.198.804-2.096 1.806m19.816 5.847c7.206 2.482 13.613 4.965 14.214 5.463 3.407 2.691-2.29 3.606-10.495 1.728-7.005-1.682-18.313-4.852-21.416-6.044-4.805-1.788-2.82-7.493 2.183-6.306 1.4.296 8.407 2.578 15.514 5.16M633.967 370.903c-7.894 2.021-8.493 2.423-8.787 4.924-.293 2.5.007 2.8 2.807 2.792 1.7-.004 5-.413 7.298-.919 2.298-.606 5.397-1.214 6.896-1.618 3.398-.709 5.49-4.014 3.684-6.11-1.405-1.696-1.405-1.696-11.898.931m11.002.572c.004 1.6-2.493 2.906-7.79 4.02-6.996 1.518-10.496 1.428-10-.074.298-.7 3.595-2.01 7.392-2.92 8.195-2.02 10.395-2.226 10.398-1.026M608.3 383.37c-7.1.22-11.298.83-11.296 1.43.001.7 6.002.985 18.501.652 11.7-.23 18.398-.748 18.197-1.348-.403-1.099-7.804-1.28-25.402-.733M693.79 341.347c-10.582 6.727-18.942 22.05-19.108 35.15-.162 14.6 9.153 20.276 20.834 12.845s19.444-21.45 19.508-35.15c-.018-6.9-.926-9.698-4.436-13.59-3.109-3.391-10.908-3.07-16.798.745m16.805 1.956c8.727 10.077-1.402 37.304-16.682 45.144-15.579 8.04-23.12-7.64-13.574-28.365 3.779-8.21 7.167-12.519 12.957-16.534 6.788-4.718 13.487-4.835 17.3-.245M808.247 210.147c-6.287 4.816-6.687 4.917-11.589 4.33-3.7-.39-6-.084-8.597 1.223-1.997.905-3.395 1.908-3.194 2.208.3.2 1.4-.004 2.499-.607 3.495-1.909 14.096-1.337 18.702.851 4.405 2.089 7.016 5.982 6.024 8.985-.595 2.001-5.79 4.315-11.686 5.43-2.1.406-3.797 1.21-3.795 1.91.003 1.2-3.291 3.409-32.944 21.587-8.486 5.222-14.376 9.137-12.977 8.734 1.399-.504 5.893-2.816 9.986-5.327 9.086-5.423 25.06-15.465 26.457-16.569 4.191-3.21 13.877-8.636 17.873-10.047 5.396-1.814 8.59-4.222 8.584-6.422-.002-.7.695-1.602 1.495-1.904.799-.402 1.497-1.104 1.495-1.704-.002-.8-.302-.8-1.1.003-.897.902-2 .205-4.506-2.388-1.905-1.995-3.41-3.692-3.41-3.892s2.095-1.705 4.59-3.412c2.496-1.806 4.292-3.41 4.091-3.71-.3-.2-2.797 1.207-5.591 3.214-6.588 4.818-8.99 4.024-2.503-.793 8.284-6.322 8.783-6.723 7.783-6.72-.6.001-4.094 2.21-7.687 5.02M497.017 390.162c.003.9.405 1.899.906 2.198 1.803 1.095 2.22 7.394.73 11.698-1.786 5.105-1.585 5.604 1.008 2.797 2.892-3.207 2.666-13.107-.342-16.099-1.905-1.895-2.305-1.994-2.302-.594M441.025 393.309c-1.095 1.803-1.988 4.605-1.983 6.305.008 3.2 3.325 9.491 5.025 9.487.5-.002.998-.503.997-1.003-.002-.6-.403-.999-.803-.998-.5.002-1.404-1.696-2.01-3.794-1.21-3.997-.423-9.1 1.87-11.805.797-1.003.796-1.403-.004-1.4-.6.001-1.996 1.505-3.092 3.208M456.522 392.068c-.398.601.603.999 2.303.994 4.1-.01 4.301.589 2.115 5.695-1.988 4.705-2.479 8.306-1.079 8.302.7-.001 5.167-12.913 5.161-15.013-.003-1.3-7.703-1.28-8.5.022M467.223 392.24c-1.596 1.604-1.493 2.804.307 2.8.8-.003 1.499-.505 1.497-1.005-.003-1.4 2.697-1.307 3.6.191.403.699-.195 1.8-1.392 2.604-2.197 1.405-2.197 1.405.008 3.2 2.004 1.594 2.105 1.994.81 3.497-1.297 1.504-1.497 1.504-3.103-.691-2.006-2.595-3.105-2.192-2.197 1.005.809 3.298 5.21 4.087 7.403 1.281 1.396-1.704 1.593-2.804.788-4.802-.504-1.399-.71-3.398-.312-4.5 1.19-3.802-4.417-6.588-7.41-3.58"/><path d="M476.624 392.615c-.298.901-.594 2.302-.592 3.202.104 1.4.403 1.299 1.898-.605 1.097-1.203 2.395-2.206 2.995-2.208 2.1-.005 1.11 3.697-1.882 7.105-3.988 4.61-3.583 6.31 1.818 6.695 3.3.192 4.2-.01 4.197-1.21-.003-1.1-1.005-1.598-3.105-1.592l-3.1.008 3.091-3.508c3.29-3.809 3.884-6.31 1.879-8.305-1.705-1.696-6.504-1.483-7.2.418"/><path d="M488.232 395.885c-3.884 6.01-3.981 7.11-.581 7.102 1.5-.004 3.302.791 4.004 1.69 2.008 2.794 2.802.792 2.585-5.908-.425-9.499-1.326-9.996-6.008-2.884m2.41 3.794c-.997 1.002-1.901-.495-1.005-1.798.598-1.101.798-1.102 1.2-.003.202.7.104 1.5-.195 1.8M447.042 399.593c.003 1.3.904 1.598 4.303 1.289 2.3-.206 4.198-.811 4.197-1.311-.002-.6-1.903-1.095-4.204-1.29-3.4-.29-4.3.012-4.296 1.312M465.775 412.144c-13.9.336-27.398.772-29.998.878l-4.8.113.328 10.7.328 10.798 15-.039c24.5-.164 57.698-.85 61.797-1.362 3.699-.51 3.699-.51 3.673-10.31-.019-7.2-.426-10.098-1.428-10.896-.903-.797-4.603-1.088-10.603-.872-5 .213-20.498.654-34.297.99m44.126 9.984.322 8.6-21.298.655c-11.699.431-28.898.876-38.297 1l-17 .245-.323-8.799-.323-8.7 10.8-.027c16.9-.045 62.797-1.365 63.196-1.866 1.696-1.404 2.603 1.393 2.923 8.892"/><path d="M474.784 415.82c-2.799.308-2.799.408-2.481 7.007.317 6.7.317 6.7 4.117 6.59 4.6-.213 7.294-2.42 6.187-5.117-.503-.999-.908-2.898-.911-4.198-.108-2.9-3.213-4.791-6.912-4.282m4.31 3.69c.002.9-.896 1.501-2.496 1.506-2.4.006-3.203-.992-1.806-2.296 1.197-1.303 4.298-.71 4.302.79m1.016 5.996c.002.9-.896 1.503-2.496 1.507s-2.502-.593-2.504-1.493.896-1.503 2.496-1.507 2.501.593 2.504 1.493M447.689 417.591c-5.286 5.414-.956 16.903 4.531 11.889 2.793-2.508 2.274-10.106-.732-12.099-1.903-1.195-2.403-1.193-3.8.21m4.01 3.89c1.314 5.196-1.377 8.703-3.588 4.61-1.407-2.697-.518-7 1.482-7.005.8-.002 1.703 1.096 2.106 2.395M463.69 417.65c-2.395 2.306-2.885 5.907-1.377 9.103 1.609 3.396 5.41 3.786 7.402.78 1.195-1.802 1.094-2.402-.211-4.299-.803-1.198-2.406-2.193-3.506-2.19-1 .002-1.901-.496-1.903-1.096-.002-.7 1.098-.902 2.999-.607 3.401.69 3.998-.71 1.093-2.303-2.503-1.294-2.703-1.293-4.498.611m4.117 6.989c.806 2.098-1.289 4.203-2.793 2.707-1.303-1.297-.51-4.299 1.09-4.303.6-.001 1.301.697 1.703 1.596M485.288 417.193c-1.396 1.404-1.59 3.804-.19 3.8.5 0 1.298-.803 1.895-1.805.797-1.302 1.197-1.403 2.199-.505 1.002.997.904 1.597-.593 2.701-1.797 1.305-1.796 1.405.305 2 3.003.992 2.81 3.592-.29 3.6-1.4.004-2.502-.493-2.503-.993-.002-.6-.503-.999-1.103-.997-1.8.004-.491 3.2 1.61 3.995 1.102.398 3.002.393 4.3-.11 2.098-.806 2.197-1.307 1.785-6.006-.308-2.899-1.115-5.597-1.816-5.995-1.903-1.195-4.203-1.089-5.6.315M436.592 418.62c-.298.801-.695 2.202-.992 3.103-.794 2.502.409 3.499 2.605 2.093 1.598-1.004 2.098-.905 2.8.193 1.607 2.496.112 4.3-2.99 3.608-3.602-.79-3.798.71-.393 2.5 2.203 1.195 2.702 1.094 4.498-.511 1.098-1.003 1.993-2.605 1.991-3.505-.005-1.9-3.013-4.992-4.913-4.987-.7.001-.901-.498-.603-.999.299-.6 1.498-1.004 2.598-1.007 1-.002 1.898-.505 1.897-1.005-.004-1.6-6.003-1.184-6.498.517M455.606 424.07c-.797 1.203 2.006 2.395 3.504 1.491.499-.3.997-1.002.996-1.602-.004-1.2-3.704-1.19-4.5.112M471.286 454.53c.128 10.7.051 19.6-.149 19.8l-4.394 2.212c-4.693 2.412-5.287 4.713-2.475 9.306 2.008 3.195 2.208 3.294 4.305 1.889s5.993-2.516 11.69-3.43c3.799-.61 15.298-.84 16.9-.345.9.298 1.798-.505 2.494-2.207.794-2.302.592-3.201-1.414-5.296-3.41-3.59-8.213-4.878-16.51-4.157l-7.199.72-.72-7.699c-.311-4.2-.633-12.698-.65-18.998-.019-7.2-.43-11.3-1.13-11.297-.7.001-.883 6.402-.748 19.502m14.256 21.462c.606 2.199-.793 2.803-1.598.705-.302-.8-.902-.698-1.898.705-1.595 2.104-5.296 1.813-5.301-.387-.003-.9 1.295-1.703 3.494-2.109 1.899-.405 3.798-.71 4.098-.81.4-.001.902.797 1.205 1.896m-10.3.227c.007 2.4-1.69 3.905-4.589 4.212-1.699.205-2.997 1.008-3.194 2.009-.495 2.201-1.895 2.005-2.502-.494-.303-1.299-.105-1.9.596-1.601.7.198 1.7-.205 2.398-.907.698-.701 2.197-1.005 3.298-.708s2-.005 1.998-.605c-.001-.6-.602-1.099-1.202-1.097-.9.002-.801-.398.197-1 1.997-1.306 2.997-1.209 3 .191m16-.141c.002.6.702.898 1.502.596 1.698-.705 3.002.892 1.504 1.796-.599.401-1.7.204-2.4-.394-.802-.698-1.903-.995-2.603-.893-.7.202-1.5-.296-1.703-.996-.301-.699.397-1.2 1.597-1.204 1.2-.003 2.102.495 2.103 1.095M566.603 461.08c-.198.7-.283 6.5-.166 12.8l.33 11.4 44-.115 44-.116-.034-12.5-.032-12.5-43.8-.185c-35.501-.107-43.9.115-44.298 1.216m85.43 11.277.327 10.199-30.8.28c-16.9.045-35.1.292-40.3.306-5.199.113-10.099.026-10.7-.172-.9-.298-1.308-3.297-1.327-10.297l-.025-9.9 40.299-.305c22.1-.258 40.699-.407 41.2-.308.6-.002 1.11 4.397 1.326 10.197"/><path d="M576.912 464.353c-.4.401-.693 2.602-.687 5.002.01 3.7.21 4.2 2.01 3.695 1.598-.404 2-.005 2.005 1.995.007 2.8-1.489 4.403-2.493 2.706-.904-1.498-2.5-.193-1.796 1.505.906 2.497 4.804 1.787 6.097-1.016 1.392-3.104-.119-7.2-3.021-8.092-2.502-.694-1.807-2.796 1.092-3.203 1.199-.203 1.997-.905 1.796-1.505-.404-1.399-3.906-2.09-5.003-1.087M588.312 464.623c-1.797 1.105-2.574 9.807-1.165 13.303 2.316 5.994 6.106 2.184 6.085-6.016-.014-5.3-2.423-8.793-4.92-7.287m2.922 8.093c.012 4.9-1.281 7.303-2.389 4.406-.805-2.098-.823-8.898-.025-9.7 1.496-1.404 2.402.694 2.414 5.294M609.214 465.169c-1.695 2.104-2.375 9.506-1.067 12.702 1.31 3.397 4.41 3.689 5.702.486 1.49-3.304.482-6.702-2.221-7.895-2.603-1.193-3.006-2.292-1.31-3.396.6-.302 1.5-.104 1.903.595.602.898.902.897 1.5.096.697-1.202-1.111-4.097-2.511-4.094-.4.001-1.298.704-1.996 1.506m3.026 10.092c.009 3.1-2.292 2.806-2.8-.393-.205-1.5.194-2.2 1.194-2.203 1.1-.003 1.602.896 1.606 2.596M618.632 472.144c.123 8.5.123 8.5 2.923 8.492 3.3-.008 5.49-3.614 3.882-6.61-.603-1.098-.808-3.198-.512-4.699.591-3.301-1.115-5.697-4.215-5.688-2.2.005-2.3.306-2.078 8.505m4.591-3.512c.003 1.1-.395 2.001-.995 2.003-.5 0-1.002-.898-1.005-1.998s.495-2.001.995-2.002c.6-.002 1.002.897 1.005 1.997m.02 7.6c.003 1.3-.394 2.401-.994 2.403-.5 0-1.003-1.398-1.008-3.098-.004-1.7.393-2.8.994-2.402.6.298 1.004 1.697 1.008 3.097M631.212 464.311c-.661 14.802-.458 16.301 1.842 16.295 2.2-.006 2.798-1.007 1.494-2.404-.902-.897-.903-1.297-1.123-8.897-.108-3.1-.615-5.698-1.215-5.697-.5.002-1 .303-.998.703M639.732 472.089c.022 8.5.022 8.5 2.622 8.493 3.6-.01 5.294-2.314 4.386-5.712-.505-1.598-.711-4.098-.615-5.598.29-3.4-1.415-5.696-4.315-5.689-2 .006-2.099.506-2.078 8.506m4.491-3.412c.003 1-.395 1.901-.995 1.903-.5 0-1.003-1.198-1.007-2.598-.003-1.4.394-2.3.995-1.902.601.298 1.004 1.497 1.007 2.597m.722 8.298c-1.093 2.703-2.696 1.707-2.704-1.593-.008-3 .092-3.1 1.596-1.604.902.898 1.406 2.396 1.108 3.197M597.434 472.9c.504 1.498 5.705 1.785 6.1.284.1-.6-1.302-1.097-3.202-1.292-2.401-.294-3.2.008-2.898 1.007M507.844 476.634c-.3.4-.597 1.302-.595 2.102.002.7-.894 2.102-2.092 3.105-1.996 1.605-1.995 1.705-.191 3.3 1.002.898 20.529 10.947 43.359 22.487 54.972 27.556 80.808 41.189 116.662 61.695a13536 13536 0 0 0 28.042 15.927c4.406 2.388 11.216 6.27 15.022 8.46 14.622 8.562 14.723 8.662 17.718 7.054 2.197-1.106 2.795-2.207 2.788-4.707-.009-3.4-1.01-4.098-15.532-12.26a233 233 0 0 1-6.009-3.384c-2.203-1.194-6.009-3.384-8.513-4.778s-10.615-5.972-18.026-10.153c-18.428-10.451-29.243-16.423-44.564-24.383-7.11-3.781-15.221-8.06-18.025-9.553l-5.008-2.787-.552-19.998c-.33-11.3-.952-19.998-1.452-19.897-.5.202-.778 8.502-.65 19.002.239 15 .049 18.8-1.051 18.803-.7.002-5.807-2.485-11.314-5.47-19.228-10.45-89.419-45.167-90.017-44.565m44.16 23.185c22.93 11.54 42.156 21.29 42.758 21.788.601.498 7.41 3.98 15.12 7.86 11.916 5.969 43.06 22.587 56.98 30.451 18.127 10.253 30.545 17.12 32.347 17.915 1.302.597 2.304 1.394 2.305 1.794.001.5.402.8.902.798 1.2-.003 22.231 11.842 24.136 13.537 1.002.997 1.104 1.697.306 2.5-.898.901-1.998.604-4.502-.79-3.305-2.09-8.513-4.977-18.828-10.55-3.004-1.692-6.71-3.782-8.212-4.878-1.403-.997-2.805-1.793-3.105-1.792s-6.109-3.184-12.919-7.066c-6.71-3.983-14.822-8.462-17.826-10.154-3.005-1.592-6.71-3.782-8.213-4.878-1.403-.997-2.905-1.793-3.205-1.792s-2.804-1.393-5.708-2.985c-2.804-1.693-9.514-5.375-14.821-8.161s-12.117-6.369-15.121-8.06c-3.004-1.593-9.113-4.877-13.52-7.165-4.405-2.289-11.615-6.07-16.021-8.458-13.82-7.364-41.357-21.492-58.78-30.047-9.211-4.576-16.822-8.856-16.824-9.556-.002-.6.197-1.2.497-1.2.3-.002 19.324 9.448 42.254 20.889m-19.412-4.85c13.317 6.665 27.436 13.829 31.241 15.819 3.905 1.99 13.319 6.965 21.029 10.945s16.522 8.556 19.527 10.248c3.004 1.593 8.912 4.777 13.018 6.966s10.916 5.872 15.022 8.161c4.106 2.29 9.814 5.474 12.518 6.967 11.817 6.57 18.627 10.452 27.54 15.628 10.116 5.874 16.125 9.258 25.038 14.035 3.004 1.592 8.011 4.379 11.016 6.171s7.912 4.48 10.816 5.972c2.804 1.592 5.208 3.186 5.21 3.786.003 1.4-1.098.803-19.626-9.849-9.314-5.275-18.728-10.65-20.931-11.745-2.203-1.194-4.206-2.389-4.507-2.688-.502-.499-18.93-11.05-29.544-16.823a1304 1304 0 0 1-10.516-5.772c-7.01-3.882-13.519-7.365-26.036-13.832a1196 1196 0 0 0-20.027-10.448 4630 4630 0 0 0-19.527-10.249c-6.009-3.184-22.931-11.74-37.55-19.001-14.62-7.262-27.437-13.929-28.539-14.726-5.21-3.886 2.498-.706 24.828 10.435M476.97 487.015c-4.595 1.812-18.368 12.048-36.129 26.995-9.18 7.824-12.272 10.532-20.951 18.554l-4.988 4.514-23.2.16c-14.9.04-23.299.461-23.297 1.061 0 .5.102 1 .302 1 .1 0 9.401.275 20.702.545 11.3.37 20.602.746 20.802.846.1.1-5.784 6.215-13.064 13.634s-17.054 17.745-21.64 22.957c-4.687 5.212-8.675 9.723-8.974 10.023-2.993 2.908-5.98 7.616-5.975 9.516.008 3 4.516 6.088 6.512 4.483.798-.702 1.797-.905 2.298-.606 1.102.697 18.652-18.249 17.75-19.147-.602-.598-5.788 4.716-12.268 12.433-1.893 2.405-3.988 4.31-4.488 4.311-.6.002 2.689-4.107 7.276-9.219 10.27-11.227 29.818-31.278 27.227-27.871-.997 1.403-2.093 2.705-2.392 3.006-7.48 7.52-15.158 16.14-14.757 16.639.3.3 8.58-7.523 18.355-17.348 9.874-9.826 21.644-21.257 26.333-25.37 4.69-4.112 8.68-7.722 8.98-8.023.299-.3 2.993-2.508 5.986-5.015 2.994-2.508 6.087-5.116 6.785-5.818.798-.702 2.994-2.508 4.99-4.013 2.096-1.506 3.892-2.91 4.191-3.211 1.396-1.504 13.872-10.937 15.869-11.942 2.596-1.407 5.398-.914 12.105 2.068 10.613 4.673 92.12 45.66 94.625 47.553 1.103.897 2.504 1.593 19.529 10.949 6.31 3.483 12.619 7.067 14.02 7.963 1.403.896 5.009 3.087 8.013 4.68 5.809 3.184 15.624 8.958 30.347 17.92 4.808 2.887 12.92 7.766 18.029 10.853 15.524 9.459 25.141 15.734 26.445 17.33.702.799 1.207 2.597 1.31 3.997.007 2.3-6.637 23.717-8.925 28.523-.497 1.102-1.59 4.005-2.383 6.507-4.066 12.91-17.98 45.447-30.413 71.48-6.067 12.615-5.963 14.115 1.137 14.097 4.4-.012 4.4-.012 8.876-9.124 14.921-30.239 29.33-64.877 41.638-100.309 4.07-11.61 2.64-22.807-3.675-28.69-3.91-3.59-20.536-13.747-54.388-33.358a1642 1642 0 0 1-17.026-9.956c-2.504-1.493-7.411-4.38-11.016-6.27-3.605-1.891-9.414-5.176-13.019-7.067-3.605-1.99-9.914-5.374-14.02-7.463-4.105-2.19-10.013-5.274-13.018-6.966-11.717-6.57-88.015-44.07-95.323-46.85-9.009-3.477-8.809-3.478-15.102-.961m23.318 6.639c14.919 7.06 76.499 37.6 83.108 41.182 3.005 1.693 8.913 4.777 13.018 6.866 4.106 2.19 10.415 5.573 14.02 7.564 3.605 1.89 9.414 5.175 13.019 7.066 5.808 3.184 17.526 9.954 57.587 33.449 22.936 13.44 28.146 17.226 30.458 21.92 2.01 4.095 2.828 10.693 1.531 11.996-.498.502-6.951 18.519-9.332 25.925-.992 3.102-10.231 26.227-13.015 32.534-4.175 9.511-5.964 13.516-7.953 18.021-6.36 14.817-20.389 42.353-21.389 42.356-.7.002-1.6-.396-1.902-.995-.603-.898.093-2.5 8.745-21.023 2.386-5.206 5.866-12.915 7.655-17.02s3.976-9.31 4.97-11.513c7.854-17.52 23.936-62.563 25.315-70.767 1.084-6.002-1.425-9.596-10.54-15.272-4.507-2.788-8.615-5.477-9.316-5.976-1.202-.997-44.57-27.083-52.382-31.463a767 767 0 0 1-6.91-3.982c-3.106-1.891-15.023-8.56-22.234-12.541-2.403-1.194-6.409-3.484-9.013-4.977-15.523-8.66-60.583-31.641-93.325-47.556-15.72-7.559-19.822-8.648-25.417-6.533-3.296 1.309-25.85 19.268-41.014 32.707-4.39 3.812-9.778 8.626-11.973 10.532-6.585 5.617-35.31 34.692-44.482 45.116a1882 1882 0 0 0-11.167 12.53c-1.596 1.604-2.791 3.307-2.79 3.707 0 .5-.698.802-1.498.804-2.7.007-1.61-3.896 2.278-8.206 20.14-22.853 55.25-57.645 71.016-70.586 1.895-1.605 4.09-3.511 4.789-4.213.798-.702 2.993-2.508 4.99-4.013 2.095-1.505 4.59-3.512 5.687-4.515s5.19-4.313 9.181-7.324c3.892-3.01 7.784-6.02 8.483-6.722.698-.702 2.894-2.008 4.792-3.013 5.792-2.915 12.795-1.833 25.01 3.935m-25.281 7.066c-.4.301-.7.002-.702-.698s.297-1 .698-.702c.301.4.303 1 .004 1.4m-1.699.705c.001.3-1.496 1.503-3.192 2.708-3.295 2.209-3.295 2.209-.802-.398 2.294-2.406 3.992-3.31 3.994-2.31m-8.989 4.123c.001.3-.199.5-.498.501-.3.001-.501-.198-.502-.498 0-.3.199-.5.499-.502.3 0 .5.2.501.5m45.501.381c.302.5.403.999.103 1-.3 0-.801-.498-1.103-.997-.301-.6-.402-1-.102-1s.8.398 1.102.997m6.108 3.084c.403.799.103.8-1.4.004-1.201-.597-2.404-1.594-2.805-2.193-.402-.799-.102-.8 1.4-.004 1.201.597 2.404 1.594 2.805 2.193m-54.604-1.457c.001.3-.198.5-.498.501s-.5-.198-.502-.498c0-.3.2-.501.5-.502.3 0 .5.199.5.499m4-.11c0 .3-.498.8-1.197 1.203-.699.401-.799.302-.4-.4.696-1.201 1.595-1.604 1.597-.804m-6.992 3.118c.001.3-.198.5-.498.501-.3 0-.5-.199-.502-.499 0-.3.199-.5.499-.5.3-.002.5.198.501.498m61-.16c0 .3-.199.5-.499.501s-.5-.198-.5-.498c-.002-.3.198-.5.498-.502.3 0 .5.2.501.5m-58.996 1.655c.002.5-.497 1-1.097 1.002-.5.002-.701-.498-.403-.999.299-.6.798-1.002 1.098-1.002.2 0 .4.399.402.999m-4.998.513c0 .3-.2.5-.5.5-.3.002-.5-.198-.5-.498-.001-.3.198-.5.498-.501.3 0 .5.199.502.499m70.702 1.015c-.399.3-.999.302-1.4.003-.3-.399-.001-.7.699-.702.7-.001 1 .298.701.699m-72.997 1.19c-.399.302-.999.303-1.4.004-.3-.399-.002-.7.698-.702.7-.001 1.001.298.702.699m81.408 2.688c2.803 1.392 4.907 2.687 4.707 2.987-.498.402-10.811-4.472-10.813-5.171-.002-.8 1.099-.403 6.106 2.184m-85.599.624c-.997 1.102-2.195 2.005-2.795 2.007-.5.001.098-.9 1.395-2.004 3.093-2.508 3.693-2.51 1.4-.003m4.499-.512c0 .3-.199.5-.499.501-.3 0-.5-.199-.501-.499s.198-.5.498-.5c.3-.002.5.198.502.498m93.115 5.856c2.804 1.393 4.907 2.687 4.708 2.988-.499.401-10.812-4.472-10.813-5.172-.003-.8 1.099-.403 6.105 2.184m-103.102-.83c0 .3-.199.5-.499.501s-.5-.198-.501-.498.198-.5.498-.502c.3 0 .501.199.502.499m4-.01c0 .3-.199.5-.499.5-.3.002-.5-.198-.501-.498s.198-.5.498-.501c.3 0 .501.199.502.499m-2.995 1.907c0 .2-.798 1.002-1.696 1.705-1.596 1.304-1.697 1.204-.4-.4 1.295-1.603 2.094-2.105 2.096-1.305m99.703 1.04c-.4.3-1 .302-1.4.003-.301-.4-.002-.7.698-.702s1 .298.702.698m18.916 6.35c18.225 9.452 34.849 18.309 47.267 25.476 5.208 2.887 9.614 5.275 9.914 5.274.3 0 1.702.796 3.105 1.892 1.503.996 4.307 2.789 6.21 3.784 7.712 4.38 54.886 32.556 58.592 35.147 2.204 1.394 4.708 2.887 5.509 3.185 2.502.994 10.017 6.774 10.02 7.774.001.5-3.504-1.49-7.711-4.38-4.308-2.889-24.74-15.335-45.373-27.681-38.46-22.8-42.666-25.289-56.586-32.652-4.406-2.389-10.515-5.673-13.52-7.465-3.004-1.692-10.214-5.473-16.021-8.358-9.713-4.874-13.319-7.065-11.819-7.069.3 0 5.006 2.287 10.413 5.073m-123.606-2.177c-.798.803-2.294 2.006-3.393 2.61-1.398.603-1.1.102.796-1.603 3.192-2.908 4.491-3.412 2.597-1.007m109.997-1.388c0 .3-.199.501-.499.502-.3 0-.5-.199-.5-.499-.002-.3.198-.5.498-.501s.5.198.501.498m-113.997 1.299c0 .3-.199.5-.499.501s-.5-.198-.5-.498c-.002-.3.198-.501.498-.502.3 0 .5.199.501.499m116-.304c0 .3-.199.5-.499.502-.3 0-.5-.2-.501-.5s.198-.5.498-.5c.3-.001.5.198.502.498m2.002.995c.001.3-.198.5-.498.501s-.5-.198-.502-.498c0-.3.199-.5.499-.502.3 0 .5.199.501.499m-120.997 1.317c.001.3-.198.5-.498.501-.3 0-.5-.199-.502-.499 0-.3.2-.5.5-.5.3-.002.5.198.5.498m-.488 4.501c-.997 1.103-2.095 1.806-2.296 1.506-.3-.3.297-1.2 1.395-2.004 2.695-2.007 2.995-1.807.901.498m-3.501-.49c0 .3-.199.5-.499.5-.3.001-.5-.198-.501-.498 0-.3.199-.5.499-.501s.5.198.5.498m134.7-.153c-.4.3-1 .302-1.4.003-.301-.399-.002-.7.698-.702.7-.001 1 .298.702.699m-136.687 5.057c0 .2-.798 1.003-1.696 1.705-1.596 1.304-1.697 1.204-.4-.4 1.295-1.602 2.094-2.105 2.096-1.305m-3.99 4.11c.001.3-.198.501-.498.502s-.5-.198-.502-.498c0-.3.2-.501.5-.502.3 0 .5.199.5.499m-3.99 4.011c-1.295 1.404-2.593 2.307-2.794 2.008-.501-.499 3.588-4.51 4.588-4.512.3-.001-.497 1.101-1.793 2.504m-4.488 4.412c-.298.6-1.097 1.103-1.697 1.105-.6.001-.601-.599.196-1.5 1.396-1.705 2.597-1.308 1.501.395m-3.99 4.01c-.297.601-1.096 1.103-1.696 1.105s-.602-.598.196-1.5c1.395-1.704 2.596-1.307 1.5.396m301.31 79.412c-6.25 19.016-14.197 39.437-24.934 63.466-1.193 2.703-2.982 7.007-4.075 9.51-2.087 5.006-15.316 32.34-15.914 32.942-.2.2-.7.202-1-.097-.301-.4 2.084-6.206 5.366-13.014 5.868-12.116 12.332-26.033 15.414-32.84 11.332-25.73 14.511-33.839 26.225-66.87.794-2.402 1.69-4.104 1.89-3.905s-1.087 5.103-2.972 10.808M784.35 517.11c.002.5.704 1.398 1.506 2.096 1.704 1.396 2.133 12.495.535 13.499-.499.301-.997 1.103-.995 1.803.002.6 1 .197 2.197-1.006 2.793-2.807 2.972-10.808.462-14.701-1.707-2.496-3.71-3.49-3.704-1.69M729.458 520.154c-2.989 4.208-2.771 10.807.339 14.7 1.304 1.596 2.707 2.692 3.106 2.291s-.205-1.9-1.41-3.396c-2.507-3.194-2.72-8.293-.532-12.499 2.09-4.105 1.088-4.803-1.503-1.096M745.055 518.913c-1.197 1.203.406 2.4 3.306 2.392 2.8-.008 2.8-.008.914 4.997-1.987 5.305-2.38 8.006-1.08 8.003.6-.002 5.265-13.514 5.16-15.314-.002-.9-7.402-.98-8.3-.078M755.359 520.286c-1.194 2.303-.794 2.502 2.002.695 1.697-1.004 2.197-.906 3 .292.703 1.098.405 1.9-1.192 3.103-2.095 1.706-2.095 1.706.008 2.8 2.503 1.294 2.91 3.893.712 4.698-.899.403-2.3-.394-3.504-1.69-1.505-1.897-1.906-2.095-2.002-.695.01 3.7 5.216 6.186 7.81 3.58 1.495-1.505 1.586-5.005.183-6.401-1.504-1.496-.212-4.4 1.69-3.705.9.398 1.9-.105 2.497-1.006.498-1.001 1.596-1.704 2.296-1.706 2.5-.007 1.71 3.595-1.482 7.004-3.79 4.11-3.583 6.51.517 6.598 1.7-.004 3.6-.109 4.2-.41 1.997-.706.394-2.202-2.306-2.195-3 .008-3.002-.692-.01-3.9 3.988-4.31 3.375-9.108-1.125-9.097-1.4.004-3.197.809-3.895 1.71-1.296 1.704-1.496 1.705-2.8.008-1.806-2.295-5.306-2.186-6.6.317"/><path d="M776.366 522.931c-3.785 5.91-3.781 7.31-.081 7.3 1.7-.004 3.101.592 3.504 1.591.302.8 1.103 1.197 1.702.896.5-.401.798-1.002.497-1.301-.3-.3-.103-1.1.495-1.802.698-.802.697-1.402-.105-1.9-.5-.298-1.006-2.597-1.013-5.097-.006-2.4-.512-4.399-1.012-4.397-.6.001-2.394 2.106-3.987 4.71m3.007 2.792c.004 1.6-.593 2.502-1.493 2.504-1.8.005-1.802-.495-.508-3.098 1.393-2.604 1.993-2.406 2.001.594M276.774 526.84c-.198.7-.283 6.2-.168 12.3l.329 10.899 31.5-.083c17.3-.045 37.7-.198 45.299-.418l13.8-.336-.331-11.7-.331-11.699-44.8-.182c-36.401-.105-44.8.117-45.298 1.218m86.628 10.472.026 10-36 .295c-19.799.151-38.599.3-41.698.409l-5.8.015-.324-8.9c-.212-4.899-.124-9.499.174-10.2.397-1.1 9.096-1.324 42.096-1.51l41.5-.109z"/><path d="M286.183 530.215c-.299.4-.394 2.4-.289 4.3.108 3 .51 3.499 2.309 3.294 1.8-.204 2.2.195 2.207 2.694.008 3-1.29 4.004-2.495 2.007-.904-1.498-2.5-.193-1.796 1.505.907 2.597 5.205 1.786 5.898-1.016.99-3.802-.32-7.499-2.62-7.493-2.8.007-2.507-2.793.292-3.2 1.2-.204 2.098-.806 1.996-1.306-.303-1.2-5.005-1.887-5.502-.785M298.286 531.183c-1.994 2.305-1.772 10.805.334 12.899 2.907 2.892 4.8.187 4.782-6.513-.019-7.3-2.226-9.994-5.116-6.386m3.118 6.892c.008 3-.386 5.4-.886 5.402-1.1.003-2.12-7.294-1.426-9.996.99-3.603 2.297-1.006 2.312 4.594M319.393 533.928c.01 4 .212 4.5 2.211 4.194 2.5-.207 3.405 1.89 1.811 4.295-.896 1.302-1.096 1.303-1.9.005-1.204-1.797-2.602-.693-1.796 1.505 1.007 2.497 4.605 1.788 5.797-1.215 1.192-3.204-.22-7.3-2.62-7.294-.8.003-1.501-.896-1.504-1.996-.004-1.3.694-2.001 1.994-2.005 1.1-.003 2-.505 1.998-1.005-.002-.6-1.303-.997-3.003-.992-2.9.007-3 .208-2.988 4.508M330.388 531.999c-1.887 4.905-.368 12.1 2.734 13.093 2.803.992 4.781-7.313 2.968-12.508-1.41-3.896-4.312-4.289-5.702-.585m4.014 5.49c.013 4.8-1.183 6.502-2.391 3.306-.805-1.998-.815-5.798-.02-7.8 1.092-2.903 2.398-.507 2.411 4.493M343.282 529.565c0 .2-.09 3.8-.18 8.1-.181 6.901.021 7.7 1.721 7.696 1.2-.003 1.599-.504 1.196-1.603-.303-.9-.612-4.498-.621-7.998-.01-3.6-.417-6.4-1.017-6.398-.5.001-1 .103-1.1.203M352.1 536.542c-2.077 8.805-2.077 8.805-.177 8.8 1.1-.002 1.398-.703.893-2.502-.505-2.099-.306-2.5 1.594-2.504s2.1.394 1.606 2.496-.293 2.5 1.407 2.496c1.6-.004 1.999-.505 1.595-1.804-.302-.9-1.01-3.697-1.616-6.196-2.627-10.393-3.127-10.492-5.302-.786m3.3-.209c0 .5-.398 1.001-.998 1.003-.5.001-1.001-.497-1.003-.997-.001-.6.498-1.002.998-1.003.6-.002 1 .397 1.002.997M307.902 537.458c-.298.5.004 1.3.904 1.597 2.102.795 6.1.084 6.097-1.116-.003-1.4-6.204-1.883-7-.481M736.074 526.037c-1.596 1.504-.494 2.301 3.306 2.291 4.3-.011 5.396-1.414 1.793-2.405-3.002-.792-4.301-.688-5.1.114M793.307 538.587c-.2.2-10.698.728-23.397 1.061-33.498.988-50.796 1.733-51.695 2.336-1.397.903-.95 19.002.553 20.198 1.203.997 57.9-.151 73.397-1.492l7.298-.72-.623-8.598c-.73-11.698-1.134-13.197-3.334-13.19-1 .002-2 .204-2.2.405m3.428 10.791c.312 4.6.323 8.6-.076 9-.699.702-75.193 2.897-76.395 2.3-1.401-.696-.945-17.297.455-17.401 2.299-.306 48.096-1.626 61.795-1.862l13.6-.235z"/><path d="M759.823 544.675c-.299.7-.39 3.8-.183 6.7.314 5.2.414 5.399 3.415 5.691 1.9.195 3.899-.41 5.496-1.714 2.095-1.706 2.194-2.206 1.19-4.003-.704-1.099-1.008-2.698-.71-3.599.398-.8.094-2.2-.608-2.998-1.605-1.896-7.905-1.98-8.6-.077m7.406 2.28c.202.9-.697 1.302-2.697 1.307-2.1.006-3.101-.492-3.104-1.592-.005-1.9 5.096-1.613 5.8.285m.215 5.8q.004 1.5-2.996 1.508-3 .007-3.004-1.493t2.996-1.507 3.004 1.492M772.622 544.441c-1.396 1.404-1.59 3.804-.29 3.8.5 0 1.098-.702 1.496-1.503.695-1.902 3.595-2.01 3.6-.11.002.8-.796 1.703-1.695 2.105-1.598.604-1.498.804.505 1.599 3.002 1.092 2.91 3.892-.19 3.9-1.3.004-2.602-.593-2.904-1.292-.201-.6-.802-.898-1.201-.497-.399.4-.496 1.401-.194 2.3.906 2.098 7.305 1.981 8.1-.12.794-2.103-.526-9.7-1.828-10.596-1.703-1.096-4.102-.89-5.399.414M725.724 545.364c-1.698.704-2.295 1.806-2.29 4.006.008 2.7.209 3 2.507 2.393 1.799-.404 2.7-.107 3.103 1.092 1.007 2.598-1.19 4.203-3.693 2.71-1.803-1.195-2.003-1.095-1.699.504.406 2.2 4.308 2.89 6.404 1.284 2.993-2.508 1.079-8.003-2.821-7.993-2.5.006-2.305-1.794.194-2.2 1.2-.204 2.098-.706 2.097-1.306.096-1.3-1.204-1.497-3.802-.49M734.326 545.941c-1.794 2.205-1.476 9.204.43 11.2 1.403 1.396 2.003 1.394 4.2.188 2.097-1.105 2.494-2.006 2.484-6.006-.007-2.5-.513-5.099-1.215-5.797-1.705-1.696-4.304-1.489-5.9.415m4.913 5.188c.31 3.699.111 4.2-1.689 4.204-1.8.005-2.101-.595-2.112-4.595-.01-3.8.289-4.5 1.79-4.204 1.2.197 1.803 1.495 2.011 4.595M750.625 545.499c-1.696 1.704-1.476 9.304.328 10.799 2.004 1.695 6.201.484 6.995-2.118.893-2.603-2.217-6.195-4.815-5.488-1.1.303-1.7.005-1.402-.696.198-.7 1.597-1.104 3.098-1.008 1.7.095 2.6-.207 2.297-1.006-.504-1.699-5.005-1.987-6.501-.483m4.62 7.588c.203 1.4-.195 2.2-1.195 2.203-1.9.005-2.904-1.693-2.209-3.594.794-2.203 2.997-1.208 3.404 1.39M743.441 551.718c.003 1 .904 1.597 2.104 1.594 2.4-.006 2.094-2.305-.407-2.799-1-.197-1.7.305-1.697 1.205M757.627 584.48l.455 21.2-4.992 2.812c-12.982 7.034-15.68 8.142-16.583 6.744-.502-.799-.906-2.498-.91-3.898-.111-4.4-2.316-6.194-6.714-5.382-2.099.405-4.597 1.112-5.496 1.614-1.598.804-1.697 1.105-.291 3.201 2.309 3.494 3.034 13.292 1.248 18.397-.794 2.302-1.088 4.503-.588 4.801s2.9.193 5.4-.214c5.198-.713 6.194-2.016 7.275-9.519.686-5.302.686-5.302 11.672-10.83 6.091-3.116 11.284-6.03 11.583-6.43.398-.502.491-3.202.384-6.102-.208-2.8-.333-12.399-.456-21.399-.13-11.3-.443-16.199-1.243-16.197s-1.084 5.903-.744 21.202m-24.135 25.064c.504 1.298.707 2.698.408 3.099-.298.4.004 1.3.506 1.998 1.003 1.298.93 11.398-.168 12.4-.399.402-1.2.104-1.901-.594-.903-.898-.904-1.398-.005-1.9 1.298-.804 1.09-3.803-.63-11.199-1.315-5.696-1.315-5.996-.115-6 .6 0 1.402.997 1.905 2.196m-3.891 3.31c.005 1.9.41 3.499.91 3.498.5-.002.902 1.197.906 2.697.11 3.5-1.97 11.305-2.97 11.308-1.2.003-1.015-5.797.183-6.5.599-.302.997-1.103.996-1.603-.002-.6-.502-.699-1.201-.297-.799.502-.9.002-.604-1.398.397-1.201.194-2.5-.307-2.8-.6-.298-.704-1.498-.407-2.599.397-1.2-.007-2.7-1.11-3.897-1.605-1.795-1.605-1.895.895-1.902 2.4-.006 2.7.393 2.709 3.493m4.043 16.29c.003 1.3-1.195 2.203-2.196 1.605s-.106-2.4 1.294-2.403c.5-.002.9.397.902.797M238.133 702.24c-.999.404-1.29 4.004-1.266 13.004l.033 12.4 44.3-.316 44.198-.415.27-11.401c.084-6.4-.23-11.9-.732-12.398-1.003-.998-84.605-1.879-86.803-.873m83.734 12.682.028 10.6-39.2-.098c-21.601-.043-40.102-.295-41.002-.492-1.601-.396-1.805-1.696-1.827-10.396l-.026-9.9 41-.107 41-.107z"/><path d="M247.144 706.317c-.8.302-1.294 2.304-1.287 5.004.01 4 .212 4.4 2.01 3.794 1.699-.504 2-.205 2.006 2.395.008 3.1-1.389 4.204-2.295 1.806-.201-.6-.802-.898-1.201-.497-1.497 1.404.51 3.9 2.71 3.593 1.899-.205 2.397-1.006 2.587-4.506.292-3.401-.111-4.4-1.713-5.296-2.704-1.393-2.708-2.993-.108-3 1.3-.003 1.998-.705 1.994-2.005-.005-2-1.906-2.495-4.703-1.288M257.45 708.49c-2.786 5.308-1.563 14.105 1.937 14.095 3.8-.01 4.967-12.313 1.56-15.404-1.905-1.695-2.005-1.695-3.497 1.31m3.416 6.191c.01 3.6-.387 4.901-1.188 4.704-1.401-.497-2.318-6.994-1.425-9.497 1.093-2.803 2.6-.107 2.613 4.793M278.344 706.336c-.299.3-.496 1.601-.492 3.001.006 2.1.206 2.3 1.503 1.196 2.195-1.806 2.999-.508 1.707 2.496-1.392 3.103-1.575 9.504-.275 9.5.5-.001 1.094-2.103 1.387-4.803.293-2.601.884-6.103 1.18-7.803.592-2.802.391-3.201-1.91-3.595-1.4-.297-2.8-.293-3.1.008M288.851 708.908c-1.192 3.203.32 7.6 2.52 7.594.8-.003 1.502.696 1.504 1.596.003 1.1-.596 1.401-2.098.905-1.701-.595-2-.295-1.696 1.205.203 1.2 1.204 1.796 2.804 1.792 2.1-.005 2.698-.707 3.39-3.809 1.386-5.303-.229-11.1-3.13-11.491-1.7-.296-2.599.306-3.294 2.208m4.502.588c.903 1.398-.387 5.201-1.589 4.505-1.202-.797-1.214-5.497-.014-5.5.6-.002 1.301.496 1.603.995M301.746 706.974c0 .3-.09 4-.079 8.2-.086 5.3.32 7.8 1.12 7.798.6-.002 1.1-.303 1.099-.803l-.022-8.2c-.011-4.3-.42-7.5-1.02-7.497-.5 0-.999.202-1.098.502M266.366 714.567c-.399.601.702.998 2.402.994s3.4-.01 3.8.09c.4-.001.9-.403 1.098-1.003.496-1.401-6.504-1.483-7.3-.081M279.932 739.732l.026 10.1-70.901-.415c-61.602-.439-71.001-.314-72.098.989-.897 1.102-1.077 8.703-.517 31.701.344 16.7 1.03 88.098 1.616 158.797.585 70.698 1.037 128.597 1.137 128.697s433.5-.535 438.9-.749l3.699-.11-.334-51.199c-.174-28.2-.554-58.799-.778-67.898l-.343-16.7-9.21-3.675c-5.106-2.087-11.713-4.77-14.716-5.962-3.003-1.292-17.618-7.053-32.534-12.914-14.815-5.862-28.33-11.226-30.031-11.922-3.203-1.291-15.917-6.458-23.525-9.438-10.811-4.272-20.721-8.246-23.725-9.538-1.702-.796-3.404-1.391-3.804-1.39-.3 0-3.002-1.092-5.806-2.285-2.903-1.292-9.11-3.876-13.915-5.764l-8.809-3.377-.073-28c-.096-36.7-1.327-86.796-2.13-87.694s-41.704-1.591-90.804-1.463l-39.3.003-.026-10c-.016-6-.426-9.999-1.026-9.997s-.99 4.103-.973 10.203m130.135 13.259c.802.798 2.045 55.495 2.138 90.795l.063 24.1 4.804 1.787c4.204 1.589 18.92 7.65 26.729 10.93 1.702.696 8.409 3.378 15.016 5.96a1702 1702 0 0 1 16.016 6.359c2.203.994 26.428 10.63 53.757 21.46l49.751 19.669.33 11.1c.215 6.099.594 35.998.773 66.397l.445 55.2-219.6.574-219.499.575-.142-54.3c-.078-29.8-.368-64.3-.6-76.698-.333-12.4-.955-59.098-1.473-103.897l-.913-81.398 135.902.344c74.7.205 136.202.644 136.503 1.043"/><path d="m317.312 770.234-17.3.245.033 12.5.033 12.5 43.9-.115c27.8-.073 44.098-.515 44.297-1.116.198-.5.184-6.1-.033-12.4l-.33-11.499-26.7-.23c-14.701-.162-34.5-.11-43.9.115m67.928 10.822c.313 4.8.325 9.4.027 10.4-.296 1.5-3.995 1.61-40.996 1.607l-40.7-.093-.327-10.3-.327-10.198 40.9-.108 41-.007z"/><path d="M310.823 774.55c-1.198.704-1.794 2.206-1.787 4.906.009 3.5.31 3.899 2.21 3.694 2.499-.207 3.405 1.99 1.71 4.295-.796 1.102-1.196 1.203-1.599.205-.604-1.599-2.304-1.594-2.3.106.012 4.4 5.31 3.686 6.398-.917.793-2.902-1.82-7.895-3.418-6.891-.599.401-1 .002-1.002-.798s.895-1.702 2.095-2.005c1.199-.303 1.897-1.105 1.695-1.805-.604-1.698-2.005-1.994-4.002-.79M321.024 774.924c-2.093 2.606-1.869 12.005.337 14.2 1.805 1.695 1.905 1.694 3.3-.11 1.992-2.805 1.771-10.904-.436-13.598-1.705-2.096-1.905-2.095-3.201-.492m3.02 7.492c.007 2.7-.387 5.101-.886 5.403-1.198.803-2.315-5.694-1.523-8.796.99-4.003 2.394-2.007 2.409 3.393M341.722 774.07c-.4.301-.696 1.802-.592 3.202.004 1.4.305 1.999.604 1.298.198-.6 1.196-1.203 1.996-1.205.9-.003 1.302.596.904 1.497-1.191 3.203-1.77 11.505-.77 11.502.5 0 1.294-2.603 1.685-5.804.392-3.101 1.083-6.503 1.58-7.504.797-1.402.496-1.901-1.606-2.696-3.104-1.192-3.004-1.192-3.801-.29M353.024 774.84c-2.094 2.506-1.968 12.306.139 14.8 1.605 1.996 1.905 1.995 3.301.691 1.696-1.704 1.893-2.805 1.676-9.504-.11-3.8-.614-5.298-2.017-6.195-1.502-.996-2.202-.894-3.1.208m3.01 3.993c.007 2.6-1.391 3.303-2.496 1.506-.903-1.398.09-4 1.49-4.004.5-.001 1.003 1.098 1.006 2.498m.019 7c.006 2.6-1.392 3.303-2.496 1.506-.904-1.398.09-4 1.49-4.004.5-.001 1.002 1.097 1.006 2.497M364.043 782.212c.02 7.5 1.128 10.597 2.922 8.492 1.196-1.503-.34-15.7-1.642-16.196-1-.297-1.296 1.704-1.28 7.704M330.044 782.4c0 .5 1.602.996 3.602.991 2.1-.005 3.3-.408 2.898-1.007-.302-.6-1.903-.995-3.603-.991-1.6.004-2.899.408-2.897 1.008M344.057 825.864c.141 15.7.075 28.5-.325 28.501-.6.002-8.516-5.978-22.545-17.241-.802-.698-3.508-2.79-6.013-4.684-8.717-6.778-16.034-13.158-27.864-24.427-4.611-4.388-8.92-8.077-9.521-8.176-.7-.198-1.998.906-3.094 2.309-1.793 2.604-1.793 2.604 3.521 8.09 10.227 10.374 21.252 19.745 21.649 18.444.298-.601.897-.903 1.498-.604.601.398.503.998-.296 1.5-.699.402-1.098.903-.897 1.103.3.2 4.31 3.589 9.02 7.476 8.317 6.879 36.373 28.005 47.192 35.477 13.525 9.365 30.553 19.92 49.48 30.47 18.127 10.053 63.483 31.634 72.49 34.41 2.102.595 2.302.495 1.598-1.103-.403-1.1-1.008-2.898-1.211-4.197-.303-1.2-.906-2.198-1.406-2.197-.5.002-.801-.497-.703-1.098.397-1.4-.504-1.798-12.218-6.868-5.206-2.286-12.214-5.368-15.418-6.76-10.312-4.672-39.55-19.096-44.457-21.983-2.604-1.493-10.316-6.073-17.227-10.155-6.91-3.982-12.72-7.567-13.02-7.866-.301-.3-3.006-2.092-6.011-3.984s-6.11-3.984-6.812-4.682-1.704-1.296-2.104-1.295c-.5.001-2.403-1.294-4.208-2.989-1.904-1.595-3.707-2.99-4.007-2.99-.3.001-1.502-.795-2.705-1.792-2.004-1.695-2.108-2.895-2.356-21.194-.26-23-1.004-39.998-1.904-39.995-.3 0-.367 12.8-.126 28.5m-64.647-17.83c2.309 3.193 1.709 3.195-1.3.003-1.303-1.397-1.906-2.495-1.406-2.497s1.703 1.196 2.706 2.493m5.114 5.086c.302.8.203 1.2-.398.9-.6-.298-1.002-.996-1.004-1.596-.004-1.4.697-1.102 1.402.696m5.6-.115c0 .3-.2.5-.5.501s-.5-.198-.5-.498c-.001-.3.198-.5.498-.502.3 0 .5.2.502.5m-2.292 3.206c-.4.301-1 .303-1.4.004-.301-.4-.002-.7.698-.702s1 .297.702.698m4.312 4.489c.001.6-.699.502-1.5-.196-.803-.698-1.505-1.696-1.507-2.196-.001-.6.7-.502 1.5.196.803.698 1.505 1.696 1.507 2.196m17.024 9.255c0 .3-.199.5-.499.502-.3 0-.5-.199-.501-.499 0-.3.199-.5.499-.501s.5.198.501.498m-3.294 2.209c-.4.301-1 .303-1.4.004-.301-.4-.002-.7.698-.702s1 .297.702.698m4.302.789c0 .3-.199.5-.499.501-.3 0-.5-.199-.501-.499s.198-.5.498-.5c.3-.002.501.198.502.498m2.512 4.493c.3.5.402 1 .102 1s-.801-.498-1.102-.997c-.302-.6-.403-1-.103-1s.801.398 1.103.997m7.002.982c1.003 1.097 1.605 1.996 1.305 1.996-.3.001-1.302-.896-2.305-1.994s-1.605-1.995-1.305-1.996 1.302.896 2.305 1.994m-3.493 2.509c0 .3-.199.5-.499.501s-.5-.198-.501-.498.198-.5.498-.502c.3 0 .5.199.502.499m7.015 5.682c.001.6-.6.501-1.5-.196-.803-.698-1.505-1.396-1.505-1.596s.7-.102 1.5.196c.801.398 1.503 1.096 1.505 1.596m4.995-1.713c0 .3-.199.5-.499.5-.3.002-.5-.198-.5-.498-.002-.3.198-.5.498-.501.3 0 .5.199.501.499m.013 5c.001.3-.198.5-.498.5-.3.002-.501-.198-.502-.498 0-.3.199-.5.499-.501.3 0 .5.199.501.499m7-.019c.001.3-.198.5-.498.502-.3 0-.501-.2-.502-.5 0-.3.199-.5.499-.5.3-.001.5.198.501.498m2.507 2.494c.301.499.402.999.102 1-.3 0-.8-.498-1.102-.998-.302-.599-.403-.999-.103-1 .3 0 .801.398 1.103.998m-4.998 1.013c.302.599-.098.7-.899.402-1.801-.695-2.103-1.394-.703-1.398.6-.002 1.3.397 1.602.996m3.507 2.49c0 .3-.199.501-.499.502-.3 0-.5-.199-.501-.499 0-.3.199-.5.499-.501.3 0 .5.199.5.499m2.005 1.995c0 .3-.199.5-.499.502-.3 0-.5-.199-.5-.499-.002-.3.198-.5.498-.501s.5.198.501.498m3.7.19c-.399.302-.999.303-1.4.004-.3-.399-.001-.7.699-.701s1 .297.702.698m1.811 4.096c-.299.3-1.1.003-1.801-.695-.903-.998-.803-1.098.598-.502 1.001.297 1.503.896 1.203 1.197m6.513 4.683c0 .3-.199.5-.499.501s-.5-.198-.501-.498.198-.501.498-.502c.3 0 .5.199.502.499m9.51 4.275c-.298.3-1.1.003-1.8-.695-.904-.998-.804-1.098.598-.502 1 .298 1.502.896 1.203 1.197m11.216 5.87c-.399.302-.7.003-.702-.697-.001-.7.298-1.001.699-.702.3.399.302.999.003 1.4m13.32 7.766c.001.3-.198.5-.498.501-.3 0-.5-.199-.501-.499s.198-.5.498-.5c.3-.002.5.198.502.498m8.014 4.979c0 .3-.199.5-.499.501s-.5-.199-.501-.498c-.001-.3.198-.501.498-.502.3 0 .501.199.502.499m7.71 4.18c-.398.3-.998.302-1.4.003-.3-.399-.001-.7.699-.701s1 .297.702.698"/><path d="M255.024 813.197c-1.498.804-3.195 2.108-3.892 2.91-1.695 2.105-.48 7.802 2.63 11.393 2.507 2.994 2.507 2.994-.984 6.503-1.995 1.905-3.59 3.91-3.588 4.61.002.6 1.808 2.995 3.914 5.29 3.21 3.39 4.21 3.988 5.208 2.886 1.895-1.705 3.196-1.509 4.702.887 1.105 1.797 1.106 2.397-.19 3.8-2.094 2.406-1.992 3.006.914 5.298 1.403 1.097 2.507 2.494 2.508 3.194.005 1.8 6.32 7.583 8.32 7.578 1-.003 2.599-.507 3.597-1.21 1.597-1.004 2.899-.407 8.71 3.878 8.817 6.377 19.236 13.55 27.45 18.828a340 340 0 0 1 7.714 5.28c.701.598 1.502 1.096 1.802 1.095.4 0 2.504 1.294 4.808 2.888 2.304 1.494 6.11 3.784 8.513 4.977s5.21 3.787 6.716 6.083c2.21 3.594 3.01 3.992 6.51 3.983 2.6-.007 5.703.985 9.008 2.976 2.804 1.593 5.308 2.986 5.508 2.986s2.704 1.393 5.608 2.985c2.804 1.693 5.407 2.786 5.706 2.485.898-.902-.805-2.098-12.02-7.868-7.01-3.682-11.815-5.57-14.115-5.563-3 .007-4.703-1.288-4.709-3.488 0-.1 1.7.295 3.803 1.09 2.002.695 4.703 1.288 5.904 1.384 1.3-.003 5.304 1.587 9.009 3.577 19.427 10.25 23.632 12.338 24.131 11.937.3-.301-.003-1.1-.504-1.799-.602-.698-1.307-2.497-1.711-4.095-.506-2.2-2.51-3.694-11.422-8.17-5.907-2.985-12.016-6.27-13.719-7.265-1.602-.996-5.007-2.987-7.511-4.38-4.006-2.39-5.007-2.587-8.005-1.68-3.197 1.01-3.997.811-10.508-3.172-11.017-6.57-33.256-21.513-41.773-27.99l-7.816-5.88-.022-8.5-.022-8.5 9.32 7.776c5.011 4.287 9.421 7.975 9.722 8.374.3.3 5.311 4.186 11.223 8.671 16.232 12.258 39.572 27.497 57.898 37.549 6.61 3.582 48.564 24.273 57.374 28.25 16.02 7.158 20.724 9.145 34.539 14.51 6.707 2.682 11.913 5.168 11.514 5.569-.499.401-4.097 1.21-8.195 1.821-7.097 1.119-7.497 1.12-11.003-1.27-2.004-1.396-4.808-2.988-6.31-3.684-1.502-.596-2.504-1.594-2.206-2.095.897-1.402-.712-4.798-2.312-4.793-.8.002-1.698.904-1.995 2.005-.594 2.201-1.493 2.504-4.097 1.11-.902-.597-4.806-2.187-8.71-3.677-12.212-4.668-13.514-5.464-12.92-7.966.395-1.601-.209-3.1-2.013-4.895-2.607-2.593-4.608-2.988-4.903-.987.002.6.803 1.198 1.904 1.395 2.2.394 3.405 1.891 3.41 4.291.005 1.6-.295 1.601-4-.09-5.205-2.286-5.506-2.685-4.011-4.589 1.694-2.104-.614-5.098-2.61-3.393-.698.602-2.597.807-4.298.411-1.601-.296-3.2-.191-3.5.31-.895 1.502 2.31 3.793 10.72 7.671 4.206 2.09 7.712 4.28 7.714 5.08.005 1.8-.095 1.8-4.701-.487-2.103-1.095-8.21-3.979-13.517-6.465-9.712-4.375-12.217-6.268-7.314-5.38 1.7.395 2.5.093 2.498-.807-.003-.9-1.104-1.398-3.004-1.393-1.6.005-2.999.408-2.998.908.002.5-.797 1.102-1.696 1.305-1.1.303 2.507 2.593 9.215 5.876 11.315 5.67 44.152 19.684 50.757 21.767 3.303.991 3.704 1.49 4.013 4.79.412 4.498 3.617 6.39 11.718 6.769 4.5.288 5.7-.015 6.795-1.618 1.794-2.505 8.093-2.821 9-.424.302.9.005 2-.694 2.402-1.698 1.005-.49 4.001 1.61 3.996.9-.002 2.702.893 4.105 1.99 1.403 1.095 3.505 1.99 4.505 1.987 1.1-.003 2.203.895 2.506 1.994.404 1.599 1.405 1.996 4.305 1.989 3.2-.009 3.901.39 5.008 2.986 1.71 3.996 2.608 2.994 1.097-1.202-1.007-2.698-.91-3.498.587-5.002 1.596-1.504 2.495-1.607 7.297-.82 3.002.593 8.104 1.28 11.205 1.572 5.801.684 5.801.684 10.289-4.227 5.783-6.216 6.978-8.319 5.276-8.914-.7-.198-5.304-1.486-10.307-2.873-15.411-4.06-26.92-7.53-29.223-8.724-2.604-1.293-4.5-.188-2.297 1.206.801.598 4.004 1.69 7.007 2.582 14.21 4.063 22.418 6.841 21.018 7.145-.9.102-7.003-1.282-13.508-3.165-6.605-1.882-12.408-3.067-12.807-2.566-.499.401 1.704 1.495 5.007 2.387 3.202.891 7.205 1.98 8.806 2.477 1.701.495 6.305 1.683 10.307 2.573 3.902.89 7.205 2.08 7.207 2.58s-.598.902-1.198.904c-1.8.005-18.91-3.65-20.912-4.445-1.1-.397-3.397 1.109-7.188 4.419-3.392 3.208-6.387 5.116-7.887 5.12-3.4.01-4.102-.99-2.208-3.194 2.094-2.306.387-4.801-3.413-4.791-1.3.003-3.202-.792-4.105-1.89-2.306-2.593-7.209-3.48-9.604-1.674-1.098.903-3.396 1.609-5.196 1.613-1.7.005-3.499.41-3.797 1.01-.797 1.302-4.197 1.311-5 .013-1.105-1.797 7.184-6.218 13.681-7.135 13.395-1.936 14.894-2.24 15.392-3.04.299-.502.098-.901-.502-.9s-5.405-1.785-10.81-4.071c-5.407-2.186-12.014-4.969-14.817-6.061-2.703-1.193-7.208-3.082-10.01-4.274-2.704-1.193-6.007-2.484-7.208-2.881s-5.306-2.186-9.211-4.076c-4.005-1.89-7.41-3.48-7.71-3.48-.2 0-11.413-5.37-24.73-11.935-26.535-13.131-43.46-22.587-60.29-33.843-10.017-6.673-34.363-24.31-35.567-25.807-.3-.299-3.408-3.09-7.016-6.081-15.735-13.16-41.1-37.993-39.501-38.597.7-.202 7.014 5.382 14.032 12.363 30.078 29.822 64.947 55.93 102.1 76.533 11.017 6.071 53.871 26.76 68.087 32.722 11.413 4.87 20.522 8.546 21.022 8.545.4 0 2.102.595 3.804 1.39 7.909 3.38 14.114 5.563 16.014 5.558 3.4-.009.797-1.402-8.812-4.877-9.209-3.276-10.51-3.772-16.517-6.356-1.902-.895-5.706-2.386-8.51-3.478-2.702-1.093-7.708-3.18-11.011-4.671-3.304-1.492-7.61-3.38-9.511-4.175-9.611-4.075-56.673-27.752-64.586-32.432-10.716-6.371-28.947-18.224-36.262-23.705-2.905-2.092-7.915-5.779-11.021-8.17-13.025-9.567-29.964-24.322-44.602-38.884-7.018-6.982-13.133-12.666-13.533-12.565-.5.101-1.998.705-3.396 1.51m14.542 16.062 13.635 13.164.021 8.4c.023 8.5.023 8.5-3.08 7.408-2.803-1.092-3.303-.99-4.997 1.214-.997 1.302-1.892 3.205-1.888 4.405.005 2 .005 2-2.1.105-2.506-2.293-4.92-7.687-4.93-11.387-.008-2.9-5.23-11.486-8.034-12.98-1.102-.596-2.301-.493-3.699.51-1.098.803-2.297 1.107-2.698.808-1.503-1.496-.309-3.6 4.38-8.012 2.793-2.607 4.986-5.013 4.985-5.413s-1.807-2.895-4.014-5.39c-4.112-4.789-5.018-6.886-2.616-6.293.7.199 7.516 6.18 15.035 13.461m-13.216-5.965c3.008 2.892 3.714 5.29 1.414 5.296-1.7.004-5.612-4.585-5.617-6.585s1.095-1.703 4.203 1.289m2.852 19.692c.002.8-.495 1.802-.995 2.103-1.298.803-4.203-1.39-3.406-2.591.896-1.503 4.397-1.012 4.4.488m5.029 11.087c0 .3-.199.5-.499.501s-.5-.198-.501-.498c0-.3.199-.5.499-.502.3 0 .5.2.5.5m26.135 13.232c16.532 12.356 49.689 34.07 51.989 34.064 1.1-.003 3.408 2.99 2.81 3.592-.3.301-5.206-2.186-10.815-5.471-5.609-3.386-10.416-6.073-10.616-6.073-.3.001-1.001-.497-1.702-.995-.702-.598-6.112-4.284-12.222-8.168-6.01-3.884-11.22-7.37-11.52-7.67-.301-.4-5.11-3.887-10.72-7.972-5.711-3.985-10.321-7.673-10.322-8.173-.006-2.2 3.399-.409 13.118 6.866m-13.109-3.266c.002.8-.396 1.501-.996 1.503-.5.001-1.002-.698-1.004-1.498s.496-1.501.996-1.502c.6-.002 1.002.697 1.004 1.497m77.602 38.997c9.814 5.174 12.82 7.366 11.623 8.57-1.496 1.504-7.805-1.78-8.612-4.378-.705-1.998-3.407-2.89-7.406-2.58-1.4.103-2.902-.593-3.806-2.09-1.505-2.097-1.406-2.197.794-2.203 1.3-.003 4.704 1.188 7.407 2.681m1.012 4.297c.401.6-.498 1.002-1.898 1.005-1.4.004-2.601-.493-2.602-.993-.002-.6.897-1.002 1.897-1.005 1.1-.003 2.301.394 2.603.993m23.324 9.24c4.908 2.987 6.512 4.682 4.112 4.689-1.6.004-13.916-6.064-13.918-6.864-.003-1.4 1.394-2.204 2.896-1.608.9.298 4.005 1.99 6.91 3.782m27.241 15.628c.001.5-.397 1.001-.897 1.002-.6.002-1.302-.496-1.603-.995-.302-.6.097-1 .897-1.003.9-.002 1.601.396 1.603.996m29.242 16.024c8.409 3.278 15.616 6.259 16.117 6.557 1.503.896-.394 2.201-2.096 1.406-.901-.498-8.009-3.38-15.717-6.359-7.608-2.98-14.115-5.863-14.317-6.563-.202-.599-.103-1.1.197-1.1s7.407 2.68 15.816 6.059m21.927 10.442c1.104 1.397 1.005 1.898-.99 3.503-3.194 2.608-4.094 2.41-4.103-.89-.011-4.4 2.485-5.706 5.093-2.613m70.42 7.216c.703 1.198-.197 1.2-3 .008-1.903-.795-1.903-.895.197-.9 1.2-.104 2.501.293 2.803.892m4.505 2.188c.004 1.4-4.982 6.813-6.182 6.816-1.6.004-.807-2.598 1.686-5.304 2.693-2.907 4.491-3.512 4.496-1.512m-17.595 1.846c7.605 1.78 9.608 2.975 9.615 5.675.004 1.6-.596 1.602-10.5.128-9.003-1.277-10.505-1.973-10.514-5.373-.007-2.9.992-3.003 11.4-.43m-30.4.08c.001.5-1.097 1.003-2.497 1.006s-2.501-.493-2.503-.993c-.001-.6 1.098-1.003 2.498-1.007 1.4-.003 2.5.394 2.502.994m15.317 6.46c-2.594 2.306-7.29 3.419-7.295 1.819-.001-.4 1.893-2.705 4.187-5.011 4.288-4.411 4.288-4.411 5.095-1.814.806 2.198.408 3-1.987 5.006"/><path d="M258.178 833.989c.009 3.2 2.413 4.994 5.511 4.185 4.697-1.212 2.483-6.606-2.717-6.592-2.3.006-2.799.407-2.794 2.407m5.701.285c-.4.301-1 .303-1.4.004-.3-.4-.002-.7.698-.702s1.001.297.702.698m-.995 1.903c-.3.3-1.199.403-1.9.105-.8-.298-.501-.6.599-.602 1.1-.103 1.7.196 1.301.497M291.852 862c-.595 1.802 1.608 2.997 3.905 2.09 1.998-.705.79-3.601-1.51-3.595-1 .002-2.097.705-2.395 1.506M291.992 877.2c-1.098 1.003-.784 6.103.317 6.8.601.398.998-1.003.991-3.403-.01-4.2-.212-4.6-1.308-3.396M328.015 886.006c-1.596 1.604-.591 3.402 1.909 3.395 1.9-.005 2.498-.506 2.195-1.706-.305-1.899-2.907-2.892-4.104-1.689M291.33 892.002c.007 2.5.512 4.499 1.012 4.498.6-.002.995-2.003.988-4.503-.006-2.5-.411-4.499-1.011-4.497-.5.001-.995 2.002-.989 4.502M468.335 893.739c.004 1.2.507 2.499 1.008 2.797 1.302.797 1.296-1.503-.01-3.5-.802-1.198-1.002-1.097-.998.703M291.366 905.702c.013 4.9.512 4.699 1.299-.503.295-2 .19-3.7-.41-3.7-.5.002-.895 1.903-.889 4.203M471.86 903.23c.71 3.698 2.32 7.794 3.02 7.792.8-.002-.613-5.199-2.22-7.994-1.407-2.497-1.407-2.497-.8.202M312.387 913.447c-1.098 1.103-2.292 3.206-2.588 4.607-.891 3.502 2.023 8.995 5.125 9.787 2.102.494 2.203 1.194 2.839 14.792.42 7.9.745 17.098.754 20.498l.016 6.3-25 .066c-16 .042-24.999.465-24.997 1.065.004 1.6 51.003 1.167 51.099-.434.098-.6.173-10.4.244-21.5l.046-20.4 3.894-2.21c4.294-2.412 6.681-7.318 3.979-8.311-.801-.298-1.404-1.296-1.406-2.296-.01-3.8-10.714-5.272-14.005-1.964m9.004 1.877c2.413 4.593-.17 11.1-4.47 11.111-3.3.01-5.507-2.585-5.517-6.485-.005-1.8.689-4.102 1.587-4.904 2.194-2.306 7.094-2.019 8.4.278m2.712 4.293c-.298.8-.599.501-.602-.599-.103-1.1.196-1.7.497-1.301.3.3.403 1.199.105 1.9m2.706 2.293c-.398.8-.796 1.502-.996 1.502s-.402-.699-.404-1.499.396-1.5.996-1.502c.5-.002.702.698.404 1.499M291.091 915.203c-1.097 1.003-.778 8.302.322 8.3.6-.002.995-2.003.988-4.503-.012-4.6-.213-5-1.31-3.797"/><path d="M335.895 916.786c-3.79 3.81-3.073 10.208 1.533 12.596 1.602.796 2.702.693 4.998-.713 1.598-.905 3.197-1.509 3.397-1.21.501.4.774 28.099.766 63.399l.03 11-38 .4c-20.9.154-37.998.699-37.997 1.099s17.502.754 39.002.898l39 .098-.1-38.3-.1-38.4 6.498-.617c3.6-.41 7.297-1.12 8.296-1.622 1.398-.803.897-1.302-3.308-3.091-2.803-1.193-7.206-2.381-9.807-2.674-2.901-.393-5.303-1.287-6.006-2.285-2.208-3.094-5.409-3.386-8.202-.578m6.303 1.183c3.106 2.092 3.019 6.892-.276 9.001-1.298.803-2.897 1.308-3.498.91-1.202-.798-1.311-4.497-.111-4.5.5-.002.697-.902.394-2.002-.404-1.599-.804-1.798-1.902-.895-2.395 1.907-2.7.207-.505-1.998 2.493-2.507 2.993-2.608 5.898-.516m6.014 5.084c-.494 2.502-2.793 2.808-2.8.408-.002-1.2.595-2.102 1.595-2.104.9-.003 1.402.696 1.205 1.696m3.502.791c-.298.801-.896 1.503-1.396 1.504-1 .003-1.206-2.397-.309-3.3 1.097-1.102 2.401.294 1.705 1.796m4.7-.012c.002.8-.696 1.502-1.496 1.504s-1.502-.696-1.504-1.496.696-1.502 1.496-1.504 1.502.696 1.504 1.496m-19.999.552c.002.5-.197 1-.397 1.001-.3.001-.801-.497-1.103-.997-.301-.599-.102-1 .398-1 .6-.002 1.1.396 1.102.996m23.702.638c-.4.301-1 .303-1.4.004-.301-.4-.002-.7.698-.702s1.001.298.702.698M475.692 915.22c.302.899 1.109 3.397 1.815 5.695s1.61 4.096 2.21 4.094c.5-.001.598-.801.196-1.8-.403-.9-1.108-3.097-1.613-4.896-.605-1.799-1.51-3.496-2.11-3.895-.702-.498-.9-.197-.498.802M177.809 922.1c-.198.7-.284 6.2-.168 12.3l.328 10.9 44-.116 44-.115.27-11.6c.27-11.602.27-11.602-2.932-12.293-1.701-.296-21.602-.544-44.102-.485-32.8.086-40.999.408-41.396 1.409m49.704 1.57 34.9-.092.026 10 .026 10-41 .107-41 .108-.025-9.9-.027-10 4.8-.413c2.599-.207 5.299-.214 6-.015.8.197 17.1.255 36.3.204"/><path d="M187.117 925.375c-.399.401-.693 2.502-.687 4.702.009 3.4.31 3.9 2.009 3.395 2.098-.506 2.902.792 2.209 3.494-.495 1.901-2.194 2.506-2.198.806-.002-.6-.403-1-1.003-.998-1.3.004-1.294 2.304.11 3.7 1.604 1.596 3.901.49 4.894-2.213 1.192-3.103.184-6.3-2.118-6.994-2.602-.793-2.41-3.494.19-3.5 1.2-.004 1.9-.506 1.697-1.305-.503-1.399-4.005-2.09-5.103-1.087M198.52 926.045c-1.895 2.305-2.382 7.307-1.072 11.103 2.117 6.395 6.01 3.985 5.99-3.715-.018-7.1-2.227-10.495-4.919-7.388m2.717 6.693c-.385 6.001-2.182 7.106-2.596 1.607-.411-4.299.183-6.6 1.783-6.605.7-.001 1.005 1.898.813 4.998M219.62 925.99c-1.596 1.904-1.769 12.305-.164 14.2 1.605 1.896 2.505 1.894 4.3-.01 1.995-1.906 1.665-13.305-.438-14.6-1.903-1.195-2.503-1.093-3.699.41m3.307 3.191c.003 1-.594 2.002-1.194 2.204-.799.302-1.301-.497-1.306-2.197-.004-1.7.494-2.501 1.294-2.303.601.298 1.204 1.297 1.206 2.296m.216 6.1c.806 2.198-1.488 4.404-2.593 2.507-1.004-1.598-.41-4.1.99-4.103.5-.001 1.201.697 1.603 1.596M230.117 925.363c-.399.3-.693 2.401-.687 4.601.008 3.1.31 3.8 1.508 3.297 1.798-.705 3.004 1.592 2.11 3.994-.496 1.301-.896 1.402-2.098.406-1.203-.997-1.503-.997-1.5.303.005 1.9 2.31 3.794 3.608 2.891.599-.402 1.596-1.704 2.292-3.006.995-1.903.993-2.803-.412-4.799-.804-1.298-2.007-2.395-2.507-2.393-1.9.005-1.007-2.798 1.092-3.303 1.199-.303 1.797-1.005 1.395-1.604-.703-1.198-3.803-1.49-4.8-.387M241.331 930.633c-2.786 5.208-2.684 6.007.316 6 1.4-.004 1.802.595 1.606 2.195-.196 1.5.206 2.3 1.206 2.297s1.497-1.004 1.392-3.003c-.327-10.1-.533-12.5-1.133-12.498-.5.002-1.994 2.206-3.387 5.01m1.809 3.196c-.298.8-.599.501-.602-.599-.103-1.1.196-1.7.497-1.301.3.3.403 1.199.105 1.9M251.137 932.808c-1.187 4.903-1.38 7.503-.679 8.201 1.003.998 1.103.898 1.393-2.903.192-3.1 2.994-2.408 3.402.69.307 2.8 1.61 3.597 2.605 1.894.298-.5.194-2.2-.31-3.7-.504-1.598-1.413-4.795-2.019-7.194-.706-2.298-1.51-4.196-1.91-4.195-.5.001-1.592 3.204-2.482 7.207m3.3-.209c0 .5-.398 1.001-.998 1.003-.5 0-1.001-.498-1.003-.998-.001-.6.498-1.001.998-1.002.6-.002 1 .397 1.002.997M207.638 933.322c1.003.997 5.803 1.184 6.401.283.299-.501-1.202-.897-3.202-.892-2.1.006-3.5.31-3.199.609M367.017 925.104c-.298.601.104 1.3 1.004 1.598 2.403.893 5.402.685 5.4-.415-.002-.6-.603-.998-1.403-.996s-2.101-.294-2.902-.592c-.8-.298-1.8-.096-2.099.405M376.92 926.378c-.498.702 2.906 1.893 5.806 1.885.9-.002 1.699-.404 1.697-.904-.003-1.1-6.905-1.982-7.502-.98M289.429 929.607c.004 1.6-.395 1.901-2.097 1.406-1.4-.496-2.5-.194-2.998.608-.597 1.001-2.897 1.307-8.297 1.021-10.201-.373-9.896 1.526.306 2.4 6.602.582 8.003.979 8.407 2.578.302.999 2.107 2.594 4.009 3.49 3.004 1.391 4.004 1.489 6.6.382 2.798-1.107 3.096-1.708 3.086-5.608s-.412-4.7-3.217-6.392c-4.206-2.489-5.806-2.485-5.8.115m5.504 1.486c2.504 1.593 3.312 4.791 1.615 5.796-1.098.703-6.111-4.184-6.116-5.984s1.495-1.804 4.5.188m-5.292 3.114c2.406 2.194 2.517 6.493.114 5.6-2.702-.893-4.208-3.09-3.613-5.291.593-2.402 1.093-2.503 3.499-.31m5.814 5.385c.001.5-.398.9-.998.902-.5.002-1.002-.697-1.004-1.597-.002-.8.497-1.201.998-.903.6.299 1.002.998 1.004 1.598M480.731 930.207c.202.699 1.31 3.896 2.318 6.994 1.009 3.197 2.115 5.794 2.615 5.793 1.2-.003.998-1.003-1.32-7.797-1.109-3.397-2.516-6.193-3.116-6.192-.6.002-.799.602-.497 1.202M485.938 932.693c.502.999 1.008 3.197 1.313 4.997.509 3.598.309 3.499 17.222 8.654 33.126 9.914 36.728 10.704 39.421 7.897 3.391-3.409 1.587-4.904-9.92-7.874-10.508-2.672-31.624-9.017-35.028-10.408-1.101-.497-3.804-1.39-6.005-2.084-2.202-.595-4.404-1.489-4.906-1.988-1.703-1.495-2.902-.992-2.097.806m56.55 19.152c.001.5-.398 1.001-.998 1.003-.5 0-1-.498-1.002-.998-.002-.6.497-1.001.997-1.002.6-.002 1.001.397 1.003.997M486.472 945.992c.006 2.1 2.524 8.993 3.224 8.991 1.2-.003.893-2.702-.617-6.498-1.509-3.396-2.612-4.493-2.607-2.493M417.484 950.672c.004 1.4.507 2.499 1.007 2.498.6-.002.997-1.103.993-2.503-.003-1.4-.406-2.499-1.006-2.497-.5 0-.997 1.102-.994 2.502M417.508 959.572c.005 2 .51 3.599 1.01 3.598.6-.002.996-1.303.991-2.903-.004-1.7-.408-3.299-1.009-3.597-.601-.399-.998.802-.992 2.902M179.204 958.496c-.4.301-.685 5.702-.669 12.002l.03 11.3 14.3-.038c7.8.08 27.7.128 44.2.185l30.001.121-.031-12-.032-12-43.6-.186c-23.9-.037-43.9.215-44.199.616m85.13 11.277-.273 10.301-23.5-.038c-12.9-.067-31.3-.119-40.701-.194l-17.3-.055-.026-10-.027-10 41-.107 41.1-.108z"/><path d="M188.523 965.772c.009 3.3.31 3.999 2.01 3.994 1.5-.003 2.002.695 2.007 2.395.004 1.4-.393 2.801-.992 3.103-.5.301-1 .102-1.001-.398-.002-.6-.703-1.098-1.603-1.095-1.9.005-1.395 2.003.809 3.398 2.304 1.393 4.798-.913 4.788-4.413q-.007-2.85-2.712-4.793c-2.806-2.093-2.411-4.194.789-4.202 1.1-.003 1.699-.504 1.397-1.004-.301-.599-1.702-.995-3.102-.992-2.1.006-2.4.407-2.39 4.007M199.618 963.643c-2.19 4.105-.362 14.7 2.336 13.794.6-.202 1.695-1.605 2.491-3.207 2.884-6.108-1.743-16.395-4.827-10.587m3.915 5.79c.01 3.9-.883 6.502-2.085 5.705-1.002-.597-1.226-9.697-.228-10.7 1.097-1.102 2.304 1.494 2.313 4.994M219.916 963.19c-.893 2.402.61 3.898 2.005 1.894 1.794-2.404 2.9-.207 1.609 3.096-1.192 3.203-1.275 9.803-.077 9.1.5-.301 1.093-2.903 1.385-5.803s.784-6.302 1.18-7.603c.695-2.002.395-2.202-2.405-2.194-1.8.005-3.399.609-3.697 1.51M231.616 963.059c-1.894 2.305-.882 7.002 1.721 8.095 2.303.994 2.908 2.893 1.21 3.997-.498.302-.999.103-1-.397-.002-.6-.403-1.1-1.003-1.098-1.6.005-1.192 3.004.51 3.6 2.802 1.092 4.495-1.613 4.482-6.813-.02-7.6-2.83-11.092-5.92-7.384m3.91 3.59q.007 2.999-1.493 3.004-1.5.003-1.507-2.997-.008-3 1.492-3.003t1.508 2.996M242.716 962.83c-.699.702-1.19 3.703-1.183 6.803.015 5.5 1.121 7.997 3.721 7.99.8-.002 1.797-1.204 2.393-2.706 1.192-3.203-.219-7.3-2.619-7.293-.8.002-1.501-.596-1.504-1.396-.005-2 1.693-2.905 2.297-1.406.202.7.702.998 1.102.697.997-.903-.41-3.9-1.81-3.895-.7.001-1.7.504-2.397 1.206m3.325 9.791c.004 1.3-.593 2.502-1.193 2.703-.899.303-1.301-.596-1.307-2.696-.005-2.1.392-3.001 1.293-2.804.6.299 1.204 1.497 1.207 2.797M252.533 969.604c.02 7.8.121 8 2.421 7.994 3.3-.009 3.897-1.31 3.68-7.81-.216-6-1.322-8.196-4.222-8.189-1.7.005-1.897.805-1.879 8.005m3.991-3.51c.004 1.4-.393 2.5-.993 2.502-.5.002-1.003-1.097-1.007-2.497-.003-1.4.494-2.501.994-2.503.6-.001 1.003 1.098 1.006 2.498m.519 6.998c.002 1-.595 2.002-1.195 2.203-.799.303-1.301-.496-1.305-2.196s.493-2.501 1.293-2.304c.601.299 1.204 1.297 1.207 2.297M209.733 969.416c-1.998.805-.294 2.301 2.806 2.293 3.3-.009 4.796-1.513 2.393-2.406-1.801-.696-3.301-.692-5.2.113M491.007 959.18c.303 1.299.909 3.297 1.212 4.597.404 1.699 1.005 2.097 2.404 1.693 2.099-.705 2.603.894.706 2.098-.6.402-1.9-.195-2.904-1.492-1.806-2.195-3.304-1.391-2.297 1.206.806 2.198 3.007 2.792 5.905 1.685 3.496-1.31 3.187-4.609-.517-6.499-1.803-.895-3.007-2.292-3.01-3.492-.003-1.1-.505-1.999-1.105-1.997-.7.002-.898.802-.394 2.2M417.631 968.672c.111 4 .111 4 1.104 1.197.694-2.102.691-3.202-.11-4-.803-.798-1.1.003-.994 2.803M417.555 977.672c.004 1.5.406 2.4 1.005 1.998.6-.302.997-1.203.995-2.003s-.404-1.7-1.005-1.997c-.601-.399-.999.502-.995 2.002M431.77 983.335c-.698.702-1.194 2.203-1.191 3.403.004 1.7-.694 2.402-2.693 2.707-2.699.407-2.699.407-.497 1.201 1.201.397 2.204 1.595 2.207 2.595.003 1.1 1.708 2.995 3.911 4.39 3.206 2.191 3.909 3.29 4.418 6.888.306 2.3.414 5.199.117 6.3s-.094 2.4.507 2.698c.801.498 1.097-1.303 1.085-5.603.083-6.6 2.072-10.805 5.372-10.814 1.8-.004 4.59-3.712 4.584-6.212-.007-2.6-4.015-5.79-7.415-5.78-1.7.004-4.002-.69-5.004-1.487-2.405-1.794-3.805-1.89-5.401-.286m3.206 2.392c1.502.596 1.502.796-.095 2-1.696 1.304-1.696 1.304.004 1.4 1.2-.003 1.702.595 1.505 1.696-.198 1-.996 1.702-1.597 1.504-1.5-.296-1.596 1.404-.194 2.3 2.004 1.195 4.196-1.71 3.588-4.709-.507-2.599-.407-2.799 1.395-1.804 2.103 1.095 2.61 3.494 1.012 4.498-.499.301-.995 1.702-.992 3.102.008 2.9-1.292 3.004-5.599.315-3.505-2.09-4.108-3.29-2.411-4.394.599-.301.995-1.902.99-3.602-.008-3.1.092-3.2 2.394-2.306m10.522 8.472c-1.896 1.205-2.4.206-.804-1.698.897-1.102 1.397-1.304 1.699-.404.302.699-.196 1.6-.895 2.102M417.571 983.772c.004 1.5 3.716 6.09 4.314 5.389.3-.3-.605-1.899-1.909-3.495-1.304-1.697-2.407-2.494-2.405-1.894M502.595 992.65c.003 1.2.506 2.498 1.007 2.797 1.302.797 1.296-1.503-.01-3.5-.802-1.198-1.002-1.097-.997.703M176.606 997.303c-1.496 1.804-.483 6.501 1.517 6.496 1.9-.005 2.905 1.992 1.708 3.196-.798.802-1.598.704-2.8-.293-1.604-1.196-1.704-1.196-1.1.403.403.999.706 2.098.706 2.298s.701.398 1.601.396c4.2-.011 6.076-9.216 2.568-12.307-2.305-2.094-2.605-2.093-4.2-.189m3.807 2.79c.203 1-.296 1.7-1.196 1.703-1 .003-1.602-.896-1.605-2.096-.006-2.4 2.294-2.106 2.8.393M185.408 998.38c-1.093 2.403-.992 2.903 1.714 4.995 2.505 1.894 2.706 2.593 1.609 3.596s-1.397 1.004-1.8.005c-.302-.6-.902-.898-1.402-.596-1.298.703.91 3.397 2.71 3.393s3.39-3.21 3.381-7.01c-.017-6.5-4.024-9.289-6.212-4.383m4.206 1.989c.002.8-.697 1.402-1.497 1.404-1.5.004-2.105-2.095-.908-3.298.997-.902 2.4.194 2.405 1.894M195.805 996.953c-1.595 2.004-1.273 10.403.43 11.799 1.103.997 1.803.895 3.3-.409 1.496-1.404 1.793-2.605 1.384-5.904-.61-4.098-1.817-6.695-3.317-6.691-.4.001-1.199.603-1.797 1.205m2.806 2.292c.002.8-.396 1.501-.996 1.503-.5.001-1.002-.697-1.004-1.497s.496-1.502.996-1.503c.6-.002 1.002.697 1.004 1.497m.517 6.5c.002.7-.596 1.5-1.196 1.702-.799.302-1.3-.396-1.304-1.696s.495-2.002 1.295-1.804c.6.299 1.203 1.097 1.205 1.797M204.608 998.33c-1.986 5.105-.57 11.401 2.53 11.393 1.6-.004 3.492-3.009 3.486-5.509-.002-.8-1.106-2.097-2.507-2.693-3.104-1.392-2.71-3.393.492-3.002 1.9.195 2.1-.005.997-1.302-1.906-2.195-3.905-1.79-4.998 1.113m3.819 7.09c-.394 2.2-2.195 2.005-2.6-.093-.203-1 .296-1.601 1.296-1.604 1-.002 1.501.696 1.304 1.697M233.805 996.853c-1.696 1.705-1.473 10.304.33 11.8 2.305 1.893 4.302.488 4.992-3.414 1.183-6.403-2.13-11.594-5.322-8.386m3.206 2.392c.906 2.298.715 5.698-.38 7.4-.698 1.103-1.098.904-1.904-1.394-1.108-2.797-.52-7.599.88-7.602.4-.002 1.102.697 1.404 1.596M261.805 996.78c-1.297 1.303-1.69 3.804-.59 3.802.4-.002 1.297-.804 1.995-1.806 1.196-1.603 1.296-1.603 2 .095.403 1.299-.193 2.7-2.088 4.706-3.191 3.308-2.784 6.007 1.016 5.997 3-.008 3.396-1.709.394-2.201-2-.295-1.9-.395.49-3.701 1.794-2.405 2.29-3.906 1.686-5.505-1.006-2.497-3.108-3.192-4.903-1.387M215.615 1000.7c-2.19 4.307-2.19 4.307.116 6.1 4.008 3.09 4.207 2.79 3.888-4.61-.216-5.799-1.517-6.296-4.004-1.49m1.612 4.697c-1.097 1.103-1.902-.595-1.106-2.397.795-1.703.795-1.703 1.2-.004.302 1 .205 2.1-.094 2.4M244.014 1000.327c-.995 2.102-1.89 4.104-2.088 4.505-.398.901 5.61 3.785 6.107 2.984.896-1.502-.027-10.6-1.128-10.897-.6-.198-1.897 1.305-2.891 3.408m2.607 2.693c.002.8-.395 1.8-.995 2.102-.499.302-1-.297-1.003-1.397-.003-1.2.494-2.101.994-2.103.6-.001 1.002.598 1.004 1.398M253.107 997.603c-.399.7-.196 1.7.406 2.299.601.598 1.108 3.097 1.114 5.597.009 3.2.311 4.199 1.11 3.397 1.296-1.304.67-11.502-.832-11.998-.6-.198-1.4.104-1.798.705M504.609 998.144c.002.9.505 1.999 1.006 2.298 1.302.796 1.299-.504-.007-2.5-.803-1.298-1.003-1.298-1 .202M223.622 1003.68c.002.5 1.403.996 3.003.992 1.7-.004 2.999-.508 2.997-1.008-.001-.6-1.302-.996-3.002-.992-1.6.004-3 .408-2.998 1.008M506.628 1005.439c0 .2.404 1.399.907 2.698.504 1.298 1.208 3.197 1.511 4.196.403.999.905 1.697 1.204 1.397.698-.702-1.923-8.795-2.823-8.793-.5.001-.8.202-.799.502M394.455 1015.933c-1.599.404-1.795 1.804-1.767 12.404.03 11.5.13 11.9 2.332 12.294 1.2.297 21.002.645 44.002.885l41.701.391.09-4.2c-.007-2.3.08-7.7.268-12.001.089-4.3-.12-8-.521-8.199-.401-.299-17.802-.653-38.603-.899-20.8-.245-39.602-.596-41.802-.79s-4.8-.088-5.7.115m31.207 2.718c10.7.172 27.102.43 36.302.405l16.8-.044-.483 6.701c-.29 3.801-.478 8.502-.472 10.702-.09 3.9-.09 3.9-5.291 3.313-2.901-.392-21.402-.644-41.002-.592l-35.8-.006-.027-10.4c-.03-11.5-.03-11.5 7.471-10.82 1.7.096 11.802.47 22.502.741"/><path d="M402.669 1021.211c-1.691 3.305-.88 7.503 1.52 7.496 1.3-.003 2.001.695 2.005 1.995.004 1.5-.595 1.902-2.296 1.706-1.8-.095-2.3.206-1.996 1.505.507 2.499 3.908 2.89 5.502.686 1.993-2.705 1.586-5.204-1.22-7.997-2.608-2.593-2.512-4.393.088-4.4 2-.005 1.193-2.403-.908-2.798-.8-.198-2.098.606-2.695 1.807M413.97 1021.382c-4.286 5.41-1.053 18.002 3.435 13.59 1.795-1.904 1.967-12.704.164-13.9-1.903-1.195-2.503-1.093-3.6.31m2.716 6.293c.008 3-.386 5.5-.986 5.502-1.1.003-1.424-9.296-.327-10.299 1.197-1.203 1.298-.803 1.313 4.797M434.77 1021.527c-.598.702-1.092 2.903-1.088 4.703l.015 5.8c-.09 3.4 2.516 5.893 4.812 4.487 1.298-.803 1.693-2.604 1.782-7.004.178-8.3-2.331-11.894-5.521-7.986m3.61 3.99c-.397.902-1.095 1.604-1.695 1.605-1.1.003-1.41-3.296-.312-4.399 1.097-1.003 2.603 1.093 2.007 2.795m-.182 6.601c.003 1.3-.494 2.502-1.193 2.703-1.299.504-2.709-3.193-1.813-4.695 1.096-1.803 3-.508 3.006 1.992M446.48 1025.497c-3.386 5.308-3.483 6.209-.381 7 1.8.396 2.303 1.095 1.906 2.596-.396 1.4.006 2 1.006 1.997s1.697-1.104 1.892-2.805c.39-3.901-.334-13.2-1.034-13.197-.4 0-1.895 2.005-3.389 4.409m2.208 2.994c.001.3-.398.8-.997 1.102-.5.302-1 .103-1.001-.397-.002-.6.497-1.101.997-1.103.6-.001 1 .198 1.001.398M457.67 1021.267c-.1.2-.19 3.8-.28 8.101-.181 6.9.02 7.7 1.72 7.696 1.2-.004 1.6-.505 1.196-1.604-.302-.899-.611-4.498-.62-7.998-.01-3.6-.417-6.399-1.017-6.397-.5.001-1 .102-1 .202M465.875 1023.546c-.696 1.402-1.19 3.903-1.185 5.503.013 5 2.02 7.995 5.22 7.986 2.5-.006 2.8-.307 2.791-3.507-.005-1.9-.01-3.8-.01-4.3-.002-.4-.603-.698-1.203-.697-.7.002-1.198.803-.995 1.903.203 1 .107 2.5-.191 3.3-.497 1.202-.897 1.303-2.1.306-1.503-1.296-2.016-6.495-.924-9.398.696-1.702 3.394-2.209 3.399-.609 0 .5.502.999 1.002.998.6-.002.998-.903.995-2.003-.008-3.2-5.307-2.686-6.799.518M423.187 1028.258c-.398.5.303.999 1.403.996 1.2.097 2.6.193 3.1.292.601.098 1.1-.303 1.299-.804.297-1.2-5.105-1.686-5.802-.484M511.664 1019.026c.004 1.5 3.326 9.891 3.724 9.49.599-.601-1.62-7.796-2.823-9.092-.502-.5-.902-.698-.901-.398M516.7 1032.913c.006 2.2 2.524 8.993 3.424 8.99.4 0 .497-.8.095-1.8-.303-.899-.908-2.897-1.212-4.496-.607-2.699-2.312-4.794-2.307-2.694M521.735 1046.4c.006 2.3 3.533 12.49 4.333 12.488.5-.001.598-.801.195-1.8-.402-.9-1.31-3.697-2.216-6.194-1.512-4.596-2.316-5.994-2.312-4.494M527.28 1063.785c-.298.5-.096 1.2.505 1.599.5.299 1-.103.998-.903-.005-1.8-.606-2.098-1.502-.696M486.14 818.892c.03 11.9.03 11.9 2.832 12.493 1.501.296 21.702.743 45.003.982l42.202.59-.033-12.5-.033-12.5-5.701-.486c-3.2-.191-23.501-.438-45.001-.482l-39.3.003zm69.776-9.083 17.2-.045.028 10.6c.023 9-.173 10.5-1.474 10.004-.8-.298-18.002-.553-38.202-.6-20.3-.047-38.5-.299-40.501-.494-3.801-.49-3.801-.49-3.828-10.49l-.026-10.1 24.801.535c13.601.365 32.502.615 42.002.59"/><path d="M495.523 812.367c-.298.801-.393 2.701-.19 4.301.207 2.3.708 2.698 2.607 2.493 1.8-.305 2.2.194 2.206 2.194.008 2.9-1.888 4.405-3.093 2.508-1.105-1.797-2.102-.594-1.296 1.504.805 1.998 3.705 2.09 5.3.186 1.894-2.305.882-7.002-1.721-8.096-2.303-.993-2.61-3.893-.41-4.098.599-.102 1.699-.205 2.298-.306.5-.002.699-.602.397-1.102-.903-1.497-5.503-1.185-6.098.416M507.424 812.936c-1.793 2.805-1.67 11.505.234 13 2.305 1.894 4.301.488 5.09-3.614 1.38-7.603-2.436-14.193-5.324-9.386m3.713 4.99c.012 4.6-.881 7.203-2.083 6.406-1.002-.597-1.225-9.697-.328-10.7 1.396-1.303 2.401.595 2.411 4.295M528.824 812.88c-.297 1.101-.094 2.3.407 2.6.5.298.9-.003.898-.503a1.11 1.11 0 0 1 1.098-1.103c1.1-.003 1.005 1.897-.674 9.902-.494 2.601-.392 3.3.607 2.898.8-.202 1.495-2.004 1.69-3.904s.787-5.002 1.282-6.904c1.387-4.903 1.287-5.003-1.913-4.995-2 .006-2.999.608-3.395 2.01M540.126 813.45c-1.292 3.404-.282 7.101 2.12 7.695 1 .298 1.903 1.195 1.905 2.095.005 1.9-1.094 2.103-2.799.408-.902-.898-1.202-.697-1.197.903.007 2.7 2.509 3.593 4.504 1.688 1.695-1.805 2.073-10.506.465-13.501-1.507-2.696-3.907-2.39-4.998.713m4.007 2.99c.004 1.3-.393 2.401-.893 2.403-1.3.003-2.41-3.694-1.613-4.996.995-1.603 2.5-.107 2.506 2.593M550.82 811.523c-.399.3-.695 1.802-.691 3.201.006 2.4.106 2.4 1.401.497 2.193-2.906 2.998-1.008 1.71 3.995-1.285 5.404-1.38 7.604-.18 7.6.9-.001 3.962-14.81 3.16-15.507-.702-.699-4.702-.588-5.4.214M561.739 818.494c-1.88 7.905-1.976 9.305-.576 9.302.6-.002.997-1.103.994-2.503-.005-1.8.493-2.501 1.993-2.505s2.002.695 2.007 2.495c.003 1.4.506 2.498 1.006 2.497 1.2-.003 1.294-2.403.082-7-.505-1.899-1.212-4.697-1.517-6.296-1.011-4.398-2.208-3.195-3.99 4.01m2.9.293c.302.499.103 1-.397 1-.6.002-1.101-.497-1.102-.997-.002-.6.197-1 .397-1 .3-.001.801.397 1.103.997M517.839 818.509c-1.197 1.303.406 2.399 3.406 2.391 2-.005 2.899-.407 2.697-1.307-.504-1.299-5.006-2.187-6.103-1.084M434.127 814.128c-1.796 1.605-2.392 3.106-2.381 7.106-.085 5.9.918 6.898 6.516 6.183 2.899-.407 4.1-.11 5.504 1.586 2.407 2.694 3.507 2.69 6.799-.418 2.095-2.005 2.492-2.906 1.688-4.404-.602-.999-.705-2.098-.406-2.5.299-.3 7.798-.62 16.598-.643 12.2-.032 15.8-.341 15.397-1.34-.303-.9-4.403-1.188-16.303-1.157-15.4.04-16-.058-18.406-2.252-4.912-4.587-11.215-5.47-15.006-2.16m12.906 2.366c1.204 1.297 1.305 1.997.51 3.4-2.291 3.605-8.49 4.121-12.799.933-2.204-1.595-1.513-5.296 1.185-6.104 2.997-.807 9.4.176 11.104 1.771m3.115 5.492c.003 1.2-2.093 2.806-4.991 3.513-2.398.707-2.398.707-.502-.798 1.098-.803 2.494-2.007 2.993-2.508 1.297-1.304 2.496-1.407 2.5-.207M449.687 836.988c-3.098.908-5.094 2.413-6.387 4.916-.995 1.903-.793 2.602 1.312 4.697 1.404 1.396 2.907 2.492 3.407 2.49.6 0 2.005 2.096 3.212 4.693 2.413 5.193 5.722 8.585 7.22 7.68.599-.4.793-2.701.386-5.5l-.713-4.899 13.1-.034c8-.02 12.999-.434 12.997-1.034s-5.303-.986-13.903-.963c-14.9.039-16.1-.358-13.312-4.766 2.789-4.307-1.723-8.795-7.32-7.28m6.21 3.683c.705 1.998-3.384 6.41-5.984 6.416-2.7.007-5.707-2.785-5.012-4.687.497-1.201.697-1.202 1.5-.104.702.998 1.102.997 1.5-.004.198-.6 1.297-1.203 2.397-1.206 1-.003 1.898-.505 1.897-1.005-.004-1.6 2.997-1.208 3.702.59m-2.575 9.707c-.798.802-1.098.703-1.101-.397-.005-2 1.291-3.403 1.795-1.905.302.7-.096 1.7-.694 2.302m2.407 2.694c-.299.5-.997 1.002-1.597 1.004-.5.001-.902-.498-.903-.998-.002-.6.697-1.002 1.597-1.004.8-.002 1.201.397.903.998m1.008 2.997c-.299.5-.998 1.003-1.598 1.004-.5.002-.9-.497-.902-.997-.002-.6.697-1.002 1.597-1.005.8-.002 1.201.397.903.998M486.02 849.292c-.184 6.501-.069 12.2.232 12.7.301.4 20.103.847 44.003.985l43.501.286.268-12.2.268-12.102-8.301-.578c-4.6-.288-24.402-.636-44.002-.785l-35.701-.206zm74.977-8.496 10.2-.027.026 10 .027 10-37.2-.002c-20.5-.047-39.202-.298-41.502-.492-4.301-.488-4.301-.488-4.225-9.689.086-5 .375-9.5.673-10.001.3-.501 13.299-.635 31.1-.382 16.8.356 35.201.608 40.901.593"/><path d="M495.301 842.368c-.698.802-1.092 3.003-.887 4.802.207 2.8.708 3.299 2.608 2.994 1.799-.305 2.2.194 2.205 2.194.008 3.1-1.589 4.204-2.795 2.007-.703-1.198-1.103-1.297-1.6-.496-.897 1.403 1.11 4.098 3.01 4.093 1.6-.005 3.392-3.11 3.384-5.91-.002-1.1-1.207-2.896-2.61-3.993-2.605-1.993-2.51-4.093.19-4.1.8-.002 1.397-.704 1.395-1.504-.005-1.9-3.405-1.99-4.9-.087M507.2 842.137c-.099.2-.19 3.8-.279 8-.182 6.701.02 7.8 1.622 8.197 1.501.396 1.8-.005 1.295-1.704-.303-1.2-.613-4.998-.622-8.498-.009-3.4-.416-6.2-1.016-6.198-.5.002-1 .103-1 .203M526.222 850.387c.013 5 .422 8.5 1.022 8.498s.996-1.803.99-4.003.49-4.001.99-4.003c.6-.001 1.002.798 1.004 1.798.006 2.4 2.616 5.893 3.613 4.89.499-.401.196-1.7-.507-2.798-.804-1.398-1.01-3.498-.616-5.999.788-4.602-.618-6.898-4.118-6.889-2.3.006-2.4.206-2.378 8.506m4.49-4.012c.002 1-.595 2.002-1.195 2.204-.799.302-1.3-.497-1.305-2.197s.493-2.501 1.294-2.303c.6.298 1.203 1.296 1.206 2.296M537.806 844.057c-2.192 3.206-2.074 10.005.333 12.899 2.007 2.395 2.007 2.395 4.2.189 1.298-1.203 1.994-2.605 1.493-3.004-.401-.399-1.1-.097-1.598.604-.398.801-1.497 1.104-2.398.807-1.202-.497-1.605-1.996-1.615-5.596-.014-5.3 1.58-7.404 3.488-4.81 1.706 2.396 2.705 2.094 2.298-.605-.408-3.1-4.21-3.49-6.201-.484M549.104 843.427c-1.994 2.406-1.769 11.905.337 14 2.406 2.393 4.8.287 4.789-4.213-.007-2.5-.61-3.599-2.512-4.594-1.803-.995-2.205-1.694-1.508-2.796.797-1.202 1.097-1.302 1.9-.105.602.899 1.003.998 1.6.196.697-1.202-1.11-4.097-2.51-4.093-.4 0-1.298.703-2.096 1.605m3.126 9.992c.008 3.1-2.292 2.806-2.8-.393-.205-1.499.193-2.2 1.193-2.203 1.1-.003 1.603.896 1.607 2.596M515.72 849.915c-.298.5.004 1 .704.998s2.3.294 3.601.59c1.601.496 2.2.195 2.197-1.005-.004-1.8-5.406-2.286-6.501-.583M458.26 865.265c.103.7.707 2.398 1.51 3.796 1.508 2.596 1.904 1.195.894-2.802-.707-2.298-2.409-3.094-2.403-.994M462.795 878.253c.303 1.3.909 3.298 1.212 4.497.505 1.999 2.308 3.294 2.304 1.694-.005-2.1-2.522-8.393-3.322-8.391-.5.001-.597 1.001-.194 2.2M533.63 1082.369c.906 2.397 1.81 4.295 2.01 4.094.698-.701-1.922-8.595-2.822-8.592-.5.001-.195 2 .812 4.498M535.847 1089.163c.005 1.6 3.426 9.69 4.026 9.69 1.1-.004-1.823-8.796-3.125-9.593-.501-.298-.901-.297-.9-.097M540.883 1102.75c.001.5.506 2.198 1.01 3.697.905 2.198.807 2.898-.49 3.701-1 .503-1.397 1.604-.993 2.803.503 1.299.205 1.9-.995 1.903-2.6.006-3.109-3.092-.714-5.099 2.595-2.006 2.793-2.907.793-2.902-1.7.005-4.59 3.812-4.585 6.012.003.9 1.206 2.297 2.809 3.193 1.502.896 3.308 3.291 4.114 5.49 2.115 5.794 4.924 9.286 7.524 9.28 3.6-.01 4.894-2.313 4.18-7.511l-.71-4.399 9.698-.325c6.2-.216 9.899-.726 10.097-1.426.297-.901-2.403-.994-9.702-.675-9.999.526-9.999.526-10.005-2.074s-4.015-5.59-7.515-5.58c-.9.002-1.803-1.195-2.208-2.994-.508-2.899-2.314-5.194-2.308-3.094m10.03 11.573c.004 1.5-2.99 3.508-5.19 3.514-.7.002-.202-.7.995-1.603 1.198-.803 2.194-2.205 2.192-3.005s.497-1.202.998-.903c.6.299 1.003 1.297 1.005 1.997m-5 .014c.001.3-.198.5-.498.5-.3.002-.5-.198-.502-.498 0-.3.199-.5.499-.501.3 0 .5.199.501.499m5.019 7.086c.008 3.2-4.688 4.513-6.695 1.918-2.208-3.094-1.51-3.996 2.69-4.107 3.599-.11 4 .09 4.005 2.19m.217 6.6c-.598.601-1.898.705-2.899.407-1.602-.695-1.602-.895.695-2.101 2.596-1.407 4.1-.211 2.204 1.694M575.588 1104.459c-.4.3-.685 5.902-.668 12.402l.03 11.7 14.302.662c7.801.28 27.602.428 44.001.185l29.8-.378.068-11.8c.083-6.4-.13-11.9-.331-12.1-.802-.597-86.604-1.373-87.202-.671m84.207 2.68c1 .297 1.206 2.496.826 9.997-.286 5.301-.774 9.802-1.074 10.103-.498.501-23.399.361-34.6-.11-3-.191-14.8-.26-26.2-.33l-20.801-.046-.026-9.8c-.014-5.4.174-10.1.473-10.301.499-.602 79.5-.109 81.402.486"/><path d="M584.302 1110.136c-.89 3.802-.084 6.1 2.417 6.394 3.301.491 2.713 4.793-.588 4.501-2.4-.293-2.798.708-.994 2.503s3.304 1.391 4.797-1.213c1.592-3.104.48-7.6-2.021-8.294-2.702-.693-2.509-3.094.29-3.501 2.9-.408 2.395-2.206-.706-2.598-2.001-.295-2.7.207-3.195 2.208M596.1 1108.905c-1.796 1.805-1.566 13.304.338 14.8 2.806 2.292 4.499-.512 4.48-7.412-.014-5.5-1.122-8.598-3.022-8.593-.3.001-1.099.503-1.797 1.205m2.818 7.293c.008 3-.385 5.5-.985 5.502-.5.002-1.007-2.497-1.015-5.497s.486-5.501.986-5.503c.6-.001 1.006 2.498 1.014 5.498M616.598 1108.251c-.4.402-.695 1.902-.692 3.302.006 2.3.107 2.4 1.302.597 2.093-2.706 2.899-.408 1.712 4.695-1.186 5.404-1.28 7.804-.08 7.8.5 0 1.294-2.603 1.685-5.804.292-3.1 1.083-6.503 1.58-7.504s.795-2.002.595-2.201c-.802-.898-5.404-1.486-6.102-.885M627.9 1109.122c-1.296 1.503-1.583 6.604-.578 8.401.401.6 1.403 1.097 2.203 1.095s1.402.896 1.405 2.096c.005 1.8-.195 1.9-1.497.904-1.904-1.495-3.002-.692-2.096 1.505.302 1 1.503 1.496 2.803 1.293 2-.305 2.397-1.106 2.885-5.807.292-3.001.183-6.501-.22-7.6-1.007-2.697-3.41-3.691-4.905-1.887m3.012 4.492c.004 1.6-.392 3.001-.992 3.003-.5 0-1.004-1.398-1.008-2.998-.005-1.7.492-3.001.992-3.002.6-.002 1.003 1.297 1.008 2.997M638.103 1110.295c-.497 1.001-.788 4.502-.78 7.802.115 5.7.216 6 2.717 6.293 1.9.195 2.8-.307 3.694-2.21.795-1.802.793-2.702.092-3.2-.601-.398-.805-1.998-.51-3.898.395-1.801.39-4.001-.013-4.9-.806-2.098-4.106-2.09-5.2.113m3.806 2.29c.003 1.1-.695 2.002-1.495 2.004s-1.502-.896-1.505-1.996.695-2.002 1.495-2.004 1.502.896 1.505 1.996m-.284 6.101c1.404 1.396.61 3.898-1.29 3.903-.8.002-1.402-.996-1.406-2.496-.007-2.7.891-3.202 2.696-1.407M604.92 1116.682c0 .5 1.602.996 3.502.99 1.9-.004 3.499-.508 3.498-1.008-.002-.6-1.603-.996-3.503-.991s-3.499.41-3.497 1.01"/></svg>